<?xml version="1.0" encoding="UTF-8"?>
<!DOCTYPE svg PUBLIC "-//W3C//DTD SVG 1.1//EN" "http://www.w3.org/Graphics/SVG/1.1/DTD/svg11.dtd">
<svg xmlns="http://www.w3.org/2000/svg" version="1.1" width="96px" height="96px" style="shape-rendering:geometricPrecision; text-rendering:geometricPrecision; image-rendering:optimizeQuality; fill-rule:evenodd; clip-rule:evenodd" xmlns:xlink="http://www.w3.org/1999/xlink">
<g><path style="opacity:0.997" fill="#dc1c21" d="M -0.5,-0.5 C 31.5,-0.5 63.5,-0.5 95.5,-0.5C 95.5,31.5 95.5,63.5 95.5,95.5C 63.5,95.5 31.5,95.5 -0.5,95.5C -0.5,63.5 -0.5,31.5 -0.5,-0.5 Z"/></g>
<g><path style="opacity:1" fill="#fef9f9" d="M 29.5,17.5 C 41.884,14.7671 49.384,19.4337 52,31.5C 52.2022,29.7444 52.7022,28.0777 53.5,26.5C 66.2247,34.616 72.0581,46.2827 71,61.5C 73.1847,62.9284 75.1847,64.5951 77,66.5C 77.9782,69.6693 77.4782,72.5027 75.5,75C 70.2246,76.8959 64.8913,77.3959 59.5,76.5C 57.2024,74.2503 56.369,71.5836 57,68.5C 60.106,67.7001 62.606,66.0334 64.5,63.5C 64.3333,63.1667 64.1667,62.8333 64,62.5C 61.0878,65.5445 57.5878,66.7111 53.5,66C 54.9639,60.0674 53.1306,55.2341 48,51.5C 47.1264,46.3803 46.4597,46.3803 46,51.5C 53.0062,57.0879 54.1728,63.5879 49.5,71C 46.648,71.9132 44.4814,71.0799 43,68.5C 42.6667,62.5 42.3333,56.5 42,50.5C 41.586,50.0426 41.086,49.7093 40.5,49.5C 40.5772,54.5632 40.4106,59.8965 40,65.5C 33.611,62.1109 28.9443,57.1109 26,50.5C 27.2514,55.7063 27.5848,61.0396 27,66.5C 25.0624,67.8602 23.3957,67.5268 22,65.5C 20.0596,54.5093 21.0596,43.8426 25,33.5C 25.9326,37.1998 27.7659,40.3664 30.5,43C 35.605,44.3851 38.105,42.5518 38,37.5C 36.6661,41.1044 34.1661,42.271 30.5,41C 29.1764,37.5717 27.3431,34.405 25,31.5C 22.7095,34.0249 21.3762,37.0249 21,40.5C 20,41.8333 19,41.8333 18,40.5C 17.3333,38.1667 17.3333,35.8333 18,33.5C 19.8665,31.1918 20.8665,28.5251 21,25.5C 23.0738,21.9231 25.9072,19.2565 29.5,17.5 Z"/></g>
<g><path style="opacity:1" fill="#da1818" d="M 40.5,28.5 C 41.5,28.5 42.5,28.5 43.5,28.5C 43.5,29.8333 43.5,31.1667 43.5,32.5C 40.0464,32.7332 39.0464,31.3999 40.5,28.5 Z"/></g>
</svg>
