<?xml version="1.0" encoding="UTF-8"?>
<!DOCTYPE svg PUBLIC "-//W3C//DTD SVG 1.1//EN" "http://www.w3.org/Graphics/SVG/1.1/DTD/svg11.dtd">
<svg xmlns="http://www.w3.org/2000/svg" version="1.1" width="96px" height="96px" style="shape-rendering:geometricPrecision; text-rendering:geometricPrecision; image-rendering:optimizeQuality; fill-rule:evenodd; clip-rule:evenodd" xmlns:xlink="http://www.w3.org/1999/xlink">
<g><path style="opacity:0.935" fill="#030202" d="M 31.5,-0.5 C 42.1667,-0.5 52.8333,-0.5 63.5,-0.5C 67.4569,0.341911 71.4569,1.50858 75.5,3C 76.0219,3.5613 76.3552,4.22797 76.5,5C 72.6491,14.7862 70.9825,24.9529 71.5,35.5C 75.5459,35.8104 79.3792,36.8104 83,38.5C 83.8959,41.025 83.3959,43.1917 81.5,45C 78.978,46.3409 76.3113,47.1743 73.5,47.5C 72.6201,49.6112 72.6201,51.6112 73.5,53.5C 71.6571,53.8459 70.3238,53.8459 69.5,53.5C 68.8333,53.5 68.1667,53.5 67.5,53.5C 65.6203,53.7709 64.287,53.1042 63.5,51.5C 65.3881,50.7249 67.3881,50.7249 69.5,51.5C 71.1042,50.713 71.7709,49.3797 71.5,47.5C 63.6019,47.1136 63.6019,46.1136 71.5,44.5C 68.7513,41.054 65.7513,40.7207 62.5,43.5C 62.5,42.8333 62.5,42.1667 62.5,41.5C 63.7095,41.0679 64.7095,40.4013 65.5,39.5C 69.95,38.0256 74.2834,38.359 78.5,40.5C 79.6956,40.1543 79.6956,39.6543 78.5,39C 77.5,38.6667 76.5,38.3333 75.5,38C 56.8303,36.0161 38.1636,36.0161 19.5,38C 18.5,38.3333 17.5,38.6667 16.5,39C 15.3044,39.6543 15.3044,40.1543 16.5,40.5C 20.7166,38.359 25.05,38.0256 29.5,39.5C 31.5554,40.5588 32.8888,42.2254 33.5,44.5C 33.1667,44.5 32.8333,44.5 32.5,44.5C 30.3886,40.8348 27.722,40.5015 24.5,43.5C 25.8237,44.9347 27.4904,45.9347 29.5,46.5C 27.604,47.4656 25.604,47.7989 23.5,47.5C 23.4326,48.9587 23.7659,50.2921 24.5,51.5C 23.8333,51.5 23.1667,51.5 22.5,51.5C 21.0179,47.4692 18.0179,45.3025 13.5,45C 10.6012,41.8442 10.9345,39.1775 14.5,37C 17.5131,36.4978 20.5131,35.9978 23.5,35.5C 24.0175,24.9529 22.3509,14.7862 18.5,5C 18.8198,3.34684 19.8198,2.34684 21.5,2C 24.9913,1.26201 28.3246,0.428675 31.5,-0.5 Z"/></g>
<g><path style="opacity:1" fill="#262626" d="M 32.5,1.5 C 42.5056,1.33352 52.5056,1.50019 62.5,2C 64.9519,2.28953 67.2852,2.9562 69.5,4C 62.238,3.18054 54.9047,2.68054 47.5,2.5C 40.9143,2.42758 34.4143,3.09425 28,4.5C 26.2785,4.38934 26.1118,3.88934 27.5,3C 29.3817,2.80192 31.0484,2.30192 32.5,1.5 Z"/></g>
<g><path style="opacity:1" fill="#282928" d="M 26.5,15.5 C 27.3024,18.5738 28.3024,21.5738 29.5,24.5C 27.9139,25.4132 26.4139,25.4132 25,24.5C 24.5836,18.331 23.4169,12.331 21.5,6.5C 21.9809,4.26875 22.6476,4.10209 23.5,6C 24.2899,9.35597 25.2899,12.5226 26.5,15.5 Z"/></g>
<g><path style="opacity:1" fill="#313131" d="M 71.5,4.5 C 72.5862,4.61998 73.2528,5.28665 73.5,6.5C 71.5831,12.331 70.4164,18.331 70,24.5C 68.0985,25.3861 66.2651,25.0528 64.5,23.5C 64.9377,22.4937 65.6043,22.4937 66.5,23.5C 67.3333,22.5 68.1667,21.5 69,20.5C 69.363,15.049 70.1963,9.71563 71.5,4.5 Z"/></g>
<g><path style="opacity:1" fill="#cccfbf" d="M 41.5,28.5 C 38.8333,28.5 36.1667,28.5 33.5,28.5C 32.8333,28.5 32.1667,28.5 31.5,28.5C 31.3404,26.847 30.6737,25.5137 29.5,24.5C 28.3024,21.5738 27.3024,18.5738 26.5,15.5C 30.185,15.1046 33.8517,14.9379 37.5,15C 39.2194,19.376 40.5528,23.876 41.5,28.5 Z"/></g>
<g><path style="opacity:1" fill="#4f504a" d="M 33.5,16.5 C 36.462,16.1167 37.462,17.1167 36.5,19.5C 35.8076,18.9747 35.3076,18.3081 35,17.5C 34.8665,20.5251 33.8665,23.1918 32,25.5C 33.1798,22.528 33.6798,19.528 33.5,16.5 Z"/></g>
<g><path style="opacity:1" fill="#5d1b6a" d="M 65.5,33.5 C 65.0618,33.5654 64.7284,33.3988 64.5,33C 67.0635,32.237 67.0635,31.737 64.5,31.5C 62.1994,32.3958 59.8661,32.5625 57.5,32C 60.5443,31.6411 60.8776,30.9745 58.5,30C 59.056,29.6174 59.3893,29.1174 59.5,28.5C 62.8599,28.3841 66.1933,28.0508 69.5,27.5C 70.4015,31.2407 69.0681,33.2407 65.5,33.5 Z"/></g>
<g><path style="opacity:1" fill="#5e1b6b" d="M 31.5,28.5 C 32.1667,28.5 32.8333,28.5 33.5,28.5C 34.2625,29.2679 35.2625,29.7679 36.5,30C 33.4557,30.3589 33.1224,31.0255 35.5,32C 33.8214,32.3947 32.1547,32.228 30.5,31.5C 27.9365,31.737 27.9365,32.237 30.5,33C 30.2716,33.3988 29.9382,33.5654 29.5,33.5C 25.9319,33.2407 24.5985,31.2407 25.5,27.5C 27.5,27.8333 29.5,28.1667 31.5,28.5 Z"/></g>
<g><path style="opacity:1" fill="#2c0b33" d="M 33.5,28.5 C 36.1667,28.5 38.8333,28.5 41.5,28.5C 40.2721,30.0098 40.2721,31.5098 41.5,33C 37.3887,34.5277 33.3887,34.6943 29.5,33.5C 29.9382,33.5654 30.2716,33.3988 30.5,33C 27.9365,32.237 27.9365,31.737 30.5,31.5C 32.1547,32.228 33.8214,32.3947 35.5,32C 33.1224,31.0255 33.4557,30.3589 36.5,30C 35.2625,29.7679 34.2625,29.2679 33.5,28.5 Z"/></g>
<g><path style="opacity:1" fill="#2d0c34" d="M 59.5,28.5 C 59.3893,29.1174 59.056,29.6174 58.5,30C 60.8776,30.9745 60.5443,31.6411 57.5,32C 59.8661,32.5625 62.1994,32.3958 64.5,31.5C 67.0635,31.737 67.0635,32.237 64.5,33C 64.7284,33.3988 65.0618,33.5654 65.5,33.5C 61.6113,34.6943 57.6113,34.5277 53.5,33C 54.8333,31.6667 54.8333,30.3333 53.5,29C 55.4727,28.5045 57.4727,28.3379 59.5,28.5 Z"/></g>
<g><path style="opacity:1" fill="#242424" d="M 65.5,39.5 C 64.1667,39.5 62.8333,39.5 61.5,39.5C 52.1667,38.1667 42.8333,38.1667 33.5,39.5C 32.1667,39.5 30.8333,39.5 29.5,39.5C 25.05,38.0256 20.7166,38.359 16.5,40.5C 15.3044,40.1543 15.3044,39.6543 16.5,39C 17.5,38.6667 18.5,38.3333 19.5,38C 38.1636,36.0161 56.8303,36.0161 75.5,38C 76.5,38.3333 77.5,38.6667 78.5,39C 79.6956,39.6543 79.6956,40.1543 78.5,40.5C 74.2834,38.359 69.95,38.0256 65.5,39.5 Z"/></g>
<g><path style="opacity:1" fill="#000400" d="M 61.5,39.5 C 59.2113,41.448 56.878,43.448 54.5,45.5C 49.8701,43.1683 45.0368,42.8349 40,44.5C 37.6589,42.9838 35.4923,41.3172 33.5,39.5C 42.8333,38.1667 52.1667,38.1667 61.5,39.5 Z"/></g>
<g><path style="opacity:1" fill="#df7913" d="M 32.5,44.5 C 31.5849,46.7541 30.2516,48.7541 28.5,50.5C 28.5,51.1667 28.1667,51.5 27.5,51.5C 26.5,51.5 25.5,51.5 24.5,51.5C 23.7659,50.2921 23.4326,48.9587 23.5,47.5C 25.604,47.7989 27.604,47.4656 29.5,46.5C 27.4904,45.9347 25.8237,44.9347 24.5,43.5C 27.722,40.5015 30.3886,40.8348 32.5,44.5 Z"/></g>
<g><path style="opacity:1" fill="#000600" d="M 61.5,44.5 C 61.5,45.5 61.5,46.5 61.5,47.5C 60.9033,47.7352 60.5699,48.2352 60.5,49C 61.4841,50.6565 62.4841,52.3232 63.5,54C 63.2716,54.3988 62.9382,54.5654 62.5,54.5C 61.5,53.8333 60.5,53.1667 59.5,52.5C 58.9717,51.2794 58.305,50.1127 57.5,49C 59.1935,47.7501 60.5268,46.2501 61.5,44.5 Z"/></g>
<g><path style="opacity:1" fill="#b42701" d="M 32.5,44.5 C 32.8333,44.5 33.1667,44.5 33.5,44.5C 34.3779,49.2692 32.7112,51.2692 28.5,50.5C 30.2516,48.7541 31.5849,46.7541 32.5,44.5 Z"/></g>
<g><path style="opacity:1" fill="#032b02" d="M 62.5,41.5 C 62.5,42.1667 62.5,42.8333 62.5,43.5C 62.5,43.8333 62.5,44.1667 62.5,44.5C 62.1667,44.5 61.8333,44.5 61.5,44.5C 60.5268,46.2501 59.1935,47.7501 57.5,49C 58.305,50.1127 58.9717,51.2794 59.5,52.5C 57.5159,52.516 56.5159,51.516 56.5,49.5C 57.6157,46.0983 59.6157,43.4316 62.5,41.5 Z"/></g>
<g><path style="opacity:1" fill="#bd2801" d="M 61.5,44.5 C 61.8333,44.5 62.1667,44.5 62.5,44.5C 62.369,45.2389 62.5357,45.9056 63,46.5C 65.1936,48.365 67.3603,50.0317 69.5,51.5C 67.3881,50.7249 65.3881,50.7249 63.5,51.5C 62.3995,50.3951 61.7329,49.0618 61.5,47.5C 61.5,46.5 61.5,45.5 61.5,44.5 Z"/></g>
<g><path style="opacity:1" fill="#d67716" d="M 69.5,51.5 C 67.3603,50.0317 65.1936,48.365 63,46.5C 62.5357,45.9056 62.369,45.2389 62.5,44.5C 62.5,44.1667 62.5,43.8333 62.5,43.5C 65.7513,40.7207 68.7513,41.054 71.5,44.5C 63.6019,46.1136 63.6019,47.1136 71.5,47.5C 71.7709,49.3797 71.1042,50.713 69.5,51.5 Z"/></g>
<g><path style="opacity:1" fill="#0e2f01" d="M 61.5,47.5 C 61.7329,49.0618 62.3995,50.3951 63.5,51.5C 64.287,53.1042 65.6203,53.7709 67.5,53.5C 66.3588,54.339 65.0255,55.0057 63.5,55.5C 62.8933,55.3764 62.56,55.0431 62.5,54.5C 62.9382,54.5654 63.2716,54.3988 63.5,54C 62.4841,52.3232 61.4841,50.6565 60.5,49C 60.5699,48.2352 60.9033,47.7352 61.5,47.5 Z"/></g>
<g><path style="opacity:1" fill="#045807" d="M 29.5,39.5 C 30.8333,39.5 32.1667,39.5 33.5,39.5C 35.4923,41.3172 37.6589,42.9838 40,44.5C 45.0368,42.8349 49.8701,43.1683 54.5,45.5C 56.878,43.448 59.2113,41.448 61.5,39.5C 62.8333,39.5 64.1667,39.5 65.5,39.5C 64.7095,40.4013 63.7095,41.0679 62.5,41.5C 59.6157,43.4316 57.6157,46.0983 56.5,49.5C 56.5159,51.516 57.5159,52.516 59.5,52.5C 60.5,53.1667 61.5,53.8333 62.5,54.5C 62.56,55.0431 62.8933,55.3764 63.5,55.5C 65.0255,55.0057 66.3588,54.339 67.5,53.5C 68.1667,53.5 68.8333,53.5 69.5,53.5C 68.7888,55.0301 67.7888,56.3634 66.5,57.5C 60.9151,55.54 55.2484,53.8733 49.5,52.5C 47.8333,52.5 46.1667,52.5 44.5,52.5C 42.8008,52.3398 41.1341,52.5065 39.5,53C 36.2738,55.5754 32.6071,57.0754 28.5,57.5C 27.0858,55.9458 25.4192,54.6125 23.5,53.5C 22.3507,55.9248 21.684,55.9248 21.5,53.5C 21.3284,52.5084 21.6618,51.8417 22.5,51.5C 23.1667,51.5 23.8333,51.5 24.5,51.5C 25.5,51.5 26.5,51.5 27.5,51.5C 27.0825,52.2216 26.4158,52.7216 25.5,53C 30.7659,56.344 34.4325,54.844 36.5,48.5C 35.9649,46.739 34.9649,45.4057 33.5,44.5C 32.8888,42.2254 31.5554,40.5588 29.5,39.5 Z"/></g>
<g><path style="opacity:1" fill="#101701" d="M 33.5,44.5 C 34.9649,45.4057 35.9649,46.739 36.5,48.5C 34.4325,54.844 30.7659,56.344 25.5,53C 26.4158,52.7216 27.0825,52.2216 27.5,51.5C 28.1667,51.5 28.5,51.1667 28.5,50.5C 32.7112,51.2692 34.3779,49.2692 33.5,44.5 Z"/></g>
<g><path style="opacity:1" fill="#0a0b0a" d="M 44.5,52.5 C 46.1667,52.5 47.8333,52.5 49.5,52.5C 49.33,53.8221 49.6634,54.9887 50.5,56C 53.4608,56.9436 56.2941,58.1103 59,59.5C 60.0105,59.1081 60.5105,58.4415 60.5,57.5C 61.7387,57.9424 62.7387,58.6091 63.5,59.5C 62.7611,59.369 62.0944,59.5357 61.5,60C 65.4849,61.6052 69.4849,63.1052 73.5,64.5C 73.5,65.1667 73.5,65.8333 73.5,66.5C 68.9557,63.5421 63.9557,62.2088 58.5,62.5C 52.2,59.1265 45.8667,58.7931 39.5,61.5C 35.9359,62.4227 32.2693,62.756 28.5,62.5C 30.6853,61.8206 32.0186,60.8206 32.5,59.5C 32.811,58.5222 33.4777,57.8555 34.5,57.5C 34.4895,58.4415 34.9895,59.1081 36,59.5C 38.8333,58.3333 41.6667,57.1667 44.5,56C 45.6843,54.8545 45.6843,53.6879 44.5,52.5 Z"/></g>
<g><path style="opacity:0.581" fill="#040905" d="M 21.5,53.5 C 21.684,55.9248 22.3507,55.9248 23.5,53.5C 25.4192,54.6125 27.0858,55.9458 28.5,57.5C 28.5,57.8333 28.5,58.1667 28.5,58.5C 26.9582,57.6993 25.2915,57.366 23.5,57.5C 21.8333,58.5 20.5,59.8333 19.5,61.5C 17.0062,63.594 17.0062,65.594 19.5,67.5C 21.049,69.4054 22.8824,69.7387 25,68.5C 25.5,69 26,69.5 26.5,70C 22.2332,70.9872 21.8998,71.8205 25.5,72.5C 27.8479,74.1513 29.3479,76.4847 30,79.5C 32.2096,75.4303 32.7096,75.597 31.5,80C 33.7886,86.4367 35.2886,86.6034 36,80.5C 36.69,79.2617 37.19,79.2617 37.5,80.5C 37.3253,82.6208 37.6586,84.6208 38.5,86.5C 37.788,87.7387 36.788,88.2387 35.5,88C 31.5729,84.7981 28.5729,80.9648 26.5,76.5C 23.133,74.7726 19.9664,72.7726 17,70.5C 15.6986,68.6354 15.3653,66.6354 16,64.5C 17.7442,60.6461 19.5775,56.9795 21.5,53.5 Z"/></g>
<g><path style="opacity:1" fill="#78387e" d="M 49.5,52.5 C 55.2484,53.8733 60.9151,55.54 66.5,57.5C 66.5,57.8333 66.5,58.1667 66.5,58.5C 65.791,59.404 64.791,59.7373 63.5,59.5C 62.7387,58.6091 61.7387,57.9424 60.5,57.5C 60.5105,58.4415 60.0105,59.1081 59,59.5C 56.2941,58.1103 53.4608,56.9436 50.5,56C 49.6634,54.9887 49.33,53.8221 49.5,52.5 Z"/></g>
<g><path style="opacity:1" fill="#032a03" d="M 73.5,53.5 C 73.4226,54.7498 72.756,55.5831 71.5,56C 72.056,56.3826 72.3893,56.8826 72.5,57.5C 70.3792,57.3253 68.3792,57.6586 66.5,58.5C 66.5,58.1667 66.5,57.8333 66.5,57.5C 67.7888,56.3634 68.7888,55.0301 69.5,53.5C 70.3238,53.8459 71.6571,53.8459 73.5,53.5 Z"/></g>
<g><path style="opacity:0.587" fill="#060806" d="M 73.5,53.5 C 75.4225,56.9795 77.2558,60.6461 79,64.5C 79.6347,66.6354 79.3014,68.6354 78,70.5C 75.0336,72.7726 71.867,74.7726 68.5,76.5C 66.4271,80.9648 63.4271,84.7981 59.5,88C 58.212,88.2387 57.212,87.7387 56.5,86.5C 57.3007,84.9582 57.634,83.2915 57.5,81.5C 57.369,80.7611 57.5357,80.0944 58,79.5C 58.9734,81.3921 59.6401,83.3921 60,85.5C 63.0392,83.0507 64.0392,80.0507 63,76.5C 63.6667,77.1667 64.3333,77.8333 65,78.5C 66.2088,76.184 67.7088,74.184 69.5,72.5C 71.1992,72.6602 72.8659,72.4935 74.5,72C 72.5,71.3333 70.5,70.6667 68.5,70C 70.9507,70.0858 73.284,69.2525 75.5,67.5C 76.6946,67.1344 77.3613,66.301 77.5,65C 76.4108,62.0844 74.7442,59.5844 72.5,57.5C 72.3893,56.8826 72.056,56.3826 71.5,56C 72.756,55.5831 73.4226,54.7498 73.5,53.5 Z"/></g>
<g><path style="opacity:1" fill="#793b80" d="M 44.5,52.5 C 45.6843,53.6879 45.6843,54.8545 44.5,56C 41.6667,57.1667 38.8333,58.3333 36,59.5C 34.9895,59.1081 34.4895,58.4415 34.5,57.5C 33.4777,57.8555 32.811,58.5222 32.5,59.5C 30.901,59.7678 29.5676,59.4345 28.5,58.5C 28.5,58.1667 28.5,57.8333 28.5,57.5C 32.6071,57.0754 36.2738,55.5754 39.5,53C 41.1341,52.5065 42.8008,52.3398 44.5,52.5 Z"/></g>
<g><path style="opacity:1" fill="#02a517" d="M 23.5,57.5 C 22.9688,59.5441 21.8022,61.2107 20,62.5C 19.6012,62.2716 19.4346,61.9382 19.5,61.5C 20.5,59.8333 21.8333,58.5 23.5,57.5 Z"/></g>
<g><path style="opacity:1" fill="#032801" d="M 54.5,63.5 C 49.5,63.5 44.5,63.5 39.5,63.5C 39.5,63.1667 39.5,62.8333 39.5,62.5C 44.7467,60.9281 49.7467,61.2615 54.5,63.5 Z"/></g>
<g><path style="opacity:1" fill="#01750e" d="M 58.5,62.5 C 58.5,63.1667 58.1667,63.5 57.5,63.5C 56.5,63.5 55.5,63.5 54.5,63.5C 49.7467,61.2615 44.7467,60.9281 39.5,62.5C 39.5,62.1667 39.5,61.8333 39.5,61.5C 45.8667,58.7931 52.2,59.1265 58.5,62.5 Z"/></g>
<g><path style="opacity:1" fill="#005306" d="M 72.5,57.5 C 74.7442,59.5844 76.4108,62.0844 77.5,65C 77.3613,66.301 76.6946,67.1344 75.5,67.5C 75.573,65.9731 74.9063,64.9731 73.5,64.5C 69.4849,63.1052 65.4849,61.6052 61.5,60C 62.0944,59.5357 62.7611,59.369 63.5,59.5C 64.791,59.7373 65.791,59.404 66.5,58.5C 68.3792,57.6586 70.3792,57.3253 72.5,57.5 Z"/></g>
<g><path style="opacity:1" fill="#060507" d="M 39.5,63.5 C 44.5,63.5 49.5,63.5 54.5,63.5C 55.5,63.5 56.5,63.5 57.5,63.5C 58.9303,64.5375 60.597,65.2041 62.5,65.5C 64.4707,67.8082 66.4707,70.1415 68.5,72.5C 66.5887,71.925 64.922,70.925 63.5,69.5C 61.7182,67.3131 59.5515,66.9797 57,68.5C 56.6322,67.09 55.7989,66.09 54.5,65.5C 53.0333,65.723 51.5333,66.0563 50,66.5C 48.3333,63.8333 46.6667,63.8333 45,66.5C 43.4667,66.0563 41.9667,65.723 40.5,65.5C 39.7132,66.2421 39.0465,67.0754 38.5,68C 36.0444,67.9357 33.7111,68.1023 31.5,68.5C 31.5569,67.391 31.8902,66.391 32.5,65.5C 34.8333,64.8333 37.1667,64.1667 39.5,63.5 Z"/></g>
<g><path style="opacity:1" fill="#005305" d="M 58.5,62.5 C 63.9557,62.2088 68.9557,63.5421 73.5,66.5C 71.9928,67.3661 69.8261,67.6995 67,67.5C 65.951,65.8934 64.451,65.2267 62.5,65.5C 60.597,65.2041 58.9303,64.5375 57.5,63.5C 58.1667,63.5 58.5,63.1667 58.5,62.5 Z"/></g>
<g><path style="opacity:1" fill="#005105" d="M 23.5,57.5 C 25.2915,57.366 26.9582,57.6993 28.5,58.5C 29.5676,59.4345 30.901,59.7678 32.5,59.5C 32.0186,60.8206 30.6853,61.8206 28.5,62.5C 32.2693,62.756 35.9359,62.4227 39.5,61.5C 39.5,61.8333 39.5,62.1667 39.5,62.5C 39.5,62.8333 39.5,63.1667 39.5,63.5C 37.1667,64.1667 34.8333,64.8333 32.5,65.5C 30.6096,65.2965 29.1096,65.9632 28,67.5C 25.3151,67.1727 22.4818,67.1727 19.5,67.5C 17.0062,65.594 17.0062,63.594 19.5,61.5C 19.4346,61.9382 19.6012,62.2716 20,62.5C 21.8022,61.2107 22.9688,59.5441 23.5,57.5 Z"/></g>
<g><path style="opacity:1" fill="#000900" d="M 28.5,62.5 C 26.4809,63.9334 24.3143,65.2668 22,66.5C 23.0285,63.8748 25.1952,62.5414 28.5,62.5 Z"/></g>
<g><path style="opacity:1" fill="#062f04" d="M 32.5,65.5 C 31.8902,66.391 31.5569,67.391 31.5,68.5C 31.1667,69.1667 30.8333,69.8333 30.5,70.5C 29.1805,71.9418 27.5138,72.6085 25.5,72.5C 21.8998,71.8205 22.2332,70.9872 26.5,70C 26,69.5 25.5,69 25,68.5C 22.8824,69.7387 21.049,69.4054 19.5,67.5C 22.4818,67.1727 25.3151,67.1727 28,67.5C 29.1096,65.9632 30.6096,65.2965 32.5,65.5 Z"/></g>
<g><path style="opacity:1" fill="#003602" d="M 73.5,64.5 C 74.9063,64.9731 75.573,65.9731 75.5,67.5C 73.284,69.2525 70.9507,70.0858 68.5,70C 70.5,70.6667 72.5,71.3333 74.5,72C 72.8659,72.4935 71.1992,72.6602 69.5,72.5C 69.1667,72.5 68.8333,72.5 68.5,72.5C 66.4707,70.1415 64.4707,67.8082 62.5,65.5C 64.451,65.2267 65.951,65.8934 67,67.5C 69.8261,67.6995 71.9928,67.3661 73.5,66.5C 73.5,65.8333 73.5,65.1667 73.5,64.5 Z"/></g>
<g><path style="opacity:1" fill="#551e5f" d="M 63.5,69.5 C 60.7375,69.7964 58.2375,70.7964 56,72.5C 55.6667,72.1667 55.3333,71.8333 55,71.5C 55.176,75.0993 55.5094,78.766 56,82.5C 56.3826,81.944 56.8826,81.6107 57.5,81.5C 57.634,83.2915 57.3007,84.9582 56.5,86.5C 54.2911,87.92 52.2911,89.5867 50.5,91.5C 50.4208,90.0695 50.7542,88.7362 51.5,87.5C 50.7376,87.0894 49.7376,86.9227 48.5,87C 49.1197,84.5272 49.7864,82.0272 50.5,79.5C 51.2978,81.0777 51.7978,82.7444 52,84.5C 53.5882,80.6908 53.9216,76.6908 53,72.5C 52.0197,71.0186 50.853,69.6853 49.5,68.5C 48.2798,69.7111 47.1131,69.7111 46,68.5C 44,69.1667 42.6667,70.5 42,72.5C 41.6667,76.1667 41.3333,79.8333 41,83.5C 40.3457,82.3044 39.8457,82.3044 39.5,83.5C 40.3467,84.8448 41.5134,85.8448 43,86.5C 43.1858,84.0995 43.6858,81.7662 44.5,79.5C 44.5125,83.8348 44.8459,88.1681 45.5,92.5C 45.1667,92.5 44.8333,92.5 44.5,92.5C 42.1667,90.8333 40.1667,88.8333 38.5,86.5C 37.6586,84.6208 37.3253,82.6208 37.5,80.5C 38.1174,80.6107 38.6174,80.944 39,81.5C 39.2565,78.443 39.7565,75.443 40.5,72.5C 37.3112,72.1354 33.9779,71.4687 30.5,70.5C 30.8333,69.8333 31.1667,69.1667 31.5,68.5C 33.7111,68.1023 36.0444,67.9357 38.5,68C 39.0465,67.0754 39.7132,66.2421 40.5,65.5C 41.9667,65.723 43.4667,66.0563 45,66.5C 46.6667,63.8333 48.3333,63.8333 50,66.5C 51.5333,66.0563 53.0333,65.723 54.5,65.5C 55.7989,66.09 56.6322,67.09 57,68.5C 59.5515,66.9797 61.7182,67.3131 63.5,69.5 Z"/></g>
<g><path style="opacity:1" fill="#793b81" d="M 30.5,70.5 C 33.9779,71.4687 37.3112,72.1354 40.5,72.5C 39.7565,75.443 39.2565,78.443 39,81.5C 38.6174,80.944 38.1174,80.6107 37.5,80.5C 37.19,79.2617 36.69,79.2617 36,80.5C 35.2886,86.6034 33.7886,86.4367 31.5,80C 32.7096,75.597 32.2096,75.4303 30,79.5C 29.3479,76.4847 27.8479,74.1513 25.5,72.5C 27.5138,72.6085 29.1805,71.9418 30.5,70.5 Z"/></g>
<g><path style="opacity:1" fill="#83408c" d="M 50.5,91.5 C 49.2524,93.69 47.5857,94.0234 45.5,92.5C 44.8459,88.1681 44.5125,83.8348 44.5,79.5C 43.6858,81.7662 43.1858,84.0995 43,86.5C 41.5134,85.8448 40.3467,84.8448 39.5,83.5C 39.8457,82.3044 40.3457,82.3044 41,83.5C 41.3333,79.8333 41.6667,76.1667 42,72.5C 42.6667,70.5 44,69.1667 46,68.5C 47.1131,69.7111 48.2798,69.7111 49.5,68.5C 50.853,69.6853 52.0197,71.0186 53,72.5C 53.9216,76.6908 53.5882,80.6908 52,84.5C 51.7978,82.7444 51.2978,81.0777 50.5,79.5C 49.7864,82.0272 49.1197,84.5272 48.5,87C 49.7376,86.9227 50.7376,87.0894 51.5,87.5C 50.7542,88.7362 50.4208,90.0695 50.5,91.5 Z"/></g>
<g><path style="opacity:1" fill="#7d3e85" d="M 63.5,69.5 C 64.922,70.925 66.5887,71.925 68.5,72.5C 68.8333,72.5 69.1667,72.5 69.5,72.5C 67.7088,74.184 66.2088,76.184 65,78.5C 64.3333,77.8333 63.6667,77.1667 63,76.5C 64.0392,80.0507 63.0392,83.0507 60,85.5C 59.6401,83.3921 58.9734,81.3921 58,79.5C 57.5357,80.0944 57.369,80.7611 57.5,81.5C 56.8826,81.6107 56.3826,81.944 56,82.5C 55.5094,78.766 55.176,75.0993 55,71.5C 55.3333,71.8333 55.6667,72.1667 56,72.5C 58.2375,70.7964 60.7375,69.7964 63.5,69.5 Z"/></g>
<g><path style="opacity:0.484" fill="#100511" d="M 56.5,86.5 C 54.5407,90.1261 51.874,93.1261 48.5,95.5C 47.8333,95.5 47.1667,95.5 46.5,95.5C 45.8333,94.5 45.1667,93.5 44.5,92.5C 44.8333,92.5 45.1667,92.5 45.5,92.5C 47.5857,94.0234 49.2524,93.69 50.5,91.5C 52.2911,89.5867 54.2911,87.92 56.5,86.5 Z"/></g>
</svg>
