<?xml version="1.0" encoding="UTF-8"?>
<!DOCTYPE svg PUBLIC "-//W3C//DTD SVG 1.1//EN" "http://www.w3.org/Graphics/SVG/1.1/DTD/svg11.dtd">
<svg xmlns="http://www.w3.org/2000/svg" version="1.1" width="96px" height="96px" style="shape-rendering:geometricPrecision; text-rendering:geometricPrecision; image-rendering:optimizeQuality; fill-rule:evenodd; clip-rule:evenodd" xmlns:xlink="http://www.w3.org/1999/xlink">
<g><path style="opacity:0.996" fill="#272424" d="M 37.5,-0.5 C 44.1667,-0.5 50.8333,-0.5 57.5,-0.5C 77.1667,5.16667 89.8333,17.8333 95.5,37.5C 95.5,44.1667 95.5,50.8333 95.5,57.5C 89.8333,77.1667 77.1667,89.8333 57.5,95.5C 50.8333,95.5 44.1667,95.5 37.5,95.5C 17.8333,89.8333 5.16667,77.1667 -0.5,57.5C -0.5,50.8333 -0.5,44.1667 -0.5,37.5C 5.16667,17.8333 17.8333,5.16667 37.5,-0.5 Z"/></g>
<g><path style="opacity:1" fill="#4ae13d" d="M 11.5,36.5 C 15.8333,36.5 20.1667,36.5 24.5,36.5C 24.5,37.5 24.5,38.5 24.5,39.5C 23.448,39.3505 22.448,39.5172 21.5,40C 22.7079,42.2503 24.0413,44.417 25.5,46.5C 26.4981,44.5101 27.4981,42.5101 28.5,40.5C 27.1468,39.4763 26.4802,38.143 26.5,36.5C 30.8333,36.5 35.1667,36.5 39.5,36.5C 39.5,37.5 39.5,38.5 39.5,39.5C 37.0968,39.393 35.2635,40.393 34,42.5C 32.3333,45.1667 30.6667,47.8333 29,50.5C 28.8295,55.8642 28.3295,61.1975 27.5,66.5C 26.6399,64.0693 24.9732,62.736 22.5,62.5C 22.6653,58.8183 22.4986,55.1516 22,51.5C 19.8333,47.8333 17.6667,44.1667 15.5,40.5C 14.3112,39.5713 12.9778,39.238 11.5,39.5C 11.5,38.5 11.5,37.5 11.5,36.5 Z"/></g>
<g><path style="opacity:1" fill="#49d93c" d="M 44.5,36.5 C 46.8333,36.5 49.1667,36.5 51.5,36.5C 53.7062,43.9171 56.2062,51.2504 59,58.5C 60.0113,59.3366 61.1779,59.67 62.5,59.5C 62.5,60.5 62.5,61.5 62.5,62.5C 58.774,62.8226 55.1073,62.4892 51.5,61.5C 54.1298,57.425 52.9631,55.0916 48,54.5C 45.4766,54.4628 43.9766,55.6294 43.5,58C 44.7073,59.3002 45.3739,60.8002 45.5,62.5C 41.8333,62.5 38.1667,62.5 34.5,62.5C 38.7821,54.3392 42.1155,45.6725 44.5,36.5 Z"/></g>
<g><path style="opacity:1" fill="#261e23" d="M 47.5,45.5 C 48.7255,46.937 49.7255,48.6036 50.5,50.5C 49.3112,51.4287 47.9778,51.762 46.5,51.5C 46.5172,49.4352 46.8505,47.4352 47.5,45.5 Z"/></g>
<g><path style="opacity:1" fill="#49dc3d" d="M 55.5,36.5 C 59.8333,36.5 64.1667,36.5 68.5,36.5C 68.5,37.5 68.5,38.5 68.5,39.5C 67.448,39.3505 66.448,39.5172 65.5,40C 66.7079,42.2503 68.0413,44.417 69.5,46.5C 70.4981,44.5101 71.4981,42.5101 72.5,40.5C 71.1468,39.4763 70.4802,38.143 70.5,36.5C 74.8333,36.5 79.1667,36.5 83.5,36.5C 83.5,37.5 83.5,38.5 83.5,39.5C 81.0968,39.393 79.2635,40.393 78,42.5C 73.1064,49.6879 71.1064,57.6879 72,66.5C 70.8378,64.1616 69.0044,62.8283 66.5,62.5C 66.6653,58.8183 66.4986,55.1516 66,51.5C 63.602,47.9434 61.4354,44.2768 59.5,40.5C 58.3112,39.5713 56.9778,39.238 55.5,39.5C 55.5,38.5 55.5,37.5 55.5,36.5 Z"/></g>
</svg>
