<?xml version="1.0" encoding="UTF-8"?>
<!DOCTYPE svg PUBLIC "-//W3C//DTD SVG 1.1//EN" "http://www.w3.org/Graphics/SVG/1.1/DTD/svg11.dtd">
<svg xmlns="http://www.w3.org/2000/svg" version="1.1" width="200px" height="200px" style="shape-rendering:geometricPrecision; text-rendering:geometricPrecision; image-rendering:optimizeQuality; fill-rule:evenodd; clip-rule:evenodd" xmlns:xlink="http://www.w3.org/1999/xlink">
<g><path style="opacity:1" fill="#fdfdfd" d="M -0.5,-0.5 C 28.8333,-0.5 58.1667,-0.5 87.5,-0.5C 38.4988,9.16785 9.16548,38.5012 -0.5,87.5C -0.5,58.1667 -0.5,28.8333 -0.5,-0.5 Z"/></g>
<g><path style="opacity:1" fill="#fcfcfc" d="M 108.5,-0.5 C 138.833,-0.5 169.167,-0.5 199.5,-0.5C 199.5,28.8333 199.5,58.1667 199.5,87.5C 198.165,82.3398 196.999,77.0065 196,71.5C 195.156,67.7708 193.656,64.4374 191.5,61.5C 180.774,35.2745 162.107,16.7745 135.5,6C 126.407,3.6421 117.407,1.47544 108.5,-0.5 Z"/></g>
<g><path style="opacity:1" fill="#2c2d42" d="M 87.5,-0.5 C 94.5,-0.5 101.5,-0.5 108.5,-0.5C 117.407,1.47544 126.407,3.6421 135.5,6C 162.107,16.7745 180.774,35.2745 191.5,61.5C 191.782,64.8752 192.782,68.0419 194.5,71C 194.18,73.3509 193.847,75.6843 193.5,78C 194.715,80.0955 195.549,79.9288 196,77.5C 196.96,84.3359 198.126,91.0025 199.5,97.5C 199.5,101.167 199.5,104.833 199.5,108.5C 191.227,159.107 161.894,189.441 111.5,199.5C 103.5,199.5 95.5,199.5 87.5,199.5C 38.5092,189.842 9.17583,160.509 -0.5,111.5C -0.5,103.5 -0.5,95.5 -0.5,87.5C 9.16548,38.5012 38.4988,9.16785 87.5,-0.5 Z"/></g>
<g><path style="opacity:1" fill="#70aeea" d="M 160.5,96.5 C 159.531,94.337 158.698,92.0037 158,89.5C 157.333,90.8333 156.667,90.8333 156,89.5C 154.347,94.172 153.181,98.8386 152.5,103.5C 152.666,97.1579 152.5,90.8246 152,84.5C 146.974,74.3229 139.141,71.3229 128.5,75.5C 125.417,77.4172 123.25,80.0838 122,83.5C 121.5,90.1583 121.334,96.825 121.5,103.5C 120.71,102.391 120.21,101.058 120,99.5C 118.989,98.6634 117.822,98.33 116.5,98.5C 116.741,101.034 115.741,102.7 113.5,103.5C 114.498,96.8616 114.665,90.195 114,83.5C 109.13,74.0631 101.63,71.2298 91.5,75C 88.5665,77.2643 86.3999,80.0976 85,83.5C 84.5006,88.8229 84.334,94.1563 84.5,99.5C 82.4028,99.9967 80.5695,100.33 79,100.5C 78.5014,104.152 78.3347,107.818 78.5,111.5C 78.1667,111.5 77.8333,111.5 77.5,111.5C 77.9495,101.395 77.4495,91.3949 76,81.5C 70.988,75.4164 64.488,72.7497 56.5,73.5C 56.5,66.8333 56.5,60.1667 56.5,53.5C 68.6645,46.1968 80.9979,39.0302 93.5,32C 97.1667,31.3333 100.833,31.3333 104.5,32C 123.08,42.204 141.247,53.0373 159,64.5C 160.429,75.0885 160.929,85.7551 160.5,96.5 Z"/></g>
<g><path style="opacity:1" fill="#2a3e61" d="M 56.5,53.5 C 56.5,60.1667 56.5,66.8333 56.5,73.5C 64.488,72.7497 70.988,75.4164 76,81.5C 77.4495,91.3949 77.9495,101.395 77.5,111.5C 77.5,118.5 77.5,125.5 77.5,132.5C 74.1667,132.5 70.8333,132.5 67.5,132.5C 67.5,130.833 67.5,129.167 67.5,127.5C 67.5,122.167 67.5,116.833 67.5,111.5C 67.5,103.5 67.5,95.5 67.5,87.5C 68.496,101.99 68.8293,116.657 68.5,131.5C 71.1667,131.5 73.8333,131.5 76.5,131.5C 76.6666,116.163 76.4999,100.83 76,85.5C 72.0948,77.4602 65.5948,73.9602 56.5,75C 56,74.5 55.5,74 55,73.5C 54.8333,70.1667 54.6667,66.8333 54.5,63.5C 54.5136,59.7614 55.1803,56.428 56.5,53.5 Z"/></g>
<g><path style="opacity:1" fill="#6ea8e3" d="M 45.5,59.5 C 46.496,73.9905 46.8293,88.6572 46.5,103.5C 44.7773,101.22 44.1107,98.5533 44.5,95.5C 43.1667,95.5 41.8333,95.5 40.5,95.5C 39.746,100.463 39.4126,105.463 39.5,110.5C 39.1667,110.5 38.8333,110.5 38.5,110.5C 38.3334,96.1628 38.5001,81.8295 39,67.5C 40.2459,64.0872 42.4126,61.4205 45.5,59.5 Z"/></g>
<g><path style="opacity:1" fill="#424251" d="M 191.5,61.5 C 193.656,64.4374 195.156,67.7708 196,71.5C 196.999,77.0065 198.165,82.3398 199.5,87.5C 199.5,90.8333 199.5,94.1667 199.5,97.5C 198.126,91.0025 196.96,84.3359 196,77.5C 195.549,79.9288 194.715,80.0955 193.5,78C 193.847,75.6843 194.18,73.3509 194.5,71C 192.782,68.0419 191.782,64.8752 191.5,61.5 Z"/></g>
<g><path style="opacity:1" fill="#2b314a" d="M 152.5,103.5 C 152.5,109.5 152.5,115.5 152.5,121.5C 150.761,124.635 148.761,127.635 146.5,130.5C 141.882,133.02 136.882,134.02 131.5,133.5C 127.069,130.403 123.736,126.403 121.5,121.5C 121.5,115.5 121.5,109.5 121.5,103.5C 121.334,96.825 121.5,90.1583 122,83.5C 123.25,80.0838 125.417,77.4172 128.5,75.5C 139.141,71.3229 146.974,74.3229 152,84.5C 152.5,90.8246 152.666,97.1579 152.5,103.5 Z"/></g>
<g><path style="opacity:1" fill="#2a2f46" d="M 113.5,103.5 C 108.745,110.004 104.745,117.004 101.5,124.5C 99.5758,128.805 97.0758,132.805 94,136.5C 93.5065,138.134 93.3398,139.801 93.5,141.5C 99.979,142.491 106.646,142.824 113.5,142.5C 113.5,144.833 113.5,147.167 113.5,149.5C 104.167,149.5 94.8333,149.5 85.5,149.5C 85.5,144.833 85.5,140.167 85.5,135.5C 86.7658,131.379 88.4325,127.379 90.5,123.5C 90.8333,122.833 91.1667,122.167 91.5,121.5C 95.7513,115.237 99.4179,108.571 102.5,101.5C 103.151,100.909 103.818,100.243 104.5,99.5C 105.661,95.2047 105.828,90.8713 105,86.5C 101.693,81.7023 98.026,81.3689 94,85.5C 93.5008,90.1548 93.3342,94.8215 93.5,99.5C 90.5,99.5 87.5,99.5 84.5,99.5C 84.334,94.1563 84.5006,88.8229 85,83.5C 86.3999,80.0976 88.5665,77.2643 91.5,75C 101.63,71.2298 109.13,74.0631 114,83.5C 114.665,90.195 114.498,96.8616 113.5,103.5 Z"/></g>
<g><path style="opacity:1" fill="#67a1de" d="M 102.5,101.5 C 102.799,99.396 102.466,97.396 101.5,95.5C 99.1658,96.8408 97.4991,96.1741 96.5,93.5C 96.0358,95.9749 95.0358,97.9749 93.5,99.5C 93.3342,94.8215 93.5008,90.1548 94,85.5C 98.026,81.3689 101.693,81.7023 105,86.5C 105.828,90.8713 105.661,95.2047 104.5,99.5C 103.818,100.243 103.151,100.909 102.5,101.5 Z"/></g>
<g><path style="opacity:1" fill="#629be0" d="M 67.5,87.5 C 67.5,95.5 67.5,103.5 67.5,111.5C 64.3271,112.331 61.3271,112.331 58.5,111.5C 57.8333,118.321 57.1666,124.988 56.5,131.5C 56.5,116.5 56.5,101.5 56.5,86.5C 60.7281,81.024 64.3948,81.3574 67.5,87.5 Z"/></g>
<g><path style="opacity:1" fill="#65a1e3" d="M 142.5,110.5 C 142.037,106.516 140.537,102.85 138,99.5C 137.667,100.167 137.333,100.833 137,101.5C 135.644,100.62 134.144,100.286 132.5,100.5C 132.737,101.791 132.404,102.791 131.5,103.5C 131.334,97.4908 131.501,91.4908 132,85.5C 135.333,81.5 138.667,81.5 142,85.5C 142.5,93.8267 142.666,102.16 142.5,110.5 Z"/></g>
<g><path style="opacity:1" fill="#5d96e1" d="M 46.5,103.5 C 46.5,108.833 46.5,114.167 46.5,119.5C 45.5269,117.052 45.1936,114.385 45.5,111.5C 43.2646,111.795 41.2646,111.461 39.5,110.5C 39.4126,105.463 39.746,100.463 40.5,95.5C 41.8333,95.5 43.1667,95.5 44.5,95.5C 44.1107,98.5533 44.7773,101.22 46.5,103.5 Z"/></g>
<g><path style="opacity:1" fill="#5790df" d="M 142.5,110.5 C 142.665,114.182 142.499,117.848 142,121.5C 139.503,123.478 136.669,123.978 133.5,123C 132.809,121.933 132.309,120.766 132,119.5C 131.501,114.177 131.334,108.844 131.5,103.5C 132.404,102.791 132.737,101.791 132.5,100.5C 134.144,100.286 135.644,100.62 137,101.5C 137.333,100.833 137.667,100.167 138,99.5C 140.537,102.85 142.037,106.516 142.5,110.5 Z"/></g>
<g><path style="opacity:1" fill="#5c95df" d="M 160.5,96.5 C 160.828,108.012 160.495,119.346 159.5,130.5C 159.766,126.429 159.433,122.429 158.5,118.5C 157.478,117.646 156.645,116.646 156,115.5C 155.667,115.833 155.333,116.167 155,116.5C 154.667,115.5 154.333,114.5 154,113.5C 153.817,116.365 153.317,119.031 152.5,121.5C 152.5,115.5 152.5,109.5 152.5,103.5C 153.181,98.8386 154.347,94.172 156,89.5C 156.667,90.8333 157.333,90.8333 158,89.5C 158.698,92.0037 159.531,94.337 160.5,96.5 Z"/></g>
<g><path style="opacity:1" fill="#5a95e3" d="M 102.5,101.5 C 99.4179,108.571 95.7513,115.237 91.5,121.5C 91.6984,119.425 91.8651,117.425 92,115.5C 91.6667,115.833 91.3333,116.167 91,116.5C 90,114.833 89,113.167 88,111.5C 86.0126,112.218 84.1792,113.218 82.5,114.5C 81.6143,113.675 81.281,112.675 81.5,111.5C 80.5,111.5 79.5,111.5 78.5,111.5C 78.3347,107.818 78.5014,104.152 79,100.5C 80.5695,100.33 82.4028,99.9967 84.5,99.5C 87.5,99.5 90.5,99.5 93.5,99.5C 95.0358,97.9749 96.0358,95.9749 96.5,93.5C 97.4991,96.1741 99.1658,96.8408 101.5,95.5C 102.466,97.396 102.799,99.396 102.5,101.5 Z"/></g>
<g><path style="opacity:1" fill="#558ddf" d="M 121.5,103.5 C 121.5,109.5 121.5,115.5 121.5,121.5C 120.691,119.708 120.191,117.708 120,115.5C 118.686,116.313 117.519,117.313 116.5,118.5C 114.178,116.302 112.011,116.636 110,119.5C 109,119.167 108,118.833 107,118.5C 106.375,121.625 104.541,123.625 101.5,124.5C 104.745,117.004 108.745,110.004 113.5,103.5C 115.741,102.7 116.741,101.034 116.5,98.5C 117.822,98.33 118.989,98.6634 120,99.5C 120.21,101.058 120.71,102.391 121.5,103.5 Z"/></g>
<g><path style="opacity:1" fill="#fbfbfc" d="M 199.5,108.5 C 199.5,138.833 199.5,169.167 199.5,199.5C 170.167,199.5 140.833,199.5 111.5,199.5C 161.894,189.441 191.227,159.107 199.5,108.5 Z"/></g>
<g><path style="opacity:1" fill="#fcfcfc" d="M -0.5,111.5 C 9.17583,160.509 38.5092,189.842 87.5,199.5C 58.1667,199.5 28.8333,199.5 -0.5,199.5C -0.5,170.167 -0.5,140.833 -0.5,111.5 Z"/></g>
<g><path style="opacity:1" fill="#5083da" d="M 38.5,110.5 C 38.8333,110.5 39.1667,110.5 39.5,110.5C 41.2646,111.461 43.2646,111.795 45.5,111.5C 45.1936,114.385 45.5269,117.052 46.5,119.5C 46.5,123.833 46.5,128.167 46.5,132.5C 50.0419,132.813 53.3752,132.479 56.5,131.5C 57.1666,124.988 57.8333,118.321 58.5,111.5C 61.3271,112.331 64.3271,112.331 67.5,111.5C 67.5,116.833 67.5,122.167 67.5,127.5C 66.6829,125.031 66.1829,122.365 66,119.5C 65.51,120.793 65.3433,122.127 65.5,123.5C 63.2075,123.756 61.0408,123.423 59,122.5C 58.7931,126.089 58.2931,129.589 57.5,133C 53.1667,133.667 48.8333,133.667 44.5,133C 43.8971,131.175 43.2304,129.341 42.5,127.5C 41.3526,129.765 41.1859,132.098 42,134.5C 43.7073,136.037 45.2073,137.704 46.5,139.5C 42.4158,137.908 39.9158,134.908 39,130.5C 38.5004,123.842 38.3337,117.175 38.5,110.5 Z"/></g>
<g><path style="opacity:1" fill="#5086de" d="M 77.5,111.5 C 77.8333,111.5 78.1667,111.5 78.5,111.5C 79.5,111.5 80.5,111.5 81.5,111.5C 81.281,112.675 81.6143,113.675 82.5,114.5C 84.1792,113.218 86.0126,112.218 88,111.5C 89,113.167 90,114.833 91,116.5C 91.3333,116.167 91.6667,115.833 92,115.5C 91.8651,117.425 91.6984,119.425 91.5,121.5C 91.1667,122.167 90.8333,122.833 90.5,123.5C 88.7263,124.37 87.393,125.703 86.5,127.5C 86.4208,126.07 86.7542,124.736 87.5,123.5C 85.6675,122.752 84.0009,121.752 82.5,120.5C 80.8437,122.022 79.677,121.689 79,119.5C 78.8247,124.019 78.3247,128.353 77.5,132.5C 77.5,125.5 77.5,118.5 77.5,111.5 Z"/></g>
<g><path style="opacity:1" fill="#4c7ed6" d="M 159.5,130.5 C 159.88,132.698 159.213,134.365 157.5,135.5C 158.511,131.888 158.678,128.221 158,124.5C 157.667,125.833 157.333,127.167 157,128.5C 156.138,126.913 155.471,125.246 155,123.5C 151.994,124.841 150.494,127.175 150.5,130.5C 149.167,130.5 147.833,130.5 146.5,130.5C 148.761,127.635 150.761,124.635 152.5,121.5C 153.317,119.031 153.817,116.365 154,113.5C 154.333,114.5 154.667,115.5 155,116.5C 155.333,116.167 155.667,115.833 156,115.5C 156.645,116.646 157.478,117.646 158.5,118.5C 159.433,122.429 159.766,126.429 159.5,130.5 Z"/></g>
<g><path style="opacity:1" fill="#4568b2" d="M 90.5,123.5 C 88.4325,127.379 86.7658,131.379 85.5,135.5C 84.5128,140.305 84.1795,145.305 84.5,150.5C 84.1667,150.5 83.8333,150.5 83.5,150.5C 83.3339,144.824 83.5006,139.157 84,133.5C 85.5588,131.783 86.3921,129.783 86.5,127.5C 87.393,125.703 88.7263,124.37 90.5,123.5 Z"/></g>
<g><path style="opacity:1" fill="#203a69" d="M 45.5,59.5 C 45.56,58.9569 45.8933,58.6236 46.5,58.5C 47.4997,82.8242 47.8331,107.158 47.5,131.5C 50.1667,131.5 52.8333,131.5 55.5,131.5C 55.1706,116.324 55.5039,101.324 56.5,86.5C 56.5,101.5 56.5,116.5 56.5,131.5C 53.3752,132.479 50.0419,132.813 46.5,132.5C 46.5,128.167 46.5,123.833 46.5,119.5C 46.5,114.167 46.5,108.833 46.5,103.5C 46.8293,88.6572 46.496,73.9905 45.5,59.5 Z"/></g>
<g><path style="opacity:1" fill="#487bdb" d="M 121.5,121.5 C 123.736,126.403 127.069,130.403 131.5,133.5C 128.245,133.986 125.578,132.986 123.5,130.5C 122.707,131.355 123.04,132.189 124.5,133C 115.5,133.333 106.5,133.667 97.5,134C 95.7811,135.87 94.7811,138.037 94.5,140.5C 101.022,140.177 107.355,140.51 113.5,141.5C 106.833,141.5 100.167,141.5 93.5,141.5C 93.3398,139.801 93.5065,138.134 94,136.5C 97.0758,132.805 99.5758,128.805 101.5,124.5C 104.541,123.625 106.375,121.625 107,118.5C 108,118.833 109,119.167 110,119.5C 112.011,116.636 114.178,116.302 116.5,118.5C 117.519,117.313 118.686,116.313 120,115.5C 120.191,117.708 120.691,119.708 121.5,121.5 Z"/></g>
<g><path style="opacity:1" fill="#4274db" d="M 67.5,127.5 C 67.5,129.167 67.5,130.833 67.5,132.5C 70.8333,132.5 74.1667,132.5 77.5,132.5C 78.3247,128.353 78.8247,124.019 79,119.5C 79.677,121.689 80.8437,122.022 82.5,120.5C 84.0009,121.752 85.6675,122.752 87.5,123.5C 86.7542,124.736 86.4208,126.07 86.5,127.5C 86.3921,129.783 85.5588,131.783 84,133.5C 83.5006,139.157 83.3339,144.824 83.5,150.5C 82.9173,147.759 81.9173,145.092 80.5,142.5C 78.5914,143.348 76.5914,143.682 74.5,143.5C 74.5,142.5 74.5,141.5 74.5,140.5C 70.21,141.013 66.3767,140.013 63,137.5C 60.292,138.788 58.792,140.955 58.5,144C 60.0557,144.72 61.0557,145.887 61.5,147.5C 56.0876,145.627 51.0876,142.96 46.5,139.5C 45.2073,137.704 43.7073,136.037 42,134.5C 41.1859,132.098 41.3526,129.765 42.5,127.5C 43.2304,129.341 43.8971,131.175 44.5,133C 48.8333,133.667 53.1667,133.667 57.5,133C 58.2931,129.589 58.7931,126.089 59,122.5C 61.0408,123.423 63.2075,123.756 65.5,123.5C 65.3433,122.127 65.51,120.793 66,119.5C 66.1829,122.365 66.6829,125.031 67.5,127.5 Z"/></g>
<g><path style="opacity:1" fill="#3f6fd8" d="M 157.5,135.5 C 151.609,138.397 146.275,142.064 141.5,146.5C 137.112,149.361 132.446,151.694 127.5,153.5C 127.804,152.85 128.137,152.183 128.5,151.5C 133.504,150.819 136.504,148.152 137.5,143.5C 132.31,144.761 127.31,144.761 122.5,143.5C 121.522,143.977 120.689,144.643 120,145.5C 118.989,144.663 117.822,144.33 116.5,144.5C 116.795,146.735 116.461,148.735 115.5,150.5C 116.055,146.988 115.388,143.988 113.5,141.5C 107.355,140.51 101.022,140.177 94.5,140.5C 94.7811,138.037 95.7811,135.87 97.5,134C 106.5,133.667 115.5,133.333 124.5,133C 123.04,132.189 122.707,131.355 123.5,130.5C 125.578,132.986 128.245,133.986 131.5,133.5C 136.882,134.02 141.882,133.02 146.5,130.5C 147.833,130.5 149.167,130.5 150.5,130.5C 150.494,127.175 151.994,124.841 155,123.5C 155.471,125.246 156.138,126.913 157,128.5C 157.333,127.167 157.667,125.833 158,124.5C 158.678,128.221 158.511,131.888 157.5,135.5 Z"/></g>
<g><path style="opacity:1" fill="#31457f" d="M 157.5,135.5 C 156.091,137.417 154.424,139.25 152.5,141C 149.079,143.377 145.412,145.21 141.5,146.5C 146.275,142.064 151.609,138.397 157.5,135.5 Z"/></g>
<g><path style="opacity:1" fill="#273561" d="M 85.5,135.5 C 85.5,140.167 85.5,144.833 85.5,149.5C 94.8333,149.5 104.167,149.5 113.5,149.5C 113.5,147.167 113.5,144.833 113.5,142.5C 106.646,142.824 99.979,142.491 93.5,141.5C 100.167,141.5 106.833,141.5 113.5,141.5C 115.388,143.988 116.055,146.988 115.5,150.5C 105.069,151.818 94.7352,151.818 84.5,150.5C 84.1795,145.305 84.5128,140.305 85.5,135.5 Z"/></g>
<g><path style="opacity:1" fill="#3762d2" d="M 83.5,150.5 C 83.8333,150.5 84.1667,150.5 84.5,150.5C 94.7352,151.818 105.069,151.818 115.5,150.5C 116.461,148.735 116.795,146.735 116.5,144.5C 117.822,144.33 118.989,144.663 120,145.5C 120.689,144.643 121.522,143.977 122.5,143.5C 127.31,144.761 132.31,144.761 137.5,143.5C 136.504,148.152 133.504,150.819 128.5,151.5C 128.137,152.183 127.804,152.85 127.5,153.5C 123.877,155.427 120.211,157.427 116.5,159.5C 115.131,156.618 115.798,154.118 118.5,152C 108.542,152.26 98.5423,152.76 88.5,153.5C 84.3803,152.6 80.3803,152.766 76.5,154C 79.5707,156.518 82.5707,159.018 85.5,161.5C 79.6513,158.382 73.6513,155.549 67.5,153C 65.3039,151.301 63.3039,149.467 61.5,147.5C 61.0557,145.887 60.0557,144.72 58.5,144C 58.792,140.955 60.292,138.788 63,137.5C 66.3767,140.013 70.21,141.013 74.5,140.5C 74.5,141.5 74.5,142.5 74.5,143.5C 76.5914,143.682 78.5914,143.348 80.5,142.5C 81.9173,145.092 82.9173,147.759 83.5,150.5 Z"/></g>
<g><path style="opacity:1" fill="#2e58d6" d="M 116.5,159.5 C 113.217,161.124 110.217,163.124 107.5,165.5C 102.167,168.167 96.8333,168.167 91.5,165.5C 89.9674,163.755 87.9674,162.755 85.5,162.5C 85.5,162.167 85.5,161.833 85.5,161.5C 82.5707,159.018 79.5707,156.518 76.5,154C 80.3803,152.766 84.3803,152.6 88.5,153.5C 98.5423,152.76 108.542,152.26 118.5,152C 115.798,154.118 115.131,156.618 116.5,159.5 Z"/></g>
<g><path style="opacity:1" fill="#2b3f83" d="M 127.5,153.5 C 121.647,158.65 114.981,162.65 107.5,165.5C 110.217,163.124 113.217,161.124 116.5,159.5C 120.211,157.427 123.877,155.427 127.5,153.5 Z"/></g>
<g><path style="opacity:1" fill="#2a3d89" d="M 85.5,162.5 C 87.9674,162.755 89.9674,163.755 91.5,165.5C 88.6874,165.975 86.6874,164.975 85.5,162.5 Z"/></g>
<g><path style="opacity:1" fill="#253573" d="M 91.5,165.5 C 96.8333,168.167 102.167,168.167 107.5,165.5C 107.53,166.497 107.03,167.164 106,167.5C 101.667,168.833 97.3333,168.833 93,167.5C 91.9701,167.164 91.4701,166.497 91.5,165.5 Z"/></g>
</svg>
