<?xml version="1.0" encoding="UTF-8"?>
<!DOCTYPE svg PUBLIC "-//W3C//DTD SVG 1.1//EN" "http://www.w3.org/Graphics/SVG/1.1/DTD/svg11.dtd">
<svg xmlns="http://www.w3.org/2000/svg" version="1.1" width="96px" height="96px" style="shape-rendering:geometricPrecision; text-rendering:geometricPrecision; image-rendering:optimizeQuality; fill-rule:evenodd; clip-rule:evenodd" xmlns:xlink="http://www.w3.org/1999/xlink">
<g><path style="opacity:0.898" fill="#000000" d="M 46.5,-0.5 C 48.1667,-0.5 49.8333,-0.5 51.5,-0.5C 61.0388,26.2501 70.8721,52.9168 81,79.5C 83.1561,86.8357 87.9894,90.5023 95.5,90.5C 95.5,92.1667 95.5,93.8333 95.5,95.5C 83.1667,95.5 70.8333,95.5 58.5,95.5C 58.5,93.8333 58.5,92.1667 58.5,90.5C 61.2706,90.5793 63.9373,90.0793 66.5,89C 67.5742,88.2613 68.2409,87.2613 68.5,86C 60.806,64.1129 52.9726,42.2795 45,20.5C 36.6033,41.9606 28.77,63.6273 21.5,85.5C 23.8688,89.6378 27.5355,91.3045 32.5,90.5C 32.5,92.1667 32.5,93.8333 32.5,95.5C 21.5,95.5 10.5,95.5 -0.5,95.5C -0.5,93.8333 -0.5,92.1667 -0.5,90.5C 4.06732,90.479 7.90065,88.8123 11,85.5C 23.1425,56.8916 34.9759,28.2249 46.5,-0.5 Z"/></g>
</svg>
