<?xml version="1.0" encoding="UTF-8"?>
<!DOCTYPE svg PUBLIC "-//W3C//DTD SVG 1.1//EN" "http://www.w3.org/Graphics/SVG/1.1/DTD/svg11.dtd">
<svg xmlns="http://www.w3.org/2000/svg" version="1.1" width="96px" height="96px" style="shape-rendering:geometricPrecision; text-rendering:geometricPrecision; image-rendering:optimizeQuality; fill-rule:evenodd; clip-rule:evenodd" xmlns:xlink="http://www.w3.org/1999/xlink">
<g><path style="opacity:0.554" fill="#60c647" d="M 51.5,0.5 C 36.9617,1.1981 22.295,1.86477 7.5,2.5C 7.61071,1.88258 7.94404,1.38258 8.5,1C 22.8295,0.50009 37.1628,0.333423 51.5,0.5 Z"/></g>
<g><path style="opacity:1" fill="#72f44a" d="M 51.5,0.5 C 65.282,0.225011 76.282,5.55834 84.5,16.5C 84.67,17.8221 84.3366,18.9887 83.5,20C 78.5294,21.0114 73.8627,20.5114 69.5,18.5C 69.1667,18.5 68.8333,18.5 68.5,18.5C 65.9476,17.3065 63.4476,15.9732 61,14.5C 58.2872,16.7195 55.4539,18.7195 52.5,20.5C 51.2617,20.19 51.2617,19.69 52.5,19C 51.5,18.5 50.5,18 49.5,17.5C 34.4334,17.3154 18.7667,17.6488 2.5,18.5C 2.79472,20.7354 2.46138,22.7354 1.5,24.5C 1.25978,18.773 1.59311,13.1064 2.5,7.5C 3.16667,4.83333 4.83333,3.16667 7.5,2.5C 22.295,1.86477 36.9617,1.1981 51.5,0.5 Z"/></g>
<g><path style="opacity:1" fill="#fbfcfa" d="M 68.5,18.5 C 68.8307,40.3398 68.4973,62.0064 67.5,83.5C 64.1919,80.3648 60.6919,77.3648 57,74.5C 56.5005,68.5092 56.3338,62.5092 56.5,56.5C 57.4861,52.03 57.8195,47.3633 57.5,42.5C 57.6653,38.8183 57.4986,35.1516 57,31.5C 51.1883,36.6363 45.355,41.6363 39.5,46.5C 34.2806,50.3681 29.114,54.3681 24,58.5C 19.1667,57.3333 14.3333,56.1667 9.5,55C 10.3805,54.2917 11.0472,53.4584 11.5,52.5C 16.0711,50.2624 20.0711,47.2624 23.5,43.5C 28.2056,39.8223 32.8723,36.1556 37.5,32.5C 39.9095,31.2993 41.9095,29.6326 43.5,27.5C 46.8103,25.5179 49.8103,23.1846 52.5,20.5C 55.4539,18.7195 58.2872,16.7195 61,14.5C 63.4476,15.9732 65.9476,17.3065 68.5,18.5 Z"/></g>
<g><path style="opacity:1" fill="#68e243" d="M 52.5,20.5 C 49.8103,23.1846 46.8103,25.5179 43.5,27.5C 42.2617,27.19 42.2617,26.69 43.5,26C 29.8374,25.5001 16.1707,25.3334 2.5,25.5C 2.78448,27.4147 2.45115,29.0813 1.5,30.5C 1.5,28.5 1.5,26.5 1.5,24.5C 2.46138,22.7354 2.79472,20.7354 2.5,18.5C 18.7667,17.6488 34.4334,17.3154 49.5,17.5C 50.5,18 51.5,18.5 52.5,19C 51.2617,19.69 51.2617,20.19 52.5,20.5 Z"/></g>
<g><path style="opacity:1" fill="#64da40" d="M 84.5,16.5 C 86.9236,19.0078 88.5903,22.0078 89.5,25.5C 89.631,26.2389 89.4643,26.9056 89,27.5C 83.1211,27.7661 77.1211,27.4328 71,26.5C 70.7216,27.4158 70.2216,28.0825 69.5,28.5C 69.5,25.1667 69.5,21.8333 69.5,18.5C 73.8627,20.5114 78.5294,21.0114 83.5,20C 84.3366,18.9887 84.67,17.8221 84.5,16.5 Z"/></g>
<g><path style="opacity:1" fill="#5fd03d" d="M 43.5,27.5 C 41.9095,29.6326 39.9095,31.2993 37.5,32.5C 25.9139,31.522 14.2473,31.1887 2.5,31.5C 1.95526,35.1716 1.62192,34.8383 1.5,30.5C 2.45115,29.0813 2.78448,27.4147 2.5,25.5C 16.1707,25.3334 29.8374,25.5001 43.5,26C 42.2617,26.69 42.2617,27.19 43.5,27.5 Z"/></g>
<g><path style="opacity:1" fill="#5ac639" d="M 89.5,25.5 C 90.9313,26.7804 91.5979,28.4471 91.5,30.5C 91.67,31.8221 91.3366,32.9887 90.5,34C 83.5079,34.4996 76.5079,34.6663 69.5,34.5C 69.5,32.5 69.5,30.5 69.5,28.5C 70.2216,28.0825 70.7216,27.4158 71,26.5C 77.1211,27.4328 83.1211,27.7661 89,27.5C 89.4643,26.9056 89.631,26.2389 89.5,25.5 Z"/></g>
<g><path style="opacity:1" fill="#53b836" d="M 2.5,7.5 C 1.59311,13.1064 1.25978,18.773 1.5,24.5C 1.5,26.5 1.5,28.5 1.5,30.5C 1.62192,34.8383 1.95526,35.1716 2.5,31.5C 14.2473,31.1887 25.9139,31.522 37.5,32.5C 32.8723,36.1556 28.2056,39.8223 23.5,43.5C 16.0796,43.2027 8.74629,43.536 1.5,44.5C 1.79472,42.2646 1.46138,40.2646 0.5,38.5C 0.333518,28.4944 0.500185,18.4944 1,8.5C 1.38258,7.94404 1.88258,7.61071 2.5,7.5 Z"/></g>
<g><path style="opacity:1" fill="#4fb232" d="M 91.5,30.5 C 92.404,31.209 92.7373,32.209 92.5,33.5C 92.5751,36.2062 92.9084,38.8728 93.5,41.5C 85.8333,41.5 78.1667,41.5 70.5,41.5C 70.7373,42.791 70.404,43.791 69.5,44.5C 69.5,41.1667 69.5,37.8333 69.5,34.5C 76.5079,34.6663 83.5079,34.4996 90.5,34C 91.3366,32.9887 91.67,31.8221 91.5,30.5 Z"/></g>
<g><path style="opacity:1" fill="#49a22f" d="M 92.5,33.5 C 94.0114,36.5443 94.678,39.8776 94.5,43.5C 93.6829,45.9686 93.1829,48.6353 93,51.5C 92.5172,50.552 92.3505,49.552 92.5,48.5C 84.7572,47.8701 77.4238,48.5367 70.5,50.5C 70.1667,50.5 69.8333,50.5 69.5,50.5C 69.5,48.5 69.5,46.5 69.5,44.5C 70.404,43.791 70.7373,42.791 70.5,41.5C 78.1667,41.5 85.8333,41.5 93.5,41.5C 92.9084,38.8728 92.5751,36.2062 92.5,33.5 Z"/></g>
<g><path style="opacity:1" fill="#49a52d" d="M 57.5,42.5 C 56.6942,43.9972 56.0276,45.6639 55.5,47.5C 50.1977,48.6628 44.8643,48.8295 39.5,48C 40.7383,47.31 40.7383,46.81 39.5,46.5C 45.355,41.6363 51.1883,36.6363 57,31.5C 57.4986,35.1516 57.6653,38.8183 57.5,42.5 Z"/></g>
<g><path style="opacity:1" fill="#419128" d="M 94.5,43.5 C 94.5,46.5 94.5,49.5 94.5,52.5C 93.5902,54.0188 92.7568,55.6854 92,57.5C 84.9213,56.5201 77.7546,56.1868 70.5,56.5C 70.5,54.5 70.5,52.5 70.5,50.5C 77.4238,48.5367 84.7572,47.8701 92.5,48.5C 92.3505,49.552 92.5172,50.552 93,51.5C 93.1829,48.6353 93.6829,45.9686 94.5,43.5 Z"/></g>
<g><path style="opacity:1" fill="#3b8425" d="M 0.5,38.5 C 1.46138,40.2646 1.79472,42.2646 1.5,44.5C 0.861024,50.8087 1.19436,54.142 2.5,54.5C 5.78468,54.7896 8.78468,54.123 11.5,52.5C 11.0472,53.4584 10.3805,54.2917 9.5,55C 14.3333,56.1667 19.1667,57.3333 24,58.5C 29.114,54.3681 34.2806,50.3681 39.5,46.5C 40.7383,46.81 40.7383,47.31 39.5,48C 44.8643,48.8295 50.1977,48.6628 55.5,47.5C 56.0276,45.6639 56.6942,43.9972 57.5,42.5C 57.8195,47.3633 57.4861,52.03 56.5,56.5C 55.4865,57.6591 55.1532,59.6591 55.5,62.5C 37.8177,61.6255 20.151,61.2922 2.5,61.5C 2.73731,62.791 2.40397,63.791 1.5,64.5C 1.73731,63.209 1.40397,62.209 0.5,61.5C 0.5,53.8333 0.5,46.1667 0.5,38.5 Z"/></g>
<g><path style="opacity:1" fill="#469c2c" d="M 23.5,43.5 C 20.0711,47.2624 16.0711,50.2624 11.5,52.5C 8.78468,54.123 5.78468,54.7896 2.5,54.5C 1.19436,54.142 0.861024,50.8087 1.5,44.5C 8.74629,43.536 16.0796,43.2027 23.5,43.5 Z"/></g>
<g><path style="opacity:1" fill="#347920" d="M 69.5,50.5 C 69.8333,50.5 70.1667,50.5 70.5,50.5C 70.5,52.5 70.5,54.5 70.5,56.5C 77.7546,56.1868 84.9213,56.5201 92,57.5C 92.7568,55.6854 93.5902,54.0188 94.5,52.5C 93.9437,57.7265 92.6103,62.7265 90.5,67.5C 83.7952,67.8166 77.2952,68.8166 71,70.5C 70.8247,65.9805 70.3247,61.6472 69.5,57.5C 69.5,55.1667 69.5,52.8333 69.5,50.5 Z"/></g>
<g><path style="opacity:1" fill="#2c691b" d="M 56.5,56.5 C 56.3338,62.5092 56.5005,68.5092 57,74.5C 60.6919,77.3648 64.1919,80.3648 67.5,83.5C 67.56,84.0431 67.8933,84.3764 68.5,84.5C 69.4982,75.5246 69.8315,66.5246 69.5,57.5C 70.3247,61.6472 70.8247,65.9805 71,70.5C 77.2952,68.8166 83.7952,67.8166 90.5,67.5C 84.4705,82.1999 73.8038,91.5332 58.5,95.5C 42.1667,95.5 25.8333,95.5 9.5,95.5C 6.19553,93.0266 3.3622,90.0266 1,86.5C 0.500266,78.1733 0.3336,69.84 0.5,61.5C 1.40397,62.209 1.73731,63.209 1.5,64.5C 1.33788,66.5273 1.50454,68.5273 2,70.5C 9.1395,68.8475 16.4728,67.8475 24,67.5C 34.0895,68.652 44.2562,68.8186 54.5,68C 55.4061,66.3005 55.7394,64.4672 55.5,62.5C 55.1532,59.6591 55.4865,57.6591 56.5,56.5 Z"/></g>
<g><path style="opacity:1" fill="#33751e" d="M 55.5,62.5 C 55.7394,64.4672 55.4061,66.3005 54.5,68C 44.2562,68.8186 34.0895,68.652 24,67.5C 16.4728,67.8475 9.1395,68.8475 2,70.5C 1.50454,68.5273 1.33788,66.5273 1.5,64.5C 2.40397,63.791 2.73731,62.791 2.5,61.5C 20.151,61.2922 37.8177,61.6255 55.5,62.5 Z"/></g>
<g><path style="opacity:1" fill="#73a565" d="M 68.5,18.5 C 68.8333,18.5 69.1667,18.5 69.5,18.5C 69.5,21.8333 69.5,25.1667 69.5,28.5C 69.5,30.5 69.5,32.5 69.5,34.5C 69.5,37.8333 69.5,41.1667 69.5,44.5C 69.5,46.5 69.5,48.5 69.5,50.5C 69.5,52.8333 69.5,55.1667 69.5,57.5C 69.8315,66.5246 69.4982,75.5246 68.5,84.5C 67.8933,84.3764 67.56,84.0431 67.5,83.5C 68.4973,62.0064 68.8307,40.3398 68.5,18.5 Z"/></g>
</svg>
