<?xml version="1.0" encoding="UTF-8"?>
<!DOCTYPE svg PUBLIC "-//W3C//DTD SVG 1.1//EN" "http://www.w3.org/Graphics/SVG/1.1/DTD/svg11.dtd">
<svg xmlns="http://www.w3.org/2000/svg" version="1.1" width="96px" height="96px" style="shape-rendering:geometricPrecision; text-rendering:geometricPrecision; image-rendering:optimizeQuality; fill-rule:evenodd; clip-rule:evenodd" xmlns:xlink="http://www.w3.org/1999/xlink">
<g><path style="opacity:1" fill="#ac2205" d="M 57.5,-0.5 C 58.1667,-0.5 58.8333,-0.5 59.5,-0.5C 58.8851,3.99122 59.8851,7.99122 62.5,11.5C 62.6841,14.3213 61.3507,15.9879 58.5,16.5C 57.9432,14.6684 56.9432,13.3351 55.5,12.5C 54.3709,10.3718 54.2042,8.03851 55,5.5C 56.122,3.59321 56.9553,1.59321 57.5,-0.5 Z"/></g>
<g><path style="opacity:1" fill="#791606" d="M 62.5,11.5 C 65.8737,12.6915 67.5404,15.1915 67.5,19C 67.2019,22.4294 65.8685,25.2627 63.5,27.5C 60.6584,28.6125 57.9917,28.1125 55.5,26C 54.5868,24.5861 54.5868,23.0861 55.5,21.5C 56.8333,18.5 56.8333,15.5 55.5,12.5C 56.9432,13.3351 57.9432,14.6684 58.5,16.5C 61.3507,15.9879 62.6841,14.3213 62.5,11.5 Z"/></g>
<g><path style="opacity:1" fill="#6a140a" d="M 55.5,21.5 C 54.5868,23.0861 54.5868,24.5861 55.5,26C 57.9917,28.1125 60.6584,28.6125 63.5,27.5C 63.2308,29.4286 63.7308,31.0953 65,32.5C 65.9078,30.5614 67.4078,29.5614 69.5,29.5C 68.99,32.5394 68.3234,35.5394 67.5,38.5C 64.9493,36.4223 63.116,33.7556 62,30.5C 61.6667,30.8333 61.3333,31.1667 61,31.5C 57.4169,28.4266 53.2503,26.7599 48.5,26.5C 46.3788,28.5542 44.7121,28.5542 43.5,26.5C 45.7913,23.1967 48.1247,19.8634 50.5,16.5C 52.4216,18.0031 53.5883,20.0031 54,22.5C 54.3826,21.944 54.8826,21.6107 55.5,21.5 Z"/></g>
<g><path style="opacity:1" fill="#6c160e" d="M 38.5,29.5 C 36.8003,32.2952 34.3003,34.2952 31,35.5C 30.6582,33.3808 29.8249,33.0474 28.5,34.5C 30.0847,29.6813 32.918,25.6813 37,22.5C 37.4559,19.4284 37.4559,16.4284 37,13.5C 39.8519,14.6963 41.3519,16.863 41.5,20C 40.7935,23.2849 39.7935,26.4516 38.5,29.5 Z"/></g>
<g><path style="opacity:1" fill="#450803" d="M 43.5,26.5 C 44.7121,28.5542 46.3788,28.5542 48.5,26.5C 53.2503,26.7599 57.4169,28.4266 61,31.5C 61.3333,31.1667 61.6667,30.8333 62,30.5C 63.116,33.7556 64.9493,36.4223 67.5,38.5C 67.4431,39.609 67.1098,40.609 66.5,41.5C 62.7262,40.7371 59.7262,38.7371 57.5,35.5C 51.8592,33.9301 46.5259,34.5968 41.5,37.5C 40.4136,33.5127 41.0803,29.8461 43.5,26.5 Z"/></g>
<g><path style="opacity:1" fill="#410a08" d="M 38.5,29.5 C 38.2786,32.2788 38.612,34.9455 39.5,37.5C 36.9184,38.8884 34.5851,40.7217 32.5,43C 29.6639,42.6406 27.9973,44.1406 27.5,47.5C 26.5,47.5 25.5,47.5 24.5,47.5C 22.3252,45.5125 21.6586,43.1792 22.5,40.5C 23.8333,41.1667 25.1667,41.8333 26.5,42.5C 27.1676,39.6944 27.8343,37.0277 28.5,34.5C 29.8249,33.0474 30.6582,33.3808 31,35.5C 34.3003,34.2952 36.8003,32.2952 38.5,29.5 Z"/></g>
<g><path style="opacity:1" fill="#2a0401" d="M 66.5,41.5 C 67.1667,41.5 67.8333,41.5 68.5,41.5C 68.6287,43.2161 68.962,44.8828 69.5,46.5C 69.5,47.5 69.5,48.5 69.5,49.5C 68.8333,48.8333 68.1667,48.1667 67.5,47.5C 65.4496,47.0388 63.4496,46.3721 61.5,45.5C 58.6008,41.8028 54.7674,40.1361 50,40.5C 41.8363,41.0148 34.3363,43.3481 27.5,47.5C 27.9973,44.1406 29.6639,42.6406 32.5,43C 34.5851,40.7217 36.9184,38.8884 39.5,37.5C 40.1667,37.5 40.8333,37.5 41.5,37.5C 46.5259,34.5968 51.8592,33.9301 57.5,35.5C 59.7262,38.7371 62.7262,40.7371 66.5,41.5 Z"/></g>
<g><path style="opacity:1" fill="#1a0201" d="M 67.5,47.5 C 67.38,48.5862 66.7133,49.2528 65.5,49.5C 61.5178,48.7406 57.5178,48.0739 53.5,47.5C 48.9835,48.7258 44.4835,48.7258 40,47.5C 37.1248,49.5757 34.1248,49.5757 31,47.5C 28.9407,50.16 26.774,51.8266 24.5,52.5C 24.5,50.8333 24.5,49.1667 24.5,47.5C 25.5,47.5 26.5,47.5 27.5,47.5C 34.3363,43.3481 41.8363,41.0148 50,40.5C 54.7674,40.1361 58.6008,41.8028 61.5,45.5C 63.4496,46.3721 65.4496,47.0388 67.5,47.5 Z"/></g>
<g><path style="opacity:1" fill="#711f17" d="M 69.5,46.5 C 68.962,44.8828 68.6287,43.2161 68.5,41.5C 69.9147,39.0828 71.5813,38.5828 73.5,40C 72.2732,42.2979 70.9399,44.4646 69.5,46.5 Z"/></g>
<g><path style="opacity:1" fill="#0d0505" d="M 67.5,47.5 C 68.1667,48.1667 68.8333,48.8333 69.5,49.5C 69.6006,54.0717 67.6006,56.0717 63.5,55.5C 60.5954,54.2774 58.7621,52.6107 58,50.5C 56.7147,50.9504 55.548,51.6171 54.5,52.5C 53.914,52.2907 53.414,51.9574 53,51.5C 48.875,56.7796 44.7083,56.7796 40.5,51.5C 38.674,51.9202 36.674,51.9202 34.5,51.5C 31.7498,52.9843 29.4164,54.9843 27.5,57.5C 26.1508,57.1543 24.8175,56.821 23.5,56.5C 23.8333,55.1667 24.1667,53.8333 24.5,52.5C 26.774,51.8266 28.9407,50.16 31,47.5C 34.1248,49.5757 37.1248,49.5757 40,47.5C 44.4835,48.7258 48.9835,48.7258 53.5,47.5C 57.5178,48.0739 61.5178,48.7406 65.5,49.5C 66.7133,49.2528 67.38,48.5862 67.5,47.5 Z"/></g>
<g><path style="opacity:1" fill="#e4e4e4" d="M 63.5,55.5 C 63.4667,60.8148 61.8,65.4814 58.5,69.5C 57.5712,68.4502 56.9046,68.4502 56.5,69.5C 55.8333,69.1667 55.1667,68.8333 54.5,68.5C 55.4293,67.6851 56.4293,66.8518 57.5,66C 56.8333,65.6667 56.1667,65.3333 55.5,65C 57.8461,63.9872 59.5128,62.3206 60.5,60C 60,58.1667 58.8333,57 57,56.5C 53.7713,57.5297 50.9379,59.1964 48.5,61.5C 47.2888,60.7261 47.2888,59.8928 48.5,59C 47.5,58.3333 46.5,58.3333 45.5,59C 46.7112,59.8928 46.7112,60.7261 45.5,61.5C 42.8363,58.3312 39.5029,57.1646 35.5,58C 32.5392,61.7627 33.5392,64.096 38.5,65C 36.0948,66.5155 36.4281,67.6822 39.5,68.5C 39.6716,69.4916 39.3382,70.1583 38.5,70.5C 36.9867,69.6907 35.3201,69.5241 33.5,70C 34.1667,69.3333 34.8333,68.6667 35.5,68C 31.6997,65.2454 30.033,61.7454 30.5,57.5C 32.2776,55.736 33.6109,53.736 34.5,51.5C 36.674,51.9202 38.674,51.9202 40.5,51.5C 44.7083,56.7796 48.875,56.7796 53,51.5C 53.414,51.9574 53.914,52.2907 54.5,52.5C 55.548,51.6171 56.7147,50.9504 58,50.5C 58.7621,52.6107 60.5954,54.2774 63.5,55.5 Z"/></g>
<g><path style="opacity:0.995" fill="#141414" d="M 69.5,49.5 C 70.9649,53.9481 71.4649,58.6148 71,63.5C 69.6667,64.8333 68.3333,66.1667 67,67.5C 66.6254,79.8555 60.792,88.3555 49.5,93C 48.7476,93.6708 48.4142,94.5041 48.5,95.5C 47.8333,95.5 47.1667,95.5 46.5,95.5C 46.5858,94.5041 46.2524,93.6708 45.5,93C 33.7757,88.9893 28.109,80.9893 28.5,69C 24.2263,65.9432 22.5596,61.7765 23.5,56.5C 24.8175,56.821 26.1508,57.1543 27.5,57.5C 29.4164,54.9843 31.7498,52.9843 34.5,51.5C 33.6109,53.736 32.2776,55.736 30.5,57.5C 30.033,61.7454 31.6997,65.2454 35.5,68C 34.8333,68.6667 34.1667,69.3333 33.5,70C 35.3201,69.5241 36.9867,69.6907 38.5,70.5C 36.0029,71.1293 34.6696,72.796 34.5,75.5C 33.9033,75.7352 33.5699,76.2352 33.5,77C 34.5515,78.5772 35.5515,80.0772 36.5,81.5C 41.8273,89.2229 48.4939,90.3895 56.5,85C 58.2189,83.1295 59.2189,80.9628 59.5,78.5C 59.5,78.1667 59.5,77.8333 59.5,77.5C 60.0431,77.44 60.3764,77.1067 60.5,76.5C 59.9063,73.692 58.5729,71.3587 56.5,69.5C 56.9046,68.4502 57.5712,68.4502 58.5,69.5C 61.8,65.4814 63.4667,60.8148 63.5,55.5C 67.6006,56.0717 69.6006,54.0717 69.5,49.5 Z"/></g>
<g><path style="opacity:1" fill="#e9e9ea" d="M 66.5,57.5 C 69.4112,60.9937 68.7445,63.9937 64.5,66.5C 64.1667,66.1667 63.8333,65.8333 63.5,65.5C 64.8333,63.8333 66.1667,62.1667 67.5,60.5C 65.565,59.787 65.2317,58.787 66.5,57.5 Z"/></g>
<g><path style="opacity:1" fill="#1d1a1a" d="M 54.5,68.5 C 54.4136,62.5754 51.9136,61.2421 47,64.5C 44.8801,63.5411 42.7135,63.3744 40.5,64C 39.8071,65.6837 39.4737,67.1837 39.5,68.5C 36.4281,67.6822 36.0948,66.5155 38.5,65C 33.5392,64.096 32.5392,61.7627 35.5,58C 39.5029,57.1646 42.8363,58.3312 45.5,61.5C 46.7112,60.7261 46.7112,59.8928 45.5,59C 46.5,58.3333 47.5,58.3333 48.5,59C 47.2888,59.8928 47.2888,60.7261 48.5,61.5C 50.9379,59.1964 53.7713,57.5297 57,56.5C 58.8333,57 60,58.1667 60.5,60C 59.5128,62.3206 57.8461,63.9872 55.5,65C 56.1667,65.3333 56.8333,65.6667 57.5,66C 56.4293,66.8518 55.4293,67.6851 54.5,68.5 Z"/></g>
<g><path style="opacity:1" fill="#b72a03" d="M 56.5,59.5 C 58.8418,59.7748 58.8418,60.6081 56.5,62C 54.9262,62.6987 53.5929,62.3654 52.5,61C 54.0581,60.79 55.3915,60.29 56.5,59.5 Z"/></g>
<g><path style="opacity:1" fill="#dc3301" d="M 36.5,59.5 C 38.1789,59.8923 39.8455,60.3923 41.5,61C 38.9634,63.2094 37.2967,62.7094 36.5,59.5 Z"/></g>
<g><path style="opacity:1" fill="#d1d1d1" d="M 26.5,58.5 C 29.5239,58.9467 29.8572,59.78 27.5,61C 28.7836,62.2975 28.6169,63.4642 27,64.5C 25.2002,62.6349 25.0336,60.6349 26.5,58.5 Z"/></g>
<g><path style="opacity:1" fill="#f2f2f2" d="M 54.5,68.5 C 55.1667,68.8333 55.8333,69.1667 56.5,69.5C 58.5729,71.3587 59.9063,73.692 60.5,76.5C 60.3764,77.1067 60.0431,77.44 59.5,77.5C 51.4655,70.8585 43.2989,70.8585 35,77.5C 34.5357,76.9056 34.369,76.2389 34.5,75.5C 34.6696,72.796 36.0029,71.1293 38.5,70.5C 39.3382,70.1583 39.6716,69.4916 39.5,68.5C 39.4737,67.1837 39.8071,65.6837 40.5,64C 42.7135,63.3744 44.8801,63.5411 47,64.5C 51.9136,61.2421 54.4136,62.5754 54.5,68.5 Z"/></g>
<g><path style="opacity:1" fill="#232323" d="M 41.5,65.5 C 43.1033,65.3118 44.4366,65.8118 45.5,67C 43.5372,67.8442 42.2039,67.3442 41.5,65.5 Z"/></g>
<g><path style="opacity:1" fill="#0f0f0f" d="M 49.5,65.5 C 50.675,65.281 51.675,65.6143 52.5,66.5C 51.277,67.6139 49.9437,67.7805 48.5,67C 49.056,66.6174 49.3893,66.1174 49.5,65.5 Z"/></g>
<g><path style="opacity:1" fill="#f7f7f7" d="M 59.5,78.5 C 59.2189,80.9628 58.2189,83.1295 56.5,85C 48.4939,90.3895 41.8273,89.2229 36.5,81.5C 36.7512,77.8458 38.7512,75.6791 42.5,75C 48.7535,73.6849 54.4202,74.8516 59.5,78.5 Z"/></g>
<g><path style="opacity:1" fill="#6f6f6f" d="M 59.5,77.5 C 59.5,77.8333 59.5,78.1667 59.5,78.5C 54.4202,74.8516 48.7535,73.6849 42.5,75C 38.7512,75.6791 36.7512,77.8458 36.5,81.5C 35.5515,80.0772 34.5515,78.5772 33.5,77C 33.5699,76.2352 33.9033,75.7352 34.5,75.5C 34.369,76.2389 34.5357,76.9056 35,77.5C 43.2989,70.8585 51.4655,70.8585 59.5,77.5 Z"/></g>
</svg>
