<?xml version="1.0" encoding="UTF-8"?>
<!DOCTYPE svg PUBLIC "-//W3C//DTD SVG 1.1//EN" "http://www.w3.org/Graphics/SVG/1.1/DTD/svg11.dtd">
<svg xmlns="http://www.w3.org/2000/svg" version="1.1" width="96px" height="96px" style="shape-rendering:geometricPrecision; text-rendering:geometricPrecision; image-rendering:optimizeQuality; fill-rule:evenodd; clip-rule:evenodd" xmlns:xlink="http://www.w3.org/1999/xlink">
<g><path style="opacity:1" fill="#eeedfc" d="M 84.5,17.5 C 87.7732,23.0476 90.7732,28.7143 93.5,34.5C 97.9832,63.3847 86.6499,82.8847 59.5,93C 31.0127,97.6772 11.846,86.5105 2,59.5C -2.60952,31.5481 8.22381,12.3815 34.5,2C 53.9791,-1.78405 70.6458,3.38261 84.5,17.5 Z"/></g>
<g><path style="opacity:1" fill="#6768e6" d="M 39.5,4.5 C 41.099,4.23219 42.4324,4.56552 43.5,5.5C 32.1082,22.5986 20.9416,39.9319 10,57.5C 9.25164,59.8401 9.75164,61.8401 11.5,63.5C 9.98261,63.4894 8.81595,62.8228 8,61.5C 7.83333,61.8333 7.66667,62.1667 7.5,62.5C 9.45256,66.0693 11.1192,69.736 12.5,73.5C -1.17359,52.1316 0.82641,32.2983 18.5,14C 24.5004,8.66718 31.5004,5.50051 39.5,4.5 Z"/></g>
<g><path style="opacity:1" fill="#fafafe" d="M 43.5,5.5 C 44.8221,5.33003 45.9887,5.66337 47,6.5C 50.3333,11.8333 53.6667,17.1667 57,22.5C 57.6667,24.1667 57.6667,25.8333 57,27.5C 55.0335,30.601 53.2002,33.7676 51.5,37C 54.3226,39.3222 56.9892,41.8222 59.5,44.5C 61.0267,42.8067 62.3601,40.9734 63.5,39C 64.8333,38.3333 66.1667,38.3333 67.5,39C 71.7084,45.9179 76.0418,52.7512 80.5,59.5C 79.2878,61.4284 79.6211,63.0951 81.5,64.5C 80.8333,64.5 80.5,64.8333 80.5,65.5C 75.3919,62.1063 70.0585,58.9397 64.5,56C 62.84,54.5123 61.84,52.679 61.5,50.5C 61.0679,49.2905 60.4013,48.2905 59.5,47.5C 59.1667,47.5 58.8333,47.5 58.5,47.5C 58.6716,46.5084 58.3382,45.8417 57.5,45.5C 46.0947,34.5179 34.9281,34.8512 24,46.5C 19.8752,51.3014 16.5419,56.6347 14,62.5C 13.3292,63.2524 12.4959,63.5858 11.5,63.5C 9.75164,61.8401 9.25164,59.8401 10,57.5C 20.9416,39.9319 32.1082,22.5986 43.5,5.5 Z"/></g>
<g><path style="opacity:1" fill="#6768e6" d="M 39.5,4.5 C 65.8978,1.62776 83.0645,12.9611 91,38.5C 93.0921,52.8069 89.5921,65.4736 80.5,76.5C 79.6618,76.1583 79.3284,75.4916 79.5,74.5C 83.8875,71.8957 84.5542,68.5624 81.5,64.5C 79.6211,63.0951 79.2878,61.4284 80.5,59.5C 76.0418,52.7512 71.7084,45.9179 67.5,39C 66.1667,38.3333 64.8333,38.3333 63.5,39C 62.3601,40.9734 61.0267,42.8067 59.5,44.5C 56.9892,41.8222 54.3226,39.3222 51.5,37C 53.2002,33.7676 55.0335,30.601 57,27.5C 57.6667,25.8333 57.6667,24.1667 57,22.5C 53.6667,17.1667 50.3333,11.8333 47,6.5C 45.9887,5.66337 44.8221,5.33003 43.5,5.5C 42.4324,4.56552 41.099,4.23219 39.5,4.5 Z"/></g>
<g><path style="opacity:0.176" fill="#6463e5" d="M 84.5,17.5 C 89.3214,22.1401 92.3214,27.8067 93.5,34.5C 90.7732,28.7143 87.7732,23.0476 84.5,17.5 Z"/></g>
<g><path style="opacity:0.941" fill="#6161e5" d="M 37.5,-0.5 C 44.1667,-0.5 50.8333,-0.5 57.5,-0.5C 67.7493,2.37943 76.5826,7.71276 84,15.5C 84.4643,16.0944 84.631,16.7611 84.5,17.5C 70.6458,3.38261 53.9791,-1.78405 34.5,2C 8.22381,12.3815 -2.60952,31.5481 2,59.5C 11.846,86.5105 31.0127,97.6772 59.5,93C 86.6499,82.8847 97.9832,63.3847 93.5,34.5C 94.1667,35.8333 94.8333,37.1667 95.5,38.5C 95.5,44.8333 95.5,51.1667 95.5,57.5C 89.807,77.193 77.1403,89.8597 57.5,95.5C 50.8333,95.5 44.1667,95.5 37.5,95.5C 17.8333,89.8333 5.16667,77.1667 -0.5,57.5C -0.5,50.8333 -0.5,44.1667 -0.5,37.5C 5.16667,17.8333 17.8333,5.16667 37.5,-0.5 Z"/></g>
<g><path style="opacity:1" fill="#e3e2fa" d="M 57.5,45.5 C 58.3382,45.8417 58.6716,46.5084 58.5,47.5C 54.3844,48.3954 51.0511,50.5621 48.5,54C 50.1686,54.1218 51.8353,53.7885 53.5,53C 55.4747,50.9084 57.4747,49.0751 59.5,47.5C 60.4013,48.2905 61.0679,49.2905 61.5,50.5C 58.033,50.4457 55.3663,51.9457 53.5,55C 50.4774,54.906 48.4774,56.2393 47.5,59C 51.7666,64.6 56.7666,69.6 62.5,74C 66.5,74.6667 70.5,74.6667 74.5,74C 80.0269,73.3447 82.0269,70.5114 80.5,65.5C 80.5,64.8333 80.8333,64.5 81.5,64.5C 84.5542,68.5624 83.8875,71.8957 79.5,74.5C 74.5559,77.2326 69.2225,78.066 63.5,77C 57.0213,72.5188 51.1879,67.3522 46,61.5C 45.3333,59.1667 45.3333,56.8333 46,54.5C 47.6196,52.7585 49.1196,50.9252 50.5,49C 53.0691,48.1016 55.4024,46.935 57.5,45.5 Z"/></g>
<g><path style="opacity:1" fill="#6667e6" d="M 61.5,50.5 C 61.84,52.679 62.84,54.5123 64.5,56C 70.0585,58.9397 75.3919,62.1063 80.5,65.5C 82.0269,70.5114 80.0269,73.3447 74.5,74C 70.5,74.6667 66.5,74.6667 62.5,74C 56.7666,69.6 51.7666,64.6 47.5,59C 48.4774,56.2393 50.4774,54.906 53.5,55C 55.3663,51.9457 58.033,50.4457 61.5,50.5 Z"/></g>
<g><path style="opacity:1" fill="#babaf4" d="M 68.5,70.5 C 69.675,70.281 70.675,70.6143 71.5,71.5C 69.9483,72.7979 68.9483,72.4646 68.5,70.5 Z"/></g>
<g><path style="opacity:1" fill="#c6c5f6" d="M 77.5,67.5 C 79.9752,67.7467 79.9752,68.4134 77.5,69.5C 76.537,69.0302 76.537,68.3635 77.5,67.5 Z"/></g>
<g><path style="opacity:1" fill="#6865e6" d="M 58.5,47.5 C 58.8333,47.5 59.1667,47.5 59.5,47.5C 57.4747,49.0751 55.4747,50.9084 53.5,53C 51.8353,53.7885 50.1686,54.1218 48.5,54C 51.0511,50.5621 54.3844,48.3954 58.5,47.5 Z"/></g>
<g><path style="opacity:1" fill="#6768e6" d="M 57.5,45.5 C 55.4024,46.935 53.0691,48.1016 50.5,49C 49.1196,50.9252 47.6196,52.7585 46,54.5C 45.3333,56.8333 45.3333,59.1667 46,61.5C 51.1879,67.3522 57.0213,72.5188 63.5,77C 69.2225,78.066 74.5559,77.2326 79.5,74.5C 79.3284,75.4916 79.6618,76.1583 80.5,76.5C 65.3442,92.1522 47.6775,95.6522 27.5,87C 21.2121,83.8681 16.2121,79.3681 12.5,73.5C 11.1192,69.736 9.45256,66.0693 7.5,62.5C 7.66667,62.1667 7.83333,61.8333 8,61.5C 8.81595,62.8228 9.98261,63.4894 11.5,63.5C 12.4959,63.5858 13.3292,63.2524 14,62.5C 16.5419,56.6347 19.8752,51.3014 24,46.5C 34.9281,34.8512 46.0947,34.5179 57.5,45.5 Z"/></g>
<g><path style="opacity:1" fill="#ecebfb" d="M 34.5,46.5 C 35.209,45.596 36.209,45.2627 37.5,45.5C 39.5,45.5 41.5,45.5 43.5,45.5C 43.6633,47.8568 43.4966,50.1902 43,52.5C 40.3557,54.31 37.8557,56.31 35.5,58.5C 34.4777,58.1445 33.811,57.4778 33.5,56.5C 33.8333,56.5 34.1667,56.5 34.5,56.5C 37.1004,55.0812 39.6004,53.4146 42,51.5C 42.4935,49.8659 42.6602,48.1992 42.5,46.5C 39.8333,46.5 37.1667,46.5 34.5,46.5 Z"/></g>
<g><path style="opacity:1" fill="#6866e6" d="M 34.5,46.5 C 37.1667,46.5 39.8333,46.5 42.5,46.5C 42.6602,48.1992 42.4935,49.8659 42,51.5C 39.6004,53.4146 37.1004,55.0812 34.5,56.5C 30.2468,54.5522 28.5801,51.2189 29.5,46.5C 31.1667,46.5 32.8333,46.5 34.5,46.5 Z"/></g>
<g><path style="opacity:1" fill="#d8d7f8" d="M 34.5,49.5 C 36.1992,49.3398 37.8659,49.5065 39.5,50C 37.728,51.4868 35.728,51.8201 33.5,51C 34.056,50.6174 34.3893,50.1174 34.5,49.5 Z"/></g>
<g><path style="opacity:1" fill="#c5c5f5" d="M 37.5,45.5 C 36.209,45.2627 35.209,45.596 34.5,46.5C 32.8333,46.5 31.1667,46.5 29.5,46.5C 28.5801,51.2189 30.2468,54.5522 34.5,56.5C 34.1667,56.5 33.8333,56.5 33.5,56.5C 31.1137,55.6267 29.1137,54.1267 27.5,52C 28.435,49.6194 28.7683,47.1194 28.5,44.5C 31.7131,44.19 34.7131,44.5233 37.5,45.5 Z"/></g>
</svg>
