<?xml version="1.0" encoding="UTF-8"?>
<!DOCTYPE svg PUBLIC "-//W3C//DTD SVG 1.1//EN" "http://www.w3.org/Graphics/SVG/1.1/DTD/svg11.dtd">
<svg xmlns="http://www.w3.org/2000/svg" version="1.1" width="96px" height="96px" style="shape-rendering:geometricPrecision; text-rendering:geometricPrecision; image-rendering:optimizeQuality; fill-rule:evenodd; clip-rule:evenodd" xmlns:xlink="http://www.w3.org/1999/xlink">
<g><path style="opacity:1" fill="#177228" d="M 37.5,-0.5 C 44.1667,-0.5 50.8333,-0.5 57.5,-0.5C 77.1667,5.16667 89.8333,17.8333 95.5,37.5C 95.5,44.1667 95.5,50.8333 95.5,57.5C 89.8333,77.1667 77.1667,89.8333 57.5,95.5C 50.8333,95.5 44.1667,95.5 37.5,95.5C 17.8333,89.8333 5.16667,77.1667 -0.5,57.5C -0.5,50.8333 -0.5,44.1667 -0.5,37.5C 5.16667,17.8333 17.8333,5.16667 37.5,-0.5 Z"/></g>
<g><path style="opacity:1" fill="#d2e5d7" d="M 39.5,0.5 C 66.0996,-0.9652 83.9329,10.7015 93,35.5C 97.3473,58.8213 89.514,76.6547 69.5,89C 45.5908,99.4805 25.4241,94.6472 9,74.5C -5.42961,49.3983 -1.59628,27.5649 20.5,9C 26.6196,5.46938 32.953,2.63604 39.5,0.5 Z"/></g>
<g><path style="opacity:1" fill="#1a7b32" d="M 26.5,23.5 C 26.838,40.3584 27.838,57.0251 29.5,73.5C 34.1667,73.5 38.8333,73.5 43.5,73.5C 43.5,69.5 43.5,65.5 43.5,61.5C 46.1667,61.5 48.8333,61.5 51.5,61.5C 51.5,65.5 51.5,69.5 51.5,73.5C 56.1667,73.5 60.8333,73.5 65.5,73.5C 67.162,57.0251 68.162,40.3584 68.5,23.5C 68.5,40.1667 68.5,56.8333 68.5,73.5C 73.0937,73.8651 77.427,74.8651 81.5,76.5C 81.1412,78.371 80.1412,79.871 78.5,81C 62.6252,93.4887 45.2919,95.822 26.5,88C 22.8901,86.056 19.5568,83.7226 16.5,81C 14.8588,79.871 13.8588,78.371 13.5,76.5C 17.573,74.8651 21.9063,73.8651 26.5,73.5C 26.5,56.8333 26.5,40.1667 26.5,23.5 Z"/></g>
<g><path style="opacity:1" fill="#217b33" d="M 81.5,76.5 C 77.427,74.8651 73.0937,73.8651 68.5,73.5C 73.7616,73.8047 78.9283,73.4714 84,72.5C 84.6667,56.5 84.6667,40.5 84,24.5C 78.9283,23.5286 73.7616,23.1953 68.5,23.5C 68.162,40.3584 67.162,57.0251 65.5,73.5C 65.8304,53.6596 65.4971,33.9929 64.5,14.5C 64.3893,13.8826 64.056,13.3826 63.5,13C 52.8333,12.3333 42.1667,12.3333 31.5,13C 30.944,13.3826 30.6107,13.8826 30.5,14.5C 29.5029,33.9929 29.1696,53.6596 29.5,73.5C 27.838,57.0251 26.838,40.3584 26.5,23.5C 21.2384,23.1953 16.0717,23.5286 11,24.5C 10.3333,40.5 10.3333,56.5 11,72.5C 16.0717,73.4714 21.2384,73.8047 26.5,73.5C 21.9063,73.8651 17.573,74.8651 13.5,76.5C 7.90969,70.6529 4.40969,63.6529 3,55.5C 0.401541,30.1788 10.9015,13.0121 34.5,4C 63.8945,-1.22968 83.0611,10.2703 92,38.5C 93.9483,51.0374 91.615,62.7041 85,73.5C 83.9609,74.7101 82.7942,75.7101 81.5,76.5 Z"/></g>
<g><path style="opacity:1" fill="#f5f9f7" d="M 68.5,23.5 C 73.7616,23.1953 78.9283,23.5286 84,24.5C 84.6667,40.5 84.6667,56.5 84,72.5C 78.9283,73.4714 73.7616,73.8047 68.5,73.5C 68.5,56.8333 68.5,40.1667 68.5,23.5 Z"/></g>
<g><path style="opacity:1" fill="#23782f" d="M 74.5,61.5 C 76.1667,61.5 77.8333,61.5 79.5,61.5C 79.5,63.5 79.5,65.5 79.5,67.5C 77.8333,67.5 76.1667,67.5 74.5,67.5C 74.5,65.5 74.5,63.5 74.5,61.5 Z"/></g>
<g><path style="opacity:1" fill="#217b33" d="M 74.5,50.5 C 76.1667,50.5 77.8333,50.5 79.5,50.5C 79.5,52.5 79.5,54.5 79.5,56.5C 77.8333,56.5 76.1667,56.5 74.5,56.5C 74.5,54.5 74.5,52.5 74.5,50.5 Z"/></g>
<g><path style="opacity:1" fill="#2a7b36" d="M 74.5,39.5 C 78.9083,39.062 80.5749,41.062 79.5,45.5C 77.8333,45.5 76.1667,45.5 74.5,45.5C 74.5,43.5 74.5,41.5 74.5,39.5 Z"/></g>
<g><path style="opacity:1" fill="#388341" d="M 74.5,28.5 C 79.3276,28.3852 80.6609,30.5519 78.5,35C 77.2068,35.49 75.8734,35.6567 74.5,35.5C 74.5,33.1667 74.5,30.8333 74.5,28.5 Z"/></g>
<g><path style="opacity:1" fill="#f6f9f7" d="M 26.5,23.5 C 26.5,40.1667 26.5,56.8333 26.5,73.5C 21.2384,73.8047 16.0717,73.4714 11,72.5C 10.3333,56.5 10.3333,40.5 11,24.5C 16.0717,23.5286 21.2384,23.1953 26.5,23.5 Z"/></g>
<g><path style="opacity:1" fill="#257c35" d="M 15.5,61.5 C 17.1667,61.5 18.8333,61.5 20.5,61.5C 20.5,63.5 20.5,65.5 20.5,67.5C 18.8333,67.5 17.1667,67.5 15.5,67.5C 15.5,65.5 15.5,63.5 15.5,61.5 Z"/></g>
<g><path style="opacity:1" fill="#2a7f39" d="M 15.5,50.5 C 17.1667,50.5 18.8333,50.5 20.5,50.5C 20.5,52.5 20.5,54.5 20.5,56.5C 18.8333,56.5 17.1667,56.5 15.5,56.5C 15.5,54.5 15.5,52.5 15.5,50.5 Z"/></g>
<g><path style="opacity:1" fill="#0d7225" d="M 20.5,40.5 C 20.5,42.1667 20.5,43.8333 20.5,45.5C 19.1667,45.5 17.8333,45.5 16.5,45.5C 16.5,43.8333 16.5,42.1667 16.5,40.5C 17.8333,40.5 19.1667,40.5 20.5,40.5 Z"/></g>
<g><path style="opacity:1" fill="#65a575" d="M 20.5,40.5 C 19.1667,40.5 17.8333,40.5 16.5,40.5C 16.5,42.1667 16.5,43.8333 16.5,45.5C 15.5386,43.7354 15.2053,41.7354 15.5,39.5C 17.4147,39.2155 19.0813,39.5489 20.5,40.5 Z"/></g>
<g><path style="opacity:1" fill="#3b8343" d="M 16.5,28.5 C 17.8333,28.5 19.1667,28.5 20.5,28.5C 20.5,30.8333 20.5,33.1667 20.5,35.5C 15.5904,35.4236 14.2571,33.0902 16.5,28.5 Z"/></g>
<g><path style="opacity:1" fill="#8abc98" d="M 64.5,14.5 C 65.4971,33.9929 65.8304,53.6596 65.5,73.5C 60.8333,73.5 56.1667,73.5 51.5,73.5C 51.5,69.5 51.5,65.5 51.5,61.5C 52.4816,64.9619 52.815,68.6286 52.5,72.5C 56.5,72.5 60.5,72.5 64.5,72.5C 64.5,53.1667 64.5,33.8333 64.5,14.5 Z"/></g>
<g><path style="opacity:1" fill="#95c2a2" d="M 30.5,14.5 C 30.5,33.8333 30.5,53.1667 30.5,72.5C 34.5,72.5 38.5,72.5 42.5,72.5C 42.185,68.6286 42.5184,64.9619 43.5,61.5C 43.5,65.5 43.5,69.5 43.5,73.5C 38.8333,73.5 34.1667,73.5 29.5,73.5C 29.1696,53.6596 29.5029,33.9929 30.5,14.5 Z"/></g>
<g><path style="opacity:1" fill="#f6f9f7" d="M 64.5,14.5 C 64.5,33.8333 64.5,53.1667 64.5,72.5C 60.5,72.5 56.5,72.5 52.5,72.5C 52.815,68.6286 52.4816,64.9619 51.5,61.5C 48.8333,61.5 46.1667,61.5 43.5,61.5C 42.5184,64.9619 42.185,68.6286 42.5,72.5C 38.5,72.5 34.5,72.5 30.5,72.5C 30.5,53.1667 30.5,33.8333 30.5,14.5C 30.6107,13.8826 30.944,13.3826 31.5,13C 42.1667,12.3333 52.8333,12.3333 63.5,13C 64.056,13.3826 64.3893,13.8826 64.5,14.5 Z"/></g>
<g><path style="opacity:1" fill="#277d37" d="M 54.5,50.5 C 56.1667,50.5 57.8333,50.5 59.5,50.5C 59.5,52.5 59.5,54.5 59.5,56.5C 57.8333,56.5 56.1667,56.5 54.5,56.5C 54.5,54.5 54.5,52.5 54.5,50.5 Z"/></g>
<g><path style="opacity:1" fill="#127328" d="M 45.5,50.5 C 46.8333,50.5 48.1667,50.5 49.5,50.5C 49.5,52.5 49.5,54.5 49.5,56.5C 48.1667,56.5 46.8333,56.5 45.5,56.5C 45.5,54.5 45.5,52.5 45.5,50.5 Z"/></g>
<g><path style="opacity:1" fill="#207b33" d="M 35.5,50.5 C 37.1667,50.5 38.8333,50.5 40.5,50.5C 40.5,52.5 40.5,54.5 40.5,56.5C 38.8333,56.5 37.1667,56.5 35.5,56.5C 35.5,54.5 35.5,52.5 35.5,50.5 Z"/></g>
<g><path style="opacity:1" fill="#277a34" d="M 54.5,39.5 C 58.9083,39.062 60.5749,41.062 59.5,45.5C 57.8333,45.5 56.1667,45.5 54.5,45.5C 54.5,43.5 54.5,41.5 54.5,39.5 Z"/></g>
<g><path style="opacity:1" fill="#167126" d="M 45.5,39.5 C 46.8333,39.5 48.1667,39.5 49.5,39.5C 49.5,41.5 49.5,43.5 49.5,45.5C 48.1667,45.5 46.8333,45.5 45.5,45.5C 45.5,43.5 45.5,41.5 45.5,39.5 Z"/></g>
<g><path style="opacity:1" fill="#257a33" d="M 36.5,39.5 C 37.8333,39.5 39.1667,39.5 40.5,39.5C 40.5,41.5 40.5,43.5 40.5,45.5C 38.8333,45.5 37.1667,45.5 35.5,45.5C 35.3253,43.3792 35.6586,41.3792 36.5,39.5 Z"/></g>
<g><path style="opacity:1" fill="#307d39" d="M 54.5,28.5 C 59.3276,28.3852 60.6609,30.5519 58.5,35C 57.2068,35.49 55.8734,35.6567 54.5,35.5C 54.5,33.1667 54.5,30.8333 54.5,28.5 Z"/></g>
<g><path style="opacity:1" fill="#2e7e39" d="M 36.5,28.5 C 37.8333,28.5 39.1667,28.5 40.5,28.5C 40.5,30.8333 40.5,33.1667 40.5,35.5C 35.5904,35.4236 34.2571,33.0902 36.5,28.5 Z"/></g>
<g><path style="opacity:1" fill="#307b36" d="M 45.5,28.5 C 46.8333,28.5 48.1667,28.5 49.5,28.5C 49.5,30.8333 49.5,33.1667 49.5,35.5C 48.1667,35.5 46.8333,35.5 45.5,35.5C 45.5,33.1667 45.5,30.8333 45.5,28.5 Z"/></g>
<g><path style="opacity:1" fill="#297e39" d="M 54.5,18.5 C 56.1667,18.5 57.8333,18.5 59.5,18.5C 59.5,20.5 59.5,22.5 59.5,24.5C 57.8333,24.5 56.1667,24.5 54.5,24.5C 54.5,22.5 54.5,20.5 54.5,18.5 Z"/></g>
<g><path style="opacity:1" fill="#2a7f3b" d="M 35.5,18.5 C 37.1667,18.5 38.8333,18.5 40.5,18.5C 40.5,20.5 40.5,22.5 40.5,24.5C 38.8333,24.5 37.1667,24.5 35.5,24.5C 35.5,22.5 35.5,20.5 35.5,18.5 Z"/></g>
<g><path style="opacity:1" fill="#106f21" d="M 45.5,18.5 C 46.8333,18.5 48.1667,18.5 49.5,18.5C 49.5,20.5 49.5,22.5 49.5,24.5C 48.1667,24.5 46.8333,24.5 45.5,24.5C 45.5,22.5 45.5,20.5 45.5,18.5 Z"/></g>
</svg>
