<?xml version="1.0" encoding="UTF-8"?>
<!DOCTYPE svg PUBLIC "-//W3C//DTD SVG 1.1//EN" "http://www.w3.org/Graphics/SVG/1.1/DTD/svg11.dtd">
<svg xmlns="http://www.w3.org/2000/svg" version="1.1" width="96px" height="96px" style="shape-rendering:geometricPrecision; text-rendering:geometricPrecision; image-rendering:optimizeQuality; fill-rule:evenodd; clip-rule:evenodd" xmlns:xlink="http://www.w3.org/1999/xlink">
<g><path style="opacity:0.992" fill="#020104" d="M -0.5,-0.5 C 12.1667,-0.5 24.8333,-0.5 37.5,-0.5C 36.5,0.166667 35.5,0.833333 34.5,1.5C 27.8067,2.67857 22.1401,5.67857 17.5,10.5C 14.1667,11.8333 11.8333,14.1667 10.5,17.5C 9.02561,18.4363 8.02561,19.7697 7.5,21.5C 3.94162,26.4474 1.27496,31.7807 -0.5,37.5C -0.5,24.8333 -0.5,12.1667 -0.5,-0.5 Z"/></g>
<g><path style="opacity:0.992" fill="#030207" d="M 54.5,0.5 C 54.5,0.166667 54.5,-0.166667 54.5,-0.5C 68.1667,-0.5 81.8333,-0.5 95.5,-0.5C 95.5,12.5 95.5,25.5 95.5,38.5C 93.8377,31.5096 90.8377,25.1763 86.5,19.5C 82.1316,13.8027 76.7983,9.13599 70.5,5.5C 69.0697,4.46253 67.403,3.79586 65.5,3.5C 62.7846,1.92809 59.7846,0.928086 56.5,0.5C 55.8333,0.5 55.1667,0.5 54.5,0.5 Z"/></g>
<g><path style="opacity:1" fill="#0c4ee5" d="M 37.5,-0.5 C 43.1667,-0.5 48.8333,-0.5 54.5,-0.5C 54.5,-0.166667 54.5,0.166667 54.5,0.5C 51.0836,0.527505 48.0836,1.52751 45.5,3.5C 41.6125,3.35407 37.9458,2.6874 34.5,1.5C 35.5,0.833333 36.5,0.166667 37.5,-0.5 Z"/></g>
<g><path style="opacity:1" fill="#4782ef" d="M 54.5,0.5 C 55.1667,0.5 55.8333,0.5 56.5,0.5C 52.9892,1.66405 49.3225,2.66405 45.5,3.5C 48.0836,1.52751 51.0836,0.527505 54.5,0.5 Z"/></g>
<g><path style="opacity:1" fill="#3e78e4" d="M 65.5,3.5 C 67.403,3.79586 69.0697,4.46253 70.5,5.5C 61.0911,4.64364 52.0911,5.97697 43.5,9.5C 26.7731,6.37746 17.6065,13.3775 16,30.5C 12.9391,34.2898 11.2725,38.6231 11,43.5C 8.75192,46.328 6.75192,49.328 5,52.5C 3.57643,60.31 4.7431,67.6433 8.5,74.5C 5.43578,71.0382 3.43578,67.0382 2.5,62.5C 1.97901,55.2292 4.14567,48.8959 9,43.5C 12.2878,35.2603 15.2878,26.9269 18,18.5C 23.7548,7.69164 32.4214,4.35831 44,8.5C 50.5128,4.24759 57.6795,2.58092 65.5,3.5 Z"/></g>
<g><path style="opacity:1" fill="#0449e1" d="M 56.5,0.5 C 59.7846,0.928086 62.7846,1.92809 65.5,3.5C 57.6795,2.58092 50.5128,4.24759 44,8.5C 32.4214,4.35831 23.7548,7.69164 18,18.5C 15.2878,26.9269 12.2878,35.2603 9,43.5C 4.14567,48.8959 1.97901,55.2292 2.5,62.5C 0.734524,59.8774 0.0678575,56.8774 0.5,53.5C 2.00683,49.1554 4.1735,45.1554 7,41.5C 10.6621,31.8493 14.3287,22.1826 18,12.5C 20.9276,8.61903 24.7609,6.11903 29.5,5C 35.0158,4.82669 40.3491,4.32669 45.5,3.5C 49.3225,2.66405 52.9892,1.66405 56.5,0.5 Z"/></g>
<g><path style="opacity:1" fill="#3e77e2" d="M 86.5,21.5 C 86.5,22.1667 86.5,22.8333 86.5,23.5C 82.7024,20.2039 79.0357,16.7039 75.5,13C 66.5884,8.54735 57.5884,8.38069 48.5,12.5C 44.2806,14.7206 39.9473,14.7206 35.5,12.5C 32.7666,12.968 30.1,13.6347 27.5,14.5C 28.0577,13.2101 29.0577,12.3768 30.5,12C 34.8574,11.3687 39.1907,11.5353 43.5,12.5C 46.7022,11.9007 49.7022,10.734 52.5,9C 58.5,8.33333 64.5,8.33333 70.5,9C 72.7254,9.56106 74.7254,10.5611 76.5,12C 79.7025,15.3709 83.0359,18.5375 86.5,21.5 Z"/></g>
<g><path style="opacity:1" fill="#0547da" d="M 86.5,23.5 C 87.0418,25.9494 87.3751,28.4494 87.5,31C 86.911,35.8524 86.2443,40.6858 85.5,45.5C 84.6851,46.4293 83.8518,47.4293 83,48.5C 82.1301,47.8921 81.6301,47.0588 81.5,46C 83.5779,39.9468 84.7446,33.7801 85,27.5C 83.5945,24.5914 81.4278,22.5914 78.5,21.5C 76.6791,17.5147 73.6791,14.6814 69.5,13C 63.4632,12.3029 57.4632,12.4696 51.5,13.5C 50.209,13.7373 49.209,13.404 48.5,12.5C 57.5884,8.38069 66.5884,8.54735 75.5,13C 79.0357,16.7039 82.7024,20.2039 86.5,23.5 Z"/></g>
<g><path style="opacity:1" fill="#f8f9fb" d="M 66.5,17.5 C 68.5932,18.0447 70.5932,18.878 72.5,20C 74.3333,23.1667 76.8333,25.6667 80,27.5C 80.7218,30.2605 80.5552,32.9272 79.5,35.5C 78.859,38.8905 77.6923,42.2239 76,45.5C 74.4443,47.6348 72.6109,47.9681 70.5,46.5C 68.025,44.9943 65.3584,43.6609 62.5,42.5C 61.671,37.5329 61.171,32.5329 61,27.5C 60.3881,24.8854 58.8881,23.2187 56.5,22.5C 55.158,21.207 53.4913,20.3736 51.5,20C 51.8333,19.6667 52.1667,19.3333 52.5,19C 57.036,17.6211 61.7027,17.1211 66.5,17.5 Z"/></g>
<g><path style="opacity:1" fill="#0949dc" d="M 17.5,10.5 C 13.4483,18.2535 9.94828,26.2535 7,34.5C 6.08779,40.3244 3.58779,45.3244 -0.5,49.5C -0.5,47.5 -0.5,45.5 -0.5,43.5C 1.17335,42.657 2.34001,41.3237 3,39.5C 5.82384,32.2136 8.32384,24.8803 10.5,17.5C 11.8333,14.1667 14.1667,11.8333 17.5,10.5 Z"/></g>
<g><path style="opacity:1" fill="#4083ec" d="M 10.5,17.5 C 8.32384,24.8803 5.82384,32.2136 3,39.5C 2.34001,41.3237 1.17335,42.657 -0.5,43.5C -0.5,42.8333 -0.5,42.1667 -0.5,41.5C 0.314913,40.5707 1.14825,39.5707 2,38.5C 3.84918,32.8106 5.68251,27.1439 7.5,21.5C 8.02561,19.7697 9.02561,18.4363 10.5,17.5 Z"/></g>
<g><path style="opacity:1" fill="#1242cf" d="M 57.5,14.5 C 62.0536,14.2546 66.5536,14.5879 71,15.5C 73.6956,17.3737 76.1956,19.3737 78.5,21.5C 83.8263,26.4613 84.8263,32.128 81.5,38.5C 80.8826,38.6107 80.3826,38.944 80,39.5C 79.51,38.2068 79.3433,36.8734 79.5,35.5C 80.5552,32.9272 80.7218,30.2605 80,27.5C 76.8333,25.6667 74.3333,23.1667 72.5,20C 70.5932,18.878 68.5932,18.0447 66.5,17.5C 62.6877,16.6762 58.6877,16.1762 54.5,16C 55.7375,15.7679 56.7375,15.2679 57.5,14.5 Z"/></g>
<g><path style="opacity:1" fill="#f1f3f7" d="M 56.5,22.5 C 57.5045,23.6828 58.3378,25.0161 59,26.5C 59.3333,31.5 59.6667,36.5 60,41.5C 62.253,44.0471 65.0864,45.7138 68.5,46.5C 69.2975,46.9569 69.6309,47.6236 69.5,48.5C 67.5,48.1667 65.5,47.8333 63.5,47.5C 60.9392,46.169 58.4392,46.5023 56,48.5C 55.0467,50.4552 53.7134,52.1218 52,53.5C 51.5026,56.146 51.3359,58.8127 51.5,61.5C 50.596,60.791 50.2627,59.791 50.5,58.5C 45.9677,58.1818 41.6344,58.5151 37.5,59.5C 31.3495,57.2433 25.0162,55.5766 18.5,54.5C 20.1271,52.3702 21.9604,50.3702 24,48.5C 24,45.8333 24,43.1667 24,40.5C 26.9877,34.0288 29.821,27.5288 32.5,21C 40.3521,22.2559 48.3521,22.7559 56.5,22.5 Z"/></g>
<g><path style="opacity:1" fill="#1733a2" d="M 34.5,23.5 C 36.4672,23.2606 38.3005,23.5939 40,24.5C 40.1141,27.833 39.7808,31.1663 39,34.5C 36.3669,36.1601 33.5335,36.6601 30.5,36C 29.9781,35.4387 29.6448,34.772 29.5,34C 31.0441,30.413 32.7107,26.913 34.5,23.5 Z"/></g>
<g><path style="opacity:1" fill="#adbedf" d="M 34.5,25.5 C 35.2389,25.369 35.9056,25.5357 36.5,26C 35.0336,28.8135 33.5336,31.6469 32,34.5C 32.2058,31.3939 33.0392,28.3939 34.5,25.5 Z"/></g>
<g><path style="opacity:1" fill="#1345bf" d="M 7.5,21.5 C 5.68251,27.1439 3.84918,32.8106 2,38.5C 1.14825,39.5707 0.314913,40.5707 -0.5,41.5C -0.5,40.1667 -0.5,38.8333 -0.5,37.5C 1.27496,31.7807 3.94162,26.4474 7.5,21.5 Z"/></g>
<g><path style="opacity:1" fill="#0f329a" d="M 45.5,38.5 C 46.7175,37.8386 48.0508,37.1719 49.5,36.5C 48.7261,35.2888 47.8928,35.2888 47,36.5C 46.5065,34.8659 46.3398,33.1992 46.5,31.5C 46.7031,29.9557 47.3698,28.6223 48.5,27.5C 44.7829,25.6392 45.2829,24.6392 50,24.5C 53.9307,24.5976 56.0973,26.5976 56.5,30.5C 55.6576,37.0054 51.9909,39.6721 45.5,38.5 Z"/></g>
<g><path style="opacity:1" fill="#3877de" d="M 27.5,14.5 C 25.5121,16.4649 24.0121,18.7982 23,21.5C 20.3222,29.5163 17.6555,37.5163 15,45.5C 14.6174,46.056 14.1174,46.3893 13.5,46.5C 14.1371,43.544 14.6371,40.544 15,37.5C 18.4453,31.9735 20.7786,25.9735 22,19.5C 23.0757,16.921 24.909,15.2543 27.5,14.5 Z"/></g>
<g><path style="opacity:1" fill="#4d5596" d="M 56.5,22.5 C 58.8881,23.2187 60.3881,24.8854 61,27.5C 61.171,32.5329 61.671,37.5329 62.5,42.5C 65.3584,43.6609 68.025,44.9943 70.5,46.5C 70.6716,47.4916 70.3382,48.1583 69.5,48.5C 69.6309,47.6236 69.2975,46.9569 68.5,46.5C 65.0864,45.7138 62.253,44.0471 60,41.5C 59.6667,36.5 59.3333,31.5 59,26.5C 58.3378,25.0161 57.5045,23.6828 56.5,22.5 Z"/></g>
<g><path style="opacity:1" fill="#193cb4" d="M 57.5,14.5 C 56.7375,15.2679 55.7375,15.7679 54.5,16C 58.6877,16.1762 62.6877,16.6762 66.5,17.5C 61.7027,17.1211 57.036,17.6211 52.5,19C 52.1667,19.3333 51.8333,19.6667 51.5,20C 53.4913,20.3736 55.158,21.207 56.5,22.5C 48.3521,22.7559 40.3521,22.2559 32.5,21C 29.821,27.5288 26.9877,34.0288 24,40.5C 24,43.1667 24,45.8333 24,48.5C 21.9604,50.3702 20.1271,52.3702 18.5,54.5C 18.5,54.8333 18.5,55.1667 18.5,55.5C 17.375,56.6522 17.375,57.6522 18.5,58.5C 18.8333,58.5 19.1667,58.5 19.5,58.5C 19.8417,59.3382 20.5084,59.6716 21.5,59.5C 21.5,60.1667 21.8333,60.5 22.5,60.5C 23.609,60.4431 24.609,60.1098 25.5,59.5C 25.3284,60.4916 25.6618,61.1583 26.5,61.5C 26.5,61.8333 26.5,62.1667 26.5,62.5C 25.1667,62.5 23.8333,62.5 22.5,62.5C 22.1667,62.5 21.8333,62.5 21.5,62.5C 20.6977,61.1153 20.0311,61.282 19.5,63C 19.6387,64.301 20.3054,65.1344 21.5,65.5C 22.1667,65.5 22.5,65.8333 22.5,66.5C 20.6693,65.9478 19.0026,65.9478 17.5,66.5C 19.8444,73.8481 24.8444,77.1815 32.5,76.5C 36.8333,77.1667 41.1667,77.8333 45.5,78.5C 38.3004,79.7051 30.967,79.5384 23.5,78C 22.0161,77.3378 20.6828,76.5045 19.5,75.5C 15.946,70.5542 13.6127,65.0542 12.5,59C 13.7461,54.0859 16.2461,49.9192 20,46.5C 20.3333,43.8333 20.6667,41.1667 21,38.5C 24.1984,32.8632 26.5317,26.8632 28,20.5C 32.7779,15.8447 38.1112,15.178 44,18.5C 46.8021,18.6801 48.9687,17.6801 50.5,15.5C 52.8056,15.0074 55.139,14.6741 57.5,14.5 Z"/></g>
<g><path style="opacity:1" fill="#30408e" d="M 46.5,31.5 C 46.3398,33.1992 46.5065,34.8659 47,36.5C 47.8928,35.2888 48.7261,35.2888 49.5,36.5C 48.0508,37.1719 46.7175,37.8386 45.5,38.5C 42.4453,36.1842 41.7786,33.1842 43.5,29.5C 44.3142,31.7662 44.8142,34.0995 45,36.5C 45.1981,34.6183 45.6981,32.9516 46.5,31.5 Z"/></g>
<g><path style="opacity:1" fill="#3c7ce5" d="M 34.5,1.5 C 37.9458,2.6874 41.6125,3.35407 45.5,3.5C 40.3491,4.32669 35.0158,4.82669 29.5,5C 24.7609,6.11903 20.9276,8.61903 18,12.5C 14.3287,22.1826 10.6621,31.8493 7,41.5C 4.1735,45.1554 2.00683,49.1554 0.5,53.5C 0.166667,53.5 -0.166667,53.5 -0.5,53.5C -0.5,52.1667 -0.5,50.8333 -0.5,49.5C 3.58779,45.3244 6.08779,40.3244 7,34.5C 9.94828,26.2535 13.4483,18.2535 17.5,10.5C 22.1401,5.67857 27.8067,2.67857 34.5,1.5 Z"/></g>
<g><path style="opacity:1" fill="#2f56d4" d="M 78.5,21.5 C 81.4278,22.5914 83.5945,24.5914 85,27.5C 84.7446,33.7801 83.5779,39.9468 81.5,46C 81.6301,47.0588 82.1301,47.8921 83,48.5C 83.8518,47.4293 84.6851,46.4293 85.5,45.5C 84.8372,49.837 82.5038,52.837 78.5,54.5C 79.4756,53.1851 80.4756,51.8518 81.5,50.5C 81.1924,49.6919 80.6924,49.0253 80,48.5C 77.5122,50.7433 74.8456,52.7433 72,54.5C 71.6667,58.1667 71.3333,61.8333 71,65.5C 70.7104,67.0441 70.0437,68.3774 69,69.5C 69.162,64.5449 69.4953,59.5449 70,54.5C 73,52.1667 76,49.8333 79,47.5C 80.1498,44.5823 80.9831,41.5823 81.5,38.5C 84.8263,32.128 83.8263,26.4613 78.5,21.5 Z"/></g>
<g><path style="opacity:1" fill="#1a2e8c" d="M 28.5,39.5 C 32.5205,39.2143 35.5205,40.7143 37.5,44C 35.7434,49.4265 32.2434,51.9265 27,51.5C 26.5277,47.3659 27.0277,43.3659 28.5,39.5 Z"/></g>
<g><path style="opacity:1" fill="#a0aed5" d="M 29.5,41.5 C 30.8983,44.3557 30.3983,47.0223 28,49.5C 27.8552,46.7393 28.3552,44.0726 29.5,41.5 Z"/></g>
<g><path style="opacity:1" fill="#2d3176" d="M 63.5,47.5 C 65.5,47.8333 67.5,48.1667 69.5,48.5C 69.5,49.1667 69.1667,49.5 68.5,49.5C 67.0222,49.238 65.6888,49.5713 64.5,50.5C 62.3672,53.3383 61.0338,56.505 60.5,60C 57.4804,60.9011 54.4804,61.7345 51.5,62.5C 51.5,62.1667 51.5,61.8333 51.5,61.5C 51.3359,58.8127 51.5026,56.146 52,53.5C 53.7134,52.1218 55.0467,50.4552 56,48.5C 58.4392,46.5023 60.9392,46.169 63.5,47.5 Z"/></g>
<g><path style="opacity:1" fill="#f1f2f6" d="M 68.5,49.5 C 66.8305,54.5921 65.9972,59.9254 66,65.5C 64.4395,68.7833 62.2728,71.6166 59.5,74C 50.5194,75.1567 41.5194,75.99 32.5,76.5C 24.8444,77.1815 19.8444,73.8481 17.5,66.5C 19.0026,65.9478 20.6693,65.9478 22.5,66.5C 23.287,68.1042 24.6203,68.7709 26.5,68.5C 28.6688,71.068 31.0021,71.068 33.5,68.5C 34.1835,68.8627 34.8501,69.1961 35.5,69.5C 37.1284,70.8528 38.4617,70.5195 39.5,68.5C 39.8333,68.5 40.1667,68.5 40.5,68.5C 41.779,69.7152 42.779,69.3818 43.5,67.5C 43.8333,67.5 44.1667,67.5 44.5,67.5C 44.4346,67.9382 44.6012,68.2716 45,68.5C 46.98,67.2509 48.8133,65.9176 50.5,64.5C 50.8333,63.8333 51.1667,63.1667 51.5,62.5C 54.4804,61.7345 57.4804,60.9011 60.5,60C 61.0338,56.505 62.3672,53.3383 64.5,50.5C 65.6888,49.5713 67.0222,49.238 68.5,49.5 Z"/></g>
<g><path style="opacity:1" fill="#f2f3f8" d="M 63.5,47.5 C 61.7994,50.9247 60.6327,54.5913 60,58.5C 58,59.1667 56,59.8333 54,60.5C 53.3333,58.1667 53.3333,55.8333 54,53.5C 55.6851,51.9825 57.1851,50.3159 58.5,48.5C 60.0709,47.6906 61.7376,47.3573 63.5,47.5 Z"/></g>
<g><path style="opacity:1" fill="#2951d3" d="M 86.5,19.5 C 90.8377,25.1763 93.8377,31.5096 95.5,38.5C 95.5,44.5 95.5,50.5 95.5,56.5C 93.2288,65.2946 88.8954,72.9612 82.5,79.5C 84.9003,74.7968 86.4003,69.7968 87,64.5C 88.6255,61.8723 90.6255,59.539 93,57.5C 93.7805,56.0563 93.6139,54.723 92.5,53.5C 90.2112,56.2912 87.7112,58.9579 85,61.5C 84.0453,71.8106 79.5453,80.3106 71.5,87C 70.8333,87.6667 70.1667,87.6667 69.5,87C 77.5568,80.3866 82.0568,71.8866 83,61.5C 85.9996,59.9573 86.6663,57.9573 85,55.5C 82.9565,57.208 81.2899,59.208 80,61.5C 77.4835,80.3416 66.6502,89.5083 47.5,89C 40.8333,89.3333 34.1667,89.6667 27.5,90C 28.056,90.3826 28.3893,90.8826 28.5,91.5C 24.0243,90.3429 20.3577,88.0095 17.5,84.5C 23.8412,87.9716 30.5079,88.4716 37.5,86C 31.7301,85.5384 26.0635,84.5384 20.5,83C 18.0038,81.669 16.0038,79.8356 14.5,77.5C 14.8333,77.5 15.1667,77.5 15.5,77.5C 21.7194,82.5159 28.8861,84.5159 37,83.5C 45.1799,82.8866 53.3465,82.0533 61.5,81C 63.3049,80.028 64.9716,78.8613 66.5,77.5C 65.9953,76.0815 64.9953,75.4148 63.5,75.5C 65.544,71.4417 67.044,71.775 68,76.5C 72.7773,70.7423 75.1106,64.0756 75,56.5C 75.8159,55.1772 76.9826,54.5106 78.5,54.5C 82.5038,52.837 84.8372,49.837 85.5,45.5C 86.2443,40.6858 86.911,35.8524 87.5,31C 87.3751,28.4494 87.0418,25.9494 86.5,23.5C 86.5,22.8333 86.5,22.1667 86.5,21.5C 86.5,20.8333 86.5,20.1667 86.5,19.5 Z"/></g>
<g><path style="opacity:1" fill="#eef7f8" d="M 18.5,55.5 C 19.625,56.3478 19.625,57.3478 18.5,58.5C 17.375,57.6522 17.375,56.6522 18.5,55.5 Z"/></g>
<g><path style="opacity:0.992" fill="#030207" d="M -0.5,53.5 C -0.166667,53.5 0.166667,53.5 0.5,53.5C 0.0678575,56.8774 0.734524,59.8774 2.5,62.5C 3.43578,67.0382 5.43578,71.0382 8.5,74.5C 10.7946,78.4616 13.7946,81.7949 17.5,84.5C 20.3577,88.0095 24.0243,90.3429 28.5,91.5C 29.391,92.1098 30.391,92.4431 31.5,92.5C 34.1667,93.5 36.8333,94.5 39.5,95.5C 26.1667,95.5 12.8333,95.5 -0.5,95.5C -0.5,81.5 -0.5,67.5 -0.5,53.5 Z"/></g>
<g><path style="opacity:1" fill="#d8e1ed" d="M 21.5,59.5 C 20.5084,59.6716 19.8417,59.3382 19.5,58.5C 22.0233,55.7607 22.6899,56.094 21.5,59.5 Z"/></g>
<g><path style="opacity:1" fill="#e3e9f3" d="M 29.5,61.5 C 28.5,61.5 27.5,61.5 26.5,61.5C 25.6618,61.1583 25.3284,60.4916 25.5,59.5C 28.3686,56.488 29.7019,57.1547 29.5,61.5 Z"/></g>
<g><path style="opacity:1" fill="#98b4de" d="M 15.5,59.5 C 18.0764,59.7218 18.9098,61.0551 18,63.5C 16.9152,62.2644 16.0819,60.9311 15.5,59.5 Z"/></g>
<g><path style="opacity:1" fill="#868bac" d="M 51.5,61.5 C 51.5,61.8333 51.5,62.1667 51.5,62.5C 49.3925,62.2779 47.7258,61.2779 46.5,59.5C 45.6143,60.325 45.281,61.325 45.5,62.5C 44.5,62.5 43.5,62.5 42.5,62.5C 42.2155,64.4147 42.5489,66.0813 43.5,67.5C 42.779,69.3818 41.779,69.7152 40.5,68.5C 40.2865,66.8561 40.6198,65.3561 41.5,64C 40.9341,63.0053 40.2674,62.172 39.5,61.5C 39.1583,60.6618 38.4916,60.3284 37.5,60.5C 37.5,60.1667 37.5,59.8333 37.5,59.5C 41.6344,58.5151 45.9677,58.1818 50.5,58.5C 50.2627,59.791 50.596,60.791 51.5,61.5 Z"/></g>
<g><path style="opacity:1" fill="#f2f4f7" d="M 37.5,60.5 C 38.4916,60.3284 39.1583,60.6618 39.5,61.5C 39.6309,62.3764 39.2975,63.0431 38.5,63.5C 37.6143,62.675 37.281,61.675 37.5,60.5 Z"/></g>
<g><path style="opacity:1" fill="#dce7f4" d="M 21.5,62.5 C 21.5,63.5 21.5,64.5 21.5,65.5C 20.3054,65.1344 19.6387,64.301 19.5,63C 20.0311,61.282 20.6977,61.1153 21.5,62.5 Z"/></g>
<g><path style="opacity:1" fill="#f0f2f8" d="M 26.5,68.5 C 27.242,66.0202 28.242,63.6869 29.5,61.5C 30.1174,61.3893 30.6174,61.056 31,60.5C 31.4974,63.146 31.6641,65.8127 31.5,68.5C 29.8333,68.5 28.1667,68.5 26.5,68.5 Z"/></g>
<g><path style="opacity:1" fill="#222d7a" d="M 51.5,62.5 C 51.1667,63.1667 50.8333,63.8333 50.5,64.5C 48.8706,62.9397 47.704,63.273 47,65.5C 46.2904,64.0267 45.1238,63.3601 43.5,63.5C 43.4326,64.9587 43.7659,66.2921 44.5,67.5C 44.1667,67.5 43.8333,67.5 43.5,67.5C 42.5489,66.0813 42.2155,64.4147 42.5,62.5C 43.5,62.5 44.5,62.5 45.5,62.5C 45.281,61.325 45.6143,60.325 46.5,59.5C 47.7258,61.2779 49.3925,62.2779 51.5,62.5 Z"/></g>
<g><path style="opacity:0.992" fill="#030207" d="M 95.5,56.5 C 95.5,69.5 95.5,82.5 95.5,95.5C 81.5,95.5 67.5,95.5 53.5,95.5C 65.2197,93.9237 74.8864,88.5903 82.5,79.5C 88.8954,72.9612 93.2288,65.2946 95.5,56.5 Z"/></g>
<g><path style="opacity:1" fill="#0640c3" d="M 48.5,12.5 C 49.209,13.404 50.209,13.7373 51.5,13.5C 51.1667,14.1667 50.8333,14.8333 50.5,15.5C 48.1843,16.1599 45.851,16.8266 43.5,17.5C 37.4717,14.3861 31.9717,15.0528 27,19.5C 24.935,26.4477 22.2683,33.1143 19,39.5C 18.2571,41.4406 18.4238,43.2739 19.5,45C 8.99003,55.4404 8.99003,65.9404 19.5,76.5C 20.9746,78.4095 22.9746,79.5762 25.5,80C 29.1667,80.1667 32.8333,80.3333 36.5,80.5C 44.8603,79.9923 53.1937,79.1589 61.5,78C 62.3805,77.2917 63.0472,76.4584 63.5,75.5C 64.9953,75.4148 65.9953,76.0815 66.5,77.5C 64.9716,78.8613 63.3049,80.028 61.5,81C 53.3465,82.0533 45.1799,82.8866 37,83.5C 28.8861,84.5159 21.7194,82.5159 15.5,77.5C 10.0759,70.81 7.90925,63.1434 9,54.5C 10.3557,51.6711 11.8557,49.0045 13.5,46.5C 14.1174,46.3893 14.6174,46.056 15,45.5C 17.6555,37.5163 20.3222,29.5163 23,21.5C 24.0121,18.7982 25.5121,16.4649 27.5,14.5C 30.1,13.6347 32.7666,12.968 35.5,12.5C 39.9473,14.7206 44.2806,14.7206 48.5,12.5 Z"/></g>
<g><path style="opacity:1" fill="#47559e" d="M 26.5,61.5 C 27.5,61.5 28.5,61.5 29.5,61.5C 28.242,63.6869 27.242,66.0202 26.5,68.5C 24.6203,68.7709 23.287,68.1042 22.5,66.5C 22.5,65.8333 22.1667,65.5 21.5,65.5C 21.5,64.5 21.5,63.5 21.5,62.5C 21.8333,62.5 22.1667,62.5 22.5,62.5C 23.9704,67.7572 25.3037,67.7572 26.5,62.5C 26.5,62.1667 26.5,61.8333 26.5,61.5 Z"/></g>
<g><path style="opacity:1" fill="#f1f4f9" d="M 22.5,62.5 C 23.8333,62.5 25.1667,62.5 26.5,62.5C 25.3037,67.7572 23.9704,67.7572 22.5,62.5 Z"/></g>
<g><path style="opacity:1" fill="#39428d" d="M 18.5,55.5 C 18.5,55.1667 18.5,54.8333 18.5,54.5C 25.0162,55.5766 31.3495,57.2433 37.5,59.5C 37.5,59.8333 37.5,60.1667 37.5,60.5C 37.281,61.675 37.6143,62.675 38.5,63.5C 39.2975,63.0431 39.6309,62.3764 39.5,61.5C 40.2674,62.172 40.9341,63.0053 41.5,64C 40.6198,65.3561 40.2865,66.8561 40.5,68.5C 40.1667,68.5 39.8333,68.5 39.5,68.5C 39.1667,68.5 38.8333,68.5 38.5,68.5C 38.5,67.5 38.5,66.5 38.5,65.5C 37.5,65.5 36.5,65.5 35.5,65.5C 35.5,66.5 35.5,67.5 35.5,68.5C 35.5,68.8333 35.5,69.1667 35.5,69.5C 34.8501,69.1961 34.1835,68.8627 33.5,68.5C 31.0021,71.068 28.6688,71.068 26.5,68.5C 28.1667,68.5 29.8333,68.5 31.5,68.5C 31.6641,65.8127 31.4974,63.146 31,60.5C 30.6174,61.056 30.1174,61.3893 29.5,61.5C 29.7019,57.1547 28.3686,56.488 25.5,59.5C 24.1403,56.9845 23.1403,57.3178 22.5,60.5C 21.8333,60.5 21.5,60.1667 21.5,59.5C 22.6899,56.094 22.0233,55.7607 19.5,58.5C 19.1667,58.5 18.8333,58.5 18.5,58.5C 19.625,57.3478 19.625,56.3478 18.5,55.5 Z"/></g>
<g><path style="opacity:1" fill="#dae2ed" d="M 33.5,59.5 C 35.9882,61.5734 35.9882,63.9067 33.5,66.5C 32.2857,64.1413 32.2857,61.808 33.5,59.5 Z"/></g>
<g><path style="opacity:1" fill="#ebeef5" d="M 25.5,59.5 C 24.609,60.1098 23.609,60.4431 22.5,60.5C 23.1403,57.3178 24.1403,56.9845 25.5,59.5 Z"/></g>
<g><path style="opacity:1" fill="#f9fcfc" d="M 38.5,68.5 C 37.5,68.5 36.5,68.5 35.5,68.5C 35.5,67.5 35.5,66.5 35.5,65.5C 36.5,65.5 37.5,65.5 38.5,65.5C 38.5,66.5 38.5,67.5 38.5,68.5 Z"/></g>
<g><path style="opacity:1" fill="#8086ab" d="M 50.5,64.5 C 48.8133,65.9176 46.98,67.2509 45,68.5C 44.6012,68.2716 44.4346,67.9382 44.5,67.5C 43.7659,66.2921 43.4326,64.9587 43.5,63.5C 45.1238,63.3601 46.2904,64.0267 47,65.5C 47.704,63.273 48.8706,62.9397 50.5,64.5 Z"/></g>
<g><path style="opacity:1" fill="#697197" d="M 35.5,68.5 C 36.5,68.5 37.5,68.5 38.5,68.5C 38.8333,68.5 39.1667,68.5 39.5,68.5C 38.4617,70.5195 37.1284,70.8528 35.5,69.5C 35.5,69.1667 35.5,68.8333 35.5,68.5 Z"/></g>
<g><path style="opacity:1" fill="#0847d7" d="M 70.5,5.5 C 76.7983,9.13599 82.1316,13.8027 86.5,19.5C 86.5,20.1667 86.5,20.8333 86.5,21.5C 83.0359,18.5375 79.7025,15.3709 76.5,12C 74.7254,10.5611 72.7254,9.56106 70.5,9C 64.5,8.33333 58.5,8.33333 52.5,9C 49.7022,10.734 46.7022,11.9007 43.5,12.5C 39.1907,11.5353 34.8574,11.3687 30.5,12C 29.0577,12.3768 28.0577,13.2101 27.5,14.5C 24.909,15.2543 23.0757,16.921 22,19.5C 20.7786,25.9735 18.4453,31.9735 15,37.5C 14.6371,40.544 14.1371,43.544 13.5,46.5C 6.71929,51.6896 4.88595,58.3563 8,66.5C 9.68914,70.5599 11.8558,74.2266 14.5,77.5C 16.0038,79.8356 18.0038,81.669 20.5,83C 26.0635,84.5384 31.7301,85.5384 37.5,86C 30.5079,88.4716 23.8412,87.9716 17.5,84.5C 13.7946,81.7949 10.7946,78.4616 8.5,74.5C 4.7431,67.6433 3.57643,60.31 5,52.5C 6.75192,49.328 8.75192,46.328 11,43.5C 11.2725,38.6231 12.9391,34.2898 16,30.5C 17.6065,13.3775 26.7731,6.37746 43.5,9.5C 52.0911,5.97697 61.0911,4.64364 70.5,5.5 Z"/></g>
<g><path style="opacity:1" fill="#4370d9" d="M 78.5,21.5 C 76.1956,19.3737 73.6956,17.3737 71,15.5C 66.5536,14.5879 62.0536,14.2546 57.5,14.5C 55.139,14.6741 52.8056,15.0074 50.5,15.5C 50.8333,14.8333 51.1667,14.1667 51.5,13.5C 57.4632,12.4696 63.4632,12.3029 69.5,13C 73.6791,14.6814 76.6791,17.5147 78.5,21.5 Z"/></g>
<g><path style="opacity:1" fill="#0c38aa" d="M 79.5,35.5 C 79.3433,36.8734 79.51,38.2068 80,39.5C 80.3826,38.944 80.8826,38.6107 81.5,38.5C 80.9831,41.5823 80.1498,44.5823 79,47.5C 76,49.8333 73,52.1667 70,54.5C 69.4953,59.5449 69.162,64.5449 69,69.5C 70.0437,68.3774 70.7104,67.0441 71,65.5C 71.3333,61.8333 71.6667,58.1667 72,54.5C 74.8456,52.7433 77.5122,50.7433 80,48.5C 80.6924,49.0253 81.1924,49.6919 81.5,50.5C 80.4756,51.8518 79.4756,53.1851 78.5,54.5C 76.9826,54.5106 75.8159,55.1772 75,56.5C 75.1106,64.0756 72.7773,70.7423 68,76.5C 67.044,71.775 65.544,71.4417 63.5,75.5C 57.7062,77.1573 51.7062,78.1573 45.5,78.5C 41.1667,77.8333 36.8333,77.1667 32.5,76.5C 41.5194,75.99 50.5194,75.1567 59.5,74C 62.2728,71.6166 64.4395,68.7833 66,65.5C 65.9972,59.9254 66.8305,54.5921 68.5,49.5C 69.1667,49.5 69.5,49.1667 69.5,48.5C 70.3382,48.1583 70.6716,47.4916 70.5,46.5C 72.6109,47.9681 74.4443,47.6348 76,45.5C 77.6923,42.2239 78.859,38.8905 79.5,35.5 Z"/></g>
<g><path style="opacity:1" fill="#0a45d0" d="M 82.5,79.5 C 74.8864,88.5903 65.2197,93.9237 53.5,95.5C 50.1667,95.5 46.8333,95.5 43.5,95.5C 46.2102,93.8916 49.2102,92.7249 52.5,92C 56.6192,91.8568 60.6192,91.1901 64.5,90C 53.5383,90.9858 42.5383,91.8191 31.5,92.5C 30.391,92.4431 29.391,92.1098 28.5,91.5C 28.3893,90.8826 28.056,90.3826 27.5,90C 34.1667,89.6667 40.8333,89.3333 47.5,89C 66.6502,89.5083 77.4835,80.3416 80,61.5C 81.2899,59.208 82.9565,57.208 85,55.5C 86.6663,57.9573 85.9996,59.9573 83,61.5C 82.0568,71.8866 77.5568,80.3866 69.5,87C 70.1667,87.6667 70.8333,87.6667 71.5,87C 79.5453,80.3106 84.0453,71.8106 85,61.5C 87.7112,58.9579 90.2112,56.2912 92.5,53.5C 93.6139,54.723 93.7805,56.0563 93,57.5C 90.6255,59.539 88.6255,61.8723 87,64.5C 86.4003,69.7968 84.9003,74.7968 82.5,79.5 Z"/></g>
<g><path style="opacity:1" fill="#4072d7" d="M 50.5,15.5 C 48.9687,17.6801 46.8021,18.6801 44,18.5C 38.1112,15.178 32.7779,15.8447 28,20.5C 26.5317,26.8632 24.1984,32.8632 21,38.5C 20.6667,41.1667 20.3333,43.8333 20,46.5C 16.2461,49.9192 13.7461,54.0859 12.5,59C 13.6127,65.0542 15.946,70.5542 19.5,75.5C 19.5,75.8333 19.5,76.1667 19.5,76.5C 8.99003,65.9404 8.99003,55.4404 19.5,45C 18.4238,43.2739 18.2571,41.4406 19,39.5C 22.2683,33.1143 24.935,26.4477 27,19.5C 31.9717,15.0528 37.4717,14.3861 43.5,17.5C 45.851,16.8266 48.1843,16.1599 50.5,15.5 Z"/></g>
<g><path style="opacity:1" fill="#4872db" d="M 13.5,46.5 C 11.8557,49.0045 10.3557,51.6711 9,54.5C 7.90925,63.1434 10.0759,70.81 15.5,77.5C 15.1667,77.5 14.8333,77.5 14.5,77.5C 11.8558,74.2266 9.68914,70.5599 8,66.5C 4.88595,58.3563 6.71929,51.6896 13.5,46.5 Z"/></g>
<g><path style="opacity:1" fill="#355bd0" d="M 19.5,75.5 C 20.6828,76.5045 22.0161,77.3378 23.5,78C 30.967,79.5384 38.3004,79.7051 45.5,78.5C 51.7062,78.1573 57.7062,77.1573 63.5,75.5C 63.0472,76.4584 62.3805,77.2917 61.5,78C 53.1937,79.1589 44.8603,79.9923 36.5,80.5C 32.8333,80.3333 29.1667,80.1667 25.5,80C 22.9746,79.5762 20.9746,78.4095 19.5,76.5C 19.5,76.1667 19.5,75.8333 19.5,75.5 Z"/></g>
<g><path style="opacity:1" fill="#3e5ed2" d="M 43.5,95.5 C 42.1667,95.5 40.8333,95.5 39.5,95.5C 36.8333,94.5 34.1667,93.5 31.5,92.5C 42.5383,91.8191 53.5383,90.9858 64.5,90C 60.6192,91.1901 56.6192,91.8568 52.5,92C 49.2102,92.7249 46.2102,93.8916 43.5,95.5 Z"/></g>
</svg>
