<?xml version="1.0" encoding="UTF-8"?>
<!DOCTYPE svg PUBLIC "-//W3C//DTD SVG 1.1//EN" "http://www.w3.org/Graphics/SVG/1.1/DTD/svg11.dtd">
<svg xmlns="http://www.w3.org/2000/svg" version="1.1" width="96px" height="96px" style="shape-rendering:geometricPrecision; text-rendering:geometricPrecision; image-rendering:optimizeQuality; fill-rule:evenodd; clip-rule:evenodd" xmlns:xlink="http://www.w3.org/1999/xlink">
<g><path style="opacity:0.972" fill="#fefefd" d="M 37.5,-0.5 C 44.1667,-0.5 50.8333,-0.5 57.5,-0.5C 77.193,5.193 89.8597,17.8597 95.5,37.5C 95.5,44.1667 95.5,50.8333 95.5,57.5C 89.9514,76.7159 77.6181,89.3826 58.5,95.5C 51.5,95.5 44.5,95.5 37.5,95.5C 17.8333,89.8333 5.16667,77.1667 -0.5,57.5C -0.5,50.8333 -0.5,44.1667 -0.5,37.5C 5.16667,17.8333 17.8333,5.16667 37.5,-0.5 Z"/></g>
<g><path style="opacity:1" fill="#81e760" d="M 26.5,72.5 C 25.5448,74.7457 24.8782,77.079 24.5,79.5C 23.1779,79.67 22.0113,79.3366 21,78.5C 20.7088,76.217 21.2088,74.0503 22.5,72C 20.3443,68.5751 18.6776,64.9085 17.5,61C 18.2389,55.3185 19.0722,49.4852 20,43.5C 20.9653,41.7397 22.132,41.4063 23.5,42.5C 24.7028,45.9987 26.2028,49.332 28,52.5C 28.0821,47.2714 28.2488,41.9381 28.5,36.5C 29.8221,36.33 30.9887,36.6634 32,37.5C 33.6916,40.6438 34.8582,43.9771 35.5,47.5C 36.8563,42.8864 38.5229,38.3864 40.5,34C 42.807,33.7287 43.9736,34.8953 44,37.5C 44.0361,34.0664 45.5361,31.7331 48.5,30.5C 49.6473,30.8178 50.4806,31.4844 51,32.5C 51.7065,30.9194 52.5399,29.4194 53.5,28C 54.7839,27.3162 55.9505,27.4829 57,28.5C 57.956,27.4214 58.7894,26.2547 59.5,25C 63.6413,23.4284 67.308,21.0951 70.5,18C 72.6504,16.5886 74.9837,15.7553 77.5,15.5C 77.6567,16.8734 77.49,18.2068 77,19.5C 73.9175,22.9081 71.2508,26.5748 69,30.5C 67.786,32.0488 66.286,33.2155 64.5,34C 67.1291,36.7892 66.4625,38.7892 62.5,40C 65.1047,40.0264 66.2713,41.193 66,43.5C 63.955,44.8869 61.7883,46.0536 59.5,47C 61.6515,47.2649 63.3181,48.2649 64.5,50C 64.3552,50.772 64.0219,51.4387 63.5,52C 61.7444,52.2022 60.0777,52.7022 58.5,53.5C 60.7427,54.4742 63.076,54.8076 65.5,54.5C 65.67,55.8221 65.3366,56.9887 64.5,58C 60.7158,59.9469 56.7158,61.2802 52.5,62C 51.6433,62.6891 50.9767,63.5224 50.5,64.5C 55.2683,65.4724 59.935,66.639 64.5,68C 67.2337,68.7183 67.9004,70.2183 66.5,72.5C 61.6815,73.1938 56.8481,73.8605 52,74.5C 50.2367,74.0245 48.57,73.3578 47,72.5C 45.3974,76.0847 43.2307,76.418 40.5,73.5C 40.0941,74.5575 40.0941,75.8908 40.5,77.5C 35.978,75.5877 31.3113,73.921 26.5,72.5 Z"/></g>
<g><path style="opacity:1" fill="#f6fdf3" d="M 26.5,72.5 C 25.8333,72.8333 25.1667,73.1667 24.5,73.5C 23.8736,70.6851 22.5402,68.1851 20.5,66C 22.4174,66.0275 24.084,66.8608 25.5,68.5C 25.8333,68.1667 26.1667,67.8333 26.5,67.5C 23.9401,65.7267 21.6068,63.7267 19.5,61.5C 21.1132,61.0321 22.6132,61.6987 24,63.5C 24.1667,63.1667 24.3333,62.8333 24.5,62.5C 23.1667,60.8333 21.8333,59.1667 20.5,57.5C 20.5849,53.6096 20.7516,49.6096 21,45.5C 21.3173,43.6992 21.984,43.3659 23,44.5C 23.1335,47.5251 24.1335,50.1918 26,52.5C 26.5946,53.8989 26.4279,55.2322 25.5,56.5C 25.8457,57.6956 26.3457,57.6956 27,56.5C 27.6838,57.7839 27.5171,58.9505 26.5,60C 27.3081,60.3076 27.9747,60.8076 28.5,61.5C 27.5153,63.0983 27.3486,64.765 28,66.5C 29.6821,63.971 31.1821,61.3043 32.5,58.5C 31.5,57.1667 30.5,55.8333 29.5,54.5C 30.1667,53.8333 30.8333,53.1667 31.5,52.5C 29.2973,48.0576 28.964,43.391 30.5,38.5C 31.4274,40.1128 32.2607,41.7795 33,43.5C 33.6021,47.8829 34.4354,52.2163 35.5,56.5C 38.5223,53.7119 39.189,50.3786 37.5,46.5C 38.2318,42.6508 39.3985,38.9841 41,35.5C 42.351,39.7707 42.851,44.104 42.5,48.5C 44.1672,42.85 46.0005,37.1833 48,31.5C 48.3333,34.8333 48.6667,38.1667 49,41.5C 51.1263,37.6152 52.9596,33.6152 54.5,29.5C 55.2811,30.7287 55.7811,32.062 56,33.5C 57.5,31.1667 59,28.8333 60.5,26.5C 61.086,26.7093 61.586,27.0426 62,27.5C 65.2008,23.6384 69.0341,20.4718 73.5,18C 74.3317,17.3123 74.9984,17.479 75.5,18.5C 72.443,22.3824 69.6097,26.3824 67,30.5C 64.8333,32 62.6667,33.5 60.5,35C 61.938,35.2189 63.2713,35.7189 64.5,36.5C 60.6092,38.6127 56.6092,40.446 52.5,42C 54.8344,42.3392 57.1678,42.1725 59.5,41.5C 61.299,41.577 62.9656,42.077 64.5,43C 59.3089,44.839 53.9756,46.1723 48.5,47C 47.5,47.8333 46.5,48.6667 45.5,49.5C 45.8333,49.8333 46.1667,50.1667 46.5,50.5C 52.1398,48.2003 57.8064,48.0336 63.5,50C 59.2746,51.5794 54.9413,52.7461 50.5,53.5C 49.6744,54.451 49.5078,55.451 50,56.5C 51.1939,55.5697 52.5272,54.9031 54,54.5C 57.1868,55.0446 60.3535,55.7113 63.5,56.5C 59.4518,58.4805 55.1185,59.6472 50.5,60C 51.7059,61.0177 51.3726,61.5177 49.5,61.5C 47.1251,60.4174 44.7917,60.4174 42.5,61.5C 42.8333,62.1667 43.1667,62.8333 43.5,63.5C 42.2634,64.2807 41.2634,65.2807 40.5,66.5C 40.8333,66.8333 41.1667,67.1667 41.5,67.5C 43.059,66.5535 44.7257,65.8868 46.5,65.5C 53.3566,66.8637 60.0233,68.697 66.5,71C 61.295,71.2405 56.1283,71.7405 51,72.5C 48.8044,71.9097 46.6378,71.2431 44.5,70.5C 44.3309,71.3966 43.9976,72.3966 43.5,73.5C 41.1909,72.3492 39.0242,71.0159 37,69.5C 36.5,69.6667 36,69.8333 35.5,70C 37.5628,71.5716 38.2294,73.405 37.5,75.5C 34.172,72.578 30.5053,71.578 26.5,72.5 Z"/></g>
<g><path style="opacity:1" fill="#85e866" d="M 44.5,53.5 C 45.675,53.281 46.675,53.6143 47.5,54.5C 44.5662,57.3246 41.2328,58.3246 37.5,57.5C 37.9767,56.5224 38.6433,55.6891 39.5,55C 41.3817,54.8019 43.0484,54.3019 44.5,53.5 Z"/></g>
<g><path style="opacity:1" fill="#8be96d" d="M 34.5,60.5 C 41.762,61.8885 42.0953,64.0551 35.5,67C 33.597,67.7737 31.9304,67.4404 30.5,66C 32.0261,64.1129 34.0261,63.1129 36.5,63C 35.244,62.5831 34.5774,61.7498 34.5,60.5 Z"/></g>
<g><path style="opacity:1" fill="#7ce65c" d="M 28.5,68.5 C 31.1662,68.0658 32.3329,69.0658 32,71.5C 30.2714,71.0257 29.1047,70.0257 28.5,68.5 Z"/></g>
<g><path style="opacity:1" fill="#f3fdf0" d="M 24.5,73.5 C 24.4784,75.8004 23.4784,76.967 21.5,77C 22.1634,75.4815 23.1634,74.3149 24.5,73.5 Z"/></g>
</svg>
