<?xml version="1.0" encoding="UTF-8"?>
<!DOCTYPE svg PUBLIC "-//W3C//DTD SVG 1.1//EN" "http://www.w3.org/Graphics/SVG/1.1/DTD/svg11.dtd">
<svg xmlns="http://www.w3.org/2000/svg" version="1.1" width="96px" height="96px" style="shape-rendering:geometricPrecision; text-rendering:geometricPrecision; image-rendering:optimizeQuality; fill-rule:evenodd; clip-rule:evenodd" xmlns:xlink="http://www.w3.org/1999/xlink">
<g><path style="opacity:0.989" fill="#eb1a1a" d="M 36.5,-0.5 C 43.5,-0.5 50.5,-0.5 57.5,-0.5C 77.1667,5.16667 89.8333,17.8333 95.5,37.5C 95.5,44.5 95.5,51.5 95.5,58.5C 90.5072,74.4904 80.5072,86.157 65.5,93.5C 62.9327,93.7215 60.5994,94.3882 58.5,95.5C 51.1667,95.5 43.8333,95.5 36.5,95.5C 17.4913,89.8246 5.15795,77.4913 -0.5,58.5C -0.5,51.1667 -0.5,43.8333 -0.5,36.5C 4.43201,20.5625 14.432,8.89579 29.5,1.5C 32.0673,1.27852 34.4006,0.611848 36.5,-0.5 Z M 60.5,84.5 C 76.8668,74.0634 80.8668,60.0634 72.5,42.5C 71.9984,41.479 71.3317,41.3123 70.5,42C 64.621,52.2621 58.121,62.0955 51,71.5C 49.8373,76.7624 50.6706,81.5957 53.5,86C 51.7818,86.346 50.1151,86.846 48.5,87.5C 45.6938,81.6404 45.1938,75.6404 47,69.5C 51.6153,62.5505 56.6153,55.8838 62,49.5C 69.949,28.8973 63.449,15.064 42.5,8C 63.9896,7.48459 78.4896,17.3179 86,37.5C 90.033,60.1078 81.533,75.7745 60.5,84.5 Z M 31.5,83.5 C 10.2664,71.9826 3.43311,54.6493 11,31.5C 16.5971,20.7318 25.0971,13.3985 36.5,9.5C 38.6357,10.4228 39.8024,12.0895 40,14.5C 40.8098,19.2574 40.4764,23.9241 39,28.5C 34.4093,35.0947 29.076,41.0947 23,46.5C 15.9572,55.7374 15.9572,65.0707 23,74.5C 25.3622,78.0266 28.1955,81.0266 31.5,83.5 Z"/></g>
<g><path style="opacity:0.004" fill="#800000" d="M 29.5,1.5 C 28.8333,0.166667 28.8333,0.166667 29.5,1.5 Z"/></g>
<g><path style="opacity:0.004" fill="#ea0000" d="M 65.5,93.5 C 66.8333,94.1667 66.8333,94.1667 65.5,93.5 Z"/></g>
</svg>
