<?xml version="1.0" encoding="UTF-8"?>
<!DOCTYPE svg PUBLIC "-//W3C//DTD SVG 1.1//EN" "http://www.w3.org/Graphics/SVG/1.1/DTD/svg11.dtd">
<svg xmlns="http://www.w3.org/2000/svg" version="1.1" width="96px" height="96px" style="shape-rendering:geometricPrecision; text-rendering:geometricPrecision; image-rendering:optimizeQuality; fill-rule:evenodd; clip-rule:evenodd" xmlns:xlink="http://www.w3.org/1999/xlink">
<g><path style="opacity:0.975" fill="#ed4368" d="M 37.5,-0.5 C 44.1667,-0.5 50.8333,-0.5 57.5,-0.5C 67.5892,1.89869 76.2559,6.89869 83.5,14.5C 71.5629,17.6346 60.8962,23.1346 51.5,31C 52.7875,32.4095 53.9542,33.9095 55,35.5C 63.0227,28.1538 72.3561,23.1538 83,20.5C 84.5589,21.0294 86.0589,21.696 87.5,22.5C 89.038,28.4816 88.2047,34.1482 85,39.5C 82.3943,44.4352 79.3943,49.1019 76,53.5C 74.9609,54.7101 73.7942,55.7101 72.5,56.5C 67.4739,51.8053 62.4739,47.1387 57.5,42.5C 57.1667,42.5 56.8333,42.5 56.5,42.5C 56.631,41.7611 56.4643,41.0944 56,40.5C 52.2499,36.9059 48.4166,33.5725 44.5,30.5C 44.5,30.1667 44.5,29.8333 44.5,29.5C 37.1667,21.8333 29.8333,14.1667 22.5,6.5C 27.1185,3.35754 32.1185,1.02421 37.5,-0.5 Z"/></g>
<g><path style="opacity:0.962" fill="#ee4765" d="M 22.5,6.5 C 29.8333,14.1667 37.1667,21.8333 44.5,29.5C 43.5,29.5 42.5,29.5 41.5,29.5C 33.8578,22.8586 26.5245,15.8586 19.5,8.5C 19.9731,7.09368 20.9731,6.42702 22.5,6.5 Z"/></g>
<g><path style="opacity:0.994" fill="#ed4d63" d="M 19.5,8.5 C 26.5245,15.8586 33.8578,22.8586 41.5,29.5C 41.7373,30.791 41.404,31.791 40.5,32.5C 32.2203,25.5572 24.2203,18.2238 16.5,10.5C 16.9731,9.09368 17.9731,8.42702 19.5,8.5 Z"/></g>
<g><path style="opacity:0.92" fill="#ee5360" d="M 16.5,10.5 C 24.2203,18.2238 32.2203,25.5572 40.5,32.5C 40.7845,34.4147 40.4511,36.0813 39.5,37.5C 38.7777,36.4489 37.7777,35.7822 36.5,35.5C 35.2427,32.5726 33.2427,30.2393 30.5,28.5C 30.3144,24.6473 28.3144,22.9807 24.5,23.5C 22.1667,19.1667 18.8333,15.8333 14.5,13.5C 14.1667,13.5 13.8333,13.5 13.5,13.5C 14.1667,12.1667 15.1667,11.1667 16.5,10.5 Z"/></g>
<g><path style="opacity:0.974" fill="#ee5c5c" d="M 13.5,13.5 C 13.8333,13.5 14.1667,13.5 14.5,13.5C 16.7867,17.1219 19.4534,20.4552 22.5,23.5C 22.5,24.1667 22.1667,24.5 21.5,24.5C 18.5,21.1667 15.5,17.8333 12.5,14.5C 12.5,13.8333 12.8333,13.5 13.5,13.5 Z"/></g>
<g><path style="opacity:0.963" fill="#ef595e" d="M 14.5,13.5 C 18.8333,15.8333 22.1667,19.1667 24.5,23.5C 23.8333,23.5 23.1667,23.5 22.5,23.5C 19.4534,20.4552 16.7867,17.1219 14.5,13.5 Z"/></g>
<g><path style="opacity:0.933" fill="#ef605a" d="M 12.5,14.5 C 15.5,17.8333 18.5,21.1667 21.5,24.5C 21.6716,25.4916 21.3382,26.1583 20.5,26.5C 16.8333,23.5 13.5,20.1667 10.5,16.5C 10.8333,15.5 11.5,14.8333 12.5,14.5 Z"/></g>
<g><path style="opacity:0.877" fill="#ee6658" d="M 10.5,16.5 C 13.5,20.1667 16.8333,23.5 20.5,26.5C 20.8333,27.8333 21.1667,29.1667 21.5,30.5C 20.609,29.8902 19.609,29.5569 18.5,29.5C 17.1667,28.8333 16.1667,27.8333 15.5,26.5C 14.1667,23.1667 11.8333,20.8333 8.5,19.5C 8.42702,17.9731 9.09368,16.9731 10.5,16.5 Z"/></g>
<g><path style="opacity:0.967" fill="#ef6d55" d="M 8.5,19.5 C 10.5,22.1667 12.8333,24.5 15.5,26.5C 16.1667,27.8333 17.1667,28.8333 18.5,29.5C 19.5,31.1667 20.8333,32.5 22.5,33.5C 23.5846,35.5869 25.2512,36.9202 27.5,37.5C 27.5,37.8333 27.5,38.1667 27.5,38.5C 28.5,39.8333 29.5,41.1667 30.5,42.5C 29.5084,42.3284 28.8417,42.6618 28.5,43.5C 21.2136,36.5492 13.8803,29.5492 6.5,22.5C 6.42702,20.9731 7.09368,19.9731 8.5,19.5 Z"/></g>
<g><path style="opacity:1" fill="#ef6956" d="M 8.5,19.5 C 11.8333,20.8333 14.1667,23.1667 15.5,26.5C 12.8333,24.5 10.5,22.1667 8.5,19.5 Z"/></g>
<g><path style="opacity:0.945" fill="#ef7352" d="M 6.5,22.5 C 13.8803,29.5492 21.2136,36.5492 28.5,43.5C 28.5,45.5 29.5,46.5 31.5,46.5C 34.1667,49.8333 37.1667,52.8333 40.5,55.5C 41.2341,56.7079 41.5674,58.0413 41.5,59.5C 42.5,59.5 43.5,59.5 44.5,59.5C 48.5,63.8333 52.5,68.1667 56.5,72.5C 56.1667,73.5 55.5,74.1667 54.5,74.5C 39.3141,58.8143 23.9808,43.3143 8.5,28C 7.01608,27.3378 5.68275,26.5045 4.5,25.5C 4.93205,24.2905 5.59872,23.2905 6.5,22.5 Z"/></g>
<g><path style="opacity:0.965" fill="#f0794f" d="M 4.5,25.5 C 5.68275,26.5045 7.01608,27.3378 8.5,28C 23.9808,43.3143 39.3141,58.8143 54.5,74.5C 54.1667,75.5 53.5,76.1667 52.5,76.5C 45.8604,70.5271 39.5271,64.1937 33.5,57.5C 32.4154,55.4131 30.7488,54.0798 28.5,53.5C 20.1391,44.8068 11.8057,36.1401 3.5,27.5C 3.32842,26.5084 3.66175,25.8417 4.5,25.5 Z"/></g>
<g><path style="opacity:0.982" fill="#ef804c" d="M 3.5,27.5 C 11.8057,36.1401 20.1391,44.8068 28.5,53.5C 28.6716,54.4916 28.3382,55.1583 27.5,55.5C 18.1877,48.1877 9.8544,39.8544 2.5,30.5C 2.55688,29.391 2.89022,28.391 3.5,27.5 Z"/></g>
<g><path style="opacity:0.921" fill="#ef585e" d="M 30.5,28.5 C 33.2427,30.2393 35.2427,32.5726 36.5,35.5C 34.0199,34.0883 31.6866,32.4216 29.5,30.5C 29.3284,29.5084 29.6618,28.8417 30.5,28.5 Z"/></g>
<g><path style="opacity:0.955" fill="#ef6956" d="M 18.5,29.5 C 19.609,29.5569 20.609,29.8902 21.5,30.5C 22.1667,30.5 22.5,30.8333 22.5,31.5C 22.5,32.1667 22.5,32.8333 22.5,33.5C 20.8333,32.5 19.5,31.1667 18.5,29.5 Z"/></g>
<g><path style="opacity:0.955" fill="#ee5b5d" d="M 28.5,31.5 C 28.5,30.8333 28.8333,30.5 29.5,30.5C 31.6866,32.4216 34.0199,34.0883 36.5,35.5C 37.7777,35.7822 38.7777,36.4489 39.5,37.5C 39.573,39.0269 38.9063,40.0269 37.5,40.5C 34.8333,37.1667 31.8333,34.1667 28.5,31.5 Z"/></g>
<g><path style="opacity:0.948" fill="#ed4765" d="M 44.5,30.5 C 48.4166,33.5725 52.2499,36.9059 56,40.5C 56.4643,41.0944 56.631,41.7611 56.5,42.5C 54.7085,42.634 53.0418,42.3007 51.5,41.5C 49.8385,38.8413 47.8385,36.508 45.5,34.5C 44.7659,33.2921 44.4326,31.9587 44.5,30.5 Z"/></g>
<g><path style="opacity:0.88" fill="#ee6558" d="M 22.5,31.5 C 23.7079,32.2341 25.0413,32.5674 26.5,32.5C 29.1938,35.8605 32.1938,38.8605 35.5,41.5C 34.391,41.5569 33.391,41.8902 32.5,42.5C 31.4154,40.4131 29.7488,39.0798 27.5,38.5C 27.5,38.1667 27.5,37.8333 27.5,37.5C 26.4154,35.4131 24.7488,34.0798 22.5,33.5C 22.5,32.8333 22.5,32.1667 22.5,31.5 Z"/></g>
<g><path style="opacity:0.943" fill="#ee605a" d="M 28.5,31.5 C 31.8333,34.1667 34.8333,37.1667 37.5,40.5C 36.8333,40.8333 36.1667,41.1667 35.5,41.5C 32.1938,38.8605 29.1938,35.8605 26.5,32.5C 27.1667,32.1667 27.8333,31.8333 28.5,31.5 Z"/></g>
<g><path style="opacity:0.999" fill="#f08649" d="M 2.5,30.5 C 9.8544,39.8544 18.1877,48.1877 27.5,55.5C 27.0679,56.7095 26.4013,57.7095 25.5,58.5C 17.1667,50.5 8.83333,42.5 0.5,34.5C 0.988689,33.0048 1.65536,31.6715 2.5,30.5 Z"/></g>
<g><path style="opacity:1" fill="#ef6956" d="M 22.5,33.5 C 24.7488,34.0798 26.4154,35.4131 27.5,37.5C 25.2512,36.9202 23.5846,35.5869 22.5,33.5 Z"/></g>
<g><path style="opacity:0.949" fill="#f08c47" d="M 0.5,34.5 C 8.83333,42.5 17.1667,50.5 25.5,58.5C 20.0755,66.2975 16.7422,74.6308 15.5,83.5C 7.67989,76.6953 2.34656,68.362 -0.5,58.5C -0.5,51.5 -0.5,44.5 -0.5,37.5C 0.403972,36.791 0.737305,35.791 0.5,34.5 Z"/></g>
<g><path style="opacity:0.955" fill="#ed4368" d="M 95.5,36.5 C 95.5,43.8333 95.5,51.1667 95.5,58.5C 93.7863,64.3064 91.1196,69.6397 87.5,74.5C 83.8333,70.1667 79.8333,66.1667 75.5,62.5C 83.0978,53.8858 89.0978,44.2191 93.5,33.5C 94.1757,34.6016 94.8423,35.6016 95.5,36.5 Z"/></g>
<g><path style="opacity:0.719" fill="#ed4d64" d="M 45.5,34.5 C 47.8385,36.508 49.8385,38.8413 51.5,41.5C 47.4271,41.0536 45.4271,38.7202 45.5,34.5 Z"/></g>
<g><path style="opacity:1" fill="#ee6956" d="M 27.5,38.5 C 29.7488,39.0798 31.4154,40.4131 32.5,42.5C 31.8333,42.5 31.1667,42.5 30.5,42.5C 29.5,41.1667 28.5,39.8333 27.5,38.5 Z"/></g>
<g><path style="opacity:0.925" fill="#ee4766" d="M 57.5,42.5 C 62.4739,47.1387 67.4739,51.8053 72.5,56.5C 72.0679,57.7095 71.4013,58.7095 70.5,59.5C 66.1449,54.8131 61.8115,50.1464 57.5,45.5C 57.5,44.5 57.5,43.5 57.5,42.5 Z"/></g>
<g><path style="opacity:0.813" fill="#ef6d54" d="M 31.5,46.5 C 37.5,46.5 40.5,49.5 40.5,55.5C 37.1667,52.8333 34.1667,49.8333 31.5,46.5 Z"/></g>
<g><path style="opacity:0.937" fill="#ee5360" d="M 53.5,46.5 C 58.1667,51.8333 63.1667,56.8333 68.5,61.5C 68.1667,62.5 67.5,63.1667 66.5,63.5C 63.1233,60.7794 59.79,58.1128 56.5,55.5C 54.9092,52.5691 52.9092,49.9024 50.5,47.5C 51.209,46.596 52.209,46.2627 53.5,46.5 Z"/></g>
<g><path style="opacity:0.963" fill="#ed4d63" d="M 57.5,45.5 C 61.8115,50.1464 66.1449,54.8131 70.5,59.5C 70.1667,60.5 69.5,61.1667 68.5,61.5C 63.1667,56.8333 58.1667,51.8333 53.5,46.5C 54.8333,46.1667 56.1667,45.8333 57.5,45.5 Z"/></g>
<g><path style="opacity:0.948" fill="#ef595e" d="M 48.5,48.5 C 48.8417,47.6618 49.5084,47.3284 50.5,47.5C 52.9092,49.9024 54.9092,52.5691 56.5,55.5C 53.2099,53.8764 50.5433,51.5431 48.5,48.5 Z"/></g>
<g><path style="opacity:0.999" fill="#ef5b5c" d="M 47.5,49.5 C 47.5,48.8333 47.8333,48.5 48.5,48.5C 50.5433,51.5431 53.2099,53.8764 56.5,55.5C 59.1667,58.8333 61.8333,62.1667 64.5,65.5C 64.5,66.1667 64.1667,66.5 63.5,66.5C 58.1388,60.8071 52.8054,55.1404 47.5,49.5 Z"/></g>
<g><path style="opacity:0.974" fill="#ee605a" d="M 47.5,49.5 C 52.8054,55.1404 58.1388,60.8071 63.5,66.5C 63.1667,67.5 62.5,68.1667 61.5,68.5C 56.1315,62.8003 50.7982,57.1336 45.5,51.5C 45.8333,50.5 46.5,49.8333 47.5,49.5 Z"/></g>
<g><path style="opacity:0.941" fill="#ee6658" d="M 45.5,51.5 C 50.7982,57.1336 56.1315,62.8003 61.5,68.5C 60.8333,69.8333 59.8333,70.8333 58.5,71.5C 58.1667,70.1667 57.8333,68.8333 57.5,67.5C 55.7607,64.7573 53.4274,62.7573 50.5,61.5C 49.7124,58.3791 47.7124,56.7124 44.5,56.5C 45.3007,54.9582 45.634,53.2915 45.5,51.5 Z"/></g>
<g><path style="opacity:0.931" fill="#ef585e" d="M 56.5,55.5 C 59.79,58.1128 63.1233,60.7794 66.5,63.5C 66.1667,64.5 65.5,65.1667 64.5,65.5C 61.8333,62.1667 59.1667,58.8333 56.5,55.5 Z"/></g>
<g><path style="opacity:0.927" fill="#ef6956" d="M 44.5,57.5 C 44.5,57.1667 44.5,56.8333 44.5,56.5C 47.7124,56.7124 49.7124,58.3791 50.5,61.5C 48.7541,59.7484 46.7541,58.4151 44.5,57.5 Z"/></g>
<g><path style="opacity:0.954" fill="#ef804c" d="M 33.5,57.5 C 39.5271,64.1937 45.8604,70.5271 52.5,76.5C 51.3951,77.6005 50.0618,78.2671 48.5,78.5C 42.8333,72.5 37.1667,66.5 31.5,60.5C 31.9321,59.2905 32.5987,58.2905 33.5,57.5 Z"/></g>
<g><path style="opacity:0.968" fill="#f06d54" d="M 44.5,57.5 C 46.7541,58.4151 48.7541,59.7484 50.5,61.5C 52.2393,64.2427 54.5726,66.2427 57.5,67.5C 57.8333,68.8333 58.1667,70.1667 58.5,71.5C 57.8333,71.8333 57.1667,72.1667 56.5,72.5C 52.5,68.1667 48.5,63.8333 44.5,59.5C 44.5,58.8333 44.5,58.1667 44.5,57.5 Z"/></g>
<g><path style="opacity:0.978" fill="#f18649" d="M 31.5,60.5 C 37.1667,66.5 42.8333,72.5 48.5,78.5C 48.1667,79.5 47.5,80.1667 46.5,80.5C 41.1667,74.5 35.5,68.8333 29.5,63.5C 29.9321,62.2905 30.5987,61.2905 31.5,60.5 Z"/></g>
<g><path style="opacity:1" fill="#ef6956" d="M 50.5,61.5 C 53.4274,62.7573 55.7607,64.7573 57.5,67.5C 54.5726,66.2427 52.2393,64.2427 50.5,61.5 Z"/></g>
<g><path style="opacity:0.938" fill="#f08c47" d="M 29.5,63.5 C 35.5,68.8333 41.1667,74.5 46.5,80.5C 39.7361,85.8876 32.0695,88.3876 23.5,88C 21.4963,85.1592 20.9963,81.9926 22,78.5C 23.4763,72.8806 25.9763,67.8806 29.5,63.5 Z"/></g>
<g><path style="opacity:0.989" fill="#ed4766" d="M 75.5,62.5 C 79.8333,66.1667 83.8333,70.1667 87.5,74.5C 87.1667,75.1667 86.8333,75.8333 86.5,76.5C 82.5086,72.5428 78.5086,68.5428 74.5,64.5C 74.3284,63.5084 74.6618,62.8417 75.5,62.5 Z"/></g>
<g><path style="opacity:1" fill="#ed4c64" d="M 74.5,64.5 C 78.5086,68.5428 82.5086,72.5428 86.5,76.5C 86.5,77.1667 86.1667,77.5 85.5,77.5C 84.8333,77.5 84.1667,77.5 83.5,77.5C 80.8333,72.8333 77.1667,69.1667 72.5,66.5C 72.8333,65.5 73.5,64.8333 74.5,64.5 Z"/></g>
<g><path style="opacity:0.96" fill="#ee5460" d="M 72.5,66.5 C 75.8333,70.5 79.5,74.1667 83.5,77.5C 84.1667,77.5 84.8333,77.5 85.5,77.5C 84.8333,78.8333 83.8333,79.8333 82.5,80.5C 82.1667,80.5 81.8333,80.5 81.5,80.5C 77.8333,76.5 74.1667,72.5 70.5,68.5C 70.8333,67.5 71.5,66.8333 72.5,66.5 Z"/></g>
<g><path style="opacity:0.977" fill="#ef595d" d="M 70.5,68.5 C 74.1667,72.5 77.8333,76.5 81.5,80.5C 78.2327,78.5727 75.2327,76.2394 72.5,73.5C 70.7697,72.9744 69.4363,71.9744 68.5,70.5C 68.8333,69.5 69.5,68.8333 70.5,68.5 Z"/></g>
<g><path style="opacity:0.957" fill="#ee605a" d="M 68.5,70.5 C 69.4363,71.9744 70.7697,72.9744 72.5,73.5C 74.4302,77.1002 77.0969,80.1002 80.5,82.5C 80.1667,83.5 79.5,84.1667 78.5,84.5C 76.8333,83.1667 75.1667,81.8333 73.5,80.5C 71.883,77.2157 69.5497,74.5491 66.5,72.5C 66.8333,71.5 67.5,70.8333 68.5,70.5 Z"/></g>
<g><path style="opacity:1" fill="#ed4f62" d="M 72.5,66.5 C 77.1667,69.1667 80.8333,72.8333 83.5,77.5C 79.5,74.1667 75.8333,70.5 72.5,66.5 Z"/></g>
<g><path style="opacity:0.982" fill="#ee6558" d="M 66.5,72.5 C 69.5497,74.5491 71.883,77.2157 73.5,80.5C 72.391,80.4431 71.391,80.1098 70.5,79.5C 68.8333,77.5 67.1667,75.5 65.5,73.5C 65.5,72.8333 65.8333,72.5 66.5,72.5 Z"/></g>
<g><path style="opacity:0.891" fill="#ef6956" d="M 63.5,74.5 C 63.8417,73.6618 64.5084,73.3284 65.5,73.5C 67.1667,75.5 68.8333,77.5 70.5,79.5C 67.9066,78.2464 65.5732,76.5798 63.5,74.5 Z"/></g>
<g><path style="opacity:0.976" fill="#ef5b5c" d="M 72.5,73.5 C 75.2327,76.2394 78.2327,78.5727 81.5,80.5C 81.8333,80.5 82.1667,80.5 82.5,80.5C 82.1667,81.5 81.5,82.1667 80.5,82.5C 77.0969,80.1002 74.4302,77.1002 72.5,73.5 Z"/></g>
<g><path style="opacity:0.928" fill="#ef6d54" d="M 63.5,74.5 C 65.5732,76.5798 67.9066,78.2464 70.5,79.5C 71.7536,82.0934 73.4202,84.4268 75.5,86.5C 75.1667,87.5 74.5,88.1667 73.5,88.5C 69.956,84.1127 65.956,80.1127 61.5,76.5C 61.8333,75.5 62.5,74.8333 63.5,74.5 Z"/></g>
<g><path style="opacity:0.97" fill="#ef7351" d="M 61.5,76.5 C 65.956,80.1127 69.956,84.1127 73.5,88.5C 72.8333,88.8333 72.1667,89.1667 71.5,89.5C 67.7548,85.428 64.0882,81.428 60.5,77.5C 60.5,76.8333 60.8333,76.5 61.5,76.5 Z"/></g>
<g><path style="opacity:0.94" fill="#ef794f" d="M 60.5,77.5 C 64.0882,81.428 67.7548,85.428 71.5,89.5C 71.1583,90.3382 70.4916,90.6716 69.5,90.5C 65.4587,86.824 61.4587,83.1573 57.5,79.5C 58.5,78.8333 59.5,78.1667 60.5,77.5 Z"/></g>
<g><path style="opacity:0.929" fill="#ef7f4c" d="M 57.5,79.5 C 61.4587,83.1573 65.4587,86.824 69.5,90.5C 68.7095,91.4013 67.7095,92.0679 66.5,92.5C 63.1667,88.5 59.5,84.8333 55.5,81.5C 55.8333,80.5 56.5,79.8333 57.5,79.5 Z"/></g>
<g><path style="opacity:0.925" fill="#ee6757" d="M 70.5,79.5 C 71.391,80.1098 72.391,80.4431 73.5,80.5C 75.1667,81.8333 76.8333,83.1667 78.5,84.5C 78.0269,85.9063 77.0269,86.573 75.5,86.5C 73.4202,84.4268 71.7536,82.0934 70.5,79.5 Z"/></g>
<g><path style="opacity:0.954" fill="#f08649" d="M 55.5,81.5 C 59.5,84.8333 63.1667,88.5 66.5,92.5C 65.391,92.5569 64.391,92.8902 63.5,93.5C 60.2171,89.8792 56.8838,86.2125 53.5,82.5C 54.1667,82.1667 54.8333,81.8333 55.5,81.5 Z"/></g>
<g><path style="opacity:0.888" fill="#f08c47" d="M 53.5,82.5 C 56.8838,86.2125 60.2171,89.8792 63.5,93.5C 61.597,93.7959 59.9303,94.4625 58.5,95.5C 51.1667,95.5 43.8333,95.5 36.5,95.5C 35.6016,94.8423 34.6016,94.1757 33.5,93.5C 40.5059,90.3329 47.1725,86.6662 53.5,82.5 Z"/></g>
</svg>
