<?xml version="1.0" encoding="UTF-8"?>
<!DOCTYPE svg PUBLIC "-//W3C//DTD SVG 1.1//EN" "http://www.w3.org/Graphics/SVG/1.1/DTD/svg11.dtd">
<svg xmlns="http://www.w3.org/2000/svg" version="1.1" width="96px" height="96px" style="shape-rendering:geometricPrecision; text-rendering:geometricPrecision; image-rendering:optimizeQuality; fill-rule:evenodd; clip-rule:evenodd" xmlns:xlink="http://www.w3.org/1999/xlink">
<g><path style="opacity:0.965" fill="#fdfdfd" d="M 37.5,-0.5 C 44.1667,-0.5 50.8333,-0.5 57.5,-0.5C 77.5996,5.26618 90.2663,18.2662 95.5,38.5C 95.5,44.1667 95.5,49.8333 95.5,55.5C 89.8421,76.4912 76.5088,89.8246 55.5,95.5C 50.1667,95.5 44.8333,95.5 39.5,95.5C 18.5,89.8333 5.16667,76.5 -0.5,55.5C -0.5,50.1667 -0.5,44.8333 -0.5,39.5C 4.28496,18.7142 16.9516,5.38091 37.5,-0.5 Z"/></g>
<g><path style="opacity:1" fill="#293650" d="M 59.5,47.5 C 58.7281,46.3065 57.7281,45.3065 56.5,44.5C 55.7095,43.5987 54.7095,42.9321 53.5,42.5C 54.5281,41.9264 55.5281,41.593 56.5,41.5C 56.1667,40.5 55.5,39.8333 54.5,39.5C 48.8022,42.1613 43.1356,42.1613 37.5,39.5C 37.1667,38.5 36.5,37.8333 35.5,37.5C 34.3991,36.4017 33.0657,36.235 31.5,37C 26.5573,40.1053 22.8907,44.272 20.5,49.5C 21.0463,51.1347 21.3796,52.8014 21.5,54.5C 17.7281,51.5207 17.5614,48.1874 21,44.5C 24.39,40.6068 28.2233,37.2735 32.5,34.5C 31.1932,29.2295 29.5265,24.0628 27.5,19C 28.7498,12.0994 32.7498,9.76608 39.5,12C 41.7479,14.0436 43.7479,13.8769 45.5,11.5C 51.1831,14.1935 57.1831,15.0268 63.5,14C 66.0414,15.8484 67.0414,18.3484 66.5,21.5C 72.7786,22.6044 75.9453,26.2711 76,32.5C 71.3337,38.5939 65.8337,43.5939 59.5,47.5 Z"/></g>
<g><path style="opacity:1" fill="#e7bbda" d="M 32.5,14.5 C 33.8734,14.3433 35.2068,14.51 36.5,15C 34.5378,16.621 32.8712,18.4543 31.5,20.5C 30.2302,18.2432 30.5636,16.2432 32.5,14.5 Z"/></g>
<g><path style="opacity:1" fill="#dab3d1" d="M 58.5,17.5 C 62.8497,16.0057 64.683,17.6724 64,22.5C 63.586,22.9574 63.086,23.2907 62.5,23.5C 61.9836,20.8154 60.6503,18.8154 58.5,17.5 Z"/></g>
<g><path style="opacity:1" fill="#d4d280" d="M 41.5,18.5 C 42.3764,18.3691 43.0431,18.7025 43.5,19.5C 41.1916,20.8734 40.5249,20.5401 41.5,18.5 Z"/></g>
<g><path style="opacity:1" fill="#9d9e70" d="M 50.5,20.5 C 51.675,20.281 52.675,20.6143 53.5,21.5C 51.9483,22.7979 50.9483,22.4646 50.5,20.5 Z"/></g>
<g><path style="opacity:1" fill="#e0e2e5" d="M 44.5,34.5 C 37.3432,33.0306 36.6765,29.8639 42.5,25C 50.2289,23.0772 53.7289,25.9105 53,33.5C 50.7079,34.9078 48.5412,34.7411 46.5,33C 49.4122,32.1548 50.4122,30.4882 49.5,28C 47.1902,27.5034 44.8568,27.3367 42.5,27.5C 42.244,29.9124 43.244,31.5791 45.5,32.5C 45.1373,33.1835 44.8039,33.8501 44.5,34.5 Z"/></g>
<g><path style="opacity:1" fill="#e6bcd8" d="M 63.5,27.5 C 63.3379,29.5273 63.5045,31.5273 64,33.5C 65.6095,34.1466 67.1095,34.98 68.5,36C 65.7854,36.8747 64.4521,38.7081 64.5,41.5C 63.2642,43.0428 61.5976,44.0428 59.5,44.5C 58.5937,42.6136 57.5937,40.7803 56.5,39C 61.038,36.4111 63.3713,32.5778 63.5,27.5 Z"/></g>
<g><path style="opacity:1" fill="#e8bbda" d="M 44.5,34.5 C 46.9893,34.5394 48.4893,35.5394 49,37.5C 46.482,39.0278 44.3153,38.6945 42.5,36.5C 43.2427,35.8182 43.9094,35.1515 44.5,34.5 Z"/></g>
<g><path style="opacity:1" fill="#d7e8ee" d="M 64.5,41.5 C 64.4521,38.7081 65.7854,36.8747 68.5,36C 67.1095,34.98 65.6095,34.1466 64,33.5C 63.5045,31.5273 63.3379,29.5273 63.5,27.5C 64.7794,25.8767 66.1128,24.21 67.5,22.5C 71.1667,24.1667 73.8333,26.8333 75.5,30.5C 72.7464,35.2539 69.0797,38.9206 64.5,41.5 Z"/></g>
<g><path style="opacity:1" fill="#558fa4" d="M 71.5,32.5 C 70.4324,31.5655 69.099,31.2322 67.5,31.5C 67.5,30.1667 67.5,28.8333 67.5,27.5C 67.6672,24.0429 68.6672,23.7096 70.5,26.5C 69.1468,27.5237 68.4802,28.857 68.5,30.5C 70.143,30.5198 71.4763,29.8532 72.5,28.5C 73.8092,30.2395 73.4759,31.5729 71.5,32.5 Z"/></g>
<g><path style="opacity:1" fill="#222e48" d="M 67.5,27.5 C 67.5,28.8333 67.5,30.1667 67.5,31.5C 69.099,31.2322 70.4324,31.5655 71.5,32.5C 69.7768,33.807 67.9435,33.807 66,32.5C 65.8333,31.6667 65.6667,30.8333 65.5,30C 65.6842,28.6244 66.3509,27.7911 67.5,27.5 Z"/></g>
<g><path style="opacity:1" fill="#7fcbdf" d="M 37.5,39.5 C 43.1356,42.1613 48.8022,42.1613 54.5,39.5C 55.5,39.8333 56.1667,40.5 56.5,41.5C 55.5281,41.593 54.5281,41.9264 53.5,42.5C 51.0532,42.615 49.0532,43.615 47.5,45.5C 45.2858,46.3915 44.2858,48.0582 44.5,50.5C 44.8875,54.0571 45.8875,57.3905 47.5,60.5C 53.0379,62.7611 59.2046,65.0944 66,67.5C 67.1385,67.0109 68.3052,66.6775 69.5,66.5C 67.883,69.7843 65.5497,72.4509 62.5,74.5C 61.1266,74.6567 59.7932,74.49 58.5,74C 54.7373,71.452 50.7373,69.452 46.5,68C 43.2711,64.6014 39.9378,61.4347 36.5,58.5C 37.4469,56.2655 38.1136,53.9322 38.5,51.5C 36.2691,49.0302 36.2691,46.6969 38.5,44.5C 38.3333,44.1667 38.1667,43.8333 38,43.5C 35.9748,46.5387 33.1415,48.2053 29.5,48.5C 32.3043,49.1047 34.971,49.938 37.5,51C 36.9011,52.6225 36.2344,54.1225 35.5,55.5C 25.7656,55.9549 23.4323,52.1216 28.5,44C 30.3031,43.3632 31.6364,42.1965 32.5,40.5C 34.0453,39.5481 35.712,39.2148 37.5,39.5 Z"/></g>
<g><path style="opacity:1" fill="#f9e57f" d="M 53.5,42.5 C 54.7095,42.9321 55.7095,43.5987 56.5,44.5C 57.8333,49.8333 57.8333,55.1667 56.5,60.5C 53.6114,59.992 50.7781,59.3253 48,58.5C 46.2537,54.2085 46.087,49.8752 47.5,45.5C 49.0532,43.615 51.0532,42.615 53.5,42.5 Z"/></g>
<g><path style="opacity:1" fill="#eeeaef" d="M 35.5,37.5 C 30.0248,39.1363 25.8581,42.4696 23,47.5C 22.4029,50.6812 22.9029,53.6812 24.5,56.5C 23.5,55.8333 22.5,55.1667 21.5,54.5C 21.3796,52.8014 21.0463,51.1347 20.5,49.5C 22.8907,44.272 26.5573,40.1053 31.5,37C 33.0657,36.235 34.3991,36.4017 35.5,37.5 Z"/></g>
<g><path style="opacity:1" fill="#eff0f1" d="M 56.5,44.5 C 57.7281,45.3065 58.7281,46.3065 59.5,47.5C 59.6655,51.5138 59.4988,55.5138 59,59.5C 58.3292,60.2524 57.4959,60.5858 56.5,60.5C 57.8333,55.1667 57.8333,49.8333 56.5,44.5 Z"/></g>
<g><path style="opacity:1" fill="#e7c1db" d="M 35.5,37.5 C 36.5,37.8333 37.1667,38.5 37.5,39.5C 35.712,39.2148 34.0453,39.5481 32.5,40.5C 31.6364,42.1965 30.3031,43.3632 28.5,44C 23.4323,52.1216 25.7656,55.9549 35.5,55.5C 32.1664,61.5977 28.4997,61.931 24.5,56.5C 22.9029,53.6812 22.4029,50.6812 23,47.5C 25.8581,42.4696 30.0248,39.1363 35.5,37.5 Z"/></g>
<g><path style="opacity:1" fill="#28314a" d="M 36.5,58.5 C 35.4265,59.2506 35.2599,60.2506 36,61.5C 38.705,64.0362 41.205,66.7029 43.5,69.5C 41.2009,68.2222 38.8676,66.8889 36.5,65.5C 33.4316,68.622 31.0983,72.2886 29.5,76.5C 31.6703,79.0119 34.337,80.6785 37.5,81.5C 39.7027,84.1194 42.3694,85.1194 45.5,84.5C 44.954,83.2278 44.6207,81.8945 44.5,80.5C 45.1722,77.4877 45.8389,74.4877 46.5,71.5C 50.5891,73.2922 54.7557,74.9588 59,76.5C 60.4595,76.1918 61.6261,75.5251 62.5,74.5C 65.5497,72.4509 67.883,69.7843 69.5,66.5C 69.0886,64.228 67.922,63.8947 66,65.5C 60.0192,63.1171 53.8526,61.4504 47.5,60.5C 45.8875,57.3905 44.8875,54.0571 44.5,50.5C 44.2858,48.0582 45.2858,46.3915 47.5,45.5C 46.087,49.8752 46.2537,54.2085 48,58.5C 50.7781,59.3253 53.6114,59.992 56.5,60.5C 57.4959,60.5858 58.3292,60.2524 59,59.5C 59.4988,55.5138 59.6655,51.5138 59.5,47.5C 60.9723,49.1175 61.639,51.1175 61.5,53.5C 58.4313,61.0787 60.7646,64.0787 68.5,62.5C 71.9769,64.7087 72.1435,67.3754 69,70.5C 63.2462,78.5974 56.4128,79.5974 48.5,73.5C 47.7479,76.2629 46.7479,78.9296 45.5,81.5C 48.455,84.2513 47.955,85.918 44,86.5C 38.425,84.8796 33.425,82.2129 29,78.5C 29.4799,72.8633 31.6465,67.8633 35.5,63.5C 35.0814,62.3279 34.4147,61.3279 33.5,60.5C 29.4184,63.3138 25.9184,62.6472 23,58.5C 22.2086,57.255 21.7086,55.9217 21.5,54.5C 22.5,55.1667 23.5,55.8333 24.5,56.5C 28.4997,61.931 32.1664,61.5977 35.5,55.5C 36.2344,54.1225 36.9011,52.6225 37.5,51C 34.971,49.938 32.3043,49.1047 29.5,48.5C 33.1415,48.2053 35.9748,46.5387 38,43.5C 38.1667,43.8333 38.3333,44.1667 38.5,44.5C 36.2691,46.6969 36.2691,49.0302 38.5,51.5C 38.1136,53.9322 37.4469,56.2655 36.5,58.5 Z"/></g>
<g><path style="opacity:1" fill="#93d2e2" d="M 44.5,71.5 C 45.1667,71.5 45.8333,71.5 46.5,71.5C 45.8389,74.4877 45.1722,77.4877 44.5,80.5C 44.6207,81.8945 44.954,83.2278 45.5,84.5C 42.3694,85.1194 39.7027,84.1194 37.5,81.5C 38.371,77.0743 40.7044,73.741 44.5,71.5 Z"/></g>
<g><path style="opacity:1" fill="#4a4864" d="M 43.5,69.5 C 45.0269,69.427 46.0269,70.0937 46.5,71.5C 45.8333,71.5 45.1667,71.5 44.5,71.5C 44.1667,70.8333 43.8333,70.1667 43.5,69.5 Z"/></g>
<g><path style="opacity:1" fill="#e6bbd8" d="M 43.5,69.5 C 43.8333,70.1667 44.1667,70.8333 44.5,71.5C 40.7044,73.741 38.371,77.0743 37.5,81.5C 34.337,80.6785 31.6703,79.0119 29.5,76.5C 31.0983,72.2886 33.4316,68.622 36.5,65.5C 38.8676,66.8889 41.2009,68.2222 43.5,69.5 Z"/></g>
<g><path style="opacity:1" fill="#edf2f5" d="M 47.5,60.5 C 53.8526,61.4504 60.0192,63.1171 66,65.5C 67.922,63.8947 69.0886,64.228 69.5,66.5C 68.3052,66.6775 67.1385,67.0109 66,67.5C 59.2046,65.0944 53.0379,62.7611 47.5,60.5 Z"/></g>
<g><path style="opacity:1" fill="#ebbeda" d="M 36.5,58.5 C 39.9378,61.4347 43.2711,64.6014 46.5,68C 50.7373,69.452 54.7373,71.452 58.5,74C 59.7932,74.49 61.1266,74.6567 62.5,74.5C 61.6261,75.5251 60.4595,76.1918 59,76.5C 54.7557,74.9588 50.5891,73.2922 46.5,71.5C 46.0269,70.0937 45.0269,69.427 43.5,69.5C 41.205,66.7029 38.705,64.0362 36,61.5C 35.2599,60.2506 35.4265,59.2506 36.5,58.5 Z"/></g>
</svg>
