<?xml version="1.0" encoding="UTF-8"?>
<!DOCTYPE svg PUBLIC "-//W3C//DTD SVG 1.1//EN" "http://www.w3.org/Graphics/SVG/1.1/DTD/svg11.dtd">
<svg xmlns="http://www.w3.org/2000/svg" version="1.1" width="96px" height="96px" style="shape-rendering:geometricPrecision; text-rendering:geometricPrecision; image-rendering:optimizeQuality; fill-rule:evenodd; clip-rule:evenodd" xmlns:xlink="http://www.w3.org/1999/xlink">
<g><path style="opacity:0.863" fill="#fbf139" d="M 37.5,-0.5 C 44.5,-0.5 51.5,-0.5 58.5,-0.5C 63.5405,1.07008 68.2071,3.40341 72.5,6.5C 60.7525,2.42794 49.0858,2.5946 37.5,7C 33.0203,9.32792 28.687,11.8279 24.5,14.5C 24.0618,14.5654 23.7284,14.3988 23.5,14C 24.9842,12.4263 26.6508,11.093 28.5,10C 25.1832,9.50166 21.8499,9.33499 18.5,9.5C 24.1485,4.84268 30.4818,1.50935 37.5,-0.5 Z"/></g>
<g><path style="opacity:0.99" fill="#323235" d="M 72.5,6.5 C 84.024,13.5503 91.6906,23.5503 95.5,36.5C 95.5,43.8333 95.5,51.1667 95.5,58.5C 93.9277,63.5522 91.5944,68.2189 88.5,72.5C 76.1732,84.11 61.5065,89.2767 44.5,88C 38.3167,86.5729 32.65,84.0729 27.5,80.5C 22.0753,76.4112 17.7419,71.4112 14.5,65.5C 13.871,62.6027 12.871,59.936 11.5,57.5C 10.8857,53.8648 10.5524,50.1981 10.5,46.5C 10.5,44.8333 10.5,43.1667 10.5,41.5C 12.5697,31.112 17.2364,22.112 24.5,14.5C 28.687,11.8279 33.0203,9.32792 37.5,7C 49.0858,2.5946 60.7525,2.42794 72.5,6.5 Z"/></g>
<g><path style="opacity:0.943" fill="#fbcc19" d="M 18.5,9.5 C 21.8499,9.33499 25.1832,9.50166 28.5,10C 26.6508,11.093 24.9842,12.4263 23.5,14C 23.7284,14.3988 24.0618,14.5654 24.5,14.5C 17.2364,22.112 12.5697,31.112 10.5,41.5C 9.59603,40.791 9.26269,39.791 9.5,38.5C 6.16667,38.5 2.83333,38.5 -0.5,38.5C -0.5,37.8333 -0.5,37.1667 -0.5,36.5C 2.74296,26.1972 8.40963,17.3638 16.5,10C 17.0944,9.53566 17.7611,9.36899 18.5,9.5 Z"/></g>
<g><path style="opacity:1" fill="#f8da1d" d="M 75.5,38.5 C 74.2583,40.2501 72.7583,41.9168 71,43.5C 68.1895,42.043 66.0228,40.043 64.5,37.5C 64.2842,30.8527 62.2842,24.8527 58.5,19.5C 66.2851,23.316 71.9517,29.6493 75.5,38.5 Z"/></g>
<g><path style="opacity:1" fill="#bcab60" d="M 63.5,45.5 C 62.7494,46.5735 61.7494,46.7401 60.5,46C 59.1537,44.3308 57.487,43.1642 55.5,42.5C 49.1238,37.6363 43.1238,32.303 37.5,26.5C 37.8966,25.475 38.5632,25.3083 39.5,26C 46.7944,33.4703 54.7944,39.9703 63.5,45.5 Z"/></g>
<g><path style="opacity:1" fill="#b9a95e" d="M 44.5,38.5 C 47.0273,39.9341 47.0273,40.7674 44.5,41C 39,36.8333 33.5,32.6667 28,28.5C 27.6012,28.7284 27.4346,29.0618 27.5,29.5C 24.8997,27.7559 25.0664,26.4225 28,25.5C 33.1069,30.4526 38.6069,34.786 44.5,38.5 Z"/></g>
<g><path style="opacity:1" fill="#b9a05a" d="M 81.5,71.5 C 82.0541,67.2563 81.0541,63.5897 78.5,60.5C 78.2969,58.9557 77.6302,57.6223 76.5,56.5C 77.6238,50.3251 77.2904,44.3251 75.5,38.5C 71.9517,29.6493 66.2851,23.316 58.5,19.5C 57.9569,19.44 57.6236,19.1067 57.5,18.5C 58.2421,17.7132 59.0754,17.0465 60,16.5C 74.7105,26.2557 81.0438,39.9224 79,57.5C 82.4187,61.8277 83.252,66.4944 81.5,71.5 Z"/></g>
<g><path style="opacity:1" fill="#f4d91a" d="M 37.5,26.5 C 43.1238,32.303 49.1238,37.6363 55.5,42.5C 55.2865,44.1439 55.6198,45.6439 56.5,47C 58.5,47.3333 60.5,47.6667 62.5,48C 60,51.1667 57.5,54.3333 55,57.5C 54.8253,53.789 54.3253,50.1224 53.5,46.5C 50.0905,45.5133 46.7572,45.8466 43.5,47.5C 37.8241,41.823 32.4908,35.823 27.5,29.5C 27.4346,29.0618 27.6012,28.7284 28,28.5C 33.5,32.6667 39,36.8333 44.5,41C 47.0273,40.7674 47.0273,39.9341 44.5,38.5C 41.213,34.041 37.713,29.7077 34,25.5C 33.3333,24.8333 33.3333,24.1667 34,23.5C 35.0391,24.7101 36.2058,25.7101 37.5,26.5 Z"/></g>
<g><path style="opacity:0.966" fill="#f9ba5b" d="M -0.5,38.5 C 2.83333,38.5 6.16667,38.5 9.5,38.5C 9.26269,39.791 9.59603,40.791 10.5,41.5C 10.5,43.1667 10.5,44.8333 10.5,46.5C 7.04442,46.6952 3.37775,46.6952 -0.5,46.5C -0.5,43.8333 -0.5,41.1667 -0.5,38.5 Z"/></g>
<g><path style="opacity:1" fill="#faba27" d="M 64.5,37.5 C 66.0228,40.043 68.1895,42.043 71,43.5C 72.7583,41.9168 74.2583,40.2501 75.5,38.5C 77.2904,44.3251 77.6238,50.3251 76.5,56.5C 77.6302,57.6223 78.2969,58.9557 78.5,60.5C 77.8423,61.3984 77.1757,62.3984 76.5,63.5C 72.4984,61.844 70.165,58.844 69.5,54.5C 68.2485,56.0009 67.2485,57.6675 66.5,59.5C 65.6667,59.8333 64.8333,60.1667 64,60.5C 60.5881,59.134 57.0881,58.634 53.5,59C 51.69,61.6443 49.69,64.1443 47.5,66.5C 45.1671,65.1678 43.8337,63.1678 43.5,60.5C 44.4916,60.6716 45.1583,60.3382 45.5,59.5C 48.2529,58.9778 50.9196,58.1445 53.5,57C 50.2711,53.6014 46.9378,50.4347 43.5,47.5C 46.7572,45.8466 50.0905,45.5133 53.5,46.5C 54.3253,50.1224 54.8253,53.789 55,57.5C 57.5,54.3333 60,51.1667 62.5,48C 60.5,47.6667 58.5,47.3333 56.5,47C 55.6198,45.6439 55.2865,44.1439 55.5,42.5C 57.487,43.1642 59.1537,44.3308 60.5,46C 61.7494,46.7401 62.7494,46.5735 63.5,45.5C 63.8333,42.8333 64.1667,40.1667 64.5,37.5 Z"/></g>
<g><path style="opacity:0.92" fill="#f3a98b" d="M -0.5,46.5 C 3.37775,46.6952 7.04442,46.6952 10.5,46.5C 10.5524,50.1981 10.8857,53.8648 11.5,57.5C 11.631,58.2389 11.4643,58.9056 11,59.5C 7.71207,59.3416 4.21207,59.3416 0.5,59.5C 0.67158,58.5084 0.338246,57.8417 -0.5,57.5C -0.5,53.8333 -0.5,50.1667 -0.5,46.5 Z"/></g>
<g><path style="opacity:1" fill="#af8952" d="M 45.5,59.5 C 45.1583,60.3382 44.4916,60.6716 43.5,60.5C 38.7682,60.6224 34.1016,60.1224 29.5,59C 26.3156,58.2458 23.6489,56.7458 21.5,54.5C 21.56,53.9569 21.8933,53.6236 22.5,53.5C 29.4132,58.1572 37.0799,60.1572 45.5,59.5 Z"/></g>
<g><path style="opacity:1" fill="#f59c20" d="M 21.5,54.5 C 23.6489,56.7458 26.3156,58.2458 29.5,59C 34.1016,60.1224 38.7682,60.6224 43.5,60.5C 43.8337,63.1678 45.1671,65.1678 47.5,66.5C 49.69,64.1443 51.69,61.6443 53.5,59C 57.0881,58.634 60.5881,59.134 64,60.5C 64.8333,60.1667 65.6667,59.8333 66.5,59.5C 67.2485,57.6675 68.2485,56.0009 69.5,54.5C 70.165,58.844 72.4984,61.844 76.5,63.5C 77.1757,62.3984 77.8423,61.3984 78.5,60.5C 81.0541,63.5897 82.0541,67.2563 81.5,71.5C 81.6309,72.3764 81.2975,73.0431 80.5,73.5C 78.66,70.1627 75.8266,68.4961 72,68.5C 51.3838,77.0689 34.0505,72.7356 20,55.5C 19.3947,53.3646 19.8947,53.0313 21.5,54.5 Z"/></g>
<g><path style="opacity:0.979" fill="#ed9ca4" d="M 11.5,57.5 C 12.871,59.936 13.871,62.6027 14.5,65.5C 14.6309,66.3764 14.2975,67.0431 13.5,67.5C 10.2423,66.5827 6.90899,66.2493 3.5,66.5C 2.32278,64.3206 1.32278,61.9872 0.5,59.5C 4.21207,59.3416 7.71207,59.3416 11,59.5C 11.4643,58.9056 11.631,58.2389 11.5,57.5 Z"/></g>
<g><path style="opacity:0.939" fill="#e787b6" d="M 14.5,65.5 C 17.7419,71.4112 22.0753,76.4112 27.5,80.5C 22.6666,80.2272 17.6666,80.2272 12.5,80.5C 8.50581,76.5213 5.50581,71.8546 3.5,66.5C 6.90899,66.2493 10.2423,66.5827 13.5,67.5C 14.2975,67.0431 14.6309,66.3764 14.5,65.5 Z"/></g>
<g><path style="opacity:0.897" fill="#df69a8" d="M 88.5,72.5 C 81.2871,84.3805 70.9538,92.0471 57.5,95.5C 51.1667,95.5 44.8333,95.5 38.5,95.5C 28.3387,93.0862 19.672,88.0862 12.5,80.5C 17.6666,80.2272 22.6666,80.2272 27.5,80.5C 32.65,84.0729 38.3167,86.5729 44.5,88C 61.5065,89.2767 76.1732,84.11 88.5,72.5 Z"/></g>
</svg>
