<?xml version="1.0" encoding="UTF-8"?>
<!DOCTYPE svg PUBLIC "-//W3C//DTD SVG 1.1//EN" "http://www.w3.org/Graphics/SVG/1.1/DTD/svg11.dtd">
<svg xmlns="http://www.w3.org/2000/svg" version="1.1" width="96px" height="96px" style="shape-rendering:geometricPrecision; text-rendering:geometricPrecision; image-rendering:optimizeQuality; fill-rule:evenodd; clip-rule:evenodd" xmlns:xlink="http://www.w3.org/1999/xlink">
<g><path style="opacity:0.882" fill="#090000" d="M 36.5,-0.5 C 43.8333,-0.5 51.1667,-0.5 58.5,-0.5C 77.5967,5.59648 89.93,18.2631 95.5,37.5C 95.5,44.1667 95.5,50.8333 95.5,57.5C 90.9185,74.4173 80.5852,86.4173 64.5,93.5C 61.9327,93.7215 59.5994,94.3882 57.5,95.5C 50.8333,95.5 44.1667,95.5 37.5,95.5C 35.4006,94.3882 33.0673,93.7215 30.5,93.5C 14.4148,86.4173 4.08146,74.4173 -0.5,57.5C -0.5,50.8333 -0.5,44.1667 -0.5,37.5C 5.07001,18.2631 17.4033,5.59648 36.5,-0.5 Z"/></g>
<g><path style="opacity:1" fill="#f90605" d="M 90.5,51.5 C 85.4017,58.4332 79.4017,64.5999 72.5,70C 44.7959,83.4841 22.1292,77.6507 4.5,52.5C 3.08225,31.7132 11.7489,16.5465 30.5,7C 57.7062,-0.939157 77.2062,7.89418 89,33.5C 90.3041,39.4229 90.8041,45.4229 90.5,51.5 Z"/></g>
<g><path style="opacity:1" fill="#0b0606" d="M 26.5,22.5 C 41.2637,22.0334 55.9304,22.5334 70.5,24C 71.2106,25.2547 72.044,26.4214 73,27.5C 73.8608,33.5851 73.5275,39.5851 72,45.5C 71.0975,46.7014 69.9308,47.5348 68.5,48C 53.7399,48.966 39.0733,48.6326 24.5,47C 23.1068,45.8289 22.2735,44.3289 22,42.5C 21.3333,37.5 21.3333,32.5 22,27.5C 23.0591,25.3408 24.5591,23.6741 26.5,22.5 Z"/></g>
<g><path style="opacity:1" fill="#49636d" d="M 38.5,25.5 C 36.494,29.1985 35.994,33.1985 37,37.5C 38.214,39.0488 39.714,40.2155 41.5,41C 49.8333,41.6667 58.1667,41.6667 66.5,41C 67.5266,40.4867 68.5266,39.9867 69.5,39.5C 69.822,41.7224 69.1554,43.5557 67.5,45C 54.1667,45.6667 40.8333,45.6667 27.5,45C 27,44.5 26.5,44 26,43.5C 25.3333,38.1667 25.3333,32.8333 26,27.5C 29.922,25.6876 34.0887,25.021 38.5,25.5 Z"/></g>
<g><path style="opacity:1" fill="#95c3d7" d="M 38.5,25.5 C 47.8393,25.3335 57.1726,25.5002 66.5,26C 68.3333,26.5 69.5,27.6667 70,29.5C 70.7466,32.9236 70.58,36.2569 69.5,39.5C 68.5266,39.9867 67.5266,40.4867 66.5,41C 58.1667,41.6667 49.8333,41.6667 41.5,41C 39.714,40.2155 38.214,39.0488 37,37.5C 35.994,33.1985 36.494,29.1985 38.5,25.5 Z"/></g>
<g><path style="opacity:1" fill="#f8fbfc" d="M 52.5,26.5 C 55.5184,26.3354 58.5184,26.502 61.5,27C 65.3951,29.3006 65.0618,31.3006 60.5,33C 55.8533,34.4804 52.1867,33.3137 49.5,29.5C 50.3398,28.265 51.3398,27.265 52.5,26.5 Z"/></g>
<g><path style="opacity:1" fill="#cd0000" d="M 90.5,51.5 C 86.6477,76.0176 72.3144,89.0176 47.5,90.5C 23.1605,89.1607 8.82715,76.494 4.5,52.5C 22.1292,77.6507 44.7959,83.4841 72.5,70C 79.4017,64.5999 85.4017,58.4332 90.5,51.5 Z"/></g>
<g><path style="opacity:0.004" fill="#000000" d="M 30.5,93.5 C 29.8333,94.1667 29.8333,94.1667 30.5,93.5 Z"/></g>
<g><path style="opacity:0.004" fill="#000000" d="M 64.5,93.5 C 65.8333,94.1667 65.8333,94.1667 64.5,93.5 Z"/></g>
</svg>
