<?xml version="1.0" encoding="UTF-8"?>
<!DOCTYPE svg PUBLIC "-//W3C//DTD SVG 1.1//EN" "http://www.w3.org/Graphics/SVG/1.1/DTD/svg11.dtd">
<svg xmlns="http://www.w3.org/2000/svg" version="1.1" width="96px" height="96px" style="shape-rendering:geometricPrecision; text-rendering:geometricPrecision; image-rendering:optimizeQuality; fill-rule:evenodd; clip-rule:evenodd" xmlns:xlink="http://www.w3.org/1999/xlink">
<g><path style="opacity:0.997" fill="#191919" d="M -0.5,-0.5 C 31.5,-0.5 63.5,-0.5 95.5,-0.5C 95.5,31.5 95.5,63.5 95.5,95.5C 63.5,95.5 31.5,95.5 -0.5,95.5C -0.5,63.5 -0.5,31.5 -0.5,-0.5 Z"/></g>
<g><path style="opacity:1" fill="#4d4d4d" d="M 50.5,11.5 C 49.8333,17.1667 49.1667,22.8333 48.5,28.5C 48.1707,22.4632 48.5041,16.4632 49.5,10.5C 50.1067,10.6236 50.44,10.9569 50.5,11.5 Z"/></g>
<g><path style="opacity:1" fill="#949393" d="M 45.5,29.5 C 45.8333,29.5 46.1667,29.5 46.5,29.5C 46.5,48.1667 46.5,66.8333 46.5,85.5C 44.901,85.7678 43.5676,85.4345 42.5,84.5C 43.1667,84.5 43.8333,84.5 44.5,84.5C 45.4968,66.3409 45.8302,48.0076 45.5,29.5 Z"/></g>
<g><path style="opacity:1" fill="#d6d5d5" d="M 44.5,14.5 C 45.0967,14.7352 45.4301,15.2352 45.5,16C 42.6665,29.8351 39.8332,43.6684 37,57.5C 36.2411,59.6349 34.7411,60.9682 32.5,61.5C 31.3378,59.1756 30.1711,56.8422 29,54.5C 28.2903,60.3312 27.457,65.9978 26.5,71.5C 25.3889,66.5842 25.2223,61.5842 26,56.5C 31.9065,42.3566 38.0731,28.3566 44.5,14.5 Z"/></g>
<g><path style="opacity:1" fill="#dfdfde" d="M 45.5,29.5 C 45.8302,48.0076 45.4968,66.3409 44.5,84.5C 41.4124,77.27 37.7458,70.27 33.5,63.5C 36.8863,63.3771 40.553,63.3771 44.5,63.5C 44.1571,50.1246 44.4904,38.7913 45.5,29.5 Z"/></g>
<g><path style="opacity:1" fill="#dadad9" d="M 50.5,11.5 C 55.8333,24.8333 61.1667,38.1667 66.5,51.5C 66.0629,53.0744 65.0629,54.2411 63.5,55C 64.4637,57.6467 63.9637,60.1467 62,62.5C 58.2622,57.7058 54.4289,57.8725 50.5,63C 54.1516,63.4986 57.8183,63.6653 61.5,63.5C 57.5,70.1667 53.5,76.8333 49.5,83.5C 49.5,83.8333 49.5,84.1667 49.5,84.5C 48.5031,66.0075 48.1698,47.3408 48.5,28.5C 49.1667,22.8333 49.8333,17.1667 50.5,11.5 Z"/></g>
<g><path style="opacity:1" fill="#b5b4b4" d="M 46.5,29.5 C 46.1667,29.5 45.8333,29.5 45.5,29.5C 44.4904,38.7913 44.1571,50.1246 44.5,63.5C 40.553,63.3771 36.8863,63.3771 33.5,63.5C 37.7458,70.27 41.4124,77.27 44.5,84.5C 43.8333,84.5 43.1667,84.5 42.5,84.5C 34.7527,83.0816 29.4194,78.7483 26.5,71.5C 27.457,65.9978 28.2903,60.3312 29,54.5C 30.1711,56.8422 31.3378,59.1756 32.5,61.5C 34.7411,60.9682 36.2411,59.6349 37,57.5C 39.8332,43.6684 42.6665,29.8351 45.5,16C 45.4301,15.2352 45.0967,14.7352 44.5,14.5C 44.4614,13.2438 44.9614,12.2438 46,11.5C 46.4995,17.4908 46.6662,23.4908 46.5,29.5 Z"/></g>
<g><path style="opacity:1" fill="#a8a7a7" d="M 61.5,63.5 C 64.367,66.2329 65.867,69.5662 66,73.5C 61.0718,77.7169 55.5718,81.0502 49.5,83.5C 53.5,76.8333 57.5,70.1667 61.5,63.5 Z"/></g>
<g><path style="opacity:1" fill="#c3c2c2" d="M 66.5,51.5 C 73.5042,65.9451 69.8376,76.7784 55.5,84C 53.5273,84.4955 51.5273,84.6621 49.5,84.5C 49.5,84.1667 49.5,83.8333 49.5,83.5C 55.5718,81.0502 61.0718,77.7169 66,73.5C 65.867,69.5662 64.367,66.2329 61.5,63.5C 57.8183,63.6653 54.1516,63.4986 50.5,63C 54.4289,57.8725 58.2622,57.7058 62,62.5C 63.9637,60.1467 64.4637,57.6467 63.5,55C 65.0629,54.2411 66.0629,53.0744 66.5,51.5 Z"/></g>
</svg>
