<?xml version="1.0" encoding="UTF-8"?>
<!DOCTYPE svg PUBLIC "-//W3C//DTD SVG 1.1//EN" "http://www.w3.org/Graphics/SVG/1.1/DTD/svg11.dtd">
<svg xmlns="http://www.w3.org/2000/svg" version="1.1" width="96px" height="96px" style="shape-rendering:geometricPrecision; text-rendering:geometricPrecision; image-rendering:optimizeQuality; fill-rule:evenodd; clip-rule:evenodd" xmlns:xlink="http://www.w3.org/1999/xlink">
<g><path style="opacity:0.981" fill="#59b4c9" d="M 41.5,-0.5 C 42.5,-0.5 43.5,-0.5 44.5,-0.5C 44.3893,0.117425 44.056,0.617425 43.5,1C 43.8959,7.03688 44.8959,12.8702 46.5,18.5C 45.129,20.4586 44.129,22.6252 43.5,25C 40.4535,25.7388 37.4535,26.5721 34.5,27.5C 34.2133,18.9593 34.5466,10.2927 35.5,1.5C 37.6976,1.12487 39.6976,0.458201 41.5,-0.5 Z"/></g>
<g><path style="opacity:0.947" fill="#55abc9" d="M 44.5,-0.5 C 46.5,-0.5 48.5,-0.5 50.5,-0.5C 51.4569,5.71895 51.7902,11.719 51.5,17.5C 50.0813,18.4511 48.4147,18.7845 46.5,18.5C 44.8959,12.8702 43.8959,7.03688 43.5,1C 44.056,0.617425 44.3893,0.117425 44.5,-0.5 Z"/></g>
<g><path style="opacity:0.973" fill="#4ea0c9" d="M 50.5,-0.5 C 51.5,-0.5 52.5,-0.5 53.5,-0.5C 56.1667,0.5 58.8333,1.5 61.5,2.5C 62.8333,10.5 62.8333,18.5 61.5,26.5C 58.8111,25.9618 56.1444,25.2951 53.5,24.5C 52.8319,22.0312 52.1653,19.6979 51.5,17.5C 51.7902,11.719 51.4569,5.71895 50.5,-0.5 Z"/></g>
<g><path style="opacity:0.994" fill="#4a99c9" d="M 61.5,2.5 C 64.9122,3.04207 67.9122,4.3754 70.5,6.5C 69.8826,6.61071 69.3826,6.94404 69,7.5C 68.8315,24.0051 68.3315,40.3385 67.5,56.5C 67.1448,52.9013 65.8115,49.7347 63.5,47C 59.8426,45.1776 56.1759,43.6776 52.5,42.5C 53.2216,42.0825 53.7216,41.4158 54,40.5C 54.414,40.9574 54.914,41.2907 55.5,41.5C 56.4519,39.9547 56.7852,38.288 56.5,36.5C 61.1293,36.0295 63.7959,33.5295 64.5,29C 63.8699,27.6898 62.8699,26.8565 61.5,26.5C 62.8333,18.5 62.8333,10.5 61.5,2.5 Z"/></g>
<g><path style="opacity:0.996" fill="#60c0c9" d="M 35.5,1.5 C 34.5466,10.2927 34.2133,18.9593 34.5,27.5C 28.6358,32.3484 27.1358,38.3484 30,45.5C 31.8567,48.1998 34.3567,49.8665 37.5,50.5C 38.2653,53.0961 38.5987,55.7628 38.5,58.5C 32.8164,58.0138 29.1498,60.5138 27.5,66C 29.3146,66.7568 30.9812,67.5902 32.5,68.5C 30.1497,69.1103 30.483,69.4437 33.5,69.5C 34.0806,77.4415 33.4139,85.1081 31.5,92.5C 28.9684,91.4043 26.6351,90.0709 24.5,88.5C 23.8416,61.4022 23.175,34.4022 22.5,7.5C 26.3737,4.73299 30.7071,2.73299 35.5,1.5 Z"/></g>
<g><path style="opacity:0.998" fill="#4692c8" d="M 70.5,6.5 C 73.1979,6.8449 75.1979,8.17823 76.5,10.5C 75.51,35.4255 75.1767,60.4255 75.5,85.5C 75.0269,86.9063 74.0269,87.573 72.5,87.5C 71.1667,87.5 69.8333,87.5 68.5,87.5C 68.8274,77.3194 68.494,67.3194 67.5,57.5C 67.5,57.1667 67.5,56.8333 67.5,56.5C 68.3315,40.3385 68.8315,24.0051 69,7.5C 69.3826,6.94404 69.8826,6.61071 70.5,6.5 Z"/></g>
<g><path style="opacity:0.998" fill="#66caca" d="M 22.5,7.5 C 23.175,34.4022 23.8416,61.4022 24.5,88.5C 20.6082,86.9379 17.2749,84.6046 14.5,81.5C 14.5,58.8333 14.5,36.1667 14.5,13.5C 16.8785,11.1223 19.5451,9.12232 22.5,7.5 Z"/></g>
<g><path style="opacity:0.999" fill="#428bc8" d="M 76.5,10.5 C 78.754,11.1237 80.4206,12.457 81.5,14.5C 80.8826,14.6107 80.3826,14.944 80,15.5C 79.5381,38.0095 79.3714,60.3428 79.5,82.5C 78.205,83.4884 76.8717,84.4884 75.5,85.5C 75.1767,60.4255 75.51,35.4255 76.5,10.5 Z"/></g>
<g><path style="opacity:0.999" fill="#4086c9" d="M 81.5,14.5 C 83.0627,15.9448 84.396,17.6115 85.5,19.5C 85.4793,38.0392 85.4793,56.7059 85.5,75.5C 84.2003,78.4323 82.2003,80.7656 79.5,82.5C 79.3714,60.3428 79.5381,38.0095 80,15.5C 80.3826,14.944 80.8826,14.6107 81.5,14.5 Z"/></g>
<g><path style="opacity:1" fill="#6ad2ca" d="M 14.5,13.5 C 14.5,36.1667 14.5,58.8333 14.5,81.5C 12.2733,79.3932 10.2733,77.0599 8.5,74.5C 8.82999,56.992 8.49665,39.6586 7.5,22.5C 9.45815,19.2085 11.7915,16.2085 14.5,13.5 Z"/></g>
<g><path style="opacity:0.995" fill="#6dd8ca" d="M 7.5,22.5 C 8.49665,39.6586 8.82999,56.992 8.5,74.5C 4.13106,68.0515 1.13106,61.0515 -0.5,53.5C -0.5,49.5 -0.5,45.5 -0.5,41.5C 0.990768,34.7008 3.65744,28.3674 7.5,22.5 Z"/></g>
<g><path style="opacity:0.999" fill="#3b7ec7" d="M 85.5,19.5 C 90.4721,26.1093 93.8054,33.4426 95.5,41.5C 95.5,45.5 95.5,49.5 95.5,53.5C 93.8054,61.5574 90.4721,68.8907 85.5,75.5C 85.4793,56.7059 85.4793,38.0392 85.5,19.5 Z"/></g>
<g><path style="opacity:0.933" fill="#51a6c8" d="M 56.5,36.5 C 56.7852,38.288 56.4519,39.9547 55.5,41.5C 54.914,41.2907 54.414,40.9574 54,40.5C 53.7216,41.4158 53.2216,42.0825 52.5,42.5C 49.3992,42.3083 46.3992,41.6416 43.5,40.5C 42.3861,39.277 42.2195,37.9437 43,36.5C 47.4519,34.2273 51.9519,34.2273 56.5,36.5 Z"/></g>
<g><path style="opacity:0.929" fill="#54acc8" d="M 37.5,50.5 C 41.7551,51.8145 46.0884,52.9811 50.5,54C 53.3463,54.8793 54.013,56.5459 52.5,59C 47.803,60.4985 43.1363,60.3319 38.5,58.5C 38.5987,55.7628 38.2653,53.0961 37.5,50.5 Z"/></g>
<g><path style="opacity:0.994" fill="#4a99c8" d="M 67.5,57.5 C 68.494,67.3194 68.8274,77.3194 68.5,87.5C 69.8333,87.5 71.1667,87.5 72.5,87.5C 69.6963,89.4046 66.6963,91.0713 63.5,92.5C 62.8805,84.6343 62.2138,76.801 61.5,69C 62.2524,68.3292 62.5858,67.4959 62.5,66.5C 64.977,63.8732 66.6436,60.8732 67.5,57.5 Z"/></g>
<g><path style="opacity:0.983" fill="#4ea1c9" d="M 62.5,66.5 C 62.5858,67.4959 62.2524,68.3292 61.5,69C 62.2138,76.801 62.8805,84.6343 63.5,92.5C 59.9752,93.2097 56.6418,94.2097 53.5,95.5C 52.5,95.5 51.5,95.5 50.5,95.5C 51.8073,89.0676 51.8073,82.7343 50.5,76.5C 51.9395,74.412 52.6061,72.0786 52.5,69.5C 56.0075,69.0795 59.3408,68.0795 62.5,66.5 Z"/></g>
<g><path style="opacity:0.975" fill="#5ab4c9" d="M 32.5,68.5 C 36.1667,69.1667 39.8333,69.8333 43.5,70.5C 44.2518,79.026 44.5851,87.3593 44.5,95.5C 43.5,95.5 42.5,95.5 41.5,95.5C 38.3582,94.2097 35.0248,93.2097 31.5,92.5C 33.4139,85.1081 34.0806,77.4415 33.5,69.5C 30.483,69.4437 30.1497,69.1103 32.5,68.5 Z"/></g>
<g><path style="opacity:0.965" fill="#55abc9" d="M 43.5,70.5 C 44.3138,72.631 44.8138,74.9644 45,77.5C 46.6995,76.5939 48.5328,76.2606 50.5,76.5C 51.8073,82.7343 51.8073,89.0676 50.5,95.5C 48.5,95.5 46.5,95.5 44.5,95.5C 44.5851,87.3593 44.2518,79.026 43.5,70.5 Z"/></g>
</svg>
