<?xml version="1.0" encoding="UTF-8"?>
<!DOCTYPE svg PUBLIC "-//W3C//DTD SVG 1.1//EN" "http://www.w3.org/Graphics/SVG/1.1/DTD/svg11.dtd">
<svg xmlns="http://www.w3.org/2000/svg" version="1.1" width="96px" height="96px" style="shape-rendering:geometricPrecision; text-rendering:geometricPrecision; image-rendering:optimizeQuality; fill-rule:evenodd; clip-rule:evenodd" xmlns:xlink="http://www.w3.org/1999/xlink">
<g><path style="opacity:0.992" fill="#313234" d="M 36.5,-0.5 C 43.8333,-0.5 51.1667,-0.5 58.5,-0.5C 77.1667,5.5 89.5,17.8333 95.5,36.5C 95.5,43.8333 95.5,51.1667 95.5,58.5C 89.5,77.1667 77.1667,89.5 58.5,95.5C 51.1667,95.5 43.8333,95.5 36.5,95.5C 17.8333,89.5 5.5,77.1667 -0.5,58.5C -0.5,51.1667 -0.5,43.8333 -0.5,36.5C 5.5,17.8333 17.8333,5.5 36.5,-0.5 Z"/></g>
<g><path style="opacity:1" fill="#964fed" d="M 44.5,42.5 C 49.1667,41.8333 53.8333,41.1667 58.5,40.5C 60.9311,39.3932 61.9311,37.3932 61.5,34.5C 61.6738,32.3066 61.0071,30.4733 59.5,29C 52.1667,28.3333 44.8333,28.3333 37.5,29C 36.8742,29.7504 36.3742,30.5838 36,31.5C 32.3256,25.9887 27.1589,23.9887 20.5,25.5C 20.345,20.9774 22.345,17.8107 26.5,16C 40.5,15.3333 54.5,15.3333 68.5,16C 73.6935,17.1935 76.8602,20.3601 78,25.5C 78.6667,30.1667 78.6667,34.8333 78,39.5C 77.0576,42.6009 75.2242,44.9342 72.5,46.5C 78.3149,49.7996 80.6482,54.7996 79.5,61.5C 80.3941,69.8912 77.0607,75.7245 69.5,79C 54.0739,79.9675 38.7406,79.6342 23.5,78C 22.6433,77.3109 21.9767,76.4776 21.5,75.5C 23.1591,74.1832 24.3257,72.5165 25,70.5C 26.7129,75.038 29.8795,76.538 34.5,75C 35.4376,71.4751 37.4376,68.8085 40.5,67C 46.8333,66.6667 53.1667,66.3333 59.5,66C 60.4162,65.6258 61.2496,65.1258 62,64.5C 63.0234,60.6831 62.5234,57.1831 60.5,54C 55.8452,53.5008 51.1785,53.3342 46.5,53.5C 46.8887,49.5863 46.2221,45.9196 44.5,42.5 Z"/></g>
<g><path style="opacity:1" fill="#f6f6f6" d="M 22.5,27.5 C 25.7935,27.259 28.7935,28.0924 31.5,30C 35.7353,34.8679 39.5687,40.0345 43,45.5C 45.151,51.7376 44.3176,57.571 40.5,63C 39.552,63.4828 38.552,63.6495 37.5,63.5C 37.9492,61.0225 37.2825,59.0225 35.5,57.5C 34.6717,62.1315 34.1717,66.7982 34,71.5C 30.0292,73.3878 27.8625,72.0545 27.5,67.5C 23.206,66.1137 21.206,67.7804 21.5,72.5C 19.8561,72.7135 18.3561,72.3802 17,71.5C 16.8283,66.7982 16.3283,62.1315 15.5,57.5C 13.7175,59.0225 13.0508,61.0225 13.5,63.5C 9.79318,62.276 7.62651,59.6093 7,55.5C 5.82742,50.0232 6.82742,45.0232 10,40.5C 14.6433,36.4756 18.8099,32.1423 22.5,27.5 Z"/></g>
<g><path style="opacity:1" fill="#2f2f31" d="M 21.5,35.5 C 25.4629,35.0889 29.1295,35.9222 32.5,38C 34.4801,42.3665 33.1468,45.3665 28.5,47C 22.7853,48.6399 18.7853,46.8066 16.5,41.5C 17.4649,38.8724 19.1315,36.8724 21.5,35.5 Z"/></g>
<g><path style="opacity:1" fill="#dbdbdb" d="M 19.5,40.5 C 20.5,40.5 21.5,40.5 22.5,40.5C 21.7542,44.31 20.7542,44.31 19.5,40.5 Z"/></g>
<g><path style="opacity:1" fill="#f8f8f8" d="M 27.5,40.5 C 28.675,40.281 29.675,40.6143 30.5,41.5C 28.9483,42.7979 27.9483,42.4646 27.5,40.5 Z"/></g>
<g><path style="opacity:1" fill="#5a3e7a" d="M 58.5,40.5 C 53.8333,41.1667 49.1667,41.8333 44.5,42.5C 43.9569,42.44 43.6236,42.1067 43.5,41.5C 48.456,40.5059 53.456,40.1725 58.5,40.5 Z"/></g>
</svg>
