<?xml version="1.0" encoding="UTF-8"?>
<!DOCTYPE svg PUBLIC "-//W3C//DTD SVG 1.1//EN" "http://www.w3.org/Graphics/SVG/1.1/DTD/svg11.dtd">
<svg xmlns="http://www.w3.org/2000/svg" version="1.1" width="96px" height="96px" style="shape-rendering:geometricPrecision; text-rendering:geometricPrecision; image-rendering:optimizeQuality; fill-rule:evenodd; clip-rule:evenodd" xmlns:xlink="http://www.w3.org/1999/xlink">
<g><path style="opacity:0.039" fill="#e4b73d" d="M 48.5,5.5 C 48.1667,6.16667 47.8333,6.83333 47.5,7.5C 46.1667,7.5 44.8333,7.5 43.5,7.5C 43.1667,6.83333 42.8333,6.16667 42.5,5.5C 44.6112,4.25844 46.6112,4.25844 48.5,5.5 Z"/></g>
<g><path style="opacity:0.043" fill="#ddb542" d="M 37.5,7.5 C 38.3764,7.36912 39.0431,7.70245 39.5,8.5C 38.3698,9.62235 37.7031,10.9557 37.5,12.5C 36.5116,11.205 35.5116,9.87165 34.5,8.5C 35.391,7.89022 36.391,7.55688 37.5,7.5 Z"/></g>
<g><path style="opacity:0.063" fill="#dcb346" d="M 48.5,5.5 C 51.1573,5.93482 53.4907,6.93482 55.5,8.5C 55.5,8.83333 55.5,9.16667 55.5,9.5C 55.1667,9.5 54.8333,9.5 54.5,9.5C 53.469,8.75147 52.3024,8.0848 51,7.5C 49.9887,8.33663 48.8221,8.66997 47.5,8.5C 47.5,8.16667 47.5,7.83333 47.5,7.5C 47.8333,6.83333 48.1667,6.16667 48.5,5.5 Z"/></g>
<g><path style="opacity:0.097" fill="#d9b43d" d="M 43.5,7.5 C 44.8333,7.5 46.1667,7.5 47.5,7.5C 47.5,7.83333 47.5,8.16667 47.5,8.5C 47.4431,9.60895 47.1098,10.609 46.5,11.5C 46.1667,11.5 45.8333,11.5 45.5,11.5C 44.596,10.791 44.2627,9.79105 44.5,8.5C 40.1617,8.37808 39.8284,8.04474 43.5,7.5 Z"/></g>
<g><path style="opacity:0.106" fill="#dbb83f" d="M 42.5,5.5 C 42.8333,6.16667 43.1667,6.83333 43.5,7.5C 39.8284,8.04474 40.1617,8.37808 44.5,8.5C 44.2627,9.79105 44.596,10.791 45.5,11.5C 43.6976,12.4582 41.6976,13.1249 39.5,13.5C 39.1583,12.6618 38.4916,12.3284 37.5,12.5C 37.7031,10.9557 38.3698,9.62235 39.5,8.5C 39.0431,7.70245 38.3764,7.36912 37.5,7.5C 38.9303,6.46253 40.597,5.79586 42.5,5.5 Z"/></g>
<g><path style="opacity:0.116" fill="#d8b641" d="M 54.5,9.5 C 52.368,9.55437 51.0347,10.5544 50.5,12.5C 50.1667,12.5 49.8333,12.5 49.5,12.5C 48.391,12.4431 47.391,12.1098 46.5,11.5C 47.1098,10.609 47.4431,9.60895 47.5,8.5C 48.8221,8.66997 49.9887,8.33663 51,7.5C 52.3024,8.0848 53.469,8.75147 54.5,9.5 Z"/></g>
<g><path style="opacity:0.09" fill="#dab63e" d="M 34.5,8.5 C 35.5116,9.87165 36.5116,11.205 37.5,12.5C 38.4916,12.3284 39.1583,12.6618 39.5,13.5C 38.5084,13.3284 37.8417,13.6618 37.5,14.5C 36.6618,14.8417 36.3284,15.5084 36.5,16.5C 35.6618,16.8417 35.3284,17.5084 35.5,18.5C 35.1667,18.5 34.8333,18.5 34.5,18.5C 35.0965,16.602 35.0965,14.9354 34.5,13.5C 33.8333,12.5 33.1667,11.5 32.5,10.5C 32.8333,9.5 33.5,8.83333 34.5,8.5 Z"/></g>
<g><path style="opacity:0.098" fill="#ddb540" d="M 54.5,9.5 C 54.8333,9.5 55.1667,9.5 55.5,9.5C 55.5,9.83333 55.5,10.1667 55.5,10.5C 53.3523,10.3894 53.019,11.056 54.5,12.5C 54.1667,13.5 53.5,14.1667 52.5,14.5C 52.0894,13.7376 51.9227,12.7376 52,11.5C 51.6174,12.056 51.1174,12.3893 50.5,12.5C 51.0347,10.5544 52.368,9.55437 54.5,9.5 Z"/></g>
<g><path style="opacity:0.069" fill="#d8b844" d="M 55.5,8.5 C 58.0892,9.41938 60.0892,11.086 61.5,13.5C 61.6716,14.4916 61.3382,15.1583 60.5,15.5C 60.1667,16.1667 59.8333,16.8333 59.5,17.5C 59.1667,17.5 58.8333,17.5 58.5,17.5C 58.5,16.8333 58.1667,16.5 57.5,16.5C 56.5222,16.189 55.8555,15.5223 55.5,14.5C 56.8069,13.135 56.8069,11.8016 55.5,10.5C 55.5,10.1667 55.5,9.83333 55.5,9.5C 55.5,9.16667 55.5,8.83333 55.5,8.5 Z"/></g>
<g><path style="opacity:0.088" fill="#dcb33f" d="M 32.5,10.5 C 33.1667,11.5 33.8333,12.5 34.5,13.5C 33.3884,15.744 31.8884,15.744 30,13.5C 29.5357,14.0944 29.369,14.7611 29.5,15.5C 28.8333,15.1667 28.1667,14.8333 27.5,14.5C 28.5846,12.4131 30.2512,11.0798 32.5,10.5 Z"/></g>
<g><path style="opacity:0.196" fill="#d7b23d" d="M 45.5,11.5 C 45.8333,11.5 46.1667,11.5 46.5,11.5C 47.391,12.1098 48.391,12.4431 49.5,12.5C 50.5981,13.397 50.5981,14.2303 49.5,15C 50.7375,15.2321 51.7375,15.7321 52.5,16.5C 50.5853,16.7845 48.9187,16.4511 47.5,15.5C 47.44,14.9569 47.1067,14.6236 46.5,14.5C 45.7348,15.6119 44.7348,16.2786 43.5,16.5C 41.1417,16.7475 39.1417,16.0808 37.5,14.5C 37.8417,13.6618 38.5084,13.3284 39.5,13.5C 41.6976,13.1249 43.6976,12.4582 45.5,11.5 Z"/></g>
<g><path style="opacity:0.149" fill="#d8b540" d="M 55.5,10.5 C 56.8069,11.8016 56.8069,13.135 55.5,14.5C 55.8555,15.5223 56.5222,16.189 57.5,16.5C 57.5,16.8333 57.5,17.1667 57.5,17.5C 57.1667,17.5 56.8333,17.5 56.5,17.5C 56.1667,17.5 55.8333,17.5 55.5,17.5C 54.791,16.596 53.791,16.2627 52.5,16.5C 51.7375,15.7321 50.7375,15.2321 49.5,15C 50.5981,14.2303 50.5981,13.397 49.5,12.5C 49.8333,12.5 50.1667,12.5 50.5,12.5C 51.1174,12.3893 51.6174,12.056 52,11.5C 51.9227,12.7376 52.0894,13.7376 52.5,14.5C 53.5,14.1667 54.1667,13.5 54.5,12.5C 53.019,11.056 53.3523,10.3894 55.5,10.5 Z"/></g>
<g><path style="opacity:0.125" fill="#d9b541" d="M 34.5,13.5 C 35.0965,14.9354 35.0965,16.602 34.5,18.5C 33.3285,19.3446 31.9952,20.0113 30.5,20.5C 30.5,20.1667 30.5,19.8333 30.5,19.5C 30.6107,18.8826 30.944,18.3826 31.5,18C 30.244,17.5831 29.5774,16.7498 29.5,15.5C 29.369,14.7611 29.5357,14.0944 30,13.5C 31.8884,15.744 33.3884,15.744 34.5,13.5 Z"/></g>
<g><path style="opacity:1" fill="#cba836" d="M 47.5,15.5 C 48.9187,16.4511 50.5853,16.7845 52.5,16.5C 53.791,16.2627 54.791,16.596 55.5,17.5C 54.6554,18.6715 53.9887,20.0048 53.5,21.5C 53.1667,21.5 52.8333,21.5 52.5,21.5C 51.9344,19.9217 50.9344,18.5884 49.5,17.5C 48.8933,17.6236 48.56,17.9569 48.5,18.5C 46.6182,17.779 46.2848,16.779 47.5,15.5 Z"/></g>
<g><path style="opacity:0.788" fill="#cca837" d="M 61.5,13.5 C 63.3725,14.8963 63.7058,16.563 62.5,18.5C 60.7986,19.2114 59.7986,20.5447 59.5,22.5C 59.1667,22.5 58.8333,22.5 58.5,22.5C 57.4975,20.9891 56.8308,19.3224 56.5,17.5C 56.8333,17.5 57.1667,17.5 57.5,17.5C 57.8333,17.5 58.1667,17.5 58.5,17.5C 58.8333,18.8333 59.1667,18.8333 59.5,17.5C 59.8333,16.8333 60.1667,16.1667 60.5,15.5C 61.3382,15.1583 61.6716,14.4916 61.5,13.5 Z"/></g>
<g><path style="opacity:0.051" fill="#d8b737" d="M 26.5,16.5 C 26.8333,17.8333 27.1667,19.1667 27.5,20.5C 27.5,21.1667 27.8333,21.5 28.5,21.5C 28.5,21.8333 28.5,22.1667 28.5,22.5C 26.9582,23.3007 25.2915,23.634 23.5,23.5C 24.2625,22.7321 25.2625,22.2321 26.5,22C 25.6919,21.6924 25.0253,21.1924 24.5,20.5C 24.9943,18.9745 25.661,17.6412 26.5,16.5 Z"/></g>
<g><path style="opacity:0.09" fill="#d9b63f" d="M 27.5,14.5 C 28.1667,14.8333 28.8333,15.1667 29.5,15.5C 29.5774,16.7498 30.244,17.5831 31.5,18C 30.944,18.3826 30.6107,18.8826 30.5,19.5C 29.8333,19.5 29.5,19.8333 29.5,20.5C 28.8333,20.5 28.1667,20.5 27.5,20.5C 27.1667,19.1667 26.8333,17.8333 26.5,16.5C 26.8333,15.8333 27.1667,15.1667 27.5,14.5 Z"/></g>
<g><path style="opacity:0.647" fill="#cfaa31" d="M 37.5,14.5 C 39.1417,16.0808 41.1417,16.7475 43.5,16.5C 43.6107,17.1174 43.944,17.6174 44.5,18C 42.8455,18.6077 41.1789,19.1077 39.5,19.5C 38.2719,18.6935 37.2719,17.6935 36.5,16.5C 36.3284,15.5084 36.6618,14.8417 37.5,14.5 Z"/></g>
<g><path style="opacity:1" fill="#d0ac36" d="M 47.5,15.5 C 46.2848,16.779 46.6182,17.779 48.5,18.5C 47.5,19.1667 46.5,19.8333 45.5,20.5C 42.2297,20.3022 40.2297,21.8022 39.5,25C 40.4158,25.2784 41.0825,25.7784 41.5,26.5C 39.8639,27.7489 38.6972,29.4156 38,31.5C 37.4867,30.4734 36.9867,29.4734 36.5,28.5C 36.8333,27.8333 37.1667,27.1667 37.5,26.5C 38.8333,25.1667 38.8333,23.8333 37.5,22.5C 39.0481,22.1788 39.7148,21.1788 39.5,19.5C 41.1789,19.1077 42.8455,18.6077 44.5,18C 43.944,17.6174 43.6107,17.1174 43.5,16.5C 44.7348,16.2786 45.7348,15.6119 46.5,14.5C 47.1067,14.6236 47.44,14.9569 47.5,15.5 Z"/></g>
<g><path style="opacity:1" fill="#d1ac3b" d="M 52.5,21.5 C 52.5,22.1667 52.1667,22.5 51.5,22.5C 50.4324,21.5655 49.099,21.2322 47.5,21.5C 47.1583,20.6618 46.4916,20.3284 45.5,20.5C 46.5,19.8333 47.5,19.1667 48.5,18.5C 48.56,17.9569 48.8933,17.6236 49.5,17.5C 50.9344,18.5884 51.9344,19.9217 52.5,21.5 Z"/></g>
<g><path style="opacity:1" fill="#c7a533" d="M 55.5,17.5 C 55.8333,17.5 56.1667,17.5 56.5,17.5C 56.8308,19.3224 57.4975,20.9891 58.5,22.5C 58.5,23.1667 58.1667,23.5 57.5,23.5C 57.44,22.9569 57.1067,22.6236 56.5,22.5C 55.4822,23.1925 54.4822,23.8592 53.5,24.5C 53.5,23.5 53.5,22.5 53.5,21.5C 53.9887,20.0048 54.6554,18.6715 55.5,17.5 Z"/></g>
<g><path style="opacity:1" fill="#c49e2a" d="M 34.5,18.5 C 34.8333,18.5 35.1667,18.5 35.5,18.5C 34.8333,19.8333 34.1667,21.1667 33.5,22.5C 31.8333,22.5 30.1667,22.5 28.5,22.5C 28.5,22.1667 28.5,21.8333 28.5,21.5C 29.1667,21.5 29.5,21.1667 29.5,20.5C 29.8333,20.5 30.1667,20.5 30.5,20.5C 31.9952,20.0113 33.3285,19.3446 34.5,18.5 Z"/></g>
<g><path style="opacity:1" fill="#cba533" d="M 36.5,16.5 C 37.2719,17.6935 38.2719,18.6935 39.5,19.5C 39.7148,21.1788 39.0481,22.1788 37.5,22.5C 36.1667,22.5 34.8333,22.5 33.5,22.5C 34.1667,21.1667 34.8333,19.8333 35.5,18.5C 35.3284,17.5084 35.6618,16.8417 36.5,16.5 Z"/></g>
<g><path style="opacity:1" fill="#be9d26" d="M 62.5,18.5 C 65.4058,20.4502 68.4058,22.1169 71.5,23.5C 71.1667,23.5 70.8333,23.5 70.5,23.5C 66.8815,22.7564 63.2148,22.423 59.5,22.5C 59.7986,20.5447 60.7986,19.2114 62.5,18.5 Z"/></g>
<g><path style="opacity:1" fill="#cba939" d="M 52.5,21.5 C 52.8333,21.5 53.1667,21.5 53.5,21.5C 53.5,22.5 53.5,23.5 53.5,24.5C 53.3713,26.2161 53.038,27.8828 52.5,29.5C 51.8333,29.1667 51.1667,28.8333 50.5,28.5C 50.7512,26.8297 51.4178,25.3297 52.5,24C 51.944,23.6174 51.6107,23.1174 51.5,22.5C 52.1667,22.5 52.5,22.1667 52.5,21.5 Z"/></g>
<g><path style="opacity:1" fill="#7c5e07" d="M 28.5,22.5 C 30.1667,22.5 31.8333,22.5 33.5,22.5C 34.8333,22.5 36.1667,22.5 37.5,22.5C 38.8333,23.8333 38.8333,25.1667 37.5,26.5C 35.7085,26.366 34.0418,26.6993 32.5,27.5C 32.5394,26.4168 32.8728,25.4168 33.5,24.5C 31.7015,23.2121 30.0348,23.2121 28.5,24.5C 26.4884,25.0138 24.4884,25.1805 22.5,25C 23.056,24.6174 23.3893,24.1174 23.5,23.5C 25.2915,23.634 26.9582,23.3007 28.5,22.5 Z"/></g>
<g><path style="opacity:1" fill="#6a5205" d="M 58.5,22.5 C 58.8333,22.5 59.1667,22.5 59.5,22.5C 63.2148,22.423 66.8815,22.7564 70.5,23.5C 70.5,24.1667 70.1667,24.5 69.5,24.5C 67.6583,24.2767 65.825,23.9434 64,23.5C 62.6244,23.6842 61.7911,24.3509 61.5,25.5C 61.5,25.8333 61.5,26.1667 61.5,26.5C 60.1667,26.5 58.8333,26.5 57.5,26.5C 57.5,25.5 57.5,24.5 57.5,23.5C 58.1667,23.5 58.5,23.1667 58.5,22.5 Z"/></g>
<g><path style="opacity:1" fill="#d2af3c" d="M 45.5,20.5 C 46.4916,20.3284 47.1583,20.6618 47.5,21.5C 45.3453,21.372 43.3453,21.872 41.5,23C 42.5063,25.8474 43.5063,28.6807 44.5,31.5C 43.4937,31.9377 43.4937,32.6043 44.5,33.5C 44.631,34.2389 44.4643,34.9056 44,35.5C 43.3292,34.7476 42.4959,34.4142 41.5,34.5C 40.7222,33.8444 40.0556,33.0111 39.5,32C 40.8561,30.4329 41.5228,28.5996 41.5,26.5C 41.0825,25.7784 40.4158,25.2784 39.5,25C 40.2297,21.8022 42.2297,20.3022 45.5,20.5 Z"/></g>
<g><path style="opacity:1" fill="#d0ae3a" d="M 57.5,23.5 C 57.5,24.5 57.5,25.5 57.5,26.5C 57.5,26.8333 57.5,27.1667 57.5,27.5C 55.3812,27.4677 54.0478,28.4677 53.5,30.5C 52.8333,30.5 52.5,30.1667 52.5,29.5C 53.038,27.8828 53.3713,26.2161 53.5,24.5C 54.4822,23.8592 55.4822,23.1925 56.5,22.5C 57.1067,22.6236 57.44,22.9569 57.5,23.5 Z"/></g>
<g><path style="opacity:1" fill="#d6b341" d="M 47.5,21.5 C 49.099,21.2322 50.4324,21.5655 51.5,22.5C 51.6107,23.1174 51.944,23.6174 52.5,24C 51.4178,25.3297 50.7512,26.8297 50.5,28.5C 50.5,29.1667 50.5,29.8333 50.5,30.5C 49.8333,30.5 49.1667,30.5 48.5,30.5C 48.44,29.9569 48.1067,29.6236 47.5,29.5C 46.7492,30.376 46.2492,31.376 46,32.5C 45.6174,31.944 45.1174,31.6107 44.5,31.5C 43.5063,28.6807 42.5063,25.8474 41.5,23C 43.3453,21.872 45.3453,21.372 47.5,21.5 Z"/></g>
<g><path style="opacity:1" fill="#93750b" d="M 69.5,24.5 C 68.0484,25.3019 66.3817,25.8019 64.5,26C 65.9007,26.4101 67.234,26.9101 68.5,27.5C 70.3947,28.973 72.0613,30.6397 73.5,32.5C 74.1667,34.5 74.8333,36.5 75.5,38.5C 75.5,39.1667 75.1667,39.5 74.5,39.5C 73.8305,36.1511 72.1639,33.4844 69.5,31.5C 68.73,28.6233 67.0633,27.6233 64.5,28.5C 63.8333,27.1667 62.8333,26.1667 61.5,25.5C 61.7911,24.3509 62.6244,23.6842 64,23.5C 65.825,23.9434 67.6583,24.2767 69.5,24.5 Z"/></g>
<g><path style="opacity:1" fill="#7e6409" d="M 70.5,23.5 C 70.8333,23.5 71.1667,23.5 71.5,23.5C 72.4916,23.3284 73.1583,23.6618 73.5,24.5C 72.7611,24.369 72.0944,24.5357 71.5,25C 73.7472,26.2775 75.7472,27.7775 77.5,29.5C 76.8333,29.5 76.1667,29.5 75.5,29.5C 73.78,28.1359 71.78,27.1359 69.5,26.5C 68.8933,26.6236 68.56,26.9569 68.5,27.5C 67.234,26.9101 65.9007,26.4101 64.5,26C 66.3817,25.8019 68.0484,25.3019 69.5,24.5C 70.1667,24.5 70.5,24.1667 70.5,23.5 Z"/></g>
<g><path style="opacity:1" fill="#97730c" d="M 23.5,23.5 C 23.3893,24.1174 23.056,24.6174 22.5,25C 24.4884,25.1805 26.4884,25.0138 28.5,24.5C 28.5,24.8333 28.5,25.1667 28.5,25.5C 26.1667,26.1667 23.8333,26.8333 21.5,27.5C 20.2617,27.19 20.2617,26.69 21.5,26C 20.9056,25.5357 20.2389,25.369 19.5,25.5C 20.5137,24.3263 21.847,23.6596 23.5,23.5 Z"/></g>
<g><path style="opacity:1" fill="#6f5806" d="M 73.5,24.5 C 75.3797,24.2291 76.713,24.8958 77.5,26.5C 77.9528,27.4584 78.6195,28.2917 79.5,29C 78.9056,29.4643 78.2389,29.631 77.5,29.5C 75.7472,27.7775 73.7472,26.2775 71.5,25C 72.0944,24.5357 72.7611,24.369 73.5,24.5 Z"/></g>
<g><path style="opacity:1" fill="#5e4802" d="M 61.5,25.5 C 62.8333,26.1667 63.8333,27.1667 64.5,28.5C 64.9321,29.7095 65.5987,30.7095 66.5,31.5C 66.2444,34.5979 65.5778,37.5979 64.5,40.5C 63.8333,40.5 63.1667,40.5 62.5,40.5C 64.5456,37.2159 64.8789,33.8826 63.5,30.5C 63.2671,28.9382 62.6005,27.6049 61.5,26.5C 61.5,26.1667 61.5,25.8333 61.5,25.5 Z"/></g>
<g><path style="opacity:1" fill="#3b2c05" d="M 28.5,25.5 C 28.5,25.8333 28.5,26.1667 28.5,26.5C 25.7573,28.2393 23.7573,30.5726 22.5,33.5C 21.2719,34.3065 20.2719,35.3065 19.5,36.5C 19.9052,34.3502 20.4052,32.3502 21,30.5C 19.0077,31.3281 17.5077,32.6614 16.5,34.5C 16.1667,34.5 15.8333,34.5 15.5,34.5C 15.5,33.8333 15.1667,33.5 14.5,33.5C 16.8333,31.5 19.1667,29.5 21.5,27.5C 23.8333,26.8333 26.1667,26.1667 28.5,25.5 Z"/></g>
<g><path style="opacity:1" fill="#967308" d="M 32.5,27.5 C 32.6716,28.4916 32.3382,29.1583 31.5,29.5C 31.5654,29.0618 31.3988,28.7284 31,28.5C 29.9054,29.6934 29.072,31.0267 28.5,32.5C 28.1667,32.5 27.8333,32.5 27.5,32.5C 27.5,31.5 27.5,30.5 27.5,29.5C 27.9528,28.5416 28.6195,27.7083 29.5,27C 29.2716,26.6012 28.9382,26.4346 28.5,26.5C 28.5,26.1667 28.5,25.8333 28.5,25.5C 28.5,25.1667 28.5,24.8333 28.5,24.5C 30.0348,23.2121 31.7015,23.2121 33.5,24.5C 32.8728,25.4168 32.5394,26.4168 32.5,27.5 Z"/></g>
<g><path style="opacity:1" fill="#302501" d="M 68.5,27.5 C 68.56,26.9569 68.8933,26.6236 69.5,26.5C 71.78,27.1359 73.78,28.1359 75.5,29.5C 75.1667,29.5 74.8333,29.5 74.5,29.5C 73.7611,29.369 73.0944,29.5357 72.5,30C 73.2524,30.6708 73.5858,31.5041 73.5,32.5C 72.0613,30.6397 70.3947,28.973 68.5,27.5 Z"/></g>
<g><path style="opacity:1" fill="#795d00" d="M 69.5,31.5 C 68.8333,31.5 68.5,31.8333 68.5,32.5C 67.8333,32.1667 67.1667,31.8333 66.5,31.5C 65.5987,30.7095 64.9321,29.7095 64.5,28.5C 67.0633,27.6233 68.73,28.6233 69.5,31.5 Z"/></g>
<g><path style="opacity:1" fill="#725402" d="M 19.5,25.5 C 20.2389,25.369 20.9056,25.5357 21.5,26C 20.2617,26.69 20.2617,27.19 21.5,27.5C 19.1667,29.5 16.8333,31.5 14.5,33.5C 13.1667,34.5 11.8333,35.5 10.5,36.5C 10.5,35.8333 10.5,35.1667 10.5,34.5C 13.1938,31.1395 16.1938,28.1395 19.5,25.5 Z"/></g>
<g><path style="opacity:1" fill="#c3a22e" d="M 57.5,27.5 C 57.5,27.1667 57.5,26.8333 57.5,26.5C 58.8333,26.5 60.1667,26.5 61.5,26.5C 62.6005,27.6049 63.2671,28.9382 63.5,30.5C 63.2178,31.7777 62.5511,32.7777 61.5,33.5C 59.4508,33.2942 59.1175,32.4609 60.5,31C 59.8366,29.4815 58.8366,28.3149 57.5,27.5 Z"/></g>
<g><path style="opacity:1" fill="#886d08" d="M 77.5,26.5 C 81.8333,28.8333 85.1667,32.1667 87.5,36.5C 86.2058,35.7101 85.0391,34.7101 84,33.5C 83.6174,34.056 83.1174,34.3893 82.5,34.5C 80.5,33.1667 78.8333,31.5 77.5,29.5C 78.2389,29.631 78.9056,29.4643 79.5,29C 78.6195,28.2917 77.9528,27.4584 77.5,26.5 Z"/></g>
<g><path style="opacity:1" fill="#c19f29" d="M 37.5,26.5 C 37.1667,27.1667 36.8333,27.8333 36.5,28.5C 35.6083,30.4417 36.275,32.1084 38.5,33.5C 38.3764,34.1067 38.0431,34.44 37.5,34.5C 37.19,33.2617 36.69,33.2617 36,34.5C 35.6339,36.4517 34.8005,38.1184 33.5,39.5C 30.3459,36.7991 29.6792,33.4658 31.5,29.5C 32.3382,29.1583 32.6716,28.4916 32.5,27.5C 34.0418,26.6993 35.7085,26.366 37.5,26.5 Z"/></g>
<g><path style="opacity:1" fill="#caa831" d="M 41.5,26.5 C 41.5228,28.5996 40.8561,30.4329 39.5,32C 40.0556,33.0111 40.7222,33.8444 41.5,34.5C 41.8885,35.6908 41.8885,37.0241 41.5,38.5C 40.7582,36.6503 39.7582,35.9836 38.5,36.5C 37.6618,36.1583 37.3284,35.4916 37.5,34.5C 38.0431,34.44 38.3764,34.1067 38.5,33.5C 36.275,32.1084 35.6083,30.4417 36.5,28.5C 36.9867,29.4734 37.4867,30.4734 38,31.5C 38.6972,29.4156 39.8639,27.7489 41.5,26.5 Z"/></g>
<g><path style="opacity:1" fill="#a57c0e" d="M 19.5,25.5 C 16.1938,28.1395 13.1938,31.1395 10.5,34.5C 10.1667,34.5 9.83333,34.5 9.5,34.5C 9.5,34.1667 9.5,33.8333 9.5,33.5C 11.9626,29.6998 15.296,27.0332 19.5,25.5 Z"/></g>
<g><path style="opacity:1" fill="#a17b07" d="M 28.5,26.5 C 28.9382,26.4346 29.2716,26.6012 29.5,27C 28.6195,27.7083 27.9528,28.5416 27.5,29.5C 25.8333,30.5 24.5,31.8333 23.5,33.5C 23.1667,33.5 22.8333,33.5 22.5,33.5C 23.7573,30.5726 25.7573,28.2393 28.5,26.5 Z"/></g>
<g><path style="opacity:1" fill="#c9a835" d="M 57.5,27.5 C 58.8366,28.3149 59.8366,29.4815 60.5,31C 59.1175,32.4609 59.4508,33.2942 61.5,33.5C 59.2771,34.1815 57.9437,35.1815 57.5,36.5C 55.7104,34.7278 54.3771,32.7278 53.5,30.5C 54.0478,28.4677 55.3812,27.4677 57.5,27.5 Z"/></g>
<g><path style="opacity:1" fill="#3d2d02" d="M 27.5,29.5 C 27.5,30.5 27.5,31.5 27.5,32.5C 26.5773,36.0641 26.244,39.7307 26.5,43.5C 26.6716,44.4916 26.3382,45.1583 25.5,45.5C 25.665,42.1501 25.4983,38.8168 25,35.5C 24.2828,36.0442 23.7828,36.7109 23.5,37.5C 21.9925,39.1815 20.9925,41.1815 20.5,43.5C 19.8333,43.5 19.5,43.1667 19.5,42.5C 20.5612,39.3777 21.8946,36.3777 23.5,33.5C 24.5,31.8333 25.8333,30.5 27.5,29.5 Z"/></g>
<g><path style="opacity:1" fill="#7a5e06" d="M 48.5,30.5 C 48.5,31.1667 48.5,31.8333 48.5,32.5C 47.1429,33.5903 46.1429,34.9236 45.5,36.5C 45.7373,35.209 45.404,34.209 44.5,33.5C 43.4937,32.6043 43.4937,31.9377 44.5,31.5C 45.1174,31.6107 45.6174,31.944 46,32.5C 46.2492,31.376 46.7492,30.376 47.5,29.5C 48.1067,29.6236 48.44,29.9569 48.5,30.5 Z"/></g>
<g><path style="opacity:1" fill="#322701" d="M 69.5,31.5 C 72.1639,33.4844 73.8305,36.1511 74.5,39.5C 75.2341,40.7079 75.5674,42.0413 75.5,43.5C 74.3127,41.9275 73.3127,40.2608 72.5,38.5C 72.1667,37.8333 71.8333,37.1667 71.5,36.5C 70.8333,35.1667 69.8333,34.1667 68.5,33.5C 68.5,33.1667 68.5,32.8333 68.5,32.5C 68.5,31.8333 68.8333,31.5 69.5,31.5 Z"/></g>
<g><path style="opacity:1" fill="#322701" d="M 74.5,29.5 C 74.8333,29.5 75.1667,29.5 75.5,29.5C 76.1667,29.5 76.8333,29.5 77.5,29.5C 78.8333,31.5 80.5,33.1667 82.5,34.5C 83.925,35.922 84.925,37.5887 85.5,39.5C 83.1667,37.5 80.8333,35.5 78.5,33.5C 77.5,32.8333 76.5,32.1667 75.5,31.5C 75.1667,30.8333 74.8333,30.1667 74.5,29.5 Z"/></g>
<g><path style="opacity:1" fill="#6e5503" d="M 50.5,28.5 C 51.1667,28.8333 51.8333,29.1667 52.5,29.5C 52.5,30.1667 52.8333,30.5 53.5,30.5C 54.3771,32.7278 55.7104,34.7278 57.5,36.5C 57.5,36.8333 57.5,37.1667 57.5,37.5C 57.5,37.8333 57.5,38.1667 57.5,38.5C 55.8058,37.4726 54.4725,36.1392 53.5,34.5C 53.0133,33.5266 52.5133,32.5266 52,31.5C 49.8215,32.8398 49.3215,32.5065 50.5,30.5C 50.5,29.8333 50.5,29.1667 50.5,28.5 Z"/></g>
<g><path style="opacity:1" fill="#513f0d" d="M 74.5,29.5 C 74.8333,30.1667 75.1667,30.8333 75.5,31.5C 74.9569,31.56 74.6236,31.8933 74.5,32.5C 75.7472,34.323 76.4139,36.323 76.5,38.5C 76.1667,38.5 75.8333,38.5 75.5,38.5C 74.8333,36.5 74.1667,34.5 73.5,32.5C 73.5858,31.5041 73.2524,30.6708 72.5,30C 73.0944,29.5357 73.7611,29.369 74.5,29.5 Z"/></g>
<g><path style="opacity:1" fill="#332601" d="M 14.5,33.5 C 15.1667,33.5 15.5,33.8333 15.5,34.5C 13.4131,35.5846 12.0798,37.2512 11.5,39.5C 10.5,40.1667 9.5,40.8333 8.5,41.5C 9.16667,39.8333 9.83333,38.1667 10.5,36.5C 11.8333,35.5 13.1667,34.5 14.5,33.5 Z"/></g>
<g><path style="opacity:1" fill="#816201" d="M 22.5,33.5 C 22.8333,33.5 23.1667,33.5 23.5,33.5C 21.8946,36.3777 20.5612,39.3777 19.5,42.5C 18.7093,40.6907 18.7093,38.6907 19.5,36.5C 20.2719,35.3065 21.2719,34.3065 22.5,33.5 Z"/></g>
<g><path style="opacity:1" fill="#c9a531" d="M 44.5,33.5 C 45.404,34.209 45.7373,35.209 45.5,36.5C 45.4431,37.609 45.1098,38.609 44.5,39.5C 42.8041,41.129 41.8041,40.7957 41.5,38.5C 41.8885,37.0241 41.8885,35.6908 41.5,34.5C 42.4959,34.4142 43.3292,34.7476 44,35.5C 44.4643,34.9056 44.631,34.2389 44.5,33.5 Z"/></g>
<g><path style="opacity:1" fill="#896b03" d="M 78.5,33.5 C 80.8333,35.5 83.1667,37.5 85.5,39.5C 85.427,41.0269 86.0937,42.0269 87.5,42.5C 87.8333,43.8333 88.1667,45.1667 88.5,46.5C 87.8333,46.5 87.1667,46.5 86.5,46.5C 86.5,45.8333 86.1667,45.5 85.5,45.5C 84.7367,41.6304 82.7367,38.6304 79.5,36.5C 78.8902,35.609 78.5569,34.609 78.5,33.5 Z"/></g>
<g><path style="opacity:1" fill="#866908" d="M 48.5,30.5 C 49.1667,30.5 49.8333,30.5 50.5,30.5C 49.3215,32.5065 49.8215,32.8398 52,31.5C 52.5133,32.5266 53.0133,33.5266 53.5,34.5C 52.9473,36.5518 51.9473,36.8852 50.5,35.5C 49.8333,34.5 49.1667,33.5 48.5,32.5C 48.5,31.8333 48.5,31.1667 48.5,30.5 Z"/></g>
<g><path style="opacity:1" fill="#d9b13a" d="M 19.5,36.5 C 19.1667,36.5 18.8333,36.5 18.5,36.5C 18.5654,36.0618 18.3988,35.7284 18,35.5C 17.7216,36.4158 17.2216,37.0825 16.5,37.5C 15.2058,38.2899 14.0391,39.2899 13,40.5C 12.8333,40.1667 12.6667,39.8333 12.5,39.5C 13.8569,37.8144 15.1902,36.1477 16.5,34.5C 17.5077,32.6614 19.0077,31.3281 21,30.5C 20.4052,32.3502 19.9052,34.3502 19.5,36.5 Z"/></g>
<g><path style="opacity:1" fill="#917204" d="M 66.5,31.5 C 67.1667,31.8333 67.8333,32.1667 68.5,32.5C 68.5,32.8333 68.5,33.1667 68.5,33.5C 68.5,37.1667 68.5,40.8333 68.5,44.5C 68.1667,44.5 67.8333,44.5 67.5,44.5C 67.6641,41.8127 67.4974,39.146 67,36.5C 66.7996,38.3197 65.9663,39.653 64.5,40.5C 65.5778,37.5979 66.2444,34.5979 66.5,31.5 Z"/></g>
<g><path style="opacity:1" fill="#967406" d="M 27.5,32.5 C 27.8333,32.5 28.1667,32.5 28.5,32.5C 28.5674,33.9587 28.2341,35.2921 27.5,36.5C 27.8016,39.0593 27.4682,41.3926 26.5,43.5C 26.244,39.7307 26.5773,36.0641 27.5,32.5 Z"/></g>
<g><path style="opacity:1" fill="#6a5201" d="M 31.5,29.5 C 29.6792,33.4658 30.3459,36.7991 33.5,39.5C 35.0764,40.1429 36.4097,41.1429 37.5,42.5C 34.3188,42.1116 31.6522,40.7782 29.5,38.5C 28.8333,37.8333 28.1667,37.1667 27.5,36.5C 28.2341,35.2921 28.5674,33.9587 28.5,32.5C 29.072,31.0267 29.9054,29.6934 31,28.5C 31.3988,28.7284 31.5654,29.0618 31.5,29.5 Z"/></g>
<g><path style="opacity:1" fill="#7f6303" d="M 50.5,35.5 C 51.9473,36.8852 52.9473,36.5518 53.5,34.5C 54.4725,36.1392 55.8058,37.4726 57.5,38.5C 57.1583,39.3382 56.4916,39.6716 55.5,39.5C 54.4324,38.5655 53.099,38.2322 51.5,38.5C 49.8041,36.871 48.8041,37.2043 48.5,39.5C 48.1667,39.5 47.8333,39.5 47.5,39.5C 47.5,38.8333 47.1667,38.5 46.5,38.5C 46.6781,35.2546 48.0114,34.2546 50.5,35.5 Z"/></g>
<g><path style="opacity:1" fill="#ba9823" d="M 63.5,30.5 C 64.8789,33.8826 64.5456,37.2159 62.5,40.5C 61.5,40.5 60.5,40.5 59.5,40.5C 59.7148,38.8212 59.0481,37.8212 57.5,37.5C 57.5,37.1667 57.5,36.8333 57.5,36.5C 57.9437,35.1815 59.2771,34.1815 61.5,33.5C 62.5511,32.7777 63.2178,31.7777 63.5,30.5 Z"/></g>
<g><path style="opacity:1" fill="#52420f" d="M 68.5,33.5 C 69.8333,34.1667 70.8333,35.1667 71.5,36.5C 70.4192,39.6267 69.7526,42.9601 69.5,46.5C 68.6618,46.1583 68.3284,45.4916 68.5,44.5C 68.5,40.8333 68.5,37.1667 68.5,33.5 Z"/></g>
<g><path style="opacity:0.576" fill="#b48c0e" d="M 9.5,33.5 C 9.5,33.8333 9.5,34.1667 9.5,34.5C 7.57973,37.3388 5.91306,40.3388 4.5,43.5C 4.16667,43.5 3.83333,43.5 3.5,43.5C 4.4977,39.4945 6.4977,36.1612 9.5,33.5 Z"/></g>
<g><path style="opacity:1" fill="#554001" d="M 9.5,34.5 C 9.83333,34.5 10.1667,34.5 10.5,34.5C 10.5,35.1667 10.5,35.8333 10.5,36.5C 9.83333,38.1667 9.16667,39.8333 8.5,41.5C 8.67158,42.4916 8.33825,43.1583 7.5,43.5C 6.79778,42.8843 5.79778,42.8843 4.5,43.5C 5.91306,40.3388 7.57973,37.3388 9.5,34.5 Z"/></g>
<g><path style="opacity:1" fill="#c09a2a" d="M 15.5,34.5 C 15.8333,34.5 16.1667,34.5 16.5,34.5C 15.1902,36.1477 13.8569,37.8144 12.5,39.5C 12.6667,39.8333 12.8333,40.1667 13,40.5C 14.0391,39.2899 15.2058,38.2899 16.5,37.5C 16.5674,38.9587 16.2341,40.2921 15.5,41.5C 14.2502,41.5774 13.4169,42.244 13,43.5C 12.7216,42.5842 12.2216,41.9175 11.5,41.5C 11.5,40.8333 11.5,40.1667 11.5,39.5C 12.0798,37.2512 13.4131,35.5846 15.5,34.5 Z"/></g>
<g><path style="opacity:1" fill="#b7961f" d="M 37.5,34.5 C 37.3284,35.4916 37.6618,36.1583 38.5,36.5C 39.2751,38.6119 39.2751,40.6119 38.5,42.5C 38.1667,42.5 37.8333,42.5 37.5,42.5C 36.4097,41.1429 35.0764,40.1429 33.5,39.5C 34.8005,38.1184 35.6339,36.4517 36,34.5C 36.69,33.2617 37.19,33.2617 37.5,34.5 Z"/></g>
<g><path style="opacity:1" fill="#c1a02a" d="M 41.5,38.5 C 41.8041,40.7957 42.8041,41.129 44.5,39.5C 44.7373,40.791 44.404,41.791 43.5,42.5C 41.8333,43.8333 40.1667,43.8333 38.5,42.5C 39.2751,40.6119 39.2751,38.6119 38.5,36.5C 39.7582,35.9836 40.7582,36.6503 41.5,38.5 Z"/></g>
<g><path style="opacity:1" fill="#4b3902" d="M 48.5,32.5 C 49.1667,33.5 49.8333,34.5 50.5,35.5C 48.0114,34.2546 46.6781,35.2546 46.5,38.5C 45.612,41.0545 45.2786,43.7212 45.5,46.5C 44.6554,45.3285 43.9887,43.9952 43.5,42.5C 44.404,41.791 44.7373,40.791 44.5,39.5C 45.1098,38.609 45.4431,37.609 45.5,36.5C 46.1429,34.9236 47.1429,33.5903 48.5,32.5 Z"/></g>
<g><path style="opacity:1" fill="#705504" d="M 87.5,36.5 C 88.9063,36.9731 89.573,37.9731 89.5,39.5C 88.1667,39.5 86.8333,39.5 85.5,39.5C 84.925,37.5887 83.925,35.922 82.5,34.5C 83.1174,34.3893 83.6174,34.056 84,33.5C 85.0391,34.7101 86.2058,35.7101 87.5,36.5 Z"/></g>
<g><path style="opacity:1" fill="#e1c759" d="M 75.5,31.5 C 76.5,32.1667 77.5,32.8333 78.5,33.5C 78.5569,34.609 78.8902,35.609 79.5,36.5C 78.8333,36.5 78.5,36.8333 78.5,37.5C 79.0222,40.2529 79.8555,42.9196 81,45.5C 81.3826,44.944 81.8826,44.6107 82.5,44.5C 83.1667,44.5 83.5,44.8333 83.5,45.5C 81.7376,46.2623 80.7376,47.5956 80.5,49.5C 79.8333,48.1667 79.1667,46.8333 78.5,45.5C 78.5,44.8333 78.5,44.1667 78.5,43.5C 78.2041,41.597 77.5375,39.9303 76.5,38.5C 76.4139,36.323 75.7472,34.323 74.5,32.5C 74.6236,31.8933 74.9569,31.56 75.5,31.5 Z"/></g>
<g><path style="opacity:1" fill="#cbad3b" d="M 78.5,37.5 C 80.8524,39.178 82.1857,41.5113 82.5,44.5C 81.8826,44.6107 81.3826,44.944 81,45.5C 79.8555,42.9196 79.0222,40.2529 78.5,37.5 Z"/></g>
<g><path style="opacity:1" fill="#403104" d="M 51.5,38.5 C 51.9175,39.2216 52.5842,39.7216 53.5,40C 52.8071,41.6837 52.4737,43.1837 52.5,44.5C 51.1667,42.8333 49.8333,41.1667 48.5,39.5C 48.8041,37.2043 49.8041,36.871 51.5,38.5 Z"/></g>
<g><path style="opacity:1" fill="#433404" d="M 57.5,37.5 C 59.0481,37.8212 59.7148,38.8212 59.5,40.5C 60.5,40.5 61.5,40.5 62.5,40.5C 61.3285,41.3446 59.9952,42.0113 58.5,42.5C 57.1667,41.8333 56.1667,40.8333 55.5,39.5C 56.4916,39.6716 57.1583,39.3382 57.5,38.5C 57.5,38.1667 57.5,37.8333 57.5,37.5 Z"/></g>
<g><path style="opacity:1" fill="#302401" d="M 29.5,39.5 C 30.1667,40.8333 31.1667,41.8333 32.5,42.5C 32.5,42.8333 32.5,43.1667 32.5,43.5C 32.1667,43.5 31.8333,43.5 31.5,43.5C 29.744,44.5521 29.0773,46.2188 29.5,48.5C 29.1667,48.5 28.8333,48.5 28.5,48.5C 28.19,45.2869 28.5233,42.2869 29.5,39.5 Z"/></g>
<g><path style="opacity:1" fill="#99760d" d="M 29.5,38.5 C 31.6522,40.7782 34.3188,42.1116 37.5,42.5C 38.5063,43.3957 38.5063,44.0623 37.5,44.5C 35.9505,43.5592 34.2838,42.8925 32.5,42.5C 31.1667,41.8333 30.1667,40.8333 29.5,39.5C 29.5,39.1667 29.5,38.8333 29.5,38.5 Z"/></g>
<g><path style="opacity:1" fill="#4b3a02" d="M 89.5,39.5 C 89.5569,40.609 89.8902,41.609 90.5,42.5C 89.5,43.8333 88.5,43.8333 87.5,42.5C 86.0937,42.0269 85.427,41.0269 85.5,39.5C 86.8333,39.5 88.1667,39.5 89.5,39.5 Z"/></g>
<g><path style="opacity:1" fill="#96770b" d="M 62.5,40.5 C 63.1667,40.5 63.8333,40.5 64.5,40.5C 64.1667,41.5 63.5,42.1667 62.5,42.5C 60.3131,43.758 57.9798,44.758 55.5,45.5C 56.3065,44.2719 57.3065,43.2719 58.5,42.5C 59.9952,42.0113 61.3285,41.3446 62.5,40.5 Z"/></g>
<g><path style="opacity:1" fill="#584406" d="M 75.5,38.5 C 75.8333,38.5 76.1667,38.5 76.5,38.5C 77.5375,39.9303 78.2041,41.597 78.5,43.5C 77.7321,44.2625 77.2321,45.2625 77,46.5C 76.7679,45.2625 76.2679,44.2625 75.5,43.5C 75.5674,42.0413 75.2341,40.7079 74.5,39.5C 75.1667,39.5 75.5,39.1667 75.5,38.5 Z"/></g>
<g><path style="opacity:1" fill="#cfb13d" d="M 78.5,37.5 C 78.5,36.8333 78.8333,36.5 79.5,36.5C 82.7367,38.6304 84.7367,41.6304 85.5,45.5C 84.8333,45.5 84.1667,45.5 83.5,45.5C 83.5,44.8333 83.1667,44.5 82.5,44.5C 82.1857,41.5113 80.8524,39.178 78.5,37.5 Z"/></g>
<g><path style="opacity:1" fill="#493602" d="M 7.5,43.5 C 6.97168,44.7206 6.30501,45.8873 5.5,47C 6.09442,47.4643 6.76109,47.631 7.5,47.5C 7.83333,47.5 8.16667,47.5 8.5,47.5C 8.15829,48.3382 7.49162,48.6716 6.5,48.5C 5.0357,47.5946 3.70236,47.5946 2.5,48.5C 3.038,46.8828 3.37133,45.2161 3.5,43.5C 3.83333,43.5 4.16667,43.5 4.5,43.5C 5.79778,42.8843 6.79778,42.8843 7.5,43.5 Z"/></g>
<g><path style="opacity:1" fill="#916a03" d="M 11.5,39.5 C 11.5,40.1667 11.5,40.8333 11.5,41.5C 10.3263,42.5137 9.6596,43.847 9.5,45.5C 8.5,45.8333 7.83333,46.5 7.5,47.5C 6.76109,47.631 6.09442,47.4643 5.5,47C 6.30501,45.8873 6.97168,44.7206 7.5,43.5C 8.33825,43.1583 8.67158,42.4916 8.5,41.5C 9.5,40.8333 10.5,40.1667 11.5,39.5 Z"/></g>
<g><path style="opacity:1" fill="#daae3e" d="M 11.5,41.5 C 12.2216,41.9175 12.7216,42.5842 13,43.5C 13.4169,42.244 14.2502,41.5774 15.5,41.5C 15.762,42.9778 15.4287,44.3112 14.5,45.5C 13.3132,44.3473 12.3132,44.3473 11.5,45.5C 10.8333,45.5 10.1667,45.5 9.5,45.5C 9.6596,43.847 10.3263,42.5137 11.5,41.5 Z"/></g>
<g><path style="opacity:1" fill="#debc4e" d="M 25.5,45.5 C 25.5,46.1667 25.8333,46.5 26.5,46.5C 26.2322,48.099 26.5655,49.4324 27.5,50.5C 27.4142,51.4959 27.7476,52.3292 28.5,53C 27.9056,53.4643 27.2389,53.631 26.5,53.5C 26.1667,52.8333 25.8333,52.1667 25.5,51.5C 24.9366,48.6265 23.9366,45.9598 22.5,43.5C 23.1495,41.5648 23.4828,39.5648 23.5,37.5C 23.7828,36.7109 24.2828,36.0442 25,35.5C 25.4983,38.8168 25.665,42.1501 25.5,45.5 Z"/></g>
<g><path style="opacity:1" fill="#332403" d="M 31.5,43.5 C 31.8333,43.5 32.1667,43.5 32.5,43.5C 35.5791,45.5749 37.9125,48.2416 39.5,51.5C 39.5,52.1667 39.5,52.8333 39.5,53.5C 37.9373,52.0552 36.604,50.3885 35.5,48.5C 34.1667,46.8333 32.8333,45.1667 31.5,43.5 Z"/></g>
<g><path style="opacity:1" fill="#4a3a02" d="M 87.5,42.5 C 88.5,43.8333 89.5,43.8333 90.5,42.5C 91.1098,43.391 91.4431,44.391 91.5,45.5C 90.7611,45.369 90.0944,45.5357 89.5,46C 90.5954,48.975 90.2621,49.1417 88.5,46.5C 88.1667,45.1667 87.8333,43.8333 87.5,42.5 Z"/></g>
<g><path style="opacity:1" fill="#896702" d="M 23.5,37.5 C 23.4828,39.5648 23.1495,41.5648 22.5,43.5C 21.596,44.209 21.2627,45.209 21.5,46.5C 20.8333,46.8333 20.1667,47.1667 19.5,47.5C 19.8333,46.1667 20.1667,44.8333 20.5,43.5C 20.9925,41.1815 21.9925,39.1815 23.5,37.5 Z"/></g>
<g><path style="opacity:1" fill="#674c01" d="M 27.5,36.5 C 28.1667,37.1667 28.8333,37.8333 29.5,38.5C 29.5,38.8333 29.5,39.1667 29.5,39.5C 28.5233,42.2869 28.19,45.2869 28.5,48.5C 27.8333,47.8333 27.1667,47.1667 26.5,46.5C 25.8333,46.5 25.5,46.1667 25.5,45.5C 26.3382,45.1583 26.6716,44.4916 26.5,43.5C 27.4682,41.3926 27.8016,39.0593 27.5,36.5 Z"/></g>
<g><path style="opacity:1" fill="#7e6106" d="M 37.5,42.5 C 37.8333,42.5 38.1667,42.5 38.5,42.5C 40.1667,43.8333 41.8333,43.8333 43.5,42.5C 43.9887,43.9952 44.6554,45.3285 45.5,46.5C 45.8333,47.1667 46.1667,47.8333 46.5,48.5C 46.7678,50.099 46.4345,51.4324 45.5,52.5C 45.5,52.1667 45.5,51.8333 45.5,51.5C 45.6308,48.6333 44.2974,46.9666 41.5,46.5C 40.1667,45.8333 38.8333,45.1667 37.5,44.5C 38.5063,44.0623 38.5063,43.3957 37.5,42.5 Z"/></g>
<g><path style="opacity:1" fill="#6e540a" d="M 51.5,38.5 C 53.099,38.2322 54.4324,38.5655 55.5,39.5C 56.1667,40.8333 57.1667,41.8333 58.5,42.5C 57.3065,43.2719 56.3065,44.2719 55.5,45.5C 55.5,45.8333 55.5,46.1667 55.5,46.5C 54.5,46.5 53.5,46.5 52.5,46.5C 52.5,45.8333 52.5,45.1667 52.5,44.5C 52.4737,43.1837 52.8071,41.6837 53.5,40C 52.5842,39.7216 51.9175,39.2216 51.5,38.5 Z"/></g>
<g><path style="opacity:1" fill="#372a01" d="M 67.5,44.5 C 66.5655,45.5676 66.2322,46.901 66.5,48.5C 66.1667,48.5 65.8333,48.5 65.5,48.5C 65.6602,46.8008 65.4935,45.1341 65,43.5C 64.6174,44.056 64.1174,44.3893 63.5,44.5C 63.5,43.8333 63.1667,43.5 62.5,43.5C 62.5,43.1667 62.5,42.8333 62.5,42.5C 63.5,42.1667 64.1667,41.5 64.5,40.5C 65.9663,39.653 66.7996,38.3197 67,36.5C 67.4974,39.146 67.6641,41.8127 67.5,44.5 Z"/></g>
<g><path style="opacity:1" fill="#d9b947" d="M 71.5,36.5 C 71.8333,37.1667 72.1667,37.8333 72.5,38.5C 72.8297,41.157 73.163,43.8236 73.5,46.5C 73.2755,48.4547 72.6089,50.1213 71.5,51.5C 70.1667,52.1667 68.8333,52.8333 67.5,53.5C 67.5,52.8333 67.5,52.1667 67.5,51.5C 68.3092,49.9724 68.9759,48.3057 69.5,46.5C 69.7526,42.9601 70.4192,39.6267 71.5,36.5 Z"/></g>
<g><path style="opacity:1" fill="#f0d26c" d="M 18.5,36.5 C 17.6766,39.4606 17.01,42.4606 16.5,45.5C 16.6602,47.1992 16.4935,48.8659 16,50.5C 15.6174,49.944 15.1174,49.6107 14.5,49.5C 14.2624,47.5956 13.2624,46.2623 11.5,45.5C 12.3132,44.3473 13.3132,44.3473 14.5,45.5C 15.4287,44.3112 15.762,42.9778 15.5,41.5C 16.2341,40.2921 16.5674,38.9587 16.5,37.5C 17.2216,37.0825 17.7216,36.4158 18,35.5C 18.3988,35.7284 18.5654,36.0618 18.5,36.5 Z"/></g>
<g><path style="opacity:1" fill="#866203" d="M 31.5,43.5 C 32.8333,45.1667 34.1667,46.8333 35.5,48.5C 33.8297,48.2488 32.3297,47.5822 31,46.5C 30.5357,47.0944 30.369,47.7611 30.5,48.5C 30.1667,48.5 29.8333,48.5 29.5,48.5C 29.0773,46.2188 29.744,44.5521 31.5,43.5 Z"/></g>
<g><path style="opacity:1" fill="#594202" d="M 32.5,43.5 C 32.5,43.1667 32.5,42.8333 32.5,42.5C 34.2838,42.8925 35.9505,43.5592 37.5,44.5C 38.8333,45.1667 40.1667,45.8333 41.5,46.5C 40.448,46.3505 39.448,46.5172 38.5,47C 39.3805,47.7083 40.0472,48.5416 40.5,49.5C 39.6618,49.8417 39.3284,50.5084 39.5,51.5C 37.9125,48.2416 35.5791,45.5749 32.5,43.5 Z"/></g>
<g><path style="opacity:1" fill="#a78724" d="M 46.5,38.5 C 47.1667,38.5 47.5,38.8333 47.5,39.5C 47.5,42.5 47.5,45.5 47.5,48.5C 47.1667,48.5 46.8333,48.5 46.5,48.5C 46.1667,47.8333 45.8333,47.1667 45.5,46.5C 45.2786,43.7212 45.612,41.0545 46.5,38.5 Z"/></g>
<g><path style="opacity:1" fill="#916f06" d="M 48.5,39.5 C 49.8333,41.1667 51.1667,42.8333 52.5,44.5C 52.5,45.1667 52.5,45.8333 52.5,46.5C 51.5,46.8333 50.8333,47.5 50.5,48.5C 49.8333,47.1667 49.1667,45.8333 48.5,44.5C 48.5,42.8333 48.5,41.1667 48.5,39.5 Z"/></g>
<g><path style="opacity:1" fill="#4d3c01" d="M 62.5,42.5 C 62.5,42.8333 62.5,43.1667 62.5,43.5C 60.5,44.8333 58.8333,46.5 57.5,48.5C 56.8333,48.5 56.1667,48.5 55.5,48.5C 56.5063,47.6043 56.5063,46.9377 55.5,46.5C 55.5,46.1667 55.5,45.8333 55.5,45.5C 57.9798,44.758 60.3131,43.758 62.5,42.5 Z"/></g>
<g><path style="opacity:1" fill="#231903" d="M 9.5,45.5 C 10.1667,45.5 10.8333,45.5 11.5,45.5C 13.2624,46.2623 14.2624,47.5956 14.5,49.5C 14.1667,49.5 13.8333,49.5 13.5,49.5C 12.3646,47.7868 10.698,47.1201 8.5,47.5C 8.16667,47.5 7.83333,47.5 7.5,47.5C 7.83333,46.5 8.5,45.8333 9.5,45.5 Z"/></g>
<g><path style="opacity:1" fill="#513c06" d="M 18.5,36.5 C 18.8333,36.5 19.1667,36.5 19.5,36.5C 18.7093,38.6907 18.7093,40.6907 19.5,42.5C 19.5,43.1667 19.8333,43.5 20.5,43.5C 20.1667,44.8333 19.8333,46.1667 19.5,47.5C 19.5,48.1667 19.1667,48.5 18.5,48.5C 18.0679,47.2905 17.4013,46.2905 16.5,45.5C 17.01,42.4606 17.6766,39.4606 18.5,36.5 Z"/></g>
<g><path style="opacity:1" fill="#372901" d="M 41.5,46.5 C 44.2974,46.9666 45.6308,48.6333 45.5,51.5C 44.8333,51.5 44.1667,51.5 43.5,51.5C 42.5,50.8333 41.5,50.1667 40.5,49.5C 40.0472,48.5416 39.3805,47.7083 38.5,47C 39.448,46.5172 40.448,46.3505 41.5,46.5 Z"/></g>
<g><path style="opacity:1" fill="#886903" d="M 65.5,48.5 C 65.1667,48.5 64.8333,48.5 64.5,48.5C 64.631,47.7611 64.4643,47.0944 64,46.5C 62.6703,47.5822 61.1703,48.2488 59.5,48.5C 60.5,46.8333 61.8333,45.5 63.5,44.5C 64.1174,44.3893 64.6174,44.056 65,43.5C 65.4935,45.1341 65.6602,46.8008 65.5,48.5 Z"/></g>
<g><path style="opacity:1" fill="#886a06" d="M 72.5,38.5 C 73.3127,40.2608 74.3127,41.9275 75.5,43.5C 75.9629,46.4824 76.2962,49.4824 76.5,52.5C 74.9582,51.6993 73.2915,51.366 71.5,51.5C 72.6089,50.1213 73.2755,48.4547 73.5,46.5C 73.163,43.8236 72.8297,41.157 72.5,38.5 Z"/></g>
<g><path style="opacity:1" fill="#473801" d="M 75.5,43.5 C 76.2679,44.2625 76.7679,45.2625 77,46.5C 77.2321,45.2625 77.7321,44.2625 78.5,43.5C 78.5,44.1667 78.5,44.8333 78.5,45.5C 78.5,46.1667 78.5,46.8333 78.5,47.5C 77.8333,49.1667 77.1667,50.8333 76.5,52.5C 76.2962,49.4824 75.9629,46.4824 75.5,43.5 Z"/></g>
<g><path style="opacity:1" fill="#332602" d="M 52.5,46.5 C 53.5,46.5 54.5,46.5 55.5,46.5C 56.5063,46.9377 56.5063,47.6043 55.5,48.5C 52.8056,50.3279 50.8056,52.6613 49.5,55.5C 49.5,55.1667 49.5,54.8333 49.5,54.5C 50.3414,52.6208 50.6747,50.6208 50.5,48.5C 50.8333,47.5 51.5,46.8333 52.5,46.5 Z"/></g>
<g><path style="opacity:1" fill="#372904" d="M 62.5,43.5 C 63.1667,43.5 63.5,43.8333 63.5,44.5C 61.8333,45.5 60.5,46.8333 59.5,48.5C 57.6878,50.4605 56.6878,52.7939 56.5,55.5C 55.1221,53.0298 55.4554,50.6965 57.5,48.5C 58.8333,46.5 60.5,44.8333 62.5,43.5 Z"/></g>
<g><path style="opacity:1" fill="#2d2008" d="M 83.5,45.5 C 84.1667,45.5 84.8333,45.5 85.5,45.5C 86.1667,45.5 86.5,45.8333 86.5,46.5C 84.0672,46.2729 82.4006,47.2729 81.5,49.5C 81.1667,49.5 80.8333,49.5 80.5,49.5C 80.7376,47.5956 81.7376,46.2623 83.5,45.5 Z"/></g>
<g><path style="opacity:1" fill="#382b01" d="M 91.5,45.5 C 93.0764,48.2285 93.5764,51.2285 93,54.5C 92.7216,53.5842 92.2216,52.9175 91.5,52.5C 89.8333,50.5 88.1667,48.5 86.5,46.5C 87.1667,46.5 87.8333,46.5 88.5,46.5C 90.2621,49.1417 90.5954,48.975 89.5,46C 90.0944,45.5357 90.7611,45.369 91.5,45.5 Z"/></g>
<g><path style="opacity:1" fill="#2d2101" d="M 6.5,48.5 C 4.74844,50.2459 3.41511,52.2459 2.5,54.5C 1.70927,52.6907 1.70927,50.6907 2.5,48.5C 3.70236,47.5946 5.0357,47.5946 6.5,48.5 Z"/></g>
<g><path style="opacity:1" fill="#886703" d="M 21.5,46.5 C 21.5,48.1667 21.5,49.8333 21.5,51.5C 20.5041,51.4142 19.6708,51.7476 19,52.5C 18.51,51.2068 18.3433,49.8734 18.5,48.5C 19.1667,48.5 19.5,48.1667 19.5,47.5C 20.1667,47.1667 20.8333,46.8333 21.5,46.5 Z"/></g>
<g><path style="opacity:1" fill="#d4af3a" d="M 22.5,43.5 C 23.9366,45.9598 24.9366,48.6265 25.5,51.5C 24.1667,51.5 22.8333,51.5 21.5,51.5C 21.5,49.8333 21.5,48.1667 21.5,46.5C 21.2627,45.209 21.596,44.209 22.5,43.5 Z"/></g>
<g><path style="opacity:1" fill="#584006" d="M 26.5,46.5 C 27.1667,47.1667 27.8333,47.8333 28.5,48.5C 28.8333,48.5 29.1667,48.5 29.5,48.5C 29.8333,48.5 30.1667,48.5 30.5,48.5C 31.3007,50.0418 31.634,51.7085 31.5,53.5C 29.665,52.8777 28.4983,51.5444 28,49.5C 27.6012,49.7284 27.4346,50.0618 27.5,50.5C 26.5655,49.4324 26.2322,48.099 26.5,46.5 Z"/></g>
<g><path style="opacity:1" fill="#d2ab39" d="M 35.5,48.5 C 36.604,50.3885 37.9373,52.0552 39.5,53.5C 40.5676,54.4345 41.901,54.7678 43.5,54.5C 42.6314,55.2588 41.2981,56.2588 39.5,57.5C 37.7867,55.1496 35.4534,54.1496 32.5,54.5C 31.8333,54.5 31.5,54.1667 31.5,53.5C 31.634,51.7085 31.3007,50.0418 30.5,48.5C 30.369,47.7611 30.5357,47.0944 31,46.5C 32.3297,47.5822 33.8297,48.2488 35.5,48.5 Z"/></g>
<g><path style="opacity:0.918" fill="#ab8c13" d="M 86.5,46.5 C 88.1667,48.5 89.8333,50.5 91.5,52.5C 91.5,53.1667 91.5,53.8333 91.5,54.5C 89.567,52.0626 87.4003,49.7293 85,47.5C 83.1689,49.582 82.0022,51.9154 81.5,54.5C 80.438,52.9008 80.438,51.2341 81.5,49.5C 82.4006,47.2729 84.0672,46.2729 86.5,46.5 Z"/></g>
<g><path style="opacity:1" fill="#bd962a" d="M 46.5,48.5 C 46.8333,48.5 47.1667,48.5 47.5,48.5C 47.6483,53.3188 46.9816,57.9855 45.5,62.5C 44.8333,63.1667 44.1667,63.8333 43.5,64.5C 43.9926,62.1944 44.3259,59.861 44.5,57.5C 45.4511,56.0813 45.7845,54.4147 45.5,52.5C 46.4345,51.4324 46.7678,50.099 46.5,48.5 Z"/></g>
<g><path style="opacity:1" fill="#5d4809" d="M 67.5,44.5 C 67.8333,44.5 68.1667,44.5 68.5,44.5C 68.3284,45.4916 68.6618,46.1583 69.5,46.5C 68.9759,48.3057 68.3092,49.9724 67.5,51.5C 66.8669,51.1205 66.2003,50.7871 65.5,50.5C 65.8627,49.8165 66.1961,49.1499 66.5,48.5C 66.2322,46.901 66.5655,45.5676 67.5,44.5 Z"/></g>
<g><path style="opacity:0.373" fill="#ae8610" d="M 8.5,47.5 C 10.698,47.1201 12.3646,47.7868 13.5,49.5C 13.5,49.8333 13.5,50.1667 13.5,50.5C 12.5178,49.8592 11.5178,49.1925 10.5,48.5C 7.16974,50.1691 4.50307,52.5025 2.5,55.5C 2.5,55.1667 2.5,54.8333 2.5,54.5C 3.41511,52.2459 4.74844,50.2459 6.5,48.5C 7.49162,48.6716 8.15829,48.3382 8.5,47.5 Z"/></g>
<g><path style="opacity:0.8" fill="#a5840d" d="M 89.5,39.5 C 92.0164,42.5344 94.0164,45.8677 95.5,49.5C 95.5,52.5 95.5,55.5 95.5,58.5C 93.2901,58.106 91.9568,56.7727 91.5,54.5C 91.5,53.8333 91.5,53.1667 91.5,52.5C 92.2216,52.9175 92.7216,53.5842 93,54.5C 93.5764,51.2285 93.0764,48.2285 91.5,45.5C 91.4431,44.391 91.1098,43.391 90.5,42.5C 89.8902,41.609 89.5569,40.609 89.5,39.5 Z"/></g>
<g><path style="opacity:1" fill="#423106" d="M 16.5,45.5 C 17.4013,46.2905 18.0679,47.2905 18.5,48.5C 18.3433,49.8734 18.51,51.2068 19,52.5C 19.6708,51.7476 20.5041,51.4142 21.5,51.5C 22.8333,51.5 24.1667,51.5 25.5,51.5C 25.8333,52.1667 26.1667,52.8333 26.5,53.5C 25.8333,53.5 25.1667,53.5 24.5,53.5C 21.9899,53.0535 19.9899,53.7202 18.5,55.5C 17.8826,55.6107 17.3826,55.944 17,56.5C 16.4005,54.0904 15.2338,52.0904 13.5,50.5C 13.5,50.1667 13.5,49.8333 13.5,49.5C 13.8333,49.5 14.1667,49.5 14.5,49.5C 15.1174,49.6107 15.6174,49.944 16,50.5C 16.4935,48.8659 16.6602,47.1992 16.5,45.5 Z"/></g>
<g><path style="opacity:1" fill="#765801" d="M 48.5,44.5 C 49.1667,45.8333 49.8333,47.1667 50.5,48.5C 50.6747,50.6208 50.3414,52.6208 49.5,54.5C 48.5206,51.3752 48.1872,48.0419 48.5,44.5 Z"/></g>
<g><path style="opacity:1" fill="#dab542" d="M 64.5,48.5 C 63.5,50.5 62.5,52.5 61.5,54.5C 59.6203,54.2291 58.287,54.8958 57.5,56.5C 56.8333,56.5 56.5,56.1667 56.5,55.5C 56.6878,52.7939 57.6878,50.4605 59.5,48.5C 61.1703,48.2488 62.6703,47.5822 64,46.5C 64.4643,47.0944 64.631,47.7611 64.5,48.5 Z"/></g>
<g><path style="opacity:1" fill="#5a4606" d="M 64.5,48.5 C 64.8333,48.5 65.1667,48.5 65.5,48.5C 65.8333,48.5 66.1667,48.5 66.5,48.5C 66.1961,49.1499 65.8627,49.8165 65.5,50.5C 66.2003,50.7871 66.8669,51.1205 67.5,51.5C 67.5,52.1667 67.5,52.8333 67.5,53.5C 67.5,53.8333 67.5,54.1667 67.5,54.5C 65.4513,55.6414 63.4513,55.6414 61.5,54.5C 62.5,52.5 63.5,50.5 64.5,48.5 Z"/></g>
<g><path style="opacity:1" fill="#2c2001" d="M 78.5,47.5 C 78.6741,49.861 79.0074,52.1944 79.5,54.5C 78.7784,54.9175 78.2784,55.5842 78,56.5C 75.8074,52.3699 72.9741,51.7032 69.5,54.5C 68.8333,54.5 68.1667,54.5 67.5,54.5C 67.5,54.1667 67.5,53.8333 67.5,53.5C 68.8333,52.8333 70.1667,52.1667 71.5,51.5C 73.2915,51.366 74.9582,51.6993 76.5,52.5C 77.1667,50.8333 77.8333,49.1667 78.5,47.5 Z"/></g>
<g><path style="opacity:0.773" fill="#a68111" d="M 3.5,43.5 C 3.37133,45.2161 3.038,46.8828 2.5,48.5C 1.70927,50.6907 1.70927,52.6907 2.5,54.5C 2.5,54.8333 2.5,55.1667 2.5,55.5C 2.14363,57.1898 1.14363,58.1898 -0.5,58.5C -0.5,56.1667 -0.5,53.8333 -0.5,51.5C 0.641417,48.7458 1.97475,46.0791 3.5,43.5 Z"/></g>
<g><path style="opacity:1" fill="#c7a334" d="M 55.5,48.5 C 56.1667,48.5 56.8333,48.5 57.5,48.5C 55.4554,50.6965 55.1221,53.0298 56.5,55.5C 56.5,56.1667 56.8333,56.5 57.5,56.5C 57.5,56.8333 57.5,57.1667 57.5,57.5C 56.391,57.4431 55.391,57.1098 54.5,56.5C 52.81,55.9829 51.1433,55.6495 49.5,55.5C 50.8056,52.6613 52.8056,50.3279 55.5,48.5 Z"/></g>
<g><path style="opacity:1" fill="#dcb33d" d="M 40.5,49.5 C 41.5,50.1667 42.5,50.8333 43.5,51.5C 43.5,52.5 43.5,53.5 43.5,54.5C 41.901,54.7678 40.5676,54.4345 39.5,53.5C 39.5,52.8333 39.5,52.1667 39.5,51.5C 39.3284,50.5084 39.6618,49.8417 40.5,49.5 Z"/></g>
<g><path style="opacity:1" fill="#483605" d="M 31.5,53.5 C 31.5,54.1667 31.8333,54.5 32.5,54.5C 31.0011,55.494 29.3344,55.494 27.5,54.5C 27.1667,54.5 26.8333,54.5 26.5,54.5C 26.5,54.1667 26.5,53.8333 26.5,53.5C 27.2389,53.631 27.9056,53.4643 28.5,53C 27.7476,52.3292 27.4142,51.4959 27.5,50.5C 27.4346,50.0618 27.6012,49.7284 28,49.5C 28.4983,51.5444 29.665,52.8777 31.5,53.5 Z"/></g>
<g><path style="opacity:1" fill="#382a02" d="M 47.5,39.5 C 47.8333,39.5 48.1667,39.5 48.5,39.5C 48.5,41.1667 48.5,42.8333 48.5,44.5C 48.1872,48.0419 48.5206,51.3752 49.5,54.5C 49.5,54.8333 49.5,55.1667 49.5,55.5C 51.1433,55.6495 52.81,55.9829 54.5,56.5C 53.5084,56.3284 52.8417,56.6618 52.5,57.5C 51.7659,58.7079 51.4326,60.0413 51.5,61.5C 50.8333,61.5 50.5,61.8333 50.5,62.5C 50.0707,61.0473 49.904,59.3806 50,57.5C 49.0053,58.0659 48.172,58.7326 47.5,59.5C 47.0679,60.7095 46.4013,61.7095 45.5,62.5C 46.9816,57.9855 47.6483,53.3188 47.5,48.5C 47.5,45.5 47.5,42.5 47.5,39.5 Z"/></g>
<g><path style="opacity:1" fill="#a37f11" d="M 76.5,59.5 C 76.5,60.1667 76.5,60.8333 76.5,61.5C 75.8333,61.5 75.5,61.8333 75.5,62.5C 73.6096,62.7035 72.1096,62.0368 71,60.5C 69.4361,60.9121 67.9361,61.2454 66.5,61.5C 67.4458,60.0692 68.6125,58.7358 70,57.5C 70.3333,57.8333 70.6667,58.1667 71,58.5C 71.4828,57.552 71.6495,56.552 71.5,55.5C 74.569,54.073 75.569,54.9063 74.5,58C 75.0442,58.7172 75.7109,59.2172 76.5,59.5 Z"/></g>
<g><path style="opacity:0.808" fill="#a87e15" d="M 13.5,50.5 C 15.2338,52.0904 16.4005,54.0904 17,56.5C 17.3826,55.944 17.8826,55.6107 18.5,55.5C 18.5,56.1667 18.5,56.8333 18.5,57.5C 17.8333,57.5 17.1667,57.5 16.5,57.5C 16.1667,57.5 15.8333,57.5 15.5,57.5C 13.8516,55.5441 13.1849,53.2108 13.5,50.5 Z"/></g>
<g><path style="opacity:1" fill="#b18811" d="M 24.5,53.5 C 24.3404,55.153 23.6737,56.4863 22.5,57.5C 21.8485,56.9094 21.1818,56.2427 20.5,55.5C 19.8182,56.2427 19.1515,56.9094 18.5,57.5C 18.5,56.8333 18.5,56.1667 18.5,55.5C 19.9899,53.7202 21.9899,53.0535 24.5,53.5 Z"/></g>
<g><path style="opacity:1" fill="#95730b" d="M 24.5,53.5 C 25.1667,53.5 25.8333,53.5 26.5,53.5C 26.5,53.8333 26.5,54.1667 26.5,54.5C 25.661,55.6412 24.9943,56.9745 24.5,58.5C 24.6236,59.1067 24.9569,59.44 25.5,59.5C 24.6522,60.625 23.6522,60.625 22.5,59.5C 22.5,58.8333 22.5,58.1667 22.5,57.5C 23.6737,56.4863 24.3404,55.153 24.5,53.5 Z"/></g>
<g><path style="opacity:1" fill="#af8811" d="M 26.5,54.5 C 26.8333,54.5 27.1667,54.5 27.5,54.5C 28.5,55.8333 29.5,57.1667 30.5,58.5C 28.965,57.6457 27.6316,57.6457 26.5,58.5C 25.8333,58.5 25.5,58.8333 25.5,59.5C 24.9569,59.44 24.6236,59.1067 24.5,58.5C 24.9943,56.9745 25.661,55.6412 26.5,54.5 Z"/></g>
<g><path style="opacity:1" fill="#3c2d04" d="M 27.5,54.5 C 29.3344,55.494 31.0011,55.494 32.5,54.5C 35.4534,54.1496 37.7867,55.1496 39.5,57.5C 39.8333,57.5 40.1667,57.5 40.5,57.5C 39.8902,58.391 39.5569,59.391 39.5,60.5C 38.8333,60.1667 38.1667,59.8333 37.5,59.5C 37.2882,57.6159 36.2882,56.2826 34.5,55.5C 33.0815,56.0047 32.4148,57.0047 32.5,58.5C 31.8333,58.5 31.1667,58.5 30.5,58.5C 29.5,57.1667 28.5,55.8333 27.5,54.5 Z"/></g>
<g><path style="opacity:0.773" fill="#af8e20" d="M 83.5,60.5 C 81.9731,60.573 80.9731,59.9063 80.5,58.5C 80.5,58.1667 80.5,57.8333 80.5,57.5C 81.1667,57.5 81.5,57.1667 81.5,56.5C 82.8853,55.3862 84.3853,54.3862 86,53.5C 84.6658,55.8758 83.8325,58.2091 83.5,60.5 Z"/></g>
<g><path style="opacity:1" fill="#332404" d="M 43.5,51.5 C 44.1667,51.5 44.8333,51.5 45.5,51.5C 45.5,51.8333 45.5,52.1667 45.5,52.5C 45.7845,54.4147 45.4511,56.0813 44.5,57.5C 44.1667,57.5 43.8333,57.5 43.5,57.5C 42.6522,56.375 41.6522,56.375 40.5,57.5C 40.1667,57.5 39.8333,57.5 39.5,57.5C 41.2981,56.2588 42.6314,55.2588 43.5,54.5C 43.5,53.5 43.5,52.5 43.5,51.5 Z"/></g>
<g><path style="opacity:1" fill="#2c2103" d="M 61.5,54.5 C 63.4513,55.6414 65.4513,55.6414 67.5,54.5C 66.6935,55.7281 65.6935,56.7281 64.5,57.5C 62.9557,57.2969 61.6223,56.6302 60.5,55.5C 59.4822,56.1925 58.4822,56.8592 57.5,57.5C 57.5,57.1667 57.5,56.8333 57.5,56.5C 58.287,54.8958 59.6203,54.2291 61.5,54.5 Z"/></g>
<g><path style="opacity:1" fill="#aa8816" d="M 67.5,54.5 C 68.1667,54.5 68.8333,54.5 69.5,54.5C 70.4916,54.3284 71.1583,54.6618 71.5,55.5C 71.6495,56.552 71.4828,57.552 71,58.5C 70.6667,58.1667 70.3333,57.8333 70,57.5C 68.6125,58.7358 67.4458,60.0692 66.5,61.5C 66.1667,61.5 65.8333,61.5 65.5,61.5C 64.2935,60.1196 64.6269,58.9529 66.5,58C 65.9056,57.5357 65.2389,57.369 64.5,57.5C 65.6935,56.7281 66.6935,55.7281 67.5,54.5 Z"/></g>
<g><path style="opacity:1" fill="#b18b15" d="M 37.5,59.5 C 37.631,60.2389 37.4643,60.9056 37,61.5C 35.6703,60.4178 34.1703,59.7512 32.5,59.5C 32.5,59.1667 32.5,58.8333 32.5,58.5C 32.4148,57.0047 33.0815,56.0047 34.5,55.5C 36.2882,56.2826 37.2882,57.6159 37.5,59.5 Z"/></g>
<g><path style="opacity:1" fill="#9e7b0f" d="M 64.5,57.5 C 64.1583,58.3382 63.4916,58.6716 62.5,58.5C 62.1667,58.5 61.8333,58.5 61.5,58.5C 59.544,60.1751 58.2107,59.8418 57.5,57.5C 58.4822,56.8592 59.4822,56.1925 60.5,55.5C 61.6223,56.6302 62.9557,57.2969 64.5,57.5 Z"/></g>
<g><path style="opacity:1" fill="#9b7d11" d="M 79.5,54.5 C 79.7373,55.791 79.404,56.791 78.5,57.5C 77.1667,57.5 76.5,58.1667 76.5,59.5C 75.7109,59.2172 75.0442,58.7172 74.5,58C 75.569,54.9063 74.569,54.073 71.5,55.5C 71.1583,54.6618 70.4916,54.3284 69.5,54.5C 72.9741,51.7032 75.8074,52.3699 78,56.5C 78.2784,55.5842 78.7784,54.9175 79.5,54.5 Z"/></g>
<g><path style="opacity:0.929" fill="#a28422" d="M 78.5,45.5 C 79.1667,46.8333 79.8333,48.1667 80.5,49.5C 80.8333,49.5 81.1667,49.5 81.5,49.5C 80.438,51.2341 80.438,52.9008 81.5,54.5C 81.5,55.1667 81.5,55.8333 81.5,56.5C 80.8333,56.5 80.5,56.8333 80.5,57.5C 80.5,57.8333 80.5,58.1667 80.5,58.5C 79.5084,58.6716 78.8417,58.3382 78.5,57.5C 79.404,56.791 79.7373,55.791 79.5,54.5C 79.0074,52.1944 78.6741,49.861 78.5,47.5C 78.5,46.8333 78.5,46.1667 78.5,45.5 Z"/></g>
<g><path style="opacity:0.58" fill="#b38b1f" d="M 22.5,57.5 C 22.5,58.1667 22.5,58.8333 22.5,59.5C 21.4863,60.6737 20.153,61.3404 18.5,61.5C 18.631,60.7611 18.4643,60.0944 18,59.5C 17.009,62.5812 15.1757,63.2479 12.5,61.5C 13.5285,60.2126 13.1952,59.0459 11.5,58C 11.6667,57.5 11.8333,57 12,56.5C 13.0113,57.3366 14.1779,57.67 15.5,57.5C 15.8333,58.8333 16.1667,58.8333 16.5,57.5C 17.1667,57.5 17.8333,57.5 18.5,57.5C 19.1515,56.9094 19.8182,56.2427 20.5,55.5C 21.1818,56.2427 21.8485,56.9094 22.5,57.5 Z"/></g>
<g><path style="opacity:1" fill="#a28112" d="M 78.5,57.5 C 78.8417,58.3382 79.5084,58.6716 80.5,58.5C 80.9731,59.9063 81.9731,60.573 83.5,60.5C 83.1583,61.3382 82.4916,61.6716 81.5,61.5C 79.8333,61.5 78.1667,61.5 76.5,61.5C 76.5,60.8333 76.5,60.1667 76.5,59.5C 76.5,58.1667 77.1667,57.5 78.5,57.5 Z"/></g>
<g><path style="opacity:1" fill="#ac8411" d="M 30.5,58.5 C 31.1667,58.5 31.8333,58.5 32.5,58.5C 32.5,58.8333 32.5,59.1667 32.5,59.5C 32.5,59.8333 32.5,60.1667 32.5,60.5C 31.9278,62.2554 31.0945,63.9221 30,65.5C 28.8249,63.1498 27.6582,60.8165 26.5,58.5C 27.6316,57.6457 28.965,57.6457 30.5,58.5 Z"/></g>
<g><path style="opacity:1" fill="#3f2f07" d="M 52.5,57.5 C 52.8417,56.6618 53.5084,56.3284 54.5,56.5C 55.391,57.1098 56.391,57.4431 57.5,57.5C 58.2107,59.8418 59.544,60.1751 61.5,58.5C 61.5,59.8333 60.8333,60.5 59.5,60.5C 57.2054,61.1355 55.5387,62.4689 54.5,64.5C 53.2878,62.7363 53.6212,61.0697 55.5,59.5C 54.9953,58.0815 53.9953,57.4148 52.5,57.5 Z"/></g>
<g><path style="opacity:1" fill="#b08914" d="M 64.5,57.5 C 65.2389,57.369 65.9056,57.5357 66.5,58C 64.6269,58.9529 64.2935,60.1196 65.5,61.5C 64.0937,61.9731 63.427,62.9731 63.5,64.5C 62.6043,65.5063 61.9377,65.5063 61.5,64.5C 62.3414,62.6208 62.6747,60.6208 62.5,58.5C 63.4916,58.6716 64.1583,58.3382 64.5,57.5 Z"/></g>
<g><path style="opacity:1" fill="#ab8416" d="M 26.5,58.5 C 27.6582,60.8165 28.8249,63.1498 30,65.5C 31.0945,63.9221 31.9278,62.2554 32.5,60.5C 33.1667,60.5 33.5,60.8333 33.5,61.5C 32.962,63.1172 32.6287,64.7839 32.5,66.5C 32.1583,67.3382 31.4916,67.6716 30.5,67.5C 29.8333,67.1667 29.1667,66.8333 28.5,66.5C 27.0045,64.655 25.3379,64.3217 23.5,65.5C 22.8106,66.7736 21.9772,66.7736 21,65.5C 20.5439,66.7441 21.0439,67.5774 22.5,68C 21.6195,68.7083 20.9528,69.5416 20.5,70.5C 20.1667,70.5 19.8333,70.5 19.5,70.5C 19.7359,67.3915 19.4025,64.3915 18.5,61.5C 20.153,61.3404 21.4863,60.6737 22.5,59.5C 23.6522,60.625 24.6522,60.625 25.5,59.5C 25.5,58.8333 25.8333,58.5 26.5,58.5 Z"/></g>
<g><path style="opacity:1" fill="#a77f0e" d="M 32.5,60.5 C 32.5,60.1667 32.5,59.8333 32.5,59.5C 34.1703,59.7512 35.6703,60.4178 37,61.5C 37.4643,60.9056 37.631,60.2389 37.5,59.5C 38.1667,59.8333 38.8333,60.1667 39.5,60.5C 38.2426,61.8181 36.9093,63.1515 35.5,64.5C 34.8243,63.3984 34.1577,62.3984 33.5,61.5C 33.5,60.8333 33.1667,60.5 32.5,60.5 Z"/></g>
<g><path style="opacity:0.983" fill="#a27b17" d="M 18.5,61.5 C 19.4025,64.3915 19.7359,67.3915 19.5,70.5C 18.6618,70.1583 18.3284,69.4916 18.5,68.5C 17.2128,65.5468 15.2128,63.2135 12.5,61.5C 15.1757,63.2479 17.009,62.5812 18,59.5C 18.4643,60.0944 18.631,60.7611 18.5,61.5 Z"/></g>
<g><path style="opacity:1" fill="#4e3a02" d="M 50.5,62.5 C 50.0679,63.7095 49.4013,64.7095 48.5,65.5C 48.0623,64.4937 47.3957,64.4937 46.5,65.5C 46.8769,63.742 47.5435,62.0754 48.5,60.5C 48.3764,59.8933 48.0431,59.56 47.5,59.5C 48.172,58.7326 49.0053,58.0659 50,57.5C 49.904,59.3806 50.0707,61.0473 50.5,62.5 Z"/></g>
<g><path style="opacity:1" fill="#af8914" d="M 52.5,57.5 C 53.9953,57.4148 54.9953,58.0815 55.5,59.5C 53.6212,61.0697 53.2878,62.7363 54.5,64.5C 54.5,65.1667 54.5,65.8333 54.5,66.5C 53.8333,66.5 53.5,66.8333 53.5,67.5C 52.7148,65.6264 52.0482,63.6264 51.5,61.5C 51.4326,60.0413 51.7659,58.7079 52.5,57.5 Z"/></g>
<g><path style="opacity:1" fill="#c29f34" d="M 59.5,60.5 C 59.6107,61.1174 59.944,61.6174 60.5,62C 59.2625,62.2321 58.2625,62.7321 57.5,63.5C 56.609,64.1098 55.609,64.4431 54.5,64.5C 55.5387,62.4689 57.2054,61.1355 59.5,60.5 Z"/></g>
<g><path style="opacity:1" fill="#b08615" d="M 76.5,61.5 C 78.1667,61.5 79.8333,61.5 81.5,61.5C 80.1363,63.1911 78.803,64.8577 77.5,66.5C 75.8958,65.713 75.2291,64.3797 75.5,62.5C 75.5,61.8333 75.8333,61.5 76.5,61.5 Z"/></g>
<g><path style="opacity:1" fill="#b08712" d="M 43.5,57.5 C 42.7094,60.115 42.0427,62.7816 41.5,65.5C 40.596,66.209 40.2627,67.209 40.5,68.5C 39.7321,67.7375 39.2321,66.7375 39,65.5C 38.3333,68.1667 37.6667,68.1667 37,65.5C 36.6174,66.056 36.1174,66.3893 35.5,66.5C 34.5,65.1667 33.5,65.1667 32.5,66.5C 32.6287,64.7839 32.962,63.1172 33.5,61.5C 34.1577,62.3984 34.8243,63.3984 35.5,64.5C 36.9093,63.1515 38.2426,61.8181 39.5,60.5C 39.5569,59.391 39.8902,58.391 40.5,57.5C 41.6522,56.375 42.6522,56.375 43.5,57.5 Z"/></g>
<g><path style="opacity:1" fill="#564108" d="M 43.5,57.5 C 43.8333,57.5 44.1667,57.5 44.5,57.5C 44.3259,59.861 43.9926,62.1944 43.5,64.5C 42.5655,65.5676 42.2322,66.901 42.5,68.5C 41.596,67.791 41.2627,66.791 41.5,65.5C 42.0427,62.7816 42.7094,60.115 43.5,57.5 Z"/></g>
<g><path style="opacity:1" fill="#5a4303" d="M 61.5,58.5 C 61.8333,58.5 62.1667,58.5 62.5,58.5C 62.6747,60.6208 62.3414,62.6208 61.5,64.5C 60.2921,65.2341 58.9587,65.5674 57.5,65.5C 57.5,64.8333 57.5,64.1667 57.5,63.5C 58.2625,62.7321 59.2625,62.2321 60.5,62C 59.944,61.6174 59.6107,61.1174 59.5,60.5C 60.8333,60.5 61.5,59.8333 61.5,58.5 Z"/></g>
<g><path style="opacity:1" fill="#a88418" d="M 65.5,61.5 C 65.7058,63.5492 66.5391,63.8825 68,62.5C 68.7401,63.7494 68.5735,64.7494 67.5,65.5C 66.1667,65.5 65.5,66.1667 65.5,67.5C 64.609,68.1098 63.609,68.4431 62.5,68.5C 62.7214,67.2652 63.3881,66.2652 64.5,65.5C 64.3764,64.8933 64.0431,64.56 63.5,64.5C 63.427,62.9731 64.0937,61.9731 65.5,61.5 Z"/></g>
<g><path style="opacity:1" fill="#ad8718" d="M 75.5,62.5 C 75.2291,64.3797 75.8958,65.713 77.5,66.5C 78.9538,68.2633 78.6204,69.5967 76.5,70.5C 75.2264,69.8106 75.2264,68.9772 76.5,68C 75.328,65.9451 73.6614,65.2784 71.5,66C 73.1922,67.4007 73.8588,69.2341 73.5,71.5C 73.5,72.1667 73.1667,72.5 72.5,72.5C 71.5732,70.4238 69.9065,69.2572 67.5,69C 68.1712,68.0138 68.1712,66.8471 67.5,65.5C 68.5735,64.7494 68.7401,63.7494 68,62.5C 66.5391,63.8825 65.7058,63.5492 65.5,61.5C 65.8333,61.5 66.1667,61.5 66.5,61.5C 67.9361,61.2454 69.4361,60.9121 71,60.5C 72.1096,62.0368 73.6096,62.7035 75.5,62.5 Z"/></g>
<g><path style="opacity:1" fill="#b68f24" d="M 23.5,65.5 C 25.3379,64.3217 27.0045,64.655 28.5,66.5C 28.6495,67.552 28.4828,68.552 28,69.5C 26.8869,68.2889 25.7202,68.2889 24.5,69.5C 24.5236,68.2135 24.1903,66.8802 23.5,65.5 Z"/></g>
<g><path style="opacity:1" fill="#755603" d="M 45.5,62.5 C 45.1667,65.1667 44.8333,67.8333 44.5,70.5C 43.8333,69.8333 43.1667,69.1667 42.5,68.5C 42.2322,66.901 42.5655,65.5676 43.5,64.5C 44.1667,63.8333 44.8333,63.1667 45.5,62.5 Z"/></g>
<g><path style="opacity:1" fill="#ae8612" d="M 51.5,61.5 C 52.0482,63.6264 52.7148,65.6264 53.5,67.5C 53.5,68.5 53.5,69.5 53.5,70.5C 53.44,71.0431 53.1067,71.3764 52.5,71.5C 51.7348,70.3881 50.7348,69.7214 49.5,69.5C 49.6716,68.5084 49.3382,67.8417 48.5,67.5C 48.5,66.8333 48.5,66.1667 48.5,65.5C 49.4013,64.7095 50.0679,63.7095 50.5,62.5C 50.5,61.8333 50.8333,61.5 51.5,61.5 Z"/></g>
<g><path style="opacity:1" fill="#aa8413" d="M 61.5,64.5 C 61.9377,65.5063 62.6043,65.5063 63.5,64.5C 64.0431,64.56 64.3764,64.8933 64.5,65.5C 63.3881,66.2652 62.7214,67.2652 62.5,68.5C 61.7784,68.0825 61.2784,67.4158 61,66.5C 60.6174,67.056 60.1174,67.3893 59.5,67.5C 59.1583,66.6618 58.4916,66.3284 57.5,66.5C 57.5,66.1667 57.5,65.8333 57.5,65.5C 58.9587,65.5674 60.2921,65.2341 61.5,64.5 Z"/></g>
<g><path style="opacity:1" fill="#a67d16" d="M 76.5,70.5 C 75.791,71.404 74.791,71.7373 73.5,71.5C 73.8588,69.2341 73.1922,67.4007 71.5,66C 73.6614,65.2784 75.328,65.9451 76.5,68C 75.2264,68.9772 75.2264,69.8106 76.5,70.5 Z"/></g>
<g><path style="opacity:1" fill="#8a6804" d="M 47.5,59.5 C 48.0431,59.56 48.3764,59.8933 48.5,60.5C 47.5435,62.0754 46.8769,63.742 46.5,65.5C 45.962,67.1172 45.6287,68.7839 45.5,70.5C 45.1667,70.5 44.8333,70.5 44.5,70.5C 44.8333,67.8333 45.1667,65.1667 45.5,62.5C 46.4013,61.7095 47.0679,60.7095 47.5,59.5 Z"/></g>
<g><path style="opacity:1" fill="#ac8315" d="M 40.5,68.5 C 40.5,68.8333 40.5,69.1667 40.5,69.5C 38.6253,67.9219 37.2919,68.2552 36.5,70.5C 35.6236,70.6309 34.9569,70.2975 34.5,69.5C 35.1272,68.5832 35.4606,67.5832 35.5,66.5C 36.1174,66.3893 36.6174,66.056 37,65.5C 37.6667,68.1667 38.3333,68.1667 39,65.5C 39.2321,66.7375 39.7321,67.7375 40.5,68.5 Z"/></g>
<g><path style="opacity:1" fill="#af8610" d="M 40.5,69.5 C 40.3284,70.4916 40.6618,71.1583 41.5,71.5C 41.5,72.1667 41.5,72.8333 41.5,73.5C 41.5654,73.9382 41.3988,74.2716 41,74.5C 39.6302,72.2409 38.1302,70.9075 36.5,70.5C 37.2919,68.2552 38.6253,67.9219 40.5,69.5 Z"/></g>
<g><path style="opacity:1" fill="#473501" d="M 57.5,63.5 C 57.5,64.1667 57.5,64.8333 57.5,65.5C 57.5,65.8333 57.5,66.1667 57.5,66.5C 56.506,67.9989 56.506,69.6656 57.5,71.5C 55.9463,70.8559 54.9463,69.1892 54.5,66.5C 54.5,65.8333 54.5,65.1667 54.5,64.5C 55.609,64.4431 56.609,64.1098 57.5,63.5 Z"/></g>
<g><path style="opacity:1" fill="#b08914" d="M 57.5,66.5 C 58.4916,66.3284 59.1583,66.6618 59.5,67.5C 58.1667,68.5 58.1667,69.5 59.5,70.5C 60.404,71.209 60.7373,72.209 60.5,73.5C 59.8333,73.5 59.1667,73.5 58.5,73.5C 58.6716,72.5084 58.3382,71.8417 57.5,71.5C 56.506,69.6656 56.506,67.9989 57.5,66.5 Z"/></g>
<g><path style="opacity:1" fill="#ac8412" d="M 62.5,68.5 C 63.609,68.4431 64.609,68.1098 65.5,67.5C 66.0431,67.56 66.3764,67.8933 66.5,68.5C 65.2342,69.3624 63.9008,70.0291 62.5,70.5C 61.3478,69.375 60.3478,69.375 59.5,70.5C 58.1667,69.5 58.1667,68.5 59.5,67.5C 60.1174,67.3893 60.6174,67.056 61,66.5C 61.2784,67.4158 61.7784,68.0825 62.5,68.5 Z"/></g>
<g><path style="opacity:1" fill="#a98217" d="M 67.5,65.5 C 68.1712,66.8471 68.1712,68.0138 67.5,69C 69.9065,69.2572 71.5732,70.4238 72.5,72.5C 72.8039,73.1499 73.1373,73.8165 73.5,74.5C 71.5049,75.2945 69.5049,75.9612 67.5,76.5C 66.7777,75.4489 65.7777,74.7822 64.5,74.5C 64.4729,72.8007 63.8062,71.4674 62.5,70.5C 63.9008,70.0291 65.2342,69.3624 66.5,68.5C 66.3764,67.8933 66.0431,67.56 65.5,67.5C 65.5,66.1667 66.1667,65.5 67.5,65.5 Z"/></g>
<g><path style="opacity:1" fill="#a97e18" d="M 23.5,65.5 C 24.1903,66.8802 24.5236,68.2135 24.5,69.5C 25.7202,68.2889 26.8869,68.2889 28,69.5C 28.4828,68.552 28.6495,67.552 28.5,66.5C 29.1667,66.8333 29.8333,67.1667 30.5,67.5C 30.7035,69.3904 30.0368,70.8904 28.5,72C 29.305,73.1127 29.9717,74.2794 30.5,75.5C 29.391,75.4431 28.391,75.1098 27.5,74.5C 27.1416,72.2988 25.8083,70.9655 23.5,70.5C 22.8933,70.6236 22.56,70.9569 22.5,71.5C 22.1667,71.5 21.8333,71.5 21.5,71.5C 21.5,70.8333 21.1667,70.5 20.5,70.5C 20.9528,69.5416 21.6195,68.7083 22.5,68C 21.0439,67.5774 20.5439,66.7441 21,65.5C 21.9772,66.7736 22.8106,66.7736 23.5,65.5 Z"/></g>
<g><path style="opacity:1" fill="#ad8213" d="M 35.5,66.5 C 35.4606,67.5832 35.1272,68.5832 34.5,69.5C 34.9569,70.2975 35.6236,70.6309 36.5,70.5C 38.1302,70.9075 39.6302,72.2409 41,74.5C 41.3988,74.2716 41.5654,73.9382 41.5,73.5C 42.3382,73.8417 42.6716,74.5084 42.5,75.5C 40.8058,76.5274 39.4725,77.8608 38.5,79.5C 38.0038,76.9929 36.6705,74.9929 34.5,73.5C 33.8933,73.6236 33.56,73.9569 33.5,74.5C 32.391,74.5569 31.391,74.8902 30.5,75.5C 29.9717,74.2794 29.305,73.1127 28.5,72C 30.0368,70.8904 30.7035,69.3904 30.5,67.5C 31.4916,67.6716 32.1583,67.3382 32.5,66.5C 33.5,65.1667 34.5,65.1667 35.5,66.5 Z"/></g>
<g><path style="opacity:1" fill="#ab8316" d="M 49.5,69.5 C 50.7348,69.7214 51.7348,70.3881 52.5,71.5C 53.1067,71.3764 53.44,71.0431 53.5,70.5C 54.404,71.209 54.7373,72.209 54.5,73.5C 50.3281,76.3697 48.6615,75.0364 49.5,69.5 Z"/></g>
<g><path style="opacity:1" fill="#b89123" d="M 59.5,70.5 C 60.3478,69.375 61.3478,69.375 62.5,70.5C 63.8062,71.4674 64.4729,72.8007 64.5,74.5C 63.1667,74.1667 61.8333,73.8333 60.5,73.5C 60.7373,72.209 60.404,71.209 59.5,70.5 Z"/></g>
<g><path style="opacity:0.749" fill="#483504" d="M 18.5,68.5 C 18.3284,69.4916 18.6618,70.1583 19.5,70.5C 19.8333,70.5 20.1667,70.5 20.5,70.5C 21.1667,70.5 21.5,70.8333 21.5,71.5C 20.5272,72.7914 19.5272,72.7914 18.5,71.5C 17.2241,70.3864 17.2241,69.3864 18.5,68.5 Z"/></g>
<g><path style="opacity:1" fill="#423001" d="M 48.5,65.5 C 48.5,66.1667 48.5,66.8333 48.5,67.5C 47.3709,69.6282 47.2042,71.9615 48,74.5C 48.7083,75.3805 49.5416,76.0472 50.5,76.5C 51.209,77.404 52.209,77.7373 53.5,77.5C 48.6328,78.3327 45.9661,75.9994 45.5,70.5C 45.6287,68.7839 45.962,67.1172 46.5,65.5C 47.3957,64.4937 48.0623,64.4937 48.5,65.5 Z"/></g>
<g><path style="opacity:1" fill="#ae8518" d="M 27.5,74.5 C 27.5,75.1667 27.1667,75.5 26.5,75.5C 24.8333,74.5 23.5,73.1667 22.5,71.5C 22.56,70.9569 22.8933,70.6236 23.5,70.5C 25.8083,70.9655 27.1416,72.2988 27.5,74.5 Z"/></g>
<g><path style="opacity:1" fill="#9c740d" d="M 33.5,74.5 C 33.56,73.9569 33.8933,73.6236 34.5,73.5C 36.6705,74.9929 38.0038,76.9929 38.5,79.5C 36.5695,79.2294 35.2362,78.2294 34.5,76.5C 34.6716,75.5084 34.3382,74.8417 33.5,74.5 Z"/></g>
<g><path style="opacity:1" fill="#906907" d="M 41.5,65.5 C 41.2627,66.791 41.596,67.791 42.5,68.5C 43.1667,69.1667 43.8333,69.8333 44.5,70.5C 44.8333,70.5 45.1667,70.5 45.5,70.5C 45.9661,75.9994 48.6328,78.3327 53.5,77.5C 54.1667,77.5 54.8333,77.5 55.5,77.5C 51.9131,80.2196 48.4131,79.8863 45,76.5C 44,74.5 43,72.5 42,70.5C 41.6012,70.7284 41.4346,71.0618 41.5,71.5C 40.6618,71.1583 40.3284,70.4916 40.5,69.5C 40.5,69.1667 40.5,68.8333 40.5,68.5C 40.2627,67.209 40.596,66.209 41.5,65.5 Z"/></g>
<g><path style="opacity:1" fill="#705304" d="M 54.5,66.5 C 54.9463,69.1892 55.9463,70.8559 57.5,71.5C 58.3382,71.8417 58.6716,72.5084 58.5,73.5C 57.5,74.8333 56.5,76.1667 55.5,77.5C 54.8333,77.5 54.1667,77.5 53.5,77.5C 52.209,77.7373 51.209,77.404 50.5,76.5C 51.8333,76.5 53.1667,76.5 54.5,76.5C 54.5,75.5 54.5,74.5 54.5,73.5C 54.7373,72.209 54.404,71.209 53.5,70.5C 53.5,69.5 53.5,68.5 53.5,67.5C 53.5,66.8333 53.8333,66.5 54.5,66.5 Z"/></g>
<g><path style="opacity:1" fill="#b28712" d="M 48.5,67.5 C 49.3382,67.8417 49.6716,68.5084 49.5,69.5C 48.6615,75.0364 50.3281,76.3697 54.5,73.5C 54.5,74.5 54.5,75.5 54.5,76.5C 53.1667,76.5 51.8333,76.5 50.5,76.5C 49.5416,76.0472 48.7083,75.3805 48,74.5C 47.2042,71.9615 47.3709,69.6282 48.5,67.5 Z"/></g>
<g><path style="opacity:0.106" fill="#a47e1f" d="M 14.5,72.5 C 18.1612,72.3501 19.1612,73.8501 17.5,77C 13.7071,77.4866 12.7071,75.9866 14.5,72.5 Z"/></g>
<g><path style="opacity:1" fill="#ae8314" d="M 27.5,74.5 C 28.391,75.1098 29.391,75.4431 30.5,75.5C 31.391,74.8902 32.391,74.5569 33.5,74.5C 34.3382,74.8417 34.6716,75.5084 34.5,76.5C 33.1667,77.1667 31.8333,77.8333 30.5,78.5C 29.1283,77.4884 27.795,76.4884 26.5,75.5C 27.1667,75.5 27.5,75.1667 27.5,74.5 Z"/></g>
<g><path style="opacity:1" fill="#ab8413" d="M 58.5,73.5 C 59.1667,73.5 59.8333,73.5 60.5,73.5C 61.8333,73.8333 63.1667,74.1667 64.5,74.5C 65.7777,74.7822 66.7777,75.4489 67.5,76.5C 65.4208,78.873 62.7541,80.2064 59.5,80.5C 58.391,80.4431 57.391,80.1098 56.5,79.5C 58.0808,77.8583 58.7475,75.8583 58.5,73.5 Z"/></g>
<g><path style="opacity:0.914" fill="#b18714" d="M 34.5,76.5 C 35.2362,78.2294 36.5695,79.2294 38.5,79.5C 38.9175,80.2216 39.5842,80.7216 40.5,81C 40.2716,81.3988 39.9382,81.5654 39.5,81.5C 36.2854,81.0951 33.2854,80.0951 30.5,78.5C 31.8333,77.8333 33.1667,77.1667 34.5,76.5 Z"/></g>
<g><path style="opacity:1" fill="#af8212" d="M 42.5,75.5 C 43.8606,77.5273 45.5273,79.194 47.5,80.5C 46.5987,81.2905 45.9321,82.2905 45.5,83.5C 43.3024,83.1249 41.3024,82.4582 39.5,81.5C 39.9382,81.5654 40.2716,81.3988 40.5,81C 39.5842,80.7216 38.9175,80.2216 38.5,79.5C 39.4725,77.8608 40.8058,76.5274 42.5,75.5 Z"/></g>
<g><path style="opacity:1" fill="#473302" d="M 55.5,77.5 C 56.5,76.1667 57.5,74.8333 58.5,73.5C 58.7475,75.8583 58.0808,77.8583 56.5,79.5C 54.412,80.9395 52.0786,81.6061 49.5,81.5C 49.1583,80.6618 48.4916,80.3284 47.5,80.5C 45.5273,79.194 43.8606,77.5273 42.5,75.5C 42.6716,74.5084 42.3382,73.8417 41.5,73.5C 41.5,72.8333 41.5,72.1667 41.5,71.5C 41.4346,71.0618 41.6012,70.7284 42,70.5C 43,72.5 44,74.5 45,76.5C 48.4131,79.8863 51.9131,80.2196 55.5,77.5 Z"/></g>
<g><path style="opacity:0.569" fill="#b68a16" d="M 56.5,79.5 C 57.391,80.1098 58.391,80.4431 59.5,80.5C 57.4006,81.6118 55.0673,82.2785 52.5,82.5C 51.209,82.7373 50.209,82.404 49.5,81.5C 52.0786,81.6061 54.412,80.9395 56.5,79.5 Z"/></g>
<g><path style="opacity:0.216" fill="#b48413" d="M 47.5,80.5 C 48.4916,80.3284 49.1583,80.6618 49.5,81.5C 50.209,82.404 51.209,82.7373 52.5,82.5C 50.3926,83.4682 48.0593,83.8016 45.5,83.5C 45.9321,82.2905 46.5987,81.2905 47.5,80.5 Z"/></g>
</svg>
