<?xml version="1.0" encoding="UTF-8"?>
<!DOCTYPE svg PUBLIC "-//W3C//DTD SVG 1.1//EN" "http://www.w3.org/Graphics/SVG/1.1/DTD/svg11.dtd">
<svg xmlns="http://www.w3.org/2000/svg" version="1.1" width="96px" height="96px" style="shape-rendering:geometricPrecision; text-rendering:geometricPrecision; image-rendering:optimizeQuality; fill-rule:evenodd; clip-rule:evenodd" xmlns:xlink="http://www.w3.org/1999/xlink">
<g><path style="opacity:0.842" fill="#c39947" d="M 37.5,-0.5 C 44.1667,-0.5 50.8333,-0.5 57.5,-0.5C 68.7269,2.45303 78.0603,8.45303 85.5,17.5C 84.209,17.2627 83.209,17.596 82.5,18.5C 79.0005,15.1691 75.3338,12.0024 71.5,9C 67.3937,6.79809 63.0604,5.29809 58.5,4.5C 55.8291,2.88195 52.8291,2.21528 49.5,2.5C 45.6286,2.18503 41.9619,2.51836 38.5,3.5C 35.8478,3.40953 33.5145,4.07619 31.5,5.5C 29.847,5.6596 28.5137,6.32627 27.5,7.5C 21.3408,9.98649 16.3408,13.9865 12.5,19.5C 11.7281,20.6935 10.7281,21.6935 9.5,22.5C 9.56544,22.0618 9.39877,21.7284 9,21.5C 8.18405,22.8228 7.01739,23.4894 5.5,23.5C 12.9457,11.1199 23.6124,3.11993 37.5,-0.5 Z"/></g>
<g><path style="opacity:1" fill="#50402c" d="M 49.5,2.5 C 52.8291,2.21528 55.8291,2.88195 58.5,4.5C 58.0618,4.43456 57.7284,4.60123 57.5,5C 58.8491,5.77241 59.6824,6.93908 60,8.5C 61.0113,9.33663 62.1779,9.66997 63.5,9.5C 63.5,10.8333 63.5,12.1667 63.5,13.5C 61.6997,12.6919 60.0331,13.1919 58.5,15C 62.4814,17.3283 62.4814,18.1616 58.5,17.5C 57.8825,15.7708 56.8825,14.2708 55.5,13C 56.7376,13.0773 57.7376,12.9106 58.5,12.5C 56.1667,11.8333 53.8333,11.1667 51.5,10.5C 52.0736,8.94113 52.7402,7.44113 53.5,6C 51.4456,6.58279 49.4456,6.08279 47.5,4.5C 48.2427,3.81815 48.9094,3.15149 49.5,2.5 Z"/></g>
<g><path style="opacity:1" fill="#4b3c29" d="M 58.5,4.5 C 63.0604,5.29809 67.3937,6.79809 71.5,9C 75.3338,12.0024 79.0005,15.1691 82.5,18.5C 83.8333,20.8333 85.1667,23.1667 86.5,25.5C 86.5654,25.9382 86.3988,26.2716 86,26.5C 83.0345,21.2015 79.0345,16.8682 74,13.5C 73.5,13.6667 73,13.8333 72.5,14C 73.5171,15.0495 73.6838,16.2161 73,17.5C 71.5587,18.87 69.892,19.87 68,20.5C 68.5589,18.3618 68.3922,16.3618 67.5,14.5C 67.7852,12.712 67.4519,11.0453 66.5,9.5C 65.2096,11.6565 64.3763,13.9899 64,16.5C 63.5172,15.552 63.3505,14.552 63.5,13.5C 63.5,12.1667 63.5,10.8333 63.5,9.5C 62.1779,9.66997 61.0113,9.33663 60,8.5C 59.6824,6.93908 58.8491,5.77241 57.5,5C 57.7284,4.60123 58.0618,4.43456 58.5,4.5 Z"/></g>
<g><path style="opacity:1" fill="#50402b" d="M 38.5,3.5 C 38.4208,4.93047 38.7542,6.26381 39.5,7.5C 37.8309,7.69325 36.1643,8.69325 34.5,10.5C 36.0072,11.7388 37.1739,11.4054 38,9.5C 38.3333,10.1667 38.6667,10.8333 39,11.5C 39.956,10.4214 40.7894,9.25471 41.5,8C 44.2713,8.34667 46.9379,8.18 49.5,7.5C 49.5,8.83333 49.5,10.1667 49.5,11.5C 48.5,11.5 47.5,11.5 46.5,11.5C 46.634,13.2915 46.3007,14.9582 45.5,16.5C 45.3691,17.3764 45.7025,18.0431 46.5,18.5C 47.451,17.6744 48.451,17.5078 49.5,18C 48.6634,19.0113 48.33,20.1779 48.5,21.5C 47.1667,21.5 45.8333,21.5 44.5,21.5C 40.8271,20.2924 40.6604,18.6257 44,16.5C 44.9461,14.0437 44.4461,12.0437 42.5,10.5C 41.6143,11.325 41.281,12.325 41.5,13.5C 39.0576,13.3537 38.3909,14.187 39.5,16C 38.9535,16.9246 38.2868,17.7579 37.5,18.5C 36.7022,16.9223 36.2022,15.2556 36,13.5C 35.0138,14.1712 33.8471,14.1712 32.5,13.5C 31.2003,12.399 30.7003,11.0657 31,9.5C 32.8813,12.3509 33.7146,12.0175 33.5,8.5C 33.3601,6.97041 32.6935,5.97041 31.5,5.5C 33.5145,4.07619 35.8478,3.40953 38.5,3.5 Z"/></g>
<g><path style="opacity:1" fill="#453727" d="M 27.5,7.5 C 28.2389,7.36899 28.9056,7.53566 29.5,8C 26.5258,9.09651 24.8592,11.2632 24.5,14.5C 26.3316,15.0568 27.6649,16.0568 28.5,17.5C 25.2693,18.0978 24.936,19.2644 27.5,21C 25.8807,21.2355 24.8807,22.0689 24.5,23.5C 24.1667,23.5 23.8333,23.5 23.5,23.5C 23.0338,21.7988 23.0338,20.2988 23.5,19C 22.6721,18.0853 21.6721,17.4186 20.5,17C 21.731,15.8173 21.731,14.6507 20.5,13.5C 18.079,15.9337 15.4123,17.9337 12.5,19.5C 16.3408,13.9865 21.3408,9.98649 27.5,7.5 Z"/></g>
<g><path style="opacity:1" fill="#4e3e2b" d="M 49.5,2.5 C 48.9094,3.15149 48.2427,3.81815 47.5,4.5C 49.4456,6.08279 51.4456,6.58279 53.5,6C 52.7402,7.44113 52.0736,8.94113 51.5,10.5C 53.8333,11.1667 56.1667,11.8333 58.5,12.5C 57.7376,12.9106 56.7376,13.0773 55.5,13C 56.8825,14.2708 57.8825,15.7708 58.5,17.5C 59.9025,18.9312 61.5692,20.0978 63.5,21C 61.9632,22.1096 61.2965,23.6096 61.5,25.5C 59.7868,24.3646 59.1201,22.698 59.5,20.5C 57.0576,20.3537 56.3909,21.187 57.5,23C 56.9558,23.7172 56.2891,24.2172 55.5,24.5C 54.7326,23.828 54.0659,22.9947 53.5,22C 55.1028,18.4732 54.2695,15.6398 51,13.5C 49.6545,15.3417 47.8211,16.3417 45.5,16.5C 46.3007,14.9582 46.634,13.2915 46.5,11.5C 47.5,11.5 48.5,11.5 49.5,11.5C 49.5,10.1667 49.5,8.83333 49.5,7.5C 46.9379,8.18 44.2713,8.34667 41.5,8C 40.7894,9.25471 39.956,10.4214 39,11.5C 38.6667,10.8333 38.3333,10.1667 38,9.5C 37.1739,11.4054 36.0072,11.7388 34.5,10.5C 36.1643,8.69325 37.8309,7.69325 39.5,7.5C 38.7542,6.26381 38.4208,4.93047 38.5,3.5C 41.9619,2.51836 45.6286,2.18503 49.5,2.5 Z"/></g>
<g><path style="opacity:1" fill="#4b3c28" d="M 44.5,21.5 C 44.5,21.8333 44.5,22.1667 44.5,22.5C 43.3354,24.8902 44.0021,26.8902 46.5,28.5C 45.4179,28.7486 44.0846,28.9152 42.5,29C 45.1059,29.4505 46.4392,30.9505 46.5,33.5C 47.4194,34.8962 44.7527,35.2296 38.5,34.5C 39.5676,33.5655 40.901,33.2322 42.5,33.5C 41.0237,29.982 39.357,26.6487 37.5,23.5C 36.5,23.5 35.5,23.5 34.5,23.5C 34.3688,26.22 33.8688,28.8867 33,31.5C 31.9808,29.4982 31.1475,27.4982 30.5,25.5C 30.5,24.1667 30.5,22.8333 30.5,21.5C 31.8221,21.33 32.9887,21.6634 34,22.5C 34.3742,21.5838 34.8742,20.7504 35.5,20C 34.2624,20.0773 33.2624,19.9106 32.5,19.5C 33.1667,18.8333 33.8333,18.1667 34.5,17.5C 33.3128,16.4805 32.3128,15.3139 31.5,14C 31.7284,13.6012 32.0618,13.4346 32.5,13.5C 33.8471,14.1712 35.0138,14.1712 36,13.5C 36.2022,15.2556 36.7022,16.9223 37.5,18.5C 38.2868,17.7579 38.9535,16.9246 39.5,16C 38.3909,14.187 39.0576,13.3537 41.5,13.5C 41.281,12.325 41.6143,11.325 42.5,10.5C 44.4461,12.0437 44.9461,14.0437 44,16.5C 40.6604,18.6257 40.8271,20.2924 44.5,21.5 Z"/></g>
<g><path style="opacity:1" fill="#52432d" d="M 55.5,24.5 C 55.5,24.8333 55.5,25.1667 55.5,25.5C 56.625,26.6522 56.625,27.6522 55.5,28.5C 51.9865,31.4749 50.1532,30.4749 50,25.5C 49.4387,26.0219 48.772,26.3552 48,26.5C 46.5879,25.3144 45.4212,23.981 44.5,22.5C 44.5,22.1667 44.5,21.8333 44.5,21.5C 45.8333,21.5 47.1667,21.5 48.5,21.5C 48.33,20.1779 48.6634,19.0113 49.5,18C 48.451,17.5078 47.451,17.6744 46.5,18.5C 45.7025,18.0431 45.3691,17.3764 45.5,16.5C 47.8211,16.3417 49.6545,15.3417 51,13.5C 54.2695,15.6398 55.1028,18.4732 53.5,22C 54.0659,22.9947 54.7326,23.828 55.5,24.5 Z"/></g>
<g><path style="opacity:1" fill="#4e3e2b" d="M 31.5,5.5 C 32.6935,5.97041 33.3601,6.97041 33.5,8.5C 33.7146,12.0175 32.8813,12.3509 31,9.5C 30.7003,11.0657 31.2003,12.399 32.5,13.5C 32.0618,13.4346 31.7284,13.6012 31.5,14C 32.3128,15.3139 33.3128,16.4805 34.5,17.5C 33.8333,18.1667 33.1667,18.8333 32.5,19.5C 33.2624,19.9106 34.2624,20.0773 35.5,20C 34.8742,20.7504 34.3742,21.5838 34,22.5C 32.9887,21.6634 31.8221,21.33 30.5,21.5C 30.5,22.8333 30.5,24.1667 30.5,25.5C 27.8429,22.9093 28.1762,20.9093 31.5,19.5C 30.6431,18.5748 29.6431,17.9081 28.5,17.5C 27.6649,16.0568 26.3316,15.0568 24.5,14.5C 24.8592,11.2632 26.5258,9.09651 29.5,8C 28.9056,7.53566 28.2389,7.36899 27.5,7.5C 28.5137,6.32627 29.847,5.6596 31.5,5.5 Z"/></g>
<g><path style="opacity:1" fill="#54442e" d="M 67.5,14.5 C 67.3796,16.1986 67.0463,17.8653 66.5,19.5C 66.6682,21.1705 67.3349,22.5039 68.5,23.5C 67.4605,26.3881 66.1271,26.7214 64.5,24.5C 63.6667,26.5 62.8333,28.5 62,30.5C 61.5065,28.8659 61.3398,27.1992 61.5,25.5C 61.2965,23.6096 61.9632,22.1096 63.5,21C 61.5692,20.0978 59.9025,18.9312 58.5,17.5C 62.4814,18.1616 62.4814,17.3283 58.5,15C 60.0331,13.1919 61.6997,12.6919 63.5,13.5C 63.3505,14.552 63.5172,15.552 64,16.5C 64.3763,13.9899 65.2096,11.6565 66.5,9.5C 67.4519,11.0453 67.7852,12.712 67.5,14.5 Z"/></g>
<g><path style="opacity:1" fill="#4a3b2a" d="M 23.5,23.5 C 22.8333,23.8333 22.1667,24.1667 21.5,24.5C 17.2717,24.4017 13.2717,24.0683 9.5,23.5C 9.5,23.1667 9.5,22.8333 9.5,22.5C 10.7281,21.6935 11.7281,20.6935 12.5,19.5C 15.4123,17.9337 18.079,15.9337 20.5,13.5C 21.731,14.6507 21.731,15.8173 20.5,17C 21.6721,17.4186 22.6721,18.0853 23.5,19C 23.0338,20.2988 23.0338,21.7988 23.5,23.5 Z"/></g>
<g><path style="opacity:1" fill="#4f3f2c" d="M 86.5,25.5 C 89.5267,29.2371 91.1933,33.5705 91.5,38.5C 89.4424,40.9965 88.2757,40.3298 88,36.5C 85.6837,37.5224 85.1837,39.0224 86.5,41C 85.3333,41.5 84.5,42.3333 84,43.5C 83.9428,40.1489 83.1094,37.1489 81.5,34.5C 81.8807,33.0689 82.8807,32.2355 84.5,32C 82.7444,31.7978 81.0777,31.2978 79.5,30.5C 81.0049,29.1585 81.6715,27.4918 81.5,25.5C 80.1266,25.6567 78.7932,25.49 77.5,25C 76.5987,18.5447 74.5987,18.0447 71.5,23.5C 72.1272,24.4168 72.4606,25.4168 72.5,26.5C 72.44,27.0431 72.1067,27.3764 71.5,27.5C 70.4793,26.0986 69.4793,24.7653 68.5,23.5C 67.3349,22.5039 66.6682,21.1705 66.5,19.5C 67.0463,17.8653 67.3796,16.1986 67.5,14.5C 68.3922,16.3618 68.5589,18.3618 68,20.5C 69.892,19.87 71.5587,18.87 73,17.5C 73.6838,16.2161 73.5171,15.0495 72.5,14C 73,13.8333 73.5,13.6667 74,13.5C 79.0345,16.8682 83.0345,21.2015 86,26.5C 86.3988,26.2716 86.5654,25.9382 86.5,25.5 Z"/></g>
<g><path style="opacity:1" fill="#4b3b28" d="M 28.5,17.5 C 29.6431,17.9081 30.6431,18.5748 31.5,19.5C 28.1762,20.9093 27.8429,22.9093 30.5,25.5C 30.2452,27.7545 30.2452,30.0878 30.5,32.5C 30.2528,33.7133 29.5862,34.38 28.5,34.5C 28.1667,34.5 27.8333,34.5 27.5,34.5C 24.1553,31.6092 23.822,28.4425 26.5,25C 25.5842,24.7216 24.9175,24.2216 24.5,23.5C 24.8807,22.0689 25.8807,21.2355 27.5,21C 24.936,19.2644 25.2693,18.0978 28.5,17.5 Z"/></g>
<g><path style="opacity:1" fill="#4d3d28" d="M 38.5,34.5 C 38.5,34.8333 38.5,35.1667 38.5,35.5C 39.1667,36.1667 39.8333,36.8333 40.5,37.5C 39.1266,37.6567 37.7932,37.49 36.5,37C 37.7112,36.1072 37.7112,35.2739 36.5,34.5C 34.6961,34.9857 33.0294,35.319 31.5,35.5C 30.5,35.5 29.5,35.5 28.5,35.5C 28.5,35.1667 28.5,34.8333 28.5,34.5C 29.5862,34.38 30.2528,33.7133 30.5,32.5C 30.2452,30.0878 30.2452,27.7545 30.5,25.5C 31.1475,27.4982 31.9808,29.4982 33,31.5C 33.8688,28.8867 34.3688,26.22 34.5,23.5C 35.5,23.5 36.5,23.5 37.5,23.5C 39.357,26.6487 41.0237,29.982 42.5,33.5C 40.901,33.2322 39.5676,33.5655 38.5,34.5 Z"/></g>
<g><path style="opacity:1" fill="#54432d" d="M 44.5,22.5 C 45.4212,23.981 46.5879,25.3144 48,26.5C 48.772,26.3552 49.4387,26.0219 50,25.5C 50.1532,30.4749 51.9865,31.4749 55.5,28.5C 55.4208,29.9305 55.7542,31.2638 56.5,32.5C 55.3757,33.8592 54.0423,34.8592 52.5,35.5C 47.8333,35.5 43.1667,35.5 38.5,35.5C 38.5,35.1667 38.5,34.8333 38.5,34.5C 44.7527,35.2296 47.4194,34.8962 46.5,33.5C 46.4392,30.9505 45.1059,29.4505 42.5,29C 44.0846,28.9152 45.4179,28.7486 46.5,28.5C 44.0021,26.8902 43.3354,24.8902 44.5,22.5 Z"/></g>
<g><path style="opacity:1" fill="#544430" d="M 81.5,34.5 C 81.1667,34.5 80.8333,34.5 80.5,34.5C 79.0806,32.073 78.0806,29.4064 77.5,26.5C 74.2974,27.5693 73.2974,29.5693 74.5,32.5C 71.2156,33.657 67.8823,33.8236 64.5,33C 63.1667,32.3333 63.1667,31.6667 64.5,31C 67.0444,29.908 69.7111,29.2414 72.5,29C 73.7736,28.0228 73.7736,27.1894 72.5,26.5C 72.4606,25.4168 72.1272,24.4168 71.5,23.5C 74.5987,18.0447 76.5987,18.5447 77.5,25C 78.7932,25.49 80.1266,25.6567 81.5,25.5C 81.6715,27.4918 81.0049,29.1585 79.5,30.5C 81.0777,31.2978 82.7444,31.7978 84.5,32C 82.8807,32.2355 81.8807,33.0689 81.5,34.5 Z"/></g>
<g><path style="opacity:1" fill="#433525" d="M 23.5,23.5 C 23.8333,23.5 24.1667,23.5 24.5,23.5C 24.9175,24.2216 25.5842,24.7216 26.5,25C 23.822,28.4425 24.1553,31.6092 27.5,34.5C 23.1161,34.1744 18.7828,34.5078 14.5,35.5C 14.6236,36.1067 14.9569,36.44 15.5,36.5C 16.4916,36.3284 17.1583,36.6618 17.5,37.5C 17.5,42.5 17.5,47.5 17.5,52.5C 16.8354,50.6309 16.1687,48.6309 15.5,46.5C 13.8888,47.3202 13.2222,48.6536 13.5,50.5C 12.3478,51.625 11.3478,51.625 10.5,50.5C 12.0265,49.5081 12.6932,48.0081 12.5,46C 12.6932,43.9919 12.0265,42.4919 10.5,41.5C 10.9038,40.2436 11.5705,39.0769 12.5,38C 11.5761,36.85 11.5761,35.85 12.5,35C 11.8333,34.6667 11.1667,34.3333 10.5,34C 12.1066,32.951 12.7733,31.451 12.5,29.5C 13.5,29.5 14.5,29.5 15.5,29.5C 15.5,30.8333 15.5,32.1667 15.5,33.5C 18.1667,33.5 20.8333,33.5 23.5,33.5C 23.528,31.4176 22.8613,29.5843 21.5,28C 24.1251,26.6072 24.1251,25.4405 21.5,24.5C 22.1667,24.1667 22.8333,23.8333 23.5,23.5 Z"/></g>
<g><path style="opacity:1" fill="#55442e" d="M 61.5,25.5 C 61.3398,27.1992 61.5065,28.8659 62,30.5C 62.8333,28.5 63.6667,26.5 64.5,24.5C 66.1271,26.7214 67.4605,26.3881 68.5,23.5C 69.4793,24.7653 70.4793,26.0986 71.5,27.5C 72.1067,27.3764 72.44,27.0431 72.5,26.5C 73.7736,27.1894 73.7736,28.0228 72.5,29C 69.7111,29.2414 67.0444,29.908 64.5,31C 63.1667,31.6667 63.1667,32.3333 64.5,33C 67.8823,33.8236 71.2156,33.657 74.5,32.5C 73.2974,29.5693 74.2974,27.5693 77.5,26.5C 78.0806,29.4064 79.0806,32.073 80.5,34.5C 80.5,34.8333 80.5,35.1667 80.5,35.5C 73.4122,35.2045 66.4122,35.5379 59.5,36.5C 59.3178,34.3254 58.6511,32.3254 57.5,30.5C 57.722,28.9446 58.3887,27.6113 59.5,26.5C 58.3895,26.6242 57.0562,26.2909 55.5,25.5C 55.5,25.1667 55.5,24.8333 55.5,24.5C 56.2891,24.2172 56.9558,23.7172 57.5,23C 56.3909,21.187 57.0576,20.3537 59.5,20.5C 59.1201,22.698 59.7868,24.3646 61.5,25.5 Z"/></g>
<g><path style="opacity:1" fill="#4b3c29" d="M 9.5,23.5 C 13.2717,24.0683 17.2717,24.4017 21.5,24.5C 24.1251,25.4405 24.1251,26.6072 21.5,28C 22.8613,29.5843 23.528,31.4176 23.5,33.5C 20.8333,33.5 18.1667,33.5 15.5,33.5C 15.5,32.1667 15.5,30.8333 15.5,29.5C 14.5,29.5 13.5,29.5 12.5,29.5C 12.7733,31.451 12.1066,32.951 10.5,34C 11.1667,34.3333 11.8333,34.6667 12.5,35C 11.5761,35.85 11.5761,36.85 12.5,38C 11.5705,39.0769 10.9038,40.2436 10.5,41.5C 9.52216,41.189 8.85549,40.5223 8.5,39.5C 9.24585,38.2638 9.57918,36.9305 9.5,35.5C 7.7839,35.3713 6.11723,35.038 4.5,34.5C 5.37641,30.4179 7.04308,26.7512 9.5,23.5 Z"/></g>
<g><path style="opacity:0.797" fill="#ebba68" d="M 9.5,22.5 C 9.5,22.8333 9.5,23.1667 9.5,23.5C 7.04308,26.7512 5.37641,30.4179 4.5,34.5C 1.92641,42.4845 1.92641,50.4845 4.5,58.5C 5.23819,62.7146 6.57152,66.7146 8.5,70.5C 8.56745,71.9587 8.23411,73.2921 7.5,74.5C 3.67933,69.3688 1.01266,63.7021 -0.5,57.5C -0.5,50.8333 -0.5,44.1667 -0.5,37.5C 0.924108,32.6448 2.92411,27.9781 5.5,23.5C 7.01739,23.4894 8.18405,22.8228 9,21.5C 9.39877,21.7284 9.56544,22.0618 9.5,22.5 Z"/></g>
<g><path style="opacity:1" fill="#785e33" d="M 27.5,34.5 C 27.8333,34.5 28.1667,34.5 28.5,34.5C 28.5,34.8333 28.5,35.1667 28.5,35.5C 23.9677,35.1818 19.6344,35.5151 15.5,36.5C 14.9569,36.44 14.6236,36.1067 14.5,35.5C 18.7828,34.5078 23.1161,34.1744 27.5,34.5 Z"/></g>
<g><path style="opacity:1" fill="#cb9f4d" d="M 15.5,36.5 C 19.6344,35.5151 23.9677,35.1818 28.5,35.5C 29.5,35.5 30.5,35.5 31.5,35.5C 35.5858,37.002 36.9191,39.6686 35.5,43.5C 34.5041,43.4142 33.6708,43.7476 33,44.5C 32.6667,42.8333 32.3333,41.1667 32,39.5C 31.79,41.0581 31.29,42.3915 30.5,43.5C 30.6602,41.8008 30.4935,40.1341 30,38.5C 29.3292,37.7476 28.4959,37.4142 27.5,37.5C 25.8333,36.1667 24.1667,36.1667 22.5,37.5C 21.8485,38.0906 21.1818,38.7573 20.5,39.5C 19.8182,38.7573 19.1515,38.0906 18.5,37.5C 18.1667,37.5 17.8333,37.5 17.5,37.5C 17.1583,36.6618 16.4916,36.3284 15.5,36.5 Z"/></g>
<g><path style="opacity:1" fill="#ca9e4b" d="M 38.5,35.5 C 43.1667,35.5 47.8333,35.5 52.5,35.5C 53.4916,35.3284 54.1583,35.6618 54.5,36.5C 53.791,37.404 52.791,37.7373 51.5,37.5C 49.9582,36.6993 48.2915,36.366 46.5,36.5C 46.7413,38.8863 46.0746,40.8863 44.5,42.5C 43.5041,42.4142 42.6708,42.7476 42,43.5C 41.8091,41.2922 41.3091,39.2922 40.5,37.5C 39.8333,36.8333 39.1667,36.1667 38.5,35.5 Z"/></g>
<g><path style="opacity:1" fill="#4f3f2b" d="M 80.5,34.5 C 80.8333,34.5 81.1667,34.5 81.5,34.5C 83.1094,37.1489 83.9428,40.1489 84,43.5C 84.5,42.3333 85.3333,41.5 86.5,41C 85.1837,39.0224 85.6837,37.5224 88,36.5C 88.2757,40.3298 89.4424,40.9965 91.5,38.5C 92.8333,44.1667 92.8333,49.8333 91.5,55.5C 91.5,54.5 91.5,53.5 91.5,52.5C 89.1944,52.9926 86.861,53.3259 84.5,53.5C 83.5525,52.0221 82.2191,51.0221 80.5,50.5C 81.7562,50.5386 82.7562,50.0386 83.5,49C 82.4348,47.3708 81.1014,46.2042 79.5,45.5C 79.8457,44.3044 80.3457,44.3044 81,45.5C 82.4754,42.7334 82.3088,40.0668 80.5,37.5C 78.1667,37.5 75.8333,37.5 73.5,37.5C 73.8205,42.6946 73.4872,47.6946 72.5,52.5C 72.5,47.1667 72.5,41.8333 72.5,36.5C 75.3854,36.8064 78.0521,36.4731 80.5,35.5C 80.5,35.1667 80.5,34.8333 80.5,34.5 Z"/></g>
<g><path style="opacity:1" fill="#907039" d="M 54.5,36.5 C 55.1667,36.5 55.5,36.8333 55.5,37.5C 54.0652,40.0283 53.0652,42.695 52.5,45.5C 52.7214,42.7212 52.388,40.0545 51.5,37.5C 52.791,37.7373 53.791,37.404 54.5,36.5 Z"/></g>
<g><path style="opacity:1" fill="#473726" d="M 51.5,37.5 C 52.388,40.0545 52.7214,42.7212 52.5,45.5C 51.3126,47.9754 49.3126,48.9754 46.5,48.5C 46.9746,45.9179 46.3079,43.9179 44.5,42.5C 46.0746,40.8863 46.7413,38.8863 46.5,36.5C 48.2915,36.366 49.9582,36.6993 51.5,37.5 Z"/></g>
<g><path style="opacity:1" fill="#4d3d29" d="M 55.5,25.5 C 57.0562,26.2909 58.3895,26.6242 59.5,26.5C 58.3887,27.6113 57.722,28.9446 57.5,30.5C 58.6511,32.3254 59.3178,34.3254 59.5,36.5C 59.3398,38.1992 59.5065,39.8659 60,41.5C 60.7428,37.2637 63.2428,35.5971 67.5,36.5C 67.5,44.1667 67.5,51.8333 67.5,59.5C 69.1667,59.5 70.8333,59.5 72.5,59.5C 72.5,59.8333 72.5,60.1667 72.5,60.5C 70.712,60.2148 69.0453,60.5481 67.5,61.5C 66.9619,64.1017 66.9619,66.7683 67.5,69.5C 66.5,69.5 65.5,69.5 64.5,69.5C 62.6093,67.1643 62.1093,64.4976 63,61.5C 64.6169,62.5358 64.7836,63.7025 63.5,65C 64.9653,65.6013 65.9653,65.1013 66.5,63.5C 65.6364,61.8035 64.3031,60.6368 62.5,60C 62.8333,59.6667 63.1667,59.3333 63.5,59C 62.8266,56.1413 61.9932,53.308 61,50.5C 60.6905,51.7659 60.1905,52.9326 59.5,54C 59.8333,55.6667 60.1667,57.3333 60.5,59C 57.4567,59.3318 55.4567,60.8318 54.5,63.5C 54.5654,63.9382 54.3988,64.2716 54,64.5C 52.9264,63.3816 51.7598,62.3816 50.5,61.5C 51.6682,60.0944 51.3348,58.9277 49.5,58C 50.3081,57.6924 50.9747,57.1924 51.5,56.5C 51.0798,54.674 51.0798,52.674 51.5,50.5C 49.8333,50.5 48.1667,50.5 46.5,50.5C 48.9686,49.6829 51.6353,49.1829 54.5,49C 58.2916,46.9473 59.4582,43.7806 58,39.5C 57.5831,38.244 56.7498,37.5774 55.5,37.5C 55.5,36.8333 55.1667,36.5 54.5,36.5C 54.1583,35.6618 53.4916,35.3284 52.5,35.5C 54.0423,34.8592 55.3757,33.8592 56.5,32.5C 55.7542,31.2638 55.4208,29.9305 55.5,28.5C 56.625,27.6522 56.625,26.6522 55.5,25.5 Z"/></g>
<g><path style="opacity:1" fill="#4e3e2b" d="M 80.5,37.5 C 82.3088,40.0668 82.4754,42.7334 81,45.5C 80.3457,44.3044 79.8457,44.3044 79.5,45.5C 81.1014,46.2042 82.4348,47.3708 83.5,49C 82.7562,50.0386 81.7562,50.5386 80.5,50.5C 79.0772,52.5449 77.0772,53.5449 74.5,53.5C 74.5,48.5 74.5,43.5 74.5,38.5C 76.7354,38.7947 78.7354,38.4614 80.5,37.5 Z"/></g>
<g><path style="opacity:1" fill="#433423" d="M 31.5,35.5 C 33.0294,35.319 34.6961,34.9857 36.5,34.5C 37.7112,35.2739 37.7112,36.1072 36.5,37C 37.7932,37.49 39.1266,37.6567 40.5,37.5C 41.3091,39.2922 41.8091,41.2922 42,43.5C 42.6708,42.7476 43.5041,42.4142 44.5,42.5C 44.5,42.8333 44.5,43.1667 44.5,43.5C 43.2905,43.9321 42.2905,44.5987 41.5,45.5C 40.6745,49.9819 40.1745,54.6486 40,59.5C 39.6667,57.5 39.3333,55.5 39,53.5C 38.7216,54.4158 38.2216,55.0825 37.5,55.5C 38.0934,52.4041 37.0934,50.0708 34.5,48.5C 31.9711,50.0625 30.9711,52.3959 31.5,55.5C 31.2906,52.1657 29.4572,50.1657 26,49.5C 24.9889,50.0556 24.1556,50.7222 23.5,51.5C 23.5,50.5 23.5,49.5 23.5,48.5C 25.1667,48.5 26.8333,48.5 28.5,48.5C 31.3702,47.5667 33.7036,45.9 35.5,43.5C 36.9191,39.6686 35.5858,37.002 31.5,35.5 Z"/></g>
<g><path style="opacity:1" fill="#483927" d="M 4.5,34.5 C 6.11723,35.038 7.7839,35.3713 9.5,35.5C 9.57918,36.9305 9.24585,38.2638 8.5,39.5C 8.85549,40.5223 9.52216,41.189 10.5,41.5C 12.0265,42.4919 12.6932,43.9919 12.5,46C 12.6932,48.0081 12.0265,49.5081 10.5,50.5C 7.42811,51.3178 7.09478,52.4845 9.5,54C 7.69923,54.3173 7.36589,54.984 8.5,56C 7.85336,57.6095 7.02003,59.1095 6,60.5C 5.8413,58.6573 5.3413,57.9907 4.5,58.5C 1.92641,50.4845 1.92641,42.4845 4.5,34.5 Z"/></g>
<g><path style="opacity:1" fill="#7b6038" d="M 27.5,37.5 C 26.1667,37.5 24.8333,37.5 23.5,37.5C 23.5,40.1667 23.5,42.8333 23.5,45.5C 25.1667,45.5 26.8333,45.5 28.5,45.5C 26.7354,46.4614 24.7354,46.7947 22.5,46.5C 22.5,43.5 22.5,40.5 22.5,37.5C 24.1667,36.1667 25.8333,36.1667 27.5,37.5 Z"/></g>
<g><path style="opacity:1" fill="#443626" d="M 27.5,37.5 C 28.4959,37.4142 29.3292,37.7476 30,38.5C 30.4935,40.1341 30.6602,41.8008 30.5,43.5C 30.1667,44.5 29.5,45.1667 28.5,45.5C 26.8333,45.5 25.1667,45.5 23.5,45.5C 23.5,42.8333 23.5,40.1667 23.5,37.5C 24.8333,37.5 26.1667,37.5 27.5,37.5 Z"/></g>
<g><path style="opacity:1" fill="#9f7d49" d="M 44.5,43.5 C 44.5,43.1667 44.5,42.8333 44.5,42.5C 46.3079,43.9179 46.9746,45.9179 46.5,48.5C 45.8333,46.8333 45.1667,45.1667 44.5,43.5 Z"/></g>
<g><path style="opacity:0.933" fill="#edbc69" d="M 85.5,17.5 C 90.4532,23.4064 93.7865,30.073 95.5,37.5C 95.5,44.1667 95.5,50.8333 95.5,57.5C 94.269,62.1953 92.269,66.5286 89.5,70.5C 89.5654,70.0618 89.3988,69.7284 89,69.5C 87.3917,73.0427 85.0584,76.0427 82,78.5C 81.6012,78.2716 81.4346,77.9382 81.5,77.5C 82.7515,75.9991 83.7515,74.3325 84.5,72.5C 85.9744,71.5637 86.9744,70.2303 87.5,68.5C 89.6346,64.4285 90.9679,60.0952 91.5,55.5C 92.8333,49.8333 92.8333,44.1667 91.5,38.5C 91.1933,33.5705 89.5267,29.2371 86.5,25.5C 85.1667,23.1667 83.8333,20.8333 82.5,18.5C 83.209,17.596 84.209,17.2627 85.5,17.5 Z"/></g>
<g><path style="opacity:1" fill="#a78149" d="M 28.5,48.5 C 26.8333,48.5 25.1667,48.5 23.5,48.5C 23.5,49.5 23.5,50.5 23.5,51.5C 23.1667,51.5 22.8333,51.5 22.5,51.5C 22.5,50.1667 22.5,48.8333 22.5,47.5C 24.7354,47.2053 26.7354,47.5386 28.5,48.5 Z"/></g>
<g><path style="opacity:1" fill="#eebf6a" d="M 55.5,37.5 C 56.7498,37.5774 57.5831,38.244 58,39.5C 59.4582,43.7806 58.2916,46.9473 54.5,49C 51.6353,49.1829 48.9686,49.6829 46.5,50.5C 45.5233,53.2869 45.19,56.2869 45.5,59.5C 44.1667,59.5 42.8333,59.5 41.5,59.5C 41.5,54.8333 41.5,50.1667 41.5,45.5C 42.2905,44.5987 43.2905,43.9321 44.5,43.5C 45.1667,45.1667 45.8333,46.8333 46.5,48.5C 49.3126,48.9754 51.3126,47.9754 52.5,45.5C 53.0652,42.695 54.0652,40.0283 55.5,37.5 Z"/></g>
<g><path style="opacity:1" fill="#e1b15f" d="M 80.5,35.5 C 78.0521,36.4731 75.3854,36.8064 72.5,36.5C 72.5,41.8333 72.5,47.1667 72.5,52.5C 72.5,54.8333 72.5,57.1667 72.5,59.5C 70.8333,59.5 69.1667,59.5 67.5,59.5C 67.5,51.8333 67.5,44.1667 67.5,36.5C 63.2428,35.5971 60.7428,37.2637 60,41.5C 59.5065,39.8659 59.3398,38.1992 59.5,36.5C 66.4122,35.5379 73.4122,35.2045 80.5,35.5 Z"/></g>
<g><path style="opacity:1" fill="#9c7b48" d="M 17.5,37.5 C 17.8333,37.5 18.1667,37.5 18.5,37.5C 18.1795,42.6946 18.5128,47.6946 19.5,52.5C 18.8333,53.8333 18.1667,53.8333 17.5,52.5C 17.5,47.5 17.5,42.5 17.5,37.5 Z"/></g>
<g><path style="opacity:1" fill="#f3c26d" d="M 18.5,37.5 C 19.1515,38.0906 19.8182,38.7573 20.5,39.5C 21.1818,38.7573 21.8485,38.0906 22.5,37.5C 22.5,40.5 22.5,43.5 22.5,46.5C 24.7354,46.7947 26.7354,46.4614 28.5,45.5C 29.5,45.1667 30.1667,44.5 30.5,43.5C 31.29,42.3915 31.79,41.0581 32,39.5C 32.3333,41.1667 32.6667,42.8333 33,44.5C 33.6708,43.7476 34.5041,43.4142 35.5,43.5C 33.7036,45.9 31.3702,47.5667 28.5,48.5C 26.7354,47.5386 24.7354,47.2053 22.5,47.5C 22.5,48.8333 22.5,50.1667 22.5,51.5C 21.391,51.5569 20.391,51.8902 19.5,52.5C 18.5128,47.6946 18.1795,42.6946 18.5,37.5 Z"/></g>
<g><path style="opacity:1" fill="#473928" d="M 91.5,55.5 C 90.9679,60.0952 89.6346,64.4285 87.5,68.5C 85.7074,68.1164 84.7074,66.9497 84.5,65C 85.2893,64.4536 86.2893,63.7869 87.5,63C 85.3949,61.8066 83.7282,60.1399 82.5,58C 84.0368,56.8904 84.7035,55.3904 84.5,53.5C 86.861,53.3259 89.1944,52.9926 91.5,52.5C 91.5,53.5 91.5,54.5 91.5,55.5 Z"/></g>
<g><path style="opacity:1" fill="#503f2a" d="M 17.5,52.5 C 18.1667,53.8333 18.8333,53.8333 19.5,52.5C 20.391,51.8902 21.391,51.5569 22.5,51.5C 22.8333,51.5 23.1667,51.5 23.5,51.5C 24.1556,50.7222 24.9889,50.0556 26,49.5C 29.4572,50.1657 31.2906,52.1657 31.5,55.5C 29.1547,58.075 26.1547,59.075 22.5,58.5C 22.719,57.325 22.3857,56.325 21.5,55.5C 19.4501,56.0766 18.4501,57.4099 18.5,59.5C 22.5,59.5 26.5,59.5 30.5,59.5C 24.9021,60.3993 19.2355,61.2326 13.5,62C 14.5536,60.6124 14.7203,59.1124 14,57.5C 12.6575,58.9023 11.8242,58.5689 11.5,56.5C 12.6511,54.6746 13.3178,52.6746 13.5,50.5C 13.2222,48.6536 13.8888,47.3202 15.5,46.5C 16.1687,48.6309 16.8354,50.6309 17.5,52.5 Z"/></g>
<g><path style="opacity:1" fill="#493a27" d="M 80.5,37.5 C 78.7354,38.4614 76.7354,38.7947 74.5,38.5C 74.5,43.5 74.5,48.5 74.5,53.5C 77.0772,53.5449 79.0772,52.5449 80.5,50.5C 82.2191,51.0221 83.5525,52.0221 84.5,53.5C 84.7035,55.3904 84.0368,56.8904 82.5,58C 83.7282,60.1399 85.3949,61.8066 87.5,63C 86.2893,63.7869 85.2893,64.4536 84.5,65C 84.7074,66.9497 85.7074,68.1164 87.5,68.5C 86.9744,70.2303 85.9744,71.5637 84.5,72.5C 84.1865,69.5454 82.8532,67.212 80.5,65.5C 79.8076,66.0253 79.3076,66.6919 79,67.5C 75.7771,63.4363 73.2771,63.7697 71.5,68.5C 70.5266,68.0133 69.5266,67.5133 68.5,67C 70.2532,65.0015 71.5865,62.8348 72.5,60.5C 72.5,60.1667 72.5,59.8333 72.5,59.5C 72.5,57.1667 72.5,54.8333 72.5,52.5C 73.4872,47.6946 73.8205,42.6946 73.5,37.5C 75.8333,37.5 78.1667,37.5 80.5,37.5 Z"/></g>
<g><path style="opacity:1" fill="#d9aa58" d="M 37.5,55.5 C 36.8333,55.5 36.5,55.8333 36.5,56.5C 35.1283,57.5116 33.795,58.5116 32.5,59.5C 31.8333,59.5 31.1667,59.5 30.5,59.5C 26.5,59.5 22.5,59.5 18.5,59.5C 18.4501,57.4099 19.4501,56.0766 21.5,55.5C 22.3857,56.325 22.719,57.325 22.5,58.5C 26.1547,59.075 29.1547,58.075 31.5,55.5C 30.9711,52.3959 31.9711,50.0625 34.5,48.5C 37.0934,50.0708 38.0934,52.4041 37.5,55.5 Z"/></g>
<g><path style="opacity:1" fill="#473826" d="M 64.5,69.5 C 63.6618,69.8417 63.3284,70.5084 63.5,71.5C 61.8599,70.6799 60.1932,69.8466 58.5,69C 61.4685,66.8223 61.1351,65.6556 57.5,65.5C 57.7148,67.1788 57.0481,68.1788 55.5,68.5C 54.9569,68.44 54.6236,68.1067 54.5,67.5C 56.124,66.1311 56.624,64.4645 56,62.5C 55.6174,63.056 55.1174,63.3893 54.5,63.5C 55.4567,60.8318 57.4567,59.3318 60.5,59C 60.1667,57.3333 59.8333,55.6667 59.5,54C 60.1905,52.9326 60.6905,51.7659 61,50.5C 61.9932,53.308 62.8266,56.1413 63.5,59C 63.1667,59.3333 62.8333,59.6667 62.5,60C 64.3031,60.6368 65.6364,61.8035 66.5,63.5C 65.9653,65.1013 64.9653,65.6013 63.5,65C 64.7836,63.7025 64.6169,62.5358 63,61.5C 62.1093,64.4976 62.6093,67.1643 64.5,69.5 Z"/></g>
<g><path style="opacity:1" fill="#443626" d="M 10.5,50.5 C 11.3478,51.625 12.3478,51.625 13.5,50.5C 13.3178,52.6746 12.6511,54.6746 11.5,56.5C 11.8242,58.5689 12.6575,58.9023 14,57.5C 14.7203,59.1124 14.5536,60.6124 13.5,62C 19.2355,61.2326 24.9021,60.3993 30.5,59.5C 31.1667,59.5 31.8333,59.5 32.5,59.5C 33.2389,59.369 33.9056,59.5357 34.5,60C 32.6547,61.128 30.6547,61.628 28.5,61.5C 28.5,62.5 28.5,63.5 28.5,64.5C 24.7034,67.489 21.2034,70.8224 18,74.5C 16.7325,72.5764 16.7325,70.9097 18,69.5C 18.3333,70.1667 18.6667,70.8333 19,71.5C 20.3454,69.1703 20.5121,66.8369 19.5,64.5C 18.549,63.6744 17.549,63.5078 16.5,64C 16.8346,65.5026 16.8346,66.836 16.5,68C 15.0039,68.5074 13.8373,68.0074 13,66.5C 12.5604,68.0762 11.727,69.4096 10.5,70.5C 13.1059,74.6092 16.2726,78.2759 20,81.5C 20.3333,79.5 20.6667,77.5 21,75.5C 22.0084,75.0183 23.175,74.8516 24.5,75C 23.3318,73.5944 23.6652,72.4277 25.5,71.5C 28.8105,70.2086 29.1438,70.7086 26.5,73C 27.3805,73.7083 28.0472,74.5416 28.5,75.5C 28.5,75.8333 28.5,76.1667 28.5,76.5C 27.603,77.5981 26.7697,77.5981 26,76.5C 25.1475,78.1247 24.1475,78.4581 23,77.5C 20.2845,81.133 21.1179,83.633 25.5,85C 24.9056,85.4643 24.2389,85.631 23.5,85.5C 17.4727,81.4727 12.4727,76.4727 8.5,70.5C 6.57152,66.7146 5.23819,62.7146 4.5,58.5C 5.3413,57.9907 5.8413,58.6573 6,60.5C 7.02003,59.1095 7.85336,57.6095 8.5,56C 7.36589,54.984 7.69923,54.3173 9.5,54C 7.09478,52.4845 7.42811,51.3178 10.5,50.5 Z"/></g>
<g><path style="opacity:1" fill="#4e3e2a" d="M 36.5,56.5 C 37.3552,58.7868 37.5218,61.1201 37,63.5C 38.016,62.3659 38.6827,62.6992 39,64.5C 39.3333,63.1667 39.6667,61.8333 40,60.5C 42.3258,60.88 44.1591,61.88 45.5,63.5C 45.9528,64.4584 46.6195,65.2917 47.5,66C 46.244,66.4169 45.5774,67.2502 45.5,68.5C 44.2921,69.2341 42.9587,69.5674 41.5,69.5C 41.6495,70.552 41.4828,71.552 41,72.5C 39.6189,70.3651 38.6189,68.0318 38,65.5C 36.583,66.0779 35.7496,67.0779 35.5,68.5C 34.8333,68.5 34.1667,68.5 33.5,68.5C 32.7326,67.828 32.0659,66.9947 31.5,66C 32.5171,64.9505 32.6838,63.7839 32,62.5C 31.4334,64.9833 30.2667,65.65 28.5,64.5C 28.5,63.5 28.5,62.5 28.5,61.5C 30.6547,61.628 32.6547,61.128 34.5,60C 33.9056,59.5357 33.2389,59.369 32.5,59.5C 33.795,58.5116 35.1283,57.5116 36.5,56.5 Z"/></g>
<g><path style="opacity:1" fill="#4d3c28" d="M 41.5,45.5 C 41.5,50.1667 41.5,54.8333 41.5,59.5C 42.9187,60.4511 44.5853,60.7845 46.5,60.5C 46.5,57.1667 46.5,53.8333 46.5,50.5C 48.1667,50.5 49.8333,50.5 51.5,50.5C 51.0798,52.674 51.0798,54.674 51.5,56.5C 50.9747,57.1924 50.3081,57.6924 49.5,58C 51.3348,58.9277 51.6682,60.0944 50.5,61.5C 51.7598,62.3816 52.9264,63.3816 54,64.5C 54.3988,64.2716 54.5654,63.9382 54.5,63.5C 55.1174,63.3893 55.6174,63.056 56,62.5C 56.624,64.4645 56.124,66.1311 54.5,67.5C 54.6236,68.1067 54.9569,68.44 55.5,68.5C 55.1583,69.3382 54.4916,69.6716 53.5,69.5C 53.0133,68.5266 52.5133,67.5266 52,66.5C 50.9505,67.5171 49.7839,67.6838 48.5,67C 49.6226,65.9563 50.9559,65.2896 52.5,65C 50.3225,63.7978 47.9892,63.2978 45.5,63.5C 44.1591,61.88 42.3258,60.88 40,60.5C 39.6667,61.8333 39.3333,63.1667 39,64.5C 38.6827,62.6992 38.016,62.3659 37,63.5C 37.5218,61.1201 37.3552,58.7868 36.5,56.5C 36.5,55.8333 36.8333,55.5 37.5,55.5C 38.2216,55.0825 38.7216,54.4158 39,53.5C 39.3333,55.5 39.6667,57.5 40,59.5C 40.1745,54.6486 40.6745,49.9819 41.5,45.5 Z"/></g>
<g><path style="opacity:1" fill="#92723d" d="M 46.5,50.5 C 46.5,53.8333 46.5,57.1667 46.5,60.5C 44.5853,60.7845 42.9187,60.4511 41.5,59.5C 42.8333,59.5 44.1667,59.5 45.5,59.5C 45.19,56.2869 45.5233,53.2869 46.5,50.5 Z"/></g>
<g><path style="opacity:1" fill="#463725" d="M 72.5,60.5 C 71.5865,62.8348 70.2532,65.0015 68.5,67C 69.5266,67.5133 70.5266,68.0133 71.5,68.5C 71.0825,69.2216 70.4158,69.7216 69.5,70C 71.4638,72.5178 72.1305,75.1845 71.5,78C 72.8333,78.3333 74.1667,78.6667 75.5,79C 75.8836,79.9506 76.2169,80.7839 76.5,81.5C 72.5913,85.3905 67.9246,88.0571 62.5,89.5C 62.0618,89.5654 61.7284,89.3988 61.5,89C 63.3008,88.6827 63.6341,88.016 62.5,87C 63.5541,84.6178 64.2208,82.1178 64.5,79.5C 65.675,79.719 66.675,79.3857 67.5,78.5C 66.176,76.0313 64.8427,73.698 63.5,71.5C 63.3284,70.5084 63.6618,69.8417 64.5,69.5C 65.5,69.5 66.5,69.5 67.5,69.5C 66.9619,66.7683 66.9619,64.1017 67.5,61.5C 69.0453,60.5481 70.712,60.2148 72.5,60.5 Z"/></g>
<g><path style="opacity:1" fill="#483a29" d="M 33.5,68.5 C 31.9062,69.983 30.2395,71.483 28.5,73C 30.8418,74.3919 30.8418,75.2252 28.5,75.5C 28.0472,74.5416 27.3805,73.7083 26.5,73C 29.1438,70.7086 28.8105,70.2086 25.5,71.5C 23.6652,72.4277 23.3318,73.5944 24.5,75C 23.175,74.8516 22.0084,75.0183 21,75.5C 20.6667,77.5 20.3333,79.5 20,81.5C 16.2726,78.2759 13.1059,74.6092 10.5,70.5C 11.727,69.4096 12.5604,68.0762 13,66.5C 13.8373,68.0074 15.0039,68.5074 16.5,68C 16.8346,66.836 16.8346,65.5026 16.5,64C 17.549,63.5078 18.549,63.6744 19.5,64.5C 20.5121,66.8369 20.3454,69.1703 19,71.5C 18.6667,70.8333 18.3333,70.1667 18,69.5C 16.7325,70.9097 16.7325,72.5764 18,74.5C 21.2034,70.8224 24.7034,67.489 28.5,64.5C 30.2667,65.65 31.4334,64.9833 32,62.5C 32.6838,63.7839 32.5171,64.9505 31.5,66C 32.0659,66.9947 32.7326,67.828 33.5,68.5 Z"/></g>
<g><path style="opacity:1" fill="#4b3b29" d="M 45.5,68.5 C 45.3691,69.3764 45.7025,70.0431 46.5,70.5C 46.8333,69.8333 47.1667,69.1667 47.5,68.5C 47.8333,69 48.1667,69.5 48.5,70C 47.1667,72 47.1667,74 48.5,76C 48.1667,76.5 47.8333,77 47.5,77.5C 46.8333,76.5 46.1667,75.5 45.5,74.5C 44.4822,75.1925 43.4822,75.8592 42.5,76.5C 40.4352,77.8256 39.1019,77.159 38.5,74.5C 36.5,73.6667 34.5,72.8333 32.5,72C 33.6226,70.9563 34.9559,70.2896 36.5,70C 35.944,69.6174 35.6107,69.1174 35.5,68.5C 35.7496,67.0779 36.583,66.0779 38,65.5C 38.6189,68.0318 39.6189,70.3651 41,72.5C 41.4828,71.552 41.6495,70.552 41.5,69.5C 42.9587,69.5674 44.2921,69.2341 45.5,68.5 Z"/></g>
<g><path style="opacity:1" fill="#453624" d="M 84.5,72.5 C 83.7515,74.3325 82.7515,75.9991 81.5,77.5C 79.8333,78.8333 78.1667,80.1667 76.5,81.5C 76.2169,80.7839 75.8836,79.9506 75.5,79C 74.1667,78.6667 72.8333,78.3333 71.5,78C 72.1305,75.1845 71.4638,72.5178 69.5,70C 70.4158,69.7216 71.0825,69.2216 71.5,68.5C 73.2771,63.7697 75.7771,63.4363 79,67.5C 79.3076,66.6919 79.8076,66.0253 80.5,65.5C 82.8532,67.212 84.1865,69.5454 84.5,72.5 Z"/></g>
<g><path style="opacity:1" fill="#493a27" d="M 63.5,71.5 C 64.8427,73.698 66.176,76.0313 67.5,78.5C 66.675,79.3857 65.675,79.719 64.5,79.5C 64.2208,82.1178 63.5541,84.6178 62.5,87C 63.6341,88.016 63.3008,88.6827 61.5,89C 61.7284,89.3988 62.0618,89.5654 62.5,89.5C 62.1583,90.3382 61.4916,90.6716 60.5,90.5C 60.0825,89.7784 59.4158,89.2784 58.5,89C 59.4162,88.6258 60.2496,88.1258 61,87.5C 61.6667,85.1667 61.6667,82.8333 61,80.5C 60.3333,79.1667 59.6667,79.1667 59,80.5C 57.5566,77.2169 56.7233,74.0502 56.5,71C 56.1667,70.8333 55.8333,70.6667 55.5,70.5C 55.1667,71.3333 54.8333,72.1667 54.5,73C 55.092,74.4778 55.092,75.6444 54.5,76.5C 53.603,75.4019 52.7697,75.4019 52,76.5C 51.3076,75.9747 50.8076,75.3081 50.5,74.5C 51.7629,72.9713 52.7629,71.3046 53.5,69.5C 54.4916,69.6716 55.1583,69.3382 55.5,68.5C 57.0481,68.1788 57.7148,67.1788 57.5,65.5C 61.1351,65.6556 61.4685,66.8223 58.5,69C 60.1932,69.8466 61.8599,70.6799 63.5,71.5 Z"/></g>
<g><path style="opacity:1" fill="#473726" d="M 45.5,63.5 C 47.9892,63.2978 50.3225,63.7978 52.5,65C 50.9559,65.2896 49.6226,65.9563 48.5,67C 49.7839,67.6838 50.9505,67.5171 52,66.5C 52.5133,67.5266 53.0133,68.5266 53.5,69.5C 52.7629,71.3046 51.7629,72.9713 50.5,74.5C 50.8076,75.3081 51.3076,75.9747 52,76.5C 52.7697,75.4019 53.603,75.4019 54.5,76.5C 54.3491,79.7181 53.5158,80.0515 52,77.5C 51.3946,79.4812 50.3946,79.8146 49,78.5C 47.3333,80.1667 45.6667,81.8333 44,83.5C 43.5172,82.552 43.3505,81.552 43.5,80.5C 43.1667,79.1667 42.8333,77.8333 42.5,76.5C 43.4822,75.8592 44.4822,75.1925 45.5,74.5C 46.1667,75.5 46.8333,76.5 47.5,77.5C 47.8333,77 48.1667,76.5 48.5,76C 47.1667,74 47.1667,72 48.5,70C 48.1667,69.5 47.8333,69 47.5,68.5C 47.1667,69.1667 46.8333,69.8333 46.5,70.5C 45.7025,70.0431 45.3691,69.3764 45.5,68.5C 45.5774,67.2502 46.244,66.4169 47.5,66C 46.6195,65.2917 45.9528,64.4584 45.5,63.5 Z"/></g>
<g><path style="opacity:1" fill="#423423" d="M 60.5,90.5 C 55.6133,91.9026 50.6133,92.5693 45.5,92.5C 43.369,91.6862 41.0356,91.1862 38.5,91C 41.1287,89.5421 42.7954,87.3755 43.5,84.5C 42.448,84.3505 41.448,84.5172 40.5,85C 41.6956,85.6543 41.6956,86.1543 40.5,86.5C 39.4777,86.1445 38.811,85.4778 38.5,84.5C 39.5846,82.4131 41.2512,81.0798 43.5,80.5C 43.3505,81.552 43.5172,82.552 44,83.5C 45.6667,81.8333 47.3333,80.1667 49,78.5C 50.3946,79.8146 51.3946,79.4812 52,77.5C 53.5158,80.0515 54.3491,79.7181 54.5,76.5C 55.092,75.6444 55.092,74.4778 54.5,73C 54.8333,72.1667 55.1667,71.3333 55.5,70.5C 55.8333,70.6667 56.1667,70.8333 56.5,71C 56.7233,74.0502 57.5566,77.2169 59,80.5C 59.6667,79.1667 60.3333,79.1667 61,80.5C 61.6667,82.8333 61.6667,85.1667 61,87.5C 60.2496,88.1258 59.4162,88.6258 58.5,89C 59.4158,89.2784 60.0825,89.7784 60.5,90.5 Z"/></g>
<g><path style="opacity:1" fill="#483a28" d="M 28.5,76.5 C 30.9856,77.4616 30.9856,78.2949 28.5,79C 29.6919,80.9124 30.6919,82.9124 31.5,85C 32.4491,85.6172 33.2825,85.4506 34,84.5C 34.4012,86.5212 35.5679,87.8545 37.5,88.5C 37.4764,87.2135 37.8097,85.8802 38.5,84.5C 38.811,85.4778 39.4777,86.1445 40.5,86.5C 41.6956,86.1543 41.6956,85.6543 40.5,85C 41.448,84.5172 42.448,84.3505 43.5,84.5C 42.7954,87.3755 41.1287,89.5421 38.5,91C 41.0356,91.1862 43.369,91.6862 45.5,92.5C 44.1667,92.5 42.8333,92.5 41.5,92.5C 34.8229,91.7222 28.8229,89.3888 23.5,85.5C 24.2389,85.631 24.9056,85.4643 25.5,85C 21.1179,83.633 20.2845,81.133 23,77.5C 24.1475,78.4581 25.1475,78.1247 26,76.5C 26.7697,77.5981 27.603,77.5981 28.5,76.5 Z"/></g>
<g><path style="opacity:1" fill="#453726" d="M 33.5,68.5 C 34.1667,68.5 34.8333,68.5 35.5,68.5C 35.6107,69.1174 35.944,69.6174 36.5,70C 34.9559,70.2896 33.6226,70.9563 32.5,72C 34.5,72.8333 36.5,73.6667 38.5,74.5C 39.1019,77.159 40.4352,77.8256 42.5,76.5C 42.8333,77.8333 43.1667,79.1667 43.5,80.5C 41.2512,81.0798 39.5846,82.4131 38.5,84.5C 37.8097,85.8802 37.4764,87.2135 37.5,88.5C 35.5679,87.8545 34.4012,86.5212 34,84.5C 33.2825,85.4506 32.4491,85.6172 31.5,85C 30.6919,82.9124 29.6919,80.9124 28.5,79C 30.9856,78.2949 30.9856,77.4616 28.5,76.5C 28.5,76.1667 28.5,75.8333 28.5,75.5C 30.8418,75.2252 30.8418,74.3919 28.5,73C 30.2395,71.483 31.9062,69.983 33.5,68.5 Z"/></g>
<g><path style="opacity:0.701" fill="#cfa250" d="M 8.5,70.5 C 12.4727,76.4727 17.4727,81.4727 23.5,85.5C 28.8229,89.3888 34.8229,91.7222 41.5,92.5C 39.8333,93.1667 38.1667,93.8333 36.5,94.5C 24.1002,91.7624 14.4336,85.0957 7.5,74.5C 8.23411,73.2921 8.56745,71.9587 8.5,70.5 Z"/></g>
<g><path style="opacity:0.774" fill="#c99d4c" d="M 89.5,70.5 C 82.5674,83.6308 71.9008,91.9641 57.5,95.5C 50.8333,95.5 44.1667,95.5 37.5,95.5C 37.5,94.8333 37.1667,94.5 36.5,94.5C 38.1667,93.8333 39.8333,93.1667 41.5,92.5C 42.8333,92.5 44.1667,92.5 45.5,92.5C 50.6133,92.5693 55.6133,91.9026 60.5,90.5C 61.4916,90.6716 62.1583,90.3382 62.5,89.5C 67.9246,88.0571 72.5913,85.3905 76.5,81.5C 78.1667,80.1667 79.8333,78.8333 81.5,77.5C 81.4346,77.9382 81.6012,78.2716 82,78.5C 85.0584,76.0427 87.3917,73.0427 89,69.5C 89.3988,69.7284 89.5654,70.0618 89.5,70.5 Z"/></g>
</svg>
