<?xml version="1.0" encoding="UTF-8"?>
<!DOCTYPE svg PUBLIC "-//W3C//DTD SVG 1.1//EN" "http://www.w3.org/Graphics/SVG/1.1/DTD/svg11.dtd">
<svg xmlns="http://www.w3.org/2000/svg" version="1.1" width="96px" height="96px" style="shape-rendering:geometricPrecision; text-rendering:geometricPrecision; image-rendering:optimizeQuality; fill-rule:evenodd; clip-rule:evenodd" xmlns:xlink="http://www.w3.org/1999/xlink">
<g><path style="opacity:0.778" fill="#076eb7" d="M 37.5,-0.5 C 44.1667,-0.5 50.8333,-0.5 57.5,-0.5C 77.1667,5.16667 89.8333,17.8333 95.5,37.5C 95.5,44.1667 95.5,50.8333 95.5,57.5C 89.8333,77.1667 77.1667,89.8333 57.5,95.5C 50.8333,95.5 44.1667,95.5 37.5,95.5C 17.8333,89.8333 5.16667,77.1667 -0.5,57.5C -0.5,50.8333 -0.5,44.1667 -0.5,37.5C 5.16667,17.8333 17.8333,5.16667 37.5,-0.5 Z"/></g>
<g><path style="opacity:1" fill="#a2cbdb" d="M 38.5,4.5 C 43.2137,4.17338 47.8804,4.50671 52.5,5.5C 50.8502,8.34774 51.1836,10.8477 53.5,13C 49.6437,13.1773 45.977,13.6773 42.5,14.5C 39.6592,14.5597 36.9925,15.2264 34.5,16.5C 32.8277,13.0541 33.1611,9.88746 35.5,7C 34.9056,6.53566 34.2389,6.36899 33.5,6.5C 34.9303,5.46253 36.597,4.79586 38.5,4.5 Z"/></g>
<g><path style="opacity:1" fill="#b6dce8" d="M 33.5,6.5 C 34.2389,6.36899 34.9056,6.53566 35.5,7C 33.1611,9.88746 32.8277,13.0541 34.5,16.5C 31.4968,17.6662 28.8302,19.3328 26.5,21.5C 25.8106,20.2264 24.9772,20.2264 24,21.5C 23.6558,17.8697 23.4892,14.5364 23.5,11.5C 26.3677,9.08752 29.701,7.42085 33.5,6.5 Z"/></g>
<g><path style="opacity:1" fill="#81afc6" d="M 55.5,3.5 C 58.8959,5.59508 62.5626,7.42841 66.5,9C 64.9278,11.038 63.9278,13.3713 63.5,16C 64.0253,16.6924 64.6919,17.1924 65.5,17.5C 66.4742,15.2573 66.8076,12.924 66.5,10.5C 68.5795,11.0444 70.5795,11.8777 72.5,13C 71.8333,15.6667 71.1667,18.3333 70.5,21C 71.999,21.8382 72.3324,22.6715 71.5,23.5C 67.6634,20.7478 63.6634,18.2478 59.5,16C 53.9116,14.7111 48.2449,14.2111 42.5,14.5C 45.977,13.6773 49.6437,13.1773 53.5,13C 51.1836,10.8477 50.8502,8.34774 52.5,5.5C 47.8804,4.50671 43.2137,4.17338 38.5,4.5C 38.5,4.16667 38.5,3.83333 38.5,3.5C 44.0366,2.23826 49.7032,2.23826 55.5,3.5 Z"/></g>
<g><path style="opacity:1" fill="#0c6eb8" d="M 39.5,16.5 C 51.6864,14.8327 62.1864,18.1661 71,26.5C 71.3826,25.944 71.8826,25.6107 72.5,25.5C 77.3153,30.4704 79.982,36.4704 80.5,43.5C 80.5,47.1667 80.5,50.8333 80.5,54.5C 78.7328,59.8197 76.3995,64.8197 73.5,69.5C 68.3761,74.3956 62.3761,77.729 55.5,79.5C 45.4,80.0182 36.0667,77.6849 27.5,72.5C 15.4422,60.0774 13.2756,46.0774 21,30.5C 25.9073,24.083 32.0739,19.4163 39.5,16.5 Z"/></g>
<g><path style="opacity:1" fill="#72a0ba" d="M 55.5,3.5 C 77.9683,8.80393 90.3016,22.9706 92.5,46C 92.6103,52.8502 91.2769,59.3502 88.5,65.5C 87.9569,65.44 87.6236,65.1067 87.5,64.5C 92.7163,49.7137 91.2163,35.7137 83,22.5C 82.6667,32.8333 82.3333,43.1667 82,53.5C 81.8213,49.9748 81.3213,46.6414 80.5,43.5C 79.982,36.4704 77.3153,30.4704 72.5,25.5C 72.1667,24.8333 71.8333,24.1667 71.5,23.5C 72.3324,22.6715 71.999,21.8382 70.5,21C 71.1667,18.3333 71.8333,15.6667 72.5,13C 70.5795,11.8777 68.5795,11.0444 66.5,10.5C 66.8076,12.924 66.4742,15.2573 65.5,17.5C 64.6919,17.1924 64.0253,16.6924 63.5,16C 63.9278,13.3713 64.9278,11.038 66.5,9C 62.5626,7.42841 58.8959,5.59508 55.5,3.5 Z"/></g>
<g><path style="opacity:1" fill="#729fbf" d="M 38.5,3.5 C 38.5,3.83333 38.5,4.16667 38.5,4.5C 36.597,4.79586 34.9303,5.46253 33.5,6.5C 29.701,7.42085 26.3677,9.08752 23.5,11.5C 17.4497,15.2166 12.7831,20.2166 9.5,26.5C 8.40425,29.0316 7.07092,31.3649 5.5,33.5C 10.7473,17.2559 21.7473,7.2559 38.5,3.5 Z"/></g>
<g><path style="opacity:1" fill="#247bb9" d="M 42.5,14.5 C 48.2449,14.2111 53.9116,14.7111 59.5,16C 63.6634,18.2478 67.6634,20.7478 71.5,23.5C 71.8333,24.1667 72.1667,24.8333 72.5,25.5C 71.8826,25.6107 71.3826,25.944 71,26.5C 62.1864,18.1661 51.6864,14.8327 39.5,16.5C 40.5,15.8333 41.5,15.1667 42.5,14.5 Z"/></g>
<g><path style="opacity:1" fill="#a4cbd9" d="M 39.5,21.5 C 42.6248,20.5206 45.9581,20.1872 49.5,20.5C 48.1667,26.1667 48.1667,31.8333 49.5,37.5C 49.3404,39.153 48.6737,40.4863 47.5,41.5C 46.7345,37.9647 45.4012,34.6314 43.5,31.5C 43.1667,31.8333 42.8333,32.1667 42.5,32.5C 44.1862,35.9373 45.8528,39.2706 47.5,42.5C 47.6068,44.3786 47.1068,44.7119 46,43.5C 44.5677,39.4689 42.7343,35.6355 40.5,32C 38.8659,31.5065 37.1992,31.3398 35.5,31.5C 36.2625,30.7321 37.2625,30.2321 38.5,30C 36.6035,25.6809 37.9368,23.0142 42.5,22C 41.552,21.5172 40.552,21.3505 39.5,21.5 Z"/></g>
<g><path style="opacity:1" fill="#93becf" d="M 49.5,20.5 C 52.6916,20.4045 55.6916,21.0712 58.5,22.5C 56.3794,24.7163 56.046,27.2163 57.5,30C 55.9419,30.21 54.6085,30.71 53.5,31.5C 51.6583,33.1898 50.325,35.1898 49.5,37.5C 48.1667,31.8333 48.1667,26.1667 49.5,20.5 Z"/></g>
<g><path style="opacity:1" fill="#6697b2" d="M 88.5,65.5 C 88.5,66.1667 88.1667,66.5 87.5,66.5C 85.6863,68.7641 83.853,71.0975 82,73.5C 81.8279,66.9867 81.3279,60.6534 80.5,54.5C 80.5,50.8333 80.5,47.1667 80.5,43.5C 81.3213,46.6414 81.8213,49.9748 82,53.5C 82.3333,43.1667 82.6667,32.8333 83,22.5C 91.2163,35.7137 92.7163,49.7137 87.5,64.5C 87.6236,65.1067 87.9569,65.44 88.5,65.5 Z"/></g>
<g><path style="opacity:1" fill="#c5eaf3" d="M 23.5,11.5 C 23.4892,14.5364 23.6558,17.8697 24,21.5C 24.9772,20.2264 25.8106,20.2264 26.5,21.5C 14.2107,32.481 11.0441,45.8143 17,61.5C 19.464,66.1155 22.6306,70.1155 26.5,73.5C 28.8302,75.6672 31.4968,77.3338 34.5,78.5C 32.8277,81.9459 33.1611,85.1125 35.5,88C 34.9056,88.4643 34.2389,88.631 33.5,88.5C 24.9629,85.9078 18.2963,80.9078 13.5,73.5C 12.1932,70.8864 10.8599,68.2198 9.5,65.5C 10.7579,52.2152 10.7579,39.2152 9.5,26.5C 12.7831,20.2166 17.4497,15.2166 23.5,11.5 Z"/></g>
<g><path style="opacity:1" fill="#c2e6ee" d="M 39.5,21.5 C 40.552,21.3505 41.552,21.5172 42.5,22C 37.9368,23.0142 36.6035,25.6809 38.5,30C 37.2625,30.2321 36.2625,30.7321 35.5,31.5C 34.0222,31.238 32.6888,31.5713 31.5,32.5C 32.8435,34.5286 34.1769,36.5286 35.5,38.5C 35.6068,40.3786 35.1068,40.7119 34,39.5C 33.5002,49.1609 33.3335,58.8276 33.5,68.5C 31.629,68.1412 30.129,67.1412 29,65.5C 28.3333,53.5 28.3333,41.5 29,29.5C 29.8333,28.6667 30.6667,27.8333 31.5,27C 31.2716,26.6012 30.9382,26.4346 30.5,26.5C 33.0125,24.0743 36.0125,22.4076 39.5,21.5 Z"/></g>
<g><path style="opacity:1" fill="#6e9eb7" d="M 69.5,32.5 C 71.4514,34.48 72.9514,36.8133 74,39.5C 75.4905,47.9927 74.1572,55.9927 70,63.5C 68.6288,65.0414 67.1288,66.3747 65.5,67.5C 64.7848,56.1871 64.1181,45.1871 63.5,34.5C 64.1098,33.609 64.4431,32.609 64.5,31.5C 64.3505,30.448 64.5172,29.448 65,28.5C 66.3712,30.0414 67.8712,31.3747 69.5,32.5 Z"/></g>
<g><path style="opacity:1" fill="#cff2f9" d="M 9.5,26.5 C 10.7579,39.2152 10.7579,52.2152 9.5,65.5C 10.8599,68.2198 12.1932,70.8864 13.5,73.5C 12.5416,73.0472 11.7083,72.3805 11,71.5C 7.88454,65.6381 5.38454,59.6381 3.5,53.5C 3.5,48.5 3.5,43.5 3.5,38.5C 5.21321,37.3646 5.87988,35.698 5.5,33.5C 7.07092,31.3649 8.40425,29.0316 9.5,26.5 Z"/></g>
<g><path style="opacity:1" fill="#096db7" d="M 35.5,31.5 C 37.1992,31.3398 38.8659,31.5065 40.5,32C 42.7343,35.6355 44.5677,39.4689 46,43.5C 47.1068,44.7119 47.6068,44.3786 47.5,42.5C 47.5,42.1667 47.5,41.8333 47.5,41.5C 48.6737,40.4863 49.3404,39.153 49.5,37.5C 50.325,35.1898 51.6583,33.1898 53.5,31.5C 56.2469,31.1866 58.9135,31.52 61.5,32.5C 58.5852,37.9984 55.4185,43.3318 52,48.5C 51.5004,55.4921 51.3337,62.4921 51.5,69.5C 48.8333,69.5 46.1667,69.5 43.5,69.5C 43.824,62.6457 43.4907,55.979 42.5,49.5C 40.4026,45.6277 38.0692,41.961 35.5,38.5C 34.1769,36.5286 32.8435,34.5286 31.5,32.5C 32.6888,31.5713 34.0222,31.238 35.5,31.5 Z"/></g>
<g><path style="opacity:1" fill="#4996c6" d="M 47.5,41.5 C 47.5,41.8333 47.5,42.1667 47.5,42.5C 45.8528,39.2706 44.1862,35.9373 42.5,32.5C 42.8333,32.1667 43.1667,31.8333 43.5,31.5C 45.4012,34.6314 46.7345,37.9647 47.5,41.5 Z"/></g>
<g><path style="opacity:1" fill="#3284ba" d="M 64.5,31.5 C 64.4431,32.609 64.1098,33.609 63.5,34.5C 62.9744,36.2303 61.9744,37.5637 60.5,38.5C 61.0787,35.6689 62.412,33.3356 64.5,31.5 Z"/></g>
<g><path style="opacity:1" fill="#5d94bb" d="M 5.5,33.5 C 5.87988,35.698 5.21321,37.3646 3.5,38.5C 3.12012,36.302 3.78679,34.6354 5.5,33.5 Z"/></g>
<g><path style="opacity:1" fill="#d2f2f8" d="M 30.5,26.5 C 30.9382,26.4346 31.2716,26.6012 31.5,27C 30.6667,27.8333 29.8333,28.6667 29,29.5C 28.3333,41.5 28.3333,53.5 29,65.5C 30.129,67.1412 31.629,68.1412 33.5,68.5C 33.1583,69.3382 32.4916,69.6716 31.5,69.5C 22.1068,61.6859 18.6068,51.6859 21,39.5C 22.7222,34.0333 25.8889,29.7 30.5,26.5 Z"/></g>
<g><path style="opacity:1" fill="#b6dbe5" d="M 35.5,38.5 C 38.0692,41.961 40.4026,45.6277 42.5,49.5C 42.6663,56.175 42.4996,62.8417 42,69.5C 41.9631,62.3318 41.2965,55.3318 40,48.5C 39.5003,56.4931 39.3336,64.4931 39.5,72.5C 43.5,72.8333 43.5,73.1667 39.5,73.5C 36.5152,72.6743 33.8485,71.341 31.5,69.5C 32.4916,69.6716 33.1583,69.3382 33.5,68.5C 33.3335,58.8276 33.5002,49.1609 34,39.5C 35.1068,40.7119 35.6068,40.3786 35.5,38.5 Z"/></g>
<g><path style="opacity:1" fill="#a3ccdc" d="M 42.5,49.5 C 43.4907,55.979 43.824,62.6457 43.5,69.5C 45.9686,70.3171 48.6353,70.8171 51.5,71C 50.5,71.3333 49.5,71.6667 48.5,72C 49.2524,72.6708 49.5858,73.5041 49.5,74.5C 45.9581,74.8128 42.6248,74.4794 39.5,73.5C 43.5,73.1667 43.5,72.8333 39.5,72.5C 39.3336,64.4931 39.5003,56.4931 40,48.5C 41.2965,55.3318 41.9631,62.3318 42,69.5C 42.4996,62.8417 42.6663,56.175 42.5,49.5 Z"/></g>
<g><path style="opacity:1" fill="#659abe" d="M 42.5,14.5 C 41.5,15.1667 40.5,15.8333 39.5,16.5C 32.0739,19.4163 25.9073,24.083 21,30.5C 13.2756,46.0774 15.4422,60.0774 27.5,72.5C 26.8333,72.5 26.5,72.8333 26.5,73.5C 22.6306,70.1155 19.464,66.1155 17,61.5C 11.0441,45.8143 14.2107,32.481 26.5,21.5C 28.8302,19.3328 31.4968,17.6662 34.5,16.5C 36.9925,15.2264 39.6592,14.5597 42.5,14.5 Z"/></g>
<g><path style="opacity:1" fill="#83b0c6" d="M 58.5,22.5 C 63.462,24.4643 67.1287,27.7976 69.5,32.5C 67.8712,31.3747 66.3712,30.0414 65,28.5C 64.5172,29.448 64.3505,30.448 64.5,31.5C 62.412,33.3356 61.0787,35.6689 60.5,38.5C 61.9744,37.5637 62.9744,36.2303 63.5,34.5C 64.1181,45.1871 64.7848,56.1871 65.5,67.5C 61.0921,71.7541 55.7588,74.0875 49.5,74.5C 49.5858,73.5041 49.2524,72.6708 48.5,72C 49.5,71.6667 50.5,71.3333 51.5,71C 48.6353,70.8171 45.9686,70.3171 43.5,69.5C 46.1667,69.5 48.8333,69.5 51.5,69.5C 51.3337,62.4921 51.5004,55.4921 52,48.5C 55.4185,43.3318 58.5852,37.9984 61.5,32.5C 58.9135,31.52 56.2469,31.1866 53.5,31.5C 54.6085,30.71 55.9419,30.21 57.5,30C 56.046,27.2163 56.3794,24.7163 58.5,22.5 Z"/></g>
<g><path style="opacity:1" fill="#4290c0" d="M 60.5,38.5 C 59.2049,42.4234 57.3716,46.0901 55,49.5C 55.1721,56.1955 55.0054,62.8622 54.5,69.5C 53.3356,62.5237 53.1689,55.5237 54,48.5C 55.9417,44.9311 58.1084,41.5978 60.5,38.5 Z"/></g>
<g><path style="opacity:1" fill="#72a1bc" d="M 80.5,54.5 C 81.3279,60.6534 81.8279,66.9867 82,73.5C 83.853,71.0975 85.6863,68.7641 87.5,66.5C 82.5899,77.9083 74.2565,85.7417 62.5,90C 54.6204,92.1818 46.6204,92.8485 38.5,92C 36.6854,91.2432 35.0188,90.4098 33.5,89.5C 39.7974,90.3197 46.1308,90.653 52.5,90.5C 60.0199,89.5707 66.6866,86.7374 72.5,82C 69.9272,77.1547 70.5938,73.1547 74.5,70C 74.2716,69.6012 73.9382,69.4346 73.5,69.5C 76.3995,64.8197 78.7328,59.8197 80.5,54.5 Z"/></g>
<g><path style="opacity:1" fill="#6d9dbe" d="M 3.5,53.5 C 5.38454,59.6381 7.88454,65.6381 11,71.5C 11.7083,72.3805 12.5416,73.0472 13.5,73.5C 18.2963,80.9078 24.9629,85.9078 33.5,88.5C 33.5,88.8333 33.5,89.1667 33.5,89.5C 15.8961,83.8916 5.89609,71.8916 3.5,53.5 Z"/></g>
<g><path style="opacity:1" fill="#478cbc" d="M 26.5,73.5 C 26.5,72.8333 26.8333,72.5 27.5,72.5C 36.0667,77.6849 45.4,80.0182 55.5,79.5C 51.3656,80.4849 47.0323,80.8182 42.5,80.5C 39.6592,80.4403 36.9925,79.7736 34.5,78.5C 31.4968,77.3338 28.8302,75.6672 26.5,73.5 Z"/></g>
<g><path style="opacity:1" fill="#86b3c8" d="M 73.5,69.5 C 73.9382,69.4346 74.2716,69.6012 74.5,70C 70.5938,73.1547 69.9272,77.1547 72.5,82C 66.6866,86.7374 60.0199,89.5707 52.5,90.5C 51.3213,87.6291 51.3213,84.7957 52.5,82C 48.9748,81.8213 45.6414,81.3213 42.5,80.5C 47.0323,80.8182 51.3656,80.4849 55.5,79.5C 62.3761,77.729 68.3761,74.3956 73.5,69.5 Z"/></g>
<g><path style="opacity:1" fill="#a3ccdb" d="M 34.5,78.5 C 36.9925,79.7736 39.6592,80.4403 42.5,80.5C 45.6414,81.3213 48.9748,81.8213 52.5,82C 51.3213,84.7957 51.3213,87.6291 52.5,90.5C 46.1308,90.653 39.7974,90.3197 33.5,89.5C 33.5,89.1667 33.5,88.8333 33.5,88.5C 34.2389,88.631 34.9056,88.4643 35.5,88C 33.1611,85.1125 32.8277,81.9459 34.5,78.5 Z"/></g>
</svg>
