<?xml version="1.0" encoding="UTF-8"?>
<!DOCTYPE svg PUBLIC "-//W3C//DTD SVG 1.1//EN" "http://www.w3.org/Graphics/SVG/1.1/DTD/svg11.dtd">
<svg xmlns="http://www.w3.org/2000/svg" version="1.1" width="96px" height="96px" style="shape-rendering:geometricPrecision; text-rendering:geometricPrecision; image-rendering:optimizeQuality; fill-rule:evenodd; clip-rule:evenodd" xmlns:xlink="http://www.w3.org/1999/xlink">
<g><path style="opacity:1" fill="#fafafa" d="M -0.5,-0.5 C 31.5,-0.5 63.5,-0.5 95.5,-0.5C 95.5,31.5 95.5,63.5 95.5,95.5C 63.5,95.5 31.5,95.5 -0.5,95.5C -0.5,63.5 -0.5,31.5 -0.5,-0.5 Z"/></g>
<g><path style="opacity:1" fill="#070707" d="M 38.5,0.5 C 65.7947,-1.7826 83.9614,9.88406 93,35.5C 96.7281,57.0009 89.8948,74.1676 72.5,87C 47.2554,99.9344 25.7554,95.4344 8,73.5C -6.01564,47.0754 -1.18231,24.9087 22.5,7C 27.6069,3.93542 32.9402,1.76876 38.5,0.5 Z"/></g>
<g><path style="opacity:1" fill="#fdfdfd" d="M 11.5,27.5 C 14.1667,27.5 16.8333,27.5 19.5,27.5C 19.5,40.8333 19.5,54.1667 19.5,67.5C 16.8333,67.5 14.1667,67.5 11.5,67.5C 11.5,54.1667 11.5,40.8333 11.5,27.5 Z"/></g>
<g><path style="opacity:1" fill="#f4f4f4" d="M 26.5,26.5 C 29.5,26.5 32.5,26.5 35.5,26.5C 35.5,35.1667 35.5,43.8333 35.5,52.5C 32.5,52.5 29.5,52.5 26.5,52.5C 26.5,43.8333 26.5,35.1667 26.5,26.5 Z"/></g>
<g><path style="opacity:1" fill="#fefffe" d="M 42.5,27.5 C 45.1667,27.5 47.8333,27.5 50.5,27.5C 50.5,40.5 50.5,53.5 50.5,66.5C 47.8333,66.5 45.1667,66.5 42.5,66.5C 42.5,53.5 42.5,40.5 42.5,27.5 Z"/></g>
<g><path style="opacity:1" fill="#b7b7b7" d="M 42.5,27.5 C 45.2869,26.5233 48.2869,26.19 51.5,26.5C 51.5,40.1667 51.5,53.8333 51.5,67.5C 48.2869,67.81 45.2869,67.4767 42.5,66.5C 45.1667,66.5 47.8333,66.5 50.5,66.5C 50.5,53.5 50.5,40.5 50.5,27.5C 47.8333,27.5 45.1667,27.5 42.5,27.5 Z"/></g>
<g><path style="opacity:1" fill="#876a29" d="M 58.5,27.5 C 66.6499,26.5073 74.9832,26.1739 83.5,26.5C 83.5,29.8333 83.5,33.1667 83.5,36.5C 74.8333,36.5 66.1667,36.5 57.5,36.5C 57.19,33.2869 57.5233,30.2869 58.5,27.5 Z"/></g>
<g><path style="opacity:1" fill="#f6bc13" d="M 58.5,27.5 C 66.5,27.5 74.5,27.5 82.5,27.5C 82.5,30.1667 82.5,32.8333 82.5,35.5C 74.5,35.5 66.5,35.5 58.5,35.5C 58.5,32.8333 58.5,30.1667 58.5,27.5 Z"/></g>
<g><path style="opacity:1" fill="#9c7a2c" d="M 72.5,51.5 C 72.5,48.8333 72.5,46.1667 72.5,43.5C 67.8333,43.5 63.1667,43.5 58.5,43.5C 58.5,46.1667 58.5,48.8333 58.5,51.5C 57.5233,48.7131 57.19,45.7131 57.5,42.5C 62.8333,42.5 68.1667,42.5 73.5,42.5C 73.81,45.7131 73.4767,48.7131 72.5,51.5 Z"/></g>
<g><path style="opacity:1" fill="#f6bd17" d="M 72.5,51.5 C 67.8333,51.5 63.1667,51.5 58.5,51.5C 58.5,48.8333 58.5,46.1667 58.5,43.5C 63.1667,43.5 67.8333,43.5 72.5,43.5C 72.5,46.1667 72.5,48.8333 72.5,51.5 Z"/></g>
</svg>
