<?xml version="1.0" encoding="UTF-8"?>
<!DOCTYPE svg PUBLIC "-//W3C//DTD SVG 1.1//EN" "http://www.w3.org/Graphics/SVG/1.1/DTD/svg11.dtd">
<svg xmlns="http://www.w3.org/2000/svg" version="1.1" width="96px" height="96px" style="shape-rendering:geometricPrecision; text-rendering:geometricPrecision; image-rendering:optimizeQuality; fill-rule:evenodd; clip-rule:evenodd" xmlns:xlink="http://www.w3.org/1999/xlink">
<g><path style="opacity:0.791" fill="#5d19ea" d="M 37.5,-0.5 C 44.1667,-0.5 50.8333,-0.5 57.5,-0.5C 77.1403,5.14032 89.807,17.807 95.5,37.5C 95.5,44.1667 95.5,50.8333 95.5,57.5C 89.807,77.193 77.1403,89.8597 57.5,95.5C 50.8333,95.5 44.1667,95.5 37.5,95.5C 17.8333,89.8333 5.16667,77.1667 -0.5,57.5C -0.5,50.8333 -0.5,44.1667 -0.5,37.5C 5.16667,17.8333 17.8333,5.16667 37.5,-0.5 Z"/></g>
<g><path style="opacity:1" fill="#faf9fa" d="M 38.5,2.5 C 65.916,0.4465 83.7493,12.4465 92,38.5C 94.6705,59.5269 87.1705,75.6936 69.5,87C 45.1756,97.7767 25.0089,92.6101 9,71.5C -3.39098,46.5689 1.44236,25.7355 23.5,9C 28.4887,6.51439 33.4887,4.34772 38.5,2.5 Z"/></g>
<g><path style="opacity:1" fill="#5394e9" d="M 62.5,69.5 C 62.9018,73.2461 63.5685,77.2461 64.5,81.5C 61.5,81.5 58.5,81.5 55.5,81.5C 54.6532,79.9709 53.9865,78.3042 53.5,76.5C 53.5698,75.2284 53.9032,74.0617 54.5,73C 52.9419,72.79 51.6085,72.29 50.5,71.5C 54.1817,71.6653 57.8484,71.4986 61.5,71C 62.056,70.6174 62.3893,70.1174 62.5,69.5 Z"/></g>
<g><path style="opacity:1" fill="#4c78eb" d="M 46.5,71.5 C 47.8333,71.5 49.1667,71.5 50.5,71.5C 51.6085,72.29 52.9419,72.79 54.5,73C 53.9032,74.0617 53.5698,75.2284 53.5,76.5C 53.9865,78.3042 54.6532,79.9709 55.5,81.5C 52.8333,81.5 50.1667,81.5 47.5,81.5C 46.0318,79.0842 45.3651,76.4175 45.5,73.5C 46.8734,73.6567 48.2068,73.49 49.5,73C 48.2625,72.7679 47.2625,72.2679 46.5,71.5 Z"/></g>
<g><path style="opacity:1" fill="#57a7e7" d="M 68.5,59.5 C 67.4062,65.6059 67.4062,71.9392 68.5,78.5C 68.3059,80.9118 66.9726,81.9118 64.5,81.5C 63.5685,77.2461 62.9018,73.2461 62.5,69.5C 64.5,66.1667 66.5,62.8333 68.5,59.5 Z"/></g>
<g><path style="opacity:1" fill="#4554ee" d="M 40.5,52.5 C 39.7577,54.4258 38.7577,56.2591 37.5,58C 40.1513,62.8236 43.1513,67.3236 46.5,71.5C 47.2625,72.2679 48.2625,72.7679 49.5,73C 48.2068,73.49 46.8734,73.6567 45.5,73.5C 45.3651,76.4175 46.0318,79.0842 47.5,81.5C 44.8127,81.6641 42.146,81.4974 39.5,81C 37.6804,77.8586 36.0138,74.6919 34.5,71.5C 34.2466,65.2739 34.2466,58.9405 34.5,52.5C 36.5,52.5 38.5,52.5 40.5,52.5 Z"/></g>
<g><path style="opacity:1" fill="#a835d6" d="M 52.5,46.5 C 53.3726,50.7685 53.7059,55.1018 53.5,59.5C 52.448,59.3505 51.448,59.5172 50.5,60C 52.1341,60.4935 53.8008,60.6602 55.5,60.5C 50.9848,61.8124 46.3181,61.8124 41.5,60.5C 40.5547,56.8518 41.5547,53.6851 44.5,51C 48.23,51.0624 50.8967,49.5624 52.5,46.5 Z"/></g>
<g><path style="opacity:1" fill="#3e39ef" d="M 40.5,52.5 C 38.5,52.5 36.5,52.5 34.5,52.5C 34.2466,58.9405 34.2466,65.2739 34.5,71.5C 31.475,67.2947 28.8084,62.7947 26.5,58C 28.2002,54.7676 30.0335,51.601 32,48.5C 32.6924,49.0253 33.1924,49.6919 33.5,50.5C 36.5808,51.0647 38.9142,51.7313 40.5,52.5 Z"/></g>
<g><path style="opacity:1" fill="#7227e4" d="M 52.5,46.5 C 55.1873,46.3359 57.854,46.5026 60.5,47C 61.0585,47.7247 61.3918,48.5581 61.5,49.5C 59.7426,53.3517 57.7426,57.0184 55.5,60.5C 53.8008,60.6602 52.1341,60.4935 50.5,60C 51.448,59.5172 52.448,59.3505 53.5,59.5C 53.7059,55.1018 53.3726,50.7685 52.5,46.5 Z"/></g>
<g><path style="opacity:1" fill="#424aed" d="M 41.5,34.5 C 39.8288,39.2361 40.1621,43.7361 42.5,48C 39.854,48.4974 37.1873,48.6641 34.5,48.5C 33.5876,47.2618 33.4209,45.9285 34,44.5C 35.6667,41.5 37.3333,38.5 39,35.5C 39.6708,34.7476 40.5041,34.4142 41.5,34.5 Z"/></g>
<g><path style="opacity:1" fill="#5dbbe6" d="M 68.5,78.5 C 67.4062,71.9392 67.4062,65.6059 68.5,59.5C 68.6107,58.8826 68.944,58.3826 69.5,58C 67.4552,55.4136 65.7885,52.5802 64.5,49.5C 66.2651,46.2911 68.2651,43.2911 70.5,40.5C 74.2196,46.1051 77.553,51.9385 80.5,58C 77.1108,65.291 73.1108,72.1244 68.5,78.5 Z"/></g>
<g><path style="opacity:1" fill="#5eb8e6" d="M 49.5,34.5 C 52.2605,33.9147 53.9272,34.9147 54.5,37.5C 53.7421,41.5921 51.4087,43.9254 47.5,44.5C 48.1667,41.1667 48.8333,37.8333 49.5,34.5 Z"/></g>
<g><path style="opacity:1" fill="#539ae8" d="M 45.5,34.5 C 46.8333,34.5 48.1667,34.5 49.5,34.5C 48.8333,37.8333 48.1667,41.1667 47.5,44.5C 46.8333,44.5 46.1667,44.5 45.5,44.5C 45.7195,41.3776 45.7195,38.0442 45.5,34.5 Z"/></g>
<g><path style="opacity:1" fill="#547deb" d="M 41.5,34.5 C 42.8333,34.5 44.1667,34.5 45.5,34.5C 45.7195,38.0442 45.7195,41.3776 45.5,44.5C 44.8466,45.8068 44.1799,47.1401 43.5,48.5C 40.3553,49.8032 37.3553,49.8032 34.5,48.5C 37.1873,48.6641 39.854,48.4974 42.5,48C 40.1621,43.7361 39.8288,39.2361 41.5,34.5 Z"/></g>
<g><path style="opacity:1" fill="#6e26e6" d="M 55.5,14.5 C 59.6406,21.4367 63.8072,28.4367 68,35.5C 68.1958,39.7859 66.6958,43.4525 63.5,46.5C 60.3831,45.0157 57.0498,44.0157 53.5,43.5C 54.8333,41.5 56.1667,39.5 57.5,37.5C 54.9593,32.9175 52.2926,28.4175 49.5,24C 44.1771,23.5006 38.8437,23.334 33.5,23.5C 34.5676,22.5655 35.901,22.2322 37.5,22.5C 37.7683,19.8806 37.435,17.3806 36.5,15C 42.8246,14.5005 49.1579,14.3338 55.5,14.5 Z"/></g>
<g><path style="opacity:1" fill="#b833d1" d="M 55.5,14.5 C 49.1579,14.3338 42.8246,14.5005 36.5,15C 37.435,17.3806 37.7683,19.8806 37.5,22.5C 35.901,22.2322 34.5676,22.5655 33.5,23.5C 31.6124,27.6056 29.4458,31.6056 27,35.5C 26.3333,36.8333 26.3333,38.1667 27,39.5C 28.5555,41.4434 29.7221,43.6101 30.5,46C 28.7998,49.2324 26.9665,52.399 25,55.5C 21.2476,49.6641 17.7476,43.6641 14.5,37.5C 18.5801,29.6712 22.9135,22.0045 27.5,14.5C 36.9918,13.1778 46.3251,13.1778 55.5,14.5 Z"/></g>
</svg>
