<?xml version="1.0" encoding="UTF-8"?>
<!DOCTYPE svg PUBLIC "-//W3C//DTD SVG 1.1//EN" "http://www.w3.org/Graphics/SVG/1.1/DTD/svg11.dtd">
<svg xmlns="http://www.w3.org/2000/svg" version="1.1" width="96px" height="96px" style="shape-rendering:geometricPrecision; text-rendering:geometricPrecision; image-rendering:optimizeQuality; fill-rule:evenodd; clip-rule:evenodd" xmlns:xlink="http://www.w3.org/1999/xlink">
<g><path style="opacity:0.912" fill="#5451fc" d="M 67.5,19.5 C 65.1667,19.5 62.8333,19.5 60.5,19.5C 60.5,17.5 60.5,15.5 60.5,13.5C 51.5,13.5 42.5,13.5 33.5,13.5C 33.5,15.5 33.5,17.5 33.5,19.5C 31.1667,19.5 28.8333,19.5 26.5,19.5C 26.5,17.1667 26.5,14.8333 26.5,12.5C 28.8333,12.5 31.1667,12.5 33.5,12.5C 33.5,10.1667 33.5,7.83333 33.5,5.5C 42.8333,5.5 52.1667,5.5 61.5,5.5C 61.7564,7.7925 61.4231,9.95917 60.5,12C 62.8098,12.4966 65.1432,12.6633 67.5,12.5C 67.5,14.8333 67.5,17.1667 67.5,19.5 Z"/></g>
<g><path style="opacity:1" fill="#9594f9" d="M 60.5,19.5 C 51.5,19.5 42.5,19.5 33.5,19.5C 33.5,17.5 33.5,15.5 33.5,13.5C 42.5,13.5 51.5,13.5 60.5,13.5C 60.5,15.5 60.5,17.5 60.5,19.5 Z"/></g>
<g><path style="opacity:0.765" fill="#5652fc" d="M 26.5,19.5 C 26.5,21.8333 26.5,24.1667 26.5,26.5C 24.1667,26.5 21.8333,26.5 19.5,26.5C 19.5,24.1667 19.5,21.8333 19.5,19.5C 21.8333,19.5 24.1667,19.5 26.5,19.5 Z"/></g>
<g><path style="opacity:1" fill="#e5c775" d="M 33.5,19.5 C 42.5,19.5 51.5,19.5 60.5,19.5C 60.5,19.8333 60.5,20.1667 60.5,20.5C 51.8333,20.5 43.1667,20.5 34.5,20.5C 34.5,24.5 34.5,28.5 34.5,32.5C 36.7354,32.2053 38.7354,32.5386 40.5,33.5C 40.1667,33.5 39.8333,33.5 39.5,33.5C 37.5,33.5 35.5,33.5 33.5,33.5C 33.5,31.1667 33.5,28.8333 33.5,26.5C 33.5,24.1667 33.5,21.8333 33.5,19.5 Z"/></g>
<g><path style="opacity:0.772" fill="#5653fc" d="M 67.5,19.5 C 69.8333,19.5 72.1667,19.5 74.5,19.5C 74.5,21.8333 74.5,24.1667 74.5,26.5C 72.1667,26.5 69.8333,26.5 67.5,26.5C 67.5,24.1667 67.5,21.8333 67.5,19.5 Z"/></g>
<g><path style="opacity:1" fill="#fedb52" d="M 60.5,20.5 C 60.5,22.5 60.5,24.5 60.5,26.5C 60.5,28.5 60.5,30.5 60.5,32.5C 58.1667,32.5 55.8333,32.5 53.5,32.5C 53.5,34.8333 53.5,37.1667 53.5,39.5C 49.1667,39.5 44.8333,39.5 40.5,39.5C 40.5,37.5 40.5,35.5 40.5,33.5C 38.7354,32.5386 36.7354,32.2053 34.5,32.5C 34.5,28.5 34.5,24.5 34.5,20.5C 43.1667,20.5 51.8333,20.5 60.5,20.5 Z"/></g>
<g><path style="opacity:1" fill="#9696f8" d="M 60.5,19.5 C 62.8333,19.5 65.1667,19.5 67.5,19.5C 67.5,21.8333 67.5,24.1667 67.5,26.5C 65.1667,26.5 62.8333,26.5 60.5,26.5C 60.5,24.5 60.5,22.5 60.5,20.5C 60.5,20.1667 60.5,19.8333 60.5,19.5 Z"/></g>
<g><path style="opacity:1" fill="#9291f9" d="M 26.5,19.5 C 28.8333,19.5 31.1667,19.5 33.5,19.5C 33.5,21.8333 33.5,24.1667 33.5,26.5C 31.1667,26.5 28.8333,26.5 26.5,26.5C 26.5,24.1667 26.5,21.8333 26.5,19.5 Z"/></g>
<g><path style="opacity:1" fill="#9493f9" d="M 19.5,26.5 C 21.8333,26.5 24.1667,26.5 26.5,26.5C 26.5,28.5 26.5,30.5 26.5,32.5C 24.1667,32.5 21.8333,32.5 19.5,32.5C 19.5,30.5 19.5,28.5 19.5,26.5 Z"/></g>
<g><path style="opacity:1" fill="#524ffd" d="M 26.5,26.5 C 28.8333,26.5 31.1667,26.5 33.5,26.5C 33.5,28.8333 33.5,31.1667 33.5,33.5C 35.5,33.5 37.5,33.5 39.5,33.5C 39.5,35.5 39.5,37.5 39.5,39.5C 37.2646,39.2053 35.2646,39.5386 33.5,40.5C 33.5,49.5 33.5,58.5 33.5,67.5C 31.1667,67.5 28.8333,67.5 26.5,67.5C 26.5,65.5 26.5,63.5 26.5,61.5C 26.5,51.8333 26.5,42.1667 26.5,32.5C 26.5,30.5 26.5,28.5 26.5,26.5 Z"/></g>
<g><path style="opacity:1" fill="#524ffd" d="M 60.5,26.5 C 62.8333,26.5 65.1667,26.5 67.5,26.5C 67.5,28.5 67.5,30.5 67.5,32.5C 67.5,42.1667 67.5,51.8333 67.5,61.5C 67.5,63.5 67.5,65.5 67.5,67.5C 65.1667,67.5 62.8333,67.5 60.5,67.5C 60.5,58.5 60.5,49.5 60.5,40.5C 58.7354,39.5386 56.7354,39.2053 54.5,39.5C 54.5,37.5 54.5,35.5 54.5,33.5C 56.7354,33.7947 58.7354,33.4614 60.5,32.5C 60.5,30.5 60.5,28.5 60.5,26.5 Z"/></g>
<g><path style="opacity:1" fill="#9393f9" d="M 67.5,26.5 C 69.8333,26.5 72.1667,26.5 74.5,26.5C 74.5,28.5 74.5,30.5 74.5,32.5C 72.1667,32.5 69.8333,32.5 67.5,32.5C 67.5,30.5 67.5,28.5 67.5,26.5 Z"/></g>
<g><path style="opacity:0.921" fill="#5955fc" d="M 19.5,26.5 C 19.5,28.5 19.5,30.5 19.5,32.5C 19.5,32.8333 19.5,33.1667 19.5,33.5C 17.5,33.5 15.5,33.5 13.5,33.5C 13.5,42.5 13.5,51.5 13.5,60.5C 15.6208,60.3253 17.6208,60.6586 19.5,61.5C 19.5,63.5 19.5,65.5 19.5,67.5C 17.1667,67.5 14.8333,67.5 12.5,67.5C 12.5,65.5 12.5,63.5 12.5,61.5C 10.4086,61.6816 8.40864,61.3482 6.5,60.5C 5.50182,51.5246 5.16849,42.5246 5.5,33.5C 7.83333,33.5 10.1667,33.5 12.5,33.5C 12.5,31.1667 12.5,28.8333 12.5,26.5C 14.8333,26.5 17.1667,26.5 19.5,26.5 Z"/></g>
<g><path style="opacity:0.919" fill="#5a56fc" d="M 74.5,26.5 C 76.8333,26.5 79.1667,26.5 81.5,26.5C 81.5,28.8333 81.5,31.1667 81.5,33.5C 83.8333,33.5 86.1667,33.5 88.5,33.5C 88.8315,42.5246 88.4982,51.5246 87.5,60.5C 85.5914,61.3482 83.5914,61.6816 81.5,61.5C 81.5,63.5 81.5,65.5 81.5,67.5C 79.1667,67.5 76.8333,67.5 74.5,67.5C 74.5,65.5 74.5,63.5 74.5,61.5C 76.3792,60.6586 78.3792,60.3253 80.5,60.5C 80.5,51.5 80.5,42.5 80.5,33.5C 78.5,33.5 76.5,33.5 74.5,33.5C 74.5,33.1667 74.5,32.8333 74.5,32.5C 74.5,30.5 74.5,28.5 74.5,26.5 Z"/></g>
<g><path style="opacity:1" fill="#9c98f0" d="M 19.5,33.5 C 19.5,42.8333 19.5,52.1667 19.5,61.5C 17.6208,60.6586 15.6208,60.3253 13.5,60.5C 13.5,51.5 13.5,42.5 13.5,33.5C 15.5,33.5 17.5,33.5 19.5,33.5 Z"/></g>
<g><path style="opacity:1" fill="#fedc50" d="M 19.5,33.5 C 21.5,33.5 23.5,33.5 25.5,33.5C 25.5,42.8333 25.5,52.1667 25.5,61.5C 23.5,61.5 21.5,61.5 19.5,61.5C 19.5,52.1667 19.5,42.8333 19.5,33.5 Z"/></g>
<g><path style="opacity:1" fill="#e0c17a" d="M 19.5,33.5 C 19.5,33.1667 19.5,32.8333 19.5,32.5C 21.8333,32.5 24.1667,32.5 26.5,32.5C 26.5,42.1667 26.5,51.8333 26.5,61.5C 26.1667,61.5 25.8333,61.5 25.5,61.5C 25.5,52.1667 25.5,42.8333 25.5,33.5C 23.5,33.5 21.5,33.5 19.5,33.5 Z"/></g>
<g><path style="opacity:1" fill="#dabd7f" d="M 67.5,32.5 C 69.8333,32.5 72.1667,32.5 74.5,32.5C 74.5,32.8333 74.5,33.1667 74.5,33.5C 72.5,33.5 70.5,33.5 68.5,33.5C 68.5,42.8333 68.5,52.1667 68.5,61.5C 68.1667,61.5 67.8333,61.5 67.5,61.5C 67.5,51.8333 67.5,42.1667 67.5,32.5 Z"/></g>
<g><path style="opacity:1" fill="#fddb50" d="M 74.5,33.5 C 74.5,42.8333 74.5,52.1667 74.5,61.5C 72.5,61.5 70.5,61.5 68.5,61.5C 68.5,52.1667 68.5,42.8333 68.5,33.5C 70.5,33.5 72.5,33.5 74.5,33.5 Z"/></g>
<g><path style="opacity:1" fill="#9d98f0" d="M 74.5,33.5 C 76.5,33.5 78.5,33.5 80.5,33.5C 80.5,42.5 80.5,51.5 80.5,60.5C 78.3792,60.3253 76.3792,60.6586 74.5,61.5C 74.5,52.1667 74.5,42.8333 74.5,33.5 Z"/></g>
<g><path style="opacity:1" fill="#8b7bc8" d="M 60.5,32.5 C 58.7354,33.4614 56.7354,33.7947 54.5,33.5C 54.5,35.5 54.5,37.5 54.5,39.5C 56.7354,39.2053 58.7354,39.5386 60.5,40.5C 58.5,40.5 56.5,40.5 54.5,40.5C 54.8016,43.0593 54.4682,45.3926 53.5,47.5C 53.5,45.1667 53.5,42.8333 53.5,40.5C 49.1667,40.5 44.8333,40.5 40.5,40.5C 40.5,42.8333 40.5,45.1667 40.5,47.5C 39.5318,45.3926 39.1984,43.0593 39.5,40.5C 37.8333,40.5 36.1667,40.5 34.5,40.5C 34.1667,40.5 33.8333,40.5 33.5,40.5C 35.2646,39.5386 37.2646,39.2053 39.5,39.5C 39.5,37.5 39.5,35.5 39.5,33.5C 39.8333,33.5 40.1667,33.5 40.5,33.5C 40.5,35.5 40.5,37.5 40.5,39.5C 44.8333,39.5 49.1667,39.5 53.5,39.5C 53.5,37.1667 53.5,34.8333 53.5,32.5C 55.8333,32.5 58.1667,32.5 60.5,32.5 Z"/></g>
<g><path style="opacity:1" fill="#fdda53" d="M 34.5,40.5 C 36.1667,40.5 37.8333,40.5 39.5,40.5C 39.1984,43.0593 39.5318,45.3926 40.5,47.5C 44.8333,47.5 49.1667,47.5 53.5,47.5C 54.4682,45.3926 54.8016,43.0593 54.5,40.5C 56.5,40.5 58.5,40.5 60.5,40.5C 60.5,49.5 60.5,58.5 60.5,67.5C 60.5,69.5 60.5,71.5 60.5,73.5C 51.8333,73.5 43.1667,73.5 34.5,73.5C 34.5,62.5 34.5,51.5 34.5,40.5 Z"/></g>
<g><path style="opacity:1" fill="#504dfc" d="M 53.5,47.5 C 49.1667,47.5 44.8333,47.5 40.5,47.5C 40.5,45.1667 40.5,42.8333 40.5,40.5C 44.8333,40.5 49.1667,40.5 53.5,40.5C 53.5,42.8333 53.5,45.1667 53.5,47.5 Z"/></g>
<g><path style="opacity:1" fill="#9493f9" d="M 19.5,61.5 C 21.5,61.5 23.5,61.5 25.5,61.5C 25.8333,61.5 26.1667,61.5 26.5,61.5C 26.5,63.5 26.5,65.5 26.5,67.5C 24.1667,67.5 21.8333,67.5 19.5,67.5C 19.5,65.5 19.5,63.5 19.5,61.5 Z"/></g>
<g><path style="opacity:1" fill="#9493f9" d="M 67.5,61.5 C 67.8333,61.5 68.1667,61.5 68.5,61.5C 70.5,61.5 72.5,61.5 74.5,61.5C 74.5,63.5 74.5,65.5 74.5,67.5C 72.1667,67.5 69.8333,67.5 67.5,67.5C 67.5,65.5 67.5,63.5 67.5,61.5 Z"/></g>
<g><path style="opacity:0.772" fill="#5653fc" d="M 19.5,67.5 C 21.8333,67.5 24.1667,67.5 26.5,67.5C 26.5,69.8333 26.5,72.1667 26.5,74.5C 24.1667,74.5 21.8333,74.5 19.5,74.5C 19.5,72.1667 19.5,69.8333 19.5,67.5 Z"/></g>
<g><path style="opacity:1" fill="#9695f8" d="M 60.5,67.5 C 62.8333,67.5 65.1667,67.5 67.5,67.5C 67.5,69.8333 67.5,72.1667 67.5,74.5C 65.1667,74.5 62.8333,74.5 60.5,74.5C 60.5,74.1667 60.5,73.8333 60.5,73.5C 60.5,71.5 60.5,69.5 60.5,67.5 Z"/></g>
<g><path style="opacity:0.778" fill="#5652fc" d="M 67.5,67.5 C 69.8333,67.5 72.1667,67.5 74.5,67.5C 74.5,69.8333 74.5,72.1667 74.5,74.5C 72.1667,74.5 69.8333,74.5 67.5,74.5C 67.5,72.1667 67.5,69.8333 67.5,67.5 Z"/></g>
<g><path style="opacity:0.956" fill="#9291f9" d="M 26.5,67.5 C 28.8333,67.5 31.1667,67.5 33.5,67.5C 33.5,69.8333 33.5,72.1667 33.5,74.5C 31.1667,74.5 28.8333,74.5 26.5,74.5C 26.5,72.1667 26.5,69.8333 26.5,67.5 Z"/></g>
<g><path style="opacity:1" fill="#eecd6a" d="M 33.5,40.5 C 33.8333,40.5 34.1667,40.5 34.5,40.5C 34.5,51.5 34.5,62.5 34.5,73.5C 43.1667,73.5 51.8333,73.5 60.5,73.5C 60.5,73.8333 60.5,74.1667 60.5,74.5C 51.5,74.5 42.5,74.5 33.5,74.5C 33.5,72.1667 33.5,69.8333 33.5,67.5C 33.5,58.5 33.5,49.5 33.5,40.5 Z"/></g>
<g><path style="opacity:0.912" fill="#5451fc" d="M 26.5,74.5 C 28.8333,74.5 31.1667,74.5 33.5,74.5C 33.5,76.5 33.5,78.5 33.5,80.5C 42.5,80.5 51.5,80.5 60.5,80.5C 60.5,78.5 60.5,76.5 60.5,74.5C 62.8333,74.5 65.1667,74.5 67.5,74.5C 67.5,76.8333 67.5,79.1667 67.5,81.5C 65.1432,81.3367 62.8098,81.5034 60.5,82C 61.4231,84.0408 61.7564,86.2075 61.5,88.5C 52.1667,88.5 42.8333,88.5 33.5,88.5C 33.5,86.1667 33.5,83.8333 33.5,81.5C 31.1667,81.5 28.8333,81.5 26.5,81.5C 26.5,79.1667 26.5,76.8333 26.5,74.5 Z"/></g>
<g><path style="opacity:1" fill="#9594f9" d="M 33.5,74.5 C 42.5,74.5 51.5,74.5 60.5,74.5C 60.5,76.5 60.5,78.5 60.5,80.5C 51.5,80.5 42.5,80.5 33.5,80.5C 33.5,78.5 33.5,76.5 33.5,74.5 Z"/></g>
</svg>
