<?xml version="1.0" encoding="UTF-8"?>
<!DOCTYPE svg PUBLIC "-//W3C//DTD SVG 1.1//EN" "http://www.w3.org/Graphics/SVG/1.1/DTD/svg11.dtd">
<svg xmlns="http://www.w3.org/2000/svg" version="1.1" width="96px" height="96px" style="shape-rendering:geometricPrecision; text-rendering:geometricPrecision; image-rendering:optimizeQuality; fill-rule:evenodd; clip-rule:evenodd" xmlns:xlink="http://www.w3.org/1999/xlink">
<g><path style="opacity:0.602" fill="#b31101" d="M 38.5,-0.5 C 44.1667,-0.5 49.8333,-0.5 55.5,-0.5C 89.0182,10.8686 100.518,33.5353 90,67.5C 75.037,92.3943 53.8703,99.8943 26.5,90C 12.4172,82.4239 3.4172,70.9239 -0.5,55.5C -0.5,49.8333 -0.5,44.1667 -0.5,38.5C 2.84328,24.6604 10.51,13.8271 22.5,6C 27.8188,3.49742 33.1522,1.33076 38.5,-0.5 Z"/></g>
<g><path style="opacity:1" fill="#fe4d19" d="M 91.5,36.5 C 91.6495,37.552 91.4828,38.552 91,39.5C 89.3333,38.1667 87.6667,38.1667 86,39.5C 83.0714,37.2355 79.9048,36.5688 76.5,37.5C 75.6424,35.0991 74.309,33.0991 72.5,31.5C 68.6683,26.8999 64.0017,23.2332 58.5,20.5C 57.6816,17.8929 57.1816,15.2263 57,12.5C 56.3128,10.4453 55.1461,8.77863 53.5,7.5C 51.7368,10.0196 49.7368,12.3529 47.5,14.5C 45.2621,13.1473 43.9287,11.1473 43.5,8.5C 41.2823,7.81231 39.7823,8.81231 39,11.5C 38.502,14.4816 38.3354,17.4816 38.5,20.5C 29.7526,23.4128 23.7526,29.2461 20.5,38C 16.6173,38.4535 13.284,39.9535 10.5,42.5C 10.5654,42.0618 10.3988,41.7284 10,41.5C 9.66667,42.1667 9.33333,42.8333 9,43.5C 4.5329,41.4078 2.0329,42.7412 1.5,47.5C 2.36159,24.1262 14.0283,8.95958 36.5,2C 64.5603,-1.65182 82.8937,9.84818 91.5,36.5 Z"/></g>
<g><path style="opacity:1" fill="#fff7f6" d="M 72.5,31.5 C 73.4552,33.7457 74.1218,36.079 74.5,38.5C 77.941,38.3011 81.2744,38.8011 84.5,40C 86.0368,41.1096 86.7035,42.6096 86.5,44.5C 83.4007,44.0923 81.0674,45.259 79.5,48C 81.8089,50.4866 84.4756,52.4866 87.5,54C 86.2842,55.7398 84.6175,56.7398 82.5,57C 79.5,57.3333 76.5,57.6667 73.5,58C 69.9738,64.3596 64.9738,69.1929 58.5,72.5C 57.52,75.0865 57.1866,77.7531 57.5,80.5C 56.4155,82.3186 55.0822,83.9853 53.5,85.5C 52.1061,82.8037 50.2728,80.4703 48,78.5C 45.712,80.3739 43.8786,82.7072 42.5,85.5C 38.9914,82.727 37.6581,79.0604 38.5,74.5C 35.9888,71.8869 32.9888,69.7202 29.5,68C 26.5564,65.278 24.2231,62.1113 22.5,58.5C 18.9502,57.9843 15.6169,56.9843 12.5,55.5C 11.4173,54.635 11.2506,53.635 12,52.5C 14.7805,52.1053 16.9472,50.772 18.5,48.5C 16.1262,45.9934 13.4595,43.9934 10.5,42.5C 13.284,39.9535 16.6173,38.4535 20.5,38C 23.7526,29.2461 29.7526,23.4128 38.5,20.5C 38.3354,17.4816 38.502,14.4816 39,11.5C 39.7823,8.81231 41.2823,7.81231 43.5,8.5C 43.9287,11.1473 45.2621,13.1473 47.5,14.5C 49.7368,12.3529 51.7368,10.0196 53.5,7.5C 55.1461,8.77863 56.3128,10.4453 57,12.5C 57.1816,15.2263 57.6816,17.8929 58.5,20.5C 64.0017,23.2332 68.6683,26.8999 72.5,31.5 Z"/></g>
<g><path style="opacity:1" fill="#fff6f5" d="M 63.5,51.5 C 60.093,60.7109 53.4263,64.5443 43.5,63C 35.698,60.5574 32.698,55.3907 34.5,47.5C 39.6241,41.2689 45.1241,40.9356 51,46.5C 52.5,53 50,55.5 43.5,54C 40.4144,50.4895 41.081,48.3229 45.5,47.5C 45.238,48.9778 45.5713,50.3112 46.5,51.5C 49.3623,47.966 48.3623,45.966 43.5,45.5C 40.3003,45.5297 38.6336,47.1964 38.5,50.5C 41.7587,57.8485 46.5921,59.1818 53,54.5C 55.9607,45.2695 52.4607,40.6028 42.5,40.5C 39.6644,40.7063 36.9977,41.373 34.5,42.5C 36.7084,29.065 43.7084,25.8983 55.5,33C 62.3942,37.2926 65.0609,43.4593 63.5,51.5 Z"/></g>
<g><path style="opacity:1" fill="#ff401e" d="M 68.5,54.5 C 67.8826,54.6107 67.3826,54.944 67,55.5C 65.4499,54.4092 64.2832,53.0758 63.5,51.5C 65.0609,43.4593 62.3942,37.2926 55.5,33C 43.7084,25.8983 36.7084,29.065 34.5,42.5C 36.9977,41.373 39.6644,40.7063 42.5,40.5C 52.4607,40.6028 55.9607,45.2695 53,54.5C 46.5921,59.1818 41.7587,57.8485 38.5,50.5C 38.6336,47.1964 40.3003,45.5297 43.5,45.5C 48.3623,45.966 49.3623,47.966 46.5,51.5C 45.5713,50.3112 45.238,48.9778 45.5,47.5C 41.081,48.3229 40.4144,50.4895 43.5,54C 50,55.5 52.5,53 51,46.5C 45.1241,40.9356 39.6241,41.2689 34.5,47.5C 34.44,46.9569 34.1067,46.6236 33.5,46.5C 32.8281,47.9492 32.1614,49.2825 31.5,50.5C 32.0173,45.5406 30.3507,41.5406 26.5,38.5C 28.8829,31.625 33.5495,26.9583 40.5,24.5C 45.5,29.8333 50.5,29.8333 55.5,24.5C 61.4723,27.3057 65.9723,31.639 69,37.5C 69.6667,39.1667 69.6667,40.8333 69,42.5C 65.8886,46.2998 65.7219,50.2998 68.5,54.5 Z"/></g>
<g><path style="opacity:1" fill="#fe2413" d="M 34.5,47.5 C 32.698,55.3907 35.698,60.5574 43.5,63C 53.4263,64.5443 60.093,60.7109 63.5,51.5C 64.2832,53.0758 65.4499,54.4092 67,55.5C 67.3826,54.944 67.8826,54.6107 68.5,54.5C 64.9463,65.7823 57.9463,69.1157 47.5,64.5C 44.8629,65.4424 42.1963,66.4424 39.5,67.5C 34.2511,65.2534 30.2511,61.5867 27.5,56.5C 29.2516,54.7541 30.5849,52.7541 31.5,50.5C 32.1614,49.2825 32.8281,47.9492 33.5,46.5C 34.1067,46.6236 34.44,46.9569 34.5,47.5 Z"/></g>
<g><path style="opacity:1" fill="#f92715" d="M 10.5,42.5 C 13.4595,43.9934 16.1262,45.9934 18.5,48.5C 16.9472,50.772 14.7805,52.1053 12,52.5C 11.2506,53.635 11.4173,54.635 12.5,55.5C 15.6169,56.9843 18.9502,57.9843 22.5,58.5C 24.2231,62.1113 26.5564,65.278 29.5,68C 32.9888,69.7202 35.9888,71.8869 38.5,74.5C 37.5386,76.2646 37.2053,78.2646 37.5,80.5C 30.6457,80.176 23.979,80.5093 17.5,81.5C 6.8059,72.7749 1.47257,61.4415 1.5,47.5C 2.0329,42.7412 4.5329,41.4078 9,43.5C 9.33333,42.8333 9.66667,42.1667 10,41.5C 10.3988,41.7284 10.5654,42.0618 10.5,42.5 Z"/></g>
<g><path style="opacity:1" fill="#f92814" d="M 72.5,31.5 C 74.309,33.0991 75.6424,35.0991 76.5,37.5C 79.9048,36.5688 83.0714,37.2355 86,39.5C 87.6667,38.1667 89.3333,38.1667 91,39.5C 91.4828,38.552 91.6495,37.552 91.5,36.5C 95.1366,54.9225 89.8033,70.2559 75.5,82.5C 74.2617,82.19 74.2617,81.69 75.5,81C 69.9171,80.8089 64.4171,80.3089 59,79.5C 58.6667,80.1667 58.3333,80.8333 58,81.5C 57.6012,81.2716 57.4346,80.9382 57.5,80.5C 57.1866,77.7531 57.52,75.0865 58.5,72.5C 64.9738,69.1929 69.9738,64.3596 73.5,58C 76.5,57.6667 79.5,57.3333 82.5,57C 84.6175,56.7398 86.2842,55.7398 87.5,54C 84.4756,52.4866 81.8089,50.4866 79.5,48C 81.0674,45.259 83.4007,44.0923 86.5,44.5C 86.7035,42.6096 86.0368,41.1096 84.5,40C 81.2744,38.8011 77.941,38.3011 74.5,38.5C 74.1218,36.079 73.4552,33.7457 72.5,31.5 Z"/></g>
<g><path style="opacity:1" fill="#df2413" d="M 38.5,74.5 C 37.6581,79.0604 38.9914,82.727 42.5,85.5C 43.8786,82.7072 45.712,80.3739 48,78.5C 50.2728,80.4703 52.1061,82.8037 53.5,85.5C 55.0822,83.9853 56.4155,82.3186 57.5,80.5C 57.4346,80.9382 57.6012,81.2716 58,81.5C 58.3333,80.8333 58.6667,80.1667 59,79.5C 64.4171,80.3089 69.9171,80.8089 75.5,81C 74.2617,81.69 74.2617,82.19 75.5,82.5C 64.0763,91.4385 51.0763,94.6052 36.5,92C 29.2017,90.0225 22.8684,86.5225 17.5,81.5C 23.979,80.5093 30.6457,80.176 37.5,80.5C 37.2053,78.2646 37.5386,76.2646 38.5,74.5 Z"/></g>
</svg>
