<?xml version="1.0" encoding="UTF-8"?>
<!DOCTYPE svg PUBLIC "-//W3C//DTD SVG 1.1//EN" "http://www.w3.org/Graphics/SVG/1.1/DTD/svg11.dtd">
<svg xmlns="http://www.w3.org/2000/svg" version="1.1" width="96px" height="96px" style="shape-rendering:geometricPrecision; text-rendering:geometricPrecision; image-rendering:optimizeQuality; fill-rule:evenodd; clip-rule:evenodd" xmlns:xlink="http://www.w3.org/1999/xlink">
<g><path style="opacity:1" fill="#fef2f1" d="M 72.5,20.5 C 70.8289,25.1084 67.4956,27.775 62.5,28.5C 61.8333,28.1667 61.1667,27.8333 60.5,27.5C 59.8333,26.1667 59.1667,24.8333 58.5,23.5C 56.864,22.7545 55.1973,23.0878 53.5,24.5C 53.1667,24.1667 52.8333,23.8333 52.5,23.5C 53.1667,22.8333 53.8333,22.1667 54.5,21.5C 51.6754,20.7452 49.0087,19.7452 46.5,18.5C 45.8444,19.2778 45.0111,19.9444 44,20.5C 42.8382,19.8132 41.6716,19.6466 40.5,20C 38.0965,24.4559 35.4298,28.6226 32.5,32.5C 32.6309,31.6236 32.2975,30.9569 31.5,30.5C 30.5147,32.772 29.6813,35.1053 29,37.5C 28.8019,35.6183 28.3019,33.9516 27.5,32.5C 26.7095,31.5987 25.7095,30.9321 24.5,30.5C 24.6795,28.0459 24.0128,25.8792 22.5,24C 24.4151,18.8284 27.0817,14.1618 30.5,10C 38.7975,6.2289 47.4641,4.56223 56.5,5C 61.7755,7.88792 66.6089,11.3879 71,15.5C 72.0086,17.0249 72.5086,18.6916 72.5,20.5 Z"/></g>
<g><path style="opacity:1" fill="#ef9292" d="M 46.5,18.5 C 47.5819,20.3386 48.4153,22.3386 49,24.5C 50.6934,25.1845 52.1934,26.1845 53.5,27.5C 54.8333,26.1667 56.1667,26.1667 57.5,27.5C 58.4287,26.3112 58.762,24.9778 58.5,23.5C 59.1667,24.8333 59.8333,26.1667 60.5,27.5C 60.3893,28.1174 60.056,28.6174 59.5,29C 60.7042,30.3528 61.3708,32.0194 61.5,34C 61.536,39.6773 60.8693,39.8439 59.5,34.5C 58.1408,35.6243 57.1408,36.9577 56.5,38.5C 54.2688,29.091 48.6021,25.9243 39.5,29C 38.2899,30.0391 37.2899,31.2058 36.5,32.5C 34.5544,33.0347 33.5544,34.368 33.5,36.5C 32.5655,35.4324 32.2322,34.099 32.5,32.5C 35.4298,28.6226 38.0965,24.4559 40.5,20C 41.6716,19.6466 42.8382,19.8132 44,20.5C 45.0111,19.9444 45.8444,19.2778 46.5,18.5 Z"/></g>
<g><path style="opacity:1" fill="#e57573" d="M 46.5,18.5 C 49.0087,19.7452 51.6754,20.7452 54.5,21.5C 53.8333,22.1667 53.1667,22.8333 52.5,23.5C 52.8333,23.8333 53.1667,24.1667 53.5,24.5C 55.1973,23.0878 56.864,22.7545 58.5,23.5C 58.762,24.9778 58.4287,26.3112 57.5,27.5C 56.1667,26.1667 54.8333,26.1667 53.5,27.5C 52.1934,26.1845 50.6934,25.1845 49,24.5C 48.4153,22.3386 47.5819,20.3386 46.5,18.5 Z"/></g>
<g><path style="opacity:1" fill="#f6bebd" d="M 72.5,20.5 C 72.5,22.1667 72.5,23.8333 72.5,25.5C 71.8861,30.4126 71.2195,34.746 70.5,38.5C 70.0472,37.5416 69.3805,36.7083 68.5,36C 70.4865,33.5301 70.9865,30.6967 70,27.5C 68.9292,31.0411 67.2626,31.7078 65,29.5C 64.7508,30.624 64.2508,31.624 63.5,32.5C 63.2124,31.1395 62.879,29.8062 62.5,28.5C 67.4956,27.775 70.8289,25.1084 72.5,20.5 Z"/></g>
<g><path style="opacity:0.784" fill="#db6f6c" d="M 24.5,30.5 C 25.7095,30.9321 26.7095,31.5987 27.5,32.5C 27.1667,32.5 26.8333,32.5 26.5,32.5C 25.1667,32.5 24.5,31.8333 24.5,30.5 Z"/></g>
<g><path style="opacity:1" fill="#f4a8a7" d="M 51.5,45.5 C 50.4168,45.4606 49.4168,45.1272 48.5,44.5C 47.4104,45.3914 47.4104,46.3914 48.5,47.5C 46.2573,48.4742 43.924,48.8076 41.5,48.5C 41.2627,47.209 41.596,46.209 42.5,45.5C 42.62,46.5862 43.2867,47.2528 44.5,47.5C 45.1667,47.1667 45.8333,46.8333 46.5,46.5C 45.7542,45.2638 45.4208,43.9305 45.5,42.5C 45.631,41.7611 45.4643,41.0944 45,40.5C 44.3292,41.2524 43.4959,41.5858 42.5,41.5C 42.853,39.3652 42.0197,38.0319 40,37.5C 38.2676,37.7336 37.4342,38.7336 37.5,40.5C 38.1301,43.6467 39.7968,44.3133 42.5,42.5C 40.9586,43.6668 39.6252,45.0001 38.5,46.5C 33.951,42.5278 33.2844,37.8611 36.5,32.5C 48.6579,26.1617 54.4912,29.8284 54,43.5C 53.2917,44.3805 52.4584,45.0472 51.5,45.5 Z"/></g>
<g><path style="opacity:0.502" fill="#440d0d" d="M 26.5,32.5 C 26.8333,32.5 27.1667,32.5 27.5,32.5C 27.3438,41.175 27.0105,49.8417 26.5,58.5C 26.7373,59.791 26.404,60.791 25.5,61.5C 25.7087,51.828 26.042,42.1614 26.5,32.5 Z"/></g>
<g><path style="opacity:1" fill="#a43633" d="M 46.5,37.5 C 50.909,36.899 52.2424,38.5657 50.5,42.5C 49.2798,43.7111 48.1131,43.7111 47,42.5C 46.5065,40.8659 46.3398,39.1992 46.5,37.5 Z"/></g>
<g><path style="opacity:1" fill="#e67270" d="M 60.5,27.5 C 61.1667,27.8333 61.8333,28.1667 62.5,28.5C 62.879,29.8062 63.2124,31.1395 63.5,32.5C 64.2508,31.624 64.7508,30.624 65,29.5C 67.2626,31.7078 68.9292,31.0411 70,27.5C 70.9865,30.6967 70.4865,33.5301 68.5,36C 69.3805,36.7083 70.0472,37.5416 70.5,38.5C 69.5,38.8333 68.8333,39.5 68.5,40.5C 67.5116,41.795 66.5116,43.1283 65.5,44.5C 63.2374,42.2335 62.9041,39.5668 64.5,36.5C 64.1924,35.6919 63.6924,35.0253 63,34.5C 61.8083,39.2378 61.475,43.9045 62,48.5C 60.938,45.971 60.1047,43.3043 59.5,40.5C 58.7132,41.2421 58.0465,42.0754 57.5,43C 58.4506,43.7175 58.6172,44.5509 58,45.5C 55.943,47.269 54.1097,49.269 52.5,51.5C 53.7468,53.0421 53.7468,54.5421 52.5,56C 48.9206,55.663 45.254,55.4964 41.5,55.5C 39.6203,55.7709 38.287,55.1042 37.5,53.5C 38.8221,53.33 39.9887,53.6634 41,54.5C 41.3333,53.5 41.6667,52.5 42,51.5C 43.5057,54.474 45.1724,54.8073 47,52.5C 48.049,54.1066 49.549,54.7733 51.5,54.5C 51.5,53.1667 51.5,51.8333 51.5,50.5C 52.3431,47.4838 53.8431,44.8171 56,42.5C 56.49,41.2068 56.6567,39.8734 56.5,38.5C 57.1408,36.9577 58.1408,35.6243 59.5,34.5C 60.8693,39.8439 61.536,39.6773 61.5,34C 61.3708,32.0194 60.7042,30.3528 59.5,29C 60.056,28.6174 60.3893,28.1174 60.5,27.5 Z"/></g>
<g><path style="opacity:1" fill="#6b1d1c" d="M 56.5,38.5 C 56.6567,39.8734 56.49,41.2068 56,42.5C 53.8431,44.8171 52.3431,47.4838 51.5,50.5C 50.8333,50.5 50.1667,50.5 49.5,50.5C 49.3915,48.4862 50.0582,46.8195 51.5,45.5C 52.4584,45.0472 53.2917,44.3805 54,43.5C 54.4912,29.8284 48.6579,26.1617 36.5,32.5C 37.2899,31.2058 38.2899,30.0391 39.5,29C 48.6021,25.9243 54.2688,29.091 56.5,38.5 Z"/></g>
<g><path style="opacity:1" fill="#ad4a47" d="M 42.5,41.5 C 42.5,41.8333 42.5,42.1667 42.5,42.5C 39.7968,44.3133 38.1301,43.6467 37.5,40.5C 37.4342,38.7336 38.2676,37.7336 40,37.5C 42.0197,38.0319 42.853,39.3652 42.5,41.5 Z"/></g>
<g><path style="opacity:1" fill="#ea8280" d="M 32.5,32.5 C 32.2322,34.099 32.5655,35.4324 33.5,36.5C 33.5,38.5 33.5,40.5 33.5,42.5C 32.8485,41.9094 32.1818,41.2427 31.5,40.5C 31.1667,40.8333 30.8333,41.1667 30.5,41.5C 30.9454,44.2179 30.2788,46.8846 28.5,49.5C 29.154,51.1151 29.654,52.7818 30,54.5C 30.3076,53.6919 30.8076,53.0253 31.5,52.5C 32.1872,54.5547 33.3539,56.2214 35,57.5C 35.5396,59.1346 35.0396,60.4679 33.5,61.5C 35.7724,62.1342 37.4391,63.4676 38.5,65.5C 37.0695,65.4208 35.7362,65.7542 34.5,66.5C 33.5276,64.3635 31.8609,63.1968 29.5,63C 31.6145,62.5756 32.4479,61.4089 32,59.5C 31.3109,60.3567 30.4776,61.0233 29.5,61.5C 28.7124,60.2299 27.7124,59.2299 26.5,58.5C 27.0105,49.8417 27.3438,41.175 27.5,32.5C 28.3019,33.9516 28.8019,35.6183 29,37.5C 29.6813,35.1053 30.5147,32.772 31.5,30.5C 32.2975,30.9569 32.6309,31.6236 32.5,32.5 Z"/></g>
<g><path style="opacity:1" fill="#90302e" d="M 45.5,42.5 C 45.4208,43.9305 45.7542,45.2638 46.5,46.5C 45.8333,46.8333 45.1667,47.1667 44.5,47.5C 43.2867,47.2528 42.62,46.5862 42.5,45.5C 42.8564,43.8102 43.8564,42.8102 45.5,42.5 Z"/></g>
<g><path style="opacity:1" fill="#f9c1c1" d="M 45.5,42.5 C 43.8564,42.8102 42.8564,43.8102 42.5,45.5C 41.596,46.209 41.2627,47.209 41.5,48.5C 43.924,48.8076 46.2573,48.4742 48.5,47.5C 47.4104,46.3914 47.4104,45.3914 48.5,44.5C 49.4168,45.1272 50.4168,45.4606 51.5,45.5C 50.0582,46.8195 49.3915,48.4862 49.5,50.5C 49.631,51.2389 49.4643,51.9056 49,52.5C 47.3333,49.8333 45.6667,49.8333 44,52.5C 43.5172,51.552 43.3505,50.552 43.5,49.5C 41.857,49.4802 40.5237,50.1468 39.5,51.5C 39.4214,49.8717 39.0881,48.2051 38.5,46.5C 39.6252,45.0001 40.9586,43.6668 42.5,42.5C 42.5,42.1667 42.5,41.8333 42.5,41.5C 43.4959,41.5858 44.3292,41.2524 45,40.5C 45.4643,41.0944 45.631,41.7611 45.5,42.5 Z"/></g>
<g><path style="opacity:1" fill="#ca4846" d="M 68.5,40.5 C 71.1165,42.7552 71.1165,45.0885 68.5,47.5C 69.6302,48.6223 70.2969,49.9557 70.5,51.5C 69.5655,52.5676 69.2322,53.901 69.5,55.5C 66.6995,53.3136 65.3662,50.3136 65.5,46.5C 65.5,45.8333 65.5,45.1667 65.5,44.5C 66.5116,43.1283 67.5116,41.795 68.5,40.5 Z"/></g>
<g><path style="opacity:1" fill="#c5716f" d="M 72.5,25.5 C 72.6779,33.9454 72.6779,42.2787 72.5,50.5C 71.8333,50.8333 71.1667,51.1667 70.5,51.5C 70.2969,49.9557 69.6302,48.6223 68.5,47.5C 71.1165,45.0885 71.1165,42.7552 68.5,40.5C 68.8333,39.5 69.5,38.8333 70.5,38.5C 71.2195,34.746 71.8861,30.4126 72.5,25.5 Z"/></g>
<g><path style="opacity:1" fill="#a62e2d" d="M 36.5,32.5 C 33.2844,37.8611 33.951,42.5278 38.5,46.5C 39.0881,48.2051 39.4214,49.8717 39.5,51.5C 40.5237,50.1468 41.857,49.4802 43.5,49.5C 43.3505,50.552 43.5172,51.552 44,52.5C 45.6667,49.8333 47.3333,49.8333 49,52.5C 49.4643,51.9056 49.631,51.2389 49.5,50.5C 50.1667,50.5 50.8333,50.5 51.5,50.5C 51.5,51.8333 51.5,53.1667 51.5,54.5C 49.549,54.7733 48.049,54.1066 47,52.5C 45.1724,54.8073 43.5057,54.474 42,51.5C 41.6667,52.5 41.3333,53.5 41,54.5C 39.9887,53.6634 38.8221,53.33 37.5,53.5C 37.6621,51.4727 37.4955,49.4727 37,47.5C 35.1978,46.2107 34.0312,44.5441 33.5,42.5C 33.5,40.5 33.5,38.5 33.5,36.5C 33.5544,34.368 34.5544,33.0347 36.5,32.5 Z"/></g>
<g><path style="opacity:1" fill="#cb6966" d="M 72.5,50.5 C 72.6727,55.7919 72.3394,61.1253 71.5,66.5C 70.7784,66.0825 70.2784,65.4158 70,64.5C 69.6174,65.056 69.1174,65.3893 68.5,65.5C 66.6921,64.0821 66.0254,62.0821 66.5,59.5C 67.265,60.6602 68.265,61.6602 69.5,62.5C 70.7969,60.0268 70.7969,57.6934 69.5,55.5C 69.2322,53.901 69.5655,52.5676 70.5,51.5C 71.1667,51.1667 71.8333,50.8333 72.5,50.5 Z"/></g>
<g><path style="opacity:1" fill="#eb8987" d="M 65.5,46.5 C 65.3662,50.3136 66.6995,53.3136 69.5,55.5C 70.7969,57.6934 70.7969,60.0268 69.5,62.5C 68.265,61.6602 67.265,60.6602 66.5,59.5C 66.4668,56.9029 65.4668,55.9029 63.5,56.5C 63.9767,57.4776 64.6433,58.3109 65.5,59C 63.6583,60.3455 62.6583,62.1789 62.5,64.5C 62.6567,65.8734 62.49,67.2068 62,68.5C 61.8171,65.6353 61.3171,62.9686 60.5,60.5C 60.6567,59.1266 60.49,57.7932 60,56.5C 58.9986,59.1732 57.4986,61.5065 55.5,63.5C 56.3966,63.6691 57.3966,64.0024 58.5,64.5C 53.5789,67.8932 51.5789,66.8932 52.5,61.5C 54.4063,59.2472 56.4063,56.9138 58.5,54.5C 59.086,54.7093 59.586,55.0426 60,55.5C 60.3333,53.5 60.6667,51.5 61,49.5C 61.2022,51.2556 61.7022,52.9223 62.5,54.5C 63.2208,52.314 63.8875,50.1474 64.5,48C 63.1602,45.8215 63.4935,45.3215 65.5,46.5 Z"/></g>
<g><path style="opacity:1" fill="#f5bebe" d="M 65.5,44.5 C 65.5,45.1667 65.5,45.8333 65.5,46.5C 63.4935,45.3215 63.1602,45.8215 64.5,48C 63.8875,50.1474 63.2208,52.314 62.5,54.5C 61.7022,52.9223 61.2022,51.2556 61,49.5C 60.6667,51.5 60.3333,53.5 60,55.5C 59.586,55.0426 59.086,54.7093 58.5,54.5C 56.4063,56.9138 54.4063,59.2472 52.5,61.5C 52.6567,60.1266 52.49,58.7932 52,57.5C 47.8101,60.4105 44.3101,59.7439 41.5,55.5C 45.254,55.4964 48.9206,55.663 52.5,56C 53.7468,54.5421 53.7468,53.0421 52.5,51.5C 54.1097,49.269 55.943,47.269 58,45.5C 58.6172,44.5509 58.4506,43.7175 57.5,43C 58.0465,42.0754 58.7132,41.2421 59.5,40.5C 60.1047,43.3043 60.938,45.971 62,48.5C 61.475,43.9045 61.8083,39.2378 63,34.5C 63.6924,35.0253 64.1924,35.6919 64.5,36.5C 62.9041,39.5668 63.2374,42.2335 65.5,44.5 Z"/></g>
<g><path style="opacity:1" fill="#d15a57" d="M 26.5,58.5 C 27.7124,59.2299 28.7124,60.2299 29.5,61.5C 30.4776,61.0233 31.3109,60.3567 32,59.5C 32.4479,61.4089 31.6145,62.5756 29.5,63C 31.8609,63.1968 33.5276,64.3635 34.5,66.5C 35.7362,65.7542 37.0695,65.4208 38.5,65.5C 39.1667,65.8333 39.8333,66.1667 40.5,66.5C 40.631,67.2389 40.4643,67.9056 40,68.5C 38.3646,67.1514 36.8646,67.3181 35.5,69C 36.8333,69.3333 38.1667,69.6667 39.5,70C 37.4971,70.3345 35.8304,71.1679 34.5,72.5C 33.4324,71.5655 32.099,71.2322 30.5,71.5C 28.8008,71.6602 27.1341,71.4935 25.5,71C 27.7002,68.9539 30.3669,67.9539 33.5,68C 31.0881,68.0562 28.7548,67.2229 26.5,65.5C 26.6716,64.5084 26.3382,63.8417 25.5,63.5C 25.5,62.8333 25.5,62.1667 25.5,61.5C 26.404,60.791 26.7373,59.791 26.5,58.5 Z"/></g>
<g><path style="opacity:1" fill="#f3abab" d="M 33.5,42.5 C 34.0312,44.5441 35.1978,46.2107 37,47.5C 37.4955,49.4727 37.6621,51.4727 37.5,53.5C 38.287,55.1042 39.6203,55.7709 41.5,55.5C 44.3101,59.7439 47.8101,60.4105 52,57.5C 52.49,58.7932 52.6567,60.1266 52.5,61.5C 51.5789,66.8932 53.5789,67.8932 58.5,64.5C 57.3966,64.0024 56.3966,63.6691 55.5,63.5C 57.4986,61.5065 58.9986,59.1732 60,56.5C 60.49,57.7932 60.6567,59.1266 60.5,60.5C 61.467,64.8514 59.8004,67.1847 55.5,67.5C 54.8826,67.6107 54.3826,67.944 54,68.5C 51.9307,67.7362 49.764,67.2362 47.5,67C 48.5,66.6667 49.5,66.3333 50.5,66C 48.3822,65.3647 46.3822,64.5314 44.5,63.5C 43.5581,63.6082 42.7247,63.9415 42,64.5C 40.8867,62.6707 39.3867,61.8374 37.5,62C 38.8782,63.7134 40.5448,65.0467 42.5,66C 41.9056,66.4643 41.2389,66.631 40.5,66.5C 39.8333,66.1667 39.1667,65.8333 38.5,65.5C 37.4391,63.4676 35.7724,62.1342 33.5,61.5C 35.0396,60.4679 35.5396,59.1346 35,57.5C 33.3539,56.2214 32.1872,54.5547 31.5,52.5C 30.8076,53.0253 30.3076,53.6919 30,54.5C 29.654,52.7818 29.154,51.1151 28.5,49.5C 30.2788,46.8846 30.9454,44.2179 30.5,41.5C 30.8333,41.1667 31.1667,40.8333 31.5,40.5C 32.1818,41.2427 32.8485,41.9094 33.5,42.5 Z"/></g>
<g><path style="opacity:1" fill="#dc4e4c" d="M 66.5,59.5 C 66.0254,62.0821 66.6921,64.0821 68.5,65.5C 68.1667,66.5 67.5,67.1667 66.5,67.5C 65.205,66.5116 63.8717,65.5116 62.5,64.5C 62.6583,62.1789 63.6583,60.3455 65.5,59C 64.6433,58.3109 63.9767,57.4776 63.5,56.5C 65.4668,55.9029 66.4668,56.9029 66.5,59.5 Z"/></g>
<g><path style="opacity:1" fill="#eaa3a3" d="M 71.5,66.5 C 72.1667,66.5 72.5,66.8333 72.5,67.5C 72.6775,68.6948 73.0109,69.8615 73.5,71C 73.0704,71.9654 72.4037,72.4654 71.5,72.5C 70.448,72.6495 69.448,72.4828 68.5,72C 70.2552,71.2801 71.0885,70.1134 71,68.5C 69.119,67.6456 67.2857,67.9789 65.5,69.5C 64.3296,68.3061 64.663,67.6395 66.5,67.5C 67.5,67.1667 68.1667,66.5 68.5,65.5C 69.1174,65.3893 69.6174,65.056 70,64.5C 70.2784,65.4158 70.7784,66.0825 71.5,66.5 Z"/></g>
<g><path style="opacity:1" fill="#a33b37" d="M 60.5,60.5 C 61.3171,62.9686 61.8171,65.6353 62,68.5C 62.49,67.2068 62.6567,65.8734 62.5,64.5C 63.8717,65.5116 65.205,66.5116 66.5,67.5C 64.663,67.6395 64.3296,68.3061 65.5,69.5C 67.2857,67.9789 69.119,67.6456 71,68.5C 71.0885,70.1134 70.2552,71.2801 68.5,72C 69.448,72.4828 70.448,72.6495 71.5,72.5C 69.5439,73.4918 67.5439,74.4918 65.5,75.5C 65.9528,74.5416 66.6195,73.7083 67.5,73C 67.1667,72.8333 66.8333,72.6667 66.5,72.5C 64.4659,72.7721 62.4659,73.1054 60.5,73.5C 57.7335,72.0331 54.7335,71.1997 51.5,71C 52.4162,70.6258 53.2496,70.1258 54,69.5C 56.6667,70.1667 59.3333,70.8333 62,71.5C 62.5,71 63,70.5 63.5,70C 60.3248,70.0533 57.6581,69.22 55.5,67.5C 59.8004,67.1847 61.467,64.8514 60.5,60.5 Z"/></g>
<g><path style="opacity:1" fill="#ed9494" d="M 55.5,67.5 C 57.6581,69.22 60.3248,70.0533 63.5,70C 63,70.5 62.5,71 62,71.5C 59.3333,70.8333 56.6667,70.1667 54,69.5C 53.2496,70.1258 52.4162,70.6258 51.5,71C 54.7335,71.1997 57.7335,72.0331 60.5,73.5C 62.4659,73.1054 64.4659,72.7721 66.5,72.5C 66.8333,72.6667 67.1667,72.8333 67.5,73C 66.6195,73.7083 65.9528,74.5416 65.5,75.5C 64.8485,76.0906 64.1818,76.7573 63.5,77.5C 59.3282,75.4736 58.6616,75.1402 61.5,76.5C 61.0769,79.2882 62.0769,81.2882 64.5,82.5C 66.7447,80.2395 69.4114,78.9062 72.5,78.5C 72.1667,79.1667 71.8333,79.8333 71.5,80.5C 70.1007,81.8897 68.4341,82.8897 66.5,83.5C 53.0487,83.2967 39.7153,83.2967 26.5,83.5C 25.2921,82.7659 23.9587,82.4326 22.5,82.5C 21.6314,80.283 21.298,77.9496 21.5,75.5C 22.4511,76.9187 22.7845,78.5853 22.5,80.5C 25.8663,80.7878 29.1996,80.9545 32.5,81C 30.3766,79.8063 28.0432,79.1397 25.5,79C 30.3965,77.9399 30.0632,76.7732 24.5,75.5C 25.6034,75.0024 26.6034,74.6691 27.5,74.5C 25.9936,73.2528 24.4936,73.2528 23,74.5C 22.5172,73.552 22.3505,72.552 22.5,71.5C 25.0442,70.2921 26.3775,68.2921 26.5,65.5C 28.7548,67.2229 31.0881,68.0562 33.5,68C 30.3669,67.9539 27.7002,68.9539 25.5,71C 27.1341,71.4935 28.8008,71.6602 30.5,71.5C 33.7625,73.6464 33.7625,75.1464 30.5,76C 31.8419,78.8916 34.1752,80.2249 37.5,80C 36.5,80.3333 35.5,80.6667 34.5,81C 37.8333,81.6667 41.1667,81.6667 44.5,81C 42.8333,80.6667 41.1667,80.3333 39.5,80C 42.8225,79.8176 45.1558,78.9842 46.5,77.5C 46.67,78.8221 46.3366,79.9887 45.5,81C 50.4107,82.4924 55.4107,82.8257 60.5,82C 59.737,81.0565 58.737,80.5565 57.5,80.5C 55.5269,81.3311 53.5269,81.4978 51.5,81C 52.727,79.4126 52.3937,78.0793 50.5,77C 51.3081,76.6924 51.9747,76.1924 52.5,75.5C 50.187,74.7267 47.8537,74.0601 45.5,73.5C 44.5224,73.9767 43.6891,74.6433 43,75.5C 39.5862,74.2103 36.7529,73.2103 34.5,72.5C 35.8304,71.1679 37.4971,70.3345 39.5,70C 38.1667,69.6667 36.8333,69.3333 35.5,69C 36.8646,67.3181 38.3646,67.1514 40,68.5C 40.4643,67.9056 40.631,67.2389 40.5,66.5C 41.2389,66.631 41.9056,66.4643 42.5,66C 40.5448,65.0467 38.8782,63.7134 37.5,62C 39.3867,61.8374 40.8867,62.6707 42,64.5C 42.7247,63.9415 43.5581,63.6082 44.5,63.5C 46.3822,64.5314 48.3822,65.3647 50.5,66C 49.5,66.3333 48.5,66.6667 47.5,67C 49.764,67.2362 51.9307,67.7362 54,68.5C 54.3826,67.944 54.8826,67.6107 55.5,67.5 Z"/></g>
<g><path style="opacity:0.694" fill="#370e0c" d="M 25.5,63.5 C 26.3382,63.8417 26.6716,64.5084 26.5,65.5C 26.3775,68.2921 25.0442,70.2921 22.5,71.5C 21.5655,72.5676 21.2322,73.901 21.5,75.5C 21.298,77.9496 21.6314,80.283 22.5,82.5C 19.4178,76.9905 20.2511,71.9905 25,67.5C 25.49,66.2068 25.6567,64.8734 25.5,63.5 Z"/></g>
<g><path style="opacity:1" fill="#e77776" d="M 30.5,71.5 C 32.099,71.2322 33.4324,71.5655 34.5,72.5C 36.7529,73.2103 39.5862,74.2103 43,75.5C 43.6891,74.6433 44.5224,73.9767 45.5,73.5C 47.8537,74.0601 50.187,74.7267 52.5,75.5C 51.9747,76.1924 51.3081,76.6924 50.5,77C 52.3937,78.0793 52.727,79.4126 51.5,81C 53.5269,81.4978 55.5269,81.3311 57.5,80.5C 58.737,80.5565 59.737,81.0565 60.5,82C 55.4107,82.8257 50.4107,82.4924 45.5,81C 46.3366,79.9887 46.67,78.8221 46.5,77.5C 45.1558,78.9842 42.8225,79.8176 39.5,80C 41.1667,80.3333 42.8333,80.6667 44.5,81C 41.1667,81.6667 37.8333,81.6667 34.5,81C 35.5,80.6667 36.5,80.3333 37.5,80C 34.1752,80.2249 31.8419,78.8916 30.5,76C 33.7625,75.1464 33.7625,73.6464 30.5,71.5 Z"/></g>
<g><path style="opacity:1" fill="#da6260" d="M 22.5,71.5 C 22.3505,72.552 22.5172,73.552 23,74.5C 24.4936,73.2528 25.9936,73.2528 27.5,74.5C 26.6034,74.6691 25.6034,75.0024 24.5,75.5C 30.0632,76.7732 30.3965,77.9399 25.5,79C 28.0432,79.1397 30.3766,79.8063 32.5,81C 29.1996,80.9545 25.8663,80.7878 22.5,80.5C 22.7845,78.5853 22.4511,76.9187 21.5,75.5C 21.2322,73.901 21.5655,72.5676 22.5,71.5 Z"/></g>
<g><path style="opacity:1" fill="#d75552" d="M 72.5,67.5 C 73.1174,67.6107 73.6174,67.944 74,68.5C 74.4974,71.146 74.6641,73.8127 74.5,76.5C 73.5,76.8333 72.8333,77.5 72.5,78.5C 69.4114,78.9062 66.7447,80.2395 64.5,82.5C 62.0769,81.2882 61.0769,79.2882 61.5,76.5C 58.6616,75.1402 59.3282,75.4736 63.5,77.5C 64.1818,76.7573 64.8485,76.0906 65.5,75.5C 67.5439,74.4918 69.5439,73.4918 71.5,72.5C 72.4037,72.4654 73.0704,71.9654 73.5,71C 73.0109,69.8615 72.6775,68.6948 72.5,67.5 Z"/></g>
<g><path style="opacity:0.886" fill="#785251" d="M 74.5,76.5 C 74.9118,78.9726 73.9118,80.3059 71.5,80.5C 71.8333,79.8333 72.1667,79.1667 72.5,78.5C 72.8333,77.5 73.5,76.8333 74.5,76.5 Z"/></g>
<g><path style="opacity:0.651" fill="#722b28" d="M 26.5,83.5 C 39.7153,83.2967 53.0487,83.2967 66.5,83.5C 66.3893,84.1174 66.056,84.6174 65.5,85C 63.1667,85.1667 60.8333,85.3333 58.5,85.5C 47.8635,84.3029 37.1969,83.6362 26.5,83.5 Z"/></g>
</svg>
