<?xml version="1.0" encoding="UTF-8"?>
<!DOCTYPE svg PUBLIC "-//W3C//DTD SVG 1.1//EN" "http://www.w3.org/Graphics/SVG/1.1/DTD/svg11.dtd">
<svg xmlns="http://www.w3.org/2000/svg" version="1.1" width="96px" height="96px" style="shape-rendering:geometricPrecision; text-rendering:geometricPrecision; image-rendering:optimizeQuality; fill-rule:evenodd; clip-rule:evenodd" xmlns:xlink="http://www.w3.org/1999/xlink">
<g><path style="opacity:1" fill="#15162a" d="M -0.5,-0.5 C 31.5,-0.5 63.5,-0.5 95.5,-0.5C 95.5,31.5 95.5,63.5 95.5,95.5C 63.5,95.5 31.5,95.5 -0.5,95.5C -0.5,63.5 -0.5,31.5 -0.5,-0.5 Z"/></g>
<g><path style="opacity:1" fill="#d0d1d5" d="M 44.5,3.5 C 46.604,3.2011 48.604,3.53443 50.5,4.5C 49.5,4.83333 48.5,5.16667 47.5,5.5C 45.9704,5.36015 44.9704,4.69348 44.5,3.5 Z"/></g>
<g><path style="opacity:1" fill="#d39a38" d="M 23.5,4.5 C 25.3547,4.27203 26.1881,4.9387 26,6.5C 23.1924,7.8596 22.3591,7.19294 23.5,4.5 Z"/></g>
<g><path style="opacity:1" fill="#e7833f" d="M 70.5,5.5 C 72.1033,5.31181 73.4366,5.81181 74.5,7C 72.5372,7.84421 71.2039,7.34421 70.5,5.5 Z"/></g>
<g><path style="opacity:1" fill="#eba13a" d="M 26.5,10.5 C 28.1667,10.5 29.8333,10.5 31.5,10.5C 30.7446,15.5955 28.4113,16.5955 24.5,13.5C 25.1925,12.4822 25.8592,11.4822 26.5,10.5 Z"/></g>
<g><path style="opacity:1" fill="#ecedee" d="M 45.5,10.5 C 49.3773,10.231 51.5439,11.8977 52,15.5C 48.4566,18.3802 45.2899,18.0468 42.5,14.5C 43.5244,13.1482 44.5244,11.8149 45.5,10.5 Z"/></g>
<g><path style="opacity:1" fill="#e47e3e" d="M 65.5,10.5 C 69.509,10.0136 71.3423,11.6803 71,15.5C 68.9555,16.772 67.1222,16.4386 65.5,14.5C 64.3744,13.1916 64.3744,11.8583 65.5,10.5 Z"/></g>
<g><path style="opacity:1" fill="#dd743d" d="M 8.5,18.5 C 9.5,18.5 10.5,18.5 11.5,18.5C 11.9783,21.2776 10.9783,23.2776 8.5,24.5C 6.00065,22.6045 6.00065,20.6045 8.5,18.5 Z"/></g>
<g><path style="opacity:1" fill="#de5a3a" d="M 85.5,20.5 C 88.7756,21.1216 90.1089,23.1216 89.5,26.5C 85.9319,26.2407 84.5985,24.2407 85.5,20.5 Z"/></g>
<g><path style="opacity:1" fill="#eb783d" d="M 18.5,23.5 C 23.8293,24.6153 24.8293,27.4486 21.5,32C 16.3333,33.5 14.5,31.6667 16,26.5C 17.045,25.6266 17.8783,24.6266 18.5,23.5 Z"/></g>
<g><path style="opacity:1" fill="#ec623b" d="M 74.5,25.5 C 80.2641,25.8596 81.9308,28.6929 79.5,34C 72.9459,33.9566 71.2793,31.1233 74.5,25.5 Z"/></g>
<g><path style="opacity:1" fill="#ed7e3e" d="M 33.5,22.5 C 37.8394,21.8461 41.6727,22.8461 45,25.5C 47.3665,29.9991 46.5332,33.8324 42.5,37C 32.8984,40.0686 28.7317,36.5686 30,26.5C 31.3756,25.2949 32.5423,23.9616 33.5,22.5 Z"/></g>
<g><path style="opacity:1" fill="#ee733d" d="M 52.5,22.5 C 62.2104,21.046 66.3771,25.046 65,34.5C 60,39.8333 55,39.8333 50,34.5C 47.6957,29.8553 48.529,25.8553 52.5,22.5 Z"/></g>
<g><path style="opacity:1" fill="#ed593b" d="M 65.5,39.5 C 74.1358,39.653 77.3025,43.9863 75,52.5C 70.3333,57.8333 65.6667,57.8333 61,52.5C 59.3794,46.9227 60.8794,42.5894 65.5,39.5 Z"/></g>
<g><path style="opacity:1" fill="#ed603b" d="M 23.5,39.5 C 32.6493,39.1562 36.1493,43.4896 34,52.5C 29.2391,57.8119 24.5724,57.8119 20,52.5C 18.5394,47.3265 19.7061,42.9932 23.5,39.5 Z"/></g>
<g><path style="opacity:1" fill="#dfe0e2" d="M 7.5,43.5 C 9.72239,43.5587 10.7224,44.7253 10.5,47C 10.7186,48.9713 9.88526,50.1379 8,50.5C 4.8801,48.5327 4.71344,46.1993 7.5,43.5 Z"/></g>
<g><path style="opacity:1" fill="#dedee1" d="M 85.5,43.5 C 90.3414,45.5439 90.6747,48.2105 86.5,51.5C 84.2322,49.0898 83.8989,46.4231 85.5,43.5 Z"/></g>
<g><path style="opacity:1" fill="#bcbdc2" d="M 0.5,45.5 C 1.58617,45.62 2.25284,46.2867 2.5,47.5C 2.16667,48.1667 1.83333,48.8333 1.5,49.5C 0.571312,48.3112 0.237978,46.9778 0.5,45.5 Z"/></g>
<g><path style="opacity:1" fill="#c7c7cc" d="M 92.5,45.5 C 93.5862,45.62 94.2528,46.2867 94.5,47.5C 94.1667,48.1667 93.8333,48.8333 93.5,49.5C 92.5713,48.3112 92.238,46.9778 92.5,45.5 Z"/></g>
<g><path style="opacity:1" fill="#e84c3a" d="M 33.5,56.5 C 40.5471,55.3485 44.8804,58.1819 46.5,65C 45.8621,69.9704 43.0288,72.4704 38,72.5C 30.8749,71.602 28.2083,67.602 30,60.5C 31.3756,59.2949 32.5423,57.9616 33.5,56.5 Z"/></g>
<g><path style="opacity:1" fill="#e9483a" d="M 54.5,56.5 C 62.709,55.8724 66.209,59.5391 65,67.5C 62.4586,72.0685 58.6253,73.5685 53.5,72C 46.7544,66.5122 47.0878,61.3456 54.5,56.5 Z"/></g>
<g><path style="opacity:1" fill="#e6483a" d="M 16.5,59.5 C 21.7722,60.2635 23.4389,63.0968 21.5,68C 14.4159,68.475 12.7492,65.6417 16.5,59.5 Z"/></g>
<g><path style="opacity:1" fill="#e83f3a" d="M 74.5,61.5 C 79.159,61.8108 80.4923,64.1441 78.5,68.5C 75.1425,71.5755 72.8091,71.0755 71.5,67C 71.8627,64.8077 72.8627,62.9744 74.5,61.5 Z"/></g>
<g><path style="opacity:1" fill="#e93f3a" d="M 5.5,67.5 C 9.17023,68.1926 10.1702,70.1926 8.5,73.5C 6.02166,72.2776 5.02166,70.2776 5.5,67.5 Z"/></g>
<g><path style="opacity:1" fill="#e83f3a" d="M 85.5,70.5 C 86.5,70.5 87.5,70.5 88.5,70.5C 88.5,73.8333 86.8333,75.5 83.5,75.5C 83.3915,73.4862 84.0582,71.8195 85.5,70.5 Z"/></g>
<g><path style="opacity:1" fill="#e5e5e7" d="M 44.5,76.5 C 46.5273,76.3379 48.5273,76.5045 50.5,77C 53.1667,79 53.1667,81 50.5,83C 43.7613,84.4466 41.7613,82.2799 44.5,76.5 Z"/></g>
<g><path style="opacity:1" fill="#da3c39" d="M 24.5,78.5 C 28.509,78.0136 30.3423,79.6803 30,83.5C 27.0118,84.7442 24.8452,83.7442 23.5,80.5C 23.8627,79.8165 24.1961,79.1499 24.5,78.5 Z"/></g>
<g><path style="opacity:1" fill="#e23d39" d="M 65.5,79.5 C 70.2442,79.0384 71.2442,80.5384 68.5,84C 63.5219,84.8641 62.5219,83.3641 65.5,79.5 Z"/></g>
<g><path style="opacity:1" fill="#e43e3a" d="M 69.5,87.5 C 70.675,87.281 71.675,87.6143 72.5,88.5C 71.277,89.6139 69.9437,89.7805 68.5,89C 69.056,88.6174 69.3893,88.1174 69.5,87.5 Z"/></g>
<g><path style="opacity:1" fill="#b63637" d="M 20.5,86.5 C 22.4835,86.3832 24.1502,87.0499 25.5,88.5C 23.0695,89.7856 21.4028,89.119 20.5,86.5 Z"/></g>
<g><path style="opacity:1" fill="#bbbcc1" d="M 45.5,88.5 C 47.4286,88.2308 49.0953,88.7308 50.5,90C 49.0696,91.4404 47.403,91.7737 45.5,91C 44.4019,90.2303 44.4019,89.397 45.5,88.5 Z"/></g>
</svg>
