<?xml version="1.0" encoding="UTF-8"?>
<!DOCTYPE svg PUBLIC "-//W3C//DTD SVG 1.1//EN" "http://www.w3.org/Graphics/SVG/1.1/DTD/svg11.dtd">
<svg xmlns="http://www.w3.org/2000/svg" version="1.1" width="96px" height="96px" style="shape-rendering:geometricPrecision; text-rendering:geometricPrecision; image-rendering:optimizeQuality; fill-rule:evenodd; clip-rule:evenodd" xmlns:xlink="http://www.w3.org/1999/xlink">
<g><path style="opacity:1" fill="#a057d1" d="M 63.5,18.5 C 63.631,19.2389 63.4643,19.9056 63,20.5C 61.2298,18.5819 59.0631,18.0819 56.5,19C 57.8398,21.1785 57.5065,21.6785 55.5,20.5C 50.5956,14.2418 45.2622,13.9085 39.5,19.5C 38.7784,19.0825 38.2784,18.4158 38,17.5C 35.6877,17.9551 33.6877,18.9551 32,20.5C 31.5357,19.9056 31.369,19.2389 31.5,18.5C 34.2083,11.1387 39.5416,7.13871 47.5,6.5C 55.4584,7.13871 60.7917,11.1387 63.5,18.5 Z"/></g>
<g><path style="opacity:0.969" fill="#ab54ca" d="M 63.5,18.5 C 65.428,20.4741 67.7613,21.9741 70.5,23C 72.7899,24.7772 74.4566,26.9438 75.5,29.5C 71.9978,28.0425 68.3312,27.0425 64.5,26.5C 58.722,27.4627 53.0553,27.4627 47.5,26.5C 49.8838,24.1153 52.5505,22.1153 55.5,20.5C 57.5065,21.6785 57.8398,21.1785 56.5,19C 59.0631,18.0819 61.2298,18.5819 63,20.5C 63.4643,19.9056 63.631,19.2389 63.5,18.5 Z"/></g>
<g><path style="opacity:1" fill="#ab54ca" d="M 39.5,19.5 C 38.9396,21.8008 38.4396,24.1341 38,26.5C 36.8904,28.0368 35.3904,28.7035 33.5,28.5C 29.9488,27.3904 26.4488,27.3904 23,28.5C 22.2828,27.9558 21.7828,27.2891 21.5,26.5C 24.5434,23.3317 27.8768,20.6651 31.5,18.5C 31.369,19.2389 31.5357,19.9056 32,20.5C 33.6877,18.9551 35.6877,17.9551 38,17.5C 38.2784,18.4158 38.7784,19.0825 39.5,19.5 Z"/></g>
<g><path style="opacity:0.994" fill="#b252c6" d="M 47.5,26.5 C 53.0553,27.4627 58.722,27.4627 64.5,26.5C 68.3312,27.0425 71.9978,28.0425 75.5,29.5C 76.1667,29.5 76.5,29.8333 76.5,30.5C 75.8478,31.7251 74.6811,32.3917 73,32.5C 71.1216,32.3038 69.2883,31.9705 67.5,31.5C 61.4979,27.2749 56.4979,28.2749 52.5,34.5C 50.0115,33.312 47.6782,31.9787 45.5,30.5C 45.7329,28.9382 46.3995,27.6049 47.5,26.5 Z"/></g>
<g><path style="opacity:1" fill="#b651c3" d="M 21.5,26.5 C 21.7828,27.2891 22.2828,27.9558 23,28.5C 26.4488,27.3904 29.9488,27.3904 33.5,28.5C 29.2355,29.4308 26.5689,32.0974 25.5,36.5C 24.6009,37.4715 23.4343,38.1382 22,38.5C 20.0281,37.5732 18.1947,37.2399 16.5,37.5C 16.8457,33.1476 18.5124,29.4809 21.5,26.5 Z"/></g>
<g><path style="opacity:1" fill="#b951c2" d="M 45.5,30.5 C 47.6782,31.9787 50.0115,33.312 52.5,34.5C 51.8505,36.4352 51.5172,38.4352 51.5,40.5C 49.9028,39.9095 48.5695,38.9095 47.5,37.5C 46.4718,39.5803 45.1385,39.9136 43.5,38.5C 43.1107,35.4467 43.7773,32.78 45.5,30.5 Z"/></g>
<g><path style="opacity:1" fill="#ba50c0" d="M 76.5,30.5 C 78.5691,34.0437 78.9024,37.7104 77.5,41.5C 75.2073,42.5605 72.5406,42.5605 69.5,41.5C 69.8476,37.9153 69.181,34.582 67.5,31.5C 69.2883,31.9705 71.1216,32.3038 73,32.5C 74.6811,32.3917 75.8478,31.7251 76.5,30.5 Z"/></g>
<g><path style="opacity:1" fill="#bf4fbe" d="M 25.5,36.5 C 25.2826,39.4206 25.9493,42.0872 27.5,44.5C 24.4648,43.2665 21.4648,43.2665 18.5,44.5C 17.0762,42.4855 16.4095,40.1522 16.5,37.5C 18.1947,37.2399 20.0281,37.5732 22,38.5C 23.4343,38.1382 24.6009,37.4715 25.5,36.5 Z"/></g>
<g><path style="opacity:1" fill="#c34ebb" d="M 51.5,40.5 C 51.2927,43.2406 50.2927,45.5739 48.5,47.5C 47.6261,46.4749 46.4595,45.8082 45,45.5C 42.7561,45.9051 40.5894,46.2384 38.5,46.5C 40.9895,44.3446 42.6561,41.678 43.5,38.5C 45.1385,39.9136 46.4718,39.5803 47.5,37.5C 48.5695,38.9095 49.9028,39.9095 51.5,40.5 Z"/></g>
<g><path style="opacity:0.976" fill="#c74eb9" d="M 77.5,41.5 C 77.2927,44.2406 76.2927,46.5739 74.5,48.5C 69.5756,48.7902 64.909,48.4569 60.5,47.5C 64.3183,46.7555 67.3183,44.7555 69.5,41.5C 72.5406,42.5605 75.2073,42.5605 77.5,41.5 Z"/></g>
<g><path style="opacity:1" fill="#cd4cb5" d="M 27.5,44.5 C 30.9196,46.2221 34.5863,46.8887 38.5,46.5C 40.5894,46.2384 42.7561,45.9051 45,45.5C 46.4595,45.8082 47.6261,46.4749 48.5,47.5C 47.1667,49.5 45.5,51.1667 43.5,52.5C 36.5469,51.7562 29.5469,51.0896 22.5,50.5C 20.1782,49.1979 18.8449,47.1979 18.5,44.5C 21.4648,43.2665 24.4648,43.2665 27.5,44.5 Z"/></g>
<g><path style="opacity:1" fill="#d04cb3" d="M 60.5,47.5 C 64.909,48.4569 69.5756,48.7902 74.5,48.5C 74.1667,49.5 73.5,50.1667 72.5,50.5C 67.1529,51.7752 61.8195,51.7752 56.5,50.5C 57.2623,48.7376 58.5956,47.7376 60.5,47.5 Z"/></g>
<g><path style="opacity:0.896" fill="#d94aaf" d="M 22.5,50.5 C 29.5469,51.0896 36.5469,51.7562 43.5,52.5C 36.0209,56.9654 29.0209,56.2987 22.5,50.5 Z"/></g>
<g><path style="opacity:0.997" fill="#d94aae" d="M 56.5,50.5 C 61.8195,51.7752 67.1529,51.7752 72.5,50.5C 69.9875,52.9257 66.9875,54.5924 63.5,55.5C 60.7212,55.7214 58.0545,55.388 55.5,54.5C 55.4326,53.0413 55.7659,51.7079 56.5,50.5 Z"/></g>
<g><path style="opacity:1" fill="#e647a7" d="M 55.5,54.5 C 58.0545,55.388 60.7212,55.7214 63.5,55.5C 62.7362,58.0177 61.7362,60.351 60.5,62.5C 60.5,61.5 60.5,60.5 60.5,59.5C 57.9592,59.8499 55.6258,59.8499 53.5,59.5C 53.4021,57.4471 54.0687,55.7804 55.5,54.5 Z"/></g>
<g><path style="opacity:1" fill="#f7449c" d="M 53.5,59.5 C 55.6258,59.8499 57.9592,59.8499 60.5,59.5C 60.5,60.5 60.5,61.5 60.5,62.5C 57.6337,70.5952 54.467,78.5952 51,86.5C 48.7779,89.0443 46.6112,89.0443 44.5,86.5C 40.8916,78.9501 37.5582,71.2834 34.5,63.5C 35.5388,59.8507 37.8721,58.684 41.5,60C 43.8546,64.0599 46.0213,68.2266 48,72.5C 49.334,67.8461 51.1673,63.5128 53.5,59.5 Z"/></g>
</svg>
