<?xml version="1.0" encoding="UTF-8"?>
<!DOCTYPE svg PUBLIC "-//W3C//DTD SVG 1.1//EN" "http://www.w3.org/Graphics/SVG/1.1/DTD/svg11.dtd">
<svg xmlns="http://www.w3.org/2000/svg" version="1.1" width="96px" height="96px" style="shape-rendering:geometricPrecision; text-rendering:geometricPrecision; image-rendering:optimizeQuality; fill-rule:evenodd; clip-rule:evenodd" xmlns:xlink="http://www.w3.org/1999/xlink">
<g><path style="opacity:0.914" fill="#80bd00" d="M 92.5,3.5 C 94.3442,23.4456 89.5108,42.1123 78,59.5C 63.899,75.0636 47.0656,78.7303 27.5,70.5C 20.4918,71.2539 14.6585,74.2539 10,79.5C 6.92092,83.3244 4.08759,87.3244 1.5,91.5C 0.348268,88.8938 0.181601,86.2272 1,83.5C 5.25839,74.906 12.0917,69.7393 21.5,68C 27.1667,67.6667 32.8333,67.3333 38.5,67C 35.1832,66.5017 31.8499,66.335 28.5,66.5C 26.1925,49.6154 32.8591,37.7821 48.5,31C 63.2146,28.4373 76.3813,22.604 88,13.5C 90.324,10.5201 91.824,7.18674 92.5,3.5 Z"/></g>
</svg>
