<?xml version="1.0" encoding="UTF-8"?>
<!DOCTYPE svg PUBLIC "-//W3C//DTD SVG 1.1//EN" "http://www.w3.org/Graphics/SVG/1.1/DTD/svg11.dtd">
<svg xmlns="http://www.w3.org/2000/svg" version="1.1" width="96px" height="96px" style="shape-rendering:geometricPrecision; text-rendering:geometricPrecision; image-rendering:optimizeQuality; fill-rule:evenodd; clip-rule:evenodd" xmlns:xlink="http://www.w3.org/1999/xlink">
<g><path style="opacity:0.992" fill="#fcfafe" d="M -0.5,-0.5 C 12.1667,-0.5 24.8333,-0.5 37.5,-0.5C 23.4657,3.60821 12.6323,11.9415 5,24.5C 3.1089,28.9327 1.27556,33.266 -0.5,37.5C -0.5,24.8333 -0.5,12.1667 -0.5,-0.5 Z"/></g>
<g><path style="opacity:1" fill="#6b40e8" d="M 37.5,-0.5 C 43.1667,-0.5 48.8333,-0.5 54.5,-0.5C 76.7157,4.04878 90.3823,17.3821 95.5,39.5C 95.5,44.5 95.5,49.5 95.5,54.5C 90.9512,76.7157 77.6179,90.3823 55.5,95.5C 50.1667,95.5 44.8333,95.5 39.5,95.5C 17.3821,90.3823 4.04878,76.7157 -0.5,54.5C -0.5,48.8333 -0.5,43.1667 -0.5,37.5C 1.27556,33.266 3.1089,28.9327 5,24.5C 12.6323,11.9415 23.4657,3.60821 37.5,-0.5 Z"/></g>
<g><path style="opacity:0.992" fill="#fbfafe" d="M 54.5,-0.5 C 68.1667,-0.5 81.8333,-0.5 95.5,-0.5C 95.5,12.8333 95.5,26.1667 95.5,39.5C 90.3823,17.3821 76.7157,4.04878 54.5,-0.5 Z"/></g>
<g><path style="opacity:1" fill="#f7d423" d="M 70.5,21.5 C 71.5,21.5 72.5,21.5 73.5,21.5C 72.736,24.787 70.9027,27.4537 68,29.5C 67.3665,36.0434 63.8665,38.3767 57.5,36.5C 58.1454,33.7717 58.9787,31.1051 60,28.5C 64.6841,27.9888 68.1841,25.6555 70.5,21.5 Z"/></g>
<g><path style="opacity:1" fill="#f6ce24" d="M 55.5,22.5 C 56.5,22.5 57.5,22.5 58.5,22.5C 57.3782,25.979 55.3782,28.979 52.5,31.5C 54.6321,36.9446 53.2988,41.278 48.5,44.5C 46.2497,41.1649 45.4164,37.4982 46,33.5C 49.0024,29.6662 52.1691,25.9995 55.5,22.5 Z"/></g>
<g><path style="opacity:1" fill="#f7c623" d="M 40.5,37.5 C 41.7498,37.5774 42.5831,38.244 43,39.5C 44.1244,42.4424 44.4577,45.4424 44,48.5C 41.9824,50.3501 40.1491,52.3501 38.5,54.5C 33.9757,48.1434 34.6424,42.4767 40.5,37.5 Z"/></g>
<g><path style="opacity:1" fill="#f4cd29" d="M 69.5,36.5 C 70.5,36.5 71.5,36.5 72.5,36.5C 70.393,43.6075 65.7263,47.9409 58.5,49.5C 48.5188,49.3559 47.8521,46.8559 56.5,42C 59.2356,41.5783 61.9023,41.5783 64.5,42C 66.3734,40.2962 68.0401,38.4628 69.5,36.5 Z"/></g>
<g><path style="opacity:1" fill="#f5c026" d="M 30.5,47.5 C 36.3913,53.5081 35.7247,58.8415 28.5,63.5C 24.1009,57.5033 24.7675,52.17 30.5,47.5 Z"/></g>
<g><path style="opacity:1" fill="#f7c721" d="M 45.5,51.5 C 48.1873,51.3359 50.854,51.5026 53.5,52C 55.2861,52.1962 56.6195,53.0295 57.5,54.5C 52.7064,60.2096 47.0398,61.0429 40.5,57C 42.3734,55.2962 44.0401,53.4628 45.5,51.5 Z"/></g>
<g><path style="opacity:0.992" fill="#fbfafe" d="M -0.5,54.5 C 4.04878,76.7157 17.3821,90.3823 39.5,95.5C 26.1667,95.5 12.8333,95.5 -0.5,95.5C -0.5,81.8333 -0.5,68.1667 -0.5,54.5 Z"/></g>
<g><path style="opacity:0.992" fill="#fbfafe" d="M 95.5,54.5 C 95.5,68.1667 95.5,81.8333 95.5,95.5C 82.1667,95.5 68.8333,95.5 55.5,95.5C 77.6179,90.3823 90.9512,76.7157 95.5,54.5 Z"/></g>
<g><path style="opacity:1" fill="#f6c123" d="M 37.5,60.5 C 40.8333,61.1667 44.1667,61.8333 47.5,62.5C 45.6124,68.8593 41.4457,70.8593 35,68.5C 32.8876,69.608 31.0542,71.108 29.5,73C 28.552,73.4828 27.552,73.6495 26.5,73.5C 29.0395,68.2873 32.7062,63.954 37.5,60.5 Z"/></g>
</svg>
