<?xml version="1.0" encoding="UTF-8"?>
<!DOCTYPE svg PUBLIC "-//W3C//DTD SVG 1.1//EN" "http://www.w3.org/Graphics/SVG/1.1/DTD/svg11.dtd">
<svg xmlns="http://www.w3.org/2000/svg" version="1.1" width="96px" height="96px" style="shape-rendering:geometricPrecision; text-rendering:geometricPrecision; image-rendering:optimizeQuality; fill-rule:evenodd; clip-rule:evenodd" xmlns:xlink="http://www.w3.org/1999/xlink">
<g><path style="opacity:0.965" fill="#f8dfe0" d="M 37.5,-0.5 C 44.1667,-0.5 50.8333,-0.5 57.5,-0.5C 77.193,5.193 89.8597,17.8597 95.5,37.5C 95.5,44.1667 95.5,50.8333 95.5,57.5C 89.9388,76.7283 77.6055,89.3949 58.5,95.5C 51.5,95.5 44.5,95.5 37.5,95.5C 17.8597,89.8597 5.193,77.193 -0.5,57.5C -0.5,50.8333 -0.5,44.1667 -0.5,37.5C 5.16667,17.8333 17.8333,5.16667 37.5,-0.5 Z"/></g>
<g><path style="opacity:1" fill="#f8b6b7" d="M 37.5,25.5 C 35.9038,28.8113 34.5705,32.3113 33.5,36C 29.9735,36.6898 26.6402,36.1898 23.5,34.5C 22.019,33.5788 20.6856,32.4121 19.5,31C 23.1253,27.2306 27.4587,24.3973 32.5,22.5C 34.3575,23.2665 36.0242,24.2665 37.5,25.5 Z"/></g>
<g><path style="opacity:1" fill="#f699a1" d="M 58.5,25.5 C 59.6972,29.0946 60.6972,32.7612 61.5,36.5C 65.3186,36.586 68.9852,35.9193 72.5,34.5C 79.4843,44.2732 80.3177,54.6066 75,65.5C 72.1078,68.0574 68.9411,70.224 65.5,72C 53.4506,76.5397 41.4506,76.5397 29.5,72C 18.5264,66.8856 14.3598,58.3856 17,46.5C 18.4021,42.0252 20.5688,38.0252 23.5,34.5C 26.6402,36.1898 29.9735,36.6898 33.5,36C 34.5705,32.3113 35.9038,28.8113 37.5,25.5C 44.5,24.1667 51.5,24.1667 58.5,25.5 Z"/></g>
<g><path style="opacity:1" fill="#f8b6b7" d="M 72.5,34.5 C 68.9852,35.9193 65.3186,36.586 61.5,36.5C 60.6972,32.7612 59.6972,29.0946 58.5,25.5C 59.8566,24.3146 61.3566,23.3146 63,22.5C 66.4054,24.4533 69.9054,26.2866 73.5,28C 76.223,30.6587 75.8897,32.8253 72.5,34.5 Z"/></g>
<g><path style="opacity:1" fill="#fbf6f6" d="M 29.5,47.5 C 35.8302,46.6662 38.6635,49.3329 38,55.5C 34.3333,59.5 30.6667,59.5 27,55.5C 26.0182,52.2253 26.8515,49.5586 29.5,47.5 Z"/></g>
<g><path style="opacity:1" fill="#fdf7f7" d="M 59.5,47.5 C 67.8038,47.2779 70.1372,50.7779 66.5,58C 56.9771,59.0004 54.6438,55.5004 59.5,47.5 Z"/></g>
<g><path style="opacity:1" fill="#5a2424" d="M 59.5,51.5 C 62.9571,51.6672 63.2904,52.6672 60.5,54.5C 59.6143,53.675 59.281,52.675 59.5,51.5 Z"/></g>
<g><path style="opacity:1" fill="#4a1115" d="M 33.5,51.5 C 35.4646,51.9483 35.7979,52.9483 34.5,54.5C 33.6143,53.675 33.281,52.675 33.5,51.5 Z"/></g>
<g><path style="opacity:1" fill="#f7b8b9" d="M 42.5,55.5 C 48.3275,54.4973 53.1608,56.164 57,60.5C 57.8311,67.5045 54.6644,70.8378 47.5,70.5C 40.0142,70.5081 37.1809,66.8414 39,59.5C 40.3756,58.2949 41.5423,56.9616 42.5,55.5 Z"/></g>
<g><path style="opacity:1" fill="#5a2324" d="M 43.5,59.5 C 46.0838,60.0483 47.0838,61.715 46.5,64.5C 45.5,64.5 44.5,64.5 43.5,64.5C 43.5,62.8333 43.5,61.1667 43.5,59.5 Z"/></g>
<g><path style="opacity:1" fill="#5a2323" d="M 49.5,59.5 C 52.0838,60.0483 53.0838,61.715 52.5,64.5C 51.5,64.5 50.5,64.5 49.5,64.5C 49.5,62.8333 49.5,61.1667 49.5,59.5 Z"/></g>
</svg>
