<?xml version="1.0" encoding="UTF-8"?>
<!DOCTYPE svg PUBLIC "-//W3C//DTD SVG 1.1//EN" "http://www.w3.org/Graphics/SVG/1.1/DTD/svg11.dtd">
<svg xmlns="http://www.w3.org/2000/svg" version="1.1" width="96px" height="96px" style="shape-rendering:geometricPrecision; text-rendering:geometricPrecision; image-rendering:optimizeQuality; fill-rule:evenodd; clip-rule:evenodd" xmlns:xlink="http://www.w3.org/1999/xlink">
<g><path style="opacity:0.998" fill="#ffcc09" d="M 95.5,41.5 C 95.5,46.8333 95.5,52.1667 95.5,57.5C 86.9026,78.8306 70.9026,89.8306 47.5,90.5C 23.7476,90.323 7.74755,79.323 -0.5,57.5C -0.5,51.8333 -0.5,46.1667 -0.5,40.5C 11.0294,15.3945 30.6961,4.89447 58.5,9C 77.0016,13.0119 89.3349,23.8452 95.5,41.5 Z"/></g>
<g><path style="opacity:1" fill="#fffdf9" d="M 46.5,20.5 C 48.604,20.2011 50.604,20.5344 52.5,21.5C 51.7542,22.7362 51.4208,24.0695 51.5,25.5C 53.1439,25.2865 54.6439,25.6198 56,26.5C 57.0004,23.3601 59.1671,22.0268 62.5,22.5C 61.9919,25.1761 61.8253,27.8428 62,30.5C 65.0044,32.3392 67.5044,34.6726 69.5,37.5C 68.9876,39.8838 68.3209,42.2172 67.5,44.5C 62.3039,47.1864 57.3039,47.0197 52.5,44C 51.9231,40.0979 52.5898,36.2646 54.5,32.5C 53.7112,30.5121 52.5445,30.1787 51,31.5C 49.8321,35.5057 48.6655,39.5057 47.5,43.5C 52.8333,47.8333 58.1667,52.1667 63.5,56.5C 64.2378,60.1291 64.0712,63.7957 63,67.5C 58.7571,68.2934 54.5904,69.4601 50.5,71C 49.4459,73.3822 48.7792,75.8822 48.5,78.5C 46.8333,78.5 45.1667,78.5 43.5,78.5C 43.2606,76.5328 43.5939,74.6995 44.5,73C 42.7818,72.654 41.1151,72.154 39.5,71.5C 39.1221,75.8502 36.7888,77.5168 32.5,76.5C 32.9272,73.6239 33.5938,70.7906 34.5,68C 32.3997,65.8997 30.2331,63.7331 28,61.5C 27.4163,58.7433 27.7496,56.0766 29,53.5C 32.6284,51.6461 36.4618,50.8127 40.5,51C 42.2273,52.3894 43.5606,54.0561 44.5,56C 43.4345,59.0937 42.7678,62.2604 42.5,65.5C 43.675,65.719 44.675,65.3857 45.5,64.5C 46.3456,61.4518 47.3456,58.4518 48.5,55.5C 43.6077,49.439 37.941,44.2724 31.5,40C 32.3828,36.4499 33.7162,33.1166 35.5,30C 38.9338,29.4424 42.2672,28.609 45.5,27.5C 45.9926,25.1944 46.3259,22.861 46.5,20.5 Z"/></g>
</svg>
