<?xml version="1.0" encoding="UTF-8"?>
<!DOCTYPE svg PUBLIC "-//W3C//DTD SVG 1.1//EN" "http://www.w3.org/Graphics/SVG/1.1/DTD/svg11.dtd">
<svg xmlns="http://www.w3.org/2000/svg" version="1.1" width="96px" height="96px" style="shape-rendering:geometricPrecision; text-rendering:geometricPrecision; image-rendering:optimizeQuality; fill-rule:evenodd; clip-rule:evenodd" xmlns:xlink="http://www.w3.org/1999/xlink">
<g><path style="opacity:0.998" fill="#029587" d="M 37.5,-0.5 C 44.1667,-0.5 50.8333,-0.5 57.5,-0.5C 77.1667,5.16667 89.8333,17.8333 95.5,37.5C 95.5,44.1667 95.5,50.8333 95.5,57.5C 89.8333,77.1667 77.1667,89.8333 57.5,95.5C 50.8333,95.5 44.1667,95.5 37.5,95.5C 17.8333,89.8333 5.16667,77.1667 -0.5,57.5C -0.5,50.8333 -0.5,44.1667 -0.5,37.5C 5.16667,17.8333 17.8333,5.16667 37.5,-0.5 Z"/></g>
<g><path style="opacity:1" fill="#131716" d="M 65.5,55.5 C 61.5,55.5 57.5,55.5 53.5,55.5C 53.5,54.1667 53.5,52.8333 53.5,51.5C 54.8333,51.5 56.1667,51.5 57.5,51.5C 58.8333,51.5 60.1667,51.5 61.5,51.5C 61.5,50.1667 61.5,48.8333 61.5,47.5C 62.8333,47.5 64.1667,47.5 65.5,47.5C 65.5,46.1667 65.5,44.8333 65.5,43.5C 66.8333,43.5 68.1667,43.5 69.5,43.5C 69.5,38.1667 69.5,32.8333 69.5,27.5C 68.1667,27.5 66.8333,27.5 65.5,27.5C 65.5,26.1667 65.5,24.8333 65.5,23.5C 52.1667,23.5 38.8333,23.5 25.5,23.5C 25.5,27.5 25.5,31.5 25.5,35.5C 26.8333,35.5 28.1667,35.5 29.5,35.5C 29.5,36.8333 29.5,38.1667 29.5,39.5C 31.8333,39.5 34.1667,39.5 36.5,39.5C 36.5,40.5 36.5,41.5 36.5,42.5C 33.9407,42.1984 31.6074,42.5318 29.5,43.5C 29.5,44.8333 29.5,46.1667 29.5,47.5C 28.1667,47.5 26.8333,47.5 25.5,47.5C 25.5,44.8333 25.5,42.1667 25.5,39.5C 24.1667,39.5 22.8333,39.5 21.5,39.5C 21.5,32.8333 21.5,26.1667 21.5,19.5C 37.5,19.5 53.5,19.5 69.5,19.5C 69.5,20.8333 69.5,22.1667 69.5,23.5C 70.8333,23.5 72.1667,23.5 73.5,23.5C 73.5,31.5 73.5,39.5 73.5,47.5C 72.1667,47.5 70.8333,47.5 69.5,47.5C 69.5,48.8333 69.5,50.1667 69.5,51.5C 68.1667,51.5 66.8333,51.5 65.5,51.5C 65.5,52.8333 65.5,54.1667 65.5,55.5 Z"/></g>
<g><path style="opacity:1" fill="#fbfbfb" d="M 65.5,27.5 C 65.5,32.8333 65.5,38.1667 65.5,43.5C 64.1667,43.5 62.8333,43.5 61.5,43.5C 61.5,44.8333 61.5,46.1667 61.5,47.5C 60.1667,47.5 58.8333,47.5 57.5,47.5C 57.5,48.8333 57.5,50.1667 57.5,51.5C 56.1667,51.5 54.8333,51.5 53.5,51.5C 52.1667,51.5 50.8333,51.5 49.5,51.5C 49.5,52.8333 49.5,54.1667 49.5,55.5C 50.8333,55.5 52.1667,55.5 53.5,55.5C 57.5,55.5 61.5,55.5 65.5,55.5C 65.5,56.8333 65.5,58.1667 65.5,59.5C 64.5326,58.1938 63.1993,57.5271 61.5,57.5C 61.5,59.5 61.5,61.5 61.5,63.5C 49.8333,63.5 38.1667,63.5 26.5,63.5C 26.5,64.5 26.5,65.5 26.5,66.5C 27.791,66.2627 28.791,66.596 29.5,67.5C 28.1667,67.5 26.8333,67.5 25.5,67.5C 25.5,60.8333 25.5,54.1667 25.5,47.5C 26.8333,47.5 28.1667,47.5 29.5,47.5C 29.5,46.1667 29.5,44.8333 29.5,43.5C 32.1667,43.5 34.8333,43.5 37.5,43.5C 37.5,42.1667 37.5,40.8333 37.5,39.5C 41.5,39.5 45.5,39.5 49.5,39.5C 49.5,38.1667 49.5,36.8333 49.5,35.5C 42.8333,35.5 36.1667,35.5 29.5,35.5C 28.1667,35.5 26.8333,35.5 25.5,35.5C 25.5,31.5 25.5,27.5 25.5,23.5C 38.8333,23.5 52.1667,23.5 65.5,23.5C 65.5,24.8333 65.5,26.1667 65.5,27.5 Z"/></g>
<g><path style="opacity:1" fill="#2aa093" d="M 65.5,27.5 C 66.8333,27.5 68.1667,27.5 69.5,27.5C 69.5,32.8333 69.5,38.1667 69.5,43.5C 68.1667,43.5 66.8333,43.5 65.5,43.5C 65.5,38.1667 65.5,32.8333 65.5,27.5 Z"/></g>
<g><path style="opacity:1" fill="#0a9182" d="M 29.5,35.5 C 36.1667,35.5 42.8333,35.5 49.5,35.5C 49.5,36.8333 49.5,38.1667 49.5,39.5C 45.5,39.5 41.5,39.5 37.5,39.5C 37.1667,39.5 36.8333,39.5 36.5,39.5C 34.1667,39.5 31.8333,39.5 29.5,39.5C 29.5,38.1667 29.5,36.8333 29.5,35.5 Z"/></g>
<g><path style="opacity:1" fill="#4d4d4d" d="M 36.5,39.5 C 36.8333,39.5 37.1667,39.5 37.5,39.5C 37.5,40.8333 37.5,42.1667 37.5,43.5C 34.8333,43.5 32.1667,43.5 29.5,43.5C 31.6074,42.5318 33.9407,42.1984 36.5,42.5C 36.5,41.5 36.5,40.5 36.5,39.5 Z"/></g>
<g><path style="opacity:1" fill="#189a8b" d="M 65.5,43.5 C 65.5,44.8333 65.5,46.1667 65.5,47.5C 64.1667,47.5 62.8333,47.5 61.5,47.5C 61.5,46.1667 61.5,44.8333 61.5,43.5C 62.8333,43.5 64.1667,43.5 65.5,43.5 Z"/></g>
<g><path style="opacity:1" fill="#06100e" d="M 25.5,67.5 C 26.5676,68.4345 27.901,68.7678 29.5,68.5C 29.5,69.5 29.5,70.5 29.5,71.5C 42.8333,71.5 56.1667,71.5 69.5,71.5C 69.5,67.5 69.5,63.5 69.5,59.5C 68.1667,59.5 66.8333,59.5 65.5,59.5C 65.5,58.1667 65.5,56.8333 65.5,55.5C 68.1667,55.5 70.8333,55.5 73.5,55.5C 73.5,62.1667 73.5,68.8333 73.5,75.5C 57.5,75.5 41.5,75.5 25.5,75.5C 25.5,74.1667 25.5,72.8333 25.5,71.5C 24.1667,71.5 22.8333,71.5 21.5,71.5C 21.5,63.5 21.5,55.5 21.5,47.5C 22.5,47.5 23.5,47.5 24.5,47.5C 24.176,54.3543 24.5093,61.021 25.5,67.5 Z"/></g>
<g><path style="opacity:1" fill="#1e9b8d" d="M 61.5,47.5 C 61.5,48.8333 61.5,50.1667 61.5,51.5C 60.1667,51.5 58.8333,51.5 57.5,51.5C 57.5,50.1667 57.5,48.8333 57.5,47.5C 58.8333,47.5 60.1667,47.5 61.5,47.5 Z"/></g>
<g><path style="opacity:1" fill="#30988a" d="M 53.5,51.5 C 53.5,52.8333 53.5,54.1667 53.5,55.5C 52.1667,55.5 50.8333,55.5 49.5,55.5C 49.5,54.1667 49.5,52.8333 49.5,51.5C 50.8333,51.5 52.1667,51.5 53.5,51.5 Z"/></g>
<g><path style="opacity:1" fill="#eae6e6" d="M 65.5,59.5 C 65.5,62.1667 65.5,64.8333 65.5,67.5C 53.5,67.5 41.5,67.5 29.5,67.5C 28.791,66.596 27.791,66.2627 26.5,66.5C 26.5,65.5 26.5,64.5 26.5,63.5C 38.1667,63.5 49.8333,63.5 61.5,63.5C 61.5,61.5 61.5,59.5 61.5,57.5C 63.1993,57.5271 64.5326,58.1938 65.5,59.5 Z"/></g>
<g><path style="opacity:1" fill="#269c8e" d="M 65.5,59.5 C 66.8333,59.5 68.1667,59.5 69.5,59.5C 69.5,63.5 69.5,67.5 69.5,71.5C 56.1667,71.5 42.8333,71.5 29.5,71.5C 29.5,70.5 29.5,69.5 29.5,68.5C 27.901,68.7678 26.5676,68.4345 25.5,67.5C 26.8333,67.5 28.1667,67.5 29.5,67.5C 41.5,67.5 53.5,67.5 65.5,67.5C 65.5,64.8333 65.5,62.1667 65.5,59.5 Z"/></g>
</svg>
