<?xml version="1.0" encoding="UTF-8"?>
<!DOCTYPE svg PUBLIC "-//W3C//DTD SVG 1.1//EN" "http://www.w3.org/Graphics/SVG/1.1/DTD/svg11.dtd">
<svg xmlns="http://www.w3.org/2000/svg" version="1.1" width="96px" height="96px" style="shape-rendering:geometricPrecision; text-rendering:geometricPrecision; image-rendering:optimizeQuality; fill-rule:evenodd; clip-rule:evenodd" xmlns:xlink="http://www.w3.org/1999/xlink">
<g><path style="opacity:0.981" fill="#e93c3b" d="M 37.5,-0.5 C 44.1667,-0.5 50.8333,-0.5 57.5,-0.5C 77.1667,5.16667 89.8333,17.8333 95.5,37.5C 95.5,44.1667 95.5,50.8333 95.5,57.5C 89.8333,77.1667 77.1667,89.8333 57.5,95.5C 50.8333,95.5 44.1667,95.5 37.5,95.5C 17.8333,89.8333 5.16667,77.1667 -0.5,57.5C -0.5,50.8333 -0.5,44.1667 -0.5,37.5C 5.16667,17.8333 17.8333,5.16667 37.5,-0.5 Z"/></g>
<g><path style="opacity:1" fill="#fef8f8" d="M 57.5,19.5 C 57.5,20.1667 57.5,20.8333 57.5,21.5C 44.2229,22.7787 37.5562,30.1121 37.5,43.5C 37.9168,48.4991 38.2501,53.4991 38.5,58.5C 33.1667,58.5 27.8333,58.5 22.5,58.5C 22.3336,50.16 22.5003,41.8267 23,33.5C 30.8373,20.1583 42.3373,15.4916 57.5,19.5 Z"/></g>
<g><path style="opacity:1" fill="#f59f9d" d="M 57.5,19.5 C 59.1131,20.6923 60.7798,21.6923 62.5,22.5C 60.8333,22.5 59.1667,22.5 57.5,22.5C 57.5,22.1667 57.5,21.8333 57.5,21.5C 57.5,20.8333 57.5,20.1667 57.5,19.5 Z"/></g>
<g><path style="opacity:1" fill="#fefbfb" d="M 57.5,22.5 C 59.1667,22.5 60.8333,22.5 62.5,22.5C 66.5491,25.384 69.7157,29.0506 72,33.5C 72.4997,41.4931 72.6664,49.4931 72.5,57.5C 67.5,57.5 62.5,57.5 57.5,57.5C 57.5,54.1667 57.5,50.8333 57.5,47.5C 59.2454,36.5779 54.5788,31.2445 43.5,31.5C 46.6171,26.0429 51.2838,23.0429 57.5,22.5 Z"/></g>
<g><path style="opacity:1" fill="#f49c9b" d="M 57.5,47.5 C 57.5,50.8333 57.5,54.1667 57.5,57.5C 62.5,57.5 67.5,57.5 72.5,57.5C 67.3595,58.4881 62.0262,58.8214 56.5,58.5C 56.185,54.6286 56.5184,50.9619 57.5,47.5 Z"/></g>
<g><path style="opacity:1" fill="#fef5f5" d="M 23.5,62.5 C 28.5,62.5 33.5,62.5 38.5,62.5C 38.2739,65.2492 38.6072,67.9159 39.5,70.5C 34.2079,71.4948 28.8746,71.8282 23.5,71.5C 23.5,68.5 23.5,65.5 23.5,62.5 Z"/></g>
<g><path style="opacity:1" fill="#fef8f8" d="M 71.5,71.5 C 66.5,71.5 61.5,71.5 56.5,71.5C 56.5,69.1667 56.5,66.8333 56.5,64.5C 61.0557,62.5583 66.0557,61.8917 71.5,62.5C 71.5,65.5 71.5,68.5 71.5,71.5 Z"/></g>
<g><path style="opacity:1" fill="#ef7171" d="M 56.5,64.5 C 56.5,66.8333 56.5,69.1667 56.5,71.5C 61.5,71.5 66.5,71.5 71.5,71.5C 66.3595,72.4881 61.0262,72.8214 55.5,72.5C 55.1936,69.6146 55.5269,66.9479 56.5,64.5 Z"/></g>
</svg>
