<?xml version="1.0" encoding="UTF-8"?>
<!DOCTYPE svg PUBLIC "-//W3C//DTD SVG 1.1//EN" "http://www.w3.org/Graphics/SVG/1.1/DTD/svg11.dtd">
<svg xmlns="http://www.w3.org/2000/svg" version="1.1" width="150px" height="169px" style="shape-rendering:geometricPrecision; text-rendering:geometricPrecision; image-rendering:optimizeQuality; fill-rule:evenodd; clip-rule:evenodd" xmlns:xlink="http://www.w3.org/1999/xlink">
<g><path style="opacity:1" fill="#161616" d="M -0.5,-0.5 C 49.5,-0.5 99.5,-0.5 149.5,-0.5C 149.5,8.16667 149.5,16.8333 149.5,25.5C 147.745,24.9278 146.078,24.0945 144.5,23C 145.458,21.8525 145.125,20.8525 143.5,20C 137.813,19.1481 132.146,18.3148 126.5,17.5C 123.777,17.5505 121.11,17.8839 118.5,18.5C 115.306,16.9317 112.14,15.2651 109,13.5C 104.746,14.8662 100.58,14.5329 96.5,12.5C 92.4773,14.3603 92.6439,16.027 97,17.5C 97.3333,17.1667 97.6667,16.8333 98,16.5C 99.9449,17.8633 102.112,18.6966 104.5,19C 103.833,19.3333 103.167,19.6667 102.5,20C 103.774,20.9772 103.774,21.8106 102.5,22.5C 101.653,21.0337 100.32,20.2004 98.5,20C 91.5,19 84.5,18 77.5,17C 75.4598,14.8149 74.1264,12.3149 73.5,9.5C 74.5,9.5 75.5,9.5 76.5,9.5C 76.5,8.5 76.5,7.5 76.5,6.5C 75.5,6.5 74.5,6.5 73.5,6.5C 73.5,5.5 73.5,4.5 73.5,3.5C 72.5,3.5 71.5,3.5 70.5,3.5C 70.5,4.5 70.5,5.5 70.5,6.5C 69.5,6.5 68.5,6.5 67.5,6.5C 67.5,7.5 67.5,8.5 67.5,9.5C 68.5,9.5 69.5,9.5 70.5,9.5C 69.0639,15.2732 65.3973,17.9399 59.5,17.5C 57.4862,17.3915 55.8195,18.0582 54.5,19.5C 54.4226,18.2502 53.756,17.4169 52.5,17C 53.1667,16.3333 53.8333,15.6667 54.5,15C 53.0494,15.2626 51.7161,15.0959 50.5,14.5C 50.9767,13.5224 51.6433,12.6891 52.5,12C 50.2648,11.9326 48.0981,12.4326 46,13.5C 45.1632,7.16348 44.4966,7.49681 44,14.5C 41.8223,11.5315 40.6556,11.8649 40.5,15.5C 39.0695,15.5792 37.7362,15.2458 36.5,14.5C 35.646,15.5217 34.646,16.3551 33.5,17C 28.708,17.8957 24.0413,18.0624 19.5,17.5C 16.2872,18.3565 13.1205,19.3565 10,20.5C 9,20.1667 8,19.8333 7,19.5C 5.18213,22.2898 2.68213,24.2898 -0.5,25.5C -0.5,16.8333 -0.5,8.16667 -0.5,-0.5 Z"/></g>
<g><path style="opacity:1" fill="#1b1b1b" d="M 149.5,25.5 C 149.5,31.8333 149.5,38.1667 149.5,44.5C 144.886,43.3384 140.219,42.3384 135.5,41.5C 135.291,40.914 134.957,40.414 134.5,40C 131.167,39.6667 127.833,39.3333 124.5,39C 125.727,37.4126 125.394,36.0793 123.5,35C 121.888,34.2797 120.388,34.4464 119,35.5C 117.795,34.9288 116.628,34.2621 115.5,33.5C 113.317,29.8119 110.65,26.4786 107.5,23.5C 107.167,23.8333 106.833,24.1667 106.5,24.5C 108.69,26.0069 110.024,28.0069 110.5,30.5C 111.675,30.281 112.675,30.6143 113.5,31.5C 112.009,32.2436 110.509,32.9103 109,33.5C 107.581,31.0071 106.081,28.6737 104.5,26.5C 104.473,24.8007 103.806,23.4674 102.5,22.5C 103.774,21.8106 103.774,20.9772 102.5,20C 103.167,19.6667 103.833,19.3333 104.5,19C 102.112,18.6966 99.9449,17.8633 98,16.5C 97.6667,16.8333 97.3333,17.1667 97,17.5C 92.6439,16.027 92.4773,14.3603 96.5,12.5C 100.58,14.5329 104.746,14.8662 109,13.5C 112.14,15.2651 115.306,16.9317 118.5,18.5C 121.11,17.8839 123.777,17.5505 126.5,17.5C 132.146,18.3148 137.813,19.1481 143.5,20C 145.125,20.8525 145.458,21.8525 144.5,23C 146.078,24.0945 147.745,24.9278 149.5,25.5 Z"/></g>
<g><path style="opacity:1" fill="#1c1c1c" d="M 54.5,19.5 C 42.9952,17.3404 37.9952,22.0071 39.5,33.5C 37.712,33.2148 36.0453,33.5481 34.5,34.5C 36.1971,38.684 35.1971,39.8507 31.5,38C 33.158,37.2747 33.658,36.108 33,34.5C 32.6667,35.1667 32.3333,35.8333 32,36.5C 31.3333,35.1667 30.3333,34.1667 29,33.5C 25.4137,38.7718 20.5803,40.4385 14.5,38.5C 9.59845,40.3561 4.59845,42.0227 -0.5,43.5C -0.5,37.5 -0.5,31.5 -0.5,25.5C 2.68213,24.2898 5.18213,22.2898 7,19.5C 8,19.8333 9,20.1667 10,20.5C 13.1205,19.3565 16.2872,18.3565 19.5,17.5C 24.0413,18.0624 28.708,17.8957 33.5,17C 34.646,16.3551 35.646,15.5217 36.5,14.5C 37.7362,15.2458 39.0695,15.5792 40.5,15.5C 40.6556,11.8649 41.8223,11.5315 44,14.5C 44.4966,7.49681 45.1632,7.16348 46,13.5C 48.0981,12.4326 50.2648,11.9326 52.5,12C 51.6433,12.6891 50.9767,13.5224 50.5,14.5C 51.7161,15.0959 53.0494,15.2626 54.5,15C 53.8333,15.6667 53.1667,16.3333 52.5,17C 53.756,17.4169 54.4226,18.2502 54.5,19.5 Z"/></g>
<g><path style="opacity:1" fill="#676767" d="M 70.5,9.5 C 71.9031,12.2085 71.2365,14.5418 68.5,16.5C 71.1071,17.3184 73.7737,17.8184 76.5,18C 76.1667,18.3333 75.8333,18.6667 75.5,19C 73.4905,18.4064 71.4905,18.5731 69.5,19.5C 66.8066,17.7298 63.8066,17.0632 60.5,17.5C 60.1667,17.5 59.8333,17.5 59.5,17.5C 65.3973,17.9399 69.0639,15.2732 70.5,9.5 Z"/></g>
<g><path style="opacity:1" fill="#232323" d="M 149.5,44.5 C 149.5,50.1667 149.5,55.8333 149.5,61.5C 147.287,60.3947 145.12,60.3947 143,61.5C 140.482,59.5362 137.816,58.8695 135,59.5C 133.116,55.4119 130.116,52.4119 126,50.5C 124.273,50.6465 124.106,51.3131 125.5,52.5C 124.478,53.354 123.645,54.354 123,55.5C 121.171,55.4351 119.338,55.1018 117.5,54.5C 115.703,53.2702 113.703,52.6036 111.5,52.5C 111.389,51.8826 111.056,51.3826 110.5,51C 104.984,50.8267 99.6509,50.3267 94.5,49.5C 95.9897,45.8644 97.323,42.1977 98.5,38.5C 100.167,38.5 101.833,38.5 103.5,38.5C 103.833,36.5 104.167,34.5 104.5,32.5C 104.5,30.5 104.5,28.5 104.5,26.5C 106.081,28.6737 107.581,31.0071 109,33.5C 110.509,32.9103 112.009,32.2436 113.5,31.5C 112.675,30.6143 111.675,30.281 110.5,30.5C 110.024,28.0069 108.69,26.0069 106.5,24.5C 106.833,24.1667 107.167,23.8333 107.5,23.5C 110.65,26.4786 113.317,29.8119 115.5,33.5C 116.628,34.2621 117.795,34.9288 119,35.5C 120.388,34.4464 121.888,34.2797 123.5,35C 125.394,36.0793 125.727,37.4126 124.5,39C 127.833,39.3333 131.167,39.6667 134.5,40C 134.957,40.414 135.291,40.914 135.5,41.5C 140.219,42.3384 144.886,43.3384 149.5,44.5 Z"/></g>
<g><path style="opacity:1" fill="#2a2a2a" d="M 79.5,22.5 C 80.9187,23.4511 82.5853,23.7845 84.5,23.5C 84.9111,27.4629 84.0778,31.1295 82,34.5C 80.1722,35.7525 78.3388,35.7525 76.5,34.5C 76.5,30.5 76.5,26.5 76.5,22.5C 77.5,22.5 78.5,22.5 79.5,22.5 Z"/></g>
<g><path style="opacity:1" fill="#b6b6b6" d="M 102.5,22.5 C 103.806,23.4674 104.473,24.8007 104.5,26.5C 104.5,28.5 104.5,30.5 104.5,32.5C 103.844,33.2778 103.011,33.9444 102,34.5C 101.5,34.1667 101,33.8333 100.5,33.5C 102.189,30.3501 101.856,27.6835 99.5,25.5C 98.791,24.596 97.791,24.2627 96.5,24.5C 95.0813,23.5489 93.4147,23.2155 91.5,23.5C 91.5,25.5 91.5,27.5 91.5,29.5C 90.2652,29.7214 89.2652,30.3881 88.5,31.5C 87.919,28.28 87.5857,25.1133 87.5,22C 84.9184,22.2554 82.2518,22.422 79.5,22.5C 78.5,22.5 77.5,22.5 76.5,22.5C 76.5,26.5 76.5,30.5 76.5,34.5C 76.6882,36.1033 76.1882,37.4366 75,38.5C 74.6816,32.7207 73.8483,32.3874 72.5,37.5C 73.5,39.1667 74.8333,40.5 76.5,41.5C 80.1224,42.3253 83.789,42.8253 87.5,43C 74.4917,43.3968 61.4917,43.8968 48.5,44.5C 48.573,42.9731 47.9063,41.9731 46.5,41.5C 46.1961,40.8501 45.8627,40.1835 45.5,39.5C 49.0538,36.4566 51.3872,37.1233 52.5,41.5C 53.675,41.719 54.675,41.3857 55.5,40.5C 54.0623,36.8105 52.729,33.1439 51.5,29.5C 51.5,27.8333 51.5,26.1667 51.5,24.5C 49.5,24.5 47.5,24.5 45.5,24.5C 44.1751,23.0474 43.3418,23.3808 43,25.5C 42.3615,28.5358 42.5282,31.5358 43.5,34.5C 43.1237,36.8034 42.1237,37.1368 40.5,35.5C 39.6618,35.1583 39.3284,34.4916 39.5,33.5C 37.9952,22.0071 42.9952,17.3404 54.5,19.5C 55.8195,18.0582 57.4862,17.3915 59.5,17.5C 57.052,19.2452 54.7187,21.2452 52.5,23.5C 53.8954,26.3695 54.8954,29.0362 55.5,31.5C 55.8988,28.578 56.0655,25.578 56,22.5C 58.3443,20.2256 61.1776,19.0589 64.5,19C 62.9419,18.79 61.6085,18.29 60.5,17.5C 63.8066,17.0632 66.8066,17.7298 69.5,19.5C 71.4905,18.5731 73.4905,18.4064 75.5,19C 75.8333,18.6667 76.1667,18.3333 76.5,18C 73.7737,17.8184 71.1071,17.3184 68.5,16.5C 71.2365,14.5418 71.9031,12.2085 70.5,9.5C 69.5,9.5 68.5,9.5 67.5,9.5C 67.5,8.5 67.5,7.5 67.5,6.5C 68.5,6.5 69.5,6.5 70.5,6.5C 70.5,5.5 70.5,4.5 70.5,3.5C 71.5,3.5 72.5,3.5 73.5,3.5C 73.5,4.5 73.5,5.5 73.5,6.5C 74.5,6.5 75.5,6.5 76.5,6.5C 76.5,7.5 76.5,8.5 76.5,9.5C 75.5,9.5 74.5,9.5 73.5,9.5C 74.1264,12.3149 75.4598,14.8149 77.5,17C 84.5,18 91.5,19 98.5,20C 100.32,20.2004 101.653,21.0337 102.5,22.5 Z"/></g>
<g><path style="opacity:1" fill="#2a2a2a" d="M 45.5,24.5 C 47.5,24.5 49.5,24.5 51.5,24.5C 51.5,26.1667 51.5,27.8333 51.5,29.5C 51.6741,31.861 52.0074,34.1944 52.5,36.5C 46.5578,37.3534 43.5578,34.6867 43.5,28.5C 43.7517,26.9271 44.4183,25.5938 45.5,24.5 Z"/></g>
<g><path style="opacity:1" fill="#313131" d="M 65.5,22.5 C 66.7943,24.0478 67.4609,26.0478 67.5,28.5C 68.6622,35.1984 66.4955,36.8651 61,33.5C 59.8011,30.2744 59.3011,26.941 59.5,23.5C 61.7354,23.7947 63.7354,23.4614 65.5,22.5 Z"/></g>
<g><path style="opacity:1" fill="#858585" d="M 96.5,24.5 C 95.5,24.5 94.5,24.5 93.5,24.5C 93.1977,27.3725 92.531,30.0392 91.5,32.5C 91.5,31.5 91.5,30.5 91.5,29.5C 91.5,27.5 91.5,25.5 91.5,23.5C 93.4147,23.2155 95.0813,23.5489 96.5,24.5 Z"/></g>
<g><path style="opacity:1" fill="#e0e0e0" d="M 59.5,17.5 C 59.8333,17.5 60.1667,17.5 60.5,17.5C 61.6085,18.29 62.9419,18.79 64.5,19C 61.1776,19.0589 58.3443,20.2256 56,22.5C 56.0655,25.578 55.8988,28.578 55.5,31.5C 54.8954,29.0362 53.8954,26.3695 52.5,23.5C 54.7187,21.2452 57.052,19.2452 59.5,17.5 Z"/></g>
<g><path style="opacity:1" fill="#232323" d="M 39.5,33.5 C 39.3284,34.4916 39.6618,35.1583 40.5,35.5C 40.5,36.5 40.5,37.5 40.5,38.5C 41.8333,38.5 43.1667,38.5 44.5,38.5C 44.2852,40.1788 44.9519,41.1788 46.5,41.5C 47.9063,41.9731 48.573,42.9731 48.5,44.5C 49.038,46.1172 49.3713,47.7839 49.5,49.5C 44.1667,50.1667 38.8333,50.8333 33.5,51.5C 32.8333,51.5 32.5,51.8333 32.5,52.5C 29.122,53.0231 26.122,54.3565 23.5,56.5C 23.7649,54.556 23.0982,52.556 21.5,50.5C 21.8668,52.8663 21.3668,55.1996 20,57.5C 19.5814,56.3279 18.9147,55.3279 18,54.5C 18.3333,52.8333 18.6667,51.1667 19,49.5C 18,50.5 17,51.5 16,52.5C 16.9791,54.2785 16.6458,55.9452 15,57.5C 14.7104,55.9559 14.0437,54.6226 13,53.5C 11.6667,55.5 10.3333,57.5 9,59.5C 8.66667,58.8333 8.33333,58.1667 8,57.5C 5.40778,59.3104 2.57445,60.6437 -0.5,61.5C -0.5,55.5 -0.5,49.5 -0.5,43.5C 4.59845,42.0227 9.59845,40.3561 14.5,38.5C 20.5803,40.4385 25.4137,38.7718 29,33.5C 30.3333,34.1667 31.3333,35.1667 32,36.5C 32.3333,35.8333 32.6667,35.1667 33,34.5C 33.658,36.108 33.158,37.2747 31.5,38C 35.1971,39.8507 36.1971,38.684 34.5,34.5C 36.0453,33.5481 37.712,33.2148 39.5,33.5 Z"/></g>
<g><path style="opacity:1" fill="#2e2e2e" d="M 96.5,24.5 C 97.791,24.2627 98.791,24.596 99.5,25.5C 101.835,33.4722 98.8353,37.4722 90.5,37.5C 90.2155,35.5853 90.5489,33.9187 91.5,32.5C 92.531,30.0392 93.1977,27.3725 93.5,24.5C 94.5,24.5 95.5,24.5 96.5,24.5 Z"/></g>
<g><path style="opacity:1" fill="#a8a8a8" d="M 91.5,29.5 C 91.5,30.5 91.5,31.5 91.5,32.5C 90.5489,33.9187 90.2155,35.5853 90.5,37.5C 98.8353,37.4722 101.835,33.4722 99.5,25.5C 101.856,27.6835 102.189,30.3501 100.5,33.5C 101,33.8333 101.5,34.1667 102,34.5C 103.011,33.9444 103.844,33.2778 104.5,32.5C 104.167,34.5 103.833,36.5 103.5,38.5C 101.833,38.5 100.167,38.5 98.5,38.5C 97.323,42.1977 95.9897,45.8644 94.5,49.5C 93.1667,50.1667 93.1667,50.8333 94.5,51.5C 93.6661,52.7479 92.3328,53.4146 90.5,53.5C 89.1667,53.3333 87.8333,53.1667 86.5,53C 93.4705,52.331 93.8038,51.831 87.5,51.5C 85.2488,50.9851 83.2488,49.9851 81.5,48.5C 88.1667,47.8333 88.1667,47.1667 81.5,46.5C 79.7211,44.6565 77.3878,43.9898 74.5,44.5C 74.5,46.1667 74.5,47.8333 74.5,49.5C 71.8129,49.6585 69.4796,48.8252 67.5,47C 69.2705,46.4646 69.6039,45.6313 68.5,44.5C 66.9291,45.3094 65.2624,45.6427 63.5,45.5C 63.7373,46.791 63.404,47.791 62.5,48.5C 62.2089,47.3509 61.3756,46.6842 60,46.5C 58.6244,46.6842 57.7911,47.3509 57.5,48.5C 55.4714,46.5002 53.1381,46.1668 50.5,47.5C 51.7053,48.9948 51.7053,50.3281 50.5,51.5C 50.6716,50.5084 50.3382,49.8417 49.5,49.5C 49.3713,47.7839 49.038,46.1172 48.5,44.5C 61.4917,43.8968 74.4917,43.3968 87.5,43C 83.789,42.8253 80.1224,42.3253 76.5,41.5C 74.8333,40.5 73.5,39.1667 72.5,37.5C 73.8483,32.3874 74.6816,32.7207 75,38.5C 76.1882,37.4366 76.6882,36.1033 76.5,34.5C 78.3388,35.7525 80.1722,35.7525 82,34.5C 84.0778,31.1295 84.9111,27.4629 84.5,23.5C 82.5853,23.7845 80.9187,23.4511 79.5,22.5C 82.2518,22.422 84.9184,22.2554 87.5,22C 87.5857,25.1133 87.919,28.28 88.5,31.5C 89.2652,30.3881 90.2652,29.7214 91.5,29.5 Z"/></g>
<g><path style="opacity:1" fill="#8f8f8f" d="M 45.5,24.5 C 44.4183,25.5938 43.7517,26.9271 43.5,28.5C 43.5578,34.6867 46.5578,37.3534 52.5,36.5C 52.0074,34.1944 51.6741,31.861 51.5,29.5C 52.729,33.1439 54.0623,36.8105 55.5,40.5C 54.675,41.3857 53.675,41.719 52.5,41.5C 51.3872,37.1233 49.0538,36.4566 45.5,39.5C 45.8627,40.1835 46.1961,40.8501 46.5,41.5C 44.9519,41.1788 44.2852,40.1788 44.5,38.5C 43.1667,38.5 41.8333,38.5 40.5,38.5C 40.5,37.5 40.5,36.5 40.5,35.5C 42.1237,37.1368 43.1237,36.8034 43.5,34.5C 42.5282,31.5358 42.3615,28.5358 43,25.5C 43.3418,23.3808 44.1751,23.0474 45.5,24.5 Z"/></g>
<g><path style="opacity:1" fill="#4e4e4e" d="M 81.5,46.5 C 88.1667,47.1667 88.1667,47.8333 81.5,48.5C 81.5,47.8333 81.5,47.1667 81.5,46.5 Z"/></g>
<g><path style="opacity:1" fill="#535353" d="M 49.5,49.5 C 50.3382,49.8417 50.6716,50.5084 50.5,51.5C 44.8333,51.5 39.1667,51.5 33.5,51.5C 38.8333,50.8333 44.1667,50.1667 49.5,49.5 Z"/></g>
<g><path style="opacity:1" fill="#515151" d="M 94.5,49.5 C 99.6509,50.3267 104.984,50.8267 110.5,51C 111.056,51.3826 111.389,51.8826 111.5,52.5C 105.894,51.5931 100.227,51.2598 94.5,51.5C 93.1667,50.8333 93.1667,50.1667 94.5,49.5 Z"/></g>
<g><path style="opacity:1" fill="#bdbdbd" d="M 81.5,46.5 C 81.5,47.1667 81.5,47.8333 81.5,48.5C 83.2488,49.9851 85.2488,50.9851 87.5,51.5C 69.1953,53.2196 50.862,53.5529 32.5,52.5C 32.5,51.8333 32.8333,51.5 33.5,51.5C 39.1667,51.5 44.8333,51.5 50.5,51.5C 51.7053,50.3281 51.7053,48.9948 50.5,47.5C 53.1381,46.1668 55.4714,46.5002 57.5,48.5C 59.1667,49.8333 60.8333,49.8333 62.5,48.5C 63.404,47.791 63.7373,46.791 63.5,45.5C 65.2624,45.6427 66.9291,45.3094 68.5,44.5C 69.6039,45.6313 69.2705,46.4646 67.5,47C 69.4796,48.8252 71.8129,49.6585 74.5,49.5C 74.5,47.8333 74.5,46.1667 74.5,44.5C 77.3878,43.9898 79.7211,44.6565 81.5,46.5 Z"/></g>
<g><path style="opacity:1" fill="#5d5d5d" d="M 62.5,48.5 C 60.8333,49.8333 59.1667,49.8333 57.5,48.5C 57.7911,47.3509 58.6244,46.6842 60,46.5C 61.3756,46.6842 62.2089,47.3509 62.5,48.5 Z"/></g>
<g><path style="opacity:1" fill="#f3f3f3" d="M 87.5,51.5 C 93.8038,51.831 93.4705,52.331 86.5,53C 87.8333,53.1667 89.1667,53.3333 90.5,53.5C 92.3328,53.4146 93.6661,52.7479 94.5,51.5C 100.227,51.2598 105.894,51.5931 111.5,52.5C 113.703,52.6036 115.703,53.2702 117.5,54.5C 119.461,56.9635 121.628,59.2968 124,61.5C 124.667,63.5 125.333,65.5 126,67.5C 126.5,93.1645 126.667,118.831 126.5,144.5C 123.838,151.829 118.838,156.829 111.5,159.5C 110.833,159.5 110.167,159.5 109.5,159.5C 84.4978,159.667 59.4978,159.5 34.5,159C 32.0066,157.731 29.3399,156.898 26.5,156.5C 23.4569,154.457 21.1236,151.79 19.5,148.5C 19.0046,146.518 18.5046,144.518 18,142.5C 17.3333,117.5 17.3333,92.5 18,67.5C 18.7971,63.2501 20.6305,59.5835 23.5,56.5C 26.122,54.3565 29.122,53.0231 32.5,52.5C 50.862,53.5529 69.1953,53.2196 87.5,51.5 Z"/></g>
<g><path style="opacity:1" fill="#2d2d2d" d="M 149.5,61.5 C 149.5,84.8333 149.5,108.167 149.5,131.5C 147.384,135.752 145.051,140.085 142.5,144.5C 134.947,140.777 130.613,143.111 129.5,151.5C 128.34,149.125 127.34,146.792 126.5,144.5C 126.667,118.831 126.5,93.1645 126,67.5C 125.333,65.5 124.667,63.5 124,61.5C 121.628,59.2968 119.461,56.9635 117.5,54.5C 119.338,55.1018 121.171,55.4351 123,55.5C 123.645,54.354 124.478,53.354 125.5,52.5C 124.106,51.3131 124.273,50.6465 126,50.5C 130.116,52.4119 133.116,55.4119 135,59.5C 137.816,58.8695 140.482,59.5362 143,61.5C 145.12,60.3947 147.287,60.3947 149.5,61.5 Z"/></g>
<g><path style="opacity:1" fill="#2e2e2e" d="M 23.5,56.5 C 20.6305,59.5835 18.7971,63.2501 18,67.5C 17.3333,92.5 17.3333,117.5 18,142.5C 18.5046,144.518 19.0046,146.518 19.5,148.5C 18.1497,147.517 17.1497,146.184 16.5,144.5C 14.8509,145.706 13.3509,147.039 12,148.5C 11.7508,147.376 11.2508,146.376 10.5,145.5C 8.90167,146.485 7.23501,146.651 5.5,146C 3.90843,143.569 1.90843,141.735 -0.5,140.5C -0.5,114.167 -0.5,87.8333 -0.5,61.5C 2.57445,60.6437 5.40778,59.3104 8,57.5C 8.33333,58.1667 8.66667,58.8333 9,59.5C 10.3333,57.5 11.6667,55.5 13,53.5C 14.0437,54.6226 14.7104,55.9559 15,57.5C 16.6458,55.9452 16.9791,54.2785 16,52.5C 17,51.5 18,50.5 19,49.5C 18.6667,51.1667 18.3333,52.8333 18,54.5C 18.9147,55.3279 19.5814,56.3279 20,57.5C 21.3668,55.1996 21.8668,52.8663 21.5,50.5C 23.0982,52.556 23.7649,54.556 23.5,56.5 Z"/></g>
<g><path style="opacity:1" fill="#828282" d="M 51.5,70.5 C 46.737,70.2256 42.0704,70.559 37.5,71.5C 39.3972,70.1952 41.7305,69.5286 44.5,69.5C 47.0254,69.5034 49.3587,69.8367 51.5,70.5 Z"/></g>
<g><path style="opacity:1" fill="#393939" d="M 105.5,141.5 C 100.737,141.774 96.0704,141.441 91.5,140.5C 90.7784,140.082 90.2784,139.416 90,138.5C 89.5003,130.841 89.3336,123.174 89.5,115.5C 77.8333,115.5 66.1667,115.5 54.5,115.5C 54.7729,123.888 54.4396,132.221 53.5,140.5C 48.5624,141.392 43.5624,141.726 38.5,141.5C 37.8333,141.5 37.5,141.167 37.5,140.5C 36.5318,118.2 36.1984,95.8663 36.5,73.5C 36.3284,72.5084 36.6618,71.8417 37.5,71.5C 42.0704,70.559 46.737,70.2256 51.5,70.5C 52.172,71.2674 53.0053,71.9341 54,72.5C 54.4997,80.4931 54.6664,88.4931 54.5,96.5C 66.1667,96.5 77.8333,96.5 89.5,96.5C 89.0619,88.0567 89.5619,79.7233 91,71.5C 91.5,71 92,70.5 92.5,70C 96.8713,69.1725 101.205,69.3391 105.5,70.5C 106.522,71.354 107.355,72.354 108,73.5C 108.667,95.1667 108.667,116.833 108,138.5C 107.302,139.691 106.469,140.691 105.5,141.5 Z"/></g>
<g><path style="opacity:1" fill="#7c7c7c" d="M 36.5,73.5 C 36.1984,95.8663 36.5318,118.2 37.5,140.5C 36.7784,140.082 36.2784,139.416 36,138.5C 35.1705,116.663 35.3372,94.9961 36.5,73.5 Z"/></g>
<g><path style="opacity:1" fill="#282828" d="M 149.5,131.5 C 149.5,143.833 149.5,156.167 149.5,168.5C 99.5,168.5 49.5,168.5 -0.5,168.5C -0.5,159.167 -0.5,149.833 -0.5,140.5C 1.90843,141.735 3.90843,143.569 5.5,146C 7.23501,146.651 8.90167,146.485 10.5,145.5C 11.2508,146.376 11.7508,147.376 12,148.5C 13.3509,147.039 14.8509,145.706 16.5,144.5C 17.1497,146.184 18.1497,147.517 19.5,148.5C 21.1236,151.79 23.4569,154.457 26.5,156.5C 28.1898,158.342 30.1898,159.675 32.5,160.5C 58.3301,161.663 84.3301,161.83 110.5,161C 111.056,160.617 111.389,160.117 111.5,159.5C 118.838,156.829 123.838,151.829 126.5,144.5C 127.34,146.792 128.34,149.125 129.5,151.5C 130.613,143.111 134.947,140.777 142.5,144.5C 145.051,140.085 147.384,135.752 149.5,131.5 Z"/></g>
<g><path style="opacity:1" fill="#959595" d="M 53.5,140.5 C 53.3893,141.117 53.056,141.617 52.5,142C 47.6478,142.815 42.9811,142.648 38.5,141.5C 43.5624,141.726 48.5624,141.392 53.5,140.5 Z"/></g>
<g><path style="opacity:1" fill="#8e8e8e" d="M 91.5,140.5 C 96.0704,141.441 100.737,141.774 105.5,141.5C 103.359,142.163 101.025,142.497 98.5,142.5C 95.7305,142.471 93.3972,141.805 91.5,140.5 Z"/></g>
<g><path style="opacity:1" fill="#d5d5d5" d="M 26.5,156.5 C 29.3399,156.898 32.0066,157.731 34.5,159C 59.4978,159.5 84.4978,159.667 109.5,159.5C 84.0054,160.498 58.3388,160.831 32.5,160.5C 30.1898,159.675 28.1898,158.342 26.5,156.5 Z"/></g>
<g><path style="opacity:1" fill="#4c4c4c" d="M 109.5,159.5 C 110.167,159.5 110.833,159.5 111.5,159.5C 111.389,160.117 111.056,160.617 110.5,161C 84.3301,161.83 58.3301,161.663 32.5,160.5C 58.3388,160.831 84.0054,160.498 109.5,159.5 Z"/></g>
</svg>
