<?xml version="1.0" encoding="UTF-8"?>
<!DOCTYPE svg PUBLIC "-//W3C//DTD SVG 1.1//EN" "http://www.w3.org/Graphics/SVG/1.1/DTD/svg11.dtd">
<svg xmlns="http://www.w3.org/2000/svg" version="1.1" width="96px" height="96px" style="shape-rendering:geometricPrecision; text-rendering:geometricPrecision; image-rendering:optimizeQuality; fill-rule:evenodd; clip-rule:evenodd" xmlns:xlink="http://www.w3.org/1999/xlink">
<g><path style="opacity:0.91" fill="#403020" d="M 64.5,15.5 C 64.5,15.8333 64.5,16.1667 64.5,16.5C 63.1851,17.4756 61.8518,18.4756 60.5,19.5C 59.8933,19.3764 59.56,19.0431 59.5,18.5C 60.922,17.075 62.5887,16.075 64.5,15.5 Z"/></g>
<g><path style="opacity:1" fill="#fdb5a8" d="M 46.5,15.5 C 46.5,16.1667 46.5,16.8333 46.5,17.5C 44.3449,16.4476 44.0116,17.1143 45.5,19.5C 44.1482,20.5244 42.8149,21.5244 41.5,22.5C 41.3379,20.4727 41.5045,18.4727 42,16.5C 43.3561,15.6198 44.8561,15.2865 46.5,15.5 Z"/></g>
<g><path style="opacity:1" fill="#efae72" d="M 46.5,15.5 C 47.2891,15.7828 47.9558,16.2828 48.5,17C 52.3563,17.1773 56.023,17.6773 59.5,18.5C 59.56,19.0431 59.8933,19.3764 60.5,19.5C 61.8518,18.4756 63.1851,17.4756 64.5,16.5C 65.5063,16.9377 65.5063,17.6043 64.5,18.5C 63.5222,18.811 62.8555,19.4777 62.5,20.5C 64.1878,22.8545 66.1878,24.8545 68.5,26.5C 68.5,27.1667 68.8333,27.5 69.5,27.5C 69.5,29.8333 69.5,32.1667 69.5,34.5C 66.03,35.8028 62.6967,35.4694 59.5,33.5C 59.5,33.1667 59.5,32.8333 59.5,32.5C 56.8333,32.5 54.1667,32.5 51.5,32.5C 51.189,31.5222 50.5223,30.8555 49.5,30.5C 48.4376,31.4246 48.4376,32.4246 49.5,33.5C 47.9468,35.385 45.9468,36.385 43.5,36.5C 42.3435,30.614 44.0102,25.7807 48.5,22C 47.9056,21.5357 47.2389,21.369 46.5,21.5C 47.8333,20.1667 47.8333,18.8333 46.5,17.5C 46.5,16.8333 46.5,16.1667 46.5,15.5 Z"/></g>
<g><path style="opacity:1" fill="#ee7872" d="M 64.5,18.5 C 64.3692,21.3667 65.7026,23.0334 68.5,23.5C 68.5,24.5 68.5,25.5 68.5,26.5C 66.1878,24.8545 64.1878,22.8545 62.5,20.5C 62.8555,19.4777 63.5222,18.811 64.5,18.5 Z"/></g>
<g><path style="opacity:0.957" fill="#48301e" d="M 46.5,15.5 C 44.8561,15.2865 43.3561,15.6198 42,16.5C 41.5045,18.4727 41.3379,20.4727 41.5,22.5C 41.5,22.8333 41.5,23.1667 41.5,23.5C 41.573,25.0269 40.9063,26.0269 39.5,26.5C 39.1632,22.6924 39.6632,19.0257 41,15.5C 42.9688,12.8761 44.8022,12.8761 46.5,15.5 Z"/></g>
<g><path style="opacity:1" fill="#dfa095" d="M 68.5,15.5 C 68.5,18.1667 68.5,20.8333 68.5,23.5C 65.7026,23.0334 64.3692,21.3667 64.5,18.5C 65.5063,17.6043 65.5063,16.9377 64.5,16.5C 64.5,16.1667 64.5,15.8333 64.5,15.5C 65.8333,14.1667 67.1667,14.1667 68.5,15.5 Z"/></g>
<g><path style="opacity:1" fill="#f87a76" d="M 46.5,17.5 C 47.8333,18.8333 47.8333,20.1667 46.5,21.5C 44.8333,22.1667 43.1667,22.8333 41.5,23.5C 41.5,23.1667 41.5,22.8333 41.5,22.5C 42.8149,21.5244 44.1482,20.5244 45.5,19.5C 44.0116,17.1143 44.3449,16.4476 46.5,17.5 Z"/></g>
<g><path style="opacity:0.047" fill="#473424" d="M 68.5,15.5 C 70.0265,16.4919 70.6932,17.9919 70.5,20C 70.0828,22.4979 69.7495,24.9979 69.5,27.5C 68.8333,27.5 68.5,27.1667 68.5,26.5C 68.5,25.5 68.5,24.5 68.5,23.5C 68.5,20.8333 68.5,18.1667 68.5,15.5 Z"/></g>
<g><path style="opacity:0.604" fill="#2f2f30" d="M 34.5,24.5 C 30.3344,23.9439 26.6677,24.9439 23.5,27.5C 24.6896,24.7945 26.8563,23.1279 30,22.5C 31.7275,22.899 33.2275,23.5657 34.5,24.5 Z"/></g>
<g><path style="opacity:1" fill="#f0edeb" d="M 34.5,24.5 C 36.0461,26.8825 36.7128,29.5491 36.5,32.5C 36.1667,33.8333 35.8333,35.1667 35.5,36.5C 30.8775,37.5918 29.0442,35.9252 30,31.5C 30.3826,30.944 30.8826,30.6107 31.5,30.5C 33.6516,29.9232 33.985,28.7565 32.5,27C 26,25.5 23.5,28 25,34.5C 26.129,36.1412 27.629,37.1412 29.5,37.5C 29.5,37.8333 29.5,38.1667 29.5,38.5C 27.0968,38.607 25.2635,37.607 24,35.5C 23.5026,32.854 23.3359,30.1873 23.5,27.5C 26.6677,24.9439 30.3344,23.9439 34.5,24.5 Z"/></g>
<g><path style="opacity:1" fill="#e79d5a" d="M 31.5,30.5 C 30.2073,29.3552 29.0407,29.6885 28,31.5C 27.2516,33.8401 27.7516,35.8401 29.5,37.5C 27.629,37.1412 26.129,36.1412 25,34.5C 23.5,28 26,25.5 32.5,27C 33.985,28.7565 33.6516,29.9232 31.5,30.5 Z"/></g>
<g><path style="opacity:1" fill="#c87e3f" d="M 46.5,21.5 C 47.2389,21.369 47.9056,21.5357 48.5,22C 44.0102,25.7807 42.3435,30.614 43.5,36.5C 42.5,36.5 41.5,36.5 40.5,36.5C 39.5863,33.272 39.2529,29.9387 39.5,26.5C 40.9063,26.0269 41.573,25.0269 41.5,23.5C 43.1667,22.8333 44.8333,22.1667 46.5,21.5 Z"/></g>
<g><path style="opacity:1" fill="#fff4eb" d="M 46.5,26.5 C 47.9778,26.238 49.3112,26.5713 50.5,27.5C 49.8333,27.8333 49.1667,28.1667 48.5,28.5C 47.2867,28.2528 46.62,27.5862 46.5,26.5 Z"/></g>
<g><path style="opacity:1" fill="#fff0e4" d="M 59.5,25.5 C 60.9953,25.4148 61.9953,26.0815 62.5,27.5C 59.6232,28.9109 58.6232,28.2442 59.5,25.5 Z"/></g>
<g><path style="opacity:0.933" fill="#747577" d="M 34.5,24.5 C 36.2624,25.2623 37.2624,26.5956 37.5,28.5C 37.7678,30.099 37.4345,31.4324 36.5,32.5C 36.7128,29.5491 36.0461,26.8825 34.5,24.5 Z"/></g>
<g><path style="opacity:0.871" fill="#4b3423" d="M 39.5,26.5 C 39.2529,29.9387 39.5863,33.272 40.5,36.5C 39.8333,36.5 39.5,36.8333 39.5,37.5C 38.7321,36.7375 38.2321,35.7375 38,34.5C 37.2917,35.3805 36.4584,36.0472 35.5,36.5C 35.8333,35.1667 36.1667,33.8333 36.5,32.5C 37.4345,31.4324 37.7678,30.099 37.5,28.5C 38.1667,27.8333 38.8333,27.1667 39.5,26.5 Z"/></g>
<g><path style="opacity:0.263" fill="#262321" d="M 69.5,27.5 C 71.3794,30.8561 71.8794,34.5227 71,38.5C 70.6232,39.9423 69.7899,40.9423 68.5,41.5C 69.2186,39.2362 69.552,36.9029 69.5,34.5C 69.5,32.1667 69.5,29.8333 69.5,27.5 Z"/></g>
<g><path style="opacity:1" fill="#523e2b" d="M 51.5,32.5 C 51.1583,33.3382 50.4916,33.6716 49.5,33.5C 48.4376,32.4246 48.4376,31.4246 49.5,30.5C 50.5223,30.8555 51.189,31.5222 51.5,32.5 Z"/></g>
<g><path style="opacity:1" fill="#281c12" d="M 59.5,32.5 C 60.1217,31.3734 60.955,30.3734 62,29.5C 62.5192,31.4894 61.6859,32.4894 59.5,32.5 Z"/></g>
<g><path style="opacity:1" fill="#eeedec" d="M 51.5,32.5 C 54.1667,32.5 56.8333,32.5 59.5,32.5C 59.5,32.8333 59.5,33.1667 59.5,33.5C 58.5084,33.3284 57.8417,33.6618 57.5,34.5C 55.8333,34.5 54.1667,34.5 52.5,34.5C 52.4802,36.143 53.1468,37.4763 54.5,38.5C 52.9974,38.8346 51.664,38.8346 50.5,38.5C 52.386,41.0067 53.7193,43.6734 54.5,46.5C 55.9536,49.3999 54.9536,50.7332 51.5,50.5C 51.5,49.1667 51.5,47.8333 51.5,46.5C 49.6732,44.9905 47.5066,42.9905 45,40.5C 44.2086,39.255 43.7086,37.9217 43.5,36.5C 45.9468,36.385 47.9468,35.385 49.5,33.5C 50.4916,33.6716 51.1583,33.3382 51.5,32.5 Z"/></g>
<g><path style="opacity:1" fill="#f0f1f0" d="M 57.5,34.5 C 57.8417,33.6618 58.5084,33.3284 59.5,33.5C 62.6967,35.4694 66.03,35.8028 69.5,34.5C 69.552,36.9029 69.2186,39.2362 68.5,41.5C 68.5,42.1667 68.1667,42.5 67.5,42.5C 64.977,43.8008 62.3103,44.8008 59.5,45.5C 58.8153,43.2192 58.6487,40.8859 59,38.5C 58.1072,39.7112 57.2739,39.7112 56.5,38.5C 57.1667,37.5 57.8333,36.5 58.5,35.5C 58.3764,34.8933 58.0431,34.56 57.5,34.5 Z"/></g>
<g><path style="opacity:1" fill="#5f5a58" d="M 31.5,30.5 C 30.8826,30.6107 30.3826,30.944 30,31.5C 29.0442,35.9252 30.8775,37.5918 35.5,36.5C 34.0101,38.2798 32.0101,38.9465 29.5,38.5C 29.5,38.1667 29.5,37.8333 29.5,37.5C 27.7516,35.8401 27.2516,33.8401 28,31.5C 29.0407,29.6885 30.2073,29.3552 31.5,30.5 Z"/></g>
<g><path style="opacity:1" fill="#73706f" d="M 40.5,36.5 C 41.5,36.5 42.5,36.5 43.5,36.5C 43.7086,37.9217 44.2086,39.255 45,40.5C 47.5066,42.9905 49.6732,44.9905 51.5,46.5C 48.1042,46.1157 45.1042,44.7823 42.5,42.5C 41.075,41.078 40.075,39.4113 39.5,37.5C 39.5,36.8333 39.8333,36.5 40.5,36.5 Z"/></g>
<g><path style="opacity:1" fill="#fab676" d="M 39.5,37.5 C 40.075,39.4113 41.075,41.078 42.5,42.5C 40.3867,45.2165 38.3867,48.0498 36.5,51C 33.303,51.239 30.6363,50.0723 28.5,47.5C 27.8182,48.2427 27.1515,48.9094 26.5,49.5C 25.6586,47.6208 25.3253,45.6208 25.5,43.5C 26.8333,41.8333 28.1667,40.1667 29.5,38.5C 32.0101,38.9465 34.0101,38.2798 35.5,36.5C 36.4584,36.0472 37.2917,35.3805 38,34.5C 38.2321,35.7375 38.7321,36.7375 39.5,37.5 Z"/></g>
<g><path style="opacity:1" fill="#c98041" d="M 42.5,42.5 C 45.1042,44.7823 48.1042,46.1157 51.5,46.5C 51.5,47.8333 51.5,49.1667 51.5,50.5C 51.5,50.8333 51.5,51.1667 51.5,51.5C 49.0799,51.7076 46.7466,51.3742 44.5,50.5C 43.537,50.9698 43.537,51.6365 44.5,52.5C 42.8014,52.3796 41.1347,52.0463 39.5,51.5C 37.0983,53.049 34.4317,53.7157 31.5,53.5C 30.5994,51.2729 28.9328,50.2729 26.5,50.5C 26.5,50.1667 26.5,49.8333 26.5,49.5C 27.1515,48.9094 27.8182,48.2427 28.5,47.5C 30.6363,50.0723 33.303,51.239 36.5,51C 38.3867,48.0498 40.3867,45.2165 42.5,42.5 Z"/></g>
<g><path style="opacity:1" fill="#3e3736" d="M 57.5,34.5 C 58.0431,34.56 58.3764,34.8933 58.5,35.5C 57.8333,36.5 57.1667,37.5 56.5,38.5C 57.2739,39.7112 58.1072,39.7112 59,38.5C 58.6487,40.8859 58.8153,43.2192 59.5,45.5C 62.3103,44.8008 64.977,43.8008 67.5,42.5C 69.7658,43.6066 71.0991,45.44 71.5,48C 71.3158,49.3756 70.6491,50.2089 69.5,50.5C 70.9681,48.3891 70.6348,46.5557 68.5,45C 66.4652,44.4014 64.7985,44.9014 63.5,46.5C 61.8333,46.5 60.1667,46.5 58.5,46.5C 58.7678,48.099 58.4345,49.4324 57.5,50.5C 57.9118,48.0274 56.9118,46.6941 54.5,46.5C 53.7193,43.6734 52.386,41.0067 50.5,38.5C 51.664,38.8346 52.9974,38.8346 54.5,38.5C 53.1468,37.4763 52.4802,36.143 52.5,34.5C 54.1667,34.5 55.8333,34.5 57.5,34.5 Z"/></g>
<g><path style="opacity:1" fill="#a44848" d="M 54.5,40.5 C 55.5,40.5 56.5,40.5 57.5,40.5C 57.5,42.1667 57.5,43.8333 57.5,45.5C 56.5,45.5 55.5,45.5 54.5,45.5C 54.5,43.8333 54.5,42.1667 54.5,40.5 Z"/></g>
<g><path style="opacity:1" fill="#edebe9" d="M 69.5,50.5 C 68.8333,50.5 68.1667,50.5 67.5,50.5C 66.1667,50.5 64.8333,50.5 63.5,50.5C 63.5,49.1667 63.5,47.8333 63.5,46.5C 64.7985,44.9014 66.4652,44.4014 68.5,45C 70.6348,46.5557 70.9681,48.3891 69.5,50.5 Z"/></g>
<g><path style="opacity:1" fill="#2a2929" d="M 23.5,27.5 C 23.3359,30.1873 23.5026,32.854 24,35.5C 25.2635,37.607 27.0968,38.607 29.5,38.5C 28.1667,40.1667 26.8333,41.8333 25.5,43.5C 22.5899,44.9732 21.9233,47.1399 23.5,50C 24.448,50.4828 25.448,50.6495 26.5,50.5C 28.9328,50.2729 30.5994,51.2729 31.5,53.5C 19.1815,52.7062 17.5148,48.2062 26.5,40C 21.4511,36.5648 20.4511,32.3981 23.5,27.5 Z"/></g>
<g><path style="opacity:1" fill="#8e8f90" d="M 54.5,46.5 C 56.9118,46.6941 57.9118,48.0274 57.5,50.5C 55.5648,51.1495 53.5648,51.4828 51.5,51.5C 51.5,51.1667 51.5,50.8333 51.5,50.5C 54.9536,50.7332 55.9536,49.3999 54.5,46.5 Z"/></g>
<g><path style="opacity:1" fill="#c1bfbd" d="M 25.5,43.5 C 25.3253,45.6208 25.6586,47.6208 26.5,49.5C 26.5,49.8333 26.5,50.1667 26.5,50.5C 25.448,50.6495 24.448,50.4828 23.5,50C 21.9233,47.1399 22.5899,44.9732 25.5,43.5 Z"/></g>
<g><path style="opacity:1" fill="#47392f" d="M 51.5,51.5 C 53.5648,51.4828 55.5648,51.1495 57.5,50.5C 57.3893,51.1174 57.056,51.6174 56.5,52C 52.5138,52.4988 48.5138,52.6655 44.5,52.5C 43.537,51.6365 43.537,50.9698 44.5,50.5C 46.7466,51.3742 49.0799,51.7076 51.5,51.5 Z"/></g>
<g><path style="opacity:0.246" fill="#18120d" d="M 67.5,50.5 C 68.1667,50.5 68.8333,50.5 69.5,50.5C 69.3893,51.1174 69.056,51.6174 68.5,52C 65.854,52.4974 63.1873,52.6641 60.5,52.5C 62.8333,51.8333 65.1667,51.1667 67.5,50.5 Z"/></g>
<g><path style="opacity:1" fill="#878583" d="M 63.5,46.5 C 63.5,47.8333 63.5,49.1667 63.5,50.5C 64.8333,50.5 66.1667,50.5 67.5,50.5C 65.1667,51.1667 62.8333,51.8333 60.5,52.5C 60.5,53.1667 60.1667,53.5 59.5,53.5C 52.6502,55.7975 45.6502,56.1308 38.5,54.5C 35.9407,54.8016 33.6074,54.4682 31.5,53.5C 34.4317,53.7157 37.0983,53.049 39.5,51.5C 41.1347,52.0463 42.8014,52.3796 44.5,52.5C 48.5138,52.6655 52.5138,52.4988 56.5,52C 57.056,51.6174 57.3893,51.1174 57.5,50.5C 58.4345,49.4324 58.7678,48.099 58.5,46.5C 60.1667,46.5 61.8333,46.5 63.5,46.5 Z"/></g>
<g><path style="opacity:1" fill="#262626" d="M 59.5,53.5 C 57.551,55.563 55.2177,56.8964 52.5,57.5C 47.4997,57.5017 42.833,56.5017 38.5,54.5C 45.6502,56.1308 52.6502,55.7975 59.5,53.5 Z"/></g>
<g><path style="opacity:0.263" fill="#1d1d1c" d="M 45.5,58.5 C 42.8915,58.4003 40.5582,59.0669 38.5,60.5C 40.265,57.5512 42.5983,56.8846 45.5,58.5 Z"/></g>
<g><path style="opacity:0.976" fill="#3a3a34" d="M 67.5,58.5 C 65.0971,58.448 62.7638,58.7814 60.5,59.5C 62.6346,56.3197 64.9679,55.9864 67.5,58.5 Z"/></g>
<g><path style="opacity:0.882" fill="#2e2b27" d="M 38.5,60.5 C 38.2172,61.2891 37.7172,61.9558 37,62.5C 33.0356,57.1933 29.2023,57.1933 25.5,62.5C 23.8042,62.3146 22.4709,61.4813 21.5,60C 18.854,59.5026 16.1873,59.3359 13.5,59.5C 17.3152,56.6873 20.9819,57.0207 24.5,60.5C 26.3904,58.4224 28.7238,57.0891 31.5,56.5C 33.8676,57.8889 36.2009,59.2222 38.5,60.5 Z"/></g>
<g><path style="opacity:0.008" fill="#040204" d="M 45.5,58.5 C 46.609,58.5569 47.609,58.8902 48.5,59.5C 48.5,60.1667 48.5,60.8333 48.5,61.5C 47.8333,61.1667 47.1667,60.8333 46.5,60.5C 46.1667,59.8333 45.8333,59.1667 45.5,58.5 Z"/></g>
<g><path style="opacity:0.851" fill="#343530" d="M 52.5,57.5 C 55.0821,57.0254 57.0821,57.6921 58.5,59.5C 57.8333,59.1667 57.1667,58.8333 56.5,58.5C 53.9455,59.388 51.2788,59.7214 48.5,59.5C 49.8333,58.8333 51.1667,58.1667 52.5,57.5 Z"/></g>
<g><path style="opacity:0.914" fill="#1e1d1b" d="M 82.5,59.5 C 82.1667,59.5 81.8333,59.5 81.5,59.5C 79.7085,59.366 78.0418,59.6993 76.5,60.5C 75.8333,60.1667 75.1667,59.8333 74.5,59.5C 73.1667,59.5 71.8333,59.5 70.5,59.5C 71.6412,58.661 72.9745,57.9943 74.5,57.5C 76.7016,58.7797 78.8683,58.7797 81,57.5C 81.7172,58.0442 82.2172,58.7109 82.5,59.5 Z"/></g>
<g><path style="opacity:0.476" fill="#272119" d="M 67.5,58.5 C 68.391,59.1098 69.391,59.4431 70.5,59.5C 70.5,60.1667 70.5,60.8333 70.5,61.5C 69.8333,61.1667 69.1667,60.8333 68.5,60.5C 67.6618,60.1583 67.3284,59.4916 67.5,58.5 Z"/></g>
<g><path style="opacity:0.097" fill="#201107" d="M 82.5,59.5 C 83.4972,59.4701 84.1639,59.9701 84.5,61C 82.3634,66.9834 81.0301,73.15 80.5,79.5C 77.0618,80.3556 73.7285,80.6889 70.5,80.5C 71.7671,78.9611 72.7671,77.2944 73.5,75.5C 73.8333,76.1667 74.1667,76.8333 74.5,77.5C 75.9187,78.4511 77.5853,78.7845 79.5,78.5C 80.0191,72.0904 81.0191,65.7571 82.5,59.5 Z"/></g>
<g><path style="opacity:1" fill="#f8d475" d="M 38.5,60.5 C 40.5582,59.0669 42.8915,58.4003 45.5,58.5C 45.8333,59.1667 46.1667,59.8333 46.5,60.5C 46.5858,61.4959 46.2524,62.3292 45.5,63C 41.3956,63.2714 39.0623,65.438 38.5,69.5C 37.7321,70.2625 37.2321,71.2625 37,72.5C 35.8904,70.9632 34.3904,70.2965 32.5,70.5C 32.7845,68.5853 32.4511,66.9187 31.5,65.5C 29.8716,64.1472 28.5383,64.4805 27.5,66.5C 23.551,66.191 22.8843,64.8577 25.5,62.5C 29.2023,57.1933 33.0356,57.1933 37,62.5C 37.7172,61.9558 38.2172,61.2891 38.5,60.5 Z"/></g>
<g><path style="opacity:1" fill="#0a0e13" d="M 58.5,59.5 C 59.1667,59.5 59.8333,59.5 60.5,59.5C 60.1667,60.5 59.5,61.1667 58.5,61.5C 58.5,60.8333 58.5,60.1667 58.5,59.5 Z"/></g>
<g><path style="opacity:1" fill="#f7d375" d="M 67.5,58.5 C 67.3284,59.4916 67.6618,60.1583 68.5,60.5C 68.5405,63.8806 68.2071,67.2139 67.5,70.5C 67.1667,71.1667 66.8333,71.8333 66.5,72.5C 65.8333,72.5 65.1667,72.5 64.5,72.5C 65.2186,70.2362 65.552,67.9029 65.5,65.5C 64.7494,64.4265 63.7494,64.2599 62.5,65C 61.3636,66.1451 60.3636,67.3117 59.5,68.5C 58.7784,68.0825 58.2784,67.4158 58,66.5C 57.2208,69.0972 56.7208,69.0972 56.5,66.5C 56.5,65.8333 56.5,65.1667 56.5,64.5C 57.4013,63.7095 58.0679,62.7095 58.5,61.5C 59.5,61.1667 60.1667,60.5 60.5,59.5C 62.7638,58.7814 65.0971,58.448 67.5,58.5 Z"/></g>
<g><path style="opacity:1" fill="#ebc870" d="M 13.5,59.5 C 16.1873,59.3359 18.854,59.5026 21.5,60C 22.4709,61.4813 23.8042,62.3146 25.5,62.5C 22.8843,64.8577 23.551,66.191 27.5,66.5C 26.8902,67.391 26.5569,68.391 26.5,69.5C 24.3536,72.7625 22.8536,72.7625 22,69.5C 21.2828,70.0442 20.7828,70.7109 20.5,71.5C 19.5,71.5 18.5,71.5 17.5,71.5C 17.5,70.8333 17.5,70.1667 17.5,69.5C 19.1042,68.713 19.7709,67.3797 19.5,65.5C 18.791,64.596 17.791,64.2627 16.5,64.5C 16.702,66.9496 16.3686,69.283 15.5,71.5C 14.7784,71.0825 14.2784,70.4158 14,69.5C 13.2432,71.3146 12.4098,72.9812 11.5,74.5C 12.0508,71.1933 12.3841,67.8599 12.5,64.5C 12.2155,62.5853 12.5489,60.9187 13.5,59.5 Z"/></g>
<g><path style="opacity:1" fill="#f3ce72" d="M 56.5,58.5 C 56.5,60.1667 56.5,61.8333 56.5,63.5C 55.1667,63.5 53.8333,63.5 52.5,63.5C 51.596,64.209 51.2627,65.209 51.5,66.5C 55.0048,66.6941 55.3382,67.6941 52.5,69.5C 51.5084,69.3284 50.8417,69.6618 50.5,70.5C 47.728,69.2329 45.0613,69.2329 42.5,70.5C 41.596,69.791 41.2627,68.791 41.5,67.5C 41.8333,67.5 42.1667,67.5 42.5,67.5C 44.8477,67.4077 46.5144,66.4077 47.5,64.5C 48.404,63.791 48.7373,62.791 48.5,61.5C 48.5,60.8333 48.5,60.1667 48.5,59.5C 51.2788,59.7214 53.9455,59.388 56.5,58.5 Z"/></g>
<g><path style="opacity:1" fill="#bf501e" d="M 56.5,58.5 C 57.1667,58.8333 57.8333,59.1667 58.5,59.5C 58.5,60.1667 58.5,60.8333 58.5,61.5C 58.0679,62.7095 57.4013,63.7095 56.5,64.5C 55.209,64.2627 54.209,64.596 53.5,65.5C 52.6618,65.1583 52.3284,64.4916 52.5,63.5C 53.8333,63.5 55.1667,63.5 56.5,63.5C 56.5,61.8333 56.5,60.1667 56.5,58.5 Z"/></g>
<g><path style="opacity:1" fill="#913715" d="M 31.5,65.5 C 31.1667,66.1667 30.8333,66.8333 30.5,67.5C 30.5,67.8333 30.5,68.1667 30.5,68.5C 29.8333,69.1667 29.1667,69.8333 28.5,70.5C 27.596,71.209 27.2627,72.209 27.5,73.5C 26.5655,72.4324 26.2322,71.099 26.5,69.5C 26.5569,68.391 26.8902,67.391 27.5,66.5C 28.5383,64.4805 29.8716,64.1472 31.5,65.5 Z"/></g>
<g><path style="opacity:0.969" fill="#1f1619" d="M 47.5,64.5 C 46.5144,66.4077 44.8477,67.4077 42.5,67.5C 43.7682,65.953 45.4348,64.953 47.5,64.5 Z"/></g>
<g><path style="opacity:1" fill="#48221a" d="M 53.5,65.5 C 54.209,64.596 55.209,64.2627 56.5,64.5C 56.5,65.1667 56.5,65.8333 56.5,66.5C 55.609,65.8902 54.609,65.5569 53.5,65.5 Z"/></g>
<g><path style="opacity:1" fill="#b74c1e" d="M 19.5,65.5 C 18.3263,66.5137 17.6596,67.847 17.5,69.5C 17.5,70.1667 17.5,70.8333 17.5,71.5C 16.6043,72.5063 15.9377,72.5063 15.5,71.5C 16.3686,69.283 16.702,66.9496 16.5,64.5C 17.791,64.2627 18.791,64.596 19.5,65.5 Z"/></g>
<g><path style="opacity:1" fill="#46160e" d="M 19.5,65.5 C 19.7709,67.3797 19.1042,68.713 17.5,69.5C 17.6596,67.847 18.3263,66.5137 19.5,65.5 Z"/></g>
<g><path style="opacity:0.137" fill="#1b1715" d="M 12.5,64.5 C 12.3841,67.8599 12.0508,71.1933 11.5,74.5C 11.5,75.5 11.5,76.5 11.5,77.5C 12.9187,78.4511 14.5853,78.7845 16.5,78.5C 13.4485,81.6489 11.1152,81.1489 9.5,77C 10.2448,72.6447 11.2448,68.478 12.5,64.5 Z"/></g>
<g><path style="opacity:1" fill="#665b44" d="M 31.5,65.5 C 32.4511,66.9187 32.7845,68.5853 32.5,70.5C 31.8333,70.8333 31.1667,71.1667 30.5,71.5C 30.5,70.5 30.5,69.5 30.5,68.5C 31.8333,68.1667 31.8333,67.8333 30.5,67.5C 30.8333,66.8333 31.1667,66.1667 31.5,65.5 Z"/></g>
<g><path style="opacity:1" fill="#ab451b" d="M 46.5,60.5 C 47.1667,60.8333 47.8333,61.1667 48.5,61.5C 48.7373,62.791 48.404,63.791 47.5,64.5C 45.4348,64.953 43.7682,65.953 42.5,67.5C 42.1667,67.5 41.8333,67.5 41.5,67.5C 40.5418,69.3024 39.8751,71.3024 39.5,73.5C 38.5655,72.4324 38.2322,71.099 38.5,69.5C 39.0623,65.438 41.3956,63.2714 45.5,63C 46.2524,62.3292 46.5858,61.4959 46.5,60.5 Z"/></g>
<g><path style="opacity:1" fill="#b78052" d="M 41.5,67.5 C 41.2627,68.791 41.596,69.791 42.5,70.5C 43.3382,70.8417 43.6716,71.5084 43.5,72.5C 42.4617,74.5195 41.1284,74.8528 39.5,73.5C 39.8751,71.3024 40.5418,69.3024 41.5,67.5 Z"/></g>
<g><path style="opacity:1" fill="#f4c568" d="M 70.5,59.5 C 71.8333,59.5 73.1667,59.5 74.5,59.5C 74.3991,69.3288 75.0658,69.6621 76.5,60.5C 78.0418,59.6993 79.7085,59.366 81.5,59.5C 79.8779,63.3219 78.8779,67.3219 78.5,71.5C 75.7104,71.7508 72.7104,71.7508 69.5,71.5C 69.8333,68.1667 70.1667,64.8333 70.5,61.5C 70.5,60.8333 70.5,60.1667 70.5,59.5 Z"/></g>
<g><path style="opacity:1" fill="#c1642f" d="M 74.5,59.5 C 75.1667,59.8333 75.8333,60.1667 76.5,60.5C 75.0658,69.6621 74.3991,69.3288 74.5,59.5 Z"/></g>
<g><path style="opacity:1" fill="#ab4119" d="M 65.5,65.5 C 64.5,65.8333 63.8333,66.5 63.5,67.5C 63.5,68.1667 63.5,68.8333 63.5,69.5C 63.1667,69.5 62.8333,69.5 62.5,69.5C 60.8958,70.287 60.2291,71.6203 60.5,73.5C 59.5489,72.0813 59.2155,70.4147 59.5,68.5C 60.3636,67.3117 61.3636,66.1451 62.5,65C 63.7494,64.2599 64.7494,64.4265 65.5,65.5 Z"/></g>
<g><path style="opacity:0.867" fill="#312521" d="M 65.5,65.5 C 65.552,67.9029 65.2186,70.2362 64.5,72.5C 63.2921,73.2341 61.9587,73.5674 60.5,73.5C 60.2291,71.6203 60.8958,70.287 62.5,69.5C 62.8333,72.1667 63.1667,72.1667 63.5,69.5C 64.8333,68.8333 64.8333,68.1667 63.5,67.5C 63.8333,66.5 64.5,65.8333 65.5,65.5 Z"/></g>
<g><path style="opacity:1" fill="#e89c46" d="M 15.5,71.5 C 15.9377,72.5063 16.6043,72.5063 17.5,71.5C 18.5,71.5 19.5,71.5 20.5,71.5C 18.0463,74.2813 15.0463,76.2813 11.5,77.5C 11.5,76.5 11.5,75.5 11.5,74.5C 12.4098,72.9812 13.2432,71.3146 14,69.5C 14.2784,70.4158 14.7784,71.0825 15.5,71.5 Z"/></g>
<g><path style="opacity:1" fill="#e29848" d="M 68.5,60.5 C 69.1667,60.8333 69.8333,61.1667 70.5,61.5C 70.1667,64.8333 69.8333,68.1667 69.5,71.5C 72.7104,71.7508 75.7104,71.7508 78.5,71.5C 78.5,73.1667 78.5,74.8333 78.5,76.5C 77.0413,76.4326 75.7079,76.7659 74.5,77.5C 74.1667,76.8333 73.8333,76.1667 73.5,75.5C 73.5386,74.2438 73.0386,73.2438 72,72.5C 71.5065,74.1341 71.3398,75.8008 71.5,77.5C 70.0413,77.4326 68.7079,77.7659 67.5,78.5C 67.5,77.5 67.5,76.5 67.5,75.5C 68.0965,73.602 68.0965,71.9354 67.5,70.5C 68.2071,67.2139 68.5405,63.8806 68.5,60.5 Z"/></g>
<g><path style="opacity:1" fill="#e69944" d="M 26.5,69.5 C 26.2322,71.099 26.5655,72.4324 27.5,73.5C 29.1788,73.7148 30.1788,73.0481 30.5,71.5C 31.1667,71.1667 31.8333,70.8333 32.5,70.5C 34.3904,70.2965 35.8904,70.9632 37,72.5C 37.2321,71.2625 37.7321,70.2625 38.5,69.5C 38.2322,71.099 38.5655,72.4324 39.5,73.5C 41.1284,74.8528 42.4617,74.5195 43.5,72.5C 44.1667,72.5 44.8333,72.5 45.5,72.5C 43.4662,77.172 40.1329,78.5054 35.5,76.5C 35.5,76.1667 35.5,75.8333 35.5,75.5C 33.7659,70.3338 32.0992,70.5005 30.5,76C 28.6547,77.128 26.6547,77.628 24.5,77.5C 24.1583,76.6618 23.4916,76.3284 22.5,76.5C 22.5979,74.4471 21.9313,72.7804 20.5,71.5C 20.7828,70.7109 21.2828,70.0442 22,69.5C 22.8536,72.7625 24.3536,72.7625 26.5,69.5 Z"/></g>
<g><path style="opacity:0.514" fill="#242223" d="M 28.5,70.5 C 28.4088,72.6977 29.0755,73.0311 30.5,71.5C 30.1788,73.0481 29.1788,73.7148 27.5,73.5C 27.2627,72.209 27.596,71.209 28.5,70.5 Z"/></g>
<g><path style="opacity:1" fill="#e7a14d" d="M 52.5,63.5 C 52.3284,64.4916 52.6618,65.1583 53.5,65.5C 54.609,65.5569 55.609,65.8902 56.5,66.5C 56.7208,69.0972 57.2208,69.0972 58,66.5C 58.2784,67.4158 58.7784,68.0825 59.5,68.5C 59.2155,70.4147 59.5489,72.0813 60.5,73.5C 61.9587,73.5674 63.2921,73.2341 64.5,72.5C 65.1667,72.5 65.8333,72.5 66.5,72.5C 64.8413,75.833 62.1746,77.4997 58.5,77.5C 57.8333,77.1667 57.1667,76.8333 56.5,76.5C 56.2914,75.0783 55.7914,73.745 55,72.5C 54.5172,73.448 54.3505,74.448 54.5,75.5C 52.1432,75.3367 49.8098,75.5034 47.5,76C 46.944,76.3826 46.6107,76.8826 46.5,77.5C 46.1667,77.5 45.8333,77.5 45.5,77.5C 46.7308,75.029 46.7308,73.3623 45.5,72.5C 44.8333,72.5 44.1667,72.5 43.5,72.5C 43.6716,71.5084 43.3382,70.8417 42.5,70.5C 45.0613,69.2329 47.728,69.2329 50.5,70.5C 50.56,71.0431 50.8933,71.3764 51.5,71.5C 52.7946,70.9017 54.1279,70.4017 55.5,70C 54.552,69.5172 53.552,69.3505 52.5,69.5C 55.3382,67.6941 55.0048,66.6941 51.5,66.5C 51.2627,65.209 51.596,64.209 52.5,63.5 Z"/></g>
<g><path style="opacity:1" fill="#a53410" d="M 52.5,69.5 C 53.552,69.3505 54.552,69.5172 55.5,70C 54.1279,70.4017 52.7946,70.9017 51.5,71.5C 50.8933,71.3764 50.56,71.0431 50.5,70.5C 50.8417,69.6618 51.5084,69.3284 52.5,69.5 Z"/></g>
<g><path style="opacity:1" fill="#af4219" d="M 67.5,70.5 C 68.0965,71.9354 68.0965,73.602 67.5,75.5C 66.5987,76.2905 65.9321,77.2905 65.5,78.5C 64.1825,78.821 62.8492,79.1543 61.5,79.5C 59.9623,79.5466 58.9623,78.8799 58.5,77.5C 62.1746,77.4997 64.8413,75.833 66.5,72.5C 66.8333,71.8333 67.1667,71.1667 67.5,70.5 Z"/></g>
<g><path style="opacity:1" fill="#823315" d="M 20.5,71.5 C 21.9313,72.7804 22.5979,74.4471 22.5,76.5C 21.8826,76.3893 21.3826,76.056 21,75.5C 19.871,77.1412 18.371,78.1412 16.5,78.5C 14.5853,78.7845 12.9187,78.4511 11.5,77.5C 15.0463,76.2813 18.0463,74.2813 20.5,71.5 Z"/></g>
<g><path style="opacity:0.437" fill="#160c06" d="M 35.5,75.5 C 35.5,75.8333 35.5,76.1667 35.5,76.5C 35.5,76.8333 35.5,77.1667 35.5,77.5C 33.8333,78.1667 32.1667,78.8333 30.5,79.5C 31.5846,77.4131 33.2512,76.0798 35.5,75.5 Z"/></g>
<g><path style="opacity:1" fill="#bd5524" d="M 56.5,76.5 C 53.0998,77.9307 49.7664,78.264 46.5,77.5C 46.6107,76.8826 46.944,76.3826 47.5,76C 49.8098,75.5034 52.1432,75.3367 54.5,75.5C 54.3505,74.448 54.5172,73.448 55,72.5C 55.7914,73.745 56.2914,75.0783 56.5,76.5 Z"/></g>
<g><path style="opacity:1" fill="#b74b1e" d="M 35.5,75.5 C 33.2512,76.0798 31.5846,77.4131 30.5,79.5C 27.9899,79.9465 25.9899,79.2798 24.5,77.5C 26.6547,77.628 28.6547,77.128 30.5,76C 32.0992,70.5005 33.7659,70.3338 35.5,75.5 Z"/></g>
<g><path style="opacity:0.388" fill="#030000" d="M 35.5,77.5 C 36.5,77.8333 37.1667,78.5 37.5,79.5C 36.1667,79.5 35.5,78.8333 35.5,77.5 Z"/></g>
<g><path style="opacity:1" fill="#be5423" d="M 81.5,59.5 C 81.8333,59.5 82.1667,59.5 82.5,59.5C 81.0191,65.7571 80.0191,72.0904 79.5,78.5C 77.5853,78.7845 75.9187,78.4511 74.5,77.5C 75.7079,76.7659 77.0413,76.4326 78.5,76.5C 78.5,74.8333 78.5,73.1667 78.5,71.5C 78.8779,67.3219 79.8779,63.3219 81.5,59.5 Z"/></g>
<g><path style="opacity:1" fill="#b54b1f" d="M 45.5,77.5 C 44.8333,77.5 44.5,77.8333 44.5,78.5C 42.2362,79.2186 39.9029,79.552 37.5,79.5C 37.1667,78.5 36.5,77.8333 35.5,77.5C 35.5,77.1667 35.5,76.8333 35.5,76.5C 40.1329,78.5054 43.4662,77.172 45.5,72.5C 46.7308,73.3623 46.7308,75.029 45.5,77.5 Z"/></g>
<g><path style="opacity:0.988" fill="#231106" d="M 56.5,76.5 C 57.1667,76.8333 57.8333,77.1667 58.5,77.5C 58.9623,78.8799 59.9623,79.5466 61.5,79.5C 62.8492,79.1543 64.1825,78.821 65.5,78.5C 64.3778,79.9473 62.8778,80.9473 61,81.5C 56.8572,78.1257 52.3572,77.7924 47.5,80.5C 46.4822,79.8075 45.4822,79.1408 44.5,78.5C 44.5,77.8333 44.8333,77.5 45.5,77.5C 45.8333,77.5 46.1667,77.5 46.5,77.5C 49.7664,78.264 53.0998,77.9307 56.5,76.5 Z"/></g>
<g><path style="opacity:1" fill="#b44a1e" d="M 73.5,75.5 C 72.7671,77.2944 71.7671,78.9611 70.5,80.5C 68.9731,80.573 67.9731,79.9063 67.5,78.5C 68.7079,77.7659 70.0413,77.4326 71.5,77.5C 71.3398,75.8008 71.5065,74.1341 72,72.5C 73.0386,73.2438 73.5386,74.2438 73.5,75.5 Z"/></g>
<g><path style="opacity:0.737" fill="#1c0d06" d="M 22.5,76.5 C 23.4916,76.3284 24.1583,76.6618 24.5,77.5C 25.9899,79.2798 27.9899,79.9465 30.5,79.5C 28.8552,81.81 26.8552,81.9766 24.5,80C 23.695,78.8873 23.0283,77.7206 22.5,76.5 Z"/></g>
<g><path style="opacity:0.255" fill="#120601" d="M 44.5,78.5 C 42.2537,81.2839 39.9204,81.6173 37.5,79.5C 39.9029,79.552 42.2362,79.2186 44.5,78.5 Z"/></g>
<g><path style="opacity:0.31" fill="#0e0c0c" d="M 67.5,75.5 C 67.5,76.5 67.5,77.5 67.5,78.5C 67.9731,79.9063 68.9731,80.573 70.5,80.5C 69.7494,81.5735 68.7494,81.7401 67.5,81C 66.9341,80.0053 66.2674,79.172 65.5,78.5C 65.9321,77.2905 66.5987,76.2905 67.5,75.5 Z"/></g>
</svg>
