<?xml version="1.0" encoding="UTF-8"?>
<!DOCTYPE svg PUBLIC "-//W3C//DTD SVG 1.1//EN" "http://www.w3.org/Graphics/SVG/1.1/DTD/svg11.dtd">
<svg xmlns="http://www.w3.org/2000/svg" version="1.1" width="96px" height="96px" style="shape-rendering:geometricPrecision; text-rendering:geometricPrecision; image-rendering:optimizeQuality; fill-rule:evenodd; clip-rule:evenodd" xmlns:xlink="http://www.w3.org/1999/xlink">
<g><path style="opacity:0.995" fill="#cefab3" d="M -0.5,-0.5 C 9.83333,-0.5 20.1667,-0.5 30.5,-0.5C 29.4264,0.884606 28.0931,2.05127 26.5,3C 29.5,3.33333 32.5,3.66667 35.5,4C 31.3123,4.17618 27.3123,4.67618 23.5,5.5C 16.6771,6.98988 12.0105,10.9899 9.5,17.5C 8.83333,17.5 8.5,17.8333 8.5,18.5C 4.63829,21.5499 2.30496,25.5499 1.5,30.5C 0.833333,31.8333 0.166667,33.1667 -0.5,34.5C -0.5,22.8333 -0.5,11.1667 -0.5,-0.5 Z"/></g>
<g><path style="opacity:1" fill="#b7efa6" d="M 30.5,-0.5 C 39.5,-0.5 48.5,-0.5 57.5,-0.5C 57.5,-0.166667 57.5,0.166667 57.5,0.5C 55.2143,0.594955 53.2143,1.26162 51.5,2.5C 47.5,3.5 43.5,4.5 39.5,5.5C 34.1667,5.5 28.8333,5.5 23.5,5.5C 27.3123,4.67618 31.3123,4.17618 35.5,4C 32.5,3.66667 29.5,3.33333 26.5,3C 28.0931,2.05127 29.4264,0.884606 30.5,-0.5 Z"/></g>
<g><path style="opacity:1" fill="#7dd856" d="M 57.5,0.5 C 65.7207,-0.541137 72.3874,2.12553 77.5,8.5C 79.0857,11.2569 80.0857,14.2569 80.5,17.5C 78.0202,16.758 75.6869,15.758 73.5,14.5C 66.1745,10.5036 58.8411,6.50356 51.5,2.5C 53.2143,1.26162 55.2143,0.594955 57.5,0.5 Z"/></g>
<g><path style="opacity:0.996" fill="#a3f1a2" d="M 57.5,0.5 C 57.5,0.166667 57.5,-0.166667 57.5,-0.5C 70.1667,-0.5 82.8333,-0.5 95.5,-0.5C 95.5,3.16667 95.5,6.83333 95.5,10.5C 91.893,11.2426 88.893,12.9093 86.5,15.5C 84.3884,12.0585 81.3884,9.72521 77.5,8.5C 72.3874,2.12553 65.7207,-0.541137 57.5,0.5 Z"/></g>
<g><path style="opacity:1" fill="#0a7e36" d="M 23.5,5.5 C 28.8333,5.5 34.1667,5.5 39.5,5.5C 35.6003,7.1411 31.6003,8.80777 27.5,10.5C 26.7025,10.9569 26.3691,11.6236 26.5,12.5C 20.4624,12.4313 14.7957,14.0979 9.5,17.5C 12.0105,10.9899 16.6771,6.98988 23.5,5.5 Z"/></g>
<g><path style="opacity:1" fill="#5cc04e" d="M 51.5,2.5 C 58.8411,6.50356 66.1745,10.5036 73.5,14.5C 72.2794,15.0283 71.1127,15.695 70,16.5C 66.2435,15.9225 62.5769,15.9225 59,16.5C 48.9026,15.4235 38.9026,13.7569 29,11.5C 28.3292,12.2524 27.4959,12.5858 26.5,12.5C 26.3691,11.6236 26.7025,10.9569 27.5,10.5C 31.6003,8.80777 35.6003,7.1411 39.5,5.5C 43.5,4.5 47.5,3.5 51.5,2.5 Z"/></g>
<g><path style="opacity:0.991" fill="#89ec99" d="M 95.5,10.5 C 95.5,17.5 95.5,24.5 95.5,31.5C 93.5488,28.2139 91.2154,25.2139 88.5,22.5C 88.1218,20.079 87.4552,17.7457 86.5,15.5C 88.893,12.9093 91.893,11.2426 95.5,10.5 Z"/></g>
<g><path style="opacity:1" fill="#44a947" d="M 77.5,8.5 C 81.3884,9.72521 84.3884,12.0585 86.5,15.5C 87.4552,17.7457 88.1218,20.079 88.5,22.5C 88.5,28.8333 88.5,35.1667 88.5,41.5C 85.4955,41.2501 83.6622,42.5834 83,45.5C 82.8272,39.6518 82.3272,33.9851 81.5,28.5C 81.1667,28.5 80.8333,28.5 80.5,28.5C 79.0813,27.5489 77.4147,27.2155 75.5,27.5C 75.5,29.5 75.5,31.5 75.5,33.5C 73.8333,33.5 72.1667,33.5 70.5,33.5C 70.5,31.5 70.5,29.5 70.5,27.5C 68.8333,27.5 67.1667,27.5 65.5,27.5C 65.5,31.1667 65.5,34.8333 65.5,38.5C 64.8333,38.1667 64.1667,37.8333 63.5,37.5C 60.7665,35.1385 57.7665,33.1385 54.5,31.5C 56.6114,30.1515 58.4447,30.4848 60,32.5C 61.9756,31.4567 62.4756,30.1233 61.5,28.5C 57.4811,26.9823 53.6478,27.3157 50,29.5C 49.3333,31.5 49.3333,33.5 50,35.5C 52.6856,37.0543 55.5189,38.3876 58.5,39.5C 56.5578,41.9748 54.5578,41.9748 52.5,39.5C 51.205,38.5116 49.8717,37.5116 48.5,36.5C 48.8064,33.6146 48.4731,30.9479 47.5,28.5C 46.0813,27.5489 44.4147,27.2155 42.5,27.5C 42.5,31.8333 42.5,36.1667 42.5,40.5C 40.8561,40.7135 39.3561,40.3802 38,39.5C 37.5012,35.5138 37.3345,31.5138 37.5,27.5C 35.8333,27.5 34.1667,27.5 32.5,27.5C 32.5,31.5 32.5,35.5 32.5,39.5C 31.6762,35.6877 31.1762,31.6877 31,27.5C 30.6174,28.056 30.1174,28.3893 29.5,28.5C 28.0536,27.3871 26.3869,27.2204 24.5,28C 23.6138,29.6147 22.6138,31.1147 21.5,32.5C 20.8333,30.8333 20.1667,29.1667 19.5,27.5C 17.8333,27.5 16.1667,27.5 14.5,27.5C 13.6981,28.9516 13.1981,30.6183 13,32.5C 12.2917,31.6195 11.4584,30.9528 10.5,30.5C 12.9848,24.8623 15.9848,19.529 19.5,14.5C 22.307,16.4458 25.307,17.9458 28.5,19C 46.2424,24.1532 63.9091,25.3199 81.5,22.5C 81.634,20.7085 81.3007,19.0418 80.5,17.5C 80.0857,14.2569 79.0857,11.2569 77.5,8.5 Z"/></g>
<g><path style="opacity:1" fill="#4fb74a" d="M 26.5,12.5 C 27.4959,12.5858 28.3292,12.2524 29,11.5C 38.9026,13.7569 48.9026,15.4235 59,16.5C 62.5769,15.9225 66.2435,15.9225 70,16.5C 71.1127,15.695 72.2794,15.0283 73.5,14.5C 75.6869,15.758 78.0202,16.758 80.5,17.5C 81.3007,19.0418 81.634,20.7085 81.5,22.5C 63.9091,25.3199 46.2424,24.1532 28.5,19C 25.307,17.9458 22.307,16.4458 19.5,14.5C 15.9848,19.529 12.9848,24.8623 10.5,30.5C 9.48837,31.8717 8.48837,33.205 7.5,34.5C 7.26651,29.1053 7.59984,23.772 8.5,18.5C 8.5,17.8333 8.83333,17.5 9.5,17.5C 14.7957,14.0979 20.4624,12.4313 26.5,12.5 Z"/></g>
<g><path style="opacity:1" fill="#eff5f0" d="M 47.5,28.5 C 47.8789,33.2973 47.3789,37.964 46,42.5C 43.0964,44.2268 39.9297,44.8935 36.5,44.5C 34.457,43.4206 33.1237,41.754 32.5,39.5C 32.5,35.5 32.5,31.5 32.5,27.5C 34.1667,27.5 35.8333,27.5 37.5,27.5C 37.3345,31.5138 37.5012,35.5138 38,39.5C 39.3561,40.3802 40.8561,40.7135 42.5,40.5C 42.5,36.1667 42.5,31.8333 42.5,27.5C 44.4147,27.2155 46.0813,27.5489 47.5,28.5 Z"/></g>
<g><path style="opacity:1" fill="#f4f8f5" d="M 63.5,37.5 C 63.5,38.5 63.5,39.5 63.5,40.5C 60.859,44.1542 57.1923,45.4876 52.5,44.5C 48.6479,42.5449 48.6479,40.8783 52.5,39.5C 54.5578,41.9748 56.5578,41.9748 58.5,39.5C 55.5189,38.3876 52.6856,37.0543 50,35.5C 49.3333,33.5 49.3333,31.5 50,29.5C 53.6478,27.3157 57.4811,26.9823 61.5,28.5C 62.4756,30.1233 61.9756,31.4567 60,32.5C 58.4447,30.4848 56.6114,30.1515 54.5,31.5C 57.7665,33.1385 60.7665,35.1385 63.5,37.5 Z"/></g>
<g><path style="opacity:1" fill="#fafbfb" d="M 80.5,28.5 C 80.5,33.8333 80.5,39.1667 80.5,44.5C 79.1667,44.5 77.8333,44.5 76.5,44.5C 75.5386,42.7354 75.2053,40.7354 75.5,38.5C 74.0813,37.5489 72.4147,37.2155 70.5,37.5C 70.5,39.8333 70.5,42.1667 70.5,44.5C 69.1667,44.5 67.8333,44.5 66.5,44.5C 65.5386,42.7354 65.2053,40.7354 65.5,38.5C 65.5,34.8333 65.5,31.1667 65.5,27.5C 67.1667,27.5 68.8333,27.5 70.5,27.5C 70.5,29.5 70.5,31.5 70.5,33.5C 72.1667,33.5 73.8333,33.5 75.5,33.5C 75.5,31.5 75.5,29.5 75.5,27.5C 77.4147,27.2155 79.0813,27.5489 80.5,28.5 Z"/></g>
<g><path style="opacity:1" fill="#94e680" d="M 8.5,18.5 C 7.59984,23.772 7.26651,29.1053 7.5,34.5C 7.5,35.1667 7.5,35.8333 7.5,36.5C 6.16667,38.5 4.83333,40.5 3.5,42.5C 1.99974,38.6699 1.33308,34.6699 1.5,30.5C 2.30496,25.5499 4.63829,21.5499 8.5,18.5 Z"/></g>
<g><path style="opacity:0.991" fill="#2ca95a" d="M 88.5,22.5 C 91.2154,25.2139 93.5488,28.2139 95.5,31.5C 95.5,35.1667 95.5,38.8333 95.5,42.5C 94.4335,44.964 93.1002,47.2974 91.5,49.5C 90.4878,46.7428 89.4878,44.0761 88.5,41.5C 88.5,35.1667 88.5,28.8333 88.5,22.5 Z"/></g>
<g><path style="opacity:0.98" fill="#9aef9f" d="M 1.5,30.5 C 1.33308,34.6699 1.99974,38.6699 3.5,42.5C 2.41613,45.0041 1.0828,47.3374 -0.5,49.5C -0.5,44.5 -0.5,39.5 -0.5,34.5C 0.166667,33.1667 0.833333,31.8333 1.5,30.5 Z"/></g>
<g><path style="opacity:1" fill="#2d993e" d="M 14.5,27.5 C 13.8833,33.5982 14.55,39.2649 16.5,44.5C 17.9187,45.4511 19.5853,45.7845 21.5,45.5C 21.298,43.0504 21.6314,40.717 22.5,38.5C 23.3913,40.2905 24.3913,42.1239 25.5,44C 27.1341,44.4935 28.8008,44.6602 30.5,44.5C 29.4623,40.7518 28.129,37.0851 26.5,33.5C 27.1276,31.5548 28.1276,29.8881 29.5,28.5C 30.1174,28.3893 30.6174,28.056 31,27.5C 31.1762,31.6877 31.6762,35.6877 32.5,39.5C 33.1237,41.754 34.457,43.4206 36.5,44.5C 44.1623,47.3352 48.1623,44.6685 48.5,36.5C 49.8717,37.5116 51.205,38.5116 52.5,39.5C 48.6479,40.8783 48.6479,42.5449 52.5,44.5C 55.3035,45.6378 58.3035,45.8045 61.5,45C 62.6872,43.9805 63.6872,42.8139 64.5,41.5C 64.3764,40.8933 64.0431,40.56 63.5,40.5C 63.5,39.5 63.5,38.5 63.5,37.5C 64.1667,37.8333 64.8333,38.1667 65.5,38.5C 65.2053,40.7354 65.5386,42.7354 66.5,44.5C 67.9187,45.4511 69.5853,45.7845 71.5,45.5C 71.5,43.1667 71.5,40.8333 71.5,38.5C 72.8333,38.5 74.1667,38.5 75.5,38.5C 75.2053,40.7354 75.5386,42.7354 76.5,44.5C 77.9187,45.4511 79.5853,45.7845 81.5,45.5C 81.5,39.8333 81.5,34.1667 81.5,28.5C 82.3272,33.9851 82.8272,39.6518 83,45.5C 83.6622,42.5834 85.4955,41.2501 88.5,41.5C 89.4878,44.0761 90.4878,46.7428 91.5,49.5C 91.5,49.8333 91.5,50.1667 91.5,50.5C 89.6418,52.8831 88.3084,55.5498 87.5,58.5C 85.5954,61.3037 83.9287,64.3037 82.5,67.5C 81.8333,60.8333 81.1667,54.1667 80.5,47.5C 78.7354,46.5386 76.7354,46.2053 74.5,46.5C 74.6633,48.8568 74.4966,51.1902 74,53.5C 72.9509,51.3825 71.4509,49.7158 69.5,48.5C 67.7211,46.6565 65.3878,45.9898 62.5,46.5C 62.5,50.1667 62.5,53.8333 62.5,57.5C 62.1667,57.5 61.8333,57.5 61.5,57.5C 61.665,54.1501 61.4983,50.8168 61,47.5C 58.6194,46.565 56.1194,46.2317 53.5,46.5C 53.5,50.8333 53.5,55.1667 53.5,59.5C 53.1667,59.5 52.8333,59.5 52.5,59.5C 52.6641,56.8127 52.4974,54.146 52,51.5C 51.2411,49.9371 50.0744,48.9371 48.5,48.5C 38.1645,44.1122 32.6645,47.7788 32,59.5C 31.2753,58.9415 30.4419,58.6082 29.5,58.5C 22.2229,63.4153 19.7229,61.4153 22,52.5C 23.8709,51.3322 25.3709,51.8322 26.5,54C 33.0735,54.8531 34.0735,52.8531 29.5,48C 22.6789,44.8659 17.3456,46.3659 13.5,52.5C 10.4131,52.6334 8.41307,51.3001 7.5,48.5C 7.5,44.5 7.5,40.5 7.5,36.5C 7.5,35.8333 7.5,35.1667 7.5,34.5C 8.48837,33.205 9.48837,31.8717 10.5,30.5C 11.4584,30.9528 12.2917,31.6195 13,32.5C 13.1981,30.6183 13.6981,28.9516 14.5,27.5 Z"/></g>
<g><path style="opacity:1" fill="#1c6221" d="M 47.5,28.5 C 48.4731,30.9479 48.8064,33.6146 48.5,36.5C 48.1623,44.6685 44.1623,47.3352 36.5,44.5C 39.9297,44.8935 43.0964,44.2268 46,42.5C 47.3789,37.964 47.8789,33.2973 47.5,28.5 Z"/></g>
<g><path style="opacity:1" fill="#25642a" d="M 63.5,40.5 C 64.0431,40.56 64.3764,40.8933 64.5,41.5C 63.6872,42.8139 62.6872,43.9805 61.5,45C 58.3035,45.8045 55.3035,45.6378 52.5,44.5C 57.1923,45.4876 60.859,44.1542 63.5,40.5 Z"/></g>
<g><path style="opacity:1" fill="#176321" d="M 22.5,38.5 C 21.6314,40.717 21.298,43.0504 21.5,45.5C 19.5853,45.7845 17.9187,45.4511 16.5,44.5C 17.8333,44.5 19.1667,44.5 20.5,44.5C 20.3379,42.4727 20.5045,40.4727 21,38.5C 21.69,37.2617 22.19,37.2617 22.5,38.5 Z"/></g>
<g><path style="opacity:1" fill="#437a49" d="M 75.5,38.5 C 74.1667,38.5 72.8333,38.5 71.5,38.5C 71.5,40.8333 71.5,43.1667 71.5,45.5C 69.5853,45.7845 67.9187,45.4511 66.5,44.5C 67.8333,44.5 69.1667,44.5 70.5,44.5C 70.5,42.1667 70.5,39.8333 70.5,37.5C 72.4147,37.2155 74.0813,37.5489 75.5,38.5 Z"/></g>
<g><path style="opacity:1" fill="#3f7845" d="M 80.5,28.5 C 80.8333,28.5 81.1667,28.5 81.5,28.5C 81.5,34.1667 81.5,39.8333 81.5,45.5C 79.5853,45.7845 77.9187,45.4511 76.5,44.5C 77.8333,44.5 79.1667,44.5 80.5,44.5C 80.5,39.1667 80.5,33.8333 80.5,28.5 Z"/></g>
<g><path style="opacity:1" fill="#eff5ef" d="M 14.5,27.5 C 16.1667,27.5 17.8333,27.5 19.5,27.5C 19.2011,29.604 19.5344,31.604 20.5,33.5C 21.1067,33.3764 21.44,33.0431 21.5,32.5C 22.6138,31.1147 23.6138,29.6147 24.5,28C 26.3869,27.2204 28.0536,27.3871 29.5,28.5C 28.1276,29.8881 27.1276,31.5548 26.5,33.5C 28.129,37.0851 29.4623,40.7518 30.5,44.5C 28.8008,44.6602 27.1341,44.4935 25.5,44C 24.3913,42.1239 23.3913,40.2905 22.5,38.5C 22.19,37.2617 21.69,37.2617 21,38.5C 20.5045,40.4727 20.3379,42.4727 20.5,44.5C 19.1667,44.5 17.8333,44.5 16.5,44.5C 14.55,39.2649 13.8833,33.5982 14.5,27.5 Z"/></g>
<g><path style="opacity:1" fill="#9cb59f" d="M 19.5,27.5 C 20.1667,29.1667 20.8333,30.8333 21.5,32.5C 21.44,33.0431 21.1067,33.3764 20.5,33.5C 19.5344,31.604 19.2011,29.604 19.5,27.5 Z"/></g>
<g><path style="opacity:1" fill="#d3e9d8" d="M 69.5,48.5 C 67.6208,47.6586 65.6208,47.3253 63.5,47.5C 63.5,53.5 63.5,59.5 63.5,65.5C 64.8333,65.5 66.1667,65.5 67.5,65.5C 67.335,62.1501 67.5017,58.8168 68,55.5C 69.4813,56.4709 70.3146,57.8042 70.5,59.5C 69.8826,59.3893 69.3826,59.056 69,58.5C 68.6667,61.1667 68.3333,63.8333 68,66.5C 66.3333,67.8333 64.6667,67.8333 63,66.5C 62.502,63.5184 62.3354,60.5184 62.5,57.5C 62.5,53.8333 62.5,50.1667 62.5,46.5C 65.3878,45.9898 67.7211,46.6565 69.5,48.5 Z"/></g>
<g><path style="opacity:1" fill="#b2daba" d="M 61.5,57.5 C 61.5,60.5 61.5,63.5 61.5,66.5C 58.8333,66.5 56.1667,66.5 53.5,66.5C 53.5,64.1667 53.5,61.8333 53.5,59.5C 53.5,55.1667 53.5,50.8333 53.5,46.5C 56.1194,46.2317 58.6194,46.565 61,47.5C 61.4983,50.8168 61.665,54.1501 61.5,57.5 Z"/></g>
<g><path style="opacity:1" fill="#57ad6c" d="M 80.5,47.5 C 81.1667,54.1667 81.8333,60.8333 82.5,67.5C 82.5,68.1667 82.1667,68.5 81.5,68.5C 79.3736,67.9518 77.3736,67.2852 75.5,66.5C 77.1667,66.5 78.8333,66.5 80.5,66.5C 80.5,60.1667 80.5,53.8333 80.5,47.5 Z"/></g>
<g><path style="opacity:1" fill="#2a9741" d="M 69.5,48.5 C 74.3123,59.1218 76.6457,58.7885 76.5,47.5C 77.5,47.5 78.5,47.5 79.5,47.5C 79.5,53.5 79.5,59.5 79.5,65.5C 77.1417,65.7475 75.1417,65.0808 73.5,63.5C 73.2624,61.5956 72.2624,60.2623 70.5,59.5C 70.3146,57.8042 69.4813,56.4709 68,55.5C 67.5017,58.8168 67.335,62.1501 67.5,65.5C 66.1667,65.5 64.8333,65.5 63.5,65.5C 63.5,59.5 63.5,53.5 63.5,47.5C 65.6208,47.3253 67.6208,47.6586 69.5,48.5 Z"/></g>
<g><path style="opacity:1" fill="#cae6d1" d="M 80.5,47.5 C 80.5,53.8333 80.5,60.1667 80.5,66.5C 78.8333,66.5 77.1667,66.5 75.5,66.5C 74.0937,66.0269 73.427,65.0269 73.5,63.5C 75.1417,65.0808 77.1417,65.7475 79.5,65.5C 79.5,59.5 79.5,53.5 79.5,47.5C 78.5,47.5 77.5,47.5 76.5,47.5C 76.6457,58.7885 74.3123,59.1218 69.5,48.5C 71.4509,49.7158 72.9509,51.3825 74,53.5C 74.4966,51.1902 74.6633,48.8568 74.5,46.5C 76.7354,46.2053 78.7354,46.5386 80.5,47.5 Z"/></g>
<g><path style="opacity:1" fill="#40b364" d="M 7.5,36.5 C 7.5,40.5 7.5,44.5 7.5,48.5C 6.79287,51.7861 6.45954,55.1194 6.5,58.5C 6.74707,61.9387 6.41373,65.272 5.5,68.5C 2.57266,65.7114 0.572663,62.378 -0.5,58.5C -0.5,55.5 -0.5,52.5 -0.5,49.5C 1.0828,47.3374 2.41613,45.0041 3.5,42.5C 4.83333,40.5 6.16667,38.5 7.5,36.5 Z"/></g>
<g><path style="opacity:1" fill="#1e9237" d="M 55.5,47.5 C 56.8333,47.5 58.1667,47.5 59.5,47.5C 59.5,53.5 59.5,59.5 59.5,65.5C 58.1667,65.5 56.8333,65.5 55.5,65.5C 55.5,59.5 55.5,53.5 55.5,47.5 Z"/></g>
<g><path style="opacity:1" fill="#c4e3cb" d="M 48.5,48.5 C 50.0744,48.9371 51.2411,49.9371 52,51.5C 52.4974,54.146 52.6641,56.8127 52.5,59.5C 49.8324,66.7846 44.8324,68.9513 37.5,66C 35.6217,64.4571 34.1217,62.6238 33,60.5C 32.5814,61.6721 31.9147,62.6721 31,63.5C 30.3828,62.5509 30.5494,61.7175 31.5,61C 29.4903,58.9578 27.8236,59.2911 26.5,62C 21.7205,63.3935 19.3872,61.5602 19.5,56.5C 19.577,54.701 20.077,53.0344 21,51.5C 24.2079,51.2489 27.3745,51.2489 30.5,51.5C 25.752,46.199 20.9186,46.199 16,51.5C 13.9125,62.7461 18.4125,67.2461 29.5,65C 22.8027,69.1811 17.636,67.6811 14,60.5C 13.5026,57.854 13.3359,55.1873 13.5,52.5C 17.3456,46.3659 22.6789,44.8659 29.5,48C 34.0735,52.8531 33.0735,54.8531 26.5,54C 25.3709,51.8322 23.8709,51.3322 22,52.5C 19.7229,61.4153 22.2229,63.4153 29.5,58.5C 30.4419,58.6082 31.2753,58.9415 32,59.5C 32.6645,47.7788 38.1645,44.1122 48.5,48.5 Z"/></g>
<g><path style="opacity:1" fill="#29953d" d="M 48.5,48.5 C 52.7576,54.2743 52.4242,59.7743 47.5,65C 35.982,66.4709 32.1487,61.6376 36,50.5C 39.7269,47.3716 43.8935,46.705 48.5,48.5 Z"/></g>
<g><path style="opacity:1" fill="#d0e8d5" d="M 40.5,50.5 C 42.7659,50.1412 44.5993,50.8078 46,52.5C 46.6667,55.5 46.6667,58.5 46,61.5C 44,64.1667 42,64.1667 40,61.5C 39.2446,57.7446 39.4113,54.0779 40.5,50.5 Z"/></g>
<g><path style="opacity:1" fill="#2a973f" d="M 41.5,51.5 C 43.1238,51.3601 44.2904,52.0267 45,53.5C 45.6667,55.8333 45.6667,58.1667 45,60.5C 43.6667,61.8333 42.3333,61.8333 41,60.5C 40.2642,57.408 40.4309,54.408 41.5,51.5 Z"/></g>
<g><path style="opacity:1" fill="#dfefe3" d="M 70.5,59.5 C 72.2624,60.2623 73.2624,61.5956 73.5,63.5C 72.5,62.8333 71.5,62.1667 70.5,61.5C 70.5,60.8333 70.5,60.1667 70.5,59.5 Z"/></g>
<g><path style="opacity:1" fill="#1e8f3c" d="M 52.5,59.5 C 52.8333,59.5 53.1667,59.5 53.5,59.5C 53.5,61.8333 53.5,64.1667 53.5,66.5C 56.1667,66.5 58.8333,66.5 61.5,66.5C 61.5,63.5 61.5,60.5 61.5,57.5C 61.8333,57.5 62.1667,57.5 62.5,57.5C 62.3354,60.5184 62.502,63.5184 63,66.5C 64.6667,67.8333 66.3333,67.8333 68,66.5C 68.3333,63.8333 68.6667,61.1667 69,58.5C 69.3826,59.056 69.8826,59.3893 70.5,59.5C 70.5,60.1667 70.5,60.8333 70.5,61.5C 71.3201,65.2399 69.9868,67.5733 66.5,68.5C 59.1644,69.6912 51.9978,71.3578 45,73.5C 44.2753,72.9415 43.4419,72.6082 42.5,72.5C 34.2435,74.2869 25.9102,74.7869 17.5,74C 15.2746,73.4389 13.2746,72.4389 11.5,71C 11.9574,70.586 12.2907,70.086 12.5,69.5C 10.9976,64.8819 9.49756,60.2153 8,55.5C 7.76791,56.7375 7.26791,57.7375 6.5,58.5C 6.45954,55.1194 6.79287,51.7861 7.5,48.5C 8.41307,51.3001 10.4131,52.6334 13.5,52.5C 13.3359,55.1873 13.5026,57.854 14,60.5C 17.636,67.6811 22.8027,69.1811 29.5,65C 18.4125,67.2461 13.9125,62.7461 16,51.5C 20.9186,46.199 25.752,46.199 30.5,51.5C 27.3745,51.2489 24.2079,51.2489 21,51.5C 20.077,53.0344 19.577,54.701 19.5,56.5C 19.3872,61.5602 21.7205,63.3935 26.5,62C 27.8236,59.2911 29.4903,58.9578 31.5,61C 30.5494,61.7175 30.3828,62.5509 31,63.5C 31.9147,62.6721 32.5814,61.6721 33,60.5C 34.1217,62.6238 35.6217,64.4571 37.5,66C 44.8324,68.9513 49.8324,66.7846 52.5,59.5 Z"/></g>
<g><path style="opacity:1" fill="#65da65" d="M 91.5,50.5 C 94.3851,57.5722 93.8851,64.5722 90,71.5C 88.9609,72.7101 87.7942,73.7101 86.5,74.5C 87.3424,69.213 87.6757,63.8797 87.5,58.5C 88.3084,55.5498 89.6418,52.8831 91.5,50.5 Z"/></g>
<g><path style="opacity:1" fill="#168b3b" d="M 70.5,61.5 C 71.5,62.1667 72.5,62.8333 73.5,63.5C 73.427,65.0269 74.0937,66.0269 75.5,66.5C 77.3736,67.2852 79.3736,67.9518 81.5,68.5C 81.3404,70.153 80.6737,71.4863 79.5,72.5C 79.2089,71.3509 78.3756,70.6842 77,70.5C 60.3309,74.794 43.8309,78.4607 27.5,81.5C 21.0616,77.7327 14.3949,74.3994 7.5,71.5C 6.83333,70.5 6.16667,69.5 5.5,68.5C 6.41373,65.272 6.74707,61.9387 6.5,58.5C 7.26791,57.7375 7.76791,56.7375 8,55.5C 9.49756,60.2153 10.9976,64.8819 12.5,69.5C 12.2907,70.086 11.9574,70.586 11.5,71C 13.2746,72.4389 15.2746,73.4389 17.5,74C 25.9102,74.7869 34.2435,74.2869 42.5,72.5C 43.4419,72.6082 44.2753,72.9415 45,73.5C 51.9978,71.3578 59.1644,69.6912 66.5,68.5C 69.9868,67.5733 71.3201,65.2399 70.5,61.5 Z"/></g>
<g><path style="opacity:1" fill="#9cd95b" d="M 87.5,58.5 C 87.6757,63.8797 87.3424,69.213 86.5,74.5C 86.5,75.1667 86.1667,75.5 85.5,75.5C 82.8152,77.2591 79.8152,78.2591 76.5,78.5C 77.5,76.5 78.5,74.5 79.5,72.5C 80.6737,71.4863 81.3404,70.153 81.5,68.5C 82.1667,68.5 82.5,68.1667 82.5,67.5C 83.9287,64.3037 85.5954,61.3037 87.5,58.5 Z"/></g>
<g><path style="opacity:1" fill="#098438" d="M 79.5,72.5 C 78.5,74.5 77.5,76.5 76.5,78.5C 75.1667,81.1667 73.8333,83.8333 72.5,86.5C 66.915,92.8623 59.915,95.3623 51.5,94C 46.2655,91.2152 40.9321,88.7152 35.5,86.5C 33.2063,84.347 30.5396,82.6803 27.5,81.5C 43.8309,78.4607 60.3309,74.794 77,70.5C 78.3756,70.6842 79.2089,71.3509 79.5,72.5 Z"/></g>
<g><path style="opacity:1" fill="#c3dd62" d="M 85.5,75.5 C 83.3155,81.683 78.9821,85.3497 72.5,86.5C 73.8333,83.8333 75.1667,81.1667 76.5,78.5C 79.8152,78.2591 82.8152,77.2591 85.5,75.5 Z"/></g>
<g><path style="opacity:1" fill="#6bb650" d="M 7.5,71.5 C 14.3949,74.3994 21.0616,77.7327 27.5,81.5C 30.5396,82.6803 33.2063,84.347 35.5,86.5C 30.8333,86.5 26.1667,86.5 21.5,86.5C 14.0927,84.0917 9.42602,79.0917 7.5,71.5 Z"/></g>
<g><path style="opacity:0.998" fill="#27d571" d="M 95.5,42.5 C 95.5,60.1667 95.5,77.8333 95.5,95.5C 65.8333,95.5 36.1667,95.5 6.5,95.5C 11.451,92.7432 16.7844,90.5765 22.5,89C 21.7476,88.3292 21.4142,87.4959 21.5,86.5C 26.1667,86.5 30.8333,86.5 35.5,86.5C 40.9321,88.7152 46.2655,91.2152 51.5,94C 59.915,95.3623 66.915,92.8623 72.5,86.5C 78.9821,85.3497 83.3155,81.683 85.5,75.5C 86.1667,75.5 86.5,75.1667 86.5,74.5C 87.7942,73.7101 88.9609,72.7101 90,71.5C 93.8851,64.5722 94.3851,57.5722 91.5,50.5C 91.5,50.1667 91.5,49.8333 91.5,49.5C 93.1002,47.2974 94.4335,44.964 95.5,42.5 Z"/></g>
<g><path style="opacity:0.997" fill="#4ade80" d="M -0.5,58.5 C 0.572663,62.378 2.57266,65.7114 5.5,68.5C 6.16667,69.5 6.83333,70.5 7.5,71.5C 9.42602,79.0917 14.0927,84.0917 21.5,86.5C 21.4142,87.4959 21.7476,88.3292 22.5,89C 16.7844,90.5765 11.451,92.7432 6.5,95.5C 4.16667,95.5 1.83333,95.5 -0.5,95.5C -0.5,83.1667 -0.5,70.8333 -0.5,58.5 Z"/></g>
</svg>
