<?xml version="1.0" encoding="UTF-8"?>
<!DOCTYPE svg PUBLIC "-//W3C//DTD SVG 1.1//EN" "http://www.w3.org/Graphics/SVG/1.1/DTD/svg11.dtd">
<svg xmlns="http://www.w3.org/2000/svg" version="1.1" width="96px" height="96px" style="shape-rendering:geometricPrecision; text-rendering:geometricPrecision; image-rendering:optimizeQuality; fill-rule:evenodd; clip-rule:evenodd" xmlns:xlink="http://www.w3.org/1999/xlink">
<g><path style="opacity:0.643" fill="#010912" d="M 38.5,2.5 C 37.9573,5.03843 36.9573,7.37176 35.5,9.5C 32.2825,13.4359 28.9491,17.2692 25.5,21C 22.9963,21.6976 20.663,22.5309 18.5,23.5C 16.5992,23.4332 14.7659,23.7665 13,24.5C 11.2509,24.2517 10.4176,23.2517 10.5,21.5C 10.3284,20.5084 10.6618,19.8417 11.5,19.5C 23.6269,21.7706 30.2936,16.7706 31.5,4.5C 33.4559,2.85159 35.7892,2.18493 38.5,2.5 Z"/></g>
<g><path style="opacity:0.261" fill="#020c18" d="M 53.5,2.5 C 55.1667,2.5 56.8333,2.5 58.5,2.5C 60.2689,7.43335 62.2689,12.2667 64.5,17C 69.18,19.9693 74.3467,21.8027 80,22.5C 81.833,22.4814 83.333,21.8148 84.5,20.5C 86.4203,23.3388 88.0869,26.3388 89.5,29.5C 86.3248,27.8703 82.9915,26.3703 79.5,25C 72.7995,24.9948 67.2995,22.4948 63,17.5C 59.5828,12.5985 56.4161,7.59853 53.5,2.5 Z"/></g>
<g><path style="opacity:0.666" fill="#00060c" d="M 58.5,2.5 C 61.6061,2.93599 64.2728,4.26933 66.5,6.5C 66.3001,13.3028 69.6334,16.9694 76.5,17.5C 78.0296,17.3601 79.0296,16.6935 79.5,15.5C 81.5,16.8333 83.1667,18.5 84.5,20.5C 83.333,21.8148 81.833,22.4814 80,22.5C 74.3467,21.8027 69.18,19.9693 64.5,17C 62.2689,12.2667 60.2689,7.43335 58.5,2.5 Z"/></g>
<g><path style="opacity:0.405" fill="#000306" d="M 31.5,4.5 C 30.2936,16.7706 23.6269,21.7706 11.5,19.5C 17.0625,12.9255 23.7292,7.92552 31.5,4.5 Z"/></g>
<g><path style="opacity:0.906" fill="#061a36" d="M 43.5,7.5 C 45.6074,6.53178 47.9407,6.19845 50.5,6.5C 55.5405,9.04722 59.0405,13.0472 61,18.5C 66.0829,24.41 72.5829,27.5766 80.5,28C 82.3237,28.66 83.657,29.8267 84.5,31.5C 82.8333,30.8333 81.1667,30.1667 79.5,29.5C 78.5,29.5 77.5,29.5 76.5,29.5C 68.101,28.7085 62.2676,24.3752 59,16.5C 58.1841,15.1772 57.0174,14.5106 55.5,14.5C 54.8645,12.2054 53.5311,10.5387 51.5,9.5C 49.3647,7.63105 46.6981,6.96438 43.5,7.5 Z"/></g>
<g><path style="opacity:0.413" fill="#000203" d="M 66.5,6.5 C 71.6362,8.29681 75.9695,11.2968 79.5,15.5C 79.0296,16.6935 78.0296,17.3601 76.5,17.5C 69.6334,16.9694 66.3001,13.3028 66.5,6.5 Z"/></g>
<g><path style="opacity:1" fill="#072248" d="M 43.5,7.5 C 46.6981,6.96438 49.3647,7.63105 51.5,9.5C 48.222,7.89333 45.222,8.22666 42.5,10.5C 42.5569,9.39105 42.8902,8.39105 43.5,7.5 Z"/></g>
<g><path style="opacity:1" fill="#08244c" d="M 51.5,9.5 C 53.5311,10.5387 54.8645,12.2054 55.5,14.5C 53.4131,13.4154 52.0798,11.7488 51.5,9.5 Z"/></g>
<g><path style="opacity:1" fill="#0e366d" d="M 51.5,9.5 C 52.0798,11.7488 53.4131,13.4154 55.5,14.5C 55.5,15.1667 55.5,15.8333 55.5,16.5C 56.1667,18.8333 56.8333,21.1667 57.5,23.5C 55.3127,20.2609 53.3127,16.9275 51.5,13.5C 49.735,10.5512 47.4017,9.88455 44.5,11.5C 43.8333,11.5 43.5,11.8333 43.5,12.5C 41.953,13.7682 40.953,15.4348 40.5,17.5C 40.1667,17.5 39.8333,17.5 39.5,17.5C 39.9255,14.8808 40.9255,12.5475 42.5,10.5C 45.222,8.22666 48.222,7.89333 51.5,9.5 Z"/></g>
<g><path style="opacity:1" fill="#255f9e" d="M 44.5,11.5 C 47.4017,9.88455 49.735,10.5512 51.5,13.5C 51.5,13.8333 51.5,14.1667 51.5,14.5C 51.1667,14.5 50.8333,14.5 50.5,14.5C 50.1667,13.5 49.5,12.8333 48.5,12.5C 47.4324,11.5655 46.099,11.2322 44.5,11.5 Z"/></g>
<g><path style="opacity:1" fill="#2f70b0" d="M 44.5,11.5 C 46.099,11.2322 47.4324,11.5655 48.5,12.5C 46.5168,12.1568 45.1834,12.8235 44.5,14.5C 44.5,14.8333 44.5,15.1667 44.5,15.5C 44.1667,15.5 43.8333,15.5 43.5,15.5C 43.5,15.1667 43.5,14.8333 43.5,14.5C 43.5,13.8333 43.5,13.1667 43.5,12.5C 43.5,11.8333 43.8333,11.5 44.5,11.5 Z"/></g>
<g><path style="opacity:1" fill="#4396d2" d="M 48.5,12.5 C 49.5,12.8333 50.1667,13.5 50.5,14.5C 50.5,15.5 50.5,16.5 50.5,17.5C 50.1667,17.5 49.8333,17.5 49.5,17.5C 49.4747,13.7162 47.8081,12.7162 44.5,14.5C 45.1834,12.8235 46.5168,12.1568 48.5,12.5 Z"/></g>
<g><path style="opacity:1" fill="#59cef8" d="M 45.5,20.5 C 45.5,20.1667 45.5,19.8333 45.5,19.5C 45.5,18.1667 45.5,16.8333 45.5,15.5C 46.5,15.5 47.5,15.5 48.5,15.5C 48.5,17.1667 48.5,18.8333 48.5,20.5C 47.5,20.5 46.5,20.5 45.5,20.5 Z"/></g>
<g><path style="opacity:1" fill="#154e98" d="M 43.5,12.5 C 43.5,13.1667 43.5,13.8333 43.5,14.5C 41.7234,17.5046 40.7234,20.8379 40.5,24.5C 40.5,25.1667 40.5,25.8333 40.5,26.5C 39.8333,26.8333 39.1667,27.1667 38.5,27.5C 38.8511,24.0968 39.5178,20.7635 40.5,17.5C 40.953,15.4348 41.953,13.7682 43.5,12.5 Z"/></g>
<g><path style="opacity:1" fill="#51bcee" d="M 49.5,17.5 C 49.5,18.8333 49.5,20.1667 49.5,21.5C 47.901,21.7678 46.5676,21.4345 45.5,20.5C 46.5,20.5 47.5,20.5 48.5,20.5C 48.5,18.8333 48.5,17.1667 48.5,15.5C 47.5,15.5 46.5,15.5 45.5,15.5C 45.5,16.8333 45.5,18.1667 45.5,19.5C 45.1667,19.5 44.8333,19.5 44.5,19.5C 44.5,18.1667 44.5,16.8333 44.5,15.5C 44.5,15.1667 44.5,14.8333 44.5,14.5C 47.8081,12.7162 49.4747,13.7162 49.5,17.5 Z"/></g>
<g><path style="opacity:1" fill="#082040" d="M 43.5,7.5 C 42.8902,8.39105 42.5569,9.39105 42.5,10.5C 40.9826,10.5106 39.8159,11.1772 39,12.5C 37.4725,15.4167 36.1392,18.4167 35,21.5C 33.871,23.1412 32.371,24.1412 30.5,24.5C 33.64,20.6325 36.14,16.2992 38,11.5C 39.451,9.53594 41.2843,8.20261 43.5,7.5 Z"/></g>
<g><path style="opacity:1" fill="#114289" d="M 51.5,13.5 C 53.3127,16.9275 55.3127,20.2609 57.5,23.5C 57.5,24.1667 57.5,24.8333 57.5,25.5C 57.5,26.1667 57.5,26.8333 57.5,27.5C 56.8333,27.1667 56.1667,26.8333 55.5,26.5C 54.5376,22.6052 53.2043,18.9385 51.5,15.5C 51.5,15.1667 51.5,14.8333 51.5,14.5C 51.5,14.1667 51.5,13.8333 51.5,13.5 Z"/></g>
<g><path style="opacity:1" fill="#051326" d="M 44.5,2.5 C 47.5,2.5 50.5,2.5 53.5,2.5C 56.4161,7.59853 59.5828,12.5985 63,17.5C 67.2995,22.4948 72.7995,24.9948 79.5,25C 82.9915,26.3703 86.3248,27.8703 89.5,29.5C 90.147,31.1405 91.147,32.4739 92.5,33.5C 91.5,33.5 90.5,33.5 89.5,33.5C 89.8404,41.5598 86.8404,48.2264 80.5,53.5C 82.4448,49.7173 84.6114,46.0507 87,42.5C 87.6667,39.8333 87.6667,37.1667 87,34.5C 86.5831,33.244 85.7498,32.5774 84.5,32.5C 84.5,32.1667 84.5,31.8333 84.5,31.5C 83.657,29.8267 82.3237,28.66 80.5,28C 72.5829,27.5766 66.0829,24.41 61,18.5C 59.0405,13.0472 55.5405,9.04722 50.5,6.5C 48.3926,5.53178 46.0593,5.19845 43.5,5.5C 44.1098,4.60895 44.4431,3.60895 44.5,2.5 Z"/></g>
<g><path style="opacity:1" fill="#030d1b" d="M 35.5,9.5 C 33.377,14.2255 30.377,18.3921 26.5,22C 23.9373,23.0793 21.2706,23.5793 18.5,23.5C 20.663,22.5309 22.9963,21.6976 25.5,21C 28.9491,17.2692 32.2825,13.4359 35.5,9.5 Z"/></g>
<g><path style="opacity:1" fill="#2975c0" d="M 43.5,14.5 C 43.5,14.8333 43.5,15.1667 43.5,15.5C 43.5946,18.6967 42.9279,21.6967 41.5,24.5C 41.1667,24.5 40.8333,24.5 40.5,24.5C 40.7234,20.8379 41.7234,17.5046 43.5,14.5 Z"/></g>
<g><path style="opacity:1" fill="#3188d0" d="M 50.5,14.5 C 50.8333,14.5 51.1667,14.5 51.5,14.5C 51.5,14.8333 51.5,15.1667 51.5,15.5C 51.4013,18.2372 51.7347,20.9039 52.5,23.5C 51.8333,23.1667 51.1667,22.8333 50.5,22.5C 50.5,20.8333 50.5,19.1667 50.5,17.5C 50.5,16.5 50.5,15.5 50.5,14.5 Z"/></g>
<g><path style="opacity:0.411" fill="#020d1c" d="M 10.5,21.5 C 10.4176,23.2517 11.2509,24.2517 13,24.5C 14.7659,23.7665 16.5992,23.4332 18.5,23.5C 14.5713,25.1485 10.5713,26.8152 6.5,28.5C 6.99772,25.6737 8.33105,23.3403 10.5,21.5 Z"/></g>
<g><path style="opacity:1" fill="#051225" d="M 38.5,2.5 C 40.5,2.5 42.5,2.5 44.5,2.5C 44.4431,3.60895 44.1098,4.60895 43.5,5.5C 40.9438,6.54341 38.7772,8.21008 37,10.5C 34.6258,14.7495 32.1258,18.9162 29.5,23C 21.5323,24.3749 14.199,27.2082 7.5,31.5C 6.51078,35.1073 6.17744,38.774 6.5,42.5C 6.5,43.1667 6.5,43.8333 6.5,44.5C 5.39514,43.3995 4.06181,42.7329 2.5,42.5C 1.66449,36.9778 2.99783,32.3111 6.5,28.5C 10.5713,26.8152 14.5713,25.1485 18.5,23.5C 21.2706,23.5793 23.9373,23.0793 26.5,22C 30.377,18.3921 33.377,14.2255 35.5,9.5C 36.9573,7.37176 37.9573,5.03843 38.5,2.5 Z"/></g>
<g><path style="opacity:1" fill="#3c9de2" d="M 43.5,15.5 C 43.8333,15.5 44.1667,15.5 44.5,15.5C 44.5,16.8333 44.5,18.1667 44.5,19.5C 45.2564,23.1792 47.2564,24.1792 50.5,22.5C 51.1667,22.8333 51.8333,23.1667 52.5,23.5C 52.8333,24.1667 53.1667,24.8333 53.5,25.5C 53.3359,28.1873 53.5026,30.854 54,33.5C 54.6708,34.2524 55.5041,34.5858 56.5,34.5C 62.31,35.4896 68.31,35.8229 74.5,35.5C 74.5,35.8333 74.5,36.1667 74.5,36.5C 74.1667,36.5 73.8333,36.5 73.5,36.5C 72.8333,36.5 72.1667,36.5 71.5,36.5C 69.1432,36.3367 66.8098,36.5034 64.5,37C 65.7375,37.2321 66.7375,37.7321 67.5,38.5C 63.5,38.5 59.5,38.5 55.5,38.5C 53.2944,36.5453 51.6278,34.212 50.5,31.5C 51.3234,26.6606 49.3234,24.3272 44.5,24.5C 44.1667,26.5 43.8333,28.5 43.5,30.5C 41.6921,29.0821 41.0254,27.0821 41.5,24.5C 42.9279,21.6967 43.5946,18.6967 43.5,15.5 Z"/></g>
<g><path style="opacity:1" fill="#3fa8e8" d="M 49.5,17.5 C 49.8333,17.5 50.1667,17.5 50.5,17.5C 50.5,19.1667 50.5,20.8333 50.5,22.5C 47.2564,24.1792 45.2564,23.1792 44.5,19.5C 44.8333,19.5 45.1667,19.5 45.5,19.5C 45.5,19.8333 45.5,20.1667 45.5,20.5C 46.5676,21.4345 47.901,21.7678 49.5,21.5C 49.5,20.1667 49.5,18.8333 49.5,17.5 Z"/></g>
<g><path style="opacity:1" fill="#092347" d="M 55.5,14.5 C 57.0174,14.5106 58.1841,15.1772 59,16.5C 62.2676,24.3752 68.101,28.7085 76.5,29.5C 71.2048,29.5414 66.2048,28.3747 61.5,26C 59.3377,22.8204 57.3377,19.6537 55.5,16.5C 55.5,15.8333 55.5,15.1667 55.5,14.5 Z"/></g>
<g><path style="opacity:1" fill="#0f3d81" d="M 39.5,17.5 C 39.8333,17.5 40.1667,17.5 40.5,17.5C 39.5178,20.7635 38.8511,24.0968 38.5,27.5C 37.8333,27.8333 37.1667,28.1667 36.5,28.5C 36.7556,25.4021 37.4222,22.4021 38.5,19.5C 38.3284,18.5084 38.6618,17.8417 39.5,17.5 Z"/></g>
<g><path style="opacity:1" fill="#0a2953" d="M 42.5,10.5 C 40.9255,12.5475 39.9255,14.8808 39.5,17.5C 38.6618,17.8417 38.3284,18.5084 38.5,19.5C 36.7472,22.1556 35.0805,24.9889 33.5,28C 31.3225,29.2022 28.9892,29.7022 26.5,29.5C 23.1667,29.5 19.8333,29.5 16.5,29.5C 16.5,29.1667 16.5,28.8333 16.5,28.5C 20.534,28.3279 24.534,27.8279 28.5,27C 29.756,26.5831 30.4226,25.7498 30.5,24.5C 32.371,24.1412 33.871,23.1412 35,21.5C 36.1392,18.4167 37.4725,15.4167 39,12.5C 39.8159,11.1772 40.9826,10.5106 42.5,10.5 Z"/></g>
<g><path style="opacity:1" fill="#2e87d9" d="M 50.5,31.5 C 50.1667,31.5 49.8333,31.5 49.5,31.5C 49.9899,29.0516 49.1566,27.385 47,26.5C 45.9701,26.8361 45.4701,27.5028 45.5,28.5C 45.5,29.1667 45.5,29.8333 45.5,30.5C 44.9348,32.42 43.9348,34.0867 42.5,35.5C 42.366,33.7085 42.6993,32.0418 43.5,30.5C 43.8333,28.5 44.1667,26.5 44.5,24.5C 49.3234,24.3272 51.3234,26.6606 50.5,31.5 Z"/></g>
<g><path style="opacity:1" fill="#2274d2" d="M 49.5,31.5 C 49.1667,31.5 48.8333,31.5 48.5,31.5C 48.5,30.5 48.5,29.5 48.5,28.5C 47.5,28.5 46.5,28.5 45.5,28.5C 45.4701,27.5028 45.9701,26.8361 47,26.5C 49.1566,27.385 49.9899,29.0516 49.5,31.5 Z"/></g>
<g><path style="opacity:1" fill="#081f40" d="M 30.5,24.5 C 30.4226,25.7498 29.756,26.5831 28.5,27C 24.534,27.8279 20.534,28.3279 16.5,28.5C 21.1516,27.2586 25.8183,25.9253 30.5,24.5 Z"/></g>
<g><path style="opacity:1" fill="#2065b5" d="M 51.5,15.5 C 53.2043,18.9385 54.5376,22.6052 55.5,26.5C 55.317,28.9363 55.9837,31.103 57.5,33C 64.4921,33.4996 71.4921,33.6663 78.5,33.5C 79.1667,33.5 79.8333,33.5 80.5,33.5C 80.5,33.8333 80.5,34.1667 80.5,34.5C 72.5,34.5 64.5,34.5 56.5,34.5C 55.0466,31.6065 54.0466,28.6065 53.5,25.5C 53.1667,24.8333 52.8333,24.1667 52.5,23.5C 51.7347,20.9039 51.4013,18.2372 51.5,15.5 Z"/></g>
<g><path style="opacity:1" fill="#0b2d5e" d="M 55.5,16.5 C 57.3377,19.6537 59.3377,22.8204 61.5,26C 66.2048,28.3747 71.2048,29.5414 76.5,29.5C 77.5,29.5 78.5,29.5 79.5,29.5C 79.8333,30.1667 80.1667,30.8333 80.5,31.5C 74.1999,30.7935 67.8666,30.2935 61.5,30C 60.6719,28.0077 59.3386,26.5077 57.5,25.5C 57.5,24.8333 57.5,24.1667 57.5,23.5C 56.8333,21.1667 56.1667,18.8333 55.5,16.5 Z"/></g>
<g><path style="opacity:1" fill="#0e3976" d="M 57.5,25.5 C 59.3386,26.5077 60.6719,28.0077 61.5,30C 67.8666,30.2935 74.1999,30.7935 80.5,31.5C 80.5,31.8333 80.5,32.1667 80.5,32.5C 80.5,32.8333 80.5,33.1667 80.5,33.5C 79.8333,33.5 79.1667,33.5 78.5,33.5C 76.3926,32.5318 74.0593,32.1984 71.5,32.5C 66.777,31.9744 62.1103,30.9744 57.5,29.5C 57.5,28.8333 57.5,28.1667 57.5,27.5C 57.5,26.8333 57.5,26.1667 57.5,25.5 Z"/></g>
<g><path style="opacity:1" fill="#0b2d5e" d="M 16.5,29.5 C 19.8333,29.5 23.1667,29.5 26.5,29.5C 24.1667,30.1667 21.8333,30.8333 19.5,31.5C 17.8333,31.5 16.1667,31.5 14.5,31.5C 15.1667,30.8333 15.8333,30.1667 16.5,29.5 Z"/></g>
<g><path style="opacity:1" fill="#0d356f" d="M 38.5,19.5 C 37.4222,22.4021 36.7556,25.4021 36.5,28.5C 35.3579,30.9717 33.3579,31.9717 30.5,31.5C 26.8333,31.5 23.1667,31.5 19.5,31.5C 21.8333,30.8333 24.1667,30.1667 26.5,29.5C 28.9892,29.7022 31.3225,29.2022 33.5,28C 35.0805,24.9889 36.7472,22.1556 38.5,19.5 Z"/></g>
<g><path style="opacity:0.875" fill="#061934" d="M 43.5,5.5 C 46.0593,5.19845 48.3926,5.53178 50.5,6.5C 47.9407,6.19845 45.6074,6.53178 43.5,7.5C 41.2843,8.20261 39.451,9.53594 38,11.5C 36.14,16.2992 33.64,20.6325 30.5,24.5C 25.8183,25.9253 21.1516,27.2586 16.5,28.5C 16.5,28.8333 16.5,29.1667 16.5,29.5C 9.89177,30.2854 7.39177,33.952 9,40.5C 9.38258,41.056 9.88258,41.3893 10.5,41.5C 10.3284,42.4916 10.6618,43.1583 11.5,43.5C 11.5,44.8333 11.5,46.1667 11.5,47.5C 10.0001,45.7784 8.33343,44.1117 6.5,42.5C 6.17744,38.774 6.51078,35.1073 7.5,31.5C 14.199,27.2082 21.5323,24.3749 29.5,23C 32.1258,18.9162 34.6258,14.7495 37,10.5C 38.7772,8.21008 40.9438,6.54341 43.5,5.5 Z"/></g>
<g><path style="opacity:1" fill="#2876c7" d="M 40.5,26.5 C 40.4828,28.5648 40.1495,30.5648 39.5,32.5C 39.1667,33.5 38.5,34.1667 37.5,34.5C 38.038,32.8828 38.3713,31.2161 38.5,29.5C 38.5,28.8333 38.5,28.1667 38.5,27.5C 39.1667,27.1667 39.8333,26.8333 40.5,26.5 Z"/></g>
<g><path style="opacity:1" fill="#3591da" d="M 40.5,24.5 C 40.8333,24.5 41.1667,24.5 41.5,24.5C 41.0254,27.0821 41.6921,29.0821 43.5,30.5C 42.6993,32.0418 42.366,33.7085 42.5,35.5C 42.5,36.1667 42.1667,36.5 41.5,36.5C 41.8432,34.5168 41.1765,33.1834 39.5,32.5C 40.1495,30.5648 40.4828,28.5648 40.5,26.5C 40.5,25.8333 40.5,25.1667 40.5,24.5 Z"/></g>
<g><path style="opacity:1" fill="#195fc3" d="M 45.5,28.5 C 46.5,28.5 47.5,28.5 48.5,28.5C 48.5,29.5 48.5,30.5 48.5,31.5C 47.391,31.5569 46.391,31.8902 45.5,32.5C 45.5,31.8333 45.5,31.1667 45.5,30.5C 45.5,29.8333 45.5,29.1667 45.5,28.5 Z"/></g>
<g><path style="opacity:1" fill="#0f3e81" d="M 14.5,31.5 C 16.1667,31.5 17.8333,31.5 19.5,31.5C 23.1667,31.5 26.8333,31.5 30.5,31.5C 25.5,32.1667 20.5,32.8333 15.5,33.5C 15.1667,33.5 14.8333,33.5 14.5,33.5C 14.1667,33.5 13.8333,33.5 13.5,33.5C 13.8333,32.8333 14.1667,32.1667 14.5,31.5 Z"/></g>
<g><path style="opacity:1" fill="#104188" d="M 57.5,29.5 C 62.1103,30.9744 66.777,31.9744 71.5,32.5C 67.1539,32.6657 62.8206,32.499 58.5,32C 57.7476,31.3292 57.4142,30.4959 57.5,29.5 Z"/></g>
<g><path style="opacity:1" fill="#0e3264" d="M 14.5,31.5 C 14.1667,32.1667 13.8333,32.8333 13.5,33.5C 12.5,33.8333 11.8333,34.5 11.5,35.5C 10.5655,36.5676 10.2322,37.901 10.5,39.5C 8.56826,35.3871 9.9016,32.7204 14.5,31.5 Z"/></g>
<g><path style="opacity:1" fill="#134b99" d="M 38.5,27.5 C 38.5,28.1667 38.5,28.8333 38.5,29.5C 36.8958,30.287 36.2291,31.6203 36.5,33.5C 29.5,33.5 22.5,33.5 15.5,33.5C 20.5,32.8333 25.5,32.1667 30.5,31.5C 33.3579,31.9717 35.3579,30.9717 36.5,28.5C 37.1667,28.1667 37.8333,27.8333 38.5,27.5 Z"/></g>
<g><path style="opacity:1" fill="#328bd6" d="M 53.5,25.5 C 54.0466,28.6065 55.0466,31.6065 56.5,34.5C 55.5041,34.5858 54.6708,34.2524 54,33.5C 53.5026,30.854 53.3359,28.1873 53.5,25.5 Z"/></g>
<g><path style="opacity:1" fill="#144e9c" d="M 55.5,26.5 C 56.1667,26.8333 56.8333,27.1667 57.5,27.5C 57.5,28.1667 57.5,28.8333 57.5,29.5C 57.4142,30.4959 57.7476,31.3292 58.5,32C 62.8206,32.499 67.1539,32.6657 71.5,32.5C 74.0593,32.1984 76.3926,32.5318 78.5,33.5C 71.4921,33.6663 64.4921,33.4996 57.5,33C 55.9837,31.103 55.317,28.9363 55.5,26.5 Z"/></g>
<g><path style="opacity:0.98" fill="#082348" d="M 16.5,29.5 C 15.8333,30.1667 15.1667,30.8333 14.5,31.5C 9.9016,32.7204 8.56826,35.3871 10.5,39.5C 10.5,40.1667 10.5,40.8333 10.5,41.5C 9.88258,41.3893 9.38258,41.056 9,40.5C 7.39177,33.952 9.89177,30.2854 16.5,29.5 Z"/></g>
<g><path style="opacity:1" fill="#1e62b3" d="M 38.5,29.5 C 38.3713,31.2161 38.038,32.8828 37.5,34.5C 29.8333,34.5 22.1667,34.5 14.5,34.5C 14.5,34.1667 14.5,33.8333 14.5,33.5C 14.8333,33.5 15.1667,33.5 15.5,33.5C 22.5,33.5 29.5,33.5 36.5,33.5C 36.2291,31.6203 36.8958,30.287 38.5,29.5 Z"/></g>
<g><path style="opacity:1" fill="#1551ac" d="M 48.5,31.5 C 48.8333,31.5 49.1667,31.5 49.5,31.5C 49.5,32.8333 49.5,34.1667 49.5,35.5C 48.2921,34.7659 46.9587,34.4326 45.5,34.5C 45.5,33.8333 45.5,33.1667 45.5,32.5C 46.391,31.8902 47.391,31.5569 48.5,31.5 Z"/></g>
<g><path style="opacity:1" fill="#2b79c7" d="M 49.5,31.5 C 49.8333,31.5 50.1667,31.5 50.5,31.5C 51.6278,34.212 53.2944,36.5453 55.5,38.5C 55.5,38.8333 55.5,39.1667 55.5,39.5C 54.8333,39.5 54.1667,39.5 53.5,39.5C 52.5977,37.6593 51.2644,36.326 49.5,35.5C 49.5,34.1667 49.5,32.8333 49.5,31.5 Z"/></g>
<g><path style="opacity:1" fill="#3886c8" d="M 56.5,34.5 C 64.5,34.5 72.5,34.5 80.5,34.5C 81.3007,36.0418 81.634,37.7085 81.5,39.5C 81.1667,39.5 80.8333,39.5 80.5,39.5C 80.2407,35.9319 78.2407,34.5985 74.5,35.5C 68.31,35.8229 62.31,35.4896 56.5,34.5 Z"/></g>
<g><path style="opacity:1" fill="#2b65a3" d="M 13.5,33.5 C 13.8333,33.5 14.1667,33.5 14.5,33.5C 14.5,33.8333 14.5,34.1667 14.5,34.5C 13.8333,34.5 13.5,34.8333 13.5,35.5C 13.5,36.8333 13.5,38.1667 13.5,39.5C 13.1667,39.5 12.8333,39.5 12.5,39.5C 11.5655,38.4324 11.2322,37.099 11.5,35.5C 11.8333,34.5 12.5,33.8333 13.5,33.5 Z"/></g>
<g><path style="opacity:1" fill="#57b3e5" d="M 74.5,36.5 C 74.5,36.1667 74.5,35.8333 74.5,35.5C 78.2407,34.5985 80.2407,35.9319 80.5,39.5C 80.1667,39.5 79.8333,39.5 79.5,39.5C 79.1667,39.5 78.8333,39.5 78.5,39.5C 78.5,38.5 78.5,37.5 78.5,36.5C 77.5,36.5 76.5,36.5 75.5,36.5C 75.1667,36.5 74.8333,36.5 74.5,36.5 Z"/></g>
<g><path style="opacity:1" fill="#4ea6dd" d="M 13.5,35.5 C 16.0593,35.1984 18.3926,35.5318 20.5,36.5C 18.396,36.2011 16.396,36.5344 14.5,37.5C 14.8627,38.1835 15.1961,38.8501 15.5,39.5C 14.8333,39.5 14.1667,39.5 13.5,39.5C 13.5,38.1667 13.5,36.8333 13.5,35.5 Z"/></g>
<g><path style="opacity:1" fill="#3b98de" d="M 39.5,32.5 C 41.1765,33.1834 41.8432,34.5168 41.5,36.5C 41.1667,37.5 40.5,38.1667 39.5,38.5C 34.1667,38.5 28.8333,38.5 23.5,38.5C 23.1788,36.9519 22.1788,36.2852 20.5,36.5C 18.3926,35.5318 16.0593,35.1984 13.5,35.5C 13.5,34.8333 13.8333,34.5 14.5,34.5C 22.1667,34.5 29.8333,34.5 37.5,34.5C 38.5,34.1667 39.1667,33.5 39.5,32.5 Z"/></g>
<g><path style="opacity:1" fill="#2964a3" d="M 80.5,34.5 C 82.256,35.5521 82.9227,37.2188 82.5,39.5C 82.1667,39.5 81.8333,39.5 81.5,39.5C 81.634,37.7085 81.3007,36.0418 80.5,34.5 Z"/></g>
<g><path style="opacity:1" fill="#60cef7" d="M 20.5,36.5 C 20.5,36.8333 20.5,37.1667 20.5,37.5C 20.5,38.5 20.5,39.5 20.5,40.5C 18.7839,40.3713 17.1172,40.038 15.5,39.5C 15.1961,38.8501 14.8627,38.1835 14.5,37.5C 16.396,36.5344 18.396,36.2011 20.5,36.5 Z"/></g>
<g><path style="opacity:1" fill="#103f83" d="M 54.5,43.5 C 52.8333,42.8333 51.1667,42.1667 49.5,41.5C 49.5852,40.0047 48.9185,39.0047 47.5,38.5C 44.7206,40.624 41.7206,42.2907 38.5,43.5C 38.8333,42.8333 39.1667,42.1667 39.5,41.5C 42.1108,40.0661 44.6108,38.3994 47,36.5C 49.96,38.2918 52.46,40.6251 54.5,43.5 Z"/></g>
<g><path style="opacity:1" fill="#3390dd" d="M 23.5,38.5 C 28.8333,38.5 34.1667,38.5 39.5,38.5C 39.5,39.1667 39.1667,39.5 38.5,39.5C 34.1667,39.5 29.8333,39.5 25.5,39.5C 25.5,40.5 25.5,41.5 25.5,42.5C 24.8333,42.1667 24.1667,41.8333 23.5,41.5C 23.5,40.5 23.5,39.5 23.5,38.5 Z"/></g>
<g><path style="opacity:1" fill="#3290de" d="M 55.5,39.5 C 55.5,39.1667 55.5,38.8333 55.5,38.5C 59.5,38.5 63.5,38.5 67.5,38.5C 69.5,38.5 70.5,39.5 70.5,41.5C 69.8333,41.8333 69.1667,42.1667 68.5,42.5C 68.5,41.5 68.5,40.5 68.5,39.5C 64.1667,39.5 59.8333,39.5 55.5,39.5 Z"/></g>
<g><path style="opacity:1" fill="#51c7f5" d="M 73.5,36.5 C 73.8333,36.5 74.1667,36.5 74.5,36.5C 74.8333,36.5 75.1667,36.5 75.5,36.5C 74.0857,38.5983 74.7524,39.5983 77.5,39.5C 77.5,40.1667 77.1667,40.5 76.5,40.5C 75.5,40.5 74.5,40.5 73.5,40.5C 73.5,39.1667 73.5,37.8333 73.5,36.5 Z"/></g>
<g><path style="opacity:1" fill="#62d5fb" d="M 75.5,36.5 C 76.5,36.5 77.5,36.5 78.5,36.5C 78.5,37.5 78.5,38.5 78.5,39.5C 78.1667,39.5 77.8333,39.5 77.5,39.5C 74.7524,39.5983 74.0857,38.5983 75.5,36.5 Z"/></g>
<g><path style="opacity:1" fill="#3687c9" d="M 13.5,39.5 C 14.1667,39.5 14.8333,39.5 15.5,39.5C 15.8333,40.1667 16.1667,40.8333 16.5,41.5C 16.1667,41.5 15.8333,41.5 15.5,41.5C 14.5,41.1667 13.8333,40.5 13.5,39.5 Z"/></g>
<g><path style="opacity:1" fill="#2678cd" d="M 53.5,39.5 C 54.1667,39.5 54.8333,39.5 55.5,39.5C 59.8333,39.5 64.1667,39.5 68.5,39.5C 68.5,40.5 68.5,41.5 68.5,42.5C 68.5,43.1667 68.1667,43.5 67.5,43.5C 67.5,42.5 67.5,41.5 67.5,40.5C 63.8333,40.5 60.1667,40.5 56.5,40.5C 55.209,40.7373 54.209,40.404 53.5,39.5 Z"/></g>
<g><path style="opacity:1" fill="#47b7f0" d="M 71.5,36.5 C 72.1667,36.5 72.8333,36.5 73.5,36.5C 73.5,37.8333 73.5,39.1667 73.5,40.5C 74.5,40.5 75.5,40.5 76.5,40.5C 73.0658,41.9178 71.3992,40.5845 71.5,36.5 Z"/></g>
<g><path style="opacity:1" fill="#48b8ee" d="M 20.5,37.5 C 21.1239,37.9169 21.4573,38.5836 21.5,39.5C 21.2528,40.7133 20.5862,41.38 19.5,41.5C 18.8333,41.5 18.1667,41.5 17.5,41.5C 17.1667,41.5 16.8333,41.5 16.5,41.5C 16.1667,40.8333 15.8333,40.1667 15.5,39.5C 17.1172,40.038 18.7839,40.3713 20.5,40.5C 20.5,39.5 20.5,38.5 20.5,37.5 Z"/></g>
<g><path style="opacity:1" fill="#287ed4" d="M 38.5,39.5 C 37.4324,40.4345 36.099,40.7678 34.5,40.5C 32.076,40.1924 29.7427,40.5258 27.5,41.5C 29.1897,43.5193 30.8564,45.5193 32.5,47.5C 29.9066,46.2464 27.5732,44.5798 25.5,42.5C 25.5,41.5 25.5,40.5 25.5,39.5C 29.8333,39.5 34.1667,39.5 38.5,39.5 Z"/></g>
<g><path style="opacity:1" fill="#1e61b2" d="M 45.5,30.5 C 45.5,31.1667 45.5,31.8333 45.5,32.5C 45.5,33.1667 45.5,33.8333 45.5,34.5C 43.5,36.8333 41.5,39.1667 39.5,41.5C 38.8333,41.5 38.1667,41.5 37.5,41.5C 36.5,41.5 35.5,41.5 34.5,41.5C 34.5,41.1667 34.5,40.8333 34.5,40.5C 36.099,40.7678 37.4324,40.4345 38.5,39.5C 39.1667,39.5 39.5,39.1667 39.5,38.5C 40.5,38.1667 41.1667,37.5 41.5,36.5C 42.1667,36.5 42.5,36.1667 42.5,35.5C 43.9348,34.0867 44.9348,32.42 45.5,30.5 Z"/></g>
<g><path style="opacity:1" fill="#1d68c7" d="M 56.5,40.5 C 60.1667,40.5 63.8333,40.5 67.5,40.5C 67.5,41.5 67.5,42.5 67.5,43.5C 67.1667,43.5 66.8333,43.5 66.5,43.5C 64.9382,43.7329 63.6049,44.3995 62.5,45.5C 62.6162,42.0897 60.9496,40.7564 57.5,41.5C 56.8333,41.5 56.5,41.1667 56.5,40.5 Z"/></g>
<g><path style="opacity:1" fill="#266bb1" d="M 79.5,39.5 C 79.8333,39.5 80.1667,39.5 80.5,39.5C 80.8333,39.5 81.1667,39.5 81.5,39.5C 80.7377,41.2624 79.4044,42.2624 77.5,42.5C 78.1667,41.5 78.8333,40.5 79.5,39.5 Z"/></g>
<g><path style="opacity:1" fill="#41aceb" d="M 20.5,37.5 C 20.5,37.1667 20.5,36.8333 20.5,36.5C 22.1788,36.2852 23.1788,36.9519 23.5,38.5C 23.5,39.5 23.5,40.5 23.5,41.5C 23.5,42.8333 22.8333,43.5 21.5,43.5C 20.5,43.1667 19.8333,42.5 19.5,41.5C 20.5862,41.38 21.2528,40.7133 21.5,39.5C 21.4573,38.5836 21.1239,37.9169 20.5,37.5 Z"/></g>
<g><path style="opacity:1" fill="#1b64c2" d="M 34.5,40.5 C 34.5,40.8333 34.5,41.1667 34.5,41.5C 31.9814,43.3591 31.9814,45.3591 34.5,47.5C 33.8333,47.5 33.1667,47.5 32.5,47.5C 30.8564,45.5193 29.1897,43.5193 27.5,41.5C 29.7427,40.5258 32.076,40.1924 34.5,40.5 Z"/></g>
<g><path style="opacity:1" fill="#154d9a" d="M 45.5,34.5 C 46.9587,34.4326 48.2921,34.7659 49.5,35.5C 51.2644,36.326 52.5977,37.6593 53.5,39.5C 54.209,40.404 55.209,40.7373 56.5,40.5C 56.5,41.1667 56.8333,41.5 57.5,41.5C 58.3007,43.0418 58.634,44.7085 58.5,46.5C 56.877,49.2153 56.2104,52.2153 56.5,55.5C 56.2542,58.4701 54.5876,59.8034 51.5,59.5C 50.8333,59.5 50.1667,59.5 49.5,59.5C 49.5,59.1667 49.5,58.8333 49.5,58.5C 49.5,58.1667 49.5,57.8333 49.5,57.5C 54.9064,58.2647 56.9064,55.9313 55.5,50.5C 55.8938,49.0328 56.2272,47.5328 56.5,46C 56.3158,44.6244 55.6491,43.7911 54.5,43.5C 52.46,40.6251 49.96,38.2918 47,36.5C 44.6108,38.3994 42.1108,40.0661 39.5,41.5C 41.5,39.1667 43.5,36.8333 45.5,34.5 Z"/></g>
<g><path style="opacity:1" fill="#40a6e6" d="M 71.5,36.5 C 71.3992,40.5845 73.0658,41.9178 76.5,40.5C 77.1667,40.5 77.5,40.1667 77.5,39.5C 77.8333,39.5 78.1667,39.5 78.5,39.5C 78.8333,39.5 79.1667,39.5 79.5,39.5C 78.8333,40.5 78.1667,41.5 77.5,42.5C 76.8333,42.5 76.1667,42.5 75.5,42.5C 74.3052,42.6775 73.1385,43.0109 72,43.5C 70.9701,43.1639 70.4701,42.4972 70.5,41.5C 70.5,39.5 69.5,38.5 67.5,38.5C 66.7375,37.7321 65.7375,37.2321 64.5,37C 66.8098,36.5034 69.1432,36.3367 71.5,36.5 Z"/></g>
<g><path style="opacity:1" fill="#0e366e" d="M 11.5,35.5 C 11.2322,37.099 11.5655,38.4324 12.5,39.5C 14.7631,43.1029 17.4297,46.4362 20.5,49.5C 17.5691,47.9092 14.9024,45.9092 12.5,43.5C 12.1667,43.5 11.8333,43.5 11.5,43.5C 10.6618,43.1583 10.3284,42.4916 10.5,41.5C 10.5,40.8333 10.5,40.1667 10.5,39.5C 10.2322,37.901 10.5655,36.5676 11.5,35.5 Z"/></g>
<g><path style="opacity:1" fill="#082348" d="M 79.5,29.5 C 81.1667,30.1667 82.8333,30.8333 84.5,31.5C 84.5,31.8333 84.5,32.1667 84.5,32.5C 86.2931,35.2587 86.7931,38.2587 86,41.5C 82,46.1667 78,50.8333 74,55.5C 73.9785,62.3461 73.8118,69.0128 73.5,75.5C 73.8412,71.8405 73.1745,68.5072 71.5,65.5C 71.5,65.1667 71.5,64.8333 71.5,64.5C 71.335,61.1501 71.5017,57.8168 72,54.5C 75.3709,51.2975 78.5375,47.9641 81.5,44.5C 84.3054,41.7544 85.1387,38.4211 84,34.5C 83.1841,33.1772 82.0174,32.5106 80.5,32.5C 80.5,32.1667 80.5,31.8333 80.5,31.5C 80.1667,30.8333 79.8333,30.1667 79.5,29.5 Z"/></g>
<g><path style="opacity:1" fill="#1550a3" d="M 34.5,41.5 C 35.5,41.5 36.5,41.5 37.5,41.5C 36.645,42.5307 35.9783,43.6974 35.5,45C 36.4138,46.4064 37.0805,47.9064 37.5,49.5C 35.9731,49.573 34.9731,48.9063 34.5,47.5C 31.9814,45.3591 31.9814,43.3591 34.5,41.5 Z"/></g>
<g><path style="opacity:1" fill="#0e346a" d="M 49.5,41.5 C 51.1667,42.1667 52.8333,42.8333 54.5,43.5C 54.5,45.8333 54.5,48.1667 54.5,50.5C 52.8958,51.287 52.2291,52.6203 52.5,54.5C 48.8183,54.6653 45.1516,54.4986 41.5,54C 40.7476,53.3292 40.4142,52.4959 40.5,51.5C 40.3367,49.1432 40.5034,46.8098 41,44.5C 41.6708,43.7476 42.5041,43.4142 43.5,43.5C 44.9899,41.7202 46.9899,41.0535 49.5,41.5 Z"/></g>
<g><path style="opacity:1" fill="#2168b5" d="M 15.5,41.5 C 15.8333,41.5 16.1667,41.5 16.5,41.5C 16.8333,41.5 17.1667,41.5 17.5,41.5C 18.5,42.8333 19.5,44.1667 20.5,45.5C 20.1667,45.5 19.8333,45.5 19.5,45.5C 17.8333,44.5 16.5,43.1667 15.5,41.5 Z"/></g>
<g><path style="opacity:1" fill="#3288d1" d="M 17.5,41.5 C 18.1667,41.5 18.8333,41.5 19.5,41.5C 19.8333,42.5 20.5,43.1667 21.5,43.5C 21.8333,44.1667 22.1667,44.8333 22.5,45.5C 22.1667,45.5 21.8333,45.5 21.5,45.5C 21.1667,45.5 20.8333,45.5 20.5,45.5C 19.5,44.1667 18.5,42.8333 17.5,41.5 Z"/></g>
<g><path style="opacity:1" fill="#0e3874" d="M 49.5,41.5 C 46.9899,41.0535 44.9899,41.7202 43.5,43.5C 42.5041,43.4142 41.6708,43.7476 41,44.5C 40.5034,46.8098 40.3367,49.1432 40.5,51.5C 40.1667,51.5 39.8333,51.5 39.5,51.5C 38.9084,48.8728 38.5751,46.2062 38.5,43.5C 41.7206,42.2907 44.7206,40.624 47.5,38.5C 48.9185,39.0047 49.5852,40.0047 49.5,41.5 Z"/></g>
<g><path style="opacity:1" fill="#0c2d5d" d="M 43.5,43.5 C 51.5034,42.0086 53.5034,44.8419 49.5,52C 42.7813,52.7259 40.7813,49.8925 43.5,43.5 Z"/></g>
<g><path style="opacity:1" fill="#1451a7" d="M 57.5,41.5 C 60.9496,40.7564 62.6162,42.0897 62.5,45.5C 61.1667,45.8333 59.8333,46.1667 58.5,46.5C 58.634,44.7085 58.3007,43.0418 57.5,41.5 Z"/></g>
<g><path style="opacity:1" fill="#2c81d5" d="M 66.5,43.5 C 65.4154,45.5869 63.7488,46.9202 61.5,47.5C 61.8333,46.8333 62.1667,46.1667 62.5,45.5C 63.6049,44.3995 64.9382,43.7329 66.5,43.5 Z"/></g>
<g><path style="opacity:0.413" fill="#030c18" d="M 92.5,33.5 C 92.5,37.8333 92.5,42.1667 92.5,46.5C 91.0783,46.7086 89.745,47.2086 88.5,48C 80.4726,54.9917 78.4726,63.4917 82.5,73.5C 81.8728,74.4168 81.5394,75.4168 81.5,76.5C 81.573,78.0269 80.9063,79.0269 79.5,79.5C 79.5942,71.509 79.9276,63.509 80.5,55.5C 80.5,54.8333 80.5,54.1667 80.5,53.5C 86.8404,48.2264 89.8404,41.5598 89.5,33.5C 90.5,33.5 91.5,33.5 92.5,33.5 Z"/></g>
<g><path style="opacity:1" fill="#3c9ce2" d="M 23.5,41.5 C 24.1667,41.8333 24.8333,42.1667 25.5,42.5C 27.5732,44.5798 29.9066,46.2464 32.5,47.5C 32.5,47.8333 32.5,48.1667 32.5,48.5C 31.7611,48.369 31.0944,48.5357 30.5,49C 31.8228,49.8159 32.4894,50.9826 32.5,52.5C 32.1667,52.5 31.8333,52.5 31.5,52.5C 31.5,51.8333 31.1667,51.5 30.5,51.5C 28.5051,48.6115 25.8384,46.6115 22.5,45.5C 22.1667,44.8333 21.8333,44.1667 21.5,43.5C 22.8333,43.5 23.5,42.8333 23.5,41.5 Z"/></g>
<g><path style="opacity:1" fill="#1b5cab" d="M 75.5,42.5 C 76.1667,42.5 76.8333,42.5 77.5,42.5C 75.8333,44.8333 73.8333,46.8333 71.5,48.5C 70.8333,48.5 70.1667,48.5 69.5,48.5C 71.1392,47.5275 72.4726,46.1942 73.5,44.5C 74.5,44.1667 75.1667,43.5 75.5,42.5 Z"/></g>
<g><path style="opacity:1" fill="#103c7b" d="M 54.5,43.5 C 55.6491,43.7911 56.3158,44.6244 56.5,46C 56.2272,47.5328 55.8938,49.0328 55.5,50.5C 55.1667,50.5 54.8333,50.5 54.5,50.5C 54.5,48.1667 54.5,45.8333 54.5,43.5 Z"/></g>
<g><path style="opacity:0.696" fill="#010911" d="M 2.5,45.5 C 7.39138,48.2295 11.2247,52.2295 14,57.5C 14.1563,64.5621 14.323,71.5621 14.5,78.5C 12.4131,77.4154 11.0798,75.7488 10.5,73.5C 13.8987,65.9517 12.8987,59.1184 7.5,53C 5.97506,51.9914 4.30839,51.4914 2.5,51.5C 2.5,49.5 2.5,47.5 2.5,45.5 Z"/></g>
<g><path style="opacity:1" fill="#12448b" d="M 12.5,39.5 C 12.8333,39.5 13.1667,39.5 13.5,39.5C 13.8333,40.5 14.5,41.1667 15.5,41.5C 16.5,43.1667 17.8333,44.5 19.5,45.5C 20.5,46.8333 21.5,48.1667 22.5,49.5C 22.1667,49.5 21.8333,49.5 21.5,49.5C 21.1667,49.5 20.8333,49.5 20.5,49.5C 17.4297,46.4362 14.7631,43.1029 12.5,39.5 Z"/></g>
<g><path style="opacity:1" fill="#2b7bc8" d="M 32.5,48.5 C 32.5,48.1667 32.5,47.8333 32.5,47.5C 33.1667,47.5 33.8333,47.5 34.5,47.5C 34.9731,48.9063 35.9731,49.573 37.5,49.5C 37.5,49.8333 37.5,50.1667 37.5,50.5C 37.5,52.1667 37.5,53.8333 37.5,55.5C 36.8333,55.5 36.5,55.8333 36.5,56.5C 35.8333,57.8333 35.1667,59.1667 34.5,60.5C 34.5,59.1667 34.5,57.8333 34.5,56.5C 36.2348,53.1611 35.5682,50.4944 32.5,48.5 Z"/></g>
<g><path style="opacity:1" fill="#3b9be1" d="M 70.5,41.5 C 70.4701,42.4972 70.9701,43.1639 72,43.5C 73.1385,43.0109 74.3052,42.6775 75.5,42.5C 75.1667,43.5 74.5,44.1667 73.5,44.5C 71.1475,45.3403 69.1475,46.6736 67.5,48.5C 62.6532,50.4306 61.3198,53.764 63.5,58.5C 65.247,61.5343 66.247,64.8676 66.5,68.5C 65.6851,67.5707 64.8518,66.5707 64,65.5C 63.2828,66.0442 62.7828,66.7109 62.5,67.5C 62.1667,67.5 61.8333,67.5 61.5,67.5C 61.7845,65.5853 61.4511,63.9187 60.5,62.5C 60.6716,61.5084 60.3382,60.8417 59.5,60.5C 59.6716,59.5084 59.3382,58.8417 58.5,58.5C 58.5,58.1667 58.5,57.8333 58.5,57.5C 58.5,56.5 58.5,55.5 58.5,54.5C 59.0115,51.9785 60.0115,49.6451 61.5,47.5C 63.7488,46.9202 65.4154,45.5869 66.5,43.5C 66.8333,43.5 67.1667,43.5 67.5,43.5C 68.1667,43.5 68.5,43.1667 68.5,42.5C 69.1667,42.1667 69.8333,41.8333 70.5,41.5 Z"/></g>
<g><path style="opacity:1" fill="#2979c7" d="M 73.5,44.5 C 72.4726,46.1942 71.1392,47.5275 69.5,48.5C 68.8333,48.5 68.1667,48.5 67.5,48.5C 69.1475,46.6736 71.1475,45.3403 73.5,44.5 Z"/></g>
<g><path style="opacity:1" fill="#061a35" d="M 84.5,32.5 C 85.7498,32.5774 86.5831,33.244 87,34.5C 87.6667,37.1667 87.6667,39.8333 87,42.5C 84.6114,46.0507 82.4448,49.7173 80.5,53.5C 78.665,54.1223 77.4983,55.4556 77,57.5C 76.9169,66.2742 76.0836,74.9409 74.5,83.5C 73.5637,84.9744 72.2303,85.9744 70.5,86.5C 70.5,85.5 70.5,84.5 70.5,83.5C 63.9934,83.5522 57.6601,82.5522 51.5,80.5C 46.8623,79.1947 42.1956,79.528 37.5,81.5C 38.3065,80.2719 39.3065,79.2719 40.5,78.5C 42.423,77.1491 44.5897,76.4824 47,76.5C 51.8993,77.7061 56.7327,79.0394 61.5,80.5C 67.1536,82.95 71.1536,81.2833 73.5,75.5C 73.8118,69.0128 73.9785,62.3461 74,55.5C 78,50.8333 82,46.1667 86,41.5C 86.7931,38.2587 86.2931,35.2587 84.5,32.5 Z"/></g>
<g><path style="opacity:1" fill="#2a79c8" d="M 21.5,45.5 C 21.8333,45.5 22.1667,45.5 22.5,45.5C 25.8384,46.6115 28.5051,48.6115 30.5,51.5C 28.9382,51.2671 27.6049,50.6005 26.5,49.5C 24.2512,48.9202 22.5846,47.5869 21.5,45.5 Z"/></g>
<g><path style="opacity:1" fill="#082142" d="M 11.5,43.5 C 11.8333,43.5 12.1667,43.5 12.5,43.5C 14.9181,46.5842 16.9181,49.9176 18.5,53.5C 17.8333,53.5 17.1667,53.5 16.5,53.5C 15.7529,50.6385 14.0862,48.6385 11.5,47.5C 11.5,46.1667 11.5,44.8333 11.5,43.5 Z"/></g>
<g><path style="opacity:1" fill="#0f3c7d" d="M 21.5,49.5 C 21.8333,49.5 22.1667,49.5 22.5,49.5C 25.5866,51.0811 27.2533,53.5811 27.5,57C 26.7772,60.9857 25.7772,64.819 24.5,68.5C 24.5,69.8333 24.5,71.1667 24.5,72.5C 23.5489,73.9187 23.2155,75.5853 23.5,77.5C 23.1667,77.5 22.8333,77.5 22.5,77.5C 22.2943,72.3428 22.961,67.3428 24.5,62.5C 26.4619,57.523 25.4619,53.1897 21.5,49.5 Z"/></g>
<g><path style="opacity:1" fill="#2a7ecd" d="M 67.5,48.5 C 66.5423,49.9616 65.3756,51.2949 64,52.5C 63.51,53.7932 63.3433,55.1266 63.5,56.5C 63.5,57.1667 63.5,57.8333 63.5,58.5C 61.3198,53.764 62.6532,50.4306 67.5,48.5 Z"/></g>
<g><path style="opacity:1" fill="#114083" d="M 81.5,39.5 C 81.8333,39.5 82.1667,39.5 82.5,39.5C 78.2798,44.2241 73.7798,48.8908 69,53.5C 68.1277,58.8881 68.961,63.8881 71.5,68.5C 73.1353,72.9226 72.1353,76.5893 68.5,79.5C 66.5853,79.7845 64.9187,79.4511 63.5,78.5C 63.8333,78.5 64.1667,78.5 64.5,78.5C 66.698,78.8799 68.3646,78.2132 69.5,76.5C 70.1524,75.5514 70.4857,74.3847 70.5,73C 69.9829,69.2911 68.9829,65.7911 67.5,62.5C 66.8654,59.5071 66.6987,56.5071 67,53.5C 68.7073,51.9625 70.2073,50.2959 71.5,48.5C 73.8333,46.8333 75.8333,44.8333 77.5,42.5C 79.4044,42.2624 80.7377,41.2624 81.5,39.5 Z"/></g>
<g><path style="opacity:0.701" fill="#00060b" d="M 92.5,46.5 C 92.5,48.8333 92.5,51.1667 92.5,53.5C 88.6181,54.2108 86.1181,56.5442 85,60.5C 84.9379,64.1483 85.1046,67.815 85.5,71.5C 84.9202,73.7488 83.5869,75.4154 81.5,76.5C 81.5394,75.4168 81.8728,74.4168 82.5,73.5C 78.4726,63.4917 80.4726,54.9917 88.5,48C 89.745,47.2086 91.0783,46.7086 92.5,46.5 Z"/></g>
<g><path style="opacity:1" fill="#2167b7" d="M 62.5,45.5 C 62.1667,46.1667 61.8333,46.8333 61.5,47.5C 58.0218,48.9279 57.0218,51.2612 58.5,54.5C 58.5,55.5 58.5,56.5 58.5,57.5C 57.8333,56.8333 57.1667,56.1667 56.5,55.5C 56.2104,52.2153 56.877,49.2153 58.5,46.5C 59.8333,46.1667 61.1667,45.8333 62.5,45.5 Z"/></g>
<g><path style="opacity:1" fill="#40a4e5" d="M 32.5,48.5 C 35.5682,50.4944 36.2348,53.1611 34.5,56.5C 33.3263,55.4863 32.6596,54.153 32.5,52.5C 32.4894,50.9826 31.8228,49.8159 30.5,49C 31.0944,48.5357 31.7611,48.369 32.5,48.5 Z"/></g>
<g><path style="opacity:1" fill="#124996" d="M 69.5,48.5 C 70.1667,48.5 70.8333,48.5 71.5,48.5C 70.2073,50.2959 68.7073,51.9625 67,53.5C 66.6987,56.5071 66.8654,59.5071 67.5,62.5C 66.6554,61.3285 65.9887,59.9952 65.5,58.5C 65.3379,56.4727 65.5045,54.4727 66,52.5C 67.3756,51.2949 68.5423,49.9616 69.5,48.5 Z"/></g>
<g><path style="opacity:1" fill="#0e356c" d="M 80.5,32.5 C 82.0174,32.5106 83.1841,33.1772 84,34.5C 85.1387,38.4211 84.3054,41.7544 81.5,44.5C 77.2628,47.2281 73.4294,50.5615 70,54.5C 69.3256,58.1123 69.8256,61.4456 71.5,64.5C 71.5,64.8333 71.5,65.1667 71.5,65.5C 71.5,66.5 71.5,67.5 71.5,68.5C 68.961,63.8881 68.1277,58.8881 69,53.5C 73.7798,48.8908 78.2798,44.2241 82.5,39.5C 82.9227,37.2188 82.256,35.5521 80.5,34.5C 80.5,34.1667 80.5,33.8333 80.5,33.5C 80.5,33.1667 80.5,32.8333 80.5,32.5 Z"/></g>
<g><path style="opacity:0.851" fill="#030e1c" d="M 2.5,42.5 C 4.06181,42.7329 5.39514,43.3995 6.5,44.5C 7.70008,47.3782 9.70008,49.7115 12.5,51.5C 13.6667,53.8333 14.8333,56.1667 16,58.5C 15.8361,65.4764 15.6695,72.4764 15.5,79.5C 14.8333,79.5 14.5,79.1667 14.5,78.5C 14.323,71.5621 14.1563,64.5621 14,57.5C 11.2247,52.2295 7.39138,48.2295 2.5,45.5C 2.5,44.5 2.5,43.5 2.5,42.5 Z"/></g>
<g><path style="opacity:1" fill="#3084cf" d="M 61.5,47.5 C 60.0115,49.6451 59.0115,51.9785 58.5,54.5C 57.0218,51.2612 58.0218,48.9279 61.5,47.5 Z"/></g>
<g><path style="opacity:1" fill="#1859af" d="M 67.5,48.5 C 68.1667,48.5 68.8333,48.5 69.5,48.5C 68.5423,49.9616 67.3756,51.2949 66,52.5C 65.5045,54.4727 65.3379,56.4727 65.5,58.5C 64.8333,57.8333 64.1667,57.1667 63.5,56.5C 63.3433,55.1266 63.51,53.7932 64,52.5C 65.3756,51.2949 66.5423,49.9616 67.5,48.5 Z"/></g>
<g><path style="opacity:0.321" fill="#000203" d="M 92.5,53.5 C 92.5429,60.4462 90.2096,66.4462 85.5,71.5C 85.1046,67.815 84.9379,64.1483 85,60.5C 86.1181,56.5442 88.6181,54.2108 92.5,53.5 Z"/></g>
<g><path style="opacity:1" fill="#0e346c" d="M 20.5,49.5 C 20.8333,49.5 21.1667,49.5 21.5,49.5C 25.4619,53.1897 26.4619,57.523 24.5,62.5C 25.3428,57.9057 24.0094,54.2391 20.5,51.5C 20.5,50.8333 20.5,50.1667 20.5,49.5 Z"/></g>
<g><path style="opacity:0.294" fill="#000305" d="M 2.5,51.5 C 4.30839,51.4914 5.97506,51.9914 7.5,53C 12.8987,59.1184 13.8987,65.9517 10.5,73.5C 4.91407,67.2408 2.24741,59.9075 2.5,51.5 Z"/></g>
<g><path style="opacity:0.761" fill="#030d1c" d="M 80.5,55.5 C 79.9276,63.509 79.5942,71.509 79.5,79.5C 79.1667,80.5 78.5,81.1667 77.5,81.5C 78.2711,73.5472 78.7711,65.5472 79,57.5C 79.2784,56.5842 79.7784,55.9175 80.5,55.5 Z"/></g>
<g><path style="opacity:1" fill="#0a2851" d="M 12.5,43.5 C 14.9024,45.9092 17.5691,47.9092 20.5,49.5C 20.5,50.1667 20.5,50.8333 20.5,51.5C 22.6276,55.7614 22.961,60.0947 21.5,64.5C 21.81,61.2869 21.4767,58.2869 20.5,55.5C 20.1667,54.5 19.5,53.8333 18.5,53.5C 16.9181,49.9176 14.9181,46.5842 12.5,43.5 Z"/></g>
<g><path style="opacity:1" fill="#1b5eb2" d="M 26.5,49.5 C 27.6049,50.6005 28.9382,51.2671 30.5,51.5C 31.1667,51.5 31.5,51.8333 31.5,52.5C 31.4828,54.5648 31.1495,56.5648 30.5,58.5C 29.8333,58.8333 29.1667,59.1667 28.5,59.5C 28.845,55.8849 28.1783,52.5516 26.5,49.5 Z"/></g>
<g><path style="opacity:1" fill="#12458e" d="M 37.5,41.5 C 38.1667,41.5 38.8333,41.5 39.5,41.5C 39.1667,42.1667 38.8333,42.8333 38.5,43.5C 38.5751,46.2062 38.9084,48.8728 39.5,51.5C 39.2865,53.1439 39.6198,54.6439 40.5,56C 44.8206,56.499 49.1539,56.6657 53.5,56.5C 53.8333,54.5 54.1667,52.5 54.5,50.5C 54.8333,50.5 55.1667,50.5 55.5,50.5C 56.9064,55.9313 54.9064,58.2647 49.5,57.5C 47.5,57.5 45.5,57.5 43.5,57.5C 41.8561,57.7135 40.3561,57.3802 39,56.5C 38.8091,54.2922 38.3091,52.2922 37.5,50.5C 37.5,50.1667 37.5,49.8333 37.5,49.5C 37.0805,47.9064 36.4138,46.4064 35.5,45C 35.9783,43.6974 36.645,42.5307 37.5,41.5 Z"/></g>
<g><path style="opacity:1" fill="#0f3d7f" d="M 54.5,50.5 C 54.1667,52.5 53.8333,54.5 53.5,56.5C 49.1539,56.6657 44.8206,56.499 40.5,56C 39.6198,54.6439 39.2865,53.1439 39.5,51.5C 39.8333,51.5 40.1667,51.5 40.5,51.5C 40.4142,52.4959 40.7476,53.3292 41.5,54C 45.1516,54.4986 48.8183,54.6653 52.5,54.5C 52.2291,52.6203 52.8958,51.287 54.5,50.5 Z"/></g>
<g><path style="opacity:1" fill="#0c2e5e" d="M 81.5,44.5 C 78.5375,47.9641 75.3709,51.2975 72,54.5C 71.5017,57.8168 71.335,61.1501 71.5,64.5C 69.8256,61.4456 69.3256,58.1123 70,54.5C 73.4294,50.5615 77.2628,47.2281 81.5,44.5 Z"/></g>
<g><path style="opacity:1" fill="#144e9f" d="M 37.5,50.5 C 38.3091,52.2922 38.8091,54.2922 39,56.5C 40.3561,57.3802 41.8561,57.7135 43.5,57.5C 43.1667,58.5 42.5,59.1667 41.5,59.5C 39.1667,59.1667 37.8333,57.8333 37.5,55.5C 37.5,53.8333 37.5,52.1667 37.5,50.5 Z"/></g>
<g><path style="opacity:1" fill="#3694df" d="M 31.5,52.5 C 31.8333,52.5 32.1667,52.5 32.5,52.5C 32.6596,54.153 33.3263,55.4863 34.5,56.5C 34.5,57.8333 34.5,59.1667 34.5,60.5C 34.5,60.8333 34.5,61.1667 34.5,61.5C 33.5489,62.9187 33.2155,64.5853 33.5,66.5C 34.5,66.5 35.5,66.5 36.5,66.5C 35.4324,67.4345 34.099,67.7678 32.5,67.5C 32.6641,64.8127 32.4974,62.146 32,59.5C 31.6174,60.056 31.1174,60.3893 30.5,60.5C 30.5,59.8333 30.5,59.1667 30.5,58.5C 31.1495,56.5648 31.4828,54.5648 31.5,52.5 Z"/></g>
<g><path style="opacity:1" fill="#2b79c6" d="M 49.5,58.5 C 49.5,58.8333 49.5,59.1667 49.5,59.5C 45.9523,60.2394 42.619,61.5728 39.5,63.5C 39.5,63.1667 39.5,62.8333 39.5,62.5C 39.8333,61.5 40.5,60.8333 41.5,60.5C 43.8825,58.9539 46.5491,58.2872 49.5,58.5 Z"/></g>
<g><path style="opacity:1" fill="#1e61b2" d="M 43.5,57.5 C 45.5,57.5 47.5,57.5 49.5,57.5C 49.5,57.8333 49.5,58.1667 49.5,58.5C 46.5491,58.2872 43.8825,58.9539 41.5,60.5C 41.5,60.1667 41.5,59.8333 41.5,59.5C 42.5,59.1667 43.1667,58.5 43.5,57.5 Z"/></g>
<g><path style="opacity:1" fill="#297ac9" d="M 49.5,59.5 C 50.1667,59.5 50.8333,59.5 51.5,59.5C 52.1667,60.5 52.8333,61.5 53.5,62.5C 51.5956,62.2624 50.2623,61.2624 49.5,59.5 Z"/></g>
<g><path style="opacity:1" fill="#185bb7" d="M 56.5,55.5 C 57.1667,56.1667 57.8333,56.8333 58.5,57.5C 58.5,57.8333 58.5,58.1667 58.5,58.5C 58.9227,60.7812 58.256,62.4479 56.5,63.5C 55.609,62.8902 54.609,62.5569 53.5,62.5C 52.8333,61.5 52.1667,60.5 51.5,59.5C 54.5876,59.8034 56.2542,58.4701 56.5,55.5 Z"/></g>
<g><path style="opacity:1" fill="#2267b3" d="M 63.5,56.5 C 64.1667,57.1667 64.8333,57.8333 65.5,58.5C 65.9887,59.9952 66.6554,61.3285 67.5,62.5C 68.9829,65.7911 69.9829,69.2911 70.5,73C 70.4857,74.3847 70.1524,75.5514 69.5,76.5C 69.7678,74.901 69.4345,73.5676 68.5,72.5C 68.6716,71.5084 68.3382,70.8417 67.5,70.5C 67.6716,69.5084 67.3382,68.8417 66.5,68.5C 66.247,64.8676 65.247,61.5343 63.5,58.5C 63.5,57.8333 63.5,57.1667 63.5,56.5 Z"/></g>
<g><path style="opacity:1" fill="#164f9c" d="M 19.5,45.5 C 19.8333,45.5 20.1667,45.5 20.5,45.5C 20.8333,45.5 21.1667,45.5 21.5,45.5C 22.5846,47.5869 24.2512,48.9202 26.5,49.5C 28.1783,52.5516 28.845,55.8849 28.5,59.5C 28.0372,62.221 27.3705,64.8877 26.5,67.5C 25.8333,67.8333 25.1667,68.1667 24.5,68.5C 25.7772,64.819 26.7772,60.9857 27.5,57C 27.2533,53.5811 25.5866,51.0811 22.5,49.5C 21.5,48.1667 20.5,46.8333 19.5,45.5 Z"/></g>
<g><path style="opacity:1" fill="#175ab8" d="M 37.5,55.5 C 37.8333,57.8333 39.1667,59.1667 41.5,59.5C 41.5,59.8333 41.5,60.1667 41.5,60.5C 40.5,60.8333 39.8333,61.5 39.5,62.5C 38.5,62.5 37.5,62.5 36.5,62.5C 36.5,60.5 36.5,58.5 36.5,56.5C 36.5,55.8333 36.8333,55.5 37.5,55.5 Z"/></g>
<g><path style="opacity:1" fill="#1f6bca" d="M 36.5,56.5 C 36.5,58.5 36.5,60.5 36.5,62.5C 37.5,62.5 38.5,62.5 39.5,62.5C 39.5,62.8333 39.5,63.1667 39.5,63.5C 37.8828,64.038 36.2161,64.3713 34.5,64.5C 34.5,63.5 34.5,62.5 34.5,61.5C 34.5,61.1667 34.5,60.8333 34.5,60.5C 35.1667,59.1667 35.8333,57.8333 36.5,56.5 Z"/></g>
<g><path style="opacity:1" fill="#3c9ee3" d="M 36.5,66.5 C 37.8333,65.8333 38.8333,64.8333 39.5,63.5C 42.619,61.5728 45.9523,60.2394 49.5,59.5C 50.2623,61.2624 51.5956,62.2624 53.5,62.5C 54.2623,64.2624 55.5956,65.2624 57.5,65.5C 58.287,67.1042 59.6203,67.7709 61.5,67.5C 61.8333,67.5 62.1667,67.5 62.5,67.5C 61.1667,68.1667 59.8333,68.8333 58.5,69.5C 57.609,68.8902 56.609,68.5569 55.5,68.5C 54.3951,67.3995 53.0618,66.7329 51.5,66.5C 51.1583,65.6618 50.4916,65.3284 49.5,65.5C 49.2089,64.3509 48.3756,63.6842 47,63.5C 46.1667,63.6667 45.3333,63.8333 44.5,64C 41.7945,66.6756 38.7945,68.8423 35.5,70.5C 34.8166,68.8235 33.4832,68.1568 31.5,68.5C 31.6621,66.4727 31.4955,64.4727 31,62.5C 30.8784,64.437 30.045,65.7703 28.5,66.5C 28.8751,64.3024 29.5418,62.3024 30.5,60.5C 31.1174,60.3893 31.6174,60.056 32,59.5C 32.4974,62.146 32.6641,64.8127 32.5,67.5C 34.099,67.7678 35.4324,67.4345 36.5,66.5 Z"/></g>
<g><path style="opacity:1" fill="#2171cf" d="M 58.5,58.5 C 59.3382,58.8417 59.6716,59.5084 59.5,60.5C 59.5,61.8333 59.5,63.1667 59.5,64.5C 58.209,64.7373 57.209,64.404 56.5,63.5C 58.256,62.4479 58.9227,60.7812 58.5,58.5 Z"/></g>
<g><path style="opacity:0.641" fill="#051327" d="M 6.5,42.5 C 8.33343,44.1117 10.0001,45.7784 11.5,47.5C 14.0862,48.6385 15.7529,50.6385 16.5,53.5C 17.3006,61.0881 17.8006,68.7548 18,76.5C 18.3838,79.0602 19.2171,81.3936 20.5,83.5C 18.246,82.8763 16.5794,81.543 15.5,79.5C 15.6695,72.4764 15.8361,65.4764 16,58.5C 14.8333,56.1667 13.6667,53.8333 12.5,51.5C 9.70008,49.7115 7.70008,47.3782 6.5,44.5C 6.5,43.8333 6.5,43.1667 6.5,42.5 Z"/></g>
<g><path style="opacity:1" fill="#2b84d9" d="M 34.5,61.5 C 34.5,62.5 34.5,63.5 34.5,64.5C 36.2161,64.3713 37.8828,64.038 39.5,63.5C 38.8333,64.8333 37.8333,65.8333 36.5,66.5C 35.5,66.5 34.5,66.5 33.5,66.5C 33.2155,64.5853 33.5489,62.9187 34.5,61.5 Z"/></g>
<g><path style="opacity:1" fill="#267dd5" d="M 59.5,60.5 C 60.3382,60.8417 60.6716,61.5084 60.5,62.5C 60.6567,63.8734 60.49,65.2068 60,66.5C 59.3292,65.7476 58.4959,65.4142 57.5,65.5C 55.5956,65.2624 54.2623,64.2624 53.5,62.5C 54.609,62.5569 55.609,62.8902 56.5,63.5C 57.209,64.404 58.209,64.7373 59.5,64.5C 59.5,63.1667 59.5,61.8333 59.5,60.5 Z"/></g>
<g><path style="opacity:1" fill="#2a79c6" d="M 30.5,58.5 C 30.5,59.1667 30.5,59.8333 30.5,60.5C 29.5418,62.3024 28.8751,64.3024 28.5,66.5C 27.8333,66.8333 27.1667,67.1667 26.5,67.5C 27.3705,64.8877 28.0372,62.221 28.5,59.5C 29.1667,59.1667 29.8333,58.8333 30.5,58.5 Z"/></g>
<g><path style="opacity:1" fill="#297bcc" d="M 49.5,65.5 C 46.3695,64.9078 44.0361,65.9078 42.5,68.5C 39.8508,70.14 37.1841,71.8067 34.5,73.5C 34.5,73.1667 34.5,72.8333 34.5,72.5C 34.8333,71.8333 35.1667,71.1667 35.5,70.5C 38.7945,68.8423 41.7945,66.6756 44.5,64C 45.3333,63.8333 46.1667,63.6667 47,63.5C 48.3756,63.6842 49.2089,64.3509 49.5,65.5 Z"/></g>
<g><path style="opacity:1" fill="#2d8bdd" d="M 60.5,62.5 C 61.4511,63.9187 61.7845,65.5853 61.5,67.5C 59.6203,67.7709 58.287,67.1042 57.5,65.5C 58.4959,65.4142 59.3292,65.7476 60,66.5C 60.49,65.2068 60.6567,63.8734 60.5,62.5 Z"/></g>
<g><path style="opacity:1" fill="#195aae" d="M 49.5,65.5 C 50.4916,65.3284 51.1583,65.6618 51.5,66.5C 52.1667,67.5 52.8333,68.5 53.5,69.5C 49.9744,67.4602 46.3077,67.1268 42.5,68.5C 44.0361,65.9078 46.3695,64.9078 49.5,65.5 Z"/></g>
<g><path style="opacity:1" fill="#071c38" d="M 18.5,53.5 C 19.5,53.8333 20.1667,54.5 20.5,55.5C 20.1667,62.1667 19.8333,68.8333 19.5,75.5C 18.5084,68.3524 18.175,61.0191 18.5,53.5 Z"/></g>
<g><path style="opacity:1" fill="#348dd3" d="M 28.5,66.5 C 28.573,68.0269 27.9063,69.0269 26.5,69.5C 26.5,68.8333 26.5,68.1667 26.5,67.5C 27.1667,67.1667 27.8333,66.8333 28.5,66.5 Z"/></g>
<g><path style="opacity:1" fill="#43a9e5" d="M 35.5,70.5 C 35.1667,71.1667 34.8333,71.8333 34.5,72.5C 34.1667,72.5 33.8333,72.5 33.5,72.5C 33.5,71.5 33.5,70.5 33.5,69.5C 31.5853,69.2155 29.9187,69.5489 28.5,70.5C 27.8333,70.5 27.5,70.8333 27.5,71.5C 26.5655,72.5676 26.2322,73.901 26.5,75.5C 27.5,75.5 28.5,75.5 29.5,75.5C 28.4324,76.4345 27.099,76.7678 25.5,76.5C 25.298,74.0504 25.6314,71.717 26.5,69.5C 27.9063,69.0269 28.573,68.0269 28.5,66.5C 30.045,65.7703 30.8784,64.437 31,62.5C 31.4955,64.4727 31.6621,66.4727 31.5,68.5C 33.4832,68.1568 34.8166,68.8235 35.5,70.5 Z"/></g>
<g><path style="opacity:1" fill="#11448c" d="M 53.5,69.5 C 54.8333,70.1667 55.8333,71.1667 56.5,72.5C 56.8333,73.1667 57.1667,73.8333 57.5,74.5C 55.8828,73.962 54.2161,73.6287 52.5,73.5C 50.3513,70.2816 47.3513,69.1149 43.5,70C 42.6195,70.7083 41.9528,71.5416 41.5,72.5C 40.8333,72.5 40.1667,72.5 39.5,72.5C 40.5,71.1667 41.5,69.8333 42.5,68.5C 46.3077,67.1268 49.9744,67.4602 53.5,69.5 Z"/></g>
<g><path style="opacity:1" fill="#3587ca" d="M 55.5,68.5 C 56.609,68.5569 57.609,68.8902 58.5,69.5C 59.1667,70.8333 60.1667,71.8333 61.5,72.5C 61.5,73.1667 61.8333,73.5 62.5,73.5C 63.6874,75.9754 65.6874,76.9754 68.5,76.5C 68.5,75.1667 68.5,73.8333 68.5,72.5C 69.4345,73.5676 69.7678,74.901 69.5,76.5C 68.3646,78.2132 66.698,78.8799 64.5,78.5C 64.1667,77.5 63.5,76.8333 62.5,76.5C 61.5,74.8333 60.1667,73.5 58.5,72.5C 57.5,71.1667 56.5,69.8333 55.5,68.5 Z"/></g>
<g><path style="opacity:1" fill="#41ade9" d="M 66.5,68.5 C 67.3382,68.8417 67.6716,69.5084 67.5,70.5C 65.5648,69.8505 63.5648,69.5172 61.5,69.5C 61.5,70.5 61.5,71.5 61.5,72.5C 60.1667,71.8333 59.1667,70.8333 58.5,69.5C 59.8333,68.8333 61.1667,68.1667 62.5,67.5C 62.7828,66.7109 63.2828,66.0442 64,65.5C 64.8518,66.5707 65.6851,67.5707 66.5,68.5 Z"/></g>
<g><path style="opacity:1" fill="#266ab1" d="M 26.5,67.5 C 26.5,68.1667 26.5,68.8333 26.5,69.5C 25.6314,71.717 25.298,74.0504 25.5,76.5C 24.5655,75.4324 24.2322,74.099 24.5,72.5C 24.5,71.1667 24.5,69.8333 24.5,68.5C 25.1667,68.1667 25.8333,67.8333 26.5,67.5 Z"/></g>
<g><path style="opacity:1" fill="#49bbf0" d="M 28.5,70.5 C 29.9187,69.5489 31.5853,69.2155 33.5,69.5C 33.5,70.5 33.5,71.5 33.5,72.5C 32.5,73.1667 31.5,73.8333 30.5,74.5C 30.8432,72.5168 30.1765,71.1834 28.5,70.5 Z"/></g>
<g><path style="opacity:1" fill="#1857a4" d="M 42.5,68.5 C 41.5,69.8333 40.5,71.1667 39.5,72.5C 37.1475,73.3403 35.1475,74.6736 33.5,76.5C 32.3951,77.6005 31.0618,78.2671 29.5,78.5C 29.5,78.1667 29.5,77.8333 29.5,77.5C 31.1667,76.1667 32.8333,74.8333 34.5,73.5C 37.1841,71.8067 39.8508,70.14 42.5,68.5 Z"/></g>
<g><path style="opacity:1" fill="#2877c6" d="M 51.5,66.5 C 53.0618,66.7329 54.3951,67.3995 55.5,68.5C 56.5,69.8333 57.5,71.1667 58.5,72.5C 57.8333,72.5 57.1667,72.5 56.5,72.5C 55.8333,71.1667 54.8333,70.1667 53.5,69.5C 52.8333,68.5 52.1667,67.5 51.5,66.5 Z"/></g>
<g><path style="opacity:1" fill="#5ed2f9" d="M 28.5,70.5 C 30.1765,71.1834 30.8432,72.5168 30.5,74.5C 29.5,74.5 28.5,74.5 27.5,74.5C 27.5,73.5 27.5,72.5 27.5,71.5C 27.5,70.8333 27.8333,70.5 28.5,70.5 Z"/></g>
<g><path style="opacity:1" fill="#0e366f" d="M 52.5,73.5 C 48.9009,72.6561 45.2343,72.3227 41.5,72.5C 41.9528,71.5416 42.6195,70.7083 43.5,70C 47.3513,69.1149 50.3513,70.2816 52.5,73.5 Z"/></g>
<g><path style="opacity:1" fill="#53c2f1" d="M 67.5,70.5 C 67.7852,72.288 67.4519,73.9547 66.5,75.5C 65.8933,75.3764 65.56,75.0431 65.5,74.5C 66.404,73.791 66.7373,72.791 66.5,71.5C 64.8212,71.2852 63.8212,71.9519 63.5,73.5C 63.1667,73.5 62.8333,73.5 62.5,73.5C 61.8333,73.5 61.5,73.1667 61.5,72.5C 61.5,71.5 61.5,70.5 61.5,69.5C 63.5648,69.5172 65.5648,69.8505 67.5,70.5 Z"/></g>
<g><path style="opacity:0.594" fill="#041326" d="M 80.5,53.5 C 80.5,54.1667 80.5,54.8333 80.5,55.5C 79.7784,55.9175 79.2784,56.5842 79,57.5C 78.7711,65.5472 78.2711,73.5472 77.5,81.5C 76.7095,82.4013 75.7095,83.0679 74.5,83.5C 76.0836,74.9409 76.9169,66.2742 77,57.5C 77.4983,55.4556 78.665,54.1223 80.5,53.5 Z"/></g>
<g><path style="opacity:1" fill="#0c2e5e" d="M 20.5,51.5 C 24.0094,54.2391 25.3428,57.9057 24.5,62.5C 22.961,67.3428 22.2943,72.3428 22.5,77.5C 21.5151,73.3656 21.1818,69.0323 21.5,64.5C 22.961,60.0947 22.6276,55.7614 20.5,51.5 Z"/></g>
<g><path style="opacity:1" fill="#62d5fa" d="M 65.5,74.5 C 64.8333,74.1667 64.1667,73.8333 63.5,73.5C 63.8212,71.9519 64.8212,71.2852 66.5,71.5C 66.7373,72.791 66.404,73.791 65.5,74.5 Z"/></g>
<g><path style="opacity:1" fill="#3486c9" d="M 33.5,72.5 C 33.8333,72.5 34.1667,72.5 34.5,72.5C 34.5,72.8333 34.5,73.1667 34.5,73.5C 32.8333,74.8333 31.1667,76.1667 29.5,77.5C 27.901,77.7678 26.5676,77.4345 25.5,76.5C 27.099,76.7678 28.4324,76.4345 29.5,75.5C 30.1667,75.5 30.5,75.1667 30.5,74.5C 31.5,73.8333 32.5,73.1667 33.5,72.5 Z"/></g>
<g><path style="opacity:1" fill="#0f4085" d="M 39.5,72.5 C 38.1979,74.8218 36.1979,76.1551 33.5,76.5C 35.1475,74.6736 37.1475,73.3403 39.5,72.5 Z"/></g>
<g><path style="opacity:1" fill="#0b2b59" d="M 41.5,72.5 C 45.2343,72.3227 48.9009,72.6561 52.5,73.5C 52.8333,74.1667 53.1667,74.8333 53.5,75.5C 51.5477,75.0051 49.5477,74.6718 47.5,74.5C 44.494,75.1792 41.494,75.8458 38.5,76.5C 39.5,75.1667 40.5,73.8333 41.5,72.5 Z"/></g>
<g><path style="opacity:1" fill="#5cbeed" d="M 27.5,71.5 C 27.5,72.5 27.5,73.5 27.5,74.5C 28.5,74.5 29.5,74.5 30.5,74.5C 30.5,75.1667 30.1667,75.5 29.5,75.5C 28.5,75.5 27.5,75.5 26.5,75.5C 26.2322,73.901 26.5655,72.5676 27.5,71.5 Z"/></g>
<g><path style="opacity:1" fill="#1a59a5" d="M 56.5,72.5 C 57.1667,72.5 57.8333,72.5 58.5,72.5C 60.1667,73.5 61.5,74.8333 62.5,76.5C 60.8333,75.8333 59.1667,75.1667 57.5,74.5C 57.1667,73.8333 56.8333,73.1667 56.5,72.5 Z"/></g>
<g><path style="opacity:1" fill="#255f9d" d="M 24.5,72.5 C 24.2322,74.099 24.5655,75.4324 25.5,76.5C 26.5676,77.4345 27.901,77.7678 29.5,77.5C 29.5,77.8333 29.5,78.1667 29.5,78.5C 27.3792,78.6747 25.3792,78.3414 23.5,77.5C 23.2155,75.5853 23.5489,73.9187 24.5,72.5 Z"/></g>
<g><path style="opacity:1" fill="#52ace1" d="M 67.5,70.5 C 68.3382,70.8417 68.6716,71.5084 68.5,72.5C 68.5,73.8333 68.5,75.1667 68.5,76.5C 65.6874,76.9754 63.6874,75.9754 62.5,73.5C 62.8333,73.5 63.1667,73.5 63.5,73.5C 64.1667,73.8333 64.8333,74.1667 65.5,74.5C 65.56,75.0431 65.8933,75.3764 66.5,75.5C 67.4519,73.9547 67.7852,72.288 67.5,70.5 Z"/></g>
<g><path style="opacity:1" fill="#092348" d="M 53.5,75.5 C 56.1667,77.1667 58.8333,78.8333 61.5,80.5C 56.7327,79.0394 51.8993,77.7061 47,76.5C 44.5897,76.4824 42.423,77.1491 40.5,78.5C 36.8166,79.9158 32.9832,80.9158 29,81.5C 27.6153,81.4857 26.4486,81.1524 25.5,80.5C 30.2472,80.361 34.5805,79.0277 38.5,76.5C 41.494,75.8458 44.494,75.1792 47.5,74.5C 49.5477,74.6718 51.5477,75.0051 53.5,75.5 Z"/></g>
<g><path style="opacity:1" fill="#13458a" d="M 57.5,74.5 C 59.1667,75.1667 60.8333,75.8333 62.5,76.5C 63.5,76.8333 64.1667,77.5 64.5,78.5C 64.1667,78.5 63.8333,78.5 63.5,78.5C 60.7743,78.1449 58.7743,76.8115 57.5,74.5 Z"/></g>
<g><path style="opacity:1" fill="#0b2e60" d="M 52.5,73.5 C 54.2161,73.6287 55.8828,73.962 57.5,74.5C 58.7743,76.8115 60.7743,78.1449 63.5,78.5C 64.9187,79.4511 66.5853,79.7845 68.5,79.5C 66.3926,80.4682 64.0593,80.8016 61.5,80.5C 58.8333,78.8333 56.1667,77.1667 53.5,75.5C 53.1667,74.8333 52.8333,74.1667 52.5,73.5 Z"/></g>
<g><path style="opacity:0.996" fill="#0a2a57" d="M 71.5,65.5 C 73.1745,68.5072 73.8412,71.8405 73.5,75.5C 71.1536,81.2833 67.1536,82.95 61.5,80.5C 64.0593,80.8016 66.3926,80.4682 68.5,79.5C 72.1353,76.5893 73.1353,72.9226 71.5,68.5C 71.5,67.5 71.5,66.5 71.5,65.5 Z"/></g>
<g><path style="opacity:1" fill="#0d356b" d="M 39.5,72.5 C 40.1667,72.5 40.8333,72.5 41.5,72.5C 40.5,73.8333 39.5,75.1667 38.5,76.5C 34.5805,79.0277 30.2472,80.361 25.5,80.5C 24.0937,80.0269 23.427,79.0269 23.5,77.5C 25.3792,78.3414 27.3792,78.6747 29.5,78.5C 31.0618,78.2671 32.3951,77.6005 33.5,76.5C 36.1979,76.1551 38.1979,74.8218 39.5,72.5 Z"/></g>
<g><path style="opacity:0.276" fill="#06172f" d="M 16.5,53.5 C 17.1667,53.5 17.8333,53.5 18.5,53.5C 18.175,61.0191 18.5084,68.3524 19.5,75.5C 19.5,76.8333 19.5,78.1667 19.5,79.5C 21.3588,79.4609 22.6921,80.2942 23.5,82C 28.1935,82.5639 32.8602,82.3973 37.5,81.5C 37.5,82.1667 37.5,82.8333 37.5,83.5C 32.8643,83.2955 28.8643,84.6288 25.5,87.5C 23.6115,86.396 21.9448,85.0627 20.5,83.5C 19.2171,81.3936 18.3838,79.0602 18,76.5C 17.8006,68.7548 17.3006,61.0881 16.5,53.5 Z"/></g>
<g><path style="opacity:1" fill="#04101f" d="M 51.5,80.5 C 52.3065,81.7281 53.3065,82.7281 54.5,83.5C 48.848,82.3116 43.1814,82.3116 37.5,83.5C 37.5,82.8333 37.5,82.1667 37.5,81.5C 42.1956,79.528 46.8623,79.1947 51.5,80.5 Z"/></g>
<g><path style="opacity:0.857" fill="#072041" d="M 20.5,55.5 C 21.4767,58.2869 21.81,61.2869 21.5,64.5C 21.1818,69.0323 21.5151,73.3656 22.5,77.5C 22.8333,77.5 23.1667,77.5 23.5,77.5C 23.427,79.0269 24.0937,80.0269 25.5,80.5C 26.4486,81.1524 27.6153,81.4857 29,81.5C 32.9832,80.9158 36.8166,79.9158 40.5,78.5C 39.3065,79.2719 38.3065,80.2719 37.5,81.5C 32.8602,82.3973 28.1935,82.5639 23.5,82C 22.6921,80.2942 21.3588,79.4609 19.5,79.5C 19.5,78.1667 19.5,76.8333 19.5,75.5C 19.8333,68.8333 20.1667,62.1667 20.5,55.5 Z"/></g>
<g><path style="opacity:0.472" fill="#030e1b" d="M 54.5,83.5 C 59.117,85.0394 63.7836,86.3727 68.5,87.5C 66.5739,88.4861 64.5739,89.4861 62.5,90.5C 62.67,89.1779 62.3366,88.0113 61.5,87C 58.8261,86.3299 56.4927,85.1632 54.5,83.5 Z"/></g>
<g><path style="opacity:0.438" fill="#051327" d="M 51.5,80.5 C 57.6601,82.5522 63.9934,83.5522 70.5,83.5C 70.5,84.5 70.5,85.5 70.5,86.5C 69.8333,86.8333 69.1667,87.1667 68.5,87.5C 63.7836,86.3727 59.117,85.0394 54.5,83.5C 53.3065,82.7281 52.3065,81.7281 51.5,80.5 Z"/></g>
<g><path style="opacity:0.324" fill="#041223" d="M 37.5,83.5 C 33.9562,84.7895 30.6229,86.4561 27.5,88.5C 26.8333,88.1667 26.1667,87.8333 25.5,87.5C 28.8643,84.6288 32.8643,83.2955 37.5,83.5 Z"/></g>
<g><path style="opacity:0.29" fill="#020c17" d="M 54.5,83.5 C 56.4927,85.1632 58.8261,86.3299 61.5,87C 62.3366,88.0113 62.67,89.1779 62.5,90.5C 62.5,91.8333 61.8333,92.5 60.5,92.5C 60.7135,90.8561 60.3802,89.3561 59.5,88C 51.9872,82.6859 44.3206,82.3526 36.5,87C 34.8446,88.4443 34.178,90.2776 34.5,92.5C 32.6925,90.4242 30.3592,89.0909 27.5,88.5C 30.6229,86.4561 33.9562,84.7895 37.5,83.5C 43.1814,82.3116 48.848,82.3116 54.5,83.5 Z"/></g>
<g><path style="opacity:0.713" fill="#000509" d="M 60.5,92.5 C 51.8333,92.5 43.1667,92.5 34.5,92.5C 34.178,90.2776 34.8446,88.4443 36.5,87C 44.3206,82.3526 51.9872,82.6859 59.5,88C 60.3802,89.3561 60.7135,90.8561 60.5,92.5 Z"/></g>
</svg>
