<?xml version="1.0" encoding="UTF-8"?>
<!DOCTYPE svg PUBLIC "-//W3C//DTD SVG 1.1//EN" "http://www.w3.org/Graphics/SVG/1.1/DTD/svg11.dtd">
<svg xmlns="http://www.w3.org/2000/svg" version="1.1" width="96px" height="96px" style="shape-rendering:geometricPrecision; text-rendering:geometricPrecision; image-rendering:optimizeQuality; fill-rule:evenodd; clip-rule:evenodd" xmlns:xlink="http://www.w3.org/1999/xlink">
<g><path style="opacity:1" fill="#054dff" d="M -0.5,-0.5 C 31.5,-0.5 63.5,-0.5 95.5,-0.5C 95.5,31.5 95.5,63.5 95.5,95.5C 63.5,95.5 31.5,95.5 -0.5,95.5C -0.5,63.5 -0.5,31.5 -0.5,-0.5 Z"/></g>
<g><path style="opacity:1" fill="#dfe6ff" d="M 37.5,3.5 C 65.2918,0.963365 83.1252,12.9634 91,39.5C 93.3187,66.052 81.8187,83.2187 56.5,91C 36.9684,93.981 21.4684,87.481 10,71.5C -2.53705,47.1722 1.96295,26.6722 23.5,10C 28.1373,7.51112 32.804,5.34445 37.5,3.5 Z"/></g>
<g><path style="opacity:1" fill="#084dff" d="M 38.5,5.5 C 64.6949,3.2288 81.5282,14.5621 89,39.5C 91.1338,65.0801 79.9672,81.5801 55.5,89C 31.7845,91.5596 15.6179,81.7263 7,59.5C 2.31853,32.5179 12.8185,14.5179 38.5,5.5 Z"/></g>
<g><path style="opacity:1" fill="#e8edff" d="M 25.5,44.5 C 30.4948,45.9358 35.1615,47.9358 39.5,50.5C 35.8863,54.307 31.5529,56.4737 26.5,57C 23.7899,55.9848 21.4566,54.4848 19.5,52.5C 21.1397,49.5319 23.1397,46.8652 25.5,44.5 Z"/></g>
<g><path style="opacity:1" fill="#284bff" d="M 26.5,47.5 C 28.8123,48.3195 31.1457,49.1529 33.5,50C 30.1663,50.7808 26.833,51.1141 23.5,51C 24.7101,49.9609 25.7101,48.7942 26.5,47.5 Z"/></g>
<g><path style="opacity:1" fill="#eff3ff" d="M 31.5,19.5 C 35.9983,20.4105 40.3317,21.9105 44.5,24C 46.5401,27.9144 48.7067,31.7478 51,35.5C 53.0065,34.3313 55.1732,33.6646 57.5,33.5C 57.2148,35.288 57.5481,36.9547 58.5,38.5C 59.7003,37.4688 61.0337,36.6355 62.5,36C 66.8206,35.501 71.1539,35.3343 75.5,35.5C 75.6655,39.5138 75.4988,43.5138 75,47.5C 71.3333,50.1667 67.6667,52.8333 64,55.5C 62.872,57.3453 62.372,59.3453 62.5,61.5C 59.1016,61.1796 55.7683,61.513 52.5,62.5C 49.6981,70.4182 44.0315,74.7515 35.5,75.5C 34.3437,71.5548 33.8437,67.5548 34,63.5C 37.1667,59.1667 40.3333,54.8333 43.5,50.5C 40.1618,44.4875 36.3284,38.8209 32,33.5C 31.5008,28.8452 31.3342,24.1785 31.5,19.5 Z"/></g>
<g><path style="opacity:1" fill="#1e4bff" d="M 45.5,51.5 C 47.5901,51.4501 48.9234,52.4501 49.5,54.5C 45.6667,60.1667 41.8333,65.8333 38,71.5C 36.4101,69.3502 35.7434,67.0168 36,64.5C 39.796,60.5506 42.9626,56.2173 45.5,51.5 Z"/></g>
<g><path style="opacity:1" fill="#1c4dff" d="M 34.5,22.5 C 37.2622,23.3795 39.9289,24.5462 42.5,26C 44.6275,29.7546 46.6275,33.5879 48.5,37.5C 50.216,37.9972 51.8827,38.3306 53.5,38.5C 51.592,41.0229 51.2586,43.6896 52.5,46.5C 56.3094,43.8579 59.9761,41.0246 63.5,38C 66.2272,37.1816 68.8938,37.3483 71.5,38.5C 67.8489,42.6516 64.0156,46.6516 60,50.5C 59.7677,52.2834 60.2677,53.9501 61.5,55.5C 61.1667,56.1667 60.8333,56.8333 60.5,57.5C 56.8579,55.0251 53.3579,52.3585 50,49.5C 47.273,43.0456 44.273,36.7122 41,30.5C 38.9592,29.5769 36.7925,29.2436 34.5,29.5C 34.5,27.1667 34.5,24.8333 34.5,22.5 Z"/></g>
</svg>
