<?xml version="1.0" encoding="UTF-8"?>
<!DOCTYPE svg PUBLIC "-//W3C//DTD SVG 1.1//EN" "http://www.w3.org/Graphics/SVG/1.1/DTD/svg11.dtd">
<svg xmlns="http://www.w3.org/2000/svg" version="1.1" width="96px" height="96px" style="shape-rendering:geometricPrecision; text-rendering:geometricPrecision; image-rendering:optimizeQuality; fill-rule:evenodd; clip-rule:evenodd" xmlns:xlink="http://www.w3.org/1999/xlink">
<g><path style="opacity:0.49" fill="#878482" d="M 44.5,-0.5 C 48.1667,-0.5 51.8333,-0.5 55.5,-0.5C 56.8333,0.166667 58.1667,0.833333 59.5,1.5C 57.8333,1.5 56.1667,1.5 54.5,1.5C 51.1667,0.833333 47.8333,0.166667 44.5,-0.5 Z"/></g>
<g><path style="opacity:1" fill="#4c4745" d="M 40.5,-0.5 C 41.8333,-0.5 43.1667,-0.5 44.5,-0.5C 47.8333,0.166667 51.1667,0.833333 54.5,1.5C 47.4648,1.32572 40.4648,1.65905 33.5,2.5C 35.7791,1.3485 38.1124,0.348502 40.5,-0.5 Z"/></g>
<g><path style="opacity:0.998" fill="#2d2825" d="M 54.5,1.5 C 56.1667,1.5 57.8333,1.5 59.5,1.5C 75.9908,5.99085 86.9908,16.3242 92.5,32.5C 92.5841,36.8371 93.5841,40.8371 95.5,44.5C 95.5,47.8333 95.5,51.1667 95.5,54.5C 92.0573,68.4634 84.3906,79.63 72.5,88C 67.5252,90.9359 62.1918,92.7692 56.5,93.5C 53.9179,93.0254 51.9179,93.6921 50.5,95.5C 48.8333,95.5 47.1667,95.5 45.5,95.5C 44.0821,93.6921 42.0821,93.0254 39.5,93.5C 39.1667,93.5 38.8333,93.5 38.5,93.5C 36.5615,91.8372 34.2282,91.1706 31.5,91.5C 15.0105,85.3473 5.01054,73.6807 1.5,56.5C 1.09838,48.0482 1.76504,39.7148 3.5,31.5C 4.63456,25.8906 7.30122,21.2239 11.5,17.5C 13.8333,15.8333 15.8333,13.8333 17.5,11.5C 21.6036,6.44488 26.9369,3.44488 33.5,2.5C 40.4648,1.65905 47.4648,1.32572 54.5,1.5 Z"/></g>
<g><path style="opacity:0.863" fill="#6f6a68" d="M 17.5,11.5 C 15.8333,13.8333 13.8333,15.8333 11.5,17.5C 12.5,14.5 14.5,12.5 17.5,11.5 Z"/></g>
<g><path style="opacity:0.949" fill="#807d7b" d="M 92.5,32.5 C 93.5,35.1667 94.5,37.8333 95.5,40.5C 95.5,41.8333 95.5,43.1667 95.5,44.5C 93.5841,40.8371 92.5841,36.8371 92.5,32.5 Z"/></g>
<g><path style="opacity:1" fill="#f5f6f5" d="M 32.5,39.5 C 35.1524,43.029 38.1524,43.3623 41.5,40.5C 42.0363,42.971 41.0363,45.1377 38.5,47C 36.1902,47.4966 33.8568,47.6633 31.5,47.5C 29.0799,47.2924 26.7466,47.6258 24.5,48.5C 22.3291,46.1604 20.6625,43.4937 19.5,40.5C 19.5279,42.8473 19.5279,45.1806 19.5,47.5C 19.5569,48.609 19.8902,49.609 20.5,50.5C 23.586,52.0089 26.586,54.5089 29.5,58C 37.6526,62.2887 46.3192,63.6221 55.5,62C 59.889,60.9715 63.889,59.1381 67.5,56.5C 69.5046,59.0278 71.1713,58.6945 72.5,55.5C 71.9747,54.8076 71.3081,54.3076 70.5,54C 71.5908,52.4499 72.9242,51.2832 74.5,50.5C 75.8333,49.5 75.8333,48.5 74.5,47.5C 74.6854,45.8042 75.5187,44.4709 77,43.5C 77.4828,44.448 77.6495,45.448 77.5,46.5C 79.1515,52.6952 78.8182,58.6952 76.5,64.5C 78.0433,66.2532 79.0433,68.2532 79.5,70.5C 78.6364,70.7024 77.6364,71.0357 76.5,71.5C 76.277,72.9667 75.9437,74.4667 75.5,76C 72.0935,79.1221 68.2602,81.6221 64,83.5C 62.7299,81.1639 61.2299,81.1639 59.5,83.5C 59.7093,84.086 60.0426,84.586 60.5,85C 52.1276,86.9339 43.7943,86.9339 35.5,85C 35.9574,84.586 36.2907,84.086 36.5,83.5C 34.4694,81.5224 32.8028,81.5224 31.5,83.5C 24.8073,81.3052 20.3073,76.9719 18,70.5C 16.78,72.8572 15.9467,72.5239 15.5,69.5C 16.5735,67.7207 17.9069,66.054 19.5,64.5C 17.3424,61.2571 17.0091,57.9237 18.5,54.5C 20.4386,56.9891 20.7719,56.6558 19.5,53.5C 17.1816,48.4193 16.8482,43.086 18.5,37.5C 23.6088,34.6837 28.2754,35.3504 32.5,39.5 Z"/></g>
<g><path style="opacity:1" fill="#82a89d" d="M 79.5,70.5 C 79.0433,68.2532 78.0433,66.2532 76.5,64.5C 78.8182,58.6952 79.1515,52.6952 77.5,46.5C 78.29,45.3915 78.79,44.0581 79,42.5C 79.8928,43.7112 80.7261,43.7112 81.5,42.5C 80.2342,41.6376 78.9008,40.9709 77.5,40.5C 76.9524,38.6064 75.9524,36.9397 74.5,35.5C 75.3071,33.0394 74.8071,30.7061 73,28.5C 70.6142,27.2367 68.7808,25.4033 67.5,23C 64.6379,22.7601 62.3046,21.5934 60.5,19.5C 59.7065,19.9312 58.8732,20.2645 58,20.5C 54.8635,18.8894 51.5301,17.8894 48,17.5C 45.8151,18.7585 43.6484,18.7585 41.5,17.5C 40.354,18.1449 39.354,18.9783 38.5,20C 37.2161,20.6838 36.0495,20.5171 35,19.5C 30.1461,21.1862 26.3128,24.1862 23.5,28.5C 20.5905,30.7586 18.9239,33.7586 18.5,37.5C 16.8482,43.086 17.1816,48.4193 19.5,53.5C 18.8333,53.5 18.5,53.8333 18.5,54.5C 17.0091,57.9237 17.3424,61.2571 19.5,64.5C 17.9069,66.054 16.5735,67.7207 15.5,69.5C 12.0262,65.5466 9.85951,60.88 9,55.5C 6.15455,31.3657 16.3212,15.5324 39.5,8C 63.8377,5.67036 79.671,16.1704 87,39.5C 89.3286,51.1817 86.8286,61.515 79.5,70.5 Z"/></g>
<g><path style="opacity:1" fill="#b49566" d="M 58.5,36.5 C 60.045,37.2297 60.8784,38.563 61,40.5C 61.3826,39.944 61.8826,39.6107 62.5,39.5C 62.4226,40.7498 61.756,41.5831 60.5,42C 58.6131,42.7796 56.9464,42.6129 55.5,41.5C 56.8734,41.6567 58.2068,41.49 59.5,41C 58.5842,40.7216 57.9175,40.2216 57.5,39.5C 59.7957,39.1959 60.129,38.1959 58.5,36.5 Z"/></g>
<g><path style="opacity:1" fill="#d7a755" d="M 32.5,35.5 C 34.4147,35.2155 36.0813,35.5489 37.5,36.5C 38.1667,36.5 38.8333,36.5 39.5,36.5C 40.6737,37.5137 41.3404,38.847 41.5,40.5C 38.1524,43.3623 35.1524,43.029 32.5,39.5C 32.5,38.1667 32.5,36.8333 32.5,35.5 Z"/></g>
<g><path style="opacity:1" fill="#342d28" d="M 57.5,36.5 C 57.8333,36.5 58.1667,36.5 58.5,36.5C 60.129,38.1959 59.7957,39.1959 57.5,39.5C 56.375,38.6522 56.375,37.6522 57.5,36.5 Z"/></g>
<g><path style="opacity:1" fill="#e7ac4c" d="M 55.5,36.5 C 56.1667,36.5 56.8333,36.5 57.5,36.5C 56.375,37.6522 56.375,38.6522 57.5,39.5C 57.9175,40.2216 58.5842,40.7216 59.5,41C 58.2068,41.49 56.8734,41.6567 55.5,41.5C 54.8333,41.5 54.5,41.1667 54.5,40.5C 54.4326,39.0413 54.7659,37.7079 55.5,36.5 Z"/></g>
<g><path style="opacity:1" fill="#322a29" d="M 37.5,36.5 C 37.4142,37.4959 37.7476,38.3292 38.5,39C 37.552,39.4828 36.552,39.6495 35.5,39.5C 35.2852,37.8212 35.9519,36.8212 37.5,36.5 Z"/></g>
<g><path style="opacity:1" fill="#efb551" d="M 57.5,36.5 C 58.9187,35.5489 60.5853,35.2155 62.5,35.5C 62.5,36.8333 62.5,38.1667 62.5,39.5C 61.8826,39.6107 61.3826,39.944 61,40.5C 60.8784,38.563 60.045,37.2297 58.5,36.5C 58.1667,36.5 57.8333,36.5 57.5,36.5 Z"/></g>
<g><path style="opacity:1" fill="#6b593e" d="M 32.5,35.5 C 34.2646,34.5386 36.2646,34.2053 38.5,34.5C 39.3382,34.8417 39.6716,35.5084 39.5,36.5C 38.8333,36.5 38.1667,36.5 37.5,36.5C 36.0813,35.5489 34.4147,35.2155 32.5,35.5 Z"/></g>
<g><path style="opacity:1" fill="#aca09b" d="M 62.5,39.5 C 62.5,38.1667 62.5,36.8333 62.5,35.5C 60.5853,35.2155 58.9187,35.5489 57.5,36.5C 56.8333,36.5 56.1667,36.5 55.5,36.5C 56.8295,31.8372 59.8295,28.8372 64.5,27.5C 65.2389,27.631 65.9056,27.4643 66.5,27C 65.3769,23.9443 66.0435,23.7777 68.5,26.5C 67.5653,29.0595 68.3987,29.7262 71,28.5C 73.0955,29.7155 72.9288,30.5488 70.5,31C 71.5,31.8333 72.5,32.6667 73.5,33.5C 69.3626,34.7335 65.6959,36.7335 62.5,39.5 Z"/></g>
<g><path style="opacity:1" fill="#ebeae0" d="M 64.5,27.5 C 59.8295,28.8372 56.8295,31.8372 55.5,36.5C 54.7659,37.7079 54.4326,39.0413 54.5,40.5C 53.4284,42.9358 54.095,45.1025 56.5,47C 58.8098,47.4966 61.1432,47.6633 63.5,47.5C 57.5498,51.9836 52.2164,51.317 47.5,45.5C 44.2427,49.8645 39.9094,51.3645 34.5,50C 33.4293,49.1482 32.4293,48.3149 31.5,47.5C 33.8568,47.6633 36.1902,47.4966 38.5,47C 41.0363,45.1377 42.0363,42.971 41.5,40.5C 41.3404,38.847 40.6737,37.5137 39.5,36.5C 39.6716,35.5084 39.3382,34.8417 38.5,34.5C 37.5572,31.2264 35.5572,28.8931 32.5,27.5C 33.9464,26.3871 35.6131,26.2204 37.5,27C 40.9681,28.9698 44.3015,31.1365 47.5,33.5C 51.6616,30.0858 56.3283,27.7525 61.5,26.5C 62.7261,26.5195 63.7261,26.8529 64.5,27.5 Z"/></g>
<g><path style="opacity:1" fill="#b7aeaa" d="M 32.5,27.5 C 35.5572,28.8931 37.5572,31.2264 38.5,34.5C 36.2646,34.2053 34.2646,34.5386 32.5,35.5C 32.5,36.8333 32.5,38.1667 32.5,39.5C 28.2754,35.3504 23.6088,34.6837 18.5,37.5C 18.9239,33.7586 20.5905,30.7586 23.5,28.5C 24.4959,28.4142 25.3292,28.7476 26,29.5C 26.8996,27.6025 28.0663,25.9358 29.5,24.5C 30.6039,25.6313 30.2705,26.4646 28.5,27C 29.7932,27.49 31.1266,27.6567 32.5,27.5 Z"/></g>
<g><path style="opacity:1" fill="#eeeeee" d="M 77.5,40.5 C 74.7155,42.2714 72.7155,44.7714 71.5,48C 68.9184,47.7446 66.2518,47.578 63.5,47.5C 61.1432,47.6633 58.8098,47.4966 56.5,47C 54.095,45.1025 53.4284,42.9358 54.5,40.5C 54.5,41.1667 54.8333,41.5 55.5,41.5C 56.9464,42.6129 58.6131,42.7796 60.5,42C 61.756,41.5831 62.4226,40.7498 62.5,39.5C 65.6959,36.7335 69.3626,34.7335 73.5,33.5C 72.5,32.6667 71.5,31.8333 70.5,31C 72.9288,30.5488 73.0955,29.7155 71,28.5C 68.3987,29.7262 67.5653,29.0595 68.5,26.5C 66.0435,23.7777 65.3769,23.9443 66.5,27C 65.9056,27.4643 65.2389,27.631 64.5,27.5C 63.7261,26.8529 62.7261,26.5195 61.5,26.5C 56.3283,27.7525 51.6616,30.0858 47.5,33.5C 44.3015,31.1365 40.9681,28.9698 37.5,27C 35.6131,26.2204 33.9464,26.3871 32.5,27.5C 31.1266,27.6567 29.7932,27.49 28.5,27C 30.2705,26.4646 30.6039,25.6313 29.5,24.5C 28.0663,25.9358 26.8996,27.6025 26,29.5C 25.3292,28.7476 24.4959,28.4142 23.5,28.5C 26.3128,24.1862 30.1461,21.1862 35,19.5C 36.0495,20.5171 37.2161,20.6838 38.5,20C 39.354,18.9783 40.354,18.1449 41.5,17.5C 43.6484,18.7585 45.8151,18.7585 48,17.5C 51.5301,17.8894 54.8635,18.8894 58,20.5C 58.8732,20.2645 59.7065,19.9312 60.5,19.5C 62.3046,21.5934 64.6379,22.7601 67.5,23C 68.7808,25.4033 70.6142,27.2367 73,28.5C 74.8071,30.7061 75.3071,33.0394 74.5,35.5C 75.9524,36.9397 76.9524,38.6064 77.5,40.5 Z"/></g>
<g><path style="opacity:1" fill="#625e5d" d="M 50.5,26.5 C 51.3864,25.2241 52.3864,25.2241 53.5,26.5C 52.5754,27.5624 51.5754,27.5624 50.5,26.5 Z"/></g>
<g><path style="opacity:1" fill="#767171" d="M 41.5,25.5 C 46.0214,25.3262 46.3548,25.9929 42.5,27.5C 41.7025,27.0431 41.3691,26.3764 41.5,25.5 Z"/></g>
<g><path style="opacity:1" fill="#524e4b" d="M 54.5,24.5 C 55.3864,23.2241 56.3864,23.2241 57.5,24.5C 56.5754,25.5624 55.5754,25.5624 54.5,24.5 Z"/></g>
<g><path style="opacity:1" fill="#605c5a" d="M 37.5,23.5 C 40.7973,23.3287 41.1306,23.9954 38.5,25.5C 37.7025,25.0431 37.3691,24.3764 37.5,23.5 Z"/></g>
<g><path style="opacity:1" fill="#726d6c" d="M 33.5,22.5 C 37.2434,22.4592 37.4101,23.1259 34,24.5C 33.5357,23.9056 33.369,23.2389 33.5,22.5 Z"/></g>
<g><path style="opacity:1" fill="#716d6b" d="M 52.5,19.5 C 54.9828,19.73 55.4828,20.3966 54,21.5C 52.9701,21.1639 52.4701,20.4972 52.5,19.5 Z"/></g>
<g><path style="opacity:1" fill="#3e3a38" d="M 19.5,47.5 C 21.3818,48.221 21.7152,49.221 20.5,50.5C 19.8902,49.609 19.5569,48.609 19.5,47.5 Z"/></g>
<g><path style="opacity:0.659" fill="#7f7c7a" d="M 3.5,31.5 C 1.76504,39.7148 1.09838,48.0482 1.5,56.5C 0.833333,55.8333 0.166667,55.1667 -0.5,54.5C -0.5,49.5 -0.5,44.5 -0.5,39.5C 0.833333,36.8333 2.16667,34.1667 3.5,31.5 Z"/></g>
<g><path style="opacity:1" fill="#b5aaa7" d="M 31.5,47.5 C 32.4293,48.3149 33.4293,49.1482 34.5,50C 39.9094,51.3645 44.2427,49.8645 47.5,45.5C 52.2164,51.317 57.5498,51.9836 63.5,47.5C 66.2518,47.578 68.9184,47.7446 71.5,48C 72.7155,44.7714 74.7155,42.2714 77.5,40.5C 78.9008,40.9709 80.2342,41.6376 81.5,42.5C 80.7261,43.7112 79.8928,43.7112 79,42.5C 78.79,44.0581 78.29,45.3915 77.5,46.5C 77.6495,45.448 77.4828,44.448 77,43.5C 75.5187,44.4709 74.6854,45.8042 74.5,47.5C 73.8843,48.7978 73.8843,49.7978 74.5,50.5C 72.9242,51.2832 71.5908,52.4499 70.5,54C 71.3081,54.3076 71.9747,54.8076 72.5,55.5C 71.1713,58.6945 69.5046,59.0278 67.5,56.5C 63.889,59.1381 59.889,60.9715 55.5,62C 46.3192,63.6221 37.6526,62.2887 29.5,58C 26.586,54.5089 23.586,52.0089 20.5,50.5C 21.7152,49.221 21.3818,48.221 19.5,47.5C 19.5279,45.1806 19.5279,42.8473 19.5,40.5C 20.6625,43.4937 22.3291,46.1604 24.5,48.5C 26.7466,47.6258 29.0799,47.2924 31.5,47.5 Z"/></g>
<g><path style="opacity:1" fill="#423f3e" d="M 74.5,47.5 C 75.8333,48.5 75.8333,49.5 74.5,50.5C 73.8843,49.7978 73.8843,48.7978 74.5,47.5 Z"/></g>
<g><path style="opacity:1" fill="#56514f" d="M 76.5,52.5 C 77.522,53.8917 77.1887,55.225 75.5,56.5C 75.1667,56.3333 74.8333,56.1667 74.5,56C 75.305,54.8873 75.9717,53.7206 76.5,52.5 Z"/></g>
<g><path style="opacity:1" fill="#47403e" d="M 19.5,53.5 C 20.7719,56.6558 20.4386,56.9891 18.5,54.5C 18.5,53.8333 18.8333,53.5 19.5,53.5 Z"/></g>
<g><path style="opacity:1" fill="#1d1a19" d="M 23.5,54.5 C 24.6266,55.1217 25.6266,55.955 26.5,57C 24.5106,57.5192 23.5106,56.6859 23.5,54.5 Z"/></g>
<g><path style="opacity:1" fill="#44403f" d="M 20.5,59.5 C 21.6266,60.1217 22.6266,60.955 23.5,62C 21.5106,62.5192 20.5106,61.6859 20.5,59.5 Z"/></g>
<g><path style="opacity:1" fill="#2c2826" d="M 73.5,59.5 C 75.6569,60.0533 75.4903,61.0533 73,62.5C 72.5304,61.4232 72.6971,60.4232 73.5,59.5 Z"/></g>
<g><path style="opacity:1" fill="#2e2c2a" d="M 26.5,62.5 C 28.2554,63.0722 29.9221,63.9055 31.5,65C 28.7383,66.0769 27.0717,65.2436 26.5,62.5 Z"/></g>
<g><path style="opacity:1" fill="#1a1817" d="M 67.5,62.5 C 68.7736,63.1894 68.7736,64.0228 67.5,65C 66.5,65.6667 65.5,65.6667 64.5,65C 65.5707,64.1482 66.5707,63.3149 67.5,62.5 Z"/></g>
<g><path style="opacity:1" fill="#211e1d" d="M 21.5,68.5 C 22.7434,67.2625 23.7434,67.5959 24.5,69.5C 24.1667,69.8333 23.8333,70.1667 23.5,70.5C 22.8182,69.7573 22.1515,69.0906 21.5,68.5 Z"/></g>
<g><path style="opacity:1" fill="#242220" d="M 71.5,67.5 C 74.0118,68.2162 74.0118,69.2162 71.5,70.5C 70.913,69.7666 70.913,68.7666 71.5,67.5 Z"/></g>
<g><path style="opacity:1" fill="#232120" d="M 31.5,70.5 C 33.0898,70.6282 34.4231,71.2949 35.5,72.5C 33.1671,73.9415 31.8338,73.2748 31.5,70.5 Z"/></g>
<g><path style="opacity:1" fill="#3a3736" d="M 61.5,70.5 C 65.0361,70.9381 64.8694,71.9381 61,73.5C 60.5,73.1667 60,72.8333 59.5,72.5C 60.2427,71.8182 60.9094,71.1515 61.5,70.5 Z"/></g>
<g><path style="opacity:1" fill="#151110" d="M 25.5,76.5 C 26.7211,75.5354 28.0544,75.702 29.5,77C 28.0715,77.5791 26.7382,77.4124 25.5,76.5 Z"/></g>
<g><path style="opacity:1" fill="#161515" d="M 67.5,75.5 C 68.3764,75.3691 69.0431,75.7025 69.5,76.5C 67.1916,77.8734 66.5249,77.5401 67.5,75.5 Z"/></g>
<g><path style="opacity:1" fill="#272423" d="M 38.5,76.5 C 40.2554,77.0722 41.9221,77.9055 43.5,79C 40.7383,80.0769 39.0717,79.2436 38.5,76.5 Z"/></g>
<g><path style="opacity:1" fill="#1b1817" d="M 52.5,77.5 C 56.5878,77.2184 57.0878,77.8851 54,79.5C 52.9701,79.1639 52.4701,78.4972 52.5,77.5 Z"/></g>
<g><path style="opacity:1" fill="#565453" d="M 44.5,82.5 C 46.604,82.2011 48.604,82.5344 50.5,83.5C 49.3073,85.3837 47.6406,85.8837 45.5,85C 44.7476,84.3292 44.4142,83.4959 44.5,82.5 Z"/></g>
<g><path style="opacity:0.659" fill="#747270" d="M 31.5,91.5 C 34.2282,91.1706 36.5615,91.8372 38.5,93.5C 35.8478,93.5905 33.5145,92.9238 31.5,91.5 Z"/></g>
<g><path style="opacity:0.475" fill="#9b9897" d="M 56.5,93.5 C 55.8333,94.1667 55.1667,94.8333 54.5,95.5C 53.1667,95.5 51.8333,95.5 50.5,95.5C 51.9179,93.6921 53.9179,93.0254 56.5,93.5 Z"/></g>
<g><path style="opacity:0.082" fill="#8c8988" d="M 39.5,93.5 C 42.0821,93.0254 44.0821,93.6921 45.5,95.5C 43.8333,95.5 42.1667,95.5 40.5,95.5C 40.1667,94.8333 39.8333,94.1667 39.5,93.5 Z"/></g>
</svg>
