<?xml version="1.0" encoding="UTF-8"?>
<!DOCTYPE svg PUBLIC "-//W3C//DTD SVG 1.1//EN" "http://www.w3.org/Graphics/SVG/1.1/DTD/svg11.dtd">
<svg xmlns="http://www.w3.org/2000/svg" version="1.1" width="96px" height="96px" style="shape-rendering:geometricPrecision; text-rendering:geometricPrecision; image-rendering:optimizeQuality; fill-rule:evenodd; clip-rule:evenodd" xmlns:xlink="http://www.w3.org/1999/xlink">
<g><path style="opacity:0.997" fill="#070a11" d="M -0.5,-0.5 C 31.5,-0.5 63.5,-0.5 95.5,-0.5C 95.5,31.5 95.5,63.5 95.5,95.5C 63.5,95.5 31.5,95.5 -0.5,95.5C -0.5,63.5 -0.5,31.5 -0.5,-0.5 Z"/></g>
<g><path style="opacity:1" fill="#724bdd" d="M 45.5,8.5 C 50.3276,8.38524 51.6609,10.5519 49.5,15C 43.7377,15.4178 42.4044,13.2511 45.5,8.5 Z"/></g>
<g><path style="opacity:1" fill="#8744e9" d="M 61.5,17.5 C 66.4928,17.997 67.4928,20.1637 64.5,24C 59.1483,24.1754 58.1483,22.0087 61.5,17.5 Z"/></g>
<g><path style="opacity:1" fill="#8242de" d="M 30.5,17.5 C 35.3276,17.3852 36.6609,19.5519 34.5,24C 28.7377,24.4178 27.4044,22.2511 30.5,17.5 Z"/></g>
<g><path style="opacity:1" fill="#734bde" d="M 14.5,26.5 C 20.5548,25.9421 21.8881,28.1088 18.5,33C 13.7915,33.082 12.4582,30.9154 14.5,26.5 Z"/></g>
<g><path style="opacity:1" fill="#b529ee" d="M 45.5,25.5 C 51.4877,25.664 52.821,28.164 49.5,33C 43.4128,33.2054 42.0795,30.7054 45.5,25.5 Z"/></g>
<g><path style="opacity:1" fill="#734bde" d="M 75.5,26.5 C 81.5548,25.9421 82.8881,28.1088 79.5,33C 74.7915,33.082 73.4582,30.9154 75.5,26.5 Z"/></g>
<g><path style="opacity:1" fill="#0c0a13" d="M 26.5,52.5 C 24.1619,51.3183 22.1619,49.6517 20.5,47.5C 22.5193,45.8103 24.5193,44.1436 26.5,42.5C 29.2889,42.2394 32.1222,41.906 35,41.5C 38.2899,43.2868 41.4565,45.2868 44.5,47.5C 41.672,49.7481 38.672,51.7481 35.5,53.5C 32.4251,52.8163 29.4251,52.483 26.5,52.5 Z"/></g>
<g><path style="opacity:1" fill="#0b0a12" d="M 68.5,42.5 C 70.8381,43.6817 72.8381,45.3483 74.5,47.5C 73.6602,48.735 72.6602,49.735 71.5,50.5C 69.6137,51.3606 67.7804,52.3606 66,53.5C 63.8797,50.9199 61.713,50.9199 59.5,53.5C 56.328,51.7481 53.328,49.7481 50.5,47.5C 53.2911,45.2651 56.2911,43.2651 59.5,41.5C 62.5443,41.9678 65.5443,42.3011 68.5,42.5 Z"/></g>
<g><path style="opacity:1" fill="#c622e7" d="M 70.5,41.5 C 70.1583,42.3382 69.4916,42.6716 68.5,42.5C 65.5443,42.3011 62.5443,41.9678 59.5,41.5C 56.2911,43.2651 53.2911,45.2651 50.5,47.5C 53.328,49.7481 56.328,51.7481 59.5,53.5C 61.713,50.9199 63.8797,50.9199 66,53.5C 67.7804,52.3606 69.6137,51.3606 71.5,50.5C 72.4916,50.3284 73.1583,50.6618 73.5,51.5C 69.9685,52.8289 67.4685,55.1623 66,58.5C 65.196,59.8045 64.0293,60.4712 62.5,60.5C 59.7237,56.5744 56.0571,53.4077 51.5,51C 48.8333,50.3333 46.1667,50.3333 43.5,51C 38.9429,53.4077 35.2763,56.5744 32.5,60.5C 29.8321,58.265 27.1654,55.9317 24.5,53.5C 24.8417,52.6618 25.5084,52.3284 26.5,52.5C 29.4251,52.483 32.4251,52.8163 35.5,53.5C 38.672,51.7481 41.672,49.7481 44.5,47.5C 41.4565,45.2868 38.2899,43.2868 35,41.5C 32.1222,41.906 29.2889,42.2394 26.5,42.5C 26.5,41.8333 26.5,41.1667 26.5,40.5C 27.0892,35.7538 29.7559,33.9205 34.5,35C 40.1634,45.504 47.83,47.1707 57.5,40C 58.3943,35.432 61.061,33.7653 65.5,35C 66.0979,38.0466 67.7646,40.2133 70.5,41.5 Z"/></g>
<g><path style="opacity:1" fill="#8c40e3" d="M 26.5,40.5 C 26.5,41.1667 26.5,41.8333 26.5,42.5C 24.5193,44.1436 22.5193,45.8103 20.5,47.5C 22.1619,49.6517 24.1619,51.3183 26.5,52.5C 25.5084,52.3284 24.8417,52.6618 24.5,53.5C 21.6378,51.1792 18.3045,50.0125 14.5,50C 12.9703,44.863 14.8036,43.0297 20,44.5C 22.2619,43.2875 24.4285,41.9541 26.5,40.5 Z"/></g>
<g><path style="opacity:1" fill="#8642e1" d="M 70.5,41.5 C 72.6441,43.8385 75.1441,44.5051 78,43.5C 81.3452,44.7195 82.1786,46.8862 80.5,50C 78.0796,50.2904 75.7463,50.7904 73.5,51.5C 73.1583,50.6618 72.4916,50.3284 71.5,50.5C 72.6602,49.735 73.6602,48.735 74.5,47.5C 72.8381,45.3483 70.8381,43.6817 68.5,42.5C 69.4916,42.6716 70.1583,42.3382 70.5,41.5 Z"/></g>
<g><path style="opacity:1" fill="#744ce2" d="M 76.5,61.5 C 80.9764,61.8003 82.3097,63.9669 80.5,68C 74.6815,68.5262 73.3481,66.3595 76.5,61.5 Z"/></g>
<g><path style="opacity:1" fill="#764de5" d="M 15.5,61.5 C 19.7069,61.6938 21.0402,63.6938 19.5,67.5C 13.3445,68.9463 12.0112,66.9463 15.5,61.5 Z"/></g>
<g><path style="opacity:1" fill="#ab27dd" d="M 45.5,60.5 C 51.6614,60.9435 52.9947,63.7768 49.5,69C 44.5036,69.6643 42.6703,67.4977 44,62.5C 44.7172,61.9558 45.2172,61.2891 45.5,60.5 Z"/></g>
<g><path style="opacity:1" fill="#8145e5" d="M 60.5,70.5 C 66.0159,70.4734 67.3492,72.64 64.5,77C 59.5705,77.427 58.2372,75.2604 60.5,70.5 Z"/></g>
<g><path style="opacity:1" fill="#7f45e0" d="M 30.5,70.5 C 35.3276,70.3852 36.6609,72.5519 34.5,77C 28.7377,77.4178 27.4044,75.2511 30.5,70.5 Z"/></g>
<g><path style="opacity:1" fill="#734bdf" d="M 45.5,79.5 C 50.3276,79.3852 51.6609,81.5519 49.5,86C 43.7377,86.4178 42.4044,84.2511 45.5,79.5 Z"/></g>
</svg>
