<?xml version="1.0" encoding="UTF-8"?>
<!DOCTYPE svg PUBLIC "-//W3C//DTD SVG 1.1//EN" "http://www.w3.org/Graphics/SVG/1.1/DTD/svg11.dtd">
<svg xmlns="http://www.w3.org/2000/svg" version="1.1" width="96px" height="96px" style="shape-rendering:geometricPrecision; text-rendering:geometricPrecision; image-rendering:optimizeQuality; fill-rule:evenodd; clip-rule:evenodd" xmlns:xlink="http://www.w3.org/1999/xlink">
<g><path style="opacity:0.997" fill="#030303" d="M -0.5,-0.5 C 31.5,-0.5 63.5,-0.5 95.5,-0.5C 95.5,31.5 95.5,63.5 95.5,95.5C 63.5,95.5 31.5,95.5 -0.5,95.5C -0.5,63.5 -0.5,31.5 -0.5,-0.5 Z"/></g>
<g><path style="opacity:1" fill="#faf9f9" d="M 72.5,58.5 C 68.2315,57.6274 63.8982,57.2941 59.5,57.5C 58.9423,56.2101 57.9423,55.3768 56.5,55C 47.0308,52.7812 38.0308,49.4479 29.5,45C 24.6755,39.6031 23.3422,33.4365 25.5,26.5C 22.516,23.0154 19.3493,19.682 16,16.5C 17.4309,12.8763 19.9309,9.87626 23.5,7.5C 27.1667,10.8333 30.8333,14.1667 34.5,17.5C 38.4779,15.9438 42.6446,15.2771 47,15.5C 51.5052,15.2948 55.8385,15.9615 60,17.5C 63.9696,14.3665 67.803,11.0331 71.5,7.5C 74.5,9.83333 77.1667,12.5 79.5,15.5C 76.1667,19.1667 72.8333,22.8333 69.5,26.5C 71.0553,28.943 71.722,31.6097 71.5,34.5C 67.1667,34.5 62.8333,34.5 58.5,34.5C 57.1884,28.1559 53.1884,25.1559 46.5,25.5C 39.5888,25.0739 36.5888,28.0739 37.5,34.5C 42.8982,38.1345 48.8982,40.3012 55.5,41C 62.9702,42.6431 68.4702,46.8098 72,53.5C 72.4935,55.1341 72.6602,56.8008 72.5,58.5 Z"/></g>
<g><path style="opacity:1" fill="#f9f8f8" d="M 49.5,69.5 C 48.372,72.7814 48.372,76.1148 49.5,79.5C 44.3011,79.9856 39.3011,79.3189 34.5,77.5C 30.5,80.8333 26.8333,84.5 23.5,88.5C 19.4885,86.0297 16.9885,82.6964 16,78.5C 19.1667,75.3333 22.3333,72.1667 25.5,69C 19.8358,58.8754 22.8358,55.0421 34.5,57.5C 35.9179,65.9135 40.9179,69.9135 49.5,69.5 Z"/></g>
<g><path style="opacity:1" fill="#e74040" d="M 59.5,57.5 C 63.8982,57.2941 68.2315,57.6274 72.5,58.5C 75.1041,60.6 77.6041,62.9334 80,65.5C 84.206,76.5805 81.0393,84.7472 70.5,90C 60.8154,91.8244 53.8154,88.3244 49.5,79.5C 48.372,76.1148 48.372,72.7814 49.5,69.5C 51.0468,63.9579 54.3801,59.9579 59.5,57.5 Z"/></g>
<g><path style="opacity:1" fill="#fef5f5" d="M 64.5,61.5 C 68.1081,63.3827 69.6081,66.3827 69,70.5C 66.5,74.3333 64,78.1667 61.5,82C 58.7728,82.8184 56.1062,82.6517 53.5,81.5C 57.1789,74.8062 60.8456,68.1395 64.5,61.5 Z"/></g>
<g><path style="opacity:1" fill="#feefee" d="M 71.5,73.5 C 73.9448,75.6716 75.9448,78.3383 77.5,81.5C 74.2317,82.487 70.8984,82.8204 67.5,82.5C 68.0231,79.122 69.3565,76.122 71.5,73.5 Z"/></g>
</svg>
