<?xml version="1.0" encoding="UTF-8"?>
<!DOCTYPE svg PUBLIC "-//W3C//DTD SVG 1.1//EN" "http://www.w3.org/Graphics/SVG/1.1/DTD/svg11.dtd">
<svg xmlns="http://www.w3.org/2000/svg" version="1.1" width="96px" height="96px" style="shape-rendering:geometricPrecision; text-rendering:geometricPrecision; image-rendering:optimizeQuality; fill-rule:evenodd; clip-rule:evenodd" xmlns:xlink="http://www.w3.org/1999/xlink">
<g><path style="opacity:1" fill="#183faa" d="M 38.5,-0.5 C 44.8333,-0.5 51.1667,-0.5 57.5,-0.5C 77.1667,5.16667 89.8333,17.8333 95.5,37.5C 95.5,44.1667 95.5,50.8333 95.5,57.5C 94.8333,57.5 94.5,57.8333 94.5,58.5C 93.7611,58.631 93.0944,58.4643 92.5,58C 93.5171,56.9505 93.6838,55.7839 93,54.5C 74.5833,36.2508 56.4167,17.9174 38.5,-0.5 Z"/></g>
<g><path style="opacity:1" fill="#173999" d="M 37.5,-0.5 C 37.8333,-0.5 38.1667,-0.5 38.5,-0.5C 56.4167,17.9174 74.5833,36.2508 93,54.5C 93.6838,55.7839 93.5171,56.9505 92.5,58C 93.0944,58.4643 93.7611,58.631 94.5,58.5C 93.3494,64.9866 90.6828,70.6533 86.5,75.5C 85.4019,74.603 85.4019,73.7697 86.5,73C 78.8333,65.3333 71.1667,57.6667 63.5,50C 62.8333,49.3333 62.1667,49.3333 61.5,50C 63.5933,54.7759 65.5933,59.6093 67.5,64.5C 67.3764,65.1067 67.0431,65.44 66.5,65.5C 60.556,50.0001 54.2227,34.6668 47.5,19.5C 45.5498,23.0651 43.8831,26.7317 42.5,30.5C 37.315,23.4779 31.1483,17.1446 24,11.5C 23.5,10.5 23,9.5 22.5,8.5C 23.6302,7.37765 24.2969,6.04432 24.5,4.5C 28.8366,2.61391 33.1699,0.947247 37.5,-0.5 Z"/></g>
<g><path style="opacity:1" fill="#153082" d="M 24.5,4.5 C 24.2969,6.04432 23.6302,7.37765 22.5,8.5C 23,9.5 23.5,10.5 24,11.5C 31.1483,17.1446 37.315,23.4779 42.5,30.5C 39.0288,39.5803 35.3622,48.5803 31.5,57.5C 30.9569,57.44 30.6236,57.1067 30.5,56.5C 32.1987,53.2324 33.3653,49.8991 34,46.5C 25.6667,38.1667 17.3333,29.8333 9,21.5C 8.32924,22.2524 7.4959,22.5858 6.5,22.5C 10.8119,14.8547 16.8119,8.85472 24.5,4.5 Z"/></g>
<g><path style="opacity:1" fill="#132c75" d="M 31.5,57.5 C 31.1075,59.2838 30.4408,60.9505 29.5,62.5C 28.8359,61.352 28.6692,60.0187 29,58.5C 21,50.5 13,42.5 5,34.5C 4.64114,31.4557 3.97448,31.1224 3,33.5C 2.61742,32.944 2.11742,32.6107 1.5,32.5C 2.42085,28.701 4.08752,25.3677 6.5,22.5C 7.4959,22.5858 8.32924,22.2524 9,21.5C 17.3333,29.8333 25.6667,38.1667 34,46.5C 33.3653,49.8991 32.1987,53.2324 30.5,56.5C 30.6236,57.1067 30.9569,57.44 31.5,57.5 Z"/></g>
<g><path style="opacity:0.996" fill="#122768" d="M 29.5,62.5 C 28.914,64.8398 27.914,67.0065 26.5,69C 27.0944,69.4643 27.7611,69.631 28.5,69.5C 29.5832,69.4606 30.5832,69.1272 31.5,68.5C 39.3493,77.1828 47.6826,85.3495 56.5,93C 55.0577,93.3768 54.0577,94.2101 53.5,95.5C 51.5,95.5 49.5,95.5 47.5,95.5C 47.631,94.7611 47.4643,94.0944 47,93.5C 31.1516,77.7571 15.3183,62.0904 -0.5,46.5C -0.5,43.5 -0.5,40.5 -0.5,37.5C 0.309209,35.9724 0.975875,34.3057 1.5,32.5C 2.11742,32.6107 2.61742,32.944 3,33.5C 3.97448,31.1224 4.64114,31.4557 5,34.5C 13,42.5 21,50.5 29,58.5C 28.6692,60.0187 28.8359,61.352 29.5,62.5 Z"/></g>
<g><path style="opacity:1" fill="#cfd4e6" d="M 66.5,65.5 C 67.087,66.7666 67.087,67.7666 66.5,68.5C 61.5367,65.5297 56.8701,62.1964 52.5,58.5C 51.5,57.1667 50.5,55.8333 49.5,54.5C 48.2601,52.0155 47.2601,52.0155 46.5,54.5C 44.8333,55.5 43.5,56.8333 42.5,58.5C 37.8091,62.1973 33.1424,65.864 28.5,69.5C 27.7611,69.631 27.0944,69.4643 26.5,69C 27.914,67.0065 28.914,64.8398 29.5,62.5C 30.4408,60.9505 31.1075,59.2838 31.5,57.5C 35.3622,48.5803 39.0288,39.5803 42.5,30.5C 43.8831,26.7317 45.5498,23.0651 47.5,19.5C 54.2227,34.6668 60.556,50.0001 66.5,65.5 Z"/></g>
<g><path style="opacity:1" fill="#30348b" d="M 46.5,38.5 C 49.0827,40.0584 50.2493,42.3918 50,45.5C 48.3333,42.8333 46.6667,42.8333 45,45.5C 45.1571,43.1693 45.6571,40.8359 46.5,38.5 Z"/></g>
<g><path style="opacity:1" fill="#313090" d="M 49.5,54.5 C 48.5,54.5 47.5,54.5 46.5,54.5C 47.2601,52.0155 48.2601,52.0155 49.5,54.5 Z"/></g>
<g><path style="opacity:0.998" fill="#10235c" d="M -0.5,46.5 C 15.3183,62.0904 31.1516,77.7571 47,93.5C 47.4643,94.0944 47.631,94.7611 47.5,95.5C 44.1667,95.5 40.8333,95.5 37.5,95.5C 17.8333,89.8333 5.16667,77.1667 -0.5,57.5C -0.5,53.8333 -0.5,50.1667 -0.5,46.5 Z"/></g>
<g><path style="opacity:1" fill="#e5c21f" d="M 46.5,54.5 C 47.5,54.5 48.5,54.5 49.5,54.5C 50.5,55.8333 51.5,57.1667 52.5,58.5C 52.385,60.9468 51.385,62.9468 49.5,64.5C 45.3065,64.6383 42.9732,62.6383 42.5,58.5C 43.5,56.8333 44.8333,55.5 46.5,54.5 Z"/></g>
<g><path style="opacity:1" fill="#153286" d="M 86.5,75.5 C 83.0943,81.2408 78.4276,85.5741 72.5,88.5C 71.6676,87.6715 72.001,86.8382 73.5,86C 65.9686,78.803 58.8019,71.303 52,63.5C 51.3292,64.2524 50.4959,64.5858 49.5,64.5C 51.385,62.9468 52.385,60.9468 52.5,58.5C 56.8701,62.1964 61.5367,65.5297 66.5,68.5C 67.087,67.7666 67.087,66.7666 66.5,65.5C 67.0431,65.44 67.3764,65.1067 67.5,64.5C 65.5933,59.6093 63.5933,54.7759 61.5,50C 62.1667,49.3333 62.8333,49.3333 63.5,50C 71.1667,57.6667 78.8333,65.3333 86.5,73C 85.4019,73.7697 85.4019,74.603 86.5,75.5 Z"/></g>
<g><path style="opacity:0.996" fill="#132a71" d="M 42.5,58.5 C 42.9732,62.6383 45.3065,64.6383 49.5,64.5C 50.4959,64.5858 51.3292,64.2524 52,63.5C 58.8019,71.303 65.9686,78.803 73.5,86C 72.001,86.8382 71.6676,87.6715 72.5,88.5C 67.8815,91.6425 62.8815,93.9758 57.5,95.5C 56.1667,95.5 54.8333,95.5 53.5,95.5C 54.0577,94.2101 55.0577,93.3768 56.5,93C 47.6826,85.3495 39.3493,77.1828 31.5,68.5C 30.5832,69.1272 29.5832,69.4606 28.5,69.5C 33.1424,65.864 37.8091,62.1973 42.5,58.5 Z"/></g>
</svg>
