<?xml version="1.0" encoding="UTF-8"?>
<!DOCTYPE svg PUBLIC "-//W3C//DTD SVG 1.1//EN" "http://www.w3.org/Graphics/SVG/1.1/DTD/svg11.dtd">
<svg xmlns="http://www.w3.org/2000/svg" version="1.1" width="96px" height="96px" style="shape-rendering:geometricPrecision; text-rendering:geometricPrecision; image-rendering:optimizeQuality; fill-rule:evenodd; clip-rule:evenodd" xmlns:xlink="http://www.w3.org/1999/xlink">
<g><path style="opacity:1" fill="#eef7f7" d="M 41.5,0.5 C 60.3011,-0.261975 75.3011,6.73802 86.5,21.5C 97.8344,40.8241 96.8344,59.4908 83.5,77.5C 69.5123,92.2521 52.5123,97.2521 32.5,92.5C 26.8827,90.0242 21.5494,87.0242 16.5,83.5C 7.69527,74.8889 2.36193,64.5556 0.5,52.5C -0.513263,33.8643 6.48674,19.1976 21.5,8.5C 27.6912,4.741 34.3579,2.07433 41.5,0.5 Z"/></g>
<g><path style="opacity:0.824" fill="#24a67c" d="M 37.5,-0.5 C 38.8333,-0.5 40.1667,-0.5 41.5,-0.5C 41.5,-0.166667 41.5,0.166667 41.5,0.5C 34.3579,2.07433 27.6912,4.741 21.5,8.5C 21.5,7.83333 21.1667,7.5 20.5,7.5C 25.7838,4.0248 31.4505,1.35814 37.5,-0.5 Z"/></g>
<g><path style="opacity:1" fill="#1eb6b5" d="M 38.5,4.5 C 40.8097,3.83625 43.3097,3.50291 46,3.5C 50.4269,3.39383 54.5936,4.0605 58.5,5.5C 57.136,7.00362 55.136,8.67028 52.5,10.5C 51.6143,11.325 51.281,12.325 51.5,13.5C 50.0242,11.2314 48.5242,8.89805 47,6.5C 45.9887,5.66337 44.8221,5.33003 43.5,5.5C 42.0813,4.54885 40.4147,4.21552 38.5,4.5 Z"/></g>
<g><path style="opacity:1" fill="#14c49c" d="M 36.5,5.5 C 37.0431,5.55999 37.3764,5.89333 37.5,6.5C 27.1181,16.7174 16.6181,26.7174 6,36.5C 5.60123,36.2716 5.43456,35.9382 5.5,35.5C 9.94792,19.3849 20.2813,9.38494 36.5,5.5 Z"/></g>
<g><path style="opacity:1" fill="#fafdfd" d="M 43.5,5.5 C 44.8221,5.33003 45.9887,5.66337 47,6.5C 48.5242,8.89805 50.0242,11.2314 51.5,13.5C 52.8109,16.1354 54.4776,18.4687 56.5,20.5C 57.9529,26.2909 56.4529,31.2909 52,35.5C 51.2599,36.7494 51.4265,37.7494 52.5,38.5C 53.1667,38.5 53.5,38.8333 53.5,39.5C 52.8333,39.5 52.5,39.8333 52.5,40.5C 49.9333,39.525 47.2666,38.8583 44.5,38.5C 40.0749,36.9733 35.7415,37.4733 31.5,40C 23.6536,46.1846 17.6536,53.8513 13.5,63C 11.5878,63.2793 10.2544,62.4459 9.5,60.5C 9.35055,59.448 9.51722,58.448 10,57.5C 13.7518,51.9309 17.2518,46.2642 20.5,40.5C 25.3178,34.211 29.6511,27.5443 33.5,20.5C 36.8333,15.5 40.1667,10.5 43.5,5.5 Z"/></g>
<g><path style="opacity:1" fill="#11abc7" d="M 58.5,5.5 C 62.533,6.02491 66.1996,7.35825 69.5,9.5C 66.2426,12.8181 62.9093,16.1515 59.5,19.5C 58.675,20.3857 57.675,20.719 56.5,20.5C 54.4776,18.4687 52.8109,16.1354 51.5,13.5C 51.281,12.325 51.6143,11.325 52.5,10.5C 55.136,8.67028 57.136,7.00362 58.5,5.5 Z"/></g>
<g><path style="opacity:0.988" fill="#2e97d6" d="M 41.5,0.5 C 41.5,0.166667 41.5,-0.166667 41.5,-0.5C 46.8333,-0.5 52.1667,-0.5 57.5,-0.5C 70.2191,2.54297 80.2191,9.54297 87.5,20.5C 87.5,21.1667 87.1667,21.5 86.5,21.5C 75.3011,6.73802 60.3011,-0.261975 41.5,0.5 Z"/></g>
<g><path style="opacity:1" fill="#0fbda9" d="M 36.5,5.5 C 36.8417,4.66175 37.5084,4.32842 38.5,4.5C 40.4147,4.21552 42.0813,4.54885 43.5,5.5C 40.1667,10.5 36.8333,15.5 33.5,20.5C 31.6916,20.4914 30.0249,20.9914 28.5,22C 20.9347,31.0665 12.6013,39.2332 3.5,46.5C 3.11636,42.5115 3.78303,38.8448 5.5,35.5C 5.43456,35.9382 5.60123,36.2716 6,36.5C 16.6181,26.7174 27.1181,16.7174 37.5,6.5C 37.3764,5.89333 37.0431,5.55999 36.5,5.5 Z"/></g>
<g><path style="opacity:1" fill="#0b9fda" d="M 69.5,9.5 C 72.8103,11.4821 75.8103,13.8154 78.5,16.5C 71.0886,23.4094 63.7552,30.5761 56.5,38C 54.9813,37.6692 53.648,37.8359 52.5,38.5C 51.4265,37.7494 51.2599,36.7494 52,35.5C 56.4529,31.2909 57.9529,26.2909 56.5,20.5C 57.675,20.719 58.675,20.3857 59.5,19.5C 62.9093,16.1515 66.2426,12.8181 69.5,9.5 Z"/></g>
<g><path style="opacity:1" fill="#0d9ce9" d="M 78.5,16.5 C 84.6113,22.629 88.6113,29.9623 90.5,38.5C 90.6641,41.1873 90.4974,43.854 90,46.5C 89.5774,45.0439 88.7441,44.5439 87.5,45C 84.9795,48.3542 81.9795,51.1876 78.5,53.5C 79.0831,55.0016 79.9164,56.3349 81,57.5C 81.7796,59.3869 81.6129,61.0536 80.5,62.5C 79.8359,61.352 79.6692,60.0187 80,58.5C 75.7086,52.0848 71.5419,45.5848 67.5,39C 66.0563,38.2195 64.723,38.3861 63.5,39.5C 62.396,41.3885 61.0627,43.0552 59.5,44.5C 57.4807,42.8103 55.4807,41.1436 53.5,39.5C 53.5,38.8333 53.1667,38.5 52.5,38.5C 53.648,37.8359 54.9813,37.6692 56.5,38C 63.7552,30.5761 71.0886,23.4094 78.5,16.5 Z"/></g>
<g><path style="opacity:1" fill="#0fb7b3" d="M 33.5,20.5 C 29.6511,27.5443 25.3178,34.211 20.5,40.5C 20.5654,40.0618 20.3988,39.7284 20,39.5C 15.9097,46.1329 10.743,51.7996 4.5,56.5C 3.67577,53.2356 3.34243,49.9023 3.5,46.5C 12.6013,39.2332 20.9347,31.0665 28.5,22C 30.0249,20.9914 31.6916,20.4914 33.5,20.5 Z"/></g>
<g><path style="opacity:0.976" fill="#1db72e" d="M 20.5,7.5 C 21.1667,7.5 21.5,7.83333 21.5,8.5C 6.48674,19.1976 -0.513263,33.8643 0.5,52.5C 0.5,54.1667 0.5,55.8333 0.5,57.5C 0.166667,57.5 -0.166667,57.5 -0.5,57.5C -0.5,50.8333 -0.5,44.1667 -0.5,37.5C 2.54297,24.7809 9.54297,14.7809 20.5,7.5 Z"/></g>
<g><path style="opacity:1" fill="#f3f9fe" d="M 80.5,62.5 C 85.2773,69.7901 83.2773,74.2901 74.5,76C 70.8484,76.4986 67.1817,76.6653 63.5,76.5C 62.1667,75.8333 60.8333,75.1667 59.5,74.5C 55.5559,69.725 51.0559,65.3916 46,61.5C 45.525,53.3269 49.3583,48.1602 57.5,46C 56.157,43.7678 54.4903,41.9345 52.5,40.5C 52.5,39.8333 52.8333,39.5 53.5,39.5C 55.4807,41.1436 57.4807,42.8103 59.5,44.5C 61.0627,43.0552 62.396,41.3885 63.5,39.5C 64.723,38.3861 66.0563,38.2195 67.5,39C 71.5419,45.5848 75.7086,52.0848 80,58.5C 79.6692,60.0187 79.8359,61.352 80.5,62.5 Z"/></g>
<g><path style="opacity:1" fill="#d9ebf5" d="M 32.5,44.5 C 36.1788,44.7244 39.8455,45.0578 43.5,45.5C 43.6633,47.8568 43.4966,50.1902 43,52.5C 40.9261,54.4521 38.7594,56.2854 36.5,58C 35.4232,58.4696 34.4232,58.3029 33.5,57.5C 32.205,56.5116 30.8717,55.5116 29.5,54.5C 29.5,54.1667 29.5,53.8333 29.5,53.5C 28.5233,50.7131 28.19,47.7131 28.5,44.5C 29.8333,44.5 31.1667,44.5 32.5,44.5 Z"/></g>
<g><path style="opacity:0.949" fill="#2eb4c2" d="M 87.5,20.5 C 90.9752,25.7838 93.6419,31.4505 95.5,37.5C 95.5,44.1667 95.5,50.8333 95.5,57.5C 93.6828,65.4676 90.0162,72.4676 84.5,78.5C 84.5,77.8333 84.1667,77.5 83.5,77.5C 96.8344,59.4908 97.8344,40.8241 86.5,21.5C 87.1667,21.5 87.5,21.1667 87.5,20.5 Z"/></g>
<g><path style="opacity:1" fill="#20b0bf" d="M 20.5,40.5 C 17.2518,46.2642 13.7518,51.9309 10,57.5C 9.51722,58.448 9.35055,59.448 9.5,60.5C 8.29049,60.9321 7.29049,61.5987 6.5,62.5C 5.26162,60.7857 4.59495,58.7857 4.5,56.5C 10.743,51.7996 15.9097,46.1329 20,39.5C 20.3988,39.7284 20.5654,40.0618 20.5,40.5 Z"/></g>
<g><path style="opacity:1" fill="#14a6ce" d="M 44.5,38.5 C 42.7499,39.7417 41.0832,41.2417 39.5,43C 36.9644,43.1862 34.631,43.6862 32.5,44.5C 31.1667,44.5 29.8333,44.5 28.5,44.5C 28.19,47.7131 28.5233,50.7131 29.5,53.5C 29.5,53.8333 29.5,54.1667 29.5,54.5C 22.6613,59.1071 16.3279,64.4405 10.5,70.5C 8.22946,68.3877 6.89612,65.721 6.5,62.5C 7.29049,61.5987 8.29049,60.9321 9.5,60.5C 10.2544,62.4459 11.5878,63.2793 13.5,63C 17.6536,53.8513 23.6536,46.1846 31.5,40C 35.7415,37.4733 40.0749,36.9733 44.5,38.5 Z"/></g>
<g><path style="opacity:1" fill="#2f94e7" d="M 58.5,47.5 C 59.0431,47.56 59.3764,47.8933 59.5,48.5C 57.0821,49.4146 55.0821,50.9146 53.5,53C 47.6988,55.4324 47.0321,54.4324 51.5,50C 54.0037,49.3024 56.337,48.4691 58.5,47.5 Z"/></g>
<g><path style="opacity:1" fill="#219dd8" d="M 29.5,53.5 C 29.5,51.1667 29.5,48.8333 29.5,46.5C 33.8333,46.5 38.1667,46.5 42.5,46.5C 42.6602,48.1992 42.4935,49.8659 42,51.5C 40.0748,52.8804 38.2415,54.3804 36.5,56C 34.0111,55.7627 31.6778,54.9293 29.5,53.5 Z"/></g>
<g><path style="opacity:1" fill="#cfe6f5" d="M 34.5,49.5 C 36.1992,49.3398 37.8659,49.5065 39.5,50C 37.728,51.4868 35.728,51.8201 33.5,51C 34.056,50.6174 34.3893,50.1174 34.5,49.5 Z"/></g>
<g><path style="opacity:1" fill="#069fdb" d="M 29.5,54.5 C 30.8717,55.5116 32.205,56.5116 33.5,57.5C 32.2617,57.81 32.2617,58.31 33.5,59C 27.2972,65.0352 21.2972,71.2019 15.5,77.5C 13.4525,75.4504 11.7859,73.117 10.5,70.5C 16.3279,64.4405 22.6613,59.1071 29.5,54.5 Z"/></g>
<g><path style="opacity:1" fill="#109be8" d="M 44.5,38.5 C 47.2666,38.8583 49.9333,39.525 52.5,40.5C 54.4903,41.9345 56.157,43.7678 57.5,46C 49.3583,48.1602 45.525,53.3269 46,61.5C 51.0559,65.3916 55.5559,69.725 59.5,74.5C 59.5654,74.9382 59.3988,75.2716 59,75.5C 56.6667,73.5 54.3333,71.5 52,69.5C 46.5045,75.9952 40.6712,82.1619 34.5,88C 38.449,88.8068 38.449,89.3068 34.5,89.5C 27.0093,87.2589 20.676,83.2589 15.5,77.5C 21.2972,71.2019 27.2972,65.0352 33.5,59C 32.2617,58.31 32.2617,57.81 33.5,57.5C 34.4232,58.3029 35.4232,58.4696 36.5,58C 38.7594,56.2854 40.9261,54.4521 43,52.5C 43.4966,50.1902 43.6633,47.8568 43.5,45.5C 39.8455,45.0578 36.1788,44.7244 32.5,44.5C 34.631,43.6862 36.9644,43.1862 39.5,43C 41.0832,41.2417 42.7499,39.7417 44.5,38.5 Z"/></g>
<g><path style="opacity:1" fill="#20a8f1" d="M 57.5,50.5 C 58.9778,50.238 60.3112,50.5713 61.5,51.5C 62.1279,53.2581 63.1279,54.7581 64.5,56C 70.0445,58.6176 75.2111,61.7843 80,65.5C 82.3793,69.029 81.5459,71.529 77.5,73C 71.1933,76.6294 65.1933,76.2961 59.5,72C 55.1192,67.9552 51.1192,63.6219 47.5,59C 51.1621,56.7064 54.4955,53.8731 57.5,50.5 Z"/></g>
<g><path style="opacity:0.427" fill="#22af48" d="M 0.5,52.5 C 2.36193,64.5556 7.69527,74.8889 16.5,83.5C 16.1667,83.5 15.8333,83.5 15.5,83.5C 7.15485,76.8082 2.15485,68.1416 0.5,57.5C 0.5,55.8333 0.5,54.1667 0.5,52.5 Z"/></g>
<g><path style="opacity:1" fill="#04a9f2" d="M 59.5,74.5 C 60.8333,75.1667 62.1667,75.8333 63.5,76.5C 58.921,79.8966 54.421,83.5633 50,87.5C 49.8333,87.8333 49.6667,88.1667 49.5,88.5C 51.4233,89.3078 53.4233,89.8078 55.5,90C 49.8431,90.4994 44.1764,90.6661 38.5,90.5C 36.901,90.7678 35.5676,90.4345 34.5,89.5C 38.449,89.3068 38.449,88.8068 34.5,88C 40.6712,82.1619 46.5045,75.9952 52,69.5C 54.3333,71.5 56.6667,73.5 59,75.5C 59.3988,75.2716 59.5654,74.9382 59.5,74.5 Z"/></g>
<g><path style="opacity:1" fill="#21b6f9" d="M 90.5,38.5 C 93.6862,65.2744 82.3529,82.7744 56.5,91C 50.3188,91.8192 44.3188,91.6525 38.5,90.5C 44.1764,90.6661 49.8431,90.4994 55.5,90C 53.4233,89.8078 51.4233,89.3078 49.5,88.5C 49.6667,88.1667 49.8333,87.8333 50,87.5C 54.421,83.5633 58.921,79.8966 63.5,76.5C 67.1817,76.6653 70.8484,76.4986 74.5,76C 83.2773,74.2901 85.2773,69.7901 80.5,62.5C 81.6129,61.0536 81.7796,59.3869 81,57.5C 79.9164,56.3349 79.0831,55.0016 78.5,53.5C 81.9795,51.1876 84.9795,48.3542 87.5,45C 88.7441,44.5439 89.5774,45.0439 90,46.5C 90.4974,43.854 90.6641,41.1873 90.5,38.5 Z"/></g>
<g><path style="opacity:0.863" fill="#1b9b93" d="M 15.5,83.5 C 15.8333,83.5 16.1667,83.5 16.5,83.5C 21.5494,87.0242 26.8827,90.0242 32.5,92.5C 32.5,92.8333 32.5,93.1667 32.5,93.5C 25.8067,91.7848 20.14,88.4515 15.5,83.5 Z"/></g>
<g><path style="opacity:0.698" fill="#2c9bd4" d="M 83.5,77.5 C 84.1667,77.5 84.5,77.8333 84.5,78.5C 77.2766,87.0697 68.2766,92.7364 57.5,95.5C 50.8333,95.5 44.1667,95.5 37.5,95.5C 35.9724,94.6908 34.3057,94.0241 32.5,93.5C 32.5,93.1667 32.5,92.8333 32.5,92.5C 52.5123,97.2521 69.5123,92.2521 83.5,77.5 Z"/></g>
</svg>
