<?xml version="1.0" encoding="UTF-8"?>
<!DOCTYPE svg PUBLIC "-//W3C//DTD SVG 1.1//EN" "http://www.w3.org/Graphics/SVG/1.1/DTD/svg11.dtd">
<svg xmlns="http://www.w3.org/2000/svg" version="1.1" width="96px" height="96px" style="shape-rendering:geometricPrecision; text-rendering:geometricPrecision; image-rendering:optimizeQuality; fill-rule:evenodd; clip-rule:evenodd" xmlns:xlink="http://www.w3.org/1999/xlink">
<g><path style="opacity:1" fill="#006fba" d="M -0.5,-0.5 C 31.5,-0.5 63.5,-0.5 95.5,-0.5C 95.5,31.5 95.5,63.5 95.5,95.5C 63.5,95.5 31.5,95.5 -0.5,95.5C -0.5,63.5 -0.5,31.5 -0.5,-0.5 Z"/></g>
<g><path style="opacity:1" fill="#000000" d="M 25.5,3.5 C 40.8089,4.41807 56.1423,4.75141 71.5,4.5C 71.5,12.1667 71.5,19.8333 71.5,27.5C 55.5,27.5 39.5,27.5 23.5,27.5C 23.3336,19.8261 23.5003,12.1594 24,4.5C 24.3826,3.94404 24.8826,3.61071 25.5,3.5 Z"/></g>
<g><path style="opacity:1" fill="#005b97" d="M 82.5,32.5 C 78.7307,32.756 75.0641,32.4227 71.5,31.5C 71.5,30.5 71.5,29.5 71.5,28.5C 71.5,28.1667 71.5,27.8333 71.5,27.5C 71.5,19.8333 71.5,12.1667 71.5,4.5C 56.1423,4.75141 40.8089,4.41807 25.5,3.5C 26.6085,2.71003 27.9419,2.21003 29.5,2C 36.3333,1.83333 43.1667,1.66667 50,1.5C 57.5998,1.36587 65.0998,1.86587 72.5,3C 73.0253,3.69238 73.6919,4.19238 74.5,4.5C 75.4979,12.8068 75.8312,21.1401 75.5,29.5C 77.5273,29.3379 79.5273,29.5045 81.5,30C 80.5,30.3333 79.5,30.6667 78.5,31C 80.0581,31.21 81.3915,31.71 82.5,32.5 Z"/></g>
<g><path style="opacity:1" fill="#727716" d="M 23.5,27.5 C 39.5,27.5 55.5,27.5 71.5,27.5C 71.5,27.8333 71.5,28.1667 71.5,28.5C 55.5,28.5 39.5,28.5 23.5,28.5C 23.5,29.5 23.5,30.5 23.5,31.5C 23.1667,31.5 22.8333,31.5 22.5,31.5C 22.2322,29.901 22.5655,28.5676 23.5,27.5 Z"/></g>
<g><path style="opacity:1" fill="#e8ef23" d="M 71.5,28.5 C 71.5,29.5 71.5,30.5 71.5,31.5C 55.5,31.5 39.5,31.5 23.5,31.5C 23.5,30.5 23.5,29.5 23.5,28.5C 39.5,28.5 55.5,28.5 71.5,28.5 Z"/></g>
<g><path style="opacity:1" fill="#090905" d="M 22.5,31.5 C 22.8333,31.5 23.1667,31.5 23.5,31.5C 39.5,31.5 55.5,31.5 71.5,31.5C 75.0641,32.4227 78.7307,32.756 82.5,32.5C 83.1667,32.5 83.5,32.8333 83.5,33.5C 83.5,36.1667 83.5,38.8333 83.5,41.5C 80.1667,41.5 76.8333,41.5 73.5,41.5C 56.1667,41.5 38.8333,41.5 21.5,41.5C 12.5359,43.7001 9.20254,40.5334 11.5,32C 15.1516,31.5014 18.8183,31.3347 22.5,31.5 Z"/></g>
<g><path style="opacity:1" fill="#f1f2f2" d="M 21.5,41.5 C 38.8333,41.5 56.1667,41.5 73.5,41.5C 79.1082,53.6915 77.9415,65.3582 70,76.5C 60.5467,85.6554 49.38,88.4888 36.5,85C 30.0595,82.0575 25.0595,77.5575 21.5,71.5C 17.1676,63.9796 16.3343,55.9796 19,47.5C 20.3187,45.7128 21.152,43.7128 21.5,41.5 Z"/></g>
<g><path style="opacity:1" fill="#101010" d="M 34.5,47.5 C 41.9974,46.8038 43.9974,49.6372 40.5,56C 33.4924,56.5082 31.4924,53.6749 34.5,47.5 Z"/></g>
<g><path style="opacity:1" fill="#101010" d="M 54.5,47.5 C 58.7555,46.4545 61.4222,47.9545 62.5,52C 60.3182,56.7681 57.1516,57.6014 53,54.5C 52.1668,51.829 52.6668,49.4957 54.5,47.5 Z"/></g>
<g><path style="opacity:1" fill="#e0e0e0" d="M 35.5,49.5 C 37.337,49.6395 37.6704,50.3061 36.5,51.5C 35.7025,51.0431 35.3691,50.3764 35.5,49.5 Z"/></g>
<g><path style="opacity:1" fill="#d6d6d6" d="M 55.5,49.5 C 57.337,49.6395 57.6704,50.3061 56.5,51.5C 55.7025,51.0431 55.3691,50.3764 55.5,49.5 Z"/></g>
<g><path style="opacity:1" fill="#832f2b" d="M 49.5,59.5 C 48.209,59.2627 47.209,59.596 46.5,60.5C 45.5084,60.3284 44.8417,60.6618 44.5,61.5C 43.5655,62.5676 43.2322,63.901 43.5,65.5C 41.5684,61.7264 42.7351,59.3931 47,58.5C 48.0698,58.528 48.9032,58.8614 49.5,59.5 Z"/></g>
<g><path style="opacity:1" fill="#ffd9da" d="M 46.5,60.5 C 47.7736,61.1894 47.7736,62.0228 46.5,63C 45.184,63.5281 44.5173,63.0281 44.5,61.5C 44.8417,60.6618 45.5084,60.3284 46.5,60.5 Z"/></g>
<g><path style="opacity:1" fill="#e31b1d" d="M 46.5,60.5 C 47.209,59.596 48.209,59.2627 49.5,59.5C 52.2666,60.754 52.9333,62.754 51.5,65.5C 48.7988,68.1523 46.1322,68.1523 43.5,65.5C 43.2322,63.901 43.5655,62.5676 44.5,61.5C 44.5173,63.0281 45.184,63.5281 46.5,63C 47.7736,62.0228 47.7736,61.1894 46.5,60.5 Z"/></g>
<g><path style="opacity:1" fill="#1e1e1e" d="M 27.5,65.5 C 28.5,65.5 29.5,65.5 30.5,65.5C 30.5,66.5 30.5,67.5 30.5,68.5C 29.5,68.5 28.5,68.5 27.5,68.5C 27.5,67.5 27.5,66.5 27.5,65.5 Z"/></g>
<g><path style="opacity:1" fill="#1c1c1c" d="M 65.5,65.5 C 68.6741,65.9522 69.0075,66.9522 66.5,68.5C 64.4807,67.8671 64.1474,66.8671 65.5,65.5 Z"/></g>
<g><path style="opacity:1" fill="#010101" d="M 30.5,70.5 C 31.675,70.281 32.675,70.6143 33.5,71.5C 31.9483,72.7979 30.9483,72.4646 30.5,70.5 Z"/></g>
<g><path style="opacity:1" fill="#1e1e1e" d="M 61.5,70.5 C 62.5,70.5 63.5,70.5 64.5,70.5C 63.7542,74.31 62.7542,74.31 61.5,70.5 Z"/></g>
<g><path style="opacity:1" fill="#0e5792" d="M 83.5,33.5 C 87.1194,35.4251 87.4527,38.5918 84.5,43C 82.3415,43.912 80.1748,44.7454 78,45.5C 78.1581,49.4911 78.6581,53.4911 79.5,57.5C 75.4593,84.0396 60.4593,93.8729 34.5,87C 28.6877,83.3531 24.0211,78.5197 20.5,72.5C 20.6236,71.8933 20.9569,71.56 21.5,71.5C 25.0595,77.5575 30.0595,82.0575 36.5,85C 49.38,88.4888 60.5467,85.6554 70,76.5C 77.9415,65.3582 79.1082,53.6915 73.5,41.5C 76.8333,41.5 80.1667,41.5 83.5,41.5C 83.5,38.8333 83.5,36.1667 83.5,33.5 Z"/></g>
<g><path style="opacity:1" fill="#1d1d1d" d="M 52.5,75.5 C 54.0481,75.8212 54.7148,76.8212 54.5,78.5C 51.7524,78.5983 51.0857,77.5983 52.5,75.5 Z"/></g>
<g><path style="opacity:1" fill="#212121" d="M 46.5,76.5 C 48.3547,76.272 49.1881,76.9387 49,78.5C 46.3655,79.6922 45.5322,79.0256 46.5,76.5 Z"/></g>
<g><path style="opacity:1" fill="#1d1d1d" d="M 40.5,75.5 C 41.5,75.5 42.5,75.5 43.5,75.5C 43.5,76.5 43.5,77.5 43.5,78.5C 42.5,78.5 41.5,78.5 40.5,78.5C 40.5,77.5 40.5,76.5 40.5,75.5 Z"/></g>
<g><path style="opacity:1" fill="#0c0c0c" d="M 57.5,73.5 C 60.6741,73.9522 61.0075,74.9522 58.5,76.5C 57.6143,75.675 57.281,74.675 57.5,73.5 Z"/></g>
<g><path style="opacity:1" fill="#191919" d="M 35.5,73.5 C 38.6741,73.9522 39.0075,74.9522 36.5,76.5C 34.4807,75.8671 34.1474,74.8671 35.5,73.5 Z"/></g>
</svg>
