<?xml version="1.0" encoding="UTF-8"?>
<!DOCTYPE svg PUBLIC "-//W3C//DTD SVG 1.1//EN" "http://www.w3.org/Graphics/SVG/1.1/DTD/svg11.dtd">
<svg xmlns="http://www.w3.org/2000/svg" version="1.1" width="96px" height="96px" style="shape-rendering:geometricPrecision; text-rendering:geometricPrecision; image-rendering:optimizeQuality; fill-rule:evenodd; clip-rule:evenodd" xmlns:xlink="http://www.w3.org/1999/xlink">
<g><path style="opacity:1" fill="#f3ba2f" d="M 46.5,-0.5 C 47.1667,-0.5 47.8333,-0.5 48.5,-0.5C 57.9864,9.48665 67.6531,19.32 77.5,29C 73.6884,32.8116 69.8551,36.6449 66,40.5C 59.9855,34.3185 53.8188,28.3185 47.5,22.5C 41.1812,28.3185 35.0145,34.3185 29,40.5C 25.1449,36.6449 21.3116,32.8116 17.5,29C 27.3469,19.32 37.0136,9.48665 46.5,-0.5 Z"/></g>
<g><path style="opacity:1" fill="#f3bb30" d="M -0.5,48.5 C -0.5,47.8333 -0.5,47.1667 -0.5,46.5C 3.14662,43.1887 6.81329,39.8554 10.5,36.5C 14.5,39.8333 18.1667,43.5 21.5,47.5C 18.1667,51.5 14.5,55.1667 10.5,58.5C 6.81329,55.1446 3.14662,51.8113 -0.5,48.5 Z"/></g>
<g><path style="opacity:1" fill="#f3ba31" d="M 46.5,36.5 C 51.085,39.4136 55.085,43.0802 58.5,47.5C 55.1667,51.5 51.5,55.1667 47.5,58.5C 43.5,55.1667 39.8333,51.5 36.5,47.5C 39.8554,43.8133 43.1887,40.1466 46.5,36.5 Z"/></g>
<g><path style="opacity:1" fill="#f4bb2f" d="M 95.5,46.5 C 95.5,47.1667 95.5,47.8333 95.5,48.5C 91.8534,51.8113 88.1867,55.1446 84.5,58.5C 80.5,55.1667 76.8333,51.5 73.5,47.5C 76.8333,43.5 80.5,39.8333 84.5,36.5C 88.1867,39.8554 91.8534,43.1887 95.5,46.5 Z"/></g>
<g><path style="opacity:1" fill="#f3bb2f" d="M 48.5,95.5 C 47.8333,95.5 47.1667,95.5 46.5,95.5C 37.0136,85.5134 27.3469,75.68 17.5,66C 21.3116,62.1884 25.1449,58.3551 29,54.5C 35.0145,60.6815 41.1812,66.6815 47.5,72.5C 53.8188,66.6815 59.9855,60.6815 66,54.5C 69.8551,58.3551 73.6884,62.1884 77.5,66C 67.6531,75.68 57.9864,85.5134 48.5,95.5 Z"/></g>
</svg>
