<?xml version="1.0" encoding="UTF-8"?>
<!DOCTYPE svg PUBLIC "-//W3C//DTD SVG 1.1//EN" "http://www.w3.org/Graphics/SVG/1.1/DTD/svg11.dtd">
<svg xmlns="http://www.w3.org/2000/svg" version="1.1" width="96px" height="96px" style="shape-rendering:geometricPrecision; text-rendering:geometricPrecision; image-rendering:optimizeQuality; fill-rule:evenodd; clip-rule:evenodd" xmlns:xlink="http://www.w3.org/1999/xlink">
<g><path style="opacity:0.988" fill="#0f3ca5" d="M 67.5,17.5 C 52.2822,16.2374 39.2822,20.9041 28.5,31.5C 26.8333,30.5 25.5,29.1667 24.5,27.5C 27.688,25.3098 30.8546,22.9765 34,20.5C 36.3237,17.1481 35.8237,14.4815 32.5,12.5C 41.1261,9.0051 49.7928,8.83844 58.5,12C 62.1807,12.8722 65.1807,14.7055 67.5,17.5 Z"/></g>
<g><path style="opacity:0.004" fill="#1a50e9" d="M 26.5,13.5 C 25.8333,12.1667 25.8333,12.1667 26.5,13.5 Z"/></g>
<g><path style="opacity:0.997" fill="#5493f6" d="M 32.5,12.5 C 35.8237,14.4815 36.3237,17.1481 34,20.5C 30.8546,22.9765 27.688,25.3098 24.5,27.5C 21.3089,28.8963 17.9756,29.8963 14.5,30.5C 13.5,30.1667 12.5,29.8333 11.5,29.5C 15.1682,22.8344 20.1682,17.5011 26.5,13.5C 28.5,13.1667 30.5,12.8333 32.5,12.5 Z"/></g>
<g><path style="opacity:0.999" fill="#5593f6" d="M 67.5,17.5 C 74.8134,22.1021 79.1467,28.7687 80.5,37.5C 72.4145,39.7838 64.0812,41.4505 55.5,42.5C 55.1667,42.5 54.8333,42.5 54.5,42.5C 48.5101,43.2396 42.5101,43.9063 36.5,44.5C 35.1667,44.5 33.8333,44.5 32.5,44.5C 32.1667,44.5 31.8333,44.5 31.5,44.5C 27.6152,40.8693 26.6152,36.536 28.5,31.5C 39.2822,20.9041 52.2822,16.2374 67.5,17.5 Z"/></g>
<g><path style="opacity:0.998" fill="#5493f7" d="M 24.5,50.5 C 24.5,56.1667 24.5,61.8333 24.5,67.5C 24.5,68.5 24.5,69.5 24.5,70.5C 24.5,71.5 24.5,72.5 24.5,73.5C 24.5,74.5 24.5,75.5 24.5,76.5C 9.4229,65.6013 4.75624,51.268 10.5,33.5C 15.9454,38.6038 20.612,44.2705 24.5,50.5 Z"/></g>
<g><path style="opacity:1" fill="#d62420" d="M 80.5,37.5 C 82.5273,37.3379 84.5273,37.5045 86.5,38C 87.3802,39.3561 87.7135,40.8561 87.5,42.5C 83.5874,41.4042 79.5874,41.2375 75.5,42C 68.8396,43.2766 62.1729,44.4433 55.5,45.5C 55.5,44.5 55.5,43.5 55.5,42.5C 64.0812,41.4505 72.4145,39.7838 80.5,37.5 Z"/></g>
<g><path style="opacity:1" fill="#f5e7e7" d="M 87.5,42.5 C 87.5,43.5 87.5,44.5 87.5,45.5C 85.9245,44.925 84.2578,44.5916 82.5,44.5C 73.5039,45.944 64.5039,47.2774 55.5,48.5C 55.5,47.5 55.5,46.5 55.5,45.5C 62.1729,44.4433 68.8396,43.2766 75.5,42C 79.5874,41.2375 83.5874,41.4042 87.5,42.5 Z"/></g>
<g><path style="opacity:1" fill="#d42a23" d="M 87.5,45.5 C 87.5,46.5 87.5,47.5 87.5,48.5C 85.7571,47.9144 83.9238,47.5811 82,47.5C 73.2164,49.119 64.3831,50.4523 55.5,51.5C 55.5,50.5 55.5,49.5 55.5,48.5C 64.5039,47.2774 73.5039,45.944 82.5,44.5C 84.2578,44.5916 85.9245,44.925 87.5,45.5 Z"/></g>
<g><path style="opacity:1" fill="#f1e3e2" d="M 87.5,48.5 C 87.5569,49.609 87.8902,50.609 88.5,51.5C 88.5,51.8333 88.5,52.1667 88.5,52.5C 88.1667,52.5 87.8333,52.5 87.5,52.5C 85.866,51.8389 84.0326,51.5056 82,51.5C 73.1945,52.7882 64.3612,53.7882 55.5,54.5C 55.5,53.5 55.5,52.5 55.5,51.5C 64.3831,50.4523 73.2164,49.119 82,47.5C 83.9238,47.5811 85.7571,47.9144 87.5,48.5 Z"/></g>
<g><path style="opacity:0.088" fill="#030000" d="M 46.5,87.5 C 59.7638,88.0829 72.7638,86.7495 85.5,83.5C 85.8333,84.8333 86.1667,84.8333 86.5,83.5C 86.5,82.8333 86.8333,82.5 87.5,82.5C 88.1667,82.5 88.5,82.1667 88.5,81.5C 88.6468,71.7379 88.6468,62.0713 88.5,52.5C 88.5,52.1667 88.5,51.8333 88.5,51.5C 89.2216,51.0825 89.7216,50.4158 90,49.5C 90.3333,49.8333 90.6667,50.1667 91,50.5C 91.4999,64.1626 91.6666,77.8293 91.5,91.5C 89.5992,91.4332 87.7659,91.7665 86,92.5C 72.6835,90.9299 59.5169,89.2632 46.5,87.5 Z"/></g>
<g><path style="opacity:1" fill="#2d31b2" d="M 54.5,42.5 C 54.2786,43.7348 53.6119,44.7348 52.5,45.5C 53.4415,45.4895 54.1081,45.9895 54.5,47C 53.9777,47.9503 53.311,48.7836 52.5,49.5C 55.1667,51.1667 55.1667,52.8333 52.5,54.5C 52.8457,55.6956 53.3457,55.6956 54,54.5C 54.4828,55.448 54.6495,56.448 54.5,57.5C 52.857,57.5198 51.5237,56.8532 50.5,55.5C 48.5044,56.7198 47.6711,58.3865 48,60.5C 49.8079,58.4418 51.9746,58.1084 54.5,59.5C 53.8333,61.5 53.1667,63.5 52.5,65.5C 43.2213,66.8277 33.888,67.4943 24.5,67.5C 24.5,61.8333 24.5,56.1667 24.5,50.5C 23.7353,45.0936 26.0687,43.0936 31.5,44.5C 31.8333,44.5 32.1667,44.5 32.5,44.5C 33.3984,45.1577 34.3984,45.8243 35.5,46.5C 34.1667,46.8333 32.8333,47.1667 31.5,47.5C 32.6119,48.2652 33.2786,49.2652 33.5,50.5C 34.7564,50.0962 35.9231,49.4295 37,48.5C 38.0299,48.8361 38.5299,49.5028 38.5,50.5C 40.5,50.5 41.5,49.5 41.5,47.5C 39.3364,47.2785 37.6697,46.2785 36.5,44.5C 42.5101,43.9063 48.5101,43.2396 54.5,42.5 Z"/></g>
<g><path style="opacity:1" fill="#9694ca" d="M 30.5,50.5 C 28.663,50.3605 28.3296,49.6939 29.5,48.5C 30.2975,48.9569 30.6309,49.6236 30.5,50.5 Z"/></g>
<g><path style="opacity:1" fill="#b6b6e0" d="M 44.5,47.5 C 46.337,47.6395 46.6704,48.3061 45.5,49.5C 44.7025,49.0431 44.3691,48.3764 44.5,47.5 Z"/></g>
<g><path style="opacity:1" fill="#cdcbe8" d="M 49.5,46.5 C 51.337,46.6395 51.6704,47.3061 50.5,48.5C 49.7025,48.0431 49.3691,47.3764 49.5,46.5 Z"/></g>
<g><path style="opacity:1" fill="#5c5bbe" d="M 32.5,44.5 C 33.8333,44.5 35.1667,44.5 36.5,44.5C 37.6697,46.2785 39.3364,47.2785 41.5,47.5C 41.5,49.5 40.5,50.5 38.5,50.5C 38.5299,49.5028 38.0299,48.8361 37,48.5C 35.9231,49.4295 34.7564,50.0962 33.5,50.5C 33.2786,49.2652 32.6119,48.2652 31.5,47.5C 32.8333,47.1667 34.1667,46.8333 35.5,46.5C 34.3984,45.8243 33.3984,45.1577 32.5,44.5 Z"/></g>
<g><path style="opacity:1" fill="#9c99ca" d="M 25.5,46.5 C 27.337,46.6395 27.6704,47.3061 26.5,48.5C 25.7025,48.0431 25.3691,47.3764 25.5,46.5 Z"/></g>
<g><path style="opacity:1" fill="#b3b6dd" d="M 41.5,47.5 C 41.6395,45.663 42.3061,45.3296 43.5,46.5C 43.0431,47.2975 42.3764,47.6309 41.5,47.5 Z"/></g>
<g><path style="opacity:1" fill="#b5b3cf" d="M 25.5,50.5 C 27.337,50.6395 27.6704,51.3061 26.5,52.5C 25.7025,52.0431 25.3691,51.3764 25.5,50.5 Z"/></g>
<g><path style="opacity:1" fill="#7f78c8" d="M 38.5,50.5 C 39.2778,51.1556 39.9444,51.9889 40.5,53C 40.1639,54.0299 39.4972,54.5299 38.5,54.5C 38.2786,53.2652 37.6119,52.2652 36.5,51.5C 36.9569,50.7025 37.6236,50.3691 38.5,50.5 Z"/></g>
<g><path style="opacity:1" fill="#a6a7dd" d="M 49.5,53.5 C 49.6395,51.663 50.3061,51.3296 51.5,52.5C 51.0431,53.2975 50.3764,53.6309 49.5,53.5 Z"/></g>
<g><path style="opacity:1" fill="#c0bdd9" d="M 33.5,52.5 C 34.3764,52.3691 35.0431,52.7025 35.5,53.5C 34.7435,54.7733 34.0768,54.7733 33.5,53.5C 33.5,53.1667 33.5,52.8333 33.5,52.5 Z"/></g>
<g><path style="opacity:1" fill="#625dba" d="M 30.5,50.5 C 31.5,50.5 32.5,50.5 33.5,50.5C 33.5,51.1667 33.5,51.8333 33.5,52.5C 33.5,52.8333 33.5,53.1667 33.5,53.5C 29.9438,53.2749 29.6105,54.1082 32.5,56C 32.1639,57.0299 31.4972,57.5299 30.5,57.5C 30.0962,56.2436 29.4295,55.0769 28.5,54C 29.4295,52.9231 30.0962,51.7564 30.5,50.5 Z"/></g>
<g><path style="opacity:1" fill="#da362d" d="M 87.5,52.5 C 87.5,53.1667 87.5,53.8333 87.5,54.5C 76.6602,54.7526 65.9935,56.086 55.5,58.5C 55.5,57.1667 55.5,55.8333 55.5,54.5C 64.3612,53.7882 73.1945,52.7882 82,51.5C 84.0326,51.5056 85.866,51.8389 87.5,52.5 Z"/></g>
<g><path style="opacity:1" fill="#f6e9e8" d="M 87.5,54.5 C 87.5,55.8333 87.5,57.1667 87.5,58.5C 85.7571,57.9144 83.9238,57.5811 82,57.5C 73.1677,58.9002 64.3344,60.2336 55.5,61.5C 55.5,60.5 55.5,59.5 55.5,58.5C 65.9935,56.086 76.6602,54.7526 87.5,54.5 Z"/></g>
<g><path style="opacity:1" fill="#9692c5" d="M 25.5,55.5 C 27.337,55.6395 27.6704,56.3061 26.5,57.5C 25.7025,57.0431 25.3691,56.3764 25.5,55.5 Z"/></g>
<g><path style="opacity:1" fill="#9190c9" d="M 30.5,57.5 C 30.3605,59.337 29.6939,59.6704 28.5,58.5C 28.9569,57.7025 29.6236,57.3691 30.5,57.5 Z"/></g>
<g><path style="opacity:1" fill="#8c79c2" d="M 54.5,42.5 C 54.8333,42.5 55.1667,42.5 55.5,42.5C 55.5,43.5 55.5,44.5 55.5,45.5C 55.5,46.5 55.5,47.5 55.5,48.5C 55.5,49.5 55.5,50.5 55.5,51.5C 55.5,52.5 55.5,53.5 55.5,54.5C 55.5,55.8333 55.5,57.1667 55.5,58.5C 55.5,59.5 55.5,60.5 55.5,61.5C 55.5,62.5 55.5,63.5 55.5,64.5C 54.609,65.1098 53.609,65.4431 52.5,65.5C 53.1667,63.5 53.8333,61.5 54.5,59.5C 51.9746,58.1084 49.8079,58.4418 48,60.5C 47.6711,58.3865 48.5044,56.7198 50.5,55.5C 51.5237,56.8532 52.857,57.5198 54.5,57.5C 54.6495,56.448 54.4828,55.448 54,54.5C 53.3457,55.6956 52.8457,55.6956 52.5,54.5C 55.1667,52.8333 55.1667,51.1667 52.5,49.5C 53.311,48.7836 53.9777,47.9503 54.5,47C 54.1081,45.9895 53.4415,45.4895 52.5,45.5C 53.6119,44.7348 54.2786,43.7348 54.5,42.5 Z"/></g>
<g><path style="opacity:1" fill="#b9b6cf" d="M 25.5,59.5 C 27.337,59.6395 27.6704,60.3061 26.5,61.5C 25.7025,61.0431 25.3691,60.3764 25.5,59.5 Z"/></g>
<g><path style="opacity:1" fill="#6d69c6" d="M 49.5,53.5 C 49.189,54.4778 48.5223,55.1445 47.5,55.5C 46.109,54.3554 44.7757,54.3554 43.5,55.5C 46.715,56.4478 47.0484,57.7811 44.5,59.5C 45.7277,61.321 47.3944,62.321 49.5,62.5C 48.6598,64.7856 47.1598,65.119 45,63.5C 44.0497,64.0223 43.2164,64.689 42.5,65.5C 41.5,64.5 40.5,63.5 39.5,62.5C 40.8532,61.4763 41.5198,60.143 41.5,58.5C 39.9397,58.4809 38.4397,58.1476 37,57.5C 36.0497,58.0223 35.2164,58.689 34.5,59.5C 33.9117,56.6946 35.245,55.028 38.5,54.5C 38.4701,55.4972 38.9701,56.1639 40,56.5C 41.3695,54.7974 43.0362,53.464 45,52.5C 46.4397,53.1476 47.9397,53.4809 49.5,53.5 Z"/></g>
<g><path style="opacity:1" fill="#d4251f" d="M 87.5,58.5 C 87.5,59.5 87.5,60.5 87.5,61.5C 85.5896,60.906 83.5896,60.5726 81.5,60.5C 72.8253,61.8348 64.1586,63.1681 55.5,64.5C 55.5,63.5 55.5,62.5 55.5,61.5C 64.3344,60.2336 73.1677,58.9002 82,57.5C 83.9238,57.5811 85.7571,57.9144 87.5,58.5 Z"/></g>
<g><path style="opacity:1" fill="#9d9edb" d="M 49.5,62.5 C 49.6395,60.663 50.3061,60.3296 51.5,61.5C 51.0431,62.2975 50.3764,62.6309 49.5,62.5 Z"/></g>
<g><path style="opacity:1" fill="#f3eaea" d="M 87.5,61.5 C 87.5,62.5 87.5,63.5 87.5,64.5C 66.5619,67.0445 45.5619,69.0445 24.5,70.5C 24.5,69.5 24.5,68.5 24.5,67.5C 33.888,67.4943 43.2213,66.8277 52.5,65.5C 53.609,65.4431 54.609,65.1098 55.5,64.5C 64.1586,63.1681 72.8253,61.8348 81.5,60.5C 83.5896,60.5726 85.5896,60.906 87.5,61.5 Z"/></g>
<g><path style="opacity:0.024" fill="#59312e" d="M 87.5,52.5 C 87.8333,52.5 88.1667,52.5 88.5,52.5C 88.6468,62.0713 88.6468,71.7379 88.5,81.5C 88.1667,81.5 87.8333,81.5 87.5,81.5C 87.5,80.1667 87.5,78.8333 87.5,77.5C 87.5,76.5 87.5,75.5 87.5,74.5C 87.5674,73.0413 87.2341,71.7079 86.5,70.5C 87.404,69.791 87.7373,68.791 87.5,67.5C 87.5,66.5 87.5,65.5 87.5,64.5C 87.5,63.5 87.5,62.5 87.5,61.5C 87.5,60.5 87.5,59.5 87.5,58.5C 87.5,57.1667 87.5,55.8333 87.5,54.5C 87.5,53.8333 87.5,53.1667 87.5,52.5 Z"/></g>
<g><path style="opacity:1" fill="#c2c1d9" d="M 33.5,61.5 C 35.337,61.6395 35.6704,62.3061 34.5,63.5C 33.7025,63.0431 33.3691,62.3764 33.5,61.5 Z"/></g>
<g><path style="opacity:1" fill="#a2a7d6" d="M 36.5,63.5 C 38.337,63.6395 38.6704,64.3061 37.5,65.5C 36.7025,65.0431 36.3691,64.3764 36.5,63.5 Z"/></g>
<g><path style="opacity:1" fill="#f4e7e7" d="M 87.5,67.5 C 87.7373,68.791 87.404,69.791 86.5,70.5C 65.935,73.6538 45.2683,75.9872 24.5,77.5C 24.5,77.1667 24.5,76.8333 24.5,76.5C 24.5,75.5 24.5,74.5 24.5,73.5C 41.3573,73.4603 58.024,71.627 74.5,68C 78.8206,67.501 83.1539,67.3343 87.5,67.5 Z"/></g>
<g><path style="opacity:1" fill="#d62f27" d="M 87.5,64.5 C 87.5,65.5 87.5,66.5 87.5,67.5C 83.1539,67.3343 78.8206,67.501 74.5,68C 58.024,71.627 41.3573,73.4603 24.5,73.5C 24.5,72.5 24.5,71.5 24.5,70.5C 45.5619,69.0445 66.5619,67.0445 87.5,64.5 Z"/></g>
<g><path style="opacity:1" fill="#f3ebea" d="M 87.5,74.5 C 87.5,75.5 87.5,76.5 87.5,77.5C 85.9245,76.925 84.2578,76.5916 82.5,76.5C 63.0131,80.4269 43.3464,82.7603 23.5,83.5C 23.5,82.5 23.5,81.5 23.5,80.5C 41.0286,79.8089 58.362,77.6423 75.5,74C 79.5874,73.2375 83.5874,73.4042 87.5,74.5 Z"/></g>
<g><path style="opacity:1" fill="#d22720" d="M 86.5,70.5 C 87.2341,71.7079 87.5674,73.0413 87.5,74.5C 83.5874,73.4042 79.5874,73.2375 75.5,74C 58.362,77.6423 41.0286,79.8089 23.5,80.5C 23.5569,79.391 23.8902,78.391 24.5,77.5C 45.2683,75.9872 65.935,73.6538 86.5,70.5 Z"/></g>
<g><path style="opacity:1" fill="#d22d28" d="M 87.5,77.5 C 87.5,78.8333 87.5,80.1667 87.5,81.5C 83.5874,80.4042 79.5874,80.2375 75.5,81C 63.306,82.8638 51.306,85.0304 39.5,87.5C 34.8215,87.6658 30.1548,87.4992 25.5,87C 24.695,85.8873 24.0283,84.7206 23.5,83.5C 43.3464,82.7603 63.0131,80.4269 82.5,76.5C 84.2578,76.5916 85.9245,76.925 87.5,77.5 Z"/></g>
<g><path style="opacity:0.916" fill="#720203" d="M 87.5,81.5 C 87.5,81.8333 87.5,82.1667 87.5,82.5C 86.8333,82.5 86.5,82.8333 86.5,83.5C 86.1667,83.5 85.8333,83.5 85.5,83.5C 72.7638,86.7495 59.7638,88.0829 46.5,87.5C 44.1667,87.5 41.8333,87.5 39.5,87.5C 51.306,85.0304 63.306,82.8638 75.5,81C 79.5874,80.2375 83.5874,80.4042 87.5,81.5 Z"/></g>
</svg>
