<?xml version="1.0" encoding="UTF-8"?>
<!DOCTYPE svg PUBLIC "-//W3C//DTD SVG 1.1//EN" "http://www.w3.org/Graphics/SVG/1.1/DTD/svg11.dtd">
<svg xmlns="http://www.w3.org/2000/svg" version="1.1" width="96px" height="96px" style="shape-rendering:geometricPrecision; text-rendering:geometricPrecision; image-rendering:optimizeQuality; fill-rule:evenodd; clip-rule:evenodd" xmlns:xlink="http://www.w3.org/1999/xlink">
<g><path style="opacity:1" fill="#9b9d9c" d="M 73.5,7.5 C 75.1667,7.5 76.8333,7.5 78.5,7.5C 78.5,12.1667 78.5,16.8333 78.5,21.5C 78.1667,21.5 77.8333,21.5 77.5,21.5C 77.5,17.1667 77.5,12.8333 77.5,8.5C 76.5,8.5 75.5,8.5 74.5,8.5C 74.8168,12.7016 74.4834,16.7016 73.5,20.5C 73.5,16.1667 73.5,11.8333 73.5,7.5 Z"/></g>
<g><path style="opacity:0.641" fill="#2c3334" d="M 38.5,14.5 C 38.5,15.1667 38.5,15.8333 38.5,16.5C 37.5788,15.019 36.4121,13.6856 35,12.5C 27.1074,16.1949 19.6074,20.5283 12.5,25.5C 14.4177,29.0039 16.5843,32.3372 19,35.5C 19.49,34.2068 19.6567,32.8734 19.5,31.5C 20.2216,31.9175 20.7216,32.5842 21,33.5C 21.4643,32.9056 21.631,32.2389 21.5,31.5C 23.3079,34.4362 25.1412,37.4362 27,40.5C 27.1862,37.9644 27.6862,35.631 28.5,33.5C 28.7329,35.0618 29.3995,36.3951 30.5,37.5C 29.9569,37.56 29.6236,37.8933 29.5,38.5C 30.2485,40.3325 31.2485,41.9991 32.5,43.5C 32.2907,44.086 31.9574,44.586 31.5,45C 33.6705,46.5862 36.0038,47.9196 38.5,49C 37.9056,49.4643 37.2389,49.631 36.5,49.5C 29.0228,44.9254 21.3561,40.5921 13.5,36.5C 13.1667,40.6667 12.8333,44.8333 12.5,49C 12.5085,53.5572 13.1752,57.7238 14.5,61.5C 14.1667,62.1667 13.8333,62.8333 13.5,63.5C 12.8501,63.1961 12.1835,62.8627 11.5,62.5C 10.334,49.5128 10.1673,36.5128 11,23.5C 19.2481,18.9598 27.4147,14.2931 35.5,9.5C 37.2623,10.6885 38.2623,12.3551 38.5,14.5 Z"/></g>
<g><path style="opacity:1" fill="#555753" d="M 38.5,16.5 C 32.9423,20.8648 26.9423,24.6982 20.5,28C 19.6634,29.0113 19.33,30.1779 19.5,31.5C 19.6567,32.8734 19.49,34.2068 19,35.5C 16.5843,32.3372 14.4177,29.0039 12.5,25.5C 19.6074,20.5283 27.1074,16.1949 35,12.5C 36.4121,13.6856 37.5788,15.019 38.5,16.5 Z"/></g>
<g><path style="opacity:1" fill="#525450" d="M 38.5,27.5 C 35.5063,29.9998 32.173,31.9998 28.5,33.5C 27.6862,35.631 27.1862,37.9644 27,40.5C 25.1412,37.4362 23.3079,34.4362 21.5,31.5C 20.4019,30.603 20.4019,29.7697 21.5,29C 28.5,24.8333 35.5,20.6667 42.5,16.5C 44.1881,18.0294 45.5214,19.8627 46.5,22C 43.5932,23.6091 40.9266,25.4424 38.5,27.5 Z"/></g>
<g><path style="opacity:0.91" fill="#2c3031" d="M 38.5,14.5 C 40.3977,15.0893 42.3977,15.256 44.5,15C 45.6399,16.9734 46.9733,18.8067 48.5,20.5C 49.6199,19.1666 50.9532,18.6666 52.5,19C 53.7938,21.087 54.9605,23.2537 56,25.5C 57.1332,23.7888 58.6332,23.2888 60.5,24C 61.5,25.6667 62.5,27.3333 63.5,29C 67.4158,26.9803 69.7491,28.4803 70.5,33.5C 70.5,33.8333 70.5,34.1667 70.5,34.5C 69.1733,33.1999 67.84,31.8665 66.5,30.5C 62.7145,33.0594 58.7145,35.0594 54.5,36.5C 56.9266,34.4424 59.5932,32.6091 62.5,31C 61.7433,29.4878 60.7433,28.1545 59.5,27C 55.487,28.1059 51.487,29.6059 47.5,31.5C 49.7641,29.6863 52.0975,27.853 54.5,26C 53.2744,24.3651 51.941,22.8651 50.5,21.5C 46.7568,24.0383 42.7568,26.0383 38.5,27.5C 40.9266,25.4424 43.5932,23.6091 46.5,22C 45.5214,19.8627 44.1881,18.0294 42.5,16.5C 35.5,20.6667 28.5,24.8333 21.5,29C 20.4019,29.7697 20.4019,30.603 21.5,31.5C 21.631,32.2389 21.4643,32.9056 21,33.5C 20.7216,32.5842 20.2216,31.9175 19.5,31.5C 19.33,30.1779 19.6634,29.0113 20.5,28C 26.9423,24.6982 32.9423,20.8648 38.5,16.5C 38.5,15.8333 38.5,15.1667 38.5,14.5 Z"/></g>
<g><path style="opacity:1" fill="#565854" d="M 47.5,31.5 C 43.327,32.8374 39.4937,34.8374 36,37.5C 35.6667,40.1667 35.3333,42.8333 35,45.5C 33.6723,42.6882 32.1723,40.0216 30.5,37.5C 29.3995,36.3951 28.7329,35.0618 28.5,33.5C 32.173,31.9998 35.5063,29.9998 38.5,27.5C 42.7568,26.0383 46.7568,24.0383 50.5,21.5C 51.941,22.8651 53.2744,24.3651 54.5,26C 52.0975,27.853 49.7641,29.6863 47.5,31.5 Z"/></g>
<g><path style="opacity:1" fill="#565854" d="M 54.5,36.5 C 50.827,38.0002 47.4937,40.0002 44.5,42.5C 44.1667,42.5 43.8333,42.5 43.5,42.5C 42.6909,44.2922 42.1909,46.2922 42,48.5C 40.1667,45.3333 38.3333,42.1667 36.5,39C 40.3447,36.637 44.0113,34.137 47.5,31.5C 51.487,29.6059 55.487,28.1059 59.5,27C 60.7433,28.1545 61.7433,29.4878 62.5,31C 59.5932,32.6091 56.9266,34.4424 54.5,36.5 Z"/></g>
<g><path style="opacity:1" fill="#535551" d="M 70.5,34.5 C 70.6309,35.3764 70.2975,36.0431 69.5,36.5C 63.5853,39.7069 57.7519,43.0402 52,46.5C 51.6667,49.1667 51.3333,51.8333 51,54.5C 48.1735,50.8446 46.0068,46.8446 44.5,42.5C 47.4937,40.0002 50.827,38.0002 54.5,36.5C 58.7145,35.0594 62.7145,33.0594 66.5,30.5C 67.84,31.8665 69.1733,33.1999 70.5,34.5 Z"/></g>
<g><path style="opacity:1" fill="#bd3a3a" d="M 36.5,49.5 C 36.5,49.8333 36.5,50.1667 36.5,50.5C 35.4168,50.4606 34.4168,50.1272 33.5,49.5C 32.8281,50.9492 32.1614,52.2825 31.5,53.5C 31.6629,50.0603 29.9962,48.0603 26.5,47.5C 26.1667,48.1667 25.8333,48.8333 25.5,49.5C 26.437,51.288 27.7703,52.6214 29.5,53.5C 26.9017,54.5278 26.9017,55.5278 29.5,56.5C 27.5698,60.3727 26.9031,64.706 27.5,69.5C 25.4832,68.4706 23.4832,67.4706 21.5,66.5C 21.0213,63.9356 20.3547,61.4356 19.5,59C 17.8066,59.464 16.1399,60.2974 14.5,61.5C 13.1752,57.7238 12.5085,53.5572 12.5,49C 12.8333,44.8333 13.1667,40.6667 13.5,36.5C 21.3561,40.5921 29.0228,44.9254 36.5,49.5 Z"/></g>
<g><path style="opacity:1" fill="#555753" d="M 72.5,36.5 C 72.5,42.5 72.5,48.5 72.5,54.5C 68.2432,55.9617 64.2432,57.9617 60.5,60.5C 57.3504,56.8811 54.6837,52.8811 52.5,48.5C 58.8272,44.0002 65.4938,40.0002 72.5,36.5 Z"/></g>
<g><path style="opacity:1" fill="#c7c8c6" d="M 77.5,21.5 C 77.8333,21.5 78.1667,21.5 78.5,21.5C 78.4532,31.5161 78.7865,41.5161 79.5,51.5C 79.5,55.8333 79.5,60.1667 79.5,64.5C 79.1788,66.0481 78.1788,66.7148 76.5,66.5C 76.1988,51.4518 76.5322,36.4518 77.5,21.5 Z"/></g>
<g><path style="opacity:0.914" fill="#2d3334" d="M 58.5,89.5 C 58.5,88.8333 58.5,88.1667 58.5,87.5C 58.8333,87.5 59.1667,87.5 59.5,87.5C 62.1667,86.1667 64.8333,84.8333 67.5,83.5C 70.1932,84.8466 72.8599,86.1799 75.5,87.5C 77.7815,86.3918 79.9481,85.0585 82,83.5C 82.4994,77.8431 82.6661,72.1764 82.5,66.5C 82.1667,65.8333 81.8333,65.1667 81.5,64.5C 82.8124,59.9848 82.8124,55.3181 81.5,50.5C 80.8165,50.8627 80.1499,51.1961 79.5,51.5C 78.7865,41.5161 78.4532,31.5161 78.5,21.5C 78.5,16.8333 78.5,12.1667 78.5,7.5C 76.8333,7.5 75.1667,7.5 73.5,7.5C 72.8333,8.16667 72.1667,8.83333 71.5,9.5C 71.33,8.17793 71.6634,7.01127 72.5,6C 75.0991,5.23101 77.5991,5.39768 80,6.5C 80.3333,18.1667 80.6667,29.8333 81,41.5C 82,42.8333 83,44.1667 84,45.5C 84.8327,58.8458 84.666,72.1792 83.5,85.5C 81.0554,87.278 78.3888,88.6113 75.5,89.5C 72.5596,88.6965 69.8929,87.3631 67.5,85.5C 64.8515,87.6582 61.8515,88.9916 58.5,89.5 Z"/></g>
<g><path style="opacity:1" fill="#2e3233" d="M 47.5,31.5 C 44.0113,34.137 40.3447,36.637 36.5,39C 38.3333,42.1667 40.1667,45.3333 42,48.5C 42.1909,46.2922 42.6909,44.2922 43.5,42.5C 43.7261,45.2492 43.3928,47.9159 42.5,50.5C 42.8333,50.8333 43.1667,51.1667 43.5,51.5C 44.2811,50.2713 44.7811,48.938 45,47.5C 46.6118,52.0596 49.4451,55.5596 53.5,58C 53.2716,58.3988 52.9382,58.5654 52.5,58.5C 50.2872,57.2271 47.9538,56.2271 45.5,55.5C 42.9484,53.0568 39.9484,51.3901 36.5,50.5C 36.5,50.1667 36.5,49.8333 36.5,49.5C 37.2389,49.631 37.9056,49.4643 38.5,49C 36.0038,47.9196 33.6705,46.5862 31.5,45C 31.9574,44.586 32.2907,44.086 32.5,43.5C 31.2485,41.9991 30.2485,40.3325 29.5,38.5C 29.6236,37.8933 29.9569,37.56 30.5,37.5C 32.1723,40.0216 33.6723,42.6882 35,45.5C 35.3333,42.8333 35.6667,40.1667 36,37.5C 39.4937,34.8374 43.327,32.8374 47.5,31.5 Z"/></g>
<g><path style="opacity:1" fill="#595b57" d="M 31.5,53.5 C 30.8333,53.5 30.1667,53.5 29.5,53.5C 27.7703,52.6214 26.437,51.288 25.5,49.5C 25.8333,48.8333 26.1667,48.1667 26.5,47.5C 29.9962,48.0603 31.6629,50.0603 31.5,53.5 Z"/></g>
<g><path style="opacity:1" fill="#be3b3a" d="M 36.5,50.5 C 39.9484,51.3901 42.9484,53.0568 45.5,55.5C 45.1583,56.3382 44.4916,56.6716 43.5,56.5C 40.9165,58.4191 41.2498,60.0858 44.5,61.5C 44.7004,66.298 45.7004,71.1314 47.5,76C 46.0267,76.7096 45.3601,77.8762 45.5,79.5C 44.5084,79.6716 43.8417,79.3382 43.5,78.5C 43.6658,73.8215 43.4992,69.1548 43,64.5C 38.3301,61.97 33.8301,59.3033 29.5,56.5C 26.9017,55.5278 26.9017,54.5278 29.5,53.5C 30.1667,53.5 30.8333,53.5 31.5,53.5C 32.1614,52.2825 32.8281,50.9492 33.5,49.5C 34.4168,50.1272 35.4168,50.4606 36.5,50.5 Z"/></g>
<g><path style="opacity:1" fill="#272b2c" d="M 73.5,7.5 C 73.5,11.8333 73.5,16.1667 73.5,20.5C 73.7825,25.9265 73.4491,31.2599 72.5,36.5C 65.4938,40.0002 58.8272,44.0002 52.5,48.5C 54.6837,52.8811 57.3504,56.8811 60.5,60.5C 64.2432,57.9617 68.2432,55.9617 72.5,54.5C 72.5,54.8333 72.5,55.1667 72.5,55.5C 68.0074,57.579 63.674,59.9123 59.5,62.5C 56.9684,61.4043 54.6351,60.0709 52.5,58.5C 52.9382,58.5654 53.2716,58.3988 53.5,58C 49.4451,55.5596 46.6118,52.0596 45,47.5C 44.7811,48.938 44.2811,50.2713 43.5,51.5C 43.1667,51.1667 42.8333,50.8333 42.5,50.5C 43.3928,47.9159 43.7261,45.2492 43.5,42.5C 43.8333,42.5 44.1667,42.5 44.5,42.5C 46.0068,46.8446 48.1735,50.8446 51,54.5C 51.3333,51.8333 51.6667,49.1667 52,46.5C 57.7519,43.0402 63.5853,39.7069 69.5,36.5C 70.2975,36.0431 70.6309,35.3764 70.5,34.5C 70.5,34.1667 70.5,33.8333 70.5,33.5C 71.4924,25.6841 71.8257,17.6841 71.5,9.5C 72.1667,8.83333 72.8333,8.16667 73.5,7.5 Z"/></g>
<g><path style="opacity:1" fill="#761d19" d="M 81.5,64.5 C 80.8333,64.5 80.1667,64.5 79.5,64.5C 79.5,60.1667 79.5,55.8333 79.5,51.5C 80.1499,51.1961 80.8165,50.8627 81.5,50.5C 82.8124,55.3181 82.8124,59.9848 81.5,64.5 Z"/></g>
<g><path style="opacity:1" fill="#4d5955" d="M 43.5,56.5 C 45.4318,57.9764 45.7652,59.6431 44.5,61.5C 41.2498,60.0858 40.9165,58.4191 43.5,56.5 Z"/></g>
<g><path style="opacity:1" fill="#bb3b3a" d="M 45.5,55.5 C 47.9538,56.2271 50.2872,57.2271 52.5,58.5C 54.6351,60.0709 56.9684,61.4043 59.5,62.5C 59.5,70.8333 59.5,79.1667 59.5,87.5C 59.1667,87.5 58.8333,87.5 58.5,87.5C 57.949,82.7125 57.2823,77.7125 56.5,72.5C 55.448,72.3505 54.448,72.5172 53.5,73C 51.9625,74.7073 50.2959,76.2073 48.5,77.5C 47.1667,77.5 46.5,78.1667 46.5,79.5C 46.1667,79.5 45.8333,79.5 45.5,79.5C 45.3601,77.8762 46.0267,76.7096 47.5,76C 45.7004,71.1314 44.7004,66.298 44.5,61.5C 45.7652,59.6431 45.4318,57.9764 43.5,56.5C 44.4916,56.6716 45.1583,56.3382 45.5,55.5 Z"/></g>
<g><path style="opacity:1" fill="#565652" d="M 29.5,56.5 C 33.8301,59.3033 38.3301,61.97 43,64.5C 43.4992,69.1548 43.6658,73.8215 43.5,78.5C 38.1667,75.5 32.8333,72.5 27.5,69.5C 26.9031,64.706 27.5698,60.3727 29.5,56.5 Z"/></g>
<g><path style="opacity:1" fill="#751b19" d="M 72.5,55.5 C 71.8951,58.1267 71.3951,60.7934 71,63.5C 70.0053,64.0659 69.172,64.7326 68.5,65.5C 67.5104,71.31 67.1771,77.31 67.5,83.5C 64.8333,84.8333 62.1667,86.1667 59.5,87.5C 59.5,79.1667 59.5,70.8333 59.5,62.5C 63.674,59.9123 68.0074,57.579 72.5,55.5 Z"/></g>
<g><path style="opacity:1" fill="#e5e5e3" d="M 77.5,21.5 C 76.5322,36.4518 76.1988,51.4518 76.5,66.5C 78.1788,66.7148 79.1788,66.0481 79.5,64.5C 80.1667,64.5 80.8333,64.5 81.5,64.5C 81.8333,65.1667 82.1667,65.8333 82.5,66.5C 80.5,67.5 78.5,68.5 76.5,69.5C 73.1485,69.47 70.4818,68.1367 68.5,65.5C 69.172,64.7326 70.0053,64.0659 71,63.5C 71.3951,60.7934 71.8951,58.1267 72.5,55.5C 72.5,55.1667 72.5,54.8333 72.5,54.5C 72.5,48.5 72.5,42.5 72.5,36.5C 73.4491,31.2599 73.7825,25.9265 73.5,20.5C 74.4834,16.7016 74.8168,12.7016 74.5,8.5C 75.5,8.5 76.5,8.5 77.5,8.5C 77.5,12.8333 77.5,17.1667 77.5,21.5 Z"/></g>
<g><path style="opacity:1" fill="#e8e6e9" d="M 21.5,66.5 C 20.8333,66.5 20.5,66.8333 20.5,67.5C 17.3183,67.416 14.985,66.0827 13.5,63.5C 13.8333,62.8333 14.1667,62.1667 14.5,61.5C 16.1399,60.2974 17.8066,59.464 19.5,59C 20.3547,61.4356 21.0213,63.9356 21.5,66.5 Z"/></g>
<g><path style="opacity:1" fill="#bbbfb8" d="M 68.5,65.5 C 70.4818,68.1367 73.1485,69.47 76.5,69.5C 75.5447,75.4093 75.2114,81.4093 75.5,87.5C 72.8599,86.1799 70.1932,84.8466 67.5,83.5C 67.1771,77.31 67.5104,71.31 68.5,65.5 Z"/></g>
<g><path style="opacity:1" fill="#888a84" d="M 82.5,66.5 C 82.6661,72.1764 82.4994,77.8431 82,83.5C 79.9481,85.0585 77.7815,86.3918 75.5,87.5C 75.2114,81.4093 75.5447,75.4093 76.5,69.5C 78.5,68.5 80.5,67.5 82.5,66.5 Z"/></g>
<g><path style="opacity:1" fill="#dd4141" d="M 32.5,64.5 C 38.3751,64.7134 39.8751,67.3801 37,72.5C 32.9715,70.4152 32.8049,69.7486 36.5,70.5C 37.4709,69.0379 37.1376,67.7046 35.5,66.5C 32.9453,69.2508 31.9453,68.5841 32.5,64.5 Z"/></g>
<g><path style="opacity:0.663" fill="#2a3032" d="M 21.5,66.5 C 23.4832,67.4706 25.4832,68.4706 27.5,69.5C 32.8333,72.5 38.1667,75.5 43.5,78.5C 43.8417,79.3382 44.5084,79.6716 45.5,79.5C 45.8333,79.5 46.1667,79.5 46.5,79.5C 45.8333,80.1667 45.1667,80.8333 44.5,81.5C 36.4645,76.8184 28.4645,72.1517 20.5,67.5C 20.5,66.8333 20.8333,66.5 21.5,66.5 Z"/></g>
<g><path style="opacity:1" fill="#313e40" d="M 48.5,77.5 C 48.5,78.8333 47.8333,79.5 46.5,79.5C 46.5,78.1667 47.1667,77.5 48.5,77.5 Z"/></g>
<g><path style="opacity:1" fill="#e7e9ed" d="M 58.5,87.5 C 58.5,88.1667 58.5,88.8333 58.5,89.5C 54.0876,88.1307 49.7543,86.464 45.5,84.5C 44.6143,83.675 44.281,82.675 44.5,81.5C 45.1667,80.8333 45.8333,80.1667 46.5,79.5C 47.8333,79.5 48.5,78.8333 48.5,77.5C 50.2959,76.2073 51.9625,74.7073 53.5,73C 54.448,72.5172 55.448,72.3505 56.5,72.5C 57.2823,77.7125 57.949,82.7125 58.5,87.5 Z"/></g>
</svg>
