<?xml version="1.0" encoding="UTF-8"?>
<!DOCTYPE svg PUBLIC "-//W3C//DTD SVG 1.1//EN" "http://www.w3.org/Graphics/SVG/1.1/DTD/svg11.dtd">
<svg xmlns="http://www.w3.org/2000/svg" version="1.1" width="96px" height="96px" style="shape-rendering:geometricPrecision; text-rendering:geometricPrecision; image-rendering:optimizeQuality; fill-rule:evenodd; clip-rule:evenodd" xmlns:xlink="http://www.w3.org/1999/xlink">
<g><path style="opacity:0.998" fill="#d9d9d9" d="M -0.5,-0.5 C 31.5,-0.5 63.5,-0.5 95.5,-0.5C 95.5,31.5 95.5,63.5 95.5,95.5C 63.5,95.5 31.5,95.5 -0.5,95.5C -0.5,63.5 -0.5,31.5 -0.5,-0.5 Z"/></g>
<g><path style="opacity:1" fill="#148038" d="M 49.5,64.5 C 48.1667,63.1667 46.8333,63.1667 45.5,64.5C 43.7094,67.3211 41.2094,69.3211 38,70.5C 38.7086,67.8131 39.3753,65.1464 40,62.5C 35.2368,64.1406 30.7368,63.6406 26.5,61C 30.0685,58.4771 34.0685,57.1438 38.5,57C 31.0923,52.8565 25.759,46.8565 22.5,39C 30.2682,39.9699 36.7682,43.4699 42,49.5C 42.3333,43.5 42.6667,37.5 43,31.5C 46,18.1667 49,18.1667 52,31.5C 52.3333,37.5 52.6667,43.5 53,49.5C 58.2318,43.4699 64.7318,39.9699 72.5,39C 69.1342,46.866 63.8008,53.0327 56.5,57.5C 60.6538,58.1639 64.6538,59.3305 68.5,61C 64.0497,62.8836 59.383,64.0502 54.5,64.5C 56.2108,66.2403 57.0442,68.2403 57,70.5C 53.7906,69.3211 51.2906,67.3211 49.5,64.5 Z"/></g>
<g><path style="opacity:1" fill="#5fa67d" d="M 45.5,64.5 C 46.8333,63.1667 48.1667,63.1667 49.5,64.5C 48.834,67.3583 48.1674,70.3583 47.5,73.5C 46.8326,70.3583 46.166,67.3583 45.5,64.5 Z"/></g>
</svg>
