<?xml version="1.0" encoding="UTF-8"?>
<!DOCTYPE svg PUBLIC "-//W3C//DTD SVG 1.1//EN" "http://www.w3.org/Graphics/SVG/1.1/DTD/svg11.dtd">
<svg xmlns="http://www.w3.org/2000/svg" version="1.1" width="96px" height="96px" style="shape-rendering:geometricPrecision; text-rendering:geometricPrecision; image-rendering:optimizeQuality; fill-rule:evenodd; clip-rule:evenodd" xmlns:xlink="http://www.w3.org/1999/xlink">
<g><path style="opacity:1" fill="#fe3e37" d="M -0.5,-0.5 C 10.8333,-0.5 22.1667,-0.5 33.5,-0.5C 29.984,5.19971 25.984,10.533 21.5,15.5C 21.1034,14.475 20.4368,14.3083 19.5,15C 18.3783,17.1238 16.8783,18.9571 15,20.5C 12.8245,12.4899 7.65781,7.8232 -0.5,6.5C -0.5,4.16667 -0.5,1.83333 -0.5,-0.5 Z"/></g>
<g><path style="opacity:1" fill="#fe5943" d="M 33.5,-0.5 C 34.1667,-0.5 34.8333,-0.5 35.5,-0.5C 30.6258,7.2206 25.1258,14.5539 19,21.5C 18.8864,24.8693 19.3864,28.2026 20.5,31.5C 23.085,26.1378 27.085,22.3045 32.5,20C 34.5435,18.292 36.2101,16.292 37.5,14C 41.3588,12.5786 45.0255,10.9119 48.5,9C 50.235,8.34862 51.9017,8.51529 53.5,9.5C 54.624,8.08601 55.624,6.58601 56.5,5C 58.5767,4.80779 60.5767,4.30779 62.5,3.5C 63.2458,2.26381 63.5792,0.930472 63.5,-0.5C 65.1667,-0.5 66.8333,-0.5 68.5,-0.5C 68.9175,0.221579 69.5842,0.721579 70.5,1C 64.027,7.47295 57.527,13.973 51,20.5C 50.5172,21.448 50.3505,22.448 50.5,23.5C 46.7974,23.8624 43.7974,25.529 41.5,28.5C 43.3925,30.8808 43.8925,33.5475 43,36.5C 42.7645,34.8807 41.9311,33.8807 40.5,33.5C 27.5,32.5 21.5,38.5 22.5,51.5C 21.71,50.3915 21.21,49.0581 21,47.5C 19.1508,49.0473 17.6508,50.8807 16.5,53C 10.6311,54.3802 4.96445,56.2135 -0.5,58.5C -0.5,54.5 -0.5,50.5 -0.5,46.5C 5.13625,39.6866 10.6362,32.6866 16,25.5C 16.6917,24.5632 16.525,23.8966 15.5,23.5C 17.8847,21.1162 19.8847,18.4495 21.5,15.5C 25.984,10.533 29.984,5.19971 33.5,-0.5 Z"/></g>
<g><path style="opacity:1" fill="#fe5440" d="M 35.5,-0.5 C 44.8333,-0.5 54.1667,-0.5 63.5,-0.5C 63.5792,0.930472 63.2458,2.26381 62.5,3.5C 60.5767,4.30779 58.5767,4.80779 56.5,5C 55.624,6.58601 54.624,8.08601 53.5,9.5C 51.9017,8.51529 50.235,8.34862 48.5,9C 45.0255,10.9119 41.3588,12.5786 37.5,14C 36.2101,16.292 34.5435,18.292 32.5,20C 27.085,22.3045 23.085,26.1378 20.5,31.5C 19.3864,28.2026 18.8864,24.8693 19,21.5C 25.1258,14.5539 30.6258,7.2206 35.5,-0.5 Z"/></g>
<g><path style="opacity:1" fill="#f44338" d="M 77.5,-0.5 C 83.5,-0.5 89.5,-0.5 95.5,-0.5C 95.5,2.5 95.5,5.5 95.5,8.5C 92.4127,10.017 89.0794,10.6837 85.5,10.5C 85.719,11.675 85.3857,12.675 84.5,13.5C 81.4883,14.0024 79.155,15.5024 77.5,18C 74.0787,17.8786 71.4121,19.2119 69.5,22C 61.557,21.2182 56.057,24.7182 53,32.5C 52.3292,33.2524 51.4959,33.5858 50.5,33.5C 49.5041,33.4142 48.6708,33.7476 48,34.5C 55.295,22.6523 63.6284,11.319 73,0.5C 73.1667,0.833333 73.3333,1.16667 73.5,1.5C 71.6132,4.15256 70.1132,6.81922 69,9.5C 72.0966,6.25002 74.9299,2.91668 77.5,-0.5 Z"/></g>
<g><path style="opacity:1" fill="#fe3433" d="M -0.5,6.5 C 7.65781,7.8232 12.8245,12.4899 15,20.5C 16.8783,18.9571 18.3783,17.1238 19.5,15C 20.4368,14.3083 21.1034,14.475 21.5,15.5C 19.8847,18.4495 17.8847,21.1162 15.5,23.5C 10.5162,30.4797 5.18292,37.1464 -0.5,43.5C -0.5,31.1667 -0.5,18.8333 -0.5,6.5 Z"/></g>
<g><path style="opacity:1" fill="#fe6049" d="M 68.5,-0.5 C 71.5,-0.5 74.5,-0.5 77.5,-0.5C 74.9299,2.91668 72.0966,6.25002 69,9.5C 70.1132,6.81922 71.6132,4.15256 73.5,1.5C 73.3333,1.16667 73.1667,0.833333 73,0.5C 63.6284,11.319 55.295,22.6523 48,34.5C 48.6708,33.7476 49.5041,33.4142 50.5,33.5C 49.4937,34.3957 49.4937,35.0623 50.5,35.5C 49.2073,37.2959 47.7073,38.9625 46,40.5C 45.0272,43.5787 44.1939,46.5787 43.5,49.5C 43.6602,47.8008 43.4935,46.1341 43,44.5C 40.6715,48.3517 37.8382,51.0184 34.5,52.5C 36.8589,49.795 38.8589,46.795 40.5,43.5C 39.6519,42.0089 38.3186,41.3422 36.5,41.5C 34.7927,41.7284 33.126,42.0617 31.5,42.5C 31.6107,41.8826 31.944,41.3826 32.5,41C 38.7642,41.7254 41.4309,39.2254 40.5,33.5C 41.9311,33.8807 42.7645,34.8807 43,36.5C 43.8925,33.5475 43.3925,30.8808 41.5,28.5C 43.7974,25.529 46.7974,23.8624 50.5,23.5C 50.3505,22.448 50.5172,21.448 51,20.5C 57.527,13.973 64.027,7.47295 70.5,1C 69.5842,0.721579 68.9175,0.221579 68.5,-0.5 Z"/></g>
<g><path style="opacity:1" fill="#fc3c36" d="M 95.5,8.5 C 95.5,14.5 95.5,20.5 95.5,26.5C 90.5945,31.9826 85.9278,37.6492 81.5,43.5C 80.0694,41.5987 79.0694,39.432 78.5,37C 80.1667,35.1667 81.8333,33.3333 83.5,31.5C 81.9199,28.5804 82.2532,25.9137 84.5,23.5C 82.8409,22.1832 81.6743,20.5165 81,18.5C 76.2457,19.8761 71.579,22.2094 67,25.5C 65.9505,24.4829 64.7839,24.3162 63.5,25C 62.1392,28.2288 59.8058,30.3955 56.5,31.5C 57.9492,32.1719 59.2825,32.8386 60.5,33.5C 56.9153,33.1524 53.582,33.819 50.5,35.5C 49.4937,35.0623 49.4937,34.3957 50.5,33.5C 51.4959,33.5858 52.3292,33.2524 53,32.5C 56.057,24.7182 61.557,21.2182 69.5,22C 71.4121,19.2119 74.0787,17.8786 77.5,18C 79.155,15.5024 81.4883,14.0024 84.5,13.5C 85.3857,12.675 85.719,11.675 85.5,10.5C 89.0794,10.6837 92.4127,10.017 95.5,8.5 Z"/></g>
<g><path style="opacity:1" fill="#fd3534" d="M 81.5,43.5 C 80.1579,46.1658 78.3245,48.4992 76,50.5C 74.3743,49.0445 73.2076,47.3779 72.5,45.5C 70.8333,39.1667 66.8333,35.1667 60.5,33.5C 59.2825,32.8386 57.9492,32.1719 56.5,31.5C 59.8058,30.3955 62.1392,28.2288 63.5,25C 64.7839,24.3162 65.9505,24.4829 67,25.5C 71.579,22.2094 76.2457,19.8761 81,18.5C 81.6743,20.5165 82.8409,22.1832 84.5,23.5C 82.2532,25.9137 81.9199,28.5804 83.5,31.5C 81.8333,33.3333 80.1667,35.1667 78.5,37C 79.0694,39.432 80.0694,41.5987 81.5,43.5 Z"/></g>
<g><path style="opacity:1" fill="#fe724e" d="M 15.5,23.5 C 16.525,23.8966 16.6917,24.5632 16,25.5C 10.6362,32.6866 5.13625,39.6866 -0.5,46.5C -0.5,45.5 -0.5,44.5 -0.5,43.5C 5.18292,37.1464 10.5162,30.4797 15.5,23.5 Z"/></g>
<g><path style="opacity:1" fill="#fef5f4" d="M 40.5,33.5 C 41.4309,39.2254 38.7642,41.7254 32.5,41C 31.944,41.3826 31.6107,41.8826 31.5,42.5C 27.387,46.8414 27.7203,51.0081 32.5,55C 38.154,56.8402 41.8207,55.0069 43.5,49.5C 44.1939,46.5787 45.0272,43.5787 46,40.5C 47.7073,38.9625 49.2073,37.2959 50.5,35.5C 53.582,33.819 56.9153,33.1524 60.5,33.5C 66.8333,35.1667 70.8333,39.1667 72.5,45.5C 72.5,47.5 72.5,49.5 72.5,51.5C 71.9109,54.2762 70.5776,56.6096 68.5,58.5C 64.2277,62.2741 59.2277,63.4407 53.5,62C 52.0577,61.6232 51.0577,60.7899 50.5,59.5C 51.2632,57.6316 52.2632,55.9649 53.5,54.5C 63.4971,57.0011 67.3304,53.3344 65,43.5C 56.2444,37.7711 51.411,40.1045 50.5,50.5C 50.0745,53.1192 49.0745,55.4525 47.5,57.5C 45.8089,58.8637 44.1423,60.197 42.5,61.5C 32.6051,64.5526 25.9384,61.2192 22.5,51.5C 21.5,38.5 27.5,32.5 40.5,33.5 Z"/></g>
<g><path style="opacity:1" fill="#fe3d3c" d="M 53.5,54.5 C 52.4884,53.1283 51.4884,51.795 50.5,50.5C 51.411,40.1045 56.2444,37.7711 65,43.5C 67.3304,53.3344 63.4971,57.0011 53.5,54.5 Z"/></g>
<g><path style="opacity:1" fill="#f43f37" d="M 95.5,26.5 C 95.5,36.5 95.5,46.5 95.5,56.5C 90.456,56.8275 85.456,56.4941 80.5,55.5C 79.0622,52.1771 77.2289,51.8438 75,54.5C 74.6667,53.1667 74.3333,51.8333 74,50.5C 73.6174,51.056 73.1174,51.3893 72.5,51.5C 72.5,49.5 72.5,47.5 72.5,45.5C 73.2076,47.3779 74.3743,49.0445 76,50.5C 78.3245,48.4992 80.1579,46.1658 81.5,43.5C 85.9278,37.6492 90.5945,31.9826 95.5,26.5 Z"/></g>
<g><path style="opacity:1" fill="#ff473e" d="M 43.5,49.5 C 41.8207,55.0069 38.154,56.8402 32.5,55C 27.7203,51.0081 27.387,46.8414 31.5,42.5C 33.126,42.0617 34.7927,41.7284 36.5,41.5C 38.3186,41.3422 39.6519,42.0089 40.5,43.5C 38.8589,46.795 36.8589,49.795 34.5,52.5C 37.8382,51.0184 40.6715,48.3517 43,44.5C 43.4935,46.1341 43.6602,47.8008 43.5,49.5 Z"/></g>
<g><path style="opacity:1" fill="#bfc0bd" d="M 50.5,50.5 C 51.4884,51.795 52.4884,53.1283 53.5,54.5C 52.2632,55.9649 51.2632,57.6316 50.5,59.5C 49.5,58.8333 48.5,58.1667 47.5,57.5C 49.0745,55.4525 50.0745,53.1192 50.5,50.5 Z"/></g>
<g><path style="opacity:1" fill="#fe2c2f" d="M 22.5,51.5 C 25.9384,61.2192 32.6051,64.5526 42.5,61.5C 41.2063,63.2648 40.2063,65.0982 39.5,67C 33.629,67.5545 28.629,69.8878 24.5,74C 20.8582,74.7284 18.0248,76.5618 16,79.5C 13.9327,75.7443 14.766,72.5776 18.5,70C 17.7734,68.6012 17.2734,67.1012 17,65.5C 13.5688,67.7921 9.73547,69.4587 5.5,70.5C 3.58414,69.7517 1.58414,69.7517 -0.5,70.5C -0.5,66.5 -0.5,62.5 -0.5,58.5C 4.96445,56.2135 10.6311,54.3802 16.5,53C 17.6508,50.8807 19.1508,49.0473 21,47.5C 21.21,49.0581 21.71,50.3915 22.5,51.5 Z"/></g>
<g><path style="opacity:1" fill="#f12f2e" d="M 95.5,56.5 C 95.5,61.1667 95.5,65.8333 95.5,70.5C 92.9339,70.3444 90.4339,70.6777 88,71.5C 85.405,69.8542 82.5716,69.1875 79.5,69.5C 79.5,68.5 79.5,67.5 79.5,66.5C 75.9849,65.6068 72.6516,65.2734 69.5,65.5C 69.2252,63.1582 68.3919,63.1582 67,65.5C 66.7308,62.7202 67.8975,60.5536 70.5,59C 69.9056,58.5357 69.2389,58.369 68.5,58.5C 70.5776,56.6096 71.9109,54.2762 72.5,51.5C 73.1174,51.3893 73.6174,51.056 74,50.5C 74.3333,51.8333 74.6667,53.1667 75,54.5C 77.2289,51.8438 79.0622,52.1771 80.5,55.5C 85.456,56.4941 90.456,56.8275 95.5,56.5 Z"/></g>
<g><path style="opacity:1" fill="#fd2028" d="M 42.5,61.5 C 44.8127,62.6683 47.146,64.0017 49.5,65.5C 51.6981,64.061 52.3648,64.3944 51.5,66.5C 43.6842,70.7173 35.3508,73.884 26.5,76C 22.7319,78.1276 19.0652,80.2943 15.5,82.5C 11.4342,85.5628 8.10086,89.2294 5.5,93.5C 4.5,93.8333 3.83333,94.5 3.5,95.5C 2.16667,95.5 0.833333,95.5 -0.5,95.5C -0.5,87.1667 -0.5,78.8333 -0.5,70.5C 1.58414,69.7517 3.58414,69.7517 5.5,70.5C 9.73547,69.4587 13.5688,67.7921 17,65.5C 17.2734,67.1012 17.7734,68.6012 18.5,70C 14.766,72.5776 13.9327,75.7443 16,79.5C 18.0248,76.5618 20.8582,74.7284 24.5,74C 28.629,69.8878 33.629,67.5545 39.5,67C 40.2063,65.0982 41.2063,63.2648 42.5,61.5 Z"/></g>
<g><path style="opacity:1" fill="#f6242a" d="M 47.5,57.5 C 48.5,58.1667 49.5,58.8333 50.5,59.5C 51.0577,60.7899 52.0577,61.6232 53.5,62C 59.2277,63.4407 64.2277,62.2741 68.5,58.5C 69.2389,58.369 69.9056,58.5357 70.5,59C 67.8975,60.5536 66.7308,62.7202 67,65.5C 68.3919,63.1582 69.2252,63.1582 69.5,65.5C 63.9641,68.2013 60.4641,72.5346 59,78.5C 54.0653,81.7181 50.5653,86.0514 48.5,91.5C 46.2901,91.894 44.9568,93.2273 44.5,95.5C 43.5,95.5 42.5,95.5 41.5,95.5C 44.7804,90.2192 48.4471,85.2192 52.5,80.5C 55.1606,77.8292 57.4939,74.8292 59.5,71.5C 58.1667,70.1667 58.1667,68.8333 59.5,67.5C 58.1349,63.7768 56.4683,63.7768 54.5,67.5C 50.7954,69.2363 47.1287,71.0696 43.5,73C 34.0707,75.8812 24.7373,79.0479 15.5,82.5C 19.0652,80.2943 22.7319,78.1276 26.5,76C 35.3508,73.884 43.6842,70.7173 51.5,66.5C 52.3648,64.3944 51.6981,64.061 49.5,65.5C 47.146,64.0017 44.8127,62.6683 42.5,61.5C 44.1423,60.197 45.8089,58.8637 47.5,57.5 Z"/></g>
<g><path style="opacity:1" fill="#e31c23" d="M 52.5,80.5 C 52.9492,78.0225 52.2825,76.0225 50.5,74.5C 38.7228,79.4445 26.7228,83.7778 14.5,87.5C 11.1797,88.3913 8.17974,90.3913 5.5,93.5C 8.10086,89.2294 11.4342,85.5628 15.5,82.5C 24.7373,79.0479 34.0707,75.8812 43.5,73C 47.1287,71.0696 50.7954,69.2363 54.5,67.5C 56.4683,63.7768 58.1349,63.7768 59.5,67.5C 58.1667,68.8333 58.1667,70.1667 59.5,71.5C 57.4939,74.8292 55.1606,77.8292 52.5,80.5 Z"/></g>
<g><path style="opacity:1" fill="#ee2129" d="M 69.5,65.5 C 72.6516,65.2734 75.9849,65.6068 79.5,66.5C 79.5,67.5 79.5,68.5 79.5,69.5C 82.5716,69.1875 85.405,69.8542 88,71.5C 90.4339,70.6777 92.9339,70.3444 95.5,70.5C 95.5,78.8333 95.5,87.1667 95.5,95.5C 90.1667,95.5 84.8333,95.5 79.5,95.5C 79.9586,91.216 81.1253,87.216 83,83.5C 82.3333,84.1667 81.6667,84.8333 81,85.5C 74.8537,84.6658 68.6871,83.6658 62.5,82.5C 60.5534,83.277 58.7201,84.277 57,85.5C 56.228,85.3552 55.5613,85.0219 55,84.5C 52.8169,86.9071 50.6503,89.2404 48.5,91.5C 50.5653,86.0514 54.0653,81.7181 59,78.5C 60.4641,72.5346 63.9641,68.2013 69.5,65.5 Z"/></g>
<g><path style="opacity:1" fill="#e41d25" d="M 79.5,95.5 C 67.8333,95.5 56.1667,95.5 44.5,95.5C 44.9568,93.2273 46.2901,91.894 48.5,91.5C 50.6503,89.2404 52.8169,86.9071 55,84.5C 55.5613,85.0219 56.228,85.3552 57,85.5C 58.7201,84.277 60.5534,83.277 62.5,82.5C 68.6871,83.6658 74.8537,84.6658 81,85.5C 81.6667,84.8333 82.3333,84.1667 83,83.5C 81.1253,87.216 79.9586,91.216 79.5,95.5 Z"/></g>
<g><path style="opacity:1" fill="#d11921" d="M 52.5,80.5 C 48.4471,85.2192 44.7804,90.2192 41.5,95.5C 28.8333,95.5 16.1667,95.5 3.5,95.5C 3.83333,94.5 4.5,93.8333 5.5,93.5C 8.17974,90.3913 11.1797,88.3913 14.5,87.5C 26.7228,83.7778 38.7228,79.4445 50.5,74.5C 52.2825,76.0225 52.9492,78.0225 52.5,80.5 Z"/></g>
</svg>
