<?xml version="1.0" encoding="UTF-8"?>
<!DOCTYPE svg PUBLIC "-//W3C//DTD SVG 1.1//EN" "http://www.w3.org/Graphics/SVG/1.1/DTD/svg11.dtd">
<svg xmlns="http://www.w3.org/2000/svg" version="1.1" width="96px" height="96px" style="shape-rendering:geometricPrecision; text-rendering:geometricPrecision; image-rendering:optimizeQuality; fill-rule:evenodd; clip-rule:evenodd" xmlns:xlink="http://www.w3.org/1999/xlink">
<g><path style="opacity:0.212" fill="#ff4f3a" d="M 43.5,-0.5 C 44.5,-0.5 45.5,-0.5 46.5,-0.5C 46.4894,1.01739 45.8228,2.18405 44.5,3C 38.5422,7.289 32.8756,11.9557 27.5,17C 25.4732,18.8793 23.1398,20.046 20.5,20.5C 20.281,19.325 20.6143,18.325 21.5,17.5C 29.1677,11.8249 36.501,5.82489 43.5,-0.5 Z"/></g>
<g><path style="opacity:0.86" fill="#ffc438" d="M -0.5,70.5 C -0.5,66.1667 -0.5,61.8333 -0.5,57.5C 2.7847,51.0259 7.11803,45.1926 12.5,40C 27.1159,27.375 42.2825,15.5417 58,4.5C 60.4675,5.10429 62.4675,6.43762 64,8.5C 67.9753,4.25704 72.8086,2.42371 78.5,3C 80.9576,4.78748 82.6242,7.12081 83.5,10C 82.1391,13.8912 80.1391,17.3912 77.5,20.5C 81.7486,23.302 82.5819,26.9687 80,31.5C 67.6135,47.5592 54.1135,62.7259 39.5,77C 29.0746,85.4768 18.0746,86.4768 6.5,80C 3.53498,77.2099 1.20165,74.0433 -0.5,70.5 Z"/></g>
<g><path style="opacity:0.241" fill="#ffc33a" d="M 25.5,6.5 C 27.2252,6.84254 27.7252,7.84254 27,9.5C 19.3114,16.0229 11.4781,22.3562 3.5,28.5C 2.41728,27.635 2.25061,26.635 3,25.5C 10.691,19.3021 18.191,12.9687 25.5,6.5 Z"/></g>
<g><path style="opacity:1" fill="#ff4a36" d="M 56.5,25.5 C 52.9286,25.5923 51.7619,23.9257 53,20.5C 55.2739,16.8482 58.4406,15.0149 62.5,15C 63.2266,16.3988 63.7266,17.8988 64,19.5C 68.5686,17.3786 70.9019,18.7119 71,23.5C 68.4634,26.372 65.6301,28.872 62.5,31C 63.8333,31.3333 65.1667,31.6667 66.5,32C 67.0585,32.7247 67.3918,33.5581 67.5,34.5C 66.5893,37.0819 64.9226,39.0819 62.5,40.5C 64.124,41.8689 64.624,43.5355 64,45.5C 53.804,56.0301 43.304,66.1968 32.5,76C 24.9453,81.4101 17.2786,81.7434 9.5,77C 3.39431,68.9401 2.89431,60.4401 8,51.5C 20.1999,39.6318 32.6999,28.1318 45.5,17C 51.4507,15.8972 52.9507,18.0639 50,23.5C 48.0748,24.8804 46.2415,26.3804 44.5,28C 47.2715,28.2715 48.9382,29.7715 49.5,32.5C 52.1878,30.4789 54.5211,28.1456 56.5,25.5 Z"/></g>
<g><path style="opacity:1" fill="#ffc638" d="M 56.5,25.5 C 57.5618,23.2435 59.2285,22.0768 61.5,22C 60.2107,23.8022 58.5441,24.9688 56.5,25.5 Z"/></g>
<g><path style="opacity:0.196" fill="#ffc43f" d="M 95.5,30.5 C 95.5,31.1667 95.5,31.8333 95.5,32.5C 88.7299,39.7715 81.7299,46.9382 74.5,54C 73.5165,54.5908 72.8499,54.2575 72.5,53C 79.3808,44.6183 87.0475,37.1183 95.5,30.5 Z"/></g>
<g><path style="opacity:1" fill="#fffbfa" d="M 30.5,34.5 C 33.5904,33.83 35.257,34.9967 35.5,38C 35.5607,39.7106 34.8941,41.044 33.5,42C 37.5488,45.2629 37.2155,48.2629 32.5,51C 38.2504,59.3286 37.2504,66.9953 29.5,74C 14.5847,79.4649 7.41802,74.2982 8,58.5C 9,56.8333 10,55.1667 11,53.5C 18.0041,47.6623 24.5041,41.329 30.5,34.5 Z"/></g>
<g><path style="opacity:1" fill="#ffc638" d="M 52.5,44.5 C 56.0714,44.4077 57.2381,46.0743 56,49.5C 54.1667,51.3333 52.3333,53.1667 50.5,55C 46.8886,56.2542 45.3886,55.0876 46,51.5C 48.3722,49.2968 50.5389,46.9635 52.5,44.5 Z"/></g>
<g><path style="opacity:0.142" fill="#ff4f3a" d="M 87.5,58.5 C 89.0847,59.0024 89.5847,60.0024 89,61.5C 81.8333,68 75,74.8333 68.5,82C 67.552,82.4828 66.552,82.6495 65.5,82.5C 65.281,81.325 65.6143,80.325 66.5,79.5C 73.8543,72.8123 80.8543,65.8123 87.5,58.5 Z"/></g>
<g><path style="opacity:0.331" fill="#ff4a36" d="M 61.5,94.5 C 61.1583,93.6618 60.4916,93.3284 59.5,93.5C 66.479,85.8543 73.8123,78.521 81.5,71.5C 81.8333,72 82.1667,72.5 82.5,73C 75.99,80.6763 68.99,87.843 61.5,94.5 Z"/></g>
<g><path style="opacity:0.722" fill="#ffaaa0" d="M 59.5,93.5 C 60.4916,93.3284 61.1583,93.6618 61.5,94.5C 61.5,94.8333 61.5,95.1667 61.5,95.5C 60.8333,95.5 60.1667,95.5 59.5,95.5C 58.4937,94.6043 58.4937,93.9377 59.5,93.5 Z"/></g>
</svg>
