<?xml version="1.0" encoding="UTF-8"?>
<!DOCTYPE svg PUBLIC "-//W3C//DTD SVG 1.1//EN" "http://www.w3.org/Graphics/SVG/1.1/DTD/svg11.dtd">
<svg xmlns="http://www.w3.org/2000/svg" version="1.1" width="96px" height="96px" style="shape-rendering:geometricPrecision; text-rendering:geometricPrecision; image-rendering:optimizeQuality; fill-rule:evenodd; clip-rule:evenodd" xmlns:xlink="http://www.w3.org/1999/xlink">
<g><path style="opacity:1" fill="#e4ca29" d="M 39.5,4.5 C 47.5283,3.06702 55.5283,3.73368 63.5,6.5C 84.1553,16.8071 92.9887,33.4737 90,56.5C 88.2279,66.724 83.3945,75.0574 75.5,81.5C 74.6522,80.375 73.6522,80.375 72.5,81.5C 88.0978,67.4405 92.2645,50.4405 85,30.5C 78.4633,17.3351 68.4633,10.0018 55,8.5C 47.0716,6.47007 39.2383,7.13674 31.5,10.5C 30.0126,13.1535 28.0126,15.3202 25.5,17C 25.9574,17.414 26.2907,17.914 26.5,18.5C 24.1558,19.3372 22.1558,20.6706 20.5,22.5C 20.8076,23.3081 21.3076,23.9747 22,24.5C 26.6961,19.2356 32.5294,16.2356 39.5,15.5C 17.9575,24.5962 11.1242,40.2629 19,62.5C 23.1289,69.7998 28.9622,75.1331 36.5,78.5C 30.2952,77.4978 25.1285,74.4978 21,69.5C 20.3333,70.1667 20.3333,70.8333 21,71.5C 32.0108,85.2927 45.8441,90.2927 62.5,86.5C 37.6842,94.2771 19.8509,86.2771 9,62.5C 3.96407,43.8185 8.13073,27.6519 21.5,14C 28.1448,9.34516 35.4781,6.34516 43.5,5C 42.2068,4.50999 40.8734,4.34332 39.5,4.5 Z"/></g>
<g><path style="opacity:1" fill="#e6cf2f" d="M 72.5,81.5 C 69.7647,84.2011 66.4314,85.8678 62.5,86.5C 45.8441,90.2927 32.0108,85.2927 21,71.5C 20.3333,70.8333 20.3333,70.1667 21,69.5C 25.1285,74.4978 30.2952,77.4978 36.5,78.5C 58.294,82.8606 72.4606,74.5273 79,53.5C 79.4905,26.826 66.3239,14.1593 39.5,15.5C 32.5294,16.2356 26.6961,19.2356 22,24.5C 21.3076,23.9747 20.8076,23.3081 20.5,22.5C 22.1558,20.6706 24.1558,19.3372 26.5,18.5C 26.2907,17.914 25.9574,17.414 25.5,17C 28.0126,15.3202 30.0126,13.1535 31.5,10.5C 39.2383,7.13674 47.0716,6.47007 55,8.5C 68.4633,10.0018 78.4633,17.3351 85,30.5C 92.2645,50.4405 88.0978,67.4405 72.5,81.5 Z"/></g>
<g><path style="opacity:1" fill="#e3cc2f" d="M 38.5,-0.5 C 41.5,-0.5 44.5,-0.5 47.5,-0.5C 47.8333,0.833333 48.1667,0.833333 48.5,-0.5C 51.1667,-0.5 53.8333,-0.5 56.5,-0.5C 56.4406,1.76451 57.2739,2.09784 59,0.5C 76.5862,5.42446 88.2529,16.4245 94,33.5C 94.7203,35.1124 94.5536,36.6124 93.5,38C 94.0944,38.4643 94.7611,38.631 95.5,38.5C 95.5,41.5 95.5,44.5 95.5,47.5C 94.1667,47.8333 94.1667,48.1667 95.5,48.5C 95.5,51.1667 95.5,53.8333 95.5,56.5C 94.7611,56.369 94.0944,56.5357 93.5,57C 94.8988,60.8037 93.8988,63.8037 90.5,66C 91.1082,69.4525 89.7749,72.1192 86.5,74C 86.3237,77.117 84.6571,79.617 81.5,81.5C 81.1667,80.1667 80.8333,80.1667 80.5,81.5C 79.399,82.7997 78.0657,83.2997 76.5,83C 92.816,67.6995 96.9827,49.5328 89,28.5C 84.1667,18.3333 76.6667,10.8333 66.5,6C 65.2506,5.25988 64.2506,5.42654 63.5,6.5C 55.5283,3.73368 47.5283,3.06702 39.5,4.5C 24.0029,7.9966 13.0029,16.9966 6.5,31.5C 5.5,30.8333 4.5,30.1667 3.5,29.5C 3.76968,25.7871 5.43635,22.9537 8.5,21C 8.04265,20.586 7.70931,20.086 7.5,19.5C 9.36146,18.4717 10.6948,16.9717 11.5,15C 12.5,14.6667 13.5,14.3333 14.5,14C 13.5419,12.8525 13.8753,11.8525 15.5,11C 21.164,6.24471 27.9973,2.74471 36,0.5C 37.7261,2.09784 38.5594,1.76451 38.5,-0.5 Z"/></g>
<g><path style="opacity:1" fill="#dbaf13" d="M 39.5,15.5 C 66.3239,14.1593 79.4905,26.826 79,53.5C 72.4606,74.5273 58.294,82.8606 36.5,78.5C 28.9622,75.1331 23.1289,69.7998 19,62.5C 11.1242,40.2629 17.9575,24.5962 39.5,15.5 Z"/></g>
<g><path style="opacity:1" fill="#e2c72b" d="M 38.5,17.5 C 67.4491,15.6118 79.9491,28.9451 76,57.5C 69.119,74.3092 56.619,80.8092 38.5,77C 19.7682,68.5101 13.6015,54.3434 20,34.5C 23.8112,26.1925 29.9779,20.5259 38.5,17.5 Z"/></g>
<g><path style="opacity:1" fill="#352f34" d="M 52.5,26.5 C 55.4732,27.8103 57.8065,29.8103 59.5,32.5C 59.5,33.8333 59.5,35.1667 59.5,36.5C 57.7376,36.3573 56.0709,36.6906 54.5,37.5C 52.7143,31.9762 49.0477,30.1429 43.5,32C 39.4016,35.6487 39.7349,38.982 44.5,42C 49.3583,43.8904 54.025,46.0571 58.5,48.5C 63.416,56.7603 61.7493,63.427 53.5,68.5C 52.5258,70.7427 52.1924,73.076 52.5,75.5C 49.1667,75.5 45.8333,75.5 42.5,75.5C 42.5,73.1667 42.5,70.8333 42.5,68.5C 37.2479,67.5791 33.9146,64.5791 32.5,59.5C 34.3825,56.1135 36.7159,55.7802 39.5,58.5C 39.8588,60.371 40.8588,61.871 42.5,63C 45.5,63.6667 48.5,63.6667 51.5,63C 52.056,62.6174 52.3893,62.1174 52.5,61.5C 54.4411,59.9894 54.9411,57.9894 54,55.5C 49.2873,51.9217 44.1206,49.0883 38.5,47C 37.3636,45.8549 36.3636,44.6883 35.5,43.5C 33.4601,37.6866 34.4601,32.52 38.5,28C 39.745,27.2086 41.0783,26.7086 42.5,26.5C 43.4614,24.7354 43.7947,22.7354 43.5,20.5C 46.1667,20.5 48.8333,20.5 51.5,20.5C 51.2053,22.7354 51.5386,24.7354 52.5,26.5 Z"/></g>
<g><path style="opacity:1" fill="#67562b" d="M 52.5,26.5 C 51.5386,24.7354 51.2053,22.7354 51.5,20.5C 48.8333,20.5 46.1667,20.5 43.5,20.5C 43.7947,22.7354 43.4614,24.7354 42.5,26.5C 42.5,24.1667 42.5,21.8333 42.5,19.5C 45.8333,19.5 49.1667,19.5 52.5,19.5C 52.5,21.8333 52.5,24.1667 52.5,26.5 Z"/></g>
<g><path style="opacity:1" fill="#debd1e" d="M 39.5,4.5 C 40.8734,4.34332 42.2068,4.50999 43.5,5C 35.4781,6.34516 28.1448,9.34516 21.5,14C 8.13073,27.6519 3.96407,43.8185 9,62.5C 19.8509,86.2771 37.6842,94.2771 62.5,86.5C 66.4314,85.8678 69.7647,84.2011 72.5,81.5C 73.6522,80.375 74.6522,80.375 75.5,81.5C 47.2393,99.059 24.406,93.7257 7,65.5C 2.54284,54.2289 2.37617,42.8955 6.5,31.5C 13.0029,16.9966 24.0029,7.9966 39.5,4.5 Z"/></g>
<g><path style="opacity:1" fill="#e6cf32" d="M 63.5,6.5 C 64.2506,5.42654 65.2506,5.25988 66.5,6C 76.6667,10.8333 84.1667,18.3333 89,28.5C 96.9827,49.5328 92.816,67.6995 76.5,83C 78.0657,83.2997 79.399,82.7997 80.5,81.5C 80.8333,81.5 81.1667,81.5 81.5,81.5C 77.7172,85.5074 73.7172,88.6741 69.5,91C 68.2161,91.6838 67.0495,91.5171 66,90.5C 63.8037,93.8988 60.8037,94.8988 57,93.5C 56.5357,94.0944 56.369,94.7611 56.5,95.5C 53.8333,95.5 51.1667,95.5 48.5,95.5C 48.1667,94.1667 47.8333,94.1667 47.5,95.5C 44.5,95.5 41.5,95.5 38.5,95.5C 38.4173,93.4305 37.4173,93.0972 35.5,94.5C 26.0155,91.4834 18.5155,87.15 13,81.5C 11.3903,79.269 9.55701,77.269 7.5,75.5C 8.6087,74.0353 8.1087,73.0353 6,72.5C 4.32526,70.4088 3.82526,68.2421 4.5,66C 3.58377,65.6258 2.75044,65.1258 2,64.5C 0.881354,61.9429 0.714687,59.4429 1.5,57C 0.905578,56.5357 0.238911,56.369 -0.5,56.5C -0.5,53.8333 -0.5,51.1667 -0.5,48.5C 0.833333,48.1667 0.833333,47.8333 -0.5,47.5C -0.5,44.5 -0.5,41.5 -0.5,38.5C 1.76451,38.5594 2.09784,37.7261 0.5,36C 1.03875,33.5182 2.03875,31.3516 3.5,29.5C 4.5,30.1667 5.5,30.8333 6.5,31.5C 2.37617,42.8955 2.54284,54.2289 7,65.5C 24.406,93.7257 47.2393,99.059 75.5,81.5C 83.3945,75.0574 88.2279,66.724 90,56.5C 92.9887,33.4737 84.1553,16.8071 63.5,6.5 Z"/></g>
<g><path style="opacity:1" fill="#e5df7d" d="M 39.5,58.5 C 44.0786,58.6145 48.4119,59.6145 52.5,61.5C 52.3893,62.1174 52.056,62.6174 51.5,63C 48.5,63.6667 45.5,63.6667 42.5,63C 40.8588,61.871 39.8588,60.371 39.5,58.5 Z"/></g>
<g><path style="opacity:1" fill="#eadc5b" d="M 35.5,43.5 C 36.3636,44.6883 37.3636,45.8549 38.5,47C 44.1206,49.0883 49.2873,51.9217 54,55.5C 54.9411,57.9894 54.4411,59.9894 52.5,61.5C 48.4119,59.6145 44.0786,58.6145 39.5,58.5C 36.7159,55.7802 34.3825,56.1135 32.5,59.5C 31.8614,58.9032 31.528,58.0698 31.5,57C 33.7312,52.8106 35.0646,48.3106 35.5,43.5 Z"/></g>
<g><path style="opacity:1" fill="#e8da6e" d="M 59.5,32.5 C 60.0768,31.2267 60.7435,31.2267 61.5,32.5C 60.6626,37.8682 59.6626,43.2015 58.5,48.5C 54.025,46.0571 49.3583,43.8904 44.5,42C 39.7349,38.982 39.4016,35.6487 43.5,32C 49.0477,30.1429 52.7143,31.9762 54.5,37.5C 56.0709,36.6906 57.7376,36.3573 59.5,36.5C 59.5,35.1667 59.5,33.8333 59.5,32.5 Z"/></g>
</svg>
