<?xml version="1.0" encoding="UTF-8"?>
<!DOCTYPE svg PUBLIC "-//W3C//DTD SVG 1.1//EN" "http://www.w3.org/Graphics/SVG/1.1/DTD/svg11.dtd">
<svg xmlns="http://www.w3.org/2000/svg" version="1.1" width="96px" height="96px" style="shape-rendering:geometricPrecision; text-rendering:geometricPrecision; image-rendering:optimizeQuality; fill-rule:evenodd; clip-rule:evenodd" xmlns:xlink="http://www.w3.org/1999/xlink">
<g><path style="opacity:0.99" fill="#886eeb" d="M 39.5,-0.5 C 40.5,-0.5 41.5,-0.5 42.5,-0.5C 43.2613,0.390917 44.2613,1.05758 45.5,1.5C 45.8333,3.33333 46.1667,5.16667 46.5,7C 46.3996,9.30233 45.733,11.3023 44.5,13C 47.0356,13.1862 49.369,13.6862 51.5,14.5C 45.1989,13.5748 39.5323,14.9081 34.5,18.5C 33.1764,13.7663 33.1764,8.93294 34.5,4C 33.6195,3.2917 32.9528,2.45837 32.5,1.5C 35.0098,1.07332 37.3432,0.406658 39.5,-0.5 Z"/></g>
<g><path style="opacity:0.982" fill="#7965f0" d="M 42.5,-0.5 C 46.8333,-0.5 51.1667,-0.5 55.5,-0.5C 59.4778,0.603675 63.4778,1.93701 67.5,3.5C 66.7092,9.41932 66.2092,15.4193 66,21.5C 64.5,20 63,18.5 61.5,17C 60.5632,16.3083 59.8966,16.475 59.5,17.5C 56.9933,16.1084 54.3267,15.1084 51.5,14.5C 49.369,13.6862 47.0356,13.1862 44.5,13C 45.733,11.3023 46.3996,9.30233 46.5,7C 46.1667,5.16667 45.8333,3.33333 45.5,1.5C 44.2613,1.05758 43.2613,0.390917 42.5,-0.5 Z"/></g>
<g><path style="opacity:0.993" fill="#6c5ff6" d="M 67.5,3.5 C 69.8816,4.3507 71.8816,5.68403 73.5,7.5C 73.9443,9.11318 74.9443,10.2798 76.5,11C 75.6834,18.7543 75.1834,26.5876 75,34.5C 73.6667,35.8333 72.3333,37.1667 71,38.5C 70.5115,34.1672 69.3448,30.1672 67.5,26.5C 65.5381,22.9361 62.8715,19.9361 59.5,17.5C 59.8966,16.475 60.5632,16.3083 61.5,17C 63,18.5 64.5,20 66,21.5C 66.2092,15.4193 66.7092,9.41932 67.5,3.5 Z"/></g>
<g><path style="opacity:0.993" fill="#9c78e3" d="M 32.5,1.5 C 32.9528,2.45837 33.6195,3.2917 34.5,4C 33.1764,8.93294 33.1764,13.7663 34.5,18.5C 27.9962,24.6983 25.6628,32.365 27.5,41.5C 26.6773,38.023 26.1773,34.3563 26,30.5C 25.7515,33.9194 25.2515,37.2527 24.5,40.5C 22.5372,39.0401 20.7038,37.3734 19,35.5C 18.6667,35.8333 18.3333,36.1667 18,36.5C 17.5001,48.8288 17.3335,61.1622 17.5,73.5C 17.5,73.8333 17.5,74.1667 17.5,74.5C 18.9187,75.4511 20.5853,75.7845 22.5,75.5C 22.665,78.8499 22.4983,82.1832 22,85.5C 21.7216,86.4158 21.2216,87.0825 20.5,87.5C 17.2157,85.883 14.5491,83.5497 12.5,80.5C 14.6281,79.7195 14.7947,78.7195 13,77.5C 12.8215,57.0937 12.3215,36.7604 11.5,16.5C 16.8049,9.32804 23.8049,4.32804 32.5,1.5 Z"/></g>
<g><path style="opacity:1" fill="#f4f2fd" d="M 51.5,14.5 C 54.3267,15.1084 56.9933,16.1084 59.5,17.5C 62.8715,19.9361 65.5381,22.9361 67.5,26.5C 68.5095,31.7961 68.6761,37.1294 68,42.5C 66.9609,43.7101 65.7942,44.7101 64.5,45.5C 66.6984,35.3041 64.0317,26.8041 56.5,20C 51.5715,18.5822 46.5715,18.2489 41.5,19C 38.4048,19.9354 36.0714,21.7687 34.5,24.5C 32.7073,26.4261 31.7073,28.7594 31.5,31.5C 30.8333,35.8333 30.1667,40.1667 29.5,44.5C 28.8333,43.5 28.1667,42.5 27.5,41.5C 25.6628,32.365 27.9962,24.6983 34.5,18.5C 39.5323,14.9081 45.1989,13.5748 51.5,14.5 Z"/></g>
<g><path style="opacity:0.988" fill="#615afa" d="M 73.5,7.5 C 79.0515,10.2126 83.5515,14.2126 87,19.5C 90.9189,25.4528 93.7523,31.7862 95.5,38.5C 95.5,44.5 95.5,50.5 95.5,56.5C 92.8195,67.6809 87.1528,77.1809 78.5,85C 77.9056,85.4643 77.2389,85.631 76.5,85.5C 75.5206,82.3752 75.1872,79.0419 75.5,75.5C 71.6286,75.815 67.9619,75.4816 64.5,74.5C 69.0323,74.8182 73.3656,74.4849 77.5,73.5C 77.8324,60.8158 77.4991,48.1492 76.5,35.5C 72.1727,40.4939 67.5061,45.1606 62.5,49.5C 62.7329,47.9382 63.3995,46.6049 64.5,45.5C 65.7942,44.7101 66.9609,43.7101 68,42.5C 68.6761,37.1294 68.5095,31.7961 67.5,26.5C 69.3448,30.1672 70.5115,34.1672 71,38.5C 72.3333,37.1667 73.6667,35.8333 75,34.5C 75.1834,26.5876 75.6834,18.7543 76.5,11C 74.9443,10.2798 73.9443,9.11318 73.5,7.5 Z"/></g>
<g><path style="opacity:1" fill="#7e67ee" d="M 64.5,45.5 C 63.3995,46.6049 62.7329,47.9382 62.5,49.5C 60.7801,52.7311 58.4468,55.5644 55.5,58C 50.4858,57.3573 45.4858,57.524 40.5,58.5C 42.1086,57.2291 43.9419,56.2291 46,55.5C 46.6667,50.5 46.6667,45.5 46,40.5C 44.5341,42.3249 42.7008,42.8249 40.5,42C 41.7375,41.7679 42.7375,41.2679 43.5,40.5C 46.3625,37.6026 45.8625,35.2692 42,33.5C 40.699,33.6387 39.8656,34.3054 39.5,35.5C 38.3552,34.2073 38.6885,33.0407 40.5,32C 39.8702,28.8708 39.2036,25.7041 38.5,22.5C 37.1861,23.3128 36.0195,24.3128 35,25.5C 34.6012,25.2716 34.4346,24.9382 34.5,24.5C 36.0714,21.7687 38.4048,19.9354 41.5,19C 46.5715,18.2489 51.5715,18.5822 56.5,20C 64.0317,26.8041 66.6984,35.3041 64.5,45.5 Z"/></g>
<g><path style="opacity:1" fill="#a77dde" d="M 11.5,16.5 C 12.3215,36.7604 12.8215,57.0937 13,77.5C 14.7947,78.7195 14.6281,79.7195 12.5,80.5C 6.06498,73.6294 1.73165,65.6294 -0.5,56.5C -0.5,50.5 -0.5,44.5 -0.5,38.5C 1.14836,33.0775 3.31502,27.7441 6,22.5C 7.33105,20.0038 9.16438,18.0038 11.5,16.5 Z"/></g>
<g><path style="opacity:1" fill="#8b6fe9" d="M 39.5,35.5 C 38.7564,38.9496 40.0897,40.6162 43.5,40.5C 42.7375,41.2679 41.7375,41.7679 40.5,42C 42.7008,42.8249 44.5341,42.3249 46,40.5C 46.6667,45.5 46.6667,50.5 46,55.5C 43.9419,56.2291 42.1086,57.2291 40.5,58.5C 34.8241,52.823 29.4908,46.823 24.5,40.5C 25.2515,37.2527 25.7515,33.9194 26,30.5C 26.1773,34.3563 26.6773,38.023 27.5,41.5C 28.1667,42.5 28.8333,43.5 29.5,44.5C 29.56,45.0431 29.8933,45.3764 30.5,45.5C 31.4933,40.8804 31.8266,36.2137 31.5,31.5C 31.7073,28.7594 32.7073,26.4261 34.5,24.5C 34.4346,24.9382 34.6012,25.2716 35,25.5C 36.0195,24.3128 37.1861,23.3128 38.5,22.5C 39.2036,25.7041 39.8702,28.8708 40.5,32C 38.6885,33.0407 38.3552,34.2073 39.5,35.5 Z"/></g>
<g><path style="opacity:1" fill="#bca8f0" d="M 31.5,31.5 C 31.8266,36.2137 31.4933,40.8804 30.5,45.5C 29.8933,45.3764 29.56,45.0431 29.5,44.5C 30.1667,40.1667 30.8333,35.8333 31.5,31.5 Z"/></g>
<g><path style="opacity:1" fill="#f7f5fd" d="M 43.5,40.5 C 40.0897,40.6162 38.7564,38.9496 39.5,35.5C 39.8656,34.3054 40.699,33.6387 42,33.5C 45.8625,35.2692 46.3625,37.6026 43.5,40.5 Z"/></g>
<g><path style="opacity:1" fill="#e2dcfc" d="M 54.5,33.5 C 55.3764,33.3691 56.0431,33.7025 56.5,34.5C 53.9557,36.3918 53.9557,38.2252 56.5,40C 54.0638,40.4363 52.0638,39.603 50.5,37.5C 51.8665,36.16 53.1999,34.8267 54.5,33.5 Z"/></g>
<g><path style="opacity:1" fill="#f9f8fe" d="M 24.5,40.5 C 29.4908,46.823 34.8241,52.823 40.5,58.5C 45.4858,57.524 50.4858,57.3573 55.5,58C 58.4468,55.5644 60.7801,52.7311 62.5,49.5C 67.5061,45.1606 72.1727,40.4939 76.5,35.5C 77.4991,48.1492 77.8324,60.8158 77.5,73.5C 73.1667,73.5 68.8333,73.5 64.5,73.5C 64.2114,67.4093 64.5447,61.4093 65.5,55.5C 66.1217,54.3734 66.955,53.3734 68,52.5C 68.4995,58.4908 68.6662,64.4908 68.5,70.5C 69.5,70.5 70.5,70.5 71.5,70.5C 72.8204,62.6572 72.8204,54.6572 71.5,46.5C 70.8933,46.6236 70.56,46.9569 70.5,47.5C 68.5,49.8333 66.5,52.1667 64.5,54.5C 61.7949,58.2054 58.4616,61.2054 54.5,63.5C 52.3211,62.0744 49.8211,61.4078 47,61.5C 43.9268,61.4805 41.0935,62.1472 38.5,63.5C 33.8565,57.8525 29.1899,52.1858 24.5,46.5C 24.44,45.9569 24.1067,45.6236 23.5,45.5C 22.1791,53.9909 22.1791,62.3242 23.5,70.5C 24.5,70.5 25.5,70.5 26.5,70.5C 26.3338,64.4908 26.5005,58.4908 27,52.5C 28.3756,53.7051 29.5423,55.0384 30.5,56.5C 30.5,62.1667 30.5,67.8333 30.5,73.5C 26.1667,73.5 21.8333,73.5 17.5,73.5C 17.3335,61.1622 17.5001,48.8288 18,36.5C 18.3333,36.1667 18.6667,35.8333 19,35.5C 20.7038,37.3734 22.5372,39.0401 24.5,40.5 Z"/></g>
<g><path style="opacity:1" fill="#d9cdf5" d="M 24.5,46.5 C 23.5076,54.3159 23.1743,62.3159 23.5,70.5C 22.1791,62.3242 22.1791,53.9909 23.5,45.5C 24.1067,45.6236 24.44,45.9569 24.5,46.5 Z"/></g>
<g><path style="opacity:1" fill="#9389f7" d="M 70.5,47.5 C 70.56,46.9569 70.8933,46.6236 71.5,46.5C 72.8204,54.6572 72.8204,62.6572 71.5,70.5C 71.8254,62.6484 71.492,54.9818 70.5,47.5 Z"/></g>
<g><path style="opacity:1" fill="#6757f5" d="M 70.5,47.5 C 71.492,54.9818 71.8254,62.6484 71.5,70.5C 70.5,70.5 69.5,70.5 68.5,70.5C 68.6662,64.4908 68.4995,58.4908 68,52.5C 66.955,53.3734 66.1217,54.3734 65.5,55.5C 64.8333,55.5 64.5,55.1667 64.5,54.5C 66.5,52.1667 68.5,49.8333 70.5,47.5 Z"/></g>
<g><path style="opacity:1" fill="#7966f1" d="M 64.5,54.5 C 64.5,55.1667 64.8333,55.5 65.5,55.5C 64.5447,61.4093 64.2114,67.4093 64.5,73.5C 68.8333,73.5 73.1667,73.5 77.5,73.5C 73.3656,74.4849 69.0323,74.8182 64.5,74.5C 63.8826,74.6107 63.3826,74.944 63,75.5C 62.7476,81.5484 62.2476,87.5484 61.5,93.5C 60.1667,94.1667 58.8333,94.8333 57.5,95.5C 56.1667,95.5 54.8333,95.5 53.5,95.5C 53.1722,84.6536 53.5056,73.9869 54.5,63.5C 58.4616,61.2054 61.7949,58.2054 64.5,54.5 Z"/></g>
<g><path style="opacity:1" fill="#8e6fe7" d="M 24.5,46.5 C 29.1899,52.1858 33.8565,57.8525 38.5,63.5C 38.8209,73.8463 39.8209,84.013 41.5,94C 40.5842,94.2784 39.9175,94.7784 39.5,95.5C 38.8333,95.5 38.1667,95.5 37.5,95.5C 31.4814,93.6582 25.8148,90.9916 20.5,87.5C 21.2216,87.0825 21.7216,86.4158 22,85.5C 22.4983,82.1832 22.665,78.8499 22.5,75.5C 20.5853,75.7845 18.9187,75.4511 17.5,74.5C 22.1667,74.5 26.8333,74.5 31.5,74.5C 31.8229,68.31 31.4896,62.31 30.5,56.5C 29.5423,55.0384 28.3756,53.7051 27,52.5C 26.5005,58.4908 26.3338,64.4908 26.5,70.5C 25.5,70.5 24.5,70.5 23.5,70.5C 23.1743,62.3159 23.5076,54.3159 24.5,46.5 Z"/></g>
<g><path style="opacity:0.996" fill="#816aed" d="M 54.5,63.5 C 53.5056,73.9869 53.1722,84.6536 53.5,95.5C 48.8333,95.5 44.1667,95.5 39.5,95.5C 39.9175,94.7784 40.5842,94.2784 41.5,94C 39.8209,84.013 38.8209,73.8463 38.5,63.5C 41.0935,62.1472 43.9268,61.4805 47,61.5C 49.8211,61.4078 52.3211,62.0744 54.5,63.5 Z"/></g>
<g><path style="opacity:1" fill="#c1adef" d="M 30.5,56.5 C 31.4896,62.31 31.8229,68.31 31.5,74.5C 26.8333,74.5 22.1667,74.5 17.5,74.5C 17.5,74.1667 17.5,73.8333 17.5,73.5C 21.8333,73.5 26.1667,73.5 30.5,73.5C 30.5,67.8333 30.5,62.1667 30.5,56.5 Z"/></g>
<g><path style="opacity:0.989" fill="#6e60f5" d="M 64.5,74.5 C 67.9619,75.4816 71.6286,75.815 75.5,75.5C 75.1872,79.0419 75.5206,82.3752 76.5,85.5C 72.2597,89.4554 67.2597,92.122 61.5,93.5C 62.2476,87.5484 62.7476,81.5484 63,75.5C 63.3826,74.944 63.8826,74.6107 64.5,74.5 Z"/></g>
</svg>
