<?xml version="1.0" encoding="UTF-8"?>
<!DOCTYPE svg PUBLIC "-//W3C//DTD SVG 1.1//EN" "http://www.w3.org/Graphics/SVG/1.1/DTD/svg11.dtd">
<svg xmlns="http://www.w3.org/2000/svg" version="1.1" width="96px" height="96px" style="shape-rendering:geometricPrecision; text-rendering:geometricPrecision; image-rendering:optimizeQuality; fill-rule:evenodd; clip-rule:evenodd" xmlns:xlink="http://www.w3.org/1999/xlink">
<g><path style="opacity:0.999" fill="#292a29" d="M -0.5,-0.5 C 31.5,-0.5 63.5,-0.5 95.5,-0.5C 95.5,31.5 95.5,63.5 95.5,95.5C 63.5,95.5 31.5,95.5 -0.5,95.5C -0.5,63.5 -0.5,31.5 -0.5,-0.5 Z"/></g>
<g><path style="opacity:1" fill="#fbc822" d="M 42.5,12.5 C 43.0431,12.56 43.3764,12.8933 43.5,13.5C 40.3135,24.588 36.9801,35.588 33.5,46.5C 32.8614,45.9032 32.528,45.0698 32.5,44C 33.8809,35.1105 36.5476,26.6105 40.5,18.5C 40.3764,17.8933 40.0431,17.56 39.5,17.5C 40.2485,15.6675 41.2485,14.0009 42.5,12.5 Z"/></g>
<g><path style="opacity:1" fill="#ed4844" d="M 51.5,13.5 C 54.139,16.2985 54.9723,19.6319 54,23.5C 50.8212,29.1939 47.6546,34.8606 44.5,40.5C 45.6911,31.409 48.0244,22.409 51.5,13.5 Z"/></g>
<g><path style="opacity:1" fill="#f7eb05" d="M 39.5,17.5 C 40.0431,17.56 40.3764,17.8933 40.5,18.5C 36.5476,26.6105 33.8809,35.1105 32.5,44C 32.528,45.0698 32.8614,45.9032 33.5,46.5C 33.1583,47.3382 32.4916,47.6716 31.5,47.5C 26.4407,47.6136 24.6074,45.2803 26,40.5C 30.5116,32.8058 35.0116,25.1391 39.5,17.5 Z"/></g>
<g><path style="opacity:1" fill="#f6aa33" d="M 47.5,7.5 C 41.9645,20.9736 38.2979,34.9736 36.5,49.5C 34.597,49.2041 32.9303,48.5375 31.5,47.5C 32.4916,47.6716 33.1583,47.3382 33.5,46.5C 36.9801,35.588 40.3135,24.588 43.5,13.5C 43.3764,12.8933 43.0431,12.56 42.5,12.5C 43.1894,9.81057 44.856,8.1439 47.5,7.5 Z"/></g>
<g><path style="opacity:1" fill="#f37e3f" d="M 47.5,7.5 C 49.316,9.11843 50.6493,11.1184 51.5,13.5C 48.0244,22.409 45.6911,31.409 44.5,40.5C 42.7587,42.9774 41.2587,45.6441 40,48.5C 38.9887,49.3366 37.8221,49.67 36.5,49.5C 38.2979,34.9736 41.9645,20.9736 47.5,7.5 Z"/></g>
<g><path style="opacity:1" fill="#ebcf20" d="M 61.5,30.5 C 56.3951,37.7074 52.0618,45.3741 48.5,53.5C 46.9719,53.4827 46.4719,52.816 47,51.5C 50.9192,45.3303 54.5859,38.9969 58,32.5C 58.8159,31.1772 59.9826,30.5106 61.5,30.5 Z"/></g>
<g><path style="opacity:1" fill="#f79a39" d="M 61.5,30.5 C 62.9744,31.4363 63.9744,32.7697 64.5,34.5C 63.3322,38.5006 61.4989,42.1673 59,45.5C 58.51,46.7932 58.3433,48.1266 58.5,49.5C 55.087,50.6376 51.7536,51.9709 48.5,53.5C 52.0618,45.3741 56.3951,37.7074 61.5,30.5 Z"/></g>
<g><path style="opacity:1" fill="#f05543" d="M 64.5,34.5 C 67.6543,37.4884 69.1543,41.155 69,45.5C 65.5272,46.9349 62.0272,48.2682 58.5,49.5C 58.3433,48.1266 58.51,46.7932 59,45.5C 61.4989,42.1673 63.3322,38.5006 64.5,34.5 Z"/></g>
<g><path style="opacity:1" fill="#ee923b" d="M 33.5,54.5 C 32.0762,56.5145 31.4095,58.8478 31.5,61.5C 29.2753,58.7376 27.2753,55.7376 25.5,52.5C 28.4721,51.7088 31.1388,52.3754 33.5,54.5 Z"/></g>
<g><path style="opacity:1" fill="#ef5443" d="M 33.5,54.5 C 36.0606,54.4469 38.0606,55.4469 39.5,57.5C 38.5428,59.9176 37.2095,62.0843 35.5,64C 33.0551,64.9098 31.7218,64.0764 31.5,61.5C 31.4095,58.8478 32.0762,56.5145 33.5,54.5 Z"/></g>
<g><path style="opacity:1" fill="#f6963a" d="M 55.5,56.5 C 56.2389,56.369 56.9056,56.5357 57.5,57C 54.8041,62.2064 51.4708,67.0398 47.5,71.5C 46.7298,75.1616 45.3965,78.495 43.5,81.5C 43.1667,80.8333 42.8333,80.1667 42.5,79.5C 42.3433,78.1266 42.51,76.7932 43,75.5C 45.6369,69.9408 48.4702,64.4408 51.5,59C 51.2716,58.6012 50.9382,58.4346 50.5,58.5C 51.9303,57.4625 53.597,56.7959 55.5,56.5 Z"/></g>
<g><path style="opacity:1" fill="#f4b430" d="M 50.5,58.5 C 50.9382,58.4346 51.2716,58.6012 51.5,59C 48.4702,64.4408 45.6369,69.9408 43,75.5C 42.51,76.7932 42.3433,78.1266 42.5,79.5C 40.0003,77.8113 39.1669,75.478 40,72.5C 42.3333,68.5 44.6667,64.5 47,60.5C 47.8159,59.1772 48.9826,58.5106 50.5,58.5 Z"/></g>
<g><path style="opacity:1" fill="#ed4e43" d="M 47.5,87.5 C 53.6586,76.5689 58.992,65.2355 63.5,53.5C 65.3835,51.864 67.3835,51.5307 69.5,52.5C 63.3333,63.5 57.1667,74.5 51,85.5C 50.1841,86.8228 49.0174,87.4894 47.5,87.5 Z"/></g>
<g><path style="opacity:1" fill="#f06941" d="M 63.5,53.5 C 58.992,65.2355 53.6586,76.5689 47.5,87.5C 45.684,85.8816 44.3507,83.8816 43.5,81.5C 45.3965,78.495 46.7298,75.1616 47.5,71.5C 51.4708,67.0398 54.8041,62.2064 57.5,57C 56.9056,56.5357 56.2389,56.369 55.5,56.5C 57.936,55.129 60.6027,54.129 63.5,53.5 Z"/></g>
</svg>
