<?xml version="1.0" encoding="UTF-8"?>
<!DOCTYPE svg PUBLIC "-//W3C//DTD SVG 1.1//EN" "http://www.w3.org/Graphics/SVG/1.1/DTD/svg11.dtd">
<svg xmlns="http://www.w3.org/2000/svg" version="1.1" width="96px" height="96px" style="shape-rendering:geometricPrecision; text-rendering:geometricPrecision; image-rendering:optimizeQuality; fill-rule:evenodd; clip-rule:evenodd" xmlns:xlink="http://www.w3.org/1999/xlink">
<g><path style="opacity:0.973" fill="#08b3ed" d="M 37.5,-0.5 C 44.1667,-0.5 50.8333,-0.5 57.5,-0.5C 77.1667,5.16667 89.8333,17.8333 95.5,37.5C 95.5,44.1667 95.5,50.8333 95.5,57.5C 89.8333,77.1667 77.1667,89.8333 57.5,95.5C 50.8333,95.5 44.1667,95.5 37.5,95.5C 17.8333,89.8333 5.16667,77.1667 -0.5,57.5C -0.5,50.8333 -0.5,44.1667 -0.5,37.5C 5.16667,17.8333 17.8333,5.16667 37.5,-0.5 Z"/></g>
<g><path style="opacity:1" fill="#fafdfe" d="M 46.5,11.5 C 48.371,11.8588 49.871,12.8588 51,14.5C 53.6667,19.1667 56.3333,23.8333 59,28.5C 59.5976,32.0527 58.9309,35.386 57,38.5C 56.2825,39.4506 55.4491,39.6172 54.5,39C 50.6841,35.119 49.6841,30.619 51.5,25.5C 50.21,24.5923 48.8767,24.759 47.5,26C 41.0114,32.9552 40.8448,40.1218 47,47.5C 49.1651,55.3209 46.3318,58.8209 38.5,58C 36.2256,55.6557 35.0589,52.8224 35,49.5C 30.184,56.8227 30.3507,63.9894 35.5,71C 28.9427,72.5863 22.276,72.9196 15.5,72C 13.1689,69.2098 13.3355,66.3765 16,63.5C 25.926,45.9747 36.0927,28.6414 46.5,11.5 Z"/></g>
<g><path style="opacity:1" fill="#f8fcfe" d="M 66.5,46.5 C 68.371,46.8588 69.871,47.8588 71,49.5C 74.6345,55.9362 78.1345,62.4362 81.5,69C 81.2409,70.2613 80.5742,71.2613 79.5,72C 73.5,72.6667 67.5,72.6667 61.5,72C 68.2345,65.1255 69.2345,57.4588 64.5,49C 65.0556,47.9889 65.7222,47.1556 66.5,46.5 Z"/></g>
<g><path style="opacity:1" fill="#f0f9fd" d="M 56.5,61.5 C 59.0962,65.0329 59.0962,68.6996 56.5,72.5C 54.7094,72.0381 53.7094,70.8715 53.5,69C 54.6257,66.5773 55.6257,64.0773 56.5,61.5 Z"/></g>
</svg>
