<?xml version="1.0" encoding="UTF-8"?>
<!DOCTYPE svg PUBLIC "-//W3C//DTD SVG 1.1//EN" "http://www.w3.org/Graphics/SVG/1.1/DTD/svg11.dtd">
<svg xmlns="http://www.w3.org/2000/svg" version="1.1" width="96px" height="96px" style="shape-rendering:geometricPrecision; text-rendering:geometricPrecision; image-rendering:optimizeQuality; fill-rule:evenodd; clip-rule:evenodd" xmlns:xlink="http://www.w3.org/1999/xlink">
<g><path style="opacity:0.964" fill="#020503" d="M 38.5,0.5 C 67.2473,-1.55934 85.7473,11.1073 94,38.5C 96.6101,67.2213 84.1101,85.7213 56.5,94C 27.7289,96.5445 9.22885,84.0445 1,56.5C -1.4046,27.7548 11.0954,9.08811 38.5,0.5 Z"/></g>
<g><path style="opacity:1" fill="#80feb3" d="M 54.5,25.5 C 52.7059,27.7966 50.7059,29.9633 48.5,32C 38.5056,32.4998 28.5056,32.6665 18.5,32.5C 22.6299,27.8688 26.9633,23.3688 31.5,19C 40.8333,18.3333 50.1667,18.3333 59.5,19C 57.2101,20.7772 55.5434,22.9438 54.5,25.5 Z"/></g>
<g><path style="opacity:1" fill="#86edbb" d="M 54.5,25.5 C 55.5434,22.9438 57.2101,20.7772 59.5,19C 50.1667,18.3333 40.8333,18.3333 31.5,19C 26.9633,23.3688 22.6299,27.8688 18.5,32.5C 17.7611,32.631 17.0944,32.4643 16.5,32C 21.1667,27.3333 25.8333,22.6667 30.5,18C 41.1667,17.3333 51.8333,17.3333 62.5,18C 59.9638,20.705 57.2971,23.205 54.5,25.5 Z"/></g>
<g><path style="opacity:1" fill="#81f9b4" d="M 16.5,36.5 C 25.6575,35.3424 34.9908,35.1757 44.5,36C 39.9852,40.6819 35.3185,45.1819 30.5,49.5C 25.8131,45.1449 21.1464,40.8115 16.5,36.5 Z"/></g>
<g><path style="opacity:1" fill="#8cfbc4" d="M 65.5,18.5 C 69.4023,20.8926 72.9023,23.8926 76,27.5C 76.6667,28.1667 76.6667,28.8333 76,29.5C 60.5,45 45,60.5 29.5,76C 28.8333,76.6667 28.1667,76.6667 27.5,76C 24.6667,73.1667 21.8333,70.3333 19,67.5C 18.3333,66.8333 18.3333,66.1667 19,65.5C 34.7018,49.9652 50.2018,34.2986 65.5,18.5 Z"/></g>
<g><path style="opacity:1" fill="#7fffb2" d="M 65.5,20.5 C 68.7311,22.2199 71.5644,24.5532 74,27.5C 74.6667,28.1667 74.6667,28.8333 74,29.5C 59.1667,44.3333 44.3333,59.1667 29.5,74C 26.224,72.7635 23.3906,70.5968 21,67.5C 20.3333,66.8333 20.3333,66.1667 21,65.5C 36.0352,50.6319 50.8685,35.6319 65.5,20.5 Z"/></g>
<g><path style="opacity:1" fill="#85ebba" d="M 76.5,59.5 C 72.8544,55.1877 68.8544,51.1877 64.5,47.5C 60.1456,51.1877 56.1456,55.1877 52.5,59.5C 51.7611,59.631 51.0944,59.4643 50.5,59C 55.0148,54.3181 59.6815,49.8181 64.5,45.5C 69.3185,49.8181 73.9852,54.3181 78.5,59C 77.9056,59.4643 77.2389,59.631 76.5,59.5 Z"/></g>
<g><path style="opacity:1" fill="#7ffcb2" d="M 76.5,59.5 C 68.5,59.5 60.5,59.5 52.5,59.5C 56.1456,55.1877 60.1456,51.1877 64.5,47.5C 68.8544,51.1877 72.8544,55.1877 76.5,59.5 Z"/></g>
<g><path style="opacity:1" fill="#81fcb5" d="M 46.5,62.5 C 57.1719,62.3335 67.8385,62.5002 78.5,63C 73.8333,67.6667 69.1667,72.3333 64.5,77C 53.8333,77.6667 43.1667,77.6667 32.5,77C 37.3699,72.2979 42.0366,67.4646 46.5,62.5 Z"/></g>
</svg>
