<?xml version="1.0" encoding="UTF-8"?>
<!DOCTYPE svg PUBLIC "-//W3C//DTD SVG 1.1//EN" "http://www.w3.org/Graphics/SVG/1.1/DTD/svg11.dtd">
<svg xmlns="http://www.w3.org/2000/svg" version="1.1" width="96px" height="96px" style="shape-rendering:geometricPrecision; text-rendering:geometricPrecision; image-rendering:optimizeQuality; fill-rule:evenodd; clip-rule:evenodd" xmlns:xlink="http://www.w3.org/1999/xlink">
<g><path style="opacity:1" fill="#25b968" d="M 68.5,58.5 C 67.8333,58.5 67.5,58.8333 67.5,59.5C 66.1667,59.8333 66.1667,60.1667 67.5,60.5C 70.5,60.5 73.5,60.5 76.5,60.5C 82.5346,60.592 88.2013,62.092 93.5,65C 94.0219,65.5613 94.3552,66.228 94.5,67C 90.1744,70.4887 85.1744,72.322 79.5,72.5C 75.1539,72.3343 70.8206,72.501 66.5,73C 67.0442,73.7172 67.7109,74.2172 68.5,74.5C 72.1667,76.1667 74.8333,78.8333 76.5,82.5C 75.4479,84.256 73.7812,84.9227 71.5,84.5C 62.5201,83.8315 55.5201,79.8315 50.5,72.5C 50.6716,71.5084 50.3382,70.8417 49.5,70.5C 48.5,69.1667 47.5,69.1667 46.5,70.5C 45.8333,70.5 45.5,70.8333 45.5,71.5C 44.8333,71.5 44.5,71.8333 44.5,72.5C 39.7803,79.5351 33.1136,83.5351 24.5,84.5C 22.4727,84.6621 20.4727,84.4955 18.5,84C 19.8228,83.1841 20.4894,82.0174 20.5,80.5C 22.1667,78.1667 24.1667,76.1667 26.5,74.5C 28.1958,74.3146 29.5291,73.4813 30.5,72C 22.0587,71.9029 13.7254,71.0696 5.5,69.5C 2.51594,69.2132 1.18261,67.5465 1.5,64.5C 6.67188,62.5545 12.0052,61.2211 17.5,60.5C 21.226,60.8226 24.8927,60.4892 28.5,59.5C 28.3764,58.8933 28.0431,58.56 27.5,58.5C 17.9473,52.5998 11.2806,44.2664 7.5,33.5C 7.5,32.1667 7.5,30.8333 7.5,29.5C 8.83333,29.5 10.1667,29.5 11.5,29.5C 22.1471,32.1557 30.8138,37.8224 37.5,46.5C 38.9416,49.1997 39.6083,48.8664 39.5,45.5C 38.627,39.1979 38.2936,32.8646 38.5,26.5C 39.2429,17.7566 42.4095,10.0899 48,3.5C 52.5246,9.05485 55.5246,15.3882 57,22.5C 58.5841,30.4966 58.9175,38.4966 58,46.5C 65.0251,38.0614 73.8584,32.228 84.5,29C 88.1114,27.7458 89.6114,28.9124 89,32.5C 85.2569,43.6778 78.4236,52.3445 68.5,58.5 Z"/></g>
<g><path style="opacity:0.506" fill="#6fa189" d="M 11.5,29.5 C 10.1667,29.5 8.83333,29.5 7.5,29.5C 7.5,30.8333 7.5,32.1667 7.5,33.5C 6.54885,32.0813 6.21552,30.4147 6.5,28.5C 8.41467,28.2155 10.0813,28.5489 11.5,29.5 Z"/></g>
<g><path style="opacity:0.565" fill="#559974" d="M 38.5,26.5 C 38.2936,32.8646 38.627,39.1979 39.5,45.5C 39.6083,48.8664 38.9416,49.1997 37.5,46.5C 37.2539,39.8967 37.5872,33.23 38.5,26.5 Z"/></g>
<g><path style="opacity:0.38" fill="#517d66" d="M 27.5,58.5 C 28.0431,58.56 28.3764,58.8933 28.5,59.5C 24.8927,60.4892 21.226,60.8226 17.5,60.5C 20.8333,59.8333 24.1667,59.1667 27.5,58.5 Z"/></g>
<g><path style="opacity:0.173" fill="#8aa497" d="M 68.5,58.5 C 71.1667,59.1667 73.8333,59.8333 76.5,60.5C 73.5,60.5 70.5,60.5 67.5,60.5C 67.5,60.1667 67.5,59.8333 67.5,59.5C 67.5,58.8333 67.8333,58.5 68.5,58.5 Z"/></g>
<g><path style="opacity:0.937" fill="#59b383" d="M 5.5,69.5 C 13.7254,71.0696 22.0587,71.9029 30.5,72C 29.5291,73.4813 28.1958,74.3146 26.5,74.5C 27.463,73.6365 27.463,72.9698 26.5,72.5C 19.1288,73.6375 12.1288,72.6375 5.5,69.5 Z"/></g>
<g><path style="opacity:1" fill="#2fd77b" d="M 46.5,70.5 C 47.1667,70.5 47.8333,70.5 48.5,70.5C 49.1098,71.391 49.4431,72.391 49.5,73.5C 47.8212,73.7148 46.8212,73.0481 46.5,71.5C 46.5,71.1667 46.5,70.8333 46.5,70.5 Z"/></g>
<g><path style="opacity:0.129" fill="#405048" d="M 48.5,70.5 C 48.8333,70.5 49.1667,70.5 49.5,70.5C 50.3382,70.8417 50.6716,71.5084 50.5,72.5C 50.5,73.1667 50.1667,73.5 49.5,73.5C 49.4431,72.391 49.1098,71.391 48.5,70.5 Z"/></g>
<g><path style="opacity:0.618" fill="#4c926d" d="M 79.5,72.5 C 75.8333,73.1667 72.1667,73.8333 68.5,74.5C 67.7109,74.2172 67.0442,73.7172 66.5,73C 70.8206,72.501 75.1539,72.3343 79.5,72.5 Z"/></g>
<g><path style="opacity:0.004" fill="#000000" d="M 85.5,72.5 C 86.8333,73.1667 86.8333,73.1667 85.5,72.5 Z"/></g>
<g><path style="opacity:0.941" fill="#4fa272" d="M 44.5,72.5 C 44.5,71.8333 44.8333,71.5 45.5,71.5C 45.8333,71.5 46.1667,71.5 46.5,71.5C 46.8212,73.0481 47.8212,73.7148 49.5,73.5C 49.6917,76.6899 49.6917,79.6899 49.5,82.5C 48.5,79.8333 47.5,79.8333 46.5,82.5C 46.4023,80.1179 46.4023,77.6179 46.5,75C 45.9341,74.0053 45.2674,73.172 44.5,72.5 Z"/></g>
<g><path style="opacity:0.933" fill="#73b793" d="M 20.5,80.5 C 20.4894,82.0174 19.8228,83.1841 18.5,84C 20.4727,84.4955 22.4727,84.6621 24.5,84.5C 22.3926,85.4682 20.0593,85.8016 17.5,85.5C 17.2729,83.0672 18.2729,81.4006 20.5,80.5 Z"/></g>
<g><path style="opacity:1" fill="#3ab36c" d="M 49.5,82.5 C 50.3543,84.035 50.3543,85.3684 49.5,86.5C 48.325,86.719 47.325,86.3857 46.5,85.5C 47.6527,84.3132 47.6527,83.3132 46.5,82.5C 47.5,79.8333 48.5,79.8333 49.5,82.5 Z"/></g>
<g><path style="opacity:0.004" fill="#000000" d="M 32.5,83.5 C 33.8333,84.1667 33.8333,84.1667 32.5,83.5 Z"/></g>
<g><path style="opacity:0.114" fill="#8eceae" d="M 76.5,82.5 C 77.404,83.209 77.7373,84.209 77.5,85.5C 75.2646,85.7947 73.2646,85.4614 71.5,84.5C 73.7812,84.9227 75.4479,84.256 76.5,82.5 Z"/></g>
<g><path style="opacity:0.553" fill="#478868" d="M 46.5,82.5 C 47.6527,83.3132 47.6527,84.3132 46.5,85.5C 47.325,86.3857 48.325,86.719 49.5,86.5C 48.4324,87.4345 47.099,87.7678 45.5,87.5C 45.366,85.7085 45.6993,84.0418 46.5,82.5 Z"/></g>
</svg>
