<?xml version="1.0" encoding="UTF-8"?>
<!DOCTYPE svg PUBLIC "-//W3C//DTD SVG 1.1//EN" "http://www.w3.org/Graphics/SVG/1.1/DTD/svg11.dtd">
<svg xmlns="http://www.w3.org/2000/svg" version="1.1" width="96px" height="96px" style="shape-rendering:geometricPrecision; text-rendering:geometricPrecision; image-rendering:optimizeQuality; fill-rule:evenodd; clip-rule:evenodd" xmlns:xlink="http://www.w3.org/1999/xlink">
<g><path style="opacity:0.514" fill="#081a8d" d="M 25.5,-0.5 C 27.1667,-0.5 28.8333,-0.5 30.5,-0.5C 32.964,0.56651 35.2974,1.89984 37.5,3.5C 38.8333,5.16667 40.1667,6.83333 41.5,8.5C 38.039,9.11055 35.3723,7.94388 33.5,5C 28.2031,3.24377 22.8697,3.0771 17.5,4.5C 19.8633,2.3199 22.53,0.65323 25.5,-0.5 Z"/></g>
<g><path style="opacity:0.8" fill="#fcfbfd" d="M 83.5,73.5 C 83.5,73.1667 83.5,72.8333 83.5,72.5C 87.2188,65.6241 88.7188,58.2908 88,50.5C 86.541,56.0848 84.041,61.0848 80.5,65.5C 80.1667,65.5 79.8333,65.5 79.5,65.5C 88.2672,53.3195 88.7672,40.6529 81,27.5C 73.2066,14.5601 61.7066,8.22673 46.5,8.5C 46.1583,7.66175 45.4916,7.32842 44.5,7.5C 43.8333,7.5 43.5,7.83333 43.5,8.5C 42.8333,8.5 42.1667,8.5 41.5,8.5C 40.1667,6.83333 38.8333,5.16667 37.5,3.5C 64.1862,0.0951515 82.0195,11.0952 91,36.5C 94.3295,50.1592 91.8295,62.4925 83.5,73.5 Z"/></g>
<g><path style="opacity:1" fill="#a884e2" d="M 14.5,8.5 C 15.1667,8.5 15.8333,8.5 16.5,8.5C 15.5244,9.81486 14.5244,11.1482 13.5,12.5C 12.1908,10.7605 12.5241,9.42714 14.5,8.5 Z"/></g>
<g><path style="opacity:1" fill="#442cdf" d="M 41.5,8.5 C 42.1667,8.5 42.8333,8.5 43.5,8.5C 51.9934,15.8256 59.3267,24.1589 65.5,33.5C 65.4573,34.4164 65.1239,35.0831 64.5,35.5C 58.5649,32.1271 54.5649,33.7937 52.5,40.5C 51.8826,40.6107 51.3826,40.944 51,41.5C 52.6421,36.536 51.1421,32.8693 46.5,30.5C 47.3029,29.5768 47.4696,28.5768 47,27.5C 44.5184,24.0507 41.685,20.884 38.5,18C 33.8662,18.054 31.5328,15.8874 31.5,11.5C 30.0413,11.4326 28.7079,11.7659 27.5,12.5C 25.3718,11.3709 23.0385,11.2042 20.5,12C 19.0899,13.3717 17.4233,14.205 15.5,14.5C 17.8838,10.1104 21.5505,7.77705 26.5,7.5C 28.5116,8.01383 30.5116,8.1805 32.5,8C 28.6682,5.40849 24.6682,4.90849 20.5,6.5C 19.4863,7.67373 18.153,8.3404 16.5,8.5C 15.8333,8.5 15.1667,8.5 14.5,8.5C 14.7376,6.59565 15.7376,5.26231 17.5,4.5C 22.8697,3.0771 28.2031,3.24377 33.5,5C 35.3723,7.94388 38.039,9.11055 41.5,8.5 Z"/></g>
<g><path style="opacity:1" fill="#a59fe8" d="M 20.5,6.5 C 24.6682,4.90849 28.6682,5.40849 32.5,8C 30.5116,8.1805 28.5116,8.01383 26.5,7.5C 24.7354,6.53862 22.7354,6.20528 20.5,6.5 Z"/></g>
<g><path style="opacity:1" fill="#9e87e4" d="M 34.5,10.5 C 37.4397,9.17008 40.4397,9.33675 43.5,11C 40.553,10.8481 37.553,10.6815 34.5,10.5 Z"/></g>
<g><path style="opacity:0.842" fill="#f5f5fa" d="M 27.5,12.5 C 26.5,13.1667 25.5,13.8333 24.5,14.5C 24.631,13.7611 24.4643,13.0944 24,12.5C 21.2476,15.6842 18.7476,19.0175 16.5,22.5C 15.8333,22.5 15.5,22.8333 15.5,23.5C 14.6618,23.8417 14.3284,24.5084 14.5,25.5C 13.8333,25.5 13.5,25.8333 13.5,26.5C 12.8333,26.5 12.5,26.8333 12.5,27.5C 3.04703,41.9358 2.04703,56.9358 9.5,72.5C 2.20019,62.7295 -0.299808,51.7295 2,39.5C 3.90717,29.6805 8.40717,21.3471 15.5,14.5C 17.4233,14.205 19.0899,13.3717 20.5,12C 23.0385,11.2042 25.3718,11.3709 27.5,12.5 Z"/></g>
<g><path style="opacity:1" fill="#3624da" d="M 46.5,30.5 C 37.3256,24.5245 30.8256,26.8578 27,37.5C 26.2109,39.7116 26.3775,41.7116 27.5,43.5C 27.8333,44.8333 28.1667,46.1667 28.5,47.5C 29.0305,49.9237 29.8638,52.257 31,54.5C 34.1033,58.114 37.6033,61.114 41.5,63.5C 38.4844,62.438 35.4844,61.2714 32.5,60C 29.0561,56.941 25.7228,53.7744 22.5,50.5C 19.2618,43.5402 17.9284,36.2068 18.5,28.5C 18.87,23.0975 20.87,18.4308 24.5,14.5C 25.5,13.8333 26.5,13.1667 27.5,12.5C 28.7079,11.7659 30.0413,11.4326 31.5,11.5C 31.5328,15.8874 33.8662,18.054 38.5,18C 41.685,20.884 44.5184,24.0507 47,27.5C 47.4696,28.5768 47.3029,29.5768 46.5,30.5 Z"/></g>
<g><path style="opacity:0.963" fill="#f6f6fb" d="M 64.5,35.5 C 65.795,36.4884 67.1283,37.4884 68.5,38.5C 70.6688,43.359 71.0021,48.359 69.5,53.5C 68.8333,53.5 68.5,53.8333 68.5,54.5C 64.8122,59.8546 59.8122,63.5213 53.5,65.5C 52.537,65.0302 52.537,64.3635 53.5,63.5C 55.1128,62.1619 55.6128,60.4952 55,58.5C 52.9592,59.4231 50.7925,59.7564 48.5,59.5C 40.6525,57.5719 33.9858,53.5719 28.5,47.5C 28.1667,46.1667 27.8333,44.8333 27.5,43.5C 29.9418,45.4782 32.6085,47.9782 35.5,51C 37.7689,52.5576 40.1022,52.7243 42.5,51.5C 43.1805,49.1111 44.0138,46.7778 45,44.5C 45.6708,45.2524 46.5041,45.5858 47.5,45.5C 49.1775,50.1967 51.8442,54.1967 55.5,57.5C 56.2216,57.9175 56.7216,58.5842 57,59.5C 58.4207,55.4942 57.254,52.8276 53.5,51.5C 52.0256,50.5637 51.0256,49.2303 50.5,47.5C 52.3797,47.7709 53.713,47.1042 54.5,45.5C 57.3219,44.2108 57.9886,42.2108 56.5,39.5C 55.4777,39.8555 54.811,40.5222 54.5,41.5C 53.5084,41.6716 52.8417,41.3382 52.5,40.5C 54.5649,33.7937 58.5649,32.1271 64.5,35.5 Z"/></g>
<g><path style="opacity:0.916" fill="#081c8e" d="M 13.5,26.5 C 13.8333,26.5 14.1667,26.5 14.5,26.5C 9.57895,41.669 10.7456,56.3356 18,70.5C 22.2113,76.9562 27.7113,80.9562 34.5,82.5C 38.5715,84.6346 42.9048,85.9679 47.5,86.5C 59.0211,88.2221 69.3544,85.2221 78.5,77.5C 79.1067,77.6236 79.44,77.9569 79.5,78.5C 77.4022,82.4336 74.4022,85.6003 70.5,88C 65.192,90.8115 59.8586,93.3115 54.5,95.5C 49.1667,95.5 43.8333,95.5 38.5,95.5C 28.0004,92.2029 19.167,86.2029 12,77.5C 10.9055,75.9221 10.0722,74.2554 9.5,72.5C 2.04703,56.9358 3.04703,41.9358 12.5,27.5C 13.1667,27.5 13.5,27.1667 13.5,26.5 Z"/></g>
<g><path style="opacity:1" fill="#d6dcf6" d="M 46.5,30.5 C 51.1421,32.8693 52.6421,36.536 51,41.5C 51.3826,40.944 51.8826,40.6107 52.5,40.5C 52.8417,41.3382 53.5084,41.6716 54.5,41.5C 53.3143,42.9613 53.3143,44.2946 54.5,45.5C 53.713,47.1042 52.3797,47.7709 50.5,47.5C 49.5,46.8333 48.5,46.1667 47.5,45.5C 46.5041,45.5858 45.6708,45.2524 45,44.5C 44.0138,46.7778 43.1805,49.1111 42.5,51.5C 40.1022,52.7243 37.7689,52.5576 35.5,51C 32.6085,47.9782 29.9418,45.4782 27.5,43.5C 26.3775,41.7116 26.2109,39.7116 27,37.5C 30.8256,26.8578 37.3256,24.5245 46.5,30.5 Z"/></g>
<g><path style="opacity:1" fill="#fcfcfe" d="M 31.5,34.5 C 36.895,34.908 39.2283,37.908 38.5,43.5C 36.8561,43.7135 35.3561,43.3802 34,42.5C 32.2932,40.0912 31.4598,37.4245 31.5,34.5 Z"/></g>
<g><path style="opacity:1" fill="#475486" d="M 38.5,29.5 C 42.5038,31.163 44.8372,34.163 45.5,38.5C 40.6108,37.5999 38.2775,34.5999 38.5,29.5 Z"/></g>
<g><path style="opacity:1" fill="#e1cce8" d="M 44.5,7.5 C 44.8417,8.33825 45.5084,8.67158 46.5,8.5C 53.439,15.6102 60.2724,22.9436 67,30.5C 68.2525,33.0135 68.7525,35.6802 68.5,38.5C 67.1283,37.4884 65.795,36.4884 64.5,35.5C 65.1239,35.0831 65.4573,34.4164 65.5,33.5C 59.3267,24.1589 51.9934,15.8256 43.5,8.5C 43.5,7.83333 43.8333,7.5 44.5,7.5 Z"/></g>
<g><path style="opacity:1" fill="#1c285c" d="M 54.5,45.5 C 53.3143,44.2946 53.3143,42.9613 54.5,41.5C 54.811,40.5222 55.4777,39.8555 56.5,39.5C 57.9886,42.2108 57.3219,44.2108 54.5,45.5 Z"/></g>
<g><path style="opacity:0.996" fill="#624bf3" d="M 69.5,65.5 C 62.1839,69.9869 54.1839,71.6536 45.5,70.5C 30.0685,68.4019 20.7352,59.7352 17.5,44.5C 17.369,43.7611 17.5357,43.0944 18,42.5C 18.7542,45.6844 20.2542,48.3511 22.5,50.5C 25.7228,53.7744 29.0561,56.941 32.5,60C 35.4844,61.2714 38.4844,62.438 41.5,63.5C 44.1667,63.5 46.8333,63.5 49.5,63.5C 50.8333,63.5 52.1667,63.5 53.5,63.5C 52.537,64.3635 52.537,65.0302 53.5,65.5C 59.8122,63.5213 64.8122,59.8546 68.5,54.5C 69.1667,54.5 69.5,54.1667 69.5,53.5C 70.8846,52.4264 72.0513,51.0931 73,49.5C 74.5999,45.5332 76.0999,41.5332 77.5,37.5C 79.7876,48.3636 77.1209,57.6969 69.5,65.5 Z M 53.5,63.5 C 52.1667,63.5 50.8333,63.5 49.5,63.5C 49.5674,62.0413 49.2341,60.7079 48.5,59.5C 50.7925,59.7564 52.9592,59.4231 55,58.5C 55.6128,60.4952 55.1128,62.1619 53.5,63.5 Z"/></g>
<g><path style="opacity:1" fill="#272c9c" d="M 18.5,28.5 C 17.9284,36.2068 19.2618,43.5402 22.5,50.5C 20.2542,48.3511 18.7542,45.6844 18,42.5C 17.5357,43.0944 17.369,43.7611 17.5,44.5C 16.3562,39.112 16.6895,33.7787 18.5,28.5 Z"/></g>
<g><path style="opacity:1" fill="#222a5c" d="M 47.5,45.5 C 48.5,46.1667 49.5,46.8333 50.5,47.5C 51.0256,49.2303 52.0256,50.5637 53.5,51.5C 54.6298,53.3146 55.2964,55.3146 55.5,57.5C 51.8442,54.1967 49.1775,50.1967 47.5,45.5 Z"/></g>
<g><path style="opacity:1" fill="#351ad7" d="M 13.5,34.5 C 14.1667,38.1667 14.8333,41.8333 15.5,45.5C 15.7689,50.2637 17.1022,54.597 19.5,58.5C 25.8756,69.8663 35.5423,76.533 48.5,78.5C 51.4552,77.8413 54.4552,77.5079 57.5,77.5C 62.4464,78.6324 66.7797,77.2991 70.5,73.5C 74.704,71.9668 78.0374,69.3002 80.5,65.5C 84.041,61.0848 86.541,56.0848 88,50.5C 88.7188,58.2908 87.2188,65.6241 83.5,72.5C 79.3828,75.0684 75.3828,77.9017 71.5,81C 63.986,84.9362 55.986,86.7696 47.5,86.5C 42.9048,85.9679 38.5715,84.6346 34.5,82.5C 21.7193,76.1952 14.5526,65.8618 13,51.5C 12.3127,45.7963 12.4793,40.1296 13.5,34.5 Z M 53.5,63.5 C 52.1667,63.5 50.8333,63.5 49.5,63.5C 49.5674,62.0413 49.2341,60.7079 48.5,59.5C 50.7925,59.7564 52.9592,59.4231 55,58.5C 55.6128,60.4952 55.1128,62.1619 53.5,63.5 Z"/></g>
<g><path style="opacity:0.988" fill="#06198a" d="M 28.5,47.5 C 33.9858,53.5719 40.6525,57.5719 48.5,59.5C 49.2341,60.7079 49.5674,62.0413 49.5,63.5C 46.8333,63.5 44.1667,63.5 41.5,63.5C 37.6033,61.114 34.1033,58.114 31,54.5C 29.8638,52.257 29.0305,49.9237 28.5,47.5 Z"/></g>
<g><path style="opacity:1" fill="#041e58" d="M 24.5,14.5 C 20.87,18.4308 18.87,23.0975 18.5,28.5C 16.6895,33.7787 16.3562,39.112 17.5,44.5C 20.7352,59.7352 30.0685,68.4019 45.5,70.5C 47.9686,71.3171 50.6353,71.8171 53.5,72C 39.3995,73.2001 28.2328,68.0334 20,56.5C 19.5357,57.0944 19.369,57.7611 19.5,58.5C 17.1022,54.597 15.7689,50.2637 15.5,45.5C 15.4728,39.44 15.6395,33.44 16,27.5C 14.8638,29.743 14.0305,32.0763 13.5,34.5C 12.4793,40.1296 12.3127,45.7963 13,51.5C 14.5526,65.8618 21.7193,76.1952 34.5,82.5C 27.7113,80.9562 22.2113,76.9562 18,70.5C 10.7456,56.3356 9.57895,41.669 14.5,26.5C 14.5,26.1667 14.5,25.8333 14.5,25.5C 15.3382,25.1583 15.6716,24.4916 15.5,23.5C 16.1667,23.5 16.5,23.1667 16.5,22.5C 18.7476,19.0175 21.2476,15.6842 24,12.5C 24.4643,13.0944 24.631,13.7611 24.5,14.5 Z"/></g>
<g><path style="opacity:1" fill="#1c1c9c" d="M 15.5,45.5 C 14.8333,41.8333 14.1667,38.1667 13.5,34.5C 14.0305,32.0763 14.8638,29.743 16,27.5C 15.6395,33.44 15.4728,39.44 15.5,45.5 Z"/></g>
<g><path style="opacity:0.996" fill="#97a4bb" d="M 53.5,51.5 C 57.254,52.8276 58.4207,55.4942 57,59.5C 56.7216,58.5842 56.2216,57.9175 55.5,57.5C 55.2964,55.3146 54.6298,53.3146 53.5,51.5 Z"/></g>
<g><path style="opacity:1" fill="#c4aae5" d="M 79.5,65.5 C 79.8333,65.5 80.1667,65.5 80.5,65.5C 78.0374,69.3002 74.704,71.9668 70.5,73.5C 73.4744,70.8621 76.4744,68.1954 79.5,65.5 Z"/></g>
<g><path style="opacity:0.892" fill="#1128bf" d="M 45.5,70.5 C 54.1839,71.6536 62.1839,69.9869 69.5,65.5C 63.8988,72.132 56.8988,76.4653 48.5,78.5C 35.5423,76.533 25.8756,69.8663 19.5,58.5C 19.369,57.7611 19.5357,57.0944 20,56.5C 28.2328,68.0334 39.3995,73.2001 53.5,72C 50.6353,71.8171 47.9686,71.3171 45.5,70.5 Z"/></g>
<g><path style="opacity:0.798" fill="#7b63da" d="M 70.5,73.5 C 66.7797,77.2991 62.4464,78.6324 57.5,77.5C 61.9645,76.5672 66.2979,75.2339 70.5,73.5 Z"/></g>
<g><path style="opacity:1" fill="#0f2362" d="M 83.5,72.5 C 83.5,72.8333 83.5,73.1667 83.5,73.5C 82.9202,75.7488 81.5869,77.4154 79.5,78.5C 79.44,77.9569 79.1067,77.6236 78.5,77.5C 69.3544,85.2221 59.0211,88.2221 47.5,86.5C 55.986,86.7696 63.986,84.9362 71.5,81C 75.3828,77.9017 79.3828,75.0684 83.5,72.5 Z"/></g>
</svg>
