<?xml version="1.0" encoding="UTF-8"?>
<!DOCTYPE svg PUBLIC "-//W3C//DTD SVG 1.1//EN" "http://www.w3.org/Graphics/SVG/1.1/DTD/svg11.dtd">
<svg xmlns="http://www.w3.org/2000/svg" version="1.1" width="96px" height="96px" style="shape-rendering:geometricPrecision; text-rendering:geometricPrecision; image-rendering:optimizeQuality; fill-rule:evenodd; clip-rule:evenodd" xmlns:xlink="http://www.w3.org/1999/xlink">
<g><path style="opacity:1" fill="#070a10" d="M 36.5,16.5 C 35.2905,16.0679 34.2905,15.4013 33.5,14.5C 35.1713,10.7678 37.8379,9.4345 41.5,10.5C 39.8103,12.5193 38.1436,14.5193 36.5,16.5 Z"/></g>
<g><path style="opacity:0.998" fill="#f1f1f1" d="M 29.5,12.5 C 30.8333,13.1667 32.1667,13.8333 33.5,14.5C 34.2905,15.4013 35.2905,16.0679 36.5,16.5C 36.8333,17.5 37.5,18.1667 38.5,18.5C 38.8333,19.5 39.5,20.1667 40.5,20.5C 40.427,22.0269 41.0937,23.0269 42.5,23.5C 42.8333,24.8333 43.1667,26.1667 43.5,27.5C 44.2341,28.7079 44.5674,30.0413 44.5,31.5C 44.8333,34.1667 45.1667,36.8333 45.5,39.5C 45.6309,40.3764 45.2975,41.0431 44.5,41.5C 41.9058,40.4078 39.7391,38.7411 38,36.5C 37.1135,26.7854 31.9469,21.1187 22.5,19.5C 10.7029,21.7852 6.70288,28.4519 10.5,39.5C 10.427,41.0269 11.0937,42.0269 12.5,42.5C 14.5104,46.0916 17.6771,47.7582 22,47.5C 25.4406,47.6865 28.4406,46.6865 31,44.5C 33.09,46.4163 34.9233,48.4163 36.5,50.5C 35.8333,50.5 35.5,50.8333 35.5,51.5C 30.654,54.6688 25.3206,56.0021 19.5,55.5C 18.8333,55.5 18.1667,55.5 17.5,55.5C 15.5439,54.5082 13.5439,53.5082 11.5,52.5C 0.741446,45.941 -2.42522,36.6077 2,24.5C 7.99048,13.2554 17.1571,9.25537 29.5,12.5 Z"/></g>
<g><path style="opacity:1" fill="#030407" d="M 40.5,20.5 C 39.5,20.1667 38.8333,19.5 38.5,18.5C 40.6065,14.8653 43.6065,12.6986 47.5,12C 47.8333,12.3333 48.1667,12.6667 48.5,13C 45.9638,15.705 43.2971,18.205 40.5,20.5 Z"/></g>
<g><path style="opacity:1" fill="#000206" d="M 43.5,27.5 C 43.1667,26.1667 42.8333,24.8333 42.5,23.5C 45.9641,20.5375 49.2975,17.3709 52.5,14C 54.0758,13.6124 55.4091,14.1124 56.5,15.5C 52.1725,19.4937 47.8392,23.4937 43.5,27.5 Z"/></g>
<g><path style="opacity:1" fill="#f1f1f1" d="M 46.5,43.5 C 46.5751,46.2062 46.9084,48.8728 47.5,51.5C 44.4021,51.2444 41.4021,50.5778 38.5,49.5C 31.9136,45.3423 28.0803,39.3423 27,31.5C 26.2917,30.6195 25.4584,29.9528 24.5,29.5C 23.1667,28.1667 21.8333,28.1667 20.5,29.5C 17.513,31.1085 16.8464,33.4418 18.5,36.5C 19.5769,37.7051 20.9102,38.3718 22.5,38.5C 23.4916,38.6716 24.1583,38.3382 24.5,37.5C 25.5,37.5 26.5,37.5 27.5,37.5C 27.4772,39.5996 28.1439,41.4329 29.5,43C 29.3552,43.772 29.0219,44.4387 28.5,45C 22.6245,47.2981 17.2912,46.4648 12.5,42.5C 12.573,40.9731 11.9063,39.9731 10.5,39.5C 8.55756,26.2758 14.2242,20.4424 27.5,22C 29.6238,23.1217 31.4571,24.6217 33,26.5C 33.7159,35.3043 38.2159,40.971 46.5,43.5 Z"/></g>
<g><path style="opacity:1" fill="#002150" d="M 86.5,44.5 C 78.7514,39.1274 70.418,38.1274 61.5,41.5C 61.7135,39.8561 61.3802,38.3561 60.5,37C 55.2553,34.863 49.922,33.0297 44.5,31.5C 44.5674,30.0413 44.2341,28.7079 43.5,27.5C 47.8392,23.4937 52.1725,19.4937 56.5,15.5C 55.4091,14.1124 54.0758,13.6124 52.5,14C 49.2975,17.3709 45.9641,20.5375 42.5,23.5C 41.0937,23.0269 40.427,22.0269 40.5,20.5C 43.2971,18.205 45.9638,15.705 48.5,13C 48.1667,12.6667 47.8333,12.3333 47.5,12C 43.6065,12.6986 40.6065,14.8653 38.5,18.5C 37.5,18.1667 36.8333,17.5 36.5,16.5C 38.1436,14.5193 39.8103,12.5193 41.5,10.5C 37.8379,9.4345 35.1713,10.7678 33.5,14.5C 32.1667,13.8333 30.8333,13.1667 29.5,12.5C 31.863,9.14628 34.863,6.47961 38.5,4.5C 52.113,9.15348 65.7797,13.6535 79.5,18C 82.3767,26.6728 84.7101,35.5061 86.5,44.5 Z"/></g>
<g><path style="opacity:1" fill="#00030a" d="M 54.5,21.5 C 62.1921,23.507 69.8588,25.6736 77.5,28C 79.2603,28.9653 79.5937,30.132 78.5,31.5C 70.5359,28.901 62.5359,26.401 54.5,24C 53.4019,23.2303 53.4019,22.397 54.5,21.5 Z"/></g>
<g><path style="opacity:1" fill="#00030b" d="M 59.5,16.5 C 65.227,17.6853 70.8937,19.1853 76.5,21C 77.731,22.1827 77.731,23.3493 76.5,24.5C 70.4317,22.6995 64.4317,20.6995 58.5,18.5C 58.8627,17.8165 59.1961,17.1499 59.5,16.5 Z"/></g>
<g><path style="opacity:1" fill="#00030a" d="M 49.5,26.5 C 59.5108,29.2249 69.5108,32.0582 79.5,35C 82.5068,38.1096 81.8401,39.1096 77.5,38C 67.4436,34.9252 57.4436,31.7586 47.5,28.5C 48.2427,27.8182 48.9094,27.1515 49.5,26.5 Z"/></g>
<g><path style="opacity:1" fill="#3c3f4c" d="M 45.5,39.5 C 46.4345,40.5676 46.7678,41.901 46.5,43.5C 38.2159,40.971 33.7159,35.3043 33,26.5C 31.4571,24.6217 29.6238,23.1217 27.5,22C 14.2242,20.4424 8.55756,26.2758 10.5,39.5C 6.70288,28.4519 10.7029,21.7852 22.5,19.5C 31.9469,21.1187 37.1135,26.7854 38,36.5C 39.7391,38.7411 41.9058,40.4078 44.5,41.5C 45.2975,41.0431 45.6309,40.3764 45.5,39.5 Z"/></g>
<g><path style="opacity:1" fill="#131315" d="M 20.5,29.5 C 20.4054,32.6967 21.0721,35.6967 22.5,38.5C 20.9102,38.3718 19.5769,37.7051 18.5,36.5C 16.8464,33.4418 17.513,31.1085 20.5,29.5 Z"/></g>
<g><path style="opacity:1" fill="#04070b" d="M 44.5,31.5 C 49.922,33.0297 55.2553,34.863 60.5,37C 61.3802,38.3561 61.7135,39.8561 61.5,41.5C 60.0639,42.4286 58.7305,43.5952 57.5,45C 59.66,46.332 61.66,47.832 63.5,49.5C 63.5,50.1667 63.8333,50.5 64.5,50.5C 64.5,51.1667 64.5,51.8333 64.5,52.5C 64.5,52.8333 64.5,53.1667 64.5,53.5C 60.2849,47.8857 54.6182,44.5523 47.5,43.5C 47.1667,43.5 46.8333,43.5 46.5,43.5C 46.7678,41.901 46.4345,40.5676 45.5,39.5C 45.1667,36.8333 44.8333,34.1667 44.5,31.5 Z"/></g>
<g><path style="opacity:1" fill="#0a2353" d="M 24.5,29.5 C 24.1949,31.9193 24.1949,34.586 24.5,37.5C 24.1583,38.3382 23.4916,38.6716 22.5,38.5C 21.0721,35.6967 20.4054,32.6967 20.5,29.5C 21.8333,28.1667 23.1667,28.1667 24.5,29.5 Z"/></g>
<g><path style="opacity:1" fill="#262d49" d="M 10.5,39.5 C 11.9063,39.9731 12.573,40.9731 12.5,42.5C 11.0937,42.0269 10.427,41.0269 10.5,39.5 Z"/></g>
<g><path style="opacity:0.998" fill="#32a3e4" d="M 86.5,44.5 C 94.0508,51.3353 96.2174,59.6686 93,69.5C 87.7611,80.0373 79.2611,84.704 67.5,83.5C 66.3285,82.6554 64.9952,81.9887 63.5,81.5C 62.8333,81.1667 62.1667,80.8333 61.5,80.5C 60.205,79.5116 58.8717,78.5116 57.5,77.5C 56.8333,76.8333 56.1667,76.1667 55.5,75.5C 55.1667,74.5 54.5,73.8333 53.5,73.5C 53.3404,71.847 52.6737,70.5137 51.5,69.5C 51.0104,66.3447 50.3438,63.3447 49.5,60.5C 49.7564,58.2075 49.4231,56.0408 48.5,54C 51.7246,53.7766 54.3913,54.9432 56.5,57.5C 56.6427,62.7804 58.6427,67.1137 62.5,70.5C 68.1753,76.7796 74.1753,77.113 80.5,71.5C 80.5,69.8333 80.5,68.1667 80.5,66.5C 81.5,66.5 82.5,66.5 83.5,66.5C 83.1961,67.1499 82.8627,67.8165 82.5,68.5C 82.8457,69.6956 83.3457,69.6956 84,68.5C 88.1069,60.3298 86.2735,53.9964 78.5,49.5C 78.3893,48.8826 78.056,48.3826 77.5,48C 72.6099,47.0344 67.9432,47.5344 63.5,49.5C 61.66,47.832 59.66,46.332 57.5,45C 58.7305,43.5952 60.0639,42.4286 61.5,41.5C 70.418,38.1274 78.7514,39.1274 86.5,44.5 Z"/></g>
<g><path style="opacity:1" fill="#32a4e5" d="M 47.5,43.5 C 54.6182,44.5523 60.2849,47.8857 64.5,53.5C 65.7578,56.7722 66.9245,60.1056 68,63.5C 68.7083,64.3805 69.5416,65.0472 70.5,65.5C 71.8333,65.5 73.1667,65.5 74.5,65.5C 76.3258,63.5449 76.8258,61.2116 76,58.5C 75.1841,57.1772 74.0174,56.5106 72.5,56.5C 71.209,56.2627 70.209,56.596 69.5,57.5C 67.5212,56.1879 65.8545,54.5212 64.5,52.5C 64.5,51.8333 64.5,51.1667 64.5,50.5C 69.0119,48.2853 73.6786,47.952 78.5,49.5C 84.009,54.0278 85.6757,59.6945 83.5,66.5C 82.5,66.5 81.5,66.5 80.5,66.5C 80.5,68.1667 80.5,69.8333 80.5,71.5C 74.2719,74.3983 68.2719,74.0649 62.5,70.5C 60.5146,67.5136 59.3479,64.1803 59,60.5C 58.6232,59.0577 57.7899,58.0577 56.5,57.5C 55.0274,54.0789 52.3607,52.0789 48.5,51.5C 48.1667,48.8333 47.8333,46.1667 47.5,43.5 Z"/></g>
<g><path style="opacity:1" fill="#1f202b" d="M 24.5,29.5 C 25.4584,29.9528 26.2917,30.6195 27,31.5C 28.0803,39.3423 31.9136,45.3423 38.5,49.5C 37.8333,49.8333 37.1667,50.1667 36.5,50.5C 34.9233,48.4163 33.09,46.4163 31,44.5C 28.4406,46.6865 25.4406,47.6865 22,47.5C 17.6771,47.7582 14.5104,46.0916 12.5,42.5C 17.2912,46.4648 22.6245,47.2981 28.5,45C 29.0219,44.4387 29.3552,43.772 29.5,43C 28.1439,41.4329 27.4772,39.5996 27.5,37.5C 26.5,37.5 25.5,37.5 24.5,37.5C 24.1949,34.586 24.1949,31.9193 24.5,29.5 Z"/></g>
<g><path style="opacity:1" fill="#0f2b49" d="M 78.5,49.5 C 73.6786,47.952 69.0119,48.2853 64.5,50.5C 63.8333,50.5 63.5,50.1667 63.5,49.5C 67.9432,47.5344 72.6099,47.0344 77.5,48C 78.056,48.3826 78.3893,48.8826 78.5,49.5 Z"/></g>
<g><path style="opacity:1" fill="#060b0f" d="M 38.5,49.5 C 41.4021,50.5778 44.4021,51.2444 47.5,51.5C 47.8333,51.5 48.1667,51.5 48.5,51.5C 52.3607,52.0789 55.0274,54.0789 56.5,57.5C 54.3913,54.9432 51.7246,53.7766 48.5,54C 49.4231,56.0408 49.7564,58.2075 49.5,60.5C 49.631,61.2389 49.4643,61.9056 49,62.5C 45.6011,61.1067 42.1011,59.94 38.5,59C 36.9451,56.745 35.9451,54.245 35.5,51.5C 35.5,50.8333 35.8333,50.5 36.5,50.5C 37.1667,50.1667 37.8333,49.8333 38.5,49.5 Z"/></g>
<g><path style="opacity:1" fill="#34566f" d="M 46.5,43.5 C 46.8333,43.5 47.1667,43.5 47.5,43.5C 47.8333,46.1667 48.1667,48.8333 48.5,51.5C 48.1667,51.5 47.8333,51.5 47.5,51.5C 46.9084,48.8728 46.5751,46.2062 46.5,43.5 Z"/></g>
<g><path style="opacity:1" fill="#102d49" d="M 78.5,49.5 C 86.2735,53.9964 88.1069,60.3298 84,68.5C 83.3457,69.6956 82.8457,69.6956 82.5,68.5C 82.8627,67.8165 83.1961,67.1499 83.5,66.5C 85.6757,59.6945 84.009,54.0278 78.5,49.5 Z"/></g>
<g><path style="opacity:1" fill="#000207" d="M 72.5,56.5 C 73.3234,59.4606 73.99,62.4606 74.5,65.5C 73.1667,65.5 71.8333,65.5 70.5,65.5C 70.5987,62.7628 70.2653,60.0961 69.5,57.5C 70.209,56.596 71.209,56.2627 72.5,56.5 Z"/></g>
<g><path style="opacity:1" fill="#011d4b" d="M 64.5,52.5 C 65.8545,54.5212 67.5212,56.1879 69.5,57.5C 70.2653,60.0961 70.5987,62.7628 70.5,65.5C 69.5416,65.0472 68.7083,64.3805 68,63.5C 66.9245,60.1056 65.7578,56.7722 64.5,53.5C 64.5,53.1667 64.5,52.8333 64.5,52.5 Z"/></g>
<g><path style="opacity:1" fill="#01204e" d="M 72.5,56.5 C 74.0174,56.5106 75.1841,57.1772 76,58.5C 76.8258,61.2116 76.3258,63.5449 74.5,65.5C 73.99,62.4606 73.3234,59.4606 72.5,56.5 Z"/></g>
<g><path style="opacity:1" fill="#143d63" d="M 56.5,57.5 C 57.7899,58.0577 58.6232,59.0577 59,60.5C 59.3479,64.1803 60.5146,67.5136 62.5,70.5C 58.6427,67.1137 56.6427,62.7804 56.5,57.5 Z"/></g>
<g><path style="opacity:1" fill="#002150" d="M 35.5,51.5 C 35.9451,54.245 36.9451,56.745 38.5,59C 42.1011,59.94 45.6011,61.1067 49,62.5C 49.4643,61.9056 49.631,61.2389 49.5,60.5C 50.3438,63.3447 51.0104,66.3447 51.5,69.5C 47.9086,72.4247 44.5752,75.758 41.5,79.5C 42.723,80.6139 44.0563,80.7805 45.5,80C 48.014,77.5855 50.6806,75.4188 53.5,73.5C 54.5,73.8333 55.1667,74.5 55.5,75.5C 53.0365,77.4611 50.7032,79.6278 48.5,82C 49.5,82.5 50.5,83 51.5,83.5C 53.8545,81.8122 55.8545,79.8122 57.5,77.5C 58.8717,78.5116 60.205,79.5116 61.5,80.5C 59.4559,81.0312 57.7893,82.1978 56.5,84C 59.6755,86.055 62.0088,85.2217 63.5,81.5C 64.9952,81.9887 66.3285,82.6554 67.5,83.5C 64.8697,85.6281 62.3697,87.9614 60,90.5C 46.2562,85.8078 32.4228,81.3078 18.5,77C 15.6225,68.9903 13.2892,60.8236 11.5,52.5C 13.5439,53.5082 15.5439,54.5082 17.5,55.5C 16.515,57.3979 17.1817,58.8979 19.5,60C 28.6667,62.8333 37.8333,65.6667 47,68.5C 49.495,67.8859 49.8284,66.8859 48,65.5C 38.1491,62.8293 28.6491,59.496 19.5,55.5C 25.3206,56.0021 30.654,54.6688 35.5,51.5 Z"/></g>
<g><path style="opacity:1" fill="#000208" d="M 18.5,63.5 C 27.3406,65.5577 36.0073,68.2243 44.5,71.5C 42.9563,73.4461 40.9563,73.9461 38.5,73C 32.5,71 26.5,69 20.5,67C 19.1772,66.1841 18.5106,65.0174 18.5,63.5 Z"/></g>
<g><path style="opacity:1" fill="#000208" d="M 17.5,55.5 C 18.1667,55.5 18.8333,55.5 19.5,55.5C 28.6491,59.496 38.1491,62.8293 48,65.5C 49.8284,66.8859 49.495,67.8859 47,68.5C 37.8333,65.6667 28.6667,62.8333 19.5,60C 17.1817,58.8979 16.515,57.3979 17.5,55.5 Z"/></g>
<g><path style="opacity:1" fill="#02060d" d="M 51.5,69.5 C 52.6737,70.5137 53.3404,71.847 53.5,73.5C 50.6806,75.4188 48.014,77.5855 45.5,80C 44.0563,80.7805 42.723,80.6139 41.5,79.5C 44.5752,75.758 47.9086,72.4247 51.5,69.5 Z"/></g>
<g><path style="opacity:1" fill="#00030b" d="M 20.5,70.5 C 26.6226,72.3627 32.6226,74.5294 38.5,77C 37.8921,77.8699 37.0588,78.3699 36,78.5C 31.1059,77.202 26.2726,75.702 21.5,74C 20.6634,72.9887 20.33,71.8221 20.5,70.5 Z"/></g>
<g><path style="opacity:1" fill="#12406b" d="M 62.5,70.5 C 68.2719,74.0649 74.2719,74.3983 80.5,71.5C 74.1753,77.113 68.1753,76.7796 62.5,70.5 Z"/></g>
<g><path style="opacity:1" fill="#02050b" d="M 55.5,75.5 C 56.1667,76.1667 56.8333,76.8333 57.5,77.5C 55.8545,79.8122 53.8545,81.8122 51.5,83.5C 50.5,83 49.5,82.5 48.5,82C 50.7032,79.6278 53.0365,77.4611 55.5,75.5 Z"/></g>
<g><path style="opacity:1" fill="#000309" d="M 61.5,80.5 C 62.1667,80.8333 62.8333,81.1667 63.5,81.5C 62.0088,85.2217 59.6755,86.055 56.5,84C 57.7893,82.1978 59.4559,81.0312 61.5,80.5 Z"/></g>
</svg>
