<?xml version="1.0" encoding="UTF-8"?>
<!DOCTYPE svg PUBLIC "-//W3C//DTD SVG 1.1//EN" "http://www.w3.org/Graphics/SVG/1.1/DTD/svg11.dtd">
<svg xmlns="http://www.w3.org/2000/svg" version="1.1" width="96px" height="96px" style="shape-rendering:geometricPrecision; text-rendering:geometricPrecision; image-rendering:optimizeQuality; fill-rule:evenodd; clip-rule:evenodd" xmlns:xlink="http://www.w3.org/1999/xlink">
<g><path style="opacity:1" fill="#ba681c" d="M 40.5,4.5 C 42.7354,4.20528 44.7354,4.53862 46.5,5.5C 46.5,6.16667 46.5,6.83333 46.5,7.5C 45.2579,6.95661 43.9245,6.62328 42.5,6.5C 39.1002,7.84096 35.7669,9.17429 32.5,10.5C 32.5,9.83333 32.5,9.16667 32.5,8.5C 35.2982,7.35034 37.9648,6.01701 40.5,4.5 Z"/></g>
<g><path style="opacity:1" fill="#ca715f" d="M 40.5,4.5 C 37.9648,6.01701 35.2982,7.35034 32.5,8.5C 31.5,8.5 30.5,8.5 29.5,8.5C 32.7966,6.39867 36.4632,5.06533 40.5,4.5 Z"/></g>
<g><path style="opacity:0.765" fill="#be9cbd" d="M 46.5,5.5 C 47.9063,5.97306 48.573,6.97306 48.5,8.5C 47.8333,8.5 47.1667,8.5 46.5,8.5C 46.5,8.16667 46.5,7.83333 46.5,7.5C 46.5,6.83333 46.5,6.16667 46.5,5.5 Z"/></g>
<g><path style="opacity:1" fill="#cf8828" d="M 46.5,7.5 C 46.5,7.83333 46.5,8.16667 46.5,8.5C 46.7678,10.099 46.4345,11.4324 45.5,12.5C 45.8693,10.0065 45.2027,9.33985 43.5,10.5C 42.0839,8.14928 40.4172,8.14928 38.5,10.5C 36.5183,10.9954 34.5183,11.4954 32.5,12C 30.9632,13.1096 30.2965,14.6096 30.5,16.5C 30.1667,16.5 29.8333,16.5 29.5,16.5C 29.0246,13.6874 30.0246,11.6874 32.5,10.5C 35.7669,9.17429 39.1002,7.84096 42.5,6.5C 43.9245,6.62328 45.2579,6.95661 46.5,7.5 Z"/></g>
<g><path style="opacity:1" fill="#e9af36" d="M 43.5,10.5 C 43.1667,11.1667 42.8333,11.8333 42.5,12.5C 42.1667,12.5 41.8333,12.5 41.5,12.5C 40.2223,12.2178 39.2223,11.5511 38.5,10.5C 40.4172,8.14928 42.0839,8.14928 43.5,10.5 Z"/></g>
<g><path style="opacity:0.969" fill="#c785b9" d="M 27.5,9.5 C 27.1667,10.5 26.5,11.1667 25.5,11.5C 25.1667,11.5 24.8333,11.5 24.5,11.5C 24.9731,10.0937 25.9731,9.42702 27.5,9.5 Z"/></g>
<g><path style="opacity:0.824" fill="#acbde2" d="M 24.5,11.5 C 23.5,13.1667 22.1667,14.5 20.5,15.5C 20.8333,13.1667 22.1667,11.8333 24.5,11.5 Z"/></g>
<g><path style="opacity:1" fill="#b86325" d="M 29.5,8.5 C 29.501,12.2688 28.1676,15.2688 25.5,17.5C 24.325,17.719 23.325,17.3857 22.5,16.5C 23.9524,15.0603 24.9524,13.3936 25.5,11.5C 26.5,11.1667 27.1667,10.5 27.5,9.5C 27.8417,8.66175 28.5084,8.32842 29.5,8.5 Z"/></g>
<g><path style="opacity:1" fill="#d28429" d="M 29.5,8.5 C 30.5,8.5 31.5,8.5 32.5,8.5C 32.5,9.16667 32.5,9.83333 32.5,10.5C 30.0246,11.6874 29.0246,13.6874 29.5,16.5C 28.6618,16.8417 28.3284,17.5084 28.5,18.5C 27.391,18.4431 26.391,18.1098 25.5,17.5C 28.1676,15.2688 29.501,12.2688 29.5,8.5 Z"/></g>
<g><path style="opacity:1" fill="#efc250" d="M 38.5,10.5 C 39.2223,11.5511 40.2223,12.2178 41.5,12.5C 40.3778,13.9473 38.8778,14.9473 37,15.5C 36.3083,16.4368 36.475,17.1034 37.5,17.5C 37.5,17.8333 37.5,18.1667 37.5,18.5C 35.0347,18.233 32.7014,17.5664 30.5,16.5C 30.2965,14.6096 30.9632,13.1096 32.5,12C 34.5183,11.4954 36.5183,10.9954 38.5,10.5 Z"/></g>
<g><path style="opacity:1" fill="#f9e899" d="M 41.5,12.5 C 41.8333,12.5 42.1667,12.5 42.5,12.5C 43.0431,12.56 43.3764,12.8933 43.5,13.5C 42.6602,14.735 41.6602,15.735 40.5,16.5C 39.609,17.1098 38.609,17.4431 37.5,17.5C 36.475,17.1034 36.3083,16.4368 37,15.5C 38.8778,14.9473 40.3778,13.9473 41.5,12.5 Z"/></g>
<g><path style="opacity:1" fill="#4f6397" d="M 49.5,12.5 C 52.3667,12.3692 54.0334,13.7026 54.5,16.5C 51.4779,16.3419 49.4779,17.6752 48.5,20.5C 47.609,21.1098 46.609,21.4431 45.5,21.5C 46.4577,20.0384 47.6244,18.7051 49,17.5C 49.4935,15.8659 49.6602,14.1992 49.5,12.5 Z"/></g>
<g><path style="opacity:1" fill="#b15830" d="M 24.5,11.5 C 24.8333,11.5 25.1667,11.5 25.5,11.5C 24.9524,13.3936 23.9524,15.0603 22.5,16.5C 23.325,17.3857 24.325,17.719 25.5,17.5C 26.391,18.1098 27.391,18.4431 28.5,18.5C 28.5106,20.0174 29.1772,21.1841 30.5,22C 30.2716,22.3988 29.9382,22.5654 29.5,22.5C 28.609,21.8902 27.609,21.5569 26.5,21.5C 24.7839,21.3713 23.1172,21.038 21.5,20.5C 21.3713,18.7839 21.038,17.1172 20.5,15.5C 22.1667,14.5 23.5,13.1667 24.5,11.5 Z"/></g>
<g><path style="opacity:1" fill="#c2742e" d="M 46.5,8.5 C 47.1667,8.5 47.8333,8.5 48.5,8.5C 49.4345,9.56764 49.7678,10.901 49.5,12.5C 49.6602,14.1992 49.4935,15.8659 49,17.5C 47.6244,18.7051 46.4577,20.0384 45.5,21.5C 45.1667,21.5 44.8333,21.5 44.5,21.5C 44.5,20.8333 44.5,20.1667 44.5,19.5C 44.298,17.0504 44.6314,14.717 45.5,12.5C 46.4345,11.4324 46.7678,10.099 46.5,8.5 Z"/></g>
<g><path style="opacity:1" fill="#a7c5e3" d="M 20.5,15.5 C 21.038,17.1172 21.3713,18.7839 21.5,20.5C 21.5,20.8333 21.5,21.1667 21.5,21.5C 20.0532,20.8658 19.3866,19.6991 19.5,18C 19.528,16.9302 19.8614,16.0968 20.5,15.5 Z"/></g>
<g><path style="opacity:1" fill="#ecb443" d="M 40.5,16.5 C 41.7736,17.1894 41.7736,18.0228 40.5,19C 41.7932,19.49 43.1266,19.6567 44.5,19.5C 44.5,20.1667 44.5,20.8333 44.5,21.5C 44.1667,21.5 43.8333,21.5 43.5,21.5C 41.8615,20.0864 40.5282,20.4197 39.5,22.5C 38.8281,21.0508 38.1614,19.7175 37.5,18.5C 37.5,18.1667 37.5,17.8333 37.5,17.5C 38.609,17.4431 39.609,17.1098 40.5,16.5 Z"/></g>
<g><path style="opacity:1" fill="#ecbd59" d="M 45.5,12.5 C 44.6314,14.717 44.298,17.0504 44.5,19.5C 43.1266,19.6567 41.7932,19.49 40.5,19C 41.7736,18.0228 41.7736,17.1894 40.5,16.5C 41.6602,15.735 42.6602,14.735 43.5,13.5C 43.3764,12.8933 43.0431,12.56 42.5,12.5C 42.8333,11.8333 43.1667,11.1667 43.5,10.5C 45.2027,9.33985 45.8693,10.0065 45.5,12.5 Z"/></g>
<g><path style="opacity:1" fill="#89bcd1" d="M 54.5,16.5 C 55.4345,17.5676 55.7678,18.901 55.5,20.5C 55.5,21.1667 55.1667,21.5 54.5,21.5C 54.6567,20.1266 54.49,18.7932 54,17.5C 53.2597,19.3187 52.0931,20.6521 50.5,21.5C 50.1583,20.6618 49.4916,20.3284 48.5,20.5C 49.4779,17.6752 51.4779,16.3419 54.5,16.5 Z"/></g>
<g><path style="opacity:1" fill="#ab5c19" d="M 30.5,19.5 C 32.5,19.5 34.5,19.5 36.5,19.5C 36.5,20.8333 36.5,22.1667 36.5,23.5C 37.5,23.5 38.5,23.5 39.5,23.5C 38.791,24.404 37.791,24.7373 36.5,24.5C 34.7127,22.6105 32.7127,20.9438 30.5,19.5 Z"/></g>
<g><path style="opacity:1" fill="#bf7625" d="M 30.5,16.5 C 32.7014,17.5664 35.0347,18.233 37.5,18.5C 38.1614,19.7175 38.8281,21.0508 39.5,22.5C 40.5282,20.4197 41.8615,20.0864 43.5,21.5C 42.4863,22.6737 41.153,23.3404 39.5,23.5C 38.5,23.5 37.5,23.5 36.5,23.5C 36.5,22.1667 36.5,20.8333 36.5,19.5C 34.5,19.5 32.5,19.5 30.5,19.5C 30.5,18.5 30.5,17.5 30.5,16.5 Z"/></g>
<g><path style="opacity:1" fill="#60d2d5" d="M 54.5,21.5 C 53.3995,22.6049 52.7329,23.9382 52.5,25.5C 51.391,25.5569 50.391,25.8902 49.5,26.5C 49.67,25.1779 49.3366,24.0113 48.5,23C 49.0442,22.2828 49.7109,21.7828 50.5,21.5C 52.0931,20.6521 53.2597,19.3187 54,17.5C 54.49,18.7932 54.6567,20.1266 54.5,21.5 Z"/></g>
<g><path style="opacity:1" fill="#86350d" d="M 29.5,16.5 C 29.8333,16.5 30.1667,16.5 30.5,16.5C 30.5,17.5 30.5,18.5 30.5,19.5C 32.7127,20.9438 34.7127,22.6105 36.5,24.5C 35.791,25.404 34.791,25.7373 33.5,25.5C 31.8784,24.8776 30.5451,23.8776 29.5,22.5C 29.9382,22.5654 30.2716,22.3988 30.5,22C 29.1772,21.1841 28.5106,20.0174 28.5,18.5C 28.3284,17.5084 28.6618,16.8417 29.5,16.5 Z"/></g>
<g><path style="opacity:1" fill="#ddf8f9" d="M 48.5,20.5 C 49.4916,20.3284 50.1583,20.6618 50.5,21.5C 49.7109,21.7828 49.0442,22.2828 48.5,23C 49.3366,24.0113 49.67,25.1779 49.5,26.5C 46.9327,26.2785 44.5994,25.6118 42.5,24.5C 43.6935,23.7281 44.6935,22.7281 45.5,21.5C 46.609,21.4431 47.609,21.1098 48.5,20.5 Z"/></g>
<g><path style="opacity:1" fill="#713343" d="M 55.5,20.5 C 56.1667,20.5 56.5,20.8333 56.5,21.5C 56.5,22.1667 56.5,22.8333 56.5,23.5C 54.9382,23.7329 53.6049,24.3995 52.5,25.5C 52.7329,23.9382 53.3995,22.6049 54.5,21.5C 55.1667,21.5 55.5,21.1667 55.5,20.5 Z"/></g>
<g><path style="opacity:1" fill="#ab5469" d="M 21.5,20.5 C 23.1172,21.038 24.7839,21.3713 26.5,21.5C 26.6287,23.2161 26.962,24.8828 27.5,26.5C 26.5,26.5 25.5,26.5 24.5,26.5C 24.573,24.9731 23.9063,23.9731 22.5,23.5C 21.6618,23.1583 21.3284,22.4916 21.5,21.5C 21.5,21.1667 21.5,20.8333 21.5,20.5 Z"/></g>
<g><path style="opacity:1" fill="#77240f" d="M 26.5,21.5 C 27.609,21.5569 28.609,21.8902 29.5,22.5C 30.5451,23.8776 31.8784,24.8776 33.5,25.5C 31.7354,26.4614 29.7354,26.7947 27.5,26.5C 26.962,24.8828 26.6287,23.2161 26.5,21.5 Z"/></g>
<g><path style="opacity:1" fill="#bd6214" d="M 11.5,23.5 C 11.6716,24.4916 11.3382,25.1583 10.5,25.5C 8.73535,26.4614 6.73535,26.7947 4.5,26.5C 3.83333,26.1667 3.16667,25.8333 2.5,25.5C 3.17415,20.8486 5.84082,19.3486 10.5,21C 11.2524,21.6708 11.5858,22.5041 11.5,23.5 Z"/></g>
<g><path style="opacity:1" fill="#e9c441" d="M 10.5,25.5 C 8.83333,25.5 7.16667,25.5 5.5,25.5C 5.35012,21.8388 6.85012,20.8388 10,22.5C 10.4828,23.448 10.6495,24.448 10.5,25.5 Z"/></g>
<g><path style="opacity:1" fill="#3d3d6f" d="M 43.5,21.5 C 43.8333,21.5 44.1667,21.5 44.5,21.5C 44.8333,21.5 45.1667,21.5 45.5,21.5C 44.6935,22.7281 43.6935,23.7281 42.5,24.5C 40.7162,24.8925 39.0495,25.5592 37.5,26.5C 37.1667,26.5 36.8333,26.5 36.5,26.5C 32.5662,27.3597 28.5662,27.693 24.5,27.5C 24.5,27.1667 24.5,26.8333 24.5,26.5C 25.5,26.5 26.5,26.5 27.5,26.5C 29.7354,26.7947 31.7354,26.4614 33.5,25.5C 34.791,25.7373 35.791,25.404 36.5,24.5C 37.791,24.7373 38.791,24.404 39.5,23.5C 41.153,23.3404 42.4863,22.6737 43.5,21.5 Z"/></g>
<g><path style="opacity:0.145" fill="#b890b6" d="M 2.5,25.5 C 3.16667,25.8333 3.83333,26.1667 4.5,26.5C 5.28696,28.1042 6.6203,28.7709 8.5,28.5C 9.16667,28.5 9.5,28.8333 9.5,29.5C 5.9504,30.554 3.61707,29.2206 2.5,25.5 Z"/></g>
<g><path style="opacity:1" fill="#a23e12" d="M 11.5,23.5 C 12.3382,23.8417 12.6716,24.5084 12.5,25.5C 11.5525,26.9779 10.2191,27.9779 8.5,28.5C 6.6203,28.7709 5.28696,28.1042 4.5,26.5C 6.73535,26.7947 8.73535,26.4614 10.5,25.5C 11.3382,25.1583 11.6716,24.4916 11.5,23.5 Z"/></g>
<g><path style="opacity:1" fill="#3472a8" d="M 36.5,26.5 C 35.8902,27.391 35.5569,28.391 35.5,29.5C 33.1944,29.9926 30.861,30.3259 28.5,30.5C 27.4097,29.1429 26.0764,28.1429 24.5,27.5C 28.5662,27.693 32.5662,27.3597 36.5,26.5 Z"/></g>
<g><path style="opacity:1" fill="#6bdae1" d="M 42.5,24.5 C 44.5994,25.6118 46.9327,26.2785 49.5,26.5C 48.3406,28.2503 46.674,29.2503 44.5,29.5C 41.9967,28.7445 39.6634,27.7445 37.5,26.5C 39.0495,25.5592 40.7162,24.8925 42.5,24.5 Z"/></g>
<g><path style="opacity:0.027" fill="#69868b" d="M 56.5,21.5 C 57.4682,23.6074 57.8016,25.9407 57.5,28.5C 56.8333,28.8333 56.1667,29.1667 55.5,29.5C 56.1495,27.5648 56.4828,25.5648 56.5,23.5C 56.5,22.8333 56.5,22.1667 56.5,21.5 Z"/></g>
<g><path style="opacity:1" fill="#9f4e35" d="M 12.5,25.5 C 14.5,25.8333 16.5,26.1667 18.5,26.5C 16.6948,28.1969 14.3615,29.0302 11.5,29C 12.7375,29.2321 13.7375,29.7321 14.5,30.5C 13.5,30.5 12.5,30.5 11.5,30.5C 10.5084,30.6716 9.84171,30.3382 9.5,29.5C 9.5,28.8333 9.16667,28.5 8.5,28.5C 10.2191,27.9779 11.5525,26.9779 12.5,25.5 Z"/></g>
<g><path style="opacity:1" fill="#7a1412" d="M 18.5,26.5 C 19.1667,26.5 19.8333,26.5 20.5,26.5C 21.1098,27.391 21.4431,28.391 21.5,29.5C 20.0813,30.4511 18.4147,30.7845 16.5,30.5C 15.8333,30.5 15.1667,30.5 14.5,30.5C 13.7375,29.7321 12.7375,29.2321 11.5,29C 14.3615,29.0302 16.6948,28.1969 18.5,26.5 Z"/></g>
<g><path style="opacity:1" fill="#4aa2b1" d="M 22.5,23.5 C 23.9063,23.9731 24.573,24.9731 24.5,26.5C 24.5,26.8333 24.5,27.1667 24.5,27.5C 26.0764,28.1429 27.4097,29.1429 28.5,30.5C 27.1266,30.3433 25.7932,30.51 24.5,31C 26.0931,31.9487 27.4264,33.1154 28.5,34.5C 27.1266,34.6567 25.7932,34.49 24.5,34C 23.6006,32.3484 22.6006,30.8484 21.5,29.5C 21.4431,28.391 21.1098,27.391 20.5,26.5C 21.1667,25.5 21.8333,24.5 22.5,23.5 Z"/></g>
<g><path style="opacity:1" fill="#3c899a" d="M 36.5,26.5 C 36.8333,26.5 37.1667,26.5 37.5,26.5C 39.6634,27.7445 41.9967,28.7445 44.5,29.5C 44.1667,30.1667 43.8333,30.8333 43.5,31.5C 41.5648,32.1495 39.5648,32.4828 37.5,32.5C 36.8333,31.5 36.1667,30.5 35.5,29.5C 35.5569,28.391 35.8902,27.391 36.5,26.5 Z"/></g>
<g><path style="opacity:1" fill="#7c1f1a" d="M 52.5,25.5 C 52.1667,26.1667 51.8333,26.8333 51.5,27.5C 49.305,29.4244 46.9717,31.0911 44.5,32.5C 44.1667,32.5 43.8333,32.5 43.5,32.5C 43.5,32.1667 43.5,31.8333 43.5,31.5C 43.8333,30.8333 44.1667,30.1667 44.5,29.5C 46.674,29.2503 48.3406,28.2503 49.5,26.5C 50.391,25.8902 51.391,25.5569 52.5,25.5 Z"/></g>
<g><path style="opacity:0.651" fill="#849865" d="M 11.5,30.5 C 12.5,30.5 13.5,30.5 14.5,30.5C 15.1667,30.5 15.8333,30.5 16.5,30.5C 18.5095,31.0174 19.8429,31.684 20.5,32.5C 17.1709,32.7847 14.1709,32.1181 11.5,30.5 Z"/></g>
<g><path style="opacity:1" fill="#124965" d="M 35.5,29.5 C 36.1667,30.5 36.8333,31.5 37.5,32.5C 36.5,33.1667 35.5,33.8333 34.5,34.5C 33.8333,34.5 33.1667,34.5 32.5,34.5C 31.1667,34.5 29.8333,34.5 28.5,34.5C 27.4264,33.1154 26.0931,31.9487 24.5,31C 25.7932,30.51 27.1266,30.3433 28.5,30.5C 30.861,30.3259 33.1944,29.9926 35.5,29.5 Z"/></g>
<g><path style="opacity:1" fill="#a5421e" d="M 56.5,23.5 C 56.4828,25.5648 56.1495,27.5648 55.5,29.5C 54.5,29.8333 53.8333,30.5 53.5,31.5C 50.6071,33.114 47.6071,34.4473 44.5,35.5C 43.1667,35.5 41.8333,35.5 40.5,35.5C 41.1667,34.1667 42.1667,33.1667 43.5,32.5C 43.8333,32.5 44.1667,32.5 44.5,32.5C 47.964,33.4386 50.6307,32.1053 52.5,28.5C 52.3764,27.8933 52.0431,27.56 51.5,27.5C 51.8333,26.8333 52.1667,26.1667 52.5,25.5C 53.6049,24.3995 54.9382,23.7329 56.5,23.5 Z"/></g>
<g><path style="opacity:1" fill="#ddab71" d="M 51.5,27.5 C 52.0431,27.56 52.3764,27.8933 52.5,28.5C 50.6307,32.1053 47.964,33.4386 44.5,32.5C 46.9717,31.0911 49.305,29.4244 51.5,27.5 Z"/></g>
<g><path style="opacity:1" fill="#1b3a6b" d="M 57.5,28.5 C 58.1667,28.5 58.5,28.8333 58.5,29.5C 59.5167,31.4717 58.85,32.805 56.5,33.5C 55.5,33.5 54.5,33.5 53.5,33.5C 53.5,32.8333 53.5,32.1667 53.5,31.5C 53.8333,30.5 54.5,29.8333 55.5,29.5C 56.1667,29.1667 56.8333,28.8333 57.5,28.5 Z"/></g>
<g><path style="opacity:1" fill="#356a8f" d="M 58.5,29.5 C 59.9587,29.4326 61.2921,29.7659 62.5,30.5C 62.5,30.8333 62.5,31.1667 62.5,31.5C 60.4508,31.7058 60.1175,32.5391 61.5,34C 59.8659,34.4935 58.1992,34.6602 56.5,34.5C 56.5,34.1667 56.5,33.8333 56.5,33.5C 58.85,32.805 59.5167,31.4717 58.5,29.5 Z"/></g>
<g><path style="opacity:1" fill="#782924" d="M 21.5,29.5 C 22.6006,30.8484 23.6006,32.3484 24.5,34C 25.7932,34.49 27.1266,34.6567 28.5,34.5C 29.8333,34.5 31.1667,34.5 32.5,34.5C 30.5,35.1667 28.5,35.8333 26.5,36.5C 24.9988,35.5573 23.6654,35.8906 22.5,37.5C 21.8999,36.0998 20.8999,35.0998 19.5,34.5C 19.8333,33.8333 20.1667,33.1667 20.5,32.5C 19.8429,31.684 18.5095,31.0174 16.5,30.5C 18.4147,30.7845 20.0813,30.4511 21.5,29.5 Z"/></g>
<g><path style="opacity:1" fill="#6f362a" d="M 53.5,31.5 C 53.5,32.1667 53.5,32.8333 53.5,33.5C 50.7972,35.1807 48.1305,36.8474 45.5,38.5C 44.5,38.5 43.5,38.5 42.5,38.5C 41.1667,38.5 39.8333,38.5 38.5,38.5C 40.6287,37.7972 42.6287,36.7972 44.5,35.5C 47.6071,34.4473 50.6071,33.114 53.5,31.5 Z"/></g>
<g><path style="opacity:1" fill="#3d8697" d="M 62.5,31.5 C 63.7383,31.81 63.7383,32.31 62.5,33C 63.6934,34.0946 65.0267,34.928 66.5,35.5C 66.631,36.2389 66.4643,36.9056 66,37.5C 64.6439,36.6198 63.1439,36.2865 61.5,36.5C 59.3926,35.5318 57.0593,35.1984 54.5,35.5C 54.8417,34.6618 55.5084,34.3284 56.5,34.5C 58.1992,34.6602 59.8659,34.4935 61.5,34C 60.1175,32.5391 60.4508,31.7058 62.5,31.5 Z"/></g>
<g><path style="opacity:1" fill="#9fcddc" d="M 62.5,31.5 C 62.5,31.1667 62.5,30.8333 62.5,30.5C 66.4689,31.4827 69.8023,33.4827 72.5,36.5C 72.5569,37.609 72.8902,38.609 73.5,39.5C 73.1667,39.5 72.8333,39.5 72.5,39.5C 70.5,38.1667 68.5,36.8333 66.5,35.5C 65.0267,34.928 63.6934,34.0946 62.5,33C 63.7383,32.31 63.7383,31.81 62.5,31.5 Z"/></g>
<g><path style="opacity:1" fill="#7c130f" d="M 32.5,34.5 C 33.1667,34.5 33.8333,34.5 34.5,34.5C 35.5236,35.138 36.5236,35.8047 37.5,36.5C 38.5837,36.315 39.5837,35.9817 40.5,35.5C 41.8333,35.5 43.1667,35.5 44.5,35.5C 42.6287,36.7972 40.6287,37.7972 38.5,38.5C 35.1667,38.5 31.8333,38.5 28.5,38.5C 27.5,38.1667 26.8333,37.5 26.5,36.5C 28.5,35.8333 30.5,35.1667 32.5,34.5 Z"/></g>
<g><path style="opacity:1" fill="#761619" d="M 43.5,31.5 C 43.5,31.8333 43.5,32.1667 43.5,32.5C 42.1667,33.1667 41.1667,34.1667 40.5,35.5C 39.5837,35.9817 38.5837,36.315 37.5,36.5C 36.5236,35.8047 35.5236,35.138 34.5,34.5C 35.5,33.8333 36.5,33.1667 37.5,32.5C 39.5648,32.4828 41.5648,32.1495 43.5,31.5 Z"/></g>
<g><path style="opacity:0.255" fill="#82a174" d="M 26.5,36.5 C 26.8333,37.5 27.5,38.1667 28.5,38.5C 28.5,38.8333 28.5,39.1667 28.5,39.5C 26.9557,39.2969 25.6223,38.6302 24.5,37.5C 23.5748,38.3569 22.9081,39.3569 22.5,40.5C 21.375,39.6522 21.375,38.6522 22.5,37.5C 23.6654,35.8906 24.9988,35.5573 26.5,36.5 Z"/></g>
<g><path style="opacity:1" fill="#2b5a7b" d="M 53.5,33.5 C 54.5,33.5 55.5,33.5 56.5,33.5C 56.5,33.8333 56.5,34.1667 56.5,34.5C 55.5084,34.3284 54.8417,34.6618 54.5,35.5C 53.5084,35.3284 52.8417,35.6618 52.5,36.5C 50.5168,37.4706 48.5168,38.4706 46.5,39.5C 46.5,38.8333 46.1667,38.5 45.5,38.5C 48.1305,36.8474 50.7972,35.1807 53.5,33.5 Z"/></g>
<g><path style="opacity:1" fill="#a0492f" d="M 19.5,34.5 C 20.8999,35.0998 21.8999,36.0998 22.5,37.5C 21.375,38.6522 21.375,39.6522 22.5,40.5C 22.5,40.8333 22.5,41.1667 22.5,41.5C 22.1667,41.5 21.8333,41.5 21.5,41.5C 20.8333,41.5 20.5,41.1667 20.5,40.5C 19.5,39.8333 18.5,39.1667 17.5,38.5C 17.6596,36.847 18.3263,35.5137 19.5,34.5 Z"/></g>
<g><path style="opacity:1" fill="#784e2e" d="M 28.5,39.5 C 28.5,39.1667 28.5,38.8333 28.5,38.5C 31.8333,38.5 35.1667,38.5 38.5,38.5C 39.8333,38.5 41.1667,38.5 42.5,38.5C 41.5,39.1667 40.5,39.8333 39.5,40.5C 37.8333,40.5 36.1667,40.5 34.5,40.5C 34.1667,40.5 33.8333,40.5 33.5,40.5C 32.0813,39.5489 30.4147,39.2155 28.5,39.5 Z"/></g>
<g><path style="opacity:1" fill="#8ed1d5" d="M 61.5,36.5 C 63.5,37.8333 65.5,39.1667 67.5,40.5C 66.8333,40.5 66.1667,40.5 65.5,40.5C 62.8495,39.5103 60.1828,38.5103 57.5,37.5C 56.5836,37.5427 55.9169,37.8761 55.5,38.5C 54.8333,38.5 54.5,38.8333 54.5,39.5C 53.8333,39.5 53.5,39.1667 53.5,38.5C 53.6107,37.8826 53.944,37.3826 54.5,37C 56.8098,36.5034 59.1432,36.3367 61.5,36.5 Z"/></g>
<g><path style="opacity:1" fill="#539b98" d="M 66.5,35.5 C 68.5,36.8333 70.5,38.1667 72.5,39.5C 72.5,39.8333 72.5,40.1667 72.5,40.5C 70.8333,40.5 69.1667,40.5 67.5,40.5C 65.5,39.1667 63.5,37.8333 61.5,36.5C 63.1439,36.2865 64.6439,36.6198 66,37.5C 66.4643,36.9056 66.631,36.2389 66.5,35.5 Z"/></g>
<g><path style="opacity:1" fill="#f4fcfc" d="M 65.5,40.5 C 65.5,40.8333 65.5,41.1667 65.5,41.5C 64.3157,42.6879 64.3157,43.8545 65.5,45C 64.2068,45.49 62.8734,45.6567 61.5,45.5C 61.1667,45.5 60.8333,45.5 60.5,45.5C 58.369,43.3894 56.7023,41.0561 55.5,38.5C 55.9169,37.8761 56.5836,37.5427 57.5,37.5C 60.1828,38.5103 62.8495,39.5103 65.5,40.5 Z"/></g>
<g><path style="opacity:1" fill="#a27e76" d="M 77.5,38.5 C 80.1119,40.0522 81.4452,42.3855 81.5,45.5C 81.1667,45.5 80.8333,45.5 80.5,45.5C 79.758,43.0202 78.758,40.6869 77.5,38.5 Z"/></g>
<g><path style="opacity:1" fill="#309099" d="M 52.5,36.5 C 50.4318,39.2532 49.0985,42.2532 48.5,45.5C 48.8333,42.5 47.5,41.1667 44.5,41.5C 44.8333,40.5 45.5,39.8333 46.5,39.5C 48.5168,38.4706 50.5168,37.4706 52.5,36.5 Z"/></g>
<g><path style="opacity:1" fill="#418285" d="M 72.5,39.5 C 72.8333,39.5 73.1667,39.5 73.5,39.5C 76.0922,41.0361 77.0922,43.3695 76.5,46.5C 75.8333,45.8333 75.1667,45.1667 74.5,44.5C 74.0679,43.2905 73.4013,42.2905 72.5,41.5C 72.5,41.1667 72.5,40.8333 72.5,40.5C 72.5,40.1667 72.5,39.8333 72.5,39.5 Z"/></g>
<g><path style="opacity:1" fill="#993a0c" d="M 72.5,36.5 C 74.5529,36.4021 76.2196,37.0687 77.5,38.5C 78.758,40.6869 79.758,43.0202 80.5,45.5C 80.5654,45.9382 80.3988,46.2716 80,46.5C 79.6667,45.8333 79.3333,45.1667 79,44.5C 78.6232,45.9423 77.7899,46.9423 76.5,47.5C 76.5,47.1667 76.5,46.8333 76.5,46.5C 77.0922,43.3695 76.0922,41.0361 73.5,39.5C 72.8902,38.609 72.5569,37.609 72.5,36.5 Z"/></g>
<g><path style="opacity:1" fill="#0e3453" d="M 34.5,40.5 C 36.1667,40.5 37.8333,40.5 39.5,40.5C 40.2389,40.369 40.9056,40.5357 41.5,41C 38.7187,41.8424 37.052,43.6757 36.5,46.5C 36.1667,46.5 35.8333,46.5 35.5,46.5C 34.8333,46.5 34.1667,46.5 33.5,46.5C 33.5,45.5 33.5,44.5 33.5,43.5C 34.1098,42.609 34.4431,41.609 34.5,40.5 Z"/></g>
<g><path style="opacity:1" fill="#6cb782" d="M 65.5,41.5 C 65.5,41.1667 65.5,40.8333 65.5,40.5C 66.1667,40.5 66.8333,40.5 67.5,40.5C 69.1667,40.5 70.8333,40.5 72.5,40.5C 72.5,40.8333 72.5,41.1667 72.5,41.5C 70.1582,42.2107 69.8249,43.544 71.5,45.5C 71.5,46.5 71.5,47.5 71.5,48.5C 70.8333,47.8333 70.1667,47.1667 69.5,46.5C 68.396,44.6115 67.0627,42.9448 65.5,41.5 Z"/></g>
<g><path style="opacity:1" fill="#266271" d="M 28.5,39.5 C 30.4147,39.2155 32.0813,39.5489 33.5,40.5C 32.5,40.5 31.5,40.5 30.5,40.5C 30.5979,42.5529 29.9313,44.2196 28.5,45.5C 28.7373,44.209 28.404,43.209 27.5,42.5C 28.1098,41.609 28.4431,40.609 28.5,39.5 Z"/></g>
<g><path style="opacity:1" fill="#0d3166" d="M 33.5,40.5 C 33.8333,40.5 34.1667,40.5 34.5,40.5C 34.4431,41.609 34.1098,42.609 33.5,43.5C 31.3763,44.0312 29.8763,45.3645 29,47.5C 28.6012,47.2716 28.4346,46.9382 28.5,46.5C 28.5,46.1667 28.5,45.8333 28.5,45.5C 29.9313,44.2196 30.5979,42.5529 30.5,40.5C 31.5,40.5 32.5,40.5 33.5,40.5 Z"/></g>
<g><path style="opacity:1" fill="#184f5a" d="M 42.5,38.5 C 43.5,38.5 44.5,38.5 45.5,38.5C 46.1667,38.5 46.5,38.8333 46.5,39.5C 45.5,39.8333 44.8333,40.5 44.5,41.5C 43.8826,41.6107 43.3826,41.944 43,42.5C 42.9378,44.1147 42.7711,45.4481 42.5,46.5C 42.1667,46.5 41.8333,46.5 41.5,46.5C 39.8333,46.5 38.1667,46.5 36.5,46.5C 37.052,43.6757 38.7187,41.8424 41.5,41C 40.9056,40.5357 40.2389,40.369 39.5,40.5C 40.5,39.8333 41.5,39.1667 42.5,38.5 Z"/></g>
<g><path style="opacity:1" fill="#55c9cc" d="M 52.5,39.5 C 52.2641,42.6085 52.5975,45.6085 53.5,48.5C 52.5,48.5 51.5,48.5 50.5,48.5C 50.2153,45.1709 50.8819,42.1709 52.5,39.5 Z"/></g>
<g><path style="opacity:1" fill="#4cadb2" d="M 54.5,35.5 C 57.0593,35.1984 59.3926,35.5318 61.5,36.5C 59.1432,36.3367 56.8098,36.5034 54.5,37C 53.944,37.3826 53.6107,37.8826 53.5,38.5C 52.8333,38.5 52.5,38.8333 52.5,39.5C 50.8819,42.1709 50.2153,45.1709 50.5,48.5C 50.1667,48.5 49.8333,48.5 49.5,48.5C 49.1667,48.5 48.8333,48.5 48.5,48.5C 47.0413,48.5674 45.7079,48.2341 44.5,47.5C 45.6715,46.6554 47.0048,45.9887 48.5,45.5C 49.0985,42.2532 50.4318,39.2532 52.5,36.5C 52.8417,35.6618 53.5084,35.3284 54.5,35.5 Z"/></g>
<g><path style="opacity:1" fill="#c7f6f7" d="M 55.5,38.5 C 56.7023,41.0561 58.369,43.3894 60.5,45.5C 59.8333,45.8333 59.1667,46.1667 58.5,46.5C 56.2947,44.6366 54.9613,42.3033 54.5,39.5C 54.5,38.8333 54.8333,38.5 55.5,38.5 Z"/></g>
<g><path style="opacity:1" fill="#c87a14" d="M 20.5,40.5 C 20.5,41.1667 20.8333,41.5 21.5,41.5C 21.5923,45.0714 19.9257,46.2381 16.5,45C 15.3239,41.6908 16.6572,40.1908 20.5,40.5 Z"/></g>
<g><path style="opacity:1" fill="#3c9761" d="M 44.5,41.5 C 47.5,41.1667 48.8333,42.5 48.5,45.5C 47.0048,45.9887 45.6715,46.6554 44.5,47.5C 43.5084,47.6716 42.8417,47.3382 42.5,46.5C 42.7711,45.4481 42.9378,44.1147 43,42.5C 43.3826,41.944 43.8826,41.6107 44.5,41.5 Z"/></g>
<g><path style="opacity:1" fill="#a63e0e" d="M 17.5,38.5 C 18.5,39.1667 19.5,39.8333 20.5,40.5C 16.6572,40.1908 15.3239,41.6908 16.5,45C 19.9257,46.2381 21.5923,45.0714 21.5,41.5C 21.8333,41.5 22.1667,41.5 22.5,41.5C 23.8333,43.1667 23.8333,44.8333 22.5,46.5C 21.391,46.5569 20.391,46.8902 19.5,47.5C 15.686,47.3491 14.0193,45.3491 14.5,41.5C 15.5,40.5 16.5,39.5 17.5,38.5 Z"/></g>
<g><path style="opacity:0.808" fill="#54bd99" d="M 27.5,42.5 C 28.404,43.209 28.7373,44.209 28.5,45.5C 28.5,45.8333 28.5,46.1667 28.5,46.5C 27.8333,47.1667 27.1667,47.8333 26.5,48.5C 26.5,47.8333 26.5,47.1667 26.5,46.5C 26.8333,45.1667 27.1667,43.8333 27.5,42.5 Z"/></g>
<g><path style="opacity:1" fill="#77e4e6" d="M 53.5,38.5 C 53.5,39.1667 53.8333,39.5 54.5,39.5C 54.9613,42.3033 56.2947,44.6366 58.5,46.5C 58.5,46.8333 58.5,47.1667 58.5,47.5C 56.9582,48.3007 55.2915,48.634 53.5,48.5C 52.5975,45.6085 52.2641,42.6085 52.5,39.5C 52.5,38.8333 52.8333,38.5 53.5,38.5 Z"/></g>
<g><path style="opacity:1" fill="#e6f8ef" d="M 65.5,41.5 C 67.0627,42.9448 68.396,44.6115 69.5,46.5C 68.962,48.1172 68.6287,49.7839 68.5,51.5C 67.1667,51.5 65.8333,51.5 64.5,51.5C 63.5294,49.5168 62.5294,47.5168 61.5,45.5C 62.8734,45.6567 64.2068,45.49 65.5,45C 64.3157,43.8545 64.3157,42.6879 65.5,41.5 Z"/></g>
<g><path style="opacity:1" fill="#68b544" d="M 72.5,41.5 C 73.4013,42.2905 74.0679,43.2905 74.5,44.5C 74.6602,46.1992 74.4935,47.8659 74,49.5C 73.6174,48.944 73.1174,48.6107 72.5,48.5C 72.7373,47.209 72.404,46.209 71.5,45.5C 69.8249,43.544 70.1582,42.2107 72.5,41.5 Z"/></g>
<g><path style="opacity:0.514" fill="#b39199" d="M 14.5,41.5 C 14.0193,45.3491 15.686,47.3491 19.5,47.5C 19.5,47.8333 19.5,48.1667 19.5,48.5C 17.4705,49.2724 15.6371,48.6057 14,46.5C 13.2204,44.6131 13.3871,42.9464 14.5,41.5 Z"/></g>
<g><path style="opacity:0.031" fill="#97b156" d="M 22.5,46.5 C 22.0269,47.9063 21.0269,48.573 19.5,48.5C 19.5,48.1667 19.5,47.8333 19.5,47.5C 20.391,46.8902 21.391,46.5569 22.5,46.5 Z"/></g>
<g><path style="opacity:1" fill="#246283" d="M 33.5,43.5 C 33.5,44.5 33.5,45.5 33.5,46.5C 30.9108,47.4194 28.9108,49.086 27.5,51.5C 27.5,51.8333 27.5,52.1667 27.5,52.5C 26.5655,53.5676 26.2322,54.901 26.5,56.5C 26.1667,56.5 25.8333,56.5 25.5,56.5C 25.2786,53.7212 25.612,51.0545 26.5,48.5C 27.1667,47.8333 27.8333,47.1667 28.5,46.5C 28.4346,46.9382 28.6012,47.2716 29,47.5C 29.8763,45.3645 31.3763,44.0312 33.5,43.5 Z"/></g>
<g><path style="opacity:1" fill="#b9f6d8" d="M 60.5,45.5 C 60.8333,45.5 61.1667,45.5 61.5,45.5C 62.5294,47.5168 63.5294,49.5168 64.5,51.5C 63.609,50.8902 62.609,50.5569 61.5,50.5C 60.8333,49.1667 59.8333,48.1667 58.5,47.5C 58.5,47.1667 58.5,46.8333 58.5,46.5C 59.1667,46.1667 59.8333,45.8333 60.5,45.5 Z"/></g>
<g><path style="opacity:1" fill="#246f10" d="M 33.5,46.5 C 34.1667,46.5 34.8333,46.5 35.5,46.5C 34.0474,47.8249 34.3808,48.6582 36.5,49C 33.8294,50.903 30.8294,51.7363 27.5,51.5C 28.9108,49.086 30.9108,47.4194 33.5,46.5 Z"/></g>
<g><path style="opacity:1" fill="#3b9232" d="M 74.5,44.5 C 75.1667,45.1667 75.8333,45.8333 76.5,46.5C 76.5,46.8333 76.5,47.1667 76.5,47.5C 75.8333,49.1667 75.1667,50.8333 74.5,52.5C 73.8333,52.8333 73.1667,53.1667 72.5,53.5C 72.5,51.8333 72.5,50.1667 72.5,48.5C 73.1174,48.6107 73.6174,48.944 74,49.5C 74.4935,47.8659 74.6602,46.1992 74.5,44.5 Z"/></g>
<g><path style="opacity:1" fill="#47a935" d="M 41.5,46.5 C 41.8333,46.5 42.1667,46.5 42.5,46.5C 42.8417,47.3382 43.5084,47.6716 44.5,47.5C 45.7079,48.2341 47.0413,48.5674 48.5,48.5C 48.5,49.8333 48.5,51.1667 48.5,52.5C 47.8333,52.5 47.1667,52.5 46.5,52.5C 44.8053,51.9886 43.1386,51.3219 41.5,50.5C 40.1931,49.135 40.1931,47.8016 41.5,46.5 Z"/></g>
<g><path style="opacity:1" fill="#94e583" d="M 48.5,48.5 C 48.8333,48.5 49.1667,48.5 49.5,48.5C 51.2646,49.4614 53.2646,49.7947 55.5,49.5C 55.4431,50.609 55.1098,51.609 54.5,52.5C 51.8333,54.1667 49.1667,55.8333 46.5,57.5C 46.5,56.8333 46.1667,56.5 45.5,56.5C 46.5,55.8333 47.5,55.1667 48.5,54.5C 50.9327,53.4523 50.9327,52.7856 48.5,52.5C 48.5,51.1667 48.5,49.8333 48.5,48.5 Z"/></g>
<g><path style="opacity:1" fill="#379b14" d="M 35.5,46.5 C 35.8333,46.5 36.1667,46.5 36.5,46.5C 37.8284,47.5072 38.8284,48.8405 39.5,50.5C 39.1543,51.6956 38.6543,51.6956 38,50.5C 37.5357,51.0944 37.369,51.7611 37.5,52.5C 34.0749,53.2122 30.7415,53.2122 27.5,52.5C 27.5,52.1667 27.5,51.8333 27.5,51.5C 30.8294,51.7363 33.8294,50.903 36.5,49C 34.3808,48.6582 34.0474,47.8249 35.5,46.5 Z"/></g>
<g><path style="opacity:1" fill="#7feab2" d="M 58.5,47.5 C 59.8333,48.1667 60.8333,49.1667 61.5,50.5C 60.8946,52.4812 59.8946,52.8146 58.5,51.5C 57.7777,50.4489 56.7777,49.7822 55.5,49.5C 53.2646,49.7947 51.2646,49.4614 49.5,48.5C 49.8333,48.5 50.1667,48.5 50.5,48.5C 51.5,48.5 52.5,48.5 53.5,48.5C 55.2915,48.634 56.9582,48.3007 58.5,47.5 Z"/></g>
<g><path style="opacity:1" fill="#5abe2e" d="M 36.5,46.5 C 38.1667,46.5 39.8333,46.5 41.5,46.5C 40.1931,47.8016 40.1931,49.135 41.5,50.5C 43.1386,51.3219 44.8053,51.9886 46.5,52.5C 44.3926,53.4682 42.0593,53.8016 39.5,53.5C 38.8333,53.1667 38.1667,52.8333 37.5,52.5C 37.369,51.7611 37.5357,51.0944 38,50.5C 38.6543,51.6956 39.1543,51.6956 39.5,50.5C 38.8284,48.8405 37.8284,47.5072 36.5,46.5 Z"/></g>
<g><path style="opacity:1" fill="#62d984" d="M 55.5,49.5 C 56.7777,49.7822 57.7777,50.4489 58.5,51.5C 58.5,52.5 58.5,53.5 58.5,54.5C 58.5,54.8333 58.5,55.1667 58.5,55.5C 57.5,55.5 56.5,55.5 55.5,55.5C 54.8902,54.609 54.5569,53.609 54.5,52.5C 55.1098,51.609 55.4431,50.609 55.5,49.5 Z"/></g>
<g><path style="opacity:1" fill="#b8e4c5" d="M 69.5,46.5 C 70.1667,47.1667 70.8333,47.8333 71.5,48.5C 71.7475,50.8583 71.0808,52.8583 69.5,54.5C 67.901,54.7678 66.5676,54.4345 65.5,53.5C 65.1667,52.8333 64.8333,52.1667 64.5,51.5C 65.8333,51.5 67.1667,51.5 68.5,51.5C 68.6287,49.7839 68.962,48.1172 69.5,46.5 Z"/></g>
<g><path style="opacity:1" fill="#b85c0a" d="M 80.5,45.5 C 80.8333,45.5 81.1667,45.5 81.5,45.5C 81.5,46.8333 81.5,48.1667 81.5,49.5C 81.5,50.8333 81.5,52.1667 81.5,53.5C 80.8333,55.5 80.1667,57.5 79.5,59.5C 79.6747,57.3792 79.3414,55.3792 78.5,53.5C 79.8988,51.555 79.8988,50.555 78.5,50.5C 76.9382,50.7329 75.6049,51.3995 74.5,52.5C 75.1667,50.8333 75.8333,49.1667 76.5,47.5C 77.7899,46.9423 78.6232,45.9423 79,44.5C 79.3333,45.1667 79.6667,45.8333 80,46.5C 80.3988,46.2716 80.5654,45.9382 80.5,45.5 Z"/></g>
<g><path style="opacity:1" fill="#ae6137" d="M 81.5,49.5 C 82.1667,51.5 82.8333,53.5 83.5,55.5C 83.702,57.9496 83.3686,60.283 82.5,62.5C 82.1667,62.5 81.8333,62.5 81.5,62.5C 81.5,59.5 81.5,56.5 81.5,53.5C 81.5,52.1667 81.5,50.8333 81.5,49.5 Z"/></g>
<g><path style="opacity:1" fill="#43b418" d="M 27.5,52.5 C 30.7415,53.2122 34.0749,53.2122 37.5,52.5C 38.1667,52.8333 38.8333,53.1667 39.5,53.5C 39.5,53.8333 39.5,54.1667 39.5,54.5C 35.6286,54.185 31.9619,54.5184 28.5,55.5C 27.596,54.791 27.2627,53.791 27.5,52.5 Z"/></g>
<g><path style="opacity:1" fill="#60ce37" d="M 46.5,52.5 C 47.1667,52.5 47.8333,52.5 48.5,52.5C 50.9327,52.7856 50.9327,53.4523 48.5,54.5C 46.4352,54.5172 44.4352,54.8505 42.5,55.5C 41.791,54.596 40.791,54.2627 39.5,54.5C 39.5,54.1667 39.5,53.8333 39.5,53.5C 42.0593,53.8016 44.3926,53.4682 46.5,52.5 Z"/></g>
<g><path style="opacity:1" fill="#8ce4ae" d="M 61.5,50.5 C 62.609,50.5569 63.609,50.8902 64.5,51.5C 64.8333,52.1667 65.1667,52.8333 65.5,53.5C 63.139,53.6741 60.8056,54.0074 58.5,54.5C 58.5,53.5 58.5,52.5 58.5,51.5C 59.8946,52.8146 60.8946,52.4812 61.5,50.5 Z"/></g>
<g><path style="opacity:1" fill="#65b46b" d="M 71.5,45.5 C 72.404,46.209 72.7373,47.209 72.5,48.5C 72.5,50.1667 72.5,51.8333 72.5,53.5C 71.8333,54.8333 70.8333,55.8333 69.5,56.5C 69.5,55.8333 69.5,55.1667 69.5,54.5C 71.0808,52.8583 71.7475,50.8583 71.5,48.5C 71.5,47.5 71.5,46.5 71.5,45.5 Z"/></g>
<g><path style="opacity:1" fill="#93d85d" d="M 26.5,46.5 C 26.5,47.1667 26.5,47.8333 26.5,48.5C 25.612,51.0545 25.2786,53.7212 25.5,56.5C 25.5,58.1667 25.5,59.8333 25.5,61.5C 24.8333,59.8333 24.1667,58.1667 23.5,56.5C 23.32,52.7144 24.32,49.381 26.5,46.5 Z"/></g>
<g><path style="opacity:1" fill="#56cb25" d="M 39.5,54.5 C 40.791,54.2627 41.791,54.596 42.5,55.5C 39.4816,55.3354 36.4816,55.502 33.5,56C 31.273,56.704 30.9397,57.8706 32.5,59.5C 30.2901,59.106 28.9568,57.7727 28.5,55.5C 31.9619,54.5184 35.6286,54.185 39.5,54.5 Z"/></g>
<g><path style="opacity:0.722" fill="#ac9183" d="M 81.5,45.5 C 83.1745,48.5072 83.8412,51.8405 83.5,55.5C 82.8333,53.5 82.1667,51.5 81.5,49.5C 81.5,48.1667 81.5,46.8333 81.5,45.5 Z"/></g>
<g><path style="opacity:1" fill="#87d38b" d="M 65.5,53.5 C 66.5676,54.4345 67.901,54.7678 69.5,54.5C 69.5,55.1667 69.5,55.8333 69.5,56.5C 69.1667,57.1667 68.8333,57.8333 68.5,58.5C 66.9505,59.4408 65.2838,60.1075 63.5,60.5C 62.7375,59.7321 61.7375,59.2321 60.5,59C 59.9152,57.6976 59.2485,56.531 58.5,55.5C 58.5,55.1667 58.5,54.8333 58.5,54.5C 60.8056,54.0074 63.139,53.6741 65.5,53.5 Z"/></g>
<g><path style="opacity:1" fill="#ebc334" d="M 78.5,50.5 C 76.8847,53.4495 74.8847,56.1162 72.5,58.5C 71.8333,58.5 71.1667,58.5 70.5,58.5C 69.8333,58.5 69.1667,58.5 68.5,58.5C 68.8333,57.8333 69.1667,57.1667 69.5,56.5C 70.8333,55.8333 71.8333,54.8333 72.5,53.5C 73.1667,53.1667 73.8333,52.8333 74.5,52.5C 75.6049,51.3995 76.9382,50.7329 78.5,50.5 Z"/></g>
<g><path style="opacity:1" fill="#96e641" d="M 48.5,54.5 C 47.5,55.1667 46.5,55.8333 45.5,56.5C 43.0326,56.7549 41.0326,57.7549 39.5,59.5C 37.1667,59.5 34.8333,59.5 32.5,59.5C 30.9397,57.8706 31.273,56.704 33.5,56C 36.4816,55.502 39.4816,55.3354 42.5,55.5C 44.4352,54.8505 46.4352,54.5172 48.5,54.5 Z"/></g>
<g><path style="opacity:1" fill="#40bf28" d="M 54.5,52.5 C 54.5569,53.609 54.8902,54.609 55.5,55.5C 52.9823,56.2638 50.649,57.2638 48.5,58.5C 45.0336,60.0916 41.3669,60.7583 37.5,60.5C 35.8333,60.5 34.1667,60.5 32.5,60.5C 32.5,60.1667 32.5,59.8333 32.5,59.5C 34.8333,59.5 37.1667,59.5 39.5,59.5C 41.9653,59.233 44.2986,58.5664 46.5,57.5C 49.1667,55.8333 51.8333,54.1667 54.5,52.5 Z"/></g>
<g><path style="opacity:1" fill="#e2c36e" d="M 78.5,53.5 C 77.197,55.1423 75.8637,56.8089 74.5,58.5C 74.1667,58.5 73.8333,58.5 73.5,58.5C 73.1667,58.5 72.8333,58.5 72.5,58.5C 74.8847,56.1162 76.8847,53.4495 78.5,50.5C 79.8988,50.555 79.8988,51.555 78.5,53.5 Z"/></g>
<g><path style="opacity:1" fill="#c77b06" d="M 78.5,53.5 C 79.3414,55.3792 79.6747,57.3792 79.5,59.5C 78.8333,59.5 78.5,59.8333 78.5,60.5C 77.2921,59.7659 75.9587,59.4326 74.5,59.5C 74.5,59.1667 74.5,58.8333 74.5,58.5C 75.8637,56.8089 77.197,55.1423 78.5,53.5 Z"/></g>
<g><path style="opacity:1" fill="#ae500b" d="M 81.5,53.5 C 81.5,56.5 81.5,59.5 81.5,62.5C 80.5924,65.9875 78.9257,68.9875 76.5,71.5C 76.5,70.5 76.5,69.5 76.5,68.5C 76.5,68.1667 76.5,67.8333 76.5,67.5C 78.1675,65.5214 78.8342,63.188 78.5,60.5C 78.5,59.8333 78.8333,59.5 79.5,59.5C 80.1667,57.5 80.8333,55.5 81.5,53.5 Z"/></g>
<g><path style="opacity:1" fill="#179408" d="M 27.5,52.5 C 27.2627,53.791 27.596,54.791 28.5,55.5C 28.9568,57.7727 30.2901,59.106 32.5,59.5C 32.5,59.8333 32.5,60.1667 32.5,60.5C 31.6618,60.8417 31.3284,61.5084 31.5,62.5C 29.4842,60.751 27.8175,58.751 26.5,56.5C 26.2322,54.901 26.5655,53.5676 27.5,52.5 Z"/></g>
<g><path style="opacity:1" fill="#eefcc8" d="M 45.5,56.5 C 46.1667,56.5 46.5,56.8333 46.5,57.5C 44.2986,58.5664 41.9653,59.233 39.5,59.5C 41.0326,57.7549 43.0326,56.7549 45.5,56.5 Z"/></g>
<g><path style="opacity:1" fill="#9bd870" d="M 55.5,55.5 C 56.5,55.5 57.5,55.5 58.5,55.5C 59.2485,56.531 59.9152,57.6976 60.5,59C 61.7375,59.2321 62.7375,59.7321 63.5,60.5C 62.5637,61.9744 61.2303,62.9744 59.5,63.5C 59.7678,61.901 59.4345,60.5676 58.5,59.5C 58.1788,57.9519 57.1788,57.2852 55.5,57.5C 55.5,56.8333 55.5,56.1667 55.5,55.5 Z"/></g>
<g><path style="opacity:1" fill="#954828" d="M 70.5,58.5 C 71.1667,58.5 71.8333,58.5 72.5,58.5C 72.8333,58.5 73.1667,58.5 73.5,58.5C 73.5983,61.2476 72.5983,61.9143 70.5,60.5C 70.5,60.1667 70.5,59.8333 70.5,59.5C 70.5,59.1667 70.5,58.8333 70.5,58.5 Z"/></g>
<g><path style="opacity:1" fill="#117900" d="M 32.5,60.5 C 34.1667,60.5 35.8333,60.5 37.5,60.5C 37.5,60.8333 37.5,61.1667 37.5,61.5C 35.8583,63.0808 33.8583,63.7475 31.5,63.5C 31.5,63.1667 31.5,62.8333 31.5,62.5C 31.3284,61.5084 31.6618,60.8417 32.5,60.5 Z"/></g>
<g><path style="opacity:1" fill="#378b04" d="M 48.5,58.5 C 48.0432,60.7727 46.7099,62.106 44.5,62.5C 43.8333,62.5 43.1667,62.5 42.5,62.5C 41.8333,62.5 41.1667,62.5 40.5,62.5C 39.391,62.4431 38.391,62.1098 37.5,61.5C 37.5,61.1667 37.5,60.8333 37.5,60.5C 41.3669,60.7583 45.0336,60.0916 48.5,58.5 Z"/></g>
<g><path style="opacity:1" fill="#98dc1f" d="M 55.5,57.5 C 55.5,58.5 55.5,59.5 55.5,60.5C 54.5,60.5 53.5,60.5 52.5,60.5C 52.5,61.5 52.5,62.5 52.5,63.5C 51.5,63.5 50.5,63.5 49.5,63.5C 49.5,62.8333 49.5,62.1667 49.5,61.5C 50.4647,58.6803 52.4647,57.3469 55.5,57.5 Z"/></g>
<g><path style="opacity:1" fill="#f1de33" d="M 68.5,58.5 C 69.1667,58.5 69.8333,58.5 70.5,58.5C 70.5,58.8333 70.5,59.1667 70.5,59.5C 65.63,62.7662 60.63,65.7662 55.5,68.5C 54.5,68.5 53.5,68.5 52.5,68.5C 54.5,67.1667 56.5,65.8333 58.5,64.5C 58.5,63.8333 58.8333,63.5 59.5,63.5C 61.2303,62.9744 62.5637,61.9744 63.5,60.5C 65.2838,60.1075 66.9505,59.4408 68.5,58.5 Z"/></g>
<g><path style="opacity:1" fill="#55a57e" d="M 25.5,56.5 C 25.8333,56.5 26.1667,56.5 26.5,56.5C 26.5172,58.5648 26.8505,60.5648 27.5,62.5C 27.8333,63.8333 28.1667,65.1667 28.5,66.5C 27.8333,66.5 27.1667,66.5 26.5,66.5C 25.962,64.8828 25.6287,63.2161 25.5,61.5C 25.5,59.8333 25.5,58.1667 25.5,56.5 Z"/></g>
<g><path style="opacity:1" fill="#7bbf1a" d="M 55.5,55.5 C 55.5,56.1667 55.5,56.8333 55.5,57.5C 52.4647,57.3469 50.4647,58.6803 49.5,61.5C 48.2058,62.2899 47.0391,63.2899 46,64.5C 45.2828,63.9558 44.7828,63.2891 44.5,62.5C 46.7099,62.106 48.0432,60.7727 48.5,58.5C 50.649,57.2638 52.9823,56.2638 55.5,55.5 Z"/></g>
<g><path style="opacity:1" fill="#a7e024" d="M 55.5,57.5 C 57.1788,57.2852 58.1788,57.9519 58.5,59.5C 57.6082,62.2921 55.6082,63.6254 52.5,63.5C 52.5,62.5 52.5,61.5 52.5,60.5C 53.5,60.5 54.5,60.5 55.5,60.5C 55.5,59.5 55.5,58.5 55.5,57.5 Z"/></g>
<g><path style="opacity:1" fill="#aa672a" d="M 23.5,56.5 C 24.1667,58.1667 24.8333,59.8333 25.5,61.5C 25.6287,63.2161 25.962,64.8828 26.5,66.5C 25.0755,64.9689 24.4088,65.3023 24.5,67.5C 22.7773,65.22 22.1107,62.5533 22.5,59.5C 22.5569,58.391 22.8902,57.391 23.5,56.5 Z"/></g>
<g><path style="opacity:1" fill="#55a008" d="M 37.5,61.5 C 38.391,62.1098 39.391,62.4431 40.5,62.5C 39.3646,64.2132 37.698,64.8799 35.5,64.5C 33.7367,65.9538 32.4033,65.6204 31.5,63.5C 33.8583,63.7475 35.8583,63.0808 37.5,61.5 Z"/></g>
<g><path style="opacity:1" fill="#fcf3d7" d="M 70.5,59.5 C 70.5,59.8333 70.5,60.1667 70.5,60.5C 69.027,62.3947 67.3603,64.0613 65.5,65.5C 62.5738,66.6976 59.5738,67.6976 56.5,68.5C 56.1667,68.5 55.8333,68.5 55.5,68.5C 60.63,65.7662 65.63,62.7662 70.5,59.5 Z"/></g>
<g><path style="opacity:1" fill="#d79f1b" d="M 73.5,58.5 C 73.8333,58.5 74.1667,58.5 74.5,58.5C 74.5,58.8333 74.5,59.1667 74.5,59.5C 74.3601,61.1238 75.0267,62.2904 76.5,63C 75.7334,64.4705 75.0668,65.9705 74.5,67.5C 73.2905,67.9321 72.2905,68.5987 71.5,69.5C 70.5,69.5 69.5,69.5 68.5,69.5C 73.4502,63.4828 72.4502,62.1494 65.5,65.5C 67.3603,64.0613 69.027,62.3947 70.5,60.5C 72.5983,61.9143 73.5983,61.2476 73.5,58.5 Z"/></g>
<g><path style="opacity:1" fill="#75c221" d="M 40.5,62.5 C 41.1667,62.5 41.8333,62.5 42.5,62.5C 42.5569,63.609 42.8902,64.609 43.5,65.5C 41.2362,66.2186 38.9029,66.552 36.5,66.5C 36.1667,65.8333 35.8333,65.1667 35.5,64.5C 37.698,64.8799 39.3646,64.2132 40.5,62.5 Z"/></g>
<g><path style="opacity:1" fill="#91e121" d="M 58.5,59.5 C 59.4345,60.5676 59.7678,61.901 59.5,63.5C 58.8333,63.5 58.5,63.8333 58.5,64.5C 55.8333,65.1667 53.1667,65.8333 50.5,66.5C 48.6182,65.779 48.2848,64.779 49.5,63.5C 50.5,63.5 51.5,63.5 52.5,63.5C 55.6082,63.6254 57.6082,62.2921 58.5,59.5 Z"/></g>
<g><path style="opacity:1" fill="#c7810a" d="M 74.5,59.5 C 75.9587,59.4326 77.2921,59.7659 78.5,60.5C 78.8342,63.188 78.1675,65.5214 76.5,67.5C 75.8333,67.5 75.1667,67.5 74.5,67.5C 75.0668,65.9705 75.7334,64.4705 76.5,63C 75.0267,62.2904 74.3601,61.1238 74.5,59.5 Z"/></g>
<g><path style="opacity:1" fill="#89d44e" d="M 27.5,62.5 C 29.5735,63.2995 31.2402,64.6329 32.5,66.5C 32.8333,67.1667 33.1667,67.8333 33.5,68.5C 31.302,68.8799 29.6354,68.2132 28.5,66.5C 28.1667,65.1667 27.8333,63.8333 27.5,62.5 Z"/></g>
<g><path style="opacity:1" fill="#4cba0d" d="M 26.5,56.5 C 27.8175,58.751 29.4842,60.751 31.5,62.5C 31.5,62.8333 31.5,63.1667 31.5,63.5C 32.4033,65.6204 33.7367,65.9538 35.5,64.5C 35.8333,65.1667 36.1667,65.8333 36.5,66.5C 35.1667,66.5 33.8333,66.5 32.5,66.5C 31.2402,64.6329 29.5735,63.2995 27.5,62.5C 26.8505,60.5648 26.5172,58.5648 26.5,56.5 Z"/></g>
<g><path style="opacity:1" fill="#83d016" d="M 49.5,61.5 C 49.5,62.1667 49.5,62.8333 49.5,63.5C 48.2848,64.779 48.6182,65.779 50.5,66.5C 50.1583,67.3382 49.4916,67.6716 48.5,67.5C 46.8333,66.8333 45.1667,66.1667 43.5,65.5C 42.8902,64.609 42.5569,63.609 42.5,62.5C 43.1667,62.5 43.8333,62.5 44.5,62.5C 44.7828,63.2891 45.2828,63.9558 46,64.5C 47.0391,63.2899 48.2058,62.2899 49.5,61.5 Z"/></g>
<g><path style="opacity:1" fill="#50b415" d="M 43.5,65.5 C 45.1667,66.1667 46.8333,66.8333 48.5,67.5C 47.8333,67.5 47.5,67.8333 47.5,68.5C 45.139,68.6741 42.8056,69.0074 40.5,69.5C 38.1667,69.5 35.8333,69.5 33.5,69.5C 33.5,69.1667 33.5,68.8333 33.5,68.5C 33.1667,67.8333 32.8333,67.1667 32.5,66.5C 33.8333,66.5 35.1667,66.5 36.5,66.5C 38.9029,66.552 41.2362,66.2186 43.5,65.5 Z"/></g>
<g><path style="opacity:1" fill="#a66609" d="M 58.5,64.5 C 56.5,65.8333 54.5,67.1667 52.5,68.5C 51.1667,68.5 49.8333,68.5 48.5,68.5C 48.1667,68.5 47.8333,68.5 47.5,68.5C 47.5,67.8333 47.8333,67.5 48.5,67.5C 49.4916,67.6716 50.1583,67.3382 50.5,66.5C 53.1667,65.8333 55.8333,65.1667 58.5,64.5 Z"/></g>
<g><path style="opacity:1" fill="#dfb014" d="M 68.5,69.5 C 67.1805,70.9418 65.5138,71.6085 63.5,71.5C 63.1667,71.5 62.8333,71.5 62.5,71.5C 62.1961,70.8501 61.8627,70.1835 61.5,69.5C 62.8665,68.16 64.1999,66.8267 65.5,65.5C 72.4502,62.1494 73.4502,63.4828 68.5,69.5 Z"/></g>
<g><path style="opacity:1" fill="#d09310" d="M 65.5,65.5 C 64.1999,66.8267 62.8665,68.16 61.5,69.5C 61.8627,70.1835 62.1961,70.8501 62.5,71.5C 60.7839,71.3713 59.1172,71.038 57.5,70.5C 57.5,69.8333 57.1667,69.5 56.5,69.5C 56.5,69.1667 56.5,68.8333 56.5,68.5C 59.5738,67.6976 62.5738,66.6976 65.5,65.5 Z"/></g>
<g><path style="opacity:1" fill="#c1780a" d="M 74.5,67.5 C 75.1667,67.5 75.8333,67.5 76.5,67.5C 76.5,67.8333 76.5,68.1667 76.5,68.5C 75.2367,70.8075 73.2367,72.1408 70.5,72.5C 70.5569,71.391 70.8902,70.391 71.5,69.5C 72.2905,68.5987 73.2905,67.9321 74.5,67.5 Z"/></g>
<g><path style="opacity:0.686" fill="#b26756" d="M 81.5,62.5 C 81.8333,62.5 82.1667,62.5 82.5,62.5C 81.2699,68.6373 78.2699,73.6373 73.5,77.5C 72.8333,77.5 72.1667,77.5 71.5,77.5C 73.2194,75.4559 74.8861,73.4559 76.5,71.5C 78.9257,68.9875 80.5924,65.9875 81.5,62.5 Z"/></g>
<g><path style="opacity:1" fill="#9e6f24" d="M 26.5,66.5 C 27.1667,66.5 27.8333,66.5 28.5,66.5C 29.6354,68.2132 31.302,68.8799 33.5,68.5C 33.5,68.8333 33.5,69.1667 33.5,69.5C 31.6214,69.3932 31.2881,69.8932 32.5,71C 34.4727,71.4955 36.4727,71.6621 38.5,71.5C 39.5,71.5 40.5,71.5 41.5,71.5C 37.7016,72.4834 33.7016,72.8168 29.5,72.5C 29.0269,71.0937 28.0269,70.427 26.5,70.5C 25.8333,69.5 25.1667,68.5 24.5,67.5C 24.4088,65.3023 25.0755,64.9689 26.5,66.5 Z"/></g>
<g><path style="opacity:1" fill="#d9a5d4" d="M 22.5,59.5 C 22.1107,62.5533 22.7773,65.22 24.5,67.5C 25.1667,68.5 25.8333,69.5 26.5,70.5C 27.3485,73.6811 29.0152,76.3477 31.5,78.5C 31.5,78.8333 31.5,79.1667 31.5,79.5C 24.58,74.3462 21.58,67.6796 22.5,59.5 Z"/></g>
<g><path style="opacity:1" fill="#903202" d="M 33.5,69.5 C 35.8333,69.5 38.1667,69.5 40.5,69.5C 39.8333,70.1667 39.1667,70.8333 38.5,71.5C 36.4727,71.6621 34.4727,71.4955 32.5,71C 31.2881,69.8932 31.6214,69.3932 33.5,69.5 Z"/></g>
<g><path style="opacity:1" fill="#972203" d="M 47.5,68.5 C 47.8333,68.5 48.1667,68.5 48.5,68.5C 46.7392,69.3127 45.0725,70.3127 43.5,71.5C 42.8333,71.5 42.1667,71.5 41.5,71.5C 40.5,71.5 39.5,71.5 38.5,71.5C 39.1667,70.8333 39.8333,70.1667 40.5,69.5C 42.8056,69.0074 45.139,68.6741 47.5,68.5 Z"/></g>
<g><path style="opacity:1" fill="#d29e3e" d="M 48.5,68.5 C 49.8333,68.5 51.1667,68.5 52.5,68.5C 53.5,68.5 54.5,68.5 55.5,68.5C 55.8333,68.5 56.1667,68.5 56.5,68.5C 56.5,68.8333 56.5,69.1667 56.5,69.5C 53.2154,69.9281 50.2154,70.9281 47.5,72.5C 47.1667,72.5 46.8333,72.5 46.5,72.5C 45.5,72.5 44.5,72.5 43.5,72.5C 43.5,72.1667 43.5,71.8333 43.5,71.5C 45.0725,70.3127 46.7392,69.3127 48.5,68.5 Z"/></g>
<g><path style="opacity:1" fill="#c8850d" d="M 68.5,69.5 C 69.5,69.5 70.5,69.5 71.5,69.5C 70.8902,70.391 70.5569,71.391 70.5,72.5C 68.6115,73.604 66.9448,74.9373 65.5,76.5C 64.8333,76.5 64.1667,76.5 63.5,76.5C 63.5,76.1667 63.5,75.8333 63.5,75.5C 64.1667,75.5 64.5,75.1667 64.5,74.5C 65.0431,74.44 65.3764,74.1067 65.5,73.5C 64.7573,72.8182 64.0906,72.1515 63.5,71.5C 65.5138,71.6085 67.1805,70.9418 68.5,69.5 Z"/></g>
<g><path style="opacity:1" fill="#bf7009" d="M 56.5,69.5 C 57.1667,69.5 57.5,69.8333 57.5,70.5C 56.8902,71.391 56.5569,72.391 56.5,73.5C 55.8333,73.5 55.5,73.8333 55.5,74.5C 54.1667,74.5 52.8333,74.5 51.5,74.5C 49.9382,74.2671 48.6049,73.6005 47.5,72.5C 50.2154,70.9281 53.2154,69.9281 56.5,69.5 Z"/></g>
<g><path style="opacity:1" fill="#8f3203" d="M 57.5,70.5 C 59.1172,71.038 60.7839,71.3713 62.5,71.5C 62.8333,71.5 63.1667,71.5 63.5,71.5C 64.0906,72.1515 64.7573,72.8182 65.5,73.5C 65.3764,74.1067 65.0431,74.44 64.5,74.5C 62.3035,72.4554 59.9702,72.1221 57.5,73.5C 57.1667,73.5 56.8333,73.5 56.5,73.5C 56.5569,72.391 56.8902,71.391 57.5,70.5 Z"/></g>
<g><path style="opacity:1" fill="#b57581" d="M 26.5,70.5 C 28.0269,70.427 29.0269,71.0937 29.5,72.5C 30.5,74.1667 31.8333,75.5 33.5,76.5C 34.5,77.8333 35.5,79.1667 36.5,80.5C 34.7162,80.1075 33.0495,79.4408 31.5,78.5C 29.0152,76.3477 27.3485,73.6811 26.5,70.5 Z"/></g>
<g><path style="opacity:1" fill="#a64c03" d="M 47.5,72.5 C 48.6049,73.6005 49.9382,74.2671 51.5,74.5C 52.8333,76.1667 54.1667,77.8333 55.5,79.5C 51.5713,78.5692 48.9047,76.2359 47.5,72.5 Z"/></g>
<g><path style="opacity:1" fill="#ad5905" d="M 64.5,74.5 C 64.5,75.1667 64.1667,75.5 63.5,75.5C 60.9179,75.9746 58.9179,75.3079 57.5,73.5C 59.9702,72.1221 62.3035,72.4554 64.5,74.5 Z"/></g>
<g><path style="opacity:1" fill="#862c0b" d="M 41.5,71.5 C 42.1667,71.5 42.8333,71.5 43.5,71.5C 43.5,71.8333 43.5,72.1667 43.5,72.5C 43.5,73.1667 43.1667,73.5 42.5,73.5C 39.5,73.5 36.5,73.5 33.5,73.5C 33.5,74.5 33.5,75.5 33.5,76.5C 31.8333,75.5 30.5,74.1667 29.5,72.5C 33.7016,72.8168 37.7016,72.4834 41.5,71.5 Z"/></g>
<g><path style="opacity:1" fill="#781300" d="M 42.5,73.5 C 42.9887,74.9952 43.6554,76.3285 44.5,77.5C 44.5299,78.4972 44.0299,79.1639 43,79.5C 40.2776,78.5559 37.7776,77.2225 35.5,75.5C 34.8165,75.8627 34.1499,76.1961 33.5,76.5C 33.5,75.5 33.5,74.5 33.5,73.5C 36.5,73.5 39.5,73.5 42.5,73.5 Z"/></g>
<g><path style="opacity:1" fill="#8f2d00" d="M 43.5,72.5 C 44.5,72.5 45.5,72.5 46.5,72.5C 46.3893,73.1174 46.056,73.6174 45.5,74C 47.16,75.4877 48.16,77.321 48.5,79.5C 48.1667,79.5 47.8333,79.5 47.5,79.5C 46.5,78.8333 45.5,78.1667 44.5,77.5C 43.6554,76.3285 42.9887,74.9952 42.5,73.5C 43.1667,73.5 43.5,73.1667 43.5,72.5 Z"/></g>
<g><path style="opacity:1" fill="#b86608" d="M 76.5,68.5 C 76.5,69.5 76.5,70.5 76.5,71.5C 73.0266,73.6524 69.3599,75.3191 65.5,76.5C 66.9448,74.9373 68.6115,73.604 70.5,72.5C 73.2367,72.1408 75.2367,70.8075 76.5,68.5 Z"/></g>
<g><path style="opacity:1" fill="#872308" d="M 44.5,77.5 C 45.5,78.1667 46.5,78.8333 47.5,79.5C 46.5525,80.9779 45.2191,81.9779 43.5,82.5C 41.4418,81.0669 39.1085,80.4003 36.5,80.5C 35.5,79.1667 34.5,77.8333 33.5,76.5C 34.1499,76.1961 34.8165,75.8627 35.5,75.5C 37.7776,77.2225 40.2776,78.5559 43,79.5C 44.0299,79.1639 44.5299,78.4972 44.5,77.5 Z"/></g>
<g><path style="opacity:1" fill="#9a3c02" d="M 46.5,72.5 C 46.8333,72.5 47.1667,72.5 47.5,72.5C 48.9047,76.2359 51.5713,78.5692 55.5,79.5C 55.5,79.8333 55.5,80.1667 55.5,80.5C 54.8333,80.5 54.1667,80.5 53.5,80.5C 51.7839,80.3713 50.1172,80.038 48.5,79.5C 48.16,77.321 47.16,75.4877 45.5,74C 46.056,73.6174 46.3893,73.1174 46.5,72.5 Z"/></g>
<g><path style="opacity:1" fill="#ce952e" d="M 56.5,73.5 C 56.8333,73.5 57.1667,73.5 57.5,73.5C 58.9179,75.3079 60.9179,75.9746 63.5,75.5C 63.5,75.8333 63.5,76.1667 63.5,76.5C 62.8333,76.5 62.5,76.8333 62.5,77.5C 61.1667,77.8333 59.8333,78.1667 58.5,78.5C 57.5,77.1667 56.5,75.8333 55.5,74.5C 55.5,73.8333 55.8333,73.5 56.5,73.5 Z"/></g>
<g><path style="opacity:1" fill="#af570c" d="M 76.5,71.5 C 74.8861,73.4559 73.2194,75.4559 71.5,77.5C 70.391,77.5569 69.391,77.8902 68.5,78.5C 66.7354,77.5386 64.7354,77.2053 62.5,77.5C 62.5,76.8333 62.8333,76.5 63.5,76.5C 64.1667,76.5 64.8333,76.5 65.5,76.5C 69.3599,75.3191 73.0266,73.6524 76.5,71.5 Z"/></g>
<g><path style="opacity:1" fill="#ad5403" d="M 51.5,74.5 C 52.8333,74.5 54.1667,74.5 55.5,74.5C 56.5,75.8333 57.5,77.1667 58.5,78.5C 58.5,78.8333 58.5,79.1667 58.5,79.5C 57.5,79.5 56.5,79.5 55.5,79.5C 54.1667,77.8333 52.8333,76.1667 51.5,74.5 Z"/></g>
<g><path style="opacity:1" fill="#a84b04" d="M 62.5,77.5 C 64.7354,77.2053 66.7354,77.5386 68.5,78.5C 67.3951,79.6005 66.0618,80.2671 64.5,80.5C 62.7354,79.5386 60.7354,79.2053 58.5,79.5C 58.5,79.1667 58.5,78.8333 58.5,78.5C 59.8333,78.1667 61.1667,77.8333 62.5,77.5 Z"/></g>
<g><path style="opacity:1" fill="#a14104" d="M 55.5,80.5 C 55.5,80.1667 55.5,79.8333 55.5,79.5C 56.5,79.5 57.5,79.5 58.5,79.5C 60.7354,79.2053 62.7354,79.5386 64.5,80.5C 63.0697,81.5375 61.403,82.2041 59.5,82.5C 59.6107,81.8826 59.944,81.3826 60.5,81C 58.8659,80.5065 57.1992,80.3398 55.5,80.5 Z"/></g>
<g><path style="opacity:1" fill="#882100" d="M 47.5,79.5 C 47.8333,79.5 48.1667,79.5 48.5,79.5C 50.1172,80.038 51.7839,80.3713 53.5,80.5C 53.9175,81.2216 54.5842,81.7216 55.5,82C 52.854,82.4974 50.1873,82.6641 47.5,82.5C 46.1667,82.5 44.8333,82.5 43.5,82.5C 45.2191,81.9779 46.5525,80.9779 47.5,79.5 Z"/></g>
<g><path style="opacity:1" fill="#983503" d="M 53.5,80.5 C 54.1667,80.5 54.8333,80.5 55.5,80.5C 57.1992,80.3398 58.8659,80.5065 60.5,81C 59.944,81.3826 59.6107,81.8826 59.5,82.5C 55.3989,83.7908 51.3989,83.7908 47.5,82.5C 50.1873,82.6641 52.854,82.4974 55.5,82C 54.5842,81.7216 53.9175,81.2216 53.5,80.5 Z"/></g>
<g><path style="opacity:1" fill="#b47478" d="M 36.5,80.5 C 39.1085,80.4003 41.4418,81.0669 43.5,82.5C 44.5,83.1667 45.5,83.8333 46.5,84.5C 45.8333,84.5 45.1667,84.5 44.5,84.5C 41.279,84.1039 38.6123,82.7705 36.5,80.5 Z"/></g>
<g><path style="opacity:1" fill="#ae5b3c" d="M 71.5,77.5 C 65.1289,83.6206 57.4622,85.9539 48.5,84.5C 47.8333,84.5 47.1667,84.5 46.5,84.5C 45.5,83.8333 44.5,83.1667 43.5,82.5C 44.8333,82.5 46.1667,82.5 47.5,82.5C 51.3989,83.7908 55.3989,83.7908 59.5,82.5C 61.403,82.2041 63.0697,81.5375 64.5,80.5C 66.0618,80.2671 67.3951,79.6005 68.5,78.5C 69.391,77.8902 70.391,77.5569 71.5,77.5 Z"/></g>
<g><path style="opacity:0.8" fill="#afbbd9" d="M 31.5,78.5 C 33.0495,79.4408 34.7162,80.1075 36.5,80.5C 38.6123,82.7705 41.279,84.1039 44.5,84.5C 45.5,85.1667 46.5,85.8333 47.5,86.5C 41.2203,86.0824 35.887,83.7491 31.5,79.5C 31.5,79.1667 31.5,78.8333 31.5,78.5 Z"/></g>
<g><path style="opacity:0.408" fill="#b5736a" d="M 71.5,77.5 C 72.1667,77.5 72.8333,77.5 73.5,77.5C 69.7432,81.7131 65.0765,84.3798 59.5,85.5C 55.6286,85.815 51.9619,85.4816 48.5,84.5C 57.4622,85.9539 65.1289,83.6206 71.5,77.5 Z"/></g>
<g><path style="opacity:0.737" fill="#b798ae" d="M 44.5,84.5 C 45.1667,84.5 45.8333,84.5 46.5,84.5C 47.1667,84.5 47.8333,84.5 48.5,84.5C 51.9619,85.4816 55.6286,85.815 59.5,85.5C 55.7016,86.4834 51.7016,86.8168 47.5,86.5C 46.5,85.8333 45.5,85.1667 44.5,84.5 Z"/></g>
</svg>
