<?xml version="1.0" encoding="UTF-8"?>
<!DOCTYPE svg PUBLIC "-//W3C//DTD SVG 1.1//EN" "http://www.w3.org/Graphics/SVG/1.1/DTD/svg11.dtd">
<svg xmlns="http://www.w3.org/2000/svg" version="1.1" width="96px" height="96px" style="shape-rendering:geometricPrecision; text-rendering:geometricPrecision; image-rendering:optimizeQuality; fill-rule:evenodd; clip-rule:evenodd" xmlns:xlink="http://www.w3.org/1999/xlink">
<g><path style="opacity:0.992" fill="#fffbfb" d="M -0.5,-0.5 C 12.5,-0.5 25.5,-0.5 38.5,-0.5C 18.5,5.5 5.5,18.5 -0.5,38.5C -0.5,25.5 -0.5,12.5 -0.5,-0.5 Z"/></g>
<g><path style="opacity:0.992" fill="#fffafa" d="M 55.5,-0.5 C 68.8333,-0.5 82.1667,-0.5 95.5,-0.5C 95.5,12.5 95.5,25.5 95.5,38.5C 89.4016,18.0682 76.0683,5.06817 55.5,-0.5 Z"/></g>
<g><path style="opacity:1" fill="#f02e2e" d="M 38.5,-0.5 C 44.1667,-0.5 49.8333,-0.5 55.5,-0.5C 76.0683,5.06817 89.4016,18.0682 95.5,38.5C 95.5,44.1667 95.5,49.8333 95.5,55.5C 89.8333,76.5 76.5,89.8333 55.5,95.5C 49.8333,95.5 44.1667,95.5 38.5,95.5C 18.0682,89.4016 5.06817,76.0683 -0.5,55.5C -0.5,49.8333 -0.5,44.1667 -0.5,38.5C 5.5,18.5 18.5,5.5 38.5,-0.5 Z"/></g>
<g><path style="opacity:1" fill="#fff0f0" d="M 28.5,20.5 C 30.2517,20.4176 31.2517,21.2509 31.5,23C 30.1365,26.2272 28.6365,29.3939 27,32.5C 26.0715,36.2441 26.5715,39.7441 28.5,43C 30.1667,43.6667 31.8333,43.6667 33.5,43C 37.7475,40.7565 41.4142,37.7565 44.5,34C 47.6667,33.1667 48.8333,34.3333 48,37.5C 43.8953,42.4779 42.2286,48.1446 43,54.5C 45.9378,56.8691 49.1044,57.0358 52.5,55C 55.4628,53.0394 58.1294,50.706 60.5,48C 61.7932,47.51 63.1266,47.3433 64.5,47.5C 64.1161,51.6039 62.6161,55.2706 60,58.5C 58.0033,68.7372 61.8366,71.4039 71.5,66.5C 73.2174,67.6685 73.8841,69.3352 73.5,71.5C 61.0592,77.0531 54.3926,73.0531 53.5,59.5C 41.6899,63.5238 36.6899,59.3572 38.5,47C 34.9767,48.0817 31.3101,48.4151 27.5,48C 22.1617,44.4909 20.3284,39.6576 22,33.5C 23.6528,28.8611 25.8194,24.5278 28.5,20.5 Z"/></g>
<g><path style="opacity:0.992" fill="#fffbfb" d="M -0.5,55.5 C 5.06817,76.0683 18.0682,89.4016 38.5,95.5C 25.5,95.5 12.5,95.5 -0.5,95.5C -0.5,82.1667 -0.5,68.8333 -0.5,55.5 Z"/></g>
<g><path style="opacity:0.992" fill="#fffafa" d="M 95.5,55.5 C 95.5,68.8333 95.5,82.1667 95.5,95.5C 82.1667,95.5 68.8333,95.5 55.5,95.5C 76.5,89.8333 89.8333,76.5 95.5,55.5 Z"/></g>
</svg>
