<?xml version="1.0" encoding="UTF-8"?>
<!DOCTYPE svg PUBLIC "-//W3C//DTD SVG 1.1//EN" "http://www.w3.org/Graphics/SVG/1.1/DTD/svg11.dtd">
<svg xmlns="http://www.w3.org/2000/svg" version="1.1" width="96px" height="96px" style="shape-rendering:geometricPrecision; text-rendering:geometricPrecision; image-rendering:optimizeQuality; fill-rule:evenodd; clip-rule:evenodd" xmlns:xlink="http://www.w3.org/1999/xlink">
<g><path style="opacity:0.797" fill="#f4f4f4" d="M 46.5,-0.5 C 47.1667,-0.5 47.8333,-0.5 48.5,-0.5C 49.7311,0.717703 50.8978,2.05104 52,3.5C 52.3333,6.16667 52.6667,8.83333 53,11.5C 59.9234,10.2747 65.9234,12.2747 71,17.5C 74.0643,12.4311 77.731,11.7644 82,15.5C 82.6667,17.1667 82.6667,18.8333 82,20.5C 80.1667,22.3333 78.3333,24.1667 76.5,26C 79.5141,30.685 82.3474,35.5183 85,40.5C 88.6322,41.8626 92.1322,43.5293 95.5,45.5C 95.5,47.1667 95.5,48.8333 95.5,50.5C 91.277,52.6943 87.1104,54.361 83,55.5C 82.0482,60.9016 79.8815,65.735 76.5,70C 82.6949,72.9806 83.6949,76.9806 79.5,82C 74.9727,82.6497 71.806,80.8163 70,76.5C 64.8414,80.4978 59.0081,82.8311 52.5,83.5C 53.9641,88.1091 52.9641,92.1091 49.5,95.5C 48.1667,95.5 46.8333,95.5 45.5,95.5C 42.8851,91.9912 41.8851,87.9912 42.5,83.5C 36.3362,82.6664 30.8362,80.3331 26,76.5C 24.1667,78.3333 22.3333,80.1667 20.5,82C 13.8748,82.5842 11.7081,79.7508 14,73.5C 15.6349,72.2744 17.1349,70.941 18.5,69.5C 15.2442,64.9869 13.0776,59.9869 12,54.5C 10.8032,52.2084 9.13651,51.8751 7,53.5C 3.99195,53.0063 1.49195,51.6729 -0.5,49.5C -0.5,48.5 -0.5,47.5 -0.5,46.5C 1.55577,43.9506 4.22244,42.4506 7.5,42C 5.37538,40.2627 4.54205,38.096 5,35.5C 8.37413,32.5907 12.2075,30.424 16.5,29C 17.2931,27.9148 17.9598,26.7481 18.5,25.5C 13.2055,22.7929 11.8722,18.9596 14.5,14C 18.8509,12.0714 22.3509,13.2381 25,17.5C 29.4734,11.8749 35.3068,8.5416 42.5,7.5C 42.3433,6.12656 42.51,4.79323 43,3.5C 44.3756,2.29493 45.5423,0.961599 46.5,-0.5 Z"/></g>
<g><path style="opacity:1" fill="#2b2323" d="M 46.5,5.5 C 48.6759,10.7813 47.8426,15.4479 44,19.5C 43.5026,22.146 43.3359,24.8127 43.5,27.5C 43.19,28.7383 42.69,28.7383 42,27.5C 41.8214,24.4465 41.3214,21.4465 40.5,18.5C 38.8849,19.154 37.2182,19.654 35.5,20C 34.0963,22.3237 32.0963,23.8237 29.5,24.5C 29.6068,22.6214 29.1068,22.2881 28,23.5C 27.0642,27.2074 25.2308,30.3741 22.5,33C 21.2411,33.9819 19.9078,34.3152 18.5,34C 23.4025,30.8347 26.4025,26.3347 27.5,20.5C 31.6274,14.0964 37.6274,10.763 45.5,10.5C 45.2155,8.58533 45.5489,6.91866 46.5,5.5 Z"/></g>
<g><path style="opacity:1" fill="#817b7c" d="M 39.5,12.5 C 40.8734,12.3433 42.2068,12.51 43.5,13C 39.754,14.5776 36.0873,15.9109 32.5,17C 34.5922,14.964 36.9255,13.464 39.5,12.5 Z"/></g>
<g><path style="opacity:1" fill="#201512" d="M 43.5,27.5 C 46.6674,27.5015 50.0008,28.0015 53.5,29C 51.1667,29.3333 48.8333,29.6667 46.5,30C 45.1667,30.6667 45.1667,31.3333 46.5,32C 56.5609,33.9393 60.5609,29.9393 58.5,20C 62.5412,20.6056 66.0412,22.4389 69,25.5C 69.3333,25.1667 69.6667,24.8333 70,24.5C 71.1882,25.5634 71.6882,26.8967 71.5,28.5C 71.6738,33.267 73.0071,37.6004 75.5,41.5C 77.3699,42.9406 79.0366,44.6073 80.5,46.5C 78.951,48.9017 78.2843,51.5683 78.5,54.5C 77.0413,54.5674 75.7079,54.2341 74.5,53.5C 72.0122,51.6122 69.0122,50.9455 65.5,51.5C 65.7373,50.209 65.404,49.209 64.5,48.5C 64.6567,47.1266 64.49,45.7932 64,44.5C 63,43.1667 62,43.1667 61,44.5C 60.3021,43.3094 59.4687,42.3094 58.5,41.5C 59.552,41.6495 60.552,41.4828 61.5,41C 53.1744,35.1164 44.1744,33.9497 34.5,37.5C 33.0245,36.738 31.6912,36.4047 30.5,36.5C 31.8333,35.8333 33.1667,35.1667 34.5,34.5C 32.3946,31.973 30.0613,29.6397 27.5,27.5C 27.9424,26.2613 28.6091,25.2613 29.5,24.5C 32.0963,23.8237 34.0963,22.3237 35.5,20C 37.2182,19.654 38.8849,19.154 40.5,18.5C 41.3214,21.4465 41.8214,24.4465 42,27.5C 42.69,28.7383 43.19,28.7383 43.5,27.5 Z"/></g>
<g><path style="opacity:1" fill="#5c4f54" d="M 71.5,28.5 C 73.2617,31.5035 74.4283,34.8368 75,38.5C 77.4903,39.9467 77.6569,40.9467 75.5,41.5C 73.0071,37.6004 71.6738,33.267 71.5,28.5 Z"/></g>
<g><path style="opacity:1" fill="#1e1414" d="M 27.5,20.5 C 26.4025,26.3347 23.4025,30.8347 18.5,34C 19.9078,34.3152 21.2411,33.9819 22.5,33C 25.2308,30.3741 27.0642,27.2074 28,23.5C 29.1068,22.2881 29.6068,22.6214 29.5,24.5C 28.6091,25.2613 27.9424,26.2613 27.5,27.5C 30.0613,29.6397 32.3946,31.973 34.5,34.5C 33.1667,35.1667 31.8333,35.8333 30.5,36.5C 31.6912,36.4047 33.0245,36.738 34.5,37.5C 33.5423,38.9616 32.3756,40.2949 31,41.5C 30.2195,42.9437 30.3861,44.277 31.5,45.5C 33.6025,43.2298 36.1025,41.5631 39,40.5C 45.2443,40.3111 51.411,40.6444 57.5,41.5C 53.1539,41.3343 48.8206,41.501 44.5,42C 47.3419,45.0063 50.6752,45.8396 54.5,44.5C 59.0286,44.8682 61.8619,47.2015 63,51.5C 64.0386,50.7562 64.5386,49.7562 64.5,48.5C 65.404,49.209 65.7373,50.209 65.5,51.5C 69.0122,50.9455 72.0122,51.6122 74.5,53.5C 71.1667,53.5 67.8333,53.5 64.5,53.5C 64.5198,55.143 63.8532,56.4763 62.5,57.5C 64.435,58.213 64.7683,59.213 63.5,60.5C 62.1667,60.5 60.8333,60.5 59.5,60.5C 59.8333,59.1667 60.1667,57.8333 60.5,56.5C 61.3984,55.8423 62.3984,55.1757 63.5,54.5C 63.1667,53.5 62.5,52.8333 61.5,52.5C 59.1489,54.2289 56.4822,54.8956 53.5,54.5C 52.5041,54.5858 51.6708,54.2524 51,53.5C 50.8078,55.5767 50.3078,57.5767 49.5,59.5C 48.2736,58.6371 46.9403,58.6371 45.5,59.5C 45.5,57.1667 45.5,54.8333 45.5,52.5C 46.1515,51.9094 46.8182,51.2427 47.5,50.5C 48.9038,51.9989 49.5704,51.6656 49.5,49.5C 49.4841,47.484 48.4841,46.484 46.5,46.5C 42.78,41.8023 38.78,41.469 34.5,45.5C 32.7376,46.2623 31.7376,47.5956 31.5,49.5C 29.8333,50.1667 28.1667,50.8333 26.5,51.5C 27.3855,49.7298 26.5521,48.7298 24,48.5C 21.836,48.6659 20.6694,49.8326 20.5,52C 21.4661,57.0982 23.6327,61.5982 27,65.5C 27.3826,64.944 27.8826,64.6107 28.5,64.5C 28.3225,65.6948 27.9891,66.8615 27.5,68C 28.1765,69.6833 29.1765,69.8499 30.5,68.5C 30.5,68.8333 30.5,69.1667 30.5,69.5C 29.5208,72.2552 30.5208,74.2552 33.5,75.5C 33.5,76.1667 33.1667,76.5 32.5,76.5C 30.1456,75.568 27.979,74.2346 26,72.5C 23.3163,73.6745 21.1497,75.5079 19.5,78C 18.552,78.4828 17.552,78.6495 16.5,78.5C 16.3505,77.448 16.5172,76.448 17,75.5C 19.5127,74.3206 21.346,72.4873 22.5,70C 18.6297,64.0602 16.1297,57.5602 15,50.5C 13.8061,49.5697 12.4728,48.9031 11,48.5C 8.90115,49.2865 6.73448,49.6199 4.5,49.5C 4.5,48.5 4.5,47.5 4.5,46.5C 7.77659,46.7839 10.9433,46.4505 14,45.5C 14.6667,44.8333 14.6667,44.1667 14,43.5C 11.3432,42.2549 9.50989,40.2549 8.5,37.5C 11.4936,35.2097 14.827,33.3764 18.5,32C 24.0077,27.1712 23.5077,23.0045 17,19.5C 16.5172,18.552 16.3505,17.552 16.5,16.5C 17.552,16.3505 18.552,16.5172 19.5,17C 20.8259,19.1584 22.4925,20.9918 24.5,22.5C 25.5178,21.8075 26.5178,21.1408 27.5,20.5 Z"/></g>
<g><path style="opacity:1" fill="#c41a1e" d="M 58.5,41.5 C 58.1667,41.5 57.8333,41.5 57.5,41.5C 51.411,40.6444 45.2443,40.3111 39,40.5C 36.1025,41.5631 33.6025,43.2298 31.5,45.5C 30.3861,44.277 30.2195,42.9437 31,41.5C 32.3756,40.2949 33.5423,38.9616 34.5,37.5C 44.1744,33.9497 53.1744,35.1164 61.5,41C 60.552,41.4828 59.552,41.6495 58.5,41.5 Z"/></g>
<g><path style="opacity:1" fill="#cdc8c0" d="M 57.5,41.5 C 57.8333,41.5 58.1667,41.5 58.5,41.5C 59.4687,42.3094 60.3021,43.3094 61,44.5C 62,43.1667 63,43.1667 64,44.5C 64.49,45.7932 64.6567,47.1266 64.5,48.5C 64.5386,49.7562 64.0386,50.7562 63,51.5C 61.8619,47.2015 59.0286,44.8682 54.5,44.5C 50.6752,45.8396 47.3419,45.0063 44.5,42C 48.8206,41.501 53.1539,41.3343 57.5,41.5 Z"/></g>
<g><path style="opacity:1" fill="#dcd6cb" d="M 46.5,46.5 C 45.8333,46.5 45.1667,46.5 44.5,46.5C 41.6698,44.1766 38.6698,44.1766 35.5,46.5C 34.8333,46.5 34.5,46.1667 34.5,45.5C 38.78,41.469 42.78,41.8023 46.5,46.5 Z"/></g>
<g><path style="opacity:1" fill="#8e8983" d="M 44.5,46.5 C 45.1667,46.5 45.8333,46.5 46.5,46.5C 48.4841,46.484 49.4841,47.484 49.5,49.5C 49.5704,51.6656 48.9038,51.9989 47.5,50.5C 46.8182,51.2427 46.1515,51.9094 45.5,52.5C 45.5,51.8333 45.1667,51.5 44.5,51.5C 45.0715,49.64 45.0715,47.9733 44.5,46.5 Z"/></g>
<g><path style="opacity:1" fill="#e2e2e2" d="M 26.5,51.5 C 24.2309,54.4213 24.2309,57.4213 26.5,60.5C 27.6005,61.6049 28.2671,62.9382 28.5,64.5C 27.8826,64.6107 27.3826,64.944 27,65.5C 23.6327,61.5982 21.4661,57.0982 20.5,52C 20.6694,49.8326 21.836,48.6659 24,48.5C 26.5521,48.7298 27.3855,49.7298 26.5,51.5 Z"/></g>
<g><path style="opacity:1" fill="#140f10" d="M 44.5,46.5 C 45.0715,47.9733 45.0715,49.64 44.5,51.5C 43.6085,53.7142 41.9418,54.7142 39.5,54.5C 37.4115,54.3802 36.0782,53.3802 35.5,51.5C 35.5,49.8333 35.5,48.1667 35.5,46.5C 38.6698,44.1766 41.6698,44.1766 44.5,46.5 Z"/></g>
<g><path style="opacity:1" fill="#3d9f39" d="M 39.5,48.5 C 41.337,48.6395 41.6704,49.3061 40.5,50.5C 39.7025,50.0431 39.3691,49.3764 39.5,48.5 Z"/></g>
<g><path style="opacity:1" fill="#791918" d="M 31.5,49.5 C 31.5,52.1667 31.5,54.8333 31.5,57.5C 31.5,58.1667 31.5,58.8333 31.5,59.5C 30.5386,57.7354 30.2053,55.7354 30.5,53.5C 29.325,53.281 28.325,53.6143 27.5,54.5C 26.6518,56.4086 26.3184,58.4086 26.5,60.5C 24.2309,57.4213 24.2309,54.4213 26.5,51.5C 28.1667,50.8333 29.8333,50.1667 31.5,49.5 Z"/></g>
<g><path style="opacity:1" fill="#beb8b2" d="M 60.5,56.5 C 58.7105,57.8772 56.7105,58.8772 54.5,59.5C 54.5,58.5 54.5,57.5 54.5,56.5C 55.8734,56.6567 57.2068,56.49 58.5,56C 56.6183,55.8019 54.9516,55.3019 53.5,54.5C 56.4822,54.8956 59.1489,54.2289 61.5,52.5C 62.5,52.8333 63.1667,53.5 63.5,54.5C 62.3984,55.1757 61.3984,55.8423 60.5,56.5 Z"/></g>
<g><path style="opacity:0.889" fill="#e5e4e3" d="M 74.5,53.5 C 73.5711,58.0245 71.5711,62.0245 68.5,65.5C 65.8106,64.8106 64.1439,63.144 63.5,60.5C 64.7683,59.213 64.435,58.213 62.5,57.5C 63.8532,56.4763 64.5198,55.143 64.5,53.5C 67.8333,53.5 71.1667,53.5 74.5,53.5 Z"/></g>
<g><path style="opacity:1" fill="#786968" d="M 34.5,45.5 C 34.5,46.1667 34.8333,46.5 35.5,46.5C 35.5,48.1667 35.5,49.8333 35.5,51.5C 31.3727,53.866 31.706,55.6993 36.5,57C 35.944,57.3826 35.6107,57.8826 35.5,58.5C 34.8333,58.5 34.1667,58.5 33.5,58.5C 33.1583,57.6618 32.4916,57.3284 31.5,57.5C 31.5,54.8333 31.5,52.1667 31.5,49.5C 31.7376,47.5956 32.7376,46.2623 34.5,45.5 Z"/></g>
<g><path style="opacity:1" fill="#e5ebeb" d="M 31.5,57.5 C 32.4916,57.3284 33.1583,57.6618 33.5,58.5C 33.1583,59.3382 32.4916,59.6716 31.5,59.5C 31.5,58.8333 31.5,58.1667 31.5,57.5 Z"/></g>
<g><path style="opacity:1" fill="#cdc6bd" d="M 35.5,51.5 C 36.0782,53.3802 37.4115,54.3802 39.5,54.5C 41.9418,54.7142 43.6085,53.7142 44.5,51.5C 45.1667,51.5 45.5,51.8333 45.5,52.5C 45.5,54.8333 45.5,57.1667 45.5,59.5C 43.4677,60.0478 42.4677,61.3812 42.5,63.5C 41.0337,62.653 40.2004,61.3197 40,59.5C 39.3292,58.7476 38.4959,58.4142 37.5,58.5C 36.8333,58.5 36.1667,58.5 35.5,58.5C 35.6107,57.8826 35.944,57.3826 36.5,57C 31.706,55.6993 31.3727,53.866 35.5,51.5 Z"/></g>
<g><path style="opacity:1" fill="#171113" d="M 44.5,80.5 C 41.3676,77.8899 37.701,76.2233 33.5,75.5C 30.5208,74.2552 29.5208,72.2552 30.5,69.5C 32.9384,71.2672 35.605,72.6006 38.5,73.5C 39.1667,73.5 39.8333,73.5 40.5,73.5C 43.0624,76.7834 45.8958,77.1167 49,74.5C 51.8601,76.0767 54.0268,75.4101 55.5,72.5C 55.8333,72.5 56.1667,72.5 56.5,72.5C 59.2263,72.9168 61.7263,71.9168 64,69.5C 65.1526,66.1518 63.986,64.1518 60.5,63.5C 60.1667,63.5 59.8333,63.5 59.5,63.5C 59.5,62.5 59.5,61.5 59.5,60.5C 60.8333,60.5 62.1667,60.5 63.5,60.5C 64.1439,63.144 65.8106,64.8106 68.5,65.5C 71.5711,62.0245 73.5711,58.0245 74.5,53.5C 75.7079,54.2341 77.0413,54.5674 78.5,54.5C 78.2843,51.5683 78.951,48.9017 80.5,46.5C 79.0366,44.6073 77.3699,42.9406 75.5,41.5C 77.6569,40.9467 77.4903,39.9467 75,38.5C 74.4283,34.8368 73.2617,31.5035 71.5,28.5C 71.6882,26.8967 71.1882,25.5634 70,24.5C 69.6667,24.8333 69.3333,25.1667 69,25.5C 66.0412,22.4389 62.5412,20.6056 58.5,20C 60.5609,29.9393 56.5609,33.9393 46.5,32C 45.1667,31.3333 45.1667,30.6667 46.5,30C 48.8333,29.6667 51.1667,29.3333 53.5,29C 50.0008,28.0015 46.6674,27.5015 43.5,27.5C 43.3359,24.8127 43.5026,22.146 44,19.5C 47.8426,15.4479 48.6759,10.7813 46.5,5.5C 47.209,4.59603 48.209,4.26269 49.5,4.5C 49.2108,8.10636 49.5442,11.6064 50.5,15C 53.7897,14.6315 57.123,14.6315 60.5,15C 64.4357,16.5468 67.9357,18.7134 71,21.5C 73.1538,20.6796 74.6538,19.1796 75.5,17C 76.448,16.5172 77.448,16.3505 78.5,16.5C 78.6495,17.552 78.4828,18.552 78,19.5C 75.9824,21.3501 74.1491,23.3501 72.5,25.5C 75.8638,32.3947 79.8638,38.8947 84.5,45C 87.1193,45.1515 89.4527,45.9848 91.5,47.5C 87.7641,49.105 83.9307,50.7717 80,52.5C 78.9435,58.8476 76.4435,64.5143 72.5,69.5C 73.5099,72.2549 75.3432,74.2549 78,75.5C 78.4828,76.448 78.6495,77.448 78.5,78.5C 77.448,78.6495 76.448,78.4828 75.5,78C 74.2549,75.3432 72.2549,73.5099 69.5,72.5C 63.3839,76.6529 56.7172,79.6529 49.5,81.5C 48.4683,83.6168 48.4683,85.7835 49.5,88C 49.6125,89.6624 48.9458,90.8291 47.5,91.5C 47.0089,87.5454 46.0089,83.8787 44.5,80.5 Z"/></g>
<g><path style="opacity:1" fill="#c0bfbf" d="M 52.5,20.5 C 54.3841,20.7118 55.7174,21.7118 56.5,23.5C 54.2192,24.2617 52.8859,23.2617 52.5,20.5 Z"/></g>
<g><path style="opacity:1" fill="#bf1920" d="M 31.5,59.5 C 32.038,61.1172 32.3713,62.7839 32.5,64.5C 32.2671,66.0618 31.6005,67.3951 30.5,68.5C 29.1765,69.8499 28.1765,69.6833 27.5,68C 27.9891,66.8615 28.3225,65.6948 28.5,64.5C 28.2671,62.9382 27.6005,61.6049 26.5,60.5C 26.3184,58.4086 26.6518,56.4086 27.5,54.5C 28.325,53.6143 29.325,53.281 30.5,53.5C 30.2053,55.7354 30.5386,57.7354 31.5,59.5 Z"/></g>
<g><path style="opacity:1" fill="#211c1f" d="M 37.5,58.5 C 38.4959,58.4142 39.3292,58.7476 40,59.5C 40.2004,61.3197 41.0337,62.653 42.5,63.5C 42.1583,64.3382 41.4916,64.6716 40.5,64.5C 39.8333,64.5 39.5,64.1667 39.5,63.5C 38.5592,61.9505 37.8925,60.2838 37.5,58.5 Z"/></g>
<g><path style="opacity:1" fill="#201316" d="M 33.5,58.5 C 34.1667,58.5 34.8333,58.5 35.5,58.5C 36.9326,60.5184 36.5992,62.1851 34.5,63.5C 33.8333,63.8333 33.1667,64.1667 32.5,64.5C 32.3713,62.7839 32.038,61.1172 31.5,59.5C 32.4916,59.6716 33.1583,59.3382 33.5,58.5 Z"/></g>
<g><path style="opacity:1" fill="#efebe2" d="M 53.5,54.5 C 54.9516,55.3019 56.6183,55.8019 58.5,56C 57.2068,56.49 55.8734,56.6567 54.5,56.5C 54.5,57.5 54.5,58.5 54.5,59.5C 54.5,60.8333 54.5,62.1667 54.5,63.5C 53.5,63.5 52.5,63.5 51.5,63.5C 48.6537,64.0946 45.6537,64.0946 42.5,63.5C 42.4677,61.3812 43.4677,60.0478 45.5,59.5C 46.9403,58.6371 48.2736,58.6371 49.5,59.5C 50.3078,57.5767 50.8078,55.5767 51,53.5C 51.6708,54.2524 52.5041,54.5858 53.5,54.5 Z"/></g>
<g><path style="opacity:1" fill="#7d7c78" d="M 59.5,63.5 C 59.8333,63.5 60.1667,63.5 60.5,63.5C 61.0391,67.4157 59.7058,70.4157 56.5,72.5C 56.1667,72.5 55.8333,72.5 55.5,72.5C 55.9003,70.6233 56.9003,69.1233 58.5,68C 58.1081,66.9895 57.4415,66.4895 56.5,66.5C 57.6527,65.3132 57.6527,64.3132 56.5,63.5C 56.3691,62.6236 56.7025,61.9569 57.5,61.5C 58.1818,62.2427 58.8485,62.9094 59.5,63.5 Z"/></g>
<g><path style="opacity:1" fill="#dddfe0" d="M 34.5,63.5 C 35.0011,67.1251 36.3344,70.4584 38.5,73.5C 35.605,72.6006 32.9384,71.2672 30.5,69.5C 30.5,69.1667 30.5,68.8333 30.5,68.5C 31.6005,67.3951 32.2671,66.0618 32.5,64.5C 33.1667,64.1667 33.8333,63.8333 34.5,63.5 Z"/></g>
<g><path style="opacity:1" fill="#443e3d" d="M 60.5,56.5 C 60.1667,57.8333 59.8333,59.1667 59.5,60.5C 59.5,61.5 59.5,62.5 59.5,63.5C 58.8485,62.9094 58.1818,62.2427 57.5,61.5C 56.7025,61.9569 56.3691,62.6236 56.5,63.5C 56.1667,64.1667 55.8333,64.8333 55.5,65.5C 53.5168,65.8432 52.1834,65.1765 51.5,63.5C 52.5,63.5 53.5,63.5 54.5,63.5C 54.5,62.1667 54.5,60.8333 54.5,59.5C 56.7105,58.8772 58.7105,57.8772 60.5,56.5 Z"/></g>
<g><path style="opacity:1" fill="#e9e9e9" d="M 60.5,63.5 C 63.986,64.1518 65.1526,66.1518 64,69.5C 61.7263,71.9168 59.2263,72.9168 56.5,72.5C 59.7058,70.4157 61.0391,67.4157 60.5,63.5 Z"/></g>
<g><path style="opacity:1" fill="#6c6766" d="M 35.5,58.5 C 36.1667,58.5 36.8333,58.5 37.5,58.5C 37.8925,60.2838 38.5592,61.9505 39.5,63.5C 38.905,65.6268 37.905,66.7935 36.5,67C 38.6616,68.6442 39.9949,70.8109 40.5,73.5C 39.8333,73.5 39.1667,73.5 38.5,73.5C 36.3344,70.4584 35.0011,67.1251 34.5,63.5C 36.5992,62.1851 36.9326,60.5184 35.5,58.5 Z"/></g>
<g><path style="opacity:1" fill="#ded9d0" d="M 39.5,63.5 C 39.5,64.1667 39.8333,64.5 40.5,64.5C 40.4027,67.3136 41.5693,69.3136 44,70.5C 47.1275,69.7963 50.2942,69.2963 53.5,69C 54.305,67.8873 54.9717,66.7206 55.5,65.5C 55.8333,64.8333 56.1667,64.1667 56.5,63.5C 57.6527,64.3132 57.6527,65.3132 56.5,66.5C 57.4415,66.4895 58.1081,66.9895 58.5,68C 56.9003,69.1233 55.9003,70.6233 55.5,72.5C 54.0268,75.4101 51.8601,76.0767 49,74.5C 45.8958,77.1167 43.0624,76.7834 40.5,73.5C 39.9949,70.8109 38.6616,68.6442 36.5,67C 37.905,66.7935 38.905,65.6268 39.5,63.5 Z"/></g>
<g><path style="opacity:1" fill="#756c6a" d="M 42.5,63.5 C 45.6537,64.0946 48.6537,64.0946 51.5,63.5C 52.1834,65.1765 53.5168,65.8432 55.5,65.5C 54.9717,66.7206 54.305,67.8873 53.5,69C 50.2942,69.2963 47.1275,69.7963 44,70.5C 41.5693,69.3136 40.4027,67.3136 40.5,64.5C 41.4916,64.6716 42.1583,64.3382 42.5,63.5 Z"/></g>
<g><path style="opacity:1" fill="#544f4f" d="M 33.5,75.5 C 37.701,76.2233 41.3676,77.8899 44.5,80.5C 39.9555,80.5409 35.9555,79.2075 32.5,76.5C 33.1667,76.5 33.5,76.1667 33.5,75.5 Z"/></g>
</svg>
