<?xml version="1.0" encoding="UTF-8"?>
<!DOCTYPE svg PUBLIC "-//W3C//DTD SVG 1.1//EN" "http://www.w3.org/Graphics/SVG/1.1/DTD/svg11.dtd">
<svg xmlns="http://www.w3.org/2000/svg" version="1.1" width="96px" height="96px" style="shape-rendering:geometricPrecision; text-rendering:geometricPrecision; image-rendering:optimizeQuality; fill-rule:evenodd; clip-rule:evenodd" xmlns:xlink="http://www.w3.org/1999/xlink">
<g><path style="opacity:0.995" fill="#fcfbfa" d="M -0.5,-0.5 C 12.5,-0.5 25.5,-0.5 38.5,-0.5C 23.3204,3.27204 11.987,12.1054 4.5,26C 11.9996,23.2314 18.6662,18.8981 24.5,13C 29.095,10.0231 34.095,8.02309 39.5,7C 43.3447,4.63698 47.0113,2.13698 50.5,-0.5C 65.5,-0.5 80.5,-0.5 95.5,-0.5C 95.5,13.8333 95.5,28.1667 95.5,42.5C 92.3672,43.3902 90.0339,45.2235 88.5,48C 88.8333,48.8333 89.1667,49.6667 89.5,50.5C 91.5266,49.4867 93.5266,48.4867 95.5,47.5C 95.5,63.5 95.5,79.5 95.5,95.5C 81.5,95.5 67.5,95.5 53.5,95.5C 66.5749,93.2056 77.4082,86.8722 86,76.5C 94.6686,64.6298 93.1686,62.7965 81.5,71C 73.8107,81.3512 63.4773,87.3512 50.5,89C 46.5136,90.4721 43.1803,92.6387 40.5,95.5C 26.8333,95.5 13.1667,95.5 -0.5,95.5C -0.5,80.5 -0.5,65.5 -0.5,50.5C 4.67524,49.512 6.84191,46.512 6,41.5C 3.94812,43.0585 1.78145,44.3918 -0.5,45.5C -0.5,30.1667 -0.5,14.8333 -0.5,-0.5 Z"/></g>
<g><path style="opacity:1" fill="#b2bbc6" d="M 56.5,1.5 C 58.924,1.19244 61.2573,1.52577 63.5,2.5C 60.0606,7.12539 55.7273,8.29206 50.5,6C 52.7472,4.72253 54.7472,3.22253 56.5,1.5 Z"/></g>
<g><path style="opacity:1" fill="#b1bbc5" d="M 38.5,-0.5 C 42.5,-0.5 46.5,-0.5 50.5,-0.5C 47.0113,2.13698 43.3447,4.63698 39.5,7C 34.095,8.02309 29.095,10.0231 24.5,13C 18.6662,18.8981 11.9996,23.2314 4.5,26C 11.987,12.1054 23.3204,3.27204 38.5,-0.5 Z"/></g>
<g><path style="opacity:1" fill="#b0bac4" d="M 67.5,5.5 C 69.8273,5.24707 71.8273,5.91374 73.5,7.5C 71.5,8.83333 69.5,10.1667 67.5,11.5C 65.9984,10.9169 64.6651,10.0836 63.5,9C 65.0931,8.05127 66.4264,6.88461 67.5,5.5 Z"/></g>
<g><path style="opacity:1" fill="#f1b53a" d="M 37.5,10.5 C 59.934,7.79382 75.434,16.7938 84,37.5C 87.5336,61.2467 78.0336,76.7467 55.5,84C 35.1023,87.0516 20.6023,79.2183 12,60.5C 6.47498,36.5483 14.975,19.8816 37.5,10.5 Z"/></g>
<g><path style="opacity:1" fill="#afb8c2" d="M 77.5,10.5 C 81.6229,13.3054 81.1229,15.3054 76,16.5C 73.8676,16.3232 72.8676,15.3232 73,13.5C 74.6516,12.6006 76.1516,11.6006 77.5,10.5 Z"/></g>
<g><path style="opacity:1" fill="#b1bac3" d="M 83.5,17.5 C 85.2517,17.4176 86.2517,18.2509 86.5,20C 84.23,24.0594 81.8967,24.226 79.5,20.5C 80.9014,19.4793 82.2347,18.4793 83.5,17.5 Z"/></g>
<g><path style="opacity:1" fill="#040202" d="M 50.5,24.5 C 50.5,26.5 50.5,28.5 50.5,30.5C 53.8333,30.5 57.1667,30.5 60.5,30.5C 60.7525,33.3198 60.2525,35.9865 59,38.5C 54.3076,44.3586 49.8076,50.3586 45.5,56.5C 50.456,57.4941 55.456,57.8275 60.5,57.5C 60.5,59.8333 60.5,62.1667 60.5,64.5C 56.9581,64.1872 53.6248,64.5206 50.5,65.5C 50.5,67.1667 50.5,68.8333 50.5,70.5C 48.5,70.5 46.5,70.5 44.5,70.5C 44.5,68.5 44.5,66.5 44.5,64.5C 41.1667,64.5 37.8333,64.5 34.5,64.5C 34.3367,62.1432 34.5034,59.8098 35,57.5C 39.7167,51.623 44.2167,45.623 48.5,39.5C 49.0431,39.44 49.3764,39.1067 49.5,38.5C 44.544,37.5059 39.544,37.1725 34.5,37.5C 34.5,35.1667 34.5,32.8333 34.5,30.5C 37.8333,30.5 41.1667,30.5 44.5,30.5C 44.5,28.5 44.5,26.5 44.5,24.5C 46.5,24.5 48.5,24.5 50.5,24.5 Z"/></g>
<g><path style="opacity:1" fill="#aeb8c2" d="M 87.5,25.5 C 89.5901,25.4501 90.9234,26.4501 91.5,28.5C 88.7192,31.8408 86.3859,31.8408 84.5,28.5C 85.3398,27.265 86.3398,26.265 87.5,25.5 Z"/></g>
<g><path style="opacity:1" fill="#926d25" d="M 50.5,24.5 C 48.5,24.5 46.5,24.5 44.5,24.5C 44.5,26.5 44.5,28.5 44.5,30.5C 41.1667,30.5 37.8333,30.5 34.5,30.5C 37.2869,29.5233 40.2869,29.19 43.5,29.5C 43.5,27.5 43.5,25.5 43.5,23.5C 46.0593,23.1984 48.3926,23.5318 50.5,24.5 Z"/></g>
<g><path style="opacity:1" fill="#b1bac3" d="M 9.5,28.5 C 10.0431,28.56 10.3764,28.8933 10.5,29.5C 9.20484,31.3279 8.20484,33.3279 7.5,35.5C 5.41696,36.9587 3.25029,38.2921 1,39.5C 0.333333,37.8333 0.333333,36.1667 1,34.5C 3.98773,32.6009 6.82107,30.6009 9.5,28.5 Z"/></g>
<g><path style="opacity:1" fill="#afb8c1" d="M 91.5,33.5 C 93.0257,34.1047 94.0257,35.2714 94.5,37C 92.7513,38.2915 90.918,39.4582 89,40.5C 88.5983,39.1279 88.0983,37.7946 87.5,36.5C 88.9014,35.4793 90.2347,34.4793 91.5,33.5 Z"/></g>
<g><path style="opacity:1" fill="#b98f36" d="M 34.5,30.5 C 34.5,32.8333 34.5,35.1667 34.5,37.5C 39.544,37.1725 44.544,37.5059 49.5,38.5C 49.3764,39.1067 49.0431,39.44 48.5,39.5C 46.1903,38.8362 43.6903,38.5029 41,38.5C 38.05,38.5676 35.3834,39.2343 33,40.5C 32.5,39.5 32,38.5 31.5,37.5C 31.8457,36.3044 32.3457,36.3044 33,37.5C 33.1862,34.9644 33.6862,32.631 34.5,30.5 Z"/></g>
<g><path style="opacity:1" fill="#afb9c3" d="M -0.5,50.5 C -0.5,48.8333 -0.5,47.1667 -0.5,45.5C 1.78145,44.3918 3.94812,43.0585 6,41.5C 6.84191,46.512 4.67524,49.512 -0.5,50.5 Z"/></g>
<g><path style="opacity:1" fill="#b2bcc6" d="M 95.5,42.5 C 95.5,44.1667 95.5,45.8333 95.5,47.5C 93.5266,48.4867 91.5266,49.4867 89.5,50.5C 89.1667,49.6667 88.8333,48.8333 88.5,48C 90.0339,45.2235 92.3672,43.3902 95.5,42.5 Z"/></g>
<g><path style="opacity:1" fill="#b1bac3" d="M 4.5,52.5 C 5.64911,52.7911 6.31577,53.6244 6.5,55C 5.73108,57.4012 4.06441,58.9012 1.5,59.5C 0.386147,58.277 0.219481,56.9437 1,55.5C 2.14508,54.3636 3.31174,53.3636 4.5,52.5 Z"/></g>
<g><path style="opacity:1" fill="#afb8c2" d="M 92.5,53.5 C 93.6491,53.7911 94.3158,54.6244 94.5,56C 94.3333,56.8333 94.1667,57.6667 94,58.5C 91.6667,59.8333 89.3333,61.1667 87,62.5C 86.8522,60.4234 87.3522,58.4234 88.5,56.5C 90.261,55.9649 91.5943,54.9649 92.5,53.5 Z"/></g>
<g><path style="opacity:1" fill="#7b5e23" d="M 34.5,64.5 C 37.8333,64.5 41.1667,64.5 44.5,64.5C 44.5,66.5 44.5,68.5 44.5,70.5C 46.5,70.5 48.5,70.5 50.5,70.5C 48.3926,71.4682 46.0593,71.8016 43.5,71.5C 43.5,69.5 43.5,67.5 43.5,65.5C 40.2869,65.81 37.2869,65.4767 34.5,64.5 Z"/></g>
<g><path style="opacity:1" fill="#886724" d="M 60.5,57.5 C 61.4731,59.9479 61.8064,62.6146 61.5,65.5C 57.8333,65.5 54.1667,65.5 50.5,65.5C 53.6248,64.5206 56.9581,64.1872 60.5,64.5C 60.5,62.1667 60.5,59.8333 60.5,57.5 Z"/></g>
<g><path style="opacity:1" fill="#aeb7c1" d="M 7.5,61.5 C 9.2726,62.3143 9.7726,63.6476 9,65.5C 6.51396,68.7962 4.68063,68.7962 3.5,65.5C 4.437,63.712 5.77033,62.3786 7.5,61.5 Z"/></g>
<g><path style="opacity:1" fill="#b0b8c2" d="M 11.5,69.5 C 13.4459,70.2544 14.2793,71.5878 14,73.5C 11.3729,76.2074 9.20621,76.0407 7.5,73C 8.68562,71.5879 10.019,70.4212 11.5,69.5 Z"/></g>
<g><path style="opacity:1" fill="#afb8c3" d="M 16.5,76.5 C 21.9117,78.7199 21.7451,80.7199 16,82.5C 14.5659,82.0696 13.3992,81.2362 12.5,80C 14.0931,79.0513 15.4264,77.8846 16.5,76.5 Z"/></g>
<g><path style="opacity:1" fill="#b0bac4" d="M 24.5,82.5 C 31.1115,84.0883 31.1115,85.9216 24.5,88C 22.3386,88.7216 20.672,88.0549 19.5,86C 21.3464,84.9702 23.0131,83.8036 24.5,82.5 Z"/></g>
<g><path style="opacity:1" fill="#b1bbc5" d="M 53.5,95.5 C 49.1667,95.5 44.8333,95.5 40.5,95.5C 43.1803,92.6387 46.5136,90.4721 50.5,89C 63.4773,87.3512 73.8107,81.3512 81.5,71C 93.1686,62.7965 94.6686,64.6298 86,76.5C 77.4082,86.8722 66.5749,93.2056 53.5,95.5 Z"/></g>
<g><path style="opacity:1" fill="#b3bcc6" d="M 33.5,87.5 C 36.2469,87.1866 38.9135,87.52 41.5,88.5C 38.7328,90.2995 35.8994,91.9662 33,93.5C 31.3651,93.1223 29.8651,92.4556 28.5,91.5C 30.4192,90.3875 32.0858,89.0542 33.5,87.5 Z"/></g>
</svg>
