<?xml version="1.0" encoding="UTF-8"?>
<!DOCTYPE svg PUBLIC "-//W3C//DTD SVG 1.1//EN" "http://www.w3.org/Graphics/SVG/1.1/DTD/svg11.dtd">
<svg xmlns="http://www.w3.org/2000/svg" version="1.1" width="96px" height="96px" style="shape-rendering:geometricPrecision; text-rendering:geometricPrecision; image-rendering:optimizeQuality; fill-rule:evenodd; clip-rule:evenodd" xmlns:xlink="http://www.w3.org/1999/xlink">
<g><path style="opacity:1" fill="#f1c4cf" d="M 83.5,33.5 C 82.8354,31.6309 82.1687,29.6309 81.5,27.5C 69.6431,33.9256 57.9765,40.5923 46.5,47.5C 34.5,40.5 22.5,33.5 10.5,26.5C 22.4362,19.1921 34.4362,11.8588 46.5,4.5C 58.3433,11.0562 70.01,17.8895 81.5,25C 83.3137,27.4815 83.9804,30.3148 83.5,33.5 Z"/></g>
<g><path style="opacity:1" fill="#af7e8b" d="M 55.5,21.5 C 59.6829,23.0875 63.3495,25.4208 66.5,28.5C 65.6086,29.5896 64.6086,29.5896 63.5,28.5C 62.8333,29.8333 62.1667,31.1667 61.5,32.5C 56.1393,30.7123 54.1393,27.0456 55.5,21.5 Z"/></g>
<g><path style="opacity:1" fill="#b07f8c" d="M 10.5,26.5 C 22.5,33.5 34.5,40.5 46.5,47.5C 46.5,50.1667 46.5,52.8333 46.5,55.5C 46.4326,56.9587 46.7659,58.2921 47.5,59.5C 46.1667,64.5 46.1667,69.5 47.5,74.5C 47.44,75.0431 47.1067,75.3764 46.5,75.5C 42.9392,73.2212 39.2726,71.2212 35.5,69.5C 27.168,63.9981 18.5014,58.9981 9.5,54.5C 9.17311,44.985 9.50644,35.6517 10.5,26.5 Z"/></g>
<g><path style="opacity:1" fill="#e8b1c0" d="M 83.5,33.5 C 83.5,33.8333 83.5,34.1667 83.5,34.5C 71.3018,41.765 58.9684,48.765 46.5,55.5C 46.5,52.8333 46.5,50.1667 46.5,47.5C 57.9765,40.5923 69.6431,33.9256 81.5,27.5C 82.1687,29.6309 82.8354,31.6309 83.5,33.5 Z"/></g>
<g><path style="opacity:1" fill="#ae7d8a" d="M 39.5,31.5 C 43.8523,33.6735 47.8523,36.3401 51.5,39.5C 51.1667,39.8333 50.8333,40.1667 50.5,40.5C 47.8151,37.6955 46.1484,38.3621 45.5,42.5C 40.1393,40.7123 38.1393,37.0456 39.5,31.5 Z"/></g>
<g><path style="opacity:1" fill="#292a29" d="M 83.5,34.5 C 84.3909,35.2613 85.0576,36.2613 85.5,37.5C 83.7787,40.9085 83.112,44.5751 83.5,48.5C 81.8297,48.7512 80.3297,49.4178 79,50.5C 77.4993,48.4164 75.4993,47.0831 73,46.5C 69.2343,48.6328 65.401,50.6328 61.5,52.5C 60.9885,55.963 59.9885,59.2963 58.5,62.5C 55.7916,64.3531 52.7916,65.3531 49.5,65.5C 49.9465,62.9899 49.2798,60.9899 47.5,59.5C 46.7659,58.2921 46.4326,56.9587 46.5,55.5C 58.9684,48.765 71.3018,41.765 83.5,34.5 Z"/></g>
<g><path style="opacity:1" fill="#f8d9e4" d="M 83.5,48.5 C 83.5,50.5 83.5,52.5 83.5,54.5C 81.8297,54.7512 80.3297,55.4178 79,56.5C 78.7744,59.095 78.2744,61.595 77.5,64C 74.2766,66.0623 70.9432,67.8956 67.5,69.5C 66.6753,65.3528 66.1753,61.0195 66,56.5C 63.8816,55.7171 62.3816,54.3838 61.5,52.5C 65.401,50.6328 69.2343,48.6328 73,46.5C 75.4993,47.0831 77.4993,48.4164 79,50.5C 80.3297,49.4178 81.8297,48.7512 83.5,48.5 Z"/></g>
<g><path style="opacity:1" fill="#a97a83" d="M 61.5,52.5 C 62.3816,54.3838 63.8816,55.7171 66,56.5C 66.1753,61.0195 66.6753,65.3528 67.5,69.5C 67.44,70.0431 67.1067,70.3764 66.5,70.5C 64.3379,68.9802 62.0046,67.9802 59.5,67.5C 59.7845,65.5853 59.4511,63.9187 58.5,62.5C 59.9885,59.2963 60.9885,55.963 61.5,52.5 Z"/></g>
<g><path style="opacity:1" fill="#2b2325" d="M 74.5,54.5 C 75.4731,56.9479 75.8064,59.6146 75.5,62.5C 74.2521,61.6661 73.5854,60.3328 73.5,58.5C 73.5108,56.9549 73.8442,55.6216 74.5,54.5 Z"/></g>
<g><path style="opacity:0.999" fill="#090604" d="M 9.5,54.5 C 18.5014,58.9981 27.168,63.9981 35.5,69.5C 34.2617,69.81 34.2617,70.31 35.5,71C 39.2211,73.5272 43.2211,75.5272 47.5,77C 46.5363,81.0659 46.203,85.2325 46.5,89.5C 45.8333,89.1667 45.1667,88.8333 44.5,88.5C 35.0379,82.598 25.3712,76.9313 15.5,71.5C 13.2152,70.7755 11.3819,69.4422 10,67.5C 9.50098,63.1794 9.33432,58.8461 9.5,54.5 Z"/></g>
<g><path style="opacity:1" fill="#877179" d="M 74.5,54.5 C 74.56,53.9569 74.8933,53.6236 75.5,53.5C 76.8032,56.6447 76.8032,59.6447 75.5,62.5C 75.8064,59.6146 75.4731,56.9479 74.5,54.5 Z"/></g>
<g><path style="opacity:0.999" fill="#0e0807" d="M 83.5,54.5 C 83.8025,59.43 83.4692,64.2633 82.5,69C 70.6353,76.0982 58.6353,82.9316 46.5,89.5C 46.203,85.2325 46.5363,81.0659 47.5,77C 43.2211,75.5272 39.2211,73.5272 35.5,71C 34.2617,70.31 34.2617,69.81 35.5,69.5C 39.2726,71.2212 42.9392,73.2212 46.5,75.5C 47.1067,75.3764 47.44,75.0431 47.5,74.5C 51.5355,72.1517 55.5355,69.8184 59.5,67.5C 62.0046,67.9802 64.3379,68.9802 66.5,70.5C 67.1067,70.3764 67.44,70.0431 67.5,69.5C 70.9432,67.8956 74.2766,66.0623 77.5,64C 78.2744,61.595 78.7744,59.095 79,56.5C 80.3297,55.4178 81.8297,54.7512 83.5,54.5 Z"/></g>
<g><path style="opacity:1" fill="#403639" d="M 69.5,57.5 C 70.4682,59.6074 70.8016,61.9407 70.5,64.5C 70.44,65.0431 70.1067,65.3764 69.5,65.5C 68.1997,62.6908 68.1997,60.0241 69.5,57.5 Z"/></g>
<g><path style="opacity:1" fill="#635055" d="M 69.5,57.5 C 69.56,56.9569 69.8933,56.6236 70.5,56.5C 71.8003,59.3092 71.8003,61.9759 70.5,64.5C 70.8016,61.9407 70.4682,59.6074 69.5,57.5 Z"/></g>
<g><path style="opacity:1" fill="#e4afbe" d="M 47.5,59.5 C 49.2798,60.9899 49.9465,62.9899 49.5,65.5C 52.7916,65.3531 55.7916,64.3531 58.5,62.5C 59.4511,63.9187 59.7845,65.5853 59.5,67.5C 55.5355,69.8184 51.5355,72.1517 47.5,74.5C 46.1667,69.5 46.1667,64.5 47.5,59.5 Z"/></g>
<g><path style="opacity:0.896" fill="#212121" d="M 15.5,71.5 C 25.3712,76.9313 35.0379,82.598 44.5,88.5C 43.3991,89.5983 42.0657,89.765 40.5,89C 32.3333,84.1667 24.1667,79.3333 16,74.5C 15.5172,73.552 15.3505,72.552 15.5,71.5 Z"/></g>
</svg>
