<?xml version="1.0" encoding="UTF-8"?>
<!DOCTYPE svg PUBLIC "-//W3C//DTD SVG 1.1//EN" "http://www.w3.org/Graphics/SVG/1.1/DTD/svg11.dtd">
<svg xmlns="http://www.w3.org/2000/svg" version="1.1" width="96px" height="96px" style="shape-rendering:geometricPrecision; text-rendering:geometricPrecision; image-rendering:optimizeQuality; fill-rule:evenodd; clip-rule:evenodd" xmlns:xlink="http://www.w3.org/1999/xlink">
<g><path style="opacity:0.786" fill="#fff7fb" d="M 46.5,1.5 C 59.7785,9.1431 73.1118,16.8098 86.5,24.5C 87.6662,40.4896 87.8329,56.4896 87,72.5C 73.5955,79.1181 60.4288,86.1181 47.5,93.5C 34.5712,86.1181 21.4045,79.1181 8,72.5C 7.1671,56.4896 7.33377,40.4896 8.5,24.5C 21.5628,17.3102 34.2295,9.64354 46.5,1.5 Z"/></g>
<g><path style="opacity:1" fill="#ff419f" d="M 51.5,10.5 C 56.9135,18.3151 62.5802,25.9818 68.5,33.5C 54.5,34.8333 40.5,34.8333 26.5,33.5C 32.1906,26.148 37.8573,18.8146 43.5,11.5C 44.8098,9.85228 46.1431,8.18561 47.5,6.5C 48.5213,8.188 49.8546,9.52134 51.5,10.5 Z"/></g>
<g><path style="opacity:1" fill="#ff46a0" d="M 76.5,31.5 C 75.1851,32.4756 73.8518,33.4756 72.5,34.5C 65.7794,26.1233 59.1128,17.79 52.5,9.5C 51.0313,7.89469 51.3646,7.39469 53.5,8C 62.8333,13.3333 72.1667,18.6667 81.5,24C 82.4506,24.7175 82.6172,25.5509 82,26.5C 80.2703,28.4019 78.437,30.0686 76.5,31.5 Z"/></g>
<g><path style="opacity:1" fill="#ff45a0" d="M 41.5,11.5 C 35.3525,19.0969 29.1858,26.7635 23,34.5C 19.9556,31.9491 16.7889,29.6158 13.5,27.5C 12.3157,26.3121 12.3157,25.1455 13.5,24C 23.331,18.5856 32.9977,12.9189 42.5,7C 43.3317,6.31232 43.9984,6.47899 44.5,7.5C 43.4756,8.85181 42.4756,10.1851 41.5,11.5 Z"/></g>
<g><path style="opacity:1" fill="#ffb3d9" d="M 10.5,28.5 C 10.1717,40.3453 10.5051,52.012 11.5,63.5C 11.44,64.0431 11.1067,64.3764 10.5,64.5C 9.17548,52.3398 9.17548,40.3398 10.5,28.5 Z"/></g>
<g><path style="opacity:1" fill="#ff6db6" d="M 84.5,28.5 C 85.6595,39.9927 85.8261,51.6593 85,63.5C 84.2828,62.9558 83.7828,62.2891 83.5,61.5C 84.4946,50.6794 84.8279,39.6794 84.5,28.5 Z"/></g>
<g><path style="opacity:1" fill="#ff419e" d="M 10.5,28.5 C 13.8607,29.684 16.8607,31.5173 19.5,34C 20.8045,34.804 21.4712,35.9707 21.5,37.5C 18.1604,45.8565 14.8271,54.1899 11.5,62.5C 11.5,62.8333 11.5,63.1667 11.5,63.5C 10.5051,52.012 10.1717,40.3453 10.5,28.5 Z"/></g>
<g><path style="opacity:1" fill="#ff419e" d="M 84.5,28.5 C 84.8279,39.6794 84.4946,50.6794 83.5,61.5C 80.272,53.3221 76.9387,45.1554 73.5,37C 74.3441,34.9933 75.6774,33.4933 77.5,32.5C 79.6979,30.9019 82.0313,29.5686 84.5,28.5 Z"/></g>
<g><path style="opacity:1" fill="#ffebf5" d="M 52.5,9.5 C 59.1128,17.79 65.7794,26.1233 72.5,34.5C 73.8518,33.4756 75.1851,32.4756 76.5,31.5C 77.1667,31.5 77.5,31.8333 77.5,32.5C 75.6774,33.4933 74.3441,34.9933 73.5,37C 76.9387,45.1554 80.272,53.3221 83.5,61.5C 82.8333,61.5 82.5,61.8333 82.5,62.5C 79.0434,54.1507 75.3767,45.8173 71.5,37.5C 64.1058,49.2067 56.7725,60.8733 49.5,72.5C 49.5,71.8333 49.1667,71.5 48.5,71.5C 54.4049,61.3606 60.5716,51.3606 67,41.5C 68.0086,39.9751 68.5086,38.3084 68.5,36.5C 54.4841,36.1674 40.4841,36.5008 26.5,37.5C 32.9266,48.6941 39.5933,59.6941 46.5,70.5C 45.8333,70.5 45.5,70.8333 45.5,71.5C 38.1081,60.3999 30.9414,49.0666 24,37.5C 19.8597,46.109 16.0263,54.7756 12.5,63.5C 12.5,62.8333 12.1667,62.5 11.5,62.5C 14.8271,54.1899 18.1604,45.8565 21.5,37.5C 21.4712,35.9707 20.8045,34.804 19.5,34C 16.8607,31.5173 13.8607,29.684 10.5,28.5C 11.209,27.596 12.209,27.2627 13.5,27.5C 16.7889,29.6158 19.9556,31.9491 23,34.5C 29.1858,26.7635 35.3525,19.0969 41.5,11.5C 42.1667,11.5 42.8333,11.5 43.5,11.5C 37.8573,18.8146 32.1906,26.148 26.5,33.5C 40.5,34.8333 54.5,34.8333 68.5,33.5C 62.5802,25.9818 56.9135,18.3151 51.5,10.5C 51.5,9.83333 51.8333,9.5 52.5,9.5 Z"/></g>
<g><path style="opacity:1" fill="#ff44a1" d="M 48.5,71.5 C 47.5084,71.6716 46.8417,71.3382 46.5,70.5C 39.5933,59.6941 32.9266,48.6941 26.5,37.5C 40.4841,36.5008 54.4841,36.1674 68.5,36.5C 68.5086,38.3084 68.0086,39.9751 67,41.5C 60.5716,51.3606 54.4049,61.3606 48.5,71.5 Z"/></g>
<g><path style="opacity:1" fill="#ff43a0" d="M 82.5,62.5 C 82.5191,64.0603 82.8524,65.5603 83.5,67C 83.0946,67.9454 82.428,68.6121 81.5,69C 71.9915,70.4459 62.4915,71.9459 53,73.5C 51.6153,73.4857 50.4486,73.1524 49.5,72.5C 56.7725,60.8733 64.1058,49.2067 71.5,37.5C 75.3767,45.8173 79.0434,54.1507 82.5,62.5 Z"/></g>
<g><path style="opacity:1" fill="#ff44a0" d="M 45.5,71.5 C 44.6661,72.7479 43.3328,73.4146 41.5,73.5C 31.2394,72.3484 21.2394,70.3484 11.5,67.5C 12.2458,66.2638 12.5792,64.9305 12.5,63.5C 16.0263,54.7756 19.8597,46.109 24,37.5C 30.9414,49.0666 38.1081,60.3999 45.5,71.5 Z"/></g>
<g><path style="opacity:1" fill="#ff47a1" d="M 79.5,70.5 C 80.8734,70.3433 82.2068,70.51 83.5,71C 72.3233,77.0886 60.99,82.922 49.5,88.5C 48.2023,84.2846 48.2023,80.1179 49.5,76C 59.6168,74.0384 69.6168,72.205 79.5,70.5 Z"/></g>
<g><path style="opacity:1" fill="#ff45a0" d="M 12.5,71.5 C 12.7352,70.9033 13.2352,70.5699 14,70.5C 24.7791,72.5466 35.6124,74.2132 46.5,75.5C 46.8256,79.8839 46.4922,84.2172 45.5,88.5C 34.3166,83.0757 23.3166,77.409 12.5,71.5 Z"/></g>
</svg>
