<?xml version="1.0" encoding="UTF-8"?>
<!DOCTYPE svg PUBLIC "-//W3C//DTD SVG 1.1//EN" "http://www.w3.org/Graphics/SVG/1.1/DTD/svg11.dtd">
<svg xmlns="http://www.w3.org/2000/svg" version="1.1" width="96px" height="96px" style="shape-rendering:geometricPrecision; text-rendering:geometricPrecision; image-rendering:optimizeQuality; fill-rule:evenodd; clip-rule:evenodd" xmlns:xlink="http://www.w3.org/1999/xlink">
<g><path style="opacity:0.995" fill="#f8f9fa" d="M -0.5,-0.5 C 9.83333,-0.5 20.1667,-0.5 30.5,-0.5C 30.6107,0.117425 30.944,0.617425 31.5,1C 30.1772,1.81595 29.5106,2.98261 29.5,4.5C 28.4206,6.54297 26.754,7.8763 24.5,8.5C 23.8333,8.5 23.5,8.16667 23.5,7.5C 24.463,6.6365 24.463,5.96983 23.5,5.5C 21.7541,7.25156 19.7541,8.58489 17.5,9.5C 16.9569,9.55999 16.6236,9.89333 16.5,10.5C 17.6888,11.4287 19.0222,11.762 20.5,11.5C 20.2322,13.099 20.5655,14.4324 21.5,15.5C 25.983,20.4271 30.483,25.4271 35,30.5C 35.3826,29.944 35.8826,29.6107 36.5,29.5C 37.1667,29.5 37.8333,29.5 38.5,29.5C 39.1834,31.1765 40.5168,31.8432 42.5,31.5C 41.0484,32.3019 39.3817,32.8019 37.5,33C 38.0944,33.4643 38.7611,33.631 39.5,33.5C 40.0115,36.0215 41.0115,38.3549 42.5,40.5C 41.8333,40.5 41.5,40.8333 41.5,41.5C 39.8523,40.1902 38.1856,38.8569 36.5,37.5C 34.1,40.7589 32.7667,44.4256 32.5,48.5C 31.5655,47.4324 31.2322,46.099 31.5,44.5C 31.5172,42.4352 31.8505,40.4352 32.5,38.5C 33.8333,36.1667 33.8333,33.8333 32.5,31.5C 27.8551,26.5203 23.1884,21.5203 18.5,16.5C 16.9182,18.5771 15.9182,20.9104 15.5,23.5C 14.5,23.1667 13.8333,22.5 13.5,21.5C 14.3029,20.5768 14.4696,19.5768 14,18.5C 10.0342,21.464 6.36749,24.7974 3,28.5C 2.51722,29.448 2.35055,30.448 2.5,31.5C 1.77842,31.9175 1.27842,32.5842 1,33.5C 0.721579,32.5842 0.221579,31.9175 -0.5,31.5C -0.5,20.8333 -0.5,10.1667 -0.5,-0.5 Z"/></g>
<g><path style="opacity:0.999" fill="#e9ebf0" d="M 30.5,-0.5 C 34.8333,-0.5 39.1667,-0.5 43.5,-0.5C 47.5589,3.90882 52.2256,4.57549 57.5,1.5C 57.8417,2.33825 58.5084,2.67158 59.5,2.5C 58.2347,3.47934 56.9014,4.47934 55.5,5.5C 62.1982,8.45606 69.0316,11.1227 76,13.5C 76.4643,12.9056 76.631,12.2389 76.5,11.5C 78.175,13.002 80.0083,14.3353 82,15.5C 82.3988,15.2716 82.5654,14.9382 82.5,14.5C 83.5,15.5 84.5,16.5 85.5,17.5C 84.769,20.0472 85.769,22.0472 88.5,23.5C 89.625,24.3478 89.625,25.3478 88.5,26.5C 87.6851,25.5707 86.8518,24.5707 86,23.5C 86.8003,30.9067 88.3003,38.24 90.5,45.5C 92.2194,43.4559 93.8861,41.4559 95.5,39.5C 95.5,41.1667 95.5,42.8333 95.5,44.5C 91.3569,46.7772 90.0236,50.1106 91.5,54.5C 90.6618,54.8417 90.3284,55.5084 90.5,56.5C 89.1765,55.1501 88.1765,55.3167 87.5,57C 85.1584,63.3611 82.825,69.6944 80.5,76C 80.7284,76.3988 81.0618,76.5654 81.5,76.5C 80.6016,77.1577 79.6016,77.8243 78.5,78.5C 79.325,79.3857 80.325,79.719 81.5,79.5C 81.0472,80.4584 80.3805,81.2917 79.5,82C 79.7284,82.3988 80.0618,82.5654 80.5,82.5C 79.4188,84.1336 78.0855,85.467 76.5,86.5C 77.9687,84.8947 77.6354,84.3947 75.5,85C 74.1667,86 72.8333,87 71.5,88C 71.7284,88.3988 72.0618,88.5654 72.5,88.5C 71.828,89.2674 70.9947,89.9341 70,90.5C 70.1085,89.2312 69.9418,88.2312 69.5,87.5C 69.9528,86.5416 70.6195,85.7083 71.5,85C 64.1576,85.8914 56.8242,87.2248 49.5,89C 48.1667,89.6667 48.1667,90.3333 49.5,91C 52.5612,93.0347 55.8945,94.2014 59.5,94.5C 59.5,94.8333 59.5,95.1667 59.5,95.5C 57.1667,95.5 54.8333,95.5 52.5,95.5C 48.808,91.8276 44.4746,90.8276 39.5,92.5C 39.1583,91.6618 38.4916,91.3284 37.5,91.5C 38.0906,90.8485 38.7573,90.1818 39.5,89.5C 32.4695,87.3234 25.6361,84.6568 19,81.5C 18.7613,82.788 19.2613,83.788 20.5,84.5C 18.1658,85.8408 16.4991,85.1741 15.5,82.5C 14.3218,79.7835 13.3218,79.4501 12.5,81.5C 11.6588,80.0736 10.6588,78.7403 9.5,77.5C 10.2121,75.2058 9.37872,73.2058 7,71.5C 6.60123,71.7284 6.43456,72.0618 6.5,72.5C 5.24258,71.3774 5.57591,70.7107 7.5,70.5C 8.64991,71.8502 9.31658,71.6836 9.5,70C 8.24098,63.5214 7.07431,57.0214 6,50.5C 5.10723,49.2888 4.2739,49.2888 3.5,50.5C 1.67258,52.4872 0.672577,54.8205 0.5,57.5C 0.166667,57.5 -0.166667,57.5 -0.5,57.5C -0.5,55.5 -0.5,53.5 -0.5,51.5C 1.71067,49.439 3.37734,46.939 4.5,44C 3.59684,41.1234 2.59684,38.29 1.5,35.5C 0.832801,38.9773 0.166135,42.3107 -0.5,45.5C -0.5,40.8333 -0.5,36.1667 -0.5,31.5C 0.221579,31.9175 0.721579,32.5842 1,33.5C 1.27842,32.5842 1.77842,31.9175 2.5,31.5C 3.75695,34.096 4.92362,36.7627 6,39.5C 8.81257,33.544 11.3126,27.544 13.5,21.5C 13.8333,22.5 14.5,23.1667 15.5,23.5C 13.1827,29.4426 10.8494,35.4426 8.5,41.5C 8.83333,41.8333 9.16667,42.1667 9.5,42.5C 16.5448,39.2073 23.7115,36.2073 31,33.5C 32.0299,33.1639 32.5299,32.4972 32.5,31.5C 33.8333,33.8333 33.8333,36.1667 32.5,38.5C 32.5299,37.5028 32.0299,36.8361 31,36.5C 23.4514,39.0291 16.2847,42.1958 9.5,46C 14.4336,50.9336 19.4336,55.9336 24.5,61C 25.448,61.4828 26.448,61.6495 27.5,61.5C 28.0482,55.5492 29.3816,49.8825 31.5,44.5C 31.2322,46.099 31.5655,47.4324 32.5,48.5C 31.3496,53.4404 30.3496,58.4404 29.5,63.5C 38.5047,62.6108 47.5047,61.6108 56.5,60.5C 51.7238,53.9243 46.7238,47.5909 41.5,41.5C 41.5,40.8333 41.8333,40.5 42.5,40.5C 47.8117,46.1463 53.145,51.813 58.5,57.5C 61.4562,49.009 63.7895,40.3424 65.5,31.5C 56.8717,32.6043 48.2051,33.271 39.5,33.5C 38.7611,33.631 38.0944,33.4643 37.5,33C 39.3817,32.8019 41.0484,32.3019 42.5,31.5C 49.6197,30.0722 56.953,29.4055 64.5,29.5C 64.6495,28.448 64.4828,27.448 64,26.5C 60.3098,20.4397 56.1431,14.773 51.5,9.5C 47.1562,16.195 42.8229,22.8617 38.5,29.5C 37.8333,29.5 37.1667,29.5 36.5,29.5C 40.1421,22.8876 43.8088,16.2209 47.5,9.5C 46.6667,9.16667 45.8333,8.83333 45,8.5C 37.4974,10.0005 29.9974,11.5005 22.5,13C 21.7476,13.6708 21.4142,14.5041 21.5,15.5C 20.5655,14.4324 20.2322,13.099 20.5,11.5C 19.0222,11.762 17.6888,11.4287 16.5,10.5C 16.6236,9.89333 16.9569,9.55999 17.5,9.5C 17.56,10.0431 17.8933,10.3764 18.5,10.5C 20.3604,9.74013 22.027,8.74013 23.5,7.5C 23.5,8.16667 23.8333,8.5 24.5,8.5C 23.537,9.3635 23.537,10.0302 24.5,10.5C 31.8013,8.47383 39.1347,6.6405 46.5,5C 43.2801,3.2229 39.9467,1.7229 36.5,0.5C 34.1729,1.82317 31.8396,3.1565 29.5,4.5C 29.5106,2.98261 30.1772,1.81595 31.5,1C 30.944,0.617425 30.6107,0.117425 30.5,-0.5 Z"/></g>
<g><path style="opacity:0.992" fill="#fbfbfc" d="M 50.5,-0.5 C 65.5,-0.5 80.5,-0.5 95.5,-0.5C 95.5,12.1667 95.5,24.8333 95.5,37.5C 92.7795,34.106 90.4462,30.4394 88.5,26.5C 89.625,25.3478 89.625,24.3478 88.5,23.5C 87.5294,21.5168 86.5294,19.5168 85.5,17.5C 84.5,16.5 83.5,15.5 82.5,14.5C 81.024,12.5 79.1906,10.8334 77,9.5C 76.5357,10.0944 76.369,10.7611 76.5,11.5C 72.3939,8.5711 68.3939,5.40444 64.5,2C 62.735,1.36026 61.0683,1.52692 59.5,2.5C 58.5084,2.67158 57.8417,2.33825 57.5,1.5C 55.1667,0.833333 52.8333,0.166667 50.5,-0.5 Z"/></g>
<g><path style="opacity:1" fill="#4b5a88" d="M 43.5,-0.5 C 45.8333,-0.5 48.1667,-0.5 50.5,-0.5C 52.8333,0.166667 55.1667,0.833333 57.5,1.5C 52.2256,4.57549 47.5589,3.90882 43.5,-0.5 Z"/></g>
<g><path style="opacity:1" fill="#506091" d="M 24.5,8.5 C 26.754,7.8763 28.4206,6.54297 29.5,4.5C 31.8396,3.1565 34.1729,1.82317 36.5,0.5C 39.9467,1.7229 43.2801,3.2229 46.5,5C 39.1347,6.6405 31.8013,8.47383 24.5,10.5C 23.537,10.0302 23.537,9.3635 24.5,8.5 Z"/></g>
<g><path style="opacity:1" fill="#566793" d="M 76.5,11.5 C 76.631,12.2389 76.4643,12.9056 76,13.5C 69.0316,11.1227 62.1982,8.45606 55.5,5.5C 56.9014,4.47934 58.2347,3.47934 59.5,2.5C 61.0683,1.52692 62.735,1.36026 64.5,2C 68.3939,5.40444 72.3939,8.5711 76.5,11.5 Z"/></g>
<g><path style="opacity:1" fill="#777c97" d="M 23.5,7.5 C 22.027,8.74013 20.3604,9.74013 18.5,10.5C 17.8933,10.3764 17.56,10.0431 17.5,9.5C 19.7541,8.58489 21.7541,7.25156 23.5,5.5C 24.463,5.96983 24.463,6.6365 23.5,7.5 Z"/></g>
<g><path style="opacity:1" fill="#8990a2" d="M 82.5,14.5 C 82.5654,14.9382 82.3988,15.2716 82,15.5C 80.0083,14.3353 78.175,13.002 76.5,11.5C 76.369,10.7611 76.5357,10.0944 77,9.5C 79.1906,10.8334 81.024,12.5 82.5,14.5 Z"/></g>
<g><path style="opacity:1" fill="#536494" d="M 36.5,29.5 C 35.8826,29.6107 35.3826,29.944 35,30.5C 30.483,25.4271 25.983,20.4271 21.5,15.5C 21.4142,14.5041 21.7476,13.6708 22.5,13C 29.9974,11.5005 37.4974,10.0005 45,8.5C 45.8333,8.83333 46.6667,9.16667 47.5,9.5C 43.8088,16.2209 40.1421,22.8876 36.5,29.5 Z"/></g>
<g><path style="opacity:1" fill="#516391" d="M 55.5,8.5 C 63.5819,11.1909 71.5819,14.1909 79.5,17.5C 76.4421,21.5246 72.7755,24.8579 68.5,27.5C 63.4182,21.6668 59.0849,15.3335 55.5,8.5 Z"/></g>
<g><path style="opacity:1" fill="#8c93a6" d="M 13.5,12.5 C 15.6456,12.6964 15.8122,13.6964 14,15.5C 12.8867,17.3293 11.3867,18.1626 9.5,18C 11.4641,16.549 12.7974,14.7157 13.5,12.5 Z"/></g>
<g><path style="opacity:1" fill="#3b4a70" d="M 42.5,31.5 C 40.5168,31.8432 39.1834,31.1765 38.5,29.5C 42.8229,22.8617 47.1562,16.195 51.5,9.5C 56.1431,14.773 60.3098,20.4397 64,26.5C 64.4828,27.448 64.6495,28.448 64.5,29.5C 56.953,29.4055 49.6197,30.0722 42.5,31.5 Z"/></g>
<g><path style="opacity:1" fill="#536593" d="M 32.5,31.5 C 32.5299,32.4972 32.0299,33.1639 31,33.5C 23.7115,36.2073 16.5448,39.2073 9.5,42.5C 9.16667,42.1667 8.83333,41.8333 8.5,41.5C 10.8494,35.4426 13.1827,29.4426 15.5,23.5C 15.9182,20.9104 16.9182,18.5771 18.5,16.5C 23.1884,21.5203 27.8551,26.5203 32.5,31.5 Z"/></g>
<g><path style="opacity:1" fill="#6b718e" d="M 85.5,17.5 C 86.5294,19.5168 87.5294,21.5168 88.5,23.5C 85.769,22.0472 84.769,20.0472 85.5,17.5 Z"/></g>
<g><path style="opacity:1" fill="#546493" d="M 80.5,20.5 C 81.4959,20.4142 82.3292,20.7476 83,21.5C 84.4448,29.4909 85.4448,37.4909 86,45.5C 80.7669,40.2669 75.6003,35.1003 70.5,30C 73.7077,26.6237 77.041,23.4571 80.5,20.5 Z"/></g>
<g><path style="opacity:1" fill="#526190" d="M 13.5,21.5 C 11.3126,27.544 8.81257,33.544 6,39.5C 4.92362,36.7627 3.75695,34.096 2.5,31.5C 2.35055,30.448 2.51722,29.448 3,28.5C 6.36749,24.7974 10.0342,21.464 14,18.5C 14.4696,19.5768 14.3029,20.5768 13.5,21.5 Z"/></g>
<g><path style="opacity:1" fill="#516290" d="M 88.5,26.5 C 90.4462,30.4394 92.7795,34.106 95.5,37.5C 95.5,38.1667 95.5,38.8333 95.5,39.5C 93.8861,41.4559 92.2194,43.4559 90.5,45.5C 88.3003,38.24 86.8003,30.9067 86,23.5C 86.8518,24.5707 87.6851,25.5707 88.5,26.5 Z"/></g>
<g><path style="opacity:1" fill="#536494" d="M 42.5,40.5 C 41.0115,38.3549 40.0115,36.0215 39.5,33.5C 48.2051,33.271 56.8717,32.6043 65.5,31.5C 63.7895,40.3424 61.4562,49.009 58.5,57.5C 53.145,51.813 47.8117,46.1463 42.5,40.5 Z"/></g>
<g><path style="opacity:1" fill="#3d4b72" d="M 32.5,38.5 C 31.8505,40.4352 31.5172,42.4352 31.5,44.5C 29.3816,49.8825 28.0482,55.5492 27.5,61.5C 26.448,61.6495 25.448,61.4828 24.5,61C 19.4336,55.9336 14.4336,50.9336 9.5,46C 16.2847,42.1958 23.4514,39.0291 31,36.5C 32.0299,36.8361 32.5299,37.5028 32.5,38.5 Z"/></g>
<g><path style="opacity:1" fill="#3d4b71" d="M 67.5,33.5 C 68.552,33.3505 69.552,33.5172 70.5,34C 74.533,38.3679 78.8663,42.3679 83.5,46C 85.0368,47.1096 85.7035,48.6096 85.5,50.5C 77.8333,53.1667 70.1667,55.8333 62.5,58.5C 64.3171,50.2261 65.9837,41.8928 67.5,33.5 Z"/></g>
<g><path style="opacity:1" fill="#616d96" d="M -0.5,51.5 C -0.5,49.5 -0.5,47.5 -0.5,45.5C 0.166135,42.3107 0.832801,38.9773 1.5,35.5C 2.59684,38.29 3.59684,41.1234 4.5,44C 3.37734,46.939 1.71067,49.439 -0.5,51.5 Z"/></g>
<g><path style="opacity:1" fill="#62c3d6" d="M 41.5,41.5 C 46.7238,47.5909 51.7238,53.9243 56.5,60.5C 47.5047,61.6108 38.5047,62.6108 29.5,63.5C 30.3496,58.4404 31.3496,53.4404 32.5,48.5C 32.7667,44.4256 34.1,40.7589 36.5,37.5C 38.1856,38.8569 39.8523,40.1902 41.5,41.5 Z"/></g>
<g><path style="opacity:1" fill="#5b6792" d="M 95.5,44.5 C 95.5,45.1667 95.5,45.8333 95.5,46.5C 94.8336,50.6845 94.1669,55.0178 93.5,59.5C 92.8302,57.7086 92.1635,56.0419 91.5,54.5C 90.0236,50.1106 91.3569,46.7772 95.5,44.5 Z"/></g>
<g><path style="opacity:1" fill="#526393" d="M 84.5,52.5 C 85.3764,52.3691 86.0431,52.7025 86.5,53.5C 83.1641,61.843 79.8307,70.1763 76.5,78.5C 71.4897,73.4882 66.823,68.1549 62.5,62.5C 69.8166,58.9579 77.1499,55.6245 84.5,52.5 Z"/></g>
<g><path style="opacity:0.992" fill="#fafbfb" d="M 95.5,46.5 C 95.5,62.8333 95.5,79.1667 95.5,95.5C 83.5,95.5 71.5,95.5 59.5,95.5C 59.5,95.1667 59.5,94.8333 59.5,94.5C 62.8514,92.1414 66.1847,89.8081 69.5,87.5C 69.9418,88.2312 70.1085,89.2312 70,90.5C 70.9947,89.9341 71.828,89.2674 72.5,88.5C 73.8333,87.8333 75.1667,87.1667 76.5,86.5C 78.0855,85.467 79.4188,84.1336 80.5,82.5C 81.8118,81.8549 82.8118,80.8549 83.5,79.5C 83.0302,78.537 82.3635,78.537 81.5,79.5C 80.325,79.719 79.325,79.3857 78.5,78.5C 79.6016,77.8243 80.6016,77.1577 81.5,76.5C 85.1309,73.3707 88.6309,70.0374 92,66.5C 92.0475,63.1224 91.5475,59.7891 90.5,56.5C 90.3284,55.5084 90.6618,54.8417 91.5,54.5C 92.1635,56.0419 92.8302,57.7086 93.5,59.5C 94.1669,55.0178 94.8336,50.6845 95.5,46.5 Z"/></g>
<g><path style="opacity:0.993" fill="#fbfcfc" d="M -0.5,57.5 C -0.166667,57.5 0.166667,57.5 0.5,57.5C 3.10018,61.701 5.43351,66.0344 7.5,70.5C 5.57591,70.7107 5.24258,71.3774 6.5,72.5C 7.75152,74.0009 8.75152,75.6675 9.5,77.5C 10.6588,78.7403 11.6588,80.0736 12.5,81.5C 13.391,82.1098 14.391,82.4431 15.5,82.5C 16.4991,85.1741 18.1658,85.8408 20.5,84.5C 23.667,87.498 27.0003,90.3314 30.5,93C 33.0953,93.6004 35.4287,93.1004 37.5,91.5C 38.4916,91.3284 39.1583,91.6618 39.5,92.5C 38.4489,93.2223 37.7822,94.2223 37.5,95.5C 24.8333,95.5 12.1667,95.5 -0.5,95.5C -0.5,82.8333 -0.5,70.1667 -0.5,57.5 Z"/></g>
<g><path style="opacity:1" fill="#566492" d="M 90.5,56.5 C 91.5475,59.7891 92.0475,63.1224 92,66.5C 88.6309,70.0374 85.1309,73.3707 81.5,76.5C 81.0618,76.5654 80.7284,76.3988 80.5,76C 82.825,69.6944 85.1584,63.3611 87.5,57C 88.1765,55.3167 89.1765,55.1501 90.5,56.5 Z"/></g>
<g><path style="opacity:1" fill="#536392" d="M 8.5,49.5 C 14.03,54.5311 19.3634,59.6978 24.5,65C 21.5664,67.9336 18.5664,70.9336 15.5,74C 14.552,74.4828 13.552,74.6495 12.5,74.5C 11.1672,66.1707 9.83383,57.8373 8.5,49.5 Z"/></g>
<g><path style="opacity:1" fill="#556492" d="M 7.5,70.5 C 5.43351,66.0344 3.10018,61.701 0.5,57.5C 0.672577,54.8205 1.67258,52.4872 3.5,50.5C 4.2739,49.2888 5.10723,49.2888 6,50.5C 7.07431,57.0214 8.24098,63.5214 9.5,70C 9.31658,71.6836 8.64991,71.8502 7.5,70.5 Z"/></g>
<g><path style="opacity:1" fill="#536494" d="M 49.5,63.5 C 51.924,63.1924 54.2573,63.5258 56.5,64.5C 52.9042,72.039 48.5709,79.039 43.5,85.5C 38.1465,79.45 33.8132,72.7833 30.5,65.5C 37.0164,65.2101 43.3498,64.5435 49.5,63.5 Z"/></g>
<g><path style="opacity:1" fill="#526393" d="M 59.5,64.5 C 64.4878,69.4921 69.1545,74.8254 73.5,80.5C 65.0934,83.982 56.4267,85.6487 47.5,85.5C 51.2589,78.3098 55.2589,71.3098 59.5,64.5 Z"/></g>
<g><path style="opacity:1" fill="#526492" d="M 25.5,67.5 C 27.0174,67.5106 28.1841,68.1772 29,69.5C 32.9146,75.0212 36.2479,80.6879 39,86.5C 30.9514,84.0309 23.1181,81.0309 15.5,77.5C 19.1606,74.5061 22.4939,71.1727 25.5,67.5 Z"/></g>
<g><path style="opacity:1" fill="#5d6185" d="M 9.5,77.5 C 8.75152,75.6675 7.75152,74.0009 6.5,72.5C 6.43456,72.0618 6.60123,71.7284 7,71.5C 9.37872,73.2058 10.2121,75.2058 9.5,77.5 Z"/></g>
<g><path style="opacity:1" fill="#555a7a" d="M 15.5,82.5 C 14.391,82.4431 13.391,82.1098 12.5,81.5C 13.3218,79.4501 14.3218,79.7835 15.5,82.5 Z"/></g>
<g><path style="opacity:1" fill="#6d7093" d="M 80.5,82.5 C 80.0618,82.5654 79.7284,82.3988 79.5,82C 80.3805,81.2917 81.0472,80.4584 81.5,79.5C 82.3635,78.537 83.0302,78.537 83.5,79.5C 82.8118,80.8549 81.8118,81.8549 80.5,82.5 Z"/></g>
<g><path style="opacity:1" fill="#696e8f" d="M 76.5,86.5 C 75.1667,87.1667 73.8333,87.8333 72.5,88.5C 72.0618,88.5654 71.7284,88.3988 71.5,88C 72.8333,87 74.1667,86 75.5,85C 77.6354,84.3947 77.9687,84.8947 76.5,86.5 Z"/></g>
<g><path style="opacity:1" fill="#546490" d="M 69.5,87.5 C 66.1847,89.8081 62.8514,92.1414 59.5,94.5C 55.8945,94.2014 52.5612,93.0347 49.5,91C 48.1667,90.3333 48.1667,89.6667 49.5,89C 56.8242,87.2248 64.1576,85.8914 71.5,85C 70.6195,85.7083 69.9528,86.5416 69.5,87.5 Z"/></g>
<g><path style="opacity:1" fill="#50608d" d="M 37.5,91.5 C 35.4287,93.1004 33.0953,93.6004 30.5,93C 27.0003,90.3314 23.667,87.498 20.5,84.5C 19.2613,83.788 18.7613,82.788 19,81.5C 25.6361,84.6568 32.4695,87.3234 39.5,89.5C 38.7573,90.1818 38.0906,90.8485 37.5,91.5 Z"/></g>
<g><path style="opacity:1" fill="#586692" d="M 52.5,95.5 C 47.5,95.5 42.5,95.5 37.5,95.5C 37.7822,94.2223 38.4489,93.2223 39.5,92.5C 44.4746,90.8276 48.808,91.8276 52.5,95.5 Z"/></g>
</svg>
