<?xml version="1.0" encoding="UTF-8"?>
<!DOCTYPE svg PUBLIC "-//W3C//DTD SVG 1.1//EN" "http://www.w3.org/Graphics/SVG/1.1/DTD/svg11.dtd">
<svg xmlns="http://www.w3.org/2000/svg" version="1.1" width="96px" height="96px" style="shape-rendering:geometricPrecision; text-rendering:geometricPrecision; image-rendering:optimizeQuality; fill-rule:evenodd; clip-rule:evenodd" xmlns:xlink="http://www.w3.org/1999/xlink">
<g><path style="opacity:0.974" fill="#040404" d="M 37.5,-0.5 C 44.1667,-0.5 50.8333,-0.5 57.5,-0.5C 77.1667,5.16667 89.8333,17.8333 95.5,37.5C 95.5,44.1667 95.5,50.8333 95.5,57.5C 89.8333,77.1667 77.1667,89.8333 57.5,95.5C 50.8333,95.5 44.1667,95.5 37.5,95.5C 17.8333,89.8333 5.16667,77.1667 -0.5,57.5C -0.5,50.8333 -0.5,44.1667 -0.5,37.5C 5.16667,17.8333 17.8333,5.16667 37.5,-0.5 Z"/></g>
<g><path style="opacity:1" fill="#eaeaea" d="M 32.5,13.5 C 34.5824,13.472 36.4157,14.1387 38,15.5C 39.5008,19.5058 41.0008,23.5058 42.5,27.5C 42,27.8333 41.5,28.1667 41,28.5C 35.0586,25.2861 32.2253,20.2861 32.5,13.5 Z"/></g>
<g><path style="opacity:1" fill="#f2f2f2" d="M 33.5,11.5 C 39.1323,10.8303 43.7989,12.997 47.5,18C 59.5682,16.6232 69.0682,20.7899 76,30.5C 76.7885,32.1647 77.1218,33.8314 77,35.5C 75.786,33.9512 74.286,32.7845 72.5,32C 66.283,32.0637 60.283,31.0637 54.5,29C 50.3584,25.0377 46.6917,20.7044 43.5,16C 40.531,13.682 37.1977,12.182 33.5,11.5 Z"/></g>
<g><path style="opacity:1" fill="#f0f0f0" d="M 35.5,27.5 C 36.0431,27.56 36.3764,27.8933 36.5,28.5C 35.6872,29.8139 34.6872,30.9805 33.5,32C 30.7796,32.7967 28.2796,33.9633 26,35.5C 25.9694,39.7682 24.9694,43.7682 23,47.5C 22.3333,49.8333 22.3333,52.1667 23,54.5C 32.7019,62.5434 31.2019,67.8768 18.5,70.5C 10.3398,62.405 10.5065,54.405 19,46.5C 20.7544,42.6386 22.0877,38.6386 23,34.5C 23.8333,33.6667 24.6667,32.8333 25.5,32C 29.7419,32.2616 33.0753,30.7616 35.5,27.5 Z"/></g>
<g><path style="opacity:1" fill="#f6f6f6" d="M 53.5,31.5 C 61.1801,33.529 68.8468,35.6957 76.5,38C 82.5369,42.6376 84.0369,48.4709 81,55.5C 80.2078,53.4127 79.0412,51.5793 77.5,50C 69.8086,47.0721 62.6419,43.2387 56,38.5C 54.5886,36.3496 53.7553,34.0163 53.5,31.5 Z"/></g>
<g><path style="opacity:1" fill="#e3e3e3" d="M 37.5,34.5 C 42.4928,34.997 43.4928,37.1637 40.5,41C 34.1979,41.23 33.1979,39.0633 37.5,34.5 Z"/></g>
<g><path style="opacity:1" fill="#f5f5f5" d="M 63.5,46.5 C 69.826,48.5757 74.9927,52.2423 79,57.5C 81.0368,65.0809 78.8701,71.0809 72.5,75.5C 72.4185,72.6669 72.2518,69.6669 72,66.5C 69.9164,62.6641 67.583,58.9974 65,55.5C 63.8512,52.6074 63.3512,49.6074 63.5,46.5 Z"/></g>
<g><path style="opacity:1" fill="#d6d6d6" d="M 59.5,44.5 C 60.1174,44.6107 60.6174,44.944 61,45.5C 62.1893,49.7092 61.356,53.3758 58.5,56.5C 52.5791,58.3203 46.5791,59.4869 40.5,60C 41.3279,59.0853 42.3279,58.4186 43.5,58C 47.8632,57.1065 52.1965,56.1065 56.5,55C 60.2326,52.2314 61.2326,48.7314 59.5,44.5 Z"/></g>
<g><path style="opacity:1" fill="#131313" d="M 16.5,57.5 C 18.4646,57.9483 18.7979,58.9483 17.5,60.5C 16.6143,59.675 16.281,58.675 16.5,57.5 Z"/></g>
<g><path style="opacity:1" fill="#e2e2e2" d="M 39.5,62.5 C 50.6953,62.5273 56.5286,68.194 57,79.5C 59.405,80.2744 61.905,80.7744 64.5,81C 61.5689,82.9101 58.5689,82.9101 55.5,81C 53.1943,76.7279 50.5276,72.7279 47.5,69C 45.5767,68.1922 43.5767,67.6922 41.5,67.5C 24.8724,71.1918 24.2058,69.5251 39.5,62.5 Z"/></g>
</svg>
