<?xml version="1.0" encoding="UTF-8"?>
<!DOCTYPE svg PUBLIC "-//W3C//DTD SVG 1.1//EN" "http://www.w3.org/Graphics/SVG/1.1/DTD/svg11.dtd">
<svg xmlns="http://www.w3.org/2000/svg" version="1.1" width="96px" height="96px" style="shape-rendering:geometricPrecision; text-rendering:geometricPrecision; image-rendering:optimizeQuality; fill-rule:evenodd; clip-rule:evenodd" xmlns:xlink="http://www.w3.org/1999/xlink">
<g><path style="opacity:1" fill="#200914" d="M -0.5,-0.5 C 3.83333,-0.5 8.16667,-0.5 12.5,-0.5C 13.3984,0.157674 14.3984,0.824341 15.5,1.5C 14.2299,2.28763 13.2299,3.28763 12.5,4.5C 8.58388,4.27712 6.08388,5.94379 5,9.5C 3.93257,10.1905 2.76591,10.6905 1.5,11C 3.15536,12.4443 3.82202,14.2776 3.5,16.5C 2.04125,16.5674 0.707917,16.2341 -0.5,15.5C -0.5,10.1667 -0.5,4.83333 -0.5,-0.5 Z"/></g>
<g><path style="opacity:1" fill="#110919" d="M 39.5,-0.5 C 49.8333,-0.5 60.1667,-0.5 70.5,-0.5C 70.5299,0.497222 70.0299,1.16389 69,1.5C 66.8014,0.354638 64.6348,0.354638 62.5,1.5C 64.4233,2.30779 66.4233,2.80779 68.5,3C 67.5494,3.71752 67.3828,4.55085 68,5.5C 69.3629,3.21568 70.8629,3.04901 72.5,5C 71.635,6.35884 70.635,7.52551 69.5,8.5C 67.6096,8.2965 66.1096,8.96317 65,10.5C 64.3333,9.16667 63.6667,7.83333 63,6.5C 60.9345,12.6077 58.4345,12.6077 55.5,6.5C 54.7261,5.85287 53.7261,5.51954 52.5,5.5C 50.4649,6.20434 48.4649,6.871 46.5,7.5C 43.9296,6.51596 43.9296,5.3493 46.5,4C 43.8333,3 41.1667,2 38.5,1C 39.056,0.617425 39.3893,0.117425 39.5,-0.5 Z"/></g>
<g><path style="opacity:1" fill="#150823" d="M 76.5,-0.5 C 82.8333,-0.5 89.1667,-0.5 95.5,-0.5C 95.5,2.16667 95.5,4.83333 95.5,7.5C 94.7784,7.91753 94.2784,8.5842 94,9.5C 91.0487,4.60239 86.882,2.93572 81.5,4.5C 83.7662,5.31416 86.0995,5.81416 88.5,6C 89.7101,7.0391 90.7101,8.20577 91.5,9.5C 89.4885,10.341 88.1552,11.841 87.5,14C 86.0406,13.6446 84.7072,13.8112 83.5,14.5C 83.6716,13.5084 83.3382,12.8417 82.5,12.5C 82.4142,11.5041 82.7476,10.6708 83.5,10C 81.9984,9.41692 80.6651,8.58359 79.5,7.5C 80.2458,6.26381 80.5792,4.93047 80.5,3.5C 79.5,3.5 78.5,3.5 77.5,3.5C 77.5674,2.04125 77.2341,0.707917 76.5,-0.5 Z"/></g>
<g><path style="opacity:1" fill="#28142a" d="M 12.5,-0.5 C 17.8333,-0.5 23.1667,-0.5 28.5,-0.5C 28.8333,0.166667 29.1667,0.833333 29.5,1.5C 26.1043,1.63289 25.7709,2.63289 28.5,4.5C 27.8118,5.85493 26.8118,6.85493 25.5,7.5C 25.2648,6.90326 24.7648,6.56993 24,6.5C 20.7287,7.18668 17.8954,8.52001 15.5,10.5C 14.8333,10.5 14.5,10.8333 14.5,11.5C 13.5266,11.0133 12.5266,10.5133 11.5,10C 11.6897,8.17175 12.0231,6.33841 12.5,4.5C 13.2299,3.28763 14.2299,2.28763 15.5,1.5C 14.3984,0.824341 13.3984,0.157674 12.5,-0.5 Z"/></g>
<g><path style="opacity:1" fill="#35141f" d="M 12.5,4.5 C 12.0231,6.33841 11.6897,8.17175 11.5,10C 12.5266,10.5133 13.5266,11.0133 14.5,11.5C 13.2506,15.0654 10.9173,17.3987 7.5,18.5C 6.88258,18.3893 6.38258,18.056 6,17.5C 4.7333,21.2496 2.56663,24.2496 -0.5,26.5C -0.5,22.8333 -0.5,19.1667 -0.5,15.5C 0.707917,16.2341 2.04125,16.5674 3.5,16.5C 3.82202,14.2776 3.15536,12.4443 1.5,11C 2.76591,10.6905 3.93257,10.1905 5,9.5C 6.08388,5.94379 8.58388,4.27712 12.5,4.5 Z"/></g>
<g><path style="opacity:1" fill="#281934" d="M 29.5,1.5 C 31.0853,2.47374 32.0853,3.97374 32.5,6C 34.5,6.83333 36.5,7.66667 38.5,8.5C 37.4937,9.39567 37.4937,10.0623 38.5,10.5C 41.1257,10.5731 43.7924,9.90641 46.5,8.5C 47.5679,12.5901 50.2346,14.7568 54.5,15C 55.2524,15.6708 55.5858,16.5041 55.5,17.5C 54.0755,15.9689 53.4088,16.3023 53.5,18.5C 49.6767,14.5932 45.0101,12.9266 39.5,13.5C 37.5266,12.5133 35.5266,11.5133 33.5,10.5C 30.9711,11.9597 28.3044,12.4597 25.5,12C 26.1667,11 26.8333,10 27.5,9C 25.6573,8.8413 24.9907,8.3413 25.5,7.5C 26.8118,6.85493 27.8118,5.85493 28.5,4.5C 25.7709,2.63289 26.1043,1.63289 29.5,1.5 Z"/></g>
<g><path style="opacity:1" fill="#181227" d="M 28.5,-0.5 C 32.1667,-0.5 35.8333,-0.5 39.5,-0.5C 39.3893,0.117425 39.056,0.617425 38.5,1C 41.1667,2 43.8333,3 46.5,4C 43.9296,5.3493 43.9296,6.51596 46.5,7.5C 46.5,7.83333 46.5,8.16667 46.5,8.5C 43.7924,9.90641 41.1257,10.5731 38.5,10.5C 37.4937,10.0623 37.4937,9.39567 38.5,8.5C 36.5,7.66667 34.5,6.83333 32.5,6C 32.0853,3.97374 31.0853,2.47374 29.5,1.5C 29.1667,0.833333 28.8333,0.166667 28.5,-0.5 Z"/></g>
<g><path style="opacity:1" fill="#11051a" d="M 70.5,-0.5 C 72.5,-0.5 74.5,-0.5 76.5,-0.5C 77.2341,0.707917 77.5674,2.04125 77.5,3.5C 78.5,3.5 79.5,3.5 80.5,3.5C 80.5792,4.93047 80.2458,6.26381 79.5,7.5C 80.6651,8.58359 81.9984,9.41692 83.5,10C 82.7476,10.6708 82.4142,11.5041 82.5,12.5C 79.7602,11.7871 77.7602,10.1204 76.5,7.5C 74.2534,8.37422 71.9201,8.70755 69.5,8.5C 70.635,7.52551 71.635,6.35884 72.5,5C 70.8629,3.04901 69.3629,3.21568 68,5.5C 67.3828,4.55085 67.5494,3.71752 68.5,3C 66.4233,2.80779 64.4233,2.30779 62.5,1.5C 64.6348,0.354638 66.8014,0.354638 69,1.5C 70.0299,1.16389 70.5299,0.497222 70.5,-0.5 Z"/></g>
<g><path style="opacity:1" fill="#f0f0f7" d="M 39.5,13.5 C 45.0101,12.9266 49.6767,14.5932 53.5,18.5C 53.5,19.1667 53.5,19.8333 53.5,20.5C 45.6851,16.2607 39.1851,17.9274 34,25.5C 33.5034,27.8098 33.3367,30.1432 33.5,32.5C 31.7345,29.8774 31.0679,26.8774 31.5,23.5C 33.0642,19.2708 35.7308,15.9374 39.5,13.5 Z"/></g>
<g><path style="opacity:1" fill="#3f2343" d="M 25.5,7.5 C 24.9907,8.3413 25.6573,8.8413 27.5,9C 26.8333,10 26.1667,11 25.5,12C 28.3044,12.4597 30.9711,11.9597 33.5,10.5C 35.5266,11.5133 37.5266,12.5133 39.5,13.5C 35.7308,15.9374 33.0642,19.2708 31.5,23.5C 30.6981,24.9516 30.1981,26.6183 30,28.5C 29.6174,27.944 29.1174,27.6107 28.5,27.5C 28.5,25.8333 28.5,24.1667 28.5,22.5C 26.4458,22.3653 24.7791,23.032 23.5,24.5C 21.0065,24.8693 20.3398,24.2027 21.5,22.5C 23.2528,20.7775 25.2528,19.2775 27.5,18C 25.4584,15.7869 23.125,15.1202 20.5,16C 21.4506,15.2825 21.6172,14.4491 21,13.5C 18.905,15.0499 16.7383,15.3832 14.5,14.5C 15.1667,13.5 15.8333,12.5 16.5,11.5C 16.3764,10.8933 16.0431,10.56 15.5,10.5C 17.8954,8.52001 20.7287,7.18668 24,6.5C 24.7648,6.56993 25.2648,6.90326 25.5,7.5 Z"/></g>
<g><path style="opacity:1" fill="#542449" d="M 15.5,10.5 C 16.0431,10.56 16.3764,10.8933 16.5,11.5C 15.8333,12.5 15.1667,13.5 14.5,14.5C 16.7383,15.3832 18.905,15.0499 21,13.5C 21.6172,14.4491 21.4506,15.2825 20.5,16C 23.125,15.1202 25.4584,15.7869 27.5,18C 25.2528,19.2775 23.2528,20.7775 21.5,22.5C 15.8279,27.5307 11.1613,33.5307 7.5,40.5C 8.02527,41.1924 8.69194,41.6924 9.5,42C 8.16667,43 6.83333,44 5.5,45C 6.05596,45.3826 6.38929,45.8826 6.5,46.5C 4.16667,47.1667 1.83333,47.8333 -0.5,48.5C -0.5,45.8333 -0.5,43.1667 -0.5,40.5C 4.48091,41.9066 7.31424,39.9066 8,34.5C 9.98298,32.0163 12.1496,29.6829 14.5,27.5C 12.7997,25.9324 11.4664,24.099 10.5,22C 9.55198,21.5172 8.55198,21.3505 7.5,21.5C 7.5,20.5 7.5,19.5 7.5,18.5C 10.9173,17.3987 13.2506,15.0654 14.5,11.5C 14.5,10.8333 14.8333,10.5 15.5,10.5 Z"/></g>
<g><path style="opacity:1" fill="#270e28" d="M 55.5,6.5 C 58.4345,12.6077 60.9345,12.6077 63,6.5C 63.6667,7.83333 64.3333,9.16667 65,10.5C 66.1096,8.96317 67.6096,8.2965 69.5,8.5C 71.9201,8.70755 74.2534,8.37422 76.5,7.5C 77.7602,10.1204 79.7602,11.7871 82.5,12.5C 83.3382,12.8417 83.6716,13.5084 83.5,14.5C 81.849,14.6642 80.1823,15.6642 78.5,17.5C 78.8333,18.1667 79.1667,18.8333 79.5,19.5C 77.6187,21.7337 75.2853,23.067 72.5,23.5C 71.8333,23.5 71.1667,23.5 70.5,23.5C 67.9255,21.057 65.0921,19.7237 62,19.5C 59.5256,15.2289 57.359,10.8956 55.5,6.5 Z"/></g>
<g><path style="opacity:1" fill="#100871" d="M 53.5,20.5 C 54.5928,29.6068 50.4261,34.9401 41,36.5C 37.9766,36.0726 35.4766,34.7393 33.5,32.5C 33.3367,30.1432 33.5034,27.8098 34,25.5C 39.1851,17.9274 45.6851,16.2607 53.5,20.5 Z"/></g>
<g><path style="opacity:1" fill="#381a32" d="M 55.5,6.5 C 57.359,10.8956 59.5256,15.2289 62,19.5C 65.0921,19.7237 67.9255,21.057 70.5,23.5C 65.8839,22.2026 61.7173,23.2026 58,26.5C 57.5357,25.9056 57.369,25.2389 57.5,24.5C 57.1218,22.079 56.4552,19.7457 55.5,17.5C 55.5858,16.5041 55.2524,15.6708 54.5,15C 50.2346,14.7568 47.5679,12.5901 46.5,8.5C 46.5,8.16667 46.5,7.83333 46.5,7.5C 48.4649,6.871 50.4649,6.20434 52.5,5.5C 53.7261,5.51954 54.7261,5.85287 55.5,6.5 Z"/></g>
<g><path style="opacity:1" fill="#32123f" d="M 95.5,7.5 C 95.5,12.8333 95.5,18.1667 95.5,23.5C 94.2905,23.9321 93.2905,24.5987 92.5,25.5C 90.139,25.6741 87.8056,26.0074 85.5,26.5C 84.3157,25.3121 84.3157,24.1455 85.5,23C 81.8642,22.3736 81.8642,21.2069 85.5,19.5C 87.8079,20.6411 89.6413,22.3078 91,24.5C 91.3108,22.444 91.8108,20.444 92.5,18.5C 91.4825,17.1476 90.1492,16.1476 88.5,15.5C 90.396,14.5344 92.396,14.2011 94.5,14.5C 94.7593,12.0107 93.7593,10.344 91.5,9.5C 90.7101,8.20577 89.7101,7.0391 88.5,6C 86.0995,5.81416 83.7662,5.31416 81.5,4.5C 86.882,2.93572 91.0487,4.60239 94,9.5C 94.2784,8.5842 94.7784,7.91753 95.5,7.5 Z"/></g>
<g><path style="opacity:1" fill="#291135" d="M 91.5,9.5 C 93.7593,10.344 94.7593,12.0107 94.5,14.5C 92.396,14.2011 90.396,14.5344 88.5,15.5C 90.1492,16.1476 91.4825,17.1476 92.5,18.5C 91.8108,20.444 91.3108,22.444 91,24.5C 89.6413,22.3078 87.8079,20.6411 85.5,19.5C 81.8642,21.2069 81.8642,22.3736 85.5,23C 84.3157,24.1455 84.3157,25.3121 85.5,26.5C 81.52,29.571 78.1867,28.9043 75.5,24.5C 72.8752,26.1035 71.8752,25.7702 72.5,23.5C 75.2853,23.067 77.6187,21.7337 79.5,19.5C 79.1667,18.8333 78.8333,18.1667 78.5,17.5C 80.1823,15.6642 81.849,14.6642 83.5,14.5C 84.7072,13.8112 86.0406,13.6446 87.5,14C 88.1552,11.841 89.4885,10.341 91.5,9.5 Z"/></g>
<g><path style="opacity:1" fill="#351e4a" d="M 70.5,23.5 C 71.1667,23.5 71.8333,23.5 72.5,23.5C 71.8752,25.7702 72.8752,26.1035 75.5,24.5C 78.1867,28.9043 81.52,29.571 85.5,26.5C 87.8056,26.0074 90.139,25.6741 92.5,25.5C 90.8564,26.3164 89.6897,27.6498 89,29.5C 88.3333,28.8333 87.6667,28.1667 87,27.5C 86.7265,29.3289 85.8932,30.8289 84.5,32C 80.272,33.4123 75.9387,34.2456 71.5,34.5C 71.6716,33.5084 71.3382,32.8417 70.5,32.5C 67.2409,27.4123 65.5742,27.9123 65.5,34C 64.9056,34.4643 64.2389,34.631 63.5,34.5C 63.2267,32.549 63.8934,31.049 65.5,30C 64.6198,28.6439 64.2865,27.1439 64.5,25.5C 60.72,26.2816 57.3866,27.9483 54.5,30.5C 54.6206,27.8952 55.6206,25.8952 57.5,24.5C 57.369,25.2389 57.5357,25.9056 58,26.5C 61.7173,23.2026 65.8839,22.2026 70.5,23.5 Z"/></g>
<g><path style="opacity:1" fill="#332651" d="M 28.5,27.5 C 29.3519,30.2234 30.5186,32.89 32,35.5C 33,36.8333 34,36.8333 35,35.5C 35.9947,36.0659 36.828,36.7326 37.5,37.5C 36.2209,38.968 34.5542,39.6347 32.5,39.5C 32.7845,41.4147 32.4511,43.0813 31.5,44.5C 32.2232,40.6104 30.8898,37.9437 27.5,36.5C 25.1133,36.9121 23.1133,37.9121 21.5,39.5C 20.8423,40.3984 20.1757,41.3984 19.5,42.5C 18.914,42.2907 18.414,41.9574 18,41.5C 16.951,43.1066 15.451,43.7733 13.5,43.5C 12.8333,43.5 12.1667,43.5 11.5,43.5C 11.995,40.0029 13.8283,39.0029 17,40.5C 18.9252,39.1196 20.7585,37.6196 22.5,36C 19.9405,35.773 18.2738,34.4397 17.5,32C 20.0939,29.9135 22.0939,27.4135 23.5,24.5C 24.7791,23.032 26.4458,22.3653 28.5,22.5C 28.5,24.1667 28.5,25.8333 28.5,27.5 Z"/></g>
<g><path style="opacity:1" fill="#f3082f" d="M 63.5,34.5 C 61.4508,34.7058 61.1175,35.5391 62.5,37C 60.8034,37.3845 59.1368,37.2178 57.5,36.5C 56.205,35.5116 54.8717,34.5116 53.5,33.5C 53.5569,32.391 53.8902,31.391 54.5,30.5C 57.3866,27.9483 60.72,26.2816 64.5,25.5C 64.2865,27.1439 64.6198,28.6439 65.5,30C 63.8934,31.049 63.2267,32.549 63.5,34.5 Z"/></g>
<g><path style="opacity:1" fill="#793d3c" d="M 7.5,18.5 C 7.5,19.5 7.5,20.5 7.5,21.5C 9.04114,29.0851 6.37448,34.4185 -0.5,37.5C -0.5,33.8333 -0.5,30.1667 -0.5,26.5C 2.56663,24.2496 4.7333,21.2496 6,17.5C 6.38258,18.056 6.88258,18.3893 7.5,18.5 Z"/></g>
<g><path style="opacity:1" fill="#732d60" d="M 7.5,21.5 C 8.55198,21.3505 9.55198,21.5172 10.5,22C 11.4664,24.099 12.7997,25.9324 14.5,27.5C 12.1496,29.6829 9.98298,32.0163 8,34.5C 7.31424,39.9066 4.48091,41.9066 -0.5,40.5C -0.5,39.5 -0.5,38.5 -0.5,37.5C 6.37448,34.4185 9.04114,29.0851 7.5,21.5 Z"/></g>
<g><path style="opacity:1" fill="#393066" d="M 95.5,23.5 C 95.5,26.5 95.5,29.5 95.5,32.5C 93.9139,33.4132 92.4139,33.4132 91,32.5C 89.4878,33.2567 88.1545,34.2567 87,35.5C 86.6121,34.572 85.9454,33.9054 85,33.5C 82.4156,34.5889 79.9156,35.5889 77.5,36.5C 75.4166,37.0289 73.5833,38.0289 72,39.5C 71.5065,37.8659 71.3398,36.1992 71.5,34.5C 75.9387,34.2456 80.272,33.4123 84.5,32C 85.8932,30.8289 86.7265,29.3289 87,27.5C 87.6667,28.1667 88.3333,28.8333 89,29.5C 89.6897,27.6498 90.8564,26.3164 92.5,25.5C 93.2905,24.5987 94.2905,23.9321 95.5,23.5 Z"/></g>
<g><path style="opacity:1" fill="#a5a2cb" d="M 55.5,17.5 C 56.4552,19.7457 57.1218,22.079 57.5,24.5C 55.6206,25.8952 54.6206,27.8952 54.5,30.5C 53.8902,31.391 53.5569,32.391 53.5,33.5C 52.8333,33.5 52.1667,33.5 51.5,33.5C 47.3758,36.5526 42.7092,37.886 37.5,37.5C 36.828,36.7326 35.9947,36.0659 35,35.5C 34,36.8333 33,36.8333 32,35.5C 30.5186,32.89 29.3519,30.2234 28.5,27.5C 29.1174,27.6107 29.6174,27.944 30,28.5C 30.1981,26.6183 30.6981,24.9516 31.5,23.5C 31.0679,26.8774 31.7345,29.8774 33.5,32.5C 35.4766,34.7393 37.9766,36.0726 41,36.5C 50.4261,34.9401 54.5928,29.6068 53.5,20.5C 53.5,19.8333 53.5,19.1667 53.5,18.5C 53.4088,16.3023 54.0755,15.9689 55.5,17.5 Z"/></g>
<g><path style="opacity:1" fill="#e4e6f1" d="M 51.5,33.5 C 52.1667,33.5 52.8333,33.5 53.5,33.5C 54.8717,34.5116 56.205,35.5116 57.5,36.5C 58.9899,38.2798 60.9899,38.9465 63.5,38.5C 63.2627,39.791 63.596,40.791 64.5,41.5C 64.7845,43.4147 64.4511,45.0813 63.5,46.5C 63.7709,44.6203 63.1042,43.287 61.5,42.5C 53.8919,37.1194 49.8919,39.1194 49.5,48.5C 52.2746,53.7933 56.2746,54.7933 61.5,51.5C 62.0431,51.56 62.3764,51.8933 62.5,52.5C 61.1538,55.8546 59.8204,59.1879 58.5,62.5C 57.1667,62.5 55.8333,62.5 54.5,62.5C 54.7947,60.2646 54.4614,58.2646 53.5,56.5C 52.5,55.1667 51.5,55.1667 50.5,56.5C 48.9064,56.9195 47.4064,57.5862 46,58.5C 44.6974,58.0217 43.5307,57.355 42.5,56.5C 42.3359,53.8127 42.5026,51.146 43,48.5C 45.3716,45.0901 47.2049,41.4234 48.5,37.5C 50.2624,36.7377 51.2624,35.4044 51.5,33.5 Z"/></g>
<g><path style="opacity:1" fill="#452a54" d="M 21.5,22.5 C 20.3398,24.2027 21.0065,24.8693 23.5,24.5C 22.0939,27.4135 20.0939,29.9135 17.5,32C 18.2738,34.4397 19.9405,35.773 22.5,36C 20.7585,37.6196 18.9252,39.1196 17,40.5C 13.8283,39.0029 11.995,40.0029 11.5,43.5C 9.77976,44.3077 8.1131,45.3077 6.5,46.5C 6.38929,45.8826 6.05596,45.3826 5.5,45C 6.83333,44 8.16667,43 9.5,42C 8.69194,41.6924 8.02527,41.1924 7.5,40.5C 11.1613,33.5307 15.8279,27.5307 21.5,22.5 Z"/></g>
<g><path style="opacity:1" fill="#e9e8f2" d="M 27.5,36.5 C 30.8898,37.9437 32.2232,40.6104 31.5,44.5C 25.3146,45.6403 23.9812,45.6403 27.5,44.5C 27.9688,41.6613 27.9688,38.9946 27.5,36.5 Z"/></g>
<g><path style="opacity:1" fill="#615e9b" d="M 51.5,33.5 C 51.2624,35.4044 50.2624,36.7377 48.5,37.5C 47.2719,38.3065 46.2719,39.3065 45.5,40.5C 43.4727,40.6621 41.4727,40.4955 39.5,40C 38.244,39.5831 37.5774,38.7498 37.5,37.5C 42.7092,37.886 47.3758,36.5526 51.5,33.5 Z"/></g>
<g><path style="opacity:1" fill="#3e3580" d="M 63.5,34.5 C 63.5774,35.7498 64.244,36.5831 65.5,37C 65.1286,38.6033 64.7952,40.1033 64.5,41.5C 63.596,40.791 63.2627,39.791 63.5,38.5C 60.9899,38.9465 58.9899,38.2798 57.5,36.5C 59.1368,37.2178 60.8034,37.3845 62.5,37C 61.1175,35.5391 61.4508,34.7058 63.5,34.5 Z"/></g>
<g><path style="opacity:1" fill="#2e2c7a" d="M 95.5,32.5 C 95.5,36.5 95.5,40.5 95.5,44.5C 91.9076,44.698 88.5742,45.698 85.5,47.5C 84.3734,46.8783 83.3734,46.045 82.5,45C 81.5,44.3333 80.5,44.3333 79.5,45C 77.2314,46.9021 74.898,48.7354 72.5,50.5C 71.5481,52.0453 71.2148,53.712 71.5,55.5C 70.1301,55.1435 69.1301,54.3102 68.5,53C 69.0769,51.0999 69.7435,49.2666 70.5,47.5C 71.7911,46.4583 71.7911,45.2917 70.5,44C 73.0598,44.4376 75.5598,44.271 78,43.5C 79.3383,41.1386 79.1717,38.8053 77.5,36.5C 79.9156,35.5889 82.4156,34.5889 85,33.5C 85.9454,33.9054 86.6121,34.572 87,35.5C 88.1545,34.2567 89.4878,33.2567 91,32.5C 92.4139,33.4132 93.9139,33.4132 95.5,32.5 Z"/></g>
<g><path style="opacity:1" fill="#242647" d="M 21.5,39.5 C 21.4661,42.1985 22.1328,44.6985 23.5,47C 28.1966,47.2801 32.8633,47.7801 37.5,48.5C 38.5539,48.3201 39.5539,47.9867 40.5,47.5C 41.5827,48.365 41.7494,49.365 41,50.5C 40.6667,50.1667 40.3333,49.8333 40,49.5C 39.6232,50.9423 38.7899,51.9423 37.5,52.5C 34.0802,51.0023 30.5802,49.669 27,48.5C 25.6244,48.6842 24.7911,49.3509 24.5,50.5C 21.6232,51.3726 19.2898,53.0392 17.5,55.5C 16.4104,54.6086 16.4104,53.6086 17.5,52.5C 15.6385,51.4717 14.3052,49.9717 13.5,48C 14.7279,46.5098 14.7279,45.0098 13.5,43.5C 15.451,43.7733 16.951,43.1066 18,41.5C 18.414,41.9574 18.914,42.2907 19.5,42.5C 20.1757,41.3984 20.8423,40.3984 21.5,39.5 Z"/></g>
<g><path style="opacity:1" fill="#252267" d="M 70.5,32.5 C 71.3382,32.8417 71.6716,33.5084 71.5,34.5C 71.3398,36.1992 71.5065,37.8659 72,39.5C 73.5833,38.0289 75.4166,37.0289 77.5,36.5C 79.1717,38.8053 79.3383,41.1386 78,43.5C 75.5598,44.271 73.0598,44.4376 70.5,44C 71.7911,45.2917 71.7911,46.4583 70.5,47.5C 69.5041,47.5858 68.6708,47.2524 68,46.5C 65.6814,52.3739 65.1814,58.3739 66.5,64.5C 66.7678,66.099 66.4345,67.4324 65.5,68.5C 65.7678,66.901 65.4345,65.5676 64.5,64.5C 63.9407,59.3607 62.9407,59.3607 61.5,64.5C 60.6618,64.1583 60.3284,63.4916 60.5,62.5C 64.203,56.0262 66.5363,49.0262 67.5,41.5C 68.7989,40.91 69.6322,39.91 70,38.5C 69.744,36.3977 69.9107,34.3977 70.5,32.5 Z"/></g>
<g><path style="opacity:1" fill="#2f2377" d="M 27.5,36.5 C 27.9688,38.9946 27.9688,41.6613 27.5,44.5C 23.9812,45.6403 25.3146,45.6403 31.5,44.5C 32.5145,45.7647 34.0145,46.4313 36,46.5C 37.9806,46.3708 39.6472,45.7042 41,44.5C 41.6667,45.1667 42.3333,45.8333 43,46.5C 44.122,44.5932 44.9553,42.5932 45.5,40.5C 46.2719,39.3065 47.2719,38.3065 48.5,37.5C 47.2049,41.4234 45.3716,45.0901 43,48.5C 42.5026,51.146 42.3359,53.8127 42.5,56.5C 42.5,56.8333 42.5,57.1667 42.5,57.5C 40.5606,59.9365 40.2272,62.6032 41.5,65.5C 40.1667,65.5 39.5,66.1667 39.5,67.5C 38.8651,70.7616 37.1984,73.4282 34.5,75.5C 35.1667,73.8333 35.8333,72.1667 36.5,70.5C 36.5123,67.858 35.179,66.5246 32.5,66.5C 32.44,65.9569 32.1067,65.6236 31.5,65.5C 28.2511,68.9927 27.5844,72.9927 29.5,77.5C 28.8333,77.5 28.5,77.1667 28.5,76.5C 27.6586,74.6208 27.3253,72.6208 27.5,70.5C 27.4326,69.0413 27.7659,67.7079 28.5,66.5C 30.3867,63.6958 32.0534,61.3624 33.5,59.5C 32.2329,62.4512 33.3996,64.1178 37,64.5C 39.7883,61.9773 40.6216,58.9773 39.5,55.5C 41.332,54.8595 41.6653,53.8595 40.5,52.5C 39.0815,53.0047 38.4148,54.0047 38.5,55.5C 37.391,55.5569 36.391,55.8902 35.5,56.5C 35.7329,54.9382 36.3995,53.6049 37.5,52.5C 38.7899,51.9423 39.6232,50.9423 40,49.5C 40.3333,49.8333 40.6667,50.1667 41,50.5C 41.7494,49.365 41.5827,48.365 40.5,47.5C 39.5539,47.9867 38.5539,48.3201 37.5,48.5C 32.8633,47.7801 28.1966,47.2801 23.5,47C 22.1328,44.6985 21.4661,42.1985 21.5,39.5C 23.1133,37.9121 25.1133,36.9121 27.5,36.5 Z"/></g>
<g><path style="opacity:1" fill="#edecf5" d="M 37.5,37.5 C 37.5774,38.7498 38.244,39.5831 39.5,40C 41.4727,40.4955 43.4727,40.6621 45.5,40.5C 44.9553,42.5932 44.122,44.5932 43,46.5C 42.3333,45.8333 41.6667,45.1667 41,44.5C 39.6472,45.7042 37.9806,46.3708 36,46.5C 34.0145,46.4313 32.5145,45.7647 31.5,44.5C 32.4511,43.0813 32.7845,41.4147 32.5,39.5C 34.5542,39.6347 36.2209,38.968 37.5,37.5 Z"/></g>
<g><path style="opacity:1" fill="#a09dc7" d="M 23.5,39.5 C 24.3864,38.2241 25.3864,38.2241 26.5,39.5C 26.0234,40.931 25.3567,42.2643 24.5,43.5C 21.9557,42.2652 21.9557,41.0985 24.5,40C 24.2716,39.6012 23.9382,39.4346 23.5,39.5 Z"/></g>
<g><path style="opacity:1" fill="#bc1f44" d="M 61.5,42.5 C 61.3762,52.5622 57.3762,54.5622 49.5,48.5C 49.8919,39.1194 53.8919,37.1194 61.5,42.5 Z"/></g>
<g><path style="opacity:1" fill="#5bdc33" d="M 53.5,41.5 C 60.494,41.4149 62.1607,44.2482 58.5,50C 51.413,50.5578 49.7463,47.7245 53.5,41.5 Z"/></g>
<g><path style="opacity:1" fill="#35184f" d="M 56.5,46.5 C 59.7973,46.3287 60.1306,46.9954 57.5,48.5C 56.7025,48.0431 56.3691,47.3764 56.5,46.5 Z"/></g>
<g><path style="opacity:1" fill="#290648" d="M 52.5,45.5 C 54.2252,45.8425 54.7252,46.8425 54,48.5C 52.9614,47.7562 52.4614,46.7562 52.5,45.5 Z"/></g>
<g><path style="opacity:1" fill="#443a82" d="M 61.5,42.5 C 63.1042,43.287 63.7709,44.6203 63.5,46.5C 63.1075,48.2838 62.4408,49.9505 61.5,51.5C 56.2746,54.7933 52.2746,53.7933 49.5,48.5C 57.3762,54.5622 61.3762,52.5622 61.5,42.5 Z"/></g>
<g><path style="opacity:1" fill="#311735" d="M 6.5,46.5 C 6.34332,47.8734 6.50999,49.2068 7,50.5C 8.82646,49.1587 9.99313,49.6587 10.5,52C 9.72819,53.221 8.72819,54.221 7.5,55C 8.05596,55.3826 8.38929,55.8826 8.5,56.5C 8.5,58.5 8.5,60.5 8.5,62.5C 5.42373,65.0331 2.92373,64.3664 1,60.5C 0.801916,62.3817 0.301916,64.0484 -0.5,65.5C -0.5,59.8333 -0.5,54.1667 -0.5,48.5C 1.83333,47.8333 4.16667,47.1667 6.5,46.5 Z"/></g>
<g><path style="opacity:1" fill="#f4162c" d="M 39.5,55.5 C 39.1667,55.5 38.8333,55.5 38.5,55.5C 38.4148,54.0047 39.0815,53.0047 40.5,52.5C 41.6653,53.8595 41.332,54.8595 39.5,55.5 Z"/></g>
<g><path style="opacity:1" fill="#3c6eb4" d="M 85.5,47.5 C 85.1667,48.1667 84.8333,48.8333 84.5,49.5C 79.8085,49.5126 75.8085,51.1793 72.5,54.5C 74.2129,56.664 75.5462,58.9973 76.5,61.5C 76.1667,61.5 75.8333,61.5 75.5,61.5C 73.1782,60.1979 71.8449,58.1979 71.5,55.5C 71.2148,53.712 71.5481,52.0453 72.5,50.5C 74.898,48.7354 77.2314,46.9021 79.5,45C 80.5,44.3333 81.5,44.3333 82.5,45C 83.3734,46.045 84.3734,46.8783 85.5,47.5 Z"/></g>
<g><path style="opacity:1" fill="#c0bfdc" d="M 70.5,32.5 C 69.9107,34.3977 69.744,36.3977 70,38.5C 69.6322,39.91 68.7989,40.91 67.5,41.5C 66.5363,49.0262 64.203,56.0262 60.5,62.5C 59.8333,62.5 59.1667,62.5 58.5,62.5C 59.8204,59.1879 61.1538,55.8546 62.5,52.5C 62.3764,51.8933 62.0431,51.56 61.5,51.5C 62.4408,49.9505 63.1075,48.2838 63.5,46.5C 64.4511,45.0813 64.7845,43.4147 64.5,41.5C 64.7952,40.1033 65.1286,38.6033 65.5,37C 64.244,36.5831 63.5774,35.7498 63.5,34.5C 64.2389,34.631 64.9056,34.4643 65.5,34C 65.5742,27.9123 67.2409,27.4123 70.5,32.5 Z"/></g>
<g><path style="opacity:1" fill="#5fc4e4" d="M 84.5,49.5 C 80.8261,52.8535 78.1594,56.8535 76.5,61.5C 75.5462,58.9973 74.2129,56.664 72.5,54.5C 75.8085,51.1793 79.8085,49.5126 84.5,49.5 Z"/></g>
<g><path style="opacity:1" fill="#e1e2f0" d="M 38.5,55.5 C 38.8333,55.5 39.1667,55.5 39.5,55.5C 40.6216,58.9773 39.7883,61.9773 37,64.5C 33.3996,64.1178 32.2329,62.4512 33.5,59.5C 34.4013,58.7095 35.0679,57.7095 35.5,56.5C 36.391,55.8902 37.391,55.5569 38.5,55.5 Z"/></g>
<g><path style="opacity:1" fill="#171e45" d="M 37.5,52.5 C 36.3995,53.6049 35.7329,54.9382 35.5,56.5C 35.0679,57.7095 34.4013,58.7095 33.5,59.5C 32.0534,61.3624 30.3867,63.6958 28.5,66.5C 27.6634,66.3893 26.6634,66.056 25.5,65.5C 23.5614,63.8778 23.228,62.0445 24.5,60C 22.842,59.2747 22.342,58.108 23,56.5C 24.1667,55.3333 25.3333,54.1667 26.5,53C 24.8225,52.5161 24.1558,51.6828 24.5,50.5C 24.7911,49.3509 25.6244,48.6842 27,48.5C 30.5802,49.669 34.0802,51.0023 37.5,52.5 Z"/></g>
<g><path style="opacity:1" fill="#cb0738" d="M 53.5,56.5 C 53.5,58.5 53.5,60.5 53.5,62.5C 47.2254,62.6129 46.2254,60.6129 50.5,56.5C 51.5,55.1667 52.5,55.1667 53.5,56.5 Z"/></g>
<g><path style="opacity:1" fill="#bdbddb" d="M 42.5,57.5 C 43.5736,58.8846 44.9069,60.0513 46.5,61C 45.3492,63.2003 43.6825,64.7003 41.5,65.5C 40.2272,62.6032 40.5606,59.9365 42.5,57.5 Z"/></g>
<g><path style="opacity:1" fill="#dd002e" d="M 64.5,64.5 C 63.5,64.5 62.5,64.5 61.5,64.5C 62.9407,59.3607 63.9407,59.3607 64.5,64.5 Z"/></g>
<g><path style="opacity:1" fill="#211d3f" d="M 11.5,43.5 C 12.1667,43.5 12.8333,43.5 13.5,43.5C 14.7279,45.0098 14.7279,46.5098 13.5,48C 14.3052,49.9717 15.6385,51.4717 17.5,52.5C 16.4104,53.6086 16.4104,54.6086 17.5,55.5C 19.2898,53.0392 21.6232,51.3726 24.5,50.5C 24.1558,51.6828 24.8225,52.5161 26.5,53C 25.3333,54.1667 24.1667,55.3333 23,56.5C 22.342,58.108 22.842,59.2747 24.5,60C 23.228,62.0445 23.5614,63.8778 25.5,65.5C 26.6634,66.056 27.6634,66.3893 28.5,66.5C 27.7659,67.7079 27.4326,69.0413 27.5,70.5C 23.2836,64.4507 17.617,59.784 10.5,56.5C 10.7093,55.914 11.0426,55.414 11.5,55C 10.212,54.7613 9.21199,55.2613 8.5,56.5C 8.38929,55.8826 8.05596,55.3826 7.5,55C 8.72819,54.221 9.72819,53.221 10.5,52C 9.99313,49.6587 8.82646,49.1587 7,50.5C 6.50999,49.2068 6.34332,47.8734 6.5,46.5C 8.1131,45.3077 9.77976,44.3077 11.5,43.5 Z"/></g>
<g><path style="opacity:1" fill="#142852" d="M 70.5,47.5 C 69.7435,49.2666 69.0769,51.0999 68.5,53C 69.1301,54.3102 70.1301,55.1435 71.5,55.5C 71.8449,58.1979 73.1782,60.1979 75.5,61.5C 75.5,62.8333 75.5,64.1667 75.5,65.5C 74.1932,64.8466 72.8599,64.1799 71.5,63.5C 70.8076,64.0253 70.3076,64.6919 70,65.5C 68.9887,64.6634 67.8221,64.33 66.5,64.5C 65.1814,58.3739 65.6814,52.3739 68,46.5C 68.6708,47.2524 69.5041,47.5858 70.5,47.5 Z"/></g>
<g><path style="opacity:1" fill="#120e26" d="M 8.5,62.5 C 10.2398,63.9777 11.0731,65.6443 11,67.5C 12,66.8333 13,66.1667 14,65.5C 15.3518,67.4324 17.1851,68.7657 19.5,69.5C 19.1667,70.1667 18.8333,70.8333 18.5,71.5C 21.0831,73.9109 21.7497,76.5775 20.5,79.5C 18.1619,78.3183 16.1619,76.6517 14.5,74.5C 13.8333,74.8333 13.1667,75.1667 12.5,75.5C 11.2997,74.4688 9.96632,73.6355 8.5,73C 11.1821,70.6697 10.8488,70.1697 7.5,71.5C 6.83333,70.8333 6.16667,70.1667 5.5,69.5C 4.0228,74.6797 2.5228,74.6797 1,69.5C 0.817095,72.3647 0.317095,75.0314 -0.5,77.5C -0.5,73.5 -0.5,69.5 -0.5,65.5C 0.301916,64.0484 0.801916,62.3817 1,60.5C 2.92373,64.3664 5.42373,65.0331 8.5,62.5 Z"/></g>
<g><path style="opacity:1" fill="#e8e7f3" d="M 64.5,69.5 C 64.5,70.8333 64.5,72.1667 64.5,73.5C 58.4026,73.5217 57.0693,71.0217 60.5,66C 61.7932,65.51 63.1266,65.3433 64.5,65.5C 64.5,66.8333 64.5,68.1667 64.5,69.5 Z"/></g>
<g><path style="opacity:1" fill="#566c7e" d="M 95.5,44.5 C 95.5,47.5 95.5,50.5 95.5,53.5C 93.4012,52.6303 93.0679,51.297 94.5,49.5C 94,48.5 93.5,47.5 93,46.5C 91.5,48 90,49.5 88.5,51C 89.1667,51.3333 89.8333,51.6667 90.5,52C 89.3413,53.8267 88.008,55.4933 86.5,57C 86.8333,57.3333 87.1667,57.6667 87.5,58C 86.2161,58.6838 85.0495,58.5171 84,57.5C 83.044,58.5786 82.2106,59.7453 81.5,61C 82.9247,62.3619 83.758,63.8619 84,65.5C 81.867,66.4177 79.7004,66.5844 77.5,66C 78.3366,67.0113 78.67,68.1779 78.5,69.5C 77.5,69.5 76.5,69.5 75.5,69.5C 75.5,68.1667 75.5,66.8333 75.5,65.5C 75.5,64.1667 75.5,62.8333 75.5,61.5C 75.8333,61.5 76.1667,61.5 76.5,61.5C 78.1594,56.8535 80.8261,52.8535 84.5,49.5C 84.8333,48.8333 85.1667,48.1667 85.5,47.5C 88.5742,45.698 91.9076,44.698 95.5,44.5 Z"/></g>
<g><path style="opacity:1" fill="#0e0c20" d="M 20.5,79.5 C 18.7376,79.6427 17.0709,79.3094 15.5,78.5C 14.646,79.5217 13.646,80.3551 12.5,81C 13.8228,81.8159 14.4894,82.9826 14.5,84.5C 11.5812,83.7073 8.91454,82.3739 6.5,80.5C 6.0894,81.2624 5.92273,82.2624 6,83.5C 3.41803,82.7161 1.75136,81.0495 1,78.5C 0.826144,83.6835 0.326144,88.6835 -0.5,93.5C -0.5,88.1667 -0.5,82.8333 -0.5,77.5C 0.317095,75.0314 0.817095,72.3647 1,69.5C 2.5228,74.6797 4.0228,74.6797 5.5,69.5C 6.16667,70.1667 6.83333,70.8333 7.5,71.5C 10.8488,70.1697 11.1821,70.6697 8.5,73C 9.96632,73.6355 11.2997,74.4688 12.5,75.5C 13.1667,75.1667 13.8333,74.8333 14.5,74.5C 16.1619,76.6517 18.1619,78.3183 20.5,79.5 Z"/></g>
<g><path style="opacity:1" fill="#141432" d="M 27.5,70.5 C 27.3253,72.6208 27.6586,74.6208 28.5,76.5C 26.6954,77.2371 25.0287,78.2371 23.5,79.5C 24.2474,81.2894 23.914,82.9561 22.5,84.5C 22.0557,82.8868 21.0557,81.7202 19.5,81C 20.056,80.6174 20.3893,80.1174 20.5,79.5C 21.7497,76.5775 21.0831,73.9109 18.5,71.5C 18.8333,70.8333 19.1667,70.1667 19.5,69.5C 17.1851,68.7657 15.3518,67.4324 14,65.5C 13,66.1667 12,66.8333 11,67.5C 11.0731,65.6443 10.2398,63.9777 8.5,62.5C 8.5,60.5 8.5,58.5 8.5,56.5C 9.21199,55.2613 10.212,54.7613 11.5,55C 11.0426,55.414 10.7093,55.914 10.5,56.5C 17.617,59.784 23.2836,64.4507 27.5,70.5 Z"/></g>
<g><path style="opacity:1" fill="#fbbd02" d="M 32.5,66.5 C 35.179,66.5246 36.5123,67.858 36.5,70.5C 34.8712,71.6253 33.3712,72.9586 32,74.5C 30.0044,71.6626 30.1711,68.9959 32.5,66.5 Z"/></g>
<g><path style="opacity:1" fill="#101519" d="M 95.5,53.5 C 95.5,56.8333 95.5,60.1667 95.5,63.5C 93.4055,65.5593 91.5722,67.8926 90,70.5C 89.6068,72.1992 90.1068,73.6992 91.5,75C 90.6313,76.8685 89.4646,77.3685 88,76.5C 87.51,77.7932 87.3433,79.1266 87.5,80.5C 85.2341,80.1412 83.4007,80.8078 82,82.5C 80.955,81.6266 80.1217,80.6266 79.5,79.5C 77.9752,77.7837 76.9752,75.7837 76.5,73.5C 76.1667,72.1667 75.8333,70.8333 75.5,69.5C 76.5,69.5 77.5,69.5 78.5,69.5C 78.67,68.1779 78.3366,67.0113 77.5,66C 79.7004,66.5844 81.867,66.4177 84,65.5C 83.758,63.8619 82.9247,62.3619 81.5,61C 82.2106,59.7453 83.044,58.5786 84,57.5C 85.0495,58.5171 86.2161,58.6838 87.5,58C 87.1667,57.6667 86.8333,57.3333 86.5,57C 88.008,55.4933 89.3413,53.8267 90.5,52C 89.8333,51.6667 89.1667,51.3333 88.5,51C 90,49.5 91.5,48 93,46.5C 93.5,47.5 94,48.5 94.5,49.5C 93.0679,51.297 93.4012,52.6303 95.5,53.5 Z"/></g>
<g><path style="opacity:1" fill="#ec6925" d="M 32.5,66.5 C 30.1711,68.9959 30.0044,71.6626 32,74.5C 33.3712,72.9586 34.8712,71.6253 36.5,70.5C 35.8333,72.1667 35.1667,73.8333 34.5,75.5C 32.8333,76.1667 31.1667,76.8333 29.5,77.5C 27.5844,72.9927 28.2511,68.9927 31.5,65.5C 32.1067,65.6236 32.44,65.9569 32.5,66.5 Z"/></g>
<g><path style="opacity:1" fill="#17163a" d="M 39.5,67.5 C 40.4778,67.811 41.1445,68.4777 41.5,69.5C 40.5435,71.0754 39.8769,72.742 39.5,74.5C 38.9232,78.8691 39.7565,82.8691 42,86.5C 43.3297,85.4178 44.8297,84.7512 46.5,84.5C 46.1667,85.1667 45.8333,85.8333 45.5,86.5C 44.391,86.5569 43.391,86.8902 42.5,87.5C 41.5041,87.5858 40.6708,87.2524 40,86.5C 38.8476,83.5597 37.8476,80.5597 37,77.5C 36.5172,78.448 36.3505,79.448 36.5,80.5C 35.8501,80.8039 35.1835,81.1373 34.5,81.5C 31.9176,77.5111 29.7509,77.8444 28,82.5C 27.586,82.0426 27.086,81.7093 26.5,81.5C 25.9348,83.5435 24.9348,85.2102 23.5,86.5C 22.6618,86.1583 22.3284,85.4916 22.5,84.5C 23.914,82.9561 24.2474,81.2894 23.5,79.5C 25.0287,78.2371 26.6954,77.2371 28.5,76.5C 28.5,77.1667 28.8333,77.5 29.5,77.5C 31.1667,76.8333 32.8333,76.1667 34.5,75.5C 37.1984,73.4282 38.8651,70.7616 39.5,67.5 Z"/></g>
<g><path style="opacity:1" fill="#3f357c" d="M 42.5,56.5 C 43.5307,57.355 44.6974,58.0217 46,58.5C 47.4064,57.5862 48.9064,56.9195 50.5,56.5C 46.2254,60.6129 47.2254,62.6129 53.5,62.5C 53.5,60.5 53.5,58.5 53.5,56.5C 54.4614,58.2646 54.7947,60.2646 54.5,62.5C 55.8333,62.5 57.1667,62.5 58.5,62.5C 59.1667,62.5 59.8333,62.5 60.5,62.5C 60.3284,63.4916 60.6618,64.1583 61.5,64.5C 62.5,64.5 63.5,64.5 64.5,64.5C 65.4345,65.5676 65.7678,66.901 65.5,68.5C 65.5,69.1667 65.1667,69.5 64.5,69.5C 64.5,68.1667 64.5,66.8333 64.5,65.5C 63.1266,65.3433 61.7932,65.51 60.5,66C 57.0693,71.0217 58.4026,73.5217 64.5,73.5C 64.5,74.8333 64.5,76.1667 64.5,77.5C 64.2451,79.9674 63.2451,81.9674 61.5,83.5C 62.1495,81.5648 62.4828,79.5648 62.5,77.5C 61.0697,76.4625 59.403,75.7959 57.5,75.5C 57.5654,75.0618 57.3988,74.7284 57,74.5C 54.8358,77.4473 54.0025,80.7806 54.5,84.5C 53.2172,81.6346 53.2172,78.6346 54.5,75.5C 54.1924,74.6919 53.6924,74.0253 53,73.5C 52.9964,76.7916 51.8297,79.4582 49.5,81.5C 50.2186,79.2362 50.552,76.9029 50.5,74.5C 49.5,74.5 48.5,74.5 47.5,74.5C 46.1667,73.8333 44.8333,73.1667 43.5,72.5C 43.44,71.9569 43.1067,71.6236 42.5,71.5C 41.7124,72.7701 40.7124,73.7701 39.5,74.5C 39.8769,72.742 40.5435,71.0754 41.5,69.5C 41.1445,68.4777 40.4778,67.811 39.5,67.5C 39.5,66.1667 40.1667,65.5 41.5,65.5C 43.6825,64.7003 45.3492,63.2003 46.5,61C 44.9069,60.0513 43.5736,58.8846 42.5,57.5C 42.5,57.1667 42.5,56.8333 42.5,56.5 Z"/></g>
<g><path style="opacity:1" fill="#b5b4d5" d="M 54.5,63.5 C 56.288,63.2148 57.9547,63.5481 59.5,64.5C 58.4215,67.2069 57.4215,69.8736 56.5,72.5C 55.0222,72.762 53.6888,72.4287 52.5,71.5C 53.7853,68.9795 54.4519,66.3128 54.5,63.5 Z"/></g>
<g><path style="opacity:1" fill="#eaebf4" d="M 46.5,62.5 C 51.4119,62.7384 53.0785,65.0717 51.5,69.5C 43.7297,71.0852 42.063,68.7518 46.5,62.5 Z"/></g>
<g><path style="opacity:1" fill="#fcc000" d="M 43.5,72.5 C 44.8333,73.1667 46.1667,73.8333 47.5,74.5C 48.6234,78.1242 47.2901,80.7909 43.5,82.5C 40.8555,79.0905 40.8555,75.7572 43.5,72.5 Z"/></g>
<g><path style="opacity:1" fill="#08132d" d="M 75.5,65.5 C 75.5,66.8333 75.5,68.1667 75.5,69.5C 75.8333,70.8333 76.1667,72.1667 76.5,73.5C 75.8365,75.0419 75.1698,76.7086 74.5,78.5C 73.6721,79.4147 72.6721,80.0814 71.5,80.5C 69.1776,78.6844 66.8443,77.6844 64.5,77.5C 64.5,76.1667 64.5,74.8333 64.5,73.5C 64.5,72.1667 64.5,70.8333 64.5,69.5C 65.1667,69.5 65.5,69.1667 65.5,68.5C 66.4345,67.4324 66.7678,66.099 66.5,64.5C 67.8221,64.33 68.9887,64.6634 70,65.5C 70.3076,64.6919 70.8076,64.0253 71.5,63.5C 72.8599,64.1799 74.1932,64.8466 75.5,65.5 Z"/></g>
<g><path style="opacity:1" fill="#fabf02" d="M 57.5,75.5 C 59.403,75.7959 61.0697,76.4625 62.5,77.5C 57.4521,86.0505 55.7854,85.3839 57.5,75.5 Z"/></g>
<g><path style="opacity:1" fill="#08091c" d="M 14.5,84.5 C 14.7035,86.3904 14.0368,87.8904 12.5,89C 13.624,89.2492 14.624,89.7492 15.5,90.5C 14.8402,92.8147 13.5069,94.4814 11.5,95.5C 7.5,95.5 3.5,95.5 -0.5,95.5C -0.5,94.8333 -0.5,94.1667 -0.5,93.5C 0.326144,88.6835 0.826144,83.6835 1,78.5C 1.75136,81.0495 3.41803,82.7161 6,83.5C 5.92273,82.2624 6.0894,81.2624 6.5,80.5C 8.91454,82.3739 11.5812,83.7073 14.5,84.5 Z"/></g>
<g><path style="opacity:1" fill="#e75c1b" d="M 43.5,72.5 C 40.8555,75.7572 40.8555,79.0905 43.5,82.5C 47.2901,80.7909 48.6234,78.1242 47.5,74.5C 48.5,74.5 49.5,74.5 50.5,74.5C 50.552,76.9029 50.2186,79.2362 49.5,81.5C 48.1667,82.1667 47.1667,83.1667 46.5,84.5C 44.8297,84.7512 43.3297,85.4178 42,86.5C 39.7565,82.8691 38.9232,78.8691 39.5,74.5C 40.7124,73.7701 41.7124,72.7701 42.5,71.5C 43.1067,71.6236 43.44,71.9569 43.5,72.5 Z"/></g>
<g><path style="opacity:1" fill="#060a19" d="M 76.5,73.5 C 76.9752,75.7837 77.9752,77.7837 79.5,79.5C 79.5583,81.5102 78.8916,83.6769 77.5,86C 78.0223,86.9503 78.689,87.7836 79.5,88.5C 79.0431,89.2975 78.3764,89.6309 77.5,89.5C 75.3004,83.4866 72.4671,83.1532 69,88.5C 66.9654,87.6261 64.6321,87.2928 62,87.5C 61.4646,89.2705 60.6313,89.6039 59.5,88.5C 59.9767,87.5224 60.6433,86.6891 61.5,86C 60.9056,85.5357 60.2389,85.369 59.5,85.5C 59.8333,84.5 60.5,83.8333 61.5,83.5C 63.2451,81.9674 64.2451,79.9674 64.5,77.5C 66.8443,77.6844 69.1776,78.6844 71.5,80.5C 72.6721,80.0814 73.6721,79.4147 74.5,78.5C 75.1698,76.7086 75.8365,75.0419 76.5,73.5 Z"/></g>
<g><path style="opacity:1" fill="#0a0d27" d="M 20.5,79.5 C 20.3893,80.1174 20.056,80.6174 19.5,81C 21.0557,81.7202 22.0557,82.8868 22.5,84.5C 22.3284,85.4916 22.6618,86.1583 23.5,86.5C 22.8796,89.7873 20.8796,91.7873 17.5,92.5C 16.6143,93.325 16.281,94.325 16.5,95.5C 14.8333,95.5 13.1667,95.5 11.5,95.5C 13.5069,94.4814 14.8402,92.8147 15.5,90.5C 14.624,89.7492 13.624,89.2492 12.5,89C 14.0368,87.8904 14.7035,86.3904 14.5,84.5C 14.4894,82.9826 13.8228,81.8159 12.5,81C 13.646,80.3551 14.646,79.5217 15.5,78.5C 17.0709,79.3094 18.7376,79.6427 20.5,79.5 Z"/></g>
<g><path style="opacity:1" fill="#ea6a28" d="M 57.5,75.5 C 55.7854,85.3839 57.4521,86.0505 62.5,77.5C 62.4828,79.5648 62.1495,81.5648 61.5,83.5C 60.5,83.8333 59.8333,84.5 59.5,85.5C 58.4168,85.5394 57.4168,85.8728 56.5,86.5C 55.8182,85.7573 55.1515,85.0906 54.5,84.5C 54.0025,80.7806 54.8358,77.4473 57,74.5C 57.3988,74.7284 57.5654,75.0618 57.5,75.5 Z"/></g>
<g><path style="opacity:1" fill="#090c1d" d="M 36.5,80.5 C 36.9234,81.2646 37.2568,82.0979 37.5,83C 36.2869,84.6303 35.4536,86.4636 35,88.5C 33.8831,88.6651 32.7164,88.9984 31.5,89.5C 30.8076,88.9747 30.3076,88.3081 30,87.5C 29.6258,88.4162 29.1258,89.2496 28.5,90C 30.0778,91.1405 31.7445,91.6405 33.5,91.5C 31.7118,92.2826 30.7118,93.6159 30.5,95.5C 25.8333,95.5 21.1667,95.5 16.5,95.5C 16.281,94.325 16.6143,93.325 17.5,92.5C 20.8796,91.7873 22.8796,89.7873 23.5,86.5C 24.9348,85.2102 25.9348,83.5435 26.5,81.5C 27.086,81.7093 27.586,82.0426 28,82.5C 29.7509,77.8444 31.9176,77.5111 34.5,81.5C 35.1835,81.1373 35.8501,80.8039 36.5,80.5 Z"/></g>
<g><path style="opacity:1" fill="#080a15" d="M 42.5,87.5 C 41.1155,88.8009 39.6155,88.8009 38,87.5C 36.9164,88.6651 36.0831,89.9984 35.5,91.5C 36.1667,91.8333 36.8333,92.1667 37.5,92.5C 36.2713,93.2811 34.938,93.7811 33.5,94C 39.4908,94.4995 45.4908,94.6662 51.5,94.5C 60.5,94.5 69.5,94.5 78.5,94.5C 79.1667,94.5 79.5,94.8333 79.5,95.5C 63.1667,95.5 46.8333,95.5 30.5,95.5C 30.7118,93.6159 31.7118,92.2826 33.5,91.5C 31.7445,91.6405 30.0778,91.1405 28.5,90C 29.1258,89.2496 29.6258,88.4162 30,87.5C 30.3076,88.3081 30.8076,88.9747 31.5,89.5C 32.7164,88.9984 33.8831,88.6651 35,88.5C 35.4536,86.4636 36.2869,84.6303 37.5,83C 37.2568,82.0979 36.9234,81.2646 36.5,80.5C 36.3505,79.448 36.5172,78.448 37,77.5C 37.8476,80.5597 38.8476,83.5597 40,86.5C 40.6708,87.2524 41.5041,87.5858 42.5,87.5 Z"/></g>
<g><path style="opacity:1" fill="#070614" d="M 54.5,84.5 C 55.1515,85.0906 55.8182,85.7573 56.5,86.5C 57.4168,85.8728 58.4168,85.5394 59.5,85.5C 60.2389,85.369 60.9056,85.5357 61.5,86C 60.6433,86.6891 59.9767,87.5224 59.5,88.5C 60.6313,89.6039 61.4646,89.2705 62,87.5C 64.6321,87.2928 66.9654,87.6261 69,88.5C 72.4671,83.1532 75.3004,83.4866 77.5,89.5C 77.5106,91.0174 78.1772,92.1841 79.5,93C 78.944,93.3826 78.6107,93.8826 78.5,94.5C 69.5,94.5 60.5,94.5 51.5,94.5C 49.111,92.6306 49.111,90.7972 51.5,89C 50.451,88.5078 49.451,88.6744 48.5,89.5C 47.3044,89.1543 47.3044,88.6543 48.5,88C 47.4734,87.4867 46.4734,86.9867 45.5,86.5C 45.8333,85.8333 46.1667,85.1667 46.5,84.5C 47.1667,83.1667 48.1667,82.1667 49.5,81.5C 51.8297,79.4582 52.9964,76.7916 53,73.5C 53.6924,74.0253 54.1924,74.6919 54.5,75.5C 53.2172,78.6346 53.2172,81.6346 54.5,84.5 Z"/></g>
<g><path style="opacity:1" fill="#050609" d="M 95.5,63.5 C 95.5,74.1667 95.5,84.8333 95.5,95.5C 90.1667,95.5 84.8333,95.5 79.5,95.5C 79.5,94.8333 79.1667,94.5 78.5,94.5C 78.6107,93.8826 78.944,93.3826 79.5,93C 78.1772,92.1841 77.5106,91.0174 77.5,89.5C 78.3764,89.6309 79.0431,89.2975 79.5,88.5C 78.689,87.7836 78.0223,86.9503 77.5,86C 78.8916,83.6769 79.5583,81.5102 79.5,79.5C 80.1217,80.6266 80.955,81.6266 82,82.5C 83.4007,80.8078 85.2341,80.1412 87.5,80.5C 87.3433,79.1266 87.51,77.7932 88,76.5C 89.4646,77.3685 90.6313,76.8685 91.5,75C 90.1068,73.6992 89.6068,72.1992 90,70.5C 91.5722,67.8926 93.4055,65.5593 95.5,63.5 Z"/></g>
<g><path style="opacity:1" fill="#05050e" d="M 45.5,86.5 C 46.4734,86.9867 47.4734,87.4867 48.5,88C 47.3044,88.6543 47.3044,89.1543 48.5,89.5C 49.451,88.6744 50.451,88.5078 51.5,89C 49.111,90.7972 49.111,92.6306 51.5,94.5C 45.4908,94.6662 39.4908,94.4995 33.5,94C 34.938,93.7811 36.2713,93.2811 37.5,92.5C 36.8333,92.1667 36.1667,91.8333 35.5,91.5C 36.0831,89.9984 36.9164,88.6651 38,87.5C 39.6155,88.8009 41.1155,88.8009 42.5,87.5C 43.391,86.8902 44.391,86.5569 45.5,86.5 Z"/></g>
</svg>
