<?xml version="1.0" encoding="UTF-8"?>
<!DOCTYPE svg PUBLIC "-//W3C//DTD SVG 1.1//EN" "http://www.w3.org/Graphics/SVG/1.1/DTD/svg11.dtd">
<svg xmlns="http://www.w3.org/2000/svg" version="1.1" width="96px" height="96px" style="shape-rendering:geometricPrecision; text-rendering:geometricPrecision; image-rendering:optimizeQuality; fill-rule:evenodd; clip-rule:evenodd" xmlns:xlink="http://www.w3.org/1999/xlink">
<g><path style="opacity:0.997" fill="#010203" d="M -0.5,-0.5 C 31.5,-0.5 63.5,-0.5 95.5,-0.5C 95.5,31.5 95.5,63.5 95.5,95.5C 63.5,95.5 31.5,95.5 -0.5,95.5C -0.5,63.5 -0.5,31.5 -0.5,-0.5 Z"/></g>
<g><path style="opacity:1" fill="#25e9e1" d="M 62.5,25.5 C 61.4226,24.9816 60.2559,24.6483 59,24.5C 47.1927,26.1867 35.3594,27.6867 23.5,29C 20.6195,29.3502 17.9529,30.1835 15.5,31.5C 15.5,24.1667 15.5,16.8333 15.5,9.5C 24.8393,9.33355 34.1726,9.50021 43.5,10C 49.3512,10.5461 55.0179,11.8795 60.5,14C 68.8445,16.7909 69.5112,20.6243 62.5,25.5 Z"/></g>
<g><path style="opacity:1" fill="#22d8e7" d="M 62.5,25.5 C 59.4715,28.859 56.4715,32.1924 53.5,35.5C 52.1213,34.3911 50.4547,33.7245 48.5,33.5C 44.8548,34.1162 41.1881,34.4495 37.5,34.5C 34.4658,32.898 31.7991,33.2313 29.5,35.5C 28.596,36.209 28.2627,37.209 28.5,38.5C 23.7664,38.122 19.433,39.122 15.5,41.5C 15.5,38.1667 15.5,34.8333 15.5,31.5C 17.9529,30.1835 20.6195,29.3502 23.5,29C 35.3594,27.6867 47.1927,26.1867 59,24.5C 60.2559,24.6483 61.4226,24.9816 62.5,25.5 Z"/></g>
<g><path style="opacity:1" fill="#32c4ea" d="M 77.5,33.5 C 76.0905,36.1335 74.2572,38.4669 72,40.5C 71.6667,40.1667 71.3333,39.8333 71,39.5C 66.917,43.879 62.2503,47.5457 57,50.5C 57.2457,54.9426 59.4124,58.2759 63.5,60.5C 64.1098,61.391 64.4431,62.391 64.5,63.5C 59.4819,59.4814 55.1485,54.8147 51.5,49.5C 58.3146,41.5177 65.3146,33.6844 72.5,26C 75.6971,27.162 77.3638,29.662 77.5,33.5 Z"/></g>
<g><path style="opacity:1" fill="#1fc4e8" d="M 53.5,35.5 C 51.1877,38.4789 48.5211,41.1456 45.5,43.5C 42.0743,41.0801 39.4076,38.0801 37.5,34.5C 41.1881,34.4495 44.8548,34.1162 48.5,33.5C 50.4547,33.7245 52.1213,34.3911 53.5,35.5 Z"/></g>
<g><path style="opacity:1" fill="#2dbaf1" d="M 77.5,33.5 C 78.2679,34.2625 78.7679,35.2625 79,36.5C 79.4994,41.8229 79.666,47.1563 79.5,52.5C 78.7677,51.1917 77.9344,49.8584 77,48.5C 71.9628,52.0453 67.4628,56.0453 63.5,60.5C 59.4124,58.2759 57.2457,54.9426 57,50.5C 62.2503,47.5457 66.917,43.879 71,39.5C 71.3333,39.8333 71.6667,40.1667 72,40.5C 74.2572,38.4669 76.0905,36.1335 77.5,33.5 Z"/></g>
<g><path style="opacity:1" fill="#1dbcee" d="M 29.5,35.5 C 29.3433,36.8734 29.51,38.2068 30,39.5C 33.0785,42.6787 35.9118,46.012 38.5,49.5C 34.0015,47.411 29.6682,47.411 25.5,49.5C 22.2543,48.3529 19.421,49.0196 17,51.5C 16.6174,50.944 16.1174,50.6107 15.5,50.5C 15.5,47.5 15.5,44.5 15.5,41.5C 19.433,39.122 23.7664,38.122 28.5,38.5C 28.2627,37.209 28.596,36.209 29.5,35.5 Z"/></g>
<g><path style="opacity:1" fill="#19adee" d="M 38.5,49.5 C 39.525,49.8966 39.6917,50.5632 39,51.5C 37.383,53.7632 35.5497,55.7632 33.5,57.5C 32.7784,57.0825 32.2784,56.4158 32,55.5C 27.1605,56.7582 22.3271,57.7582 17.5,58.5C 16.8182,57.7573 16.1515,57.0906 15.5,56.5C 15.5,54.5 15.5,52.5 15.5,50.5C 16.1174,50.6107 16.6174,50.944 17,51.5C 19.421,49.0196 22.2543,48.3529 25.5,49.5C 29.6682,47.411 34.0015,47.411 38.5,49.5 Z"/></g>
<g><path style="opacity:1" fill="#28acf5" d="M 79.5,52.5 C 75.4953,71.5032 63.8286,82.1699 44.5,84.5C 40.3528,83.6753 36.0195,83.1753 31.5,83C 39.2478,77.501 46.4144,72.001 53,66.5C 53.8159,67.8228 54.9826,68.4894 56.5,68.5C 61.7677,70.8604 64.4344,69.1937 64.5,63.5C 64.4431,62.391 64.1098,61.391 63.5,60.5C 67.4628,56.0453 71.9628,52.0453 77,48.5C 77.9344,49.8584 78.7677,51.1917 79.5,52.5 Z"/></g>
<g><path style="opacity:1" fill="#17a1f0" d="M 33.5,57.5 C 27.8755,64.295 22.0421,70.9617 16,77.5C 15.5004,70.5079 15.3337,63.5079 15.5,56.5C 16.1515,57.0906 16.8182,57.7573 17.5,58.5C 22.3271,57.7582 27.1605,56.7582 32,55.5C 32.2784,56.4158 32.7784,57.0825 33.5,57.5 Z"/></g>
<g><path style="opacity:1" fill="#2dbaf2" d="M 53.5,64.5 C 54.4884,65.795 55.4884,67.1283 56.5,68.5C 54.9826,68.4894 53.8159,67.8228 53,66.5C 46.4144,72.001 39.2478,77.501 31.5,83C 36.0195,83.1753 40.3528,83.6753 44.5,84.5C 43.8333,84.5 43.1667,84.5 42.5,84.5C 37.1667,84.5 31.8333,84.5 26.5,84.5C 25.3915,83.71 24.0581,83.21 22.5,83C 29.8333,75 37.1667,67 44.5,59C 45.1667,58.3333 45.8333,58.3333 46.5,59C 48.4412,61.4536 50.7746,63.287 53.5,64.5 Z"/></g>
<g><path style="opacity:1" fill="#30c3e6" d="M 53.5,64.5 C 50.7746,63.287 48.4412,61.4536 46.5,59C 45.8333,58.3333 45.1667,58.3333 44.5,59C 37.1667,67 29.8333,75 22.5,83C 24.0581,83.21 25.3915,83.71 26.5,84.5C 24.2646,84.7947 22.2646,84.4614 20.5,83.5C 28.2931,74.5372 36.2931,65.7039 44.5,57C 48.1435,58.4546 51.1435,60.9546 53.5,64.5 Z"/></g>
<g><path style="opacity:1" fill="#1e7fae" d="M 20.5,83.5 C 22.2646,84.4614 24.2646,84.7947 26.5,84.5C 31.8333,84.5 37.1667,84.5 42.5,84.5C 34.9902,85.8199 27.3235,85.8199 19.5,84.5C 19.6236,83.8933 19.9569,83.56 20.5,83.5 Z"/></g>
</svg>
