<?xml version="1.0" encoding="UTF-8"?>
<!DOCTYPE svg PUBLIC "-//W3C//DTD SVG 1.1//EN" "http://www.w3.org/Graphics/SVG/1.1/DTD/svg11.dtd">
<svg xmlns="http://www.w3.org/2000/svg" version="1.1" width="96px" height="96px" style="shape-rendering:geometricPrecision; text-rendering:geometricPrecision; image-rendering:optimizeQuality; fill-rule:evenodd; clip-rule:evenodd" xmlns:xlink="http://www.w3.org/1999/xlink">
<g><path style="opacity:1" fill="#a8e3f5" d="M 51.5,8.5 C 51.5,9.16667 51.5,9.83333 51.5,10.5C 51.9807,13.4552 53.4807,15.7885 56,17.5C 56.4705,21.1154 57.6371,24.4487 59.5,27.5C 55.5357,24.0371 51.7023,20.3705 48,16.5C 47.8265,20.5408 47.3265,24.5408 46.5,28.5C 44.4293,26.8149 42.4293,25.1482 40.5,23.5C 40.8884,19.0068 41.8884,14.6734 43.5,10.5C 43.5,9.5 43.5,8.5 43.5,7.5C 44.7924,5.29812 46.6257,3.63145 49,2.5C 49.5725,4.64057 50.4058,6.64057 51.5,8.5 Z"/></g>
<g><path style="opacity:0.035" fill="#50b1cb" d="M 90.5,25.5 C 92.337,25.6395 92.6704,26.3061 91.5,27.5C 90.7025,27.0431 90.3691,26.3764 90.5,25.5 Z"/></g>
<g><path style="opacity:0.959" fill="#418dd5" d="M 43.5,7.5 C 43.5,8.5 43.5,9.5 43.5,10.5C 28.8239,13.3368 19.3239,22.0035 15,36.5C 14.1881,40.6888 14.3547,44.6888 15.5,48.5C 16.9916,61.83 23.9916,70.83 36.5,75.5C 45.6045,78.6289 54.2712,77.6289 62.5,72.5C 69.4479,68.3819 74.4479,62.5486 77.5,55C 76.5842,54.7216 75.9175,54.2216 75.5,53.5C 81.6219,38.9566 78.2885,26.4566 65.5,16C 61.1375,13.316 56.4708,11.4826 51.5,10.5C 51.5,9.83333 51.5,9.16667 51.5,8.5C 66.1165,10.9063 75.6165,19.2397 80,33.5C 83.8973,56.218 75.064,71.3847 53.5,79C 34.3408,81.1638 21.1742,73.3305 14,55.5C 8.85535,30.0998 18.6887,14.0998 43.5,7.5 Z"/></g>
<g><path style="opacity:1" fill="#075089" d="M 62.5,70.5 C 61.4937,71.3957 61.4937,72.0623 62.5,72.5C 54.2712,77.6289 45.6045,78.6289 36.5,75.5C 37.625,74.6522 37.625,73.6522 36.5,72.5C 38.2554,71.9278 39.9221,71.0945 41.5,70C 44.3997,67.1003 47.2331,64.2669 50,61.5C 53.914,64.8715 58.0807,67.8715 62.5,70.5 Z"/></g>
<g><path style="opacity:1" fill="#08437e" d="M 53.5,51.5 C 55.099,51.7678 56.4324,51.4345 57.5,50.5C 57.8333,50.5 58.1667,50.5 58.5,50.5C 60.8333,51.1667 63.1667,51.8333 65.5,52.5C 68.241,53.0827 70.9077,54.0827 73.5,55.5C 71.276,58.1532 69.6094,61.1532 68.5,64.5C 65.5622,65.622 63.5622,67.622 62.5,70.5C 58.0807,67.8715 53.914,64.8715 50,61.5C 47.2331,64.2669 44.3997,67.1003 41.5,70C 39.9221,71.0945 38.2554,71.9278 36.5,72.5C 35.0527,71.3778 34.0527,69.8778 33.5,68C 30.7244,67.9343 28.5577,66.7676 27,64.5C 25.0669,60.0834 22.5669,56.0834 19.5,52.5C 20.6009,51.4017 21.9343,51.235 23.5,52C 24.4601,53.4194 25.2935,54.9194 26,56.5C 26.8333,54.8333 27.6667,53.1667 28.5,51.5C 34.8449,50.3886 41.1782,50.5553 47.5,52C 46.5,53 45.5,54 44.5,55C 39.7468,55.6172 35.0801,56.6172 30.5,58C 33.1744,59.5883 36.0078,60.755 39,61.5C 42.5963,59.4205 46.0963,57.0871 49.5,54.5C 50.7112,53.7261 50.7112,52.8928 49.5,52C 50.7932,51.51 52.1266,51.3433 53.5,51.5 Z"/></g>
<g><path style="opacity:1" fill="#114f7b" d="M 65.5,37.5 C 65.8801,40.7449 67.0468,43.7449 69,46.5C 71.4003,48.7293 73.567,51.0626 75.5,53.5C 75.9175,54.2216 76.5842,54.7216 77.5,55C 74.4479,62.5486 69.4479,68.3819 62.5,72.5C 61.4937,72.0623 61.4937,71.3957 62.5,70.5C 63.5622,67.622 65.5622,65.622 68.5,64.5C 69.6094,61.1532 71.276,58.1532 73.5,55.5C 70.9077,54.0827 68.241,53.0827 65.5,52.5C 67.8568,52.6633 70.1902,52.4966 72.5,52C 70.2953,49.4598 67.7953,47.2932 65,45.5C 64.1993,42.633 64.3659,39.9664 65.5,37.5 Z"/></g>
<g><path style="opacity:1" fill="#065389" d="M 49.5,46.5 C 51.543,47.5794 52.8763,49.246 53.5,51.5C 52.1266,51.3433 50.7932,51.51 49.5,52C 50.7112,52.8928 50.7112,53.7261 49.5,54.5C 46.0963,57.0871 42.5963,59.4205 39,61.5C 36.0078,60.755 33.1744,59.5883 30.5,58C 35.0801,56.6172 39.7468,55.6172 44.5,55C 45.5,54 46.5,53 47.5,52C 41.1782,50.5553 34.8449,50.3886 28.5,51.5C 27.6667,53.1667 26.8333,54.8333 26,56.5C 25.2935,54.9194 24.4601,53.4194 23.5,52C 21.9343,51.235 20.6009,51.4017 19.5,52.5C 18.9569,52.44 18.6236,52.1067 18.5,51.5C 19.325,50.6143 20.325,50.281 21.5,50.5C 23.5996,50.5228 25.4329,49.8561 27,48.5C 28.7659,49.2335 30.5992,49.5668 32.5,49.5C 32.7373,48.209 32.404,47.209 31.5,46.5C 31.3505,45.448 31.5172,44.448 32,43.5C 33.6196,45.2415 35.1196,47.0748 36.5,49C 38.5,49.6667 40.5,49.6667 42.5,49C 44.743,47.8638 47.0763,47.0305 49.5,46.5 Z"/></g>
<g><path style="opacity:1" fill="#1e6d94" d="M 30.5,32.5 C 31.1239,32.9169 31.4573,33.5836 31.5,34.5C 31.0626,37.7509 30.0626,40.7509 28.5,43.5C 28.67,44.8221 28.3366,45.9887 27.5,47C 29.0657,47.765 30.3991,47.5983 31.5,46.5C 32.404,47.209 32.7373,48.209 32.5,49.5C 30.5992,49.5668 28.7659,49.2335 27,48.5C 25.4329,49.8561 23.5996,50.5228 21.5,50.5C 21.1788,48.9519 20.1788,48.2852 18.5,48.5C 19.5676,47.5655 20.901,47.2322 22.5,47.5C 26.0681,47.2407 27.4015,45.2407 26.5,41.5C 27.4629,38.2558 28.7962,35.2558 30.5,32.5 Z"/></g>
<g><path style="opacity:1" fill="#0fa3bc" d="M 64.5,36.5 C 65.1667,36.5 65.5,36.8333 65.5,37.5C 64.3659,39.9664 64.1993,42.633 65,45.5C 67.7953,47.2932 70.2953,49.4598 72.5,52C 70.1902,52.4966 67.8568,52.6633 65.5,52.5C 63.1667,51.8333 60.8333,51.1667 58.5,50.5C 59.7927,48.7041 61.2927,47.0375 63,45.5C 63.1805,42.3054 63.6805,39.3054 64.5,36.5 Z"/></g>
<g><path style="opacity:1" fill="#a2ecfd" d="M 31.5,46.5 C 30.3991,47.5983 29.0657,47.765 27.5,47C 28.3366,45.9887 28.67,44.8221 28.5,43.5C 29.1174,43.3893 29.6174,43.056 30,42.5C 30.21,44.0581 30.71,45.3915 31.5,46.5 Z"/></g>
<g><path style="opacity:1" fill="#44b4cb" d="M 26.5,41.5 C 27.4015,45.2407 26.0681,47.2407 22.5,47.5C 22.8449,44.8021 24.1782,42.8021 26.5,41.5 Z"/></g>
<g><path style="opacity:1" fill="#9cdff2" d="M 44.5,37.5 C 48.4741,41.1384 52.4741,44.8051 56.5,48.5C 56.8333,49.1667 57.1667,49.8333 57.5,50.5C 56.4324,51.4345 55.099,51.7678 53.5,51.5C 52.8763,49.246 51.543,47.5794 49.5,46.5C 44.434,44.9167 39.434,42.9167 34.5,40.5C 37.5931,38.6911 40.9264,37.6911 44.5,37.5 Z"/></g>
<g><path style="opacity:1" fill="#56b5cc" d="M 63.5,33.5 C 64.404,34.209 64.7373,35.209 64.5,36.5C 63.6805,39.3054 63.1805,42.3054 63,45.5C 61.2927,47.0375 59.7927,48.7041 58.5,50.5C 58.1667,50.5 57.8333,50.5 57.5,50.5C 57.1667,49.8333 56.8333,49.1667 56.5,48.5C 57.2389,48.631 57.9056,48.4643 58.5,48C 57.5759,45.1354 56.5759,42.302 55.5,39.5C 58.4309,37.9092 61.0976,35.9092 63.5,33.5 Z"/></g>
<g><path style="opacity:1" fill="#10a6be" d="M 49.5,31.5 C 51.1153,34.4495 53.1153,37.1162 55.5,39.5C 56.5759,42.302 57.5759,45.1354 58.5,48C 57.9056,48.4643 57.2389,48.631 56.5,48.5C 52.4741,44.8051 48.4741,41.1384 44.5,37.5C 44.4421,34.9395 45.6088,32.6062 48,30.5C 48.3826,31.056 48.8826,31.3893 49.5,31.5 Z"/></g>
<g><path style="opacity:1" fill="#94def3" d="M 60.5,29.5 C 61.9744,30.4363 62.9744,31.7697 63.5,33.5C 61.0976,35.9092 58.4309,37.9092 55.5,39.5C 53.1153,37.1162 51.1153,34.4495 49.5,31.5C 53.1667,30.8333 56.8333,30.1667 60.5,29.5 Z"/></g>
<g><path style="opacity:1" fill="#56b5cc" d="M 59.5,27.5 C 60.3382,27.8417 60.6716,28.5084 60.5,29.5C 56.8333,30.1667 53.1667,30.8333 49.5,31.5C 48.8826,31.3893 48.3826,31.056 48,30.5C 45.6088,32.6062 44.4421,34.9395 44.5,37.5C 40.9264,37.6911 37.5931,38.6911 34.5,40.5C 39.434,42.9167 44.434,44.9167 49.5,46.5C 47.0763,47.0305 44.743,47.8638 42.5,49C 40.5,49.6667 38.5,49.6667 36.5,49C 35.1196,47.0748 33.6196,45.2415 32,43.5C 31.5172,44.448 31.3505,45.448 31.5,46.5C 30.71,45.3915 30.21,44.0581 30,42.5C 29.6174,43.056 29.1174,43.3893 28.5,43.5C 30.0626,40.7509 31.0626,37.7509 31.5,34.5C 31.4573,33.5836 31.1239,32.9169 30.5,32.5C 31.3921,30.0543 32.8921,29.3877 35,30.5C 36.5722,27.8926 38.4055,25.5593 40.5,23.5C 42.4293,25.1482 44.4293,26.8149 46.5,28.5C 47.3265,24.5408 47.8265,20.5408 48,16.5C 51.7023,20.3705 55.5357,24.0371 59.5,27.5 Z"/></g>
<g><path style="opacity:1" fill="#f9fbfc" d="M 51.5,10.5 C 56.4708,11.4826 61.1375,13.316 65.5,16C 78.2885,26.4566 81.6219,38.9566 75.5,53.5C 73.567,51.0626 71.4003,48.7293 69,46.5C 67.0468,43.7449 65.8801,40.7449 65.5,37.5C 65.5,36.8333 65.1667,36.5 64.5,36.5C 64.7373,35.209 64.404,34.209 63.5,33.5C 62.9744,31.7697 61.9744,30.4363 60.5,29.5C 60.6716,28.5084 60.3382,27.8417 59.5,27.5C 57.6371,24.4487 56.4705,21.1154 56,17.5C 53.4807,15.7885 51.9807,13.4552 51.5,10.5 Z"/></g>
<g><path style="opacity:1" fill="#f9fbfc" d="M 43.5,10.5 C 41.8884,14.6734 40.8884,19.0068 40.5,23.5C 38.4055,25.5593 36.5722,27.8926 35,30.5C 32.8921,29.3877 31.3921,30.0543 30.5,32.5C 28.7962,35.2558 27.4629,38.2558 26.5,41.5C 24.1782,42.8021 22.8449,44.8021 22.5,47.5C 20.901,47.2322 19.5676,47.5655 18.5,48.5C 17.5,48.5 16.5,48.5 15.5,48.5C 14.3547,44.6888 14.1881,40.6888 15,36.5C 19.3239,22.0035 28.8239,13.3368 43.5,10.5 Z"/></g>
<g><path style="opacity:1" fill="#0d4b74" d="M 15.5,48.5 C 16.5,48.5 17.5,48.5 18.5,48.5C 20.1788,48.2852 21.1788,48.9519 21.5,50.5C 20.325,50.281 19.325,50.6143 18.5,51.5C 18.6236,52.1067 18.9569,52.44 19.5,52.5C 22.5669,56.0834 25.0669,60.0834 27,64.5C 28.5577,66.7676 30.7244,67.9343 33.5,68C 34.0527,69.8778 35.0527,71.3778 36.5,72.5C 37.625,73.6522 37.625,74.6522 36.5,75.5C 23.9916,70.83 16.9916,61.83 15.5,48.5 Z"/></g>
<g><path style="opacity:0.52" fill="#016291" d="M 48.5,84.5 C 48.5,86.1667 48.5,87.8333 48.5,89.5C 38.589,89.277 28.589,89.1103 18.5,89C 17.1667,87.3333 17.1667,85.6667 18.5,84C 20.8098,83.5034 23.1432,83.3367 25.5,83.5C 25.0941,85.1092 25.0941,86.4425 25.5,87.5C 26.8333,86.1667 28.1667,84.8333 29.5,83.5C 30.6539,85.8559 31.9873,86.0226 33.5,84C 38.5842,83.2223 43.5842,83.3889 48.5,84.5 Z"/></g>
<g><path style="opacity:0.367" fill="#000000" d="M 48.5,89.5 C 48.5,87.8333 48.5,86.1667 48.5,84.5C 48.56,83.9569 48.8933,83.6236 49.5,83.5C 50.1667,84.8333 50.8333,86.1667 51.5,87.5C 52.5,86.1667 53.5,84.8333 54.5,83.5C 55.1924,84.0253 55.6924,84.6919 56,85.5C 56.3076,84.6919 56.8076,84.0253 57.5,83.5C 59.0583,88.6945 60.0583,88.6945 60.5,83.5C 62.3904,83.2965 63.8904,83.9632 65,85.5C 65.3076,84.6919 65.8076,84.0253 66.5,83.5C 67.9953,84.1123 69.6619,84.1123 71.5,83.5C 72.9945,83.7092 74.1612,84.3759 75,85.5C 75.3076,84.6919 75.8076,84.0253 76.5,83.5C 77.8333,85.5 77.8333,87.5 76.5,89.5C 75.8076,88.9747 75.3076,88.3081 75,87.5C 74.1612,88.6241 72.9945,89.2908 71.5,89.5C 64.3037,89.0096 56.6371,89.0096 48.5,89.5 Z M 69.5,85.5 C 71.9828,85.73 72.4828,86.3966 71,87.5C 69.9701,87.1639 69.4701,86.4972 69.5,85.5 Z"/></g>
</svg>
