<?xml version="1.0" encoding="UTF-8"?>
<!DOCTYPE svg PUBLIC "-//W3C//DTD SVG 1.1//EN" "http://www.w3.org/Graphics/SVG/1.1/DTD/svg11.dtd">
<svg xmlns="http://www.w3.org/2000/svg" version="1.1" width="96px" height="96px" style="shape-rendering:geometricPrecision; text-rendering:geometricPrecision; image-rendering:optimizeQuality; fill-rule:evenodd; clip-rule:evenodd" xmlns:xlink="http://www.w3.org/1999/xlink">
<g><path style="opacity:0.997" fill="#20c1a2" d="M -0.5,-0.5 C 31.5,-0.5 63.5,-0.5 95.5,-0.5C 95.5,31.5 95.5,63.5 95.5,95.5C 63.5,95.5 31.5,95.5 -0.5,95.5C -0.5,63.5 -0.5,31.5 -0.5,-0.5 Z"/></g>
<g><path style="opacity:1" fill="#fefefe" d="M 50.5,47.5 C 53.1667,47.5 55.8333,47.5 58.5,47.5C 58.5,60.1667 58.5,72.8333 58.5,85.5C 55.8333,85.5 53.1667,85.5 50.5,85.5C 50.5,72.8333 50.5,60.1667 50.5,47.5 Z"/></g>
<g><path style="opacity:1" fill="#8fdfcf" d="M 50.5,47.5 C 50.5,60.1667 50.5,72.8333 50.5,85.5C 53.1667,85.5 55.8333,85.5 58.5,85.5C 55.7131,86.4767 52.7131,86.81 49.5,86.5C 49.1712,73.3226 49.5045,60.3226 50.5,47.5 Z"/></g>
<g><path style="opacity:1" fill="#a0e4d6" d="M 50.5,47.5 C 53.2869,46.5233 56.2869,46.19 59.5,46.5C 59.8288,59.6774 59.4955,72.6774 58.5,85.5C 58.5,72.8333 58.5,60.1667 58.5,47.5C 55.8333,47.5 53.1667,47.5 50.5,47.5 Z"/></g>
<g><path style="opacity:1" fill="#f7fcfb" d="M 79.5,58.5 C 81.9479,59.4731 84.6146,59.8064 87.5,59.5C 87.5,61.5 87.5,63.5 87.5,65.5C 84.8333,65.5 82.1667,65.5 79.5,65.5C 79.3345,69.5138 79.5012,73.5138 80,77.5C 80.804,78.8045 81.9707,79.4712 83.5,79.5C 84.8638,78.9569 86.1971,78.7902 87.5,79C 88.6687,81.0065 89.3354,83.1732 89.5,85.5C 73.1645,88.8268 66.8312,82.1602 70.5,65.5C 68.8333,65.5 67.1667,65.5 65.5,65.5C 65.5,63.1667 65.5,60.8333 65.5,58.5C 67.1667,58.5 68.8333,58.5 70.5,58.5C 70.5,55.8333 70.5,53.1667 70.5,50.5C 73.5,50.5 76.5,50.5 79.5,50.5C 79.5,53.1667 79.5,55.8333 79.5,58.5 Z"/></g>
<g><path style="opacity:1" fill="#94e0d1" d="M 79.5,58.5 C 82.5,58.5 85.5,58.5 88.5,58.5C 88.8016,61.0593 88.4682,63.3926 87.5,65.5C 87.5,63.5 87.5,61.5 87.5,59.5C 84.6146,59.8064 81.9479,59.4731 79.5,58.5 Z"/></g>
<g><path style="opacity:1" fill="#f9fdfc" d="M 33.5,59.5 C 36.1667,59.5 38.8333,59.5 41.5,59.5C 41.5,68.1667 41.5,76.8333 41.5,85.5C 38.4163,86.9934 35.4163,86.6601 32.5,84.5C 17.018,89.499 9.85138,83.8324 11,67.5C 15.8522,58.4149 23.0189,56.0816 32.5,60.5C 33.1067,60.3764 33.44,60.0431 33.5,59.5 Z"/></g>
<g><path style="opacity:1" fill="#a6e6d9" d="M 33.5,59.5 C 36.2869,58.5233 39.2869,58.19 42.5,58.5C 42.8266,67.6822 42.4933,76.6822 41.5,85.5C 41.5,76.8333 41.5,68.1667 41.5,59.5C 38.8333,59.5 36.1667,59.5 33.5,59.5 Z"/></g>
<g><path style="opacity:1" fill="#2dc2a4" d="M 23.5,65.5 C 34.152,66.3174 36.152,70.8174 29.5,79C 21.2384,80.3655 18.0718,76.8655 20,68.5C 21.1451,67.3636 22.3117,66.3636 23.5,65.5 Z"/></g>
</svg>
