<?xml version="1.0" encoding="UTF-8"?>
<!DOCTYPE svg PUBLIC "-//W3C//DTD SVG 1.1//EN" "http://www.w3.org/Graphics/SVG/1.1/DTD/svg11.dtd">
<svg xmlns="http://www.w3.org/2000/svg" version="1.1" width="96px" height="96px" style="shape-rendering:geometricPrecision; text-rendering:geometricPrecision; image-rendering:optimizeQuality; fill-rule:evenodd; clip-rule:evenodd" xmlns:xlink="http://www.w3.org/1999/xlink">
<g><path style="opacity:0.999" fill="#ff6325" d="M 37.5,-0.5 C 44.1667,-0.5 50.8333,-0.5 57.5,-0.5C 67.1836,2.17816 75.5169,7.17816 82.5,14.5C 58.9881,14.5352 35.6548,14.5352 12.5,14.5C 19.4831,7.17816 27.8164,2.17816 37.5,-0.5 Z"/></g>
<g><path style="opacity:0.999" fill="#ff5723" d="M 12.5,14.5 C 35.6548,14.5352 58.9881,14.5352 82.5,14.5C 87.3313,18.815 90.6647,24.1484 92.5,30.5C 84.9009,31.7458 77.5675,31.7458 70.5,30.5C 69.5224,30.9767 68.6891,31.6433 68,32.5C 65.8333,30.3333 63.6667,28.1667 61.5,26C 60.5632,25.3083 59.8966,25.475 59.5,26.5C 58.8485,25.9094 58.1818,25.2427 57.5,24.5C 57.707,30.2928 59.707,35.6261 63.5,40.5C 62.7784,40.9175 62.2784,41.5842 62,42.5C 61.5814,41.3279 60.9147,40.3279 60,39.5C 59.6012,39.7284 59.4346,40.0618 59.5,40.5C 55.3536,34.9471 53.1869,28.6137 53,21.5C 49.952,17.9905 46.6187,17.6572 43,20.5C 42.5017,23.8168 42.335,27.1501 42.5,30.5C 41.6805,27.6946 41.1805,24.6946 41,21.5C 40.6667,22.8333 40.3333,24.1667 40,25.5C 39.6174,24.944 39.1174,24.6107 38.5,24.5C 38.1667,24.5 37.8333,24.5 37.5,24.5C 37.44,23.9569 37.1067,23.6236 36.5,23.5C 35.5,24.1667 34.5,24.8333 33.5,25.5C 24.8898,25.2401 16.3898,25.2401 8,25.5C 7.2917,24.6195 6.45837,23.9528 5.5,23.5C 7.48211,20.1897 9.81545,17.1897 12.5,14.5 Z"/></g>
<g><path style="opacity:1" fill="#fff9f7" d="M 59.5,40.5 C 62.4732,45.2814 64.4732,50.448 65.5,56C 65.2554,61.9966 62.5888,66.4966 57.5,69.5C 56.6786,66.5535 56.1786,63.5535 56,60.5C 50.6821,50.8644 46.1821,40.8644 42.5,30.5C 42.335,27.1501 42.5017,23.8168 43,20.5C 46.6187,17.6572 49.952,17.9905 53,21.5C 53.1869,28.6137 55.3536,34.9471 59.5,40.5 Z"/></g>
<g><path style="opacity:1" fill="#fffaf9" d="M 36.5,25.5 C 37.1667,27.5 37.8333,29.5 38.5,31.5C 42.1652,41.8338 46.6652,51.8338 52,61.5C 53.0344,66.4569 52.5344,71.1236 50.5,75.5C 48.1667,76.8333 45.8333,76.8333 43.5,75.5C 42.077,70.5739 40.577,65.5739 39,60.5C 35.7453,54.9916 32.7453,49.325 30,43.5C 29.5017,40.1832 29.335,36.8499 29.5,33.5C 31.0875,30.2416 33.4209,27.5749 36.5,25.5 Z"/></g>
<g><path style="opacity:1" fill="#fff4f2" d="M 59.5,26.5 C 65.163,31.33 70.3296,36.6633 75,42.5C 76.3764,48.4017 74.8764,53.4017 70.5,57.5C 69.8333,55.5 69.1667,53.5 68.5,51.5C 67.6362,47.441 65.9695,43.7743 63.5,40.5C 59.707,35.6261 57.707,30.2928 57.5,24.5C 58.1818,25.2427 58.8485,25.9094 59.5,26.5 Z"/></g>
<g><path style="opacity:1" fill="#ff9b7f" d="M 36.5,25.5 C 36.5,24.8333 36.8333,24.5 37.5,24.5C 37.8333,24.5 38.1667,24.5 38.5,24.5C 38.5,26.8333 38.5,29.1667 38.5,31.5C 37.8333,29.5 37.1667,27.5 36.5,25.5 Z"/></g>
<g><path style="opacity:0.988" fill="#ff4820" d="M 5.5,23.5 C 6.45837,23.9528 7.2917,24.6195 8,25.5C 16.3898,25.2401 24.8898,25.2401 33.5,25.5C 34.5,24.8333 35.5,24.1667 36.5,23.5C 37.1067,23.6236 37.44,23.9569 37.5,24.5C 36.8333,24.5 36.5,24.8333 36.5,25.5C 33.4209,27.5749 31.0875,30.2416 29.5,33.5C 29.5654,33.0618 29.3988,32.7284 29,32.5C 26.997,35.4998 26.1636,38.8331 26.5,42.5C 25.8365,40.9581 25.1698,39.2914 24.5,37.5C 20.0444,40.6604 18.3777,44.9937 19.5,50.5C 18.6909,48.7078 18.1909,46.7078 18,44.5C 15.962,46.0722 13.6287,47.0722 11,47.5C 7.27002,46.5399 3.43669,46.2065 -0.5,46.5C -0.5,43.5 -0.5,40.5 -0.5,37.5C 0.906598,32.6752 2.9066,28.0085 5.5,23.5 Z"/></g>
<g><path style="opacity:1" fill="#fff6f4" d="M 26.5,42.5 C 30.0671,51.6083 33.5671,60.6083 37,69.5C 32.967,65.1321 28.6337,61.1321 24,57.5C 22.2502,55.2657 20.7502,52.9324 19.5,50.5C 18.3777,44.9937 20.0444,40.6604 24.5,37.5C 25.1698,39.2914 25.8365,40.9581 26.5,42.5 Z"/></g>
<g><path style="opacity:1" fill="#ff3718" d="M 59.5,26.5 C 59.8966,25.475 60.5632,25.3083 61.5,26C 63.6667,28.1667 65.8333,30.3333 68,32.5C 68.6891,31.6433 69.5224,30.9767 70.5,30.5C 77.5675,31.7458 84.9009,31.7458 92.5,30.5C 93.6515,32.7791 94.6515,35.1124 95.5,37.5C 95.5,44.1667 95.5,50.8333 95.5,57.5C 94.596,58.209 94.2627,59.209 94.5,60.5C 93.7321,59.7375 93.2321,58.7375 93,57.5C 85.3682,58.2878 77.8682,58.6211 70.5,58.5C 70.5,58.1667 70.5,57.8333 70.5,57.5C 74.8764,53.4017 76.3764,48.4017 75,42.5C 70.3296,36.6633 65.163,31.33 59.5,26.5 Z"/></g>
<g><path style="opacity:1" fill="#ff7f6f" d="M 68.5,51.5 C 69.1667,53.5 69.8333,55.5 70.5,57.5C 70.5,57.8333 70.5,58.1667 70.5,58.5C 68.6565,56.7211 67.9898,54.3878 68.5,51.5 Z"/></g>
<g><path style="opacity:1" fill="#ff2815" d="M 29.5,33.5 C 29.335,36.8499 29.5017,40.1832 30,43.5C 32.7453,49.325 35.7453,54.9916 39,60.5C 40.577,65.5739 42.077,70.5739 43.5,75.5C 42.8826,75.6107 42.3826,75.944 42,76.5C 35.8693,74.8513 29.5359,73.8513 23,73.5C 18.5868,74.6324 14.0868,74.7991 9.5,74C 8.17759,71.8324 7.51092,71.9991 7.5,74.5C 4.00842,69.1852 1.34175,63.5186 -0.5,57.5C -0.5,53.8333 -0.5,50.1667 -0.5,46.5C 3.43669,46.2065 7.27002,46.5399 11,47.5C 13.6287,47.0722 15.962,46.0722 18,44.5C 18.1909,46.7078 18.6909,48.7078 19.5,50.5C 20.7502,52.9324 22.2502,55.2657 24,57.5C 28.6337,61.1321 32.967,65.1321 37,69.5C 33.5671,60.6083 30.0671,51.6083 26.5,42.5C 26.1636,38.8331 26.997,35.4998 29,32.5C 29.3988,32.7284 29.5654,33.0618 29.5,33.5 Z"/></g>
<g><path style="opacity:0.999" fill="#ff2715" d="M 42.5,30.5 C 46.1821,40.8644 50.6821,50.8644 56,60.5C 56.1786,63.5535 56.6786,66.5535 57.5,69.5C 62.5888,66.4966 65.2554,61.9966 65.5,56C 64.4732,50.448 62.4732,45.2814 59.5,40.5C 59.4346,40.0618 59.6012,39.7284 60,39.5C 60.9147,40.3279 61.5814,41.3279 62,42.5C 62.2784,41.5842 62.7784,40.9175 63.5,40.5C 65.9695,43.7743 67.6362,47.441 68.5,51.5C 67.9898,54.3878 68.6565,56.7211 70.5,58.5C 77.8682,58.6211 85.3682,58.2878 93,57.5C 93.2321,58.7375 93.7321,59.7375 94.5,60.5C 92.6768,65.4799 90.3434,70.1465 87.5,74.5C 87.2252,72.1582 86.3919,72.1582 85,74.5C 78.1233,74.7766 71.1233,74.4433 64,73.5C 59.5583,74.3291 55.0583,74.9958 50.5,75.5C 52.5344,71.1236 53.0344,66.4569 52,61.5C 46.6652,51.8338 42.1652,41.8338 38.5,31.5C 38.5,29.1667 38.5,26.8333 38.5,24.5C 39.1174,24.6107 39.6174,24.944 40,25.5C 40.3333,24.1667 40.6667,22.8333 41,21.5C 41.1805,24.6946 41.6805,27.6946 42.5,30.5 Z"/></g>
<g><path style="opacity:1" fill="#ff0f0e" d="M 43.5,75.5 C 45.8333,76.8333 48.1667,76.8333 50.5,75.5C 55.0583,74.9958 59.5583,74.3291 64,73.5C 71.1233,74.4433 78.1233,74.7766 85,74.5C 86.3919,72.1582 87.2252,72.1582 87.5,74.5C 80.2191,85.457 70.2191,92.457 57.5,95.5C 50.8333,95.5 44.1667,95.5 37.5,95.5C 24.7809,92.457 14.7809,85.457 7.5,74.5C 7.51092,71.9991 8.17759,71.8324 9.5,74C 14.0868,74.7991 18.5868,74.6324 23,73.5C 29.5359,73.8513 35.8693,74.8513 42,76.5C 42.3826,75.944 42.8826,75.6107 43.5,75.5 Z"/></g>
</svg>
