<?xml version="1.0" encoding="UTF-8"?>
<!DOCTYPE svg PUBLIC "-//W3C//DTD SVG 1.1//EN" "http://www.w3.org/Graphics/SVG/1.1/DTD/svg11.dtd">
<svg xmlns="http://www.w3.org/2000/svg" version="1.1" width="96px" height="96px" style="shape-rendering:geometricPrecision; text-rendering:geometricPrecision; image-rendering:optimizeQuality; fill-rule:evenodd; clip-rule:evenodd" xmlns:xlink="http://www.w3.org/1999/xlink">
<g><path style="opacity:0.643" fill="#0d0101" d="M 43.5,-0.5 C 46.1667,-0.5 48.8333,-0.5 51.5,-0.5C 76.5,3.83333 91.1667,18.5 95.5,43.5C 95.5,46.1667 95.5,48.8333 95.5,51.5C 91.1667,76.5 76.5,91.1667 51.5,95.5C 48.8333,95.5 46.1667,95.5 43.5,95.5C 18.5,91.1667 3.83333,76.5 -0.5,51.5C -0.5,48.8333 -0.5,46.1667 -0.5,43.5C 3.83333,18.5 18.5,3.83333 43.5,-0.5 Z"/></g>
<g><path style="opacity:1" fill="#891424" d="M 90.5,33.5 C 90.719,34.675 90.3857,35.675 89.5,36.5C 85.9354,34.0456 81.9354,32.879 77.5,33C 79.9386,32.4666 80.6052,31.3 79.5,29.5C 83.0933,27.8307 83.0933,26.664 79.5,26C 73.5092,25.5005 67.5092,25.3338 61.5,25.5C 60.6629,21.8237 59.3296,18.3237 57.5,15C 53.4845,15.4987 49.4845,16.332 45.5,17.5C 43.314,17.2893 41.1473,16.9559 39,16.5C 37.8926,16.5852 36.8926,16.9186 36,17.5C 33.715,21.1869 32.5483,25.1869 32.5,29.5C 24.6421,31.0937 17.9754,34.7604 12.5,40.5C 12.7093,41.086 13.0426,41.586 13.5,42C 19.4908,42.4995 25.4908,42.6662 31.5,42.5C 31.8833,46.3193 32.8833,49.986 34.5,53.5C 33.8118,54.8549 32.8118,55.8549 31.5,56.5C 25.2457,60.418 19.579,65.0846 14.5,70.5C 13.5386,72.2646 13.2053,74.2646 13.5,76.5C 12.2058,75.7101 11.0391,74.7101 10,73.5C -4.16606,47.3401 0.667277,25.5068 24.5,8C 51.101,-3.89637 72.2676,2.2703 88,26.5C 89.1362,28.743 89.9695,31.0763 90.5,33.5 Z"/></g>
<g><path style="opacity:1" fill="#262626" d="M 79.5,29.5 C 74.5192,31.4948 69.5192,33.4948 64.5,35.5C 68.7037,53.803 61.3704,61.9696 42.5,60C 39.8919,57.0544 37.2252,56.8877 34.5,59.5C 32.8102,59.1436 31.8102,58.1436 31.5,56.5C 32.8118,55.8549 33.8118,54.8549 34.5,53.5C 32.8833,49.986 31.8833,46.3193 31.5,42.5C 25.4908,42.6662 19.4908,42.4995 13.5,42C 13.0426,41.586 12.7093,41.086 12.5,40.5C 17.9754,34.7604 24.6421,31.0937 32.5,29.5C 32.5483,25.1869 33.715,21.1869 36,17.5C 36.8926,16.9186 37.8926,16.5852 39,16.5C 41.1473,16.9559 43.314,17.2893 45.5,17.5C 49.4845,16.332 53.4845,15.4987 57.5,15C 59.3296,18.3237 60.6629,21.8237 61.5,25.5C 67.5092,25.3338 73.5092,25.5005 79.5,26C 83.0933,26.664 83.0933,27.8307 79.5,29.5 Z"/></g>
<g><path style="opacity:1" fill="#030303" d="M 61.5,26.5 C 63.2199,27.7507 63.5532,29.2507 62.5,31C 52.5352,34.9306 42.2019,36.4306 31.5,35.5C 31.5,34.1667 31.5,32.8333 31.5,31.5C 42.0531,32.3855 52.0531,30.7188 61.5,26.5 Z"/></g>
<g><path style="opacity:1" fill="#861723" d="M 79.5,29.5 C 80.6052,31.3 79.9386,32.4666 77.5,33C 81.9354,32.879 85.9354,34.0456 89.5,36.5C 90.3857,35.675 90.719,34.675 90.5,33.5C 96.3622,56.9482 89.0289,75.1149 68.5,88C 49.6842,95.933 32.3508,93.5997 16.5,81C 14.8588,79.871 13.8588,78.371 13.5,76.5C 13.2053,74.2646 13.5386,72.2646 14.5,70.5C 13.8416,74.6772 15.5082,76.1772 19.5,75C 25.4864,70.5183 30.4864,65.3517 34.5,59.5C 37.2252,56.8877 39.8919,57.0544 42.5,60C 61.3704,61.9696 68.7037,53.803 64.5,35.5C 69.5192,33.4948 74.5192,31.4948 79.5,29.5 Z"/></g>
<g><path style="opacity:1" fill="#f0e6e6" d="M 77.5,36.5 C 80.3035,35.3622 83.3035,35.1955 86.5,36C 86.9574,36.414 87.2907,36.914 87.5,37.5C 85.2393,37.73 82.7393,38.3967 80,39.5C 79.5,39.3333 79,39.1667 78.5,39C 82.5537,37.0588 82.2203,36.2254 77.5,36.5 Z"/></g>
<g><path style="opacity:1" fill="#817e7e" d="M 46.5,39.5 C 45.4376,40.5754 45.4376,41.5754 46.5,42.5C 47.5223,42.1445 48.189,41.4778 48.5,40.5C 48.8333,40.5 49.1667,40.5 49.5,40.5C 50.1834,38.8235 51.5168,38.1568 53.5,38.5C 54,42.437 52.3334,44.7703 48.5,45.5C 46.2586,44.9292 44.5919,43.5958 43.5,41.5C 44.0047,40.0815 45.0047,39.4148 46.5,39.5 Z"/></g>
<g><path style="opacity:1" fill="#db1512" d="M 46.5,39.5 C 47.4916,39.3284 48.1583,39.6618 48.5,40.5C 48.189,41.4778 47.5223,42.1445 46.5,42.5C 45.4376,41.5754 45.4376,40.5754 46.5,39.5 Z"/></g>
<g><path style="opacity:1" fill="#c92421" d="M 49.5,40.5 C 51.337,40.6395 51.6704,41.3061 50.5,42.5C 49.7025,42.0431 49.3691,41.3764 49.5,40.5 Z"/></g>
<g><path style="opacity:1" fill="#e3cdcc" d="M 79.5,42.5 C 83.2407,41.5985 85.2407,42.9319 85.5,46.5C 85.6365,47.7799 83.3032,48.1132 78.5,47.5C 78.366,45.7085 78.6993,44.0418 79.5,42.5 Z"/></g>
<g><path style="opacity:1" fill="#606261" d="M 50.5,49.5 C 49.3915,50.29 48.0581,50.79 46.5,51C 48.6775,52.2022 51.0108,52.7022 53.5,52.5C 53.1583,53.3382 52.4916,53.6716 51.5,53.5C 47.0088,54.1149 43.0088,53.1149 39.5,50.5C 36.9238,48.1125 35.9238,45.1125 36.5,41.5C 37.5,41.5 38.5,41.5 39.5,41.5C 39.5441,45.0897 41.2108,47.5897 44.5,49C 46.4727,49.4955 48.4727,49.6621 50.5,49.5 Z"/></g>
<g><path style="opacity:1" fill="#8b8c8c" d="M 60.5,46.5 C 59.1882,49.6608 56.8549,51.6608 53.5,52.5C 51.0108,52.7022 48.6775,52.2022 46.5,51C 48.0581,50.79 49.3915,50.29 50.5,49.5C 56.3765,47.778 59.3765,43.778 59.5,37.5C 61.688,40.2947 62.0214,43.2947 60.5,46.5 Z"/></g>
<g><path style="opacity:1" fill="#efe3e3" d="M 74.5,50.5 C 77.7973,50.3287 78.1306,50.9954 75.5,52.5C 75.8333,52.8333 76.1667,53.1667 76.5,53.5C 78.6316,51.8826 80.9649,51.3826 83.5,52C 85.0883,55.5749 84.0883,56.7416 80.5,55.5C 81.0253,54.8076 81.6919,54.3076 82.5,54C 82,53.8333 81.5,53.6667 81,53.5C 76.7405,56.8063 74.5738,55.8063 74.5,50.5 Z"/></g>
<g><path style="opacity:1" fill="#500e12" d="M 39.5,50.5 C 43.0088,53.1149 47.0088,54.1149 51.5,53.5C 49.5,54.1667 47.5,54.8333 45.5,55.5C 41.9496,54.9138 39.9496,53.2472 39.5,50.5 Z"/></g>
<g><path style="opacity:1" fill="#94131e" d="M 60.5,46.5 C 61.3439,50.001 60.0105,52.8343 56.5,55C 52.7713,56.7004 49.1046,56.8671 45.5,55.5C 47.5,54.8333 49.5,54.1667 51.5,53.5C 52.4916,53.6716 53.1583,53.3382 53.5,52.5C 56.8549,51.6608 59.1882,49.6608 60.5,46.5 Z"/></g>
<g><path style="opacity:1" fill="#060001" d="M 31.5,56.5 C 31.8102,58.1436 32.8102,59.1436 34.5,59.5C 30.4864,65.3517 25.4864,70.5183 19.5,75C 15.5082,76.1772 13.8416,74.6772 14.5,70.5C 19.579,65.0846 25.2457,60.418 31.5,56.5 Z"/></g>
<g><path style="opacity:1" fill="#eadada" d="M 72.5,56.5 C 75.188,58.1318 77.688,60.1318 80,62.5C 80.6667,63.1667 80.6667,63.8333 80,64.5C 76.9669,62.877 73.8002,61.5437 70.5,60.5C 71.376,59.7492 72.376,59.2492 73.5,59C 72.7476,58.3292 72.4142,57.4959 72.5,56.5 Z"/></g>
<g><path style="opacity:1" fill="#f1e7e7" d="M 68.5,62.5 C 71.0608,64.3714 73.5608,66.3714 76,68.5C 76.1667,71 75,72.1667 72.5,72C 71.3333,70.8333 70.1667,69.6667 69,68.5C 69.7925,66.4995 69.6259,64.4995 68.5,62.5 Z"/></g>
<g><path style="opacity:1" fill="#853433" d="M 70.5,66.5 C 71.9616,67.4577 73.2949,68.6244 74.5,70C 72.1589,70.1681 70.8256,69.0014 70.5,66.5 Z"/></g>
<g><path style="opacity:1" fill="#dabfbf" d="M 64.5,70.5 C 68.0612,71.4735 69.3946,73.6402 68.5,77C 67.5,77.6667 66.5,77.6667 65.5,77C 64.5061,75.6713 63.5061,74.338 62.5,73C 63.0556,71.9889 63.7222,71.1556 64.5,70.5 Z"/></g>
<g><path style="opacity:1" fill="#e6d5d5" d="M 34.5,74.5 C 35.8333,74.5 37.1667,74.5 38.5,74.5C 38.6495,75.552 38.4828,76.552 38,77.5C 37.1072,76.2888 36.2739,76.2888 35.5,77.5C 38.3029,80.2374 38.1362,82.5707 35,84.5C 31.967,83.2101 31.8003,81.5435 34.5,79.5C 33.1854,77.8014 33.1854,76.1347 34.5,74.5 Z"/></g>
<g><path style="opacity:1" fill="#e3cccc" d="M 51.5,76.5 C 52.3764,76.3691 53.0431,76.7025 53.5,77.5C 52.1667,79.5 52.1667,81.5 53.5,83.5C 52.675,84.3857 51.675,84.719 50.5,84.5C 50.7564,82.2075 50.4231,80.0408 49.5,78C 50.4158,77.7216 51.0825,77.2216 51.5,76.5 Z"/></g>
<g><path style="opacity:1" fill="#f0e6e6" d="M 41.5,75.5 C 43.1992,75.3398 44.8659,75.5065 46.5,76C 47.0219,76.5613 47.3552,77.228 47.5,78C 45.3444,80.1077 43.6777,82.6077 42.5,85.5C 41.513,82.2317 41.1796,78.8984 41.5,75.5 Z"/></g>
<g><path style="opacity:1" fill="#681c1f" d="M 43.5,76.5 C 45.7602,77.2376 45.9269,78.2376 44,79.5C 43.5172,78.552 43.3505,77.552 43.5,76.5 Z"/></g>
<g><path style="opacity:1" fill="#e1cac9" d="M 57.5,74.5 C 60.1213,75.1211 61.788,76.7877 62.5,79.5C 60.5466,83.4121 58.7132,83.4121 57,79.5C 56.3603,77.735 56.5269,76.0683 57.5,74.5 Z"/></g>
</svg>
