<?xml version="1.0" encoding="UTF-8"?>
<!DOCTYPE svg PUBLIC "-//W3C//DTD SVG 1.1//EN" "http://www.w3.org/Graphics/SVG/1.1/DTD/svg11.dtd">
<svg xmlns="http://www.w3.org/2000/svg" version="1.1" width="96px" height="96px" style="shape-rendering:geometricPrecision; text-rendering:geometricPrecision; image-rendering:optimizeQuality; fill-rule:evenodd; clip-rule:evenodd" xmlns:xlink="http://www.w3.org/1999/xlink">
<g><path style="opacity:0.958" fill="#c99c67" d="M 47.5,7.5 C 47.5,34.8333 47.5,62.1667 47.5,89.5C 44.2988,75.2927 35.9654,65.2927 22.5,59.5C 15.8601,55.5673 8.52673,53.9006 0.5,54.5C 0.167753,42.8143 0.501086,31.1477 1.5,19.5C 7.6188,29.8873 16.6188,35.054 28.5,35C 32.2413,33.2621 35.408,30.7621 38,27.5C 42.0225,21.1263 45.1892,14.4596 47.5,7.5 Z"/></g>
<g><path style="opacity:0.955" fill="#a77c4f" d="M 47.5,7.5 C 49.8108,14.4596 52.9775,21.1263 57,27.5C 62.9237,35.7749 70.4237,37.6083 79.5,33C 85.3092,29.6909 89.9759,25.1909 93.5,19.5C 94.4989,31.1477 94.8322,42.8143 94.5,54.5C 87.9897,54.0698 81.6564,54.9031 75.5,57C 74.0577,57.3768 73.0577,58.2101 72.5,59.5C 59.021,65.3042 50.6877,75.3042 47.5,89.5C 47.5,62.1667 47.5,34.8333 47.5,7.5 Z"/></g>
<g><path style="opacity:0.939" fill="#a77c4f" d="M 0.5,54.5 C 8.52673,53.9006 15.8601,55.5673 22.5,59.5C 23.5238,68.2235 21.6905,76.2235 17,83.5C 12.2529,87.6258 6.75292,89.6258 0.5,89.5C 0.5,77.8333 0.5,66.1667 0.5,54.5 Z"/></g>
<g><path style="opacity:0.936" fill="#c99c67" d="M 94.5,54.5 C 94.5,66.1667 94.5,77.8333 94.5,89.5C 82.6568,89.67 75.4901,84.0033 73,72.5C 72.501,68.1794 72.3343,63.8461 72.5,59.5C 73.0577,58.2101 74.0577,57.3768 75.5,57C 81.6564,54.9031 87.9897,54.0698 94.5,54.5 Z"/></g>
</svg>
