<?xml version="1.0" encoding="UTF-8"?>
<!DOCTYPE svg PUBLIC "-//W3C//DTD SVG 1.1//EN" "http://www.w3.org/Graphics/SVG/1.1/DTD/svg11.dtd">
<svg xmlns="http://www.w3.org/2000/svg" version="1.1" width="96px" height="96px" style="shape-rendering:geometricPrecision; text-rendering:geometricPrecision; image-rendering:optimizeQuality; fill-rule:evenodd; clip-rule:evenodd" xmlns:xlink="http://www.w3.org/1999/xlink">
<g><path style="opacity:0.988" fill="#434e64" d="M 38.5,-0.5 C 44.5,-0.5 50.5,-0.5 56.5,-0.5C 77.1667,4.83333 90.1667,17.8333 95.5,38.5C 95.5,44.5 95.5,50.5 95.5,56.5C 90.1667,77.1667 77.1667,90.1667 56.5,95.5C 50.5,95.5 44.5,95.5 38.5,95.5C 17.8333,90.1667 4.83333,77.1667 -0.5,56.5C -0.5,50.5 -0.5,44.5 -0.5,38.5C 4.83333,17.8333 17.8333,4.83333 38.5,-0.5 Z"/></g>
<g><path style="opacity:1" fill="#36558a" d="M 30.5,13.5 C 31.9187,12.5489 33.5853,12.2155 35.5,12.5C 35.0825,13.2216 34.4158,13.7216 33.5,14C 45.5882,15.237 50.5882,21.737 48.5,33.5C 47.0815,32.9953 46.4148,31.9953 46.5,30.5C 46.4894,28.9826 45.8228,27.8159 44.5,27C 41.633,26.1993 38.9664,26.3659 36.5,27.5C 33.3438,26.3774 30.5105,27.0441 28,29.5C 26.6439,28.6198 25.1439,28.2865 23.5,28.5C 21.9699,29.2112 20.6366,30.2112 19.5,31.5C 17.401,29.17 17.2343,26.5034 19,23.5C 21.4889,21.5309 23.3222,19.1975 24.5,16.5C 24.3284,17.4916 24.6618,18.1583 25.5,18.5C 27.9781,17.8051 29.9781,16.3051 31.5,14C 31.2716,13.6012 30.9382,13.4346 30.5,13.5 Z"/></g>
<g><path style="opacity:1" fill="#e8d9ea" d="M 50.5,2.5 C 49.8333,3.83333 49.1667,5.16667 48.5,6.5C 42.9261,5.45619 38.2594,6.95619 34.5,11C 29.6388,10.5026 26.3055,12.3359 24.5,16.5C 23.3222,19.1975 21.4889,21.5309 19,23.5C 17.2343,26.5034 17.401,29.17 19.5,31.5C 19.5569,32.609 19.8902,33.609 20.5,34.5C 21.1667,37.8333 21.8333,41.1667 22.5,44.5C 22.2786,47.2788 22.612,49.9455 23.5,52.5C 17.5331,53.1981 11.5331,53.6981 5.5,54C 7.76833,64.114 13.1017,72.2807 21.5,78.5C 28.5102,84.169 36.5102,87.5023 45.5,88.5C 46.9516,89.3019 48.6183,89.8019 50.5,90C 50.1667,90.3333 49.8333,90.6667 49.5,91C 50.4158,91.2784 51.0825,91.7784 51.5,92.5C 28.3659,93.3498 12.5326,83.0165 4,61.5C -1.36824,34.4009 8.4651,15.2342 33.5,4C 39.101,2.78324 44.7676,2.28324 50.5,2.5 Z"/></g>
<g><path style="opacity:1" fill="#85c0e6" d="M 46.5,36.5 C 44.9402,34.0465 43.9402,31.3798 43.5,28.5C 44.5,29.1667 45.5,29.8333 46.5,30.5C 46.4148,31.9953 47.0815,32.9953 48.5,33.5C 50.5882,21.737 45.5882,15.237 33.5,14C 34.4158,13.7216 35.0825,13.2216 35.5,12.5C 39.8555,8.99569 44.8555,7.82902 50.5,9C 56.7132,12.9619 63.3799,15.9619 70.5,18C 81.1275,27.8879 84.9608,40.0545 82,54.5C 79.6667,57.1667 77.3333,59.8333 75,62.5C 76.9135,56.0383 77.5802,49.3716 77,42.5C 74.294,40.1294 71.9606,37.4628 70,34.5C 71.8367,42.6291 70.17,49.9624 65,56.5C 64.9318,49.9893 63.9318,43.656 62,37.5C 59.6117,35.6019 57.1117,33.9352 54.5,32.5C 51.8165,33.8418 49.1498,35.1751 46.5,36.5 Z"/></g>
<g><path style="opacity:1" fill="#111937" d="M 36.5,27.5 C 38.9664,26.3659 41.633,26.1993 44.5,27C 45.8228,27.8159 46.4894,28.9826 46.5,30.5C 45.5,29.8333 44.5,29.1667 43.5,28.5C 41.1663,27.7849 38.833,27.4516 36.5,27.5 Z"/></g>
<g><path style="opacity:1" fill="#80b6d6" d="M 36.5,27.5 C 38.833,27.4516 41.1663,27.7849 43.5,28.5C 38.7922,28.0076 38.2922,29.3409 42,32.5C 42.7796,34.3869 42.6129,36.0536 41.5,37.5C 41.2914,36.0783 40.7914,34.745 40,33.5C 39.4209,34.9285 39.5876,36.2618 40.5,37.5C 36.1084,36.6517 31.7751,35.6517 27.5,34.5C 27.5,35.5 27.5,36.5 27.5,37.5C 27.5,39.1667 27.5,40.8333 27.5,42.5C 26.1667,38.1667 24.8333,33.8333 23.5,29.5C 23.5,29.1667 23.5,28.8333 23.5,28.5C 25.1439,28.2865 26.6439,28.6198 28,29.5C 30.5105,27.0441 33.3438,26.3774 36.5,27.5 Z"/></g>
<g><path style="opacity:1" fill="#d4dbe8" d="M 50.5,2.5 C 76.7304,5.89473 90.7304,20.7281 92.5,47C 91.2552,73.4095 77.5885,88.5761 51.5,92.5C 51.0825,91.7784 50.4158,91.2784 49.5,91C 49.8333,90.6667 50.1667,90.3333 50.5,90C 48.6183,89.8019 46.9516,89.3019 45.5,88.5C 55.9073,88.6595 64.9073,85.3261 72.5,78.5C 77.4646,74.0366 82.2979,69.3699 87,64.5C 88.249,56.185 88.9156,47.8517 89,39.5C 87.1935,35.082 85.1935,30.7486 83,26.5C 73.2869,16.7612 61.7869,10.0946 48.5,6.5C 49.1667,5.16667 49.8333,3.83333 50.5,2.5 Z"/></g>
<g><path style="opacity:1" fill="#101830" d="M 23.5,28.5 C 23.5,28.8333 23.5,29.1667 23.5,29.5C 22.3077,31.1131 21.3077,32.7798 20.5,34.5C 19.8902,33.609 19.5569,32.609 19.5,31.5C 20.6366,30.2112 21.9699,29.2112 23.5,28.5 Z"/></g>
<g><path style="opacity:1" fill="#2b4677" d="M 48.5,6.5 C 61.7869,10.0946 73.2869,16.7612 83,26.5C 85.1935,30.7486 87.1935,35.082 89,39.5C 88.9156,47.8517 88.249,56.185 87,64.5C 82.2979,69.3699 77.4646,74.0366 72.5,78.5C 72.0618,78.5654 71.7284,78.3988 71.5,78C 73.1667,76.3333 74.8333,74.6667 76.5,73C 73.1992,73.8235 70.1992,75.4902 67.5,78C 64.6473,79.4301 61.6473,80.2634 58.5,80.5C 53.341,78.0643 50.341,74.3976 49.5,69.5C 51.177,71.5398 52.8437,73.5398 54.5,75.5C 55.708,77.9223 57.3746,78.9223 59.5,78.5C 55.747,69.3327 51.747,60.3327 47.5,51.5C 47.5,50.5 47.5,49.5 47.5,48.5C 46.8379,44.5341 46.5045,40.5341 46.5,36.5C 49.1498,35.1751 51.8165,33.8418 54.5,32.5C 57.1117,33.9352 59.6117,35.6019 62,37.5C 63.9318,43.656 64.9318,49.9893 65,56.5C 70.17,49.9624 71.8367,42.6291 70,34.5C 71.9606,37.4628 74.294,40.1294 77,42.5C 77.5802,49.3716 76.9135,56.0383 75,62.5C 77.3333,59.8333 79.6667,57.1667 82,54.5C 84.9608,40.0545 81.1275,27.8879 70.5,18C 63.3799,15.9619 56.7132,12.9619 50.5,9C 44.8555,7.82902 39.8555,8.99569 35.5,12.5C 33.5853,12.2155 31.9187,12.5489 30.5,13.5C 27.8333,14.1667 26.1667,15.8333 25.5,18.5C 24.6618,18.1583 24.3284,17.4916 24.5,16.5C 26.3055,12.3359 29.6388,10.5026 34.5,11C 38.2594,6.95619 42.9261,5.45619 48.5,6.5 Z"/></g>
<g><path style="opacity:1" fill="#86c4eb" d="M 30.5,13.5 C 30.9382,13.4346 31.2716,13.6012 31.5,14C 29.9781,16.3051 27.9781,17.8051 25.5,18.5C 26.1667,15.8333 27.8333,14.1667 30.5,13.5 Z"/></g>
<g><path style="opacity:1" fill="#314e81" d="M 46.5,10.5 C 47.5,10.5 48.5,10.5 49.5,10.5C 49.5,11.5 49.5,12.5 49.5,13.5C 50.5,13.5 51.5,13.5 52.5,13.5C 53.2634,17.1378 51.9301,18.6378 48.5,18C 45.8729,15.9613 45.2062,13.4613 46.5,10.5 Z"/></g>
<g><path style="opacity:1" fill="#2c4778" d="M 40.5,37.5 C 41.4064,43.1767 42.4064,48.8434 43.5,54.5C 43.3284,55.4916 43.6618,56.1583 44.5,56.5C 45.9704,60.9117 47.6371,65.245 49.5,69.5C 50.341,74.3976 53.341,78.0643 58.5,80.5C 58.1344,81.6946 57.301,82.3613 56,82.5C 53.4334,81.1324 50.9334,79.6324 48.5,78C 46.1902,77.5034 43.8568,77.3367 41.5,77.5C 41.7678,79.099 41.4345,80.4324 40.5,81.5C 36.5051,72.1756 32.5051,62.8423 28.5,53.5C 28.5,53.1667 28.5,52.8333 28.5,52.5C 28.5,51.8333 28.5,51.1667 28.5,50.5C 31.0588,50.6104 33.3921,49.9438 35.5,48.5C 33.5456,44.234 30.8789,40.5674 27.5,37.5C 27.5,36.5 27.5,35.5 27.5,34.5C 31.7751,35.6517 36.1084,36.6517 40.5,37.5 Z"/></g>
<g><path style="opacity:1" fill="#abe4f9" d="M 23.5,29.5 C 24.8333,33.8333 26.1667,38.1667 27.5,42.5C 28.0916,45.1272 28.4249,47.7938 28.5,50.5C 28.5,51.1667 28.5,51.8333 28.5,52.5C 26.0134,50.1911 24.0134,47.5244 22.5,44.5C 21.8333,41.1667 21.1667,37.8333 20.5,34.5C 21.3077,32.7798 22.3077,31.1131 23.5,29.5 Z"/></g>
<g><path style="opacity:1" fill="#a9e3f6" d="M 43.5,28.5 C 43.9402,31.3798 44.9402,34.0465 46.5,36.5C 46.5045,40.5341 46.8379,44.5341 47.5,48.5C 45.1377,45.1265 43.1377,41.4598 41.5,37.5C 42.6129,36.0536 42.7796,34.3869 42,32.5C 38.2922,29.3409 38.7922,28.0076 43.5,28.5 Z"/></g>
<g><path style="opacity:1" fill="#e7dceb" d="M 27.5,37.5 C 30.8789,40.5674 33.5456,44.234 35.5,48.5C 33.3921,49.9438 31.0588,50.6104 28.5,50.5C 28.4249,47.7938 28.0916,45.1272 27.5,42.5C 27.5,40.8333 27.5,39.1667 27.5,37.5 Z"/></g>
<g><path style="opacity:1" fill="#dff5fb" d="M 41.5,37.5 C 43.1377,41.4598 45.1377,45.1265 47.5,48.5C 47.5,49.5 47.5,50.5 47.5,51.5C 46.9653,53.4456 45.632,54.4456 43.5,54.5C 42.4064,48.8434 41.4064,43.1767 40.5,37.5C 39.5876,36.2618 39.4209,34.9285 40,33.5C 40.7914,34.745 41.2914,36.0783 41.5,37.5 Z"/></g>
<g><path style="opacity:1" fill="#dff3fb" d="M 22.5,44.5 C 24.0134,47.5244 26.0134,50.1911 28.5,52.5C 28.5,52.8333 28.5,53.1667 28.5,53.5C 28.8333,56.5 27.5,57.8333 24.5,57.5C 23.962,55.8828 23.6287,54.2161 23.5,52.5C 22.612,49.9455 22.2786,47.2788 22.5,44.5 Z"/></g>
<g><path style="opacity:1" fill="#2d4a7c" d="M 23.5,52.5 C 23.6287,54.2161 23.962,55.8828 24.5,57.5C 24.9887,58.9952 25.6554,60.3285 26.5,61.5C 28.0321,66.8963 30.3654,71.8963 33.5,76.5C 29.5,77.1667 25.5,77.8333 21.5,78.5C 13.1017,72.2807 7.76833,64.114 5.5,54C 11.5331,53.6981 17.5331,53.1981 23.5,52.5 Z"/></g>
<g><path style="opacity:1" fill="#a4daed" d="M 47.5,51.5 C 51.747,60.3327 55.747,69.3327 59.5,78.5C 57.3746,78.9223 55.708,77.9223 54.5,75.5C 53.9484,71.9653 52.7818,68.6319 51,65.5C 48.6512,61.9279 46.4845,58.9279 44.5,56.5C 43.6618,56.1583 43.3284,55.4916 43.5,54.5C 45.632,54.4456 46.9653,53.4456 47.5,51.5 Z"/></g>
<g><path style="opacity:1" fill="#def1f7" d="M 54.5,75.5 C 52.8437,73.5398 51.177,71.5398 49.5,69.5C 47.6371,65.245 45.9704,60.9117 44.5,56.5C 46.4845,58.9279 48.6512,61.9279 51,65.5C 52.7818,68.6319 53.9484,71.9653 54.5,75.5 Z"/></g>
<g><path style="opacity:1" fill="#e1f2f9" d="M 35.5,78.5 C 34.5,78.1667 33.8333,77.5 33.5,76.5C 30.3654,71.8963 28.0321,66.8963 26.5,61.5C 28.3252,63.5867 30.3252,66.2533 32.5,69.5C 33.9634,72.357 34.9634,75.357 35.5,78.5 Z"/></g>
<g><path style="opacity:1" fill="#a4d9ec" d="M 28.5,53.5 C 32.5051,62.8423 36.5051,72.1756 40.5,81.5C 38.4048,81.9367 36.7382,80.9367 35.5,78.5C 34.9634,75.357 33.9634,72.357 32.5,69.5C 30.3252,66.2533 28.3252,63.5867 26.5,61.5C 25.6554,60.3285 24.9887,58.9952 24.5,57.5C 27.5,57.8333 28.8333,56.5 28.5,53.5 Z"/></g>
<g><path style="opacity:1" fill="#35548a" d="M 72.5,78.5 C 64.9073,85.3261 55.9073,88.6595 45.5,88.5C 36.5102,87.5023 28.5102,84.169 21.5,78.5C 25.5,77.8333 29.5,77.1667 33.5,76.5C 33.8333,77.5 34.5,78.1667 35.5,78.5C 36.7382,80.9367 38.4048,81.9367 40.5,81.5C 41.4345,80.4324 41.7678,79.099 41.5,77.5C 43.8568,77.3367 46.1902,77.5034 48.5,78C 50.9334,79.6324 53.4334,81.1324 56,82.5C 57.301,82.3613 58.1344,81.6946 58.5,80.5C 61.6473,80.2634 64.6473,79.4301 67.5,78C 70.1992,75.4902 73.1992,73.8235 76.5,73C 74.8333,74.6667 73.1667,76.3333 71.5,78C 71.7284,78.3988 72.0618,78.5654 72.5,78.5 Z"/></g>
</svg>
