<?xml version="1.0" encoding="UTF-8"?>
<!DOCTYPE svg PUBLIC "-//W3C//DTD SVG 1.1//EN" "http://www.w3.org/Graphics/SVG/1.1/DTD/svg11.dtd">
<svg xmlns="http://www.w3.org/2000/svg" version="1.1" width="96px" height="96px" style="shape-rendering:geometricPrecision; text-rendering:geometricPrecision; image-rendering:optimizeQuality; fill-rule:evenodd; clip-rule:evenodd" xmlns:xlink="http://www.w3.org/1999/xlink">
<g><path style="opacity:0.592" fill="#efeef0" d="M 31.5,4.5 C 52.0748,7.03706 69.2415,16.0371 83,31.5C 88.716,37.5593 92.216,44.7259 93.5,53C 93.3687,55.2527 92.8687,57.4194 92,59.5C 86.3333,67.5 80.6667,75.5 75,83.5C 68.7391,90.0222 61.2391,91.8556 52.5,89C 31.3493,82.8384 15.1827,70.3384 4,51.5C 1.29994,46.2826 0.966603,40.9493 3,35.5C 9.78237,25.7166 16.949,16.2166 24.5,7C 26.9269,6.09774 29.2603,5.2644 31.5,4.5 Z"/></g>
<g><path style="opacity:1" fill="#f054a0" d="M 47.5,49.5 C 55.0019,54.2509 63.0019,57.9176 71.5,60.5C 71.1667,61.1667 70.8333,61.8333 70.5,62.5C 68.0065,62.1307 67.3398,62.7973 68.5,64.5C 61.6913,71.4119 55.1913,71.0786 49,63.5C 47.1667,61 45.3333,58.5 43.5,56C 40.634,54.5432 37.634,54.2099 34.5,55C 29.8274,59.8524 24.494,63.6858 18.5,66.5C 15.1195,64.1203 12.4528,61.1203 10.5,57.5C 17.8708,55.7036 25.3708,54.037 33,52.5C 33.414,52.9574 33.914,53.2907 34.5,53.5C 38.7745,51.9136 43.1078,50.5803 47.5,49.5 Z"/></g>
<g><path style="opacity:1" fill="#0f0f20" d="M 87.5,46.5 C 88.1667,46.5 88.8333,46.5 89.5,46.5C 92.0775,51.0806 91.9108,55.7472 89,60.5C 84,67.5 79,74.5 74,81.5C 72.1266,83.7089 69.96,85.5422 67.5,87C 59.2069,88.1707 51.2069,87.1707 43.5,84C 34.0502,79.6214 25.7169,73.7881 18.5,66.5C 24.494,63.6858 29.8274,59.8524 34.5,55C 37.634,54.2099 40.634,54.5432 43.5,56C 45.3333,58.5 47.1667,61 49,63.5C 55.1913,71.0786 61.6913,71.4119 68.5,64.5C 69.8333,64.5 70.5,63.8333 70.5,62.5C 70.8333,61.8333 71.1667,61.1667 71.5,60.5C 76.6542,62.0204 81.6542,61.5204 86.5,59C 88.7673,55.0185 89.1006,50.8519 87.5,46.5 Z"/></g>
<g><path style="opacity:1" fill="#a3a9a6" d="M 70.5,62.5 C 70.5,63.8333 69.8333,64.5 68.5,64.5C 67.3398,62.7973 68.0065,62.1307 70.5,62.5 Z"/></g>
<g><path style="opacity:1" fill="#de5ba7" d="M 34.5,38.5 C 38.6878,42.4143 43.0212,46.081 47.5,49.5C 43.1078,50.5803 38.7745,51.9136 34.5,53.5C 33.914,53.2907 33.414,52.9574 33,52.5C 25.3708,54.037 17.8708,55.7036 10.5,57.5C 8.07642,54.9922 6.40975,51.9922 5.5,48.5C 5.43456,48.0618 5.60123,47.7284 6,47.5C 6.68722,49.5547 7.85389,51.2214 9.5,52.5C 17.1252,50.7081 24.7919,49.0414 32.5,47.5C 33.7387,47.0576 34.7387,46.3909 35.5,45.5C 36.8979,47.1088 38.5646,47.9421 40.5,48C 37.6286,45.2972 34.9619,42.4639 32.5,39.5C 32.8417,38.6618 33.5084,38.3284 34.5,38.5 Z"/></g>
<g><path style="opacity:1" fill="#d064ad" d="M 26.5,35.5 C 29.5,38.8333 32.5,42.1667 35.5,45.5C 34.7387,46.3909 33.7387,47.0576 32.5,47.5C 24.7919,49.0414 17.1252,50.7081 9.5,52.5C 7.85389,51.2214 6.68722,49.5547 6,47.5C 5.60123,47.7284 5.43456,48.0618 5.5,48.5C 4.59603,47.791 4.26269,46.791 4.5,45.5C 3.74002,41.4 5.07336,40.4 8.5,42.5C 14.8062,41.1733 21.1395,40.0066 27.5,39C 25.6885,37.9593 25.3552,36.7927 26.5,35.5 Z"/></g>
<g><path style="opacity:1" fill="#b272b7" d="M 24.5,32.5 C 25.1667,33.5 25.8333,34.5 26.5,35.5C 25.3552,36.7927 25.6885,37.9593 27.5,39C 21.1395,40.0066 14.8062,41.1733 8.5,42.5C 5.07336,40.4 3.74002,41.4 4.5,45.5C 3.16667,42.8333 3.16667,40.1667 4.5,37.5C 11.1345,35.6182 17.8012,33.9515 24.5,32.5 Z"/></g>
<g><path style="opacity:1" fill="#d759a6" d="M 76.5,28.5 C 82.4151,33.4065 86.7484,39.4065 89.5,46.5C 88.8333,46.5 88.1667,46.5 87.5,46.5C 83.9055,40.332 79.5721,34.6654 74.5,29.5C 74.8417,28.6618 75.5084,28.3284 76.5,28.5 Z"/></g>
<g><path style="opacity:1" fill="#a46ab4" d="M 25.5,25.5 C 28.11,30.1089 31.11,34.4422 34.5,38.5C 33.5084,38.3284 32.8417,38.6618 32.5,39.5C 28.3375,35.9987 25.3375,31.6654 23.5,26.5C 23.8417,25.6618 24.5084,25.3284 25.5,25.5 Z"/></g>
<g><path style="opacity:1" fill="#f5eef6" d="M 20.5,23.5 C 21.8999,24.0998 22.8999,25.0998 23.5,26.5C 25.3375,31.6654 28.3375,35.9987 32.5,39.5C 34.9619,42.4639 37.6286,45.2972 40.5,48C 38.5646,47.9421 36.8979,47.1088 35.5,45.5C 32.5,42.1667 29.5,38.8333 26.5,35.5C 25.8333,34.5 25.1667,33.5 24.5,32.5C 22.3993,29.8732 21.0659,26.8732 20.5,23.5 Z"/></g>
<g><path style="opacity:1" fill="#927dc0" d="M 17.5,18.5 C 18.4778,18.811 19.1445,19.4777 19.5,20.5C 18.4706,20.2964 17.4706,20.7964 16.5,22C 18.0581,22.21 19.3915,22.71 20.5,23.5C 21.0659,26.8732 22.3993,29.8732 24.5,32.5C 17.8012,33.9515 11.1345,35.6182 4.5,37.5C 8.58622,30.9931 12.9196,24.6598 17.5,18.5 Z"/></g>
<g><path style="opacity:1" fill="#a36cb5" d="M 63.5,18.5 C 66.7777,19.8089 69.7777,21.6422 72.5,24C 74.0414,25.3712 75.3747,26.8712 76.5,28.5C 75.5084,28.3284 74.8417,28.6618 74.5,29.5C 70.5,26.5 66.5,23.5 62.5,20.5C 62.8333,19.8333 63.1667,19.1667 63.5,18.5 Z"/></g>
<g><path style="opacity:1" fill="#5a9ed8" d="M 50.5,11.5 C 50.5,12.1667 50.5,12.8333 50.5,13.5C 46.1741,12.339 41.8407,11.1723 37.5,10C 25.4146,8.91807 21.4146,14.0847 25.5,25.5C 24.5084,25.3284 23.8417,25.6618 23.5,26.5C 22.8999,25.0998 21.8999,24.0998 20.5,23.5C 19.3915,22.71 18.0581,22.21 16.5,22C 17.4706,20.7964 18.4706,20.2964 19.5,20.5C 19.1445,19.4777 18.4778,18.811 17.5,18.5C 22.5487,7.53133 30.8821,4.03133 42.5,8C 45.4757,8.70477 48.1423,9.87143 50.5,11.5 Z"/></g>
<g><path style="opacity:1" fill="#688ece" d="M 50.5,11.5 C 55.596,12.546 59.9293,14.8793 63.5,18.5C 63.1667,19.1667 62.8333,19.8333 62.5,20.5C 58.4645,18.1517 54.4645,15.8184 50.5,13.5C 50.5,12.8333 50.5,12.1667 50.5,11.5 Z"/></g>
<g><path style="opacity:1" fill="#fbfafc" d="M 50.5,13.5 C 54.4645,15.8184 58.4645,18.1517 62.5,20.5C 66.5,23.5 70.5,26.5 74.5,29.5C 79.5721,34.6654 83.9055,40.332 87.5,46.5C 89.1006,50.8519 88.7673,55.0185 86.5,59C 81.6542,61.5204 76.6542,62.0204 71.5,60.5C 63.0019,57.9176 55.0019,54.2509 47.5,49.5C 43.0212,46.081 38.6878,42.4143 34.5,38.5C 31.11,34.4422 28.11,30.1089 25.5,25.5C 21.4146,14.0847 25.4146,8.91807 37.5,10C 41.8407,11.1723 46.1741,12.339 50.5,13.5 Z"/></g>
<g><path style="opacity:1" fill="#e363aa" d="M 66.5,34.5 C 69.5099,37.1797 71.5099,40.5131 72.5,44.5C 72.4096,46.4251 71.4096,47.5917 69.5,48C 62.6959,48.1204 56.6959,45.9537 51.5,41.5C 56.5437,40.7183 61.877,39.5516 67.5,38C 65.6885,36.9593 65.3552,35.7927 66.5,34.5 Z"/></g>
<g><path style="opacity:1" fill="#ca66af" d="M 61.5,30.5 C 63.3885,31.604 65.0552,32.9373 66.5,34.5C 65.3552,35.7927 65.6885,36.9593 67.5,38C 61.877,39.5516 56.5437,40.7183 51.5,41.5C 48.8333,39.5 46.5,37.1667 44.5,34.5C 45.3285,33.6676 46.1618,34.001 47,35.5C 51.7081,33.957 56.5414,32.7904 61.5,32C 60.2617,31.31 60.2617,30.81 61.5,30.5 Z"/></g>
<g><path style="opacity:1" fill="#ab73b9" d="M 61.5,30.5 C 60.2617,30.81 60.2617,31.31 61.5,32C 56.5414,32.7904 51.7081,33.957 47,35.5C 46.1618,34.001 45.3285,33.6676 44.5,34.5C 41.0102,31.6929 40.0102,28.1929 41.5,24C 49.2595,23.087 55.9262,25.2537 61.5,30.5 Z"/></g>
<g><path style="opacity:1" fill="#b5b5b4" d="M 71.5,64.5 C 74.6399,63.3592 77.9733,63.1925 81.5,64C 78.2781,65.8175 74.9447,65.9842 71.5,64.5 Z"/></g>
</svg>
