<?xml version="1.0" encoding="UTF-8"?>
<!DOCTYPE svg PUBLIC "-//W3C//DTD SVG 1.1//EN" "http://www.w3.org/Graphics/SVG/1.1/DTD/svg11.dtd">
<svg xmlns="http://www.w3.org/2000/svg" version="1.1" width="96px" height="96px" style="shape-rendering:geometricPrecision; text-rendering:geometricPrecision; image-rendering:optimizeQuality; fill-rule:evenodd; clip-rule:evenodd" xmlns:xlink="http://www.w3.org/1999/xlink">
<g><path style="opacity:0.999" fill="#bf1e2d" d="M 37.5,-0.5 C 44.1667,-0.5 50.8333,-0.5 57.5,-0.5C 77.1403,5.14032 89.807,17.807 95.5,37.5C 95.5,43.8333 95.5,50.1667 95.5,56.5C 93.8157,62.8672 91.149,68.8672 87.5,74.5C 74.0668,52.4798 60.7334,30.3131 47.5,8C 46.365,7.25061 45.365,7.41728 44.5,8.5C 35.9142,22.6695 27.5809,37.0028 19.5,51.5C 38.5173,62.8606 57.5173,74.1939 76.5,85.5C 70.6178,90.4411 63.9512,93.7744 56.5,95.5C 50.1667,95.5 43.8333,95.5 37.5,95.5C 29.8164,93.158 22.8164,89.4913 16.5,84.5C 23.8028,80.8483 30.8028,76.6817 37.5,72C 30.3291,67.5803 22.9958,63.4136 15.5,59.5C 12.2435,63.688 9.2435,68.0214 6.5,72.5C 3.34103,67.8506 1.0077,62.8506 -0.5,57.5C -0.5,50.8333 -0.5,44.1667 -0.5,37.5C 5.16667,17.8333 17.8333,5.16667 37.5,-0.5 Z"/></g>
<g><path style="opacity:0.996" fill="#fefbfb" d="M 87.5,74.5 C 84.8333,79.1667 81.1667,82.8333 76.5,85.5C 57.5173,74.1939 38.5173,62.8606 19.5,51.5C 27.5809,37.0028 35.9142,22.6695 44.5,8.5C 45.365,7.41728 46.365,7.25061 47.5,8C 60.7334,30.3131 74.0668,52.4798 87.5,74.5 Z"/></g>
<g><path style="opacity:1" fill="#be202a" d="M 44.5,33.5 C 46.0174,33.5106 47.1841,34.1772 48,35.5C 51.2451,42.3245 54.7451,48.9911 58.5,55.5C 57.3073,57.3837 55.6406,57.8837 53.5,57C 48.3333,53.8333 43.1667,50.6667 38,47.5C 38.9437,42.3524 41.1104,37.6858 44.5,33.5 Z"/></g>
<g><path style="opacity:0.979" fill="#fefbfb" d="M 16.5,84.5 C 12.0427,81.3813 8.70937,77.3813 6.5,72.5C 9.2435,68.0214 12.2435,63.688 15.5,59.5C 22.9958,63.4136 30.3291,67.5803 37.5,72C 30.8028,76.6817 23.8028,80.8483 16.5,84.5 Z"/></g>
</svg>
