<?xml version="1.0" encoding="UTF-8"?>
<!DOCTYPE svg PUBLIC "-//W3C//DTD SVG 1.1//EN" "http://www.w3.org/Graphics/SVG/1.1/DTD/svg11.dtd">
<svg xmlns="http://www.w3.org/2000/svg" version="1.1" width="96px" height="96px" style="shape-rendering:geometricPrecision; text-rendering:geometricPrecision; image-rendering:optimizeQuality; fill-rule:evenodd; clip-rule:evenodd" xmlns:xlink="http://www.w3.org/1999/xlink">
<g><path style="opacity:0.348" fill="#526fff" d="M 39.5,-0.5 C 44.8333,-0.5 50.1667,-0.5 55.5,-0.5C 69.0237,3.34685 79.857,11.0135 88,22.5C 91.0122,28.0718 93.5122,33.7385 95.5,39.5C 95.5,44.8333 95.5,50.1667 95.5,55.5C 91.6531,69.0237 83.9865,79.857 72.5,88C 66.9282,91.0122 61.2615,93.5122 55.5,95.5C 50.1667,95.5 44.8333,95.5 39.5,95.5C 25.9763,91.6531 15.143,83.9865 7,72.5C 3.9878,66.9282 1.4878,61.2615 -0.5,55.5C -0.5,50.1667 -0.5,44.8333 -0.5,39.5C 3.34685,25.9763 11.0135,15.143 22.5,7C 28.0718,3.9878 33.7385,1.4878 39.5,-0.5 Z"/></g>
<g><path style="opacity:1" fill="#eaecfc" d="M 37.5,2.5 C 65.077,-0.0339099 83.2437,11.6328 92,37.5C 93.8333,75.6667 75.6667,93.8333 37.5,92C 11.4788,83.265 -0.0212437,65.0984 3,37.5C 5.72753,26.526 11.5609,17.6927 20.5,11C 25.9902,7.58818 31.6569,4.75485 37.5,2.5 Z"/></g>
<g><path style="opacity:1" fill="#435bd5" d="M 76.5,17.5 C 57.6685,4.03567 39.0019,4.20234 20.5,18C 5.59837,33.0151 2.59837,50.1817 11.5,69.5C 0.384636,47.843 4.0513,29.0096 22.5,13C 37.7556,3.80114 53.4222,3.13448 69.5,11C 72.3312,12.6657 74.6645,14.8324 76.5,17.5 Z"/></g>
<g><path style="opacity:1" fill="#5170fe" d="M 76.5,17.5 C 87.9414,27.9955 92.1081,40.9955 89,56.5C 80.9715,81.4884 63.8048,92.3218 37.5,89C 26.0985,86.0925 17.4318,79.5925 11.5,69.5C 2.59837,50.1817 5.59837,33.0151 20.5,18C 39.0019,4.20234 57.6685,4.03567 76.5,17.5 Z"/></g>
<g><path style="opacity:1" fill="#eaeefd" d="M 50.5,26.5 C 49.8519,28.0858 49.3519,29.7525 49,31.5C 47.2028,28.9041 45.8695,29.2374 45,32.5C 44.7165,30.1144 43.7165,29.4477 42,30.5C 41.3923,28.8455 40.8923,27.1789 40.5,25.5C 41.4617,22.2432 42.9617,19.2432 45,16.5C 47.117,19.6915 48.9504,23.0248 50.5,26.5 Z"/></g>
<g><path style="opacity:1" fill="#ebeefd" d="M 62.5,28.5 C 61.8161,30.4488 60.6494,32.1155 59,33.5C 57.6134,31.9535 56.4467,30.2868 55.5,28.5C 57.8333,19.1667 60.1667,19.1667 62.5,28.5 Z"/></g>
<g><path style="opacity:1" fill="#a5b2fc" d="M 40.5,25.5 C 40.8923,27.1789 41.3923,28.8455 42,30.5C 43.7165,29.4477 44.7165,30.1144 45,32.5C 45.8695,29.2374 47.2028,28.9041 49,31.5C 49.3519,29.7525 49.8519,28.0858 50.5,26.5C 51.393,28.297 52.7263,29.6304 54.5,30.5C 53.1535,32.5368 51.8202,34.5368 50.5,36.5C 50.1414,34.5154 49.308,33.8487 48,34.5C 44.5484,41.905 40.7151,49.0717 36.5,56C 44.4931,56.4997 52.4931,56.6664 60.5,56.5C 65.8333,56.5 71.1667,56.5 76.5,56.5C 57.1667,57.8333 37.8333,57.8333 18.5,56.5C 23.544,56.8275 28.544,56.4941 33.5,55.5C 31.88,52.5963 30.5467,49.5963 29.5,46.5C 32.9117,39.3423 36.5784,32.3423 40.5,25.5 Z"/></g>
<g><path style="opacity:1" fill="#cad1fb" d="M 55.5,28.5 C 56.4467,30.2868 57.6134,31.9535 59,33.5C 60.6494,32.1155 61.8161,30.4488 62.5,28.5C 67.6745,37.5157 72.3412,46.849 76.5,56.5C 71.1667,56.5 65.8333,56.5 60.5,56.5C 57.1667,49.8333 53.8333,43.1667 50.5,36.5C 51.8202,34.5368 53.1535,32.5368 54.5,30.5C 54.3284,29.5084 54.6618,28.8417 55.5,28.5 Z"/></g>
<g><path style="opacity:1" fill="#fafafe" d="M 50.5,36.5 C 53.8333,43.1667 57.1667,49.8333 60.5,56.5C 52.4931,56.6664 44.4931,56.4997 36.5,56C 40.7151,49.0717 44.5484,41.905 48,34.5C 49.308,33.8487 50.1414,34.5154 50.5,36.5 Z"/></g>
<g><path style="opacity:1" fill="#eef1fd" d="M 29.5,46.5 C 30.5467,49.5963 31.88,52.5963 33.5,55.5C 28.544,56.4941 23.544,56.8275 18.5,56.5C 20.4617,51.2432 22.9617,46.2432 26,41.5C 27.1889,43.2331 28.3556,44.8998 29.5,46.5 Z"/></g>
<g><path style="opacity:1" fill="#92a6ff" d="M 69.5,61.5 C 71.9479,60.5269 74.6146,60.1936 77.5,60.5C 77.7373,61.791 77.404,62.791 76.5,63.5C 74.7211,61.6565 72.3878,60.9898 69.5,61.5 Z"/></g>
<g><path style="opacity:1" fill="#b3c0fe" d="M 36.5,61.5 C 36.5,64.5 36.5,67.5 36.5,70.5C 38.4147,70.7845 40.0813,70.4511 41.5,69.5C 42.0431,69.56 42.3764,69.8933 42.5,70.5C 40.2573,71.4742 37.924,71.8076 35.5,71.5C 35.1872,67.9581 35.5206,64.6248 36.5,61.5 Z"/></g>
<g><path style="opacity:1" fill="#b3bffe" d="M 49.5,61.5 C 47.8333,61.5 46.1667,61.5 44.5,61.5C 43.9455,65.0122 44.6122,68.0122 46.5,70.5C 45.791,71.404 44.791,71.7373 43.5,71.5C 43.5,67.8333 43.5,64.1667 43.5,60.5C 45.7354,60.2053 47.7354,60.5386 49.5,61.5 Z"/></g>
<g><path style="opacity:1" fill="#edf0fe" d="M 49.5,61.5 C 51.7188,63.0654 52.0521,65.0654 50.5,67.5C 51.1667,68.5 51.8333,69.5 52.5,70.5C 51.635,71.5827 50.635,71.7494 49.5,71C 47.9149,67.1057 46.9149,66.939 46.5,70.5C 44.6122,68.0122 43.9455,65.0122 44.5,61.5C 46.1667,61.5 47.8333,61.5 49.5,61.5 Z"/></g>
<g><path style="opacity:1" fill="#e5e9fe" d="M 69.5,61.5 C 72.3878,60.9898 74.7211,61.6565 76.5,63.5C 74.631,65.6353 73.9644,68.3019 74.5,71.5C 73.5,71.5 72.5,71.5 71.5,71.5C 71.7681,67.917 71.1014,64.5836 69.5,61.5 Z"/></g>
<g><path style="opacity:1" fill="#aab9fe" d="M 18.5,61.5 C 18.5,64.5 18.5,67.5 18.5,70.5C 20.4147,70.7845 22.0813,70.4511 23.5,69.5C 24.0431,69.56 24.3764,69.8933 24.5,70.5C 22.2573,71.4742 19.924,71.8076 17.5,71.5C 17.1872,67.9581 17.5206,64.6248 18.5,61.5 Z"/></g>
<g><path style="opacity:1" fill="#5471ff" d="M 46.5,63.5 C 48.337,63.6395 48.6704,64.3061 47.5,65.5C 46.7025,65.0431 46.3691,64.3764 46.5,63.5 Z"/></g>
<g><path style="opacity:1" fill="#95a5fe" d="M 20.5,64.5 C 21.8333,64.5 23.1667,64.5 24.5,64.5C 24.5,65.5 24.5,66.5 24.5,67.5C 23.1667,67.5 21.8333,67.5 20.5,67.5C 21.2625,66.7321 22.2625,66.2321 23.5,66C 22.2625,65.7679 21.2625,65.2679 20.5,64.5 Z"/></g>
<g><path style="opacity:1" fill="#edeffe" d="M 18.5,61.5 C 23.6139,61.3495 24.2806,62.3495 20.5,64.5C 21.2625,65.2679 22.2625,65.7679 23.5,66C 22.2625,66.2321 21.2625,66.7321 20.5,67.5C 21.5,68.1667 22.5,68.8333 23.5,69.5C 22.0813,70.4511 20.4147,70.7845 18.5,70.5C 18.5,67.5 18.5,64.5 18.5,61.5 Z"/></g>
<g><path style="opacity:1" fill="#eaecfe" d="M 25.5,61.5 C 28.3455,61.8087 29.8455,63.4754 30,66.5C 29.7096,62.9106 31.2096,61.4106 34.5,62C 30.9879,74.6683 27.9879,74.5016 25.5,61.5 Z"/></g>
<g><path style="opacity:1" fill="#e7eafe" d="M 36.5,61.5 C 41.443,61.2876 42.1097,62.2876 38.5,64.5C 42.3779,65.8847 42.3779,67.0514 38.5,68C 39.7375,68.2321 40.7375,68.7321 41.5,69.5C 40.0813,70.4511 38.4147,70.7845 36.5,70.5C 36.5,67.5 36.5,64.5 36.5,61.5 Z"/></g>
<g><path style="opacity:1" fill="#d6dcfe" d="M 53.5,60.5 C 55.5,60.5 57.5,60.5 59.5,60.5C 59.5,61.5 59.5,62.5 59.5,63.5C 55.5,63.8333 55.5,64.1667 59.5,64.5C 59.5,65.5 59.5,66.5 59.5,67.5C 55.5,67.8333 55.5,68.1667 59.5,68.5C 59.5,69.5 59.5,70.5 59.5,71.5C 57.5,71.5 55.5,71.5 53.5,71.5C 53.5,67.8333 53.5,64.1667 53.5,60.5 Z"/></g>
<g><path style="opacity:1" fill="#e8ebfe" d="M 63.5,60.5 C 69.3443,60.9801 69.6776,62.1468 64.5,64C 66.6126,64.8717 67.9459,66.3717 68.5,68.5C 66.9739,71.0918 64.6405,72.0918 61.5,71.5C 61.3505,70.448 61.5172,69.448 62,68.5C 63.1827,69.731 64.3493,69.731 65.5,68.5C 61.2833,66.5423 60.6166,63.8756 63.5,60.5 Z"/></g>
</svg>
