<?xml version="1.0" encoding="UTF-8"?>
<!DOCTYPE svg PUBLIC "-//W3C//DTD SVG 1.1//EN" "http://www.w3.org/Graphics/SVG/1.1/DTD/svg11.dtd">
<svg xmlns="http://www.w3.org/2000/svg" version="1.1" width="96px" height="96px" style="shape-rendering:geometricPrecision; text-rendering:geometricPrecision; image-rendering:optimizeQuality; fill-rule:evenodd; clip-rule:evenodd" xmlns:xlink="http://www.w3.org/1999/xlink">
<g><path style="opacity:1" fill="#d5c13a" d="M 52.5,-0.5 C 54.1667,-0.5 55.8333,-0.5 57.5,-0.5C 61.2157,0.854319 64.8824,2.52099 68.5,4.5C 66.6001,6.61592 64.2668,7.94925 61.5,8.5C 57.5,6.5 54.5,3.5 52.5,-0.5 Z"/></g>
<g><path style="opacity:0.942" fill="#e9e05c" d="M 37.5,-0.5 C 38.5,-0.5 39.5,-0.5 40.5,-0.5C 41.1408,0.482236 41.8075,1.48224 42.5,2.5C 47.5822,5.02968 52.2489,8.02968 56.5,11.5C 53.4512,13.8627 50.1178,15.8627 46.5,17.5C 41.8301,8.86714 34.4968,5.70047 24.5,8C 22.7513,9.29152 20.918,10.4582 19,11.5C 17.5751,19.3169 20.4085,24.9836 27.5,28.5C 24.669,30.4168 21.669,32.0834 18.5,33.5C 18.1667,33.5 17.8333,33.5 17.5,33.5C 17.0618,33.5654 16.7284,33.3988 16.5,33C 17.624,32.7508 18.624,32.2508 19.5,31.5C 14.4734,28.4367 11.1401,24.1034 9.5,18.5C 16.8701,9.15743 26.2034,2.8241 37.5,-0.5 Z"/></g>
<g><path style="opacity:1" fill="#decf49" d="M 40.5,-0.5 C 44.5,-0.5 48.5,-0.5 52.5,-0.5C 54.5,3.5 57.5,6.5 61.5,8.5C 60.1007,9.88972 58.4341,10.8897 56.5,11.5C 52.2489,8.02968 47.5822,5.02968 42.5,2.5C 41.8075,1.48224 41.1408,0.482236 40.5,-0.5 Z"/></g>
<g><path style="opacity:0.997" fill="#f1ed68" d="M 46.5,17.5 C 40.3657,21.4041 34.0323,25.0708 27.5,28.5C 20.4085,24.9836 17.5751,19.3169 19,11.5C 20.918,10.4582 22.7513,9.29152 24.5,8C 34.4968,5.70047 41.8301,8.86714 46.5,17.5 Z"/></g>
<g><path style="opacity:1" fill="#c6a826" d="M 88.5,35.5 C 83.7833,30.1179 79.45,24.4513 75.5,18.5C 77.4346,17.19 79.4346,15.8567 81.5,14.5C 86.987,19.4641 90.987,25.4641 93.5,32.5C 92.3115,34.2623 90.6449,35.2623 88.5,35.5 Z"/></g>
<g><path style="opacity:0.995" fill="#ceb633" d="M 75.5,18.5 C 79.45,24.4513 83.7833,30.1179 88.5,35.5C 86.8816,37.316 84.8816,38.6493 82.5,39.5C 79.2451,34.3978 75.7451,29.3978 72,24.5C 71.1841,23.1772 70.0174,22.5106 68.5,22.5C 70.6626,20.9172 72.9959,19.5839 75.5,18.5 Z"/></g>
<g><path style="opacity:0.985" fill="#d6c23f" d="M 68.5,22.5 C 70.0174,22.5106 71.1841,23.1772 72,24.5C 75.7451,29.3978 79.2451,34.3978 82.5,39.5C 81.4863,40.6737 80.153,41.3404 78.5,41.5C 74.133,37.167 69.9664,32.5004 66,27.5C 65.5172,26.552 65.3505,25.552 65.5,24.5C 66.2905,23.5987 67.2905,22.9321 68.5,22.5 Z"/></g>
<g><path style="opacity:1" fill="#dfd04b" d="M 9.5,18.5 C 11.1401,24.1034 14.4734,28.4367 19.5,31.5C 18.624,32.2508 17.624,32.7508 16.5,33C 16.7284,33.3988 17.0618,33.5654 17.5,33.5C 16.7095,34.4013 15.7095,35.0679 14.5,35.5C 11.0308,32.9277 7.36415,30.5943 3.5,28.5C 5.00025,24.827 7.00025,21.4937 9.5,18.5 Z"/></g>
<g><path style="opacity:1" fill="#decf4b" d="M 65.5,24.5 C 65.3505,25.552 65.5172,26.552 66,27.5C 69.9664,32.5004 74.133,37.167 78.5,41.5C 76.7952,43.1921 74.7952,44.5254 72.5,45.5C 67.8719,39.5365 62.8719,33.8698 57.5,28.5C 59.9384,26.7328 62.605,25.3994 65.5,24.5 Z"/></g>
<g><path style="opacity:0.988" fill="#d2bc35" d="M 3.5,28.5 C 7.36415,30.5943 11.0308,32.9277 14.5,35.5C 9.70148,38.737 4.70148,41.737 -0.5,44.5C -0.5,42.1667 -0.5,39.8333 -0.5,37.5C 0.833333,34.5 2.16667,31.5 3.5,28.5 Z"/></g>
<g><path style="opacity:0.997" fill="#e6dc58" d="M 57.5,28.5 C 62.8719,33.8698 67.8719,39.5365 72.5,45.5C 70.7837,47.0248 68.7837,48.0248 66.5,48.5C 62.6755,43.53 58.8422,38.53 55,33.5C 54.5172,32.552 54.3505,31.552 54.5,30.5C 55.2905,29.5987 56.2905,28.9321 57.5,28.5 Z"/></g>
<g><path style="opacity:1" fill="#eee864" d="M 54.5,30.5 C 54.3505,31.552 54.5172,32.552 55,33.5C 58.8422,38.53 62.6755,43.53 66.5,48.5C 62.8362,51.3346 58.8362,53.668 54.5,55.5C 50.4878,49.5007 46.1545,43.834 41.5,38.5C 45.2951,35.0955 49.6285,32.4288 54.5,30.5 Z"/></g>
<g><path style="opacity:1" fill="#a87601" d="M 17.5,33.5 C 17.8333,33.5 18.1667,33.5 18.5,33.5C 18.5,34.8333 18.5,36.1667 18.5,37.5C 12.2066,40.7652 5.87331,44.0986 -0.5,47.5C -0.5,46.5 -0.5,45.5 -0.5,44.5C 4.70148,41.737 9.70148,38.737 14.5,35.5C 15.7095,35.0679 16.7095,34.4013 17.5,33.5 Z"/></g>
<g><path style="opacity:0.992" fill="#decf4a" d="M 34.5,42.5 C 37.8093,46.8147 41.1426,51.148 44.5,55.5C 45.9397,56.9524 47.6064,57.9524 49.5,58.5C 48.1007,59.8897 46.4341,60.8897 44.5,61.5C 38.4364,57.0921 33.7697,51.4254 30.5,44.5C 31.5137,43.3263 32.847,42.6596 34.5,42.5 Z"/></g>
<g><path style="opacity:1" fill="#ba9110" d="M 18.5,37.5 C 19.4345,38.5676 19.7678,39.901 19.5,41.5C 12.608,44.3944 5.94131,47.7277 -0.5,51.5C -0.5,50.1667 -0.5,48.8333 -0.5,47.5C 5.87331,44.0986 12.2066,40.7652 18.5,37.5 Z"/></g>
<g><path style="opacity:1" fill="#d7c540" d="M 30.5,44.5 C 33.7697,51.4254 38.4364,57.0921 44.5,61.5C 43.1007,62.8897 41.4341,63.8897 39.5,64.5C 37.9256,64.0629 36.7589,63.0629 36,61.5C 35.6667,61.8333 35.3333,62.1667 35,62.5C 32.3517,57.2109 29.1851,52.2109 25.5,47.5C 26.8993,46.1103 28.5659,45.1103 30.5,44.5 Z"/></g>
<g><path style="opacity:1" fill="#cdb022" d="M 19.5,41.5 C 19.5,42.5 19.5,43.5 19.5,44.5C 12.6149,47.3822 5.94828,50.7155 -0.5,54.5C -0.5,53.5 -0.5,52.5 -0.5,51.5C 5.94131,47.7277 12.608,44.3944 19.5,41.5 Z"/></g>
<g><path style="opacity:1" fill="#dfcc33" d="M 19.5,44.5 C 19.5,45.8333 19.5,47.1667 19.5,48.5C 12.9737,51.2649 6.6404,54.2649 0.5,57.5C 0.166667,57.5 -0.166667,57.5 -0.5,57.5C -0.5,56.5 -0.5,55.5 -0.5,54.5C 5.94828,50.7155 12.6149,47.3822 19.5,44.5 Z"/></g>
<g><path style="opacity:1" fill="#e4d954" d="M 41.5,38.5 C 46.1545,43.834 50.4878,49.5007 54.5,55.5C 53.1007,56.8897 51.4341,57.8897 49.5,58.5C 47.6064,57.9524 45.9397,56.9524 44.5,55.5C 41.1426,51.148 37.8093,46.8147 34.5,42.5C 36.3356,40.412 38.6689,39.0787 41.5,38.5 Z"/></g>
<g><path style="opacity:1" fill="#cfb932" d="M 25.5,47.5 C 29.1851,52.2109 32.3517,57.2109 35,62.5C 35.3333,62.1667 35.6667,61.8333 36,61.5C 36.7589,63.0629 37.9256,64.0629 39.5,64.5C 37.3374,66.0828 35.0041,67.4161 32.5,68.5C 31.1779,68.67 30.0113,68.3366 29,67.5C 25.3031,62.3149 21.4698,57.3149 17.5,52.5C 17.8333,51.5 18.5,50.8333 19.5,50.5C 21.5168,49.4706 23.5168,48.4706 25.5,47.5 Z"/></g>
<g><path style="opacity:0.973" fill="#f1ec69" d="M 95.5,49.5 C 95.5,52.1667 95.5,54.8333 95.5,57.5C 92.3582,67.7748 86.6915,76.4415 78.5,83.5C 73.1667,78.8333 68.1667,73.8333 63.5,68.5C 74.131,62.1814 84.7977,55.8481 95.5,49.5 Z"/></g>
<g><path style="opacity:1" fill="#f0e944" d="M 19.5,48.5 C 19.5,49.1667 19.5,49.8333 19.5,50.5C 18.5,50.8333 17.8333,51.5 17.5,52.5C 14.9684,53.5957 12.6351,54.9291 10.5,56.5C 7.33883,57.9131 4.33883,59.5797 1.5,61.5C 0.765886,60.2921 0.432553,58.9587 0.5,57.5C 6.6404,54.2649 12.9737,51.2649 19.5,48.5 Z"/></g>
<g><path style="opacity:1" fill="#c5aa22" d="M 17.5,52.5 C 21.4698,57.3149 25.3031,62.3149 29,67.5C 30.0113,68.3366 31.1779,68.67 32.5,68.5C 31.8333,69.1667 31.1667,69.8333 30.5,70.5C 27.9785,71.0115 25.6451,72.0115 23.5,73.5C 22.8106,72.2264 21.9772,72.2264 21,73.5C 19.4278,70.8101 17.4278,68.4767 15,66.5C 13.5211,63.6954 11.6878,61.1954 9.5,59C 10.999,58.1618 11.3324,57.3285 10.5,56.5C 12.6351,54.9291 14.9684,53.5957 17.5,52.5 Z"/></g>
<g><path style="opacity:1" fill="#b99810" d="M 10.5,56.5 C 11.3324,57.3285 10.999,58.1618 9.5,59C 11.6878,61.1954 13.5211,63.6954 15,66.5C 17.4278,68.4767 19.4278,70.8101 21,73.5C 21.9772,72.2264 22.8106,72.2264 23.5,73.5C 19.7792,75.3535 16.4459,77.6869 13.5,80.5C 7.74113,75.324 3.74113,68.9907 1.5,61.5C 4.33883,59.5797 7.33883,57.9131 10.5,56.5 Z"/></g>
<g><path style="opacity:0.972" fill="#eadf5d" d="M 63.5,68.5 C 68.1667,73.8333 73.1667,78.8333 78.5,83.5C 76.9095,85.6326 74.9095,87.2993 72.5,88.5C 67.5971,82.5961 62.5971,76.9295 57.5,71.5C 59.5168,70.4706 61.5168,69.4706 63.5,68.5 Z"/></g>
<g><path style="opacity:0.949" fill="#e3d352" d="M 57.5,71.5 C 62.5971,76.9295 67.5971,82.5961 72.5,88.5C 70.7837,90.0248 68.7837,91.0248 66.5,91.5C 62.5397,86.3719 58.0397,81.7053 53,77.5C 52.5172,76.552 52.3505,75.552 52.5,74.5C 54.3325,73.7515 55.9991,72.7515 57.5,71.5 Z"/></g>
<g><path style="opacity:1" fill="#efe742" d="M 30.5,70.5 C 30.8333,70.5 31.1667,70.5 31.5,70.5C 31.5,70.8333 31.5,71.1667 31.5,71.5C 25.3315,74.0804 19.6649,77.4137 14.5,81.5C 13.8333,81.5 13.5,81.1667 13.5,80.5C 16.4459,77.6869 19.7792,75.3535 23.5,73.5C 25.6451,72.0115 27.9785,71.0115 30.5,70.5 Z"/></g>
<g><path style="opacity:1" fill="#b28609" d="M 37.5,74.5 C 37.8333,74.5 38.1667,74.5 38.5,74.5C 38.5858,75.4959 38.2524,76.3292 37.5,77C 31.767,79.9025 26.767,83.7358 22.5,88.5C 21.8333,88.5 21.5,88.1667 21.5,87.5C 23.2274,82.9481 26.5608,80.4481 31.5,80C 33.3962,77.932 35.3962,76.0987 37.5,74.5 Z"/></g>
<g><path style="opacity:0.973" fill="#a87601" d="M 38.5,74.5 C 40.6705,76.0862 43.0038,77.4196 45.5,78.5C 45.1667,79.5 44.5,80.1667 43.5,80.5C 41.1667,81.8333 38.8333,83.1667 36.5,84.5C 33.1667,86.5 29.8333,88.5 26.5,90.5C 24.9382,90.2671 23.6049,89.6005 22.5,88.5C 26.767,83.7358 31.767,79.9025 37.5,77C 38.2524,76.3292 38.5858,75.4959 38.5,74.5 Z"/></g>
<g><path style="opacity:1" fill="#e3d537" d="M 31.5,71.5 C 28.777,73.2039 26.4437,75.3705 24.5,78C 21.7522,80.0406 18.7522,81.5406 15.5,82.5C 14.8333,82.5 14.5,82.1667 14.5,81.5C 19.6649,77.4137 25.3315,74.0804 31.5,71.5 Z"/></g>
<g><path style="opacity:1" fill="#d4bb28" d="M 31.5,70.5 C 32.1667,70.8333 32.8333,71.1667 33.5,71.5C 28.484,76.2546 23.484,80.9213 18.5,85.5C 17.1667,84.8333 16.1667,83.8333 15.5,82.5C 18.7522,81.5406 21.7522,80.0406 24.5,78C 26.4437,75.3705 28.777,73.2039 31.5,71.5C 31.5,71.1667 31.5,70.8333 31.5,70.5 Z"/></g>
<g><path style="opacity:0.985" fill="#dbc646" d="M 52.5,74.5 C 52.3505,75.552 52.5172,76.552 53,77.5C 58.0397,81.7053 62.5397,86.3719 66.5,91.5C 64.5739,92.4861 62.5739,93.4861 60.5,94.5C 56.676,90.1757 52.676,86.0091 48.5,82C 46.804,80.7949 45.1373,80.2949 43.5,80.5C 44.5,80.1667 45.1667,79.5 45.5,78.5C 47.8333,77.1667 50.1667,75.8333 52.5,74.5 Z"/></g>
<g><path style="opacity:1" fill="#c29f18" d="M 33.5,71.5 C 34.8717,72.5116 36.205,73.5116 37.5,74.5C 35.3962,76.0987 33.3962,77.932 31.5,80C 26.5608,80.4481 23.2274,82.9481 21.5,87.5C 20.2905,87.0679 19.2905,86.4013 18.5,85.5C 23.484,80.9213 28.484,76.2546 33.5,71.5 Z"/></g>
<g><path style="opacity:1" fill="#d4b93a" d="M 43.5,80.5 C 45.1373,80.2949 46.804,80.7949 48.5,82C 52.676,86.0091 56.676,90.1757 60.5,94.5C 59.209,94.2627 58.209,94.596 57.5,95.5C 53.8333,95.5 50.1667,95.5 46.5,95.5C 43.3908,91.6029 40.0574,87.9362 36.5,84.5C 38.8333,83.1667 41.1667,81.8333 43.5,80.5 Z"/></g>
<g><path style="opacity:0.915" fill="#c8a629" d="M 36.5,84.5 C 40.0574,87.9362 43.3908,91.6029 46.5,95.5C 43.5,95.5 40.5,95.5 37.5,95.5C 33.7245,94.1129 30.0578,92.4463 26.5,90.5C 29.8333,88.5 33.1667,86.5 36.5,84.5 Z"/></g>
</svg>
