<?xml version="1.0" encoding="UTF-8"?>
<!DOCTYPE svg PUBLIC "-//W3C//DTD SVG 1.1//EN" "http://www.w3.org/Graphics/SVG/1.1/DTD/svg11.dtd">
<svg xmlns="http://www.w3.org/2000/svg" version="1.1" width="96px" height="96px" style="shape-rendering:geometricPrecision; text-rendering:geometricPrecision; image-rendering:optimizeQuality; fill-rule:evenodd; clip-rule:evenodd" xmlns:xlink="http://www.w3.org/1999/xlink">
<g><path style="opacity:0.972" fill="#7d7d7d" d="M 37.5,-0.5 C 44.1667,-0.5 50.8333,-0.5 57.5,-0.5C 77.1667,5.16667 89.8333,17.8333 95.5,37.5C 95.5,44.1667 95.5,50.8333 95.5,57.5C 89.8333,77.1667 77.1667,89.8333 57.5,95.5C 50.8333,95.5 44.1667,95.5 37.5,95.5C 17.8333,89.8333 5.16667,77.1667 -0.5,57.5C -0.5,50.8333 -0.5,44.1667 -0.5,37.5C 5.16667,17.8333 17.8333,5.16667 37.5,-0.5 Z"/></g>
<g><path style="opacity:1" fill="#f7f7f7" d="M 70.5,70.5 C 68.8333,70.5 67.1667,70.5 65.5,70.5C 65.8205,65.3054 65.4872,60.3054 64.5,55.5C 61.4281,55.1826 58.4281,55.5159 55.5,56.5C 53.2288,61.3137 51.5621,66.3137 50.5,71.5C 48.5,71.5 46.5,71.5 44.5,71.5C 43.4379,66.3137 41.7712,61.3137 39.5,56.5C 36.5719,55.5159 33.5719,55.1826 30.5,55.5C 29.5128,60.3054 29.1795,65.3054 29.5,70.5C 27.8333,70.5 26.1667,70.5 24.5,70.5C 24.5,65.5 24.5,60.5 24.5,55.5C 22.1667,55.5 19.8333,55.5 17.5,55.5C 17.5,54.5 17.5,53.5 17.5,52.5C 19.8333,52.5 22.1667,52.5 24.5,52.5C 24.5,49.1667 24.5,45.8333 24.5,42.5C 22.1667,42.5 19.8333,42.5 17.5,42.5C 17.5,41.5 17.5,40.5 17.5,39.5C 19.8333,39.5 22.1667,39.5 24.5,39.5C 24.5,34.1667 24.5,28.8333 24.5,23.5C 27.5,23.5 30.5,23.5 33.5,23.5C 34.8657,28.573 36.5324,33.573 38.5,38.5C 44.5,39.8333 50.5,39.8333 56.5,38.5C 58.4676,33.573 60.1343,28.573 61.5,23.5C 64.5,23.5 67.5,23.5 70.5,23.5C 70.5,28.8333 70.5,34.1667 70.5,39.5C 72.8333,39.5 75.1667,39.5 77.5,39.5C 77.5,40.5 77.5,41.5 77.5,42.5C 75.1667,42.5 72.8333,42.5 70.5,42.5C 70.5,45.8333 70.5,49.1667 70.5,52.5C 72.8333,52.5 75.1667,52.5 77.5,52.5C 77.5,53.5 77.5,54.5 77.5,55.5C 75.1667,55.5 72.8333,55.5 70.5,55.5C 70.5,60.5 70.5,65.5 70.5,70.5 Z"/></g>
<g><path style="opacity:1" fill="#6d6d6d" d="M 30.5,33.5 C 32.4233,35.2014 32.7567,37.2014 31.5,39.5C 30.5344,37.604 30.2011,35.604 30.5,33.5 Z"/></g>
<g><path style="opacity:1" fill="#6e6e6e" d="M 63.5,33.5 C 64.7928,35.3635 64.7928,37.3635 63.5,39.5C 62.4808,37.5405 62.4808,35.5405 63.5,33.5 Z"/></g>
<g><path style="opacity:1" fill="#a1a1a1" d="M 54.5,44.5 C 49.8333,43.1667 45.1667,43.1667 40.5,44.5C 39.9569,44.44 39.6236,44.1067 39.5,43.5C 44.8333,42.1667 50.1667,42.1667 55.5,43.5C 55.3764,44.1067 55.0431,44.44 54.5,44.5 Z"/></g>
<g><path style="opacity:1" fill="#797979" d="M 54.5,44.5 C 53.5769,46.767 52.7436,49.1003 52,51.5C 49,52.8333 46,52.8333 43,51.5C 42.2564,49.1003 41.4231,46.767 40.5,44.5C 45.1667,43.1667 49.8333,43.1667 54.5,44.5 Z"/></g>
<g><path style="opacity:1" fill="#c7c7c7" d="M 60.5,43.5 C 61.9187,42.5489 63.5853,42.2155 65.5,42.5C 65.8128,46.0419 65.4794,49.3752 64.5,52.5C 64.5,49.5 64.5,46.5 64.5,43.5C 63.1667,43.5 61.8333,43.5 60.5,43.5 Z"/></g>
<g><path style="opacity:1" fill="#787878" d="M 30.5,42.5 C 32.1439,42.2865 33.6439,42.6198 35,43.5C 36.1449,46.4318 36.9782,49.4318 37.5,52.5C 35.1667,52.5 32.8333,52.5 30.5,52.5C 30.5,49.1667 30.5,45.8333 30.5,42.5 Z"/></g>
<g><path style="opacity:1" fill="#777777" d="M 60.5,43.5 C 61.8333,43.5 63.1667,43.5 64.5,43.5C 64.5,46.5 64.5,49.5 64.5,52.5C 62.1667,52.5 59.8333,52.5 57.5,52.5C 57.9281,49.2154 58.9281,46.2154 60.5,43.5 Z"/></g>
<g><path style="opacity:1" fill="#d2d2d2" d="M 30.5,55.5 C 30.5,60.8333 30.5,66.1667 30.5,71.5C 28.2646,71.7947 26.2646,71.4614 24.5,70.5C 26.1667,70.5 27.8333,70.5 29.5,70.5C 29.1795,65.3054 29.5128,60.3054 30.5,55.5 Z"/></g>
<g><path style="opacity:1" fill="#7d7d7d" d="M 44.5,55.5 C 46.604,55.2011 48.604,55.5344 50.5,56.5C 48.0343,64.2673 46.0343,63.934 44.5,55.5 Z"/></g>
<g><path style="opacity:1" fill="#d2d2d2" d="M 64.5,55.5 C 65.4872,60.3054 65.8205,65.3054 65.5,70.5C 67.1667,70.5 68.8333,70.5 70.5,70.5C 68.7354,71.4614 66.7354,71.7947 64.5,71.5C 64.5,66.1667 64.5,60.8333 64.5,55.5 Z"/></g>
</svg>
