<?xml version="1.0" encoding="UTF-8"?>
<!DOCTYPE svg PUBLIC "-//W3C//DTD SVG 1.1//EN" "http://www.w3.org/Graphics/SVG/1.1/DTD/svg11.dtd">
<svg xmlns="http://www.w3.org/2000/svg" version="1.1" width="96px" height="96px" style="shape-rendering:geometricPrecision; text-rendering:geometricPrecision; image-rendering:optimizeQuality; fill-rule:evenodd; clip-rule:evenodd" xmlns:xlink="http://www.w3.org/1999/xlink">
<g><path style="opacity:0.992" fill="#1acef5" d="M 42.5,-0.5 C 47.5,-0.5 52.5,-0.5 57.5,-0.5C 60.8309,0.61541 64.1642,1.94874 67.5,3.5C 67.5,4.83333 66.8333,5.5 65.5,5.5C 57.0188,3.08373 48.3521,2.08373 39.5,2.5C 38.7611,2.63101 38.0944,2.46434 37.5,2C 39.744,1.95042 41.4107,1.11709 42.5,-0.5 Z"/></g>
<g><path style="opacity:0.667" fill="#0bacfb" d="M 37.5,-0.5 C 39.1667,-0.5 40.8333,-0.5 42.5,-0.5C 41.4107,1.11709 39.744,1.95042 37.5,2C 38.0944,2.46434 38.7611,2.63101 39.5,2.5C 31.7494,4.70501 24.4161,8.03835 17.5,12.5C 18.4749,10.8073 19.8082,9.30734 21.5,8C 21.2716,7.60123 20.9382,7.43456 20.5,7.5C 25.7838,4.0248 31.4505,1.35814 37.5,-0.5 Z"/></g>
<g><path style="opacity:1" fill="#0495fe" d="M 39.5,2.5 C 48.3521,2.08373 57.0188,3.08373 65.5,5.5C 68.5488,7.86266 71.8822,9.86266 75.5,11.5C 77.1667,12.5 78.5,13.8333 79.5,15.5C 76.9174,16.2239 74.2507,17.0572 71.5,18C 72.056,18.3826 72.3893,18.8826 72.5,19.5C 71.3991,20.5983 70.0657,20.765 68.5,20C 59.9218,13.1834 50.2552,11.0167 39.5,13.5C 39.9175,12.7784 40.5842,12.2784 41.5,12C 32.7537,10.6963 25.7537,13.863 20.5,21.5C 19.5,21.8333 18.8333,22.5 18.5,23.5C 14.4516,27.2535 11.1183,31.5869 8.5,36.5C 14.6446,37.4902 20.9779,37.8235 27.5,37.5C 27.6107,38.1174 27.944,38.6174 28.5,39C 21.654,39.1717 14.9874,39.6717 8.5,40.5C 8.83333,41.1667 9.16667,41.8333 9.5,42.5C 9.5,45.1667 9.5,47.8333 9.5,50.5C 9.81175,53.2733 10.9784,55.6066 13,57.5C 13.7891,55.2884 13.6225,53.2884 12.5,51.5C 12.2155,49.5853 12.5489,47.9187 13.5,46.5C 19.2368,52.897 24.5702,59.5637 29.5,66.5C 28.17,69.0942 26.8366,71.7608 25.5,74.5C 21.4887,70.988 17.6553,67.3213 14,63.5C 16.5105,70.3709 21.0105,75.8709 27.5,80C 29.6498,81.5899 31.9832,82.2566 34.5,82C 32.6675,81.2515 31.0009,80.2515 29.5,79C 30,78.8333 30.5,78.6667 31,78.5C 36.1397,80.9883 41.3064,83.3216 46.5,85.5C 46.9377,86.5063 47.6043,86.5063 48.5,85.5C 52.6179,85.4696 56.6179,84.8029 60.5,83.5C 62.153,83.3404 63.4863,82.6737 64.5,81.5C 72.8976,78.1018 78.5643,72.1018 81.5,63.5C 82.871,61.064 83.871,58.3973 84.5,55.5C 85.3138,53.369 85.8138,51.0356 86,48.5C 85.7795,52.2479 87.1129,55.2479 90,57.5C 90.3333,56.5 90.6667,55.5 91,54.5C 91.4643,55.0944 91.631,55.7611 91.5,56.5C 89.8753,67.4196 84.8753,76.4196 76.5,83.5C 71.8288,85.8356 67.1621,88.1689 62.5,90.5C 58.6634,90.9309 54.9968,91.5975 51.5,92.5C 46.9605,92.6782 42.4605,92.3449 38,91.5C 37.1667,91.6667 36.3333,91.8333 35.5,92C 36.5981,92.7697 36.5981,93.603 35.5,94.5C 32.6733,93.8916 30.0067,92.8916 27.5,91.5C 27.9175,90.7784 28.5842,90.2784 29.5,90C 22.5154,86.3472 16.5154,81.5138 11.5,75.5C 8.38907,71.6131 6.05574,67.2798 4.5,62.5C -0.52893,43.2908 3.8044,26.6241 17.5,12.5C 24.4161,8.03835 31.7494,4.70501 39.5,2.5 Z"/></g>
<g><path style="opacity:1" fill="#0da7fc" d="M 67.5,3.5 C 71.0246,4.75889 74.0246,6.75889 76.5,9.5C 76.1667,10.1667 75.8333,10.8333 75.5,11.5C 71.8822,9.86266 68.5488,7.86266 65.5,5.5C 66.8333,5.5 67.5,4.83333 67.5,3.5 Z"/></g>
<g><path style="opacity:0.741" fill="#059efd" d="M 20.5,7.5 C 20.9382,7.43456 21.2716,7.60123 21.5,8C 19.8082,9.30734 18.4749,10.8073 17.5,12.5C 3.8044,26.6241 -0.52893,43.2908 4.5,62.5C 3.83333,63.1667 3.16667,63.8333 2.5,64.5C 1.3485,62.2209 0.348502,59.8876 -0.5,57.5C -0.5,50.8333 -0.5,44.1667 -0.5,37.5C 2.54297,24.7809 9.54297,14.7809 20.5,7.5 Z"/></g>
<g><path style="opacity:1" fill="#1a94fe" d="M 72.5,19.5 C 74.1667,20.5 75.5,21.8333 76.5,23.5C 73.5968,27.6301 70.9301,31.9634 68.5,36.5C 74.3465,37.1666 80.3465,37.8332 86.5,38.5C 84.7086,39.1698 83.0419,39.8365 81.5,40.5C 76.1254,40.1718 70.7921,40.5052 65.5,41.5C 62.4957,50.8457 59.4957,60.1791 56.5,69.5C 55.5,69.1667 54.8333,68.5 54.5,67.5C 56.9048,58.2855 59.9048,49.2855 63.5,40.5C 53.3468,39.5058 43.0135,39.1724 32.5,39.5C 32.2627,40.791 32.596,41.791 33.5,42.5C 34.5664,44.7014 35.233,47.0347 35.5,49.5C 35.5979,51.5529 34.9313,53.2196 33.5,54.5C 31.9337,49.9684 30.2671,45.4684 28.5,41C 21.8417,40.5004 15.175,40.3337 8.5,40.5C 14.9874,39.6717 21.654,39.1717 28.5,39C 27.944,38.6174 27.6107,38.1174 27.5,37.5C 27.6716,36.5084 27.3382,35.8417 26.5,35.5C 24.5,32.5 22.5,29.5 20.5,26.5C 20.5,25.1667 21.1667,24.5 22.5,24.5C 25.1181,28.2907 27.9514,31.9574 31,35.5C 34.8179,30.7148 38.9846,26.2148 43.5,22C 37.1754,21.5005 30.8421,21.3338 24.5,21.5C 28.5364,17.1534 33.5364,14.4867 39.5,13.5C 50.2552,11.0167 59.9218,13.1834 68.5,20C 70.0657,20.765 71.3991,20.5983 72.5,19.5 Z"/></g>
<g><path style="opacity:1" fill="#15c2f7" d="M 39.5,13.5 C 33.5364,14.4867 28.5364,17.1534 24.5,21.5C 23.1667,21.5 21.8333,21.5 20.5,21.5C 25.7537,13.863 32.7537,10.6963 41.5,12C 40.5842,12.2784 39.9175,12.7784 39.5,13.5 Z"/></g>
<g><path style="opacity:1" fill="#1cd0f3" d="M 76.5,9.5 C 79.4274,10.7573 81.7607,12.7573 83.5,15.5C 83.6495,16.552 83.4828,17.552 83,18.5C 81.9609,17.2899 80.7942,16.2899 79.5,15.5C 78.5,13.8333 77.1667,12.5 75.5,11.5C 75.8333,10.8333 76.1667,10.1667 76.5,9.5 Z"/></g>
<g><path style="opacity:1" fill="#08aafe" d="M 79.5,15.5 C 80.7942,16.2899 81.9609,17.2899 83,18.5C 83.4828,17.552 83.6495,16.552 83.5,15.5C 87.4348,19.033 90.1015,23.3664 91.5,28.5C 90.8902,29.391 90.5569,30.391 90.5,31.5C 89.7784,31.0825 89.2784,30.4158 89,29.5C 88.6667,30.8333 88.3333,32.1667 88,33.5C 87.3333,32.1667 86.6667,32.1667 86,33.5C 84.3333,31.1667 82.6667,28.8333 81,26.5C 80.31,25.2617 79.81,25.2617 79.5,26.5C 78.2719,25.6935 77.2719,24.6935 76.5,23.5C 75.5,21.8333 74.1667,20.5 72.5,19.5C 72.3893,18.8826 72.056,18.3826 71.5,18C 74.2507,17.0572 76.9174,16.2239 79.5,15.5 Z"/></g>
<g><path style="opacity:1" fill="#f7fbff" d="M 20.5,21.5 C 21.8333,21.5 23.1667,21.5 24.5,21.5C 30.8421,21.3338 37.1754,21.5005 43.5,22C 38.9846,26.2148 34.8179,30.7148 31,35.5C 27.9514,31.9574 25.1181,28.2907 22.5,24.5C 21.8333,23.5 21.1667,22.5 20.5,21.5 Z"/></g>
<g><path style="opacity:1" fill="#f7fbff" d="M 51.5,22.5 C 58.6769,21.1806 66.0102,21.1806 73.5,22.5C 70.5,26.5 67.5,30.5 64.5,34.5C 60.1465,30.4781 55.8131,26.4781 51.5,22.5 Z"/></g>
<g><path style="opacity:1" fill="#45d0f4" d="M 20.5,21.5 C 21.1667,22.5 21.8333,23.5 22.5,24.5C 21.1667,24.5 20.5,25.1667 20.5,26.5C 19.0937,26.0269 18.427,25.0269 18.5,23.5C 18.8333,22.5 19.5,21.8333 20.5,21.5 Z"/></g>
<g><path style="opacity:1" fill="#fafcff" d="M 60.5,35.5 C 51.6822,36.4933 42.6822,36.8266 33.5,36.5C 38.1629,31.6692 42.6629,26.6692 47,21.5C 51.7309,26.062 56.2309,30.7287 60.5,35.5 Z"/></g>
<g><path style="opacity:1" fill="#fafcff" d="M 18.5,23.5 C 18.427,25.0269 19.0937,26.0269 20.5,26.5C 22.5,29.5 24.5,32.5 26.5,35.5C 20.69,36.4896 14.69,36.8229 8.5,36.5C 11.1183,31.5869 14.4516,27.2535 18.5,23.5 Z"/></g>
<g><path style="opacity:1" fill="#fafcff" d="M 76.5,23.5 C 77.2719,24.6935 78.2719,25.6935 79.5,26.5C 81.6158,29.7889 83.9491,32.9556 86.5,36C 80.5092,36.4995 74.5092,36.6662 68.5,36.5C 70.9301,31.9634 73.5968,27.6301 76.5,23.5 Z"/></g>
<g><path style="opacity:1" fill="#4eaffe" d="M 26.5,35.5 C 27.3382,35.8417 27.6716,36.5084 27.5,37.5C 20.9779,37.8235 14.6446,37.4902 8.5,36.5C 14.69,36.8229 20.69,36.4896 26.5,35.5 Z"/></g>
<g><path style="opacity:1" fill="#79c6ff" d="M 60.5,35.5 C 61.0431,35.56 61.3764,35.8933 61.5,36.5C 52.0082,37.8222 42.6749,37.8222 33.5,36.5C 42.6822,36.8266 51.6822,36.4933 60.5,35.5 Z"/></g>
<g><path style="opacity:1" fill="#32abff" d="M 63.5,40.5 C 53.1107,39.859 43.1107,40.5257 33.5,42.5C 32.596,41.791 32.2627,40.791 32.5,39.5C 43.0135,39.1724 53.3468,39.5058 63.5,40.5 Z"/></g>
<g><path style="opacity:1" fill="#f8fcff" d="M 8.5,40.5 C 15.175,40.3337 21.8417,40.5004 28.5,41C 30.2671,45.4684 31.9337,49.9684 33.5,54.5C 36.5298,62.4179 39.0298,70.4179 41,78.5C 37.6642,73.9981 33.8309,69.9981 29.5,66.5C 24.5702,59.5637 19.2368,52.897 13.5,46.5C 12.5,44.8333 11.1667,43.5 9.5,42.5C 9.16667,41.8333 8.83333,41.1667 8.5,40.5 Z"/></g>
<g><path style="opacity:1" fill="#fdfeff" d="M 63.5,40.5 C 59.9048,49.2855 56.9048,58.2855 54.5,67.5C 52.0649,71.7994 50.3982,76.466 49.5,81.5C 48.5655,82.5676 48.2322,83.901 48.5,85.5C 47.6043,86.5063 46.9377,86.5063 46.5,85.5C 43.4341,73.2159 39.7674,61.2159 35.5,49.5C 35.233,47.0347 34.5664,44.7014 33.5,42.5C 43.1107,40.5257 53.1107,39.859 63.5,40.5 Z"/></g>
<g><path style="opacity:1" fill="#f6fbff" d="M 81.5,40.5 C 83.1992,40.3398 84.8659,40.5065 86.5,41C 75.6667,53.8333 64.8333,66.6667 54,79.5C 54.4943,76.1642 55.3277,72.8309 56.5,69.5C 59.4957,60.1791 62.4957,50.8457 65.5,41.5C 70.7921,40.5052 76.1254,40.1718 81.5,40.5 Z"/></g>
<g><path style="opacity:1" fill="#1accf4" d="M 91.5,28.5 C 93.2243,31.3448 94.5577,34.3448 95.5,37.5C 95.5,40.1667 95.5,42.8333 95.5,45.5C 94.7784,45.9175 94.2784,46.5842 94,47.5C 93.79,45.9419 93.29,44.6085 92.5,43.5C 92.6684,39.3425 92.0017,35.3425 90.5,31.5C 90.5569,30.391 90.8902,29.391 91.5,28.5 Z"/></g>
<g><path style="opacity:1" fill="#28d1f4" d="M 9.5,42.5 C 11.1667,43.5 12.5,44.8333 13.5,46.5C 12.5489,47.9187 12.2155,49.5853 12.5,51.5C 12.5654,51.9382 12.3988,52.2716 12,52.5C 11.2917,51.6195 10.4584,50.9528 9.5,50.5C 9.5,47.8333 9.5,45.1667 9.5,42.5 Z"/></g>
<g><path style="opacity:1" fill="#11b7f8" d="M 9.5,50.5 C 10.4584,50.9528 11.2917,51.6195 12,52.5C 12.3988,52.2716 12.5654,51.9382 12.5,51.5C 13.6225,53.2884 13.7891,55.2884 13,57.5C 10.9784,55.6066 9.81175,53.2733 9.5,50.5 Z"/></g>
<g><path style="opacity:1" fill="#12bcf7" d="M 84.5,55.5 C 83.871,58.3973 82.871,61.064 81.5,63.5C 81.1583,62.6618 80.4916,62.3284 79.5,62.5C 80.9863,57.5556 82.3197,52.5556 83.5,47.5C 84.48,50.0865 84.8134,52.7531 84.5,55.5 Z"/></g>
<g><path style="opacity:1" fill="#179ffe" d="M 90.5,31.5 C 92.0017,35.3425 92.6684,39.3425 92.5,43.5C 92.8182,48.0323 92.4849,52.3656 91.5,56.5C 91.631,55.7611 91.4643,55.0944 91,54.5C 90.6667,55.5 90.3333,56.5 90,57.5C 87.1129,55.2479 85.7795,52.2479 86,48.5C 85.8138,51.0356 85.3138,53.369 84.5,55.5C 84.8134,52.7531 84.48,50.0865 83.5,47.5C 82.3197,52.5556 80.9863,57.5556 79.5,62.5C 76.0934,68.7432 71.4267,73.9099 65.5,78C 65.8333,78.3333 66.1667,78.6667 66.5,79C 65.6195,79.7083 64.9528,80.5416 64.5,81.5C 63.4863,82.6737 62.153,83.3404 60.5,83.5C 60.0825,82.7784 59.4158,82.2784 58.5,82C 55.204,81.6748 52.204,81.5081 49.5,81.5C 50.3982,76.466 52.0649,71.7994 54.5,67.5C 54.8333,68.5 55.5,69.1667 56.5,69.5C 55.3277,72.8309 54.4943,76.1642 54,79.5C 64.8333,66.6667 75.6667,53.8333 86.5,41C 84.8659,40.5065 83.1992,40.3398 81.5,40.5C 83.0419,39.8365 84.7086,39.1698 86.5,38.5C 80.3465,37.8332 74.3465,37.1666 68.5,36.5C 74.5092,36.6662 80.5092,36.4995 86.5,36C 83.9491,32.9556 81.6158,29.7889 79.5,26.5C 79.81,25.2617 80.31,25.2617 81,26.5C 82.6667,28.8333 84.3333,31.1667 86,33.5C 86.6667,32.1667 87.3333,32.1667 88,33.5C 88.3333,32.1667 88.6667,30.8333 89,29.5C 89.2784,30.4158 89.7784,31.0825 90.5,31.5 Z"/></g>
<g><path style="opacity:1" fill="#1caafe" d="M 35.5,49.5 C 39.7674,61.2159 43.4341,73.2159 46.5,85.5C 41.3064,83.3216 36.1397,80.9883 31,78.5C 30.5,78.6667 30,78.8333 29.5,79C 31.0009,80.2515 32.6675,81.2515 34.5,82C 31.9832,82.2566 29.6498,81.5899 27.5,80C 21.0105,75.8709 16.5105,70.3709 14,63.5C 17.6553,67.3213 21.4887,70.988 25.5,74.5C 26.8366,71.7608 28.17,69.0942 29.5,66.5C 33.8309,69.9981 37.6642,73.9981 41,78.5C 39.0298,70.4179 36.5298,62.4179 33.5,54.5C 34.9313,53.2196 35.5979,51.5529 35.5,49.5 Z"/></g>
<g><path style="opacity:0.682" fill="#11b9f8" d="M 4.5,62.5 C 6.05574,67.2798 8.38907,71.6131 11.5,75.5C 10.9569,75.56 10.6236,75.8933 10.5,76.5C 11.6477,78.1487 12.981,79.6487 14.5,81C 14.2716,81.3988 13.9382,81.5654 13.5,81.5C 8.08034,77.0005 4.41368,71.3339 2.5,64.5C 3.16667,63.8333 3.83333,63.1667 4.5,62.5 Z"/></g>
<g><path style="opacity:1" fill="#1ed1f5" d="M 79.5,62.5 C 80.4916,62.3284 81.1583,62.6618 81.5,63.5C 78.5643,72.1018 72.8976,78.1018 64.5,81.5C 64.9528,80.5416 65.6195,79.7083 66.5,79C 66.1667,78.6667 65.8333,78.3333 65.5,78C 71.4267,73.9099 76.0934,68.7432 79.5,62.5 Z"/></g>
<g><path style="opacity:1" fill="#0cacfa" d="M 92.5,43.5 C 93.29,44.6085 93.79,45.9419 94,47.5C 94.2784,46.5842 94.7784,45.9175 95.5,45.5C 95.5,49.5 95.5,53.5 95.5,57.5C 92.1148,70.5646 84.7814,80.898 73.5,88.5C 74.075,86.5887 75.075,84.922 76.5,83.5C 84.8753,76.4196 89.8753,67.4196 91.5,56.5C 92.4849,52.3656 92.8182,48.0323 92.5,43.5 Z"/></g>
<g><path style="opacity:1" fill="#1bd1f3" d="M 11.5,75.5 C 16.5154,81.5138 22.5154,86.3472 29.5,90C 28.5842,90.2784 27.9175,90.7784 27.5,91.5C 21.9927,89.3234 17.3261,85.9901 13.5,81.5C 13.9382,81.5654 14.2716,81.3988 14.5,81C 12.981,79.6487 11.6477,78.1487 10.5,76.5C 10.6236,75.8933 10.9569,75.56 11.5,75.5 Z"/></g>
<g><path style="opacity:0.996" fill="#20c8f5" d="M 49.5,81.5 C 52.204,81.5081 55.204,81.6748 58.5,82C 59.4158,82.2784 60.0825,82.7784 60.5,83.5C 56.6179,84.8029 52.6179,85.4696 48.5,85.5C 48.2322,83.901 48.5655,82.5676 49.5,81.5 Z"/></g>
<g><path style="opacity:0.941" fill="#1dd3f3" d="M 76.5,83.5 C 75.075,84.922 74.075,86.5887 73.5,88.5C 70.1255,90.7391 66.4588,92.4058 62.5,93.5C 62.5,92.5 62.5,91.5 62.5,90.5C 67.1621,88.1689 71.8288,85.8356 76.5,83.5 Z"/></g>
<g><path style="opacity:1" fill="#0495fd" d="M 52.5,93.5 C 54.6977,93.4088 55.0311,94.0755 53.5,95.5C 52.1667,95.5 50.8333,95.5 49.5,95.5C 49.9731,94.0937 50.9731,93.427 52.5,93.5 Z"/></g>
<g><path style="opacity:0.561" fill="#18c8f7" d="M 51.5,92.5 C 52.1667,92.5 52.5,92.8333 52.5,93.5C 50.9731,93.427 49.9731,94.0937 49.5,95.5C 45.5,95.5 41.5,95.5 37.5,95.5C 37.1583,94.6618 36.4916,94.3284 35.5,94.5C 36.5981,93.603 36.5981,92.7697 35.5,92C 36.3333,91.8333 37.1667,91.6667 38,91.5C 42.4605,92.3449 46.9605,92.6782 51.5,92.5 Z"/></g>
<g><path style="opacity:0.106" fill="#0eb4fa" d="M 62.5,90.5 C 62.5,91.5 62.5,92.5 62.5,93.5C 60.6943,94.0241 59.0276,94.6908 57.5,95.5C 56.1667,95.5 54.8333,95.5 53.5,95.5C 55.0311,94.0755 54.6977,93.4088 52.5,93.5C 52.5,92.8333 52.1667,92.5 51.5,92.5C 54.9968,91.5975 58.6634,90.9309 62.5,90.5 Z"/></g>
</svg>
