<?xml version="1.0" encoding="UTF-8"?>
<!DOCTYPE svg PUBLIC "-//W3C//DTD SVG 1.1//EN" "http://www.w3.org/Graphics/SVG/1.1/DTD/svg11.dtd">
<svg xmlns="http://www.w3.org/2000/svg" version="1.1" width="96px" height="96px" style="shape-rendering:geometricPrecision; text-rendering:geometricPrecision; image-rendering:optimizeQuality; fill-rule:evenodd; clip-rule:evenodd" xmlns:xlink="http://www.w3.org/1999/xlink">
<g><path style="opacity:0.997" fill="#221b48" d="M 38.5,-0.5 C 44.5,-0.5 50.5,-0.5 56.5,-0.5C 76.76,4.76047 89.76,17.4271 95.5,37.5C 95.5,44.1667 95.5,50.8333 95.5,57.5C 89.76,77.5729 76.76,90.2395 56.5,95.5C 50.5,95.5 44.5,95.5 38.5,95.5C 18.24,90.2395 5.24002,77.5729 -0.5,57.5C -0.5,50.8333 -0.5,44.1667 -0.5,37.5C 5.24002,17.4271 18.24,4.76047 38.5,-0.5 Z"/></g>
<g><path style="opacity:1" fill="#9d97b6" d="M 22.5,19.5 C 22.5,20.8333 21.8333,21.5 20.5,21.5C 20.5,20.1667 21.1667,19.5 22.5,19.5 Z"/></g>
<g><path style="opacity:1" fill="#9a99c0" d="M 20.5,21.5 C 20.5,23.1667 20.5,24.8333 20.5,26.5C 19.3509,26.2089 18.6842,25.3756 18.5,24C 18.6842,22.6244 19.3509,21.7911 20.5,21.5 Z"/></g>
<g><path style="opacity:1" fill="#c8913d" d="M 22.5,19.5 C 24.1667,19.5 25.8333,19.5 27.5,19.5C 27.5,21.8333 27.5,24.1667 27.5,26.5C 25.1667,26.5 22.8333,26.5 20.5,26.5C 20.5,24.8333 20.5,23.1667 20.5,21.5C 21.8333,21.5 22.5,20.8333 22.5,19.5 Z"/></g>
<g><path style="opacity:1" fill="#cbbe98" d="M 24.5,21.5 C 25.2389,21.369 25.9056,21.5357 26.5,22C 25.3816,23.0736 24.3816,24.2402 23.5,25.5C 23.1667,25 22.8333,24.5 22.5,24C 23.0556,22.9889 23.7222,22.1556 24.5,21.5 Z"/></g>
<g><path style="opacity:1" fill="#8c83a1" d="M 31.5,21.5 C 32.5832,21.5394 33.5832,21.8728 34.5,22.5C 35.2733,24.813 35.9399,27.1463 36.5,29.5C 39.2107,30.039 41.3774,31.3723 43,33.5C 43.2321,32.2625 43.7321,31.2625 44.5,30.5C 44.4326,31.9587 44.7659,33.2921 45.5,34.5C 44.2584,36.3888 44.2584,38.3888 45.5,40.5C 43.4265,39.7005 41.7598,38.3671 40.5,36.5C 41.5075,34.732 40.8408,33.3987 38.5,32.5C 37.8933,32.6236 37.56,32.9569 37.5,33.5C 36.8501,33.1961 36.1835,32.8627 35.5,32.5C 34.4123,28.6875 33.079,25.0208 31.5,21.5 Z"/></g>
<g><path style="opacity:1" fill="#5b5a9a" d="M 31.5,21.5 C 33.079,25.0208 34.4123,28.6875 35.5,32.5C 36.1835,32.8627 36.8501,33.1961 37.5,33.5C 38.5,34.5 39.5,35.5 40.5,36.5C 41.7598,38.3671 43.4265,39.7005 45.5,40.5C 47.5,41.1667 48.8333,42.5 49.5,44.5C 49.427,46.0269 50.0937,47.0269 51.5,47.5C 52.8726,49.2065 54.5393,50.5398 56.5,51.5C 56.5,53.1667 56.5,54.8333 56.5,56.5C 53.0185,55.3575 51.0185,53.0241 50.5,49.5C 49.5,49.5 48.5,49.5 47.5,49.5C 44.146,46.1625 40.8127,42.8292 37.5,39.5C 36.5,38.1667 35.5,36.8333 34.5,35.5C 32.9611,34.2329 31.2944,33.2329 29.5,32.5C 28.0484,31.6981 26.3817,31.1981 24.5,31C 26.9045,30.8045 28.5711,29.6378 29.5,27.5C 28.6518,25.5914 28.3184,23.5914 28.5,21.5C 29.5,21.5 30.5,21.5 31.5,21.5 Z"/></g>
<g><path style="opacity:1" fill="#7e77a0" d="M 31.5,21.5 C 30.5,21.5 29.5,21.5 28.5,21.5C 28.3184,23.5914 28.6518,25.5914 29.5,27.5C 28.5711,29.6378 26.9045,30.8045 24.5,31C 26.3817,31.1981 28.0484,31.6981 29.5,32.5C 28.5,32.5 27.5,32.5 26.5,32.5C 26.5,33.5 26.5,34.5 26.5,35.5C 24.7465,34.0753 23.0799,32.4086 21.5,30.5C 20.5713,29.3112 20.238,27.9778 20.5,26.5C 22.8333,26.5 25.1667,26.5 27.5,26.5C 27.5,24.1667 27.5,21.8333 27.5,19.5C 25.8333,19.5 24.1667,19.5 22.5,19.5C 22.9704,18.3065 23.9704,17.6399 25.5,17.5C 28.213,17.9747 30.213,19.308 31.5,21.5 Z"/></g>
<g><path style="opacity:1" fill="#cba966" d="M 45.5,34.5 C 44.7659,33.2921 44.4326,31.9587 44.5,30.5C 48.5161,24.9782 51.8494,25.4782 54.5,32C 53,34.1667 51.1667,36 49,37.5C 47.6362,36.6293 46.4695,35.6293 45.5,34.5 Z"/></g>
<g><path style="opacity:1" fill="#b5904e" d="M 37.5,33.5 C 37.56,32.9569 37.8933,32.6236 38.5,32.5C 40.8408,33.3987 41.5075,34.732 40.5,36.5C 39.5,35.5 38.5,34.5 37.5,33.5 Z"/></g>
<g><path style="opacity:1" fill="#b08b50" d="M 29.5,32.5 C 31.2944,33.2329 32.9611,34.2329 34.5,35.5C 34.631,36.2389 34.4643,36.9056 34,37.5C 31.5644,36.6453 29.0644,35.9787 26.5,35.5C 26.5,34.5 26.5,33.5 26.5,32.5C 27.5,32.5 28.5,32.5 29.5,32.5 Z"/></g>
<g><path style="opacity:1" fill="#978aa2" d="M 26.5,35.5 C 29.0644,35.9787 31.5644,36.6453 34,37.5C 34.4643,36.9056 34.631,36.2389 34.5,35.5C 35.5,36.8333 36.5,38.1667 37.5,39.5C 37.3379,41.5273 37.5045,43.5273 38,45.5C 39.4813,46.4709 40.3146,47.8042 40.5,49.5C 35.5883,48.0648 33.5883,44.7314 34.5,39.5C 32.076,39.8076 29.7427,39.4742 27.5,38.5C 26.8728,37.5832 26.5394,36.5832 26.5,35.5 Z"/></g>
<g><path style="opacity:1" fill="#bd934c" d="M 37.5,39.5 C 40.8127,42.8292 44.146,46.1625 47.5,49.5C 45.1667,49.5 42.8333,49.5 40.5,49.5C 40.3146,47.8042 39.4813,46.4709 38,45.5C 37.5045,43.5273 37.3379,41.5273 37.5,39.5 Z"/></g>
<g><path style="opacity:1" fill="#9f96af" d="M 49.5,44.5 C 52.5719,44.1826 55.5719,44.5159 58.5,45.5C 60.2882,46.2826 61.2882,47.6159 61.5,49.5C 60.8333,49.5 60.1667,49.5 59.5,49.5C 57.3846,46.4828 54.718,45.8161 51.5,47.5C 50.0937,47.0269 49.427,46.0269 49.5,44.5 Z"/></g>
<g><path style="opacity:1" fill="#c9a968" d="M 24.5,42.5 C 25.9778,42.238 27.3112,42.5713 28.5,43.5C 29.2974,45.1315 30.2974,46.6315 31.5,48C 30,50.1667 28.1667,52 26,53.5C 23.8333,52 22,50.1667 20.5,48C 22.0826,46.2654 23.4159,44.4321 24.5,42.5 Z"/></g>
<g><path style="opacity:1" fill="#bc924b" d="M 51.5,47.5 C 54.718,45.8161 57.3846,46.4828 59.5,49.5C 59.9366,54.3614 59.4366,59.0281 58,63.5C 57.8238,59.3123 57.3238,55.3123 56.5,51.5C 54.5393,50.5398 52.8726,49.2065 51.5,47.5 Z"/></g>
<g><path style="opacity:1" fill="#a17c60" d="M 40.5,49.5 C 42.8333,49.5 45.1667,49.5 47.5,49.5C 48.5,49.5 49.5,49.5 50.5,49.5C 48.3647,51.369 45.6981,52.0356 42.5,51.5C 41.1667,51.5 40.5,50.8333 40.5,49.5 Z"/></g>
<g><path style="opacity:1" fill="#8c88ac" d="M 50.5,49.5 C 51.0185,53.0241 53.0185,55.3575 56.5,56.5C 56.5,59.1667 56.5,61.8333 56.5,64.5C 54.9385,62.6283 53.9385,60.2949 53.5,57.5C 52.5,56.5 51.5,55.5 50.5,54.5C 47.3837,54.0799 44.7171,53.0799 42.5,51.5C 45.6981,52.0356 48.3647,51.369 50.5,49.5 Z"/></g>
<g><path style="opacity:1" fill="#c8a766" d="M 43.5,58.5 C 51.4823,60.6065 52.3156,64.2732 46,69.5C 43.6365,67.9705 41.8032,65.9705 40.5,63.5C 41.8397,62.0104 42.8397,60.3437 43.5,58.5 Z"/></g>
<g><path style="opacity:1" fill="#7b77a8" d="M 61.5,49.5 C 63.0935,52.0609 64.0935,55.0609 64.5,58.5C 67.2167,60.2977 69.2167,62.6311 70.5,65.5C 68.4184,65.3757 66.9184,64.3757 66,62.5C 64.9614,63.2438 64.4614,64.2438 64.5,65.5C 63.8485,64.9094 63.1818,64.2427 62.5,63.5C 61.5067,58.8804 61.1734,54.2137 61.5,49.5 Z"/></g>
<g><path style="opacity:1" fill="#9792b4" d="M 56.5,64.5 C 58.8477,64.5923 60.5144,65.5923 61.5,67.5C 59.0107,67.7593 57.344,66.7593 56.5,64.5 Z"/></g>
<g><path style="opacity:1" fill="#a87b4f" d="M 59.5,49.5 C 60.1667,49.5 60.8333,49.5 61.5,49.5C 61.1734,54.2137 61.5067,58.8804 62.5,63.5C 63.1818,64.2427 63.8485,64.9094 64.5,65.5C 65.1667,66.1667 65.8333,66.8333 66.5,67.5C 65.0011,68.494 63.3344,68.494 61.5,67.5C 60.5144,65.5923 58.8477,64.5923 56.5,64.5C 56.5,61.8333 56.5,59.1667 56.5,56.5C 56.5,54.8333 56.5,53.1667 56.5,51.5C 57.3238,55.3123 57.8238,59.3123 58,63.5C 59.4366,59.0281 59.9366,54.3614 59.5,49.5 Z"/></g>
<g><path style="opacity:1" fill="#9387a0" d="M 61.5,67.5 C 63.3344,68.494 65.0011,68.494 66.5,67.5C 67.8696,69.1722 69.2029,70.8388 70.5,72.5C 66.4557,72.4323 63.4557,70.7656 61.5,67.5 Z"/></g>
<g><path style="opacity:1" fill="#4c4c92" d="M 70.5,65.5 C 71.8333,65.5 72.5,66.1667 72.5,67.5C 73.038,69.1172 73.3713,70.7839 73.5,72.5C 72.5,72.5 71.5,72.5 70.5,72.5C 69.2029,70.8388 67.8696,69.1722 66.5,67.5C 65.8333,66.8333 65.1667,66.1667 64.5,65.5C 64.4614,64.2438 64.9614,63.2438 66,62.5C 66.9184,64.3757 68.4184,65.3757 70.5,65.5 Z"/></g>
<g><path style="opacity:1" fill="#8c89b1" d="M 72.5,67.5 C 77.7676,69.7562 77.7676,72.0896 72.5,74.5C 71.2867,74.2528 70.62,73.5862 70.5,72.5C 71.5,72.5 72.5,72.5 73.5,72.5C 73.3713,70.7839 73.038,69.1172 72.5,67.5 Z"/></g>
</svg>
