<?xml version="1.0" encoding="UTF-8"?>
<!DOCTYPE svg PUBLIC "-//W3C//DTD SVG 1.1//EN" "http://www.w3.org/Graphics/SVG/1.1/DTD/svg11.dtd">
<svg xmlns="http://www.w3.org/2000/svg" version="1.1" width="96px" height="96px" style="shape-rendering:geometricPrecision; text-rendering:geometricPrecision; image-rendering:optimizeQuality; fill-rule:evenodd; clip-rule:evenodd" xmlns:xlink="http://www.w3.org/1999/xlink">
<g><path style="opacity:0.948" fill="#0079ff" d="M 43.5,0.5 C 46.1873,0.33591 48.854,0.502577 51.5,1C 62.3367,7.58604 73.3367,13.9194 84.5,20C 86.3783,21.5429 87.8783,23.3762 89,25.5C 89.9675,40.9261 89.6342,56.2594 88,71.5C 76.2517,79.6268 64.085,87.1268 51.5,94C 48.8333,94.6667 46.1667,94.6667 43.5,94C 32.6633,87.414 21.6633,81.0806 10.5,75C 8.62173,73.4571 7.12173,71.6238 6,69.5C 5.03247,54.0739 5.3658,38.7406 7,23.5C 8.16667,22.3333 9.33333,21.1667 10.5,20C 21.8929,13.9777 32.8929,7.47768 43.5,0.5 Z"/></g>
<g><path style="opacity:1" fill="#028cff" d="M 78.5,63.5 C 78.6602,61.8008 78.4935,60.1341 78,58.5C 75.1547,53.4727 72.3214,48.4727 69.5,43.5C 70.5821,41.1768 70.4154,38.8435 69,36.5C 64.059,28.1205 56.8923,24.1205 47.5,24.5C 46.1667,24.5 44.8333,24.5 43.5,24.5C 31.6251,27.0437 24.9584,34.3771 23.5,46.5C 20.0715,51.3567 17.7382,56.6901 16.5,62.5C 9.72184,43.4447 14.7218,28.278 31.5,17C 49.2686,9.92568 64.1019,13.759 76,28.5C 82.3328,39.826 83.1662,51.4927 78.5,63.5 Z"/></g>
<g><path style="opacity:1" fill="#0d9cff" d="M 69.5,43.5 C 67.8739,41.7568 65.8739,41.2568 63.5,42C 62.9415,42.7247 62.6082,43.5581 62.5,44.5C 64.9075,49.6489 67.5742,54.6489 70.5,59.5C 69.8333,60.5 69.1667,61.5 68.5,62.5C 67.742,56.9838 65.4086,52.3172 61.5,48.5C 58.3375,41.5044 54.6708,34.8377 50.5,28.5C 49.853,26.8595 48.853,25.5261 47.5,24.5C 56.8923,24.1205 64.059,28.1205 69,36.5C 70.4154,38.8435 70.5821,41.1768 69.5,43.5 Z"/></g>
<g><path style="opacity:1" fill="#0d9cff" d="M 43.5,24.5 C 40.0929,29.6406 36.9263,34.9739 34,40.5C 33.3333,42.1667 33.3333,43.8333 34,45.5C 37.4553,52.2471 41.2886,58.7471 45.5,65C 51.1569,65.4994 56.8236,65.6661 62.5,65.5C 52.5,73.5 42.5,73.5 32.5,65.5C 37.3512,66.1319 39.8512,64.1319 40,59.5C 37.2097,54.0828 34.043,48.9161 30.5,44C 27.3411,42.9164 25.0078,43.7498 23.5,46.5C 24.9584,34.3771 31.6251,27.0437 43.5,24.5 Z"/></g>
<g><path style="opacity:1" fill="#afdfff" d="M 43.5,24.5 C 44.8333,24.5 46.1667,24.5 47.5,24.5C 48.853,25.5261 49.853,26.8595 50.5,28.5C 50.6068,30.3786 50.1068,30.7119 49,29.5C 42.7518,33.0899 38.7518,38.4232 37,45.5C 36.3457,44.3044 35.8457,44.3044 35.5,45.5C 38.7069,51.4147 42.0402,57.2481 45.5,63C 52.4921,63.4996 59.4921,63.6663 66.5,63.5C 66.6621,61.4727 66.4955,59.4727 66,57.5C 63.9617,54.7568 62.4617,51.7568 61.5,48.5C 65.4086,52.3172 67.742,56.9838 68.5,62.5C 67.3126,64.9754 65.3126,65.9754 62.5,65.5C 56.8236,65.6661 51.1569,65.4994 45.5,65C 41.2886,58.7471 37.4553,52.2471 34,45.5C 33.3333,43.8333 33.3333,42.1667 34,40.5C 36.9263,34.9739 40.0929,29.6406 43.5,24.5 Z"/></g>
<g><path style="opacity:1" fill="#a3dbff" d="M 50.5,28.5 C 54.6708,34.8377 58.3375,41.5044 61.5,48.5C 62.4617,51.7568 63.9617,54.7568 66,57.5C 66.4955,59.4727 66.6621,61.4727 66.5,63.5C 59.4921,63.6663 52.4921,63.4996 45.5,63C 42.0402,57.2481 38.7069,51.4147 35.5,45.5C 35.8457,44.3044 36.3457,44.3044 37,45.5C 38.7518,38.4232 42.7518,33.0899 49,29.5C 50.1068,30.7119 50.6068,30.3786 50.5,28.5 Z"/></g>
<g><path style="opacity:1" fill="#b3dfff" d="M 32.5,65.5 C 28.1667,65.5 23.8333,65.5 19.5,65.5C 18.1667,64.8333 17.1667,63.8333 16.5,62.5C 17.7382,56.6901 20.0715,51.3567 23.5,46.5C 25.0078,43.7498 27.3411,42.9164 30.5,44C 34.043,48.9161 37.2097,54.0828 40,59.5C 39.8512,64.1319 37.3512,66.1319 32.5,65.5 Z"/></g>
<g><path style="opacity:1" fill="#a6d9ff" d="M 27.5,50.5 C 28.5832,50.5394 29.5832,50.8728 30.5,51.5C 32.522,54.3557 35.022,56.689 38,58.5C 38.7203,60.1124 38.5536,61.6124 37.5,63C 30.9184,63.81 24.4184,63.6433 18,62.5C 18.2671,58.2921 19.9338,54.6254 23,51.5C 24.7673,53.9062 26.2673,53.5729 27.5,50.5 Z"/></g>
<g><path style="opacity:1" fill="#b3ddff" d="M 69.5,43.5 C 72.3214,48.4727 75.1547,53.4727 78,58.5C 78.4935,60.1341 78.6602,61.8008 78.5,63.5C 78.0269,64.9063 77.0269,65.573 75.5,65.5C 73.1097,64.1092 71.4431,62.1092 70.5,59.5C 67.5742,54.6489 64.9075,49.6489 62.5,44.5C 62.6082,43.5581 62.9415,42.7247 63.5,42C 65.8739,41.2568 67.8739,41.7568 69.5,43.5 Z"/></g>
<g><path style="opacity:1" fill="#018bff" d="M 70.5,59.5 C 71.4431,62.1092 73.1097,64.1092 75.5,65.5C 73.7983,70.0407 70.7983,73.5407 66.5,76C 49.648,85.0273 34.4814,82.8606 21,69.5C 20.2086,68.255 19.7086,66.9217 19.5,65.5C 23.8333,65.5 28.1667,65.5 32.5,65.5C 42.5,73.5 52.5,73.5 62.5,65.5C 65.3126,65.9754 67.3126,64.9754 68.5,62.5C 69.1667,61.5 69.8333,60.5 70.5,59.5 Z"/></g>
</svg>
