<?xml version="1.0" encoding="UTF-8"?>
<!DOCTYPE svg PUBLIC "-//W3C//DTD SVG 1.1//EN" "http://www.w3.org/Graphics/SVG/1.1/DTD/svg11.dtd">
<svg xmlns="http://www.w3.org/2000/svg" version="1.1" width="96px" height="96px" style="shape-rendering:geometricPrecision; text-rendering:geometricPrecision; image-rendering:optimizeQuality; fill-rule:evenodd; clip-rule:evenodd" xmlns:xlink="http://www.w3.org/1999/xlink">
<g><path style="opacity:0.985" fill="#fe413e" d="M 51.5,9.5 C 50.5,9.5 49.5,9.5 48.5,9.5C 48.3433,10.8734 48.51,12.2068 49,13.5C 52,16.1667 55,18.8333 58,21.5C 59.0086,23.0249 59.5086,24.6916 59.5,26.5C 55.1778,22.3256 50.8445,18.4923 46.5,15C 34.5296,27.9711 22.1963,40.6377 9.5,53C 17.8333,53.6667 26.1667,53.6667 34.5,53C 36.158,52.2747 36.658,51.108 36,49.5C 33.595,48.7256 31.095,48.2256 28.5,48C 26.6751,46.5341 26.1751,44.7008 27,42.5C 32.5,37 38,31.5 43.5,26C 48.8226,24.3107 52.8226,25.8107 55.5,30.5C 54.8826,30.6107 54.3826,30.944 54,31.5C 52.6218,29.7866 50.9552,28.4533 49,27.5C 48.8333,28 48.6667,28.5 48.5,29C 50.8193,31.989 53.1527,34.989 55.5,38C 55.2716,38.3988 54.9382,38.5654 54.5,38.5C 52.1862,36.5227 49.8528,34.5227 47.5,32.5C 44.5157,34.9836 41.6824,37.6503 39,40.5C 41.3447,43.3837 42.8447,46.8837 43.5,51C 43.4349,55.735 41.1015,58.735 36.5,60C 26.8333,60.6667 17.1667,60.6667 7.5,60C 2.56561,57.3351 1.39894,53.5018 4,48.5C 16.4705,35.0289 29.3038,21.8622 42.5,9C 45.8132,6.85942 48.8132,7.02609 51.5,9.5 Z"/></g>
<g><path style="opacity:0.987" fill="#fe413e" d="M 51.5,9.5 C 52.2389,9.36899 52.9056,9.53566 53.5,10C 65.6371,23.1377 78.1371,35.9711 91,48.5C 93.2583,53.3908 92.0917,57.2241 87.5,60C 77.5,60.6667 67.5,60.6667 57.5,60C 51.9752,57.0812 50.1419,52.5812 52,46.5C 53.0414,44.4148 54.5414,42.7481 56.5,41.5C 55.8075,40.4822 55.1408,39.4822 54.5,38.5C 54.9382,38.5654 55.2716,38.3988 55.5,38C 53.1527,34.989 50.8193,31.989 48.5,29C 48.6667,28.5 48.8333,28 49,27.5C 50.9552,28.4533 52.6218,29.7866 54,31.5C 54.3826,30.944 54.8826,30.6107 55.5,30.5C 60.5481,34.5464 64.8814,39.2131 68.5,44.5C 68.4712,46.0293 67.8045,47.196 66.5,48C 64.1667,48.3333 61.8333,48.6667 59.5,49C 58.1667,50.3333 58.1667,51.6667 59.5,53C 67.8533,53.8317 76.1866,53.6651 84.5,52.5C 76.1453,43.8127 67.8119,35.1461 59.5,26.5C 59.5086,24.6916 59.0086,23.0249 58,21.5C 55,18.8333 52,16.1667 49,13.5C 48.51,12.2068 48.3433,10.8734 48.5,9.5C 49.5,9.5 50.5,9.5 51.5,9.5 Z"/></g>
<g><path style="opacity:0.744" fill="#fe413e" d="M 37.5,64.5 C 39.8333,64.5 42.1667,64.5 44.5,64.5C 45.6898,69.5713 47.1898,74.5713 49,79.5C 49.4993,74.5111 49.6659,69.5111 49.5,64.5C 53.1817,64.3347 56.8484,64.5014 60.5,65C 64.619,72.0313 62.619,75.5313 54.5,75.5C 54.5,77.1667 54.5,78.8333 54.5,80.5C 51.1667,80.5 47.8333,80.5 44.5,80.5C 44.5,79.5 44.5,78.5 44.5,77.5C 42.1667,77.5 39.8333,77.5 37.5,77.5C 37.5,78.5 37.5,79.5 37.5,80.5C 35.712,80.7852 34.0453,80.4519 32.5,79.5C 34.7712,74.6863 36.4379,69.6863 37.5,64.5 Z M 54.5,68.5 C 55.8333,68.5 57.1667,68.5 58.5,68.5C 58.5,69.5 58.5,70.5 58.5,71.5C 56.8008,71.6602 55.1341,71.4935 53.5,71C 54.2524,70.3292 54.5858,69.4959 54.5,68.5 Z M 40.5,69.5 C 41.2485,70.531 41.9152,71.6976 42.5,73C 41.5,73.6667 40.5,73.6667 39.5,73C 40.3366,71.9887 40.67,70.8221 40.5,69.5 Z"/></g>
<g><path style="opacity:1" fill="#fe413e" d="M 78.5,64.5 C 83.1299,64.3525 85.6299,66.6858 86,71.5C 87.0395,69.2537 88.2062,67.087 89.5,65C 90.7932,64.51 92.1266,64.3433 93.5,64.5C 92.3091,67.8888 90.8091,71.2221 89,74.5C 88.5045,76.4727 88.3379,78.4727 88.5,80.5C 84.3241,81.1693 82.9907,79.6693 84.5,76C 82.3468,72.1918 80.3468,68.3585 78.5,64.5 Z"/></g>
<g><path style="opacity:0.772" fill="#fe413e" d="M 17.5,64.5 C 19.1439,64.2865 20.6439,64.6198 22,65.5C 23,68.5 24,71.5 25,74.5C 26.2647,71.5394 27.4314,68.5394 28.5,65.5C 30.0745,64.3691 31.7412,64.2025 33.5,65C 31.3323,70.0032 29.6656,75.1698 28.5,80.5C 26.2075,80.7564 24.0408,80.4231 22,79.5C 20.1898,74.5713 18.6898,69.5713 17.5,64.5 Z"/></g>
<g><path style="opacity:0.749" fill="#fe413e" d="M 6.5,64.5 C 8.60395,64.2011 10.604,64.5344 12.5,65.5C 14.376,70.4612 16.0426,75.4612 17.5,80.5C 14.4395,80.4129 11.7728,79.4129 9.5,77.5C 6.98682,78.8037 4.32015,79.8037 1.5,80.5C 2.76808,75.0298 4.43475,69.6964 6.5,64.5 Z M 8.5,69.5 C 10.4759,70.4271 10.8092,71.7605 9.5,73.5C 8.57131,72.3112 8.23798,70.9778 8.5,69.5 Z"/></g>
<g><path style="opacity:0.876" fill="#fe413e" d="M 67.5,64.5 C 69.7925,64.2436 71.9592,64.5769 74,65.5C 75.8382,70.3501 77.6715,75.1834 79.5,80C 75.8045,78.6126 71.8045,77.7793 67.5,77.5C 67.5,78.5 67.5,79.5 67.5,80.5C 65.712,80.7852 64.0453,80.4519 62.5,79.5C 64.376,74.5388 66.0426,69.5388 67.5,64.5 Z M 70.5,69.5 C 71.2485,70.531 71.9152,71.6976 72.5,73C 71.365,73.7494 70.365,73.5827 69.5,72.5C 70.1272,71.5832 70.4606,70.5832 70.5,69.5 Z"/></g>
</svg>
