<?xml version="1.0" encoding="UTF-8"?>
<!DOCTYPE svg PUBLIC "-//W3C//DTD SVG 1.1//EN" "http://www.w3.org/Graphics/SVG/1.1/DTD/svg11.dtd">
<svg xmlns="http://www.w3.org/2000/svg" version="1.1" width="96px" height="96px" style="shape-rendering:geometricPrecision; text-rendering:geometricPrecision; image-rendering:optimizeQuality; fill-rule:evenodd; clip-rule:evenodd" xmlns:xlink="http://www.w3.org/1999/xlink">
<g><path style="opacity:0.993" fill="#696969" d="M -0.5,-0.5 C 13.8333,-0.5 28.1667,-0.5 42.5,-0.5C 20.6962,3.63315 6.36289,16.2998 -0.5,37.5C -0.5,24.8333 -0.5,12.1667 -0.5,-0.5 Z"/></g>
<g><path style="opacity:0.993" fill="#696969" d="M 52.5,-0.5 C 66.8333,-0.5 81.1667,-0.5 95.5,-0.5C 95.5,12.8333 95.5,26.1667 95.5,39.5C 89.5075,17.1734 75.1742,3.84008 52.5,-0.5 Z"/></g>
<g><path style="opacity:1" fill="#e0e0e0" d="M 42.5,-0.5 C 45.8333,-0.5 49.1667,-0.5 52.5,-0.5C 75.1742,3.84008 89.5075,17.1734 95.5,39.5C 95.5,44.5 95.5,49.5 95.5,54.5C 90.2679,76.0655 76.9346,89.7322 55.5,95.5C 49.8333,95.5 44.1667,95.5 38.5,95.5C 16.7391,89.0741 3.73907,74.7407 -0.5,52.5C -0.5,47.5 -0.5,42.5 -0.5,37.5C 6.36289,16.2998 20.6962,3.63315 42.5,-0.5 Z"/></g>
<g><path style="opacity:1" fill="#686868" d="M 60.5,13.5 C 65.4157,16.2144 69.9157,19.5478 74,23.5C 74.2784,22.5842 74.7784,21.9175 75.5,21.5C 87.4675,38.419 87.4675,55.419 75.5,72.5C 76.4371,74.6424 77.7704,74.9757 79.5,73.5C 79.8333,74.5 80.5,75.1667 81.5,75.5C 78.7891,79.2119 75.4558,82.2119 71.5,84.5C 71.1667,83.5 70.5,82.8333 69.5,82.5C 71.4516,81.2153 73.1182,79.5486 74.5,77.5C 74.1667,76.5 73.5,75.8333 72.5,75.5C 62.2052,83.7608 50.5386,86.5941 37.5,84C 31.9255,82.2119 26.9255,79.3785 22.5,75.5C 20.3576,76.4371 20.0243,77.7704 21.5,79.5C 19.4947,80.1236 17.8281,79.2903 16.5,77C 17.1667,76.6667 17.8333,76.3333 18.5,76C 17.5842,75.7216 16.9175,75.2216 16.5,74.5C 17.9953,74.5852 18.9953,73.9185 19.5,72.5C 10.2371,60.3914 8.0704,47.0581 13,32.5C 15.1896,28.7781 17.3563,25.1114 19.5,21.5C 20.7072,20.8112 22.0406,20.6446 23.5,21C 26.6587,17.9177 30.3253,15.5843 34.5,14C 33.9056,13.5357 33.2389,13.369 32.5,13.5C 36.74,11.0925 41.4066,10.0925 46.5,10.5C 51.5934,10.0925 56.26,11.0925 60.5,13.5 Z"/></g>
<g><path style="opacity:1" fill="#656565" d="M 81.5,75.5 C 80.5,75.1667 79.8333,74.5 79.5,73.5C 91.833,55.7 91.4997,38.2 78.5,21C 77.4232,20.5304 76.4232,20.6971 75.5,21.5C 74.7784,21.9175 74.2784,22.5842 74,23.5C 69.9157,19.5478 65.4157,16.2144 60.5,13.5C 65.0245,14.4289 69.0245,16.4289 72.5,19.5C 73.5,19.1667 74.1667,18.5 74.5,17.5C 61.4711,6.06356 46.8044,3.56356 30.5,10C 28.0038,11.0804 25.6705,12.4138 23.5,14C 21.6707,15.1133 20.8374,16.6133 21,18.5C 21.414,18.9574 21.914,19.2907 22.5,19.5C 25.5886,17.0751 28.9219,15.0751 32.5,13.5C 33.2389,13.369 33.9056,13.5357 34.5,14C 30.3253,15.5843 26.6587,17.9177 23.5,21C 22.0406,20.6446 20.7072,20.8112 19.5,21.5C 18.5768,20.6971 17.5768,20.5304 16.5,21C 5.72498,34.0963 3.55832,48.5963 10,64.5C 11.4442,68.4109 13.6109,71.7442 16.5,74.5C 16.9175,75.2216 17.5842,75.7216 18.5,76C 17.8333,76.3333 17.1667,76.6667 16.5,77C 17.8281,79.2903 19.4947,80.1236 21.5,79.5C 36.8092,90.342 52.8092,91.342 69.5,82.5C 70.5,82.8333 71.1667,83.5 71.5,84.5C 49.6757,96.2729 30.1757,93.2729 13,75.5C 2.00669,59.6291 0.673359,42.9625 9,25.5C 22.7019,5.24413 41.2019,-0.922533 64.5,7C 85.9478,18.0646 94.4478,35.5646 90,59.5C 87.9327,65.3045 85.0993,70.6378 81.5,75.5 Z"/></g>
<g><path style="opacity:1" fill="#bfbfbf" d="M 19.5,21.5 C 17.3563,25.1114 15.1896,28.7781 13,32.5C 8.0704,47.0581 10.2371,60.3914 19.5,72.5C 18.9953,73.9185 17.9953,74.5852 16.5,74.5C 13.6109,71.7442 11.4442,68.4109 10,64.5C 3.55832,48.5963 5.72498,34.0963 16.5,21C 17.5768,20.5304 18.5768,20.6971 19.5,21.5 Z"/></g>
<g><path style="opacity:1" fill="#aeaeae" d="M 40.5,23.5 C 40.5,26.1667 40.5,28.8333 40.5,31.5C 37.1667,31.5 33.8333,31.5 30.5,31.5C 33.2869,30.5233 36.2869,30.19 39.5,30.5C 39.1984,27.9407 39.5318,25.6074 40.5,23.5 Z"/></g>
<g><path style="opacity:1" fill="#e3e3e3" d="M 40.5,23.5 C 41.8333,23.5 43.1667,23.5 44.5,23.5C 44.5,25.8333 44.5,28.1667 44.5,30.5C 45.5676,31.4345 46.901,31.7678 48.5,31.5C 48.5,28.8333 48.5,26.1667 48.5,23.5C 49.8333,23.5 51.1667,23.5 52.5,23.5C 52.5,26.1667 52.5,28.8333 52.5,31.5C 63.8384,31.975 66.505,36.975 60.5,46.5C 64.4469,47.7718 66.4469,50.4385 66.5,54.5C 65.7694,62.8916 61.1028,66.5583 52.5,65.5C 52.5,68.1667 52.5,70.8333 52.5,73.5C 51.1667,73.5 49.8333,73.5 48.5,73.5C 48.5,70.8333 48.5,68.1667 48.5,65.5C 46.901,65.2322 45.5676,65.5655 44.5,66.5C 44.5,68.8333 44.5,71.1667 44.5,73.5C 43.1667,73.5 41.8333,73.5 40.5,73.5C 40.5,70.8333 40.5,68.1667 40.5,65.5C 37.1667,65.5 33.8333,65.5 30.5,65.5C 30.5,63.8333 30.5,62.1667 30.5,60.5C 32.4672,60.7394 34.3005,60.4061 36,59.5C 36.6667,51.8333 36.6667,44.1667 36,36.5C 34.3005,35.5939 32.4672,35.2606 30.5,35.5C 30.5,34.1667 30.5,32.8333 30.5,31.5C 33.8333,31.5 37.1667,31.5 40.5,31.5C 40.5,28.8333 40.5,26.1667 40.5,23.5 Z"/></g>
<g><path style="opacity:1" fill="#676767" d="M 44.5,50.5 C 47.5184,50.3354 50.5184,50.502 53.5,51C 58.8333,54 58.8333,57 53.5,60C 50.5184,60.498 47.5184,60.6646 44.5,60.5C 44.5,57.1667 44.5,53.8333 44.5,50.5 Z"/></g>
<g><path style="opacity:1" fill="#666666" d="M 44.5,36.5 C 47.1873,36.3359 49.854,36.5026 52.5,37C 56.5613,40.1114 56.2279,42.7781 51.5,45C 49.1902,45.4966 46.8568,45.6633 44.5,45.5C 44.5,42.5 44.5,39.5 44.5,36.5 Z"/></g>
<g><path style="opacity:1" fill="#a7a7a7" d="M 48.5,23.5 C 48.5,26.1667 48.5,28.8333 48.5,31.5C 46.901,31.7678 45.5676,31.4345 44.5,30.5C 45.5,30.5 46.5,30.5 47.5,30.5C 47.1984,27.9407 47.5318,25.6074 48.5,23.5 Z"/></g>
<g><path style="opacity:1" fill="#c2c2c2" d="M 79.5,73.5 C 77.7704,74.9757 76.4371,74.6424 75.5,72.5C 87.4675,55.419 87.4675,38.419 75.5,21.5C 76.4232,20.6971 77.4232,20.5304 78.5,21C 91.4997,38.2 91.833,55.7 79.5,73.5 Z"/></g>
<g><path style="opacity:1" fill="#c0c0c0" d="M 60.5,13.5 C 56.26,11.0925 51.5934,10.0925 46.5,10.5C 41.4066,10.0925 36.74,11.0925 32.5,13.5C 28.9219,15.0751 25.5886,17.0751 22.5,19.5C 21.914,19.2907 21.414,18.9574 21,18.5C 20.8374,16.6133 21.6707,15.1133 23.5,14C 25.6705,12.4138 28.0038,11.0804 30.5,10C 46.8044,3.56356 61.4711,6.06356 74.5,17.5C 74.1667,18.5 73.5,19.1667 72.5,19.5C 69.0245,16.4289 65.0245,14.4289 60.5,13.5 Z"/></g>
<g><path style="opacity:0.991" fill="#676767" d="M 95.5,54.5 C 95.5,68.1667 95.5,81.8333 95.5,95.5C 82.1667,95.5 68.8333,95.5 55.5,95.5C 76.9346,89.7322 90.2679,76.0655 95.5,54.5 Z"/></g>
<g><path style="opacity:0.991" fill="#686868" d="M -0.5,52.5 C 3.73907,74.7407 16.7391,89.0741 38.5,95.5C 25.5,95.5 12.5,95.5 -0.5,95.5C -0.5,81.1667 -0.5,66.8333 -0.5,52.5 Z"/></g>
<g><path style="opacity:1" fill="#afafaf" d="M 30.5,65.5 C 33.8333,65.5 37.1667,65.5 40.5,65.5C 40.5,68.1667 40.5,70.8333 40.5,73.5C 39.5318,71.3926 39.1984,69.0593 39.5,66.5C 36.2869,66.81 33.2869,66.4767 30.5,65.5 Z"/></g>
<g><path style="opacity:1" fill="#9b9b9b" d="M 44.5,66.5 C 45.5676,65.5655 46.901,65.2322 48.5,65.5C 48.5,68.1667 48.5,70.8333 48.5,73.5C 47.5318,71.3926 47.1984,69.0593 47.5,66.5C 46.5,66.5 45.5,66.5 44.5,66.5 Z"/></g>
<g><path style="opacity:1" fill="#bebebe" d="M 69.5,82.5 C 52.8092,91.342 36.8092,90.342 21.5,79.5C 20.0243,77.7704 20.3576,76.4371 22.5,75.5C 26.9255,79.3785 31.9255,82.2119 37.5,84C 50.5386,86.5941 62.2052,83.7608 72.5,75.5C 73.5,75.8333 74.1667,76.5 74.5,77.5C 73.1182,79.5486 71.4516,81.2153 69.5,82.5 Z"/></g>
</svg>
