<?xml version="1.0" encoding="UTF-8"?>
<!DOCTYPE svg PUBLIC "-//W3C//DTD SVG 1.1//EN" "http://www.w3.org/Graphics/SVG/1.1/DTD/svg11.dtd">
<svg xmlns="http://www.w3.org/2000/svg" version="1.1" width="96px" height="96px" style="shape-rendering:geometricPrecision; text-rendering:geometricPrecision; image-rendering:optimizeQuality; fill-rule:evenodd; clip-rule:evenodd" xmlns:xlink="http://www.w3.org/1999/xlink">
<g><path style="opacity:1" fill="#2c4696" d="M 42.5,21.5 C 42.5,22.5 42.5,23.5 42.5,24.5C 42.5,24.8333 42.5,25.1667 42.5,25.5C 41.5116,24.205 40.5116,22.8717 39.5,21.5C 40.8526,20.1329 40.5193,19.1329 38.5,18.5C 37.4061,20.3025 35.7394,20.6359 33.5,19.5C 31.6455,19.3402 30.3121,20.0069 29.5,21.5C 27.7839,21.3713 26.1172,21.038 24.5,20.5C 22.6214,20.6068 22.2881,20.1068 23.5,19C 25.6096,18.4456 27.6096,17.6123 29.5,16.5C 30.8638,17.0431 32.1971,17.2098 33.5,17C 33.727,15.8647 34.0604,14.698 34.5,13.5C 37.8534,15.1768 40.8534,17.3434 43.5,20C 42.944,20.3826 42.6107,20.8826 42.5,21.5 Z"/></g>
<g><path style="opacity:1" fill="#171215" d="M 39.5,21.5 C 36.1667,21.5 32.8333,21.5 29.5,21.5C 30.3121,20.0069 31.6455,19.3402 33.5,19.5C 35.7394,20.6359 37.4061,20.3025 38.5,18.5C 40.5193,19.1329 40.8526,20.1329 39.5,21.5 Z"/></g>
<g><path style="opacity:0.995" fill="#f9f9f9" d="M 24.5,20.5 C 26.1172,21.038 27.7839,21.3713 29.5,21.5C 32.8333,21.5 36.1667,21.5 39.5,21.5C 40.5116,22.8717 41.5116,24.205 42.5,25.5C 42.2964,27.6854 41.6298,29.6854 40.5,31.5C 37.9599,33.8861 35.9599,36.7194 34.5,40C 36.6402,43.1221 38.6402,46.2887 40.5,49.5C 38.6969,51.4813 37.0303,53.648 35.5,56C 38.146,56.4974 40.8127,56.6641 43.5,56.5C 43.5,57.5 43.5,58.5 43.5,59.5C 41.9813,64.5224 40.6479,69.5224 39.5,74.5C 35.8333,74.5 32.1667,74.5 28.5,74.5C 24.3989,73.2092 20.3989,73.2092 16.5,74.5C 16.1667,74.5 15.8333,74.5 15.5,74.5C 15.5,70.5 15.5,66.5 15.5,62.5C 15.5,60.5 15.5,58.5 15.5,56.5C 17.8333,53.1667 20.1667,49.8333 22.5,46.5C 24.4707,44.1918 26.4707,41.8585 28.5,39.5C 29.2891,39.2172 29.9558,38.7172 30.5,38C 25.5111,37.5007 20.5111,37.3341 15.5,37.5C 15.5,32.1667 15.5,26.8333 15.5,21.5C 18.7131,21.81 21.7131,21.4767 24.5,20.5 Z"/></g>
<g><path style="opacity:0.879" fill="#ebe8e9" d="M 42.5,21.5 C 43.8333,21.5 45.1667,21.5 46.5,21.5C 45.7377,23.2624 44.4044,24.2624 42.5,24.5C 42.5,23.5 42.5,22.5 42.5,21.5 Z"/></g>
<g><path style="opacity:0.995" fill="#f2f2f2" d="M 57.5,21.5 C 59.924,21.1924 62.2573,21.5258 64.5,22.5C 66.6072,26.3806 68.4405,30.3806 70,34.5C 70.499,30.1794 70.6657,25.8461 70.5,21.5C 73.1667,21.5 75.8333,21.5 78.5,21.5C 79.1667,21.5 79.8333,21.5 80.5,21.5C 80.8333,21.5 81.1667,21.5 81.5,21.5C 83.0471,25.9469 84.0471,30.9469 84.5,36.5C 84.5,39.5 84.5,42.5 84.5,45.5C 84.6621,47.5273 84.4955,49.5273 84,51.5C 81.0646,54.0034 79.8979,57.0034 80.5,60.5C 78.2381,65.7555 74.2381,68.7555 68.5,69.5C 67.0731,66.9764 65.9064,64.3098 65,61.5C 64.7725,65.9171 64.2725,70.2504 63.5,74.5C 63.1667,74.5 62.8333,74.5 62.5,74.5C 61.1667,74.5 59.8333,74.5 58.5,74.5C 57.8333,74.5 57.1667,74.5 56.5,74.5C 55.3915,73.71 54.0581,73.21 52.5,73C 53.2524,72.3292 53.5858,71.4959 53.5,70.5C 54.1098,69.609 54.4431,68.609 54.5,67.5C 56.7451,64.6803 58.7451,61.6803 60.5,58.5C 61.9649,57.5943 62.9649,56.261 63.5,54.5C 60.8579,50.6906 58.0246,47.0239 55,43.5C 54.4359,37.7431 54.9359,32.0764 56.5,26.5C 56.6287,24.7839 56.962,23.1172 57.5,21.5 Z"/></g>
<g><path style="opacity:1" fill="#2c64c7" d="M 60.5,-0.5 C 61.1667,-0.5 61.8333,-0.5 62.5,-0.5C 60.8336,6.83073 59.1669,14.1641 57.5,21.5C 56.962,23.1172 56.6287,24.7839 56.5,26.5C 54.9891,28.4758 54.1558,30.8091 54,33.5C 50.0583,35.4625 45.8916,36.2958 41.5,36C 40.6198,34.6439 40.2865,33.1439 40.5,31.5C 41.6298,29.6854 42.2964,27.6854 42.5,25.5C 42.5,25.1667 42.5,24.8333 42.5,24.5C 44.4044,24.2624 45.7377,23.2624 46.5,21.5C 51.5615,14.4343 56.2282,7.10095 60.5,-0.5 Z"/></g>
<g><path style="opacity:0.456" fill="#5a595b" d="M 15.5,21.5 C 15.5,26.8333 15.5,32.1667 15.5,37.5C 20.5111,37.3341 25.5111,37.5007 30.5,38C 29.9558,38.7172 29.2891,39.2172 28.5,39.5C 26.0521,38.5269 23.3854,38.1936 20.5,38.5C 19.8333,38.5 19.1667,38.5 18.5,38.5C 17.1667,38.5 15.8333,38.5 14.5,38.5C 14.1778,32.642 14.5111,26.9753 15.5,21.5 Z"/></g>
<g><path style="opacity:1" fill="#0c0a10" d="M 84.5,36.5 C 86.7691,39.4213 86.7691,42.4213 84.5,45.5C 84.5,42.5 84.5,39.5 84.5,36.5 Z"/></g>
<g><path style="opacity:0.69" fill="#2d5ba5" d="M 18.5,38.5 C 19.1667,38.5 19.8333,38.5 20.5,38.5C 20.5838,41.3274 21.2504,43.994 22.5,46.5C 19.1078,45.01 17.7745,42.3434 18.5,38.5 Z"/></g>
<g><path style="opacity:1" fill="#24439a" d="M 56.5,26.5 C 54.9359,32.0764 54.4359,37.7431 55,43.5C 58.0246,47.0239 60.8579,50.6906 63.5,54.5C 62.9649,56.261 61.9649,57.5943 60.5,58.5C 55.6838,56.8227 50.5171,55.8227 45,55.5C 44.79,57.0581 44.29,58.3915 43.5,59.5C 43.5,58.5 43.5,57.5 43.5,56.5C 44.0922,53.3695 43.0922,51.0361 40.5,49.5C 38.6402,46.2887 36.6402,43.1221 34.5,40C 35.9599,36.7194 37.9599,33.8861 40.5,31.5C 40.2865,33.1439 40.6198,34.6439 41.5,36C 45.8916,36.2958 50.0583,35.4625 54,33.5C 54.1558,30.8091 54.9891,28.4758 56.5,26.5 Z"/></g>
<g><path style="opacity:1" fill="#96b7f8" d="M 26.5,51.5 C 27.3132,50.3473 28.3132,50.3473 29.5,51.5C 30.9584,53.1385 31.2917,54.8051 30.5,56.5C 29.3875,54.5808 28.0542,52.9142 26.5,51.5 Z"/></g>
<g><path style="opacity:0.216" fill="#343947" d="M 15.5,56.5 C 15.5,58.5 15.5,60.5 15.5,62.5C 14.7321,61.7375 14.2321,60.7375 14,59.5C 13.6012,59.7284 13.4346,60.0618 13.5,60.5C 12.4265,59.7494 12.2599,58.7494 13,57.5C 13.3333,57.8333 13.6667,58.1667 14,58.5C 14.2784,57.5842 14.7784,56.9175 15.5,56.5 Z"/></g>
<g><path style="opacity:0.984" fill="#f2f2f7" d="M 83.5,59.5 C 83.5,64.5 83.5,69.5 83.5,74.5C 79.5,74.5 75.5,74.5 71.5,74.5C 73.5078,72.7324 75.6744,71.0657 78,69.5C 80.0987,66.2546 81.932,62.9213 83.5,59.5 Z"/></g>
<g><path style="opacity:0.534" fill="#818187" d="M 84.5,54.5 C 84.824,61.3543 84.4907,68.021 83.5,74.5C 83.5,69.5 83.5,64.5 83.5,59.5C 81.8823,57.3441 82.2157,55.6774 84.5,54.5 Z"/></g>
<g><path style="opacity:1" fill="#3069cb" d="M 60.5,58.5 C 58.7451,61.6803 56.7451,64.6803 54.5,67.5C 50.8097,67.3829 46.8097,67.3829 42.5,67.5C 41.802,74.2921 40.4687,80.9588 38.5,87.5C 38.8555,88.5223 39.5222,89.189 40.5,89.5C 39.3702,91.3146 38.7036,93.3146 38.5,95.5C 37.8333,95.5 37.1667,95.5 36.5,95.5C 37.63,88.517 38.63,81.517 39.5,74.5C 40.6479,69.5224 41.9813,64.5224 43.5,59.5C 44.29,58.3915 44.79,57.0581 45,55.5C 50.5171,55.8227 55.6838,56.8227 60.5,58.5 Z"/></g>
<g><path style="opacity:1" fill="#327fec" d="M 54.5,67.5 C 54.4431,68.609 54.1098,69.609 53.5,70.5C 52.0256,71.4363 51.0256,72.7697 50.5,74.5C 47.9079,80.0244 44.5746,85.0244 40.5,89.5C 39.5222,89.189 38.8555,88.5223 38.5,87.5C 40.4687,80.9588 41.802,74.2921 42.5,67.5C 46.8097,67.3829 50.8097,67.3829 54.5,67.5 Z"/></g>
<g><path style="opacity:0.663" fill="#324284" d="M 15.5,62.5 C 15.5,66.5 15.5,70.5 15.5,74.5C 14.2745,73.063 13.2745,71.3964 12.5,69.5C 13.169,66.3949 13.5023,63.3949 13.5,60.5C 13.4346,60.0618 13.6012,59.7284 14,59.5C 14.2321,60.7375 14.7321,61.7375 15.5,62.5 Z"/></g>
<g><path style="opacity:0.153" fill="#7f818a" d="M 53.5,70.5 C 53.5858,71.4959 53.2524,72.3292 52.5,73C 54.0581,73.21 55.3915,73.71 56.5,74.5C 55.1667,74.5 53.8333,74.5 52.5,74.5C 51.8333,74.5 51.1667,74.5 50.5,74.5C 51.0256,72.7697 52.0256,71.4363 53.5,70.5 Z"/></g>
<g><path style="opacity:1" fill="#283f94" d="M 84.5,54.5 C 82.2157,55.6774 81.8823,57.3441 83.5,59.5C 81.932,62.9213 80.0987,66.2546 78,69.5C 75.6744,71.0657 73.5078,72.7324 71.5,74.5C 69.9677,78.3703 67.6344,81.7036 64.5,84.5C 64.1667,84 63.8333,83.5 63.5,83C 64.862,78.3226 66.5287,73.8226 68.5,69.5C 74.2381,68.7555 78.2381,65.7555 80.5,60.5C 79.8979,57.0034 81.0646,54.0034 84,51.5C 84.4955,49.5273 84.6621,47.5273 84.5,45.5C 86.7691,42.4213 86.7691,39.4213 84.5,36.5C 84.0471,30.9469 83.0471,25.9469 81.5,21.5C 81.1667,20.1667 80.8333,20.1667 80.5,21.5C 79.8333,21.5 79.1667,21.5 78.5,21.5C 76.4858,20.9364 74.4858,19.6031 72.5,17.5C 74.0981,15.0266 75.5981,15.0266 77,17.5C 77.6891,16.6433 78.5224,15.9767 79.5,15.5C 82.325,18.4952 84.9917,21.6619 87.5,25C 86.2624,24.9227 85.2624,25.0894 84.5,25.5C 86.3826,28.2567 87.0492,31.09 86.5,34C 87.2677,36.1364 87.9344,38.3031 88.5,40.5C 88.4712,42.0293 87.8045,43.196 86.5,44C 87.0219,44.5613 87.3552,45.228 87.5,46C 86.8392,48.464 86.3392,50.964 86,53.5C 85.6174,54.056 85.1174,54.3893 84.5,54.5 Z"/></g>
<g><path style="opacity:0.91" fill="#243c86" d="M 52.5,74.5 C 53.8333,74.5 55.1667,74.5 56.5,74.5C 57.1667,74.5 57.8333,74.5 58.5,74.5C 59.8333,75.8333 61.1667,75.8333 62.5,74.5C 62.8333,74.5 63.1667,74.5 63.5,74.5C 63.9382,74.4346 64.2716,74.6012 64.5,75C 63.0283,77.996 60.8616,78.8294 58,77.5C 57.7508,78.624 57.2508,79.624 56.5,80.5C 54.7484,78.7541 53.4151,76.7541 52.5,74.5 Z"/></g>
<g><path style="opacity:0.384" fill="#2a4189" d="M 28.5,74.5 C 29.9361,75.4286 31.2695,76.5952 32.5,78C 30.074,77.9521 27.7407,78.1188 25.5,78.5C 23.7419,77.8721 22.2419,76.8721 21,75.5C 20.7811,76.938 20.2811,78.2713 19.5,79.5C 18.0476,78.0603 17.0476,76.3936 16.5,74.5C 20.3989,73.2092 24.3989,73.2092 28.5,74.5 Z"/></g>
</svg>
