<?xml version="1.0" encoding="UTF-8"?>
<!DOCTYPE svg PUBLIC "-//W3C//DTD SVG 1.1//EN" "http://www.w3.org/Graphics/SVG/1.1/DTD/svg11.dtd">
<svg xmlns="http://www.w3.org/2000/svg" version="1.1" width="96px" height="96px" style="shape-rendering:geometricPrecision; text-rendering:geometricPrecision; image-rendering:optimizeQuality; fill-rule:evenodd; clip-rule:evenodd" xmlns:xlink="http://www.w3.org/1999/xlink">
<g><path style="opacity:0.974" fill="#283133" d="M 37.5,-0.5 C 44.1667,-0.5 50.8333,-0.5 57.5,-0.5C 77.1667,5.16667 89.8333,17.8333 95.5,37.5C 95.5,44.1667 95.5,50.8333 95.5,57.5C 89.8333,77.1667 77.1667,89.8333 57.5,95.5C 50.8333,95.5 44.1667,95.5 37.5,95.5C 17.8333,89.8333 5.16667,77.1667 -0.5,57.5C -0.5,50.8333 -0.5,44.1667 -0.5,37.5C 5.16667,17.8333 17.8333,5.16667 37.5,-0.5 Z"/></g>
<g><path style="opacity:1" fill="#71f4f2" d="M 56.5,29.5 C 53.152,28.1482 49.652,27.4815 46,27.5C 43.1345,27.2999 40.6345,27.9666 38.5,29.5C 34.1877,25.8544 30.1877,21.8544 26.5,17.5C 32.5205,12.9507 39.3538,10.9507 47,11.5C 54.2836,11.4769 60.9502,13.4769 67,17.5C 64.5314,22.153 61.0314,26.153 56.5,29.5 Z"/></g>
<g><path style="opacity:1" fill="#71f3f1" d="M 29.5,38.5 C 27.9666,40.6345 27.2999,43.1345 27.5,46C 27.4815,49.652 28.1482,53.152 29.5,56.5C 25.521,61.1456 21.1877,65.479 16.5,69.5C 9.21986,58.5901 7.71986,46.9234 12,34.5C 13.1058,31.2738 14.9391,28.6071 17.5,26.5C 21.8544,30.1877 25.8544,34.1877 29.5,38.5 Z"/></g>
<g><path style="opacity:1" fill="#d8921b" d="M 56.5,29.5 C 53.8544,32.8123 50.8544,35.8123 47.5,38.5C 44.1456,35.8123 41.1456,32.8123 38.5,29.5C 40.6345,27.9666 43.1345,27.2999 46,27.5C 49.652,27.4815 53.152,28.1482 56.5,29.5 Z"/></g>
<g><path style="opacity:1" fill="#70f5f3" d="M 64.5,55.5 C 65.8845,52.6918 66.5512,49.6918 66.5,46.5C 66.6839,43.7954 66.0173,41.4621 64.5,39.5C 68.1456,35.1877 72.1456,31.1877 76.5,27.5C 81.9934,32.9766 84.3268,39.6433 83.5,47.5C 83.9283,55.2127 81.9283,62.2127 77.5,68.5C 72.8123,64.479 68.479,60.1456 64.5,55.5 Z"/></g>
<g><path style="opacity:1" fill="#d8921b" d="M 29.5,38.5 C 32.8123,41.1456 35.8123,44.1456 38.5,47.5C 35.8123,50.8544 32.8123,53.8544 29.5,56.5C 28.1482,53.152 27.4815,49.652 27.5,46C 27.2999,43.1345 27.9666,40.6345 29.5,38.5 Z"/></g>
<g><path style="opacity:1" fill="#da9621" d="M 64.5,39.5 C 66.0173,41.4621 66.6839,43.7954 66.5,46.5C 66.5512,49.6918 65.8845,52.6918 64.5,55.5C 61.5211,53.1877 58.8544,50.5211 56.5,47.5C 58.8544,44.4789 61.5211,41.8123 64.5,39.5 Z"/></g>
<g><path style="opacity:1" fill="#db9621" d="M 55.5,64.5 C 52.6918,65.8845 49.6918,66.5512 46.5,66.5C 43.7954,66.6839 41.4621,66.0173 39.5,64.5C 41.8123,61.5211 44.4789,58.8544 47.5,56.5C 50.5211,58.8544 53.1877,61.5211 55.5,64.5 Z"/></g>
<g><path style="opacity:1" fill="#70f4f3" d="M 39.5,64.5 C 41.4621,66.0173 43.7954,66.6839 46.5,66.5C 49.6918,66.5512 52.6918,65.8845 55.5,64.5C 60.1456,68.479 64.479,72.8123 68.5,77.5C 58.7328,85.2199 47.7328,87.3866 35.5,84C 31.8057,82.8018 28.4724,80.9685 25.5,78.5C 29.8544,73.479 34.521,68.8123 39.5,64.5 Z"/></g>
</svg>
