<?xml version="1.0" encoding="UTF-8"?>
<!DOCTYPE svg PUBLIC "-//W3C//DTD SVG 1.1//EN" "http://www.w3.org/Graphics/SVG/1.1/DTD/svg11.dtd">
<svg xmlns="http://www.w3.org/2000/svg" version="1.1" width="96px" height="96px" style="shape-rendering:geometricPrecision; text-rendering:geometricPrecision; image-rendering:optimizeQuality; fill-rule:evenodd; clip-rule:evenodd" xmlns:xlink="http://www.w3.org/1999/xlink">
<g><path style="opacity:0.968" fill="#18449a" d="M 36.5,-0.5 C 43.8333,-0.5 51.1667,-0.5 58.5,-0.5C 77.1667,5.5 89.5,17.8333 95.5,36.5C 95.5,43.8333 95.5,51.1667 95.5,58.5C 89.5,77.1667 77.1667,89.5 58.5,95.5C 51.1667,95.5 43.8333,95.5 36.5,95.5C 17.8333,89.5 5.5,77.1667 -0.5,58.5C -0.5,51.1667 -0.5,43.8333 -0.5,36.5C 5.5,17.8333 17.8333,5.5 36.5,-0.5 Z"/></g>
<g><path style="opacity:1" fill="#e2e7f2" d="M 32.5,15.5 C 35.1667,15.5 37.8333,15.5 40.5,15.5C 38.6785,19.5132 36.1785,23.1798 33,26.5C 21.1235,45.0461 23.4568,61.7128 40,76.5C 40.4828,77.448 40.6495,78.448 40.5,79.5C 23.7326,78.6851 13.5659,70.0184 10,53.5C 8.54402,35.3972 16.044,22.7306 32.5,15.5 Z"/></g>
<g><path style="opacity:1" fill="#e6eaf4" d="M 55.5,15.5 C 74.2557,17.3363 84.2557,27.6696 85.5,46.5C 85.6188,64.8656 76.7854,75.8656 59,79.5C 57.5,79.1667 56,78.8333 54.5,78.5C 61.4599,70.9152 66.6266,62.2486 70,52.5C 70.8098,47.7426 70.4764,43.0759 69,38.5C 65.3413,30.514 60.508,23.3473 54.5,17C 55.056,16.6174 55.3893,16.1174 55.5,15.5 Z"/></g>
<g><path style="opacity:1" fill="#1c449a" d="M 61.5,19.5 C 74.6189,23.8709 81.6189,33.0376 82.5,47C 82.2596,60.668 75.9262,70.168 63.5,75.5C 62.8333,75.3333 62.1667,75.1667 61.5,75C 71.3356,64.192 74.8356,51.692 72,37.5C 68.7291,31.2809 65.2291,25.2809 61.5,19.5 Z"/></g>
<g><path style="opacity:1" fill="#1a4399" d="M 30.5,19.5 C 31.8734,19.3433 33.2068,19.51 34.5,20C 17.367,38.0632 17.2004,56.2299 34,74.5C 34.6877,75.3317 34.521,75.9984 33.5,76.5C 16.7237,69.2839 10.2237,56.6173 14,38.5C 15.9583,33.4096 18.7916,28.9096 22.5,25C 25.4068,23.3909 28.0734,21.5576 30.5,19.5 Z"/></g>
<g><path style="opacity:1" fill="#f7f8fb" d="M 34.5,31.5 C 37.2469,31.1866 39.9135,31.52 42.5,32.5C 44.4243,35.3479 46.091,38.3479 47.5,41.5C 49.375,38.2489 51.375,35.0823 53.5,32C 55.9018,31.1859 58.2351,31.3526 60.5,32.5C 58.5,36.1667 56.5,39.8333 54.5,43.5C 56.0453,44.4519 57.712,44.7852 59.5,44.5C 59.5,46.1667 59.5,47.8333 59.5,49.5C 56.8333,49.5 54.1667,49.5 51.5,49.5C 51.5,50.5 51.5,51.5 51.5,52.5C 54.1667,52.5 56.8333,52.5 59.5,52.5C 59.5,54.1667 59.5,55.8333 59.5,57.5C 56.8333,57.5 54.1667,57.5 51.5,57.5C 51.5,59.5 51.5,61.5 51.5,63.5C 48.8333,63.5 46.1667,63.5 43.5,63.5C 43.5,61.5 43.5,59.5 43.5,57.5C 40.8333,57.5 38.1667,57.5 35.5,57.5C 35.5,55.8333 35.5,54.1667 35.5,52.5C 38.1667,52.5 40.8333,52.5 43.5,52.5C 43.5,51.5 43.5,50.5 43.5,49.5C 40.8333,49.5 38.1667,49.5 35.5,49.5C 35.5,47.8333 35.5,46.1667 35.5,44.5C 37.288,44.7852 38.9547,44.4519 40.5,43.5C 38.4734,39.4469 36.4734,35.4469 34.5,31.5 Z"/></g>
</svg>
