<?xml version="1.0" encoding="UTF-8"?>
<!DOCTYPE svg PUBLIC "-//W3C//DTD SVG 1.1//EN" "http://www.w3.org/Graphics/SVG/1.1/DTD/svg11.dtd">
<svg xmlns="http://www.w3.org/2000/svg" version="1.1" width="96px" height="96px" style="shape-rendering:geometricPrecision; text-rendering:geometricPrecision; image-rendering:optimizeQuality; fill-rule:evenodd; clip-rule:evenodd" xmlns:xlink="http://www.w3.org/1999/xlink">
<g><path style="opacity:0.984" fill="#f4b731" d="M 37.5,-0.5 C 44.1667,-0.5 50.8333,-0.5 57.5,-0.5C 77.193,5.193 89.8597,17.8597 95.5,37.5C 95.5,44.1667 95.5,50.8333 95.5,57.5C 89.807,77.193 77.1403,89.8597 57.5,95.5C 50.8333,95.5 44.1667,95.5 37.5,95.5C 17.807,89.807 5.14032,77.1403 -0.5,57.5C -0.5,50.8333 -0.5,44.1667 -0.5,37.5C 5.193,17.807 17.8597,5.14032 37.5,-0.5 Z"/></g>
<g><path style="opacity:1" fill="#fefcf7" d="M 28.5,22.5 C 38.233,22.1091 47.8997,22.6091 57.5,24C 64.6882,26.52 70.0216,31.1867 73.5,38C 75.4727,38.4955 77.4727,38.6621 79.5,38.5C 79.5,40.5 79.5,42.5 79.5,44.5C 77.8333,44.5 76.1667,44.5 74.5,44.5C 74.5,46.5 74.5,48.5 74.5,50.5C 76.1667,50.5 77.8333,50.5 79.5,50.5C 79.5,52.5 79.5,54.5 79.5,56.5C 77.1667,56.5 74.8333,56.5 72.5,56.5C 69.5079,64.9818 63.5079,70.1485 54.5,72C 45.8397,72.4998 37.1731,72.6664 28.5,72.5C 28.5,67.1667 28.5,61.8333 28.5,56.5C 26.1667,56.5 23.8333,56.5 21.5,56.5C 21.5,54.5 21.5,52.5 21.5,50.5C 23.8333,50.5 26.1667,50.5 28.5,50.5C 28.5,48.5 28.5,46.5 28.5,44.5C 26.1667,44.5 23.8333,44.5 21.5,44.5C 21.5,42.5 21.5,40.5 21.5,38.5C 23.8333,38.5 26.1667,38.5 28.5,38.5C 28.5,33.1667 28.5,27.8333 28.5,22.5 Z"/></g>
<g><path style="opacity:1" fill="#f8cd73" d="M 52.5,28.5 C 46.5,28.5 40.5,28.5 34.5,28.5C 34.5,31.8333 34.5,35.1667 34.5,38.5C 33.5184,35.0381 33.185,31.3714 33.5,27.5C 40.0221,27.1765 46.3554,27.5098 52.5,28.5 Z"/></g>
<g><path style="opacity:1" fill="#f4b732" d="M 52.5,28.5 C 58.7479,29.088 63.4145,32.088 66.5,37.5C 56.0131,38.4944 45.3464,38.8278 34.5,38.5C 34.5,35.1667 34.5,31.8333 34.5,28.5C 40.5,28.5 46.5,28.5 52.5,28.5 Z"/></g>
<g><path style="opacity:1" fill="#fcecc8" d="M 66.5,37.5 C 67.0431,37.56 67.3764,37.8933 67.5,38.5C 56.3404,39.8238 45.3404,39.8238 34.5,38.5C 45.3464,38.8278 56.0131,38.4944 66.5,37.5 Z"/></g>
<g><path style="opacity:1" fill="#fdefd3" d="M 34.5,44.5 C 34.5,46.5 34.5,48.5 34.5,50.5C 45.8333,50.5 57.1667,50.5 68.5,50.5C 68.5,48.5 68.5,46.5 68.5,44.5C 69.4682,46.6074 69.8016,48.9407 69.5,51.5C 57.5,51.5 45.5,51.5 33.5,51.5C 33.1984,48.9407 33.5318,46.6074 34.5,44.5 Z"/></g>
<g><path style="opacity:1" fill="#f3b730" d="M 34.5,44.5 C 45.8333,44.5 57.1667,44.5 68.5,44.5C 68.5,46.5 68.5,48.5 68.5,50.5C 57.1667,50.5 45.8333,50.5 34.5,50.5C 34.5,48.5 34.5,46.5 34.5,44.5 Z"/></g>
<g><path style="opacity:1" fill="#f4b732" d="M 34.5,56.5 C 45.1874,56.168 55.8541,56.5013 66.5,57.5C 63.5584,62.4313 59.2251,65.4313 53.5,66.5C 47.1667,66.5 40.8333,66.5 34.5,66.5C 34.5,63.1667 34.5,59.8333 34.5,56.5 Z"/></g>
<g><path style="opacity:1" fill="#f8ce76" d="M 34.5,56.5 C 34.5,59.8333 34.5,63.1667 34.5,66.5C 40.8333,66.5 47.1667,66.5 53.5,66.5C 47.021,67.4907 40.3543,67.824 33.5,67.5C 33.185,63.6286 33.5184,59.9619 34.5,56.5 Z"/></g>
</svg>
