<?xml version="1.0" encoding="UTF-8"?>
<!DOCTYPE svg PUBLIC "-//W3C//DTD SVG 1.1//EN" "http://www.w3.org/Graphics/SVG/1.1/DTD/svg11.dtd">
<svg xmlns="http://www.w3.org/2000/svg" version="1.1" width="96px" height="96px" style="shape-rendering:geometricPrecision; text-rendering:geometricPrecision; image-rendering:optimizeQuality; fill-rule:evenodd; clip-rule:evenodd" xmlns:xlink="http://www.w3.org/1999/xlink">
<g><path style="opacity:1" fill="#193452" d="M -0.5,-0.5 C 31.5,-0.5 63.5,-0.5 95.5,-0.5C 95.5,31.5 95.5,63.5 95.5,95.5C 63.5,95.5 31.5,95.5 -0.5,95.5C -0.5,63.5 -0.5,31.5 -0.5,-0.5 Z"/></g>
<g><path style="opacity:1" fill="#f5f4ec" d="M 67.5,29.5 C 66.2436,29.9038 65.0769,30.5705 64,31.5C 62.8319,30.4911 61.6652,29.4911 60.5,28.5C 57.4908,29.003 54.6575,30.003 52,31.5C 50.662,30.4939 49.3287,29.4939 48,28.5C 45.9656,29.8621 43.7989,30.8621 41.5,31.5C 40.8333,35.5 40.1667,39.5 39.5,43.5C 39.7148,41.8212 39.0481,40.8212 37.5,40.5C 37.5,39.5 37.5,38.5 37.5,37.5C 37.8333,35.5 38.1667,33.5 38.5,31.5C 39.7736,30.8106 39.7736,29.9772 38.5,29C 46.1967,27.7488 45.8633,26.7488 37.5,26C 38.3279,25.0853 39.3279,24.4186 40.5,24C 37.8207,23.662 35.8207,22.3286 34.5,20C 35.0556,18.9889 35.7222,18.1556 36.5,17.5C 37.1556,16.7222 37.9889,16.0556 39,15.5C 40.3333,16.1667 41.6667,16.8333 43,17.5C 45.2306,14.949 47.3972,14.949 49.5,17.5C 53.4062,13.898 57.0728,13.898 60.5,17.5C 61.2164,16.689 62.0497,16.0223 63,15.5C 65.5614,19.0916 68.0614,22.7583 70.5,26.5C 69.8118,27.8549 68.8118,28.8549 67.5,29.5 Z"/></g>
<g><path style="opacity:1" fill="#f5f6aa" d="M 36.5,17.5 C 35.7222,18.1556 35.0556,18.9889 34.5,20C 35.8207,22.3286 37.8207,23.662 40.5,24C 39.3279,24.4186 38.3279,25.0853 37.5,26C 45.8633,26.7488 46.1967,27.7488 38.5,29C 39.7736,29.9772 39.7736,30.8106 38.5,31.5C 38.1667,31.5 37.8333,31.5 37.5,31.5C 36.8485,30.9094 36.1818,30.2427 35.5,29.5C 34.377,31.289 33.0436,31.6224 31.5,30.5C 25.9452,25.3113 26.2786,20.4779 32.5,16C 33.8649,16.1433 35.1982,16.6433 36.5,17.5 Z"/></g>
<g><path style="opacity:1" fill="#fafac2" d="M 57.5,21.5 C 62.1103,21.5959 62.4436,22.5959 58.5,24.5C 56.1667,25.8333 53.8333,25.8333 51.5,24.5C 53.9749,24.0358 55.9749,23.0358 57.5,21.5 Z"/></g>
<g><path style="opacity:1" fill="#7b4651" d="M 67.5,29.5 C 67.5,30.5 67.5,31.5 67.5,32.5C 64.1667,32.5 60.8333,32.5 57.5,32.5C 54.6029,32.3187 51.7695,32.6521 49,33.5C 46.3309,32.9839 43.8309,32.3173 41.5,31.5C 43.7989,30.8621 45.9656,29.8621 48,28.5C 49.3287,29.4939 50.662,30.4939 52,31.5C 54.6575,30.003 57.4908,29.003 60.5,28.5C 61.6652,29.4911 62.8319,30.4911 64,31.5C 65.0769,30.5705 66.2436,29.9038 67.5,29.5 Z"/></g>
<g><path style="opacity:1" fill="#f5f3f3" d="M 57.5,32.5 C 60.8333,32.5 64.1667,32.5 67.5,32.5C 67.5,34.1667 67.5,35.8333 67.5,37.5C 65.8333,37.5 64.1667,37.5 62.5,37.5C 61.5,37.5 60.5,37.5 59.5,37.5C 58.5,37.5 57.5,37.5 56.5,37.5C 56.1667,37.5 55.8333,37.5 55.5,37.5C 55.3893,36.8826 55.056,36.3826 54.5,36C 51.1667,35.6667 47.8333,35.3333 44.5,35C 48.8897,34.2278 53.223,34.3945 57.5,35.5C 58.5624,34.5754 58.5624,33.5754 57.5,32.5 Z"/></g>
<g><path style="opacity:1" fill="#c1bcc6" d="M 41.5,31.5 C 43.8309,32.3173 46.3309,32.9839 49,33.5C 51.7695,32.6521 54.6029,32.3187 57.5,32.5C 58.5624,33.5754 58.5624,34.5754 57.5,35.5C 53.223,34.3945 48.8897,34.2278 44.5,35C 47.8333,35.3333 51.1667,35.6667 54.5,36C 55.056,36.3826 55.3893,36.8826 55.5,37.5C 54.8333,37.5 54.1667,37.5 53.5,37.5C 52.5,37.5 51.5,37.5 50.5,37.5C 50.1667,37.5 49.8333,37.5 49.5,37.5C 48.8333,37.5 48.1667,37.5 47.5,37.5C 45.5,37.5 43.5,37.5 41.5,37.5C 41.5,38.5 41.5,39.5 41.5,40.5C 41.7989,42.604 41.4656,44.604 40.5,46.5C 39.6143,45.675 39.281,44.675 39.5,43.5C 40.1667,39.5 40.8333,35.5 41.5,31.5 Z"/></g>
<g><path style="opacity:1" fill="#87809b" d="M 37.5,31.5 C 37.8333,31.5 38.1667,31.5 38.5,31.5C 38.1667,33.5 37.8333,35.5 37.5,37.5C 34.5,37.5 31.5,37.5 28.5,37.5C 28.5,35.8333 28.5,34.1667 28.5,32.5C 31.7131,32.81 34.7131,32.4767 37.5,31.5 Z"/></g>
<g><path style="opacity:1" fill="#69394e" d="M 47.5,37.5 C 47.5,47.8333 47.5,58.1667 47.5,68.5C 45.8333,68.5 44.1667,68.5 42.5,68.5C 41.5688,58.9991 41.2355,49.6658 41.5,40.5C 41.5,39.5 41.5,38.5 41.5,37.5C 43.5,37.5 45.5,37.5 47.5,37.5 Z"/></g>
<g><path style="opacity:1" fill="#3f2544" d="M 53.5,37.5 C 54.1667,37.5 54.8333,37.5 55.5,37.5C 55.5,47.8333 55.5,58.1667 55.5,68.5C 54.8333,68.5 54.1667,68.5 53.5,68.5C 53.5,58.1667 53.5,47.8333 53.5,37.5 Z"/></g>
<g><path style="opacity:1" fill="#753f50" d="M 55.5,37.5 C 55.8333,37.5 56.1667,37.5 56.5,37.5C 58.0552,40.019 58.7219,42.8524 58.5,46C 56.8437,53.311 56.177,60.811 56.5,68.5C 56.1667,68.5 55.8333,68.5 55.5,68.5C 55.5,58.1667 55.5,47.8333 55.5,37.5 Z"/></g>
<g><path style="opacity:1" fill="#452845" d="M 59.5,37.5 C 60.5,37.5 61.5,37.5 62.5,37.5C 62.5,47.8333 62.5,58.1667 62.5,68.5C 61.5,68.5 60.5,68.5 59.5,68.5C 59.5,58.1667 59.5,47.8333 59.5,37.5 Z"/></g>
<g><path style="opacity:1" fill="#b25f4e" d="M 62.5,37.5 C 64.1667,37.5 65.8333,37.5 67.5,37.5C 67.5,47.8333 67.5,58.1667 67.5,68.5C 65.8333,68.5 64.1667,68.5 62.5,68.5C 62.5,58.1667 62.5,47.8333 62.5,37.5 Z"/></g>
<g><path style="opacity:1" fill="#3d2543" d="M 28.5,37.5 C 31.5,37.5 34.5,37.5 37.5,37.5C 37.5,38.5 37.5,39.5 37.5,40.5C 37.5,49.8333 37.5,59.1667 37.5,68.5C 34.5,68.5 31.5,68.5 28.5,68.5C 26.076,68.8076 23.7427,68.4742 21.5,67.5C 19.9951,66.1585 19.3285,64.4918 19.5,62.5C 20.8333,62.5 22.1667,62.5 23.5,62.5C 24.9187,63.4511 26.5853,63.7845 28.5,63.5C 28.5,56.5 28.5,49.5 28.5,42.5C 26.5853,42.2155 24.9187,42.5489 23.5,43.5C 23.1667,43.5 22.8333,43.5 22.5,43.5C 21.5,43.5 20.5,43.5 19.5,43.5C 19.178,41.2776 19.8446,39.4443 21.5,38C 23.8098,37.5034 26.1432,37.3367 28.5,37.5 Z"/></g>
<g><path style="opacity:1" fill="#432745" d="M 47.5,37.5 C 48.1667,37.5 48.8333,37.5 49.5,37.5C 49.5,47.8333 49.5,58.1667 49.5,68.5C 48.8333,68.5 48.1667,68.5 47.5,68.5C 47.5,58.1667 47.5,47.8333 47.5,37.5 Z"/></g>
<g><path style="opacity:1" fill="#7c4250" d="M 49.5,37.5 C 49.8333,37.5 50.1667,37.5 50.5,37.5C 50.6666,47.7505 50.6666,58.0839 50.5,68.5C 50.1667,68.5 49.8333,68.5 49.5,68.5C 49.5,58.1667 49.5,47.8333 49.5,37.5 Z"/></g>
<g><path style="opacity:1" fill="#b15d4d" d="M 50.5,37.5 C 51.5,37.5 52.5,37.5 53.5,37.5C 53.5,47.8333 53.5,58.1667 53.5,68.5C 52.5,68.5 51.5,68.5 50.5,68.5C 50.6666,58.0839 50.6666,47.7505 50.5,37.5 Z"/></g>
<g><path style="opacity:1" fill="#87829c" d="M 19.5,43.5 C 20.5,43.5 21.5,43.5 22.5,43.5C 20.4993,48.6922 20.1659,54.0255 21.5,59.5C 22.1667,60.1667 22.8333,60.8333 23.5,61.5C 24.1067,61.3764 24.44,61.0431 24.5,60.5C 25.7574,61.6226 25.4241,62.2893 23.5,62.5C 22.1667,62.5 20.8333,62.5 19.5,62.5C 18.6236,62.6309 17.9569,62.2975 17.5,61.5C 18.7243,58.8687 19.391,56.0354 19.5,53C 19.0447,49.5887 19.0447,46.4221 19.5,43.5 Z"/></g>
<g><path style="opacity:1" fill="#1f3754" d="M 23.5,43.5 C 24.9187,42.5489 26.5853,42.2155 28.5,42.5C 28.5,49.5 28.5,56.5 28.5,63.5C 26.5853,63.7845 24.9187,63.4511 23.5,62.5C 25.4241,62.2893 25.7574,61.6226 24.5,60.5C 23.8362,58.1903 23.5029,55.6903 23.5,53C 23.609,49.9646 24.2757,47.1313 25.5,44.5C 25.0431,43.7025 24.3764,43.3691 23.5,43.5 Z"/></g>
<g><path style="opacity:1" fill="#c3bcca" d="M 22.5,43.5 C 22.8333,43.5 23.1667,43.5 23.5,43.5C 24.3764,43.3691 25.0431,43.7025 25.5,44.5C 24.2757,47.1313 23.609,49.9646 23.5,53C 23.5029,55.6903 23.8362,58.1903 24.5,60.5C 24.44,61.0431 24.1067,61.3764 23.5,61.5C 22.8333,60.8333 22.1667,60.1667 21.5,59.5C 20.1659,54.0255 20.4993,48.6922 22.5,43.5 Z"/></g>
<g><path style="opacity:1" fill="#342041" d="M 37.5,40.5 C 39.0481,40.8212 39.7148,41.8212 39.5,43.5C 39.281,44.675 39.6143,45.675 40.5,46.5C 41.4656,44.604 41.7989,42.604 41.5,40.5C 41.2355,49.6658 41.5688,58.9991 42.5,68.5C 42.1667,68.5 41.8333,68.5 41.5,68.5C 40.1667,68.5 38.8333,68.5 37.5,68.5C 37.5,59.1667 37.5,49.8333 37.5,40.5 Z"/></g>
<g><path style="opacity:1" fill="#bd634e" d="M 56.5,37.5 C 57.5,37.5 58.5,37.5 59.5,37.5C 59.5,47.8333 59.5,58.1667 59.5,68.5C 58.5,68.5 57.5,68.5 56.5,68.5C 56.177,60.811 56.8437,53.311 58.5,46C 58.7219,42.8524 58.0552,40.019 56.5,37.5 Z"/></g>
<g><path style="opacity:1" fill="#f5f5f6" d="M 56.5,68.5 C 57.5,68.5 58.5,68.5 59.5,68.5C 60.5,68.5 61.5,68.5 62.5,68.5C 64.1667,68.5 65.8333,68.5 67.5,68.5C 67.5,69.8333 67.5,71.1667 67.5,72.5C 64.8333,72.5 62.1667,72.5 59.5,72.5C 58.3915,71.71 57.0581,71.21 55.5,71C 56.2524,70.3292 56.5858,69.4959 56.5,68.5 Z"/></g>
<g><path style="opacity:1" fill="#bfbbc9" d="M 41.5,68.5 C 41.8333,68.5 42.1667,68.5 42.5,68.5C 44.1667,68.5 45.8333,68.5 47.5,68.5C 48.1667,68.5 48.8333,68.5 49.5,68.5C 49.8333,68.5 50.1667,68.5 50.5,68.5C 51.5,68.5 52.5,68.5 53.5,68.5C 54.1667,68.5 54.8333,68.5 55.5,68.5C 55.8333,68.5 56.1667,68.5 56.5,68.5C 56.5858,69.4959 56.2524,70.3292 55.5,71C 57.0581,71.21 58.3915,71.71 59.5,72.5C 53.8333,72.5 48.1667,72.5 42.5,72.5C 41.3915,71.71 40.0581,71.21 38.5,71C 39.9423,70.6232 40.9423,69.7899 41.5,68.5 Z"/></g>
<g><path style="opacity:1" fill="#938ea8" d="M 28.5,68.5 C 31.5,68.5 34.5,68.5 37.5,68.5C 38.8333,68.5 40.1667,68.5 41.5,68.5C 40.9423,69.7899 39.9423,70.6232 38.5,71C 40.0581,71.21 41.3915,71.71 42.5,72.5C 37.8333,72.5 33.1667,72.5 28.5,72.5C 28.5,71.1667 28.5,69.8333 28.5,68.5 Z"/></g>
<g><path style="opacity:1" fill="#8a6775" d="M 28.5,73.5 C 28.5,73.1667 28.5,72.8333 28.5,72.5C 33.1667,72.5 37.8333,72.5 42.5,72.5C 48.1667,72.5 53.8333,72.5 59.5,72.5C 62.1667,72.5 64.8333,72.5 67.5,72.5C 67.5,72.8333 67.5,73.1667 67.5,73.5C 64.9664,73.2591 63.2998,74.2591 62.5,76.5C 61.8333,76.5 61.1667,76.5 60.5,76.5C 58.1667,76.5 55.8333,76.5 53.5,76.5C 53.5,75.5 53.5,74.5 53.5,73.5C 52.1667,73.5 50.8333,73.5 49.5,73.5C 47.1667,73.5 44.8333,73.5 42.5,73.5C 37.8333,73.5 33.1667,73.5 28.5,73.5 Z"/></g>
<g><path style="opacity:1" fill="#2c1536" d="M 28.5,73.5 C 33.1667,73.5 37.8333,73.5 42.5,73.5C 42.9175,74.2216 43.5842,74.7216 44.5,75C 39.1771,75.4994 33.8437,75.666 28.5,75.5C 28.5,74.8333 28.5,74.1667 28.5,73.5 Z"/></g>
<g><path style="opacity:1" fill="#b35c4a" d="M 49.5,73.5 C 50.8333,73.5 52.1667,73.5 53.5,73.5C 53.5,74.5 53.5,75.5 53.5,76.5C 52.1667,76.5 50.8333,76.5 49.5,76.5C 48.1667,75.5 48.1667,74.5 49.5,73.5 Z"/></g>
<g><path style="opacity:1" fill="#b45d4b" d="M 67.5,73.5 C 67.5,74.5 67.5,75.5 67.5,76.5C 65.8333,76.5 64.1667,76.5 62.5,76.5C 63.2998,74.2591 64.9664,73.2591 67.5,73.5 Z"/></g>
<g><path style="opacity:1" fill="#553b56" d="M 42.5,73.5 C 44.8333,73.5 47.1667,73.5 49.5,73.5C 48.1667,74.5 48.1667,75.5 49.5,76.5C 47.1667,76.5 44.8333,76.5 42.5,76.5C 37.8333,76.5 33.1667,76.5 28.5,76.5C 28.5,76.1667 28.5,75.8333 28.5,75.5C 33.8437,75.666 39.1771,75.4994 44.5,75C 43.5842,74.7216 42.9175,74.2216 42.5,73.5 Z"/></g>
<g><path style="opacity:1" fill="#72788e" d="M 28.5,76.5 C 33.1667,76.5 37.8333,76.5 42.5,76.5C 40.6309,77.1646 38.6309,77.8313 36.5,78.5C 37,78.8333 37.5,79.1667 38,79.5C 43.1159,80.4249 48.2825,80.7582 53.5,80.5C 58.5,80.5 63.5,80.5 68.5,80.5C 68.5,79.1667 68.5,77.8333 68.5,76.5C 69.4511,77.9187 69.7845,79.5853 69.5,81.5C 55.5,81.5 41.5,81.5 27.5,81.5C 27.2155,79.5853 27.5489,77.9187 28.5,76.5 Z"/></g>
<g><path style="opacity:1" fill="#bfbac8" d="M 42.5,76.5 C 44.8333,76.5 47.1667,76.5 49.5,76.5C 50.8333,76.5 52.1667,76.5 53.5,76.5C 55.8333,76.5 58.1667,76.5 60.5,76.5C 58.5118,78.4915 56.1785,79.8248 53.5,80.5C 48.2825,80.7582 43.1159,80.4249 38,79.5C 37.5,79.1667 37,78.8333 36.5,78.5C 38.6309,77.8313 40.6309,77.1646 42.5,76.5 Z"/></g>
<g><path style="opacity:1" fill="#f6f5f7" d="M 60.5,76.5 C 61.1667,76.5 61.8333,76.5 62.5,76.5C 64.1667,76.5 65.8333,76.5 67.5,76.5C 67.8333,76.5 68.1667,76.5 68.5,76.5C 68.5,77.8333 68.5,79.1667 68.5,80.5C 63.5,80.5 58.5,80.5 53.5,80.5C 56.1785,79.8248 58.5118,78.4915 60.5,76.5 Z"/></g>
</svg>
