<?xml version="1.0" encoding="UTF-8"?>
<!DOCTYPE svg PUBLIC "-//W3C//DTD SVG 1.1//EN" "http://www.w3.org/Graphics/SVG/1.1/DTD/svg11.dtd">
<svg xmlns="http://www.w3.org/2000/svg" version="1.1" width="96px" height="96px" style="shape-rendering:geometricPrecision; text-rendering:geometricPrecision; image-rendering:optimizeQuality; fill-rule:evenodd; clip-rule:evenodd" xmlns:xlink="http://www.w3.org/1999/xlink">
<g><path style="opacity:0.867" fill="#351945" d="M 37.5,-0.5 C 44.1667,-0.5 50.8333,-0.5 57.5,-0.5C 76.7283,5.0612 89.3949,17.3945 95.5,36.5C 95.5,43.5 95.5,50.5 95.5,57.5C 93.9407,62.6332 91.7741,67.6332 89,72.5C 85.3333,77.5 81.6667,82.5 78,87.5C 72.5683,91.2458 66.735,93.9125 60.5,95.5C 51.8333,95.5 43.1667,95.5 34.5,95.5C 28.265,93.9125 22.4317,91.2458 17,87.5C 13.3333,82.5 9.66667,77.5 6,72.5C 3.22592,67.6332 1.05926,62.6332 -0.5,57.5C -0.5,50.5 -0.5,43.5 -0.5,36.5C 5.60508,17.3945 18.2717,5.0612 37.5,-0.5 Z"/></g>
<g><path style="opacity:1" fill="#f8699f" d="M 75.5,37.5 C 72.4729,33.8062 69.1396,30.4729 65.5,27.5C 70.5839,25.1315 74.0839,26.4648 76,31.5C 76.7891,33.7116 76.6225,35.7116 75.5,37.5 Z"/></g>
<g><path style="opacity:1" fill="#f4689e" d="M 29.5,27.5 C 25.8604,30.4729 22.5271,33.8062 19.5,37.5C 18.1241,34.0671 18.6241,30.7338 21,27.5C 23.7742,26.477 26.6075,26.477 29.5,27.5 Z"/></g>
<g><path style="opacity:1" fill="#b74a93" d="M 28.5,25.5 C 28.8333,26.1667 29.1667,26.8333 29.5,27.5C 26.6075,26.477 23.7742,26.477 21,27.5C 18.6241,30.7338 18.1241,34.0671 19.5,37.5C 19.2172,38.2891 18.7172,38.9558 18,39.5C 17.2093,35.0745 17.5427,30.7411 19,26.5C 19.6891,25.6433 20.5224,24.9767 21.5,24.5C 23.7466,25.3742 26.0799,25.7076 28.5,25.5 Z"/></g>
<g><path style="opacity:1" fill="#b64a94" d="M 75.5,37.5 C 76.6225,35.7116 76.7891,33.7116 76,31.5C 74.0839,26.4648 70.5839,25.1315 65.5,27.5C 65.8333,26.8333 66.1667,26.1667 66.5,25.5C 74.5541,22.8758 78.2207,25.8758 77.5,34.5C 77.3333,36.1667 77.1667,37.8333 77,39.5C 76.2828,38.9558 75.7828,38.2891 75.5,37.5 Z"/></g>
<g><path style="opacity:1" fill="#eaa542" d="M 80.5,29.5 C 80.8205,34.6946 80.4872,39.6946 79.5,44.5C 78.9559,38.1387 78.1226,31.8054 77,25.5C 73.4575,21.5803 69.9575,21.5803 66.5,25.5C 58.9341,27.1881 58.6008,26.0214 65.5,22C 74.563,16.7122 79.563,19.2122 80.5,29.5 Z"/></g>
<g><path style="opacity:1" fill="#e9a542" d="M 28.5,25.5 C 24.9566,21.7322 21.4566,21.7322 18,25.5C 16.8774,31.8054 16.0441,38.1387 15.5,44.5C 14.5128,39.6946 14.1795,34.6946 14.5,29.5C 14.5907,25.8177 15.924,22.651 18.5,20C 24.6345,19.7288 29.9678,21.7288 34.5,26C 32.4546,26.4901 30.4546,26.3235 28.5,25.5 Z"/></g>
<g><path style="opacity:1" fill="#e64142" d="M 46.5,2.5 C 46.5,3.16667 46.5,3.83333 46.5,4.5C 44.1131,9.60486 41.4464,14.6049 38.5,19.5C 40.396,20.4656 42.396,20.7989 44.5,20.5C 42.7078,21.3091 40.7078,21.8091 38.5,22C 44.5,24 50.5,24 56.5,22C 53.9644,21.8138 51.631,21.3138 49.5,20.5C 52.1667,20.5 54.8333,20.5 57.5,20.5C 59.7564,21.4385 62.0897,21.4385 64.5,20.5C 62.462,22.5316 60.1286,24.1982 57.5,25.5C 50.4805,24.2016 43.4805,24.2016 36.5,25.5C 31.9987,21.2493 26.6654,18.5827 20.5,17.5C 16.4004,19.1049 13.9004,22.1049 13,26.5C 12.2351,33.8636 12.4018,41.197 13.5,48.5C 11.8625,54.1039 10.5292,59.7705 9.5,65.5C 9.66667,67.1667 9.83333,68.8333 10,70.5C 11.828,74.5071 13.828,78.1737 16,81.5C 4.91925,70.0936 0.0859124,56.4269 1.5,40.5C 4.00894,34.9902 6.34228,29.3235 8.5,23.5C 17.9629,10.7672 30.6296,3.76723 46.5,2.5 Z"/></g>
<g><path style="opacity:1" fill="#e74141" d="M 46.5,2.5 C 51.9227,2.51847 57.256,3.18514 62.5,4.5C 78.6847,9.85433 88.8514,20.8543 93,37.5C 95.5405,54.5423 90.8738,69.209 79,81.5C 78.8333,81.1667 78.6667,80.8333 78.5,80.5C 82.8663,76.2663 85.1996,71.0996 85.5,65C 83.7253,58.9429 82.392,52.7763 81.5,46.5C 82.3382,46.1583 82.6716,45.4916 82.5,44.5C 82.6662,38.4908 82.4995,32.4908 82,26.5C 78.9078,16.8899 73.0745,14.8899 64.5,20.5C 62.0897,21.4385 59.7564,21.4385 57.5,20.5C 54.8333,12.5 52.1667,12.5 49.5,20.5C 51.631,21.3138 53.9644,21.8138 56.5,22C 50.5,24 44.5,24 38.5,22C 40.7078,21.8091 42.7078,21.3091 44.5,20.5C 46.9925,17.524 48.9925,14.1907 50.5,10.5C 50.1228,7.71376 48.7894,5.71376 46.5,4.5C 46.5,3.83333 46.5,3.16667 46.5,2.5 Z"/></g>
<g><path style="opacity:1" fill="#feeceb" d="M 57.5,20.5 C 54.8333,20.5 52.1667,20.5 49.5,20.5C 52.1667,12.5 54.8333,12.5 57.5,20.5 Z"/></g>
<g><path style="opacity:1" fill="#fef5f5" d="M 46.5,4.5 C 48.7894,5.71376 50.1228,7.71376 50.5,10.5C 48.9925,14.1907 46.9925,17.524 44.5,20.5C 42.396,20.7989 40.396,20.4656 38.5,19.5C 41.4464,14.6049 44.1131,9.60486 46.5,4.5 Z"/></g>
<g><path style="opacity:1" fill="#e5898c" d="M 62.5,4.5 C 57.256,3.18514 51.9227,2.51847 46.5,2.5C 30.6296,3.76723 17.9629,10.7672 8.5,23.5C 19.5723,5.80446 35.5723,-1.36221 56.5,2C 58.8516,2.24013 60.8516,3.07346 62.5,4.5 Z"/></g>
<g><path style="opacity:1" fill="#eecfa0" d="M 56.5,27.5 C 48.6177,27.1932 40.951,28.0265 33.5,30C 28.809,31.8576 24.809,34.691 21.5,38.5C 25.6467,31.8816 31.6467,27.7149 39.5,26C 44.1667,25.3333 48.8333,25.3333 53.5,26C 54.7375,26.2321 55.7375,26.7321 56.5,27.5 Z"/></g>
<g><path style="opacity:1" fill="#eace9f" d="M 56.5,27.5 C 62.8168,27.8235 67.8168,30.4901 71.5,35.5C 66.9052,32.0365 61.9052,29.3698 56.5,27.5 Z"/></g>
<g><path style="opacity:1" fill="#f99b28" d="M 56.5,27.5 C 61.9052,29.3698 66.9052,32.0365 71.5,35.5C 77.214,41.2648 80.5473,48.2648 81.5,56.5C 78.3167,59.1845 75.3167,62.0179 72.5,65C 69.5,65.6667 66.5,65.6667 63.5,65C 60.9278,62.7132 57.9278,61.5465 54.5,61.5C 53.713,59.8958 52.3797,59.2291 50.5,59.5C 47.0448,58.0138 43.7115,58.3472 40.5,60.5C 37.2432,61.4617 34.2432,62.9617 31.5,65C 28.5,65.6667 25.5,65.6667 22.5,65C 19.657,61.99 16.657,59.1567 13.5,56.5C 14.0592,49.4625 16.7258,43.4625 21.5,38.5C 24.809,34.691 28.809,31.8576 33.5,30C 40.951,28.0265 48.6177,27.1932 56.5,27.5 Z"/></g>
<g><path style="opacity:1" fill="#d3767d" d="M 8.5,23.5 C 6.34228,29.3235 4.00894,34.9902 1.5,40.5C 2.09675,34.0249 4.43009,28.3582 8.5,23.5 Z"/></g>
<g><path style="opacity:1" fill="#a98e8c" d="M 14.5,29.5 C 14.1795,34.6946 14.5128,39.6946 15.5,44.5C 15.44,45.0431 15.1067,45.3764 14.5,45.5C 13.1853,40.0136 13.1853,34.6803 14.5,29.5 Z"/></g>
<g><path style="opacity:1" fill="#a18384" d="M 80.5,29.5 C 81.1667,34.5 81.8333,39.5 82.5,44.5C 82.6716,45.4916 82.3382,46.1583 81.5,46.5C 80.8333,45.8333 80.1667,45.1667 79.5,44.5C 80.4872,39.6946 80.8205,34.6946 80.5,29.5 Z"/></g>
<g><path style="opacity:1" fill="#fff2e4" d="M 34.5,45.5 C 37.8333,45.5 39.5,47.1667 39.5,50.5C 35.2469,50.9202 33.5802,49.2535 34.5,45.5 Z"/></g>
<g><path style="opacity:1" fill="#ffeedb" d="M 58.5,45.5 C 59.9953,45.4148 60.9953,46.0815 61.5,47.5C 60.2723,50.0715 58.2723,51.4048 55.5,51.5C 55.0283,48.6421 56.0283,46.6421 58.5,45.5 Z"/></g>
<g><path style="opacity:1" fill="#361546" d="M 26.5,52.5 C 31.5568,51.8466 35.5568,53.5133 38.5,57.5C 37.635,58.5827 36.635,58.7494 35.5,58C 32.5425,55.7681 29.5425,53.9348 26.5,52.5 Z"/></g>
<g><path style="opacity:1" fill="#371646" d="M 61.5,52.5 C 69.8865,52.7724 70.2198,53.6058 62.5,55C 61.2748,56.563 59.7748,57.7297 58,58.5C 56.7425,58.1501 56.4092,57.4835 57,56.5C 58.3968,54.9297 59.8968,53.5964 61.5,52.5 Z"/></g>
<g><path style="opacity:1" fill="#f8f7f9" d="M 13.5,56.5 C 16.657,59.1567 19.657,61.99 22.5,65C 25.5,65.6667 28.5,65.6667 31.5,65C 34.2432,62.9617 37.2432,61.4617 40.5,60.5C 40.9429,63.6238 42.6095,65.9571 45.5,67.5C 45.2907,68.086 44.9574,68.586 44.5,69C 39.8533,70.4804 36.1867,69.3137 33.5,65.5C 33.1667,66 32.8333,66.5 32.5,67C 33.464,68.9638 34.7974,70.6305 36.5,72C 38.3944,81.2755 43.7277,84.6088 52.5,82C 55.8827,78.1334 58.716,73.9668 61,69.5C 61.6538,66.1966 61.1538,65.8632 59.5,68.5C 57.8008,68.6602 56.1341,68.4935 54.5,68C 53.244,67.5831 52.5774,66.7498 52.5,65.5C 53.6005,64.3951 54.2671,63.0618 54.5,61.5C 57.9278,61.5465 60.9278,62.7132 63.5,65C 66.5,65.6667 69.5,65.6667 72.5,65C 75.3167,62.0179 78.3167,59.1845 81.5,56.5C 82.404,57.209 82.7373,58.209 82.5,59.5C 82.8199,71.3657 77.1533,78.8657 65.5,82C 54.2278,84.7972 42.8945,85.1305 31.5,83C 23.3068,80.6646 17.1401,75.8312 13,68.5C 12.502,65.5184 12.3354,62.5184 12.5,59.5C 12.2627,58.209 12.596,57.209 13.5,56.5 Z"/></g>
<g><path style="opacity:1" fill="#341942" d="M 50.5,59.5 C 52.3797,59.2291 53.713,59.8958 54.5,61.5C 54.2671,63.0618 53.6005,64.3951 52.5,65.5C 48.5957,66.8848 48.5957,68.3848 52.5,70C 55.2116,70.8258 57.5449,70.3258 59.5,68.5C 61.1538,65.8632 61.6538,66.1966 61,69.5C 58.716,73.9668 55.8827,78.1334 52.5,82C 43.7277,84.6088 38.3944,81.2755 36.5,72C 34.7974,70.6305 33.464,68.9638 32.5,67C 32.8333,66.5 33.1667,66 33.5,65.5C 36.1867,69.3137 39.8533,70.4804 44.5,69C 44.9574,68.586 45.2907,68.086 45.5,67.5C 42.6095,65.9571 40.9429,63.6238 40.5,60.5C 43.7115,58.3472 47.0448,58.0138 50.5,59.5 Z"/></g>
<g><path style="opacity:1" fill="#b2b2d4" d="M 12.5,59.5 C 12.3354,62.5184 12.502,65.5184 13,68.5C 17.1401,75.8312 23.3068,80.6646 31.5,83C 42.8945,85.1305 54.2278,84.7972 65.5,82C 77.1533,78.8657 82.8199,71.3657 82.5,59.5C 85.1478,68.7163 82.4811,76.2163 74.5,82C 62.2334,88.2281 49.2334,90.2281 35.5,88C 21.8245,85.9872 13.8245,78.3205 11.5,65C 11.5056,62.9674 11.8389,61.134 12.5,59.5 Z"/></g>
<g><path style="opacity:1" fill="#ae3389" d="M 41.5,75.5 C 45.5,80.8333 49.5,80.8333 53.5,75.5C 54.8026,77.7569 54.136,79.5902 51.5,81C 47.4087,82.2272 43.9087,81.3939 41,78.5C 40.2599,77.2506 40.4265,76.2506 41.5,75.5 Z"/></g>
<g><path style="opacity:1" fill="#f54993" d="M 53.5,75.5 C 49.5,80.8333 45.5,80.8333 41.5,75.5C 45.5,72.8333 49.5,72.8333 53.5,75.5 Z"/></g>
<g><path style="opacity:1" fill="#a9a7ca" d="M 52.5,65.5 C 52.5774,66.7498 53.244,67.5831 54.5,68C 56.1341,68.4935 57.8008,68.6602 59.5,68.5C 57.5449,70.3258 55.2116,70.8258 52.5,70C 48.5957,68.3848 48.5957,66.8848 52.5,65.5 Z"/></g>
<g><path style="opacity:1" fill="#a89fb6" d="M 50.5,59.5 C 50.0296,60.6935 49.0296,61.3601 47.5,61.5C 46.5,61.1667 45.5,60.8333 44.5,60.5C 46.396,59.5344 48.396,59.2011 50.5,59.5 Z"/></g>
<g><path style="opacity:1" fill="#dddcea" d="M 17.5,82.5 C 31.5366,90.5201 46.5366,92.6868 62.5,89C 67.5474,87.6428 72.2141,85.4762 76.5,82.5C 77.2824,84.3293 76.6157,85.8293 74.5,87C 65.6572,91.8317 56.1572,93.9984 46,93.5C 36.3073,94.2263 27.4739,91.893 19.5,86.5C 18.3698,85.3777 17.7031,84.0443 17.5,82.5 Z"/></g>
</svg>
