<?xml version="1.0" encoding="UTF-8"?>
<!DOCTYPE svg PUBLIC "-//W3C//DTD SVG 1.1//EN" "http://www.w3.org/Graphics/SVG/1.1/DTD/svg11.dtd">
<svg xmlns="http://www.w3.org/2000/svg" version="1.1" width="96px" height="96px" style="shape-rendering:geometricPrecision; text-rendering:geometricPrecision; image-rendering:optimizeQuality; fill-rule:evenodd; clip-rule:evenodd" xmlns:xlink="http://www.w3.org/1999/xlink">
<g><path style="opacity:0.924" fill="#336bb1" d="M 37.5,-0.5 C 44.1667,-0.5 50.8333,-0.5 57.5,-0.5C 70.5646,2.88523 80.898,10.2186 88.5,21.5C 87.3121,22.6843 86.1455,22.6843 85,21.5C 84.0053,22.0659 83.172,22.7326 82.5,23.5C 68.5559,6.70343 51.2226,1.87009 30.5,9C 24.7449,11.9309 19.7449,15.7642 15.5,20.5C 13.5,19.8333 11.5,19.1667 9.5,18.5C 13.3697,12.1339 18.703,7.30059 25.5,4C 29.5711,2.36954 33.5711,0.869545 37.5,-0.5 Z"/></g>
<g><path style="opacity:1" fill="#020202" d="M 82.5,23.5 C 85.235,28.7219 87.5684,34.0552 89.5,39.5C 89.8256,46.6154 89.1589,53.6154 87.5,60.5C 85.9443,65.2798 83.6109,69.6131 80.5,73.5C 66.6924,88.8607 50.0257,93.0274 30.5,86C 24.7449,83.0691 19.7449,79.2358 15.5,74.5C 11.808,70.4528 9.14131,65.7862 7.5,60.5C 4.88665,51.4863 4.88665,42.4863 7.5,33.5C 9.38693,28.7339 12.0536,24.4005 15.5,20.5C 19.7449,15.7642 24.7449,11.9309 30.5,9C 51.2226,1.87009 68.5559,6.70343 82.5,23.5 Z"/></g>
<g><path style="opacity:1" fill="#dbdbdb" d="M 33.5,13.5 C 35.337,13.6395 35.6704,14.3061 34.5,15.5C 33.7025,15.0431 33.3691,14.3764 33.5,13.5 Z"/></g>
<g><path style="opacity:1" fill="#c2c2c2" d="M 61.5,17.5 C 63.337,17.6395 63.6704,18.3061 62.5,19.5C 61.7025,19.0431 61.3691,18.3764 61.5,17.5 Z"/></g>
<g><path style="opacity:1" fill="#8e8e8e" d="M 45.5,20.5 C 47.337,20.6395 47.6704,21.3061 46.5,22.5C 45.7025,22.0431 45.3691,21.3764 45.5,20.5 Z"/></g>
<g><path style="opacity:0.916" fill="#4f61a7" d="M 9.5,18.5 C 11.5,19.1667 13.5,19.8333 15.5,20.5C 12.0536,24.4005 9.38693,28.7339 7.5,33.5C 5.62711,33.4827 3.62711,33.1494 1.5,32.5C 3.15884,27.1734 5.8255,22.5067 9.5,18.5 Z"/></g>
<g><path style="opacity:1" fill="#e3e3e3" d="M 52.5,59.5 C 54.1667,59.5 55.8333,59.5 57.5,59.5C 57.5,61.1667 57.5,62.8333 57.5,64.5C 52.0247,65.4889 46.358,65.8222 40.5,65.5C 40.5,53.5 40.5,41.5 40.5,29.5C 42.8056,29.0074 45.139,28.6741 47.5,28.5C 47.5,38.8333 47.5,49.1667 47.5,59.5C 49.1667,59.5 50.8333,59.5 52.5,59.5 Z"/></g>
<g><path style="opacity:1" fill="#939393" d="M 71.5,28.5 C 73.337,28.6395 73.6704,29.3061 72.5,30.5C 71.7025,30.0431 71.3691,29.3764 71.5,28.5 Z"/></g>
<g><path style="opacity:1" fill="#5d5ea4" d="M 88.5,21.5 C 91.4079,26.6428 93.7413,31.9761 95.5,37.5C 95.5,39.1667 95.5,40.8333 95.5,42.5C 93.9582,41.6993 92.2915,41.366 90.5,41.5C 90.7535,39.5992 90.4202,38.9326 89.5,39.5C 87.5684,34.0552 85.235,28.7219 82.5,23.5C 83.172,22.7326 84.0053,22.0659 85,21.5C 86.1455,22.6843 87.3121,22.6843 88.5,21.5 Z"/></g>
<g><path style="opacity:1" fill="#b8b8b8" d="M 24.5,35.5 C 26.337,35.6395 26.6704,36.3061 25.5,37.5C 24.7025,37.0431 24.3691,36.3764 24.5,35.5 Z"/></g>
<g><path style="opacity:1" fill="#929292" d="M 13.5,43.5 C 15.337,43.6395 15.6704,44.3061 14.5,45.5C 13.7025,45.0431 13.3691,44.3764 13.5,43.5 Z"/></g>
<g><path style="opacity:0.961" fill="#75569d" d="M 1.5,32.5 C 3.62711,33.1494 5.62711,33.4827 7.5,33.5C 4.88665,42.4863 4.88665,51.4863 7.5,60.5C 5.16667,60.5 2.83333,60.5 0.5,60.5C 0.737305,59.209 0.403972,58.209 -0.5,57.5C -0.5,50.8333 -0.5,44.1667 -0.5,37.5C 0.309209,35.9724 0.975875,34.3057 1.5,32.5 Z"/></g>
<g><path style="opacity:1" fill="#a0a0a0" d="M 28.5,54.5 C 30.337,54.6395 30.6704,55.3061 29.5,56.5C 28.7025,56.0431 28.3691,55.3764 28.5,54.5 Z"/></g>
<g><path style="opacity:0.957" fill="#7e5298" d="M 95.5,42.5 C 95.5,47.5 95.5,52.5 95.5,57.5C 94.596,58.209 94.2627,59.209 94.5,60.5C 92.1667,60.5 89.8333,60.5 87.5,60.5C 89.1589,53.6154 89.8256,46.6154 89.5,39.5C 90.4202,38.9326 90.7535,39.5992 90.5,41.5C 92.2915,41.366 93.9582,41.6993 95.5,42.5 Z"/></g>
<g><path style="opacity:1" fill="#525252" d="M 52.5,59.5 C 54.2646,58.5386 56.2646,58.2053 58.5,58.5C 58.7947,60.7354 58.4614,62.7354 57.5,64.5C 57.5,62.8333 57.5,61.1667 57.5,59.5C 55.8333,59.5 54.1667,59.5 52.5,59.5 Z"/></g>
<g><path style="opacity:1" fill="#959595" d="M 16.5,62.5 C 18.337,62.6395 18.6704,63.3061 17.5,64.5C 16.7025,64.0431 16.3691,63.3764 16.5,62.5 Z"/></g>
<g><path style="opacity:0.98" fill="#994a91" d="M 87.5,60.5 C 89.8333,60.5 92.1667,60.5 94.5,60.5C 92.5954,65.9797 89.9287,70.9797 86.5,75.5C 84.1137,75.7413 82.1137,75.0746 80.5,73.5C 83.6109,69.6131 85.9443,65.2798 87.5,60.5 Z"/></g>
<g><path style="opacity:0.89" fill="#9c488f" d="M 7.5,60.5 C 9.14131,65.7862 11.808,70.4528 15.5,74.5C 14.3552,75.7927 14.6885,76.9593 16.5,78C 14.6183,78.1981 12.9516,78.6981 11.5,79.5C 6.55838,73.9561 2.89172,67.6227 0.5,60.5C 2.83333,60.5 5.16667,60.5 7.5,60.5 Z"/></g>
<g><path style="opacity:0.96" fill="#ba3f87" d="M 80.5,73.5 C 82.1137,75.0746 84.1137,75.7413 86.5,75.5C 79.3707,85.894 69.704,92.5607 57.5,95.5C 50.8333,95.5 44.1667,95.5 37.5,95.5C 27.3033,92.7311 18.6367,87.3978 11.5,79.5C 12.9516,78.6981 14.6183,78.1981 16.5,78C 14.6885,76.9593 14.3552,75.7927 15.5,74.5C 19.7449,79.2358 24.7449,83.0691 30.5,86C 50.0257,93.0274 66.6924,88.8607 80.5,73.5 Z"/></g>
<g><path style="opacity:1" fill="#a7a7a7" d="M 40.5,80.5 C 42.337,80.6395 42.6704,81.3061 41.5,82.5C 40.7025,82.0431 40.3691,81.3764 40.5,80.5 Z"/></g>
<g><path style="opacity:1" fill="#c7c7c7" d="M 60.5,77.5 C 62.337,77.6395 62.6704,78.3061 61.5,79.5C 60.7025,79.0431 60.3691,78.3764 60.5,77.5 Z"/></g>
</svg>
