<?xml version="1.0" encoding="UTF-8"?>
<!DOCTYPE svg PUBLIC "-//W3C//DTD SVG 1.1//EN" "http://www.w3.org/Graphics/SVG/1.1/DTD/svg11.dtd">
<svg xmlns="http://www.w3.org/2000/svg" version="1.1" width="96px" height="96px" style="shape-rendering:geometricPrecision; text-rendering:geometricPrecision; image-rendering:optimizeQuality; fill-rule:evenodd; clip-rule:evenodd" xmlns:xlink="http://www.w3.org/1999/xlink">
<g><path style="opacity:0.02" fill="#77ff8a" d="M 11.5,10.5 C 12.9953,10.4148 13.9953,11.0815 14.5,12.5C 13.6798,14.1112 12.3464,14.7778 10.5,14.5C 10.4326,13.0413 10.7659,11.7079 11.5,10.5 Z"/></g>
<g><path style="opacity:1" fill="#333724" d="M 42.5,10.5 C 46.3112,9.35472 50.3112,9.18806 54.5,10C 57.1909,10.1558 59.5242,10.9891 61.5,12.5C 58.8589,11.7369 56.1922,11.5702 53.5,12C 52.7476,12.6708 52.4142,13.5041 52.5,14.5C 51.5655,13.4324 51.2322,12.099 51.5,10.5C 48.5,10.5 45.5,10.5 42.5,10.5 Z"/></g>
<g><path style="opacity:1" fill="#360c10" d="M 61.5,12.5 C 62.7624,14.8202 63.7624,17.1535 64.5,19.5C 62.3451,20.4104 60.3451,21.5771 58.5,23C 61.1047,24.9308 61.1047,26.7642 58.5,28.5C 57.8333,28.1667 57.1667,27.8333 56.5,27.5C 54.9378,31.1601 54.6045,34.8268 55.5,38.5C 54.2521,37.6661 53.5854,36.3328 53.5,34.5C 53.6571,31.3807 54.3237,28.3807 55.5,25.5C 59.5163,27.0915 60.183,26.4248 57.5,23.5C 56.1667,22.0665 54.6667,20.7332 53,19.5C 52.5065,17.8659 52.3398,16.1992 52.5,14.5C 52.4142,13.5041 52.7476,12.6708 53.5,12C 56.1922,11.5702 58.8589,11.7369 61.5,12.5 Z"/></g>
<g><path style="opacity:1" fill="#ebe7e8" d="M 57.5,23.5 C 60.183,26.4248 59.5163,27.0915 55.5,25.5C 54.3237,28.3807 53.6571,31.3807 53.5,34.5C 53.5854,36.3328 54.2521,37.6661 55.5,38.5C 56.6591,40.3769 58.3258,40.8769 60.5,40C 63.3116,38.0227 65.9783,35.856 68.5,33.5C 64.2884,30.4036 64.6218,29.4036 69.5,30.5C 74.2636,33.91 75.5969,38.5767 73.5,44.5C 72.7022,42.9223 72.2022,41.2556 72,39.5C 56.6667,45.1667 56.6667,50.8333 72,56.5C 72.2022,54.7444 72.7022,53.0777 73.5,51.5C 75.5969,57.4233 74.2636,62.09 69.5,65.5C 68.4168,65.5394 67.4168,65.8728 66.5,66.5C 66.1667,66.1667 65.8333,65.8333 65.5,65.5C 66.7366,64.7193 67.7366,63.7193 68.5,62.5C 65.9783,60.144 63.3116,57.9773 60.5,56C 56.2862,55.3761 53.9528,57.2095 53.5,61.5C 53.6571,64.6193 54.3237,67.6193 55.5,70.5C 56.9948,69.2947 58.3281,69.2947 59.5,70.5C 56.8333,72.1667 54.1667,73.8333 51.5,75.5C 51.1667,75.5 50.8333,75.5 50.5,75.5C 50.1671,57.1546 50.5004,38.8212 51.5,20.5C 53.2433,22.0383 55.2433,23.0383 57.5,23.5 Z"/></g>
<g><path style="opacity:1" fill="#4a130f" d="M 61.5,12.5 C 73.6405,16.6432 81.3071,24.9766 84.5,37.5C 84.2594,39.8984 84.9261,41.8984 86.5,43.5C 86.5,44.1667 86.5,44.8333 86.5,45.5C 85.4751,48.9736 84.8084,52.6403 84.5,56.5C 81.4474,69.2863 73.7807,77.953 61.5,82.5C 62.1133,78.7526 62.1133,75.086 61.5,71.5C 61.0431,70.7025 60.3764,70.3691 59.5,70.5C 58.3281,69.2947 56.9948,69.2947 55.5,70.5C 54.3237,67.6193 53.6571,64.6193 53.5,61.5C 53.9528,57.2095 56.2862,55.3761 60.5,56C 63.3116,57.9773 65.9783,60.144 68.5,62.5C 67.7366,63.7193 66.7366,64.7193 65.5,65.5C 65.8333,65.8333 66.1667,66.1667 66.5,66.5C 67.4168,65.8728 68.4168,65.5394 69.5,65.5C 68.0101,67.2798 66.0101,67.9465 63.5,67.5C 63.1505,70.0448 63.9838,72.0448 66,73.5C 74.9487,70.2773 80.1154,63.944 81.5,54.5C 80.8109,48.8529 80.3109,43.1862 80,37.5C 78.6532,31.4866 74.9866,27.8199 69,26.5C 67.9412,26.6301 67.1079,27.1301 66.5,28C 67.9423,28.3768 68.9423,29.2101 69.5,30.5C 64.6218,29.4036 64.2884,30.4036 68.5,33.5C 65.9783,35.856 63.3116,38.0227 60.5,40C 58.3258,40.8769 56.6591,40.3769 55.5,38.5C 54.6045,34.8268 54.9378,31.1601 56.5,27.5C 57.1667,27.8333 57.8333,28.1667 58.5,28.5C 61.1047,26.7642 61.1047,24.9308 58.5,23C 60.3451,21.5771 62.3451,20.4104 64.5,19.5C 63.7624,17.1535 62.7624,14.8202 61.5,12.5 Z"/></g>
<g><path style="opacity:1" fill="#f3f5f6" d="M 32.5,28.5 C 31.3709,30.6282 31.2042,32.9615 32,35.5C 33.9066,39.4103 36.5733,42.7436 40,45.5C 41.7757,58.3759 38.109,59.7092 29,49.5C 26.7922,45.1156 25.9589,40.449 26.5,35.5C 27.7677,28.2179 31.7677,22.8846 38.5,19.5C 38.8333,19.6667 39.1667,19.8333 39.5,20C 35.8571,21.8048 33.5237,24.6381 32.5,28.5 Z"/></g>
<g><path style="opacity:1" fill="#2c1d27" d="M 41.5,10.5 C 41.8333,10.5 42.1667,10.5 42.5,10.5C 45.5,10.5 48.5,10.5 51.5,10.5C 51.2322,12.099 51.5655,13.4324 52.5,14.5C 52.3398,16.1992 52.5065,17.8659 53,19.5C 54.6667,20.7332 56.1667,22.0665 57.5,23.5C 55.2433,23.0383 53.2433,22.0383 51.5,20.5C 50.5004,38.8212 50.1671,57.1546 50.5,75.5C 50.1667,75.5 49.8333,75.5 49.5,75.5C 48.7457,62.8583 48.2457,50.1916 48,37.5C 46.6244,36.2949 45.4577,34.9616 44.5,33.5C 45.6696,29.9257 45.3362,26.5923 43.5,23.5C 44.0219,22.3926 44.3552,21.2259 44.5,20C 43.6781,17.5284 43.0114,15.0284 42.5,12.5C 40.4884,13.0138 38.4884,13.1805 36.5,13C 38.3146,12.2432 39.9812,11.4098 41.5,10.5 Z"/></g>
<g><path style="opacity:1" fill="#243041" d="M 41.5,10.5 C 39.9812,11.4098 38.3146,12.2432 36.5,13C 38.4884,13.1805 40.4884,13.0138 42.5,12.5C 43.0114,15.0284 43.6781,17.5284 44.5,20C 44.3552,21.2259 44.0219,22.3926 43.5,23.5C 45.3362,26.5923 45.6696,29.9257 44.5,33.5C 43.3063,29.4812 42.3063,29.6479 41.5,34C 42.4579,36.4398 43.9579,38.6064 46,40.5C 46.4996,47.1583 46.6663,53.825 46.5,60.5C 45.8337,56.6475 45.167,52.6475 44.5,48.5C 42.0911,44.8821 40.5911,40.8821 40,36.5C 37.6591,33.1487 35.9924,29.4821 35,25.5C 34.1376,27.087 33.4709,28.7536 33,30.5C 32.5357,29.9056 32.369,29.2389 32.5,28.5C 33.5237,24.6381 35.8571,21.8048 39.5,20C 39.1667,19.8333 38.8333,19.6667 38.5,19.5C 31.7677,22.8846 27.7677,28.2179 26.5,35.5C 25.5489,34.0813 25.2155,32.4147 25.5,30.5C 27.9985,28.6007 27.8319,27.2673 25,26.5C 23.6739,26.7549 22.6739,27.4216 22,28.5C 21.5814,27.3279 20.9147,26.3279 20,25.5C 18.6667,27.5 17.3333,29.5 16,31.5C 15.5357,30.9056 15.369,30.2389 15.5,29.5C 20.9154,18.7857 29.582,12.4523 41.5,10.5 Z"/></g>
<g><path style="opacity:1" fill="#530507" d="M 69.5,65.5 C 74.2636,62.09 75.5969,57.4233 73.5,51.5C 72.7022,53.0777 72.2022,54.7444 72,56.5C 56.6667,50.8333 56.6667,45.1667 72,39.5C 72.2022,41.2556 72.7022,42.9223 73.5,44.5C 75.5969,38.5767 74.2636,33.91 69.5,30.5C 68.9423,29.2101 67.9423,28.3768 66.5,28C 67.1079,27.1301 67.9412,26.6301 69,26.5C 74.9866,27.8199 78.6532,31.4866 80,37.5C 80.3109,43.1862 80.8109,48.8529 81.5,54.5C 80.1154,63.944 74.9487,70.2773 66,73.5C 63.9838,72.0448 63.1505,70.0448 63.5,67.5C 66.0101,67.9465 68.0101,67.2798 69.5,65.5 Z"/></g>
<g><path style="opacity:1" fill="#beb8ba" d="M 48.5,27.5 C 49.6291,29.6282 49.7958,31.9615 49,34.5C 48.2276,33.1509 47.0609,32.3176 45.5,32C 46.8333,31.3333 46.8333,30.6667 45.5,30C 47.1193,29.7645 48.1193,28.9311 48.5,27.5 Z"/></g>
<g><path style="opacity:1" fill="#ecedef" d="M 44.5,33.5 C 45.4577,34.9616 46.6244,36.2949 48,37.5C 48.2457,50.1916 48.7457,62.8583 49.5,75.5C 47.1667,75.5 44.8333,75.5 42.5,75.5C 39.4862,74.8215 36.8196,73.3215 34.5,71C 36.0441,70.7104 37.3774,70.0437 38.5,69C 35.7559,69.9906 33.0893,69.6573 30.5,68C 28.1667,65 25.8333,62 23.5,59C 24.0944,58.5357 24.7611,58.369 25.5,58.5C 26.2543,61.091 27.921,62.9243 30.5,64C 34.1667,64.3333 37.8333,64.6667 41.5,65C 42.6184,66.0736 43.6184,67.2402 44.5,68.5C 45.5488,65.9205 46.2155,63.2538 46.5,60.5C 46.6663,53.825 46.4996,47.1583 46,40.5C 43.9579,38.6064 42.4579,36.4398 41.5,34C 42.3063,29.6479 43.3063,29.4812 44.5,33.5 Z"/></g>
<g><path style="opacity:1" fill="#eef2f3" d="M 23.5,34.5 C 22.7319,46.4582 28.0652,54.2915 39.5,58C 40.2931,59.0852 40.9598,60.2519 41.5,61.5C 38.7209,63.2965 35.7209,63.7965 32.5,63C 30.1384,61.4894 27.8051,59.9894 25.5,58.5C 21.233,50.7703 20.5663,42.7703 23.5,34.5 Z"/></g>
<g><path style="opacity:0.2" fill="#467e38" d="M 84.5,37.5 C 85.7384,39.2143 86.405,41.2143 86.5,43.5C 84.9261,41.8984 84.2594,39.8984 84.5,37.5 Z"/></g>
<g><path style="opacity:0.518" fill="#49662f" d="M 86.5,45.5 C 86.8836,49.4885 86.217,53.1552 84.5,56.5C 84.8084,52.6403 85.4751,48.9736 86.5,45.5 Z"/></g>
<g><path style="opacity:1" fill="#344a65" d="M 46.5,60.5 C 46.2155,63.2538 45.5488,65.9205 44.5,68.5C 43.6184,67.2402 42.6184,66.0736 41.5,65C 37.8333,64.6667 34.1667,64.3333 30.5,64C 27.921,62.9243 26.2543,61.091 25.5,58.5C 27.8051,59.9894 30.1384,61.4894 32.5,63C 35.7209,63.7965 38.7209,63.2965 41.5,61.5C 40.9598,60.2519 40.2931,59.0852 39.5,58C 28.0652,54.2915 22.7319,46.4582 23.5,34.5C 21.9976,32.1707 22.6643,30.8373 25.5,30.5C 25.2155,32.4147 25.5489,34.0813 26.5,35.5C 25.9589,40.449 26.7922,45.1156 29,49.5C 38.109,59.7092 41.7757,58.3759 40,45.5C 36.5733,42.7436 33.9066,39.4103 32,35.5C 31.2042,32.9615 31.3709,30.6282 32.5,28.5C 32.369,29.2389 32.5357,29.9056 33,30.5C 33.4709,28.7536 34.1376,27.087 35,25.5C 35.9924,29.4821 37.6591,33.1487 40,36.5C 40.5911,40.8821 42.0911,44.8821 44.5,48.5C 45.167,52.6475 45.8337,56.6475 46.5,60.5 Z"/></g>
<g><path style="opacity:1" fill="#1c485d" d="M 25.5,30.5 C 22.6643,30.8373 21.9976,32.1707 23.5,34.5C 20.5663,42.7703 21.233,50.7703 25.5,58.5C 24.7611,58.369 24.0944,58.5357 23.5,59C 25.8333,62 28.1667,65 30.5,68C 33.0893,69.6573 35.7559,69.9906 38.5,69C 37.3774,70.0437 36.0441,70.7104 34.5,71C 36.8196,73.3215 39.4862,74.8215 42.5,75.5C 39.9028,75.7208 39.9028,76.2208 42.5,77C 40.0438,78.7105 37.3771,80.0438 34.5,81C 35.056,81.3826 35.3893,81.8826 35.5,82.5C 19.8902,76.1974 11.5568,64.5307 10.5,47.5C 10.6651,40.9665 12.3318,34.9665 15.5,29.5C 15.369,30.2389 15.5357,30.9056 16,31.5C 17.3333,29.5 18.6667,27.5 20,25.5C 20.9147,26.3279 21.5814,27.3279 22,28.5C 22.6739,27.4216 23.6739,26.7549 25,26.5C 27.8319,27.2673 27.9985,28.6007 25.5,30.5 Z"/></g>
<g><path style="opacity:1" fill="#371922" d="M 59.5,70.5 C 60.3764,70.3691 61.0431,70.7025 61.5,71.5C 62.1133,75.086 62.1133,78.7526 61.5,82.5C 60.2921,83.2341 58.9587,83.5674 57.5,83.5C 56.1667,83.5 54.8333,83.5 53.5,83.5C 52.1667,83.5 50.8333,83.5 49.5,83.5C 50.3764,80.5654 51.043,77.8988 51.5,75.5C 54.1667,73.8333 56.8333,72.1667 59.5,70.5 Z"/></g>
<g><path style="opacity:1" fill="#2c313f" d="M 42.5,75.5 C 44.8333,75.5 47.1667,75.5 49.5,75.5C 49.8333,75.5 50.1667,75.5 50.5,75.5C 50.8333,75.5 51.1667,75.5 51.5,75.5C 51.043,77.8988 50.3764,80.5654 49.5,83.5C 50.8333,83.5 52.1667,83.5 53.5,83.5C 52.1667,84.1667 50.8333,84.8333 49.5,85.5C 48.8333,85.5 48.1667,85.5 47.5,85.5C 45.0948,84.2318 42.4282,83.5651 39.5,83.5C 37.901,83.7678 36.5676,83.4345 35.5,82.5C 35.3893,81.8826 35.056,81.3826 34.5,81C 37.3771,80.0438 40.0438,78.7105 42.5,77C 39.9028,76.2208 39.9028,75.7208 42.5,75.5 Z"/></g>
<g><path style="opacity:0.494" fill="#316f47" d="M 39.5,83.5 C 42.4282,83.5651 45.0948,84.2318 47.5,85.5C 44.5049,85.7062 41.8383,85.0395 39.5,83.5 Z"/></g>
<g><path style="opacity:0.404" fill="#386d3f" d="M 53.5,83.5 C 54.8333,83.5 56.1667,83.5 57.5,83.5C 55.1617,85.0395 52.4951,85.7062 49.5,85.5C 50.8333,84.8333 52.1667,84.1667 53.5,83.5 Z"/></g>
</svg>
