<?xml version="1.0" encoding="UTF-8"?>
<!DOCTYPE svg PUBLIC "-//W3C//DTD SVG 1.1//EN" "http://www.w3.org/Graphics/SVG/1.1/DTD/svg11.dtd">
<svg xmlns="http://www.w3.org/2000/svg" version="1.1" width="96px" height="96px" style="shape-rendering:geometricPrecision; text-rendering:geometricPrecision; image-rendering:optimizeQuality; fill-rule:evenodd; clip-rule:evenodd" xmlns:xlink="http://www.w3.org/1999/xlink">
<g><path style="opacity:1" fill="#f3bb4f" d="M 78.5,32.5 C 75.7273,33.6572 72.7273,34.3239 69.5,34.5C 65.6365,28.067 59.9699,24.4004 52.5,23.5C 52.1667,23.5 51.8333,23.5 51.5,23.5C 48.8333,22.1667 46.1667,22.1667 43.5,23.5C 43.5,24.1667 43.1667,24.5 42.5,24.5C 40.4021,23.5155 38.4021,23.8489 36.5,25.5C 36.1667,25.5 35.8333,25.5 35.5,25.5C 28.5172,28.794 23.8505,34.1273 21.5,41.5C 18.6085,42.4025 15.6085,42.7359 12.5,42.5C 17.9432,22.7691 30.9432,13.2691 51.5,14C 63.6783,15.7394 72.6783,21.9061 78.5,32.5 Z"/></g>
<g><path style="opacity:1" fill="#5378d3" d="M 43.5,23.5 C 46.0771,24.6899 46.9105,26.6899 46,29.5C 44.8869,28.2889 43.7202,28.2889 42.5,29.5C 41.6433,28.2643 40.9766,26.931 40.5,25.5C 40.9569,24.7025 41.6236,24.3691 42.5,24.5C 43.1667,24.5 43.5,24.1667 43.5,23.5 Z"/></g>
<g><path style="opacity:0.961" fill="#5d7bd2" d="M 51.5,23.5 C 51.8333,23.5 52.1667,23.5 52.5,23.5C 54.6455,25.0793 54.8122,27.0793 53,29.5C 52.2588,28.3595 51.4255,28.3595 50.5,29.5C 47.7934,26.9315 48.1267,24.9315 51.5,23.5 Z"/></g>
<g><path style="opacity:1" fill="#5375d3" d="M 35.5,25.5 C 35.8333,25.5 36.1667,25.5 36.5,25.5C 37.2216,25.9175 37.7216,26.5842 38,27.5C 38.3333,27.1667 38.6667,26.8333 39,26.5C 39.4935,28.1341 39.6602,29.8008 39.5,31.5C 33.9838,31.7703 32.6505,29.7703 35.5,25.5 Z"/></g>
<g><path style="opacity:1" fill="#ea404a" d="M 82.5,56.5 C 79.0124,56.5399 75.6791,57.2066 72.5,58.5C 56.8525,60.9412 41.1858,63.2745 25.5,65.5C 21.9219,65.5488 18.5885,66.2154 15.5,67.5C 11.4647,68.3671 7.46469,68.3671 3.5,67.5C 4.13133,63.9656 4.798,60.4656 5.5,57C 3.74016,53.2251 2.0735,49.3917 0.5,45.5C 4.34619,43.9489 8.34619,42.9489 12.5,42.5C 15.6085,42.7359 18.6085,42.4025 21.5,41.5C 37.4061,38.6086 53.4061,36.2753 69.5,34.5C 72.7273,34.3239 75.7273,33.6572 78.5,32.5C 82.8581,31.771 87.1915,31.271 91.5,31C 90.6733,34.5941 90.0067,38.2608 89.5,42C 90.6736,46.3522 92.3403,50.5189 94.5,54.5C 90.6447,56.0033 86.6447,56.6699 82.5,56.5 Z"/></g>
<g><path style="opacity:1" fill="#fce1d4" d="M 60.5,45.5 C 60.5,44.5 60.5,43.5 60.5,42.5C 64.1545,42.0578 67.8212,41.7244 71.5,41.5C 71.5,42.5 71.5,43.5 71.5,44.5C 70.5,44.5 69.5,44.5 68.5,44.5C 68.5079,47.5448 68.8413,50.5448 69.5,53.5C 68.1667,53.5 66.8333,53.5 65.5,53.5C 65.6633,51.1432 65.4966,48.8098 65,46.5C 63.6439,45.6198 62.1439,45.2865 60.5,45.5 Z"/></g>
<g><path style="opacity:1" fill="#fdecdd" d="M 60.5,45.5 C 61.2315,54.2985 57.7315,56.9652 50,53.5C 47.9496,44.0687 51.4496,41.402 60.5,45.5 Z"/></g>
<g><path style="opacity:1" fill="#fce8da" d="M 23.5,47.5 C 26.5184,47.3354 29.5184,47.502 32.5,48C 32.8053,51.0736 33.3053,54.2402 34,57.5C 30.9361,59.2165 27.7694,59.5498 24.5,58.5C 23.5741,54.9062 23.2408,51.2396 23.5,47.5 Z"/></g>
<g><path style="opacity:1" fill="#f06862" d="M 26.5,50.5 C 27.675,50.281 28.675,50.6143 29.5,51.5C 27.9483,52.7979 26.9483,52.4646 26.5,50.5 Z"/></g>
<g><path style="opacity:1" fill="#ea4148" d="M 52.5,46.5 C 57.1585,46.0146 58.4919,47.848 56.5,52C 55.2161,52.6838 54.0495,52.5171 53,51.5C 52.5065,49.8659 52.3398,48.1992 52.5,46.5 Z"/></g>
<g><path style="opacity:1" fill="#e82f39" d="M 27.5,54.5 C 28.675,54.281 29.675,54.6143 30.5,55.5C 28.9483,56.7979 27.9483,56.4646 27.5,54.5 Z"/></g>
<g><path style="opacity:1" fill="#fdebdd" d="M 38.5,45.5 C 46.8038,45.2779 49.1372,48.7779 45.5,56C 38.2434,58.7463 35.0768,56.2463 36,48.5C 37.045,47.6266 37.8783,46.6266 38.5,45.5 Z"/></g>
<g><path style="opacity:1" fill="#e9333d" d="M 39.5,48.5 C 40.8333,48.5 42.1667,48.5 43.5,48.5C 43.5,50.5 43.5,52.5 43.5,54.5C 39.9319,54.2407 38.5985,52.2407 39.5,48.5 Z"/></g>
<g><path style="opacity:1" fill="#efb84e" d="M 82.5,56.5 C 79.5323,71.6362 70.5323,81.1362 55.5,85C 38.3347,87.5775 25.0013,81.7442 15.5,67.5C 18.5885,66.2154 21.9219,65.5488 25.5,65.5C 29.571,71.5045 34.9043,74.8378 41.5,75.5C 42.1667,75.8333 42.8333,76.1667 43.5,76.5C 45.1667,76.5 46.8333,76.5 48.5,76.5C 50.1667,76.5 51.8333,76.5 53.5,76.5C 54.9952,76.0113 56.3285,75.3446 57.5,74.5C 58.4916,74.6716 59.1583,74.3382 59.5,73.5C 59.8333,73.5 60.1667,73.5 60.5,73.5C 66.7505,70.2546 70.7505,65.2546 72.5,58.5C 75.6791,57.2066 79.0124,56.5399 82.5,56.5 Z"/></g>
<g><path style="opacity:1" fill="#5c7ad1" d="M 60.5,73.5 C 60.1667,73.5 59.8333,73.5 59.5,73.5C 58.5084,73.3284 57.8417,73.6618 57.5,74.5C 55.6214,74.6068 55.2881,74.1068 56.5,73C 55.8333,72 55.1667,71 54.5,70C 58.1658,67.0725 60.1658,68.2391 60.5,73.5 Z"/></g>
<g><path style="opacity:1" fill="#6377ca" d="M 53.5,76.5 C 51.8333,76.5 50.1667,76.5 48.5,76.5C 48.67,75.1779 48.3366,74.0113 47.5,73C 48.646,72.3551 49.646,71.5217 50.5,70.5C 51.7946,71.0983 53.1279,71.5983 54.5,72C 53.6198,73.3561 53.2865,74.8561 53.5,76.5 Z"/></g>
<g><path style="opacity:1" fill="#637cd1" d="M 43.5,76.5 C 42.8333,76.1667 42.1667,75.8333 41.5,75.5C 39.7092,72.9356 40.3759,71.269 43.5,70.5C 44.6721,70.9186 45.6721,71.5853 46.5,72.5C 45.3595,73.4255 45.3595,74.2588 46.5,75C 45.2625,75.2321 44.2625,75.7321 43.5,76.5 Z"/></g>
</svg>
