<?xml version="1.0" encoding="UTF-8"?>
<!DOCTYPE svg PUBLIC "-//W3C//DTD SVG 1.1//EN" "http://www.w3.org/Graphics/SVG/1.1/DTD/svg11.dtd">
<svg xmlns="http://www.w3.org/2000/svg" version="1.1" width="96px" height="96px" style="shape-rendering:geometricPrecision; text-rendering:geometricPrecision; image-rendering:optimizeQuality; fill-rule:evenodd; clip-rule:evenodd" xmlns:xlink="http://www.w3.org/1999/xlink">
<g><path style="opacity:0.993" fill="#6e7894" d="M -0.5,-0.5 C 31.5,-0.5 63.5,-0.5 95.5,-0.5C 95.5,0.833333 95.5,2.16667 95.5,3.5C 89.7297,4.45722 84.2297,4.45722 79,3.5C 77,4.16667 75,4.83333 73,5.5C 67.4861,5.22685 61.9861,5.22685 56.5,5.5C 46.8129,7.05896 37.1462,8.72562 27.5,10.5C 25.3072,9.44639 23.8072,9.77972 23,11.5C 20.8377,11.0598 18.671,10.7265 16.5,10.5C 11.1603,13.1676 5.49366,14.8343 -0.5,15.5C -0.5,10.1667 -0.5,4.83333 -0.5,-0.5 Z"/></g>
<g><path style="opacity:0.999" fill="#798198" d="M 95.5,6.5 C 95.5,7.5 95.5,8.5 95.5,9.5C 90.4404,8.93493 85.2738,9.26826 80,10.5C 78.6739,10.7549 77.6739,11.4216 77,12.5C 76,11.8333 75,11.1667 74,10.5C 70.0221,12.0568 65.8554,12.8902 61.5,13C 60.324,14.9142 59.324,14.7476 58.5,12.5C 58.0894,13.2624 57.9227,14.2624 58,15.5C 56.2087,13.4873 54.8753,13.4873 54,15.5C 52.3333,15.5 50.6667,15.5 49,15.5C 46.8269,16.9328 44.6602,18.2661 42.5,19.5C 40.1815,19.9925 38.1815,20.9925 36.5,22.5C 35.391,22.5569 34.391,22.8902 33.5,23.5C 32.5,23.5 31.5,23.5 30.5,23.5C 26.2202,22.4411 25.5536,20.2744 28.5,17C 27.944,16.6174 27.6107,16.1174 27.5,15.5C 28.7124,14.7701 29.7124,13.7701 30.5,12.5C 31.086,12.7093 31.586,13.0426 32,13.5C 35.7042,12.0875 39.5376,11.0875 43.5,10.5C 45.0639,11.186 46.7306,11.0194 48.5,10C 60.0484,9.29675 71.215,8.13008 82,6.5C 86.1677,7.00275 90.6677,7.00275 95.5,6.5 Z"/></g>
<g><path style="opacity:0.996" fill="#737c95" d="M 95.5,3.5 C 95.5,4.5 95.5,5.5 95.5,6.5C 90.6677,7.00275 86.1677,7.00275 82,6.5C 71.215,8.13008 60.0484,9.29675 48.5,10C 46.7306,11.0194 45.0639,11.186 43.5,10.5C 39.5376,11.0875 35.7042,12.0875 32,13.5C 31.586,13.0426 31.086,12.7093 30.5,12.5C 29.7124,13.7701 28.7124,14.7701 27.5,15.5C 20.4099,16.7519 13.4099,19.0853 6.5,22.5C 4.13446,21.2489 1.80112,21.5822 -0.5,23.5C -0.5,20.8333 -0.5,18.1667 -0.5,15.5C 5.49366,14.8343 11.1603,13.1676 16.5,10.5C 18.671,10.7265 20.8377,11.0598 23,11.5C 23.8072,9.77972 25.3072,9.44639 27.5,10.5C 37.1462,8.72562 46.8129,7.05896 56.5,5.5C 61.9861,5.22685 67.4861,5.22685 73,5.5C 75,4.83333 77,4.16667 79,3.5C 84.2297,4.45722 89.7297,4.45722 95.5,3.5 Z"/></g>
<g><path style="opacity:0.999" fill="#848a9d" d="M 95.5,9.5 C 95.5,12.8333 95.5,16.1667 95.5,19.5C 91.9346,19.3551 88.4346,19.3551 85,19.5C 82.7533,21.1548 80.4199,21.4881 78,20.5C 76.561,22.0139 75.061,22.3473 73.5,21.5C 70.4461,22.3466 67.4461,23.3466 64.5,24.5C 65.981,25.944 65.6477,26.6106 63.5,26.5C 60.1667,25.1667 56.8333,23.8333 53.5,22.5C 51.5648,21.8505 49.5648,21.5172 47.5,21.5C 46.2196,20.0687 44.5529,19.4021 42.5,19.5C 44.6602,18.2661 46.8269,16.9328 49,15.5C 50.6667,15.5 52.3333,15.5 54,15.5C 54.8753,13.4873 56.2087,13.4873 58,15.5C 57.9227,14.2624 58.0894,13.2624 58.5,12.5C 59.324,14.7476 60.324,14.9142 61.5,13C 65.8554,12.8902 70.0221,12.0568 74,10.5C 75,11.1667 76,11.8333 77,12.5C 77.6739,11.4216 78.6739,10.7549 80,10.5C 85.2738,9.26826 90.4404,8.93493 95.5,9.5 Z"/></g>
<g><path style="opacity:0.996" fill="#7a8091" d="M 27.5,15.5 C 27.6107,16.1174 27.944,16.6174 28.5,17C 25.5536,20.2744 26.2202,22.4411 30.5,23.5C 28.3206,24.6772 25.9872,25.6772 23.5,26.5C 20.1511,27.1695 17.4844,28.8361 15.5,31.5C 8.02639,35.6956 5.19305,42.0289 7,50.5C 8.73369,51.2489 10.567,51.7489 12.5,52C 10.6063,53.0793 10.273,54.4126 11.5,56C 10.2068,56.49 8.87344,56.6567 7.5,56.5C 4.87283,57.0916 2.20616,57.4249 -0.5,57.5C -0.5,46.1667 -0.5,34.8333 -0.5,23.5C 1.80112,21.5822 4.13446,21.2489 6.5,22.5C 13.4099,19.0853 20.4099,16.7519 27.5,15.5 Z"/></g>
<g><path style="opacity:1" fill="#cac38f" d="M 36.5,22.5 C 37.2891,22.7828 37.9558,23.2828 38.5,24C 37.3279,24.4186 36.3279,25.0853 35.5,26C 32.7811,26.5938 32.1144,25.7605 33.5,23.5C 34.391,22.8902 35.391,22.5569 36.5,22.5 Z"/></g>
<g><path style="opacity:1" fill="#736f52" d="M 47.5,21.5 C 49.5648,21.5172 51.5648,21.8505 53.5,22.5C 58.7915,26.4345 64.4581,29.9345 70.5,33C 66.4163,31.6789 62.4163,29.8456 58.5,27.5C 57.8933,27.6236 57.56,27.9569 57.5,28.5C 53.0353,27.6155 49.7019,25.2821 47.5,21.5 Z"/></g>
<g><path style="opacity:0.998" fill="#9397a4" d="M 95.5,19.5 C 95.5,22.5 95.5,25.5 95.5,28.5C 92.7294,28.4207 90.0627,28.9207 87.5,30C 85.4032,31.6104 83.0698,32.7771 80.5,33.5C 79.7366,34.7193 78.7366,35.7193 77.5,36.5C 78.6477,38.1487 79.981,39.6487 81.5,41C 81.2716,41.3988 80.9382,41.5654 80.5,41.5C 80.1667,41.5 79.8333,41.5 79.5,41.5C 75.4007,35.0636 70.0673,30.0636 63.5,26.5C 65.6477,26.6106 65.981,25.944 64.5,24.5C 67.4461,23.3466 70.4461,22.3466 73.5,21.5C 75.061,22.3473 76.561,22.0139 78,20.5C 80.4199,21.4881 82.7533,21.1548 85,19.5C 88.4346,19.3551 91.9346,19.3551 95.5,19.5 Z"/></g>
<g><path style="opacity:1" fill="#8a8562" d="M 42.5,19.5 C 44.5529,19.4021 46.2196,20.0687 47.5,21.5C 45.171,23.0493 42.5044,23.8827 39.5,24C 43.8721,26.195 44.5388,29.195 41.5,33C 37.5245,34.3794 34.6912,33.2127 33,29.5C 32.6012,29.7284 32.4346,30.0618 32.5,30.5C 30.825,28.998 28.9917,27.6647 27,26.5C 24.9436,29.309 25.7769,30.6423 29.5,30.5C 29.7373,31.791 29.404,32.791 28.5,33.5C 27.1529,34.1712 25.9862,34.1712 25,33.5C 25.0773,34.7376 24.9106,35.7376 24.5,36.5C 23.8933,36.3764 23.56,36.0431 23.5,35.5C 22.4039,31.7113 21.7373,31.7113 21.5,35.5C 20.1526,36.0283 18.8193,36.195 17.5,36C 18.6966,33.9847 20.0299,32.1513 21.5,30.5C 24.3357,30.1627 25.0024,28.8293 23.5,26.5C 25.9872,25.6772 28.3206,24.6772 30.5,23.5C 31.5,23.5 32.5,23.5 33.5,23.5C 32.1144,25.7605 32.7811,26.5938 35.5,26C 36.3279,25.0853 37.3279,24.4186 38.5,24C 37.9558,23.2828 37.2891,22.7828 36.5,22.5C 38.1815,20.9925 40.1815,19.9925 42.5,19.5 Z"/></g>
<g><path style="opacity:1" fill="#c8c7b3" d="M 23.5,26.5 C 25.0024,28.8293 24.3357,30.1627 21.5,30.5C 22.463,29.6365 22.463,28.9698 21.5,28.5C 19.7567,30.0383 17.7567,31.0383 15.5,31.5C 17.4844,28.8361 20.1511,27.1695 23.5,26.5 Z"/></g>
<g><path style="opacity:1" fill="#434445" d="M 47.5,21.5 C 49.7019,25.2821 53.0353,27.6155 57.5,28.5C 60.2411,30.9754 62.2411,33.9754 63.5,37.5C 66.6673,46.9857 63.334,52.319 53.5,53.5C 52.1667,53.1667 50.8333,52.8333 49.5,52.5C 45.619,50.977 41.7857,49.3103 38,47.5C 36.5846,45.0392 35.0846,42.7059 33.5,40.5C 32.513,37.2317 32.1796,33.8984 32.5,30.5C 32.4346,30.0618 32.6012,29.7284 33,29.5C 34.6912,33.2127 37.5245,34.3794 41.5,33C 44.5388,29.195 43.8721,26.195 39.5,24C 42.5044,23.8827 45.171,23.0493 47.5,21.5 Z"/></g>
<g><path style="opacity:1" fill="#f0ecd1" d="M 23.5,35.5 C 22.8333,35.5 22.1667,35.5 21.5,35.5C 21.7373,31.7113 22.4039,31.7113 23.5,35.5 Z"/></g>
<g><path style="opacity:1" fill="#4b4b3b" d="M 21.5,30.5 C 20.0299,32.1513 18.6966,33.9847 17.5,36C 18.8193,36.195 20.1526,36.0283 21.5,35.5C 22.1667,35.5 22.8333,35.5 23.5,35.5C 23.56,36.0431 23.8933,36.3764 24.5,36.5C 24.9106,35.7376 25.0773,34.7376 25,33.5C 25.9862,34.1712 27.1529,34.1712 28.5,33.5C 28.585,35.9288 29.585,37.9288 31.5,39.5C 30.7376,39.9106 29.7376,40.0773 28.5,40C 30.0366,42.7462 32.0366,45.0795 34.5,47C 32.3454,47.116 30.3454,46.7827 28.5,46C 31.7154,49.5094 35.5487,51.0094 40,50.5C 41.3287,51.4939 42.662,52.4939 44,53.5C 45.9891,52.8798 47.8225,52.5465 49.5,52.5C 50.8333,52.8333 52.1667,53.1667 53.5,53.5C 55.2646,54.4614 57.2646,54.7947 59.5,54.5C 55.6592,55.1003 51.9925,56.4336 48.5,58.5C 50.396,59.4656 52.396,59.7989 54.5,59.5C 54.631,60.2389 54.4643,60.9056 54,61.5C 53.3292,60.7476 52.4959,60.4142 51.5,60.5C 49.2341,60.8588 47.4007,60.1922 46,58.5C 42.8671,60.6203 39.8671,60.6203 37,58.5C 33.9628,59.3198 33.7961,60.3198 36.5,61.5C 34.1546,62.9879 33.8212,64.9879 35.5,67.5C 33.2362,68.2186 30.9029,68.552 28.5,68.5C 28.5,67.1667 28.5,65.8333 28.5,64.5C 29.2679,65.2625 29.7679,66.2625 30,67.5C 31.1223,65.5795 31.9556,63.5795 32.5,61.5C 28.2389,62.092 23.9056,62.092 19.5,61.5C 18.1667,61.5 16.8333,61.5 15.5,61.5C 15.7163,59.3193 14.883,57.6526 13,56.5C 12.3828,57.4491 12.5494,58.2825 13.5,59C 12.3333,59.5 11.5,60.3333 11,61.5C 10.2917,60.6195 9.45837,59.9528 8.5,59.5C 7.89022,58.609 7.55688,57.609 7.5,56.5C 8.87344,56.6567 10.2068,56.49 11.5,56C 10.273,54.4126 10.6063,53.0793 12.5,52C 10.567,51.7489 8.73369,51.2489 7,50.5C 5.19305,42.0289 8.02639,35.6956 15.5,31.5C 17.7567,31.0383 19.7567,30.0383 21.5,28.5C 22.463,28.9698 22.463,29.6365 21.5,30.5 Z"/></g>
<g><path style="opacity:1" fill="#c9c196" d="M 53.5,22.5 C 56.8333,23.8333 60.1667,25.1667 63.5,26.5C 70.0673,30.0636 75.4007,35.0636 79.5,41.5C 76.8753,42.4657 76.8753,43.4657 79.5,44.5C 78.5,45.5 77.5,46.5 76.5,47.5C 72.1364,43.9097 69.1364,39.4097 67.5,34C 62.5323,30.4711 61.8656,30.8045 65.5,35C 64.9341,35.9947 64.2674,36.828 63.5,37.5C 62.2411,33.9754 60.2411,30.9754 57.5,28.5C 57.56,27.9569 57.8933,27.6236 58.5,27.5C 62.4163,29.8456 66.4163,31.6789 70.5,33C 64.4581,29.9345 58.7915,26.4345 53.5,22.5 Z"/></g>
<g><path style="opacity:1" fill="#d2d0ad" d="M 32.5,30.5 C 32.1796,33.8984 32.513,37.2317 33.5,40.5C 35.0846,42.7059 36.5846,45.0392 38,47.5C 41.7857,49.3103 45.619,50.977 49.5,52.5C 47.8225,52.5465 45.9891,52.8798 44,53.5C 42.662,52.4939 41.3287,51.4939 40,50.5C 35.5487,51.0094 31.7154,49.5094 28.5,46C 30.3454,46.7827 32.3454,47.116 34.5,47C 32.0366,45.0795 30.0366,42.7462 28.5,40C 29.7376,40.0773 30.7376,39.9106 31.5,39.5C 29.585,37.9288 28.585,35.9288 28.5,33.5C 29.404,32.791 29.7373,31.791 29.5,30.5C 25.7769,30.6423 24.9436,29.309 27,26.5C 28.9917,27.6647 30.825,28.998 32.5,30.5 Z"/></g>
<g><path style="opacity:1" fill="#8a8e7a" d="M 36.5,54.5 C 35.0813,55.4511 33.4147,55.7845 31.5,55.5C 29.917,53.1368 28.0836,53.1368 26,55.5C 25.6667,56.5 25.3333,57.5 25,58.5C 23.6012,57.7734 22.1012,57.2734 20.5,57C 21.6721,56.5814 22.6721,55.9147 23.5,55C 21.873,55.4296 20.373,55.5963 19,55.5C 16.7049,53.92 15.3716,51.92 15,49.5C 18.4614,49.6572 21.9614,49.9906 25.5,50.5C 25.8333,50.1667 26.1667,49.8333 26.5,49.5C 25.1886,48.7425 24.6886,47.7425 25,46.5C 26.0674,47.1905 27.2341,47.6905 28.5,48C 27.4464,49.3876 27.2797,50.8876 28,52.5C 28.3333,51.8333 28.6667,51.1667 29,50.5C 31.3726,52.1202 33.8726,53.4536 36.5,54.5 Z"/></g>
<g><path style="opacity:1" fill="#aba37a" d="M 79.5,41.5 C 79.8333,41.5 80.1667,41.5 80.5,41.5C 83.3229,45.8049 86.1563,50.1382 89,54.5C 89.4974,57.146 89.6641,59.8127 89.5,62.5C 87.5633,63.5903 85.73,64.9236 84,66.5C 83.5304,65.4232 83.6971,64.4232 84.5,63.5C 83.7659,62.2921 83.4326,60.9587 83.5,59.5C 82.1667,59.5 80.8333,59.5 79.5,59.5C 78.5084,59.6716 77.8417,59.3382 77.5,58.5C 78.675,58.719 79.675,58.3857 80.5,57.5C 79.4513,55.7844 78.118,54.4511 76.5,53.5C 78.3547,53.728 79.1881,53.0613 79,51.5C 74.7069,48.2093 70.7069,44.5426 67,40.5C 67.0187,42.1075 67.1854,43.7741 67.5,45.5C 65.6495,46.8664 65.3162,48.533 66.5,50.5C 67.1667,51.8333 67.8333,51.8333 68.5,50.5C 66.9962,47.4944 67.6629,46.8277 70.5,48.5C 72.8333,48.8333 74.1667,50.1667 74.5,52.5C 73.5,52.5 72.5,52.5 71.5,52.5C 71.5,53.5 71.5,54.5 71.5,55.5C 71.7373,56.791 71.404,57.791 70.5,58.5C 69.2203,55.0588 66.7203,52.7255 63,51.5C 61.4815,52.1634 60.3149,53.1634 59.5,54.5C 57.2646,54.7947 55.2646,54.4614 53.5,53.5C 63.334,52.319 66.6673,46.9857 63.5,37.5C 64.2674,36.828 64.9341,35.9947 65.5,35C 61.8656,30.8045 62.5323,30.4711 67.5,34C 69.1364,39.4097 72.1364,43.9097 76.5,47.5C 77.5,46.5 78.5,45.5 79.5,44.5C 76.8753,43.4657 76.8753,42.4657 79.5,41.5 Z"/></g>
<g><path style="opacity:1" fill="#645e41" d="M 78.5,47.5 C 78.8966,46.475 79.5632,46.3083 80.5,47C 82.3513,48.6837 84.018,50.5171 85.5,52.5C 84.9984,53.521 84.3317,53.6877 83.5,53C 82.3365,50.6716 80.6698,48.8382 78.5,47.5 Z"/></g>
<g><path style="opacity:1" fill="#6a6444" d="M 67.5,45.5 C 68.8333,46.1667 69.8333,47.1667 70.5,48.5C 67.6629,46.8277 66.9962,47.4944 68.5,50.5C 67.8333,51.8333 67.1667,51.8333 66.5,50.5C 65.3162,48.533 65.6495,46.8664 67.5,45.5 Z"/></g>
<g><path style="opacity:1" fill="#ebe09c" d="M 76.5,53.5 C 75.8333,53.1667 75.1667,52.8333 74.5,52.5C 74.1667,50.1667 72.8333,48.8333 70.5,48.5C 69.8333,47.1667 68.8333,46.1667 67.5,45.5C 67.1854,43.7741 67.0187,42.1075 67,40.5C 70.7069,44.5426 74.7069,48.2093 79,51.5C 79.1881,53.0613 78.3547,53.728 76.5,53.5 Z"/></g>
<g><path style="opacity:1" fill="#22221a" d="M 31.5,55.5 C 33.4147,55.7845 35.0813,55.4511 36.5,54.5C 37.6298,54.5315 38.9631,54.1981 40.5,53.5C 42.3334,54.0521 44.0001,54.8855 45.5,56C 42.9612,57.6654 40.2946,57.8321 37.5,56.5C 35.7536,56.9709 34.087,57.6376 32.5,58.5C 30.1966,58.1237 29.8632,57.1237 31.5,55.5 Z"/></g>
<g><path style="opacity:1" fill="#8c907e" d="M 56.5,57.5 C 57.5676,56.5655 58.901,56.2322 60.5,56.5C 60.3893,57.1174 60.056,57.6174 59.5,58C 61.6526,58.0995 63.3192,58.9328 64.5,60.5C 62.302,61.0671 59.9686,61.0671 57.5,60.5C 57.7373,59.209 57.404,58.209 56.5,57.5 Z"/></g>
<g><path style="opacity:1" fill="#5c5537" d="M 74.5,52.5 C 75.1667,52.8333 75.8333,53.1667 76.5,53.5C 78.118,54.4511 79.4513,55.7844 80.5,57.5C 79.675,58.3857 78.675,58.719 77.5,58.5C 75.8297,58.7512 74.3297,59.4178 73,60.5C 72.5439,59.2559 73.0439,58.4226 74.5,58C 73.3094,57.3021 72.3094,56.4687 71.5,55.5C 71.5,54.5 71.5,53.5 71.5,52.5C 72.5,52.5 73.5,52.5 74.5,52.5 Z"/></g>
<g><path style="opacity:1" fill="#403d29" d="M 70.5,58.5 C 68.9153,58.9854 67.4153,58.3188 66,56.5C 65.586,56.9574 65.086,57.2907 64.5,57.5C 64.0024,56.3966 63.6691,55.3966 63.5,54.5C 62.7348,55.6119 61.7348,56.2786 60.5,56.5C 58.901,56.2322 57.5676,56.5655 56.5,57.5C 55.5,57.8333 54.8333,58.5 54.5,59.5C 52.396,59.7989 50.396,59.4656 48.5,58.5C 51.9925,56.4336 55.6592,55.1003 59.5,54.5C 60.3149,53.1634 61.4815,52.1634 63,51.5C 66.7203,52.7255 69.2203,55.0588 70.5,58.5 Z"/></g>
<g><path style="opacity:1" fill="#e1e2d7" d="M 70.5,58.5 C 71.404,57.791 71.7373,56.791 71.5,55.5C 72.3094,56.4687 73.3094,57.3021 74.5,58C 73.0439,58.4226 72.5439,59.2559 73,60.5C 74.3297,59.4178 75.8297,58.7512 77.5,58.5C 77.8417,59.3382 78.5084,59.6716 79.5,59.5C 78.5,60.1667 77.5,60.8333 76.5,61.5C 73.9664,61.2591 72.2998,62.2591 71.5,64.5C 70.8333,64.1667 70.1667,63.8333 69.5,63.5C 68.078,62.075 66.4113,61.075 64.5,60.5C 63.3192,58.9328 61.6526,58.0995 59.5,58C 60.056,57.6174 60.3893,57.1174 60.5,56.5C 61.7348,56.2786 62.7348,55.6119 63.5,54.5C 63.6691,55.3966 64.0024,56.3966 64.5,57.5C 65.086,57.2907 65.586,56.9574 66,56.5C 67.4153,58.3188 68.9153,58.9854 70.5,58.5 Z"/></g>
<g><path style="opacity:1" fill="#544d31" d="M 79.5,59.5 C 80.8333,59.5 82.1667,59.5 83.5,59.5C 83.4326,60.9587 83.7659,62.2921 84.5,63.5C 83.5,63.5 82.5,63.5 81.5,63.5C 79.2188,63.9227 77.5521,63.256 76.5,61.5C 77.5,60.8333 78.5,60.1667 79.5,59.5 Z"/></g>
<g><path style="opacity:1" fill="#c2c9b7" d="M 56.5,57.5 C 57.404,58.209 57.7373,59.209 57.5,60.5C 56.4863,61.6737 55.153,62.3404 53.5,62.5C 52.5,62.1667 51.8333,61.5 51.5,60.5C 52.4959,60.4142 53.3292,60.7476 54,61.5C 54.4643,60.9056 54.631,60.2389 54.5,59.5C 54.8333,58.5 55.5,57.8333 56.5,57.5 Z"/></g>
<g><path style="opacity:1" fill="#394156" d="M 7.5,56.5 C 7.55688,57.609 7.89022,58.609 8.5,59.5C 8.73286,61.0618 9.39952,62.3951 10.5,63.5C 12.0324,66.0574 13.6991,68.5574 15.5,71C 18.0804,72.1445 20.7471,72.9778 23.5,73.5C 24.2216,73.9175 24.7216,74.5842 25,75.5C 27.0408,74.5769 29.2075,74.2436 31.5,74.5C 36.2016,74.9504 40.8683,75.617 45.5,76.5C 47.588,76.8652 49.9213,76.8652 52.5,76.5C 54.2161,76.3713 55.8828,76.038 57.5,75.5C 60.5353,74.9807 63.5353,74.6474 66.5,74.5C 70.8333,74.5 75.1667,74.5 79.5,74.5C 74.7121,75.9526 69.7121,76.9526 64.5,77.5C 60.4659,77.5045 56.4659,77.8379 52.5,78.5C 43.5641,79.9604 34.5641,80.9604 25.5,81.5C 16.8485,80.7464 8.18184,80.4131 -0.5,80.5C -0.5,72.8333 -0.5,65.1667 -0.5,57.5C 2.20616,57.4249 4.87283,57.0916 7.5,56.5 Z"/></g>
<g><path style="opacity:1" fill="#81836d" d="M 19.5,61.5 C 19.1667,62.1667 18.8333,62.8333 18.5,63.5C 17.8826,63.3893 17.3826,63.056 17,62.5C 16.3176,68.9891 15.4843,68.9891 14.5,62.5C 13.0413,62.4326 11.7079,62.7659 10.5,63.5C 9.39952,62.3951 8.73286,61.0618 8.5,59.5C 9.45837,59.9528 10.2917,60.6195 11,61.5C 11.5,60.3333 12.3333,59.5 13.5,59C 12.5494,58.2825 12.3828,57.4491 13,56.5C 14.883,57.6526 15.7163,59.3193 15.5,61.5C 16.8333,61.5 18.1667,61.5 19.5,61.5 Z"/></g>
<g><path style="opacity:1" fill="#bec3ad" d="M 19.5,61.5 C 23.9056,62.092 28.2389,62.092 32.5,61.5C 31.9556,63.5795 31.1223,65.5795 30,67.5C 29.7679,66.2625 29.2679,65.2625 28.5,64.5C 27.8333,64.5 27.5,64.8333 27.5,65.5C 24.5739,64.5392 21.5739,63.8726 18.5,63.5C 18.8333,62.8333 19.1667,62.1667 19.5,61.5 Z"/></g>
<g><path style="opacity:1" fill="#8b8669" d="M 76.5,61.5 C 77.5521,63.256 79.2188,63.9227 81.5,63.5C 80.8333,64.1667 80.1667,64.8333 79.5,65.5C 78.2652,65.7214 77.2652,66.3881 76.5,67.5C 75.2888,66.7261 75.2888,65.8928 76.5,65C 74.701,63.9637 73.0343,63.7971 71.5,64.5C 72.2998,62.2591 73.9664,61.2591 76.5,61.5 Z"/></g>
<g><path style="opacity:1" fill="#abb39a" d="M 36.5,61.5 C 36.8807,62.9311 37.8807,63.7645 39.5,64C 38.2949,65.3756 36.9616,66.5423 35.5,67.5C 33.8212,64.9879 34.1546,62.9879 36.5,61.5 Z"/></g>
<g><path style="opacity:1" fill="#d4d2b9" d="M 89.5,62.5 C 89.539,65.089 88.539,67.089 86.5,68.5C 85.4814,70.5069 83.8147,71.8402 81.5,72.5C 80.8933,72.3764 80.56,72.0431 80.5,71.5C 81.7298,69.7028 82.3964,67.7028 82.5,65.5C 81.5,65.5 80.5,65.5 79.5,65.5C 80.1667,64.8333 80.8333,64.1667 81.5,63.5C 82.5,63.5 83.5,63.5 84.5,63.5C 83.6971,64.4232 83.5304,65.4232 84,66.5C 85.73,64.9236 87.5633,63.5903 89.5,62.5 Z"/></g>
<g><path style="opacity:1" fill="#28291f" d="M 51.5,60.5 C 51.8333,61.5 52.5,62.1667 53.5,62.5C 53.9175,63.2216 54.5842,63.7216 55.5,64C 51.9527,63.9138 48.9527,65.0805 46.5,67.5C 44.9017,66.5153 43.235,66.3486 41.5,67C 42.745,67.7914 44.0783,68.2914 45.5,68.5C 45.631,69.2389 45.4643,69.9056 45,70.5C 43.561,68.9861 42.061,68.6527 40.5,69.5C 42.0217,70.562 43.6883,71.2287 45.5,71.5C 45.7352,72.0967 46.2352,72.4301 47,72.5C 50.2544,70.8168 53.4211,70.1501 56.5,70.5C 54.6684,71.0568 53.3351,72.0568 52.5,73.5C 50.2779,74.6876 47.9446,75.6876 45.5,76.5C 40.8683,75.617 36.2016,74.9504 31.5,74.5C 32.8256,72.4352 32.159,71.1019 29.5,70.5C 28.6143,71.325 28.281,72.325 28.5,73.5C 24.9438,73.7251 24.6105,72.8918 27.5,71C 27.3865,69.7202 26.7199,68.8869 25.5,68.5C 24.6781,70.1386 24.0114,71.8053 23.5,73.5C 20.7471,72.9778 18.0804,72.1445 15.5,71C 13.6991,68.5574 12.0324,66.0574 10.5,63.5C 11.7079,62.7659 13.0413,62.4326 14.5,62.5C 15.4843,68.9891 16.3176,68.9891 17,62.5C 17.3826,63.056 17.8826,63.3893 18.5,63.5C 16.486,68.1796 18.1527,70.5129 23.5,70.5C 23.281,69.325 23.6143,68.325 24.5,67.5C 25.7387,67.0576 26.7387,66.3909 27.5,65.5C 27.5,64.8333 27.8333,64.5 28.5,64.5C 28.5,65.8333 28.5,67.1667 28.5,68.5C 30.9029,68.552 33.2362,68.2186 35.5,67.5C 36.9616,66.5423 38.2949,65.3756 39.5,64C 37.8807,63.7645 36.8807,62.9311 36.5,61.5C 33.7961,60.3198 33.9628,59.3198 37,58.5C 39.8671,60.6203 42.8671,60.6203 46,58.5C 47.4007,60.1922 49.2341,60.8588 51.5,60.5 Z"/></g>
<g><path style="opacity:1" fill="#7f836d" d="M 18.5,63.5 C 21.5739,63.8726 24.5739,64.5392 27.5,65.5C 26.7387,66.3909 25.7387,67.0576 24.5,67.5C 23.6143,68.325 23.281,69.325 23.5,70.5C 18.1527,70.5129 16.486,68.1796 18.5,63.5 Z"/></g>
<g><path style="opacity:1" fill="#2f2e23" d="M 69.5,63.5 C 70.1667,63.8333 70.8333,64.1667 71.5,64.5C 73.0343,63.7971 74.701,63.9637 76.5,65C 75.2888,65.8928 75.2888,66.7261 76.5,67.5C 77.2652,66.3881 78.2652,65.7214 79.5,65.5C 79.9175,66.2216 80.5842,66.7216 81.5,67C 80.5,67.3333 79.5,67.6667 78.5,68C 79.6537,68.9138 79.487,69.7471 78,70.5C 75.1153,69.6827 72.6153,70.516 70.5,73C 72.8071,73.7786 74.8071,73.2786 76.5,71.5C 77.9045,74.0708 79.2379,74.0708 80.5,71.5C 80.56,72.0431 80.8933,72.3764 81.5,72.5C 83.8147,71.8402 85.4814,70.5069 86.5,68.5C 85.6802,72.1003 83.3469,74.1003 79.5,74.5C 75.1667,74.5 70.8333,74.5 66.5,74.5C 65.548,73.548 64.548,72.548 63.5,71.5C 62.8076,72.0253 62.3076,72.6919 62,73.5C 60.5861,72.5868 59.0861,72.5868 57.5,73.5C 58.3479,71.9069 59.6813,70.7403 61.5,70C 60.5842,69.7216 59.9175,69.2216 59.5,68.5C 60.9311,68.1193 61.7645,67.1193 62,65.5C 62.5215,68.5824 64.0215,69.5824 66.5,68.5C 68.503,69.5316 70.503,69.1982 72.5,67.5C 71.2713,66.7189 69.938,66.2189 68.5,66C 69.2524,65.3292 69.5858,64.4959 69.5,63.5 Z"/></g>
<g><path style="opacity:1" fill="#c6ccb7" d="M 45.5,68.5 C 47.9845,69.2601 47.9845,70.2601 45.5,71.5C 43.6883,71.2287 42.0217,70.562 40.5,69.5C 42.061,68.6527 43.561,68.9861 45,70.5C 45.4643,69.9056 45.631,69.2389 45.5,68.5 Z"/></g>
<g><path style="opacity:1" fill="#686956" d="M 79.5,65.5 C 80.5,65.5 81.5,65.5 82.5,65.5C 82.3964,67.7028 81.7298,69.7028 80.5,71.5C 79.2379,74.0708 77.9045,74.0708 76.5,71.5C 74.8071,73.2786 72.8071,73.7786 70.5,73C 72.6153,70.516 75.1153,69.6827 78,70.5C 79.487,69.7471 79.6537,68.9138 78.5,68C 79.5,67.6667 80.5,67.3333 81.5,67C 80.5842,66.7216 79.9175,66.2216 79.5,65.5 Z"/></g>
<g><path style="opacity:1" fill="#646550" d="M 57.5,60.5 C 59.9686,61.0671 62.302,61.0671 64.5,60.5C 66.4113,61.075 68.078,62.075 69.5,63.5C 69.5858,64.4959 69.2524,65.3292 68.5,66C 69.938,66.2189 71.2713,66.7189 72.5,67.5C 70.503,69.1982 68.503,69.5316 66.5,68.5C 67.8923,65.6315 66.8923,63.9648 63.5,63.5C 61.5281,64.1567 59.6948,64.1567 58,63.5C 56.7817,65.0192 55.2817,66.1859 53.5,67C 54.549,67.4922 55.549,67.3256 56.5,66.5C 57.5178,67.1925 58.5178,67.8592 59.5,68.5C 59.9175,69.2216 60.5842,69.7216 61.5,70C 59.6813,70.7403 58.3479,71.9069 57.5,73.5C 57.5,74.1667 57.5,74.8333 57.5,75.5C 55.8828,76.038 54.2161,76.3713 52.5,76.5C 52.5,75.5 52.5,74.5 52.5,73.5C 53.3351,72.0568 54.6684,71.0568 56.5,70.5C 53.4211,70.1501 50.2544,70.8168 47,72.5C 46.2352,72.4301 45.7352,72.0967 45.5,71.5C 47.9845,70.2601 47.9845,69.2601 45.5,68.5C 44.0783,68.2914 42.745,67.7914 41.5,67C 43.235,66.3486 44.9017,66.5153 46.5,67.5C 48.9527,65.0805 51.9527,63.9138 55.5,64C 54.5842,63.7216 53.9175,63.2216 53.5,62.5C 55.153,62.3404 56.4863,61.6737 57.5,60.5 Z"/></g>
<g><path style="opacity:1" fill="#d8dacd" d="M 66.5,68.5 C 64.0215,69.5824 62.5215,68.5824 62,65.5C 61.7645,67.1193 60.9311,68.1193 59.5,68.5C 58.5178,67.8592 57.5178,67.1925 56.5,66.5C 55.549,67.3256 54.549,67.4922 53.5,67C 55.2817,66.1859 56.7817,65.0192 58,63.5C 59.6948,64.1567 61.5281,64.1567 63.5,63.5C 66.8923,63.9648 67.8923,65.6315 66.5,68.5 Z"/></g>
<g><path style="opacity:1" fill="#454846" d="M 31.5,74.5 C 29.2075,74.2436 27.0408,74.5769 25,75.5C 24.7216,74.5842 24.2216,73.9175 23.5,73.5C 24.0114,71.8053 24.6781,70.1386 25.5,68.5C 26.7199,68.8869 27.3865,69.7202 27.5,71C 24.6105,72.8918 24.9438,73.7251 28.5,73.5C 28.281,72.325 28.6143,71.325 29.5,70.5C 32.159,71.1019 32.8256,72.4352 31.5,74.5 Z"/></g>
<g><path style="opacity:1" fill="#aaae9b" d="M 66.5,74.5 C 63.5353,74.6474 60.5353,74.9807 57.5,75.5C 57.5,74.8333 57.5,74.1667 57.5,73.5C 59.0861,72.5868 60.5861,72.5868 62,73.5C 62.3076,72.6919 62.8076,72.0253 63.5,71.5C 64.548,72.548 65.548,73.548 66.5,74.5 Z"/></g>
<g><path style="opacity:1" fill="#c9cdc2" d="M 52.5,73.5 C 52.5,74.5 52.5,75.5 52.5,76.5C 49.9213,76.8652 47.588,76.8652 45.5,76.5C 47.9446,75.6876 50.2779,74.6876 52.5,73.5 Z"/></g>
<g><path style="opacity:0.997" fill="#9a9ca3" d="M 95.5,28.5 C 95.5,49.8333 95.5,71.1667 95.5,92.5C 91.762,90.1249 87.762,88.1249 83.5,86.5C 82.6667,85.5 81.8333,84.5 81,83.5C 80.2588,84.6405 79.4255,84.6405 78.5,83.5C 77.3147,82.147 75.9814,80.9803 74.5,80C 75.1667,79.3333 75.8333,78.6667 76.5,78C 72.3493,78.5389 68.3493,78.3722 64.5,77.5C 69.7121,76.9526 74.7121,75.9526 79.5,74.5C 83.3469,74.1003 85.6802,72.1003 86.5,68.5C 88.539,67.089 89.539,65.089 89.5,62.5C 89.6641,59.8127 89.4974,57.146 89,54.5C 86.1563,50.1382 83.3229,45.8049 80.5,41.5C 80.9382,41.5654 81.2716,41.3988 81.5,41C 79.981,39.6487 78.6477,38.1487 77.5,36.5C 78.7366,35.7193 79.7366,34.7193 80.5,33.5C 83.0698,32.7771 85.4032,31.6104 87.5,30C 90.0627,28.9207 92.7294,28.4207 95.5,28.5 Z"/></g>
<g><path style="opacity:0.997" fill="#8d9098" d="M 64.5,77.5 C 68.3493,78.3722 72.3493,78.5389 76.5,78C 75.8333,78.6667 75.1667,79.3333 74.5,80C 75.9814,80.9803 77.3147,82.147 78.5,83.5C 79.4255,84.6405 80.2588,84.6405 81,83.5C 81.8333,84.5 82.6667,85.5 83.5,86.5C 87.762,88.1249 91.762,90.1249 95.5,92.5C 95.5,93.5 95.5,94.5 95.5,95.5C 86.5,95.5 77.5,95.5 68.5,95.5C 68.5858,94.5041 68.2524,93.6708 67.5,93C 64.6112,92.1113 61.9446,90.778 59.5,89C 59.8333,88.6667 60.1667,88.3333 60.5,88C 59.0069,86.6319 57.5069,86.4652 56,87.5C 55.5,86.3333 54.6667,85.5 53.5,85C 53.8333,84.6667 54.1667,84.3333 54.5,84C 52.627,82.9153 50.9603,81.582 49.5,80C 50.7375,79.7679 51.7375,79.2679 52.5,78.5C 56.4659,77.8379 60.4659,77.5045 64.5,77.5 Z"/></g>
<g><path style="opacity:1" fill="#80838e" d="M 52.5,78.5 C 51.7375,79.2679 50.7375,79.7679 49.5,80C 50.9603,81.582 52.627,82.9153 54.5,84C 54.1667,84.3333 53.8333,84.6667 53.5,85C 54.6667,85.5 55.5,86.3333 56,87.5C 57.5069,86.4652 59.0069,86.6319 60.5,88C 60.1667,88.3333 59.8333,88.6667 59.5,89C 61.9446,90.778 64.6112,92.1113 67.5,93C 68.2524,93.6708 68.5858,94.5041 68.5,95.5C 45.5,95.5 22.5,95.5 -0.5,95.5C -0.5,90.5 -0.5,85.5 -0.5,80.5C 8.18184,80.4131 16.8485,80.7464 25.5,81.5C 34.5641,80.9604 43.5641,79.9604 52.5,78.5 Z"/></g>
</svg>
