<?xml version="1.0" encoding="UTF-8"?>
<!DOCTYPE svg PUBLIC "-//W3C//DTD SVG 1.1//EN" "http://www.w3.org/Graphics/SVG/1.1/DTD/svg11.dtd">
<svg xmlns="http://www.w3.org/2000/svg" version="1.1" width="96px" height="96px" style="shape-rendering:geometricPrecision; text-rendering:geometricPrecision; image-rendering:optimizeQuality; fill-rule:evenodd; clip-rule:evenodd" xmlns:xlink="http://www.w3.org/1999/xlink">
<g><path style="opacity:0.989" fill="#e74041" d="M 59.5,92.5 C 59.6079,87.1301 59.2745,81.7968 58.5,76.5C 58.5,74.8333 58.5,73.1667 58.5,71.5C 65.0221,71.8235 71.3554,71.4902 77.5,70.5C 78.6491,70.2089 79.3158,69.3756 79.5,68C 76.5381,60.4098 72.5381,53.4098 67.5,47C 63.7374,47.9349 61.4041,50.4349 60.5,54.5C 59.8826,54.6107 59.3826,54.944 59,55.5C 58.1273,51.4754 55.9607,48.4754 52.5,46.5C 54.3068,42.8864 56.1401,39.2198 58,35.5C 58.6667,33.1667 58.6667,30.8333 58,28.5C 55.3333,23.8333 52.6667,19.1667 50,14.5C 48.3333,13.1667 46.6667,13.1667 45,14.5C 34.5049,31.9921 24.6715,49.8255 15.5,68C 15.7549,69.3261 16.4216,70.3261 17.5,71C 23.582,71.7876 29.582,71.621 35.5,70.5C 36.391,69.8902 37.391,69.5569 38.5,69.5C 38.5,70.8333 38.5,72.1667 38.5,73.5C 37.596,74.209 37.2627,75.209 37.5,76.5C 37.5,79.5 37.5,82.5 37.5,85.5C 34.5131,85.0022 31.5131,84.5022 28.5,84C 26.6498,83.3103 25.3164,82.1436 24.5,80.5C 20.9249,77.4922 19.2582,78.4922 19.5,83.5C 15.2319,81.0675 11.7319,77.7342 9,73.5C -4.66716,48.6298 -0.500493,27.1298 21.5,9C 44.2315,-4.55324 64.7315,-1.71991 83,17.5C 100.887,43.2257 97.7207,66.059 73.5,86C 68.9272,88.4542 64.2605,90.6209 59.5,92.5 Z"/></g>
<g><path style="opacity:1" fill="#fcf6f5" d="M 52.5,46.5 C 51.7784,46.9175 51.2784,47.5842 51,48.5C 50.7679,47.2625 50.2679,46.2625 49.5,45.5C 48.0646,44.9035 46.398,44.9035 44.5,45.5C 43.596,44.791 43.2627,43.791 43.5,42.5C 41.139,42.6741 38.8056,43.0074 36.5,43.5C 35.862,48.0272 37.5286,49.6939 41.5,48.5C 41.8333,49.8333 42.1667,51.1667 42.5,52.5C 40.5648,53.1495 38.5648,53.4828 36.5,53.5C 36.5,54.5 36.5,55.5 36.5,56.5C 34.8561,56.7135 33.3561,56.3802 32,55.5C 31.3333,56.8333 31.3333,58.1667 32,59.5C 33.4813,60.4709 34.3146,61.8042 34.5,63.5C 34.2627,64.791 34.596,65.791 35.5,66.5C 35.9258,67.5279 35.9258,68.8612 35.5,70.5C 29.582,71.621 23.582,71.7876 17.5,71C 16.4216,70.3261 15.7549,69.3261 15.5,68C 24.6715,49.8255 34.5049,31.9921 45,14.5C 46.6667,13.1667 48.3333,13.1667 50,14.5C 52.6667,19.1667 55.3333,23.8333 58,28.5C 58.6667,30.8333 58.6667,33.1667 58,35.5C 56.1401,39.2198 54.3068,42.8864 52.5,46.5 Z"/></g>
<g><path style="opacity:1" fill="#b3876c" d="M 44.5,45.5 C 44.5,47.5 43.5,48.5 41.5,48.5C 37.5286,49.6939 35.862,48.0272 36.5,43.5C 38.8056,43.0074 41.139,42.6741 43.5,42.5C 43.2627,43.791 43.596,44.791 44.5,45.5 Z"/></g>
<g><path style="opacity:1" fill="#fefbfb" d="M 77.5,70.5 C 71.1667,70.5 64.8333,70.5 58.5,70.5C 59.5278,65.2547 60.1945,59.9214 60.5,54.5C 61.4041,50.4349 63.7374,47.9349 67.5,47C 72.5381,53.4098 76.5381,60.4098 79.5,68C 79.3158,69.3756 78.6491,70.2089 77.5,70.5 Z"/></g>
<g><path style="opacity:1" fill="#2f2a31" d="M 49.5,45.5 C 48.8333,49.5 46.5,51.8333 42.5,52.5C 42.1667,51.1667 41.8333,49.8333 41.5,48.5C 43.5,48.5 44.5,47.5 44.5,45.5C 46.398,44.9035 48.0646,44.9035 49.5,45.5 Z"/></g>
<g><path style="opacity:1" fill="#cca08c" d="M 36.5,56.5 C 37.0978,59.7307 38.2644,60.064 40,57.5C 41.3375,60.0021 43.1708,62.0021 45.5,63.5C 43.5979,67.035 42.4313,70.7017 42,74.5C 43.8566,76.6313 46.0232,77.1313 48.5,76C 41.6902,78.5253 39.3569,76.1919 41.5,69C 39.079,61.8782 38.079,62.0449 38.5,69.5C 37.391,69.5569 36.391,69.8902 35.5,70.5C 35.9258,68.8612 35.9258,67.5279 35.5,66.5C 37.129,64.8041 36.7957,63.8041 34.5,63.5C 34.3146,61.8042 33.4813,60.4709 32,59.5C 31.3333,58.1667 31.3333,56.8333 32,55.5C 33.3561,56.3802 34.8561,56.7135 36.5,56.5 Z"/></g>
<g><path style="opacity:1" fill="#220d09" d="M 34.5,63.5 C 36.7957,63.8041 37.129,64.8041 35.5,66.5C 34.596,65.791 34.2627,64.791 34.5,63.5 Z"/></g>
<g><path style="opacity:1" fill="#f49f9f" d="M 58.5,70.5 C 64.8333,70.5 71.1667,70.5 77.5,70.5C 71.3554,71.4902 65.0221,71.8235 58.5,71.5C 58.5,73.1667 58.5,74.8333 58.5,76.5C 58.1667,76.5 57.8333,76.5 57.5,76.5C 57.5,76.1667 57.5,75.8333 57.5,75.5C 57.2155,73.5853 57.5489,71.9187 58.5,70.5 Z"/></g>
<g><path style="opacity:1" fill="#f5e5db" d="M 49.5,45.5 C 50.2679,46.2625 50.7679,47.2625 51,48.5C 51.2784,47.5842 51.7784,46.9175 52.5,46.5C 55.9607,48.4754 58.1273,51.4754 59,55.5C 59.3826,54.944 59.8826,54.6107 60.5,54.5C 60.1945,59.9214 59.5278,65.2547 58.5,70.5C 57.5489,71.9187 57.2155,73.5853 57.5,75.5C 56.8386,74.2825 56.1719,72.9492 55.5,71.5C 55.1667,72.1667 54.8333,72.8333 54.5,73.5C 55.3022,76.4486 55.6355,79.4486 55.5,82.5C 55.5,86.1667 55.5,89.8333 55.5,93.5C 50.3497,94.6507 45.0164,94.8174 39.5,94C 38.944,93.6174 38.6107,93.1174 38.5,92.5C 38.5,90.5 38.5,88.5 38.5,86.5C 38.5,83.1667 38.5,79.8333 38.5,76.5C 39.8333,75.5 39.8333,74.5 38.5,73.5C 38.5,72.1667 38.5,70.8333 38.5,69.5C 38.079,62.0449 39.079,61.8782 41.5,69C 39.3569,76.1919 41.6902,78.5253 48.5,76C 46.0232,77.1313 43.8566,76.6313 42,74.5C 42.4313,70.7017 43.5979,67.035 45.5,63.5C 43.1708,62.0021 41.3375,60.0021 40,57.5C 38.2644,60.064 37.0978,59.7307 36.5,56.5C 36.5,55.5 36.5,54.5 36.5,53.5C 38.5648,53.4828 40.5648,53.1495 42.5,52.5C 46.5,51.8333 48.8333,49.5 49.5,45.5 Z"/></g>
<g><path style="opacity:1" fill="#e2e3e3" d="M 70.5,72.5 C 73.8606,73.2032 74.1939,74.5365 71.5,76.5C 69.3576,75.5629 69.0243,74.2296 70.5,72.5 Z"/></g>
<g><path style="opacity:1" fill="#1c2124" d="M 38.5,73.5 C 39.8333,74.5 39.8333,75.5 38.5,76.5C 38.1667,76.5 37.8333,76.5 37.5,76.5C 37.2627,75.209 37.596,74.209 38.5,73.5 Z"/></g>
<g><path style="opacity:1" fill="#4b352e" d="M 57.5,75.5 C 57.5,75.8333 57.5,76.1667 57.5,76.5C 57.9746,79.0821 57.3079,81.0821 55.5,82.5C 55.6355,79.4486 55.3022,76.4486 54.5,73.5C 54.8333,72.8333 55.1667,72.1667 55.5,71.5C 56.1719,72.9492 56.8386,74.2825 57.5,75.5 Z"/></g>
<g><path style="opacity:1" fill="#e1ebec" d="M 24.5,80.5 C 24.4431,81.609 24.1098,82.609 23.5,83.5C 22.1667,83.5 20.8333,83.5 19.5,83.5C 19.2582,78.4922 20.9249,77.4922 24.5,80.5 Z"/></g>
<g><path style="opacity:1" fill="#b3978f" d="M 57.5,76.5 C 57.8333,76.5 58.1667,76.5 58.5,76.5C 59.2745,81.7968 59.6079,87.1301 59.5,92.5C 59.1667,92.5 58.8333,92.5 58.5,92.5C 57.8333,80.5 57.1667,80.5 56.5,92.5C 56.5,93.1667 56.1667,93.5 55.5,93.5C 55.5,89.8333 55.5,86.1667 55.5,82.5C 57.3079,81.0821 57.9746,79.0821 57.5,76.5 Z"/></g>
<g><path style="opacity:1" fill="#e16060" d="M 37.5,76.5 C 37.8333,76.5 38.1667,76.5 38.5,76.5C 38.5,79.8333 38.5,83.1667 38.5,86.5C 33.256,86.6046 28.256,85.6046 23.5,83.5C 24.1098,82.609 24.4431,81.609 24.5,80.5C 25.3164,82.1436 26.6498,83.3103 28.5,84C 31.5131,84.5022 34.5131,85.0022 37.5,85.5C 37.5,82.5 37.5,79.5 37.5,76.5 Z"/></g>
<g><path style="opacity:0.947" fill="#e83f3f" d="M 19.5,83.5 C 20.8333,83.5 22.1667,83.5 23.5,83.5C 28.256,85.6046 33.256,86.6046 38.5,86.5C 38.5,88.5 38.5,90.5 38.5,92.5C 31.2139,91.3555 24.8805,88.3555 19.5,83.5 Z"/></g>
<g><path style="opacity:1" fill="#483831" d="M 58.5,92.5 C 57.8333,92.5 57.1667,92.5 56.5,92.5C 57.1667,80.5 57.8333,80.5 58.5,92.5 Z"/></g>
</svg>
