<?xml version="1.0" encoding="UTF-8"?>
<!DOCTYPE svg PUBLIC "-//W3C//DTD SVG 1.1//EN" "http://www.w3.org/Graphics/SVG/1.1/DTD/svg11.dtd">
<svg xmlns="http://www.w3.org/2000/svg" version="1.1" width="96px" height="96px" style="shape-rendering:geometricPrecision; text-rendering:geometricPrecision; image-rendering:optimizeQuality; fill-rule:evenodd; clip-rule:evenodd" xmlns:xlink="http://www.w3.org/1999/xlink">
<g><path style="opacity:0.357" fill="#c6c4c6" d="M 56.5,11.5 C 51.6946,12.4872 46.6946,12.8205 41.5,12.5C 46.2533,10.2615 51.2533,9.92813 56.5,11.5 Z"/></g>
<g><path style="opacity:1" fill="#86868d" d="M 56.5,11.5 C 57.9952,11.9887 59.3285,12.6554 60.5,13.5C 61.463,14.3635 61.463,15.0302 60.5,15.5C 58.5455,14.1491 56.3788,13.4825 54,13.5C 50.7905,14.6042 47.6238,14.6042 44.5,13.5C 43.5,13.5 42.5,13.5 41.5,13.5C 41.5,13.1667 41.5,12.8333 41.5,12.5C 46.6946,12.8205 51.6946,12.4872 56.5,11.5 Z"/></g>
<g><path style="opacity:1" fill="#646b8f" d="M 41.5,13.5 C 42.5,13.5 43.5,13.5 44.5,13.5C 41.0211,15.4031 37.3544,17.0698 33.5,18.5C 35.4844,15.8361 38.1511,14.1695 41.5,13.5 Z"/></g>
<g><path style="opacity:1" fill="#5d6266" d="M 44.5,13.5 C 47.6238,14.6042 50.7905,14.6042 54,13.5C 56.3788,13.4825 58.5455,14.1491 60.5,15.5C 61.463,15.0302 61.463,14.3635 60.5,13.5C 61.4916,13.3284 62.1583,13.6618 62.5,14.5C 67.7359,18.5923 71.2359,23.9256 73,30.5C 73.4771,38.1781 73.3105,45.8448 72.5,53.5C 73.552,53.6495 74.552,53.4828 75.5,53C 76.7491,51.02 78.0824,49.1867 79.5,47.5C 78.9032,53.9751 76.5699,59.6418 72.5,64.5C 72.4312,61.9158 71.2645,59.9158 69,58.5C 62.1006,70.04 51.9339,76.7067 38.5,78.5C 35.7334,78.1417 33.0667,77.475 30.5,76.5C 30.1667,76.5 29.8333,76.5 29.5,76.5C 29.5,76.1667 29.5,75.8333 29.5,75.5C 30.7403,74.3412 32.0736,73.3412 33.5,72.5C 35.717,73.3686 38.0504,73.702 40.5,73.5C 38.0314,74.3171 35.3647,74.8171 32.5,75C 41.7818,77.2636 50.1152,75.2636 57.5,69C 56.8333,68.6667 56.1667,68.3333 55.5,68C 59.3348,64.6609 62.6682,60.8276 65.5,56.5C 66.1924,57.0253 66.6924,57.6919 67,58.5C 68.3034,56.0602 69.47,53.5602 70.5,51C 69.8333,50.3333 69.1667,49.6667 68.5,49C 69.5359,45.8792 69.7026,42.7125 69,39.5C 68.6667,39.8333 68.3333,40.1667 68,40.5C 67.6667,39.1667 67.3333,37.8333 67,36.5C 65.9609,37.7101 64.7942,38.7101 63.5,39.5C 64.0722,37.7446 64.9055,36.0779 66,34.5C 66.6667,33.1667 67.3333,33.1667 68,34.5C 68.2393,32.0405 67.7393,29.7072 66.5,27.5C 67.2216,27.0825 67.7216,26.4158 68,25.5C 69.2754,27.7173 70.2754,30.0506 71,32.5C 70.747,26.9915 68.5804,22.3248 64.5,18.5C 63.913,19.2334 63.913,20.2334 64.5,21.5C 58.0127,16.1154 50.6794,14.4488 42.5,16.5C 37.8709,17.8125 33.8709,20.1458 30.5,23.5C 31.075,21.5887 32.075,19.922 33.5,18.5C 37.3544,17.0698 41.0211,15.4031 44.5,13.5 Z"/></g>
<g><path style="opacity:1" fill="#17292d" d="M 64.5,21.5 C 64.5,22.1667 64.5,22.8333 64.5,23.5C 63.5,22.8333 62.5,22.1667 61.5,21.5C 59.9096,19.7662 57.9096,18.5995 55.5,18C 51.5138,17.5012 47.5138,17.3345 43.5,17.5C 42.8333,17.5 42.5,17.1667 42.5,16.5C 50.6794,14.4488 58.0127,16.1154 64.5,21.5 Z"/></g>
<g><path style="opacity:1" fill="#d4d8e8" d="M 41.5,12.5 C 41.5,12.8333 41.5,13.1667 41.5,13.5C 38.1511,14.1695 35.4844,15.8361 33.5,18.5C 27.8272,22.1728 23.1605,26.8395 19.5,32.5C 23.9922,22.6731 31.3255,16.0064 41.5,12.5 Z"/></g>
<g><path style="opacity:1" fill="#444c51" d="M 46.5,29.5 C 44.3792,29.3253 42.3792,29.6586 40.5,30.5C 39.5084,30.6716 38.8417,30.3382 38.5,29.5C 40.5725,23.5899 44.9058,20.2566 51.5,19.5C 53.3893,19.4363 55.0559,19.9363 56.5,21C 53.1985,22.4673 51.1985,24.9673 50.5,28.5C 49.2638,29.2458 47.9305,29.5792 46.5,29.5 Z"/></g>
<g><path style="opacity:1" fill="#3b4649" d="M 66.5,27.5 C 65.3995,26.3951 64.7329,25.0618 64.5,23.5C 64.5,22.8333 64.5,22.1667 64.5,21.5C 63.913,20.2334 63.913,19.2334 64.5,18.5C 68.5804,22.3248 70.747,26.9915 71,32.5C 70.2754,30.0506 69.2754,27.7173 68,25.5C 67.7216,26.4158 67.2216,27.0825 66.5,27.5 Z"/></g>
<g><path style="opacity:1" fill="#323f41" d="M 62.5,14.5 C 72.3607,17.5338 78.1941,24.2005 80,34.5C 80.8136,39.0204 80.647,43.3537 79.5,47.5C 78.0824,49.1867 76.7491,51.02 75.5,53C 74.552,53.4828 73.552,53.6495 72.5,53.5C 73.3105,45.8448 73.4771,38.1781 73,30.5C 71.2359,23.9256 67.7359,18.5923 62.5,14.5 Z"/></g>
<g><path style="opacity:1" fill="#76747d" d="M 61.5,21.5 C 62.5,22.1667 63.5,22.8333 64.5,23.5C 64.7329,25.0618 65.3995,26.3951 66.5,27.5C 67.7393,29.7072 68.2393,32.0405 68,34.5C 67.3333,33.1667 66.6667,33.1667 66,34.5C 64.9055,36.0779 64.0722,37.7446 63.5,39.5C 61.5491,40.7158 60.0491,42.3825 59,44.5C 58.3828,45.4491 58.5494,46.2825 59.5,47C 58.9056,47.4643 58.2389,47.631 57.5,47.5C 55.9293,46.8031 54.4293,46.4698 53,46.5C 51.786,48.0488 50.286,49.2155 48.5,50C 44.1735,50.278 40.1735,51.4446 36.5,53.5C 36.9528,52.5416 37.6195,51.7083 38.5,51C 41.3102,50.2177 43.9768,49.3844 46.5,48.5C 49.8325,48.5162 51.1658,47.1829 50.5,44.5C 51.9187,43.5489 53.5853,43.2155 55.5,43.5C 55.3691,44.3764 55.7025,45.0431 56.5,45.5C 58.22,42.7984 59.8866,40.1318 61.5,37.5C 61.1667,37.5 60.8333,37.5 60.5,37.5C 60.5,37.1667 60.5,36.8333 60.5,36.5C 60.5106,34.9826 61.1772,33.8159 62.5,33C 62.1667,32.8333 61.8333,32.6667 61.5,32.5C 59.4417,34.0772 57.1084,35.0772 54.5,35.5C 52.9623,35.5466 51.9623,34.8799 51.5,33.5C 51.8333,33.5 52.1667,33.5 52.5,33.5C 55.2889,34.1508 57.9556,33.4842 60.5,31.5C 61.2591,27.9781 61.5924,24.6448 61.5,21.5 Z"/></g>
<g><path style="opacity:1" fill="#6f7078" d="M 32.5,25.5 C 32.8161,29.5246 32.9828,33.5246 33,37.5C 31.9887,38.3366 30.8221,38.67 29.5,38.5C 30.4299,34.6002 30.7633,30.6002 30.5,26.5C 31.1667,26.1667 31.8333,25.8333 32.5,25.5 Z"/></g>
<g><path style="opacity:1" fill="#213236" d="M 42.5,16.5 C 42.5,17.1667 42.8333,17.5 43.5,17.5C 43.5,17.8333 43.5,18.1667 43.5,18.5C 39.4945,19.4977 36.1612,21.4977 33.5,24.5C 32.8333,24.5 32.5,24.8333 32.5,25.5C 31.8333,25.8333 31.1667,26.1667 30.5,26.5C 24.4667,33.5992 21.4667,41.9326 21.5,51.5C 19.6122,49.0122 18.9455,46.0122 19.5,42.5C 21.1024,34.9146 24.7691,28.5813 30.5,23.5C 33.8709,20.1458 37.8709,17.8125 42.5,16.5 Z"/></g>
<g><path style="opacity:1" fill="#545960" d="M 43.5,18.5 C 43.5,18.1667 43.5,17.8333 43.5,17.5C 47.5138,17.3345 51.5138,17.5012 55.5,18C 57.9096,18.5995 59.9096,19.7662 61.5,21.5C 61.5924,24.6448 61.2591,27.9781 60.5,31.5C 57.9556,33.4842 55.2889,34.1508 52.5,33.5C 51.0252,31.3101 49.0252,29.9767 46.5,29.5C 47.9305,29.5792 49.2638,29.2458 50.5,28.5C 51.1985,24.9673 53.1985,22.4673 56.5,21C 55.0559,19.9363 53.3893,19.4363 51.5,19.5C 44.9058,20.2566 40.5725,23.5899 38.5,29.5C 36.5541,28.7456 35.7207,27.4122 36,25.5C 36.6667,26.1667 37.3333,26.8333 38,27.5C 38.8333,25.5 39.6667,23.5 40.5,21.5C 42.3853,20.3906 44.3853,19.5573 46.5,19C 45.552,18.5172 44.552,18.3505 43.5,18.5 Z"/></g>
<g><path style="opacity:1" fill="#7a7d9c" d="M 33.5,18.5 C 32.075,19.922 31.075,21.5887 30.5,23.5C 24.7691,28.5813 21.1024,34.9146 19.5,42.5C 18.6618,42.8417 18.3284,43.5084 18.5,44.5C 17.8333,45.8333 17.1667,47.1667 16.5,48.5C 16.5,46.8333 16.5,45.1667 16.5,43.5C 17.347,39.7774 18.347,36.1108 19.5,32.5C 23.1605,26.8395 27.8272,22.1728 33.5,18.5 Z"/></g>
<g><path style="opacity:1" fill="#495155" d="M 30.5,26.5 C 30.7633,30.6002 30.4299,34.6002 29.5,38.5C 29.5,39.1667 29.8333,39.5 30.5,39.5C 29.097,42.2033 28.4303,44.8699 28.5,47.5C 27.6816,44.8929 27.1816,42.2263 27,39.5C 26.6667,39.8333 26.3333,40.1667 26,40.5C 25.6667,44.1667 25.3333,47.8333 25,51.5C 22.9614,52.9783 22.1281,54.9783 22.5,57.5C 21.5386,55.7354 21.2053,53.7354 21.5,51.5C 21.4667,41.9326 24.4667,33.5992 30.5,26.5 Z"/></g>
<g><path style="opacity:1" fill="#8d8890" d="M 46.5,29.5 C 49.0252,29.9767 51.0252,31.3101 52.5,33.5C 52.1667,33.5 51.8333,33.5 51.5,33.5C 49.8058,32.314 48.1392,32.4807 46.5,34C 43.3098,36.3644 40.3098,38.8644 37.5,41.5C 37.5,41.1667 37.5,40.8333 37.5,40.5C 37.0825,39.7784 36.4158,39.2784 35.5,39C 39.0139,37.6433 41.6805,35.31 43.5,32C 42.2625,31.7679 41.2625,31.2679 40.5,30.5C 42.3792,29.6586 44.3792,29.3253 46.5,29.5 Z"/></g>
<g><path style="opacity:0.584" fill="#d7dbec" d="M 19.5,32.5 C 18.347,36.1108 17.347,39.7774 16.5,43.5C 16.1667,43.5 15.8333,43.5 15.5,43.5C 15.6667,39.3266 17,35.6599 19.5,32.5 Z"/></g>
<g><path style="opacity:1" fill="#5d6168" d="M 51.5,33.5 C 51.9623,34.8799 52.9623,35.5466 54.5,35.5C 57.1084,35.0772 59.4417,34.0772 61.5,32.5C 61.8333,32.6667 62.1667,32.8333 62.5,33C 61.1772,33.8159 60.5106,34.9826 60.5,36.5C 58.7041,37.7927 57.0375,39.2927 55.5,41C 53.5,41.3333 51.5,41.6667 49.5,42C 45.0922,47.0675 39.7589,49.2342 33.5,48.5C 32.962,46.8828 32.6287,45.2161 32.5,43.5C 33.5,43.5 34.5,43.5 35.5,43.5C 35.2627,42.209 35.596,41.209 36.5,40.5C 36.5,42.1667 36.5,43.8333 36.5,45.5C 37.552,45.6495 38.552,45.4828 39.5,45C 38.695,43.8873 38.0283,42.7206 37.5,41.5C 40.3098,38.8644 43.3098,36.3644 46.5,34C 48.1392,32.4807 49.8058,32.314 51.5,33.5 Z"/></g>
<g><path style="opacity:1" fill="#223339" d="M 61.5,37.5 C 62.3909,35.3911 63.5576,33.3911 65,31.5C 65.1487,34.1957 63.982,36.1957 61.5,37.5 Z"/></g>
<g><path style="opacity:1" fill="#9996a5" d="M 33.5,24.5 C 34.6484,28.9811 34.8151,33.6478 34,38.5C 33.0471,40.3731 31.8804,40.7065 30.5,39.5C 29.8333,39.5 29.5,39.1667 29.5,38.5C 30.8221,38.67 31.9887,38.3366 33,37.5C 32.9828,33.5246 32.8161,29.5246 32.5,25.5C 32.5,24.8333 32.8333,24.5 33.5,24.5 Z"/></g>
<g><path style="opacity:1" fill="#303d46" d="M 60.5,37.5 C 60.8333,37.5 61.1667,37.5 61.5,37.5C 59.8866,40.1318 58.22,42.7984 56.5,45.5C 55.7025,45.0431 55.3691,44.3764 55.5,43.5C 57.1563,41.5398 58.823,39.5398 60.5,37.5 Z"/></g>
<g><path style="opacity:1" fill="#9d99a0" d="M 60.5,36.5 C 60.5,36.8333 60.5,37.1667 60.5,37.5C 58.823,39.5398 57.1563,41.5398 55.5,43.5C 53.5853,43.2155 51.9187,43.5489 50.5,44.5C 49.1932,45.1534 47.8599,45.8201 46.5,46.5C 45.2267,47.2565 45.2267,47.9232 46.5,48.5C 43.9768,49.3844 41.3102,50.2177 38.5,51C 37.6195,51.7083 36.9528,52.5416 36.5,53.5C 35.8333,53.5 35.1667,53.5 34.5,53.5C 34.5,52.8333 34.1667,52.5 33.5,52.5C 32.3143,51.0387 32.3143,49.7054 33.5,48.5C 39.7589,49.2342 45.0922,47.0675 49.5,42C 51.5,41.6667 53.5,41.3333 55.5,41C 57.0375,39.2927 58.7041,37.7927 60.5,36.5 Z"/></g>
<g><path style="opacity:1" fill="#2f3c44" d="M 36.5,40.5 C 36.8333,40.5 37.1667,40.5 37.5,40.5C 37.5,40.8333 37.5,41.1667 37.5,41.5C 38.0283,42.7206 38.695,43.8873 39.5,45C 38.552,45.4828 37.552,45.6495 36.5,45.5C 36.5,43.8333 36.5,42.1667 36.5,40.5 Z"/></g>
<g><path style="opacity:1" fill="#34414e" d="M 50.5,44.5 C 51.1658,47.1829 49.8325,48.5162 46.5,48.5C 45.2267,47.9232 45.2267,47.2565 46.5,46.5C 47.8599,45.8201 49.1932,45.1534 50.5,44.5 Z"/></g>
<g><path style="opacity:1" fill="#575c62" d="M 57.5,47.5 C 57.5,48.1667 57.1667,48.5 56.5,48.5C 50.1974,52.5593 44.0308,56.8926 38,61.5C 37.7679,60.2625 37.2679,59.2625 36.5,58.5C 34.7868,57.3646 34.1201,55.698 34.5,53.5C 35.1667,53.5 35.8333,53.5 36.5,53.5C 40.1735,51.4446 44.1735,50.278 48.5,50C 50.286,49.2155 51.786,48.0488 53,46.5C 54.4293,46.4698 55.9293,46.8031 57.5,47.5 Z"/></g>
<g><path style="opacity:1" fill="#73747c" d="M 43.5,18.5 C 44.552,18.3505 45.552,18.5172 46.5,19C 44.3853,19.5573 42.3853,20.3906 40.5,21.5C 39.6667,23.5 38.8333,25.5 38,27.5C 37.3333,26.8333 36.6667,26.1667 36,25.5C 35.7207,27.4122 36.5541,28.7456 38.5,29.5C 38.8417,30.3382 39.5084,30.6716 40.5,30.5C 41.2625,31.2679 42.2625,31.7679 43.5,32C 41.6805,35.31 39.0139,37.6433 35.5,39C 36.4158,39.2784 37.0825,39.7784 37.5,40.5C 37.1667,40.5 36.8333,40.5 36.5,40.5C 35.596,41.209 35.2627,42.209 35.5,43.5C 34.5,43.5 33.5,43.5 32.5,43.5C 32.6287,45.2161 32.962,46.8828 33.5,48.5C 32.3143,49.7054 32.3143,51.0387 33.5,52.5C 33.631,53.2389 33.4643,53.9056 33,54.5C 32,53.1667 31,53.1667 30,54.5C 27.9283,57.9316 27.2617,61.5983 28,65.5C 28.8333,66.3333 29.6667,67.1667 30.5,68C 30.2716,68.3988 29.9382,68.5654 29.5,68.5C 25.9905,65.6423 23.6571,61.9757 22.5,57.5C 22.1281,54.9783 22.9614,52.9783 25,51.5C 25.3333,47.8333 25.6667,44.1667 26,40.5C 26.3333,40.1667 26.6667,39.8333 27,39.5C 27.1816,42.2263 27.6816,44.8929 28.5,47.5C 28.4303,44.8699 29.097,42.2033 30.5,39.5C 31.8804,40.7065 33.0471,40.3731 34,38.5C 34.8151,33.6478 34.6484,28.9811 33.5,24.5C 36.1612,21.4977 39.4945,19.4977 43.5,18.5 Z"/></g>
<g><path style="opacity:1" fill="#77777c" d="M 56.5,48.5 C 56.6602,50.1992 56.4935,51.8659 56,53.5C 53.6091,52.3975 53.1091,53.0642 54.5,55.5C 57.7903,55.1018 60.2903,53.1018 62,49.5C 61.4293,53.7893 59.4293,57.456 56,60.5C 55.6924,59.6919 55.1924,59.0253 54.5,58.5C 53.3777,59.6302 52.0443,60.2969 50.5,60.5C 49.1667,59.8333 48.1667,58.8333 47.5,57.5C 49.6807,57.7163 51.3474,56.883 52.5,55C 50.1771,55.3057 47.8437,55.9723 45.5,57C 43.0562,59.3955 40.3895,61.5622 37.5,63.5C 36.5481,61.9547 36.2148,60.288 36.5,58.5C 37.2679,59.2625 37.7679,60.2625 38,61.5C 44.0308,56.8926 50.1974,52.5593 56.5,48.5 Z"/></g>
<g><path style="opacity:1" fill="#344046" d="M 19.5,42.5 C 18.9455,46.0122 19.6122,49.0122 21.5,51.5C 21.2053,53.7354 21.5386,55.7354 22.5,57.5C 23.6571,61.9757 25.9905,65.6423 29.5,68.5C 31.1815,70.0075 33.1815,71.0075 35.5,71.5C 37.4352,72.1495 39.4352,72.4828 41.5,72.5C 41.5,73.1667 41.1667,73.5 40.5,73.5C 38.0504,73.702 35.717,73.3686 33.5,72.5C 24.7477,68.8831 19.9144,62.2164 19,52.5C 18.5026,49.854 18.3359,47.1873 18.5,44.5C 18.3284,43.5084 18.6618,42.8417 19.5,42.5 Z"/></g>
<g><path style="opacity:1" fill="#485056" d="M 40.5,73.5 C 41.1667,73.5 41.5,73.1667 41.5,72.5C 49.8348,72.3706 52.8348,68.3706 50.5,60.5C 52.0443,60.2969 53.3777,59.6302 54.5,58.5C 55.1924,59.0253 55.6924,59.6919 56,60.5C 59.4293,57.456 61.4293,53.7893 62,49.5C 60.2903,53.1018 57.7903,55.1018 54.5,55.5C 53.1091,53.0642 53.6091,52.3975 56,53.5C 56.4935,51.8659 56.6602,50.1992 56.5,48.5C 57.1667,48.5 57.5,48.1667 57.5,47.5C 58.2389,47.631 58.9056,47.4643 59.5,47C 58.5494,46.2825 58.3828,45.4491 59,44.5C 60.0491,42.3825 61.5491,40.7158 63.5,39.5C 64.7942,38.7101 65.9609,37.7101 67,36.5C 67.3333,37.8333 67.6667,39.1667 68,40.5C 68.3333,40.1667 68.6667,39.8333 69,39.5C 69.7026,42.7125 69.5359,45.8792 68.5,49C 69.1667,49.6667 69.8333,50.3333 70.5,51C 69.47,53.5602 68.3034,56.0602 67,58.5C 66.6924,57.6919 66.1924,57.0253 65.5,56.5C 62.6682,60.8276 59.3348,64.6609 55.5,68C 56.1667,68.3333 56.8333,68.6667 57.5,69C 50.1152,75.2636 41.7818,77.2636 32.5,75C 35.3647,74.8171 38.0314,74.3171 40.5,73.5 Z"/></g>
<g><path style="opacity:1" fill="#3f4952" d="M 16.5,52.5 C 18.1177,57.9085 20.451,63.0752 23.5,68C 23.2716,68.3988 22.9382,68.5654 22.5,68.5C 18.0794,64.2028 16.0794,58.8695 16.5,52.5 Z"/></g>
<g><path style="opacity:1" fill="#464e53" d="M 33.5,52.5 C 34.1667,52.5 34.5,52.8333 34.5,53.5C 34.1201,55.698 34.7868,57.3646 36.5,58.5C 36.2148,60.288 36.5481,61.9547 37.5,63.5C 40.3895,61.5622 43.0562,59.3955 45.5,57C 47.8437,55.9723 50.1771,55.3057 52.5,55C 51.3474,56.883 49.6807,57.7163 47.5,57.5C 45.3437,59.841 42.8437,61.841 40,63.5C 40.3773,67.0683 38.8773,69.7349 35.5,71.5C 33.1815,71.0075 31.1815,70.0075 29.5,68.5C 29.9382,68.5654 30.2716,68.3988 30.5,68C 29.6667,67.1667 28.8333,66.3333 28,65.5C 27.2617,61.5983 27.9283,57.9316 30,54.5C 31,53.1667 32,53.1667 33,54.5C 33.4643,53.9056 33.631,53.2389 33.5,52.5 Z"/></g>
<g><path style="opacity:1" fill="#5e626a" d="M 47.5,57.5 C 48.1667,58.8333 49.1667,59.8333 50.5,60.5C 52.8348,68.3706 49.8348,72.3706 41.5,72.5C 39.4352,72.4828 37.4352,72.1495 35.5,71.5C 38.8773,69.7349 40.3773,67.0683 40,63.5C 42.8437,61.841 45.3437,59.841 47.5,57.5 Z"/></g>
<g><path style="opacity:0.518" fill="#abaab3" d="M 15.5,43.5 C 15.8333,43.5 16.1667,43.5 16.5,43.5C 16.5,45.1667 16.5,46.8333 16.5,48.5C 16.5,49.8333 16.5,51.1667 16.5,52.5C 16.0794,58.8695 18.0794,64.2028 22.5,68.5C 23.6253,70.1288 24.9586,71.6288 26.5,73C 26.2716,73.3988 25.9382,73.5654 25.5,73.5C 25.1667,73.5 24.8333,73.5 24.5,73.5C 15.9241,65.2007 12.9241,55.2007 15.5,43.5 Z"/></g>
<g><path style="opacity:0.053" fill="#262727" d="M 24.5,73.5 C 24.5,74.1667 24.8333,74.5 25.5,74.5C 25.8417,75.3382 26.5084,75.6716 27.5,75.5C 27.8333,76.8333 28.1667,76.8333 28.5,75.5C 28.8333,75.5 29.1667,75.5 29.5,75.5C 29.5,75.8333 29.5,76.1667 29.5,76.5C 29.8333,77.8333 30.1667,77.8333 30.5,76.5C 33.0667,77.475 35.7334,78.1417 38.5,78.5C 42.9811,79.6484 47.6478,79.8151 52.5,79C 56.188,77.4873 59.8546,75.9873 63.5,74.5C 64.1667,74.5 64.5,74.1667 64.5,73.5C 65.4916,73.6716 66.1583,73.3382 66.5,72.5C 67.1667,72.5 67.5,72.1667 67.5,71.5C 68.1667,71.5 68.5,71.1667 68.5,70.5C 69.1667,70.5 69.5,70.1667 69.5,69.5C 70.1667,69.5 70.5,69.1667 70.5,68.5C 80.1315,67.8431 86.1315,72.3431 88.5,82C 82.9451,88.919 75.6118,92.0857 66.5,91.5C 60.9577,90.8746 55.291,89.7079 49.5,88C 51.8782,87.4888 54.2115,86.8221 56.5,86C 51.5,85.3333 46.5,85.3333 41.5,86C 41,86.5 40.5,87 40,87.5C 36.7293,83.9164 32.5626,82.7497 27.5,84C 24.3749,82.1815 21.3749,80.1815 18.5,78C 16.4325,77.3131 14.4325,77.4798 12.5,78.5C 11.9035,74.0369 13.7368,70.7036 18,68.5C 19.7772,70.7899 21.9438,72.4566 24.5,73.5 Z"/></g>
<g><path style="opacity:1" fill="#2c3b3e" d="M 72.5,64.5 C 71.3995,65.6049 70.7329,66.9382 70.5,68.5C 69.8333,68.5 69.5,68.8333 69.5,69.5C 68.8333,69.5 68.5,69.8333 68.5,70.5C 67.8333,70.5 67.5,70.8333 67.5,71.5C 66.8333,71.5 66.5,71.8333 66.5,72.5C 65.5084,72.3284 64.8417,72.6618 64.5,73.5C 63.8333,73.5 63.5,73.8333 63.5,74.5C 59.8546,75.9873 56.188,77.4873 52.5,79C 47.6478,79.8151 42.9811,79.6484 38.5,78.5C 51.9339,76.7067 62.1006,70.04 69,58.5C 71.2645,59.9158 72.4312,61.9158 72.5,64.5 Z"/></g>
<g><path style="opacity:1" fill="#717278" d="M 18.5,44.5 C 18.3359,47.1873 18.5026,49.854 19,52.5C 19.9144,62.2164 24.7477,68.8831 33.5,72.5C 32.0736,73.3412 30.7403,74.3412 29.5,75.5C 29.1667,75.5 28.8333,75.5 28.5,75.5C 28.1667,75.5 27.8333,75.5 27.5,75.5C 27.1583,74.6618 26.4916,74.3284 25.5,74.5C 25.5,74.1667 25.5,73.8333 25.5,73.5C 25.9382,73.5654 26.2716,73.3988 26.5,73C 24.9586,71.6288 23.6253,70.1288 22.5,68.5C 22.9382,68.5654 23.2716,68.3988 23.5,68C 20.451,63.0752 18.1177,57.9085 16.5,52.5C 16.5,51.1667 16.5,49.8333 16.5,48.5C 17.1667,47.1667 17.8333,45.8333 18.5,44.5 Z"/></g>
<g><path style="opacity:0.004" fill="#262726" d="M 14.5,81.5 C 18.3662,83.2897 22.3662,84.7897 26.5,86C 23.7929,86.3283 21.1262,85.995 18.5,85C 16.4556,84.5017 15.1223,83.335 14.5,81.5 Z"/></g>
<g><path style="opacity:0.004" fill="#262726" d="M 43.5,87.5 C 46.7973,87.3287 47.1306,87.9954 44.5,89.5C 43.7025,89.0431 43.3691,88.3764 43.5,87.5 Z"/></g>
</svg>
