<?xml version="1.0" encoding="UTF-8"?>
<!DOCTYPE svg PUBLIC "-//W3C//DTD SVG 1.1//EN" "http://www.w3.org/Graphics/SVG/1.1/DTD/svg11.dtd">
<svg xmlns="http://www.w3.org/2000/svg" version="1.1" width="200px" height="200px" style="shape-rendering:geometricPrecision; text-rendering:geometricPrecision; image-rendering:optimizeQuality; fill-rule:evenodd; clip-rule:evenodd" xmlns:xlink="http://www.w3.org/1999/xlink">
<g><path style="opacity:1" fill="#fdfdfd" d="M -0.5,-0.5 C 28.8333,-0.5 58.1667,-0.5 87.5,-0.5C 38.5149,9.15174 9.1816,38.4851 -0.5,87.5C -0.5,58.1667 -0.5,28.8333 -0.5,-0.5 Z"/></g>
<g><path style="opacity:1" fill="#fcfcfc" d="M 108.5,-0.5 C 138.833,-0.5 169.167,-0.5 199.5,-0.5C 199.5,28.8333 199.5,58.1667 199.5,87.5C 189.526,37.1936 159.193,7.8603 108.5,-0.5 Z"/></g>
<g><path style="opacity:1" fill="#2c2d41" d="M 87.5,-0.5 C 94.5,-0.5 101.5,-0.5 108.5,-0.5C 159.193,7.8603 189.526,37.1936 199.5,87.5C 199.5,94.5 199.5,101.5 199.5,108.5C 191.227,159.107 161.894,189.441 111.5,199.5C 103.5,199.5 95.5,199.5 87.5,199.5C 38.548,189.881 9.21462,160.548 -0.5,111.5C -0.5,103.5 -0.5,95.5 -0.5,87.5C 9.1816,38.4851 38.5149,9.15174 87.5,-0.5 Z"/></g>
<g><path style="opacity:1" fill="#87bdf0" d="M 143.5,53.5 C 138.195,52.227 133.362,49.8936 129,46.5C 127.812,47.5634 127.312,48.8967 127.5,50.5C 108.164,50.3334 88.8305,50.5 69.5,51C 65.1073,52.8571 60.6073,54.0237 56,54.5C 52.8745,56.1186 50.7078,58.452 49.5,61.5C 47.1667,62.1667 44.8333,62.8333 42.5,63.5C 43.5914,60.5722 45.5914,58.4055 48.5,57C 62.8333,48.6667 77.1667,40.3333 91.5,32C 98.4486,29.7016 105.115,30.3682 111.5,34C 122.064,40.7766 132.73,47.2766 143.5,53.5 Z"/></g>
<g><path style="opacity:1" fill="#78b6f0" d="M 143.5,53.5 C 150.045,56.2132 155.211,60.5466 159,66.5C 160.434,81.4417 160.934,96.4417 160.5,111.5C 159.527,109.052 159.194,106.385 159.5,103.5C 159.91,94.7502 159.41,86.0836 158,77.5C 156.445,75.8542 154.779,75.5209 153,76.5C 152.769,80.5841 152.102,84.5841 151,88.5C 150.329,89.2524 149.496,89.5858 148.5,89.5C 152.77,83.163 152.437,77.163 147.5,71.5C 146.826,69.9755 145.826,68.6422 144.5,67.5C 113.839,66.3335 83.1721,66.1668 52.5,67C 47.4829,71.6686 45.4829,77.5019 46.5,84.5C 45.0267,83.9285 43.36,83.9285 41.5,84.5C 41.6495,85.552 41.4828,86.552 41,87.5C 40.6667,85.1667 40.3333,82.8333 40,80.5C 39.6667,85.5 39.3333,90.5 39,95.5C 38.5003,87.5069 38.3336,79.5069 38.5,71.5C 38.7936,68.2459 40.127,65.5792 42.5,63.5C 44.8333,62.8333 47.1667,62.1667 49.5,61.5C 50.7078,58.452 52.8745,56.1186 56,54.5C 60.6073,54.0237 65.1073,52.8571 69.5,51C 88.8305,50.5 108.164,50.3334 127.5,50.5C 127.312,48.8967 127.812,47.5634 129,46.5C 133.362,49.8936 138.195,52.227 143.5,53.5 Z"/></g>
<g><path style="opacity:1" fill="#78aadd" d="M 147.5,71.5 C 147.167,71.5 146.833,71.5 146.5,71.5C 145.571,70.6851 144.571,69.8518 143.5,69C 114.167,68.3333 84.8333,68.3333 55.5,69C 54.5842,69.2784 53.9175,69.7784 53.5,70.5C 47.2017,74.8559 45.8684,80.5226 49.5,87.5C 47.8564,87.1898 46.8564,86.1898 46.5,84.5C 45.4829,77.5019 47.4829,71.6686 52.5,67C 83.1721,66.1668 113.839,66.3335 144.5,67.5C 145.826,68.6422 146.826,69.9755 147.5,71.5 Z"/></g>
<g><path style="opacity:1" fill="#252f4d" d="M 146.5,71.5 C 115.531,70.5226 84.5314,70.1892 53.5,70.5C 53.9175,69.7784 54.5842,69.2784 55.5,69C 84.8333,68.3333 114.167,68.3333 143.5,69C 144.571,69.8518 145.571,70.6851 146.5,71.5 Z"/></g>
<g><path style="opacity:1" fill="#4c2d3c" d="M 108.5,91.5 C 107.5,90.8333 106.5,90.1667 105.5,89.5C 104.412,85.2522 101.745,83.7522 97.5,85C 96.244,85.4169 95.5774,86.2502 95.5,87.5C 93.8058,88.5274 92.4725,89.8608 91.5,91.5C 91.7564,89.2075 91.4231,87.0408 90.5,85C 95.3297,82.1397 100.33,81.8063 105.5,84C 106.991,86.3078 107.991,88.8078 108.5,91.5 Z"/></g>
<g><path style="opacity:1" fill="#c35b61" d="M 105.5,89.5 C 106.5,90.1667 107.5,90.8333 108.5,91.5C 109.167,93.5 109.833,95.5 110.5,97.5C 109.5,97.5 108.5,97.5 107.5,97.5C 106.361,94.9963 105.694,92.3297 105.5,89.5 Z"/></g>
<g><path style="opacity:1" fill="#f15c5c" d="M 105.5,89.5 C 105.694,92.3297 106.361,94.9963 107.5,97.5C 108.5,97.5 109.5,97.5 110.5,97.5C 110.343,98.8734 110.51,100.207 111,101.5C 112.938,105.059 115.105,108.393 117.5,111.5C 118.461,113.265 118.795,115.265 118.5,117.5C 106.879,118.624 95.2126,118.791 83.5,118C 81.771,116.211 81.1043,114.044 81.5,111.5C 81.2291,109.62 81.8958,108.287 83.5,107.5C 85.0744,107.063 86.2411,106.063 87,104.5C 90.0944,98.9222 92.9277,93.2556 95.5,87.5C 95.5774,86.2502 96.244,85.4169 97.5,85C 101.745,83.7522 104.412,85.2522 105.5,89.5 Z"/></g>
<g><path style="opacity:1" fill="#579fe2" d="M 159.5,103.5 C 153.463,103.171 147.463,103.504 141.5,104.5C 140.494,107.829 138.494,110.162 135.5,111.5C 138.829,103.499 143.162,96.1658 148.5,89.5C 149.496,89.5858 150.329,89.2524 151,88.5C 152.102,84.5841 152.769,80.5841 153,76.5C 154.779,75.5209 156.445,75.8542 158,77.5C 159.41,86.0836 159.91,94.7502 159.5,103.5 Z"/></g>
<g><path style="opacity:1" fill="#d16066" d="M 95.5,87.5 C 92.9277,93.2556 90.0944,98.9222 87,104.5C 86.2411,106.063 85.0744,107.063 83.5,107.5C 86.1689,102.162 88.8356,96.8288 91.5,91.5C 92.4725,89.8608 93.8058,88.5274 95.5,87.5 Z"/></g>
<g><path style="opacity:1" fill="#b8565e" d="M 110.5,97.5 C 111.593,99.3492 112.926,101.016 114.5,102.5C 116.023,105.345 117.023,108.345 117.5,111.5C 115.105,108.393 112.938,105.059 111,101.5C 110.51,100.207 110.343,98.8734 110.5,97.5 Z"/></g>
<g><path style="opacity:1" fill="#4c97df" d="M 38.5,71.5 C 38.3336,79.5069 38.5003,87.5069 39,95.5C 39.3333,90.5 39.6667,85.5 40,80.5C 40.3333,82.8333 40.6667,85.1667 41,87.5C 41.4828,86.552 41.6495,85.552 41.5,84.5C 43.36,83.9285 45.0267,83.9285 46.5,84.5C 46.8564,86.1898 47.8564,87.1898 49.5,87.5C 57.5721,99.2973 64.9054,111.631 71.5,124.5C 69.1272,122.79 66.9605,120.79 65,118.5C 56.3888,119.209 47.8888,119.543 39.5,119.5C 39.5,122.167 39.5,124.833 39.5,127.5C 38.7321,126.737 38.2321,125.737 38,124.5C 37.1714,106.662 37.3381,88.9952 38.5,71.5 Z"/></g>
<g><path style="opacity:1" fill="#4897e3" d="M 159.5,103.5 C 159.194,106.385 159.527,109.052 160.5,111.5C 160.821,117.026 160.488,122.36 159.5,127.5C 159.5,125.5 159.5,123.5 159.5,121.5C 151.855,121.112 144.355,121.779 137,123.5C 136.077,122.241 135.243,120.908 134.5,119.5C 132.757,121.038 130.757,122.038 128.5,122.5C 130.087,118.317 132.421,114.65 135.5,111.5C 138.494,110.162 140.494,107.829 141.5,104.5C 147.463,103.504 153.463,103.171 159.5,103.5 Z"/></g>
<g><path style="opacity:1" fill="#fcfcfc" d="M -0.5,111.5 C 9.21462,160.548 38.548,189.881 87.5,199.5C 58.1667,199.5 28.8333,199.5 -0.5,199.5C -0.5,170.167 -0.5,140.833 -0.5,111.5 Z"/></g>
<g><path style="opacity:1" fill="#fbfbfc" d="M 199.5,108.5 C 199.5,138.833 199.5,169.167 199.5,199.5C 170.167,199.5 140.833,199.5 111.5,199.5C 161.894,189.441 191.227,159.107 199.5,108.5 Z"/></g>
<g><path style="opacity:1" fill="#b75760" d="M 81.5,111.5 C 81.1043,114.044 81.771,116.211 83.5,118C 95.2126,118.791 106.879,118.624 118.5,117.5C 117.942,118.79 116.942,119.623 115.5,120C 104.833,120.667 94.1667,120.667 83.5,120C 82.6266,118.955 81.6266,118.122 80.5,117.5C 79.8529,116.726 79.5195,115.726 79.5,114.5C 79.6399,112.97 80.3065,111.97 81.5,111.5 Z"/></g>
<g><path style="opacity:1" fill="#392a3b" d="M 114.5,102.5 C 119.534,106.936 121.534,112.603 120.5,119.5C 122.39,119.703 123.89,119.037 125,117.5C 125.658,119.108 125.158,120.275 123.5,121C 124.576,122.726 124.743,124.559 124,126.5C 123.411,124.137 121.911,123.137 119.5,123.5C 119.649,122.448 119.483,121.448 119,120.5C 117.601,121.227 116.101,121.727 114.5,122C 104.167,122.667 93.8333,122.667 83.5,122C 81.8588,120.871 80.8588,119.371 80.5,117.5C 81.6266,118.122 82.6266,118.955 83.5,120C 94.1667,120.667 104.833,120.667 115.5,120C 116.942,119.623 117.942,118.79 118.5,117.5C 118.795,115.265 118.461,113.265 117.5,111.5C 117.023,108.345 116.023,105.345 114.5,102.5 Z"/></g>
<g><path style="opacity:1" fill="#3c87e1" d="M 159.5,127.5 C 159.233,129.965 158.566,132.299 157.5,134.5C 156.833,134.833 156.167,135.167 155.5,135.5C 156.75,132.994 157.416,130.327 157.5,127.5C 155.278,127.178 153.444,127.845 152,129.5C 149.539,128.782 147.039,128.115 144.5,127.5C 138.672,129.129 132.839,129.462 127,128.5C 126.517,129.448 126.351,130.448 126.5,131.5C 125.5,131.5 124.5,131.5 123.5,131.5C 125.208,128.475 126.874,125.475 128.5,122.5C 130.757,122.038 132.757,121.038 134.5,119.5C 135.243,120.908 136.077,122.241 137,123.5C 144.355,121.779 151.855,121.112 159.5,121.5C 159.5,123.5 159.5,125.5 159.5,127.5 Z"/></g>
<g><path style="opacity:1" fill="#3a86de" d="M 71.5,124.5 C 73.7451,127.32 75.7451,130.32 77.5,133.5C 76.1805,132.058 74.5138,131.392 72.5,131.5C 72.8747,128.093 71.8747,127.593 69.5,130C 71.2705,130.535 71.6039,131.369 70.5,132.5C 69.1667,131.167 67.8333,129.833 66.5,128.5C 60.0102,130.031 53.5102,131.364 47,132.5C 45.9887,131.663 44.8221,131.33 43.5,131.5C 43.2291,133.38 43.8958,134.713 45.5,135.5C 46.4411,137.772 47.7745,139.772 49.5,141.5C 48.8333,141.5 48.1667,141.5 47.5,141.5C 42.7981,138.107 40.1314,133.441 39.5,127.5C 39.5,124.833 39.5,122.167 39.5,119.5C 47.8888,119.543 56.3888,119.209 65,118.5C 66.9605,120.79 69.1272,122.79 71.5,124.5 Z"/></g>
<g><path style="opacity:1" fill="#347bdc" d="M 155.5,135.5 C 153.706,138.745 151.039,141.079 147.5,142.5C 148.189,139.647 150.022,137.981 153,137.5C 154.009,135.975 154.509,134.308 154.5,132.5C 152.122,133.688 149.622,134.688 147,135.5C 139.96,133.317 132.96,132.317 126,132.5C 125.814,134.9 125.314,137.234 124.5,139.5C 123.833,138.833 123.167,138.167 122.5,137.5C 120.481,139.19 118.481,140.856 116.5,142.5C 118.594,139.903 119.927,136.903 120.5,133.5C 121.5,132.833 122.5,132.167 123.5,131.5C 124.5,131.5 125.5,131.5 126.5,131.5C 126.351,130.448 126.517,129.448 127,128.5C 132.839,129.462 138.672,129.129 144.5,127.5C 147.039,128.115 149.539,128.782 152,129.5C 153.444,127.845 155.278,127.178 157.5,127.5C 157.416,130.327 156.75,132.994 155.5,135.5 Z"/></g>
<g><path style="opacity:1" fill="#327ae0" d="M 77.5,133.5 C 78.7196,135.282 79.3862,137.282 79.5,139.5C 77.6729,138.068 76.0063,136.401 74.5,134.5C 73.4106,139.117 71.4106,139.617 68.5,136C 63.581,135.198 58.7477,135.365 54,136.5C 51.6667,135.833 49.3333,135.167 47,134.5C 46.6174,135.056 46.1174,135.389 45.5,135.5C 43.8958,134.713 43.2291,133.38 43.5,131.5C 44.8221,131.33 45.9887,131.663 47,132.5C 53.5102,131.364 60.0102,130.031 66.5,128.5C 67.8333,129.833 69.1667,131.167 70.5,132.5C 71.6039,131.369 71.2705,130.535 69.5,130C 71.8747,127.593 72.8747,128.093 72.5,131.5C 74.5138,131.392 76.1805,132.058 77.5,133.5 Z"/></g>
<g><path style="opacity:1" fill="#296ddf" d="M 79.5,139.5 C 81.2624,140.262 82.2624,141.596 82.5,143.5C 82.9465,146.01 82.2798,148.01 80.5,149.5C 76.8981,147.775 73.3981,145.109 70,141.5C 67.837,143.555 65.337,144.388 62.5,144C 63.7112,143.107 63.7112,142.274 62.5,141.5C 60.5106,142.632 58.8439,143.965 57.5,145.5C 54.6086,144.459 51.942,143.126 49.5,141.5C 47.7745,139.772 46.4411,137.772 45.5,135.5C 46.1174,135.389 46.6174,135.056 47,134.5C 49.3333,135.167 51.6667,135.833 54,136.5C 58.7477,135.365 63.581,135.198 68.5,136C 71.4106,139.617 73.4106,139.117 74.5,134.5C 76.0063,136.401 77.6729,138.068 79.5,139.5 Z"/></g>
<g><path style="opacity:1" fill="#27325b" d="M 120.5,133.5 C 119.927,136.903 118.594,139.903 116.5,142.5C 115.489,144.402 115.322,146.402 116,148.5C 118.505,150.196 120.005,152.53 120.5,155.5C 122.071,156.309 123.738,156.643 125.5,156.5C 124.419,159.863 122.419,160.363 119.5,158C 118,155.167 116.5,152.333 115,149.5C 114.333,145.5 114.333,141.5 115,137.5C 115.718,138.451 116.551,138.617 117.5,138C 118.053,136.122 119.053,134.622 120.5,133.5 Z"/></g>
<g><path style="opacity:1" fill="#2a6cdc" d="M 147.5,142.5 C 144.755,144.175 142.088,145.842 139.5,147.5C 137.685,148.63 135.685,149.296 133.5,149.5C 130.761,151.851 128.095,154.184 125.5,156.5C 123.738,156.643 122.071,156.309 120.5,155.5C 120.005,152.53 118.505,150.196 116,148.5C 115.322,146.402 115.489,144.402 116.5,142.5C 118.481,140.856 120.481,139.19 122.5,137.5C 123.167,138.167 123.833,138.833 124.5,139.5C 125.314,137.234 125.814,134.9 126,132.5C 132.96,132.317 139.96,133.317 147,135.5C 149.622,134.688 152.122,133.688 154.5,132.5C 154.509,134.308 154.009,135.975 153,137.5C 150.022,137.981 148.189,139.647 147.5,142.5 Z"/></g>
<g><path style="opacity:1" fill="#23386c" d="M 108.5,151.5 C 105.248,149.416 102.915,146.582 101.5,143C 99.5116,142.82 97.5116,142.986 95.5,143.5C 95.7709,145.38 95.1042,146.713 93.5,147.5C 93.9883,141.918 96.9883,139.752 102.5,141C 103.88,144.874 105.88,148.374 108.5,151.5 Z"/></g>
<g><path style="opacity:1" fill="#24345c" d="M 157.5,134.5 C 154.256,142.756 148.256,147.089 139.5,147.5C 142.088,145.842 144.755,144.175 147.5,142.5C 151.039,141.079 153.706,138.745 155.5,135.5C 156.167,135.167 156.833,134.833 157.5,134.5 Z"/></g>
<g><path style="opacity:1" fill="#2161e0" d="M 133.5,149.5 C 130.113,151.275 126.613,152.942 123,154.5C 122.228,154.355 121.561,154.022 121,153.5C 119.882,151.235 119.049,148.901 118.5,146.5C 119.5,146.5 120.5,146.5 121.5,146.5C 121.33,143.509 122.663,141.509 125.5,140.5C 127.636,143.072 130.303,144.239 133.5,144C 133.167,143.667 132.833,143.333 132.5,143C 135.167,142.333 137.833,142.333 140.5,143C 138.556,145.629 136.223,147.796 133.5,149.5 Z"/></g>
<g><path style="opacity:1" fill="#215ed9" d="M 80.5,149.5 C 79.4149,153.045 77.0816,155.045 73.5,155.5C 72.8333,155.5 72.1667,155.5 71.5,155.5C 70.7387,154.609 69.7387,153.942 68.5,153.5C 67.6143,152.675 67.281,151.675 67.5,150.5C 63.0901,150.713 59.7568,149.046 57.5,145.5C 58.8439,143.965 60.5106,142.632 62.5,141.5C 63.7112,142.274 63.7112,143.107 62.5,144C 65.337,144.388 67.837,143.555 70,141.5C 73.3981,145.109 76.8981,147.775 80.5,149.5 Z"/></g>
<g><path style="opacity:1" fill="#292d51" d="M 83.5,143.5 C 84.286,149.709 86.1194,149.709 89,143.5C 89.7579,146.233 89.2579,148.733 87.5,151C 87.8333,151.5 88.1667,152 88.5,152.5C 89.9454,150.606 91.6121,148.94 93.5,147.5C 92.6266,150.577 90.7932,152.91 88,154.5C 85.1191,159.674 86.2857,163.34 91.5,165.5C 91.4142,166.496 91.7476,167.329 92.5,168C 97.0223,170.106 101.356,169.939 105.5,167.5C 105.047,168.458 104.381,169.292 103.5,170C 99.7973,170.579 96.1306,170.412 92.5,169.5C 92.6495,170.552 92.4828,171.552 92,172.5C 90.197,171.687 88.697,170.52 87.5,169C 87.7355,168.127 88.0688,167.293 88.5,166.5C 86.2477,164.496 84.9143,161.996 84.5,159C 87.0671,156.088 87.0671,153.255 84.5,150.5C 83.4822,151.193 82.4822,151.859 81.5,152.5C 83.123,149.785 83.7896,146.785 83.5,143.5 Z"/></g>
<g><path style="opacity:1" fill="#25315c" d="M 47.5,141.5 C 48.1667,141.5 48.8333,141.5 49.5,141.5C 51.942,143.126 54.6086,144.459 57.5,145.5C 59.7568,149.046 63.0901,150.713 67.5,150.5C 67.281,151.675 67.6143,152.675 68.5,153.5C 69.7387,153.942 70.7387,154.609 71.5,155.5C 63.2686,152.282 55.2686,148.449 47.5,144C 48.5981,143.23 48.5981,142.397 47.5,141.5 Z"/></g>
<g><path style="opacity:1" fill="#1f56d5" d="M 108.5,151.5 C 109.167,153.5 109.833,155.5 110.5,157.5C 108.976,156.826 107.642,155.826 106.5,154.5C 105.032,156.532 103.365,156.365 101.5,154C 99.765,153.349 98.0983,153.515 96.5,154.5C 94.099,151.587 92.7657,151.921 92.5,155.5C 90.8762,155.36 89.7096,156.027 89,157.5C 88.2204,159.387 88.3871,161.054 89.5,162.5C 90.1667,163.5 90.8333,164.5 91.5,165.5C 86.2857,163.34 85.1191,159.674 88,154.5C 90.7932,152.91 92.6266,150.577 93.5,147.5C 95.1042,146.713 95.7709,145.38 95.5,143.5C 97.5116,142.986 99.5116,142.82 101.5,143C 102.915,146.582 105.248,149.416 108.5,151.5 Z"/></g>
<g><path style="opacity:1" fill="#21356d" d="M 139.5,147.5 C 138.71,148.794 137.71,149.961 136.5,151C 133.121,153.356 129.455,155.189 125.5,156.5C 128.095,154.184 130.761,151.851 133.5,149.5C 135.685,149.296 137.685,148.63 139.5,147.5 Z"/></g>
<g><path style="opacity:1" fill="#263d82" d="M 82.5,143.5 C 82.8333,143.5 83.1667,143.5 83.5,143.5C 83.7896,146.785 83.123,149.785 81.5,152.5C 80.0438,157.517 77.3771,158.517 73.5,155.5C 77.0816,155.045 79.4149,153.045 80.5,149.5C 82.2798,148.01 82.9465,146.01 82.5,143.5 Z"/></g>
<g><path style="opacity:1" fill="#144edc" d="M 110.5,157.5 C 111.833,159.5 111.833,161.5 110.5,163.5C 110.67,162.178 110.337,161.011 109.5,160C 104.146,159.609 98.8123,159.109 93.5,158.5C 93.5,159.5 93.5,160.5 93.5,161.5C 91.901,161.232 90.5676,161.566 89.5,162.5C 88.3871,161.054 88.2204,159.387 89,157.5C 89.7096,156.027 90.8762,155.36 92.5,155.5C 92.7657,151.921 94.099,151.587 96.5,154.5C 98.0983,153.515 99.765,153.349 101.5,154C 103.365,156.365 105.032,156.532 106.5,154.5C 107.642,155.826 108.976,156.826 110.5,157.5 Z"/></g>
<g><path style="opacity:1" fill="#0f45dc" d="M 110.5,163.5 C 106.858,165.23 103.025,166.564 99,167.5C 96.3647,167.261 93.8647,166.594 91.5,165.5C 90.8333,164.5 90.1667,163.5 89.5,162.5C 90.5676,161.566 91.901,161.232 93.5,161.5C 93.5,160.5 93.5,159.5 93.5,158.5C 98.8123,159.109 104.146,159.609 109.5,160C 110.337,161.011 110.67,162.178 110.5,163.5 Z"/></g>
<g><path style="opacity:1" fill="#223679" d="M 108.5,151.5 C 113.51,155.046 114.51,159.546 111.5,165C 109.783,166.559 107.783,167.392 105.5,167.5C 107.167,166.167 108.833,164.833 110.5,163.5C 111.833,161.5 111.833,159.5 110.5,157.5C 109.833,155.5 109.167,153.5 108.5,151.5 Z"/></g>
<g><path style="opacity:1" fill="#1938a3" d="M 110.5,163.5 C 108.833,164.833 107.167,166.167 105.5,167.5C 101.356,169.939 97.0223,170.106 92.5,168C 91.7476,167.329 91.4142,166.496 91.5,165.5C 93.8647,166.594 96.3647,167.261 99,167.5C 103.025,166.564 106.858,165.23 110.5,163.5 Z"/></g>
</svg>
