<?xml version="1.0" encoding="UTF-8"?>
<!DOCTYPE svg PUBLIC "-//W3C//DTD SVG 1.1//EN" "http://www.w3.org/Graphics/SVG/1.1/DTD/svg11.dtd">
<svg xmlns="http://www.w3.org/2000/svg" version="1.1" width="96px" height="96px" style="shape-rendering:geometricPrecision; text-rendering:geometricPrecision; image-rendering:optimizeQuality; fill-rule:evenodd; clip-rule:evenodd" xmlns:xlink="http://www.w3.org/1999/xlink">
<g><path style="opacity:0.992" fill="#0969d7" d="M 44.5,-0.5 C 45.1667,-0.5 45.8333,-0.5 46.5,-0.5C 45.5079,31.0933 45.1745,62.76 45.5,94.5C 42.5152,93.6743 39.8485,92.341 37.5,90.5C 38.4915,61.2404 38.8248,31.9071 38.5,2.5C 40.7496,1.86978 42.7496,0.869782 44.5,-0.5 Z"/></g>
<g><path style="opacity:0.992" fill="#0a66d1" d="M 38.5,2.5 C 38.8248,31.9071 38.4915,61.2404 37.5,90.5C 34.3777,89.4388 31.3777,88.1054 28.5,86.5C 29.829,60.3333 29.829,34.1667 28.5,8C 29.756,7.58309 30.4226,6.74975 30.5,5.5C 33.1716,4.49857 35.8382,3.49857 38.5,2.5 Z"/></g>
<g><path style="opacity:0.988" fill="#0a6fe3" d="M 55.5,2.5 C 59.1267,3.32079 62.46,4.65412 65.5,6.5C 64.1685,14.8066 63.5019,23.4733 63.5,32.5C 63.867,42.0404 63.867,51.3737 63.5,60.5C 60.682,62.0722 57.682,63.4055 54.5,64.5C 54.1789,43.7577 54.5122,23.091 55.5,2.5 Z"/></g>
<g><path style="opacity:0.992" fill="#0b72ea" d="M 65.5,6.5 C 67.5786,6.97065 69.5786,7.63732 71.5,8.5C 73.1628,25.0264 72.8295,41.3598 70.5,57.5C 68.4907,59.0652 66.1573,60.0652 63.5,60.5C 63.867,51.3737 63.867,42.0404 63.5,32.5C 63.5019,23.4733 64.1685,14.8066 65.5,6.5 Z"/></g>
<g><path style="opacity:0.989" fill="#0a62ca" d="M 30.5,5.5 C 30.4226,6.74975 29.756,7.58309 28.5,8C 29.829,34.1667 29.829,60.3333 28.5,86.5C 25.8333,85.1667 23.1667,83.8333 20.5,82.5C 20.177,58.092 20.5103,33.7587 21.5,9.5C 24.5,8.16667 27.5,6.83333 30.5,5.5 Z"/></g>
<g><path style="opacity:0.986" fill="#0960c4" d="M 21.5,9.5 C 20.5103,33.7587 20.177,58.092 20.5,82.5C 17.8333,81.1667 15.1667,79.8333 12.5,78.5C 12.462,57.0119 12.462,35.3453 12.5,13.5C 15.2558,11.7962 18.2558,10.4629 21.5,9.5 Z"/></g>
<g><path style="opacity:0.993" fill="#085cbd" d="M 12.5,13.5 C 12.462,35.3453 12.462,57.0119 12.5,78.5C 8.29092,76.2288 3.95759,74.2288 -0.5,72.5C -0.5,54.1667 -0.5,35.8333 -0.5,17.5C 3.83333,16.1667 8.16667,14.8333 12.5,13.5 Z"/></g>
<g><path style="opacity:0.995" fill="#0b76f4" d="M 71.5,8.5 C 77.0709,10.4615 82.4043,12.7949 87.5,15.5C 87.8119,27.5803 87.4786,39.5803 86.5,51.5C 81.3798,54.0598 76.0464,56.0598 70.5,57.5C 72.8295,41.3598 73.1628,25.0264 71.5,8.5 Z"/></g>
<g><path style="opacity:0.967" fill="#0c7afc" d="M 87.5,15.5 C 90.1667,16.1667 92.8333,16.8333 95.5,17.5C 95.5,27.8333 95.5,38.1667 95.5,48.5C 92.4262,49.3024 89.4262,50.3024 86.5,51.5C 87.4786,39.5803 87.8119,27.5803 87.5,15.5 Z"/></g>
<g><path style="opacity:0.501" fill="#0a6bdc" d="M 46.5,-0.5 C 47.8333,-0.5 49.1667,-0.5 50.5,-0.5C 52.0725,0.687286 53.7392,1.68729 55.5,2.5C 54.5122,23.091 54.1789,43.7577 54.5,64.5C 52.6888,55.5538 51.8554,46.2204 52,36.5C 50.3905,37.1466 48.8905,37.98 47.5,39C 48.4927,57.757 48.826,76.5903 48.5,95.5C 47.5,95.5 46.5,95.5 45.5,95.5C 45.5,95.1667 45.5,94.8333 45.5,94.5C 45.1745,62.76 45.5079,31.0933 46.5,-0.5 Z"/></g>
</svg>
