<?xml version="1.0" encoding="UTF-8"?>
<!DOCTYPE svg PUBLIC "-//W3C//DTD SVG 1.1//EN" "http://www.w3.org/Graphics/SVG/1.1/DTD/svg11.dtd">
<svg xmlns="http://www.w3.org/2000/svg" version="1.1" width="96px" height="107px" style="shape-rendering:geometricPrecision; text-rendering:geometricPrecision; image-rendering:optimizeQuality; fill-rule:evenodd; clip-rule:evenodd" xmlns:xlink="http://www.w3.org/1999/xlink">
<g><path style="opacity:1" fill="#6e523d" d="M 60.5,16.5 C 59.9385,20.9568 58.2719,24.9568 55.5,28.5C 55.6236,29.1067 55.9569,29.44 56.5,29.5C 56.0113,30.9952 55.3446,32.3285 54.5,33.5C 54.335,30.1501 54.5017,26.8168 55,23.5C 55.3333,24.1667 55.6667,24.8333 56,25.5C 59.9439,18.4922 60.6105,11.1589 58,3.5C 57.7216,4.4158 57.2216,5.08247 56.5,5.5C 49.5665,9.37481 49.0665,13.7081 55,18.5C 56.2367,14.9399 56.7367,11.2733 56.5,7.5C 57.162,9.30352 57.4954,11.3035 57.5,13.5C 57.4229,23.4142 54.9229,24.0808 50,15.5C 49.6667,15.8333 49.3333,16.1667 49,16.5C 48.6667,15.5 48.3333,14.5 48,13.5C 44.1485,15.2297 39.9818,16.0631 35.5,16C 33.0243,17.3088 31.0243,19.1421 29.5,21.5C 30.9814,22.4803 32.3147,23.647 33.5,25C 32.5842,25.2784 31.9175,25.7784 31.5,26.5C 30.609,25.8902 29.609,25.5569 28.5,25.5C 28.5,24.5 28.5,23.5 28.5,22.5C 28.5,21.1667 28.5,19.8333 28.5,18.5C 32.0453,17.4149 34.0453,15.0816 34.5,11.5C 35.3382,11.1583 35.6716,10.4916 35.5,9.5C 37.1042,10.287 37.7709,11.6203 37.5,13.5C 40.5184,13.6646 43.5184,13.498 46.5,13C 49.1715,7.1547 53.5049,3.32136 59.5,1.5C 59.7509,6.50678 60.0843,11.5068 60.5,16.5 Z"/></g>
<g><path style="opacity:1" fill="#77583d" d="M 35.5,9.5 C 35.6716,10.4916 35.3382,11.1583 34.5,11.5C 32.1633,9.3336 29.6633,7.3336 27,5.5C 26.4222,9.95569 26.9222,14.289 28.5,18.5C 28.5,19.8333 28.5,21.1667 28.5,22.5C 26.3199,20.1367 24.6532,17.47 23.5,14.5C 23.335,11.1501 23.5017,7.81677 24,4.5C 24.3678,3.09001 25.2011,2.09001 26.5,1.5C 28.4935,3.49864 30.8268,4.99864 33.5,6C 34.8228,6.81595 35.4894,7.98261 35.5,9.5 Z"/></g>
<g><path style="opacity:1" fill="#fbd1a0" d="M 24.5,-0.5 C 25.8333,-0.5 27.1667,-0.5 28.5,-0.5C 31.1438,1.96904 33.9772,4.30238 37,6.5C 38.0086,8.02494 38.5086,9.69161 38.5,11.5C 43.0794,12.3033 46.2461,10.6366 48,6.5C 50.4412,3.54644 53.2745,1.21311 56.5,-0.5C 57.8333,-0.5 59.1667,-0.5 60.5,-0.5C 62.1795,6.22978 62.5128,12.8964 61.5,19.5C 61.7373,18.209 61.404,17.209 60.5,16.5C 60.0843,11.5068 59.7509,6.50678 59.5,1.5C 53.5049,3.32136 49.1715,7.1547 46.5,13C 43.5184,13.498 40.5184,13.6646 37.5,13.5C 37.7709,11.6203 37.1042,10.287 35.5,9.5C 35.4894,7.98261 34.8228,6.81595 33.5,6C 30.8268,4.99864 28.4935,3.49864 26.5,1.5C 25.2011,2.09001 24.3678,3.09001 24,4.5C 23.5017,7.81677 23.335,11.1501 23.5,14.5C 23.1667,14.5 22.8333,14.5 22.5,14.5C 20.95,9.23494 21.6167,4.23494 24.5,-0.5 Z"/></g>
<g><path style="opacity:1" fill="#f3c3ac" d="M 34.5,11.5 C 34.0453,15.0816 32.0453,17.4149 28.5,18.5C 26.9222,14.289 26.4222,9.95569 27,5.5C 29.6633,7.3336 32.1633,9.3336 34.5,11.5 Z"/></g>
<g><path style="opacity:1" fill="#edbea7" d="M 56.5,5.5 C 56.5,6.16667 56.5,6.83333 56.5,7.5C 56.7367,11.2733 56.2367,14.9399 55,18.5C 49.0665,13.7081 49.5665,9.37481 56.5,5.5 Z"/></g>
<g><path style="opacity:0.004" fill="#feac94" d="M 80.5,14.5 C 79.8333,13.1667 79.8333,13.1667 80.5,14.5 Z"/></g>
<g><path style="opacity:1" fill="#d1955a" d="M 54.5,33.5 C 49.5274,39.8361 42.8607,42.5028 34.5,41.5C 32.81,40.9829 31.1433,40.6495 29.5,40.5C 30.1667,40.5 30.5,40.1667 30.5,39.5C 34.6931,39.4328 39.0264,39.2661 43.5,39C 45.272,35.889 44.4387,34.0556 41,33.5C 38.3221,34.4233 35.8221,35.7566 33.5,37.5C 32.3338,35.6351 32.6671,33.9684 34.5,32.5C 33.1993,30.556 32.1993,28.556 31.5,26.5C 31.9175,25.7784 32.5842,25.2784 33.5,25C 32.3147,23.647 30.9814,22.4803 29.5,21.5C 31.0243,19.1421 33.0243,17.3088 35.5,16C 39.9818,16.0631 44.1485,15.2297 48,13.5C 48.3333,14.5 48.6667,15.5 49,16.5C 49.3333,16.1667 49.6667,15.8333 50,15.5C 54.9229,24.0808 57.4229,23.4142 57.5,13.5C 57.4954,11.3035 57.162,9.30352 56.5,7.5C 56.5,6.83333 56.5,6.16667 56.5,5.5C 57.2216,5.08247 57.7216,4.4158 58,3.5C 60.6105,11.1589 59.9439,18.4922 56,25.5C 55.6667,24.8333 55.3333,24.1667 55,23.5C 54.5017,26.8168 54.335,30.1501 54.5,33.5 Z"/></g>
<g><path style="opacity:0.925" fill="#f8d09c" d="M 83.5,23.5 C 79.8864,25.3068 76.2198,27.1401 72.5,29C 76.0894,29.2069 79.5894,29.7069 83,30.5C 83.7886,34.0915 83.6219,37.5915 82.5,41C 83.0944,41.4643 83.7611,41.631 84.5,41.5C 85.4916,41.3284 86.1583,41.6618 86.5,42.5C 84.742,42.8769 83.0754,43.5435 81.5,44.5C 80.5713,43.3112 80.238,41.9778 80.5,40.5C 81.4767,37.7131 81.81,34.7131 81.5,31.5C 77.2984,31.1832 73.2984,31.5166 69.5,32.5C 67.8333,32.5 66.1667,32.5 64.5,32.5C 64.0618,32.5654 63.7284,32.3988 63.5,32C 66.2387,30.9741 68.572,29.4741 70.5,27.5C 72.0269,27.573 73.0269,26.9063 73.5,25.5C 76.3311,24.9213 78.6644,23.588 80.5,21.5C 82.674,21.2503 84.3406,20.2503 85.5,18.5C 87.258,18.1231 88.9246,17.4565 90.5,16.5C 91.8333,15.8333 91.8333,15.1667 90.5,14.5C 79.9086,16.9661 70.2419,21.2994 61.5,27.5C 59.7162,27.8925 58.0495,28.5592 56.5,29.5C 55.9569,29.44 55.6236,29.1067 55.5,28.5C 58.2719,24.9568 59.9385,20.9568 60.5,16.5C 61.404,17.209 61.7373,18.209 61.5,19.5C 61.1928,21.4458 61.1928,23.1125 61.5,24.5C 67.7683,20.8677 74.1016,17.5344 80.5,14.5C 83.7215,14.1497 86.8882,13.4831 90,12.5C 94.3086,13.0827 95.1419,14.9161 92.5,18C 89.1019,19.3571 86.1019,21.1904 83.5,23.5 Z"/></g>
<g><path style="opacity:1" fill="#515352" d="M 85.5,18.5 C 84.7494,17.4265 83.7494,17.2599 82.5,18C 75.4784,21.1785 68.4784,24.3452 61.5,27.5C 70.2419,21.2994 79.9086,16.9661 90.5,14.5C 91.8333,15.1667 91.8333,15.8333 90.5,16.5C 88.9246,17.4565 87.258,18.1231 85.5,18.5 Z"/></g>
<g><path style="opacity:1" fill="#4f4843" d="M 85.5,18.5 C 84.3406,20.2503 82.674,21.2503 80.5,21.5C 81.6594,19.7497 83.326,18.7497 85.5,18.5 Z"/></g>
<g><path style="opacity:1" fill="#583f2f" d="M 42.5,20.5 C 45.0014,20.8256 46.1681,22.1589 46,24.5C 44,23.1667 42,23.1667 40,24.5C 40.1929,22.9176 41.0262,21.5843 42.5,20.5 Z"/></g>
<g><path style="opacity:1" fill="#48403b" d="M 80.5,21.5 C 78.6644,23.588 76.3311,24.9213 73.5,25.5C 75.3356,23.412 77.6689,22.0787 80.5,21.5 Z"/></g>
<g><path style="opacity:0.004" fill="#feba97" d="M 83.5,23.5 C 84.8333,24.1667 84.8333,24.1667 83.5,23.5 Z"/></g>
<g><path style="opacity:1" fill="#dfe4e8" d="M 45.5,28.5 C 43.6203,28.7709 42.287,28.1042 41.5,26.5C 42.7382,25.5876 44.0715,25.4209 45.5,26C 46.5981,26.7697 46.5981,27.603 45.5,28.5 Z"/></g>
<g><path style="opacity:1" fill="#4d3c30" d="M 73.5,25.5 C 73.0269,26.9063 72.0269,27.573 70.5,27.5C 70.9731,26.0937 71.9731,25.427 73.5,25.5 Z"/></g>
<g><path style="opacity:1" fill="#a8adb1" d="M 28.5,25.5 C 29.609,25.5569 30.609,25.8902 31.5,26.5C 31.1788,28.0481 30.1788,28.7148 28.5,28.5C 28.5,27.5 28.5,26.5 28.5,25.5 Z"/></g>
<g><path style="opacity:1" fill="#94b9c9" d="M 85.5,18.5 C 83.326,18.7497 81.6594,19.7497 80.5,21.5C 77.6689,22.0787 75.3356,23.412 73.5,25.5C 71.9731,25.427 70.9731,26.0937 70.5,27.5C 67.5152,28.3257 64.8485,29.659 62.5,31.5C 59.8021,31.8449 57.8021,33.1782 56.5,35.5C 56.1667,35.5 55.8333,35.5 55.5,35.5C 54.6618,35.1583 54.3284,34.4916 54.5,33.5C 55.3446,32.3285 56.0113,30.9952 56.5,29.5C 58.0495,28.5592 59.7162,27.8925 61.5,27.5C 68.4784,24.3452 75.4784,21.1785 82.5,18C 83.7494,17.2599 84.7494,17.4265 85.5,18.5 Z"/></g>
<g><path style="opacity:1" fill="#523f32" d="M 41.5,26.5 C 42.287,28.1042 43.6203,28.7709 45.5,28.5C 44.3991,29.5983 43.0657,29.765 41.5,29C 40.2264,28.0228 40.2264,27.1894 41.5,26.5 Z"/></g>
<g><path style="opacity:1" fill="#5a5147" d="M 70.5,27.5 C 68.572,29.4741 66.2387,30.9741 63.5,32C 63.7284,32.3988 64.0618,32.5654 64.5,32.5C 63.7494,33.5735 62.7494,33.7401 61.5,33C 62.056,32.6174 62.3893,32.1174 62.5,31.5C 64.8485,29.659 67.5152,28.3257 70.5,27.5 Z"/></g>
<g><path style="opacity:1" fill="#302a2a" d="M 31.5,26.5 C 32.1993,28.556 33.1993,30.556 34.5,32.5C 32.6671,33.9684 32.3338,35.6351 33.5,37.5C 35.8221,35.7566 38.3221,34.4233 41,33.5C 44.4387,34.0556 45.272,35.889 43.5,39C 39.0264,39.2661 34.6931,39.4328 30.5,39.5C 29.0832,36.0019 28.4165,32.3352 28.5,28.5C 30.1788,28.7148 31.1788,28.0481 31.5,26.5 Z"/></g>
<g><path style="opacity:1" fill="#7a5f4a" d="M 69.5,32.5 C 73.2984,31.5166 77.2984,31.1832 81.5,31.5C 81.81,34.7131 81.4767,37.7131 80.5,40.5C 80.5,37.8333 80.5,35.1667 80.5,32.5C 76.8333,32.5 73.1667,32.5 69.5,32.5 Z"/></g>
<g><path style="opacity:1" fill="#e1e2e1" d="M 39.5,34.5 C 41.9424,34.3537 42.6091,35.187 41.5,37C 39.8333,37.6667 38.1667,37.6667 36.5,37C 37.9423,36.6232 38.9423,35.7899 39.5,34.5 Z"/></g>
<g><path style="opacity:1" fill="#c2280f" d="M 78.5,33.5 C 78.0472,34.4584 77.3805,35.2917 76.5,36C 68.4255,37.1862 60.4255,38.6862 52.5,40.5C 52.1667,40.5 51.8333,40.5 51.5,40.5C 53.0627,39.0552 54.396,37.3885 55.5,35.5C 55.8333,35.5 56.1667,35.5 56.5,35.5C 63.7335,33.9689 71.0668,33.3023 78.5,33.5 Z"/></g>
<g><path style="opacity:1" fill="#54322e" d="M 29.5,40.5 C 31.1433,40.6495 32.81,40.9829 34.5,41.5C 34.8333,42.1667 35.1667,42.8333 35.5,43.5C 35.3234,45.9806 36.3234,47.8139 38.5,49C 41.9066,49.4818 45.24,49.4818 48.5,49C 44.0861,51.0923 39.7528,50.9256 35.5,48.5C 34.8933,48.6236 34.56,48.9569 34.5,49.5C 33.8333,49.8333 33.1667,50.1667 32.5,50.5C 33.6145,47.8229 33.6145,45.1562 32.5,42.5C 31.8182,43.2427 31.1515,43.9094 30.5,44.5C 25.7645,41.2681 22.0978,42.2681 19.5,47.5C 20.6419,42.3073 23.9752,39.974 29.5,40.5 Z"/></g>
<g><path style="opacity:1" fill="#755137" d="M 54.5,33.5 C 54.3284,34.4916 54.6618,35.1583 55.5,35.5C 54.396,37.3885 53.0627,39.0552 51.5,40.5C 46.7942,44.4258 41.4609,45.4258 35.5,43.5C 35.1667,42.8333 34.8333,42.1667 34.5,41.5C 42.8607,42.5028 49.5274,39.8361 54.5,33.5 Z"/></g>
<g><path style="opacity:1" fill="#d7995b" d="M 30.5,44.5 C 30.5,45.8333 30.5,47.1667 30.5,48.5C 30.5,48.8333 30.5,49.1667 30.5,49.5C 29.751,47.0295 28.251,45.0295 26,43.5C 25.5,44.6667 24.6667,45.5 23.5,46C 23.8333,46.3333 24.1667,46.6667 24.5,47C 23.2624,46.9227 22.2624,47.0894 21.5,47.5C 23.5589,48.9512 24.5589,50.9512 24.5,53.5C 24.5654,53.9382 24.3988,54.2716 24,54.5C 23.7216,53.5842 23.2216,52.9175 22.5,52.5C 22.0269,51.0937 21.0269,50.427 19.5,50.5C 19.5,49.5 19.5,48.5 19.5,47.5C 22.0978,42.2681 25.7645,41.2681 30.5,44.5 Z"/></g>
<g><path style="opacity:1" fill="#f7ce9c" d="M 22.5,14.5 C 22.8333,14.5 23.1667,14.5 23.5,14.5C 24.6532,17.47 26.3199,20.1367 28.5,22.5C 28.5,23.5 28.5,24.5 28.5,25.5C 28.5,26.5 28.5,27.5 28.5,28.5C 28.4165,32.3352 29.0832,36.0019 30.5,39.5C 30.5,40.1667 30.1667,40.5 29.5,40.5C 23.9752,39.974 20.6419,42.3073 19.5,47.5C 15.9575,50.5266 12.1242,53.1932 8,55.5C 7.07402,59.2531 8.57402,61.4198 12.5,62C 9.46504,65.3702 6.13171,68.3702 2.5,71C 4.50561,70.8497 6.50561,70.3497 8.5,69.5C 10.4612,76.0869 11.1279,83.0869 10.5,90.5C 12.7354,90.7947 14.7354,90.4614 16.5,89.5C 17.8333,89.5 19.1667,89.5 20.5,89.5C 23.0412,89.1486 24.7079,89.4819 25.5,90.5C 20.2658,91.8203 14.9325,92.3203 9.5,92C 8.16667,85.3333 8.16667,78.6667 9.5,72C 6.28421,72.8973 2.95088,73.7307 -0.5,74.5C -0.5,73.1667 -0.5,71.8333 -0.5,70.5C 2.33466,67.8347 5.33466,65.3347 8.5,63C 5.42027,61.2894 4.2536,58.7894 5,55.5C 8.41196,52.8773 11.912,50.3773 15.5,48C 17.5777,42.4239 21.5777,39.2573 27.5,38.5C 26.9958,33.9417 26.3291,29.4417 25.5,25C 25.8333,24.6667 26.1667,24.3333 26.5,24C 24.4672,21.1041 23.1338,17.9374 22.5,14.5 Z"/></g>
<g><path style="opacity:1" fill="#d03715" d="M 74.5,47.5 C 73.8333,48.1667 73.1667,48.8333 72.5,49.5C 69.345,45.0909 65.0117,43.0909 59.5,43.5C 59.5,43.1667 59.5,42.8333 59.5,42.5C 64.0903,41.349 68.7569,40.5157 73.5,40C 74.3333,39.1667 75.1667,38.3333 76,37.5C 75.5266,40.7581 75.0266,44.0914 74.5,47.5 Z"/></g>
<g><path style="opacity:1" fill="#a3bdcd" d="M 78.5,33.5 C 79.1558,34.6216 79.4892,35.9549 79.5,37.5C 78.9341,42.1594 78.4341,46.8261 78,51.5C 77.7645,53.1193 76.9311,54.1193 75.5,54.5C 75.0074,52.1944 74.6741,49.861 74.5,47.5C 75.0266,44.0914 75.5266,40.7581 76,37.5C 75.1667,38.3333 74.3333,39.1667 73.5,40C 68.7569,40.5157 64.0903,41.349 59.5,42.5C 56.8478,42.5905 54.5145,41.9238 52.5,40.5C 60.4255,38.6862 68.4255,37.1862 76.5,36C 77.3805,35.2917 78.0472,34.4584 78.5,33.5 Z"/></g>
<g><path style="opacity:1" fill="#4a4243" d="M 51.5,40.5 C 51.8333,40.5 52.1667,40.5 52.5,40.5C 54.5145,41.9238 56.8478,42.5905 59.5,42.5C 59.5,42.8333 59.5,43.1667 59.5,43.5C 57.9778,44.1909 56.9778,45.3576 56.5,47C 57.1608,49.464 57.6608,51.964 58,54.5C 58.9947,55.0659 59.828,55.7326 60.5,56.5C 59.1667,56.5 58.5,57.1667 58.5,58.5C 55.6685,54.0205 55.0019,49.1872 56.5,44C 56.1667,43.8333 55.8333,43.6667 55.5,43.5C 54.8281,44.9492 54.1614,46.2825 53.5,47.5C 53.9227,45.2188 53.256,43.5521 51.5,42.5C 51.5,41.8333 51.5,41.1667 51.5,40.5 Z"/></g>
<g><path style="opacity:1" fill="#262120" d="M 62.5,31.5 C 62.3893,32.1174 62.056,32.6174 61.5,33C 62.7494,33.7401 63.7494,33.5735 64.5,32.5C 66.1667,32.5 67.8333,32.5 69.5,32.5C 73.1667,32.5 76.8333,32.5 80.5,32.5C 80.5,35.1667 80.5,37.8333 80.5,40.5C 80.238,41.9778 80.5713,43.3112 81.5,44.5C 83.0754,43.5435 84.742,42.8769 86.5,42.5C 88.0518,41.3782 89.7184,40.8782 91.5,41C 87.6334,45.2016 83.4668,49.0349 79,52.5C 78.5172,53.448 78.3505,54.448 78.5,55.5C 79.5,55.5 80.5,55.5 81.5,55.5C 81.1568,57.4832 81.8235,58.8166 83.5,59.5C 82.7095,60.4013 81.7095,61.0679 80.5,61.5C 80.6567,60.1266 80.49,58.7932 80,57.5C 78.1222,56.9473 76.6222,55.9473 75.5,54.5C 76.9311,54.1193 77.7645,53.1193 78,51.5C 78.4341,46.8261 78.9341,42.1594 79.5,37.5C 79.4892,35.9549 79.1558,34.6216 78.5,33.5C 71.0668,33.3023 63.7335,33.9689 56.5,35.5C 57.8021,33.1782 59.8021,31.8449 62.5,31.5 Z"/></g>
<g><path style="opacity:1" fill="#885e3a" d="M 32.5,50.5 C 31.8333,49.8333 31.1667,49.1667 30.5,48.5C 30.5,47.1667 30.5,45.8333 30.5,44.5C 31.1515,43.9094 31.8182,43.2427 32.5,42.5C 33.6145,45.1562 33.6145,47.8229 32.5,50.5 Z"/></g>
<g><path style="opacity:1" fill="#8ea4bb" d="M 59.5,43.5 C 65.0117,43.0909 69.345,45.0909 72.5,49.5C 72.9234,50.2646 73.2568,51.0979 73.5,52C 72.6854,53.6434 71.6854,55.1434 70.5,56.5C 68.5648,57.1495 66.5648,57.4828 64.5,57.5C 63.1667,57.1667 61.8333,56.8333 60.5,56.5C 59.828,55.7326 58.9947,55.0659 58,54.5C 57.6608,51.964 57.1608,49.464 56.5,47C 56.9778,45.3576 57.9778,44.1909 59.5,43.5 Z"/></g>
<g><path style="opacity:1" fill="#ea3127" d="M 51.5,40.5 C 51.5,41.1667 51.5,41.8333 51.5,42.5C 53.256,43.5521 53.9227,45.2188 53.5,47.5C 52.6618,47.8417 52.3284,48.5084 52.5,49.5C 51.5,49.8333 50.8333,50.5 50.5,51.5C 48.2883,52.6452 45.955,53.6452 43.5,54.5C 45.287,54.9427 46.9537,55.2761 48.5,55.5C 48.5,55.8333 48.5,56.1667 48.5,56.5C 47.1667,57.1667 46.1667,58.1667 45.5,59.5C 44.5,59.8333 43.8333,60.5 43.5,61.5C 42.8333,61.5 42.1667,61.5 41.5,61.5C 41.031,58.3567 39.3644,56.0233 36.5,54.5C 36.5,54.1667 36.5,53.8333 36.5,53.5C 36.7709,51.6203 36.1042,50.287 34.5,49.5C 34.56,48.9569 34.8933,48.6236 35.5,48.5C 39.7528,50.9256 44.0861,51.0923 48.5,49C 45.24,49.4818 41.9066,49.4818 38.5,49C 36.3234,47.8139 35.3234,45.9806 35.5,43.5C 41.4609,45.4258 46.7942,44.4258 51.5,40.5 Z"/></g>
<g><path style="opacity:1" fill="#822924" d="M 51.5,42.5 C 51.4257,44.4109 50.4257,45.5776 48.5,46C 45.8333,46.6667 43.1667,46.6667 40.5,46C 44.6376,46.0638 48.3043,44.8972 51.5,42.5 Z"/></g>
<g><path style="opacity:1" fill="#805b3d" d="M 30.5,49.5 C 29.791,50.404 28.791,50.7373 27.5,50.5C 27.5,51.5 27.5,52.5 27.5,53.5C 26.5,53.5 25.5,53.5 24.5,53.5C 24.5589,50.9512 23.5589,48.9512 21.5,47.5C 22.2624,47.0894 23.2624,46.9227 24.5,47C 24.1667,46.6667 23.8333,46.3333 23.5,46C 24.6667,45.5 25.5,44.6667 26,43.5C 28.251,45.0295 29.751,47.0295 30.5,49.5 Z"/></g>
<g><path style="opacity:1" fill="#312b2e" d="M 34.5,49.5 C 36.1042,50.287 36.7709,51.6203 36.5,53.5C 34.8235,52.8166 34.1568,51.4832 34.5,49.5 Z"/></g>
<g><path style="opacity:1" fill="#8f2220" d="M 50.5,51.5 C 50.3404,53.153 49.6737,54.4863 48.5,55.5C 46.9537,55.2761 45.287,54.9427 43.5,54.5C 45.955,53.6452 48.2883,52.6452 50.5,51.5 Z"/></g>
<g><path style="opacity:1" fill="#4c372a" d="M 30.5,48.5 C 31.1667,49.1667 31.8333,49.8333 32.5,50.5C 30.4202,52.5732 28.7536,54.9066 27.5,57.5C 25.8863,55.9254 23.8863,55.2587 21.5,55.5C 22.1098,54.609 22.4431,53.609 22.5,52.5C 23.2216,52.9175 23.7216,53.5842 24,54.5C 24.3988,54.2716 24.5654,53.9382 24.5,53.5C 25.5,53.5 26.5,53.5 27.5,53.5C 27.5,52.5 27.5,51.5 27.5,50.5C 28.791,50.7373 29.791,50.404 30.5,49.5C 30.5,49.1667 30.5,48.8333 30.5,48.5 Z"/></g>
<g><path style="opacity:1" fill="#483a35" d="M 74.5,47.5 C 74.6741,49.861 75.0074,52.1944 75.5,54.5C 73.8333,55.1667 72.1667,55.8333 70.5,56.5C 71.6854,55.1434 72.6854,53.6434 73.5,52C 73.2568,51.0979 72.9234,50.2646 72.5,49.5C 73.1667,48.8333 73.8333,48.1667 74.5,47.5 Z"/></g>
<g><path style="opacity:1" fill="#f3cb99" d="M 95.5,37.5 C 95.5,38.8333 95.5,40.1667 95.5,41.5C 90.5584,45.1028 85.8918,49.1028 81.5,53.5C 83.4261,57.0061 85.9261,57.3395 89,54.5C 90.2798,54.6135 91.1131,55.2801 91.5,56.5C 89.3582,60.4752 86.3582,63.6419 82.5,66C 83.056,66.3826 83.3893,66.8826 83.5,67.5C 82.8333,67.5 82.5,67.8333 82.5,68.5C 80.8632,69.2178 79.1966,69.3845 77.5,69C 80.1298,65.3683 83.1298,62.035 86.5,59C 85.4232,58.5304 84.4232,58.6971 83.5,59.5C 81.8235,58.8166 81.1568,57.4832 81.5,55.5C 80.5,55.5 79.5,55.5 78.5,55.5C 78.3505,54.448 78.5172,53.448 79,52.5C 83.4668,49.0349 87.6334,45.2016 91.5,41C 89.7184,40.8782 88.0518,41.3782 86.5,42.5C 86.1583,41.6618 85.4916,41.3284 84.5,41.5C 87.4449,39.562 90.6116,37.8953 94,36.5C 94.3826,37.056 94.8826,37.3893 95.5,37.5 Z"/></g>
<g><path style="opacity:1" fill="#ca8f56" d="M 21.5,55.5 C 23.8863,55.2587 25.8863,55.9254 27.5,57.5C 27.5,58.1667 27.5,58.8333 27.5,59.5C 28.9228,60.0122 29.9228,61.3456 30.5,63.5C 30.3716,65.9548 29.3716,67.9548 27.5,69.5C 25.283,70.3686 22.9496,70.702 20.5,70.5C 20.7373,66.278 20.404,62.1114 19.5,58C 19.6387,56.699 20.3054,55.8656 21.5,55.5 Z"/></g>
<g><path style="opacity:1" fill="#a17344" d="M 48.5,56.5 C 49.5075,58.268 48.8408,59.6013 46.5,60.5C 45.8933,60.3764 45.56,60.0431 45.5,59.5C 46.1667,58.1667 47.1667,57.1667 48.5,56.5 Z"/></g>
<g><path style="opacity:1" fill="#372d2e" d="M 70.5,56.5 C 69.8333,57.5 69.1667,58.5 68.5,59.5C 67.0048,59.0113 65.6715,58.3446 64.5,57.5C 66.5648,57.4828 68.5648,57.1495 70.5,56.5 Z"/></g>
<g><path style="opacity:1" fill="#8da3bc" d="M 34.5,49.5 C 34.1568,51.4832 34.8235,52.8166 36.5,53.5C 36.5,53.8333 36.5,54.1667 36.5,54.5C 36.0171,58.5769 37.6837,60.9103 41.5,61.5C 41.631,62.2389 41.4643,62.9056 41,63.5C 39.6439,62.6198 38.1439,62.2865 36.5,62.5C 35.9694,65.8876 37.3027,67.8876 40.5,68.5C 43.5,69.1667 46.5,69.8333 49.5,70.5C 45.5,70.5 41.5,70.5 37.5,70.5C 37.1667,70.5 36.8333,70.5 36.5,70.5C 35.2749,69.8478 34.6083,68.6811 34.5,67C 33.959,63.1721 33.459,59.3388 33,55.5C 31.549,57.4641 29.7157,58.7974 27.5,59.5C 27.5,58.8333 27.5,58.1667 27.5,57.5C 28.7536,54.9066 30.4202,52.5732 32.5,50.5C 33.1667,50.1667 33.8333,49.8333 34.5,49.5 Z"/></g>
<g><path style="opacity:1" fill="#644d3c" d="M 36.5,54.5 C 39.3644,56.0233 41.031,58.3567 41.5,61.5C 37.6837,60.9103 36.0171,58.5769 36.5,54.5 Z"/></g>
<g><path style="opacity:1" fill="#3e373b" d="M 52.5,49.5 C 51.9868,52.9121 51.1534,56.2454 50,59.5C 48.2111,61.229 46.0444,61.8957 43.5,61.5C 43.8333,60.5 44.5,59.8333 45.5,59.5C 45.56,60.0431 45.8933,60.3764 46.5,60.5C 48.8408,59.6013 49.5075,58.268 48.5,56.5C 48.5,56.1667 48.5,55.8333 48.5,55.5C 49.6737,54.4863 50.3404,53.153 50.5,51.5C 50.8333,50.5 51.5,49.8333 52.5,49.5 Z"/></g>
<g><path style="opacity:1" fill="#e94d1b" d="M 60.5,56.5 C 61.8333,56.8333 63.1667,57.1667 64.5,57.5C 65.6715,58.3446 67.0048,59.0113 68.5,59.5C 68.6272,65.7068 65.6272,68.3735 59.5,67.5C 59.81,64.2869 59.4767,61.2869 58.5,58.5C 58.5,57.1667 59.1667,56.5 60.5,56.5 Z"/></g>
<g><path style="opacity:1" fill="#d3975d" d="M 75.5,54.5 C 76.6222,55.9473 78.1222,56.9473 80,57.5C 80.49,58.7932 80.6567,60.1266 80.5,61.5C 78.8785,64.5672 76.8785,67.4005 74.5,70C 68.9836,70.8174 63.6503,70.6507 58.5,69.5C 65.166,70.5433 69.166,67.5433 70.5,60.5C 70.0431,59.7025 69.3764,59.3691 68.5,59.5C 69.1667,58.5 69.8333,57.5 70.5,56.5C 72.1667,55.8333 73.8333,55.1667 75.5,54.5 Z"/></g>
<g><path style="opacity:1" fill="#af250c" d="M 18.5,64.5 C 17.7659,63.2921 17.4326,61.9587 17.5,60.5C 15.8212,60.7148 14.8212,60.0481 14.5,58.5C 17.8003,57.1712 19.467,58.5045 19.5,62.5C 19.4573,63.4164 19.1239,64.0831 18.5,64.5 Z"/></g>
<g><path style="opacity:1" fill="#1f1c1e" d="M 19.5,47.5 C 19.5,48.5 19.5,49.5 19.5,50.5C 16.0738,52.0761 12.7405,53.9094 9.5,56C 10.6184,57.0736 11.6184,58.2402 12.5,59.5C 13.1835,59.1373 13.8501,58.8039 14.5,58.5C 14.8212,60.0481 15.8212,60.7148 17.5,60.5C 17.4326,61.9587 17.7659,63.2921 18.5,64.5C 18.5,65.1667 18.5,65.8333 18.5,66.5C 17.8501,66.1961 17.1835,65.8627 16.5,65.5C 13.7415,66.8793 11.0748,68.2126 8.5,69.5C 6.50561,70.3497 4.50561,70.8497 2.5,71C 6.13171,68.3702 9.46504,65.3702 12.5,62C 8.57402,61.4198 7.07402,59.2531 8,55.5C 12.1242,53.1932 15.9575,50.5266 19.5,47.5 Z"/></g>
<g><path style="opacity:1" fill="#3d424b" d="M 41.5,61.5 C 42.1667,61.5 42.8333,61.5 43.5,61.5C 44.1522,62.7251 45.3189,63.3917 47,63.5C 48.707,63.3516 50.3736,63.0182 52,62.5C 55.086,64.2807 54.9194,66.1141 51.5,68C 47.8484,68.4986 44.1817,68.6653 40.5,68.5C 37.3027,67.8876 35.9694,65.8876 36.5,62.5C 38.1439,62.2865 39.6439,62.6198 41,63.5C 41.4643,62.9056 41.631,62.2389 41.5,61.5 Z"/></g>
<g><path style="opacity:1" fill="#91a9c0" d="M 58.5,58.5 C 58.5,62.1667 58.5,65.8333 58.5,69.5C 57.0236,71.4318 55.3569,71.7652 53.5,70.5C 52.3684,69.6457 51.035,69.6457 49.5,70.5C 46.5,69.8333 43.5,69.1667 40.5,68.5C 44.1817,68.6653 47.8484,68.4986 51.5,68C 54.9194,66.1141 55.086,64.2807 52,62.5C 50.3736,63.0182 48.707,63.3516 47,63.5C 45.3189,63.3917 44.1522,62.7251 43.5,61.5C 46.0444,61.8957 48.2111,61.229 50,59.5C 51.1534,56.2454 51.9868,52.9121 52.5,49.5C 52.3284,48.5084 52.6618,47.8417 53.5,47.5C 54.1614,46.2825 54.8281,44.9492 55.5,43.5C 55.8333,43.6667 56.1667,43.8333 56.5,44C 55.0019,49.1872 55.6685,54.0205 58.5,58.5 Z"/></g>
<g><path style="opacity:1" fill="#74849b" d="M 37.5,63.5 C 42.3338,64.8078 47.1672,64.8078 52,63.5C 52.4828,64.448 52.6495,65.448 52.5,66.5C 47.5,67.8333 42.5,67.8333 37.5,66.5C 37.5,65.5 37.5,64.5 37.5,63.5 Z"/></g>
<g><path style="opacity:1" fill="#44393e" d="M 36.5,70.5 C 35.2067,71.1582 33.7067,71.4915 32,71.5C 30.0145,71.4313 28.5145,70.7647 27.5,69.5C 29.3716,67.9548 30.3716,65.9548 30.5,63.5C 29.9228,61.3456 28.9228,60.0122 27.5,59.5C 29.7157,58.7974 31.549,57.4641 33,55.5C 33.459,59.3388 33.959,63.1721 34.5,67C 34.6083,68.6811 35.2749,69.8478 36.5,70.5 Z"/></g>
<g><path style="opacity:1" fill="#4e3125" d="M 58.5,58.5 C 59.4767,61.2869 59.81,64.2869 59.5,67.5C 65.6272,68.3735 68.6272,65.7068 68.5,59.5C 69.3764,59.3691 70.0431,59.7025 70.5,60.5C 69.166,67.5433 65.166,70.5433 58.5,69.5C 58.5,65.8333 58.5,62.1667 58.5,58.5 Z"/></g>
<g><path style="opacity:1" fill="#f55219" d="M 32.5,65.5 C 33.4511,66.9187 33.7845,68.5853 33.5,70.5C 31.8008,70.6602 30.1341,70.4935 28.5,70C 30.0414,68.6288 31.3747,67.1288 32.5,65.5 Z"/></g>
<g><path style="opacity:1" fill="#d1a982" d="M 18.5,66.5 C 18.7373,67.791 18.404,68.791 17.5,69.5C 15.5,69.5 13.5,69.5 11.5,69.5C 11.5,76.1667 11.5,82.8333 11.5,89.5C 13.1667,89.5 14.8333,89.5 16.5,89.5C 14.7354,90.4614 12.7354,90.7947 10.5,90.5C 11.1279,83.0869 10.4612,76.0869 8.5,69.5C 11.0748,68.2126 13.7415,66.8793 16.5,65.5C 17.1835,65.8627 17.8501,66.1961 18.5,66.5 Z"/></g>
<g><path style="opacity:1" fill="#161314" d="M 82.5,68.5 C 82.5,69.1667 82.5,69.8333 82.5,70.5C 81.8333,76.1667 81.1667,81.8333 80.5,87.5C 80.5,82.1667 80.5,76.8333 80.5,71.5C 79.5,71.5 78.5,71.5 77.5,71.5C 77.6621,73.5273 77.4955,75.5273 77,77.5C 76.5065,75.8659 76.3398,74.1992 76.5,72.5C 74.1667,71.1667 71.8333,71.1667 69.5,72.5C 68.8333,72.5 68.1667,72.5 67.5,72.5C 66.1667,72.5 64.8333,72.5 63.5,72.5C 63.815,76.3714 63.4816,80.0381 62.5,83.5C 63.069,79.6707 62.4023,76.3373 60.5,73.5C 59.8333,73.5 59.1667,73.5 58.5,73.5C 56.955,74.2297 56.1216,75.563 56,77.5C 55.8784,75.563 55.045,74.2297 53.5,73.5C 52.8333,73.5 52.1667,73.5 51.5,73.5C 49.8333,73.5 48.1667,73.5 46.5,73.5C 45.8333,73.5 45.1667,73.5 44.5,73.5C 43.8333,73.5 43.1667,73.5 42.5,73.5C 38.8333,72.1667 35.1667,72.1667 31.5,73.5C 31.5,74.8333 31.5,76.1667 31.5,77.5C 31.1667,77.5 30.8333,77.5 30.5,77.5C 30.5,76.1667 30.5,74.8333 30.5,73.5C 29.4324,72.5655 28.099,72.2322 26.5,72.5C 24.9724,73.8021 23.9724,75.4687 23.5,77.5C 23.5,75.5 23.5,73.5 23.5,71.5C 22.209,71.7373 21.209,71.404 20.5,70.5C 22.9496,70.702 25.283,70.3686 27.5,69.5C 28.5145,70.7647 30.0145,71.4313 32,71.5C 33.7067,71.4915 35.2067,71.1582 36.5,70.5C 36.8333,70.5 37.1667,70.5 37.5,70.5C 42.7337,71.8021 48.0671,71.8021 53.5,70.5C 55.3569,71.7652 57.0236,71.4318 58.5,69.5C 63.6503,70.6507 68.9836,70.8174 74.5,70C 76.8785,67.4005 78.8785,64.5672 80.5,61.5C 81.7095,61.0679 82.7095,60.4013 83.5,59.5C 84.4232,58.6971 85.4232,58.5304 86.5,59C 83.1298,62.035 80.1298,65.3683 77.5,69C 79.1966,69.3845 80.8632,69.2178 82.5,68.5 Z"/></g>
<g><path style="opacity:1" fill="#56626f" d="M 53.5,70.5 C 48.0671,71.8021 42.7337,71.8021 37.5,70.5C 41.5,70.5 45.5,70.5 49.5,70.5C 51.035,69.6457 52.3684,69.6457 53.5,70.5 Z"/></g>
<g><path style="opacity:1" fill="#e6e6e6" d="M 19.5,71.5 C 19.7852,73.288 19.4519,74.9547 18.5,76.5C 17.7025,76.0431 17.3691,75.3764 17.5,74.5C 17.44,73.9569 17.1067,73.6236 16.5,73.5C 15.5258,75.7427 15.1924,78.076 15.5,80.5C 14.8333,80.5 14.1667,80.5 13.5,80.5C 13.5,77.5 13.5,74.5 13.5,71.5C 15.5,71.5 17.5,71.5 19.5,71.5 Z"/></g>
<g><path style="opacity:1" fill="#cdd8dc" d="M 23.5,77.5 C 23.9724,75.4687 24.9724,73.8021 26.5,72.5C 26.5,77.1667 26.5,81.8333 26.5,86.5C 25.8333,86.5 25.1667,86.5 24.5,86.5C 24.1136,78.6019 23.1136,78.6019 21.5,86.5C 20.1667,81.8333 20.1667,77.1667 21.5,72.5C 22.1698,74.2914 22.8365,75.9581 23.5,77.5 Z"/></g>
<g><path style="opacity:1" fill="#c2ced4" d="M 80.5,87.5 C 78.9385,85.6283 77.9385,83.2949 77.5,80.5C 76.8333,82.8333 76.1667,85.1667 75.5,87.5C 74.8933,87.3764 74.56,87.0431 74.5,86.5C 73.8969,81.3814 74.5636,76.7147 76.5,72.5C 76.3398,74.1992 76.5065,75.8659 77,77.5C 77.4955,75.5273 77.6621,73.5273 77.5,71.5C 78.5,71.5 79.5,71.5 80.5,71.5C 80.5,76.8333 80.5,82.1667 80.5,87.5 Z"/></g>
<g><path style="opacity:1" fill="#e1e8eb" d="M 30.5,73.5 C 30.5,74.8333 30.5,76.1667 30.5,77.5C 30.5,78.5 30.5,79.5 30.5,80.5C 29.6981,81.9516 29.1981,83.6183 29,85.5C 28.7305,82.7759 28.2305,80.1092 27.5,77.5C 27.8148,75.517 28.8148,74.1837 30.5,73.5 Z"/></g>
<g><path style="opacity:1" fill="#d4dfe4" d="M 31.5,73.5 C 32.9432,74.3351 33.9432,75.6684 34.5,77.5C 35.1667,76.1667 35.8333,74.8333 36.5,73.5C 37.4909,77.4454 37.8242,81.4454 37.5,85.5C 36.0014,84.3218 35.0014,82.6551 34.5,80.5C 33.8333,82.1667 33.1667,83.8333 32.5,85.5C 31.52,82.9135 31.1866,80.2469 31.5,77.5C 31.5,76.1667 31.5,74.8333 31.5,73.5 Z"/></g>
<g><path style="opacity:1" fill="#777a7d" d="M 17.5,74.5 C 16.1667,77.8333 16.1667,81.1667 17.5,84.5C 17.44,85.0431 17.1067,85.3764 16.5,85.5C 15.5481,83.9547 15.2148,82.288 15.5,80.5C 15.1924,78.076 15.5258,75.7427 16.5,73.5C 17.1067,73.6236 17.44,73.9569 17.5,74.5 Z"/></g>
<g><path style="opacity:1" fill="#4e5458" d="M 26.5,72.5 C 28.099,72.2322 29.4324,72.5655 30.5,73.5C 28.8148,74.1837 27.8148,75.517 27.5,77.5C 28.2305,80.1092 28.7305,82.7759 29,85.5C 29.1981,83.6183 29.6981,81.9516 30.5,80.5C 30.5,82.5 30.5,84.5 30.5,86.5C 29.1667,86.5 27.8333,86.5 26.5,86.5C 26.5,81.8333 26.5,77.1667 26.5,72.5 Z"/></g>
<g><path style="opacity:1" fill="#545c60" d="M 69.5,72.5 C 71.8333,71.1667 74.1667,71.1667 76.5,72.5C 74.5636,76.7147 73.8969,81.3814 74.5,86.5C 73.8333,86.5 73.1667,86.5 72.5,86.5C 72.5,81.8333 72.5,77.1667 72.5,72.5C 71.5,72.5 70.5,72.5 69.5,72.5 Z"/></g>
<g><path style="opacity:1" fill="#211d1d" d="M 82.5,70.5 C 82.83,77.1998 82.4967,83.8665 81.5,90.5C 74.8563,88.5908 68.1897,88.2574 61.5,89.5C 51.8893,87.5257 41.8893,86.859 31.5,87.5C 33.5,86.8333 35.5,86.1667 37.5,85.5C 37.8242,81.4454 37.4909,77.4454 36.5,73.5C 35.8333,74.8333 35.1667,76.1667 34.5,77.5C 33.9432,75.6684 32.9432,74.3351 31.5,73.5C 35.1667,72.1667 38.8333,72.1667 42.5,73.5C 42.1667,86.8333 41.8333,86.8333 41.5,73.5C 40.5,73.5 39.5,73.5 38.5,73.5C 38.5,77.5 38.5,81.5 38.5,85.5C 40.5,85.5 42.5,85.5 44.5,85.5C 45.1667,85.5 45.8333,85.5 46.5,85.5C 46.8333,85.5 47.1667,85.5 47.5,85.5C 48.1667,83.8333 48.8333,82.1667 49.5,80.5C 49.0773,82.7812 49.744,84.4479 51.5,85.5C 52.1667,85.5 52.8333,85.5 53.5,85.5C 55.1171,84.4107 55.9504,82.744 56,80.5C 56.0496,82.744 56.8829,84.4107 58.5,85.5C 59.1667,85.5 59.8333,85.5 60.5,85.5C 63.2869,86.4767 66.2869,86.81 69.5,86.5C 69.2053,84.2646 69.5386,82.2646 70.5,80.5C 71.1667,82.5 71.8333,84.5 72.5,86.5C 73.1667,86.5 73.8333,86.5 74.5,86.5C 74.56,87.0431 74.8933,87.3764 75.5,87.5C 76.1667,85.1667 76.8333,82.8333 77.5,80.5C 77.9385,83.2949 78.9385,85.6283 80.5,87.5C 81.1667,81.8333 81.8333,76.1667 82.5,70.5 Z"/></g>
<g><path style="opacity:1" fill="#cce1ea" d="M 60.5,73.5 C 62.4023,76.3373 63.069,79.6707 62.5,83.5C 62.56,84.0431 62.8933,84.3764 63.5,84.5C 64.3253,80.8776 64.8253,77.211 65,73.5C 65.4988,77.4862 65.6655,81.4862 65.5,85.5C 63.8333,85.5 62.1667,85.5 60.5,85.5C 60.5,81.5 60.5,77.5 60.5,73.5 Z"/></g>
<g><path style="opacity:1" fill="#b4c3ca" d="M 42.5,73.5 C 43.1667,73.5 43.8333,73.5 44.5,73.5C 44.5,77.5 44.5,81.5 44.5,85.5C 42.5,85.5 40.5,85.5 38.5,85.5C 38.5,81.5 38.5,77.5 38.5,73.5C 39.5,73.5 40.5,73.5 41.5,73.5C 41.8333,86.8333 42.1667,86.8333 42.5,73.5 Z"/></g>
<g><path style="opacity:1" fill="#5b5a5d" d="M 58.5,73.5 C 59.1667,73.5 59.8333,73.5 60.5,73.5C 60.5,77.5 60.5,81.5 60.5,85.5C 59.8333,85.5 59.1667,85.5 58.5,85.5C 58.5,81.5 58.5,77.5 58.5,73.5 Z"/></g>
<g><path style="opacity:1" fill="#6a6e71" d="M 51.5,73.5 C 52.1667,73.5 52.8333,73.5 53.5,73.5C 53.5,77.5 53.5,81.5 53.5,85.5C 52.8333,85.5 52.1667,85.5 51.5,85.5C 51.5,81.5 51.5,77.5 51.5,73.5 Z"/></g>
<g><path style="opacity:1" fill="#61676a" d="M 44.5,73.5 C 45.1667,73.5 45.8333,73.5 46.5,73.5C 46.5,77.5 46.5,81.5 46.5,85.5C 45.8333,85.5 45.1667,85.5 44.5,85.5C 44.5,81.5 44.5,77.5 44.5,73.5 Z"/></g>
<g><path style="opacity:1" fill="#ced8dc" d="M 46.5,73.5 C 48.1667,73.5 49.8333,73.5 51.5,73.5C 51.5,77.5 51.5,81.5 51.5,85.5C 49.744,84.4479 49.0773,82.7812 49.5,80.5C 49.44,79.9569 49.1067,79.6236 48.5,79.5C 47.5344,81.396 47.2011,83.396 47.5,85.5C 47.1667,85.5 46.8333,85.5 46.5,85.5C 46.5,81.5 46.5,77.5 46.5,73.5 Z"/></g>
<g><path style="opacity:1" fill="#6e7c85" d="M 49.5,80.5 C 48.8333,82.1667 48.1667,83.8333 47.5,85.5C 47.2011,83.396 47.5344,81.396 48.5,79.5C 49.1067,79.6236 49.44,79.9569 49.5,80.5 Z"/></g>
<g><path style="opacity:1" fill="#c7d3d7" d="M 53.5,73.5 C 55.045,74.2297 55.8784,75.563 56,77.5C 56.1216,75.563 56.955,74.2297 58.5,73.5C 58.5,77.5 58.5,81.5 58.5,85.5C 56.8829,84.4107 56.0496,82.744 56,80.5C 55.9504,82.744 55.1171,84.4107 53.5,85.5C 53.5,81.5 53.5,77.5 53.5,73.5 Z"/></g>
<g><path style="opacity:1" fill="#e7f1f5" d="M 67.5,72.5 C 68.1667,72.5 68.8333,72.5 69.5,72.5C 70.5,72.5 71.5,72.5 72.5,72.5C 72.5,77.1667 72.5,81.8333 72.5,86.5C 71.8333,84.5 71.1667,82.5 70.5,80.5C 70.44,79.9569 70.1067,79.6236 69.5,79.5C 68.6922,81.4233 68.1922,83.4233 68,85.5C 67.501,81.1794 67.3343,76.8461 67.5,72.5 Z"/></g>
<g><path style="opacity:1" fill="#6d6d6d" d="M 69.5,74.5 C 71.4646,74.9483 71.7979,75.9483 70.5,77.5C 69.6143,76.675 69.281,75.675 69.5,74.5 Z"/></g>
<g><path style="opacity:1" fill="#6e777c" d="M 67.5,72.5 C 67.3343,76.8461 67.501,81.1794 68,85.5C 68.1922,83.4233 68.6922,81.4233 69.5,79.5C 70.1067,79.6236 70.44,79.9569 70.5,80.5C 69.5386,82.2646 69.2053,84.2646 69.5,86.5C 66.2869,86.81 63.2869,86.4767 60.5,85.5C 62.1667,85.5 63.8333,85.5 65.5,85.5C 65.6655,81.4862 65.4988,77.4862 65,73.5C 64.8253,77.211 64.3253,80.8776 63.5,84.5C 62.8933,84.3764 62.56,84.0431 62.5,83.5C 63.4816,80.0381 63.815,76.3714 63.5,72.5C 64.8333,72.5 66.1667,72.5 67.5,72.5 Z"/></g>
<g><path style="opacity:1" fill="#343338" d="M 19.5,50.5 C 21.0269,50.427 22.0269,51.0937 22.5,52.5C 22.4431,53.609 22.1098,54.609 21.5,55.5C 20.3054,55.8656 19.6387,56.699 19.5,58C 20.404,62.1114 20.7373,66.278 20.5,70.5C 21.209,71.404 22.209,71.7373 23.5,71.5C 23.5,73.5 23.5,75.5 23.5,77.5C 22.8365,75.9581 22.1698,74.2914 21.5,72.5C 20.1667,77.1667 20.1667,81.8333 21.5,86.5C 23.1136,78.6019 24.1136,78.6019 24.5,86.5C 21.7131,87.4767 18.7131,87.81 15.5,87.5C 16.5676,86.5655 17.901,86.2322 19.5,86.5C 19.8134,83.7531 19.48,81.0865 18.5,78.5C 17.5344,80.396 17.2011,82.396 17.5,84.5C 16.1667,81.1667 16.1667,77.8333 17.5,74.5C 17.3691,75.3764 17.7025,76.0431 18.5,76.5C 19.4519,74.9547 19.7852,73.288 19.5,71.5C 18.8333,70.8333 18.1667,70.1667 17.5,69.5C 18.404,68.791 18.7373,67.791 18.5,66.5C 18.5,65.8333 18.5,65.1667 18.5,64.5C 19.1239,64.0831 19.4573,63.4164 19.5,62.5C 19.467,58.5045 17.8003,57.1712 14.5,58.5C 13.8501,58.8039 13.1835,59.1373 12.5,59.5C 11.6184,58.2402 10.6184,57.0736 9.5,56C 12.7405,53.9094 16.0738,52.0761 19.5,50.5 Z"/></g>
<g><path style="opacity:1" fill="#181617" d="M 17.5,69.5 C 18.1667,70.1667 18.8333,70.8333 19.5,71.5C 17.5,71.5 15.5,71.5 13.5,71.5C 13.5,74.5 13.5,77.5 13.5,80.5C 12.9898,83.3878 13.6565,85.7211 15.5,87.5C 18.7131,87.81 21.7131,87.4767 24.5,86.5C 25.1667,86.5 25.8333,86.5 26.5,86.5C 27.8333,86.5 29.1667,86.5 30.5,86.5C 30.5,84.5 30.5,82.5 30.5,80.5C 30.5,79.5 30.5,78.5 30.5,77.5C 30.8333,77.5 31.1667,77.5 31.5,77.5C 31.1866,80.2469 31.52,82.9135 32.5,85.5C 33.1667,83.8333 33.8333,82.1667 34.5,80.5C 35.0014,82.6551 36.0014,84.3218 37.5,85.5C 35.5,86.1667 33.5,86.8333 31.5,87.5C 29.9731,87.427 28.9731,88.0937 28.5,89.5C 25.728,88.2329 23.0613,88.2329 20.5,89.5C 19.1667,89.5 17.8333,89.5 16.5,89.5C 14.8333,89.5 13.1667,89.5 11.5,89.5C 11.5,82.8333 11.5,76.1667 11.5,69.5C 13.5,69.5 15.5,69.5 17.5,69.5 Z"/></g>
<g><path style="opacity:1" fill="#adcedd" d="M 15.5,87.5 C 13.6565,85.7211 12.9898,83.3878 13.5,80.5C 14.1667,80.5 14.8333,80.5 15.5,80.5C 15.2148,82.288 15.5481,83.9547 16.5,85.5C 17.1067,85.3764 17.44,85.0431 17.5,84.5C 17.2011,82.396 17.5344,80.396 18.5,78.5C 19.48,81.0865 19.8134,83.7531 19.5,86.5C 17.901,86.2322 16.5676,86.5655 15.5,87.5 Z"/></g>
<g><path style="opacity:1" fill="#5d7084" d="M 31.5,87.5 C 41.8893,86.859 51.8893,87.5257 61.5,89.5C 60.391,89.5569 59.391,89.8902 58.5,90.5C 57.1667,90.5 55.8333,90.5 54.5,90.5C 48.3554,89.5098 42.0221,89.1765 35.5,89.5C 34.8333,89.5 34.1667,89.5 33.5,89.5C 31.8333,89.5 30.1667,89.5 28.5,89.5C 28.9731,88.0937 29.9731,87.427 31.5,87.5 Z"/></g>
<g><path style="opacity:1" fill="#faca99" d="M 83.5,67.5 C 84.4927,75.6499 84.8261,83.9832 84.5,92.5C 78.901,92.3042 73.401,91.6376 68,90.5C 67.502,93.4816 67.3354,96.4816 67.5,99.5C 63.7754,99.4051 60.1087,99.2384 56.5,99C 53.9614,101.37 51.6281,103.87 49.5,106.5C 48.1667,106.5 46.8333,106.5 45.5,106.5C 43.1667,103.833 40.8333,101.167 38.5,98.5C 36.6101,93.4501 32.9434,90.9501 27.5,91C 29.4727,90.5045 31.4727,90.3379 33.5,90.5C 38.16,95.1335 42.8267,99.8001 47.5,104.5C 52.8943,100.108 57.561,95.1082 61.5,89.5C 68.1897,88.2574 74.8563,88.5908 81.5,90.5C 82.4967,83.8665 82.83,77.1998 82.5,70.5C 82.5,69.8333 82.5,69.1667 82.5,68.5C 82.5,67.8333 82.8333,67.5 83.5,67.5 Z"/></g>
<g><path style="opacity:1" fill="#f8c294" d="M 20.5,89.5 C 23.0613,88.2329 25.728,88.2329 28.5,89.5C 30.1667,89.5 31.8333,89.5 33.5,89.5C 33.5,89.8333 33.5,90.1667 33.5,90.5C 31.4727,90.3379 29.4727,90.5045 27.5,91C 32.9434,90.9501 36.6101,93.4501 38.5,98.5C 34.5191,99.0209 30.5191,99.3542 26.5,99.5C 26.4921,96.4552 26.1587,93.4552 25.5,90.5C 24.7079,89.4819 23.0412,89.1486 20.5,89.5 Z"/></g>
<g><path style="opacity:0.004" fill="#fec566" d="M 18.5,92.5 C 19.8333,93.1667 19.8333,93.1667 18.5,92.5 Z"/></g>
<g><path style="opacity:1" fill="#261b18" d="M 33.5,90.5 C 33.5,90.1667 33.5,89.8333 33.5,89.5C 34.1667,89.5 34.8333,89.5 35.5,89.5C 39.1667,93.8333 43.1667,97.8333 47.5,101.5C 51.8564,99.147 55.5231,95.4803 58.5,90.5C 59.391,89.8902 60.391,89.5569 61.5,89.5C 57.561,95.1082 52.8943,100.108 47.5,104.5C 42.8267,99.8001 38.16,95.1335 33.5,90.5 Z"/></g>
<g><path style="opacity:1" fill="#a3c5d6" d="M 54.5,90.5 C 55.8333,90.5 57.1667,90.5 58.5,90.5C 55.5231,95.4803 51.8564,99.147 47.5,101.5C 47.3379,99.4727 47.5045,97.4727 48,95.5C 50.2869,93.9456 52.4535,92.2789 54.5,90.5 Z"/></g>
<g><path style="opacity:1" fill="#bf2a0c" d="M 35.5,89.5 C 42.0221,89.1765 48.3554,89.5098 54.5,90.5C 52.4535,92.2789 50.2869,93.9456 48,95.5C 47.5045,97.4727 47.3379,99.4727 47.5,101.5C 43.1667,97.8333 39.1667,93.8333 35.5,89.5 Z"/></g>
</svg>
