<?xml version="1.0" encoding="UTF-8"?>
<!DOCTYPE svg PUBLIC "-//W3C//DTD SVG 1.1//EN" "http://www.w3.org/Graphics/SVG/1.1/DTD/svg11.dtd">
<svg xmlns="http://www.w3.org/2000/svg" version="1.1" width="96px" height="96px" style="shape-rendering:geometricPrecision; text-rendering:geometricPrecision; image-rendering:optimizeQuality; fill-rule:evenodd; clip-rule:evenodd" xmlns:xlink="http://www.w3.org/1999/xlink">
<g><path style="opacity:0.965" fill="#aa0000" d="M 20.5,-0.5 C 25.1667,-0.5 29.8333,-0.5 34.5,-0.5C 36.0329,1.78962 35.6996,2.45629 33.5,1.5C 32.2888,2.2739 32.2888,3.10723 33.5,4C 31.6803,4.20041 30.347,5.03374 29.5,6.5C 29.1667,6.5 28.8333,6.5 28.5,6.5C 28.5,5.16667 27.8333,4.5 26.5,4.5C 23.7669,1.25903 20.4335,0.759031 16.5,3C 14.1765,6.96354 13.8432,11.1302 15.5,15.5C 15.5,15.8333 15.5,16.1667 15.5,16.5C 14.391,16.5569 13.391,16.8902 12.5,17.5C 12.1916,13.6403 11.5249,9.97363 10.5,6.5C 13.3017,3.35826 16.635,1.02492 20.5,-0.5 Z"/></g>
<g><path style="opacity:1" fill="#8b0100" d="M 26.5,4.5 C 25.5318,6.60737 25.1984,8.9407 25.5,11.5C 24.8347,9.30211 24.1681,6.96877 23.5,4.5C 21.9291,3.69063 20.2624,3.35729 18.5,3.5C 18.5,7.5 18.5,11.5 18.5,15.5C 17.5,15.5 16.5,15.5 15.5,15.5C 13.8432,11.1302 14.1765,6.96354 16.5,3C 20.4335,0.759031 23.7669,1.25903 26.5,4.5 Z"/></g>
<g><path style="opacity:1" fill="#820200" d="M 25.5,11.5 C 25.6621,13.5273 25.4955,15.5273 25,17.5C 23.3005,16.5939 21.4672,16.2606 19.5,16.5C 19.5,15.8333 19.1667,15.5 18.5,15.5C 18.5,11.5 18.5,7.5 18.5,3.5C 20.2624,3.35729 21.9291,3.69063 23.5,4.5C 24.1681,6.96877 24.8347,9.30211 25.5,11.5 Z"/></g>
<g><path style="opacity:1" fill="#e20400" d="M 34.5,-0.5 C 35.5,-0.5 36.5,-0.5 37.5,-0.5C 41.2169,0.679783 44.8835,2.01312 48.5,3.5C 48.5,4.16667 48.5,4.83333 48.5,5.5C 46.5588,5.1307 44.7255,4.46403 43,3.5C 41.951,5.10661 40.451,5.77328 38.5,5.5C 38.5,6.5 38.5,7.5 38.5,8.5C 36.0504,8.29803 33.717,8.63137 31.5,9.5C 30.8333,8.5 30.1667,7.5 29.5,6.5C 30.347,5.03374 31.6803,4.20041 33.5,4C 32.2888,3.10723 32.2888,2.2739 33.5,1.5C 35.6996,2.45629 36.0329,1.78962 34.5,-0.5 Z"/></g>
<g><path style="opacity:1" fill="#ff2b00" d="M 48.5,3.5 C 51.5418,3.73292 54.2084,4.73292 56.5,6.5C 55.596,7.20895 55.2627,8.20895 55.5,9.5C 51.6457,8.41083 47.9791,8.41083 44.5,9.5C 43.6143,10.325 43.281,11.325 43.5,12.5C 42.1667,12.5 40.8333,12.5 39.5,12.5C 38.5,12.5 37.5,12.5 36.5,12.5C 37.209,11.596 38.209,11.2627 39.5,11.5C 39.5,10.5 39.5,9.5 39.5,8.5C 40.8734,8.65668 42.2068,8.49001 43.5,8C 42.1118,7.11066 42.2785,6.61066 44,6.5C 46.1598,8.11897 47.6598,7.78564 48.5,5.5C 48.5,4.83333 48.5,4.16667 48.5,3.5 Z"/></g>
<g><path style="opacity:1" fill="#ff4000" d="M 56.5,6.5 C 59.2406,6.70732 61.5739,7.70732 63.5,9.5C 61.458,12.9027 58.7913,13.2361 55.5,10.5C 54.2623,12.7344 52.5957,13.0678 50.5,11.5C 49.2867,11.7472 48.62,12.4138 48.5,13.5C 46.7839,13.3713 45.1172,13.038 43.5,12.5C 43.281,11.325 43.6143,10.325 44.5,9.5C 47.9791,8.41083 51.6457,8.41083 55.5,9.5C 55.2627,8.20895 55.596,7.20895 56.5,6.5 Z"/></g>
<g><path style="opacity:1" fill="#d50600" d="M 10.5,6.5 C 11.5249,9.97363 12.1916,13.6403 12.5,17.5C 12.366,19.2915 12.6993,20.9582 13.5,22.5C 12.4168,22.5394 11.4168,22.8728 10.5,23.5C 9.01503,18.9541 8.34836,14.2874 8.5,9.5C 8.93205,8.29049 9.59872,7.29049 10.5,6.5 Z"/></g>
<g><path style="opacity:1" fill="#fb1700" d="M 48.5,5.5 C 47.6598,7.78564 46.1598,8.11897 44,6.5C 42.2785,6.61066 42.1118,7.11066 43.5,8C 42.2068,8.49001 40.8734,8.65668 39.5,8.5C 39.5,9.5 39.5,10.5 39.5,11.5C 38.209,11.2627 37.209,11.596 36.5,12.5C 34.9519,12.8212 34.2852,13.8212 34.5,15.5C 33.8333,14.8333 33.1667,14.1667 32.5,13.5C 31.7659,12.2921 31.4326,10.9587 31.5,9.5C 33.717,8.63137 36.0504,8.29803 38.5,8.5C 38.5,7.5 38.5,6.5 38.5,5.5C 40.451,5.77328 41.951,5.10661 43,3.5C 44.7255,4.46403 46.5588,5.1307 48.5,5.5 Z"/></g>
<g><path style="opacity:0.998" fill="#ff5700" d="M 63.5,9.5 C 65.9538,10.2271 68.2872,11.2271 70.5,12.5C 68.4012,16.1724 65.7346,16.5057 62.5,13.5C 60.3516,14.7585 58.1849,14.7585 56,13.5C 54.9079,14.2961 53.7412,14.9628 52.5,15.5C 51.5836,15.4573 50.9169,15.1239 50.5,14.5C 50.1583,13.6618 49.4916,13.3284 48.5,13.5C 48.62,12.4138 49.2867,11.7472 50.5,11.5C 52.5957,13.0678 54.2623,12.7344 55.5,10.5C 58.7913,13.2361 61.458,12.9027 63.5,9.5 Z"/></g>
<g><path style="opacity:1" fill="#ff7000" d="M 70.5,12.5 C 72.8816,13.3507 74.8816,14.684 76.5,16.5C 75.8333,17.8333 74.8333,18.8333 73.5,19.5C 71.3559,17.1615 68.8559,16.4949 66,17.5C 64.4411,16.9706 62.9411,16.304 61.5,15.5C 59.7924,17.6911 57.7924,18.0244 55.5,16.5C 54.4763,17.8532 53.143,18.5198 51.5,18.5C 50.609,17.8902 49.609,17.5569 48.5,17.5C 48.2852,15.8212 48.9519,14.8212 50.5,14.5C 50.9169,15.1239 51.5836,15.4573 52.5,15.5C 53.7412,14.9628 54.9079,14.2961 56,13.5C 58.1849,14.7585 60.3516,14.7585 62.5,13.5C 65.7346,16.5057 68.4012,16.1724 70.5,12.5 Z"/></g>
<g><path style="opacity:1" fill="#fe6f00" d="M 39.5,12.5 C 40.8333,12.5 42.1667,12.5 43.5,12.5C 45.1172,13.038 46.7839,13.3713 48.5,13.5C 49.4916,13.3284 50.1583,13.6618 50.5,14.5C 48.9519,14.8212 48.2852,15.8212 48.5,17.5C 46.8008,17.3398 45.1341,17.5065 43.5,18C 43.9574,18.414 44.2907,18.914 44.5,19.5C 42.8917,20.3184 41.2251,20.9851 39.5,21.5C 38.6143,22.325 38.281,23.325 38.5,24.5C 37.4675,23.0883 36.8008,21.4216 36.5,19.5C 38.2934,17.5726 39.2934,15.2393 39.5,12.5 Z"/></g>
<g><path style="opacity:1" fill="#be0500" d="M 15.5,16.5 C 15.9926,18.8056 16.3259,21.139 16.5,23.5C 19.8774,23.0679 22.8774,23.7345 25.5,25.5C 25.8356,26.3286 25.8356,27.3286 25.5,28.5C 22.5448,27.8413 19.5448,27.5079 16.5,27.5C 16.6495,26.448 16.4828,25.448 16,24.5C 15.3292,25.2524 14.4959,25.5858 13.5,25.5C 13.5,24.5 13.5,23.5 13.5,22.5C 12.6993,20.9582 12.366,19.2915 12.5,17.5C 13.391,16.8902 14.391,16.5569 15.5,16.5 Z"/></g>
<g><path style="opacity:1" fill="#960400" d="M 26.5,4.5 C 27.8333,4.5 28.5,5.16667 28.5,6.5C 28.7395,10.8422 29.0728,15.1756 29.5,19.5C 28.5041,19.5858 27.6708,19.2524 27,18.5C 26.7508,19.624 26.2508,20.624 25.5,21.5C 23.8849,20.846 22.2182,20.346 20.5,20C 19.6634,18.9887 19.33,17.8221 19.5,16.5C 21.4672,16.2606 23.3005,16.5939 25,17.5C 25.4955,15.5273 25.6621,13.5273 25.5,11.5C 25.1984,8.9407 25.5318,6.60737 26.5,4.5 Z"/></g>
<g><path style="opacity:1" fill="#ff8600" d="M 73.5,19.5 C 73.1667,20.1667 72.8333,20.8333 72.5,21.5C 70.6954,20.7629 69.0287,19.7629 67.5,18.5C 65.428,20.433 63.0947,20.433 60.5,18.5C 59.7348,19.6119 58.7348,20.2786 57.5,20.5C 55.3024,20.1249 53.3024,19.4582 51.5,18.5C 53.143,18.5198 54.4763,17.8532 55.5,16.5C 57.7924,18.0244 59.7924,17.6911 61.5,15.5C 62.9411,16.304 64.4411,16.9706 66,17.5C 68.8559,16.4949 71.3559,17.1615 73.5,19.5 Z"/></g>
<g><path style="opacity:0.771" fill="#ff8d00" d="M 76.5,16.5 C 79.5331,18.016 82.1997,20.016 84.5,22.5C 84.4142,23.4959 84.7476,24.3292 85.5,25C 82.4793,27.4825 80.146,26.9825 78.5,23.5C 77.8333,23.8333 77.1667,24.1667 76.5,24.5C 75.1482,23.4756 73.8149,22.4756 72.5,21.5C 72.8333,20.8333 73.1667,20.1667 73.5,19.5C 74.8333,18.8333 75.8333,17.8333 76.5,16.5 Z"/></g>
<g><path style="opacity:1" fill="#fd2600" d="M 8.5,9.5 C 8.34836,14.2874 9.01503,18.9541 10.5,23.5C 11.4168,22.8728 12.4168,22.5394 13.5,22.5C 13.5,23.5 13.5,24.5 13.5,25.5C 13.5,26.8333 13.5,28.1667 13.5,29.5C 13.5,30.5 13.5,31.5 13.5,32.5C 15.5,33.1667 17.5,33.8333 19.5,34.5C 18.7375,35.2679 17.7375,35.7679 16.5,36C 17.7375,36.2321 18.7375,36.7321 19.5,37.5C 16.1671,37.9732 14.0004,36.6399 13,33.5C 12.6174,34.056 12.1174,34.3893 11.5,34.5C 10.7784,34.9175 10.2784,35.5842 10,36.5C 7.92885,28.9138 6.42885,21.2472 5.5,13.5C 6.02561,11.7697 7.02561,10.4363 8.5,9.5 Z"/></g>
<g><path style="opacity:1" fill="#a40400" d="M 15.5,15.5 C 16.5,15.5 17.5,15.5 18.5,15.5C 19.1667,15.5 19.5,15.8333 19.5,16.5C 19.33,17.8221 19.6634,18.9887 20.5,20C 22.2182,20.346 23.8849,20.846 25.5,21.5C 26.2508,20.624 26.7508,19.624 27,18.5C 27.6708,19.2524 28.5041,19.5858 29.5,19.5C 29.6567,20.8734 29.49,22.2068 29,23.5C 26.5728,22.433 26.0728,23.0997 27.5,25.5C 26.8333,25.5 26.1667,25.5 25.5,25.5C 22.8774,23.7345 19.8774,23.0679 16.5,23.5C 16.3259,21.139 15.9926,18.8056 15.5,16.5C 15.5,16.1667 15.5,15.8333 15.5,15.5 Z"/></g>
<g><path style="opacity:1" fill="#feb700" d="M 48.5,17.5 C 49.609,17.5569 50.609,17.8902 51.5,18.5C 53.3024,19.4582 55.3024,20.1249 57.5,20.5C 60.6077,21.5531 63.6077,22.8864 66.5,24.5C 65.2223,24.7822 64.2223,25.4489 63.5,26.5C 61.8828,25.962 60.2161,25.6287 58.5,25.5C 52.5555,22.8612 49.2222,22.1946 48.5,23.5C 48.5,24.5 48.5,25.5 48.5,26.5C 45.5,26.5 42.5,26.5 39.5,26.5C 39.1667,26.5 38.8333,26.5 38.5,26.5C 38.5,25.8333 38.5,25.1667 38.5,24.5C 38.281,23.325 38.6143,22.325 39.5,21.5C 41.2251,20.9851 42.8917,20.3184 44.5,19.5C 44.2907,18.914 43.9574,18.414 43.5,18C 45.1341,17.5065 46.8008,17.3398 48.5,17.5 Z"/></g>
<g><path style="opacity:1" fill="#b60500" d="M 28.5,6.5 C 28.8333,6.5 29.1667,6.5 29.5,6.5C 30.1667,7.5 30.8333,8.5 31.5,9.5C 31.4326,10.9587 31.7659,12.2921 32.5,13.5C 32.6657,17.8461 32.499,22.1794 32,26.5C 31.6667,24.8333 31.3333,23.1667 31,21.5C 30.8078,23.5767 30.3078,25.5767 29.5,27.5C 28.4777,27.1445 27.811,26.4778 27.5,25.5C 26.0728,23.0997 26.5728,22.433 29,23.5C 29.49,22.2068 29.6567,20.8734 29.5,19.5C 29.0728,15.1756 28.7395,10.8422 28.5,6.5 Z"/></g>
<g><path style="opacity:1" fill="#feda00" d="M 58.5,25.5 C 58.5,26.5 58.5,27.5 58.5,28.5C 55.0968,28.1489 51.7635,27.4822 48.5,26.5C 48.5,25.5 48.5,24.5 48.5,23.5C 49.2222,22.1946 52.5555,22.8612 58.5,25.5 Z"/></g>
<g><path style="opacity:1" fill="#feaa00" d="M 72.5,21.5 C 73.8149,22.4756 75.1482,23.4756 76.5,24.5C 77.1667,24.1667 77.8333,23.8333 78.5,23.5C 80.146,26.9825 82.4793,27.4825 85.5,25C 84.7476,24.3292 84.4142,23.4959 84.5,22.5C 86.1667,23.5 87.5,24.8333 88.5,26.5C 88.5,27.5 88.5,28.5 88.5,29.5C 85.8559,29.8399 83.5225,29.1733 81.5,27.5C 79.6707,28.2824 78.1707,27.6157 77,25.5C 74.5176,25.3509 72.0176,25.3509 69.5,25.5C 68.391,25.4431 67.391,25.1098 66.5,24.5C 63.6077,22.8864 60.6077,21.5531 57.5,20.5C 58.7348,20.2786 59.7348,19.6119 60.5,18.5C 63.0947,20.433 65.428,20.433 67.5,18.5C 69.0287,19.7629 70.6954,20.7629 72.5,21.5 Z"/></g>
<g><path style="opacity:1" fill="#d00601" d="M 32.5,13.5 C 33.1667,14.1667 33.8333,14.8333 34.5,15.5C 35.3242,18.7644 35.6576,22.0977 35.5,25.5C 35.19,26.7383 34.69,26.7383 34,25.5C 33.6667,27.5 33.3333,29.5 33,31.5C 31.6841,28.972 30.5174,28.972 29.5,31.5C 28.8933,31.3764 28.56,31.0431 28.5,30.5C 27.5,29.8333 26.5,29.1667 25.5,28.5C 25.8356,27.3286 25.8356,26.3286 25.5,25.5C 26.1667,25.5 26.8333,25.5 27.5,25.5C 27.811,26.4778 28.4777,27.1445 29.5,27.5C 30.3078,25.5767 30.8078,23.5767 31,21.5C 31.3333,23.1667 31.6667,24.8333 32,26.5C 32.499,22.1794 32.6657,17.8461 32.5,13.5 Z"/></g>
<g><path style="opacity:1" fill="#d30501" d="M 25.5,28.5 C 26.5,29.1667 27.5,29.8333 28.5,30.5C 27.2652,30.7214 26.2652,31.3881 25.5,32.5C 22.5788,31.5934 19.5788,31.2601 16.5,31.5C 16.6495,30.448 16.4828,29.448 16,28.5C 15.3292,29.2524 14.4959,29.5858 13.5,29.5C 13.5,28.1667 13.5,26.8333 13.5,25.5C 14.4959,25.5858 15.3292,25.2524 16,24.5C 16.4828,25.448 16.6495,26.448 16.5,27.5C 19.5448,27.5079 22.5448,27.8413 25.5,28.5 Z"/></g>
<g><path style="opacity:1" fill="#fddd01" d="M 66.5,24.5 C 67.391,25.1098 68.391,25.4431 69.5,25.5C 73.295,28.8892 77.295,31.3892 81.5,33C 84.8438,33.9065 87.8438,33.4065 90.5,31.5C 90.1742,33.6607 89.1742,35.4941 87.5,37C 84.8192,37.4577 82.3192,38.291 80,39.5C 78.9302,39.472 78.0968,39.1386 77.5,38.5C 80.0379,36.6776 80.0379,34.6776 77.5,32.5C 76.8333,32.8333 76.1667,33.1667 75.5,33.5C 71.7326,30.6215 67.7326,28.2882 63.5,26.5C 64.2223,25.4489 65.2223,24.7822 66.5,24.5 Z"/></g>
<g><path style="opacity:1" fill="#fd5e02" d="M 5.5,13.5 C 6.42885,21.2472 7.92885,28.9138 10,36.5C 10.2784,35.5842 10.7784,34.9175 11.5,34.5C 11.2148,36.288 11.5481,37.9547 12.5,39.5C 15.7325,40.285 19.2325,41.285 23,42.5C 24.1068,41.2881 24.6068,41.6214 24.5,43.5C 20.9002,43.2062 17.4002,42.5396 14,41.5C 13.7216,42.4158 13.2216,43.0825 12.5,43.5C 12.1414,41.5154 11.308,40.8487 10,41.5C 9.4888,39.1218 8.82214,36.7885 8,34.5C 7.72158,35.4158 7.22158,36.0825 6.5,36.5C 5.47589,30.6424 4.14255,24.9758 2.5,19.5C 3.13022,17.2504 4.13022,15.2504 5.5,13.5 Z"/></g>
<g><path style="opacity:1" fill="#e7fc12" d="M 58.5,25.5 C 60.2161,25.6287 61.8828,25.962 63.5,26.5C 67.7326,28.2882 71.7326,30.6215 75.5,33.5C 76.1667,33.1667 76.8333,32.8333 77.5,32.5C 80.0379,34.6776 80.0379,36.6776 77.5,38.5C 77.1667,38.5 76.8333,38.5 76.5,38.5C 75.7101,37.2058 74.7101,36.0391 73.5,35C 68.6855,32.5897 63.6855,30.7564 58.5,29.5C 58.7148,31.1788 58.0481,32.1788 56.5,32.5C 55.8333,32.5 55.1667,32.5 54.5,32.5C 50.3656,31.5151 46.0323,31.1818 41.5,31.5C 41.5,32.5 41.5,33.5 41.5,34.5C 40.8333,32.8333 40.1667,31.1667 39.5,29.5C 39.5,28.5 39.5,27.5 39.5,26.5C 42.5,26.5 45.5,26.5 48.5,26.5C 51.7635,27.4822 55.0968,28.1489 58.5,28.5C 58.5,27.5 58.5,26.5 58.5,25.5 Z"/></g>
<g><path style="opacity:1" fill="#fcd704" d="M 0.5,25.5 C 2.37514,31.1509 4.04181,36.9843 5.5,43C 6.5127,45.0239 7.84603,46.8572 9.5,48.5C 10.1924,47.9747 10.6924,47.3081 11,46.5C 16.1165,46.9467 21.2832,46.9467 26.5,46.5C 27.5,46.8333 28.1667,47.5 28.5,48.5C 22.2373,50.2331 15.904,50.5664 9.5,49.5C 8.80762,50.0253 8.30762,50.6919 8,51.5C 3.7974,44.9889 0.964067,37.9889 -0.5,30.5C -0.5,30.1667 -0.5,29.8333 -0.5,29.5C 0.434475,28.4324 0.767809,27.099 0.5,25.5 Z"/></g>
<g><path style="opacity:1" fill="#fec700" d="M 88.5,26.5 C 89.9063,26.9731 90.573,27.9731 90.5,29.5C 90.5,30.1667 90.5,30.8333 90.5,31.5C 87.8438,33.4065 84.8438,33.9065 81.5,33C 77.295,31.3892 73.295,28.8892 69.5,25.5C 72.0176,25.3509 74.5176,25.3509 77,25.5C 78.1707,27.6157 79.6707,28.2824 81.5,27.5C 83.5225,29.1733 85.8559,29.8399 88.5,29.5C 88.5,28.5 88.5,27.5 88.5,26.5 Z"/></g>
<g><path style="opacity:1" fill="#b8fe3f" d="M 54.5,32.5 C 52.4727,32.3379 50.4727,32.5045 48.5,33C 49.938,33.2189 51.2713,33.7189 52.5,34.5C 50.7086,35.1698 49.0419,35.8365 47.5,36.5C 45.2188,36.0773 43.5521,36.744 42.5,38.5C 42.1667,38.5 41.8333,38.5 41.5,38.5C 41.5,37.1667 41.5,35.8333 41.5,34.5C 41.5,33.5 41.5,32.5 41.5,31.5C 46.0323,31.1818 50.3656,31.5151 54.5,32.5 Z"/></g>
<g><path style="opacity:1" fill="#ee0f03" d="M 35.5,25.5 C 36.4682,27.6074 36.8016,29.9407 36.5,32.5C 35.8519,34.0858 35.3519,35.7525 35,37.5C 34.6232,36.0577 33.7899,35.0577 32.5,34.5C 31.8485,33.9094 31.1818,33.2427 30.5,32.5C 28.8333,33.8333 27.1667,35.1667 25.5,36.5C 23.5504,35.6279 21.5504,34.9612 19.5,34.5C 17.5,33.8333 15.5,33.1667 13.5,32.5C 13.5,31.5 13.5,30.5 13.5,29.5C 14.4959,29.5858 15.3292,29.2524 16,28.5C 16.4828,29.448 16.6495,30.448 16.5,31.5C 19.5788,31.2601 22.5788,31.5934 25.5,32.5C 26.2652,31.3881 27.2652,30.7214 28.5,30.5C 28.56,31.0431 28.8933,31.3764 29.5,31.5C 30.5174,28.972 31.6841,28.972 33,31.5C 33.3333,29.5 33.6667,27.5 34,25.5C 34.69,26.7383 35.19,26.7383 35.5,25.5 Z"/></g>
<g><path style="opacity:1" fill="#fb1b03" d="M 32.5,34.5 C 32.8064,38.0403 31.4731,39.3736 28.5,38.5C 27.7025,38.9569 27.3691,39.6236 27.5,40.5C 25.1708,38.722 22.5042,37.722 19.5,37.5C 18.7375,36.7321 17.7375,36.2321 16.5,36C 17.7375,35.7679 18.7375,35.2679 19.5,34.5C 21.5504,34.9612 23.5504,35.6279 25.5,36.5C 27.1667,35.1667 28.8333,33.8333 30.5,32.5C 31.1818,33.2427 31.8485,33.9094 32.5,34.5 Z"/></g>
<g><path style="opacity:1" fill="#fd3c02" d="M 36.5,12.5 C 37.5,12.5 38.5,12.5 39.5,12.5C 39.2934,15.2393 38.2934,17.5726 36.5,19.5C 36.8008,21.4216 37.4675,23.0883 38.5,24.5C 38.5,25.1667 38.5,25.8333 38.5,26.5C 38.6655,30.5138 38.4988,34.5138 38,38.5C 37.8091,36.2922 37.3091,34.2922 36.5,32.5C 36.8016,29.9407 36.4682,27.6074 35.5,25.5C 35.6576,22.0977 35.3242,18.7644 34.5,15.5C 34.2852,13.8212 34.9519,12.8212 36.5,12.5 Z"/></g>
<g><path style="opacity:1" fill="#c8fe30" d="M 76.5,38.5 C 75.7095,39.4013 74.7095,40.0679 73.5,40.5C 72.7813,38.1119 71.1146,36.6119 68.5,36C 64.2915,35.1194 60.2915,33.9527 56.5,32.5C 58.0481,32.1788 58.7148,31.1788 58.5,29.5C 63.6855,30.7564 68.6855,32.5897 73.5,35C 74.7101,36.0391 75.7101,37.2058 76.5,38.5 Z"/></g>
<g><path style="opacity:1" fill="#a6fe50" d="M 54.5,32.5 C 55.1667,32.5 55.8333,32.5 56.5,32.5C 60.2915,33.9527 64.2915,35.1194 68.5,36C 71.1146,36.6119 72.7813,38.1119 73.5,40.5C 72.391,40.5569 71.391,40.8902 70.5,41.5C 69.158,40.207 67.4913,39.3736 65.5,39C 59.5677,37.6222 53.5677,36.7888 47.5,36.5C 49.0419,35.8365 50.7086,35.1698 52.5,34.5C 51.2713,33.7189 49.938,33.2189 48.5,33C 50.4727,32.5045 52.4727,32.3379 54.5,32.5 Z"/></g>
<g><path style="opacity:1" fill="#80fe77" d="M 47.5,36.5 C 53.5677,36.7888 59.5677,37.6222 65.5,39C 67.4913,39.3736 69.158,40.207 70.5,41.5C 69.1667,41.8333 67.8333,42.1667 66.5,42.5C 59.0259,40.465 51.3593,40.1317 43.5,41.5C 43.5,42.8333 43.5,44.1667 43.5,45.5C 43.1667,45.5 42.8333,45.5 42.5,45.5C 42.5,43.1667 42.5,40.8333 42.5,38.5C 43.5521,36.744 45.2188,36.0773 47.5,36.5 Z"/></g>
<g><path style="opacity:1" fill="#fca304" d="M 2.5,19.5 C 4.14255,24.9758 5.47589,30.6424 6.5,36.5C 6.83802,38.854 7.33802,41.1873 8,43.5C 8.33333,43.1667 8.66667,42.8333 9,42.5C 9.92654,45.7058 11.0932,46.0392 12.5,43.5C 13.3697,45.5988 14.703,45.9321 16.5,44.5C 19.9713,45.0973 23.3046,45.764 26.5,46.5C 21.2832,46.9467 16.1165,46.9467 11,46.5C 10.6924,47.3081 10.1924,47.9747 9.5,48.5C 7.84603,46.8572 6.5127,45.0239 5.5,43C 4.04181,36.9843 2.37514,31.1509 0.5,25.5C 1.16667,23.5 1.83333,21.5 2.5,19.5 Z"/></g>
<g><path style="opacity:1" fill="#fc4305" d="M 19.5,37.5 C 22.5042,37.722 25.1708,38.722 27.5,40.5C 29.4521,41.5445 31.4521,42.5445 33.5,43.5C 32.516,46.0704 31.3493,46.0704 30,43.5C 28.0487,43.5977 26.2154,43.5977 24.5,43.5C 24.6068,41.6214 24.1068,41.2881 23,42.5C 19.2325,41.285 15.7325,40.285 12.5,39.5C 11.5481,37.9547 11.2148,36.288 11.5,34.5C 12.1174,34.3893 12.6174,34.056 13,33.5C 14.0004,36.6399 16.1671,37.9732 19.5,37.5 Z"/></g>
<g><path style="opacity:1" fill="#fc4405" d="M 38.5,26.5 C 38.8333,26.5 39.1667,26.5 39.5,26.5C 39.5,27.5 39.5,28.5 39.5,29.5C 39.8183,34.6591 39.1517,39.6591 37.5,44.5C 36.2101,43.9423 35.3768,42.9423 35,41.5C 34.2828,42.0442 33.7828,42.7109 33.5,43.5C 31.4521,42.5445 29.4521,41.5445 27.5,40.5C 27.3691,39.6236 27.7025,38.9569 28.5,38.5C 31.4731,39.3736 32.8064,38.0403 32.5,34.5C 33.7899,35.0577 34.6232,36.0577 35,37.5C 35.3519,35.7525 35.8519,34.0858 36.5,32.5C 37.3091,34.2922 37.8091,36.2922 38,38.5C 38.4988,34.5138 38.6655,30.5138 38.5,26.5 Z"/></g>
<g><path style="opacity:1" fill="#fb8405" d="M 12.5,43.5 C 11.0932,46.0392 9.92654,45.7058 9,42.5C 8.66667,42.8333 8.33333,43.1667 8,43.5C 7.33802,41.1873 6.83802,38.854 6.5,36.5C 7.22158,36.0825 7.72158,35.4158 8,34.5C 8.82214,36.7885 9.4888,39.1218 10,41.5C 11.308,40.8487 12.1414,41.5154 12.5,43.5 Z"/></g>
<g><path style="opacity:1" fill="#f9ea09" d="M 90.5,29.5 C 91.6737,30.5137 92.3404,31.847 92.5,33.5C 92.2289,34.5519 92.0622,35.8853 92,37.5C 90.8293,39.6157 89.3293,40.2824 87.5,39.5C 84.9646,40.9 82.298,41.9 79.5,42.5C 71.8496,45.5075 63.8496,47.5075 55.5,48.5C 51.0548,49.6324 47.0548,51.2991 43.5,53.5C 42.8333,53.5 42.1667,53.5 41.5,53.5C 41.8333,52.1667 42.1667,50.8333 42.5,49.5C 47.4775,50.1291 52.1441,48.9624 56.5,46C 55.2068,45.51 53.8734,45.3433 52.5,45.5C 57.1291,44.7907 61.7958,43.7907 66.5,42.5C 67.8333,42.1667 69.1667,41.8333 70.5,41.5C 71.391,40.8902 72.391,40.5569 73.5,40.5C 74.7095,40.0679 75.7095,39.4013 76.5,38.5C 76.8333,38.5 77.1667,38.5 77.5,38.5C 78.0968,39.1386 78.9302,39.472 80,39.5C 82.3192,38.291 84.8192,37.4577 87.5,37C 89.1742,35.4941 90.1742,33.6607 90.5,31.5C 90.5,30.8333 90.5,30.1667 90.5,29.5 Z"/></g>
<g><path style="opacity:1" fill="#54fda8" d="M 66.5,42.5 C 61.7958,43.7907 57.1291,44.7907 52.5,45.5C 49.5,45.5 46.5,45.5 43.5,45.5C 43.5,44.1667 43.5,42.8333 43.5,41.5C 51.3593,40.1317 59.0259,40.465 66.5,42.5 Z"/></g>
<g><path style="opacity:1" fill="#fd8402" d="M 39.5,29.5 C 40.1667,31.1667 40.8333,32.8333 41.5,34.5C 41.5,35.8333 41.5,37.1667 41.5,38.5C 41.6053,42.687 40.772,46.687 39,50.5C 38.2917,51.3805 37.4584,52.0472 36.5,52.5C 36.7678,50.901 36.4345,49.5676 35.5,48.5C 36.1667,47.1667 36.8333,45.8333 37.5,44.5C 39.1517,39.6591 39.8183,34.6591 39.5,29.5 Z"/></g>
<g><path style="opacity:1" fill="#d7fe1f" d="M 85.5,44.5 C 72.3706,50.916 58.3706,54.5826 43.5,55.5C 43.5,54.8333 43.5,54.1667 43.5,53.5C 47.7144,52.298 52.0478,51.6314 56.5,51.5C 60.2479,50.6061 64.0812,49.9394 68,49.5C 73.3674,47.278 78.8674,45.278 84.5,43.5C 85.1067,43.6236 85.44,43.9569 85.5,44.5 Z"/></g>
<g><path style="opacity:1" fill="#fc7705" d="M 24.5,43.5 C 26.2154,43.5977 28.0487,43.5977 30,43.5C 31.3493,46.0704 32.516,46.0704 33.5,43.5C 33.7828,42.7109 34.2828,42.0442 35,41.5C 35.3768,42.9423 36.2101,43.9423 37.5,44.5C 36.8333,45.8333 36.1667,47.1667 35.5,48.5C 33.7951,51.2869 32.6284,50.9535 32,47.5C 31.2828,48.0442 30.7828,48.7109 30.5,49.5C 29.8333,49.1667 29.1667,48.8333 28.5,48.5C 28.1667,47.5 27.5,46.8333 26.5,46.5C 23.3046,45.764 19.9713,45.0973 16.5,44.5C 14.703,45.9321 13.3697,45.5988 12.5,43.5C 13.2216,43.0825 13.7216,42.4158 14,41.5C 17.4002,42.5396 20.9002,43.2062 24.5,43.5 Z"/></g>
<g><path style="opacity:1" fill="#fbdc0e" d="M 42.5,45.5 C 42.8333,45.5 43.1667,45.5 43.5,45.5C 46.5,45.5 49.5,45.5 52.5,45.5C 53.8734,45.3433 55.2068,45.51 56.5,46C 52.1441,48.9624 47.4775,50.1291 42.5,49.5C 42.5,48.1667 42.5,46.8333 42.5,45.5 Z"/></g>
<g><path style="opacity:1" fill="#effb07" d="M 79.5,42.5 C 79.3893,43.1174 79.056,43.6174 78.5,44C 70.8527,46.3304 63.5193,48.8304 56.5,51.5C 52.0478,51.6314 47.7144,52.298 43.5,53.5C 47.0548,51.2991 51.0548,49.6324 55.5,48.5C 63.8496,47.5075 71.8496,45.5075 79.5,42.5 Z"/></g>
<g><path style="opacity:1" fill="#e4fe13" d="M 92.5,33.5 C 93.3446,34.6715 94.0113,36.0048 94.5,37.5C 93.8333,37.5 93.5,37.8333 93.5,38.5C 91.7122,41.6149 89.0455,43.6149 85.5,44.5C 85.44,43.9569 85.1067,43.6236 84.5,43.5C 78.8674,45.278 73.3674,47.278 68,49.5C 64.0812,49.9394 60.2479,50.6061 56.5,51.5C 63.5193,48.8304 70.8527,46.3304 78.5,44C 79.056,43.6174 79.3893,43.1174 79.5,42.5C 82.298,41.9 84.9646,40.9 87.5,39.5C 89.3293,40.2824 90.8293,39.6157 92,37.5C 92.0622,35.8853 92.2289,34.5519 92.5,33.5 Z"/></g>
<g><path style="opacity:1" fill="#b3fe44" d="M 94.5,37.5 C 94.5,38.5 94.5,39.5 94.5,40.5C 94.2562,43.2626 92.9229,45.4293 90.5,47C 85.6855,49.4103 80.6855,51.2436 75.5,52.5C 74.8333,52.5 74.1667,52.5 73.5,52.5C 80.1722,49.9953 86.5055,46.662 92.5,42.5C 93.4287,41.3112 93.762,39.9778 93.5,38.5C 93.5,37.8333 93.8333,37.5 94.5,37.5 Z"/></g>
<g><path style="opacity:1" fill="#feaa00" d="M 35.5,48.5 C 36.4345,49.5676 36.7678,50.901 36.5,52.5C 36.1898,54.1436 35.1898,55.1436 33.5,55.5C 32.8333,55.5 32.5,55.1667 32.5,54.5C 32.1667,53.8333 31.8333,53.1667 31.5,52.5C 30.8902,51.609 30.5569,50.609 30.5,49.5C 30.7828,48.7109 31.2828,48.0442 32,47.5C 32.6284,50.9535 33.7951,51.2869 35.5,48.5 Z"/></g>
<g><path style="opacity:1" fill="#dffa1d" d="M -0.5,30.5 C 0.964067,37.9889 3.7974,44.9889 8,51.5C 8.30762,50.6919 8.80762,50.0253 9.5,49.5C 15.904,50.5664 22.2373,50.2331 28.5,48.5C 29.1667,48.8333 29.8333,49.1667 30.5,49.5C 30.5569,50.609 30.8902,51.609 31.5,52.5C 26.3251,52.6489 21.1584,52.9822 16,53.5C 13.3897,53.5332 11.223,54.1999 9.5,55.5C 6.08922,54.6455 3.75588,52.6455 2.5,49.5C 1.79029,45.9752 0.790294,42.6418 -0.5,39.5C -0.5,36.5 -0.5,33.5 -0.5,30.5 Z"/></g>
<g><path style="opacity:1" fill="#c3fd34" d="M 31.5,52.5 C 31.8333,53.1667 32.1667,53.8333 32.5,54.5C 24.8678,55.3577 17.2011,55.6911 9.5,55.5C 11.223,54.1999 13.3897,53.5332 16,53.5C 21.1584,52.9822 26.3251,52.6489 31.5,52.5 Z"/></g>
<g><path style="opacity:1" fill="#fec900" d="M 41.5,38.5 C 41.8333,38.5 42.1667,38.5 42.5,38.5C 42.5,40.8333 42.5,43.1667 42.5,45.5C 42.5,46.8333 42.5,48.1667 42.5,49.5C 42.1667,50.8333 41.8333,52.1667 41.5,53.5C 39.7607,56.2427 37.4274,58.2427 34.5,59.5C 34.5,58.8333 34.1667,58.5 33.5,58.5C 33.5,57.8333 33.5,57.1667 33.5,56.5C 33.5,56.1667 33.5,55.8333 33.5,55.5C 35.1898,55.1436 36.1898,54.1436 36.5,52.5C 37.4584,52.0472 38.2917,51.3805 39,50.5C 40.772,46.687 41.6053,42.687 41.5,38.5 Z"/></g>
<g><path style="opacity:1" fill="#c4fe32" d="M 93.5,38.5 C 93.762,39.9778 93.4287,41.3112 92.5,42.5C 86.5055,46.662 80.1722,49.9953 73.5,52.5C 63.5619,54.6008 53.5619,56.2675 43.5,57.5C 43.5,56.8333 43.5,56.1667 43.5,55.5C 58.3706,54.5826 72.3706,50.916 85.5,44.5C 89.0455,43.6149 91.7122,41.6149 93.5,38.5 Z"/></g>
<g><path style="opacity:1" fill="#afff47" d="M 73.5,52.5 C 74.1667,52.5 74.8333,52.5 75.5,52.5C 72.3783,54.428 69.0449,55.7613 65.5,56.5C 58.1929,57.9252 50.8596,59.2585 43.5,60.5C 43.5,61.5 43.5,62.5 43.5,63.5C 41.927,66.8931 39.2604,68.2264 35.5,67.5C 35.5,66.5 35.5,65.5 35.5,64.5C 38.8102,62.8536 41.4768,60.5203 43.5,57.5C 53.5619,56.2675 63.5619,54.6008 73.5,52.5 Z"/></g>
<g><path style="opacity:1" fill="#9afe5d" d="M 94.5,40.5 C 94.8333,40.5 95.1667,40.5 95.5,40.5C 95.5,42.5 95.5,44.5 95.5,46.5C 95.1667,46.5 94.8333,46.5 94.5,46.5C 87.6939,50.9015 80.3605,54.2349 72.5,56.5C 70.1667,56.5 67.8333,56.5 65.5,56.5C 69.0449,55.7613 72.3783,54.428 75.5,52.5C 80.6855,51.2436 85.6855,49.4103 90.5,47C 92.9229,45.4293 94.2562,43.2626 94.5,40.5 Z"/></g>
<g><path style="opacity:1" fill="#6afe8c" d="M 94.5,46.5 C 94.8333,46.5 95.1667,46.5 95.5,46.5C 95.5,47.5 95.5,48.5 95.5,49.5C 94.8333,49.5 94.5,49.8333 94.5,50.5C 91.8619,52.824 88.8619,54.6574 85.5,56C 79.4308,57.4205 73.7641,59.5872 68.5,62.5C 59.8968,63.4009 51.5634,65.4009 43.5,68.5C 43.5743,66.5891 44.5743,65.4224 46.5,65C 62.203,62.5431 77.203,57.8765 91.5,51C 93.1412,49.871 94.1412,48.371 94.5,46.5 Z"/></g>
<g><path style="opacity:1" fill="#56fea0" d="M 94.5,50.5 C 94.3713,52.2161 94.038,53.8828 93.5,55.5C 92.8333,55.5 92.1667,55.5 91.5,55.5C 84.1821,58.827 76.5155,61.1603 68.5,62.5C 73.7641,59.5872 79.4308,57.4205 85.5,56C 88.8619,54.6574 91.8619,52.824 94.5,50.5 Z"/></g>
<g><path style="opacity:1" fill="#b0fc48" d="M 2.5,49.5 C 3.75588,52.6455 6.08922,54.6455 9.5,55.5C 17.2011,55.6911 24.8678,55.3577 32.5,54.5C 32.5,55.1667 32.8333,55.5 33.5,55.5C 33.5,55.8333 33.5,56.1667 33.5,56.5C 27.5,57.1667 21.5,57.8333 15.5,58.5C 7.11953,60.9552 2.7862,57.9552 2.5,49.5 Z"/></g>
<g><path style="opacity:1" fill="#95ff61" d="M 65.5,56.5 C 67.8333,56.5 70.1667,56.5 72.5,56.5C 62.9704,58.9649 53.3037,61.2982 43.5,63.5C 43.5,62.5 43.5,61.5 43.5,60.5C 50.8596,59.2585 58.1929,57.9252 65.5,56.5 Z"/></g>
<g><path style="opacity:1" fill="#85fc71" d="M 33.5,56.5 C 33.5,57.1667 33.5,57.8333 33.5,58.5C 27.5214,59.6456 21.5214,60.6456 15.5,61.5C 12.3586,60.6787 9.02523,60.1787 5.5,60C 9.02523,59.8213 12.3586,59.3213 15.5,58.5C 21.5,57.8333 27.5,57.1667 33.5,56.5 Z"/></g>
<g><path style="opacity:1" fill="#8cfc6e" d="M -0.5,39.5 C 0.790294,42.6418 1.79029,45.9752 2.5,49.5C 2.7862,57.9552 7.11953,60.9552 15.5,58.5C 12.3586,59.3213 9.02523,59.8213 5.5,60C 9.02523,60.1787 12.3586,60.6787 15.5,61.5C 11.8648,62.1143 8.1981,62.4476 4.5,62.5C 3.09743,58.5545 1.76409,55.2211 0.5,52.5C 0.166667,52.5 -0.166667,52.5 -0.5,52.5C -0.5,48.1667 -0.5,43.8333 -0.5,39.5 Z"/></g>
<g><path style="opacity:1" fill="#e9fc11" d="M 41.5,53.5 C 42.1667,53.5 42.8333,53.5 43.5,53.5C 43.5,54.1667 43.5,54.8333 43.5,55.5C 43.5,56.1667 43.5,56.8333 43.5,57.5C 41.4768,60.5203 38.8102,62.8536 35.5,64.5C 34.8902,63.609 34.5569,62.609 34.5,61.5C 34.5,60.8333 34.5,60.1667 34.5,59.5C 37.4274,58.2427 39.7607,56.2427 41.5,53.5 Z"/></g>
<g><path style="opacity:1" fill="#80fe77" d="M 94.5,46.5 C 94.1412,48.371 93.1412,49.871 91.5,51C 77.203,57.8765 62.203,62.5431 46.5,65C 44.5743,65.4224 43.5743,66.5891 43.5,68.5C 41.927,71.8931 39.2604,73.2264 35.5,72.5C 35.5,71.5 35.5,70.5 35.5,69.5C 35.5,68.8333 35.5,68.1667 35.5,67.5C 39.2604,68.2264 41.927,66.8931 43.5,63.5C 53.3037,61.2982 62.9704,58.9649 72.5,56.5C 80.3605,54.2349 87.6939,50.9015 94.5,46.5 Z"/></g>
<g><path style="opacity:1" fill="#42f7c6" d="M 4.5,62.5 C 4.5,63.5 4.5,64.5 4.5,65.5C 3.97789,63.7809 2.97789,62.4475 1.5,61.5C 0.841278,58.5448 0.507945,55.5448 0.5,52.5C 1.76409,55.2211 3.09743,58.5545 4.5,62.5 Z"/></g>
<g><path style="opacity:1" fill="#6afc8c" d="M 33.5,58.5 C 34.1667,58.5 34.5,58.8333 34.5,59.5C 34.5,60.1667 34.5,60.8333 34.5,61.5C 34.1667,61.5 33.8333,61.5 33.5,61.5C 23.8039,62.9531 14.1373,64.6198 4.5,66.5C 4.5,66.1667 4.5,65.8333 4.5,65.5C 4.5,64.5 4.5,63.5 4.5,62.5C 8.1981,62.4476 11.8648,62.1143 15.5,61.5C 21.5214,60.6456 27.5214,59.6456 33.5,58.5 Z"/></g>
<g><path style="opacity:1" fill="#24fbd8" d="M 91.5,55.5 C 92.1667,55.5 92.8333,55.5 93.5,55.5C 92.8333,56.8333 92.1667,58.1667 91.5,59.5C 88.4887,60.6693 85.822,62.336 83.5,64.5C 79.4754,64.6301 75.8088,65.6301 72.5,67.5C 70.9724,68.3092 69.3057,68.9759 67.5,69.5C 66.3784,68.8442 65.0451,68.5108 63.5,68.5C 58.6938,70.1279 53.6938,71.1279 48.5,71.5C 50.9534,70.7828 53.2867,69.6162 55.5,68C 60.9525,67.6369 66.2859,66.6369 71.5,65C 75.798,62.4215 80.4646,60.7548 85.5,60C 88.2862,59.425 90.2862,57.925 91.5,55.5 Z"/></g>
<g><path style="opacity:0.2" fill="#06d2fd" d="M 91.5,59.5 C 89.5156,62.1639 86.8489,63.8305 83.5,64.5C 85.822,62.336 88.4887,60.6693 91.5,59.5 Z"/></g>
<g><path style="opacity:0.482" fill="#0cddfd" d="M 83.5,64.5 C 80.1456,66.2576 76.479,67.2576 72.5,67.5C 75.8088,65.6301 79.4754,64.6301 83.5,64.5 Z"/></g>
<g><path style="opacity:1" fill="#38fdbf" d="M 33.5,61.5 C 33.8333,61.5 34.1667,61.5 34.5,61.5C 34.5569,62.609 34.8902,63.609 35.5,64.5C 35.5,65.5 35.5,66.5 35.5,67.5C 34.7784,67.0825 34.2784,66.4158 34,65.5C 29.1778,66.7481 24.3444,68.0814 19.5,69.5C 18.2867,69.2528 17.62,68.5862 17.5,67.5C 22.1982,65.7831 27.0315,64.4497 32,63.5C 33.0299,63.1639 33.5299,62.4972 33.5,61.5 Z"/></g>
<g><path style="opacity:1" fill="#46fcb1" d="M 33.5,61.5 C 33.5299,62.4972 33.0299,63.1639 32,63.5C 27.0315,64.4497 22.1982,65.7831 17.5,67.5C 13.4848,68.5119 9.48479,69.5119 5.5,70.5C 5.16667,69.1667 4.83333,67.8333 4.5,66.5C 14.1373,64.6198 23.8039,62.9531 33.5,61.5 Z"/></g>
<g><path style="opacity:1" fill="#4dfea9" d="M 68.5,62.5 C 67.653,63.9663 66.3197,64.7996 64.5,65C 59.2953,66.0062 54.1286,67.1729 49,68.5C 46.9736,69.7349 45.1403,71.0683 43.5,72.5C 42.9744,74.2303 41.9744,75.5637 40.5,76.5C 38.8333,76.5 37.1667,76.5 35.5,76.5C 35.5,75.1667 35.5,73.8333 35.5,72.5C 39.2604,73.2264 41.927,71.8931 43.5,68.5C 51.5634,65.4009 59.8968,63.4009 68.5,62.5 Z"/></g>
<g><path style="opacity:1" fill="#3afebd" d="M 91.5,55.5 C 90.2862,57.925 88.2862,59.425 85.5,60C 80.4646,60.7548 75.798,62.4215 71.5,65C 66.2859,66.6369 60.9525,67.6369 55.5,68C 53.2867,69.6162 50.9534,70.7828 48.5,71.5C 46.8828,72.038 45.2161,72.3713 43.5,72.5C 45.1403,71.0683 46.9736,69.7349 49,68.5C 54.1286,67.1729 59.2953,66.0062 64.5,65C 66.3197,64.7996 67.653,63.9663 68.5,62.5C 76.5155,61.1603 84.1821,58.827 91.5,55.5 Z"/></g>
<g><path style="opacity:1" fill="#21fcd7" d="M 35.5,67.5 C 35.5,68.1667 35.5,68.8333 35.5,69.5C 31.178,68.275 27.178,68.9416 23.5,71.5C 22.0695,71.4208 20.7362,71.7542 19.5,72.5C 16.3681,70.4093 13.3681,70.7426 10.5,73.5C 9.29208,74.2341 7.95875,74.5674 6.5,74.5C 6.56745,73.0413 6.23411,71.7079 5.5,70.5C 9.48479,69.5119 13.4848,68.5119 17.5,67.5C 17.62,68.5862 18.2867,69.2528 19.5,69.5C 24.3444,68.0814 29.1778,66.7481 34,65.5C 34.2784,66.4158 34.7784,67.0825 35.5,67.5 Z"/></g>
<g><path style="opacity:0.929" fill="#15ecf0" d="M 67.5,69.5 C 59.266,71.0223 51.266,73.3557 43.5,76.5C 42.6143,77.325 42.281,78.325 42.5,79.5C 41.8333,79.5 41.1667,79.5 40.5,79.5C 40.5,78.5 40.5,77.5 40.5,76.5C 41.9744,75.5637 42.9744,74.2303 43.5,72.5C 45.2161,72.3713 46.8828,72.038 48.5,71.5C 53.6938,71.1279 58.6938,70.1279 63.5,68.5C 65.0451,68.5108 66.3784,68.8442 67.5,69.5 Z"/></g>
<g><path style="opacity:1" fill="#18f1e6" d="M 35.5,69.5 C 35.5,70.5 35.5,71.5 35.5,72.5C 35.5,73.8333 35.5,75.1667 35.5,76.5C 37.1667,76.5 38.8333,76.5 40.5,76.5C 40.5,77.5 40.5,78.5 40.5,79.5C 40.5,80.1667 40.1667,80.5 39.5,80.5C 36.715,81.0838 35.0483,80.0838 34.5,77.5C 34.5,76.5 34.5,75.5 34.5,74.5C 34.6567,73.1266 34.49,71.7932 34,70.5C 33.6667,71.1667 33.3333,71.8333 33,72.5C 30.8797,71.3947 28.7131,71.3947 26.5,72.5C 25.391,72.4431 24.391,72.1098 23.5,71.5C 27.178,68.9416 31.178,68.275 35.5,69.5 Z"/></g>
<g><path style="opacity:0.839" fill="#0bc3fc" d="M 1.5,61.5 C 2.97789,62.4475 3.97789,63.7809 4.5,65.5C 4.5,65.8333 4.5,66.1667 4.5,66.5C 4.83333,67.8333 5.16667,69.1667 5.5,70.5C 6.23411,71.7079 6.56745,73.0413 6.5,74.5C 7.95875,74.5674 9.29208,74.2341 10.5,73.5C 11.2223,74.5511 12.2223,75.2178 13.5,75.5C 15.6633,76.7201 17.83,76.7201 20,75.5C 21.0299,75.8361 21.5299,76.5028 21.5,77.5C 19.4903,79.4465 17.8236,79.4465 16.5,77.5C 14.5539,79.087 13.0539,78.7536 12,76.5C 9.59928,79.2646 7.76594,78.9313 6.5,75.5C 4.45752,71.0441 2.79085,66.3775 1.5,61.5 Z"/></g>
<g><path style="opacity:1" fill="#08e4f5" d="M 23.5,71.5 C 24.391,72.1098 25.391,72.4431 26.5,72.5C 22.1599,73.6465 17.8266,74.6465 13.5,75.5C 12.2223,75.2178 11.2223,74.5511 10.5,73.5C 13.3681,70.7426 16.3681,70.4093 19.5,72.5C 20.7362,71.7542 22.0695,71.4208 23.5,71.5 Z"/></g>
<g><path style="opacity:1" fill="#02c8fd" d="M 34.5,74.5 C 30.1315,75.7512 25.7982,76.7512 21.5,77.5C 21.5299,76.5028 21.0299,75.8361 20,75.5C 17.83,76.7201 15.6633,76.7201 13.5,75.5C 17.8266,74.6465 22.1599,73.6465 26.5,72.5C 28.7131,71.3947 30.8797,71.3947 33,72.5C 33.3333,71.8333 33.6667,71.1667 34,70.5C 34.49,71.7932 34.6567,73.1266 34.5,74.5 Z"/></g>
<g><path style="opacity:1" fill="#02a4fd" d="M 34.5,74.5 C 34.5,75.5 34.5,76.5 34.5,77.5C 32.4756,81.6229 33.8089,83.9563 38.5,84.5C 33.6194,88.8088 31.6194,87.6421 32.5,81C 31.9019,79.6988 30.9019,78.8655 29.5,78.5C 27.3086,80.3535 24.9752,80.6868 22.5,79.5C 21.5,80.1667 20.5,80.8333 19.5,81.5C 18.1667,80.1667 16.8333,80.1667 15.5,81.5C 14.0762,78.8937 12.7429,78.8937 11.5,81.5C 10.1667,80.8333 8.83333,80.1667 7.5,79.5C 6.76589,78.2921 6.43255,76.9587 6.5,75.5C 7.76594,78.9313 9.59928,79.2646 12,76.5C 13.0539,78.7536 14.5539,79.087 16.5,77.5C 17.8236,79.4465 19.4903,79.4465 21.5,77.5C 25.7982,76.7512 30.1315,75.7512 34.5,74.5 Z"/></g>
<g><path style="opacity:1" fill="#0483fd" d="M 38.5,84.5 C 39.1667,84.1667 39.8333,83.8333 40.5,83.5C 40.2503,85.674 39.2503,87.3406 37.5,88.5C 36.2003,89.1079 34.8669,89.7745 33.5,90.5C 32.5836,90.4573 31.9169,90.1239 31.5,89.5C 30.5244,88.1851 29.5244,86.8518 28.5,85.5C 25.3837,84.8156 22.3837,83.8156 19.5,82.5C 17.5,82.8333 15.5,83.1667 13.5,83.5C 12.8182,82.7573 12.1515,82.0906 11.5,81.5C 12.7429,78.8937 14.0762,78.8937 15.5,81.5C 16.8333,80.1667 18.1667,80.1667 19.5,81.5C 20.5,80.8333 21.5,80.1667 22.5,79.5C 24.9752,80.6868 27.3086,80.3535 29.5,78.5C 30.9019,78.8655 31.9019,79.6988 32.5,81C 31.6194,87.6421 33.6194,88.8088 38.5,84.5 Z"/></g>
<g><path style="opacity:0.706" fill="#08bbfd" d="M 40.5,79.5 C 41.1667,79.5 41.8333,79.5 42.5,79.5C 42.0113,80.9952 41.3446,82.3285 40.5,83.5C 39.8333,83.8333 39.1667,84.1667 38.5,84.5C 37.9094,83.8485 37.2427,83.1818 36.5,82.5C 37.6016,81.8243 38.6016,81.1577 39.5,80.5C 40.1667,80.5 40.5,80.1667 40.5,79.5 Z"/></g>
<g><path style="opacity:1" fill="#0adaf8" d="M 34.5,77.5 C 35.0483,80.0838 36.715,81.0838 39.5,80.5C 38.6016,81.1577 37.6016,81.8243 36.5,82.5C 37.2427,83.1818 37.9094,83.8485 38.5,84.5C 33.8089,83.9563 32.4756,81.6229 34.5,77.5 Z"/></g>
<g><path style="opacity:1" fill="#0266fd" d="M 7.5,79.5 C 8.83333,80.1667 10.1667,80.8333 11.5,81.5C 12.1515,82.0906 12.8182,82.7573 13.5,83.5C 15.5,83.1667 17.5,82.8333 19.5,82.5C 22.3837,83.8156 25.3837,84.8156 28.5,85.5C 29.5244,86.8518 30.5244,88.1851 31.5,89.5C 30.8501,89.8039 30.1835,90.1373 29.5,90.5C 26.4964,88.3867 23.1631,87.0534 19.5,86.5C 16.9317,86.9716 14.2651,86.9716 11.5,86.5C 9.91378,84.3295 8.58044,81.9962 7.5,79.5 Z"/></g>
<g><path style="opacity:1" fill="#013dfd" d="M 11.5,86.5 C 14.2651,86.9716 16.9317,86.9716 19.5,86.5C 23.1631,87.0534 26.4964,88.3867 29.5,90.5C 30.1835,90.1373 30.8501,89.8039 31.5,89.5C 31.9169,90.1239 32.5836,90.4573 33.5,90.5C 34.8669,89.7745 36.2003,89.1079 37.5,88.5C 37.0679,89.7095 36.4013,90.7095 35.5,91.5C 28.4037,93.6064 21.4037,92.9398 14.5,89.5C 13.1667,88.8333 12.1667,87.8333 11.5,86.5 Z"/></g>
<g><path style="opacity:1" fill="#000ffc" d="M 14.5,89.5 C 21.4037,92.9398 28.4037,93.6064 35.5,91.5C 33.8333,92.8333 32.1667,94.1667 30.5,95.5C 27.1667,95.5 23.8333,95.5 20.5,95.5C 18.1939,93.8606 16.1939,91.8606 14.5,89.5 Z"/></g>
</svg>
