<?xml version="1.0" encoding="UTF-8"?>
<!DOCTYPE svg PUBLIC "-//W3C//DTD SVG 1.1//EN" "http://www.w3.org/Graphics/SVG/1.1/DTD/svg11.dtd">
<svg xmlns="http://www.w3.org/2000/svg" version="1.1" width="96px" height="96px" style="shape-rendering:geometricPrecision; text-rendering:geometricPrecision; image-rendering:optimizeQuality; fill-rule:evenodd; clip-rule:evenodd" xmlns:xlink="http://www.w3.org/1999/xlink">
<g><path style="opacity:0.996" fill="#ebf6f8" d="M -0.5,-0.5 C 31.5,-0.5 63.5,-0.5 95.5,-0.5C 95.5,31.5 95.5,63.5 95.5,95.5C 63.5,95.5 31.5,95.5 -0.5,95.5C -0.5,63.5 -0.5,31.5 -0.5,-0.5 Z"/></g>
<g><path style="opacity:1" fill="#c9d8f9" d="M 56.5,14.5 C 55.1667,14.5 53.8333,14.5 52.5,14.5C 47.5,14.5 42.5,14.5 37.5,14.5C 40.1864,13.0092 43.1864,12.3425 46.5,12.5C 50.1168,12.3981 53.4501,13.0648 56.5,14.5 Z"/></g>
<g><path style="opacity:1" fill="#d8f0f9" d="M 47.5,16.5 C 50.5,16.5 53.5,16.5 56.5,16.5C 63.5272,17.8845 68.8605,21.5512 72.5,27.5C 70.9382,27.2671 69.6049,26.6005 68.5,25.5C 67.2842,23.5491 65.6175,22.0491 63.5,21C 60.1667,20.6667 56.8333,20.3333 53.5,20C 51.2418,19.124 49.2418,17.9573 47.5,16.5 Z"/></g>
<g><path style="opacity:1" fill="#d3f1f9" d="M 21.5,32.5 C 20.0067,36.4123 19.3401,36.079 19.5,31.5C 22.4199,23.3828 28.0866,18.5495 36.5,17C 29.5921,20.3121 24.5921,25.4787 21.5,32.5 Z"/></g>
<g><path style="opacity:1" fill="#d4e0f9" d="M 47.5,16.5 C 49.2418,17.9573 51.2418,19.124 53.5,20C 56.8333,20.3333 60.1667,20.6667 63.5,21C 65.6175,22.0491 67.2842,23.5491 68.5,25.5C 68.5,26.5 68.5,27.5 68.5,28.5C 65.8602,28.046 63.5268,26.8793 61.5,25C 52.3458,21.5141 43.3458,21.6807 34.5,25.5C 35.0483,22.9162 36.715,21.9162 39.5,22.5C 39.366,20.7085 39.6993,19.0418 40.5,17.5C 42.717,16.6314 45.0504,16.298 47.5,16.5 Z"/></g>
<g><path style="opacity:1" fill="#a7c2f8" d="M 52.5,14.5 C 53.8333,14.5 55.1667,14.5 56.5,14.5C 66.7389,16.4055 74.0722,22.0721 78.5,31.5C 78.7373,32.791 78.404,33.791 77.5,34.5C 77.5,33.8333 77.1667,33.5 76.5,33.5C 76.5,33.1667 76.5,32.8333 76.5,32.5C 75.9202,30.2512 74.5869,28.5846 72.5,27.5C 68.8605,21.5512 63.5272,17.8845 56.5,16.5C 55.1667,15.8333 53.8333,15.1667 52.5,14.5 Z"/></g>
<g><path style="opacity:1" fill="#c9dbf8" d="M 40.5,17.5 C 39.6993,19.0418 39.366,20.7085 39.5,22.5C 36.715,21.9162 35.0483,22.9162 34.5,25.5C 32.321,25.84 30.4877,26.84 29,28.5C 26.782,32.4835 24.9487,36.6502 23.5,41C 24.056,41.3826 24.3893,41.8826 24.5,42.5C 23.8333,42.5 23.1667,42.5 22.5,42.5C 21.8333,42.5 21.5,42.1667 21.5,41.5C 23.431,37.2986 25.0977,32.9653 26.5,28.5C 29.372,22.636 34.0387,18.9693 40.5,17.5 Z"/></g>
<g><path style="opacity:1" fill="#e9f6f7" d="M 51.5,24.5 C 55.9006,25.2413 59.9006,26.9079 63.5,29.5C 65.6411,32.4718 68.3078,34.9718 71.5,37C 70.2695,38.4048 68.9361,39.5714 67.5,40.5C 65.9397,42.1561 64.9397,44.1561 64.5,46.5C 63.9862,44.1321 62.8195,42.1321 61,40.5C 60.7811,41.938 60.2811,43.2713 59.5,44.5C 56.7886,42.6684 54.122,40.8351 51.5,39C 48.7897,39.5719 46.123,39.0719 43.5,37.5C 41.3812,37.5323 40.0478,36.5323 39.5,34.5C 39.0472,33.5416 38.3805,32.7083 37.5,32C 40.1704,26.1595 44.8371,23.6595 51.5,24.5 Z"/></g>
<g><path style="opacity:1" fill="#e2f2f9" d="M 51.5,24.5 C 44.8371,23.6595 40.1704,26.1595 37.5,32C 38.3805,32.7083 39.0472,33.5416 39.5,34.5C 37.3024,34.1249 35.3024,33.4582 33.5,32.5C 34.1434,29.0125 36.1434,26.5125 39.5,25C 43.6113,23.4723 47.6113,23.3057 51.5,24.5 Z"/></g>
<g><path style="opacity:1" fill="#e6eff8" d="M 27.5,15.5 C 23.968,18.1721 20.6347,21.1721 17.5,24.5C 16.5041,24.4142 15.6708,24.7476 15,25.5C 12.8243,30.5473 11.9909,35.8807 12.5,41.5C 11.8826,41.3893 11.3826,41.056 11,40.5C 9.58031,27.4463 15.0803,19.113 27.5,15.5 Z"/></g>
<g><path style="opacity:1" fill="#c0ddf9" d="M 37.5,14.5 C 42.5,14.5 47.5,14.5 52.5,14.5C 53.8333,15.1667 55.1667,15.8333 56.5,16.5C 53.5,16.5 50.5,16.5 47.5,16.5C 45.0504,16.298 42.717,16.6314 40.5,17.5C 34.0387,18.9693 29.372,22.636 26.5,28.5C 25.4412,30.5554 23.7746,31.8888 21.5,32.5C 24.5921,25.4787 29.5921,20.3121 36.5,17C 28.0866,18.5495 22.4199,23.3828 19.5,31.5C 19.6602,29.8008 19.4935,28.1341 19,26.5C 15.3312,33.446 14.4978,40.7794 16.5,48.5C 12.2216,40.3169 12.5549,32.3169 17.5,24.5C 20.6347,21.1721 23.968,18.1721 27.5,15.5C 30.8067,14.9492 34.1401,14.6159 37.5,14.5 Z"/></g>
<g><path style="opacity:1" fill="#d9eaf8" d="M 68.5,25.5 C 69.6049,26.6005 70.9382,27.2671 72.5,27.5C 74.5869,28.5846 75.9202,30.2512 76.5,32.5C 75.2058,31.7101 74.0391,30.7101 73,29.5C 71.9914,30.6582 70.6581,31.3248 69,31.5C 67.0107,31.0791 65.1773,30.4124 63.5,29.5C 59.9006,26.9079 55.9006,25.2413 51.5,24.5C 47.6113,23.3057 43.6113,23.4723 39.5,25C 36.1434,26.5125 34.1434,29.0125 33.5,32.5C 32.1667,33.5 30.8333,34.5 29.5,35.5C 30.686,31.9652 32.3527,28.6319 34.5,25.5C 43.3458,21.6807 52.3458,21.5141 61.5,25C 63.5268,26.8793 65.8602,28.046 68.5,28.5C 68.5,27.5 68.5,26.5 68.5,25.5 Z"/></g>
<g><path style="opacity:1" fill="#d2e4f9" d="M 34.5,25.5 C 32.3527,28.6319 30.686,31.9652 29.5,35.5C 27.7329,37.7916 26.7329,40.4582 26.5,43.5C 25.8333,43.1667 25.1667,42.8333 24.5,42.5C 24.3893,41.8826 24.056,41.3826 23.5,41C 24.9487,36.6502 26.782,32.4835 29,28.5C 30.4877,26.84 32.321,25.84 34.5,25.5 Z"/></g>
<g><path style="opacity:1" fill="#bad9f9" d="M 19.5,31.5 C 19.3401,36.079 20.0067,36.4123 21.5,32.5C 23.7746,31.8888 25.4412,30.5554 26.5,28.5C 25.0977,32.9653 23.431,37.2986 21.5,41.5C 21.6602,39.8008 21.4935,38.1341 21,36.5C 17.6493,42.4866 16.816,48.8199 18.5,55.5C 17.8826,55.3893 17.3826,55.056 17,54.5C 16.5045,52.5273 16.3379,50.5273 16.5,48.5C 14.4978,40.7794 15.3312,33.446 19,26.5C 19.4935,28.1341 19.6602,29.8008 19.5,31.5 Z"/></g>
<g><path style="opacity:1" fill="#d5f4f6" d="M 33.5,32.5 C 35.3024,33.4582 37.3024,34.1249 39.5,34.5C 40.0478,36.5323 41.3812,37.5323 43.5,37.5C 40.8333,39.1667 40.8333,40.8333 43.5,42.5C 39.9581,42.1872 36.6248,42.5206 33.5,43.5C 33.1667,43.5 32.8333,43.5 32.5,43.5C 31.469,42.7515 30.3024,42.0848 29,41.5C 28.8195,39.5116 28.9862,37.5116 29.5,35.5C 30.8333,34.5 32.1667,33.5 33.5,32.5 Z"/></g>
<g><path style="opacity:1" fill="#e4f2f9" d="M 63.5,29.5 C 65.1773,30.4124 67.0107,31.0791 69,31.5C 70.6581,31.3248 71.9914,30.6582 73,29.5C 74.0391,30.7101 75.2058,31.7101 76.5,32.5C 76.5,32.8333 76.5,33.1667 76.5,33.5C 77.9366,37.3773 78.4366,41.3773 78,45.5C 77.3272,42.1917 75.4939,40.3584 72.5,40C 75.1251,41.3928 75.1251,42.5595 72.5,43.5C 71.5,43.5 70.5,43.5 69.5,43.5C 69.0679,42.2905 68.4013,41.2905 67.5,40.5C 68.9361,39.5714 70.2695,38.4048 71.5,37C 68.3078,34.9718 65.6411,32.4718 63.5,29.5 Z"/></g>
<g><path style="opacity:1" fill="#b3d2f9" d="M 78.5,31.5 C 80.0075,33.1815 81.0075,35.1815 81.5,37.5C 81.7709,39.3797 81.1042,40.713 79.5,41.5C 79.233,39.0347 78.5664,36.7014 77.5,34.5C 78.404,33.791 78.7373,32.791 78.5,31.5 Z"/></g>
<g><path style="opacity:1" fill="#d8f4f0" d="M 43.5,37.5 C 46.123,39.0719 48.7897,39.5719 51.5,39C 54.122,40.8351 56.7886,42.6684 59.5,44.5C 60.2811,43.2713 60.7811,41.938 61,40.5C 62.8195,42.1321 63.9862,44.1321 64.5,46.5C 61.4467,45.5763 58.4467,45.5763 55.5,46.5C 53.8828,47.038 52.2161,47.3713 50.5,47.5C 50.2191,42.4491 48.8857,41.7825 46.5,45.5C 44.8102,45.1436 43.8102,44.1436 43.5,42.5C 40.8333,40.8333 40.8333,39.1667 43.5,37.5 Z"/></g>
<g><path style="opacity:1" fill="#c4ecf5" d="M 29.5,35.5 C 28.9862,37.5116 28.8195,39.5116 29,41.5C 30.3024,42.0848 31.469,42.7515 32.5,43.5C 32.7678,45.099 32.4345,46.4324 31.5,47.5C 30.713,45.8958 29.3797,45.2291 27.5,45.5C 27.6716,44.5084 27.3382,43.8417 26.5,43.5C 26.7329,40.4582 27.7329,37.7916 29.5,35.5 Z"/></g>
<g><path style="opacity:1" fill="#d9ebf8" d="M 76.5,33.5 C 77.1667,33.5 77.5,33.8333 77.5,34.5C 78.5664,36.7014 79.233,39.0347 79.5,41.5C 79.6318,48.2851 79.1318,54.9517 78,61.5C 79.6557,55.9632 81.489,50.6298 83.5,45.5C 83.3626,43.1166 83.0293,40.7832 82.5,38.5C 83.1174,38.6107 83.6174,38.944 84,39.5C 84.6667,43.5 84.6667,47.5 84,51.5C 82.4646,55.7728 81.1312,60.1062 80,64.5C 78.0498,68.2784 75.5498,71.6117 72.5,74.5C 72.7329,72.9382 73.3995,71.6049 74.5,70.5C 74.9528,69.5416 75.6195,68.7083 76.5,68C 74.4971,68.4192 72.4971,69.2526 70.5,70.5C 69.8933,70.3764 69.56,70.0431 69.5,69.5C 69.7329,67.9382 70.3995,66.6049 71.5,65.5C 74.8236,61.8486 76.8236,57.5152 77.5,52.5C 77.6353,50.192 76.9686,48.192 75.5,46.5C 75.2448,48.3435 75.0781,50.3435 75,52.5C 73.6703,53.5822 72.1703,54.2488 70.5,54.5C 69.8333,54.1667 69.1667,53.8333 68.5,53.5C 67.7659,52.2921 67.4326,50.9587 67.5,49.5C 69.6804,50.8552 71.6804,50.6885 73.5,49C 72.572,48.6121 71.9054,47.9454 71.5,47C 71.9891,45.8615 72.3225,44.6948 72.5,43.5C 75.1251,42.5595 75.1251,41.3928 72.5,40C 75.4939,40.3584 77.3272,42.1917 78,45.5C 78.4366,41.3773 77.9366,37.3773 76.5,33.5 Z"/></g>
<g><path style="opacity:1" fill="#c1eff1" d="M 33.5,43.5 C 36.6248,42.5206 39.9581,42.1872 43.5,42.5C 43.8102,44.1436 44.8102,45.1436 46.5,45.5C 45.8902,46.391 45.5569,47.391 45.5,48.5C 44.8333,48.5 44.5,48.8333 44.5,49.5C 43.8333,48.8333 43.1667,48.1667 42.5,47.5C 39.6946,46.6805 36.6946,46.1805 33.5,46C 44.1466,44.8423 44.1466,44.009 33.5,43.5 Z"/></g>
<g><path style="opacity:1" fill="#8bc0ec" d="M 22.5,42.5 C 23.1667,42.5 23.8333,42.5 24.5,42.5C 25.1667,42.8333 25.8333,43.1667 26.5,43.5C 26.2252,45.8418 25.3919,45.8418 24,43.5C 22.8118,44.5634 22.3118,45.8967 22.5,47.5C 24.2161,47.3713 25.8828,47.038 27.5,46.5C 27.1667,47.1667 26.8333,47.8333 26.5,48.5C 25.391,48.5569 24.391,48.8902 23.5,49.5C 23.1583,48.6618 22.4916,48.3284 21.5,48.5C 20.1353,46.2492 20.4686,44.2492 22.5,42.5 Z"/></g>
<g><path style="opacity:1" fill="#c0e0f5" d="M 26.5,43.5 C 27.3382,43.8417 27.6716,44.5084 27.5,45.5C 27.5,45.8333 27.5,46.1667 27.5,46.5C 25.8828,47.038 24.2161,47.3713 22.5,47.5C 22.3118,45.8967 22.8118,44.5634 24,43.5C 25.3919,45.8418 26.2252,45.8418 26.5,43.5 Z"/></g>
<g><path style="opacity:1" fill="#c0e4f1" d="M 69.5,43.5 C 70.5,43.5 71.5,43.5 72.5,43.5C 72.3225,44.6948 71.9891,45.8615 71.5,47C 71.9054,47.9454 72.572,48.6121 73.5,49C 71.6804,50.6885 69.6804,50.8552 67.5,49.5C 67.7373,48.209 67.404,47.209 66.5,46.5C 67.6935,45.7281 68.6935,44.7281 69.5,43.5 Z"/></g>
<g><path style="opacity:1" fill="#9be5dc" d="M 50.5,47.5 C 49.8333,48.1667 49.1667,48.8333 48.5,49.5C 47.791,48.596 46.791,48.2627 45.5,48.5C 45.5569,47.391 45.8902,46.391 46.5,45.5C 48.8857,41.7825 50.2191,42.4491 50.5,47.5 Z"/></g>
<g><path style="opacity:1" fill="#b2e8e0" d="M 64.5,46.5 C 61.2382,51.6849 58.2382,51.6849 55.5,46.5C 58.4467,45.5763 61.4467,45.5763 64.5,46.5 Z"/></g>
<g><path style="opacity:1" fill="#b9ecf5" d="M 27.5,46.5 C 30.8606,47.2032 31.1939,48.5365 28.5,50.5C 27.8933,50.3764 27.56,50.0431 27.5,49.5C 27.5,48.8333 27.1667,48.5 26.5,48.5C 26.8333,47.8333 27.1667,47.1667 27.5,46.5 Z"/></g>
<g><path style="opacity:1" fill="#75d7f0" d="M 27.5,46.5 C 27.5,46.1667 27.5,45.8333 27.5,45.5C 29.3797,45.2291 30.713,45.8958 31.5,47.5C 31.6085,49.5138 30.9418,51.1805 29.5,52.5C 27.8042,52.3146 26.4709,51.4813 25.5,50C 26.0944,49.5357 26.7611,49.369 27.5,49.5C 27.56,50.0431 27.8933,50.3764 28.5,50.5C 31.1939,48.5365 30.8606,47.2032 27.5,46.5 Z"/></g>
<g><path style="opacity:1" fill="#67dcea" d="M 39.5,49.5 C 42.8531,49.3453 43.1864,50.0119 40.5,51.5C 37.8127,51.6641 35.146,51.4974 32.5,51C 34.5938,49.6485 36.9272,49.1485 39.5,49.5 Z"/></g>
<g><path style="opacity:1" fill="#ccf1eb" d="M 67.5,40.5 C 68.4013,41.2905 69.0679,42.2905 69.5,43.5C 68.6935,44.7281 67.6935,45.7281 66.5,46.5C 65.6314,48.717 65.298,51.0504 65.5,53.5C 64.325,53.719 63.325,53.3857 62.5,52.5C 63.5063,51.6043 63.5063,50.9377 62.5,50.5C 60.8839,51.1152 59.5505,52.1152 58.5,53.5C 57.2724,51.8241 55.9391,51.4908 54.5,52.5C 53.3415,47.9428 51.6748,47.6094 49.5,51.5C 48.8333,51.5 48.5,51.1667 48.5,50.5C 48.5,50.1667 48.5,49.8333 48.5,49.5C 49.1667,48.8333 49.8333,48.1667 50.5,47.5C 52.2161,47.3713 53.8828,47.038 55.5,46.5C 58.2382,51.6849 61.2382,51.6849 64.5,46.5C 64.9397,44.1561 65.9397,42.1561 67.5,40.5 Z"/></g>
<g><path style="opacity:1" fill="#dfeaf9" d="M 17.5,24.5 C 12.5549,32.3169 12.2216,40.3169 16.5,48.5C 16.3379,50.5273 16.5045,52.5273 17,54.5C 17.3826,55.056 17.8826,55.3893 18.5,55.5C 20.0277,58.7487 21.3611,62.082 22.5,65.5C 20.9826,65.4894 19.8159,64.8228 19,63.5C 15.8815,56.3241 13.7148,48.9908 12.5,41.5C 11.9909,35.8807 12.8243,30.5473 15,25.5C 15.6708,24.7476 16.5041,24.4142 17.5,24.5 Z"/></g>
<g><path style="opacity:1" fill="#c8e3f9" d="M 81.5,37.5 C 82.1667,37.5 82.5,37.8333 82.5,38.5C 83.0293,40.7832 83.3626,43.1166 83.5,45.5C 81.489,50.6298 79.6557,55.9632 78,61.5C 79.1318,54.9517 79.6318,48.2851 79.5,41.5C 81.1042,40.713 81.7709,39.3797 81.5,37.5 Z"/></g>
<g><path style="opacity:1" fill="#9fe7f4" d="M 32.5,43.5 C 32.8333,43.5 33.1667,43.5 33.5,43.5C 44.1466,44.009 44.1466,44.8423 33.5,46C 36.6946,46.1805 39.6946,46.6805 42.5,47.5C 41.5,48.1667 40.5,48.8333 39.5,49.5C 36.9272,49.1485 34.5938,49.6485 32.5,51C 35.146,51.4974 37.8127,51.6641 40.5,51.5C 39.375,52.6522 39.375,53.6522 40.5,54.5C 40.369,55.2389 40.5357,55.9056 41,56.5C 45.771,58.0689 49.271,61.0689 51.5,65.5C 48.8728,64.9084 46.2062,64.5751 43.5,64.5C 43.6602,62.8008 43.4935,61.1341 43,59.5C 41.1839,58.6705 39.3506,57.8372 37.5,57C 34.9771,57.2595 32.6438,58.0929 30.5,59.5C 30.1667,59.5 29.8333,59.5 29.5,59.5C 29.5,57.1667 29.5,54.8333 29.5,52.5C 30.9418,51.1805 31.6085,49.5138 31.5,47.5C 32.4345,46.4324 32.7678,45.099 32.5,43.5 Z"/></g>
<g><path style="opacity:1" fill="#b3d1ef" d="M 21.5,48.5 C 22.4916,48.3284 23.1583,48.6618 23.5,49.5C 23.0618,49.4346 22.7284,49.6012 22.5,50C 23.1667,50.3333 23.8333,50.6667 24.5,51C 23.2808,53.2826 23.2808,55.616 24.5,58C 27.0151,60.6824 29.6818,63.1824 32.5,65.5C 34.328,66.2828 35.6613,67.6161 36.5,69.5C 36.5,69.8333 36.5,70.1667 36.5,70.5C 32.3402,69.2563 28.6736,67.2563 25.5,64.5C 23.1615,59.4721 21.8282,54.1388 21.5,48.5 Z"/></g>
<g><path style="opacity:1" fill="#b0daed" d="M 26.5,48.5 C 27.1667,48.5 27.5,48.8333 27.5,49.5C 26.7611,49.369 26.0944,49.5357 25.5,50C 26.4709,51.4813 27.8042,52.3146 29.5,52.5C 29.5,54.8333 29.5,57.1667 29.5,59.5C 29.7376,61.4044 30.7376,62.7377 32.5,63.5C 32.5,64.1667 32.5,64.8333 32.5,65.5C 29.6818,63.1824 27.0151,60.6824 24.5,58C 23.2808,55.616 23.2808,53.2826 24.5,51C 23.8333,50.6667 23.1667,50.3333 22.5,50C 22.7284,49.6012 23.0618,49.4346 23.5,49.5C 24.391,48.8902 25.391,48.5569 26.5,48.5 Z"/></g>
<g><path style="opacity:1" fill="#b3ebe7" d="M 66.5,46.5 C 67.404,47.209 67.7373,48.209 67.5,49.5C 67.4326,50.9587 67.7659,52.2921 68.5,53.5C 65.9322,55.081 64.5989,57.4143 64.5,60.5C 63.5,60.5 62.5,60.5 61.5,60.5C 58.2345,62.1587 54.9012,62.4921 51.5,61.5C 51.5,60.5 51.5,59.5 51.5,58.5C 47.5053,57.9474 43.8386,56.614 40.5,54.5C 39.375,53.6522 39.375,52.6522 40.5,51.5C 43.1864,50.0119 42.8531,49.3453 39.5,49.5C 40.5,48.8333 41.5,48.1667 42.5,47.5C 43.1667,48.1667 43.8333,48.8333 44.5,49.5C 42.8632,51.1237 43.1966,52.1237 45.5,52.5C 46.7387,52.0576 47.7387,51.3909 48.5,50.5C 48.5,51.1667 48.8333,51.5 49.5,51.5C 50.9187,52.4511 52.5853,52.7845 54.5,52.5C 55.9391,51.4908 57.2724,51.8241 58.5,53.5C 59.5505,52.1152 60.8839,51.1152 62.5,50.5C 63.5063,50.9377 63.5063,51.6043 62.5,52.5C 63.325,53.3857 64.325,53.719 65.5,53.5C 65.298,51.0504 65.6314,48.717 66.5,46.5 Z"/></g>
<g><path style="opacity:1" fill="#9ae9dc" d="M 54.5,52.5 C 52.5853,52.7845 50.9187,52.4511 49.5,51.5C 51.6748,47.6094 53.3415,47.9428 54.5,52.5 Z"/></g>
<g><path style="opacity:1" fill="#7fe3db" d="M 45.5,48.5 C 46.791,48.2627 47.791,48.596 48.5,49.5C 48.5,49.8333 48.5,50.1667 48.5,50.5C 47.7387,51.3909 46.7387,52.0576 45.5,52.5C 43.1966,52.1237 42.8632,51.1237 44.5,49.5C 44.5,48.8333 44.8333,48.5 45.5,48.5 Z"/></g>
<g><path style="opacity:1" fill="#b0e1ef" d="M 68.5,53.5 C 69.1667,53.8333 69.8333,54.1667 70.5,54.5C 69.828,55.2674 68.9947,55.9341 68,56.5C 66.2771,59.7261 64.7771,63.0594 63.5,66.5C 63.1667,66.5 62.8333,66.5 62.5,66.5C 60.7085,66.366 59.0418,66.6993 57.5,67.5C 55.4471,67.5979 53.7804,66.9313 52.5,65.5C 56.9903,66.0973 59.9903,64.4306 61.5,60.5C 62.5,60.5 63.5,60.5 64.5,60.5C 64.5989,57.4143 65.9322,55.081 68.5,53.5 Z"/></g>
<g><path style="opacity:1" fill="#cadef8" d="M 71.5,65.5 C 71.5299,64.5028 71.0299,63.8361 70,63.5C 67.7473,64.3773 65.5806,65.3773 63.5,66.5C 64.7771,63.0594 66.2771,59.7261 68,56.5C 68.9947,55.9341 69.828,55.2674 70.5,54.5C 72.1703,54.2488 73.6703,53.5822 75,52.5C 75.0781,50.3435 75.2448,48.3435 75.5,46.5C 76.9686,48.192 77.6353,50.192 77.5,52.5C 76.8236,57.5152 74.8236,61.8486 71.5,65.5 Z"/></g>
<g><path style="opacity:1" fill="#94e0f5" d="M 51.5,65.5 C 51.8333,65.5 52.1667,65.5 52.5,65.5C 53.7804,66.9313 55.4471,67.5979 57.5,67.5C 57.0831,68.1239 56.4164,68.4573 55.5,68.5C 52.1942,67.8367 48.8608,67.3367 45.5,67C 44,66.1667 42.8333,65 42,63.5C 41.6667,63.8333 41.3333,64.1667 41,64.5C 37.6538,61.7346 34.1538,60.0679 30.5,59.5C 32.6438,58.0929 34.9771,57.2595 37.5,57C 39.3506,57.8372 41.1839,58.6705 43,59.5C 43.4935,61.1341 43.6602,62.8008 43.5,64.5C 46.2062,64.5751 48.8728,64.9084 51.5,65.5 Z"/></g>
<g><path style="opacity:1" fill="#a3e6e9" d="M 40.5,54.5 C 43.8386,56.614 47.5053,57.9474 51.5,58.5C 51.5,59.5 51.5,60.5 51.5,61.5C 54.9012,62.4921 58.2345,62.1587 61.5,60.5C 59.9903,64.4306 56.9903,66.0973 52.5,65.5C 52.1667,65.5 51.8333,65.5 51.5,65.5C 49.271,61.0689 45.771,58.0689 41,56.5C 40.5357,55.9056 40.369,55.2389 40.5,54.5 Z"/></g>
<g><path style="opacity:1" fill="#97dbf7" d="M 29.5,59.5 C 29.8333,59.5 30.1667,59.5 30.5,59.5C 34.1538,60.0679 37.6538,61.7346 41,64.5C 41.3333,64.1667 41.6667,63.8333 42,63.5C 42.8333,65 44,66.1667 45.5,67C 48.8608,67.3367 52.1942,67.8367 55.5,68.5C 56.4164,68.4573 57.0831,68.1239 57.5,67.5C 59.0418,66.6993 60.7085,66.366 62.5,66.5C 61.8333,67.5 61.1667,68.5 60.5,69.5C 54.4739,69.641 48.4739,69.3077 42.5,68.5C 38.8594,67.3464 35.526,65.6797 32.5,63.5C 30.7376,62.7377 29.7376,61.4044 29.5,59.5 Z"/></g>
<g><path style="opacity:1" fill="#b7ccf7" d="M 21.5,41.5 C 21.5,42.1667 21.8333,42.5 22.5,42.5C 20.4686,44.2492 20.1353,46.2492 21.5,48.5C 21.8282,54.1388 23.1615,59.4721 25.5,64.5C 28.6736,67.2563 32.3402,69.2563 36.5,70.5C 37.391,71.1098 38.391,71.4431 39.5,71.5C 39.189,72.4778 38.5223,73.1445 37.5,73.5C 35.5866,72.627 33.7533,71.627 32,70.5C 31.5172,71.448 31.3505,72.448 31.5,73.5C 28.5213,70.9578 25.5213,68.2911 22.5,65.5C 21.3611,62.082 20.0277,58.7487 18.5,55.5C 16.816,48.8199 17.6493,42.4866 21,36.5C 21.4935,38.1341 21.6602,39.8008 21.5,41.5 Z"/></g>
<g><path style="opacity:1" fill="#b9cbf8" d="M 71.5,65.5 C 70.3995,66.6049 69.7329,67.9382 69.5,69.5C 67.8333,70.8333 66.1667,72.1667 64.5,73.5C 64.1667,73.5 63.8333,73.5 63.5,73.5C 63.5,73.1667 63.5,72.8333 63.5,72.5C 63.1788,70.9519 62.1788,70.2852 60.5,70.5C 60.5,70.1667 60.5,69.8333 60.5,69.5C 61.1667,68.5 61.8333,67.5 62.5,66.5C 62.8333,66.5 63.1667,66.5 63.5,66.5C 65.5806,65.3773 67.7473,64.3773 70,63.5C 71.0299,63.8361 71.5299,64.5028 71.5,65.5 Z"/></g>
<g><path style="opacity:1" fill="#d5def7" d="M 74.5,70.5 C 72.1667,71.8333 69.8333,73.1667 67.5,74.5C 66.209,74.7373 65.209,74.404 64.5,73.5C 66.1667,72.1667 67.8333,70.8333 69.5,69.5C 69.56,70.0431 69.8933,70.3764 70.5,70.5C 72.4971,69.2526 74.4971,68.4192 76.5,68C 75.6195,68.7083 74.9528,69.5416 74.5,70.5 Z"/></g>
<g><path style="opacity:1" fill="#9cd2f7" d="M 32.5,63.5 C 35.526,65.6797 38.8594,67.3464 42.5,68.5C 48.4739,69.3077 54.4739,69.641 60.5,69.5C 60.5,69.8333 60.5,70.1667 60.5,70.5C 52.2844,70.9868 44.2844,70.6535 36.5,69.5C 35.6613,67.6161 34.328,66.2828 32.5,65.5C 32.5,64.8333 32.5,64.1667 32.5,63.5 Z"/></g>
<g><path style="opacity:1" fill="#bec6f8" d="M 39.5,71.5 C 41.3792,72.3414 43.3792,72.6747 45.5,72.5C 46.209,73.404 47.209,73.7373 48.5,73.5C 47.791,74.404 46.791,74.7373 45.5,74.5C 43.8212,74.2852 42.8212,74.9519 42.5,76.5C 41.8333,76.5 41.1667,76.5 40.5,76.5C 37.6185,75.3173 34.6185,74.3173 31.5,73.5C 31.3505,72.448 31.5172,71.448 32,70.5C 33.7533,71.627 35.5866,72.627 37.5,73.5C 38.5223,73.1445 39.189,72.4778 39.5,71.5 Z"/></g>
<g><path style="opacity:1" fill="#a1c9f8" d="M 36.5,70.5 C 36.5,70.1667 36.5,69.8333 36.5,69.5C 44.2844,70.6535 52.2844,70.9868 60.5,70.5C 59.7375,71.2679 58.7375,71.7679 57.5,72C 53.5138,72.4988 49.5138,72.6655 45.5,72.5C 43.3792,72.6747 41.3792,72.3414 39.5,71.5C 38.391,71.4431 37.391,71.1098 36.5,70.5 Z"/></g>
<g><path style="opacity:1" fill="#a4bef9" d="M 60.5,70.5 C 62.1788,70.2852 63.1788,70.9519 63.5,72.5C 58.5275,73.1637 53.5275,73.4971 48.5,73.5C 47.209,73.7373 46.209,73.404 45.5,72.5C 49.5138,72.6655 53.5138,72.4988 57.5,72C 58.7375,71.7679 59.7375,71.2679 60.5,70.5 Z"/></g>
<g><path style="opacity:1" fill="#a9b5f8" d="M 63.5,72.5 C 63.5,72.8333 63.5,73.1667 63.5,73.5C 62.609,74.1098 61.609,74.4431 60.5,74.5C 56.3998,74.2367 52.3998,74.5701 48.5,75.5C 47.209,75.7373 46.209,75.404 45.5,74.5C 46.791,74.7373 47.791,74.404 48.5,73.5C 53.5275,73.4971 58.5275,73.1637 63.5,72.5 Z"/></g>
<g><path style="opacity:1" fill="#b4aef9" d="M 60.5,74.5 C 59.1667,75.5 57.8333,76.5 56.5,77.5C 55.8333,77.5 55.1667,77.5 54.5,77.5C 52.5,76.8333 50.5,76.1667 48.5,75.5C 52.3998,74.5701 56.3998,74.2367 60.5,74.5 Z"/></g>
<g><path style="opacity:1" fill="#d2c9ee" d="M 63.5,73.5 C 63.8333,73.5 64.1667,73.5 64.5,73.5C 65.209,74.404 66.209,74.7373 67.5,74.5C 66.9423,75.7899 65.9423,76.6232 64.5,77C 62.1902,77.4966 59.8568,77.6633 57.5,77.5C 57.1667,77.5 56.8333,77.5 56.5,77.5C 57.8333,76.5 59.1667,75.5 60.5,74.5C 61.609,74.4431 62.609,74.1098 63.5,73.5 Z"/></g>
<g><path style="opacity:1" fill="#d1adf4" d="M 45.5,74.5 C 46.209,75.404 47.209,75.7373 48.5,75.5C 50.5,76.1667 52.5,76.8333 54.5,77.5C 50.4517,77.6054 46.4517,77.2721 42.5,76.5C 42.8212,74.9519 43.8212,74.2852 45.5,74.5 Z"/></g>
<g><path style="opacity:1" fill="#d3b4d2" d="M 40.5,77.5 C 40.5,77.1667 40.5,76.8333 40.5,76.5C 41.1667,76.5 41.8333,76.5 42.5,76.5C 46.4517,77.2721 50.4517,77.6054 54.5,77.5C 55.1667,77.5 55.8333,77.5 56.5,77.5C 56.8333,77.5 57.1667,77.5 57.5,77.5C 57.1583,78.3382 56.4916,78.6716 55.5,78.5C 50.4635,78.5874 45.4635,78.254 40.5,77.5 Z"/></g>
<g><path style="opacity:1" fill="#dedfed" d="M 74.5,70.5 C 73.3995,71.6049 72.7329,72.9382 72.5,74.5C 71.6398,76.6138 69.9732,77.7805 67.5,78C 63.5817,79.1564 59.5817,79.6564 55.5,79.5C 55.5,79.1667 55.5,78.8333 55.5,78.5C 56.4916,78.6716 57.1583,78.3382 57.5,77.5C 59.8568,77.6633 62.1902,77.4966 64.5,77C 65.9423,76.6232 66.9423,75.7899 67.5,74.5C 69.8333,73.1667 72.1667,71.8333 74.5,70.5 Z"/></g>
<g><path style="opacity:1" fill="#dde9f9" d="M 31.5,73.5 C 34.6185,74.3173 37.6185,75.3173 40.5,76.5C 40.5,76.8333 40.5,77.1667 40.5,77.5C 39.325,77.281 38.325,77.6143 37.5,78.5C 38.5,79.3333 39.5,80.1667 40.5,81C 45.2092,81.5806 49.5426,82.9139 53.5,85C 44.8367,86.5192 37.6701,83.6859 32,76.5C 31.5172,75.552 31.3505,74.552 31.5,73.5 Z"/></g>
<g><path style="opacity:1" fill="#e2dddb" d="M 40.5,77.5 C 45.4635,78.254 50.4635,78.5874 55.5,78.5C 55.5,78.8333 55.5,79.1667 55.5,79.5C 51.1539,79.6657 46.8206,79.499 42.5,79C 41.5842,78.7216 40.9175,78.2216 40.5,77.5 Z"/></g>
</svg>
