<?xml version="1.0" encoding="UTF-8"?>
<!DOCTYPE svg PUBLIC "-//W3C//DTD SVG 1.1//EN" "http://www.w3.org/Graphics/SVG/1.1/DTD/svg11.dtd">
<svg xmlns="http://www.w3.org/2000/svg" version="1.1" width="96px" height="96px" style="shape-rendering:geometricPrecision; text-rendering:geometricPrecision; image-rendering:optimizeQuality; fill-rule:evenodd; clip-rule:evenodd" xmlns:xlink="http://www.w3.org/1999/xlink">
<g><path style="opacity:0.337" fill="#dd235f" d="M 37.5,-0.5 C 44.1667,-0.5 50.8333,-0.5 57.5,-0.5C 77.1667,5.16667 89.8333,17.8333 95.5,37.5C 95.5,44.1667 95.5,50.8333 95.5,57.5C 89.8333,77.1667 77.1667,89.8333 57.5,95.5C 50.8333,95.5 44.1667,95.5 37.5,95.5C 17.8333,89.8333 5.16667,77.1667 -0.5,57.5C -0.5,50.8333 -0.5,44.1667 -0.5,37.5C 5.16667,17.8333 17.8333,5.16667 37.5,-0.5 Z"/></g>
<g><path style="opacity:1" fill="#0a0001" d="M 39.5,0.5 C 75.8456,0.346076 94.0123,18.3461 94,54.5C 89.5,76.3333 76.3333,89.5 54.5,94C 26.3308,95.4939 8.49744,82.6605 1,55.5C -0.757498,26.7833 12.0758,8.44993 39.5,0.5 Z"/></g>
<g><path style="opacity:1" fill="#ec9eb6" d="M 65.5,25.5 C 64.391,25.4431 63.391,25.1098 62.5,24.5C 57.8544,19.1877 52.8544,14.1877 47.5,9.5C 42.0147,14.485 36.6813,19.6516 31.5,25C 30.184,25.5281 29.5173,25.0281 29.5,23.5C 35.2098,17.7872 41.2098,12.4539 47.5,7.5C 54.5134,12.5134 60.5134,18.5134 65.5,25.5 Z"/></g>
<g><path style="opacity:1" fill="#170203" d="M 62.5,24.5 C 60.4294,25.8086 57.9294,26.4752 55,26.5C 49.1728,26.0005 43.3395,25.6671 37.5,25.5C 37.0254,28.0821 37.6921,30.0821 39.5,31.5C 39.5,42.5 39.5,53.5 39.5,64.5C 37.6675,63.7515 36.0009,62.7515 34.5,61.5C 33.5013,54.8427 32.5013,48.176 31.5,41.5C 32.0476,39.444 33.2142,37.7774 35,36.5C 35.6579,32.9748 34.4912,30.1414 31.5,28C 26.8452,27.5008 22.1785,27.3342 17.5,27.5C 20.9619,26.5184 24.6286,26.185 28.5,26.5C 28.2627,25.209 28.596,24.209 29.5,23.5C 29.5173,25.0281 30.184,25.5281 31.5,25C 36.6813,19.6516 42.0147,14.485 47.5,9.5C 52.8544,14.1877 57.8544,19.1877 62.5,24.5 Z"/></g>
<g><path style="opacity:1" fill="#c9224f" d="M 46.5,14.5 C 48.6089,15.3909 50.6089,16.5576 52.5,18C 51.1341,19.5998 50.1341,21.4332 49.5,23.5C 48.1667,22.1667 46.8333,22.1667 45.5,23.5C 44.6047,21.7536 43.938,19.9203 43.5,18C 44.5442,16.8261 45.5442,15.6594 46.5,14.5 Z"/></g>
<g><path style="opacity:1" fill="#ffe2ef" d="M 46.5,16.5 C 49.0838,17.0483 50.0838,18.715 49.5,21.5C 48.1667,21.5 46.8333,21.5 45.5,21.5C 45.366,19.7085 45.6993,18.0418 46.5,16.5 Z"/></g>
<g><path style="opacity:1" fill="#280509" d="M 62.5,24.5 C 63.391,25.1098 64.391,25.4431 65.5,25.5C 67.8333,26.1667 70.1667,26.8333 72.5,27.5C 68.5,27.5 64.5,27.5 60.5,27.5C 61.796,40.5126 61.796,53.5126 60.5,66.5C 64.7828,67.4922 69.1161,67.8256 73.5,67.5C 70.2033,67.89 67.2033,68.89 64.5,70.5C 63.391,70.5569 62.391,70.8902 61.5,71.5C 60.7886,69.7986 59.4553,68.7986 57.5,68.5C 57.5,68.1667 57.5,67.8333 57.5,67.5C 58.625,66.6522 58.625,65.6522 57.5,64.5C 58.1499,64.1961 58.8165,63.8627 59.5,63.5C 60.8333,52.8333 60.8333,42.1667 59.5,31.5C 58.8165,31.1373 58.1499,30.8039 57.5,30.5C 57.8039,29.8501 58.1373,29.1835 58.5,28.5C 55.5719,27.5159 52.5719,27.1826 49.5,27.5C 49.8146,29.2259 49.9813,30.8925 50,32.5C 47.3182,27.7639 43.4849,26.4306 38.5,28.5C 39.1272,29.4168 39.4606,30.4168 39.5,31.5C 37.6921,30.0821 37.0254,28.0821 37.5,25.5C 43.3395,25.6671 49.1728,26.0005 55,26.5C 57.9294,26.4752 60.4294,25.8086 62.5,24.5 Z"/></g>
<g><path style="opacity:1" fill="#220b12" d="M 57.5,30.5 C 58.1499,30.8039 58.8165,31.1373 59.5,31.5C 60.8333,42.1667 60.8333,52.8333 59.5,63.5C 58.8165,63.8627 58.1499,64.1961 57.5,64.5C 56.1667,53.1667 56.1667,41.8333 57.5,30.5 Z"/></g>
<g><path style="opacity:1" fill="#380613" d="M 55.5,65.5 C 54.5,65.5 53.5,65.5 52.5,65.5C 52.6664,57.4931 52.4997,49.4931 52,41.5C 50.6288,39.9586 49.1288,38.6253 47.5,37.5C 47.0919,36.3569 46.4252,35.3569 45.5,34.5C 44.1771,44.6589 44.1771,54.6589 45.5,64.5C 45.2089,65.6491 44.3756,66.3158 43,66.5C 41.6244,66.3158 40.7911,65.6491 40.5,64.5C 41.4949,53.012 41.8283,41.3453 41.5,29.5C 45.8614,30.1697 49.1947,32.503 51.5,36.5C 52.7691,34.3052 52.7691,32.1385 51.5,30C 52.7932,29.51 54.1266,29.3433 55.5,29.5C 55.5,41.5 55.5,53.5 55.5,65.5 Z"/></g>
<g><path style="opacity:1" fill="#c67b97" d="M 72.5,27.5 C 75.5,28.5 77.5,30.5 78.5,33.5C 78.5,43.1667 78.5,52.8333 78.5,62.5C 77.5,64.8333 75.8333,66.5 73.5,67.5C 69.1161,67.8256 64.7828,67.4922 60.5,66.5C 61.796,53.5126 61.796,40.5126 60.5,27.5C 64.5,27.5 68.5,27.5 72.5,27.5 Z"/></g>
<g><path style="opacity:1" fill="#d186a2" d="M 57.5,30.5 C 56.1667,41.8333 56.1667,53.1667 57.5,64.5C 58.625,65.6522 58.625,66.6522 57.5,67.5C 54.7531,67.8134 52.0865,67.48 49.5,66.5C 50.1272,65.5832 50.4606,64.5832 50.5,63.5C 51.404,64.209 51.7373,65.209 51.5,66.5C 53.7674,66.8545 55.1007,66.5211 55.5,65.5C 55.5,53.5 55.5,41.5 55.5,29.5C 54.1266,29.3433 52.7932,29.51 51.5,30C 52.7691,32.1385 52.7691,34.3052 51.5,36.5C 49.1947,32.503 45.8614,30.1697 41.5,29.5C 41.8283,41.3453 41.4949,53.012 40.5,64.5C 40.1667,64.5 39.8333,64.5 39.5,64.5C 39.5,53.5 39.5,42.5 39.5,31.5C 39.4606,30.4168 39.1272,29.4168 38.5,28.5C 43.4849,26.4306 47.3182,27.7639 50,32.5C 49.9813,30.8925 49.8146,29.2259 49.5,27.5C 52.5719,27.1826 55.5719,27.5159 58.5,28.5C 58.1373,29.1835 57.8039,29.8501 57.5,30.5 Z"/></g>
<g><path style="opacity:1" fill="#e097b3" d="M 47.5,37.5 C 45.5289,46.1045 44.8623,55.1045 45.5,64.5C 44.1771,54.6589 44.1771,44.6589 45.5,34.5C 46.4252,35.3569 47.0919,36.3569 47.5,37.5 Z"/></g>
<g><path style="opacity:1" fill="#510a21" d="M 17.5,30.5 C 18.8333,41.8333 18.8333,53.1667 17.5,64.5C 17.8257,56.3159 17.4924,48.3159 16.5,40.5C 16.5,39.8333 16.5,39.1667 16.5,38.5C 17.4731,36.0521 17.8064,33.3854 17.5,30.5 Z"/></g>
<g><path style="opacity:1" fill="#e996b1" d="M 80.5,40.5 C 84.4239,41.9072 86.5906,44.5739 87,48.5C 86.6174,49.056 86.1174,49.3893 85.5,49.5C 85.6495,48.448 85.4828,47.448 85,46.5C 82.8733,44.8863 81.3733,42.8863 80.5,40.5 Z"/></g>
<g><path style="opacity:1" fill="#b56b85" d="M 47.5,37.5 C 49.1288,38.6253 50.6288,39.9586 52,41.5C 52.4997,49.4931 52.6664,57.4931 52.5,65.5C 53.5,65.5 54.5,65.5 55.5,65.5C 55.1007,66.5211 53.7674,66.8545 51.5,66.5C 51.7373,65.209 51.404,64.209 50.5,63.5C 50.6663,56.1591 50.4997,48.8258 50,41.5C 49,40.5 48,39.5 47,38.5C 46.5003,46.8267 46.3336,55.16 46.5,63.5C 46.5,63.8333 46.5,64.1667 46.5,64.5C 46.1667,64.5 45.8333,64.5 45.5,64.5C 44.8623,55.1045 45.5289,46.1045 47.5,37.5 Z"/></g>
<g><path style="opacity:1" fill="#190004" d="M 50.5,63.5 C 49.1667,63.5 47.8333,63.5 46.5,63.5C 46.3336,55.16 46.5003,46.8267 47,38.5C 48,39.5 49,40.5 50,41.5C 50.4997,48.8258 50.6663,56.1591 50.5,63.5 Z"/></g>
<g><path style="opacity:1" fill="#ea9db4" d="M 16.5,38.5 C 16.5,39.1667 16.5,39.8333 16.5,40.5C 13.8544,42.4789 11.5211,44.8122 9.5,47.5C 11.483,49.9837 13.6496,52.3171 16,54.5C 16.6877,55.3317 16.521,55.9984 15.5,56.5C 12.0886,54.0928 9.42193,51.0928 7.5,47.5C 9.51367,43.4863 12.5137,40.4863 16.5,38.5 Z"/></g>
<g><path style="opacity:1" fill="#2a050a" d="M 62.5,30.5 C 66.3112,29.3547 70.3112,29.1881 74.5,30C 75,30.5 75.5,31 76,31.5C 76.6667,42.1667 76.6667,52.8333 76,63.5C 75.5,64.6667 74.6667,65.5 73.5,66C 69.7887,66.8253 66.122,66.6586 62.5,65.5C 63.8213,53.7055 63.8213,42.0388 62.5,30.5 Z"/></g>
<g><path style="opacity:1" fill="#e99cb7" d="M 67.5,46.5 C 68.9744,47.4363 69.9744,48.7697 70.5,50.5C 69.2921,51.2341 67.9587,51.5674 66.5,51.5C 66.2155,49.5853 66.5489,47.9187 67.5,46.5 Z"/></g>
<g><path style="opacity:1" fill="#d7839f" d="M 72.5,32.5 C 73.1667,32.5 73.5,32.8333 73.5,33.5C 73.5,35.1667 73.5,36.8333 73.5,38.5C 71.6536,38.7778 70.3202,38.1112 69.5,36.5C 69.8148,34.517 70.8148,33.1837 72.5,32.5 Z"/></g>
<g><path style="opacity:1" fill="#d488a4" d="M 17.5,27.5 C 22.1785,27.3342 26.8452,27.5008 31.5,28C 34.4912,30.1414 35.6579,32.9748 35,36.5C 33.2142,37.7774 32.0476,39.444 31.5,41.5C 32.5013,48.176 33.5013,54.8427 34.5,61.5C 34.3832,63.4835 35.0499,65.1502 36.5,66.5C 33.5,67.8333 30.5,67.8333 27.5,66.5C 28.0307,58.102 27.1973,49.7687 25,41.5C 24.1971,49.8822 24.3638,58.2155 25.5,66.5C 22.9135,67.48 20.2469,67.8134 17.5,67.5C 17.5,66.5 17.5,65.5 17.5,64.5C 18.8333,53.1667 18.8333,41.8333 17.5,30.5C 16.375,29.3478 16.375,28.3478 17.5,27.5 Z"/></g>
<g><path style="opacity:1" fill="#a8607a" d="M 23.5,39.5 C 23.5,48.5 23.5,57.5 23.5,66.5C 21.2326,66.8545 19.8993,66.5211 19.5,65.5C 20.5,65.5 21.5,65.5 22.5,65.5C 22.1736,56.6506 22.507,47.9839 23.5,39.5 Z"/></g>
<g><path style="opacity:1" fill="#320913" d="M 23.5,39.5 C 22.507,47.9839 22.1736,56.6506 22.5,65.5C 21.5,65.5 20.5,65.5 19.5,65.5C 19.5,53.5 19.5,41.5 19.5,29.5C 23.5138,29.3345 27.5138,29.5012 31.5,30C 32,30.5 32.5,31 33,31.5C 32.2849,35.6101 31.4515,39.7768 30.5,44C 31.0824,50.9106 32.0824,57.7439 33.5,64.5C 32.675,65.3857 31.675,65.719 30.5,65.5C 29.2705,57.1834 28.1038,48.8501 27,40.5C 25.9887,39.6634 24.8221,39.33 23.5,39.5 Z"/></g>
<g><path style="opacity:1" fill="#e89dba" d="M 29.5,32.5 C 30.6843,33.6879 30.6843,34.8545 29.5,36C 27.5273,36.4955 25.5273,36.6621 23.5,36.5C 23.369,35.7611 23.5357,35.0944 24,34.5C 25.4936,35.7472 26.9936,35.7472 28.5,34.5C 22.0408,33.0298 22.3742,32.3631 29.5,32.5 Z"/></g>
<g><path style="opacity:1" fill="#8b354b" d="M 29.5,32.5 C 22.3742,32.3631 22.0408,33.0298 28.5,34.5C 26.9936,35.7472 25.4936,35.7472 24,34.5C 23.5357,35.0944 23.369,35.7611 23.5,36.5C 22.5489,35.0813 22.2155,33.4147 22.5,31.5C 25.0593,31.1984 27.3926,31.5318 29.5,32.5 Z"/></g>
<g><path style="opacity:1" fill="#f1a0ba" d="M 85.5,49.5 C 84.925,51.4113 83.925,53.078 82.5,54.5C 81.6236,54.6309 80.9569,54.2975 80.5,53.5C 81.7737,51.5486 83.4404,50.2152 85.5,49.5 Z"/></g>
<g><path style="opacity:1" fill="#842d47" d="M 72.5,32.5 C 70.8148,33.1837 69.8148,34.517 69.5,36.5C 70.3202,38.1112 71.6536,38.7778 73.5,38.5C 73.5,36.8333 73.5,35.1667 73.5,33.5C 74.8111,37.6829 74.8111,42.0162 73.5,46.5C 71.8693,44.9412 71.036,42.9412 71,40.5C 70.7679,41.7375 70.2679,42.7375 69.5,43.5C 68.4489,44.2223 67.7822,45.2223 67.5,46.5C 66.5489,47.9187 66.2155,49.5853 66.5,51.5C 67.9587,51.5674 69.2921,51.2341 70.5,50.5C 71.1098,51.391 71.4431,52.391 71.5,53.5C 70.5398,56.9017 70.5398,60.235 71.5,63.5C 69.5,63.5 67.5,63.5 65.5,63.5C 65.5,54.1667 65.5,44.8333 65.5,35.5C 68.5,35.8333 69.8333,34.5 69.5,31.5C 70.791,31.2627 71.791,31.596 72.5,32.5 Z"/></g>
<g><path style="opacity:1" fill="#efa8c2" d="M 69.5,43.5 C 66.4312,43.037 65.9312,41.7037 68,39.5C 69.1882,40.5634 69.6882,41.8967 69.5,43.5 Z"/></g>
<g><path style="opacity:1" fill="#2a0406" d="M 78.5,33.5 C 79.1667,35.8333 79.8333,38.1667 80.5,40.5C 81.3733,42.8863 82.8733,44.8863 85,46.5C 85.4828,47.448 85.6495,48.448 85.5,49.5C 83.4404,50.2152 81.7737,51.5486 80.5,53.5C 80.9569,54.2975 81.6236,54.6309 82.5,54.5C 81.791,55.404 80.791,55.7373 79.5,55.5C 79.8016,58.0593 79.4682,60.3926 78.5,62.5C 78.5,52.8333 78.5,43.1667 78.5,33.5 Z"/></g>
<g><path style="opacity:1" fill="#e9a0bd" d="M 68.5,52.5 C 69.3764,52.3691 70.0431,52.7025 70.5,53.5C 69.8108,55.444 69.3108,57.444 69,59.5C 68.5359,53.8252 67.8693,53.4919 67,58.5C 66.2568,56.1261 66.7568,54.1261 68.5,52.5 Z"/></g>
<g><path style="opacity:1" fill="#c97592" d="M 71.5,63.5 C 70.5398,60.235 70.5398,56.9017 71.5,53.5C 72.1515,52.9094 72.8182,52.2427 73.5,51.5C 74.657,54.7844 74.8236,58.1177 74,61.5C 73.2917,62.3805 72.4584,63.0472 71.5,63.5 Z"/></g>
<g><path style="opacity:1" fill="#feecf9" d="M 66.5,60.5 C 68.9828,60.73 69.4828,61.3966 68,62.5C 66.9701,62.1639 66.4701,61.4972 66.5,60.5 Z"/></g>
<g><path style="opacity:1" fill="#3b0615" d="M 34.5,61.5 C 36.0009,62.7515 37.6675,63.7515 39.5,64.5C 39.1961,65.1499 38.8627,65.8165 38.5,66.5C 41.5,67.8333 44.5,67.8333 47.5,66.5C 47.1373,65.8165 46.8039,65.1499 46.5,64.5C 46.5,64.1667 46.5,63.8333 46.5,63.5C 47.8333,63.5 49.1667,63.5 50.5,63.5C 50.4606,64.5832 50.1272,65.5832 49.5,66.5C 52.0865,67.48 54.7531,67.8134 57.5,67.5C 57.5,67.8333 57.5,68.1667 57.5,68.5C 43.9895,68.8289 30.6562,68.4956 17.5,67.5C 20.2469,67.8134 22.9135,67.48 25.5,66.5C 24.3638,58.2155 24.1971,49.8822 25,41.5C 27.1973,49.7687 28.0307,58.102 27.5,66.5C 30.5,67.8333 33.5,67.8333 36.5,66.5C 35.0499,65.1502 34.3832,63.4835 34.5,61.5 Z"/></g>
<g><path style="opacity:1" fill="#ea9fbb" d="M 39.5,64.5 C 39.8333,64.5 40.1667,64.5 40.5,64.5C 40.7911,65.6491 41.6244,66.3158 43,66.5C 44.3756,66.3158 45.2089,65.6491 45.5,64.5C 45.8333,64.5 46.1667,64.5 46.5,64.5C 46.8039,65.1499 47.1373,65.8165 47.5,66.5C 44.5,67.8333 41.5,67.8333 38.5,66.5C 38.8627,65.8165 39.1961,65.1499 39.5,64.5 Z"/></g>
<g><path style="opacity:1" fill="#eda3b9" d="M 61.5,71.5 C 62.391,70.8902 63.391,70.5569 64.5,70.5C 60.0982,76.4086 55.0982,81.9086 49.5,87C 48.1667,87.6667 46.8333,87.6667 45.5,87C 40.3182,81.9853 35.3182,76.8186 30.5,71.5C 31.0016,70.479 31.6683,70.3123 32.5,71C 37.3772,76.2128 42.5438,81.0461 48,85.5C 52.6811,80.9859 57.1811,76.3193 61.5,71.5 Z"/></g>
<g><path style="opacity:1" fill="#d62c5c" d="M 44.5,75.5 C 43.6236,75.6309 42.9569,75.2975 42.5,74.5C 44.2873,73.684 45.9539,72.684 47.5,71.5C 49.0461,72.684 50.7127,73.684 52.5,74.5C 51.0499,75.8498 50.3832,77.5165 50.5,79.5C 48.5,79.5 46.5,79.5 44.5,79.5C 44.5,78.1667 44.5,76.8333 44.5,75.5 Z"/></g>
<g><path style="opacity:1" fill="#feedf5" d="M 44.5,75.5 C 46.2462,73.1451 48.2462,72.9784 50.5,75C 48.6627,78.1019 46.6627,78.2686 44.5,75.5 Z"/></g>
</svg>
