<?xml version="1.0" encoding="UTF-8"?>
<!DOCTYPE svg PUBLIC "-//W3C//DTD SVG 1.1//EN" "http://www.w3.org/Graphics/SVG/1.1/DTD/svg11.dtd">
<svg xmlns="http://www.w3.org/2000/svg" version="1.1" width="96px" height="96px" style="shape-rendering:geometricPrecision; text-rendering:geometricPrecision; image-rendering:optimizeQuality; fill-rule:evenodd; clip-rule:evenodd" xmlns:xlink="http://www.w3.org/1999/xlink">
<g><path style="opacity:0.433" fill="#d3dce0" d="M 68.5,-0.5 C 72.8333,-0.5 77.1667,-0.5 81.5,-0.5C 87.8333,2.5 92.5,7.16667 95.5,13.5C 95.5,17.8333 95.5,22.1667 95.5,26.5C 94.3263,27.5137 93.6596,28.847 93.5,30.5C 83.6728,41.9523 72.6728,43.2857 60.5,34.5C 60.5,33.8333 60.5,33.1667 60.5,32.5C 58.2918,31.1064 56.7918,29.1064 56,26.5C 55.5014,22.8484 55.3347,19.1817 55.5,15.5C 55.4914,13.6916 55.9914,12.0249 57,10.5C 59.3347,7.33466 61.8347,4.33466 64.5,1.5C 66.153,1.3404 67.4863,0.673734 68.5,-0.5 Z"/></g>
<g><path style="opacity:1" fill="#094650" d="M 60.5,32.5 C 52.8384,18.9915 55.8384,8.49154 69.5,1C 86.5108,-0.321791 94.6774,7.51154 94,24.5C 89.9521,35.6069 82.1188,40.1069 70.5,38C 66.7885,36.7735 63.4552,34.9401 60.5,32.5 Z"/></g>
<g><path style="opacity:0.985" fill="#073092" d="M 37.5,-0.5 C 44.1667,-0.5 50.8333,-0.5 57.5,-0.5C 59.5994,0.611848 61.9327,1.27852 64.5,1.5C 61.8347,4.33466 59.3347,7.33466 57,10.5C 55.9914,12.0249 55.4914,13.6916 55.5,15.5C 54.718,18.7144 53.8847,22.0477 53,25.5C 52.2917,24.6195 51.4584,23.9528 50.5,23.5C 49.119,21.7259 49.4523,20.2259 51.5,19C 49.9238,18.5604 48.5904,17.727 47.5,16.5C 46.4096,17.727 45.0762,18.5604 43.5,19C 45.5477,20.2259 45.881,21.7259 44.5,23.5C 43.2126,24.5285 42.0459,24.1952 41,22.5C 39.6974,22.9783 38.5307,23.645 37.5,24.5C 36.71,23.3915 36.21,22.0581 36,20.5C 34.8869,21.7111 33.7202,21.7111 32.5,20.5C 31.8589,21.9935 30.8589,22.9935 29.5,23.5C 27.623,22.3754 25.7897,22.7088 24,24.5C 23.1597,21.5363 22.1597,21.203 21,23.5C 20.3333,22.8333 19.6667,22.1667 19,21.5C 16.101,21.9767 13.4343,22.9767 11,24.5C 9.67028,23.4178 8.17028,22.7512 6.5,22.5C 13.7129,10.6195 24.0462,2.95287 37.5,-0.5 Z"/></g>
<g><path style="opacity:1" fill="#d6e1e2" d="M 78.5,7.5 C 86.4372,10.381 89.2705,15.7143 87,23.5C 85.9086,20.2446 84.9086,16.9113 84,13.5C 81.6681,11.797 79.8347,9.79705 78.5,7.5 Z"/></g>
<g><path style="opacity:1" fill="#c5d3d5" d="M 73.5,14.5 C 77.155,14.4722 79.8217,16.1389 81.5,19.5C 78.8333,20.1667 76.1667,20.8333 73.5,21.5C 75.1353,22.6808 76.802,22.6808 78.5,21.5C 79.6039,22.6313 79.2705,23.4646 77.5,24C 76.1667,24.6667 74.8333,24.6667 73.5,24C 71.9825,22.3149 70.3159,20.8149 68.5,19.5C 70.5212,18.1455 72.1879,16.4788 73.5,14.5 Z"/></g>
<g><path style="opacity:1" fill="#e9eff0" d="M 62.5,16.5 C 64.1178,19.5563 65.6178,22.8896 67,26.5C 68.7448,27.9557 70.5781,29.289 72.5,30.5C 69.4397,31.4017 66.9397,30.4017 65,27.5C 63.0961,24.0769 62.2628,20.4102 62.5,16.5 Z"/></g>
<g><path style="opacity:1" fill="#e1c125" d="M 50.5,23.5 C 48.5,22.1667 46.5,22.1667 44.5,23.5C 45.881,21.7259 45.5477,20.2259 43.5,19C 45.0762,18.5604 46.4096,17.727 47.5,16.5C 48.5904,17.727 49.9238,18.5604 51.5,19C 49.4523,20.2259 49.119,21.7259 50.5,23.5 Z"/></g>
<g><path style="opacity:0.989" fill="#0b2e8b" d="M 55.5,15.5 C 55.3347,19.1817 55.5014,22.8484 56,26.5C 56.7918,29.1064 58.2918,31.1064 60.5,32.5C 60.5,33.1667 60.5,33.8333 60.5,34.5C 62.0263,37.1756 64.3596,39.0089 67.5,40C 71.749,41.1256 76.0823,41.7923 80.5,42C 79.244,42.4169 78.5774,43.2502 78.5,44.5C 77.4168,44.5394 76.4168,44.8728 75.5,45.5C 73.9954,42.8694 73.3287,43.2027 73.5,46.5C 72.5,46.5 71.5,46.5 70.5,46.5C 71.2341,45.2921 71.5674,43.9587 71.5,42.5C 68.5198,42.3797 65.6865,41.713 63,40.5C 59.803,41.3569 56.803,41.3569 54,40.5C 53.6667,41.1667 53.3333,41.8333 53,42.5C 51.6667,41.8333 50.3333,41.1667 49,40.5C 48.3333,43.1667 47.6667,43.1667 47,40.5C 45.6914,42.8912 44.6914,42.8912 44,40.5C 41.1621,41.0005 38.1621,42.0005 35,43.5C 34.2131,42.2893 33.5464,41.2893 33,40.5C 31.85,41.4239 30.85,41.4239 30,40.5C 29.4806,41.5156 28.6473,42.1822 27.5,42.5C 25.4317,42.0328 23.4317,41.3661 21.5,40.5C 20.6143,41.325 20.281,42.325 20.5,43.5C 21.791,43.2627 22.791,43.596 23.5,44.5C 21.7367,45.9538 20.4033,45.6204 19.5,43.5C 16.9448,41.3823 14.1115,41.0489 11,42.5C 9.31579,40.5406 7.31579,40.5406 5,42.5C 2.72055,40.5781 0.887219,40.5781 -0.5,42.5C -0.5,40.8333 -0.5,39.1667 -0.5,37.5C 1.02421,32.1185 3.35754,27.1185 6.5,22.5C 8.17028,22.7512 9.67028,23.4178 11,24.5C 13.4343,22.9767 16.101,21.9767 19,21.5C 19.6667,22.1667 20.3333,22.8333 21,23.5C 22.1597,21.203 23.1597,21.5363 24,24.5C 25.7897,22.7088 27.623,22.3754 29.5,23.5C 30.4663,25.0568 31.7996,26.3901 33.5,27.5C 34.7992,26.3063 36.1325,25.3063 37.5,24.5C 38.5307,23.645 39.6974,22.9783 41,22.5C 42.0459,24.1952 43.2126,24.5285 44.5,23.5C 46.5,22.1667 48.5,22.1667 50.5,23.5C 51.4584,23.9528 52.2917,24.6195 53,25.5C 53.8847,22.0477 54.718,18.7144 55.5,15.5 Z"/></g>
<g><path style="opacity:1" fill="#d9ba30" d="M 37.5,24.5 C 36.1325,25.3063 34.7992,26.3063 33.5,27.5C 31.7996,26.3901 30.4663,25.0568 29.5,23.5C 30.8589,22.9935 31.8589,21.9935 32.5,20.5C 33.7202,21.7111 34.8869,21.7111 36,20.5C 36.21,22.0581 36.71,23.3915 37.5,24.5 Z"/></g>
<g><path style="opacity:1" fill="#d5b831" d="M 23.5,29.5 C 25.0568,30.4663 26.3901,31.7996 27.5,33.5C 26.273,34.5904 25.4396,35.9238 25,37.5C 23.6667,36.1667 22.3333,36.1667 21,37.5C 21.4969,35.8016 21.3302,34.1349 20.5,32.5C 21.9935,31.8589 22.9935,30.8589 23.5,29.5 Z"/></g>
<g><path style="opacity:0.997" fill="#062b86" d="M 93.5,30.5 C 93.7215,33.0673 94.3882,35.4006 95.5,37.5C 95.5,44.1667 95.5,50.8333 95.5,57.5C 94.8333,58.8333 94.1667,60.1667 93.5,61.5C 93.2172,60.7109 92.7172,60.0442 92,59.5C 90.6667,59.5 89.3333,59.5 88,59.5C 87.3333,62.1667 86.6667,62.1667 86,59.5C 85.2588,60.6405 84.4255,60.6405 83.5,59.5C 82.4593,61.9913 81.6259,61.9913 81,59.5C 80.3741,61.9913 79.5407,61.9913 78.5,59.5C 76.9937,61.4014 75.3271,63.0681 73.5,64.5C 73.4802,62.857 74.1468,61.5237 75.5,60.5C 74.0521,59.6461 72.7187,58.6461 71.5,57.5C 70.5723,59.3348 69.4056,59.6682 68,58.5C 68.3308,60.0187 68.1641,61.352 67.5,62.5C 66.8783,61.3734 66.045,60.3734 65,59.5C 64,60.8333 63,60.8333 62,59.5C 61.3741,61.9913 60.5407,61.9913 59.5,59.5C 58.8076,60.0253 58.3076,60.6919 58,61.5C 57.3333,60.1667 56.6667,60.1667 56,61.5C 55.3333,58.8333 54.6667,58.8333 54,61.5C 53.6667,60.8333 53.3333,60.1667 53,59.5C 50.81,62.2486 49.1433,61.9153 48,58.5C 45.6566,59.1268 43.4899,60.1268 41.5,61.5C 40.8076,60.9747 40.3076,60.3081 40,59.5C 38.8869,60.7111 37.7202,60.7111 36.5,59.5C 35.8076,60.0253 35.3076,60.6919 35,61.5C 32.9179,58.8504 31.2512,59.1837 30,62.5C 29.2917,61.6195 28.4584,60.9528 27.5,60.5C 26.0689,60.1193 25.2355,59.1193 25,57.5C 23.6667,58.8333 22.3333,58.8333 21,57.5C 21.5258,59.2275 21.3591,60.8941 20.5,62.5C 18.7973,63.6602 18.1307,62.9935 18.5,60.5C 16.7376,60.3573 15.0709,60.6906 13.5,61.5C 12.8076,60.9747 12.3076,60.3081 12,59.5C 9.59031,60.0104 6.92364,60.0104 4,59.5C 3.64114,62.5443 2.97448,62.8776 2,60.5C 1.60123,60.7284 1.43456,61.0618 1.5,61.5C 0.833333,60.1667 0.166667,58.8333 -0.5,57.5C -0.5,52.5 -0.5,47.5 -0.5,42.5C 0.887219,40.5781 2.72055,40.5781 5,42.5C 7.31579,40.5406 9.31579,40.5406 11,42.5C 14.1115,41.0489 16.9448,41.3823 19.5,43.5C 18.6937,44.8675 17.6937,46.2008 16.5,47.5C 17.727,48.5904 18.5604,49.9238 19,51.5C 20.0793,49.6063 21.4126,49.273 23,50.5C 22.2075,48.4995 22.3741,46.4995 23.5,44.5C 22.791,43.596 21.791,43.2627 20.5,43.5C 20.281,42.325 20.6143,41.325 21.5,40.5C 23.4317,41.3661 25.4317,42.0328 27.5,42.5C 28.6473,42.1822 29.4806,41.5156 30,40.5C 30.85,41.4239 31.85,41.4239 33,40.5C 33.5464,41.2893 34.2131,42.2893 35,43.5C 38.1621,42.0005 41.1621,41.0005 44,40.5C 44.6914,42.8912 45.6914,42.8912 47,40.5C 47.6667,43.1667 48.3333,43.1667 49,40.5C 50.3333,41.1667 51.6667,41.8333 53,42.5C 53.3333,41.8333 53.6667,41.1667 54,40.5C 56.803,41.3569 59.803,41.3569 63,40.5C 65.6865,41.713 68.5198,42.3797 71.5,42.5C 71.5674,43.9587 71.2341,45.2921 70.5,46.5C 70.8212,48.0481 71.8212,48.7148 73.5,48.5C 73.3287,51.7973 73.9954,52.1306 75.5,49.5C 76.1667,49.8333 76.8333,50.1667 77.5,50.5C 77.3163,48.5851 77.6497,46.5851 78.5,44.5C 78.5774,43.2502 79.244,42.4169 80.5,42C 76.0823,41.7923 71.749,41.1256 67.5,40C 64.3596,39.0089 62.0263,37.1756 60.5,34.5C 72.6728,43.2857 83.6728,41.9523 93.5,30.5 Z"/></g>
<g><path style="opacity:1" fill="#e2c024" d="M 19.5,43.5 C 20.4033,45.6204 21.7367,45.9538 23.5,44.5C 22.3741,46.4995 22.2075,48.4995 23,50.5C 21.4126,49.273 20.0793,49.6063 19,51.5C 18.5604,49.9238 17.727,48.5904 16.5,47.5C 17.6937,46.2008 18.6937,44.8675 19.5,43.5 Z"/></g>
<g><path style="opacity:1" fill="#dabd31" d="M 78.5,44.5 C 77.6497,46.5851 77.3163,48.5851 77.5,50.5C 76.8333,50.1667 76.1667,49.8333 75.5,49.5C 73.9954,52.1306 73.3287,51.7973 73.5,48.5C 71.8212,48.7148 70.8212,48.0481 70.5,46.5C 71.5,46.5 72.5,46.5 73.5,46.5C 73.3287,43.2027 73.9954,42.8694 75.5,45.5C 76.4168,44.8728 77.4168,44.5394 78.5,44.5 Z"/></g>
<g><path style="opacity:0.987" fill="#07297e" d="M 67.5,62.5 C 67.3691,63.3764 67.7025,64.0431 68.5,64.5C 70.5059,63.8196 72.1725,63.8196 73.5,64.5C 75.3271,63.0681 76.9937,61.4014 78.5,59.5C 79.5407,61.9913 80.3741,61.9913 81,59.5C 81.6259,61.9913 82.4593,61.9913 83.5,59.5C 84.4255,60.6405 85.2588,60.6405 86,59.5C 86.6667,62.1667 87.3333,62.1667 88,59.5C 89.3333,59.5 90.6667,59.5 92,59.5C 92.7172,60.0442 93.2172,60.7109 93.5,61.5C 87.6333,79.3677 75.6333,90.701 57.5,95.5C 50.8333,95.5 44.1667,95.5 37.5,95.5C 19.3667,90.701 7.36673,79.3677 1.5,61.5C 1.43456,61.0618 1.60123,60.7284 2,60.5C 2.97448,62.8776 3.64114,62.5443 4,59.5C 6.92364,60.0104 9.59031,60.0104 12,59.5C 12.3076,60.3081 12.8076,60.9747 13.5,61.5C 15.0709,60.6906 16.7376,60.3573 18.5,60.5C 18.1307,62.9935 18.7973,63.6602 20.5,62.5C 21.8675,63.3063 23.2008,64.3063 24.5,65.5C 25.695,63.8794 26.695,62.2128 27.5,60.5C 28.4584,60.9528 29.2917,61.6195 30,62.5C 31.2512,59.1837 32.9179,58.8504 35,61.5C 35.3076,60.6919 35.8076,60.0253 36.5,59.5C 37.7202,60.7111 38.8869,60.7111 40,59.5C 40.3076,60.3081 40.8076,60.9747 41.5,61.5C 43.4899,60.1268 45.6566,59.1268 48,58.5C 49.1433,61.9153 50.81,62.2486 53,59.5C 53.3333,60.1667 53.6667,60.8333 54,61.5C 54.6667,58.8333 55.3333,58.8333 56,61.5C 56.6667,60.1667 57.3333,60.1667 58,61.5C 58.3076,60.6919 58.8076,60.0253 59.5,59.5C 60.5407,61.9913 61.3741,61.9913 62,59.5C 63,60.8333 64,60.8333 65,59.5C 66.045,60.3734 66.8783,61.3734 67.5,62.5 Z"/></g>
<g><path style="opacity:1" fill="#d3b631" d="M 27.5,60.5 C 26.695,62.2128 25.695,63.8794 24.5,65.5C 23.2008,64.3063 21.8675,63.3063 20.5,62.5C 21.3591,60.8941 21.5258,59.2275 21,57.5C 22.3333,58.8333 23.6667,58.8333 25,57.5C 25.2355,59.1193 26.0689,60.1193 27.5,60.5 Z"/></g>
<g><path style="opacity:1" fill="#c8ae3a" d="M 73.5,64.5 C 72.1725,63.8196 70.5059,63.8196 68.5,64.5C 67.7025,64.0431 67.3691,63.3764 67.5,62.5C 68.1641,61.352 68.3308,60.0187 68,58.5C 69.4056,59.6682 70.5723,59.3348 71.5,57.5C 72.7187,58.6461 74.0521,59.6461 75.5,60.5C 74.1468,61.5237 73.4802,62.857 73.5,64.5 Z"/></g>
<g><path style="opacity:1" fill="#d9be2e" d="M 58.5,67.5 C 60.205,68.5353 61.8716,68.5353 63.5,67.5C 63.723,68.9667 64.0563,70.4667 64.5,72C 62.9391,72.3176 61.7724,73.1509 61,74.5C 59.9025,73.0325 58.4025,72.1992 56.5,72C 57.3279,71.0853 58.3279,70.4186 59.5,70C 58.7476,69.3292 58.4142,68.4959 58.5,67.5 Z"/></g>
<g><path style="opacity:1" fill="#dbbc2c" d="M 32.5,67.5 C 34.0843,68.3818 35.751,69.2152 37.5,70C 36.7734,71.3988 36.2734,72.8988 36,74.5C 34.8869,73.2889 33.7202,73.2889 32.5,74.5C 31.7717,72.8068 30.7717,71.3068 29.5,70C 31.1193,69.7645 32.1193,68.9311 32.5,67.5 Z"/></g>
<g><path style="opacity:1" fill="#caaf39" d="M 46.5,70.5 C 48.0481,70.8212 48.7148,71.8212 48.5,73.5C 51.7973,73.3287 52.1306,73.9954 49.5,75.5C 49.8333,76.1667 50.1667,76.8333 50.5,77.5C 48.5,77.5 46.5,77.5 44.5,77.5C 45.8754,75.8366 45.542,74.5032 43.5,73.5C 44.9935,72.8589 45.9935,71.8589 46.5,70.5 Z"/></g>
</svg>
