<?xml version="1.0" encoding="UTF-8"?>
<!DOCTYPE svg PUBLIC "-//W3C//DTD SVG 1.1//EN" "http://www.w3.org/Graphics/SVG/1.1/DTD/svg11.dtd">
<svg xmlns="http://www.w3.org/2000/svg" version="1.1" width="96px" height="96px" style="shape-rendering:geometricPrecision; text-rendering:geometricPrecision; image-rendering:optimizeQuality; fill-rule:evenodd; clip-rule:evenodd" xmlns:xlink="http://www.w3.org/1999/xlink">
<g><path style="opacity:0.991" fill="#f1f3f6" d="M 37.5,-0.5 C 44.1667,-0.5 50.8333,-0.5 57.5,-0.5C 77.1667,5.16667 89.8333,17.8333 95.5,37.5C 95.5,44.1667 95.5,50.8333 95.5,57.5C 89.8333,77.1667 77.1667,89.8333 57.5,95.5C 50.8333,95.5 44.1667,95.5 37.5,95.5C 17.8333,89.8333 5.16667,77.1667 -0.5,57.5C -0.5,50.8333 -0.5,44.1667 -0.5,37.5C 5.16667,17.8333 17.8333,5.16667 37.5,-0.5 Z"/></g>
<g><path style="opacity:1" fill="#2c2d2d" d="M 69.5,47.5 C 62.2609,45.086 55.2609,42.086 48.5,38.5C 48.8005,30.4144 48.4672,22.4144 47.5,14.5C 48.3285,13.6676 49.1618,14.001 50,15.5C 56.2601,26.3612 62.7601,37.0278 69.5,47.5 Z"/></g>
<g><path style="opacity:1" fill="#808182" d="M 47.5,14.5 C 48.4672,22.4144 48.8005,30.4144 48.5,38.5C 41.5795,41.7965 34.5795,44.7965 27.5,47.5C 33.9186,36.3257 40.5853,25.3257 47.5,14.5 Z"/></g>
<g><path style="opacity:1" fill="#323333" d="M 48.5,38.5 C 48.1755,45.6866 48.5088,52.6866 49.5,59.5C 49.44,60.0431 49.1067,60.3764 48.5,60.5C 40.9329,56.8932 33.9329,52.5599 27.5,47.5C 34.5795,44.7965 41.5795,41.7965 48.5,38.5 Z"/></g>
<g><path style="opacity:1" fill="#121313" d="M 48.5,38.5 C 55.2609,42.086 62.2609,45.086 69.5,47.5C 63.1728,51.9998 56.5062,55.9998 49.5,59.5C 48.5088,52.6866 48.1755,45.6866 48.5,38.5 Z"/></g>
<g><path style="opacity:1" fill="#2b2c2c" d="M 49.5,80.5 C 48.5119,75.3595 48.1786,70.0262 48.5,64.5C 55.1605,60.673 61.8272,57.173 68.5,54C 62.2798,62.9508 55.9465,71.7841 49.5,80.5 Z"/></g>
<g><path style="opacity:1" fill="#7e7e7f" d="M 48.5,64.5 C 48.1786,70.0262 48.5119,75.3595 49.5,80.5C 48.8106,81.7736 47.9772,81.7736 47,80.5C 40.5518,71.051 33.7185,61.8844 26.5,53C 33.8662,56.5188 41.1995,60.3521 48.5,64.5 Z"/></g>
</svg>
