<?xml version="1.0" encoding="UTF-8"?>
<!DOCTYPE svg PUBLIC "-//W3C//DTD SVG 1.1//EN" "http://www.w3.org/Graphics/SVG/1.1/DTD/svg11.dtd">
<svg xmlns="http://www.w3.org/2000/svg" version="1.1" width="96px" height="96px" style="shape-rendering:geometricPrecision; text-rendering:geometricPrecision; image-rendering:optimizeQuality; fill-rule:evenodd; clip-rule:evenodd" xmlns:xlink="http://www.w3.org/1999/xlink">
<g><path style="opacity:1" fill="#3389c5" d="M 45.5,-0.5 C 46.5,-0.5 47.5,-0.5 48.5,-0.5C 59.0003,5.58242 69.3337,11.9158 79.5,18.5C 68.6633,25.086 57.6633,31.4194 46.5,37.5C 36.3579,31.2592 26.0246,25.2592 15.5,19.5C 14.7025,19.0431 14.3691,18.3764 14.5,17.5C 25.0325,11.7374 35.3659,5.73744 45.5,-0.5 Z"/></g>
<g><path style="opacity:1" fill="#054f87" d="M 14.5,17.5 C 14.3691,18.3764 14.7025,19.0431 15.5,19.5C 26.0246,25.2592 36.3579,31.2592 46.5,37.5C 46.5,41.5 46.5,45.5 46.5,49.5C 41.8333,47.1667 37.1667,44.8333 32.5,42.5C 31.3406,40.7497 29.674,39.7497 27.5,39.5C 23.167,36.331 18.5003,33.6643 13.5,31.5C 13.1805,26.6367 13.5139,21.97 14.5,17.5 Z"/></g>
<g><path style="opacity:0.999" fill="#066ab5" d="M 79.5,18.5 C 80.4849,22.6344 80.8182,26.9677 80.5,31.5C 79.1667,31.8333 77.8333,32.1667 76.5,32.5C 74.4004,32.5228 72.5671,31.8561 71,30.5C 64.1997,32.5095 58.6997,36.1762 54.5,41.5C 54.634,43.2915 54.3007,44.9582 53.5,46.5C 51.5168,47.4706 49.5168,48.4706 47.5,49.5C 47.1667,49.5 46.8333,49.5 46.5,49.5C 46.5,45.5 46.5,41.5 46.5,37.5C 57.6633,31.4194 68.6633,25.086 79.5,18.5 Z"/></g>
<g><path style="opacity:1" fill="#3389c5" d="M 76.5,32.5 C 77.2623,34.2624 78.5956,35.2624 80.5,35.5C 81.9931,36.3121 82.6598,37.6455 82.5,39.5C 82.4805,40.7261 82.1471,41.7261 81.5,42.5C 81.5,40.8333 81.5,39.1667 81.5,37.5C 74.8586,38.8207 69.5252,42.154 65.5,47.5C 61.9934,45.246 58.3267,43.246 54.5,41.5C 58.6997,36.1762 64.1997,32.5095 71,30.5C 72.5671,31.8561 74.4004,32.5228 76.5,32.5 Z"/></g>
<g><path style="opacity:1" fill="#6f4e2c" d="M 13.5,31.5 C 18.5003,33.6643 23.167,36.331 27.5,39.5C 27.5,39.8333 27.5,40.1667 27.5,40.5C 26.7213,47.0992 25.7213,53.7659 24.5,60.5C 24.1667,60.5 23.8333,60.5 23.5,60.5C 20.5063,58.0002 17.173,56.0002 13.5,54.5C 13.5,46.8333 13.5,39.1667 13.5,31.5 Z"/></g>
<g><path style="opacity:0.937" fill="#a37238" d="M 80.5,31.5 C 80.5,32.8333 80.5,34.1667 80.5,35.5C 78.5956,35.2624 77.2623,34.2624 76.5,32.5C 77.8333,32.1667 79.1667,31.8333 80.5,31.5 Z"/></g>
<g><path style="opacity:1" fill="#1369b5" d="M 81.5,42.5 C 80.8333,42.5 80.5,42.8333 80.5,43.5C 78.7085,43.366 77.0418,43.6993 75.5,44.5C 74.1283,45.5116 72.795,46.5116 71.5,47.5C 69.5956,47.7376 68.2623,48.7376 67.5,50.5C 67.1667,50.5 66.8333,50.5 66.5,50.5C 65.596,49.791 65.2627,48.791 65.5,47.5C 69.5252,42.154 74.8586,38.8207 81.5,37.5C 81.5,39.1667 81.5,40.8333 81.5,42.5 Z"/></g>
<g><path style="opacity:1" fill="#6e4d2c" d="M 32.5,42.5 C 37.1667,44.8333 41.8333,47.1667 46.5,49.5C 46.8333,49.5 47.1667,49.5 47.5,49.5C 46.1667,55.8333 46.1667,62.1667 47.5,68.5C 46.6715,69.3324 45.8382,68.999 45,67.5C 41.3799,62.2114 37.3799,57.2114 33,52.5C 32.5017,49.1832 32.335,45.8499 32.5,42.5 Z"/></g>
<g><path style="opacity:1" fill="#114e86" d="M 54.5,41.5 C 58.3267,43.246 61.9934,45.246 65.5,47.5C 65.2627,48.791 65.596,49.791 66.5,50.5C 65.4324,51.4345 64.099,51.7678 62.5,51.5C 61.3406,49.7497 59.674,48.7497 57.5,48.5C 56.4863,47.3263 55.153,46.6596 53.5,46.5C 54.3007,44.9582 54.634,43.2915 54.5,41.5 Z"/></g>
<g><path style="opacity:1" fill="#462e36" d="M 75.5,44.5 C 76.1089,47.8784 74.7756,49.8784 71.5,50.5C 71.5,49.5 71.5,48.5 71.5,47.5C 72.795,46.5116 74.1283,45.5116 75.5,44.5 Z"/></g>
<g><path style="opacity:1" fill="#9b6e3f" d="M 80.5,43.5 C 80.5,45.5 80.5,47.5 80.5,49.5C 69.6358,56.0978 58.6358,62.4311 47.5,68.5C 46.1667,62.1667 46.1667,55.8333 47.5,49.5C 49.5168,48.4706 51.5168,47.4706 53.5,46.5C 55.153,46.6596 56.4863,47.3263 57.5,48.5C 55.0062,50.0091 54.0062,52.3424 54.5,55.5C 53.6587,60.5091 54.9921,61.5091 58.5,58.5C 61.5517,57.2233 62.8851,54.89 62.5,51.5C 64.099,51.7678 65.4324,51.4345 66.5,50.5C 66.8333,50.5 67.1667,50.5 67.5,50.5C 67.3691,51.3764 67.7025,52.0431 68.5,52.5C 69.7387,52.0576 70.7387,51.3909 71.5,50.5C 74.7756,49.8784 76.1089,47.8784 75.5,44.5C 77.0418,43.6993 78.7085,43.366 80.5,43.5 Z"/></g>
<g><path style="opacity:1" fill="#f6f6f6" d="M 71.5,47.5 C 71.5,48.5 71.5,49.5 71.5,50.5C 70.7387,51.3909 69.7387,52.0576 68.5,52.5C 67.7025,52.0431 67.3691,51.3764 67.5,50.5C 68.2623,48.7376 69.5956,47.7376 71.5,47.5 Z"/></g>
<g><path style="opacity:1" fill="#f9f8f8" d="M 57.5,48.5 C 59.674,48.7497 61.3406,49.7497 62.5,51.5C 59.0132,52.4446 57.6799,54.7779 58.5,58.5C 54.9921,61.5091 53.6587,60.5091 54.5,55.5C 54.0062,52.3424 55.0062,50.0091 57.5,48.5 Z"/></g>
<g><path style="opacity:1" fill="#874714" d="M 27.5,40.5 C 27.811,41.4778 28.4777,42.1445 29.5,42.5C 30.1246,46.9072 30.958,51.2406 32,55.5C 36.6991,61.0286 41.5324,66.362 46.5,71.5C 46.5,72.8333 46.5,74.1667 46.5,75.5C 44.3131,74.242 41.9798,73.242 39.5,72.5C 35.238,69.0256 30.5713,66.0256 25.5,63.5C 24.6143,62.675 24.281,61.675 24.5,60.5C 25.7213,53.7659 26.7213,47.0992 27.5,40.5 Z"/></g>
<g><path style="opacity:1" fill="#dd7723" d="M 81.5,51.5 C 82.767,54.2165 82.4337,56.8832 80.5,59.5C 75.5255,63.8078 70.8588,68.4745 66.5,73.5C 60.0492,74.6199 53.3825,75.6199 46.5,76.5C 46.5,76.1667 46.5,75.8333 46.5,75.5C 46.5,74.1667 46.5,72.8333 46.5,71.5C 58.6093,65.5778 70.2759,58.9111 81.5,51.5 Z"/></g>
<g><path style="opacity:1" fill="#f68625" d="M 27.5,39.5 C 29.674,39.7497 31.3406,40.7497 32.5,42.5C 32.335,45.8499 32.5017,49.1832 33,52.5C 37.3799,57.2114 41.3799,62.2114 45,67.5C 45.8382,68.999 46.6715,69.3324 47.5,68.5C 58.6358,62.4311 69.6358,56.0978 80.5,49.5C 80.8333,50.1667 81.1667,50.8333 81.5,51.5C 70.2759,58.9111 58.6093,65.5778 46.5,71.5C 41.5324,66.362 36.6991,61.0286 32,55.5C 30.958,51.2406 30.1246,46.9072 29.5,42.5C 28.4777,42.1445 27.811,41.4778 27.5,40.5C 27.5,40.1667 27.5,39.8333 27.5,39.5 Z"/></g>
<g><path style="opacity:1" fill="#453039" d="M 62.5,51.5 C 62.8851,54.89 61.5517,57.2233 58.5,58.5C 57.6799,54.7779 59.0132,52.4446 62.5,51.5 Z"/></g>
<g><path style="opacity:1" fill="#0f5085" d="M 13.5,54.5 C 17.173,56.0002 20.5063,58.0002 23.5,60.5C 20.4502,62.6916 17.1168,64.3583 13.5,65.5C 13.5,61.8333 13.5,58.1667 13.5,54.5 Z"/></g>
<g><path style="opacity:1" fill="#3589c5" d="M 23.5,60.5 C 23.8333,60.5 24.1667,60.5 24.5,60.5C 24.281,61.675 24.6143,62.675 25.5,63.5C 30.5713,66.0256 35.238,69.0256 39.5,72.5C 36.4451,73.5236 33.4451,74.8569 30.5,76.5C 24.2761,73.8964 18.6094,70.5631 13.5,66.5C 13.5,66.1667 13.5,65.8333 13.5,65.5C 17.1168,64.3583 20.4502,62.6916 23.5,60.5 Z"/></g>
<g><path style="opacity:1" fill="#7c5630" d="M 15.5,74.5 C 20.5928,76.5453 25.5928,78.8786 30.5,81.5C 32.4939,80.5108 34.4939,79.5108 36.5,78.5C 37.5735,79.2506 37.7401,80.2506 37,81.5C 35.0077,82.3281 33.5077,83.6614 32.5,85.5C 30.6336,86.0138 28.8003,86.6805 27,87.5C 23.2792,86.0566 19.7792,84.2232 16.5,82C 15.565,79.6194 15.2317,77.1194 15.5,74.5 Z"/></g>
<g><path style="opacity:1" fill="#0d5794" d="M 13.5,66.5 C 18.6094,70.5631 24.2761,73.8964 30.5,76.5C 33.4451,74.8569 36.4451,73.5236 39.5,72.5C 41.9798,73.242 44.3131,74.242 46.5,75.5C 46.5,75.8333 46.5,76.1667 46.5,76.5C 47.7862,79.3351 47.7862,82.1684 46.5,85C 47.0944,85.4643 47.7611,85.631 48.5,85.5C 45.1229,85.5891 41.9562,84.2558 39,81.5C 38.7811,80.062 38.2811,78.7287 37.5,77.5C 36.8933,77.6236 36.56,77.9569 36.5,78.5C 34.4939,79.5108 32.4939,80.5108 30.5,81.5C 25.5928,78.8786 20.5928,76.5453 15.5,74.5C 13.7705,73.3593 12.7705,71.6926 12.5,69.5C 12.5195,68.2739 12.8529,67.2739 13.5,66.5 Z"/></g>
<g><path style="opacity:1" fill="#196ab6" d="M 80.5,59.5 C 80.6641,62.1873 80.4974,64.854 80,67.5C 79.6174,68.056 79.1174,68.3893 78.5,68.5C 68.5273,74.1547 58.5273,79.8214 48.5,85.5C 47.7611,85.631 47.0944,85.4643 46.5,85C 47.7862,82.1684 47.7862,79.3351 46.5,76.5C 53.3825,75.6199 60.0492,74.6199 66.5,73.5C 70.8588,68.4745 75.5255,63.8078 80.5,59.5 Z"/></g>
<g><path style="opacity:0.999" fill="#381722" d="M 78.5,68.5 C 80.4614,71.8415 80.9614,75.5081 80,79.5C 70.4176,83.7022 61.251,89.0356 52.5,95.5C 51.5,95.5 50.5,95.5 49.5,95.5C 44.0334,91.9294 38.3668,88.5961 32.5,85.5C 33.5077,83.6614 35.0077,82.3281 37,81.5C 37.7401,80.2506 37.5735,79.2506 36.5,78.5C 36.56,77.9569 36.8933,77.6236 37.5,77.5C 38.2811,78.7287 38.7811,80.062 39,81.5C 41.9562,84.2558 45.1229,85.5891 48.5,85.5C 58.5273,79.8214 68.5273,74.1547 78.5,68.5 Z"/></g>
</svg>
