<?xml version="1.0" encoding="UTF-8"?>
<!DOCTYPE svg PUBLIC "-//W3C//DTD SVG 1.1//EN" "http://www.w3.org/Graphics/SVG/1.1/DTD/svg11.dtd">
<svg xmlns="http://www.w3.org/2000/svg" version="1.1" width="96px" height="96px" style="shape-rendering:geometricPrecision; text-rendering:geometricPrecision; image-rendering:optimizeQuality; fill-rule:evenodd; clip-rule:evenodd" xmlns:xlink="http://www.w3.org/1999/xlink">
<g><path style="opacity:0.583" fill="#fefc52" d="M 55.5,14.5 C 54.503,33.326 54.1697,52.326 54.5,71.5C 53.8333,71.5 53.5,71.8333 53.5,72.5C 52.5036,56.3419 52.1702,40.0085 52.5,23.5C 52.5,20.5 52.5,17.5 52.5,14.5C 52.1667,13.1667 51.8333,13.1667 51.5,14.5C 50.5233,17.2869 50.19,20.2869 50.5,23.5C 49.8333,23.1667 49.1667,22.8333 48.5,22.5C 48.8064,19.6146 48.4731,16.9479 47.5,14.5C 47.1667,13.1667 46.8333,13.1667 46.5,14.5C 46.5,17.5 46.5,20.5 46.5,23.5C 46.5,39.8333 46.5,56.1667 46.5,72.5C 45.8333,72.5 45.1667,72.5 44.5,72.5C 44.8303,52.9928 44.497,33.6595 43.5,14.5C 43.5,11.5 43.5,8.5 43.5,5.5C 47.3854,5.62786 51.0521,5.79453 54.5,6C 55.4438,8.71914 55.7771,11.5525 55.5,14.5 Z"/></g>
<g><path style="opacity:0.559" fill="#feef62" d="M 34.5,16.5 C 34.8301,34.3412 34.4967,52.0079 33.5,69.5C 33.1667,69.5 32.8333,69.5 32.5,69.5C 31.5182,55.5787 31.1849,41.5787 31.5,27.5C 31.5,24.5 31.5,21.5 31.5,18.5C 31.1667,10.5 30.8333,10.5 30.5,18.5C 30.1667,18.5 29.8333,18.5 29.5,18.5C 28.7784,18.9175 28.2784,19.5842 28,20.5C 25.8215,19.1602 25.3215,19.4935 26.5,21.5C 25.5206,24.6248 25.1872,27.9581 25.5,31.5C 25.5,42.1667 25.5,52.8333 25.5,63.5C 24.8333,63.1667 24.1667,62.8333 23.5,62.5C 23.5,62.1667 23.5,61.8333 23.5,61.5C 23.8284,49.3217 23.4951,37.3217 22.5,25.5C 22.6602,23.8008 22.4935,22.1341 22,20.5C 21.5045,22.4727 21.3379,24.4727 21.5,26.5C 21.5,29.5 21.5,32.5 21.5,35.5C 21.8257,43.6841 21.4924,51.6841 20.5,59.5C 20.6716,58.5084 20.3382,57.8417 19.5,57.5C 18.5073,49.3501 18.1739,41.0168 18.5,32.5C 18.1667,27.1667 17.8333,27.1667 17.5,32.5C 17.8235,39.0221 17.4902,45.3554 16.5,51.5C 12.7389,43.6063 12.5723,35.6063 16,27.5C 16.6667,26.1667 17.3333,26.1667 18,27.5C 18.3333,25.5 18.6667,23.5 19,21.5C 22.4608,16.5142 27.2941,12.1808 33.5,8.5C 34.48,11.0865 34.8134,13.7531 34.5,16.5 Z"/></g>
<g><path style="opacity:0.612" fill="#fef161" d="M 78.5,52.5 C 77.5184,49.0381 77.185,45.3714 77.5,41.5C 77.5,38.5 77.5,35.5 77.5,32.5C 77.5393,30.7761 77.206,30.4427 76.5,31.5C 75.5073,39.6499 75.1739,47.9832 75.5,56.5C 75.5,56.8333 75.5,57.1667 75.5,57.5C 74.8333,58.1667 74.1667,58.8333 73.5,59.5C 73.5,51.5 73.5,43.5 73.5,35.5C 74.069,31.6707 73.4023,28.3373 71.5,25.5C 71.1358,23.555 70.4692,22.555 69.5,22.5C 68.8333,22.5 68.5,22.1667 68.5,21.5C 68.1667,13.5 67.8333,13.5 67.5,21.5C 67.5,24.5 67.5,27.5 67.5,30.5C 67.8284,42.6783 67.4951,54.6783 66.5,66.5C 65.8333,66.5 65.5,66.8333 65.5,67.5C 64.5036,51.3419 64.1702,35.0085 64.5,18.5C 64.1924,16.076 64.5258,13.7427 65.5,11.5C 79.046,20.6432 83.3794,34.3099 78.5,52.5 Z"/></g>
<g><path style="opacity:1" fill="#fffe47" d="M 48.5,22.5 C 49.1667,22.8333 49.8333,23.1667 50.5,23.5C 50.5,39.8333 50.5,56.1667 50.5,72.5C 49.8333,72.5 49.1667,72.5 48.5,72.5C 48.5,55.8333 48.5,39.1667 48.5,22.5 Z"/></g>
<g><path style="opacity:1" fill="#eb5e87" d="M 26.5,21.5 C 27.4767,24.2869 27.81,27.2869 27.5,30.5C 26.8333,30.8333 26.1667,31.1667 25.5,31.5C 25.1872,27.9581 25.5206,24.6248 26.5,21.5 Z"/></g>
<g><path style="opacity:1" fill="#fde862" d="M 42.5,14.5 C 42.8303,34.0072 42.497,53.3405 41.5,72.5C 41.5,71.8333 41.1667,71.5 40.5,71.5C 39.5031,53.0075 39.1698,34.3408 39.5,15.5C 39.3354,12.4816 39.502,9.48162 40,6.5C 40.414,6.04265 40.914,5.70931 41.5,5.5C 42.4841,8.42814 42.8174,11.4281 42.5,14.5 Z"/></g>
<g><path style="opacity:1" fill="#ed76c5" d="M 46.5,14.5 C 46.8333,14.5 47.1667,14.5 47.5,14.5C 48.4731,16.9479 48.8064,19.6146 48.5,22.5C 48.5,39.1667 48.5,55.8333 48.5,72.5C 47.8333,56.1667 47.1667,39.8333 46.5,23.5C 46.5,20.5 46.5,17.5 46.5,14.5 Z"/></g>
<g><path style="opacity:1" fill="#ed73c6" d="M 51.5,14.5 C 51.8333,14.5 52.1667,14.5 52.5,14.5C 52.5,17.5 52.5,20.5 52.5,23.5C 51.8333,39.8333 51.1667,56.1667 50.5,72.5C 50.5,56.1667 50.5,39.8333 50.5,23.5C 50.19,20.2869 50.5233,17.2869 51.5,14.5 Z"/></g>
<g><path style="opacity:1" fill="#f08fab" d="M 55.5,14.5 C 55.5,15.1667 55.8333,15.5 56.5,15.5C 56.5,18.5 56.5,21.5 56.5,24.5C 55.8333,40.1667 55.1667,55.8333 54.5,71.5C 54.1697,52.326 54.503,33.326 55.5,14.5 Z"/></g>
<g><path style="opacity:1" fill="#fde862" d="M 59.5,16.5 C 59.8301,34.6744 59.4968,52.6744 58.5,70.5C 57.8333,70.5 57.5,70.8333 57.5,71.5C 56.5037,56.0089 56.1704,40.3422 56.5,24.5C 56.5,21.5 56.5,18.5 56.5,15.5C 56.5,12.8333 56.5,10.1667 56.5,7.5C 57.5,7.5 58.5,7.5 59.5,7.5C 59.5,10.5 59.5,13.5 59.5,16.5 Z"/></g>
<g><path style="opacity:1" fill="#fce861" d="M 38.5,15.5 C 38.8302,34.3408 38.4969,53.0075 37.5,71.5C 37.5,70.8333 37.1667,70.5 36.5,70.5C 35.5032,52.6744 35.1699,34.6744 35.5,16.5C 35.5,13.5 35.5,10.5 35.5,7.5C 36.5,7.5 37.5,7.5 38.5,7.5C 38.5,10.1667 38.5,12.8333 38.5,15.5 Z"/></g>
<g><path style="opacity:1" fill="#ef85b6" d="M 29.5,18.5 C 29.8333,18.5 30.1667,18.5 30.5,18.5C 30.8333,18.5 31.1667,18.5 31.5,18.5C 31.5,21.5 31.5,24.5 31.5,27.5C 30.8333,40.5 30.1667,53.5 29.5,66.5C 29.5,50.5 29.5,34.5 29.5,18.5 Z"/></g>
<g><path style="opacity:1" fill="#eb5f85" d="M 71.5,25.5 C 73.4023,28.3373 74.069,31.6707 73.5,35.5C 72.8333,35.1667 72.1667,34.8333 71.5,34.5C 71.5,31.5 71.5,28.5 71.5,25.5 Z"/></g>
<g><path style="opacity:1" fill="#fdea60" d="M 63.5,18.5 C 63.8298,35.3417 63.4965,52.0084 62.5,68.5C 61.8333,68.5 61.5,68.8333 61.5,69.5C 60.5033,52.0079 60.1699,34.3412 60.5,16.5C 60.1866,13.7531 60.52,11.0865 61.5,8.5C 61.8333,8.66667 62.1667,8.83333 62.5,9C 63.4505,12.0567 63.7839,15.2234 63.5,18.5 Z"/></g>
<g><path style="opacity:1" fill="#fefe4f" d="M 29.5,18.5 C 29.5,34.5 29.5,50.5 29.5,66.5C 28.8333,66.5 28.1667,66.5 27.5,66.5C 27.5,54.5 27.5,42.5 27.5,30.5C 27.81,27.2869 27.4767,24.2869 26.5,21.5C 25.3215,19.4935 25.8215,19.1602 28,20.5C 28.2784,19.5842 28.7784,18.9175 29.5,18.5 Z"/></g>
<g><path style="opacity:1" fill="#ef86b3" d="M 67.5,21.5 C 67.8333,21.5 68.1667,21.5 68.5,21.5C 68.5,22.1667 68.8333,22.5 69.5,22.5C 69.5,36.1667 69.5,49.8333 69.5,63.5C 68.8333,52.5 68.1667,41.5 67.5,30.5C 67.5,27.5 67.5,24.5 67.5,21.5 Z"/></g>
<g><path style="opacity:1" fill="#e967eb" d="M 27.5,30.5 C 27.5,42.5 27.5,54.5 27.5,66.5C 27.219,71.5649 27.5524,76.5649 28.5,81.5C 27.7261,82.7112 26.8928,82.7112 26,81.5C 25.5005,75.5092 25.3338,69.5092 25.5,63.5C 25.5,52.8333 25.5,42.1667 25.5,31.5C 26.1667,31.1667 26.8333,30.8333 27.5,30.5 Z"/></g>
<g><path style="opacity:1" fill="#fefe4d" d="M 71.5,25.5 C 71.5,28.5 71.5,31.5 71.5,34.5C 71.5,43.8333 71.5,53.1667 71.5,62.5C 70.8333,62.8333 70.1667,63.1667 69.5,63.5C 69.5,49.8333 69.5,36.1667 69.5,22.5C 70.4692,22.555 71.1358,23.555 71.5,25.5 Z"/></g>
<g><path style="opacity:1" fill="#ee7cb2" d="M 22.5,25.5 C 23.4951,37.3217 23.8284,49.3217 23.5,61.5C 22.8333,52.8333 22.1667,44.1667 21.5,35.5C 21.5,32.5 21.5,29.5 21.5,26.5C 22.1667,26.5 22.5,26.1667 22.5,25.5 Z"/></g>
<g><path style="opacity:1" fill="#e966ec" d="M 71.5,34.5 C 72.1667,34.8333 72.8333,35.1667 73.5,35.5C 73.5,43.5 73.5,51.5 73.5,59.5C 73.6662,65.5092 73.4995,71.5092 73,77.5C 72.1072,78.7112 71.2739,78.7112 70.5,77.5C 71.4476,72.5649 71.781,67.5649 71.5,62.5C 71.5,53.1667 71.5,43.8333 71.5,34.5 Z"/></g>
<g><path style="opacity:1" fill="#ee7cab" d="M 76.5,31.5 C 76.5,32.1667 76.8333,32.5 77.5,32.5C 77.5,35.5 77.5,38.5 77.5,41.5C 76.8333,46.5 76.1667,51.5 75.5,56.5C 75.1739,47.9832 75.5073,39.6499 76.5,31.5 Z"/></g>
<g><path style="opacity:0.555" fill="#e75af7" d="M 77.5,41.5 C 77.185,45.3714 77.5184,49.0381 78.5,52.5C 78.7717,58.7141 78.4383,64.8808 77.5,71C 77.1667,71.5 76.8333,72 76.5,72.5C 75.5059,67.544 75.1725,62.544 75.5,57.5C 75.5,57.1667 75.5,56.8333 75.5,56.5C 76.1667,51.5 76.8333,46.5 77.5,41.5 Z"/></g>
<g><path style="opacity:0.564" fill="#e856f0" d="M 17.5,32.5 C 17.8333,32.5 18.1667,32.5 18.5,32.5C 18.1739,41.0168 18.5073,49.3501 19.5,57.5C 19.8275,62.544 19.4941,67.544 18.5,72.5C 18.1667,72 17.8333,71.5 17.5,71C 16.5582,64.5465 16.2249,58.0465 16.5,51.5C 17.4902,45.3554 17.8235,39.0221 17.5,32.5 Z"/></g>
<g><path style="opacity:0.573" fill="#e759f8" d="M 21.5,35.5 C 22.1667,44.1667 22.8333,52.8333 23.5,61.5C 23.5,61.8333 23.5,62.1667 23.5,62.5C 23.8282,67.8746 23.4948,73.2079 22.5,78.5C 21.8076,77.9747 21.3076,77.3081 21,76.5C 20.5006,70.8431 20.3339,65.1764 20.5,59.5C 21.4924,51.6841 21.8257,43.6841 21.5,35.5 Z"/></g>
<g><path style="opacity:0.603" fill="#e759f8" d="M 67.5,30.5 C 68.1667,41.5 68.8333,52.5 69.5,63.5C 69.6662,69.5092 69.4995,75.5092 69,81.5C 68.586,81.9574 68.086,82.2907 67.5,82.5C 66.5052,77.2079 66.1718,71.8746 66.5,66.5C 67.4951,54.6783 67.8284,42.6783 67.5,30.5 Z"/></g>
<g><path style="opacity:0.606" fill="#e85bf8" d="M 31.5,27.5 C 31.1849,41.5787 31.5182,55.5787 32.5,69.5C 32.8282,74.8746 32.4948,80.2079 31.5,85.5C 31.1667,85.3333 30.8333,85.1667 30.5,85C 29.5236,78.9242 29.1903,72.7576 29.5,66.5C 30.1667,53.5 30.8333,40.5 31.5,27.5 Z"/></g>
<g><path style="opacity:0.567" fill="#e755f2" d="M 63.5,18.5 C 63.8333,18.5 64.1667,18.5 64.5,18.5C 64.1702,35.0085 64.5036,51.3419 65.5,67.5C 65.6661,73.1764 65.4994,78.8431 65,84.5C 64.586,84.9574 64.086,85.2907 63.5,85.5C 62.5046,79.8722 62.1712,74.2055 62.5,68.5C 63.4965,52.0084 63.8298,35.3417 63.5,18.5 Z"/></g>
<g><path style="opacity:0.58" fill="#e753f3" d="M 34.5,16.5 C 34.8333,16.5 35.1667,16.5 35.5,16.5C 35.1699,34.6744 35.5032,52.6744 36.5,70.5C 36.8288,76.2055 36.4954,81.8722 35.5,87.5C 34.914,87.2907 34.414,86.9574 34,86.5C 33.5006,80.8431 33.3339,75.1764 33.5,69.5C 34.4967,52.0079 34.8301,34.3412 34.5,16.5 Z"/></g>
<g><path style="opacity:0.6" fill="#e652f4" d="M 59.5,16.5 C 59.8333,16.5 60.1667,16.5 60.5,16.5C 60.1699,34.3412 60.5033,52.0079 61.5,69.5C 61.6661,75.1764 61.4994,80.8431 61,86.5C 60.586,86.9574 60.086,87.2907 59.5,87.5C 58.5046,81.8722 58.1712,76.2055 58.5,70.5C 59.4968,52.6744 59.8301,34.6744 59.5,16.5 Z"/></g>
<g><path style="opacity:0.592" fill="#e753f4" d="M 38.5,15.5 C 38.8333,15.5 39.1667,15.5 39.5,15.5C 39.1698,34.3408 39.5031,53.0075 40.5,71.5C 40.5,77.1667 40.5,82.8333 40.5,88.5C 39.5,88.5 38.5,88.5 37.5,88.5C 37.5,82.8333 37.5,77.1667 37.5,71.5C 38.4969,53.0075 38.8302,34.3408 38.5,15.5 Z"/></g>
<g><path style="opacity:0.6" fill="#e85cf7" d="M 46.5,23.5 C 47.1667,39.8333 47.8333,56.1667 48.5,72.5C 48.5,78.1667 48.5,83.8333 48.5,89.5C 47.5,89.5 46.5,89.5 45.5,89.5C 45.2143,83.7414 45.5476,78.0748 46.5,72.5C 46.5,56.1667 46.5,39.8333 46.5,23.5 Z"/></g>
<g><path style="opacity:0.601" fill="#e85df5" d="M 52.5,23.5 C 52.1702,40.0085 52.5036,56.3419 53.5,72.5C 53.666,77.8437 53.4994,83.1771 53,88.5C 52.586,88.9574 52.086,89.2907 51.5,89.5C 50.5046,83.8722 50.1712,78.2055 50.5,72.5C 51.1667,56.1667 51.8333,39.8333 52.5,23.5 Z"/></g>
<g><path style="opacity:0.589" fill="#e757f9" d="M 56.5,24.5 C 56.1704,40.3422 56.5037,56.0089 57.5,71.5C 57.666,76.8437 57.4994,82.1771 57,87.5C 56.586,87.9574 56.086,88.2907 55.5,88.5C 54.5046,82.8722 54.1712,77.2055 54.5,71.5C 55.1667,55.8333 55.8333,40.1667 56.5,24.5 Z"/></g>
<g><path style="opacity:0.559" fill="#eb6ae1" d="M 42.5,14.5 C 42.8333,14.5 43.1667,14.5 43.5,14.5C 44.497,33.6595 44.8303,52.9928 44.5,72.5C 44.8288,78.2055 44.4954,83.8722 43.5,89.5C 42.914,89.2907 42.414,88.9574 42,88.5C 41.5006,83.1771 41.334,77.8437 41.5,72.5C 42.497,53.3405 42.8303,34.0072 42.5,14.5 Z"/></g>
</svg>
