<?xml version="1.0" encoding="UTF-8"?>
<!DOCTYPE svg PUBLIC "-//W3C//DTD SVG 1.1//EN" "http://www.w3.org/Graphics/SVG/1.1/DTD/svg11.dtd">
<svg xmlns="http://www.w3.org/2000/svg" version="1.1" width="96px" height="96px" style="shape-rendering:geometricPrecision; text-rendering:geometricPrecision; image-rendering:optimizeQuality; fill-rule:evenodd; clip-rule:evenodd" xmlns:xlink="http://www.w3.org/1999/xlink">
<g><path style="opacity:0.988" fill="#e8dbea" d="M 85.5,19.5 C 85.2249,21.7583 84.2249,22.0916 82.5,20.5C 81.1667,21.1667 79.8333,21.8333 78.5,22.5C 78.1667,21.8333 77.8333,21.1667 77.5,20.5C 75.2003,20.562 72.8669,20.8954 70.5,21.5C 69.3527,21.1822 68.5194,20.5156 68,19.5C 67.542,22.096 68.3754,24.2627 70.5,26C 69.9056,26.4643 69.2389,26.631 68.5,26.5C 67.528,23.8684 66.1947,21.5351 64.5,19.5C 63.5,16.5 61.5,14.5 58.5,13.5C 54.5436,10.6132 50.2103,8.27985 45.5,6.5C 44.7348,7.61191 43.7348,8.27858 42.5,8.5C 41.6782,6.27209 40.3448,5.60542 38.5,6.5C 39.0402,7.7481 39.7069,8.91476 40.5,10C 37.3054,10.1805 34.3054,10.6805 31.5,11.5C 30.8333,11.5 30.5,11.8333 30.5,12.5C 28.3453,12.372 26.3453,12.872 24.5,14C 26.0581,14.21 27.3915,14.71 28.5,15.5C 26.3024,15.8751 24.3024,16.5418 22.5,17.5C 19.0787,17.5176 16.4121,18.851 14.5,21.5C 13.5084,21.3284 12.8417,21.6618 12.5,22.5C 8.30249,25.4371 8.63582,26.6038 13.5,26C 11.1088,29.2832 9.10878,32.7832 7.5,36.5C 7.35224,34.0661 7.18557,31.3995 7,28.5C 6.08529,29.3279 5.41862,30.3279 5,31.5C 4.53566,30.9056 4.36899,30.2389 4.5,29.5C 14.5949,7.27784 31.9282,-2.22216 56.5,1C 68.6638,3.34441 78.3304,9.51108 85.5,19.5 Z"/></g>
<g><path style="opacity:1" fill="#4f4766" d="M 42.5,8.5 C 41.3552,9.79266 41.6885,10.9593 43.5,12C 39.5406,11.8418 35.5406,11.6751 31.5,11.5C 34.3054,10.6805 37.3054,10.1805 40.5,10C 39.7069,8.91476 39.0402,7.7481 38.5,6.5C 40.3448,5.60542 41.6782,6.27209 42.5,8.5 Z"/></g>
<g><path style="opacity:1" fill="#605971" d="M 58.5,13.5 C 54.8442,12.0023 51.1775,10.8356 47.5,10C 49.6838,11.3634 51.6838,12.8634 53.5,14.5C 48.8719,14.1933 45.2052,12.1933 42.5,8.5C 43.7348,8.27858 44.7348,7.61191 45.5,6.5C 50.2103,8.27985 54.5436,10.6132 58.5,13.5 Z"/></g>
<g><path style="opacity:1" fill="#dd48af" d="M 58.5,13.5 C 60.1667,15.8333 62.1667,17.8333 64.5,19.5C 64.631,20.2389 64.4643,20.9056 64,21.5C 61.3526,17.652 57.8526,15.3186 53.5,14.5C 51.6838,12.8634 49.6838,11.3634 47.5,10C 51.1775,10.8356 54.8442,12.0023 58.5,13.5 Z"/></g>
<g><path style="opacity:1" fill="#171534" d="M 30.5,12.5 C 32.2646,13.4614 34.2646,13.7947 36.5,13.5C 33.997,14.3705 31.3303,15.0372 28.5,15.5C 27.3915,14.71 26.0581,14.21 24.5,14C 26.3453,12.872 28.3453,12.372 30.5,12.5 Z"/></g>
<g><path style="opacity:1" fill="#b02e9b" d="M 42.5,8.5 C 45.2052,12.1933 48.8719,14.1933 53.5,14.5C 55.5,17.1667 57.8333,19.5 60.5,21.5C 60.5299,22.4972 60.0299,23.1639 59,23.5C 57.0561,22.5606 55.3894,21.2273 54,19.5C 53.5357,20.0944 53.369,20.7611 53.5,21.5C 48.4933,17.4974 42.8266,14.8307 36.5,13.5C 34.2646,13.7947 32.2646,13.4614 30.5,12.5C 30.5,11.8333 30.8333,11.5 31.5,11.5C 35.5406,11.6751 39.5406,11.8418 43.5,12C 41.6885,10.9593 41.3552,9.79266 42.5,8.5 Z"/></g>
<g><path style="opacity:1" fill="#212a3f" d="M 58.5,13.5 C 61.5,14.5 63.5,16.5 64.5,19.5C 62.1667,17.8333 60.1667,15.8333 58.5,13.5 Z"/></g>
<g><path style="opacity:1" fill="#71583d" d="M 22.5,17.5 C 22.8333,17.5 23.1667,17.5 23.5,17.5C 22.8333,18.1667 22.1667,18.8333 21.5,19.5C 19.2543,20.4552 16.921,21.1218 14.5,21.5C 16.4121,18.851 19.0787,17.5176 22.5,17.5 Z"/></g>
<g><path style="opacity:1" fill="#5f1682" d="M 53.5,14.5 C 57.8526,15.3186 61.3526,17.652 64,21.5C 64.4643,20.9056 64.631,20.2389 64.5,19.5C 66.1947,21.5351 67.528,23.8684 68.5,26.5C 66.7162,26.1075 65.0495,25.4408 63.5,24.5C 62.8333,23.1667 61.8333,22.1667 60.5,21.5C 57.8333,19.5 55.5,17.1667 53.5,14.5 Z"/></g>
<g><path style="opacity:1" fill="#e4298e" d="M 21.5,19.5 C 22.1667,18.8333 22.8333,18.1667 23.5,17.5C 26.8175,16.7791 30.1508,16.6124 33.5,17C 29.5602,18.1564 25.5602,18.9897 21.5,19.5 Z"/></g>
<g><path style="opacity:1" fill="#8819a3" d="M 36.5,13.5 C 42.8266,14.8307 48.4933,17.4974 53.5,21.5C 55.0664,21.9763 55.3998,22.643 54.5,23.5C 51.2211,22.5272 48.2211,21.0272 45.5,19C 41.1667,18.3333 36.8333,18.3333 32.5,19C 30.5448,19.9533 28.8782,21.2866 27.5,23C 28.0944,23.4643 28.7611,23.631 29.5,23.5C 29.5,23.8333 29.5,24.1667 29.5,24.5C 28.5,25.1667 27.5,25.8333 26.5,26.5C 26.631,25.7611 26.4643,25.0944 26,24.5C 24.6244,25.7051 23.4577,27.0384 22.5,28.5C 18.6319,30.0293 15.2985,32.3626 12.5,35.5C 12.5,35.1667 12.5,34.8333 12.5,34.5C 12.8333,33.8333 13.1667,33.1667 13.5,32.5C 15.1667,31.5 16.5,30.1667 17.5,28.5C 20.1446,27.5094 22.478,26.0094 24.5,24C 22.2433,24.4371 19.91,24.9371 17.5,25.5C 19.9647,23.1633 22.9647,21.6633 26.5,21C 22.0307,20.8721 17.6974,21.7055 13.5,23.5C 12.8933,23.3764 12.56,23.0431 12.5,22.5C 12.8417,21.6618 13.5084,21.3284 14.5,21.5C 16.921,21.1218 19.2543,20.4552 21.5,19.5C 25.5602,18.9897 29.5602,18.1564 33.5,17C 30.1508,16.6124 26.8175,16.7791 23.5,17.5C 23.1667,17.5 22.8333,17.5 22.5,17.5C 24.3024,16.5418 26.3024,15.8751 28.5,15.5C 31.3303,15.0372 33.997,14.3705 36.5,13.5 Z"/></g>
<g><path style="opacity:1" fill="#c61294" d="M 35.5,20.5 C 37.1992,20.3398 38.8659,20.5065 40.5,21C 37.1297,22.5029 33.7964,24.0029 30.5,25.5C 30.5,24.8333 30.1667,24.5 29.5,24.5C 29.5,24.1667 29.5,23.8333 29.5,23.5C 30.6874,21.0246 32.6874,20.0246 35.5,20.5 Z"/></g>
<g><path style="opacity:1" fill="#810fa6" d="M 35.5,20.5 C 36.7933,19.8418 38.2933,19.5085 40,19.5C 42.0507,19.4229 43.884,19.9229 45.5,21C 37.2951,22.7665 30.2951,26.5998 24.5,32.5C 24.5,32.1667 24.5,31.8333 24.5,31.5C 26.1667,29.1667 28.1667,27.1667 30.5,25.5C 33.7964,24.0029 37.1297,22.5029 40.5,21C 38.8659,20.5065 37.1992,20.3398 35.5,20.5 Z"/></g>
<g><path style="opacity:1" fill="#282242" d="M 17.5,25.5 C 15.9731,25.427 14.9731,26.0937 14.5,27.5C 13.3263,28.5137 12.6596,29.847 12.5,31.5C 10.5839,32.6653 9.75059,34.332 10,36.5C 10.7083,35.6195 11.5416,34.9528 12.5,34.5C 12.5,34.8333 12.5,35.1667 12.5,35.5C 12.0679,36.7095 11.4013,37.7095 10.5,38.5C 8.92558,38.9371 7.75891,39.9371 7,41.5C 7.01872,39.8925 7.18539,38.2259 7.5,36.5C 9.10878,32.7832 11.1088,29.2832 13.5,26C 8.63582,26.6038 8.30249,25.4371 12.5,22.5C 12.56,23.0431 12.8933,23.3764 13.5,23.5C 17.6974,21.7055 22.0307,20.8721 26.5,21C 22.9647,21.6633 19.9647,23.1633 17.5,25.5 Z"/></g>
<g><path style="opacity:1" fill="#f07fc4" d="M 17.5,28.5 C 16.791,27.596 15.791,27.2627 14.5,27.5C 14.9731,26.0937 15.9731,25.427 17.5,25.5C 19.91,24.9371 22.2433,24.4371 24.5,24C 22.478,26.0094 20.1446,27.5094 17.5,28.5 Z"/></g>
<g><path style="opacity:1" fill="#35114b" d="M 26.5,26.5 C 25.5,27.8333 24.5,29.1667 23.5,30.5C 22.8333,31.1667 22.1667,31.8333 21.5,32.5C 21.4326,31.0413 21.7659,29.7079 22.5,28.5C 23.4577,27.0384 24.6244,25.7051 26,24.5C 26.4643,25.0944 26.631,25.7611 26.5,26.5 Z"/></g>
<g><path style="opacity:1" fill="#e2c0da" d="M 14.5,27.5 C 15.791,27.2627 16.791,27.596 17.5,28.5C 16.5,30.1667 15.1667,31.5 13.5,32.5C 13.5,31.8333 13.1667,31.5 12.5,31.5C 12.6596,29.847 13.3263,28.5137 14.5,27.5 Z"/></g>
<g><path style="opacity:1" fill="#b91fb3" d="M 53.5,25.5 C 49.8739,27.4593 46.8739,30.126 44.5,33.5C 44.6068,31.6214 44.1068,31.2881 43,32.5C 41.2138,35.7365 39.7138,39.0698 38.5,42.5C 37.8333,42.5 37.5,42.1667 37.5,41.5C 39.282,33.3908 43.9487,27.7241 51.5,24.5C 52.4164,24.5427 53.0831,24.8761 53.5,25.5 Z"/></g>
<g><path style="opacity:0.999" fill="#e7d1e7" d="M 85.5,19.5 C 92.8344,28.8241 95.8344,39.4908 94.5,51.5C 93.1805,52.9418 91.5138,53.6085 89.5,53.5C 89.719,54.675 89.3857,55.675 88.5,56.5C 87.8933,56.3764 87.56,56.0431 87.5,55.5C 88.6408,52.3601 88.8075,49.0267 88,45.5C 87.1841,44.1772 86.0174,43.5106 84.5,43.5C 78.1012,40.4347 73.4346,35.768 70.5,29.5C 69.8333,28.5 69.1667,27.5 68.5,26.5C 69.2389,26.631 69.9056,26.4643 70.5,26C 68.3754,24.2627 67.542,22.096 68,19.5C 68.5194,20.5156 69.3527,21.1822 70.5,21.5C 72.8669,20.8954 75.2003,20.562 77.5,20.5C 77.8333,21.1667 78.1667,21.8333 78.5,22.5C 79.8333,21.8333 81.1667,21.1667 82.5,20.5C 84.2249,22.0916 85.2249,21.7583 85.5,19.5 Z"/></g>
<g><path style="opacity:1" fill="#ffc964" d="M 29.5,24.5 C 30.1667,24.5 30.5,24.8333 30.5,25.5C 28.1667,27.1667 26.1667,29.1667 24.5,31.5C 23.8333,31.5 23.5,31.1667 23.5,30.5C 24.5,29.1667 25.5,27.8333 26.5,26.5C 27.5,25.8333 28.5,25.1667 29.5,24.5 Z"/></g>
<g><path style="opacity:1" fill="#d76a2b" d="M 55.5,24.5 C 58.1667,24.5 60.8333,24.5 63.5,24.5C 65.0495,25.4408 66.7162,26.1075 68.5,26.5C 69.1667,27.5 69.8333,28.5 70.5,29.5C 70.372,31.6547 70.872,33.6547 72,35.5C 75.419,38.4124 78.2524,41.7457 80.5,45.5C 80.1667,45.5 79.8333,45.5 79.5,45.5C 75.3052,44.7679 70.9719,44.7679 66.5,45.5C 63.9084,45.0638 61.5751,44.0638 59.5,42.5C 58.1515,44.6114 58.4848,46.4447 60.5,48C 63.8255,48.1719 67.1589,48.0053 70.5,47.5C 68.615,49.0532 67.615,51.0532 67.5,53.5C 65.0363,56.2155 62.8696,55.8822 61,52.5C 60.3086,54.8912 59.3086,54.8912 58,52.5C 57.7679,53.7375 57.2679,54.7375 56.5,55.5C 56.6716,54.5084 56.3382,53.8417 55.5,53.5C 54.2421,49.9642 53.4087,46.2975 53,42.5C 52.6924,43.3081 52.1924,43.9747 51.5,44.5C 50.6858,42.2338 50.1858,39.9005 50,37.5C 48.6325,39.8146 47.7991,39.8146 47.5,37.5C 48.8382,31.9911 52.1716,28.1578 57.5,26C 56.5842,25.7216 55.9175,25.2216 55.5,24.5 Z"/></g>
<g><path style="opacity:1" fill="#cee09c" d="M 12.5,31.5 C 13.1667,31.5 13.5,31.8333 13.5,32.5C 13.1667,33.1667 12.8333,33.8333 12.5,34.5C 11.5416,34.9528 10.7083,35.6195 10,36.5C 9.75059,34.332 10.5839,32.6653 12.5,31.5 Z"/></g>
<g><path style="opacity:1" fill="#2e4cbe" d="M 22.5,28.5 C 21.7659,29.7079 21.4326,31.0413 21.5,32.5C 21.0445,35.2035 20.3779,37.8702 19.5,40.5C 19.5427,41.4164 19.8761,42.0831 20.5,42.5C 20.9861,44.9517 20.9861,47.6183 20.5,50.5C 19.5269,52.9479 19.1936,55.6146 19.5,58.5C 18.8333,57.8333 18.1667,57.1667 17.5,56.5C 17.5,55.5 17.5,54.5 17.5,53.5C 17.1664,46.3097 17.6664,39.3097 19,32.5C 12.9081,37.3522 10.0748,43.6855 10.5,51.5C 8.96943,50.3256 8.96943,46.3256 10.5,39.5C 10.5,39.1667 10.5,38.8333 10.5,38.5C 11.4013,37.7095 12.0679,36.7095 12.5,35.5C 15.2985,32.3626 18.6319,30.0293 22.5,28.5 Z"/></g>
<g><path style="opacity:1" fill="#1d1345" d="M 53.5,21.5 C 53.369,20.7611 53.5357,20.0944 54,19.5C 55.3894,21.2273 57.0561,22.5606 59,23.5C 60.0299,23.1639 60.5299,22.4972 60.5,21.5C 61.8333,22.1667 62.8333,23.1667 63.5,24.5C 60.8333,24.5 58.1667,24.5 55.5,24.5C 54.8333,24.8333 54.1667,25.1667 53.5,25.5C 53.0831,24.8761 52.4164,24.5427 51.5,24.5C 43.9487,27.7241 39.282,33.3908 37.5,41.5C 35.8906,44.1489 35.0572,47.1489 35,50.5C 34.1901,54.3575 34.3567,58.0242 35.5,61.5C 35.5,62.1667 35.8333,62.5 36.5,62.5C 36.3338,68.8421 36.5005,75.1754 37,81.5C 37.3333,82.1667 37.6667,82.8333 38,83.5C 38.6667,76.8333 38.6667,70.1667 38,63.5C 37.7216,62.5842 37.2216,61.9175 36.5,61.5C 37.0256,59.7697 38.0256,58.4363 39.5,57.5C 39.334,62.8437 39.5006,68.1771 40,73.5C 41.9464,76.1388 42.9464,79.1388 43,82.5C 43.3333,82.8333 43.6667,83.1667 44,83.5C 44.1667,82.3333 44.3333,81.1667 44.5,80C 43.2095,75.4829 43.2095,70.9829 44.5,66.5C 45.3195,63.6946 45.8195,60.6946 46,57.5C 46.7955,61.3121 47.6288,64.9788 48.5,68.5C 49.6318,72.5621 50.9651,76.5621 52.5,80.5C 50.9378,82.9007 51.2712,84.9007 53.5,86.5C 53.719,87.675 53.3857,88.675 52.5,89.5C 49.8587,88.3426 47.6921,86.0093 46,82.5C 45.6401,84.6079 44.9734,86.6079 44,88.5C 43.1939,85.5544 41.8605,82.8877 40,80.5C 39.8078,82.5767 39.3078,84.5767 38.5,86.5C 37,84.1667 35.5,81.8333 34,79.5C 33.7811,80.938 33.2811,82.2713 32.5,83.5C 31.35,81.2372 30.35,78.9038 29.5,76.5C 28.1841,79.028 27.0174,79.028 26,76.5C 25.586,76.9574 25.086,77.2907 24.5,77.5C 23.7189,76.2713 23.2189,74.938 23,73.5C 22.6174,74.056 22.1174,74.3893 21.5,74.5C 21.5,73.8333 21.5,73.1667 21.5,72.5C 22.9063,72.0269 23.573,71.0269 23.5,69.5C 24.3091,71.2922 24.8091,73.2922 25,75.5C 25.8518,74.4293 26.6851,73.4293 27.5,72.5C 27.5563,75.517 27.8897,75.8503 28.5,73.5C 29.466,68.33 29.466,62.9967 28.5,57.5C 28.1667,56.1667 27.8333,54.8333 27.5,53.5C 29.2519,50.328 31.2519,47.328 33.5,44.5C 35.0075,42.8185 36.0075,40.8185 36.5,38.5C 39.146,32.0121 43.4793,26.8454 49.5,23C 47.0288,22.2937 44.6954,22.627 42.5,24C 37.789,27.9347 34.4557,32.768 32.5,38.5C 31.2719,39.3065 30.2719,40.3065 29.5,41.5C 29.5,40.8333 29.1667,40.5 28.5,40.5C 28.3284,39.5084 28.6618,38.8417 29.5,38.5C 32.1107,34.1357 35.1107,29.969 38.5,26C 26.3156,29.1947 21.3156,37.0281 23.5,49.5C 24.4025,52.3915 24.7359,55.3915 24.5,58.5C 23.1975,55.8949 21.8641,53.2283 20.5,50.5C 20.9861,47.6183 20.9861,44.9517 20.5,42.5C 21.6467,39.0532 22.98,35.7199 24.5,32.5C 30.2951,26.5998 37.2951,22.7665 45.5,21C 43.884,19.9229 42.0507,19.4229 40,19.5C 38.2933,19.5085 36.7933,19.8418 35.5,20.5C 32.6874,20.0246 30.6874,21.0246 29.5,23.5C 28.7611,23.631 28.0944,23.4643 27.5,23C 28.8782,21.2866 30.5448,19.9533 32.5,19C 36.8333,18.3333 41.1667,18.3333 45.5,19C 48.2211,21.0272 51.2211,22.5272 54.5,23.5C 55.3998,22.643 55.0664,21.9763 53.5,21.5 Z"/></g>
<g><path style="opacity:1" fill="#b53fd3" d="M 29.5,38.5 C 29.5,37.8333 29.5,37.1667 29.5,36.5C 31.0192,33.9795 32.6859,31.4795 34.5,29C 29.9624,30.3859 27.2957,33.5526 26.5,38.5C 25.3024,41.4262 24.3024,44.4262 23.5,47.5C 23.5,48.1667 23.5,48.8333 23.5,49.5C 21.3156,37.0281 26.3156,29.1947 38.5,26C 35.1107,29.969 32.1107,34.1357 29.5,38.5 Z"/></g>
<g><path style="opacity:1" fill="#f97db5" d="M 29.5,36.5 C 28.5,37.1667 27.5,37.8333 26.5,38.5C 27.2957,33.5526 29.9624,30.3859 34.5,29C 32.6859,31.4795 31.0192,33.9795 29.5,36.5 Z"/></g>
<g><path style="opacity:1" fill="#c22ab9" d="M 36.5,38.5 C 37.0629,36.09 37.5629,33.7567 38,31.5C 36.4894,33.8616 34.9894,36.1949 33.5,38.5C 33.1667,38.5 32.8333,38.5 32.5,38.5C 34.4557,32.768 37.789,27.9347 42.5,24C 44.6954,22.627 47.0288,22.2937 49.5,23C 43.4793,26.8454 39.146,32.0121 36.5,38.5 Z"/></g>
<g><path style="opacity:1" fill="#382c39" d="M 60.5,32.5 C 62.5273,32.3379 64.5273,32.5045 66.5,33C 68.4606,35.9628 70.794,38.6294 73.5,41C 69.865,40.266 66.1983,39.266 62.5,38C 63.1667,37.6667 63.8333,37.3333 64.5,37C 62.249,36.2525 60.9156,34.7525 60.5,32.5 Z"/></g>
<g><path style="opacity:1" fill="#d8a8e6" d="M 36.5,38.5 C 36.0075,40.8185 35.0075,42.8185 33.5,44.5C 33.631,43.7611 33.4643,43.0944 33,42.5C 32.2917,43.3805 31.4584,44.0472 30.5,44.5C 31.4706,42.5168 32.4706,40.5168 33.5,38.5C 34.9894,36.1949 36.4894,33.8616 38,31.5C 37.5629,33.7567 37.0629,36.09 36.5,38.5 Z"/></g>
<g><path style="opacity:1" fill="#150f2e" d="M 55.5,24.5 C 55.9175,25.2216 56.5842,25.7216 57.5,26C 52.1716,28.1578 48.8382,31.9911 47.5,37.5C 47.7991,39.8146 48.6325,39.8146 50,37.5C 50.1858,39.9005 50.6858,42.2338 51.5,44.5C 52.1924,43.9747 52.6924,43.3081 53,42.5C 53.4087,46.2975 54.2421,49.9642 55.5,53.5C 53.567,51.0626 51.4003,48.7293 49,46.5C 48.2119,49.7719 48.7119,52.7719 50.5,55.5C 49.1667,55.5 48.5,56.1667 48.5,57.5C 47.6618,57.1583 47.3284,56.4916 47.5,55.5C 47.7214,52.7212 47.388,50.0545 46.5,47.5C 46.6655,43.4862 46.4988,39.4862 46,35.5C 45.6174,36.056 45.1174,36.3893 44.5,36.5C 44.5,35.5 44.5,34.5 44.5,33.5C 46.8739,30.126 49.8739,27.4593 53.5,25.5C 54.1667,25.1667 54.8333,24.8333 55.5,24.5 Z"/></g>
<g><path style="opacity:1" fill="#dfe0a2" d="M 29.5,36.5 C 29.5,37.1667 29.5,37.8333 29.5,38.5C 28.6618,38.8417 28.3284,39.5084 28.5,40.5C 27.0787,43.0094 25.4121,45.3428 23.5,47.5C 24.3024,44.4262 25.3024,41.4262 26.5,38.5C 27.5,37.8333 28.5,37.1667 29.5,36.5 Z"/></g>
<g><path style="opacity:1" fill="#da61b2" d="M 44.5,33.5 C 44.5,34.5 44.5,35.5 44.5,36.5C 42.4334,39.9268 41.1001,43.5935 40.5,47.5C 40.6621,45.4727 40.4955,43.4727 40,41.5C 39.7216,42.4158 39.2216,43.0825 38.5,43.5C 38.5,43.1667 38.5,42.8333 38.5,42.5C 39.7138,39.0698 41.2138,35.7365 43,32.5C 44.1068,31.2881 44.6068,31.6214 44.5,33.5 Z"/></g>
<g><path style="opacity:1" fill="#a8275e" d="M 23.5,30.5 C 23.5,31.1667 23.8333,31.5 24.5,31.5C 24.5,31.8333 24.5,32.1667 24.5,32.5C 22.98,35.7199 21.6467,39.0532 20.5,42.5C 19.8761,42.0831 19.5427,41.4164 19.5,40.5C 20.3779,37.8702 21.0445,35.2035 21.5,32.5C 22.1667,31.8333 22.8333,31.1667 23.5,30.5 Z"/></g>
<g><path style="opacity:1" fill="#744ce0" d="M 46.5,47.5 C 45.8968,49.6257 45.8968,51.9591 46.5,54.5C 46.1667,54.5 45.8333,54.5 45.5,54.5C 43.3468,48.6057 43.0135,42.6057 44.5,36.5C 45.1174,36.3893 45.6174,36.056 46,35.5C 46.4988,39.4862 46.6655,43.4862 46.5,47.5 Z"/></g>
<g><path style="opacity:1" fill="#e7c53c" d="M 70.5,29.5 C 73.4346,35.768 78.1012,40.4347 84.5,43.5C 85.4756,44.8149 86.4756,46.1482 87.5,47.5C 84.9721,48.1096 82.6388,47.4429 80.5,45.5C 78.2524,41.7457 75.419,38.4124 72,35.5C 70.872,33.6547 70.372,31.6547 70.5,29.5 Z"/></g>
<g><path style="opacity:1" fill="#e8a732" d="M 79.5,45.5 C 82.8283,49.1716 84.1616,53.505 83.5,58.5C 83.1667,58.5 82.8333,58.5 82.5,58.5C 82.2486,54.3083 80.7486,50.6416 78,47.5C 76.9025,48.9675 75.4025,49.8008 73.5,50C 75.5,50.8333 77.5,51.6667 79.5,52.5C 76.6598,53.1873 73.9931,53.5206 71.5,53.5C 70.5266,53.0133 69.5266,52.5133 68.5,52C 70.1667,50.6667 71.8333,49.3333 73.5,48C 72.552,47.5172 71.552,47.3505 70.5,47.5C 67.1589,48.0053 63.8255,48.1719 60.5,48C 58.4848,46.4447 58.1515,44.6114 59.5,42.5C 61.5751,44.0638 63.9084,45.0638 66.5,45.5C 70.9719,44.7679 75.3052,44.7679 79.5,45.5 Z"/></g>
<g><path style="opacity:1" fill="#a8d6ae" d="M 33.5,44.5 C 31.2519,47.328 29.2519,50.328 27.5,53.5C 27.6643,50.1826 28.6643,47.1826 30.5,44.5C 31.4584,44.0472 32.2917,43.3805 33,42.5C 33.4643,43.0944 33.631,43.7611 33.5,44.5 Z"/></g>
<g><path style="opacity:1" fill="#8e4ce2" d="M 37.5,41.5 C 37.5,42.1667 37.8333,42.5 38.5,42.5C 38.5,42.8333 38.5,43.1667 38.5,43.5C 37.8333,48.1667 37.1667,52.8333 36.5,57.5C 36.1667,58.8333 35.8333,60.1667 35.5,61.5C 34.3567,58.0242 34.1901,54.3575 35,50.5C 35.0572,47.1489 35.8906,44.1489 37.5,41.5 Z"/></g>
<g><path style="opacity:1" fill="#120e33" d="M 44.5,36.5 C 43.0135,42.6057 43.3468,48.6057 45.5,54.5C 45.6716,55.4916 45.3382,56.1583 44.5,56.5C 44.1743,53.6887 43.3409,51.022 42,48.5C 41.3918,50.0664 40.5585,51.3998 39.5,52.5C 39.2155,50.5853 39.5489,48.9187 40.5,47.5C 41.1001,43.5935 42.4334,39.9268 44.5,36.5 Z"/></g>
<g><path style="opacity:1" fill="#3aa6e8" d="M 17.5,53.5 C 16.6909,51.7078 16.1909,49.7078 16,47.5C 15.5065,49.1341 15.3398,50.8008 15.5,52.5C 14.4733,49.2819 14.3066,45.9485 15,42.5C 13.6813,44.2872 12.848,46.2872 12.5,48.5C 11.8333,49.5 11.1667,50.5 10.5,51.5C 10.0748,43.6855 12.9081,37.3522 19,32.5C 17.6664,39.3097 17.1664,46.3097 17.5,53.5 Z"/></g>
<g><path style="opacity:1" fill="#2c1a2a" d="M 70.5,47.5 C 71.552,47.3505 72.552,47.5172 73.5,48C 71.8333,49.3333 70.1667,50.6667 68.5,52C 69.5266,52.5133 70.5266,53.0133 71.5,53.5C 70.3684,54.3543 69.035,54.3543 67.5,53.5C 67.615,51.0532 68.615,49.0532 70.5,47.5 Z"/></g>
<g><path style="opacity:1" fill="#0f1331" d="M 28.5,40.5 C 29.1667,40.5 29.5,40.8333 29.5,41.5C 26.1424,47.3051 24.8091,53.6384 25.5,60.5C 25.1667,60.5 24.8333,60.5 24.5,60.5C 24.5,59.8333 24.5,59.1667 24.5,58.5C 24.7359,55.3915 24.4025,52.3915 23.5,49.5C 23.5,48.8333 23.5,48.1667 23.5,47.5C 25.4121,45.3428 27.0787,43.0094 28.5,40.5 Z"/></g>
<g><path style="opacity:1" fill="#241e3c" d="M 84.5,43.5 C 86.0174,43.5106 87.1841,44.1772 88,45.5C 88.8075,49.0267 88.6408,52.3601 87.5,55.5C 87.719,54.325 87.3857,53.325 86.5,52.5C 85.7918,54.7451 84.7918,56.7451 83.5,58.5C 84.1616,53.505 82.8283,49.1716 79.5,45.5C 79.8333,45.5 80.1667,45.5 80.5,45.5C 82.6388,47.4429 84.9721,48.1096 87.5,47.5C 86.4756,46.1482 85.4756,44.8149 84.5,43.5 Z"/></g>
<g><path style="opacity:1" fill="#292557" d="M 10.5,39.5 C 8.96943,46.3256 8.96943,50.3256 10.5,51.5C 11.1667,50.5 11.8333,49.5 12.5,48.5C 13.6641,52.0108 14.6641,55.6775 15.5,59.5C 14.065,57.4024 12.8984,55.0691 12,52.5C 11.8214,55.5535 11.3214,58.5535 10.5,61.5C 9.74917,60.624 9.24917,59.624 9,58.5C 8.33333,52.8333 8.33333,47.1667 9,41.5C 9.27842,40.5842 9.77842,39.9175 10.5,39.5 Z"/></g>
<g><path style="opacity:0.958" fill="#efd0ea" d="M 7.5,36.5 C 7.18539,38.2259 7.01872,39.8925 7,41.5C 7.75891,39.9371 8.92558,38.9371 10.5,38.5C 10.5,38.8333 10.5,39.1667 10.5,39.5C 9.77842,39.9175 9.27842,40.5842 9,41.5C 8.33333,47.1667 8.33333,52.8333 9,58.5C 9.24917,59.624 9.74917,60.624 10.5,61.5C 11.3214,58.5535 11.8214,55.5535 12,52.5C 12.8984,55.0691 14.065,57.4024 15.5,59.5C 15.9518,63.1629 16.4518,66.8296 17,70.5C 18.3811,68.3651 19.3811,66.0318 20,63.5C 20.1981,65.3817 20.6981,67.0484 21.5,68.5C 21.5,69.8333 21.5,71.1667 21.5,72.5C 21.5,73.1667 21.5,73.8333 21.5,74.5C 21.44,75.0431 21.1067,75.3764 20.5,75.5C 19.7022,73.9223 19.2022,72.2556 19,70.5C 15.9253,73.0594 12.9253,73.0594 10,70.5C 9.0494,70.8836 8.21607,71.2169 7.5,71.5C 4.09893,67.1616 1.93226,62.1616 1,56.5C 0.333333,50.5 0.333333,44.5 1,38.5C 1.50531,35.135 2.67197,32.135 4.5,29.5C 4.36899,30.2389 4.53566,30.9056 5,31.5C 5.41862,30.3279 6.08529,29.3279 7,28.5C 7.18557,31.3995 7.35224,34.0661 7.5,36.5 Z"/></g>
<g><path style="opacity:1" fill="#c6c7a9" d="M 40.5,47.5 C 39.5489,48.9187 39.2155,50.5853 39.5,52.5C 38.3127,54.0725 37.3127,55.7392 36.5,57.5C 37.1667,52.8333 37.8333,48.1667 38.5,43.5C 39.2216,43.0825 39.7216,42.4158 40,41.5C 40.4955,43.4727 40.6621,45.4727 40.5,47.5 Z"/></g>
<g><path style="opacity:1" fill="#71a6ed" d="M 46.5,47.5 C 47.388,50.0545 47.7214,52.7212 47.5,55.5C 46.8333,55.5 46.5,55.1667 46.5,54.5C 45.8968,51.9591 45.8968,49.6257 46.5,47.5 Z"/></g>
<g><path style="opacity:1" fill="#f8d449" d="M 82.5,58.5 C 82.0472,59.4584 81.3805,60.2917 80.5,61C 77.5184,61.498 74.5184,61.6646 71.5,61.5C 73.2922,60.6909 75.2922,60.1909 77.5,60C 78.3366,58.9887 78.67,57.8221 78.5,56.5C 76.1046,55.6842 73.7712,54.6842 71.5,53.5C 73.9931,53.5206 76.6598,53.1873 79.5,52.5C 77.5,51.6667 75.5,50.8333 73.5,50C 75.4025,49.8008 76.9025,48.9675 78,47.5C 80.7486,50.6416 82.2486,54.3083 82.5,58.5 Z"/></g>
<g><path style="opacity:1" fill="#99e0af" d="M 17.5,53.5 C 17.5,54.5 17.5,55.5 17.5,56.5C 17.5,57.1667 17.1667,57.5 16.5,57.5C 15.962,55.8828 15.6287,54.2161 15.5,52.5C 15.3398,50.8008 15.5065,49.1341 16,47.5C 16.1909,49.7078 16.6909,51.7078 17.5,53.5 Z"/></g>
<g><path style="opacity:1" fill="#5926c7" d="M 32.5,47.5 C 32.6328,56.3138 32.7995,65.3138 33,74.5C 30.0347,65.4549 29.868,56.4549 32.5,47.5 Z"/></g>
<g><path style="opacity:1" fill="#21172c" d="M 67.5,53.5 C 68.3084,56.47 70.3084,58.3034 73.5,59C 71.8876,59.7203 70.3876,59.5536 69,58.5C 68.4808,60.4894 69.3141,61.4894 71.5,61.5C 74.315,63.0777 76.9817,64.7443 79.5,66.5C 79.5,67.1667 79.5,67.8333 79.5,68.5C 73.9465,66.0523 68.6132,63.0523 63.5,59.5C 63.1667,59.6667 62.8333,59.8333 62.5,60C 64.2318,61.9719 65.5652,64.1386 66.5,66.5C 65.8333,66.5 65.1667,66.5 64.5,66.5C 63.6618,66.1583 63.3284,65.4916 63.5,64.5C 58.3405,53.8608 57.3405,54.5275 60.5,66.5C 59.8826,66.3893 59.3826,66.056 59,65.5C 58.7216,66.4158 58.2216,67.0825 57.5,67.5C 57.5,66.1667 57.5,64.8333 57.5,63.5C 57.5,62.5 57.5,61.5 57.5,60.5C 57.3713,58.7839 57.038,57.1172 56.5,55.5C 57.2679,54.7375 57.7679,53.7375 58,52.5C 59.3086,54.8912 60.3086,54.8912 61,52.5C 62.8696,55.8822 65.0363,56.2155 67.5,53.5 Z"/></g>
<g><path style="opacity:1" fill="#532cbc" d="M 20.5,50.5 C 21.8641,53.2283 23.1975,55.8949 24.5,58.5C 24.5,59.1667 24.5,59.8333 24.5,60.5C 24.4921,63.5448 24.1587,66.5448 23.5,69.5C 23.573,71.0269 22.9063,72.0269 21.5,72.5C 21.5,71.1667 21.5,69.8333 21.5,68.5C 21.69,64.9682 21.0233,61.6348 19.5,58.5C 19.1936,55.6146 19.5269,52.9479 20.5,50.5 Z"/></g>
<g><path style="opacity:1" fill="#744adc" d="M 55.5,53.5 C 56.3382,53.8417 56.6716,54.5084 56.5,55.5C 57.038,57.1172 57.3713,58.7839 57.5,60.5C 56.1077,58.7274 54.941,56.7274 54,54.5C 53.3457,53.3044 52.8457,53.3044 52.5,54.5C 53.9409,57.7235 55.6076,60.7235 57.5,63.5C 57.5,64.8333 57.5,66.1667 57.5,67.5C 55.685,63.2042 53.3517,59.2042 50.5,55.5C 48.7119,52.7719 48.2119,49.7719 49,46.5C 51.4003,48.7293 53.567,51.0626 55.5,53.5 Z"/></g>
<g><path style="opacity:1" fill="#61c8f7" d="M 57.5,60.5 C 57.5,61.5 57.5,62.5 57.5,63.5C 55.6076,60.7235 53.9409,57.7235 52.5,54.5C 52.8457,53.3044 53.3457,53.3044 54,54.5C 54.941,56.7274 56.1077,58.7274 57.5,60.5 Z"/></g>
<g><path style="opacity:1" fill="#d2a341" d="M 67.5,53.5 C 69.035,54.3543 70.3684,54.3543 71.5,53.5C 73.7712,54.6842 76.1046,55.6842 78.5,56.5C 78.67,57.8221 78.3366,58.9887 77.5,60C 75.2922,60.1909 73.2922,60.6909 71.5,61.5C 69.3141,61.4894 68.4808,60.4894 69,58.5C 70.3876,59.5536 71.8876,59.7203 73.5,59C 70.3084,58.3034 68.3084,56.47 67.5,53.5 Z"/></g>
<g><path style="opacity:1" fill="#c0a616" d="M 87.5,55.5 C 86.2632,56.9649 85.2632,58.6316 84.5,60.5C 83.6618,60.1583 83.3284,59.4916 83.5,58.5C 84.7918,56.7451 85.7918,54.7451 86.5,52.5C 87.3857,53.325 87.719,54.325 87.5,55.5 Z"/></g>
<g><path style="opacity:1" fill="#15131c" d="M 39.5,52.5 C 39.5,54.1667 39.5,55.8333 39.5,57.5C 38.0256,58.4363 37.0256,59.7697 36.5,61.5C 36.5,61.8333 36.5,62.1667 36.5,62.5C 35.8333,62.5 35.5,62.1667 35.5,61.5C 35.8333,60.1667 36.1667,58.8333 36.5,57.5C 37.3127,55.7392 38.3127,54.0725 39.5,52.5 Z"/></g>
<g><path style="opacity:1" fill="#3049c7" d="M 15.5,52.5 C 15.6287,54.2161 15.962,55.8828 16.5,57.5C 18.2185,59.9262 18.7185,62.5929 18,65.5C 17.4338,63.2774 16.6005,61.2774 15.5,59.5C 14.6641,55.6775 13.6641,52.0108 12.5,48.5C 12.848,46.2872 13.6813,44.2872 15,42.5C 14.3066,45.9485 14.4733,49.2819 15.5,52.5 Z"/></g>
<g><path style="opacity:1" fill="#311b7c" d="M 45.5,54.5 C 45.8333,54.5 46.1667,54.5 46.5,54.5C 46.5,55.1667 46.8333,55.5 47.5,55.5C 47.3284,56.4916 47.6618,57.1583 48.5,57.5C 48.5,61.1667 48.5,64.8333 48.5,68.5C 47.6288,64.9788 46.7955,61.3121 46,57.5C 45.8195,60.6946 45.3195,63.6946 44.5,66.5C 44.5,63.1667 44.5,59.8333 44.5,56.5C 45.3382,56.1583 45.6716,55.4916 45.5,54.5 Z"/></g>
<g><path style="opacity:1" fill="#2c0c66" d="M 24.5,60.5 C 24.8333,60.5 25.1667,60.5 25.5,60.5C 26.8029,64.3821 27.4696,68.3821 27.5,72.5C 26.6851,73.4293 25.8518,74.4293 25,75.5C 24.8091,73.2922 24.3091,71.2922 23.5,69.5C 24.1587,66.5448 24.4921,63.5448 24.5,60.5 Z"/></g>
<g><path style="opacity:1" fill="#5f2ac5" d="M 44.5,56.5 C 44.5,59.8333 44.5,63.1667 44.5,66.5C 43.2095,70.9829 43.2095,75.4829 44.5,80C 44.3333,81.1667 44.1667,82.3333 44,83.5C 43.6667,83.1667 43.3333,82.8333 43,82.5C 42.9464,79.1388 41.9464,76.1388 40,73.5C 39.5006,68.1771 39.334,62.8437 39.5,57.5C 39.5,55.8333 39.5,54.1667 39.5,52.5C 40.5585,51.3998 41.3918,50.0664 42,48.5C 43.3409,51.022 44.1743,53.6887 44.5,56.5 Z"/></g>
<g><path style="opacity:1" fill="#1ea5e7" d="M 28.5,57.5 C 29.466,62.9967 29.466,68.33 28.5,73.5C 27.9404,67.9821 27.9404,62.6487 28.5,57.5 Z"/></g>
<g><path style="opacity:1" fill="#32346c" d="M 17.5,56.5 C 18.1667,57.1667 18.8333,57.8333 19.5,58.5C 21.0233,61.6348 21.69,64.9682 21.5,68.5C 20.6981,67.0484 20.1981,65.3817 20,63.5C 19.3811,66.0318 18.3811,68.3651 17,70.5C 16.4518,66.8296 15.9518,63.1629 15.5,59.5C 16.6005,61.2774 17.4338,63.2774 18,65.5C 18.7185,62.5929 18.2185,59.9262 16.5,57.5C 17.1667,57.5 17.5,57.1667 17.5,56.5 Z"/></g>
<g><path style="opacity:1" fill="#5b18a4" d="M 36.5,61.5 C 37.2216,61.9175 37.7216,62.5842 38,63.5C 38.6667,70.1667 38.6667,76.8333 38,83.5C 37.6667,82.8333 37.3333,82.1667 37,81.5C 36.5005,75.1754 36.3338,68.8421 36.5,62.5C 36.5,62.1667 36.5,61.8333 36.5,61.5 Z"/></g>
<g><path style="opacity:1" fill="#69a8e8" d="M 63.5,64.5 C 63.3284,65.4916 63.6618,66.1583 64.5,66.5C 65.2186,68.7638 65.552,71.0971 65.5,73.5C 63.9423,70.7081 62.609,67.7081 61.5,64.5C 61.9698,63.537 62.6365,63.537 63.5,64.5 Z"/></g>
<g><path style="opacity:1" fill="#5d22c2" d="M 50.5,55.5 C 51.9873,59.1454 53.4873,62.812 55,66.5C 55.4955,68.4727 55.6621,70.4727 55.5,72.5C 54.7321,71.7375 54.2321,70.7375 54,69.5C 53.3457,68.3044 52.8457,68.3044 52.5,69.5C 54.2328,73.6954 54.7328,78.0288 54,82.5C 53.7216,81.5842 53.2216,80.9175 52.5,80.5C 50.9651,76.5621 49.6318,72.5621 48.5,68.5C 48.5,64.8333 48.5,61.1667 48.5,57.5C 48.5,56.1667 49.1667,55.5 50.5,55.5 Z"/></g>
<g><path style="opacity:1" fill="#fdf22e" d="M 67.5,66.5 C 67.56,65.9569 67.8933,65.6236 68.5,65.5C 71.5532,67.0043 73.5532,69.3376 74.5,72.5C 72.1667,70.5 69.8333,68.5 67.5,66.5 Z"/></g>
<g><path style="opacity:1" fill="#ca8f23" d="M 79.5,68.5 C 78.2437,72.2557 77.2437,71.9223 76.5,67.5C 75.5344,69.396 75.2011,71.396 75.5,73.5C 74.8333,73.5 74.5,73.1667 74.5,72.5C 73.5532,69.3376 71.5532,67.0043 68.5,65.5C 67.8933,65.6236 67.56,65.9569 67.5,66.5C 67.1667,66.5 66.8333,66.5 66.5,66.5C 65.5652,64.1386 64.2318,61.9719 62.5,60C 62.8333,59.8333 63.1667,59.6667 63.5,59.5C 68.6132,63.0523 73.9465,66.0523 79.5,68.5 Z"/></g>
<g><path style="opacity:1" fill="#4f3abc" d="M 32.5,38.5 C 32.8333,38.5 33.1667,38.5 33.5,38.5C 32.4706,40.5168 31.4706,42.5168 30.5,44.5C 28.6643,47.1826 27.6643,50.1826 27.5,53.5C 27.8333,54.8333 28.1667,56.1667 28.5,57.5C 27.9404,62.6487 27.9404,67.9821 28.5,73.5C 27.8897,75.8503 27.5563,75.517 27.5,72.5C 27.4696,68.3821 26.8029,64.3821 25.5,60.5C 24.8091,53.6384 26.1424,47.3051 29.5,41.5C 30.2719,40.3065 31.2719,39.3065 32.5,38.5 Z"/></g>
<g><path style="opacity:1" fill="#5f30c3" d="M 63.5,64.5 C 62.6365,63.537 61.9698,63.537 61.5,64.5C 62.609,67.7081 63.9423,70.7081 65.5,73.5C 64.3372,77.4815 63.1705,81.4815 62,85.5C 58.7172,79.7319 58.0505,73.7319 60,67.5C 60.6543,68.6956 61.1543,68.6956 61.5,67.5C 61.3764,66.8933 61.0431,66.56 60.5,66.5C 57.3405,54.5275 58.3405,53.8608 63.5,64.5 Z"/></g>
<g><path style="opacity:1" fill="#512ab1" d="M 67.5,68.5 C 69.1733,69.343 70.34,70.6763 71,72.5C 71.5787,76.2027 71.412,79.8694 70.5,83.5C 69.5416,83.9528 68.7083,84.6195 68,85.5C 66.8403,83.203 65.8403,83.5363 65,86.5C 65.51,80.3947 66.3434,74.3947 67.5,68.5 Z"/></g>
<g><path style="opacity:0.983" fill="#f7cef0" d="M 94.5,51.5 C 91.8122,74.031 79.4789,88.1976 57.5,94C 35.6383,97.562 18.9716,90.062 7.5,71.5C 8.21607,71.2169 9.0494,70.8836 10,70.5C 12.9253,73.0594 15.9253,73.0594 19,70.5C 19.2022,72.2556 19.7022,73.9223 20.5,75.5C 21.1067,75.3764 21.44,75.0431 21.5,74.5C 22.1174,74.3893 22.6174,74.056 23,73.5C 23.2189,74.938 23.7189,76.2713 24.5,77.5C 25.086,77.2907 25.586,76.9574 26,76.5C 27.0174,79.028 28.1841,79.028 29.5,76.5C 30.35,78.9038 31.35,81.2372 32.5,83.5C 33.2811,82.2713 33.7811,80.938 34,79.5C 35.5,81.8333 37,84.1667 38.5,86.5C 39.3078,84.5767 39.8078,82.5767 40,80.5C 41.8605,82.8877 43.1939,85.5544 44,88.5C 44.9734,86.6079 45.6401,84.6079 46,82.5C 47.6921,86.0093 49.8587,88.3426 52.5,89.5C 53.3857,88.675 53.719,87.675 53.5,86.5C 53.5,86.1667 53.5,85.8333 53.5,85.5C 54.7079,86.2341 56.0413,86.5674 57.5,86.5C 57.281,87.675 57.6143,88.675 58.5,89.5C 59.2811,88.2713 59.7811,86.938 60,85.5C 60.6054,87.4812 61.6054,87.8146 63,86.5C 63.3333,87.8333 63.6667,89.1667 64,90.5C 66.8605,88.6875 69.0271,86.3542 70.5,83.5C 73.7684,79.7288 77.2684,76.0622 81,72.5C 81.7558,68.2811 82.9225,64.2811 84.5,60.5C 85.2632,58.6316 86.2632,56.9649 87.5,55.5C 87.56,56.0431 87.8933,56.3764 88.5,56.5C 89.3857,55.675 89.719,54.675 89.5,53.5C 91.5138,53.6085 93.1805,52.9418 94.5,51.5 Z"/></g>
<g><path style="opacity:1" fill="#281467" d="M 45.5,71.5 C 47.4109,71.5743 48.5776,72.5743 49,74.5C 50.3097,77.503 50.4763,80.503 49.5,83.5C 46.0754,80.238 44.7421,76.238 45.5,71.5 Z"/></g>
<g><path style="opacity:1" fill="#1d1545" d="M 50.5,55.5 C 53.3517,59.2042 55.685,63.2042 57.5,67.5C 58.2216,67.0825 58.7216,66.4158 59,65.5C 59.3826,66.056 59.8826,66.3893 60.5,66.5C 61.0431,66.56 61.3764,66.8933 61.5,67.5C 61.1543,68.6956 60.6543,68.6956 60,67.5C 58.0505,73.7319 58.7172,79.7319 62,85.5C 63.1705,81.4815 64.3372,77.4815 65.5,73.5C 65.552,71.0971 65.2186,68.7638 64.5,66.5C 65.1667,66.5 65.8333,66.5 66.5,66.5C 66.8333,66.5 67.1667,66.5 67.5,66.5C 67.5,67.1667 67.5,67.8333 67.5,68.5C 66.3434,74.3947 65.51,80.3947 65,86.5C 65.8403,83.5363 66.8403,83.203 68,85.5C 68.7083,84.6195 69.5416,83.9528 70.5,83.5C 69.0271,86.3542 66.8605,88.6875 64,90.5C 63.6667,89.1667 63.3333,87.8333 63,86.5C 61.6054,87.8146 60.6054,87.4812 60,85.5C 59.7811,86.938 59.2811,88.2713 58.5,89.5C 57.6143,88.675 57.281,87.675 57.5,86.5C 56.0413,86.5674 54.7079,86.2341 53.5,85.5C 55.3342,81.4865 56.0008,77.1532 55.5,72.5C 55.6621,70.4727 55.4955,68.4727 55,66.5C 53.4873,62.812 51.9873,59.1454 50.5,55.5 Z"/></g>
<g><path style="opacity:1" fill="#2f2529" d="M 82.5,58.5 C 82.8333,58.5 83.1667,58.5 83.5,58.5C 83.3284,59.4916 83.6618,60.1583 84.5,60.5C 82.9225,64.2811 81.7558,68.2811 81,72.5C 77.2684,76.0622 73.7684,79.7288 70.5,83.5C 71.412,79.8694 71.5787,76.2027 71,72.5C 70.34,70.6763 69.1733,69.343 67.5,68.5C 67.5,67.8333 67.5,67.1667 67.5,66.5C 69.8333,68.5 72.1667,70.5 74.5,72.5C 74.5,73.1667 74.8333,73.5 75.5,73.5C 79.7868,72.7675 81.7868,70.1008 81.5,65.5C 81.1667,64.5 80.8333,63.5 80.5,62.5C 80.5236,63.7865 80.1903,65.1198 79.5,66.5C 76.9817,64.7443 74.315,63.0777 71.5,61.5C 74.5184,61.6646 77.5184,61.498 80.5,61C 81.3805,60.2917 82.0472,59.4584 82.5,58.5 Z"/></g>
<g><path style="opacity:1" fill="#eac424" d="M 75.5,73.5 C 75.2011,71.396 75.5344,69.396 76.5,67.5C 77.2437,71.9223 78.2437,72.2557 79.5,68.5C 79.5,67.8333 79.5,67.1667 79.5,66.5C 80.1903,65.1198 80.5236,63.7865 80.5,62.5C 80.8333,63.5 81.1667,64.5 81.5,65.5C 81.7868,70.1008 79.7868,72.7675 75.5,73.5 Z"/></g>
<g><path style="opacity:1" fill="#2c3087" d="M 55.5,72.5 C 56.0008,77.1532 55.3342,81.4865 53.5,85.5C 53.5,85.8333 53.5,86.1667 53.5,86.5C 51.2712,84.9007 50.9378,82.9007 52.5,80.5C 53.2216,80.9175 53.7216,81.5842 54,82.5C 54.7328,78.0288 54.2328,73.6954 52.5,69.5C 52.8457,68.3044 53.3457,68.3044 54,69.5C 54.2321,70.7375 54.7321,71.7375 55.5,72.5 Z"/></g>
</svg>
