<?xml version="1.0" encoding="UTF-8"?>
<!DOCTYPE svg PUBLIC "-//W3C//DTD SVG 1.1//EN" "http://www.w3.org/Graphics/SVG/1.1/DTD/svg11.dtd">
<svg xmlns="http://www.w3.org/2000/svg" version="1.1" width="96px" height="96px" style="shape-rendering:geometricPrecision; text-rendering:geometricPrecision; image-rendering:optimizeQuality; fill-rule:evenodd; clip-rule:evenodd" xmlns:xlink="http://www.w3.org/1999/xlink">
<g><path style="opacity:1" fill="#25301e" d="M -0.5,-0.5 C 31.5,-0.5 63.5,-0.5 95.5,-0.5C 95.5,31.5 95.5,63.5 95.5,95.5C 63.5,95.5 31.5,95.5 -0.5,95.5C -0.5,63.5 -0.5,31.5 -0.5,-0.5 Z"/></g>
<g><path style="opacity:1" fill="#edf4dc" d="M 62.5,30.5 C 60.5,31.1667 59.1667,32.5 58.5,34.5C 57.1667,34.5 56.5,35.1667 56.5,36.5C 55.6236,36.6309 54.9569,36.2975 54.5,35.5C 55.7899,33.208 57.4565,31.208 59.5,29.5C 51.8622,28.5025 44.1955,28.1692 36.5,28.5C 40.107,27.176 44.107,26.5093 48.5,26.5C 52.5,26.8333 56.5,27.1667 60.5,27.5C 61.6119,28.2652 62.2786,29.2652 62.5,30.5 Z"/></g>
<g><path style="opacity:1" fill="#70cd34" d="M 62.5,30.5 C 62.5,32.5 62.5,34.5 62.5,36.5C 61.1667,35.8333 59.8333,35.1667 58.5,34.5C 59.1667,32.5 60.5,31.1667 62.5,30.5 Z"/></g>
<g><path style="opacity:1" fill="#b5e64b" d="M 36.5,28.5 C 44.1955,28.1692 51.8622,28.5025 59.5,29.5C 57.4565,31.208 55.7899,33.208 54.5,35.5C 54.9569,36.2975 55.6236,36.6309 56.5,36.5C 56.5,37.8333 56.5,39.1667 56.5,40.5C 55.5,40.5 54.5,40.5 53.5,40.5C 52.8485,39.9094 52.1818,39.2427 51.5,38.5C 48.6908,41.9922 45.3575,44.6589 41.5,46.5C 41.5,47.8333 41.5,49.1667 41.5,50.5C 41.1667,50.5 40.8333,50.5 40.5,50.5C 40.3279,46.466 39.8279,42.466 39,38.5C 37.9308,40.4074 36.4308,41.7407 34.5,42.5C 34.2786,41.2652 33.6119,40.2652 32.5,39.5C 34.2603,36.7877 34.927,33.7877 34.5,30.5C 34.5,29.1667 35.1667,28.5 36.5,28.5 Z"/></g>
<g><path style="opacity:1" fill="#f3fbe8" d="M 44.5,34.5 C 46.604,34.2011 48.604,34.5344 50.5,35.5C 49.5,35.8333 48.5,36.1667 47.5,36.5C 45.9704,36.3601 44.9704,35.6935 44.5,34.5 Z"/></g>
<g><path style="opacity:1" fill="#78d235" d="M 53.5,40.5 C 53.8282,45.8746 53.4948,51.2079 52.5,56.5C 50.8333,58.1667 49.1667,59.8333 47.5,61.5C 46.4647,63.1284 46.4647,64.795 47.5,66.5C 46.8333,66.5 46.1667,66.5 45.5,66.5C 43.3084,61.3236 41.975,55.9902 41.5,50.5C 41.5,49.1667 41.5,47.8333 41.5,46.5C 45.3575,44.6589 48.6908,41.9922 51.5,38.5C 52.1818,39.2427 52.8485,39.9094 53.5,40.5 Z"/></g>
<g><path style="opacity:1" fill="#80d139" d="M 40.5,50.5 C 40.0356,54.6204 38.869,58.6204 37,62.5C 36.5831,61.244 35.7498,60.5774 34.5,60.5C 34.5,59.1667 33.8333,58.5 32.5,58.5C 32.5,57.1667 32.5,55.8333 32.5,54.5C 32.3285,52.5082 32.9951,50.8415 34.5,49.5C 33.5853,48.6721 32.9186,47.6721 32.5,46.5C 33.2255,45.1331 33.8921,43.7997 34.5,42.5C 36.4308,41.7407 37.9308,40.4074 39,38.5C 39.8279,42.466 40.3279,46.466 40.5,50.5 Z"/></g>
<g><path style="opacity:1" fill="#a5b682" d="M 34.5,30.5 C 34.927,33.7877 34.2603,36.7877 32.5,39.5C 33.6119,40.2652 34.2786,41.2652 34.5,42.5C 33.8921,43.7997 33.2255,45.1331 32.5,46.5C 32.9186,47.6721 33.5853,48.6721 34.5,49.5C 32.9951,50.8415 32.3285,52.5082 32.5,54.5C 31.5076,46.6841 31.1743,38.6841 31.5,30.5C 32.5,30.5 33.5,30.5 34.5,30.5 Z"/></g>
<g><path style="opacity:1" fill="#3d369c" d="M 62.5,40.5 C 63.8282,45.4558 64.4949,50.7891 64.5,56.5C 64.4949,62.2109 63.8282,67.5442 62.5,72.5C 62.5,67.1667 62.5,61.8333 62.5,56.5C 62.5,51.1667 62.5,45.8333 62.5,40.5 Z"/></g>
<g><path style="opacity:1" fill="#3ea55a" d="M 58.5,34.5 C 59.8333,35.1667 61.1667,35.8333 62.5,36.5C 62.5,37.8333 62.5,39.1667 62.5,40.5C 62.5,45.8333 62.5,51.1667 62.5,56.5C 61.6236,56.3691 60.9569,56.7025 60.5,57.5C 61.5149,60.4922 60.5149,62.8255 57.5,64.5C 56.4104,63.6086 56.4104,62.6086 57.5,61.5C 56.8864,57.0331 56.2197,52.6998 55.5,48.5C 54.5104,54.31 54.1771,60.31 54.5,66.5C 52.1667,66.5 49.8333,66.5 47.5,66.5C 46.4647,64.795 46.4647,63.1284 47.5,61.5C 49.1667,59.8333 50.8333,58.1667 52.5,56.5C 53.4948,51.2079 53.8282,45.8746 53.5,40.5C 54.5,40.5 55.5,40.5 56.5,40.5C 56.5,39.1667 56.5,37.8333 56.5,36.5C 56.5,35.1667 57.1667,34.5 58.5,34.5 Z"/></g>
<g><path style="opacity:1" fill="#45ad54" d="M 40.5,50.5 C 40.8333,50.5 41.1667,50.5 41.5,50.5C 41.975,55.9902 43.3084,61.3236 45.5,66.5C 44.1667,66.5 42.8333,66.5 41.5,66.5C 41.1667,58.5 40.8333,58.5 40.5,66.5C 37.9315,66.7377 36.2648,68.071 35.5,70.5C 34.5206,67.3752 34.1872,64.0419 34.5,60.5C 35.7498,60.5774 36.5831,61.244 37,62.5C 38.869,58.6204 40.0356,54.6204 40.5,50.5 Z"/></g>
<g><path style="opacity:1" fill="#3f2aa5" d="M 55.5,48.5 C 55.5,54.5 55.5,60.5 55.5,66.5C 55.6716,67.4916 55.3382,68.1583 54.5,68.5C 49.3814,69.1031 44.7147,68.4364 40.5,66.5C 40.8333,58.5 41.1667,58.5 41.5,66.5C 42.8333,66.5 44.1667,66.5 45.5,66.5C 46.1667,66.5 46.8333,66.5 47.5,66.5C 49.8333,66.5 52.1667,66.5 54.5,66.5C 54.1771,60.31 54.5104,54.31 55.5,48.5 Z"/></g>
<g><path style="opacity:1" fill="#4340a7" d="M 32.5,58.5 C 33.8333,58.5 34.5,59.1667 34.5,60.5C 34.1872,64.0419 34.5206,67.3752 35.5,70.5C 40.27,68.0352 40.6033,68.7019 36.5,72.5C 35.7784,72.9175 35.2784,73.5842 35,74.5C 32.7332,69.4735 31.8998,64.1401 32.5,58.5 Z"/></g>
<g><path style="opacity:1" fill="#2b66a7" d="M 40.5,66.5 C 44.7147,68.4364 49.3814,69.1031 54.5,68.5C 55.8333,70.5 55.8333,72.5 54.5,74.5C 48.5,74.5 42.5,74.5 36.5,74.5C 36.5,73.8333 36.5,73.1667 36.5,72.5C 40.6033,68.7019 40.27,68.0352 35.5,70.5C 36.2648,68.071 37.9315,66.7377 40.5,66.5 Z"/></g>
<g><path style="opacity:1" fill="#385996" d="M 55.5,48.5 C 56.2197,52.6998 56.8864,57.0331 57.5,61.5C 56.4104,62.6086 56.4104,63.6086 57.5,64.5C 60.5149,62.8255 61.5149,60.4922 60.5,57.5C 60.9569,56.7025 61.6236,56.3691 62.5,56.5C 62.5,61.8333 62.5,67.1667 62.5,72.5C 61.8776,74.1216 60.8776,75.4549 59.5,76.5C 59.5,75.8333 59.5,75.1667 59.5,74.5C 58.5543,72.8679 57.5543,71.2012 56.5,69.5C 59.2291,67.6329 58.8957,66.6329 55.5,66.5C 55.5,60.5 55.5,54.5 55.5,48.5 Z"/></g>
<g><path style="opacity:1" fill="#29995f" d="M 55.5,66.5 C 58.8957,66.6329 59.2291,67.6329 56.5,69.5C 57.5543,71.2012 58.5543,72.8679 59.5,74.5C 57.8333,74.5 56.1667,74.5 54.5,74.5C 55.8333,72.5 55.8333,70.5 54.5,68.5C 55.3382,68.1583 55.6716,67.4916 55.5,66.5 Z"/></g>
<g><path style="opacity:1" fill="#3f2798" d="M 36.5,74.5 C 42.5,74.5 48.5,74.5 54.5,74.5C 56.1667,74.5 57.8333,74.5 59.5,74.5C 59.5,75.1667 59.5,75.8333 59.5,76.5C 51.4271,77.1318 43.7605,76.4651 36.5,74.5 Z"/></g>
</svg>
