<?xml version="1.0" encoding="UTF-8"?>
<!DOCTYPE svg PUBLIC "-//W3C//DTD SVG 1.1//EN" "http://www.w3.org/Graphics/SVG/1.1/DTD/svg11.dtd">
<svg xmlns="http://www.w3.org/2000/svg" version="1.1" width="96px" height="96px" style="shape-rendering:geometricPrecision; text-rendering:geometricPrecision; image-rendering:optimizeQuality; fill-rule:evenodd; clip-rule:evenodd" xmlns:xlink="http://www.w3.org/1999/xlink">
<g><path style="opacity:0.681" fill="#fdb304" d="M 46.5,-0.5 C 47.5,-0.5 48.5,-0.5 49.5,-0.5C 49.5,0.5 49.5,1.5 49.5,2.5C 50.5,2.5 51.5,2.5 52.5,2.5C 52.5,4.16667 52.5,5.83333 52.5,7.5C 50.5082,7.67154 48.8415,7.00488 47.5,5.5C 46.5258,7.74269 46.1924,10.076 46.5,12.5C 45.5,12.5 44.5,12.5 43.5,12.5C 43.5,9.83333 43.5,7.16667 43.5,4.5C 44.5,4.5 45.5,4.5 46.5,4.5C 46.5,2.83333 46.5,1.16667 46.5,-0.5 Z"/></g>
<g><path style="opacity:1" fill="#fddb4a" d="M 52.5,7.5 C 52.5,10.1667 52.5,12.8333 52.5,15.5C 51.5,15.5 50.5,15.5 49.5,15.5C 48.8333,15.5 48.5,15.1667 48.5,14.5C 48.5,13.1667 47.8333,12.5 46.5,12.5C 46.1924,10.076 46.5258,7.74269 47.5,5.5C 48.8415,7.00488 50.5082,7.67154 52.5,7.5 Z"/></g>
<g><path style="opacity:0.586" fill="#fae3a7" d="M 43.5,12.5 C 44.5,12.5 45.5,12.5 46.5,12.5C 47.8333,12.5 48.5,13.1667 48.5,14.5C 47.5084,14.3284 46.8417,14.6618 46.5,15.5C 45.5,15.5 44.5,15.5 43.5,15.5C 43.5,14.5 43.5,13.5 43.5,12.5 Z"/></g>
<g><path style="opacity:0.643" fill="#fdf5fc" d="M 49.5,16.5 C 50.5,16.5 51.5,16.5 52.5,16.5C 52.5,17.8333 52.5,19.1667 52.5,20.5C 51.448,20.3505 50.448,20.5172 49.5,21C 50.756,21.4169 51.4226,22.2502 51.5,23.5C 49.4458,23.6347 47.7791,22.968 46.5,21.5C 46.2407,19.0107 47.2407,17.344 49.5,16.5 Z"/></g>
<g><path style="opacity:1" fill="#fce2f4" d="M 48.5,14.5 C 48.5,15.1667 48.8333,15.5 49.5,15.5C 49.5,15.8333 49.5,16.1667 49.5,16.5C 47.2407,17.344 46.2407,19.0107 46.5,21.5C 45.5028,21.4701 44.8361,21.9701 44.5,23C 46.4274,25.0778 48.094,27.2445 49.5,29.5C 49.5,30.5 49.5,31.5 49.5,32.5C 47.5509,33.7247 46.2175,33.058 45.5,30.5C 44.5481,32.0453 44.2148,33.712 44.5,35.5C 41.6915,35.6933 39.0248,36.36 36.5,37.5C 36.5,38.5 36.5,39.5 36.5,40.5C 33.7531,40.1866 31.0865,40.52 28.5,41.5C 26.8955,43.1789 26.2289,45.1789 26.5,47.5C 24.8762,47.3601 23.7096,48.0267 23,49.5C 22.6121,48.572 21.9454,47.9054 21,47.5C 17.3839,49.2559 13.5506,49.9225 9.5,49.5C 8.08209,47.6921 6.08209,47.0254 3.5,47.5C 3.5,44.8333 3.5,42.1667 3.5,39.5C 7.25022,38.2996 10.9169,36.7996 14.5,35C 14.0426,34.586 13.7093,34.086 13.5,33.5C 15.7961,31.4477 18.4628,30.4477 21.5,30.5C 21.4802,28.857 22.1468,27.5237 23.5,26.5C 29.3104,25.1715 34.9771,23.5049 40.5,21.5C 40.3537,19.0576 41.187,18.3909 43,19.5C 43.4828,18.552 43.6495,17.552 43.5,16.5C 44.791,16.7373 45.791,16.404 46.5,15.5C 46.8417,14.6618 47.5084,14.3284 48.5,14.5 Z"/></g>
<g><path style="opacity:0.965" fill="#b1f3fd" d="M 46.5,21.5 C 47.7791,22.968 49.4458,23.6347 51.5,23.5C 52.4614,25.2646 52.7947,27.2646 52.5,29.5C 51.5,29.5 50.5,29.5 49.5,29.5C 48.094,27.2445 46.4274,25.0778 44.5,23C 44.8361,21.9701 45.5028,21.4701 46.5,21.5 Z"/></g>
<g><path style="opacity:0.924" fill="#fcc7df" d="M 59.5,35.5 C 58.0813,36.4511 56.4147,36.7845 54.5,36.5C 54.5,35.5 54.5,34.5 54.5,33.5C 53.5,33.5 52.5,33.5 51.5,33.5C 51.5,33.1667 51.5,32.8333 51.5,32.5C 51.4701,31.5028 51.9701,30.8361 53,30.5C 54.9214,32.0028 57.088,32.6695 59.5,32.5C 59.5,33.5 59.5,34.5 59.5,35.5 Z"/></g>
<g><path style="opacity:1" fill="#9be8fa" d="M 49.5,32.5 C 50.1667,32.5 50.8333,32.5 51.5,32.5C 51.5,32.8333 51.5,33.1667 51.5,33.5C 51.5,34.8333 51.5,36.1667 51.5,37.5C 49.139,37.3259 46.8056,36.9926 44.5,36.5C 44.5,36.1667 44.5,35.8333 44.5,35.5C 44.2148,33.712 44.5481,32.0453 45.5,30.5C 46.2175,33.058 47.5509,33.7247 49.5,32.5 Z"/></g>
<g><path style="opacity:1" fill="#fd95c5" d="M 51.5,33.5 C 52.5,33.5 53.5,33.5 54.5,33.5C 54.5,34.5 54.5,35.5 54.5,36.5C 56.4147,36.7845 58.0813,36.4511 59.5,35.5C 63.5823,36.7256 66.9156,38.0589 69.5,39.5C 69.5,40.5 69.5,41.5 69.5,42.5C 73.5,43.8333 77.5,45.1667 81.5,46.5C 81.5,47.5 81.5,48.5 81.5,49.5C 84.1667,50.8333 86.8333,52.1667 89.5,53.5C 89.5,57.8333 89.5,62.1667 89.5,66.5C 86.8333,66.5 84.1667,66.5 81.5,66.5C 82.9187,65.5489 84.5853,65.2155 86.5,65.5C 86.5,64.1667 86.5,62.8333 86.5,61.5C 80.4632,61.8293 74.4632,61.4959 68.5,60.5C 67.9747,59.8076 67.3081,59.3076 66.5,59C 58.971,59.0151 51.6377,58.1818 44.5,56.5C 44.1788,54.9519 43.1788,54.2852 41.5,54.5C 41.5,55.1667 41.5,55.8333 41.5,56.5C 35.0144,55.9651 28.3477,54.9651 21.5,53.5C 17.4886,51.7882 13.4886,50.4549 9.5,49.5C 13.5506,49.9225 17.3839,49.2559 21,47.5C 21.9454,47.9054 22.6121,48.572 23,49.5C 23.7096,48.0267 24.8762,47.3601 26.5,47.5C 26.2289,45.1789 26.8955,43.1789 28.5,41.5C 31.0865,40.52 33.7531,40.1866 36.5,40.5C 36.5,39.5 36.5,38.5 36.5,37.5C 39.0248,36.36 41.6915,35.6933 44.5,35.5C 44.5,35.8333 44.5,36.1667 44.5,36.5C 44.5,39.5 44.5,42.5 44.5,45.5C 46.8333,45.5 49.1667,45.5 51.5,45.5C 51.5,42.8333 51.5,40.1667 51.5,37.5C 51.5,36.1667 51.5,34.8333 51.5,33.5 Z"/></g>
<g><path style="opacity:1" fill="#e4eefc" d="M 44.5,36.5 C 46.8056,36.9926 49.139,37.3259 51.5,37.5C 51.5,40.1667 51.5,42.8333 51.5,45.5C 49.1667,45.5 46.8333,45.5 44.5,45.5C 44.5,42.5 44.5,39.5 44.5,36.5 Z"/></g>
<g><path style="opacity:1" fill="#ffd07f" d="M 54.5,37.5 C 56.1667,37.5 57.8333,37.5 59.5,37.5C 59.5,38.5 59.5,39.5 59.5,40.5C 57.8333,40.5 56.1667,40.5 54.5,40.5C 54.5,39.5 54.5,38.5 54.5,37.5 Z"/></g>
<g><path style="opacity:1" fill="#fdc985" d="M 31.5,42.5 C 34.5476,42.494 35.0476,43.494 33,45.5C 31.9614,44.7562 31.4614,43.7562 31.5,42.5 Z"/></g>
<g><path style="opacity:1" fill="#fee767" d="M 59.5,45.5 C 61.337,45.6395 61.6704,46.3061 60.5,47.5C 59.7025,47.0431 59.3691,46.3764 59.5,45.5 Z"/></g>
<g><path style="opacity:1" fill="#b2d2e7" d="M 26.5,49.5 C 28.5,49.5 30.5,49.5 32.5,49.5C 32.5,50.5 32.5,51.5 32.5,52.5C 30.5,52.5 28.5,52.5 26.5,52.5C 26.5,51.5 26.5,50.5 26.5,49.5 Z"/></g>
<g><path style="opacity:1" fill="#ffd872" d="M 41.5,54.5 C 39.663,54.3605 39.3296,53.6939 40.5,52.5C 41.2975,52.9569 41.6309,53.6236 41.5,54.5 Z"/></g>
<g><path style="opacity:1" fill="#fbd478" d="M 41.5,54.5 C 43.1788,54.2852 44.1788,54.9519 44.5,56.5C 43.5,56.5 42.5,56.5 41.5,56.5C 41.5,55.8333 41.5,55.1667 41.5,54.5 Z"/></g>
<g><path style="opacity:1" fill="#8fecf8" d="M 56.5,54.5 C 57.675,54.281 58.675,54.6143 59.5,55.5C 57.9483,56.7979 56.9483,56.4646 56.5,54.5 Z"/></g>
<g><path style="opacity:1" fill="#fef752" d="M 71.5,54.5 C 73.337,54.6395 73.6704,55.3061 72.5,56.5C 71.7025,56.0431 71.3691,55.3764 71.5,54.5 Z"/></g>
<g><path style="opacity:1" fill="#f574b5" d="M 3.5,47.5 C 6.08209,47.0254 8.08209,47.6921 9.5,49.5C 13.4886,50.4549 17.4886,51.7882 21.5,53.5C 28.3477,54.9651 35.0144,55.9651 41.5,56.5C 42.5,56.5 43.5,56.5 44.5,56.5C 51.6377,58.1818 58.971,59.0151 66.5,59C 67.3081,59.3076 67.9747,59.8076 68.5,60.5C 74.4632,61.4959 80.4632,61.8293 86.5,61.5C 86.5,62.8333 86.5,64.1667 86.5,65.5C 84.5853,65.2155 82.9187,65.5489 81.5,66.5C 79.0849,67.8142 76.2515,68.4809 73,68.5C 68.9121,68.7119 65.0787,68.0453 61.5,66.5C 51.02,65.0155 40.3533,64.0155 29.5,63.5C 26.6627,61.5977 23.3293,60.931 19.5,61.5C 19.5,60.5 19.5,59.5 19.5,58.5C 15.9913,58.5424 12.658,57.8758 9.5,56.5C 9.32035,60.682 9.98702,64.682 11.5,68.5C 14.0248,69.64 16.6915,70.3067 19.5,70.5C 19.5,71.5 19.5,72.5 19.5,73.5C 24.0323,73.1818 28.3656,73.5151 32.5,74.5C 36.97,75.4861 41.6367,75.8195 46.5,75.5C 46.5,76.5 46.5,77.5 46.5,78.5C 54.0512,78.5065 61.5512,79.1732 69,80.5C 74.1745,79.7457 79.3412,79.0791 84.5,78.5C 84.5,79.8333 84.5,81.1667 84.5,82.5C 74.1107,83.141 64.1107,82.4743 54.5,80.5C 48.5255,79.9004 42.5255,78.9004 36.5,77.5C 28.4378,78.072 20.7712,76.7386 13.5,73.5C 12.2734,76.6952 12.6067,79.6952 14.5,82.5C 13.5,82.5 12.5,82.5 11.5,82.5C 10.5,82.5 9.5,82.5 8.5,82.5C 7.29781,78.9517 6.63115,75.285 6.5,71.5C 6.5,70.5 6.5,69.5 6.5,68.5C 5.5,68.5 4.5,68.5 3.5,68.5C 3.5,61.5 3.5,54.5 3.5,47.5 Z"/></g>
<g><path style="opacity:1" fill="#fecd81" d="M 29.5,63.5 C 39.9137,65.6739 50.5804,66.6739 61.5,66.5C 65.0787,68.0453 68.9121,68.7119 73,68.5C 76.2515,68.4809 79.0849,67.8142 81.5,66.5C 84.1667,66.5 86.8333,66.5 89.5,66.5C 89.5,68.1667 89.5,69.8333 89.5,71.5C 88.209,71.2627 87.209,71.596 86.5,72.5C 86.5,73.5 86.5,74.5 86.5,75.5C 85.1667,75.5 84.5,76.1667 84.5,77.5C 79.6105,77.6595 74.7771,78.3262 70,79.5C 62.9098,77.9678 55.7432,77.3011 48.5,77.5C 48.5,76.5 48.5,75.5 48.5,74.5C 43.1667,74.5 37.8333,74.5 32.5,74.5C 28.3656,73.5151 24.0323,73.1818 19.5,73.5C 19.5,72.5 19.5,71.5 19.5,70.5C 16.6915,70.3067 14.0248,69.64 11.5,68.5C 9.98702,64.682 9.32035,60.682 9.5,56.5C 12.658,57.8758 15.9913,58.5424 19.5,58.5C 19.5,59.5 19.5,60.5 19.5,61.5C 23.3293,60.931 26.6627,61.5977 29.5,63.5 Z"/></g>
<g><path style="opacity:1" fill="#fa9ca2" d="M 29.5,63.5 C 40.3533,64.0155 51.02,65.0155 61.5,66.5C 50.5804,66.6739 39.9137,65.6739 29.5,63.5 Z"/></g>
<g><path style="opacity:0.716" fill="#fbdeeb" d="M 3.5,68.5 C 4.5,68.5 5.5,68.5 6.5,68.5C 6.5,69.5 6.5,70.5 6.5,71.5C 5.5,71.5 4.5,71.5 3.5,71.5C 3.5,70.5 3.5,69.5 3.5,68.5 Z"/></g>
<g><path style="opacity:0.451" fill="#f7fffe" d="M 86.5,72.5 C 87.5,72.5 88.5,72.5 89.5,72.5C 89.5,73.5 89.5,74.5 89.5,75.5C 88.5,75.5 87.5,75.5 86.5,75.5C 86.5,74.5 86.5,73.5 86.5,72.5 Z"/></g>
<g><path style="opacity:1" fill="#faa890" d="M 32.5,74.5 C 37.8333,74.5 43.1667,74.5 48.5,74.5C 48.5,75.5 48.5,76.5 48.5,77.5C 47.8333,76.8333 47.1667,76.1667 46.5,75.5C 41.6367,75.8195 36.97,75.4861 32.5,74.5 Z"/></g>
<g><path style="opacity:0.997" fill="#fecc80" d="M 36.5,77.5 C 36.5,78.5 36.5,79.5 36.5,80.5C 42.5,80.5 48.5,80.5 54.5,80.5C 64.1107,82.4743 74.1107,83.141 84.5,82.5C 84.5,84.1667 84.5,85.8333 84.5,87.5C 81.5,87.8333 79.8333,89.5 79.5,92.5C 77.8333,92.5 76.1667,92.5 74.5,92.5C 67.5988,91.1901 60.5988,91.1901 53.5,92.5C 47.8333,92.5 42.1667,92.5 36.5,92.5C 36.5,91.5 36.5,90.5 36.5,89.5C 35.5,89.5 34.5,89.5 33.5,89.5C 30.1016,89.8204 26.7683,89.487 23.5,88.5C 20.5817,87.1302 17.5817,86.1302 14.5,85.5C 14.5,84.5 14.5,83.5 14.5,82.5C 12.6067,79.6952 12.2734,76.6952 13.5,73.5C 20.7712,76.7386 28.4378,78.072 36.5,77.5 Z"/></g>
<g><path style="opacity:1" fill="#f894a5" d="M 36.5,77.5 C 42.5255,78.9004 48.5255,79.9004 54.5,80.5C 48.5,80.5 42.5,80.5 36.5,80.5C 36.5,79.5 36.5,78.5 36.5,77.5 Z"/></g>
<g><path style="opacity:1" fill="#f9959b" d="M 46.5,75.5 C 47.1667,76.1667 47.8333,76.8333 48.5,77.5C 55.7432,77.3011 62.9098,77.9678 70,79.5C 74.7771,78.3262 79.6105,77.6595 84.5,77.5C 84.5,77.8333 84.5,78.1667 84.5,78.5C 79.3412,79.0791 74.1745,79.7457 69,80.5C 61.5512,79.1732 54.0512,78.5065 46.5,78.5C 46.5,77.5 46.5,76.5 46.5,75.5 Z"/></g>
<g><path style="opacity:0.22" fill="#fabedb" d="M 11.5,82.5 C 12.5,82.5 13.5,82.5 14.5,82.5C 14.5,83.5 14.5,84.5 14.5,85.5C 13.5,85.5 12.5,85.5 11.5,85.5C 11.5,84.5 11.5,83.5 11.5,82.5 Z"/></g>
<g><path style="opacity:0.549" fill="#fefaf2" d="M 33.5,89.5 C 34.5,89.5 35.5,89.5 36.5,89.5C 36.5,90.5 36.5,91.5 36.5,92.5C 35.5,92.5 34.5,92.5 33.5,92.5C 33.5,91.5 33.5,90.5 33.5,89.5 Z"/></g>
<g><path style="opacity:0.504" fill="#ffdeb6" d="M 74.5,92.5 C 74.5,93.5 74.5,94.5 74.5,95.5C 67.5,95.5 60.5,95.5 53.5,95.5C 53.5,94.5 53.5,93.5 53.5,92.5C 60.5988,91.1901 67.5988,91.1901 74.5,92.5 Z"/></g>
</svg>
