<?xml version="1.0" encoding="UTF-8"?>
<!DOCTYPE svg PUBLIC "-//W3C//DTD SVG 1.1//EN" "http://www.w3.org/Graphics/SVG/1.1/DTD/svg11.dtd">
<svg xmlns="http://www.w3.org/2000/svg" version="1.1" width="96px" height="96px" style="shape-rendering:geometricPrecision; text-rendering:geometricPrecision; image-rendering:optimizeQuality; fill-rule:evenodd; clip-rule:evenodd" xmlns:xlink="http://www.w3.org/1999/xlink">
<g><path style="opacity:0.757" fill="#0c0c0c" d="M 37.5,-0.5 C 44.1667,-0.5 50.8333,-0.5 57.5,-0.5C 77.1667,5.16667 89.8333,17.8333 95.5,37.5C 95.5,44.1667 95.5,50.8333 95.5,57.5C 89.8333,77.1667 77.1667,89.8333 57.5,95.5C 50.8333,95.5 44.1667,95.5 37.5,95.5C 17.8333,89.8333 5.16667,77.1667 -0.5,57.5C -0.5,50.8333 -0.5,44.1667 -0.5,37.5C 5.16667,17.8333 17.8333,5.16667 37.5,-0.5 Z"/></g>
<g><path style="opacity:0.998" fill="#f7f7f7" d="M 40.5,1.5 C 68.4585,0.551094 85.9585,13.5511 93,40.5C 94.4411,68.4462 81.6078,85.9462 54.5,93C 26.5355,94.4346 9.03546,81.6012 2,54.5C 0.679321,26.4524 13.5127,8.78571 40.5,1.5 Z"/></g>
<g><path style="opacity:1" fill="#353330" d="M 48.5,13.5 C 47.8333,13.5 47.1667,13.5 46.5,13.5C 47.1667,4.16667 47.8333,4.16667 48.5,13.5 Z"/></g>
<g><path style="opacity:1" fill="#141414" d="M 46.5,13.5 C 46.6495,14.552 46.4828,15.552 46,16.5C 44.6107,12.7279 43.6107,12.7279 43,16.5C 42.1627,14.9926 40.9961,14.4926 39.5,15C 41.0738,16.8259 41.9071,18.9925 42,21.5C 42.6708,22.2524 43.5041,22.5858 44.5,22.5C 47.1873,22.6641 49.854,22.4974 52.5,22C 53.3802,20.6439 53.7135,19.1439 53.5,17.5C 54.8547,14.203 54.3547,13.8696 52,16.5C 51.3893,12.7279 50.3893,12.7279 49,16.5C 48.5172,15.552 48.3505,14.552 48.5,13.5C 49.7124,12.7701 50.7124,11.7701 51.5,10.5C 52.3059,13.3617 53.6393,13.8617 55.5,12C 57.1667,11.3333 58.8333,11.3333 60.5,12C 59.8333,12.6667 59.1667,13.3333 58.5,14C 65.1115,14.3855 70.2782,17.2189 74,22.5C 74.0226,27.192 75.8559,31.0254 79.5,34C 77.5355,34.624 75.8689,34.124 74.5,32.5C 74.1667,32.8333 73.8333,33.1667 73.5,33.5C 79.2632,41.6194 80.0965,50.2861 76,59.5C 75.3333,58.8333 74.6667,58.1667 74,57.5C 71.7997,62.865 68.9663,67.865 65.5,72.5C 64.7492,71.624 64.2492,70.624 64,69.5C 62.0797,72.3388 60.4131,75.3388 59,78.5C 58.6667,77.8333 58.3333,77.1667 58,76.5C 56.4138,78.6705 55.0804,81.0038 54,83.5C 53.586,83.0426 53.086,82.7093 52.5,82.5C 50.5879,84.6572 48.9213,86.9906 47.5,89.5C 45.6667,87.1667 43.8333,84.8333 42,82.5C 41.6667,82.8333 41.3333,83.1667 41,83.5C 39.9196,81.0038 38.5862,78.6705 37,76.5C 36.6667,77.1667 36.3333,77.8333 36,78.5C 34.3333,75.5 32.6667,72.5 31,69.5C 30.7811,70.938 30.2811,72.2713 29.5,73.5C 26.4014,68.3027 23.5681,62.9693 21,57.5C 18.1755,60.3375 17.3421,60.0042 18.5,56.5C 15.0944,48.21 16.0944,40.5433 21.5,33.5C 21.1667,33.1667 20.8333,32.8333 20.5,32.5C 18.9222,33.6405 17.2555,34.1405 15.5,34C 18.6464,28.7279 21.6464,23.3946 24.5,18C 28.2896,16.1895 32.2896,15.0229 36.5,14.5C 34.1088,13.1914 34.1088,12.1914 36.5,11.5C 38.2743,11.8868 39.941,12.5535 41.5,13.5C 42.2508,12.624 42.7508,11.624 43,10.5C 44.0391,11.7101 45.2058,12.7101 46.5,13.5 Z"/></g>
<g><path style="opacity:1" fill="#e2c993" d="M 46.5,13.5 C 47.1667,13.5 47.8333,13.5 48.5,13.5C 48.3505,14.552 48.5172,15.552 49,16.5C 50.3893,12.7279 51.3893,12.7279 52,16.5C 54.3547,13.8696 54.8547,14.203 53.5,17.5C 50.3037,18.9287 47.3037,20.5954 44.5,22.5C 43.5041,22.5858 42.6708,22.2524 42,21.5C 41.9071,18.9925 41.0738,16.8259 39.5,15C 40.9961,14.4926 42.1627,14.9926 43,16.5C 43.6107,12.7279 44.6107,12.7279 46,16.5C 46.4828,15.552 46.6495,14.552 46.5,13.5 Z"/></g>
<g><path style="opacity:1" fill="#d6d6d6" d="M 29.5,17.5 C 31.5273,17.3379 33.5273,17.5045 35.5,18C 32.8976,18.9771 30.3976,20.1437 28,21.5C 27.1907,25.3961 25.8574,29.0627 24,32.5C 24.1953,30.8739 24.1953,29.2072 24,27.5C 23.1887,28.9597 22.3554,29.293 21.5,28.5C 22.0012,23.1319 24.6679,19.4652 29.5,17.5 Z"/></g>
<g><path style="opacity:1" fill="#e7ab0e" d="M 53.5,17.5 C 53.7135,19.1439 53.3802,20.6439 52.5,22C 49.854,22.4974 47.1873,22.6641 44.5,22.5C 47.3037,20.5954 50.3037,18.9287 53.5,17.5 Z"/></g>
<g><path style="opacity:1" fill="#d6d6d6" d="M 58.5,18.5 C 66.5414,16.8268 71.5414,20.1601 73.5,28.5C 72.6446,29.293 71.8113,28.9597 71,27.5C 71.0464,29.3126 70.8797,30.9793 70.5,32.5C 69.2717,28.7588 67.9383,25.0921 66.5,21.5C 64.1416,19.7134 61.475,18.7134 58.5,18.5 Z"/></g>
<g><path style="opacity:1" fill="#dcdcdc" d="M 32.5,21.5 C 34.5273,21.3379 36.5273,21.5045 38.5,22C 36.3207,24.5109 33.8207,26.6776 31,28.5C 31.2019,33.7554 30.3686,33.7554 28.5,28.5C 29.0707,25.6873 30.4041,23.354 32.5,21.5 Z"/></g>
<g><path style="opacity:1" fill="#e2e2e2" d="M 56.5,22.5 C 59.7525,20.8532 62.5858,21.5198 65,24.5C 65.8736,27.3787 65.5403,30.0454 64,32.5C 63.6667,30.8333 63.3333,29.1667 63,27.5C 60.6721,26.0007 58.5054,24.334 56.5,22.5 Z"/></g>
<g><path style="opacity:1" fill="#f4f4f4" d="M 38.5,52.5 C 41.0972,52.2792 41.0972,51.7792 38.5,51C 41.277,48.8266 41.1103,48.3266 38,49.5C 37.5172,48.552 37.3505,47.552 37.5,46.5C 36.2529,44.7148 34.4196,42.7148 32,40.5C 32.6334,35.2007 34.4667,30.2007 37.5,25.5C 43.8463,25.3464 50.1796,25.1798 56.5,25C 59.2158,28.9295 61.5491,33.0962 63.5,37.5C 62.4609,41.3747 60.1276,44.2081 56.5,46C 57.966,49.0387 57.6327,51.872 55.5,54.5C 50.1325,50.6211 44.7992,50.6211 39.5,54.5C 38.7025,54.0431 38.3691,53.3764 38.5,52.5 Z"/></g>
<g><path style="opacity:1" fill="#272727" d="M 38.5,36.5 C 40.2884,35.3775 42.2884,35.2109 44.5,36C 43.8095,37.0674 43.3095,38.2341 43,39.5C 41.3853,38.6138 39.8853,37.6138 38.5,36.5 Z"/></g>
<g><path style="opacity:1" fill="#0d0d0d" d="M 53.5,35.5 C 54.552,35.3505 55.552,35.5172 56.5,36C 55.1416,36.9344 53.8083,37.7677 52.5,38.5C 51.9569,38.44 51.6236,38.1067 51.5,37.5C 52.2427,36.8182 52.9094,36.1515 53.5,35.5 Z"/></g>
<g><path style="opacity:1" fill="#7a7a7a" d="M 53.5,35.5 C 52.9094,36.1515 52.2427,36.8182 51.5,37.5C 51.6236,38.1067 51.9569,38.44 52.5,38.5C 52.6309,39.3764 52.2975,40.0431 51.5,40.5C 50.5481,38.9547 50.2148,37.288 50.5,35.5C 51.5,35.5 52.5,35.5 53.5,35.5 Z"/></g>
<g><path style="opacity:1" fill="#e9e9e9" d="M 21.5,39.5 C 22.0967,39.7352 22.4301,40.2352 22.5,41C 21.7819,44.4605 21.2819,47.9605 21,51.5C 19.066,47.4274 19.2327,43.4274 21.5,39.5 Z"/></g>
<g><path style="opacity:1" fill="#e0e0e0" d="M 71.5,40.5 C 71.56,39.9569 71.8933,39.6236 72.5,39.5C 75.722,43.1644 76.222,47.1644 74,51.5C 73.6667,48.5 73.3333,45.5 73,42.5C 72.7216,41.5842 72.2216,40.9175 71.5,40.5 Z"/></g>
<g><path style="opacity:1" fill="#1b1b1b" d="M 43.5,45.5 C 46.1766,46.6436 48.8433,46.8103 51.5,46C 48.4468,50.6257 45.7801,50.4591 43.5,45.5 Z"/></g>
<g><path style="opacity:1" fill="#e4e4e4" d="M 65.5,37.5 C 69.165,41.0389 70.3317,45.3722 69,50.5C 68.7104,48.9559 68.0437,47.6226 67,46.5C 66.2627,51.6492 63.7627,55.6492 59.5,58.5C 59.1667,58.1667 58.8333,57.8333 58.5,57.5C 59.9718,54.2826 61.1385,50.9493 62,47.5C 62.3333,48.8333 62.6667,50.1667 63,51.5C 65.1036,47.0783 65.9369,42.4116 65.5,37.5 Z"/></g>
<g><path style="opacity:1" fill="#828282" d="M 37.5,46.5 C 37.3505,47.552 37.5172,48.552 38,49.5C 41.1103,48.3266 41.277,48.8266 38.5,51C 41.0972,51.7792 41.0972,52.2792 38.5,52.5C 36.5389,50.68 36.2056,48.68 37.5,46.5 Z"/></g>
<g><path style="opacity:1" fill="#e3e3e3" d="M 28.5,37.5 C 29.1808,42.1614 30.3474,46.828 32,51.5C 32.3333,50.1667 32.6667,48.8333 33,47.5C 34.392,51.3694 35.2254,55.0361 35.5,58.5C 31.2523,55.6869 28.7523,51.6869 28,46.5C 26.9563,47.6226 26.2896,48.9559 26,50.5C 24.9638,45.7731 25.7972,41.4398 28.5,37.5 Z"/></g>
<g><path style="opacity:1" fill="#f0f0f0" d="M 43.5,53.5 C 46.1873,53.3359 48.854,53.5026 51.5,54C 55.4121,55.7132 55.4121,57.5466 51.5,59.5C 50.914,59.2907 50.414,58.9574 50,58.5C 46.4,60.9303 43.2333,60.2636 40.5,56.5C 41.3398,55.265 42.3398,54.265 43.5,53.5 Z"/></g>
<g><path style="opacity:1" fill="#e3e3e3" d="M 26.5,56.5 C 29.6709,58.8305 32.5042,61.4972 35,64.5C 35.6667,66.1667 35.6667,67.8333 35,69.5C 33.3333,67.5 31.6667,65.5 30,63.5C 29.6667,64.5 29.3333,65.5 29,66.5C 26.9937,63.4642 26.1604,60.1309 26.5,56.5 Z"/></g>
<g><path style="opacity:1" fill="#e4e4e4" d="M 66.5,56.5 C 67.6935,56.9704 68.3601,57.9704 68.5,59.5C 68.2372,62.0278 67.4039,64.3611 66,66.5C 65.6667,65.5 65.3333,64.5 65,63.5C 62.9565,65.208 61.2899,67.208 60,69.5C 59.3333,67.8333 59.3333,66.1667 60,64.5C 62.386,61.9222 64.5527,59.2556 66.5,56.5 Z"/></g>
<g><path style="opacity:1" fill="#e8e8e8" d="M 43.5,70.5 C 43.7828,71.2891 44.2828,71.9558 45,72.5C 45.1981,70.6183 45.6981,68.9516 46.5,67.5C 46.3691,68.3764 46.7025,69.0431 47.5,69.5C 48.2811,68.2713 48.7811,66.938 49,65.5C 49.3333,67.8333 49.6667,70.1667 50,72.5C 50.9401,69.0917 52.1067,65.7583 53.5,62.5C 53.8333,62.1667 54.1667,61.8333 54.5,61.5C 55.9802,66.6983 55.4802,71.6983 53,76.5C 52.3333,75.1667 51.6667,75.1667 51,76.5C 49.8289,78.8422 48.6622,81.1756 47.5,83.5C 46.3378,81.1756 45.1711,78.8422 44,76.5C 43.3333,75.1667 42.6667,75.1667 42,76.5C 39.4301,71.7335 38.9301,66.7335 40.5,61.5C 42.8729,64.0177 43.8729,67.0177 43.5,70.5 Z"/></g>
<g><path style="opacity:1" fill="#797979" d="M 46.5,67.5 C 45.6981,68.9516 45.1981,70.6183 45,72.5C 44.2828,71.9558 43.7828,71.2891 43.5,70.5C 44.1635,68.9581 44.8302,67.2914 45.5,65.5C 46.2975,65.9569 46.6309,66.6236 46.5,67.5 Z"/></g>
</svg>
