<?xml version="1.0" encoding="UTF-8"?>
<!DOCTYPE svg PUBLIC "-//W3C//DTD SVG 1.1//EN" "http://www.w3.org/Graphics/SVG/1.1/DTD/svg11.dtd">
<svg xmlns="http://www.w3.org/2000/svg" version="1.1" width="96px" height="96px" style="shape-rendering:geometricPrecision; text-rendering:geometricPrecision; image-rendering:optimizeQuality; fill-rule:evenodd; clip-rule:evenodd" xmlns:xlink="http://www.w3.org/1999/xlink">
<g><path style="opacity:0.751" fill="#32485c" d="M 71.5,16.5 C 63.1767,15.1718 54.8433,13.8385 46.5,12.5C 38.8333,13.8334 31.1666,15.1667 23.5,16.5C 39.5,4.5 55.5,4.5 71.5,16.5 Z"/></g>
<g><path style="opacity:0.978" fill="#eaeced" d="M 71.5,16.5 C 75.2119,19.2109 78.2119,22.5442 80.5,26.5C 80.4457,33.5693 81.1124,40.5693 82.5,47.5C 79.3174,72.7708 64.984,84.2708 39.5,82C 24.6703,77.5059 15.8369,67.6725 13,52.5C 13.1614,43.8298 13.6614,35.1631 14.5,26.5C 16.7881,22.5442 19.7881,19.2109 23.5,16.5C 31.1666,15.1667 38.8333,13.8334 46.5,12.5C 54.8433,13.8385 63.1767,15.1718 71.5,16.5 Z"/></g>
<g><path style="opacity:1" fill="#afc4da" d="M 38.5,16.5 C 40.2922,17.3091 42.2922,17.8091 44.5,18C 46.1247,18.8525 46.4581,19.8525 45.5,21C 47.1341,21.4935 48.8008,21.6602 50.5,21.5C 50.5,23.1667 50.5,24.8333 50.5,26.5C 49.5655,25.4324 49.2322,24.099 49.5,22.5C 48.1667,22.5 46.8333,22.5 45.5,22.5C 45.5,23.8333 45.5,25.1667 45.5,26.5C 42.4021,26.7556 39.4021,27.4222 36.5,28.5C 35.0664,25.9528 33.3998,23.6195 31.5,21.5C 32.8333,20.5 32.8333,19.5 31.5,18.5C 33.7457,17.5448 36.079,16.8782 38.5,16.5 Z"/></g>
<g><path style="opacity:1" fill="#2e455a" d="M 31.5,18.5 C 32.8333,19.5 32.8333,20.5 31.5,21.5C 29.8333,22.5 28.5,23.8333 27.5,25.5C 25.1667,27.1667 23.1667,29.1667 21.5,31.5C 20.5,32.1667 19.5,32.8333 18.5,33.5C 16.6416,23.3485 20.9749,18.3485 31.5,18.5 Z"/></g>
<g><path style="opacity:1" fill="#31465b" d="M 64.5,18.5 C 71.8671,18.3638 76.5337,21.8638 78.5,29C 78.4753,30.876 77.8086,32.376 76.5,33.5C 72.2022,29.7036 68.0356,25.7036 64,21.5C 63.5304,20.4232 63.6971,19.4232 64.5,18.5 Z"/></g>
<g><path style="opacity:1" fill="#fdfdfd" d="M 50.5,26.5 C 55.8224,26.9079 59.989,29.2412 63,33.5C 63.4935,35.1341 63.6602,36.8008 63.5,38.5C 60.1667,38.5 56.8333,38.5 53.5,38.5C 53.9783,35.7224 52.9783,33.7224 50.5,32.5C 49.3414,36.122 49.1747,39.7887 50,43.5C 53.1239,44.7409 56.2905,45.9076 59.5,47C 61.1412,48.129 62.1412,49.629 62.5,51.5C 62.693,55.5662 62.3597,59.5662 61.5,63.5C 58.1689,66.6105 54.1689,67.9438 49.5,67.5C 49.5,69.1667 49.5,70.8333 49.5,72.5C 48.1667,72.5 46.8333,72.5 45.5,72.5C 45.7678,70.901 45.4345,69.5676 44.5,68.5C 43.4324,67.5655 42.099,67.2322 40.5,67.5C 36.5865,66.5501 33.9198,64.2167 32.5,60.5C 32.5,59.1667 32.5,57.8333 32.5,56.5C 35.1667,56.5 37.8333,56.5 40.5,56.5C 40.2729,58.9328 41.2729,60.5994 43.5,61.5C 43.56,62.0431 43.8933,62.3764 44.5,62.5C 45.4933,57.8804 45.8266,53.2137 45.5,48.5C 34.9365,47.9496 30.9365,42.6163 33.5,32.5C 34.5,31.1667 35.5,29.8333 36.5,28.5C 39.4021,27.4222 42.4021,26.7556 45.5,26.5C 45.5,25.1667 45.5,23.8333 45.5,22.5C 46.8333,22.5 48.1667,22.5 49.5,22.5C 49.2322,24.099 49.5655,25.4324 50.5,26.5 Z"/></g>
<g><path style="opacity:1" fill="#c1c3c7" d="M 31.5,21.5 C 33.3998,23.6195 35.0664,25.9528 36.5,28.5C 35.5,29.8333 34.5,31.1667 33.5,32.5C 30.4684,30.5158 28.4684,28.1825 27.5,25.5C 28.5,23.8333 29.8333,22.5 31.5,21.5 Z"/></g>
<g><path style="opacity:0.787" fill="#32475c" d="M 14.5,26.5 C 13.6614,35.1631 13.1614,43.8298 13,52.5C 15.8369,67.6725 24.6703,77.5059 39.5,82C 64.984,84.2708 79.3174,72.7708 82.5,47.5C 81.1124,40.5693 80.4457,33.5693 80.5,26.5C 91.9527,47.8733 87.9527,66.04 68.5,81C 46.9548,91.9964 28.7882,87.8297 14,68.5C 5.19296,54.2544 5.35963,40.2544 14.5,26.5 Z"/></g>
<g><path style="opacity:1" fill="#99c6df" d="M 64.5,18.5 C 63.6971,19.4232 63.5304,20.4232 64,21.5C 68.0356,25.7036 72.2022,29.7036 76.5,33.5C 79.6228,40.531 80.2894,47.8643 78.5,55.5C 74.6778,48.9977 69.6778,43.3311 63.5,38.5C 63.6602,36.8008 63.4935,35.1341 63,33.5C 59.989,29.2412 55.8224,26.9079 50.5,26.5C 50.5,24.8333 50.5,23.1667 50.5,21.5C 48.8008,21.6602 47.1341,21.4935 45.5,21C 46.4581,19.8525 46.1247,18.8525 44.5,18C 42.2922,17.8091 40.2922,17.3091 38.5,16.5C 47.1995,14.9205 55.8662,15.5872 64.5,18.5 Z"/></g>
<g><path style="opacity:1" fill="#bec3cb" d="M 43.5,32.5 C 44.7773,33.6936 45.4439,35.3603 45.5,37.5C 44.7483,43.8163 43.415,43.8163 41.5,37.5C 41.4365,35.4861 42.1032,33.8194 43.5,32.5 Z"/></g>
<g><path style="opacity:1" fill="#e5ca8e" d="M 18.5,34.5 C 23.1205,41.6403 28.7871,48.1403 35.5,54C 37.1667,54.3333 38.8333,54.6667 40.5,55C 37.3054,55.1805 34.3054,55.6805 31.5,56.5C 24.6183,52.2976 19.6183,46.6309 16.5,39.5C 16.4021,37.4471 17.0687,35.7804 18.5,34.5 Z"/></g>
<g><path style="opacity:1" fill="#dcc99f" d="M 21.5,31.5 C 24.5319,35.3643 27.3653,39.3643 30,43.5C 35.055,46.0289 39.555,49.3622 43.5,53.5C 44.8003,56.3092 44.8003,58.9759 43.5,61.5C 41.2729,60.5994 40.2729,58.9328 40.5,56.5C 37.8333,56.5 35.1667,56.5 32.5,56.5C 32.5,57.8333 32.5,59.1667 32.5,60.5C 31.5655,59.4324 31.2322,58.099 31.5,56.5C 34.3054,55.6805 37.3054,55.1805 40.5,55C 38.8333,54.6667 37.1667,54.3333 35.5,54C 28.7871,48.1403 23.1205,41.6403 18.5,34.5C 18.5,34.1667 18.5,33.8333 18.5,33.5C 19.5,32.8333 20.5,32.1667 21.5,31.5 Z"/></g>
<g><path style="opacity:1" fill="#d5c8aa" d="M 27.5,25.5 C 28.4684,28.1825 30.4684,30.5158 33.5,32.5C 30.9365,42.6163 34.9365,47.9496 45.5,48.5C 45.8266,53.2137 45.4933,57.8804 44.5,62.5C 43.8933,62.3764 43.56,62.0431 43.5,61.5C 44.8003,58.9759 44.8003,56.3092 43.5,53.5C 39.555,49.3622 35.055,46.0289 30,43.5C 27.3653,39.3643 24.5319,35.3643 21.5,31.5C 23.1667,29.1667 25.1667,27.1667 27.5,25.5 Z"/></g>
<g><path style="opacity:1" fill="#efcc7e" d="M 16.5,39.5 C 19.6183,46.6309 24.6183,52.2976 31.5,56.5C 31.2322,58.099 31.5655,59.4324 32.5,60.5C 33.9198,64.2167 36.5865,66.5501 40.5,67.5C 39.7375,68.2679 38.7375,68.7679 37.5,69C 40.6151,74.3088 44.9485,77.8088 50.5,79.5C 32.02,80.1957 20.52,71.529 16,53.5C 15.1849,48.6478 15.3516,43.9811 16.5,39.5 Z"/></g>
<g><path style="opacity:1" fill="#aec2d8" d="M 63.5,38.5 C 69.6778,43.3311 74.6778,48.9977 78.5,55.5C 77.5346,60.0976 75.5346,64.0976 72.5,67.5C 69.8991,64.3957 67.0657,61.3957 64,58.5C 63.8138,55.9644 63.3138,53.631 62.5,51.5C 62.1412,49.629 61.1412,48.129 59.5,47C 56.2905,45.9076 53.1239,44.7409 50,43.5C 49.1747,39.7887 49.3414,36.122 50.5,32.5C 52.9783,33.7224 53.9783,35.7224 53.5,38.5C 56.8333,38.5 60.1667,38.5 63.5,38.5 Z"/></g>
<g><path style="opacity:1" fill="#cec5b3" d="M 49.5,50.5 C 52.4301,50.981 53.7634,52.8143 53.5,56C 53.9546,58.9231 52.9546,61.0897 50.5,62.5C 49.5091,58.5546 49.1758,54.5546 49.5,50.5 Z"/></g>
<g><path style="opacity:1" fill="#c3c3c4" d="M 62.5,51.5 C 63.3138,53.631 63.8138,55.9644 64,58.5C 67.0657,61.3957 69.8991,64.3957 72.5,67.5C 71.8333,68.8333 70.8333,69.8333 69.5,70.5C 66.8587,68.1956 64.192,65.8623 61.5,63.5C 62.3597,59.5662 62.693,55.5662 62.5,51.5 Z"/></g>
<g><path style="opacity:1" fill="#e7c988" d="M 40.5,67.5 C 42.099,67.2322 43.4324,67.5655 44.5,68.5C 44.5,70.1667 44.5,71.8333 44.5,73.5C 46.5,73.5 48.5,73.5 50.5,73.5C 50.3398,71.8008 50.5065,70.1341 51,68.5C 52.6878,72.6852 55.5212,75.6852 59.5,77.5C 56.6916,78.9288 53.6916,79.5955 50.5,79.5C 44.9485,77.8088 40.6151,74.3088 37.5,69C 38.7375,68.7679 39.7375,68.2679 40.5,67.5 Z"/></g>
<g><path style="opacity:1" fill="#d6c7a8" d="M 61.5,63.5 C 64.192,65.8623 66.8587,68.1956 69.5,70.5C 66.7435,73.5792 63.4101,75.9125 59.5,77.5C 55.5212,75.6852 52.6878,72.6852 51,68.5C 50.5065,70.1341 50.3398,71.8008 50.5,73.5C 48.5,73.5 46.5,73.5 44.5,73.5C 44.5,71.8333 44.5,70.1667 44.5,68.5C 45.4345,69.5676 45.7678,70.901 45.5,72.5C 46.8333,72.5 48.1667,72.5 49.5,72.5C 49.5,70.8333 49.5,69.1667 49.5,67.5C 54.1689,67.9438 58.1689,66.6105 61.5,63.5 Z"/></g>
</svg>
