<?xml version="1.0" encoding="UTF-8"?>
<!DOCTYPE svg PUBLIC "-//W3C//DTD SVG 1.1//EN" "http://www.w3.org/Graphics/SVG/1.1/DTD/svg11.dtd">
<svg xmlns="http://www.w3.org/2000/svg" version="1.1" width="96px" height="96px" style="shape-rendering:geometricPrecision; text-rendering:geometricPrecision; image-rendering:optimizeQuality; fill-rule:evenodd; clip-rule:evenodd" xmlns:xlink="http://www.w3.org/1999/xlink">
<g><path style="opacity:0.396" fill="#afa09d" d="M 65.5,2.5 C 65.5,3.5 65.5,4.5 65.5,5.5C 53.3217,5.17159 41.3217,5.50492 29.5,6.5C 21.5,13.8333 13.8333,21.5 6.5,29.5C 5.83333,29.5 5.5,29.8333 5.5,30.5C 5.15953,42.7014 4.15953,54.7014 2.5,66.5C 2.33345,53.8289 2.50012,41.1623 3,28.5C 11.5,20 20,11.5 28.5,3C 40.8288,2.50012 53.1622,2.33346 65.5,2.5 Z"/></g>
<g><path style="opacity:1" fill="#fbef11" d="M 29.5,6.5 C 38.5062,6.33356 47.5062,6.50023 56.5,7C 54.8333,7.33333 53.1667,7.66667 51.5,8C 55.1667,8.33333 58.8333,8.66667 62.5,9C 52.3249,9.16985 42.3249,9.66985 32.5,10.5C 31.8333,10.5 31.5,10.8333 31.5,11.5C 28.9855,13.1816 26.9855,15.3483 25.5,18C 26.5655,21.0937 27.2322,24.2604 27.5,27.5C 24.3035,27.0272 21.1368,26.3606 18,25.5C 15.0135,27.3201 12.5135,29.6534 10.5,32.5C 9.51045,38.31 9.17711,44.31 9.5,50.5C 8.67526,46.3528 8.17526,42.0195 8,37.5C 7.66667,40.8333 7.33333,44.1667 7,47.5C 6.50051,41.5092 6.33385,35.5092 6.5,29.5C 13.8333,21.5 21.5,13.8333 29.5,6.5 Z"/></g>
<g><path style="opacity:1" fill="#969267" d="M 31.5,11.5 C 31.5,10.8333 31.8333,10.5 32.5,10.5C 43.0135,10.1724 53.3468,10.5058 63.5,11.5C 62.209,11.2627 61.209,11.596 60.5,12.5C 51.8333,12.5 43.1667,12.5 34.5,12.5C 33.791,11.596 32.791,11.2627 31.5,11.5 Z"/></g>
<g><path style="opacity:1" fill="#f7d51a" d="M 29.5,6.5 C 41.3217,5.50492 53.3217,5.17159 65.5,5.5C 73.1667,13.5 80.8333,21.5 88.5,29.5C 87.8826,29.6107 87.3826,29.944 87,30.5C 85.3333,28.8333 83.6667,27.1667 82,25.5C 82.1953,27.745 83.3619,29.5784 85.5,31C 85.2716,31.3988 84.9382,31.5654 84.5,31.5C 82.1522,29.3198 79.6522,27.3198 77,25.5C 74.0255,26.118 71.1922,27.118 68.5,28.5C 68.1667,27.8333 67.8333,27.1667 67.5,26.5C 71.2126,20.0375 69.8792,15.0375 63.5,11.5C 53.3468,10.5058 43.0135,10.1724 32.5,10.5C 42.3249,9.66985 52.3249,9.16985 62.5,9C 58.8333,8.66667 55.1667,8.33333 51.5,8C 53.1667,7.66667 54.8333,7.33333 56.5,7C 47.5062,6.50023 38.5062,6.33356 29.5,6.5 Z"/></g>
<g><path style="opacity:1" fill="#f5f8ef" d="M 31.5,11.5 C 32.791,11.2627 33.791,11.596 34.5,12.5C 34.3284,13.4916 34.6618,14.1583 35.5,14.5C 36.8948,18.5151 38.3948,22.5151 40,26.5C 45,27.8333 50,27.8333 55,26.5C 56.6052,22.5151 58.1052,18.5151 59.5,14.5C 60.3382,14.1583 60.6716,13.4916 60.5,12.5C 61.209,11.596 62.209,11.2627 63.5,11.5C 63.5,12.1667 63.5,12.8333 63.5,13.5C 62.6618,13.8417 62.3284,14.5084 62.5,15.5C 60.2628,19.5344 58.5961,23.8677 57.5,28.5C 56.8333,28.5 56.1667,28.5 55.5,28.5C 50.4889,28.3341 45.4889,28.5007 40.5,29C 39.5842,29.2784 38.9175,29.7784 38.5,30.5C 38.5,31.1667 38.5,31.8333 38.5,32.5C 37.0413,32.5674 35.7079,32.2341 34.5,31.5C 35.6854,30.1434 36.6854,28.6434 37.5,27C 35.7291,23.1787 34.0624,19.3454 32.5,15.5C 32.1667,14.8333 31.8333,14.1667 31.5,13.5C 31.5,12.8333 31.5,12.1667 31.5,11.5 Z"/></g>
<g><path style="opacity:1" fill="#98d667" d="M 34.5,12.5 C 43.1667,12.5 51.8333,12.5 60.5,12.5C 60.6716,13.4916 60.3382,14.1583 59.5,14.5C 51.5,13.1667 43.5,13.1667 35.5,14.5C 34.6618,14.1583 34.3284,13.4916 34.5,12.5 Z"/></g>
<g><path style="opacity:1" fill="#b4f55c" d="M 59.5,14.5 C 58.1052,18.5151 56.6052,22.5151 55,26.5C 50,27.8333 45,27.8333 40,26.5C 38.3948,22.5151 36.8948,18.5151 35.5,14.5C 43.5,13.1667 51.5,13.1667 59.5,14.5 Z"/></g>
<g><path style="opacity:0.004" fill="#9e8578" d="M 65.5,2.5 C 74.7365,11.2806 83.7365,20.2806 92.5,29.5C 91.391,29.5569 90.391,29.8902 89.5,30.5C 89.5,29.8333 89.1667,29.5 88.5,29.5C 80.8333,21.5 73.1667,13.5 65.5,5.5C 65.5,4.5 65.5,3.5 65.5,2.5 Z"/></g>
<g><path style="opacity:1" fill="#95786a" d="M 63.5,11.5 C 69.8792,15.0375 71.2126,20.0375 67.5,26.5C 67.8333,27.1667 68.1667,27.8333 68.5,28.5C 71.1922,27.118 74.0255,26.118 77,25.5C 79.6522,27.3198 82.1522,29.3198 84.5,31.5C 84.5,31.8333 84.5,32.1667 84.5,32.5C 84.6665,42.8387 84.4998,53.172 84,63.5C 83.2917,64.3805 82.4584,65.0472 81.5,65.5C 81.5,65.1667 81.5,64.8333 81.5,64.5C 81.1667,63.8333 80.8333,63.1667 80.5,62.5C 81.1667,62.5 81.5,62.1667 81.5,61.5C 83.4711,52.8955 84.1377,43.8955 83.5,34.5C 83.6716,33.5084 83.3382,32.8417 82.5,32.5C 81.1018,30.1011 79.1018,28.4344 76.5,27.5C 72.9044,28.2729 69.4044,29.2729 66,30.5C 65.5357,29.9056 65.369,29.2389 65.5,28.5C 65.5,28.1667 65.5,27.8333 65.5,27.5C 66.5644,24.8136 67.5644,21.9802 68.5,19C 67.3496,16.6836 65.6829,14.8502 63.5,13.5C 63.5,12.8333 63.5,12.1667 63.5,11.5 Z"/></g>
<g><path style="opacity:1" fill="#73cc52" d="M 63.5,13.5 C 65.6829,14.8502 67.3496,16.6836 68.5,19C 67.5644,21.9802 66.5644,24.8136 65.5,27.5C 65.665,24.1501 65.4983,20.8168 65,17.5C 64.2917,16.6195 63.4584,15.9528 62.5,15.5C 62.3284,14.5084 62.6618,13.8417 63.5,13.5 Z"/></g>
<g><path style="opacity:1" fill="#a1887b" d="M 31.5,11.5 C 31.5,12.1667 31.5,12.8333 31.5,13.5C 29.201,14.6322 27.8677,16.4655 27.5,19C 28.4089,22.4661 29.0756,25.9661 29.5,29.5C 25.9661,29.0756 22.4661,28.4089 19,27.5C 16.12,28.2104 13.9533,29.877 12.5,32.5C 11.8333,32.5 11.1667,32.5 10.5,32.5C 12.5135,29.6534 15.0135,27.3201 18,25.5C 21.1368,26.3606 24.3035,27.0272 27.5,27.5C 27.2322,24.2604 26.5655,21.0937 25.5,18C 26.9855,15.3483 28.9855,13.1816 31.5,11.5 Z"/></g>
<g><path style="opacity:1" fill="#f3fce5" d="M 55.5,28.5 C 56.1667,28.5 56.8333,28.5 57.5,28.5C 61.1456,31.4789 64.479,34.8123 67.5,38.5C 71.7398,36.2122 76.0731,34.2122 80.5,32.5C 81.1667,32.5 81.8333,32.5 82.5,32.5C 83.3382,32.8417 83.6716,33.5084 83.5,34.5C 82.5084,34.3284 81.8417,34.6618 81.5,35.5C 77.0515,36.8919 72.7181,38.5586 68.5,40.5C 67.6739,45.3165 67.1739,50.3165 67,55.5C 66.8261,50.3165 66.3261,45.3165 65.5,40.5C 62.5,36.8333 59.1667,33.5 55.5,30.5C 55.5,30.1667 55.5,29.8333 55.5,29.5C 55.5,29.1667 55.5,28.8333 55.5,28.5 Z"/></g>
<g><path style="opacity:1" fill="#74d151" d="M 82.5,32.5 C 81.8333,32.5 81.1667,32.5 80.5,32.5C 79.0539,31.0598 77.2206,30.3932 75,30.5C 71.5274,31.1629 68.0274,31.4963 64.5,31.5C 64.2627,30.209 64.596,29.209 65.5,28.5C 65.369,29.2389 65.5357,29.9056 66,30.5C 69.4044,29.2729 72.9044,28.2729 76.5,27.5C 79.1018,28.4344 81.1018,30.1011 82.5,32.5 Z"/></g>
<g><path style="opacity:1" fill="#cbe09c" d="M 31.5,13.5 C 31.8333,14.1667 32.1667,14.8333 32.5,15.5C 30.5159,15.484 29.5159,16.484 29.5,18.5C 30.9128,22.7235 31.5795,27.0568 31.5,31.5C 27.934,31.6854 24.6007,31.0188 21.5,29.5C 18.6231,29.381 16.9564,30.7144 16.5,33.5C 15.391,33.4431 14.391,33.1098 13.5,32.5C 13.1667,32.5 12.8333,32.5 12.5,32.5C 13.9533,29.877 16.12,28.2104 19,27.5C 22.4661,28.4089 25.9661,29.0756 29.5,29.5C 29.0756,25.9661 28.4089,22.4661 27.5,19C 27.8677,16.4655 29.201,14.6322 31.5,13.5 Z"/></g>
<g><path style="opacity:1" fill="#e4fd9d" d="M 32.5,15.5 C 34.0624,19.3454 35.7291,23.1787 37.5,27C 36.6854,28.6434 35.6854,30.1434 34.5,31.5C 32.1094,33.8937 29.4427,35.8937 26.5,37.5C 22.8569,36.6693 19.5236,35.336 16.5,33.5C 16.9564,30.7144 18.6231,29.381 21.5,29.5C 24.6007,31.0188 27.934,31.6854 31.5,31.5C 31.5795,27.0568 30.9128,22.7235 29.5,18.5C 29.5159,16.484 30.5159,15.484 32.5,15.5 Z"/></g>
<g><path style="opacity:1" fill="#fafeee" d="M 55.5,28.5 C 55.5,28.8333 55.5,29.1667 55.5,29.5C 51.774,29.1774 48.1073,29.5108 44.5,30.5C 45.8432,32.9044 47.1766,35.2377 48.5,37.5C 49.4552,39.7457 50.1218,42.079 50.5,44.5C 49.8669,44.8795 49.2003,45.2129 48.5,45.5C 49.1667,46.8333 49.8333,48.1667 50.5,49.5C 50.3764,50.1067 50.0431,50.44 49.5,50.5C 47.4673,46.4347 45.4673,42.4347 43.5,38.5C 42.8046,35.0846 41.1379,32.4179 38.5,30.5C 38.9175,29.7784 39.5842,29.2784 40.5,29C 45.4889,28.5007 50.4889,28.3341 55.5,28.5 Z"/></g>
<g><path style="opacity:1" fill="#7ded42" d="M 62.5,15.5 C 63.4584,15.9528 64.2917,16.6195 65,17.5C 65.4983,20.8168 65.665,24.1501 65.5,27.5C 65.5,27.8333 65.5,28.1667 65.5,28.5C 64.596,29.209 64.2627,30.209 64.5,31.5C 68.0274,31.4963 71.5274,31.1629 75,30.5C 77.2206,30.3932 79.0539,31.0598 80.5,32.5C 76.0731,34.2122 71.7398,36.2122 67.5,38.5C 64.479,34.8123 61.1456,31.4789 57.5,28.5C 58.5961,23.8677 60.2628,19.5344 62.5,15.5 Z"/></g>
<g><path style="opacity:1" fill="#fbfef3" d="M 34.5,31.5 C 35.7079,32.2341 37.0413,32.5674 38.5,32.5C 40.2927,34.4261 41.2927,36.7594 41.5,39.5C 38.4299,40.5646 36.0966,42.8979 34.5,46.5C 33.5133,44.5266 32.5133,42.5266 31.5,40.5C 30.7435,39.2267 30.0768,39.2267 29.5,40.5C 28.6739,45.3165 28.1739,50.3165 28,55.5C 27.8261,50.3165 27.3261,45.3165 26.5,40.5C 22.8333,39.1667 19.1667,37.8333 15.5,36.5C 15.1583,35.6618 14.4916,35.3284 13.5,35.5C 13.5,35.1667 13.5,34.8333 13.5,34.5C 13.5,33.8333 13.5,33.1667 13.5,32.5C 14.391,33.1098 15.391,33.4431 16.5,33.5C 19.5236,35.336 22.8569,36.6693 26.5,37.5C 29.4427,35.8937 32.1094,33.8937 34.5,31.5 Z"/></g>
<g><path style="opacity:1" fill="#b3f771" d="M 55.5,29.5 C 55.5,29.8333 55.5,30.1667 55.5,30.5C 54.141,33.859 51.8077,36.1924 48.5,37.5C 47.1766,35.2377 45.8432,32.9044 44.5,30.5C 48.1073,29.5108 51.774,29.1774 55.5,29.5 Z"/></g>
<g><path style="opacity:1" fill="#b1a5aa" d="M 10.5,32.5 C 11.1667,32.5 11.8333,32.5 12.5,32.5C 12.8333,32.5 13.1667,32.5 13.5,32.5C 13.5,33.1667 13.5,33.8333 13.5,34.5C 12.1739,38.6139 11.5073,43.1139 11.5,48C 11.5073,52.8861 12.1739,57.3861 13.5,61.5C 14.1667,61.5 14.5,61.8333 14.5,62.5C 14.1667,63.1667 13.8333,63.8333 13.5,64.5C 14.7079,67.0442 16.7079,68.3775 19.5,68.5C 19.5,68.8333 19.5,69.1667 19.5,69.5C 15.8527,69.3784 13.0194,67.7118 11,64.5C 10.5002,53.8385 10.3335,43.1719 10.5,32.5 Z"/></g>
<g><path style="opacity:1" fill="#98c273" d="M 13.5,34.5 C 13.5,34.8333 13.5,35.1667 13.5,35.5C 12.1667,43.8333 12.1667,52.1667 13.5,60.5C 13.5,60.8333 13.5,61.1667 13.5,61.5C 12.1739,57.3861 11.5073,52.8861 11.5,48C 11.5073,43.1139 12.1739,38.6139 13.5,34.5 Z"/></g>
<g><path style="opacity:1" fill="#a0dc63" d="M 13.5,35.5 C 14.4916,35.3284 15.1583,35.6618 15.5,36.5C 14.1768,39.9377 13.5102,43.771 13.5,48C 13.5102,52.229 14.1768,56.0623 15.5,59.5C 15.1583,60.3382 14.4916,60.6716 13.5,60.5C 12.1667,52.1667 12.1667,43.8333 13.5,35.5 Z"/></g>
<g><path style="opacity:1" fill="#41a457" d="M 81.5,35.5 C 81.8417,34.6618 82.5084,34.3284 83.5,34.5C 84.1377,43.8955 83.4711,52.8955 81.5,61.5C 81.5,61.1667 81.5,60.8333 81.5,60.5C 82.8333,52.1667 82.8333,43.8333 81.5,35.5 Z"/></g>
<g><path style="opacity:1" fill="#b3f558" d="M 15.5,36.5 C 19.1667,37.8333 22.8333,39.1667 26.5,40.5C 26.8275,45.544 26.4941,50.544 25.5,55.5C 22.1454,56.8462 18.8121,58.1796 15.5,59.5C 14.1768,56.0623 13.5102,52.229 13.5,48C 13.5102,43.771 14.1768,39.9377 15.5,36.5 Z"/></g>
<g><path style="opacity:1" fill="#c9fa86" d="M 38.5,30.5 C 41.1379,32.4179 42.8046,35.0846 43.5,38.5C 42.8333,38.5 42.5,38.8333 42.5,39.5C 42.1667,39.5 41.8333,39.5 41.5,39.5C 41.2927,36.7594 40.2927,34.4261 38.5,32.5C 38.5,31.8333 38.5,31.1667 38.5,30.5 Z"/></g>
<g><path style="opacity:1" fill="#36cd36" d="M 81.5,35.5 C 82.8333,43.8333 82.8333,52.1667 81.5,60.5C 77.2208,59.1288 73.0541,57.4622 69,55.5C 68.5007,50.5111 68.3341,45.5111 68.5,40.5C 72.7181,38.5586 77.0515,36.8919 81.5,35.5 Z"/></g>
<g><path style="opacity:1" fill="#f9feea" d="M 41.5,39.5 C 41.8333,39.5 42.1667,39.5 42.5,39.5C 44.1185,43.069 45.4519,46.7356 46.5,50.5C 46.5654,50.9382 46.3988,51.2716 46,51.5C 45.5,50.5 45,49.5 44.5,48.5C 43.9984,47.479 43.3317,47.3123 42.5,48C 41.3333,49.1667 40.1667,50.3333 39,51.5C 39.3308,53.0187 39.1641,54.352 38.5,55.5C 38.0679,54.2905 37.4013,53.2905 36.5,52.5C 35.8333,50.5 35.1667,48.5 34.5,46.5C 36.0966,42.8979 38.4299,40.5646 41.5,39.5 Z"/></g>
<g><path style="opacity:1" fill="#7fe553" d="M 43.5,38.5 C 45.4673,42.4347 47.4673,46.4347 49.5,50.5C 51.6255,55.2548 53.6255,60.0882 55.5,65C 55.1667,65.5 54.8333,66 54.5,66.5C 53.6751,64.6404 52.6751,62.9738 51.5,61.5C 50.4078,57.55 48.7411,53.8833 46.5,50.5C 45.4519,46.7356 44.1185,43.069 42.5,39.5C 42.5,38.8333 42.8333,38.5 43.5,38.5 Z"/></g>
<g><path style="opacity:1" fill="#7cea48" d="M 55.5,30.5 C 59.1667,33.5 62.5,36.8333 65.5,40.5C 65.5,41.5 65.5,42.5 65.5,43.5C 61.1353,45.8646 57.802,49.198 55.5,53.5C 54.0713,50.3037 52.4046,47.3037 50.5,44.5C 50.1218,42.079 49.4552,39.7457 48.5,37.5C 51.8077,36.1924 54.141,33.859 55.5,30.5 Z"/></g>
<g><path style="opacity:1" fill="#f7fee3" d="M 46.5,50.5 C 48.7411,53.8833 50.4078,57.55 51.5,61.5C 50.0303,60.7754 48.8637,59.1088 48,56.5C 46.3163,58.3513 44.4829,60.018 42.5,61.5C 43.6527,62.6868 43.6527,63.6868 42.5,64.5C 40.8946,61.6223 39.5612,58.6223 38.5,55.5C 39.1641,54.352 39.3308,53.0187 39,51.5C 40.1667,50.3333 41.3333,49.1667 42.5,48C 43.3317,47.3123 43.9984,47.479 44.5,48.5C 45,49.5 45.5,50.5 46,51.5C 46.3988,51.2716 46.5654,50.9382 46.5,50.5 Z"/></g>
<g><path style="opacity:1" fill="#4eca4d" d="M 65.5,43.5 C 65.6657,47.8461 65.499,52.1794 65,56.5C 63.3163,58.3513 61.4829,60.018 59.5,61.5C 57.6284,59.0901 56.295,56.4234 55.5,53.5C 57.802,49.198 61.1353,45.8646 65.5,43.5 Z"/></g>
<g><path style="opacity:1" fill="#fec40d" d="M 88.5,29.5 C 89.1667,29.5 89.5,29.8333 89.5,30.5C 89.5,37.1667 89.5,43.8333 89.5,50.5C 88.8333,53.5 88.1667,56.5 87.5,59.5C 87.631,58.7611 87.4643,58.0944 87,57.5C 86.6667,59.5 86.3333,61.5 86,63.5C 85.8303,52.9919 85.3303,42.6585 84.5,32.5C 84.5,32.1667 84.5,31.8333 84.5,31.5C 84.9382,31.5654 85.2716,31.3988 85.5,31C 83.3619,29.5784 82.1953,27.745 82,25.5C 83.6667,27.1667 85.3333,28.8333 87,30.5C 87.3826,29.944 87.8826,29.6107 88.5,29.5 Z"/></g>
<g><path style="opacity:1" fill="#b2f76f" d="M 34.5,46.5 C 35.1667,48.5 35.8333,50.5 36.5,52.5C 34.1667,53.5 32.5,55.1667 31.5,57.5C 30.8826,57.3893 30.3826,57.056 30,56.5C 29.5006,51.1771 29.334,45.8437 29.5,40.5C 30.0768,39.2267 30.7435,39.2267 31.5,40.5C 32.5133,42.5266 33.5133,44.5266 34.5,46.5 Z"/></g>
<g><path style="opacity:1" fill="#f1fcd9" d="M 65.5,40.5 C 66.3261,45.3165 66.8261,50.3165 67,55.5C 67.1739,50.3165 67.6739,45.3165 68.5,40.5C 68.3341,45.5111 68.5007,50.5111 69,55.5C 73.0541,57.4622 77.2208,59.1288 81.5,60.5C 81.5,60.8333 81.5,61.1667 81.5,61.5C 81.5,62.1667 81.1667,62.5 80.5,62.5C 75.711,61.0693 71.0443,59.5693 66.5,58C 63.1168,61.0467 60.1168,64.38 57.5,68C 59.0438,72.2487 60.7105,76.4153 62.5,80.5C 62.5569,81.609 62.8902,82.609 63.5,83.5C 62.5,83.5 61.5,83.5 60.5,83.5C 60.7373,82.209 60.404,81.209 59.5,80.5C 58.2224,76.3328 56.5557,72.3328 54.5,68.5C 50.5,67.8333 46.5,67.1667 42.5,66.5C 42.5,65.8333 42.5,65.1667 42.5,64.5C 43.6527,63.6868 43.6527,62.6868 42.5,61.5C 44.4829,60.018 46.3163,58.3513 48,56.5C 48.8637,59.1088 50.0303,60.7754 51.5,61.5C 52.6751,62.9738 53.6751,64.6404 54.5,66.5C 54.8333,66 55.1667,65.5 55.5,65C 53.6255,60.0882 51.6255,55.2548 49.5,50.5C 50.0431,50.44 50.3764,50.1067 50.5,49.5C 49.8333,48.1667 49.1667,46.8333 48.5,45.5C 49.2003,45.2129 49.8669,44.8795 50.5,44.5C 52.4046,47.3037 54.0713,50.3037 55.5,53.5C 56.295,56.4234 57.6284,59.0901 59.5,61.5C 61.4829,60.018 63.3163,58.3513 65,56.5C 65.499,52.1794 65.6657,47.8461 65.5,43.5C 65.5,42.5 65.5,41.5 65.5,40.5 Z"/></g>
<g><path style="opacity:1" fill="#fce407" d="M 6.5,29.5 C 6.33385,35.5092 6.50051,41.5092 7,47.5C 7.33333,44.1667 7.66667,40.8333 8,37.5C 8.17526,42.0195 8.67526,46.3528 9.5,50.5C 9.66568,54.8461 9.49902,59.1794 9,63.5C 8.3507,60.0626 7.8507,59.896 7.5,63C 9.29627,66.2961 11.2963,69.4627 13.5,72.5C 10.8697,70.3719 8.36971,68.0386 6,65.5C 5.50014,53.8381 5.33347,42.1714 5.5,30.5C 5.5,29.8333 5.83333,29.5 6.5,29.5 Z"/></g>
<g><path style="opacity:1" fill="#83ed4d" d="M 36.5,52.5 C 37.4013,53.2905 38.0679,54.2905 38.5,55.5C 39.5612,58.6223 40.8946,61.6223 42.5,64.5C 42.5,65.1667 42.5,65.8333 42.5,66.5C 37.9879,64.666 34.3212,61.666 31.5,57.5C 32.5,55.1667 34.1667,53.5 36.5,52.5 Z"/></g>
<g><path style="opacity:1" fill="#7cea44" d="M 32.5,80.5 C 28.9924,78.5749 27.659,75.5749 28.5,71.5C 29.1495,69.5648 29.4828,67.5648 29.5,65.5C 27.5,65.8333 25.5,66.1667 23.5,66.5C 19.9206,66.6837 16.5873,66.017 13.5,64.5C 13.8333,63.8333 14.1667,63.1667 14.5,62.5C 17.6729,61.8303 20.6729,60.6636 23.5,59C 25.1667,58.3333 26.8333,58.3333 28.5,59C 31.6828,62.0155 34.6828,65.1822 37.5,68.5C 35.8182,72.5258 34.1515,76.5258 32.5,80.5 Z"/></g>
<g><path style="opacity:1" fill="#f5b329" d="M 84.5,32.5 C 85.3303,42.6585 85.8303,52.9919 86,63.5C 86.3333,61.5 86.6667,59.5 87,57.5C 87.4643,58.0944 87.631,58.7611 87.5,59.5C 87.6621,61.5273 87.4955,63.5273 87,65.5C 79.5,73 72,80.5 64.5,88C 60.5,88.6667 56.5,88.6667 52.5,88C 56.0458,86.8263 59.7125,86.1596 63.5,86C 55.1733,85.5003 46.84,85.3336 38.5,85.5C 35.9407,85.8016 33.6074,85.4682 31.5,84.5C 42.3464,84.8278 53.0131,84.4944 63.5,83.5C 65.1667,82.5 66.5,81.1667 67.5,79.5C 70.0341,77.2496 70.0341,74.9163 67.5,72.5C 67.5,71.1667 67.5,69.8333 67.5,68.5C 70.836,68.467 74.0027,69.1336 77,70.5C 77.7172,69.9558 78.2172,69.2891 78.5,68.5C 79.8333,67.8333 80.8333,66.8333 81.5,65.5C 82.4584,65.0472 83.2917,64.3805 84,63.5C 84.4998,53.172 84.6665,42.8387 84.5,32.5 Z"/></g>
<g><path style="opacity:1" fill="#2bac58" d="M 80.5,62.5 C 80.8333,63.1667 81.1667,63.8333 81.5,64.5C 79.7912,66.1077 77.1245,67.1077 73.5,67.5C 71.4352,67.4828 69.4352,67.1495 67.5,66.5C 66.791,65.596 65.791,65.2627 64.5,65.5C 64.3584,69.1501 65.0251,72.6501 66.5,76C 65.6853,77.9802 64.352,79.4802 62.5,80.5C 60.7105,76.4153 59.0438,72.2487 57.5,68C 60.1168,64.38 63.1168,61.0467 66.5,58C 71.0443,59.5693 75.711,61.0693 80.5,62.5 Z"/></g>
<g><path style="opacity:1" fill="#73c657" d="M 13.5,64.5 C 16.5873,66.017 19.9206,66.6837 23.5,66.5C 22.1667,67.1667 20.8333,67.8333 19.5,68.5C 16.7079,68.3775 14.7079,67.0442 13.5,64.5 Z"/></g>
<g><path style="opacity:1" fill="#b09b89" d="M 28.5,71.5 C 25.3458,75.8964 26.1791,79.5631 31,82.5C 31.3826,81.944 31.8826,81.6107 32.5,81.5C 32.5,82.1667 32.5,82.8333 32.5,83.5C 31.8333,83.5 31.5,83.8333 31.5,84.5C 28.8544,82.5211 26.5211,80.1878 24.5,77.5C 25.3456,74.4518 26.3456,71.4518 27.5,68.5C 27,68.1667 26.5,67.8333 26,67.5C 23.8458,68.2741 21.6792,68.9408 19.5,69.5C 19.5,69.1667 19.5,68.8333 19.5,68.5C 20.8333,67.8333 22.1667,67.1667 23.5,66.5C 25.5,66.1667 27.5,65.8333 29.5,65.5C 29.4828,67.5648 29.1495,69.5648 28.5,71.5 Z"/></g>
<g><path style="opacity:1" fill="#4c8f6b" d="M 81.5,64.5 C 81.5,64.8333 81.5,65.1667 81.5,65.5C 80.8333,66.8333 79.8333,67.8333 78.5,68.5C 76.5853,68.7845 74.9187,68.4511 73.5,67.5C 77.1245,67.1077 79.7912,66.1077 81.5,64.5 Z"/></g>
<g><path style="opacity:1" fill="#a89285" d="M 67.5,66.5 C 69.4352,67.1495 71.4352,67.4828 73.5,67.5C 74.9187,68.4511 76.5853,68.7845 78.5,68.5C 78.2172,69.2891 77.7172,69.9558 77,70.5C 74.0027,69.1336 70.836,68.467 67.5,68.5C 67.5,69.8333 67.5,71.1667 67.5,72.5C 65.0837,70.2949 65.0837,68.2949 67.5,66.5 Z"/></g>
<g><path style="opacity:1" fill="#97775d" d="M 92.5,29.5 C 92.8324,42.1842 92.4991,54.8508 91.5,67.5C 83.4794,75.1881 75.4794,82.8548 67.5,90.5C 67.1583,89.6618 66.4916,89.3284 65.5,89.5C 73.1309,81.3684 80.9642,73.3684 89,65.5C 89.4993,60.5111 89.6659,55.5111 89.5,50.5C 89.5,43.8333 89.5,37.1667 89.5,30.5C 90.391,29.8902 91.391,29.5569 92.5,29.5 Z"/></g>
<g><path style="opacity:1" fill="#f9cf1c" d="M 10.5,32.5 C 10.3335,43.1719 10.5002,53.8385 11,64.5C 13.0194,67.7118 15.8527,69.3784 19.5,69.5C 21.6792,68.9408 23.8458,68.2741 26,67.5C 26.5,67.8333 27,68.1667 27.5,68.5C 26.3456,71.4518 25.3456,74.4518 24.5,77.5C 26.5211,80.1878 28.8544,82.5211 31.5,84.5C 33.6074,85.4682 35.9407,85.8016 38.5,85.5C 35.2819,86.5267 31.9485,86.6934 28.5,86C 29.1667,86.6667 29.8333,87.3333 30.5,88C 34.0252,88.1787 37.3586,88.6787 40.5,89.5C 36.8183,89.6653 33.1516,89.4986 29.5,89C 23.9637,83.6314 18.6303,78.1314 13.5,72.5C 11.2963,69.4627 9.29627,66.2961 7.5,63C 7.8507,59.896 8.3507,60.0626 9,63.5C 9.49902,59.1794 9.66568,54.8461 9.5,50.5C 9.17711,44.31 9.51045,38.31 10.5,32.5 Z"/></g>
<g><path style="opacity:1" fill="#3ace38" d="M 54.5,68.5 C 56.5557,72.3328 58.2224,76.3328 59.5,80.5C 55.893,81.824 51.893,82.4907 47.5,82.5C 43.107,82.4907 39.107,81.824 35.5,80.5C 36.6786,76.4674 38.3453,72.634 40.5,69C 45.1548,68.5008 49.8215,68.3342 54.5,68.5 Z"/></g>
<g><path style="opacity:1" fill="#f4fde3" d="M 26.5,40.5 C 27.3261,45.3165 27.8261,50.3165 28,55.5C 28.1739,50.3165 28.6739,45.3165 29.5,40.5C 29.334,45.8437 29.5006,51.1771 30,56.5C 30.3826,57.056 30.8826,57.3893 31.5,57.5C 34.3212,61.666 37.9879,64.666 42.5,66.5C 46.5,67.1667 50.5,67.8333 54.5,68.5C 49.8215,68.3342 45.1548,68.5008 40.5,69C 38.3453,72.634 36.6786,76.4674 35.5,80.5C 34.6618,80.8417 34.3284,81.5084 34.5,82.5C 33.8333,82.8333 33.1667,83.1667 32.5,83.5C 32.5,82.8333 32.5,82.1667 32.5,81.5C 32.5,81.1667 32.5,80.8333 32.5,80.5C 34.1515,76.5258 35.8182,72.5258 37.5,68.5C 34.6828,65.1822 31.6828,62.0155 28.5,59C 26.8333,58.3333 25.1667,58.3333 23.5,59C 20.6729,60.6636 17.6729,61.8303 14.5,62.5C 14.5,61.8333 14.1667,61.5 13.5,61.5C 13.5,61.1667 13.5,60.8333 13.5,60.5C 14.4916,60.6716 15.1583,60.3382 15.5,59.5C 18.8121,58.1796 22.1454,56.8462 25.5,55.5C 26.4941,50.544 26.8275,45.544 26.5,40.5 Z"/></g>
<g><path style="opacity:1" fill="#aa8b68" d="M 5.5,30.5 C 5.33347,42.1714 5.50014,53.8381 6,65.5C 8.36971,68.0386 10.8697,70.3719 13.5,72.5C 18.6303,78.1314 23.9637,83.6314 29.5,89C 33.1516,89.4986 36.8183,89.6653 40.5,89.5C 48.8333,89.5 57.1667,89.5 65.5,89.5C 53.6783,90.4951 41.6783,90.8284 29.5,90.5C 29.5,91.5 29.5,92.5 29.5,93.5C 20.8333,84.1667 11.8333,75.1667 2.5,66.5C 4.15953,54.7014 5.15953,42.7014 5.5,30.5 Z"/></g>
<g><path style="opacity:1" fill="#917764" d="M 67.5,72.5 C 70.0341,74.9163 70.0341,77.2496 67.5,79.5C 67.5,77.1667 67.5,74.8333 67.5,72.5 Z"/></g>
<g><path style="opacity:1" fill="#4a9169" d="M 67.5,66.5 C 65.0837,68.2949 65.0837,70.2949 67.5,72.5C 67.5,74.8333 67.5,77.1667 67.5,79.5C 66.5,81.1667 65.1667,82.5 63.5,83.5C 62.8902,82.609 62.5569,81.609 62.5,80.5C 64.352,79.4802 65.6853,77.9802 66.5,76C 65.0251,72.6501 64.3584,69.1501 64.5,65.5C 65.791,65.2627 66.791,65.596 67.5,66.5 Z"/></g>
<g><path style="opacity:1" fill="#70c655" d="M 28.5,71.5 C 27.659,75.5749 28.9924,78.5749 32.5,80.5C 32.5,80.8333 32.5,81.1667 32.5,81.5C 31.8826,81.6107 31.3826,81.944 31,82.5C 26.1791,79.5631 25.3458,75.8964 28.5,71.5 Z"/></g>
<g><path style="opacity:1" fill="#febf0d" d="M 89.5,50.5 C 89.6659,55.5111 89.4993,60.5111 89,65.5C 80.9642,73.3684 73.1309,81.3684 65.5,89.5C 57.1667,89.5 48.8333,89.5 40.5,89.5C 37.3586,88.6787 34.0252,88.1787 30.5,88C 29.8333,87.3333 29.1667,86.6667 28.5,86C 31.9485,86.6934 35.2819,86.5267 38.5,85.5C 46.84,85.3336 55.1733,85.5003 63.5,86C 59.7125,86.1596 56.0458,86.8263 52.5,88C 56.5,88.6667 60.5,88.6667 64.5,88C 72,80.5 79.5,73 87,65.5C 87.4955,63.5273 87.6621,61.5273 87.5,59.5C 88.1667,56.5 88.8333,53.5 89.5,50.5 Z"/></g>
<g><path style="opacity:1" fill="#2fb045" d="M 35.5,80.5 C 39.107,81.824 43.107,82.4907 47.5,82.5C 51.893,82.4907 55.893,81.824 59.5,80.5C 60.404,81.209 60.7373,82.209 60.5,83.5C 51.6506,83.8264 42.9839,83.493 34.5,82.5C 34.3284,81.5084 34.6618,80.8417 35.5,80.5 Z"/></g>
<g><path style="opacity:1" fill="#7a9a8a" d="M 34.5,82.5 C 42.9839,83.493 51.6506,83.8264 60.5,83.5C 61.5,83.5 62.5,83.5 63.5,83.5C 53.0131,84.4944 42.3464,84.8278 31.5,84.5C 31.5,83.8333 31.8333,83.5 32.5,83.5C 33.1667,83.1667 33.8333,82.8333 34.5,82.5 Z"/></g>
<g><path style="opacity:0.45" fill="#94735f" d="M 65.5,89.5 C 66.4916,89.3284 67.1583,89.6618 67.5,90.5C 67.1961,91.1499 66.8627,91.8165 66.5,92.5C 54.1847,93.499 41.8513,93.8324 29.5,93.5C 29.5,92.5 29.5,91.5 29.5,90.5C 41.6783,90.8284 53.6783,90.4951 65.5,89.5 Z"/></g>
</svg>
