<?xml version="1.0" encoding="UTF-8"?>
<!DOCTYPE svg PUBLIC "-//W3C//DTD SVG 1.1//EN" "http://www.w3.org/Graphics/SVG/1.1/DTD/svg11.dtd">
<svg xmlns="http://www.w3.org/2000/svg" version="1.1" width="96px" height="96px" style="shape-rendering:geometricPrecision; text-rendering:geometricPrecision; image-rendering:optimizeQuality; fill-rule:evenodd; clip-rule:evenodd" xmlns:xlink="http://www.w3.org/1999/xlink">
<g><path style="opacity:1" fill="#a78107" d="M 48.5,5.5 C 51.6085,5.26414 54.6085,5.59748 57.5,6.5C 57.0825,7.22158 56.4158,7.72158 55.5,8C 57.3065,9.78665 57.9732,11.62 57.5,13.5C 56.9094,14.1515 56.2427,14.8182 55.5,15.5C 56.4755,18.2522 57.1421,20.7522 57.5,23C 55.3808,23.3418 55.0474,24.1751 56.5,25.5C 54.4424,27.9965 53.2757,27.3298 53,23.5C 52.6667,23.8333 52.3333,24.1667 52,24.5C 50.9314,20.9787 49.4314,17.6454 47.5,14.5C 46.5057,18.4811 45.5057,18.4811 44.5,14.5C 45.7287,13.7189 47.062,13.2189 48.5,13C 46.1341,12.5604 43.8008,12.0604 41.5,11.5C 41.9528,10.5416 42.6195,9.7083 43.5,9C 43.1667,8.66667 42.8333,8.33333 42.5,8C 44.6115,7.15532 46.6115,6.32198 48.5,5.5 Z"/></g>
<g><path style="opacity:1" fill="#996f07" d="M 48.5,5.5 C 46.6115,6.32198 44.6115,7.15532 42.5,8C 42.8333,8.33333 43.1667,8.66667 43.5,9C 42.6195,9.7083 41.9528,10.5416 41.5,11.5C 41.4142,12.4959 41.7476,13.3292 42.5,14C 41.6919,14.3076 41.0253,14.8076 40.5,15.5C 40.7173,19.7615 41.5506,24.0948 43,28.5C 43.4935,26.8659 43.6602,25.1992 43.5,23.5C 48.5811,23.2552 51.5811,25.5885 52.5,30.5C 51.5,30.5 50.5,30.5 49.5,30.5C 48.4168,30.4606 47.4168,30.1272 46.5,29.5C 44.7541,31.2516 42.7541,32.5849 40.5,33.5C 38.3618,33.703 36.6951,34.703 35.5,36.5C 34.5713,35.3112 34.238,33.9778 34.5,32.5C 34.4602,29.1252 34.7935,25.6252 35.5,22C 34.3859,20.5507 33.3859,19.2173 32.5,18C 33.4506,17.2825 33.6172,16.4491 33,15.5C 31.9916,15.0183 30.825,14.8516 29.5,15C 30.8333,14 32.1667,13 33.5,12C 33.1667,11.6667 32.8333,11.3333 32.5,11C 33.3805,10.2917 34.0472,9.45837 34.5,8.5C 38.7259,6.04439 43.3925,5.04439 48.5,5.5 Z"/></g>
<g><path style="opacity:1" fill="#946b04" d="M 34.5,8.5 C 34.0472,9.45837 33.3805,10.2917 32.5,11C 32.8333,11.3333 33.1667,11.6667 33.5,12C 32.1667,13 30.8333,14 29.5,15C 30.825,14.8516 31.9916,15.0183 33,15.5C 33.6172,16.4491 33.4506,17.2825 32.5,18C 33.3859,19.2173 34.3859,20.5507 35.5,22C 34.7935,25.6252 34.4602,29.1252 34.5,32.5C 34.3757,30.4184 33.3757,28.9184 31.5,28C 34.3509,26.1187 34.0175,25.2854 30.5,25.5C 28.8651,25.8777 27.3651,26.5444 26,27.5C 24.902,26.6161 24.402,25.6161 24.5,24.5C 23.4777,24.8555 22.811,25.5222 22.5,26.5C 18.592,29.3018 17.2587,32.9684 18.5,37.5C 17.5041,37.5858 16.6708,37.2524 16,36.5C 15.6667,37.5 15.3333,38.5 15,39.5C 14.8333,38.8333 14.6667,38.1667 14.5,37.5C 15.8432,34.1504 17.1765,30.8171 18.5,27.5C 21.4561,26.2706 22.4561,24.2706 21.5,21.5C 23.9864,19.422 24.9864,16.7553 24.5,13.5C 27.5154,11.3256 30.8487,9.65893 34.5,8.5 Z"/></g>
<g><path style="opacity:1" fill="#a37b0a" d="M 41.5,11.5 C 43.8008,12.0604 46.1341,12.5604 48.5,13C 47.062,13.2189 45.7287,13.7189 44.5,14.5C 45.5057,18.4811 46.5057,18.4811 47.5,14.5C 49.4314,17.6454 50.9314,20.9787 52,24.5C 52.3333,24.1667 52.6667,23.8333 53,23.5C 53.2757,27.3298 54.4424,27.9965 56.5,25.5C 57.5,25.5 58.5,25.5 59.5,25.5C 59.5,27.8333 59.5,30.1667 59.5,32.5C 61.1667,32.5 62.8333,32.5 64.5,32.5C 64.4007,36.3039 64.734,39.6372 65.5,42.5C 64.0858,44.0542 62.4192,45.3875 60.5,46.5C 59.8653,43.0388 58.8653,39.7054 57.5,36.5C 57.7093,35.914 58.0426,35.414 58.5,35C 56.3162,33.6366 54.3162,32.1366 52.5,30.5C 51.5811,25.5885 48.5811,23.2552 43.5,23.5C 43.6602,25.1992 43.4935,26.8659 43,28.5C 41.5506,24.0948 40.7173,19.7615 40.5,15.5C 41.0253,14.8076 41.6919,14.3076 42.5,14C 41.7476,13.3292 41.4142,12.4959 41.5,11.5 Z"/></g>
<g><path style="opacity:1" fill="#bb9b0b" d="M 57.5,6.5 C 59.1667,7.16667 60.8333,7.83333 62.5,8.5C 62.8333,9.5 63.5,10.1667 64.5,10.5C 64.33,11.8221 64.6634,12.9887 65.5,14C 64.5,14.3333 63.5,14.6667 62.5,15C 64.5,16.3333 66.5,17.6667 68.5,19C 66.0174,21.3081 65.8507,23.8081 68,26.5C 67.3829,24.9052 67.7163,23.5719 69,22.5C 71.3297,25.4653 71.8297,28.632 70.5,32C 71.8969,33.3103 72.8969,34.8103 73.5,36.5C 72.5637,37.9744 71.2303,38.9744 69.5,39.5C 68.5467,37.2291 67.2134,34.7291 65.5,32C 66.0219,31.4387 66.3552,30.772 66.5,30C 65.2502,26.737 63.9169,23.5704 62.5,20.5C 61.5,20.5 60.5,20.5 59.5,20.5C 59.5198,18.857 58.8532,17.5237 57.5,16.5C 61.4301,15.4373 61.4301,14.4373 57.5,13.5C 57.9732,11.62 57.3065,9.78665 55.5,8C 56.4158,7.72158 57.0825,7.22158 57.5,6.5 Z"/></g>
<g><path style="opacity:1" fill="#b18e08" d="M 57.5,13.5 C 61.4301,14.4373 61.4301,15.4373 57.5,16.5C 58.8532,17.5237 59.5198,18.857 59.5,20.5C 60.5,20.5 61.5,20.5 62.5,20.5C 63.9169,23.5704 65.2502,26.737 66.5,30C 66.3552,30.772 66.0219,31.4387 65.5,32C 67.2134,34.7291 68.5467,37.2291 69.5,39.5C 68.5637,40.9744 67.2303,41.9744 65.5,42.5C 64.734,39.6372 64.4007,36.3039 64.5,32.5C 62.8333,32.5 61.1667,32.5 59.5,32.5C 59.5,30.1667 59.5,27.8333 59.5,25.5C 58.5,25.5 57.5,25.5 56.5,25.5C 55.0474,24.1751 55.3808,23.3418 57.5,23C 57.1421,20.7522 56.4755,18.2522 55.5,15.5C 56.2427,14.8182 56.9094,14.1515 57.5,13.5 Z"/></g>
<g><path style="opacity:1" fill="#d1b910" d="M 64.5,10.5 C 66.3325,11.2485 67.9991,12.2485 69.5,13.5C 69.393,15.9032 70.393,17.7365 72.5,19C 71.8333,19.3333 71.1667,19.6667 70.5,20C 75.5488,23.7847 77.8821,28.618 77.5,34.5C 76.9747,35.1924 76.3081,35.6924 75.5,36C 77.0201,38.5961 77.8534,41.4294 78,44.5C 80.7119,46.7553 82.5453,49.5886 83.5,53C 82.6883,57.9597 81.0217,62.6264 78.5,67C 78.7355,67.8732 79.0688,68.7065 79.5,69.5C 77.9848,71.5473 77.1515,73.8807 77,76.5C 75.2927,78.0375 73.7927,79.7041 72.5,81.5C 72.1667,82.5 71.5,83.1667 70.5,83.5C 70.9769,79.7131 72.6436,76.5464 75.5,74C 73.3808,73.6582 73.0474,72.8249 74.5,71.5C 77.21,69.7475 77.8767,67.4141 76.5,64.5C 76.9186,63.3279 77.5853,62.3279 78.5,61.5C 77.5089,60.3348 76.5089,59.1681 75.5,58C 76.8268,51.4243 76.4935,44.9243 74.5,38.5C 74.6716,37.5084 74.3382,36.8417 73.5,36.5C 72.8969,34.8103 71.8969,33.3103 70.5,32C 71.8297,28.632 71.3297,25.4653 69,22.5C 67.7163,23.5719 67.3829,24.9052 68,26.5C 65.8507,23.8081 66.0174,21.3081 68.5,19C 66.5,17.6667 64.5,16.3333 62.5,15C 63.5,14.6667 64.5,14.3333 65.5,14C 64.6634,12.9887 64.33,11.8221 64.5,10.5 Z"/></g>
<g><path style="opacity:1" fill="#916811" d="M 34.5,32.5 C 34.238,33.9778 34.5713,35.3112 35.5,36.5C 36.6951,34.703 38.3618,33.703 40.5,33.5C 40.0825,34.2216 39.4158,34.7216 38.5,35C 39.9436,36.126 40.6102,37.626 40.5,39.5C 40.0029,41.8183 39.6695,44.1516 39.5,46.5C 40.9778,46.762 42.3112,46.4287 43.5,45.5C 44.1237,43.246 45.457,41.5794 47.5,40.5C 48.2975,40.9569 48.6309,41.6236 48.5,42.5C 44.5793,45.3538 42.5793,49.0205 42.5,53.5C 40.5781,52.289 38.7448,50.9557 37,49.5C 35.5806,50.4601 34.0806,51.2935 32.5,52C 33.056,52.3826 33.3893,52.8826 33.5,53.5C 32.8333,53.5 32.1667,53.5 31.5,53.5C 29.5818,50.974 27.2485,48.974 24.5,47.5C 23.3775,45.7116 23.2109,43.7116 24,41.5C 24.3826,42.056 24.8826,42.3893 25.5,42.5C 28.0016,44.1696 30.0016,46.3363 31.5,49C 32.9437,49.7805 34.277,49.6139 35.5,48.5C 32.8579,44.6906 30.0246,41.0239 27,37.5C 26.7679,38.7375 26.2679,39.7375 25.5,40.5C 25.6399,38.8762 24.9733,37.7096 23.5,37C 24.9018,33.3174 24.5684,29.8174 22.5,26.5C 22.811,25.5222 23.4777,24.8555 24.5,24.5C 24.402,25.6161 24.902,26.6161 26,27.5C 27.3651,26.5444 28.8651,25.8777 30.5,25.5C 34.0175,25.2854 34.3509,26.1187 31.5,28C 33.3757,28.9184 34.3757,30.4184 34.5,32.5 Z"/></g>
<g><path style="opacity:1" fill="#9f750a" d="M 24.5,13.5 C 24.9864,16.7553 23.9864,19.422 21.5,21.5C 22.4561,24.2706 21.4561,26.2706 18.5,27.5C 13.7104,33.3656 11.3771,40.1989 11.5,48C 11.8371,51.5229 12.3371,55.0229 13,58.5C 13.3736,60.4913 14.207,62.158 15.5,63.5C 16.8514,67.5416 19.1848,70.8749 22.5,73.5C 23.6253,75.1288 24.9586,76.6288 26.5,78C 25.5509,78.6172 24.7175,78.4506 24,77.5C 23.6155,79.1966 23.7822,80.8632 24.5,82.5C 18.1849,78.2105 13.5183,72.5438 10.5,65.5C 11.9221,65.2504 12.9221,64.417 13.5,63C 11.3485,58.4182 10.0152,53.5849 9.5,48.5C 10.8794,41.7805 12.0461,35.1138 13,28.5C 10.1437,33.0688 8.47706,38.0688 8,43.5C 7.58309,44.756 6.74975,45.4226 5.5,45.5C 7.25959,31.9606 13.5929,21.294 24.5,13.5 Z"/></g>
<g><path style="opacity:1" fill="#4e1c8f" d="M 49.5,30.5 C 50.4715,31.3991 51.1382,32.5657 51.5,34C 52.3775,40.5202 53.3775,47.0202 54.5,53.5C 54.1243,55.3829 53.1243,56.8829 51.5,58C 51.7284,58.3988 52.0618,58.5654 52.5,58.5C 51.8333,59.8333 50.8333,60.8333 49.5,61.5C 47.1678,58.0195 45.5011,54.1862 44.5,50C 45.6726,47.3505 47.0059,44.8505 48.5,42.5C 48.6309,41.6236 48.2975,40.9569 47.5,40.5C 45.457,41.5794 44.1237,43.246 43.5,45.5C 42.3112,46.4287 40.9778,46.762 39.5,46.5C 39.6695,44.1516 40.0029,41.8183 40.5,39.5C 40.6102,37.626 39.9436,36.126 38.5,35C 39.4158,34.7216 40.0825,34.2216 40.5,33.5C 42.7541,32.5849 44.7541,31.2516 46.5,29.5C 47.4168,30.1272 48.4168,30.4606 49.5,30.5 Z"/></g>
<g><path style="opacity:1" fill="#5d28a2" d="M 49.5,30.5 C 50.5,30.5 51.5,30.5 52.5,30.5C 54.3162,32.1366 56.3162,33.6366 58.5,35C 58.0426,35.414 57.7093,35.914 57.5,36.5C 58.8653,39.7054 59.8653,43.0388 60.5,46.5C 62.4192,45.3875 64.0858,44.0542 65.5,42.5C 67.2303,41.9744 68.5637,40.9744 69.5,39.5C 71.2303,38.9744 72.5637,37.9744 73.5,36.5C 74.3382,36.8417 74.6716,37.5084 74.5,38.5C 72.6364,42.041 69.9697,45.041 66.5,47.5C 61.8333,51.1667 57.1667,54.8333 52.5,58.5C 52.0618,58.5654 51.7284,58.3988 51.5,58C 53.1243,56.8829 54.1243,55.3829 54.5,53.5C 53.3775,47.0202 52.3775,40.5202 51.5,34C 51.1382,32.5657 50.4715,31.3991 49.5,30.5 Z"/></g>
<g><path style="opacity:1" fill="#a27803" d="M 10.5,65.5 C 7.29068,59.3298 5.62401,52.6631 5.5,45.5C 6.74975,45.4226 7.58309,44.756 8,43.5C 8.47706,38.0688 10.1437,33.0688 13,28.5C 12.0461,35.1138 10.8794,41.7805 9.5,48.5C 10.0152,53.5849 11.3485,58.4182 13.5,63C 12.9221,64.417 11.9221,65.2504 10.5,65.5 Z"/></g>
<g><path style="opacity:1" fill="#411683" d="M 25.5,42.5 C 25.5,41.8333 25.5,41.1667 25.5,40.5C 26.2679,39.7375 26.7679,38.7375 27,37.5C 30.0246,41.0239 32.8579,44.6906 35.5,48.5C 34.277,49.6139 32.9437,49.7805 31.5,49C 30.0016,46.3363 28.0016,44.1696 25.5,42.5 Z"/></g>
<g><path style="opacity:0.999" fill="#f3e926" d="M 62.5,8.5 C 82.6638,17.1481 91.8305,32.4815 90,54.5C 88.8614,61.1053 86.3614,67.1053 82.5,72.5C 81.4749,71.6261 80.8082,70.4595 80.5,69C 84.4397,62.3511 86.4397,55.1844 86.5,47.5C 85.5,47.5 84.5,47.5 83.5,47.5C 83.6602,45.8008 83.4935,44.1341 83,42.5C 82.3333,43.1667 81.6667,43.8333 81,44.5C 79.5783,41.9699 79.245,39.3033 80,36.5C 81,39.1667 82,39.1667 83,36.5C 84,39.8333 85,43.1667 86,46.5C 86.0806,38.7418 83.7473,31.7418 79,25.5C 77.9197,19.9124 74.753,15.9124 69.5,13.5C 67.9991,12.2485 66.3325,11.2485 64.5,10.5C 63.5,10.1667 62.8333,9.5 62.5,8.5 Z"/></g>
<g><path style="opacity:1" fill="#a07503" d="M 18.5,27.5 C 17.1765,30.8171 15.8432,34.1504 14.5,37.5C 14.6667,38.1667 14.8333,38.8333 15,39.5C 15.3333,38.5 15.6667,37.5 16,36.5C 16.6708,37.2524 17.5041,37.5858 18.5,37.5C 21.9173,39.8471 23.2506,43.1804 22.5,47.5C 21.1779,47.67 20.0113,47.3366 19,46.5C 18.6924,47.3081 18.1924,47.9747 17.5,48.5C 16.2888,47.7261 16.2888,46.8928 17.5,46C 14.7177,45.8171 14.0511,46.9837 15.5,49.5C 16.5,50 17.5,50.5 18.5,51C 17.6746,53.7701 17.3412,56.4367 17.5,59C 18.3081,59.3076 18.9747,59.8076 19.5,60.5C 18.5,61.8333 17.5,61.8333 16.5,60.5C 15.9017,59.2054 15.4017,57.8721 15,56.5C 14.6664,58.8473 14.833,61.1806 15.5,63.5C 14.207,62.158 13.3736,60.4913 13,58.5C 12.3371,55.0229 11.8371,51.5229 11.5,48C 11.3771,40.1989 13.7104,33.3656 18.5,27.5 Z"/></g>
<g><path style="opacity:1" fill="#c5a716" d="M 74.5,38.5 C 76.4935,44.9243 76.8268,51.4243 75.5,58C 76.5089,59.1681 77.5089,60.3348 78.5,61.5C 77.5853,62.3279 76.9186,63.3279 76.5,64.5C 77.8767,67.4141 77.21,69.7475 74.5,71.5C 73.1201,71.9351 72.1201,71.1018 71.5,69C 72,68.5 72.5,68 73,67.5C 73.2433,62.0583 74.0766,56.7249 75.5,51.5C 74.8169,48.5386 73.9836,48.2053 73,50.5C 72.5357,49.9056 72.369,49.2389 72.5,48.5C 72.6309,47.6236 72.2975,46.9569 71.5,46.5C 70.1482,47.5244 68.8149,48.5244 67.5,49.5C 67.1667,48.8333 66.8333,48.1667 66.5,47.5C 69.9697,45.041 72.6364,42.041 74.5,38.5 Z"/></g>
<g><path style="opacity:1" fill="#ebdd21" d="M 69.5,13.5 C 74.753,15.9124 77.9197,19.9124 79,25.5C 83.7473,31.7418 86.0806,38.7418 86,46.5C 85,43.1667 84,39.8333 83,36.5C 82,39.1667 81,39.1667 80,36.5C 79.245,39.3033 79.5783,41.9699 81,44.5C 81.6667,43.8333 82.3333,43.1667 83,42.5C 83.4935,44.1341 83.6602,45.8008 83.5,47.5C 84.5,47.5 85.5,47.5 86.5,47.5C 86.4397,55.1844 84.4397,62.3511 80.5,69C 80.8082,70.4595 81.4749,71.6261 82.5,72.5C 79.7689,76.2343 76.4356,79.2343 72.5,81.5C 73.7927,79.7041 75.2927,78.0375 77,76.5C 77.1515,73.8807 77.9848,71.5473 79.5,69.5C 79.0688,68.7065 78.7355,67.8732 78.5,67C 81.0217,62.6264 82.6883,57.9597 83.5,53C 82.5453,49.5886 80.7119,46.7553 78,44.5C 77.8534,41.4294 77.0201,38.5961 75.5,36C 76.3081,35.6924 76.9747,35.1924 77.5,34.5C 77.8821,28.618 75.5488,23.7847 70.5,20C 71.1667,19.6667 71.8333,19.3333 72.5,19C 70.393,17.7365 69.393,15.9032 69.5,13.5 Z"/></g>
<g><path style="opacity:1" fill="#9a7006" d="M 22.5,26.5 C 24.5684,29.8174 24.9018,33.3174 23.5,37C 24.9733,37.7096 25.6399,38.8762 25.5,40.5C 25.5,41.1667 25.5,41.8333 25.5,42.5C 24.8826,42.3893 24.3826,42.056 24,41.5C 23.2109,43.7116 23.3775,45.7116 24.5,47.5C 24.5,48.1667 24.5,48.8333 24.5,49.5C 22.5827,51.2804 21.9161,53.2804 22.5,55.5C 22.702,57.9496 22.3686,60.283 21.5,62.5C 23.6074,63.4682 25.9407,63.8016 28.5,63.5C 24.3154,64.2025 22.982,66.5358 24.5,70.5C 24.5466,72.0377 23.8799,73.0377 22.5,73.5C 19.1848,70.8749 16.8514,67.5416 15.5,63.5C 14.833,61.1806 14.6664,58.8473 15,56.5C 15.4017,57.8721 15.9017,59.2054 16.5,60.5C 17.5,61.8333 18.5,61.8333 19.5,60.5C 18.9747,59.8076 18.3081,59.3076 17.5,59C 17.3412,56.4367 17.6746,53.7701 18.5,51C 17.5,50.5 16.5,50 15.5,49.5C 14.0511,46.9837 14.7177,45.8171 17.5,46C 16.2888,46.8928 16.2888,47.7261 17.5,48.5C 18.1924,47.9747 18.6924,47.3081 19,46.5C 20.0113,47.3366 21.1779,47.67 22.5,47.5C 23.2506,43.1804 21.9173,39.8471 18.5,37.5C 17.2587,32.9684 18.592,29.3018 22.5,26.5 Z"/></g>
<g><path style="opacity:1" fill="#441a83" d="M 24.5,47.5 C 27.2485,48.974 29.5818,50.974 31.5,53.5C 32.0476,55.3936 33.0476,57.0603 34.5,58.5C 33.9017,59.7946 33.4017,61.1279 33,62.5C 29.1336,58.7474 26.3002,54.414 24.5,49.5C 24.5,48.8333 24.5,48.1667 24.5,47.5 Z"/></g>
<g><path style="opacity:1" fill="#47188a" d="M 48.5,42.5 C 47.0059,44.8505 45.6726,47.3505 44.5,50C 45.5011,54.1862 47.1678,58.0195 49.5,61.5C 47.9317,62.4731 46.265,62.6397 44.5,62C 41.8824,59.2605 39.3824,56.4272 37,53.5C 37.2068,55.7513 37.3735,58.0846 37.5,60.5C 38.5,60.5 39.5,60.5 40.5,60.5C 39.4479,62.256 37.7812,62.9227 35.5,62.5C 35.7931,59.2457 35.1264,56.2457 33.5,53.5C 33.3893,52.8826 33.056,52.3826 32.5,52C 34.0806,51.2935 35.5806,50.4601 37,49.5C 38.7448,50.9557 40.5781,52.289 42.5,53.5C 42.5793,49.0205 44.5793,45.3538 48.5,42.5 Z"/></g>
<g><path style="opacity:1" fill="#bc9b0c" d="M 72.5,48.5 C 72.369,49.2389 72.5357,49.9056 73,50.5C 73.9836,48.2053 74.8169,48.5386 75.5,51.5C 74.0766,56.7249 73.2433,62.0583 73,67.5C 72.5,68 72,68.5 71.5,69C 72.1201,71.1018 73.1201,71.9351 74.5,71.5C 73.0474,72.8249 73.3808,73.6582 75.5,74C 72.6436,76.5464 70.9769,79.7131 70.5,83.5C 68.3649,85.0709 66.0316,86.4043 63.5,87.5C 62.4619,85.8916 63.1286,84.8916 65.5,84.5C 66.8655,82.4464 67.1988,80.4464 66.5,78.5C 68.8783,77.3076 70.8783,75.641 72.5,73.5C 70.8333,72.5 69.5,71.1667 68.5,69.5C 71.4685,65.9876 72.1352,61.9876 70.5,57.5C 70.5,57.1667 70.5,56.8333 70.5,56.5C 71.3543,55.3684 71.3543,54.035 70.5,52.5C 70.9887,51.0048 71.6554,49.6715 72.5,48.5 Z"/></g>
<g><path style="opacity:1" fill="#431987" d="M 22.5,55.5 C 24.951,57.1226 26.951,59.2893 28.5,62C 26.1902,62.4966 23.8568,62.6633 21.5,62.5C 22.3686,60.283 22.702,57.9496 22.5,55.5 Z"/></g>
<g><path style="opacity:1" fill="#632da7" d="M 72.5,48.5 C 71.6554,49.6715 70.9887,51.0048 70.5,52.5C 66.041,55.787 61.7077,59.287 57.5,63C 56.2068,63.49 54.8734,63.6567 53.5,63.5C 52.9569,63.44 52.6236,63.1067 52.5,62.5C 57.8403,58.4884 62.8403,54.155 67.5,49.5C 68.8149,48.5244 70.1482,47.5244 71.5,46.5C 72.2975,46.9569 72.6309,47.6236 72.5,48.5 Z"/></g>
<g><path style="opacity:1" fill="#6129be" d="M 70.5,56.5 C 70.5,56.8333 70.5,57.1667 70.5,57.5C 69.5489,58.9187 69.2155,60.5853 69.5,62.5C 66.9407,62.8016 64.6074,62.4682 62.5,61.5C 65.0608,59.6286 67.5608,57.6286 70,55.5C 70.3988,55.7284 70.5654,56.0618 70.5,56.5 Z"/></g>
<g><path style="opacity:1" fill="#9c7109" d="M 49.5,61.5 C 48.4479,63.256 46.7812,63.9227 44.5,63.5C 44.5,65.1667 44.5,66.8333 44.5,68.5C 47.1873,68.3359 49.854,68.5026 52.5,69C 50.4402,70.4926 50.1068,72.3259 51.5,74.5C 53.5076,72.2383 53.841,72.7383 52.5,76C 52.88,78.3258 53.88,80.1591 55.5,81.5C 56.2389,81.369 56.9056,81.5357 57.5,82C 56.3279,82.4186 55.3279,83.0853 54.5,84C 57.28,85.1581 59.28,86.6581 60.5,88.5C 57.5739,89.4608 54.5739,90.1274 51.5,90.5C 51.5394,89.4168 51.8728,88.4168 52.5,87.5C 47.929,86.1782 43.2624,85.3449 38.5,85C 36.0506,84.2754 33.7173,83.2754 31.5,82C 32.448,81.5172 33.448,81.3505 34.5,81.5C 35.2625,82.2679 36.2625,82.7679 37.5,83C 42.1667,83.6667 46.8333,83.6667 51.5,83C 50.4214,82.044 49.2547,81.2106 48,80.5C 48.0773,79.2624 47.9106,78.2624 47.5,77.5C 46.7564,78.9905 46.0897,80.4905 45.5,82C 44.451,82.4922 43.451,82.3256 42.5,81.5C 41.6202,78.8886 40.9535,76.222 40.5,73.5C 41.2692,70.8853 41.6025,68.2186 41.5,65.5C 40.5,65.5 39.5,65.5 38.5,65.5C 38.0825,64.7784 37.4158,64.2784 36.5,64C 38.1341,63.5065 39.8008,63.3398 41.5,63.5C 41.7373,62.209 41.404,61.209 40.5,60.5C 39.5,60.5 38.5,60.5 37.5,60.5C 37.3735,58.0846 37.2068,55.7513 37,53.5C 39.3824,56.4272 41.8824,59.2605 44.5,62C 46.265,62.6397 47.9317,62.4731 49.5,61.5 Z"/></g>
<g><path style="opacity:1" fill="#a07507" d="M 66.5,47.5 C 66.8333,48.1667 67.1667,48.8333 67.5,49.5C 62.8403,54.155 57.8403,58.4884 52.5,62.5C 52.6236,63.1067 52.9569,63.44 53.5,63.5C 54.5115,66.2521 55.5115,68.9188 56.5,71.5C 55.6758,74.7644 55.3424,78.0977 55.5,81.5C 53.88,80.1591 52.88,78.3258 52.5,76C 53.841,72.7383 53.5076,72.2383 51.5,74.5C 50.1068,72.3259 50.4402,70.4926 52.5,69C 49.854,68.5026 47.1873,68.3359 44.5,68.5C 44.5,66.8333 44.5,65.1667 44.5,63.5C 46.7812,63.9227 48.4479,63.256 49.5,61.5C 50.8333,60.8333 51.8333,59.8333 52.5,58.5C 57.1667,54.8333 61.8333,51.1667 66.5,47.5 Z"/></g>
<g><path style="opacity:1" fill="#8e651b" d="M 24.5,49.5 C 26.3002,54.414 29.1336,58.7474 33,62.5C 33.4017,61.1279 33.9017,59.7946 34.5,58.5C 33.0476,57.0603 32.0476,55.3936 31.5,53.5C 32.1667,53.5 32.8333,53.5 33.5,53.5C 35.1264,56.2457 35.7931,59.2457 35.5,62.5C 37.7812,62.9227 39.4479,62.256 40.5,60.5C 41.404,61.209 41.7373,62.209 41.5,63.5C 39.8008,63.3398 38.1341,63.5065 36.5,64C 37.4158,64.2784 38.0825,64.7784 38.5,65.5C 36.9519,65.8212 36.2852,66.8212 36.5,68.5C 35.1779,68.67 34.0113,68.3366 33,67.5C 31.8139,69.6766 29.9806,70.6766 27.5,70.5C 26.5876,69.2618 26.4209,67.9285 27,66.5C 27.6667,67.8333 28.3333,67.8333 29,66.5C 29.7401,65.2506 29.5735,64.2506 28.5,63.5C 25.9407,63.8016 23.6074,63.4682 21.5,62.5C 23.8568,62.6633 26.1902,62.4966 28.5,62C 26.951,59.2893 24.951,57.1226 22.5,55.5C 21.9161,53.2804 22.5827,51.2804 24.5,49.5 Z"/></g>
<g><path style="opacity:1" fill="#926804" d="M 38.5,65.5 C 39.5,65.5 40.5,65.5 41.5,65.5C 41.6025,68.2186 41.2692,70.8853 40.5,73.5C 40.9535,76.222 41.6202,78.8886 42.5,81.5C 43.451,82.3256 44.451,82.4922 45.5,82C 46.0897,80.4905 46.7564,78.9905 47.5,77.5C 47.9106,78.2624 48.0773,79.2624 48,80.5C 49.2547,81.2106 50.4214,82.044 51.5,83C 46.8333,83.6667 42.1667,83.6667 37.5,83C 36.2625,82.7679 35.2625,82.2679 34.5,81.5C 32.2314,80.0242 29.8981,78.5242 27.5,77C 28.0358,74.5969 28.0358,72.4302 27.5,70.5C 29.9806,70.6766 31.8139,69.6766 33,67.5C 34.0113,68.3366 35.1779,68.67 36.5,68.5C 36.2852,66.8212 36.9519,65.8212 38.5,65.5 Z"/></g>
<g><path style="opacity:1" fill="#ac840e" d="M 70.5,52.5 C 71.3543,54.035 71.3543,55.3684 70.5,56.5C 70.5654,56.0618 70.3988,55.7284 70,55.5C 67.5608,57.6286 65.0608,59.6286 62.5,61.5C 61.9569,61.56 61.6236,61.8933 61.5,62.5C 64.3092,63.8003 66.9759,63.8003 69.5,62.5C 69.2155,60.5853 69.5489,58.9187 70.5,57.5C 72.1352,61.9876 71.4685,65.9876 68.5,69.5C 69.5,71.1667 70.8333,72.5 72.5,73.5C 70.8783,75.641 68.8783,77.3076 66.5,78.5C 65.8106,77.2264 64.9772,77.2264 64,78.5C 63.6667,76.5 63.3333,74.5 63,72.5C 62.1667,73.3333 61.3333,74.1667 60.5,75C 63.3655,77.4031 63.1988,78.2364 60,77.5C 59.6667,78.1667 59.3333,78.8333 59,79.5C 58.6552,76.8706 57.8218,74.2039 56.5,71.5C 55.5115,68.9188 54.5115,66.2521 53.5,63.5C 54.8734,63.6567 56.2068,63.49 57.5,63C 61.7077,59.287 66.041,55.787 70.5,52.5 Z"/></g>
<g><path style="opacity:1" fill="#805379" d="M 62.5,61.5 C 64.6074,62.4682 66.9407,62.8016 69.5,62.5C 66.9759,63.8003 64.3092,63.8003 61.5,62.5C 61.6236,61.8933 61.9569,61.56 62.5,61.5 Z"/></g>
<g><path style="opacity:1" fill="#a77e08" d="M 56.5,71.5 C 57.8218,74.2039 58.6552,76.8706 59,79.5C 59.3333,78.8333 59.6667,78.1667 60,77.5C 63.1988,78.2364 63.3655,77.4031 60.5,75C 61.3333,74.1667 62.1667,73.3333 63,72.5C 63.3333,74.5 63.6667,76.5 64,78.5C 64.9772,77.2264 65.8106,77.2264 66.5,78.5C 67.1988,80.4464 66.8655,82.4464 65.5,84.5C 63.1286,84.8916 62.4619,85.8916 63.5,87.5C 62.391,87.5569 61.391,87.8902 60.5,88.5C 59.28,86.6581 57.28,85.1581 54.5,84C 55.3279,83.0853 56.3279,82.4186 57.5,82C 56.9056,81.5357 56.2389,81.369 55.5,81.5C 55.3424,78.0977 55.6758,74.7644 56.5,71.5 Z"/></g>
<g><path style="opacity:1" fill="#916806" d="M 28.5,63.5 C 29.5735,64.2506 29.7401,65.2506 29,66.5C 28.3333,67.8333 27.6667,67.8333 27,66.5C 26.4209,67.9285 26.5876,69.2618 27.5,70.5C 28.0358,72.4302 28.0358,74.5969 27.5,77C 29.8981,78.5242 32.2314,80.0242 34.5,81.5C 33.448,81.3505 32.448,81.5172 31.5,82C 33.7173,83.2754 36.0506,84.2754 38.5,85C 43.2624,85.3449 47.929,86.1782 52.5,87.5C 51.8728,88.4168 51.5394,89.4168 51.5,90.5C 41.6334,90.6546 32.6334,87.9879 24.5,82.5C 23.7822,80.8632 23.6155,79.1966 24,77.5C 24.7175,78.4506 25.5509,78.6172 26.5,78C 24.9586,76.6288 23.6253,75.1288 22.5,73.5C 23.8799,73.0377 24.5466,72.0377 24.5,70.5C 22.982,66.5358 24.3154,64.2025 28.5,63.5 Z"/></g>
</svg>
