<?xml version="1.0" encoding="UTF-8"?>
<!DOCTYPE svg PUBLIC "-//W3C//DTD SVG 1.1//EN" "http://www.w3.org/Graphics/SVG/1.1/DTD/svg11.dtd">
<svg xmlns="http://www.w3.org/2000/svg" version="1.1" width="96px" height="96px" style="shape-rendering:geometricPrecision; text-rendering:geometricPrecision; image-rendering:optimizeQuality; fill-rule:evenodd; clip-rule:evenodd" xmlns:xlink="http://www.w3.org/1999/xlink">
<g><path style="opacity:0.986" fill="#07071c" d="M 37.5,-0.5 C 44.1667,-0.5 50.8333,-0.5 57.5,-0.5C 77.1667,5.16667 89.8333,17.8333 95.5,37.5C 95.5,44.1667 95.5,50.8333 95.5,57.5C 89.8333,77.1667 77.1667,89.8333 57.5,95.5C 50.8333,95.5 44.1667,95.5 37.5,95.5C 17.8333,89.8333 5.16667,77.1667 -0.5,57.5C -0.5,50.8333 -0.5,44.1667 -0.5,37.5C 5.16667,17.8333 17.8333,5.16667 37.5,-0.5 Z"/></g>
<g><path style="opacity:1" fill="#f8f8f9" d="M 44.5,17.5 C 51.7546,17.1868 58.9213,17.5201 66,18.5C 66.7991,23.0868 66.6324,27.5868 65.5,32C 58.2534,32.1851 51.0867,32.6851 44,33.5C 43.2009,38.0868 43.3676,42.5868 44.5,47C 49.1548,47.4992 53.8215,47.6658 58.5,47.5C 58.5,52.5 58.5,57.5 58.5,62.5C 53.8215,62.3342 49.1548,62.5008 44.5,63C 43.5308,67.7367 43.1975,72.57 43.5,77.5C 38.8215,77.6658 34.1548,77.4992 29.5,77C 28.1667,72.3333 28.1667,67.6667 29.5,63C 34.1548,62.5008 38.8215,62.3342 43.5,62.5C 43.5,57.5 43.5,52.5 43.5,47.5C 38.8215,47.6658 34.1548,47.4992 29.5,47C 28.1667,42.3333 28.1667,37.6667 29.5,33C 34.1548,32.5008 38.8215,32.3342 43.5,32.5C 43.2213,27.4053 43.5546,22.4053 44.5,17.5 Z"/></g>
</svg>
