<?xml version="1.0" encoding="UTF-8"?>
<!DOCTYPE svg PUBLIC "-//W3C//DTD SVG 1.1//EN" "http://www.w3.org/Graphics/SVG/1.1/DTD/svg11.dtd">
<svg xmlns="http://www.w3.org/2000/svg" version="1.1" width="96px" height="96px" style="shape-rendering:geometricPrecision; text-rendering:geometricPrecision; image-rendering:optimizeQuality; fill-rule:evenodd; clip-rule:evenodd" xmlns:xlink="http://www.w3.org/1999/xlink">
<g><path style="opacity:1" fill="#131313" d="M -0.5,-0.5 C 31.5,-0.5 63.5,-0.5 95.5,-0.5C 95.5,31.5 95.5,63.5 95.5,95.5C 63.5,95.5 31.5,95.5 -0.5,95.5C -0.5,63.5 -0.5,31.5 -0.5,-0.5 Z"/></g>
<g><path style="opacity:1" fill="#ededed" d="M 26.5,25.5 C 32.8333,25.5 39.1667,25.5 45.5,25.5C 45.5,27.1667 45.5,28.8333 45.5,30.5C 40.8333,30.5 36.1667,30.5 31.5,30.5C 31.5,41.5 31.5,52.5 31.5,63.5C 38.2569,63.8774 44.9236,63.3774 51.5,62C 55.3022,59.9125 57.8022,56.7459 59,52.5C 60.3513,50.981 61.8513,49.6477 63.5,48.5C 64.1155,59.0777 59.1155,65.5777 48.5,68C 41.1742,68.4997 33.8409,68.6663 26.5,68.5C 26.5,54.1667 26.5,39.8333 26.5,25.5 Z"/></g>
<g><path style="opacity:1" fill="#28e6e8" d="M 67.5,16.5 C 68.6291,18.6282 68.7958,20.9615 68,23.5C 62.3188,29.3482 56.4854,35.0149 50.5,40.5C 49.5059,35.544 49.1725,30.544 49.5,25.5C 51.1667,25.5 52.8333,25.5 54.5,25.5C 54.3433,26.8734 54.51,28.2068 55,29.5C 59.3702,25.2978 63.5368,20.9645 67.5,16.5 Z"/></g>
<g><path style="opacity:1" fill="#ececec" d="M 36.5,58.5 C 36.5,50.8333 36.5,43.1667 36.5,35.5C 39.5,35.5 42.5,35.5 45.5,35.5C 45.5,36.8333 45.5,38.1667 45.5,39.5C 43.8333,39.5 42.1667,39.5 40.5,39.5C 40.5,44.1667 40.5,48.8333 40.5,53.5C 46.0566,54.9645 49.2232,52.9645 50,47.5C 54.3482,42.9847 58.8482,38.6513 63.5,34.5C 64.6474,36.7649 64.8141,39.0982 64,41.5C 58.8913,45.77 54.7247,50.77 51.5,56.5C 46.6989,58.3189 41.6989,58.9856 36.5,58.5 Z"/></g>
<g><path style="opacity:1" fill="#b1b1b1" d="M 45.5,35.5 C 42.5,35.5 39.5,35.5 36.5,35.5C 36.5,43.1667 36.5,50.8333 36.5,58.5C 35.5076,50.6841 35.1743,42.6841 35.5,34.5C 39.0419,34.1872 42.3752,34.5206 45.5,35.5 Z"/></g>
</svg>
