<?xml version="1.0" encoding="UTF-8"?>
<!DOCTYPE svg PUBLIC "-//W3C//DTD SVG 1.1//EN" "http://www.w3.org/Graphics/SVG/1.1/DTD/svg11.dtd">
<svg xmlns="http://www.w3.org/2000/svg" version="1.1" width="96px" height="96px" style="shape-rendering:geometricPrecision; text-rendering:geometricPrecision; image-rendering:optimizeQuality; fill-rule:evenodd; clip-rule:evenodd" xmlns:xlink="http://www.w3.org/1999/xlink">
<g><path style="opacity:0.987" fill="#151414" d="M 36.5,-0.5 C 43.8333,-0.5 51.1667,-0.5 58.5,-0.5C 77.1667,5.5 89.5,17.8333 95.5,36.5C 95.5,43.8333 95.5,51.1667 95.5,58.5C 89.5,77.1667 77.1667,89.5 58.5,95.5C 51.1667,95.5 43.8333,95.5 36.5,95.5C 17.8333,89.5 5.5,77.1667 -0.5,58.5C -0.5,51.1667 -0.5,43.8333 -0.5,36.5C 5.5,17.8333 17.8333,5.5 36.5,-0.5 Z"/></g>
<g><path style="opacity:1" fill="#ec4444" d="M 71.5,47.5 C 71.5,52.1667 71.5,56.8333 71.5,61.5C 67.0293,62.0894 63.0293,61.4228 59.5,59.5C 60.7997,58.399 61.2997,57.0657 61,55.5C 57.6667,52.1667 54.3333,48.8333 51,45.5C 47.9845,48.6828 44.8178,51.6828 41.5,54.5C 34.6281,48.8084 28.7948,42.4751 24,35.5C 25,34.5 26,33.5 27,32.5C 31.6814,37.3485 36.5148,42.0152 41.5,46.5C 44.8178,43.6828 47.9845,40.6828 51,37.5C 56,42.5 61,47.5 66,52.5C 67.7038,50.6266 69.5372,48.9599 71.5,47.5 Z"/></g>
<g><path style="opacity:1" fill="#b43838" d="M 71.5,47.5 C 72.4872,52.3054 72.8205,57.3054 72.5,62.5C 67.456,62.8275 62.456,62.4941 57.5,61.5C 57.8555,60.4777 58.5222,59.811 59.5,59.5C 63.0293,61.4228 67.0293,62.0894 71.5,61.5C 71.5,56.8333 71.5,52.1667 71.5,47.5 Z"/></g>
</svg>
