<?xml version="1.0" encoding="UTF-8"?>
<!DOCTYPE svg PUBLIC "-//W3C//DTD SVG 1.1//EN" "http://www.w3.org/Graphics/SVG/1.1/DTD/svg11.dtd">
<svg xmlns="http://www.w3.org/2000/svg" version="1.1" width="96px" height="96px" style="shape-rendering:geometricPrecision; text-rendering:geometricPrecision; image-rendering:optimizeQuality; fill-rule:evenodd; clip-rule:evenodd" xmlns:xlink="http://www.w3.org/1999/xlink">
<g><path style="opacity:1" fill="#1ecf19" d="M 33.5,-0.5 C 34.1667,-0.5 34.8333,-0.5 35.5,-0.5C 36.8038,3.44091 38.6371,7.10757 41,10.5C 44.7274,13.7241 47.8941,17.3908 50.5,21.5C 51.6223,22.6302 52.9557,23.2969 54.5,23.5C 54.1667,24.5 53.5,25.1667 52.5,25.5C 45.1667,17.8333 37.8333,10.1667 30.5,2.5C 31.3065,1.27187 32.3065,0.271873 33.5,-0.5 Z"/></g>
<g><path style="opacity:1" fill="#1dd318" d="M 35.5,-0.5 C 36.8333,-0.5 38.1667,-0.5 39.5,-0.5C 41.6572,1.41207 43.9906,3.07874 46.5,4.5C 44.9438,5.29088 43.6105,5.62421 42.5,5.5C 47.0159,11.4282 52.0159,16.9282 57.5,22C 56.7562,23.0386 55.7562,23.5386 54.5,23.5C 52.9557,23.2969 51.6223,22.6302 50.5,21.5C 47.8941,17.3908 44.7274,13.7241 41,10.5C 38.6371,7.10757 36.8038,3.44091 35.5,-0.5 Z"/></g>
<g><path style="opacity:1" fill="#17c915" d="M 30.5,2.5 C 37.8333,10.1667 45.1667,17.8333 52.5,25.5C 50.4261,26.5139 48.4261,27.5139 46.5,28.5C 42.5,26.5 38.5,24.5 34.5,22.5C 35.6316,21.6457 36.965,21.6457 38.5,22.5C 40.6076,24.0591 42.9409,25.3924 45.5,26.5C 46.521,25.9984 46.6877,25.3317 46,24.5C 39.9826,17.9187 33.8159,11.5853 27.5,5.5C 27.5,4.83333 27.5,4.16667 27.5,3.5C 28.391,2.89022 29.391,2.55688 30.5,2.5 Z"/></g>
<g><path style="opacity:1" fill="#1cc31b" d="M 27.5,5.5 C 33.8159,11.5853 39.9826,17.9187 46,24.5C 46.6877,25.3317 46.521,25.9984 45.5,26.5C 42.9409,25.3924 40.6076,24.0591 38.5,22.5C 33.8976,18.6676 29.7309,14.3342 26,9.5C 26.1484,8.17503 25.9817,7.00836 25.5,6C 26.0944,5.53566 26.7611,5.36899 27.5,5.5 Z"/></g>
<g><path style="opacity:1" fill="#13d011" d="M 46.5,4.5 C 48.2838,4.89254 49.9505,5.5592 51.5,6.5C 53.3281,10.8422 56.1614,14.5088 60,17.5C 61.113,18.7604 61.2797,19.927 60.5,21C 61.5,21.6667 62.5,21.6667 63.5,21C 65.8593,19.7575 67.8593,18.2575 69.5,16.5C 70.4511,17.9187 70.7845,19.5853 70.5,21.5C 68.6203,21.2291 67.287,21.8958 66.5,23.5C 60.7081,25.8959 55.0414,28.5626 49.5,31.5C 48.1001,30.9002 47.1001,29.9002 46.5,28.5C 48.4261,27.5139 50.4261,26.5139 52.5,25.5C 53.5,25.1667 54.1667,24.5 54.5,23.5C 55.7562,23.5386 56.7562,23.0386 57.5,22C 52.0159,16.9282 47.0159,11.4282 42.5,5.5C 43.6105,5.62421 44.9438,5.29088 46.5,4.5 Z"/></g>
<g><path style="opacity:1" fill="#22c120" d="M 27.5,3.5 C 27.5,4.16667 27.5,4.83333 27.5,5.5C 26.7611,5.36899 26.0944,5.53566 25.5,6C 25.9817,7.00836 26.1484,8.17503 26,9.5C 29.7309,14.3342 33.8976,18.6676 38.5,22.5C 36.965,21.6457 35.6316,21.6457 34.5,22.5C 27.6577,18.5784 20.6577,14.9117 13.5,11.5C 17.8056,8.34286 22.4722,5.6762 27.5,3.5 Z"/></g>
<g><path style="opacity:1" fill="#39dd2c" d="M 51.5,6.5 C 57.8574,9.3418 63.8574,12.6751 69.5,16.5C 67.8593,18.2575 65.8593,19.7575 63.5,21C 62.5,21.6667 61.5,21.6667 60.5,21C 61.2797,19.927 61.113,18.7604 60,17.5C 56.1614,14.5088 53.3281,10.8422 51.5,6.5 Z"/></g>
<g><path style="opacity:1" fill="#048503" d="M 13.5,11.5 C 20.6577,14.9117 27.6577,18.5784 34.5,22.5C 38.5,24.5 42.5,26.5 46.5,28.5C 47.1001,29.9002 48.1001,30.9002 49.5,31.5C 49.5,31.8333 49.5,32.1667 49.5,32.5C 43.6891,30.425 38.0224,28.0917 32.5,25.5C 30.8816,23.684 28.8816,22.3507 26.5,21.5C 26.44,20.9569 26.1067,20.6236 25.5,20.5C 24.5033,27.1335 24.17,33.8002 24.5,40.5C 20.9568,38.5617 17.2901,36.8951 13.5,35.5C 13.5,27.5 13.5,19.5 13.5,11.5 Z"/></g>
<g><path style="opacity:1" fill="#557c55" d="M 26.5,21.5 C 25.5098,27.6446 25.1765,33.9779 25.5,40.5C 25.1667,40.5 24.8333,40.5 24.5,40.5C 24.17,33.8002 24.5033,27.1335 25.5,20.5C 26.1067,20.6236 26.44,20.9569 26.5,21.5 Z"/></g>
<g><path style="opacity:1" fill="#756b6f" d="M 26.5,21.5 C 28.8816,22.3507 30.8816,23.684 32.5,25.5C 30.9519,25.8212 30.2852,26.8212 30.5,28.5C 30.5,32.5 30.5,36.5 30.5,40.5C 30.5,41.1667 30.5,41.8333 30.5,42.5C 28.4862,42.6085 26.8195,41.9418 25.5,40.5C 25.1765,33.9779 25.5098,27.6446 26.5,21.5 Z"/></g>
<g><path style="opacity:1" fill="#f2716a" d="M 66.5,23.5 C 67.7349,25.017 67.7349,26.6837 66.5,28.5C 69.2032,29.626 69.8699,31.2927 68.5,33.5C 67.609,34.1098 66.609,34.4431 65.5,34.5C 64.8333,34.8333 64.1667,35.1667 63.5,35.5C 61.0392,37.153 58.8725,39.153 57,41.5C 56.5357,40.9056 56.369,40.2389 56.5,39.5C 57.6736,37.6322 57.0069,36.6322 54.5,36.5C 53.0011,35.506 51.3344,35.506 49.5,36.5C 49.5,35.1667 49.5,33.8333 49.5,32.5C 49.5,32.1667 49.5,31.8333 49.5,31.5C 55.0414,28.5626 60.7081,25.8959 66.5,23.5 Z"/></g>
<g><path style="opacity:1" fill="#9e7b66" d="M 30.5,28.5 C 33.6975,29.4521 36.6975,30.7855 39.5,32.5C 38.5084,32.3284 37.8417,32.6618 37.5,33.5C 37.1667,36.8333 36.8333,40.1667 36.5,43.5C 34.7105,42.1228 32.7105,41.1228 30.5,40.5C 30.5,36.5 30.5,32.5 30.5,28.5 Z"/></g>
<g><path style="opacity:1" fill="#bf4a41" d="M 32.5,25.5 C 36.1085,28.3113 40.1085,30.6446 44.5,32.5C 45.3857,33.325 45.719,34.325 45.5,35.5C 44.1667,34.8333 42.8333,34.1667 41.5,33.5C 40.8333,33.1667 40.1667,32.8333 39.5,32.5C 36.6975,30.7855 33.6975,29.4521 30.5,28.5C 30.2852,26.8212 30.9519,25.8212 32.5,25.5 Z"/></g>
<g><path style="opacity:1" fill="#eae5e2" d="M 37.5,33.5 C 37.8417,32.6618 38.5084,32.3284 39.5,32.5C 40.1667,32.8333 40.8333,33.1667 41.5,33.5C 40.9238,37.1125 41.9238,40.1125 44.5,42.5C 45.0906,43.1515 45.7573,43.8182 46.5,44.5C 45.132,45.5937 43.9653,45.2603 43,43.5C 40.6798,40.2409 38.8465,36.9076 37.5,33.5 Z"/></g>
<g><path style="opacity:1" fill="#2d1c2b" d="M 65.5,34.5 C 64.968,37.4596 64.3013,37.7929 63.5,35.5C 64.1667,35.1667 64.8333,34.8333 65.5,34.5 Z"/></g>
<g><path style="opacity:1" fill="#3a3c3c" d="M 27.5,23.5 C 28.1174,23.6107 28.6174,23.944 29,24.5C 29.6667,30.1667 29.6667,35.8333 29,41.5C 27.5474,35.6828 27.0474,29.6828 27.5,23.5 Z"/></g>
<g><path style="opacity:1" fill="#daae93" d="M 68.5,33.5 C 68.5,34.8333 68.5,36.1667 68.5,37.5C 62.3186,40.7567 55.9852,43.7567 49.5,46.5C 49.5,43.1667 49.5,39.8333 49.5,36.5C 51.3344,35.506 53.0011,35.506 54.5,36.5C 53.3058,38.4844 53.3058,40.4844 54.5,42.5C 55.1757,41.3984 55.8423,40.3984 56.5,39.5C 56.369,40.2389 56.5357,40.9056 57,41.5C 58.8725,39.153 61.0392,37.153 63.5,35.5C 64.3013,37.7929 64.968,37.4596 65.5,34.5C 66.609,34.4431 67.609,34.1098 68.5,33.5 Z"/></g>
<g><path style="opacity:1" fill="#f7f5f5" d="M 54.5,36.5 C 57.0069,36.6322 57.6736,37.6322 56.5,39.5C 55.8423,40.3984 55.1757,41.3984 54.5,42.5C 53.3058,40.4844 53.3058,38.4844 54.5,36.5 Z"/></g>
<g><path style="opacity:1" fill="#9a9898" d="M 32.5,25.5 C 38.0224,28.0917 43.6891,30.425 49.5,32.5C 49.5,33.8333 49.5,35.1667 49.5,36.5C 49.5,39.8333 49.5,43.1667 49.5,46.5C 49.5,46.8333 49.5,47.1667 49.5,47.5C 48.1751,48.9526 47.3418,48.6192 47,46.5C 46.5065,48.1341 46.3398,49.8008 46.5,51.5C 45.8333,51.5 45.5,51.1667 45.5,50.5C 42.75,47.9449 39.75,45.6116 36.5,43.5C 36.8333,40.1667 37.1667,36.8333 37.5,33.5C 38.8465,36.9076 40.6798,40.2409 43,43.5C 43.9653,45.2603 45.132,45.5937 46.5,44.5C 45.7573,43.8182 45.0906,43.1515 44.5,42.5C 45.4682,40.3926 45.8016,38.0593 45.5,35.5C 45.719,34.325 45.3857,33.325 44.5,32.5C 40.1085,30.6446 36.1085,28.3113 32.5,25.5 Z"/></g>
<g><path style="opacity:1" fill="#98745e" d="M 41.5,33.5 C 42.8333,34.1667 44.1667,34.8333 45.5,35.5C 45.8016,38.0593 45.4682,40.3926 44.5,42.5C 41.9238,40.1125 40.9238,37.1125 41.5,33.5 Z"/></g>
<g><path style="opacity:1" fill="#088008" d="M 13.5,35.5 C 17.2901,36.8951 20.9568,38.5617 24.5,40.5C 24.8333,40.5 25.1667,40.5 25.5,40.5C 26.8195,41.9418 28.4862,42.6085 30.5,42.5C 34.9839,45.9117 39.9839,48.5784 45.5,50.5C 45.5,51.1667 45.8333,51.5 46.5,51.5C 46.8417,52.3382 47.5084,52.6716 48.5,52.5C 51.8333,54.5 55.1667,56.5 58.5,58.5C 58.6309,59.3764 58.2975,60.0431 57.5,60.5C 47.7568,54.9617 37.7568,49.9617 27.5,45.5C 23.4194,42.1263 18.7528,39.793 13.5,38.5C 13.5,37.5 13.5,36.5 13.5,35.5 Z"/></g>
<g><path style="opacity:1" fill="#068504" d="M 13.5,38.5 C 18.7528,39.793 23.4194,42.1263 27.5,45.5C 27.8333,46.1667 28.1667,46.8333 28.5,47.5C 26.323,48.2794 24.6563,49.6127 23.5,51.5C 22.609,50.8902 21.609,50.5569 20.5,50.5C 18.2854,49.7321 15.9521,49.0654 13.5,48.5C 13.5,45.1667 13.5,41.8333 13.5,38.5 Z"/></g>
<g><path style="opacity:1" fill="#b3acb1" d="M 70.5,21.5 C 70.5,27.8333 70.5,34.1667 70.5,40.5C 68.326,40.7497 66.6594,41.7497 65.5,43.5C 59.3504,45.7396 53.6837,48.7396 48.5,52.5C 47.5084,52.6716 46.8417,52.3382 46.5,51.5C 46.3398,49.8008 46.5065,48.1341 47,46.5C 47.3418,48.6192 48.1751,48.9526 49.5,47.5C 49.56,48.0431 49.8933,48.3764 50.5,48.5C 57.2961,45.7859 63.2961,42.1192 68.5,37.5C 68.5,36.1667 68.5,34.8333 68.5,33.5C 69.8699,31.2927 69.2032,29.626 66.5,28.5C 67.7349,26.6837 67.7349,25.017 66.5,23.5C 67.287,21.8958 68.6203,21.2291 70.5,21.5 Z"/></g>
<g><path style="opacity:1" fill="#cf6d6d" d="M 30.5,40.5 C 32.7105,41.1228 34.7105,42.1228 36.5,43.5C 39.75,45.6116 42.75,47.9449 45.5,50.5C 39.9839,48.5784 34.9839,45.9117 30.5,42.5C 30.5,41.8333 30.5,41.1667 30.5,40.5 Z"/></g>
<g><path style="opacity:1" fill="#f6f3f1" d="M 68.5,37.5 C 63.2961,42.1192 57.2961,45.7859 50.5,48.5C 49.8933,48.3764 49.56,48.0431 49.5,47.5C 49.5,47.1667 49.5,46.8333 49.5,46.5C 55.9852,43.7567 62.3186,40.7567 68.5,37.5 Z"/></g>
<g><path style="opacity:1" fill="#07db06" d="M 65.5,43.5 C 68.0624,46.2226 71.0624,48.3893 74.5,50C 70.1667,52.1667 65.8333,54.3333 61.5,56.5C 60.8324,59.3056 60.1657,61.9723 59.5,64.5C 59.6716,63.5084 59.3382,62.8417 58.5,62.5C 59.6857,61.0387 59.6857,59.7054 58.5,58.5C 55.1667,56.5 51.8333,54.5 48.5,52.5C 53.6837,48.7396 59.3504,45.7396 65.5,43.5 Z"/></g>
<g><path style="opacity:1" fill="#028501" d="M 28.5,47.5 C 32.1513,48.6589 35.4846,50.3256 38.5,52.5C 37.5233,55.2869 37.19,58.2869 37.5,61.5C 37.5,61.8333 37.5,62.1667 37.5,62.5C 36.3052,62.6775 35.1385,63.0109 34,63.5C 32.257,61.68 30.757,59.68 29.5,57.5C 27.8333,55.1667 25.8333,53.1667 23.5,51.5C 24.6563,49.6127 26.323,48.2794 28.5,47.5 Z"/></g>
<g><path style="opacity:1" fill="#00a800" d="M 27.5,45.5 C 37.7568,49.9617 47.7568,54.9617 57.5,60.5C 58.2975,60.0431 58.6309,59.3764 58.5,58.5C 59.6857,59.7054 59.6857,61.0387 58.5,62.5C 51.8068,59.1534 45.1401,55.8201 38.5,52.5C 35.4846,50.3256 32.1513,48.6589 28.5,47.5C 28.1667,46.8333 27.8333,46.1667 27.5,45.5 Z"/></g>
<g><path style="opacity:1" fill="#757874" d="M 75.5,41.5 C 82.9652,40.8951 88.2985,43.8951 91.5,50.5C 89.3068,52.7206 86.6401,54.054 83.5,54.5C 82.8333,58.1667 82.1667,61.8333 81.5,65.5C 81.83,58.8002 81.4967,52.1335 80.5,45.5C 78.1419,44.8461 76.4752,43.5128 75.5,41.5 Z"/></g>
<g><path style="opacity:1" fill="#068204" d="M 38.5,52.5 C 45.1401,55.8201 51.8068,59.1534 58.5,62.5C 59.3382,62.8417 59.6716,63.5084 59.5,64.5C 59.1832,68.7016 59.5166,72.7016 60.5,76.5C 60.1583,77.3382 59.4916,77.6716 58.5,77.5C 56.684,75.8816 55.3507,73.8816 54.5,71.5C 53.8333,70.1667 52.8333,69.1667 51.5,68.5C 49.7807,65.7805 47.4474,63.7805 44.5,62.5C 42.2362,61.7814 39.9029,61.448 37.5,61.5C 37.19,58.2869 37.5233,55.2869 38.5,52.5 Z"/></g>
<g><path style="opacity:1" fill="#5f5c5c" d="M 13.5,48.5 C 15.9521,49.0654 18.2854,49.7321 20.5,50.5C 16.9804,51.3491 13.6471,52.6824 10.5,54.5C 13.6136,56.3797 16.2802,58.713 18.5,61.5C 17.7784,61.9175 17.2784,62.5842 17,63.5C 15.7012,63.0338 14.2012,63.0338 12.5,63.5C 12.6107,62.8826 12.944,62.3826 13.5,62C 10.1868,59.8594 7.18685,60.0261 4.5,62.5C 3.83855,63.7175 3.17189,65.0508 2.5,66.5C 0.995364,63.8694 0.328698,64.2027 0.5,67.5C 0.166667,67.5 -0.166667,67.5 -0.5,67.5C -0.5,64.1667 -0.5,60.8333 -0.5,57.5C 3.66312,53.7714 8.32978,50.7714 13.5,48.5 Z"/></g>
<g><path style="opacity:1" fill="#969696" d="M 20.5,50.5 C 21.609,50.5569 22.609,50.8902 23.5,51.5C 25.8333,53.1667 27.8333,55.1667 29.5,57.5C 29.1667,57.5 28.8333,57.5 28.5,57.5C 27.1266,57.3433 25.7932,57.51 24.5,58C 22.7129,59.5821 20.7129,60.7488 18.5,61.5C 16.2802,58.713 13.6136,56.3797 10.5,54.5C 13.6471,52.6824 16.9804,51.3491 20.5,50.5 Z"/></g>
<g><path style="opacity:1" fill="#14c010" d="M 70.5,40.5 C 72.2161,40.6287 73.8828,40.962 75.5,41.5C 76.4752,43.5128 78.1419,44.8461 80.5,45.5C 81.4967,52.1335 81.83,58.8002 81.5,65.5C 81.5,65.8333 81.5,66.1667 81.5,66.5C 74.3478,69.5767 67.3478,72.91 60.5,76.5C 59.5166,72.7016 59.1832,68.7016 59.5,64.5C 60.1657,61.9723 60.8324,59.3056 61.5,56.5C 65.8333,54.3333 70.1667,52.1667 74.5,50C 71.0624,48.3893 68.0624,46.2226 65.5,43.5C 66.6594,41.7497 68.326,40.7497 70.5,40.5 Z"/></g>
<g><path style="opacity:1" fill="#fbeb30" d="M 72.5,54.5 C 72.6347,56.5542 71.968,58.2209 70.5,59.5C 68.7748,59.1575 68.2748,58.1575 69,56.5C 70.1127,55.695 71.2794,55.0283 72.5,54.5 Z"/></g>
<g><path style="opacity:1" fill="#ede63d" d="M 79.5,51.5 C 79.5,52.8333 79.5,54.1667 79.5,55.5C 78.0413,55.4326 76.7079,55.7659 75.5,56.5C 75.1826,53.4535 76.5159,51.7868 79.5,51.5 Z"/></g>
<g><path style="opacity:1" fill="#667c58" d="M 79.5,51.5 C 76.5159,51.7868 75.1826,53.4535 75.5,56.5C 75.44,57.0431 75.1067,57.3764 74.5,57.5C 73.8243,56.3984 73.1577,55.3984 72.5,54.5C 71.2794,55.0283 70.1127,55.695 69,56.5C 68.2748,58.1575 68.7748,59.1575 70.5,59.5C 69.713,61.1042 68.3797,61.7709 66.5,61.5C 66.6567,60.1266 66.49,58.7932 66,57.5C 65.3292,58.2524 64.4959,58.5858 63.5,58.5C 68.4008,55.2346 73.5675,52.2346 79,49.5C 79.4643,50.0944 79.631,50.7611 79.5,51.5 Z"/></g>
<g><path style="opacity:1" fill="#8c7a5f" d="M 63.5,58.5 C 61.9912,62.0741 62.9912,63.0741 66.5,61.5C 64.2696,64.8822 62.6029,64.8822 61.5,61.5C 61.6399,59.9704 62.3065,58.9704 63.5,58.5 Z"/></g>
<g><path style="opacity:1" fill="#fdf338" d="M 66.5,61.5 C 62.9912,63.0741 61.9912,62.0741 63.5,58.5C 64.4959,58.5858 65.3292,58.2524 66,57.5C 66.49,58.7932 66.6567,60.1266 66.5,61.5 Z"/></g>
<g><path style="opacity:1" fill="#414040" d="M 91.5,50.5 C 93.0737,51.9842 94.407,53.6508 95.5,55.5C 95.5,56.5 95.5,57.5 95.5,58.5C 94.8354,60.3691 94.1687,62.3691 93.5,64.5C 90.7238,65.0891 88.3904,66.4224 86.5,68.5C 84.6666,64.0029 83.6666,59.3363 83.5,54.5C 86.6401,54.054 89.3068,52.7206 91.5,50.5 Z"/></g>
<g><path style="opacity:1" fill="#464444" d="M 28.5,57.5 C 28.8333,57.5 29.1667,57.5 29.5,57.5C 30.757,59.68 32.257,61.68 34,63.5C 35.1385,63.0109 36.3052,62.6775 37.5,62.5C 37.4226,63.7498 36.756,64.5831 35.5,65C 32.8987,65.9203 30.2321,66.587 27.5,67C 25.8588,68.129 24.8588,69.629 24.5,71.5C 23.8333,71.5 23.1667,71.5 22.5,71.5C 22.9864,68.2447 21.9864,65.578 19.5,63.5C 22.728,61.7281 25.728,59.7281 28.5,57.5 Z"/></g>
<g><path style="opacity:1" fill="#686667" d="M 28.5,57.5 C 25.728,59.7281 22.728,61.7281 19.5,63.5C 21.9864,65.578 22.9864,68.2447 22.5,71.5C 20.9081,70.3984 20.0748,71.065 20,73.5C 19.7679,72.2625 19.2679,71.2625 18.5,70.5C 15.6075,71.523 12.7742,71.523 10,70.5C 7.56539,66.9694 8.39872,64.6361 12.5,63.5C 14.2012,63.0338 15.7012,63.0338 17,63.5C 17.2784,62.5842 17.7784,61.9175 18.5,61.5C 20.7129,60.7488 22.7129,59.5821 24.5,58C 25.7932,57.51 27.1266,57.3433 28.5,57.5 Z"/></g>
<g><path style="opacity:1" fill="#979697" d="M 44.5,62.5 C 47.4474,63.7805 49.7807,65.7805 51.5,68.5C 48.7741,70.5362 45.7741,72.2028 42.5,73.5C 40.6414,71.8076 38.6414,70.3076 36.5,69C 35.2888,68.1072 35.2888,67.2739 36.5,66.5C 39.2585,65.1207 41.9252,63.7874 44.5,62.5 Z"/></g>
<g><path style="opacity:1" fill="#605c5d" d="M 37.5,61.5 C 39.9029,61.448 42.2362,61.7814 44.5,62.5C 41.9252,63.7874 39.2585,65.1207 36.5,66.5C 35.2888,67.2739 35.2888,68.1072 36.5,69C 38.6414,70.3076 40.6414,71.8076 42.5,73.5C 45.7741,72.2028 48.7741,70.5362 51.5,68.5C 52.8333,69.1667 53.8333,70.1667 54.5,71.5C 51.2344,73.0323 47.9011,74.3656 44.5,75.5C 46.2708,79.588 47.2708,83.9214 47.5,88.5C 47.2852,90.1788 47.9519,91.1788 49.5,91.5C 49.5,92.1667 49.1667,92.5 48.5,92.5C 47.5041,92.5858 46.6708,92.2524 46,91.5C 45.7811,90.062 45.2811,88.7287 44.5,87.5C 43.5712,88.5498 42.9046,88.5498 42.5,87.5C 43.128,83.5089 41.7947,82.1755 38.5,83.5C 38.4486,81.4305 39.1153,79.5971 40.5,78C 39.8699,76.6898 38.8699,75.8565 37.5,75.5C 35.8243,73.1663 33.491,72.1663 30.5,72.5C 29.2617,72.19 29.2617,71.69 30.5,71C 29.2341,70.6905 28.0674,70.1905 27,69.5C 26.2917,70.3805 25.4584,71.0472 24.5,71.5C 24.8588,69.629 25.8588,68.129 27.5,67C 30.2321,66.587 32.8987,65.9203 35.5,65C 36.756,64.5831 37.4226,63.7498 37.5,62.5C 37.5,62.1667 37.5,61.8333 37.5,61.5 Z"/></g>
<g><path style="opacity:1" fill="#5b5759" d="M 83.5,54.5 C 83.6666,59.3363 84.6666,64.0029 86.5,68.5C 88.3904,66.4224 90.7238,65.0891 93.5,64.5C 94.1687,62.3691 94.8354,60.3691 95.5,58.5C 95.5,61.1667 95.5,63.8333 95.5,66.5C 94.7326,67.172 94.0659,68.0053 93.5,69C 88.5882,71.3724 83.7549,73.8724 79,76.5C 77.1852,75.7556 75.3519,75.0889 73.5,74.5C 75.6076,72.9409 77.9409,71.6076 80.5,70.5C 81.4287,69.3112 81.762,67.9778 81.5,66.5C 81.5,66.1667 81.5,65.8333 81.5,65.5C 82.1667,61.8333 82.8333,58.1667 83.5,54.5 Z"/></g>
<g><path style="opacity:1" fill="#303030" d="M 12.5,63.5 C 8.39872,64.6361 7.56539,66.9694 10,70.5C 12.7742,71.523 15.6075,71.523 18.5,70.5C 18.9465,73.0101 18.2798,75.0101 16.5,76.5C 11.945,76.4693 8.44503,74.4693 6,70.5C 4.92074,67.9373 4.42074,65.2706 4.5,62.5C 7.18685,60.0261 10.1868,59.8594 13.5,62C 12.944,62.3826 12.6107,62.8826 12.5,63.5 Z"/></g>
<g><path style="opacity:1" fill="#565554" d="M 4.5,62.5 C 4.42074,65.2706 4.92074,67.9373 6,70.5C 8.44503,74.4693 11.945,76.4693 16.5,76.5C 15.3915,77.29 14.0581,77.79 12.5,78C 17.6391,79.7514 17.3057,80.9181 11.5,81.5C 5.63177,78.6245 1.9651,73.9579 0.5,67.5C 0.328698,64.2027 0.995364,63.8694 2.5,66.5C 3.17189,65.0508 3.83855,63.7175 4.5,62.5 Z"/></g>
<g><path style="opacity:1" fill="#5a5757" d="M 30.5,72.5 C 28.2154,75.5645 27.8821,78.8979 29.5,82.5C 29.5594,84.7645 28.7261,85.0978 27,83.5C 25.9701,83.8361 25.4701,84.5028 25.5,85.5C 23.9328,84.3192 23.0995,82.6526 23,80.5C 21.1781,82.0454 19.0114,82.712 16.5,82.5C 14.6307,82.4932 12.964,82.1599 11.5,81.5C 17.3057,80.9181 17.6391,79.7514 12.5,78C 14.0581,77.79 15.3915,77.29 16.5,76.5C 18.2798,75.0101 18.9465,73.0101 18.5,70.5C 19.2679,71.2625 19.7679,72.2625 20,73.5C 20.0748,71.065 20.9081,70.3984 22.5,71.5C 23.1667,71.5 23.8333,71.5 24.5,71.5C 25.4584,71.0472 26.2917,70.3805 27,69.5C 28.0674,70.1905 29.2341,70.6905 30.5,71C 29.2617,71.69 29.2617,72.19 30.5,72.5 Z"/></g>
<g><path style="opacity:1" fill="#7e7e7e" d="M 37.5,75.5 C 38.8699,75.8565 39.8699,76.6898 40.5,78C 39.1153,79.5971 38.4486,81.4305 38.5,83.5C 35.1268,84.7932 33.1268,83.4598 32.5,79.5C 33.5788,77.4202 35.2455,76.0868 37.5,75.5 Z"/></g>
<g><path style="opacity:1" fill="#3e3c3d" d="M 54.5,71.5 C 55.3507,73.8816 56.684,75.8816 58.5,77.5C 59.9143,79.5983 59.2476,80.5983 56.5,80.5C 56.7035,82.3904 56.0368,83.8904 54.5,85C 51.9964,85.9554 49.663,87.1221 47.5,88.5C 47.2708,83.9214 46.2708,79.588 44.5,75.5C 47.9011,74.3656 51.2344,73.0323 54.5,71.5 Z"/></g>
<g><path style="opacity:1" fill="#504f4f" d="M 81.5,66.5 C 81.762,67.9778 81.4287,69.3112 80.5,70.5C 77.9409,71.6076 75.6076,72.9409 73.5,74.5C 69.11,77.5355 64.4433,80.2022 59.5,82.5C 58.0516,87.616 54.7183,90.616 49.5,91.5C 47.9519,91.1788 47.2852,90.1788 47.5,88.5C 49.663,87.1221 51.9964,85.9554 54.5,85C 56.0368,83.8904 56.7035,82.3904 56.5,80.5C 59.2476,80.5983 59.9143,79.5983 58.5,77.5C 59.4916,77.6716 60.1583,77.3382 60.5,76.5C 67.3478,72.91 74.3478,69.5767 81.5,66.5 Z"/></g>
<g><path style="opacity:1" fill="#353434" d="M 30.5,72.5 C 33.491,72.1663 35.8243,73.1663 37.5,75.5C 35.2455,76.0868 33.5788,77.4202 32.5,79.5C 33.1268,83.4598 35.1268,84.7932 38.5,83.5C 41.7947,82.1755 43.128,83.5089 42.5,87.5C 40.8401,89.2484 38.8401,89.7484 36.5,89C 33.6424,87.3059 31.309,85.1393 29.5,82.5C 27.8821,78.8979 28.2154,75.5645 30.5,72.5 Z"/></g>
<g><path style="opacity:1" fill="#575555" d="M 29.5,82.5 C 31.309,85.1393 33.6424,87.3059 36.5,89C 38.8401,89.7484 40.8401,89.2484 42.5,87.5C 42.9046,88.5498 43.5712,88.5498 44.5,87.5C 45.2811,88.7287 45.7811,90.062 46,91.5C 46.6708,92.2524 47.5041,92.5858 48.5,92.5C 47.1667,93.5 45.8333,94.5 44.5,95.5C 41.5,95.5 38.5,95.5 35.5,95.5C 31.1729,93.1729 27.8395,89.8395 25.5,85.5C 25.4701,84.5028 25.9701,83.8361 27,83.5C 28.7261,85.0978 29.5594,84.7645 29.5,82.5 Z"/></g>
</svg>
