<?xml version="1.0" encoding="UTF-8"?>
<!DOCTYPE svg PUBLIC "-//W3C//DTD SVG 1.1//EN" "http://www.w3.org/Graphics/SVG/1.1/DTD/svg11.dtd">
<svg xmlns="http://www.w3.org/2000/svg" version="1.1" width="96px" height="96px" style="shape-rendering:geometricPrecision; text-rendering:geometricPrecision; image-rendering:optimizeQuality; fill-rule:evenodd; clip-rule:evenodd" xmlns:xlink="http://www.w3.org/1999/xlink">
<g><path style="opacity:0.999" fill="#8a0472" d="M -0.5,-0.5 C 31.5,-0.5 63.5,-0.5 95.5,-0.5C 95.5,10.8333 95.5,22.1667 95.5,33.5C 87.3301,35.5726 78.9968,36.906 70.5,37.5C 70.8016,40.0593 70.4682,42.3926 69.5,44.5C 69.5,39.8333 69.5,35.1667 69.5,30.5C 70.5,30.5 71.5,30.5 72.5,30.5C 72.5,29.1667 72.5,27.8333 72.5,26.5C 73.5,26.5 74.5,26.5 75.5,26.5C 75.5,24.5 75.5,22.5 75.5,20.5C 76.5,20.5 77.5,20.5 78.5,20.5C 78.5,17.5 78.5,14.5 78.5,11.5C 77.5,11.5 76.5,11.5 75.5,11.5C 75.5,10.5 75.5,9.5 75.5,8.5C 74.5,8.5 73.5,8.5 72.5,8.5C 72.5,9.5 72.5,10.5 72.5,11.5C 72.1667,11.5 71.8333,11.5 71.5,11.5C 69.6122,13.9878 68.9455,16.9878 69.5,20.5C 69.1667,20.5 68.8333,20.5 68.5,20.5C 67.5,20.5 66.5,20.5 65.5,20.5C 65.5,21.5 65.5,22.5 65.5,23.5C 64.5,23.5 63.5,23.5 62.5,23.5C 62.5,22.5 62.5,21.5 62.5,20.5C 59.5,20.5 56.5,20.5 53.5,20.5C 53.5,19.5 53.5,18.5 53.5,17.5C 49.1667,17.5 44.8333,17.5 40.5,17.5C 40.5,18.5 40.5,19.5 40.5,20.5C 39.5,20.5 38.5,20.5 37.5,20.5C 37.5,21.5 37.5,22.5 37.5,23.5C 34.5,23.5 31.5,23.5 28.5,23.5C 28.5,24.5 28.5,25.5 28.5,26.5C 31.5,26.5 34.5,26.5 37.5,26.5C 37.5,26.8333 37.5,27.1667 37.5,27.5C 34.5,27.5 31.5,27.5 28.5,27.5C 28.5,30.1667 28.5,32.8333 28.5,35.5C 30.5,35.5 32.5,35.5 34.5,35.5C 34.5,36.8333 34.5,38.1667 34.5,39.5C 35.5,39.5 36.5,39.5 37.5,39.5C 37.5,40.5 37.5,41.5 37.5,42.5C 34.5,42.5 31.5,42.5 28.5,42.5C 28.5,41.1667 28.5,39.8333 28.5,38.5C 27.5,38.5 26.5,38.5 25.5,38.5C 25.5343,34.3705 26.201,30.3705 27.5,26.5C 26.5,26.5 25.5,26.5 24.5,26.5C 24.5,27.5 24.5,28.5 24.5,29.5C 23.5,29.5 22.5,29.5 21.5,29.5C 13.9554,25.9715 6.62207,21.9715 -0.5,17.5C -0.5,11.5 -0.5,5.5 -0.5,-0.5 Z"/></g>
<g><path style="opacity:1" fill="#0e0e0b" d="M 75.5,11.5 C 74.5,11.5 73.5,11.5 72.5,11.5C 72.5,10.5 72.5,9.5 72.5,8.5C 73.5,8.5 74.5,8.5 75.5,8.5C 75.5,9.5 75.5,10.5 75.5,11.5 Z"/></g>
<g><path style="opacity:1" fill="#000000" d="M 71.5,11.5 C 71.5,14.5 71.5,17.5 71.5,20.5C 70.8333,20.5 70.1667,20.5 69.5,20.5C 68.9455,16.9878 69.6122,13.9878 71.5,11.5 Z"/></g>
<g><path style="opacity:1" fill="#070005" d="M 75.5,11.5 C 76.5,11.5 77.5,11.5 78.5,11.5C 78.5,14.5 78.5,17.5 78.5,20.5C 77.5,20.5 76.5,20.5 75.5,20.5C 75.5,17.5 75.5,14.5 75.5,11.5 Z"/></g>
<g><path style="opacity:1" fill="#007f16" d="M 71.5,11.5 C 71.8333,11.5 72.1667,11.5 72.5,11.5C 73.5,11.5 74.5,11.5 75.5,11.5C 75.5,14.5 75.5,17.5 75.5,20.5C 74.5,20.5 73.5,20.5 72.5,20.5C 72.5,22.5 72.5,24.5 72.5,26.5C 72.1667,26.5 71.8333,26.5 71.5,26.5C 71.5,24.5 71.5,22.5 71.5,20.5C 71.5,17.5 71.5,14.5 71.5,11.5 Z"/></g>
<g><path style="opacity:1" fill="#060105" d="M 53.5,20.5 C 49.1667,20.5 44.8333,20.5 40.5,20.5C 40.5,19.5 40.5,18.5 40.5,17.5C 44.8333,17.5 49.1667,17.5 53.5,17.5C 53.5,18.5 53.5,19.5 53.5,20.5 Z"/></g>
<g><path style="opacity:1" fill="#050004" d="M 40.5,20.5 C 40.5,21.5 40.5,22.5 40.5,23.5C 39.5,23.5 38.5,23.5 37.5,23.5C 37.5,22.5 37.5,21.5 37.5,20.5C 38.5,20.5 39.5,20.5 40.5,20.5 Z"/></g>
<g><path style="opacity:1" fill="#040003" d="M 53.5,20.5 C 56.5,20.5 59.5,20.5 62.5,20.5C 62.5,21.5 62.5,22.5 62.5,23.5C 59.5,23.5 56.5,23.5 53.5,23.5C 53.5,22.5 53.5,21.5 53.5,20.5 Z"/></g>
<g><path style="opacity:1" fill="#11000d" d="M 68.5,20.5 C 68.5,21.5 68.5,22.5 68.5,23.5C 67.5,23.5 66.5,23.5 65.5,23.5C 65.5,22.5 65.5,21.5 65.5,20.5C 66.5,20.5 67.5,20.5 68.5,20.5 Z"/></g>
<g><path style="opacity:1" fill="#0d030a" d="M 75.5,20.5 C 75.5,22.5 75.5,24.5 75.5,26.5C 74.5,26.5 73.5,26.5 72.5,26.5C 72.5,24.5 72.5,22.5 72.5,20.5C 73.5,20.5 74.5,20.5 75.5,20.5 Z"/></g>
<g><path style="opacity:1" fill="#009219" d="M 40.5,20.5 C 44.8333,20.5 49.1667,20.5 53.5,20.5C 53.5,21.5 53.5,22.5 53.5,23.5C 49.7795,21.3497 45.7795,21.0163 41.5,22.5C 41.6667,22.8333 41.8333,23.1667 42,23.5C 44.4321,22.5504 46.9321,22.5504 49.5,23.5C 49.5,24.5 49.5,25.5 49.5,26.5C 52.8333,26.5 56.1667,26.5 59.5,26.5C 59.5,29.1667 59.5,31.8333 59.5,34.5C 58.5,34.5 57.5,34.5 56.5,34.5C 55.791,33.596 54.791,33.2627 53.5,33.5C 53.5,33.1667 53.5,32.8333 53.5,32.5C 53.5,31.5 53.5,30.5 53.5,29.5C 49.1667,29.5 44.8333,29.5 40.5,29.5C 40.5,28.5 40.5,27.5 40.5,26.5C 39.5,26.5 38.5,26.5 37.5,26.5C 37.5,25.5 37.5,24.5 37.5,23.5C 38.5,23.5 39.5,23.5 40.5,23.5C 40.5,22.5 40.5,21.5 40.5,20.5 Z"/></g>
<g><path style="opacity:1" fill="#090107" d="M 37.5,23.5 C 37.5,24.5 37.5,25.5 37.5,26.5C 34.5,26.5 31.5,26.5 28.5,26.5C 28.5,25.5 28.5,24.5 28.5,23.5C 31.5,23.5 34.5,23.5 37.5,23.5 Z"/></g>
<g><path style="opacity:1" fill="#00ac1f" d="M 68.5,20.5 C 68.8333,20.5 69.1667,20.5 69.5,20.5C 70.1667,20.5 70.8333,20.5 71.5,20.5C 71.5,22.5 71.5,24.5 71.5,26.5C 70.5,27.5 69.5,28.5 68.5,29.5C 67.5,29.5 66.5,29.5 65.5,29.5C 65.5,33.8333 65.5,38.1667 65.5,42.5C 63.5,42.5 61.5,42.5 59.5,42.5C 59.5,40.5 59.5,38.5 59.5,36.5C 58.5,36.5 57.5,36.5 56.5,36.5C 56.5,36.1667 56.5,35.8333 56.5,35.5C 56.5,35.1667 56.5,34.8333 56.5,34.5C 57.5,34.5 58.5,34.5 59.5,34.5C 59.5,31.8333 59.5,29.1667 59.5,26.5C 56.1667,26.5 52.8333,26.5 49.5,26.5C 49.5,25.5 49.5,24.5 49.5,23.5C 46.9321,22.5504 44.4321,22.5504 42,23.5C 41.8333,23.1667 41.6667,22.8333 41.5,22.5C 45.7795,21.0163 49.7795,21.3497 53.5,23.5C 56.5,23.5 59.5,23.5 62.5,23.5C 62.5,24.5 62.5,25.5 62.5,26.5C 63.5,26.5 64.5,26.5 65.5,26.5C 65.5,25.5 65.5,24.5 65.5,23.5C 66.5,23.5 67.5,23.5 68.5,23.5C 68.5,22.5 68.5,21.5 68.5,20.5 Z"/></g>
<g><path style="opacity:1" fill="#0a0c08" d="M 62.5,23.5 C 63.5,23.5 64.5,23.5 65.5,23.5C 65.5,24.5 65.5,25.5 65.5,26.5C 64.5,26.5 63.5,26.5 62.5,26.5C 62.5,25.5 62.5,24.5 62.5,23.5 Z"/></g>
<g><path style="opacity:1" fill="#041102" d="M 37.5,26.5 C 38.5,26.5 39.5,26.5 40.5,26.5C 40.5,27.5 40.5,28.5 40.5,29.5C 38.8212,29.7148 37.8212,29.0481 37.5,27.5C 37.5,27.1667 37.5,26.8333 37.5,26.5 Z"/></g>
<g><path style="opacity:1" fill="#ad0397" d="M 37.5,27.5 C 37.8212,29.0481 38.8212,29.7148 40.5,29.5C 40.5,29.8333 40.5,30.1667 40.5,30.5C 40.5,32.1667 40.5,33.8333 40.5,35.5C 39.209,35.2627 38.209,35.596 37.5,36.5C 37.5,37.5 37.5,38.5 37.5,39.5C 36.5,39.5 35.5,39.5 34.5,39.5C 34.5,38.1667 34.5,36.8333 34.5,35.5C 32.5,35.5 30.5,35.5 28.5,35.5C 28.5,32.8333 28.5,30.1667 28.5,27.5C 31.5,27.5 34.5,27.5 37.5,27.5 Z"/></g>
<g><path style="opacity:1" fill="#003c0a" d="M 40.5,30.5 C 40.5,30.1667 40.5,29.8333 40.5,29.5C 44.8333,29.5 49.1667,29.5 53.5,29.5C 53.5,30.5 53.5,31.5 53.5,32.5C 53.1667,32.5 52.8333,32.5 52.5,32.5C 48.9707,30.5772 44.9707,29.9106 40.5,30.5 Z"/></g>
<g><path style="opacity:1" fill="#080006" d="M 21.5,30.5 C 22.5,30.5 23.5,30.5 24.5,30.5C 24.5,33.1667 24.5,35.8333 24.5,38.5C 23.5,38.5 22.5,38.5 21.5,38.5C 21.5,35.8333 21.5,33.1667 21.5,30.5 Z"/></g>
<g><path style="opacity:1" fill="#050003" d="M 40.5,30.5 C 44.9707,29.9106 48.9707,30.5772 52.5,32.5C 49.5,32.5 46.5,32.5 43.5,32.5C 43.5,33.5 43.5,34.5 43.5,35.5C 42.5,35.5 41.5,35.5 40.5,35.5C 40.5,33.8333 40.5,32.1667 40.5,30.5 Z"/></g>
<g><path style="opacity:1" fill="#050004" d="M 68.5,30.5 C 68.5,35.5 68.5,40.5 68.5,45.5C 66.5,45.5 64.5,45.5 62.5,45.5C 61.5,45.5 60.5,45.5 59.5,45.5C 59.5,46.5 59.5,47.5 59.5,48.5C 58.5,48.5 57.5,48.5 56.5,48.5C 56.5,50.5 56.5,52.5 56.5,54.5C 53.5,54.5 50.5,54.5 47.5,54.5C 47.5,53.5 47.5,52.5 47.5,51.5C 46.1667,51.5 44.8333,51.5 43.5,51.5C 43.5,52.5 43.5,53.5 43.5,54.5C 44.5,54.5 45.5,54.5 46.5,54.5C 46.5,55.5 46.5,56.5 46.5,57.5C 45.5,57.5 44.5,57.5 43.5,57.5C 43.5,60.5 43.5,63.5 43.5,66.5C 42.5,66.5 41.5,66.5 40.5,66.5C 40.5,64.8333 40.5,63.1667 40.5,61.5C 39.791,60.596 38.791,60.2627 37.5,60.5C 38.0998,59.1001 39.0998,58.1001 40.5,57.5C 40.5,54.5 40.5,51.5 40.5,48.5C 40.8333,48.5 41.1667,48.5 41.5,48.5C 45.5,48.5 49.5,48.5 53.5,48.5C 53.5,47.5 53.5,46.5 53.5,45.5C 54.5,45.5 55.5,45.5 56.5,45.5C 56.5,42.5 56.5,39.5 56.5,36.5C 57.5,36.5 58.5,36.5 59.5,36.5C 59.5,38.5 59.5,40.5 59.5,42.5C 61.5,42.5 63.5,42.5 65.5,42.5C 65.8693,38.2325 66.8693,34.2325 68.5,30.5 Z"/></g>
<g><path style="opacity:1" fill="#00370a" d="M 68.5,29.5 C 68.5,29.8333 68.5,30.1667 68.5,30.5C 66.8693,34.2325 65.8693,38.2325 65.5,42.5C 65.5,38.1667 65.5,33.8333 65.5,29.5C 66.5,29.5 67.5,29.5 68.5,29.5 Z"/></g>
<g><path style="opacity:1" fill="#000800" d="M 53.5,33.5 C 54.791,33.2627 55.791,33.596 56.5,34.5C 56.5,34.8333 56.5,35.1667 56.5,35.5C 54.8212,35.7148 53.8212,35.0481 53.5,33.5 Z"/></g>
<g><path style="opacity:1" fill="#a3038d" d="M 53.5,33.5 C 53.8212,35.0481 54.8212,35.7148 56.5,35.5C 56.5,35.8333 56.5,36.1667 56.5,36.5C 56.5,39.5 56.5,42.5 56.5,45.5C 55.5,45.5 54.5,45.5 53.5,45.5C 53.5,46.5 53.5,47.5 53.5,48.5C 49.5,48.5 45.5,48.5 41.5,48.5C 41.1758,44.4454 41.5091,40.4454 42.5,36.5C 42.6367,39.5527 42.6367,42.886 42.5,46.5C 44.8333,46.5 47.1667,46.5 49.5,46.5C 49.5,44.1667 49.5,41.8333 49.5,39.5C 48.5,39.5 47.5,39.5 46.5,39.5C 45.8333,37.5 45.1667,35.5 44.5,33.5C 47.5,33.5 50.5,33.5 53.5,33.5 Z"/></g>
<g><path style="opacity:1" fill="#030003" d="M 37.5,36.5 C 38.5,36.5 39.5,36.5 40.5,36.5C 40.5,40.5 40.5,44.5 40.5,48.5C 39.5,48.5 38.5,48.5 37.5,48.5C 37.5,47.5 37.5,46.5 37.5,45.5C 34.5,45.5 31.5,45.5 28.5,45.5C 28.5,44.5 28.5,43.5 28.5,42.5C 31.5,42.5 34.5,42.5 37.5,42.5C 37.5,41.5 37.5,40.5 37.5,39.5C 37.5,38.5 37.5,37.5 37.5,36.5 Z"/></g>
<g><path style="opacity:1" fill="#7a0266" d="M 52.5,32.5 C 52.8333,32.5 53.1667,32.5 53.5,32.5C 53.5,32.8333 53.5,33.1667 53.5,33.5C 50.5,33.5 47.5,33.5 44.5,33.5C 45.1667,35.5 45.8333,37.5 46.5,39.5C 47.5,39.5 48.5,39.5 49.5,39.5C 49.5,41.8333 49.5,44.1667 49.5,46.5C 47.1667,46.5 44.8333,46.5 42.5,46.5C 42.6367,42.886 42.6367,39.5527 42.5,36.5C 41.5091,40.4454 41.1758,44.4454 41.5,48.5C 41.1667,48.5 40.8333,48.5 40.5,48.5C 40.5,44.5 40.5,40.5 40.5,36.5C 39.5,36.5 38.5,36.5 37.5,36.5C 38.209,35.596 39.209,35.2627 40.5,35.5C 41.5,35.5 42.5,35.5 43.5,35.5C 43.5,34.5 43.5,33.5 43.5,32.5C 46.5,32.5 49.5,32.5 52.5,32.5 Z"/></g>
<g><path style="opacity:0.998" fill="#7c0377" d="M -0.5,17.5 C 6.62207,21.9715 13.9554,25.9715 21.5,29.5C 21.5,29.8333 21.5,30.1667 21.5,30.5C 21.5,33.1667 21.5,35.8333 21.5,38.5C 22.209,39.404 23.209,39.7373 24.5,39.5C 24.5,40.5 24.5,41.5 24.5,42.5C 25.5,42.5 26.5,42.5 27.5,42.5C 27.5,43.5 27.5,44.5 27.5,45.5C 26.5,45.5 25.5,45.5 24.5,45.5C 24.5,46.5 24.5,47.5 24.5,48.5C 23.5,48.5 22.5,48.5 21.5,48.5C 21.5,51.5 21.5,54.5 21.5,57.5C 22.209,58.404 23.209,58.7373 24.5,58.5C 24.5,59.5 24.5,60.5 24.5,61.5C 25.5,61.5 26.5,61.5 27.5,61.5C 27.5,62.5 27.5,63.5 27.5,64.5C 31.0048,64.6941 31.3382,65.6941 28.5,67.5C 27.6805,70.3054 27.1805,73.3054 27,76.5C 26.5065,74.8659 26.3398,73.1992 26.5,71.5C 17.1889,69.0113 8.18888,65.678 -0.5,61.5C -0.5,46.8333 -0.5,32.1667 -0.5,17.5 Z"/></g>
<g><path style="opacity:1" fill="#af0399" d="M 28.5,45.5 C 31.5,45.5 34.5,45.5 37.5,45.5C 37.5,46.5 37.5,47.5 37.5,48.5C 38.5,48.5 39.5,48.5 40.5,48.5C 40.5,51.5 40.5,54.5 40.5,57.5C 38.5,57.5 36.5,57.5 34.5,57.5C 34.5,55.5 34.5,53.5 34.5,51.5C 33.5,51.5 32.5,51.5 31.5,51.5C 31.5,50.5 31.5,49.5 31.5,48.5C 30.5,48.5 29.5,48.5 28.5,48.5C 28.5,47.5 28.5,46.5 28.5,45.5 Z"/></g>
<g><path style="opacity:1" fill="#880272" d="M 62.5,45.5 C 62.5,46.5 62.5,47.5 62.5,48.5C 63.5,48.5 64.5,48.5 65.5,48.5C 65.5,51.5 65.5,54.5 65.5,57.5C 66.8333,57.5 68.1667,57.5 69.5,57.5C 68.3202,59.913 66.3202,60.913 63.5,60.5C 63.5,59.5 63.5,58.5 63.5,57.5C 62.1667,57.5 60.8333,57.5 59.5,57.5C 59.5,56.5 59.5,55.5 59.5,54.5C 58.5,54.5 57.5,54.5 56.5,54.5C 56.5,52.5 56.5,50.5 56.5,48.5C 57.5,48.5 58.5,48.5 59.5,48.5C 59.5,47.5 59.5,46.5 59.5,45.5C 60.5,45.5 61.5,45.5 62.5,45.5 Z"/></g>
<g><path style="opacity:1" fill="#b2039b" d="M 62.5,45.5 C 64.5,45.5 66.5,45.5 68.5,45.5C 68.5,46.5 68.5,47.5 68.5,48.5C 69.5,48.5 70.5,48.5 71.5,48.5C 72.0545,52.0122 71.3878,55.0122 69.5,57.5C 68.1667,57.5 66.8333,57.5 65.5,57.5C 65.5,54.5 65.5,51.5 65.5,48.5C 64.5,48.5 63.5,48.5 62.5,48.5C 62.5,47.5 62.5,46.5 62.5,45.5 Z"/></g>
<g><path style="opacity:1" fill="#070007" d="M 24.5,48.5 C 24.5,51.5 24.5,54.5 24.5,57.5C 23.5,57.5 22.5,57.5 21.5,57.5C 21.5,54.5 21.5,51.5 21.5,48.5C 22.5,48.5 23.5,48.5 24.5,48.5 Z"/></g>
<g><path style="opacity:1" fill="#0c000a" d="M 72.5,48.5 C 73.5,48.5 74.5,48.5 75.5,48.5C 75.5,51.5 75.5,54.5 75.5,57.5C 74.5,57.5 73.5,57.5 72.5,57.5C 72.5,54.5 72.5,51.5 72.5,48.5 Z"/></g>
<g><path style="opacity:1" fill="#880272" d="M 28.5,48.5 C 29.5,48.5 30.5,48.5 31.5,48.5C 31.5,49.5 31.5,50.5 31.5,51.5C 32.5,51.5 33.5,51.5 34.5,51.5C 34.5,53.5 34.5,55.5 34.5,57.5C 36.5,57.5 38.5,57.5 40.5,57.5C 39.0998,58.1001 38.0998,59.1001 37.5,60.5C 34.5,60.5 31.5,60.5 28.5,60.5C 28.5,59.5 28.5,58.5 28.5,57.5C 27.5,57.5 26.5,57.5 25.5,57.5C 25.5,54.5 25.5,51.5 25.5,48.5C 26.5,48.5 27.5,48.5 28.5,48.5 Z"/></g>
<g><path style="opacity:1" fill="#0d0009" d="M 56.5,54.5 C 57.5,54.5 58.5,54.5 59.5,54.5C 59.5,55.5 59.5,56.5 59.5,57.5C 58.5,57.5 57.5,57.5 56.5,57.5C 56.5,56.5 56.5,55.5 56.5,54.5 Z"/></g>
<g><path style="opacity:0.998" fill="#7c0377" d="M 95.5,33.5 C 95.5,46.8333 95.5,60.1667 95.5,73.5C 89.1315,74.0049 82.7981,74.8383 76.5,76C 67.6889,76.3974 59.0222,76.5641 50.5,76.5C 50.5,75.5 50.5,74.5 50.5,73.5C 52.5,73.5 54.5,73.5 56.5,73.5C 56.5,72.5 56.5,71.5 56.5,70.5C 57.5,70.5 58.5,70.5 59.5,70.5C 59.5,69.5 59.5,68.5 59.5,67.5C 60.5,67.5 61.5,67.5 62.5,67.5C 62.5,66.5 62.5,65.5 62.5,64.5C 64.8333,64.5 67.1667,64.5 69.5,64.5C 69.5,63.5 69.5,62.5 69.5,61.5C 70.5,61.5 71.5,61.5 72.5,61.5C 72.5,60.5 72.5,59.5 72.5,58.5C 73.791,58.7373 74.791,58.404 75.5,57.5C 75.5,54.5 75.5,51.5 75.5,48.5C 74.5,48.5 73.5,48.5 72.5,48.5C 72.5,47.5 72.5,46.5 72.5,45.5C 71.209,45.7373 70.209,45.404 69.5,44.5C 70.4682,42.3926 70.8016,40.0593 70.5,37.5C 78.9968,36.906 87.3301,35.5726 95.5,33.5 Z"/></g>
<g><path style="opacity:1" fill="#390531" d="M 28.5,42.5 C 28.5,43.5 28.5,44.5 28.5,45.5C 28.5,46.5 28.5,47.5 28.5,48.5C 27.5,48.5 26.5,48.5 25.5,48.5C 25.5,51.5 25.5,54.5 25.5,57.5C 26.5,57.5 27.5,57.5 28.5,57.5C 28.5,58.5 28.5,59.5 28.5,60.5C 31.5,60.5 34.5,60.5 37.5,60.5C 38.791,60.2627 39.791,60.596 40.5,61.5C 39.5,61.5 38.5,61.5 37.5,61.5C 34.4281,61.1826 31.4281,61.5159 28.5,62.5C 29.325,63.3857 30.325,63.719 31.5,63.5C 31.5,64.5 31.5,65.5 31.5,66.5C 32.5,66.5 33.5,66.5 34.5,66.5C 33.791,67.404 32.791,67.7373 31.5,67.5C 31.5,70.5 31.5,73.5 31.5,76.5C 31.1667,76.5 30.8333,76.5 30.5,76.5C 31.0545,72.9878 30.3878,69.9878 28.5,67.5C 31.3382,65.6941 31.0048,64.6941 27.5,64.5C 27.5,63.5 27.5,62.5 27.5,61.5C 26.5,61.5 25.5,61.5 24.5,61.5C 24.5,60.5 24.5,59.5 24.5,58.5C 23.209,58.7373 22.209,58.404 21.5,57.5C 22.5,57.5 23.5,57.5 24.5,57.5C 24.5,54.5 24.5,51.5 24.5,48.5C 24.5,47.5 24.5,46.5 24.5,45.5C 25.5,45.5 26.5,45.5 27.5,45.5C 27.5,44.5 27.5,43.5 27.5,42.5C 26.5,42.5 25.5,42.5 24.5,42.5C 24.5,41.5 24.5,40.5 24.5,39.5C 23.209,39.7373 22.209,39.404 21.5,38.5C 22.5,38.5 23.5,38.5 24.5,38.5C 24.5,35.8333 24.5,33.1667 24.5,30.5C 23.5,30.5 22.5,30.5 21.5,30.5C 21.5,30.1667 21.5,29.8333 21.5,29.5C 22.5,29.5 23.5,29.5 24.5,29.5C 24.5,28.5 24.5,27.5 24.5,26.5C 25.5,26.5 26.5,26.5 27.5,26.5C 26.201,30.3705 25.5343,34.3705 25.5,38.5C 26.5,38.5 27.5,38.5 28.5,38.5C 28.5,39.8333 28.5,41.1667 28.5,42.5 Z"/></g>
<g><path style="opacity:1" fill="#070006" d="M 59.5,58.5 C 60.5,58.5 61.5,58.5 62.5,58.5C 62.5,59.5 62.5,60.5 62.5,61.5C 64.604,61.2011 66.604,61.5344 68.5,62.5C 66.3691,63.1687 64.3691,63.8354 62.5,64.5C 62.5,65.5 62.5,66.5 62.5,67.5C 61.5,67.5 60.5,67.5 59.5,67.5C 59.5,64.5 59.5,61.5 59.5,58.5 Z"/></g>
<g><path style="opacity:1" fill="#3c0636" d="M 71.5,26.5 C 71.8333,26.5 72.1667,26.5 72.5,26.5C 72.5,27.8333 72.5,29.1667 72.5,30.5C 71.5,30.5 70.5,30.5 69.5,30.5C 69.5,35.1667 69.5,39.8333 69.5,44.5C 70.209,45.404 71.209,45.7373 72.5,45.5C 72.5,46.5 72.5,47.5 72.5,48.5C 72.5,51.5 72.5,54.5 72.5,57.5C 73.5,57.5 74.5,57.5 75.5,57.5C 74.791,58.404 73.791,58.7373 72.5,58.5C 72.5,59.5 72.5,60.5 72.5,61.5C 71.5,61.5 70.5,61.5 69.5,61.5C 69.5,62.5 69.5,63.5 69.5,64.5C 67.1667,64.5 64.8333,64.5 62.5,64.5C 64.3691,63.8354 66.3691,63.1687 68.5,62.5C 66.604,61.5344 64.604,61.2011 62.5,61.5C 62.5,60.5 62.5,59.5 62.5,58.5C 61.5,58.5 60.5,58.5 59.5,58.5C 59.5,58.1667 59.5,57.8333 59.5,57.5C 60.8333,57.5 62.1667,57.5 63.5,57.5C 63.5,58.5 63.5,59.5 63.5,60.5C 66.3202,60.913 68.3202,59.913 69.5,57.5C 71.3878,55.0122 72.0545,52.0122 71.5,48.5C 70.5,48.5 69.5,48.5 68.5,48.5C 68.5,47.5 68.5,46.5 68.5,45.5C 68.5,40.5 68.5,35.5 68.5,30.5C 68.5,30.1667 68.5,29.8333 68.5,29.5C 69.5,28.5 70.5,27.5 71.5,26.5 Z"/></g>
<g><path style="opacity:0.999" fill="#720378" d="M -0.5,61.5 C 8.18888,65.678 17.1889,69.0113 26.5,71.5C 26.3398,73.1992 26.5065,74.8659 27,76.5C 27.1805,73.3054 27.6805,70.3054 28.5,67.5C 27.9455,71.0122 28.6122,74.0122 30.5,76.5C 30.8333,76.5 31.1667,76.5 31.5,76.5C 31.5,77.5 31.5,78.5 31.5,79.5C 32.5,79.5 33.5,79.5 34.5,79.5C 34.5,80.5 34.5,81.5 34.5,82.5C 37.5,82.5 40.5,82.5 43.5,82.5C 43.5,81.5 43.5,80.5 43.5,79.5C 44.8333,79.5 46.1667,79.5 47.5,79.5C 47.5,78.5 47.5,77.5 47.5,76.5C 48.5,76.5 49.5,76.5 50.5,76.5C 59.0222,76.5641 67.6889,76.3974 76.5,76C 82.7981,74.8383 89.1315,74.0049 95.5,73.5C 95.5,80.8333 95.5,88.1667 95.5,95.5C 63.5,95.5 31.5,95.5 -0.5,95.5C -0.5,84.1667 -0.5,72.8333 -0.5,61.5 Z"/></g>
<g><path style="opacity:1" fill="#0b0108" d="M 37.5,61.5 C 37.5,62.5 37.5,63.5 37.5,64.5C 35.8212,64.2852 34.8212,64.9519 34.5,66.5C 33.5,66.5 32.5,66.5 31.5,66.5C 31.5,65.5 31.5,64.5 31.5,63.5C 30.325,63.719 29.325,63.3857 28.5,62.5C 31.4281,61.5159 34.4281,61.1826 37.5,61.5 Z"/></g>
<g><path style="opacity:1" fill="#80026c" d="M 56.5,54.5 C 56.5,55.5 56.5,56.5 56.5,57.5C 57.5,57.5 58.5,57.5 59.5,57.5C 59.5,57.8333 59.5,58.1667 59.5,58.5C 59.5,61.5 59.5,64.5 59.5,67.5C 58.5,67.5 57.5,67.5 56.5,67.5C 56.5,68.5 56.5,69.5 56.5,70.5C 53.5,70.5 50.5,70.5 47.5,70.5C 47.5,69.5 47.5,68.5 47.5,67.5C 46.1667,67.5 44.8333,67.5 43.5,67.5C 42.209,67.7373 41.209,67.404 40.5,66.5C 41.5,66.5 42.5,66.5 43.5,66.5C 43.5,63.5 43.5,60.5 43.5,57.5C 44.5,57.5 45.5,57.5 46.5,57.5C 46.5,56.5 46.5,55.5 46.5,54.5C 45.5,54.5 44.5,54.5 43.5,54.5C 43.5,53.5 43.5,52.5 43.5,51.5C 44.8333,51.5 46.1667,51.5 47.5,51.5C 47.5,52.5 47.5,53.5 47.5,54.5C 50.5,54.5 53.5,54.5 56.5,54.5 Z"/></g>
<g><path style="opacity:1" fill="#b1049a" d="M 56.5,57.5 C 58.2419,60.1445 58.9086,63.1445 58.5,66.5C 56.8333,66.5 55.1667,66.5 53.5,66.5C 53.5,64.5 53.5,62.5 53.5,60.5C 51.5,60.5 49.5,60.5 47.5,60.5C 47.5,58.8333 47.5,57.1667 47.5,55.5C 50.8555,55.0914 53.8555,55.7581 56.5,57.5 Z"/></g>
<g><path style="opacity:1" fill="#010001" d="M 28.5,67.5 C 30.3878,69.9878 31.0545,72.9878 30.5,76.5C 28.6122,74.0122 27.9455,71.0122 28.5,67.5 Z"/></g>
<g><path style="opacity:1" fill="#880271" d="M 37.5,64.5 C 37.5,66.5 37.5,68.5 37.5,70.5C 38.5,70.5 39.5,70.5 40.5,70.5C 40.5,72.5 40.5,74.5 40.5,76.5C 41.5,76.5 42.5,76.5 43.5,76.5C 43.5,77.5 43.5,78.5 43.5,79.5C 40.5,79.5 37.5,79.5 34.5,79.5C 33.5,79.5 32.5,79.5 31.5,79.5C 31.5,78.5 31.5,77.5 31.5,76.5C 31.5,73.5 31.5,70.5 31.5,67.5C 32.791,67.7373 33.791,67.404 34.5,66.5C 34.8212,64.9519 35.8212,64.2852 37.5,64.5 Z"/></g>
<g><path style="opacity:1" fill="#0e000c" d="M 59.5,67.5 C 59.5,68.5 59.5,69.5 59.5,70.5C 58.5,70.5 57.5,70.5 56.5,70.5C 56.5,69.5 56.5,68.5 56.5,67.5C 57.5,67.5 58.5,67.5 59.5,67.5 Z"/></g>
<g><path style="opacity:1" fill="#b1039a" d="M 37.5,61.5 C 38.5,61.5 39.5,61.5 40.5,61.5C 40.5,63.1667 40.5,64.8333 40.5,66.5C 41.209,67.404 42.209,67.7373 43.5,67.5C 43.5,68.5 43.5,69.5 43.5,70.5C 44.5,70.5 45.5,70.5 46.5,70.5C 46.5,72.5 46.5,74.5 46.5,76.5C 45.5,76.5 44.5,76.5 43.5,76.5C 42.5,76.5 41.5,76.5 40.5,76.5C 40.5,74.5 40.5,72.5 40.5,70.5C 39.5,70.5 38.5,70.5 37.5,70.5C 37.5,68.5 37.5,66.5 37.5,64.5C 37.5,63.5 37.5,62.5 37.5,61.5 Z"/></g>
<g><path style="opacity:1" fill="#2b0927" d="M 43.5,67.5 C 44.8333,67.5 46.1667,67.5 47.5,67.5C 47.5,68.5 47.5,69.5 47.5,70.5C 47.2148,72.288 47.5481,73.9547 48.5,75.5C 49.1818,74.7573 49.8485,74.0906 50.5,73.5C 50.5,74.5 50.5,75.5 50.5,76.5C 49.5,76.5 48.5,76.5 47.5,76.5C 47.5,77.5 47.5,78.5 47.5,79.5C 46.1667,79.5 44.8333,79.5 43.5,79.5C 43.5,78.5 43.5,77.5 43.5,76.5C 44.5,76.5 45.5,76.5 46.5,76.5C 46.5,74.5 46.5,72.5 46.5,70.5C 45.5,70.5 44.5,70.5 43.5,70.5C 43.5,69.5 43.5,68.5 43.5,67.5 Z"/></g>
<g><path style="opacity:1" fill="#050005" d="M 47.5,70.5 C 50.5,70.5 53.5,70.5 56.5,70.5C 56.5,71.5 56.5,72.5 56.5,73.5C 54.5,73.5 52.5,73.5 50.5,73.5C 49.8485,74.0906 49.1818,74.7573 48.5,75.5C 47.5481,73.9547 47.2148,72.288 47.5,70.5 Z"/></g>
<g><path style="opacity:1" fill="#070005" d="M 31.5,76.5 C 32.5,76.5 33.5,76.5 34.5,76.5C 34.5,77.5 34.5,78.5 34.5,79.5C 34.5,78.5 34.5,77.5 34.5,76.5C 33.5,76.5 32.5,76.5 31.5,76.5 Z"/></g>
<g><path style="opacity:1" fill="#040003" d="M 34.5,79.5 C 37.5,79.5 40.5,79.5 43.5,79.5C 43.5,80.5 43.5,81.5 43.5,82.5C 40.5,82.5 37.5,82.5 34.5,82.5C 34.5,81.5 34.5,80.5 34.5,79.5 Z"/></g>
</svg>
