<?xml version="1.0" encoding="UTF-8"?>
<!DOCTYPE svg PUBLIC "-//W3C//DTD SVG 1.1//EN" "http://www.w3.org/Graphics/SVG/1.1/DTD/svg11.dtd">
<svg xmlns="http://www.w3.org/2000/svg" version="1.1" width="96px" height="96px" style="shape-rendering:geometricPrecision; text-rendering:geometricPrecision; image-rendering:optimizeQuality; fill-rule:evenodd; clip-rule:evenodd" xmlns:xlink="http://www.w3.org/1999/xlink">
<g><path style="opacity:0.996" fill="#2b2e68" d="M 37.5,-0.5 C 44.1667,-0.5 50.8333,-0.5 57.5,-0.5C 77.193,5.193 89.8597,17.8597 95.5,37.5C 95.5,44.1667 95.5,50.8333 95.5,57.5C 94.6515,59.8876 93.6515,62.2209 92.5,64.5C 91.3272,62.4959 89.6605,60.9959 87.5,60C 89.3492,58.907 91.0158,57.5737 92.5,56C 92.2716,55.6012 91.9382,55.4346 91.5,55.5C 92.5981,54.603 92.5981,53.7697 91.5,53C 89.1902,52.5034 86.8568,52.3367 84.5,52.5C 84.5,51.1667 84.5,49.8333 84.5,48.5C 88.2243,49.2269 90.8909,47.8936 92.5,44.5C 90.5497,42.2472 88.2163,41.9139 85.5,43.5C 85.1667,43 84.8333,42.5 84.5,42C 87.5373,39.8122 89.5373,36.9789 90.5,33.5C 87.7102,33.9491 85.0436,33.9491 82.5,33.5C 82.2907,32.914 81.9574,32.414 81.5,32C 85.9535,29.9964 86.9535,27.1631 84.5,23.5C 82.2466,24.2531 80.4133,25.5864 79,27.5C 76.9578,25.4903 77.2911,23.8236 80,22.5C 80.8077,20.4213 80.641,18.4213 79.5,16.5C 76.8666,17.3006 75.0333,18.9673 74,21.5C 73.3076,20.9747 72.8076,20.3081 72.5,19.5C 74.4667,16.9876 74.8,14.321 73.5,11.5C 70.4949,11.3104 68.6615,12.9771 68,16.5C 65.4149,15.186 64.9149,13.186 66.5,10.5C 66.6578,8.68144 65.9911,7.3481 64.5,6.5C 62.6805,8.12815 61.3472,10.1282 60.5,12.5C 58.1492,9.59754 55.3158,8.93088 52,10.5C 51.4926,11.9961 51.9926,13.1627 53.5,14C 55.1667,14.3333 56.8333,14.6667 58.5,15C 56.9632,16.1096 56.2965,17.6096 56.5,19.5C 58.5914,19.6816 60.5914,19.3482 62.5,18.5C 62.9106,19.2624 63.0773,20.2624 63,21.5C 65.7114,22.9256 68.2114,22.5923 70.5,20.5C 70.8333,20.6667 71.1667,20.8333 71.5,21C 70.6195,21.7083 69.9528,22.5416 69.5,23.5C 67.0728,24.2789 67.0728,25.4455 69.5,27C 71.9203,27.6869 74.087,27.1869 76,25.5C 77.7785,27.0174 77.2785,27.8508 74.5,28C 75.7932,28.49 77.1266,28.6567 78.5,28.5C 78.5,29.5 78.5,30.5 78.5,31.5C 75.7224,31.9783 73.7224,30.9783 72.5,28.5C 71.8123,30.7177 72.8123,32.2177 75.5,33C 81.6757,32.5124 81.8424,33.3457 76,35.5C 75.3333,36.5 75.3333,37.5 76,38.5C 78.3549,39.8081 80.8549,40.8081 83.5,41.5C 81.5988,42.2309 79.5988,42.2309 77.5,41.5C 77.3617,45.6935 79.3617,48.0268 83.5,48.5C 83.6495,49.552 83.4828,50.552 83,51.5C 80.8796,48.6139 78.7129,48.2806 76.5,50.5C 77.4432,53.4001 79.1099,55.7334 81.5,57.5C 81.3333,57.8333 81.1667,58.1667 81,58.5C 78.4688,55.173 76.6355,55.173 75.5,58.5C 76.2014,61.2842 77.3681,63.6176 79,65.5C 78.6667,65.8333 78.3333,66.1667 78,66.5C 76.9243,63.921 75.091,62.2543 72.5,61.5C 72.9175,60.7784 73.5842,60.2784 74.5,60C 74.2716,59.6012 73.9382,59.4346 73.5,59.5C 71.3719,56.8697 69.0386,54.3697 66.5,52C 64.765,51.3486 63.0983,51.5153 61.5,52.5C 59.393,50.4698 57.393,48.3031 55.5,46C 53.8876,45.2797 52.3876,45.4464 51,46.5C 50.5065,44.8659 50.3398,43.1992 50.5,41.5C 47.3484,40.9586 44.8484,41.9586 43,44.5C 42.3333,39.8333 42.3333,35.1667 43,30.5C 44.3068,29.2283 45.8068,28.2283 47.5,27.5C 41.8625,26.3368 36.1959,26.1701 30.5,27C 30.1667,27.3333 29.8333,27.6667 29.5,28C 30.8584,28.9344 32.1917,29.7677 33.5,30.5C 33.5,36.1667 33.5,41.8333 33.5,47.5C 31.4727,47.3379 29.4727,47.5045 27.5,48C 24.9638,50.705 22.2971,53.205 19.5,55.5C 18.1526,56.0283 16.8193,56.195 15.5,56C 16.627,54.2467 17.627,52.4134 18.5,50.5C 16.0508,49.0903 13.8841,49.4237 12,51.5C 11.5172,50.552 11.3505,49.552 11.5,48.5C 14.8153,48.0283 17.1486,46.195 18.5,43C 16.2183,41.7035 13.8849,41.2035 11.5,41.5C 14.1451,40.8081 16.6451,39.8081 19,38.5C 19.6667,37.5 19.6667,36.5 19,35.5C 17.4905,34.9103 15.9905,34.2436 14.5,33.5C 16.7662,32.6858 19.0995,32.1858 21.5,32C 24.106,30.3499 24.106,28.8499 21.5,27.5C 24.2776,27.9783 26.2776,26.9783 27.5,24.5C 27.0431,23.7025 26.3764,23.3691 25.5,23.5C 25.0472,22.5416 24.3805,21.7083 23.5,21C 25.9141,22.2067 28.5807,22.54 31.5,22C 32.0302,20.2562 32.0302,18.7562 31.5,17.5C 33.5098,19.1713 35.8431,19.838 38.5,19.5C 38.607,17.0968 37.607,15.2635 35.5,14C 36.0944,13.5357 36.7611,13.369 37.5,13.5C 40.2515,14.8927 42.5848,14.226 44.5,11.5C 44.0431,10.7025 43.3764,10.3691 42.5,10.5C 39.4582,8.97995 36.7915,9.64661 34.5,12.5C 33.6528,10.1282 32.3195,8.12815 30.5,6.5C 28.2313,8.79913 27.898,11.4658 29.5,14.5C 28.7579,15.2868 27.9246,15.9535 27,16.5C 26.4592,13.791 24.9592,11.791 22.5,10.5C 19.6647,13.6705 19.9981,16.5038 23.5,19C 22.6667,19.8333 21.8333,20.6667 21,21.5C 19.9667,18.9673 18.1334,17.3006 15.5,16.5C 13.8705,19.8961 14.5371,22.7294 17.5,25C 16.8742,25.7504 16.3742,26.5838 16,27.5C 14.181,24.7433 11.8476,23.7433 9,24.5C 8.5498,28.091 10.0498,30.591 13.5,32C 12.9288,33.2051 12.2621,34.3717 11.5,35.5C 9.49024,33.8287 7.1569,33.162 4.5,33.5C 5.46275,36.9789 7.46275,39.8122 10.5,42C 10.1667,42.5 9.83333,43 9.5,43.5C 6.78366,41.9139 4.45032,42.2472 2.5,44.5C 4.10906,47.8936 6.77572,49.2269 10.5,48.5C 10.5,49.8333 10.5,51.1667 10.5,52.5C 8.16667,52.5 5.83333,52.5 3.5,52.5C 3.2965,54.3904 3.96317,55.8904 5.5,57C 13.708,58.4928 14.0413,59.9928 6.5,61.5C 5.00475,61.4148 4.00475,62.0815 3.5,63.5C 4.34822,65.4086 4.68155,67.4086 4.5,69.5C 2.4401,65.6509 0.773429,61.6509 -0.5,57.5C -0.5,50.8333 -0.5,44.1667 -0.5,37.5C 5.14032,17.8597 17.807,5.193 37.5,-0.5 Z"/></g>
<g><path style="opacity:1" fill="#354768" d="M 42.5,10.5 C 41.7002,12.7409 40.0336,13.7409 37.5,13.5C 38.0483,10.9162 39.715,9.91618 42.5,10.5 Z"/></g>
<g><path style="opacity:1" fill="#4db364" d="M 42.5,10.5 C 43.3764,10.3691 44.0431,10.7025 44.5,11.5C 42.5848,14.226 40.2515,14.8927 37.5,13.5C 40.0336,13.7409 41.7002,12.7409 42.5,10.5 Z"/></g>
<g><path style="opacity:1" fill="#3c7d64" d="M 34.5,31.5 C 35.8166,37.3456 35.8166,43.3456 34.5,49.5C 33.8933,49.3764 33.56,49.0431 33.5,48.5C 34.4889,43.0247 34.8222,37.358 34.5,31.5 Z"/></g>
<g><path style="opacity:1" fill="#4fc362" d="M 57.5,28.5 C 65.3017,28.7874 67.3017,32.2874 63.5,39C 57.6979,40.3505 56.3646,38.6838 59.5,34C 58.1439,32.4329 57.4772,30.5996 57.5,28.5 Z"/></g>
<g><path style="opacity:1" fill="#2a2968" d="M 59.5,29.5 C 65.4205,31.7345 65.9205,34.7345 61,38.5C 60.5,38.1667 60,37.8333 59.5,37.5C 60.7026,34.8401 60.7026,32.1735 59.5,29.5 Z"/></g>
<g><path style="opacity:1" fill="#4db663" d="M 91.5,55.5 C 88.2849,56.5889 85.2849,58.0889 82.5,60C 84.6079,60.3599 86.6079,61.0266 88.5,62C 89.4506,62.7175 89.6172,63.5509 89,64.5C 86.4998,66.5363 83.8331,66.8696 81,65.5C 80.3076,66.0253 79.8076,66.6919 79.5,67.5C 81.9179,68.4146 83.9179,69.9146 85.5,72C 82.5974,74.9837 79.5974,75.1504 76.5,72.5C 75.3279,72.9186 74.3279,73.5853 73.5,74.5C 75.1487,75.6477 76.6487,76.981 78,78.5C 78.6172,79.4491 78.4506,80.2825 77.5,81C 74.2583,81.9855 71.5917,81.1522 69.5,78.5C 68.5,79 67.5,79.5 66.5,80C 68.887,81.5466 70.2204,83.7133 70.5,86.5C 66.6128,87.0546 63.6128,85.7213 61.5,82.5C 60.6919,82.8076 60.0253,83.3076 59.5,84C 61.0163,85.897 61.683,88.0637 61.5,90.5C 57.3065,90.6383 54.9732,88.6383 54.5,84.5C 49.9593,84.6691 49.626,84.0025 53.5,82.5C 52.6041,79.43 53.6041,76.93 56.5,75C 57.3317,74.3123 57.9984,74.479 58.5,75.5C 59.767,77.3707 59.767,79.2041 58.5,81C 59.635,81.7494 60.635,81.5827 61.5,80.5C 59.8693,76.9865 60.536,73.9865 63.5,71.5C 65.047,72.7682 66.047,74.4348 66.5,76.5C 67.1667,77.8333 67.8333,77.8333 68.5,76.5C 65.8496,73.4026 66.0163,70.4026 69,67.5C 70.6851,69.0175 72.1851,70.6841 73.5,72.5C 74.6559,71.4239 74.4892,70.4239 73,69.5C 72.5026,66.854 72.3359,64.1873 72.5,61.5C 75.091,62.2543 76.9243,63.921 78,66.5C 78.3333,66.1667 78.6667,65.8333 79,65.5C 77.3681,63.6176 76.2014,61.2842 75.5,58.5C 76.6355,55.173 78.4688,55.173 81,58.5C 81.1667,58.1667 81.3333,57.8333 81.5,57.5C 79.1099,55.7334 77.4432,53.4001 76.5,50.5C 78.7129,48.2806 80.8796,48.6139 83,51.5C 83.4828,50.552 83.6495,49.552 83.5,48.5C 79.3617,48.0268 77.3617,45.6935 77.5,41.5C 79.5988,42.2309 81.5988,42.2309 83.5,41.5C 80.8549,40.8081 78.3549,39.8081 76,38.5C 75.3333,37.5 75.3333,36.5 76,35.5C 81.8424,33.3457 81.6757,32.5124 75.5,33C 72.8123,32.2177 71.8123,30.7177 72.5,28.5C 73.7224,30.9783 75.7224,31.9783 78.5,31.5C 78.5,30.5 78.5,29.5 78.5,28.5C 77.1266,28.6567 75.7932,28.49 74.5,28C 77.2785,27.8508 77.7785,27.0174 76,25.5C 74.087,27.1869 71.9203,27.6869 69.5,27C 67.0728,25.4455 67.0728,24.2789 69.5,23.5C 69.9528,22.5416 70.6195,21.7083 71.5,21C 71.1667,20.8333 70.8333,20.6667 70.5,20.5C 68.2114,22.5923 65.7114,22.9256 63,21.5C 63.0773,20.2624 62.9106,19.2624 62.5,18.5C 60.5914,19.3482 58.5914,19.6816 56.5,19.5C 56.2965,17.6096 56.9632,16.1096 58.5,15C 56.8333,14.6667 55.1667,14.3333 53.5,14C 51.9926,13.1627 51.4926,11.9961 52,10.5C 55.3158,8.93088 58.1492,9.59754 60.5,12.5C 61.3472,10.1282 62.6805,8.12815 64.5,6.5C 65.9911,7.3481 66.6578,8.68144 66.5,10.5C 64.9149,13.186 65.4149,15.186 68,16.5C 68.6615,12.9771 70.4949,11.3104 73.5,11.5C 74.8,14.321 74.4667,16.9876 72.5,19.5C 72.8076,20.3081 73.3076,20.9747 74,21.5C 75.0333,18.9673 76.8666,17.3006 79.5,16.5C 80.641,18.4213 80.8077,20.4213 80,22.5C 77.2911,23.8236 76.9578,25.4903 79,27.5C 80.4133,25.5864 82.2466,24.2531 84.5,23.5C 86.9535,27.1631 85.9535,29.9964 81.5,32C 81.9574,32.414 82.2907,32.914 82.5,33.5C 85.0436,33.9491 87.7102,33.9491 90.5,33.5C 89.5373,36.9789 87.5373,39.8122 84.5,42C 84.8333,42.5 85.1667,43 85.5,43.5C 88.2163,41.9139 90.5497,42.2472 92.5,44.5C 90.8909,47.8936 88.2243,49.2269 84.5,48.5C 84.5,49.8333 84.5,51.1667 84.5,52.5C 86.8568,52.3367 89.1902,52.5034 91.5,53C 92.5981,53.7697 92.5981,54.603 91.5,55.5 Z"/></g>
<g><path style="opacity:1" fill="#261a69" d="M 83.5,25.5 C 84.555,27.1117 84.055,28.445 82,29.5C 81.5,29.1667 81,28.8333 80.5,28.5C 81.3398,27.265 82.3398,26.265 83.5,25.5 Z"/></g>
<g><path style="opacity:1" fill="#282069" d="M 69.5,23.5 C 71.288,23.2148 72.9547,23.5481 74.5,24.5C 73.6667,24.8333 72.8333,25.1667 72,25.5C 70.6244,25.3158 69.7911,24.6491 69.5,23.5 Z"/></g>
<g><path style="opacity:1" fill="#2b2568" d="M 77.5,18.5 C 78.3764,18.3691 79.0431,18.7025 79.5,19.5C 78.9744,21.2303 77.9744,22.5637 76.5,23.5C 75.7992,21.8084 76.1325,20.1417 77.5,18.5 Z"/></g>
<g><path style="opacity:1" fill="#251669" d="M 65.5,18.5 C 70.1001,18.3451 70.4334,19.0118 66.5,20.5C 64.279,20.5613 63.9456,19.8946 65.5,18.5 Z"/></g>
<g><path style="opacity:1" fill="#291f69" d="M 60.5,14.5 C 62.0481,14.8212 62.7148,15.8212 62.5,17.5C 58.3601,18.0443 57.6935,17.0443 60.5,14.5 Z"/></g>
<g><path style="opacity:1" fill="#292068" d="M 71.5,12.5 C 72.9405,14.4199 72.6071,16.0866 70.5,17.5C 69.7992,15.8084 70.1325,14.1417 71.5,12.5 Z"/></g>
<g><path style="opacity:1" fill="#2a2a68" d="M 63.5,8.5 C 65.9725,9.74866 66.1391,11.4153 64,13.5C 63.5065,11.8659 63.3398,10.1992 63.5,8.5 Z"/></g>
<g><path style="opacity:1" fill="#271b69" d="M 53.5,12.5 C 54.7082,11.218 56.0416,11.218 57.5,12.5C 56.1916,13.6256 54.8583,13.6256 53.5,12.5 Z"/></g>
<g><path style="opacity:1" fill="#2a2568" d="M 76.5,37.5 C 78.5167,36.126 80.5167,36.2926 82.5,38C 80.5111,39.5537 78.5111,39.3871 76.5,37.5 Z"/></g>
<g><path style="opacity:1" fill="#251a69" d="M 87.5,34.5 C 88.5075,36.268 87.8408,37.6013 85.5,38.5C 85.1667,38.1667 84.8333,37.8333 84.5,37.5C 85.3398,36.265 86.3398,35.265 87.5,34.5 Z"/></g>
<g><path style="opacity:1" fill="#261969" d="M 78.5,44.5 C 80.2637,43.2878 81.9303,43.6212 83.5,45.5C 81.6029,46.6518 79.9362,46.3185 78.5,44.5 Z"/></g>
<g><path style="opacity:1" fill="#261b69" d="M 86.5,44.5 C 91.5076,44.3557 91.6742,45.3557 87,47.5C 85.3167,46.8235 85.1501,45.8235 86.5,44.5 Z"/></g>
<g><path style="opacity:1" fill="#4db763" d="M 73.5,59.5 C 70.6057,58.1177 68.1057,56.1177 66,53.5C 65.323,57.4072 64.4896,61.2405 63.5,65C 52.152,65.8325 40.8187,65.6658 29.5,64.5C 34.4234,62.2997 35.7567,58.633 33.5,53.5C 30.8333,55.8333 28.1667,58.1667 25.5,60.5C 24.7022,58.9223 24.2022,57.2556 24,55.5C 23.1627,57.0074 21.9961,57.5074 20.5,57C 23.1667,54.3333 25.8333,51.6667 28.5,49C 30.1341,48.5065 31.8008,48.3398 33.5,48.5C 33.56,49.0431 33.8933,49.3764 34.5,49.5C 35.8166,43.3456 35.8166,37.3456 34.5,31.5C 34.5,30.8333 34.1667,30.5 33.5,30.5C 32.1917,29.7677 30.8584,28.9344 29.5,28C 29.8333,27.6667 30.1667,27.3333 30.5,27C 36.1959,26.1701 41.8625,26.3368 47.5,27.5C 45.8068,28.2283 44.3068,29.2283 43,30.5C 42.3333,35.1667 42.3333,39.8333 43,44.5C 44.8484,41.9586 47.3484,40.9586 50.5,41.5C 50.3398,43.1992 50.5065,44.8659 51,46.5C 52.3876,45.4464 53.8876,45.2797 55.5,46C 57.393,48.3031 59.393,50.4698 61.5,52.5C 63.0983,51.5153 64.765,51.3486 66.5,52C 69.0386,54.3697 71.3719,56.8697 73.5,59.5 Z"/></g>
<g><path style="opacity:1" fill="#2e2d69" d="M 28.5,50.5 C 30.5273,50.3379 32.5273,50.5045 34.5,51C 31.6793,52.8224 29.1793,54.9891 27,57.5C 27.1571,55.1693 27.6571,52.8359 28.5,50.5 Z"/></g>
<g><path style="opacity:1" fill="#271a69" d="M 78.5,50.5 C 80.3841,50.7118 81.7174,51.7118 82.5,53.5C 80.2192,54.2617 78.8859,53.2617 78.5,50.5 Z"/></g>
<g><path style="opacity:1" fill="#2c2968" d="M 85.5,53.5 C 91.7204,53.1157 92.0537,54.1157 86.5,56.5C 84.1966,56.1237 83.8632,55.1237 85.5,53.5 Z"/></g>
<g><path style="opacity:0.996" fill="#2a2d68" d="M 33.5,30.5 C 34.1667,30.5 34.5,30.8333 34.5,31.5C 34.8222,37.358 34.4889,43.0247 33.5,48.5C 31.8008,48.3398 30.1341,48.5065 28.5,49C 25.8333,51.6667 23.1667,54.3333 20.5,57C 21.9961,57.5074 23.1627,57.0074 24,55.5C 24.2022,57.2556 24.7022,58.9223 25.5,60.5C 28.1667,58.1667 30.8333,55.8333 33.5,53.5C 35.7567,58.633 34.4234,62.2997 29.5,64.5C 40.8187,65.6658 52.152,65.8325 63.5,65C 64.4896,61.2405 65.323,57.4072 66,53.5C 68.1057,56.1177 70.6057,58.1177 73.5,59.5C 73.9382,59.4346 74.2716,59.6012 74.5,60C 73.5842,60.2784 72.9175,60.7784 72.5,61.5C 72.3359,64.1873 72.5026,66.854 73,69.5C 74.4892,70.4239 74.6559,71.4239 73.5,72.5C 72.1851,70.6841 70.6851,69.0175 69,67.5C 66.0163,70.4026 65.8496,73.4026 68.5,76.5C 67.8333,77.8333 67.1667,77.8333 66.5,76.5C 66.047,74.4348 65.047,72.7682 63.5,71.5C 60.536,73.9865 59.8693,76.9865 61.5,80.5C 60.635,81.5827 59.635,81.7494 58.5,81C 59.767,79.2041 59.767,77.3707 58.5,75.5C 57.9984,74.479 57.3317,74.3123 56.5,75C 53.6041,76.93 52.6041,79.43 53.5,82.5C 49.626,84.0025 49.9593,84.6691 54.5,84.5C 54.9732,88.6383 57.3065,90.6383 61.5,90.5C 61.683,88.0637 61.0163,85.897 59.5,84C 60.0253,83.3076 60.6919,82.8076 61.5,82.5C 63.6128,85.7213 66.6128,87.0546 70.5,86.5C 70.2204,83.7133 68.887,81.5466 66.5,80C 67.5,79.5 68.5,79 69.5,78.5C 71.5917,81.1522 74.2583,81.9855 77.5,81C 78.4506,80.2825 78.6172,79.4491 78,78.5C 76.6487,76.981 75.1487,75.6477 73.5,74.5C 74.3279,73.5853 75.3279,72.9186 76.5,72.5C 79.5974,75.1504 82.5974,74.9837 85.5,72C 83.9179,69.9146 81.9179,68.4146 79.5,67.5C 79.8076,66.6919 80.3076,66.0253 81,65.5C 83.8331,66.8696 86.4998,66.5363 89,64.5C 89.6172,63.5509 89.4506,62.7175 88.5,62C 86.6079,61.0266 84.6079,60.3599 82.5,60C 85.2849,58.0889 88.2849,56.5889 91.5,55.5C 91.9382,55.4346 92.2716,55.6012 92.5,56C 91.0158,57.5737 89.3492,58.907 87.5,60C 89.6605,60.9959 91.3272,62.4959 92.5,64.5C 86.1319,80.8709 74.4652,91.2042 57.5,95.5C 50.8333,95.5 44.1667,95.5 37.5,95.5C 22.9691,91.3914 11.9691,82.7247 4.5,69.5C 4.68155,67.4086 4.34822,65.4086 3.5,63.5C 4.00475,62.0815 5.00475,61.4148 6.5,61.5C 5.51743,64.8537 7.01743,66.5204 11,66.5C 13.0553,65.1497 14.5553,65.483 15.5,67.5C 13.0821,68.4146 11.0821,69.9146 9.5,72C 12.4026,74.9837 15.4026,75.1504 18.5,72.5C 19.6721,72.9186 20.6721,73.5853 21.5,74.5C 19.8513,75.6477 18.3513,76.981 17,78.5C 16.3828,79.4491 16.5494,80.2825 17.5,81C 19.1667,81.6667 20.8333,81.6667 22.5,81C 24.2117,78.3077 26.2117,77.9744 28.5,80C 26.0771,81.5707 24.7438,83.7374 24.5,86.5C 28.3872,87.0546 31.3872,85.7213 33.5,82.5C 34.3081,82.8076 34.9747,83.3076 35.5,84C 33.9837,85.897 33.317,88.0637 33.5,90.5C 34.8734,90.6567 36.2068,90.49 37.5,90C 39.5708,87.5884 41.9041,85.5884 44.5,84C 41.8532,83.6851 41.1865,82.5184 42.5,80.5C 41.5569,77.8908 39.8903,75.8908 37.5,74.5C 35.467,76.4515 35.1337,78.6182 36.5,81C 35.365,81.7494 34.365,81.5827 33.5,80.5C 35.6707,75.9042 34.3373,73.2375 29.5,72.5C 29.6168,74.4835 28.9501,76.1502 27.5,77.5C 27.1667,77.1667 26.8333,76.8333 26.5,76.5C 29.1504,73.4026 28.9837,70.4026 26,67.5C 20.9781,73.9821 19.8114,73.3154 22.5,65.5C 22.1667,64.1667 21.8333,62.8333 21.5,61.5C 19.4733,62.6933 17.9733,64.36 17,66.5C 16.5,66 16,65.5 15.5,65C 18.962,62.7607 20.2954,59.594 19.5,55.5C 22.2971,53.205 24.9638,50.705 27.5,48C 29.4727,47.5045 31.4727,47.3379 33.5,47.5C 33.5,41.8333 33.5,36.1667 33.5,30.5 Z"/></g>
<g><path style="opacity:1" fill="#2a2869" d="M 45.5,43.5 C 46.2389,43.369 46.9056,43.5357 47.5,44C 44.7541,46.6458 43.5874,49.8124 44,53.5C 45.3267,50.8685 46.6601,48.2019 48,45.5C 48.1792,47.4242 48.3459,49.0909 48.5,50.5C 49.916,48.8608 51.5826,48.0275 53.5,48C 50.7526,51.5943 49.4193,55.4276 49.5,59.5C 51.2418,55.6823 53.2418,52.0157 55.5,48.5C 57.0267,50.1933 58.3601,52.0266 59.5,54C 57.8333,55.6667 56.1667,57.3333 54.5,59C 55.1667,59.6667 55.8333,59.6667 56.5,59C 64.2186,51.1249 65.2186,51.7916 59.5,61C 53.8431,61.4994 48.1764,61.6661 42.5,61.5C 42.3341,56.4889 42.5007,51.4889 43,46.5C 44.045,45.6266 44.8783,44.6266 45.5,43.5 Z"/></g>
<g><path style="opacity:1" fill="#292269" d="M 76.5,57.5 C 79.7195,58.0211 80.7195,59.6878 79.5,62.5C 77.7377,61.3115 76.7377,59.6449 76.5,57.5 Z"/></g>
<g><path style="opacity:1" fill="#272168" d="M 34.5,29.5 C 36.9664,28.3659 39.633,28.1993 42.5,29C 42,29.5 41.5,30 41,30.5C 40.3333,40.8333 40.3333,51.1667 41,61.5C 47.4184,62.6433 53.9184,62.81 60.5,62C 62.1311,60.1644 62.7978,60.6644 62.5,63.5C 53.1607,63.6665 43.8274,63.4998 34.5,63C 35,62.5 35.5,62 36,61.5C 36.6667,51.1667 36.6667,40.8333 36,30.5C 35.6174,29.944 35.1174,29.6107 34.5,29.5 Z"/></g>
<g><path style="opacity:1" fill="#281f69" d="M 81.5,62.5 C 83.604,62.2011 85.604,62.5344 87.5,63.5C 86.5,63.8333 85.5,64.1667 84.5,64.5C 82.9704,64.3601 81.9704,63.6935 81.5,62.5 Z"/></g>
<g><path style="opacity:1" fill="#292568" d="M 73.5,63.5 C 76.3219,64.7892 76.9886,66.7892 75.5,69.5C 73.9137,67.8273 73.2471,65.8273 73.5,63.5 Z"/></g>
<g><path style="opacity:1" fill="#282169" d="M 68.5,69.5 C 71.1626,71.1107 71.6626,73.1107 70,75.5C 68.6814,73.7505 68.1814,71.7505 68.5,69.5 Z"/></g>
<g><path style="opacity:1" fill="#282568" d="M 77.5,69.5 C 79.8421,69.5041 81.8421,70.3375 83.5,72C 81.8333,72.6667 80.1667,72.6667 78.5,72C 77.7476,71.3292 77.4142,70.4959 77.5,69.5 Z"/></g>
<g><path style="opacity:1" fill="#4db863" d="M 42.5,10.5 C 39.715,9.91618 38.0483,10.9162 37.5,13.5C 36.7611,13.369 36.0944,13.5357 35.5,14C 37.607,15.2635 38.607,17.0968 38.5,19.5C 35.8431,19.838 33.5098,19.1713 31.5,17.5C 32.0302,18.7562 32.0302,20.2562 31.5,22C 28.5807,22.54 25.9141,22.2067 23.5,21C 24.3805,21.7083 25.0472,22.5416 25.5,23.5C 26.3764,23.3691 27.0431,23.7025 27.5,24.5C 26.2776,26.9783 24.2776,27.9783 21.5,27.5C 24.106,28.8499 24.106,30.3499 21.5,32C 19.0995,32.1858 16.7662,32.6858 14.5,33.5C 15.9905,34.2436 17.4905,34.9103 19,35.5C 19.6667,36.5 19.6667,37.5 19,38.5C 16.6451,39.8081 14.1451,40.8081 11.5,41.5C 13.8849,41.2035 16.2183,41.7035 18.5,43C 17.1486,46.195 14.8153,48.0283 11.5,48.5C 11.3505,49.552 11.5172,50.552 12,51.5C 13.8841,49.4237 16.0508,49.0903 18.5,50.5C 17.627,52.4134 16.627,54.2467 15.5,56C 16.8193,56.195 18.1526,56.0283 19.5,55.5C 20.2954,59.594 18.962,62.7607 15.5,65C 16,65.5 16.5,66 17,66.5C 17.9733,64.36 19.4733,62.6933 21.5,61.5C 21.8333,62.8333 22.1667,64.1667 22.5,65.5C 19.8114,73.3154 20.9781,73.9821 26,67.5C 28.9837,70.4026 29.1504,73.4026 26.5,76.5C 26.8333,76.8333 27.1667,77.1667 27.5,77.5C 28.9501,76.1502 29.6168,74.4835 29.5,72.5C 34.3373,73.2375 35.6707,75.9042 33.5,80.5C 34.365,81.5827 35.365,81.7494 36.5,81C 35.1337,78.6182 35.467,76.4515 37.5,74.5C 39.8903,75.8908 41.5569,77.8908 42.5,80.5C 41.1865,82.5184 41.8532,83.6851 44.5,84C 41.9041,85.5884 39.5708,87.5884 37.5,90C 36.2068,90.49 34.8734,90.6567 33.5,90.5C 33.317,88.0637 33.9837,85.897 35.5,84C 34.9747,83.3076 34.3081,82.8076 33.5,82.5C 31.3872,85.7213 28.3872,87.0546 24.5,86.5C 24.7438,83.7374 26.0771,81.5707 28.5,80C 26.2117,77.9744 24.2117,78.3077 22.5,81C 20.8333,81.6667 19.1667,81.6667 17.5,81C 16.5494,80.2825 16.3828,79.4491 17,78.5C 18.3513,76.981 19.8513,75.6477 21.5,74.5C 20.6721,73.5853 19.6721,72.9186 18.5,72.5C 15.4026,75.1504 12.4026,74.9837 9.5,72C 11.0821,69.9146 13.0821,68.4146 15.5,67.5C 14.5553,65.483 13.0553,65.1497 11,66.5C 7.01743,66.5204 5.51743,64.8537 6.5,61.5C 14.0413,59.9928 13.708,58.4928 5.5,57C 3.96317,55.8904 3.2965,54.3904 3.5,52.5C 5.83333,52.5 8.16667,52.5 10.5,52.5C 10.5,51.1667 10.5,49.8333 10.5,48.5C 6.77572,49.2269 4.10906,47.8936 2.5,44.5C 4.45032,42.2472 6.78366,41.9139 9.5,43.5C 9.83333,43 10.1667,42.5 10.5,42C 7.46275,39.8122 5.46275,36.9789 4.5,33.5C 7.1569,33.162 9.49024,33.8287 11.5,35.5C 12.2621,34.3717 12.9288,33.2051 13.5,32C 10.0498,30.591 8.5498,28.091 9,24.5C 11.8476,23.7433 14.181,24.7433 16,27.5C 16.3742,26.5838 16.8742,25.7504 17.5,25C 14.5371,22.7294 13.8705,19.8961 15.5,16.5C 18.1334,17.3006 19.9667,18.9673 21,21.5C 21.8333,20.6667 22.6667,19.8333 23.5,19C 19.9981,16.5038 19.6647,13.6705 22.5,10.5C 24.9592,11.791 26.4592,13.791 27,16.5C 27.9246,15.9535 28.7579,15.2868 29.5,14.5C 27.898,11.4658 28.2313,8.79913 30.5,6.5C 32.3195,8.12815 33.6528,10.1282 34.5,12.5C 36.7915,9.64661 39.4582,8.97995 42.5,10.5 Z"/></g>
<g><path style="opacity:1" fill="#292169" d="M 25.5,69.5 C 26.874,71.5167 26.7074,73.5167 25,75.5C 23.4463,73.5111 23.6129,71.5111 25.5,69.5 Z"/></g>
<g><path style="opacity:1" fill="#282468" d="M 14.5,69.5 C 16.9424,69.3537 17.6091,70.187 16.5,72C 11.1802,73.0564 10.5135,72.2231 14.5,69.5 Z"/></g>
<g><path style="opacity:1" fill="#2b2668" d="M 20.5,63.5 C 21.1386,64.0968 21.472,64.9302 21.5,66C 21.2386,69.4775 20.2386,69.9775 18.5,67.5C 18.7517,65.9271 19.4183,64.5938 20.5,63.5 Z"/></g>
<g><path style="opacity:1" fill="#292269" d="M 7.5,62.5 C 9.60395,62.2011 11.604,62.5344 13.5,63.5C 12.5,63.8333 11.5,64.1667 10.5,64.5C 8.97041,64.3601 7.97041,63.6935 7.5,62.5 Z"/></g>
<g><path style="opacity:1" fill="#292169" d="M 16.5,57.5 C 17.3764,57.3691 18.0431,57.7025 18.5,58.5C 17.9744,60.2303 16.9744,61.5637 15.5,62.5C 14.3482,60.6029 14.6815,58.9362 16.5,57.5 Z"/></g>
<g><path style="opacity:1" fill="#282369" d="M 5.5,53.5 C 7.66485,53.1159 9.33152,53.7826 10.5,55.5C 8.06947,56.7856 6.4028,56.119 5.5,53.5 Z"/></g>
<g><path style="opacity:1" fill="#281c69" d="M 14.5,50.5 C 16.8379,51.6484 16.6712,52.9817 14,54.5C 13.5,54.1667 13,53.8333 12.5,53.5C 13.1925,52.4822 13.8592,51.4822 14.5,50.5 Z"/></g>
<g><path style="opacity:1" fill="#282269" d="M 4.5,45.5 C 6.41993,44.0595 8.0866,44.3929 9.5,46.5C 7.60288,47.6518 5.93621,47.3185 4.5,45.5 Z"/></g>
<g><path style="opacity:1" fill="#261969" d="M 13.5,43.5 C 17.0361,43.9381 16.8694,44.9381 13,46.5C 12.5,46.1667 12,45.8333 11.5,45.5C 12.2427,44.8182 12.9094,44.1515 13.5,43.5 Z"/></g>
<g><path style="opacity:1" fill="#2b2768" d="M 13.5,36.5 C 19.6412,36.1013 19.9746,37.1013 14.5,39.5C 12.4807,38.8671 12.1474,37.8671 13.5,36.5 Z"/></g>
<g><path style="opacity:1" fill="#231469" d="M 6.5,34.5 C 8.19978,35.016 9.53311,36.016 10.5,37.5C 8.21923,38.2617 6.8859,37.2617 6.5,34.5 Z"/></g>
<g><path style="opacity:1" fill="#2c2968" d="M 16.5,29.5 C 18.1992,29.3398 19.8659,29.5065 21.5,30C 19.4153,32.1391 17.7487,31.9725 16.5,29.5 Z"/></g>
<g><path style="opacity:1" fill="#261b69" d="M 10.5,25.5 C 12.1998,26.016 13.5331,27.016 14.5,28.5C 11.9364,29.5644 10.6031,28.5644 10.5,25.5 Z"/></g>
<g><path style="opacity:1" fill="#261c68" d="M 21.5,27.5 C 19.6453,27.728 18.8119,27.0613 19,25.5C 19.9947,26.0659 20.828,26.7326 21.5,27.5 Z"/></g>
<g><path style="opacity:1" fill="#282069" d="M 25.5,23.5 C 25.2089,24.6491 24.3756,25.3158 23,25.5C 22.1667,25.1667 21.3333,24.8333 20.5,24.5C 22.0453,23.5481 23.712,23.2148 25.5,23.5 Z"/></g>
<g><path style="opacity:1" fill="#2c2968" d="M 15.5,18.5 C 17.5638,18.7619 18.8971,19.9286 19.5,22C 19,22.5 18.5,23 18,23.5C 16.117,22.3474 15.2837,20.6807 15.5,18.5 Z"/></g>
<g><path style="opacity:1" fill="#271b69" d="M 25.5,19.5 C 27.1849,18.156 28.8516,18.3227 30.5,20C 28.735,20.6397 27.0683,20.4731 25.5,19.5 Z"/></g>
<g><path style="opacity:1" fill="#241769" d="M 32.5,14.5 C 34.1958,14.6854 35.5291,15.5187 36.5,17C 34.0551,17.9098 32.7218,17.0764 32.5,14.5 Z"/></g>
<g><path style="opacity:1" fill="#282068" d="M 22.5,12.5 C 24.6408,13.7551 25.3074,15.4218 24.5,17.5C 22.7826,16.3315 22.1159,14.6648 22.5,12.5 Z"/></g>
<g><path style="opacity:1" fill="#2b2b68" d="M 29.5,8.5 C 30.6491,8.79106 31.3158,9.62439 31.5,11C 31.3333,11.8333 31.1667,12.6667 31,13.5C 29.7308,12.0953 29.2308,10.4286 29.5,8.5 Z"/></g>
<g><path style="opacity:1" fill="#292369" d="M 30.5,74.5 C 33.6465,75.7548 33.9799,77.4215 31.5,79.5C 30.5481,77.9547 30.2148,76.288 30.5,74.5 Z"/></g>
<g><path style="opacity:1" fill="#292369" d="M 62.5,74.5 C 63.6491,74.7911 64.3158,75.6244 64.5,77C 64.0127,80.0927 63.0127,80.2594 61.5,77.5C 62.1272,76.5832 62.4606,75.5832 62.5,74.5 Z"/></g>
<g><path style="opacity:1" fill="#231469" d="M 20.5,76.5 C 22.3547,76.272 23.1881,76.9387 23,78.5C 18.8977,80.1708 18.0643,79.5041 20.5,76.5 Z"/></g>
<g><path style="opacity:1" fill="#272068" d="M 37.5,76.5 C 40.3219,77.7892 40.9886,79.7892 39.5,82.5C 37.7175,80.9775 37.0508,78.9775 37.5,76.5 Z"/></g>
<g><path style="opacity:1" fill="#231469" d="M 71.5,76.5 C 73.6807,76.2837 75.3474,77.117 76.5,79C 73.7383,80.0769 72.0717,79.2436 71.5,76.5 Z"/></g>
<g><path style="opacity:1" fill="#282169" d="M 56.5,76.5 C 57.1386,77.0968 57.472,77.9302 57.5,79C 57.4654,82.0956 56.4654,82.7623 54.5,81C 55.0439,79.415 55.7106,77.915 56.5,76.5 Z"/></g>
<g><path style="opacity:1" fill="#271a69" d="M 28.5,81.5 C 29.675,81.281 30.675,81.6143 31.5,82.5C 30.3446,83.9505 28.8446,84.9505 27,85.5C 26.7003,83.9343 27.2003,82.601 28.5,81.5 Z"/></g>
<g><path style="opacity:1" fill="#271b69" d="M 63.5,81.5 C 66.5242,81.3642 68.0242,82.6975 68,85.5C 66.9326,84.8095 65.7659,84.3095 64.5,84C 63.7476,83.3292 63.4142,82.4959 63.5,81.5 Z"/></g>
<g><path style="opacity:1" fill="#271f69" d="M 36.5,84.5 C 40.193,85.2471 40.193,86.5804 36.5,88.5C 35.3744,87.1916 35.3744,85.8583 36.5,84.5 Z"/></g>
<g><path style="opacity:1" fill="#251a69" d="M 55.5,84.5 C 57.5901,84.4501 58.9234,85.4501 59.5,87.5C 57.2192,88.2617 55.8859,87.2617 55.5,84.5 Z"/></g>
</svg>
