<?xml version="1.0" encoding="UTF-8"?>
<!DOCTYPE svg PUBLIC "-//W3C//DTD SVG 1.1//EN" "http://www.w3.org/Graphics/SVG/1.1/DTD/svg11.dtd">
<svg xmlns="http://www.w3.org/2000/svg" version="1.1" width="96px" height="96px" style="shape-rendering:geometricPrecision; text-rendering:geometricPrecision; image-rendering:optimizeQuality; fill-rule:evenodd; clip-rule:evenodd" xmlns:xlink="http://www.w3.org/1999/xlink">
<g><path style="opacity:1" fill="#0c0c0c" d="M 36.5,-0.5 C 43.8333,-0.5 51.1667,-0.5 58.5,-0.5C 77.5967,5.59648 89.93,18.2631 95.5,37.5C 95.5,44.1667 95.5,50.8333 95.5,57.5C 89.9388,76.7283 77.6055,89.3949 58.5,95.5C 51.1667,95.5 43.8333,95.5 36.5,95.5C 17.3945,89.3949 5.0612,76.7283 -0.5,57.5C -0.5,50.8333 -0.5,44.1667 -0.5,37.5C -0.166667,37.5 0.166667,37.5 0.5,37.5C 1.92381,35.4855 2.59047,33.1522 2.5,30.5C 8.75967,14.5725 20.093,4.23917 36.5,-0.5 Z"/></g>
<g><path style="opacity:1" fill="#f5f5f5" d="M 40.5,15.5 C 48.0482,15.0724 55.3815,16.0724 62.5,18.5C 62.9231,21.2882 61.9231,23.2882 59.5,24.5C 49.4784,19.7434 40.1451,20.7434 31.5,27.5C 43.1667,39.8333 55.1667,51.8333 67.5,63.5C 74.1122,54.9299 75.1122,45.7633 70.5,36C 71.2215,33.2586 72.8882,32.2586 75.5,33C 77.2353,35.1922 78.402,37.6922 79,40.5C 80.1674,67.3326 67.3341,80.1659 40.5,79C 36.2807,78.2087 32.6141,76.3754 29.5,73.5C 30.3128,72.1861 31.3128,71.0195 32.5,70C 35.4954,70.646 38.4954,71.646 41.5,73C 48.1785,74.1508 54.5118,73.1508 60.5,70C 62.0074,69.1627 62.5074,67.9961 62,66.5C 50.6526,54.9858 39.1526,43.6524 27.5,32.5C 23.2715,36.3384 21.2715,41.1717 21.5,47C 22.289,52.6694 23.4557,58.1694 25,63.5C 23.8989,65.3939 22.5655,66.0606 21,65.5C 11.1137,46.5456 14.947,31.0456 32.5,19C 35.3093,17.9066 37.976,16.7399 40.5,15.5 Z"/></g>
<g><path style="opacity:1" fill="#f4f4f4" d="M 66.5,21.5 C 66.8966,20.475 67.5632,20.3083 68.5,21C 70.8333,23.3333 73.1667,25.6667 75.5,28C 74.1667,28 72.8333,28 71.5,28C 69.607,30.3031 67.607,32.4698 65.5,34.5C 63.5,33.1667 61.8333,31.5 60.5,29.5C 63.3105,27.5836 65.9772,25.4169 68.5,23C 67.9558,22.2828 67.2891,21.7828 66.5,21.5 Z"/></g>
<g><path style="opacity:1" fill="#f4f4f4" d="M 53.5,27.5 C 58.479,31.8123 63.1456,36.479 67.5,41.5C 67.1667,41.8333 66.8333,42.1667 66.5,42.5C 65.5,41.8333 64.5,41.1667 63.5,40.5C 60.8333,42.8333 58.1667,45.1667 55.5,47.5C 52.5,45.1667 49.8333,42.5 47.5,39.5C 50.5497,37.4509 52.883,34.7843 54.5,31.5C 52.8241,30.2724 52.4908,28.9391 53.5,27.5 Z"/></g>
<g><path style="opacity:0.776" fill="#545454" d="M 2.5,30.5 C 2.59047,33.1522 1.92381,35.4855 0.5,37.5C 0.409526,34.8478 1.07619,32.5145 2.5,30.5 Z"/></g>
<g><path style="opacity:1" fill="#f8f8f8" d="M 38.5,48.5 C 41.8991,50.3883 44.8991,52.8883 47.5,56C 44.6511,59.0162 41.6511,61.8496 38.5,64.5C 35.5,62.1667 32.8333,59.5 30.5,56.5C 33.5211,54.1456 36.1877,51.4789 38.5,48.5 Z"/></g>
<g><path style="opacity:1" fill="#dedede" d="M 30.5,60.5 C 32.7565,61.5618 33.9232,63.2285 34,65.5C 30.0956,67.5628 26.5956,70.2295 23.5,73.5C 22.4173,72.635 22.2506,71.635 23,70.5C 26.5157,67.8325 29.0157,64.4992 30.5,60.5 Z"/></g>
</svg>
