<?xml version="1.0" encoding="UTF-8"?>
<!DOCTYPE svg PUBLIC "-//W3C//DTD SVG 1.1//EN" "http://www.w3.org/Graphics/SVG/1.1/DTD/svg11.dtd">
<svg xmlns="http://www.w3.org/2000/svg" version="1.1" width="96px" height="96px" style="shape-rendering:geometricPrecision; text-rendering:geometricPrecision; image-rendering:optimizeQuality; fill-rule:evenodd; clip-rule:evenodd" xmlns:xlink="http://www.w3.org/1999/xlink">
<g><path style="opacity:0.981" fill="#6768e6" d="M 37.5,-0.5 C 44.1667,-0.5 50.8333,-0.5 57.5,-0.5C 77.1667,5.16667 89.8333,17.8333 95.5,37.5C 95.5,44.1667 95.5,50.8333 95.5,57.5C 89.8333,77.1667 77.1667,89.8333 57.5,95.5C 50.8333,95.5 44.1667,95.5 37.5,95.5C 17.8333,89.8333 5.16667,77.1667 -0.5,57.5C -0.5,50.8333 -0.5,44.1667 -0.5,37.5C 5.16667,17.8333 17.8333,5.16667 37.5,-0.5 Z"/></g>
<g><path style="opacity:1" fill="#fafafe" d="M 19.5,27.5 C 32.8375,27.3334 46.1708,27.5001 59.5,28C 55.6983,34.6322 51.6983,41.1322 47.5,47.5C 42.8243,43.824 42.4909,39.824 46.5,35.5C 41.5,34.1667 36.5,34.1667 31.5,35.5C 36.8333,44.1667 42.1667,52.8333 47.5,61.5C 54.4892,50.8652 60.9892,39.8652 67,28.5C 69.7947,27.2175 72.6281,27.2175 75.5,28.5C 66.5657,44.7594 57.2323,60.7594 47.5,76.5C 37.3842,60.6004 28.0509,44.267 19.5,27.5 Z"/></g>
</svg>
