<?xml version="1.0" encoding="UTF-8"?>
<!DOCTYPE svg PUBLIC "-//W3C//DTD SVG 1.1//EN" "http://www.w3.org/Graphics/SVG/1.1/DTD/svg11.dtd">
<svg xmlns="http://www.w3.org/2000/svg" version="1.1" width="96px" height="96px" style="shape-rendering:geometricPrecision; text-rendering:geometricPrecision; image-rendering:optimizeQuality; fill-rule:evenodd; clip-rule:evenodd" xmlns:xlink="http://www.w3.org/1999/xlink">
<g><path style="opacity:0.967" fill="#fc9221" d="M 41.5,0.5 C 41.7935,4.43669 41.4601,8.27002 40.5,12C 42.0581,12.21 43.3915,12.71 44.5,13.5C 28.0295,16.638 17.6961,26.3047 13.5,42.5C 12.8333,43.5 12.1667,44.5 11.5,45.5C 11.5,44.1667 11.5,42.8333 11.5,41.5C 7.70447,41.9476 4.0378,42.9476 0.5,44.5C 1.34221,35.9707 4.34221,28.3041 9.5,21.5C 13.8333,17.8333 17.8333,13.8333 21.5,9.5C 27.4423,4.96068 34.1089,1.96068 41.5,0.5 Z"/></g>
<g><path style="opacity:1" fill="#ffd0b6" d="M 54.5,0.5 C 56.0618,0.732857 57.3951,1.39952 58.5,2.5C 59.8993,3.88972 61.5659,4.88972 63.5,5.5C 63.8333,6.16667 64.1667,6.83333 64.5,7.5C 63.8333,7.5 63.1667,7.5 62.5,7.5C 60.8828,6.962 59.2161,6.62867 57.5,6.5C 55.615,4.94678 54.615,2.94678 54.5,0.5 Z"/></g>
<g><path style="opacity:0.69" fill="#fff3ef" d="M 58.5,2.5 C 64.3259,3.74718 69.6592,6.08051 74.5,9.5C 74.44,10.0431 74.1067,10.3764 73.5,10.5C 70.3168,8.44478 66.9835,6.77811 63.5,5.5C 61.5659,4.88972 59.8993,3.88972 58.5,2.5 Z"/></g>
<g><path style="opacity:1" fill="#ff9e4a" d="M 41.5,0.5 C 43.8333,0.5 46.1667,0.5 48.5,0.5C 47.9564,4.67316 48.623,8.50649 50.5,12C 49.2625,12.2321 48.2625,12.7321 47.5,13.5C 46.5,13.5 45.5,13.5 44.5,13.5C 43.3915,12.71 42.0581,12.21 40.5,12C 41.4601,8.27002 41.7935,4.43669 41.5,0.5 Z"/></g>
<g><path style="opacity:1" fill="#ffa879" d="M 48.5,0.5 C 50.5,0.5 52.5,0.5 54.5,0.5C 54.615,2.94678 55.615,4.94678 57.5,6.5C 56.3552,7.79266 56.6885,8.95933 58.5,10C 58.0257,11.7286 57.0257,12.8953 55.5,13.5C 52.8333,13.5 50.1667,13.5 47.5,13.5C 48.2625,12.7321 49.2625,12.2321 50.5,12C 48.623,8.50649 47.9564,4.67316 48.5,0.5 Z"/></g>
<g><path style="opacity:1" fill="#ffc17f" d="M 21.5,9.5 C 17.8333,13.8333 13.8333,17.8333 9.5,21.5C 12.5,16.5 16.5,12.5 21.5,9.5 Z"/></g>
<g><path style="opacity:1" fill="#fcfaf9" d="M 44.5,13.5 C 45.5,13.5 46.5,13.5 47.5,13.5C 50.1667,13.5 52.8333,13.5 55.5,13.5C 59.0808,14.8073 62.7474,16.1406 66.5,17.5C 67.2905,18.4013 68.2905,19.0679 69.5,19.5C 71.4628,20.9599 73.2962,22.6266 75,24.5C 75.8333,27.6667 74.6667,28.8333 71.5,28C 68.9783,25.9098 66.3116,24.0765 63.5,22.5C 60.7916,20.6469 57.7916,19.6469 54.5,19.5C 52.866,18.8389 51.0326,18.5056 49,18.5C 45.5489,18.4205 42.3823,19.0872 39.5,20.5C 30.5629,23.7709 24.2296,29.7709 20.5,38.5C 19.596,39.209 19.2627,40.209 19.5,41.5C 18.5318,43.6074 18.1984,45.9407 18.5,48.5C 18.5,49.1667 18.5,49.8333 18.5,50.5C 18.5569,51.609 18.8902,52.609 19.5,53.5C 19.2322,55.099 19.5655,56.4324 20.5,57.5C 20.4021,59.5529 21.0687,61.2196 22.5,62.5C 24.682,68.8094 27.3487,68.8094 30.5,62.5C 32.5,61.1667 34.1667,59.5 35.5,57.5C 37.0532,55.615 39.0532,54.615 41.5,54.5C 42.2341,55.7079 42.5674,57.0413 42.5,58.5C 41.8333,59.5 41.1667,60.5 40.5,61.5C 39.5,61.8333 38.8333,62.5 38.5,63.5C 34.4795,67.5192 30.1461,71.1859 25.5,74.5C 22.0969,72.1002 19.4302,69.1002 17.5,65.5C 16.5,63.5 15.5,61.5 14.5,59.5C 14.4431,58.391 14.1098,57.391 13.5,56.5C 13.5,55.5 13.5,54.5 13.5,53.5C 13.5,51.1667 13.5,48.8333 13.5,46.5C 13.5,45.1667 13.5,43.8333 13.5,42.5C 17.6961,26.3047 28.0295,16.638 44.5,13.5 Z"/></g>
<g><path style="opacity:1" fill="#ffcfdf" d="M 63.5,5.5 C 66.9835,6.77811 70.3168,8.44478 73.5,10.5C 74.1067,10.3764 74.44,10.0431 74.5,9.5C 76.1667,10.5 77.5,11.8333 78.5,13.5C 77.3991,14.5983 76.0657,14.765 74.5,14C 71.4816,11.1106 68.1483,8.94398 64.5,7.5C 64.1667,6.83333 63.8333,6.16667 63.5,5.5 Z"/></g>
<g><path style="opacity:1" fill="#ffa2a7" d="M 57.5,6.5 C 59.2161,6.62867 60.8828,6.962 62.5,7.5C 63.6843,8.68787 63.6843,9.85453 62.5,11C 64.6917,12.0669 66.3583,13.5669 67.5,15.5C 67.1667,16.1667 66.8333,16.8333 66.5,17.5C 62.7474,16.1406 59.0808,14.8073 55.5,13.5C 57.0257,12.8953 58.0257,11.7286 58.5,10C 56.6885,8.95933 56.3552,7.79266 57.5,6.5 Z"/></g>
<g><path style="opacity:1" fill="#ffb3cb" d="M 62.5,7.5 C 63.1667,7.5 63.8333,7.5 64.5,7.5C 68.1483,8.94398 71.4816,11.1106 74.5,14C 76.0657,14.765 77.3991,14.5983 78.5,13.5C 79.5,13.8333 80.1667,14.5 80.5,15.5C 79.6661,16.7479 78.3328,17.4146 76.5,17.5C 73.494,16.8208 70.494,16.1542 67.5,15.5C 66.3583,13.5669 64.6917,12.0669 62.5,11C 63.6843,9.85453 63.6843,8.68787 62.5,7.5 Z"/></g>
<g><path style="opacity:1" fill="#ff98bc" d="M 67.5,15.5 C 70.494,16.1542 73.494,16.8208 76.5,17.5C 78.3328,17.4146 79.6661,16.7479 80.5,15.5C 81.8333,16.1667 82.8333,17.1667 83.5,18.5C 83.5394,19.5832 83.8728,20.5832 84.5,21.5C 79.3236,22.7983 74.6569,21.7983 70.5,18.5C 69.8933,18.6236 69.56,18.9569 69.5,19.5C 68.2905,19.0679 67.2905,18.4013 66.5,17.5C 66.8333,16.8333 67.1667,16.1667 67.5,15.5 Z"/></g>
<g><path style="opacity:1" fill="#ff8e55" d="M 54.5,19.5 C 54.0825,20.2216 53.4158,20.7216 52.5,21C 53.3802,22.3561 53.7135,23.8561 53.5,25.5C 55.4008,25.2465 56.0674,25.5798 55.5,26.5C 52.5,26.5 49.5,26.5 46.5,26.5C 45.4324,25.5655 44.099,25.2322 42.5,25.5C 42.5,23.8333 42.5,22.1667 42.5,20.5C 41.5,20.5 40.5,20.5 39.5,20.5C 42.3823,19.0872 45.5489,18.4205 49,18.5C 51.0326,18.5056 52.866,18.8389 54.5,19.5 Z"/></g>
<g><path style="opacity:1" fill="#ff8485" d="M 54.5,19.5 C 57.7916,19.6469 60.7916,20.6469 63.5,22.5C 64.5281,25.2769 64.1947,27.6102 62.5,29.5C 59.8427,29.0652 57.5093,28.0652 55.5,26.5C 56.0674,25.5798 55.4008,25.2465 53.5,25.5C 53.7135,23.8561 53.3802,22.3561 52.5,21C 53.4158,20.7216 54.0825,20.2216 54.5,19.5 Z"/></g>
<g><path style="opacity:1" fill="#f98b23" d="M 39.5,20.5 C 40.5,20.5 41.5,20.5 42.5,20.5C 42.5,22.1667 42.5,23.8333 42.5,25.5C 44.099,25.2322 45.4324,25.5655 46.5,26.5C 39.6138,27.5134 33.7804,30.5134 29,35.5C 28.5172,36.448 28.3505,37.448 28.5,38.5C 25.0894,35.4466 22.5894,36.1133 21,40.5C 20.5357,39.9056 20.369,39.2389 20.5,38.5C 24.2296,29.7709 30.5629,23.7709 39.5,20.5 Z"/></g>
<g><path style="opacity:1" fill="#fcf9f9" d="M 46.5,26.5 C 49.5,26.5 52.5,26.5 55.5,26.5C 57.5093,28.0652 59.8427,29.0652 62.5,29.5C 69.8374,33.4828 74.8374,39.4828 77.5,47.5C 77.5,47.8333 77.5,48.1667 77.5,48.5C 77.8989,54.6711 77.2322,60.6711 75.5,66.5C 73.1134,71.5534 69.4468,75.22 64.5,77.5C 62.5,77.5 60.5,77.5 58.5,77.5C 56.8333,76.8333 55.1667,76.1667 53.5,75.5C 52.4706,73.4832 51.4706,71.4832 50.5,69.5C 49.8075,65.2473 50.8075,61.5807 53.5,58.5C 55.2915,58.366 56.9582,58.6993 58.5,59.5C 57.7674,61.9633 56.7674,64.2967 55.5,66.5C 56.7839,72.4614 60.1172,73.9614 65.5,71C 67.7972,68.9013 69.4639,66.4013 70.5,63.5C 71.1098,62.609 71.4431,61.609 71.5,60.5C 72.7908,56.3989 72.7908,52.3989 71.5,48.5C 70.335,42.5055 67.0017,38.1721 61.5,35.5C 58.855,33.6896 55.855,32.6896 52.5,32.5C 46.0965,31.5287 40.4299,33.0287 35.5,37C 37.7032,39.3722 40.0365,41.5389 42.5,43.5C 43.1667,44.8333 44.1667,45.8333 45.5,46.5C 45.5,47.5 45.5,48.5 45.5,49.5C 44.8333,49.5 44.5,49.8333 44.5,50.5C 43.5,50.5 42.5,50.5 41.5,50.5C 41.1667,49.5 40.5,48.8333 39.5,48.5C 37.7656,45.7997 35.4323,43.7997 32.5,42.5C 31.5,40.8333 30.1667,39.5 28.5,38.5C 28.3505,37.448 28.5172,36.448 29,35.5C 33.7804,30.5134 39.6138,27.5134 46.5,26.5 Z"/></g>
<g><path style="opacity:0.937" fill="#fe7baa" d="M 69.5,19.5 C 69.56,18.9569 69.8933,18.6236 70.5,18.5C 74.6569,21.7983 79.3236,22.7983 84.5,21.5C 83.8728,20.5832 83.5394,19.5832 83.5,18.5C 88.2949,24.4205 91.7949,31.0871 94,38.5C 94.6667,44.5 94.6667,50.5 94,56.5C 93.0147,58.1749 92.1814,59.8415 91.5,61.5C 93.8602,49.7152 89.1935,43.8818 77.5,44C 78.7911,45.2917 78.7911,46.4583 77.5,47.5C 74.8374,39.4828 69.8374,33.4828 62.5,29.5C 64.1947,27.6102 64.5281,25.2769 63.5,22.5C 66.3116,24.0765 68.9783,25.9098 71.5,28C 74.6667,28.8333 75.8333,27.6667 75,24.5C 73.2962,22.6266 71.4628,20.9599 69.5,19.5 Z"/></g>
<g><path style="opacity:1" fill="#ec7b6c" d="M 52.5,32.5 C 55.855,32.6896 58.855,33.6896 61.5,35.5C 61.0344,37.9349 60.701,40.2682 60.5,42.5C 57.7444,41.7459 55.0777,41.7459 52.5,42.5C 51.147,41.4739 50.147,40.1405 49.5,38.5C 49.461,35.911 50.461,33.911 52.5,32.5 Z"/></g>
<g><path style="opacity:1" fill="#de7a3d" d="M 52.5,32.5 C 50.461,33.911 49.461,35.911 49.5,38.5C 45.4189,38.6613 43.0855,40.3279 42.5,43.5C 40.0365,41.5389 37.7032,39.3722 35.5,37C 40.4299,33.0287 46.0965,31.5287 52.5,32.5 Z"/></g>
<g><path style="opacity:1" fill="#cb7a1c" d="M 28.5,38.5 C 30.1667,39.5 31.5,40.8333 32.5,42.5C 28.0029,41.9445 23.8362,42.6112 20,44.5C 19.5172,43.552 19.3505,42.552 19.5,41.5C 19.2627,40.209 19.596,39.209 20.5,38.5C 20.369,39.2389 20.5357,39.9056 21,40.5C 22.5894,36.1133 25.0894,35.4466 28.5,38.5 Z"/></g>
<g><path style="opacity:1" fill="#d17e56" d="M 49.5,38.5 C 50.147,40.1405 51.147,41.4739 52.5,42.5C 50.6096,44.5776 48.2762,45.9109 45.5,46.5C 44.1667,45.8333 43.1667,44.8333 42.5,43.5C 43.0855,40.3279 45.4189,38.6613 49.5,38.5 Z"/></g>
<g><path style="opacity:1" fill="#ea9331" d="M 11.5,45.5 C 7.83333,46.8333 4.16667,48.1667 0.5,49.5C 0.5,47.8333 0.5,46.1667 0.5,44.5C 4.0378,42.9476 7.70447,41.9476 11.5,41.5C 11.5,42.8333 11.5,44.1667 11.5,45.5 Z"/></g>
<g><path style="opacity:1" fill="#ea809b" d="M 61.5,35.5 C 67.0017,38.1721 70.335,42.5055 71.5,48.5C 71.6716,49.4916 71.3382,50.1583 70.5,50.5C 70.5,49.5 70.5,48.5 70.5,47.5C 66.5341,46.8379 62.5341,46.5045 58.5,46.5C 58.3893,45.8826 58.056,45.3826 57.5,45C 58.9423,44.6232 59.9423,43.7899 60.5,42.5C 60.701,40.2682 61.0344,37.9349 61.5,35.5 Z"/></g>
<g><path style="opacity:1" fill="#af8340" d="M 19.5,41.5 C 19.3505,42.552 19.5172,43.552 20,44.5C 23.8362,42.6112 28.0029,41.9445 32.5,42.5C 35.4323,43.7997 37.7656,45.7997 39.5,48.5C 32.5,47.1667 25.5,47.1667 18.5,48.5C 18.1984,45.9407 18.5318,43.6074 19.5,41.5 Z"/></g>
<g><path style="opacity:1" fill="#d99f58" d="M 13.5,42.5 C 13.5,43.8333 13.5,45.1667 13.5,46.5C 12.71,47.6085 12.21,48.9419 12,50.5C 11.4387,49.9781 10.772,49.6448 10,49.5C 7.04157,51.233 3.8749,52.233 0.5,52.5C 0.5,51.5 0.5,50.5 0.5,49.5C 4.16667,48.1667 7.83333,46.8333 11.5,45.5C 12.1667,44.5 12.8333,43.5 13.5,42.5 Z"/></g>
<g><path style="opacity:1" fill="#c78276" d="M 60.5,42.5 C 59.9423,43.7899 58.9423,44.6232 57.5,45C 58.056,45.3826 58.3893,45.8826 58.5,46.5C 56.2646,46.2053 54.2646,46.5386 52.5,47.5C 50.1055,48.0147 47.7722,48.6814 45.5,49.5C 45.5,48.5 45.5,47.5 45.5,46.5C 48.2762,45.9109 50.6096,44.5776 52.5,42.5C 55.0777,41.7459 57.7444,41.7459 60.5,42.5 Z"/></g>
<g><path style="opacity:1" fill="#f685af" d="M 91.5,61.5 C 90.0349,67.7704 87.0349,73.1037 82.5,77.5C 83.7226,74.7261 85.2226,72.0594 87,69.5C 89.1418,63.2252 88.9751,57.0586 86.5,51C 83.8363,49.487 81.1696,49.3204 78.5,50.5C 78.6716,49.5084 78.3382,48.8417 77.5,48.5C 77.5,48.1667 77.5,47.8333 77.5,47.5C 78.7911,46.4583 78.7911,45.2917 77.5,44C 89.1935,43.8818 93.8602,49.7152 91.5,61.5 Z"/></g>
<g><path style="opacity:1" fill="#968962" d="M 39.5,48.5 C 40.5,48.8333 41.1667,49.5 41.5,50.5C 33.8333,50.5 26.1667,50.5 18.5,50.5C 18.5,49.8333 18.5,49.1667 18.5,48.5C 25.5,47.1667 32.5,47.1667 39.5,48.5 Z"/></g>
<g><path style="opacity:1" fill="#d38ba3" d="M 52.5,47.5 C 54.2646,46.5386 56.2646,46.2053 58.5,46.5C 62.5341,46.5045 66.5341,46.8379 70.5,47.5C 70.5,48.5 70.5,49.5 70.5,50.5C 67.5,50.5 64.5,50.5 61.5,50.5C 58.7016,49.1309 55.7016,48.1309 52.5,47.5 Z"/></g>
<g><path style="opacity:1" fill="#b38f97" d="M 52.5,47.5 C 55.7016,48.1309 58.7016,49.1309 61.5,50.5C 61.3893,51.1174 61.056,51.6174 60.5,52C 57.5184,52.498 54.5184,52.6646 51.5,52.5C 48.1667,52.5 44.8333,52.5 41.5,52.5C 42.5,51.8333 43.5,51.1667 44.5,50.5C 44.5,49.8333 44.8333,49.5 45.5,49.5C 47.7722,48.6814 50.1055,48.0147 52.5,47.5 Z"/></g>
<g><path style="opacity:1" fill="#d1b58e" d="M 13.5,46.5 C 13.5,48.8333 13.5,51.1667 13.5,53.5C 10.2984,54.1309 7.29842,55.1309 4.5,56.5C 3.5,56.5 2.5,56.5 1.5,56.5C 0.565525,55.4324 0.232191,54.099 0.5,52.5C 3.8749,52.233 7.04157,51.233 10,49.5C 10.772,49.6448 11.4387,49.9781 12,50.5C 12.21,48.9419 12.71,47.6085 13.5,46.5 Z"/></g>
<g><path style="opacity:1" fill="#868f7d" d="M 18.5,50.5 C 26.1667,50.5 33.8333,50.5 41.5,50.5C 42.5,50.5 43.5,50.5 44.5,50.5C 43.5,51.1667 42.5,51.8333 41.5,52.5C 40.8333,52.5 40.5,52.8333 40.5,53.5C 33.5,53.5 26.5,53.5 19.5,53.5C 18.8902,52.609 18.5569,51.609 18.5,50.5 Z"/></g>
<g><path style="opacity:1" fill="#e89db9" d="M 82.5,77.5 C 82.1667,78.5 81.5,79.1667 80.5,79.5C 80.4003,76.8915 81.0669,74.5582 82.5,72.5C 83.9663,71.653 84.7996,70.3197 85,68.5C 85.3148,65.6285 85.8148,62.7952 86.5,60C 84.8286,56.3269 82.162,55.1602 78.5,56.5C 78.5,54.5 78.5,52.5 78.5,50.5C 81.1696,49.3204 83.8363,49.487 86.5,51C 88.9751,57.0586 89.1418,63.2252 87,69.5C 85.2226,72.0594 83.7226,74.7261 82.5,77.5 Z"/></g>
<g><path style="opacity:1" fill="#9498a7" d="M 40.5,53.5 C 40.5,52.8333 40.8333,52.5 41.5,52.5C 44.8333,52.5 48.1667,52.5 51.5,52.5C 52.2625,53.2679 53.2625,53.7679 54.5,54C 55.2524,54.6708 55.5858,55.5041 55.5,56.5C 53.8333,56.5 52.1667,56.5 50.5,56.5C 47.4669,56.1315 44.8002,56.7982 42.5,58.5C 42.5674,57.0413 42.2341,55.7079 41.5,54.5C 42.5573,53.794 42.2239,53.4607 40.5,53.5 Z"/></g>
<g><path style="opacity:1" fill="#6b96a2" d="M 19.5,53.5 C 26.5,53.5 33.5,53.5 40.5,53.5C 42.2239,53.4607 42.5573,53.794 41.5,54.5C 39.0532,54.615 37.0532,55.615 35.5,57.5C 30.5,57.5 25.5,57.5 20.5,57.5C 19.5655,56.4324 19.2322,55.099 19.5,53.5 Z"/></g>
<g><path style="opacity:1" fill="#b79dba" d="M 71.5,48.5 C 72.7908,52.3989 72.7908,56.3989 71.5,60.5C 66.7035,57.4595 61.3701,56.1261 55.5,56.5C 55.5858,55.5041 55.2524,54.6708 54.5,54C 53.2625,53.7679 52.2625,53.2679 51.5,52.5C 54.5184,52.6646 57.5184,52.498 60.5,52C 61.056,51.6174 61.3893,51.1174 61.5,50.5C 64.5,50.5 67.5,50.5 70.5,50.5C 71.3382,50.1583 71.6716,49.4916 71.5,48.5 Z"/></g>
<g><path style="opacity:1" fill="#b8beb7" d="M 13.5,53.5 C 13.5,54.5 13.5,55.5 13.5,56.5C 11.8863,58.0746 9.88629,58.7413 7.5,58.5C 5.82124,58.7148 4.82124,58.0481 4.5,56.5C 7.29842,55.1309 10.2984,54.1309 13.5,53.5 Z"/></g>
<g><path style="opacity:1" fill="#daadbf" d="M 82.5,72.5 C 84.6002,67.5647 83.6002,63.5647 79.5,60.5C 78.5713,59.3112 78.238,57.9778 78.5,56.5C 82.162,55.1602 84.8286,56.3269 86.5,60C 85.8148,62.7952 85.3148,65.6285 85,68.5C 84.7996,70.3197 83.9663,71.653 82.5,72.5 Z"/></g>
<g><path style="opacity:1" fill="#549fca" d="M 20.5,57.5 C 25.5,57.5 30.5,57.5 35.5,57.5C 34.1667,59.5 32.5,61.1667 30.5,62.5C 28.1061,61.4743 25.4395,61.4743 22.5,62.5C 21.0687,61.2196 20.4021,59.5529 20.5,57.5 Z"/></g>
<g><path style="opacity:1" fill="#a0a9c8" d="M 50.5,56.5 C 52.1667,56.5 53.8333,56.5 55.5,56.5C 61.3701,56.1261 66.7035,57.4595 71.5,60.5C 71.4431,61.609 71.1098,62.609 70.5,63.5C 66.1897,62.7838 62.1897,61.4504 58.5,59.5C 56.9582,58.6993 55.2915,58.366 53.5,58.5C 52.5,57.8333 51.5,57.1667 50.5,56.5 Z"/></g>
<g><path style="opacity:1" fill="#72a7cd" d="M 50.5,56.5 C 51.5,57.1667 52.5,57.8333 53.5,58.5C 50.8075,61.5807 49.8075,65.2473 50.5,69.5C 49.5386,67.7354 49.2053,65.7354 49.5,63.5C 46.4816,63.6646 43.4816,63.498 40.5,63C 41.7383,62.31 41.7383,61.81 40.5,61.5C 41.1667,60.5 41.8333,59.5 42.5,58.5C 44.8002,56.7982 47.4669,56.1315 50.5,56.5 Z"/></g>
<g><path style="opacity:1" fill="#ddebf5" d="M 1.5,56.5 C 2.5,56.5 3.5,56.5 4.5,56.5C 4.82124,58.0481 5.82124,58.7148 7.5,58.5C 7.90752,63.5368 8.57418,68.5368 9.5,73.5C 5.51308,68.523 2.84641,62.8564 1.5,56.5 Z"/></g>
<g><path style="opacity:1" fill="#44a4e8" d="M 30.5,62.5 C 27.3487,68.8094 24.682,68.8094 22.5,62.5C 25.4395,61.4743 28.1061,61.4743 30.5,62.5 Z"/></g>
<g><path style="opacity:1" fill="#98d0fa" d="M 11.5,61.5 C 12.9672,66.2761 14.3005,71.1095 15.5,76C 15.3158,77.3756 14.6491,78.2089 13.5,78.5C 12.1667,77.8333 11.1667,76.8333 10.5,75.5C 11.3764,75.6309 12.0431,75.2975 12.5,74.5C 11.7514,71.0896 10.7514,67.7563 9.5,64.5C 9.45344,62.9623 10.1201,61.9623 11.5,61.5 Z"/></g>
<g><path style="opacity:1" fill="#89bee1" d="M 58.5,59.5 C 62.1897,61.4504 66.1897,62.7838 70.5,63.5C 69.4639,66.4013 67.7972,68.9013 65.5,71C 60.1172,73.9614 56.7839,72.4614 55.5,66.5C 56.7674,64.2967 57.7674,61.9633 58.5,59.5 Z"/></g>
<g><path style="opacity:0.915" fill="#b3d7f1" d="M 13.5,56.5 C 14.1098,57.391 14.4431,58.391 14.5,59.5C 13.2905,59.9321 12.2905,60.5987 11.5,61.5C 10.1201,61.9623 9.45344,62.9623 9.5,64.5C 10.7514,67.7563 11.7514,71.0896 12.5,74.5C 12.0431,75.2975 11.3764,75.6309 10.5,75.5C 9.66175,75.1583 9.32842,74.4916 9.5,73.5C 8.57418,68.5368 7.90752,63.5368 7.5,58.5C 9.88629,58.7413 11.8863,58.0746 13.5,56.5 Z"/></g>
<g><path style="opacity:1" fill="#5ab4eb" d="M 40.5,61.5 C 41.7383,61.81 41.7383,62.31 40.5,63C 43.4816,63.498 46.4816,63.6646 49.5,63.5C 49.2053,65.7354 49.5386,67.7354 50.5,69.5C 51.4706,71.4832 52.4706,73.4832 53.5,75.5C 51.8333,76.1667 50.1667,76.8333 48.5,77.5C 45.2869,77.81 42.2869,77.4767 39.5,76.5C 41.1992,76.6602 42.8659,76.4935 44.5,76C 41.7215,75.8508 41.2215,75.0174 43,73.5C 43.6667,71.8333 43.6667,70.1667 43,68.5C 41.6443,66.5911 40.1443,64.9245 38.5,63.5C 38.8333,62.5 39.5,61.8333 40.5,61.5 Z"/></g>
<g><path style="opacity:1" fill="#d5cbd3" d="M 77.5,48.5 C 78.3382,48.8417 78.6716,49.5084 78.5,50.5C 78.5,52.5 78.5,54.5 78.5,56.5C 78.238,57.9778 78.5713,59.3112 79.5,60.5C 83.6002,63.5647 84.6002,67.5647 82.5,72.5C 81.0669,74.5582 80.4003,76.8915 80.5,79.5C 78.8333,81.8333 76.8333,83.8333 74.5,85.5C 75.778,83.1774 76.778,80.6774 77.5,78C 77.4301,77.2352 77.0967,76.7352 76.5,76.5C 76.4208,75.0695 76.7542,73.7362 77.5,72.5C 75.633,70.6074 74.9664,68.6074 75.5,66.5C 77.2322,60.6711 77.8989,54.6711 77.5,48.5 Z"/></g>
<g><path style="opacity:0.984" fill="#46abf3" d="M 38.5,63.5 C 40.1443,64.9245 41.6443,66.5911 43,68.5C 43.6667,70.1667 43.6667,71.8333 43,73.5C 41.2215,75.0174 41.7215,75.8508 44.5,76C 42.8659,76.4935 41.1992,76.6602 39.5,76.5C 37.8014,76.3796 36.1347,76.0463 34.5,75.5C 32.7336,75.4342 31.7336,76.2676 31.5,78C 34.2002,80.8491 37.5335,82.3491 41.5,82.5C 43.8333,83.1667 46.1667,83.8333 48.5,84.5C 45.8333,84.5 43.1667,84.5 40.5,84.5C 40.5,87.8333 40.5,91.1667 40.5,94.5C 34.2857,92.7009 28.2857,90.2009 22.5,87C 20.0038,85.669 18.0038,83.8356 16.5,81.5C 18.0443,81.7031 19.3777,82.3698 20.5,83.5C 20.8333,82.3333 21.1667,81.1667 21.5,80C 20.5171,75.2674 18.8504,70.7674 16.5,66.5C 16.6236,65.8933 16.9569,65.56 17.5,65.5C 19.4302,69.1002 22.0969,72.1002 25.5,74.5C 30.1461,71.1859 34.4795,67.5192 38.5,63.5 Z"/></g>
<g><path style="opacity:1" fill="#f7fbfe" d="M 39.5,76.5 C 42.2869,77.4767 45.2869,77.81 48.5,77.5C 50.248,78.7894 50.5814,80.2894 49.5,82C 46.854,82.4974 44.1873,82.6641 41.5,82.5C 37.5335,82.3491 34.2002,80.8491 31.5,78C 31.7336,76.2676 32.7336,75.4342 34.5,75.5C 36.1347,76.0463 37.8014,76.3796 39.5,76.5 Z"/></g>
<g><path style="opacity:1" fill="#bbe0eb" d="M 75.5,66.5 C 74.9664,68.6074 75.633,70.6074 77.5,72.5C 76.7542,73.7362 76.4208,75.0695 76.5,76.5C 70.4947,79.5092 65.8281,83.8425 62.5,89.5C 61.675,90.3857 60.675,90.719 59.5,90.5C 59.0142,84.6899 61.3476,80.5233 66.5,78C 65.9056,77.5357 65.2389,77.369 64.5,77.5C 69.4468,75.22 73.1134,71.5534 75.5,66.5 Z"/></g>
<g><path style="opacity:1" fill="#73bef7" d="M 14.5,59.5 C 15.5,61.5 16.5,63.5 17.5,65.5C 16.9569,65.56 16.6236,65.8933 16.5,66.5C 18.8504,70.7674 20.5171,75.2674 21.5,80C 21.1667,81.1667 20.8333,82.3333 20.5,83.5C 19.3777,82.3698 18.0443,81.7031 16.5,81.5C 15.1667,80.8333 14.1667,79.8333 13.5,78.5C 14.6491,78.2089 15.3158,77.3756 15.5,76C 14.3005,71.1095 12.9672,66.2761 11.5,61.5C 12.2905,60.5987 13.2905,59.9321 14.5,59.5 Z"/></g>
<g><path style="opacity:1" fill="#dbeff3" d="M 76.5,76.5 C 77.0967,76.7352 77.4301,77.2352 77.5,78C 76.778,80.6774 75.778,83.1774 74.5,85.5C 69.6592,88.9195 64.3259,91.2528 58.5,92.5C 58.8333,91.8333 59.1667,91.1667 59.5,90.5C 60.675,90.719 61.675,90.3857 62.5,89.5C 65.8281,83.8425 70.4947,79.5092 76.5,76.5 Z"/></g>
<g><path style="opacity:1" fill="#80c8f3" d="M 53.5,75.5 C 55.1667,76.1667 56.8333,76.8333 58.5,77.5C 54.4642,80.1716 52.7975,83.8382 53.5,88.5C 52.6279,90.4496 51.9612,92.4496 51.5,94.5C 50.1667,94.5 48.8333,94.5 47.5,94.5C 47.3424,91.0977 47.6758,87.7644 48.5,84.5C 46.1667,83.8333 43.8333,83.1667 41.5,82.5C 44.1873,82.6641 46.854,82.4974 49.5,82C 50.5814,80.2894 50.248,78.7894 48.5,77.5C 50.1667,76.8333 51.8333,76.1667 53.5,75.5 Z"/></g>
<g><path style="opacity:1" fill="#65bbf5" d="M 48.5,84.5 C 47.6758,87.7644 47.3424,91.0977 47.5,94.5C 45.1667,94.5 42.8333,94.5 40.5,94.5C 40.5,91.1667 40.5,87.8333 40.5,84.5C 43.1667,84.5 45.8333,84.5 48.5,84.5 Z"/></g>
<g><path style="opacity:1" fill="#a2d7f4" d="M 58.5,77.5 C 60.5,77.5 62.5,77.5 64.5,77.5C 65.2389,77.369 65.9056,77.5357 66.5,78C 61.3476,80.5233 59.0142,84.6899 59.5,90.5C 59.1667,91.1667 58.8333,91.8333 58.5,92.5C 56.5214,94.1675 54.188,94.8342 51.5,94.5C 51.9612,92.4496 52.6279,90.4496 53.5,88.5C 52.7975,83.8382 54.4642,80.1716 58.5,77.5 Z"/></g>
</svg>
