<?xml version="1.0" encoding="UTF-8"?>
<!DOCTYPE svg PUBLIC "-//W3C//DTD SVG 1.1//EN" "http://www.w3.org/Graphics/SVG/1.1/DTD/svg11.dtd">
<svg xmlns="http://www.w3.org/2000/svg" version="1.1" width="96px" height="96px" style="shape-rendering:geometricPrecision; text-rendering:geometricPrecision; image-rendering:optimizeQuality; fill-rule:evenodd; clip-rule:evenodd" xmlns:xlink="http://www.w3.org/1999/xlink">
<g><path style="opacity:0.998" fill="#262525" d="M -0.5,-0.5 C 31.5,-0.5 63.5,-0.5 95.5,-0.5C 95.5,31.5 95.5,63.5 95.5,95.5C 63.5,95.5 31.5,95.5 -0.5,95.5C -0.5,63.5 -0.5,31.5 -0.5,-0.5 Z"/></g>
<g><path style="opacity:1" fill="#02c663" d="M 14.5,24.5 C 17.6399,38.069 26.3066,43.569 40.5,41C 41.5248,43.0715 42.3581,45.2381 43,47.5C 43.414,47.0426 43.914,46.7093 44.5,46.5C 45.5,47.8333 46.5,49.1667 47.5,50.5C 48.316,48.7127 49.316,47.0461 50.5,45.5C 51.086,45.7093 51.586,46.0426 52,46.5C 52.8372,44.6494 53.6705,42.8161 54.5,41C 61.5094,41.1977 68.1761,39.8643 74.5,37C 77.4897,33.3718 79.3231,29.2051 80,24.5C 83.3057,32.9498 81.4724,40.1164 74.5,46C 69.8442,48.4074 65.0108,50.2408 60,51.5C 58.254,55.3267 56.254,58.9934 54,62.5C 53.8568,66.6192 53.1901,70.6192 52,74.5C 47.8821,77.5921 44.5488,76.9255 42,72.5C 41.7537,63.8326 38.587,56.3326 32.5,50C 17.3077,47.9759 11.3077,39.4759 14.5,24.5 Z"/></g>
</svg>
