<?xml version="1.0" encoding="UTF-8"?>
<!DOCTYPE svg PUBLIC "-//W3C//DTD SVG 1.1//EN" "http://www.w3.org/Graphics/SVG/1.1/DTD/svg11.dtd">
<svg xmlns="http://www.w3.org/2000/svg" version="1.1" width="96px" height="96px" style="shape-rendering:geometricPrecision; text-rendering:geometricPrecision; image-rendering:optimizeQuality; fill-rule:evenodd; clip-rule:evenodd" xmlns:xlink="http://www.w3.org/1999/xlink">
<g><path style="opacity:0.992" fill="#fdfcfe" d="M -0.5,-0.5 C 12.5,-0.5 25.5,-0.5 38.5,-0.5C 18.5,5.5 5.5,18.5 -0.5,38.5C -0.5,25.5 -0.5,12.5 -0.5,-0.5 Z"/></g>
<g><path style="opacity:1" fill="#7a5bf1" d="M 38.5,-0.5 C 44.1667,-0.5 49.8333,-0.5 55.5,-0.5C 76.0683,5.06817 89.4016,18.0682 95.5,38.5C 95.5,43.1667 95.5,47.8333 95.5,52.5C 91.1895,75.1463 77.8562,89.4797 55.5,95.5C 49.8333,95.5 44.1667,95.5 38.5,95.5C 18.0948,89.4277 5.09483,76.0944 -0.5,55.5C -0.5,49.8333 -0.5,44.1667 -0.5,38.5C 5.5,18.5 18.5,5.5 38.5,-0.5 Z"/></g>
<g><path style="opacity:0.992" fill="#fcfcfe" d="M 55.5,-0.5 C 68.8333,-0.5 82.1667,-0.5 95.5,-0.5C 95.5,12.5 95.5,25.5 95.5,38.5C 89.4016,18.0682 76.0683,5.06817 55.5,-0.5 Z"/></g>
<g><path style="opacity:1" fill="#fcfbfe" d="M 70.5,15.5 C 75.1585,15.0146 76.4919,16.848 74.5,21C 67.2043,22.2301 66.0377,25.3967 71,30.5C 71.6667,31.8333 71.6667,33.1667 71,34.5C 67.9908,37.177 65.3242,40.177 63,43.5C 62.3333,45.1667 62.3333,46.8333 63,48.5C 69.657,59.3678 67.157,67.2011 55.5,72C 46.4021,75.1522 37.0688,76.1522 27.5,75C 21.6368,73.1714 19.1368,69.338 20,63.5C 21.214,61.9512 22.714,60.7845 24.5,60C 38.8127,60.686 45.3127,53.8527 44,39.5C 48.0889,30.0409 55.2556,24.8743 65.5,24C 68.0767,21.6769 69.7433,18.8435 70.5,15.5 Z"/></g>
<g><path style="opacity:0.992" fill="#fdfcfe" d="M -0.5,55.5 C 5.09483,76.0944 18.0948,89.4277 38.5,95.5C 25.5,95.5 12.5,95.5 -0.5,95.5C -0.5,82.1667 -0.5,68.8333 -0.5,55.5 Z"/></g>
<g><path style="opacity:0.992" fill="#fcfbfe" d="M 95.5,52.5 C 95.5,66.8333 95.5,81.1667 95.5,95.5C 82.1667,95.5 68.8333,95.5 55.5,95.5C 77.8562,89.4797 91.1895,75.1463 95.5,52.5 Z"/></g>
</svg>
