<?xml version="1.0" encoding="UTF-8"?>
<!DOCTYPE svg PUBLIC "-//W3C//DTD SVG 1.1//EN" "http://www.w3.org/Graphics/SVG/1.1/DTD/svg11.dtd">
<svg xmlns="http://www.w3.org/2000/svg" version="1.1" width="96px" height="96px" style="shape-rendering:geometricPrecision; text-rendering:geometricPrecision; image-rendering:optimizeQuality; fill-rule:evenodd; clip-rule:evenodd" xmlns:xlink="http://www.w3.org/1999/xlink">
<g><path style="opacity:0.994" fill="#012e33" d="M 37.5,-0.5 C 44.1667,-0.5 50.8333,-0.5 57.5,-0.5C 77.1667,5.16667 89.8333,17.8333 95.5,37.5C 95.5,44.1667 95.5,50.8333 95.5,57.5C 89.8333,77.1667 77.1667,89.8333 57.5,95.5C 50.8333,95.5 44.1667,95.5 37.5,95.5C 17.8333,89.8333 5.16667,77.1667 -0.5,57.5C -0.5,50.8333 -0.5,44.1667 -0.5,37.5C 5.16667,17.8333 17.8333,5.16667 37.5,-0.5 Z"/></g>
<g><path style="opacity:1" fill="#ccf4ed" d="M 41.5,29.5 C 50.5584,27.5695 57.7251,30.2362 63,37.5C 64.128,39.3453 64.628,41.3453 64.5,43.5C 67.1873,43.3359 69.854,43.5026 72.5,44C 71.7402,45.4411 71.0736,46.9411 70.5,48.5C 59.8541,49.4987 49.1874,49.832 38.5,49.5C 39.7492,56.803 44.0826,59.6363 51.5,58C 53.9087,57.2521 56.0754,56.0855 58,54.5C 64.533,56.3778 65.033,59.2112 59.5,63C 44.3313,69.5779 34.3313,65.0779 29.5,49.5C 27.1667,49.5 24.8333,49.5 22.5,49.5C 22.5,47.5 22.5,45.5 22.5,43.5C 25.1667,43.5 27.8333,43.5 30.5,43.5C 31.9404,37.0622 35.607,32.3956 41.5,29.5 Z"/></g>
<g><path style="opacity:1" fill="#0e3136" d="M 52.5,37.5 C 52.0618,37.4346 51.7284,37.6012 51.5,38C 52.5,39 53.5,40 54.5,41C 49.8333,41.6667 45.1667,41.6667 40.5,41C 41.5,40 42.5,39 43.5,38C 43.2716,37.6012 42.9382,37.4346 42.5,37.5C 45.7988,34.9544 49.1322,34.9544 52.5,37.5 Z"/></g>
<g><path style="opacity:1" fill="#030e15" d="M 42.5,37.5 C 42.9382,37.4346 43.2716,37.6012 43.5,38C 42.5,39 41.5,40 40.5,41C 45.1667,41.6667 49.8333,41.6667 54.5,41C 53.5,40 52.5,39 51.5,38C 51.7284,37.6012 52.0618,37.4346 52.5,37.5C 54.2624,38.2623 55.2624,39.5956 55.5,41.5C 50.0247,42.4889 44.358,42.8222 38.5,42.5C 39.1237,40.246 40.457,38.5794 42.5,37.5 Z"/></g>
<g><path style="opacity:1" fill="#435c5f" d="M 55.5,41.5 C 56.0431,41.56 56.3764,41.8933 56.5,42.5C 50.3456,43.8166 44.3456,43.8166 38.5,42.5C 44.358,42.8222 50.0247,42.4889 55.5,41.5 Z"/></g>
</svg>
