<?xml version="1.0" encoding="UTF-8"?>
<!DOCTYPE svg PUBLIC "-//W3C//DTD SVG 1.1//EN" "http://www.w3.org/Graphics/SVG/1.1/DTD/svg11.dtd">
<svg xmlns="http://www.w3.org/2000/svg" version="1.1" width="96px" height="96px" style="shape-rendering:geometricPrecision; text-rendering:geometricPrecision; image-rendering:optimizeQuality; fill-rule:evenodd; clip-rule:evenodd" xmlns:xlink="http://www.w3.org/1999/xlink">
<g><path style="opacity:0.996" fill="#ebe9dc" d="M 37.5,-0.5 C 44.1667,-0.5 50.8333,-0.5 57.5,-0.5C 77.6124,5.27864 90.279,18.2786 95.5,38.5C 95.5,44.5 95.5,50.5 95.5,56.5C 90.1755,77.1579 77.1755,90.1579 56.5,95.5C 50.5,95.5 44.5,95.5 38.5,95.5C 18.2662,90.2663 5.26618,77.5996 -0.5,57.5C -0.5,50.8333 -0.5,44.1667 -0.5,37.5C 5.16667,17.8333 17.8333,5.16667 37.5,-0.5 Z"/></g>
<g><path style="opacity:1" fill="#d0ac4c" d="M 46.5,18.5 C 46.5,37.8333 46.5,57.1667 46.5,76.5C 44.8333,76.5 43.1667,76.5 41.5,76.5C 41.6657,72.1539 41.499,67.8206 41,63.5C 39,62.5 39,61.5 41,60.5C 42.0235,55.9016 41.5235,51.5683 39.5,47.5C 41.5122,43.4083 42.0122,39.075 41,34.5C 39,33.5 39,32.5 41,31.5C 41.499,27.1794 41.6657,22.8461 41.5,18.5C 43.1667,18.5 44.8333,18.5 46.5,18.5 Z"/></g>
<g><path style="opacity:1" fill="#e4c96c" d="M 46.5,18.5 C 48.5,18.5 50.5,18.5 52.5,18.5C 52.3343,22.8461 52.501,27.1794 53,31.5C 55,32.5 55,33.5 53,34.5C 51.9878,39.075 52.4878,43.4083 54.5,47.5C 52.4765,51.5683 51.9765,55.9016 53,60.5C 55,61.5 55,62.5 53,63.5C 52.501,67.8206 52.3343,72.1539 52.5,76.5C 50.5,76.5 48.5,76.5 46.5,76.5C 46.5,57.1667 46.5,37.8333 46.5,18.5 Z"/></g>
<g><path style="opacity:1" fill="#44a541" d="M 20.5,33.5 C 29.4215,33.084 35.4215,37.084 38.5,45.5C 29.2139,46.5185 23.2139,42.5185 20.5,33.5 Z"/></g>
<g><path style="opacity:1" fill="#2f8832" d="M 33.5,48.5 C 35.1992,48.3398 36.8659,48.5065 38.5,49C 36.4799,52.7149 33.4799,54.0482 29.5,53C 31.0414,51.6288 32.3747,50.1288 33.5,48.5 Z"/></g>
<g><path style="opacity:1" fill="#539850" d="M 58.5,58.5 C 62.0361,58.9381 61.8694,59.9381 58,61.5C 57.5,61.1667 57,60.8333 56.5,60.5C 57.2427,59.8182 57.9094,59.1515 58.5,58.5 Z"/></g>
<g><path style="opacity:1" fill="#42a43e" d="M 56.5,63.5 C 62.0283,62.9157 65.3617,65.2491 66.5,70.5C 61.4181,70.6284 58.0847,68.2951 56.5,63.5 Z"/></g>
</svg>
