<?xml version="1.0" encoding="UTF-8"?>
<!DOCTYPE svg PUBLIC "-//W3C//DTD SVG 1.1//EN" "http://www.w3.org/Graphics/SVG/1.1/DTD/svg11.dtd">
<svg xmlns="http://www.w3.org/2000/svg" version="1.1" width="96px" height="96px" style="shape-rendering:geometricPrecision; text-rendering:geometricPrecision; image-rendering:optimizeQuality; fill-rule:evenodd; clip-rule:evenodd" xmlns:xlink="http://www.w3.org/1999/xlink">
<g><path style="opacity:0.985" fill="#da3636" d="M 37.5,-0.5 C 44.1667,-0.5 50.8333,-0.5 57.5,-0.5C 77.1667,5.16667 89.8333,17.8333 95.5,37.5C 95.5,44.1667 95.5,50.8333 95.5,57.5C 89.8333,77.1667 77.1667,89.8333 57.5,95.5C 50.8333,95.5 44.1667,95.5 37.5,95.5C 17.8333,89.8333 5.16667,77.1667 -0.5,57.5C -0.5,50.8333 -0.5,44.1667 -0.5,37.5C 5.16667,17.8333 17.8333,5.16667 37.5,-0.5 Z"/></g>
<g><path style="opacity:1" fill="#fcf6f6" d="M 24.5,23.5 C 27.5,23.5 30.5,23.5 33.5,23.5C 34.8657,28.573 36.5324,33.573 38.5,38.5C 44.5,39.8333 50.5,39.8333 56.5,38.5C 58.4676,33.573 60.1343,28.573 61.5,23.5C 64.5,23.5 67.5,23.5 70.5,23.5C 70.5,28.8333 70.5,34.1667 70.5,39.5C 72.8333,39.5 75.1667,39.5 77.5,39.5C 77.5,40.5 77.5,41.5 77.5,42.5C 75.1667,42.5 72.8333,42.5 70.5,42.5C 70.5,45.8333 70.5,49.1667 70.5,52.5C 72.8333,52.5 75.1667,52.5 77.5,52.5C 77.5,53.5 77.5,54.5 77.5,55.5C 75.1667,55.5 72.8333,55.5 70.5,55.5C 70.5,60.8333 70.5,66.1667 70.5,71.5C 68.5,71.5 66.5,71.5 64.5,71.5C 64.5,66.1667 64.5,60.8333 64.5,55.5C 61.4281,55.1826 58.4281,55.5159 55.5,56.5C 53.5324,61.427 51.8657,66.427 50.5,71.5C 48.5,71.5 46.5,71.5 44.5,71.5C 43.4379,66.3137 41.7712,61.3137 39.5,56.5C 36.5719,55.5159 33.5719,55.1826 30.5,55.5C 30.5,60.8333 30.5,66.1667 30.5,71.5C 28.5,71.5 26.5,71.5 24.5,71.5C 24.5,66.1667 24.5,60.8333 24.5,55.5C 22.1667,55.5 19.8333,55.5 17.5,55.5C 17.5,54.5 17.5,53.5 17.5,52.5C 19.8333,52.5 22.1667,52.5 24.5,52.5C 24.5,49.1667 24.5,45.8333 24.5,42.5C 22.1667,42.5 19.8333,42.5 17.5,42.5C 17.5,41.5 17.5,40.5 17.5,39.5C 19.8333,39.5 22.1667,39.5 24.5,39.5C 24.5,34.1667 24.5,28.8333 24.5,23.5 Z"/></g>
<g><path style="opacity:1" fill="#c7312e" d="M 30.5,33.5 C 32.4233,35.2014 32.7567,37.2014 31.5,39.5C 30.5344,37.604 30.2011,35.604 30.5,33.5 Z"/></g>
<g><path style="opacity:1" fill="#c7312d" d="M 63.5,33.5 C 64.7928,35.3635 64.7928,37.3635 63.5,39.5C 62.4808,37.5405 62.4808,35.5405 63.5,33.5 Z"/></g>
<g><path style="opacity:1" fill="#e7babc" d="M 34.5,43.5 C 33.1667,43.5 31.8333,43.5 30.5,43.5C 30.5,46.5 30.5,49.5 30.5,52.5C 29.5206,49.3752 29.1872,46.0419 29.5,42.5C 31.4147,42.2155 33.0813,42.5489 34.5,43.5 Z"/></g>
<g><path style="opacity:1" fill="#d63d3a" d="M 40.5,42.5 C 45.1667,42.5 49.8333,42.5 54.5,42.5C 54.5611,47.768 52.2277,51.1014 47.5,52.5C 46.1667,52.1667 44.8333,51.8333 43.5,51.5C 42.199,48.5729 41.199,45.5729 40.5,42.5 Z"/></g>
<g><path style="opacity:1" fill="#e7babb" d="M 60.5,43.5 C 61.9187,42.5489 63.5853,42.2155 65.5,42.5C 65.8128,46.0419 65.4794,49.3752 64.5,52.5C 64.5,49.5 64.5,46.5 64.5,43.5C 63.1667,43.5 61.8333,43.5 60.5,43.5 Z"/></g>
<g><path style="opacity:1" fill="#d63634" d="M 34.5,43.5 C 36.0719,46.2154 37.0719,49.2154 37.5,52.5C 35.1667,52.5 32.8333,52.5 30.5,52.5C 30.5,49.5 30.5,46.5 30.5,43.5C 31.8333,43.5 33.1667,43.5 34.5,43.5 Z"/></g>
<g><path style="opacity:1" fill="#d43331" d="M 60.5,43.5 C 61.8333,43.5 63.1667,43.5 64.5,43.5C 64.5,46.5 64.5,49.5 64.5,52.5C 62.1667,52.5 59.8333,52.5 57.5,52.5C 57.9281,49.2154 58.9281,46.2154 60.5,43.5 Z"/></g>
<g><path style="opacity:1" fill="#d34641" d="M 44.5,55.5 C 46.604,55.2011 48.604,55.5344 50.5,56.5C 48.0343,64.2673 46.0343,63.934 44.5,55.5 Z"/></g>
</svg>
