<?xml version="1.0" encoding="UTF-8"?>
<!DOCTYPE svg PUBLIC "-//W3C//DTD SVG 1.1//EN" "http://www.w3.org/Graphics/SVG/1.1/DTD/svg11.dtd">
<svg xmlns="http://www.w3.org/2000/svg" version="1.1" width="96px" height="96px" style="shape-rendering:geometricPrecision; text-rendering:geometricPrecision; image-rendering:optimizeQuality; fill-rule:evenodd; clip-rule:evenodd" xmlns:xlink="http://www.w3.org/1999/xlink">
<g><path style="opacity:1" fill="#2f1b4a" d="M 72.5,13.5 C 74.5,17.5 77.5,20.5 81.5,22.5C 81.3291,24.9928 82.3291,26.8261 84.5,28C 84.2716,28.3988 83.9382,28.5654 83.5,28.5C 82.8333,28.5 82.5,28.8333 82.5,29.5C 81.0787,26.9906 79.4121,24.6572 77.5,22.5C 73.9271,16.8221 69.2604,13.4887 63.5,12.5C 60.2509,10.4655 56.7509,8.79882 53,7.5C 48.2633,8.46918 43.43,8.80251 38.5,8.5C 40.2922,7.69088 42.2922,7.19088 44.5,7C 42.1902,6.50335 39.8568,6.33669 37.5,6.5C 50.2707,2.74395 61.9374,5.07729 72.5,13.5 Z"/></g>
<g><path style="opacity:1" fill="#141220" d="M 72.5,13.5 C 76.5216,15.5216 79.5216,18.5216 81.5,22.5C 77.5,20.5 74.5,17.5 72.5,13.5 Z"/></g>
<g><path style="opacity:1" fill="#8363a8" d="M 37.5,6.5 C 39.8568,6.33669 42.1902,6.50335 44.5,7C 42.2922,7.19088 40.2922,7.69088 38.5,8.5C 27.3259,11.0271 18.6593,17.0271 12.5,26.5C 11.8333,26.8333 11.1667,27.1667 10.5,27.5C 16.2315,16.449 25.2315,9.44903 37.5,6.5 Z"/></g>
<g><path style="opacity:1" fill="#161616" d="M 47.5,9.5 C 47.8333,9.5 48.1667,9.5 48.5,9.5C 48.5,11.8333 48.5,14.1667 48.5,16.5C 51.6249,16.8647 54.6249,17.698 57.5,19C 55.6031,20.1097 53.7698,20.2764 52,19.5C 51.3162,20.7839 51.4829,21.9505 52.5,23C 54.5183,23.5046 56.5183,24.0046 58.5,24.5C 58.1583,25.3382 57.4916,25.6716 56.5,25.5C 54.8828,24.962 53.2161,24.6287 51.5,24.5C 51.1583,23.6618 50.4916,23.3284 49.5,23.5C 46.6946,22.6805 43.6946,22.1805 40.5,22C 41.9561,21.5774 42.4561,20.7441 42,19.5C 39.9588,19.3573 37.7921,19.6906 35.5,20.5C 31.7344,17.8005 31.7344,15.3005 35.5,13C 39.9371,12.4834 43.9371,11.3167 47.5,9.5 Z"/></g>
<g><path style="opacity:1" fill="#181818" d="M 48.5,9.5 C 53.4394,9.52437 57.9394,10.8577 62,13.5C 62.3826,12.944 62.8826,12.6107 63.5,12.5C 69.2604,13.4887 73.9271,16.8221 77.5,22.5C 74.9249,21.2716 72.5916,19.6049 70.5,17.5C 70.1667,17.6667 69.8333,17.8333 69.5,18C 70.8333,19.3333 72.1667,20.6667 73.5,22C 72.646,23.0217 71.646,23.8551 70.5,24.5C 65.8106,21.8474 65.4772,22.3474 69.5,26C 68.0039,26.5074 66.8373,26.0074 66,24.5C 65.6667,24.8333 65.3333,25.1667 65,25.5C 64.155,22.8153 62.3216,21.1486 59.5,20.5C 58.5713,21.6888 58.238,23.0222 58.5,24.5C 56.5183,24.0046 54.5183,23.5046 52.5,23C 51.4829,21.9505 51.3162,20.7839 52,19.5C 53.7698,20.2764 55.6031,20.1097 57.5,19C 54.6249,17.698 51.6249,16.8647 48.5,16.5C 48.5,14.1667 48.5,11.8333 48.5,9.5 Z"/></g>
<g><path style="opacity:1" fill="#131116" d="M 63.5,12.5 C 62.8826,12.6107 62.3826,12.944 62,13.5C 57.9394,10.8577 53.4394,9.52437 48.5,9.5C 48.1667,9.5 47.8333,9.5 47.5,9.5C 41.2142,9.97934 34.8809,11.3127 28.5,13.5C 27.6184,14.7598 26.6184,15.9264 25.5,17C 26.549,17.4922 27.549,17.3256 28.5,16.5C 29.8876,17.5909 30.3876,18.9242 30,20.5C 28.1847,22.4049 26.1847,24.0716 24,25.5C 20.7927,22.8498 20.2927,23.0165 22.5,26C 20.6992,26.3173 20.3659,26.984 21.5,28C 19.5795,29.1223 17.5795,29.9556 15.5,30.5C 16.0283,29.2794 16.695,28.1127 17.5,27C 17.1667,26.8333 16.8333,26.6667 16.5,26.5C 15.7174,28.2882 14.3841,29.2882 12.5,29.5C 12.5,29.1667 12.5,28.8333 12.5,28.5C 12.5,27.8333 12.5,27.1667 12.5,26.5C 18.6593,17.0271 27.3259,11.0271 38.5,8.5C 43.43,8.80251 48.2633,8.46918 53,7.5C 56.7509,8.79882 60.2509,10.4655 63.5,12.5 Z"/></g>
<g><path style="opacity:1" fill="#1e1e1e" d="M 47.5,9.5 C 43.9371,11.3167 39.9371,12.4834 35.5,13C 31.7344,15.3005 31.7344,17.8005 35.5,20.5C 37.7921,19.6906 39.9588,19.3573 42,19.5C 42.4561,20.7441 41.9561,21.5774 40.5,22C 43.6946,22.1805 46.6946,22.6805 49.5,23.5C 44.3938,24.7196 39.7272,27.053 35.5,30.5C 32.6454,27.689 31.9788,28.189 33.5,32C 32.6521,33.6664 31.6521,35.1664 30.5,36.5C 30.5,35.5 30.5,34.5 30.5,33.5C 28.7988,33.0338 27.2988,33.0338 26,33.5C 23.8963,29.2854 21.7297,28.9521 19.5,32.5C 18.0048,32.0113 16.6715,31.3446 15.5,30.5C 17.5795,29.9556 19.5795,29.1223 21.5,28C 20.3659,26.984 20.6992,26.3173 22.5,26C 20.2927,23.0165 20.7927,22.8498 24,25.5C 26.1847,24.0716 28.1847,22.4049 30,20.5C 30.3876,18.9242 29.8876,17.5909 28.5,16.5C 27.549,17.3256 26.549,17.4922 25.5,17C 26.6184,15.9264 27.6184,14.7598 28.5,13.5C 34.8809,11.3127 41.2142,9.97934 47.5,9.5 Z"/></g>
<g><path style="opacity:1" fill="#a469bb" d="M 49.5,23.5 C 50.4916,23.3284 51.1583,23.6618 51.5,24.5C 50.596,25.209 50.2627,26.209 50.5,27.5C 39.3013,28.3654 32.968,34.3654 31.5,45.5C 31.0269,46.9063 30.0269,47.573 28.5,47.5C 27.7611,47.631 27.0944,47.4643 26.5,47C 27.428,46.6121 28.0946,45.9454 28.5,45C 29.2331,42.1652 29.8997,39.3319 30.5,36.5C 31.6521,35.1664 32.6521,33.6664 33.5,32C 31.9788,28.189 32.6454,27.689 35.5,30.5C 39.7272,27.053 44.3938,24.7196 49.5,23.5 Z"/></g>
<g><path style="opacity:1" fill="#d8d2dd" d="M 12.5,26.5 C 12.5,27.1667 12.5,27.8333 12.5,28.5C 11.3263,29.5137 10.6596,30.847 10.5,32.5C 9.07546,34.0311 8.40879,33.6977 8.5,31.5C 8.6596,29.847 9.32627,28.5137 10.5,27.5C 11.1667,27.1667 11.8333,26.8333 12.5,26.5 Z"/></g>
<g><path style="opacity:1" fill="#ec13f4" d="M 58.5,28.5 C 59.3382,28.8417 59.6716,29.5084 59.5,30.5C 58.8333,30.5 58.5,30.8333 58.5,31.5C 54.6876,31.9311 54.6876,30.9311 58.5,28.5 Z"/></g>
<g><path style="opacity:1" fill="#8527be" d="M 12.5,28.5 C 12.5,28.8333 12.5,29.1667 12.5,29.5C 12.5,30.1667 12.5,30.8333 12.5,31.5C 11.8333,31.8333 11.1667,32.1667 10.5,32.5C 10.6596,30.847 11.3263,29.5137 12.5,28.5 Z"/></g>
<g><path style="opacity:1" fill="#585958" d="M 15.5,30.5 C 16.6715,31.3446 18.0048,32.0113 19.5,32.5C 20.2279,34.2909 21.2279,34.9576 22.5,34.5C 21.9094,35.1515 21.2427,35.8182 20.5,36.5C 23.3666,37.3399 25.5333,39.0065 27,41.5C 27.3826,40.944 27.8826,40.6107 28.5,40.5C 28.5386,41.7562 28.0386,42.7562 27,43.5C 24.913,42.2062 22.7463,41.0395 20.5,40C 19.6471,35.7758 18.6471,35.6091 17.5,39.5C 16.7924,37.6221 15.6257,35.9555 14,34.5C 13.2411,36.0629 12.0744,37.0629 10.5,37.5C 11.3627,35.5786 12.0293,33.5786 12.5,31.5C 12.5,30.8333 12.5,30.1667 12.5,29.5C 14.3841,29.2882 15.7174,28.2882 16.5,26.5C 16.8333,26.6667 17.1667,26.8333 17.5,27C 16.695,28.1127 16.0283,29.2794 15.5,30.5 Z"/></g>
<g><path style="opacity:1" fill="#511d81" d="M 83.5,28.5 C 86.4265,33.2707 87.7599,38.2707 87.5,43.5C 86.8182,42.7573 86.1515,42.0906 85.5,41.5C 85.316,37.2841 84.316,33.2841 82.5,29.5C 82.5,28.8333 82.8333,28.5 83.5,28.5 Z"/></g>
<g><path style="opacity:1" fill="#393a38" d="M 57.5,33.5 C 58.1894,34.7736 59.0228,34.7736 60,33.5C 60.9533,35.4552 62.2866,37.1218 64,38.5C 64.1218,40.1686 63.7885,41.8353 63,43.5C 60.0133,39.9002 56.8467,37.2335 53.5,35.5C 52.2054,36.0983 50.8721,36.5983 49.5,37C 51.6766,38.1861 52.6766,40.0194 52.5,42.5C 49.9179,42.0254 47.9179,42.6921 46.5,44.5C 43.9228,42.7991 41.0894,41.4658 38,40.5C 37.6174,41.056 37.1174,41.3893 36.5,41.5C 41.1479,32.5079 48.1479,29.8412 57.5,33.5 Z"/></g>
<g><path style="opacity:0.914" fill="#845aba" d="M 8.5,31.5 C 8.40879,33.6977 9.07546,34.0311 10.5,32.5C 7.99553,37.8172 6.99553,43.4838 7.5,49.5C 6.23532,48.4855 5.56865,46.9855 5.5,45C 5.72505,42.4719 6.05838,39.9719 6.5,37.5C 6.59495,35.2143 7.26162,33.2143 8.5,31.5 Z"/></g>
<g><path style="opacity:1" fill="#d2d2d2" d="M 22.5,34.5 C 26.3827,34.7507 28.3827,36.7507 28.5,40.5C 27.8826,40.6107 27.3826,40.944 27,41.5C 25.5333,39.0065 23.3666,37.3399 20.5,36.5C 21.2427,35.8182 21.9094,35.1515 22.5,34.5 Z"/></g>
<g><path style="opacity:0.57" fill="#0d0914" d="M 81.5,22.5 C 92.9654,37.0647 94.4654,52.7314 86,69.5C 70.6311,91.6206 50.7977,96.7873 26.5,85C 21.8659,82.1894 17.8659,78.6894 14.5,74.5C 15.552,74.3505 16.552,74.5172 17.5,75C 19.4412,77.4536 21.7746,79.287 24.5,80.5C 26.5066,82.8373 29.1733,84.1706 32.5,84.5C 43.519,89.9746 54.519,89.6413 65.5,83.5C 72.37,80.6325 77.7033,75.9659 81.5,69.5C 82.1667,68.8333 82.8333,68.1667 83.5,67.5C 85.6824,66.1767 86.3491,64.5101 85.5,62.5C 85.5,62.1667 85.5,61.8333 85.5,61.5C 87.738,55.9885 88.4046,50.3218 87.5,44.5C 86.8328,47.9773 86.1661,51.3107 85.5,54.5C 85.5,50.1667 85.5,45.8333 85.5,41.5C 86.1515,42.0906 86.8182,42.7573 87.5,43.5C 87.7599,38.2707 86.4265,33.2707 83.5,28.5C 83.9382,28.5654 84.2716,28.3988 84.5,28C 82.3291,26.8261 81.3291,24.9928 81.5,22.5 Z"/></g>
<g><path style="opacity:1" fill="#dfe1de" d="M 46.5,44.5 C 45.5707,45.3149 44.5707,46.1482 43.5,47C 44.0944,47.4643 44.7611,47.631 45.5,47.5C 46.2341,48.7079 46.5674,50.0413 46.5,51.5C 48.4832,51.1568 49.8166,51.8235 50.5,53.5C 49.1266,53.6567 47.7932,53.49 46.5,53C 44.0514,50.8077 41.718,48.641 39.5,46.5C 36.9162,45.9517 35.9162,44.285 36.5,41.5C 37.1174,41.3893 37.6174,41.056 38,40.5C 41.0894,41.4658 43.9228,42.7991 46.5,44.5 Z"/></g>
<g><path style="opacity:1" fill="#130819" d="M 12.5,31.5 C 12.0293,33.5786 11.3627,35.5786 10.5,37.5C 10.5,38.5 10.5,39.5 10.5,40.5C 11.552,40.3505 12.552,40.5172 13.5,41C 12.2341,41.3095 11.0674,41.8095 10,42.5C 9.50098,46.8206 9.33432,51.1539 9.5,55.5C 8.83333,53.8333 8.16667,52.1667 7.5,50.5C 7.5,50.1667 7.5,49.8333 7.5,49.5C 6.99553,43.4838 7.99553,37.8172 10.5,32.5C 11.1667,32.1667 11.8333,31.8333 12.5,31.5 Z"/></g>
<g><path style="opacity:1" fill="#222222" d="M 17.5,39.5 C 18.5735,40.2506 18.7401,41.2506 18,42.5C 17.6924,41.6919 17.1924,41.0253 16.5,40.5C 15.5091,44.4454 15.1758,48.4454 15.5,52.5C 13.8333,52.5 12.1667,52.5 10.5,52.5C 10.5,53.8333 10.5,55.1667 10.5,56.5C 14.0562,56.2749 14.3895,57.1082 11.5,59C 12.7078,62.5763 14.0411,66.0763 15.5,69.5C 14.5416,69.0472 13.7083,68.3805 13,67.5C 11.5226,63.5701 10.3559,59.5701 9.5,55.5C 9.33432,51.1539 9.50098,46.8206 10,42.5C 11.0674,41.8095 12.2341,41.3095 13.5,41C 12.552,40.5172 11.552,40.3505 10.5,40.5C 10.5,39.5 10.5,38.5 10.5,37.5C 12.0744,37.0629 13.2411,36.0629 14,34.5C 15.6257,35.9555 16.7924,37.6221 17.5,39.5 Z"/></g>
<g><path style="opacity:1" fill="#140d2b" d="M 36.5,41.5 C 35.9162,44.285 36.9162,45.9517 39.5,46.5C 37.31,47.3745 36.31,49.0411 36.5,51.5C 36.0398,48.2705 36.0398,44.9371 36.5,41.5 Z"/></g>
<g><path style="opacity:1" fill="#4a3e72" d="M 52.5,42.5 C 51.0813,43.4511 49.4147,43.7845 47.5,43.5C 47.4729,45.1993 46.8062,46.5326 45.5,47.5C 44.7611,47.631 44.0944,47.4643 43.5,47C 44.5707,46.1482 45.5707,45.3149 46.5,44.5C 47.9179,42.6921 49.9179,42.0254 52.5,42.5 Z"/></g>
<g><path style="opacity:1" fill="#39393b" d="M 30.5,36.5 C 29.8997,39.3319 29.2331,42.1652 28.5,45C 28.0946,45.9454 27.428,46.6121 26.5,47C 27.0944,47.4643 27.7611,47.631 28.5,47.5C 28.8333,50.1667 29.1667,52.8333 29.5,55.5C 28.0762,53.4855 27.4095,51.1522 27.5,48.5C 25.2341,48.8588 23.4007,48.1922 22,46.5C 21.3333,49.1667 20.6667,49.1667 20,46.5C 18.3364,49.2893 18.1698,52.1227 19.5,55C 18.1667,55 16.8333,55 15.5,55C 16.2524,55.6708 16.5858,56.5041 16.5,57.5C 15.1301,57.8565 14.1301,58.6898 13.5,60C 14.2232,64.5861 16.5565,67.9194 20.5,70C 19.944,70.3826 19.6107,70.8826 19.5,71.5C 20.7536,74.0934 22.4202,76.4268 24.5,78.5C 21.2327,76.5727 18.2327,74.2394 15.5,71.5C 15.5,70.8333 15.5,70.1667 15.5,69.5C 14.0411,66.0763 12.7078,62.5763 11.5,59C 14.3895,57.1082 14.0562,56.2749 10.5,56.5C 10.5,55.1667 10.5,53.8333 10.5,52.5C 12.1667,52.5 13.8333,52.5 15.5,52.5C 15.1758,48.4454 15.5091,44.4454 16.5,40.5C 17.1924,41.0253 17.6924,41.6919 18,42.5C 18.7401,41.2506 18.5735,40.2506 17.5,39.5C 18.6471,35.6091 19.6471,35.7758 20.5,40C 22.7463,41.0395 24.913,42.2062 27,43.5C 28.0386,42.7562 28.5386,41.7562 28.5,40.5C 28.3827,36.7507 26.3827,34.7507 22.5,34.5C 21.2279,34.9576 20.2279,34.2909 19.5,32.5C 21.7297,28.9521 23.8963,29.2854 26,33.5C 27.2988,33.0338 28.7988,33.0338 30.5,33.5C 30.5,34.5 30.5,35.5 30.5,36.5 Z"/></g>
<g><path style="opacity:1" fill="#1d1d1d" d="M 77.5,22.5 C 79.4121,24.6572 81.0787,26.9906 82.5,29.5C 84.316,33.2841 85.316,37.2841 85.5,41.5C 85.5,45.8333 85.5,50.1667 85.5,54.5C 85.0074,56.8056 84.6741,59.139 84.5,61.5C 84.1667,61.5 83.8333,61.5 83.5,61.5C 83.6441,55.6292 82.9774,55.2958 81.5,60.5C 81.5,61.1667 81.1667,61.5 80.5,61.5C 79.4591,58.9058 78.1257,56.4058 76.5,54C 76.6667,53.5 76.8333,53 77,52.5C 78.4659,54.3249 80.2992,54.8249 82.5,54C 81.5,53.6667 80.5,53.3333 79.5,53C 86.1344,52.1768 86.1344,51.6768 79.5,51.5C 79.8204,48.1016 79.487,44.7683 78.5,41.5C 78.5874,44.3873 78.254,47.3873 77.5,50.5C 76.7379,49.3717 76.0712,48.2051 75.5,47C 76.6023,44.5991 76.769,42.0991 76,39.5C 75.2276,38.1509 74.0609,37.3176 72.5,37C 73.1667,36.6667 73.8333,36.3333 74.5,36C 72.4411,34.1482 70.2745,32.9816 68,32.5C 67.6924,33.3081 67.1924,33.9747 66.5,34.5C 65.1072,33.1369 63.4405,32.3036 61.5,32C 61.8333,31.6667 62.1667,31.3333 62.5,31C 61.552,30.5172 60.552,30.3505 59.5,30.5C 59.6716,29.5084 59.3382,28.8417 58.5,28.5C 58.2178,27.2223 57.5511,26.2223 56.5,25.5C 57.4916,25.6716 58.1583,25.3382 58.5,24.5C 58.238,23.0222 58.5713,21.6888 59.5,20.5C 62.3216,21.1486 64.155,22.8153 65,25.5C 65.3333,25.1667 65.6667,24.8333 66,24.5C 66.8373,26.0074 68.0039,26.5074 69.5,26C 65.4772,22.3474 65.8106,21.8474 70.5,24.5C 71.646,23.8551 72.646,23.0217 73.5,22C 72.1667,20.6667 70.8333,19.3333 69.5,18C 69.8333,17.8333 70.1667,17.6667 70.5,17.5C 72.5916,19.6049 74.9249,21.2716 77.5,22.5 Z"/></g>
<g><path style="opacity:1" fill="#c36aeb" d="M 52.5,42.5 C 52.8333,42.5 53.1667,42.5 53.5,42.5C 53.5,43.5 53.5,44.5 53.5,45.5C 52.448,45.3505 51.448,45.5172 50.5,46C 50.0257,47.7286 49.0257,48.8953 47.5,49.5C 47.5,48.1667 46.8333,47.5 45.5,47.5C 46.8062,46.5326 47.4729,45.1993 47.5,43.5C 49.4147,43.7845 51.0813,43.4511 52.5,42.5 Z"/></g>
<g><path style="opacity:0.431" fill="#2e2249" d="M 6.5,37.5 C 6.05838,39.9719 5.72505,42.4719 5.5,45C 5.56865,46.9855 6.23532,48.4855 7.5,49.5C 7.5,49.8333 7.5,50.1667 7.5,50.5C 6.62356,50.3691 5.95689,50.7025 5.5,51.5C 6.34822,53.4086 6.68155,55.4086 6.5,57.5C 5.77842,57.0825 5.27842,56.4158 5,55.5C 4.33333,50.1667 4.33333,44.8333 5,39.5C 5.27842,38.5842 5.77842,37.9175 6.5,37.5 Z"/></g>
<g><path style="opacity:1" fill="#848584" d="M 80.5,61.5 C 81.1667,61.5 81.5,61.1667 81.5,60.5C 82.6289,62.6661 82.1289,64.6661 80,66.5C 79.5172,65.552 79.3505,64.552 79.5,63.5C 78.1667,63.5 76.8333,63.5 75.5,63.5C 76.9988,61.5471 76.6655,59.8804 74.5,58.5C 69.3233,56.0795 64.3233,53.4128 59.5,50.5C 59.3691,49.6236 59.7025,48.9569 60.5,48.5C 62.6179,49.9459 64.9512,50.6126 67.5,50.5C 67.281,51.675 67.6143,52.675 68.5,53.5C 70.7294,54.5771 73.0628,55.2437 75.5,55.5C 75.3505,56.552 75.5172,57.552 76,58.5C 76.3333,58.1667 76.6667,57.8333 77,57.5C 77.2602,59.6175 78.2602,61.2842 80,62.5C 80.3988,62.2716 80.5654,61.9382 80.5,61.5 Z"/></g>
<g><path style="opacity:1" fill="#323234" d="M 59.5,30.5 C 60.552,30.3505 61.552,30.5172 62.5,31C 62.1667,31.3333 61.8333,31.6667 61.5,32C 63.4405,32.3036 65.1072,33.1369 66.5,34.5C 67.1924,33.9747 67.6924,33.3081 68,32.5C 70.2745,32.9816 72.4411,34.1482 74.5,36C 73.8333,36.3333 73.1667,36.6667 72.5,37C 74.0609,37.3176 75.2276,38.1509 76,39.5C 76.769,42.0991 76.6023,44.5991 75.5,47C 76.0712,48.2051 76.7379,49.3717 77.5,50.5C 78.254,47.3873 78.5874,44.3873 78.5,41.5C 79.487,44.7683 79.8204,48.1016 79.5,51.5C 86.1344,51.6768 86.1344,52.1768 79.5,53C 80.5,53.3333 81.5,53.6667 82.5,54C 80.2992,54.8249 78.4659,54.3249 77,52.5C 76.8333,53 76.6667,53.5 76.5,54C 78.1257,56.4058 79.4591,58.9058 80.5,61.5C 80.5654,61.9382 80.3988,62.2716 80,62.5C 78.2602,61.2842 77.2602,59.6175 77,57.5C 76.6667,57.8333 76.3333,58.1667 76,58.5C 75.5172,57.552 75.3505,56.552 75.5,55.5C 73.0628,55.2437 70.7294,54.5771 68.5,53.5C 67.6143,52.675 67.281,51.675 67.5,50.5C 64.9512,50.6126 62.6179,49.9459 60.5,48.5C 59.7025,48.9569 59.3691,49.6236 59.5,50.5C 59.5,52.8333 59.5,55.1667 59.5,57.5C 59.5,61.1667 59.5,64.8333 59.5,68.5C 58.8348,65.1833 58.5014,61.6833 58.5,58C 58.5442,54.0688 59.2109,50.4022 60.5,47C 59.1859,46.015 58.1859,44.8484 57.5,43.5C 56.0413,43.5674 54.7079,43.2341 53.5,42.5C 53.1667,42.5 52.8333,42.5 52.5,42.5C 52.6766,40.0194 51.6766,38.1861 49.5,37C 50.8721,36.5983 52.2054,36.0983 53.5,35.5C 56.8467,37.2335 60.0133,39.9002 63,43.5C 63.7885,41.8353 64.1218,40.1686 64,38.5C 62.2866,37.1218 60.9533,35.4552 60,33.5C 59.0228,34.7736 58.1894,34.7736 57.5,33.5C 58.3382,33.1583 58.6716,32.4916 58.5,31.5C 58.5,30.8333 58.8333,30.5 59.5,30.5 Z"/></g>
<g><path style="opacity:1" fill="#6e1ac0" d="M 31.5,45.5 C 32.4045,47.6379 33.0711,49.9712 33.5,52.5C 33.7472,53.7133 34.4138,54.38 35.5,54.5C 34.075,55.922 33.075,57.5887 32.5,59.5C 31.5,58.1667 30.5,56.8333 29.5,55.5C 29.1667,52.8333 28.8333,50.1667 28.5,47.5C 30.0269,47.573 31.0269,46.9063 31.5,45.5 Z"/></g>
<g><path style="opacity:1" fill="#923ac9" d="M 85.5,61.5 C 85.1667,61.5 84.8333,61.5 84.5,61.5C 84.6741,59.139 85.0074,56.8056 85.5,54.5C 86.1661,51.3107 86.8328,47.9773 87.5,44.5C 88.4046,50.3218 87.738,55.9885 85.5,61.5 Z"/></g>
<g><path style="opacity:1" fill="#f3f3f2" d="M 59.5,50.5 C 64.3233,53.4128 69.3233,56.0795 74.5,58.5C 76.6655,59.8804 76.9988,61.5471 75.5,63.5C 75.1667,63.5 74.8333,63.5 74.5,63.5C 70.4516,60.4863 65.7849,58.4863 60.5,57.5C 60.1667,57.5 59.8333,57.5 59.5,57.5C 59.5,55.1667 59.5,52.8333 59.5,50.5 Z"/></g>
<g><path style="opacity:1" fill="#5e0b9c" d="M 51.5,24.5 C 53.2161,24.6287 54.8828,24.962 56.5,25.5C 57.5511,26.2223 58.2178,27.2223 58.5,28.5C 54.6876,30.9311 54.6876,31.9311 58.5,31.5C 58.6716,32.4916 58.3382,33.1583 57.5,33.5C 48.1479,29.8412 41.1479,32.5079 36.5,41.5C 36.0398,44.9371 36.0398,48.2705 36.5,51.5C 36.5569,52.609 36.8902,53.609 37.5,54.5C 36.8333,54.5 36.1667,54.5 35.5,54.5C 34.4138,54.38 33.7472,53.7133 33.5,52.5C 33.0711,49.9712 32.4045,47.6379 31.5,45.5C 32.968,34.3654 39.3013,28.3654 50.5,27.5C 50.2627,26.209 50.596,25.209 51.5,24.5 Z"/></g>
<g><path style="opacity:1" fill="#28254d" d="M 45.5,47.5 C 46.8333,47.5 47.5,48.1667 47.5,49.5C 48.8333,50.1667 50.1667,50.8333 51.5,51.5C 51.815,55.3714 51.4816,59.0381 50.5,62.5C 48.901,62.7678 47.5676,62.4345 46.5,61.5C 47.8333,61.5 49.1667,61.5 50.5,61.5C 50.5,58.8333 50.5,56.1667 50.5,53.5C 49.8166,51.8235 48.4832,51.1568 46.5,51.5C 46.5674,50.0413 46.2341,48.7079 45.5,47.5 Z"/></g>
<g><path style="opacity:1" fill="#6f706d" d="M 39.5,46.5 C 41.718,48.641 44.0514,50.8077 46.5,53C 47.7932,53.49 49.1266,53.6567 50.5,53.5C 50.5,56.1667 50.5,58.8333 50.5,61.5C 49.1667,61.5 47.8333,61.5 46.5,61.5C 42.6116,60.2748 39.6116,57.9415 37.5,54.5C 36.8902,53.609 36.5569,52.609 36.5,51.5C 36.31,49.0411 37.31,47.3745 39.5,46.5 Z"/></g>
<g><path style="opacity:1" fill="#ce7af8" d="M 51.5,51.5 C 52.7943,53.0478 53.4609,55.0478 53.5,57.5C 53.44,59.9212 53.1066,62.2545 52.5,64.5C 50.0065,64.8693 49.3398,64.2027 50.5,62.5C 51.4816,59.0381 51.815,55.3714 51.5,51.5 Z"/></g>
<g><path style="opacity:1" fill="#8424d7" d="M 53.5,42.5 C 54.7079,43.2341 56.0413,43.5674 57.5,43.5C 57.4678,51.0651 57.3011,58.7318 57,66.5C 54.992,69.1389 53.1587,69.1389 51.5,66.5C 52.8333,66.5 54.1667,66.5 55.5,66.5C 55.666,61.1563 55.4994,55.8229 55,50.5C 55.1138,55.6059 54.2805,60.2726 52.5,64.5C 53.1066,62.2545 53.44,59.9212 53.5,57.5C 53.4609,55.0478 52.7943,53.0478 51.5,51.5C 50.1667,50.8333 48.8333,50.1667 47.5,49.5C 49.0257,48.8953 50.0257,47.7286 50.5,46C 51.448,45.5172 52.448,45.3505 53.5,45.5C 53.5,44.5 53.5,43.5 53.5,42.5 Z"/></g>
<g><path style="opacity:1" fill="#f759ff" d="M 35.5,54.5 C 36.1667,54.5 36.8333,54.5 37.5,54.5C 36.9044,56.7454 35.9044,58.7454 34.5,60.5C 33.8333,60.5 33.1667,60.5 32.5,60.5C 32.5,60.1667 32.5,59.8333 32.5,59.5C 33.075,57.5887 34.075,55.922 35.5,54.5 Z"/></g>
<g><path style="opacity:1" fill="#949494" d="M 60.5,57.5 C 65.7849,58.4863 70.4516,60.4863 74.5,63.5C 74.631,64.2389 74.4643,64.9056 74,65.5C 73.6667,64.5 73.3333,63.5 73,62.5C 71.8545,63.6843 70.6879,63.6843 69.5,62.5C 67.1288,61.0088 64.4621,60.0088 61.5,59.5C 60.7025,59.0431 60.3691,58.3764 60.5,57.5 Z"/></g>
<g><path style="opacity:1" fill="#494949" d="M 29.5,55.5 C 30.5,56.8333 31.5,58.1667 32.5,59.5C 32.5,59.8333 32.5,60.1667 32.5,60.5C 32.5,61.1667 32.8333,61.5 33.5,61.5C 32.8333,63.1667 32.1667,64.8333 31.5,66.5C 31.0825,67.2216 30.4158,67.7216 29.5,68C 30.3366,69.0113 30.67,70.1779 30.5,71.5C 30.458,72.479 30.458,73.479 30.5,74.5C 27.3968,72.4356 24.3968,70.2689 21.5,68C 22.5719,66.7163 23.9052,66.3829 25.5,67C 24.1667,66 24.1667,65 25.5,64C 24.5509,63.3828 23.7175,63.5494 23,64.5C 21.6319,63.0069 21.4652,61.5069 22.5,60C 21.5838,59.6258 20.7504,59.1258 20,58.5C 19.8047,60.2072 19.8047,61.8739 20,63.5C 18.5415,61.5681 17.3748,59.5681 16.5,57.5C 16.5858,56.5041 16.2524,55.6708 15.5,55C 16.8333,55 18.1667,55 19.5,55C 18.1698,52.1227 18.3364,49.2893 20,46.5C 20.6667,49.1667 21.3333,49.1667 22,46.5C 23.4007,48.1922 25.2341,48.8588 27.5,48.5C 27.4095,51.1522 28.0762,53.4855 29.5,55.5 Z"/></g>
<g><path style="opacity:1" fill="#e9e2ed" d="M 83.5,61.5 C 83.8333,61.5 84.1667,61.5 84.5,61.5C 84.8333,61.5 85.1667,61.5 85.5,61.5C 85.5,61.8333 85.5,62.1667 85.5,62.5C 84.4625,63.9303 83.7959,65.597 83.5,67.5C 82.8333,68.1667 82.1667,68.8333 81.5,69.5C 81.1667,69.5 80.8333,69.5 80.5,69.5C 82.0435,67.0722 83.0435,64.4056 83.5,61.5 Z"/></g>
<g><path style="opacity:1" fill="#603b9a" d="M 33.5,61.5 C 35.3786,61.3932 35.7119,61.8932 34.5,63C 35.4158,63.2784 36.0825,63.7784 36.5,64.5C 34.7162,64.8925 33.0495,65.5592 31.5,66.5C 32.1667,64.8333 32.8333,63.1667 33.5,61.5 Z"/></g>
<g><path style="opacity:1" fill="#8e28ef" d="M 51.5,66.5 C 49.4727,66.6621 47.4727,66.4955 45.5,66C 41.7802,64.1401 38.1136,62.3068 34.5,60.5C 35.9044,58.7454 36.9044,56.7454 37.5,54.5C 39.6116,57.9415 42.6116,60.2748 46.5,61.5C 47.5676,62.4345 48.901,62.7678 50.5,62.5C 49.3398,64.2027 50.0065,64.8693 52.5,64.5C 54.2805,60.2726 55.1138,55.6059 55,50.5C 55.4994,55.8229 55.666,61.1563 55.5,66.5C 54.1667,66.5 52.8333,66.5 51.5,66.5 Z"/></g>
<g><path style="opacity:1" fill="#412567" d="M 7.5,50.5 C 8.16667,52.1667 8.83333,53.8333 9.5,55.5C 10.3559,59.5701 11.5226,63.5701 13,67.5C 13.7083,68.3805 14.5416,69.0472 15.5,69.5C 15.5,70.1667 15.5,70.8333 15.5,71.5C 14.1667,70.8333 12.8333,70.1667 11.5,69.5C 8.76326,66.0169 7.0966,62.0169 6.5,57.5C 6.68155,55.4086 6.34822,53.4086 5.5,51.5C 5.95689,50.7025 6.62356,50.3691 7.5,50.5 Z"/></g>
<g><path style="opacity:1" fill="#2e2e2e" d="M 16.5,57.5 C 17.3748,59.5681 18.5415,61.5681 20,63.5C 19.8047,61.8739 19.8047,60.2072 20,58.5C 20.7504,59.1258 21.5838,59.6258 22.5,60C 21.4652,61.5069 21.6319,63.0069 23,64.5C 23.7175,63.5494 24.5509,63.3828 25.5,64C 24.1667,65 24.1667,66 25.5,67C 23.9052,66.3829 22.5719,66.7163 21.5,68C 24.3968,70.2689 27.3968,72.4356 30.5,74.5C 30.458,73.479 30.458,72.479 30.5,71.5C 32.4714,72.8231 34.4714,74.1565 36.5,75.5C 35.7376,75.9106 34.7376,76.0773 33.5,76C 32.5399,77.4194 31.7065,78.9194 31,80.5C 30.935,78.1167 30.1017,77.45 28.5,78.5C 25.152,76.47 22.152,74.1367 19.5,71.5C 19.6107,70.8826 19.944,70.3826 20.5,70C 16.5565,67.9194 14.2232,64.5861 13.5,60C 14.1301,58.6898 15.1301,57.8565 16.5,57.5 Z"/></g>
<g><path style="opacity:0.973" fill="#693fb2" d="M 85.5,62.5 C 86.3491,64.5101 85.6824,66.1767 83.5,67.5C 83.7959,65.597 84.4625,63.9303 85.5,62.5 Z"/></g>
<g><path style="opacity:1" fill="#4a474b" d="M 83.5,61.5 C 83.0435,64.4056 82.0435,67.0722 80.5,69.5C 77.8605,72.8062 74.8605,75.8062 71.5,78.5C 72.5434,75.9438 74.2101,73.7772 76.5,72C 75.9056,71.5357 75.2389,71.369 74.5,71.5C 74.9175,70.7784 75.5842,70.2784 76.5,70C 74.2819,67.1977 71.6152,66.3644 68.5,67.5C 66.2988,67.1416 64.9655,65.8083 64.5,63.5C 66.1283,63.4214 67.7949,63.0881 69.5,62.5C 70.6879,63.6843 71.8545,63.6843 73,62.5C 73.3333,63.5 73.6667,64.5 74,65.5C 74.4643,64.9056 74.631,64.2389 74.5,63.5C 74.8333,63.5 75.1667,63.5 75.5,63.5C 76.8333,63.5 78.1667,63.5 79.5,63.5C 79.3505,64.552 79.5172,65.552 80,66.5C 82.1289,64.6661 82.6289,62.6661 81.5,60.5C 82.9774,55.2958 83.6441,55.6292 83.5,61.5 Z"/></g>
<g><path style="opacity:1" fill="#5a15bf" d="M 57.5,43.5 C 58.1859,44.8484 59.1859,46.015 60.5,47C 59.2109,50.4022 58.5442,54.0688 58.5,58C 58.5014,61.6833 58.8348,65.1833 59.5,68.5C 60.3029,69.4232 60.4696,70.4232 60,71.5C 57.226,69.4477 54.3927,69.1144 51.5,70.5C 45.926,69.8778 40.926,67.8778 36.5,64.5C 36.0825,63.7784 35.4158,63.2784 34.5,63C 35.7119,61.8932 35.3786,61.3932 33.5,61.5C 32.8333,61.5 32.5,61.1667 32.5,60.5C 33.1667,60.5 33.8333,60.5 34.5,60.5C 38.1136,62.3068 41.7802,64.1401 45.5,66C 47.4727,66.4955 49.4727,66.6621 51.5,66.5C 53.1587,69.1389 54.992,69.1389 57,66.5C 57.3011,58.7318 57.4678,51.0651 57.5,43.5 Z"/></g>
<g><path style="opacity:1" fill="#272140" d="M 11.5,69.5 C 12.8333,70.1667 14.1667,70.8333 15.5,71.5C 15.1667,72.1667 14.8333,72.8333 14.5,73.5C 13.0256,72.5637 12.0256,71.2303 11.5,69.5 Z"/></g>
<g><path style="opacity:1" fill="#282828" d="M 74.5,71.5 C 72.4985,74.3338 69.9985,76.6671 67,78.5C 66.6232,77.0577 65.7899,76.0577 64.5,75.5C 66.7706,73.7341 68.9373,71.7341 71,69.5C 71.6667,68.8333 71.6667,68.1667 71,67.5C 69.2599,69.9535 67.0933,71.4535 64.5,72C 65.1905,70.9326 65.6905,69.7659 66,68.5C 67.159,69.566 67.9924,69.2327 68.5,67.5C 71.6152,66.3644 74.2819,67.1977 76.5,70C 75.5842,70.2784 74.9175,70.7784 74.5,71.5 Z"/></g>
<g><path style="opacity:1" fill="#50227f" d="M 15.5,71.5 C 18.2327,74.2394 21.2327,76.5727 24.5,78.5C 24.5,79.1667 24.5,79.8333 24.5,80.5C 21.7746,79.287 19.4412,77.4536 17.5,75C 16.552,74.5172 15.552,74.3505 14.5,74.5C 14.5,74.1667 14.5,73.8333 14.5,73.5C 14.8333,72.8333 15.1667,72.1667 15.5,71.5 Z"/></g>
<g><path style="opacity:1" fill="#60615f" d="M 59.5,57.5 C 59.8333,57.5 60.1667,57.5 60.5,57.5C 60.3691,58.3764 60.7025,59.0431 61.5,59.5C 64.4621,60.0088 67.1288,61.0088 69.5,62.5C 67.7949,63.0881 66.1283,63.4214 64.5,63.5C 64.9655,65.8083 66.2988,67.1416 68.5,67.5C 67.9924,69.2327 67.159,69.566 66,68.5C 65.6905,69.7659 65.1905,70.9326 64.5,72C 67.0933,71.4535 69.2599,69.9535 71,67.5C 71.6667,68.1667 71.6667,68.8333 71,69.5C 68.9373,71.7341 66.7706,73.7341 64.5,75.5C 63.5041,75.4142 62.6708,75.7476 62,76.5C 61.6121,75.572 60.9454,74.9054 60,74.5C 58.2703,75.6493 56.6037,75.6493 55,74.5C 54.2276,75.8491 53.0609,76.6824 51.5,77C 54.5335,77.6601 57.3669,77.1601 60,75.5C 60.1667,75.8333 60.3333,76.1667 60.5,76.5C 57.6957,78.1014 54.6957,79.1014 51.5,79.5C 51.5,80.8333 51.5,82.1667 51.5,83.5C 53.1992,83.3398 54.8659,83.5065 56.5,84C 54.5273,84.4955 52.5273,84.6621 50.5,84.5C 50.6602,82.8008 50.4935,81.1341 50,79.5C 49.5045,81.4727 49.3379,83.4727 49.5,85.5C 45.1434,85.4135 40.81,85.0802 36.5,84.5C 35.2613,83.788 34.7613,82.788 35,81.5C 39.3171,83.1477 43.8171,83.8144 48.5,83.5C 48.8916,80.8543 48.8916,78.3543 48.5,76C 50.607,74.7365 51.607,72.9032 51.5,70.5C 54.3927,69.1144 57.226,69.4477 60,71.5C 60.4696,70.4232 60.3029,69.4232 59.5,68.5C 59.5,64.8333 59.5,61.1667 59.5,57.5 Z"/></g>
<g><path style="opacity:1" fill="#d7aedd" d="M 80.5,69.5 C 80.8333,69.5 81.1667,69.5 81.5,69.5C 77.7033,75.9659 72.37,80.6325 65.5,83.5C 65.5,83.1667 65.5,82.8333 65.5,82.5C 67.3492,81.407 69.0158,80.0737 70.5,78.5C 70.8333,78.5 71.1667,78.5 71.5,78.5C 74.8605,75.8062 77.8605,72.8062 80.5,69.5 Z"/></g>
<g><path style="opacity:1" fill="#7d7d7c" d="M 74.5,71.5 C 75.2389,71.369 75.9056,71.5357 76.5,72C 74.2101,73.7772 72.5434,75.9438 71.5,78.5C 71.1667,78.5 70.8333,78.5 70.5,78.5C 67.0878,80.3367 65.0878,79.3367 64.5,75.5C 65.7899,76.0577 66.6232,77.0577 67,78.5C 69.9985,76.6671 72.4985,74.3338 74.5,71.5 Z"/></g>
<g><path style="opacity:1" fill="#4b4b4b" d="M 36.5,64.5 C 40.926,67.8778 45.926,69.8778 51.5,70.5C 51.607,72.9032 50.607,74.7365 48.5,76C 48.8916,78.3543 48.8916,80.8543 48.5,83.5C 43.8171,83.8144 39.3171,83.1477 35,81.5C 34.7613,82.788 35.2613,83.788 36.5,84.5C 35.1667,84.5 33.8333,84.5 32.5,84.5C 30.1632,82.6036 27.4965,81.2703 24.5,80.5C 24.5,79.8333 24.5,79.1667 24.5,78.5C 22.4202,76.4268 20.7536,74.0934 19.5,71.5C 22.152,74.1367 25.152,76.47 28.5,78.5C 30.1017,77.45 30.935,78.1167 31,80.5C 31.7065,78.9194 32.5399,77.4194 33.5,76C 34.7376,76.0773 35.7376,75.9106 36.5,75.5C 34.4714,74.1565 32.4714,72.8231 30.5,71.5C 30.67,70.1779 30.3366,69.0113 29.5,68C 30.4158,67.7216 31.0825,67.2216 31.5,66.5C 33.0495,65.5592 34.7162,64.8925 36.5,64.5 Z"/></g>
<g><path style="opacity:1" fill="#3f3f3f" d="M 64.5,75.5 C 65.0878,79.3367 67.0878,80.3367 70.5,78.5C 69.0158,80.0737 67.3492,81.407 65.5,82.5C 61.3661,84.2831 57.0328,85.2831 52.5,85.5C 51.5,85.5 50.5,85.5 49.5,85.5C 49.3379,83.4727 49.5045,81.4727 50,79.5C 50.4935,81.1341 50.6602,82.8008 50.5,84.5C 52.5273,84.6621 54.5273,84.4955 56.5,84C 54.8659,83.5065 53.1992,83.3398 51.5,83.5C 51.5,82.1667 51.5,80.8333 51.5,79.5C 54.6957,79.1014 57.6957,78.1014 60.5,76.5C 60.3333,76.1667 60.1667,75.8333 60,75.5C 57.3669,77.1601 54.5335,77.6601 51.5,77C 53.0609,76.6824 54.2276,75.8491 55,74.5C 56.6037,75.6493 58.2703,75.6493 60,74.5C 60.9454,74.9054 61.6121,75.572 62,76.5C 62.6708,75.7476 63.5041,75.4142 64.5,75.5 Z"/></g>
<g><path style="opacity:1" fill="#6b22a7" d="M 24.5,80.5 C 27.4965,81.2703 30.1632,82.6036 32.5,84.5C 29.1733,84.1706 26.5066,82.8373 24.5,80.5 Z"/></g>
<g><path style="opacity:1" fill="#9e44c9" d="M 65.5,82.5 C 65.5,82.8333 65.5,83.1667 65.5,83.5C 54.519,89.6413 43.519,89.9746 32.5,84.5C 33.8333,84.5 35.1667,84.5 36.5,84.5C 39.5499,85.9352 42.8832,86.6019 46.5,86.5C 48.6965,86.4954 50.6965,86.162 52.5,85.5C 57.0328,85.2831 61.3661,84.2831 65.5,82.5 Z"/></g>
<g><path style="opacity:1" fill="#0b0f10" d="M 36.5,84.5 C 40.81,85.0802 45.1434,85.4135 49.5,85.5C 50.5,85.5 51.5,85.5 52.5,85.5C 50.6965,86.162 48.6965,86.4954 46.5,86.5C 42.8832,86.6019 39.5499,85.9352 36.5,84.5 Z"/></g>
</svg>
