<?xml version="1.0" encoding="UTF-8"?>
<!DOCTYPE svg PUBLIC "-//W3C//DTD SVG 1.1//EN" "http://www.w3.org/Graphics/SVG/1.1/DTD/svg11.dtd">
<svg xmlns="http://www.w3.org/2000/svg" version="1.1" width="200px" height="200px" style="shape-rendering:geometricPrecision; text-rendering:geometricPrecision; image-rendering:optimizeQuality; fill-rule:evenodd; clip-rule:evenodd" xmlns:xlink="http://www.w3.org/1999/xlink">
<g><path style="opacity:1" fill="#fdfdfd" d="M -0.5,-0.5 C 66.1667,-0.5 132.833,-0.5 199.5,-0.5C 199.5,66.1667 199.5,132.833 199.5,199.5C 194.833,199.5 190.167,199.5 185.5,199.5C 185.5,192.167 185.5,184.833 185.5,177.5C 183.833,177.5 182.167,177.5 180.5,177.5C 180.34,175.847 179.674,174.514 178.5,173.5C 177.521,170.375 177.187,167.042 177.5,163.5C 175.026,162.895 172.693,161.895 170.5,160.5C 168.158,157.229 167.824,153.562 169.5,149.5C 172.061,148.082 174.728,147.082 177.5,146.5C 179.436,142.285 180.103,137.619 179.5,132.5C 181.415,132.784 183.081,132.451 184.5,131.5C 185.5,131.5 186.5,131.5 187.5,131.5C 187.5,122.5 187.5,113.5 187.5,104.5C 185.052,103.527 182.385,103.194 179.5,103.5C 179.5,86.5 179.5,69.5 179.5,52.5C 171.5,52.5 163.5,52.5 155.5,52.5C 153.169,46.4157 150.835,40.4157 148.5,34.5C 147.976,32.6943 147.309,31.0276 146.5,29.5C 142.968,27.1129 139.302,25.1129 135.5,23.5C 132.914,22.52 130.247,22.1866 127.5,22.5C 125.254,23.2096 122.92,23.7096 120.5,24C 119.944,24.3826 119.611,24.8826 119.5,25.5C 116.615,25.1936 113.948,25.5269 111.5,26.5C 109.473,26.3379 107.473,26.5045 105.5,27C 104.944,27.3826 104.611,27.8826 104.5,28.5C 102.265,28.2053 100.265,28.5386 98.5,29.5C 93.2502,29.3025 88.2502,29.9692 83.5,31.5C 81.1667,32.1667 78.8333,32.8333 76.5,33.5C 72.9878,32.9455 69.9878,33.6122 67.5,35.5C 65.2646,35.2053 63.2646,35.5386 61.5,36.5C 57.9878,35.9455 54.9878,36.6122 52.5,38.5C 51.448,38.3505 50.448,38.5172 49.5,39C 47.3202,41.7723 45.3202,44.6056 43.5,47.5C 42.6515,49.8876 41.6515,52.2209 40.5,54.5C 39.6053,65.0003 39.6053,75.667 40.5,86.5C 38.8333,87.5 37.5,88.8333 36.5,90.5C 34.9157,91.3818 33.249,92.2152 31.5,93C 24.3472,93.5732 17.3472,94.9065 10.5,97C 8.62021,98.7096 6.95354,100.543 5.5,102.5C 5.91862,103.672 6.58529,104.672 7.5,105.5C 11.7828,106.492 16.1161,106.826 20.5,106.5C 23.6104,105.912 26.6104,105.245 29.5,104.5C 31.7146,103.732 34.0479,103.065 36.5,102.5C 39.1873,102.336 41.854,102.503 44.5,103C 43.2625,103.232 42.2625,103.732 41.5,104.5C 40.0813,105.451 38.4147,105.784 36.5,105.5C 36.5,112.167 36.5,118.833 36.5,125.5C 39.2469,125.187 41.9135,125.52 44.5,126.5C 45.9501,127.85 46.6168,129.516 46.5,131.5C 48.5,131.833 50.5,132.167 52.5,132.5C 51.8917,137.944 52.5583,142.944 54.5,147.5C 54.5,147.833 54.5,148.167 54.5,148.5C 52.6921,149.918 52.0254,151.918 52.5,154.5C 50.2143,154.595 48.2143,155.262 46.5,156.5C 45.5489,157.919 45.2155,159.585 45.5,161.5C 42.1667,161.5 38.8333,161.5 35.5,161.5C 35.5,163.833 35.5,166.167 35.5,168.5C 32.6146,168.194 29.9479,168.527 27.5,169.5C 27.5,174.167 27.5,178.833 27.5,183.5C 24.8333,183.5 22.1667,183.5 19.5,183.5C 19.5,188.167 19.5,192.833 19.5,197.5C 15.9878,196.945 12.9878,197.612 10.5,199.5C 6.83333,199.5 3.16667,199.5 -0.5,199.5C -0.5,132.833 -0.5,66.1667 -0.5,-0.5 Z"/></g>
<g><path style="opacity:1" fill="#696f6d" d="M 127.5,22.5 C 125.347,24.3386 122.68,25.3386 119.5,25.5C 119.611,24.8826 119.944,24.3826 120.5,24C 122.92,23.7096 125.254,23.2096 127.5,22.5 Z"/></g>
<g><path style="opacity:1" fill="#635f60" d="M 111.5,26.5 C 109.343,27.4067 107.01,28.0733 104.5,28.5C 104.611,27.8826 104.944,27.3826 105.5,27C 107.473,26.5045 109.473,26.3379 111.5,26.5 Z"/></g>
<g><path style="opacity:1" fill="#898284" d="M 98.5,29.5 C 93.7105,30.7249 88.7105,31.3916 83.5,31.5C 88.2502,29.9692 93.2502,29.3025 98.5,29.5 Z"/></g>
<g><path style="opacity:1" fill="#959493" d="M 76.5,33.5 C 73.6104,34.2448 70.6104,34.9115 67.5,35.5C 69.9878,33.6122 72.9878,32.9455 76.5,33.5 Z"/></g>
<g><path style="opacity:1" fill="#4d0c0c" d="M 146.5,29.5 C 147.309,31.0276 147.976,32.6943 148.5,34.5C 148.5,35.8333 148.5,37.1667 148.5,38.5C 148.5,41.5 148.5,44.5 148.5,47.5C 147.293,44.3498 146.293,41.0165 145.5,37.5C 144.817,37.1373 144.15,36.8039 143.5,36.5C 142.391,35.71 141.058,35.21 139.5,35C 138.833,33 137.5,31.6667 135.5,31C 130.792,30.5042 126.125,30.8376 121.5,32C 120.446,33.3876 120.28,34.8876 121,36.5C 127.405,37.4045 130.905,41.0712 131.5,47.5C 131.5,49.5 131.5,51.5 131.5,53.5C 133.803,61.6829 135.47,70.0162 136.5,78.5C 135.207,77.158 134.374,75.4913 134,73.5C 131.831,62.6401 129.165,51.9734 126,41.5C 124.644,40.6198 123.144,40.2865 121.5,40.5C 121.5,42.1667 121.5,43.8333 121.5,45.5C 119.818,40.836 116.485,38.1693 111.5,37.5C 111.5,36.8333 111.5,36.1667 111.5,35.5C 113.379,36.3414 115.379,36.6747 117.5,36.5C 117.104,33.9556 117.771,31.7889 119.5,30C 125.702,27.9466 132.035,27.2799 138.5,28C 139.38,29.3561 139.714,30.8561 139.5,32.5C 141.591,32.3184 143.591,32.6518 145.5,33.5C 146.429,32.3112 146.762,30.9778 146.5,29.5 Z"/></g>
<g><path style="opacity:1" fill="#8c8185" d="M 61.5,36.5 C 58.6104,37.2448 55.6104,37.9115 52.5,38.5C 54.9878,36.6122 57.9878,35.9455 61.5,36.5 Z"/></g>
<g><path style="opacity:1" fill="#100606" d="M 127.5,22.5 C 130.247,22.1866 132.914,22.52 135.5,23.5C 139.302,25.1129 142.968,27.1129 146.5,29.5C 146.762,30.9778 146.429,32.3112 145.5,33.5C 143.591,32.6518 141.591,32.3184 139.5,32.5C 139.714,30.8561 139.38,29.3561 138.5,28C 132.035,27.2799 125.702,27.9466 119.5,30C 117.771,31.7889 117.104,33.9556 117.5,36.5C 115.379,36.6747 113.379,36.3414 111.5,35.5C 111.126,33.0503 109.626,32.0503 107,32.5C 95.5159,34.6999 84.0159,36.8665 72.5,39C 70.3474,39.0995 68.6808,39.9328 67.5,41.5C 65.1727,41.2471 63.1727,41.9137 61.5,43.5C 60.9146,45.8997 59.7479,47.8997 58,49.5C 56.9231,48.5705 55.7564,47.9038 54.5,47.5C 53.7961,45.6558 52.4628,45.1558 50.5,46C 47.5911,48.9849 45.5911,52.4849 44.5,56.5C 43.4138,56.38 42.7472,55.7133 42.5,54.5C 43.2234,52.2178 43.5567,49.8845 43.5,47.5C 45.3202,44.6056 47.3202,41.7723 49.5,39C 50.448,38.5172 51.448,38.3505 52.5,38.5C 55.6104,37.9115 58.6104,37.2448 61.5,36.5C 63.2646,35.5386 65.2646,35.2053 67.5,35.5C 70.6104,34.9115 73.6104,34.2448 76.5,33.5C 78.8333,32.8333 81.1667,32.1667 83.5,31.5C 88.7105,31.3916 93.7105,30.7249 98.5,29.5C 100.265,28.5386 102.265,28.2053 104.5,28.5C 107.01,28.0733 109.343,27.4067 111.5,26.5C 113.948,25.5269 116.615,25.1936 119.5,25.5C 122.68,25.3386 125.347,24.3386 127.5,22.5 Z"/></g>
<g><path style="opacity:1" fill="#440c0a" d="M 111.5,35.5 C 110.258,34.9566 108.925,34.6233 107.5,34.5C 97.9451,36.2347 88.6118,38.2347 79.5,40.5C 75.5191,41.0209 71.5191,41.3542 67.5,41.5C 68.6808,39.9328 70.3474,39.0995 72.5,39C 84.0159,36.8665 95.5159,34.6999 107,32.5C 109.626,32.0503 111.126,33.0503 111.5,35.5 Z"/></g>
<g><path style="opacity:1" fill="#b11e19" d="M 143.5,36.5 C 144.787,39.698 145.453,43.0314 145.5,46.5C 143.989,44.5242 143.156,42.1909 143,39.5C 141.633,38.4757 140.8,38.9757 140.5,41C 142.579,47.6803 144.245,54.5137 145.5,61.5C 145.287,64.4818 144.953,67.4818 144.5,70.5C 143.201,69.91 142.368,68.91 142,67.5C 141.097,60.5518 139.264,53.8852 136.5,47.5C 135.672,42.8685 135.172,38.2018 135,33.5C 128.597,32.1049 127.263,34.1049 131,39.5C 131.497,42.146 131.664,44.8127 131.5,47.5C 130.905,41.0712 127.405,37.4045 121,36.5C 120.28,34.8876 120.446,33.3876 121.5,32C 126.125,30.8376 130.792,30.5042 135.5,31C 137.5,31.6667 138.833,33 139.5,35C 141.058,35.21 142.391,35.71 143.5,36.5 Z"/></g>
<g><path style="opacity:1" fill="#a52a25" d="M 111.5,35.5 C 111.5,36.1667 111.5,36.8333 111.5,37.5C 105.193,38.3092 98.86,39.1426 92.5,40C 92.0426,40.414 91.7093,40.914 91.5,41.5C 93.0863,43.1727 93.7529,45.1727 93.5,47.5C 92.1851,46.5244 90.8518,45.5244 89.5,44.5C 88.6781,46.1386 88.0114,47.8053 87.5,49.5C 85.0411,54.0325 83.5411,59.0325 83,64.5C 82.6174,65.056 82.1174,65.3893 81.5,65.5C 82.7667,57.8408 84.4334,50.1741 86.5,42.5C 84.2573,41.5258 81.924,41.1924 79.5,41.5C 79.5,41.1667 79.5,40.8333 79.5,40.5C 88.6118,38.2347 97.9451,36.2347 107.5,34.5C 108.925,34.6233 110.258,34.9566 111.5,35.5 Z"/></g>
<g><path style="opacity:1" fill="#b3a6ab" d="M 148.5,34.5 C 150.835,40.4157 153.169,46.4157 155.5,52.5C 152.378,48.0752 150.045,43.4086 148.5,38.5C 148.5,37.1667 148.5,35.8333 148.5,34.5 Z"/></g>
<g><path style="opacity:1" fill="#b31d18" d="M 79.5,41.5 C 81.924,41.1924 84.2573,41.5258 86.5,42.5C 84.4334,50.1741 82.7667,57.8408 81.5,65.5C 81.13,69.2326 80.4633,72.8993 79.5,76.5C 78.5318,78.6074 78.1984,80.9407 78.5,83.5C 77.5,83.5 76.5,83.5 75.5,83.5C 73.2075,83.7564 71.0408,83.4231 69,82.5C 68.5228,72.7804 66.0228,63.6137 61.5,55C 64.5582,46.4268 70.5582,41.9268 79.5,41.5 Z"/></g>
<g><path style="opacity:1" fill="#fdf6f5" d="M 93.5,47.5 C 94.5,47.8333 95.1667,48.5 95.5,49.5C 97.9844,51.5452 98.9844,54.2118 98.5,57.5C 97.1483,64.6346 95.4816,71.6346 93.5,78.5C 89.2173,80.9579 84.5506,81.9579 79.5,81.5C 79.5,79.8333 79.5,78.1667 79.5,76.5C 83.7069,68.19 86.3735,59.19 87.5,49.5C 88.0114,47.8053 88.6781,46.1386 89.5,44.5C 90.8518,45.5244 92.1851,46.5244 93.5,47.5 Z"/></g>
<g><path style="opacity:1" fill="#060506" d="M 157.5,53.5 C 164.5,53.5 171.5,53.5 178.5,53.5C 178.5,70.1667 178.5,86.8333 178.5,103.5C 175.833,103.5 173.167,103.5 170.5,103.5C 170.5,108.167 170.5,112.833 170.5,117.5C 167.833,117.5 165.167,117.5 162.5,117.5C 162.5,115.167 162.5,112.833 162.5,110.5C 159.833,110.5 157.167,110.5 154.5,110.5C 154.795,108.265 154.461,106.265 153.5,104.5C 151.052,103.527 148.385,103.194 145.5,103.5C 145.5,105.833 145.5,108.167 145.5,110.5C 147.948,111.473 150.615,111.806 153.5,111.5C 153.5,113.833 153.5,116.167 153.5,118.5C 156.167,118.5 158.833,118.5 161.5,118.5C 161.5,120.833 161.5,123.167 161.5,125.5C 156.167,125.5 150.833,125.5 145.5,125.5C 145.5,130.167 145.5,134.833 145.5,139.5C 142.5,139.5 139.5,139.5 136.5,139.5C 136.5,141.833 136.5,144.167 136.5,146.5C 133.615,146.194 130.948,146.527 128.5,147.5C 128.5,149.833 128.5,152.167 128.5,154.5C 136.833,154.5 145.167,154.5 153.5,154.5C 153.5,154.833 153.5,155.167 153.5,155.5C 153.5,157.5 153.5,159.5 153.5,161.5C 134.167,161.5 114.833,161.5 95.5,161.5C 95.5,159.167 95.5,156.833 95.5,154.5C 103.833,154.5 112.167,154.5 120.5,154.5C 120.5,152.167 120.5,149.833 120.5,147.5C 118.052,146.527 115.385,146.194 112.5,146.5C 112.5,144.167 112.5,141.833 112.5,139.5C 109.5,139.5 106.5,139.5 103.5,139.5C 103.5,134.833 103.5,130.167 103.5,125.5C 97.8333,125.5 92.1667,125.5 86.5,125.5C 86.5,123.167 86.5,120.833 86.5,118.5C 84.0521,117.527 81.3854,117.194 78.5,117.5C 78.5,112.833 78.5,108.167 78.5,103.5C 69.8333,103.5 61.1667,103.5 52.5,103.5C 52.5,113.167 52.5,122.833 52.5,132.5C 50.5,132.167 48.5,131.833 46.5,131.5C 46.6168,129.516 45.9501,127.85 44.5,126.5C 41.9135,125.52 39.2469,125.187 36.5,125.5C 36.5,118.833 36.5,112.167 36.5,105.5C 38.4147,105.784 40.0813,105.451 41.5,104.5C 43.1667,104.5 44.8333,104.5 46.5,104.5C 46.5,102.5 46.5,100.5 46.5,98.5C 50.5138,98.6655 54.5138,98.4988 58.5,98C 60.744,97.9504 62.4107,97.1171 63.5,95.5C 71.4903,94.9769 79.4903,94.6436 87.5,94.5C 86.3915,95.29 85.0581,95.79 83.5,96C 109.831,96.5 136.165,96.6666 162.5,96.5C 165.167,96.5 167.833,96.5 170.5,96.5C 170.5,86.8333 170.5,77.1667 170.5,67.5C 170.5,65.1667 170.5,62.8333 170.5,60.5C 166.366,59.5151 162.032,59.1818 157.5,59.5C 157.5,57.5 157.5,55.5 157.5,53.5 Z"/></g>
<g><path style="opacity:1" fill="#807c7d" d="M 155.5,53.5 C 155.5,53.1667 155.5,52.8333 155.5,52.5C 163.5,52.5 171.5,52.5 179.5,52.5C 179.5,69.5 179.5,86.5 179.5,103.5C 182.385,103.194 185.052,103.527 187.5,104.5C 186.833,104.5 186.167,104.5 185.5,104.5C 183.5,104.5 181.5,104.5 179.5,104.5C 179.5,113.833 179.5,123.167 179.5,132.5C 180.103,137.619 179.436,142.285 177.5,146.5C 178.43,142.6 178.763,138.6 178.5,134.5C 178.5,133.833 178.5,133.167 178.5,132.5C 178.5,123.167 178.5,113.833 178.5,104.5C 176.167,104.5 173.833,104.5 171.5,104.5C 171.819,109.363 171.486,114.03 170.5,118.5C 170.5,118.167 170.5,117.833 170.5,117.5C 170.5,112.833 170.5,108.167 170.5,103.5C 173.167,103.5 175.833,103.5 178.5,103.5C 178.5,86.8333 178.5,70.1667 178.5,53.5C 171.5,53.5 164.5,53.5 157.5,53.5C 156.833,53.5 156.167,53.5 155.5,53.5 Z"/></g>
<g><path style="opacity:1" fill="#e69897" d="M 95.5,49.5 C 97.0174,49.5106 98.1841,50.1772 99,51.5C 99.7891,53.7116 99.6225,55.7116 98.5,57.5C 98.9844,54.2118 97.9844,51.5452 95.5,49.5 Z"/></g>
<g><path style="opacity:1" fill="#430906" d="M 121.5,45.5 C 123.733,49.1224 125.233,53.1224 126,57.5C 126.498,60.8168 126.665,64.1501 126.5,67.5C 124.629,60.3083 122.963,52.975 121.5,45.5 Z"/></g>
<g><path style="opacity:1" fill="#922226" d="M 79.5,40.5 C 79.5,40.8333 79.5,41.1667 79.5,41.5C 70.5582,41.9268 64.5582,46.4268 61.5,55C 66.0228,63.6137 68.5228,72.7804 69,82.5C 71.0408,83.4231 73.2075,83.7564 75.5,83.5C 75.5,83.8333 75.5,84.1667 75.5,84.5C 73.283,85.3686 70.9496,85.702 68.5,85.5C 67.828,84.7326 66.9947,84.0659 66,83.5C 64.722,73.6679 62.222,64.1679 58.5,55C 60.8797,50.114 63.8797,45.614 67.5,41.5C 71.5191,41.3542 75.5191,41.0209 79.5,40.5 Z"/></g>
<g><path style="opacity:1" fill="#c0201b" d="M 145.5,46.5 C 148.36,55.6006 150.693,64.934 152.5,74.5C 148.044,74.6283 143.71,75.1283 139.5,76C 137.93,69.4476 136.097,62.9476 134,56.5C 133.623,55.0577 132.79,54.0577 131.5,53.5C 131.5,51.5 131.5,49.5 131.5,47.5C 131.664,44.8127 131.497,42.146 131,39.5C 127.263,34.1049 128.597,32.1049 135,33.5C 135.172,38.2018 135.672,42.8685 136.5,47.5C 139.264,53.8852 141.097,60.5518 142,67.5C 142.368,68.91 143.201,69.91 144.5,70.5C 144.953,67.4818 145.287,64.4818 145.5,61.5C 144.245,54.5137 142.579,47.6803 140.5,41C 140.8,38.9757 141.633,38.4757 143,39.5C 143.156,42.1909 143.989,44.5242 145.5,46.5 Z"/></g>
<g><path style="opacity:1" fill="#3a3d3e" d="M 155.5,53.5 C 156.167,53.5 156.833,53.5 157.5,53.5C 157.5,55.5 157.5,57.5 157.5,59.5C 162.032,59.1818 166.366,59.5151 170.5,60.5C 166.5,60.5 162.5,60.5 158.5,60.5C 158.5,62.1667 158.5,63.8333 158.5,65.5C 156.584,61.8371 155.584,57.8371 155.5,53.5 Z"/></g>
<g><path style="opacity:1" fill="#4d1317" d="M 67.5,41.5 C 63.8797,45.614 60.8797,50.114 58.5,55C 62.222,64.1679 64.722,73.6679 66,83.5C 66.9947,84.0659 67.828,84.7326 68.5,85.5C 67.1667,85.5 65.8333,85.5 64.5,85.5C 61.9636,74.797 59.2969,64.1303 56.5,53.5C 54.8333,53.5 53.1667,53.5 51.5,53.5C 53.385,51.9468 54.385,49.9468 54.5,47.5C 55.7564,47.9038 56.9231,48.5705 58,49.5C 59.7479,47.8997 60.9146,45.8997 61.5,43.5C 63.1727,41.9137 65.1727,41.2471 67.5,41.5 Z"/></g>
<g><path style="opacity:1" fill="#f3c1c1" d="M 87.5,49.5 C 86.3735,59.19 83.7069,68.19 79.5,76.5C 80.4633,72.8993 81.13,69.2326 81.5,65.5C 82.1174,65.3893 82.6174,65.056 83,64.5C 83.5411,59.0325 85.0411,54.0325 87.5,49.5 Z"/></g>
<g><path style="opacity:1" fill="#b5201a" d="M 111.5,37.5 C 111.5,38.5 111.5,39.5 111.5,40.5C 114.652,39.9586 117.152,40.9586 119,43.5C 120.79,52.8217 122.956,61.9883 125.5,71C 124.571,72.0769 123.904,73.2436 123.5,74.5C 121.446,74.6347 119.779,73.968 118.5,72.5C 115.215,68.5481 111.548,64.8815 107.5,61.5C 105.022,62.7224 104.022,64.7224 104.5,67.5C 103.883,67.6107 103.383,67.944 103,68.5C 102.502,71.8168 102.335,75.1501 102.5,78.5C 101.833,78.5 101.5,78.8333 101.5,79.5C 98.9339,79.3444 96.4339,79.6777 94,80.5C 92.3164,80.3166 92.1498,79.6499 93.5,78.5C 95.4816,71.6346 97.1483,64.6346 98.5,57.5C 99.6225,55.7116 99.7891,53.7116 99,51.5C 98.1841,50.1772 97.0174,49.5106 95.5,49.5C 95.1667,48.5 94.5,47.8333 93.5,47.5C 93.7529,45.1727 93.0863,43.1727 91.5,41.5C 91.7093,40.914 92.0426,40.414 92.5,40C 98.86,39.1426 105.193,38.3092 111.5,37.5 Z"/></g>
<g><path style="opacity:1" fill="#881412" d="M 143.5,36.5 C 144.15,36.8039 144.817,37.1373 145.5,37.5C 146.293,41.0165 147.293,44.3498 148.5,47.5C 148.336,50.1873 148.503,52.854 149,55.5C 151.025,61.8007 152.858,68.1341 154.5,74.5C 153.833,74.5 153.167,74.5 152.5,74.5C 150.693,64.934 148.36,55.6006 145.5,46.5C 145.453,43.0314 144.787,39.698 143.5,36.5 Z"/></g>
<g><path style="opacity:1" fill="#b1b2b2" d="M 170.5,60.5 C 170.5,62.8333 170.5,65.1667 170.5,67.5C 167.833,67.5 165.167,67.5 162.5,67.5C 162.66,69.1992 162.494,70.8659 162,72.5C 161.617,71.944 161.117,71.6107 160.5,71.5C 159.27,69.7028 158.604,67.7028 158.5,65.5C 158.5,63.8333 158.5,62.1667 158.5,60.5C 162.5,60.5 166.5,60.5 170.5,60.5 Z"/></g>
<g><path style="opacity:1" fill="#1a0707" d="M 148.5,38.5 C 150.045,43.4086 152.378,48.0752 155.5,52.5C 155.5,52.8333 155.5,53.1667 155.5,53.5C 155.584,57.8371 156.584,61.8371 158.5,65.5C 158.604,67.7028 159.27,69.7028 160.5,71.5C 160.714,73.1439 160.38,74.6439 159.5,76C 153.003,77.1072 147.003,79.2738 141.5,82.5C 138.833,83.1667 136.167,83.8333 133.5,84.5C 133.665,81.4816 133.498,78.4816 133,75.5C 132.023,74.2264 131.189,74.2264 130.5,75.5C 129.833,75.5 129.167,75.5 128.5,75.5C 128.672,74.5084 128.338,73.8417 127.5,73.5C 127.795,71.2646 127.461,69.2646 126.5,67.5C 126.665,64.1501 126.498,60.8168 126,57.5C 125.233,53.1224 123.733,49.1224 121.5,45.5C 121.5,43.8333 121.5,42.1667 121.5,40.5C 123.144,40.2865 124.644,40.6198 126,41.5C 129.165,51.9734 131.831,62.6401 134,73.5C 134.374,75.4913 135.207,77.158 136.5,78.5C 138.628,79.6291 140.961,79.7958 143.5,79C 146.598,77.444 149.598,75.944 152.5,74.5C 153.167,74.5 153.833,74.5 154.5,74.5C 155.613,73.0536 155.78,71.3869 155,69.5C 152.686,62.0718 150.519,54.7384 148.5,47.5C 148.5,44.5 148.5,41.5 148.5,38.5 Z"/></g>
<g><path style="opacity:1" fill="#570706" d="M 148.5,47.5 C 150.519,54.7384 152.686,62.0718 155,69.5C 155.78,71.3869 155.613,73.0536 154.5,74.5C 152.858,68.1341 151.025,61.8007 149,55.5C 148.503,52.854 148.336,50.1873 148.5,47.5 Z"/></g>
<g><path style="opacity:1" fill="#fbecea" d="M 118.5,72.5 C 118.586,73.4959 118.252,74.3292 117.5,75C 112.837,75.9459 108.17,76.7792 103.5,77.5C 103.342,74.0977 103.676,70.7644 104.5,67.5C 104.022,64.7224 105.022,62.7224 107.5,61.5C 111.548,64.8815 115.215,68.5481 118.5,72.5 Z"/></g>
<g><path style="opacity:1" fill="#8a1814" d="M 111.5,37.5 C 116.485,38.1693 119.818,40.836 121.5,45.5C 122.963,52.975 124.629,60.3083 126.5,67.5C 127.461,69.2646 127.795,71.2646 127.5,73.5C 126.292,74.2341 124.959,74.5674 123.5,74.5C 123.904,73.2436 124.571,72.0769 125.5,71C 122.956,61.9883 120.79,52.8217 119,43.5C 117.152,40.9586 114.652,39.9586 111.5,40.5C 111.5,39.5 111.5,38.5 111.5,37.5 Z"/></g>
<g><path style="opacity:1" fill="#726160" d="M 40.5,54.5 C 41.0381,65.3425 41.0381,76.0092 40.5,86.5C 39.6053,75.667 39.6053,65.0003 40.5,54.5 Z"/></g>
<g><path style="opacity:1" fill="#290e0e" d="M 43.5,47.5 C 43.5567,49.8845 43.2234,52.2178 42.5,54.5C 42.7472,55.7133 43.4138,56.38 44.5,56.5C 42.9202,59.5321 42.2535,62.8655 42.5,66.5C 43.5595,74.2835 44.5595,81.9502 45.5,89.5C 42.7131,90.4767 39.7131,90.81 36.5,90.5C 37.5,88.8333 38.8333,87.5 40.5,86.5C 41.0381,76.0092 41.0381,65.3425 40.5,54.5C 41.6515,52.2209 42.6515,49.8876 43.5,47.5 Z"/></g>
<g><path style="opacity:1" fill="#130404" d="M 51.5,53.5 C 53.1667,53.5 54.8333,53.5 56.5,53.5C 59.2969,64.1303 61.9636,74.797 64.5,85.5C 64.1667,86.1667 63.8333,86.8333 63.5,87.5C 61.8333,87.5 60.1667,87.5 58.5,87.5C 57.2776,78.0187 54.7776,69.0187 51,60.5C 50.2042,57.9615 50.3709,55.6282 51.5,53.5 Z"/></g>
<g><path style="opacity:1" fill="#a65669" d="M 104.5,67.5 C 103.676,70.7644 103.342,74.0977 103.5,77.5C 108.17,76.7792 112.837,75.9459 117.5,75C 118.252,74.3292 118.586,73.4959 118.5,72.5C 119.779,73.968 121.446,74.6347 123.5,74.5C 124.959,74.5674 126.292,74.2341 127.5,73.5C 128.338,73.8417 128.672,74.5084 128.5,75.5C 128.167,75.5 127.833,75.5 127.5,75.5C 119.306,77.562 110.973,78.562 102.5,78.5C 102.335,75.1501 102.502,71.8168 103,68.5C 103.383,67.944 103.883,67.6107 104.5,67.5 Z"/></g>
<g><path style="opacity:1" fill="#8c1814" d="M 131.5,53.5 C 132.79,54.0577 133.623,55.0577 134,56.5C 136.097,62.9476 137.93,69.4476 139.5,76C 143.71,75.1283 148.044,74.6283 152.5,74.5C 149.598,75.944 146.598,77.444 143.5,79C 140.961,79.7958 138.628,79.6291 136.5,78.5C 135.47,70.0162 133.803,61.6829 131.5,53.5 Z"/></g>
<g><path style="opacity:1" fill="#651a1f" d="M 54.5,47.5 C 54.385,49.9468 53.385,51.9468 51.5,53.5C 50.3709,55.6282 50.2042,57.9615 51,60.5C 54.7776,69.0187 57.2776,78.0187 58.5,87.5C 57.078,88.925 55.4113,89.925 53.5,90.5C 51.0521,89.5269 48.3854,89.1936 45.5,89.5C 44.5595,81.9502 43.5595,74.2835 42.5,66.5C 42.2535,62.8655 42.9202,59.5321 44.5,56.5C 45.5911,52.4849 47.5911,48.9849 50.5,46C 52.4628,45.1558 53.7961,45.6558 54.5,47.5 Z"/></g>
<g><path style="opacity:1" fill="#7f7f7f" d="M 170.5,67.5 C 170.5,77.1667 170.5,86.8333 170.5,96.5C 167.833,96.5 165.167,96.5 162.5,96.5C 162.5,96.1667 162.5,95.8333 162.5,95.5C 164.833,95.5 167.167,95.5 169.5,95.5C 169.5,93.5 169.5,91.5 169.5,89.5C 161.5,89.5 153.5,89.5 145.5,89.5C 145.5,87.1667 145.5,84.8333 145.5,82.5C 144.167,82.5 142.833,82.5 141.5,82.5C 147.003,79.2738 153.003,77.1072 159.5,76C 160.38,74.6439 160.714,73.1439 160.5,71.5C 161.117,71.6107 161.617,71.944 162,72.5C 162.494,70.8659 162.66,69.1992 162.5,67.5C 165.167,67.5 167.833,67.5 170.5,67.5 Z"/></g>
<g><path style="opacity:1" fill="#97272a" d="M 44.5,58.5 C 45.4959,58.4142 46.3292,58.7476 47,59.5C 50.5791,67.4772 53.0791,75.8105 54.5,84.5C 54.4302,85.7716 54.0968,86.9383 53.5,88C 51.5273,88.4955 49.5273,88.6621 47.5,88.5C 48.2803,79.0839 46.947,70.0839 43.5,61.5C 43.685,60.4163 44.0183,59.4163 44.5,58.5 Z"/></g>
<g><path style="opacity:1" fill="#7a4277" d="M 127.5,75.5 C 127.5,76.1667 127.5,76.8333 127.5,77.5C 118.167,78.8333 108.833,80.1666 99.5,81.5C 100.167,80.8333 100.833,80.1667 101.5,79.5C 101.5,78.8333 101.833,78.5 102.5,78.5C 110.973,78.562 119.306,77.562 127.5,75.5 Z"/></g>
<g><path style="opacity:1" fill="#0f285c" d="M 127.5,75.5 C 127.833,75.5 128.167,75.5 128.5,75.5C 129.167,75.5 129.833,75.5 130.5,75.5C 131.649,78.0408 131.649,80.5408 130.5,83C 124.157,83.8352 117.824,84.6686 111.5,85.5C 111.918,84.7784 112.584,84.2784 113.5,84C 118.137,83.1706 122.804,82.6706 127.5,82.5C 127.5,80.8333 127.5,79.1667 127.5,77.5C 127.5,76.8333 127.5,76.1667 127.5,75.5 Z"/></g>
<g><path style="opacity:1" fill="#a94d5e" d="M 79.5,76.5 C 79.5,78.1667 79.5,79.8333 79.5,81.5C 84.5506,81.9579 89.2173,80.9579 93.5,78.5C 92.1498,79.6499 92.3164,80.3166 94,80.5C 96.4339,79.6777 98.9339,79.3444 101.5,79.5C 100.833,80.1667 100.167,80.8333 99.5,81.5C 97.901,81.2322 96.5676,81.5655 95.5,82.5C 88.6811,82.1286 82.0144,82.7952 75.5,84.5C 75.5,84.1667 75.5,83.8333 75.5,83.5C 76.5,83.5 77.5,83.5 78.5,83.5C 78.1984,80.9407 78.5318,78.6074 79.5,76.5 Z"/></g>
<g><path style="opacity:1" fill="#10172b" d="M 133.5,84.5 C 130.833,85.1667 128.167,85.8333 125.5,86.5C 112.403,87.398 99.7361,90.0646 87.5,94.5C 79.4903,94.6436 71.4903,94.9769 63.5,95.5C 67.6782,94.7465 71.6782,93.4131 75.5,91.5C 78.8499,91.665 82.1832,91.4983 85.5,91C 94.4003,89.6484 103.067,87.815 111.5,85.5C 117.824,84.6686 124.157,83.8352 130.5,83C 131.649,80.5408 131.649,78.0408 130.5,75.5C 131.189,74.2264 132.023,74.2264 133,75.5C 133.498,78.4816 133.665,81.4816 133.5,84.5 Z"/></g>
<g><path style="opacity:1" fill="#7b3e6e" d="M 95.5,82.5 C 87.5642,84.4917 79.5642,86.1584 71.5,87.5C 70.5,87.5 69.5,87.5 68.5,87.5C 66.8333,87.5 65.1667,87.5 63.5,87.5C 63.8333,86.8333 64.1667,86.1667 64.5,85.5C 65.8333,85.5 67.1667,85.5 68.5,85.5C 70.9496,85.702 73.283,85.3686 75.5,84.5C 82.0144,82.7952 88.6811,82.1286 95.5,82.5 Z"/></g>
<g><path style="opacity:1" fill="#3b57b7" d="M 127.5,77.5 C 127.5,79.1667 127.5,80.8333 127.5,82.5C 122.804,82.6706 118.137,83.1706 113.5,84C 112.584,84.2784 111.918,84.7784 111.5,85.5C 103.067,87.815 94.4003,89.6484 85.5,91C 82.1832,91.4983 78.8499,91.665 75.5,91.5C 70.4217,91.6629 69.755,90.4962 73.5,88C 72.9056,87.5357 72.2389,87.369 71.5,87.5C 79.5642,86.1584 87.5642,84.4917 95.5,82.5C 96.5676,81.5655 97.901,81.2322 99.5,81.5C 108.833,80.1666 118.167,78.8333 127.5,77.5 Z"/></g>
<g><path style="opacity:1" fill="#282e58" d="M 58.5,87.5 C 60.1667,87.5 61.8333,87.5 63.5,87.5C 65.1667,87.5 66.8333,87.5 68.5,87.5C 67.653,88.9663 66.3197,89.7996 64.5,90C 53.4557,91.7065 42.4557,93.5398 31.5,95.5C 33.7612,93.745 36.4278,92.5784 39.5,92C 44.3514,91.8255 49.0181,91.3255 53.5,90.5C 55.4113,89.925 57.078,88.925 58.5,87.5 Z"/></g>
<g><path style="opacity:1" fill="#264885" d="M 68.5,87.5 C 69.5,87.5 70.5,87.5 71.5,87.5C 72.2389,87.369 72.9056,87.5357 73.5,88C 69.755,90.4962 70.4217,91.6629 75.5,91.5C 71.6782,93.4131 67.6782,94.7465 63.5,95.5C 58.3035,95.3636 53.1368,95.6969 48,96.5C 46.3189,96.6083 45.1522,97.2749 44.5,98.5C 34.5207,99.9623 24.5207,101.296 14.5,102.5C 13.8333,102.333 13.1667,102.167 12.5,102C 13.365,100.641 14.365,99.4745 15.5,98.5C 20.8333,97.5 26.1667,96.5 31.5,95.5C 42.4557,93.5398 53.4557,91.7065 64.5,90C 66.3197,89.7996 67.653,88.9663 68.5,87.5 Z"/></g>
<g><path style="opacity:1" fill="#c2c2c3" d="M 141.5,82.5 C 142.833,82.5 144.167,82.5 145.5,82.5C 145.5,84.8333 145.5,87.1667 145.5,89.5C 153.5,89.5 161.5,89.5 169.5,89.5C 169.5,91.5 169.5,93.5 169.5,95.5C 167.167,95.5 164.833,95.5 162.5,95.5C 138.498,95.6666 114.498,95.5 90.5,95C 99.9336,91.8917 109.6,89.8917 119.5,89C 121.502,87.9808 123.502,87.1475 125.5,86.5C 128.167,85.8333 130.833,85.1667 133.5,84.5C 136.167,83.8333 138.833,83.1667 141.5,82.5 Z"/></g>
<g><path style="opacity:1" fill="#9f9f9f" d="M 125.5,86.5 C 123.502,87.1475 121.502,87.9808 119.5,89C 109.6,89.8917 99.9336,91.8917 90.5,95C 114.498,95.5 138.498,95.6666 162.5,95.5C 162.5,95.8333 162.5,96.1667 162.5,96.5C 136.165,96.6666 109.831,96.5 83.5,96C 85.0581,95.79 86.3915,95.29 87.5,94.5C 99.7361,90.0646 112.403,87.398 125.5,86.5 Z"/></g>
<g><path style="opacity:1" fill="#101d3a" d="M 63.5,95.5 C 62.4107,97.1171 60.744,97.9504 58.5,98C 54.5138,98.4988 50.5138,98.6655 46.5,98.5C 45.8333,98.5 45.1667,98.5 44.5,98.5C 45.1522,97.2749 46.3189,96.6083 48,96.5C 53.1368,95.6969 58.3035,95.3636 63.5,95.5 Z"/></g>
<g><path style="opacity:1" fill="#51353b" d="M 44.5,98.5 C 45.1667,98.5 45.8333,98.5 46.5,98.5C 46.5,100.5 46.5,102.5 46.5,104.5C 44.8333,104.5 43.1667,104.5 41.5,104.5C 42.2625,103.732 43.2625,103.232 44.5,103C 41.854,102.503 39.1873,102.336 36.5,102.5C 38.631,101.686 40.9644,101.186 43.5,101C 44.056,100.617 44.3893,100.117 44.5,99.5C 44.5,99.1667 44.5,98.8333 44.5,98.5 Z"/></g>
<g><path style="opacity:1" fill="#1f1c29" d="M 45.5,89.5 C 48.3854,89.1936 51.0521,89.5269 53.5,90.5C 49.0181,91.3255 44.3514,91.8255 39.5,92C 36.4278,92.5784 33.7612,93.745 31.5,95.5C 26.1667,96.5 20.8333,97.5 15.5,98.5C 12.8962,98.5985 10.8962,99.7651 9.5,102C 10.0439,103.947 11.3772,104.78 13.5,104.5C 23.8667,103.045 34.2001,101.378 44.5,99.5C 44.3893,100.117 44.056,100.617 43.5,101C 40.9644,101.186 38.631,101.686 36.5,102.5C 34.0479,103.065 31.7146,103.732 29.5,104.5C 25.9878,103.945 22.9878,104.612 20.5,106.5C 16.1161,106.826 11.7828,106.492 7.5,105.5C 6.58529,104.672 5.91862,103.672 5.5,102.5C 6.95354,100.543 8.62021,98.7096 10.5,97C 17.3472,94.9065 24.3472,93.5732 31.5,93C 33.249,92.2152 34.9157,91.3818 36.5,90.5C 39.7131,90.81 42.7131,90.4767 45.5,89.5 Z"/></g>
<g><path style="opacity:1" fill="#1b3561" d="M 15.5,98.5 C 14.365,99.4745 13.365,100.641 12.5,102C 13.1667,102.167 13.8333,102.333 14.5,102.5C 24.5207,101.296 34.5207,99.9623 44.5,98.5C 44.5,98.8333 44.5,99.1667 44.5,99.5C 34.2001,101.378 23.8667,103.045 13.5,104.5C 11.3772,104.78 10.0439,103.947 9.5,102C 10.8962,99.7651 12.8962,98.5985 15.5,98.5 Z"/></g>
<g><path style="opacity:1" fill="#766a6f" d="M 29.5,104.5 C 26.6104,105.245 23.6104,105.912 20.5,106.5C 22.9878,104.612 25.9878,103.945 29.5,104.5 Z"/></g>
<g><path style="opacity:1" fill="#777777" d="M 153.5,104.5 C 153.5,106.5 153.5,108.5 153.5,110.5C 150.833,110.5 148.167,110.5 145.5,110.5C 145.5,108.167 145.5,105.833 145.5,103.5C 148.385,103.194 151.052,103.527 153.5,104.5 Z"/></g>
<g><path style="opacity:1" fill="#434343" d="M 111.5,111.5 C 108.833,111.5 106.167,111.5 103.5,111.5C 100.5,111.5 97.5,111.5 94.5,111.5C 94.5,108.833 94.5,106.167 94.5,103.5C 97.5,103.5 100.5,103.5 103.5,103.5C 103.5,105.833 103.5,108.167 103.5,110.5C 106.385,110.194 109.052,110.527 111.5,111.5 Z"/></g>
<g><path style="opacity:1" fill="#848484" d="M 95.5,104.5 C 97.8333,104.5 100.167,104.5 102.5,104.5C 102.5,106.5 102.5,108.5 102.5,110.5C 100.167,110.5 97.8333,110.5 95.5,110.5C 95.5,108.5 95.5,106.5 95.5,104.5 Z"/></g>
<g><path style="opacity:1" fill="#0e0406" d="M 185.5,104.5 C 185.804,113.584 185.471,122.584 184.5,131.5C 183.081,132.451 181.415,132.784 179.5,132.5C 179.5,123.167 179.5,113.833 179.5,104.5C 181.5,104.5 183.5,104.5 185.5,104.5 Z"/></g>
<g><path style="opacity:1" fill="#808080" d="M 103.5,111.5 C 106.167,111.5 108.833,111.5 111.5,111.5C 111.5,113.5 111.5,115.5 111.5,117.5C 108.833,117.5 106.167,117.5 103.5,117.5C 103.5,115.5 103.5,113.5 103.5,111.5 Z"/></g>
<g><path style="opacity:1" fill="#767473" d="M 86.5,118.5 C 83.5,118.5 80.5,118.5 77.5,118.5C 77.5,113.833 77.5,109.167 77.5,104.5C 72.1667,104.5 66.8333,104.5 61.5,104.5C 61.5,106.833 61.5,109.167 61.5,111.5C 58.8333,111.5 56.1667,111.5 53.5,111.5C 53.5,118.5 53.5,125.5 53.5,132.5C 53.2213,137.595 53.5546,142.595 54.5,147.5C 52.5583,142.944 51.8917,137.944 52.5,132.5C 52.5,122.833 52.5,113.167 52.5,103.5C 61.1667,103.5 69.8333,103.5 78.5,103.5C 78.5,108.167 78.5,112.833 78.5,117.5C 81.3854,117.194 84.0521,117.527 86.5,118.5 Z"/></g>
<g><path style="opacity:1" fill="#444444" d="M 120.5,103.5 C 120.5,108.5 120.5,113.5 120.5,118.5C 117.833,118.5 115.167,118.5 112.5,118.5C 112.5,120.833 112.5,123.167 112.5,125.5C 112.5,127.833 112.5,130.167 112.5,132.5C 111.514,128.03 111.181,123.363 111.5,118.5C 108.615,118.806 105.948,118.473 103.5,117.5C 106.167,117.5 108.833,117.5 111.5,117.5C 111.5,115.5 111.5,113.5 111.5,111.5C 112.461,113.265 112.795,115.265 112.5,117.5C 114.833,117.5 117.167,117.5 119.5,117.5C 119.181,112.637 119.514,107.97 120.5,103.5 Z"/></g>
<g><path style="opacity:1" fill="#3e3e3e" d="M 128.5,104.5 C 129.485,108.634 129.818,112.968 129.5,117.5C 132.167,117.5 134.833,117.5 137.5,117.5C 137.821,122.695 137.487,127.695 136.5,132.5C 136.5,130.167 136.5,127.833 136.5,125.5C 136.5,123.167 136.5,120.833 136.5,118.5C 133.833,118.5 131.167,118.5 128.5,118.5C 128.5,113.833 128.5,109.167 128.5,104.5 Z"/></g>
<g><path style="opacity:1" fill="#494949" d="M 153.5,104.5 C 154.461,106.265 154.795,108.265 154.5,110.5C 157.167,110.5 159.833,110.5 162.5,110.5C 162.5,112.833 162.5,115.167 162.5,117.5C 165.167,117.5 167.833,117.5 170.5,117.5C 170.5,117.833 170.5,118.167 170.5,118.5C 167.833,118.5 165.167,118.5 162.5,118.5C 162.802,121.059 162.468,123.393 161.5,125.5C 161.5,123.167 161.5,120.833 161.5,118.5C 158.833,118.5 156.167,118.5 153.5,118.5C 153.5,116.167 153.5,113.833 153.5,111.5C 150.615,111.806 147.948,111.473 145.5,110.5C 148.167,110.5 150.833,110.5 153.5,110.5C 153.5,108.5 153.5,106.5 153.5,104.5 Z"/></g>
<g><path style="opacity:1" fill="#878787" d="M 154.5,111.5 C 156.833,111.5 159.167,111.5 161.5,111.5C 161.5,113.5 161.5,115.5 161.5,117.5C 159.167,117.5 156.833,117.5 154.5,117.5C 154.5,115.5 154.5,113.5 154.5,111.5 Z"/></g>
<g><path style="opacity:1" fill="#b3b3b3" d="M 120.5,103.5 C 123.385,103.194 126.052,103.527 128.5,104.5C 128.5,109.167 128.5,113.833 128.5,118.5C 131.167,118.5 133.833,118.5 136.5,118.5C 136.5,120.833 136.5,123.167 136.5,125.5C 128.5,125.5 120.5,125.5 112.5,125.5C 112.5,123.167 112.5,120.833 112.5,118.5C 115.167,118.5 117.833,118.5 120.5,118.5C 120.5,113.5 120.5,108.5 120.5,103.5 Z"/></g>
<g><path style="opacity:1" fill="#3b1922" d="M 185.5,104.5 C 186.167,104.5 186.833,104.5 187.5,104.5C 187.5,113.5 187.5,122.5 187.5,131.5C 186.5,131.5 185.5,131.5 184.5,131.5C 185.471,122.584 185.804,113.584 185.5,104.5 Z"/></g>
<g><path style="opacity:1" fill="#d1d2d1" d="M 178.5,132.5 C 175.833,132.5 173.167,132.5 170.5,132.5C 170.5,137.167 170.5,141.833 170.5,146.5C 167.833,146.5 165.167,146.5 162.5,146.5C 162.5,144.167 162.5,141.833 162.5,139.5C 159.5,139.5 156.5,139.5 153.5,139.5C 153.5,144.5 153.5,149.5 153.5,154.5C 145.167,154.5 136.833,154.5 128.5,154.5C 128.5,152.167 128.5,149.833 128.5,147.5C 131.5,147.5 134.5,147.5 137.5,147.5C 137.5,145.167 137.5,142.833 137.5,140.5C 140.385,140.806 143.052,140.473 145.5,139.5C 145.5,134.833 145.5,130.167 145.5,125.5C 150.833,125.5 156.167,125.5 161.5,125.5C 162.468,123.393 162.802,121.059 162.5,118.5C 165.167,118.5 167.833,118.5 170.5,118.5C 171.486,114.03 171.819,109.363 171.5,104.5C 173.833,104.5 176.167,104.5 178.5,104.5C 178.5,113.833 178.5,123.167 178.5,132.5 Z"/></g>
<g><path style="opacity:1" fill="#7f7f7f" d="M 112.5,125.5 C 120.5,125.5 128.5,125.5 136.5,125.5C 136.5,127.833 136.5,130.167 136.5,132.5C 128.5,132.5 120.5,132.5 112.5,132.5C 112.5,130.167 112.5,127.833 112.5,125.5 Z"/></g>
<g><path style="opacity:1" fill="#171514" d="M 53.5,132.5 C 56.1667,132.5 58.8333,132.5 61.5,132.5C 61.5,137.5 61.5,142.5 61.5,147.5C 64.1667,147.5 66.8333,147.5 69.5,147.5C 69.5,149.833 69.5,152.167 69.5,154.5C 66.8333,154.5 64.1667,154.5 61.5,154.5C 58.8333,154.5 56.1667,154.5 53.5,154.5C 53.3253,152.379 53.6586,150.379 54.5,148.5C 54.5,148.167 54.5,147.833 54.5,147.5C 53.5546,142.595 53.2213,137.595 53.5,132.5 Z"/></g>
<g><path style="opacity:1" fill="#595556" d="M 178.5,132.5 C 178.5,133.167 178.5,133.833 178.5,134.5C 176.283,133.631 173.95,133.298 171.5,133.5C 171.5,137.833 171.5,142.167 171.5,146.5C 173.5,146.5 175.5,146.5 177.5,146.5C 174.728,147.082 172.061,148.082 169.5,149.5C 167.365,147.631 164.698,146.964 161.5,147.5C 161.5,145.167 161.5,142.833 161.5,140.5C 159.167,140.5 156.833,140.5 154.5,140.5C 154.5,145.167 154.5,149.833 154.5,154.5C 154.5,154.833 154.5,155.167 154.5,155.5C 154.167,155.5 153.833,155.5 153.5,155.5C 153.5,155.167 153.5,154.833 153.5,154.5C 153.5,149.5 153.5,144.5 153.5,139.5C 156.5,139.5 159.5,139.5 162.5,139.5C 162.5,141.833 162.5,144.167 162.5,146.5C 165.167,146.5 167.833,146.5 170.5,146.5C 170.5,141.833 170.5,137.167 170.5,132.5C 173.167,132.5 175.833,132.5 178.5,132.5 Z"/></g>
<g><path style="opacity:1" fill="#060606" d="M 169.5,149.5 C 167.824,153.562 168.158,157.229 170.5,160.5C 170.5,160.833 170.5,161.167 170.5,161.5C 167.833,161.5 165.167,161.5 162.5,161.5C 162.802,158.941 162.468,156.607 161.5,154.5C 159.167,154.5 156.833,154.5 154.5,154.5C 154.5,149.833 154.5,145.167 154.5,140.5C 156.833,140.5 159.167,140.5 161.5,140.5C 161.5,142.833 161.5,145.167 161.5,147.5C 164.698,146.964 167.365,147.631 169.5,149.5 Z"/></g>
<g><path style="opacity:1" fill="#575757" d="M 103.5,139.5 C 106.5,139.5 109.5,139.5 112.5,139.5C 112.5,141.833 112.5,144.167 112.5,146.5C 115.385,146.194 118.052,146.527 120.5,147.5C 117.5,147.5 114.5,147.5 111.5,147.5C 111.5,145.167 111.5,142.833 111.5,140.5C 108.615,140.806 105.948,140.473 103.5,139.5 Z"/></g>
<g><path style="opacity:1" fill="#606060" d="M 145.5,139.5 C 143.052,140.473 140.385,140.806 137.5,140.5C 137.5,142.833 137.5,145.167 137.5,147.5C 134.5,147.5 131.5,147.5 128.5,147.5C 130.948,146.527 133.615,146.194 136.5,146.5C 136.5,144.167 136.5,141.833 136.5,139.5C 139.5,139.5 142.5,139.5 145.5,139.5 Z"/></g>
<g><path style="opacity:1" fill="#686868" d="M 78.5,140.5 C 83.9753,139.511 89.642,139.178 95.5,139.5C 95.5,144.5 95.5,149.5 95.5,154.5C 95.5,156.833 95.5,159.167 95.5,161.5C 95.1667,161.5 94.8333,161.5 94.5,161.5C 94.5,159.167 94.5,156.833 94.5,154.5C 94.5,149.833 94.5,145.167 94.5,140.5C 89.1667,140.5 83.8333,140.5 78.5,140.5 Z"/></g>
<g><path style="opacity:1" fill="#1a0c0e" d="M 178.5,134.5 C 178.763,138.6 178.43,142.6 177.5,146.5C 175.5,146.5 173.5,146.5 171.5,146.5C 171.5,142.167 171.5,137.833 171.5,133.5C 173.95,133.298 176.283,133.631 178.5,134.5 Z"/></g>
<g><path style="opacity:1" fill="#252525" d="M 69.5,154.5 C 72.1667,154.5 74.8333,154.5 77.5,154.5C 77.5,156.833 77.5,159.167 77.5,161.5C 75.1667,161.5 72.8333,161.5 70.5,161.5C 70.1667,161.5 69.8333,161.5 69.5,161.5C 69.5,159.167 69.5,156.833 69.5,154.5 Z"/></g>
<g><path style="opacity:1" fill="#dbdad9" d="M 154.5,154.5 C 156.833,154.5 159.167,154.5 161.5,154.5C 161.5,156.833 161.5,159.167 161.5,161.5C 159.167,161.5 156.833,161.5 154.5,161.5C 154.5,159.5 154.5,157.5 154.5,155.5C 154.5,155.167 154.5,154.833 154.5,154.5 Z"/></g>
<g><path style="opacity:1" fill="#b7b7b6" d="M 170.5,160.5 C 172.693,161.895 175.026,162.895 177.5,163.5C 175.167,163.5 172.833,163.5 170.5,163.5C 169.549,164.919 169.216,166.585 169.5,168.5C 167.167,168.5 164.833,168.5 162.5,168.5C 162.5,166.5 162.5,164.5 162.5,162.5C 165.385,162.806 168.052,162.473 170.5,161.5C 170.5,161.167 170.5,160.833 170.5,160.5 Z"/></g>
<g><path style="opacity:1" fill="#787877" d="M 77.5,154.5 C 78.4682,156.607 78.8016,158.941 78.5,161.5C 81.3854,161.194 84.0521,161.527 86.5,162.5C 83.8333,162.5 81.1667,162.5 78.5,162.5C 78.5,164.5 78.5,166.5 78.5,168.5C 81.1667,168.5 83.8333,168.5 86.5,168.5C 89.3854,168.194 92.0521,168.527 94.5,169.5C 92.1667,169.5 89.8333,169.5 87.5,169.5C 87.5,171.5 87.5,173.5 87.5,175.5C 86.5386,173.735 86.2053,171.735 86.5,169.5C 83.5,169.5 80.5,169.5 77.5,169.5C 77.5,171.5 77.5,173.5 77.5,175.5C 75.1667,175.5 72.8333,175.5 70.5,175.5C 70.5,170.833 70.5,166.167 70.5,161.5C 72.8333,161.5 75.1667,161.5 77.5,161.5C 77.5,159.167 77.5,156.833 77.5,154.5 Z"/></g>
<g><path style="opacity:1" fill="#212121" d="M 86.5,162.5 C 86.5,164.5 86.5,166.5 86.5,168.5C 83.8333,168.5 81.1667,168.5 78.5,168.5C 78.5,166.5 78.5,164.5 78.5,162.5C 81.1667,162.5 83.8333,162.5 86.5,162.5 Z"/></g>
<g><path style="opacity:1" fill="#151314" d="M 170.5,163.5 C 172.833,163.5 175.167,163.5 177.5,163.5C 177.187,167.042 177.521,170.375 178.5,173.5C 178.5,174.5 178.5,175.5 178.5,176.5C 175.833,176.5 173.167,176.5 170.5,176.5C 170.5,172.167 170.5,167.833 170.5,163.5 Z"/></g>
<g><path style="opacity:1" fill="#797878" d="M 54.5,148.5 C 53.6586,150.379 53.3253,152.379 53.5,154.5C 53.5,156.833 53.5,159.167 53.5,161.5C 56.1667,161.5 58.8333,161.5 61.5,161.5C 61.5,159.167 61.5,156.833 61.5,154.5C 64.1667,154.5 66.8333,154.5 69.5,154.5C 69.5,156.833 69.5,159.167 69.5,161.5C 66.8806,161.232 64.3806,161.565 62,162.5C 61.5008,167.155 61.3342,171.821 61.5,176.5C 58.5,176.5 55.5,176.5 52.5,176.5C 52.5,178.833 52.5,181.167 52.5,183.5C 47.1667,183.5 41.8333,183.5 36.5,183.5C 36.6657,179.154 36.499,174.821 36,170.5C 33.6194,169.565 31.1194,169.232 28.5,169.5C 28.1667,169.5 27.8333,169.5 27.5,169.5C 29.9479,168.527 32.6146,168.194 35.5,168.5C 35.5,166.167 35.5,163.833 35.5,161.5C 38.8333,161.5 42.1667,161.5 45.5,161.5C 45.2155,159.585 45.5489,157.919 46.5,156.5C 48.2143,155.262 50.2143,154.595 52.5,154.5C 52.0254,151.918 52.6921,149.918 54.5,148.5 Z"/></g>
<g><path style="opacity:1" fill="#17100f" d="M 36.5,162.5 C 39.1667,162.5 41.8333,162.5 44.5,162.5C 44.5,164.833 44.5,167.167 44.5,169.5C 38.4711,170.835 35.8044,168.502 36.5,162.5 Z"/></g>
<g><path style="opacity:1" fill="#b1b2ae" d="M 53.5,154.5 C 56.1667,154.5 58.8333,154.5 61.5,154.5C 61.5,156.833 61.5,159.167 61.5,161.5C 58.8333,161.5 56.1667,161.5 53.5,161.5C 53.5,159.167 53.5,156.833 53.5,154.5 Z"/></g>
<g><path style="opacity:1" fill="#0c060a" d="M 46.5,156.5 C 48.2624,156.643 49.9291,156.309 51.5,155.5C 52.4656,157.396 52.7989,159.396 52.5,161.5C 50.5,161.5 48.5,161.5 46.5,161.5C 46.5,159.833 46.5,158.167 46.5,156.5 Z"/></g>
<g><path style="opacity:1" fill="#d3d3d3" d="M 86.5,118.5 C 86.5,120.833 86.5,123.167 86.5,125.5C 92.1667,125.5 97.8333,125.5 103.5,125.5C 103.5,130.167 103.5,134.833 103.5,139.5C 105.948,140.473 108.615,140.806 111.5,140.5C 111.5,142.833 111.5,145.167 111.5,147.5C 114.5,147.5 117.5,147.5 120.5,147.5C 120.5,149.833 120.5,152.167 120.5,154.5C 112.167,154.5 103.833,154.5 95.5,154.5C 95.5,149.5 95.5,144.5 95.5,139.5C 89.642,139.178 83.9753,139.511 78.5,140.5C 77.5318,142.607 77.1984,144.941 77.5,147.5C 80.5,147.5 83.5,147.5 86.5,147.5C 86.5,149.833 86.5,152.167 86.5,154.5C 89.1667,154.5 91.8333,154.5 94.5,154.5C 94.5,156.833 94.5,159.167 94.5,161.5C 113.993,162.497 133.66,162.83 153.5,162.5C 153.5,164.5 153.5,166.5 153.5,168.5C 150.615,168.194 147.948,168.527 145.5,169.5C 145.5,171.5 145.5,173.5 145.5,175.5C 142.615,175.194 139.948,175.527 137.5,176.5C 136.532,178.607 136.198,180.941 136.5,183.5C 133.833,183.5 131.167,183.5 128.5,183.5C 128.5,185.833 128.5,188.167 128.5,190.5C 131.167,190.5 133.833,190.5 136.5,190.5C 136.5,188.5 136.5,186.5 136.5,184.5C 139.5,184.5 142.5,184.5 145.5,184.5C 145.5,186.5 145.5,188.5 145.5,190.5C 142.881,190.232 140.381,190.565 138,191.5C 137.503,194.146 137.336,196.813 137.5,199.5C 126.167,199.5 114.833,199.5 103.5,199.5C 103.5,196.5 103.5,193.5 103.5,190.5C 106.167,190.5 108.833,190.5 111.5,190.5C 111.5,188.167 111.5,185.833 111.5,183.5C 109.167,183.5 106.833,183.5 104.5,183.5C 104.5,180.833 104.5,178.167 104.5,175.5C 101.5,175.5 98.5,175.5 95.5,175.5C 95.7947,173.265 95.4614,171.265 94.5,169.5C 92.0521,168.527 89.3854,168.194 86.5,168.5C 86.5,166.5 86.5,164.5 86.5,162.5C 84.0521,161.527 81.3854,161.194 78.5,161.5C 78.8016,158.941 78.4682,156.607 77.5,154.5C 74.8333,154.5 72.1667,154.5 69.5,154.5C 69.5,152.167 69.5,149.833 69.5,147.5C 66.8333,147.5 64.1667,147.5 61.5,147.5C 61.5,142.5 61.5,137.5 61.5,132.5C 58.8333,132.5 56.1667,132.5 53.5,132.5C 53.5,125.5 53.5,118.5 53.5,111.5C 56.1667,111.5 58.8333,111.5 61.5,111.5C 61.5,109.167 61.5,106.833 61.5,104.5C 66.8333,104.5 72.1667,104.5 77.5,104.5C 77.5,109.167 77.5,113.833 77.5,118.5C 80.5,118.5 83.5,118.5 86.5,118.5 Z"/></g>
<g><path style="opacity:1" fill="#5a5a5a" d="M 78.5,140.5 C 78.5,142.5 78.5,144.5 78.5,146.5C 81.3854,146.194 84.0521,146.527 86.5,147.5C 83.5,147.5 80.5,147.5 77.5,147.5C 77.1984,144.941 77.5318,142.607 78.5,140.5 Z"/></g>
<g><path style="opacity:1" fill="#060606" d="M 78.5,140.5 C 83.8333,140.5 89.1667,140.5 94.5,140.5C 94.5,145.167 94.5,149.833 94.5,154.5C 91.8333,154.5 89.1667,154.5 86.5,154.5C 86.5,152.167 86.5,149.833 86.5,147.5C 84.0521,146.527 81.3854,146.194 78.5,146.5C 78.5,144.5 78.5,142.5 78.5,140.5 Z"/></g>
<g><path style="opacity:1" fill="#4f4f4f" d="M 145.5,169.5 C 148.167,169.5 150.833,169.5 153.5,169.5C 153.5,171.5 153.5,173.5 153.5,175.5C 151.167,175.5 148.833,175.5 146.5,175.5C 146.167,175.5 145.833,175.5 145.5,175.5C 145.5,173.5 145.5,171.5 145.5,169.5 Z"/></g>
<g><path style="opacity:1" fill="#070509" d="M 180.5,177.5 C 182.167,177.5 183.833,177.5 185.5,177.5C 185.5,184.833 185.5,192.167 185.5,199.5C 183.5,199.5 181.5,199.5 179.5,199.5C 179.175,191.981 179.508,184.648 180.5,177.5 Z"/></g>
<g><path style="opacity:1" fill="#6f4752" d="M 27.5,169.5 C 27.8333,169.5 28.1667,169.5 28.5,169.5C 28.1805,174.363 28.5139,179.03 29.5,183.5C 29.1667,184.167 28.8333,184.833 28.5,185.5C 25.9455,184.612 23.2788,184.279 20.5,184.5C 20.5,188.833 20.5,193.167 20.5,197.5C 20.1667,197.5 19.8333,197.5 19.5,197.5C 19.5,192.833 19.5,188.167 19.5,183.5C 22.1667,183.5 24.8333,183.5 27.5,183.5C 27.5,178.833 27.5,174.167 27.5,169.5 Z"/></g>
<g><path style="opacity:1" fill="#ababab" d="M 69.5,161.5 C 69.8333,161.5 70.1667,161.5 70.5,161.5C 70.5,166.167 70.5,170.833 70.5,175.5C 72.8333,175.5 75.1667,175.5 77.5,175.5C 77.5,173.5 77.5,171.5 77.5,169.5C 80.5,169.5 83.5,169.5 86.5,169.5C 86.2053,171.735 86.5386,173.735 87.5,175.5C 89.8333,175.5 92.1667,175.5 94.5,175.5C 94.5,173.5 94.5,171.5 94.5,169.5C 95.4614,171.265 95.7947,173.265 95.5,175.5C 98.5,175.5 101.5,175.5 104.5,175.5C 104.5,178.167 104.5,180.833 104.5,183.5C 106.833,183.5 109.167,183.5 111.5,183.5C 111.5,185.833 111.5,188.167 111.5,190.5C 108.833,190.5 106.167,190.5 103.5,190.5C 103.5,193.5 103.5,196.5 103.5,199.5C 95.1667,199.5 86.8333,199.5 78.5,199.5C 78.5,196.5 78.5,193.5 78.5,190.5C 75.8333,190.5 73.1667,190.5 70.5,190.5C 70.8016,187.941 70.4682,185.607 69.5,183.5C 63.8333,183.5 58.1667,183.5 52.5,183.5C 52.5,181.167 52.5,178.833 52.5,176.5C 55.5,176.5 58.5,176.5 61.5,176.5C 61.3342,171.821 61.5008,167.155 62,162.5C 64.3806,161.565 66.8806,161.232 69.5,161.5 Z"/></g>
<g><path style="opacity:1" fill="#7a7a7a" d="M 78.5,190.5 C 78.5,185.833 78.5,181.167 78.5,176.5C 84.9271,174.762 87.5938,177.095 86.5,183.5C 89.1667,183.5 91.8333,183.5 94.5,183.5C 94.5,188.167 94.5,192.833 94.5,197.5C 92.1667,197.5 89.8333,197.5 87.5,197.5C 87.5,195.167 87.5,192.833 87.5,190.5C 84.5,190.5 81.5,190.5 78.5,190.5 Z"/></g>
<g><path style="opacity:1" fill="#525252" d="M 95.5,176.5 C 98.1667,176.5 100.833,176.5 103.5,176.5C 103.5,178.833 103.5,181.167 103.5,183.5C 100.833,183.5 98.1667,183.5 95.5,183.5C 95.5,181.167 95.5,178.833 95.5,176.5 Z"/></g>
<g><path style="opacity:1" fill="#4a4a4a" d="M 94.5,169.5 C 94.5,171.5 94.5,173.5 94.5,175.5C 92.1667,175.5 89.8333,175.5 87.5,175.5C 87.5,173.5 87.5,171.5 87.5,169.5C 89.8333,169.5 92.1667,169.5 94.5,169.5 Z"/></g>
<g><path style="opacity:1" fill="#b1b1b1" d="M 162.5,199.5 C 154.167,199.5 145.833,199.5 137.5,199.5C 137.336,196.813 137.503,194.146 138,191.5C 140.381,190.565 142.881,190.232 145.5,190.5C 145.5,188.5 145.5,186.5 145.5,184.5C 142.5,184.5 139.5,184.5 136.5,184.5C 136.5,186.5 136.5,188.5 136.5,190.5C 133.833,190.5 131.167,190.5 128.5,190.5C 128.5,188.167 128.5,185.833 128.5,183.5C 131.167,183.5 133.833,183.5 136.5,183.5C 136.198,180.941 136.532,178.607 137.5,176.5C 139.948,175.527 142.615,175.194 145.5,175.5C 145.833,175.5 146.167,175.5 146.5,175.5C 148.948,176.473 151.615,176.806 154.5,176.5C 154.5,174.167 154.5,171.833 154.5,169.5C 157.167,169.5 159.833,169.5 162.5,169.5C 162.5,174.167 162.5,178.833 162.5,183.5C 159.833,183.5 157.167,183.5 154.5,183.5C 154.5,188.167 154.5,192.833 154.5,197.5C 157.698,196.964 160.365,197.631 162.5,199.5 Z"/></g>
<g><path style="opacity:1" fill="#4f4f4f" d="M 137.5,176.5 C 140.167,176.5 142.833,176.5 145.5,176.5C 145.5,178.833 145.5,181.167 145.5,183.5C 142.833,183.5 140.167,183.5 137.5,183.5C 137.5,181.167 137.5,178.833 137.5,176.5 Z"/></g>
<g><path style="opacity:1" fill="#5b5959" d="M 29.5,183.5 C 31.5,183.5 33.5,183.5 35.5,183.5C 35.5,185.833 35.5,188.167 35.5,190.5C 33.1667,190.5 30.8333,190.5 28.5,190.5C 28.5,188.833 28.5,187.167 28.5,185.5C 28.8333,184.833 29.1667,184.167 29.5,183.5 Z"/></g>
<g><path style="opacity:1" fill="#0e0909" d="M 28.5,169.5 C 31.1194,169.232 33.6194,169.565 36,170.5C 36.499,174.821 36.6657,179.154 36.5,183.5C 41.8333,183.5 47.1667,183.5 52.5,183.5C 58.1667,183.5 63.8333,183.5 69.5,183.5C 69.5,185.833 69.5,188.167 69.5,190.5C 58.5,190.5 47.5,190.5 36.5,190.5C 36.5,193.5 36.5,196.5 36.5,199.5C 33.5,199.5 30.5,199.5 27.5,199.5C 25.2854,198.732 22.9521,198.065 20.5,197.5C 20.5,193.167 20.5,188.833 20.5,184.5C 23.2788,184.279 25.9455,184.612 28.5,185.5C 28.5,187.167 28.5,188.833 28.5,190.5C 30.8333,190.5 33.1667,190.5 35.5,190.5C 35.5,188.167 35.5,185.833 35.5,183.5C 33.5,183.5 31.5,183.5 29.5,183.5C 28.5139,179.03 28.1805,174.363 28.5,169.5 Z"/></g>
<g><path style="opacity:1" fill="#7b7c7b" d="M 161.5,154.5 C 162.468,156.607 162.802,158.941 162.5,161.5C 165.167,161.5 167.833,161.5 170.5,161.5C 168.052,162.473 165.385,162.806 162.5,162.5C 162.5,164.5 162.5,166.5 162.5,168.5C 164.833,168.5 167.167,168.5 169.5,168.5C 169.216,166.585 169.549,164.919 170.5,163.5C 170.5,167.833 170.5,172.167 170.5,176.5C 173.167,176.5 175.833,176.5 178.5,176.5C 178.5,175.5 178.5,174.5 178.5,173.5C 179.674,174.514 180.34,175.847 180.5,177.5C 179.508,184.648 179.175,191.981 179.5,199.5C 179.167,199.5 178.833,199.5 178.5,199.5C 178.5,196.5 178.5,193.5 178.5,190.5C 175.833,190.5 173.167,190.5 170.5,190.5C 170.5,193.5 170.5,196.5 170.5,199.5C 167.833,199.5 165.167,199.5 162.5,199.5C 160.365,197.631 157.698,196.964 154.5,197.5C 154.5,192.833 154.5,188.167 154.5,183.5C 157.167,183.5 159.833,183.5 162.5,183.5C 162.5,178.833 162.5,174.167 162.5,169.5C 159.833,169.5 157.167,169.5 154.5,169.5C 154.5,171.833 154.5,174.167 154.5,176.5C 151.615,176.806 148.948,176.473 146.5,175.5C 148.833,175.5 151.167,175.5 153.5,175.5C 153.5,173.5 153.5,171.5 153.5,169.5C 150.833,169.5 148.167,169.5 145.5,169.5C 147.948,168.527 150.615,168.194 153.5,168.5C 153.5,166.5 153.5,164.5 153.5,162.5C 133.66,162.83 113.993,162.497 94.5,161.5C 94.8333,161.5 95.1667,161.5 95.5,161.5C 114.833,161.5 134.167,161.5 153.5,161.5C 153.5,159.5 153.5,157.5 153.5,155.5C 153.833,155.5 154.167,155.5 154.5,155.5C 154.5,157.5 154.5,159.5 154.5,161.5C 156.833,161.5 159.167,161.5 161.5,161.5C 161.5,159.167 161.5,156.833 161.5,154.5 Z"/></g>
<g><path style="opacity:1" fill="#b4b4b3" d="M 178.5,199.5 C 175.833,199.5 173.167,199.5 170.5,199.5C 170.5,196.5 170.5,193.5 170.5,190.5C 173.167,190.5 175.833,190.5 178.5,190.5C 178.5,193.5 178.5,196.5 178.5,199.5 Z"/></g>
<g><path style="opacity:1" fill="#181818" d="M 154.5,162.5 C 156.833,162.5 159.167,162.5 161.5,162.5C 161.5,164.5 161.5,166.5 161.5,168.5C 159.167,168.5 156.833,168.5 154.5,168.5C 154.5,166.5 154.5,164.5 154.5,162.5 Z"/></g>
<g><path style="opacity:1" fill="#787878" d="M 69.5,183.5 C 70.4682,185.607 70.8016,187.941 70.5,190.5C 73.1667,190.5 75.8333,190.5 78.5,190.5C 78.5,193.5 78.5,196.5 78.5,199.5C 78.1667,199.5 77.8333,199.5 77.5,199.5C 77.5,196.833 77.5,194.167 77.5,191.5C 75.1667,191.5 72.8333,191.5 70.5,191.5C 70.7947,193.735 70.4614,195.735 69.5,197.5C 69.5,198.167 69.5,198.833 69.5,199.5C 58.5,199.5 47.5,199.5 36.5,199.5C 36.5,196.5 36.5,193.5 36.5,190.5C 47.5,190.5 58.5,190.5 69.5,190.5C 69.5,188.167 69.5,185.833 69.5,183.5 Z"/></g>
<g><path style="opacity:1" fill="#b7b7b7" d="M 44.5,191.5 C 47.1667,191.5 49.8333,191.5 52.5,191.5C 52.5,193.5 52.5,195.5 52.5,197.5C 49.8333,197.5 47.1667,197.5 44.5,197.5C 44.5,195.5 44.5,193.5 44.5,191.5 Z"/></g>
<g><path style="opacity:1" fill="#020202" d="M 77.5,199.5 C 74.8333,199.5 72.1667,199.5 69.5,199.5C 69.5,198.833 69.5,198.167 69.5,197.5C 70.4614,195.735 70.7947,193.735 70.5,191.5C 72.8333,191.5 75.1667,191.5 77.5,191.5C 77.5,194.167 77.5,196.833 77.5,199.5 Z"/></g>
<g><path style="opacity:1" fill="#bbbbbb" d="M 69.5,197.5 C 66.8333,197.5 64.1667,197.5 61.5,197.5C 61.5,195.5 61.5,193.5 61.5,191.5C 64.1667,191.5 66.8333,191.5 69.5,191.5C 69.5,193.5 69.5,195.5 69.5,197.5 Z"/></g>
<g><path style="opacity:1" fill="#896d73" d="M 19.5,197.5 C 19.8333,197.5 20.1667,197.5 20.5,197.5C 22.9521,198.065 25.2854,198.732 27.5,199.5C 21.8333,199.5 16.1667,199.5 10.5,199.5C 12.9878,197.612 15.9878,196.945 19.5,197.5 Z"/></g>
</svg>
