<?xml version="1.0" encoding="UTF-8"?>
<!DOCTYPE svg PUBLIC "-//W3C//DTD SVG 1.1//EN" "http://www.w3.org/Graphics/SVG/1.1/DTD/svg11.dtd">
<svg xmlns="http://www.w3.org/2000/svg" version="1.1" width="96px" height="96px" style="shape-rendering:geometricPrecision; text-rendering:geometricPrecision; image-rendering:optimizeQuality; fill-rule:evenodd; clip-rule:evenodd" xmlns:xlink="http://www.w3.org/1999/xlink">
<g><path style="opacity:1" fill="#faf9fa" d="M 76.5,9.5 C 78.7851,12.4518 81.4517,15.1185 84.5,17.5C 86.2624,18.2623 87.2624,19.5956 87.5,21.5C 87.7497,23.674 88.7497,25.3406 90.5,26.5C 91.9313,27.7804 92.5979,29.4471 92.5,31.5C 92.2594,33.8984 92.9261,35.8984 94.5,37.5C 94.5,38.1667 94.8333,38.5 95.5,38.5C 95.5,43.5 95.5,48.5 95.5,53.5C 93.0539,58.9174 91.0539,64.5841 89.5,70.5C 88.0937,70.9731 87.427,71.9731 87.5,73.5C 86.0937,73.9731 85.427,74.9731 85.5,76.5C 85.1667,77.5 84.5,78.1667 83.5,78.5C 81.5,79.8333 79.8333,81.5 78.5,83.5C 78.1667,84.5 77.5,85.1667 76.5,85.5C 74.9731,85.427 73.9731,86.0937 73.5,87.5C 73.1583,88.3382 72.4916,88.6716 71.5,88.5C 67.6456,89.9302 63.9789,91.5969 60.5,93.5C 53.5244,94.2316 46.5244,94.5649 39.5,94.5C 36.4954,92.7234 33.1621,91.7234 29.5,91.5C 28.4863,90.3263 27.153,89.6596 25.5,89.5C 24.5084,89.6716 23.8417,89.3382 23.5,88.5C 23.0269,87.0937 22.0269,86.427 20.5,86.5C 19.7377,84.7376 18.4044,83.7376 16.5,83.5C 14.1667,81.8333 12.1667,79.8333 10.5,77.5C 10.573,75.9731 9.90632,74.9731 8.5,74.5C 4.84775,70.1916 2.51442,65.1916 1.5,59.5C 1.31953,50.4719 1.65287,41.4719 2.5,32.5C 5.19982,22.952 10.5332,15.1186 18.5,9C 22.3088,5.76226 26.6421,3.5956 31.5,2.5C 42.9739,-0.524282 54.3073,-0.0242816 65.5,4C 69.2198,5.85989 72.8864,7.69322 76.5,9.5 Z"/></g>
<g><path style="opacity:0.533" fill="#878787" d="M 38.5,-0.5 C 44.5,-0.5 50.5,-0.5 56.5,-0.5C 63.9616,1.23082 70.6283,4.56416 76.5,9.5C 72.8864,7.69322 69.2198,5.85989 65.5,4C 54.3073,-0.0242816 42.9739,-0.524282 31.5,2.5C 33.7791,1.3485 36.1124,0.348502 38.5,-0.5 Z"/></g>
<g><path style="opacity:0.016" fill="#898989" d="M 76.5,9.5 C 80.1884,11.1884 82.8551,13.855 84.5,17.5C 81.4517,15.1185 78.7851,12.4518 76.5,9.5 Z"/></g>
<g><path style="opacity:1" fill="#b376fe" d="M 59.5,20.5 C 57.9826,20.5106 56.8159,21.1772 56,22.5C 53.0262,26.4026 50.1929,30.4026 47.5,34.5C 47.1667,34.5 46.8333,34.5 46.5,34.5C 46.5,34.1667 46.5,33.8333 46.5,33.5C 45.5796,27.9862 43.2463,23.1529 39.5,19C 42.0972,18.2208 42.0972,17.7208 39.5,17.5C 45.442,14.785 51.442,14.9516 57.5,18C 58.3805,18.7083 59.0472,19.5416 59.5,20.5 Z"/></g>
<g><path style="opacity:0.933" fill="#858585" d="M 87.5,21.5 C 89.2503,22.6594 90.2503,24.326 90.5,26.5C 88.7497,25.3406 87.7497,23.674 87.5,21.5 Z"/></g>
<g><path style="opacity:1" fill="#a261fe" d="M 39.5,17.5 C 42.0972,17.7208 42.0972,18.2208 39.5,19C 43.2463,23.1529 45.5796,27.9862 46.5,33.5C 41.6608,31.8303 37.1608,29.497 33,26.5C 33.5465,23.9067 35.0465,21.7401 37.5,20C 37.2716,19.6012 36.9382,19.4346 36.5,19.5C 37.2905,18.5987 38.2905,17.9321 39.5,17.5 Z"/></g>
<g><path style="opacity:1" fill="#c892fe" d="M 59.5,20.5 C 65.3257,24.5105 67.659,30.1772 66.5,37.5C 65.596,36.791 65.2627,35.791 65.5,34.5C 60.8215,34.3342 56.1548,34.5008 51.5,35C 50.5842,35.2784 49.9175,35.7784 49.5,36.5C 48.5,36.1667 47.8333,35.5 47.5,34.5C 50.1929,30.4026 53.0262,26.4026 56,22.5C 56.8159,21.1772 57.9826,20.5106 59.5,20.5 Z"/></g>
<g><path style="opacity:0.976" fill="#7c7c7c" d="M 92.5,31.5 C 93.7384,33.2143 94.405,35.2143 94.5,37.5C 92.9261,35.8984 92.2594,33.8984 92.5,31.5 Z"/></g>
<g><path style="opacity:1" fill="#9250fe" d="M 36.5,19.5 C 36.9382,19.4346 37.2716,19.6012 37.5,20C 35.0465,21.7401 33.5465,23.9067 33,26.5C 37.1608,29.497 41.6608,31.8303 46.5,33.5C 46.5,33.8333 46.5,34.1667 46.5,34.5C 41.8741,35.3398 37.2074,36.5065 32.5,38C 31.7334,39.4705 31.0668,40.9705 30.5,42.5C 26.4633,33.3249 28.4633,25.6583 36.5,19.5 Z"/></g>
<g><path style="opacity:1" fill="#7c3cfd" d="M 46.5,34.5 C 46.8333,34.5 47.1667,34.5 47.5,34.5C 47.8333,35.5 48.5,36.1667 49.5,36.5C 49.5,36.8333 49.5,37.1667 49.5,37.5C 44.5584,41.1028 39.8918,45.1028 35.5,49.5C 34.8333,49.1667 34.1667,48.8333 33.5,48.5C 31.9752,46.7837 30.9752,44.7837 30.5,42.5C 31.0668,40.9705 31.7334,39.4705 32.5,38C 37.2074,36.5065 41.8741,35.3398 46.5,34.5 Z"/></g>
<g><path style="opacity:1" fill="#5521cc" d="M 49.5,37.5 C 53.5,41.1667 57.5,44.8333 61.5,48.5C 62.925,49.922 63.925,51.5887 64.5,53.5C 61.9467,54.7806 59.28,56.6139 56.5,59C 53.4535,59.7388 50.4535,60.5721 47.5,61.5C 43.1667,57.8333 39.1667,53.8333 35.5,49.5C 39.8918,45.1028 44.5584,41.1028 49.5,37.5 Z"/></g>
<g><path style="opacity:1" fill="#d5a9fd" d="M 66.5,37.5 C 66.1672,41.815 64.5005,45.4817 61.5,48.5C 57.5,44.8333 53.5,41.1667 49.5,37.5C 49.5,37.1667 49.5,36.8333 49.5,36.5C 49.9175,35.7784 50.5842,35.2784 51.5,35C 56.1548,34.5008 60.8215,34.3342 65.5,34.5C 65.2627,35.791 65.596,36.791 66.5,37.5 Z"/></g>
<g><path style="opacity:1" fill="#989898" d="M 2.5,32.5 C 1.65287,41.4719 1.31953,50.4719 1.5,59.5C 0.833333,57.8333 0.166667,56.1667 -0.5,54.5C -0.5,49.8333 -0.5,45.1667 -0.5,40.5C 0.251327,37.754 1.25133,35.0873 2.5,32.5 Z"/></g>
<g><path style="opacity:1" fill="#3f169f" d="M 33.5,48.5 C 34.1667,48.8333 34.8333,49.1667 35.5,49.5C 39.1667,53.8333 43.1667,57.8333 47.5,61.5C 44.8478,67.474 42.1812,73.474 39.5,79.5C 30.6187,74.3981 27.1187,66.7315 29,56.5C 30.2587,53.6441 31.7587,50.9774 33.5,48.5 Z"/></g>
<g><path style="opacity:0.725" fill="#696969" d="M 95.5,53.5 C 95.5,54.5 95.5,55.5 95.5,56.5C 94.0871,61.4015 92.0871,66.0681 89.5,70.5C 91.0539,64.5841 93.0539,58.9174 95.5,53.5 Z"/></g>
<g><path style="opacity:1" fill="#4a1db4" d="M 64.5,53.5 C 69.5054,66.9561 65.172,76.1227 51.5,81C 47.2686,81.9195 43.2686,81.4195 39.5,79.5C 42.1812,73.474 44.8478,67.474 47.5,61.5C 50.4535,60.5721 53.4535,59.7388 56.5,59C 59.28,56.6139 61.9467,54.7806 64.5,53.5 Z"/></g>
<g><path style="opacity:0.263" fill="#2c2c2c" d="M 89.5,70.5 C 89.573,72.0269 88.9063,73.0269 87.5,73.5C 87.427,71.9731 88.0937,70.9731 89.5,70.5 Z"/></g>
<g><path style="opacity:0.212" fill="#313131" d="M 87.5,73.5 C 87.573,75.0269 86.9063,76.0269 85.5,76.5C 85.427,74.9731 86.0937,73.9731 87.5,73.5 Z"/></g>
<g><path style="opacity:0.18" fill="#313131" d="M 8.5,74.5 C 9.90632,74.9731 10.573,75.9731 10.5,77.5C 9.09368,77.0269 8.42702,76.0269 8.5,74.5 Z"/></g>
<g><path style="opacity:0.051" fill="#242424" d="M 83.5,78.5 C 82.8333,81.1667 81.1667,82.8333 78.5,83.5C 79.8333,81.5 81.5,79.8333 83.5,78.5 Z"/></g>
<g><path style="opacity:0.976" fill="#4f4f4f" d="M 16.5,83.5 C 18.4044,83.7376 19.7377,84.7376 20.5,86.5C 18.5956,86.2624 17.2623,85.2624 16.5,83.5 Z"/></g>
<g><path style="opacity:0.031" fill="#1b1b1b" d="M 76.5,85.5 C 76.0269,86.9063 75.0269,87.573 73.5,87.5C 73.9731,86.0937 74.9731,85.427 76.5,85.5 Z"/></g>
<g><path style="opacity:0.624" fill="#404040" d="M 20.5,86.5 C 22.0269,86.427 23.0269,87.0937 23.5,88.5C 21.9731,88.573 20.9731,87.9063 20.5,86.5 Z"/></g>
<g><path style="opacity:0.165" fill="#2f2f2f" d="M 25.5,89.5 C 27.153,89.6596 28.4863,90.3263 29.5,91.5C 27.6203,91.7709 26.287,91.1042 25.5,89.5 Z"/></g>
<g><path style="opacity:1" fill="#555555" d="M 29.5,91.5 C 33.1621,91.7234 36.4954,92.7234 39.5,94.5C 35.7858,94.4098 32.4525,93.4098 29.5,91.5 Z"/></g>
<g><path style="opacity:0.155" fill="#313131" d="M 71.5,88.5 C 68.5191,91.4876 64.8524,93.1543 60.5,93.5C 63.9789,91.5969 67.6456,89.9302 71.5,88.5 Z"/></g>
<g><path style="opacity:0.086" fill="#262626" d="M 60.5,93.5 C 58.8333,94.1667 57.1667,94.8333 55.5,95.5C 50.1667,95.5 44.8333,95.5 39.5,95.5C 39.5,95.1667 39.5,94.8333 39.5,94.5C 46.5244,94.5649 53.5244,94.2316 60.5,93.5 Z"/></g>
</svg>
