<?xml version="1.0" encoding="UTF-8"?>
<!DOCTYPE svg PUBLIC "-//W3C//DTD SVG 1.1//EN" "http://www.w3.org/Graphics/SVG/1.1/DTD/svg11.dtd">
<svg xmlns="http://www.w3.org/2000/svg" version="1.1" width="96px" height="96px" style="shape-rendering:geometricPrecision; text-rendering:geometricPrecision; image-rendering:optimizeQuality; fill-rule:evenodd; clip-rule:evenodd" xmlns:xlink="http://www.w3.org/1999/xlink">
<g><path style="opacity:0.972" fill="#fefdfe" d="M 37.5,-0.5 C 44.1667,-0.5 50.8333,-0.5 57.5,-0.5C 77.1667,5.16667 89.8333,17.8333 95.5,37.5C 95.5,44.1667 95.5,50.8333 95.5,57.5C 89.8333,77.1667 77.1667,89.8333 57.5,95.5C 50.8333,95.5 44.1667,95.5 37.5,95.5C 17.3876,89.7214 4.72097,76.7214 -0.5,56.5C -0.5,50.5 -0.5,44.5 -0.5,38.5C 4.72484,18.2749 17.3915,5.27486 37.5,-0.5 Z"/></g>
<g><path style="opacity:1" fill="#3138f6" d="M 37.5,26.5 C 37.1667,27.1667 36.8333,27.8333 36.5,28.5C 34.3101,27.0252 32.9767,25.0252 32.5,22.5C 31.6522,21.375 30.6522,21.375 29.5,22.5C 28.8826,22.6107 28.3826,22.944 28,23.5C 27.7679,22.2625 27.2679,21.2625 26.5,20.5C 25.791,19.596 24.791,19.2627 23.5,19.5C 23.0882,21.9726 24.0882,23.3059 26.5,23.5C 26.5,24.1667 26.8333,24.5 27.5,24.5C 30.8075,29.4822 34.1408,34.4822 37.5,39.5C 36.8843,40.2022 36.8843,41.2022 37.5,42.5C 30.7325,34.4953 24.0659,26.3287 17.5,18C 27.0277,14.9152 33.6944,17.7485 37.5,26.5 Z"/></g>
<g><path style="opacity:1" fill="#eae9fe" d="M 32.5,22.5 C 32.5,23.5 32.5,24.5 32.5,25.5C 30.5,25.5 29.5,24.5 29.5,22.5C 30.6522,21.375 31.6522,21.375 32.5,22.5 Z"/></g>
<g><path style="opacity:1" fill="#e6e7ff" d="M 26.5,20.5 C 26.5,21.5 26.5,22.5 26.5,23.5C 24.0882,23.3059 23.0882,21.9726 23.5,19.5C 24.791,19.2627 25.791,19.596 26.5,20.5 Z"/></g>
<g><path style="opacity:1" fill="#f84c4e" d="M 64.5,34.5 C 63.5222,34.189 62.8555,33.5223 62.5,32.5C 64.7686,29.6148 66.7686,26.6148 68.5,23.5C 67.5,24.1667 66.5,24.8333 65.5,25.5C 65.7778,23.6536 65.1112,22.3202 63.5,21.5C 62.1408,22.6243 61.1408,23.9577 60.5,25.5C 60.5,24.5 60.5,23.5 60.5,22.5C 61.1175,20.7708 62.1175,19.2708 63.5,18C 68.1667,17.3333 72.8333,17.3333 77.5,18C 73.2786,23.6211 68.9453,29.1211 64.5,34.5 Z"/></g>
<g><path style="opacity:1" fill="#ffe9e8" d="M 68.5,23.5 C 68.238,22.0222 68.5713,20.6888 69.5,19.5C 71.1112,20.3202 71.7778,21.6536 71.5,23.5C 70.5,23.5 69.5,23.5 68.5,23.5 Z"/></g>
<g><path style="opacity:1" fill="#5137d6" d="M 26.5,20.5 C 27.2679,21.2625 27.7679,22.2625 28,23.5C 28.3826,22.944 28.8826,22.6107 29.5,22.5C 29.5,24.5 30.5,25.5 32.5,25.5C 34.4354,29.7066 37.1021,33.3733 40.5,36.5C 41.9213,39.0094 43.5879,41.3428 45.5,43.5C 45.6716,44.4916 45.3382,45.1583 44.5,45.5C 39.1822,38.1858 33.5155,31.1858 27.5,24.5C 26.8333,24.5 26.5,24.1667 26.5,23.5C 26.5,22.5 26.5,21.5 26.5,20.5 Z"/></g>
<g><path style="opacity:1" fill="#b5acf0" d="M 32.5,22.5 C 32.9767,25.0252 34.3101,27.0252 36.5,28.5C 37.8333,30.8333 39.1667,33.1667 40.5,35.5C 40.5,35.8333 40.5,36.1667 40.5,36.5C 37.1021,33.3733 34.4354,29.7066 32.5,25.5C 32.5,24.5 32.5,23.5 32.5,22.5 Z"/></g>
<g><path style="opacity:1" fill="#6740c8" d="M 37.5,26.5 C 39.984,28.8003 41.984,31.4669 43.5,34.5C 43.5,35.5 43.5,36.5 43.5,37.5C 42.5,36.8333 41.5,36.1667 40.5,35.5C 39.1667,33.1667 37.8333,30.8333 36.5,28.5C 36.8333,27.8333 37.1667,27.1667 37.5,26.5 Z"/></g>
<g><path style="opacity:1" fill="#b14487" d="M 60.5,22.5 C 60.5,23.5 60.5,24.5 60.5,25.5C 57.5475,30.4503 54.2141,35.117 50.5,39.5C 50.7373,38.209 50.404,37.209 49.5,36.5C 52.6954,31.4313 56.3621,26.7646 60.5,22.5 Z"/></g>
<g><path style="opacity:1" fill="#e2697f" d="M 68.5,23.5 C 66.7686,26.6148 64.7686,29.6148 62.5,32.5C 62.8555,33.5223 63.5222,34.189 64.5,34.5C 62.7267,37.0599 60.7267,39.3932 58.5,41.5C 58.5,40.5 58.5,39.5 58.5,38.5C 58.6716,37.5084 58.3382,36.8417 57.5,36.5C 57.5,35.5 57.5,34.5 57.5,33.5C 58.7765,31.05 60.2765,28.7167 62,26.5C 63.0113,25.6634 64.1779,25.33 65.5,25.5C 66.5,24.8333 67.5,24.1667 68.5,23.5 Z"/></g>
<g><path style="opacity:1" fill="#8b40a5" d="M 43.5,34.5 C 45.1454,35.4787 46.4787,36.812 47.5,38.5C 48.1818,37.7573 48.8485,37.0906 49.5,36.5C 50.404,37.209 50.7373,38.209 50.5,39.5C 47.3395,43.4598 45.0062,42.7932 43.5,37.5C 43.5,36.5 43.5,35.5 43.5,34.5 Z"/></g>
<g><path style="opacity:1" fill="#d5cdf5" d="M 27.5,24.5 C 33.5155,31.1858 39.1822,38.1858 44.5,45.5C 45.4124,46.7382 45.5791,48.0715 45,49.5C 43.6244,50.7051 42.4577,52.0384 41.5,53.5C 39.0584,56.729 36.3918,59.729 33.5,62.5C 36.6023,57.5545 39.9356,52.7212 43.5,48C 42.0401,44.7194 40.0401,41.8861 37.5,39.5C 34.1408,34.4822 30.8075,29.4822 27.5,24.5 Z"/></g>
<g><path style="opacity:1" fill="#eed2e2" d="M 65.5,25.5 C 64.1779,25.33 63.0113,25.6634 62,26.5C 60.2765,28.7167 58.7765,31.05 57.5,33.5C 54.1578,36.9922 51.1578,40.8255 48.5,45C 47.212,45.2387 46.212,44.7387 45.5,43.5C 43.5879,41.3428 41.9213,39.0094 40.5,36.5C 40.5,36.1667 40.5,35.8333 40.5,35.5C 41.5,36.1667 42.5,36.8333 43.5,37.5C 45.0062,42.7932 47.3395,43.4598 50.5,39.5C 54.2141,35.117 57.5475,30.4503 60.5,25.5C 61.1408,23.9577 62.1408,22.6243 63.5,21.5C 65.1112,22.3202 65.7778,23.6536 65.5,25.5 Z"/></g>
<g><path style="opacity:1" fill="#98429c" d="M 57.5,33.5 C 57.5,34.5 57.5,35.5 57.5,36.5C 54.649,40.1879 51.9823,44.0212 49.5,48C 50.3146,49.6434 51.3146,51.1434 52.5,52.5C 52.5,53.1667 52.5,53.8333 52.5,54.5C 50.5212,53.1879 48.8545,51.5212 47.5,49.5C 46.0476,50.9397 45.0476,52.6064 44.5,54.5C 43.8333,54.8333 43.1667,55.1667 42.5,55.5C 42.6716,54.5084 42.3382,53.8417 41.5,53.5C 42.4577,52.0384 43.6244,50.7051 45,49.5C 45.5791,48.0715 45.4124,46.7382 44.5,45.5C 45.3382,45.1583 45.6716,44.4916 45.5,43.5C 46.212,44.7387 47.212,45.2387 48.5,45C 51.1578,40.8255 54.1578,36.9922 57.5,33.5 Z"/></g>
<g><path style="opacity:1" fill="#b54584" d="M 58.5,38.5 C 58.5,39.5 58.5,40.5 58.5,41.5C 57.5849,43.7541 56.2516,45.7541 54.5,47.5C 55.5244,48.8518 56.5244,50.1851 57.5,51.5C 56.5,51.8333 55.8333,52.5 55.5,53.5C 54.0154,51.8379 52.6821,50.0046 51.5,48C 53.2965,44.3799 55.6298,41.2132 58.5,38.5 Z"/></g>
<g><path style="opacity:1" fill="#f2deea" d="M 57.5,36.5 C 58.3382,36.8417 58.6716,37.5084 58.5,38.5C 55.6298,41.2132 53.2965,44.3799 51.5,48C 52.6821,50.0046 54.0154,51.8379 55.5,53.5C 56.6005,54.6049 57.2671,55.9382 57.5,57.5C 55.4727,56.1394 53.806,54.4727 52.5,52.5C 51.3146,51.1434 50.3146,49.6434 49.5,48C 51.9823,44.0212 54.649,40.1879 57.5,36.5 Z"/></g>
<g><path style="opacity:1" fill="#ecd9ea" d="M 52.5,54.5 C 53.6841,56.4634 54.5174,58.4634 55,60.5C 52.8169,58.0929 50.6503,55.7596 48.5,53.5C 48.44,52.9569 48.1067,52.6236 47.5,52.5C 46.4822,53.1925 45.4822,53.8592 44.5,54.5C 45.0476,52.6064 46.0476,50.9397 47.5,49.5C 48.8545,51.5212 50.5212,53.1879 52.5,54.5 Z"/></g>
<g><path style="opacity:1" fill="#d86c8b" d="M 57.5,51.5 C 58.5,52.8333 59.5,54.1667 60.5,55.5C 59.5222,55.811 58.8555,56.4777 58.5,57.5C 60.1153,60.4495 62.1153,63.1162 64.5,65.5C 64.3333,65.8333 64.1667,66.1667 64,66.5C 62.6667,65.1667 61.3333,63.8333 60,62.5C 59.3333,63.5 59.3333,64.5 60,65.5C 61.4813,66.4709 62.3146,67.8042 62.5,69.5C 62.5,70.5 62.5,71.5 62.5,72.5C 61.7321,71.7375 61.2321,70.7375 61,69.5C 60.2828,70.0442 59.7828,70.7109 59.5,71.5C 58.5116,70.205 57.5116,68.8717 56.5,67.5C 56.3433,66.1266 56.51,64.7932 57,63.5C 57.6543,64.6956 58.1543,64.6956 58.5,63.5C 56.4537,61.719 56.1204,59.719 57.5,57.5C 57.2671,55.9382 56.6005,54.6049 55.5,53.5C 55.8333,52.5 56.5,51.8333 57.5,51.5 Z"/></g>
<g><path style="opacity:1" fill="#523bd8" d="M 37.5,39.5 C 40.0401,41.8861 42.0401,44.7194 43.5,48C 39.9356,52.7212 36.6023,57.5545 33.5,62.5C 32.8333,62.8333 32.1667,63.1667 31.5,63.5C 31.5,62.5 31.5,61.5 31.5,60.5C 34.0592,55.9272 37.0592,51.5939 40.5,47.5C 39.0476,46.0603 38.0476,44.3936 37.5,42.5C 36.8843,41.2022 36.8843,40.2022 37.5,39.5 Z"/></g>
<g><path style="opacity:1" fill="#d2c5ed" d="M 44.5,54.5 C 42.8892,58.0515 40.5558,61.0515 37.5,63.5C 39.14,60.8508 40.8067,58.1841 42.5,55.5C 43.1667,55.1667 43.8333,54.8333 44.5,54.5 Z"/></g>
<g><path style="opacity:1" fill="#7248c7" d="M 48.5,53.5 C 48.5,54.5 48.5,55.5 48.5,56.5C 43.845,61.1597 39.5116,66.1597 35.5,71.5C 35.2172,70.7109 34.7172,70.0442 34,69.5C 33.7679,70.7375 33.2679,71.7375 32.5,72.5C 32.5,71.5 32.5,70.5 32.5,69.5C 33.4431,66.8908 35.1097,64.8908 37.5,63.5C 40.5558,61.0515 42.8892,58.0515 44.5,54.5C 45.4822,53.8592 46.4822,53.1925 47.5,52.5C 48.1067,52.6236 48.44,52.9569 48.5,53.5 Z"/></g>
<g><path style="opacity:1" fill="#4b37da" d="M 41.5,53.5 C 42.3382,53.8417 42.6716,54.5084 42.5,55.5C 40.8067,58.1841 39.14,60.8508 37.5,63.5C 35.1097,64.8908 33.4431,66.8908 32.5,69.5C 31.5,69.5 30.5,69.5 29.5,69.5C 29.5,68.8333 29.5,68.1667 29.5,67.5C 31.5869,66.4154 32.9202,64.7488 33.5,62.5C 36.3918,59.729 39.0584,56.729 41.5,53.5 Z"/></g>
<g><path style="opacity:1" fill="#eb5562" d="M 60.5,55.5 C 63.075,58.319 65.4083,61.319 67.5,64.5C 66.5222,64.811 65.8555,65.4777 65.5,66.5C 66.8435,68.5286 68.1769,70.5286 69.5,72.5C 69.5,73.1667 69.1667,73.5 68.5,73.5C 68.2172,72.7109 67.7172,72.0442 67,71.5C 66.7635,73.8452 65.9302,75.8452 64.5,77.5C 62.3674,75.9095 60.7007,73.9095 59.5,71.5C 59.7828,70.7109 60.2828,70.0442 61,69.5C 61.2321,70.7375 61.7321,71.7375 62.5,72.5C 63.7434,73.7375 64.7434,73.4041 65.5,71.5C 64.9953,70.0815 63.9953,69.4148 62.5,69.5C 62.3146,67.8042 61.4813,66.4709 60,65.5C 59.3333,64.5 59.3333,63.5 60,62.5C 61.3333,63.8333 62.6667,65.1667 64,66.5C 64.1667,66.1667 64.3333,65.8333 64.5,65.5C 62.1153,63.1162 60.1153,60.4495 58.5,57.5C 58.8555,56.4777 59.5222,55.811 60.5,55.5 Z"/></g>
<g><path style="opacity:1" fill="#2938fb" d="M 31.5,60.5 C 31.5,61.5 31.5,62.5 31.5,63.5C 30.3995,64.6049 29.7329,65.9382 29.5,67.5C 27.4131,68.5846 26.0798,70.2512 25.5,72.5C 23.3141,72.5106 22.4808,73.5106 23,75.5C 25.1489,76.8398 26.3155,76.1731 26.5,73.5C 26.7376,71.5956 27.7376,70.2623 29.5,69.5C 29.183,72.5345 30.183,73.5345 32.5,72.5C 33.2679,71.7375 33.7679,70.7375 34,69.5C 34.7172,70.0442 35.2172,70.7109 35.5,71.5C 34.2983,73.3925 32.965,75.2258 31.5,77C 26.8333,77.6667 22.1667,77.6667 17.5,77C 22.0661,71.3359 26.7328,65.8359 31.5,60.5 Z"/></g>
<g><path style="opacity:1" fill="#b95691" d="M 52.5,52.5 C 53.806,54.4727 55.4727,56.1394 57.5,57.5C 56.1204,59.719 56.4537,61.719 58.5,63.5C 58.1543,64.6956 57.6543,64.6956 57,63.5C 56.51,64.7932 56.3433,66.1266 56.5,67.5C 53.1021,64.3733 50.4354,60.7066 48.5,56.5C 48.5,55.5 48.5,54.5 48.5,53.5C 50.6503,55.7596 52.8169,58.0929 55,60.5C 54.5174,58.4634 53.6841,56.4634 52.5,54.5C 52.5,53.8333 52.5,53.1667 52.5,52.5 Z"/></g>
<g><path style="opacity:1" fill="#a2a5f9" d="M 33.5,62.5 C 32.9202,64.7488 31.5869,66.4154 29.5,67.5C 29.7329,65.9382 30.3995,64.6049 31.5,63.5C 32.1667,63.1667 32.8333,62.8333 33.5,62.5 Z"/></g>
<g><path style="opacity:1" fill="#717ffe" d="M 29.5,67.5 C 29.5,68.1667 29.5,68.8333 29.5,69.5C 27.7376,70.2623 26.7376,71.5956 26.5,73.5C 25.8333,73.5 25.5,73.1667 25.5,72.5C 26.0798,70.2512 27.4131,68.5846 29.5,67.5 Z"/></g>
<g><path style="opacity:1" fill="#e4e3fd" d="M 29.5,69.5 C 30.5,69.5 31.5,69.5 32.5,69.5C 32.5,70.5 32.5,71.5 32.5,72.5C 30.183,73.5345 29.183,72.5345 29.5,69.5 Z"/></g>
<g><path style="opacity:1" fill="#feebed" d="M 62.5,69.5 C 63.9953,69.4148 64.9953,70.0815 65.5,71.5C 64.7434,73.4041 63.7434,73.7375 62.5,72.5C 62.5,71.5 62.5,70.5 62.5,69.5 Z"/></g>
<g><path style="opacity:1" fill="#dfe1ff" d="M 25.5,72.5 C 25.5,73.1667 25.8333,73.5 26.5,73.5C 26.3155,76.1731 25.1489,76.8398 23,75.5C 22.4808,73.5106 23.3141,72.5106 25.5,72.5 Z"/></g>
<g><path style="opacity:1" fill="#fc4a48" d="M 67.5,64.5 C 70.6198,68.792 73.9531,72.9587 77.5,77C 73.1794,77.499 68.8461,77.6657 64.5,77.5C 65.9302,75.8452 66.7635,73.8452 67,71.5C 67.7172,72.0442 68.2172,72.7109 68.5,73.5C 68.5106,75.6859 69.5106,76.5192 71.5,76C 72.8398,73.8511 72.1731,72.6845 69.5,72.5C 68.1769,70.5286 66.8435,68.5286 65.5,66.5C 65.8555,65.4777 66.5222,64.811 67.5,64.5 Z"/></g>
<g><path style="opacity:1" fill="#ffe3e3" d="M 69.5,72.5 C 72.1731,72.6845 72.8398,73.8511 71.5,76C 69.5106,76.5192 68.5106,75.6859 68.5,73.5C 69.1667,73.5 69.5,73.1667 69.5,72.5 Z"/></g>
</svg>
