<?xml version="1.0" encoding="UTF-8"?>
<!DOCTYPE svg PUBLIC "-//W3C//DTD SVG 1.1//EN" "http://www.w3.org/Graphics/SVG/1.1/DTD/svg11.dtd">
<svg xmlns="http://www.w3.org/2000/svg" version="1.1" width="96px" height="96px" style="shape-rendering:geometricPrecision; text-rendering:geometricPrecision; image-rendering:optimizeQuality; fill-rule:evenodd; clip-rule:evenodd" xmlns:xlink="http://www.w3.org/1999/xlink">
<g><path style="opacity:0.787" fill="#f5f9fe" d="M 46.5,1.5 C 59.7785,9.1431 73.1118,16.8098 86.5,24.5C 87.6662,40.4896 87.8329,56.4896 87,72.5C 73.5955,79.1181 60.4288,86.1181 47.5,93.5C 34.5712,86.1181 21.4045,79.1181 8,72.5C 7.1671,56.4896 7.33377,40.4896 8.5,24.5C 21.5628,17.3102 34.2295,9.64354 46.5,1.5 Z"/></g>
<g><path style="opacity:1" fill="#4398f0" d="M 51.5,10.5 C 56.9135,18.3151 62.5802,25.9818 68.5,33.5C 54.5,34.8333 40.5,34.8333 26.5,33.5C 32.1906,26.148 37.8573,18.8146 43.5,11.5C 45.7056,6.7155 48.3723,6.38216 51.5,10.5 Z"/></g>
<g><path style="opacity:1" fill="#4699f0" d="M 41.5,11.5 C 35.3525,19.0969 29.1858,26.7635 23,34.5C 19.9556,31.9491 16.7889,29.6158 13.5,27.5C 12.3183,25.4389 12.9849,23.9389 15.5,23C 24.665,17.9186 33.665,12.5852 42.5,7C 43.3317,6.31232 43.9984,6.47899 44.5,7.5C 43.4756,8.85181 42.4756,10.1851 41.5,11.5 Z"/></g>
<g><path style="opacity:1" fill="#4498f0" d="M 80.5,28.5 C 78.3509,29.7476 76.3509,31.2476 74.5,33C 73.5,33.6667 72.5,33.6667 71.5,33C 64.9235,25.2679 58.5902,17.4345 52.5,9.5C 51.0313,7.89469 51.3646,7.39469 53.5,8C 63.5346,13.3451 73.2013,19.1784 82.5,25.5C 81.8075,26.5178 81.1408,27.5178 80.5,28.5 Z"/></g>
<g><path style="opacity:1" fill="#b4d6f9" d="M 10.5,28.5 C 10.1717,40.3453 10.5051,52.012 11.5,63.5C 11.44,64.0431 11.1067,64.3764 10.5,64.5C 9.17548,52.3398 9.17548,40.3398 10.5,28.5 Z"/></g>
<g><path style="opacity:1" fill="#4297f0" d="M 82.5,28.5 C 83.1667,28.5 83.8333,28.5 84.5,28.5C 84.8279,39.6794 84.4946,50.6794 83.5,61.5C 80.1731,53.1905 76.8398,44.8572 73.5,36.5C 76.5198,33.811 79.5198,31.1444 82.5,28.5 Z"/></g>
<g><path style="opacity:1" fill="#6fb0f4" d="M 84.5,28.5 C 85.6595,39.9927 85.8261,51.6593 85,63.5C 84.2828,62.9558 83.7828,62.2891 83.5,61.5C 84.4946,50.6794 84.8279,39.6794 84.5,28.5 Z"/></g>
<g><path style="opacity:1" fill="#4297f0" d="M 10.5,28.5 C 11.9217,28.7086 13.255,29.2086 14.5,30C 17.1322,32.1265 19.4655,34.4598 21.5,37C 18.2581,45.5633 14.9247,54.0633 11.5,62.5C 11.5,62.8333 11.5,63.1667 11.5,63.5C 10.5051,52.012 10.1717,40.3453 10.5,28.5 Z"/></g>
<g><path style="opacity:1" fill="#e9f2fd" d="M 52.5,9.5 C 58.5902,17.4345 64.9235,25.2679 71.5,33C 72.5,33.6667 73.5,33.6667 74.5,33C 76.3509,31.2476 78.3509,29.7476 80.5,28.5C 81.1667,28.5 81.8333,28.5 82.5,28.5C 79.5198,31.1444 76.5198,33.811 73.5,36.5C 76.8398,44.8572 80.1731,53.1905 83.5,61.5C 82.8333,61.5 82.5,61.8333 82.5,62.5C 79.0434,54.1507 75.3767,45.8173 71.5,37.5C 64.1058,49.2067 56.7725,60.8733 49.5,72.5C 49.5,71.8333 49.1667,71.5 48.5,71.5C 54.4049,61.3606 60.5716,51.3606 67,41.5C 68.0086,39.9751 68.5086,38.3084 68.5,36.5C 54.4841,36.1674 40.4841,36.5008 26.5,37.5C 32.9266,48.6941 39.5933,59.6941 46.5,70.5C 45.8333,70.5 45.5,70.8333 45.5,71.5C 38.1081,60.3999 30.9414,49.0666 24,37.5C 19.8597,46.109 16.0263,54.7756 12.5,63.5C 12.5,62.8333 12.1667,62.5 11.5,62.5C 14.9247,54.0633 18.2581,45.5633 21.5,37C 19.4655,34.4598 17.1322,32.1265 14.5,30C 13.255,29.2086 11.9217,28.7086 10.5,28.5C 11.209,27.596 12.209,27.2627 13.5,27.5C 16.7889,29.6158 19.9556,31.9491 23,34.5C 29.1858,26.7635 35.3525,19.0969 41.5,11.5C 42.1667,11.5 42.8333,11.5 43.5,11.5C 37.8573,18.8146 32.1906,26.148 26.5,33.5C 40.5,34.8333 54.5,34.8333 68.5,33.5C 62.5802,25.9818 56.9135,18.3151 51.5,10.5C 51.5,9.83333 51.8333,9.5 52.5,9.5 Z"/></g>
<g><path style="opacity:1" fill="#4699f1" d="M 48.5,71.5 C 47.5084,71.6716 46.8417,71.3382 46.5,70.5C 39.5933,59.6941 32.9266,48.6941 26.5,37.5C 40.4841,36.5008 54.4841,36.1674 68.5,36.5C 68.5086,38.3084 68.0086,39.9751 67,41.5C 60.5716,51.3606 54.4049,61.3606 48.5,71.5 Z"/></g>
<g><path style="opacity:1" fill="#4699f1" d="M 45.5,71.5 C 44.6661,72.7479 43.3328,73.4146 41.5,73.5C 31.2394,72.3484 21.2394,70.3484 11.5,67.5C 12.2458,66.2638 12.5792,64.9305 12.5,63.5C 16.0263,54.7756 19.8597,46.109 24,37.5C 30.9414,49.0666 38.1081,60.3999 45.5,71.5 Z"/></g>
<g><path style="opacity:1" fill="#4398f0" d="M 82.5,62.5 C 82.8333,64.5 83.1667,66.5 83.5,68.5C 73.1242,69.8404 62.7909,71.507 52.5,73.5C 51.2739,73.4805 50.2739,73.1471 49.5,72.5C 56.7725,60.8733 64.1058,49.2067 71.5,37.5C 75.3767,45.8173 79.0434,54.1507 82.5,62.5 Z"/></g>
<g><path style="opacity:1" fill="#4398f0" d="M 12.5,71.5 C 12.56,70.9569 12.8933,70.6236 13.5,70.5C 24.3822,72.9248 35.3822,74.5914 46.5,75.5C 46.8256,79.8839 46.4922,84.2172 45.5,88.5C 34.63,82.5651 23.63,76.8984 12.5,71.5 Z"/></g>
<g><path style="opacity:1" fill="#4699f1" d="M 80.5,70.5 C 81.552,70.3505 82.552,70.5172 83.5,71C 72.3103,77.0011 60.9769,82.8345 49.5,88.5C 48.2023,84.2846 48.2023,80.1179 49.5,76C 59.9323,73.9294 70.2657,72.0961 80.5,70.5 Z"/></g>
</svg>
