<?xml version="1.0" encoding="UTF-8"?>
<!DOCTYPE svg PUBLIC "-//W3C//DTD SVG 1.1//EN" "http://www.w3.org/Graphics/SVG/1.1/DTD/svg11.dtd">
<svg xmlns="http://www.w3.org/2000/svg" version="1.1" width="96px" height="96px" style="shape-rendering:geometricPrecision; text-rendering:geometricPrecision; image-rendering:optimizeQuality; fill-rule:evenodd; clip-rule:evenodd" xmlns:xlink="http://www.w3.org/1999/xlink">
<g><path style="opacity:0.757" fill="#f3c400" d="M 37.5,-0.5 C 44.1667,-0.5 50.8333,-0.5 57.5,-0.5C 77.1667,5.16667 89.8333,17.8333 95.5,37.5C 95.5,44.1667 95.5,50.8333 95.5,57.5C 89.8333,77.1667 77.1667,89.8333 57.5,95.5C 50.8333,95.5 44.1667,95.5 37.5,95.5C 17.8333,89.8333 5.16667,77.1667 -0.5,57.5C -0.5,50.8333 -0.5,44.1667 -0.5,37.5C 5.16667,17.8333 17.8333,5.16667 37.5,-0.5 Z"/></g>
<g><path style="opacity:1" fill="#040300" d="M 37.5,3.5 C 64.017,0.66534 81.8504,11.6653 91,36.5C 95.0382,61.1253 85.8715,78.6253 63.5,89C 35.4544,96.7262 15.9544,87.2262 5,60.5C -0.203388,32.2301 10.6299,13.2301 37.5,3.5 Z"/></g>
<g><path style="opacity:1" fill="#e0aa00" d="M 25.5,23.5 C 27.8333,23.5 30.1667,23.5 32.5,23.5C 31.9371,25.91 31.4371,28.2433 31,30.5C 35.4507,33.2829 39.6174,36.4496 43.5,40C 40.3081,42.6924 36.9748,45.1924 33.5,47.5C 29.8046,44.6385 25.9713,41.9718 22,39.5C 22.2148,34.0067 23.3815,28.6733 25.5,23.5 Z"/></g>
<g><path style="opacity:1" fill="#f3c400" d="M 61.5,23.5 C 64.1667,23.5 66.8333,23.5 69.5,23.5C 70.6236,28.2068 71.9569,32.8734 73.5,37.5C 69.8419,41.1506 65.8419,44.4839 61.5,47.5C 57.4866,45.4945 53.8199,42.9945 50.5,40C 54.7565,36.9547 58.9232,33.788 63,30.5C 63.1352,28.0784 62.6352,25.7451 61.5,23.5 Z"/></g>
<g><path style="opacity:1" fill="#e0aa00" d="M 45.5,31.5 C 45.7947,33.7354 45.4614,35.7354 44.5,37.5C 40.3736,34.8742 36.7069,31.7075 33.5,28C 33.7247,26.3791 34.558,25.2125 36,24.5C 39.484,26.483 42.6506,28.8163 45.5,31.5 Z"/></g>
<g><path style="opacity:1" fill="#745700" d="M 45.5,31.5 C 46.7969,33.6934 46.7969,36.0268 45.5,38.5C 44.8933,38.3764 44.56,38.0431 44.5,37.5C 45.4614,35.7354 45.7947,33.7354 45.5,31.5 Z"/></g>
<g><path style="opacity:1" fill="#f4cc00" d="M 57.5,24.5 C 60.2436,25.0717 61.0769,26.7383 60,29.5C 56.3333,32.5 52.6667,35.5 49,38.5C 48.3333,36.1667 48.3333,33.8333 49,31.5C 51.9958,29.2674 54.8292,26.9341 57.5,24.5 Z"/></g>
<g><path style="opacity:1" fill="#e4ae00" d="M 44.5,42.5 C 45.8333,47.8333 45.8333,53.1667 44.5,58.5C 40.8516,55.8581 37.1849,53.1914 33.5,50.5C 37.1849,47.8086 40.8516,45.1419 44.5,42.5 Z"/></g>
<g><path style="opacity:1" fill="#775a00" d="M 44.5,42.5 C 44.56,41.9569 44.8933,41.6236 45.5,41.5C 46.8333,47.5 46.8333,53.5 45.5,59.5C 44.8933,59.3764 44.56,59.0431 44.5,58.5C 45.8333,53.1667 45.8333,47.8333 44.5,42.5 Z"/></g>
<g><path style="opacity:1" fill="#f5ca00" d="M 48.5,41.5 C 52.4815,44.4756 56.4815,47.4756 60.5,50.5C 56.9776,53.8509 53.1443,56.8509 49,59.5C 48.5005,53.5092 48.3338,47.5092 48.5,41.5 Z"/></g>
<g><path style="opacity:1" fill="#e0aa00" d="M 45.5,62.5 C 45.8064,65.3854 45.4731,68.0521 44.5,70.5C 40.5373,67.8715 36.8706,64.8715 33.5,61.5C 34.0351,59.3392 34.8684,57.3392 36,55.5C 39.5013,57.4884 42.668,59.8217 45.5,62.5 Z"/></g>
<g><path style="opacity:1" fill="#f4c700" d="M 57.5,55.5 C 60.1347,57.4288 60.968,60.0955 60,63.5C 56.0533,65.7798 52.3866,68.4465 49,71.5C 48.3333,68.5 48.3333,65.5 49,62.5C 52.0228,60.3024 54.8562,57.969 57.5,55.5 Z"/></g>
<g><path style="opacity:1" fill="#775a00" d="M 45.5,62.5 C 46.8032,65.3553 46.8032,68.3553 45.5,71.5C 44.8933,71.3764 44.56,71.0431 44.5,70.5C 45.4731,68.0521 45.8064,65.3854 45.5,62.5 Z"/></g>
</svg>
