<?xml version="1.0" encoding="UTF-8"?>
<!DOCTYPE svg PUBLIC "-//W3C//DTD SVG 1.1//EN" "http://www.w3.org/Graphics/SVG/1.1/DTD/svg11.dtd">
<svg xmlns="http://www.w3.org/2000/svg" version="1.1" width="96px" height="96px" style="shape-rendering:geometricPrecision; text-rendering:geometricPrecision; image-rendering:optimizeQuality; fill-rule:evenodd; clip-rule:evenodd" xmlns:xlink="http://www.w3.org/1999/xlink">
<g><path style="opacity:0.903" fill="#2a2627" d="M 41.5,-0.5 C 42.5,-0.5 43.5,-0.5 44.5,-0.5C 57.9783,12.1682 71.8117,24.5015 86,36.5C 86.224,40.9457 84.3906,42.1123 80.5,40C 68.0898,30.3786 55.5898,20.8786 43,11.5C 30.2567,21.4545 17.4234,31.2878 4.5,41C 2.81069,40.8657 1.14402,40.3657 -0.5,39.5C -0.5,38.5 -0.5,37.5 -0.5,36.5C 14.1189,24.8819 28.1189,12.5485 41.5,-0.5 Z"/></g>
<g><path style="opacity:0.919" fill="#5d310d" d="M 48.5,21.5 C 49.3764,21.3691 50.0431,21.7025 50.5,22.5C 48.3719,24.866 47.3719,27.366 47.5,30C 49.1977,34.3629 51.6977,38.1962 55,41.5C 57.7315,53.0283 53.3981,60.6949 42,64.5C 41.1247,62.4873 39.7913,62.4873 38,64.5C 39.0012,62.0915 40.1678,59.5915 41.5,57C 40.6422,54.1182 39.1422,51.6182 37,49.5C 36.2228,46.5706 36.3895,43.7372 37.5,41C 37.8333,40.8333 38.1667,40.6667 38.5,40.5C 40.363,45.1974 42.863,49.5307 46,53.5C 46.3052,55.5568 46.3052,57.5568 46,59.5C 48.271,56.8805 48.9377,53.8805 48,50.5C 46.431,46.928 44.0976,43.928 41,41.5C 38.6597,37.4446 37.993,33.1113 39,28.5C 41.7901,25.535 44.9567,23.2016 48.5,21.5 Z"/></g>
<g><path style="opacity:0.932" fill="#2a2628" d="M 15.5,65.5 C 15.5,65.8333 15.5,66.1667 15.5,66.5C 15.5,67.1667 15.8333,67.5 16.5,67.5C 16.3284,68.4916 16.6618,69.1583 17.5,69.5C 17.5,70.1667 17.8333,70.5 18.5,70.5C 18.5,71.1667 18.8333,71.5 19.5,71.5C 19.5,71.8333 19.5,72.1667 19.5,72.5C 19.5,73.1667 19.8333,73.5 20.5,73.5C 20.5,74.1667 20.8333,74.5 21.5,74.5C 21.5,75.1667 21.8333,75.5 22.5,75.5C 22.8333,75.5 23.1667,75.5 23.5,75.5C 23.5,76.1667 23.8333,76.5 24.5,76.5C 24.5,77.1667 24.8333,77.5 25.5,77.5C 25.8417,78.3382 26.5084,78.6716 27.5,78.5C 27.8417,79.3382 28.5084,79.6716 29.5,79.5C 29.8417,80.3382 30.5084,80.6716 31.5,80.5C 31.8333,80.5 32.1667,80.5 32.5,80.5C 33.209,81.404 34.209,81.7373 35.5,81.5C 40.5,82.8333 45.5,82.8333 50.5,81.5C 51.791,81.7373 52.791,81.404 53.5,80.5C 53.8333,80.5 54.1667,80.5 54.5,80.5C 55.4916,80.6716 56.1583,80.3382 56.5,79.5C 57.4916,79.6716 58.1583,79.3382 58.5,78.5C 59.4916,78.6716 60.1583,78.3382 60.5,77.5C 61.1667,77.5 61.5,77.1667 61.5,76.5C 61.8333,76.5 62.1667,76.5 62.5,76.5C 63.1667,76.5 63.5,76.1667 63.5,75.5C 64.1667,75.5 64.5,75.1667 64.5,74.5C 65.1667,74.5 65.5,74.1667 65.5,73.5C 66.1667,73.5 66.5,73.1667 66.5,72.5C 67.1667,72.5 67.5,72.1667 67.5,71.5C 68.3382,71.1583 68.6716,70.4916 68.5,69.5C 69.1667,69.5 69.5,69.1667 69.5,68.5C 69.5,68.1667 69.5,67.8333 69.5,67.5C 70.1667,67.5 70.5,67.1667 70.5,66.5C 71.404,65.791 71.7373,64.791 71.5,63.5C 72.6484,59.0189 72.8151,54.3522 72,49.5C 71.3605,46.8877 70.1938,44.5543 68.5,42.5C 69.5,42.1667 70.5,41.8333 71.5,41.5C 76.6703,44.7365 82.337,47.2365 88.5,49C 91.4117,51.0147 93.745,53.5147 95.5,56.5C 95.5,59.5 95.5,62.5 95.5,65.5C 91.0645,71.3902 85.0645,74.7236 77.5,75.5C 73.1679,82.4824 68.5012,89.1491 63.5,95.5C 58.5,95.5 53.5,95.5 48.5,95.5C 49.1712,88.0072 46.0046,85.6739 39,88.5C 38.5034,90.8098 38.3367,93.1432 38.5,95.5C 33.1667,95.5 27.8333,95.5 22.5,95.5C 20.3731,90.8511 17.2064,86.8511 13,83.5C 4.89291,69.9335 4.39291,56.1002 11.5,42C 13.5787,41.1923 15.5787,41.359 17.5,42.5C 13.1261,49.9893 12.4594,57.656 15.5,65.5 Z M 78.5,51.5 C 87.9177,52.0674 91.0844,56.7341 88,65.5C 85.3542,68.2459 82.1876,69.4126 78.5,69C 79.7206,63.2111 79.7206,57.3778 78.5,51.5 Z"/></g>
<g><path style="opacity:0.962" fill="#5e320d" d="M 71.5,63.5 C 70.596,64.209 70.2627,65.209 70.5,66.5C 69.8333,66.5 69.5,66.8333 69.5,67.5C 69.5,67.8333 69.5,68.1667 69.5,68.5C 68.8333,68.5 68.5,68.8333 68.5,69.5C 67.6618,69.8417 67.3284,70.5084 67.5,71.5C 66.8333,71.5 66.5,71.8333 66.5,72.5C 65.8333,72.5 65.5,72.8333 65.5,73.5C 64.8333,73.5 64.5,73.8333 64.5,74.5C 63.8333,74.5 63.5,74.8333 63.5,75.5C 62.8333,75.5 62.5,75.8333 62.5,76.5C 62.1667,76.5 61.8333,76.5 61.5,76.5C 60.8333,76.5 60.5,76.8333 60.5,77.5C 59.5084,77.3284 58.8417,77.6618 58.5,78.5C 57.5084,78.3284 56.8417,78.6618 56.5,79.5C 55.5084,79.3284 54.8417,79.6618 54.5,80.5C 54.1667,80.5 53.8333,80.5 53.5,80.5C 52.209,80.2627 51.209,80.596 50.5,81.5C 45.5,81.5 40.5,81.5 35.5,81.5C 34.791,80.596 33.791,80.2627 32.5,80.5C 32.1667,80.5 31.8333,80.5 31.5,80.5C 31.1583,79.6618 30.4916,79.3284 29.5,79.5C 29.1583,78.6618 28.4916,78.3284 27.5,78.5C 27.1583,77.6618 26.4916,77.3284 25.5,77.5C 24.8333,77.5 24.5,77.1667 24.5,76.5C 23.8333,76.5 23.5,76.1667 23.5,75.5C 23.1667,75.5 22.8333,75.5 22.5,75.5C 21.8333,75.5 21.5,75.1667 21.5,74.5C 20.8333,74.5 20.5,74.1667 20.5,73.5C 19.8333,73.5 19.5,73.1667 19.5,72.5C 19.5,72.1667 19.5,71.8333 19.5,71.5C 18.8333,71.5 18.5,71.1667 18.5,70.5C 17.8333,70.5 17.5,70.1667 17.5,69.5C 17.6716,68.5084 17.3382,67.8417 16.5,67.5C 15.8333,67.5 15.5,67.1667 15.5,66.5C 15.5,66.1667 15.5,65.8333 15.5,65.5C 15.369,64.7611 15.5357,64.0944 16,63.5C 23.5665,66.3398 31.3998,67.1731 39.5,66C 47.1816,64.0467 54.8483,62.2134 62.5,60.5C 64.5,60.6667 66.5,60.8333 68.5,61C 70.1193,61.2355 71.1193,62.0689 71.5,63.5 Z"/></g>
</svg>
