<?xml version="1.0" encoding="UTF-8"?>
<!DOCTYPE svg PUBLIC "-//W3C//DTD SVG 1.1//EN" "http://www.w3.org/Graphics/SVG/1.1/DTD/svg11.dtd">
<svg xmlns="http://www.w3.org/2000/svg" version="1.1" width="96px" height="96px" style="shape-rendering:geometricPrecision; text-rendering:geometricPrecision; image-rendering:optimizeQuality; fill-rule:evenodd; clip-rule:evenodd" xmlns:xlink="http://www.w3.org/1999/xlink">
<g><path style="opacity:1" fill="#4057a3" d="M 75.5,83.5 C 77.4929,80.5868 78.4929,77.5868 78.5,74.5C 79.397,75.5981 80.2303,75.5981 81,74.5C 82.2893,72.9452 82.956,71.2785 83,69.5C 81,68.8333 79.6667,67.5 79,65.5C 76.8333,67 77,68.1667 79.5,69C 78.2068,69.49 76.8734,69.6567 75.5,69.5C 75.5,69.1667 75.5,68.8333 75.5,68.5C 76.1667,66.5 76.8333,64.5 77.5,62.5C 85.9512,40.5458 79.2846,24.7124 57.5,15C 44.7001,11.4488 33.7001,14.2821 24.5,23.5C 21.1114,25.7252 18.6114,28.7252 17,32.5C 15.6591,35.022 14.8257,37.6887 14.5,40.5C 14.1667,40.5 13.8333,40.5 13.5,40.5C 12.8333,42.1667 12.1667,43.8333 11.5,45.5C 9.74855,41.8421 7.41522,41.5087 4.5,44.5C 4.99431,46.0255 5.66097,47.3588 6.5,48.5C 5.92462,50.3425 6.09129,52.3425 7,54.5C 7.33333,52.8333 7.66667,51.1667 8,49.5C 9.3696,55.3099 11.2029,60.9766 13.5,66.5C 13.1543,67.6956 12.6543,67.6956 12,66.5C 11.5357,67.0944 11.369,67.7611 11.5,68.5C 11.5569,69.609 11.8902,70.609 12.5,71.5C 11.9569,71.56 11.6236,71.8933 11.5,72.5C 13.9389,73.4073 16.2722,74.4073 18.5,75.5C 15.9548,76.4508 15.9548,77.4508 18.5,78.5C 19.4776,78.0233 20.3109,77.3567 21,76.5C 20.5913,78.2251 20.7579,79.8918 21.5,81.5C 22.0046,79.2305 23.3379,77.8972 25.5,77.5C 25.2627,78.791 25.596,79.791 26.5,80.5C 23.8987,82.9966 24.5653,84.6633 28.5,85.5C 28.4316,84.1495 28.4316,82.8162 28.5,81.5C 29.4246,80.4376 30.4246,80.4376 31.5,81.5C 30.5919,83.4521 30.7586,85.4521 32,87.5C 32.1862,84.9644 32.6862,82.631 33.5,80.5C 33.5,83.1667 33.5,85.8333 33.5,88.5C 34.5063,89.3957 34.5063,90.0623 33.5,90.5C 17.1502,84.8546 6.98357,73.5213 3,56.5C 0.431033,29.0751 12.2644,11.2418 38.5,3C 61.1584,0.245284 77.9917,8.74528 89,28.5C 97.2005,50.0304 92.7005,68.3637 75.5,83.5 Z"/></g>
<g><path style="opacity:1" fill="#eaebf4" d="M 23.5,12.5 C 24.5,12.5 25.5,12.5 26.5,12.5C 26.4802,14.143 27.1468,15.4763 28.5,16.5C 27.2839,17.0959 25.9506,17.2626 24.5,17C 27.028,18.3159 27.028,19.4826 24.5,20.5C 23.1667,18.8333 21.8333,17.1667 20.5,15.5C 21.3398,14.265 22.3398,13.265 23.5,12.5 Z"/></g>
<g><path style="opacity:1" fill="#e0e2f0" d="M 63.5,8.5 C 66.317,8.80052 66.9837,10.1339 65.5,12.5C 68.1326,13.8844 68.1326,15.2178 65.5,16.5C 63.9984,15.9169 62.6651,15.0836 61.5,14C 62.8613,12.4157 63.528,10.5824 63.5,8.5 Z"/></g>
<g><path style="opacity:1" fill="#c9cce4" d="M 31.5,7.5 C 32.5,7.5 33.5,7.5 34.5,7.5C 34.3573,9.26241 34.6906,10.9291 35.5,12.5C 34.7884,14.0459 33.6217,15.0459 32,15.5C 30.5077,13.8664 29.0077,12.1997 27.5,10.5C 28.9014,9.47934 30.2347,8.47934 31.5,7.5 Z"/></g>
<g><path style="opacity:1" fill="#e8ebf4" d="M 38.5,5.5 C 39.9778,5.23798 41.3112,5.57131 42.5,6.5C 41.675,7.38568 40.675,7.71901 39.5,7.5C 39.4257,11.1611 40.4257,11.8277 42.5,9.5C 43.3857,10.325 43.719,11.325 43.5,12.5C 37.2377,12.9442 35.5711,10.6108 38.5,5.5 Z"/></g>
<g><path style="opacity:1" fill="#d5d9ea" d="M 54.5,5.5 C 56.8901,5.9126 59.2235,6.57927 61.5,7.5C 60.218,9.17923 59.218,11.0126 58.5,13C 57.2161,13.6838 56.0495,13.5171 55,12.5C 54.5034,10.1902 54.3367,7.85684 54.5,5.5 Z"/></g>
<g><path style="opacity:1" fill="#ebedf5" d="M 46.5,5.5 C 54.2999,6.31323 54.4665,8.31323 47,11.5C 46.5,11.3333 46,11.1667 45.5,11C 46.4061,9.30054 46.7394,7.4672 46.5,5.5 Z"/></g>
<g><path style="opacity:1" fill="#dde0ee" d="M 70.5,12.5 C 73.9599,13.2604 74.2932,14.7604 71.5,17C 75.1358,17.6264 75.1358,18.7931 71.5,20.5C 70.1667,19.5 68.8333,18.5 67.5,17.5C 69.2779,16.2742 70.2779,14.6075 70.5,12.5 Z"/></g>
<g><path style="opacity:1" fill="#090a11" d="M 77.5,62.5 C 83.2668,42.614 76.9334,28.114 58.5,19C 46.3063,14.6048 34.9729,16.1048 24.5,23.5C 33.7001,14.2821 44.7001,11.4488 57.5,15C 79.2846,24.7124 85.9512,40.5458 77.5,62.5 Z"/></g>
<g><path style="opacity:1" fill="#313031" d="M 77.5,62.5 C 76.8333,64.5 76.1667,66.5 75.5,68.5C 59.776,84.046 42.776,85.546 24.5,73C 16.1519,63.7895 12.4852,52.9562 13.5,40.5C 13.8333,40.5 14.1667,40.5 14.5,40.5C 18.3023,44.7474 21.6356,49.4141 24.5,54.5C 23.8728,55.4168 23.5394,56.4168 23.5,57.5C 23.5,58.1667 23.5,58.8333 23.5,59.5C 21.5589,61.0106 21.0589,63.0106 22,65.5C 24.0678,69.0705 26.9012,71.7371 30.5,73.5C 32.8577,75.1286 35.5243,76.2952 38.5,77C 44.0164,77.8174 49.3497,77.6507 54.5,76.5C 60.6071,75.6299 66.1071,73.2966 71,69.5C 73.3296,66.5405 73.9963,63.2072 73,59.5C 72.2917,58.6195 71.4584,57.9528 70.5,57.5C 66.5703,53.0697 61.5703,50.7363 55.5,50.5C 56.4967,47.6717 56.4967,45.005 55.5,42.5C 57.4376,40.8063 57.7709,38.8063 56.5,36.5C 53.432,38.4566 50.0987,38.9566 46.5,38C 45.4019,37.2303 45.4019,36.397 46.5,35.5C 49.4848,34.6743 52.1515,33.341 54.5,31.5C 55.5832,31.4606 56.5832,31.1272 57.5,30.5C 58.4742,28.2573 58.8076,25.924 58.5,23.5C 55.2089,22.1987 51.7089,21.1987 48,20.5C 43.7725,22.3637 39.6058,24.3637 35.5,26.5C 34.6143,27.325 34.281,28.325 34.5,29.5C 34.5569,30.609 34.8902,31.609 35.5,32.5C 34.6981,33.9516 34.1981,35.6183 34,37.5C 32.2817,35.1029 31.1151,32.4362 30.5,29.5C 27.5992,28.3354 25.5992,26.3354 24.5,23.5C 34.9729,16.1048 46.3063,14.6048 58.5,19C 76.9334,28.114 83.2668,42.614 77.5,62.5 Z"/></g>
<g><path style="opacity:1" fill="#3c59a7" d="M 58.5,23.5 C 54.2432,24.9617 50.2432,26.9617 46.5,29.5C 45.8302,31.2914 45.1635,32.9581 44.5,34.5C 40.8832,33.3583 37.5498,31.6916 34.5,29.5C 34.281,28.325 34.6143,27.325 35.5,26.5C 39.6058,24.3637 43.7725,22.3637 48,20.5C 51.7089,21.1987 55.2089,22.1987 58.5,23.5 Z"/></g>
<g><path style="opacity:1" fill="#1c1b1b" d="M 24.5,23.5 C 25.5992,26.3354 27.5992,28.3354 30.5,29.5C 31.1151,32.4362 32.2817,35.1029 34,37.5C 34.1981,35.6183 34.6981,33.9516 35.5,32.5C 38.7568,33.4617 41.7568,34.9617 44.5,37C 43.646,38.0217 42.646,38.8551 41.5,39.5C 38.7652,36.6912 36.7652,37.1912 35.5,41C 35.7432,41.9021 36.0766,42.7354 36.5,43.5C 36.5,44.5 36.5,45.5 36.5,46.5C 35.5489,47.9187 35.2155,49.5853 35.5,51.5C 32.2459,51.7936 29.5792,53.127 27.5,55.5C 25.9382,55.7329 24.6049,56.3995 23.5,57.5C 23.5394,56.4168 23.8728,55.4168 24.5,54.5C 21.6356,49.4141 18.3023,44.7474 14.5,40.5C 14.8257,37.6887 15.6591,35.022 17,32.5C 18.6114,28.7252 21.1114,25.7252 24.5,23.5 Z"/></g>
<g><path style="opacity:1" fill="#6588bb" d="M 58.5,23.5 C 58.8076,25.924 58.4742,28.2573 57.5,30.5C 56.5832,31.1272 55.5832,31.4606 54.5,31.5C 54.0401,30.0008 52.7067,29.0008 50.5,28.5C 50.33,29.8221 50.6634,30.9887 51.5,32C 49.4156,32.6972 47.7489,33.8639 46.5,35.5C 45.5084,35.6716 44.8417,35.3382 44.5,34.5C 45.1635,32.9581 45.8302,31.2914 46.5,29.5C 50.2432,26.9617 54.2432,24.9617 58.5,23.5 Z"/></g>
<g><path style="opacity:1" fill="#cac0af" d="M 54.5,31.5 C 52.1515,33.341 49.4848,34.6743 46.5,35.5C 47.7489,33.8639 49.4156,32.6972 51.5,32C 50.6634,30.9887 50.33,29.8221 50.5,28.5C 52.7067,29.0008 54.0401,30.0008 54.5,31.5 Z"/></g>
<g><path style="opacity:1" fill="#a38877" d="M 34.5,29.5 C 37.5498,31.6916 40.8832,33.3583 44.5,34.5C 44.8417,35.3382 45.5084,35.6716 46.5,35.5C 45.4019,36.397 45.4019,37.2303 46.5,38C 50.0987,38.9566 53.432,38.4566 56.5,36.5C 57.7709,38.8063 57.4376,40.8063 55.5,42.5C 51.9099,43.6284 48.5766,45.295 45.5,47.5C 42.5549,45.8569 39.5549,44.5236 36.5,43.5C 36.0766,42.7354 35.7432,41.9021 35.5,41C 36.7652,37.1912 38.7652,36.6912 41.5,39.5C 42.646,38.8551 43.646,38.0217 44.5,37C 41.7568,34.9617 38.7568,33.4617 35.5,32.5C 34.8902,31.609 34.5569,30.609 34.5,29.5 Z"/></g>
<g><path style="opacity:1" fill="#e4ba2f" d="M 86.5,42.5 C 87.6828,43.5045 89.0161,44.3378 90.5,45C 89.6634,46.0113 89.33,47.1779 89.5,48.5C 87.8561,48.2865 86.3561,48.6198 85,49.5C 84.7266,47.8988 84.2266,46.3988 83.5,45C 84.9423,44.6232 85.9423,43.7899 86.5,42.5 Z"/></g>
<g><path style="opacity:1" fill="#d7b039" d="M 11.5,45.5 C 10.9101,46.766 10.4101,48.0993 10,49.5C 8.98873,48.6634 7.82207,48.33 6.5,48.5C 5.66097,47.3588 4.99431,46.0255 4.5,44.5C 7.41522,41.5087 9.74855,41.8421 11.5,45.5 Z"/></g>
<g><path style="opacity:1" fill="#ddbb43" d="M 55.5,51.5 C 55.5,51.1667 55.5,50.8333 55.5,50.5C 61.5703,50.7363 66.5703,53.0697 70.5,57.5C 65.8583,54.6818 60.8583,52.6818 55.5,51.5 Z"/></g>
<g><path style="opacity:1" fill="#937e6e" d="M 36.5,46.5 C 37.1408,47.4822 37.8075,48.4822 38.5,49.5C 36.7214,51.1929 36.2214,53.1929 37,55.5C 38.8886,56.0974 40.7219,56.4307 42.5,56.5C 42.1131,57.7199 41.2798,58.3865 40,58.5C 38.8615,58.0109 37.6948,57.6775 36.5,57.5C 33.6874,57.0246 31.6874,58.0246 30.5,60.5C 30.1667,60.5 29.8333,60.5 29.5,60.5C 29.0629,58.9256 28.0629,57.7589 26.5,57C 27.056,56.6174 27.3893,56.1174 27.5,55.5C 29.5792,53.127 32.2459,51.7936 35.5,51.5C 35.2155,49.5853 35.5489,47.9187 36.5,46.5 Z"/></g>
<g><path style="opacity:1" fill="#405ca7" d="M 55.5,42.5 C 56.4967,45.005 56.4967,47.6717 55.5,50.5C 55.5,50.8333 55.5,51.1667 55.5,51.5C 55.5,52.8333 55.5,54.1667 55.5,55.5C 55.5,56.1667 55.5,56.8333 55.5,57.5C 53.2362,58.2186 50.9029,58.552 48.5,58.5C 48.5417,60.8489 47.3751,62.1822 45,62.5C 42.2565,61.1969 39.4232,60.1969 36.5,59.5C 36.5,58.8333 36.5,58.1667 36.5,57.5C 37.6948,57.6775 38.8615,58.0109 40,58.5C 41.2798,58.3865 42.1131,57.7199 42.5,56.5C 40.7219,56.4307 38.8886,56.0974 37,55.5C 36.2214,53.1929 36.7214,51.1929 38.5,49.5C 37.8075,48.4822 37.1408,47.4822 36.5,46.5C 36.5,45.5 36.5,44.5 36.5,43.5C 39.5549,44.5236 42.5549,45.8569 45.5,47.5C 48.5766,45.295 51.9099,43.6284 55.5,42.5 Z"/></g>
<g><path style="opacity:1" fill="#9d7329" d="M 50.5,52.5 C 52.8852,53.8673 52.5518,55.2007 49.5,56.5C 49.1667,56 48.8333,55.5 48.5,55C 49.0556,53.9889 49.7222,53.1556 50.5,52.5 Z"/></g>
<g><path style="opacity:1" fill="#fde7d6" d="M 55.5,51.5 C 60.8583,52.6818 65.8583,54.6818 70.5,57.5C 73.3626,61.2432 73.0293,64.7432 69.5,68C 65.942,70.4083 62.1087,72.2416 58,73.5C 56.6841,70.972 55.5174,70.972 54.5,73.5C 45.4313,75.2661 36.7647,74.0995 28.5,70C 24.288,67.7417 22.6213,64.2417 23.5,59.5C 23.5,58.8333 23.5,58.1667 23.5,57.5C 24.6049,56.3995 25.9382,55.7329 27.5,55.5C 27.3893,56.1174 27.056,56.6174 26.5,57C 28.0629,57.7589 29.0629,58.9256 29.5,60.5C 30.4495,65.2716 33.4495,67.7716 38.5,68C 41.1667,68.1667 43.8333,68.3333 46.5,68.5C 49.6996,68.3985 52.6996,67.7319 55.5,66.5C 59.9899,67.9182 63.3232,66.5849 65.5,62.5C 63.631,58.2204 60.2977,55.887 55.5,55.5C 55.5,54.1667 55.5,52.8333 55.5,51.5 Z"/></g>
<g><path style="opacity:1" fill="#474646" d="M 55.5,57.5 C 58.3892,57.999 59.0558,59.499 57.5,62C 55.8904,63.4947 54.2237,63.6613 52.5,62.5C 51.0727,66.5474 48.406,67.8808 44.5,66.5C 42.572,64.5259 40.2387,63.0259 37.5,62C 36.7476,61.3292 36.4142,60.4959 36.5,59.5C 39.4232,60.1969 42.2565,61.1969 45,62.5C 47.3751,62.1822 48.5417,60.8489 48.5,58.5C 50.9029,58.552 53.2362,58.2186 55.5,57.5 Z"/></g>
<g><path style="opacity:1" fill="#866a13" d="M 36.5,57.5 C 36.5,58.1667 36.5,58.8333 36.5,59.5C 36.4142,60.4959 36.7476,61.3292 37.5,62C 40.2387,63.0259 42.572,64.5259 44.5,66.5C 40.4226,65.6297 36.4226,64.4631 32.5,63C 31.6195,62.2917 30.9528,61.4584 30.5,60.5C 31.6874,58.0246 33.6874,57.0246 36.5,57.5 Z"/></g>
<g><path style="opacity:1" fill="#e9b924" d="M 55.5,55.5 C 60.2977,55.887 63.631,58.2204 65.5,62.5C 63.3232,66.5849 59.9899,67.9182 55.5,66.5C 52.6996,67.7319 49.6996,68.3985 46.5,68.5C 43.8333,68.3333 41.1667,68.1667 38.5,68C 33.4495,67.7716 30.4495,65.2716 29.5,60.5C 29.8333,60.5 30.1667,60.5 30.5,60.5C 30.9528,61.4584 31.6195,62.2917 32.5,63C 36.4226,64.4631 40.4226,65.6297 44.5,66.5C 48.406,67.8808 51.0727,66.5474 52.5,62.5C 54.2237,63.6613 55.8904,63.4947 57.5,62C 59.0558,59.499 58.3892,57.999 55.5,57.5C 55.5,56.8333 55.5,56.1667 55.5,55.5 Z"/></g>
<g><path style="opacity:1" fill="#dcdfee" d="M 12.5,71.5 C 11.8902,70.609 11.5569,69.609 11.5,68.5C 13.9124,68.756 15.5791,67.756 16.5,65.5C 19.1035,67.2069 19.7702,69.3736 18.5,72C 16.2709,71.7203 14.2709,71.5536 12.5,71.5 Z"/></g>
<g><path style="opacity:1" fill="#dde0ee" d="M 78.5,74.5 C 77.5169,73.1497 76.1836,72.1497 74.5,71.5C 74.8627,70.8165 75.1961,70.1499 75.5,69.5C 76.8734,69.6567 78.2068,69.49 79.5,69C 77,68.1667 76.8333,67 79,65.5C 79.6667,67.5 81,68.8333 83,69.5C 82.956,71.2785 82.2893,72.9452 81,74.5C 80.2303,75.5981 79.397,75.5981 78.5,74.5 Z"/></g>
<g><path style="opacity:1" fill="#e5b834" d="M 70.5,57.5 C 71.4584,57.9528 72.2917,58.6195 73,59.5C 73.9963,63.2072 73.3296,66.5405 71,69.5C 66.1071,73.2966 60.6071,75.6299 54.5,76.5C 49.4889,76.6659 44.4889,76.4993 39.5,76C 36.6473,74.5699 33.6473,73.7366 30.5,73.5C 26.9012,71.7371 24.0678,69.0705 22,65.5C 21.0589,63.0106 21.5589,61.0106 23.5,59.5C 22.6213,64.2417 24.288,67.7417 28.5,70C 36.7647,74.0995 45.4313,75.2661 54.5,73.5C 55.5174,70.972 56.6841,70.972 58,73.5C 62.1087,72.2416 65.942,70.4083 69.5,68C 73.0293,64.7432 73.3626,61.2432 70.5,57.5 Z"/></g>
<g><path style="opacity:1" fill="#e3e5f1" d="M 25.5,77.5 C 23.3379,77.8972 22.0046,79.2305 21.5,81.5C 20.7579,79.8918 20.5913,78.2251 21,76.5C 20.3109,77.3567 19.4776,78.0233 18.5,78.5C 15.9548,77.4508 15.9548,76.4508 18.5,75.5C 21.6904,71.5796 24.0237,72.2462 25.5,77.5 Z"/></g>
<g><path style="opacity:1" fill="#eaedf5" d="M 31.5,81.5 C 30.4246,80.4376 29.4246,80.4376 28.5,81.5C 28.4316,82.8162 28.4316,84.1495 28.5,85.5C 24.5653,84.6633 23.8987,82.9966 26.5,80.5C 26.5653,77.0017 27.8986,76.5017 30.5,79C 31.2524,79.6708 31.5858,80.5041 31.5,81.5 Z"/></g>
<g><path style="opacity:1" fill="#f0f2f8" d="M 33.5,80.5 C 34.4734,80.9867 35.4734,81.4867 36.5,82C 35.2346,86.4745 35.9013,86.6411 38.5,82.5C 38.8333,82.8333 39.1667,83.1667 39.5,83.5C 38.1008,86.0537 36.1008,87.7204 33.5,88.5C 33.5,85.8333 33.5,83.1667 33.5,80.5 Z"/></g>
<g><path style="opacity:1" fill="#3850a1" d="M 13.5,40.5 C 12.4852,52.9562 16.1519,63.7895 24.5,73C 42.776,85.546 59.776,84.046 75.5,68.5C 75.5,68.8333 75.5,69.1667 75.5,69.5C 75.1961,70.1499 74.8627,70.8165 74.5,71.5C 76.1836,72.1497 77.5169,73.1497 78.5,74.5C 78.4929,77.5868 77.4929,80.5868 75.5,83.5C 62.5806,92.9867 48.5806,95.32 33.5,90.5C 34.5063,90.0623 34.5063,89.3957 33.5,88.5C 36.1008,87.7204 38.1008,86.0537 39.5,83.5C 39.1667,83.1667 38.8333,82.8333 38.5,82.5C 35.9013,86.6411 35.2346,86.4745 36.5,82C 35.4734,81.4867 34.4734,80.9867 33.5,80.5C 32.6862,82.631 32.1862,84.9644 32,87.5C 30.7586,85.4521 30.5919,83.4521 31.5,81.5C 31.5858,80.5041 31.2524,79.6708 30.5,79C 27.8986,76.5017 26.5653,77.0017 26.5,80.5C 25.596,79.791 25.2627,78.791 25.5,77.5C 24.0237,72.2462 21.6904,71.5796 18.5,75.5C 16.2722,74.4073 13.9389,73.4073 11.5,72.5C 11.6236,71.8933 11.9569,71.56 12.5,71.5C 14.2709,71.5536 16.2709,71.7203 18.5,72C 19.7702,69.3736 19.1035,67.2069 16.5,65.5C 15.5791,67.756 13.9124,68.756 11.5,68.5C 11.369,67.7611 11.5357,67.0944 12,66.5C 12.6543,67.6956 13.1543,67.6956 13.5,66.5C 11.2029,60.9766 9.3696,55.3099 8,49.5C 7.66667,51.1667 7.33333,52.8333 7,54.5C 6.09129,52.3425 5.92462,50.3425 6.5,48.5C 7.82207,48.33 8.98873,48.6634 10,49.5C 10.4101,48.0993 10.9101,46.766 11.5,45.5C 12.1667,43.8333 12.8333,42.1667 13.5,40.5 Z"/></g>
<g><path style="opacity:1" fill="#e7e9f3" d="M 53.5,82.5 C 55.3435,84.2789 56.0102,86.6122 55.5,89.5C 53.6693,88.9478 52.0026,88.9478 50.5,89.5C 49.6816,87.8917 49.0149,86.2251 48.5,84.5C 50.2592,83.246 51.7592,83.5794 53,85.5C 53.4828,84.552 53.6495,83.552 53.5,82.5 Z"/></g>
<g><path style="opacity:1" fill="#d5daeb" d="M 59.5,80.5 C 61.3464,80.2222 62.6798,80.8888 63.5,82.5C 62.1667,83.8333 62.1667,85.1667 63.5,86.5C 62.6721,87.4147 61.6721,88.0814 60.5,88.5C 59.7657,86.1851 58.4324,84.3518 56.5,83C 57.5707,82.1482 58.5707,81.3149 59.5,80.5 Z"/></g>
<g><path style="opacity:1" fill="#dde1ef" d="M 64.5,78.5 C 66.9781,79.1949 68.9781,80.6949 70.5,83C 69.287,85.3257 67.9537,85.6591 66.5,84C 65.6805,82.1997 65.0138,80.3664 64.5,78.5 Z"/></g>
<g><path style="opacity:1" fill="#786118" d="M 30.5,73.5 C 33.6473,73.7366 36.6473,74.5699 39.5,76C 44.4889,76.4993 49.4889,76.6659 54.5,76.5C 49.3497,77.6507 44.0164,77.8174 38.5,77C 35.5243,76.2952 32.8577,75.1286 30.5,73.5 Z"/></g>
<g><path style="opacity:1" fill="#dfdfee" d="M 71.5,73.5 C 75.9764,73.8003 77.3097,75.9669 75.5,80C 69.7377,80.4178 68.4044,78.2511 71.5,73.5 Z"/></g>
<g><path style="opacity:1" fill="#bfc6e0" d="M 41.5,83.5 C 43.1667,83.5 44.8333,83.5 46.5,83.5C 45.1667,85.8333 45.1667,88.1667 46.5,90.5C 44.396,90.7989 42.396,90.4656 40.5,89.5C 41.3482,87.5914 41.6816,85.5914 41.5,83.5 Z"/></g>
</svg>
