<?xml version="1.0" encoding="UTF-8"?>
<!DOCTYPE svg PUBLIC "-//W3C//DTD SVG 1.1//EN" "http://www.w3.org/Graphics/SVG/1.1/DTD/svg11.dtd">
<svg xmlns="http://www.w3.org/2000/svg" version="1.1" width="96px" height="96px" style="shape-rendering:geometricPrecision; text-rendering:geometricPrecision; image-rendering:optimizeQuality; fill-rule:evenodd; clip-rule:evenodd" xmlns:xlink="http://www.w3.org/1999/xlink">
<g><path style="opacity:0.999" fill="#b8874d" d="M 37.5,-0.5 C 44.1667,-0.5 50.8333,-0.5 57.5,-0.5C 77.6085,5.27486 90.2752,18.2749 95.5,38.5C 95.5,44.5 95.5,50.5 95.5,56.5C 90.2752,76.7251 77.6085,89.7251 57.5,95.5C 50.8333,95.5 44.1667,95.5 37.5,95.5C 18.2631,89.93 5.59648,77.5967 -0.5,58.5C -0.5,51.1667 -0.5,43.8333 -0.5,36.5C 5.59648,17.4033 18.2631,5.07001 37.5,-0.5 Z"/></g>
<g><path style="opacity:1" fill="#17160b" d="M 36.5,17.5 C 55.6656,18.3356 68.8323,27.669 76,45.5C 78.5214,70.9796 67.3548,80.8129 42.5,75C 25.1532,66.9993 16.9865,53.4993 18,34.5C 21.1898,25.4725 27.3565,19.8058 36.5,17.5 Z"/></g>
<g><path style="opacity:1" fill="#8bc44a" d="M 33.5,20.5 C 53.8166,19.3222 67.3166,28.3222 74,47.5C 76.6415,64.1766 69.6415,73.1766 53,74.5C 36.5878,72.4288 25.9212,63.4288 21,47.5C 18.2143,35.0799 22.381,26.0799 33.5,20.5 Z"/></g>
<g><path style="opacity:1" fill="#141b0b" d="M 33.5,23.5 C 40.327,22.8253 43.1603,25.8253 42,32.5C 38.1459,41.4412 32.1459,43.7745 24,39.5C 23.3333,37.5 23.3333,35.5 24,33.5C 26.6961,29.6393 29.8627,26.306 33.5,23.5 Z"/></g>
<g><path style="opacity:1" fill="#578f30" d="M 33.5,26.5 C 35.5,26.5 37.5,26.5 39.5,26.5C 39.4513,35.2155 35.118,39.5488 26.5,39.5C 25.9684,33.56 28.3017,29.2267 33.5,26.5 Z"/></g>
<g><path style="opacity:1" fill="#161c0d" d="M 60.5,32.5 C 63.4278,33.5914 65.5945,35.5914 67,38.5C 70.2724,43.3697 72.1057,48.7031 72.5,54.5C 71.5,54.5 70.5,54.5 69.5,54.5C 69.3907,46.9481 66.5574,40.6148 61,35.5C 60.5172,34.552 60.3505,33.552 60.5,32.5 Z"/></g>
</svg>
