<?xml version="1.0" encoding="UTF-8"?>
<!DOCTYPE svg PUBLIC "-//W3C//DTD SVG 1.1//EN" "http://www.w3.org/Graphics/SVG/1.1/DTD/svg11.dtd">
<svg xmlns="http://www.w3.org/2000/svg" version="1.1" width="96px" height="96px" style="shape-rendering:geometricPrecision; text-rendering:geometricPrecision; image-rendering:optimizeQuality; fill-rule:evenodd; clip-rule:evenodd" xmlns:xlink="http://www.w3.org/1999/xlink">
<g><path style="opacity:0.642" fill="#100d0a" d="M 38.5,-0.5 C 44.5,-0.5 50.5,-0.5 56.5,-0.5C 60.5647,1.58939 64.8981,3.42273 69.5,5C 76.4484,8.89352 82.2817,14.0602 87,20.5C 89.8948,26.2897 92.7282,31.9563 95.5,37.5C 95.5,44.5 95.5,51.5 95.5,58.5C 88.787,76.8789 76.1204,89.2122 57.5,95.5C 51.1667,95.5 44.8333,95.5 38.5,95.5C 5.9075,82.9804 -5.25917,59.9804 5,26.5C 12.5255,12.791 23.6922,3.79102 38.5,-0.5 Z"/></g>
<g><path style="opacity:1" fill="#e4bc95" d="M 36.5,2.5 C 63.7558,-0.963834 82.2558,10.0362 92,35.5C 96.3099,62.0526 86.1432,80.5526 61.5,91C 33.7542,96.9064 14.5875,86.7397 4,60.5C -0.987746,32.1301 9.84559,12.7968 36.5,2.5 Z"/></g>
<g><path style="opacity:1" fill="#8c2625" d="M 39.5,6.5 C 73.0263,5.19518 89.5263,21.1952 89,54.5C 84.8333,73.3333 73.3333,84.8333 54.5,89C 29.1748,90.586 13.3415,79.086 7,54.5C 5.15128,29.8529 15.9846,13.8529 39.5,6.5 Z"/></g>
<g><path style="opacity:1" fill="#22150f" d="M 44.5,67.5 C 44.5079,70.5448 44.8413,73.5448 45.5,76.5C 47.9468,76.385 49.9468,75.385 51.5,73.5C 50.5385,77.1461 48.2051,78.3128 44.5,77C 43.5562,74.2809 43.2229,71.4475 43.5,68.5C 40.9514,69.5091 38.2848,70.3425 35.5,71C 31.5673,74.6246 26.9006,76.4579 21.5,76.5C 20.2905,76.0679 19.2905,75.4013 18.5,74.5C 20.5,74.5 22.5,74.5 24.5,74.5C 24.4326,73.0413 24.7659,71.7079 25.5,70.5C 28.0351,69.6513 30.5351,68.6513 33,67.5C 33.7648,67.5699 34.2648,67.9033 34.5,68.5C 35.5832,68.5394 36.5832,68.8728 37.5,69.5C 39.3572,66.7655 41.6906,66.0989 44.5,67.5 Z"/></g>
<g><path style="opacity:1" fill="#c7945f" d="M 34.5,68.5 C 33.9688,70.6237 32.6355,72.1237 30.5,73C 29.0563,73.7805 27.723,73.6139 26.5,72.5C 28.9526,70.7081 31.6192,69.3748 34.5,68.5 Z"/></g>
<g><path style="opacity:1" fill="#dba517" d="M 51.5,64.5 C 51.5,67.5 51.5,70.5 51.5,73.5C 49.9468,75.385 47.9468,76.385 45.5,76.5C 44.8413,73.5448 44.5079,70.5448 44.5,67.5C 45.7918,69.2549 46.7918,71.2549 47.5,73.5C 47.8797,71.9793 48.0464,70.3126 48,68.5C 48.6543,69.6956 49.1543,69.6956 49.5,68.5C 48.0163,66.1339 48.683,64.8005 51.5,64.5 Z"/></g>
<g><path style="opacity:1" fill="#556f2d" d="M 21.5,66.5 C 25.6429,68.314 25.3095,69.314 20.5,69.5C 20.5569,68.391 20.8902,67.391 21.5,66.5 Z"/></g>
<g><path style="opacity:1" fill="#241708" d="M 18.5,64.5 C 18.5,67.8333 18.5,71.1667 18.5,74.5C 17.6554,73.3285 16.9887,71.9952 16.5,70.5C 16.595,68.2143 17.2616,66.2143 18.5,64.5 Z"/></g>
<g><path style="opacity:1" fill="#d79c14" d="M 23.5,61.5 C 22.5592,63.0495 21.8925,64.7162 21.5,66.5C 20.8902,67.391 20.5569,68.391 20.5,69.5C 20.0618,69.4346 19.7284,69.6012 19.5,70C 20.6667,70.5 21.5,71.3333 22,72.5C 22.8159,71.1772 23.9826,70.5106 25.5,70.5C 24.7659,71.7079 24.4326,73.0413 24.5,74.5C 22.5,74.5 20.5,74.5 18.5,74.5C 18.5,71.1667 18.5,67.8333 18.5,64.5C 19.404,63.791 19.7373,62.791 19.5,61.5C 20.8333,61.5 22.1667,61.5 23.5,61.5 Z"/></g>
<g><path style="opacity:1" fill="#201107" d="M 63.5,56.5 C 63.3146,58.1958 62.4813,59.5291 61,60.5C 60.2828,59.9558 59.7828,59.2891 59.5,58.5C 60.8333,57.8333 62.1667,57.1667 63.5,56.5 Z"/></g>
<g><path style="opacity:1" fill="#221b0e" d="M 59.5,54.5 C 56.5322,54.6261 54.5322,56.1261 53.5,59C 55.5366,58.5174 57.5366,57.6841 59.5,56.5C 59.5,57.1667 59.5,57.8333 59.5,58.5C 57.5742,59.2423 55.7409,60.2423 54,61.5C 53.1606,65.6372 52.3272,69.6372 51.5,73.5C 51.5,70.5 51.5,67.5 51.5,64.5C 50.7232,59.3837 52.7232,55.3837 57.5,52.5C 58.5223,52.8555 59.189,53.5222 59.5,54.5 Z"/></g>
<g><path style="opacity:1" fill="#906b46" d="M 59.5,54.5 C 60.8333,55.1667 60.8333,55.8333 59.5,56.5C 57.5366,57.6841 55.5366,58.5174 53.5,59C 54.5322,56.1261 56.5322,54.6261 59.5,54.5 Z"/></g>
<g><path style="opacity:1" fill="#20110c" d="M 64.5,51.5 C 64.3505,52.552 64.5172,53.552 65,54.5C 66.1096,52.9632 67.6096,52.2965 69.5,52.5C 67.7952,54.1921 65.7952,55.5254 63.5,56.5C 63.3225,55.3052 62.9891,54.1385 62.5,53C 62.8361,51.9701 63.5028,51.4701 64.5,51.5 Z"/></g>
<g><path style="opacity:1" fill="#1f100a" d="M 26.5,46.5 C 27.6002,47.5585 28.9336,48.3918 30.5,49C 33.0824,51.8921 32.9158,54.7254 30,57.5C 28.9887,58.3366 27.8221,58.67 26.5,58.5C 29.3131,56.5297 30.4798,53.8631 30,50.5C 22.5649,48.9349 19.2316,51.9349 20,59.5C 21.3561,60.3802 22.8561,60.7135 24.5,60.5C 24.5,61.1667 24.1667,61.5 23.5,61.5C 22.1667,61.5 20.8333,61.5 19.5,61.5C 19.7373,62.791 19.404,63.791 18.5,64.5C 16.3082,56.0759 18.9749,50.0759 26.5,46.5 Z"/></g>
<g><path style="opacity:1" fill="#ab3737" d="M 26.5,58.5 C 26.1667,59.5 25.5,60.1667 24.5,60.5C 22.8561,60.7135 21.3561,60.3802 20,59.5C 19.2316,51.9349 22.5649,48.9349 30,50.5C 30.4798,53.8631 29.3131,56.5297 26.5,58.5 Z"/></g>
<g><path style="opacity:1" fill="#ac3232" d="M 86.5,38.5 C 90.496,64.3379 79.8293,80.5045 54.5,87C 44.5429,88.716 35.2096,87.0493 26.5,82C 24.576,80.2502 22.9093,78.4169 21.5,76.5C 26.9006,76.4579 31.5673,74.6246 35.5,71C 38.2848,70.3425 40.9514,69.5091 43.5,68.5C 43.2229,71.4475 43.5562,74.2809 44.5,77C 48.2051,78.3128 50.5385,77.1461 51.5,73.5C 52.3272,69.6372 53.1606,65.6372 54,61.5C 55.7409,60.2423 57.5742,59.2423 59.5,58.5C 59.7828,59.2891 60.2828,59.9558 61,60.5C 62.4813,59.5291 63.3146,58.1958 63.5,56.5C 65.7952,55.5254 67.7952,54.1921 69.5,52.5C 70.8333,51.8333 71.8333,50.8333 72.5,49.5C 74.5061,50.5108 76.5061,51.5108 78.5,52.5C 80.6924,52.2427 82.3591,51.2427 83.5,49.5C 84.7498,49.4226 85.5831,48.756 86,47.5C 86.498,44.5184 86.6646,41.5184 86.5,38.5 Z"/></g>
<g><path style="opacity:1" fill="#8f6c46" d="M 72.5,49.5 C 71.8333,50.8333 70.8333,51.8333 69.5,52.5C 67.6096,52.2965 66.1096,52.9632 65,54.5C 64.5172,53.552 64.3505,52.552 64.5,51.5C 67.5272,49.7356 70.0272,47.4022 72,44.5C 73.0363,46.299 73.2029,47.9657 72.5,49.5 Z"/></g>
<g><path style="opacity:1" fill="#f3cb0e" d="M 67.5,31.5 C 67.5,32.8333 68.1667,33.5 69.5,33.5C 70.2834,37.1458 70.4501,40.8125 70,44.5C 67.5774,46.4166 65.7441,48.7499 64.5,51.5C 63.5028,51.4701 62.8361,51.9701 62.5,53C 62.9891,54.1385 63.3225,55.3052 63.5,56.5C 62.1667,57.1667 60.8333,57.8333 59.5,58.5C 59.5,57.8333 59.5,57.1667 59.5,56.5C 60.8333,55.8333 60.8333,55.1667 59.5,54.5C 59.189,53.5222 58.5223,52.8555 57.5,52.5C 52.7232,55.3837 50.7232,59.3837 51.5,64.5C 48.683,64.8005 48.0163,66.1339 49.5,68.5C 49.1543,69.6956 48.6543,69.6956 48,68.5C 48.0464,70.3126 47.8797,71.9793 47.5,73.5C 46.7918,71.2549 45.7918,69.2549 44.5,67.5C 41.6906,66.0989 39.3572,66.7655 37.5,69.5C 36.5832,68.8728 35.5832,68.5394 34.5,68.5C 34.2648,67.9033 33.7648,67.5699 33,67.5C 30.5351,68.6513 28.0351,69.6513 25.5,70.5C 23.9826,70.5106 22.8159,71.1772 22,72.5C 21.5,71.3333 20.6667,70.5 19.5,70C 19.7284,69.6012 20.0618,69.4346 20.5,69.5C 25.3095,69.314 25.6429,68.314 21.5,66.5C 21.8925,64.7162 22.5592,63.0495 23.5,61.5C 24.1667,61.5 24.5,61.1667 24.5,60.5C 25.5,60.1667 26.1667,59.5 26.5,58.5C 27.8221,58.67 28.9887,58.3366 30,57.5C 32.9158,54.7254 33.0824,51.8921 30.5,49C 28.9336,48.3918 27.6002,47.5585 26.5,46.5C 28.1394,44.1939 30.1394,42.1939 32.5,40.5C 32.56,41.0431 32.8933,41.3764 33.5,41.5C 34.6113,40.3887 35.9446,39.722 37.5,39.5C 44.5822,41.2218 48.9156,38.5551 50.5,31.5C 51.5109,29.5976 51.6776,27.5976 51,25.5C 50.3292,24.7476 49.4959,24.4142 48.5,24.5C 47.2613,23.788 46.7613,22.788 47,21.5C 49.0693,22.2638 51.236,22.7638 53.5,23C 58.3283,25.5802 62.995,28.4135 67.5,31.5 Z"/></g>
<g><path style="opacity:1" fill="#456432" d="M 33.5,60.5 C 35.6246,61.3676 35.7913,62.3676 34,63.5C 32.3167,62.8235 32.1501,61.8235 33.5,60.5 Z"/></g>
<g><path style="opacity:1" fill="#5f722f" d="M 45.5,58.5 C 46.6431,58.9081 47.6431,59.5748 48.5,60.5C 47.1667,61.8333 45.8333,61.8333 44.5,60.5C 44.8627,59.8165 45.1961,59.1499 45.5,58.5 Z"/></g>
<g><path style="opacity:1" fill="#190b07" d="M 43.5,47.5 C 43.2865,49.1439 43.6198,50.6439 44.5,52C 47.9963,52.6953 51.3297,52.1953 54.5,50.5C 55.1067,50.6236 55.44,50.9569 55.5,51.5C 52.0858,53.5461 48.4191,54.3795 44.5,54C 42.3918,51.9836 42.0584,49.8169 43.5,47.5 Z"/></g>
<g><path style="opacity:1" fill="#782726" d="M 47.5,43.5 C 47.3146,45.1958 46.4813,46.5291 45,47.5C 44.134,49.8961 44.634,50.5628 46.5,49.5C 47.1924,50.0253 47.6924,50.6919 48,51.5C 50.456,49.6787 53.2893,49.012 56.5,49.5C 56.6716,50.4916 56.3382,51.1583 55.5,51.5C 55.44,50.9569 55.1067,50.6236 54.5,50.5C 51.3297,52.1953 47.9963,52.6953 44.5,52C 43.6198,50.6439 43.2865,49.1439 43.5,47.5C 44.5,45.8333 45.8333,44.5 47.5,43.5 Z"/></g>
<g><path style="opacity:1" fill="#b93939" d="M 57.5,42.5 C 57.9528,43.4584 58.6195,44.2917 59.5,45C 57.8588,46.129 56.8588,47.629 56.5,49.5C 53.2893,49.012 50.456,49.6787 48,51.5C 47.6924,50.6919 47.1924,50.0253 46.5,49.5C 44.634,50.5628 44.134,49.8961 45,47.5C 46.4813,46.5291 47.3146,45.1958 47.5,43.5C 50.7698,41.8396 54.1031,41.5062 57.5,42.5 Z"/></g>
<g><path style="opacity:1" fill="#31260c" d="M 57.5,42.5 C 59.2517,42.4176 60.2517,43.2509 60.5,45C 60.0267,47.3046 58.6934,48.8046 56.5,49.5C 56.8588,47.629 57.8588,46.129 59.5,45C 58.6195,44.2917 57.9528,43.4584 57.5,42.5 Z"/></g>
<g><path style="opacity:1" fill="#375d34" d="M 34.5,45.5 C 38.0507,46.1855 38.2173,47.1855 35,48.5C 34.5172,47.552 34.3505,46.552 34.5,45.5 Z"/></g>
<g><path style="opacity:1" fill="#1a1506" d="M 57.5,42.5 C 54.1031,41.5062 50.7698,41.8396 47.5,43.5C 48.512,41.124 50.3454,40.124 53,40.5C 55.0081,40.3068 56.5081,40.9735 57.5,42.5 Z"/></g>
<g><path style="opacity:1" fill="#395c34" d="M 62.5,39.5 C 66.4472,40.6298 66.2805,41.6298 62,42.5C 61.5304,41.4232 61.6971,40.4232 62.5,39.5 Z"/></g>
<g><path style="opacity:1" fill="#d99c16" d="M 50.5,31.5 C 48.9156,38.5551 44.5822,41.2218 37.5,39.5C 35.9446,39.722 34.6113,40.3887 33.5,41.5C 32.8933,41.3764 32.56,41.0431 32.5,40.5C 32.5106,38.9826 33.1772,37.8159 34.5,37C 36.4727,36.5045 38.4727,36.3379 40.5,36.5C 41.5,37.8333 42.5,37.8333 43.5,36.5C 46.0561,35.2977 48.3894,33.631 50.5,31.5 Z"/></g>
<g><path style="opacity:1" fill="#221712" d="M 82.5,29.5 C 84.1136,32.3923 85.4469,35.3923 86.5,38.5C 86.6646,41.5184 86.498,44.5184 86,47.5C 85.5831,48.756 84.7498,49.4226 83.5,49.5C 82.3591,51.2427 80.6924,52.2427 78.5,52.5C 76.5061,51.5108 74.5061,50.5108 72.5,49.5C 73.2029,47.9657 73.0363,46.299 72,44.5C 70.0272,47.4022 67.5272,49.7356 64.5,51.5C 65.7441,48.7499 67.5774,46.4166 70,44.5C 70.4501,40.8125 70.2834,37.1458 69.5,33.5C 69.5,32.8333 69.8333,32.5 70.5,32.5C 71.6382,35.7193 72.4715,39.0526 73,42.5C 75.2276,40.8866 77.7276,40.22 80.5,40.5C 82.0174,40.5106 83.1841,41.1772 84,42.5C 84.1667,41.8333 84.3333,41.1667 84.5,40.5C 83.352,36.9106 82.6853,33.244 82.5,29.5 Z"/></g>
<g><path style="opacity:1" fill="#b78556" d="M 83.5,49.5 C 77.0661,52.2124 74.2328,50.2124 75,43.5C 77.7158,41.0321 80.5492,41.0321 83.5,43.5C 84.5192,45.4595 84.5192,47.4595 83.5,49.5 Z"/></g>
<g><path style="opacity:1" fill="#822326" d="M 77.5,43.5 C 79.6807,43.2837 81.3474,44.117 82.5,46C 81.0448,48.0162 79.0448,48.8495 76.5,48.5C 76.366,46.7085 76.6993,45.0418 77.5,43.5 Z"/></g>
<g><path style="opacity:1" fill="#1e1609" d="M 48.5,24.5 C 49.4959,24.4142 50.3292,24.7476 51,25.5C 51.6776,27.5976 51.5109,29.5976 50.5,31.5C 48.3894,33.631 46.0561,35.2977 43.5,36.5C 46.36,33.7945 48.6933,30.6278 50.5,27C 49.6195,26.2917 48.9528,25.4584 48.5,24.5 Z"/></g>
<g><path style="opacity:1" fill="#64772d" d="M 55.5,30.5 C 56.9953,30.4148 57.9953,31.0815 58.5,32.5C 55.2218,34.1515 54.2218,33.4848 55.5,30.5 Z"/></g>
<g><path style="opacity:1" fill="#21110a" d="M 35.5,25.5 C 32.7164,31.1407 34.383,34.8074 40.5,36.5C 38.4727,36.3379 36.4727,36.5045 34.5,37C 33.1772,37.8159 32.5106,38.9826 32.5,40.5C 30.1394,42.1939 28.1394,44.1939 26.5,46.5C 28.5313,42.289 31.198,38.4556 34.5,35C 30.2995,31.3638 30.6328,28.1971 35.5,25.5 Z"/></g>
<g><path style="opacity:1" fill="#9e3030" d="M 48.5,24.5 C 48.9528,25.4584 49.6195,26.2917 50.5,27C 48.6933,30.6278 46.36,33.7945 43.5,36.5C 42.5,37.8333 41.5,37.8333 40.5,36.5C 34.383,34.8074 32.7164,31.1407 35.5,25.5C 37.3069,24.3852 39.3069,23.7186 41.5,23.5C 43.8183,23.9971 46.1516,24.3305 48.5,24.5 Z"/></g>
<g><path style="opacity:1" fill="#8c6543" d="M 47.5,15.5 C 57.6928,15.1784 65.5261,19.1784 71,27.5C 71.3333,27.1667 71.6667,26.8333 72,26.5C 72.7482,31.1724 74.2482,35.5057 76.5,39.5C 78.099,39.2322 79.4324,39.5655 80.5,40.5C 77.7276,40.22 75.2276,40.8866 73,42.5C 72.4715,39.0526 71.6382,35.7193 70.5,32.5C 70.762,31.0222 70.4287,29.6888 69.5,28.5C 65.3057,24.5836 60.8057,20.9169 56,17.5C 53.6105,18.724 51.1105,19.224 48.5,19C 47.6634,17.9887 47.33,16.8221 47.5,15.5 Z"/></g>
<g><path style="opacity:1" fill="#1a0f0b" d="M 73.5,19.5 C 68.3285,16.5005 62.8285,14.1672 57,12.5C 53.1681,12.8181 49.6681,13.8181 46.5,15.5C 45.5489,16.9187 45.2155,18.5853 45.5,20.5C 47.8568,20.3367 50.1902,20.5034 52.5,21C 57.2117,23.4048 61.8784,25.9048 66.5,28.5C 67.3857,29.325 67.719,30.325 67.5,31.5C 62.995,28.4135 58.3283,25.5802 53.5,23C 51.236,22.7638 49.0693,22.2638 47,21.5C 46.7613,22.788 47.2613,23.788 48.5,24.5C 46.1516,24.3305 43.8183,23.9971 41.5,23.5C 39.3069,23.7186 37.3069,24.3852 35.5,25.5C 37.623,22.4382 40.623,20.9382 44.5,21C 42.5199,16.6335 43.8532,13.6335 48.5,12C 53.1667,11.3333 57.8333,11.3333 62.5,12C 66.5796,14.0285 70.2463,16.5285 73.5,19.5 Z"/></g>
<g><path style="opacity:1" fill="#1d1b17" d="M 73.5,19.5 C 74.5,20.1667 75.5,20.8333 76.5,21.5C 76.5,22.1667 76.5,22.8333 76.5,23.5C 74.7376,22.7377 73.7376,21.4044 73.5,19.5 Z"/></g>
<g><path style="opacity:1" fill="#d9a46d" d="M 73.5,19.5 C 73.7376,21.4044 74.7376,22.7377 76.5,23.5C 77.7839,26.1174 79.7839,28.1174 82.5,29.5C 82.6853,33.244 83.352,36.9106 84.5,40.5C 84.3333,41.1667 84.1667,41.8333 84,42.5C 83.1841,41.1772 82.0174,40.5106 80.5,40.5C 79.4324,39.5655 78.099,39.2322 76.5,39.5C 74.2482,35.5057 72.7482,31.1724 72,26.5C 71.6667,26.8333 71.3333,27.1667 71,27.5C 65.5261,19.1784 57.6928,15.1784 47.5,15.5C 47.1667,15.5 46.8333,15.5 46.5,15.5C 49.6681,13.8181 53.1681,12.8181 57,12.5C 62.8285,14.1672 68.3285,16.5005 73.5,19.5 Z"/></g>
<g><path style="opacity:1" fill="#663830" d="M 46.5,15.5 C 46.8333,15.5 47.1667,15.5 47.5,15.5C 47.33,16.8221 47.6634,17.9887 48.5,19C 51.1105,19.224 53.6105,18.724 56,17.5C 60.8057,20.9169 65.3057,24.5836 69.5,28.5C 70.4287,29.6888 70.762,31.0222 70.5,32.5C 69.8333,32.5 69.5,32.8333 69.5,33.5C 68.1667,33.5 67.5,32.8333 67.5,31.5C 67.719,30.325 67.3857,29.325 66.5,28.5C 61.8784,25.9048 57.2117,23.4048 52.5,21C 50.1902,20.5034 47.8568,20.3367 45.5,20.5C 45.2155,18.5853 45.5489,16.9187 46.5,15.5 Z"/></g>
<g><path style="opacity:1" fill="#ac3232" d="M 76.5,21.5 C 75.5,20.8333 74.5,20.1667 73.5,19.5C 70.2463,16.5285 66.5796,14.0285 62.5,12C 57.8333,11.3333 53.1667,11.3333 48.5,12C 43.8532,13.6335 42.5199,16.6335 44.5,21C 40.623,20.9382 37.623,22.4382 35.5,25.5C 30.6328,28.1971 30.2995,31.3638 34.5,35C 31.198,38.4556 28.5313,42.289 26.5,46.5C 18.9749,50.0759 16.3082,56.0759 18.5,64.5C 17.2616,66.2143 16.595,68.2143 16.5,70.5C 15.6236,70.6309 14.9569,70.2975 14.5,69.5C 6.92045,55.353 6.75379,41.0197 14,26.5C 30.3914,6.12844 49.8914,2.62844 72.5,16C 74.1667,17.6667 75.8333,19.3333 77.5,21C 77.2716,21.3988 76.9382,21.5654 76.5,21.5 Z"/></g>
</svg>
