<?xml version="1.0" encoding="UTF-8"?>
<!DOCTYPE svg PUBLIC "-//W3C//DTD SVG 1.1//EN" "http://www.w3.org/Graphics/SVG/1.1/DTD/svg11.dtd">
<svg xmlns="http://www.w3.org/2000/svg" version="1.1" width="96px" height="96px" style="shape-rendering:geometricPrecision; text-rendering:geometricPrecision; image-rendering:optimizeQuality; fill-rule:evenodd; clip-rule:evenodd" xmlns:xlink="http://www.w3.org/1999/xlink">
<g><path style="opacity:0.978" fill="#fefefe" d="M 37.5,-0.5 C 44.1667,-0.5 50.8333,-0.5 57.5,-0.5C 77.1667,5.16667 89.8333,17.8333 95.5,37.5C 95.5,44.1667 95.5,50.8333 95.5,57.5C 89.9388,76.7283 77.6055,89.3949 58.5,95.5C 51.5,95.5 44.5,95.5 37.5,95.5C 17.8333,89.8333 5.16667,77.1667 -0.5,57.5C -0.5,50.8333 -0.5,44.1667 -0.5,37.5C 5.16667,17.8333 17.8333,5.16667 37.5,-0.5 Z"/></g>
<g><path style="opacity:1" fill="#9f9f9f" d="M 30.5,23.5 C 36.6426,24.0262 37.9759,26.8595 34.5,32C 30.1496,32.6452 27.9829,30.8118 28,26.5C 28.6979,25.3094 29.5313,24.3094 30.5,23.5 Z"/></g>
<g><path style="opacity:1" fill="#a0a0a0" d="M 75.5,23.5 C 81.2925,24.4215 82.6258,27.2548 79.5,32C 74.5023,33.3297 72.3357,31.4964 73,26.5C 73.6979,25.3094 74.5313,24.3094 75.5,23.5 Z"/></g>
<g><path style="opacity:1" fill="#a2a2a2" d="M 59.5,31.5 C 61.451,31.2267 62.951,31.8934 64,33.5C 66.8219,44.1133 69.3219,54.78 71.5,65.5C 62.1607,65.6665 52.8274,65.4998 43.5,65C 42.6634,63.9887 42.33,62.8221 42.5,61.5C 50.5,61.5 58.5,61.5 66.5,61.5C 64.4834,51.4331 62.1501,41.4331 59.5,31.5 Z"/></g>
<g><path style="opacity:1" fill="#a0a0a0" d="M 38.5,75.5 C 50.168,75.7964 61.8346,76.1297 73.5,76.5C 73.5,77.8333 73.5,79.1667 73.5,80.5C 61.8275,80.333 50.1608,79.9997 38.5,79.5C 38.5,78.1667 38.5,76.8333 38.5,75.5 Z"/></g>
</svg>
