<?xml version="1.0" encoding="UTF-8"?>
<!DOCTYPE svg PUBLIC "-//W3C//DTD SVG 1.1//EN" "http://www.w3.org/Graphics/SVG/1.1/DTD/svg11.dtd">
<svg xmlns="http://www.w3.org/2000/svg" version="1.1" width="96px" height="96px" style="shape-rendering:geometricPrecision; text-rendering:geometricPrecision; image-rendering:optimizeQuality; fill-rule:evenodd; clip-rule:evenodd" xmlns:xlink="http://www.w3.org/1999/xlink">
<g><path style="opacity:1" fill="#222322" d="M -0.5,-0.5 C 13.1667,-0.5 26.8333,-0.5 40.5,-0.5C 40.5,-0.166667 40.5,0.166667 40.5,0.5C 21.8952,4.21954 9.06185,14.8862 2,32.5C 0.726429,39.1028 0.226429,45.7695 0.5,52.5C 0.166667,52.5 -0.166667,52.5 -0.5,52.5C -0.5,34.8333 -0.5,17.1667 -0.5,-0.5 Z"/></g>
<g><path style="opacity:1" fill="#49d2a2" d="M 40.5,0.5 C 67.4873,-1.09051 85.3206,10.9095 94,36.5C 97.7296,63.89 86.8963,82.7233 61.5,93C 55.5551,94.1621 49.5551,94.6621 43.5,94.5C 18.6948,91.3628 4.36148,77.3628 0.5,52.5C 0.226429,45.7695 0.726429,39.1028 2,32.5C 9.06185,14.8862 21.8952,4.21954 40.5,0.5 Z"/></g>
<g><path style="opacity:1" fill="#222222" d="M 36.5,3.5 C 63.4419,0.37429 81.6086,11.3743 91,36.5C 94.6451,62.3917 84.4784,80.2251 60.5,90C 40.2609,95.2538 23.7609,89.7538 11,73.5C -4.76101,41.2804 3.73899,17.9471 36.5,3.5 Z"/></g>
<g><path style="opacity:1" fill="#25312c" d="M 31.5,82.5 C 40.8408,85.0843 50.1742,85.0843 59.5,82.5C 60.7701,81.7124 61.7701,80.7124 62.5,79.5C 62.8333,79.5 63.1667,79.5 63.5,79.5C 74.5759,75.7569 80.9093,68.0902 82.5,56.5C 82.9499,48.0215 82.1165,39.6881 80,31.5C 75.6632,25.9969 70.8299,20.9969 65.5,16.5C 62.6797,13.9193 59.3464,12.0859 55.5,11C 49.4492,10.254 43.4492,10.4207 37.5,11.5C 55.6322,6.46569 70.1322,11.799 81,27.5C 90.0016,47.3988 86.5016,64.5654 70.5,79C 66.9295,80.1186 63.5961,81.7853 60.5,84C 52.5788,85.5675 44.5788,85.9009 36.5,85C 34.5087,84.6264 32.842,83.793 31.5,82.5 Z"/></g>
<g><path style="opacity:1" fill="#284239" d="M 65.5,16.5 C 62.0504,15.0905 58.3837,14.4238 54.5,14.5C 39.3967,10.1479 27.2301,14.4812 18,27.5C 16.4086,29.9266 15.5752,32.5933 15.5,35.5C 15.1667,37.5 14.8333,39.5 14.5,41.5C 13.1914,43.5706 12.5248,46.0706 12.5,49C 12.7132,54.5787 14.2132,59.7454 17,64.5C 17.7083,65.3805 18.5416,66.0472 19.5,66.5C 19.8333,67.8333 20.1667,69.1667 20.5,70.5C 19.5041,70.5858 18.6708,70.2524 18,69.5C 15.7409,66.3541 13.7409,63.0207 12,59.5C 10.0931,51.4847 10.0931,43.4847 12,35.5C 16.875,23.453 25.375,15.453 37.5,11.5C 43.4492,10.4207 49.4492,10.254 55.5,11C 59.3464,12.0859 62.6797,13.9193 65.5,16.5 Z"/></g>
<g><path style="opacity:1" fill="#295f4c" d="M 54.5,14.5 C 36.5165,12.527 23.5165,19.527 15.5,35.5C 15.5752,32.5933 16.4086,29.9266 18,27.5C 27.2301,14.4812 39.3967,10.1479 54.5,14.5 Z"/></g>
<g><path style="opacity:1" fill="#306a55" d="M 14.5,41.5 C 13.4875,50.4375 15.1541,58.7708 19.5,66.5C 18.5416,66.0472 17.7083,65.3805 17,64.5C 14.2132,59.7454 12.7132,54.5787 12.5,49C 12.5248,46.0706 13.1914,43.5706 14.5,41.5 Z"/></g>
<g><path style="opacity:1" fill="#2b634f" d="M 54.5,14.5 C 58.3837,14.4238 62.0504,15.0905 65.5,16.5C 70.8299,20.9969 75.6632,25.9969 80,31.5C 82.1165,39.6881 82.9499,48.0215 82.5,56.5C 81.5041,56.4142 80.6708,56.7476 80,57.5C 78.2486,65.0262 74.082,70.6928 67.5,74.5C 81.7206,61.1003 84.2206,45.767 75,28.5C 69.6786,21.4372 62.8453,16.7705 54.5,14.5 Z"/></g>
<g><path style="opacity:1" fill="#e6f8f3" d="M 54.5,14.5 C 62.8453,16.7705 69.6786,21.4372 75,28.5C 84.2206,45.767 81.7206,61.1003 67.5,74.5C 56.8171,80.796 45.4838,82.1294 33.5,78.5C 28.4206,74.9635 23.7539,70.9635 19.5,66.5C 15.1541,58.7708 13.4875,50.4375 14.5,41.5C 14.8333,39.5 15.1667,37.5 15.5,35.5C 23.5165,19.527 36.5165,12.527 54.5,14.5 Z"/></g>
<g><path style="opacity:1" fill="#31886a" d="M 51.5,54.5 C 55.5,57.8333 59.1667,61.5 62.5,65.5C 63.3845,69.4896 62.0511,72.3229 58.5,74C 52.7386,75.7031 47.0719,75.8698 41.5,74.5C 45.5546,74.8242 49.5546,74.4909 53.5,73.5C 55.9707,71.9294 58.6374,70.9294 61.5,70.5C 60.5003,64.4856 57.167,60.1522 51.5,57.5C 50.8478,56.2749 49.6811,55.6083 48,55.5C 46.8333,55.6667 45.6667,55.8333 44.5,56C 42.6298,58.0396 40.6298,59.8729 38.5,61.5C 40.8195,55.1412 45.1528,52.8078 51.5,54.5 Z"/></g>
<g><path style="opacity:1" fill="#3e9475" d="M 64.5,32.5 C 71.2119,31.8438 74.5452,34.8438 74.5,41.5C 73.5815,39.1795 72.2482,37.0129 70.5,35C 68.6131,34.2204 66.9464,34.3871 65.5,35.5C 64.5,35.8333 63.8333,36.5 63.5,37.5C 60.2689,39.2199 57.4356,41.5532 55,44.5C 54.3333,46.1667 54.3333,47.8333 55,49.5C 58.1311,53.6328 61.6311,57.4662 65.5,61C 67.1341,61.4935 68.8008,61.6602 70.5,61.5C 68.8333,62.1667 67.1667,62.8333 65.5,63.5C 59.8543,58.521 54.521,53.1877 49.5,47.5C 54.1877,42.1456 59.1877,37.1456 64.5,32.5 Z"/></g>
<g><path style="opacity:1" fill="#316e59" d="M 65.5,35.5 C 66.9464,34.3871 68.6131,34.2204 70.5,35C 72.2482,37.0129 73.5815,39.1795 74.5,41.5C 74.6314,47.2213 74.1314,52.888 73,58.5C 71.955,59.3734 71.1217,60.3734 70.5,61.5C 68.8008,61.6602 67.1341,61.4935 65.5,61C 61.6311,57.4662 58.1311,53.6328 55,49.5C 54.3333,47.8333 54.3333,46.1667 55,44.5C 57.4356,41.5532 60.2689,39.2199 63.5,37.5C 61.5389,39.9635 59.3722,42.2968 57,44.5C 56.3333,46.5 56.3333,48.5 57,50.5C 60.1289,54.309 63.7956,57.309 68,59.5C 69.7106,59.5607 71.044,58.8941 72,57.5C 72.6667,51.8333 72.6667,46.1667 72,40.5C 71.7996,38.6803 70.9663,37.347 69.5,36.5C 68.4324,35.5655 67.099,35.2322 65.5,35.5 Z"/></g>
<g><path style="opacity:1" fill="#2b5043" d="M 65.5,35.5 C 67.099,35.2322 68.4324,35.5655 69.5,36.5C 70.9663,37.347 71.7996,38.6803 72,40.5C 72.6667,46.1667 72.6667,51.8333 72,57.5C 71.044,58.8941 69.7106,59.5607 68,59.5C 63.7956,57.309 60.1289,54.309 57,50.5C 56.3333,48.5 56.3333,46.5 57,44.5C 59.3722,42.2968 61.5389,39.9635 63.5,37.5C 63.8333,36.5 64.5,35.8333 65.5,35.5 Z"/></g>
<g><path style="opacity:1" fill="#263731" d="M 69.5,36.5 C 71.7435,43.4493 71.9102,50.4493 70,57.5C 69.4387,58.0219 68.772,58.3552 68,58.5C 63.6263,55.6273 60.1263,51.9606 57.5,47.5C 59.9419,43.8833 62.6085,40.3833 65.5,37C 66.7932,36.51 68.1266,36.3433 69.5,36.5 Z"/></g>
<g><path style="opacity:1" fill="#3ea781" d="M 65.5,63.5 C 67.1667,62.8333 68.8333,62.1667 70.5,61.5C 71.1217,60.3734 71.955,59.3734 73,58.5C 74.1314,52.888 74.6314,47.2213 74.5,41.5C 74.5452,34.8438 71.2119,31.8438 64.5,32.5C 65.8121,30.5212 67.4788,28.8545 69.5,27.5C 76.9255,34.6224 79.4255,43.289 77,53.5C 75.785,58.9344 73.285,63.6011 69.5,67.5C 67.812,66.4787 66.4787,65.1454 65.5,63.5 Z"/></g>
<g><path style="opacity:1" fill="#308b6b" d="M 29.5,32.5 C 34.8123,37.1456 39.8123,42.1456 44.5,47.5C 39.8123,52.8544 34.8123,57.8544 29.5,62.5C 24.1136,62.6227 20.9469,59.956 20,54.5C 19.3333,49.8333 19.3333,45.1667 20,40.5C 20.3768,39.0577 21.2101,38.0577 22.5,37.5C 23.2068,33.6719 25.5401,32.0052 29.5,32.5 Z"/></g>
<g><path style="opacity:1" fill="#306653" d="M 23.5,56.5 C 21.2332,50.4008 20.8999,44.0675 22.5,37.5C 23.6266,36.8783 24.6266,36.045 25.5,35C 26.8333,34.3333 28.1667,34.3333 29.5,35C 33.641,38.797 37.3077,42.797 40.5,47C 38.2982,52.5381 34.6315,56.8714 29.5,60C 26.1212,61.024 24.1212,59.8573 23.5,56.5 Z"/></g>
<g><path style="opacity:1" fill="#222524" d="M 65.5,38.5 C 66.8221,38.33 67.9887,38.6634 69,39.5C 69.6667,44.1667 69.6667,48.8333 69,53.5C 68.6121,54.428 67.9454,55.0946 67,55.5C 63.6224,53.6234 61.1224,50.9567 59.5,47.5C 61.5164,44.4887 63.5164,41.4887 65.5,38.5 Z"/></g>
<g><path style="opacity:1" fill="#232826" d="M 30.5,57.5 C 28.2736,59.18 26.6069,58.8466 25.5,56.5C 24.4265,50.8846 24.2599,45.2179 25,39.5C 25.7247,38.9415 26.5581,38.6082 27.5,38.5C 31.7151,40.5476 34.7151,43.7143 36.5,48C 34.6695,51.3187 32.6695,54.4853 30.5,57.5 Z"/></g>
<g><path style="opacity:1" fill="#29463c" d="M 30.5,57.5 C 32.6695,54.4853 34.6695,51.3187 36.5,48C 34.7151,43.7143 31.7151,40.5476 27.5,38.5C 26.5581,38.6082 25.7247,38.9415 25,39.5C 24.2599,45.2179 24.4265,50.8846 25.5,56.5C 24.8333,56.5 24.1667,56.5 23.5,56.5C 22.0539,50.4426 22.2206,44.4426 24,38.5C 24.804,37.1955 25.9707,36.5288 27.5,36.5C 31.9859,39.1528 35.6525,42.6528 38.5,47C 37.143,51.5205 34.4763,55.0205 30.5,57.5 Z"/></g>
<g><path style="opacity:1" fill="#2f7d62" d="M 61.5,30.5 C 58.1667,34.5 54.5,38.1667 50.5,41.5C 43.7629,39.772 38.7629,35.772 35.5,29.5C 35.8333,29.5 36.1667,29.5 36.5,29.5C 39.5495,34.5791 43.8828,37.5791 49.5,38.5C 53.0865,36.4203 56.2532,33.7537 59,30.5C 59.9699,25.4518 57.8033,22.6184 52.5,22C 47.7804,21.2832 43.1138,21.4498 38.5,22.5C 38.6107,21.8826 38.944,21.3826 39.5,21C 45.9017,20.1824 52.235,20.5158 58.5,22C 61.1252,24.1962 62.1252,27.0295 61.5,30.5 Z"/></g>
<g><path style="opacity:1" fill="#3ba680" d="M 29.5,32.5 C 25.5401,32.0052 23.2068,33.6719 22.5,37.5C 21.2101,38.0577 20.3768,39.0577 20,40.5C 19.3333,45.1667 19.3333,49.8333 20,54.5C 20.9469,59.956 24.1136,62.6227 29.5,62.5C 27.4855,67.208 24.9855,67.8747 22,64.5C 16.0363,53.1399 16.0363,41.8066 22,30.5C 24.9855,27.1253 27.4855,27.792 29.5,32.5 Z"/></g>
<g><path style="opacity:1" fill="#273d35" d="M 52.5,24.5 C 48.1539,24.3343 43.8206,24.501 39.5,25C 37.5794,26.2408 37.246,27.7408 38.5,29.5C 41.5243,31.5353 44.5243,33.5353 47.5,35.5C 50.9075,34.3093 53.7409,32.3093 56,29.5C 56.7062,27.0448 55.8729,25.3781 53.5,24.5C 57.2253,24.7796 58.392,26.7796 57,30.5C 54.961,32.8745 52.6277,34.8745 50,36.5C 49.5357,37.0944 49.369,37.7611 49.5,38.5C 43.8828,37.5791 39.5495,34.5791 36.5,29.5C 36.178,27.2776 36.8446,25.4443 38.5,24C 43.3522,23.1849 48.0189,23.3516 52.5,24.5 Z"/></g>
<g><path style="opacity:1" fill="#232625" d="M 52.5,24.5 C 52.8333,24.5 53.1667,24.5 53.5,24.5C 55.8729,25.3781 56.7062,27.0448 56,29.5C 53.7409,32.3093 50.9075,34.3093 47.5,35.5C 44.5243,33.5353 41.5243,31.5353 38.5,29.5C 37.246,27.7408 37.5794,26.2408 39.5,25C 43.8206,24.501 48.1539,24.3343 52.5,24.5 Z"/></g>
<g><path style="opacity:1" fill="#2c5547" d="M 49.5,38.5 C 49.369,37.7611 49.5357,37.0944 50,36.5C 52.6277,34.8745 54.961,32.8745 57,30.5C 58.392,26.7796 57.2253,24.7796 53.5,24.5C 53.1667,24.5 52.8333,24.5 52.5,24.5C 48.0189,23.3516 43.3522,23.1849 38.5,24C 36.8446,25.4443 36.178,27.2776 36.5,29.5C 36.1667,29.5 35.8333,29.5 35.5,29.5C 33.9437,26.3124 34.9437,23.979 38.5,22.5C 43.1138,21.4498 47.7804,21.2832 52.5,22C 57.8033,22.6184 59.9699,25.4518 59,30.5C 56.2532,33.7537 53.0865,36.4203 49.5,38.5 Z"/></g>
<g><path style="opacity:1" fill="#3ca17d" d="M 61.5,30.5 C 62.1252,27.0295 61.1252,24.1962 58.5,22C 52.235,20.5158 45.9017,20.1824 39.5,21C 38.944,21.3826 38.6107,21.8826 38.5,22.5C 34.9437,23.979 33.9437,26.3124 35.5,29.5C 38.7629,35.772 43.7629,39.772 50.5,41.5C 49.5944,43.9137 47.9278,44.747 45.5,44C 39.6667,38.1667 33.8333,32.3333 28,26.5C 27.3333,25.8333 27.3333,25.1667 28,24.5C 35.2723,17.8679 43.7723,15.7012 53.5,18C 58.8744,19.0079 63.541,21.3412 67.5,25C 65.6298,27.0396 63.6298,28.8729 61.5,30.5 Z"/></g>
<g><path style="opacity:1" fill="#222322" d="M 40.5,0.5 C 40.5,0.166667 40.5,-0.166667 40.5,-0.5C 58.8333,-0.5 77.1667,-0.5 95.5,-0.5C 95.5,31.5 95.5,63.5 95.5,95.5C 78.1667,95.5 60.8333,95.5 43.5,95.5C 43.5,95.1667 43.5,94.8333 43.5,94.5C 49.5551,94.6621 55.5551,94.1621 61.5,93C 86.8963,82.7233 97.7296,63.89 94,36.5C 85.3206,10.9095 67.4873,-1.09051 40.5,0.5 Z"/></g>
<g><path style="opacity:1" fill="#212121" d="M -0.5,52.5 C -0.166667,52.5 0.166667,52.5 0.5,52.5C 4.36148,77.3628 18.6948,91.3628 43.5,94.5C 43.5,94.8333 43.5,95.1667 43.5,95.5C 28.8333,95.5 14.1667,95.5 -0.5,95.5C -0.5,81.1667 -0.5,66.8333 -0.5,52.5 Z"/></g>
<g><path style="opacity:1" fill="#29443b" d="M 82.5,56.5 C 80.9093,68.0902 74.5759,75.7569 63.5,79.5C 65.3671,78.2402 66.7005,76.5735 67.5,74.5C 74.082,70.6928 78.2486,65.0262 80,57.5C 80.6708,56.7476 81.5041,56.4142 82.5,56.5 Z"/></g>
<g><path style="opacity:1" fill="#2f6553" d="M 51.5,57.5 C 57.167,60.1522 60.5003,64.4856 61.5,70.5C 58.6374,70.9294 55.9707,71.9294 53.5,73.5C 49.5546,74.4909 45.5546,74.8242 41.5,74.5C 32.1828,71.9069 31.1828,67.5736 38.5,61.5C 40.6298,59.8729 42.6298,58.0396 44.5,56C 45.6667,55.8333 46.8333,55.6667 48,55.5C 49.6811,55.6083 50.8478,56.2749 51.5,57.5 Z"/></g>
<g><path style="opacity:1" fill="#29453b" d="M 51.5,57.5 C 53.795,60.2971 56.295,62.9638 59,65.5C 59.7805,66.9437 59.6139,68.277 58.5,69.5C 55.1983,71.0242 51.6983,71.6909 48,71.5C 45.3097,71.4971 42.8097,71.1638 40.5,70.5C 45.5649,70.781 50.5649,70.4476 55.5,69.5C 56.6309,67.9255 56.7975,66.2588 56,64.5C 53.8567,61.6752 51.19,59.6752 48,58.5C 44.4305,60.3876 41.0972,62.7209 38,65.5C 37.3872,67.4952 37.8872,69.1619 39.5,70.5C 38.5041,70.5858 37.6708,70.2524 37,69.5C 36.3333,67.8333 36.3333,66.1667 37,64.5C 40.1301,62.372 42.9634,59.872 45.5,57C 47.5454,56.5099 49.5454,56.6765 51.5,57.5 Z"/></g>
<g><path style="opacity:1" fill="#232826" d="M 40.5,70.5 C 40.1667,70.5 39.8333,70.5 39.5,70.5C 37.8872,69.1619 37.3872,67.4952 38,65.5C 41.0972,62.7209 44.4305,60.3876 48,58.5C 51.19,59.6752 53.8567,61.6752 56,64.5C 56.7975,66.2588 56.6309,67.9255 55.5,69.5C 50.5649,70.4476 45.5649,70.781 40.5,70.5 Z"/></g>
<g><path style="opacity:1" fill="#3ba47e" d="M 51.5,54.5 C 45.1528,52.8078 40.8195,55.1412 38.5,61.5C 31.1828,67.5736 32.1828,71.9069 41.5,74.5C 47.0719,75.8698 52.7386,75.7031 58.5,74C 62.0511,72.3229 63.3845,69.4896 62.5,65.5C 64.2959,66.7927 65.9625,68.2927 67.5,70C 58.9761,76.837 49.3095,79.1703 38.5,77C 35.3388,75.5869 32.3388,73.9203 29.5,72C 27.9926,71.1627 27.4926,69.9961 28,68.5C 34.3478,61.9852 40.8478,55.6519 47.5,49.5C 48.8569,51.1856 50.1902,52.8523 51.5,54.5 Z"/></g>
<g><path style="opacity:1" fill="#2a634e" d="M 19.5,66.5 C 23.7539,70.9635 28.4206,74.9635 33.5,78.5C 31.8008,78.6602 30.1341,78.4935 28.5,78C 27.248,75.308 25.248,73.4747 22.5,72.5C 21.5,72.1667 20.8333,71.5 20.5,70.5C 20.1667,69.1667 19.8333,67.8333 19.5,66.5 Z"/></g>
<g><path style="opacity:1" fill="#295f4c" d="M 67.5,74.5 C 66.7005,76.5735 65.3671,78.2402 63.5,79.5C 63.1667,79.5 62.8333,79.5 62.5,79.5C 54.0267,82.1654 45.36,82.9987 36.5,82C 34.5743,81.5776 33.5743,80.4109 33.5,78.5C 45.4838,82.1294 56.8171,80.796 67.5,74.5 Z"/></g>
<g><path style="opacity:1" fill="#284037" d="M 22.5,72.5 C 25.248,73.4747 27.248,75.308 28.5,78C 30.1341,78.4935 31.8008,78.6602 33.5,78.5C 33.5743,80.4109 34.5743,81.5776 36.5,82C 45.36,82.9987 54.0267,82.1654 62.5,79.5C 61.7701,80.7124 60.7701,81.7124 59.5,82.5C 50.1742,85.0843 40.8408,85.0843 31.5,82.5C 27.7946,79.7949 24.7946,76.4616 22.5,72.5 Z"/></g>
</svg>
