<?xml version="1.0" encoding="UTF-8"?>
<!DOCTYPE svg PUBLIC "-//W3C//DTD SVG 1.1//EN" "http://www.w3.org/Graphics/SVG/1.1/DTD/svg11.dtd">
<svg xmlns="http://www.w3.org/2000/svg" version="1.1" width="200px" height="200px" style="shape-rendering:geometricPrecision; text-rendering:geometricPrecision; image-rendering:optimizeQuality; fill-rule:evenodd; clip-rule:evenodd" xmlns:xlink="http://www.w3.org/1999/xlink">
<g><path style="opacity:1" fill="#fefefe" d="M -0.5,-0.5 C 66.1667,-0.5 132.833,-0.5 199.5,-0.5C 199.5,66.1667 199.5,132.833 199.5,199.5C 132.833,199.5 66.1667,199.5 -0.5,199.5C -0.5,132.833 -0.5,66.1667 -0.5,-0.5 Z"/></g>
<g><path style="opacity:1" fill="#1cbfd1" d="M 124.5,66.5 C 121.531,63.3581 118.698,60.0247 116,56.5C 116.034,61.2305 114.534,61.7305 111.5,58C 113.141,54.5654 112.307,53.7321 109,55.5C 106.815,55.0788 104.649,54.5788 102.5,54C 103.167,53.6667 103.833,53.3333 104.5,53C 102.949,50.9547 100.949,49.4547 98.5,48.5C 97.485,44.8183 95.1517,42.485 91.5,41.5C 93.4898,36.5894 96.4898,32.756 100.5,30C 108.749,42.0667 116.749,54.2334 124.5,66.5 Z"/></g>
<g><path style="opacity:1" fill="#17b2d4" d="M 91.5,41.5 C 95.1517,42.485 97.485,44.8183 98.5,48.5C 100.949,49.4547 102.949,50.9547 104.5,53C 103.833,53.3333 103.167,53.6667 102.5,54C 104.649,54.5788 106.815,55.0788 109,55.5C 112.307,53.7321 113.141,54.5654 111.5,58C 114.534,61.7305 116.034,61.2305 116,56.5C 118.698,60.0247 121.531,63.3581 124.5,66.5C 131.608,75.2809 137.942,84.6142 143.5,94.5C 142.127,94.6567 140.793,94.49 139.5,94C 139.833,93.6667 140.167,93.3333 140.5,93C 136.835,91.332 134.668,88.4987 134,84.5C 131.902,82.2363 129.402,80.5697 126.5,79.5C 125.754,78.2638 125.421,76.9305 125.5,75.5C 123.876,75.6399 122.71,74.9733 122,73.5C 120.951,75.1066 119.451,75.7733 117.5,75.5C 116.648,72.7766 115.481,70.11 114,67.5C 113.439,68.0219 112.772,68.3552 112,68.5C 108.948,64.7771 105.114,62.2771 100.5,61C 99.4045,59.3247 97.9045,58.158 96,57.5C 95.5172,56.552 95.3505,55.552 95.5,54.5C 92.2101,52.9093 88.8768,51.2427 85.5,49.5C 87.1468,46.5265 89.1468,43.8599 91.5,41.5 Z"/></g>
<g><path style="opacity:1" fill="#1ba6d7" d="M 85.5,49.5 C 88.8768,51.2427 92.2101,52.9093 95.5,54.5C 95.3505,55.552 95.5172,56.552 96,57.5C 97.9045,58.158 99.4045,59.3247 100.5,61C 105.114,62.2771 108.948,64.7771 112,68.5C 112.772,68.3552 113.439,68.0219 114,67.5C 115.481,70.11 116.648,72.7766 117.5,75.5C 119.451,75.7733 120.951,75.1066 122,73.5C 122.71,74.9733 123.876,75.6399 125.5,75.5C 125.421,76.9305 125.754,78.2638 126.5,79.5C 129.402,80.5697 131.902,82.2363 134,84.5C 134.668,88.4987 136.835,91.332 140.5,93C 140.167,93.3333 139.833,93.6667 139.5,94C 140.793,94.49 142.127,94.6567 143.5,94.5C 149.99,102.81 155.99,111.476 161.5,120.5C 158.735,118.787 156.402,116.62 154.5,114C 152.783,112.441 150.783,111.608 148.5,111.5C 148.5,110.167 148.5,108.833 148.5,107.5C 148.986,104.245 147.986,101.578 145.5,99.5C 140.662,99.8289 136.829,97.8289 134,93.5C 133.667,94.1667 133.333,94.8333 133,95.5C 131.954,93.9095 130.787,92.4095 129.5,91C 119.517,84.2867 110.517,77.2867 102.5,70C 96.9656,66.401 91.2989,63.0677 85.5,60C 84.6198,58.6439 84.2865,57.1439 84.5,55.5C 83.5,55.5 82.5,55.5 81.5,55.5C 82.8333,53.5 84.1667,51.5 85.5,49.5 Z"/></g>
<g><path style="opacity:1" fill="#228ddb" d="M 74.5,66.5 C 77.667,66.4001 80.667,67.0668 83.5,68.5C 86.4683,71.6473 89.8017,74.314 93.5,76.5C 95.321,77.7277 96.321,79.3944 96.5,81.5C 94.2181,85.7771 91.5515,89.7771 88.5,93.5C 88.3832,91.5165 89.0499,89.8498 90.5,88.5C 89.3717,87.7379 88.2051,87.0712 87,86.5C 86.7238,84.2335 86.0571,81.9001 85,79.5C 80.4657,77.2307 76.4657,74.2307 73,70.5C 72.2917,71.3805 71.4584,72.0472 70.5,72.5C 71.3403,70.1475 72.6736,68.1475 74.5,66.5 Z"/></g>
<g><path style="opacity:1" fill="#18a0d8" d="M 81.5,55.5 C 82.5,55.5 83.5,55.5 84.5,55.5C 84.2865,57.1439 84.6198,58.6439 85.5,60C 91.2989,63.0677 96.9656,66.401 102.5,70C 110.517,77.2867 119.517,84.2867 129.5,91C 130.787,92.4095 131.954,93.9095 133,95.5C 133.333,94.8333 133.667,94.1667 134,93.5C 136.829,97.8289 140.662,99.8289 145.5,99.5C 147.986,101.578 148.986,104.245 148.5,107.5C 146.488,106.659 145.155,105.159 144.5,103C 141.684,103.63 139.018,102.964 136.5,101C 134.852,98.5169 132.685,96.6836 130,95.5C 129.517,94.552 129.351,93.552 129.5,92.5C 126.495,92.747 123.995,91.747 122,89.5C 117.155,86.3936 112.321,82.5603 107.5,78C 106.167,78.3333 104.833,78.6667 103.5,79C 101.5,76 99.5,73 97.5,70C 92.6257,68.8153 88.459,66.3153 85,62.5C 83.9887,63.3366 82.8221,63.67 81.5,63.5C 81.6495,62.448 81.4828,61.448 81,60.5C 79.3853,61.3862 77.8853,62.3862 76.5,63.5C 77.6551,60.5251 79.3218,57.8584 81.5,55.5 Z"/></g>
<g><path style="opacity:1" fill="#2b81dd" d="M 88.5,93.5 C 86.7349,96.7089 84.7349,99.7089 82.5,102.5C 82.3379,100.473 82.5045,98.4727 83,96.5C 83.7724,95.1509 84.9391,94.3176 86.5,94C 84.5448,93.0467 82.8782,91.7134 81.5,90C 84.277,87.8266 84.1103,87.3266 81,88.5C 78.1954,85.3475 74.6954,83.6808 70.5,83.5C 70.7778,81.6536 70.1112,80.3202 68.5,79.5C 66.785,81.8818 64.785,83.8818 62.5,85.5C 62.1667,85.5 61.8333,85.5 61.5,85.5C 63.7629,80.6355 66.7629,76.3021 70.5,72.5C 71.4584,72.0472 72.2917,71.3805 73,70.5C 76.4657,74.2307 80.4657,77.2307 85,79.5C 86.0571,81.9001 86.7238,84.2335 87,86.5C 88.2051,87.0712 89.3717,87.7379 90.5,88.5C 89.0499,89.8498 88.3832,91.5165 88.5,93.5 Z"/></g>
<g><path style="opacity:1" fill="#1f99d9" d="M 148.5,107.5 C 148.5,108.833 148.5,110.167 148.5,111.5C 150.783,111.608 152.783,112.441 154.5,114C 156.402,116.62 158.735,118.787 161.5,120.5C 164.66,124.148 167.327,128.148 169.5,132.5C 165.583,129.327 161.75,126.66 158,124.5C 157.586,124.957 157.086,125.291 156.5,125.5C 155.719,124.263 154.719,123.263 153.5,122.5C 152.571,121.311 152.238,119.978 152.5,118.5C 151.022,118.762 149.689,118.429 148.5,117.5C 135.742,107.829 123.409,98.3289 111.5,89C 110.668,88.3123 110.002,88.479 109.5,89.5C 110.456,91.0754 111.123,92.742 111.5,94.5C 107.521,89.2347 103.521,83.9014 99.5,78.5C 98.7124,79.7701 97.7124,80.7701 96.5,81.5C 96.321,79.3944 95.321,77.7277 93.5,76.5C 89.8017,74.314 86.4683,71.6473 83.5,68.5C 80.667,67.0668 77.667,66.4001 74.5,66.5C 74.427,64.9731 75.0937,63.9731 76.5,63.5C 77.8853,62.3862 79.3853,61.3862 81,60.5C 81.4828,61.448 81.6495,62.448 81.5,63.5C 82.8221,63.67 83.9887,63.3366 85,62.5C 88.459,66.3153 92.6257,68.8153 97.5,70C 99.5,73 101.5,76 103.5,79C 104.833,78.6667 106.167,78.3333 107.5,78C 112.321,82.5603 117.155,86.3936 122,89.5C 123.995,91.747 126.495,92.747 129.5,92.5C 129.351,93.552 129.517,94.552 130,95.5C 132.685,96.6836 134.852,98.5169 136.5,101C 139.018,102.964 141.684,103.63 144.5,103C 145.155,105.159 146.488,106.659 148.5,107.5 Z"/></g>
<g><path style="opacity:1" fill="#2f6ce1" d="M 61.5,85.5 C 61.8333,85.5 62.1667,85.5 62.5,85.5C 63.4959,85.4142 64.3292,85.7476 65,86.5C 65.9507,90.7341 67.9507,91.4008 71,88.5C 71.0529,91.6102 72.3863,93.9435 75,95.5C 75.3333,95.1667 75.6667,94.8333 76,94.5C 76.6368,96.3031 77.8035,97.6364 79.5,98.5C 80.205,101.089 80.205,103.756 79.5,106.5C 78.1891,109.135 76.5224,111.469 74.5,113.5C 74.1601,110.856 74.8267,108.523 76.5,106.5C 75.7261,105.289 74.8928,105.289 74,106.5C 73.4921,104.096 72.3255,103.429 70.5,104.5C 69.5481,102.955 69.2148,101.288 69.5,99.5C 66.5,99.8333 65.1667,98.5 65.5,95.5C 62.1438,95.8434 60.1438,94.8434 59.5,92.5C 57.1025,94.5747 54.7692,96.5747 52.5,98.5C 55.1427,93.8679 58.1427,89.5346 61.5,85.5 Z"/></g>
<g><path style="opacity:1" fill="#2975e0" d="M 82.5,102.5 C 81.4884,103.872 80.4884,105.205 79.5,106.5C 80.205,103.756 80.205,101.089 79.5,98.5C 77.8035,97.6364 76.6368,96.3031 76,94.5C 75.6667,94.8333 75.3333,95.1667 75,95.5C 72.3863,93.9435 71.0529,91.6102 71,88.5C 67.9507,91.4008 65.9507,90.7341 65,86.5C 64.3292,85.7476 63.4959,85.4142 62.5,85.5C 64.785,83.8818 66.785,81.8818 68.5,79.5C 70.1112,80.3202 70.7778,81.6536 70.5,83.5C 74.6954,83.6808 78.1954,85.3475 81,88.5C 84.1103,87.3266 84.277,87.8266 81.5,90C 82.8782,91.7134 84.5448,93.0467 86.5,94C 84.9391,94.3176 83.7724,95.1509 83,96.5C 82.5045,98.4727 82.3379,100.473 82.5,102.5 Z"/></g>
<g><path style="opacity:1" fill="#325fe4" d="M 74.5,113.5 C 72.6465,117.221 70.3131,120.554 67.5,123.5C 68.038,121.883 68.3713,120.216 68.5,118.5C 70.8398,117.428 71.1731,115.761 69.5,113.5C 71.0863,111.827 71.7529,109.827 71.5,107.5C 69.549,107.773 68.049,107.107 67,105.5C 63.8026,108.41 62.6359,107.91 63.5,104C 63.3699,102.941 62.8699,102.108 62,101.5C 61.1495,104.612 59.9828,104.946 58.5,102.5C 56.0503,103.626 54.0503,102.959 52.5,100.5C 51.4787,102.188 50.1454,103.521 48.5,104.5C 49.3403,102.147 50.6736,100.147 52.5,98.5C 54.7692,96.5747 57.1025,94.5747 59.5,92.5C 60.1438,94.8434 62.1438,95.8434 65.5,95.5C 65.1667,98.5 66.5,99.8333 69.5,99.5C 69.2148,101.288 69.5481,102.955 70.5,104.5C 72.3255,103.429 73.4921,104.096 74,106.5C 74.8928,105.289 75.7261,105.289 76.5,106.5C 74.8267,108.523 74.1601,110.856 74.5,113.5 Z"/></g>
<g><path style="opacity:1" fill="#374bea" d="M 68.5,118.5 C 68.3713,120.216 68.038,121.883 67.5,123.5C 67.5,123.833 67.5,124.167 67.5,124.5C 72.449,126.224 77.7824,127.391 83.5,128C 86.9895,130.911 90.6562,133.578 94.5,136C 95.2106,137.255 96.044,138.421 97,139.5C 98.073,138.72 99.2396,138.887 100.5,140C 101.833,141.333 103.167,142.667 104.5,144C 99.1771,144.499 93.8437,144.666 88.5,144.5C 86.7382,141.16 84.2382,139.493 81,139.5C 76.9846,135.326 72.4846,131.659 67.5,128.5C 66.6143,127.675 66.281,126.675 66.5,125.5C 58.1561,123.312 50.3228,119.978 43,115.5C 40.295,118.036 37.795,120.703 35.5,123.5C 38.3932,117.612 42.0599,112.278 46.5,107.5C 48.4597,105.516 50.793,104.683 53.5,105C 55.0884,107.596 57.0884,109.929 59.5,112C 62.5195,114.173 65.5195,116.34 68.5,118.5 Z"/></g>
<g><path style="opacity:1" fill="#3355e8" d="M 68.5,118.5 C 65.5195,116.34 62.5195,114.173 59.5,112C 57.0884,109.929 55.0884,107.596 53.5,105C 50.793,104.683 48.4597,105.516 46.5,107.5C 46.427,105.973 47.0937,104.973 48.5,104.5C 50.1454,103.521 51.4787,102.188 52.5,100.5C 54.0503,102.959 56.0503,103.626 58.5,102.5C 59.9828,104.946 61.1495,104.612 62,101.5C 62.8699,102.108 63.3699,102.941 63.5,104C 62.6359,107.91 63.8026,108.41 67,105.5C 68.049,107.107 69.549,107.773 71.5,107.5C 71.7529,109.827 71.0863,111.827 69.5,113.5C 71.1731,115.761 70.8398,117.428 68.5,118.5 Z"/></g>
<g><path style="opacity:1" fill="#3571dd" d="M 128.5,143.5 C 126.382,141.678 124.215,140.678 122,140.5C 121.365,139.034 120.531,137.7 119.5,136.5C 120.428,135.232 120.595,133.899 120,132.5C 118.028,131.695 116.528,130.361 115.5,128.5C 114.28,127.289 113.113,127.289 112,128.5C 107.611,125.427 103.611,122.094 100,118.5C 99.6667,118.833 99.3333,119.167 99,119.5C 98,118.167 97,116.833 96,115.5C 95.6667,115.833 95.3333,116.167 95,116.5C 92.72,114.176 91.22,114.843 90.5,118.5C 89.0613,120.36 87.3947,122.027 85.5,123.5C 89.4151,116.004 94.0818,109.004 99.5,102.5C 109.911,115.661 119.578,129.328 128.5,143.5 Z"/></g>
<g><path style="opacity:1" fill="#2d65e3" d="M 128.5,143.5 C 129.167,143.5 129.5,143.833 129.5,144.5C 123.69,145.49 117.69,145.823 111.5,145.5C 113.607,144.532 115.941,144.198 118.5,144.5C 118.616,141.09 116.95,139.756 113.5,140.5C 113.808,138.076 113.474,135.743 112.5,133.5C 108.351,132.249 104.351,130.082 100.5,127C 100.619,125.719 100.119,124.552 99,123.5C 97.9887,124.337 96.8221,124.67 95.5,124.5C 95.628,122.345 95.128,120.345 94,118.5C 93.0138,117.829 91.8471,117.829 90.5,118.5C 91.22,114.843 92.72,114.176 95,116.5C 95.3333,116.167 95.6667,115.833 96,115.5C 97,116.833 98,118.167 99,119.5C 99.3333,119.167 99.6667,118.833 100,118.5C 103.611,122.094 107.611,125.427 112,128.5C 113.113,127.289 114.28,127.289 115.5,128.5C 116.528,130.361 118.028,131.695 120,132.5C 120.595,133.899 120.428,135.232 119.5,136.5C 120.531,137.7 121.365,139.034 122,140.5C 124.215,140.678 126.382,141.678 128.5,143.5 Z"/></g>
<g><path style="opacity:1" fill="#218edc" d="M 169.5,132.5 C 171.547,134.55 173.214,136.883 174.5,139.5C 174.84,141.679 175.84,143.512 177.5,145C 174.854,145.497 172.187,145.664 169.5,145.5C 169.953,144.542 170.619,143.708 171.5,143C 166.059,141.889 162.059,138.889 159.5,134C 153.975,131.913 149.642,128.413 146.5,123.5C 145.549,124.326 144.549,124.492 143.5,124C 137.643,119.469 131.809,114.969 126,110.5C 126.611,113.033 127.111,115.7 127.5,118.5C 121.782,110.777 116.449,102.777 111.5,94.5C 111.123,92.742 110.456,91.0754 109.5,89.5C 110.002,88.479 110.668,88.3123 111.5,89C 123.409,98.3289 135.742,107.829 148.5,117.5C 149.689,118.429 151.022,118.762 152.5,118.5C 152.238,119.978 152.571,121.311 153.5,122.5C 154.719,123.263 155.719,124.263 156.5,125.5C 157.086,125.291 157.586,124.957 158,124.5C 161.75,126.66 165.583,129.327 169.5,132.5 Z"/></g>
<g><path style="opacity:1" fill="#2585dc" d="M 169.5,145.5 C 164.167,145.5 158.833,145.5 153.5,145.5C 157.727,144.799 162.06,143.966 166.5,143C 164.038,141.784 161.371,141.118 158.5,141C 151.293,134.954 143.959,129.121 136.5,123.5C 135.5,122.167 134.5,120.833 133.5,119.5C 133.167,120.167 132.833,120.833 132.5,121.5C 134.072,123.974 135.072,126.64 135.5,129.5C 132.112,126.403 129.445,122.736 127.5,118.5C 127.111,115.7 126.611,113.033 126,110.5C 131.809,114.969 137.643,119.469 143.5,124C 144.549,124.492 145.549,124.326 146.5,123.5C 149.642,128.413 153.975,131.913 159.5,134C 162.059,138.889 166.059,141.889 171.5,143C 170.619,143.708 169.953,144.542 169.5,145.5 Z"/></g>
<g><path style="opacity:1" fill="#3f36ed" d="M 88.5,144.5 C 79.6506,144.174 70.9839,144.507 62.5,145.5C 48.4591,146.149 34.7924,145.482 21.5,143.5C 22.0256,141.77 23.0256,140.436 24.5,139.5C 27.6757,133.811 31.3423,128.477 35.5,123.5C 37.795,120.703 40.295,118.036 43,115.5C 50.3228,119.978 58.1561,123.312 66.5,125.5C 66.281,126.675 66.6143,127.675 67.5,128.5C 72.4846,131.659 76.9846,135.326 81,139.5C 84.2382,139.493 86.7382,141.16 88.5,144.5 Z"/></g>
<g><path style="opacity:1" fill="#287ede" d="M 153.5,145.5 C 150.833,145.5 148.167,145.5 145.5,145.5C 141.744,140.415 138.411,135.082 135.5,129.5C 135.072,126.64 134.072,123.974 132.5,121.5C 132.833,120.833 133.167,120.167 133.5,119.5C 134.5,120.833 135.5,122.167 136.5,123.5C 143.959,129.121 151.293,134.954 158.5,141C 161.371,141.118 164.038,141.784 166.5,143C 162.06,143.966 157.727,144.799 153.5,145.5 Z"/></g>
<g><path style="opacity:1" fill="#4522f3" d="M 24.5,139.5 C 26.1484,138.223 27.9817,137.223 30,136.5C 30.6741,133.74 31.5075,131.073 32.5,128.5C 33.8221,128.67 34.9887,128.337 36,127.5C 36.6667,130.167 37.3333,130.167 38,127.5C 44.0557,134.118 51.5557,139.618 60.5,144C 47.8333,144.667 35.1667,144.667 22.5,144C 24.1066,142.951 24.7733,141.451 24.5,139.5 Z"/></g>
<g><path style="opacity:1" fill="#355ae5" d="M 111.5,145.5 C 97.5,145.5 83.5,145.5 69.5,145.5C 67.1667,145.5 64.8333,145.5 62.5,145.5C 70.9839,144.507 79.6506,144.174 88.5,144.5C 93.8437,144.666 99.1771,144.499 104.5,144C 103.167,142.667 101.833,141.333 100.5,140C 99.2396,138.887 98.073,138.72 97,139.5C 96.044,138.421 95.2106,137.255 94.5,136C 90.6562,133.578 86.9895,130.911 83.5,128C 77.7824,127.391 72.449,126.224 67.5,124.5C 73.5907,124.789 79.5907,124.455 85.5,123.5C 87.3947,122.027 89.0613,120.36 90.5,118.5C 91.8471,117.829 93.0138,117.829 94,118.5C 95.128,120.345 95.628,122.345 95.5,124.5C 96.8221,124.67 97.9887,124.337 99,123.5C 100.119,124.552 100.619,125.719 100.5,127C 104.351,130.082 108.351,132.249 112.5,133.5C 113.474,135.743 113.808,138.076 113.5,140.5C 116.95,139.756 118.616,141.09 118.5,144.5C 115.941,144.198 113.607,144.532 111.5,145.5 Z"/></g>
<g><path style="opacity:1" fill="#725fce" d="M 21.5,143.5 C 34.7924,145.482 48.4591,146.149 62.5,145.5C 64.8333,145.5 67.1667,145.5 69.5,145.5C 69.5,145.833 69.5,146.167 69.5,146.5C 52.82,146.833 36.1533,146.499 19.5,145.5C 19.8555,144.478 20.5222,143.811 21.5,143.5 Z"/></g>
<g><path style="opacity:1" fill="#6e78ce" d="M 129.5,144.5 C 130.043,144.56 130.376,144.893 130.5,145.5C 110.178,146.5 89.8443,146.833 69.5,146.5C 69.5,146.167 69.5,145.833 69.5,145.5C 83.5,145.5 97.5,145.5 111.5,145.5C 117.69,145.823 123.69,145.49 129.5,144.5 Z"/></g>
<g><path style="opacity:1" fill="#679cce" d="M 174.5,139.5 C 176.303,141.481 177.97,143.648 179.5,146C 167.992,146.826 156.659,146.659 145.5,145.5C 148.167,145.5 150.833,145.5 153.5,145.5C 158.833,145.5 164.167,145.5 169.5,145.5C 172.187,145.664 174.854,145.497 177.5,145C 175.84,143.512 174.84,141.679 174.5,139.5 Z"/></g>
</svg>
