<?xml version="1.0" encoding="UTF-8"?>
<!DOCTYPE svg PUBLIC "-//W3C//DTD SVG 1.1//EN" "http://www.w3.org/Graphics/SVG/1.1/DTD/svg11.dtd">
<svg xmlns="http://www.w3.org/2000/svg" version="1.1" width="96px" height="96px" style="shape-rendering:geometricPrecision; text-rendering:geometricPrecision; image-rendering:optimizeQuality; fill-rule:evenodd; clip-rule:evenodd" xmlns:xlink="http://www.w3.org/1999/xlink">
<g><path style="opacity:0.992" fill="#9866a6" d="M 41.5,-0.5 C 42.8333,-0.5 44.1667,-0.5 45.5,-0.5C 62.2103,18.8748 78.5436,38.5415 94.5,58.5C 94.5674,59.9587 94.2341,61.2921 93.5,62.5C 92.5041,62.5858 91.6708,62.2524 91,61.5C 74.226,41.383 57.3927,21.2164 40.5,1C 41.056,0.617425 41.3893,0.117425 41.5,-0.5 Z"/></g>
<g><path style="opacity:0.993" fill="#9f61a4" d="M 45.5,-0.5 C 47.5,-0.5 49.5,-0.5 51.5,-0.5C 65.2452,17.6868 79.9119,35.0201 95.5,51.5C 95.5,53.5 95.5,55.5 95.5,57.5C 94.8333,57.5 94.5,57.8333 94.5,58.5C 78.5436,38.5415 62.2103,18.8748 45.5,-0.5 Z"/></g>
<g><path style="opacity:0.99" fill="#8a70aa" d="M 35.5,0.5 C 52.0309,22.1771 69.5309,43.1771 88,63.5C 89.0945,65.0779 89.9278,66.7446 90.5,68.5C 90.1075,70.2838 89.4408,71.9505 88.5,73.5C 86.8561,73.7135 85.3561,73.3802 84,72.5C 76.2065,63.6077 68.8732,54.2743 62,44.5C 61.7216,45.4158 61.2216,46.0825 60.5,46.5C 57.7391,40.6405 55.2391,34.6405 53,28.5C 52.34,26.6763 51.1733,25.343 49.5,24.5C 44.0352,17.9172 37.7019,10.5839 30.5,2.5C 31.9303,1.46253 33.597,0.795864 35.5,0.5 Z"/></g>
<g><path style="opacity:0.985" fill="#b2529f" d="M 63.5,1.5 C 80.2231,8.21751 90.8898,20.2175 95.5,37.5C 95.5,37.8333 95.5,38.1667 95.5,38.5C 84.5344,27.1458 73.8678,14.8125 63.5,1.5 Z"/></g>
<g><path style="opacity:0.99" fill="#8278ad" d="M 30.5,2.5 C 37.7019,10.5839 44.0352,17.9172 49.5,24.5C 45.693,23.7741 43.0263,25.1074 41.5,28.5C 35.1866,21.2474 28.8533,13.9141 22.5,6.5C 24.8485,4.659 27.5152,3.32567 30.5,2.5 Z"/></g>
<g><path style="opacity:0.989" fill="#7482b1" d="M 22.5,6.5 C 28.8533,13.9141 35.1866,21.2474 41.5,28.5C 40.5625,32.3128 39.2291,35.9795 37.5,39.5C 36.2264,38.8106 36.2264,37.9772 37.5,37C 30.2726,28.2825 22.9392,19.7825 15.5,11.5C 17.5496,9.45255 19.883,7.78588 22.5,6.5 Z"/></g>
<g><path style="opacity:0.986" fill="#698bb4" d="M 15.5,11.5 C 22.9392,19.7825 30.2726,28.2825 37.5,37C 36.2264,37.9772 36.2264,38.8106 37.5,39.5C 36.783,43.9916 34.1163,45.6583 29.5,44.5C 29.4142,43.5041 29.7476,42.6708 30.5,42C 22.9157,34.2555 15.9157,26.0888 9.5,17.5C 11.1667,15.1667 13.1667,13.1667 15.5,11.5 Z"/></g>
<g><path style="opacity:1" fill="#936ba8" d="M 37.5,-0.5 C 38.8333,-0.5 40.1667,-0.5 41.5,-0.5C 41.3893,0.117425 41.056,0.617425 40.5,1C 57.3927,21.2164 74.226,41.383 91,61.5C 91.6708,62.2524 92.5041,62.5858 93.5,62.5C 93.0075,64.8185 92.0075,66.8185 90.5,68.5C 89.9278,66.7446 89.0945,65.0779 88,63.5C 69.5309,43.1771 52.0309,22.1771 35.5,0.5C 36.4916,0.67158 37.1583,0.338246 37.5,-0.5 Z"/></g>
<g><path style="opacity:0.994" fill="#5b95b8" d="M 9.5,17.5 C 15.9157,26.0888 22.9157,34.2555 30.5,42C 29.7476,42.6708 29.4142,43.5041 29.5,44.5C 27.6231,45.6591 27.1231,47.3258 28,49.5C 29.5095,50.0897 31.0095,50.7564 32.5,51.5C 32.0057,53.0255 31.339,54.3588 30.5,55.5C 22.1842,45.185 13.5175,35.185 4.5,25.5C 5.66615,22.4968 7.33282,19.8302 9.5,17.5 Z"/></g>
<g><path style="opacity:1" fill="#f8f9fb" d="M 49.5,24.5 C 51.1733,25.343 52.34,26.6763 53,28.5C 55.2391,34.6405 57.7391,40.6405 60.5,46.5C 62.6393,52.2523 64.9726,57.919 67.5,63.5C 68.1495,65.4352 68.4828,67.4352 68.5,69.5C 66.834,70.6664 65.1673,70.6664 63.5,69.5C 62.3391,66.6416 61.0057,63.975 59.5,61.5C 56.1311,51.7549 52.4644,42.0882 48.5,32.5C 47.8333,31.1667 47.1667,31.1667 46.5,32.5C 44.5862,36.3228 43.2529,40.3228 42.5,44.5C 45.9496,43.7564 47.6162,45.0897 47.5,48.5C 47.3893,49.1174 47.056,49.6174 46.5,50C 40.9589,48.9933 37.9589,51.1599 37.5,56.5C 36.0687,57.7804 35.4021,59.4471 35.5,61.5C 34.0687,62.7804 33.4021,64.4471 33.5,66.5C 32.4412,68.5554 30.7746,69.8888 28.5,70.5C 27.1201,70.0377 26.4534,69.0377 26.5,67.5C 26.8457,66.1508 27.179,64.8175 27.5,63.5C 28.8916,60.9933 29.8916,58.3267 30.5,55.5C 31.339,54.3588 32.0057,53.0255 32.5,51.5C 31.0095,50.7564 29.5095,50.0897 28,49.5C 27.1231,47.3258 27.6231,45.6591 29.5,44.5C 34.1163,45.6583 36.783,43.9916 37.5,39.5C 39.2291,35.9795 40.5625,32.3128 41.5,28.5C 43.0263,25.1074 45.693,23.7741 49.5,24.5 Z"/></g>
<g><path style="opacity:1" fill="#a75ba2" d="M 51.5,-0.5 C 53.5,-0.5 55.5,-0.5 57.5,-0.5C 59.3024,0.458201 61.3024,1.12487 63.5,1.5C 73.8678,14.8125 84.5344,27.1458 95.5,38.5C 95.5,42.8333 95.5,47.1667 95.5,51.5C 79.9119,35.0201 65.2452,17.6868 51.5,-0.5 Z"/></g>
<g><path style="opacity:1" fill="#509ebb" d="M 4.5,25.5 C 13.5175,35.185 22.1842,45.185 30.5,55.5C 29.8916,58.3267 28.8916,60.9933 27.5,63.5C 19.0174,53.9055 10.5174,44.2389 2,34.5C 1.72158,35.4158 1.22158,36.0825 0.5,36.5C 1.04389,32.534 2.37722,28.8674 4.5,25.5 Z"/></g>
<g><path style="opacity:0.986" fill="#44a9bf" d="M 27.5,63.5 C 27.179,64.8175 26.8457,66.1508 26.5,67.5C 26.4534,69.0377 27.1201,70.0377 28.5,70.5C 28.3893,71.1174 28.056,71.6174 27.5,72C 34.0463,79.7076 40.3797,87.5409 46.5,95.5C 43.8333,95.5 41.1667,95.5 38.5,95.5C 39.0618,93.5039 38.5618,91.5039 37,89.5C 24.2449,74.9479 11.7449,60.2813 -0.5,45.5C -0.5,42.8333 -0.5,40.1667 -0.5,37.5C 0.166667,37.5 0.5,37.1667 0.5,36.5C 1.22158,36.0825 1.72158,35.4158 2,34.5C 10.5174,44.2389 19.0174,53.9055 27.5,63.5 Z"/></g>
<g><path style="opacity:1" fill="#7f79ad" d="M 88.5,73.5 C 86.823,75.5398 85.1563,77.5398 83.5,79.5C 79.4007,74.2257 75.0674,69.059 70.5,64C 69.552,63.5172 68.552,63.3505 67.5,63.5C 64.9726,57.919 62.6393,52.2523 60.5,46.5C 61.2216,46.0825 61.7216,45.4158 62,44.5C 68.8732,54.2743 76.2065,63.6077 84,72.5C 85.3561,73.3802 86.8561,73.7135 88.5,73.5 Z"/></g>
<g><path style="opacity:1" fill="#7581b0" d="M 59.5,61.5 C 58.9232,62.7733 58.2565,62.7733 57.5,61.5C 54.3774,56.8789 51.044,52.5456 47.5,48.5C 47.6162,45.0897 45.9496,43.7564 42.5,44.5C 43.2529,40.3228 44.5862,36.3228 46.5,32.5C 47.1667,31.1667 47.8333,31.1667 48.5,32.5C 52.4644,42.0882 56.1311,51.7549 59.5,61.5 Z"/></g>
<g><path style="opacity:1" fill="#698bb4" d="M 47.5,48.5 C 51.044,52.5456 54.3774,56.8789 57.5,61.5C 58.2565,62.7733 58.9232,62.7733 59.5,61.5C 61.0057,63.975 62.3391,66.6416 63.5,69.5C 65.1673,70.6664 66.834,70.6664 68.5,69.5C 67.7703,71.045 66.437,71.8784 64.5,72C 65.938,72.2189 67.2713,72.7189 68.5,73.5C 70.9338,78.2706 74.6004,81.6039 79.5,83.5C 77.0495,86.2768 74.0495,88.2768 70.5,89.5C 60.3608,77.9458 50.1941,66.2791 40,54.5C 39.0853,55.3279 38.4186,56.3279 38,57.5C 37.6012,57.2716 37.4346,56.9382 37.5,56.5C 37.9589,51.1599 40.9589,48.9933 46.5,50C 47.056,49.6174 47.3893,49.1174 47.5,48.5 Z"/></g>
<g><path style="opacity:0.982" fill="#36b3c3" d="M -0.5,45.5 C 11.7449,60.2813 24.2449,74.9479 37,89.5C 38.5618,91.5039 39.0618,93.5039 38.5,95.5C 38.1667,95.5 37.8333,95.5 37.5,95.5C 17.8597,89.8597 5.193,77.193 -0.5,57.5C -0.5,53.5 -0.5,49.5 -0.5,45.5 Z"/></g>
<g><path style="opacity:0.997" fill="#5c95b8" d="M 70.5,89.5 C 68.2114,91.3873 65.5447,92.7206 62.5,93.5C 53.4705,82.8084 44.4705,72.1417 35.5,61.5C 35.4021,59.4471 36.0687,57.7804 37.5,56.5C 37.4346,56.9382 37.6012,57.2716 38,57.5C 38.4186,56.3279 39.0853,55.3279 40,54.5C 50.1941,66.2791 60.3608,77.9458 70.5,89.5 Z"/></g>
<g><path style="opacity:0.98" fill="#549bba" d="M 35.5,61.5 C 44.4705,72.1417 53.4705,82.8084 62.5,93.5C 60.9582,94.3007 59.2915,94.634 57.5,94.5C 49.9635,84.7539 41.9635,75.4206 33.5,66.5C 33.4021,64.4471 34.0687,62.7804 35.5,61.5 Z"/></g>
<g><path style="opacity:0.991" fill="#7780af" d="M 67.5,63.5 C 68.552,63.3505 69.552,63.5172 70.5,64C 75.0674,69.059 79.4007,74.2257 83.5,79.5C 82.5,81.1667 81.1667,82.5 79.5,83.5C 74.6004,81.6039 70.9338,78.2706 68.5,73.5C 67.2713,72.7189 65.938,72.2189 64.5,72C 66.437,71.8784 67.7703,71.045 68.5,69.5C 68.4828,67.4352 68.1495,65.4352 67.5,63.5 Z"/></g>
<g><path style="opacity:0.993" fill="#4aa3bd" d="M 33.5,66.5 C 41.9635,75.4206 49.9635,84.7539 57.5,94.5C 57.5,94.8333 57.5,95.1667 57.5,95.5C 53.8333,95.5 50.1667,95.5 46.5,95.5C 40.3797,87.5409 34.0463,79.7076 27.5,72C 28.056,71.6174 28.3893,71.1174 28.5,70.5C 30.7746,69.8888 32.4412,68.5554 33.5,66.5 Z"/></g>
</svg>
