<?xml version="1.0" encoding="UTF-8"?>
<!DOCTYPE svg PUBLIC "-//W3C//DTD SVG 1.1//EN" "http://www.w3.org/Graphics/SVG/1.1/DTD/svg11.dtd">
<svg xmlns="http://www.w3.org/2000/svg" version="1.1" width="96px" height="96px" style="shape-rendering:geometricPrecision; text-rendering:geometricPrecision; image-rendering:optimizeQuality; fill-rule:evenodd; clip-rule:evenodd" xmlns:xlink="http://www.w3.org/1999/xlink">
<g><path style="opacity:0.99" fill="#283165" d="M 37.5,-0.5 C 44.1667,-0.5 50.8333,-0.5 57.5,-0.5C 76.7369,5.07001 89.4035,17.4033 95.5,36.5C 95.5,43.8333 95.5,51.1667 95.5,58.5C 89.4035,77.5967 76.7369,89.93 57.5,95.5C 50.8333,95.5 44.1667,95.5 37.5,95.5C 18.2631,89.93 5.59648,77.5967 -0.5,58.5C -0.5,51.1667 -0.5,43.8333 -0.5,36.5C 5.59648,17.4033 18.2631,5.07001 37.5,-0.5 Z"/></g>
<g><path style="opacity:1" fill="#fcfcfd" d="M 40.5,18.5 C 41.6433,21.9758 41.8099,25.6425 41,29.5C 34.9171,35.0778 29.4171,41.0778 24.5,47.5C 29.4171,53.9222 34.9171,59.9222 41,65.5C 41.8253,69.2113 41.6586,72.878 40.5,76.5C 32.5145,68.0142 24.3478,59.6809 16,51.5C 15.3333,48.8333 15.3333,46.1667 16,43.5C 24.369,35.2983 32.5357,26.965 40.5,18.5 Z"/></g>
<g><path style="opacity:1" fill="#fdfdfd" d="M 53.5,18.5 C 62.1317,26.631 70.6317,34.9643 79,43.5C 79.7901,46.634 79.4568,49.634 78,52.5C 70,60.5 62,68.5 54,76.5C 53.3333,72.8333 53.3333,69.1667 54,65.5C 60.0829,59.9222 65.5829,53.9222 70.5,47.5C 65.5829,41.0778 60.0829,35.0778 54,29.5C 53.5014,25.8484 53.3347,22.1817 53.5,18.5 Z"/></g>
<g><path style="opacity:1" fill="#f4f5f7" d="M 46.5,34.5 C 47.4959,34.4142 48.3292,34.7476 49,35.5C 49.6667,43.5 49.6667,51.5 49,59.5C 48,60.8333 47,60.8333 46,59.5C 45.199,51.0881 45.3656,42.7548 46.5,34.5 Z"/></g>
<g><path style="opacity:1" fill="#e8e9ee" d="M 39.5,40.5 C 40.5,40.5 41.5,40.5 42.5,40.5C 42.6658,45.1785 42.4992,49.8452 42,54.5C 41,55.8333 40,55.8333 39,54.5C 38.2266,49.7481 38.3932,45.0815 39.5,40.5 Z"/></g>
<g><path style="opacity:1" fill="#eaebf0" d="M 52.5,40.5 C 53.8333,40.5 55.1667,40.5 56.5,40.5C 56.6657,44.8461 56.499,49.1794 56,53.5C 54.9887,54.3366 53.8221,54.67 52.5,54.5C 52.5,49.8333 52.5,45.1667 52.5,40.5 Z"/></g>
</svg>
