<?xml version="1.0" encoding="UTF-8"?>
<!DOCTYPE svg PUBLIC "-//W3C//DTD SVG 1.1//EN" "http://www.w3.org/Graphics/SVG/1.1/DTD/svg11.dtd">
<svg xmlns="http://www.w3.org/2000/svg" version="1.1" width="96px" height="96px" style="shape-rendering:geometricPrecision; text-rendering:geometricPrecision; image-rendering:optimizeQuality; fill-rule:evenodd; clip-rule:evenodd" xmlns:xlink="http://www.w3.org/1999/xlink">
<g><path style="opacity:0.993" fill="#ddeafa" d="M 37.5,-0.5 C 44.1667,-0.5 50.8333,-0.5 57.5,-0.5C 64.9616,1.23082 71.6283,4.56416 77.5,9.5C 75.7673,10.0076 75.434,10.841 76.5,12C 57.1667,12.6667 37.8333,12.6667 18.5,12C 19.5981,11.2303 19.5981,10.397 18.5,9.5C 20.4006,7.20432 22.7339,5.37099 25.5,4C 29.5711,2.36954 33.5711,0.869545 37.5,-0.5 Z"/></g>
<g><path style="opacity:1" fill="#d7e6f8" d="M 18.5,9.5 C 19.5981,10.397 19.5981,11.2303 18.5,12C 37.8333,12.6667 57.1667,12.6667 76.5,12C 75.434,10.841 75.7673,10.0076 77.5,9.5C 82.9247,13.5888 87.2581,18.5888 90.5,24.5C 62.9429,25.8056 35.1095,25.8056 7,24.5C 6.08529,25.3279 5.41862,26.3279 5,27.5C 4.53566,26.9056 4.36899,26.2389 4.5,25.5C 7.41349,18.5894 12.0802,13.2561 18.5,9.5 Z"/></g>
<g><path style="opacity:1" fill="#d0e1f5" d="M 90.5,24.5 C 92.2099,28.5734 93.8765,32.5734 95.5,36.5C 95.5,38.5 95.5,40.5 95.5,42.5C 93.8829,41.4107 93.0496,39.744 93,37.5C 91.9505,38.5171 90.7839,38.6838 89.5,38C 84.5734,32.8023 78.5734,30.8023 71.5,32C 74.0356,32.1862 76.369,32.6862 78.5,33.5C 73.3172,32.5347 68.9839,33.868 65.5,37.5C 65.19,36.2617 64.69,36.2617 64,37.5C 63.4338,39.7226 62.6005,41.7226 61.5,43.5C 56.867,34.1164 49.5337,31.2831 39.5,35C 36.5766,37.4162 34.2433,40.2496 32.5,43.5C 32.1653,40.4593 31.6653,37.126 31,33.5C 30.5026,36.146 30.3359,38.8127 30.5,41.5C 26.8333,41.5 23.1667,41.5 19.5,41.5C 19.5,42.5 19.5,43.5 19.5,44.5C 18.5655,43.4324 18.2322,42.099 18.5,40.5C 22.1667,40.5 25.8333,40.5 29.5,40.5C 29.5,38.1667 29.5,35.8333 29.5,33.5C 22.6457,33.176 15.979,33.5093 9.5,34.5C 8.26271,39.9601 7.59604,45.6268 7.5,51.5C 5.5,51.5 3.5,51.5 1.5,51.5C 1.79472,53.7354 1.46138,55.7354 0.5,57.5C 0.166667,57.5 -0.166667,57.5 -0.5,57.5C -0.5,50.8333 -0.5,44.1667 -0.5,37.5C 0.773429,33.3491 2.4401,29.3491 4.5,25.5C 4.36899,26.2389 4.53566,26.9056 5,27.5C 5.41862,26.3279 6.08529,25.3279 7,24.5C 35.1095,25.8056 62.9429,25.8056 90.5,24.5 Z"/></g>
<g><path style="opacity:1" fill="#fdfdfe" d="M 19.5,44.5 C 21.8333,44.5 24.1667,44.5 26.5,44.5C 26.5,46.8333 26.5,49.1667 26.5,51.5C 23.8333,51.5 21.1667,51.5 18.5,51.5C 18.5,55.1667 18.5,58.8333 18.5,62.5C 15.5,62.5 12.5,62.5 9.5,62.5C 9.5,53.1667 9.5,43.8333 9.5,34.5C 15.979,33.5093 22.6457,33.176 29.5,33.5C 29.5,35.8333 29.5,38.1667 29.5,40.5C 25.8333,40.5 22.1667,40.5 18.5,40.5C 18.2322,42.099 18.5655,43.4324 19.5,44.5 Z"/></g>
<g><path style="opacity:1" fill="#c0d7f1" d="M 95.5,42.5 C 95.5,47.8333 95.5,53.1667 95.5,58.5C 93.5753,65.0161 90.5753,71.0161 86.5,76.5C 86.6309,75.6236 86.2975,74.9569 85.5,74.5C 60.2092,75.3241 34.8759,75.8241 9.5,76C 11.6192,76.3418 11.9526,77.1751 10.5,78.5C 4.78292,72.7292 1.44958,65.7292 0.5,57.5C 1.46138,55.7354 1.79472,53.7354 1.5,51.5C 3.5,51.5 5.5,51.5 7.5,51.5C 7.59604,45.6268 8.26271,39.9601 9.5,34.5C 9.5,43.8333 9.5,53.1667 9.5,62.5C 12.5,62.5 15.5,62.5 18.5,62.5C 18.5,58.8333 18.5,55.1667 18.5,51.5C 21.1667,51.5 23.8333,51.5 26.5,51.5C 26.5,49.1667 26.5,46.8333 26.5,44.5C 24.1667,44.5 21.8333,44.5 19.5,44.5C 19.5,43.5 19.5,42.5 19.5,41.5C 23.1667,41.5 26.8333,41.5 30.5,41.5C 30.3359,38.8127 30.5026,36.146 31,33.5C 31.6653,37.126 32.1653,40.4593 32.5,43.5C 31.1254,54.4409 35.7921,60.7742 46.5,62.5C 58.3813,61.7775 63.3813,55.4442 61.5,43.5C 62.6005,41.7226 63.4338,39.7226 64,37.5C 64.69,36.2617 65.19,36.2617 65.5,37.5C 63.5168,42.1262 64.5168,45.9595 68.5,49C 71.3093,50.7411 74.3093,51.9078 77.5,52.5C 77.5,53.5 77.5,54.5 77.5,55.5C 74.9453,54.5867 72.2786,53.92 69.5,53.5C 67.8333,53.8333 66.1667,54.1667 64.5,54.5C 67.2735,62.0502 72.6068,64.5502 80.5,62C 86.1614,60.1799 88.3281,56.3465 87,50.5C 82.9607,47.2268 78.794,44.2268 74.5,41.5C 75,41.1667 75.5,40.8333 76,40.5C 79.6161,42.2559 83.4494,42.9225 87.5,42.5C 86.8432,37.1765 83.8432,34.1765 78.5,33.5C 76.369,32.6862 74.0356,32.1862 71.5,32C 78.5734,30.8023 84.5734,32.8023 89.5,38C 90.7839,38.6838 91.9505,38.5171 93,37.5C 93.0496,39.744 93.8829,41.4107 95.5,42.5 Z"/></g>
<g><path style="opacity:1" fill="#bc072b" d="M 61.5,43.5 C 63.3813,55.4442 58.3813,61.7775 46.5,62.5C 35.7921,60.7742 31.1254,54.4409 32.5,43.5C 34.2433,40.2496 36.5766,37.4162 39.5,35C 49.5337,31.2831 56.867,34.1164 61.5,43.5 Z"/></g>
<g><path style="opacity:1" fill="#fdfdfe" d="M 78.5,33.5 C 83.8432,34.1765 86.8432,37.1765 87.5,42.5C 83.4494,42.9225 79.6161,42.2559 76,40.5C 75.5,40.8333 75,41.1667 74.5,41.5C 78.794,44.2268 82.9607,47.2268 87,50.5C 88.3281,56.3465 86.1614,60.1799 80.5,62C 72.6068,64.5502 67.2735,62.0502 64.5,54.5C 66.1667,54.1667 67.8333,53.8333 69.5,53.5C 72.2786,53.92 74.9453,54.5867 77.5,55.5C 77.5,54.5 77.5,53.5 77.5,52.5C 74.3093,51.9078 71.3093,50.7411 68.5,49C 64.5168,45.9595 63.5168,42.1262 65.5,37.5C 68.9839,33.868 73.3172,32.5347 78.5,33.5 Z"/></g>
<g><path style="opacity:1" fill="#b8d2f1" d="M 86.5,76.5 C 80.9473,84.0625 73.9473,89.7292 65.5,93.5C 62.9327,93.7215 60.5994,94.3882 58.5,95.5C 51.1667,95.5 43.8333,95.5 36.5,95.5C 26.2364,92.3624 17.5698,86.6957 10.5,78.5C 11.9526,77.1751 11.6192,76.3418 9.5,76C 34.8759,75.8241 60.2092,75.3241 85.5,74.5C 86.2975,74.9569 86.6309,75.6236 86.5,76.5 Z"/></g>
<g><path style="opacity:0.004" fill="#c8b4e7" d="M 65.5,93.5 C 66.8333,94.1667 66.8333,94.1667 65.5,93.5 Z"/></g>
</svg>
