<?xml version="1.0" encoding="UTF-8"?>
<!DOCTYPE svg PUBLIC "-//W3C//DTD SVG 1.1//EN" "http://www.w3.org/Graphics/SVG/1.1/DTD/svg11.dtd">
<svg xmlns="http://www.w3.org/2000/svg" version="1.1" width="96px" height="96px" style="shape-rendering:geometricPrecision; text-rendering:geometricPrecision; image-rendering:optimizeQuality; fill-rule:evenodd; clip-rule:evenodd" xmlns:xlink="http://www.w3.org/1999/xlink">
<g><path style="opacity:0.994" fill="#fcfcfc" d="M -0.5,-0.5 C 31.5,-0.5 63.5,-0.5 95.5,-0.5C 95.5,31.5 95.5,63.5 95.5,95.5C 63.5,95.5 31.5,95.5 -0.5,95.5C -0.5,63.5 -0.5,31.5 -0.5,-0.5 Z"/></g>
<g><path style="opacity:1" fill="#101010" d="M 39.5,5.5 C 63.6615,3.15314 80.1615,13.1531 89,35.5C 93.7581,60.8212 84.2581,78.3212 60.5,88C 36.694,92.8519 19.5273,84.3519 9,62.5C 2.11828,34.2482 12.2849,15.2482 39.5,5.5 Z"/></g>
<g><path style="opacity:1" fill="#9d9d9d" d="M 63.5,11.5 C 53.5,12.8333 43.5,12.8333 33.5,11.5C 37.8273,9.0071 42.6606,8.0071 48,8.5C 53.596,8.04687 58.7627,9.04687 63.5,11.5 Z"/></g>
<g><path style="opacity:1" fill="#a0a0a0" d="M 33.5,11.5 C 43.5,12.8333 53.5,12.8333 63.5,11.5C 66.3171,12.0951 68.6505,13.4284 70.5,15.5C 69.7261,16.1471 68.7261,16.4805 67.5,16.5C 59.8912,14.98 52.2245,13.98 44.5,13.5C 43.0815,14.0047 42.4148,15.0047 42.5,16.5C 41.2223,16.7822 40.2223,17.4489 39.5,18.5C 33.9738,18.8214 28.6405,18.4881 23.5,17.5C 26.4625,14.9491 29.7958,12.9491 33.5,11.5 Z"/></g>
<g><path style="opacity:1" fill="#e1e1e1" d="M 48.5,24.5 C 47.5416,24.9528 46.7083,25.6195 46,26.5C 44.8063,24.3766 44.1397,22.0432 44,19.5C 40.7131,22.4634 40.8798,25.2968 44.5,28C 42.9095,29.0458 41.4095,30.2125 40,31.5C 39.2189,30.2713 38.7189,28.938 38.5,27.5C 40.0833,23.8984 41.4166,20.2317 42.5,16.5C 43.7079,15.7659 45.0413,15.4326 46.5,15.5C 47.1667,18.5 47.8333,21.5 48.5,24.5 Z"/></g>
<g><path style="opacity:1" fill="#7e7e7e" d="M 70.5,15.5 C 72.754,16.1237 74.4206,17.457 75.5,19.5C 71.5,19.5 67.5,19.5 63.5,19.5C 63.6567,18.1266 63.49,16.7932 63,15.5C 61.9609,16.7101 60.7942,17.7101 59.5,18.5C 56.2997,21.3226 52.6331,23.3226 48.5,24.5C 47.8333,21.5 47.1667,18.5 46.5,15.5C 45.0413,15.4326 43.7079,15.7659 42.5,16.5C 42.4148,15.0047 43.0815,14.0047 44.5,13.5C 52.2245,13.98 59.8912,14.98 67.5,16.5C 68.7261,16.4805 69.7261,16.1471 70.5,15.5 Z"/></g>
<g><path style="opacity:1" fill="#919191" d="M 23.5,17.5 C 28.6405,18.4881 33.9738,18.8214 39.5,18.5C 39.5,19.1667 39.5,19.8333 39.5,20.5C 33.1667,20.5 26.8333,20.5 20.5,20.5C 21.1667,19.1667 22.1667,18.1667 23.5,17.5 Z"/></g>
<g><path style="opacity:1" fill="#676767" d="M 19.5,21.5 C 19.5,20.8333 19.8333,20.5 20.5,20.5C 26.8333,20.5 33.1667,20.5 39.5,20.5C 39.6716,21.4916 39.3382,22.1583 38.5,22.5C 32.3554,21.5098 26.0221,21.1765 19.5,21.5 Z"/></g>
<g><path style="opacity:1" fill="#676767" d="M 75.5,19.5 C 76.5,19.8333 77.1667,20.5 77.5,21.5C 73.1539,21.6657 68.8206,21.499 64.5,21C 68.3563,20.8227 72.023,20.3227 75.5,19.5 Z"/></g>
<g><path style="opacity:1" fill="#acacac" d="M 19.5,21.5 C 26.0221,21.1765 32.3554,21.5098 38.5,22.5C 38.6716,23.4916 38.3382,24.1583 37.5,24.5C 30.6457,24.824 23.979,24.4907 17.5,23.5C 17.8333,22.5 18.5,21.8333 19.5,21.5 Z"/></g>
<g><path style="opacity:1" fill="#7a7a7a" d="M 77.5,21.5 C 78.3382,21.8417 78.6716,22.5084 78.5,23.5C 73.8215,23.6658 69.1548,23.4992 64.5,23C 69.0195,22.8247 73.3528,22.3247 77.5,21.5 Z"/></g>
<g><path style="opacity:1" fill="#dadada" d="M 75.5,19.5 C 72.023,20.3227 68.3563,20.8227 64.5,21C 68.8206,21.499 73.1539,21.6657 77.5,21.5C 73.3528,22.3247 69.0195,22.8247 64.5,23C 69.1548,23.4992 73.8215,23.6658 78.5,23.5C 74.2578,24.3566 69.2578,24.8566 63.5,25C 69.1569,25.4994 74.8236,25.6661 80.5,25.5C 74.6807,26.3276 68.6807,26.8276 62.5,27C 68.8246,27.4995 75.1579,27.6662 81.5,27.5C 82.1667,27.5 82.5,27.8333 82.5,28.5C 75.8333,28.5 69.1667,28.5 62.5,28.5C 62.254,25.7067 62.0873,22.7067 62,19.5C 60.8372,21.2852 60.1705,23.2852 60,25.5C 58.9783,24.646 58.1449,23.646 57.5,22.5C 58.6302,21.3777 59.2969,20.0443 59.5,18.5C 60.7942,17.7101 61.9609,16.7101 63,15.5C 63.49,16.7932 63.6567,18.1266 63.5,19.5C 67.5,19.5 71.5,19.5 75.5,19.5 Z"/></g>
<g><path style="opacity:1" fill="#6b6b6b" d="M 17.5,23.5 C 23.979,24.4907 30.6457,24.824 37.5,24.5C 37.5,24.8333 37.5,25.1667 37.5,25.5C 30.5,25.5 23.5,25.5 16.5,25.5C 16.3284,24.5084 16.6618,23.8417 17.5,23.5 Z"/></g>
<g><path style="opacity:1" fill="#9d9d9d" d="M 16.5,25.5 C 23.5,25.5 30.5,25.5 37.5,25.5C 37.7373,26.791 37.404,27.791 36.5,28.5C 29.1667,28.5 21.8333,28.5 14.5,28.5C 14.9321,27.2905 15.5987,26.2905 16.5,25.5 Z"/></g>
<g><path style="opacity:1" fill="#6b6b6b" d="M 80.5,25.5 C 81.3382,25.8417 81.6716,26.5084 81.5,27.5C 75.1579,27.6662 68.8246,27.4995 62.5,27C 68.6807,26.8276 74.6807,26.3276 80.5,25.5 Z"/></g>
<g><path style="opacity:1" fill="#747474" d="M 14.5,29.5 C 14.5,29.1667 14.5,28.8333 14.5,28.5C 21.8333,28.5 29.1667,28.5 36.5,28.5C 36.6716,29.4916 36.3382,30.1583 35.5,30.5C 28.6866,29.5088 21.6866,29.1755 14.5,29.5 Z"/></g>
<g><path style="opacity:1" fill="#f0f0f0" d="M 62.5,30.5 C 62.9528,31.4584 63.6195,32.2917 64.5,33C 71.1583,33.4996 77.825,33.6663 84.5,33.5C 77.3448,34.3288 70.0115,34.8288 62.5,35C 62.1667,35.3333 61.8333,35.6667 61.5,36C 63.0375,37.7073 64.7041,39.2073 66.5,40.5C 66.5,40.8333 66.5,41.1667 66.5,41.5C 65.5,41.5 64.5,41.5 63.5,41.5C 63.178,43.7224 63.8446,45.5557 65.5,47C 64.7562,48.0386 63.7562,48.5386 62.5,48.5C 58.0682,48.9047 54.2349,47.5714 51,44.5C 50.8333,44.8333 50.6667,45.1667 50.5,45.5C 51.914,46.624 53.414,47.624 55,48.5C 55.4828,49.448 55.6495,50.448 55.5,51.5C 56.9587,51.4326 58.2921,51.7659 59.5,52.5C 56.9157,56.7548 55.4157,61.4214 55,66.5C 50.4175,67.015 48.9175,69.3483 50.5,73.5C 51.916,71.8608 53.5826,71.0275 55.5,71C 54.1479,77.3845 50.8146,82.3845 45.5,86C 41.9735,86.6898 38.6402,86.1898 35.5,84.5C 36.2341,83.2921 36.5674,81.9587 36.5,80.5C 38.1667,80.5 39.8333,80.5 41.5,80.5C 42.5368,81.0174 42.7034,80.3507 42,78.5C 36.6312,74.3517 33.7978,69.0184 33.5,62.5C 36.766,62.4326 38.266,64.0992 38,67.5C 38.3333,67.1667 38.6667,66.8333 39,66.5C 40,70.1667 41.6667,70.5 44,67.5C 48.4626,60.2523 47.4626,53.5856 41,47.5C 40.3333,44.5 40.3333,41.5 41,38.5C 44.1345,36.7358 47.3012,35.0692 50.5,33.5C 50.7376,35.4044 51.7376,36.7377 53.5,37.5C 54.7079,38.2341 56.0413,38.5674 57.5,38.5C 56.9771,35.9723 55.9771,33.639 54.5,31.5C 54.8178,30.3527 55.4844,29.5194 56.5,29C 55.2888,28.1072 55.2888,27.2739 56.5,26.5C 57.8448,27.3467 58.8448,28.5134 59.5,30C 60.448,30.4828 61.448,30.6495 62.5,30.5 Z"/></g>
<g><path style="opacity:1" fill="#a2a2a2" d="M 14.5,29.5 C 21.6866,29.1755 28.6866,29.5088 35.5,30.5C 35.1667,31.5 34.5,32.1667 33.5,32.5C 26.5,32.5 19.5,32.5 12.5,32.5C 12.2852,30.8212 12.9519,29.8212 14.5,29.5 Z"/></g>
<g><path style="opacity:1" fill="#929292" d="M 62.5,28.5 C 69.1667,28.5 75.8333,28.5 82.5,28.5C 83.4408,30.0495 84.1075,31.7162 84.5,33.5C 77.825,33.6663 71.1583,33.4996 64.5,33C 63.6195,32.2917 62.9528,31.4584 62.5,30.5C 63.5063,30.0623 63.5063,29.3957 62.5,28.5 Z"/></g>
<g><path style="opacity:1" fill="#6f6f6f" d="M 12.5,33.5 C 12.5,33.1667 12.5,32.8333 12.5,32.5C 19.5,32.5 26.5,32.5 33.5,32.5C 33.5,32.8333 33.5,33.1667 33.5,33.5C 32.8333,33.8333 32.1667,34.1667 31.5,34.5C 25.3554,33.5098 19.0221,33.1765 12.5,33.5 Z"/></g>
<g><path style="opacity:1" fill="#a4a4a4" d="M 12.5,33.5 C 19.0221,33.1765 25.3554,33.5098 31.5,34.5C 31.1667,35.1667 30.8333,35.8333 30.5,36.5C 23.9779,36.8235 17.6446,36.4902 11.5,35.5C 11.3284,34.5084 11.6618,33.8417 12.5,33.5 Z"/></g>
<g><path style="opacity:1" fill="#767676" d="M 53.5,37.5 C 51.7376,36.7377 50.7376,35.4044 50.5,33.5C 50.56,32.9569 50.8933,32.6236 51.5,32.5C 53.868,33.7646 54.5346,35.4312 53.5,37.5 Z"/></g>
<g><path style="opacity:1" fill="#797879" d="M 11.5,35.5 C 17.6446,36.4902 23.9779,36.8235 30.5,36.5C 30.5,37.1667 30.1667,37.5 29.5,37.5C 23.1667,37.5 16.8333,37.5 10.5,37.5C 10.3284,36.5084 10.6618,35.8417 11.5,35.5 Z"/></g>
<g><path style="opacity:1" fill="#828282" d="M 84.5,33.5 C 85.4345,34.5676 85.7678,35.901 85.5,37.5C 78.825,37.3337 72.1583,37.5004 65.5,38C 66.999,38.8382 67.3324,39.6715 66.5,40.5C 64.7041,39.2073 63.0375,37.7073 61.5,36C 61.8333,35.6667 62.1667,35.3333 62.5,35C 70.0115,34.8288 77.3448,34.3288 84.5,33.5 Z"/></g>
<g><path style="opacity:1" fill="#cccccc" d="M 33.5,33.5 C 34.3764,33.3691 35.0431,33.7025 35.5,34.5C 34.0968,38.0318 33.0968,41.6984 32.5,45.5C 31.3036,44.4406 30.637,43.1073 30.5,41.5C 31.8885,39.0038 32.8885,36.3372 33.5,33.5 Z"/></g>
<g><path style="opacity:1" fill="#a4a4a4" d="M 10.5,37.5 C 16.8333,37.5 23.1667,37.5 29.5,37.5C 27.3643,42.6504 24.031,46.9837 19.5,50.5C 18.6906,52.0709 18.3573,53.7376 18.5,55.5C 16.6334,55.955 14.8001,56.6216 13,57.5C 11.6739,57.2451 10.6739,56.5784 10,55.5C 9.25404,49.4492 9.42071,43.4492 10.5,37.5 Z"/></g>
<g><path style="opacity:1" fill="#a4a4a4" d="M 85.5,37.5 C 87.8091,43.9276 88.1425,50.5943 86.5,57.5C 77.8333,57.5 69.1667,57.5 60.5,57.5C 60.3573,55.7376 60.6906,54.0709 61.5,52.5C 60.7435,51.2267 60.0768,51.2267 59.5,52.5C 58.2921,51.7659 56.9587,51.4326 55.5,51.5C 55.6495,50.448 55.4828,49.448 55,48.5C 53.414,47.624 51.914,46.624 50.5,45.5C 50.6667,45.1667 50.8333,44.8333 51,44.5C 54.2349,47.5714 58.0682,48.9047 62.5,48.5C 63.8275,50.8963 65.4942,50.8963 67.5,48.5C 69.1174,46.3684 69.6174,44.0351 69,41.5C 67.9288,44.1125 67.0955,44.1125 66.5,41.5C 66.5,41.1667 66.5,40.8333 66.5,40.5C 67.3324,39.6715 66.999,38.8382 65.5,38C 72.1583,37.5004 78.825,37.3337 85.5,37.5 Z"/></g>
<g><path style="opacity:1" fill="#151515" d="M 66.5,41.5 C 67.0955,44.1125 67.9288,44.1125 69,41.5C 69.6174,44.0351 69.1174,46.3684 67.5,48.5C 65.4942,50.8963 63.8275,50.8963 62.5,48.5C 63.7562,48.5386 64.7562,48.0386 65.5,47C 63.8446,45.5557 63.178,43.7224 63.5,41.5C 64.5,41.5 65.5,41.5 66.5,41.5 Z"/></g>
<g><path style="opacity:1" fill="#eaeaea" d="M 27.5,45.5 C 28.81,47.4346 30.1433,49.4346 31.5,51.5C 28.9142,52.2104 26.9142,51.2104 25.5,48.5C 26.1925,47.4822 26.8592,46.4822 27.5,45.5 Z"/></g>
<g><path style="opacity:1" fill="#9c9c9c" d="M 60.5,57.5 C 69.1667,57.5 77.8333,57.5 86.5,57.5C 85.3411,61.1513 83.6744,64.4846 81.5,67.5C 73.6484,67.8254 65.9818,67.492 58.5,66.5C 58.0679,63.1226 58.7345,60.1226 60.5,57.5 Z"/></g>
<g><path style="opacity:1" fill="#959595" d="M 58.5,66.5 C 65.9818,67.492 73.6484,67.8254 81.5,67.5C 81.2624,69.4044 80.2624,70.7377 78.5,71.5C 71.3134,71.8245 64.3134,71.4912 57.5,70.5C 57.2322,68.901 57.5655,67.5676 58.5,66.5 Z"/></g>
<g><path style="opacity:1" fill="#9c9c9c" d="M 57.5,70.5 C 64.3134,71.4912 71.3134,71.8245 78.5,71.5C 78.6716,72.4916 78.3382,73.1583 77.5,73.5C 70.5,73.5 63.5,73.5 56.5,73.5C 56.2627,72.209 56.596,71.209 57.5,70.5 Z"/></g>
<g><path style="opacity:1" fill="#666666" d="M 56.5,74.5 C 56.5,74.1667 56.5,73.8333 56.5,73.5C 63.5,73.5 70.5,73.5 77.5,73.5C 77.1667,74.5 76.5,75.1667 75.5,75.5C 69.3554,74.5098 63.0221,74.1765 56.5,74.5 Z"/></g>
<g><path style="opacity:1" fill="#9b9b9b" d="M 56.5,74.5 C 63.0221,74.1765 69.3554,74.5098 75.5,75.5C 75.1667,76.5 74.5,77.1667 73.5,77.5C 67.31,77.8229 61.31,77.4896 55.5,76.5C 55.3284,75.5084 55.6618,74.8417 56.5,74.5 Z"/></g>
<g><path style="opacity:1" fill="#6c6c6c" d="M 55.5,76.5 C 61.31,77.4896 67.31,77.8229 73.5,77.5C 73.1583,78.3382 72.4916,78.6716 71.5,78.5C 65.8333,78.5 60.1667,78.5 54.5,78.5C 54.3284,77.5084 54.6618,76.8417 55.5,76.5 Z"/></g>
<g><path style="opacity:1" fill="#5e5e5e" d="M 34.5,79.5 C 36.9533,78.3549 39.2866,78.6883 41.5,80.5C 39.8333,80.5 38.1667,80.5 36.5,80.5C 36.5674,81.9587 36.2341,83.2921 35.5,84.5C 34.5084,84.6716 33.8417,84.3382 33.5,83.5C 35.1376,82.2954 35.4709,80.9621 34.5,79.5 Z"/></g>
<g><path style="opacity:1" fill="#949494" d="M 54.5,78.5 C 60.1667,78.5 65.8333,78.5 71.5,78.5C 70.5637,79.9744 69.2303,80.9744 67.5,81.5C 63.03,80.5139 58.3633,80.1805 53.5,80.5C 53.3284,79.5084 53.6618,78.8417 54.5,78.5 Z"/></g>
<g><path style="opacity:1" fill="#8c8c8c" d="M 26.5,78.5 C 26.7352,77.9033 27.2352,77.5699 28,77.5C 29.7309,78.741 31.5642,79.741 33.5,80.5C 33.2648,81.0967 32.7648,81.4301 32,81.5C 30.2691,80.259 28.4358,79.259 26.5,78.5 Z"/></g>
<g><path style="opacity:1" fill="#eeeeee" d="M 26.5,78.5 C 28.4358,79.259 30.2691,80.259 32,81.5C 32.7648,81.4301 33.2648,81.0967 33.5,80.5C 34.1667,80.5 34.5,80.1667 34.5,79.5C 35.4709,80.9621 35.1376,82.2954 33.5,83.5C 30.2809,82.9307 27.9475,81.264 26.5,78.5 Z"/></g>
<g><path style="opacity:1" fill="#a6a6a6" d="M 53.5,80.5 C 58.3633,80.1805 63.03,80.5139 67.5,81.5C 62.969,84.2247 57.969,85.8914 52.5,86.5C 52.5172,84.4352 52.8505,82.4352 53.5,80.5 Z"/></g>
</svg>
