<?xml version="1.0" encoding="UTF-8"?>
<!DOCTYPE svg PUBLIC "-//W3C//DTD SVG 1.1//EN" "http://www.w3.org/Graphics/SVG/1.1/DTD/svg11.dtd">
<svg xmlns="http://www.w3.org/2000/svg" version="1.1" width="96px" height="96px" style="shape-rendering:geometricPrecision; text-rendering:geometricPrecision; image-rendering:optimizeQuality; fill-rule:evenodd; clip-rule:evenodd" xmlns:xlink="http://www.w3.org/1999/xlink">
<g><path style="opacity:0.995" fill="#fcfcfc" d="M -0.5,-0.5 C 31.5,-0.5 63.5,-0.5 95.5,-0.5C 95.5,31.5 95.5,63.5 95.5,95.5C 63.5,95.5 31.5,95.5 -0.5,95.5C -0.5,63.5 -0.5,31.5 -0.5,-0.5 Z"/></g>
<g><path style="opacity:1" fill="#8e9434" d="M 68.5,16.5 C 67.596,15.791 67.2627,14.791 67.5,13.5C 67.7683,10.8806 67.435,8.3806 66.5,6C 49.8385,5.26561 33.1718,4.76561 16.5,4.5C 16.1667,4.5 15.8333,4.5 15.5,4.5C 15.9623,3.12011 16.9623,2.45344 18.5,2.5C 24.6451,2.69139 30.8118,2.69139 37,2.5C 40.9169,4.3189 44.9169,4.65224 49,3.5C 55.1426,4.22776 61.3092,4.72776 67.5,5C 68.8941,5.95603 69.5607,7.28937 69.5,9C 68.8405,11.4621 68.5072,13.9621 68.5,16.5 Z"/></g>
<g><path style="opacity:1" fill="#f7f060" d="M 16.5,4.5 C 33.1718,4.76561 49.8385,5.26561 66.5,6C 67.435,8.3806 67.7683,10.8806 67.5,13.5C 66.5386,11.7354 66.2053,9.73535 66.5,7.5C 62.3754,7.7226 61.7088,9.2226 64.5,12C 63.8333,12.3333 63.1667,12.6667 62.5,13C 65.565,13.7865 66.8983,15.7865 66.5,19C 66.3058,20.8596 65.9725,22.6929 65.5,24.5C 65.2528,25.7133 64.5862,26.38 63.5,26.5C 62.9115,23.3896 62.2448,20.3896 61.5,17.5C 60.8333,16.5 60.1667,15.5 59.5,14.5C 60.2916,13.0331 60.2916,11.6998 59.5,10.5C 58.4763,11.8532 57.143,12.5198 55.5,12.5C 54.8333,8.5 54.1667,8.5 53.5,12.5C 51.8762,12.6399 50.7096,11.9733 50,10.5C 49.5172,11.448 49.3505,12.448 49.5,13.5C 48.5,13.8333 47.8333,14.5 47.5,15.5C 45.8333,14.8333 44.1667,14.1667 42.5,13.5C 43.2916,12.0331 43.2916,10.6998 42.5,9.5C 41.6143,10.325 41.281,11.325 41.5,12.5C 40.5,12.5 39.5,12.5 38.5,12.5C 37.8333,8.5 37.1667,8.5 36.5,12.5C 34.857,12.5198 33.5237,11.8532 32.5,10.5C 32.0941,11.5575 32.0941,12.8908 32.5,14.5C 31.5416,14.9528 30.7083,15.6195 30,16.5C 29.5034,18.8098 29.3367,21.1432 29.5,23.5C 29.5792,24.9305 29.2458,26.2638 28.5,27.5C 28.8333,27.8333 29.1667,28.1667 29.5,28.5C 30.3857,27.675 30.719,26.675 30.5,25.5C 33.1085,25.4003 35.4418,26.0669 37.5,27.5C 40.0617,29.9999 42.395,29.6665 44.5,26.5C 45.1667,26.5 45.8333,26.5 46.5,26.5C 50.1119,28.92 53.7786,28.92 57.5,26.5C 59.288,26.2148 60.9547,26.5481 62.5,27.5C 62.2907,28.086 61.9574,28.586 61.5,29C 57.7185,30.8271 53.7185,31.8271 49.5,32C 51.3839,32.2163 53.0506,32.883 54.5,34C 49.5111,34.4993 44.5111,34.6659 39.5,34.5C 37.0672,34.7271 35.4006,33.7271 34.5,31.5C 34.1575,29.7748 33.1575,29.2748 31.5,30C 32.1401,34.2679 32.8067,38.4345 33.5,42.5C 33.7385,45.1483 35.0718,46.9817 37.5,48C 40.6965,48.8045 43.6965,48.6378 46.5,47.5C 47.4959,47.5858 48.3292,47.2524 49,46.5C 49.1909,44.2922 49.6909,42.2922 50.5,40.5C 51.8333,40.5 53.1667,40.5 54.5,40.5C 54.5,38.8333 54.5,37.1667 54.5,35.5C 57.999,35.741 58.3323,34.9076 55.5,33C 58.6844,32.2458 61.3511,30.7458 63.5,28.5C 64.7666,27.913 65.7666,27.913 66.5,28.5C 66.5071,32.6625 66.3404,36.9959 66,41.5C 65.446,37.5723 63.446,36.239 60,37.5C 59.5065,39.1341 59.3398,40.8008 59.5,42.5C 65.032,41.935 66.032,43.7684 62.5,48C 63.7432,49.816 63.4099,51.316 61.5,52.5C 57.3401,53.3926 53.3401,53.7259 49.5,53.5C 47.1667,53.5 44.8333,53.5 42.5,53.5C 37.0247,52.5111 31.358,52.1778 25.5,52.5C 24.0265,40.1957 22.5265,27.8623 21,15.5C 19.2935,11.8777 17.7935,8.21099 16.5,4.5 Z"/></g>
<g><path style="opacity:1" fill="#edeced" d="M 49.5,13.5 C 52.9023,13.3424 56.2356,13.6758 59.5,14.5C 60.1667,15.5 60.8333,16.5 61.5,17.5C 61.6633,19.8568 61.4966,22.1902 61,24.5C 59.6976,25.0848 58.531,25.7515 57.5,26.5C 53.7786,28.92 50.1119,28.92 46.5,26.5C 47.4398,22.741 47.7731,19.0744 47.5,15.5C 47.8333,14.5 48.5,13.8333 49.5,13.5 Z"/></g>
<g><path style="opacity:1" fill="#ebe8e8" d="M 42.5,13.5 C 46.5917,17.3352 47.2584,21.6685 44.5,26.5C 42.395,29.6665 40.0617,29.9999 37.5,27.5C 37.0472,26.5416 36.3805,25.7083 35.5,25C 33.4144,24.6847 31.4144,24.1847 29.5,23.5C 29.3367,21.1432 29.5034,18.8098 30,16.5C 30.7083,15.6195 31.5416,14.9528 32.5,14.5C 35.728,13.5863 39.0613,13.2529 42.5,13.5 Z"/></g>
<g><path style="opacity:1" fill="#625f4e" d="M 59.5,14.5 C 56.2356,13.6758 52.9023,13.3424 49.5,13.5C 49.3505,12.448 49.5172,11.448 50,10.5C 50.7096,11.9733 51.8762,12.6399 53.5,12.5C 54.1667,8.5 54.8333,8.5 55.5,12.5C 57.143,12.5198 58.4763,11.8532 59.5,10.5C 60.2916,11.6998 60.2916,13.0331 59.5,14.5 Z"/></g>
<g><path style="opacity:1" fill="#5b5a51" d="M 42.5,13.5 C 39.0613,13.2529 35.728,13.5863 32.5,14.5C 32.0941,12.8908 32.0941,11.5575 32.5,10.5C 33.5237,11.8532 34.857,12.5198 36.5,12.5C 37.1667,8.5 37.8333,8.5 38.5,12.5C 39.5,12.5 40.5,12.5 41.5,12.5C 41.281,11.325 41.6143,10.325 42.5,9.5C 43.2916,10.6998 43.2916,12.0331 42.5,13.5 Z"/></g>
<g><path style="opacity:1" fill="#b0b418" d="M 24.5,7.5 C 31.8096,7.7866 32.3096,9.7866 26,13.5C 23.3266,12.1417 22.8266,10.1417 24.5,7.5 Z"/></g>
<g><path style="opacity:1" fill="#5d5a41" d="M 89.5,18.5 C 88.3684,17.6457 87.035,17.6457 85.5,18.5C 86.7514,16.439 88.4181,16.1057 90.5,17.5C 90.3764,18.1067 90.0431,18.44 89.5,18.5 Z"/></g>
<g><path style="opacity:1" fill="#858275" d="M 42.5,13.5 C 44.1667,14.1667 45.8333,14.8333 47.5,15.5C 47.7731,19.0744 47.4398,22.741 46.5,26.5C 45.8333,26.5 45.1667,26.5 44.5,26.5C 47.2584,21.6685 46.5917,17.3352 42.5,13.5 Z"/></g>
<g><path style="opacity:1" fill="#e8e762" d="M 89.5,18.5 C 87.8712,19.6253 86.3712,20.9586 85,22.5C 84.805,21.1807 84.9717,19.8474 85.5,18.5C 87.035,17.6457 88.3684,17.6457 89.5,18.5 Z"/></g>
<g><path style="opacity:1" fill="#8b913f" d="M 12.5,9.5 C 10.3159,12.7137 8.31586,16.0471 6.5,19.5C 8.5219,22.5238 9.5219,25.8571 9.5,29.5C 7.83859,26.2825 6.17192,22.9491 4.5,19.5C 6.19482,16.9647 7.69482,14.298 9,11.5C 9.81595,10.1772 10.9826,9.51056 12.5,9.5 Z"/></g>
<g><path style="opacity:1" fill="#3f7e96" d="M 49.5,18.5 C 55.1581,17.6794 56.8248,19.846 54.5,25C 49.2616,25.5941 47.5949,23.4274 49.5,18.5 Z"/></g>
<g><path style="opacity:1" fill="#020607" d="M 50.5,20.5 C 51.5,20.5 52.5,20.5 53.5,20.5C 52.7542,24.31 51.7542,24.31 50.5,20.5 Z"/></g>
<g><path style="opacity:1" fill="#458aa4" d="M 39.5,17.5 C 42.3523,17.3524 44.019,18.6857 44.5,21.5C 42.1667,26.8333 39.8333,26.8333 37.5,21.5C 37.7517,19.9271 38.4183,18.5938 39.5,17.5 Z"/></g>
<g><path style="opacity:1" fill="#050f13" d="M 39.5,20.5 C 40.9778,20.238 42.3112,20.5713 43.5,21.5C 41.5365,24.1939 40.2032,23.8606 39.5,20.5 Z"/></g>
<g><path style="opacity:1" fill="#787444" d="M 85.5,18.5 C 84.9717,19.8474 84.805,21.1807 85,22.5C 86.3712,20.9586 87.8712,19.6253 89.5,18.5C 89.1412,20.371 88.1412,21.871 86.5,23C 87.6872,24.0195 88.6872,25.1861 89.5,26.5C 89.3764,27.1067 89.0431,27.44 88.5,27.5C 88.1326,31.2008 86.1326,33.2008 82.5,33.5C 83.4293,32.6851 84.4293,31.8518 85.5,31C 83.1128,30.0239 81.9461,28.1906 82,25.5C 81.3292,24.7476 80.4959,24.4142 79.5,24.5C 81.9362,22.9844 83.9362,20.9844 85.5,18.5 Z"/></g>
<g><path style="opacity:1" fill="#d98a56" d="M 29.5,23.5 C 31.4144,24.1847 33.4144,24.6847 35.5,25C 36.3805,25.7083 37.0472,26.5416 37.5,27.5C 35.4418,26.0669 33.1085,25.4003 30.5,25.5C 30.719,26.675 30.3857,27.675 29.5,28.5C 29.1667,28.1667 28.8333,27.8333 28.5,27.5C 29.2458,26.2638 29.5792,24.9305 29.5,23.5 Z"/></g>
<g><path style="opacity:1" fill="#59563c" d="M 79.5,24.5 C 79.3225,25.6948 78.9891,26.8615 78.5,28C 81.1251,30.9308 81.1251,33.7641 78.5,36.5C 78.4208,35.0695 78.7542,33.7362 79.5,32.5C 76.9131,29.677 76.9131,27.0103 79.5,24.5 Z"/></g>
<g><path style="opacity:1" fill="#eaea61" d="M 88.5,27.5 C 86.7741,27.8146 85.1075,27.9813 83.5,28C 85.1702,25.1143 86.8369,24.9476 88.5,27.5 Z"/></g>
<g><path style="opacity:1" fill="#d3d153" d="M 79.5,24.5 C 80.4959,24.4142 81.3292,24.7476 82,25.5C 81.9461,28.1906 83.1128,30.0239 85.5,31C 84.4293,31.8518 83.4293,32.6851 82.5,33.5C 81.6618,33.8417 81.3284,34.5084 81.5,35.5C 80.3263,36.5137 79.6596,37.847 79.5,39.5C 78.8902,40.391 78.5569,41.391 78.5,42.5C 76.8333,43.5 75.5,44.8333 74.5,46.5C 73.1266,46.6567 71.7932,46.49 70.5,46C 72.0664,45.3918 73.3998,44.5585 74.5,43.5C 76.261,41.407 77.5943,39.0736 78.5,36.5C 81.1251,33.7641 81.1251,30.9308 78.5,28C 78.9891,26.8615 79.3225,25.6948 79.5,24.5 Z"/></g>
<g><path style="opacity:1" fill="#6e6d30" d="M 61.5,17.5 C 62.2448,20.3896 62.9115,23.3896 63.5,26.5C 63.5,27.1667 63.5,27.8333 63.5,28.5C 61.3511,30.7458 58.6844,32.2458 55.5,33C 58.3323,34.9076 57.999,35.741 54.5,35.5C 54.5,37.1667 54.5,38.8333 54.5,40.5C 53.1667,40.5 51.8333,40.5 50.5,40.5C 50.5,40.1667 50.5,39.8333 50.5,39.5C 51.5,39.5 52.5,39.5 53.5,39.5C 53.5,38.1667 53.5,36.8333 53.5,35.5C 52.1667,35.5 50.8333,35.5 49.5,35.5C 48.5,35.5 47.5,35.5 46.5,35.5C 45.1667,35.5 43.8333,35.5 42.5,35.5C 41.209,35.7373 40.209,35.404 39.5,34.5C 44.5111,34.6659 49.5111,34.4993 54.5,34C 53.0506,32.883 51.3839,32.2163 49.5,32C 53.7185,31.8271 57.7185,30.8271 61.5,29C 61.9574,28.586 62.2907,28.086 62.5,27.5C 60.9547,26.5481 59.288,26.2148 57.5,26.5C 58.531,25.7515 59.6976,25.0848 61,24.5C 61.4966,22.1902 61.6633,19.8568 61.5,17.5 Z"/></g>
<g><path style="opacity:1" fill="#8a9038" d="M 34.5,31.5 C 33.5184,34.9619 33.185,38.6286 33.5,42.5C 32.8067,38.4345 32.1401,34.2679 31.5,30C 33.1575,29.2748 34.1575,29.7748 34.5,31.5 Z"/></g>
<g><path style="opacity:1" fill="#552628" d="M 34.5,31.5 C 35.4006,33.7271 37.0672,34.7271 39.5,34.5C 40.209,35.404 41.209,35.7373 42.5,35.5C 42.5,36.8333 42.5,38.1667 42.5,39.5C 43.8333,39.5 45.1667,39.5 46.5,39.5C 46.5,38.1667 46.5,36.8333 46.5,35.5C 47.5,35.5 48.5,35.5 49.5,35.5C 49.2322,37.099 49.5655,38.4324 50.5,39.5C 50.5,39.8333 50.5,40.1667 50.5,40.5C 49.6909,42.2922 49.1909,44.2922 49,46.5C 48.3292,47.2524 47.4959,47.5858 46.5,47.5C 43.6965,48.6378 40.6965,48.8045 37.5,48C 35.0718,46.9817 33.7385,45.1483 33.5,42.5C 33.185,38.6286 33.5184,34.9619 34.5,31.5 Z"/></g>
<g><path style="opacity:1" fill="#dcdee3" d="M 42.5,35.5 C 43.8333,35.5 45.1667,35.5 46.5,35.5C 46.5,36.8333 46.5,38.1667 46.5,39.5C 45.1667,39.5 43.8333,39.5 42.5,39.5C 42.5,38.1667 42.5,36.8333 42.5,35.5 Z"/></g>
<g><path style="opacity:1" fill="#dbdde6" d="M 49.5,35.5 C 50.8333,35.5 52.1667,35.5 53.5,35.5C 53.5,36.8333 53.5,38.1667 53.5,39.5C 52.5,39.5 51.5,39.5 50.5,39.5C 49.5655,38.4324 49.2322,37.099 49.5,35.5 Z"/></g>
<g><path style="opacity:1" fill="#514e3b" d="M 81.5,35.5 C 81.7709,37.3797 81.1042,38.713 79.5,39.5C 79.6596,37.847 80.3263,36.5137 81.5,35.5 Z"/></g>
<g><path style="opacity:1" fill="#d4d065" d="M 15.5,4.5 C 15.8333,4.5 16.1667,4.5 16.5,4.5C 17.7935,8.21099 19.2935,11.8777 21,15.5C 22.5265,27.8623 24.0265,40.1957 25.5,52.5C 31.358,52.1778 37.0247,52.5111 42.5,53.5C 34.747,53.201 27.0804,53.5343 19.5,54.5C 19.6641,51.8127 19.4974,49.146 19,46.5C 18.6174,45.944 18.1174,45.6107 17.5,45.5C 17.1583,44.6618 16.4916,44.3284 15.5,44.5C 14.9162,42.2573 13.7495,40.2573 12,38.5C 11.7991,35.2472 10.9657,32.2472 9.5,29.5C 9.5219,25.8571 8.5219,22.5238 6.5,19.5C 8.31586,16.0471 10.3159,12.7137 12.5,9.5C 12.2729,7.06725 13.2729,5.40058 15.5,4.5 Z"/></g>
<g><path style="opacity:1" fill="#8c8c07" d="M 17.5,31.5 C 18.8221,31.33 19.9887,31.6634 21,32.5C 21.6667,34.5 21.6667,36.5 21,38.5C 20,39.8333 19,39.8333 18,38.5C 17.5034,36.1902 17.3367,33.8568 17.5,31.5 Z"/></g>
<g><path style="opacity:1" fill="#8e8e0f" d="M 13.5,11.5 C 15.7224,11.5587 16.7224,12.7253 16.5,15C 15.3159,21.5987 13.6492,21.932 11.5,16C 11.5186,14.167 12.1852,12.667 13.5,11.5 Z"/></g>
<g><path style="opacity:1" fill="#44403d" d="M 78.5,42.5 C 78.1667,44.8333 76.8333,46.1667 74.5,46.5C 75.5,44.8333 76.8333,43.5 78.5,42.5 Z"/></g>
<g><path style="opacity:1" fill="#eba8ad" d="M 46.5,47.5 C 44.1432,47.6633 41.8098,47.4966 39.5,47C 37.7139,46.8038 36.3805,45.9705 35.5,44.5C 36,44.1667 36.5,43.8333 37,43.5C 39.464,44.1608 41.964,44.6608 44.5,45C 45.3805,45.7083 46.0472,46.5416 46.5,47.5 Z"/></g>
<g><path style="opacity:1" fill="#d3d349" d="M 67.5,13.5 C 67.2627,14.791 67.596,15.791 68.5,16.5C 69.1386,17.0968 69.472,17.9302 69.5,19C 68.5299,26.4741 67.8633,33.9741 67.5,41.5C 65.7006,44.5046 65.0339,47.838 65.5,51.5C 64.2921,52.2341 62.9587,52.5674 61.5,52.5C 63.4099,51.316 63.7432,49.816 62.5,48C 66.032,43.7684 65.032,41.935 59.5,42.5C 59.3398,40.8008 59.5065,39.1341 60,37.5C 63.446,36.239 65.446,37.5723 66,41.5C 66.3404,36.9959 66.5071,32.6625 66.5,28.5C 65.7666,27.913 64.7666,27.913 63.5,28.5C 63.5,27.8333 63.5,27.1667 63.5,26.5C 64.5862,26.38 65.2528,25.7133 65.5,24.5C 65.9725,22.6929 66.3058,20.8596 66.5,19C 66.8983,15.7865 65.565,13.7865 62.5,13C 63.1667,12.6667 63.8333,12.3333 64.5,12C 61.7088,9.2226 62.3754,7.7226 66.5,7.5C 66.2053,9.73535 66.5386,11.7354 67.5,13.5 Z"/></g>
<g><path style="opacity:1" fill="#e9e8eb" d="M 17.5,45.5 C 18.1174,45.6107 18.6174,45.944 19,46.5C 19.4974,49.146 19.6641,51.8127 19.5,54.5C 14.9315,54.9174 13.4315,52.9174 15,48.5C 15.3768,47.0577 16.2101,46.0577 17.5,45.5 Z"/></g>
<g><path style="opacity:1" fill="#777858" d="M 67.5,41.5 C 69.4832,41.1568 70.8166,41.8235 71.5,43.5C 72.5,43.5 73.5,43.5 74.5,43.5C 73.3998,44.5585 72.0664,45.3918 70.5,46C 71.7932,46.49 73.1266,46.6567 74.5,46.5C 72.2414,49.4095 69.2414,51.0761 65.5,51.5C 65.0339,47.838 65.7006,44.5046 67.5,41.5 Z"/></g>
<g><path style="opacity:1" fill="#e4e4e7" d="M 71.5,43.5 C 69.5901,44.684 69.2568,46.184 70.5,48C 69.4366,49.1882 68.1033,49.6882 66.5,49.5C 65.5935,44.7587 67.2602,42.7587 71.5,43.5 Z"/></g>
<g><path style="opacity:1" fill="#fbd07e" d="M 34.5,49.5 C 34.56,48.9569 34.8933,48.6236 35.5,48.5C 40.1133,49.2787 44.78,49.7787 49.5,50C 44.3931,52.1008 39.3931,51.9341 34.5,49.5 Z"/></g>
<g><path style="opacity:1" fill="#929640" d="M 65.5,51.5 C 65.4431,52.609 65.1098,53.609 64.5,54.5C 64.1667,54.5 63.8333,54.5 63.5,54.5C 60.8962,53.4696 58.2295,53.4696 55.5,54.5C 53.5,54.1667 51.5,53.8333 49.5,53.5C 53.3401,53.7259 57.3401,53.3926 61.5,52.5C 62.9587,52.5674 64.2921,52.2341 65.5,51.5 Z"/></g>
<g><path style="opacity:1" fill="#fafafa" d="M 36.5,55.5 C 36.9175,56.2216 37.5842,56.7216 38.5,57C 34.8484,57.4986 31.1817,57.6653 27.5,57.5C 27.5,56.5 27.5,55.5 27.5,54.5C 30.5701,54.3677 33.5701,54.701 36.5,55.5 Z"/></g>
<g><path style="opacity:1" fill="#eff2f2" d="M 63.5,54.5 C 63.5,55.5 63.5,56.5 63.5,57.5C 59.8183,57.6653 56.1516,57.4986 52.5,57C 53.9423,56.6232 54.9423,55.7899 55.5,54.5C 58.2295,53.4696 60.8962,53.4696 63.5,54.5 Z"/></g>
<g><path style="opacity:1" fill="#aebeb5" d="M 42.5,53.5 C 41.0101,55.2798 39.0101,55.9465 36.5,55.5C 33.5701,54.701 30.5701,54.3677 27.5,54.5C 27.5,55.5 27.5,56.5 27.5,57.5C 25.1667,57.5 22.8333,57.5 20.5,57.5C 19.8902,56.609 19.5569,55.609 19.5,54.5C 27.0804,53.5343 34.747,53.201 42.5,53.5 Z"/></g>
<g><path style="opacity:1" fill="#9f9488" d="M 42.5,53.5 C 44.8333,53.5 47.1667,53.5 49.5,53.5C 51.5,53.8333 53.5,54.1667 55.5,54.5C 54.9423,55.7899 53.9423,56.6232 52.5,57C 56.1516,57.4986 59.8183,57.6653 63.5,57.5C 63.5,56.5 63.5,55.5 63.5,54.5C 63.8333,54.5 64.1667,54.5 64.5,54.5C 64.8128,58.0419 64.4794,61.3752 63.5,64.5C 63.5,62.5 63.5,60.5 63.5,58.5C 58.0735,58.7825 52.7401,58.4491 47.5,57.5C 46.8333,53.5 46.1667,53.5 45.5,57.5C 39.5907,58.4553 33.5907,58.7886 27.5,58.5C 27.5,58.1667 27.5,57.8333 27.5,57.5C 31.1817,57.6653 34.8484,57.4986 38.5,57C 37.5842,56.7216 36.9175,56.2216 36.5,55.5C 39.0101,55.9465 41.0101,55.2798 42.5,53.5 Z"/></g>
<g><path style="opacity:1" fill="#d7141c" d="M 47.5,57.5 C 47.8333,58.8333 48.1667,60.1667 48.5,61.5C 44.7172,62.6423 43.7172,61.309 45.5,57.5C 46.1667,53.5 46.8333,53.5 47.5,57.5 Z"/></g>
<g><path style="opacity:1" fill="#3c302a" d="M 18.5,57.5 C 19.1667,57.5 19.8333,57.5 20.5,57.5C 22.8333,57.5 25.1667,57.5 27.5,57.5C 27.5,57.8333 27.5,58.1667 27.5,58.5C 25.7231,58.7863 24.0564,59.4529 22.5,60.5C 19.4017,59.4774 18.7351,60.6441 20.5,64C 25.6297,66.0801 30.963,66.9134 36.5,66.5C 39.3854,66.1936 42.0521,66.5269 44.5,67.5C 40.917,67.2319 37.5836,67.8986 34.5,69.5C 33.3064,68.2227 31.6397,67.5561 29.5,67.5C 27.8333,67.6667 26.1667,67.8333 24.5,68C 25.3805,68.7083 26.0472,69.5416 26.5,70.5C 25.5041,70.5858 24.6708,70.2524 24,69.5C 23.0128,65.2332 22.1795,64.8998 21.5,68.5C 18.9459,65.4103 17.9459,61.7437 18.5,57.5 Z"/></g>
<g><path style="opacity:1" fill="#c27730" d="M 29.5,61.5 C 31.5,61.5 33.5,61.5 35.5,61.5C 36.2216,61.0825 36.7216,60.4158 37,59.5C 40.3121,60.8134 43.4787,62.48 46.5,64.5C 47.9185,63.9953 48.5852,62.9953 48.5,61.5C 51.0792,61.9167 53.2458,61.25 55,59.5C 57.1062,61.291 59.6062,61.9577 62.5,61.5C 62.5,62.8333 62.5,64.1667 62.5,65.5C 53.8333,65.5 45.1667,65.5 36.5,65.5C 33.5,65.5 30.5,65.5 27.5,65.5C 27.3379,63.4727 27.5045,61.4727 28,59.5C 28.2784,60.4158 28.7784,61.0825 29.5,61.5 Z"/></g>
<g><path style="opacity:1" fill="#dddc58" d="M 18.5,57.5 C 17.9459,61.7437 18.9459,65.4103 21.5,68.5C 19.9499,74.2906 17.9499,74.6239 15.5,69.5C 16.0567,64.8231 16.7234,60.1564 17.5,55.5C 18.2975,55.9569 18.6309,56.6236 18.5,57.5 Z"/></g>
<g><path style="opacity:1" fill="#703d17" d="M 45.5,57.5 C 43.7172,61.309 44.7172,62.6423 48.5,61.5C 48.5852,62.9953 47.9185,63.9953 46.5,64.5C 43.4787,62.48 40.3121,60.8134 37,59.5C 36.7216,60.4158 36.2216,61.0825 35.5,61.5C 35.0296,60.3065 34.0296,59.6399 32.5,59.5C 30.9704,59.6399 29.9704,60.3065 29.5,61.5C 28.7784,61.0825 28.2784,60.4158 28,59.5C 27.5045,61.4727 27.3379,63.4727 27.5,65.5C 30.5,65.5 33.5,65.5 36.5,65.5C 36.5,65.8333 36.5,66.1667 36.5,66.5C 30.963,66.9134 25.6297,66.0801 20.5,64C 18.7351,60.6441 19.4017,59.4774 22.5,60.5C 24.0564,59.4529 25.7231,58.7863 27.5,58.5C 33.5907,58.7886 39.5907,58.4553 45.5,57.5 Z"/></g>
<g><path style="opacity:1" fill="#2f1e0c" d="M 35.5,61.5 C 33.5,61.5 31.5,61.5 29.5,61.5C 29.9704,60.3065 30.9704,59.6399 32.5,59.5C 34.0296,59.6399 35.0296,60.3065 35.5,61.5 Z"/></g>
<g><path style="opacity:1" fill="#4b2c11" d="M 47.5,57.5 C 52.7401,58.4491 58.0735,58.7825 63.5,58.5C 63.5,60.5 63.5,62.5 63.5,64.5C 60.6741,65.9746 57.6741,67.3079 54.5,68.5C 54.631,67.7611 54.4643,67.0944 54,66.5C 51.3927,67.1233 48.8927,67.79 46.5,68.5C 45.8333,68.1667 45.1667,67.8333 44.5,67.5C 42.0521,66.5269 39.3854,66.1936 36.5,66.5C 36.5,66.1667 36.5,65.8333 36.5,65.5C 45.1667,65.5 53.8333,65.5 62.5,65.5C 62.5,64.1667 62.5,62.8333 62.5,61.5C 59.6062,61.9577 57.1062,61.291 55,59.5C 53.2458,61.25 51.0792,61.9167 48.5,61.5C 48.1667,60.1667 47.8333,58.8333 47.5,57.5 Z"/></g>
<g><path style="opacity:1" fill="#77736b" d="M 15.5,44.5 C 16.4916,44.3284 17.1583,44.6618 17.5,45.5C 16.2101,46.0577 15.3768,47.0577 15,48.5C 13.4315,52.9174 14.9315,54.9174 19.5,54.5C 19.5569,55.609 19.8902,56.609 20.5,57.5C 19.8333,57.5 19.1667,57.5 18.5,57.5C 18.6309,56.6236 18.2975,55.9569 17.5,55.5C 16.7234,60.1564 16.0567,64.8231 15.5,69.5C 17.9499,74.6239 19.9499,74.2906 21.5,68.5C 22.0967,68.7352 22.4301,69.2352 22.5,70C 21.1153,71.5971 20.4486,73.4305 20.5,75.5C 18.2776,75.822 16.4443,75.1554 15,73.5C 14.6882,69.3348 14.8548,65.1681 15.5,61C 15.5485,57.4497 14.8819,54.1164 13.5,51C 13.4824,48.5897 14.1491,46.423 15.5,44.5 Z"/></g>
<g><path style="opacity:1" fill="#b16a28" d="M 34.5,69.5 C 33.791,70.404 32.791,70.7373 31.5,70.5C 30.1667,70.5 28.8333,70.5 27.5,70.5C 27.1667,70.5 26.8333,70.5 26.5,70.5C 26.0472,69.5416 25.3805,68.7083 24.5,68C 26.1667,67.8333 27.8333,67.6667 29.5,67.5C 31.6397,67.5561 33.3064,68.2227 34.5,69.5 Z"/></g>
<g><path style="opacity:1" fill="#d27d2d" d="M 54.5,68.5 C 51.8333,68.5 49.1667,68.5 46.5,68.5C 48.8927,67.79 51.3927,67.1233 54,66.5C 54.4643,67.0944 54.631,67.7611 54.5,68.5 Z"/></g>
<g><path style="opacity:1" fill="#908e35" d="M 50.5,69.5 C 50.5,71.8333 50.5,74.1667 50.5,76.5C 49.2749,75.8478 48.6083,74.6811 48.5,73C 48.6083,71.3189 49.2749,70.1522 50.5,69.5 Z"/></g>
<g><path style="opacity:1" fill="#6a5d55" d="M 46.5,68.5 C 49.1667,68.5 51.8333,68.5 54.5,68.5C 53.4324,69.4345 52.099,69.7678 50.5,69.5C 49.2749,70.1522 48.6083,71.3189 48.5,73C 48.6083,74.6811 49.2749,75.8478 50.5,76.5C 50.5,78.5 50.5,80.5 50.5,82.5C 49.5,82.5 48.5,82.5 47.5,82.5C 47.7744,77.737 47.441,73.0704 46.5,68.5 Z"/></g>
<g><path style="opacity:1" fill="#7d755b" d="M 27.5,70.5 C 28.8333,70.5 30.1667,70.5 31.5,70.5C 30.1667,75.1667 30.1667,79.8333 31.5,84.5C 29.7085,84.634 28.0418,84.3007 26.5,83.5C 27.436,79.2648 27.7693,74.9315 27.5,70.5 Z"/></g>
<g><path style="opacity:1" fill="#1f1f1f" d="M 47.5,82.5 C 48.5,82.5 49.5,82.5 50.5,82.5C 51.5374,84.6827 53.0374,85.016 55,83.5C 59.8785,86.726 59.3785,89.0593 53.5,90.5C 49.3178,90.6555 46.6511,88.8222 45.5,85C 45.6387,83.699 46.3054,82.8656 47.5,82.5 Z"/></g>
<g><path style="opacity:1" fill="#151616" d="M 26.5,83.5 C 28.0418,84.3007 29.7085,84.634 31.5,84.5C 33.2184,85.224 35.0517,85.8906 37,86.5C 38.0723,89.5527 37.0723,91.5527 34,92.5C 31.5398,91.4021 29.0398,90.4021 26.5,89.5C 25.3058,87.4844 25.3058,85.4844 26.5,83.5 Z"/></g>
</svg>
