<?xml version="1.0" encoding="UTF-8"?>
<!DOCTYPE svg PUBLIC "-//W3C//DTD SVG 1.1//EN" "http://www.w3.org/Graphics/SVG/1.1/DTD/svg11.dtd">
<svg xmlns="http://www.w3.org/2000/svg" version="1.1" width="96px" height="96px" style="shape-rendering:geometricPrecision; text-rendering:geometricPrecision; image-rendering:optimizeQuality; fill-rule:evenodd; clip-rule:evenodd" xmlns:xlink="http://www.w3.org/1999/xlink">
<g><path style="opacity:1" fill="#1d1c1c" d="M 40.5,6.5 C 46.6354,6.17726 52.6354,6.84392 58.5,8.5C 57.0732,14.394 56.0732,20.394 55.5,26.5C 50.2032,25.7255 44.8699,25.3921 39.5,25.5C 39.5,19.5 39.5,13.5 39.5,7.5C 39.5,6.83333 39.8333,6.5 40.5,6.5 Z"/></g>
<g><path style="opacity:0.999" fill="#44dcf5" d="M 40.5,2.5 C 40.5,3.83333 40.5,5.16667 40.5,6.5C 39.8333,6.5 39.5,6.83333 39.5,7.5C 37.0523,7.08467 35.7189,8.08467 35.5,10.5C 36.4083,16.1252 36.7416,21.7919 36.5,27.5C 36.5,29.5 36.5,31.5 36.5,33.5C 33.9154,34.0022 31.582,35.1689 29.5,37C 30.4709,38.4813 31.8042,39.3146 33.5,39.5C 30.5028,46.8579 31.1695,53.8579 35.5,60.5C 34.2584,62.3888 34.2584,64.3888 35.5,66.5C 34.7368,68.3684 33.7368,70.0351 32.5,71.5C 30.5,70.5 28.5,69.5 26.5,68.5C 11.9664,51.0282 10.7997,32.6949 23,13.5C 27.6978,7.9579 33.5311,4.29124 40.5,2.5 Z"/></g>
<g><path style="opacity:1" fill="#474342" d="M 39.5,7.5 C 39.5,13.5 39.5,19.5 39.5,25.5C 38.7095,26.4013 37.7095,27.0679 36.5,27.5C 36.7416,21.7919 36.4083,16.1252 35.5,10.5C 35.7189,8.08467 37.0523,7.08467 39.5,7.5 Z"/></g>
<g><path style="opacity:1" fill="#44dbf4" d="M 69.5,67.5 C 68.8333,67.5 68.5,67.8333 68.5,68.5C 66.5887,69.075 64.922,70.075 63.5,71.5C 61.7152,68.0991 60.0485,64.7658 58.5,61.5C 58.5,61.1667 58.5,60.8333 58.5,60.5C 63.381,54.6332 64.7143,47.9666 62.5,40.5C 64.0281,40.4827 64.5281,39.816 64,38.5C 62.2196,37.3606 60.3863,36.3606 58.5,35.5C 58.5,33.1667 58.5,30.8333 58.5,28.5C 59.9914,22.2242 60.8247,15.8909 61,9.5C 60.3292,8.74756 59.4959,8.41423 58.5,8.5C 52.6354,6.84392 46.6354,6.17726 40.5,6.5C 40.5,5.16667 40.5,3.83333 40.5,2.5C 62.1373,0.271139 75.304,9.93781 80,31.5C 82.0455,45.1894 78.5455,57.1894 69.5,67.5 Z"/></g>
<g><path style="opacity:1" fill="#453f3e" d="M 58.5,8.5 C 59.4959,8.41423 60.3292,8.74756 61,9.5C 60.8247,15.8909 59.9914,22.2242 58.5,28.5C 57.2905,28.0679 56.2905,27.4013 55.5,26.5C 56.0732,20.394 57.0732,14.394 58.5,8.5 Z"/></g>
<g><path style="opacity:1" fill="#f45250" d="M 39.5,25.5 C 44.8699,25.3921 50.2032,25.7255 55.5,26.5C 56.2905,27.4013 57.2905,28.0679 58.5,28.5C 58.5,30.8333 58.5,33.1667 58.5,35.5C 51.2665,33.9689 43.9332,33.3023 36.5,33.5C 36.5,31.5 36.5,29.5 36.5,27.5C 37.7095,27.0679 38.7095,26.4013 39.5,25.5 Z"/></g>
<g><path style="opacity:1" fill="#302423" d="M 36.5,33.5 C 43.9332,33.3023 51.2665,33.9689 58.5,35.5C 60.3863,36.3606 62.2196,37.3606 64,38.5C 64.5281,39.816 64.0281,40.4827 62.5,40.5C 61.2823,39.2689 59.949,38.1022 58.5,37C 51.1667,36.3333 43.8333,36.3333 36.5,37C 35.6266,38.045 34.6266,38.8783 33.5,39.5C 31.8042,39.3146 30.4709,38.4813 29.5,37C 31.582,35.1689 33.9154,34.0022 36.5,33.5 Z"/></g>
<g><path style="opacity:1" fill="#f5f1f0" d="M 62.5,40.5 C 64.7143,47.9666 63.381,54.6332 58.5,60.5C 57.1667,61.5 55.8333,62.5 54.5,63.5C 49.5,64.8333 44.5,64.8333 39.5,63.5C 38.5637,62.0256 37.2303,61.0256 35.5,60.5C 31.1695,53.8579 30.5028,46.8579 33.5,39.5C 34.6266,38.8783 35.6266,38.045 36.5,37C 43.8333,36.3333 51.1667,36.3333 58.5,37C 59.949,38.1022 61.2823,39.2689 62.5,40.5 Z"/></g>
<g><path style="opacity:1" fill="#292828" d="M 40.5,40.5 C 42.9725,41.7487 43.1391,43.4153 41,45.5C 39.2116,43.9769 39.0449,42.3102 40.5,40.5 Z"/></g>
<g><path style="opacity:1" fill="#313030" d="M 53.5,40.5 C 56.9563,41.5362 57.2896,43.2029 54.5,45.5C 53.5481,43.9547 53.2148,42.288 53.5,40.5 Z"/></g>
<g><path style="opacity:1" fill="#f08c61" d="M 47.5,42.5 C 49.7224,42.5587 50.7224,43.7253 50.5,46C 50.7186,47.9713 49.8853,49.1379 48,49.5C 44.8801,47.5327 44.7134,45.1993 47.5,42.5 Z"/></g>
<g><path style="opacity:1" fill="#ed5221" d="M 56.5,46.5 C 61.3276,46.3852 62.6609,48.5519 60.5,53C 55.7915,53.082 54.4582,50.9154 56.5,46.5 Z"/></g>
<g><path style="opacity:1" fill="#ef5926" d="M 34.5,46.5 C 39.3276,46.3852 40.6609,48.5519 38.5,53C 33.8103,53.1412 32.477,50.9746 34.5,46.5 Z"/></g>
<g><path style="opacity:1" fill="#959393" d="M 40.5,50.5 C 44.7905,55.1947 49.2905,55.5281 54,51.5C 54.5074,52.9961 54.0074,54.1627 52.5,55C 47.1004,57.1306 43.1004,55.6306 40.5,50.5 Z"/></g>
<g><path style="opacity:1" fill="#fa3e3a" d="M 58.5,60.5 C 58.5,60.8333 58.5,61.1667 58.5,61.5C 58.9754,64.3126 57.9754,66.3126 55.5,67.5C 55.5674,66.0413 55.2341,64.7079 54.5,63.5C 55.8333,62.5 57.1667,61.5 58.5,60.5 Z"/></g>
<g><path style="opacity:1" fill="#f6413c" d="M 35.5,60.5 C 37.2303,61.0256 38.5637,62.0256 39.5,63.5C 38.7597,65.2552 38.4263,66.9218 38.5,68.5C 37.5,67.8333 36.5,67.1667 35.5,66.5C 34.2584,64.3888 34.2584,62.3888 35.5,60.5 Z"/></g>
<g><path style="opacity:0.872" fill="#f7f6f6" d="M 58.5,61.5 C 60.0485,64.7658 61.7152,68.0991 63.5,71.5C 53.058,78.1083 42.7247,78.1083 32.5,71.5C 33.7368,70.0351 34.7368,68.3684 35.5,66.5C 36.5,67.1667 37.5,67.8333 38.5,68.5C 44.2723,71.1954 49.9389,70.862 55.5,67.5C 57.9754,66.3126 58.9754,64.3126 58.5,61.5 Z"/></g>
<g><path style="opacity:1" fill="#f9817f" d="M 39.5,63.5 C 44.5,64.8333 49.5,64.8333 54.5,63.5C 55.2341,64.7079 55.5674,66.0413 55.5,67.5C 49.9389,70.862 44.2723,71.1954 38.5,68.5C 38.4263,66.9218 38.7597,65.2552 39.5,63.5 Z"/></g>
<g><path style="opacity:0.004" fill="#44cfff" d="M 69.5,67.5 C 70.8333,68.1667 70.8333,68.1667 69.5,67.5 Z"/></g>
<g><path style="opacity:0.004" fill="#4fd1f5" d="M 26.5,68.5 C 25.8333,69.1667 25.8333,69.1667 26.5,68.5 Z"/></g>
<g><path style="opacity:0.004" fill="#4fd1f5" d="M 68.5,68.5 C 68.8333,68.5 69.1667,68.5 69.5,68.5C 69.3147,69.1701 68.9813,69.1701 68.5,68.5 Z"/></g>
<g><path style="opacity:1" fill="#332c2b" d="M 14.5,85.5 C 12.1346,94.3781 8.13464,95.3781 2.5,88.5C 5.04793,88.9309 7.7146,88.9309 10.5,88.5C 11.5582,85.2038 10.2249,83.5372 6.5,83.5C 3.57685,78.2328 5.24352,76.0662 11.5,77C 11.9574,77.414 12.2907,77.914 12.5,78.5C 10.9223,79.2978 9.2556,79.7978 7.5,80C 10.6206,80.9668 12.954,82.8001 14.5,85.5 Z"/></g>
<g><path style="opacity:0.855" fill="#332c2b" d="M 54.5,79.5 C 58.5701,81.4352 62.9034,82.6019 67.5,83C 70.113,86.2037 70.113,89.3704 67.5,92.5C 66.2801,92.1131 65.6135,91.2798 65.5,90C 66.1476,88.5603 66.4809,87.0603 66.5,85.5C 65.1667,85.5 63.8333,85.5 62.5,85.5C 62.7564,87.7925 62.4231,89.9592 61.5,92C 60.3999,92.4317 59.7332,91.9317 59.5,90.5C 61.0244,88.2076 60.6911,86.2076 58.5,84.5C 57.1667,86.8333 55.8333,89.1667 54.5,91.5C 53.4949,87.5207 53.4949,83.5207 54.5,79.5 Z"/></g>
<g><path style="opacity:0.974" fill="#332c2b" d="M 81.5,86.5 C 81.8076,88.924 81.4742,91.2573 80.5,93.5C 77.9334,93.2223 75.2667,93.0556 72.5,93C 68.5018,84.8073 71.1685,80.9739 80.5,81.5C 80.2155,83.4147 80.5489,85.0813 81.5,86.5 Z M 74.5,84.5 C 78.7871,86.2943 79.1205,88.2943 75.5,90.5C 72.0558,88.9619 71.7225,86.9619 74.5,84.5 Z"/></g>
<g><path style="opacity:0.844" fill="#332d2b" d="M 81.5,86.5 C 81.2606,84.5328 81.5939,82.6995 82.5,81C 83.7441,80.5439 84.5774,81.0439 85,82.5C 86.3876,81.4464 87.8876,81.2797 89.5,82C 91.0769,84.564 92.0769,87.3974 92.5,90.5C 91.7112,92.4879 90.5445,92.8213 89,91.5C 88.5034,89.1902 88.3367,86.8568 88.5,84.5C 87.5,84.5 86.5,84.5 85.5,84.5C 85.5,87.1667 85.5,89.8333 85.5,92.5C 84.5,92.5 83.5,92.5 82.5,92.5C 82.7947,90.2646 82.4614,88.2646 81.5,86.5 Z"/></g>
<g><path style="opacity:0.004" fill="#121514" d="M 6.5,83.5 C 5.83333,84.1667 5.83333,84.1667 6.5,83.5 Z"/></g>
<g><path style="opacity:0.969" fill="#342d2c" d="M 31.5,80.5 C 35.652,81.142 37.652,83.642 37.5,88C 35.4165,92.1256 32.2499,93.2923 28,91.5C 25.1722,86.3532 26.3388,82.6866 31.5,80.5 Z M 30.5,84.5 C 35.7835,86.6329 35.4502,88.2996 29.5,89.5C 29.366,87.7085 29.6993,86.0418 30.5,84.5 Z"/></g>
<g><path style="opacity:0.925" fill="#342d2c" d="M 50.5,80.5 C 51.675,80.281 52.675,80.6143 53.5,81.5C 51.9495,85.6613 50.1162,89.6613 48,93.5C 46.2602,92.2842 45.2602,90.6175 45,88.5C 44.8882,91.4471 43.3882,92.7804 40.5,92.5C 39.6988,88.7653 38.6988,85.0986 37.5,81.5C 40.6449,82.0767 42.1449,84.0767 42,87.5C 44.1797,80.9022 46.1797,80.9022 48,87.5C 48.7436,85.1003 49.5769,82.767 50.5,80.5 Z"/></g>
<g><path style="opacity:0.004" fill="#101618" d="M 7.5,84.5 C 8.83333,85.1667 8.83333,85.1667 7.5,84.5 Z"/></g>
<g><path style="opacity:0.004" fill="#303231" d="M 3.5,85.5 C 4.83333,86.1667 4.83333,86.1667 3.5,85.5 Z"/></g>
<g><path style="opacity:0.931" fill="#332c2b" d="M 14.5,85.5 C 15.7914,84.5272 15.7914,83.5272 14.5,82.5C 14.8333,81.5 15.5,80.8333 16.5,80.5C 18.8333,81.1667 21.1667,81.8333 23.5,82.5C 24.3263,84.9589 24.993,87.4589 25.5,90C 25.3865,91.2798 24.7199,92.1131 23.5,92.5C 21.7711,90.1489 21.1044,87.4822 21.5,84.5C 20.5,84.5 19.5,84.5 18.5,84.5C 18.5,87.1667 18.5,89.8333 18.5,92.5C 17.5,92.5 16.5,92.5 15.5,92.5C 15.8016,89.9407 15.4682,87.6074 14.5,85.5 Z"/></g>
<g><path style="opacity:0.004" fill="#372827" d="M 19.5,85.5 C 20.8333,86.1667 20.8333,86.1667 19.5,85.5 Z"/></g>
<g><path style="opacity:0.008" fill="#362524" d="M 86.5,85.5 C 87.8333,86.1667 87.8333,86.1667 86.5,85.5 Z"/></g>
</svg>
