<?xml version="1.0" encoding="UTF-8"?>
<!DOCTYPE svg PUBLIC "-//W3C//DTD SVG 1.1//EN" "http://www.w3.org/Graphics/SVG/1.1/DTD/svg11.dtd">
<svg xmlns="http://www.w3.org/2000/svg" version="1.1" width="96px" height="96px" style="shape-rendering:geometricPrecision; text-rendering:geometricPrecision; image-rendering:optimizeQuality; fill-rule:evenodd; clip-rule:evenodd" xmlns:xlink="http://www.w3.org/1999/xlink">
<g><path style="opacity:0.997" fill="#05173b" d="M -0.5,-0.5 C 29.8333,-0.5 60.1667,-0.5 90.5,-0.5C 90.5,4.16667 90.5,8.83333 90.5,13.5C 89.5,13.5 88.5,13.5 87.5,13.5C 87.4775,18.6061 86.8108,23.6061 85.5,28.5C 84.5,28.5 83.5,28.5 82.5,28.5C 81.8355,38.4891 81.1688,48.4891 80.5,58.5C 80.6159,64.4273 81.2826,70.2606 82.5,76C 81.5891,78.9604 80.2558,81.627 78.5,84C 79.448,84.4828 80.448,84.6495 81.5,84.5C 81.5,88.1667 81.5,91.8333 81.5,95.5C 54.1667,95.5 26.8333,95.5 -0.5,95.5C -0.5,63.5 -0.5,31.5 -0.5,-0.5 Z"/></g>
<g><path style="opacity:0.995" fill="#04173f" d="M 90.5,-0.5 C 92.1667,-0.5 93.8333,-0.5 95.5,-0.5C 95.5,31.5 95.5,63.5 95.5,95.5C 90.8333,95.5 86.1667,95.5 81.5,95.5C 81.5,91.8333 81.5,88.1667 81.5,84.5C 80.448,84.6495 79.448,84.4828 78.5,84C 80.2558,81.627 81.5891,78.9604 82.5,76C 81.2826,70.2606 80.6159,64.4273 80.5,58.5C 81.1688,48.4891 81.8355,38.4891 82.5,28.5C 83.5,28.5 84.5,28.5 85.5,28.5C 86.8108,23.6061 87.4775,18.6061 87.5,13.5C 88.5,13.5 89.5,13.5 90.5,13.5C 90.5,8.83333 90.5,4.16667 90.5,-0.5 Z"/></g>
<g><path style="opacity:1" fill="#8c9799" d="M 39.5,9.5 C 43.9811,8.35159 48.6478,8.18492 53.5,9C 56.6207,10.3063 59.2874,12.1397 61.5,14.5C 61.1667,14.5 60.8333,14.5 60.5,14.5C 58.8008,14.6602 57.1341,14.4935 55.5,14C 54.6959,12.2287 53.5292,10.7287 52,9.5C 49.8122,15.026 47.6455,20.3593 45.5,25.5C 44.6519,20.7742 43.4852,16.1076 42,11.5C 41.5831,10.244 40.7498,9.57735 39.5,9.5 Z"/></g>
<g><path style="opacity:1" fill="#847978" d="M 39.5,9.5 C 40.7498,9.57735 41.5831,10.244 42,11.5C 43.4852,16.1076 44.6519,20.7742 45.5,25.5C 43.6075,24.2983 41.7742,22.965 40,21.5C 39.6174,22.056 39.1174,22.3893 38.5,22.5C 36.9059,19.2358 34.5725,16.5691 31.5,14.5C 31.5,14.1667 31.5,13.8333 31.5,13.5C 33.8485,11.659 36.5152,10.3257 39.5,9.5 Z"/></g>
<g><path style="opacity:1" fill="#9a8dc7" d="M 31.5,13.5 C 31.5,13.8333 31.5,14.1667 31.5,14.5C 32.4349,17.1128 32.6015,19.7795 32,22.5C 30.2389,25.4111 28.7389,28.4111 27.5,31.5C 27.1667,31.5 26.8333,31.5 26.5,31.5C 26.7406,29.1016 26.0739,27.1016 24.5,25.5C 26.332,21.1638 28.6654,17.1638 31.5,13.5 Z"/></g>
<g><path style="opacity:1" fill="#86679f" d="M 60.5,14.5 C 60.8333,14.5 61.1667,14.5 61.5,14.5C 60.5325,17.4453 60.3658,20.4453 61,23.5C 62.7774,26.0594 64.2774,28.7261 65.5,31.5C 62.5881,32.4289 59.9214,33.7622 57.5,35.5C 57.9268,30.3473 56.5934,25.6806 53.5,21.5C 56.0602,19.3879 58.3936,17.0546 60.5,14.5 Z"/></g>
<g><path style="opacity:1" fill="#85679e" d="M 31.5,14.5 C 34.5725,16.5691 36.9059,19.2358 38.5,22.5C 35.9624,26.4313 34.9624,30.7646 35.5,35.5C 32.8333,34.1667 30.1667,32.8333 27.5,31.5C 28.7389,28.4111 30.2389,25.4111 32,22.5C 32.6015,19.7795 32.4349,17.1128 31.5,14.5 Z"/></g>
<g><path style="opacity:1" fill="#726360" d="M 60.5,14.5 C 58.3936,17.0546 56.0602,19.3879 53.5,21.5C 56.5934,25.6806 57.9268,30.3473 57.5,35.5C 57.5,35.8333 57.5,36.1667 57.5,36.5C 57.5,36.8333 57.5,37.1667 57.5,37.5C 57.5,37.8333 57.5,38.1667 57.5,38.5C 56.6618,38.1583 56.3284,37.4916 56.5,36.5C 53.5211,32.8544 50.1877,29.521 46.5,26.5C 42.8123,29.521 39.4789,32.8544 36.5,36.5C 36.5,37.1667 36.1667,37.5 35.5,37.5C 35.5,37.1667 35.5,36.8333 35.5,36.5C 35.5,36.1667 35.5,35.8333 35.5,35.5C 34.9624,30.7646 35.9624,26.4313 38.5,22.5C 39.1174,22.3893 39.6174,22.056 40,21.5C 41.7742,22.965 43.6075,24.2983 45.5,25.5C 47.6455,20.3593 49.8122,15.026 52,9.5C 53.5292,10.7287 54.6959,12.2287 55.5,14C 57.1341,14.4935 58.8008,14.6602 60.5,14.5 Z"/></g>
<g><path style="opacity:1" fill="#454b4c" d="M 56.5,36.5 C 54.5266,37.4867 52.5266,38.4867 50.5,39.5C 49.45,35.6147 47.95,31.948 46,28.5C 45.1189,32.3756 43.7855,36.0423 42,39.5C 39.9817,38.7772 38.1484,37.7772 36.5,36.5C 39.4789,32.8544 42.8123,29.521 46.5,26.5C 50.1877,29.521 53.5211,32.8544 56.5,36.5 Z"/></g>
<g><path style="opacity:1" fill="#646ad6" d="M 26.5,31.5 C 26.8333,31.5 27.1667,31.5 27.5,31.5C 30.1667,32.8333 32.8333,34.1667 35.5,35.5C 35.5,35.8333 35.5,36.1667 35.5,36.5C 32.1667,36.5 28.8333,36.5 25.5,36.5C 25.6287,34.7839 25.962,33.1172 26.5,31.5 Z"/></g>
<g><path style="opacity:1" fill="#646bd6" d="M 65.5,31.5 C 66.9313,32.7804 67.5979,34.4471 67.5,36.5C 64.1667,36.5 60.8333,36.5 57.5,36.5C 57.5,36.1667 57.5,35.8333 57.5,35.5C 59.9214,33.7622 62.5881,32.4289 65.5,31.5 Z"/></g>
<g><path style="opacity:1" fill="#9091c2" d="M 61.5,14.5 C 67.6551,21.5946 71.3217,29.9279 72.5,39.5C 70.9826,39.4894 69.8159,38.8228 69,37.5C 69.414,41.334 70.2473,45.1673 71.5,49C 70.5987,54.7316 69.5987,54.8983 68.5,49.5C 68.8076,47.076 68.4742,44.7427 67.5,42.5C 64.1331,40.7745 60.7997,39.1079 57.5,37.5C 57.5,37.1667 57.5,36.8333 57.5,36.5C 60.8333,36.5 64.1667,36.5 67.5,36.5C 67.5979,34.4471 66.9313,32.7804 65.5,31.5C 64.2774,28.7261 62.7774,26.0594 61,23.5C 60.3658,20.4453 60.5325,17.4453 61.5,14.5 Z"/></g>
<g><path style="opacity:1" fill="#473737" d="M 56.5,36.5 C 56.3284,37.4916 56.6618,38.1583 57.5,38.5C 58.038,40.1172 58.3713,41.7839 58.5,43.5C 54.7579,43.0733 51.0912,42.5733 47.5,42C 49.8583,43.2755 52.1916,44.4422 54.5,45.5C 48.5,45.5 42.5,45.5 36.5,45.5C 35.0532,44.8658 34.3866,43.6991 34.5,42C 34.7728,40.4672 35.1062,38.9672 35.5,37.5C 36.1667,37.5 36.5,37.1667 36.5,36.5C 38.1484,37.7772 39.9817,38.7772 42,39.5C 43.7855,36.0423 45.1189,32.3756 46,28.5C 47.95,31.948 49.45,35.6147 50.5,39.5C 52.5266,38.4867 54.5266,37.4867 56.5,36.5 Z"/></g>
<g><path style="opacity:1" fill="#bcb3ea" d="M 18.5,48.5 C 17.8466,47.1932 17.1799,45.8599 16.5,44.5C 19.0938,42.2752 20.7605,39.6085 21.5,36.5C 22.2679,35.7375 22.7679,34.7375 23,33.5C 23.8699,34.1079 24.3699,34.9412 24.5,36C 22.9465,40.0468 21.9465,44.2135 21.5,48.5C 20.5,48.5 19.5,48.5 18.5,48.5 Z"/></g>
<g><path style="opacity:1" fill="#9ca9af" d="M 34.5,50.5 C 33.8333,51.1667 33.1667,51.8333 32.5,52.5C 31.1667,52.1667 29.8333,51.8333 28.5,51.5C 24.2999,50.425 22.7999,47.7583 24,43.5C 27.2852,40.9435 30.7852,39.1102 34.5,38C 31.3172,41.0155 28.3172,44.1822 25.5,47.5C 27.7308,47.8867 30.0641,48.0534 32.5,48C 33.756,48.4169 34.4226,49.2502 34.5,50.5 Z"/></g>
<g><path style="opacity:1" fill="#9daaae" d="M 57.5,38.5 C 57.5,38.1667 57.5,37.8333 57.5,37.5C 60.7997,39.1079 64.1331,40.7745 67.5,42.5C 68.4742,44.7427 68.8076,47.076 68.5,49.5C 67.2905,49.9321 66.2905,50.5987 65.5,51.5C 64.0413,51.4326 62.7079,51.7659 61.5,52.5C 61.1667,52.5 60.8333,52.5 60.5,52.5C 59.7095,51.5987 58.7095,50.9321 57.5,50.5C 58.2495,48.7538 59.5828,47.7538 61.5,47.5C 63.4731,48.3311 65.4731,48.4978 67.5,48C 64.955,43.9538 61.6217,40.7871 57.5,38.5 Z"/></g>
<g><path style="opacity:1" fill="#8a8db9" d="M 24.5,25.5 C 26.0739,27.1016 26.7406,29.1016 26.5,31.5C 25.962,33.1172 25.6287,34.7839 25.5,36.5C 28.8333,36.5 32.1667,36.5 35.5,36.5C 35.5,36.8333 35.5,37.1667 35.5,37.5C 35.1062,38.9672 34.7728,40.4672 34.5,42C 34.3866,43.6991 35.0532,44.8658 36.5,45.5C 36.5,46.8333 36.5,48.1667 36.5,49.5C 43.1667,49.5 49.8333,49.5 56.5,49.5C 56.5,48.1667 56.5,46.8333 56.5,45.5C 57.5,45.1667 58.1667,44.5 58.5,43.5C 58.3713,41.7839 58.038,40.1172 57.5,38.5C 61.6217,40.7871 64.955,43.9538 67.5,48C 65.4731,48.4978 63.4731,48.3311 61.5,47.5C 59.5828,47.7538 58.2495,48.7538 57.5,50.5C 55.1667,50.5 52.8333,50.5 50.5,50.5C 47.5,50.5 44.5,50.5 41.5,50.5C 40.1667,50.5 38.8333,50.5 37.5,50.5C 36.8333,50.5 36.1667,50.5 35.5,50.5C 35.1667,50.5 34.8333,50.5 34.5,50.5C 34.4226,49.2502 33.756,48.4169 32.5,48C 30.0641,48.0534 27.7308,47.8867 25.5,47.5C 28.3172,44.1822 31.3172,41.0155 34.5,38C 30.7852,39.1102 27.2852,40.9435 24,43.5C 22.7999,47.7583 24.2999,50.425 28.5,51.5C 29.075,53.4113 30.075,55.078 31.5,56.5C 29.4564,59.4185 27.7897,62.5851 26.5,66C 27.8031,68.7435 28.8031,71.5768 29.5,74.5C 29.5,76.1667 29.5,77.8333 29.5,79.5C 28.8501,79.8039 28.1835,80.1373 27.5,80.5C 26.5726,78.8872 25.7393,77.2205 25,75.5C 24.6667,75.8333 24.3333,76.1667 24,76.5C 23.9814,73.6924 22.9814,71.3591 21,69.5C 20.2042,66.9615 20.3709,64.6282 21.5,62.5C 21.2245,68.0127 22.5578,68.6793 25.5,64.5C 25.2427,62.3076 24.2427,60.6409 22.5,59.5C 22.0159,55.5304 20.6825,51.8637 18.5,48.5C 19.5,48.5 20.5,48.5 21.5,48.5C 21.9465,44.2135 22.9465,40.0468 24.5,36C 24.3699,34.9412 23.8699,34.1079 23,33.5C 22.7679,34.7375 22.2679,35.7375 21.5,36.5C 21.8944,32.6528 22.8944,28.9861 24.5,25.5 Z"/></g>
<g><path style="opacity:1" fill="#cccacc" d="M 36.5,45.5 C 42.5,45.5 48.5,45.5 54.5,45.5C 55.1667,45.5 55.8333,45.5 56.5,45.5C 56.5,46.8333 56.5,48.1667 56.5,49.5C 49.8333,49.5 43.1667,49.5 36.5,49.5C 36.5,48.1667 36.5,46.8333 36.5,45.5 Z"/></g>
<g><path style="opacity:1" fill="#443159" d="M 58.5,43.5 C 58.1667,44.5 57.5,45.1667 56.5,45.5C 55.8333,45.5 55.1667,45.5 54.5,45.5C 52.1916,44.4422 49.8583,43.2755 47.5,42C 51.0912,42.5733 54.7579,43.0733 58.5,43.5 Z"/></g>
<g><path style="opacity:1" fill="#1b0a8e" d="M 34.5,50.5 C 34.8333,50.5 35.1667,50.5 35.5,50.5C 36.0307,54.7119 35.0307,55.3785 32.5,52.5C 33.1667,51.8333 33.8333,51.1667 34.5,50.5 Z"/></g>
<g><path style="opacity:1" fill="#322759" d="M 35.5,50.5 C 36.1667,50.5 36.8333,50.5 37.5,50.5C 40.8051,53.2332 40.8051,55.5666 37.5,57.5C 35.8311,55.3382 33.8311,55.0048 31.5,56.5C 30.075,55.078 29.075,53.4113 28.5,51.5C 29.8333,51.8333 31.1667,52.1667 32.5,52.5C 35.0307,55.3785 36.0307,54.7119 35.5,50.5 Z"/></g>
<g><path style="opacity:1" fill="#281d54" d="M 60.5,52.5 C 60.8333,52.5 61.1667,52.5 61.5,52.5C 61.5,53.8333 61.5,55.1667 61.5,56.5C 61.1667,56.5 60.8333,56.5 60.5,56.5C 59.2905,56.0679 58.2905,55.4013 57.5,54.5C 58.7095,54.0679 59.7095,53.4013 60.5,52.5 Z"/></g>
<g><path style="opacity:1" fill="#4c1f8a" d="M 37.5,50.5 C 38.8333,50.5 40.1667,50.5 41.5,50.5C 44.6883,56.9564 47.6883,56.9564 50.5,50.5C 52.8333,50.5 55.1667,50.5 57.5,50.5C 58.7095,50.9321 59.7095,51.5987 60.5,52.5C 59.7095,53.4013 58.7095,54.0679 57.5,54.5C 56.8423,53.6016 56.1757,52.6016 55.5,51.5C 54.0186,52.4803 52.6853,53.647 51.5,55C 52.6853,56.353 54.0186,57.5197 55.5,58.5C 55.0431,59.2975 54.3764,59.6309 53.5,59.5C 52.8333,59.1667 52.1667,58.8333 51.5,58.5C 51.3893,57.8826 51.056,57.3826 50.5,57C 49.1667,56.8333 47.8333,56.6667 46.5,56.5C 44.1175,56.361 42.1175,57.0277 40.5,58.5C 39.5416,58.9528 38.7083,59.6195 38,60.5C 37.5172,59.552 37.3505,58.552 37.5,57.5C 40.8051,55.5666 40.8051,53.2332 37.5,50.5 Z"/></g>
<g><path style="opacity:1" fill="#3d265f" d="M 41.5,50.5 C 44.5,50.5 47.5,50.5 50.5,50.5C 47.6883,56.9564 44.6883,56.9564 41.5,50.5 Z"/></g>
<g><path style="opacity:1" fill="#041639" d="M 37.5,57.5 C 37.3505,58.552 37.5172,59.552 38,60.5C 38.7083,59.6195 39.5416,58.9528 40.5,58.5C 42.153,58.6596 43.4863,59.3263 44.5,60.5C 39.9731,60.6928 37.3065,63.0262 36.5,67.5C 35.3995,68.6049 34.7329,69.9382 34.5,71.5C 33.1154,72.5736 31.9487,73.9069 31,75.5C 30.6174,74.944 30.1174,74.6107 29.5,74.5C 28.8031,71.5768 27.8031,68.7435 26.5,66C 27.7897,62.5851 29.4564,59.4185 31.5,56.5C 33.8311,55.0048 35.8311,55.3382 37.5,57.5 Z"/></g>
<g><path style="opacity:1" fill="#9fa6d7" d="M 72.5,39.5 C 73.5845,41.3186 74.9178,42.9853 76.5,44.5C 74.3569,48.9236 72.0235,53.2569 69.5,57.5C 71.0942,60.9913 71.7609,64.658 71.5,68.5C 69.6675,67.7515 68.0009,66.7515 66.5,65.5C 66.5,65.1667 66.5,64.8333 66.5,64.5C 65.8005,60.2022 65.4672,55.8689 65.5,51.5C 66.2905,50.5987 67.2905,49.9321 68.5,49.5C 69.5987,54.8983 70.5987,54.7316 71.5,49C 70.2473,45.1673 69.414,41.334 69,37.5C 69.8159,38.8228 70.9826,39.4894 72.5,39.5 Z"/></g>
<g><path style="opacity:1" fill="#787c99" d="M 65.5,51.5 C 65.4672,55.8689 65.8005,60.2022 66.5,64.5C 64.5879,62.3428 62.9213,60.0094 61.5,57.5C 61.5,57.1667 61.5,56.8333 61.5,56.5C 61.5,55.1667 61.5,53.8333 61.5,52.5C 62.7079,51.7659 64.0413,51.4326 65.5,51.5 Z"/></g>
<g><path style="opacity:1" fill="#3f2d57" d="M 51.5,58.5 C 49.901,58.2322 48.5676,58.5655 47.5,59.5C 46.391,59.5569 45.391,59.8902 44.5,60.5C 43.4863,59.3263 42.153,58.6596 40.5,58.5C 42.1175,57.0277 44.1175,56.361 46.5,56.5C 47.8333,56.6667 49.1667,56.8333 50.5,57C 51.056,57.3826 51.3893,57.8826 51.5,58.5 Z"/></g>
<g><path style="opacity:1" fill="#5d2091" d="M 60.5,56.5 C 60.8333,56.5 61.1667,56.5 61.5,56.5C 61.5,56.8333 61.5,57.1667 61.5,57.5C 60.8333,59.8333 60.1667,62.1667 59.5,64.5C 58.2905,64.9321 57.2905,65.5987 56.5,66.5C 55.6618,66.1583 55.3284,65.4916 55.5,64.5C 55.3433,63.1266 55.51,61.7932 56,60.5C 57.6667,59.2668 59.1667,57.9335 60.5,56.5 Z"/></g>
<g><path style="opacity:1" fill="#928a84" d="M 51.5,58.5 C 52.1667,58.8333 52.8333,59.1667 53.5,59.5C 54.2341,60.7079 54.5674,62.0413 54.5,63.5C 53.4274,62.3421 52.2607,62.3421 51,63.5C 49.5979,62.3551 48.4312,61.0217 47.5,59.5C 48.5676,58.5655 49.901,58.2322 51.5,58.5 Z"/></g>
<g><path style="opacity:1" fill="#715a80" d="M 61.5,57.5 C 62.9213,60.0094 64.5879,62.3428 66.5,64.5C 66.5,64.8333 66.5,65.1667 66.5,65.5C 64.0971,65.552 61.7638,65.2186 59.5,64.5C 60.1667,62.1667 60.8333,59.8333 61.5,57.5 Z"/></g>
<g><path style="opacity:1" fill="#6e547b" d="M 57.5,54.5 C 58.2905,55.4013 59.2905,56.0679 60.5,56.5C 59.1667,57.9335 57.6667,59.2668 56,60.5C 55.51,61.7932 55.3433,63.1266 55.5,64.5C 54.8333,64.5 54.5,64.1667 54.5,63.5C 54.5674,62.0413 54.2341,60.7079 53.5,59.5C 54.3764,59.6309 55.0431,59.2975 55.5,58.5C 54.0186,57.5197 52.6853,56.353 51.5,55C 52.6853,53.647 54.0186,52.4803 55.5,51.5C 56.1757,52.6016 56.8423,53.6016 57.5,54.5 Z"/></g>
<g><path style="opacity:1" fill="#bdbdee" d="M 22.5,59.5 C 24.2427,60.6409 25.2427,62.3076 25.5,64.5C 22.5578,68.6793 21.2245,68.0127 21.5,62.5C 21.5569,61.391 21.8902,60.391 22.5,59.5 Z"/></g>
<g><path style="opacity:1" fill="#979bb1" d="M 47.5,59.5 C 48.4312,61.0217 49.5979,62.3551 51,63.5C 52.2607,62.3421 53.4274,62.3421 54.5,63.5C 54.5,64.1667 54.8333,64.5 55.5,64.5C 55.3284,65.4916 55.6618,66.1583 56.5,66.5C 56.8769,68.258 57.5435,69.9246 58.5,71.5C 58.1445,72.5223 57.4778,73.189 56.5,73.5C 56.1667,73.5 55.8333,73.5 55.5,73.5C 53.5453,71.2944 51.212,69.6278 48.5,68.5C 50.5323,67.9522 51.5323,66.6188 51.5,64.5C 49.0274,64.0882 47.6941,65.0882 47.5,67.5C 46.391,67.5569 45.391,67.8902 44.5,68.5C 43.8333,68.5 43.5,68.1667 43.5,67.5C 44.5701,65.0267 43.5701,63.6934 40.5,63.5C 40.5,64.8333 40.5,66.1667 40.5,67.5C 40.6309,68.3764 40.2975,69.0431 39.5,69.5C 38.4822,68.8075 37.4822,68.1408 36.5,67.5C 37.3065,63.0262 39.9731,60.6928 44.5,60.5C 45.391,59.8902 46.391,59.5569 47.5,59.5 Z"/></g>
<g><path style="opacity:1" fill="#43305d" d="M 48.5,68.5 C 47.8333,68.5 47.5,68.1667 47.5,67.5C 47.6941,65.0882 49.0274,64.0882 51.5,64.5C 51.5323,66.6188 50.5323,67.9522 48.5,68.5 Z"/></g>
<g><path style="opacity:1" fill="#52446a" d="M 43.5,67.5 C 42.5,67.5 41.5,67.5 40.5,67.5C 40.5,66.1667 40.5,64.8333 40.5,63.5C 43.5701,63.6934 44.5701,65.0267 43.5,67.5 Z"/></g>
<g><path style="opacity:1" fill="#a1acaf" d="M 36.5,67.5 C 37.4822,68.1408 38.4822,68.8075 39.5,69.5C 40.2975,69.0431 40.6309,68.3764 40.5,67.5C 41.5,67.5 42.5,67.5 43.5,67.5C 43.5,68.1667 43.8333,68.5 44.5,68.5C 41.6733,69.4188 39.34,71.0855 37.5,73.5C 35.9731,73.573 34.9731,72.9063 34.5,71.5C 34.7329,69.9382 35.3995,68.6049 36.5,67.5 Z"/></g>
<g><path style="opacity:1" fill="#8682b7" d="M 66.5,65.5 C 68.0009,66.7515 69.6675,67.7515 71.5,68.5C 69.9304,70.8511 69.0971,73.5177 69,76.5C 68.586,76.0426 68.086,75.7093 67.5,75.5C 66.5726,77.1128 65.7393,78.7795 65,80.5C 64.3292,79.7476 63.4959,79.4142 62.5,79.5C 62.4606,78.4168 62.1272,77.4168 61.5,76.5C 62.6302,75.3777 63.2969,74.0443 63.5,72.5C 64.8474,73.0283 66.1807,73.195 67.5,73C 66.565,70.6194 66.2317,68.1194 66.5,65.5 Z"/></g>
<g><path style="opacity:1" fill="#8b7eab" d="M 47.5,67.5 C 47.5,68.1667 47.8333,68.5 48.5,68.5C 51.212,69.6278 53.5453,71.2944 55.5,73.5C 55.631,74.2389 55.4643,74.9056 55,75.5C 54.3292,74.7476 53.4959,74.4142 52.5,74.5C 52.1583,73.6618 51.4916,73.3284 50.5,73.5C 50.1667,73.5 49.8333,73.5 49.5,73.5C 47.5,72.1667 45.5,72.1667 43.5,73.5C 43.1667,73.5 42.8333,73.5 42.5,73.5C 41.8333,73.5 41.1667,73.5 40.5,73.5C 39.5416,73.9528 38.7083,74.6195 38,75.5C 37.5357,74.9056 37.369,74.2389 37.5,73.5C 39.34,71.0855 41.6733,69.4188 44.5,68.5C 45.391,67.8902 46.391,67.5569 47.5,67.5 Z"/></g>
<g><path style="opacity:1" fill="#6a6b81" d="M 59.5,64.5 C 61.7638,65.2186 64.0971,65.552 66.5,65.5C 66.2317,68.1194 66.565,70.6194 67.5,73C 66.1807,73.195 64.8474,73.0283 63.5,72.5C 62.1667,72.5 60.8333,72.5 59.5,72.5C 59.3325,82.3619 58.3325,82.6952 56.5,73.5C 57.4778,73.189 58.1445,72.5223 58.5,71.5C 57.5435,69.9246 56.8769,68.258 56.5,66.5C 57.2905,65.5987 58.2905,64.9321 59.5,64.5 Z"/></g>
<g><path style="opacity:1" fill="#5e2088" d="M 49.5,73.5 C 47.2975,77.1139 45.2975,77.1139 43.5,73.5C 45.5,72.1667 47.5,72.1667 49.5,73.5 Z"/></g>
<g><path style="opacity:1" fill="#5d5d6b" d="M 34.5,71.5 C 34.9731,72.9063 35.9731,73.573 37.5,73.5C 37.369,74.2389 37.5357,74.9056 38,75.5C 38.7083,74.6195 39.5416,73.9528 40.5,73.5C 40.8432,75.4832 40.1765,76.8166 38.5,77.5C 36.744,78.5521 36.0773,80.2188 36.5,82.5C 35.2652,82.7214 34.2652,83.3881 33.5,84.5C 32.7189,83.2713 32.2189,81.938 32,80.5C 31.3292,79.7476 30.4959,79.4142 29.5,79.5C 29.5,77.8333 29.5,76.1667 29.5,74.5C 30.1174,74.6107 30.6174,74.944 31,75.5C 31.9487,73.9069 33.1154,72.5736 34.5,71.5 Z"/></g>
<g><path style="opacity:1" fill="#402774" d="M 40.5,73.5 C 41.1667,73.5 41.8333,73.5 42.5,73.5C 42.5,74.8333 42.5,76.1667 42.5,77.5C 45.1667,77.5 47.8333,77.5 50.5,77.5C 50.5,76.1667 50.5,74.8333 50.5,73.5C 51.4916,73.3284 52.1583,73.6618 52.5,74.5C 52.2627,75.791 52.596,76.791 53.5,77.5C 48.5,78.8333 43.5,78.8333 38.5,77.5C 40.1765,76.8166 40.8432,75.4832 40.5,73.5 Z"/></g>
<g><path style="opacity:1" fill="#293459" d="M 42.5,73.5 C 42.8333,73.5 43.1667,73.5 43.5,73.5C 45.2975,77.1139 47.2975,77.1139 49.5,73.5C 49.8333,73.5 50.1667,73.5 50.5,73.5C 50.5,74.8333 50.5,76.1667 50.5,77.5C 47.8333,77.5 45.1667,77.5 42.5,77.5C 42.5,76.1667 42.5,74.8333 42.5,73.5 Z"/></g>
<g><path style="opacity:1" fill="#5a2897" d="M 38.5,77.5 C 43.5,78.8333 48.5,78.8333 53.5,77.5C 54.1667,77.5 54.8333,77.5 55.5,77.5C 55.1429,82.8772 52.1429,85.2105 46.5,84.5C 43.0314,84.4535 39.698,83.7868 36.5,82.5C 36.0773,80.2188 36.744,78.5521 38.5,77.5 Z"/></g>
<g><path style="opacity:1" fill="#6c6968" d="M 63.5,72.5 C 63.2969,74.0443 62.6302,75.3777 61.5,76.5C 62.1272,77.4168 62.4606,78.4168 62.5,79.5C 62.1433,81.5891 61.4767,83.5891 60.5,85.5C 59.8165,85.1373 59.1499,84.8039 58.5,84.5C 57.1311,82.2677 56.1311,79.9344 55.5,77.5C 54.8333,77.5 54.1667,77.5 53.5,77.5C 52.596,76.791 52.2627,75.791 52.5,74.5C 53.4959,74.4142 54.3292,74.7476 55,75.5C 55.4643,74.9056 55.631,74.2389 55.5,73.5C 55.8333,73.5 56.1667,73.5 56.5,73.5C 58.3325,82.6952 59.3325,82.3619 59.5,72.5C 60.8333,72.5 62.1667,72.5 63.5,72.5 Z"/></g>
<g><path style="opacity:1" fill="#2c2261" d="M 55.5,77.5 C 56.1311,79.9344 57.1311,82.2677 58.5,84.5C 57.9489,87.0896 56.6155,87.7563 54.5,86.5C 51.7238,87.0891 49.3904,88.4224 47.5,90.5C 46.5344,88.604 46.2011,86.604 46.5,84.5C 52.1429,85.2105 55.1429,82.8772 55.5,77.5 Z"/></g>
</svg>
