<?xml version="1.0" encoding="UTF-8"?>
<!DOCTYPE svg PUBLIC "-//W3C//DTD SVG 1.1//EN" "http://www.w3.org/Graphics/SVG/1.1/DTD/svg11.dtd">
<svg xmlns="http://www.w3.org/2000/svg" version="1.1" width="96px" height="96px" style="shape-rendering:geometricPrecision; text-rendering:geometricPrecision; image-rendering:optimizeQuality; fill-rule:evenodd; clip-rule:evenodd" xmlns:xlink="http://www.w3.org/1999/xlink">
<g><path style="opacity:0.815" fill="#fbfbfb" d="M 37.5,-0.5 C 44.1667,-0.5 50.8333,-0.5 57.5,-0.5C 77.1667,5.16667 89.8333,17.8333 95.5,37.5C 95.5,44.1667 95.5,50.8333 95.5,57.5C 89.8333,77.1667 77.1667,89.8333 57.5,95.5C 50.8333,95.5 44.1667,95.5 37.5,95.5C 17.8333,89.8333 5.16667,77.1667 -0.5,57.5C -0.5,50.8333 -0.5,44.1667 -0.5,37.5C 5.16667,17.8333 17.8333,5.16667 37.5,-0.5 Z"/></g>
<g><path style="opacity:1" fill="#e2e3e3" d="M 39.5,2.5 C 44.0665,1.20268 48.7331,1.20268 53.5,2.5C 53.0825,3.22158 52.4158,3.72158 51.5,4C 63.3716,25.3101 75.7049,46.1435 88.5,66.5C 87.3429,70.9757 85.0095,74.6423 81.5,77.5C 81.19,76.2617 80.69,76.2617 80,77.5C 79.2935,75.9194 78.4601,74.4194 77.5,73C 70.1667,72.6667 62.8333,72.3333 55.5,72C 64.0101,71.8294 72.3434,71.3294 80.5,70.5C 81.5983,69.3991 81.765,68.0657 81,66.5C 77.5447,59.7529 73.7114,53.2529 69.5,47C 68.5,46.3333 67.5,46.3333 66.5,47C 64.9415,49.0519 63.6082,51.2185 62.5,53.5C 60.9826,53.4894 59.8159,52.8228 59,51.5C 57.2494,49.5101 56.2494,47.1768 56,44.5C 55.5814,45.6721 54.9147,46.6721 54,47.5C 53.6012,47.2716 53.4346,46.9382 53.5,46.5C 55.0672,43.0333 56.9005,39.6999 59,36.5C 59.6667,34.8333 59.6667,33.1667 59,31.5C 56,26.1667 53,20.8333 50,15.5C 48.4443,13.3652 46.6109,13.0319 44.5,14.5C 44.9003,12.6233 45.9003,11.1233 47.5,10C 46.8883,7.94233 45.8883,6.10899 44.5,4.5C 45.376,3.74917 46.376,3.24917 47.5,3C 44.854,2.50258 42.1873,2.33591 39.5,2.5 Z"/></g>
<g><path style="opacity:1" fill="#eeeeee" d="M 53.5,2.5 C 58.645,2.63015 63.3117,4.13015 67.5,7C 67.1667,7.33333 66.8333,7.66667 66.5,8C 74.6189,22.406 83.1189,36.5726 92,50.5C 93.0192,56.4126 91.8526,61.7459 88.5,66.5C 75.7049,46.1435 63.3716,25.3101 51.5,4C 52.4158,3.72158 53.0825,3.22158 53.5,2.5 Z"/></g>
<g><path style="opacity:1" fill="#cbcbcb" d="M 39.5,2.5 C 42.1873,2.33591 44.854,2.50258 47.5,3C 46.376,3.24917 45.376,3.74917 44.5,4.5C 45.8883,6.10899 46.8883,7.94233 47.5,10C 45.9003,11.1233 44.9003,12.6233 44.5,14.5C 42.1005,19.6318 39.4338,24.6318 36.5,29.5C 34.5146,32.7976 32.5146,36.1309 30.5,39.5C 27.2412,31.1673 22.9078,23.0007 17.5,15C 18.5,14 19.5,13 20.5,12C 20.2716,11.6012 19.9382,11.4346 19.5,11.5C 25.211,6.58742 31.8777,3.58742 39.5,2.5 Z"/></g>
<g><path style="opacity:1" fill="#bababa" d="M 19.5,11.5 C 19.9382,11.4346 20.2716,11.6012 20.5,12C 19.5,13 18.5,14 17.5,15C 22.9078,23.0007 27.2412,31.1673 30.5,39.5C 29.0869,42.6612 27.4203,45.6612 25.5,48.5C 20.0825,40.8062 14.7492,32.9729 9.5,25C 10.5822,23.6703 11.2488,22.1703 11.5,20.5C 13.4302,16.8998 16.0969,13.8998 19.5,11.5 Z"/></g>
<g><path style="opacity:1" fill="#b7221c" d="M 53.5,46.5 C 52.5987,47.2905 51.9321,48.2905 51.5,49.5C 50.6014,48.0057 50.9347,46.5057 52.5,45C 51.6862,40.5728 50.1862,36.4061 48,32.5C 45.3542,29.7541 42.1876,28.5874 38.5,29C 37.526,31.6645 36.8593,31.8312 36.5,29.5C 39.4338,24.6318 42.1005,19.6318 44.5,14.5C 46.6109,13.0319 48.4443,13.3652 50,15.5C 53,20.8333 56,26.1667 59,31.5C 59.6667,33.1667 59.6667,34.8333 59,36.5C 56.9005,39.6999 55.0672,43.0333 53.5,46.5 Z"/></g>
<g><path style="opacity:1" fill="#a9a7a7" d="M 11.5,20.5 C 11.2488,22.1703 10.5822,23.6703 9.5,25C 14.7492,32.9729 20.0825,40.8062 25.5,48.5C 22.264,54.6365 18.764,60.6365 15,66.5C 14.3333,67.5 14.3333,68.5 15,69.5C 22.0787,70.4799 29.2454,70.8132 36.5,70.5C 30.0126,71.3283 23.346,71.8283 16.5,72C 19.4262,72.2178 22.2595,72.7178 25,73.5C 27.9022,79.4928 31.4022,84.9928 35.5,90C 34.552,90.4828 33.552,90.6495 32.5,90.5C 10.6511,81.1157 0.484408,64.449 2,40.5C 3.33207,32.8404 6.49874,26.1737 11.5,20.5 Z"/></g>
<g><path style="opacity:1" fill="#c72c29" d="M 51.5,49.5 C 51.0679,50.7095 50.4013,51.7095 49.5,52.5C 41.2137,58.129 33.2137,57.7956 25.5,51.5C 26.6527,50.3132 26.6527,49.3132 25.5,48.5C 27.4203,45.6612 29.0869,42.6612 30.5,39.5C 32.5146,36.1309 34.5146,32.7976 36.5,29.5C 36.8593,31.8312 37.526,31.6645 38.5,29C 42.1876,28.5874 45.3542,29.7541 48,32.5C 50.1862,36.4061 51.6862,40.5728 52.5,45C 50.9347,46.5057 50.6014,48.0057 51.5,49.5 Z"/></g>
<g><path style="opacity:1" fill="#b21b17" d="M 25.5,48.5 C 26.6527,49.3132 26.6527,50.3132 25.5,51.5C 33.2137,57.7956 41.2137,58.129 49.5,52.5C 46.5,57.8333 43.5,63.1667 40.5,68.5C 39.3951,69.6005 38.0618,70.2671 36.5,70.5C 29.2454,70.8132 22.0787,70.4799 15,69.5C 14.3333,68.5 14.3333,67.5 15,66.5C 18.764,60.6365 22.264,54.6365 25.5,48.5 Z"/></g>
<g><path style="opacity:1" fill="#c9c7c7" d="M 62.5,53.5 C 60.0117,57.8059 57.5117,62.1392 55,66.5C 54.3162,67.7839 54.4829,68.9505 55.5,70C 63.8267,70.4997 72.16,70.6664 80.5,70.5C 72.3434,71.3294 64.0101,71.8294 55.5,72C 62.8333,72.3333 70.1667,72.6667 77.5,73C 78.4601,74.4194 79.2935,75.9194 80,77.5C 80.69,76.2617 81.19,76.2617 81.5,77.5C 76.5447,83.7791 70.2113,88.1125 62.5,90.5C 61.828,89.7326 60.9947,89.0659 60,88.5C 55.3998,80.2888 50.5664,72.2888 45.5,64.5C 44.1476,65.5175 43.1476,66.8508 42.5,68.5C 41.5712,69.5498 40.9046,69.5498 40.5,68.5C 43.5,63.1667 46.5,57.8333 49.5,52.5C 50.4013,51.7095 51.0679,50.7095 51.5,49.5C 51.9321,48.2905 52.5987,47.2905 53.5,46.5C 53.4346,46.9382 53.6012,47.2716 54,47.5C 54.9147,46.6721 55.5814,45.6721 56,44.5C 56.2494,47.1768 57.2494,49.5101 59,51.5C 59.8159,52.8228 60.9826,53.4894 62.5,53.5 Z"/></g>
<g><path style="opacity:1" fill="#bc2420" d="M 80.5,70.5 C 72.16,70.6664 63.8267,70.4997 55.5,70C 54.4829,68.9505 54.3162,67.7839 55,66.5C 57.5117,62.1392 60.0117,57.8059 62.5,53.5C 63.6082,51.2185 64.9415,49.0519 66.5,47C 67.5,46.3333 68.5,46.3333 69.5,47C 73.7114,53.2529 77.5447,59.7529 81,66.5C 81.765,68.0657 81.5983,69.3991 80.5,70.5 Z"/></g>
<g><path style="opacity:1" fill="#b3b4b4" d="M 62.5,90.5 C 52.4907,94.4501 42.4907,94.4501 32.5,90.5C 33.552,90.6495 34.552,90.4828 35.5,90C 31.4022,84.9928 27.9022,79.4928 25,73.5C 22.2595,72.7178 19.4262,72.2178 16.5,72C 23.346,71.8283 30.0126,71.3283 36.5,70.5C 38.0618,70.2671 39.3951,69.6005 40.5,68.5C 40.9046,69.5498 41.5712,69.5498 42.5,68.5C 43.1476,66.8508 44.1476,65.5175 45.5,64.5C 50.5664,72.2888 55.3998,80.2888 60,88.5C 60.9947,89.0659 61.828,89.7326 62.5,90.5 Z"/></g>
</svg>
