<?xml version="1.0" encoding="UTF-8"?>
<!DOCTYPE svg PUBLIC "-//W3C//DTD SVG 1.1//EN" "http://www.w3.org/Graphics/SVG/1.1/DTD/svg11.dtd">
<svg xmlns="http://www.w3.org/2000/svg" version="1.1" width="96px" height="96px" style="shape-rendering:geometricPrecision; text-rendering:geometricPrecision; image-rendering:optimizeQuality; fill-rule:evenodd; clip-rule:evenodd" xmlns:xlink="http://www.w3.org/1999/xlink">
<g><path style="opacity:0.043" fill="#ace8ff" d="M 51.5,11.5 C 48.8333,11.5 46.1667,11.5 43.5,11.5C 43.5,10.5 43.5,9.5 43.5,8.5C 46.1667,8.5 48.8333,8.5 51.5,8.5C 51.5,9.5 51.5,10.5 51.5,11.5 Z"/></g>
<g><path style="opacity:0.475" fill="#bbedff" d="M 43.5,11.5 C 46.1667,11.5 48.8333,11.5 51.5,11.5C 51.5,12.1667 51.8333,12.5 52.5,12.5C 52.5,13.5 52.5,14.5 52.5,15.5C 50.7038,16.7658 50.3705,16.4325 51.5,14.5C 51.1924,13.6919 50.6924,13.0253 50,12.5C 48.2942,13.3079 47.4609,14.6412 47.5,16.5C 46.5,16.5 45.5,16.5 44.5,16.5C 44.5,18.1667 44.5,19.8333 44.5,21.5C 42.8333,21.5 41.1667,21.5 39.5,21.5C 39.1667,21.5 38.8333,21.5 38.5,21.5C 38.5,21.1667 38.5,20.8333 38.5,20.5C 40.1667,20.5 41.8333,20.5 43.5,20.5C 43.7148,18.8212 43.0481,17.8212 41.5,17.5C 40.0813,16.5489 38.4147,16.2155 36.5,16.5C 36.5,16.1667 36.5,15.8333 36.5,15.5C 38.5,15.5 40.5,15.5 42.5,15.5C 42.5,14.5 42.5,13.5 42.5,12.5C 43.1667,12.5 43.5,12.1667 43.5,11.5 Z"/></g>
<g><path style="opacity:0.459" fill="#bdeeff" d="M 52.5,15.5 C 54.1667,15.5 55.8333,15.5 57.5,15.5C 57.5,15.8333 57.5,16.1667 57.5,16.5C 55.901,16.2322 54.5676,16.5655 53.5,17.5C 51.9519,17.8212 51.2852,18.8212 51.5,20.5C 53.5,20.5 55.5,20.5 57.5,20.5C 57.5,20.8333 57.5,21.1667 57.5,21.5C 56.5489,22.9187 56.2155,24.5853 56.5,26.5C 54.901,26.2322 53.5676,26.5655 52.5,27.5C 52.5504,23.4028 50.8837,19.7361 47.5,16.5C 47.4609,14.6412 48.2942,13.3079 50,12.5C 50.6924,13.0253 51.1924,13.6919 51.5,14.5C 50.3705,16.4325 50.7038,16.7658 52.5,15.5 Z"/></g>
<g><path style="opacity:0.059" fill="#9de7ff" d="M 41.5,12.5 C 40.8166,14.1765 39.4832,14.8432 37.5,14.5C 38.1834,12.8235 39.5168,12.1568 41.5,12.5 Z"/></g>
<g><path style="opacity:0.024" fill="#96e5ff" d="M 53.5,12.5 C 55.4832,12.1568 56.8166,12.8235 57.5,14.5C 55.5168,14.8432 54.1834,14.1765 53.5,12.5 Z"/></g>
<g><path style="opacity:0.063" fill="#adeaff" d="M 41.5,12.5 C 41.8333,12.5 42.1667,12.5 42.5,12.5C 42.5,13.5 42.5,14.5 42.5,15.5C 40.5,15.5 38.5,15.5 36.5,15.5C 36.5,14.8333 36.8333,14.5 37.5,14.5C 39.4832,14.8432 40.8166,14.1765 41.5,12.5 Z"/></g>
<g><path style="opacity:0.222" fill="#adebff" d="M 52.5,12.5 C 52.8333,12.5 53.1667,12.5 53.5,12.5C 54.1834,14.1765 55.5168,14.8432 57.5,14.5C 57.5,14.8333 57.5,15.1667 57.5,15.5C 55.8333,15.5 54.1667,15.5 52.5,15.5C 52.5,14.5 52.5,13.5 52.5,12.5 Z"/></g>
<g><path style="opacity:0.788" fill="#b8edff" d="M 47.5,16.5 C 50.8837,19.7361 52.5504,23.4028 52.5,27.5C 52.6068,29.3786 52.1068,29.7119 51,28.5C 50.6667,26.5 50.3333,24.5 50,22.5C 47.81,19.7514 46.1433,20.0847 45,23.5C 44.8078,25.5767 44.3078,27.5767 43.5,29.5C 42.4777,29.1445 41.811,28.4778 41.5,27.5C 43.2252,27.1575 43.7252,26.1575 43,24.5C 42.6667,23.8333 42.3333,23.1667 42,22.5C 41.3292,23.2524 40.4959,23.5858 39.5,23.5C 39.5,22.8333 39.5,22.1667 39.5,21.5C 41.1667,21.5 42.8333,21.5 44.5,21.5C 44.5,19.8333 44.5,18.1667 44.5,16.5C 45.5,16.5 46.5,16.5 47.5,16.5 Z"/></g>
<g><path style="opacity:0.096" fill="#c9f2ff" d="M 57.5,16.5 C 57.5,17.5 57.5,18.5 57.5,19.5C 55.5168,19.8432 54.1834,19.1765 53.5,17.5C 54.5676,16.5655 55.901,16.2322 57.5,16.5 Z"/></g>
<g><path style="opacity:0.022" fill="#a9e9ff" d="M 33.5,20.5 C 31.3024,20.1249 29.3024,19.4582 27.5,18.5C 29.2646,17.5386 31.2646,17.2053 33.5,17.5C 33.5,18.5 33.5,19.5 33.5,20.5 Z"/></g>
<g><path style="opacity:0.154" fill="#caf1ff" d="M 36.5,16.5 C 38.4147,16.2155 40.0813,16.5489 41.5,17.5C 41.1788,19.0481 40.1788,19.7148 38.5,19.5C 37.5987,18.7095 36.9321,17.7095 36.5,16.5 Z"/></g>
<g><path style="opacity:0.397" fill="#c4f0ff" d="M 41.5,17.5 C 43.0481,17.8212 43.7148,18.8212 43.5,20.5C 41.8333,20.5 40.1667,20.5 38.5,20.5C 38.5,20.1667 38.5,19.8333 38.5,19.5C 40.1788,19.7148 41.1788,19.0481 41.5,17.5 Z"/></g>
<g><path style="opacity:0.336" fill="#c4f0ff" d="M 53.5,17.5 C 54.1834,19.1765 55.5168,19.8432 57.5,19.5C 57.5,19.8333 57.5,20.1667 57.5,20.5C 55.5,20.5 53.5,20.5 51.5,20.5C 51.2852,18.8212 51.9519,17.8212 53.5,17.5 Z"/></g>
<g><path style="opacity:0.028" fill="#a8eaff" d="M 67.5,18.5 C 65.8984,20.0739 63.8984,20.7406 61.5,20.5C 61.5,19.5 61.5,18.5 61.5,17.5C 63.7354,17.2053 65.7354,17.5386 67.5,18.5 Z"/></g>
<g><path style="opacity:0.359" fill="#beeeff" d="M 23.5,18.5 C 23.5433,21.0878 24.5433,23.2544 26.5,25C 25.2721,26.4902 25.2721,27.9902 26.5,29.5C 24.5,29.5 22.5,29.5 20.5,29.5C 21.6009,27.0121 20.9343,25.0121 18.5,23.5C 17.8333,19.5 19.5,17.8333 23.5,18.5 Z"/></g>
<g><path style="opacity:0.573" fill="#b9edff" d="M 23.5,18.5 C 24.1667,18.5 24.8333,18.5 25.5,18.5C 25.5774,19.7498 26.244,20.5831 27.5,21C 29.1341,21.4935 30.8008,21.6602 32.5,21.5C 32.1281,24.0217 32.9614,26.0217 35,27.5C 36.3671,26.4757 37.2005,26.9757 37.5,29C 37.1667,29.5 36.8333,30 36.5,30.5C 34.1123,28.6395 31.4456,27.3061 28.5,26.5C 27.7084,27.6998 27.7084,29.0331 28.5,30.5C 27.8333,30.1667 27.1667,29.8333 26.5,29.5C 25.2721,27.9902 25.2721,26.4902 26.5,25C 24.5433,23.2544 23.5433,21.0878 23.5,18.5 Z"/></g>
<g><path style="opacity:0.533" fill="#b2ecff" d="M 25.5,18.5 C 26.1667,18.5 26.8333,18.5 27.5,18.5C 29.3024,19.4582 31.3024,20.1249 33.5,20.5C 34.3382,20.8417 34.6716,21.5084 34.5,22.5C 34.5,23.5 34.5,24.5 34.5,25.5C 36.1788,25.7148 37.1788,25.0481 37.5,23.5C 37.3284,22.5084 37.6618,21.8417 38.5,21.5C 38.8333,21.5 39.1667,21.5 39.5,21.5C 39.5,22.1667 39.5,22.8333 39.5,23.5C 38.596,24.209 38.2627,25.209 38.5,26.5C 39.791,26.2627 40.791,26.596 41.5,27.5C 41.811,28.4778 42.4777,29.1445 43.5,29.5C 44.3078,27.5767 44.8078,25.5767 45,23.5C 46.1433,20.0847 47.81,19.7514 50,22.5C 50.3333,24.5 50.6667,26.5 51,28.5C 52.1068,29.7119 52.6068,29.3786 52.5,27.5C 53.5676,26.5655 54.901,26.2322 56.5,26.5C 56.2155,24.5853 56.5489,22.9187 57.5,21.5C 57.3691,22.3764 57.7025,23.0431 58.5,23.5C 59.735,22.6602 60.735,21.6602 61.5,20.5C 63.8984,20.7406 65.8984,20.0739 67.5,18.5C 68.1667,18.5 68.8333,18.5 69.5,18.5C 68.9653,20.4456 67.632,21.4456 65.5,21.5C 65.1667,21.5 64.8333,21.5 64.5,21.5C 62.0311,22.6067 61.0311,24.6067 61.5,27.5C 63.1667,27.5 64.8333,27.5 66.5,27.5C 66.5,28.5 66.5,29.5 66.5,30.5C 65.8333,31.8333 65.1667,33.1667 64.5,34.5C 63.5,35.1667 62.5,35.8333 61.5,36.5C 62.0476,34.6064 63.0476,32.9397 64.5,31.5C 64.1924,30.6919 63.6924,30.0253 63,29.5C 60.648,31.0303 58.4813,32.6969 56.5,34.5C 55.8333,34.8333 55.1667,35.1667 54.5,35.5C 55.673,31.7431 54.3396,30.7431 50.5,32.5C 48.8483,22.1584 46.8483,21.9918 44.5,32C 44.5699,32.7648 44.9033,33.2648 45.5,33.5C 45.5,34.1667 45.5,34.8333 45.5,35.5C 45.1667,35.5 44.8333,35.5 44.5,35.5C 44.1667,34.8333 43.8333,34.1667 43.5,33.5C 42.9976,31.9153 41.9976,31.4153 40.5,32C 40.0338,33.2988 40.0338,34.7988 40.5,36.5C 40.1667,36.5 39.8333,36.5 39.5,36.5C 39.5858,35.5041 39.2524,34.6708 38.5,34C 36.4732,32.1207 34.1398,30.954 31.5,30.5C 31.7036,32.6854 32.3702,34.6854 33.5,36.5C 32.8333,36.1667 32.1667,35.8333 31.5,35.5C 30.3127,33.9275 29.3127,32.2608 28.5,30.5C 27.7084,29.0331 27.7084,27.6998 28.5,26.5C 31.4456,27.3061 34.1123,28.6395 36.5,30.5C 36.8333,30 37.1667,29.5 37.5,29C 37.2005,26.9757 36.3671,26.4757 35,27.5C 32.9614,26.0217 32.1281,24.0217 32.5,21.5C 30.8008,21.6602 29.1341,21.4935 27.5,21C 26.244,20.5831 25.5774,19.7498 25.5,18.5 Z"/></g>
<g><path style="opacity:0.094" fill="#bbecff" d="M 69.5,18.5 C 71.5273,18.3379 73.5273,18.5045 75.5,19C 76.3366,20.0113 76.67,21.1779 76.5,22.5C 76.1667,22.5 75.8333,22.5 75.5,22.5C 73.0799,22.2924 70.7466,22.6258 68.5,23.5C 67.2613,23.0576 66.2613,22.3909 65.5,21.5C 67.632,21.4456 68.9653,20.4456 69.5,18.5 Z"/></g>
<g><path style="opacity:0.55" fill="#beeeff" d="M 64.5,21.5 C 64.8333,21.5 65.1667,21.5 65.5,21.5C 66.2613,22.3909 67.2613,23.0576 68.5,23.5C 70.7466,22.6258 73.0799,22.2924 75.5,22.5C 75.1231,24.258 74.4565,25.9246 73.5,27.5C 74.6888,28.4287 76.0222,28.762 77.5,28.5C 77.5,29.1667 77.5,29.8333 77.5,30.5C 75.2133,30.2761 73.0466,29.6094 71,28.5C 67.8634,29.9449 67.6967,31.7783 70.5,34C 63.6459,36.2592 63.9792,37.4258 71.5,37.5C 69.7354,38.4614 67.7354,38.7947 65.5,38.5C 64.6236,38.6309 63.9569,38.2975 63.5,37.5C 64.1272,36.5832 64.4606,35.5832 64.5,34.5C 65.1667,33.1667 65.8333,31.8333 66.5,30.5C 68.4233,28.7986 68.7567,26.7986 67.5,24.5C 66.2638,25.2458 64.9305,25.5792 63.5,25.5C 63.4326,24.0413 63.7659,22.7079 64.5,21.5 Z"/></g>
<g><path style="opacity:0.068" fill="#aaeaff" d="M 34.5,22.5 C 35.609,22.5569 36.609,22.8902 37.5,23.5C 37.1788,25.0481 36.1788,25.7148 34.5,25.5C 34.5,24.5 34.5,23.5 34.5,22.5 Z"/></g>
<g><path style="opacity:0.409" fill="#bcefff" d="M 41.5,27.5 C 40.791,26.596 39.791,26.2627 38.5,26.5C 38.2627,25.209 38.596,24.209 39.5,23.5C 40.4959,23.5858 41.3292,23.2524 42,22.5C 42.3333,23.1667 42.6667,23.8333 43,24.5C 43.7252,26.1575 43.2252,27.1575 41.5,27.5 Z"/></g>
<g><path style="opacity:0.686" fill="#b8edff" d="M 64.5,21.5 C 63.7659,22.7079 63.4326,24.0413 63.5,25.5C 64.9305,25.5792 66.2638,25.2458 67.5,24.5C 68.7567,26.7986 68.4233,28.7986 66.5,30.5C 66.5,29.5 66.5,28.5 66.5,27.5C 64.8333,27.5 63.1667,27.5 61.5,27.5C 61.0311,24.6067 62.0311,22.6067 64.5,21.5 Z"/></g>
<g><path style="opacity:0.187" fill="#b7edff" d="M 18.5,23.5 C 20.9343,25.0121 21.6009,27.0121 20.5,29.5C 19.5,29.5 18.5,29.5 17.5,29.5C 17.5172,27.4352 17.8505,25.4352 18.5,23.5 Z"/></g>
<g><path style="opacity:0.756" fill="#aaeaff" d="M 50.5,32.5 C 49.6618,32.8417 49.3284,33.5084 49.5,34.5C 48.0413,34.5674 46.7079,34.2341 45.5,33.5C 44.9033,33.2648 44.5699,32.7648 44.5,32C 46.8483,21.9918 48.8483,22.1584 50.5,32.5 Z"/></g>
<g><path style="opacity:0.165" fill="#b7edff" d="M 75.5,22.5 C 75.8333,22.5 76.1667,22.5 76.5,22.5C 76.8333,24.5 77.1667,26.5 77.5,28.5C 76.0222,28.762 74.6888,28.4287 73.5,27.5C 74.4565,25.9246 75.1231,24.258 75.5,22.5 Z"/></g>
<g><path style="opacity:0.421" fill="#c6f1ff" d="M 77.5,30.5 C 76.9694,33.7794 74.9694,35.1128 71.5,34.5C 71.5,35.5 71.5,36.5 71.5,37.5C 63.9792,37.4258 63.6459,36.2592 70.5,34C 67.6967,31.7783 67.8634,29.9449 71,28.5C 73.0466,29.6094 75.2133,30.2761 77.5,30.5 Z"/></g>
<g><path style="opacity:0.389" fill="#c4f0ff" d="M 17.5,29.5 C 18.5,29.5 19.5,29.5 20.5,29.5C 22.5,29.5 24.5,29.5 26.5,29.5C 26.2969,31.0443 25.6302,32.3777 24.5,33.5C 25.9492,34.1719 27.2825,34.8386 28.5,35.5C 26.5168,35.1568 25.1834,35.8235 24.5,37.5C 24.1667,37.5 23.8333,37.5 23.5,37.5C 23.7373,36.209 23.404,35.209 22.5,34.5C 23.2341,33.2921 23.5674,31.9587 23.5,30.5C 20.9664,30.2591 19.2998,31.2591 18.5,33.5C 17.5655,32.4324 17.2322,31.099 17.5,29.5 Z"/></g>
<g><path style="opacity:0.794" fill="#abeaff" d="M 61.5,36.5 C 60.8333,36.8333 60.1667,37.1667 59.5,37.5C 59.4142,36.5041 59.7476,35.6708 60.5,35C 59.2068,34.51 57.8734,34.3433 56.5,34.5C 58.4813,32.6969 60.648,31.0303 63,29.5C 63.6924,30.0253 64.1924,30.6919 64.5,31.5C 63.0476,32.9397 62.0476,34.6064 61.5,36.5 Z"/></g>
<g><path style="opacity:0.201" fill="#c9f1ff" d="M 22.5,34.5 C 20.901,34.7678 19.5676,34.4345 18.5,33.5C 19.2998,31.2591 20.9664,30.2591 23.5,30.5C 23.5674,31.9587 23.2341,33.2921 22.5,34.5 Z"/></g>
<g><path style="opacity:0.765" fill="#aaeaff" d="M 39.5,36.5 C 38.4479,38.256 36.7812,38.9227 34.5,38.5C 34.6716,37.5084 34.3382,36.8417 33.5,36.5C 32.3702,34.6854 31.7036,32.6854 31.5,30.5C 34.1398,30.954 36.4732,32.1207 38.5,34C 39.2524,34.6708 39.5858,35.5041 39.5,36.5 Z"/></g>
<g><path style="opacity:0.672" fill="#b6eeff" d="M 54.5,35.5 C 54.5,35.8333 54.5,36.1667 54.5,36.5C 54.1667,36.5 53.8333,36.5 53.5,36.5C 53.719,35.325 53.3857,34.325 52.5,33.5C 50.8888,34.3202 50.2222,35.6536 50.5,37.5C 49.596,36.791 49.2627,35.791 49.5,34.5C 49.3284,33.5084 49.6618,32.8417 50.5,32.5C 54.3396,30.7431 55.673,31.7431 54.5,35.5 Z"/></g>
<g><path style="opacity:0.629" fill="#adebff" d="M 45.5,33.5 C 46.7079,34.2341 48.0413,34.5674 49.5,34.5C 49.2627,35.791 49.596,36.791 50.5,37.5C 51.9473,38.8852 52.9473,38.5518 53.5,36.5C 53.8333,36.5 54.1667,36.5 54.5,36.5C 54.5,37.5 54.5,38.5 54.5,39.5C 54.5,40.8333 54.5,42.1667 54.5,43.5C 53.6364,42.3117 52.6364,41.1451 51.5,40C 48.3035,39.1955 45.3035,39.3622 42.5,40.5C 41.8571,42.0764 40.8571,43.4097 39.5,44.5C 39.8432,42.5168 39.1765,41.1834 37.5,40.5C 36.5,39.8333 35.5,39.1667 34.5,38.5C 36.7812,38.9227 38.4479,38.256 39.5,36.5C 39.8333,36.5 40.1667,36.5 40.5,36.5C 41.5521,38.256 43.2188,38.9227 45.5,38.5C 45.5,37.5 45.5,36.5 45.5,35.5C 45.5,34.8333 45.5,34.1667 45.5,33.5 Z"/></g>
<g><path style="opacity:0.37" fill="#beefff" d="M 53.5,36.5 C 52.9473,38.5518 51.9473,38.8852 50.5,37.5C 50.2222,35.6536 50.8888,34.3202 52.5,33.5C 53.3857,34.325 53.719,35.325 53.5,36.5 Z"/></g>
<g><path style="opacity:0.486" fill="#bfefff" d="M 26.5,29.5 C 27.1667,29.8333 27.8333,30.1667 28.5,30.5C 29.3127,32.2608 30.3127,33.9275 31.5,35.5C 32.0283,36.8474 32.195,38.1807 32,39.5C 29.3927,38.8767 26.8927,38.21 24.5,37.5C 26.4832,37.8432 27.8166,37.1765 28.5,35.5C 27.2825,34.8386 25.9492,34.1719 24.5,33.5C 25.6302,32.3777 26.2969,31.0443 26.5,29.5 Z"/></g>
<g><path style="opacity:0.488" fill="#b8edff" d="M 43.5,33.5 C 41.8235,34.1834 41.1568,35.5168 41.5,37.5C 43.1788,37.7148 44.1788,37.0481 44.5,35.5C 44.8333,35.5 45.1667,35.5 45.5,35.5C 45.5,36.5 45.5,37.5 45.5,38.5C 43.2188,38.9227 41.5521,38.256 40.5,36.5C 40.0338,34.7988 40.0338,33.2988 40.5,32C 41.9976,31.4153 42.9976,31.9153 43.5,33.5 Z"/></g>
<g><path style="opacity:0.273" fill="#c1efff" d="M 43.5,33.5 C 43.8333,34.1667 44.1667,34.8333 44.5,35.5C 44.1788,37.0481 43.1788,37.7148 41.5,37.5C 41.1568,35.5168 41.8235,34.1834 43.5,33.5 Z"/></g>
<g><path style="opacity:0.816" fill="#a7eaff" d="M 56.5,34.5 C 57.8734,34.3433 59.2068,34.51 60.5,35C 59.7476,35.6708 59.4142,36.5041 59.5,37.5C 58.3646,39.2132 56.698,39.8799 54.5,39.5C 54.5,38.5 54.5,37.5 54.5,36.5C 54.5,36.1667 54.5,35.8333 54.5,35.5C 55.1667,35.1667 55.8333,34.8333 56.5,34.5 Z"/></g>
<g><path style="opacity:0.628" fill="#b7edff" d="M 64.5,34.5 C 64.4606,35.5832 64.1272,36.5832 63.5,37.5C 63.9569,38.2975 64.6236,38.6309 65.5,38.5C 65.5,38.8333 65.5,39.1667 65.5,39.5C 63.6115,40.604 61.9448,41.9373 60.5,43.5C 60.1667,43.5 59.8333,43.5 59.5,43.5C 59.5,42.5 59.5,41.5 59.5,40.5C 58.1667,40.5 56.8333,40.5 55.5,40.5C 55.5,41.8333 55.5,43.1667 55.5,44.5C 55.1667,44.5 54.8333,44.5 54.5,44.5C 54.5,44.1667 54.5,43.8333 54.5,43.5C 54.5,42.1667 54.5,40.8333 54.5,39.5C 56.698,39.8799 58.3646,39.2132 59.5,37.5C 60.1667,37.1667 60.8333,36.8333 61.5,36.5C 62.5,35.8333 63.5,35.1667 64.5,34.5 Z"/></g>
<g><path style="opacity:0.211" fill="#cbf1ff" d="M 28.5,35.5 C 27.8166,37.1765 26.4832,37.8432 24.5,37.5C 25.1834,35.8235 26.5168,35.1568 28.5,35.5 Z"/></g>
<g><path style="opacity:0.628" fill="#b7eeff" d="M 31.5,35.5 C 32.1667,35.8333 32.8333,36.1667 33.5,36.5C 34.3382,36.8417 34.6716,37.5084 34.5,38.5C 35.5,39.1667 36.5,39.8333 37.5,40.5C 35.8212,40.2852 34.8212,40.9519 34.5,42.5C 33.5272,41.2086 32.5272,41.2086 31.5,42.5C 30.6143,41.675 30.281,40.675 30.5,39.5C 27.6122,40.0102 25.2789,39.3435 23.5,37.5C 23.8333,37.5 24.1667,37.5 24.5,37.5C 26.8927,38.21 29.3927,38.8767 32,39.5C 32.195,38.1807 32.0283,36.8474 31.5,35.5 Z"/></g>
<g><path style="opacity:0.403" fill="#b1ebff" d="M 23.5,37.5 C 25.2789,39.3435 27.6122,40.0102 30.5,39.5C 30.281,40.675 30.6143,41.675 31.5,42.5C 32.5272,41.2086 33.5272,41.2086 34.5,42.5C 34.5,42.8333 34.5,43.1667 34.5,43.5C 22.5801,45.6522 22.5801,47.6522 34.5,49.5C 29.9262,50.1163 25.2596,49.6163 20.5,48C 19.5878,45.5118 20.5878,43.8452 23.5,43C 21.2056,42.8186 19.0389,41.9853 17,40.5C 16.2352,40.5699 15.7352,40.9033 15.5,41.5C 14.1304,43.1722 12.7971,44.8388 11.5,46.5C 10.5,46.5 9.5,46.5 8.5,46.5C 8.5,45.1667 8.5,43.8333 8.5,42.5C 9.83333,42.5 11.1667,42.5 12.5,42.5C 12.158,36.2142 14.658,34.8808 20,38.5C 21.1385,38.0109 22.3052,37.6775 23.5,37.5 Z"/></g>
<g><path style="opacity:0.49" fill="#b2ebff" d="M 81.5,40.5 C 78.1869,41.0448 74.8536,41.5448 71.5,42C 71.0426,42.414 70.7093,42.914 70.5,43.5C 72.5547,44.1872 74.2214,45.3539 75.5,47C 73.6854,47.7568 72.0188,48.5902 70.5,49.5C 66.9581,49.8128 63.6248,49.4794 60.5,48.5C 63.7216,48.8919 66.7216,48.3919 69.5,47C 67.0389,44.6616 64.0389,43.495 60.5,43.5C 61.9448,41.9373 63.6115,40.604 65.5,39.5C 65.5,39.1667 65.5,38.8333 65.5,38.5C 67.7354,38.7947 69.7354,38.4614 71.5,37.5C 72.1667,37.5 72.8333,37.5 73.5,37.5C 73.4176,39.2517 74.2509,40.2517 76,40.5C 77.7491,40.2517 78.5824,39.2517 78.5,37.5C 79.2506,36.4265 80.2506,36.2599 81.5,37C 82.7911,38.2917 82.7911,39.4583 81.5,40.5 Z"/></g>
<g><path style="opacity:0.064" fill="#ace9ff" d="M 73.5,37.5 C 75.0992,38.562 76.7659,38.562 78.5,37.5C 78.5824,39.2517 77.7491,40.2517 76,40.5C 74.2509,40.2517 73.4176,39.2517 73.5,37.5 Z"/></g>
<g><path style="opacity:0.286" fill="#aaeaff" d="M 65.5,39.5 C 72.1667,40.5 72.1667,41.5 65.5,42.5C 65.5,41.5 65.5,40.5 65.5,39.5 Z"/></g>
<g><path style="opacity:0.641" fill="#9ae7ff" d="M 42.5,40.5 C 45.3854,40.1936 48.0521,40.5269 50.5,41.5C 47.4669,41.1315 44.8002,41.7982 42.5,43.5C 42.5,42.5 42.5,41.5 42.5,40.5 Z"/></g>
<g><path style="opacity:0.553" fill="#b8ecff" d="M 81.5,40.5 C 82.6354,42.2132 84.302,42.8799 86.5,42.5C 86.5,43.8333 86.5,45.1667 86.5,46.5C 83.4827,44.57 80.1493,43.2367 76.5,42.5C 76.6621,44.5273 76.4955,46.5273 76,48.5C 74.6439,49.3802 73.1439,49.7135 71.5,49.5C 71.1667,49.5 70.8333,49.5 70.5,49.5C 72.0188,48.5902 73.6854,47.7568 75.5,47C 74.2214,45.3539 72.5547,44.1872 70.5,43.5C 70.7093,42.914 71.0426,42.414 71.5,42C 74.8536,41.5448 78.1869,41.0448 81.5,40.5 Z"/></g>
<g><path style="opacity:0.623" fill="#bdeeff" d="M 15.5,41.5 C 16.6431,41.9081 17.6431,42.5748 18.5,43.5C 17.3192,45.198 17.3192,46.8647 18.5,48.5C 22.1721,49.9017 25.8388,50.9017 29.5,51.5C 25.3951,51.7662 21.3951,51.2662 17.5,50C 16.5497,47.0899 14.5497,45.9232 11.5,46.5C 12.7971,44.8388 14.1304,43.1722 15.5,41.5 Z"/></g>
<g><path style="opacity:0.718" fill="#8ee4ff" d="M 50.5,41.5 C 51.3382,41.8417 51.6716,42.5084 51.5,43.5C 45.5793,41.1989 42.9127,43.1989 43.5,49.5C 42.8333,49.1667 42.1667,48.8333 41.5,48.5C 41.366,46.7085 41.6993,45.0418 42.5,43.5C 44.8002,41.7982 47.4669,41.1315 50.5,41.5 Z"/></g>
<g><path style="opacity:0.647" fill="#a3eaff" d="M 42.5,40.5 C 45.3035,39.3622 48.3035,39.1955 51.5,40C 52.6364,41.1451 53.6364,42.3117 54.5,43.5C 54.5,43.8333 54.5,44.1667 54.5,44.5C 54.5,45.8333 54.5,47.1667 54.5,48.5C 54.6162,51.9103 52.9496,53.2436 49.5,52.5C 49.5,52.1667 49.5,51.8333 49.5,51.5C 50.5,51.1667 51.1667,50.5 51.5,49.5C 54.1667,47.5 54.1667,45.5 51.5,43.5C 51.6716,42.5084 51.3382,41.8417 50.5,41.5C 48.0521,40.5269 45.3854,40.1936 42.5,40.5 Z"/></g>
<g><path style="opacity:0.522" fill="#bdeeff" d="M 86.5,46.5 C 86.5,47.1667 86.5,47.8333 86.5,48.5C 84.4496,48.0388 82.4496,47.3721 80.5,46.5C 78.8888,47.3202 78.2222,48.6536 78.5,50.5C 74.1654,50.9167 69.8321,51.4167 65.5,52C 64.6634,53.0113 64.33,54.1779 64.5,55.5C 63.2921,54.7659 61.9587,54.4326 60.5,54.5C 60.1583,53.6618 59.4916,53.3284 58.5,53.5C 57.8333,52.8333 57.1667,52.1667 56.5,51.5C 56.4701,50.5028 56.9701,49.8361 58,49.5C 62.5298,51.4442 67.0298,51.4442 71.5,49.5C 73.1439,49.7135 74.6439,49.3802 76,48.5C 76.4955,46.5273 76.6621,44.5273 76.5,42.5C 80.1493,43.2367 83.4827,44.57 86.5,46.5 Z"/></g>
<g><path style="opacity:0.734" fill="#abebff" d="M 34.5,43.5 C 34.8333,43.5 35.1667,43.5 35.5,43.5C 36.5676,44.4345 37.901,44.7678 39.5,44.5C 39.5,45.8333 39.5,47.1667 39.5,48.5C 39.1667,48.5 38.8333,48.5 38.5,48.5C 36.901,48.2322 35.5676,48.5655 34.5,49.5C 22.5801,47.6522 22.5801,45.6522 34.5,43.5 Z"/></g>
<g><path style="opacity:0.241" fill="#bdeeff" d="M 37.5,40.5 C 39.1765,41.1834 39.8432,42.5168 39.5,44.5C 37.901,44.7678 36.5676,44.4345 35.5,43.5C 35.1667,43.5 34.8333,43.5 34.5,43.5C 34.5,43.1667 34.5,42.8333 34.5,42.5C 34.8212,40.9519 35.8212,40.2852 37.5,40.5 Z"/></g>
<g><path style="opacity:0.23" fill="#c6f0ff" d="M 35.5,43.5 C 35.9483,41.5354 36.9483,41.2021 38.5,42.5C 37.675,43.3857 36.675,43.719 35.5,43.5 Z"/></g>
<g><path style="opacity:0.772" fill="#7de1ff" d="M 51.5,43.5 C 51.5,45.5 51.5,47.5 51.5,49.5C 51.1667,49.5 50.8333,49.5 50.5,49.5C 50.5742,45.2986 48.7409,43.9653 45,45.5C 44.51,46.7932 44.3433,48.1266 44.5,49.5C 46.1667,49.5 47.8333,49.5 49.5,49.5C 48.0813,50.4511 46.4147,50.7845 44.5,50.5C 43.8333,50.5 43.5,50.1667 43.5,49.5C 42.9127,43.1989 45.5793,41.1989 51.5,43.5 Z"/></g>
<g><path style="opacity:0.255" fill="#c1efff" d="M 59.5,43.5 C 58.4324,44.4345 57.099,44.7678 55.5,44.5C 55.5,43.1667 55.5,41.8333 55.5,40.5C 56.8333,40.5 58.1667,40.5 59.5,40.5C 59.5,41.5 59.5,42.5 59.5,43.5 Z"/></g>
<g><path style="opacity:0.741" fill="#acebff" d="M 59.5,43.5 C 59.8333,43.5 60.1667,43.5 60.5,43.5C 64.0389,43.495 67.0389,44.6616 69.5,47C 66.7216,48.3919 63.7216,48.8919 60.5,48.5C 58.8333,48.5 57.1667,48.5 55.5,48.5C 55.1667,48.5 54.8333,48.5 54.5,48.5C 54.5,47.1667 54.5,45.8333 54.5,44.5C 54.8333,44.5 55.1667,44.5 55.5,44.5C 57.099,44.7678 58.4324,44.4345 59.5,43.5 Z"/></g>
<g><path style="opacity:0.723" fill="#6fdeff" d="M 50.5,49.5 C 50.1667,49.5 49.8333,49.5 49.5,49.5C 47.8333,49.5 46.1667,49.5 44.5,49.5C 44.3433,48.1266 44.51,46.7932 45,45.5C 48.7409,43.9653 50.5742,45.2986 50.5,49.5 Z"/></g>
<g><path style="opacity:0.397" fill="#c4f0ff" d="M 8.5,46.5 C 9.5,46.5 10.5,46.5 11.5,46.5C 14.5497,45.9232 16.5497,47.0899 17.5,50C 21.3951,51.2662 25.3951,51.7662 29.5,51.5C 30.2341,52.7079 30.5674,54.0413 30.5,55.5C 29.5,55.5 28.5,55.5 27.5,55.5C 27.8039,54.8501 28.1373,54.1835 28.5,53.5C 25.0136,52.7243 21.5136,52.0576 18,51.5C 16.9889,52.0556 16.1556,52.7222 15.5,53.5C 15.5,52.5 15.5,51.5 15.5,50.5C 13.302,50.1201 11.6354,50.7868 10.5,52.5C 8.69206,51.0821 8.02539,49.0821 8.5,46.5 Z"/></g>
<g><path style="opacity:0.41" fill="#c4f0ff" d="M 86.5,48.5 C 86.8432,50.4832 86.1765,51.8166 84.5,52.5C 84.4993,48.7482 82.8326,47.7482 79.5,49.5C 80.9108,51.0175 80.7441,52.3508 79,53.5C 74.9341,52.5363 70.7675,52.203 66.5,52.5C 66.5,53.5 66.5,54.5 66.5,55.5C 68.4147,55.2155 70.0813,55.5489 71.5,56.5C 68.9407,56.8016 66.6074,56.4682 64.5,55.5C 64.33,54.1779 64.6634,53.0113 65.5,52C 69.8321,51.4167 74.1654,50.9167 78.5,50.5C 78.2222,48.6536 78.8888,47.3202 80.5,46.5C 82.4496,47.3721 84.4496,48.0388 86.5,48.5 Z"/></g>
<g><path style="opacity:0.675" fill="#a2e9ff" d="M 42.5,40.5 C 42.5,41.5 42.5,42.5 42.5,43.5C 41.6993,45.0418 41.366,46.7085 41.5,48.5C 41.7329,50.0618 42.3995,51.3951 43.5,52.5C 42.5,52.5 41.5,52.5 40.5,52.5C 40.7678,50.901 40.4345,49.5676 39.5,48.5C 39.5,47.1667 39.5,45.8333 39.5,44.5C 40.8571,43.4097 41.8571,42.0764 42.5,40.5 Z"/></g>
<g><path style="opacity:0.725" fill="#8fe5ff" d="M 51.5,43.5 C 54.1667,45.5 54.1667,47.5 51.5,49.5C 51.5,47.5 51.5,45.5 51.5,43.5 Z"/></g>
<g><path style="opacity:0.503" fill="#b8eeff" d="M 15.5,41.5 C 15.7352,40.9033 16.2352,40.5699 17,40.5C 19.0389,41.9853 21.2056,42.8186 23.5,43C 20.5878,43.8452 19.5878,45.5118 20.5,48C 25.2596,49.6163 29.9262,50.1163 34.5,49.5C 35.5676,48.5655 36.901,48.2322 38.5,48.5C 38.6495,49.552 38.4828,50.552 38,51.5C 36.4815,52.1634 35.3149,53.1634 34.5,54.5C 33.1606,58.1998 31.1606,58.8665 28.5,56.5C 31.3213,56.6841 32.9879,55.3507 33.5,52.5C 32.3112,51.5713 30.9778,51.238 29.5,51.5C 25.8388,50.9017 22.1721,49.9017 18.5,48.5C 17.3192,46.8647 17.3192,45.198 18.5,43.5C 17.6431,42.5748 16.6431,41.9081 15.5,41.5 Z"/></g>
<g><path style="opacity:0.443" fill="#b0ecff" d="M 38.5,48.5 C 38.8333,48.5 39.1667,48.5 39.5,48.5C 40.4345,49.5676 40.7678,50.901 40.5,52.5C 41.5,52.5 42.5,52.5 43.5,52.5C 45.4352,53.1495 47.4352,53.4828 49.5,53.5C 49.5,54.8333 49.5,56.1667 49.5,57.5C 47.7839,57.6287 46.1172,57.962 44.5,58.5C 46.2683,54.5891 44.935,52.9224 40.5,53.5C 40.6602,55.1992 40.4935,56.8659 40,58.5C 39.3292,59.2524 38.4959,59.5858 37.5,59.5C 38.3007,57.9582 38.634,56.2915 38.5,54.5C 37.1667,54.5 35.8333,54.5 34.5,54.5C 35.3149,53.1634 36.4815,52.1634 38,51.5C 38.4828,50.552 38.6495,49.552 38.5,48.5 Z"/></g>
<g><path style="opacity:0.58" fill="#b2ecff" d="M 54.5,48.5 C 54.8333,48.5 55.1667,48.5 55.5,48.5C 55.2627,49.791 55.596,50.791 56.5,51.5C 57.1667,52.1667 57.8333,52.8333 58.5,53.5C 57.1667,53.5 55.8333,53.5 54.5,53.5C 54.0254,56.0821 54.6921,58.0821 56.5,59.5C 56.8333,59.5 57.1667,59.5 57.5,59.5C 57.5,60.1667 57.8333,60.5 58.5,60.5C 58.5,61.1667 58.5,61.8333 58.5,62.5C 56.7367,61.0462 55.4033,61.3796 54.5,63.5C 53.8333,63.5 53.1667,63.5 52.5,63.5C 51.8826,63.6107 51.3826,63.944 51,64.5C 49.8566,67.7769 49.0233,71.1102 48.5,74.5C 47.5,74.5 46.5,74.5 45.5,74.5C 44.7945,69.6296 43.4612,64.963 41.5,60.5C 42.0047,59.0815 43.0047,58.4148 44.5,58.5C 43.2511,60.8285 43.9177,62.6618 46.5,64C 45.6198,65.3561 45.2865,66.8561 45.5,68.5C 49.753,68.434 50.4197,66.934 47.5,64C 49.3325,63.2515 50.9991,62.2515 52.5,61C 51.6195,60.2917 50.9528,59.4584 50.5,58.5C 51.5,58.5 52.5,58.5 53.5,58.5C 53.5,56.8333 53.5,55.1667 53.5,53.5C 52.1667,53.5 50.8333,53.5 49.5,53.5C 49.5,53.1667 49.5,52.8333 49.5,52.5C 52.9496,53.2436 54.6162,51.9103 54.5,48.5 Z"/></g>
<g><path style="opacity:0.215" fill="#cbf2ff" d="M 84.5,52.5 C 81.7524,52.4017 81.0857,53.4017 82.5,55.5C 80.1732,55.3354 78.0065,54.6687 76,53.5C 74.2942,54.3079 73.4609,55.6412 73.5,57.5C 72.8333,57.5 72.1667,57.5 71.5,57.5C 71.5,57.1667 71.5,56.8333 71.5,56.5C 70.0813,55.5489 68.4147,55.2155 66.5,55.5C 66.5,54.5 66.5,53.5 66.5,52.5C 70.7675,52.203 74.9341,52.5363 79,53.5C 80.7441,52.3508 80.9108,51.0175 79.5,49.5C 82.8326,47.7482 84.4993,48.7482 84.5,52.5 Z"/></g>
<g><path style="opacity:0.68" fill="#b7eeff" d="M 55.5,48.5 C 57.1667,48.5 58.8333,48.5 60.5,48.5C 63.6248,49.4794 66.9581,49.8128 70.5,49.5C 70.8333,49.5 71.1667,49.5 71.5,49.5C 67.0298,51.4442 62.5298,51.4442 58,49.5C 56.9701,49.8361 56.4701,50.5028 56.5,51.5C 55.596,50.791 55.2627,49.791 55.5,48.5 Z"/></g>
<g><path style="opacity:0.177" fill="#bfefff" d="M 15.5,53.5 C 14.7659,54.7079 14.4326,56.0413 14.5,57.5C 12.3484,56.9232 12.015,55.7565 13.5,54C 12.7562,52.9614 11.7562,52.4614 10.5,52.5C 11.6354,50.7868 13.302,50.1201 15.5,50.5C 15.5,51.5 15.5,52.5 15.5,53.5 Z"/></g>
<g><path style="opacity:0.749" fill="#88e4ff" d="M 49.5,49.5 C 49.8333,49.5 50.1667,49.5 50.5,49.5C 50.8333,49.5 51.1667,49.5 51.5,49.5C 51.1667,50.5 50.5,51.1667 49.5,51.5C 47.5853,51.7845 45.9187,51.4511 44.5,50.5C 46.4147,50.7845 48.0813,50.4511 49.5,49.5 Z"/></g>
<g><path style="opacity:0.312" fill="#ccf2ff" d="M 27.5,55.5 C 26.209,55.2627 25.209,55.596 24.5,56.5C 23.8333,56.5 23.5,56.8333 23.5,57.5C 22.8333,57.5 22.1667,57.5 21.5,57.5C 21.5,56.5 21.5,55.5 21.5,54.5C 19.8008,54.3398 18.1341,54.5065 16.5,55C 15.7476,55.6708 15.4142,56.5041 15.5,57.5C 15.1667,57.5 14.8333,57.5 14.5,57.5C 14.4326,56.0413 14.7659,54.7079 15.5,53.5C 16.1556,52.7222 16.9889,52.0556 18,51.5C 21.5136,52.0576 25.0136,52.7243 28.5,53.5C 28.1373,54.1835 27.8039,54.8501 27.5,55.5 Z"/></g>
<g><path style="opacity:0.553" fill="#beefff" d="M 29.5,51.5 C 30.9778,51.238 32.3112,51.5713 33.5,52.5C 32.9879,55.3507 31.3213,56.6841 28.5,56.5C 27.5,56.5 26.5,56.5 25.5,56.5C 25.1667,56.5 24.8333,56.5 24.5,56.5C 25.209,55.596 26.209,55.2627 27.5,55.5C 28.5,55.5 29.5,55.5 30.5,55.5C 30.5674,54.0413 30.2341,52.7079 29.5,51.5 Z"/></g>
<g><path style="opacity:0.739" fill="#97e7ff" d="M 41.5,48.5 C 42.1667,48.8333 42.8333,49.1667 43.5,49.5C 43.5,50.1667 43.8333,50.5 44.5,50.5C 45.9187,51.4511 47.5853,51.7845 49.5,51.5C 49.5,51.8333 49.5,52.1667 49.5,52.5C 49.5,52.8333 49.5,53.1667 49.5,53.5C 47.4352,53.4828 45.4352,53.1495 43.5,52.5C 42.3995,51.3951 41.7329,50.0618 41.5,48.5 Z"/></g>
<g><path style="opacity:0.06" fill="#d4f4ff" d="M 21.5,57.5 C 19.6119,56.7249 17.6119,56.7249 15.5,57.5C 15.4142,56.5041 15.7476,55.6708 16.5,55C 18.1341,54.5065 19.8008,54.3398 21.5,54.5C 21.5,55.5 21.5,56.5 21.5,57.5 Z"/></g>
<g><path style="opacity:0.65" fill="#b1ebff" d="M 34.5,54.5 C 35.0768,57.5497 33.9101,59.5497 31,60.5C 30.5172,61.448 30.3505,62.448 30.5,63.5C 32.5138,63.6085 34.1805,62.9418 35.5,61.5C 35.4431,62.609 35.1098,63.609 34.5,64.5C 32.2888,65.0366 30.2888,66.0366 28.5,67.5C 26.7336,67.5658 25.7336,66.7324 25.5,65C 26.5089,63.8319 27.5089,62.6652 28.5,61.5C 27.3112,60.5713 25.9778,60.238 24.5,60.5C 24.4326,59.0413 24.7659,57.7079 25.5,56.5C 26.5,56.5 27.5,56.5 28.5,56.5C 31.1606,58.8665 33.1606,58.1998 34.5,54.5 Z"/></g>
<g><path style="opacity:0.794" fill="#aaeaff" d="M 34.5,54.5 C 35.8333,54.5 37.1667,54.5 38.5,54.5C 38.634,56.2915 38.3007,57.9582 37.5,59.5C 37.5,59.8333 37.5,60.1667 37.5,60.5C 36.8333,60.8333 36.1667,61.1667 35.5,61.5C 34.1805,62.9418 32.5138,63.6085 30.5,63.5C 30.3505,62.448 30.5172,61.448 31,60.5C 33.9101,59.5497 35.0768,57.5497 34.5,54.5 Z"/></g>
<g><path style="opacity:0.345" fill="#b9eeff" d="M 49.5,53.5 C 50.8333,53.5 52.1667,53.5 53.5,53.5C 53.5,55.1667 53.5,56.8333 53.5,58.5C 52.5,58.5 51.5,58.5 50.5,58.5C 50.5,57.8333 50.1667,57.5 49.5,57.5C 49.5,56.1667 49.5,54.8333 49.5,53.5 Z"/></g>
<g><path style="opacity:0.647" fill="#b2ebff" d="M 60.5,54.5 C 61.9587,54.4326 63.2921,54.7659 64.5,55.5C 66.6074,56.4682 68.9407,56.8016 71.5,56.5C 71.5,56.8333 71.5,57.1667 71.5,57.5C 71.5,58.5 71.5,59.5 71.5,60.5C 69.8333,60.5 68.1667,60.5 66.5,60.5C 66.6261,62.1998 67.2927,63.6998 68.5,65C 68.3865,66.2798 67.7199,67.1131 66.5,67.5C 64.3021,65.9019 61.9687,64.5686 59.5,63.5C 59.5,62.8333 59.1667,62.5 58.5,62.5C 58.5,61.8333 58.5,61.1667 58.5,60.5C 60.0532,62.385 62.0532,63.385 64.5,63.5C 63.3032,60.5175 61.9699,57.5175 60.5,54.5 Z"/></g>
<g><path style="opacity:0.811" fill="#abe9ff" d="M 58.5,53.5 C 59.4916,53.3284 60.1583,53.6618 60.5,54.5C 61.9699,57.5175 63.3032,60.5175 64.5,63.5C 62.0532,63.385 60.0532,62.385 58.5,60.5C 57.8333,60.5 57.5,60.1667 57.5,59.5C 59.3442,58.7961 59.8442,57.4628 59,55.5C 57.9887,54.6634 56.8221,54.33 55.5,54.5C 55.366,56.2915 55.6993,57.9582 56.5,59.5C 54.6921,58.0821 54.0254,56.0821 54.5,53.5C 55.8333,53.5 57.1667,53.5 58.5,53.5 Z"/></g>
<g><path style="opacity:0.832" fill="#a4e7ff" d="M 57.5,59.5 C 57.1667,59.5 56.8333,59.5 56.5,59.5C 55.6993,57.9582 55.366,56.2915 55.5,54.5C 56.8221,54.33 57.9887,54.6634 59,55.5C 59.8442,57.4628 59.3442,58.7961 57.5,59.5 Z"/></g>
<g><path style="opacity:0.036" fill="#d0f3ff" d="M 82.5,55.5 C 80.9587,58.8462 78.6254,59.1795 75.5,56.5C 74.8165,56.8627 74.1499,57.1961 73.5,57.5C 73.4609,55.6412 74.2942,54.3079 76,53.5C 78.0065,54.6687 80.1732,55.3354 82.5,55.5 Z"/></g>
<g><path style="opacity:0.682" fill="#abeaff" d="M 49.5,57.5 C 50.1667,57.5 50.5,57.8333 50.5,58.5C 50.9528,59.4584 51.6195,60.2917 52.5,61C 50.9991,62.2515 49.3325,63.2515 47.5,64C 50.4197,66.934 49.753,68.434 45.5,68.5C 45.2865,66.8561 45.6198,65.3561 46.5,64C 43.9177,62.6618 43.2511,60.8285 44.5,58.5C 46.1172,57.962 47.7839,57.6287 49.5,57.5 Z"/></g>
<g><path style="opacity:0.141" fill="#a9eaff" d="M 67.5,57.5 C 68.675,57.281 69.675,57.6143 70.5,58.5C 69.277,59.6139 67.9437,59.7805 66.5,59C 67.056,58.6174 67.3893,58.1174 67.5,57.5 Z"/></g>
<g><path style="opacity:0.337" fill="#b7ecff" d="M 24.5,56.5 C 24.8333,56.5 25.1667,56.5 25.5,56.5C 24.7659,57.7079 24.4326,59.0413 24.5,60.5C 25.9778,60.238 27.3112,60.5713 28.5,61.5C 27.5089,62.6652 26.5089,63.8319 25.5,65C 25.7336,66.7324 26.7336,67.5658 28.5,67.5C 30.2888,66.0366 32.2888,65.0366 34.5,64.5C 30.8534,69.4695 27.1867,69.6362 23.5,65C 21.5273,64.5045 19.5273,64.3379 17.5,64.5C 17.7593,60.9319 19.7593,59.5985 23.5,60.5C 23.5,59.5 23.5,58.5 23.5,57.5C 23.5,56.8333 23.8333,56.5 24.5,56.5 Z"/></g>
<g><path style="opacity:0.329" fill="#b8edff" d="M 71.5,60.5 C 74.8784,59.8911 76.8784,61.2244 77.5,64.5C 75.1432,64.3367 72.8098,64.5034 70.5,65C 69.9021,67.048 68.5688,68.2147 66.5,68.5C 63.5423,67.5378 61.209,65.8711 59.5,63.5C 61.9687,64.5686 64.3021,65.9019 66.5,67.5C 67.7199,67.1131 68.3865,66.2798 68.5,65C 67.2927,63.6998 66.6261,62.1998 66.5,60.5C 68.1667,60.5 69.8333,60.5 71.5,60.5 Z"/></g>
<g><path style="opacity:0.592" fill="#beefff" d="M 58.5,62.5 C 59.1667,62.5 59.5,62.8333 59.5,63.5C 61.209,65.8711 63.5423,67.5378 66.5,68.5C 68.5688,68.2147 69.9021,67.048 70.5,65C 72.8098,64.5034 75.1432,64.3367 77.5,64.5C 77.5,65.1667 77.1667,65.5 76.5,65.5C 70.3371,65.0807 69.5037,66.4141 74,69.5C 74.6877,70.3317 74.521,70.9984 73.5,71.5C 71.119,69.6041 68.619,69.2708 66,70.5C 62.6713,68.8597 59.8379,66.693 57.5,64C 56.552,63.5172 55.552,63.3505 54.5,63.5C 55.4033,61.3796 56.7367,61.0462 58.5,62.5 Z"/></g>
<g><path style="opacity:0.401" fill="#c4f0ff" d="M 41.5,63.5 C 42.2341,64.7079 42.5674,66.0413 42.5,67.5C 41.2921,68.2341 39.9587,68.5674 38.5,68.5C 38.1367,70.9115 39.1367,72.4115 41.5,73C 40.2068,73.49 38.8734,73.6567 37.5,73.5C 37.5,73.1667 37.5,72.8333 37.5,72.5C 37.5,71.1667 37.5,69.8333 37.5,68.5C 34.5,68.1667 33.1667,69.5 33.5,72.5C 30.2761,72.7965 27.2761,72.1298 24.5,70.5C 23.8165,70.8627 23.1499,71.1961 22.5,71.5C 22.6162,68.0897 20.9496,66.7564 17.5,67.5C 17.5,66.8333 17.5,66.1667 17.5,65.5C 20.8638,64.7893 23.1971,65.956 24.5,69C 26.2738,69.9704 28.1072,70.8037 30,71.5C 31.6878,69.4806 33.6878,67.814 36,66.5C 36.4171,62.7095 38.2504,61.7095 41.5,63.5 Z"/></g>
<g><path style="opacity:0.659" fill="#beefff" d="M 37.5,60.5 C 39.4044,60.7376 40.7377,61.7376 41.5,63.5C 38.2504,61.7095 36.4171,62.7095 36,66.5C 33.6878,67.814 31.6878,69.4806 30,71.5C 28.1072,70.8037 26.2738,69.9704 24.5,69C 23.1971,65.956 20.8638,64.7893 17.5,65.5C 17.5,65.1667 17.5,64.8333 17.5,64.5C 19.5273,64.3379 21.5273,64.5045 23.5,65C 27.1867,69.6362 30.8534,69.4695 34.5,64.5C 35.1098,63.609 35.4431,62.609 35.5,61.5C 36.1667,61.1667 36.8333,60.8333 37.5,60.5 Z"/></g>
<g><path style="opacity:0.328" fill="#c5f0ff" d="M 52.5,63.5 C 53.1667,63.5 53.8333,63.5 54.5,63.5C 55.552,63.3505 56.552,63.5172 57.5,64C 59.8379,66.693 62.6713,68.8597 66,70.5C 68.619,69.2708 71.119,69.6041 73.5,71.5C 74.521,70.9984 74.6877,70.3317 74,69.5C 69.5037,66.4141 70.3371,65.0807 76.5,65.5C 76.665,68.8499 76.4983,72.1832 76,75.5C 75.3292,76.2524 74.4959,76.5858 73.5,76.5C 74.7914,75.5272 74.7914,74.5272 73.5,73.5C 70.8699,70.2914 68.0366,69.958 65,72.5C 63.2856,71.9238 62.1189,70.7571 61.5,69C 60.2068,68.51 58.8734,68.3433 57.5,68.5C 57.7373,69.791 57.404,70.791 56.5,71.5C 56.5,70.5 56.5,69.5 56.5,68.5C 53.0897,68.6162 51.7564,66.9496 52.5,63.5 Z"/></g>
<g><path style="opacity:0.51" fill="#b9eeff" d="M 44.5,58.5 C 43.0047,58.4148 42.0047,59.0815 41.5,60.5C 43.4612,64.963 44.7945,69.6296 45.5,74.5C 46.5,74.5 47.5,74.5 48.5,74.5C 49.0233,71.1102 49.8566,67.7769 51,64.5C 51.3826,63.944 51.8826,63.6107 52.5,63.5C 51.7564,66.9496 53.0897,68.6162 56.5,68.5C 56.5,69.5 56.5,70.5 56.5,71.5C 54.7376,71.6427 53.0709,71.3094 51.5,70.5C 51.0244,73.1191 49.6911,75.1191 47.5,76.5C 46.8333,76.1667 46.1667,75.8333 45.5,75.5C 44.7452,72.6754 43.7452,70.0087 42.5,67.5C 42.5674,66.0413 42.2341,64.7079 41.5,63.5C 40.7377,61.7376 39.4044,60.7376 37.5,60.5C 37.5,60.1667 37.5,59.8333 37.5,59.5C 38.4959,59.5858 39.3292,59.2524 40,58.5C 40.4935,56.8659 40.6602,55.1992 40.5,53.5C 44.935,52.9224 46.2683,54.5891 44.5,58.5 Z"/></g>
<g><path style="opacity:0.192" fill="#bbeeff" d="M 17.5,68.5 C 17.5,68.1667 17.5,67.8333 17.5,67.5C 20.9496,66.7564 22.6162,68.0897 22.5,71.5C 21.5489,72.9187 21.2155,74.5853 21.5,76.5C 21.1667,76.5 20.8333,76.5 20.5,76.5C 20.5,73.8333 20.5,71.1667 20.5,68.5C 19.5,68.5 18.5,68.5 17.5,68.5 Z"/></g>
<g><path style="opacity:0.464" fill="#beefff" d="M 42.5,67.5 C 43.7452,70.0087 44.7452,72.6754 45.5,75.5C 46.1667,75.8333 46.8333,76.1667 47.5,76.5C 49.6911,75.1191 51.0244,73.1191 51.5,70.5C 53.0709,71.3094 54.7376,71.6427 56.5,71.5C 56.5,72.1667 56.8333,72.5 57.5,72.5C 57.1667,73.1667 56.8333,73.8333 56.5,74.5C 53.5065,74.1457 52.5065,75.1457 53.5,77.5C 49.5,77.5 45.5,77.5 41.5,77.5C 41.6107,76.8826 41.944,76.3826 42.5,76C 40.9751,74.9914 39.3084,74.4914 37.5,74.5C 37.5,74.1667 37.5,73.8333 37.5,73.5C 38.8734,73.6567 40.2068,73.49 41.5,73C 39.1367,72.4115 38.1367,70.9115 38.5,68.5C 39.9587,68.5674 41.2921,68.2341 42.5,67.5 Z"/></g>
<g><path style="opacity:0.286" fill="#caf2ff" d="M 37.5,72.5 C 36.0413,72.4326 34.7079,72.7659 33.5,73.5C 30.4212,73.7399 27.4212,73.4066 24.5,72.5C 22.8888,73.3202 22.2222,74.6536 22.5,76.5C 22.1667,76.5 21.8333,76.5 21.5,76.5C 21.2155,74.5853 21.5489,72.9187 22.5,71.5C 23.1499,71.1961 23.8165,70.8627 24.5,70.5C 27.2761,72.1298 30.2761,72.7965 33.5,72.5C 33.1667,69.5 34.5,68.1667 37.5,68.5C 37.5,69.8333 37.5,71.1667 37.5,72.5 Z"/></g>
<g><path style="opacity:0.242" fill="#cbf1ff" d="M 73.5,76.5 C 72.8333,76.5 72.1667,76.5 71.5,76.5C 71.7778,74.6536 71.1112,73.3202 69.5,72.5C 67.1489,74.2289 64.4822,74.8956 61.5,74.5C 60.5326,73.1938 59.1993,72.5271 57.5,72.5C 56.8333,72.5 56.5,72.1667 56.5,71.5C 57.404,70.791 57.7373,69.791 57.5,68.5C 58.8734,68.3433 60.2068,68.51 61.5,69C 62.1189,70.7571 63.2856,71.9238 65,72.5C 68.0366,69.958 70.8699,70.2914 73.5,73.5C 74.7914,74.5272 74.7914,75.5272 73.5,76.5 Z"/></g>
<g><path style="opacity:0.063" fill="#a7eaff" d="M 17.5,68.5 C 18.5,68.5 19.5,68.5 20.5,68.5C 20.5,71.1667 20.5,73.8333 20.5,76.5C 18.7675,74.2844 17.7675,71.6177 17.5,68.5 Z"/></g>
<g><path style="opacity:0.106" fill="#d1f2ff" d="M 71.5,76.5 C 68.2139,77.2071 64.8806,77.5405 61.5,77.5C 61.5,76.5 61.5,75.5 61.5,74.5C 64.4822,74.8956 67.1489,74.2289 69.5,72.5C 71.1112,73.3202 71.7778,74.6536 71.5,76.5 Z"/></g>
<g><path style="opacity:0.239" fill="#d0f3ff" d="M 33.5,73.5 C 33.5,73.8333 33.5,74.1667 33.5,74.5C 31.1432,74.3367 28.8098,74.5034 26.5,75C 25.944,75.3826 25.6107,75.8826 25.5,76.5C 24.5,76.5 23.5,76.5 22.5,76.5C 22.2222,74.6536 22.8888,73.3202 24.5,72.5C 27.4212,73.4066 30.4212,73.7399 33.5,73.5 Z"/></g>
<g><path style="opacity:0.091" fill="#d9f4ff" d="M 33.5,74.5 C 31.3647,76.369 28.6981,77.0356 25.5,76.5C 25.6107,75.8826 25.944,75.3826 26.5,75C 28.8098,74.5034 31.1432,74.3367 33.5,74.5 Z"/></g>
<g><path style="opacity:0.098" fill="#b7edff" d="M 37.5,74.5 C 39.3084,74.4914 40.9751,74.9914 42.5,76C 41.944,76.3826 41.6107,76.8826 41.5,77.5C 41.5,77.8333 41.5,78.1667 41.5,78.5C 39.8333,78.5 38.1667,78.5 36.5,78.5C 37.2341,77.2921 37.5674,75.9587 37.5,74.5 Z"/></g>
<g><path style="opacity:0.637" fill="#c4f1ff" d="M 41.5,78.5 C 41.5,78.1667 41.5,77.8333 41.5,77.5C 45.5,77.5 49.5,77.5 53.5,77.5C 53.5,77.8333 53.5,78.1667 53.5,78.5C 49.5213,79.6251 45.5213,79.6251 41.5,78.5 Z"/></g>
<g><path style="opacity:0.095" fill="#b8edff" d="M 56.5,74.5 C 57.1667,75.8333 57.8333,77.1667 58.5,78.5C 56.8333,78.5 55.1667,78.5 53.5,78.5C 53.5,78.1667 53.5,77.8333 53.5,77.5C 52.5065,75.1457 53.5065,74.1457 56.5,74.5 Z"/></g>
<g><path style="opacity:0.434" fill="#caf2ff" d="M 36.5,79.5 C 36.5,79.1667 36.5,78.8333 36.5,78.5C 38.1667,78.5 39.8333,78.5 41.5,78.5C 45.5213,79.6251 49.5213,79.6251 53.5,78.5C 55.1667,78.5 56.8333,78.5 58.5,78.5C 58.6716,79.4916 58.3382,80.1583 57.5,80.5C 55.1667,80.5 52.8333,80.5 50.5,80.5C 48.9261,82.1016 48.2594,84.1016 48.5,86.5C 48.1667,86.5 47.8333,86.5 47.5,86.5C 47.3404,84.847 46.6737,83.5137 45.5,82.5C 45.5,82.1667 45.5,81.8333 45.5,81.5C 43.0122,79.6122 40.0122,78.9455 36.5,79.5 Z"/></g>
<g><path style="opacity:0.463" fill="#d2f3ff" d="M 36.5,79.5 C 40.0122,78.9455 43.0122,79.6122 45.5,81.5C 42.9455,80.612 40.2788,80.2786 37.5,80.5C 36.8333,80.5 36.5,80.1667 36.5,79.5 Z"/></g>
<g><path style="opacity:0.161" fill="#dff4ff" d="M 37.5,80.5 C 40.2788,80.2786 42.9455,80.612 45.5,81.5C 45.5,81.8333 45.5,82.1667 45.5,82.5C 45.5,83.8333 45.5,85.1667 45.5,86.5C 43.8235,85.8166 43.1568,84.4832 43.5,82.5C 40.9179,82.9746 38.9179,82.3079 37.5,80.5 Z"/></g>
<g><path style="opacity:0.058" fill="#dcf4ff" d="M 50.5,80.5 C 52.8333,80.5 55.1667,80.5 57.5,80.5C 56.0821,82.3079 54.0821,82.9746 51.5,82.5C 51.7678,84.099 51.4345,85.4324 50.5,86.5C 50.5,84.5 50.5,82.5 50.5,80.5 Z"/></g>
<g><path style="opacity:0.097" fill="#d1f3ff" d="M 45.5,82.5 C 46.6737,83.5137 47.3404,84.847 47.5,86.5C 46.8333,86.5 46.1667,86.5 45.5,86.5C 45.5,85.1667 45.5,83.8333 45.5,82.5 Z"/></g>
<g><path style="opacity:0.052" fill="#d4f3ff" d="M 50.5,80.5 C 50.5,82.5 50.5,84.5 50.5,86.5C 49.8333,86.5 49.1667,86.5 48.5,86.5C 48.2594,84.1016 48.9261,82.1016 50.5,80.5 Z"/></g>
</svg>
