<?xml version="1.0" encoding="UTF-8"?>
<!DOCTYPE svg PUBLIC "-//W3C//DTD SVG 1.1//EN" "http://www.w3.org/Graphics/SVG/1.1/DTD/svg11.dtd">
<svg xmlns="http://www.w3.org/2000/svg" version="1.1" width="96px" height="96px" style="shape-rendering:geometricPrecision; text-rendering:geometricPrecision; image-rendering:optimizeQuality; fill-rule:evenodd; clip-rule:evenodd" xmlns:xlink="http://www.w3.org/1999/xlink">
<g><path style="opacity:0.995" fill="#3b1e79" d="M 29.5,-0.5 C 31.5,-0.5 33.5,-0.5 35.5,-0.5C 11.1396,8.06912 -0.360406,25.4025 1,51.5C 9.97414,83.4337 30.8075,95.9337 63.5,89C 80.2042,82.2959 90.3708,70.1292 94,52.5C 95.94,26.3504 84.7734,8.68373 60.5,-0.5C 62.5,-0.5 64.5,-0.5 66.5,-0.5C 82.0996,6.76188 91.7662,18.7619 95.5,35.5C 95.5,41.8333 95.5,48.1667 95.5,54.5C 89.0321,78.2846 73.3654,91.618 48.5,94.5C 21.741,92.0407 5.4077,78.0407 -0.5,52.5C -0.5,46.8333 -0.5,41.1667 -0.5,35.5C 3.31046,18.3551 13.3105,6.35508 29.5,-0.5 Z"/></g>
<g><path style="opacity:1" fill="#351e6d" d="M -0.5,-0.5 C 9.5,-0.5 19.5,-0.5 29.5,-0.5C 13.3105,6.35508 3.31046,18.3551 -0.5,35.5C -0.5,23.5 -0.5,11.5 -0.5,-0.5 Z"/></g>
<g><path style="opacity:1" fill="#351e6d" d="M 66.5,-0.5 C 76.1667,-0.5 85.8333,-0.5 95.5,-0.5C 95.5,11.5 95.5,23.5 95.5,35.5C 91.7662,18.7619 82.0996,6.76188 66.5,-0.5 Z"/></g>
<g><path style="opacity:1" fill="#3e1e7f" d="M 35.5,-0.5 C 43.8333,-0.5 52.1667,-0.5 60.5,-0.5C 84.7734,8.68373 95.94,26.3504 94,52.5C 90.3708,70.1292 80.2042,82.2959 63.5,89C 30.8075,95.9337 9.97414,83.4337 1,51.5C -0.360406,25.4025 11.1396,8.06912 35.5,-0.5 Z"/></g>
<g><path style="opacity:1" fill="#411e86" d="M 38.5,0.5 C 64.7319,-1.98575 82.2319,9.01425 91,33.5C 94.908,59.1883 85.0746,77.355 61.5,88C 34.5493,93.3255 15.7159,83.4922 5,58.5C -0.58704,29.3267 10.5796,9.99341 38.5,0.5 Z"/></g>
<g><path style="opacity:1" fill="#341e6b" d="M -0.5,52.5 C 5.4077,78.0407 21.741,92.0407 48.5,94.5C 73.3654,91.618 89.0321,78.2846 95.5,54.5C 95.5,68.1667 95.5,81.8333 95.5,95.5C 63.5,95.5 31.5,95.5 -0.5,95.5C -0.5,81.1667 -0.5,66.8333 -0.5,52.5 Z"/></g>
<g><path style="opacity:1" fill="#441e8e" d="M 42.5,1.5 C 68.0126,1.19471 83.8459,13.528 90,38.5C 91.6852,64.1353 80.1852,80.302 55.5,87C 28.0038,89.4952 11.1705,77.3285 5,50.5C 4.02044,23.7731 16.5204,7.43973 42.5,1.5 Z"/></g>
<g><path style="opacity:1" fill="#491d98" d="M 66.5,78.5 C 66.5,77.5 66.5,76.5 66.5,75.5C 71.4221,75.1005 75.2555,72.7672 78,68.5C 90.4276,47.5467 87.5943,29.0467 69.5,13C 47.4347,1.67159 28.9347,5.83825 14,25.5C 4.97327,45.7203 8.97327,62.7203 26,76.5C 26.6708,75.7476 27.5041,75.4142 28.5,75.5C 29.1667,76.1667 29.8333,76.8333 30.5,77.5C 30.5,77.8333 30.5,78.1667 30.5,78.5C 28.0108,78.7022 25.6775,78.2022 23.5,77C 18.173,72.5201 13.8397,67.3535 10.5,61.5C 2.93299,36.3404 10.933,18.1737 34.5,7C 57.673,1.38428 74.5063,9.21761 85,30.5C 90.6155,48.9824 86.1155,64.4824 71.5,77C 69.9751,78.0086 68.3084,78.5086 66.5,78.5 Z"/></g>
<g><path style="opacity:1" fill="#e35615" d="M 46.5,16.5 C 46.8333,16.5 47.1667,16.5 47.5,16.5C 47.5,22.5 47.5,28.5 47.5,34.5C 47.1707,40.5368 47.5041,46.5368 48.5,52.5C 50.1789,50.8955 52.1789,50.2289 54.5,50.5C 54.3505,51.552 54.5172,52.552 55,53.5C 55.1909,51.2922 55.6909,49.2922 56.5,47.5C 56.3354,50.5184 56.502,53.5184 57,56.5C 60.1563,58.8231 62.323,61.8231 63.5,65.5C 64.1495,67.4352 64.4828,69.4352 64.5,71.5C 64.5,71.8333 64.5,72.1667 64.5,72.5C 64.7947,74.7354 64.4614,76.7354 63.5,78.5C 62.5,76.8333 61.1667,75.5 59.5,74.5C 55.6057,67.9583 49.939,65.7916 42.5,68C 38.6659,70.6682 35.3325,73.8348 32.5,77.5C 31.8333,77.8333 31.1667,78.1667 30.5,78.5C 30.5,78.1667 30.5,77.8333 30.5,77.5C 30.5,76.5 30.5,75.5 30.5,74.5C 30.2786,71.7212 30.612,69.0545 31.5,66.5C 32.4003,62.3715 34.567,59.0382 38,56.5C 38.1528,48.8266 38.1528,41.1599 38,33.5C 39.6254,28.2509 41.792,23.2509 44.5,18.5C 45.5,18.1667 46.1667,17.5 46.5,16.5 Z"/></g>
<g><path style="opacity:1" fill="#561cbc" d="M 59.5,74.5 C 57.9459,75.693 56.2792,76.8596 54.5,78C 49.8333,78.6667 45.1667,78.6667 40.5,78C 38.6667,77.5 37.5,76.3333 37,74.5C 35.6667,75.8333 34.3333,77.1667 33,78.5C 32.6012,78.2716 32.4346,77.9382 32.5,77.5C 35.3325,73.8348 38.6659,70.6682 42.5,68C 49.939,65.7916 55.6057,67.9583 59.5,74.5 Z"/></g>
<g><path style="opacity:1" fill="#4c1d9e" d="M 66.5,75.5 C 73.5955,71.958 78.7622,65.958 82,57.5C 87.9426,35.5435 80.4426,19.7101 59.5,10C 36.1253,4.77178 20.292,13.2718 12,35.5C 8.50022,52.8035 14.0002,66.1368 28.5,75.5C 27.5041,75.4142 26.6708,75.7476 26,76.5C 8.97327,62.7203 4.97327,45.7203 14,25.5C 28.9347,5.83825 47.4347,1.67159 69.5,13C 87.5943,29.0467 90.4276,47.5467 78,68.5C 75.2555,72.7672 71.4221,75.1005 66.5,75.5 Z"/></g>
<g><path style="opacity:1" fill="#4e1da5" d="M 66.5,75.5 C 66.5,76.5 66.5,77.5 66.5,78.5C 65.8333,76.5 65.1667,74.5 64.5,72.5C 64.5,72.1667 64.5,71.8333 64.5,71.5C 65.3382,71.1583 65.6716,70.4916 65.5,69.5C 68.5466,71.1128 71.0466,70.4462 73,67.5C 74.9378,64.6105 77.1045,61.9438 79.5,59.5C 87.3109,34.2868 78.6442,17.7868 53.5,10C 32.6959,8.47857 19.1959,17.6452 13,37.5C 11.0282,49.6184 14.0282,60.285 22,69.5C 24.1623,71.4962 26.6623,72.8295 29.5,73.5C 29.5,74.1667 29.8333,74.5 30.5,74.5C 30.5,75.5 30.5,76.5 30.5,77.5C 29.8333,76.8333 29.1667,76.1667 28.5,75.5C 14.0002,66.1368 8.50022,52.8035 12,35.5C 20.292,13.2718 36.1253,4.77178 59.5,10C 80.4426,19.7101 87.9426,35.5435 82,57.5C 78.7622,65.958 73.5955,71.958 66.5,75.5 Z"/></g>
<g><path style="opacity:1" fill="#591cbd" d="M 46.5,16.5 C 46.1667,17.5 45.5,18.1667 44.5,18.5C 44.5654,18.0618 44.3988,17.7284 44,17.5C 43,18.8333 42,20.1667 41,21.5C 40.5172,20.552 40.3505,19.552 40.5,18.5C 29.1886,20.9794 22.3553,27.9794 20,39.5C 18.6696,48.3497 20.8363,56.183 26.5,63C 27.7932,63.49 29.1266,63.6567 30.5,63.5C 30.2627,64.791 30.596,65.791 31.5,66.5C 30.612,69.0545 30.2786,71.7212 30.5,74.5C 29.8333,74.5 29.5,74.1667 29.5,73.5C 29.5,71.8333 29.5,70.1667 29.5,68.5C 26.2155,68.7307 23.7155,67.3974 22,64.5C 14.1734,52.5879 13.5068,40.2545 20,27.5C 26.7402,16.7033 36.2402,12.5366 48.5,15C 47.5842,15.2784 46.9175,15.7784 46.5,16.5 Z"/></g>
<g><path style="opacity:1" fill="#591cbd" d="M 65.5,69.5 C 65.6716,70.4916 65.3382,71.1583 64.5,71.5C 64.4828,69.4352 64.1495,67.4352 63.5,65.5C 68.7632,63.7329 72.2632,60.0662 74,54.5C 77.7036,41.6147 74.5369,30.7814 64.5,22C 61.6907,20.2589 58.6907,19.0922 55.5,18.5C 55.6602,20.1992 55.4935,21.8659 55,23.5C 54.6667,22.8333 54.3333,22.1667 54,21.5C 53.6012,21.7284 53.4346,22.0618 53.5,22.5C 52.0256,21.5637 51.0256,20.2303 50.5,18.5C 50.3379,16.4727 50.5045,14.4727 51,12.5C 69.0196,15.8534 78.5196,26.6868 79.5,45C 79.6371,53.9266 76.6371,61.5933 70.5,68C 68.8876,68.7203 67.3876,68.5536 66,67.5C 65.5357,68.0944 65.369,68.7611 65.5,69.5 Z"/></g>
<g><path style="opacity:1" fill="#531daf" d="M 65.5,69.5 C 65.369,68.7611 65.5357,68.0944 66,67.5C 67.3876,68.5536 68.8876,68.7203 70.5,68C 76.6371,61.5933 79.6371,53.9266 79.5,45C 78.5196,26.6868 69.0196,15.8534 51,12.5C 50.5045,14.4727 50.3379,16.4727 50.5,18.5C 49.7777,17.4489 48.7777,16.7822 47.5,16.5C 47.1667,16.5 46.8333,16.5 46.5,16.5C 46.9175,15.7784 47.5842,15.2784 48.5,15C 36.2402,12.5366 26.7402,16.7033 20,27.5C 13.5068,40.2545 14.1734,52.5879 22,64.5C 23.7155,67.3974 26.2155,68.7307 29.5,68.5C 29.5,70.1667 29.5,71.8333 29.5,73.5C 26.6623,72.8295 24.1623,71.4962 22,69.5C 14.0282,60.285 11.0282,49.6184 13,37.5C 19.1959,17.6452 32.6959,8.47857 53.5,10C 78.6442,17.7868 87.3109,34.2868 79.5,59.5C 77.1045,61.9438 74.9378,64.6105 73,67.5C 71.0466,70.4462 68.5466,71.1128 65.5,69.5 Z"/></g>
<g><path style="opacity:1" fill="#fbb936" d="M 56.5,32.5 C 57.4256,37.3344 57.4256,42.3344 56.5,47.5C 55.6909,49.2922 55.1909,51.2922 55,53.5C 54.5172,52.552 54.3505,51.552 54.5,50.5C 52.1789,50.2289 50.1789,50.8955 48.5,52.5C 47.5041,46.5368 47.1707,40.5368 47.5,34.5C 48.2679,35.2625 48.7679,36.2625 49,37.5C 50.897,35.9837 53.0637,35.317 55.5,35.5C 55.2627,34.209 55.596,33.209 56.5,32.5 Z"/></g>
<g><path style="opacity:1" fill="#fddd51" d="M 47.5,16.5 C 48.7777,16.7822 49.7777,17.4489 50.5,18.5C 51.0256,20.2303 52.0256,21.5637 53.5,22.5C 54.9009,25.7036 55.9009,29.0369 56.5,32.5C 55.596,33.209 55.2627,34.209 55.5,35.5C 53.0637,35.317 50.897,35.9837 49,37.5C 48.7679,36.2625 48.2679,35.2625 47.5,34.5C 47.5,28.5 47.5,22.5 47.5,16.5 Z"/></g>
<g><path style="opacity:1" fill="#651cd9" d="M 63.5,65.5 C 62.323,61.8231 60.1563,58.8231 57,56.5C 56.502,53.5184 56.3354,50.5184 56.5,47.5C 57.4256,42.3344 57.4256,37.3344 56.5,32.5C 55.9009,29.0369 54.9009,25.7036 53.5,22.5C 53.4346,22.0618 53.6012,21.7284 54,21.5C 54.3333,22.1667 54.6667,22.8333 55,23.5C 55.4935,21.8659 55.6602,20.1992 55.5,18.5C 58.6907,19.0922 61.6907,20.2589 64.5,22C 74.5369,30.7814 77.7036,41.6147 74,54.5C 72.2632,60.0662 68.7632,63.7329 63.5,65.5 Z"/></g>
<g><path style="opacity:1" fill="#661bdc" d="M 44.5,18.5 C 41.792,23.2509 39.6254,28.2509 38,33.5C 38.1528,41.1599 38.1528,48.8266 38,56.5C 34.567,59.0382 32.4003,62.3715 31.5,66.5C 30.596,65.791 30.2627,64.791 30.5,63.5C 29.1266,63.6567 27.7932,63.49 26.5,63C 20.8363,56.183 18.6696,48.3497 20,39.5C 22.3553,27.9794 29.1886,20.9794 40.5,18.5C 40.3505,19.552 40.5172,20.552 41,21.5C 42,20.1667 43,18.8333 44,17.5C 44.3988,17.7284 44.5654,18.0618 44.5,18.5 Z"/></g>
<g><path style="opacity:1" fill="#481d98" d="M 10.5,61.5 C 13.8397,67.3535 18.173,72.5201 23.5,77C 25.6775,78.2022 28.0108,78.7022 30.5,78.5C 31.1667,78.1667 31.8333,77.8333 32.5,77.5C 32.4346,77.9382 32.6012,78.2716 33,78.5C 34.3333,77.1667 35.6667,75.8333 37,74.5C 37.5,76.3333 38.6667,77.5 40.5,78C 45.1667,78.6667 49.8333,78.6667 54.5,78C 56.2792,76.8596 57.9459,75.693 59.5,74.5C 61.1667,75.5 62.5,76.8333 63.5,78.5C 66.106,79.8499 66.106,81.3499 63.5,83C 42.3309,89.9173 25.1642,84.4173 12,66.5C 10.9914,64.9751 10.4914,63.3084 10.5,61.5 Z"/></g>
</svg>
