<?xml version="1.0" encoding="UTF-8"?>
<!DOCTYPE svg PUBLIC "-//W3C//DTD SVG 1.1//EN" "http://www.w3.org/Graphics/SVG/1.1/DTD/svg11.dtd">
<svg xmlns="http://www.w3.org/2000/svg" version="1.1" width="96px" height="96px" style="shape-rendering:geometricPrecision; text-rendering:geometricPrecision; image-rendering:optimizeQuality; fill-rule:evenodd; clip-rule:evenodd" xmlns:xlink="http://www.w3.org/1999/xlink">
<g><path style="opacity:0.929" fill="#fdfeff" d="M 37.5,-0.5 C 44.1667,-0.5 50.8333,-0.5 57.5,-0.5C 67.9289,1.92095 76.5955,7.25428 83.5,15.5C 82.7924,17.3779 81.6257,19.0445 80,20.5C 78.2621,16.7587 75.7621,13.592 72.5,11C 69.2583,10.0145 66.5917,10.8478 64.5,13.5C 62.6112,11.568 60.6112,9.73468 58.5,8C 53.569,7.38684 48.7357,7.88684 44,9.5C 40.8611,8.57432 37.6944,8.40766 34.5,9C 31.9462,11.0634 29.2796,12.8967 26.5,14.5C 23.9064,13.6158 21.4064,12.6158 19,11.5C 17.4672,11.7728 15.9672,12.1062 14.5,12.5C 20.9716,6.02321 28.6382,1.68988 37.5,-0.5 Z"/></g>
<g><path style="opacity:1" fill="#deeefc" d="M 83.5,15.5 C 85.5869,16.5846 86.9202,18.2512 87.5,20.5C 85.6736,22.1475 84.3403,24.1475 83.5,26.5C 82.6724,32.3193 82.1724,38.3193 82,44.5C 81.6667,44.8333 81.3333,45.1667 81,45.5C 80.8019,43.6183 80.3019,41.9516 79.5,40.5C 79.5,39.8333 79.1667,39.5 78.5,39.5C 79.5366,37.2625 79.7033,34.9291 79,32.5C 77.1737,29.3966 75.8404,26.0633 75,22.5C 72.4609,18.6236 70.1276,18.6236 68,22.5C 66.8378,27.7919 65.8378,33.1252 65,38.5C 63.9395,35.834 63.1061,33.1673 62.5,30.5C 62.5,30.1667 62.5,29.8333 62.5,29.5C 62.1857,26.0534 61.3524,22.7201 60,19.5C 58.9243,16.921 57.091,15.2543 54.5,14.5C 53.5084,14.3284 52.8417,14.6618 52.5,15.5C 50.2046,17.385 47.538,17.885 44.5,17C 38.4925,10.3362 35.4925,11.5029 35.5,20.5C 33.0079,24.5463 30.8413,24.213 29,19.5C 28.6667,19.8333 28.3333,20.1667 28,20.5C 27.9714,25.3631 27.1381,30.0297 25.5,34.5C 24.914,34.2907 24.414,33.9574 24,33.5C 23.6667,28.1667 23.3333,22.8333 23,17.5C 20.1072,14.8496 16.6072,13.8496 12.5,14.5C 12.8333,13.5 13.5,12.8333 14.5,12.5C 15.9672,12.1062 17.4672,11.7728 19,11.5C 21.4064,12.6158 23.9064,13.6158 26.5,14.5C 29.2796,12.8967 31.9462,11.0634 34.5,9C 37.6944,8.40766 40.8611,8.57432 44,9.5C 48.7357,7.88684 53.569,7.38684 58.5,8C 60.6112,9.73468 62.6112,11.568 64.5,13.5C 66.5917,10.8478 69.2583,10.0145 72.5,11C 75.7621,13.592 78.2621,16.7587 80,20.5C 81.6257,19.0445 82.7924,17.3779 83.5,15.5 Z"/></g>
<g><path style="opacity:1" fill="#09090a" d="M 52.5,15.5 C 53.4767,18.2869 53.81,21.2869 53.5,24.5C 47.9772,24.0692 42.6439,24.7359 37.5,26.5C 36.7148,24.6264 36.0482,22.6264 35.5,20.5C 35.4925,11.5029 38.4925,10.3362 44.5,17C 47.538,17.885 50.2046,17.385 52.5,15.5 Z"/></g>
<g><path style="opacity:1" fill="#58ceff" d="M 16.5,16.5 C 17.0431,16.56 17.3764,16.8933 17.5,17.5C 9.2025,28.9989 7.53583,41.3322 12.5,54.5C 13.9778,54.238 15.3112,54.5713 16.5,55.5C 20.0681,61.3711 24.0681,66.7044 28.5,71.5C 30.2503,72.6594 31.2503,74.326 31.5,76.5C 30.8485,77.0906 30.1818,77.7573 29.5,78.5C 11.9211,68.6758 4.4211,53.6758 7,33.5C 8.10293,28.6284 9.76959,23.9617 12,19.5C 13.129,17.8588 14.629,16.8588 16.5,16.5 Z"/></g>
<g><path style="opacity:1" fill="#70d2fc" d="M 11.5,15.5 C 11.5,14.8333 11.8333,14.5 12.5,14.5C 16.6072,13.8496 20.1072,14.8496 23,17.5C 23.3333,22.8333 23.6667,28.1667 24,33.5C 24.414,33.9574 24.914,34.2907 25.5,34.5C 27.1381,30.0297 27.9714,25.3631 28,20.5C 28.3333,20.1667 28.6667,19.8333 29,19.5C 30.8413,24.213 33.0079,24.5463 35.5,20.5C 36.0482,22.6264 36.7148,24.6264 37.5,26.5C 37.5,27.1667 37.5,27.8333 37.5,28.5C 35.1795,29.4185 33.0129,30.7518 31,32.5C 30.1531,35.4904 31.3198,36.8238 34.5,36.5C 34.0792,40.7424 34.7459,44.7424 36.5,48.5C 34.2712,50.0993 33.9378,52.0993 35.5,54.5C 33.0721,53.7878 30.7388,52.7878 28.5,51.5C 27.8933,51.6236 27.56,51.9569 27.5,52.5C 22.2781,49.4578 17.4448,45.7911 13,41.5C 12.3333,42.1667 12.3333,42.8333 13,43.5C 15.4449,44.9771 17.6116,46.8104 19.5,49C 17.5,50 15.5,51 13.5,52C 18.2007,50.7569 22.5341,51.5902 26.5,54.5C 25.7731,58.2243 27.1064,60.8909 30.5,62.5C 29.6906,64.0709 29.3573,65.7376 29.5,67.5C 28.5655,68.5676 28.2322,69.901 28.5,71.5C 24.0681,66.7044 20.0681,61.3711 16.5,55.5C 15.3112,54.5713 13.9778,54.238 12.5,54.5C 7.53583,41.3322 9.2025,28.9989 17.5,17.5C 17.3764,16.8933 17.0431,16.56 16.5,16.5C 15.0813,15.5489 13.4147,15.2155 11.5,15.5 Z"/></g>
<g><path style="opacity:1" fill="#47768b" d="M 52.5,15.5 C 52.8417,14.6618 53.5084,14.3284 54.5,14.5C 54.5,18.1667 54.5,21.8333 54.5,25.5C 53.8333,25.5 53.5,25.1667 53.5,24.5C 53.81,21.2869 53.4767,18.2869 52.5,15.5 Z"/></g>
<g><path style="opacity:1" fill="#83d8fc" d="M 54.5,14.5 C 57.091,15.2543 58.9243,16.921 60,19.5C 61.3524,22.7201 62.1857,26.0534 62.5,29.5C 60.0075,28.2264 57.3408,27.5597 54.5,27.5C 54.5,26.8333 54.5,26.1667 54.5,25.5C 54.5,21.8333 54.5,18.1667 54.5,14.5 Z"/></g>
<g><path style="opacity:0.956" fill="#4acbff" d="M 11.5,15.5 C 13.4147,15.2155 15.0813,15.5489 16.5,16.5C 14.629,16.8588 13.129,17.8588 12,19.5C 9.76959,23.9617 8.10293,28.6284 7,33.5C 4.4211,53.6758 11.9211,68.6758 29.5,78.5C 30.1818,77.7573 30.8485,77.0906 31.5,76.5C 32.1534,77.8068 32.8201,79.1401 33.5,80.5C 32.1482,81.5244 30.8149,82.5244 29.5,83.5C 16.6904,78.5293 7.85709,69.1959 3,55.5C 1.66721,48.9571 0.833873,42.6237 0.5,36.5C 2.35104,28.4613 6.01771,21.4613 11.5,15.5 Z"/></g>
<g><path style="opacity:1" fill="#50ccfe" d="M 87.5,20.5 C 91.1936,25.5747 93.527,31.2413 94.5,37.5C 94.637,55.8926 87.3037,70.5592 72.5,81.5C 72.1667,81.5 71.8333,81.5 71.5,81.5C 69.534,78.8433 66.8673,77.1767 63.5,76.5C 64.7472,74.677 65.4139,72.677 65.5,70.5C 68.8411,70.3441 71.6745,69.0108 74,66.5C 77.6631,62.1663 80.4964,57.3329 82.5,52C 83.0891,50.1267 82.4224,48.46 80.5,47C 82.6349,46.2411 83.9682,44.7411 84.5,42.5C 83.5488,37.2302 83.2154,31.8968 83.5,26.5C 84.3403,24.1475 85.6736,22.1475 87.5,20.5 Z"/></g>
<g><path style="opacity:1" fill="#eeb033" d="M 53.5,24.5 C 53.5,25.1667 53.8333,25.5 54.5,25.5C 54.5,26.1667 54.5,26.8333 54.5,27.5C 48.7969,27.3748 43.1302,27.7081 37.5,28.5C 37.5,27.8333 37.5,27.1667 37.5,26.5C 42.6439,24.7359 47.9772,24.0692 53.5,24.5 Z"/></g>
<g><path style="opacity:1" fill="#161512" d="M 54.5,27.5 C 57.3408,27.5597 60.0075,28.2264 62.5,29.5C 62.5,29.8333 62.5,30.1667 62.5,30.5C 62.3059,32.9118 60.9726,33.9118 58.5,33.5C 53.6154,30.5846 48.282,29.7512 42.5,31C 39.2409,32.1171 36.5743,33.9505 34.5,36.5C 31.3198,36.8238 30.1531,35.4904 31,32.5C 33.0129,30.7518 35.1795,29.4185 37.5,28.5C 43.1302,27.7081 48.7969,27.3748 54.5,27.5 Z"/></g>
<g><path style="opacity:1" fill="#f7f5f4" d="M 58.5,33.5 C 61.0901,38.4713 61.0901,43.4713 58.5,48.5C 51.1061,46.0044 43.7727,46.0044 36.5,48.5C 34.7459,44.7424 34.0792,40.7424 34.5,36.5C 36.5743,33.9505 39.2409,32.1171 42.5,31C 48.282,29.7512 53.6154,30.5846 58.5,33.5 Z"/></g>
<g><path style="opacity:1" fill="#434e55" d="M 49.5,34.5 C 51.337,34.6395 51.6704,35.3061 50.5,36.5C 49.7025,36.0431 49.3691,35.3764 49.5,34.5 Z"/></g>
<g><path style="opacity:1" fill="#ff7630" d="M 48.5,37.5 C 52.1021,37.678 52.1021,38.678 48.5,40.5C 47.4376,39.5754 47.4376,38.5754 48.5,37.5 Z"/></g>
<g><path style="opacity:1" fill="#84d3f9" d="M 78.5,39.5 C 74.8333,43.8333 70.8333,47.8333 66.5,51.5C 65.8501,51.1961 65.1835,50.8627 64.5,50.5C 62.4664,51.5588 60.4664,52.5588 58.5,53.5C 58.5,51.8333 58.5,50.1667 58.5,48.5C 61.0901,43.4713 61.0901,38.4713 58.5,33.5C 60.9726,33.9118 62.3059,32.9118 62.5,30.5C 63.1061,33.1673 63.9395,35.834 65,38.5C 65.8378,33.1252 66.8378,27.7919 68,22.5C 70.1276,18.6236 72.4609,18.6236 75,22.5C 75.8404,26.0633 77.1737,29.3966 79,32.5C 79.7033,34.9291 79.5366,37.2625 78.5,39.5 Z"/></g>
<g><path style="opacity:1" fill="#949494" d="M 54.5,38.5 C 55.9221,38.7496 56.9221,39.583 57.5,41C 55.8333,42 54.1667,43 52.5,44C 47.6727,44.6869 43.3394,44.1869 39.5,42.5C 39.8333,41.5 40.5,40.8333 41.5,40.5C 45.4445,43.9649 49.6112,44.2982 54,41.5C 54.4828,40.552 54.6495,39.552 54.5,38.5 Z"/></g>
<g><path style="opacity:1" fill="#fcad35" d="M 58.5,48.5 C 58.5,50.1667 58.5,51.8333 58.5,53.5C 55.6085,52.5975 52.6085,52.2641 49.5,52.5C 48.209,52.2627 47.209,52.596 46.5,53.5C 43.9505,53.5608 42.4505,54.8941 42,57.5C 41.5034,59.8098 41.3367,62.1432 41.5,64.5C 40.1667,64.5 38.8333,64.5 37.5,64.5C 37.4001,61.333 38.0668,58.333 39.5,55.5C 38.3112,54.5713 36.9778,54.238 35.5,54.5C 33.9378,52.0993 34.2712,50.0993 36.5,48.5C 43.7727,46.0044 51.1061,46.0044 58.5,48.5 Z"/></g>
<g><path style="opacity:1" fill="#6c4020" d="M 78.5,39.5 C 79.1667,39.5 79.5,39.8333 79.5,40.5C 78.2073,42.2959 76.7073,43.9625 75,45.5C 74.5172,46.448 74.3505,47.448 74.5,48.5C 76.604,48.2011 78.604,48.5344 80.5,49.5C 80,49.8333 79.5,50.1667 79,50.5C 74.7173,48.8523 70.884,49.519 67.5,52.5C 66.8333,52.5 66.5,52.1667 66.5,51.5C 70.8333,47.8333 74.8333,43.8333 78.5,39.5 Z"/></g>
<g><path style="opacity:1" fill="#6d4122" d="M 27.5,52.5 C 27.1667,53.1667 26.8333,53.8333 26.5,54.5C 22.5341,51.5902 18.2007,50.7569 13.5,52C 15.5,51 17.5,50 19.5,49C 17.6116,46.8104 15.4449,44.9771 13,43.5C 12.3333,42.8333 12.3333,42.1667 13,41.5C 17.4448,45.7911 22.2781,49.4578 27.5,52.5 Z"/></g>
<g><path style="opacity:1" fill="#69d1fc" d="M 83.5,26.5 C 83.2154,31.8968 83.5488,37.2302 84.5,42.5C 83.9682,44.7411 82.6349,46.2411 80.5,47C 82.4224,48.46 83.0891,50.1267 82.5,52C 80.4964,57.3329 77.6631,62.1663 74,66.5C 71.6745,69.0108 68.8411,70.3441 65.5,70.5C 65.5,69.8333 65.5,69.1667 65.5,68.5C 66.7757,65.8148 66.4424,63.1481 64.5,60.5C 65.8333,58.8333 67.1667,57.1667 68.5,55.5C 67.8728,54.5832 67.5394,53.5832 67.5,52.5C 70.884,49.519 74.7173,48.8523 79,50.5C 79.5,50.1667 80,49.8333 80.5,49.5C 78.604,48.5344 76.604,48.2011 74.5,48.5C 74.3505,47.448 74.5172,46.448 75,45.5C 76.7073,43.9625 78.2073,42.2959 79.5,40.5C 80.3019,41.9516 80.8019,43.6183 81,45.5C 81.3333,45.1667 81.6667,44.8333 82,44.5C 82.1724,38.3193 82.6724,32.3193 83.5,26.5 Z"/></g>
<g><path style="opacity:1" fill="#faf9fa" d="M 49.5,52.5 C 53.213,57.2593 55.8797,62.5927 57.5,68.5C 60.1977,67.1764 62.8643,67.1764 65.5,68.5C 65.5,69.1667 65.5,69.8333 65.5,70.5C 65.4139,72.677 64.7472,74.677 63.5,76.5C 66.8673,77.1767 69.534,78.8433 71.5,81.5C 65.0222,84.9665 58.3555,85.2998 51.5,82.5C 50.5713,83.6888 50.238,85.0222 50.5,86.5C 43.5,86.5 36.5,86.5 29.5,86.5C 29.5,85.5 29.5,84.5 29.5,83.5C 30.8149,82.5244 32.1482,81.5244 33.5,80.5C 32.8201,79.1401 32.1534,77.8068 31.5,76.5C 31.2503,74.326 30.2503,72.6594 28.5,71.5C 28.2322,69.901 28.5655,68.5676 29.5,67.5C 29.238,68.9778 29.5713,70.3112 30.5,71.5C 34.9966,69.7829 39.6632,69.1162 44.5,69.5C 44.0692,63.9772 44.7359,58.6439 46.5,53.5C 47.209,52.596 48.209,52.2627 49.5,52.5 Z"/></g>
<g><path style="opacity:1" fill="#fd3e3d" d="M 66.5,51.5 C 66.5,52.1667 66.8333,52.5 67.5,52.5C 67.5394,53.5832 67.8728,54.5832 68.5,55.5C 67.1667,57.1667 65.8333,58.8333 64.5,60.5C 66.4424,63.1481 66.7757,65.8148 65.5,68.5C 62.8643,67.1764 60.1977,67.1764 57.5,68.5C 55.8797,62.5927 53.213,57.2593 49.5,52.5C 52.6085,52.2641 55.6085,52.5975 58.5,53.5C 60.4664,52.5588 62.4664,51.5588 64.5,50.5C 65.1835,50.8627 65.8501,51.1961 66.5,51.5 Z"/></g>
<g><path style="opacity:0.937" fill="#40c9ff" d="M 0.5,36.5 C 0.833873,42.6237 1.66721,48.9571 3,55.5C 7.85709,69.1959 16.6904,78.5293 29.5,83.5C 29.5,84.5 29.5,85.5 29.5,86.5C 36.5,86.5 43.5,86.5 50.5,86.5C 55.4376,87.3924 60.4376,87.7257 65.5,87.5C 63.0314,88.3171 60.3647,88.8171 57.5,89C 66.6982,89.3925 66.6982,90.3925 57.5,92C 39.4654,94.9868 23.9654,90.1535 11,77.5C 10.6012,77.7284 10.4346,78.0618 10.5,78.5C 4.98382,72.4676 1.31716,65.4676 -0.5,57.5C -0.5,50.8333 -0.5,44.1667 -0.5,37.5C 0.166667,37.5 0.5,37.1667 0.5,36.5 Z"/></g>
<g><path style="opacity:1" fill="#fd3e3d" d="M 35.5,54.5 C 36.9778,54.238 38.3112,54.5713 39.5,55.5C 38.0668,58.333 37.4001,61.333 37.5,64.5C 38.8333,64.5 40.1667,64.5 41.5,64.5C 41.3367,62.1432 41.5034,59.8098 42,57.5C 42.4505,54.8941 43.9505,53.5608 46.5,53.5C 44.7359,58.6439 44.0692,63.9772 44.5,69.5C 39.6632,69.1162 34.9966,69.7829 30.5,71.5C 29.5713,70.3112 29.238,68.9778 29.5,67.5C 29.3573,65.7376 29.6906,64.0709 30.5,62.5C 27.1064,60.8909 25.7731,58.2243 26.5,54.5C 26.8333,53.8333 27.1667,53.1667 27.5,52.5C 27.56,51.9569 27.8933,51.6236 28.5,51.5C 30.7388,52.7878 33.0721,53.7878 35.5,54.5 Z"/></g>
<g><path style="opacity:0.809" fill="#39c8ff" d="M 94.5,37.5 C 94.5,38.1667 94.8333,38.5 95.5,38.5C 95.5,44.5 95.5,50.5 95.5,56.5C 90.2484,76.7513 77.5817,89.7513 57.5,95.5C 50.8333,95.5 44.1667,95.5 37.5,95.5C 26.7234,92.7364 17.7234,87.0697 10.5,78.5C 10.4346,78.0618 10.6012,77.7284 11,77.5C 23.9654,90.1535 39.4654,94.9868 57.5,92C 66.6982,90.3925 66.6982,89.3925 57.5,89C 60.3647,88.8171 63.0314,88.3171 65.5,87.5C 70.186,88.016 72.5193,86.016 72.5,81.5C 87.3037,70.5592 94.637,55.8926 94.5,37.5 Z"/></g>
<g><path style="opacity:1" fill="#c4effe" d="M 71.5,81.5 C 71.8333,81.5 72.1667,81.5 72.5,81.5C 72.5193,86.016 70.186,88.016 65.5,87.5C 60.4376,87.7257 55.4376,87.3924 50.5,86.5C 50.238,85.0222 50.5713,83.6888 51.5,82.5C 58.3555,85.2998 65.0222,84.9665 71.5,81.5 Z"/></g>
</svg>
