<?xml version="1.0" encoding="UTF-8"?>
<!DOCTYPE svg PUBLIC "-//W3C//DTD SVG 1.1//EN" "http://www.w3.org/Graphics/SVG/1.1/DTD/svg11.dtd">
<svg xmlns="http://www.w3.org/2000/svg" version="1.1" width="96px" height="96px" style="shape-rendering:geometricPrecision; text-rendering:geometricPrecision; image-rendering:optimizeQuality; fill-rule:evenodd; clip-rule:evenodd" xmlns:xlink="http://www.w3.org/1999/xlink">
<g><path style="opacity:1" fill="#8f6774" d="M 39.5,-0.5 C 43.8333,-0.5 48.1667,-0.5 52.5,-0.5C 43.0202,4.06977 33.3535,8.4031 23.5,12.5C 25.7867,8.87809 28.4534,5.54476 31.5,2.5C 34.1667,1.5 36.8333,0.5 39.5,-0.5 Z"/></g>
<g><path style="opacity:0.944" fill="#3a0f1c" d="M 54.5,-0.5 C 54.8333,-0.5 55.1667,-0.5 55.5,-0.5C 57.556,0.199272 59.556,1.19927 61.5,2.5C 59.3919,6.40053 57.0585,10.0672 54.5,13.5C 54.5,8.83333 54.5,4.16667 54.5,-0.5 Z"/></g>
<g><path style="opacity:1" fill="#663f4b" d="M 52.5,-0.5 C 53.1667,-0.5 53.8333,-0.5 54.5,-0.5C 54.5,4.16667 54.5,8.83333 54.5,13.5C 52.668,17.8362 50.3346,21.8362 47.5,25.5C 40.7756,22.6396 34.109,19.4729 27.5,16C 25.9069,15.0513 24.5736,13.8846 23.5,12.5C 33.3535,8.4031 43.0202,4.06977 52.5,-0.5 Z"/></g>
<g><path style="opacity:1" fill="#af8390" d="M 31.5,2.5 C 28.4534,5.54476 25.7867,8.87809 23.5,12.5C 23.1667,12.5 22.8333,12.5 22.5,12.5C 20.7376,11.7377 19.7376,10.4044 19.5,8.5C 23.2165,5.97506 27.2165,3.97506 31.5,2.5 Z"/></g>
<g><path style="opacity:1" fill="#ef74a9" d="M 84.5,17.5 C 78.9933,21.8478 73.16,25.8478 67,29.5C 66.5065,27.8659 66.3398,26.1992 66.5,24.5C 66.5,18.8333 66.5,13.1667 66.5,7.5C 66.4148,6.00475 67.0815,5.00475 68.5,4.5C 75.0369,7.37203 80.3703,11.7054 84.5,17.5 Z"/></g>
<g><path style="opacity:1" fill="#c9a5b0" d="M 19.5,8.5 C 19.7376,10.4044 20.7376,11.7377 22.5,12.5C 22.5,12.8333 22.5,13.1667 22.5,13.5C 16.8333,17.5 11.1667,21.5 5.5,25.5C 8.66215,18.6641 13.3288,12.9974 19.5,8.5 Z"/></g>
<g><path style="opacity:1" fill="#9d2056" d="M 66.5,7.5 C 66.5,13.1667 66.5,18.8333 66.5,24.5C 65.5386,26.2646 65.2053,28.2646 65.5,30.5C 61.1491,31.1703 56.8157,32.0036 52.5,33C 51.944,33.3826 51.6107,33.8826 51.5,34.5C 50.5354,33.2789 50.702,31.9456 52,30.5C 56.858,22.769 61.6914,15.1023 66.5,7.5 Z"/></g>
<g><path style="opacity:1" fill="#a87f8c" d="M 22.5,13.5 C 22.1981,21.9183 22.5314,30.2517 23.5,38.5C 22.7777,39.5511 21.7777,40.2178 20.5,40.5C 20.6107,39.8826 20.944,39.3826 21.5,39C 15.8779,35.0233 9.87787,31.8567 3.5,29.5C 3.6596,27.847 4.32627,26.5137 5.5,25.5C 11.1667,21.5 16.8333,17.5 22.5,13.5 Z"/></g>
<g><path style="opacity:1" fill="#936977" d="M 22.5,12.5 C 22.8333,12.5 23.1667,12.5 23.5,12.5C 24.5736,13.8846 25.9069,15.0513 27.5,16C 34.109,19.4729 40.7756,22.6396 47.5,25.5C 47.6716,26.4916 47.3382,27.1583 46.5,27.5C 38.9241,31.4555 31.2574,35.1221 23.5,38.5C 22.5314,30.2517 22.1981,21.9183 22.5,13.5C 22.5,13.1667 22.5,12.8333 22.5,12.5 Z"/></g>
<g><path style="opacity:1" fill="#ce5387" d="M 84.5,17.5 C 85.9063,17.9731 86.573,18.9731 86.5,20.5C 87.4959,27.7825 88.1626,35.1158 88.5,42.5C 80.964,38.2321 73.2973,34.2321 65.5,30.5C 65.2053,28.2646 65.5386,26.2646 66.5,24.5C 66.3398,26.1992 66.5065,27.8659 67,29.5C 73.16,25.8478 78.9933,21.8478 84.5,17.5 Z"/></g>
<g><path style="opacity:1" fill="#ed76ab" d="M 86.5,20.5 C 90.8595,26.2178 93.8595,32.5511 95.5,39.5C 95.5,40.5 95.5,41.5 95.5,42.5C 93.1667,42.5 90.8333,42.5 88.5,42.5C 88.1626,35.1158 87.4959,27.7825 86.5,20.5 Z"/></g>
<g><path style="opacity:0.991" fill="#c89eac" d="M 3.5,29.5 C 9.87787,31.8567 15.8779,35.0233 21.5,39C 20.944,39.3826 20.6107,39.8826 20.5,40.5C 13.5157,43.3255 6.84899,46.6588 0.5,50.5C 0.166667,50.5 -0.166667,50.5 -0.5,50.5C -0.5,46.8333 -0.5,43.1667 -0.5,39.5C 0.529796,36.0498 1.86313,32.7165 3.5,29.5 Z"/></g>
<g><path style="opacity:1" fill="#4d2431" d="M 46.5,27.5 C 42.5834,35.6746 37.9168,43.3412 32.5,50.5C 29.5,46.5 26.5,42.5 23.5,38.5C 31.2574,35.1221 38.9241,31.4555 46.5,27.5 Z"/></g>
<g><path style="opacity:0.994" fill="#6a092d" d="M 65.5,30.5 C 65.0737,39.3342 64.4071,48.0009 63.5,56.5C 59.5,49.1667 55.5,41.8333 51.5,34.5C 51.6107,33.8826 51.944,33.3826 52.5,33C 56.8157,32.0036 61.1491,31.1703 65.5,30.5 Z"/></g>
<g><path style="opacity:1" fill="#ba3b70" d="M 65.5,30.5 C 73.2973,34.2321 80.964,38.2321 88.5,42.5C 88.5,42.8333 88.5,43.1667 88.5,43.5C 80.5811,48.0804 72.9144,53.0804 65.5,58.5C 64.5,58.1667 63.8333,57.5 63.5,56.5C 64.4071,48.0009 65.0737,39.3342 65.5,30.5 Z"/></g>
<g><path style="opacity:1" fill="#744c58" d="M 23.5,38.5 C 26.5,42.5 29.5,46.5 32.5,50.5C 21.8333,50.5 11.1667,50.5 0.5,50.5C 6.84899,46.6588 13.5157,43.3255 20.5,40.5C 21.7777,40.2178 22.7777,39.5511 23.5,38.5 Z"/></g>
<g><path style="opacity:0.844" fill="#d05486" d="M 88.5,43.5 C 88.5,43.1667 88.5,42.8333 88.5,42.5C 90.8333,42.5 93.1667,42.5 95.5,42.5C 95.5,46.8333 95.5,51.1667 95.5,55.5C 95.1667,55.5 94.8333,55.5 94.5,55.5C 93.0234,51.2134 91.0234,47.2134 88.5,43.5 Z"/></g>
<g><path style="opacity:1" fill="#8c1845" d="M 88.5,43.5 C 87.0459,54.4107 86.0459,65.4107 85.5,76.5C 85.5,77.1667 85.1667,77.5 84.5,77.5C 79.8333,74.1667 75.1667,70.8333 70.5,67.5C 68.0764,64.9922 66.4097,61.9922 65.5,58.5C 72.9144,53.0804 80.5811,48.0804 88.5,43.5 Z"/></g>
<g><path style="opacity:1" fill="#b5386e" d="M 88.5,43.5 C 91.0234,47.2134 93.0234,51.2134 94.5,55.5C 93.392,63.3753 90.392,70.3753 85.5,76.5C 86.0459,65.4107 87.0459,54.4107 88.5,43.5 Z"/></g>
<g><path style="opacity:1" fill="#431121" d="M 16.5,56.5 C 11.8686,59.1514 7.20193,61.8181 2.5,64.5C 1.52498,61.9333 0.858311,59.2666 0.5,56.5C 5.83333,56.5 11.1667,56.5 16.5,56.5 Z"/></g>
<g><path style="opacity:1" fill="#871641" d="M 16.5,56.5 C 20.5,56.5 24.5,56.5 28.5,56.5C 29.2324,65.815 29.5657,75.1483 29.5,84.5C 29.1667,84.5 28.8333,84.5 28.5,84.5C 20.8888,78.3542 12.8888,72.6876 4.5,67.5C 3.59872,66.7095 2.93205,65.7095 2.5,64.5C 7.20193,61.8181 11.8686,59.1514 16.5,56.5 Z"/></g>
<g><path style="opacity:1" fill="#6c0a2c" d="M 30.5,56.5 C 38.8333,56.5 47.1667,56.5 55.5,56.5C 55.2353,61.8994 53.902,66.8994 51.5,71.5C 44.1982,66.8558 37.1982,61.8558 30.5,56.5 Z"/></g>
<g><path style="opacity:1" fill="#b93c71" d="M 28.5,56.5 C 29.1667,56.5 29.8333,56.5 30.5,56.5C 37.1982,61.8558 44.1982,66.8558 51.5,71.5C 51.5,71.8333 51.5,72.1667 51.5,72.5C 44.4946,77.0045 37.1613,81.0045 29.5,84.5C 29.5657,75.1483 29.2324,65.815 28.5,56.5 Z"/></g>
<g><path style="opacity:1" fill="#9a2154" d="M 55.5,56.5 C 61.92,65.6656 67.5866,75.3323 72.5,85.5C 66.1842,81.5265 59.8508,77.5265 53.5,73.5C 53.1583,72.6618 52.4916,72.3284 51.5,72.5C 51.5,72.1667 51.5,71.8333 51.5,71.5C 53.902,66.8994 55.2353,61.8994 55.5,56.5 Z"/></g>
<g><path style="opacity:1" fill="#b53a6c" d="M 4.5,67.5 C 12.8888,72.6876 20.8888,78.3542 28.5,84.5C 24.4659,84.4955 20.4659,84.1621 16.5,83.5C 10.5832,79.586 6.58322,74.2526 4.5,67.5 Z"/></g>
<g><path style="opacity:1" fill="#cd5287" d="M 51.5,72.5 C 52.4916,72.3284 53.1583,72.6618 53.5,73.5C 52.189,80.7347 52.189,88.068 53.5,95.5C 52.8333,95.5 52.1667,95.5 51.5,95.5C 44.7124,91.9416 37.7124,88.6082 30.5,85.5C 29.2371,87.0287 28.2371,88.6954 27.5,90.5C 23.0243,89.3429 19.3577,87.0095 16.5,83.5C 20.4659,84.1621 24.4659,84.4955 28.5,84.5C 28.8333,84.5 29.1667,84.5 29.5,84.5C 37.1613,81.0045 44.4946,77.0045 51.5,72.5 Z"/></g>
<g><path style="opacity:1" fill="#3e0e1e" d="M 70.5,67.5 C 75.1667,70.8333 79.8333,74.1667 84.5,77.5C 82.8564,79.4807 81.1897,81.4807 79.5,83.5C 75.9693,78.4358 72.9693,73.1025 70.5,67.5 Z"/></g>
<g><path style="opacity:1" fill="#ed72a7" d="M 53.5,73.5 C 59.8508,77.5265 66.1842,81.5265 72.5,85.5C 73.7759,86.3864 73.7759,87.3864 72.5,88.5C 67.066,91.7272 61.3993,94.0606 55.5,95.5C 54.8333,95.5 54.1667,95.5 53.5,95.5C 52.189,88.068 52.189,80.7347 53.5,73.5 Z"/></g>
<g><path style="opacity:1" fill="#eb75a9" d="M 51.5,95.5 C 47.5,95.5 43.5,95.5 39.5,95.5C 35.2622,94.4385 31.2622,92.7719 27.5,90.5C 28.2371,88.6954 29.2371,87.0287 30.5,85.5C 37.7124,88.6082 44.7124,91.9416 51.5,95.5 Z"/></g>
</svg>
