<?xml version="1.0" encoding="UTF-8"?>
<!DOCTYPE svg PUBLIC "-//W3C//DTD SVG 1.1//EN" "http://www.w3.org/Graphics/SVG/1.1/DTD/svg11.dtd">
<svg xmlns="http://www.w3.org/2000/svg" version="1.1" width="96px" height="96px" style="shape-rendering:geometricPrecision; text-rendering:geometricPrecision; image-rendering:optimizeQuality; fill-rule:evenodd; clip-rule:evenodd" xmlns:xlink="http://www.w3.org/1999/xlink">
<g><path style="opacity:1" fill="#f2716a" d="M 46.5,-0.5 C 47.1667,-0.5 47.8333,-0.5 48.5,-0.5C 58.6025,6.05885 68.9358,12.3922 79.5,18.5C 80.4287,19.6888 80.762,21.0222 80.5,22.5C 79.8423,21.6016 79.1757,20.6016 78.5,19.5C 68.1495,25.5276 57.8162,31.5276 47.5,37.5C 36.5901,31.214 25.5901,25.214 14.5,19.5C 25.4326,13.2291 36.0992,6.56243 46.5,-0.5 Z"/></g>
<g><path style="opacity:1" fill="#a14640" d="M 14.5,19.5 C 25.5901,25.214 36.5901,31.214 47.5,37.5C 47.5,41.5 47.5,45.5 47.5,49.5C 42.8165,47.1373 38.1499,44.8039 33.5,42.5C 33.0269,41.0937 32.0269,40.427 30.5,40.5C 25.2028,37.1807 19.8695,33.8474 14.5,30.5C 14.5,26.8333 14.5,23.1667 14.5,19.5 Z"/></g>
<g><path style="opacity:1" fill="#da5a53" d="M 80.5,22.5 C 80.5,25.5 80.5,28.5 80.5,31.5C 78.847,31.6596 77.5137,32.3263 76.5,33.5C 73.7413,31.7069 70.7413,31.2069 67.5,32C 62.4097,34.0144 58.4097,37.181 55.5,41.5C 54.6908,43.0276 54.0241,44.6943 53.5,46.5C 51.5,47.5 49.5,48.5 47.5,49.5C 47.5,45.5 47.5,41.5 47.5,37.5C 57.8162,31.5276 68.1495,25.5276 78.5,19.5C 79.1757,20.6016 79.8423,21.6016 80.5,22.5 Z"/></g>
<g><path style="opacity:1" fill="#ed6c65" d="M 76.5,33.5 C 77.5137,34.6737 78.847,35.3404 80.5,35.5C 81.9931,36.3121 82.6598,37.6455 82.5,39.5C 82.6598,41.3545 81.9931,42.6879 80.5,43.5C 78.901,43.2322 77.5676,43.5655 76.5,44.5C 74.9382,44.7329 73.6049,45.3995 72.5,46.5C 71.8333,46.5 71.5,46.8333 71.5,47.5C 69.7697,48.0256 68.4363,49.0256 67.5,50.5C 66.8333,50.8333 66.1667,51.1667 65.5,51.5C 65.6567,50.1266 65.49,48.7932 65,47.5C 61.8896,45.3642 58.7229,43.3642 55.5,41.5C 58.4097,37.181 62.4097,34.0144 67.5,32C 70.7413,31.2069 73.7413,31.7069 76.5,33.5 Z"/></g>
<g><path style="opacity:1" fill="#896b59" d="M 14.5,30.5 C 19.8695,33.8474 25.2028,37.1807 30.5,40.5C 29.8333,40.5 29.1667,40.5 28.5,40.5C 27.7219,47.0679 26.7219,53.7345 25.5,60.5C 21.6017,58.8081 17.9351,57.1414 14.5,55.5C 14.5,47.1667 14.5,38.8333 14.5,30.5 Z"/></g>
<g><path style="opacity:0.988" fill="#c0987f" d="M 80.5,31.5 C 80.5,32.8333 80.5,34.1667 80.5,35.5C 78.847,35.3404 77.5137,34.6737 76.5,33.5C 77.5137,32.3263 78.847,31.6596 80.5,31.5 Z"/></g>
<g><path style="opacity:1" fill="#866957" d="M 33.5,42.5 C 38.1499,44.8039 42.8165,47.1373 47.5,49.5C 47.8229,55.69 47.4896,61.69 46.5,67.5C 42.5448,62.3732 38.3781,57.3732 34,52.5C 33.5017,49.1832 33.335,45.8499 33.5,42.5 Z"/></g>
<g><path style="opacity:1" fill="#a0463f" d="M 55.5,41.5 C 58.7229,43.3642 61.8896,45.3642 65,47.5C 65.49,48.7932 65.6567,50.1266 65.5,51.5C 64.8333,51.5 64.1667,51.5 63.5,51.5C 63.1667,51.5 62.8333,51.5 62.5,51.5C 61.7377,49.7376 60.4044,48.7376 58.5,48.5C 57.2196,47.0687 55.5529,46.4021 53.5,46.5C 54.0241,44.6943 54.6908,43.0276 55.5,41.5 Z"/></g>
<g><path style="opacity:1" fill="#3d282d" d="M 76.5,44.5 C 76.627,47.245 75.4603,49.245 73,50.5C 72.51,49.2068 72.3433,47.8734 72.5,46.5C 73.6049,45.3995 74.9382,44.7329 76.5,44.5 Z"/></g>
<g><path style="opacity:1" fill="#878787" d="M 28.5,40.5 C 28.811,41.4778 29.4777,42.1445 30.5,42.5C 31.1246,46.9072 31.958,51.2406 33,55.5C 37.6991,61.0286 42.5324,66.362 47.5,71.5C 47.5,72.8333 47.5,74.1667 47.5,75.5C 45.9505,74.5592 44.2838,73.8925 42.5,73.5C 39.106,70.7795 35.4394,68.4462 31.5,66.5C 30.3998,65.4415 29.0664,64.6082 27.5,64C 26.1772,63.1841 25.5106,62.0174 25.5,60.5C 26.7219,53.7345 27.7219,47.0679 28.5,40.5 Z"/></g>
<g><path style="opacity:1" fill="#bb937b" d="M 80.5,43.5 C 80.5,45.5 80.5,47.5 80.5,49.5C 69.6907,56.0743 58.6907,62.4076 47.5,68.5C 46.8933,68.3764 46.56,68.0431 46.5,67.5C 47.4896,61.69 47.8229,55.69 47.5,49.5C 49.5,48.5 51.5,47.5 53.5,46.5C 55.5529,46.4021 57.2196,47.0687 58.5,48.5C 55.0649,49.4888 53.7315,51.8222 54.5,55.5C 54.8333,57.1667 55.1667,58.8333 55.5,60.5C 56.9014,59.4793 58.2347,58.4793 59.5,57.5C 62.8044,56.8559 64.1378,54.8559 63.5,51.5C 64.1667,51.5 64.8333,51.5 65.5,51.5C 66.1667,51.1667 66.8333,50.8333 67.5,50.5C 67.7751,52.7583 68.7751,53.0916 70.5,51.5C 71.4287,50.3112 71.762,48.9778 71.5,47.5C 71.5,46.8333 71.8333,46.5 72.5,46.5C 72.3433,47.8734 72.51,49.2068 73,50.5C 75.4603,49.245 76.627,47.245 76.5,44.5C 77.5676,43.5655 78.901,43.2322 80.5,43.5 Z"/></g>
<g><path style="opacity:1" fill="#f1ecea" d="M 58.5,48.5 C 60.4044,48.7376 61.7377,49.7376 62.5,51.5C 60.087,52.6798 59.087,54.6798 59.5,57.5C 58.2347,58.4793 56.9014,59.4793 55.5,60.5C 55.1667,58.8333 54.8333,57.1667 54.5,55.5C 53.7315,51.8222 55.0649,49.4888 58.5,48.5 Z"/></g>
<g><path style="opacity:1" fill="#fbf7f5" d="M 71.5,47.5 C 71.762,48.9778 71.4287,50.3112 70.5,51.5C 68.7751,53.0916 67.7751,52.7583 67.5,50.5C 68.4363,49.0256 69.7697,48.0256 71.5,47.5 Z"/></g>
<g><path style="opacity:1" fill="#d5d6d6" d="M 82.5,51.5 C 82.8342,54.188 82.1675,56.5214 80.5,58.5C 77.195,62.6366 73.3616,66.3033 69,69.5C 67.9055,71.0779 67.0722,72.7446 66.5,74.5C 66.1667,74.5 65.8333,74.5 65.5,74.5C 63.281,73.1204 61.281,73.4537 59.5,75.5C 57.5841,74.7517 55.5841,74.7517 53.5,75.5C 51.6112,74.2584 49.6112,74.2584 47.5,75.5C 47.5,74.1667 47.5,72.8333 47.5,71.5C 59.0038,64.5804 70.6705,57.9138 82.5,51.5 Z"/></g>
<g><path style="opacity:1" fill="#f5f3f2" d="M 28.5,40.5 C 29.1667,40.5 29.8333,40.5 30.5,40.5C 32.0269,40.427 33.0269,41.0937 33.5,42.5C 33.335,45.8499 33.5017,49.1832 34,52.5C 38.3781,57.3732 42.5448,62.3732 46.5,67.5C 46.56,68.0431 46.8933,68.3764 47.5,68.5C 58.6907,62.4076 69.6907,56.0743 80.5,49.5C 81.1667,50.1667 81.8333,50.8333 82.5,51.5C 70.6705,57.9138 59.0038,64.5804 47.5,71.5C 42.5324,66.362 37.6991,61.0286 33,55.5C 31.958,51.2406 31.1246,46.9072 30.5,42.5C 29.4777,42.1445 28.811,41.4778 28.5,40.5 Z"/></g>
<g><path style="opacity:1" fill="#3d272f" d="M 62.5,51.5 C 62.8333,51.5 63.1667,51.5 63.5,51.5C 64.1378,54.8559 62.8044,56.8559 59.5,57.5C 59.087,54.6798 60.087,52.6798 62.5,51.5 Z"/></g>
<g><path style="opacity:1" fill="#a43e5c" d="M 18.5,73.5 C 18.1667,73.5 17.8333,73.5 17.5,73.5C 14.6879,73.0208 13.3545,71.3541 13.5,68.5C 13.6399,66.9704 14.3065,65.9704 15.5,65.5C 16.4733,64.016 17.8067,63.516 19.5,64C 21.0406,66.9156 22.7073,69.7489 24.5,72.5C 22.9272,74.8362 21.5939,74.8362 20.5,72.5C 19.8165,72.8627 19.1499,73.1961 18.5,73.5 Z"/></g>
<g><path style="opacity:1" fill="#c04c5f" d="M 80.5,58.5 C 80.9396,62.1785 80.273,65.5118 78.5,68.5C 74.2165,69.9751 70.2165,71.9751 66.5,74.5C 67.0722,72.7446 67.9055,71.0779 69,69.5C 73.3616,66.3033 77.195,62.6366 80.5,58.5 Z"/></g>
<g><path style="opacity:1" fill="#b24a50" d="M 14.5,55.5 C 17.9351,57.1414 21.6017,58.8081 25.5,60.5C 25.5106,62.0174 26.1772,63.1841 27.5,64C 29.0664,64.6082 30.3998,65.4415 31.5,66.5C 32.8389,69.2219 31.8389,70.8885 28.5,71.5C 27,69.1667 25.5,66.8333 24,64.5C 23.3457,63.3044 22.8457,63.3044 22.5,64.5C 23.8333,66.8333 25.1667,69.1667 26.5,71.5C 26.2907,72.086 25.9574,72.586 25.5,73C 27.5206,73.513 29.0206,74.6797 30,76.5C 30.4922,75.451 30.3256,74.451 29.5,73.5C 32.4133,70.6419 34.7467,71.1419 36.5,75C 33.7613,76.0259 31.428,77.5259 29.5,79.5C 29.1667,79.5 28.8333,79.5 28.5,79.5C 25.1309,77.4854 21.7976,75.4854 18.5,73.5C 19.1499,73.1961 19.8165,72.8627 20.5,72.5C 21.5939,74.8362 22.9272,74.8362 24.5,72.5C 22.7073,69.7489 21.0406,66.9156 19.5,64C 17.8067,63.516 16.4733,64.016 15.5,65.5C 14.6758,62.2356 14.3424,58.9023 14.5,55.5 Z"/></g>
<g><path style="opacity:1" fill="#886d5a" d="M 17.5,73.5 C 17.8333,73.5 18.1667,73.5 18.5,73.5C 21.7976,75.4854 25.1309,77.4854 28.5,79.5C 28.298,81.9496 28.6314,84.283 29.5,86.5C 28.8826,86.6107 28.3826,86.944 28,87.5C 24.3333,85.1667 20.6667,82.8333 17,80.5C 16.2967,78.0709 16.4634,75.7375 17.5,73.5 Z"/></g>
<g><path style="opacity:1" fill="#c76d62" d="M 31.5,66.5 C 35.4394,68.4462 39.106,70.7795 42.5,73.5C 42.2014,75.4553 41.2014,76.7886 39.5,77.5C 36.7729,78.5771 33.9396,79.5771 31,80.5C 30.2352,80.4301 29.7352,80.0967 29.5,79.5C 31.428,77.5259 33.7613,76.0259 36.5,75C 34.7467,71.1419 32.4133,70.6419 29.5,73.5C 30.3256,74.451 30.4922,75.451 30,76.5C 29.0206,74.6797 27.5206,73.513 25.5,73C 25.9574,72.586 26.2907,72.086 26.5,71.5C 25.1667,69.1667 23.8333,66.8333 22.5,64.5C 22.8457,63.3044 23.3457,63.3044 24,64.5C 25.5,66.8333 27,69.1667 28.5,71.5C 31.8389,70.8885 32.8389,69.2219 31.5,66.5 Z"/></g>
<g><path style="opacity:1" fill="#c04c5a" d="M 65.5,74.5 C 61.1731,77.9987 56.5064,80.9987 51.5,83.5C 50.609,84.1098 49.609,84.4431 48.5,84.5C 47.2617,84.19 47.2617,83.69 48.5,83C 50.3325,82.2515 51.9991,81.2515 53.5,80C 50.304,77.4642 50.304,75.9642 53.5,75.5C 55.5841,74.7517 57.5841,74.7517 59.5,75.5C 61.281,73.4537 63.281,73.1204 65.5,74.5 Z"/></g>
<g><path style="opacity:1" fill="#a43f5b" d="M 42.5,73.5 C 44.2838,73.8925 45.9505,74.5592 47.5,75.5C 49.6112,74.2584 51.6112,74.2584 53.5,75.5C 50.304,75.9642 50.304,77.4642 53.5,80C 51.9991,81.2515 50.3325,82.2515 48.5,83C 47.2617,83.69 47.2617,84.19 48.5,84.5C 48.44,85.0431 48.1067,85.3764 47.5,85.5C 44.6067,83.5554 41.6067,81.8887 38.5,80.5C 38.5569,79.391 38.8902,78.391 39.5,77.5C 41.2014,76.7886 42.2014,75.4553 42.5,73.5 Z"/></g>
<g><path style="opacity:1" fill="#3a1925" d="M 78.5,68.5 C 79.7773,69.6936 80.4439,71.3603 80.5,73.5C 80.3333,75.1667 80.1667,76.8333 80,78.5C 74.5575,82.0941 69.3909,85.2608 64.5,88C 60.0608,89.9675 56.0608,92.4675 52.5,95.5C 52.1667,95.5 51.8333,95.5 51.5,95.5C 51.6171,91.1903 51.6171,87.1903 51.5,83.5C 56.5064,80.9987 61.1731,77.9987 65.5,74.5C 65.8333,74.5 66.1667,74.5 66.5,74.5C 70.2165,71.9751 74.2165,69.9751 78.5,68.5 Z"/></g>
<g><path style="opacity:1" fill="#c19981" d="M 39.5,77.5 C 38.8902,78.391 38.5569,79.391 38.5,80.5C 36.6115,81.604 34.9448,82.9373 33.5,84.5C 32.1667,85.1667 30.8333,85.8333 29.5,86.5C 28.6314,84.283 28.298,81.9496 28.5,79.5C 28.8333,79.5 29.1667,79.5 29.5,79.5C 29.7352,80.0967 30.2352,80.4301 31,80.5C 33.9396,79.5771 36.7729,78.5771 39.5,77.5 Z"/></g>
<g><path style="opacity:0.999" fill="#271219" d="M 38.5,80.5 C 41.6067,81.8887 44.6067,83.5554 47.5,85.5C 48.1067,85.3764 48.44,85.0431 48.5,84.5C 49.609,84.4431 50.609,84.1098 51.5,83.5C 51.6171,87.1903 51.6171,91.1903 51.5,95.5C 51.1667,95.5 50.8333,95.5 50.5,95.5C 45.1253,91.4732 39.4586,87.8065 33.5,84.5C 34.9448,82.9373 36.6115,81.604 38.5,80.5 Z"/></g>
</svg>
