<?xml version="1.0" encoding="UTF-8"?>
<!DOCTYPE svg PUBLIC "-//W3C//DTD SVG 1.1//EN" "http://www.w3.org/Graphics/SVG/1.1/DTD/svg11.dtd">
<svg xmlns="http://www.w3.org/2000/svg" version="1.1" width="96px" height="96px" style="shape-rendering:geometricPrecision; text-rendering:geometricPrecision; image-rendering:optimizeQuality; fill-rule:evenodd; clip-rule:evenodd" xmlns:xlink="http://www.w3.org/1999/xlink">
<g><path style="opacity:1" fill="#9b9869" d="M 17.5,85.5 C 14.8333,83.5 12.5,81.1667 10.5,78.5C 9.09368,78.0269 8.42702,77.0269 8.5,75.5C 18.2283,71.8024 27.5617,67.3024 36.5,62C 37.7875,60.5905 38.9542,59.0905 40,57.5C 39.6263,60.275 38.6263,62.9417 37,65.5C 30.3643,71.1345 24.031,77.1345 18,83.5C 17.5357,84.0944 17.369,84.7611 17.5,85.5 Z"/></g>
<g><path style="opacity:1" fill="#1b1b40" d="M 15.5,75.5 C 14.3406,77.2503 12.674,78.2503 10.5,78.5C 11.6594,76.7497 13.326,75.7497 15.5,75.5 Z"/></g>
<g><path style="opacity:0.851" fill="#0a1140" d="M 37.5,-0.5 C 44.1667,-0.5 50.8333,-0.5 57.5,-0.5C 77.1667,5.16667 89.8333,17.8333 95.5,37.5C 95.5,44.1667 95.5,50.8333 95.5,57.5C 89.8333,77.1667 77.1667,89.8333 57.5,95.5C 50.8333,95.5 44.1667,95.5 37.5,95.5C 30.1615,93.499 23.4948,90.1657 17.5,85.5C 17.369,84.7611 17.5357,84.0944 18,83.5C 24.031,77.1345 30.3643,71.1345 37,65.5C 38.6263,62.9417 39.6263,60.275 40,57.5C 38.9542,59.0905 37.7875,60.5905 36.5,62C 27.5617,67.3024 18.2283,71.8024 8.5,75.5C 4.35959,70.0843 1.35959,64.0843 -0.5,57.5C -0.5,50.8333 -0.5,44.1667 -0.5,37.5C 5.16667,17.8333 17.8333,5.16667 37.5,-0.5 Z"/></g>
<g><path style="opacity:1" fill="#302c45" d="M 15.5,75.5 C 17.3307,73.2513 19.6641,72.0846 22.5,72C 20.4234,73.705 18.09,74.8717 15.5,75.5 Z"/></g>
<g><path style="opacity:1" fill="#e1ec7f" d="M 81.5,71.5 C 82.1098,72.391 82.4431,73.391 82.5,74.5C 80.4486,76.0376 78.782,75.7043 77.5,73.5C 78.3202,71.8888 79.6536,71.2222 81.5,71.5 Z"/></g>
<g><path style="opacity:1" fill="#424b89" d="M 74.5,70.5 C 77.0593,70.1984 79.3926,70.5318 81.5,71.5C 79.6536,71.2222 78.3202,71.8888 77.5,73.5C 78.782,75.7043 80.4486,76.0376 82.5,74.5C 82.5,75.1667 82.8333,75.5 83.5,75.5C 77.8666,84.1721 69.8666,89.6721 59.5,92C 45.8979,95.5193 33.2312,93.5193 21.5,86C 20.5494,85.2825 20.3828,84.4491 21,83.5C 27.8311,77.5021 34.3311,71.1688 40.5,64.5C 46.1073,67.758 52.1073,69.9246 58.5,71C 59.6667,71.5 60.5,72.3333 61,73.5C 64.0584,73.2371 67.2251,73.0705 70.5,73C 71.9839,72.3378 73.3172,71.5045 74.5,70.5 Z"/></g>
<g><path style="opacity:1" fill="#d7df80" d="M 57.5,79.5 C 58.5,79.5 59.5,79.5 60.5,79.5C 60.5,80.5 60.5,81.5 60.5,82.5C 59.5,82.5 58.5,82.5 57.5,82.5C 57.5,81.5 57.5,80.5 57.5,79.5 Z"/></g>
<g><path style="opacity:1" fill="#ced681" d="M 40.5,79.5 C 41.5,79.5 42.5,79.5 43.5,79.5C 43.4261,83.5412 42.0928,84.2079 39.5,81.5C 39.8627,80.8165 40.1961,80.1499 40.5,79.5 Z"/></g>
<g><path style="opacity:1" fill="#424a89" d="M 83.5,75.5 C 82.8333,75.5 82.5,75.1667 82.5,74.5C 82.4431,73.391 82.1098,72.391 81.5,71.5C 79.3926,70.5318 77.0593,70.1984 74.5,70.5C 76.3186,60.9323 75.4853,51.599 72,42.5C 71.1872,37.1851 70.5206,31.8517 70,26.5C 68.0937,21.2531 64.427,18.2531 59,17.5C 51.1866,19.5783 43.3533,21.5783 35.5,23.5C 35.5,22.5 35.5,21.5 35.5,20.5C 34.5,20.5 33.5,20.5 32.5,20.5C 32.2852,22.1788 32.9519,23.1788 34.5,23.5C 24.2481,27.5446 15.4148,33.8779 8,42.5C 7.33333,44.5 7.33333,46.5 8,48.5C 12.5825,53.5414 18.0825,57.208 24.5,59.5C 24.616,63.5634 25.9493,64.2301 28.5,61.5C 29.552,61.3505 30.552,61.5172 31.5,62C 24.8206,66.3412 17.8206,70.1746 10.5,73.5C 5.65576,68.1594 2.82243,61.8261 2,54.5C -0.14336,30.6144 9.68997,13.7811 31.5,4C 56.2946,-2.628 75.4613,4.872 89,26.5C 95.6598,42.6138 94.6598,58.2805 86,73.5C 85.2917,74.3805 84.4584,75.0472 83.5,75.5 Z"/></g>
<g><path style="opacity:1" fill="#197566" d="M 54.5,65.5 C 58.2279,68.1986 62.2279,69.1986 66.5,68.5C 67.1667,68.5 67.5,68.1667 67.5,67.5C 68.1667,68.1667 68.8333,68.8333 69.5,69.5C 67.8333,70.1667 66.1667,70.8333 64.5,71.5C 59.9681,70.2368 55.6347,68.4035 51.5,66C 50.3044,65.3457 50.3044,64.8457 51.5,64.5C 52.4168,65.1272 53.4168,65.4606 54.5,65.5 Z"/></g>
<g><path style="opacity:1" fill="#a4a07b" d="M 67.5,67.5 C 67.5,68.1667 67.1667,68.5 66.5,68.5C 62.5,67.5 58.5,66.5 54.5,65.5C 53.1498,64.3501 53.3164,63.6834 55,63.5C 59.3487,64.5722 63.5154,65.9055 67.5,67.5 Z"/></g>
<g><path style="opacity:1" fill="#0a133e" d="M 54.5,65.5 C 58.5,66.5 62.5,67.5 66.5,68.5C 62.2279,69.1986 58.2279,68.1986 54.5,65.5 Z"/></g>
<g><path style="opacity:1" fill="#5a5757" d="M 43.5,58.5 C 46.5746,59.5167 49.5746,60.6834 52.5,62C 49.7431,62.782 47.2431,62.282 45,60.5C 44.2232,62.7015 43.0565,62.7015 41.5,60.5C 42.2427,59.8182 42.9094,59.1515 43.5,58.5 Z"/></g>
<g><path style="opacity:1" fill="#dee881" d="M 28.5,61.5 C 25.9493,64.2301 24.616,63.5634 24.5,59.5C 26.7089,58.0242 28.0423,58.6909 28.5,61.5 Z"/></g>
<g><path style="opacity:1" fill="#d6d290" d="M 51.5,59.5 C 52.209,58.596 53.209,58.2627 54.5,58.5C 56.3173,59.2192 56.9839,60.2192 56.5,61.5C 54.8045,60.8256 53.1379,60.1589 51.5,59.5 Z"/></g>
<g><path style="opacity:1" fill="#65635b" d="M 54.5,58.5 C 53.209,58.2627 52.209,58.596 51.5,59.5C 49.4357,59.313 47.4357,58.813 45.5,58C 48.6965,57.1955 51.6965,57.3622 54.5,58.5 Z"/></g>
<g><path style="opacity:1" fill="#666353" d="M 32.5,56.5 C 33.675,56.281 34.675,56.6143 35.5,57.5C 33.9483,58.7979 32.9483,58.4646 32.5,56.5 Z"/></g>
<g><path style="opacity:1" fill="#75725d" d="M 22.5,54.5 C 22.7352,53.9033 23.2352,53.5699 24,53.5C 26.5411,54.007 29.0411,54.6737 31.5,55.5C 28.3736,56.6108 25.3736,56.2774 22.5,54.5 Z"/></g>
<g><path style="opacity:1" fill="#dce280" d="M 8.5,54.5 C 10.6246,55.3676 10.7913,56.3676 9,57.5C 7.31673,56.8235 7.15007,55.8235 8.5,54.5 Z"/></g>
<g><path style="opacity:1" fill="#6c685c" d="M 42.5,49.5 C 44.5492,49.7058 44.8825,50.5391 43.5,52C 44.9506,51.7374 46.2839,51.9041 47.5,52.5C 46.9747,53.1924 46.3081,53.6924 45.5,54C 48.0432,54.1397 50.3766,54.8063 52.5,56C 49.0598,56.112 45.7264,55.4453 42.5,54C 41.5868,52.5861 41.5868,51.0861 42.5,49.5 Z"/></g>
<g><path style="opacity:1" fill="#d2de7f" d="M 61.5,20.5 C 65.5842,22.0916 68.0842,25.0916 69,29.5C 68.7232,38.1306 70.0565,46.464 73,54.5C 73.8163,59.6842 73.6497,64.6842 72.5,69.5C 71.0198,65.0157 68.6865,61.0157 65.5,57.5C 66.1667,57.1667 66.8333,56.8333 67.5,56.5C 66.2388,53.7363 64.4054,51.403 62,49.5C 61.0296,47.7262 60.1963,45.8928 59.5,44C 60.9305,41.7084 61.7639,39.2084 62,36.5C 62.414,36.9574 62.914,37.2907 63.5,37.5C 65.0191,33.3034 64.3524,29.4701 61.5,26C 62.3081,25.6924 62.9747,25.1924 63.5,24.5C 62.6872,23.1861 61.6872,22.0195 60.5,21C 60.7284,20.6012 61.0618,20.4346 61.5,20.5 Z"/></g>
<g><path style="opacity:1" fill="#bcb885" d="M 15.5,48.5 C 18.5107,49.5606 21.5107,50.7273 24.5,52C 22.1902,52.4966 19.8568,52.6633 17.5,52.5C 16.7101,51.2058 15.7101,50.0391 14.5,49C 14.7284,48.6012 15.0618,48.4346 15.5,48.5 Z"/></g>
<g><path style="opacity:1" fill="#2c6e65" d="M 11.5,45.5 C 12.4475,46.9779 13.7809,47.9779 15.5,48.5C 15.0618,48.4346 14.7284,48.6012 14.5,49C 15.7101,50.0391 16.7101,51.2058 17.5,52.5C 18.463,53.3635 18.463,54.0302 17.5,54.5C 14.1956,52.8602 11.529,50.5269 9.5,47.5C 10.1667,46.8333 10.8333,46.1667 11.5,45.5 Z"/></g>
<g><path style="opacity:1" fill="#6c695b" d="M 39.5,47.5 C 41.332,48.1405 41.6653,49.1405 40.5,50.5C 39.6143,49.675 39.281,48.675 39.5,47.5 Z"/></g>
<g><path style="opacity:1" fill="#736f60" d="M 34.5,47.5 C 35.7927,46.3552 36.9593,46.6885 38,48.5C 38.6667,49.5 38.6667,50.5 38,51.5C 37.0513,49.9069 35.8846,48.5736 34.5,47.5 Z"/></g>
<g><path style="opacity:1" fill="#82806a" d="M 17.5,47.5 C 18.6009,46.4017 19.9343,46.235 21.5,47C 23.1667,48.1667 24.8333,49.3333 26.5,50.5C 26.3333,50.8333 26.1667,51.1667 26,51.5C 23.3413,49.7535 20.508,48.4202 17.5,47.5 Z"/></g>
<g><path style="opacity:1" fill="#a5a071" d="M 30.5,47.5 C 30.8966,46.475 31.5632,46.3083 32.5,47C 34.3293,48.1133 35.1626,49.6133 35,51.5C 33.6288,49.9586 32.1288,48.6253 30.5,47.5 Z"/></g>
<g><path style="opacity:1" fill="#cfcb8a" d="M 24.5,47.5 C 26.456,46.1988 28.1226,46.6988 29.5,49C 27.8107,48.8657 26.144,48.3657 24.5,47.5 Z"/></g>
<g><path style="opacity:1" fill="#cdd482" d="M 82.5,38.5 C 84.9118,38.6941 85.9118,40.0274 85.5,42.5C 80.8937,42.9492 79.8937,41.6159 82.5,38.5 Z"/></g>
<g><path style="opacity:1" fill="#1c987a" d="M 56.5,23.5 C 54.308,27.3773 51.9747,31.2106 49.5,35C 49.6667,35.5 49.8333,36 50,36.5C 51.5,34.1667 53,31.8333 54.5,29.5C 55.1667,28.1667 55.8333,28.1667 56.5,29.5C 55.7213,34.1133 55.2213,38.78 55,43.5C 54.3457,42.3044 53.8457,42.3044 53.5,43.5C 54.93,46.4327 56.93,48.9327 59.5,51C 57.6332,51.7112 56.1332,51.2112 55,49.5C 54.8333,49.8333 54.6667,50.1667 54.5,50.5C 55.8333,52.1667 57.1667,53.8333 58.5,55.5C 55.2266,54.4583 52.2266,52.2916 49.5,49C 48.0544,47.702 46.7211,47.5354 45.5,48.5C 41.7225,46.7206 37.7225,45.554 33.5,45C 26.1742,44.5003 18.8409,44.3337 11.5,44.5C 14.1667,43.8333 16.8333,43.1667 19.5,42.5C 26.948,42.1516 34.2813,42.8182 41.5,44.5C 42.9425,45.7027 44.6092,46.2027 46.5,46C 42.906,42.7952 40.7393,38.9619 40,34.5C 46.2181,31.759 51.7181,28.0923 56.5,23.5 Z"/></g>
<g><path style="opacity:1" fill="#d7de80" d="M 73.5,25.5 C 74.5,25.5 75.5,25.5 76.5,25.5C 75.7542,29.31 74.7542,29.31 73.5,25.5 Z"/></g>
<g><path style="opacity:1" fill="#2dc09b" d="M 61.5,20.5 C 61.0618,20.4346 60.7284,20.6012 60.5,21C 61.6872,22.0195 62.6872,23.1861 63.5,24.5C 62.9747,25.1924 62.3081,25.6924 61.5,26C 64.3524,29.4701 65.0191,33.3034 63.5,37.5C 62.914,37.2907 62.414,36.9574 62,36.5C 61.7639,39.2084 60.9305,41.7084 59.5,44C 60.1963,45.8928 61.0296,47.7262 62,49.5C 64.4054,51.403 66.2388,53.7363 67.5,56.5C 66.8333,56.8333 66.1667,57.1667 65.5,57.5C 68.6865,61.0157 71.0198,65.0157 72.5,69.5C 72.3893,70.1174 72.056,70.6174 71.5,71C 69.1902,71.4966 66.8568,71.6633 64.5,71.5C 66.1667,70.8333 67.8333,70.1667 69.5,69.5C 70.7911,68.4583 70.7911,67.2917 69.5,66C 60.9387,60.8909 52.9387,55.0576 45.5,48.5C 46.7211,47.5354 48.0544,47.702 49.5,49C 52.2266,52.2916 55.2266,54.4583 58.5,55.5C 57.1667,53.8333 55.8333,52.1667 54.5,50.5C 54.6667,50.1667 54.8333,49.8333 55,49.5C 56.1332,51.2112 57.6332,51.7112 59.5,51C 56.93,48.9327 54.93,46.4327 53.5,43.5C 53.8457,42.3044 54.3457,42.3044 55,43.5C 55.2213,38.78 55.7213,34.1133 56.5,29.5C 55.8333,28.1667 55.1667,28.1667 54.5,29.5C 53,31.8333 51.5,34.1667 50,36.5C 49.8333,36 49.6667,35.5 49.5,35C 51.9747,31.2106 54.308,27.3773 56.5,23.5C 55.1667,22.1667 53.8333,22.1667 52.5,23.5C 36.9213,24.4062 23.9213,30.5729 13.5,42C 15.4727,42.4955 17.4727,42.6621 19.5,42.5C 16.8333,43.1667 14.1667,43.8333 11.5,44.5C 11.5,44.8333 11.5,45.1667 11.5,45.5C 10.8333,46.1667 10.1667,46.8333 9.5,47.5C 8.42654,46.7494 8.25988,45.7494 9,44.5C 14.6201,37.8734 21.1201,32.3734 28.5,28C 37.5329,25.4597 46.5329,22.793 55.5,20C 57.7116,19.2109 59.7116,19.3775 61.5,20.5 Z"/></g>
<g><path style="opacity:1" fill="#167968" d="M 52.5,23.5 C 53.8333,22.1667 55.1667,22.1667 56.5,23.5C 51.7181,28.0923 46.2181,31.759 40,34.5C 40.7393,38.9619 42.906,42.7952 46.5,46C 44.6092,46.2027 42.9425,45.7027 41.5,44.5C 40.1073,41.9829 38.1073,40.3163 35.5,39.5C 35.7733,37.549 35.1066,36.049 33.5,35C 36.9814,31.2624 41.3147,29.429 46.5,29.5C 46.281,28.325 46.6143,27.325 47.5,26.5C 50.175,25.9766 51.8417,24.9766 52.5,23.5 Z"/></g>
<g><path style="opacity:1" fill="#0a1342" d="M 52.5,23.5 C 51.8417,24.9766 50.175,25.9766 47.5,26.5C 46.6143,27.325 46.281,28.325 46.5,29.5C 41.3147,29.429 36.9814,31.2624 33.5,35C 35.1066,36.049 35.7733,37.549 35.5,39.5C 38.1073,40.3163 40.1073,41.9829 41.5,44.5C 34.2813,42.8182 26.948,42.1516 19.5,42.5C 17.4727,42.6621 15.4727,42.4955 13.5,42C 23.9213,30.5729 36.9213,24.4062 52.5,23.5 Z"/></g>
<g><path style="opacity:1" fill="#e0e882" d="M 35.5,23.5 C 35.1667,23.5 34.8333,23.5 34.5,23.5C 32.9519,23.1788 32.2852,22.1788 32.5,20.5C 33.5,20.5 34.5,20.5 35.5,20.5C 35.5,21.5 35.5,22.5 35.5,23.5 Z"/></g>
<g><path style="opacity:1" fill="#c4cc82" d="M 19.5,16.5 C 21.0481,16.8212 21.7148,17.8212 21.5,19.5C 18.7524,19.5983 18.0857,18.5983 19.5,16.5 Z"/></g>
<g><path style="opacity:1" fill="#d0d880" d="M 40.5,6.5 C 42.337,6.63945 42.6704,7.30612 41.5,8.5C 40.7025,8.04311 40.3691,7.37644 40.5,6.5 Z"/></g>
</svg>
