<?xml version="1.0" encoding="UTF-8"?>
<!DOCTYPE svg PUBLIC "-//W3C//DTD SVG 1.1//EN" "http://www.w3.org/Graphics/SVG/1.1/DTD/svg11.dtd">
<svg xmlns="http://www.w3.org/2000/svg" version="1.1" width="96px" height="96px" style="shape-rendering:geometricPrecision; text-rendering:geometricPrecision; image-rendering:optimizeQuality; fill-rule:evenodd; clip-rule:evenodd" xmlns:xlink="http://www.w3.org/1999/xlink">
<g><path style="opacity:0.799" fill="#050505" d="M 37.5,-0.5 C 44.1667,-0.5 50.8333,-0.5 57.5,-0.5C 77.1403,5.14032 89.807,17.807 95.5,37.5C 95.5,44.1667 95.5,50.8333 95.5,57.5C 89.8333,77.1667 77.1667,89.8333 57.5,95.5C 50.8333,95.5 44.1667,95.5 37.5,95.5C 17.8333,89.8333 5.16667,77.1667 -0.5,57.5C -0.5,50.8333 -0.5,44.1667 -0.5,37.5C 5.16667,17.8333 17.8333,5.16667 37.5,-0.5 Z"/></g>
<g><path style="opacity:1" fill="#545454" d="M 36.5,2.5 C 64.0953,-0.696599 82.5953,10.6367 92,36.5C 95.9571,62.7664 85.7905,80.933 61.5,91C 34.1149,96.8921 14.9483,87.0587 4,61.5C -1.81787,32.457 9.01546,12.7904 36.5,2.5 Z"/></g>
<g><path style="opacity:1" fill="#070707" d="M 37.5,5.5 C 63.0565,2.85361 80.2231,13.5203 89,37.5C 92.3959,63.7504 81.5625,80.9171 56.5,89C 30.7743,91.935 13.941,81.1017 6,56.5C 3.17614,31.1769 13.6761,14.1769 37.5,5.5 Z"/></g>
<g><path style="opacity:1" fill="#f3f3f3" d="M 35.5,28.5 C 35.9081,29.6431 36.5748,30.6431 37.5,31.5C 40.0205,30.2147 42.6872,29.5481 45.5,29.5C 47.1667,29.5 48.8333,29.5 50.5,29.5C 54.2101,29.8743 57.2101,31.541 59.5,34.5C 64.4778,27.5313 68.9778,27.8646 73,35.5C 73.4974,38.146 73.6641,40.8127 73.5,43.5C 73.1667,44.1667 72.8333,44.8333 72.5,45.5C 70.7867,47.8504 68.4534,48.8504 65.5,48.5C 66.6205,57.8915 62.7871,61.2248 54,58.5C 52.9621,63.2735 50.1287,66.2735 45.5,67.5C 44.5,67.5 43.5,67.5 42.5,67.5C 42.7215,65.3364 43.7215,63.6697 45.5,62.5C 38.4901,64.9121 32.4901,63.5788 27.5,58.5C 26.0213,56.0884 26.5213,54.0884 29,52.5C 29.9011,49.4804 30.7345,46.4804 31.5,43.5C 32.1667,44.8333 32.8333,46.1667 33.5,47.5C 40.0698,50.4619 42.9031,48.1286 42,40.5C 40.4157,39.1387 38.5824,38.472 36.5,38.5C 35.5416,38.9528 34.7083,39.6195 34,40.5C 33.3828,39.5509 33.5494,38.7175 34.5,38C 33.244,37.5831 32.5774,36.7498 32.5,35.5C 33.4756,34.1851 34.4756,32.8518 35.5,31.5C 35.1373,30.8165 34.8039,30.1499 34.5,29.5C 34.5,28.8333 34.8333,28.5 35.5,28.5 Z"/></g>
<g><path style="opacity:1" fill="#1a1a1a" d="M 73.5,43.5 C 73.6641,40.8127 73.4974,38.146 73,35.5C 68.9778,27.8646 64.4778,27.5313 59.5,34.5C 57.2101,31.541 54.2101,29.8743 50.5,29.5C 49.791,28.596 48.791,28.2627 47.5,28.5C 48.609,23.5109 46.9424,19.8443 42.5,17.5C 39.7766,19.3981 36.9432,21.0648 34,22.5C 33.2042,25.0385 33.3709,27.3718 34.5,29.5C 34.8039,30.1499 35.1373,30.8165 35.5,31.5C 34.4756,32.8518 33.4756,34.1851 32.5,35.5C 32.1158,38.0808 31.7825,40.7475 31.5,43.5C 30.7345,46.4804 29.9011,49.4804 29,52.5C 26.5213,54.0884 26.0213,56.0884 27.5,58.5C 26.3065,58.9704 25.6399,59.9704 25.5,61.5C 25.8029,63.1143 26.4695,64.4477 27.5,65.5C 22.4617,65.1627 17.4617,64.496 12.5,63.5C 4.13406,38.8146 11.8007,20.9812 35.5,10C 47.774,7.96772 59.4407,9.80105 70.5,15.5C 70.8333,15.8333 71.1667,16.1667 71.5,16.5C 69.2338,17.3142 66.9005,17.8142 64.5,18C 67.5,18.3333 70.5,18.6667 73.5,19C 70.8333,19.3333 68.1667,19.6667 65.5,20C 69.211,20.1747 72.8776,20.6747 76.5,21.5C 75.9747,22.1924 75.3081,22.6924 74.5,23C 76.2556,23.2022 77.9223,23.7022 79.5,24.5C 75.9516,24.6186 72.285,24.7853 68.5,25C 73.1363,25.1125 77.4696,26.2792 81.5,28.5C 81.1667,28.8333 80.8333,29.1667 80.5,29.5C 75.4022,27.0575 70.0688,26.2241 64.5,27C 71.2414,27.5129 77.5747,29.3462 83.5,32.5C 83.1667,32.8333 82.8333,33.1667 82.5,33.5C 79.3974,31.5171 76.0641,30.6837 72.5,31C 76.9531,32.7263 81.2864,34.7263 85.5,37C 86.1667,39 86.8333,41 87.5,43C 86.9535,43.9246 86.2868,44.7579 85.5,45.5C 81.9562,44.2105 78.6229,42.5439 75.5,40.5C 78.4672,40.3658 81.3005,41.3658 84,43.5C 84.6172,42.5509 84.4506,41.7175 83.5,41C 80.9504,39.5584 78.2837,38.3917 75.5,37.5C 74.2404,39.3529 74.2404,41.1862 75.5,43C 78.9518,44.2257 82.2852,45.7257 85.5,47.5C 86.521,48.0016 86.6877,48.6683 86,49.5C 81.864,47.4011 77.6974,45.4011 73.5,43.5 Z"/></g>
<g><path style="opacity:1" fill="#040404" d="M 45.5,29.5 C 42.6872,29.5481 40.0205,30.2147 37.5,31.5C 36.5748,30.6431 35.9081,29.6431 35.5,28.5C 34.7822,26.8632 34.6155,25.1966 35,23.5C 37.5808,22.5828 39.9141,21.2495 42,19.5C 46.418,21.6331 47.5847,24.9665 45.5,29.5 Z"/></g>
<g><path style="opacity:1" fill="#a7a7a7" d="M 50.5,29.5 C 48.8333,29.5 47.1667,29.5 45.5,29.5C 47.5847,24.9665 46.418,21.6331 42,19.5C 39.9141,21.2495 37.5808,22.5828 35,23.5C 34.6155,25.1966 34.7822,26.8632 35.5,28.5C 34.8333,28.5 34.5,28.8333 34.5,29.5C 33.3709,27.3718 33.2042,25.0385 34,22.5C 36.9432,21.0648 39.7766,19.3981 42.5,17.5C 46.9424,19.8443 48.609,23.5109 47.5,28.5C 48.791,28.2627 49.791,28.596 50.5,29.5 Z"/></g>
<g><path style="opacity:1" fill="#0c0c0c" d="M 63.5,31.5 C 70.5786,31.7559 73.412,35.4226 72,42.5C 67.3222,49.3092 62.9889,48.9758 59,41.5C 58.3333,40.1667 58.3333,38.8333 59,37.5C 61.1019,35.9052 62.6019,33.9052 63.5,31.5 Z"/></g>
<g><path style="opacity:1" fill="#111111" d="M 36.5,38.5 C 38.5824,38.472 40.4157,39.1387 42,40.5C 42.9031,48.1286 40.0698,50.4619 33.5,47.5C 34.3448,44.4569 35.3448,41.4569 36.5,38.5 Z"/></g>
<g><path style="opacity:1" fill="#868686" d="M 32.5,35.5 C 32.5774,36.7498 33.244,37.5831 34.5,38C 33.5494,38.7175 33.3828,39.5509 34,40.5C 34.7083,39.6195 35.5416,38.9528 36.5,38.5C 35.3448,41.4569 34.3448,44.4569 33.5,47.5C 32.8333,46.1667 32.1667,44.8333 31.5,43.5C 31.7825,40.7475 32.1158,38.0808 32.5,35.5 Z"/></g>
<g><path style="opacity:1" fill="#131313" d="M 44.5,52.5 C 46.1484,50.5441 46.8151,48.2108 46.5,45.5C 45.0243,43.7704 45.3576,42.4371 47.5,41.5C 54.101,41.6895 56.601,45.0229 55,51.5C 51.6593,53.6684 48.1593,54.0017 44.5,52.5 Z"/></g>
<g><path style="opacity:1" fill="#8a8a8a" d="M 46.5,45.5 C 46.8151,48.2108 46.1484,50.5441 44.5,52.5C 43.3871,51.0536 43.2204,49.3869 44,47.5C 44.4169,46.244 45.2502,45.5774 46.5,45.5 Z"/></g>
<g><path style="opacity:1" fill="#686868" d="M 33.5,55.5 C 30.5189,55.7944 29.8522,57.1278 31.5,59.5C 29.8522,57.1278 30.5189,55.7944 33.5,55.5 Z"/></g>
<g><path style="opacity:1" fill="#111111" d="M 33.5,55.5 C 42.1803,57.6028 42.3469,59.6028 34,61.5C 32.699,61.3613 31.8656,60.6946 31.5,59.5C 29.8522,57.1278 30.5189,55.7944 33.5,55.5 Z"/></g>
<g><path style="opacity:1" fill="#191919" d="M 72.5,45.5 C 77.0132,46.8399 81.3465,48.6732 85.5,51C 86.6956,51.6543 86.6956,52.1543 85.5,52.5C 83.6687,51.0706 81.6687,50.5706 79.5,51C 82.0398,52.4312 84.3732,54.0978 86.5,56C 85.3942,58.2799 84.0608,60.4466 82.5,62.5C 77.6418,58.8956 72.3085,56.729 66.5,56C 72.3288,58.4112 77.6622,61.5779 82.5,65.5C 80.707,69.688 78.3736,72.688 75.5,74.5C 65.9056,67.7772 65.2389,68.6105 73.5,77C 71.5826,76.9725 69.916,76.1392 68.5,74.5C 68.1667,75 67.8333,75.5 67.5,76C 71.7022,79.5975 71.0356,81.5975 65.5,82C 64.1667,80.6667 62.8333,79.3333 61.5,78C 55.9382,75.059 50.6049,71.8923 45.5,68.5C 45.5,68.1667 45.5,67.8333 45.5,67.5C 50.1287,66.2735 52.9621,63.2735 54,58.5C 62.7871,61.2248 66.6205,57.8915 65.5,48.5C 68.4534,48.8504 70.7867,47.8504 72.5,45.5 Z"/></g>
<g><path style="opacity:1" fill="#414041" d="M 45.5,62.5 C 46.2544,60.5541 47.5878,59.7207 49.5,60C 48.5291,61.4813 47.1958,62.3146 45.5,62.5 Z"/></g>
<g><path style="opacity:1" fill="#919090" d="M 27.5,58.5 C 28.3157,61.4647 29.649,64.1314 31.5,66.5C 29.8828,67.038 28.2161,67.3713 26.5,67.5C 26.8333,66.8333 27.1667,66.1667 27.5,65.5C 26.4695,64.4477 25.8029,63.1143 25.5,61.5C 25.6399,59.9704 26.3065,58.9704 27.5,58.5 Z"/></g>
<g><path style="opacity:1" fill="#454445" d="M 27.5,58.5 C 32.4901,63.5788 38.4901,64.9121 45.5,62.5C 43.7215,63.6697 42.7215,65.3364 42.5,67.5C 43.5,67.5 44.5,67.5 45.5,67.5C 45.5,67.8333 45.5,68.1667 45.5,68.5C 44.1667,68.5 42.8333,68.5 41.5,68.5C 41.5,67.1667 41.5,65.8333 41.5,64.5C 40.5,64.5 39.5,64.5 38.5,64.5C 38.448,66.9029 38.7814,69.2362 39.5,71.5C 38.8826,71.3893 38.3826,71.056 38,70.5C 37.7216,71.4158 37.2216,72.0825 36.5,72.5C 34.823,70.4602 33.1563,68.4602 31.5,66.5C 29.649,64.1314 28.3157,61.4647 27.5,58.5 Z"/></g>
<g><path style="opacity:1" fill="#e9e9e9" d="M 41.5,68.5 C 41.5,68.8333 41.5,69.1667 41.5,69.5C 40.8333,70.1667 40.1667,70.8333 39.5,71.5C 38.7814,69.2362 38.448,66.9029 38.5,64.5C 39.5,64.5 40.5,64.5 41.5,64.5C 41.5,65.8333 41.5,67.1667 41.5,68.5 Z"/></g>
<g><path style="opacity:1" fill="#f0f0f0" d="M 31.5,66.5 C 33.1563,68.4602 34.823,70.4602 36.5,72.5C 32.4682,72.8144 29.1348,71.4811 26.5,68.5C 26.5,68.1667 26.5,67.8333 26.5,67.5C 28.2161,67.3713 29.8828,67.038 31.5,66.5 Z"/></g>
<g><path style="opacity:1" fill="#f5f5f5" d="M 35.5,65.5 C 36.5862,65.62 37.2528,66.2867 37.5,67.5C 37.1667,68.1667 36.8333,68.8333 36.5,69.5C 35.5713,68.3112 35.238,66.9778 35.5,65.5 Z"/></g>
<g><path style="opacity:1" fill="#2f2f2f" d="M 21.5,75.5 C 28.0856,78.1261 34.4189,81.2928 40.5,85C 34.8301,83.0088 29.1635,80.6755 23.5,78C 22.244,77.5831 21.5774,76.7498 21.5,75.5 Z"/></g>
<g><path style="opacity:1" fill="#1b1b1b" d="M 26.5,68.5 C 29.1348,71.4811 32.4682,72.8144 36.5,72.5C 37.2216,72.0825 37.7216,71.4158 38,70.5C 38.3826,71.056 38.8826,71.3893 39.5,71.5C 40.1667,70.8333 40.8333,70.1667 41.5,69.5C 49.4334,72.9151 56.7667,77.4151 63.5,83C 58.0803,87.6996 52.9136,87.5329 48,82.5C 46.1759,83.7487 46.3426,84.9153 48.5,86C 46.212,85.9472 43.8786,85.6139 41.5,85C 43.3008,84.6827 43.6341,84.016 42.5,83C 34.2983,78.9366 25.965,75.2699 17.5,72C 18,71.8333 18.5,71.6667 19,71.5C 24.7382,73.9702 30.5716,75.8035 36.5,77C 29.9128,73.3581 22.9128,70.6914 15.5,69C 14.3044,68.3457 14.3044,67.8457 15.5,67.5C 18.7827,68.188 21.9494,69.188 25,70.5C 25.2784,69.5842 25.7784,68.9175 26.5,68.5 Z"/></g>
</svg>
