<?xml version="1.0" encoding="UTF-8"?>
<!DOCTYPE svg PUBLIC "-//W3C//DTD SVG 1.1//EN" "http://www.w3.org/Graphics/SVG/1.1/DTD/svg11.dtd">
<svg xmlns="http://www.w3.org/2000/svg" version="1.1" width="96px" height="96px" style="shape-rendering:geometricPrecision; text-rendering:geometricPrecision; image-rendering:optimizeQuality; fill-rule:evenodd; clip-rule:evenodd" xmlns:xlink="http://www.w3.org/1999/xlink">
<g><path style="opacity:0.994" fill="#182851" d="M 36.5,-0.5 C 43.8333,-0.5 51.1667,-0.5 58.5,-0.5C 69.3762,2.9476 78.7095,8.9476 86.5,17.5C 87.8972,21.0605 89.8972,24.2272 92.5,27C 92.1667,27.3333 91.8333,27.6667 91.5,28C 93.1523,30.778 94.4857,33.6114 95.5,36.5C 95.5,43.8333 95.5,51.1667 95.5,58.5C 94.2542,61.4525 92.9209,64.4525 91.5,67.5C 90.8333,67.1667 90.1667,66.8333 89.5,66.5C 87.6644,64.412 85.3311,63.0787 82.5,62.5C 77.8986,62.0551 73.5653,62.7217 69.5,64.5C 71.5729,62.6413 72.9063,60.308 73.5,57.5C 49.7818,59.8085 34.7818,49.4751 28.5,26.5C 17.5526,38.8667 16.7192,51.8667 26,65.5C 37.2406,76.7554 49.7406,78.4221 63.5,70.5C 61.9038,76.3318 62.2371,81.9984 64.5,87.5C 65.5,88.8333 66.5,90.1667 67.5,91.5C 67.5,91.8333 67.5,92.1667 67.5,92.5C 64.2938,93.0785 61.2938,94.0785 58.5,95.5C 51.1667,95.5 43.8333,95.5 36.5,95.5C 25.6238,92.0524 16.2905,86.0524 8.5,77.5C 7.10279,73.9395 5.10279,70.7728 2.5,68C 2.83333,67.6667 3.16667,67.3333 3.5,67C 1.84766,64.222 0.514325,61.3886 -0.5,58.5C -0.5,51.1667 -0.5,43.8333 -0.5,36.5C 1.95648,30.0032 4.95648,23.6699 8.5,17.5C 11.5,14.5 14.5,11.5 17.5,8.5C 23.6895,4.92127 30.0229,1.92127 36.5,-0.5 Z"/></g>
<g><path style="opacity:0.012" fill="#181b42" d="M 29.5,0.5 C 30.8333,1.16667 30.8333,1.16667 29.5,0.5 Z"/></g>
<g><path style="opacity:0.008" fill="#071e2d" d="M 64.5,0.5 C 65.8333,1.16667 65.8333,1.16667 64.5,0.5 Z"/></g>
<g><path style="opacity:0.004" fill="#001b57" d="M 17.5,8.5 C 16.8333,7.16667 16.8333,7.16667 17.5,8.5 Z"/></g>
<g><path style="opacity:0.004" fill="#000325" d="M 8.5,17.5 C 7.83333,16.1667 7.83333,16.1667 8.5,17.5 Z"/></g>
<g><path style="opacity:0.004" fill="#000325" d="M 86.5,16.5 C 87.8333,17.1667 87.8333,17.1667 86.5,16.5 Z"/></g>
<g><path style="opacity:1" fill="#fad63d" d="M 74.5,41.5 C 70.4567,39.3755 66.1234,38.0422 61.5,37.5C 54.3837,34.4004 47.0503,31.5671 39.5,29C 33.7494,24.5841 34.4161,21.5841 41.5,20C 56.5937,17.9202 67.427,23.7535 74,37.5C 74.49,38.7932 74.6567,40.1266 74.5,41.5 Z"/></g>
<g><path style="opacity:0.008" fill="#08223d" d="M 0.5,29.5 C 1.83333,30.1667 1.83333,30.1667 0.5,29.5 Z"/></g>
<g><path style="opacity:1" fill="#fad63d" d="M 69.5,64.5 C 67.1667,66.1667 65.1667,68.1667 63.5,70.5C 49.7406,78.4221 37.2406,76.7554 26,65.5C 16.7192,51.8667 17.5526,38.8667 28.5,26.5C 34.7818,49.4751 49.7818,59.8085 73.5,57.5C 72.9063,60.308 71.5729,62.6413 69.5,64.5 Z"/></g>
<g><path style="opacity:0.008" fill="#082142" d="M 93.5,29.5 C 94.8333,30.1667 94.8333,30.1667 93.5,29.5 Z"/></g>
<g><path style="opacity:1" fill="#fa6f04" d="M 61.5,37.5 C 66.1234,38.0422 70.4567,39.3755 74.5,41.5C 75.8032,44.3553 75.8032,47.3553 74.5,50.5C 69.1454,47.1454 64.8121,42.8121 61.5,37.5 Z"/></g>
<g><path style="opacity:0.008" fill="#0a2647" d="M 0.5,64.5 C 1.83333,65.1667 1.83333,65.1667 0.5,64.5 Z"/></g>
<g><path style="opacity:1" fill="#8c2048" d="M 82.5,62.5 C 85.3311,63.0787 87.6644,64.412 89.5,66.5C 88.147,67.5261 87.147,68.8595 86.5,70.5C 86.1667,70.5 85.8333,70.5 85.5,70.5C 83.6796,68.5516 81.3462,67.5516 78.5,67.5C 80.5554,66.4412 81.8888,64.7746 82.5,62.5 Z"/></g>
<g><path style="opacity:0.008" fill="#0a233d" d="M 93.5,64.5 C 94.8333,65.1667 94.8333,65.1667 93.5,64.5 Z"/></g>
<g><path style="opacity:1" fill="#ca254d" d="M 82.5,62.5 C 81.8888,64.7746 80.5554,66.4412 78.5,67.5C 69.0816,69.0002 65.7482,74.3336 68.5,83.5C 66.8058,84.5274 65.4725,85.8608 64.5,87.5C 62.2371,81.9984 61.9038,76.3318 63.5,70.5C 65.1667,68.1667 67.1667,66.1667 69.5,64.5C 73.5653,62.7217 77.8986,62.0551 82.5,62.5 Z"/></g>
<g><path style="opacity:1" fill="#b75c79" d="M 78.5,67.5 C 81.3462,67.5516 83.6796,68.5516 85.5,70.5C 85.0618,70.4346 84.7284,70.6012 84.5,71C 85.8228,71.8159 86.4894,72.9826 86.5,74.5C 86.1667,74.5 85.8333,74.5 85.5,74.5C 84.8091,72.9778 83.6424,71.9778 82,71.5C 78.4192,72.6282 75.2526,74.2948 72.5,76.5C 72.8505,79.8562 72.0171,82.8562 70,85.5C 69.2828,84.9558 68.7828,84.2891 68.5,83.5C 65.7482,74.3336 69.0816,69.0002 78.5,67.5 Z"/></g>
<g><path style="opacity:1" fill="#83385b" d="M 85.5,74.5 C 79.25,74.2423 76.9167,77.0756 78.5,83C 77.244,83.4169 76.5774,84.2502 76.5,85.5C 74.7697,86.0256 73.4363,87.0256 72.5,88.5C 71.3406,90.2503 69.674,91.2503 67.5,91.5C 66.5,90.1667 65.5,88.8333 64.5,87.5C 65.4725,85.8608 66.8058,84.5274 68.5,83.5C 68.7828,84.2891 69.2828,84.9558 70,85.5C 72.0171,82.8562 72.8505,79.8562 72.5,76.5C 75.2526,74.2948 78.4192,72.6282 82,71.5C 83.6424,71.9778 84.8091,72.9778 85.5,74.5 Z"/></g>
<g><path style="opacity:0.004" fill="#00062a" d="M 8.5,77.5 C 7.83333,78.1667 7.83333,78.1667 8.5,77.5 Z"/></g>
<g><path style="opacity:0.935" fill="#24163f" d="M 89.5,66.5 C 90.1667,66.8333 90.8333,67.1667 91.5,67.5C 93.0737,68.9842 94.407,70.6508 95.5,72.5C 95.5,76.8333 95.5,81.1667 95.5,85.5C 92.5,89.1667 89.1667,92.5 85.5,95.5C 81.1667,95.5 76.8333,95.5 72.5,95.5C 71.0351,94.2632 69.3684,93.2632 67.5,92.5C 67.5,92.1667 67.5,91.8333 67.5,91.5C 69.674,91.2503 71.3406,90.2503 72.5,88.5C 74.484,89.1557 76.484,89.8224 78.5,90.5C 80.4216,90.1992 82.0883,89.5325 83.5,88.5C 90.2112,83.484 91.2112,77.484 86.5,70.5C 87.147,68.8595 88.147,67.5261 89.5,66.5 Z"/></g>
<g><path style="opacity:1" fill="#56234a" d="M 85.5,74.5 C 85.8333,74.5 86.1667,74.5 86.5,74.5C 89.2117,78.6744 88.545,82.3411 84.5,85.5C 81.6481,86.2583 78.9815,86.2583 76.5,85.5C 76.5774,84.2502 77.244,83.4169 78.5,83C 76.9167,77.0756 79.25,74.2423 85.5,74.5 Z"/></g>
<g><path style="opacity:1" fill="#dbd6de" d="M 85.5,70.5 C 85.8333,70.5 86.1667,70.5 86.5,70.5C 91.2112,77.484 90.2112,83.484 83.5,88.5C 83.0618,88.5654 82.7284,88.3988 82.5,88C 83.3805,87.2917 84.0472,86.4584 84.5,85.5C 88.545,82.3411 89.2117,78.6744 86.5,74.5C 86.4894,72.9826 85.8228,71.8159 84.5,71C 84.7284,70.6012 85.0618,70.4346 85.5,70.5 Z"/></g>
<g><path style="opacity:1" fill="#7b6883" d="M 76.5,85.5 C 78.9815,86.2583 81.6481,86.2583 84.5,85.5C 84.0472,86.4584 83.3805,87.2917 82.5,88C 82.7284,88.3988 83.0618,88.5654 83.5,88.5C 82.0883,89.5325 80.4216,90.1992 78.5,90.5C 76.484,89.8224 74.484,89.1557 72.5,88.5C 73.4363,87.0256 74.7697,86.0256 76.5,85.5 Z"/></g>
<g><path style="opacity:0.008" fill="#091e2e" d="M 29.5,93.5 C 30.8333,94.1667 30.8333,94.1667 29.5,93.5 Z"/></g>
<g><path style="opacity:0.012" fill="#181b43" d="M 64.5,93.5 C 65.8333,94.1667 65.8333,94.1667 64.5,93.5 Z"/></g>
</svg>
