<?xml version="1.0" encoding="UTF-8"?>
<!DOCTYPE svg PUBLIC "-//W3C//DTD SVG 1.1//EN" "http://www.w3.org/Graphics/SVG/1.1/DTD/svg11.dtd">
<svg xmlns="http://www.w3.org/2000/svg" version="1.1" width="96px" height="96px" style="shape-rendering:geometricPrecision; text-rendering:geometricPrecision; image-rendering:optimizeQuality; fill-rule:evenodd; clip-rule:evenodd" xmlns:xlink="http://www.w3.org/1999/xlink">
<g><path style="opacity:0.98" fill="#222227" d="M 37.5,-0.5 C 44.1667,-0.5 50.8333,-0.5 57.5,-0.5C 77.1667,5.16667 89.8333,17.8333 95.5,37.5C 95.5,44.1667 95.5,50.8333 95.5,57.5C 89.8333,77.1667 77.1667,89.8333 57.5,95.5C 50.8333,95.5 44.1667,95.5 37.5,95.5C 17.8333,89.8333 5.16667,77.1667 -0.5,57.5C -0.5,50.8333 -0.5,44.1667 -0.5,37.5C 5.16667,17.8333 17.8333,5.16667 37.5,-0.5 Z"/></g>
<g><path style="opacity:1" fill="#fafafa" d="M 69.5,35.5 C 70.8221,35.33 71.9887,35.6634 73,36.5C 76.4141,42.9969 80.0808,49.3303 84,55.5C 84.6667,56.5 84.6667,57.5 84,58.5C 75.2511,59.4839 66.4178,59.8172 57.5,59.5C 60.4186,50.9962 64.4186,42.9962 69.5,35.5 Z"/></g>
<g><path style="opacity:1" fill="#db0303" d="M 22.5,35.5 C 24.3904,35.2965 25.8904,35.9632 27,37.5C 31.3439,44.5178 34.8439,51.8512 37.5,59.5C 28.5822,59.8172 19.7489,59.4839 11,58.5C 10.3333,57.5 10.3333,56.5 11,55.5C 15.0979,48.9691 18.9312,42.3024 22.5,35.5 Z"/></g>
<g><path style="opacity:1" fill="#d50605" d="M 34.5,34.5 C 43.0851,34.1834 51.5851,34.5168 60,35.5C 60.6667,36.8333 60.6667,38.1667 60,39.5C 56.5447,46.2471 52.7114,52.7471 48.5,59C 47.2161,59.6838 46.0495,59.5171 45,58.5C 41.1667,51.5 37.3333,44.5 33.5,37.5C 34.1272,36.5832 34.4606,35.5832 34.5,34.5 Z"/></g>
</svg>
