<?xml version="1.0" encoding="UTF-8"?>
<!DOCTYPE svg PUBLIC "-//W3C//DTD SVG 1.1//EN" "http://www.w3.org/Graphics/SVG/1.1/DTD/svg11.dtd">
<svg xmlns="http://www.w3.org/2000/svg" version="1.1" width="96px" height="96px" style="shape-rendering:geometricPrecision; text-rendering:geometricPrecision; image-rendering:optimizeQuality; fill-rule:evenodd; clip-rule:evenodd" xmlns:xlink="http://www.w3.org/1999/xlink">
<g><path style="opacity:1" fill="#8b7a78" d="M 64.5,6.5 C 64.5106,8.01739 65.1772,9.18405 66.5,10C 65.552,10.4828 64.552,10.6495 63.5,10.5C 52.1584,6.63227 40.8251,6.63227 29.5,10.5C 29.0618,10.5654 28.7284,10.3988 28.5,10C 29.8228,9.18405 30.4894,8.01739 30.5,6.5C 41.8162,2.50207 53.1496,2.50207 64.5,6.5 Z"/></g>
<g><path style="opacity:1" fill="#280a08" d="M 63.5,10.5 C 74.6342,14.9694 81.9676,22.9694 85.5,34.5C 83.5853,34.2155 81.9187,34.5489 80.5,35.5C 79.2876,36.2299 78.2876,37.2299 77.5,38.5C 75.0089,35.5844 72.0089,34.9178 68.5,36.5C 69.1743,38.5165 70.3409,40.1832 72,41.5C 72.6987,43.0738 72.3654,44.4071 71,45.5C 70.5172,44.552 70.3505,43.552 70.5,42.5C 61.8269,42.3336 53.1603,42.5002 44.5,43C 42.981,44.3513 41.6477,45.8513 40.5,47.5C 36.4587,39.7505 32.6254,40.0838 29,48.5C 28.7051,46.0694 27.5384,44.236 25.5,43C 21.4589,42.1735 17.4589,42.3401 13.5,43.5C 12.3945,47.777 12.2278,52.1103 13,56.5C 14.6995,57.4061 16.5328,57.7394 18.5,57.5C 18.8632,52.4848 20.1966,52.3181 22.5,57C 33.7968,56.9037 45.1301,57.0704 56.5,57.5C 60.9811,58.6484 65.6478,58.8151 70.5,58C 71.717,56.3523 72.5503,54.519 73,52.5C 74.586,51.624 76.086,50.624 77.5,49.5C 81.1703,53.3201 84.6703,53.3201 88,49.5C 85.349,73.3123 71.849,86.3123 47.5,88.5C 30.0051,87.1438 17.1718,78.8105 9,63.5C 6.58219,57.4304 4.91552,51.0971 4,44.5C 3.61742,45.056 3.11742,45.3893 2.5,45.5C 2.61837,37.1368 5.28503,29.8035 10.5,23.5C 10.1489,25.8695 9.98221,28.2028 10,30.5C 14.691,21.9768 21.191,15.3101 29.5,10.5C 40.8251,6.63227 52.1584,6.63227 63.5,10.5 Z"/></g>
<g><path style="opacity:1" fill="#695251" d="M 30.5,6.5 C 30.4894,8.01739 29.8228,9.18405 28.5,10C 28.7284,10.3988 29.0618,10.5654 29.5,10.5C 21.191,15.3101 14.691,21.9768 10,30.5C 9.98221,28.2028 10.1489,25.8695 10.5,23.5C 15.3089,15.6944 21.9755,10.0277 30.5,6.5 Z"/></g>
<g><path style="opacity:1" fill="#604846" d="M 64.5,6.5 C 74.7979,11.1322 82.4646,18.4656 87.5,28.5C 87.299,30.7318 86.9656,33.0651 86.5,35.5C 84.5,35.5 82.5,35.5 80.5,35.5C 81.9187,34.5489 83.5853,34.2155 85.5,34.5C 81.9676,22.9694 74.6342,14.9694 63.5,10.5C 64.552,10.6495 65.552,10.4828 66.5,10C 65.1772,9.18405 64.5106,8.01739 64.5,6.5 Z"/></g>
<g><path style="opacity:1" fill="#efeaea" d="M 80.5,35.5 C 82.5,35.5 84.5,35.5 86.5,35.5C 85.3118,38.0413 83.9784,40.5413 82.5,43C 84.5233,45.1749 85.8566,47.6749 86.5,50.5C 82.9202,51.0772 79.9202,50.0772 77.5,47.5C 75.2931,49.6827 72.6264,51.0161 69.5,51.5C 70.767,53.3707 70.767,55.2041 69.5,57C 65.1794,57.499 60.8461,57.6657 56.5,57.5C 45.1301,57.0704 33.7968,56.9037 22.5,57C 20.1966,52.3181 18.8632,52.4848 18.5,57.5C 16.5328,57.7394 14.6995,57.4061 13,56.5C 12.2278,52.1103 12.3945,47.777 13.5,43.5C 17.4589,42.3401 21.4589,42.1735 25.5,43C 27.5384,44.236 28.7051,46.0694 29,48.5C 32.6254,40.0838 36.4587,39.7505 40.5,47.5C 41.6477,45.8513 42.981,44.3513 44.5,43C 53.1603,42.5002 61.8269,42.3336 70.5,42.5C 70.3505,43.552 70.5172,44.552 71,45.5C 72.3654,44.4071 72.6987,43.0738 72,41.5C 70.3409,40.1832 69.1743,38.5165 68.5,36.5C 72.0089,34.9178 75.0089,35.5844 77.5,38.5C 78.2876,37.2299 79.2876,36.2299 80.5,35.5 Z"/></g>
<g><path style="opacity:1" fill="#ff5a67" d="M 57.5,44.5 C 61.3507,43.1905 65.3507,43.1905 69.5,44.5C 66.3829,45.744 63.3829,47.0773 60.5,48.5C 59.5,47.1667 58.5,45.8333 57.5,44.5 Z"/></g>
<g><path style="opacity:1" fill="#ff4b58" d="M 45.5,48.5 C 44.7978,47.8843 43.7978,47.8843 42.5,48.5C 42.8588,46.629 43.8588,45.129 45.5,44C 48.8168,43.5017 52.1501,43.335 55.5,43.5C 55.5,44.5 55.5,45.5 55.5,46.5C 51.8215,46.0604 48.4882,46.727 45.5,48.5 Z"/></g>
<g><path style="opacity:1" fill="#fe5c6c" d="M 38.5,48.5 C 37.5084,48.3284 36.8417,48.6618 36.5,49.5C 35.7784,49.0825 35.2784,48.4158 35,47.5C 34.7216,48.4158 34.2216,49.0825 33.5,49.5C 33.7373,48.209 33.404,47.209 32.5,46.5C 32.999,43.6108 34.499,42.9442 37,44.5C 37.4101,45.9007 37.9101,47.234 38.5,48.5 Z"/></g>
<g><path style="opacity:1" fill="#dd2a2b" d="M 70.5,36.5 C 73.2853,36.933 75.6187,38.2663 77.5,40.5C 85.7724,34.8723 86.439,35.7056 79.5,43C 81.3513,44.6837 83.018,46.5171 84.5,48.5C 83.635,49.5827 82.635,49.7494 81.5,49C 79.981,47.6487 78.6477,46.1487 77.5,44.5C 76.059,45.8651 74.7256,47.3651 73.5,49C 72.365,49.7494 71.365,49.5827 70.5,48.5C 72.0413,46.796 73.3746,44.9626 74.5,43C 73.2764,40.7102 71.9431,38.5435 70.5,36.5 Z"/></g>
<g><path style="opacity:1" fill="#ff5563" d="M 26.5,49.5 C 25.7978,48.8843 24.7978,48.8843 23.5,49.5C 24.5981,48.603 24.5981,47.7697 23.5,47C 20.4465,46.8214 17.4465,46.3214 14.5,45.5C 14.7093,44.914 15.0426,44.414 15.5,44C 19.9094,42.7382 23.7428,43.5715 27,46.5C 27.7401,47.7494 27.5735,48.7494 26.5,49.5 Z"/></g>
<g><path style="opacity:0.974" fill="#1a0705" d="M 87.5,28.5 C 96.6346,48.8157 92.968,66.649 76.5,82C 53.2264,97.556 31.7264,95.3893 12,75.5C 5.32477,66.6398 2.15811,56.6398 2.5,45.5C 3.11742,45.3893 3.61742,45.056 4,44.5C 4.91552,51.0971 6.58219,57.4304 9,63.5C 17.1718,78.8105 30.0051,87.1438 47.5,88.5C 71.849,86.3123 85.349,73.3123 88,49.5C 84.6703,53.3201 81.1703,53.3201 77.5,49.5C 76.086,50.624 74.586,51.624 73,52.5C 72.5503,54.519 71.717,56.3523 70.5,58C 65.6478,58.8151 60.9811,58.6484 56.5,57.5C 60.8461,57.6657 65.1794,57.499 69.5,57C 70.767,55.2041 70.767,53.3707 69.5,51.5C 72.6264,51.0161 75.2931,49.6827 77.5,47.5C 79.9202,50.0772 82.9202,51.0772 86.5,50.5C 85.8566,47.6749 84.5233,45.1749 82.5,43C 83.9784,40.5413 85.3118,38.0413 86.5,35.5C 86.9656,33.0651 87.299,30.7318 87.5,28.5 Z"/></g>
<g><path style="opacity:1" fill="#b62523" d="M 32.5,46.5 C 33.404,47.209 33.7373,48.209 33.5,49.5C 32.8333,50.8333 32.1667,52.1667 31.5,53.5C 31.1257,55.9497 29.6257,56.9497 27,56.5C 24.4431,56.4192 22.6098,55.2526 21.5,53C 20.2068,52.51 18.8734,52.3433 17.5,52.5C 17.5,53.8333 17.5,55.1667 17.5,56.5C 16.5,56.5 15.5,56.5 14.5,56.5C 14.5,54.8333 14.5,53.1667 14.5,51.5C 17.8333,51.5 21.1667,51.5 24.5,51.5C 24.6854,53.1958 25.5187,54.5291 27,55.5C 28.8588,52.4362 30.6921,49.4362 32.5,46.5 Z"/></g>
<g><path style="opacity:1" fill="#d82424" d="M 45.5,48.5 C 45.2865,50.1439 45.6198,51.6439 46.5,53C 49.4816,53.498 52.4816,53.6646 55.5,53.5C 55.5,54.5 55.5,55.5 55.5,56.5C 51.6924,56.8368 48.0257,56.3368 44.5,55C 42.9837,53.103 42.317,50.9363 42.5,48.5C 43.7978,47.8843 44.7978,47.8843 45.5,48.5 Z"/></g>
<g><path style="opacity:1" fill="#be2421" d="M 38.5,48.5 C 39.829,50.8023 41.1623,53.1356 42.5,55.5C 42,55.8333 41.5,56.1667 41,56.5C 38.7903,54.8891 36.2903,54.2224 33.5,54.5C 34.3351,53.0568 35.6684,52.0568 37.5,51.5C 37.1373,50.8165 36.8039,50.1499 36.5,49.5C 36.8417,48.6618 37.5084,48.3284 38.5,48.5 Z"/></g>
<g><path style="opacity:1" fill="#f4c3c2" d="M 36.5,49.5 C 36.8039,50.1499 37.1373,50.8165 37.5,51.5C 35.6684,52.0568 34.3351,53.0568 33.5,54.5C 32.8333,54.1667 32.1667,53.8333 31.5,53.5C 32.1667,52.1667 32.8333,50.8333 33.5,49.5C 34.2216,49.0825 34.7216,48.4158 35,47.5C 35.2784,48.4158 35.7784,49.0825 36.5,49.5 Z"/></g>
<g><path style="opacity:1" fill="#0e0101" d="M 47.5,48.5 C 50.1667,48.5 52.8333,48.5 55.5,48.5C 55.5,49.5 55.5,50.5 55.5,51.5C 52.8333,51.5 50.1667,51.5 47.5,51.5C 47.5,50.5 47.5,49.5 47.5,48.5 Z"/></g>
<g><path style="opacity:1" fill="#eb2224" d="M 23.5,49.5 C 24.7978,48.8843 25.7978,48.8843 26.5,49.5C 26.5,50.8333 25.8333,51.5 24.5,51.5C 21.1667,51.5 17.8333,51.5 14.5,51.5C 14.5,50.1667 14.5,48.8333 14.5,47.5C 17.3356,48.7755 20.3356,49.4422 23.5,49.5 Z"/></g>
<g><path style="opacity:1" fill="#e02a2e" d="M 57.5,44.5 C 58.5,45.8333 59.5,47.1667 60.5,48.5C 63.1667,48.5 65.8333,48.5 68.5,48.5C 68.5,49.5 68.5,50.5 68.5,51.5C 65.7531,51.1866 63.0865,51.52 60.5,52.5C 63.6163,52.9201 66.2829,53.9201 68.5,55.5C 64.8333,55.5 61.1667,55.5 57.5,55.5C 57.5,51.8333 57.5,48.1667 57.5,44.5 Z"/></g>
<g><path style="opacity:1" fill="#cd6a6e" d="M 57.5,44.5 C 57.5,48.1667 57.5,51.8333 57.5,55.5C 61.1667,55.5 64.8333,55.5 68.5,55.5C 64.7016,56.4834 60.7016,56.8168 56.5,56.5C 56.1832,52.2984 56.5166,48.2984 57.5,44.5 Z"/></g>
</svg>
