<?xml version="1.0" encoding="UTF-8"?>
<!DOCTYPE svg PUBLIC "-//W3C//DTD SVG 1.1//EN" "http://www.w3.org/Graphics/SVG/1.1/DTD/svg11.dtd">
<svg xmlns="http://www.w3.org/2000/svg" version="1.1" width="96px" height="96px" style="shape-rendering:geometricPrecision; text-rendering:geometricPrecision; image-rendering:optimizeQuality; fill-rule:evenodd; clip-rule:evenodd" xmlns:xlink="http://www.w3.org/1999/xlink">
<g><path style="opacity:0.993" fill="#fffefc" d="M 43.5,-0.5 C 45.8333,-0.5 48.1667,-0.5 50.5,-0.5C 49.4614,4.84915 50.7947,9.34915 54.5,13C 60.9969,16.4141 67.3303,20.0808 73.5,24C 78.6512,24.7532 82.9846,23.2532 86.5,19.5C 88.3998,21.6195 90.0664,23.9528 91.5,26.5C 80.3,28.9076 76.3,35.7409 79.5,47C 76.422,58.3597 80.422,65.5263 91.5,68.5C 90.0664,71.0472 88.3998,73.3805 86.5,75.5C 84.2314,74.0242 81.8981,72.5242 79.5,71C 76.6967,70.245 74.0301,70.5783 71.5,72C 64.2384,75.8787 57.4051,80.3787 51,85.5C 50.5017,88.8168 50.335,92.1501 50.5,95.5C 48.1667,95.5 45.8333,95.5 43.5,95.5C 44.9474,89.1023 42.9474,84.269 37.5,81C 30.8417,77.0878 24.0083,73.5878 17,70.5C 13.5137,71.1725 10.6803,72.8391 8.5,75.5C 6.60024,73.3805 4.93357,71.0472 3.5,68.5C 13.9107,65.5128 17.5773,58.6795 14.5,48C 17.6104,37.1501 13.9438,30.3168 3.5,27.5C 4.68034,24.4604 6.347,21.7937 8.5,19.5C 12.0209,24.564 16.6876,25.7307 22.5,23C 29.2545,19.2075 35.7545,15.0409 42,10.5C 43.3368,6.97428 43.8368,3.30761 43.5,-0.5 Z"/></g>
<g><path style="opacity:1" fill="#fff19f" d="M 37.5,-0.5 C 39.5,-0.5 41.5,-0.5 43.5,-0.5C 43.8368,3.30761 43.3368,6.97428 42,10.5C 35.7545,15.0409 29.2545,19.2075 22.5,23C 16.6876,25.7307 12.0209,24.564 8.5,19.5C 9.75731,16.5726 11.7573,14.2393 14.5,12.5C 15.9464,13.6129 17.6131,13.7796 19.5,13C 23.2406,10.2677 27.2406,7.93435 31.5,6C 32.1667,5 32.8333,4 33.5,3C 31.5753,3.13494 29.5753,3.3016 27.5,3.5C 30.7649,1.9679 34.0982,0.634569 37.5,-0.5 Z"/></g>
<g><path style="opacity:1" fill="#fff09f" d="M 50.5,-0.5 C 52.8333,-0.5 55.1667,-0.5 57.5,-0.5C 58.8333,0.166667 60.1667,0.833333 61.5,1.5C 60.2006,3.15344 60.5339,4.65344 62.5,6C 67.1576,8.91165 71.991,11.4116 77,13.5C 78.3756,13.3158 79.2089,12.6491 79.5,11.5C 82.5725,13.5691 84.9059,16.2358 86.5,19.5C 82.9846,23.2532 78.6512,24.7532 73.5,24C 67.3303,20.0808 60.9969,16.4141 54.5,13C 50.7947,9.34915 49.4614,4.84915 50.5,-0.5 Z"/></g>
<g><path style="opacity:1" fill="#ffeb74" d="M 61.5,1.5 C 68.7238,2.77529 74.7238,6.10862 79.5,11.5C 79.2089,12.6491 78.3756,13.3158 77,13.5C 71.991,11.4116 67.1576,8.91165 62.5,6C 60.5339,4.65344 60.2006,3.15344 61.5,1.5 Z"/></g>
<g><path style="opacity:1" fill="#ffeb74" d="M 14.5,12.5 C 18.0013,8.33752 22.3346,5.33752 27.5,3.5C 29.5753,3.3016 31.5753,3.13494 33.5,3C 32.8333,4 32.1667,5 31.5,6C 27.2406,7.93435 23.2406,10.2677 19.5,13C 17.6131,13.7796 15.9464,13.6129 14.5,12.5 Z"/></g>
<g><path style="opacity:1" fill="#fff09e" d="M 44.5,18.5 C 47.3198,18.2475 49.9865,18.7475 52.5,20C 58.6697,23.9192 65.0031,27.5859 71.5,31C 72.1258,31.7504 72.6258,32.5838 73,33.5C 73.9487,43.5998 73.6154,53.5998 72,63.5C 64.1559,68.5274 55.9893,72.8608 47.5,76.5C 37.9812,73.16 29.4812,68.16 22,61.5C 21.3333,52.1667 21.3333,42.8333 22,33.5C 22.8333,32.5 23.6667,31.5 24.5,30.5C 31.2301,26.4741 37.8968,22.4741 44.5,18.5 Z"/></g>
<g><path style="opacity:1" fill="#fff1a0" d="M 3.5,27.5 C 13.9438,30.3168 17.6104,37.1501 14.5,48C 17.5773,58.6795 13.9107,65.5128 3.5,68.5C 2.10086,65.3012 1.10086,61.9679 0.5,58.5C 2.01739,58.4894 3.18405,57.8228 4,56.5C 4.66667,50.5 4.66667,44.5 4,38.5C 3.18405,37.1772 2.01739,36.5106 0.5,36.5C 0.928086,33.2154 1.92809,30.2154 3.5,27.5 Z"/></g>
<g><path style="opacity:1" fill="#fff1a0" d="M 91.5,26.5 C 92.696,29.4214 93.696,32.4214 94.5,35.5C 92.629,35.8588 91.129,36.8588 90,38.5C 89.3333,44.1667 89.3333,49.8333 90,55.5C 90.9184,57.3757 92.4184,58.3757 94.5,58.5C 93.8991,61.9679 92.8991,65.3012 91.5,68.5C 80.422,65.5263 76.422,58.3597 79.5,47C 76.3,35.7409 80.3,28.9076 91.5,26.5 Z"/></g>
<g><path style="opacity:1" fill="#ffdc10" d="M 44.5,29.5 C 51.6257,30.4792 57.7923,33.4792 63,38.5C 63.6667,44.5 63.6667,50.5 63,56.5C 58.3966,60.7639 53.0633,63.7639 47,65.5C 41.5146,63.3562 36.5146,60.3562 32,56.5C 31.3333,50.5 31.3333,44.5 32,38.5C 36.3221,35.601 40.4887,32.601 44.5,29.5 Z"/></g>
<g><path style="opacity:0.996" fill="#ffeb73" d="M 0.5,36.5 C 2.01739,36.5106 3.18405,37.1772 4,38.5C 4.66667,44.5 4.66667,50.5 4,56.5C 3.18405,57.8228 2.01739,58.4894 0.5,58.5C 0.5,57.8333 0.166667,57.5 -0.5,57.5C -0.5,50.8333 -0.5,44.1667 -0.5,37.5C 0.166667,37.5 0.5,37.1667 0.5,36.5 Z"/></g>
<g><path style="opacity:0.998" fill="#ffeb74" d="M 94.5,35.5 C 94.3284,36.4916 94.6618,37.1583 95.5,37.5C 95.5,44.1667 95.5,50.8333 95.5,57.5C 94.8333,57.5 94.5,57.8333 94.5,58.5C 92.4184,58.3757 90.9184,57.3757 90,55.5C 89.3333,49.8333 89.3333,44.1667 90,38.5C 91.129,36.8588 92.629,35.8588 94.5,35.5 Z"/></g>
<g><path style="opacity:1" fill="#fff19f" d="M 43.5,95.5 C 41.5,95.5 39.5,95.5 37.5,95.5C 35.1124,94.6515 32.7791,93.6515 30.5,92.5C 31.552,92.6495 32.552,92.4828 33.5,92C 29.6138,87.71 24.9471,84.3767 19.5,82C 17.6131,81.2204 15.9464,81.3871 14.5,82.5C 11.7573,80.7607 9.75731,78.4274 8.5,75.5C 10.6803,72.8391 13.5137,71.1725 17,70.5C 24.0083,73.5878 30.8417,77.0878 37.5,81C 42.9474,84.269 44.9474,89.1023 43.5,95.5 Z"/></g>
<g><path style="opacity:1" fill="#fff09f" d="M 86.5,75.5 C 84.9059,78.7642 82.5725,81.4309 79.5,83.5C 79.2089,82.3509 78.3756,81.6842 77,81.5C 71.2419,83.7132 65.9086,86.7132 61,90.5C 60.2599,91.7494 60.4265,92.7494 61.5,93.5C 60.1667,94.1667 58.8333,94.8333 57.5,95.5C 55.1667,95.5 52.8333,95.5 50.5,95.5C 50.335,92.1501 50.5017,88.8168 51,85.5C 57.4051,80.3787 64.2384,75.8787 71.5,72C 74.0301,70.5783 76.6967,70.245 79.5,71C 81.8981,72.5242 84.2314,74.0242 86.5,75.5 Z"/></g>
<g><path style="opacity:1" fill="#ffeb78" d="M 79.5,83.5 C 74.7238,88.8914 68.7238,92.2247 61.5,93.5C 60.4265,92.7494 60.2599,91.7494 61,90.5C 65.9086,86.7132 71.2419,83.7132 77,81.5C 78.3756,81.6842 79.2089,82.3509 79.5,83.5 Z"/></g>
<g><path style="opacity:1" fill="#ffeb74" d="M 30.5,92.5 C 24.1937,90.6824 18.8603,87.3491 14.5,82.5C 15.9464,81.3871 17.6131,81.2204 19.5,82C 24.9471,84.3767 29.6138,87.71 33.5,92C 32.552,92.4828 31.552,92.6495 30.5,92.5 Z"/></g>
</svg>
