<?xml version="1.0" encoding="UTF-8"?>
<!DOCTYPE svg PUBLIC "-//W3C//DTD SVG 1.1//EN" "http://www.w3.org/Graphics/SVG/1.1/DTD/svg11.dtd">
<svg xmlns="http://www.w3.org/2000/svg" version="1.1" width="96px" height="96px" style="shape-rendering:geometricPrecision; text-rendering:geometricPrecision; image-rendering:optimizeQuality; fill-rule:evenodd; clip-rule:evenodd" xmlns:xlink="http://www.w3.org/1999/xlink">
<g><path style="opacity:0.98" fill="#5e5f5e" d="M 37.5,-0.5 C 44.1667,-0.5 50.8333,-0.5 57.5,-0.5C 68.6367,2.07383 77.97,7.7405 85.5,16.5C 87.3869,19.7197 89.3869,22.2197 91.5,24C 90.3659,25.016 90.6992,25.6827 92.5,26C 92.1534,29.1211 93.1534,31.9544 95.5,34.5C 95.5,34.8333 95.5,35.1667 95.5,35.5C 94.1667,35.8333 94.1667,36.1667 95.5,36.5C 95.5,43.8333 95.5,51.1667 95.5,58.5C 94.1667,58.8333 94.1667,59.1667 95.5,59.5C 95.5,59.8333 95.5,60.1667 95.5,60.5C 93.7111,62.6509 92.3778,65.1509 91.5,68C 92.6341,69.016 92.3008,69.6827 90.5,70C 91.6341,71.016 91.3008,71.6827 89.5,72C 89.8333,72.3333 90.1667,72.6667 90.5,73C 87.9441,74.0545 86.2775,75.8878 85.5,78.5C 77.97,87.2595 68.6367,92.9262 57.5,95.5C 50.8333,95.5 44.1667,95.5 37.5,95.5C 26.3633,92.9262 17.03,87.2595 9.5,78.5C 7.61308,75.2803 5.61308,72.7803 3.5,71C 4.63411,69.984 4.30077,69.3173 2.5,69C 2.84659,65.8789 1.84659,63.0456 -0.5,60.5C -0.5,60.1667 -0.5,59.8333 -0.5,59.5C 0.833333,59.1667 0.833333,58.8333 -0.5,58.5C -0.5,51.1667 -0.5,43.8333 -0.5,36.5C 0.833333,36.1667 0.833333,35.8333 -0.5,35.5C -0.5,35.1667 -0.5,34.8333 -0.5,34.5C 1.84659,31.9544 2.84659,29.1211 2.5,26C 4.30077,25.6827 4.63411,25.016 3.5,24C 5.61308,22.2197 7.61308,19.7197 9.5,16.5C 17.03,7.7405 26.3633,2.07383 37.5,-0.5 Z"/></g>
<g><path style="opacity:0.004" fill="#000000" d="M 9.5,16.5 C 8.83333,15.1667 8.83333,15.1667 9.5,16.5 Z"/></g>
<g><path style="opacity:0.004" fill="#000000" d="M 85.5,15.5 C 86.8333,16.1667 86.8333,16.1667 85.5,15.5 Z"/></g>
<g><path style="opacity:1" fill="#2fbe9f" d="M 69.5,49.5 C 69.5,47.1667 69.5,44.8333 69.5,42.5C 69.5,36.8333 69.5,31.1667 69.5,25.5C 59.4679,25.2705 49.4679,25.6039 39.5,26.5C 39.9175,25.7784 40.5842,25.2784 41.5,25C 51.1609,24.5002 60.8276,24.3335 70.5,24.5C 70.8261,33.0168 70.4927,41.3501 69.5,49.5 Z"/></g>
<g><path style="opacity:1" fill="#18f2b9" d="M 69.5,42.5 C 67.8333,42.5 66.1667,42.5 64.5,42.5C 64.7947,44.7354 64.4614,46.7354 63.5,48.5C 63.5,42.8333 63.5,37.1667 63.5,31.5C 56.4921,31.3337 49.4921,31.5004 42.5,32C 38.6667,34.5 35.5,37.6667 33,41.5C 32.5004,48.1583 32.3337,54.825 32.5,61.5C 31.5151,57.3656 31.1818,53.0323 31.5,48.5C 29.8333,48.5 28.1667,48.5 26.5,48.5C 26.8205,53.6946 26.4872,58.6946 25.5,63.5C 25.0989,55.4148 25.5989,47.4148 27,39.5C 29.3467,33.3216 33.5134,28.9883 39.5,26.5C 49.4679,25.6039 59.4679,25.2705 69.5,25.5C 69.5,31.1667 69.5,36.8333 69.5,42.5 Z"/></g>
<g><path style="opacity:1" fill="#47886d" d="M 54.5,40.5 C 53.8636,49.5645 54.5302,58.2312 56.5,66.5C 55.791,67.404 54.791,67.7373 53.5,67.5C 53.1734,58.3178 53.5067,49.3178 54.5,40.5 Z"/></g>
<g><path style="opacity:1" fill="#08fc9b" d="M 63.5,48.5 C 64.4614,46.7354 64.7947,44.7354 64.5,42.5C 66.1667,42.5 67.8333,42.5 69.5,42.5C 69.5,44.8333 69.5,47.1667 69.5,49.5C 68.521,57.8034 64.1877,63.4701 56.5,66.5C 54.5302,58.2312 53.8636,49.5645 54.5,40.5C 56.1271,38.3702 57.9604,36.3702 60,34.5C 60.3333,41.1667 60.6667,47.8333 61,54.5C 62.3187,52.7128 63.152,50.7128 63.5,48.5 Z"/></g>
<g><path style="opacity:1" fill="#03fe8f" d="M 49.5,45.5 C 50.4916,52.6476 50.825,59.9809 50.5,67.5C 48.8333,67.5 47.1667,67.5 45.5,67.5C 45.5,61.1667 45.5,54.8333 45.5,48.5C 46.8333,47.5 48.1667,46.5 49.5,45.5 Z"/></g>
<g><path style="opacity:1" fill="#488669" d="M 40.5,53.5 C 40.56,52.9569 40.8933,52.6236 41.5,52.5C 42.8147,57.9864 42.8147,63.3197 41.5,68.5C 41.8205,63.3054 41.4872,58.3054 40.5,53.5 Z"/></g>
<g><path style="opacity:1" fill="#25c87b" d="M 45.5,48.5 C 45.5,54.8333 45.5,61.1667 45.5,67.5C 47.1667,67.5 48.8333,67.5 50.5,67.5C 50.825,59.9809 50.4916,52.6476 49.5,45.5C 49.3691,44.6236 49.7025,43.9569 50.5,43.5C 51.4979,51.8068 51.8312,60.1401 51.5,68.5C 49.1667,68.5 46.8333,68.5 44.5,68.5C 44.176,61.6457 44.5093,54.979 45.5,48.5 Z"/></g>
<g><path style="opacity:1" fill="#0bf781" d="M 32.5,61.5 C 33.5,61.5 34.5,61.5 35.5,61.5C 35.3505,60.448 35.5172,59.448 36,58.5C 37.7073,56.9625 39.2073,55.2959 40.5,53.5C 41.4872,58.3054 41.8205,63.3054 41.5,68.5C 37.4862,68.3345 33.4862,68.5012 29.5,69C 26.2152,72.3787 22.2152,73.3787 17.5,72C 20.3714,69.2972 23.0381,66.4639 25.5,63.5C 26.4872,58.6946 26.8205,53.6946 26.5,48.5C 28.1667,48.5 29.8333,48.5 31.5,48.5C 31.1818,53.0323 31.5151,57.3656 32.5,61.5 Z"/></g>
<g><path style="opacity:0.004" fill="#000000" d="M 9.5,78.5 C 8.83333,79.1667 8.83333,79.1667 9.5,78.5 Z"/></g>
<g><path style="opacity:0.004" fill="#000000" d="M 85.5,78.5 C 86.8333,79.1667 86.8333,79.1667 85.5,78.5 Z"/></g>
</svg>
