<?xml version="1.0" encoding="UTF-8"?>
<!DOCTYPE svg PUBLIC "-//W3C//DTD SVG 1.1//EN" "http://www.w3.org/Graphics/SVG/1.1/DTD/svg11.dtd">
<svg xmlns="http://www.w3.org/2000/svg" version="1.1" width="96px" height="96px" style="shape-rendering:geometricPrecision; text-rendering:geometricPrecision; image-rendering:optimizeQuality; fill-rule:evenodd; clip-rule:evenodd" xmlns:xlink="http://www.w3.org/1999/xlink">
<g><path style="opacity:1" fill="#fefefe" d="M -0.5,-0.5 C 31.5,-0.5 63.5,-0.5 95.5,-0.5C 95.5,31.5 95.5,63.5 95.5,95.5C 63.5,95.5 31.5,95.5 -0.5,95.5C -0.5,63.5 -0.5,31.5 -0.5,-0.5 Z"/></g>
<g><path style="opacity:1" fill="#3161da" d="M 75.5,31.5 C 74.5655,32.5676 74.2322,33.901 74.5,35.5C 71.5,35.5 68.5,35.5 65.5,35.5C 65.7148,37.1788 65.0481,38.1788 63.5,38.5C 58.5477,35.0186 53.2144,32.0186 47.5,29.5C 42.3511,31.9075 37.3511,34.5742 32.5,37.5C 29.0924,36.0983 25.0924,35.4316 20.5,35.5C 20.5,44.8333 20.5,54.1667 20.5,63.5C 19.3412,53.008 19.1745,42.3414 20,31.5C 28.5833,26.4589 37.0833,21.2923 45.5,16C 48.7025,16.0863 51.7025,17.0863 54.5,19C 61.5633,23.1928 68.5633,27.3594 75.5,31.5 Z"/></g>
<g><path style="opacity:1" fill="#fdfdfe" d="M 63.5,38.5 C 63.6662,44.5092 63.4995,50.5092 63,56.5C 57.9393,59.7373 52.7727,62.7373 47.5,65.5C 42.2273,62.7373 37.0607,59.7373 32,56.5C 31.2098,50.0853 31.3765,43.752 32.5,37.5C 37.3511,34.5742 42.3511,31.9075 47.5,29.5C 53.2144,32.0186 58.5477,35.0186 63.5,38.5 Z"/></g>
<g><path style="opacity:1" fill="#2754d6" d="M 75.5,31.5 C 75.832,42.1874 75.4987,52.8541 74.5,63.5C 66.6111,68.5638 58.6111,73.3971 50.5,78C 48.8333,78.6667 47.1667,78.6667 45.5,78C 36.8085,73.6586 28.4752,68.8253 20.5,63.5C 20.5,54.1667 20.5,44.8333 20.5,35.5C 25.0924,35.4316 29.0924,36.0983 32.5,37.5C 31.3765,43.752 31.2098,50.0853 32,56.5C 37.0607,59.7373 42.2273,62.7373 47.5,65.5C 52.7727,62.7373 57.9393,59.7373 63,56.5C 63.4995,50.5092 63.6662,44.5092 63.5,38.5C 65.0481,38.1788 65.7148,37.1788 65.5,35.5C 68.5,35.5 71.5,35.5 74.5,35.5C 74.2322,33.901 74.5655,32.5676 75.5,31.5 Z"/></g>
</svg>
