<?xml version="1.0" encoding="UTF-8"?>
<!DOCTYPE svg PUBLIC "-//W3C//DTD SVG 1.1//EN" "http://www.w3.org/Graphics/SVG/1.1/DTD/svg11.dtd">
<svg xmlns="http://www.w3.org/2000/svg" version="1.1" width="96px" height="96px" style="shape-rendering:geometricPrecision; text-rendering:geometricPrecision; image-rendering:optimizeQuality; fill-rule:evenodd; clip-rule:evenodd" xmlns:xlink="http://www.w3.org/1999/xlink">
<g><path style="opacity:0.998" fill="#fdfdfd" d="M -0.5,-0.5 C 31.5,-0.5 63.5,-0.5 95.5,-0.5C 95.5,31.5 95.5,63.5 95.5,95.5C 63.5,95.5 31.5,95.5 -0.5,95.5C -0.5,63.5 -0.5,31.5 -0.5,-0.5 Z"/></g>
<g><path style="opacity:1" fill="#474747" d="M 67.5,20.5 C 55.5484,13.4667 43.215,12.8 30.5,18.5C 31.9746,16.5905 33.9746,15.4238 36.5,15C 44.9351,12.8168 53.2684,13.1502 61.5,16C 64.1064,16.7918 66.1064,18.2918 67.5,20.5 Z"/></g>
<g><path style="opacity:1" fill="#3b3b3b" d="M 30.5,18.5 C 30.0269,19.9063 29.0269,20.573 27.5,20.5C 27.9731,19.0937 28.9731,18.427 30.5,18.5 Z"/></g>
<g><path style="opacity:1" fill="#2a2a2a" d="M 67.5,20.5 C 70.0014,20.8256 71.1681,22.1589 71,24.5C 69.6244,23.2949 68.4577,21.9616 67.5,20.5 Z"/></g>
<g><path style="opacity:1" fill="#252525" d="M 27.5,20.5 C 25.5,23.1667 23.1667,25.5 20.5,27.5C 21.8333,24.1667 24.1667,21.8333 27.5,20.5 Z"/></g>
<g><path style="opacity:1" fill="#323232" d="M 20.5,27.5 C 20.573,29.0269 19.9063,30.0269 18.5,30.5C 18.427,28.9731 19.0937,27.9731 20.5,27.5 Z"/></g>
<g><path style="opacity:1" fill="#cd3cea" d="M 74.5,26.5 C 77.3523,26.3524 79.019,27.6857 79.5,30.5C 77.1085,35.7357 74.4418,35.7357 71.5,30.5C 72.1716,28.8405 73.1716,27.5072 74.5,26.5 Z"/></g>
<g><path style="opacity:1" fill="#0b0b0b" d="M 47.5,41.5 C 47.5,45.8333 47.5,50.1667 47.5,54.5C 45.1667,54.5 42.8333,54.5 40.5,54.5C 38.8874,51.7139 37.054,49.0472 35,46.5C 34.5026,49.146 34.3359,51.8127 34.5,54.5C 32.8333,54.5 31.1667,54.5 29.5,54.5C 29.5,50.1667 29.5,45.8333 29.5,41.5C 32.1873,41.3359 34.854,41.5026 37.5,42C 39.2112,44.5888 41.0445,47.0888 43,49.5C 43.4974,46.854 43.6641,44.1873 43.5,41.5C 44.8333,41.5 46.1667,41.5 47.5,41.5 Z"/></g>
<g><path style="opacity:1" fill="#151515" d="M 52.5,43.5 C 56.6372,43.1463 60.6372,43.6463 64.5,45C 67.5538,51.3362 65.3871,54.8362 58,55.5C 49.3313,54.3794 47.498,50.3794 52.5,43.5 Z"/></g>
<g><path style="opacity:1" fill="#3d3d3d" d="M 18.5,30.5 C 14.1995,40.2436 13.5328,50.2436 16.5,60.5C 14.132,56.6114 13.132,52.2781 13.5,47.5C 13.5284,43.7636 14.0284,40.0969 15,36.5C 15.4238,33.9746 16.5905,31.9746 18.5,30.5 Z"/></g>
<g><path style="opacity:1" fill="#efefef" d="M 55.5,46.5 C 59.938,45.4251 61.938,47.0917 61.5,51.5C 59.4727,51.6621 57.4727,51.4955 55.5,51C 54.2721,49.5098 54.2721,48.0098 55.5,46.5 Z"/></g>
<g><path style="opacity:1" fill="#3a3a3a" d="M 76.5,64.5 C 80.1858,55.8275 81.3525,46.8275 80,37.5C 82.1369,45.5887 81.8036,53.5887 79,61.5C 78.6232,62.9423 77.7899,63.9423 76.5,64.5 Z"/></g>
<g><path style="opacity:1" fill="#afafaf" d="M 47.5,41.5 C 48.4861,45.97 48.8195,50.6367 48.5,55.5C 45.6146,55.8064 42.9479,55.4731 40.5,54.5C 42.8333,54.5 45.1667,54.5 47.5,54.5C 47.5,50.1667 47.5,45.8333 47.5,41.5 Z"/></g>
<g><path style="opacity:1" fill="#242424" d="M 16.5,60.5 C 17.6737,61.5137 18.3404,62.847 18.5,64.5C 16.8958,63.713 16.2291,62.3797 16.5,60.5 Z"/></g>
<g><path style="opacity:1" fill="#282828" d="M 18.5,64.5 C 19.9063,64.9731 20.573,65.9731 20.5,67.5C 19.0937,67.0269 18.427,66.0269 18.5,64.5 Z"/></g>
<g><path style="opacity:1" fill="#2c2c2c" d="M 20.5,67.5 C 23.1667,69.5 25.5,71.8333 27.5,74.5C 24.1667,73.1667 21.8333,70.8333 20.5,67.5 Z"/></g>
<g><path style="opacity:1" fill="#2c2c2c" d="M 76.5,64.5 C 74.1667,70.1667 70.1667,74.1667 64.5,76.5C 68.8333,72.8333 72.8333,68.8333 76.5,64.5 Z"/></g>
<g><path style="opacity:1" fill="#3a3a3a" d="M 27.5,74.5 C 29.0269,74.427 30.0269,75.0937 30.5,76.5C 28.9731,76.573 27.9731,75.9063 27.5,74.5 Z"/></g>
<g><path style="opacity:1" fill="#464646" d="M 30.5,76.5 C 35.9679,78.5942 41.6346,79.9276 47.5,80.5C 53.3654,79.9276 59.0321,78.5942 64.5,76.5C 63.0254,78.4095 61.0254,79.5762 58.5,80C 51.1667,82 43.8333,82 36.5,80C 33.9746,79.5762 31.9746,78.4095 30.5,76.5 Z"/></g>
</svg>
