<?xml version="1.0" encoding="UTF-8"?>
<!DOCTYPE svg PUBLIC "-//W3C//DTD SVG 1.1//EN" "http://www.w3.org/Graphics/SVG/1.1/DTD/svg11.dtd">
<svg xmlns="http://www.w3.org/2000/svg" version="1.1" width="96px" height="96px" style="shape-rendering:geometricPrecision; text-rendering:geometricPrecision; image-rendering:optimizeQuality; fill-rule:evenodd; clip-rule:evenodd" xmlns:xlink="http://www.w3.org/1999/xlink">
<g><path style="opacity:0.977" fill="#6869e7" d="M 46.5,-0.5 C 47.8333,-0.5 49.1667,-0.5 50.5,-0.5C 60.1328,5.98851 70.1328,11.9885 80.5,17.5C 73.2351,22.8086 65.5685,27.642 57.5,32C 54.2221,33.8091 50.8888,35.3091 47.5,36.5C 36.8333,30.5 26.1667,24.5 15.5,18.5C 25.6663,11.9158 35.9997,5.58242 46.5,-0.5 Z"/></g>
<g><path style="opacity:0.965" fill="#5454cd" d="M 80.5,17.5 C 81.4849,21.6344 81.8182,25.9677 81.5,30.5C 79.5956,30.7376 78.2623,31.7376 77.5,33.5C 75.5403,31.5159 73.207,30.6826 70.5,31C 65.0353,33.2321 60.0353,36.2321 55.5,40C 56.056,40.3826 56.3893,40.8826 56.5,41.5C 55.5655,42.5676 55.2322,43.901 55.5,45.5C 53.5,46.5 51.5,47.5 49.5,48.5C 48.7752,44.6047 48.1086,40.6047 47.5,36.5C 50.8888,35.3091 54.2221,33.8091 57.5,32C 65.5685,27.642 73.2351,22.8086 80.5,17.5 Z"/></g>
<g><path style="opacity:0.992" fill="#414199" d="M 15.5,18.5 C 26.1667,24.5 36.8333,30.5 47.5,36.5C 48.1086,40.6047 48.7752,44.6047 49.5,48.5C 49.5,49.1667 49.1667,49.5 48.5,49.5C 43.8165,47.1373 39.1499,44.8039 34.5,42.5C 33.3406,40.7497 31.674,39.7497 29.5,39.5C 24.8698,36.5136 20.2031,33.5136 15.5,30.5C 15.5,26.5 15.5,22.5 15.5,18.5 Z"/></g>
<g><path style="opacity:1" fill="#6464e1" d="M 77.5,33.5 C 78.7079,34.2341 80.0413,34.5674 81.5,34.5C 82.5747,35.7134 83.2414,37.2134 83.5,39C 83.3917,40.6811 82.7251,41.8478 81.5,42.5C 79.847,42.6596 78.5137,43.3263 77.5,44.5C 75.847,44.6596 74.5137,45.3263 73.5,46.5C 73.1667,46.5 72.8333,46.5 72.5,46.5C 70.8333,47.5 69.5,48.8333 68.5,50.5C 68.1667,50.5 67.8333,50.5 67.5,50.5C 64.996,46.371 61.3294,43.371 56.5,41.5C 56.3893,40.8826 56.056,40.3826 55.5,40C 60.0353,36.2321 65.0353,33.2321 70.5,31C 73.207,30.6826 75.5403,31.5159 77.5,33.5 Z"/></g>
<g><path style="opacity:1" fill="#886b59" d="M 15.5,30.5 C 20.2031,33.5136 24.8698,36.5136 29.5,39.5C 28.6618,39.8417 28.3284,40.5084 28.5,41.5C 28.6207,47.6313 27.954,53.6313 26.5,59.5C 25.5,59.5 24.5,59.5 23.5,59.5C 21.1089,57.6378 18.4422,56.3045 15.5,55.5C 15.5,47.1667 15.5,38.8333 15.5,30.5 Z"/></g>
<g><path style="opacity:1" fill="#bc9480" d="M 81.5,30.5 C 81.5,31.8333 81.5,33.1667 81.5,34.5C 80.0413,34.5674 78.7079,34.2341 77.5,33.5C 78.2623,31.7376 79.5956,30.7376 81.5,30.5 Z"/></g>
<g><path style="opacity:1" fill="#efeceb" d="M 29.5,39.5 C 31.674,39.7497 33.3406,40.7497 34.5,42.5C 34.335,45.8499 34.5017,49.1832 35,52.5C 38.989,58.3175 43.489,63.6508 48.5,68.5C 59.6633,62.4194 70.6633,56.086 81.5,49.5C 82.1667,50.1667 82.8333,50.8333 83.5,51.5C 71.6705,57.9138 60.0038,64.5804 48.5,71.5C 47.2794,70.9717 46.1127,70.305 45,69.5C 41.0454,63.8767 36.7121,58.5434 32,53.5C 31.6667,49.8333 31.3333,46.1667 31,42.5C 30.3292,41.7476 29.4959,41.4142 28.5,41.5C 28.3284,40.5084 28.6618,39.8417 29.5,39.5 Z"/></g>
<g><path style="opacity:1" fill="#404097" d="M 56.5,41.5 C 61.3294,43.371 64.996,46.371 67.5,50.5C 66.791,51.404 65.791,51.7373 64.5,51.5C 64.5,50.8333 64.1667,50.5 63.5,50.5C 62.4863,49.3263 61.153,48.6596 59.5,48.5C 58.205,47.5116 56.8717,46.5116 55.5,45.5C 55.2322,43.901 55.5655,42.5676 56.5,41.5 Z"/></g>
<g><path style="opacity:1" fill="#878788" d="M 28.5,41.5 C 29.4959,41.4142 30.3292,41.7476 31,42.5C 31.3333,46.1667 31.6667,49.8333 32,53.5C 36.7121,58.5434 41.0454,63.8767 45,69.5C 46.1127,70.305 47.2794,70.9717 48.5,71.5C 48.5,72.8333 48.5,74.1667 48.5,75.5C 47.391,75.4431 46.391,75.1098 45.5,74.5C 44.0351,73.2632 42.3684,72.2632 40.5,71.5C 39.3951,70.3995 38.0618,69.7329 36.5,69.5C 35.5994,67.2729 33.9328,66.2729 31.5,66.5C 28.8036,64.491 26.1369,62.491 23.5,60.5C 23.5,60.1667 23.5,59.8333 23.5,59.5C 24.5,59.5 25.5,59.5 26.5,59.5C 27.954,53.6313 28.6207,47.6313 28.5,41.5 Z"/></g>
<g><path style="opacity:1" fill="#876957" d="M 34.5,42.5 C 39.1499,44.8039 43.8165,47.1373 48.5,49.5C 48.5,55.8333 48.5,62.1667 48.5,68.5C 43.489,63.6508 38.989,58.3175 35,52.5C 34.5017,49.1832 34.335,45.8499 34.5,42.5 Z"/></g>
<g><path style="opacity:1" fill="#452c32" d="M 77.5,44.5 C 77.7725,46.9582 76.7725,48.6249 74.5,49.5C 73.6143,48.675 73.281,47.675 73.5,46.5C 74.5137,45.3263 75.847,44.6596 77.5,44.5 Z"/></g>
<g><path style="opacity:1" fill="#bd967f" d="M 81.5,42.5 C 81.5,44.8333 81.5,47.1667 81.5,49.5C 70.6633,56.086 59.6633,62.4194 48.5,68.5C 48.5,62.1667 48.5,55.8333 48.5,49.5C 49.1667,49.5 49.5,49.1667 49.5,48.5C 51.5,47.5 53.5,46.5 55.5,45.5C 56.8717,46.5116 58.205,47.5116 59.5,48.5C 58.2794,49.0283 57.1127,49.695 56,50.5C 55.1764,53.8823 55.343,57.2156 56.5,60.5C 57.4776,60.0233 58.3109,59.3567 59,58.5C 59.1909,56.2922 59.6909,54.2922 60.5,52.5C 59.6693,57.1447 60.8359,58.1447 64,55.5C 64.49,54.2068 64.6567,52.8734 64.5,51.5C 65.791,51.7373 66.791,51.404 67.5,50.5C 67.8333,50.5 68.1667,50.5 68.5,50.5C 68.7751,52.7583 69.7751,53.0916 71.5,51.5C 72.4519,49.9547 72.7852,48.288 72.5,46.5C 72.8333,46.5 73.1667,46.5 73.5,46.5C 73.281,47.675 73.6143,48.675 74.5,49.5C 76.7725,48.6249 77.7725,46.9582 77.5,44.5C 78.5137,43.3263 79.847,42.6596 81.5,42.5 Z"/></g>
<g><path style="opacity:1" fill="#412930" d="M 63.5,50.5 C 64.1667,50.5 64.5,50.8333 64.5,51.5C 64.6567,52.8734 64.49,54.2068 64,55.5C 60.8359,58.1447 59.6693,57.1447 60.5,52.5C 61.7095,52.0679 62.7095,51.4013 63.5,50.5 Z"/></g>
<g><path style="opacity:1" fill="#f7f4f3" d="M 59.5,48.5 C 61.153,48.6596 62.4863,49.3263 63.5,50.5C 62.7095,51.4013 61.7095,52.0679 60.5,52.5C 59.6909,54.2922 59.1909,56.2922 59,58.5C 58.3109,59.3567 57.4776,60.0233 56.5,60.5C 55.343,57.2156 55.1764,53.8823 56,50.5C 57.1127,49.695 58.2794,49.0283 59.5,48.5 Z"/></g>
<g><path style="opacity:1" fill="#f4f1f6" d="M 72.5,46.5 C 72.7852,48.288 72.4519,49.9547 71.5,51.5C 69.7751,53.0916 68.7751,52.7583 68.5,50.5C 69.5,48.8333 70.8333,47.5 72.5,46.5 Z"/></g>
<g><path style="opacity:0.992" fill="#d5d5d5" d="M 83.5,51.5 C 83.7128,54.4509 83.0461,57.1175 81.5,59.5C 76.7931,63.5402 72.4598,67.8735 68.5,72.5C 67.8333,73.1667 67.1667,73.8333 66.5,74.5C 65.4168,74.4606 64.4168,74.1272 63.5,73.5C 61.3005,74.3897 59.1338,75.3897 57,76.5C 54.2177,74.9177 51.3844,74.5844 48.5,75.5C 48.5,74.1667 48.5,72.8333 48.5,71.5C 60.0038,64.5804 71.6705,57.9138 83.5,51.5 Z"/></g>
<g><path style="opacity:1" fill="#4f5a9c" d="M 15.5,55.5 C 18.4422,56.3045 21.1089,57.6378 23.5,59.5C 23.5,59.8333 23.5,60.1667 23.5,60.5C 22.205,61.4884 20.8717,62.4884 19.5,63.5C 18.2976,62.5946 16.9643,62.5946 15.5,63.5C 15.5,60.8333 15.5,58.1667 15.5,55.5 Z"/></g>
<g><path style="opacity:1" fill="#5a67c8" d="M 23.5,60.5 C 26.1369,62.491 28.8036,64.491 31.5,66.5C 29.8632,67.2178 28.1966,67.3845 26.5,67C 22.254,61.2406 21.754,61.7406 25,68.5C 25.6708,69.2524 26.5041,69.5858 27.5,69.5C 27.8333,70.1667 28.1667,70.8333 28.5,71.5C 27.2267,72.0768 27.2267,72.7435 28.5,73.5C 31.6969,70.5157 34.3636,70.8491 36.5,74.5C 34.1461,78.1336 31.9794,78.1336 30,74.5C 29.7638,76.2998 30.2638,77.9665 31.5,79.5C 33.5,78.5 35.5,77.5 37.5,76.5C 38.1067,76.6236 38.44,76.9569 38.5,77.5C 36.1838,78.8056 33.8505,80.1389 31.5,81.5C 30.4822,80.8075 29.4822,80.1408 28.5,79.5C 27.8333,79.5 27.5,79.1667 27.5,78.5C 26.962,76.8828 26.6287,75.2161 26.5,73.5C 24.6203,73.2291 23.287,73.8958 22.5,75.5C 20.9731,75.573 19.9731,74.9063 19.5,73.5C 20.5676,72.5655 21.901,72.2322 23.5,72.5C 22.9769,69.122 21.6435,66.122 19.5,63.5C 20.8717,62.4884 22.205,61.4884 23.5,60.5 Z"/></g>
<g><path style="opacity:1" fill="#6565e3" d="M 28.5,71.5 C 28.1667,70.8333 27.8333,70.1667 27.5,69.5C 29.4368,67.6735 31.4368,67.5068 33.5,69C 32.0899,70.3717 30.4233,71.205 28.5,71.5 Z"/></g>
<g><path style="opacity:1" fill="#4d76b4" d="M 19.5,63.5 C 21.6435,66.122 22.9769,69.122 23.5,72.5C 21.901,72.2322 20.5676,72.5655 19.5,73.5C 18.8333,73.5 18.1667,73.5 17.5,73.5C 16.2921,72.7659 14.9587,72.4326 13.5,72.5C 13.2895,69.248 13.9562,66.248 15.5,63.5C 16.9643,62.5946 18.2976,62.5946 19.5,63.5 Z"/></g>
<g><path style="opacity:1" fill="#7380ca" d="M 31.5,66.5 C 33.9328,66.2729 35.5994,67.2729 36.5,69.5C 35.9569,69.56 35.6236,69.8933 35.5,70.5C 36.3601,72.9307 38.0268,74.264 40.5,74.5C 40.5,73.5 40.5,72.5 40.5,71.5C 42.3684,72.2632 44.0351,73.2632 45.5,74.5C 44.8333,74.5 44.5,74.8333 44.5,75.5C 42.8333,76.1667 41.1667,76.8333 39.5,77.5C 39.1667,77.5 38.8333,77.5 38.5,77.5C 38.44,76.9569 38.1067,76.6236 37.5,76.5C 35.5,77.5 33.5,78.5 31.5,79.5C 30.2638,77.9665 29.7638,76.2998 30,74.5C 31.9794,78.1336 34.1461,78.1336 36.5,74.5C 34.3636,70.8491 31.6969,70.5157 28.5,73.5C 27.2267,72.7435 27.2267,72.0768 28.5,71.5C 30.4233,71.205 32.0899,70.3717 33.5,69C 31.4368,67.5068 29.4368,67.6735 27.5,69.5C 26.5041,69.5858 25.6708,69.2524 25,68.5C 21.754,61.7406 22.254,61.2406 26.5,67C 28.1966,67.3845 29.8632,67.2178 31.5,66.5 Z"/></g>
<g><path style="opacity:1" fill="#5c5ed8" d="M 36.5,69.5 C 38.0618,69.7329 39.3951,70.3995 40.5,71.5C 40.5,72.5 40.5,73.5 40.5,74.5C 38.0268,74.264 36.3601,72.9307 35.5,70.5C 35.6236,69.8933 35.9569,69.56 36.5,69.5 Z"/></g>
<g><path style="opacity:1" fill="#6167c5" d="M 81.5,59.5 C 81.7359,62.6085 81.4025,65.6085 80.5,68.5C 76.6569,69.6504 72.9902,71.317 69.5,73.5C 68.8933,73.3764 68.56,73.0431 68.5,72.5C 72.4598,67.8735 76.7931,63.5402 81.5,59.5 Z"/></g>
<g><path style="opacity:1" fill="#5d61c1" d="M 66.5,74.5 C 63.5015,77.0017 60.1682,79.0017 56.5,80.5C 53.6915,80.6933 51.0248,81.36 48.5,82.5C 48.413,79.4221 47.0797,77.0888 44.5,75.5C 44.5,74.8333 44.8333,74.5 45.5,74.5C 46.391,75.1098 47.391,75.4431 48.5,75.5C 51.3844,74.5844 54.2177,74.9177 57,76.5C 59.1338,75.3897 61.3005,74.3897 63.5,73.5C 64.4168,74.1272 65.4168,74.4606 66.5,74.5 Z"/></g>
<g><path style="opacity:0.933" fill="#886a58" d="M 17.5,73.5 C 18.1667,73.5 18.8333,73.5 19.5,73.5C 19.9731,74.9063 20.9731,75.573 22.5,75.5C 23.8993,76.8897 25.5659,77.8897 27.5,78.5C 27.5,79.1667 27.8333,79.5 28.5,79.5C 28.5,82.1667 28.5,84.8333 28.5,87.5C 25.1944,85.5113 21.8611,83.5113 18.5,81.5C 17.52,78.9135 17.1866,76.2469 17.5,73.5 Z"/></g>
<g><path style="opacity:1" fill="#48629a" d="M 27.5,78.5 C 25.5659,77.8897 23.8993,76.8897 22.5,75.5C 23.287,73.8958 24.6203,73.2291 26.5,73.5C 26.6287,75.2161 26.962,76.8828 27.5,78.5 Z"/></g>
<g><path style="opacity:0.942" fill="#192535" d="M 80.5,68.5 C 81.8077,72.0187 81.8077,75.6853 80.5,79.5C 71.1734,83.922 62.5068,89.2554 54.5,95.5C 53.1667,95.5 51.8333,95.5 50.5,95.5C 45.1253,91.4732 39.4586,87.8065 33.5,84.5C 35.4632,83.1798 37.4632,81.8465 39.5,80.5C 42.248,82.5725 45.248,84.2391 48.5,85.5C 51.568,84.3087 54.2346,82.642 56.5,80.5C 60.1682,79.0017 63.5015,77.0017 66.5,74.5C 67.1667,73.8333 67.8333,73.1667 68.5,72.5C 68.56,73.0431 68.8933,73.3764 69.5,73.5C 72.9902,71.317 76.6569,69.6504 80.5,68.5 Z"/></g>
<g><path style="opacity:0.92" fill="#bf977f" d="M 38.5,77.5 C 38.8333,77.5 39.1667,77.5 39.5,77.5C 39.5,78.5 39.5,79.5 39.5,80.5C 37.4632,81.8465 35.4632,83.1798 33.5,84.5C 32.0351,85.7368 30.3684,86.7368 28.5,87.5C 28.5,84.8333 28.5,82.1667 28.5,79.5C 29.4822,80.1408 30.4822,80.8075 31.5,81.5C 33.8505,80.1389 36.1838,78.8056 38.5,77.5 Z"/></g>
<g><path style="opacity:1" fill="#4763a5" d="M 44.5,75.5 C 47.0797,77.0888 48.413,79.4221 48.5,82.5C 51.0248,81.36 53.6915,80.6933 56.5,80.5C 54.2346,82.642 51.568,84.3087 48.5,85.5C 45.248,84.2391 42.248,82.5725 39.5,80.5C 39.5,79.5 39.5,78.5 39.5,77.5C 41.1667,76.8333 42.8333,76.1667 44.5,75.5 Z"/></g>
</svg>
