<?xml version="1.0" encoding="UTF-8"?>
<!DOCTYPE svg PUBLIC "-//W3C//DTD SVG 1.1//EN" "http://www.w3.org/Graphics/SVG/1.1/DTD/svg11.dtd">
<svg xmlns="http://www.w3.org/2000/svg" version="1.1" width="96px" height="96px" style="shape-rendering:geometricPrecision; text-rendering:geometricPrecision; image-rendering:optimizeQuality; fill-rule:evenodd; clip-rule:evenodd" xmlns:xlink="http://www.w3.org/1999/xlink">
<g><path style="opacity:0.921" fill="#e7504e" d="M 69.5,14.5 C 48.391,-3.63783 34.0576,0.862173 26.5,28C 26.7432,28.9021 27.0766,29.7354 27.5,30.5C 25.3786,35.3612 23.5453,40.3612 22,45.5C 21.5007,50.4889 21.3341,55.4889 21.5,60.5C 20.2947,61.6719 20.2947,63.0052 21.5,64.5C 21.1543,65.6956 20.6543,65.6956 20,64.5C 13.7453,53.5898 11.912,41.9232 14.5,29.5C 19.6166,15.8832 28.95,6.38316 42.5,1C 54.2562,0.211312 63.2562,4.71131 69.5,14.5 Z"/></g>
<g><path style="opacity:1" fill="#e85c56" d="M 69.5,14.5 C 74.0705,18.6312 77.4039,23.6312 79.5,29.5C 81.1889,34.4467 82.1889,39.6134 82.5,45C 82.4057,47.3754 82.0723,49.7087 81.5,52C 84.0525,55.055 84.0525,58.055 81.5,61C 80.1011,61.5946 78.7678,61.4279 77.5,60.5C 76.5224,60.9767 75.6891,61.6433 75,62.5C 74.7216,61.5842 74.2216,60.9175 73.5,60.5C 74.9258,42.5261 68.5925,28.0261 54.5,17C 48.4089,14.5283 42.7422,15.1949 37.5,19C 33.5587,22.4381 30.2254,26.2714 27.5,30.5C 27.0766,29.7354 26.7432,28.9021 26.5,28C 34.0576,0.862173 48.391,-3.63783 69.5,14.5 Z"/></g>
<g><path style="opacity:1" fill="#fef9f9" d="M 73.5,60.5 C 72.0341,65.432 69.5341,69.7654 66,73.5C 64.7273,70.5107 63.5606,67.5107 62.5,64.5C 61.7822,62.8632 61.6155,61.1966 62,59.5C 64.978,57.689 67.478,55.3557 69.5,52.5C 65.9193,50.0768 61.9193,48.4102 57.5,47.5C 55.2379,41.882 53.0713,36.2153 51,30.5C 45.8332,24.9077 41.1666,25.241 37,31.5C 36.51,32.7932 36.3433,34.1266 36.5,35.5C 30.2538,36.0844 28.9204,39.0844 32.5,44.5C 31.2122,46.7388 30.2122,49.0721 29.5,51.5C 28.8476,52.4486 28.5143,53.6153 28.5,55C 30.1697,62.0308 31.8363,69.0308 33.5,76C 33.2716,76.3988 32.9382,76.5654 32.5,76.5C 26.8614,72.5667 23.1947,67.2334 21.5,60.5C 21.3341,55.4889 21.5007,50.4889 22,45.5C 23.5453,40.3612 25.3786,35.3612 27.5,30.5C 30.2254,26.2714 33.5587,22.4381 37.5,19C 42.7422,15.1949 48.4089,14.5283 54.5,17C 68.5925,28.0261 74.9258,42.5261 73.5,60.5 Z"/></g>
<g><path style="opacity:1" fill="#e85c56" d="M 62.5,64.5 C 61.5655,65.5676 61.2322,66.901 61.5,68.5C 56.6292,68.8078 51.9626,67.9745 47.5,66C 40.7087,62.031 34.7087,57.1977 29.5,51.5C 30.2122,49.0721 31.2122,46.7388 32.5,44.5C 28.9204,39.0844 30.2538,36.0844 36.5,35.5C 36.3433,34.1266 36.51,32.7932 37,31.5C 41.1666,25.241 45.8332,24.9077 51,30.5C 53.0713,36.2153 55.2379,41.882 57.5,47.5C 61.9193,48.4102 65.9193,50.0768 69.5,52.5C 67.478,55.3557 64.978,57.689 62,59.5C 61.6155,61.1966 61.7822,62.8632 62.5,64.5 Z"/></g>
<g><path style="opacity:0.911" fill="#e54848" d="M 14.5,29.5 C 11.912,41.9232 13.7453,53.5898 20,64.5C 20.6543,65.6956 21.1543,65.6956 21.5,64.5C 20.2947,63.0052 20.2947,61.6719 21.5,60.5C 23.1947,67.2334 26.8614,72.5667 32.5,76.5C 42.3205,82.7025 52.8205,84.0358 64,80.5C 64.1183,82.5733 65.1183,83.9067 67,84.5C 69.5981,83.5362 70.0981,81.8696 68.5,79.5C 74.1459,76.5119 78.8125,72.5119 82.5,67.5C 75.4811,86.3567 61.8144,95.19 41.5,94C 24.1457,89.3115 13.6457,78.1449 10,60.5C 8.40573,49.5846 9.90573,39.2513 14.5,29.5 Z"/></g>
<g><path style="opacity:1" fill="#e7514f" d="M 79.5,29.5 C 84.9744,39.0519 86.8077,49.3852 85,60.5C 84.6097,63.1042 83.7763,65.4375 82.5,67.5C 78.8125,72.5119 74.1459,76.5119 68.5,79.5C 70.0981,81.8696 69.5981,83.5362 67,84.5C 65.1183,83.9067 64.1183,82.5733 64,80.5C 52.8205,84.0358 42.3205,82.7025 32.5,76.5C 32.9382,76.5654 33.2716,76.3988 33.5,76C 31.8363,69.0308 30.1697,62.0308 28.5,55C 28.5143,53.6153 28.8476,52.4486 29.5,51.5C 34.7087,57.1977 40.7087,62.031 47.5,66C 51.9626,67.9745 56.6292,68.8078 61.5,68.5C 61.2322,66.901 61.5655,65.5676 62.5,64.5C 63.5606,67.5107 64.7273,70.5107 66,73.5C 69.5341,69.7654 72.0341,65.432 73.5,60.5C 74.2216,60.9175 74.7216,61.5842 75,62.5C 75.6891,61.6433 76.5224,60.9767 77.5,60.5C 78.7678,61.4279 80.1011,61.5946 81.5,61C 84.0525,58.055 84.0525,55.055 81.5,52C 82.0723,49.7087 82.4057,47.3754 82.5,45C 82.1889,39.6134 81.1889,34.4467 79.5,29.5 Z"/></g>
<g><path style="opacity:1" fill="#fef4f3" d="M 50.5,51.5 C 54.6917,51.4028 56.0251,53.2361 54.5,57C 49.7282,57.8104 48.3948,55.9771 50.5,51.5 Z"/></g>
</svg>
