<?xml version="1.0" encoding="UTF-8"?>
<!DOCTYPE svg PUBLIC "-//W3C//DTD SVG 1.1//EN" "http://www.w3.org/Graphics/SVG/1.1/DTD/svg11.dtd">
<svg xmlns="http://www.w3.org/2000/svg" version="1.1" width="96px" height="96px" style="shape-rendering:geometricPrecision; text-rendering:geometricPrecision; image-rendering:optimizeQuality; fill-rule:evenodd; clip-rule:evenodd" xmlns:xlink="http://www.w3.org/1999/xlink">
<g><path style="opacity:0.745" fill="#89cef8" d="M 37.5,-0.5 C 44.1667,-0.5 50.8333,-0.5 57.5,-0.5C 59.0276,0.309209 60.6943,0.975875 62.5,1.5C 62.3893,2.11742 62.056,2.61742 61.5,3C 63.3187,3.74026 64.6521,4.90693 65.5,6.5C 44.4334,-0.9233 26.6,3.74337 12,20.5C 0.865099,38.0675 0.698433,55.7342 11.5,73.5C 10.2264,74.1894 10.2264,75.0228 11.5,76C 10.9056,76.4643 10.2389,76.631 9.5,76.5C 4.84268,70.8515 1.50935,64.5182 -0.5,57.5C -0.5,50.8333 -0.5,44.1667 -0.5,37.5C 5.16667,17.8333 17.8333,5.16667 37.5,-0.5 Z"/></g>
<g><path style="opacity:1" fill="#fcfdfe" d="M 65.5,6.5 C 70.4811,9.33021 75.1477,12.6635 79.5,16.5C 88.8848,26.2798 92.8848,37.9465 91.5,51.5C 90.0742,66.3652 83.0742,77.6985 70.5,85.5C 64.5649,88.7003 58.2316,90.7003 51.5,91.5C 43.9103,92.1031 36.5769,91.1031 29.5,88.5C 22.3323,85.0075 16.3323,80.0075 11.5,73.5C 0.698433,55.7342 0.865099,38.0675 12,20.5C 26.6,3.74337 44.4334,-0.9233 65.5,6.5 Z"/></g>
<g><path style="opacity:0.845" fill="#5aaae1" d="M 62.5,1.5 C 69.9907,3.74113 76.324,7.74113 81.5,13.5C 80.5987,14.2905 79.9321,15.2905 79.5,16.5C 75.1477,12.6635 70.4811,9.33021 65.5,6.5C 64.6521,4.90693 63.3187,3.74026 61.5,3C 62.056,2.61742 62.3893,2.11742 62.5,1.5 Z"/></g>
<g><path style="opacity:1" fill="#84bde6" d="M 44.5,17.5 C 45.525,17.8966 45.6917,18.5632 45,19.5C 43.8867,21.3293 42.3867,22.1626 40.5,22C 42.0414,20.6288 43.3747,19.1288 44.5,17.5 Z"/></g>
<g><path style="opacity:0.715" fill="#3d90cf" d="M 81.5,13.5 C 86.987,18.4641 90.987,24.4641 93.5,31.5C 91.5231,34.1923 91.5231,37.1923 93.5,40.5C 92.8963,44.3027 92.2296,47.9694 91.5,51.5C 92.8848,37.9465 88.8848,26.2798 79.5,16.5C 79.9321,15.2905 80.5987,14.2905 81.5,13.5 Z"/></g>
<g><path style="opacity:1" fill="#8dc3eb" d="M 63.5,28.5 C 60.9179,28.0254 58.9179,28.6921 57.5,30.5C 54.6802,30.7525 52.0135,30.2525 49.5,29C 51.3817,28.8019 53.0484,28.3019 54.5,27.5C 55.5063,27.0623 55.5063,26.3957 54.5,25.5C 53.1225,24.7656 51.6225,24.0989 50,23.5C 49.1635,21.1788 48.8301,18.8454 49,16.5C 51.4845,20.3142 54.3178,23.8142 57.5,27C 59.7078,27.1909 61.7078,27.6909 63.5,28.5 Z"/></g>
<g><path style="opacity:1" fill="#4ea1db" d="M 40.5,25.5 C 45.1667,25.5 49.8333,25.5 54.5,25.5C 55.5063,26.3957 55.5063,27.0623 54.5,27.5C 50.4517,27.3946 46.4517,27.7279 42.5,28.5C 41.0484,27.6981 39.3817,27.1981 37.5,27C 38.7375,26.7679 39.7375,26.2679 40.5,25.5 Z"/></g>
<g><path style="opacity:1" fill="#84c5f1" d="M 40.5,25.5 C 39.7375,26.2679 38.7375,26.7679 37.5,27C 39.3817,27.1981 41.0484,27.6981 42.5,28.5C 37.0549,28.5321 31.7215,29.0321 26.5,30C 30.8918,27.5915 35.5584,26.0915 40.5,25.5 Z"/></g>
<g><path style="opacity:1" fill="#4d9ed9" d="M 63.5,28.5 C 64.4916,28.3284 65.1583,28.6618 65.5,29.5C 63.0728,30.2789 63.0728,31.4455 65.5,33C 64.944,33.3826 64.6107,33.8826 64.5,34.5C 62.3295,32.9138 59.9962,31.5804 57.5,30.5C 58.9179,28.6921 60.9179,28.0254 63.5,28.5 Z"/></g>
<g><path style="opacity:1" fill="#1f74bd" d="M 65.5,29.5 C 67.5041,30.6728 69.0041,32.3395 70,34.5C 70.4983,37.8168 70.665,41.1501 70.5,44.5C 69.8333,43.5 69.1667,42.5 68.5,41.5C 67.9213,38.6689 66.588,36.3356 64.5,34.5C 64.6107,33.8826 64.944,33.3826 65.5,33C 63.0728,31.4455 63.0728,30.2789 65.5,29.5 Z"/></g>
<g><path style="opacity:1" fill="#4a9bd5" d="M 22.5,51.5 C 21.6618,51.1583 21.3284,50.4916 21.5,49.5C 21.3343,45.1539 21.501,40.8206 22,36.5C 23.6423,41.4768 23.8089,46.4768 22.5,51.5 Z"/></g>
<g><path style="opacity:1" fill="#7bbeec" d="M 68.5,41.5 C 69.1667,42.5 69.8333,43.5 70.5,44.5C 67.878,47.9635 67.878,51.4635 70.5,55C 69.9056,55.4643 69.2389,55.631 68.5,55.5C 65.0619,52.7081 63.7286,49.0415 64.5,44.5C 64.8966,35.6375 66.0633,35.9708 68,45.5C 68.49,44.2068 68.6567,42.8734 68.5,41.5 Z"/></g>
<g><path style="opacity:1" fill="#9ad1f5" d="M 21.5,49.5 C 21.3284,50.4916 21.6618,51.1583 22.5,51.5C 20.0205,56.2003 19.8539,60.8669 22,65.5C 17.6923,60.3224 17.5256,54.9891 21.5,49.5 Z"/></g>
<g><path style="opacity:1" fill="#277ec3" d="M 69.5,57.5 C 72.3075,59.9584 73.6408,63.1251 73.5,67C 73.9706,71.242 72.3039,74.0753 68.5,75.5C 68.0618,75.5654 67.7284,75.3988 67.5,75C 68.1476,69.0672 68.8142,63.2339 69.5,57.5 Z"/></g>
<g><path style="opacity:0.672" fill="#0e6bb7" d="M 93.5,31.5 C 93.8751,33.6976 94.5418,35.6976 95.5,37.5C 95.5,44.1667 95.5,50.8333 95.5,57.5C 91.731,71.2782 83.731,81.9449 71.5,89.5C 71.4142,88.5041 71.7476,87.6708 72.5,87C 71.5842,86.7216 70.9175,86.2216 70.5,85.5C 83.0742,77.6985 90.0742,66.3652 91.5,51.5C 92.2296,47.9694 92.8963,44.3027 93.5,40.5C 91.5231,37.1923 91.5231,34.1923 93.5,31.5 Z"/></g>
<g><path style="opacity:1" fill="#52a2dc" d="M 68.5,55.5 C 68.8333,56.1667 69.1667,56.8333 69.5,57.5C 68.8142,63.2339 68.1476,69.0672 67.5,75C 67.7284,75.3988 68.0618,75.5654 68.5,75.5C 63.4336,76.2048 58.7669,74.7048 54.5,71C 65.5252,70.144 68.8585,64.644 64.5,54.5C 64.6667,54.1667 64.8333,53.8333 65,53.5C 65.8159,54.8228 66.9826,55.4894 68.5,55.5 Z"/></g>
<g><path style="opacity:1" fill="#5fade3" d="M 47.5,71.5 C 48.8565,73.4988 48.1899,74.6655 45.5,75C 46.7375,75.2321 47.7375,75.7321 48.5,76.5C 40.5049,75.8906 33.1715,73.3906 26.5,69C 29.0168,68.7434 31.3502,69.4101 33.5,71C 38.1548,71.4992 42.8215,71.6658 47.5,71.5 Z"/></g>
<g><path style="opacity:1" fill="#4a94d1" d="M 48.5,76.5 C 47.7375,75.7321 46.7375,75.2321 45.5,75C 48.1899,74.6655 48.8565,73.4988 47.5,71.5C 48.7382,70.5876 50.0715,70.4209 51.5,71C 54.5344,73.5164 57.8677,75.5164 61.5,77C 57.0804,77.7684 52.7471,77.6018 48.5,76.5 Z"/></g>
<g><path style="opacity:0.796" fill="#60afe4" d="M 11.5,73.5 C 16.3323,80.0075 22.3323,85.0075 29.5,88.5C 29.0742,89.5279 29.0742,90.8612 29.5,92.5C 24.8673,90.5171 20.534,88.0171 16.5,85C 13.5532,82.5644 11.2199,79.7311 9.5,76.5C 10.2389,76.631 10.9056,76.4643 11.5,76C 10.2264,75.0228 10.2264,74.1894 11.5,73.5 Z"/></g>
<g><path style="opacity:0.659" fill="#4598d4" d="M 29.5,88.5 C 36.5769,91.1031 43.9103,92.1031 51.5,91.5C 48.3586,92.3213 45.0252,92.8213 41.5,93C 43.935,93.0748 44.6016,93.9081 43.5,95.5C 41.5,95.5 39.5,95.5 37.5,95.5C 34.9188,94.5115 32.2521,93.5115 29.5,92.5C 29.0742,90.8612 29.0742,89.5279 29.5,88.5 Z"/></g>
<g><path style="opacity:0.752" fill="#227ec3" d="M 70.5,85.5 C 70.9175,86.2216 71.5842,86.7216 72.5,87C 71.7476,87.6708 71.4142,88.5041 71.5,89.5C 66.9915,92.0934 62.3248,94.0934 57.5,95.5C 52.8333,95.5 48.1667,95.5 43.5,95.5C 44.6016,93.9081 43.935,93.0748 41.5,93C 45.0252,92.8213 48.3586,92.3213 51.5,91.5C 58.2316,90.7003 64.5649,88.7003 70.5,85.5 Z"/></g>
</svg>
