<?xml version="1.0" encoding="UTF-8"?>
<!DOCTYPE svg PUBLIC "-//W3C//DTD SVG 1.1//EN" "http://www.w3.org/Graphics/SVG/1.1/DTD/svg11.dtd">
<svg xmlns="http://www.w3.org/2000/svg" version="1.1" width="96px" height="96px" style="shape-rendering:geometricPrecision; text-rendering:geometricPrecision; image-rendering:optimizeQuality; fill-rule:evenodd; clip-rule:evenodd" xmlns:xlink="http://www.w3.org/1999/xlink">
<g><path style="opacity:1" fill="#e03e41" d="M -0.5,-0.5 C 31.5,-0.5 63.5,-0.5 95.5,-0.5C 95.5,31.5 95.5,63.5 95.5,95.5C 63.5,95.5 31.5,95.5 -0.5,95.5C -0.5,63.5 -0.5,31.5 -0.5,-0.5 Z"/></g>
<g><path style="opacity:1" fill="#f1e9e9" d="M 55.5,64.5 C 50.1667,64.5 44.8333,64.5 39.5,64.5C 36.4142,63.0147 33.0808,62.0147 29.5,61.5C 26.0956,58.2638 23.2623,54.5971 21,50.5C 20.3333,47.1667 20.3333,43.8333 21,40.5C 22.3139,39.6872 23.4805,38.6872 24.5,37.5C 25.123,29.7374 26.123,22.0707 27.5,14.5C 30.1873,14.3359 32.854,14.5026 35.5,15C 43.5,25 51.5,25 59.5,15C 62.146,14.5026 64.8127,14.3359 67.5,14.5C 68.877,22.0707 69.877,29.7374 70.5,37.5C 71.5195,38.6872 72.6861,39.6872 74,40.5C 74.7918,53.8738 68.6251,61.8738 55.5,64.5 Z"/></g>
<g><path style="opacity:1" fill="#231515" d="M 67.5,39.5 C 68.8333,39.5 69.5,40.1667 69.5,41.5C 69.5,40.1667 68.8333,39.5 67.5,39.5 Z"/></g>
<g><path style="opacity:1" fill="#faf6ef" d="M 52.5,41.5 C 54.1667,41.5 55.8333,41.5 57.5,41.5C 59.5833,44.0822 61.9167,44.0822 64.5,41.5C 66.8764,43.6268 67.8764,46.2935 67.5,49.5C 67.5,49.8333 67.5,50.1667 67.5,50.5C 65.8235,51.1834 65.1568,52.5168 65.5,54.5C 59.5682,55.9663 53.5682,57.2997 47.5,58.5C 41.4318,57.2997 35.4318,55.9663 29.5,54.5C 29.8432,52.5168 29.1765,51.1834 27.5,50.5C 27.5,50.1667 27.5,49.8333 27.5,49.5C 26.968,42.8216 29.468,40.8216 35,43.5C 36.6811,43.3917 37.8478,42.7251 38.5,41.5C 39.8333,41.5 41.1667,41.5 42.5,41.5C 44.0291,40.6532 45.6958,39.9865 47.5,39.5C 49.3042,39.9865 50.9709,40.6532 52.5,41.5 Z"/></g>
<g><path style="opacity:1" fill="#291a1b" d="M 27.5,39.5 C 27.5,40.8333 26.8333,41.5 25.5,41.5C 25.5,40.1667 26.1667,39.5 27.5,39.5 Z"/></g>
<g><path style="opacity:1" fill="#170f12" d="M 29.5,20.5 C 30.1229,27.2547 29.4563,33.588 27.5,39.5C 26.8771,32.7453 27.5437,26.412 29.5,20.5 Z"/></g>
<g><path style="opacity:1" fill="#19181e" d="M 65.5,20.5 C 67.4563,26.412 68.1229,32.7453 67.5,39.5C 65.5437,33.588 64.8771,27.2547 65.5,20.5 Z"/></g>
<g><path style="opacity:1" fill="#f58e15" d="M 33.5,18.5 C 33.5,19.8333 34.1667,20.5 35.5,20.5C 35.8212,22.0481 36.8212,22.7148 38.5,22.5C 38.5394,23.5832 38.8728,24.5832 39.5,25.5C 37.1441,26.6539 36.9774,27.9873 39,29.5C 39.5,29 40,28.5 40.5,28C 45.1667,27.3333 49.8333,27.3333 54.5,28C 55.7312,29.9675 56.7312,29.8008 57.5,27.5C 56.8333,26.8333 56.1667,26.1667 55.5,25.5C 56.1272,24.5832 56.4606,23.5832 56.5,22.5C 56.8333,22.5 57.1667,22.5 57.5,22.5C 58.8333,22.5 59.5,21.8333 59.5,20.5C 60.8333,20.5 61.5,19.8333 61.5,18.5C 62.8333,19.1667 64.1667,19.8333 65.5,20.5C 64.8771,27.2547 65.5437,33.588 67.5,39.5C 67.5,40.8333 68.1667,41.5 69.5,41.5C 70.0356,44.6981 69.369,47.3647 67.5,49.5C 67.8764,46.2935 66.8764,43.6268 64.5,41.5C 61.9167,44.0822 59.5833,44.0822 57.5,41.5C 59.1765,40.8166 59.8432,39.4832 59.5,37.5C 56.0771,37.124 53.7438,38.4574 52.5,41.5C 50.9709,40.6532 49.3042,39.9865 47.5,39.5C 45.6958,39.9865 44.0291,40.6532 42.5,41.5C 40.9726,38.9321 38.6393,37.5988 35.5,37.5C 35.5,38.8333 35.5,40.1667 35.5,41.5C 36.5,41.5 37.5,41.5 38.5,41.5C 37.8478,42.7251 36.6811,43.3917 35,43.5C 29.468,40.8216 26.968,42.8216 27.5,49.5C 25.631,47.3647 24.9644,44.6981 25.5,41.5C 26.8333,41.5 27.5,40.8333 27.5,39.5C 29.4563,33.588 30.1229,27.2547 29.5,20.5C 30.8333,19.8333 32.1667,19.1667 33.5,18.5 Z"/></g>
<g><path style="opacity:1" fill="#23160d" d="M 57.5,41.5 C 55.8333,41.5 54.1667,41.5 52.5,41.5C 53.7438,38.4574 56.0771,37.124 59.5,37.5C 59.8432,39.4832 59.1765,40.8166 57.5,41.5 Z"/></g>
<g><path style="opacity:1" fill="#1f150e" d="M 42.5,41.5 C 41.1667,41.5 39.8333,41.5 38.5,41.5C 37.5,41.5 36.5,41.5 35.5,41.5C 35.5,40.1667 35.5,38.8333 35.5,37.5C 38.6393,37.5988 40.9726,38.9321 42.5,41.5 Z"/></g>
<g><path style="opacity:1" fill="#fcf3e1" d="M 50.5,33.5 C 52.604,33.2011 54.604,33.5344 56.5,34.5C 54.6675,35.2485 53.0009,36.2485 51.5,37.5C 50.5713,36.3112 50.238,34.9778 50.5,33.5 Z"/></g>
<g><path style="opacity:1" fill="#fdedd8" d="M 37.5,33.5 C 39.8333,33.5 42.1667,33.5 44.5,33.5C 44.762,34.9778 44.4287,36.3112 43.5,37.5C 41.2074,36.348 39.2074,35.0147 37.5,33.5 Z"/></g>
<g><path style="opacity:1" fill="#614129" d="M 38.5,22.5 C 44.5,25.1667 50.5,25.1667 56.5,22.5C 56.4606,23.5832 56.1272,24.5832 55.5,25.5C 56.1667,26.1667 56.8333,26.8333 57.5,27.5C 56.7312,29.8008 55.7312,29.9675 54.5,28C 49.8333,27.3333 45.1667,27.3333 40.5,28C 40,28.5 39.5,29 39,29.5C 36.9774,27.9873 37.1441,26.6539 39.5,25.5C 38.8728,24.5832 38.5394,23.5832 38.5,22.5 Z"/></g>
<g><path style="opacity:1" fill="#fceddb" d="M 61.5,22.5 C 63.3435,24.2789 64.0102,26.6122 63.5,29.5C 62.1667,29.5 60.8333,29.5 59.5,29.5C 59.4679,26.9242 60.1346,24.5909 61.5,22.5 Z"/></g>
<g><path style="opacity:1" fill="#fbf0e0" d="M 31.5,22.5 C 34.5426,23.7438 35.876,26.0771 35.5,29.5C 34.1667,29.5 32.8333,29.5 31.5,29.5C 31.5,27.1667 31.5,24.8333 31.5,22.5 Z"/></g>
<g><path style="opacity:1" fill="#45280f" d="M 59.5,20.5 C 59.5,21.8333 58.8333,22.5 57.5,22.5C 57.5,21.1667 58.1667,20.5 59.5,20.5 Z"/></g>
<g><path style="opacity:1" fill="#3c3028" d="M 35.5,20.5 C 37.1788,20.2852 38.1788,20.9519 38.5,22.5C 36.8212,22.7148 35.8212,22.0481 35.5,20.5 Z"/></g>
<g><path style="opacity:1" fill="#4c2a0d" d="M 61.5,18.5 C 61.5,19.8333 60.8333,20.5 59.5,20.5C 59.5,19.1667 60.1667,18.5 61.5,18.5 Z"/></g>
<g><path style="opacity:1" fill="#2a1a0c" d="M 33.5,18.5 C 34.8333,18.5 35.5,19.1667 35.5,20.5C 35.5,19.1667 34.8333,18.5 33.5,18.5 Z"/></g>
<g><path style="opacity:1" fill="#181413" d="M 65.5,20.5 C 64.1667,19.8333 62.8333,19.1667 61.5,18.5C 62.1834,16.8235 63.5168,16.1568 65.5,16.5C 65.5,17.8333 65.5,19.1667 65.5,20.5 Z"/></g>
<g><path style="opacity:1" fill="#191413" d="M 33.5,18.5 C 32.1667,19.1667 30.8333,19.8333 29.5,20.5C 29.5,19.1667 29.5,17.8333 29.5,16.5C 31.4832,16.1568 32.8166,16.8235 33.5,18.5 Z"/></g>
<g><path style="opacity:1" fill="#201814" d="M 69.5,41.5 C 70.7647,42.5145 71.4313,44.0145 71.5,46C 71.3064,49.5477 69.9731,52.381 67.5,54.5C 67.5,53.1667 67.5,51.8333 67.5,50.5C 67.5,50.1667 67.5,49.8333 67.5,49.5C 69.369,47.3647 70.0356,44.6981 69.5,41.5 Z"/></g>
<g><path style="opacity:1" fill="#281a11" d="M 25.5,41.5 C 24.9644,44.6981 25.631,47.3647 27.5,49.5C 27.5,49.8333 27.5,50.1667 27.5,50.5C 27.5,51.8333 27.5,53.1667 27.5,54.5C 25.0269,52.381 23.6936,49.5477 23.5,46C 23.5687,44.0145 24.2353,42.5145 25.5,41.5 Z"/></g>
<g><path style="opacity:1" fill="#6a6a6a" d="M 46.5,47.5 C 44.5,48.1667 42.5,48.8333 40.5,49.5C 38.5241,48.5729 38.1908,47.2395 39.5,45.5C 41.5225,47.1733 43.8559,47.8399 46.5,47.5 Z"/></g>
<g><path style="opacity:1" fill="#090909" d="M 48.5,47.5 C 50.5,48.1667 52.5,48.8333 54.5,49.5C 49.8333,49.5 45.1667,49.5 40.5,49.5C 42.5,48.8333 44.5,48.1667 46.5,47.5C 46.2786,46.2652 45.6119,45.2652 44.5,44.5C 46.5,43.1667 48.5,43.1667 50.5,44.5C 49.3881,45.2652 48.7214,46.2652 48.5,47.5 Z"/></g>
<g><path style="opacity:1" fill="#6d6c6c" d="M 54.5,49.5 C 52.5,48.8333 50.5,48.1667 48.5,47.5C 51.2438,47.7521 53.7438,47.0855 56,45.5C 57.5848,47.2012 57.0848,48.5346 54.5,49.5 Z"/></g>
<g><path style="opacity:1" fill="#e7881c" d="M 27.5,50.5 C 29.1765,51.1834 29.8432,52.5168 29.5,54.5C 28.8333,54.5 28.1667,54.5 27.5,54.5C 27.5,53.1667 27.5,51.8333 27.5,50.5 Z"/></g>
<g><path style="opacity:1" fill="#d97d9c" d="M 40.5,49.5 C 45.1667,49.5 49.8333,49.5 54.5,49.5C 53.4324,50.4345 52.099,50.7678 50.5,50.5C 50.5,51.8333 50.5,53.1667 50.5,54.5C 48.5,54.5 46.5,54.5 44.5,54.5C 44.5,53.1667 44.5,51.8333 44.5,50.5C 42.901,50.7678 41.5676,50.4345 40.5,49.5 Z"/></g>
<g><path style="opacity:1" fill="#e58a19" d="M 67.5,50.5 C 67.5,51.8333 67.5,53.1667 67.5,54.5C 66.8333,54.5 66.1667,54.5 65.5,54.5C 65.1568,52.5168 65.8235,51.1834 67.5,50.5 Z"/></g>
<g><path style="opacity:1" fill="#2e2c2c" d="M 27.5,54.5 C 28.1667,54.5 28.8333,54.5 29.5,54.5C 29.5,55.1667 29.5,55.8333 29.5,56.5C 28.1667,56.5 27.5,55.8333 27.5,54.5 Z"/></g>
<g><path style="opacity:1" fill="#303138" d="M 65.5,54.5 C 66.1667,54.5 66.8333,54.5 67.5,54.5C 67.5,55.8333 66.8333,56.5 65.5,56.5C 65.5,55.8333 65.5,55.1667 65.5,54.5 Z"/></g>
<g><path style="opacity:1" fill="#252526" d="M 65.5,56.5 C 65.5,57.8333 64.8333,58.5 63.5,58.5C 63.5,57.1667 64.1667,56.5 65.5,56.5 Z"/></g>
<g><path style="opacity:1" fill="#272829" d="M 29.5,56.5 C 30.8333,56.5 31.5,57.1667 31.5,58.5C 31.5,57.1667 30.8333,56.5 29.5,56.5 Z"/></g>
<g><path style="opacity:1" fill="#1c140e" d="M 31.5,58.5 C 35.0122,57.9455 38.0122,58.6122 40.5,60.5C 36.9878,61.0545 33.9878,60.3878 31.5,58.5 Z"/></g>
<g><path style="opacity:1" fill="#f18f1a" d="M 29.5,54.5 C 35.4318,55.9663 41.4318,57.2997 47.5,58.5C 53.5682,57.2997 59.5682,55.9663 65.5,54.5C 65.5,55.1667 65.5,55.8333 65.5,56.5C 64.1667,56.5 63.5,57.1667 63.5,58.5C 59.9878,57.9455 56.9878,58.6122 54.5,60.5C 49.8333,60.5 45.1667,60.5 40.5,60.5C 38.0122,58.6122 35.0122,57.9455 31.5,58.5C 31.5,57.1667 30.8333,56.5 29.5,56.5C 29.5,55.8333 29.5,55.1667 29.5,54.5 Z"/></g>
<g><path style="opacity:1" fill="#181210" d="M 63.5,58.5 C 61.0122,60.3878 58.0122,61.0545 54.5,60.5C 56.9878,58.6122 59.9878,57.9455 63.5,58.5 Z"/></g>
<g><path style="opacity:1" fill="#190f12" d="M 40.5,60.5 C 45.1667,60.5 49.8333,60.5 54.5,60.5C 52.6028,61.8048 50.2695,62.4714 47.5,62.5C 44.7305,62.4714 42.3972,61.8048 40.5,60.5 Z"/></g>
<g><path style="opacity:1" fill="#c76566" d="M 39.5,64.5 C 44.8333,64.5 50.1667,64.5 55.5,64.5C 54.1667,65.1667 52.8333,65.8333 51.5,66.5C 48.4299,66.3677 45.4299,66.701 42.5,67.5C 42.5,66.8333 42.1667,66.5 41.5,66.5C 40.5,66.5 39.5,66.5 38.5,66.5C 38.7678,68.099 38.4345,69.4324 37.5,70.5C 37.2587,68.1137 37.9254,66.1137 39.5,64.5 Z"/></g>
<g><path style="opacity:1" fill="#f0eae2" d="M 27.5,67.5 C 29.2994,70.5046 29.9661,73.838 29.5,77.5C 28.209,77.7373 27.209,77.404 26.5,76.5C 26.5,75.5 26.5,74.5 26.5,73.5C 24.8333,73.5 23.1667,73.5 21.5,73.5C 21.7148,75.1788 21.0481,76.1788 19.5,76.5C 18.5318,74.3926 18.1984,72.0593 18.5,69.5C 20.9865,66.536 23.9865,65.8693 27.5,67.5 Z"/></g>
<g><path style="opacity:1" fill="#f5eee4" d="M 30.5,66.5 C 31.5,66.5 32.5,66.5 33.5,66.5C 33.1281,69.0217 33.9614,71.0217 36,72.5C 36.4643,71.9056 36.631,71.2389 36.5,70.5C 36.8333,70.5 37.1667,70.5 37.5,70.5C 38.4345,69.4324 38.7678,68.099 38.5,66.5C 39.5,66.5 40.5,66.5 41.5,66.5C 41.5,68.5 41.5,70.5 41.5,72.5C 39.2459,73.4151 37.2459,74.7484 35.5,76.5C 34.5,75.8333 33.5,75.1667 32.5,74.5C 30.7739,72.1799 30.1072,69.5133 30.5,66.5 Z"/></g>
<g><path style="opacity:1" fill="#f5eee3" d="M 66.5,66.5 C 69.7131,66.19 72.7131,66.5233 75.5,67.5C 73.5,67.5 71.5,67.5 69.5,67.5C 69.2627,68.791 69.596,69.791 70.5,70.5C 72.4147,70.2155 74.0813,70.5489 75.5,71.5C 73.1561,71.9397 71.1561,72.9397 69.5,74.5C 71.2646,75.4614 73.2646,75.7947 75.5,75.5C 74.6661,76.7479 73.3328,77.4146 71.5,77.5C 70.1667,77.3333 68.8333,77.1667 67.5,77C 66.5442,73.6064 66.2108,70.1064 66.5,66.5 Z"/></g>
<g><path style="opacity:1" fill="#dca761" d="M 75.5,67.5 C 74.1412,68.0693 72.4745,69.0693 70.5,70.5C 69.596,69.791 69.2627,68.791 69.5,67.5C 71.5,67.5 73.5,67.5 75.5,67.5 Z"/></g>
<g><path style="opacity:1" fill="#714233" d="M 30.5,66.5 C 31.6009,65.4017 32.9343,65.235 34.5,66C 35.0989,67.6225 35.7656,69.1225 36.5,70.5C 36.631,71.2389 36.4643,71.9056 36,72.5C 33.9614,71.0217 33.1281,69.0217 33.5,66.5C 32.5,66.5 31.5,66.5 30.5,66.5 Z"/></g>
<g><path style="opacity:1" fill="#7a2e2c" d="M 57.5,66.5 C 63.6529,65.3467 69.9863,65.18 76.5,66C 76.5977,68.6179 76.5977,71.1179 76.5,73.5C 76.6716,72.5084 76.3382,71.8417 75.5,71.5C 74.0813,70.5489 72.4147,70.2155 70.5,70.5C 72.4745,69.0693 74.1412,68.0693 75.5,67.5C 72.7131,66.5233 69.7131,66.19 66.5,66.5C 66.1667,66.5 65.8333,66.5 65.5,66.5C 62.8333,66.5 60.1667,66.5 57.5,66.5 Z"/></g>
<g><path style="opacity:1" fill="#865449" d="M 22.5,68.5 C 28.1128,71.0887 27.7795,72.422 21.5,72.5C 21.4326,71.0413 21.7659,69.7079 22.5,68.5 Z"/></g>
<g><path style="opacity:1" fill="#9a5c17" d="M 75.5,71.5 C 76.3382,71.8417 76.6716,72.5084 76.5,73.5C 74.0504,73.298 71.717,73.6314 69.5,74.5C 71.1561,72.9397 73.1561,71.9397 75.5,71.5 Z"/></g>
<g><path style="opacity:1" fill="#d1a66d" d="M 26.5,76.5 C 26.1667,76.5 25.8333,76.5 25.5,76.5C 25.1788,74.9519 24.1788,74.2852 22.5,74.5C 22.5,75.5 22.5,76.5 22.5,77.5C 21.209,77.7373 20.209,77.404 19.5,76.5C 21.0481,76.1788 21.7148,75.1788 21.5,73.5C 23.1667,73.5 24.8333,73.5 26.5,73.5C 26.5,74.5 26.5,75.5 26.5,76.5 Z"/></g>
<g><path style="opacity:1" fill="#ac722f" d="M 41.5,72.5 C 40.3747,74.1288 39.0414,75.6288 37.5,77C 36.5632,77.6917 35.8966,77.525 35.5,76.5C 37.2459,74.7484 39.2459,73.4151 41.5,72.5 Z"/></g>
<g><path style="opacity:1" fill="#591c19" d="M 18.5,69.5 C 18.1984,72.0593 18.5318,74.3926 19.5,76.5C 20.209,77.404 21.209,77.7373 22.5,77.5C 22.5,76.5 22.5,75.5 22.5,74.5C 24.1788,74.2852 25.1788,74.9519 25.5,76.5C 24.0779,76.7496 23.0779,77.583 22.5,79C 21.1667,79.6667 19.8333,79.6667 18.5,79C 17.1816,75.7312 17.1816,72.5645 18.5,69.5 Z"/></g>
<g><path style="opacity:1" fill="#8a4b51" d="M 76.5,73.5 C 76.1667,74.1667 75.8333,74.8333 75.5,75.5C 73.2646,75.7947 71.2646,75.4614 69.5,74.5C 71.717,73.6314 74.0504,73.298 76.5,73.5 Z"/></g>
<g><path style="opacity:1" fill="#461a17" d="M 41.5,66.5 C 42.1667,66.5 42.5,66.8333 42.5,67.5C 42.3359,70.1873 42.5026,72.854 43,75.5C 43.3826,76.056 43.8826,76.3893 44.5,76.5C 46.9664,77.6341 49.633,77.8007 52.5,77C 53.056,76.6174 53.3893,76.1174 53.5,75.5C 53.9347,72.1625 53.2681,69.1625 51.5,66.5C 53.0618,66.7329 54.3951,67.3995 55.5,68.5C 53.749,72.1486 54.749,74.8152 58.5,76.5C 60.6074,77.4682 62.9407,77.8016 65.5,77.5C 65.5,75.5 65.5,73.5 65.5,71.5C 63.9652,70.2121 62.2985,70.2121 60.5,71.5C 61.8532,72.5237 62.5198,73.857 62.5,75.5C 58.6572,75.0128 57.3239,73.0128 58.5,69.5C 61.3451,69.2343 63.6784,68.2343 65.5,66.5C 65.8333,66.5 66.1667,66.5 66.5,66.5C 66.2108,70.1064 66.5442,73.6064 67.5,77C 68.8333,77.1667 70.1667,77.3333 71.5,77.5C 73.3328,77.4146 74.6661,76.7479 75.5,75.5C 77.6516,76.0768 77.985,77.2435 76.5,79C 70.5,79.6667 64.5,79.6667 58.5,79C 56.5,75.6667 54.5,75.6667 52.5,79C 47.788,80.4432 43.9547,79.2765 41,75.5C 37.4534,79.7292 34.6201,79.3959 32.5,74.5C 33.5,75.1667 34.5,75.8333 35.5,76.5C 35.8966,77.525 36.5632,77.6917 37.5,77C 39.0414,75.6288 40.3747,74.1288 41.5,72.5C 41.5,70.5 41.5,68.5 41.5,66.5 Z"/></g>
<g><path style="opacity:1" fill="#f2e8de" d="M 57.5,66.5 C 60.1667,66.5 62.8333,66.5 65.5,66.5C 63.6784,68.2343 61.3451,69.2343 58.5,69.5C 57.3239,73.0128 58.6572,75.0128 62.5,75.5C 62.5198,73.857 61.8532,72.5237 60.5,71.5C 62.2985,70.2121 63.9652,70.2121 65.5,71.5C 64.5489,72.9187 64.2155,74.5853 64.5,76.5C 62.5,76.5 60.5,76.5 58.5,76.5C 54.749,74.8152 53.749,72.1486 55.5,68.5C 56.5,68.1667 57.1667,67.5 57.5,66.5 Z"/></g>
<g><path style="opacity:1" fill="#f6f3ed" d="M 51.5,66.5 C 53.2681,69.1625 53.9347,72.1625 53.5,75.5C 50.5701,76.299 47.5701,76.6323 44.5,76.5C 43.8826,76.3893 43.3826,76.056 43,75.5C 42.5026,72.854 42.3359,70.1873 42.5,67.5C 45.4299,66.701 48.4299,66.3677 51.5,66.5 Z"/></g>
<g><path style="opacity:1" fill="#a77363" d="M 45.5,67.5 C 47.1667,67.5 48.8333,67.5 50.5,67.5C 50.5,70.1667 50.5,72.8333 50.5,75.5C 48.8333,75.5 47.1667,75.5 45.5,75.5C 45.5,72.8333 45.5,70.1667 45.5,67.5 Z"/></g>
<g><path style="opacity:1" fill="#d02c2f" d="M 49.5,70.5 C 49.8432,72.4832 49.1765,73.8166 47.5,74.5C 47.1568,72.5168 47.8235,71.1834 49.5,70.5 Z"/></g>
<g><path style="opacity:1" fill="#360904" d="M 49.5,70.5 C 47.8235,71.1834 47.1568,72.5168 47.5,74.5C 46.5386,72.7354 46.2053,70.7354 46.5,68.5C 48.1788,68.2852 49.1788,68.9519 49.5,70.5 Z"/></g>
<g><path style="opacity:1" fill="#d8ac6a" d="M 53.5,75.5 C 53.3893,76.1174 53.056,76.6174 52.5,77C 49.633,77.8007 46.9664,77.6341 44.5,76.5C 47.5701,76.6323 50.5701,76.299 53.5,75.5 Z"/></g>
<g><path style="opacity:1" fill="#e9c483" d="M 65.5,71.5 C 65.5,73.5 65.5,75.5 65.5,77.5C 62.9407,77.8016 60.6074,77.4682 58.5,76.5C 60.5,76.5 62.5,76.5 64.5,76.5C 64.2155,74.5853 64.5489,72.9187 65.5,71.5 Z"/></g>
<g><path style="opacity:1" fill="#37130e" d="M 30.5,66.5 C 30.1072,69.5133 30.7739,72.1799 32.5,74.5C 30.8235,75.1834 30.1568,76.5168 30.5,78.5C 28.2188,78.9227 26.5521,78.256 25.5,76.5C 25.8333,76.5 26.1667,76.5 26.5,76.5C 27.209,77.404 28.209,77.7373 29.5,77.5C 29.9661,73.838 29.2994,70.5046 27.5,67.5C 28.609,67.4431 29.609,67.1098 30.5,66.5 Z"/></g>
</svg>
