<?xml version="1.0" encoding="UTF-8"?>
<!DOCTYPE svg PUBLIC "-//W3C//DTD SVG 1.1//EN" "http://www.w3.org/Graphics/SVG/1.1/DTD/svg11.dtd">
<svg xmlns="http://www.w3.org/2000/svg" version="1.1" width="96px" height="96px" style="shape-rendering:geometricPrecision; text-rendering:geometricPrecision; image-rendering:optimizeQuality; fill-rule:evenodd; clip-rule:evenodd" xmlns:xlink="http://www.w3.org/1999/xlink">
<g><path style="opacity:1" fill="#2a3634" d="M 41.5,2.5 C 41.3893,3.11742 41.056,3.61742 40.5,4C 42.6667,4.16667 44.8333,4.33333 47,4.5C 49.7003,4.60912 52.2003,4.10912 54.5,3C 50.5138,2.50115 46.5138,2.33449 42.5,2.5C 51.6579,0.479973 60.3246,1.97997 68.5,7C 67.7476,7.67076 67.4142,8.5041 67.5,9.5C 66.8333,9.5 66.1667,9.5 65.5,9.5C 64.9423,8.21009 63.9423,7.37675 62.5,7C 38.0198,1.98468 20.0198,10.4847 8.5,32.5C 7.50278,32.4701 6.83611,32.9701 6.5,34C 5.88597,36.8541 5.2193,39.6875 4.5,42.5C 3.57537,43.5624 2.57537,43.5624 1.5,42.5C 1.77218,36.3029 3.93885,30.9696 8,26.5C 8.90723,22.8158 10.4072,19.4824 12.5,16.5C 14.436,12.6891 17.436,10.0225 21.5,8.5C 27.4095,5.46087 33.5762,3.12753 40,1.5C 40.3826,2.05596 40.8826,2.38929 41.5,2.5 Z"/></g>
<g><path style="opacity:1" fill="#0a0909" d="M 65.5,9.5 C 86.3858,21.9722 93.2191,39.9722 86,63.5C 82.822,70.5086 78.322,76.5086 72.5,81.5C 63.0238,87.3186 52.6905,89.652 41.5,88.5C 34.7713,87.147 28.4379,84.8137 22.5,81.5C 7.43157,68.2373 2.7649,51.904 8.5,32.5C 20.0198,10.4847 38.0198,1.98468 62.5,7C 63.9423,7.37675 64.9423,8.21009 65.5,9.5 Z"/></g>
<g><path style="opacity:1" fill="#6c6a66" d="M 79.5,17.5 C 75.8281,14.8262 72.1614,12.1595 68.5,9.5C 68.56,8.95691 68.8933,8.62358 69.5,8.5C 73.5483,10.8904 76.8816,13.8904 79.5,17.5 Z"/></g>
<g><path style="opacity:1" fill="#666763" d="M 79.5,17.5 C 83.1895,20.1907 86.1895,23.524 88.5,27.5C 88.2172,28.2891 87.7172,28.9558 87,29.5C 84.2488,25.598 81.7488,21.598 79.5,17.5 Z"/></g>
<g><path style="opacity:1" fill="#0b0d0f" d="M 48.5,25.5 C 46.326,25.2503 44.6594,24.2503 43.5,22.5C 44.81,20.5654 46.1433,18.5654 47.5,16.5C 48.8333,18.5 50.1667,20.5 51.5,22.5C 50.6602,23.735 49.6602,24.735 48.5,25.5 Z"/></g>
<g><path style="opacity:1" fill="#328abb" d="M 58.5,26.5 C 57.1526,25.9717 55.8193,25.805 54.5,26C 55.3366,27.0113 55.67,28.1779 55.5,29.5C 54.8333,28.8333 54.1667,28.1667 53.5,27.5C 52.0697,26.4625 50.403,25.7959 48.5,25.5C 49.6602,24.735 50.6602,23.735 51.5,22.5C 50.1667,20.5 48.8333,18.5 47.5,16.5C 46.1433,18.5654 44.81,20.5654 43.5,22.5C 43.1898,20.8564 42.1898,19.8564 40.5,19.5C 41.8543,15.4499 44.1877,12.1165 47.5,9.5C 52.3331,14.3485 55.9997,20.0151 58.5,26.5 Z"/></g>
<g><path style="opacity:1" fill="#46add3" d="M 40.5,19.5 C 42.1898,19.8564 43.1898,20.8564 43.5,22.5C 44.6594,24.2503 46.326,25.2503 48.5,25.5C 50.403,25.7959 52.0697,26.4625 53.5,27.5C 49.5345,31.4856 45.5345,31.4856 41.5,27.5C 39.5104,28.4627 39.1771,29.796 40.5,31.5C 45.032,32.6733 46.3654,35.34 44.5,39.5C 40.2637,37.5551 36.5971,34.8884 33.5,31.5C 35.3554,27.1085 37.6887,23.1085 40.5,19.5 Z"/></g>
<g><path style="opacity:0.479" fill="#09070d" d="M 42.5,-0.5 C 45.8333,-0.5 49.1667,-0.5 52.5,-0.5C 76.5,4.16667 90.8333,18.5 95.5,42.5C 95.5,45.8333 95.5,49.1667 95.5,52.5C 94.3541,58.9338 92.0207,64.9338 88.5,70.5C 90.6544,65.0345 91.9878,59.3678 92.5,53.5C 92.5,53.1667 92.5,52.8333 92.5,52.5C 93.1599,51.036 93.4932,49.3693 93.5,47.5C 93.6183,44.5143 92.9517,41.8476 91.5,39.5C 91.5,39.1667 91.5,38.8333 91.5,38.5C 91.8743,34.3526 90.8743,30.6859 88.5,27.5C 86.1895,23.524 83.1895,20.1907 79.5,17.5C 76.8816,13.8904 73.5483,10.8904 69.5,8.5C 68.8933,8.62358 68.56,8.95691 68.5,9.5C 68.1667,9.5 67.8333,9.5 67.5,9.5C 67.4142,8.5041 67.7476,7.67076 68.5,7C 60.3246,1.97997 51.6579,0.479973 42.5,2.5C 42.1667,2.5 41.8333,2.5 41.5,2.5C 40.8826,2.38929 40.3826,2.05596 40,1.5C 33.5762,3.12753 27.4095,5.46087 21.5,8.5C 27.7664,3.74594 34.7664,0.745941 42.5,-0.5 Z"/></g>
<g><path style="opacity:1" fill="#5f5d5d" d="M 41.5,2.5 C 41.8333,2.5 42.1667,2.5 42.5,2.5C 46.5138,2.33449 50.5138,2.50115 54.5,3C 52.2003,4.10912 49.7003,4.60912 47,4.5C 44.8333,4.33333 42.6667,4.16667 40.5,4C 41.056,3.61742 41.3893,3.11742 41.5,2.5 Z"/></g>
<g><path style="opacity:1" fill="#666a66" d="M 91.5,38.5 C 91.5,38.8333 91.5,39.1667 91.5,39.5C 91.6495,40.552 91.4828,41.552 91,42.5C 89.9587,38.9625 88.792,35.4625 87.5,32C 88.1667,30 88.8333,30 89.5,32C 89.9902,34.3461 90.6568,36.5128 91.5,38.5 Z"/></g>
<g><path style="opacity:1" fill="#59bdd8" d="M 58.5,26.5 C 61.3921,30.6021 64.0588,34.9355 66.5,39.5C 64.4866,42.1753 61.82,43.842 58.5,44.5C 57.5987,43.7095 56.9321,42.7095 56.5,41.5C 57.9361,40.5714 59.2695,39.4048 60.5,38C 59.8333,37.3333 59.1667,36.6667 58.5,36C 55.5656,36.2946 52.8989,37.4612 50.5,39.5C 49.3691,37.9255 49.2025,36.2588 50,34.5C 52.2645,33.1495 54.0978,31.4828 55.5,29.5C 55.67,28.1779 55.3366,27.0113 54.5,26C 55.8193,25.805 57.1526,25.9717 58.5,26.5 Z"/></g>
<g><path style="opacity:1" fill="#90adac" d="M 56.5,41.5 C 56.9321,42.7095 57.5987,43.7095 58.5,44.5C 55.8333,46.5 53.1667,48.5 50.5,50.5C 50.1667,50.5 49.8333,50.5 49.5,50.5C 49.1667,49.5 48.5,48.8333 47.5,48.5C 47.6107,47.8826 47.944,47.3826 48.5,47C 47.5842,46.7216 46.9175,46.2216 46.5,45.5C 50.0327,44.626 53.366,43.2927 56.5,41.5 Z"/></g>
<g><path style="opacity:1" fill="#d3b36a" d="M 40.5,42.5 C 42.4832,43.4706 44.4832,44.4706 46.5,45.5C 46.9175,46.2216 47.5842,46.7216 48.5,47C 47.944,47.3826 47.6107,47.8826 47.5,48.5C 46.609,49.1098 45.609,49.4431 44.5,49.5C 41.9684,48.4043 39.6351,47.0709 37.5,45.5C 38.5,44.5 39.5,43.5 40.5,42.5 Z"/></g>
<g><path style="opacity:1" fill="#df2180" d="M 69.5,45.5 C 69.2969,47.0443 68.6302,48.3777 67.5,49.5C 67.8627,50.1835 68.1961,50.8501 68.5,51.5C 65.9716,52.0114 63.4716,52.6781 61,53.5C 59.3376,53.6125 58.1709,52.9458 57.5,51.5C 60.9888,48.4223 64.9888,46.4223 69.5,45.5 Z"/></g>
<g><path style="opacity:1" fill="#616562" d="M 92.5,52.5 C 92.5,52.8333 92.5,53.1667 92.5,53.5C 91.8386,54.7175 91.1719,56.0508 90.5,57.5C 90.1667,56.8333 89.8333,56.1667 89.5,55.5C 90.0214,51.8093 90.688,48.1426 91.5,44.5C 92.48,47.0865 92.8134,49.7531 92.5,52.5 Z"/></g>
<g><path style="opacity:1" fill="#ce8b82" d="M 47.5,48.5 C 48.5,48.8333 49.1667,49.5 49.5,50.5C 49.5,51.5 49.5,52.5 49.5,53.5C 48.1667,53.5 46.8333,53.5 45.5,53.5C 45.5674,52.0413 45.2341,50.7079 44.5,49.5C 45.609,49.4431 46.609,49.1098 47.5,48.5 Z"/></g>
<g><path style="opacity:1" fill="#f5dd29" d="M 40.5,42.5 C 39.5,43.5 38.5,44.5 37.5,45.5C 36.085,44.7106 34.585,44.0439 33,43.5C 31.5,43.6667 30.6667,44.5 30.5,46C 32.802,47.8244 35.1353,49.6578 37.5,51.5C 34.0968,54.1992 30.9301,53.8659 28,50.5C 26.6346,51.5929 26.3013,52.9262 27,54.5C 28.6516,55.3994 30.1516,56.3994 31.5,57.5C 31.5,60.1667 31.5,62.8333 31.5,65.5C 33.1667,65.5 34.8333,65.5 36.5,65.5C 36.5,63.1667 36.5,60.8333 36.5,58.5C 37.3149,57.1634 38.4815,56.1634 40,55.5C 40.4992,60.1548 40.6658,64.8215 40.5,69.5C 34.8333,69.5 29.1667,69.5 23.5,69.5C 24.8264,67.8049 24.4931,66.4716 22.5,65.5C 24.1667,65.5 25.8333,65.5 27.5,65.5C 27.3124,57.9035 24.979,56.9035 20.5,62.5C 19.3473,61.6868 19.3473,60.6868 20.5,59.5C 19.7573,58.8182 19.0906,58.1515 18.5,57.5C 22.1421,50.8876 25.8088,44.2209 29.5,37.5C 30.365,36.4173 31.365,36.2506 32.5,37C 35.0703,39.0869 37.737,40.9202 40.5,42.5 Z"/></g>
<g><path style="opacity:1" fill="#26101c" d="M 65.5,9.5 C 66.1667,9.5 66.8333,9.5 67.5,9.5C 67.8333,9.5 68.1667,9.5 68.5,9.5C 72.1614,12.1595 75.8281,14.8262 79.5,17.5C 81.7488,21.598 84.2488,25.598 87,29.5C 87.7172,28.9558 88.2172,28.2891 88.5,27.5C 90.8743,30.6859 91.8743,34.3526 91.5,38.5C 90.6568,36.5128 89.9902,34.3461 89.5,32C 88.8333,30 88.1667,30 87.5,32C 88.792,35.4625 89.9587,38.9625 91,42.5C 91.4828,41.552 91.6495,40.552 91.5,39.5C 92.9517,41.8476 93.6183,44.5143 93.5,47.5C 93.4932,49.3693 93.1599,51.036 92.5,52.5C 92.8134,49.7531 92.48,47.0865 91.5,44.5C 90.688,48.1426 90.0214,51.8093 89.5,55.5C 89.8333,56.1667 90.1667,56.8333 90.5,57.5C 91.1719,56.0508 91.8386,54.7175 92.5,53.5C 91.9878,59.3678 90.6544,65.0345 88.5,70.5C 86.9764,74.2022 84.8097,77.5355 82,80.5C 80.871,82.1412 79.371,83.1412 77.5,83.5C 75.8333,84.1667 74.1667,84.8333 72.5,85.5C 73.6005,84.3951 74.2671,83.0618 74.5,81.5C 73.8333,81.5 73.1667,81.5 72.5,81.5C 78.322,76.5086 82.822,70.5086 86,63.5C 93.2191,39.9722 86.3858,21.9722 65.5,9.5 Z"/></g>
<g><path style="opacity:1" fill="#5e5d63" d="M 4.5,62.5 C 4.59458,59.3033 3.92791,56.3033 2.5,53.5C 2.18259,50.4281 2.51592,47.4281 3.5,44.5C 4.19666,53.4537 6.52999,61.9537 10.5,70C 10.3893,71.7215 9.88934,71.8882 9,70.5C 7.72576,67.6089 6.22576,64.9422 4.5,62.5 Z"/></g>
<g><path style="opacity:1" fill="#18140b" d="M 22.5,65.5 C 19.7524,65.5983 19.0857,64.5983 20.5,62.5C 24.979,56.9035 27.3124,57.9035 27.5,65.5C 25.8333,65.5 24.1667,65.5 22.5,65.5 Z"/></g>
<g><path style="opacity:1" fill="#130b13" d="M 73.5,60.5 C 76.3771,64.6574 75.0438,66.324 69.5,65.5C 68.3509,65.2089 67.6842,64.3756 67.5,63C 68.2731,58.4704 70.2731,57.637 73.5,60.5 Z"/></g>
<g><path style="opacity:1" fill="#f8bc38" d="M 18.5,57.5 C 19.0906,58.1515 19.7573,58.8182 20.5,59.5C 19.3473,60.6868 19.3473,61.6868 20.5,62.5C 19.0857,64.5983 19.7524,65.5983 22.5,65.5C 24.4931,66.4716 24.8264,67.8049 23.5,69.5C 20.1501,69.665 16.8168,69.4983 13.5,69C 13.0426,68.586 12.7093,68.086 12.5,67.5C 14.1645,63.8648 16.1645,60.5315 18.5,57.5 Z"/></g>
<g><path style="opacity:1" fill="#98861d" d="M 31.5,57.5 C 32.4682,59.6074 32.8016,61.9407 32.5,64.5C 33.5,64.5 34.5,64.5 35.5,64.5C 35.2053,62.2646 35.5386,60.2646 36.5,58.5C 36.5,60.8333 36.5,63.1667 36.5,65.5C 34.8333,65.5 33.1667,65.5 31.5,65.5C 31.5,62.8333 31.5,60.1667 31.5,57.5 Z"/></g>
<g><path style="opacity:1" fill="#741b4e" d="M 63.5,57.5 C 63.5,60.1667 63.5,62.8333 63.5,65.5C 61.8333,65.5 60.1667,65.5 58.5,65.5C 58.5,63.1667 58.5,60.8333 58.5,58.5C 59.4614,60.2646 59.7947,62.2646 59.5,64.5C 60.5,64.5 61.5,64.5 62.5,64.5C 62.1984,61.9407 62.5318,59.6074 63.5,57.5 Z"/></g>
<g><path style="opacity:1" fill="#4a1c2d" d="M 49.5,50.5 C 49.8333,50.5 50.1667,50.5 50.5,50.5C 50.5,55.1667 50.5,59.8333 50.5,64.5C 51.5,64.5 52.5,64.5 53.5,64.5C 53.19,61.2869 53.5233,58.2869 54.5,55.5C 54.5,58.8333 54.5,62.1667 54.5,65.5C 52.8333,65.5 51.1667,65.5 49.5,65.5C 49.5,61.5 49.5,57.5 49.5,53.5C 49.5,52.5 49.5,51.5 49.5,50.5 Z"/></g>
<g><path style="opacity:1" fill="#2f2f0d" d="M 8.5,32.5 C 2.7649,51.904 7.43157,68.2373 22.5,81.5C 21.8333,81.5 21.1667,81.5 20.5,81.5C 17.502,78.333 14.6686,74.9997 12,71.5C 11.5,72 11,72.5 10.5,73C 12.1412,74.129 13.1412,75.629 13.5,77.5C 8.72519,73.6255 5.72519,68.6255 4.5,62.5C 6.22576,64.9422 7.72576,67.6089 9,70.5C 9.88934,71.8882 10.3893,71.7215 10.5,70C 6.52999,61.9537 4.19666,53.4537 3.5,44.5C 2.51592,47.4281 2.18259,50.4281 2.5,53.5C 1.51836,50.0381 1.18503,46.3714 1.5,42.5C 2.57537,43.5624 3.57537,43.5624 4.5,42.5C 5.2193,39.6875 5.88597,36.8541 6.5,34C 6.83611,32.9701 7.50278,32.4701 8.5,32.5 Z"/></g>
<g><path style="opacity:1" fill="#cc2d9e" d="M 69.5,45.5 C 71.8627,48.5488 73.8627,51.8822 75.5,55.5C 74.6908,57.0276 74.0241,58.6943 73.5,60.5C 70.2731,57.637 68.2731,58.4704 67.5,63C 67.6842,64.3756 68.3509,65.2089 69.5,65.5C 68.3995,66.6049 67.7329,67.9382 67.5,69.5C 63.5,69.5 59.5,69.5 55.5,69.5C 56.6588,68.2597 57.6588,66.9264 58.5,65.5C 60.1667,65.5 61.8333,65.5 63.5,65.5C 63.5,62.8333 63.5,60.1667 63.5,57.5C 64.8484,56.3994 66.3484,55.3994 68,54.5C 68.4828,53.552 68.6495,52.552 68.5,51.5C 68.1961,50.8501 67.8627,50.1835 67.5,49.5C 68.6302,48.3777 69.2969,47.0443 69.5,45.5 Z"/></g>
<g><path style="opacity:1" fill="#a03dc6" d="M 75.5,55.5 C 78.4399,59.5613 80.6066,63.8946 82,68.5C 77.2633,69.4692 72.43,69.8025 67.5,69.5C 67.7329,67.9382 68.3995,66.6049 69.5,65.5C 75.0438,66.324 76.3771,64.6574 73.5,60.5C 74.0241,58.6943 74.6908,57.0276 75.5,55.5 Z"/></g>
<g><path style="opacity:1" fill="#f02d80" d="M 45.5,53.5 C 46.8333,53.5 48.1667,53.5 49.5,53.5C 49.5,57.5 49.5,61.5 49.5,65.5C 51.1667,65.5 52.8333,65.5 54.5,65.5C 54.5,62.1667 54.5,58.8333 54.5,55.5C 56.2303,56.0256 57.5637,57.0256 58.5,58.5C 58.5,60.8333 58.5,63.1667 58.5,65.5C 57.6588,66.9264 56.6588,68.2597 55.5,69.5C 52.1667,69.5 48.8333,69.5 45.5,69.5C 45.5,64.1667 45.5,58.8333 45.5,53.5 Z"/></g>
<g><path style="opacity:1" fill="#606a65" d="M 84.5,71.5 C 85.8747,67.079 87.5413,62.7457 89.5,58.5C 89.8333,58.8333 90.1667,59.1667 90.5,59.5C 89.4329,64.0784 87.4329,68.0784 84.5,71.5 Z"/></g>
<g><path style="opacity:0.54" fill="#181206" d="M 12.5,16.5 C 10.4072,19.4824 8.90723,22.8158 8,26.5C 3.93885,30.9696 1.77218,36.3029 1.5,42.5C 1.18503,46.3714 1.51836,50.0381 2.5,53.5C 3.92791,56.3033 4.59458,59.3033 4.5,62.5C 5.72519,68.6255 8.72519,73.6255 13.5,77.5C 15.2959,78.7927 16.9625,80.2927 18.5,82C 19.4368,82.6917 20.1034,82.525 20.5,81.5C 21.1667,81.5 21.8333,81.5 22.5,81.5C 28.4379,84.8137 34.7713,87.147 41.5,88.5C 41.5,88.8333 41.5,89.1667 41.5,89.5C 34.4214,89.1485 28.0881,86.8152 22.5,82.5C 21.5,83 20.5,83.5 19.5,84C 25.1926,86.5146 30.8593,89.0146 36.5,91.5C 49.5204,95.6177 61.5204,93.6177 72.5,85.5C 74.1667,84.8333 75.8333,84.1667 77.5,83.5C 70.3198,89.9236 61.9865,93.9236 52.5,95.5C 49.1667,95.5 45.8333,95.5 42.5,95.5C 18.5,90.8333 4.16667,76.5 -0.5,52.5C -0.5,49.1667 -0.5,45.8333 -0.5,42.5C 0.978994,34.2527 4.14566,26.586 9,19.5C 10.0391,18.2899 11.2058,17.2899 12.5,16.5 Z"/></g>
<g><path style="opacity:1" fill="#5c5d66" d="M 20.5,81.5 C 20.1034,82.525 19.4368,82.6917 18.5,82C 16.9625,80.2927 15.2959,78.7927 13.5,77.5C 13.1412,75.629 12.1412,74.129 10.5,73C 11,72.5 11.5,72 12,71.5C 14.6686,74.9997 17.502,78.333 20.5,81.5 Z"/></g>
<g><path style="opacity:1" fill="#616967" d="M 84.5,71.5 C 82.6719,75.8422 79.8386,79.5088 76,82.5C 75.6174,81.944 75.1174,81.6107 74.5,81.5C 77.5481,77.7852 80.8815,74.4518 84.5,71.5 Z"/></g>
<g><path style="opacity:1" fill="#5c5e61" d="M 41.5,89.5 C 43.3691,90.1646 45.3691,90.8313 47.5,91.5C 47.1667,91.8333 46.8333,92.1667 46.5,92.5C 43.2423,91.5827 39.909,91.2493 36.5,91.5C 30.8593,89.0146 25.1926,86.5146 19.5,84C 20.5,83.5 21.5,83 22.5,82.5C 28.0881,86.8152 34.4214,89.1485 41.5,89.5 Z"/></g>
<g><path style="opacity:1" fill="#3c2320" d="M 72.5,81.5 C 73.1667,81.5 73.8333,81.5 74.5,81.5C 74.2671,83.0618 73.6005,84.3951 72.5,85.5C 61.5204,93.6177 49.5204,95.6177 36.5,91.5C 39.909,91.2493 43.2423,91.5827 46.5,92.5C 46.8333,92.1667 47.1667,91.8333 47.5,91.5C 45.3691,90.8313 43.3691,90.1646 41.5,89.5C 41.5,89.1667 41.5,88.8333 41.5,88.5C 52.6905,89.652 63.0238,87.3186 72.5,81.5 Z"/></g>
</svg>
