<?xml version="1.0" encoding="UTF-8"?>
<!DOCTYPE svg PUBLIC "-//W3C//DTD SVG 1.1//EN" "http://www.w3.org/Graphics/SVG/1.1/DTD/svg11.dtd">
<svg xmlns="http://www.w3.org/2000/svg" version="1.1" width="96px" height="96px" style="shape-rendering:geometricPrecision; text-rendering:geometricPrecision; image-rendering:optimizeQuality; fill-rule:evenodd; clip-rule:evenodd" xmlns:xlink="http://www.w3.org/1999/xlink">
<g><path style="opacity:0.639" fill="#dbe4e8" d="M 73.5,23.5 C 67.8438,20.3771 61.8438,19.7105 55.5,21.5C 62.1217,17.0185 68.1217,17.6851 73.5,23.5 Z"/></g>
<g><path style="opacity:1" fill="#f3f8fa" d="M 29.5,21.5 C 37.5975,21.0377 43.2642,24.371 46.5,31.5C 45.8485,32.0906 45.1818,32.7573 44.5,33.5C 43.056,32.019 42.3894,32.3523 42.5,34.5C 39.272,35.4137 35.9387,35.7471 32.5,35.5C 31.8826,35.3893 31.3826,35.056 31,34.5C 30.8184,31.7737 30.3184,29.1071 29.5,26.5C 28.7492,27.376 28.2492,28.376 28,29.5C 27.4646,27.7295 26.6313,27.3961 25.5,28.5C 27.0267,30.1933 28.3601,32.0266 29.5,34C 26.5,34.3333 23.5,34.6667 20.5,35C 21.938,35.2189 23.2713,35.7189 24.5,36.5C 23.4937,37.3957 23.4937,38.0623 24.5,38.5C 26.3874,36.4476 28.3874,36.1142 30.5,37.5C 26.5844,40.9952 24.5844,45.3285 24.5,50.5C 16.2271,43.4008 15.3937,35.4008 22,26.5C 24.4795,24.6859 26.9795,23.0192 29.5,21.5 Z"/></g>
<g><path style="opacity:1" fill="#f7fafb" d="M 71.5,50.5 C 71.1412,45.1173 69.1412,40.4506 65.5,36.5C 66.4985,36.4128 67.6651,36.0795 69,35.5C 70,36.5 71,37.5 72,38.5C 72.6172,37.5509 72.4506,36.7175 71.5,36C 72.8333,35.6667 74.1667,35.3333 75.5,35C 72.5,34.6667 69.5,34.3333 66.5,34C 68.3877,32.0496 69.5544,29.8829 70,27.5C 68.6841,30.028 67.5174,30.028 66.5,27.5C 65.3554,28.7757 65.3554,30.109 66.5,31.5C 65.9649,33.261 64.9649,34.5943 63.5,35.5C 62.8333,35.5 62.1667,35.5 61.5,35.5C 61.8174,32.4281 61.4841,29.4281 60.5,26.5C 59.8076,27.0253 59.3076,27.6919 59,28.5C 55.6539,27.9109 55.6539,28.5776 59,30.5C 59.49,31.7932 59.6567,33.1266 59.5,34.5C 58.209,34.2627 57.209,34.596 56.5,35.5C 54.9382,35.2671 53.6049,34.6005 52.5,33.5C 51.2223,33.2178 50.2223,32.5511 49.5,31.5C 54.9283,22.0888 62.595,19.9221 72.5,25C 79.3259,32.1273 80.1592,39.9607 75,48.5C 74.1841,49.8228 73.0174,50.4894 71.5,50.5 Z"/></g>
<g><path style="opacity:1" fill="#b5d7e7" d="M 43.5,23.5 C 41.1877,22.6805 38.8543,21.8471 36.5,21C 33.9615,20.2042 31.6282,20.3709 29.5,21.5C 26.9795,23.0192 24.4795,24.6859 22,26.5C 15.3937,35.4008 16.2271,43.4008 24.5,50.5C 24.5,50.8333 24.5,51.1667 24.5,51.5C 23.8333,52.5 23.1667,53.5 22.5,54.5C 19.8557,51.0062 17.3557,47.3395 15,43.5C 13.3995,27.4421 20.5662,19.2755 36.5,19C 39.2387,20.0259 41.572,21.5259 43.5,23.5 Z"/></g>
<g><path style="opacity:1" fill="#a7d5ea" d="M 29.5,21.5 C 31.6282,20.3709 33.9615,20.2042 36.5,21C 38.8543,21.8471 41.1877,22.6805 43.5,23.5C 45.5041,24.6728 47.0041,26.3395 48,28.5C 49.7364,25.2608 52.2364,22.9274 55.5,21.5C 61.8438,19.7105 67.8438,20.3771 73.5,23.5C 76.091,24.2543 77.9243,25.921 79,28.5C 83.2655,38.1978 81.4322,46.5311 73.5,53.5C 72.5987,52.7095 71.9321,51.7095 71.5,50.5C 73.0174,50.4894 74.1841,49.8228 75,48.5C 80.1592,39.9607 79.3259,32.1273 72.5,25C 62.595,19.9221 54.9283,22.0888 49.5,31.5C 48.7399,33.9845 47.7399,33.9845 46.5,31.5C 43.2642,24.371 37.5975,21.0377 29.5,21.5 Z"/></g>
<g><path style="opacity:1" fill="#c1e3f2" d="M 32.5,35.5 C 32.1667,36.5 31.5,37.1667 30.5,37.5C 28.3874,36.1142 26.3874,36.4476 24.5,38.5C 23.4937,38.0623 23.4937,37.3957 24.5,36.5C 23.2713,35.7189 21.938,35.2189 20.5,35C 23.5,34.6667 26.5,34.3333 29.5,34C 28.3601,32.0266 27.0267,30.1933 25.5,28.5C 26.6313,27.3961 27.4646,27.7295 28,29.5C 28.2492,28.376 28.7492,27.376 29.5,26.5C 30.3184,29.1071 30.8184,31.7737 31,34.5C 31.3826,35.056 31.8826,35.3893 32.5,35.5 Z"/></g>
<g><path style="opacity:1" fill="#bbd8e3" d="M 61.5,35.5 C 59.8333,35.5 58.1667,35.5 56.5,35.5C 57.209,34.596 58.209,34.2627 59.5,34.5C 59.6567,33.1266 59.49,31.7932 59,30.5C 55.6539,28.5776 55.6539,27.9109 59,28.5C 59.3076,27.6919 59.8076,27.0253 60.5,26.5C 61.4841,29.4281 61.8174,32.4281 61.5,35.5 Z"/></g>
<g><path style="opacity:1" fill="#b7e1f2" d="M 65.5,36.5 C 64.8333,36.5 64.1667,36.5 63.5,36.5C 63.5,36.1667 63.5,35.8333 63.5,35.5C 64.9649,34.5943 65.9649,33.261 66.5,31.5C 65.3554,30.109 65.3554,28.7757 66.5,27.5C 67.5174,30.028 68.6841,30.028 70,27.5C 69.5544,29.8829 68.3877,32.0496 66.5,34C 69.5,34.3333 72.5,34.6667 75.5,35C 74.1667,35.3333 72.8333,35.6667 71.5,36C 72.4506,36.7175 72.6172,37.5509 72,38.5C 71,37.5 70,36.5 69,35.5C 67.6651,36.0795 66.4985,36.4128 65.5,36.5 Z"/></g>
<g><path style="opacity:1" fill="#342c3b" d="M 46.5,31.5 C 47.7399,33.9845 48.7399,33.9845 49.5,31.5C 50.2223,32.5511 51.2223,33.2178 52.5,33.5C 52.0825,34.2216 51.4158,34.7216 50.5,35C 51.5,35.3333 52.5,35.6667 53.5,36C 51.6667,37.8333 49.8333,39.6667 48,41.5C 46.401,39.944 44.901,38.2773 43.5,36.5C 46.1306,34.9954 45.7973,34.3287 42.5,34.5C 42.3894,32.3523 43.056,32.019 44.5,33.5C 45.1818,32.7573 45.8485,32.0906 46.5,31.5 Z"/></g>
<g><path style="opacity:1" fill="#c4215f" d="M 55.5,37.5 C 56.5,37.5 57.5,37.5 58.5,37.5C 58.5,38.5 58.5,39.5 58.5,40.5C 56.2188,40.9227 54.5521,40.256 53.5,38.5C 53.8417,37.6618 54.5084,37.3284 55.5,37.5 Z"/></g>
<g><path style="opacity:1" fill="#9a1e4d" d="M 61.5,37.5 C 61.8333,37.5 62.1667,37.5 62.5,37.5C 63.8333,38.1667 64.8333,39.1667 65.5,40.5C 63.8333,40.5 62.1667,40.5 60.5,40.5C 60.2627,39.209 60.596,38.209 61.5,37.5 Z"/></g>
<g><path style="opacity:1" fill="#140e10" d="M 52.5,33.5 C 53.6049,34.6005 54.9382,35.2671 56.5,35.5C 58.1667,35.5 59.8333,35.5 61.5,35.5C 62.1667,35.5 62.8333,35.5 63.5,35.5C 63.5,35.8333 63.5,36.1667 63.5,36.5C 62.8333,36.5 62.5,36.8333 62.5,37.5C 62.1667,37.5 61.8333,37.5 61.5,37.5C 59.5,36.1667 57.5,36.1667 55.5,37.5C 54.5084,37.3284 53.8417,37.6618 53.5,38.5C 50.6933,39.9799 49.0266,42.3132 48.5,45.5C 49.241,48.6344 50.241,51.6344 51.5,54.5C 50.1667,53.5 48.8333,52.5 47.5,51.5C 47.5,51.1667 47.5,50.8333 47.5,50.5C 48.5346,45.2737 46.8679,41.2737 42.5,38.5C 42.1583,37.6618 41.4916,37.3284 40.5,37.5C 39.4324,36.5655 38.099,36.2322 36.5,36.5C 34.326,36.7497 32.6594,37.7497 31.5,39.5C 28.9203,41.0888 27.587,43.4221 27.5,46.5C 28.5,46.5 29.5,46.5 30.5,46.5C 29.791,47.404 28.791,47.7373 27.5,47.5C 27.0882,49.9726 28.0882,51.3059 30.5,51.5C 31.8333,51.5 33.1667,51.5 34.5,51.5C 35.1667,51.5 35.8333,51.5 36.5,51.5C 37.9187,52.4511 39.5853,52.7845 41.5,52.5C 42.7079,51.7659 44.0413,51.4326 45.5,51.5C 45.6716,52.4916 45.3382,53.1583 44.5,53.5C 44.5654,53.0618 44.3988,52.7284 44,52.5C 39.7837,53.7724 35.617,54.2724 31.5,54C 32.3805,54.7083 33.0472,55.5416 33.5,56.5C 33.1667,56.5 32.8333,56.5 32.5,56.5C 29.9308,55.6044 27.9308,53.9377 26.5,51.5C 25.8182,52.2427 25.1515,52.9094 24.5,53.5C 24.5,52.8333 24.5,52.1667 24.5,51.5C 24.5,51.1667 24.5,50.8333 24.5,50.5C 24.5844,45.3285 26.5844,40.9952 30.5,37.5C 31.5,37.1667 32.1667,36.5 32.5,35.5C 35.9387,35.7471 39.272,35.4137 42.5,34.5C 45.7973,34.3287 46.1306,34.9954 43.5,36.5C 44.901,38.2773 46.401,39.944 48,41.5C 49.8333,39.6667 51.6667,37.8333 53.5,36C 52.5,35.6667 51.5,35.3333 50.5,35C 51.4158,34.7216 52.0825,34.2216 52.5,33.5 Z"/></g>
<g><path style="opacity:1" fill="#440e22" d="M 36.5,36.5 C 38.099,36.2322 39.4324,36.5655 40.5,37.5C 39.5,37.5 38.5,37.5 37.5,37.5C 37.5,38.5 37.5,39.5 37.5,40.5C 39.7812,40.9227 41.4479,40.256 42.5,38.5C 46.8679,41.2737 48.5346,45.2737 47.5,50.5C 46.8333,50.8333 46.1667,51.1667 45.5,51.5C 44.0413,51.4326 42.7079,51.7659 41.5,52.5C 41.5,51.1667 41.5,49.8333 41.5,48.5C 39.8333,48.5 38.1667,48.5 36.5,48.5C 36.5,49.5 36.5,50.5 36.5,51.5C 35.8333,51.5 35.1667,51.5 34.5,51.5C 34.5,50.5 34.5,49.5 34.5,48.5C 33.1667,48.5 31.8333,48.5 30.5,48.5C 30.5,49.5 30.5,50.5 30.5,51.5C 28.0882,51.3059 27.0882,49.9726 27.5,47.5C 28.791,47.7373 29.791,47.404 30.5,46.5C 29.5,46.5 28.5,46.5 27.5,46.5C 27.587,43.4221 28.9203,41.0888 31.5,39.5C 34.3392,40.9063 36.0059,39.9063 36.5,36.5 Z"/></g>
<g><path style="opacity:1" fill="#c62160" d="M 40.5,37.5 C 41.4916,37.3284 42.1583,37.6618 42.5,38.5C 41.4479,40.256 39.7812,40.9227 37.5,40.5C 37.5,39.5 37.5,38.5 37.5,37.5C 38.5,37.5 39.5,37.5 40.5,37.5 Z"/></g>
<g><path style="opacity:1" fill="#991d4c" d="M 36.5,36.5 C 36.0059,39.9063 34.3392,40.9063 31.5,39.5C 32.6594,37.7497 34.326,36.7497 36.5,36.5 Z"/></g>
<g><path style="opacity:1" fill="#c0205d" d="M 30.5,46.5 C 30.5,44.8333 30.5,43.1667 30.5,41.5C 32.288,41.2148 33.9547,41.5481 35.5,42.5C 34.7542,43.7362 34.4208,45.0695 34.5,46.5C 33.1667,46.5 31.8333,46.5 30.5,46.5 Z"/></g>
<g><path style="opacity:1" fill="#9a1e4d" d="M 36.5,42.5 C 38.1667,42.5 39.8333,42.5 41.5,42.5C 41.5,43.8333 41.5,45.1667 41.5,46.5C 39.8333,46.5 38.1667,46.5 36.5,46.5C 36.5,45.1667 36.5,43.8333 36.5,42.5 Z"/></g>
<g><path style="opacity:1" fill="#a32051" d="M 34.5,51.5 C 33.1667,51.5 31.8333,51.5 30.5,51.5C 30.5,50.5 30.5,49.5 30.5,48.5C 31.8333,48.5 33.1667,48.5 34.5,48.5C 34.5,49.5 34.5,50.5 34.5,51.5 Z"/></g>
<g><path style="opacity:1" fill="#c2215e" d="M 41.5,52.5 C 39.5853,52.7845 37.9187,52.4511 36.5,51.5C 36.5,50.5 36.5,49.5 36.5,48.5C 38.1667,48.5 39.8333,48.5 41.5,48.5C 41.5,49.8333 41.5,51.1667 41.5,52.5 Z"/></g>
<g><path style="opacity:1" fill="#911c49" d="M 66.5,50.5 C 66.5,51.1667 66.1667,51.5 65.5,51.5C 64.1667,51.5 62.8333,51.5 61.5,51.5C 61.5,50.1667 61.5,48.8333 61.5,47.5C 63.1667,47.5 64.8333,47.5 66.5,47.5C 66.5,48.5 66.5,49.5 66.5,50.5 Z"/></g>
<g><path style="opacity:1" fill="#3b0d1e" d="M 55.5,37.5 C 57.5,36.1667 59.5,36.1667 61.5,37.5C 60.596,38.209 60.2627,39.209 60.5,40.5C 62.1667,40.5 63.8333,40.5 65.5,40.5C 67.6977,40.4088 68.0311,41.0755 66.5,42.5C 67.7479,43.3339 68.4146,44.6672 68.5,46.5C 68.4146,48.3328 67.7479,49.6661 66.5,50.5C 66.5,49.5 66.5,48.5 66.5,47.5C 64.8333,47.5 63.1667,47.5 61.5,47.5C 61.5,48.8333 61.5,50.1667 61.5,51.5C 62.8333,51.5 64.1667,51.5 65.5,51.5C 65.4386,53.5922 64.4386,55.0922 62.5,56C 58.6434,56.7585 54.9767,56.2585 51.5,54.5C 50.241,51.6344 49.241,48.6344 48.5,45.5C 49.0266,42.3132 50.6933,39.9799 53.5,38.5C 54.5521,40.256 56.2188,40.9227 58.5,40.5C 58.5,39.5 58.5,38.5 58.5,37.5C 57.5,37.5 56.5,37.5 55.5,37.5 Z"/></g>
<g><path style="opacity:1" fill="#c92262" d="M 55.5,48.5 C 56.8333,48.5 58.1667,48.5 59.5,48.5C 59.5,49.5 59.5,50.5 59.5,51.5C 57.8333,51.5 56.1667,51.5 54.5,51.5C 54.2627,50.209 54.596,49.209 55.5,48.5 Z"/></g>
<g><path style="opacity:1" fill="#861741" d="M 55.5,48.5 C 56.9187,47.5489 58.5853,47.2155 60.5,47.5C 60.5,49.1667 60.5,50.8333 60.5,52.5C 58.2646,52.7947 56.2646,52.4614 54.5,51.5C 56.1667,51.5 57.8333,51.5 59.5,51.5C 59.5,50.5 59.5,49.5 59.5,48.5C 58.1667,48.5 56.8333,48.5 55.5,48.5 Z"/></g>
<g><path style="opacity:1" fill="#991e4d" d="M 54.5,42.5 C 56.1667,42.5 57.8333,42.5 59.5,42.5C 59.5,43.8333 59.5,45.1667 59.5,46.5C 57.8333,46.5 56.1667,46.5 54.5,46.5C 54.5,45.1667 54.5,43.8333 54.5,42.5 Z"/></g>
<g><path style="opacity:1" fill="#be205c" d="M 66.5,42.5 C 66.5,43.8333 66.5,45.1667 66.5,46.5C 64.8333,46.5 63.1667,46.5 61.5,46.5C 61.5,44.8333 61.5,43.1667 61.5,41.5C 63.2915,41.366 64.9582,41.6993 66.5,42.5 Z"/></g>
<g><path style="opacity:1" fill="#181718" d="M 62.5,37.5 C 62.5,36.8333 62.8333,36.5 63.5,36.5C 64.1667,36.5 64.8333,36.5 65.5,36.5C 69.1412,40.4506 71.1412,45.1173 71.5,50.5C 71.9321,51.7095 72.5987,52.7095 73.5,53.5C 74.1524,54.4486 74.4857,55.6153 74.5,57C 74.6068,59.2206 73.9402,61.0539 72.5,62.5C 71.0937,62.9731 70.427,63.9731 70.5,65.5C 70.5,66.1667 70.5,66.8333 70.5,67.5C 70.4142,68.4959 70.7476,69.3292 71.5,70C 70.9056,70.4643 70.2389,70.631 69.5,70.5C 68.5,69.8333 67.5,69.1667 66.5,68.5C 65.6236,68.3691 64.9569,68.7025 64.5,69.5C 65.1667,70.8333 65.8333,72.1667 66.5,73.5C 66.0302,74.463 65.3635,74.463 64.5,73.5C 64.4606,72.4168 64.1272,71.4168 63.5,70.5C 61.604,69.5344 59.604,69.2011 57.5,69.5C 57.9746,72.0821 57.3079,74.0821 55.5,75.5C 55.5,73.8333 55.5,72.1667 55.5,70.5C 50.8333,70.5 46.1667,70.5 41.5,70.5C 40.71,71.6085 40.21,72.9419 40,74.5C 39.5065,72.8659 39.3398,71.1992 39.5,69.5C 37.2646,69.2053 35.2646,69.5386 33.5,70.5C 32.8333,70.1667 32.1667,69.8333 31.5,69.5C 31.5,68.8333 31.1667,68.5 30.5,68.5C 29.0736,67.6588 27.7403,66.6588 26.5,65.5C 23.9886,62.3025 22.6553,58.6358 22.5,54.5C 23.1667,53.5 23.8333,52.5 24.5,51.5C 24.5,52.1667 24.5,52.8333 24.5,53.5C 23.7009,61.1986 27.0343,66.0319 34.5,68C 43.5,68.6667 52.5,68.6667 61.5,68C 70.4248,65.3529 73.0914,59.8529 69.5,51.5C 67.0703,54.5966 64.4037,57.2632 61.5,59.5C 62.8611,63.0664 61.5277,65.5664 57.5,67C 51.1667,67.6667 44.8333,67.6667 38.5,67C 34.1132,65.4811 32.7799,62.6477 34.5,58.5C 33.7573,57.8182 33.0906,57.1515 32.5,56.5C 32.8333,56.5 33.1667,56.5 33.5,56.5C 35.4771,55.8505 37.3105,55.8505 39,56.5C 41.1204,55.8598 42.9537,54.8598 44.5,53.5C 45.3382,53.1583 45.6716,52.4916 45.5,51.5C 46.1667,51.1667 46.8333,50.8333 47.5,50.5C 47.5,50.8333 47.5,51.1667 47.5,51.5C 46.5501,54.1149 44.8835,56.1149 42.5,57.5C 46.2484,58.842 49.9151,58.6753 53.5,57C 52.6195,56.2917 51.9528,55.4584 51.5,54.5C 54.9767,56.2585 58.6434,56.7585 62.5,56C 64.4386,55.0922 65.4386,53.5922 65.5,51.5C 66.1667,51.5 66.5,51.1667 66.5,50.5C 67.7479,49.6661 68.4146,48.3328 68.5,46.5C 68.4146,44.6672 67.7479,43.3339 66.5,42.5C 68.0311,41.0755 67.6977,40.4088 65.5,40.5C 64.8333,39.1667 63.8333,38.1667 62.5,37.5 Z"/></g>
<g><path style="opacity:0.827" fill="#bbbcbd" d="M 22.5,54.5 C 22.6553,58.6358 23.9886,62.3025 26.5,65.5C 26.6716,66.4916 26.3382,67.1583 25.5,67.5C 24.0877,65.0024 22.9211,62.3358 22,59.5C 21.2204,57.6131 21.3871,55.9464 22.5,54.5 Z"/></g>
<g><path style="opacity:1" fill="#2e2638" d="M 32.5,56.5 C 33.0906,57.1515 33.7573,57.8182 34.5,58.5C 32.7799,62.6477 34.1132,65.4811 38.5,67C 44.8333,67.6667 51.1667,67.6667 57.5,67C 61.5277,65.5664 62.8611,63.0664 61.5,59.5C 64.4037,57.2632 67.0703,54.5966 69.5,51.5C 73.0914,59.8529 70.4248,65.3529 61.5,68C 52.5,68.6667 43.5,68.6667 34.5,68C 27.0343,66.0319 23.7009,61.1986 24.5,53.5C 25.1515,52.9094 25.8182,52.2427 26.5,51.5C 27.9308,53.9377 29.9308,55.6044 32.5,56.5 Z"/></g>
<g><path style="opacity:1" fill="#272030" d="M 61.5,59.5 C 60.9748,63.5229 58.6415,65.6896 54.5,66C 48.2757,67.0607 42.2757,66.3941 36.5,64C 34.728,60.889 35.5613,59.0556 39,58.5C 44.9818,61.0614 50.9818,61.0614 57,58.5C 58.5328,58.7728 60.0328,59.1062 61.5,59.5 Z"/></g>
<g><path style="opacity:1" fill="#30273a" d="M 47.5,51.5 C 48.8333,52.5 50.1667,53.5 51.5,54.5C 51.9528,55.4584 52.6195,56.2917 53.5,57C 49.9151,58.6753 46.2484,58.842 42.5,57.5C 44.8835,56.1149 46.5501,54.1149 47.5,51.5 Z"/></g>
<g><path style="opacity:1" fill="#4d0d25" d="M 44.5,53.5 C 42.9537,54.8598 41.1204,55.8598 39,56.5C 37.3105,55.8505 35.4771,55.8505 33.5,56.5C 33.0472,55.5416 32.3805,54.7083 31.5,54C 35.617,54.2724 39.7837,53.7724 44,52.5C 44.3988,52.7284 44.5654,53.0618 44.5,53.5 Z"/></g>
<g><path style="opacity:0.212" fill="#b8b9ba" d="M 72.5,62.5 C 72.573,64.0269 71.9063,65.0269 70.5,65.5C 70.427,63.9731 71.0937,62.9731 72.5,62.5 Z"/></g>
<g><path style="opacity:1" fill="#464647" d="M 26.5,65.5 C 27.7403,66.6588 29.0736,67.6588 30.5,68.5C 28.5,69.5 26.5,70.5 24.5,71.5C 24.8333,70.1667 25.1667,68.8333 25.5,67.5C 26.3382,67.1583 26.6716,66.4916 26.5,65.5 Z"/></g>
<g><path style="opacity:0.763" fill="#d1d4d5" d="M 30.5,68.5 C 31.1667,68.5 31.5,68.8333 31.5,69.5C 30.5592,71.0495 29.8925,72.7162 29.5,74.5C 28.4786,72.4767 28.8119,70.4767 30.5,68.5 Z"/></g>
<g><path style="opacity:0.345" fill="#c3c4c6" d="M 25.5,67.5 C 25.1667,68.8333 24.8333,70.1667 24.5,71.5C 23.1472,69.8716 23.4805,68.5383 25.5,67.5 Z"/></g>
<g><path style="opacity:1" fill="#545455" d="M 31.5,69.5 C 32.1667,69.8333 32.8333,70.1667 33.5,70.5C 33.2914,71.9217 32.7914,73.255 32,74.5C 31.0228,75.7736 30.1894,75.7736 29.5,74.5C 29.8925,72.7162 30.5592,71.0495 31.5,69.5 Z"/></g>
<g><path style="opacity:0.557" fill="#888b8b" d="M 70.5,67.5 C 72.1042,68.287 72.7709,69.6203 72.5,71.5C 71.209,71.7373 70.209,71.404 69.5,70.5C 70.2389,70.631 70.9056,70.4643 71.5,70C 70.7476,69.3292 70.4142,68.4959 70.5,67.5 Z"/></g>
<g><path style="opacity:0.063" fill="#dbddde" d="M 41.5,71.5 C 41.5,71.1667 41.5,70.8333 41.5,70.5C 46.1667,70.5 50.8333,70.5 55.5,70.5C 55.5,72.1667 55.5,73.8333 55.5,75.5C 54.5655,74.4324 54.2322,73.099 54.5,71.5C 50.1667,71.5 45.8333,71.5 41.5,71.5 Z"/></g>
<g><path style="opacity:0.4" fill="#c6c8c8" d="M 66.5,68.5 C 66.9926,70.8056 67.3259,73.139 67.5,75.5C 65.8212,75.7148 64.8212,75.0481 64.5,73.5C 65.3635,74.463 66.0302,74.463 66.5,73.5C 65.8333,72.1667 65.1667,70.8333 64.5,69.5C 64.9569,68.7025 65.6236,68.3691 66.5,68.5 Z"/></g>
<g><path style="opacity:0.235" fill="#909192" d="M 33.5,70.5 C 35.2646,69.5386 37.2646,69.2053 39.5,69.5C 39.3398,71.1992 39.5065,72.8659 40,74.5C 40.21,72.9419 40.71,71.6085 41.5,70.5C 41.5,70.8333 41.5,71.1667 41.5,71.5C 41.8841,73.6648 41.2174,75.3315 39.5,76.5C 37.3432,75.0336 37.0099,73.2003 38.5,71C 36.8659,70.5065 35.1992,70.3398 33.5,70.5 Z"/></g>
<g><path style="opacity:0.412" fill="#afb0b1" d="M 64.5,73.5 C 63.0772,71.4551 61.0772,70.4551 58.5,70.5C 58.5,72.5 58.5,74.5 58.5,76.5C 57.209,76.7373 56.209,76.404 55.5,75.5C 57.3079,74.0821 57.9746,72.0821 57.5,69.5C 59.604,69.2011 61.604,69.5344 63.5,70.5C 64.1272,71.4168 64.4606,72.4168 64.5,73.5 Z"/></g>
</svg>
