<?xml version="1.0" encoding="UTF-8"?>
<!DOCTYPE svg PUBLIC "-//W3C//DTD SVG 1.1//EN" "http://www.w3.org/Graphics/SVG/1.1/DTD/svg11.dtd">
<svg xmlns="http://www.w3.org/2000/svg" version="1.1" width="96px" height="96px" style="shape-rendering:geometricPrecision; text-rendering:geometricPrecision; image-rendering:optimizeQuality; fill-rule:evenodd; clip-rule:evenodd" xmlns:xlink="http://www.w3.org/1999/xlink">
<g><path style="opacity:0.97" fill="#38e4de" d="M 54.5,-0.5 C 62.5,-0.5 70.5,-0.5 78.5,-0.5C 78.5,5.16667 78.5,10.8333 78.5,16.5C 78.5,17.1667 78.1667,17.5 77.5,17.5C 71.0478,17.0845 64.7145,17.5845 58.5,19C 57.8742,19.7504 57.3742,20.5838 57,21.5C 56.5006,27.1569 56.3339,32.8236 56.5,38.5C 55.8333,38.5 55.5,38.8333 55.5,39.5C 50.1667,39.5 44.8333,39.5 39.5,39.5C 39.5,38.8333 39.1667,38.5 38.5,38.5C 38.0943,30.0826 38.5943,21.7492 40,13.5C 43.4084,7.25655 48.2417,2.58988 54.5,-0.5 Z"/></g>
<g><path style="opacity:0.971" fill="#0aa4e8" d="M 78.5,16.5 C 84.1667,16.5 89.8333,16.5 95.5,16.5C 95.5,24.5 95.5,32.5 95.5,40.5C 92.4101,46.7583 87.7434,51.5916 81.5,55C 73.2508,56.4057 64.9174,56.9057 56.5,56.5C 55.8333,56.5 55.5,56.1667 55.5,55.5C 55.5,50.1667 55.5,44.8333 55.5,39.5C 55.5,38.8333 55.8333,38.5 56.5,38.5C 62.9251,38.8696 69.2584,38.3696 75.5,37C 76.1258,36.2496 76.6258,35.4162 77,34.5C 77.4994,28.8431 77.6661,23.1764 77.5,17.5C 78.1667,17.5 78.5,17.1667 78.5,16.5 Z"/></g>
<g><path style="opacity:0.968" fill="#d34f9f" d="M 38.5,38.5 C 39.1667,38.5 39.5,38.8333 39.5,39.5C 39.5,44.8333 39.5,50.1667 39.5,55.5C 39.5,56.1667 39.1667,56.5 38.5,56.5C 32.0749,56.1304 25.7416,56.6304 19.5,58C 18.8742,58.7504 18.3742,59.5838 18,60.5C 17.5006,66.1569 17.3339,71.8236 17.5,77.5C 16.8333,77.5 16.5,77.8333 16.5,78.5C 10.8333,78.5 5.16667,78.5 -0.5,78.5C -0.5,70.5 -0.5,62.5 -0.5,54.5C 2.58988,48.2417 7.25655,43.4084 13.5,40C 21.7492,38.5943 30.0826,38.0943 38.5,38.5 Z"/></g>
<g><path style="opacity:0.969" fill="#7e46f0" d="M 39.5,55.5 C 44.8333,55.5 50.1667,55.5 55.5,55.5C 55.5,56.1667 55.8333,56.5 56.5,56.5C 56.9057,64.9174 56.4057,73.2508 55,81.5C 51.5916,87.7434 46.7583,92.4101 40.5,95.5C 32.5,95.5 24.5,95.5 16.5,95.5C 16.5,89.8333 16.5,84.1667 16.5,78.5C 16.5,77.8333 16.8333,77.5 17.5,77.5C 23.9522,77.9155 30.2855,77.4155 36.5,76C 37.1258,75.2496 37.6258,74.4162 38,73.5C 38.4994,67.8431 38.6661,62.1764 38.5,56.5C 39.1667,56.5 39.5,56.1667 39.5,55.5 Z"/></g>
</svg>
