<?xml version="1.0" encoding="UTF-8"?>
<!DOCTYPE svg PUBLIC "-//W3C//DTD SVG 1.1//EN" "http://www.w3.org/Graphics/SVG/1.1/DTD/svg11.dtd">
<svg xmlns="http://www.w3.org/2000/svg" version="1.1" width="96px" height="96px" style="shape-rendering:geometricPrecision; text-rendering:geometricPrecision; image-rendering:optimizeQuality; fill-rule:evenodd; clip-rule:evenodd" xmlns:xlink="http://www.w3.org/1999/xlink">
<g><path style="opacity:0.48" fill="#000100" d="M 42.5,-0.5 C 45.8333,-0.5 49.1667,-0.5 52.5,-0.5C 60.2336,0.745941 67.2336,3.74594 73.5,8.5C 72.1667,8.16667 70.8333,7.83333 69.5,7.5C 62.9491,3.02668 55.6158,1.02668 47.5,1.5C 38.0366,0.988957 29.7033,3.65562 22.5,9.5C 20.4048,10.412 18.4048,11.5787 16.5,13C 15.7476,13.6708 15.4142,14.5041 15.5,15.5C 14.391,15.5569 13.391,15.8902 12.5,16.5C 12.8588,14.629 13.8588,13.129 15.5,12C 23.5752,5.62612 32.5752,1.45945 42.5,-0.5 Z"/></g>
<g><path style="opacity:1" fill="#133614" d="M 69.5,7.5 C 65.8056,6.49166 62.1389,5.325 58.5,4C 55.5,3.33333 52.5,3.33333 49.5,4C 55.4003,4.89152 61.067,6.55819 66.5,9C 69.2661,10.371 71.5994,12.2043 73.5,14.5C 58.111,5.01489 42.111,4.01489 25.5,11.5C 26.7489,9.8639 28.4156,8.69724 30.5,8C 36.0913,6.19138 41.758,4.69138 47.5,3.5C 43.4947,2.47262 39.4947,2.63929 35.5,4C 31.1453,5.84577 26.8119,7.6791 22.5,9.5C 29.7033,3.65562 38.0366,0.988957 47.5,1.5C 55.6158,1.02668 62.9491,3.02668 69.5,7.5 Z"/></g>
<g><path style="opacity:1" fill="#504b4f" d="M 25.5,11.5 C 23.9557,11.7031 22.6223,12.3698 21.5,13.5C 21.1667,13.1667 20.8333,12.8333 20.5,12.5C 21.1925,11.4822 21.8592,10.4822 22.5,9.5C 26.8119,7.6791 31.1453,5.84577 35.5,4C 39.4947,2.63929 43.4947,2.47262 47.5,3.5C 41.758,4.69138 36.0913,6.19138 30.5,8C 28.4156,8.69724 26.7489,9.8639 25.5,11.5 Z"/></g>
<g><path style="opacity:1" fill="#524c52" d="M 69.5,7.5 C 73.6152,10.7468 77.6152,14.2468 81.5,18C 81,18.5 80.5,19 80,19.5C 78.2228,17.2101 76.0562,15.5434 73.5,14.5C 71.5994,12.2043 69.2661,10.371 66.5,9C 61.067,6.55819 55.4003,4.89152 49.5,4C 52.5,3.33333 55.5,3.33333 58.5,4C 62.1389,5.325 65.8056,6.49166 69.5,7.5 Z"/></g>
<g><path style="opacity:1" fill="#060806" d="M 73.5,14.5 C 86.1736,25.6844 91.007,39.6844 88,56.5C 86.5493,60.8244 85.5493,65.1577 85,69.5C 85.6667,70.1667 86.3333,70.8333 87,71.5C 92.3165,62.5288 94.3165,52.8621 93,42.5C 91.9326,41.8095 90.7659,41.3095 89.5,41C 90.448,40.5172 91.448,40.3505 92.5,40.5C 92.7372,36.5898 91.9039,32.9231 90,29.5C 87.6444,25.0032 85.1444,20.6698 82.5,16.5C 84.8356,18.0038 86.669,20.0038 88,22.5C 91.6213,28.8779 94.1213,35.5446 95.5,42.5C 95.5,45.8333 95.5,49.1667 95.5,52.5C 90.8333,76.5 76.5,90.8333 52.5,95.5C 49.1667,95.5 45.8333,95.5 42.5,95.5C 34.7664,94.2541 27.7664,91.2541 21.5,86.5C 33.7258,93.4874 46.7258,95.3208 60.5,92C 65.0099,90.5818 69.0099,88.4151 72.5,85.5C 77.2536,81.5766 81.5869,77.0766 85.5,72C 84.154,70.4132 82.8206,70.5798 81.5,72.5C 82.1157,71.2022 82.1157,70.2022 81.5,69.5C 81.8039,68.8501 82.1373,68.1835 82.5,67.5C 78.7529,60.3372 74.7529,53.3372 70.5,46.5C 65.6004,46.0944 61.2671,47.7611 57.5,51.5C 60.9032,54.1992 64.0699,53.8659 67,50.5C 68.3654,51.5929 68.6987,52.9262 68,54.5C 66.3484,55.3994 64.8484,56.3994 63.5,57.5C 62.5318,59.6074 62.1984,61.9407 62.5,64.5C 61.5,64.5 60.5,64.5 59.5,64.5C 59.7947,62.2646 59.4614,60.2646 58.5,58.5C 57.5637,57.0256 56.2303,56.0256 54.5,55.5C 53.5233,58.2869 53.19,61.2869 53.5,64.5C 52.5,64.5 51.5,64.5 50.5,64.5C 50.5,59.8333 50.5,55.1667 50.5,50.5C 55.8154,46.8588 61.1487,43.1921 66.5,39.5C 61,29.8333 55.5,20.1667 50,10.5C 49.1627,8.99256 47.9961,8.49256 46.5,9C 41.3431,16.4892 37.1765,24.3226 34,32.5C 37.242,35.2055 40.742,37.5388 44.5,39.5C 46.3654,35.34 45.032,32.6733 40.5,31.5C 39.1771,29.796 39.5104,28.4627 41.5,27.5C 45.5,31.5 49.5,31.5 53.5,27.5C 54.4147,28.3279 55.0814,29.3279 55.5,30.5C 53.5781,31.711 51.7448,33.0443 50,34.5C 49.2025,36.2588 49.3691,37.9255 50.5,39.5C 52.6705,37.9138 55.0038,36.5804 57.5,35.5C 58.646,36.1449 59.646,36.9783 60.5,38C 56.4559,41.0214 52.1226,43.5214 47.5,45.5C 42.2127,43.1892 37.2127,40.3559 32.5,37C 31.365,36.2506 30.365,36.4173 29.5,37.5C 23.8333,47.5 18.1667,57.5 12.5,67.5C 12.8555,68.5223 13.5222,69.189 14.5,69.5C 14.5,70.1667 14.1667,70.5 13.5,70.5C 8.248,63.8497 5.91466,56.183 6.5,47.5C 6.28074,39.7125 7.9474,32.3792 11.5,25.5C 15.8333,20.5 20.5,15.8333 25.5,11.5C 42.111,4.01489 58.111,5.01489 73.5,14.5 Z"/></g>
<g><path style="opacity:1" fill="#143013" d="M 22.5,9.5 C 21.8592,10.4822 21.1925,11.4822 20.5,12.5C 20.8333,12.8333 21.1667,13.1667 21.5,13.5C 22.6223,12.3698 23.9557,11.7031 25.5,11.5C 20.5,15.8333 15.8333,20.5 11.5,25.5C 11.5106,23.9826 12.1772,22.8159 13.5,22C 12.154,20.4132 10.8206,20.5798 9.5,22.5C 10.1667,20.8333 10.8333,19.1667 11.5,17.5C 11.5,16.8333 11.8333,16.5 12.5,16.5C 13.391,15.8902 14.391,15.5569 15.5,15.5C 15.4142,14.5041 15.7476,13.6708 16.5,13C 18.4048,11.5787 20.4048,10.412 22.5,9.5 Z"/></g>
<g><path style="opacity:1" fill="#4e474e" d="M 15.5,15.5 C 16.4822,14.8592 17.4822,14.1925 18.5,13.5C 18.8333,13.8333 19.1667,14.1667 19.5,14.5C 17.8509,16.6499 16.0176,18.6499 14,20.5C 13.3872,18.5048 13.8872,16.8381 15.5,15.5 Z"/></g>
<g><path style="opacity:1" fill="#595259" d="M 11.5,25.5 C 10.2876,26.2299 9.28763,27.2299 8.5,28.5C 8.16667,28.1667 7.83333,27.8333 7.5,27.5C 8.45645,25.9246 9.12312,24.258 9.5,22.5C 10.8206,20.5798 12.154,20.4132 13.5,22C 12.1772,22.8159 11.5106,23.9826 11.5,25.5 Z"/></g>
<g><path style="opacity:0.479" fill="#010401" d="M 11.5,17.5 C 10.8333,19.1667 10.1667,20.8333 9.5,22.5C 5.70125,27.5276 3.03459,33.1942 1.5,39.5C 1.62358,40.1067 1.95691,40.44 2.5,40.5C 2.5,40.8333 2.5,41.1667 2.5,41.5C -0.245423,54.8449 3.08791,66.5116 12.5,76.5C 14.5,77.8333 16.1667,79.5 17.5,81.5C 18.8333,83.1667 20.1667,84.8333 21.5,86.5C 15.2356,83.4038 10.4023,78.7371 7,72.5C 3.37869,66.1221 0.878689,59.4554 -0.5,52.5C -0.5,49.1667 -0.5,45.8333 -0.5,42.5C 1.07641,33.0135 5.07641,24.6802 11.5,17.5 Z"/></g>
<g><path style="opacity:1" fill="#2c3d2a" d="M 69.5,7.5 C 70.8333,7.83333 72.1667,8.16667 73.5,8.5C 77.564,10.0225 80.564,12.6891 82.5,16.5C 85.1444,20.6698 87.6444,25.0032 90,29.5C 91.9039,32.9231 92.7372,36.5898 92.5,40.5C 91.448,40.3505 90.448,40.5172 89.5,41C 90.7659,41.3095 91.9326,41.8095 93,42.5C 94.3165,52.8621 92.3165,62.5288 87,71.5C 86.3333,70.8333 85.6667,70.1667 85,69.5C 85.5493,65.1577 86.5493,60.8244 88,56.5C 91.007,39.6844 86.1736,25.6844 73.5,14.5C 76.0562,15.5434 78.2228,17.2101 80,19.5C 80.5,19 81,18.5 81.5,18C 77.6152,14.2468 73.6152,10.7468 69.5,7.5 Z"/></g>
<g><path style="opacity:1" fill="#555355" d="M 2.5,41.5 C 2.5,41.1667 2.5,40.8333 2.5,40.5C 4.10575,39.2197 5.10575,39.7197 5.5,42C 4.66897,47.5537 4.33564,53.0537 4.5,58.5C 2.97712,52.9387 2.31046,47.272 2.5,41.5 Z"/></g>
<g><path style="opacity:1" fill="#4ef54e" d="M 50.5,50.5 C 49.5128,55.3054 49.1795,60.3054 49.5,65.5C 51.1667,65.5 52.8333,65.5 54.5,65.5C 54.5,62.1667 54.5,58.8333 54.5,55.5C 56.2303,56.0256 57.5637,57.0256 58.5,58.5C 58.5,60.8333 58.5,63.1667 58.5,65.5C 60.1667,65.5 61.8333,65.5 63.5,65.5C 63.5,62.8333 63.5,60.1667 63.5,57.5C 64.8484,56.3994 66.3484,55.3994 68,54.5C 68.6987,52.9262 68.3654,51.5929 67,50.5C 64.0699,53.8659 60.9032,54.1992 57.5,51.5C 61.2671,47.7611 65.6004,46.0944 70.5,46.5C 74.7529,53.3372 78.7529,60.3372 82.5,67.5C 82.1373,68.1835 81.8039,68.8501 81.5,69.5C 69.5,69.5 57.5,69.5 45.5,69.5C 45.6662,63.1579 45.4995,56.8246 45,50.5C 41.5838,48.208 38.0838,46.0414 34.5,44C 31.0857,43.243 30.0857,44.4097 31.5,47.5C 33.8816,48.3507 35.8816,49.684 37.5,51.5C 34.0968,54.1992 30.9301,53.8659 28,50.5C 26.6346,51.5929 26.3013,52.9262 27,54.5C 28.6516,55.3994 30.1516,56.3994 31.5,57.5C 31.5,60.1667 31.5,62.8333 31.5,65.5C 33.1667,65.5 34.8333,65.5 36.5,65.5C 36.5,63.1667 36.5,60.8333 36.5,58.5C 37.3149,57.1634 38.4815,56.1634 40,55.5C 40.4992,60.1548 40.6658,64.8215 40.5,69.5C 31.8333,69.5 23.1667,69.5 14.5,69.5C 13.5222,69.189 12.8555,68.5223 12.5,67.5C 18.1667,57.5 23.8333,47.5 29.5,37.5C 30.365,36.4173 31.365,36.2506 32.5,37C 37.2127,40.3559 42.2127,43.1892 47.5,45.5C 52.1226,43.5214 56.4559,41.0214 60.5,38C 59.646,36.9783 58.646,36.1449 57.5,35.5C 55.0038,36.5804 52.6705,37.9138 50.5,39.5C 49.3691,37.9255 49.2025,36.2588 50,34.5C 51.7448,33.0443 53.5781,31.711 55.5,30.5C 55.0814,29.3279 54.4147,28.3279 53.5,27.5C 49.5,31.5 45.5,31.5 41.5,27.5C 39.5104,28.4627 39.1771,29.796 40.5,31.5C 45.032,32.6733 46.3654,35.34 44.5,39.5C 40.742,37.5388 37.242,35.2055 34,32.5C 37.1765,24.3226 41.3431,16.4892 46.5,9C 47.9961,8.49256 49.1627,8.99256 50,10.5C 55.5,20.1667 61,29.8333 66.5,39.5C 61.1487,43.1921 55.8154,46.8588 50.5,50.5 Z"/></g>
<g><path style="opacity:1" fill="#0a0f09" d="M 46.5,16.5 C 48.7306,18.0762 50.3972,20.2428 51.5,23C 48.8333,26.3333 46.1667,26.3333 43.5,23C 44.914,21.0065 45.914,18.8398 46.5,16.5 Z"/></g>
<g><path style="opacity:1" fill="#1b361a" d="M 9.5,22.5 C 9.12312,24.258 8.45645,25.9246 7.5,27.5C 7.83333,27.8333 8.16667,28.1667 8.5,28.5C 9.28763,27.2299 10.2876,26.2299 11.5,25.5C 7.9474,32.3792 6.28074,39.7125 6.5,47.5C 5.91466,56.183 8.248,63.8497 13.5,70.5C 13.5,71.1667 13.5,71.8333 13.5,72.5C 12.4246,71.4376 11.4246,71.4376 10.5,72.5C 11.6302,73.6223 12.2969,74.9557 12.5,76.5C 3.08791,66.5116 -0.245423,54.8449 2.5,41.5C 2.31046,47.272 2.97712,52.9387 4.5,58.5C 4.33564,53.0537 4.66897,47.5537 5.5,42C 5.10575,39.7197 4.10575,39.2197 2.5,40.5C 1.95691,40.44 1.62358,40.1067 1.5,39.5C 3.03459,33.1942 5.70125,27.5276 9.5,22.5 Z"/></g>
<g><path style="opacity:1" fill="#585358" d="M 6.5,29.5 C 7.47204,32.5203 6.97204,35.5203 5,38.5C 4.5,38 4,37.5 3.5,37C 4.64219,34.5501 5.64219,32.0501 6.5,29.5 Z"/></g>
<g><path style="opacity:1" fill="#245724" d="M 50.5,50.5 C 50.5,55.1667 50.5,59.8333 50.5,64.5C 51.5,64.5 52.5,64.5 53.5,64.5C 53.19,61.2869 53.5233,58.2869 54.5,55.5C 54.5,58.8333 54.5,62.1667 54.5,65.5C 52.8333,65.5 51.1667,65.5 49.5,65.5C 49.1795,60.3054 49.5128,55.3054 50.5,50.5 Z"/></g>
<g><path style="opacity:1" fill="#2e882e" d="M 31.5,57.5 C 32.4682,59.6074 32.8016,61.9407 32.5,64.5C 33.5,64.5 34.5,64.5 35.5,64.5C 35.2053,62.2646 35.5386,60.2646 36.5,58.5C 36.5,60.8333 36.5,63.1667 36.5,65.5C 34.8333,65.5 33.1667,65.5 31.5,65.5C 31.5,62.8333 31.5,60.1667 31.5,57.5 Z"/></g>
<g><path style="opacity:1" fill="#329932" d="M 63.5,57.5 C 63.5,60.1667 63.5,62.8333 63.5,65.5C 61.8333,65.5 60.1667,65.5 58.5,65.5C 58.5,63.1667 58.5,60.8333 58.5,58.5C 59.4614,60.2646 59.7947,62.2646 59.5,64.5C 60.5,64.5 61.5,64.5 62.5,64.5C 62.1984,61.9407 62.5318,59.6074 63.5,57.5 Z"/></g>
<g><path style="opacity:1" fill="#0e150c" d="M 22.5,58.5 C 26.8004,58.8153 28.467,61.1486 27.5,65.5C 24.7531,65.8134 22.0865,65.48 19.5,64.5C 21.0383,62.7567 22.0383,60.7567 22.5,58.5 Z"/></g>
<g><path style="opacity:1" fill="#0f180d" d="M 69.5,58.5 C 72.4106,59.4098 74.4106,61.4098 75.5,64.5C 72.9135,65.48 70.2469,65.8134 67.5,65.5C 67.1658,62.812 67.8325,60.4786 69.5,58.5 Z"/></g>
<g><path style="opacity:1" fill="#0a0f09" d="M 81.5,69.5 C 82.1157,70.2022 82.1157,71.2022 81.5,72.5C 78.1667,75.1667 75.1667,78.1667 72.5,81.5C 50.4956,93.3752 30.8289,90.3752 13.5,72.5C 13.5,71.8333 13.5,71.1667 13.5,70.5C 14.1667,70.5 14.5,70.1667 14.5,69.5C 23.1667,69.5 31.8333,69.5 40.5,69.5C 40.6658,64.8215 40.4992,60.1548 40,55.5C 38.4815,56.1634 37.3149,57.1634 36.5,58.5C 35.5386,60.2646 35.2053,62.2646 35.5,64.5C 34.5,64.5 33.5,64.5 32.5,64.5C 32.8016,61.9407 32.4682,59.6074 31.5,57.5C 30.1516,56.3994 28.6516,55.3994 27,54.5C 26.3013,52.9262 26.6346,51.5929 28,50.5C 30.9301,53.8659 34.0968,54.1992 37.5,51.5C 35.8816,49.684 33.8816,48.3507 31.5,47.5C 30.0857,44.4097 31.0857,43.243 34.5,44C 38.0838,46.0414 41.5838,48.208 45,50.5C 45.4995,56.8246 45.6662,63.1579 45.5,69.5C 57.5,69.5 69.5,69.5 81.5,69.5 Z"/></g>
<g><path style="opacity:1" fill="#514b51" d="M 13.5,72.5 C 16.6496,77.8148 20.983,81.9815 26.5,85C 31.1332,87.7422 36.1332,89.4089 41.5,90C 40.9747,90.6924 40.3081,91.1924 39.5,91.5C 31.3803,89.7714 24.047,86.4381 17.5,81.5C 16.1667,79.5 14.5,77.8333 12.5,76.5C 12.2969,74.9557 11.6302,73.6223 10.5,72.5C 11.4246,71.4376 12.4246,71.4376 13.5,72.5 Z"/></g>
<g><path style="opacity:1" fill="#0f3911" d="M 81.5,72.5 C 79.5,76.5 76.5,79.5 72.5,81.5C 75.1667,78.1667 78.1667,75.1667 81.5,72.5 Z"/></g>
<g><path style="opacity:1" fill="#4f4c4e" d="M 72.5,85.5 C 67.9664,87.5974 63.2997,89.4308 58.5,91C 56.4213,91.8077 54.4213,91.641 52.5,90.5C 60.233,89.6293 66.8997,86.6293 72.5,81.5C 76.5,79.5 79.5,76.5 81.5,72.5C 82.8206,70.5798 84.154,70.4132 85.5,72C 81.5869,77.0766 77.2536,81.5766 72.5,85.5 Z"/></g>
<g><path style="opacity:1" fill="#1a381a" d="M 13.5,72.5 C 30.8289,90.3752 50.4956,93.3752 72.5,81.5C 66.8997,86.6293 60.233,89.6293 52.5,90.5C 54.4213,91.641 56.4213,91.8077 58.5,91C 63.2997,89.4308 67.9664,87.5974 72.5,85.5C 69.0099,88.4151 65.0099,90.5818 60.5,92C 46.7258,95.3208 33.7258,93.4874 21.5,86.5C 20.1667,84.8333 18.8333,83.1667 17.5,81.5C 24.047,86.4381 31.3803,89.7714 39.5,91.5C 40.3081,91.1924 40.9747,90.6924 41.5,90C 36.1332,89.4089 31.1332,87.7422 26.5,85C 20.983,81.9815 16.6496,77.8148 13.5,72.5 Z"/></g>
</svg>
