<?xml version="1.0" encoding="UTF-8"?>
<!DOCTYPE svg PUBLIC "-//W3C//DTD SVG 1.1//EN" "http://www.w3.org/Graphics/SVG/1.1/DTD/svg11.dtd">
<svg xmlns="http://www.w3.org/2000/svg" version="1.1" width="96px" height="96px" style="shape-rendering:geometricPrecision; text-rendering:geometricPrecision; image-rendering:optimizeQuality; fill-rule:evenodd; clip-rule:evenodd" xmlns:xlink="http://www.w3.org/1999/xlink">
<g><path style="opacity:0.995" fill="#fb2b51" d="M 38.5,-0.5 C 44.5,-0.5 50.5,-0.5 56.5,-0.5C 77.6152,4.94825 90.6152,18.2816 95.5,39.5C 95.5,44.8333 95.5,50.1667 95.5,55.5C 90.6152,76.7184 77.6152,90.0517 56.5,95.5C 50.5,95.5 44.5,95.5 38.5,95.5C 17.3848,90.0517 4.38478,76.7184 -0.5,55.5C -0.5,50.1667 -0.5,44.8333 -0.5,39.5C 4.38478,18.2816 17.3848,4.94825 38.5,-0.5 Z"/></g>
<g><path style="opacity:1" fill="#fff2f4" d="M 31.5,15.5 C 42.1719,15.3335 52.8385,15.5002 63.5,16C 69.3333,23.1667 75.1667,30.3333 81,37.5C 80.0822,48.336 78.0822,59.0027 75,69.5C 65.8801,74.3098 56.7134,78.9764 47.5,83.5C 38.5,79 29.5,74.5 20.5,70C 16.9867,59.4163 14.82,48.583 14,37.5C 20.0472,30.2918 25.8805,22.9585 31.5,15.5 Z"/></g>
<g><path style="opacity:1" fill="#fb2a4e" d="M 37.5,20.5 C 43.987,19.346 50.6536,19.1794 57.5,20C 53.9767,24.0224 50.6434,28.189 47.5,32.5C 44.4905,28.1637 41.1572,24.1637 37.5,20.5 Z"/></g>
<g><path style="opacity:1" fill="#fb2b50" d="M 32.5,20.5 C 37.3315,24.9828 41.3315,30.1495 44.5,36C 39.7032,42.3004 34.7032,48.4671 29.5,54.5C 25.5,49.5 21.5,44.5 17.5,39.5C 22.9047,33.4352 27.9047,27.1019 32.5,20.5 Z"/></g>
<g><path style="opacity:1" fill="#fb2b50" d="M 61.5,20.5 C 66.7809,26.789 72.1142,33.1224 77.5,39.5C 73.5,44.5 69.5,49.5 65.5,54.5C 60.327,48.4916 55.327,42.3249 50.5,36C 54.2935,30.9091 57.9601,25.7424 61.5,20.5 Z"/></g>
<g><path style="opacity:1" fill="#fb2b50" d="M 46.5,39.5 C 47.4959,39.4142 48.3292,39.7476 49,40.5C 53.5141,46.3443 58.0141,52.1776 62.5,58C 57.673,64.3249 52.673,70.4916 47.5,76.5C 42.327,70.4916 37.327,64.3249 32.5,58C 37.3687,51.9675 42.0354,45.8008 46.5,39.5 Z"/></g>
<g><path style="opacity:1" fill="#fb3352" d="M 75.5,47.5 C 76.0431,47.56 76.3764,47.8933 76.5,48.5C 75.1666,53.5003 73.8333,58.5003 72.5,63.5C 70.8333,61.5 69.1667,59.5 67.5,57.5C 70.5703,54.4362 73.2369,51.1029 75.5,47.5 Z"/></g>
<g><path style="opacity:1" fill="#fc3652" d="M 18.5,47.5 C 20.767,50.2709 23.267,52.9375 26,55.5C 26.5531,58.8197 25.3865,61.4864 22.5,63.5C 20.9563,58.2054 19.6229,52.8721 18.5,47.5 Z"/></g>
<g><path style="opacity:1" fill="#fb2b4e" d="M 28.5,61.5 C 30.7157,62.2026 32.549,63.5359 34,65.5C 36.5,68.6667 39,71.8333 41.5,75C 35.68,73.0954 30.0133,70.5954 24.5,67.5C 26.2516,65.7541 27.5849,63.7541 28.5,61.5 Z"/></g>
<g><path style="opacity:1" fill="#fb2a4a" d="M 64.5,61.5 C 66.7639,63.0971 68.7639,65.0971 70.5,67.5C 64.9649,70.6077 59.2982,73.1077 53.5,75C 57.3793,70.626 61.0459,66.126 64.5,61.5 Z"/></g>
</svg>
