<?xml version="1.0" encoding="UTF-8"?>
<!DOCTYPE svg PUBLIC "-//W3C//DTD SVG 1.1//EN" "http://www.w3.org/Graphics/SVG/1.1/DTD/svg11.dtd">
<svg xmlns="http://www.w3.org/2000/svg" version="1.1" width="96px" height="96px" style="shape-rendering:geometricPrecision; text-rendering:geometricPrecision; image-rendering:optimizeQuality; fill-rule:evenodd; clip-rule:evenodd" xmlns:xlink="http://www.w3.org/1999/xlink">
<g><path style="opacity:0.976" fill="#010101" d="M 37.5,-0.5 C 44.1667,-0.5 50.8333,-0.5 57.5,-0.5C 77.1667,5.16667 89.8333,17.8333 95.5,37.5C 95.5,44.1667 95.5,50.8333 95.5,57.5C 89.9388,76.7283 77.6055,89.3949 58.5,95.5C 51.5,95.5 44.5,95.5 37.5,95.5C 17.8333,89.8333 5.16667,77.1667 -0.5,57.5C -0.5,50.8333 -0.5,44.1667 -0.5,37.5C 5.193,17.807 17.8597,5.14032 37.5,-0.5 Z"/></g>
<g><path style="opacity:1" fill="#f4f4f4" d="M 33.5,23.5 C 35.451,23.2267 36.951,23.8934 38,25.5C 43.8058,40.4202 49.3058,55.4202 54.5,70.5C 52.0509,71.0574 49.7175,71.0574 47.5,70.5C 41.2567,55.353 35.5901,40.0196 30.5,24.5C 31.791,24.7373 32.791,24.404 33.5,23.5 Z"/></g>
<g><path style="opacity:1" fill="#f3f3f3" d="M 55.5,23.5 C 57.1439,23.2865 58.6439,23.6198 60,24.5C 65.3333,38.5 70.6667,52.5 76,66.5C 76.7805,67.9437 76.6139,69.277 75.5,70.5C 73.5914,71.3482 71.5914,71.6816 69.5,71.5C 64.2372,56.048 58.5706,40.7147 52.5,25.5C 53.6016,24.8243 54.6016,24.1577 55.5,23.5 Z"/></g>
<g><path style="opacity:1" fill="#f1f1f1" d="M 20.5,58.5 C 27.0001,57.4987 29.5001,60.1653 28,66.5C 24.2552,70.5661 20.9218,70.2327 18,65.5C 17.3333,64.1667 17.3333,62.8333 18,61.5C 19.045,60.6266 19.8783,59.6266 20.5,58.5 Z"/></g>
</svg>
