<?xml version="1.0" encoding="UTF-8"?>
<!DOCTYPE svg PUBLIC "-//W3C//DTD SVG 1.1//EN" "http://www.w3.org/Graphics/SVG/1.1/DTD/svg11.dtd">
<svg xmlns="http://www.w3.org/2000/svg" version="1.1" width="96px" height="96px" style="shape-rendering:geometricPrecision; text-rendering:geometricPrecision; image-rendering:optimizeQuality; fill-rule:evenodd; clip-rule:evenodd" xmlns:xlink="http://www.w3.org/1999/xlink">
<g><path style="opacity:1" fill="#f1f7fc" d="M 72.5,20.5 C 71.6771,22.8046 70.3437,24.8046 68.5,26.5C 68.7692,28.4286 68.2692,30.0953 67,31.5C 65.0924,28.6677 64.259,29.001 64.5,32.5C 62.4508,32.2942 62.1175,31.4609 63.5,30C 60.979,27.7802 58.8123,25.2802 57,22.5C 53.1772,25.4721 52.3439,25.1387 54.5,21.5C 51.8366,20.8076 49.3366,19.8076 47,18.5C 46,19.1667 45,19.8333 44,20.5C 42.8382,19.8132 41.6716,19.6466 40.5,20C 38.2317,24.8409 35.565,28.6742 32.5,31.5C 29.9747,31.61 27.308,31.2767 24.5,30.5C 24.6795,28.0459 24.0128,25.8792 22.5,24C 24.4151,18.8284 27.0817,14.1618 30.5,10C 38.7975,6.2289 47.4641,4.56223 56.5,5C 61.7755,7.88792 66.6089,11.3879 71,15.5C 72.0086,17.0249 72.5086,18.6916 72.5,20.5 Z"/></g>
<g><path style="opacity:1" fill="#89c0e8" d="M 64.5,32.5 C 66.0017,36.1593 65.6684,39.6593 63.5,43C 64.4158,43.2784 65.0825,43.7784 65.5,44.5C 65.5,45.1667 65.5,45.8333 65.5,46.5C 62.6126,49.1992 62.9459,51.5325 66.5,53.5C 66.1373,54.1835 65.8039,54.8501 65.5,55.5C 64.5084,55.3284 63.8417,55.6618 63.5,56.5C 62.8333,58.1667 62.1667,59.8333 61.5,61.5C 60.5909,62.3176 60.0909,63.9842 60,66.5C 58.6439,67.3802 57.1439,67.7135 55.5,67.5C 53.6805,66.9373 52.3471,65.7706 51.5,64C 53.5637,60.6702 55.897,57.5035 58.5,54.5C 59.086,54.7093 59.586,55.0426 60,55.5C 60.8289,50.467 60.6623,45.467 59.5,40.5C 58.1495,44.7126 55.8162,48.3793 52.5,51.5C 53.7468,53.0421 53.7468,54.5421 52.5,56C 47.9054,55.7847 43.2388,55.4514 38.5,55C 37.944,54.6174 37.6107,54.1174 37.5,53.5C 39.3904,53.7035 40.8904,53.0368 42,51.5C 43.3117,53.6576 44.9783,53.9909 47,52.5C 48.049,54.1066 49.549,54.7733 51.5,54.5C 51.5,53.5 51.5,52.5 51.5,51.5C 51.9289,47.9756 53.4289,44.9756 56,42.5C 57.028,34.3574 53.528,29.3574 45.5,27.5C 41.4819,27.4929 38.4819,29.1596 36.5,32.5C 34.0118,34.0556 33.0118,36.3889 33.5,39.5C 34.8428,43.838 36.1761,48.1713 37.5,52.5C 36.8745,50.3737 35.5411,48.707 33.5,47.5C 30.6948,49.7937 28.3615,52.4603 26.5,55.5C 26.5,52.1667 26.5,48.8333 26.5,45.5C 26.5,41.1667 26.5,36.8333 26.5,32.5C 27.1814,34.1585 28.0147,35.8251 29,37.5C 29.9768,35.2935 31.1435,33.2935 32.5,31.5C 35.565,28.6742 38.2317,24.8409 40.5,20C 41.6716,19.6466 42.8382,19.8132 44,20.5C 45,19.8333 46,19.1667 47,18.5C 49.3366,19.8076 51.8366,20.8076 54.5,21.5C 52.3439,25.1387 53.1772,25.4721 57,22.5C 58.8123,25.2802 60.979,27.7802 63.5,30C 62.1175,31.4609 62.4508,32.2942 64.5,32.5 Z"/></g>
<g><path style="opacity:1" fill="#03437b" d="M 56.5,24.5 C 58.337,24.6395 58.6704,25.3061 57.5,26.5C 56.7025,26.0431 56.3691,25.3764 56.5,24.5 Z"/></g>
<g><path style="opacity:1" fill="#b2d5f0" d="M 24.5,30.5 C 27.308,31.2767 29.9747,31.61 32.5,31.5C 31.1435,33.2935 29.9768,35.2935 29,37.5C 28.0147,35.8251 27.1814,34.1585 26.5,32.5C 25.1667,32.5 24.5,31.8333 24.5,30.5 Z"/></g>
<g><path style="opacity:1" fill="#a0cfef" d="M 50.5,31.5 C 49.1526,30.9717 47.8193,30.805 46.5,31C 51.1555,33.4821 53.3222,37.3155 53,42.5C 52,43.5 51,44.5 50,45.5C 47.6091,44.3975 47.1091,45.0642 48.5,47.5C 46.0312,48.1681 43.6979,48.8347 41.5,49.5C 40.8485,50.0906 40.1818,50.7573 39.5,51.5C 38.8068,47.7821 37.3068,44.4488 35,41.5C 34.4029,38.3188 34.9029,35.3188 36.5,32.5C 40.4086,29.7991 44.7419,28.9658 49.5,30C 50.056,30.3826 50.3893,30.8826 50.5,31.5 Z"/></g>
<g><path style="opacity:1" fill="#5ea9e3" d="M 68.5,26.5 C 69.7647,27.5145 70.4313,29.0145 70.5,31C 70.3708,32.9806 69.7042,34.6472 68.5,36C 69.0439,37.9588 69.3773,39.7921 69.5,41.5C 68.5637,42.9744 67.2303,43.9744 65.5,44.5C 65.0825,43.7784 64.4158,43.2784 63.5,43C 65.6684,39.6593 66.0017,36.1593 64.5,32.5C 64.259,29.001 65.0924,28.6677 67,31.5C 68.2692,30.0953 68.7692,28.4286 68.5,26.5 Z"/></g>
<g><path style="opacity:1" fill="#174266" d="M 38.5,37.5 C 42.2434,37.4592 42.4101,38.1259 39,39.5C 39.0773,40.7376 38.9106,41.7376 38.5,42.5C 37.3336,40.8327 37.3336,39.166 38.5,37.5 Z"/></g>
<g><path style="opacity:1" fill="#214b70" d="M 51.5,51.5 C 50.8333,51.1667 50.1667,50.8333 49.5,50.5C 49.918,47.5611 51.418,45.2278 54,43.5C 55.407,38.5994 54.2403,34.5994 50.5,31.5C 50.3893,30.8826 50.056,30.3826 49.5,30C 44.7419,28.9658 40.4086,29.7991 36.5,32.5C 38.4819,29.1596 41.4819,27.4929 45.5,27.5C 53.528,29.3574 57.028,34.3574 56,42.5C 53.4289,44.9756 51.9289,47.9756 51.5,51.5 Z"/></g>
<g><path style="opacity:1" fill="#8cb7d8" d="M 72.5,20.5 C 72.6423,30.612 72.6423,40.612 72.5,50.5C 71.7784,50.9175 71.2784,51.5842 71,52.5C 70.6397,50.5789 69.8064,48.9122 68.5,47.5C 69.8532,46.4763 70.5198,45.143 70.5,43.5C 70.6716,42.5084 70.3382,41.8417 69.5,41.5C 69.3773,39.7921 69.0439,37.9588 68.5,36C 69.7042,34.6472 70.3708,32.9806 70.5,31C 70.4313,29.0145 69.7647,27.5145 68.5,26.5C 70.3437,24.8046 71.6771,22.8046 72.5,20.5 Z"/></g>
<g><path style="opacity:1" fill="#3d79aa" d="M 46.5,37.5 C 51.1585,37.0146 52.4919,38.848 50.5,43C 47.8659,43.9248 46.6992,43.0915 47,40.5C 48.1827,41.731 49.3493,41.731 50.5,40.5C 48.6684,39.9432 47.3351,38.9432 46.5,37.5 Z"/></g>
<g><path style="opacity:1" fill="#316d9d" d="M 69.5,41.5 C 70.3382,41.8417 70.6716,42.5084 70.5,43.5C 69.2794,44.0283 68.1127,44.695 67,45.5C 67,47.5 67,49.5 67,51.5C 65.9914,49.9751 65.4914,48.3084 65.5,46.5C 65.5,45.8333 65.5,45.1667 65.5,44.5C 67.2303,43.9744 68.5637,42.9744 69.5,41.5 Z"/></g>
<g><path style="opacity:1" fill="#2e5f87" d="M 43.5,42.5 C 45.8963,43.8275 45.8963,45.4942 43.5,47.5C 42.5661,45.9052 42.5661,44.2385 43.5,42.5 Z"/></g>
<g><path style="opacity:1" fill="#afd6f3" d="M 55.5,67.5 C 54.8826,67.6107 54.3826,67.944 54,68.5C 48.8296,66.9559 43.6629,66.2893 38.5,66.5C 37.3281,65.2947 35.9948,65.2947 34.5,66.5C 33.5276,64.3635 31.8609,63.1968 29.5,63C 31.6145,62.5756 32.4479,61.4089 32,59.5C 31.1627,61.0074 29.9961,61.5074 28.5,61C 29.8486,59.3646 29.6819,57.8646 28,56.5C 26.9125,58.9316 26.4125,58.5983 26.5,55.5C 28.3615,52.4603 30.6948,49.7937 33.5,47.5C 35.5411,48.707 36.8745,50.3737 37.5,52.5C 37.5,52.8333 37.5,53.1667 37.5,53.5C 37.6107,54.1174 37.944,54.6174 38.5,55C 43.2388,55.4514 47.9054,55.7847 52.5,56C 53.7468,54.5421 53.7468,53.0421 52.5,51.5C 55.8162,48.3793 58.1495,44.7126 59.5,40.5C 60.6623,45.467 60.8289,50.467 60,55.5C 59.586,55.0426 59.086,54.7093 58.5,54.5C 55.897,57.5035 53.5637,60.6702 51.5,64C 52.3471,65.7706 53.6805,66.9373 55.5,67.5 Z"/></g>
<g><path style="opacity:1" fill="#c9e7f8" d="M 50.5,31.5 C 54.2403,34.5994 55.407,38.5994 54,43.5C 51.418,45.2278 49.918,47.5611 49.5,50.5C 49.631,51.2389 49.4643,51.9056 49,52.5C 47.3333,49.8333 45.6667,49.8333 44,52.5C 43.7645,50.8807 42.9311,49.8807 41.5,49.5C 43.6979,48.8347 46.0312,48.1681 48.5,47.5C 47.1091,45.0642 47.6091,44.3975 50,45.5C 51,44.5 52,43.5 53,42.5C 53.3222,37.3155 51.1555,33.4821 46.5,31C 47.8193,30.805 49.1526,30.9717 50.5,31.5 Z"/></g>
<g><path style="opacity:1" fill="#5ca0d4" d="M 70.5,43.5 C 70.5198,45.143 69.8532,46.4763 68.5,47.5C 69.8064,48.9122 70.6397,50.5789 71,52.5C 71.2784,51.5842 71.7784,50.9175 72.5,50.5C 72.5442,55.4659 72.2108,60.4659 71.5,65.5C 70.1857,63.1047 70.1857,60.6047 71.5,58C 70.7734,56.6012 70.2734,55.1012 70,53.5C 69.5172,54.448 69.3505,55.448 69.5,56.5C 68.0413,56.5674 66.7079,56.2341 65.5,55.5C 65.8039,54.8501 66.1373,54.1835 66.5,53.5C 62.9459,51.5325 62.6126,49.1992 65.5,46.5C 65.4914,48.3084 65.9914,49.9751 67,51.5C 67,49.5 67,47.5 67,45.5C 68.1127,44.695 69.2794,44.0283 70.5,43.5 Z"/></g>
<g><path style="opacity:1" fill="#2f70a3" d="M 36.5,32.5 C 34.9029,35.3188 34.4029,38.3188 35,41.5C 37.3068,44.4488 38.8068,47.7821 39.5,51.5C 40.1818,50.7573 40.8485,50.0906 41.5,49.5C 42.9311,49.8807 43.7645,50.8807 44,52.5C 45.6667,49.8333 47.3333,49.8333 49,52.5C 49.4643,51.9056 49.631,51.2389 49.5,50.5C 50.1667,50.8333 50.8333,51.1667 51.5,51.5C 51.5,52.5 51.5,53.5 51.5,54.5C 49.549,54.7733 48.049,54.1066 47,52.5C 44.9783,53.9909 43.3117,53.6576 42,51.5C 40.8904,53.0368 39.3904,53.7035 37.5,53.5C 37.5,53.1667 37.5,52.8333 37.5,52.5C 36.1761,48.1713 34.8428,43.838 33.5,39.5C 33.0118,36.3889 34.0118,34.0556 36.5,32.5 Z"/></g>
<g><path style="opacity:1" fill="#4c9cd9" d="M 65.5,55.5 C 66.003,58.8458 66.6697,62.1792 67.5,65.5C 68.1924,64.9747 68.6924,64.3081 69,63.5C 69.5362,65.6151 68.7029,66.9484 66.5,67.5C 65.4549,66.1224 64.1216,65.1224 62.5,64.5C 62.6583,62.1789 63.6583,60.3455 65.5,59C 64.244,58.5831 63.5774,57.7498 63.5,56.5C 63.8417,55.6618 64.5084,55.3284 65.5,55.5 Z"/></g>
<g><path style="opacity:0.41" fill="#0b2e4f" d="M 25.5,63.5 C 26.3382,63.8417 26.6716,64.5084 26.5,65.5C 26.6308,68.3667 25.2974,70.0334 22.5,70.5C 24.8504,68.7867 25.8504,66.4534 25.5,63.5 Z"/></g>
<g><path style="opacity:1" fill="#528ebd" d="M 26.5,45.5 C 26.5,48.8333 26.5,52.1667 26.5,55.5C 26.4125,58.5983 26.9125,58.9316 28,56.5C 29.6819,57.8646 29.8486,59.3646 28.5,61C 29.9961,61.5074 31.1627,61.0074 32,59.5C 32.4479,61.4089 31.6145,62.5756 29.5,63C 31.8609,63.1968 33.5276,64.3635 34.5,66.5C 35.9948,65.2947 37.3281,65.2947 38.5,66.5C 37.6906,67.4687 36.6906,68.3021 35.5,69C 36.8333,69.3333 38.1667,69.6667 39.5,70C 37.4971,70.3345 35.8304,71.1679 34.5,72.5C 31.6841,71.4146 29.0174,70.7479 26.5,70.5C 26.6107,69.8826 26.944,69.3826 27.5,69C 29.5,68.6667 31.5,68.3333 33.5,68C 31.0881,68.0562 28.7548,67.2229 26.5,65.5C 26.6716,64.5084 26.3382,63.8417 25.5,63.5C 25.1771,57.31 25.5104,51.31 26.5,45.5 Z"/></g>
<g><path style="opacity:1" fill="#407aad" d="M 61.5,61.5 C 61.8134,64.2469 61.48,66.9135 60.5,69.5C 58.6639,68.9724 56.9972,68.3058 55.5,67.5C 57.1439,67.7135 58.6439,67.3802 60,66.5C 60.0909,63.9842 60.5909,62.3176 61.5,61.5 Z"/></g>
<g><path style="opacity:1" fill="#abddf7" d="M 26.5,65.5 C 28.7548,67.2229 31.0881,68.0562 33.5,68C 31.5,68.3333 29.5,68.6667 27.5,69C 26.944,69.3826 26.6107,69.8826 26.5,70.5C 25.1986,71.64 24.0319,72.9733 23,74.5C 22.5172,73.552 22.3505,72.552 22.5,71.5C 22.5,71.1667 22.5,70.8333 22.5,70.5C 25.2974,70.0334 26.6308,68.3667 26.5,65.5 Z"/></g>
<g><path style="opacity:1" fill="#1a3c5e" d="M 71.5,72.5 C 69.9236,73.1429 68.5903,74.1429 67.5,75.5C 66.8333,75.5 66.1667,75.5 65.5,75.5C 66.6874,73.0246 68.6874,72.0246 71.5,72.5 Z"/></g>
<g><path style="opacity:0.694" fill="#091a2a" d="M 22.5,70.5 C 22.5,70.8333 22.5,71.1667 22.5,71.5C 21.2134,75.0649 21.2134,78.7316 22.5,82.5C 21.2057,80.9522 20.5391,78.9522 20.5,76.5C 20.5391,74.0478 21.2057,72.0478 22.5,70.5 Z"/></g>
<g><path style="opacity:1" fill="#478abd" d="M 73.5,68.5 C 74.6433,71.9758 74.8099,75.6425 74,79.5C 73.3292,80.2524 72.4959,80.5858 71.5,80.5C 71.6107,79.8826 71.944,79.3826 72.5,79C 71.3333,78.5 70.5,77.6667 70,76.5C 67.5528,77.9964 66.7194,77.6631 67.5,75.5C 68.5903,74.1429 69.9236,73.1429 71.5,72.5C 71.4346,72.0618 71.6012,71.7284 72,71.5C 72.3333,72.1667 72.6667,72.8333 73,73.5C 73.4935,71.8659 73.6602,70.1992 73.5,68.5 Z"/></g>
<g><path style="opacity:1" fill="#77b3df" d="M 26.5,70.5 C 29.0174,70.7479 31.6841,71.4146 34.5,72.5C 36.7529,73.2103 39.5862,74.2103 43,75.5C 43.6891,74.6433 44.5224,73.9767 45.5,73.5C 49.4452,74.2685 53.4452,74.7685 57.5,75C 56.1354,76.6819 54.6354,76.8486 53,75.5C 52.3333,77.1667 52.3333,78.8333 53,80.5C 53.7247,81.0585 54.5581,81.3918 55.5,81.5C 57.2234,80.4478 58.8901,80.4478 60.5,81.5C 61.4519,79.9547 61.7852,78.288 61.5,76.5C 58.6616,75.1402 59.3282,75.4736 63.5,77.5C 64.1818,76.7573 64.8485,76.0906 65.5,75.5C 66.1667,75.5 66.8333,75.5 67.5,75.5C 66.7194,77.6631 67.5528,77.9964 70,76.5C 70.5,77.6667 71.3333,78.5 72.5,79C 71.944,79.3826 71.6107,79.8826 71.5,80.5C 70.1007,81.8897 68.4341,82.8897 66.5,83.5C 64.9731,83.427 63.9731,84.0937 63.5,85.5C 59.2984,85.8168 55.2984,85.4834 51.5,84.5C 51.5,84.1667 51.5,83.8333 51.5,83.5C 53.5273,83.6621 55.5273,83.4955 57.5,83C 54.2423,82.7883 51.0757,82.2883 48,81.5C 47.4387,82.0219 46.772,82.3552 46,82.5C 41.7012,82.2201 37.7012,81.2201 34,79.5C 32.5913,80.7811 31.0913,81.7811 29.5,82.5C 28.1667,82.5 26.8333,82.5 25.5,82.5C 24.5,82.5 23.5,82.5 22.5,82.5C 21.2134,78.7316 21.2134,75.0649 22.5,71.5C 22.3505,72.552 22.5172,73.552 23,74.5C 24.0319,72.9733 25.1986,71.64 26.5,70.5 Z"/></g>
<g><path style="opacity:1" fill="#93c7ec" d="M 71.5,65.5 C 72.1667,66.5 72.8333,67.5 73.5,68.5C 73.6602,70.1992 73.4935,71.8659 73,73.5C 72.6667,72.8333 72.3333,72.1667 72,71.5C 71.6012,71.7284 71.4346,72.0618 71.5,72.5C 68.6874,72.0246 66.6874,73.0246 65.5,75.5C 64.8485,76.0906 64.1818,76.7573 63.5,77.5C 59.3282,75.4736 58.6616,75.1402 61.5,76.5C 61.7852,78.288 61.4519,79.9547 60.5,81.5C 58.8901,80.4478 57.2234,80.4478 55.5,81.5C 54.5581,81.3918 53.7247,81.0585 53,80.5C 52.3333,78.8333 52.3333,77.1667 53,75.5C 54.6354,76.8486 56.1354,76.6819 57.5,75C 53.4452,74.7685 49.4452,74.2685 45.5,73.5C 44.5224,73.9767 43.6891,74.6433 43,75.5C 39.5862,74.2103 36.7529,73.2103 34.5,72.5C 35.8304,71.1679 37.4971,70.3345 39.5,70C 38.1667,69.6667 36.8333,69.3333 35.5,69C 36.6906,68.3021 37.6906,67.4687 38.5,66.5C 43.6629,66.2893 48.8296,66.9559 54,68.5C 54.3826,67.944 54.8826,67.6107 55.5,67.5C 56.9972,68.3058 58.6639,68.9724 60.5,69.5C 61.48,66.9135 61.8134,64.2469 61.5,61.5C 62.1667,59.8333 62.8333,58.1667 63.5,56.5C 63.5774,57.7498 64.244,58.5831 65.5,59C 63.6583,60.3455 62.6583,62.1789 62.5,64.5C 62.13,68.1859 63.4633,69.1859 66.5,67.5C 68.7029,66.9484 69.5362,65.6151 69,63.5C 68.6924,64.3081 68.1924,64.9747 67.5,65.5C 66.6697,62.1792 66.003,58.8458 65.5,55.5C 66.7079,56.2341 68.0413,56.5674 69.5,56.5C 69.3505,55.448 69.5172,54.448 70,53.5C 70.2734,55.1012 70.7734,56.6012 71.5,58C 70.1857,60.6047 70.1857,63.1047 71.5,65.5 Z"/></g>
<g><path style="opacity:1" fill="#2671ab" d="M 53.5,69.5 C 56.0545,70.388 58.7212,70.7214 61.5,70.5C 61.5,71.5 61.5,72.5 61.5,73.5C 58.3801,72.1403 55.0468,71.3069 51.5,71C 52.4158,70.7216 53.0825,70.2216 53.5,69.5 Z"/></g>
<g><path style="opacity:1" fill="#25496c" d="M 68.5,67.5 C 70.9728,67.6043 71.6394,68.6043 70.5,70.5C 68.5741,69.9394 66.5741,69.7727 64.5,70C 66.0664,69.3918 67.3998,68.5585 68.5,67.5 Z"/></g>
<g><path style="opacity:1" fill="#214f78" d="M 62.5,64.5 C 64.1216,65.1224 65.4549,66.1224 66.5,67.5C 63.4633,69.1859 62.13,68.1859 62.5,64.5 Z"/></g>
<g><path style="opacity:1" fill="#b9e0f7" d="M 51.5,83.5 C 44.1781,82.9625 36.8447,82.6291 29.5,82.5C 31.0913,81.7811 32.5913,80.7811 34,79.5C 37.7012,81.2201 41.7012,82.2201 46,82.5C 46.772,82.3552 47.4387,82.0219 48,81.5C 51.0757,82.2883 54.2423,82.7883 57.5,83C 55.5273,83.4955 53.5273,83.6621 51.5,83.5 Z"/></g>
<g><path style="opacity:0.255" fill="#294866" d="M 25.5,82.5 C 26.8333,82.5 28.1667,82.5 29.5,82.5C 36.8447,82.6291 44.1781,82.9625 51.5,83.5C 51.5,83.8333 51.5,84.1667 51.5,84.5C 42.6526,84.2409 33.9859,83.5742 25.5,82.5 Z"/></g>
<g><path style="opacity:0.133" fill="#184a79" d="M 66.5,83.5 C 66.0269,84.9063 65.0269,85.573 63.5,85.5C 63.9731,84.0937 64.9731,83.427 66.5,83.5 Z"/></g>
</svg>
