<?xml version="1.0" encoding="UTF-8"?>
<!DOCTYPE svg PUBLIC "-//W3C//DTD SVG 1.1//EN" "http://www.w3.org/Graphics/SVG/1.1/DTD/svg11.dtd">
<svg xmlns="http://www.w3.org/2000/svg" version="1.1" width="96px" height="96px" style="shape-rendering:geometricPrecision; text-rendering:geometricPrecision; image-rendering:optimizeQuality; fill-rule:evenodd; clip-rule:evenodd" xmlns:xlink="http://www.w3.org/1999/xlink">
<g><path style="opacity:0.976" fill="#0d2139" d="M 37.5,-0.5 C 44.1667,-0.5 50.8333,-0.5 57.5,-0.5C 62.8815,1.02421 67.8815,3.35754 72.5,6.5C 58.2162,-0.142727 43.5495,-1.14273 28.5,3.5C 31.3448,1.77567 34.3448,0.442336 37.5,-0.5 Z"/></g>
<g><path style="opacity:1" fill="#2a93f4" d="M 72.5,6.5 C 72.9731,7.90632 73.9731,8.57298 75.5,8.5C 78.8333,12.5 82.5,16.1667 86.5,19.5C 86.427,21.0269 87.0937,22.0269 88.5,22.5C 89.3382,22.8417 89.6716,23.5084 89.5,24.5C 89.6596,26.153 90.3263,27.4863 91.5,28.5C 95.4203,41.1371 95.4203,53.8038 91.5,66.5C 90.3263,67.5137 89.6596,68.847 89.5,70.5C 89.6716,71.4916 89.3382,72.1583 88.5,72.5C 87.0937,72.9731 86.427,73.9731 86.5,75.5C 86.5,76.1667 86.1667,76.5 85.5,76.5C 81.8333,79.5 78.5,82.8333 75.5,86.5C 60.6171,95.0639 44.9505,96.7306 28.5,91.5C 26.8185,89.9925 24.8185,88.9925 22.5,88.5C 17.8131,84.1449 13.1464,79.8115 8.5,75.5C 8.57298,73.9731 7.90632,72.9731 6.5,72.5C 5.66175,72.1583 5.32842,71.4916 5.5,70.5C 5.3404,68.847 4.67373,67.5137 3.5,66.5C -0.463155,53.8127 -0.463155,41.1461 3.5,28.5C 4.67373,27.4863 5.3404,26.153 5.5,24.5C 7.36897,22.9663 8.7023,20.9663 9.5,18.5C 12.6306,15.8712 15.6306,13.0379 18.5,10C 22.0085,7.9703 25.3419,5.80364 28.5,3.5C 43.5495,-1.14273 58.2162,-0.142727 72.5,6.5 Z"/></g>
<g><path style="opacity:0.435" fill="#0c1828" d="M 28.5,3.5 C 25.3419,5.80364 22.0085,7.9703 18.5,10C 15.6306,13.0379 12.6306,15.8712 9.5,18.5C 13.7785,10.8872 20.1118,5.88724 28.5,3.5 Z"/></g>
<g><path style="opacity:0.122" fill="#050d15" d="M 72.5,6.5 C 74.0269,6.42702 75.0269,7.09368 75.5,8.5C 73.9731,8.57298 72.9731,7.90632 72.5,6.5 Z"/></g>
<g><path style="opacity:0.012" fill="#0d1523" d="M 75.5,8.5 C 80.1667,11.1667 83.8333,14.8333 86.5,19.5C 82.5,16.1667 78.8333,12.5 75.5,8.5 Z"/></g>
<g><path style="opacity:1" fill="#343c59" d="M 39.5,24.5 C 34.8212,20.0593 31.8212,21.0593 30.5,27.5C 29.0313,24.8976 29.698,22.731 32.5,21C 36.2051,19.6872 38.5385,20.8539 39.5,24.5 Z"/></g>
<g><path style="opacity:1" fill="#353d5a" d="M 64.5,27.5 C 63.1788,21.0593 60.1788,20.0593 55.5,24.5C 57.9739,19.5802 61.1406,19.2469 65,23.5C 65.765,25.0657 65.5983,26.3991 64.5,27.5 Z"/></g>
<g><path style="opacity:0.675" fill="#061119" d="M 86.5,19.5 C 87.9063,19.9731 88.573,20.9731 88.5,22.5C 87.0937,22.0269 86.427,21.0269 86.5,19.5 Z"/></g>
<g><path style="opacity:1" fill="#faf8f7" d="M 39.5,24.5 C 40.5839,27.0041 41.9172,29.3374 43.5,31.5C 43.427,33.0269 44.0937,34.0269 45.5,34.5C 46.8333,39.8333 48.1667,39.8333 49.5,34.5C 50.9063,34.0269 51.573,33.0269 51.5,31.5C 52.3382,31.1583 52.6716,30.4916 52.5,29.5C 53.9063,29.0269 54.573,28.0269 54.5,26.5C 55.3382,26.1583 55.6716,25.4916 55.5,24.5C 60.1788,20.0593 63.1788,21.0593 64.5,27.5C 63.6618,27.8417 63.3284,28.5084 63.5,29.5C 61.7497,30.6594 60.7497,32.326 60.5,34.5C 59.6618,34.8417 59.3284,35.5084 59.5,36.5C 58.0937,36.9731 57.427,37.9731 57.5,39.5C 56.6618,39.8417 56.3284,40.5084 56.5,41.5C 55.9569,41.56 55.6236,41.8933 55.5,42.5C 61.7985,43.4963 68.1318,43.8297 74.5,43.5C 77.0858,46.006 77.0858,48.506 74.5,51C 68.1406,51.1694 61.8072,51.6694 55.5,52.5C 55.6236,53.1067 55.9569,53.44 56.5,53.5C 56.5,53.8333 56.5,54.1667 56.5,54.5C 56.427,56.0269 57.0937,57.0269 58.5,57.5C 58.427,59.0269 59.0937,60.0269 60.5,60.5C 60.6596,62.153 61.3263,63.4863 62.5,64.5C 63.2186,66.7638 63.552,69.0971 63.5,71.5C 63.5,71.8333 63.5,72.1667 63.5,72.5C 62.3052,72.6775 61.1385,73.0109 60,73.5C 58.3566,72.6854 56.8566,71.6854 55.5,70.5C 54.3307,67.4887 52.664,64.822 50.5,62.5C 50.3404,60.847 49.6737,59.5137 48.5,58.5C 47.8333,55.8333 47.1667,55.8333 46.5,58.5C 45.3263,59.5137 44.6596,60.847 44.5,62.5C 42.336,64.822 40.6693,67.4887 39.5,70.5C 38.0937,70.9731 37.427,71.9731 37.5,73.5C 32.6606,74.3234 30.3272,72.3234 30.5,67.5C 32.588,65.6644 33.9213,63.3311 34.5,60.5C 35.9063,60.0269 36.573,59.0269 36.5,57.5C 37.9063,57.0269 38.573,56.0269 38.5,54.5C 39.404,53.791 39.7373,52.791 39.5,51.5C 33.1579,51.6662 26.8246,51.4995 20.5,51C 17.8333,48.6667 17.8333,46.3333 20.5,44C 26.8594,43.8306 33.1928,43.3306 39.5,42.5C 39.3764,41.8933 39.0431,41.56 38.5,41.5C 37.2262,38.2402 35.5595,35.2402 33.5,32.5C 33.573,30.9731 32.9063,29.9731 31.5,29.5C 31.6716,28.5084 31.3382,27.8417 30.5,27.5C 31.8212,21.0593 34.8212,20.0593 39.5,24.5 Z"/></g>
<g><path style="opacity:1" fill="#163c66" d="M 9.5,18.5 C 8.7023,20.9663 7.36897,22.9663 5.5,24.5C 5.8449,21.8021 7.17823,19.8021 9.5,18.5 Z"/></g>
<g><path style="opacity:1" fill="#3d679f" d="M 39.5,24.5 C 40.675,24.281 41.675,24.6143 42.5,25.5C 43.3482,27.4086 43.6816,29.4086 43.5,31.5C 41.9172,29.3374 40.5839,27.0041 39.5,24.5 Z"/></g>
<g><path style="opacity:0.408" fill="#09101d" d="M 5.5,24.5 C 5.3404,26.153 4.67373,27.4863 3.5,28.5C 3.22911,26.6203 3.89578,25.287 5.5,24.5 Z"/></g>
<g><path style="opacity:0.412" fill="#080e1d" d="M 89.5,24.5 C 91.1042,25.287 91.7709,26.6203 91.5,28.5C 90.3263,27.4863 89.6596,26.153 89.5,24.5 Z"/></g>
<g><path style="opacity:1" fill="#43424b" d="M 54.5,26.5 C 54.573,28.0269 53.9063,29.0269 52.5,29.5C 52.427,27.9731 53.0937,26.9731 54.5,26.5 Z"/></g>
<g><path style="opacity:1" fill="#262f49" d="M 31.5,29.5 C 32.9063,29.9731 33.573,30.9731 33.5,32.5C 32.0937,32.0269 31.427,31.0269 31.5,29.5 Z"/></g>
<g><path style="opacity:1" fill="#0e253f" d="M 91.5,28.5 C 93.2243,31.3448 94.5577,34.3448 95.5,37.5C 95.5,44.1667 95.5,50.8333 95.5,57.5C 94.5577,60.6552 93.2243,63.6552 91.5,66.5C 95.4203,53.8038 95.4203,41.1371 91.5,28.5 Z"/></g>
<g><path style="opacity:1" fill="#343647" d="M 43.5,31.5 C 44.9063,31.9731 45.573,32.9731 45.5,34.5C 44.0937,34.0269 43.427,33.0269 43.5,31.5 Z"/></g>
<g><path style="opacity:1" fill="#313444" d="M 51.5,31.5 C 51.573,33.0269 50.9063,34.0269 49.5,34.5C 49.427,32.9731 50.0937,31.9731 51.5,31.5 Z"/></g>
<g><path style="opacity:1" fill="#2d5488" d="M 63.5,29.5 C 63.4077,31.8477 62.4077,33.5144 60.5,34.5C 60.7497,32.326 61.7497,30.6594 63.5,29.5 Z"/></g>
<g><path style="opacity:1" fill="#334069" d="M 45.5,34.5 C 46.8333,35.8333 48.1667,35.8333 49.5,34.5C 48.1667,39.8333 46.8333,39.8333 45.5,34.5 Z"/></g>
<g><path style="opacity:1" fill="#242d4b" d="M 59.5,36.5 C 59.573,38.0269 58.9063,39.0269 57.5,39.5C 57.427,37.9731 58.0937,36.9731 59.5,36.5 Z"/></g>
<g><path style="opacity:1" fill="#464f5c" d="M 38.5,41.5 C 39.0431,41.56 39.3764,41.8933 39.5,42.5C 33.1928,43.3306 26.8594,43.8306 20.5,44C 17.8333,46.3333 17.8333,48.6667 20.5,51C 26.8246,51.4995 33.1579,51.6662 39.5,51.5C 39.7373,52.791 39.404,53.791 38.5,54.5C 32.5788,52.7023 26.2455,51.8689 19.5,52C 16.8333,49 16.8333,46 19.5,43C 26.0133,42.8279 32.3466,42.3279 38.5,41.5 Z"/></g>
<g><path style="opacity:1" fill="#45505c" d="M 56.5,41.5 C 62.5,42.1667 68.5,42.8333 74.5,43.5C 68.1318,43.8297 61.7985,43.4963 55.5,42.5C 55.6236,41.8933 55.9569,41.56 56.5,41.5 Z"/></g>
<g><path style="opacity:0.953" fill="#0c253f" d="M 3.5,28.5 C -0.463155,41.1461 -0.463155,53.8127 3.5,66.5C 1.77567,63.6552 0.442336,60.6552 -0.5,57.5C -0.5,50.8333 -0.5,44.1667 -0.5,37.5C 0.442336,34.3448 1.77567,31.3448 3.5,28.5 Z"/></g>
<g><path style="opacity:1" fill="#444d5c" d="M 74.5,43.5 C 76.8896,43.6848 77.8896,45.0182 77.5,47.5C 77.6102,49.374 76.9436,50.874 75.5,52C 68.9867,52.1721 62.6534,52.6721 56.5,53.5C 55.9569,53.44 55.6236,53.1067 55.5,52.5C 61.8072,51.6694 68.1406,51.1694 74.5,51C 77.0858,48.506 77.0858,46.006 74.5,43.5 Z"/></g>
<g><path style="opacity:1" fill="#5f5757" d="M 38.5,54.5 C 38.573,56.0269 37.9063,57.0269 36.5,57.5C 36.427,55.9731 37.0937,54.9731 38.5,54.5 Z"/></g>
<g><path style="opacity:1" fill="#5e5757" d="M 56.5,54.5 C 57.9063,54.9731 58.573,55.9731 58.5,57.5C 57.0937,57.0269 56.427,56.0269 56.5,54.5 Z"/></g>
<g><path style="opacity:1" fill="#1d1f34" d="M 48.5,58.5 C 47.8333,58.5 47.1667,58.5 46.5,58.5C 47.1667,55.8333 47.8333,55.8333 48.5,58.5 Z"/></g>
<g><path style="opacity:1" fill="#33323f" d="M 36.5,57.5 C 36.573,59.0269 35.9063,60.0269 34.5,60.5C 34.427,58.9731 35.0937,57.9731 36.5,57.5 Z"/></g>
<g><path style="opacity:1" fill="#333240" d="M 58.5,57.5 C 59.9063,57.9731 60.573,58.9731 60.5,60.5C 59.0937,60.0269 58.427,59.0269 58.5,57.5 Z"/></g>
<g><path style="opacity:1" fill="#295fa0" d="M 46.5,58.5 C 47.1667,58.5 47.8333,58.5 48.5,58.5C 49.6737,59.5137 50.3404,60.847 50.5,62.5C 48.5,61.1667 46.5,61.1667 44.5,62.5C 44.6596,60.847 45.3263,59.5137 46.5,58.5 Z"/></g>
<g><path style="opacity:1" fill="#425985" d="M 34.5,60.5 C 33.9213,63.3311 32.588,65.6644 30.5,67.5C 30.5741,64.3413 31.9074,62.0079 34.5,60.5 Z"/></g>
<g><path style="opacity:0.412" fill="#070f1b" d="M 3.5,66.5 C 4.67373,67.5137 5.3404,68.847 5.5,70.5C 3.89578,69.713 3.22911,68.3797 3.5,66.5 Z"/></g>
<g><path style="opacity:1" fill="#32649e" d="M 44.5,62.5 C 44.837,66.5051 43.1703,69.1718 39.5,70.5C 40.6693,67.4887 42.336,64.822 44.5,62.5 Z"/></g>
<g><path style="opacity:1" fill="#31649f" d="M 50.5,62.5 C 52.664,64.822 54.3307,67.4887 55.5,70.5C 51.8297,69.1718 50.163,66.5051 50.5,62.5 Z"/></g>
<g><path style="opacity:0.22" fill="#070e19" d="M 91.5,66.5 C 91.7709,68.3797 91.1042,69.713 89.5,70.5C 89.6596,68.847 90.3263,67.5137 91.5,66.5 Z"/></g>
<g><path style="opacity:1" fill="#7c7573" d="M 62.5,64.5 C 63.9931,65.3121 64.6598,66.6455 64.5,68.5C 64.4805,69.7261 64.1471,70.7261 63.5,71.5C 63.552,69.0971 63.2186,66.7638 62.5,64.5 Z"/></g>
<g><path style="opacity:1" fill="#39384d" d="M 39.5,70.5 C 39.573,72.0269 38.9063,73.0269 37.5,73.5C 37.427,71.9731 38.0937,70.9731 39.5,70.5 Z"/></g>
<g><path style="opacity:0.086" fill="#060c15" d="M 6.5,72.5 C 7.90632,72.9731 8.57298,73.9731 8.5,75.5C 7.09368,75.0269 6.42702,74.0269 6.5,72.5 Z"/></g>
<g><path style="opacity:1" fill="#28395d" d="M 55.5,70.5 C 56.8566,71.6854 58.3566,72.6854 60,73.5C 61.1385,73.0109 62.3052,72.6775 63.5,72.5C 61.9894,74.4411 59.9894,74.9411 57.5,74C 56.1772,73.1841 55.5106,72.0174 55.5,70.5 Z"/></g>
<g><path style="opacity:0.078" fill="#050f16" d="M 88.5,72.5 C 88.573,74.0269 87.9063,75.0269 86.5,75.5C 86.427,73.9731 87.0937,72.9731 88.5,72.5 Z"/></g>
<g><path style="opacity:0.137" fill="#0d1b2f" d="M 8.5,75.5 C 13.1464,79.8115 17.8131,84.1449 22.5,88.5C 16.5724,85.5741 11.9057,81.2408 8.5,75.5 Z"/></g>
<g><path style="opacity:0.388" fill="#0d1420" d="M 85.5,76.5 C 83.1667,80.8333 79.8333,84.1667 75.5,86.5C 78.5,82.8333 81.8333,79.5 85.5,76.5 Z"/></g>
<g><path style="opacity:0.827" fill="#07101d" d="M 22.5,88.5 C 24.8185,88.9925 26.8185,89.9925 28.5,91.5C 25.911,91.539 23.911,90.539 22.5,88.5 Z"/></g>
<g><path style="opacity:0.431" fill="#0d1c30" d="M 75.5,86.5 C 74.4264,87.8846 73.0931,89.0513 71.5,90C 66.8413,92.1579 62.1746,93.9912 57.5,95.5C 50.8333,95.5 44.1667,95.5 37.5,95.5C 34.3448,94.5577 31.3448,93.2243 28.5,91.5C 44.9505,96.7306 60.6171,95.0639 75.5,86.5 Z"/></g>
</svg>
