<?xml version="1.0" encoding="UTF-8"?>
<!DOCTYPE svg PUBLIC "-//W3C//DTD SVG 1.1//EN" "http://www.w3.org/Graphics/SVG/1.1/DTD/svg11.dtd">
<svg xmlns="http://www.w3.org/2000/svg" version="1.1" width="96px" height="96px" style="shape-rendering:geometricPrecision; text-rendering:geometricPrecision; image-rendering:optimizeQuality; fill-rule:evenodd; clip-rule:evenodd" xmlns:xlink="http://www.w3.org/1999/xlink">
<g><path style="opacity:1" fill="#eebe5c" d="M 61.5,16.5 C 57.6742,17.4796 57.6742,18.3129 61.5,19C 62.4506,19.7175 62.6172,20.5509 62,21.5C 60.6124,20.4464 59.1124,20.2797 57.5,21C 55.1209,21.7162 53.1209,22.8828 51.5,24.5C 49.8333,24.5 48.1667,24.5 46.5,24.5C 45.1516,23.8141 43.985,22.8141 43,21.5C 39.5131,23.1636 37.0131,22.1636 35.5,18.5C 39.5225,16.6314 39.1892,15.6314 34.5,15.5C 33.9569,15.44 33.6236,15.1067 33.5,14.5C 36.2991,10.7059 38.7991,11.0393 41,15.5C 42.008,13.741 43.508,12.5743 45.5,12C 49.6889,12.4477 53.8556,12.281 58,11.5C 60.6372,12.1006 61.8039,13.7673 61.5,16.5 Z"/></g>
<g><path style="opacity:0.272" fill="#201a0f" d="M 61.5,16.5 C 61.8039,13.7673 60.6372,12.1006 58,11.5C 53.8556,12.281 49.6889,12.4477 45.5,12C 43.508,12.5743 42.008,13.741 41,15.5C 38.7991,11.0393 36.2991,10.7059 33.5,14.5C 33.6236,15.1067 33.9569,15.44 34.5,15.5C 35.1098,16.391 35.4431,17.391 35.5,18.5C 37.0131,22.1636 39.5131,23.1636 43,21.5C 43.985,22.8141 45.1516,23.8141 46.5,24.5C 44.5992,24.5668 42.7659,24.2335 41,23.5C 39.9701,23.8361 39.4701,24.5028 39.5,25.5C 38.0724,23.5556 36.2391,21.8889 34,20.5C 33.3828,19.5509 33.5494,18.7175 34.5,18C 30.4776,15.3341 30.8109,13.0008 35.5,11C 37.6687,10.5706 39.6687,11.0706 41.5,12.5C 45.5437,8.89484 49.877,8.56151 54.5,11.5C 58.6109,9.64179 61.6109,10.6418 63.5,14.5C 63.2528,15.7133 62.5862,16.38 61.5,16.5 Z"/></g>
<g><path style="opacity:1" fill="#694a1d" d="M 50.5,19.5 C 46.885,21.0053 43.5517,20.3386 40.5,17.5C 42.0777,16.7022 43.7444,16.2022 45.5,16C 44.5494,15.2825 44.3828,14.4491 45,13.5C 45.9234,14.7588 46.7568,16.0921 47.5,17.5C 50.8525,15.0238 51.1859,15.5238 48.5,19C 49.0944,19.4643 49.7611,19.631 50.5,19.5 Z"/></g>
<g><path style="opacity:1" fill="#8d6729" d="M 34.5,15.5 C 39.1892,15.6314 39.5225,16.6314 35.5,18.5C 35.4431,17.391 35.1098,16.391 34.5,15.5 Z"/></g>
<g><path style="opacity:1" fill="#775b2d" d="M 50.5,19.5 C 52.2014,17.5767 54.2014,17.2433 56.5,18.5C 54.604,19.4656 52.604,19.7989 50.5,19.5 Z"/></g>
<g><path style="opacity:0.051" fill="#2c2212" d="M 61.5,16.5 C 62.6854,17.8566 63.6854,19.3566 64.5,21C 63.5179,23.0092 62.1846,23.5092 60.5,22.5C 58.9713,23.7629 57.3046,24.7629 55.5,25.5C 55.6309,24.6236 55.2975,23.9569 54.5,23.5C 53.5832,24.1272 52.5832,24.4606 51.5,24.5C 53.1209,22.8828 55.1209,21.7162 57.5,21C 59.1124,20.2797 60.6124,20.4464 62,21.5C 62.6172,20.5509 62.4506,19.7175 61.5,19C 57.6742,18.3129 57.6742,17.4796 61.5,16.5 Z"/></g>
<g><path style="opacity:1" fill="#946825" d="M 46.5,24.5 C 48.1667,24.5 49.8333,24.5 51.5,24.5C 51.5858,25.4959 51.2524,26.3292 50.5,27C 49.1667,27.3333 47.8333,27.6667 46.5,28C 48.4727,28.4955 50.4727,28.6621 52.5,28.5C 48.7166,30.0065 45.0499,29.6732 41.5,27.5C 40.8333,26.8333 40.1667,26.1667 39.5,25.5C 39.4701,24.5028 39.9701,23.8361 41,23.5C 42.7659,24.2335 44.5992,24.5668 46.5,24.5 Z"/></g>
<g><path style="opacity:1" fill="#e7af4b" d="M 55.5,25.5 C 54.8333,26.1667 54.1667,26.8333 53.5,27.5C 52.8333,27.5 52.5,27.8333 52.5,28.5C 50.4727,28.6621 48.4727,28.4955 46.5,28C 47.8333,27.6667 49.1667,27.3333 50.5,27C 51.2524,26.3292 51.5858,25.4959 51.5,24.5C 52.5832,24.4606 53.5832,24.1272 54.5,23.5C 55.2975,23.9569 55.6309,24.6236 55.5,25.5 Z"/></g>
<g><path style="opacity:1" fill="#2f1207" d="M 41.5,27.5 C 45.0499,29.6732 48.7166,30.0065 52.5,28.5C 52.5,27.8333 52.8333,27.5 53.5,27.5C 54.1098,28.391 54.4431,29.391 54.5,30.5C 54.0269,31.9063 53.0269,32.573 51.5,32.5C 46.8986,32.9449 42.5653,32.2783 38.5,30.5C 39.6935,29.7281 40.6935,28.7281 41.5,27.5 Z"/></g>
<g><path style="opacity:1" fill="#f9c162" d="M 54.5,30.5 C 56.5529,30.4021 58.2196,31.0687 59.5,32.5C 57.4951,33.0388 55.4951,33.7055 53.5,34.5C 55.5,36.5 57.5,38.5 59.5,40.5C 60.1667,39.5 60.8333,38.5 61.5,37.5C 62.1924,38.0253 62.6924,38.6919 63,39.5C 63.3333,39.1667 63.6667,38.8333 64,38.5C 66.4493,41.8868 65.9493,43.3868 62.5,43C 63.056,43.3826 63.3893,43.8826 63.5,44.5C 60.9407,44.1984 58.6074,44.5318 56.5,45.5C 54.5,45.5 52.5,45.5 50.5,45.5C 47.8844,42.5454 45.2177,39.5454 42.5,36.5C 45.0756,35.1166 44.7423,34.2833 41.5,34C 45.0252,33.8213 48.3586,33.3213 51.5,32.5C 53.0269,32.573 54.0269,31.9063 54.5,30.5 Z"/></g>
<g><path style="opacity:1" fill="#e7a843" d="M 38.5,30.5 C 42.5653,32.2783 46.8986,32.9449 51.5,32.5C 48.3586,33.3213 45.0252,33.8213 41.5,34C 44.7423,34.2833 45.0756,35.1166 42.5,36.5C 45.2177,39.5454 47.8844,42.5454 50.5,45.5C 43.8198,45.3877 37.1531,45.0543 30.5,44.5C 30.5,45.5 30.5,46.5 30.5,47.5C 30.1667,47.5 29.8333,47.5 29.5,47.5C 28.8347,49.6979 28.1681,52.0312 27.5,54.5C 27.1086,50.6098 27.7753,46.6098 29.5,42.5C 29.3764,41.8933 29.0431,41.56 28.5,41.5C 29.7611,35.9073 33.0945,32.2406 38.5,30.5 Z"/></g>
<g><path style="opacity:1" fill="#4e1708" d="M 50.5,45.5 C 52.5,45.5 54.5,45.5 56.5,45.5C 49.0558,47.7998 41.3892,48.1331 33.5,46.5C 32.6851,47.4293 31.8518,48.4293 31,49.5C 30.5357,48.9056 30.369,48.2389 30.5,47.5C 30.5,46.5 30.5,45.5 30.5,44.5C 37.1531,45.0543 43.8198,45.3877 50.5,45.5 Z"/></g>
<g><path style="opacity:1" fill="#873115" d="M 56.5,45.5 C 59.1667,45.5 61.8333,45.5 64.5,45.5C 64.5,50.1667 64.5,54.8333 64.5,59.5C 61.8127,59.3359 59.146,59.5026 56.5,60C 59.4816,60.498 62.4816,60.6646 65.5,60.5C 56.3094,62.5275 46.9761,62.8609 37.5,61.5C 37.5,61.1667 37.5,60.8333 37.5,60.5C 36.2825,59.8386 34.9492,59.1719 33.5,58.5C 36.4003,53.1395 35.7336,52.4729 31.5,56.5C 32.5896,57.6086 32.5896,58.6086 31.5,59.5C 31.1667,58.3333 30.8333,57.1667 30.5,56C 31.0911,53.761 31.7578,51.5943 32.5,49.5C 33.552,49.6495 34.552,49.4828 35.5,49C 34.244,48.5831 33.5774,47.7498 33.5,46.5C 41.3892,48.1331 49.0558,47.7998 56.5,45.5 Z"/></g>
<g><path style="opacity:1" fill="#2b0d06" d="M 33.5,46.5 C 33.5774,47.7498 34.244,48.5831 35.5,49C 34.552,49.4828 33.552,49.6495 32.5,49.5C 31.7578,51.5943 31.0911,53.761 30.5,56C 30.8333,57.1667 31.1667,58.3333 31.5,59.5C 32.5896,58.6086 32.5896,57.6086 31.5,56.5C 35.7336,52.4729 36.4003,53.1395 33.5,58.5C 34.9492,59.1719 36.2825,59.8386 37.5,60.5C 34.8333,60.5 32.1667,60.5 29.5,60.5C 29.5,56.1667 29.5,51.8333 29.5,47.5C 29.8333,47.5 30.1667,47.5 30.5,47.5C 30.369,48.2389 30.5357,48.9056 31,49.5C 31.8518,48.4293 32.6851,47.4293 33.5,46.5 Z"/></g>
<g><path style="opacity:1" fill="#190401" d="M 62.5,49.5 C 60.631,51.6353 59.9644,54.3019 60.5,57.5C 59.7948,54.7719 59.1281,51.9386 58.5,49C 60.0657,48.235 61.3991,48.4017 62.5,49.5 Z"/></g>
<g><path style="opacity:1" fill="#c8894d" d="M 38.5,49.5 C 40.3435,51.2789 41.0102,53.6122 40.5,56.5C 38.6565,54.7211 37.9898,52.3878 38.5,49.5 Z"/></g>
<g><path style="opacity:1" fill="#61321b" d="M 49.5,50.5 C 49.5987,53.2372 49.2653,55.9039 48.5,58.5C 45.2657,58.7634 43.9324,57.2634 44.5,54C 44.209,49.8326 45.8756,48.6659 49.5,50.5 Z"/></g>
<g><path style="opacity:1" fill="#c58a4d" d="M 62.5,49.5 C 63.0356,52.6981 62.369,55.3647 60.5,57.5C 59.9644,54.3019 60.631,51.6353 62.5,49.5 Z"/></g>
<g><path style="opacity:0.807" fill="#0a0502" d="M 39.5,25.5 C 40.1667,26.1667 40.8333,26.8333 41.5,27.5C 40.6935,28.7281 39.6935,29.7281 38.5,30.5C 33.0945,32.2406 29.7611,35.9073 28.5,41.5C 21.0097,52.0782 20.6764,62.9116 27.5,74C 26.4528,75.5777 26.4528,77.0777 27.5,78.5C 29.4159,79.2483 31.4159,79.2483 33.5,78.5C 35.2774,79.6005 37.2774,80.4338 39.5,81C 45.1569,81.4994 50.8236,81.6661 56.5,81.5C 50.6812,82.6525 44.6812,82.8192 38.5,82C 34.845,80.1981 31.1784,79.5314 27.5,80C 24.4489,78.6395 23.7823,76.4728 25.5,73.5C 24.1667,71.5 22.8333,69.5 21.5,67.5C 21.5237,61.6794 21.5237,55.8461 21.5,50C 23.9426,45.6288 26.4426,40.7954 29,35.5C 31.4636,32.2017 34.6303,29.8684 38.5,28.5C 39.3857,27.675 39.719,26.675 39.5,25.5 Z"/></g>
<g><path style="opacity:1" fill="#eaaf64" d="M 49.5,50.5 C 50.1524,51.4486 50.4857,52.6153 50.5,54C 50.6932,56.0081 50.0265,57.5081 48.5,58.5C 49.2653,55.9039 49.5987,53.2372 49.5,50.5 Z"/></g>
<g><path style="opacity:1" fill="#470d05" d="M 56.5,45.5 C 58.6074,44.5318 60.9407,44.1984 63.5,44.5C 64.1667,44.5 64.8333,44.5 65.5,44.5C 65.5,49.8333 65.5,55.1667 65.5,60.5C 62.4816,60.6646 59.4816,60.498 56.5,60C 59.146,59.5026 61.8127,59.3359 64.5,59.5C 64.5,54.8333 64.5,50.1667 64.5,45.5C 61.8333,45.5 59.1667,45.5 56.5,45.5 Z"/></g>
<g><path style="opacity:0.807" fill="#120e07" d="M 55.5,25.5 C 55.281,26.675 55.6143,27.675 56.5,28.5C 60.3697,29.8684 63.5364,32.2017 66,35.5C 68.5574,40.7954 71.0574,45.6288 73.5,50C 73.4763,55.8461 73.4763,61.6794 73.5,67.5C 72.4378,68.7701 71.4378,69.9367 70.5,71C 71.6341,72.016 71.3008,72.6827 69.5,73C 71.8111,75.2056 71.8111,77.039 69.5,78.5C 68.8333,76.5 68.1667,74.5 67.5,72.5C 68.1667,72.5 68.5,72.1667 68.5,71.5C 70.0075,69.8185 71.0075,67.8185 71.5,65.5C 72.8223,60.1765 72.6557,54.8431 71,49.5C 68.6667,44.8333 66.3333,40.1667 64,35.5C 62.871,33.8588 61.371,32.8588 59.5,32.5C 58.2196,31.0687 56.5529,30.4021 54.5,30.5C 54.4431,29.391 54.1098,28.391 53.5,27.5C 54.1667,26.8333 54.8333,26.1667 55.5,25.5 Z"/></g>
<g><path style="opacity:1" fill="#250f07" d="M 38.5,49.5 C 37.9898,52.3878 38.6565,54.7211 40.5,56.5C 43.0828,57.0915 43.0828,57.7582 40.5,58.5C 39.5581,58.3918 38.7247,58.0585 38,57.5C 37.1993,54.633 37.3659,51.9664 38.5,49.5 Z"/></g>
<g><path style="opacity:1" fill="#3f2b1b" d="M 52.5,50.5 C 55.568,49.0431 56.9013,50.2097 56.5,54C 56.4554,56.2198 55.4554,57.7198 53.5,58.5C 51.976,57.4729 51.3094,55.9729 51.5,54C 51.5143,52.6153 51.8476,51.4486 52.5,50.5 Z"/></g>
<g><path style="opacity:1" fill="#ba5829" d="M 52.5,50.5 C 53.6935,50.9704 54.3601,51.9704 54.5,53.5C 54.1667,54.5 53.8333,55.5 53.5,56.5C 52.5344,54.604 52.2011,52.604 52.5,50.5 Z"/></g>
<g><path style="opacity:1" fill="#f9cc71" d="M 59.5,32.5 C 61.371,32.8588 62.871,33.8588 64,35.5C 66.3333,40.1667 68.6667,44.8333 71,49.5C 72.6557,54.8431 72.8223,60.1765 71.5,65.5C 68.6118,65.7804 67.1118,64.4471 67,61.5C 66.8272,55.6518 66.3272,49.9851 65.5,44.5C 64.8333,44.5 64.1667,44.5 63.5,44.5C 63.3893,43.8826 63.056,43.3826 62.5,43C 65.9493,43.3868 66.4493,41.8868 64,38.5C 63.6667,38.8333 63.3333,39.1667 63,39.5C 62.6924,38.6919 62.1924,38.0253 61.5,37.5C 60.8333,38.5 60.1667,39.5 59.5,40.5C 57.5,38.5 55.5,36.5 53.5,34.5C 55.4951,33.7055 57.4951,33.0388 59.5,32.5 Z"/></g>
<g><path style="opacity:1" fill="#ebaf49" d="M 65.5,44.5 C 66.3272,49.9851 66.8272,55.6518 67,61.5C 67.1118,64.4471 68.6118,65.7804 71.5,65.5C 71.0075,67.8185 70.0075,69.8185 68.5,71.5C 66.568,70.3466 64.568,70.3466 62.5,71.5C 61.2588,70.9628 60.0921,70.2961 59,69.5C 52.7236,72.1952 46.5569,72.0286 40.5,69C 38.403,64.4419 34.7363,62.2753 29.5,62.5C 31.9479,61.5269 34.6146,61.1936 37.5,61.5C 46.9761,62.8609 56.3094,62.5275 65.5,60.5C 65.5,55.1667 65.5,49.8333 65.5,44.5 Z"/></g>
<g><path style="opacity:1" fill="#9a6924" d="M 28.5,41.5 C 29.0431,41.56 29.3764,41.8933 29.5,42.5C 27.7753,46.6098 27.1086,50.6098 27.5,54.5C 28.1681,52.0312 28.8347,49.6979 29.5,47.5C 29.5,51.8333 29.5,56.1667 29.5,60.5C 32.1667,60.5 34.8333,60.5 37.5,60.5C 37.5,60.8333 37.5,61.1667 37.5,61.5C 34.6146,61.1936 31.9479,61.5269 29.5,62.5C 29.3505,63.552 29.5172,64.552 30,65.5C 31.3509,65.4456 32.5176,65.9456 33.5,67C 32.8132,68.1618 32.6466,69.3284 33,70.5C 35.6971,72.6997 38.1971,75.033 40.5,77.5C 38.0504,77.298 35.717,77.6314 33.5,78.5C 31.4159,79.2483 29.4159,79.2483 27.5,78.5C 26.4528,77.0777 26.4528,75.5777 27.5,74C 20.6764,62.9116 21.0097,52.0782 28.5,41.5 Z"/></g>
<g><path style="opacity:1" fill="#c7892e" d="M 29.5,62.5 C 34.7363,62.2753 38.403,64.4419 40.5,69C 46.5569,72.0286 52.7236,72.1952 59,69.5C 60.0921,70.2961 61.2588,70.9628 62.5,71.5C 64.568,70.3466 66.568,70.3466 68.5,71.5C 68.5,72.1667 68.1667,72.5 67.5,72.5C 65.5641,73.4295 63.8974,74.7628 62.5,76.5C 55.1968,77.4973 47.8635,77.8306 40.5,77.5C 38.1971,75.033 35.6971,72.6997 33,70.5C 32.6466,69.3284 32.8132,68.1618 33.5,67C 32.5176,65.9456 31.3509,65.4456 30,65.5C 29.5172,64.552 29.3505,63.552 29.5,62.5 Z"/></g>
<g><path style="opacity:1" fill="#7e571d" d="M 67.5,72.5 C 68.1667,74.5 68.8333,76.5 69.5,78.5C 67.5648,79.1495 65.5648,79.4828 63.5,79.5C 63.44,78.9569 63.1067,78.6236 62.5,78.5C 60.22,79.1359 58.22,80.1359 56.5,81.5C 50.8236,81.6661 45.1569,81.4994 39.5,81C 37.2774,80.4338 35.2774,79.6005 33.5,78.5C 35.717,77.6314 38.0504,77.298 40.5,77.5C 47.8635,77.8306 55.1968,77.4973 62.5,76.5C 63.8974,74.7628 65.5641,73.4295 67.5,72.5 Z"/></g>
<g><path style="opacity:0.481" fill="#080401" d="M 63.5,79.5 C 61.2986,80.5664 58.9653,81.233 56.5,81.5C 58.22,80.1359 60.22,79.1359 62.5,78.5C 63.1067,78.6236 63.44,78.9569 63.5,79.5 Z"/></g>
<g><path style="opacity:0.458" fill="#000000" d="M 69.5,78.5 C 68.8658,79.9468 67.6991,80.6134 66,80.5C 64.9302,80.472 64.0968,80.1386 63.5,79.5C 65.5648,79.4828 67.5648,79.1495 69.5,78.5 Z"/></g>
</svg>
