<?xml version="1.0" encoding="UTF-8"?>
<!DOCTYPE svg PUBLIC "-//W3C//DTD SVG 1.1//EN" "http://www.w3.org/Graphics/SVG/1.1/DTD/svg11.dtd">
<svg xmlns="http://www.w3.org/2000/svg" version="1.1" width="96px" height="54px" style="shape-rendering:geometricPrecision; text-rendering:geometricPrecision; image-rendering:optimizeQuality; fill-rule:evenodd; clip-rule:evenodd" xmlns:xlink="http://www.w3.org/1999/xlink">
<g><path style="opacity:1" fill="#e25457" d="M 49.5,8.5 C 46.5071,7.86539 43.5071,7.69872 40.5,8C 40.8333,8.33333 41.1667,8.66667 41.5,9C 38.5525,13.2373 35.2191,13.5706 31.5,10C 28.854,9.50258 26.1873,9.33591 23.5,9.5C 23.5,9.16667 23.5,8.83333 23.5,8.5C 32.2929,3.22845 40.9596,3.22845 49.5,8.5 Z"/></g>
<g><path style="opacity:1" fill="#df3c3e" d="M 49.5,8.5 C 51.371,8.85883 52.871,9.85883 54,11.5C 56.7354,16.2991 58.9021,21.2991 60.5,26.5C 58.8333,26.5 57.1667,26.5 55.5,26.5C 49.2498,25.7931 42.9165,25.4598 36.5,25.5C 36.3418,22.4545 37.0085,19.6212 38.5,17C 34.6486,11.3902 29.8153,10.2235 24,13.5C 23.7216,12.5842 23.2216,11.9175 22.5,11.5C 22.8333,10.8333 23.1667,10.1667 23.5,9.5C 26.1873,9.33591 28.854,9.50258 31.5,10C 35.2191,13.5706 38.5525,13.2373 41.5,9C 41.1667,8.66667 40.8333,8.33333 40.5,8C 43.5071,7.69872 46.5071,7.86539 49.5,8.5 Z"/></g>
<g><path style="opacity:1" fill="#cf3033" d="M 22.5,11.5 C 23.2216,11.9175 23.7216,12.5842 24,13.5C 29.8153,10.2235 34.6486,11.3902 38.5,17C 37.0085,19.6212 36.3418,22.4545 36.5,25.5C 42.9165,25.4598 49.2498,25.7931 55.5,26.5C 48.671,26.5706 42.0043,27.5706 35.5,29.5C 30.887,30.1524 26.887,31.8191 23.5,34.5C 22.8333,34.1667 22.1667,33.8333 21.5,33.5C 20.5572,26.8558 20.3905,20.1892 21,13.5C 21.2784,12.5842 21.7784,11.9175 22.5,11.5 Z"/></g>
<g><path style="opacity:1" fill="#d5948b" d="M 23.5,8.5 C 23.5,8.83333 23.5,9.16667 23.5,9.5C 23.1667,10.1667 22.8333,10.8333 22.5,11.5C 21.7784,11.9175 21.2784,12.5842 21,13.5C 20.3905,20.1892 20.5572,26.8558 21.5,33.5C 16.772,34.6981 12.4387,36.6981 8.5,39.5C 8.65573,31.9071 9.98906,24.5737 12.5,17.5C 15.2705,13.3954 18.9372,10.3954 23.5,8.5 Z"/></g>
<g><path style="opacity:1" fill="#ec2425" d="M 55.5,26.5 C 57.1667,26.5 58.8333,26.5 60.5,26.5C 69.4322,27.4206 78.0989,29.0873 86.5,31.5C 81.9521,32.5613 77.9521,34.5613 74.5,37.5C 72.9731,37.427 71.9731,38.0937 71.5,39.5C 69.7839,39.6287 68.1172,39.962 66.5,40.5C 65.2617,40.19 65.2617,39.69 66.5,39C 56.1074,35.6577 45.774,32.491 35.5,29.5C 42.0043,27.5706 48.671,26.5706 55.5,26.5 Z"/></g>
<g><path style="opacity:1" fill="#e21e1f" d="M 35.5,29.5 C 45.774,32.491 56.1074,35.6577 66.5,39C 65.2617,39.69 65.2617,40.19 66.5,40.5C 66.5,40.8333 66.5,41.1667 66.5,41.5C 62.9231,42.579 59.2564,43.2457 55.5,43.5C 49.7336,42.5776 44.067,41.2443 38.5,39.5C 33.6589,37.6641 28.6589,35.9974 23.5,34.5C 26.887,31.8191 30.887,30.1524 35.5,29.5 Z"/></g>
<g><path style="opacity:1" fill="#8d6560" d="M 12.5,17.5 C 9.98906,24.5737 8.65573,31.9071 8.5,39.5C 8.5,40.1667 8.5,40.8333 8.5,41.5C 7.16185,34.5325 7.66185,27.5325 10,20.5C 10.3768,19.0577 11.2101,18.0577 12.5,17.5 Z"/></g>
<g><path style="opacity:1" fill="#805732" d="M 86.5,31.5 C 87.6491,31.7911 88.3158,32.6244 88.5,34C 87.4893,36.6857 85.4893,38.1857 82.5,38.5C 79.8853,37.7308 77.2186,37.3975 74.5,37.5C 77.9521,34.5613 81.9521,32.5613 86.5,31.5 Z"/></g>
<g><path style="opacity:1" fill="#841512" d="M 21.5,33.5 C 22.1667,33.8333 22.8333,34.1667 23.5,34.5C 28.6589,35.9974 33.6589,37.6641 38.5,39.5C 37.8333,39.5 37.1667,39.5 36.5,39.5C 28.5078,40.4987 20.5078,41.4987 12.5,42.5C 11.0755,42.3767 9.74213,42.0434 8.5,41.5C 8.5,40.8333 8.5,40.1667 8.5,39.5C 12.4387,36.6981 16.772,34.6981 21.5,33.5 Z"/></g>
<g><path style="opacity:0.024" fill="#677115" d="M 74.5,37.5 C 74.0269,38.9063 73.0269,39.573 71.5,39.5C 71.9731,38.0937 72.9731,37.427 74.5,37.5 Z"/></g>
<g><path style="opacity:0.835" fill="#683e1b" d="M 36.5,40.5 C 36.5,40.1667 36.5,39.8333 36.5,39.5C 37.1667,39.5 37.8333,39.5 38.5,39.5C 44.067,41.2443 49.7336,42.5776 55.5,43.5C 59.2564,43.2457 62.9231,42.579 66.5,41.5C 63.0152,43.6205 59.1819,44.9538 55,45.5C 48.9129,43.6029 42.7463,41.9362 36.5,40.5 Z"/></g>
<g><path style="opacity:0.431" fill="#504419" d="M 71.5,39.5 C 71.5,39.8333 71.5,40.1667 71.5,40.5C 70.5084,40.3284 69.8417,40.6618 69.5,41.5C 68.5,41.5 67.5,41.5 66.5,41.5C 66.5,41.1667 66.5,40.8333 66.5,40.5C 68.1172,39.962 69.7839,39.6287 71.5,39.5 Z"/></g>
<g><path style="opacity:0.004" fill="#443a24" d="M 36.5,40.5 C 35.8333,41.1667 35.8333,41.1667 36.5,40.5 Z"/></g>
<g><path style="opacity:0.004" fill="#393602" d="M 71.5,40.5 C 72.8333,41.1667 72.8333,41.1667 71.5,40.5 Z"/></g>
<g><path style="opacity:0.004" fill="#050000" d="M 26.5,41.5 C 27.8333,42.1667 27.8333,42.1667 26.5,41.5 Z"/></g>
<g><path style="opacity:0.004" fill="#5f2c1c" d="M 69.5,41.5 C 70.8333,42.1667 70.8333,42.1667 69.5,41.5 Z"/></g>
</svg>
