<?xml version="1.0" encoding="UTF-8"?>
<!DOCTYPE svg PUBLIC "-//W3C//DTD SVG 1.1//EN" "http://www.w3.org/Graphics/SVG/1.1/DTD/svg11.dtd">
<svg xmlns="http://www.w3.org/2000/svg" version="1.1" width="96px" height="96px" style="shape-rendering:geometricPrecision; text-rendering:geometricPrecision; image-rendering:optimizeQuality; fill-rule:evenodd; clip-rule:evenodd" xmlns:xlink="http://www.w3.org/1999/xlink">
<g><path style="opacity:0.923" fill="#effafc" d="M 46.5,-0.5 C 47.1667,-0.5 47.8333,-0.5 48.5,-0.5C 48.2627,0.791047 48.596,1.79105 49.5,2.5C 48.635,11.2863 47.9684,19.9529 47.5,28.5C 48.2427,29.1818 48.9094,29.8485 49.5,30.5C 48.0693,32.1887 47.2359,34.1887 47,36.5C 45.7978,34.3225 45.2978,31.9892 45.5,29.5C 45.2176,20.8939 45.5509,12.2272 46.5,3.5C 46.5,2.16667 46.5,0.833333 46.5,-0.5 Z"/></g>
<g><path style="opacity:0.906" fill="#28d6fd" d="M 51.5,28.5 C 50.6618,28.8417 50.3284,29.5084 50.5,30.5C 50.1667,30.5 49.8333,30.5 49.5,30.5C 48.9094,29.8485 48.2427,29.1818 47.5,28.5C 47.9684,19.9529 48.635,11.2863 49.5,2.5C 50.0768,1.22671 50.7435,1.22671 51.5,2.5C 50.1823,11.1196 50.1823,19.7863 51.5,28.5 Z"/></g>
<g><path style="opacity:0.9" fill="#33d7fc" d="M 46.5,3.5 C 45.5509,12.2272 45.2176,20.8939 45.5,29.5C 45.1667,29.5 44.8333,29.5 44.5,29.5C 44.5,28.8333 44.1667,28.5 43.5,28.5C 43.33,27.1779 43.6634,26.0113 44.5,25C 43.1057,23.2605 42.4391,21.2605 42.5,19C 42.7609,14.2471 42.9276,9.41378 43,4.5C 43.704,2.27299 44.8706,1.93966 46.5,3.5 Z"/></g>
<g><path style="opacity:0.353" fill="#08090b" d="M 51.5,28.5 C 52.5832,28.5394 53.5832,28.8728 54.5,29.5C 55.6977,33.5115 55.6977,37.5115 54.5,41.5C 54.7486,38.0134 54.4152,34.3467 53.5,30.5C 52.5,30.5 51.5,30.5 50.5,30.5C 50.3284,29.5084 50.6618,28.8417 51.5,28.5 Z"/></g>
<g><path style="opacity:1" fill="#101113" d="M 43.5,28.5 C 44.1667,28.5 44.5,28.8333 44.5,29.5C 43.1667,29.5 41.8333,29.5 40.5,29.5C 40.3359,32.1873 40.5026,34.854 41,37.5C 42.0975,38.9675 43.5975,39.8008 45.5,40C 44.1279,40.4017 42.7946,40.9017 41.5,41.5C 40.8333,40.5 40.1667,39.5 39.5,38.5C 36.932,40.6729 34.5987,43.0062 32.5,45.5C 33.5722,42.3703 35.4055,39.7036 38,37.5C 38.9533,34.5682 39.4533,31.5682 39.5,28.5C 40.8333,28.5 42.1667,28.5 43.5,28.5 Z"/></g>
<g><path style="opacity:1" fill="#525662" d="M 44.5,29.5 C 44.8333,29.5 45.1667,29.5 45.5,29.5C 45.2978,31.9892 45.7978,34.3225 47,36.5C 47.2359,34.1887 48.0693,32.1887 49.5,30.5C 49.8333,30.5 50.1667,30.5 50.5,30.5C 51.5,30.5 52.5,30.5 53.5,30.5C 54.4152,34.3467 54.7486,38.0134 54.5,41.5C 54.2786,42.7348 53.6119,43.7348 52.5,44.5C 53.7582,43.9836 54.7582,44.6503 55.5,46.5C 53.6923,50.2515 52.6923,54.2515 52.5,58.5C 51.8333,65.5 51.1667,72.5 50.5,79.5C 50.6621,77.4727 50.4955,75.4727 50,73.5C 49.31,72.2617 48.81,72.2617 48.5,73.5C 47.9569,73.44 47.6236,73.1067 47.5,72.5C 50.0212,70.7399 50.8545,68.4066 50,65.5C 48.9326,66.1905 47.7659,66.6905 46.5,67C 47.4506,67.7175 47.6172,68.5509 47,69.5C 45.103,67.9837 42.9363,67.317 40.5,67.5C 44.2256,63.5735 45.3923,58.9069 44,53.5C 43.5831,52.244 42.7498,51.5774 41.5,51.5C 38.6693,49.8179 37.1693,50.4846 37,53.5C 38.0495,52.4829 39.2161,52.3162 40.5,53C 39.2505,54.9747 37.9172,56.1414 36.5,56.5C 39.0253,59.0549 38.3586,60.7216 34.5,61.5C 32.1396,63.0109 29.6396,64.3442 27,65.5C 26.5034,63.1902 26.3367,60.8568 26.5,58.5C 27.7289,53.7147 29.7289,49.3813 32.5,45.5C 34.5987,43.0062 36.932,40.6729 39.5,38.5C 40.1667,39.5 40.8333,40.5 41.5,41.5C 42.7946,40.9017 44.1279,40.4017 45.5,40C 43.5975,39.8008 42.0975,38.9675 41,37.5C 40.5026,34.854 40.3359,32.1873 40.5,29.5C 41.8333,29.5 43.1667,29.5 44.5,29.5 Z"/></g>
<g><path style="opacity:0.586" fill="#0b0c0e" d="M 79.5,67.5 C 78.4415,66.3998 77.6082,65.0664 77,63.5C 76.501,59.1794 76.3343,54.8461 76.5,50.5C 78.1897,46.4882 77.523,45.8216 74.5,48.5C 75.5357,44.2824 77.2024,43.7824 79.5,47C 77.0145,53.8147 77.0145,60.648 79.5,67.5 Z"/></g>
<g><path style="opacity:1" fill="#525663" d="M 41.5,51.5 C 44.9941,62.8731 40.6608,69.0398 28.5,70C 26.4311,69.6758 26.0977,68.8425 27.5,67.5C 30.4607,66.2041 32.794,64.2041 34.5,61.5C 38.3586,60.7216 39.0253,59.0549 36.5,56.5C 37.9172,56.1414 39.2505,54.9747 40.5,53C 39.2161,52.3162 38.0495,52.4829 37,53.5C 37.1693,50.4846 38.6693,49.8179 41.5,51.5 Z"/></g>
<g><path style="opacity:1" fill="#161a1e" d="M 54.5,41.5 C 55.339,42.6412 56.0057,43.9745 56.5,45.5C 58.4011,47.4553 61.0678,48.7887 64.5,49.5C 65.3857,50.325 65.719,51.325 65.5,52.5C 64.5,52.5 63.5,52.5 62.5,52.5C 62.5,53.5 62.5,54.5 62.5,55.5C 64.1667,55.5 65.8333,55.5 67.5,55.5C 67.6495,56.552 67.4828,57.552 67,58.5C 64.0134,59.2761 63.1801,60.9428 64.5,63.5C 63.9747,64.1924 63.3081,64.6924 62.5,65C 64.2556,65.2022 65.9223,65.7022 67.5,66.5C 66.3913,67.9647 66.8913,68.9647 69,69.5C 72.063,68.3248 72.2296,66.9914 69.5,65.5C 69.8333,65.5 70.1667,65.5 70.5,65.5C 70.8333,65.5 71.1667,65.5 71.5,65.5C 71.8333,65.5 72.1667,65.5 72.5,65.5C 72.6347,67.5542 71.968,69.2209 70.5,70.5C 68.3043,70.4348 66.3043,69.7681 64.5,68.5C 65.6085,66.7859 64.9418,66.1192 62.5,66.5C 59.3537,66.1179 56.3537,66.1179 53.5,66.5C 52.9084,63.8728 52.5751,61.2062 52.5,58.5C 52.6923,54.2515 53.6923,50.2515 55.5,46.5C 54.7582,44.6503 53.7582,43.9836 52.5,44.5C 53.6119,43.7348 54.2786,42.7348 54.5,41.5 Z M 62.5,55.5 C 61.7494,56.5735 60.7494,56.7401 59.5,56C 60.3523,54.2716 61.3523,54.105 62.5,55.5 Z"/></g>
<g><path style="opacity:1" fill="#0cc4de" d="M 54.5,49.5 C 56.4144,50.1847 58.4144,50.6847 60.5,51C 56.1499,55.5378 54.1499,55.0378 54.5,49.5 Z"/></g>
<g><path style="opacity:0.369" fill="#060708" d="M 32.5,45.5 C 29.7289,49.3813 27.7289,53.7147 26.5,58.5C 25.8354,60.3691 25.1687,62.3691 24.5,64.5C 23.3777,65.6302 22.0443,66.2969 20.5,66.5C 21.4577,65.0384 22.6244,63.7051 24,62.5C 24.7435,55.6795 27.5768,50.0128 32.5,45.5 Z"/></g>
<g><path style="opacity:1" fill="#1b3037" d="M 74.5,48.5 C 72.9783,54.0475 72.3116,59.7141 72.5,65.5C 72.1667,65.5 71.8333,65.5 71.5,65.5C 71.7852,63.712 71.4519,62.0453 70.5,60.5C 69.5661,62.0948 69.5661,63.7615 70.5,65.5C 70.1667,65.5 69.8333,65.5 69.5,65.5C 68.6364,64.3117 67.6364,63.1451 66.5,62C 71.1497,59.7309 71.8164,56.5642 68.5,52.5C 68.9569,51.7025 69.6236,51.3691 70.5,51.5C 71.2114,49.7986 72.5447,48.7986 74.5,48.5 Z"/></g>
<g><path style="opacity:1" fill="#03c3ce" d="M 70.5,51.5 C 72.337,51.6395 72.6704,52.3061 71.5,53.5C 70.7025,53.0431 70.3691,52.3764 70.5,51.5 Z"/></g>
<g><path style="opacity:1" fill="#16aec5" d="M 54.5,56.5 C 55.7997,57.1079 57.1331,57.7745 58.5,58.5C 60.4731,57.6689 62.4731,57.5022 64.5,58C 60.5335,59.6872 57.3669,61.5205 55,63.5C 53.9525,61.0794 53.7858,58.7461 54.5,56.5 Z"/></g>
<g><path style="opacity:1" fill="#01c7e1" d="M 71.5,65.5 C 71.1667,65.5 70.8333,65.5 70.5,65.5C 69.5661,63.7615 69.5661,62.0948 70.5,60.5C 71.4519,62.0453 71.7852,63.712 71.5,65.5 Z"/></g>
<g><path style="opacity:1" fill="#13a1b8" d="M 62.5,66.5 C 62.4226,67.7498 61.756,68.5831 60.5,69C 61.8333,69.6667 63.1667,70.3333 64.5,71C 60.535,71.5463 57.2017,72.3796 54.5,73.5C 54.33,72.1779 54.6634,71.0113 55.5,70C 54.1772,69.1841 53.5106,68.0174 53.5,66.5C 56.3537,66.1179 59.3537,66.1179 62.5,66.5 Z"/></g>
<g><path style="opacity:1" fill="#555966" d="M 48.5,73.5 C 48.5,73.8333 48.5,74.1667 48.5,74.5C 43.3103,82.7565 35.9769,86.7565 26.5,86.5C 26.4355,82.301 27.7689,78.6343 30.5,75.5C 32.9179,71.7549 36.2512,69.0882 40.5,67.5C 42.9363,67.317 45.103,67.9837 47,69.5C 47.6172,68.5509 47.4506,67.7175 46.5,67C 47.7659,66.6905 48.9326,66.1905 50,65.5C 50.8545,68.4066 50.0212,70.7399 47.5,72.5C 47.6236,73.1067 47.9569,73.44 48.5,73.5 Z"/></g>
<g><path style="opacity:0.424" fill="#070809" d="M 20.5,66.5 C 20.5,67.5 20.5,68.5 20.5,69.5C 22.861,69.6741 25.1944,70.0074 27.5,70.5C 27.2591,73.0336 28.2591,74.7002 30.5,75.5C 27.7689,78.6343 26.4355,82.301 26.5,86.5C 26.5,87.8333 26.5,89.1667 26.5,90.5C 26.1667,90.5 25.8333,90.5 25.5,90.5C 24.214,85.6445 24.8806,80.9778 27.5,76.5C 27.1964,74.5595 26.3631,72.8928 25,71.5C 23.0624,72.8602 21.3957,72.5268 20,70.5C 19.235,68.9343 19.4017,67.6009 20.5,66.5 Z"/></g>
<g><path style="opacity:1" fill="#292b32" d="M 41.5,51.5 C 42.7498,51.5774 43.5831,52.244 44,53.5C 45.3923,58.9069 44.2256,63.5735 40.5,67.5C 36.2512,69.0882 32.9179,71.7549 30.5,75.5C 28.2591,74.7002 27.2591,73.0336 27.5,70.5C 25.1944,70.0074 22.861,69.6741 20.5,69.5C 20.5,68.5 20.5,67.5 20.5,66.5C 22.0443,66.2969 23.3777,65.6302 24.5,64.5C 25.1687,62.3691 25.8354,60.3691 26.5,58.5C 26.3367,60.8568 26.5034,63.1902 27,65.5C 29.6396,64.3442 32.1396,63.0109 34.5,61.5C 32.794,64.2041 30.4607,66.2041 27.5,67.5C 26.0977,68.8425 26.4311,69.6758 28.5,70C 40.6608,69.0398 44.9941,62.8731 41.5,51.5 Z"/></g>
<g><path style="opacity:1" fill="#464a57" d="M 76.5,50.5 C 76.3343,54.8461 76.501,59.1794 77,63.5C 77.6082,65.0664 78.4415,66.3998 79.5,67.5C 80.979,71.8019 82.479,76.1352 84,80.5C 84.4983,83.8168 84.665,87.1501 84.5,90.5C 80.8333,90.5 77.1667,90.5 73.5,90.5C 75.2716,87.0835 76.2716,83.4169 76.5,79.5C 75.487,75.9668 75.487,72.4668 76.5,69C 72.8585,62.7083 72.8585,56.5416 76.5,50.5 Z"/></g>
<g><path style="opacity:1" fill="#03c9db" d="M 73.5,73.5 C 73.44,74.0431 73.1067,74.3764 72.5,74.5C 71.646,73.4783 70.646,72.6449 69.5,72C 69.7284,71.6012 70.0618,71.4346 70.5,71.5C 72.1227,70.5092 73.1227,71.1759 73.5,73.5 Z"/></g>
<g><path style="opacity:1" fill="#414451" d="M 48.5,74.5 C 50.1004,81.15 47.4338,85.65 40.5,88C 43.7246,88.2234 46.3913,87.0568 48.5,84.5C 49.4151,86.7541 50.7484,88.7541 52.5,90.5C 43.8333,90.5 35.1667,90.5 26.5,90.5C 26.5,89.1667 26.5,87.8333 26.5,86.5C 35.9769,86.7565 43.3103,82.7565 48.5,74.5 Z"/></g>
<g><path style="opacity:1" fill="#0cb7cf" d="M 56.5,76.5 C 58.433,76.7286 60.0997,77.5619 61.5,79C 59.0935,79.2572 57.4268,80.4238 56.5,82.5C 55.1667,80.5 55.1667,78.5 56.5,76.5 Z"/></g>
<g><path style="opacity:1" fill="#19232a" d="M 62.5,66.5 C 64.9418,66.1192 65.6085,66.7859 64.5,68.5C 66.3043,69.7681 68.3043,70.4348 70.5,70.5C 70.5,70.8333 70.5,71.1667 70.5,71.5C 70.0618,71.4346 69.7284,71.6012 69.5,72C 70.646,72.6449 71.646,73.4783 72.5,74.5C 73.1067,74.3764 73.44,74.0431 73.5,73.5C 74.8333,75.5 74.8333,77.5 73.5,79.5C 71.847,79.6596 70.5137,80.3263 69.5,81.5C 68.9569,81.44 68.6236,81.1067 68.5,80.5C 70.0461,79.316 71.7127,78.316 73.5,77.5C 71.1483,74.6593 68.1483,73.4926 64.5,74C 65.5523,75.7165 64.8856,76.7165 62.5,77C 69.2656,80.3969 68.9323,82.0636 61.5,82C 63.6193,82.0976 65.286,82.9309 66.5,84.5C 65.624,85.2508 64.624,85.7508 63.5,86C 63.8333,86.3333 64.1667,86.6667 64.5,87C 66.926,86.9521 69.2593,87.1188 71.5,87.5C 72.463,87.0302 72.463,86.3635 71.5,85.5C 72.4916,85.6716 73.1583,85.3382 73.5,84.5C 74.0431,84.56 74.3764,84.8933 74.5,85.5C 73.5435,87.0754 72.8769,88.742 72.5,90.5C 71.8485,89.9094 71.1818,89.2427 70.5,88.5C 69.5745,89.6405 68.7412,89.6405 68,88.5C 67.7216,89.4158 67.2216,90.0825 66.5,90.5C 66.5,89.8333 66.1667,89.5 65.5,89.5C 63.6965,89.4241 61.6965,89.7575 59.5,90.5C 58.8902,89.609 58.5569,88.609 58.5,87.5C 62.4918,85.6704 62.3251,84.3371 58,83.5C 57.5357,84.0944 57.369,84.7611 57.5,85.5C 55.6182,84.779 55.2848,83.779 56.5,82.5C 57.4268,80.4238 59.0935,79.2572 61.5,79C 60.0997,77.5619 58.433,76.7286 56.5,76.5C 55.7784,76.0825 55.2784,75.4158 55,74.5C 54.6667,74.8333 54.3333,75.1667 54,75.5C 53.3083,74.5632 53.475,73.8966 54.5,73.5C 57.2017,72.3796 60.535,71.5463 64.5,71C 63.1667,70.3333 61.8333,69.6667 60.5,69C 61.756,68.5831 62.4226,67.7498 62.5,66.5 Z"/></g>
<g><path style="opacity:1" fill="#616571" d="M 76.5,50.5 C 72.8585,56.5416 72.8585,62.7083 76.5,69C 75.487,72.4668 75.487,75.9668 76.5,79.5C 76.2716,83.4169 75.2716,87.0835 73.5,90.5C 73.1667,90.5 72.8333,90.5 72.5,90.5C 72.8769,88.742 73.5435,87.0754 74.5,85.5C 74.3764,84.8933 74.0431,84.56 73.5,84.5C 73.5,82.8333 73.5,81.1667 73.5,79.5C 74.8333,77.5 74.8333,75.5 73.5,73.5C 73.1227,71.1759 72.1227,70.5092 70.5,71.5C 70.5,71.1667 70.5,70.8333 70.5,70.5C 71.968,69.2209 72.6347,67.5542 72.5,65.5C 72.3116,59.7141 72.9783,54.0475 74.5,48.5C 77.523,45.8216 78.1897,46.4882 76.5,50.5 Z"/></g>
<g><path style="opacity:1" fill="#05d4e0" d="M 73.5,79.5 C 73.5,81.1667 73.5,82.8333 73.5,84.5C 73.1583,85.3382 72.4916,85.6716 71.5,85.5C 71.7709,83.6203 71.1042,82.287 69.5,81.5C 70.5137,80.3263 71.847,79.6596 73.5,79.5 Z"/></g>
<g><path style="opacity:1" fill="#555b66" d="M 52.5,58.5 C 52.5751,61.2062 52.9084,63.8728 53.5,66.5C 53.5106,68.0174 54.1772,69.1841 55.5,70C 54.6634,71.0113 54.33,72.1779 54.5,73.5C 53.475,73.8966 53.3083,74.5632 54,75.5C 54.3333,75.1667 54.6667,74.8333 55,74.5C 55.2784,75.4158 55.7784,76.0825 56.5,76.5C 55.1667,78.5 55.1667,80.5 56.5,82.5C 55.2848,83.779 55.6182,84.779 57.5,85.5C 58.3382,85.8417 58.6716,86.5084 58.5,87.5C 58.5569,88.609 58.8902,89.609 59.5,90.5C 57.1667,90.5 54.8333,90.5 52.5,90.5C 50.7484,88.7541 49.4151,86.7541 48.5,84.5C 49.9418,83.1805 50.6085,81.5138 50.5,79.5C 51.1667,72.5 51.8333,65.5 52.5,58.5 Z"/></g>
<g><path style="opacity:0.308" fill="#0d2125" d="M 69.5,81.5 C 71.1042,82.287 71.7709,83.6203 71.5,85.5C 69.8235,84.8166 69.1568,83.4832 69.5,81.5 Z"/></g>
<g><path style="opacity:0.173" fill="#07090b" d="M 79.5,67.5 C 84.0235,74.4105 86.3568,82.0772 86.5,90.5C 85.8333,90.5 85.1667,90.5 84.5,90.5C 84.665,87.1501 84.4983,83.8168 84,80.5C 82.479,76.1352 80.979,71.8019 79.5,67.5 Z"/></g>
<g><path style="opacity:1" fill="#05d5ec" d="M 58.5,87.5 C 58.6716,86.5084 58.3382,85.8417 57.5,85.5C 57.369,84.7611 57.5357,84.0944 58,83.5C 62.3251,84.3371 62.4918,85.6704 58.5,87.5 Z"/></g>
<g><path style="opacity:1" fill="#101215" d="M 50.5,79.5 C 50.6085,81.5138 49.9418,83.1805 48.5,84.5C 46.3913,87.0568 43.7246,88.2234 40.5,88C 47.4338,85.65 50.1004,81.15 48.5,74.5C 48.5,74.1667 48.5,73.8333 48.5,73.5C 48.81,72.2617 49.31,72.2617 50,73.5C 50.4955,75.4727 50.6621,77.4727 50.5,79.5 Z"/></g>
<g><path style="opacity:0.929" fill="#0fa9da" d="M 72.5,90.5 C 72.8333,90.5 73.1667,90.5 73.5,90.5C 77.1667,90.5 80.8333,90.5 84.5,90.5C 85.1667,90.5 85.8333,90.5 86.5,90.5C 87.6948,90.3225 88.8615,89.9891 90,89.5C 91.8261,90.0104 91.9928,90.8438 90.5,92C 86.7459,93.3088 83.0793,94.4754 79.5,95.5C 58.5,95.5 37.5,95.5 16.5,95.5C 12.0246,94.4485 7.69128,92.7819 3.5,90.5C 4,90.1667 4.5,89.8333 5,89.5C 11.7877,90.4449 18.621,90.7782 25.5,90.5C 25.8333,90.5 26.1667,90.5 26.5,90.5C 35.1667,90.5 43.8333,90.5 52.5,90.5C 54.8333,90.5 57.1667,90.5 59.5,90.5C 61.6965,89.7575 63.6965,89.4241 65.5,89.5C 66.1667,89.5 66.5,89.8333 66.5,90.5C 67.2216,90.0825 67.7216,89.4158 68,88.5C 68.7412,89.6405 69.5745,89.6405 70.5,88.5C 71.1818,89.2427 71.8485,89.9094 72.5,90.5 Z"/></g>
</svg>
