<?xml version="1.0" encoding="UTF-8"?>
<!DOCTYPE svg PUBLIC "-//W3C//DTD SVG 1.1//EN" "http://www.w3.org/Graphics/SVG/1.1/DTD/svg11.dtd">
<svg xmlns="http://www.w3.org/2000/svg" version="1.1" width="96px" height="96px" style="shape-rendering:geometricPrecision; text-rendering:geometricPrecision; image-rendering:optimizeQuality; fill-rule:evenodd; clip-rule:evenodd" xmlns:xlink="http://www.w3.org/1999/xlink">
<g><path style="opacity:0.999" fill="#050447" d="M -0.5,-0.5 C 31.5,-0.5 63.5,-0.5 95.5,-0.5C 95.5,31.5 95.5,63.5 95.5,95.5C 63.5,95.5 31.5,95.5 -0.5,95.5C -0.5,63.5 -0.5,31.5 -0.5,-0.5 Z"/></g>
<g><path style="opacity:1" fill="#e4e3ea" d="M 29.5,28.5 C 31.2859,34.0719 33.6193,39.4053 36.5,44.5C 34.2843,43.7974 32.451,42.4641 31,40.5C 27.9926,34.1706 25.3259,27.8373 23,21.5C 25.7402,23.4029 27.9069,25.7362 29.5,28.5 Z"/></g>
<g><path style="opacity:1" fill="#e0e0e7" d="M 67.5,31.5 C 66.1036,34.8458 64.6036,38.1792 63,41.5C 60.6716,42.6635 58.8382,44.3302 57.5,46.5C 55.8333,47.1667 54.1667,47.8333 52.5,48.5C 54.498,46.4002 56.6647,44.4002 59,42.5C 61.9398,36.9541 64.6065,31.2874 67,25.5C 68.4216,23.3619 70.255,22.1953 72.5,22C 70.6932,25.1145 69.0265,28.2812 67.5,31.5 Z"/></g>
<g><path style="opacity:1" fill="#161842" d="M 67.5,31.5 C 69.0265,28.2812 70.6932,25.1145 72.5,22C 70.255,22.1953 68.4216,23.3619 67,25.5C 64.6065,31.2874 61.9398,36.9541 59,42.5C 56.6647,44.4002 54.498,46.4002 52.5,48.5C 50.5956,48.7376 49.2623,49.7376 48.5,51.5C 44.5,49.1667 40.5,46.8333 36.5,44.5C 33.6193,39.4053 31.2859,34.0719 29.5,28.5C 29.4607,26.7761 29.794,26.4427 30.5,27.5C 32.2299,31.8501 34.0632,36.1834 36,40.5C 37.7772,42.7899 39.9438,44.4566 42.5,45.5C 46.4475,50.7367 50.1142,50.4033 53.5,44.5C 55.371,44.1412 56.871,43.1412 58,41.5C 60.3109,37.0455 62.4776,32.5455 64.5,28C 62.9343,27.7003 61.601,28.2003 60.5,29.5C 60.4142,28.5041 60.7476,27.6708 61.5,27C 64.7323,25.7695 67.3989,23.7695 69.5,21C 70.7932,20.51 72.1266,20.3433 73.5,20.5C 72.7565,24.9973 70.7565,28.664 67.5,31.5 Z"/></g>
<g><path style="opacity:1" fill="#e5e4eb" d="M 53.5,44.5 C 55.56,39.3797 57.8933,34.3797 60.5,29.5C 61.601,28.2003 62.9343,27.7003 64.5,28C 62.4776,32.5455 60.3109,37.0455 58,41.5C 56.871,43.1412 55.371,44.1412 53.5,44.5 Z"/></g>
<g><path style="opacity:1" fill="#e6e6ec" d="M 30.5,27.5 C 33.1894,28.1894 34.8561,29.856 35.5,32.5C 37.5936,37.0243 39.927,41.3576 42.5,45.5C 39.9438,44.4566 37.7772,42.7899 36,40.5C 34.0632,36.1834 32.2299,31.8501 30.5,27.5 Z"/></g>
<g><path style="opacity:1" fill="#13163c" d="M 60.5,29.5 C 57.8933,34.3797 55.56,39.3797 53.5,44.5C 51.4456,45.6086 49.2789,46.6086 47,47.5C 45.5936,46.5862 44.0936,45.9195 42.5,45.5C 39.927,41.3576 37.5936,37.0243 35.5,32.5C 36.2389,32.369 36.9056,32.5357 37.5,33C 38.0848,34.3024 38.7515,35.469 39.5,36.5C 40.7451,40.7461 43.4118,43.7461 47.5,45.5C 51.9033,43.9541 54.07,40.9541 54,36.5C 51.7432,38.0456 49.5765,39.7123 47.5,41.5C 46.4777,41.1445 45.811,40.4778 45.5,39.5C 48.8852,38.6382 51.8852,36.9716 54.5,34.5C 55.086,34.7093 55.586,35.0426 56,35.5C 56.8136,32.8233 58.3136,30.8233 60.5,29.5 Z"/></g>
<g><path style="opacity:1" fill="#e4e4ea" d="M 39.5,36.5 C 41.5,37.5 43.5,38.5 45.5,39.5C 45.811,40.4778 46.4777,41.1445 47.5,41.5C 49.5765,39.7123 51.7432,38.0456 54,36.5C 54.07,40.9541 51.9033,43.9541 47.5,45.5C 43.4118,43.7461 40.7451,40.7461 39.5,36.5 Z"/></g>
<g><path style="opacity:1" fill="#b9b9c9" d="M 36.5,44.5 C 40.5,46.8333 44.5,49.1667 48.5,51.5C 47.7494,52.5735 46.7494,52.7401 45.5,52C 43.2657,50.2502 40.9324,48.7502 38.5,47.5C 37.8333,46.5 37.1667,45.5 36.5,44.5 Z"/></g>
<g><path style="opacity:1" fill="#a8a8bc" d="M 53.5,44.5 C 50.1142,50.4033 46.4475,50.7367 42.5,45.5C 44.0936,45.9195 45.5936,46.5862 47,47.5C 49.2789,46.6086 51.4456,45.6086 53.5,44.5 Z"/></g>
<g><path style="opacity:1" fill="#0d1139" d="M 57.5,46.5 C 57.8417,47.3382 58.5084,47.6716 59.5,47.5C 55.6012,55.6306 51.4346,63.6306 47,71.5C 43.2158,64.2663 39.7158,56.933 36.5,49.5C 37.1667,48.8333 37.8333,48.1667 38.5,47.5C 40.9324,48.7502 43.2657,50.2502 45.5,52C 46.7494,52.7401 47.7494,52.5735 48.5,51.5C 50.4044,51.2624 51.7377,50.2624 52.5,48.5C 54.1667,47.8333 55.8333,47.1667 57.5,46.5 Z"/></g>
<g><path style="opacity:1" fill="#9f9eb5" d="M 36.5,49.5 C 39.7158,56.933 43.2158,64.2663 47,71.5C 51.4346,63.6306 55.6012,55.6306 59.5,47.5C 60.0431,47.56 60.3764,47.8933 60.5,48.5C 56.24,57.3552 51.74,66.0219 47,74.5C 42.6278,65.5886 38.1278,56.7553 33.5,48C 34.788,47.7613 35.788,48.2613 36.5,49.5 Z"/></g>
<g><path style="opacity:1" fill="#e2e2e8" d="M 55.5,48.5 C 56.0431,48.56 56.3764,48.8933 56.5,49.5C 53.4956,55.5089 50.4956,61.5089 47.5,67.5C 44.2453,61.9916 41.2453,56.325 38.5,50.5C 40.3293,49.7176 41.8293,50.3843 43,52.5C 44.3333,55.1667 45.6667,57.8333 47,60.5C 49.1058,55.9438 51.9392,51.9438 55.5,48.5 Z"/></g>
<g><path style="opacity:1" fill="#bebdcc" d="M 52.5,48.5 C 51.7377,50.2624 50.4044,51.2624 48.5,51.5C 49.2623,49.7376 50.5956,48.7376 52.5,48.5 Z"/></g>
</svg>
