<?xml version="1.0" encoding="UTF-8"?>
<!DOCTYPE svg PUBLIC "-//W3C//DTD SVG 1.1//EN" "http://www.w3.org/Graphics/SVG/1.1/DTD/svg11.dtd">
<svg xmlns="http://www.w3.org/2000/svg" version="1.1" width="96px" height="96px" style="shape-rendering:geometricPrecision; text-rendering:geometricPrecision; image-rendering:optimizeQuality; fill-rule:evenodd; clip-rule:evenodd" xmlns:xlink="http://www.w3.org/1999/xlink">
<g><path style="opacity:0.964" fill="#3b4b9b" d="M 37.5,-0.5 C 44.1667,-0.5 50.8333,-0.5 57.5,-0.5C 75.9382,4.60221 88.2716,16.2689 94.5,34.5C 91.1673,33.3591 88.1673,31.5258 85.5,29C 77.1059,26.2434 69.4392,22.2434 62.5,17C 42.4404,10.4072 27.7737,16.5739 18.5,35.5C 15.5451,38.9825 11.8784,41.4825 7.5,43C 4.17381,46.1384 1.50714,49.6384 -0.5,53.5C -0.5,48.1667 -0.5,42.8333 -0.5,37.5C 5.16667,17.8333 17.8333,5.16667 37.5,-0.5 Z"/></g>
<g><path style="opacity:1" fill="#38489e" d="M 95.5,43.5 C 95.5,48.1667 95.5,52.8333 95.5,57.5C 94.8333,58.8333 94.1667,60.1667 93.5,61.5C 92.6618,61.1583 92.3284,60.4916 92.5,59.5C 95.6124,45.3803 90.2791,36.3803 76.5,32.5C 74.7354,31.5386 72.7354,31.2053 70.5,31.5C 69.1667,29.5 67.5,27.8333 65.5,26.5C 65.0269,25.0937 64.0269,24.427 62.5,24.5C 61.4863,23.3263 60.153,22.6596 58.5,22.5C 57.4324,21.5655 56.099,21.2322 54.5,21.5C 41.4299,18.8669 31.7632,23.5336 25.5,35.5C 24.2702,37.2972 23.6036,39.2972 23.5,41.5C 22.5655,42.5676 22.2322,43.901 22.5,45.5C 10.2201,45.1104 4.5534,50.777 5.5,62.5C 5.5,63.1667 5.5,63.8333 5.5,64.5C 5.27917,67.0972 4.77917,67.0972 4,64.5C 1.06437,59.4245 1.06437,54.4245 4,49.5C 8.07741,45.5883 12.5774,42.255 17.5,39.5C 31.7792,13.6895 50.7792,9.52288 74.5,27C 84.4011,29.0937 91.4011,34.5937 95.5,43.5 Z"/></g>
<g><path style="opacity:1" fill="#0fc1e4" d="M 76.5,32.5 C 90.2791,36.3803 95.6124,45.3803 92.5,59.5C 91.6873,61.2608 90.6873,62.9275 89.5,64.5C 86.0164,57.5344 82.0164,50.8677 77.5,44.5C 77.5,43.8333 77.1667,43.5 76.5,43.5C 76.0825,42.7784 75.4158,42.2784 74.5,42C 75.1667,41.6667 75.8333,41.3333 76.5,41C 74.7093,38.586 73.0426,36.086 71.5,33.5C 73.0453,32.5481 74.712,32.2148 76.5,32.5 Z"/></g>
<g><path style="opacity:1" fill="#3448a6" d="M 76.5,43.5 C 77.1667,43.5 77.5,43.8333 77.5,44.5C 77.4894,46.6859 76.4894,47.5192 74.5,47C 73.1602,44.8511 73.8269,43.6845 76.5,43.5 Z"/></g>
<g><path style="opacity:1" fill="#5da1cd" d="M 52.5,21.5 C 53.1667,21.5 53.8333,21.5 54.5,21.5C 56.099,21.2322 57.4324,21.5655 58.5,22.5C 53.1249,25.3637 47.7916,28.5304 42.5,32C 41.1667,36 38.5,38.6667 34.5,40C 33.2775,43.2226 30.9441,44.8893 27.5,45C 20.5708,49.6158 13.9041,54.4492 7.5,59.5C 6.80762,58.9747 6.30762,58.3081 6,57.5C 5.50649,59.1341 5.33982,60.8008 5.5,62.5C 4.5534,50.777 10.2201,45.1104 22.5,45.5C 22.2322,43.901 22.5655,42.5676 23.5,41.5C 25.6547,41.628 27.6547,41.128 29.5,40C 35.7994,33.5144 43.1327,28.5144 51.5,25C 52.3366,23.9887 52.67,22.8221 52.5,21.5 Z"/></g>
<g><path style="opacity:1" fill="#17abd6" d="M 70.5,31.5 C 72.7354,31.2053 74.7354,31.5386 76.5,32.5C 74.712,32.2148 73.0453,32.5481 71.5,33.5C 73.0426,36.086 74.7093,38.586 76.5,41C 75.8333,41.3333 75.1667,41.6667 74.5,42C 75.4158,42.2784 76.0825,42.7784 76.5,43.5C 73.8269,43.6845 73.1602,44.8511 74.5,47C 76.4894,47.5192 77.4894,46.6859 77.5,44.5C 82.0164,50.8677 86.0164,57.5344 89.5,64.5C 86.975,68.6856 83.3083,71.3523 78.5,72.5C 77.479,71.9984 77.3123,71.3317 78,70.5C 79.828,68.9186 81.828,67.5853 84,66.5C 84.9411,64.0106 84.4411,62.0106 82.5,60.5C 80.2488,59.3729 78.4155,57.7062 77,55.5C 75.8691,56.3353 75.0358,56.3353 74.5,55.5C 76.1667,49.8333 74.1667,47.8333 68.5,49.5C 65.5687,45.6081 62.902,41.4414 60.5,37C 63.0972,36.2208 63.0972,35.7208 60.5,35.5C 63.6217,33.572 66.9551,32.2387 70.5,31.5 Z"/></g>
<g><path style="opacity:1" fill="#79eaf7" d="M 50.5,43.5 C 47.917,46.9974 45.5836,50.6641 43.5,54.5C 42.197,56.1423 40.8637,57.8089 39.5,59.5C 32.9249,69.1236 23.9249,73.2903 12.5,72C 10.9069,71.0513 9.57357,69.8846 8.5,68.5C 20.4221,58.5267 33.4221,50.0267 47.5,43C 48.7494,42.2599 49.7494,42.4265 50.5,43.5 Z"/></g>
<g><path style="opacity:1" fill="#3649a2" d="M 58.5,46.5 C 59.9468,47.1342 60.6134,48.3009 60.5,50C 60.6134,51.6991 59.9468,52.8658 58.5,53.5C 56.8297,53.7512 55.3297,54.4178 54,55.5C 53.1583,59.7178 51.9917,63.7178 50.5,67.5C 45.3248,68.4929 43.4914,66.4929 45,61.5C 46.3024,60.9152 47.469,60.2485 48.5,59.5C 49.7942,58.7101 50.9609,57.7101 52,56.5C 52.3333,53.5 52.6667,50.5 53,47.5C 54.6995,46.5939 56.5328,46.2606 58.5,46.5 Z"/></g>
<g><path style="opacity:1" fill="#72d8ec" d="M 65.5,26.5 C 67.5,27.8333 69.1667,29.5 70.5,31.5C 66.9551,32.2387 63.6217,33.572 60.5,35.5C 58.246,36.1237 56.5794,37.457 55.5,39.5C 53.5201,40.4839 51.8534,41.8173 50.5,43.5C 49.7494,42.4265 48.7494,42.2599 47.5,43C 33.4221,50.0267 20.4221,58.5267 8.5,68.5C 7.32627,67.4863 6.6596,66.153 6.5,64.5C 6.5,64.1667 6.5,63.8333 6.5,63.5C 8.19416,64.686 9.86082,64.5193 11.5,63C 29.3559,50.5757 47.3559,38.409 65.5,26.5 Z"/></g>
<g><path style="opacity:1" fill="#65b8da" d="M 58.5,22.5 C 60.153,22.6596 61.4863,23.3263 62.5,24.5C 54.3653,31.5126 45.032,38.0126 34.5,44C 25.2635,50.7527 15.9302,57.2527 6.5,63.5C 6.5,63.8333 6.5,64.1667 6.5,64.5C 6.16667,64.5 5.83333,64.5 5.5,64.5C 5.5,63.8333 5.5,63.1667 5.5,62.5C 5.33982,60.8008 5.50649,59.1341 6,57.5C 6.30762,58.3081 6.80762,58.9747 7.5,59.5C 13.9041,54.4492 20.5708,49.6158 27.5,45C 30.9441,44.8893 33.2775,43.2226 34.5,40C 38.5,38.6667 41.1667,36 42.5,32C 47.7916,28.5304 53.1249,25.3637 58.5,22.5 Z"/></g>
<g><path style="opacity:1" fill="#6cc8e3" d="M 62.5,24.5 C 64.0269,24.427 65.0269,25.0937 65.5,26.5C 47.3559,38.409 29.3559,50.5757 11.5,63C 9.86082,64.5193 8.19416,64.686 6.5,63.5C 15.9302,57.2527 25.2635,50.7527 34.5,44C 45.032,38.0126 54.3653,31.5126 62.5,24.5 Z"/></g>
<g><path style="opacity:1" fill="#2b76b5" d="M 55.5,39.5 C 55.4894,41.0174 54.8228,42.1841 53.5,43C 54.8866,44.683 56.5533,45.8496 58.5,46.5C 56.5328,46.2606 54.6995,46.5939 53,47.5C 52.6667,50.5 52.3333,53.5 52,56.5C 50.9609,57.7101 49.7942,58.7101 48.5,59.5C 46.6207,58.1032 44.9541,56.4365 43.5,54.5C 45.5836,50.6641 47.917,46.9974 50.5,43.5C 51.8534,41.8173 53.5201,40.4839 55.5,39.5 Z"/></g>
<g><path style="opacity:1" fill="#3547a4" d="M 74.5,55.5 C 68.8333,57.1667 66.8333,55.1667 68.5,49.5C 66.8333,55.1667 68.8333,57.1667 74.5,55.5 Z"/></g>
<g><path style="opacity:1" fill="#2a79b7" d="M 58.5,53.5 C 60.6162,56.081 62.9496,58.4143 65.5,60.5C 63.6096,60.2965 62.1096,60.9632 61,62.5C 60.7411,65.5867 60.2411,68.5867 59.5,71.5C 57.1667,71.5 54.8333,71.5 52.5,71.5C 52.4729,69.8007 51.8062,68.4674 50.5,67.5C 51.9917,63.7178 53.1583,59.7178 54,55.5C 55.3297,54.4178 56.8297,53.7512 58.5,53.5 Z"/></g>
<g><path style="opacity:0.965" fill="#3b4b9b" d="M 94.5,34.5 C 94.2627,35.791 94.596,36.791 95.5,37.5C 95.5,39.5 95.5,41.5 95.5,43.5C 91.4011,34.5937 84.4011,29.0937 74.5,27C 50.7792,9.52288 31.7792,13.6895 17.5,39.5C 12.5774,42.255 8.07741,45.5883 4,49.5C 1.06437,54.4245 1.06437,59.4245 4,64.5C 4.77917,67.0972 5.27917,67.0972 5.5,64.5C 5.83333,64.5 6.16667,64.5 6.5,64.5C 6.6596,66.153 7.32627,67.4863 8.5,68.5C 9.57357,69.8846 10.9069,71.0513 12.5,72C 23.9249,73.2903 32.9249,69.1236 39.5,59.5C 40.6448,60.7927 40.3115,61.9593 38.5,63C 40.7823,65.3974 42.1156,68.2307 42.5,71.5C 48.3101,72.7109 53.9767,72.7109 59.5,71.5C 60.2411,68.5867 60.7411,65.5867 61,62.5C 62.1096,60.9632 63.6096,60.2965 65.5,60.5C 68.0771,61.6899 68.9105,63.6899 68,66.5C 59.587,70.2079 59.7536,72.2079 68.5,72.5C 76.0073,72.8164 79.174,69.1497 78,61.5C 79.3561,60.6198 80.8561,60.2865 82.5,60.5C 84.4411,62.0106 84.9411,64.0106 84,66.5C 81.828,67.5853 79.828,68.9186 78,70.5C 77.3123,71.3317 77.479,71.9984 78.5,72.5C 83.3083,71.3523 86.975,68.6856 89.5,64.5C 90.6873,62.9275 91.6873,61.2608 92.5,59.5C 92.3284,60.4916 92.6618,61.1583 93.5,61.5C 87.6333,79.3677 75.6333,90.701 57.5,95.5C 50.8333,95.5 44.1667,95.5 37.5,95.5C 17.8333,89.8333 5.16667,77.1667 -0.5,57.5C -0.5,56.1667 -0.5,54.8333 -0.5,53.5C 1.50714,49.6384 4.17381,46.1384 7.5,43C 11.8784,41.4825 15.5451,38.9825 18.5,35.5C 27.7737,16.5739 42.4404,10.4072 62.5,17C 69.4392,22.2434 77.1059,26.2434 85.5,29C 88.1673,31.5258 91.1673,33.3591 94.5,34.5 Z"/></g>
<g><path style="opacity:1" fill="#5690c3" d="M 52.5,21.5 C 52.67,22.8221 52.3366,23.9887 51.5,25C 43.1327,28.5144 35.7994,33.5144 29.5,40C 27.6547,41.128 25.6547,41.628 23.5,41.5C 23.6036,39.2972 24.2702,37.2972 25.5,35.5C 31.2292,33.1301 36.5626,29.9635 41.5,26C 43.5,25.6667 45.5,25.3333 47.5,25C 49.0646,23.5881 50.7313,22.4214 52.5,21.5 Z"/></g>
<g><path style="opacity:1" fill="#4e7bb6" d="M 54.5,21.5 C 53.8333,21.5 53.1667,21.5 52.5,21.5C 50.7313,22.4214 49.0646,23.5881 47.5,25C 45.5,25.3333 43.5,25.6667 41.5,26C 36.5626,29.9635 31.2292,33.1301 25.5,35.5C 31.7632,23.5336 41.4299,18.8669 54.5,21.5 Z"/></g>
<g><path style="opacity:1" fill="#2191c6" d="M 60.5,35.5 C 63.0972,35.7208 63.0972,36.2208 60.5,37C 62.902,41.4414 65.5687,45.6081 68.5,49.5C 66.8333,55.1667 68.8333,57.1667 74.5,55.5C 75.0358,56.3353 75.8691,56.3353 77,55.5C 78.4155,57.7062 80.2488,59.3729 82.5,60.5C 80.8561,60.2865 79.3561,60.6198 78,61.5C 79.174,69.1497 76.0073,72.8164 68.5,72.5C 59.7536,72.2079 59.587,70.2079 68,66.5C 68.9105,63.6899 68.0771,61.6899 65.5,60.5C 62.9496,58.4143 60.6162,56.081 58.5,53.5C 59.9468,52.8658 60.6134,51.6991 60.5,50C 60.6134,48.3009 59.9468,47.1342 58.5,46.5C 56.5533,45.8496 54.8866,44.683 53.5,43C 54.8228,42.1841 55.4894,41.0174 55.5,39.5C 56.5794,37.457 58.246,36.1237 60.5,35.5 Z"/></g>
<g><path style="opacity:1" fill="#345fa7" d="M 43.5,54.5 C 44.9541,56.4365 46.6207,58.1032 48.5,59.5C 47.469,60.2485 46.3024,60.9152 45,61.5C 43.4914,66.4929 45.3248,68.4929 50.5,67.5C 51.8062,68.4674 52.4729,69.8007 52.5,71.5C 54.8333,71.5 57.1667,71.5 59.5,71.5C 53.9767,72.7109 48.3101,72.7109 42.5,71.5C 42.1156,68.2307 40.7823,65.3974 38.5,63C 40.3115,61.9593 40.6448,60.7927 39.5,59.5C 40.8637,57.8089 42.197,56.1423 43.5,54.5 Z"/></g>
</svg>
