<?xml version="1.0" encoding="UTF-8"?>
<!DOCTYPE svg PUBLIC "-//W3C//DTD SVG 1.1//EN" "http://www.w3.org/Graphics/SVG/1.1/DTD/svg11.dtd">
<svg xmlns="http://www.w3.org/2000/svg" version="1.1" width="96px" height="96px" style="shape-rendering:geometricPrecision; text-rendering:geometricPrecision; image-rendering:optimizeQuality; fill-rule:evenodd; clip-rule:evenodd" xmlns:xlink="http://www.w3.org/1999/xlink">
<g><path style="opacity:1" fill="#47a744" d="M 37.5,-0.5 C 44.1667,-0.5 50.8333,-0.5 57.5,-0.5C 74.4652,3.79576 86.1319,14.1291 92.5,30.5C 92.4095,33.1522 93.0762,35.4855 94.5,37.5C 94.8333,37.5 95.1667,37.5 95.5,37.5C 95.5,44.1667 95.5,50.8333 95.5,57.5C 89.8333,77.1667 77.1667,89.8333 57.5,95.5C 50.8333,95.5 44.1667,95.5 37.5,95.5C 19.3924,90.728 7.39236,79.3947 1.5,61.5C 1.51909,59.9397 1.85242,58.4397 2.5,57C 1.44853,55.4228 0.448531,53.9228 -0.5,52.5C -0.5,47.5 -0.5,42.5 -0.5,37.5C 5.16667,17.8333 17.8333,5.16667 37.5,-0.5 Z"/></g>
<g><path style="opacity:1" fill="#fdfefd" d="M 41.5,18.5 C 45.1667,18.5 48.8333,18.5 52.5,18.5C 52.3343,22.8461 52.501,27.1794 53,31.5C 55,32.5 55,33.5 53,34.5C 51.9878,39.075 52.4878,43.4083 54.5,47.5C 52.4765,51.5683 51.9765,55.9016 53,60.5C 55,61.5 55,62.5 53,63.5C 52.501,67.8206 52.3343,72.1539 52.5,76.5C 48.8333,76.5 45.1667,76.5 41.5,76.5C 41.6657,72.1539 41.499,67.8206 41,63.5C 39,62.5 39,61.5 41,60.5C 42.0235,55.9016 41.5235,51.5683 39.5,47.5C 41.5122,43.4083 42.0122,39.075 41,34.5C 39,33.5 39,32.5 41,31.5C 41.499,27.1794 41.6657,22.8461 41.5,18.5 Z"/></g>
<g><path style="opacity:1" fill="#f5faf5" d="M 20.5,33.5 C 29.5657,33.0253 35.5657,37.0253 38.5,45.5C 29.2707,46.5409 23.2707,42.5409 20.5,33.5 Z"/></g>
<g><path style="opacity:0.965" fill="#8bc788" d="M 92.5,30.5 C 93.9238,32.5145 94.5905,34.8478 94.5,37.5C 93.0762,35.4855 92.4095,33.1522 92.5,30.5 Z"/></g>
<g><path style="opacity:1" fill="#f5faf5" d="M 33.5,48.5 C 35.1992,48.3398 36.8659,48.5065 38.5,49C 36.4799,52.7149 33.4799,54.0482 29.5,53C 31.0414,51.6288 32.3747,50.1288 33.5,48.5 Z"/></g>
<g><path style="opacity:1" fill="#7abd74" d="M -0.5,52.5 C 0.448531,53.9228 1.44853,55.4228 2.5,57C 1.85242,58.4397 1.51909,59.9397 1.5,61.5C 0.833333,60.1667 0.166667,58.8333 -0.5,57.5C -0.5,55.8333 -0.5,54.1667 -0.5,52.5 Z"/></g>
<g><path style="opacity:1" fill="#deefdd" d="M 58.5,58.5 C 62.0361,58.9381 61.8694,59.9381 58,61.5C 57.5,61.1667 57,60.8333 56.5,60.5C 57.2427,59.8182 57.9094,59.1515 58.5,58.5 Z"/></g>
<g><path style="opacity:1" fill="#eff7ef" d="M 56.5,63.5 C 62.0283,62.9157 65.3617,65.2491 66.5,70.5C 61.0244,71.1039 57.691,68.7706 56.5,63.5 Z"/></g>
</svg>
