<?xml version="1.0" encoding="UTF-8"?>
<!DOCTYPE svg PUBLIC "-//W3C//DTD SVG 1.1//EN" "http://www.w3.org/Graphics/SVG/1.1/DTD/svg11.dtd">
<svg xmlns="http://www.w3.org/2000/svg" version="1.1" width="96px" height="96px" style="shape-rendering:geometricPrecision; text-rendering:geometricPrecision; image-rendering:optimizeQuality; fill-rule:evenodd; clip-rule:evenodd" xmlns:xlink="http://www.w3.org/1999/xlink">
<g><path style="opacity:0.995" fill="#3b87e6" d="M -0.5,-0.5 C 31.5,-0.5 63.5,-0.5 95.5,-0.5C 95.5,31.5 95.5,63.5 95.5,95.5C 63.5,95.5 31.5,95.5 -0.5,95.5C -0.5,63.5 -0.5,31.5 -0.5,-0.5 Z"/></g>
<g><path style="opacity:1" fill="#fdfdfe" d="M 41.5,12.5 C 46.742,12.0227 51.742,12.8561 56.5,15C 65.3641,23.5298 73.8641,32.3631 82,41.5C 82.8098,46.2574 82.4764,50.9241 81,55.5C 72.1019,65.0679 62.6019,73.9012 52.5,82C 48.0442,82.8673 43.7109,82.5339 39.5,81C 29.9066,72.0781 21.0733,62.5781 13,52.5C 12.1327,48.0442 12.4661,43.7109 14,39.5C 23.0618,30.2704 32.2284,21.2704 41.5,12.5 Z"/></g>
<g><path style="opacity:1" fill="#3b87e6" d="M 43.5,21.5 C 46.6492,21.2114 49.6492,21.7114 52.5,23C 59,29.5 65.5,36 72,42.5C 74,45.8333 74,49.1667 72,52.5C 65.1667,59.3333 58.3333,66.1667 51.5,73C 48.8333,75 46.1667,75 43.5,73C 36.3333,65.8333 29.1667,58.6667 22,51.5C 20,48.8333 20,46.1667 22,43.5C 29.3692,36.2982 36.5359,28.9649 43.5,21.5 Z"/></g>
</svg>
