<?xml version="1.0" encoding="UTF-8"?>
<!DOCTYPE svg PUBLIC "-//W3C//DTD SVG 1.1//EN" "http://www.w3.org/Graphics/SVG/1.1/DTD/svg11.dtd">
<svg xmlns="http://www.w3.org/2000/svg" version="1.1" width="96px" height="96px" style="shape-rendering:geometricPrecision; text-rendering:geometricPrecision; image-rendering:optimizeQuality; fill-rule:evenodd; clip-rule:evenodd" xmlns:xlink="http://www.w3.org/1999/xlink">
<g><path style="opacity:0.902" fill="#000000" d="M 29.5,15.5 C 49.9066,13.781 62.7399,22.781 68,42.5C 69.151,50.8955 67.3176,58.5622 62.5,65.5C 60.0659,61.7471 57.8992,57.7471 56,53.5C 56.5566,36.3874 48.3899,28.5541 31.5,30C 20.2094,35.0842 16.3761,43.5842 20,55.5C 23.622,62.5726 29.4553,66.5726 37.5,67.5C 39.7376,71.3028 41.4043,75.3028 42.5,79.5C 23.3949,80.3638 10.8949,71.6972 5,53.5C 3.84787,34.8003 12.0145,22.1336 29.5,15.5 Z"/></g>
<g><path style="opacity:0.843" fill="#00b2ed" d="M 88.5,25.5 C 89.7479,26.3339 90.4146,27.6672 90.5,29.5C 90.3333,30.8333 90.1667,32.1667 90,33.5C 85.0949,36.8966 79.9282,38.8966 74.5,39.5C 75.2305,36.8908 75.7305,34.2241 76,31.5C 80.3033,29.5969 84.47,27.5969 88.5,25.5 Z"/></g>
<g><path style="opacity:0.925" fill="#000000" d="M 75.5,43.5 C 80.5,43.5 85.5,43.5 90.5,43.5C 90.5,55.5 90.5,67.5 90.5,79.5C 85.5,79.5 80.5,79.5 75.5,79.5C 75.5,67.5 75.5,55.5 75.5,43.5 Z"/></g>
<g><path style="opacity:0.958" fill="#00b2ed" d="M 38.5,57.5 C 43.5111,57.3341 48.5111,57.5007 53.5,58C 56.9926,64.9826 59.9926,72.1493 62.5,79.5C 57.456,79.8275 52.456,79.4941 47.5,78.5C 43.9069,71.7099 40.9069,64.7099 38.5,57.5 Z"/></g>
</svg>
