<?xml version="1.0" encoding="UTF-8"?>
<!DOCTYPE svg PUBLIC "-//W3C//DTD SVG 1.1//EN" "http://www.w3.org/Graphics/SVG/1.1/DTD/svg11.dtd">
<svg xmlns="http://www.w3.org/2000/svg" version="1.1" width="96px" height="96px" style="shape-rendering:geometricPrecision; text-rendering:geometricPrecision; image-rendering:optimizeQuality; fill-rule:evenodd; clip-rule:evenodd" xmlns:xlink="http://www.w3.org/1999/xlink">
<g><path style="opacity:0.992" fill="#fcfefe" d="M -0.5,-0.5 C 12.1667,-0.5 24.8333,-0.5 37.5,-0.5C 18.2717,5.0612 5.60508,17.3945 -0.5,36.5C -0.5,24.1667 -0.5,11.8333 -0.5,-0.5 Z"/></g>
<g><path style="opacity:1" fill="#1ac6e7" d="M 37.5,-0.5 C 43.5,-0.5 49.5,-0.5 55.5,-0.5C 76.7222,4.38868 90.0556,17.3887 95.5,38.5C 95.5,44.1667 95.5,49.8333 95.5,55.5C 90.5128,77.1539 77.1794,90.4872 55.5,95.5C 49.5,95.5 43.5,95.5 37.5,95.5C 17.8333,89.8333 5.16667,77.1667 -0.5,57.5C -0.5,50.5 -0.5,43.5 -0.5,36.5C 5.60508,17.3945 18.2717,5.0612 37.5,-0.5 Z"/></g>
<g><path style="opacity:0.992" fill="#fcfefe" d="M 55.5,-0.5 C 68.8333,-0.5 82.1667,-0.5 95.5,-0.5C 95.5,12.5 95.5,25.5 95.5,38.5C 90.0556,17.3887 76.7222,4.38868 55.5,-0.5 Z"/></g>
<g><path style="opacity:1" fill="#1599b3" d="M 23.5,23.5 C 22.5036,39.6581 22.1702,55.9915 22.5,72.5C 21.1731,55.9952 21.1731,39.3286 22.5,22.5C 23.1067,22.6236 23.44,22.9569 23.5,23.5 Z"/></g>
<g><path style="opacity:1" fill="#131414" d="M 23.5,23.5 C 27.7978,27.2964 31.9644,31.2964 36,35.5C 36.4999,47.8288 36.6665,60.1622 36.5,72.5C 31.8333,72.5 27.1667,72.5 22.5,72.5C 22.1702,55.9915 22.5036,39.6581 23.5,23.5 Z"/></g>
<g><path style="opacity:1" fill="#151819" d="M 70.5,23.5 C 72.4302,27.3727 73.0969,31.706 72.5,36.5C 67.8215,36.6658 63.1548,36.4992 58.5,36C 62.7036,31.9644 66.7036,27.7978 70.5,23.5 Z"/></g>
<g><path style="opacity:1" fill="#131313" d="M 58.5,40.5 C 63.1667,40.5 67.8333,40.5 72.5,40.5C 72.5,51.1667 72.5,61.8333 72.5,72.5C 67.8333,72.5 63.1667,72.5 58.5,72.5C 58.5,61.8333 58.5,51.1667 58.5,40.5 Z"/></g>
<g><path style="opacity:1" fill="#141313" d="M 53.5,40.5 C 54.4861,44.97 54.8195,49.6367 54.5,54.5C 49.8215,54.6658 45.1548,54.4992 40.5,54C 45.0367,49.6312 49.3701,45.1312 53.5,40.5 Z"/></g>
<g><path style="opacity:0.992" fill="#fcfefe" d="M 95.5,55.5 C 95.5,68.8333 95.5,82.1667 95.5,95.5C 82.1667,95.5 68.8333,95.5 55.5,95.5C 77.1794,90.4872 90.5128,77.1539 95.5,55.5 Z"/></g>
<g><path style="opacity:0.992" fill="#fcfefe" d="M -0.5,57.5 C 5.16667,77.1667 17.8333,89.8333 37.5,95.5C 24.8333,95.5 12.1667,95.5 -0.5,95.5C -0.5,82.8333 -0.5,70.1667 -0.5,57.5 Z"/></g>
</svg>
