<?xml version="1.0" encoding="UTF-8"?>
<!DOCTYPE svg PUBLIC "-//W3C//DTD SVG 1.1//EN" "http://www.w3.org/Graphics/SVG/1.1/DTD/svg11.dtd">
<svg xmlns="http://www.w3.org/2000/svg" version="1.1" width="96px" height="96px" style="shape-rendering:geometricPrecision; text-rendering:geometricPrecision; image-rendering:optimizeQuality; fill-rule:evenodd; clip-rule:evenodd" xmlns:xlink="http://www.w3.org/1999/xlink">
<g><path style="opacity:1" fill="#1c1621" d="M -0.5,-0.5 C 31.5,-0.5 63.5,-0.5 95.5,-0.5C 95.5,31.5 95.5,63.5 95.5,95.5C 63.5,95.5 31.5,95.5 -0.5,95.5C -0.5,63.5 -0.5,31.5 -0.5,-0.5 Z"/></g>
<g><path style="opacity:1" fill="#ead806" d="M 64.5,62.5 C 64.5,64.1667 64.5,65.8333 64.5,67.5C 52.8333,67.5 41.1667,67.5 29.5,67.5C 29.5,66.1667 29.5,64.8333 29.5,63.5C 29.9365,57.455 31.9365,51.955 35.5,47C 31.3243,40.8121 29.3243,33.9788 29.5,26.5C 41.1667,26.5 52.8333,26.5 64.5,26.5C 64.4849,33.7094 62.8182,40.5428 59.5,47C 62.075,51.8913 63.7417,57.0579 64.5,62.5 Z"/></g>
<g><path style="opacity:1" fill="#1a1521" d="M 45.5,40.5 C 56.6778,43.8288 57.1778,48.1621 47,53.5C 43.7654,52.4335 41.2654,50.4335 39.5,47.5C 41.5227,45.1472 43.5227,42.8138 45.5,40.5 Z"/></g>
<g><path style="opacity:1" fill="#0c0924" d="M 34.5,38.5 C 42.837,37.0754 43.837,38.7421 37.5,43.5C 36.3037,41.8554 35.3037,40.1887 34.5,38.5 Z"/></g>
<g><path style="opacity:1" fill="#110e23" d="M 53.5,37.5 C 60.3135,36.7506 61.3135,38.7506 56.5,43.5C 54.6841,42.1851 53.0175,40.6851 51.5,39C 52.4158,38.7216 53.0825,38.2216 53.5,37.5 Z"/></g>
<g><path style="opacity:1" fill="#1f1922" d="M 32.5,29.5 C 42.1667,29.5 51.8333,29.5 61.5,29.5C 61.7135,31.1439 61.3802,32.6439 60.5,34C 55.9279,34.4625 51.4279,35.2959 47,36.5C 42.6025,35.1376 38.1025,34.3042 33.5,34C 32.6198,32.6439 32.2865,31.1439 32.5,29.5 Z"/></g>
<g><path style="opacity:1" fill="#141123" d="M 36.5,50.5 C 44.8255,54.8805 44.1588,56.7138 34.5,56C 35.464,54.2745 36.1307,52.4412 36.5,50.5 Z"/></g>
<g><path style="opacity:1" fill="#1c1722" d="M 55.5,50.5 C 57.5128,51.4752 58.8461,53.1419 59.5,55.5C 56.8333,56.8333 54.1667,56.8333 51.5,55.5C 53.4039,54.2341 54.7372,52.5675 55.5,50.5 Z"/></g>
<g><path style="opacity:1" fill="#141022" d="M 45.5,57.5 C 50.6329,59.4485 55.9662,60.4485 61.5,60.5C 61.5,61.8333 61.5,63.1667 61.5,64.5C 51.8104,64.8318 42.1437,64.4984 32.5,63.5C 32.8333,62.8333 33.1667,62.1667 33.5,61.5C 37.818,60.7628 41.818,59.4295 45.5,57.5 Z"/></g>
<g><path style="opacity:1" fill="#635b17" d="M 64.5,62.5 C 65.4614,64.2646 65.7947,66.2646 65.5,68.5C 53.1667,68.5 40.8333,68.5 28.5,68.5C 28.2155,66.5853 28.5489,64.9187 29.5,63.5C 29.5,64.8333 29.5,66.1667 29.5,67.5C 41.1667,67.5 52.8333,67.5 64.5,67.5C 64.5,65.8333 64.5,64.1667 64.5,62.5 Z"/></g>
</svg>
