<?xml version="1.0" encoding="UTF-8"?>
<!DOCTYPE svg PUBLIC "-//W3C//DTD SVG 1.1//EN" "http://www.w3.org/Graphics/SVG/1.1/DTD/svg11.dtd">
<svg xmlns="http://www.w3.org/2000/svg" version="1.1" width="96px" height="96px" style="shape-rendering:geometricPrecision; text-rendering:geometricPrecision; image-rendering:optimizeQuality; fill-rule:evenodd; clip-rule:evenodd" xmlns:xlink="http://www.w3.org/1999/xlink">
<g><path style="opacity:0.985" fill="#f6f6f7" d="M -0.5,-0.5 C 31.5,-0.5 63.5,-0.5 95.5,-0.5C 95.5,31.5 95.5,63.5 95.5,95.5C 63.5,95.5 31.5,95.5 -0.5,95.5C -0.5,63.5 -0.5,31.5 -0.5,-0.5 Z"/></g>
<g><path style="opacity:1" fill="#191e4a" d="M 15.5,36.5 C 14.5206,39.6248 14.1872,42.9581 14.5,46.5C 11.1667,46.5 7.83333,46.5 4.5,46.5C 4.5,44.8333 4.5,43.1667 4.5,41.5C 4.2614,35.4348 4.7614,29.4348 6,23.5C 11.5766,19.2938 17.4099,15.4604 23.5,12C 26.4873,6.31345 29.4873,6.14679 32.5,11.5C 31.4518,15.3509 29.1185,16.3509 25.5,14.5C 19.742,17.7945 14.242,21.4612 9,25.5C 7.63036,31.7416 7.13036,38.0749 7.5,44.5C 8.83333,44.5 10.1667,44.5 11.5,44.5C 11.3105,38.728 11.9771,33.0613 13.5,27.5C 23.5563,20.4704 34.223,14.4704 45.5,9.5C 57.6207,14.1439 68.7874,20.4772 79,28.5C 79.651,34.8268 80.151,41.1601 80.5,47.5C 76.8333,47.5 73.1667,47.5 69.5,47.5C 72.3254,35.1967 67.6587,29.0301 55.5,29C 51.7904,22.9292 53.4571,20.5958 60.5,22C 63.0075,26.3297 66.6741,29.4963 71.5,31.5C 72.4922,35.7828 72.8256,40.1161 72.5,44.5C 73.8333,44.5 75.1667,44.5 76.5,44.5C 76.8275,39.456 76.4941,34.456 75.5,29.5C 66.1579,22.9145 56.3245,17.2478 46,12.5C 35.2842,16.7702 25.4508,22.4368 16.5,29.5C 15.5258,31.7427 15.1924,34.076 15.5,36.5 Z"/></g>
<g><path style="opacity:1" fill="#f4f3f5" d="M 27.5,9.5 C 29.9118,9.69408 30.9118,11.0274 30.5,13.5C 27.0464,13.7332 26.0464,12.3999 27.5,9.5 Z"/></g>
<g><path style="opacity:1" fill="#171d49" d="M 43.5,1.5 C 58.8699,6.18526 72.8699,13.5186 85.5,23.5C 86.3253,27.1224 86.8253,30.789 87,34.5C 89.5567,36.3933 90.0567,38.7266 88.5,41.5C 86.3052,42.7691 84.1385,42.7691 82,41.5C 82.1374,37.8266 82.6374,34.1599 83.5,30.5C 83.1667,28.8333 82.8333,27.1667 82.5,25.5C 71.3463,16.8367 59.1796,9.83667 46,4.5C 43.0038,5.55094 40.1704,6.88427 37.5,8.5C 36.7132,7.75792 36.0465,6.92458 35.5,6C 38.0993,4.20496 40.7659,2.70496 43.5,1.5 Z"/></g>
<g><path style="opacity:1" fill="#eaeaeb" d="M 55.5,23.5 C 56.8333,23.5 58.1667,23.5 59.5,23.5C 59.7778,25.3464 59.1112,26.6798 57.5,27.5C 55.8888,26.6798 55.2222,25.3464 55.5,23.5 Z"/></g>
<g><path style="opacity:1" fill="#151c49" d="M 32.5,65.5 C 34.5138,65.3915 36.1805,66.0582 37.5,67.5C 38.6988,72.4638 36.6988,74.2971 31.5,73C 28.7233,68.4975 24.8899,64.9975 20,62.5C 19.5026,59.854 19.3359,57.1873 19.5,54.5C 19.5,49.8333 19.5,45.1667 19.5,40.5C 19.1826,37.4281 19.5159,34.4281 20.5,31.5C 28.3857,26.0566 36.719,21.3899 45.5,17.5C 48.8224,17.7986 50.8224,19.4653 51.5,22.5C 49.1845,21.6404 46.8511,21.1404 44.5,21C 37.2019,24.6497 30.2019,28.8164 23.5,33.5C 22.3347,42.4815 22.168,51.4815 23,60.5C 25.8685,62.8497 29.0352,64.5164 32.5,65.5 Z"/></g>
<g><path style="opacity:1" fill="#131f4e" d="M 38.5,66.5 C 37.0351,65.2632 35.3684,64.2632 33.5,63.5C 31.0313,62.4314 28.6979,61.0981 26.5,59.5C 25.1854,51.2745 25.1854,43.1078 26.5,35C 32.7639,31.6196 38.9305,28.1196 45,24.5C 51.0306,28.0177 57.1973,31.351 63.5,34.5C 63.1732,36.8412 61.5066,38.5079 58.5,39.5C 54.2891,36.8952 49.9558,34.5619 45.5,32.5C 40.6438,34.1779 36.1438,36.5112 32,39.5C 31.1705,44.8643 31.3372,50.1977 32.5,55.5C 36.6018,57.9671 40.7685,60.3004 45,62.5C 49.4423,60.029 53.9423,57.6957 58.5,55.5C 60.6264,56.3984 62.6264,57.565 64.5,59C 58.0555,62.603 51.7222,66.4363 45.5,70.5C 43.1495,69.1389 40.8162,67.8056 38.5,66.5 Z"/></g>
<g><path style="opacity:1" fill="#e5e4e7" d="M 83.5,36.5 C 86.5,36.1667 87.8333,37.5 87.5,40.5C 86.1667,40.5 84.8333,40.5 83.5,40.5C 83.5,39.1667 83.5,37.8333 83.5,36.5 Z"/></g>
<g><path style="opacity:1" fill="#a0a0a9" d="M 19.5,40.5 C 19.5,45.1667 19.5,49.8333 19.5,54.5C 18.8333,54.8333 18.1667,55.1667 17.5,55.5C 17.5,54.8333 17.5,54.1667 17.5,53.5C 18.1667,49.1667 18.8333,44.8333 19.5,40.5 Z"/></g>
<g><path style="opacity:1" fill="#848594" d="M 15.5,36.5 C 15.5,40.1667 15.5,43.8333 15.5,47.5C 11.5,47.5 7.5,47.5 3.5,47.5C 3.20528,45.2646 3.53862,43.2646 4.5,41.5C 4.5,43.1667 4.5,44.8333 4.5,46.5C 7.83333,46.5 11.1667,46.5 14.5,46.5C 14.1872,42.9581 14.5206,39.6248 15.5,36.5 Z"/></g>
<g><path style="opacity:1" fill="#1a1f49" d="M 4.5,50.5 C 5.5,50.5 6.5,50.5 7.5,50.5C 7.53677,56.535 8.03677,62.535 9,68.5C 11.0589,71.544 13.7256,72.544 17,71.5C 20.2052,72.7982 21.2052,75.1316 20,78.5C 15.9051,81.6371 13.2384,80.6371 12,75.5C 10.1847,73.5951 8.18472,71.9284 6,70.5C 4.86259,63.8804 4.36259,57.2137 4.5,50.5 Z"/></g>
<g><path style="opacity:1" fill="#181d4a" d="M 69.5,50.5 C 72.8333,50.5 76.1667,50.5 79.5,50.5C 79.666,55.8437 79.4994,61.1771 79,66.5C 76.0937,69.0373 72.927,71.204 69.5,73C 68.0628,75.7249 66.0628,77.8915 63.5,79.5C 59.0828,77.5839 58.4161,74.7506 61.5,71C 67.1376,70.712 71.9709,68.5453 76,64.5C 76.4986,60.8484 76.6653,57.1817 76.5,53.5C 75.1667,53.5 73.8333,53.5 72.5,53.5C 72.6646,56.5184 72.498,59.5184 72,62.5C 63.8075,68.2648 55.1408,73.2648 46,77.5C 43.4467,76.7771 41.28,75.4438 39.5,73.5C 39.8076,72.6919 40.3076,72.0253 41,71.5C 42.913,73.1869 45.0797,73.6869 47.5,73C 55.208,69.7305 62.3746,65.5639 69,60.5C 69.4983,57.1832 69.665,53.8499 69.5,50.5 Z"/></g>
<g><path style="opacity:1" fill="#161c49" d="M 17.5,53.5 C 17.5,54.1667 17.5,54.8333 17.5,55.5C 16.3852,57.3069 15.7186,59.3069 15.5,61.5C 15.3898,63.374 16.0564,64.874 17.5,66C 25.8399,71.5053 34.5065,76.5053 43.5,81C 47.4615,80.4139 51.4615,79.7472 55.5,79C 56.8403,81.3494 58.1736,83.6827 59.5,86C 59.3552,86.772 59.0219,87.4387 58.5,88C 54.2747,89.6959 50.108,91.5293 46,93.5C 37.7979,90.6512 30.2979,86.6512 23.5,81.5C 23.8076,80.6919 24.3076,80.0253 25,79.5C 31.4807,83.9069 38.4807,87.2402 46,89.5C 49.7921,88.8594 52.9588,87.1927 55.5,84.5C 55.1131,83.2801 54.2798,82.6135 53,82.5C 50.3051,84.1144 47.4717,84.9477 44.5,85C 33.6753,79.7574 23.342,73.7574 13.5,67C 12.8566,61.8661 11.69,57.0327 10,52.5C 12.9372,49.6938 15.4372,50.0271 17.5,53.5 Z"/></g>
<g><path style="opacity:1" fill="#f3f3f3" d="M 12.5,52.5 C 14.9118,52.6941 15.9118,54.0274 15.5,56.5C 12.0464,56.7332 11.0464,55.3999 12.5,52.5 Z"/></g>
<g><path style="opacity:1" fill="#6c6f89" d="M 33.5,63.5 C 35.3684,64.2632 37.0351,65.2632 38.5,66.5C 37.8333,66.5 37.5,66.8333 37.5,67.5C 36.1805,66.0582 34.5138,65.3915 32.5,65.5C 32.8333,64.8333 33.1667,64.1667 33.5,63.5 Z"/></g>
<g><path style="opacity:1" fill="#ececee" d="M 32.5,67.5 C 33.5,67.5 34.5,67.5 35.5,67.5C 35.5,68.8333 35.5,70.1667 35.5,71.5C 32.0464,71.7332 31.0464,70.3999 32.5,67.5 Z"/></g>
<g><path style="opacity:1" fill="#161c49" d="M 84.5,47.5 C 85.5,47.5 86.5,47.5 87.5,47.5C 87.3871,55.1886 86.8871,62.8553 86,70.5C 78.908,76.0884 71.408,81.0884 63.5,85.5C 62.7132,84.7579 62.0465,83.9246 61.5,83C 68.8397,78.9987 75.8397,74.4987 82.5,69.5C 84.0322,62.2493 84.6988,54.9159 84.5,47.5 Z"/></g>
<g><path style="opacity:1" fill="#edecee" d="M 62.5,72.5 C 64.9118,72.6941 65.9118,74.0274 65.5,76.5C 64.1667,76.5 62.8333,76.5 61.5,76.5C 61.4326,75.0413 61.7659,73.7079 62.5,72.5 Z"/></g>
<g><path style="opacity:1" fill="#dedee3" d="M 15.5,73.5 C 18.9563,74.5362 19.2896,76.2029 16.5,78.5C 14.2957,77.218 13.9624,75.5514 15.5,73.5 Z"/></g>
</svg>
