<?xml version="1.0" encoding="UTF-8"?>
<!DOCTYPE svg PUBLIC "-//W3C//DTD SVG 1.1//EN" "http://www.w3.org/Graphics/SVG/1.1/DTD/svg11.dtd">
<svg xmlns="http://www.w3.org/2000/svg" version="1.1" width="96px" height="96px" style="shape-rendering:geometricPrecision; text-rendering:geometricPrecision; image-rendering:optimizeQuality; fill-rule:evenodd; clip-rule:evenodd" xmlns:xlink="http://www.w3.org/1999/xlink">
<g><path style="opacity:0.885" fill="#23baea" d="M 37.5,-0.5 C 44.1667,-0.5 50.8333,-0.5 57.5,-0.5C 60.0812,0.488483 62.7479,1.48848 65.5,2.5C 64.8333,3.5 64.1667,4.5 63.5,5.5C 62.609,6.10978 61.609,6.44312 60.5,6.5C 51.6001,3.85941 42.6001,3.85941 33.5,6.5C 32.609,5.89022 31.609,5.55688 30.5,5.5C 29.8333,4.5 29.1667,3.5 28.5,2.5C 31.659,1.66929 34.659,0.669289 37.5,-0.5 Z"/></g>
<g><path style="opacity:0.288" fill="#1e2021" d="M 28.5,2.5 C 29.1667,3.5 29.8333,4.5 30.5,5.5C 29.8333,5.5 29.1667,5.5 28.5,5.5C 26.696,2.55279 24.696,2.21945 22.5,4.5C 22.4142,3.5041 22.7476,2.67076 23.5,2C 25.1966,1.61553 26.8632,1.78219 28.5,2.5 Z"/></g>
<g><path style="opacity:1" fill="#18191d" d="M 71.5,4.5 C 70.5178,3.85917 69.5178,3.19251 68.5,2.5C 67.1482,3.52435 65.8149,4.52435 64.5,5.5C 64.1667,5.5 63.8333,5.5 63.5,5.5C 64.1667,4.5 64.8333,3.5 65.5,2.5C 68.5837,-0.444541 70.5837,0.222126 71.5,4.5 Z"/></g>
<g><path style="opacity:1" fill="#e4e4e4" d="M 28.5,5.5 C 27.7611,5.36899 27.0944,5.53566 26.5,6C 30.7095,9.20845 34.2095,13.0418 37,17.5C 37.6667,16.5 37.6667,15.5 37,14.5C 35.5187,13.5291 34.6854,12.1958 34.5,10.5C 36.7917,11.6239 38.9583,12.9573 41,14.5C 45,13.1667 49,13.1667 53,14.5C 56.5777,12.7601 59.7443,10.4267 62.5,7.5C 62.8333,7.66667 63.1667,7.83333 63.5,8C 60.7264,10.0638 58.8931,12.5638 58,15.5C 61.2012,11.9636 64.7012,8.79693 68.5,6C 66.9813,6.33077 65.648,6.1641 64.5,5.5C 65.8149,4.52435 67.1482,3.52435 68.5,2.5C 69.5178,3.19251 70.5178,3.85917 71.5,4.5C 71.6646,7.51838 71.498,10.5184 71,13.5C 70.1564,17.6472 68.9897,21.6472 67.5,25.5C 68.8587,27.6922 70.6921,29.3589 73,30.5C 72.0756,32.8089 72.9089,34.4755 75.5,35.5C 76.9279,38.0116 77.4279,40.6783 77,43.5C 76.4921,41.0958 75.3255,40.4291 73.5,41.5C 75.5462,44.2323 76.3795,47.2323 76,50.5C 75.3457,49.3044 74.8457,49.3044 74.5,50.5C 75.6055,54.777 75.7722,59.1103 75,63.5C 74.0853,62.6721 73.4186,61.6721 73,60.5C 72.218,63.2569 72.718,65.7569 74.5,68C 72.8866,68.0885 71.7199,67.2552 71,65.5C 71.3869,68.6812 72.2203,71.8479 73.5,75C 73.1667,75.5 72.8333,76 72.5,76.5C 70.2777,75.2217 67.9443,74.2217 65.5,73.5C 63.8295,73.6682 62.4961,74.3349 61.5,75.5C 59.9826,75.5106 58.8159,76.1772 58,77.5C 57.6012,77.2716 57.4346,76.9382 57.5,76.5C 61.1855,70.3265 62.3522,63.6599 61,56.5C 59.6439,55.6198 58.1439,55.2865 56.5,55.5C 56.6633,53.1432 56.4966,50.8098 56,48.5C 56.1523,52.8861 54.319,55.8861 50.5,57.5C 48.9731,57.573 47.9731,56.9063 47.5,55.5C 51.8292,54.018 52.4959,51.518 49.5,48C 44.5023,46.6703 42.3357,48.5036 43,53.5C 43.8159,54.8228 44.9826,55.4894 46.5,55.5C 45.4324,56.4345 44.099,56.7678 42.5,56.5C 39.7299,54.6342 38.2299,51.9676 38,48.5C 37.3131,50.5675 37.4798,52.5675 38.5,54.5C 36.6136,55.4063 34.7803,56.4063 33,57.5C 32.2104,64.6881 34.0437,71.0214 38.5,76.5C 39.2187,78.8881 40.8854,80.3881 43.5,81C 46.367,81.8007 49.0336,81.6341 51.5,80.5C 53.1703,80.2488 54.6703,79.5822 56,78.5C 55.3163,81.1596 55.483,83.8262 56.5,86.5C 56,86.8333 55.5,87.1667 55,87.5C 49.5496,88.4299 44.0496,88.7633 38.5,88.5C 38.81,85.2869 38.4767,82.2869 37.5,79.5C 33.7591,72.9856 28.7591,71.9856 22.5,76.5C 21.0608,72.64 21.7274,69.14 24.5,66C 23.2575,65.6886 22.2575,66.1886 21.5,67.5C 21.1667,67.1667 20.8333,66.8333 20.5,66.5C 21.5443,64.2324 21.711,61.8991 21,59.5C 20.7104,61.0441 20.0437,62.3774 19,63.5C 18.3035,59.4649 18.4701,55.4649 19.5,51.5C 16.8957,48.7604 17.2291,45.4271 20.5,41.5C 20.3333,41.1667 20.1667,40.8333 20,40.5C 19,41.5 18,42.5 17,43.5C 16.6818,39.2949 18.1818,35.7949 21.5,33C 20.7476,32.3292 20.4142,31.4959 20.5,30.5C 22.9324,29.2498 25.2657,27.7498 27.5,26C 26.6667,25.1667 25.8333,24.3333 25,23.5C 24.1619,17.487 23.3286,11.487 22.5,5.5C 22.5,5.16667 22.5,4.83333 22.5,4.5C 24.696,2.21945 26.696,2.55279 28.5,5.5 Z M 60.5,6.5 C 60.5,7.16667 60.1667,7.5 59.5,7.5C 55.5248,7.00132 51.5248,6.66799 47.5,6.5C 43.2227,6.33666 39.2227,7.00333 35.5,8.5C 34.5,8.16667 33.8333,7.5 33.5,6.5C 42.6001,3.85941 51.6001,3.85941 60.5,6.5 Z"/></g>
<g><path style="opacity:1" fill="#8a8989" d="M 28.5,5.5 C 29.1667,5.5 29.8333,5.5 30.5,5.5C 31.8333,7.16667 33.1667,8.83333 34.5,10.5C 34.6854,12.1958 35.5187,13.5291 37,14.5C 37.6667,15.5 37.6667,16.5 37,17.5C 34.2095,13.0418 30.7095,9.20845 26.5,6C 27.0944,5.53566 27.7611,5.36899 28.5,5.5 Z"/></g>
<g><path style="opacity:0.876" fill="#32b6f9" d="M 72.5,6.5 C 84.3805,13.7129 92.0471,24.0462 95.5,37.5C 95.5,41.5 95.5,45.5 95.5,49.5C 93.8459,48.2497 92.1793,46.9163 90.5,45.5C 89.8192,31.802 84.1525,20.802 73.5,12.5C 73.1667,10.5 72.8333,8.5 72.5,6.5 Z"/></g>
<g><path style="opacity:1" fill="#292828" d="M 30.5,5.5 C 31.609,5.55688 32.609,5.89022 33.5,6.5C 33.8333,7.5 34.5,8.16667 35.5,8.5C 37.1291,10.3198 39.1291,11.6531 41.5,12.5C 45.1552,11.2741 48.8219,11.2741 52.5,12.5C 55.6521,12.0194 57.9854,10.3527 59.5,7.5C 60.1667,7.5 60.5,7.16667 60.5,6.5C 61.609,6.44312 62.609,6.10978 63.5,5.5C 63.8333,5.5 64.1667,5.5 64.5,5.5C 65.648,6.1641 66.9813,6.33077 68.5,6C 64.7012,8.79693 61.2012,11.9636 58,15.5C 58.8931,12.5638 60.7264,10.0638 63.5,8C 63.1667,7.83333 62.8333,7.66667 62.5,7.5C 59.7443,10.4267 56.5777,12.7601 53,14.5C 49,13.1667 45,13.1667 41,14.5C 38.9583,12.9573 36.7917,11.6239 34.5,10.5C 33.1667,8.83333 31.8333,7.16667 30.5,5.5 Z"/></g>
<g><path style="opacity:0.878" fill="#01c2ce" d="M 59.5,7.5 C 57.9854,10.3527 55.6521,12.0194 52.5,12.5C 48.8219,11.2741 45.1552,11.2741 41.5,12.5C 39.1291,11.6531 37.1291,10.3198 35.5,8.5C 39.2227,7.00333 43.2227,6.33666 47.5,6.5C 51.5248,6.66799 55.5248,7.00132 59.5,7.5 Z"/></g>
<g><path style="opacity:1" fill="#2b2c2d" d="M 22.5,5.5 C 23.3286,11.487 24.1619,17.487 25,23.5C 25.8333,24.3333 26.6667,25.1667 27.5,26C 25.2657,27.7498 22.9324,29.2498 20.5,30.5C 21.6253,28.8712 22.9586,27.3712 24.5,26C 23.0594,22.534 22.0594,19.034 21.5,15.5C 21.5,14.8333 21.5,14.1667 21.5,13.5C 21.5,11.1667 21.5,8.83333 21.5,6.5C 21.5,5.83333 21.8333,5.5 22.5,5.5 Z"/></g>
<g><path style="opacity:1" fill="#212528" d="M 71.5,4.5 C 72.3382,4.84171 72.6716,5.50838 72.5,6.5C 72.8333,8.5 73.1667,10.5 73.5,12.5C 72.6618,12.8417 72.3284,13.5084 72.5,14.5C 72.0009,18.2391 71.0009,21.9058 69.5,25.5C 71.0082,27.5075 72.8416,29.1741 75,30.5C 75.3742,31.4162 75.8742,32.2496 76.5,33C 75.7476,33.6708 75.4142,34.5041 75.5,35.5C 72.9089,34.4755 72.0756,32.8089 73,30.5C 70.6921,29.3589 68.8587,27.6922 67.5,25.5C 68.9897,21.6472 70.1564,17.6472 71,13.5C 71.498,10.5184 71.6646,7.51838 71.5,4.5 Z"/></g>
<g><path style="opacity:0.907" fill="#1abbe2" d="M 21.5,15.5 C 22.0594,19.034 23.0594,22.534 24.5,26C 22.9586,27.3712 21.6253,28.8712 20.5,30.5C 19.0384,31.4577 17.7051,32.6244 16.5,34C 17.1667,34.3333 17.8333,34.6667 18.5,35C 16.84,36.4877 15.84,38.321 15.5,40.5C 14.6909,42.2922 14.1909,44.2922 14,46.5C 13.6667,45.1667 13.3333,43.8333 13,42.5C 10.6742,42.12 8.84091,41.12 7.5,39.5C 9.29327,29.7331 13.9599,21.7331 21.5,15.5 Z"/></g>
<g><path style="opacity:0.948" fill="#18bbe1" d="M 72.5,14.5 C 76.1349,18.3068 79.6349,22.3068 83,26.5C 84.8681,29.6051 86.0348,32.9385 86.5,36.5C 83.8127,36.3359 81.146,36.5026 78.5,37C 79.7383,37.69 79.7383,38.19 78.5,38.5C 77.7281,37.3065 76.7281,36.3065 75.5,35.5C 75.4142,34.5041 75.7476,33.6708 76.5,33C 75.8742,32.2496 75.3742,31.4162 75,30.5C 72.8416,29.1741 71.0082,27.5075 69.5,25.5C 71.0009,21.9058 72.0009,18.2391 72.5,14.5 Z"/></g>
<g><path style="opacity:1" fill="#3a4b55" d="M 36.5,30.5 C 38.9732,30.736 40.6399,32.0693 41.5,34.5C 40.277,35.6139 38.9437,35.7805 37.5,35C 36.4495,33.6152 35.1161,32.6152 33.5,32C 34.7375,31.7679 35.7375,31.2679 36.5,30.5 Z"/></g>
<g><path style="opacity:1" fill="#23303a" d="M 54.5,31.5 C 61.9044,31.7122 61.7378,33.0455 54,35.5C 53.4209,34.0715 53.5876,32.7382 54.5,31.5 Z"/></g>
<g><path style="opacity:0.971" fill="#35bbf4" d="M 86.5,36.5 C 90.9497,52.0321 87.283,65.3654 75.5,76.5C 74.776,74.7816 74.1094,72.9483 73.5,71C 74.624,70.7508 75.624,70.2508 76.5,69.5C 75.3595,67.9222 74.8595,66.2555 75,64.5C 75.8928,65.7112 76.7261,65.7112 77.5,64.5C 76.3382,60.1094 76.6715,55.7761 78.5,51.5C 78.4493,49.9002 78.1159,48.4002 77.5,47C 78.6241,46.1612 79.2908,44.9945 79.5,43.5C 79.2716,41.7927 78.9383,40.126 78.5,38.5C 79.7383,38.19 79.7383,37.69 78.5,37C 81.146,36.5026 83.8127,36.3359 86.5,36.5 Z"/></g>
<g><path style="opacity:1" fill="#101010" d="M 47.5,55.5 C 47.1667,55.5 46.8333,55.5 46.5,55.5C 44.9826,55.4894 43.8159,54.8228 43,53.5C 42.3357,48.5036 44.5023,46.6703 49.5,48C 52.4959,51.518 51.8292,54.018 47.5,55.5 Z"/></g>
<g><path style="opacity:0.952" fill="#34b6f6" d="M 7.5,39.5 C 8.84091,41.12 10.6742,42.12 13,42.5C 13.3333,43.8333 13.6667,45.1667 14,46.5C 14.1909,44.2922 14.6909,42.2922 15.5,40.5C 14.9892,48.8453 15.6559,57.1787 17.5,65.5C 17.1667,67.8333 15.8333,69.1667 13.5,69.5C 6.80923,60.4276 4.80923,50.4276 7.5,39.5 Z"/></g>
<g><path style="opacity:1" fill="#393a42" d="M 42.5,56.5 C 43.9801,58.4119 45.9801,59.5785 48.5,60C 47.9011,61.6225 47.2344,63.1225 46.5,64.5C 45.0632,61.5617 43.0632,59.0617 40.5,57C 39.2068,56.51 37.8734,56.3433 36.5,56.5C 35.1192,63.3649 35.7859,70.0316 38.5,76.5C 34.0437,71.0214 32.2104,64.6881 33,57.5C 34.7803,56.4063 36.6136,55.4063 38.5,54.5C 37.4798,52.5675 37.3131,50.5675 38,48.5C 38.2299,51.9676 39.7299,54.6342 42.5,56.5 Z"/></g>
<g><path style="opacity:1" fill="#6c747c" d="M 46.5,55.5 C 46.8333,55.5 47.1667,55.5 47.5,55.5C 47.9731,56.9063 48.9731,57.573 50.5,57.5C 50.3284,58.4916 50.6618,59.1583 51.5,59.5C 51.5,60.5 51.5,61.5 51.5,62.5C 50.8333,63.1667 50.1667,63.8333 49.5,64.5C 48.7784,64.9175 48.2784,65.5842 48,66.5C 47.6174,65.944 47.1174,65.6107 46.5,65.5C 46.5,65.1667 46.5,64.8333 46.5,64.5C 47.2344,63.1225 47.9011,61.6225 48.5,60C 45.9801,59.5785 43.9801,58.4119 42.5,56.5C 44.099,56.7678 45.4324,56.4345 46.5,55.5 Z"/></g>
<g><path style="opacity:1" fill="#595959" d="M 67.5,58.5 C 70.3716,61.1031 70.0382,63.4365 66.5,65.5C 64.7438,63.8087 64.2438,61.8087 65,59.5C 66.9076,62.3323 67.741,61.999 67.5,58.5 Z"/></g>
<g><path style="opacity:1" fill="#e2c192" d="M 46.5,64.5 C 46.5,64.8333 46.5,65.1667 46.5,65.5C 45.371,67.2751 44.371,68.9418 43.5,70.5C 41.5979,69.6321 39.7645,68.6321 38,67.5C 37.5,67.8333 37,68.1667 36.5,68.5C 38.9009,69.3576 40.9009,70.691 42.5,72.5C 41.5041,72.5858 40.6708,72.2524 40,71.5C 39.3828,72.4491 39.5494,73.2825 40.5,74C 43.146,74.4974 45.8127,74.6641 48.5,74.5C 47.3734,76.9167 47.3734,78.9167 48.5,80.5C 44.7073,80.2688 41.3739,78.9355 38.5,76.5C 35.7859,70.0316 35.1192,63.3649 36.5,56.5C 37.8734,56.3433 39.2068,56.51 40.5,57C 43.0632,59.0617 45.0632,61.5617 46.5,64.5 Z"/></g>
<g><path style="opacity:0.819" fill="#1abbe2" d="M 90.5,45.5 C 92.1793,46.9163 93.8459,48.2497 95.5,49.5C 95.5,52.1667 95.5,54.8333 95.5,57.5C 94.3654,60.9018 93.0321,64.2351 91.5,67.5C 89.7659,66.438 88.0992,66.438 86.5,67.5C 89.7382,60.5402 91.0716,53.2068 90.5,45.5 Z"/></g>
<g><path style="opacity:1" fill="#0d0d0d" d="M 26.5,60.5 C 27.0431,60.56 27.3764,60.8933 27.5,61.5C 26.635,62.5827 25.635,62.7494 24.5,62C 25.4158,61.7216 26.0825,61.2216 26.5,60.5 Z"/></g>
<g><path style="opacity:1" fill="#b58053" d="M 59.5,57.5 C 59.6495,58.552 59.4828,59.552 59,60.5C 57.927,59.7203 56.7604,59.887 55.5,61C 58.402,63.0914 58.7353,65.258 56.5,67.5C 55.8333,67.8333 55.1667,68.1667 54.5,68.5C 53.478,66.4561 52.478,64.4561 51.5,62.5C 51.5,61.5 51.5,60.5 51.5,59.5C 52.8566,58.3146 54.3566,57.3146 56,56.5C 57.1385,56.9891 58.3052,57.3225 59.5,57.5 Z"/></g>
<g><path style="opacity:0.862" fill="#43d6dc" d="M 21.5,6.5 C 21.5,8.83333 21.5,11.1667 21.5,13.5C 12.5452,19.3722 7.04518,27.7055 5,38.5C 2.19221,53.6277 6.02554,66.6277 16.5,77.5C 15.3995,78.6049 14.7329,79.9382 14.5,81.5C 14.1667,81.5 13.8333,81.5 13.5,81.5C 6.69833,74.7092 2.03166,66.7092 -0.5,57.5C -0.5,50.8333 -0.5,44.1667 -0.5,37.5C 2.88523,24.4354 10.2186,14.102 21.5,6.5 Z"/></g>
<g><path style="opacity:1" fill="#1a1a1c" d="M 20.5,30.5 C 20.4142,31.4959 20.7476,32.3292 21.5,33C 18.1818,35.7949 16.6818,39.2949 17,43.5C 18,42.5 19,41.5 20,40.5C 20.1667,40.8333 20.3333,41.1667 20.5,41.5C 17.2291,45.4271 16.8957,48.7604 19.5,51.5C 18.4701,55.4649 18.3035,59.4649 19,63.5C 20.0437,62.3774 20.7104,61.0441 21,59.5C 21.711,61.8991 21.5443,64.2324 20.5,66.5C 20.8333,66.8333 21.1667,67.1667 21.5,67.5C 22.2575,66.1886 23.2575,65.6886 24.5,66C 21.7274,69.14 21.0608,72.64 22.5,76.5C 28.7591,71.9856 33.7591,72.9856 37.5,79.5C 35.3976,77.1154 32.7309,75.7821 29.5,75.5C 24.3009,77.1192 19.3009,79.1192 14.5,81.5C 14.7329,79.9382 15.3995,78.6049 16.5,77.5C 17.4916,77.6716 18.1583,77.3382 18.5,76.5C 19.7251,75.8478 20.3917,74.6811 20.5,73C 20.3333,71.8333 20.1667,70.6667 20,69.5C 19.1072,70.7112 18.2739,70.7112 17.5,69.5C 19.124,68.1311 19.624,66.4645 19,64.5C 18.6174,65.056 18.1174,65.3893 17.5,65.5C 15.6559,57.1787 14.9892,48.8453 15.5,40.5C 15.84,38.321 16.84,36.4877 18.5,35C 17.8333,34.6667 17.1667,34.3333 16.5,34C 17.7051,32.6244 19.0384,31.4577 20.5,30.5 Z"/></g>
<g><path style="opacity:1" fill="#1a1d1f" d="M 75.5,35.5 C 76.7281,36.3065 77.7281,37.3065 78.5,38.5C 78.9383,40.126 79.2716,41.7927 79.5,43.5C 79.2908,44.9945 78.6241,46.1612 77.5,47C 78.1159,48.4002 78.4493,49.9002 78.5,51.5C 76.6715,55.7761 76.3382,60.1094 77.5,64.5C 76.7261,65.7112 75.8928,65.7112 75,64.5C 74.8595,66.2555 75.3595,67.9222 76.5,69.5C 75.624,70.2508 74.624,70.7508 73.5,71C 74.1094,72.9483 74.776,74.7816 75.5,76.5C 76.209,77.404 77.209,77.7373 78.5,77.5C 79.6005,78.6049 80.2671,79.9382 80.5,81.5C 74.6397,78.0735 68.3064,76.0735 61.5,75.5C 62.4961,74.3349 63.8295,73.6682 65.5,73.5C 67.9443,74.2217 70.2777,75.2217 72.5,76.5C 72.8333,76 73.1667,75.5 73.5,75C 72.2203,71.8479 71.3869,68.6812 71,65.5C 71.7199,67.2552 72.8866,68.0885 74.5,68C 72.718,65.7569 72.218,63.2569 73,60.5C 73.4186,61.6721 74.0853,62.6721 75,63.5C 75.7722,59.1103 75.6055,54.777 74.5,50.5C 74.8457,49.3044 75.3457,49.3044 76,50.5C 76.3795,47.2323 75.5462,44.2323 73.5,41.5C 75.3255,40.4291 76.4921,41.0958 77,43.5C 77.4279,40.6783 76.9279,38.0116 75.5,35.5 Z"/></g>
<g><path style="opacity:1" fill="#f7cd96" d="M 51.5,62.5 C 52.478,64.4561 53.478,66.4561 54.5,68.5C 53.8333,68.8333 53.1667,69.1667 52.5,69.5C 50.4508,69.2942 50.1175,68.4609 51.5,67C 50.244,66.5831 49.5774,65.7498 49.5,64.5C 50.1667,63.8333 50.8333,63.1667 51.5,62.5 Z"/></g>
<g><path style="opacity:1" fill="#86593a" d="M 59.5,57.5 C 60.481,63.9657 59.481,70.299 56.5,76.5C 55.5489,75.0813 55.2155,73.4147 55.5,71.5C 55.7214,70.2652 56.3881,69.2652 57.5,68.5C 57.3764,67.8933 57.0431,67.56 56.5,67.5C 58.7353,65.258 58.402,63.0914 55.5,61C 56.7604,59.887 57.927,59.7203 59,60.5C 59.4828,59.552 59.6495,58.552 59.5,57.5 Z"/></g>
<g><path style="opacity:1" fill="#46c8ed" d="M 18.5,76.5 C 16.4525,74.4504 14.7859,72.117 13.5,69.5C 15.8333,69.1667 17.1667,67.8333 17.5,65.5C 18.1174,65.3893 18.6174,65.056 19,64.5C 19.624,66.4645 19.124,68.1311 17.5,69.5C 18.2739,70.7112 19.1072,70.7112 20,69.5C 20.1667,70.6667 20.3333,71.8333 20.5,73C 20.3917,74.6811 19.7251,75.8478 18.5,76.5 Z"/></g>
<g><path style="opacity:1" fill="#406d87" d="M 43.5,70.5 C 44.0577,71.7899 45.0577,72.6232 46.5,73C 45.0715,73.5791 43.7382,73.4124 42.5,72.5C 40.9009,70.691 38.9009,69.3576 36.5,68.5C 37,68.1667 37.5,67.8333 38,67.5C 39.7645,68.6321 41.5979,69.6321 43.5,70.5 Z"/></g>
<g><path style="opacity:1" fill="#5a89a7" d="M 56.5,67.5 C 57.0431,67.56 57.3764,67.8933 57.5,68.5C 56.3881,69.2652 55.7214,70.2652 55.5,71.5C 53.6208,72.3414 51.6208,72.6747 49.5,72.5C 50.3065,71.2719 51.3065,70.2719 52.5,69.5C 53.1667,69.1667 53.8333,68.8333 54.5,68.5C 55.1667,68.1667 55.8333,67.8333 56.5,67.5 Z"/></g>
<g><path style="opacity:1" fill="#2b2726" d="M 57.5,76.5 C 57.1667,76.5 56.8333,76.5 56.5,76.5C 59.481,70.299 60.481,63.9657 59.5,57.5C 58.3052,57.3225 57.1385,56.9891 56,56.5C 54.3566,57.3146 52.8566,58.3146 51.5,59.5C 50.6618,59.1583 50.3284,58.4916 50.5,57.5C 54.319,55.8861 56.1523,52.8861 56,48.5C 56.4966,50.8098 56.6633,53.1432 56.5,55.5C 58.1439,55.2865 59.6439,55.6198 61,56.5C 62.3522,63.6599 61.1855,70.3265 57.5,76.5 Z"/></g>
<g><path style="opacity:1" fill="#ae865f" d="M 49.5,64.5 C 49.5774,65.7498 50.244,66.5831 51.5,67C 50.1175,68.4609 50.4508,69.2942 52.5,69.5C 51.3065,70.2719 50.3065,71.2719 49.5,72.5C 49.0618,72.4346 48.7284,72.6012 48.5,73C 50.3453,74.128 52.3453,74.628 54.5,74.5C 54.5449,77.0772 53.5449,79.0772 51.5,80.5C 50.5,80.5 49.5,80.5 48.5,80.5C 47.3734,78.9167 47.3734,76.9167 48.5,74.5C 45.8127,74.6641 43.146,74.4974 40.5,74C 39.5494,73.2825 39.3828,72.4491 40,71.5C 40.6708,72.2524 41.5041,72.5858 42.5,72.5C 43.7382,73.4124 45.0715,73.5791 46.5,73C 45.0577,72.6232 44.0577,71.7899 43.5,70.5C 44.371,68.9418 45.371,67.2751 46.5,65.5C 47.1174,65.6107 47.6174,65.944 48,66.5C 48.2784,65.5842 48.7784,64.9175 49.5,64.5 Z"/></g>
<g><path style="opacity:1" fill="#e2e2e2" d="M 37.5,79.5 C 37.6989,82.941 37.1989,86.2744 36,89.5C 35.5776,91.4257 34.4109,92.4257 32.5,92.5C 32.1667,92.5 31.8333,92.5 31.5,92.5C 31.6399,90.8762 30.9733,89.7096 29.5,89C 30.9597,88.1887 31.293,87.3554 30.5,86.5C 28.8152,87.9527 27.1486,89.286 25.5,90.5C 25.1667,89.8333 24.8333,89.1667 24.5,88.5C 25.0852,86.078 26.5852,84.4113 29,83.5C 29.6667,82.8333 29.6667,82.1667 29,81.5C 25.805,82.8514 23.9717,85.1847 23.5,88.5C 23.1667,89.1667 22.8333,89.8333 22.5,90.5C 22.1667,90.5 21.8333,90.5 21.5,90.5C 19.2733,88.7713 18.2733,86.438 18.5,83.5C 17.5326,84.8062 16.1993,85.4729 14.5,85.5C 14.5,84.1667 14.5,82.8333 14.5,81.5C 19.3009,79.1192 24.3009,77.1192 29.5,75.5C 32.7309,75.7821 35.3976,77.1154 37.5,79.5 Z"/></g>
<g><path style="opacity:1" fill="#e3e2e2" d="M 61.5,75.5 C 68.3064,76.0735 74.6397,78.0735 80.5,81.5C 80.5,82.8333 80.5,84.1667 80.5,85.5C 79.5,85.5 78.5,85.5 77.5,85.5C 77.719,84.325 77.3857,83.325 76.5,82.5C 74.4523,81.23 72.4523,80.8967 70.5,81.5C 73.1229,82.297 75.1229,83.797 76.5,86C 75.7935,88.54 74.1268,89.7067 71.5,89.5C 71.7678,87.901 71.4345,86.5676 70.5,85.5C 69.1667,84.0665 67.6667,82.7332 66,81.5C 65.8333,81.8333 65.6667,82.1667 65.5,82.5C 66.9754,84.0712 68.642,85.4045 70.5,86.5C 70.7708,90.1512 69.4374,91.4846 66.5,90.5C 66.9342,87.8338 65.9342,86.6671 63.5,87C 64.1667,87.6667 64.8333,88.3333 65.5,89C 64.244,89.4169 63.5774,90.2502 63.5,91.5C 63.5,92.1667 63.1667,92.5 62.5,92.5C 61.5041,92.5858 60.6708,92.2524 60,91.5C 56.1592,85.5912 56.6592,80.2579 61.5,75.5 Z"/></g>
<g><path style="opacity:0.902" fill="#06c1d2" d="M 91.5,67.5 C 89.3234,73.0073 85.9901,77.6739 81.5,81.5C 81.1667,81.5 80.8333,81.5 80.5,81.5C 80.2671,79.9382 79.6005,78.6049 78.5,77.5C 81.5466,74.4552 84.2133,71.1219 86.5,67.5C 88.0992,66.438 89.7659,66.438 91.5,67.5 Z"/></g>
<g><path style="opacity:1" fill="#383736" d="M 38.5,76.5 C 41.3739,78.9355 44.7073,80.2688 48.5,80.5C 49.5,80.5 50.5,80.5 51.5,80.5C 49.0336,81.6341 46.367,81.8007 43.5,81C 40.8854,80.3881 39.2187,78.8881 38.5,76.5 Z"/></g>
<g><path style="opacity:1" fill="#414141" d="M 18.5,83.5 C 20.3952,81.9017 22.5619,80.5684 25,79.5C 25.6877,80.3317 25.521,80.9984 24.5,81.5C 22.5504,82.3721 20.5504,83.0388 18.5,83.5 Z"/></g>
<g><path style="opacity:0.605" fill="#191a1a" d="M 80.5,81.5 C 80.8333,81.5 81.1667,81.5 81.5,81.5C 81.348,84.487 81.0147,87.1536 80.5,89.5C 79.5224,89.0233 78.6891,88.3567 78,87.5C 77.278,90.8815 75.4447,91.8815 72.5,90.5C 71.9041,91.7161 71.7374,93.0494 72,94.5C 69.7998,92.1693 67.7998,92.1693 66,94.5C 64.9887,93.6634 63.8221,93.33 62.5,93.5C 62.5,93.1667 62.5,92.8333 62.5,92.5C 63.1667,92.5 63.5,92.1667 63.5,91.5C 64.391,90.8902 65.391,90.5569 66.5,90.5C 69.4374,91.4846 70.7708,90.1512 70.5,86.5C 70.5,86.1667 70.5,85.8333 70.5,85.5C 71.4345,86.5676 71.7678,87.901 71.5,89.5C 74.1268,89.7067 75.7935,88.54 76.5,86C 75.1229,83.797 73.1229,82.297 70.5,81.5C 72.4523,80.8967 74.4523,81.23 76.5,82.5C 77.3857,83.325 77.719,84.325 77.5,85.5C 78.5,85.5 79.5,85.5 80.5,85.5C 80.5,84.1667 80.5,82.8333 80.5,81.5 Z"/></g>
<g><path style="opacity:1" fill="#535353" d="M 24.5,88.5 C 24.1667,88.5 23.8333,88.5 23.5,88.5C 23.9717,85.1847 25.805,82.8514 29,81.5C 29.6667,82.1667 29.6667,82.8333 29,83.5C 26.5852,84.4113 25.0852,86.078 24.5,88.5 Z"/></g>
<g><path style="opacity:1" fill="#595959" d="M 70.5,85.5 C 70.5,85.8333 70.5,86.1667 70.5,86.5C 68.642,85.4045 66.9754,84.0712 65.5,82.5C 65.6667,82.1667 65.8333,81.8333 66,81.5C 67.6667,82.7332 69.1667,84.0665 70.5,85.5 Z"/></g>
<g><path style="opacity:0.469" fill="#040404" d="M 13.5,81.5 C 13.8333,81.5 14.1667,81.5 14.5,81.5C 14.5,82.8333 14.5,84.1667 14.5,85.5C 16.1993,85.4729 17.5326,84.8062 18.5,83.5C 18.2733,86.438 19.2733,88.7713 21.5,90.5C 20.7387,91.3909 19.7387,92.0576 18.5,92.5C 18.8104,90.7988 18.3104,89.1322 17,87.5C 16.3109,88.3567 15.4776,89.0233 14.5,89.5C 13.52,86.9135 13.1866,84.2469 13.5,81.5 Z"/></g>
<g><path style="opacity:1" fill="#616161" d="M 66.5,90.5 C 65.391,90.5569 64.391,90.8902 63.5,91.5C 63.5774,90.2502 64.244,89.4169 65.5,89C 64.8333,88.3333 64.1667,87.6667 63.5,87C 65.9342,86.6671 66.9342,87.8338 66.5,90.5 Z"/></g>
<g><path style="opacity:1" fill="#666666" d="M 31.5,92.5 C 30.8485,91.9094 30.1818,91.2427 29.5,90.5C 28.0052,91.7053 26.6719,91.7053 25.5,90.5C 27.1486,89.286 28.8152,87.9527 30.5,86.5C 31.293,87.3554 30.9597,88.1887 29.5,89C 30.9733,89.7096 31.6399,90.8762 31.5,92.5 Z"/></g>
<g><path style="opacity:0.63" fill="#020202" d="M 23.5,88.5 C 23.8333,88.5 24.1667,88.5 24.5,88.5C 24.8333,89.1667 25.1667,89.8333 25.5,90.5C 26.6719,91.7053 28.0052,91.7053 29.5,90.5C 30.1818,91.2427 30.8485,91.9094 31.5,92.5C 31.8333,92.5 32.1667,92.5 32.5,92.5C 32.5,92.8333 32.5,93.1667 32.5,93.5C 29.7629,92.7871 27.0963,92.7871 24.5,93.5C 23.8243,92.3984 23.1577,91.3984 22.5,90.5C 22.8333,89.8333 23.1667,89.1667 23.5,88.5 Z"/></g>
<g><path style="opacity:1" fill="#524f4c" d="M 55.5,71.5 C 55.2155,73.4147 55.5489,75.0813 56.5,76.5C 56.8333,76.5 57.1667,76.5 57.5,76.5C 57.4346,76.9382 57.6012,77.2716 58,77.5C 58.8159,76.1772 59.9826,75.5106 61.5,75.5C 56.6592,80.2579 56.1592,85.5912 60,91.5C 60.6708,92.2524 61.5041,92.5858 62.5,92.5C 62.5,92.8333 62.5,93.1667 62.5,93.5C 62.1667,93.5 61.8333,93.5 61.5,93.5C 59.5956,93.2624 58.2623,92.2624 57.5,90.5C 50.81,90.283 44.1433,90.283 37.5,90.5C 36.7638,92.2294 35.4305,93.2294 33.5,93.5C 33.1667,93.5 32.8333,93.5 32.5,93.5C 32.5,93.1667 32.5,92.8333 32.5,92.5C 34.4109,92.4257 35.5776,91.4257 36,89.5C 37.1989,86.2744 37.6989,82.941 37.5,79.5C 38.4767,82.2869 38.81,85.2869 38.5,88.5C 44.0496,88.7633 49.5496,88.4299 55,87.5C 55.5,87.1667 56,86.8333 56.5,86.5C 55.483,83.8262 55.3163,81.1596 56,78.5C 54.6703,79.5822 53.1703,80.2488 51.5,80.5C 53.5449,79.0772 54.5449,77.0772 54.5,74.5C 52.3453,74.628 50.3453,74.128 48.5,73C 48.7284,72.6012 49.0618,72.4346 49.5,72.5C 51.6208,72.6747 53.6208,72.3414 55.5,71.5 Z"/></g>
<g><path style="opacity:0.994" fill="#f4f2f2" d="M 37.5,90.5 C 44.1433,90.283 50.81,90.283 57.5,90.5C 50.8074,91.6834 44.1407,91.6834 37.5,90.5 Z"/></g>
<g><path style="opacity:0.953" fill="#41d7dd" d="M 37.5,90.5 C 44.1407,91.6834 50.8074,91.6834 57.5,90.5C 58.2623,92.2624 59.5956,93.2624 61.5,93.5C 60.1667,94.1667 58.8333,94.8333 57.5,95.5C 50.8333,95.5 44.1667,95.5 37.5,95.5C 36.1667,94.8333 34.8333,94.1667 33.5,93.5C 35.4305,93.2294 36.7638,92.2294 37.5,90.5 Z"/></g>
</svg>
