<?xml version="1.0" encoding="UTF-8"?>
<!DOCTYPE svg PUBLIC "-//W3C//DTD SVG 1.1//EN" "http://www.w3.org/Graphics/SVG/1.1/DTD/svg11.dtd">
<svg xmlns="http://www.w3.org/2000/svg" version="1.1" width="96px" height="96px" style="shape-rendering:geometricPrecision; text-rendering:geometricPrecision; image-rendering:optimizeQuality; fill-rule:evenodd; clip-rule:evenodd" xmlns:xlink="http://www.w3.org/1999/xlink">
<g><path style="opacity:0.97" fill="#fda220" d="M 37.5,-0.5 C 44.1667,-0.5 50.8333,-0.5 57.5,-0.5C 77.1667,5.16667 89.8333,17.8333 95.5,37.5C 95.5,44.1667 95.5,50.8333 95.5,57.5C 89.8333,77.1667 77.1667,89.8333 57.5,95.5C 50.8333,95.5 44.1667,95.5 37.5,95.5C 17.8333,89.8333 5.16667,77.1667 -0.5,57.5C -0.5,50.8333 -0.5,44.1667 -0.5,37.5C 5.16667,17.8333 17.8333,5.16667 37.5,-0.5 Z"/></g>
<g><path style="opacity:1" fill="#271f44" d="M 60.5,24.5 C 57.883,21.853 54.883,19.6863 51.5,18C 48.5184,17.502 45.5184,17.3354 42.5,17.5C 42.6107,16.8826 42.944,16.3826 43.5,16C 48.2795,14.9702 52.6129,15.9702 56.5,19C 58.4641,20.451 59.7974,22.2843 60.5,24.5 Z"/></g>
<g><path style="opacity:1" fill="#201a47" d="M 42.5,17.5 C 39.5271,21.1396 36.1938,24.4729 32.5,27.5C 34.1667,22.5 37.5,19.1667 42.5,17.5 Z"/></g>
<g><path style="opacity:1" fill="#312543" d="M 63.5,28.5 C 67.7838,34.4179 70.4505,41.0846 71.5,48.5C 71.1667,48.5 70.8333,48.5 70.5,48.5C 69.6303,43.7769 67.9637,39.4436 65.5,35.5C 64.551,33.2627 63.8844,30.9294 63.5,28.5 Z"/></g>
<g><path style="opacity:1" fill="#2a214d" d="M 32.5,27.5 C 32.1667,28.8333 31.8333,30.1667 31.5,31.5C 29.5617,35.0432 27.8951,38.7099 26.5,42.5C 25.8333,43.5 25.1667,44.5 24.5,45.5C 25.5599,38.7195 28.2265,32.7195 32.5,27.5 Z"/></g>
<g><path style="opacity:1" fill="#5f58a9" d="M 26.5,42.5 C 27.8951,38.7099 29.5617,35.0432 31.5,31.5C 32.7564,31.0962 33.9231,30.4295 35,29.5C 36.3008,30.8932 37.8008,31.3932 39.5,31C 38.0267,30.2904 37.3601,29.1238 37.5,27.5C 39.143,27.4802 40.4763,28.1468 41.5,29.5C 43.3615,28.4717 44.6948,26.9717 45.5,25C 48.5353,23.8114 51.5353,22.6448 54.5,21.5C 54.6427,23.2624 54.3094,24.9291 53.5,26.5C 54.1667,26.8333 54.8333,27.1667 55.5,27.5C 53.7333,30.7698 51.4,33.6032 48.5,36C 44.9494,38.2683 41.6161,40.7683 38.5,43.5C 34.5556,44.5558 30.5556,45.2225 26.5,45.5C 26.5,44.5 26.5,43.5 26.5,42.5 Z"/></g>
<g><path style="opacity:1" fill="#372d93" d="M 65.5,35.5 C 67.9637,39.4436 69.6303,43.7769 70.5,48.5C 70.815,52.3714 70.4816,56.0381 69.5,59.5C 69.2942,57.4508 68.4609,57.1175 67,58.5C 66.3878,55.9683 64.8878,55.1349 62.5,56C 65.1638,58.5316 64.8304,60.6983 61.5,62.5C 60.8333,60.1667 60.1667,57.8333 59.5,55.5C 58.1667,55.8333 56.8333,56.1667 55.5,56.5C 54.609,57.1098 53.609,57.4431 52.5,57.5C 52.5386,56.2438 52.0386,55.2438 51,54.5C 50.6667,56.1667 50.3333,57.8333 50,59.5C 48.3571,52.7237 47.0237,52.3904 46,58.5C 43.9581,58.1821 41.7914,58.0154 39.5,58C 39.8333,57.6667 40.1667,57.3333 40.5,57C 38.5087,56.6264 36.842,55.793 35.5,54.5C 36.9305,54.4208 38.2638,54.7542 39.5,55.5C 41.1013,54.9653 41.6013,53.9653 41,52.5C 38.9095,53.152 36.7429,53.3187 34.5,53C 33.3333,54.1667 32.1667,55.3333 31,56.5C 30.7003,54.9343 31.2003,53.601 32.5,52.5C 38.0285,50.2635 43.6952,48.0968 49.5,46C 52.6342,41.5137 56.8009,38.6803 62,37.5C 64.7329,39.4276 65.8995,38.7609 65.5,35.5 Z"/></g>
<g><path style="opacity:1" fill="#c66e49" d="M 32.5,52.5 C 31.2003,53.601 30.7003,54.9343 31,56.5C 32.1667,55.3333 33.3333,54.1667 34.5,53C 36.7429,53.3187 38.9095,53.152 41,52.5C 41.6013,53.9653 41.1013,54.9653 39.5,55.5C 38.2638,54.7542 36.9305,54.4208 35.5,54.5C 33.7341,56.7706 31.7341,58.9373 29.5,61C 27.8659,61.4935 26.1992,61.6602 24.5,61.5C 24.5,60.5 24.5,59.5 24.5,58.5C 26.1667,58.5 27.8333,58.5 29.5,58.5C 27.737,55.2376 28.737,53.2376 32.5,52.5 Z"/></g>
<g><path style="opacity:1" fill="#b15648" d="M 55.5,56.5 C 55.5,57.1667 55.8333,57.5 56.5,57.5C 55.3588,58.339 54.0255,59.0057 52.5,59.5C 51.2267,58.7435 51.2267,58.0768 52.5,57.5C 53.609,57.4431 54.609,57.1098 55.5,56.5 Z"/></g>
<g><path style="opacity:1" fill="#ef873c" d="M 59.5,55.5 C 59.1866,58.2469 59.52,60.9135 60.5,63.5C 61.1067,63.3764 61.44,63.0431 61.5,62.5C 64.8304,60.6983 65.1638,58.5316 62.5,56C 64.8878,55.1349 66.3878,55.9683 67,58.5C 68.4609,57.1175 69.2942,57.4508 69.5,59.5C 69.7845,61.4147 69.4511,63.0813 68.5,64.5C 67.7784,64.0825 67.2784,63.4158 67,62.5C 64.8425,64.4944 62.3425,65.8277 59.5,66.5C 58.8333,63.5 58.1667,60.5 57.5,57.5C 57.1667,57.5 56.8333,57.5 56.5,57.5C 55.8333,57.5 55.5,57.1667 55.5,56.5C 56.8333,56.1667 58.1667,55.8333 59.5,55.5 Z"/></g>
<g><path style="opacity:1" fill="#985463" d="M 59.5,55.5 C 60.1667,57.8333 60.8333,60.1667 61.5,62.5C 61.44,63.0431 61.1067,63.3764 60.5,63.5C 59.52,60.9135 59.1866,58.2469 59.5,55.5 Z"/></g>
<g><path style="opacity:1" fill="#423593" d="M 42.5,17.5 C 45.5184,17.3354 48.5184,17.502 51.5,18C 54.883,19.6863 57.883,21.853 60.5,24.5C 62.2624,25.2623 63.2624,26.5956 63.5,28.5C 63.8844,30.9294 64.551,33.2627 65.5,35.5C 65.8995,38.7609 64.7329,39.4276 62,37.5C 56.8009,38.6803 52.6342,41.5137 49.5,46C 43.6952,48.0968 38.0285,50.2635 32.5,52.5C 28.737,53.2376 27.737,55.2376 29.5,58.5C 27.8333,58.5 26.1667,58.5 24.5,58.5C 24.5,59.5 24.5,60.5 24.5,61.5C 26.1992,61.6602 27.8659,61.4935 29.5,61C 31.7341,58.9373 33.7341,56.7706 35.5,54.5C 36.842,55.793 38.5087,56.6264 40.5,57C 40.1667,57.3333 39.8333,57.6667 39.5,58C 41.7914,58.0154 43.9581,58.1821 46,58.5C 47.0237,52.3904 48.3571,52.7237 50,59.5C 50.3333,57.8333 50.6667,56.1667 51,54.5C 52.0386,55.2438 52.5386,56.2438 52.5,57.5C 51.2267,58.0768 51.2267,58.7435 52.5,59.5C 54.0255,59.0057 55.3588,58.339 56.5,57.5C 56.8333,57.5 57.1667,57.5 57.5,57.5C 57.1796,60.8984 57.513,64.2317 58.5,67.5C 59.1067,67.3764 59.44,67.0431 59.5,66.5C 62.3425,65.8277 64.8425,64.4944 67,62.5C 67.2784,63.4158 67.7784,64.0825 68.5,64.5C 66.6832,71.1481 62.3499,75.3148 55.5,77C 48.023,77.908 40.6897,77.408 33.5,75.5C 28.3533,73.1747 25.1866,69.1747 24,63.5C 23.2124,57.418 23.379,51.418 24.5,45.5C 25.1667,44.5 25.8333,43.5 26.5,42.5C 26.5,43.5 26.5,44.5 26.5,45.5C 30.5556,45.2225 34.5556,44.5558 38.5,43.5C 41.6161,40.7683 44.9494,38.2683 48.5,36C 51.4,33.6032 53.7333,30.7698 55.5,27.5C 54.8333,27.1667 54.1667,26.8333 53.5,26.5C 54.3094,24.9291 54.6427,23.2624 54.5,21.5C 51.5353,22.6448 48.5353,23.8114 45.5,25C 44.6948,26.9717 43.3615,28.4717 41.5,29.5C 40.4763,28.1468 39.143,27.4802 37.5,27.5C 37.3601,29.1238 38.0267,30.2904 39.5,31C 37.8008,31.3932 36.3008,30.8932 35,29.5C 33.9231,30.4295 32.7564,31.0962 31.5,31.5C 31.8333,30.1667 32.1667,28.8333 32.5,27.5C 36.1938,24.4729 39.5271,21.1396 42.5,17.5 Z"/></g>
<g><path style="opacity:1" fill="#914a5d" d="M 57.5,57.5 C 58.1667,60.5 58.8333,63.5 59.5,66.5C 59.44,67.0431 59.1067,67.3764 58.5,67.5C 57.513,64.2317 57.1796,60.8984 57.5,57.5 Z"/></g>
<g><path style="opacity:1" fill="#944b5d" d="M 45.5,65.5 C 45.5,65.1667 45.5,64.8333 45.5,64.5C 46.5823,61.5346 48.2489,61.0346 50.5,63C 48.5483,63.3661 46.8816,64.1995 45.5,65.5 Z"/></g>
<g><path style="opacity:1" fill="#ea7b34" d="M 45.5,64.5 C 45.5,64.8333 45.5,65.1667 45.5,65.5C 41.9007,65.2619 41.5673,66.2619 44.5,68.5C 44.0233,69.4776 43.3567,70.3109 42.5,71C 44.7695,71.7581 46.9361,71.5914 49,70.5C 49.3468,72.1802 50.3468,73.1802 52,73.5C 53.978,72.0944 56.1447,71.0944 58.5,70.5C 59.1667,70.5 59.5,70.8333 59.5,71.5C 56.6474,72.1892 54.1474,73.5225 52,75.5C 50.7753,75.1377 49.6086,74.6377 48.5,74C 43.1667,73.6667 37.8333,73.3333 32.5,73C 32.1667,72.6667 31.8333,72.3333 31.5,72C 34.674,70.2752 38.0073,68.9419 41.5,68C 39.69,65.3557 37.69,62.8557 35.5,60.5C 37.0745,59.3691 38.7412,59.2025 40.5,60C 38.0426,61.1544 38.0426,62.4877 40.5,64C 42.2275,63.4742 43.8941,63.6409 45.5,64.5 Z"/></g>
<g><path style="opacity:1" fill="#a64d4d" d="M 31.5,65.5 C 32.9284,67.3773 32.4284,68.7106 30,69.5C 29.5,69.1667 29,68.8333 28.5,68.5C 29.9935,67.8589 30.9935,66.8589 31.5,65.5 Z"/></g>
<g><path style="opacity:1" fill="#8c4358" d="M 59.5,71.5 C 59.5,70.8333 59.1667,70.5 58.5,70.5C 59.9425,69.2973 61.6092,68.7973 63.5,69C 62.3066,70.0946 60.9733,70.928 59.5,71.5 Z"/></g>
<g><path style="opacity:1" fill="#291f4c" d="M 70.5,48.5 C 70.8333,48.5 71.1667,48.5 71.5,48.5C 73.6451,71.5153 62.9784,81.6819 39.5,79C 36.9746,78.5762 34.9746,77.4095 33.5,75.5C 40.6897,77.408 48.023,77.908 55.5,77C 62.3499,75.3148 66.6832,71.1481 68.5,64.5C 69.4511,63.0813 69.7845,61.4147 69.5,59.5C 70.4816,56.0381 70.815,52.3714 70.5,48.5 Z"/></g>
</svg>
