<?xml version="1.0" encoding="UTF-8"?>
<!DOCTYPE svg PUBLIC "-//W3C//DTD SVG 1.1//EN" "http://www.w3.org/Graphics/SVG/1.1/DTD/svg11.dtd">
<svg xmlns="http://www.w3.org/2000/svg" version="1.1" width="96px" height="96px" style="shape-rendering:geometricPrecision; text-rendering:geometricPrecision; image-rendering:optimizeQuality; fill-rule:evenodd; clip-rule:evenodd" xmlns:xlink="http://www.w3.org/1999/xlink">
<g><path style="opacity:1" fill="#b542fc" d="M 38.5,-0.5 C 44.5,-0.5 50.5,-0.5 56.5,-0.5C 77.1755,4.84215 90.1755,17.8421 95.5,38.5C 95.5,44.8333 95.5,51.1667 95.5,57.5C 89.807,77.193 77.1403,89.8597 57.5,95.5C 50.8333,95.5 44.1667,95.5 37.5,95.5C 17.8333,89.8333 5.16667,77.1667 -0.5,57.5C -0.5,50.8333 -0.5,44.1667 -0.5,37.5C 5.27486,17.3915 18.2749,4.72484 38.5,-0.5 Z"/></g>
<g><path style="opacity:1" fill="#e2b7fe" d="M 49.5,8.5 C 49.5,9.5 49.5,10.5 49.5,11.5C 51.5,11.5 53.5,11.5 55.5,11.5C 55.5,10.5 55.5,9.5 55.5,8.5C 56.4345,9.56764 56.7678,10.901 56.5,12.5C 53.8333,12.5 51.1667,12.5 48.5,12.5C 48.2322,10.901 48.5655,9.56764 49.5,8.5 Z"/></g>
<g><path style="opacity:1" fill="#fdfcff" d="M 49.5,8.5 C 51.5,8.5 53.5,8.5 55.5,8.5C 55.5,9.5 55.5,10.5 55.5,11.5C 53.5,11.5 51.5,11.5 49.5,11.5C 49.5,10.5 49.5,9.5 49.5,8.5 Z"/></g>
<g><path style="opacity:1" fill="#fcf8ff" d="M 48.5,13.5 C 51.1667,13.5 53.8333,13.5 56.5,13.5C 56.5,16.8333 56.5,20.1667 56.5,23.5C 61.4474,24.2957 64.6141,26.9624 66,31.5C 62.4842,36.2809 58.9842,36.4476 55.5,32C 52.3307,31.0218 49.4973,31.5218 47,33.5C 46.3333,34.8333 46.3333,36.1667 47,37.5C 52.8356,41.5588 59.0022,45.0588 65.5,48C 70.9802,55.484 70.3136,62.484 63.5,69C 61.3496,70.4114 59.0163,71.2447 56.5,71.5C 56.5,74.8333 56.5,78.1667 56.5,81.5C 53.8333,81.5 51.1667,81.5 48.5,81.5C 48.6646,78.4816 48.498,75.4816 48,72.5C 40.7563,70.622 35.923,66.122 33.5,59C 33.9054,58.0546 34.572,57.3879 35.5,57C 38.1677,56.433 40.8344,55.933 43.5,55.5C 44.644,63.0707 48.9774,65.5707 56.5,63C 60.5822,59.3032 60.2488,55.9699 55.5,53C 51.082,51.1935 46.7486,49.1935 42.5,47C 33.2329,36.6531 34.8996,28.4864 47.5,22.5C 48.4841,19.5719 48.8174,16.5719 48.5,13.5 Z"/></g>
<g><path style="opacity:1" fill="#fefffe" d="M 18.5,30.5 C 21.1667,30.5 23.8333,30.5 26.5,30.5C 26.5,32.8333 26.5,35.1667 26.5,37.5C 23.8333,37.5 21.1667,37.5 18.5,37.5C 18.5,35.1667 18.5,32.8333 18.5,30.5 Z"/></g>
<g><path style="opacity:1" fill="#fefdfe" d="M 18.5,41.5 C 21.1667,41.5 23.8333,41.5 26.5,41.5C 26.5,51.8333 26.5,62.1667 26.5,72.5C 23.8333,72.5 21.1667,72.5 18.5,72.5C 18.5,62.1667 18.5,51.8333 18.5,41.5 Z"/></g>
<g><path style="opacity:1" fill="#fbf5fe" d="M 48.5,83.5 C 51.1667,83.5 53.8333,83.5 56.5,83.5C 56.5,84.5 56.5,85.5 56.5,86.5C 53.8333,86.5 51.1667,86.5 48.5,86.5C 48.5,85.5 48.5,84.5 48.5,83.5 Z"/></g>
</svg>
