<?xml version="1.0" encoding="UTF-8"?>
<!DOCTYPE svg PUBLIC "-//W3C//DTD SVG 1.1//EN" "http://www.w3.org/Graphics/SVG/1.1/DTD/svg11.dtd">
<svg xmlns="http://www.w3.org/2000/svg" version="1.1" width="96px" height="96px" style="shape-rendering:geometricPrecision; text-rendering:geometricPrecision; image-rendering:optimizeQuality; fill-rule:evenodd; clip-rule:evenodd" xmlns:xlink="http://www.w3.org/1999/xlink">
<g><path style="opacity:0.693" fill="#1f0502" d="M 45.5,33.5 C 45.298,35.9496 45.6314,38.283 46.5,40.5C 46.1667,40.5 45.8333,40.5 45.5,40.5C 42.3728,38.2421 39.0394,36.0754 35.5,34C 29.6513,33.1816 23.9846,33.3483 18.5,34.5C 14.0143,35.0056 10.181,33.6723 7,30.5C 6.7973,32.3908 7.2973,34.0575 8.5,35.5C 9.67284,37.5041 11.3395,39.0041 13.5,40C 16.6946,40.1805 19.6946,40.6805 22.5,41.5C 21.0768,43.7561 20.4101,46.2561 20.5,49C 22.1632,58.3128 21.8299,67.4794 19.5,76.5C 17.5759,76.7107 17.2426,77.3774 18.5,78.5C 18.56,79.0431 18.8933,79.3764 19.5,79.5C 21.7721,78.5589 23.7721,77.2255 25.5,75.5C 26.463,75.9698 26.463,76.6365 25.5,77.5C 21.5314,82.2874 16.5314,83.6208 10.5,81.5C 13.6211,79.2843 15.7878,76.2843 17,72.5C 17.2394,63.2445 17.4061,54.0778 17.5,45C 5.98021,42.7832 1.31354,35.9499 3.5,24.5C 6.88777,26.8606 10.5544,28.6939 14.5,30C 21.8333,30.6667 29.1667,31.3333 36.5,32C 39.1024,32.8834 41.2691,34.3834 43,36.5C 43.3768,35.0577 44.2101,34.0577 45.5,33.5 Z"/></g>
<g><path style="opacity:1" fill="#ebde82" d="M 18.5,34.5 C 23.5111,34.3341 28.5111,34.5007 33.5,35C 36.2565,35.9383 38.5899,37.4383 40.5,39.5C 40.44,40.0431 40.1067,40.3764 39.5,40.5C 37.3821,39.0541 35.0488,38.3874 32.5,38.5C 26.69,37.5104 20.69,37.1771 14.5,37.5C 12.7028,36.2702 10.7028,35.6036 8.5,35.5C 7.2973,34.0575 6.7973,32.3908 7,30.5C 10.181,33.6723 14.0143,35.0056 18.5,34.5 Z"/></g>
<g><path style="opacity:0.6" fill="#1c0808" d="M 90.5,55.5 C 90.5654,55.0618 90.3988,54.7284 90,54.5C 88.9254,59.0838 86.0921,61.0838 81.5,60.5C 80.5326,59.1938 79.1993,58.5271 77.5,58.5C 77.5569,57.391 77.8902,56.391 78.5,55.5C 79.5,55.5 80.5,55.5 81.5,55.5C 81.8333,56.5 82.5,57.1667 83.5,57.5C 83.7828,58.2891 84.2828,58.9558 85,59.5C 92.709,46.6148 90.5424,35.6148 78.5,26.5C 77.6906,24.9291 77.3573,23.2624 77.5,21.5C 78.5,21.5 79.5,21.5 80.5,21.5C 82.9472,16.6644 81.6138,13.4977 76.5,12C 72.8333,11.3333 69.1667,11.3333 65.5,12C 64.6021,15.1212 64.4354,18.2879 65,21.5C 60.4513,23.859 55.9513,26.359 51.5,29C 50.1196,30.9252 48.6196,32.7585 47,34.5C 46.761,37.0107 47.9277,38.6773 50.5,39.5C 50.8946,43.0023 52.5613,44.0023 55.5,42.5C 57.0729,42.7517 58.4062,43.4183 59.5,44.5C 60.5678,47.0752 62.2345,49.2419 64.5,51C 62.2925,52.0475 60.6258,53.5475 59.5,55.5C 58.791,56.404 57.791,56.7373 56.5,56.5C 54.0428,54.9991 54.0428,53.3324 56.5,51.5C 57.4734,51.0133 58.4734,50.5133 59.5,50C 57.981,48.6487 56.6477,47.1487 55.5,45.5C 51.2098,47.413 49.5432,50.7464 50.5,55.5C 50.5912,57.6977 49.9245,58.0311 48.5,56.5C 48.8205,51.3054 48.4872,46.3054 47.5,41.5C 47.5,40.8333 47.1667,40.5 46.5,40.5C 45.6314,38.283 45.298,35.9496 45.5,33.5C 49.3884,26.3689 55.3884,21.8689 63.5,20C 60.9208,16.1811 61.2541,12.5144 64.5,9C 71.8067,7.3084 78.3067,8.8084 84,13.5C 84.5303,17.7135 83.3637,21.3801 80.5,24.5C 90.4803,31.7855 94.3137,41.4522 92,53.5C 91.7216,54.4158 91.2216,55.0825 90.5,55.5 Z"/></g>
<g><path style="opacity:1" fill="#9bc2f0" d="M 83.5,57.5 C 85.8676,55.0443 86.8676,52.0443 86.5,48.5C 86.8158,45.0217 86.3158,41.6883 85,38.5C 83.6032,40.0703 82.1032,41.4036 80.5,42.5C 70.6588,40.2268 60.6588,39.2268 50.5,39.5C 47.9277,38.6773 46.761,37.0107 47,34.5C 48.6196,32.7585 50.1196,30.9252 51.5,29C 55.9513,26.359 60.4513,23.859 65,21.5C 64.4354,18.2879 64.6021,15.1212 65.5,12C 69.1667,11.3333 72.8333,11.3333 76.5,12C 81.6138,13.4977 82.9472,16.6644 80.5,21.5C 79.5,21.5 78.5,21.5 77.5,21.5C 77.3573,23.2624 77.6906,24.9291 78.5,26.5C 90.5424,35.6148 92.709,46.6148 85,59.5C 84.2828,58.9558 83.7828,58.2891 83.5,57.5 Z"/></g>
<g><path style="opacity:1" fill="#af3639" d="M 68.5,35.5 C 71.6741,35.9522 72.0075,36.9522 69.5,38.5C 67.4807,37.8671 67.1474,36.8671 68.5,35.5 Z"/></g>
<g><path style="opacity:1" fill="#d6e7fb" d="M 63.5,26.5 C 64.8333,26.5 66.1667,26.5 67.5,26.5C 67.7989,28.604 67.4656,30.604 66.5,32.5C 63.4622,34.5549 60.4622,36.5549 57.5,38.5C 53.6038,38.1238 52.6038,36.1238 54.5,32.5C 57.0839,29.7196 60.0839,27.7196 63.5,26.5 Z"/></g>
<g><path style="opacity:1" fill="#45689b" d="M 69.5,12.5 C 72.3399,12.8976 75.0066,13.7309 77.5,15C 75.1667,15.6667 72.8333,15.6667 70.5,15C 69.7476,14.3292 69.4142,13.4959 69.5,12.5 Z"/></g>
<g><path style="opacity:1" fill="#e3a144" d="M 8.5,35.5 C 10.7028,35.6036 12.7028,36.2702 14.5,37.5C 17.6893,38.1661 21.0227,38.8328 24.5,39.5C 24.1445,40.5223 23.4778,41.189 22.5,41.5C 19.6946,40.6805 16.6946,40.1805 13.5,40C 11.3395,39.0041 9.67284,37.5041 8.5,35.5 Z"/></g>
<g><path style="opacity:1" fill="#d69449" d="M 32.5,38.5 C 35.0488,38.3874 37.3821,39.0541 39.5,40.5C 40.1067,40.3764 40.44,40.0431 40.5,39.5C 42.0878,40.6353 42.4212,41.9686 41.5,43.5C 40.6919,43.1924 40.0253,42.6924 39.5,42C 35.5138,41.5012 31.5138,41.3345 27.5,41.5C 27.5,44.8333 27.5,48.1667 27.5,51.5C 27.1251,57.0092 26.4584,62.3425 25.5,67.5C 25.3336,58.4938 25.5002,49.4938 26,40.5C 27.7889,38.771 29.9556,38.1043 32.5,38.5 Z"/></g>
<g><path style="opacity:1" fill="#c85b64" d="M 50.5,39.5 C 60.6588,39.2268 70.6588,40.2268 80.5,42.5C 82.256,43.5521 82.9227,45.2188 82.5,47.5C 81.7261,48.1471 80.7261,48.4805 79.5,48.5C 72.8231,47.1581 66.1564,45.8248 59.5,44.5C 58.4062,43.4183 57.0729,42.7517 55.5,42.5C 52.5613,44.0023 50.8946,43.0023 50.5,39.5 Z"/></g>
<g><path style="opacity:1" fill="#b68040" d="M 47.5,41.5 C 48.4872,46.3054 48.8205,51.3054 48.5,56.5C 47.8597,59.6822 46.8597,60.0155 45.5,57.5C 46.8063,52.3839 47.473,47.0506 47.5,41.5 Z"/></g>
<g><path style="opacity:1" fill="#e7d57c" d="M 45.5,40.5 C 45.8333,40.5 46.1667,40.5 46.5,40.5C 47.1667,40.5 47.5,40.8333 47.5,41.5C 47.473,47.0506 46.8063,52.3839 45.5,57.5C 44.196,51.9327 44.196,46.266 45.5,40.5 Z"/></g>
<g><path style="opacity:1" fill="#e9d47b" d="M 56.5,51.5 C 56.6716,50.5084 56.3382,49.8417 55.5,49.5C 54.8333,49.1667 54.1667,48.8333 53.5,48.5C 52.2335,50.6943 52.2335,53.0276 53.5,55.5C 53.0431,56.2975 52.3764,56.6309 51.5,56.5C 51.5,55.8333 51.1667,55.5 50.5,55.5C 49.5432,50.7464 51.2098,47.413 55.5,45.5C 56.6477,47.1487 57.981,48.6487 59.5,50C 58.4734,50.5133 57.4734,51.0133 56.5,51.5 Z"/></g>
<g><path style="opacity:1" fill="#0b0905" d="M 53.5,48.5 C 54.1667,48.8333 54.8333,49.1667 55.5,49.5C 54.0206,53.4699 53.3539,53.1366 53.5,48.5 Z"/></g>
<g><path style="opacity:1" fill="#995f73" d="M 86.5,48.5 C 85.5894,50.751 84.256,52.751 82.5,54.5C 83.4171,51.9952 83.4171,49.6618 82.5,47.5C 82.9227,45.2188 82.256,43.5521 80.5,42.5C 82.1032,41.4036 83.6032,40.0703 85,38.5C 86.3158,41.6883 86.8158,45.0217 86.5,48.5 Z"/></g>
<g><path style="opacity:1" fill="#983840" d="M 59.5,44.5 C 66.1564,45.8248 72.8231,47.1581 79.5,48.5C 80.7261,48.4805 81.7261,48.1471 82.5,47.5C 83.4171,49.6618 83.4171,51.9952 82.5,54.5C 82.5,55.1667 82.1667,55.5 81.5,55.5C 80.5,55.5 79.5,55.5 78.5,55.5C 75.5185,54.8366 72.5185,54.17 69.5,53.5C 67.2586,54.0708 65.5919,55.4042 64.5,57.5C 63.3112,58.4287 61.9778,58.762 60.5,58.5C 60.7373,57.209 60.404,56.209 59.5,55.5C 60.6258,53.5475 62.2925,52.0475 64.5,51C 62.2345,49.2419 60.5678,47.0752 59.5,44.5 Z"/></g>
<g><path style="opacity:1" fill="#eecb81" d="M 14.5,37.5 C 20.69,37.1771 26.69,37.5104 32.5,38.5C 29.9556,38.1043 27.7889,38.771 26,40.5C 25.5002,49.4938 25.3336,58.4938 25.5,67.5C 24.7367,71.3696 22.7367,74.3696 19.5,76.5C 21.8299,67.4794 22.1632,58.3128 20.5,49C 20.4101,46.2561 21.0768,43.7561 22.5,41.5C 23.4778,41.189 24.1445,40.5223 24.5,39.5C 21.0227,38.8328 17.6893,38.1661 14.5,37.5 Z"/></g>
<g><path style="opacity:1" fill="#eae2e6" d="M 86.5,48.5 C 86.8676,52.0443 85.8676,55.0443 83.5,57.5C 82.5,57.1667 81.8333,56.5 81.5,55.5C 82.1667,55.5 82.5,55.1667 82.5,54.5C 84.256,52.751 85.5894,50.751 86.5,48.5 Z"/></g>
<g><path style="opacity:1" fill="#d49c5b" d="M 53.5,48.5 C 53.3539,53.1366 54.0206,53.4699 55.5,49.5C 56.3382,49.8417 56.6716,50.5084 56.5,51.5C 54.0428,53.3324 54.0428,54.9991 56.5,56.5C 59.1259,57.9468 58.7926,58.9468 55.5,59.5C 53.5828,59.2462 52.2495,58.2462 51.5,56.5C 52.3764,56.6309 53.0431,56.2975 53.5,55.5C 52.2335,53.0276 52.2335,50.6943 53.5,48.5 Z"/></g>
<g><path style="opacity:0.827" fill="#1f0904" d="M 18.5,34.5 C 23.9846,33.3483 29.6513,33.1816 35.5,34C 39.0394,36.0754 42.3728,38.2421 45.5,40.5C 44.196,46.266 44.196,51.9327 45.5,57.5C 46.8597,60.0155 47.8597,59.6822 48.5,56.5C 49.9245,58.0311 50.5912,57.6977 50.5,55.5C 51.1667,55.5 51.5,55.8333 51.5,56.5C 52.2495,58.2462 53.5828,59.2462 55.5,59.5C 58.7926,58.9468 59.1259,57.9468 56.5,56.5C 57.791,56.7373 58.791,56.404 59.5,55.5C 60.404,56.209 60.7373,57.209 60.5,58.5C 61.9778,58.762 63.3112,58.4287 64.5,57.5C 65.5919,55.4042 67.2586,54.0708 69.5,53.5C 72.5185,54.17 75.5185,54.8366 78.5,55.5C 77.8902,56.391 77.5569,57.391 77.5,58.5C 77.7394,60.4672 77.4061,62.3005 76.5,64C 78.0805,67.7001 79.0805,71.5335 79.5,75.5C 80.5426,77.8519 81.8759,78.0185 83.5,76C 82.5399,72.27 82.2065,68.4367 82.5,64.5C 81.7659,63.2921 81.4326,61.9587 81.5,60.5C 86.0921,61.0838 88.9254,59.0838 90,54.5C 90.3988,54.7284 90.5654,55.0618 90.5,55.5C 89.1334,59.7623 87.4667,63.929 85.5,68C 86.0779,69.8114 86.5779,71.6447 87,73.5C 88.586,74.376 90.086,75.376 91.5,76.5C 88.5388,78.5639 85.3721,80.2305 82,81.5C 79.828,80.4147 77.828,79.0814 76,77.5C 73.0069,80.614 69.8402,80.9474 66.5,78.5C 63.7946,79.1292 61.1279,79.4626 58.5,79.5C 56.3855,78.9661 54.5522,77.9661 53,76.5C 49.8232,80.1136 46.8232,80.1136 44,76.5C 37.9364,79.8333 33.6031,78.1667 31,71.5C 30.2854,74.6411 28.4521,76.6411 25.5,77.5C 26.463,76.6365 26.463,75.9698 25.5,75.5C 23.7721,77.2255 21.7721,78.5589 19.5,79.5C 18.8933,79.3764 18.56,79.0431 18.5,78.5C 26.682,74.8824 30.0153,68.5491 28.5,59.5C 28.4975,56.6445 28.1641,53.9779 27.5,51.5C 27.5,48.1667 27.5,44.8333 27.5,41.5C 31.5138,41.3345 35.5138,41.5012 39.5,42C 40.0253,42.6924 40.6919,43.1924 41.5,43.5C 42.4212,41.9686 42.0878,40.6353 40.5,39.5C 38.5899,37.4383 36.2565,35.9383 33.5,35C 28.5111,34.5007 23.5111,34.3341 18.5,34.5 Z"/></g>
<g><path style="opacity:1" fill="#cb9255" d="M 41.5,47.5 C 42.236,50.6954 42.9027,54.0287 43.5,57.5C 41.7145,59.9224 40.0478,59.9224 38.5,57.5C 36.6082,60.0443 34.7748,60.0443 33,57.5C 32.1993,54.633 32.3659,51.9664 33.5,49.5C 33.3367,51.8568 33.5034,54.1902 34,56.5C 33.9698,53.6385 34.8031,51.3052 36.5,49.5C 35.9898,52.3878 36.6565,54.7211 38.5,56.5C 40.2306,53.9292 41.2306,50.9292 41.5,47.5 Z"/></g>
<g><path style="opacity:1" fill="#ead67e" d="M 41.5,47.5 C 41.2306,50.9292 40.2306,53.9292 38.5,56.5C 38.8134,53.7531 38.48,51.0865 37.5,48.5C 36.8933,48.6236 36.56,48.9569 36.5,49.5C 34.8031,51.3052 33.9698,53.6385 34,56.5C 33.5034,54.1902 33.3367,51.8568 33.5,49.5C 35.7151,46.6599 38.3818,45.9932 41.5,47.5 Z"/></g>
<g><path style="opacity:1" fill="#0d0401" d="M 38.5,56.5 C 36.6565,54.7211 35.9898,52.3878 36.5,49.5C 36.56,48.9569 36.8933,48.6236 37.5,48.5C 38.48,51.0865 38.8134,53.7531 38.5,56.5 Z"/></g>
<g><path style="opacity:1" fill="#ead37f" d="M 71.5,57.5 C 69.7906,62.5443 68.9572,67.8776 69,73.5C 68.79,71.9419 68.29,70.6085 67.5,69.5C 66.4406,65.3612 66.6073,61.3612 68,57.5C 69.2917,56.2089 70.4583,56.2089 71.5,57.5 Z"/></g>
<g><path style="opacity:1" fill="#ca6f42" d="M 27.5,51.5 C 28.1641,53.9779 28.4975,56.6445 28.5,59.5C 30.0153,68.5491 26.682,74.8824 18.5,78.5C 17.2426,77.3774 17.5759,76.7107 19.5,76.5C 22.7367,74.3696 24.7367,71.3696 25.5,67.5C 26.4584,62.3425 27.1251,57.0092 27.5,51.5 Z"/></g>
<g><path style="opacity:1" fill="#e3bf72" d="M 77.5,58.5 C 79.1993,58.5271 80.5326,59.1938 81.5,60.5C 81.4326,61.9587 81.7659,63.2921 82.5,64.5C 80.8746,67.8909 79.8746,71.5575 79.5,75.5C 79.0805,71.5335 78.0805,67.7001 76.5,64C 77.4061,62.3005 77.7394,60.4672 77.5,58.5 Z"/></g>
<g><path style="opacity:1" fill="#feed95" d="M 48.5,62.5 C 47.8969,66.2728 47.2302,69.9394 46.5,73.5C 46.7892,69.8936 46.4558,66.3936 45.5,63C 46.5029,61.4542 47.5029,61.2875 48.5,62.5 Z"/></g>
<g><path style="opacity:1" fill="#e8d182" d="M 63.5,63.5 C 62.9115,66.6104 62.2448,69.6104 61.5,72.5C 61.8064,69.6146 61.4731,66.9479 60.5,64.5C 59.2073,63.3552 58.0407,63.6885 57,65.5C 56.8138,68.0356 56.3138,70.369 55.5,72.5C 53.0269,66.8807 54.8602,63.214 61,61.5C 62.301,61.6387 63.1344,62.3054 63.5,63.5 Z"/></g>
<g><path style="opacity:1" fill="#dc8f58" d="M 82.5,64.5 C 82.2065,68.4367 82.5399,72.27 83.5,76C 81.8759,78.0185 80.5426,77.8519 79.5,75.5C 79.8746,71.5575 80.8746,67.8909 82.5,64.5 Z"/></g>
<g><path style="opacity:1" fill="#e4ac69" d="M 37.5,61.5 C 39.6648,61.1159 41.3315,61.7826 42.5,63.5C 41.2243,64.6446 39.891,64.6446 38.5,63.5C 36.4583,68.0628 37.7917,71.2294 42.5,73C 39.5679,75.1454 37.0679,74.6454 35,71.5C 33.8613,67.5789 34.6946,64.2456 37.5,61.5 Z"/></g>
<g><path style="opacity:1" fill="#df9959" d="M 46.5,73.5 C 47.2302,69.9394 47.8969,66.2728 48.5,62.5C 50.5,62.1667 52.5,61.8333 54.5,61.5C 54.5,62.5 54.5,63.5 54.5,64.5C 52.8333,64.5 51.1667,64.5 49.5,64.5C 49.2229,67.4475 49.5562,70.2809 50.5,73C 49.1821,74.6298 47.8488,74.7965 46.5,73.5 Z"/></g>
<g><path style="opacity:1" fill="#df985d" d="M 60.5,64.5 C 59.8826,64.6107 59.3826,64.944 59,65.5C 58.5034,67.8098 58.3367,70.1432 58.5,72.5C 59.5,72.5 60.5,72.5 61.5,72.5C 62.2448,69.6104 62.9115,66.6104 63.5,63.5C 64.4692,67.0424 64.9692,70.709 65,74.5C 62.8746,74.2489 60.7079,74.2489 58.5,74.5C 56.9623,74.5466 55.9623,73.8799 55.5,72.5C 56.3138,70.369 56.8138,68.0356 57,65.5C 58.0407,63.6885 59.2073,63.3552 60.5,64.5 Z"/></g>
<g><path style="opacity:1" fill="#22160e" d="M 60.5,64.5 C 61.4731,66.9479 61.8064,69.6146 61.5,72.5C 60.5,72.5 59.5,72.5 58.5,72.5C 58.3367,70.1432 58.5034,67.8098 59,65.5C 59.3826,64.944 59.8826,64.6107 60.5,64.5 Z"/></g>
<g><path style="opacity:1" fill="#cb8b50" d="M 71.5,57.5 C 72.4728,58.7914 73.4728,58.7914 74.5,57.5C 75.3857,58.325 75.719,59.325 75.5,60.5C 74.1779,60.67 73.0113,60.3366 72,59.5C 71.8333,60 71.6667,60.5 71.5,61C 71.4507,65.8132 71.6174,70.6465 72,75.5C 70.4126,76.727 69.0793,76.3937 68,74.5C 67.5065,72.8659 67.3398,71.1992 67.5,69.5C 68.29,70.6085 68.79,71.9419 69,73.5C 68.9572,67.8776 69.7906,62.5443 71.5,57.5 Z"/></g>
</svg>
