<?xml version="1.0" encoding="UTF-8"?>
<!DOCTYPE svg PUBLIC "-//W3C//DTD SVG 1.1//EN" "http://www.w3.org/Graphics/SVG/1.1/DTD/svg11.dtd">
<svg xmlns="http://www.w3.org/2000/svg" version="1.1" width="96px" height="96px" style="shape-rendering:geometricPrecision; text-rendering:geometricPrecision; image-rendering:optimizeQuality; fill-rule:evenodd; clip-rule:evenodd" xmlns:xlink="http://www.w3.org/1999/xlink">
<g><path style="opacity:0.969" fill="#040404" d="M 37.5,-0.5 C 44.1667,-0.5 50.8333,-0.5 57.5,-0.5C 77.1667,5.16667 89.8333,17.8333 95.5,37.5C 95.5,44.1667 95.5,50.8333 95.5,57.5C 89.8333,77.1667 77.1667,89.8333 57.5,95.5C 50.8333,95.5 44.1667,95.5 37.5,95.5C 17.8333,89.8333 5.16667,77.1667 -0.5,57.5C -0.5,50.8333 -0.5,44.1667 -0.5,37.5C 5.16667,17.8333 17.8333,5.16667 37.5,-0.5 Z"/></g>
<g><path style="opacity:1" fill="#f3f3f3" d="M 64.5,18.5 C 62.1806,17.833 59.8473,17.6664 57.5,18C 61.0415,19.9767 64.7082,20.4767 68.5,19.5C 68.0431,18.7025 67.3764,18.3691 66.5,18.5C 66.067,15.8045 64.7337,13.6379 62.5,12C 67.8178,14.9727 72.3178,19.1394 76,24.5C 76.4962,26.0349 76.3295,27.5349 75.5,29C 75.6107,30.7215 76.1107,30.8882 77,29.5C 76.685,35.5368 79.0184,40.2035 84,43.5C 85.8253,48.9859 83.9919,51.4859 78.5,51C 83.8078,49.7475 84.6412,47.2475 81,43.5C 77.3259,46.0357 73.1592,47.2024 68.5,47C 67.4811,50.0481 65.4811,51.3814 62.5,51C 65.5585,49.4013 67.5585,46.9013 68.5,43.5C 65.9617,42.7031 63.6283,40.8697 61.5,38C 63.3008,37.6827 63.6341,37.016 62.5,36C 60.0912,34.2932 57.4245,33.4598 54.5,33.5C 54.6602,31.8008 54.4935,30.1341 54,28.5C 33.2607,27.5747 23.594,37.5747 25,58.5C 32.0421,74.268 43.5421,78.768 59.5,72C 63.3916,68.7742 66.5583,64.9409 69,60.5C 69.1953,62.2072 69.1953,63.8739 69,65.5C 71.2009,61.7597 72.8676,57.7597 74,53.5C 75.3858,69.105 68.5525,78.9384 53.5,83C 48.8159,83.4614 44.1493,83.2947 39.5,82.5C 41.0188,83.4098 42.6854,84.2432 44.5,85C 29.7709,83.9395 19.9376,76.4395 15,62.5C 11.9624,50.9944 14.1291,40.6611 21.5,31.5C 16.1456,35.8734 13.1456,41.54 12.5,48.5C 11.8333,49.8333 11.1667,51.1667 10.5,52.5C 10.0705,28.7394 21.7372,15.4061 45.5,12.5C 47.9231,12.5497 49.7564,13.5497 51,15.5C 51.1379,13.5676 50.6379,11.7343 49.5,10C 49.8333,9.83333 50.1667,9.66667 50.5,9.5C 51.5,10.8333 52.5,12.1667 53.5,13.5C 57.5216,14.6082 61.1882,16.2749 64.5,18.5 Z"/></g>
<g><path style="opacity:1" fill="#7f7f7f" d="M 64.5,18.5 C 65.1667,19.8333 65.8333,19.8333 66.5,18.5C 67.3764,18.3691 68.0431,18.7025 68.5,19.5C 64.7082,20.4767 61.0415,19.9767 57.5,18C 59.8473,17.6664 62.1806,17.833 64.5,18.5 Z"/></g>
<g><path style="opacity:1" fill="#3e3e3e" d="M 21.5,31.5 C 21.5173,29.9719 22.184,29.4719 23.5,30C 22.9558,30.7172 22.2891,31.2172 21.5,31.5 Z"/></g>
<g><path style="opacity:1" fill="#3e3e3e" d="M 62.5,26.5 C 64.6851,27.8348 66.1851,29.5014 67,31.5C 64.5852,30.5887 63.0852,28.922 62.5,26.5 Z"/></g>
<g><path style="opacity:1" fill="#565656" d="M 12.5,48.5 C 12.6655,52.5138 12.4988,56.5138 12,60.5C 10.7475,57.9865 10.2475,55.3198 10.5,52.5C 11.1667,51.1667 11.8333,49.8333 12.5,48.5 Z"/></g>
<g><path style="opacity:1" fill="#d3d3d3" d="M 77.5,60.5 C 78.0208,69.2794 74.3541,76.1127 66.5,81C 63.7025,82.9137 60.7025,83.9137 57.5,84C 68.3258,79.6764 74.9925,71.8431 77.5,60.5 Z"/></g>
<g><path style="opacity:1" fill="#343434" d="M 39.5,82.5 C 38.2438,82.5386 37.2438,82.0386 36.5,81C 37.9976,80.4153 38.9976,80.9153 39.5,82.5 Z"/></g>
</svg>
