<?xml version="1.0" encoding="UTF-8"?>
<!DOCTYPE svg PUBLIC "-//W3C//DTD SVG 1.1//EN" "http://www.w3.org/Graphics/SVG/1.1/DTD/svg11.dtd">
<svg xmlns="http://www.w3.org/2000/svg" version="1.1" width="96px" height="96px" style="shape-rendering:geometricPrecision; text-rendering:geometricPrecision; image-rendering:optimizeQuality; fill-rule:evenodd; clip-rule:evenodd" xmlns:xlink="http://www.w3.org/1999/xlink">
<g><path style="opacity:0.993" fill="#ebeeef" d="M 36.5,-0.5 C 43.8333,-0.5 51.1667,-0.5 58.5,-0.5C 69.3762,2.9476 78.7095,8.9476 86.5,17.5C 87.8972,21.0605 89.8972,24.2272 92.5,27C 92.1667,27.3333 91.8333,27.6667 91.5,28C 93.1523,30.778 94.4857,33.6114 95.5,36.5C 95.5,43.8333 95.5,51.1667 95.5,58.5C 94.2542,61.4525 92.9209,64.4525 91.5,67.5C 91.1667,67.5 90.8333,67.5 90.5,67.5C 89.4206,65.457 87.754,64.1237 85.5,63.5C 74.4444,59.9412 66.6111,63.6079 62,74.5C 61.2042,77.0385 61.3709,79.3718 62.5,81.5C 62.8838,85.2725 64.5505,88.2725 67.5,90.5C 67.5,91.1667 67.5,91.8333 67.5,92.5C 64.2938,93.0785 61.2938,94.0785 58.5,95.5C 51.1667,95.5 43.8333,95.5 36.5,95.5C 25.6238,92.0524 16.2905,86.0524 8.5,77.5C 7.10279,73.9395 5.10279,70.7728 2.5,68C 2.83333,67.6667 3.16667,67.3333 3.5,67C 1.84766,64.222 0.514325,61.3886 -0.5,58.5C -0.5,51.1667 -0.5,43.8333 -0.5,36.5C 1.95648,30.0032 4.95648,23.6699 8.5,17.5C 11.5,14.5 14.5,11.5 17.5,8.5C 23.6895,4.92127 30.0229,1.92127 36.5,-0.5 Z"/></g>
<g><path style="opacity:0.012" fill="#eaf1ed" d="M 29.5,0.5 C 30.8333,1.16667 30.8333,1.16667 29.5,0.5 Z"/></g>
<g><path style="opacity:0.008" fill="#fdfdfa" d="M 64.5,0.5 C 65.8333,1.16667 65.8333,1.16667 64.5,0.5 Z"/></g>
<g><path style="opacity:0.004" fill="#a2b2b7" d="M 17.5,8.5 C 16.8333,7.16667 16.8333,7.16667 17.5,8.5 Z"/></g>
<g><path style="opacity:1" fill="#2d2e2e" d="M 50.5,9.5 C 58.1396,22.1493 65.8063,34.816 73.5,47.5C 72.9953,48.9185 71.9953,49.5852 70.5,49.5C 70.4128,48.5015 70.0795,47.3349 69.5,46C 62.7968,43.1632 56.1301,40.3298 49.5,37.5C 49.1731,27.985 49.5064,18.6517 50.5,9.5 Z"/></g>
<g><path style="opacity:0.004" fill="#e4ebeb" d="M 8.5,17.5 C 7.83333,16.1667 7.83333,16.1667 8.5,17.5 Z"/></g>
<g><path style="opacity:1" fill="#808182" d="M 50.5,9.5 C 49.5064,18.6517 49.1731,27.985 49.5,37.5C 49.1667,37.5 48.8333,37.5 48.5,37.5C 40.594,40.758 32.9273,44.4246 25.5,48.5C 24.475,48.1034 24.3083,47.4368 25,46.5C 31.6486,35.5116 38.3152,24.5116 45,13.5C 46.0458,11.9095 47.2125,10.4095 48.5,9C 49.4368,8.30831 50.1034,8.47498 50.5,9.5 Z"/></g>
<g><path style="opacity:0.004" fill="#e4ebeb" d="M 86.5,16.5 C 87.8333,17.1667 87.8333,17.1667 86.5,16.5 Z"/></g>
<g><path style="opacity:0.008" fill="#ece6e1" d="M 0.5,29.5 C 1.83333,30.1667 1.83333,30.1667 0.5,29.5 Z"/></g>
<g><path style="opacity:0.008" fill="#fefffe" d="M 93.5,29.5 C 94.8333,30.1667 94.8333,30.1667 93.5,29.5 Z"/></g>
<g><path style="opacity:1" fill="#333434" d="M 48.5,37.5 C 49.1382,45.5994 49.8048,53.5994 50.5,61.5C 49.7494,62.5735 48.7494,62.7401 47.5,62C 39.9124,57.7162 32.579,53.2162 25.5,48.5C 32.9273,44.4246 40.594,40.758 48.5,37.5 Z"/></g>
<g><path style="opacity:1" fill="#121212" d="M 48.5,37.5 C 48.8333,37.5 49.1667,37.5 49.5,37.5C 56.1301,40.3298 62.7968,43.1632 69.5,46C 70.0795,47.3349 70.4128,48.5015 70.5,49.5C 64.2006,53.9885 57.5339,57.9885 50.5,61.5C 49.8048,53.5994 49.1382,45.5994 48.5,37.5 Z"/></g>
<g><path style="opacity:1" fill="#7f8081" d="M 49.5,67.5 C 49.1771,73.69 49.5104,79.69 50.5,85.5C 50.1034,86.525 49.4368,86.6917 48.5,86C 40.5,75.3333 32.5,64.6667 24.5,54C 32.8636,58.1381 41.1969,62.6381 49.5,67.5 Z"/></g>
<g><path style="opacity:1" fill="#2e2f2f" d="M 50.5,85.5 C 49.5104,79.69 49.1771,73.69 49.5,67.5C 55.0793,64.0344 60.746,60.5344 66.5,57C 68.4021,55.6989 70.4021,55.0322 72.5,55C 64.9481,65.0452 57.6148,75.2119 50.5,85.5 Z"/></g>
<g><path style="opacity:0.008" fill="#fefffe" d="M 0.5,64.5 C 1.83333,65.1667 1.83333,65.1667 0.5,64.5 Z"/></g>
<g><path style="opacity:0.008" fill="#e1dad9" d="M 93.5,64.5 C 94.8333,65.1667 94.8333,65.1667 93.5,64.5 Z"/></g>
<g><path style="opacity:1" fill="#761d46" d="M 85.5,63.5 C 87.754,64.1237 89.4206,65.457 90.5,67.5C 89.5,68.8333 88.5,70.1667 87.5,71.5C 86.8333,71.1667 86.1667,70.8333 85.5,70.5C 84.4097,69.1429 83.0764,68.1429 81.5,67.5C 82.5274,65.8058 83.8608,64.4725 85.5,63.5 Z"/></g>
<g><path style="opacity:1" fill="#cd2c4f" d="M 85.5,63.5 C 83.8608,64.4725 82.5274,65.8058 81.5,67.5C 73.7351,66.6089 69.0685,69.9422 67.5,77.5C 66.4412,79.5554 64.7746,80.8888 62.5,81.5C 61.3709,79.3718 61.2042,77.0385 62,74.5C 66.6111,63.6079 74.4444,59.9412 85.5,63.5 Z"/></g>
<g><path style="opacity:1" fill="#c1738c" d="M 81.5,67.5 C 83.0764,68.1429 84.4097,69.1429 85.5,70.5C 85.0618,70.4346 84.7284,70.6012 84.5,71C 85.8228,71.8159 86.4894,72.9826 86.5,74.5C 86.1667,74.5 85.8333,74.5 85.5,74.5C 85.0472,73.5416 84.3805,72.7083 83.5,72C 80.28,70.4749 76.9467,69.8083 73.5,70C 72.1667,70.6667 72.1667,71.3333 73.5,72C 72.7471,73.487 71.9138,73.6537 71,72.5C 68.729,75.1195 68.0623,78.1195 69,81.5C 69.3333,79.8333 69.6667,78.1667 70,76.5C 71.2519,79.6338 71.2519,82.6338 70,85.5C 67.9771,83.2307 67.1437,80.5641 67.5,77.5C 69.0685,69.9422 73.7351,66.6089 81.5,67.5 Z"/></g>
<g><path style="opacity:1" fill="#923d5f" d="M 85.5,74.5 C 79.25,74.2423 76.9167,77.0756 78.5,83C 77.244,83.4169 76.5774,84.2502 76.5,85.5C 75.1667,86.1667 73.8333,86.8333 72.5,87.5C 71.5041,87.5858 70.6708,87.2524 70,86.5C 69.3918,88.0664 68.5585,89.3998 67.5,90.5C 64.5505,88.2725 62.8838,85.2725 62.5,81.5C 64.7746,80.8888 66.4412,79.5554 67.5,77.5C 67.1437,80.5641 67.9771,83.2307 70,85.5C 71.2519,82.6338 71.2519,79.6338 70,76.5C 69.6667,78.1667 69.3333,79.8333 69,81.5C 68.0623,78.1195 68.729,75.1195 71,72.5C 71.9138,73.6537 72.7471,73.487 73.5,72C 72.1667,71.3333 72.1667,70.6667 73.5,70C 76.9467,69.8083 80.28,70.4749 83.5,72C 84.3805,72.7083 85.0472,73.5416 85.5,74.5 Z"/></g>
<g><path style="opacity:0.004" fill="#e2e9e9" d="M 8.5,77.5 C 7.83333,78.1667 7.83333,78.1667 8.5,77.5 Z"/></g>
<g><path style="opacity:0.935" fill="#26163f" d="M 90.5,67.5 C 90.8333,67.5 91.1667,67.5 91.5,67.5C 93.0737,68.9842 94.407,70.6508 95.5,72.5C 95.5,76.8333 95.5,81.1667 95.5,85.5C 92.5,89.1667 89.1667,92.5 85.5,95.5C 81.1667,95.5 76.8333,95.5 72.5,95.5C 71.0351,94.2632 69.3684,93.2632 67.5,92.5C 67.5,91.8333 67.5,91.1667 67.5,90.5C 68.5585,89.3998 69.3918,88.0664 70,86.5C 70.6708,87.2524 71.5041,87.5858 72.5,87.5C 75.9428,90.951 79.6094,91.2844 83.5,88.5C 89.7683,84.0616 91.1016,78.395 87.5,71.5C 88.5,70.1667 89.5,68.8333 90.5,67.5 Z"/></g>
<g><path style="opacity:1" fill="#4d254b" d="M 85.5,74.5 C 85.8333,74.5 86.1667,74.5 86.5,74.5C 89.2117,78.6744 88.545,82.3411 84.5,85.5C 81.6481,86.2583 78.9815,86.2583 76.5,85.5C 76.5774,84.2502 77.244,83.4169 78.5,83C 76.9167,77.0756 79.25,74.2423 85.5,74.5 Z"/></g>
<g><path style="opacity:1" fill="#dbd6de" d="M 85.5,70.5 C 86.1667,70.8333 86.8333,71.1667 87.5,71.5C 91.1016,78.395 89.7683,84.0616 83.5,88.5C 83.0618,88.5654 82.7284,88.3988 82.5,88C 83.3805,87.2917 84.0472,86.4584 84.5,85.5C 88.545,82.3411 89.2117,78.6744 86.5,74.5C 86.4894,72.9826 85.8228,71.8159 84.5,71C 84.7284,70.6012 85.0618,70.4346 85.5,70.5 Z"/></g>
<g><path style="opacity:1" fill="#7b6883" d="M 76.5,85.5 C 78.9815,86.2583 81.6481,86.2583 84.5,85.5C 84.0472,86.4584 83.3805,87.2917 82.5,88C 82.7284,88.3988 83.0618,88.5654 83.5,88.5C 79.6094,91.2844 75.9428,90.951 72.5,87.5C 73.8333,86.8333 75.1667,86.1667 76.5,85.5 Z"/></g>
<g><path style="opacity:0.008" fill="#fcfcfa" d="M 29.5,93.5 C 30.8333,94.1667 30.8333,94.1667 29.5,93.5 Z"/></g>
<g><path style="opacity:0.008" fill="#fcfcfa" d="M 64.5,93.5 C 65.8333,94.1667 65.8333,94.1667 64.5,93.5 Z"/></g>
</svg>
