<?xml version="1.0" encoding="UTF-8"?>
<!DOCTYPE svg PUBLIC "-//W3C//DTD SVG 1.1//EN" "http://www.w3.org/Graphics/SVG/1.1/DTD/svg11.dtd">
<svg xmlns="http://www.w3.org/2000/svg" version="1.1" width="96px" height="96px" style="shape-rendering:geometricPrecision; text-rendering:geometricPrecision; image-rendering:optimizeQuality; fill-rule:evenodd; clip-rule:evenodd" xmlns:xlink="http://www.w3.org/1999/xlink">
<g><path style="opacity:0.999" fill="#7c969d" d="M 37.5,-0.5 C 44.1667,-0.5 50.8333,-0.5 57.5,-0.5C 59.8876,0.348502 62.2209,1.3485 64.5,2.5C 62.9739,4.12997 60.9739,4.96331 58.5,5C 60.9316,6.08747 60.5983,6.58747 57.5,6.5C 40.0976,2.96634 25.7642,7.96634 14.5,21.5C 13.316,19.5901 11.816,19.2568 10,20.5C 9.51722,19.552 9.35055,18.552 9.5,17.5C 16.9397,8.45303 26.2731,2.45303 37.5,-0.5 Z"/></g>
<g><path style="opacity:1" fill="#849ca2" d="M 64.5,2.5 C 77.4356,7.1026 86.4356,15.7693 91.5,28.5C 90.3473,29.3132 90.3473,30.3132 91.5,31.5C 90.7261,32.7112 89.8928,32.7112 89,31.5C 88.7679,32.7375 88.2679,33.7375 87.5,34.5C 82.27,19.933 72.27,10.5996 57.5,6.5C 60.5983,6.58747 60.9316,6.08747 58.5,5C 60.9739,4.96331 62.9739,4.12997 64.5,2.5 Z"/></g>
<g><path style="opacity:1" fill="#fcfdfd" d="M 57.5,6.5 C 72.27,10.5996 82.27,19.933 87.5,34.5C 89.0226,37.6297 89.6893,40.963 89.5,44.5C 89.2755,51.288 88.2755,57.9546 86.5,64.5C 81.0256,75.3091 72.6922,82.9758 61.5,87.5C 59.901,87.2322 58.5676,87.5655 57.5,88.5C 38.4053,91.9476 23.072,85.9476 11.5,70.5C 9.07533,64.8878 7.07533,59.2211 5.5,53.5C 5.5,49.8333 5.5,46.1667 5.5,42.5C 6.59445,34.6485 9.59445,27.6485 14.5,21.5C 25.7642,7.96634 40.0976,2.96634 57.5,6.5 Z"/></g>
<g><path style="opacity:1" fill="#6e8994" d="M 41.5,26.5 C 54.1745,24.916 63.0078,29.916 68,41.5C 69.4533,49.5308 67.2866,56.3642 61.5,62C 63.8098,62.4966 66.1432,62.6633 68.5,62.5C 68.5,64.5 68.5,66.5 68.5,68.5C 63.1667,68.5 57.8333,68.5 52.5,68.5C 51.1982,63.3555 52.8648,59.8555 57.5,58C 64.3951,50.045 64.0618,42.3783 56.5,35C 40.6276,29.3391 32.7942,34.8391 33,51.5C 34.6367,55.6365 37.47,58.6365 41.5,60.5C 42.48,63.0865 42.8134,65.7531 42.5,68.5C 37.1667,68.5 31.8333,68.5 26.5,68.5C 26.5,66.5 26.5,64.5 26.5,62.5C 28.8568,62.6633 31.1902,62.4966 33.5,62C 22.1102,47.0196 24.7769,35.1862 41.5,26.5 Z"/></g>
<g><path style="opacity:1" fill="#92a7aa" d="M 9.5,17.5 C 9.35055,18.552 9.51722,19.552 10,20.5C 11.816,19.2568 13.316,19.5901 14.5,21.5C 9.59445,27.6485 6.59445,34.6485 5.5,42.5C 3.91379,41.3247 2.41379,39.9914 1,38.5C 0.721579,39.4158 0.221579,40.0825 -0.5,40.5C -0.5,39.5 -0.5,38.5 -0.5,37.5C 1.50098,30.1615 4.83432,23.4948 9.5,17.5 Z"/></g>
<g><path style="opacity:1" fill="#9aaeaf" d="M 91.5,28.5 C 93.2243,31.3448 94.5577,34.3448 95.5,37.5C 95.5,41.5 95.5,45.5 95.5,49.5C 93.8297,49.7512 92.3297,50.4178 91,51.5C 90.8138,48.9644 90.3138,46.631 89.5,44.5C 89.6893,40.963 89.0226,37.6297 87.5,34.5C 88.2679,33.7375 88.7679,32.7375 89,31.5C 89.8928,32.7112 90.7261,32.7112 91.5,31.5C 90.3473,30.3132 90.3473,29.3132 91.5,28.5 Z"/></g>
<g><path style="opacity:0.964" fill="#a0b3b2" d="M 5.5,42.5 C 5.5,46.1667 5.5,49.8333 5.5,53.5C 5.5,54.8333 5.5,56.1667 5.5,57.5C 4.16667,57.5 2.83333,57.5 1.5,57.5C 1.63318,54.075 0.966513,53.7417 -0.5,56.5C -0.5,51.1667 -0.5,45.8333 -0.5,40.5C 0.221579,40.0825 0.721579,39.4158 1,38.5C 2.41379,39.9914 3.91379,41.3247 5.5,42.5 Z"/></g>
<g><path style="opacity:0.949" fill="#a8b9b7" d="M 89.5,44.5 C 90.3138,46.631 90.8138,48.9644 91,51.5C 92.3297,50.4178 93.8297,49.7512 95.5,49.5C 95.5,52.1667 95.5,54.8333 95.5,57.5C 94.5418,59.3024 93.8751,61.3024 93.5,63.5C 92.7784,63.0825 92.2784,62.4158 92,61.5C 91.6905,62.7659 91.1905,63.9326 90.5,65C 88.916,64.6836 87.5827,64.5169 86.5,64.5C 88.2755,57.9546 89.2755,51.288 89.5,44.5 Z"/></g>
<g><path style="opacity:1" fill="#aebebb" d="M 5.5,53.5 C 7.07533,59.2211 9.07533,64.8878 11.5,70.5C 11.5,71.5 11.5,72.5 11.5,73.5C 9.90097,73.2322 8.56764,73.5655 7.5,74.5C 4.0248,69.2162 1.35814,63.5495 -0.5,57.5C -0.5,57.1667 -0.5,56.8333 -0.5,56.5C 0.966513,53.7417 1.63318,54.075 1.5,57.5C 2.83333,57.5 4.16667,57.5 5.5,57.5C 5.5,56.1667 5.5,54.8333 5.5,53.5 Z"/></g>
<g><path style="opacity:1" fill="#bdcbc4" d="M 11.5,70.5 C 23.072,85.9476 38.4053,91.9476 57.5,88.5C 60.0972,88.7208 60.0972,89.2208 57.5,90C 47.7441,92.2412 38.2441,91.4079 29,87.5C 26.9907,87.7579 25.1573,88.4245 23.5,89.5C 16.8818,85.8822 11.5485,80.8822 7.5,74.5C 8.56764,73.5655 9.90097,73.2322 11.5,73.5C 11.5,72.5 11.5,71.5 11.5,70.5 Z"/></g>
<g><path style="opacity:1" fill="#bbcac3" d="M 93.5,63.5 C 89.0876,75.2477 81.4209,84.2477 70.5,90.5C 70.631,89.7611 70.4643,89.0944 70,88.5C 68.769,89.1078 67.4357,89.4411 66,89.5C 63.9919,89.6932 62.4919,89.0265 61.5,87.5C 72.6922,82.9758 81.0256,75.3091 86.5,64.5C 87.5827,64.5169 88.916,64.6836 90.5,65C 91.1905,63.9326 91.6905,62.7659 92,61.5C 92.2784,62.4158 92.7784,63.0825 93.5,63.5 Z"/></g>
<g><path style="opacity:0.998" fill="#c5d2ca" d="M 57.5,88.5 C 58.5676,87.5655 59.901,87.2322 61.5,87.5C 62.4919,89.0265 63.9919,89.6932 66,89.5C 67.4357,89.4411 68.769,89.1078 70,88.5C 70.4643,89.0944 70.631,89.7611 70.5,90.5C 66.1634,92.3861 61.8301,94.0528 57.5,95.5C 50.8333,95.5 44.1667,95.5 37.5,95.5C 32.6113,94.0567 27.9447,92.0567 23.5,89.5C 25.1573,88.4245 26.9907,87.7579 29,87.5C 38.2441,91.4079 47.7441,92.2412 57.5,90C 60.0972,89.2208 60.0972,88.7208 57.5,88.5 Z"/></g>
</svg>
