<?xml version="1.0" encoding="UTF-8"?>
<!DOCTYPE svg PUBLIC "-//W3C//DTD SVG 1.1//EN" "http://www.w3.org/Graphics/SVG/1.1/DTD/svg11.dtd">
<svg xmlns="http://www.w3.org/2000/svg" version="1.1" width="96px" height="96px" style="shape-rendering:geometricPrecision; text-rendering:geometricPrecision; image-rendering:optimizeQuality; fill-rule:evenodd; clip-rule:evenodd" xmlns:xlink="http://www.w3.org/1999/xlink">
<g><path style="opacity:0.993" fill="#1b1812" d="M 65.5,22.5 C 64.0695,22.4208 62.7362,22.7542 61.5,23.5C 60.8182,22.7573 60.1515,22.0906 59.5,21.5C 43.7445,13.1993 32.0779,17.1993 24.5,33.5C 23.3023,37.4885 23.3023,41.4885 24.5,45.5C 25.5178,44.8075 26.5178,44.1408 27.5,43.5C 26.621,45.228 25.9543,47.0614 25.5,49C 25.8333,49.8333 26.1667,50.6667 26.5,51.5C 28.6726,48.8278 31.1726,46.4945 34,44.5C 34.6667,45.1667 34.6667,45.8333 34,46.5C 26.6562,50.2636 26.8229,53.2636 34.5,55.5C 35.7997,56.601 36.2997,57.9343 36,59.5C 33.8266,56.723 33.3266,56.8897 34.5,60C 33.0577,60.3768 32.0577,61.2101 31.5,62.5C 30.8333,62.1667 30.1667,61.8333 29.5,61.5C 29.1667,61.5 28.8333,61.5 28.5,61.5C 32.8281,58.5192 32.4948,57.5192 27.5,58.5C 26.8333,58.5 26.5,58.1667 26.5,57.5C 29.1287,54.5594 28.462,53.8927 24.5,55.5C 16.3454,38.1309 20.6788,24.9642 37.5,16C 48.3249,12.3908 57.6583,14.5574 65.5,22.5 Z"/></g>
<g><path style="opacity:0.996" fill="#e88f92" d="M 59.5,21.5 C 56.8728,22.0916 54.2062,22.4249 51.5,22.5C 49.1853,19.8112 47.1853,20.1445 45.5,23.5C 39.9579,25.0468 35.9579,28.3801 33.5,33.5C 30.5,33.5 27.5,33.5 24.5,33.5C 32.0779,17.1993 43.7445,13.1993 59.5,21.5 Z"/></g>
<g><path style="opacity:0.78" fill="#569d45" d="M 69.5,23.5 C 68.5,23.5 67.5,23.5 66.5,23.5C 66.5,22.8333 66.1667,22.5 65.5,22.5C 57.6583,14.5574 48.3249,12.3908 37.5,16C 20.6788,24.9642 16.3454,38.1309 24.5,55.5C 24.5,56.1667 24.1667,56.5 23.5,56.5C 23.1667,56.5 22.8333,56.5 22.5,56.5C 14.5858,41.1443 17.2525,27.9777 30.5,17C 39.7948,11.8362 49.4614,11.1695 59.5,15C 63.4623,17.1399 66.7956,19.9733 69.5,23.5 Z"/></g>
<g><path style="opacity:0.996" fill="#433129" d="M 51.5,22.5 C 49.4352,22.5172 47.4352,22.8505 45.5,23.5C 47.1853,20.1445 49.1853,19.8112 51.5,22.5 Z"/></g>
<g><path style="opacity:0.992" fill="#7e5c4a" d="M 59.5,21.5 C 60.1515,22.0906 60.8182,22.7573 61.5,23.5C 62.7362,22.7542 64.0695,22.4208 65.5,22.5C 66.1667,22.5 66.5,22.8333 66.5,23.5C 64.1582,23.7748 64.1582,24.6081 66.5,26C 65.5838,26.3742 64.7504,26.8742 64,27.5C 61.6812,24.1623 58.6812,23.1623 55,24.5C 53.5405,24.1918 52.3739,23.5251 51.5,22.5C 54.2062,22.4249 56.8728,22.0916 59.5,21.5 Z"/></g>
<g><path style="opacity:0.086" fill="#1e1812" d="M 66.5,23.5 C 67.5,23.5 68.5,23.5 69.5,23.5C 72.0503,24.8955 73.7169,27.0622 74.5,30C 74.4301,30.7648 74.0967,31.2648 73.5,31.5C 73.1667,31.5 72.8333,31.5 72.5,31.5C 72.6567,30.1266 72.49,28.7932 72,27.5C 69.9847,26.3034 68.1513,24.9701 66.5,23.5 Z"/></g>
<g><path style="opacity:0.994" fill="#bf8f70" d="M 51.5,22.5 C 52.3739,23.5251 53.5405,24.1918 55,24.5C 58.6812,23.1623 61.6812,24.1623 64,27.5C 64.7504,26.8742 65.5838,26.3742 66.5,26C 64.1582,24.6081 64.1582,23.7748 66.5,23.5C 68.1513,24.9701 69.9847,26.3034 72,27.5C 72.49,28.7932 72.6567,30.1266 72.5,31.5C 68.6044,32.006 64.6044,32.006 60.5,31.5C 60.719,32.675 60.3857,33.675 59.5,34.5C 57.7598,33.1637 56.0932,31.8304 54.5,30.5C 61.2717,26.1514 60.9384,24.8181 53.5,26.5C 52.3117,25.6364 51.1451,24.6364 50,23.5C 49.2828,24.0442 48.7828,24.7109 48.5,25.5C 45.8433,26.4793 45.1766,28.146 46.5,30.5C 48.3841,31.0533 50.3841,31.0533 52.5,30.5C 52.8333,30.5 53.1667,30.5 53.5,30.5C 52.3218,31.9986 50.6551,32.9986 48.5,33.5C 48.6667,33.8333 48.8333,34.1667 49,34.5C 50.231,33.8922 51.5643,33.5589 53,33.5C 55.0081,33.3068 56.5081,33.9735 57.5,35.5C 52.5698,35.034 47.9032,35.7006 43.5,37.5C 42.8999,36.0998 41.8999,35.0998 40.5,34.5C 41.1049,31.8733 41.6049,29.2066 42,26.5C 43.5185,25.8366 44.6851,24.8366 45.5,23.5C 47.4352,22.8505 49.4352,22.5172 51.5,22.5 Z"/></g>
<g><path style="opacity:0.996" fill="#181411" d="M 53.5,26.5 C 52.7611,26.369 52.0944,26.5357 51.5,27C 52.8228,27.8159 53.4894,28.9826 53.5,30.5C 53.1667,30.5 52.8333,30.5 52.5,30.5C 51.6364,29.3117 50.6364,28.1451 49.5,27C 50.7119,25.8932 50.3786,25.3932 48.5,25.5C 48.7828,24.7109 49.2828,24.0442 50,23.5C 51.1451,24.6364 52.3117,25.6364 53.5,26.5 Z"/></g>
<g><path style="opacity:0.996" fill="#594539" d="M 48.5,25.5 C 50.3786,25.3932 50.7119,25.8932 49.5,27C 50.6364,28.1451 51.6364,29.3117 52.5,30.5C 50.3841,31.0533 48.3841,31.0533 46.5,30.5C 45.1766,28.146 45.8433,26.4793 48.5,25.5 Z"/></g>
<g><path style="opacity:0.996" fill="#2f231d" d="M 45.5,23.5 C 44.6851,24.8366 43.5185,25.8366 42,26.5C 41.6049,29.2066 41.1049,31.8733 40.5,34.5C 39.6365,35.463 38.9698,35.463 38.5,34.5C 39.5202,32.5675 39.6869,30.5675 39,28.5C 36.497,31.5017 34.497,34.8351 33,38.5C 31.2962,40.3734 29.4628,42.0401 27.5,43.5C 29.8977,40.4288 31.8977,37.0954 33.5,33.5C 35.9579,28.3801 39.9579,25.0468 45.5,23.5 Z"/></g>
<g><path style="opacity:0.996" fill="#89664a" d="M 72.5,31.5 C 72.5,32.8333 72.5,34.1667 72.5,35.5C 70.8746,38.8909 69.8746,42.5575 69.5,46.5C 69.665,43.1501 69.4983,39.8168 69,36.5C 66.846,37.2301 64.6794,37.8968 62.5,38.5C 61.352,37.8359 60.0187,37.6692 58.5,38C 57.3659,36.984 57.6992,36.3173 59.5,36C 58.9056,35.5357 58.2389,35.369 57.5,35.5C 56.5081,33.9735 55.0081,33.3068 53,33.5C 51.5643,33.5589 50.231,33.8922 49,34.5C 48.8333,34.1667 48.6667,33.8333 48.5,33.5C 50.6551,32.9986 52.3218,31.9986 53.5,30.5C 53.4894,28.9826 52.8228,27.8159 51.5,27C 52.0944,26.5357 52.7611,26.369 53.5,26.5C 60.9384,24.8181 61.2717,26.1514 54.5,30.5C 56.0932,31.8304 57.7598,33.1637 59.5,34.5C 60.3857,33.675 60.719,32.675 60.5,31.5C 64.6044,32.006 68.6044,32.006 72.5,31.5 Z"/></g>
<g><path style="opacity:0.996" fill="#170e09" d="M 57.5,35.5 C 58.2389,35.369 58.9056,35.5357 59.5,36C 57.6992,36.3173 57.3659,36.984 58.5,38C 60.0187,37.6692 61.352,37.8359 62.5,38.5C 62.3253,40.6208 62.6586,42.6208 63.5,44.5C 63.0517,46.4646 62.0517,46.7979 60.5,45.5C 60.0233,44.5224 59.3567,43.6891 58.5,43C 60.5593,41.8145 60.726,40.6479 59,39.5C 54.2754,43.7187 51.4421,42.7187 50.5,36.5C 49.209,36.2627 48.209,36.596 47.5,37.5C 45.8946,38.0059 45.5613,38.6726 46.5,39.5C 47.5,40.1667 48.5,40.8333 49.5,41.5C 46.0861,41.2642 42.7527,40.5975 39.5,39.5C 40.9492,38.8281 42.2825,38.1614 43.5,37.5C 47.9032,35.7006 52.5698,35.034 57.5,35.5 Z"/></g>
<g><path style="opacity:0.992" fill="#14130c" d="M 72.5,35.5 C 73.7549,45.9043 70.7549,54.7377 63.5,62C 62.9056,62.4643 62.2389,62.631 61.5,62.5C 60.078,61.075 58.4113,60.075 56.5,59.5C 57.209,58.596 58.209,58.2627 59.5,58.5C 61.1667,57.8333 62.8333,57.1667 64.5,56.5C 65.7495,55.2225 67.2495,54.2225 69,53.5C 69.7252,51.8425 69.2252,50.8425 67.5,50.5C 68.5511,49.7777 69.2178,48.7777 69.5,47.5C 69.5,47.1667 69.5,46.8333 69.5,46.5C 69.8746,42.5575 70.8746,38.8909 72.5,35.5 Z"/></g>
<g><path style="opacity:0.99" fill="#e2725b" d="M 24.5,33.5 C 27.5,33.5 30.5,33.5 33.5,33.5C 31.8977,37.0954 29.8977,40.4288 27.5,43.5C 26.5178,44.1408 25.5178,44.8075 24.5,45.5C 23.3023,41.4885 23.3023,37.4885 24.5,33.5 Z"/></g>
<g><path style="opacity:0.996" fill="#f37c60" d="M 47.5,37.5 C 48.3764,37.3691 49.0431,37.7025 49.5,38.5C 48.675,39.3857 47.675,39.719 46.5,39.5C 45.5613,38.6726 45.8946,38.0059 47.5,37.5 Z"/></g>
<g><path style="opacity:0.996" fill="#e46c4e" d="M 69.5,46.5 C 69.5,46.8333 69.5,47.1667 69.5,47.5C 68.0772,45.4551 66.0772,44.4551 63.5,44.5C 62.6586,42.6208 62.3253,40.6208 62.5,38.5C 64.6794,37.8968 66.846,37.2301 69,36.5C 69.4983,39.8168 69.665,43.1501 69.5,46.5 Z"/></g>
<g><path style="opacity:0.996" fill="#896c57" d="M 40.5,34.5 C 41.8999,35.0998 42.8999,36.0998 43.5,37.5C 42.2825,38.1614 40.9492,38.8281 39.5,39.5C 42.7527,40.5975 46.0861,41.2642 49.5,41.5C 49.5,41.8333 49.5,42.1667 49.5,42.5C 46.8127,42.3359 44.146,42.5026 41.5,43C 42.7659,43.3095 43.9326,43.8095 45,44.5C 46.4159,46.966 47.9159,49.2993 49.5,51.5C 46.3992,51.3083 43.3992,50.6416 40.5,49.5C 38.883,46.7204 37.7163,43.7204 37,40.5C 35.9061,44.9589 37.0727,48.6256 40.5,51.5C 39.3176,54.0092 37.3176,55.3426 34.5,55.5C 26.8229,53.2636 26.6562,50.2636 34,46.5C 34.6667,45.8333 34.6667,45.1667 34,44.5C 31.1726,46.4945 28.6726,48.8278 26.5,51.5C 26.1667,50.6667 25.8333,49.8333 25.5,49C 25.9543,47.0614 26.621,45.228 27.5,43.5C 29.4628,42.0401 31.2962,40.3734 33,38.5C 34.497,34.8351 36.497,31.5017 39,28.5C 39.6869,30.5675 39.5202,32.5675 38.5,34.5C 38.9698,35.463 39.6365,35.463 40.5,34.5 Z"/></g>
<g><path style="opacity:0.996" fill="#482d1f" d="M 47.5,37.5 C 48.209,36.596 49.209,36.2627 50.5,36.5C 51.4421,42.7187 54.2754,43.7187 59,39.5C 60.726,40.6479 60.5593,41.8145 58.5,43C 59.3567,43.6891 60.0233,44.5224 60.5,45.5C 62.0517,46.7979 63.0517,46.4646 63.5,44.5C 66.0772,44.4551 68.0772,45.4551 69.5,47.5C 69.2178,48.7777 68.5511,49.7777 67.5,50.5C 61.2589,48.2287 55.2589,45.562 49.5,42.5C 49.5,42.1667 49.5,41.8333 49.5,41.5C 48.5,40.8333 47.5,40.1667 46.5,39.5C 47.675,39.719 48.675,39.3857 49.5,38.5C 49.0431,37.7025 48.3764,37.3691 47.5,37.5 Z"/></g>
<g><path style="opacity:0.996" fill="#a27a61" d="M 49.5,42.5 C 55.2589,45.562 61.2589,48.2287 67.5,50.5C 69.2252,50.8425 69.7252,51.8425 69,53.5C 67.2495,54.2225 65.7495,55.2225 64.5,56.5C 62.064,55.129 59.3973,54.129 56.5,53.5C 54.4855,52.0762 52.1522,51.4095 49.5,51.5C 47.9159,49.2993 46.4159,46.966 45,44.5C 43.9326,43.8095 42.7659,43.3095 41.5,43C 44.146,42.5026 46.8127,42.3359 49.5,42.5 Z"/></g>
<g><path style="opacity:0.996" fill="#18120e" d="M 49.5,51.5 C 52.1522,51.4095 54.4855,52.0762 56.5,53.5C 49.4995,53.4685 47.4995,56.4685 50.5,62.5C 46.9067,60.3418 46.24,57.6751 48.5,54.5C 45.9742,53.1028 43.3076,52.1028 40.5,51.5C 37.0727,48.6256 35.9061,44.9589 37,40.5C 37.7163,43.7204 38.883,46.7204 40.5,49.5C 43.3992,50.6416 46.3992,51.3083 49.5,51.5 Z"/></g>
<g><path style="opacity:0.996" fill="#a37c63" d="M 40.5,51.5 C 43.3076,52.1028 45.9742,53.1028 48.5,54.5C 46.24,57.6751 46.9067,60.3418 50.5,62.5C 50.631,63.2389 50.4643,63.9056 50,64.5C 48.8869,63.2889 47.7202,63.2889 46.5,64.5C 45.8027,62.6155 44.8027,62.2822 43.5,63.5C 43.1667,62.8333 42.8333,62.1667 42.5,61.5C 40.3516,62.7585 38.1849,62.7585 36,61.5C 34.6974,61.9783 33.5307,62.645 32.5,63.5C 32.5,62.8333 32.1667,62.5 31.5,62.5C 32.0577,61.2101 33.0577,60.3768 34.5,60C 33.3266,56.8897 33.8266,56.723 36,59.5C 36.2997,57.9343 35.7997,56.601 34.5,55.5C 37.3176,55.3426 39.3176,54.0092 40.5,51.5 Z"/></g>
<g><path style="opacity:1" fill="#dfd182" d="M 26.5,57.5 C 25.5041,57.4142 24.6708,57.7476 24,58.5C 23.5357,57.9056 23.369,57.2389 23.5,56.5C 24.1667,56.5 24.5,56.1667 24.5,55.5C 28.462,53.8927 29.1287,54.5594 26.5,57.5 Z"/></g>
<g><path style="opacity:0.996" fill="#a73730" d="M 56.5,53.5 C 59.3973,54.129 62.064,55.129 64.5,56.5C 62.8333,57.1667 61.1667,57.8333 59.5,58.5C 58.209,58.2627 57.209,58.596 56.5,59.5C 54.8546,60.4787 53.5213,61.812 52.5,63.5C 51.8165,63.1373 51.1499,62.8039 50.5,62.5C 47.4995,56.4685 49.4995,53.4685 56.5,53.5 Z"/></g>
<g><path style="opacity:0.992" fill="#bca26f" d="M 28.5,61.5 C 27.7611,61.631 27.0944,61.4643 26.5,61C 27.2524,60.3292 27.5858,59.4959 27.5,58.5C 32.4948,57.5192 32.8281,58.5192 28.5,61.5 Z"/></g>
<g><path style="opacity:0.992" fill="#cebe72" d="M 59.5,58.5 C 61.1033,58.3118 62.4366,58.8118 63.5,60C 61.8602,60.3478 60.5268,59.8478 59.5,58.5 Z"/></g>
<g><path style="opacity:0.992" fill="#bcaa6a" d="M 56.5,59.5 C 58.4113,60.075 60.078,61.075 61.5,62.5C 61.5,62.8333 61.5,63.1667 61.5,63.5C 61.44,64.0431 61.1067,64.3764 60.5,64.5C 59.0473,62.8152 57.714,61.1486 56.5,59.5 Z"/></g>
<g><path style="opacity:0.999" fill="#0b0e0b" d="M 56.5,59.5 C 57.714,61.1486 59.0473,62.8152 60.5,64.5C 61.1067,64.3764 61.44,64.0431 61.5,63.5C 69.5069,63.3336 77.5069,63.5003 85.5,64C 86.4777,70.4102 86.811,76.9102 86.5,83.5C 60.1667,83.5 33.8333,83.5 7.5,83.5C 7.1765,76.9779 7.50984,70.6446 8.5,64.5C 16.415,64.5872 24.0816,64.5872 31.5,64.5C 32.1667,64.5 32.5,64.1667 32.5,63.5C 33.5307,62.645 34.6974,61.9783 36,61.5C 38.1849,62.7585 40.3516,62.7585 42.5,61.5C 42.8333,62.1667 43.1667,62.8333 43.5,63.5C 44.8027,62.2822 45.8027,62.6155 46.5,64.5C 47.7202,63.2889 48.8869,63.2889 50,64.5C 50.4643,63.9056 50.631,63.2389 50.5,62.5C 51.1499,62.8039 51.8165,63.1373 52.5,63.5C 53.5213,61.812 54.8546,60.4787 56.5,59.5 Z"/></g>
<g><path style="opacity:1" fill="#2f4922" d="M 22.5,56.5 C 22.8333,56.5 23.1667,56.5 23.5,56.5C 23.369,57.2389 23.5357,57.9056 24,58.5C 24.6708,57.7476 25.5041,57.4142 26.5,57.5C 26.5,58.1667 26.8333,58.5 27.5,58.5C 27.5858,59.4959 27.2524,60.3292 26.5,61C 27.0944,61.4643 27.7611,61.631 28.5,61.5C 28.8333,61.5 29.1667,61.5 29.5,61.5C 29.0825,62.2216 28.4158,62.7216 27.5,63C 28.9007,63.4101 30.234,63.9101 31.5,64.5C 24.0816,64.5872 16.415,64.5872 8.5,64.5C 14.077,64.1437 19.4104,63.1437 24.5,61.5C 25.7658,59.7038 25.4325,59.3705 23.5,60.5C 22.5713,59.3112 22.238,57.9778 22.5,56.5 Z"/></g>
<g><path style="opacity:0.236" fill="#559a45" d="M 72.5,31.5 C 72.8333,31.5 73.1667,31.5 73.5,31.5C 77.227,42.7592 74.8937,52.5926 66.5,61C 73.8258,61.4997 81.1591,61.6663 88.5,61.5C 88.8158,69.7524 88.4825,77.919 87.5,86C 60.1606,86.8332 32.8272,86.6665 5.5,85.5C 4.36656,77.8829 4.19989,70.2163 5,62.5C 11.4102,61.5223 17.9102,61.189 24.5,61.5C 19.4104,63.1437 14.077,64.1437 8.5,64.5C 7.50984,70.6446 7.1765,76.9779 7.5,83.5C 33.8333,83.5 60.1667,83.5 86.5,83.5C 86.811,76.9102 86.4777,70.4102 85.5,64C 77.5069,63.5003 69.5069,63.3336 61.5,63.5C 61.5,63.1667 61.5,62.8333 61.5,62.5C 62.2389,62.631 62.9056,62.4643 63.5,62C 70.7549,54.7377 73.7549,45.9043 72.5,35.5C 72.5,34.1667 72.5,32.8333 72.5,31.5 Z"/></g>
<g><path style="opacity:1" fill="#d1b9b9" d="M 50.5,67.5 C 51.5,67.5 52.5,67.5 53.5,67.5C 53.4914,69.3084 53.9914,70.9751 55,72.5C 55.49,71.2068 55.6567,69.8734 55.5,68.5C 56.5,68.5 57.5,68.5 58.5,68.5C 58.3505,69.552 58.5172,70.552 59,71.5C 61.3333,68.8333 63.6667,68.8333 66,71.5C 66.3879,70.572 67.0546,69.9054 68,69.5C 69.9525,70.5447 71.9525,70.5447 74,69.5C 74.8333,69.8333 75.6667,70.1667 76.5,70.5C 75.629,72.0582 74.629,73.7249 73.5,75.5C 75.0453,76.4519 76.712,76.7852 78.5,76.5C 78.4809,74.9397 78.1476,73.4397 77.5,72C 77.6135,70.7202 78.2801,69.8869 79.5,69.5C 80.1771,72.1846 80.1771,75.0179 79.5,78C 76.3033,78.9865 73.4699,78.4865 71,76.5C 69.2161,79.0026 67.5494,79.0026 66,76.5C 63.6667,79.1667 61.3333,79.1667 59,76.5C 58.5172,77.448 58.3505,78.448 58.5,79.5C 55.9505,79.4392 54.4505,78.1059 54,75.5C 53.51,76.7932 53.3433,78.1266 53.5,79.5C 52.5,79.5 51.5,79.5 50.5,79.5C 50.5,75.5 50.5,71.5 50.5,67.5 Z"/></g>
<g><path style="opacity:1" fill="#c9b9b8" d="M 38.5,78.5 C 39.2541,75.9223 39.2541,73.2556 38.5,70.5C 41.5727,69.7285 44.5727,69.7285 47.5,70.5C 44.8333,72.8333 44.8333,75.1667 47.5,77.5C 44.586,78.1022 41.586,78.4355 38.5,78.5 Z"/></g>
<g><path style="opacity:1" fill="#d5c3c3" d="M 36.5,69.5 C 37.2318,72.2658 37.2318,74.9325 36.5,77.5C 30.7197,78.6093 24.553,78.6093 18,77.5C 16.8904,79.0368 15.3904,79.7035 13.5,79.5C 14.2436,75.8815 14.577,72.2148 14.5,68.5C 15.9305,68.4208 17.2638,68.7542 18.5,69.5C 20.1268,78.744 21.1268,78.744 21.5,69.5C 23.5,69.5 25.5,69.5 27.5,69.5C 27.5461,78.7145 28.2127,78.7145 29.5,69.5C 30.5,69.5 31.5,69.5 32.5,69.5C 32.6985,71.9599 33.3652,74.2933 34.5,76.5C 35.1662,75.1687 35.1662,73.6687 34.5,72C 34.6842,70.6244 35.3509,69.7911 36.5,69.5 Z"/></g>
<g><path style="opacity:1" fill="#343a3a" d="M 61.5,71.5 C 64.9563,72.5362 65.2896,74.2029 62.5,76.5C 60.2957,75.218 59.9624,73.5514 61.5,71.5 Z"/></g>
<g><path style="opacity:1" fill="#676767" d="M 36.5,69.5 C 37.1667,69.8333 37.8333,70.1667 38.5,70.5C 39.2541,73.2556 39.2541,75.9223 38.5,78.5C 37.8333,78.1667 37.1667,77.8333 36.5,77.5C 37.2318,74.9325 37.2318,72.2658 36.5,69.5 Z"/></g>
<g><path style="opacity:1" fill="#9fb55f" d="M 29.5,61.5 C 30.1667,61.8333 30.8333,62.1667 31.5,62.5C 32.1667,62.5 32.5,62.8333 32.5,63.5C 32.5,64.1667 32.1667,64.5 31.5,64.5C 30.234,63.9101 28.9007,63.4101 27.5,63C 28.4158,62.7216 29.0825,62.2216 29.5,61.5 Z"/></g>
</svg>
