<?xml version="1.0" encoding="UTF-8"?>
<!DOCTYPE svg PUBLIC "-//W3C//DTD SVG 1.1//EN" "http://www.w3.org/Graphics/SVG/1.1/DTD/svg11.dtd">
<svg xmlns="http://www.w3.org/2000/svg" version="1.1" width="96px" height="96px" style="shape-rendering:geometricPrecision; text-rendering:geometricPrecision; image-rendering:optimizeQuality; fill-rule:evenodd; clip-rule:evenodd" xmlns:xlink="http://www.w3.org/1999/xlink">
<g><path style="opacity:0.861" fill="#262036" d="M 37.5,-0.5 C 44.1667,-0.5 50.8333,-0.5 57.5,-0.5C 77.1667,5.16667 89.8333,17.8333 95.5,37.5C 95.5,44.1667 95.5,50.8333 95.5,57.5C 89.807,77.193 77.1403,89.8597 57.5,95.5C 50.8333,95.5 44.1667,95.5 37.5,95.5C 17.8333,89.8333 5.16667,77.1667 -0.5,57.5C -0.5,50.8333 -0.5,44.1667 -0.5,37.5C 5.16667,17.8333 17.8333,5.16667 37.5,-0.5 Z"/></g>
<g><path style="opacity:1" fill="#faf9f9" d="M 37.5,3.5 C 64.5705,0.604217 82.4038,11.9376 91,37.5C 94.4084,63.5385 83.9084,81.0385 59.5,90C 32.7408,95.0399 14.5742,84.8732 5,59.5C 0.113019,31.5972 10.9464,12.9305 37.5,3.5 Z"/></g>
<g><path style="opacity:1" fill="#5a5564" d="M 38.5,6.5 C 49.1162,5.20775 59.1162,7.04108 68.5,12C 70.9757,13.3088 72.9757,15.1421 74.5,17.5C 74.1667,18.5 73.5,19.1667 72.5,19.5C 61.2062,10.5737 48.5396,8.07371 34.5,12C 30.101,13.9064 26.101,16.4064 22.5,19.5C 21.5,19.1667 20.8333,18.5 20.5,17.5C 25.5926,12.2898 31.5926,8.62316 38.5,6.5 Z"/></g>
<g><path style="opacity:1" fill="#ef903f" d="M 40.5,23.5 C 41.8333,23.5 43.1667,23.5 44.5,23.5C 44.5,25.8333 44.5,28.1667 44.5,30.5C 45.8333,30.5 47.1667,30.5 48.5,30.5C 48.5,28.1667 48.5,25.8333 48.5,23.5C 49.8333,23.5 51.1667,23.5 52.5,23.5C 52.5,26.1667 52.5,28.8333 52.5,31.5C 60.4981,31.0001 64.3314,34.6668 64,42.5C 63.0197,43.9814 61.853,45.3147 60.5,46.5C 66.2025,49.0206 68.0358,53.3539 66,59.5C 65.5348,60.9308 64.7014,62.0975 63.5,63C 60.0131,64.6217 56.3465,65.455 52.5,65.5C 52.5,68.1667 52.5,70.8333 52.5,73.5C 51.1667,73.5 49.8333,73.5 48.5,73.5C 48.5,70.8333 48.5,68.1667 48.5,65.5C 47.1667,65.5 45.8333,65.5 44.5,65.5C 44.5,68.1667 44.5,70.8333 44.5,73.5C 43.1667,73.5 41.8333,73.5 40.5,73.5C 40.5,70.8333 40.5,68.1667 40.5,65.5C 37.5,65.5 34.5,65.5 31.5,65.5C 31.5,64.5 31.5,63.5 31.5,62.5C 32.4737,60.9147 33.9737,59.9147 36,59.5C 36.6667,51.8333 36.6667,44.1667 36,36.5C 34.3005,35.5939 32.4672,35.2606 30.5,35.5C 30.5,34.1667 30.5,32.8333 30.5,31.5C 33.8333,31.5 37.1667,31.5 40.5,31.5C 40.5,28.8333 40.5,26.1667 40.5,23.5 Z"/></g>
<g><path style="opacity:1" fill="#f5bc8f" d="M 40.5,23.5 C 40.5,26.1667 40.5,28.8333 40.5,31.5C 37.1667,31.5 33.8333,31.5 30.5,31.5C 33.2869,30.5233 36.2869,30.19 39.5,30.5C 39.1984,27.9407 39.5318,25.6074 40.5,23.5 Z"/></g>
<g><path style="opacity:1" fill="#fefaf7" d="M 44.5,36.5 C 47.5184,36.3354 50.5184,36.502 53.5,37C 56.2652,39.9663 55.9318,42.633 52.5,45C 49.854,45.4974 47.1873,45.6641 44.5,45.5C 44.5,42.5 44.5,39.5 44.5,36.5 Z"/></g>
<g><path style="opacity:1" fill="#575261" d="M 76.5,20.5 C 78.371,20.8588 79.871,21.8588 81,23.5C 89.4699,36.3837 90.8032,50.0504 85,64.5C 83.2181,68.4086 80.7181,71.742 77.5,74.5C 76.5,74.1667 75.8333,73.5 75.5,72.5C 84.0436,62.3243 86.8769,50.6576 84,37.5C 82.193,31.8824 79.3597,26.8824 75.5,22.5C 75.8627,21.8165 76.1961,21.1499 76.5,20.5 Z"/></g>
<g><path style="opacity:1" fill="#fef6f1" d="M 44.5,49.5 C 48.7924,49.0349 52.7924,49.8682 56.5,52C 57.9817,54.5918 57.6483,56.9251 55.5,59C 51.9399,60.2367 48.2733,60.7367 44.5,60.5C 44.5,56.8333 44.5,53.1667 44.5,49.5 Z"/></g>
<g><path style="opacity:1" fill="#575262" d="M 16.5,20.5 C 17.9953,20.4148 18.9953,21.0815 19.5,22.5C 11.2866,32.376 8.4533,43.7093 11,56.5C 12.5307,62.5632 15.364,67.8966 19.5,72.5C 19.1667,73.5 18.5,74.1667 17.5,74.5C 11.6587,69.1542 8.15866,62.4875 7,54.5C 4.80458,41.5959 7.97125,30.2626 16.5,20.5 Z"/></g>
<g><path style="opacity:1" fill="#f7c49f" d="M 31.5,62.5 C 31.5,63.5 31.5,64.5 31.5,65.5C 34.5,65.5 37.5,65.5 40.5,65.5C 40.5,68.1667 40.5,70.8333 40.5,73.5C 39.5318,71.3926 39.1984,69.0593 39.5,66.5C 36.5,66.5 33.5,66.5 30.5,66.5C 30.2322,64.901 30.5655,63.5676 31.5,62.5 Z"/></g>
<g><path style="opacity:1" fill="#554f5f" d="M 21.5,75.5 C 34.6723,85.2932 49.0057,87.1265 64.5,81C 67.3405,79.4136 70.0072,77.5803 72.5,75.5C 73.5,75.8333 74.1667,76.5 74.5,77.5C 71.742,80.7181 68.4086,83.2181 64.5,85C 48.593,91.3995 34.093,89.2329 21,78.5C 20.5304,77.4232 20.6971,76.4232 21.5,75.5 Z"/></g>
</svg>
