<?xml version="1.0" encoding="UTF-8"?>
<!DOCTYPE svg PUBLIC "-//W3C//DTD SVG 1.1//EN" "http://www.w3.org/Graphics/SVG/1.1/DTD/svg11.dtd">
<svg xmlns="http://www.w3.org/2000/svg" version="1.1" width="96px" height="96px" style="shape-rendering:geometricPrecision; text-rendering:geometricPrecision; image-rendering:optimizeQuality; fill-rule:evenodd; clip-rule:evenodd" xmlns:xlink="http://www.w3.org/1999/xlink">
<g><path style="opacity:0.857" fill="#250707" d="M 69.5,15.5 C 68.5041,15.4142 67.6708,15.7476 67,16.5C 58.6148,11.1022 49.4482,9.10221 39.5,10.5C 38.5,10.5 37.5,10.5 36.5,10.5C 48.2395,6.7552 59.2395,8.42186 69.5,15.5 Z"/></g>
<g><path style="opacity:1" fill="#411216" d="M 36.5,10.5 C 37.5,10.5 38.5,10.5 39.5,10.5C 42.9619,11.4816 46.6286,11.815 50.5,11.5C 50.6495,12.552 50.4828,13.552 50,14.5C 48.6124,13.4464 47.1124,13.2797 45.5,14C 46.056,14.3826 46.3893,14.8826 46.5,15.5C 45.1266,15.6567 43.7932,15.49 42.5,15C 43.7059,13.9823 43.3726,13.4823 41.5,13.5C 39.9707,13.5288 38.804,14.1955 38,15.5C 37.3162,14.2161 37.4829,13.0495 38.5,12C 36.2028,11.9822 33.8695,12.1489 31.5,12.5C 32.7804,11.0687 34.4471,10.4021 36.5,10.5 Z"/></g>
<g><path style="opacity:1" fill="#711e25" d="M 39.5,10.5 C 49.4482,9.10221 58.6148,11.1022 67,16.5C 67.6708,15.7476 68.5041,15.4142 69.5,15.5C 70.7095,15.9321 71.7095,16.5987 72.5,17.5C 72.1788,19.0481 71.1788,19.7148 69.5,19.5C 65.8019,16.6717 65.1352,17.005 67.5,20.5C 64.3233,19.3723 60.99,18.7056 57.5,18.5C 58.1667,18.1667 58.8333,17.8333 59.5,17.5C 60.9217,17.2914 62.255,16.7914 63.5,16C 59.8823,14.007 56.2156,13.1736 52.5,13.5C 53.6016,14.1757 54.6016,14.8423 55.5,15.5C 54.6618,15.8417 54.3284,16.5084 54.5,17.5C 53.2502,17.4226 52.4169,16.756 52,15.5C 50.2245,16.5361 48.3911,16.5361 46.5,15.5C 46.3893,14.8826 46.056,14.3826 45.5,14C 47.1124,13.2797 48.6124,13.4464 50,14.5C 50.4828,13.552 50.6495,12.552 50.5,11.5C 46.6286,11.815 42.9619,11.4816 39.5,10.5 Z"/></g>
<g><path style="opacity:1" fill="#290707" d="M 59.5,17.5 C 59.6107,16.8826 59.944,16.3826 60.5,16C 58.6577,16.068 56.991,15.9014 55.5,15.5C 54.6016,14.8423 53.6016,14.1757 52.5,13.5C 56.2156,13.1736 59.8823,14.007 63.5,16C 62.255,16.7914 60.9217,17.2914 59.5,17.5 Z"/></g>
<g><path style="opacity:1" fill="#741e27" d="M 46.5,15.5 C 48.0311,16.9245 47.6977,17.5912 45.5,17.5C 41.7761,15.8446 38.4427,16.5113 35.5,19.5C 35.5,19.1667 35.5,18.8333 35.5,18.5C 36.0522,16.6693 36.0522,15.0026 35.5,13.5C 32.432,14.6913 29.7654,16.358 27.5,18.5C 27.1667,18.5 26.8333,18.5 26.5,18.5C 26.5,18.1667 26.5,17.8333 26.5,17.5C 28.3603,16.0613 30.027,14.3947 31.5,12.5C 33.8695,12.1489 36.2028,11.9822 38.5,12C 37.4829,13.0495 37.3162,14.2161 38,15.5C 38.804,14.1955 39.9707,13.5288 41.5,13.5C 43.3726,13.4823 43.7059,13.9823 42.5,15C 43.7932,15.49 45.1266,15.6567 46.5,15.5 Z"/></g>
<g><path style="opacity:1" fill="#1e0708" d="M 35.5,18.5 C 34.7321,17.7375 34.2321,16.7375 34,15.5C 32.2196,16.6394 30.3863,17.6394 28.5,18.5C 28.1667,18.5 27.8333,18.5 27.5,18.5C 29.7654,16.358 32.432,14.6913 35.5,13.5C 36.0522,15.0026 36.0522,16.6693 35.5,18.5 Z"/></g>
<g><path style="opacity:1" fill="#81212a" d="M 35.5,18.5 C 35.5,18.8333 35.5,19.1667 35.5,19.5C 35.5,20.1667 35.5,20.8333 35.5,21.5C 34.596,22.209 34.2627,23.209 34.5,24.5C 33.7321,23.7375 33.2321,22.7375 33,21.5C 32.6667,21.8333 32.3333,22.1667 32,22.5C 31.2917,21.6195 30.4584,20.9528 29.5,20.5C 28.6618,20.1583 28.3284,19.4916 28.5,18.5C 30.3863,17.6394 32.2196,16.6394 34,15.5C 34.2321,16.7375 34.7321,17.7375 35.5,18.5 Z"/></g>
<g><path style="opacity:1" fill="#300c0e" d="M 57.5,18.5 C 60.99,18.7056 64.3233,19.3723 67.5,20.5C 66.8333,21.1667 66.1667,21.8333 65.5,22.5C 65.1667,22.5 64.8333,22.5 64.5,22.5C 61.196,22.5452 57.8626,22.3785 54.5,22C 55.6364,20.8549 56.6364,19.6883 57.5,18.5 Z"/></g>
<g><path style="opacity:1" fill="#6c1e25" d="M 72.5,17.5 C 75.9031,19.8998 78.5698,22.8998 80.5,26.5C 80.427,28.0269 81.0937,29.0269 82.5,29.5C 83.3382,29.8417 83.6716,30.5084 83.5,31.5C 82.8469,34.3036 82.5135,36.9702 82.5,39.5C 81.8916,36.6733 80.8916,34.0067 79.5,31.5C 78.2819,27.6172 75.9485,24.6172 72.5,22.5C 71.6935,21.2719 70.6935,20.2719 69.5,19.5C 71.1788,19.7148 72.1788,19.0481 72.5,17.5 Z"/></g>
<g><path style="opacity:1" fill="#461016" d="M 46.5,15.5 C 48.3911,16.5361 50.2245,16.5361 52,15.5C 52.4169,16.756 53.2502,17.4226 54.5,17.5C 53.6016,18.1577 52.6016,18.8243 51.5,19.5C 51.8627,20.1835 52.1961,20.8501 52.5,21.5C 51.5041,21.4142 50.6708,21.7476 50,22.5C 49.6667,21.5 49.3333,20.5 49,19.5C 49.0595,22.8427 47.5595,24.8427 44.5,25.5C 44.2471,23.1727 44.9137,21.1727 46.5,19.5C 46.0431,18.7025 45.3764,18.3691 44.5,18.5C 42.6283,19.7946 40.9617,19.6279 39.5,18C 41.4727,17.5045 43.4727,17.3379 45.5,17.5C 47.6977,17.5912 48.0311,16.9245 46.5,15.5 Z"/></g>
<g><path style="opacity:1" fill="#200101" d="M 26.5,18.5 C 26.8333,18.5 27.1667,18.5 27.5,18.5C 25.7484,20.2459 24.4151,22.2459 23.5,24.5C 22.8333,24.1667 22.1667,23.8333 21.5,23.5C 22.8333,21.5 24.5,19.8333 26.5,18.5 Z"/></g>
<g><path style="opacity:1" fill="#2a0706" d="M 31.5,12.5 C 30.027,14.3947 28.3603,16.0613 26.5,17.5C 22.2034,20.1295 18.5367,23.4628 15.5,27.5C 15.5,26.8333 15.5,26.1667 15.5,25.5C 19.019,18.9854 24.3523,14.6521 31.5,12.5 Z"/></g>
<g><path style="opacity:1" fill="#30090b" d="M 45.5,17.5 C 43.4727,17.3379 41.4727,17.5045 39.5,18C 40.9617,19.6279 42.6283,19.7946 44.5,18.5C 43.6232,23.4246 41.2899,24.4246 37.5,21.5C 36.7784,21.9175 36.2784,22.5842 36,23.5C 35.5357,22.9056 35.369,22.2389 35.5,21.5C 35.5,20.8333 35.5,20.1667 35.5,19.5C 38.4427,16.5113 41.7761,15.8446 45.5,17.5 Z"/></g>
<g><path style="opacity:1" fill="#8b242e" d="M 52.5,21.5 C 52.9887,22.9952 53.6554,24.3285 54.5,25.5C 54.8333,25.5 55.1667,25.5 55.5,25.5C 55.189,26.4778 54.5223,27.1445 53.5,27.5C 50.6675,25.3533 48.0008,25.3533 45.5,27.5C 44.8933,27.3764 44.56,27.0431 44.5,26.5C 44.5,26.1667 44.5,25.8333 44.5,25.5C 47.5595,24.8427 49.0595,22.8427 49,19.5C 49.3333,20.5 49.6667,21.5 50,22.5C 50.6708,21.7476 51.5041,21.4142 52.5,21.5 Z"/></g>
<g><path style="opacity:1" fill="#5b161d" d="M 55.5,15.5 C 56.991,15.9014 58.6577,16.068 60.5,16C 59.944,16.3826 59.6107,16.8826 59.5,17.5C 58.8333,17.8333 58.1667,18.1667 57.5,18.5C 56.6364,19.6883 55.6364,20.8549 54.5,22C 57.8626,22.3785 61.196,22.5452 64.5,22.5C 63.5416,22.9528 62.7083,23.6195 62,24.5C 60.984,23.3659 60.3173,23.6992 60,25.5C 58.54,23.5776 56.8733,22.9109 55,23.5C 54.5357,24.0944 54.369,24.7611 54.5,25.5C 53.6554,24.3285 52.9887,22.9952 52.5,21.5C 52.1961,20.8501 51.8627,20.1835 51.5,19.5C 52.6016,18.8243 53.6016,18.1577 54.5,17.5C 54.3284,16.5084 54.6618,15.8417 55.5,15.5 Z"/></g>
<g><path style="opacity:1" fill="#390a0e" d="M 69.5,19.5 C 70.6935,20.2719 71.6935,21.2719 72.5,22.5C 72.7329,24.0618 73.3995,25.3951 74.5,26.5C 74.2504,27.9221 73.417,28.9221 72,29.5C 71.7151,25.7637 70.2151,22.7637 67.5,20.5C 65.1352,17.005 65.8019,16.6717 69.5,19.5 Z"/></g>
<g><path style="opacity:1" fill="#57161c" d="M 27.5,18.5 C 27.8333,18.5 28.1667,18.5 28.5,18.5C 28.3284,19.4916 28.6618,20.1583 29.5,20.5C 30.0476,22.3936 31.0476,24.0603 32.5,25.5C 32.3764,26.1067 32.0431,26.44 31.5,26.5C 29.5165,26.6168 27.8498,25.9501 26.5,24.5C 25.8933,24.6236 25.56,24.9569 25.5,25.5C 24.8333,25.5 24.1667,25.5 23.5,25.5C 23.5,25.1667 23.5,24.8333 23.5,24.5C 24.4151,22.2459 25.7484,20.2459 27.5,18.5 Z"/></g>
<g><path style="opacity:1" fill="#82212b" d="M 44.5,18.5 C 45.3764,18.3691 46.0431,18.7025 46.5,19.5C 44.9137,21.1727 44.2471,23.1727 44.5,25.5C 44.5,25.8333 44.5,26.1667 44.5,26.5C 43.1751,25.0474 42.3418,25.3808 42,27.5C 41.6924,26.6919 41.1924,26.0253 40.5,25.5C 39.913,26.2334 39.913,27.2334 40.5,28.5C 39.8826,28.6107 39.3826,28.944 39,29.5C 38.1785,26.8832 37.6785,24.2165 37.5,21.5C 41.2899,24.4246 43.6232,23.4246 44.5,18.5 Z"/></g>
<g><path style="opacity:1" fill="#441015" d="M 35.5,21.5 C 35.369,22.2389 35.5357,22.9056 36,23.5C 36.2784,22.5842 36.7784,21.9175 37.5,21.5C 37.6785,24.2165 38.1785,26.8832 39,29.5C 39.3826,28.944 39.8826,28.6107 40.5,28.5C 40.5,28.8333 40.5,29.1667 40.5,29.5C 40.0825,30.2216 39.4158,30.7216 38.5,31C 38.7284,31.3988 39.0618,31.5654 39.5,31.5C 39.1583,32.3382 38.4916,32.6716 37.5,32.5C 37.4279,29.4475 36.4279,26.7808 34.5,24.5C 34.2627,23.209 34.596,22.209 35.5,21.5 Z"/></g>
<g><path style="opacity:1" fill="#230909" d="M 23.5,25.5 C 24.1667,25.5 24.8333,25.5 25.5,25.5C 27.5869,26.5846 28.9202,28.2512 29.5,30.5C 28.8826,30.3893 28.3826,30.056 28,29.5C 27.7216,30.4158 27.2216,31.0825 26.5,31.5C 26.0472,30.5416 25.3805,29.7083 24.5,29C 26.5951,28.4444 26.7618,27.9444 25,27.5C 23.6136,28.7286 22.1136,29.7286 20.5,30.5C 21.075,28.5887 22.075,26.922 23.5,25.5 Z"/></g>
<g><path style="opacity:1" fill="#4a1218" d="M 64.5,22.5 C 64.8333,22.5 65.1667,22.5 65.5,22.5C 65.3932,24.3786 65.8932,24.7119 67,23.5C 68.883,24.6526 69.7163,26.3193 69.5,28.5C 67.6561,27.3117 65.8228,26.3117 64,25.5C 62.2458,27.25 60.0792,27.9167 57.5,27.5C 57.5,27.1667 57.5,26.8333 57.5,26.5C 57.1583,25.6618 56.4916,25.3284 55.5,25.5C 55.1667,25.5 54.8333,25.5 54.5,25.5C 54.369,24.7611 54.5357,24.0944 55,23.5C 56.8733,22.9109 58.54,23.5776 60,25.5C 60.3173,23.6992 60.984,23.3659 62,24.5C 62.7083,23.6195 63.5416,22.9528 64.5,22.5 Z"/></g>
<g><path style="opacity:1" fill="#791f28" d="M 25.5,25.5 C 25.56,24.9569 25.8933,24.6236 26.5,24.5C 27.8498,25.9501 29.5165,26.6168 31.5,26.5C 31.9867,27.4734 32.4867,28.4734 33,29.5C 35.1785,28.1602 35.6785,28.4935 34.5,30.5C 32.9504,31.7199 31.2837,31.7199 29.5,30.5C 28.9202,28.2512 27.5869,26.5846 25.5,25.5 Z"/></g>
<g><path style="opacity:1" fill="#86222c" d="M 29.5,20.5 C 30.4584,20.9528 31.2917,21.6195 32,22.5C 32.3333,22.1667 32.6667,21.8333 33,21.5C 33.2321,22.7375 33.7321,23.7375 34.5,24.5C 36.4279,26.7808 37.4279,29.4475 37.5,32.5C 35.1644,34.0038 33.331,36.0038 32,38.5C 31.586,38.0426 31.086,37.7093 30.5,37.5C 29.8182,38.2427 29.1515,38.9094 28.5,39.5C 28.6716,38.5084 28.3382,37.8417 27.5,37.5C 28.6935,36.7281 29.6935,35.7281 30.5,34.5C 31.9217,34.2914 33.255,33.7914 34.5,33C 35.7736,32.0228 35.7736,31.1894 34.5,30.5C 35.6785,28.4935 35.1785,28.1602 33,29.5C 32.4867,28.4734 31.9867,27.4734 31.5,26.5C 32.0431,26.44 32.3764,26.1067 32.5,25.5C 31.0476,24.0603 30.0476,22.3936 29.5,20.5 Z"/></g>
<g><path style="opacity:1" fill="#330c0e" d="M 44.5,26.5 C 44.56,27.0431 44.8933,27.3764 45.5,27.5C 48.0008,25.3533 50.6675,25.3533 53.5,27.5C 54.5223,27.1445 55.189,26.4778 55.5,25.5C 56.4916,25.3284 57.1583,25.6618 57.5,26.5C 56.5,27.1667 55.5,27.8333 54.5,28.5C 49.9936,28.2146 45.3269,28.548 40.5,29.5C 40.5,29.1667 40.5,28.8333 40.5,28.5C 39.913,27.2334 39.913,26.2334 40.5,25.5C 41.1924,26.0253 41.6924,26.6919 42,27.5C 42.3418,25.3808 43.1751,25.0474 44.5,26.5 Z"/></g>
<g><path style="opacity:1" fill="#972832" d="M 57.5,26.5 C 57.5,26.8333 57.5,27.1667 57.5,27.5C 57.8333,28.1667 58.1667,28.8333 58.5,29.5C 56.901,29.7678 55.5676,29.4345 54.5,28.5C 55.5,27.8333 56.5,27.1667 57.5,26.5 Z"/></g>
<g><path style="opacity:0.498" fill="#1c0909" d="M 80.5,26.5 C 81.9063,26.9731 82.573,27.9731 82.5,29.5C 81.0937,29.0269 80.427,28.0269 80.5,26.5 Z"/></g>
<g><path style="opacity:1" fill="#6c1b23" d="M 67.5,20.5 C 70.2151,22.7637 71.7151,25.7637 72,29.5C 73.417,28.9221 74.2504,27.9221 74.5,26.5C 75.8366,27.3149 76.8366,28.4815 77.5,30C 75.6711,30.2735 74.1711,31.1068 73,32.5C 71.0624,31.1398 69.3957,31.4732 68,33.5C 67.51,32.2068 67.3433,30.8734 67.5,29.5C 68.4916,29.6716 69.1583,29.3382 69.5,28.5C 69.7163,26.3193 68.883,24.6526 67,23.5C 65.8932,24.7119 65.3932,24.3786 65.5,22.5C 66.1667,21.8333 66.8333,21.1667 67.5,20.5 Z"/></g>
<g><path style="opacity:1" fill="#661a21" d="M 54.5,28.5 C 55.5676,29.4345 56.901,29.7678 58.5,29.5C 58.0825,30.2216 57.4158,30.7216 56.5,31C 60.0121,33.9615 63.0121,33.2948 65.5,29C 66.4368,28.3083 67.1034,28.475 67.5,29.5C 66.1634,30.3149 65.1634,31.4815 64.5,33C 66.5507,33.815 67.884,34.6483 68.5,35.5C 67.8333,35.5 67.1667,35.5 66.5,35.5C 64.7615,34.5661 63.0948,34.5661 61.5,35.5C 62.8262,36.6422 63.8262,37.9755 64.5,39.5C 64.6254,42.6082 63.2921,44.6082 60.5,45.5C 60.9528,44.5416 61.6195,43.7083 62.5,43C 59.8333,41.6667 59.8333,40.3333 62.5,39C 61.2668,37.3333 59.9335,35.8333 58.5,34.5C 53.3158,30.5766 47.6491,29.5766 41.5,31.5C 40.8333,31.5 40.1667,31.5 39.5,31.5C 39.0618,31.5654 38.7284,31.3988 38.5,31C 39.4158,30.7216 40.0825,30.2216 40.5,29.5C 45.3269,28.548 49.9936,28.2146 54.5,28.5 Z"/></g>
<g><path style="opacity:1" fill="#360b0e" d="M 69.5,28.5 C 69.1583,29.3382 68.4916,29.6716 67.5,29.5C 67.1034,28.475 66.4368,28.3083 65.5,29C 63.0121,33.2948 60.0121,33.9615 56.5,31C 57.4158,30.7216 58.0825,30.2216 58.5,29.5C 58.1667,28.8333 57.8333,28.1667 57.5,27.5C 60.0792,27.9167 62.2458,27.25 64,25.5C 65.8228,26.3117 67.6561,27.3117 69.5,28.5 Z"/></g>
<g><path style="opacity:1" fill="#2a0909" d="M 29.5,30.5 C 31.2837,31.7199 32.9504,31.7199 34.5,30.5C 35.7736,31.1894 35.7736,32.0228 34.5,33C 33.255,33.7914 31.9217,34.2914 30.5,34.5C 30.1667,33.1667 29.8333,31.8333 29.5,30.5 Z"/></g>
<g><path style="opacity:1" fill="#87242e" d="M 26.5,17.5 C 26.5,17.8333 26.5,18.1667 26.5,18.5C 24.5,19.8333 22.8333,21.5 21.5,23.5C 17.504,27.4836 14.504,32.1503 12.5,37.5C 11.9569,37.44 11.6236,37.1067 11.5,36.5C 12.5878,33.33 13.9211,30.33 15.5,27.5C 18.5367,23.4628 22.2034,20.1295 26.5,17.5 Z"/></g>
<g><path style="opacity:1" fill="#360c10" d="M 72.5,22.5 C 75.9485,24.6172 78.2819,27.6172 79.5,31.5C 78.6618,31.8417 78.3284,32.5084 78.5,33.5C 77.5084,33.3284 76.8417,33.6618 76.5,34.5C 74.0228,36.205 72.6894,38.205 72.5,40.5C 71.7784,40.0825 71.2784,39.4158 71,38.5C 67.4381,43.2465 66.6048,42.2465 68.5,35.5C 67.884,34.6483 66.5507,33.815 64.5,33C 65.1634,31.4815 66.1634,30.3149 67.5,29.5C 67.3433,30.8734 67.51,32.2068 68,33.5C 69.3957,31.4732 71.0624,31.1398 73,32.5C 74.1711,31.1068 75.6711,30.2735 77.5,30C 76.8366,28.4815 75.8366,27.3149 74.5,26.5C 73.3995,25.3951 72.7329,24.0618 72.5,22.5 Z"/></g>
<g><path style="opacity:1" fill="#36080c" d="M 26.5,31.5 C 25.5168,33.2912 24.1835,34.7912 22.5,36C 23.2438,37.0386 24.2438,37.5386 25.5,37.5C 25.6495,38.552 25.4828,39.552 25,40.5C 24.3292,39.7476 23.4959,39.4142 22.5,39.5C 22.3146,37.8042 21.4813,36.4709 20,35.5C 19.2204,33.6131 19.3871,31.9464 20.5,30.5C 22.1136,29.7286 23.6136,28.7286 25,27.5C 26.7618,27.9444 26.5951,28.4444 24.5,29C 25.3805,29.7083 26.0472,30.5416 26.5,31.5 Z"/></g>
<g><path style="opacity:1" fill="#85222c" d="M 41.5,31.5 C 44.3854,31.1936 47.0521,31.5269 49.5,32.5C 47.4727,32.3379 45.4727,32.5045 43.5,33C 44.1667,33.3333 44.8333,33.6667 45.5,34C 44.1175,35.2708 43.1175,36.7708 42.5,38.5C 42.5,39.8333 43.1667,40.5 44.5,40.5C 44.5,40.8333 44.5,41.1667 44.5,41.5C 43.5041,41.4142 42.6708,41.7476 42,42.5C 40.7711,40.0532 39.2711,39.8865 37.5,42C 39.1797,44.8108 38.5131,46.6441 35.5,47.5C 34.2769,45.1276 33.2769,42.6276 32.5,40C 34.9694,36.5146 37.9694,33.6813 41.5,31.5 Z"/></g>
<g><path style="opacity:1" fill="#2c0606" d="M 41.5,31.5 C 47.6491,29.5766 53.3158,30.5766 58.5,34.5C 57.1667,34.5 56.5,35.1667 56.5,36.5C 54.0038,35.4196 51.6705,34.0862 49.5,32.5C 47.0521,31.5269 44.3854,31.1936 41.5,31.5 Z"/></g>
<g><path style="opacity:1" fill="#4d1218" d="M 29.5,30.5 C 29.8333,31.8333 30.1667,33.1667 30.5,34.5C 29.6935,35.7281 28.6935,36.7281 27.5,37.5C 26.8333,37.5 26.1667,37.5 25.5,37.5C 24.2438,37.5386 23.2438,37.0386 22.5,36C 24.1835,34.7912 25.5168,33.2912 26.5,31.5C 27.2216,31.0825 27.7216,30.4158 28,29.5C 28.3826,30.056 28.8826,30.3893 29.5,30.5 Z"/></g>
<g><path style="opacity:1" fill="#8c242f" d="M 49.5,32.5 C 51.6705,34.0862 54.0038,35.4196 56.5,36.5C 56.6716,37.4916 56.3382,38.1583 55.5,38.5C 54.2652,38.2786 53.2652,37.6119 52.5,36.5C 51.2613,36.9424 50.2613,37.6091 49.5,38.5C 47.9557,38.2969 46.6223,37.6302 45.5,36.5C 44.7025,36.9569 44.3691,37.6236 44.5,38.5C 43.8333,38.5 43.1667,38.5 42.5,38.5C 43.1175,36.7708 44.1175,35.2708 45.5,34C 44.8333,33.6667 44.1667,33.3333 43.5,33C 45.4727,32.5045 47.4727,32.3379 49.5,32.5 Z"/></g>
<g><path style="opacity:0.965" fill="#691b22" d="M 15.5,25.5 C 15.5,26.1667 15.5,26.8333 15.5,27.5C 13.9211,30.33 12.5878,33.33 11.5,36.5C 11.6236,37.1067 11.9569,37.44 12.5,37.5C 13.6114,38.6597 14.6114,39.993 15.5,41.5C 16.5223,41.1445 17.189,40.4778 17.5,39.5C 19.8418,39.7748 19.8418,40.6081 17.5,42C 18.5981,42.7697 18.5981,43.603 17.5,44.5C 16.391,44.5569 15.391,44.8902 14.5,45.5C 14.2914,44.0783 13.7914,42.745 13,41.5C 10.9391,48.5709 11.7725,55.2375 15.5,61.5C 15.6596,63.153 16.3263,64.4863 17.5,65.5C 17.5912,67.6977 16.9245,68.0311 15.5,66.5C 11.3192,58.7306 9.48585,50.3973 10,41.5C 9.90054,43.6526 9.0672,45.3192 7.5,46.5C 7.89367,38.5593 10.5603,31.5593 15.5,25.5 Z"/></g>
<g><path style="opacity:1" fill="#782028" d="M 21.5,23.5 C 22.1667,23.8333 22.8333,24.1667 23.5,24.5C 23.5,24.8333 23.5,25.1667 23.5,25.5C 22.075,26.922 21.075,28.5887 20.5,30.5C 19.3871,31.9464 19.2204,33.6131 20,35.5C 21.4813,36.4709 22.3146,37.8042 22.5,39.5C 20.9505,38.5592 19.2838,37.8925 17.5,37.5C 16.8592,36.5178 16.1925,35.5178 15.5,34.5C 18.3067,31.216 20.3067,27.5493 21.5,23.5 Z"/></g>
<g><path style="opacity:1" fill="#30080a" d="M 76.5,34.5 C 79.5862,36.0956 80.2529,38.4289 78.5,41.5C 76.8762,41.6399 75.7096,40.9733 75,39.5C 74.7645,41.1193 73.9311,42.1193 72.5,42.5C 72.5,41.8333 72.5,41.1667 72.5,40.5C 72.6894,38.205 74.0228,36.205 76.5,34.5 Z"/></g>
<g><path style="opacity:1" fill="#330b0e" d="M 21.5,23.5 C 20.3067,27.5493 18.3067,31.216 15.5,34.5C 16.1925,35.5178 16.8592,36.5178 17.5,37.5C 17.5,38.1667 17.5,38.8333 17.5,39.5C 17.189,40.4778 16.5223,41.1445 15.5,41.5C 14.6114,39.993 13.6114,38.6597 12.5,37.5C 14.504,32.1503 17.504,27.4836 21.5,23.5 Z"/></g>
<g><path style="opacity:1" fill="#55141a" d="M 25.5,37.5 C 26.1667,37.5 26.8333,37.5 27.5,37.5C 28.3382,37.8417 28.6716,38.5084 28.5,39.5C 27.9094,40.1515 27.2427,40.8182 26.5,41.5C 26.6236,42.1067 26.9569,42.44 27.5,42.5C 27.631,43.2389 27.4643,43.9056 27,44.5C 26.31,43.2617 25.81,43.2617 25.5,44.5C 25.1667,44.5 24.8333,44.5 24.5,44.5C 23.3192,42.9328 21.6526,42.0995 19.5,42C 20.8333,41.6667 22.1667,41.3333 23.5,41C 22.944,40.6174 22.6107,40.1174 22.5,39.5C 23.4959,39.4142 24.3292,39.7476 25,40.5C 25.4828,39.552 25.6495,38.552 25.5,37.5 Z"/></g>
<g><path style="opacity:1" fill="#300809" d="M 58.5,34.5 C 59.9335,35.8333 61.2668,37.3333 62.5,39C 59.8333,40.3333 59.8333,41.6667 62.5,43C 61.6195,43.7083 60.9528,44.5416 60.5,45.5C 59.8333,44.8333 59.1667,44.1667 58.5,43.5C 58.4891,40.9991 57.8224,40.8324 56.5,43C 57.7262,45.6013 57.0595,46.4347 54.5,45.5C 53.3945,52.0565 52.3945,52.0565 51.5,45.5C 53.8524,43.822 55.1857,41.4887 55.5,38.5C 56.3382,38.1583 56.6716,37.4916 56.5,36.5C 56.5,35.1667 57.1667,34.5 58.5,34.5 Z"/></g>
<g><path style="opacity:1" fill="#310608" d="M 66.5,35.5 C 66.3359,38.1873 66.5026,40.854 67,43.5C 67.3826,44.056 67.8826,44.3893 68.5,44.5C 67.791,45.404 66.791,45.7373 65.5,45.5C 65.7947,43.2646 65.4614,41.2646 64.5,39.5C 63.8262,37.9755 62.8262,36.6422 61.5,35.5C 63.0948,34.5661 64.7615,34.5661 66.5,35.5 Z"/></g>
<g><path style="opacity:1" fill="#772028" d="M 76.5,34.5 C 76.8417,33.6618 77.5084,33.3284 78.5,33.5C 80.2261,35.8201 80.8928,38.4867 80.5,41.5C 79.8333,41.5 79.1667,41.5 78.5,41.5C 80.2529,38.4289 79.5862,36.0956 76.5,34.5 Z"/></g>
<g><path style="opacity:1" fill="#2d0c0c" d="M 39.5,31.5 C 40.1667,31.5 40.8333,31.5 41.5,31.5C 37.9694,33.6813 34.9694,36.5146 32.5,40C 33.2769,42.6276 34.2769,45.1276 35.5,47.5C 34.8333,47.1667 34.1667,46.8333 33.5,46.5C 32.8519,44.9142 32.3519,43.2475 32,41.5C 30.984,42.6341 30.3173,42.3008 30,40.5C 29.0053,41.0659 28.172,41.7326 27.5,42.5C 26.9569,42.44 26.6236,42.1067 26.5,41.5C 27.2427,40.8182 27.9094,40.1515 28.5,39.5C 29.1515,38.9094 29.8182,38.2427 30.5,37.5C 31.086,37.7093 31.586,38.0426 32,38.5C 33.331,36.0038 35.1644,34.0038 37.5,32.5C 38.4916,32.6716 39.1583,32.3382 39.5,31.5 Z"/></g>
<g><path style="opacity:1" fill="#200607" d="M 49.5,38.5 C 49.684,40.9248 50.3507,40.9248 51.5,38.5C 53.2828,39.3482 53.7828,40.6815 53,42.5C 51.8869,41.2889 50.7202,41.2889 49.5,42.5C 47.6829,41.233 46.0163,39.8997 44.5,38.5C 44.3691,37.6236 44.7025,36.9569 45.5,36.5C 46.6223,37.6302 47.9557,38.2969 49.5,38.5 Z"/></g>
<g><path style="opacity:1" fill="#671b22" d="M 85.5,58.5 C 85.7373,59.791 85.404,60.791 84.5,61.5C 82.8041,63.129 81.8041,62.7957 81.5,60.5C 81.631,59.7611 81.4643,59.0944 81,58.5C 80.3333,59.8333 79.6667,59.8333 79,58.5C 78.5172,57.552 78.3505,56.552 78.5,55.5C 80.1238,55.3601 81.2904,56.0267 82,57.5C 82.4828,56.552 82.6495,55.552 82.5,54.5C 83.1667,54.5 83.5,54.1667 83.5,53.5C 83.5,49.8333 83.5,46.1667 83.5,42.5C 84.3805,46.4611 85.0472,51.7945 85.5,58.5 Z"/></g>
<g><path style="opacity:1" fill="#28080a" d="M 17.5,37.5 C 19.2838,37.8925 20.9505,38.5592 22.5,39.5C 22.6107,40.1174 22.944,40.6174 23.5,41C 22.1667,41.3333 20.8333,41.6667 19.5,42C 21.6526,42.0995 23.3192,42.9328 24.5,44.5C 22.1667,44.5 19.8333,44.5 17.5,44.5C 18.5981,43.603 18.5981,42.7697 17.5,42C 19.8418,40.6081 19.8418,39.7748 17.5,39.5C 17.5,38.8333 17.5,38.1667 17.5,37.5 Z"/></g>
<g><path style="opacity:1" fill="#7f212a" d="M 66.5,35.5 C 67.1667,35.5 67.8333,35.5 68.5,35.5C 66.6048,42.2465 67.4381,43.2465 71,38.5C 71.2784,39.4158 71.7784,40.0825 72.5,40.5C 72.5,41.1667 72.5,41.8333 72.5,42.5C 71.1667,43.1667 69.8333,43.8333 68.5,44.5C 67.8826,44.3893 67.3826,44.056 67,43.5C 66.5026,40.854 66.3359,38.1873 66.5,35.5 Z"/></g>
<g><path style="opacity:0.986" fill="#39070c" d="M 83.5,31.5 C 84.9313,32.7804 85.5979,34.4471 85.5,36.5C 85.6484,43.1553 85.9818,49.822 86.5,56.5C 86.6716,57.4916 86.3382,58.1583 85.5,58.5C 85.0472,51.7945 84.3805,46.4611 83.5,42.5C 82.596,41.791 82.2627,40.791 82.5,39.5C 82.5135,36.9702 82.8469,34.3036 83.5,31.5 Z"/></g>
<g><path style="opacity:1" fill="#1b0506" d="M 44.5,40.5 C 45.3094,41.4687 46.3094,42.3021 47.5,43C 46.5842,43.2784 45.9175,43.7784 45.5,44.5C 44.0755,46.0311 43.4088,45.6977 43.5,43.5C 43.8333,42.8333 44.1667,42.1667 44.5,41.5C 44.5,41.1667 44.5,40.8333 44.5,40.5 Z"/></g>
<g><path style="opacity:1" fill="#55151b" d="M 78.5,41.5 C 79.1667,41.5 79.8333,41.5 80.5,41.5C 80.8333,42.1667 81.1667,42.8333 81.5,43.5C 79.4251,43.7765 77.4251,44.1099 75.5,44.5C 74.6091,45.2613 73.9424,46.2613 73.5,47.5C 74.6302,48.6223 75.2969,49.9557 75.5,51.5C 74.5,50.1667 73.5,50.1667 72.5,51.5C 72.0825,50.7784 71.4158,50.2784 70.5,50C 71.1667,49.6667 71.8333,49.3333 72.5,49C 71.6195,48.2917 70.9528,47.4584 70.5,46.5C 70.1667,45.5 69.5,44.8333 68.5,44.5C 69.8333,43.8333 71.1667,43.1667 72.5,42.5C 73.9311,42.1193 74.7645,41.1193 75,39.5C 75.7096,40.9733 76.8762,41.6399 78.5,41.5 Z"/></g>
<g><path style="opacity:1" fill="#5d161d" d="M 55.5,38.5 C 55.1857,41.4887 53.8524,43.822 51.5,45.5C 51.6309,44.6236 51.2975,43.9569 50.5,43.5C 49.4822,44.1925 48.4822,44.8592 47.5,45.5C 47.1583,44.6618 46.4916,44.3284 45.5,44.5C 45.9175,43.7784 46.5842,43.2784 47.5,43C 46.3094,42.3021 45.3094,41.4687 44.5,40.5C 43.1667,40.5 42.5,39.8333 42.5,38.5C 43.1667,38.5 43.8333,38.5 44.5,38.5C 46.0163,39.8997 47.6829,41.233 49.5,42.5C 50.7202,41.2889 51.8869,41.2889 53,42.5C 53.7828,40.6815 53.2828,39.3482 51.5,38.5C 50.3507,40.9248 49.684,40.9248 49.5,38.5C 50.2613,37.6091 51.2613,36.9424 52.5,36.5C 53.2652,37.6119 54.2652,38.2786 55.5,38.5 Z"/></g>
<g><path style="opacity:1" fill="#0f0202" d="M 79.5,31.5 C 80.8916,34.0067 81.8916,36.6733 82.5,39.5C 82.2627,40.791 82.596,41.791 83.5,42.5C 83.5,46.1667 83.5,49.8333 83.5,53.5C 82.7611,53.631 82.0944,53.4643 81.5,53C 83.2533,48.6513 82.42,47.8179 79,50.5C 78.7613,49.212 79.2613,48.212 80.5,47.5C 81.4345,46.4324 81.7678,45.099 81.5,43.5C 81.1667,42.8333 80.8333,42.1667 80.5,41.5C 80.8928,38.4867 80.2261,35.8201 78.5,33.5C 78.3284,32.5084 78.6618,31.8417 79.5,31.5 Z"/></g>
<g><path style="opacity:1" fill="#300405" d="M 17.5,44.5 C 19.8333,44.5 22.1667,44.5 24.5,44.5C 24.8333,44.5 25.1667,44.5 25.5,44.5C 26.1098,45.391 26.4431,46.391 26.5,47.5C 24.353,45.2616 22.353,45.2616 20.5,47.5C 20.8627,48.1835 21.1961,48.8501 21.5,49.5C 20.596,50.209 20.2627,51.209 20.5,52.5C 18.8546,51.5213 17.5213,50.188 16.5,48.5C 15.7492,49.376 15.2492,50.376 15,51.5C 13.5585,49.6951 13.3918,47.6951 14.5,45.5C 15.391,44.8902 16.391,44.5569 17.5,44.5 Z"/></g>
<g><path style="opacity:1" fill="#681921" d="M 33.5,46.5 C 32.8333,46.5 32.5,46.8333 32.5,47.5C 30.3731,46.6024 29.2065,44.9357 29,42.5C 28.8758,45.2514 28.0425,46.9181 26.5,47.5C 26.4431,46.391 26.1098,45.391 25.5,44.5C 25.81,43.2617 26.31,43.2617 27,44.5C 27.4643,43.9056 27.631,43.2389 27.5,42.5C 28.172,41.7326 29.0053,41.0659 30,40.5C 30.3173,42.3008 30.984,42.6341 32,41.5C 32.3519,43.2475 32.8519,44.9142 33.5,46.5 Z"/></g>
<g><path style="opacity:1" fill="#210103" d="M 85.5,36.5 C 87.0476,40.034 87.7143,43.8673 87.5,48C 87.4978,51.0208 87.1644,53.8541 86.5,56.5C 85.9818,49.822 85.6484,43.1553 85.5,36.5 Z"/></g>
<g><path style="opacity:1" fill="#83222b" d="M 32.5,47.5 C 31.3398,48.265 30.3398,49.265 29.5,50.5C 29.9377,51.5063 30.6043,51.5063 31.5,50.5C 32.2975,50.9569 32.6309,51.6236 32.5,52.5C 30.9505,53.4408 29.2838,54.1075 27.5,54.5C 27.5852,53.0047 26.9185,52.0047 25.5,51.5C 25.407,52.4719 25.0736,53.4719 24.5,54.5C 21.9824,52.6434 21.9824,50.8101 24.5,49C 23.4232,48.5304 22.4232,48.6971 21.5,49.5C 21.1961,48.8501 20.8627,48.1835 20.5,47.5C 22.353,45.2616 24.353,45.2616 26.5,47.5C 28.0425,46.9181 28.8758,45.2514 29,42.5C 29.2065,44.9357 30.3731,46.6024 32.5,47.5 Z"/></g>
<g><path style="opacity:1" fill="#83222c" d="M 43.5,43.5 C 43.4088,45.6977 44.0755,46.0311 45.5,44.5C 46.4916,44.3284 47.1583,44.6618 47.5,45.5C 46.9094,46.1515 46.2427,46.8182 45.5,47.5C 46.3256,48.451 46.4922,49.451 46,50.5C 45.1667,49.5 44.3333,48.5 43.5,47.5C 42.3044,47.8457 42.3044,48.3457 43.5,49C 42.2506,49.7401 41.2506,49.5735 40.5,48.5C 40.5418,46.6069 40.3751,44.6069 40,42.5C 41.0113,43.3366 42.1779,43.67 43.5,43.5 Z"/></g>
<g><path style="opacity:1" fill="#400d12" d="M 64.5,39.5 C 65.4614,41.2646 65.7947,43.2646 65.5,45.5C 64.2825,46.1614 62.9492,46.8281 61.5,47.5C 62.6527,48.6868 62.6527,49.6868 61.5,50.5C 60.8333,51.1667 60.1667,51.8333 59.5,52.5C 59.5858,51.5041 59.2524,50.6708 58.5,50C 53.407,48.4451 53.407,47.6118 58.5,47.5C 58.5,46.1667 58.5,44.8333 58.5,43.5C 59.1667,44.1667 59.8333,44.8333 60.5,45.5C 63.2921,44.6082 64.6254,42.6082 64.5,39.5 Z"/></g>
<g><path style="opacity:1" fill="#7f212b" d="M 75.5,44.5 C 77.4251,44.1099 79.4251,43.7765 81.5,43.5C 81.7678,45.099 81.4345,46.4324 80.5,47.5C 80.0069,45.5096 78.8402,45.5096 77,47.5C 76.7679,46.2625 76.2679,45.2625 75.5,44.5 Z"/></g>
<g><path style="opacity:1" fill="#84222c" d="M 58.5,43.5 C 58.5,44.8333 58.5,46.1667 58.5,47.5C 53.407,47.6118 53.407,48.4451 58.5,50C 59.2524,50.6708 59.5858,51.5041 59.5,52.5C 56.6463,52.1179 53.6463,52.1179 50.5,52.5C 50.3796,50.8014 50.0463,49.1347 49.5,47.5C 49.7472,46.2867 50.4138,45.62 51.5,45.5C 52.3945,52.0565 53.3945,52.0565 54.5,45.5C 57.0595,46.4347 57.7262,45.6013 56.5,43C 57.8224,40.8324 58.4891,40.9991 58.5,43.5 Z"/></g>
<g><path style="opacity:1" fill="#3a0e12" d="M 70.5,46.5 C 70.9528,47.4584 71.6195,48.2917 72.5,49C 71.8333,49.3333 71.1667,49.6667 70.5,50C 71.4158,50.2784 72.0825,50.7784 72.5,51.5C 71.448,51.3505 70.448,51.5172 69.5,52C 70.7375,52.2321 71.7375,52.7321 72.5,53.5C 71.6618,53.8417 71.3284,54.5084 71.5,55.5C 69.8974,54.3228 68.564,54.4894 67.5,56C 68.7111,57.1131 68.7111,58.2798 67.5,59.5C 68.6119,60.2652 69.2786,61.2652 69.5,62.5C 67.0513,66.208 63.7179,67.208 59.5,65.5C 61.8337,64.8763 64.1671,64.043 66.5,63C 65.1667,63 63.8333,63 62.5,63C 63.8333,62 65.1667,61 66.5,60C 64.1367,59.4115 63.1367,57.9115 63.5,55.5C 63.5,55.1667 63.5,54.8333 63.5,54.5C 65.9856,53.5384 65.9856,52.7051 63.5,52C 63.9428,47.7771 66.2762,45.9437 70.5,46.5 Z"/></g>
<g><path style="opacity:1" fill="#83222b" d="M 68.5,44.5 C 69.5,44.8333 70.1667,45.5 70.5,46.5C 66.2762,45.9437 63.9428,47.7771 63.5,52C 65.9856,52.7051 65.9856,53.5384 63.5,54.5C 62.8333,54.1667 62.1667,53.8333 61.5,53.5C 61.5,52.5 61.5,51.5 61.5,50.5C 62.6527,49.6868 62.6527,48.6868 61.5,47.5C 62.9492,46.8281 64.2825,46.1614 65.5,45.5C 66.791,45.7373 67.791,45.404 68.5,44.5 Z"/></g>
<g><path style="opacity:1" fill="#400810" d="M 44.5,41.5 C 44.1667,42.1667 43.8333,42.8333 43.5,43.5C 42.1779,43.67 41.0113,43.3366 40,42.5C 40.3751,44.6069 40.5418,46.6069 40.5,48.5C 39.1266,48.3433 37.7932,48.51 36.5,49C 38.962,50.2156 41.6287,50.8823 44.5,51C 46.0629,51.7589 47.0629,52.9256 47.5,54.5C 46.8826,54.3893 46.3826,54.056 46,53.5C 45.7679,54.7375 45.2679,55.7375 44.5,56.5C 42.2014,57.9323 40.5347,57.2656 39.5,54.5C 39.5,55.8333 39.5,57.1667 39.5,58.5C 37.2145,57.8671 35.5478,56.5338 34.5,54.5C 34.1667,53.5 33.5,52.8333 32.5,52.5C 32.6309,51.6236 32.2975,50.9569 31.5,50.5C 30.6043,51.5063 29.9377,51.5063 29.5,50.5C 30.3398,49.265 31.3398,48.265 32.5,47.5C 32.5,46.8333 32.8333,46.5 33.5,46.5C 34.1667,46.8333 34.8333,47.1667 35.5,47.5C 38.5131,46.6441 39.1797,44.8108 37.5,42C 39.2711,39.8865 40.7711,40.0532 42,42.5C 42.6708,41.7476 43.5041,41.4142 44.5,41.5 Z"/></g>
<g><path style="opacity:1" fill="#220606" d="M 51.5,45.5 C 50.4138,45.62 49.7472,46.2867 49.5,47.5C 50.0463,49.1347 50.3796,50.8014 50.5,52.5C 49.7777,53.5511 48.7777,54.2178 47.5,54.5C 47.0629,52.9256 46.0629,51.7589 44.5,51C 41.6287,50.8823 38.962,50.2156 36.5,49C 37.7932,48.51 39.1266,48.3433 40.5,48.5C 41.2506,49.5735 42.2506,49.7401 43.5,49C 42.3044,48.3457 42.3044,47.8457 43.5,47.5C 44.3333,48.5 45.1667,49.5 46,50.5C 46.4922,49.451 46.3256,48.451 45.5,47.5C 46.2427,46.8182 46.9094,46.1515 47.5,45.5C 48.4822,44.8592 49.4822,44.1925 50.5,43.5C 51.2975,43.9569 51.6309,44.6236 51.5,45.5 Z"/></g>
<g><path style="opacity:1" fill="#4e1218" d="M 75.5,44.5 C 76.2679,45.2625 76.7679,46.2625 77,47.5C 78.8402,45.5096 80.0069,45.5096 80.5,47.5C 79.2613,48.212 78.7613,49.212 79,50.5C 82.42,47.8179 83.2533,48.6513 81.5,53C 82.0944,53.4643 82.7611,53.631 83.5,53.5C 83.5,54.1667 83.1667,54.5 82.5,54.5C 80.9557,54.2969 79.6223,53.6302 78.5,52.5C 77.6697,55.8208 77.003,59.1542 76.5,62.5C 75.8333,62.8333 75.1667,63.1667 74.5,63.5C 76.4759,59.6119 76.8092,55.6119 75.5,51.5C 75.2969,49.9557 74.6302,48.6223 73.5,47.5C 73.9424,46.2613 74.6091,45.2613 75.5,44.5 Z"/></g>
<g><path style="opacity:1" fill="#210707" d="M 61.5,50.5 C 61.5,51.5 61.5,52.5 61.5,53.5C 58.086,54.0318 54.586,54.3651 51,54.5C 50.5357,53.9056 50.369,53.2389 50.5,52.5C 53.6463,52.1179 56.6463,52.1179 59.5,52.5C 60.1667,51.8333 60.8333,51.1667 61.5,50.5 Z"/></g>
<g><path style="opacity:1" fill="#701d25" d="M 14.5,45.5 C 13.3918,47.6951 13.5585,49.6951 15,51.5C 15.2492,50.376 15.7492,49.376 16.5,48.5C 17.5213,50.188 18.8546,51.5213 20.5,52.5C 20.5,52.8333 20.5,53.1667 20.5,53.5C 15.9003,55.2673 13.2337,53.6006 12.5,48.5C 12.4534,46.9623 13.1201,45.9623 14.5,45.5 Z"/></g>
<g><path style="opacity:1" fill="#430e13" d="M 24.5,54.5 C 25.9538,56.2633 25.6204,57.5967 23.5,58.5C 22.7321,57.7375 22.2321,56.7375 22,55.5C 21.2208,58.0972 20.7208,58.0972 20.5,55.5C 21.5063,54.6043 21.5063,53.9377 20.5,53.5C 20.5,53.1667 20.5,52.8333 20.5,52.5C 20.2627,51.209 20.596,50.209 21.5,49.5C 22.4232,48.6971 23.4232,48.5304 24.5,49C 21.9824,50.8101 21.9824,52.6434 24.5,54.5 Z"/></g>
<g><path style="opacity:1" fill="#290b0b" d="M 14.5,45.5 C 13.1201,45.9623 12.4534,46.9623 12.5,48.5C 13.2337,53.6006 15.9003,55.2673 20.5,53.5C 21.5063,53.9377 21.5063,54.6043 20.5,55.5C 18.8762,55.3601 17.7096,56.0267 17,57.5C 16.6667,57.1667 16.3333,56.8333 16,56.5C 16.1519,58.0761 16.9852,59.4095 18.5,60.5C 17.6446,61.293 16.8113,60.9597 16,59.5C 15.5357,60.0944 15.369,60.7611 15.5,61.5C 11.7725,55.2375 10.9391,48.5709 13,41.5C 13.7914,42.745 14.2914,44.0783 14.5,45.5 Z"/></g>
<g><path style="opacity:1" fill="#521319" d="M 50.5,52.5 C 50.369,53.2389 50.5357,53.9056 51,54.5C 54.586,54.3651 58.086,54.0318 61.5,53.5C 62.1667,53.8333 62.8333,54.1667 63.5,54.5C 63.5,54.8333 63.5,55.1667 63.5,55.5C 62.8444,56.2778 62.0111,56.9444 61,57.5C 59.5936,56.5862 58.0936,55.9195 56.5,55.5C 54.7454,56.9044 52.7454,57.9044 50.5,58.5C 49.2112,57.3634 48.2112,56.0301 47.5,54.5C 48.7777,54.2178 49.7777,53.5511 50.5,52.5 Z"/></g>
<g><path style="opacity:1" fill="#2f0809" d="M 75.5,51.5 C 76.8092,55.6119 76.4759,59.6119 74.5,63.5C 72.8828,62.962 71.2161,62.6287 69.5,62.5C 69.2786,61.2652 68.6119,60.2652 67.5,59.5C 68.7111,58.2798 68.7111,57.1131 67.5,56C 68.564,54.4894 69.8974,54.3228 71.5,55.5C 72.9526,56.8249 72.6192,57.6582 70.5,58C 71.5291,61.0571 72.8624,61.0571 74.5,58C 73.7334,56.5295 73.0668,55.0295 72.5,53.5C 71.7375,52.7321 70.7375,52.2321 69.5,52C 70.448,51.5172 71.448,51.3505 72.5,51.5C 73.5,50.1667 74.5,50.1667 75.5,51.5 Z"/></g>
<g><path style="opacity:0.699" fill="#2f0205" d="M 15.5,66.5 C 14.6618,66.8417 14.3284,67.5084 14.5,68.5C 9.78985,62.0323 7.45651,54.6989 7.5,46.5C 9.0672,45.3192 9.90054,43.6526 10,41.5C 9.48585,50.3973 11.3192,58.7306 15.5,66.5 Z"/></g>
<g><path style="opacity:1" fill="#34070a" d="M 47.5,54.5 C 48.2112,56.0301 49.2112,57.3634 50.5,58.5C 50.1667,59.5 49.5,60.1667 48.5,60.5C 46.2646,60.2053 44.2646,60.5386 42.5,61.5C 41.475,61.1034 41.3083,60.4368 42,59.5C 43.0674,58.8095 44.2341,58.3095 45.5,58C 44.944,57.6174 44.6107,57.1174 44.5,56.5C 45.2679,55.7375 45.7679,54.7375 46,53.5C 46.3826,54.056 46.8826,54.3893 47.5,54.5 Z"/></g>
<g><path style="opacity:1" fill="#661920" d="M 72.5,53.5 C 73.0668,55.0295 73.7334,56.5295 74.5,58C 72.8624,61.0571 71.5291,61.0571 70.5,58C 72.6192,57.6582 72.9526,56.8249 71.5,55.5C 71.3284,54.5084 71.6618,53.8417 72.5,53.5 Z"/></g>
<g><path style="opacity:1" fill="#6f1b23" d="M 20.5,55.5 C 20.7208,58.0972 21.2208,58.0972 22,55.5C 22.2321,56.7375 22.7321,57.7375 23.5,58.5C 23.2252,60.8418 22.3919,60.8418 21,58.5C 20.6258,59.4162 20.1258,60.2496 19.5,61C 19.7284,61.3988 20.0618,61.5654 20.5,61.5C 20.5,61.8333 20.5,62.1667 20.5,62.5C 18.7085,62.634 17.0418,62.3007 15.5,61.5C 15.369,60.7611 15.5357,60.0944 16,59.5C 16.8113,60.9597 17.6446,61.293 18.5,60.5C 16.9852,59.4095 16.1519,58.0761 16,56.5C 16.3333,56.8333 16.6667,57.1667 17,57.5C 17.7096,56.0267 18.8762,55.3601 20.5,55.5 Z"/></g>
<g><path style="opacity:1" fill="#300607" d="M 27.5,54.5 C 26.7451,57.0529 26.0784,59.7196 25.5,62.5C 23.9582,61.6993 22.2915,61.366 20.5,61.5C 20.0618,61.5654 19.7284,61.3988 19.5,61C 20.1258,60.2496 20.6258,59.4162 21,58.5C 22.3919,60.8418 23.2252,60.8418 23.5,58.5C 25.6204,57.5967 25.9538,56.2633 24.5,54.5C 25.0736,53.4719 25.407,52.4719 25.5,51.5C 26.9185,52.0047 27.5852,53.0047 27.5,54.5 Z"/></g>
<g><path style="opacity:1" fill="#7d2028" d="M 34.5,54.5 C 35.5478,56.5338 37.2145,57.8671 39.5,58.5C 39.5,57.1667 39.5,55.8333 39.5,54.5C 40.5347,57.2656 42.2014,57.9323 44.5,56.5C 44.6107,57.1174 44.944,57.6174 45.5,58C 44.2341,58.3095 43.0674,58.8095 42,59.5C 41.3083,60.4368 41.475,61.1034 42.5,61.5C 41.4097,62.8571 40.0764,63.8571 38.5,64.5C 37.8333,64.5 37.1667,64.5 36.5,64.5C 37.0577,63.2101 38.0577,62.3768 39.5,62C 38.7801,59.8777 37.6134,59.3777 36,60.5C 35.3918,58.9336 34.5585,57.6002 33.5,56.5C 33.5,56.1667 33.5,55.8333 33.5,55.5C 33.5,54.8333 33.8333,54.5 34.5,54.5 Z"/></g>
<g><path style="opacity:1" fill="#671920" d="M 56.5,55.5 C 58.0936,55.9195 59.5936,56.5862 61,57.5C 62.0111,56.9444 62.8444,56.2778 63.5,55.5C 63.1367,57.9115 64.1367,59.4115 66.5,60C 65.1667,61 63.8333,62 62.5,63C 63.8333,63 65.1667,63 66.5,63C 64.1671,64.043 61.8337,64.8763 59.5,65.5C 58.6618,65.1583 58.3284,64.4916 58.5,63.5C 60.3173,62.7808 60.9839,61.7808 60.5,60.5C 57.9512,62.1828 55.1179,63.1828 52,63.5C 48.8882,62.5169 45.7215,61.8503 42.5,61.5C 44.2646,60.5386 46.2646,60.2053 48.5,60.5C 49.3739,61.5251 50.5405,62.1918 52,62.5C 53.3707,61.4188 54.8707,60.5855 56.5,60C 55.5868,58.5861 55.5868,57.0861 56.5,55.5 Z"/></g>
<g><path style="opacity:1" fill="#300607" d="M 82.5,54.5 C 82.6495,55.552 82.4828,56.552 82,57.5C 81.2904,56.0267 80.1238,55.3601 78.5,55.5C 78.3505,56.552 78.5172,57.552 79,58.5C 79.6667,59.8333 80.3333,59.8333 81,58.5C 81.4643,59.0944 81.631,59.7611 81.5,60.5C 80.6618,60.8417 80.3284,61.5084 80.5,62.5C 79.1667,61.1667 77.8333,61.1667 76.5,62.5C 77.003,59.1542 77.6697,55.8208 78.5,52.5C 79.6223,53.6302 80.9557,54.2969 82.5,54.5 Z"/></g>
<g><path style="opacity:1" fill="#2f0507" d="M 56.5,55.5 C 55.5868,57.0861 55.5868,58.5861 56.5,60C 54.8707,60.5855 53.3707,61.4188 52,62.5C 50.5405,62.1918 49.3739,61.5251 48.5,60.5C 49.5,60.1667 50.1667,59.5 50.5,58.5C 52.7454,57.9044 54.7454,56.9044 56.5,55.5 Z"/></g>
<g><path style="opacity:1" fill="#521319" d="M 32.5,52.5 C 33.5,52.8333 34.1667,53.5 34.5,54.5C 33.8333,54.5 33.5,54.8333 33.5,55.5C 31.6969,57.4813 30.0303,59.648 28.5,62C 27.552,62.4828 26.552,62.6495 25.5,62.5C 26.0784,59.7196 26.7451,57.0529 27.5,54.5C 29.2838,54.1075 30.9505,53.4408 32.5,52.5 Z"/></g>
<g><path style="opacity:1" fill="#3a0b10" d="M 33.5,56.5 C 34.5585,57.6002 35.3918,58.9336 36,60.5C 37.6134,59.3777 38.7801,59.8777 39.5,62C 38.0577,62.3768 37.0577,63.2101 36.5,64.5C 35.2209,63.032 33.5542,62.3653 31.5,62.5C 30.9569,62.44 30.6236,62.1067 30.5,61.5C 31.9524,60.0603 32.9524,58.3936 33.5,56.5 Z"/></g>
<g><path style="opacity:1" fill="#2e0808" d="M 33.5,55.5 C 33.5,55.8333 33.5,56.1667 33.5,56.5C 32.9524,58.3936 31.9524,60.0603 30.5,61.5C 30.6236,62.1067 30.9569,62.44 31.5,62.5C 31.5,62.8333 31.5,63.1667 31.5,63.5C 31.5,64.1667 31.5,64.8333 31.5,65.5C 30.5416,65.0472 29.7083,64.3805 29,63.5C 29,64.8333 29,66.1667 29,67.5C 28.0357,65.635 26.8691,63.9683 25.5,62.5C 26.552,62.6495 27.552,62.4828 28.5,62C 30.0303,59.648 31.6969,57.4813 33.5,55.5 Z"/></g>
<g><path style="opacity:1" fill="#59191e" d="M 81.5,60.5 C 81.8041,62.7957 82.8041,63.129 84.5,61.5C 83.9213,64.3311 82.588,66.6644 80.5,68.5C 80.631,67.7611 80.4643,67.0944 80,66.5C 78.9509,68.6175 77.4509,70.2842 75.5,71.5C 76.9009,68.3661 78.5675,65.3661 80.5,62.5C 80.3284,61.5084 80.6618,60.8417 81.5,60.5 Z"/></g>
<g><path style="opacity:1" fill="#220304" d="M 15.5,61.5 C 17.0418,62.3007 18.7085,62.634 20.5,62.5C 25.6598,63.7283 25.6598,64.3949 20.5,64.5C 19.0527,63.1148 18.0527,63.4482 17.5,65.5C 16.3263,64.4863 15.6596,63.153 15.5,61.5 Z"/></g>
<g><path style="opacity:1" fill="#170102" d="M 76.5,62.5 C 75.1604,65.8397 72.827,68.173 69.5,69.5C 67.1432,69.6633 64.8098,69.4966 62.5,69C 64.7078,68.8091 66.7078,68.3091 68.5,67.5C 71.1979,67.1551 73.1979,65.8218 74.5,63.5C 75.1667,63.1667 75.8333,62.8333 76.5,62.5 Z"/></g>
<g><path style="opacity:1" fill="#3f070d" d="M 80.5,62.5 C 78.5675,65.3661 76.9009,68.3661 75.5,71.5C 75.5,72.1667 75.1667,72.5 74.5,72.5C 73.71,71.3915 73.21,70.0581 73,68.5C 71.9887,69.3366 70.8221,69.67 69.5,69.5C 72.827,68.173 75.1604,65.8397 76.5,62.5C 77.8333,61.1667 79.1667,61.1667 80.5,62.5 Z"/></g>
<g><path style="opacity:1" fill="#89242e" d="M 31.5,63.5 C 33.8489,63.4583 35.1822,64.6249 35.5,67C 35.1639,68.0299 34.4972,68.5299 33.5,68.5C 33.0679,67.2905 32.4013,66.2905 31.5,65.5C 31.5,64.8333 31.5,64.1667 31.5,63.5 Z"/></g>
<g><path style="opacity:1" fill="#691920" d="M 69.5,62.5 C 71.2161,62.6287 72.8828,62.962 74.5,63.5C 73.1979,65.8218 71.1979,67.1551 68.5,67.5C 65.4816,67.3354 62.4816,67.502 59.5,68C 60.3366,69.0113 60.67,70.1779 60.5,71.5C 60.1667,71.5 59.8333,71.5 59.5,71.5C 57.3533,69.5305 55.02,67.6971 52.5,66C 54.1261,66.1953 55.7928,66.1953 57.5,66C 54.9485,64.4842 55.2819,63.6509 58.5,63.5C 58.3284,64.4916 58.6618,65.1583 59.5,65.5C 63.7179,67.208 67.0513,66.208 69.5,62.5 Z"/></g>
<g><path style="opacity:1" fill="#410e13" d="M 20.5,64.5 C 21.8333,65.5 23.1667,66.5 24.5,67.5C 22.5328,67.7394 20.6995,67.4061 19,66.5C 18.5304,67.5768 18.6971,68.5768 19.5,69.5C 19.631,70.2389 19.4643,70.9056 19,71.5C 17.1978,70.2107 16.0312,68.5441 15.5,66.5C 16.9245,68.0311 17.5912,67.6977 17.5,65.5C 18.0527,63.4482 19.0527,63.1148 20.5,64.5 Z"/></g>
<g><path style="opacity:1" fill="#651a21" d="M 20.5,62.5 C 20.5,62.1667 20.5,61.8333 20.5,61.5C 22.2915,61.366 23.9582,61.6993 25.5,62.5C 26.8691,63.9683 28.0357,65.635 29,67.5C 29,66.1667 29,64.8333 29,63.5C 29.7083,64.3805 30.5416,65.0472 31.5,65.5C 30.3586,67.4513 30.3586,69.4513 31.5,71.5C 30.3634,70.2112 29.0301,69.2112 27.5,68.5C 26.791,67.596 25.791,67.2627 24.5,67.5C 23.1667,66.5 21.8333,65.5 20.5,64.5C 25.6598,64.3949 25.6598,63.7283 20.5,62.5 Z"/></g>
<g><path style="opacity:1" fill="#410e13" d="M 49.5,65.5 C 48.7611,65.369 48.0944,65.5357 47.5,66C 48.0611,67.676 49.0611,69.0094 50.5,70C 50.2716,70.3988 49.9382,70.5654 49.5,70.5C 47.9293,71.1969 46.4293,71.5302 45,71.5C 43.9914,69.9751 43.4914,68.3084 43.5,66.5C 45.3841,66.2882 46.7174,65.2882 47.5,63.5C 48.5223,63.8555 49.189,64.5222 49.5,65.5 Z"/></g>
<g><path style="opacity:1" fill="#8d252f" d="M 49.5,65.5 C 50.9395,67.588 51.6061,69.9214 51.5,72.5C 50.1667,72.5 49.5,71.8333 49.5,70.5C 49.9382,70.5654 50.2716,70.3988 50.5,70C 49.0611,69.0094 48.0611,67.676 47.5,66C 48.0944,65.5357 48.7611,65.369 49.5,65.5 Z"/></g>
<g><path style="opacity:1" fill="#430e13" d="M 31.5,63.5 C 31.5,63.1667 31.5,62.8333 31.5,62.5C 33.5542,62.3653 35.2209,63.032 36.5,64.5C 37.1667,64.5 37.8333,64.5 38.5,64.5C 39.7498,64.5774 40.5831,65.244 41,66.5C 41.9057,64.388 43.4057,63.5547 45.5,64C 44.6195,64.7083 43.9528,65.5416 43.5,66.5C 42.1667,67.1667 41.1667,68.1667 40.5,69.5C 38.9519,69.8212 38.2852,70.8212 38.5,72.5C 37.5,72.5 36.5,72.5 35.5,72.5C 35.4729,70.8007 34.8062,69.4674 33.5,68.5C 34.4972,68.5299 35.1639,68.0299 35.5,67C 35.1822,64.6249 33.8489,63.4583 31.5,63.5 Z"/></g>
<g><path style="opacity:1" fill="#34090d" d="M 43.5,66.5 C 43.4914,68.3084 43.9914,69.9751 45,71.5C 46.4293,71.5302 47.9293,71.1969 49.5,70.5C 49.5,71.8333 50.1667,72.5 51.5,72.5C 52.5,72.1667 53.1667,71.5 53.5,70.5C 55.9038,73.5179 54.9038,75.1846 50.5,75.5C 49.1667,75.8333 47.8333,76.1667 46.5,76.5C 46.0825,75.7784 45.4158,75.2784 44.5,75C 44.8333,74.6667 45.1667,74.3333 45.5,74C 44.552,73.5172 43.552,73.3505 42.5,73.5C 42.7709,71.6203 42.1042,70.287 40.5,69.5C 41.1667,68.1667 42.1667,67.1667 43.5,66.5 Z"/></g>
<g><path style="opacity:1" fill="#2f0a0c" d="M 58.5,63.5 C 55.2819,63.6509 54.9485,64.4842 57.5,66C 55.7928,66.1953 54.1261,66.1953 52.5,66C 55.02,67.6971 57.3533,69.5305 59.5,71.5C 59.5,71.8333 59.5,72.1667 59.5,72.5C 57.6075,71.2983 55.7742,69.965 54,68.5C 53.5357,69.0944 53.369,69.7611 53.5,70.5C 53.1667,71.5 52.5,72.1667 51.5,72.5C 51.6061,69.9214 50.9395,67.588 49.5,65.5C 49.189,64.5222 48.5223,63.8555 47.5,63.5C 46.7174,65.2882 45.3841,66.2882 43.5,66.5C 43.9528,65.5416 44.6195,64.7083 45.5,64C 43.4057,63.5547 41.9057,64.388 41,66.5C 40.5831,65.244 39.7498,64.5774 38.5,64.5C 40.0764,63.8571 41.4097,62.8571 42.5,61.5C 45.7215,61.8503 48.8882,62.5169 52,63.5C 55.1179,63.1828 57.9512,62.1828 60.5,60.5C 60.9839,61.7808 60.3173,62.7808 58.5,63.5 Z"/></g>
<g><path style="opacity:1" fill="#340507" d="M 24.5,67.5 C 25.791,67.2627 26.791,67.596 27.5,68.5C 27.1667,69.1667 26.8333,69.8333 26.5,70.5C 26.9528,71.4584 27.6195,72.2917 28.5,73C 25.6079,72.4587 23.1079,70.9587 21,68.5C 20.6012,68.7284 20.4346,69.0618 20.5,69.5C 20.1667,69.5 19.8333,69.5 19.5,69.5C 18.6971,68.5768 18.5304,67.5768 19,66.5C 20.6995,67.4061 22.5328,67.7394 24.5,67.5 Z"/></g>
<g><path style="opacity:1" fill="#3d0a10" d="M 31.5,65.5 C 32.4013,66.2905 33.0679,67.2905 33.5,68.5C 34.8062,69.4674 35.4729,70.8007 35.5,72.5C 34.0924,74.8597 32.7591,74.5264 31.5,71.5C 30.3586,69.4513 30.3586,67.4513 31.5,65.5 Z"/></g>
<g><path style="opacity:1" fill="#4d1117" d="M 68.5,67.5 C 66.7078,68.3091 64.7078,68.8091 62.5,69C 64.8098,69.4966 67.1432,69.6633 69.5,69.5C 69.6716,70.4916 69.3382,71.1583 68.5,71.5C 68.1034,70.475 67.4368,70.3083 66.5,71C 67.2524,71.6708 67.5858,72.5041 67.5,73.5C 64.4289,75.2529 62.0956,74.5862 60.5,71.5C 60.67,70.1779 60.3366,69.0113 59.5,68C 62.4816,67.502 65.4816,67.3354 68.5,67.5 Z"/></g>
<g><path style="opacity:1" fill="#8c242e" d="M 26.5,70.5 C 28.9374,72.974 31.604,75.3073 34.5,77.5C 34.0431,78.2975 33.3764,78.6309 32.5,78.5C 30.2088,77.235 27.8754,75.9017 25.5,74.5C 23.6397,73.0613 21.973,71.3947 20.5,69.5C 20.4346,69.0618 20.6012,68.7284 21,68.5C 23.1079,70.9587 25.6079,72.4587 28.5,73C 27.6195,72.2917 26.9528,71.4584 26.5,70.5 Z"/></g>
<g><path style="opacity:1" fill="#4f1017" d="M 59.5,72.5 C 58.8407,75.4082 58.0074,75.7416 57,73.5C 54.4575,74.8764 54.2908,76.043 56.5,77C 54.9419,77.21 53.6085,77.71 52.5,78.5C 51.8333,78.5 51.1667,78.5 50.5,78.5C 50.5,77.5 50.5,76.5 50.5,75.5C 54.9038,75.1846 55.9038,73.5179 53.5,70.5C 53.369,69.7611 53.5357,69.0944 54,68.5C 55.7742,69.965 57.6075,71.2983 59.5,72.5 Z"/></g>
<g><path style="opacity:1" fill="#7b2029" d="M 74.5,72.5 C 73.4154,74.5869 71.7488,75.9202 69.5,76.5C 70.5981,75.603 70.5981,74.7697 69.5,74C 70.3081,73.6924 70.9747,73.1924 71.5,72.5C 70.5281,72.407 69.5281,72.0736 68.5,71.5C 69.3382,71.1583 69.6716,70.4916 69.5,69.5C 70.8221,69.67 71.9887,69.3366 73,68.5C 73.21,70.0581 73.71,71.3915 74.5,72.5 Z"/></g>
<g><path style="opacity:0.811" fill="#1d0204" d="M 80.5,68.5 C 77.8333,73.1667 74.1667,76.8333 69.5,79.5C 69.5,78.8333 69.1667,78.5 68.5,78.5C 68.8333,77.8333 69.1667,77.1667 69.5,76.5C 71.7488,75.9202 73.4154,74.5869 74.5,72.5C 75.1667,72.5 75.5,72.1667 75.5,71.5C 77.4509,70.2842 78.9509,68.6175 80,66.5C 80.4643,67.0944 80.631,67.7611 80.5,68.5 Z"/></g>
<g><path style="opacity:1" fill="#320709" d="M 27.5,68.5 C 29.0301,69.2112 30.3634,70.2112 31.5,71.5C 32.7591,74.5264 34.0924,74.8597 35.5,72.5C 36.5,72.5 37.5,72.5 38.5,72.5C 38.9528,73.4584 39.6195,74.2917 40.5,75C 39.244,75.4169 38.5774,76.2502 38.5,77.5C 37.5,77.5 36.5,77.5 35.5,77.5C 35.5,78.5 35.5,79.5 35.5,80.5C 34.2905,80.0679 33.2905,79.4013 32.5,78.5C 33.3764,78.6309 34.0431,78.2975 34.5,77.5C 31.604,75.3073 28.9374,72.974 26.5,70.5C 26.8333,69.8333 27.1667,69.1667 27.5,68.5 Z"/></g>
<g><path style="opacity:1" fill="#59171d" d="M 15.5,66.5 C 16.0312,68.5441 17.1978,70.2107 19,71.5C 19.4643,70.9056 19.631,70.2389 19.5,69.5C 19.8333,69.5 20.1667,69.5 20.5,69.5C 21.973,71.3947 23.6397,73.0613 25.5,74.5C 24.7611,74.369 24.0944,74.5357 23.5,75C 24.4158,75.2784 25.0825,75.7784 25.5,76.5C 24.2976,77.4054 22.9643,77.4054 21.5,76.5C 18.4503,74.4509 16.117,71.7843 14.5,68.5C 14.3284,67.5084 14.6618,66.8417 15.5,66.5 Z"/></g>
<g><path style="opacity:1" fill="#88232d" d="M 40.5,69.5 C 42.1042,70.287 42.7709,71.6203 42.5,73.5C 43.552,73.3505 44.552,73.5172 45.5,74C 45.1667,74.3333 44.8333,74.6667 44.5,75C 45.4158,75.2784 46.0825,75.7784 46.5,76.5C 43.8333,76.8333 41.1667,77.1667 38.5,77.5C 38.5774,76.2502 39.244,75.4169 40.5,75C 39.6195,74.2917 38.9528,73.4584 38.5,72.5C 38.2852,70.8212 38.9519,69.8212 40.5,69.5 Z"/></g>
<g><path style="opacity:1" fill="#2f0809" d="M 59.5,71.5 C 59.8333,71.5 60.1667,71.5 60.5,71.5C 62.0956,74.5862 64.4289,75.2529 67.5,73.5C 66.0101,75.2798 64.0101,75.9465 61.5,75.5C 59.5956,75.7376 58.2623,76.7376 57.5,78.5C 55.9008,79.562 54.2341,79.562 52.5,78.5C 53.6085,77.71 54.9419,77.21 56.5,77C 54.2908,76.043 54.4575,74.8764 57,73.5C 58.0074,75.7416 58.8407,75.4082 59.5,72.5C 59.5,72.1667 59.5,71.8333 59.5,71.5 Z"/></g>
<g><path style="opacity:1" fill="#6b1d24" d="M 25.5,74.5 C 27.8754,75.9017 30.2088,77.235 32.5,78.5C 33.2905,79.4013 34.2905,80.0679 35.5,80.5C 37.5,80.8333 39.5,81.1667 41.5,81.5C 41.5,81.8333 41.5,82.1667 41.5,82.5C 41.5,82.8333 41.5,83.1667 41.5,83.5C 41.1667,83.5 40.8333,83.5 40.5,83.5C 35.1185,81.9758 30.1185,79.6425 25.5,76.5C 25.0825,75.7784 24.4158,75.2784 23.5,75C 24.0944,74.5357 24.7611,74.369 25.5,74.5 Z"/></g>
<g><path style="opacity:1" fill="#3b0409" d="M 68.5,71.5 C 69.5281,72.0736 70.5281,72.407 71.5,72.5C 70.9747,73.1924 70.3081,73.6924 69.5,74C 70.5981,74.7697 70.5981,75.603 69.5,76.5C 68.1667,76.8333 66.8333,77.1667 65.5,77.5C 64.1667,76.1667 62.8333,76.1667 61.5,77.5C 61.5,76.8333 61.5,76.1667 61.5,75.5C 64.0101,75.9465 66.0101,75.2798 67.5,73.5C 67.5858,72.5041 67.2524,71.6708 66.5,71C 67.4368,70.3083 68.1034,70.475 68.5,71.5 Z"/></g>
<g><path style="opacity:1" fill="#942732" d="M 61.5,75.5 C 61.5,76.1667 61.5,76.8333 61.5,77.5C 61.5,78.1667 61.1667,78.5 60.5,78.5C 59.5,78.5 58.5,78.5 57.5,78.5C 58.2623,76.7376 59.5956,75.7376 61.5,75.5 Z"/></g>
<g><path style="opacity:1" fill="#290505" d="M 21.5,76.5 C 22.9643,77.4054 24.2976,77.4054 25.5,76.5C 30.1185,79.6425 35.1185,81.9758 40.5,83.5C 41.2625,84.2679 42.2625,84.7679 43.5,85C 41.1527,85.3336 38.8194,85.167 36.5,84.5C 30.4533,83.6454 25.4533,80.9787 21.5,76.5 Z"/></g>
<g><path style="opacity:1" fill="#2b0809" d="M 50.5,75.5 C 50.5,76.5 50.5,77.5 50.5,78.5C 48.0248,77.3132 45.6914,77.6465 43.5,79.5C 42.8501,79.1961 42.1835,78.8627 41.5,78.5C 40.2267,79.2565 40.2267,79.9232 41.5,80.5C 41.5,80.8333 41.5,81.1667 41.5,81.5C 39.5,81.1667 37.5,80.8333 35.5,80.5C 35.5,79.5 35.5,78.5 35.5,77.5C 36.5,77.5 37.5,77.5 38.5,77.5C 41.1667,77.1667 43.8333,76.8333 46.5,76.5C 47.8333,76.1667 49.1667,75.8333 50.5,75.5 Z"/></g>
<g><path style="opacity:1" fill="#3d0209" d="M 50.5,78.5 C 51.1667,78.5 51.8333,78.5 52.5,78.5C 54.2341,79.562 55.9008,79.562 57.5,78.5C 58.5,78.5 59.5,78.5 60.5,78.5C 55.9326,80.2128 51.2659,81.5461 46.5,82.5C 44.8333,82.5 43.1667,82.5 41.5,82.5C 41.5,82.1667 41.5,81.8333 41.5,81.5C 41.5,81.1667 41.5,80.8333 41.5,80.5C 42.7382,81.4124 44.0715,81.5791 45.5,81C 44.5842,80.7216 43.9175,80.2216 43.5,79.5C 45.6914,77.6465 48.0248,77.3132 50.5,78.5 Z"/></g>
<g><path style="opacity:1" fill="#8a232c" d="M 43.5,79.5 C 43.9175,80.2216 44.5842,80.7216 45.5,81C 44.0715,81.5791 42.7382,81.4124 41.5,80.5C 40.2267,79.9232 40.2267,79.2565 41.5,78.5C 42.1835,78.8627 42.8501,79.1961 43.5,79.5 Z"/></g>
<g><path style="opacity:1" fill="#2e0304" d="M 65.5,77.5 C 59.78,81.0508 53.4466,82.7174 46.5,82.5C 51.2659,81.5461 55.9326,80.2128 60.5,78.5C 61.1667,78.5 61.5,78.1667 61.5,77.5C 62.8333,76.1667 64.1667,76.1667 65.5,77.5 Z"/></g>
<g><path style="opacity:1" fill="#7e232b" d="M 69.5,76.5 C 69.1667,77.1667 68.8333,77.8333 68.5,78.5C 63.593,81.3569 58.2597,83.0236 52.5,83.5C 48.8333,83.5 45.1667,83.5 41.5,83.5C 41.5,83.1667 41.5,82.8333 41.5,82.5C 43.1667,82.5 44.8333,82.5 46.5,82.5C 53.4466,82.7174 59.78,81.0508 65.5,77.5C 66.8333,77.1667 68.1667,76.8333 69.5,76.5 Z"/></g>
<g><path style="opacity:0.559" fill="#250205" d="M 68.5,78.5 C 69.1667,78.5 69.5,78.8333 69.5,79.5C 64.4618,83.1804 58.7951,85.5138 52.5,86.5C 52.5,85.5 52.5,84.5 52.5,83.5C 58.2597,83.0236 63.593,81.3569 68.5,78.5 Z"/></g>
<g><path style="opacity:0.978" fill="#230506" d="M 40.5,83.5 C 40.8333,83.5 41.1667,83.5 41.5,83.5C 45.1667,83.5 48.8333,83.5 52.5,83.5C 52.5,84.5 52.5,85.5 52.5,86.5C 47.8215,86.6658 43.1548,86.4992 38.5,86C 37.5842,85.7216 36.9175,85.2216 36.5,84.5C 38.8194,85.167 41.1527,85.3336 43.5,85C 42.2625,84.7679 41.2625,84.2679 40.5,83.5 Z"/></g>
</svg>
