<?xml version="1.0" encoding="UTF-8"?>
<!DOCTYPE svg PUBLIC "-//W3C//DTD SVG 1.1//EN" "http://www.w3.org/Graphics/SVG/1.1/DTD/svg11.dtd">
<svg xmlns="http://www.w3.org/2000/svg" version="1.1" width="96px" height="96px" style="shape-rendering:geometricPrecision; text-rendering:geometricPrecision; image-rendering:optimizeQuality; fill-rule:evenodd; clip-rule:evenodd" xmlns:xlink="http://www.w3.org/1999/xlink">
<g><path style="opacity:1" fill="#f7f2f2" d="M -0.5,-0.5 C 11.5,-0.5 23.5,-0.5 35.5,-0.5C 35.1436,1.18982 34.1436,2.18982 32.5,2.5C 32.44,1.95691 32.1067,1.62358 31.5,1.5C 30.8243,2.60164 30.1577,3.60164 29.5,4.5C 28.2921,3.76589 26.9587,3.43255 25.5,3.5C 25.5,4.5 25.5,5.5 25.5,6.5C 24.325,6.28099 23.325,6.61432 22.5,7.5C 24.3217,10.33 26.8217,12.33 30,13.5C 30.6595,16.678 31.4928,19.678 32.5,22.5C 32.838,24.854 33.338,27.1873 34,29.5C 37.527,33.027 41.027,36.527 44.5,40C 42.9419,40.21 41.6085,40.71 40.5,41.5C 34.9507,40.2859 31.284,36.9526 29.5,31.5C 30.7378,28.8345 30.7378,26.1678 29.5,23.5C 28.7492,24.376 28.2492,25.376 28,26.5C 27.4646,24.7295 26.6313,24.3961 25.5,25.5C 24.7275,35.7518 29.0608,43.0851 38.5,47.5C 37.0659,52.0725 36.0659,56.7391 35.5,61.5C 38.1413,60.3764 41.1413,60.3764 44.5,61.5C 46.377,62.6246 48.2103,62.2912 50,60.5C 50.2838,64.1196 52.1171,66.6196 55.5,68C 52.5683,71.6498 48.9016,72.6498 44.5,71C 42.6667,71.5 41.5,72.6667 41,74.5C 39.7923,70.8 37.959,67.4666 35.5,64.5C 33.2616,69.9759 30.7616,75.3092 28,80.5C 27.6608,83.036 27.1608,85.536 26.5,88C 26.6448,88.772 26.9781,89.4387 27.5,90C 29.1667,90.6667 30.8333,90.6667 32.5,90C 28.8276,88.8779 27.8276,86.7113 29.5,83.5C 29.6962,81.7139 30.5295,80.3805 32,79.5C 32.6256,81.7135 32.4589,83.8801 31.5,86C 31.6107,87.7215 32.1107,87.8882 33,86.5C 33.275,82.3691 34.6083,78.7024 37,75.5C 36.3464,78.4362 35.5131,81.4362 34.5,84.5C 37.0443,85.9374 37.0443,87.4374 34.5,89C 41.1915,89.8309 47.8582,89.6642 54.5,88.5C 51.9776,86.3738 49.1443,84.7072 46,83.5C 43.1157,84.7427 40.2824,84.576 37.5,83C 39.5192,79.9445 41.3525,76.7779 43,73.5C 45.8003,72.5574 48.6337,72.7241 51.5,74C 57.7561,78.2946 64.4228,81.7946 71.5,84.5C 72.5,84.1667 73.1667,83.5 73.5,82.5C 71.3203,80.9098 68.987,79.5765 66.5,78.5C 66.8333,78.1667 67.1667,77.8333 67.5,77.5C 69.7293,78.9632 72.0627,79.7965 74.5,80C 70.8333,77.8333 67.1667,75.6667 63.5,73.5C 59.8765,69.3749 56.0432,65.3749 52,61.5C 51.3333,60.1667 51.3333,58.8333 52,57.5C 53.828,55.9186 55.828,54.5853 58,53.5C 59.129,55.1412 60.629,56.1412 62.5,56.5C 67.6173,60.541 73.284,61.3743 79.5,59C 81.6705,57.4138 84.0038,56.0804 86.5,55C 85.8333,54.6667 85.1667,54.3333 84.5,54C 85.645,51.5716 86.9784,49.2383 88.5,47C 88.1667,46.5 87.8333,46 87.5,45.5C 85.4224,47.3904 84.0891,49.7238 83.5,52.5C 81.9783,53.562 80.3117,54.2287 78.5,54.5C 75.8806,54.2317 73.3806,54.565 71,55.5C 67.7424,53.1205 64.5758,50.6205 61.5,48C 59.3225,46.7978 56.9892,46.2978 54.5,46.5C 54.1667,45.8333 53.8333,45.1667 53.5,44.5C 60.0001,45.5013 62.5001,42.8347 61,36.5C 60.5831,35.244 59.7498,34.5774 58.5,34.5C 58.3893,33.8826 58.056,33.3826 57.5,33C 55.5,32.3333 53.5,32.3333 51.5,33C 49.7888,34.1332 49.2888,35.6332 50,37.5C 51.2108,33.5375 53.2108,32.8709 56,35.5C 56.3826,34.944 56.8826,34.6107 57.5,34.5C 57.2792,38.7183 55.7792,39.385 53,36.5C 53.7954,39.3832 52.6287,40.8832 49.5,41C 50.4506,40.2825 50.6172,39.4491 50,38.5C 49.1841,39.8228 48.0174,40.4894 46.5,40.5C 46.1307,38.5588 45.464,36.7255 44.5,35C 45.1667,34 45.8333,33 46.5,32C 49.7875,31.3841 52.6208,29.8841 55,27.5C 55.3333,27.8333 55.6667,28.1667 56,28.5C 56.5791,27.0715 56.4124,25.7382 55.5,24.5C 55.7373,23.209 55.404,22.209 54.5,21.5C 52.8333,21.5 51.1667,21.5 49.5,21.5C 49.6567,20.1266 49.49,18.7932 49,17.5C 48.1072,16.2888 47.2739,16.2888 46.5,17.5C 48.9135,19.9787 49.0802,22.6453 47,25.5C 46.9633,23.0261 46.13,21.0261 44.5,19.5C 43.194,16.7534 44.194,15.0867 47.5,14.5C 48.5832,14.4606 49.5832,14.1272 50.5,13.5C 51.7112,14.2739 51.7112,15.1072 50.5,16C 51.4491,16.6172 52.2825,16.4506 53,15.5C 52.7904,9.79221 49.7904,6.45887 44,5.5C 43.6667,5.83333 43.3333,6.16667 43,6.5C 42.0958,3.76664 40.5958,1.43331 38.5,-0.5C 57.5,-0.5 76.5,-0.5 95.5,-0.5C 95.5,31.5 95.5,63.5 95.5,95.5C 63.5,95.5 31.5,95.5 -0.5,95.5C -0.5,63.5 -0.5,31.5 -0.5,-0.5 Z"/></g>
<g><path style="opacity:1" fill="#faf7f7" d="M 37.5,10.5 C 36.6618,10.1583 36.3284,9.49162 36.5,8.5C 36.7373,7.20895 36.404,6.20895 35.5,5.5C 35.2308,3.57135 35.7308,1.90469 37,0.5C 39.9222,3.58139 40.0889,6.91472 37.5,10.5 Z"/></g>
<g><path style="opacity:1" fill="#b5b0b1" d="M 29.5,4.5 C 29.9528,5.45837 30.6195,6.2917 31.5,7C 29.6992,7.31732 29.3659,7.98398 30.5,9C 29.0494,8.73739 27.7161,8.90405 26.5,9.5C 27.7046,11.1376 29.0379,11.4709 30.5,10.5C 31.6815,11.5145 32.6815,12.6812 33.5,14C 34.0718,17.05 34.0718,19.8834 33.5,22.5C 33.1667,22.5 32.8333,22.5 32.5,22.5C 31.4928,19.678 30.6595,16.678 30,13.5C 26.8217,12.33 24.3217,10.33 22.5,7.5C 23.325,6.61432 24.325,6.28099 25.5,6.5C 25.5,5.5 25.5,4.5 25.5,3.5C 26.9587,3.43255 28.2921,3.76589 29.5,4.5 Z"/></g>
<g><path style="opacity:1" fill="#bab6b5" d="M 35.5,-0.5 C 36.5,-0.5 37.5,-0.5 38.5,-0.5C 40.5958,1.43331 42.0958,3.76664 43,6.5C 43.3333,6.16667 43.6667,5.83333 44,5.5C 49.7904,6.45887 52.7904,9.79221 53,15.5C 52.2825,16.4506 51.4491,16.6172 50.5,16C 51.7112,15.1072 51.7112,14.2739 50.5,13.5C 49.5832,14.1272 48.5832,14.4606 47.5,14.5C 47.5,13.8333 47.1667,13.5 46.5,13.5C 47.0283,12.2794 47.695,11.1127 48.5,10C 43.3677,6.30114 41.7011,7.46781 43.5,13.5C 42.6043,12.4937 41.9377,12.4937 41.5,13.5C 40.8333,13.1667 40.1667,12.8333 39.5,12.5C 39.1667,11.5 38.5,10.8333 37.5,10.5C 40.0889,6.91472 39.9222,3.58139 37,0.5C 35.7308,1.90469 35.2308,3.57135 35.5,5.5C 34.3172,4.49551 32.9839,3.66218 31.5,3C 31.7284,2.60123 32.0618,2.43456 32.5,2.5C 34.1436,2.18982 35.1436,1.18982 35.5,-0.5 Z"/></g>
<g><path style="opacity:1" fill="#eceaea" d="M 46.5,13.5 C 45.3478,14.625 44.3478,14.625 43.5,13.5C 41.7011,7.46781 43.3677,6.30114 48.5,10C 47.695,11.1127 47.0283,12.2794 46.5,13.5 Z"/></g>
<g><path style="opacity:1" fill="#8d8b8b" d="M 36.5,8.5 C 36.3284,9.49162 36.6618,10.1583 37.5,10.5C 38.5,10.8333 39.1667,11.5 39.5,12.5C 38.9284,14.1188 38.5951,15.7855 38.5,17.5C 35.2962,14.439 33.7962,10.7723 34,6.5C 34.7083,7.38053 35.5416,8.0472 36.5,8.5 Z"/></g>
<g><path style="opacity:1" fill="#ddd9d9" d="M 32.5,2.5 C 32.0618,2.43456 31.7284,2.60123 31.5,3C 32.9839,3.66218 34.3172,4.49551 35.5,5.5C 36.404,6.20895 36.7373,7.20895 36.5,8.5C 35.5416,8.0472 34.7083,7.38053 34,6.5C 33.7962,10.7723 35.2962,14.439 38.5,17.5C 38.5951,15.7855 38.9284,14.1188 39.5,12.5C 40.1667,12.8333 40.8333,13.1667 41.5,13.5C 41.6107,14.1174 41.944,14.6174 42.5,15C 39.6429,18.6427 37.1429,22.476 35,26.5C 34.2086,25.255 33.7086,23.9217 33.5,22.5C 34.0718,19.8834 34.0718,17.05 33.5,14C 32.6815,12.6812 31.6815,11.5145 30.5,10.5C 29.0379,11.4709 27.7046,11.1376 26.5,9.5C 27.7161,8.90405 29.0494,8.73739 30.5,9C 29.3659,7.98398 29.6992,7.31732 31.5,7C 30.6195,6.2917 29.9528,5.45837 29.5,4.5C 30.1577,3.60164 30.8243,2.60164 31.5,1.5C 32.1067,1.62358 32.44,1.95691 32.5,2.5 Z"/></g>
<g><path style="opacity:1" fill="#a09c9b" d="M 43.5,13.5 C 44.3478,14.625 45.3478,14.625 46.5,13.5C 47.1667,13.5 47.5,13.8333 47.5,14.5C 44.194,15.0867 43.194,16.7534 44.5,19.5C 46.13,21.0261 46.9633,23.0261 47,25.5C 49.0802,22.6453 48.9135,19.9787 46.5,17.5C 47.2739,16.2888 48.1072,16.2888 49,17.5C 49.49,18.7932 49.6567,20.1266 49.5,21.5C 51.1667,21.5 52.8333,21.5 54.5,21.5C 50.4595,22.7036 47.4595,25.2036 45.5,29C 45.8333,29.5 46.1667,30 46.5,30.5C 49.6507,28.6446 52.6507,26.6446 55.5,24.5C 56.4124,25.7382 56.5791,27.0715 56,28.5C 55.6667,28.1667 55.3333,27.8333 55,27.5C 52.6208,29.8841 49.7875,31.3841 46.5,32C 45.8333,33 45.1667,34 44.5,35C 45.464,36.7255 46.1307,38.5588 46.5,40.5C 46.8333,41.1667 47.1667,41.8333 47.5,42.5C 47.1667,42.5 46.8333,42.5 46.5,42.5C 44.4352,42.4828 42.4352,42.1495 40.5,41.5C 41.6085,40.71 42.9419,40.21 44.5,40C 41.027,36.527 37.527,33.027 34,29.5C 33.338,27.1873 32.838,24.854 32.5,22.5C 32.8333,22.5 33.1667,22.5 33.5,22.5C 33.7086,23.9217 34.2086,25.255 35,26.5C 37.1429,22.476 39.6429,18.6427 42.5,15C 41.944,14.6174 41.6107,14.1174 41.5,13.5C 41.9377,12.4937 42.6043,12.4937 43.5,13.5 Z"/></g>
<g><path style="opacity:1" fill="#dad5d5" d="M 54.5,21.5 C 55.404,22.209 55.7373,23.209 55.5,24.5C 52.6507,26.6446 49.6507,28.6446 46.5,30.5C 46.1667,30 45.8333,29.5 45.5,29C 47.4595,25.2036 50.4595,22.7036 54.5,21.5 Z"/></g>
<g><path style="opacity:1" fill="#f2eeee" d="M 44.5,19.5 C 44.9167,22.0792 44.25,24.2458 42.5,26C 43.8672,28.3015 44.5339,30.8015 44.5,33.5C 40.4163,34.1248 37.4163,32.6248 35.5,29C 36.0686,26.0971 37.7352,24.0971 40.5,23C 39.3531,20.9154 40.0197,19.4154 42.5,18.5C 43.1835,18.8627 43.8501,19.1961 44.5,19.5 Z"/></g>
<g><path style="opacity:1" fill="#a9a3a3" d="M 58.5,34.5 C 58.1667,34.5 57.8333,34.5 57.5,34.5C 56.8826,34.6107 56.3826,34.944 56,35.5C 53.2108,32.8709 51.2108,33.5375 50,37.5C 49.2888,35.6332 49.7888,34.1332 51.5,33C 53.5,32.3333 55.5,32.3333 57.5,33C 58.056,33.3826 58.3893,33.8826 58.5,34.5 Z"/></g>
<g><path style="opacity:1" fill="#c4bfbf" d="M 40.5,41.5 C 42.4352,42.1495 44.4352,42.4828 46.5,42.5C 43.937,44.7102 41.437,47.0435 39,49.5C 38.2195,50.9437 38.3861,52.277 39.5,53.5C 40.4168,52.8728 41.4168,52.5394 42.5,52.5C 40.2569,54.3733 40.0902,56.3733 42,58.5C 42.8333,56 44,55.8333 45.5,58C 43.273,58.704 42.9397,59.8706 44.5,61.5C 41.1413,60.3764 38.1413,60.3764 35.5,61.5C 36.0659,56.7391 37.0659,52.0725 38.5,47.5C 29.0608,43.0851 24.7275,35.7518 25.5,25.5C 26.6313,24.3961 27.4646,24.7295 28,26.5C 28.2492,25.376 28.7492,24.376 29.5,23.5C 30.7378,26.1678 30.7378,28.8345 29.5,31.5C 31.284,36.9526 34.9507,40.2859 40.5,41.5 Z"/></g>
<g><path style="opacity:1" fill="#c2bdbd" d="M 57.5,34.5 C 57.8333,34.5 58.1667,34.5 58.5,34.5C 59.7498,34.5774 60.5831,35.244 61,36.5C 62.5001,42.8347 60.0001,45.5013 53.5,44.5C 53.8333,45.1667 54.1667,45.8333 54.5,46.5C 51.9259,45.5361 49.5925,44.2028 47.5,42.5C 47.1667,41.8333 46.8333,41.1667 46.5,40.5C 48.0174,40.4894 49.1841,39.8228 50,38.5C 50.6172,39.4491 50.4506,40.2825 49.5,41C 52.6287,40.8832 53.7954,39.3832 53,36.5C 55.7792,39.385 57.2792,38.7183 57.5,34.5 Z"/></g>
<g><path style="opacity:1" fill="#f8f6f6" d="M 53.5,44.5 C 52.7109,44.2172 52.0442,43.7172 51.5,43C 55.6364,39.4547 56.3031,39.9547 53.5,44.5 Z"/></g>
<g><path style="opacity:1" fill="#f8f4f4" d="M 46.5,42.5 C 46.8333,42.5 47.1667,42.5 47.5,42.5C 49.5925,44.2028 51.9259,45.5361 54.5,46.5C 56.4799,48.1049 58.8132,49.2715 61.5,50C 58.3004,50.1015 55.3004,50.7681 52.5,52C 53.8333,52.3333 55.1667,52.6667 56.5,53C 54.6675,53.7485 53.0009,54.7485 51.5,56C 49.5594,56.7429 47.7261,56.5762 46,55.5C 45.6256,53.102 45.6256,50.7687 46,48.5C 44.6244,49.7051 43.4577,51.0384 42.5,52.5C 41.4168,52.5394 40.4168,52.8728 39.5,53.5C 38.3861,52.277 38.2195,50.9437 39,49.5C 41.437,47.0435 43.937,44.7102 46.5,42.5 Z"/></g>
<g><path style="opacity:1" fill="#beb9b9" d="M 62.5,56.5 C 65.8119,57.4845 69.1452,58.4845 72.5,59.5C 74.444,58.8108 76.444,58.3108 78.5,58C 79.1712,57.0138 79.1712,55.8471 78.5,54.5C 80.3117,54.2287 81.9783,53.562 83.5,52.5C 84.0891,49.7238 85.4224,47.3904 87.5,45.5C 87.8333,46 88.1667,46.5 88.5,47C 86.9784,49.2383 85.645,51.5716 84.5,54C 85.1667,54.3333 85.8333,54.6667 86.5,55C 84.0038,56.0804 81.6705,57.4138 79.5,59C 73.284,61.3743 67.6173,60.541 62.5,56.5 Z"/></g>
<g><path style="opacity:1" fill="#c7c2c2" d="M 54.5,46.5 C 56.9892,46.2978 59.3225,46.7978 61.5,48C 64.5758,50.6205 67.7424,53.1205 71,55.5C 73.3806,54.565 75.8806,54.2317 78.5,54.5C 79.1712,55.8471 79.1712,57.0138 78.5,58C 76.444,58.3108 74.444,58.8108 72.5,59.5C 69.1452,58.4845 65.8119,57.4845 62.5,56.5C 60.629,56.1412 59.129,55.1412 58,53.5C 55.828,54.5853 53.828,55.9186 52,57.5C 51.3333,58.8333 51.3333,60.1667 52,61.5C 56.0432,65.3749 59.8765,69.3749 63.5,73.5C 67.1667,75.6667 70.8333,77.8333 74.5,80C 72.0627,79.7965 69.7293,78.9632 67.5,77.5C 67.1667,77.8333 66.8333,78.1667 66.5,78.5C 68.987,79.5765 71.3203,80.9098 73.5,82.5C 73.1667,83.5 72.5,84.1667 71.5,84.5C 64.4228,81.7946 57.7561,78.2946 51.5,74C 48.6337,72.7241 45.8003,72.5574 43,73.5C 41.3525,76.7779 39.5192,79.9445 37.5,83C 40.2824,84.576 43.1157,84.7427 46,83.5C 49.1443,84.7072 51.9776,86.3738 54.5,88.5C 47.8582,89.6642 41.1915,89.8309 34.5,89C 37.0443,87.4374 37.0443,85.9374 34.5,84.5C 35.5131,81.4362 36.3464,78.4362 37,75.5C 34.6083,78.7024 33.275,82.3691 33,86.5C 32.1107,87.8882 31.6107,87.7215 31.5,86C 32.4589,83.8801 32.6256,81.7135 32,79.5C 30.5295,80.3805 29.6962,81.7139 29.5,83.5C 27.8276,86.7113 28.8276,88.8779 32.5,90C 30.8333,90.6667 29.1667,90.6667 27.5,90C 26.9781,89.4387 26.6448,88.772 26.5,88C 27.1608,85.536 27.6608,83.036 28,80.5C 30.7616,75.3092 33.2616,69.9759 35.5,64.5C 37.959,67.4666 39.7923,70.8 41,74.5C 41.5,72.6667 42.6667,71.5 44.5,71C 48.9016,72.6498 52.5683,71.6498 55.5,68C 52.1171,66.6196 50.2838,64.1196 50,60.5C 48.2103,62.2912 46.377,62.6246 44.5,61.5C 42.9397,59.8706 43.273,58.704 45.5,58C 44,55.8333 42.8333,56 42,58.5C 40.0902,56.3733 40.2569,54.3733 42.5,52.5C 43.4577,51.0384 44.6244,49.7051 46,48.5C 45.6256,50.7687 45.6256,53.102 46,55.5C 47.7261,56.5762 49.5594,56.7429 51.5,56C 53.0009,54.7485 54.6675,53.7485 56.5,53C 55.1667,52.6667 53.8333,52.3333 52.5,52C 55.3004,50.7681 58.3004,50.1015 61.5,50C 58.8132,49.2715 56.4799,48.1049 54.5,46.5 Z"/></g>
<g><path style="opacity:1" fill="#cbc6c6" d="M 76.5,81.5 C 80.8523,83.6735 84.8523,86.3401 88.5,89.5C 82.6485,91.0664 77.9818,89.3998 74.5,84.5C 75.6119,83.7348 76.2786,82.7348 76.5,81.5 Z"/></g>
</svg>
