<?xml version="1.0" encoding="UTF-8"?>
<!DOCTYPE svg PUBLIC "-//W3C//DTD SVG 1.1//EN" "http://www.w3.org/Graphics/SVG/1.1/DTD/svg11.dtd">
<svg xmlns="http://www.w3.org/2000/svg" version="1.1" width="96px" height="96px" style="shape-rendering:geometricPrecision; text-rendering:geometricPrecision; image-rendering:optimizeQuality; fill-rule:evenodd; clip-rule:evenodd" xmlns:xlink="http://www.w3.org/1999/xlink">
<g><path style="opacity:0.004" fill="#676a6c" d="M 62.5,-0.5 C 62.8333,-0.5 63.1667,-0.5 63.5,-0.5C 63.3147,0.170143 62.9813,0.170143 62.5,-0.5 Z"/></g>
<g><path style="opacity:0.984" fill="#494d41" d="M 37.5,-0.5 C 44.1667,-0.5 50.8333,-0.5 57.5,-0.5C 57.5,-0.166667 57.5,0.166667 57.5,0.5C 49.4712,0.343711 41.4712,0.677044 33.5,1.5C 34.8333,0.833333 36.1667,0.166667 37.5,-0.5 Z"/></g>
<g><path style="opacity:0.004" fill="#666e70" d="M 27.5,2.5 C 26.8333,1.16667 26.8333,1.16667 27.5,2.5 Z"/></g>
<g><path style="opacity:1" fill="#f2efb4" d="M 57.5,0.5 C 62.4242,2.47955 67.4242,4.47955 72.5,6.5C 72.9731,7.90632 73.9731,8.57298 75.5,8.5C 76.2623,10.2624 77.5956,11.2624 79.5,11.5C 80.5,11.8333 81.1667,12.5 81.5,13.5C 81.5,14.1667 81.5,14.8333 81.5,15.5C 80.5768,14.6971 79.5768,14.5304 78.5,15C 80.16,16.4877 81.16,18.321 81.5,20.5C 80.5,20.1667 79.8333,19.5 79.5,18.5C 62.1263,2.55082 43.1263,0.384158 22.5,12C 20.6266,13.7038 18.9599,15.5372 17.5,17.5C 12.6007,21.647 8.934,26.647 6.5,32.5C 6.21719,31.7109 5.71719,31.0442 5,30.5C 4.58309,31.756 3.74975,32.4226 2.5,32.5C 2.5,31.8333 2.5,31.1667 2.5,30.5C 4.00751,28.8185 5.00751,26.8185 5.5,24.5C 5.32842,23.5084 5.66175,22.8417 6.5,22.5C 7.90632,22.0269 8.57298,21.0269 8.5,19.5C 12.5,16.1667 16.1667,12.5 19.5,8.5C 21.0269,8.57298 22.0269,7.90632 22.5,6.5C 24.0269,6.57298 25.0269,5.90632 25.5,4.5C 28.5418,4.26708 31.2084,3.26708 33.5,1.5C 41.4712,0.677044 49.4712,0.343711 57.5,0.5 Z"/></g>
<g><path style="opacity:0.004" fill="#43484c" d="M 67.5,1.5 C 68.8333,2.16667 68.8333,2.16667 67.5,1.5 Z"/></g>
<g><path style="opacity:0.004" fill="#7d807e" d="M 69.5,2.5 C 70.8333,3.16667 70.8333,3.16667 69.5,2.5 Z"/></g>
<g><path style="opacity:0.231" fill="#242522" d="M 33.5,1.5 C 31.2084,3.26708 28.5418,4.26708 25.5,4.5C 26.1667,3.83333 26.8333,3.16667 27.5,2.5C 29.5,2.16667 31.5,1.83333 33.5,1.5 Z"/></g>
<g><path style="opacity:0.431" fill="#1f211e" d="M 57.5,0.5 C 60.8774,0.959472 64.2107,1.62614 67.5,2.5C 67.8417,3.33825 68.5084,3.67158 69.5,3.5C 70.6935,4.27187 71.6935,5.27187 72.5,6.5C 67.4242,4.47955 62.4242,2.47955 57.5,0.5 Z"/></g>
<g><path style="opacity:0.004" fill="#272c2f" d="M 20.5,4.5 C 21.8333,5.16667 21.8333,5.16667 20.5,4.5 Z"/></g>
<g><path style="opacity:0.004" fill="#040b0e" d="M 73.5,4.5 C 74.8333,5.16667 74.8333,5.16667 73.5,4.5 Z"/></g>
<g><path style="opacity:0.824" fill="#262725" d="M 25.5,4.5 C 25.0269,5.90632 24.0269,6.57298 22.5,6.5C 22.9731,5.09368 23.9731,4.42702 25.5,4.5 Z"/></g>
<g><path style="opacity:0.11" fill="#21221f" d="M 72.5,6.5 C 74.0269,6.42702 75.0269,7.09368 75.5,8.5C 73.9731,8.57298 72.9731,7.90632 72.5,6.5 Z"/></g>
<g><path style="opacity:0.953" fill="#3a3c32" d="M 22.5,6.5 C 22.0269,7.90632 21.0269,8.57298 19.5,8.5C 19.9731,7.09368 20.9731,6.42702 22.5,6.5 Z"/></g>
<g><path style="opacity:1" fill="#0d233a" d="M 79.5,18.5 C 58.9965,18.7788 38.4965,19.1121 18,19.5C 17.5357,18.9056 17.369,18.2389 17.5,17.5C 18.9599,15.5372 20.6266,13.7038 22.5,12C 43.1263,0.384158 62.1263,2.55082 79.5,18.5 Z"/></g>
<g><path style="opacity:0.02" fill="#1f1f1c" d="M 75.5,8.5 C 77.4044,8.73758 78.7377,9.73758 79.5,11.5C 77.5956,11.2624 76.2623,10.2624 75.5,8.5 Z"/></g>
<g><path style="opacity:1" fill="#48493e" d="M 19.5,8.5 C 16.1667,12.5 12.5,16.1667 8.5,19.5C 11.1667,14.8333 14.8333,11.1667 19.5,8.5 Z"/></g>
<g><path style="opacity:1" fill="#404037" d="M 81.5,13.5 C 83.914,14.9108 85.5806,16.9108 86.5,19.5C 84.8333,18.1667 83.1667,16.8333 81.5,15.5C 81.5,14.8333 81.5,14.1667 81.5,13.5 Z"/></g>
<g><path style="opacity:1" fill="#0b1f34" d="M 17.5,17.5 C 17.369,18.2389 17.5357,18.9056 18,19.5C 38.4965,19.1121 58.9965,18.7788 79.5,18.5C 79.8333,19.5 80.5,20.1667 81.5,20.5C 84.7062,24.713 87.0395,29.3796 88.5,34.5C 86.3098,35.9787 83.9765,37.3121 81.5,38.5C 77.3715,37.6656 73.3715,37.4989 69.5,38C 71.019,39.3513 72.3523,40.8513 73.5,42.5C 72.8075,43.5178 72.1408,44.5178 71.5,45.5C 68.5,49.1667 65.1667,52.5 61.5,55.5C 60.8333,55.5 60.1667,55.5 59.5,55.5C 63.4781,51.1869 67.4781,46.8535 71.5,42.5C 65.5148,36.0145 59.3481,29.6811 53,23.5C 48.3181,28.0148 43.8181,32.6815 39.5,37.5C 45.1877,43.8543 51.1877,49.8543 57.5,55.5C 57.1034,56.525 56.4368,56.6917 55.5,56C 53.2707,53.5997 50.9374,51.433 48.5,49.5C 47.7377,47.7376 46.4044,46.7376 44.5,46.5C 42.5924,42.9199 39.9257,39.9199 36.5,37.5C 32.2105,37.3322 28.0438,37.6655 24,38.5C 22.8456,36.0426 21.5123,36.0426 20,38.5C 17.5335,37.2117 15.0335,37.2117 12.5,38.5C 10.7036,36.103 8.70358,34.7697 6.5,34.5C 6.5,33.8333 6.5,33.1667 6.5,32.5C 8.934,26.647 12.6007,21.647 17.5,17.5 Z"/></g>
<g><path style="opacity:0.686" fill="#2d2d2b" d="M 8.5,19.5 C 8.57298,21.0269 7.90632,22.0269 6.5,22.5C 6.42702,20.9731 7.09368,19.9731 8.5,19.5 Z"/></g>
<g><path style="opacity:0.686" fill="#222425" d="M 86.5,19.5 C 87.9063,19.9731 88.573,20.9731 88.5,22.5C 87.0937,22.0269 86.427,21.0269 86.5,19.5 Z"/></g>
<g><path style="opacity:0.416" fill="#1d1d1c" d="M 5.5,24.5 C 5.00751,26.8185 4.00751,28.8185 2.5,30.5C 2.46095,27.911 3.46095,25.911 5.5,24.5 Z"/></g>
<g><path style="opacity:0.004" fill="#1b1b1a" d="M 88.5,22.5 C 90.873,24.5792 92.2064,27.2459 92.5,30.5C 90.659,28.1515 89.3257,25.4848 88.5,22.5 Z"/></g>
<g><path style="opacity:1" fill="#e9e56e" d="M 47.5,23.5 C 48.2389,23.369 48.9056,23.5357 49.5,24C 45.9842,27.3486 42.6508,30.8486 39.5,34.5C 38.479,33.9984 38.3123,33.3317 39,32.5C 42.0379,29.6306 44.8712,26.6306 47.5,23.5 Z"/></g>
<g><path style="opacity:1" fill="#f0e295" d="M 81.5,15.5 C 83.1667,16.8333 84.8333,18.1667 86.5,19.5C 86.427,21.0269 87.0937,22.0269 88.5,22.5C 89.3257,25.4848 90.659,28.1515 92.5,30.5C 92.448,32.9029 92.7814,35.2362 93.5,37.5C 93.2252,39.8418 92.3919,39.8418 91,37.5C 90.5357,38.0944 90.369,38.7611 90.5,39.5C 89.8333,37.8333 89.1667,36.1667 88.5,34.5C 87.0395,29.3796 84.7062,24.713 81.5,20.5C 81.16,18.321 80.16,16.4877 78.5,15C 79.5768,14.5304 80.5768,14.6971 81.5,15.5 Z"/></g>
<g><path style="opacity:1" fill="#091d2e" d="M 6.5,34.5 C 8.70358,34.7697 10.7036,36.103 12.5,38.5C 15.0335,37.2117 17.5335,37.2117 20,38.5C 21.5123,36.0426 22.8456,36.0426 24,38.5C 28.0438,37.6655 32.2105,37.3322 36.5,37.5C 39.9257,39.9199 42.5924,42.9199 44.5,46.5C 44.7329,48.0618 45.3995,49.3951 46.5,50.5C 46.0623,51.5063 45.3957,51.5063 44.5,50.5C 43.3478,49.375 42.3478,49.375 41.5,50.5C 40.9569,50.56 40.6236,50.8933 40.5,51.5C 41.9492,52.1719 43.2825,52.8386 44.5,53.5C 41.4669,53.1315 38.8002,53.7982 36.5,55.5C 36.1667,55.5 35.8333,55.5 35.5,55.5C 35.2172,54.7109 34.7172,54.0442 34,53.5C 30.6667,54.1667 27.3333,54.8333 24,55.5C 18.3333,54.1667 12.6667,54.1667 7,55.5C 6.66667,54.1667 6.33333,52.8333 6,51.5C 5.51722,52.448 5.35055,53.448 5.5,54.5C 4.83588,52.0221 4.50255,49.3555 4.5,46.5C 4.33666,42.2227 5.00333,38.2227 6.5,34.5 Z"/></g>
<g><path style="opacity:0.824" fill="#454233" d="M 92.5,30.5 C 93.9238,32.5145 94.5905,34.8478 94.5,37.5C 94.1667,37.5 93.8333,37.5 93.5,37.5C 92.7814,35.2362 92.448,32.9029 92.5,30.5 Z"/></g>
<g><path style="opacity:1" fill="#deba47" d="M 59.5,55.5 C 58.8333,55.5 58.1667,55.5 57.5,55.5C 51.1877,49.8543 45.1877,43.8543 39.5,37.5C 43.8181,32.6815 48.3181,28.0148 53,23.5C 59.3481,29.6811 65.5148,36.0145 71.5,42.5C 67.4781,46.8535 63.4781,51.1869 59.5,55.5 Z"/></g>
<g><path style="opacity:0.953" fill="#5c563c" d="M 2.5,30.5 C 2.5,31.1667 2.5,31.8333 2.5,32.5C 0.77462,39.3672 0.107953,46.3672 0.5,53.5C 0.166667,53.5 -0.166667,53.5 -0.5,53.5C -0.5,48.1667 -0.5,42.8333 -0.5,37.5C 0.348502,35.1124 1.3485,32.7791 2.5,30.5 Z"/></g>
<g><path style="opacity:1" fill="#b09a47" d="M 44.5,46.5 C 46.4044,46.7376 47.7377,47.7376 48.5,49.5C 48.1583,50.3382 47.4916,50.6716 46.5,50.5C 45.3995,49.3951 44.7329,48.0618 44.5,46.5 Z"/></g>
<g><path style="opacity:1" fill="#eab843" d="M 44.5,50.5 C 43.5,51.8333 42.5,51.8333 41.5,50.5C 42.3478,49.375 43.3478,49.375 44.5,50.5 Z"/></g>
<g><path style="opacity:1" fill="#ebb842" d="M 71.5,45.5 C 72.525,45.8966 72.6917,46.5632 72,47.5C 69.1667,50.3333 66.3333,53.1667 63.5,56C 62.5632,56.6917 61.8966,56.525 61.5,55.5C 65.1667,52.5 68.5,49.1667 71.5,45.5 Z"/></g>
<g><path style="opacity:1" fill="#0a1c2b" d="M 88.5,34.5 C 89.1667,36.1667 89.8333,37.8333 90.5,39.5C 90.6659,44.5111 90.4993,49.5111 90,54.5C 89.79,56.0581 89.29,57.3915 88.5,58.5C 87.3034,59.261 86.4701,60.9277 86,63.5C 84.6667,64.1667 83.3333,64.8333 82,65.5C 81.3333,62.8333 80.6667,62.8333 80,65.5C 79.3333,62.8333 78.6667,62.8333 78,65.5C 76.6667,64.1667 75.3333,64.1667 74,65.5C 72.4934,61.7636 71.6601,61.7636 71.5,65.5C 69.5165,65.6168 67.8498,64.9501 66.5,63.5C 64.6267,62.9109 62.96,63.5776 61.5,65.5C 60.2807,64.7366 59.2807,63.7366 58.5,62.5C 57.7193,63.7366 56.7193,64.7366 55.5,65.5C 54.2798,64.2889 53.1131,64.2889 52,65.5C 49.7564,63.0062 47.4231,63.0062 45,65.5C 42.7265,63.1084 40.5598,63.1084 38.5,65.5C 37.6143,64.675 37.281,63.675 37.5,62.5C 37.5,62.1667 37.5,61.8333 37.5,61.5C 38.9063,61.0269 39.573,60.0269 39.5,58.5C 40.552,58.6495 41.552,58.4828 42.5,58C 39.6385,58.0302 37.3052,57.1969 35.5,55.5C 35.8333,55.5 36.1667,55.5 36.5,55.5C 38.6282,56.6291 40.9615,56.7958 43.5,56C 44.2524,55.3292 44.5858,54.4959 44.5,53.5C 43.2825,52.8386 41.9492,52.1719 40.5,51.5C 40.6236,50.8933 40.9569,50.56 41.5,50.5C 42.5,51.8333 43.5,51.8333 44.5,50.5C 45.3957,51.5063 46.0623,51.5063 46.5,50.5C 47.4916,50.6716 48.1583,50.3382 48.5,49.5C 50.9374,51.433 53.2707,53.5997 55.5,56C 56.4368,56.6917 57.1034,56.525 57.5,55.5C 58.1667,55.5 58.8333,55.5 59.5,55.5C 60.1667,55.5 60.8333,55.5 61.5,55.5C 61.8966,56.525 62.5632,56.6917 63.5,56C 66.3333,53.1667 69.1667,50.3333 72,47.5C 72.6917,46.5632 72.525,45.8966 71.5,45.5C 72.1408,44.5178 72.8075,43.5178 73.5,42.5C 72.3523,40.8513 71.019,39.3513 69.5,38C 73.3715,37.4989 77.3715,37.6656 81.5,38.5C 83.9765,37.3121 86.3098,35.9787 88.5,34.5 Z"/></g>
<g><path style="opacity:1" fill="#cf9f39" d="M 44.5,53.5 C 44.5858,54.4959 44.2524,55.3292 43.5,56C 40.9615,56.7958 38.6282,56.6291 36.5,55.5C 38.8002,53.7982 41.4669,53.1315 44.5,53.5 Z"/></g>
<g><path style="opacity:1" fill="#e8c96e" d="M 6.5,32.5 C 6.5,33.1667 6.5,33.8333 6.5,34.5C 5.00333,38.2227 4.33666,42.2227 4.5,46.5C 4.50255,49.3555 4.83588,52.0221 5.5,54.5C 6.22674,59.3461 7.56007,64.0128 9.5,68.5C 7.4184,68.3757 5.9184,67.3757 5,65.5C 4.60123,65.7284 4.43456,66.0618 4.5,66.5C 2.41105,62.4985 1.07772,58.1652 0.5,53.5C 0.107953,46.3672 0.77462,39.3672 2.5,32.5C 3.74975,32.4226 4.58309,31.756 5,30.5C 5.71719,31.0442 6.21719,31.7109 6.5,32.5 Z"/></g>
<g><path style="opacity:0.004" fill="#5f6365" d="M -0.5,63.5 C 0.833333,64.1667 0.833333,64.1667 -0.5,63.5 Z"/></g>
<g><path style="opacity:0.004" fill="#3a3e40" d="M 0.5,65.5 C 1.83333,66.1667 1.83333,66.1667 0.5,65.5 Z"/></g>
<g><path style="opacity:1" fill="#061827" d="M 35.5,55.5 C 37.3052,57.1969 39.6385,58.0302 42.5,58C 41.552,58.4828 40.552,58.6495 39.5,58.5C 36.4669,58.1315 33.8002,58.7982 31.5,60.5C 30.9569,60.56 30.6236,60.8933 30.5,61.5C 32.7427,62.4742 35.076,62.8076 37.5,62.5C 37.281,63.675 37.6143,64.675 38.5,65.5C 40.5598,63.1084 42.7265,63.1084 45,65.5C 47.4231,63.0062 49.7564,63.0062 52,65.5C 53.1131,64.2889 54.2798,64.2889 55.5,65.5C 56.7193,64.7366 57.7193,63.7366 58.5,62.5C 59.2807,63.7366 60.2807,64.7366 61.5,65.5C 62.96,63.5776 64.6267,62.9109 66.5,63.5C 67.8498,64.9501 69.5165,65.6168 71.5,65.5C 71.6601,61.7636 72.4934,61.7636 74,65.5C 75.3333,64.1667 76.6667,64.1667 78,65.5C 78.6667,62.8333 79.3333,62.8333 80,65.5C 80.6667,62.8333 81.3333,62.8333 82,65.5C 83.3333,64.8333 84.6667,64.1667 86,63.5C 86.4701,60.9277 87.3034,59.261 88.5,58.5C 87.3135,65.21 84.3135,70.8767 79.5,75.5C 79.5106,73.9826 80.1772,72.8159 81.5,72C 81,71.5 80.5,71 80,70.5C 72.9093,71.7649 65.5759,71.7649 58,70.5C 52.6667,71.1667 47.3333,71.8333 42,72.5C 37.6503,70.6873 33.4836,70.6873 29.5,72.5C 28.6044,69.9308 26.9377,67.9308 24.5,66.5C 23.5,66.8333 22.8333,67.5 22.5,68.5C 23.5213,70.188 24.8546,71.5213 26.5,72.5C 29.2087,74.1316 28.8753,74.6316 25.5,74C 23.6108,71.3342 21.4441,69.8342 19,69.5C 18.6121,70.428 17.9454,71.0946 17,71.5C 15.3105,70.8505 13.4771,70.8505 11.5,71.5C 11.0679,70.2905 10.4013,69.2905 9.5,68.5C 7.56007,64.0128 6.22674,59.3461 5.5,54.5C 5.35055,53.448 5.51722,52.448 6,51.5C 6.33333,52.8333 6.66667,54.1667 7,55.5C 12.6667,54.1667 18.3333,54.1667 24,55.5C 27.3333,54.8333 30.6667,54.1667 34,53.5C 34.7172,54.0442 35.2172,54.7109 35.5,55.5 Z"/></g>
<g><path style="opacity:1" fill="#966e2c" d="M 30.5,63.5 C 31.9778,63.238 33.3112,63.5713 34.5,64.5C 32.5365,67.1939 31.2032,66.8606 30.5,63.5 Z"/></g>
<g><path style="opacity:1" fill="#996e2a" d="M 26.5,64.5 C 28.5441,65.0312 30.2107,66.1978 31.5,68C 28.6318,68.6401 26.9651,67.4734 26.5,64.5 Z"/></g>
<g><path style="opacity:1" fill="#554a2e" d="M 31.5,60.5 C 33.2646,61.4614 35.2646,61.7947 37.5,61.5C 37.5,61.8333 37.5,62.1667 37.5,62.5C 35.076,62.8076 32.7427,62.4742 30.5,61.5C 30.6236,60.8933 30.9569,60.56 31.5,60.5 Z"/></g>
<g><path style="opacity:1" fill="#ca9532" d="M 39.5,58.5 C 39.573,60.0269 38.9063,61.0269 37.5,61.5C 35.2646,61.7947 33.2646,61.4614 31.5,60.5C 33.8002,58.7982 36.4669,58.1315 39.5,58.5 Z"/></g>
<g><path style="opacity:0.004" fill="#41474c" d="M 93.5,65.5 C 94.8333,66.1667 94.8333,66.1667 93.5,65.5 Z"/></g>
<g><path style="opacity:0.004" fill="#585958" d="M 2.5,67.5 C 1.83333,68.1667 1.83333,68.1667 2.5,67.5 Z"/></g>
<g><path style="opacity:1" fill="#ddb85b" d="M 93.5,37.5 C 93.8333,37.5 94.1667,37.5 94.5,37.5C 95.9108,49.8033 93.9108,61.4699 88.5,72.5C 87.0937,72.9731 86.427,73.9731 86.5,75.5C 84.7376,76.2623 83.7376,77.5956 83.5,79.5C 83.5,79.8333 83.5,80.1667 83.5,80.5C 82.1667,81.5 80.8333,82.5 79.5,83.5C 78.6684,80.9068 78.6684,78.5735 79.5,76.5C 79.5,76.1667 79.5,75.8333 79.5,75.5C 84.3135,70.8767 87.3135,65.21 88.5,58.5C 89.29,57.3915 89.79,56.0581 90,54.5C 90.4993,49.5111 90.6659,44.5111 90.5,39.5C 90.369,38.7611 90.5357,38.0944 91,37.5C 92.3919,39.8418 93.2252,39.8418 93.5,37.5 Z"/></g>
<g><path style="opacity:0.004" fill="#838686" d="M 92.5,67.5 C 93.8333,68.1667 93.8333,68.1667 92.5,67.5 Z"/></g>
<g><path style="opacity:0.004" fill="#9c9d9a" d="M 3.5,69.5 C 2.83333,70.1667 2.83333,70.1667 3.5,69.5 Z"/></g>
<g><path style="opacity:0.408" fill="#221f1a" d="M -0.5,53.5 C -0.166667,53.5 0.166667,53.5 0.5,53.5C 1.07772,58.1652 2.41105,62.4985 4.5,66.5C 5.16667,68.5 5.83333,70.5 6.5,72.5C 5.83333,72.1667 5.16667,71.8333 4.5,71.5C 4.67158,70.5084 4.33825,69.8417 3.5,69.5C 3.67158,68.5084 3.33825,67.8417 2.5,67.5C 1.86993,63.9523 0.86993,60.6189 -0.5,57.5C -0.5,56.1667 -0.5,54.8333 -0.5,53.5 Z"/></g>
<g><path style="opacity:1" fill="#071622" d="M 26.5,72.5 C 27.5,72.5 28.5,72.5 29.5,72.5C 33.4836,70.6873 37.6503,70.6873 42,72.5C 47.3333,71.8333 52.6667,71.1667 58,70.5C 65.5759,71.7649 72.9093,71.7649 80,70.5C 80.5,71 81,71.5 81.5,72C 80.1772,72.8159 79.5106,73.9826 79.5,75.5C 79.5,75.8333 79.5,76.1667 79.5,76.5C 65.1364,90.4206 48.4698,93.9206 29.5,87C 22.3723,83.0315 16.3723,77.8649 11.5,71.5C 13.4771,70.8505 15.3105,70.8505 17,71.5C 17.9454,71.0946 18.6121,70.428 19,69.5C 21.4441,69.8342 23.6108,71.3342 25.5,74C 28.8753,74.6316 29.2087,74.1316 26.5,72.5 Z"/></g>
<g><path style="opacity:1" fill="#b77c23" d="M 29.5,72.5 C 28.5,72.5 27.5,72.5 26.5,72.5C 24.8546,71.5213 23.5213,70.188 22.5,68.5C 22.8333,67.5 23.5,66.8333 24.5,66.5C 26.9377,67.9308 28.6044,69.9308 29.5,72.5 Z"/></g>
<g><path style="opacity:0.004" fill="#5d5d5a" d="M 91.5,69.5 C 92.8333,70.1667 92.8333,70.1667 91.5,69.5 Z"/></g>
<g><path style="opacity:0.004" fill="#302d24" d="M 94.5,37.5 C 94.8333,37.5 95.1667,37.5 95.5,37.5C 95.5,44.1667 95.5,50.8333 95.5,57.5C 94.1301,60.6189 93.1301,63.9523 92.5,67.5C 91.6618,67.8417 91.3284,68.5084 91.5,69.5C 90.6618,69.8417 90.3284,70.5084 90.5,71.5C 89.8333,71.8333 89.1667,72.1667 88.5,72.5C 93.9108,61.4699 95.9108,49.8033 94.5,37.5 Z"/></g>
<g><path style="opacity:0.004" fill="#767674" d="M 4.5,71.5 C 3.83333,72.1667 3.83333,72.1667 4.5,71.5 Z"/></g>
<g><path style="opacity:0.004" fill="#818280" d="M 90.5,71.5 C 91.8333,72.1667 91.8333,72.1667 90.5,71.5 Z"/></g>
<g><path style="opacity:0.086" fill="#1f1b1b" d="M 6.5,72.5 C 7.90632,72.9731 8.57298,73.9731 8.5,75.5C 7.09368,75.0269 6.42702,74.0269 6.5,72.5 Z"/></g>
<g><path style="opacity:0.075" fill="#1c1914" d="M 88.5,72.5 C 88.573,74.0269 87.9063,75.0269 86.5,75.5C 86.427,73.9731 87.0937,72.9731 88.5,72.5 Z"/></g>
<g><path style="opacity:0.008" fill="#1b1817" d="M 8.5,75.5 C 10.2624,76.2623 11.2624,77.5956 11.5,79.5C 11.1667,79.5 10.8333,79.5 10.5,79.5C 10.5,78.8333 10.1667,78.5 9.5,78.5C 8.89022,77.609 8.55688,76.609 8.5,75.5 Z"/></g>
<g><path style="opacity:0.008" fill="#171615" d="M 86.5,75.5 C 86.5,76.1667 86.5,76.8333 86.5,77.5C 85.8333,77.5 85.5,77.8333 85.5,78.5C 84.8333,78.5 84.5,78.8333 84.5,79.5C 84.1667,79.5 83.8333,79.5 83.5,79.5C 83.7376,77.5956 84.7376,76.2623 86.5,75.5 Z"/></g>
<g><path style="opacity:0.004" fill="#949491" d="M 86.5,77.5 C 87.8333,78.1667 87.8333,78.1667 86.5,77.5 Z"/></g>
<g><path style="opacity:0.004" fill="#323232" d="M 9.5,78.5 C 10.1667,78.5 10.5,78.8333 10.5,79.5C 10.5,80.1667 10.8333,80.5 11.5,80.5C 11.5,81.1667 11.5,81.8333 11.5,82.5C 8.98733,81.7743 8.32066,80.4409 9.5,78.5 Z"/></g>
<g><path style="opacity:0.004" fill="#373737" d="M 85.5,78.5 C 85.8333,78.5 86.1667,78.5 86.5,78.5C 85.7577,80.4258 84.7577,82.2591 83.5,84C 82.8333,84.6667 82.1667,84.6667 81.5,84C 82.8228,83.1841 83.4894,82.0174 83.5,80.5C 84.1667,80.5 84.5,80.1667 84.5,79.5C 85.1667,79.5 85.5,79.1667 85.5,78.5 Z"/></g>
<g><path style="opacity:0.004" fill="#4a4949" d="M 11.5,82.5 C 12.2891,82.7828 12.9558,83.2828 13.5,84C 12.184,84.5281 11.5173,84.0281 11.5,82.5 Z"/></g>
<g><path style="opacity:0.957" fill="#362e20" d="M 13.5,81.5 C 16.0892,82.4194 18.0892,84.086 19.5,86.5C 18.8333,86.5 18.1667,86.5 17.5,86.5C 17.5,85.8333 17.1667,85.5 16.5,85.5C 15.5,84.1667 14.5,82.8333 13.5,81.5 Z"/></g>
<g><path style="opacity:0.153" fill="#181413" d="M 79.5,83.5 C 79.1667,84.1667 78.8333,84.8333 78.5,85.5C 77.8333,85.5 77.5,85.8333 77.5,86.5C 76.8333,86.5 76.1667,86.5 75.5,86.5C 76.2623,84.7376 77.5956,83.7376 79.5,83.5 Z"/></g>
<g><path style="opacity:0.643" fill="#29231e" d="M 19.5,86.5 C 21.0269,86.427 22.0269,87.0937 22.5,88.5C 21.8333,88.5 21.1667,88.5 20.5,88.5C 20.1667,87.8333 19.8333,87.1667 19.5,86.5 Z"/></g>
<g><path style="opacity:1" fill="#dba73a" d="M 9.5,68.5 C 10.4013,69.2905 11.0679,70.2905 11.5,71.5C 16.3723,77.8649 22.3723,83.0315 29.5,87C 48.4698,93.9206 65.1364,90.4206 79.5,76.5C 78.6684,78.5735 78.6684,80.9068 79.5,83.5C 77.5956,83.7376 76.2623,84.7376 75.5,86.5C 73.9731,86.427 72.9731,87.0937 72.5,88.5C 66.4328,91.3 60.0995,93.3 53.5,94.5C 45.7533,94.6478 38.0867,93.9811 30.5,92.5C 30.1667,92.5 29.8333,92.5 29.5,92.5C 27.6644,90.412 25.3311,89.0787 22.5,88.5C 22.0269,87.0937 21.0269,86.427 19.5,86.5C 18.0892,84.086 16.0892,82.4194 13.5,81.5C 12.8333,81.1667 12.1667,80.8333 11.5,80.5C 11.5,80.1667 11.5,79.8333 11.5,79.5C 11.2624,77.5956 10.2624,76.2623 8.5,75.5C 8.57298,73.9731 7.90632,72.9731 6.5,72.5C 5.83333,70.5 5.16667,68.5 4.5,66.5C 4.43456,66.0618 4.60123,65.7284 5,65.5C 5.9184,67.3757 7.4184,68.3757 9.5,68.5 Z"/></g>
<g><path style="opacity:0.122" fill="#171317" d="M 75.5,86.5 C 75.0269,87.9063 74.0269,88.573 72.5,88.5C 72.9731,87.0937 73.9731,86.427 75.5,86.5 Z"/></g>
<g><path style="opacity:0.004" fill="#5f5f5f" d="M 78.5,85.5 C 79.2389,85.369 79.9056,85.5357 80.5,86C 79.2197,87.9664 77.553,89.4664 75.5,90.5C 75.7329,88.9382 76.3995,87.6049 77.5,86.5C 78.1667,86.5 78.5,86.1667 78.5,85.5 Z"/></g>
<g><path style="opacity:0.004" fill="#474748" d="M 16.5,85.5 C 17.1667,85.5 17.5,85.8333 17.5,86.5C 17.9731,87.9063 18.9731,88.573 20.5,88.5C 20.9731,89.9063 21.9731,90.573 23.5,90.5C 23.8417,91.3382 24.5084,91.6716 25.5,91.5C 25.8417,92.3382 26.5084,92.6716 27.5,92.5C 28.1667,93.1667 28.8333,93.8333 29.5,94.5C 28.8333,94.5 28.5,94.8333 28.5,95.5C 28.1667,95.5 27.8333,95.5 27.5,95.5C 22.5217,93.3318 18.1883,90.1651 14.5,86C 15.0944,85.5357 15.7611,85.369 16.5,85.5 Z"/></g>
<g><path style="opacity:0.047" fill="#1c1717" d="M 22.5,88.5 C 25.3311,89.0787 27.6644,90.412 29.5,92.5C 28.8333,92.5 28.1667,92.5 27.5,92.5C 27.1583,91.6618 26.4916,91.3284 25.5,91.5C 25.1583,90.6618 24.4916,90.3284 23.5,90.5C 23.1667,89.8333 22.8333,89.1667 22.5,88.5 Z"/></g>
<g><path style="opacity:0.427" fill="#1e1917" d="M 72.5,88.5 C 72.1667,89.1667 71.8333,89.8333 71.5,90.5C 70.5084,90.3284 69.8417,90.6618 69.5,91.5C 68.5084,91.3284 67.8417,91.6618 67.5,92.5C 63.9523,93.1301 60.6189,94.1301 57.5,95.5C 56.1667,95.5 54.8333,95.5 53.5,95.5C 53.5,95.1667 53.5,94.8333 53.5,94.5C 60.0995,93.3 66.4328,91.3 72.5,88.5 Z"/></g>
<g><path style="opacity:0.004" fill="#474747" d="M 75.5,90.5 C 73.3374,92.0828 71.0041,93.4161 68.5,94.5C 68.1667,93.8333 67.8333,93.1667 67.5,92.5C 68.4916,92.6716 69.1583,92.3382 69.5,91.5C 70.4916,91.6716 71.1583,91.3382 71.5,90.5C 72.9643,89.5946 74.2976,89.5946 75.5,90.5 Z"/></g>
<g><path style="opacity:0.004" fill="#272727" d="M 29.5,95.5 C 29.5,95.1667 29.5,94.8333 29.5,94.5C 30.791,94.2627 31.791,94.596 32.5,95.5C 31.5,95.5 30.5,95.5 29.5,95.5 Z"/></g>
<g><path style="opacity:0.949" fill="#594722" d="M 30.5,92.5 C 38.0867,93.9811 45.7533,94.6478 53.5,94.5C 53.5,94.8333 53.5,95.1667 53.5,95.5C 48.1667,95.5 42.8333,95.5 37.5,95.5C 35.1124,94.6515 32.7791,93.6515 30.5,92.5 Z"/></g>
<g><path style="opacity:0.004" fill="#595959" d="M 66.5,95.5 C 65.1667,95.5 63.8333,95.5 62.5,95.5C 63.531,94.7515 64.6976,94.0848 66,93.5C 66.4643,94.0944 66.631,94.7611 66.5,95.5 Z"/></g>
<g><path style="opacity:0.004" fill="#b4b5b4" d="M 68.5,94.5 C 68.5,94.8333 68.5,95.1667 68.5,95.5C 67.8299,95.0187 67.8299,94.6853 68.5,94.5 Z"/></g>
</svg>
