<?xml version="1.0" encoding="UTF-8"?>
<!DOCTYPE svg PUBLIC "-//W3C//DTD SVG 1.1//EN" "http://www.w3.org/Graphics/SVG/1.1/DTD/svg11.dtd">
<svg xmlns="http://www.w3.org/2000/svg" version="1.1" width="200px" height="200px" style="shape-rendering:geometricPrecision; text-rendering:geometricPrecision; image-rendering:optimizeQuality; fill-rule:evenodd; clip-rule:evenodd" xmlns:xlink="http://www.w3.org/1999/xlink">
<g><path style="opacity:1" fill="#424c66" d="M -0.5,-0.5 C 8.83333,-0.5 18.1667,-0.5 27.5,-0.5C 28.1766,15.5733 29.5099,31.5733 31.5,47.5C 32.5,47.5 33.5,47.5 34.5,47.5C 34.8333,52.8333 35.1667,58.1667 35.5,63.5C 36.8333,63.5 38.1667,63.5 39.5,63.5C 39.3354,66.5184 39.502,69.5184 40,72.5C 41.6279,73.8187 41.4613,75.1521 39.5,76.5C 41.1083,77.3184 42.7749,77.9851 44.5,78.5C 45.5063,78.0623 45.5063,77.3957 44.5,76.5C 45.376,75.7492 46.376,75.2492 47.5,75C 47.1667,74.6667 46.8333,74.3333 46.5,74C 48.0349,73.5038 49.5349,73.6705 51,74.5C 52.7271,74.3535 52.8938,73.6869 51.5,72.5C 53.396,71.5344 55.396,71.2011 57.5,71.5C 57.0882,73.9726 58.0882,75.3059 60.5,75.5C 62.5921,77.1695 64.5921,78.8362 66.5,80.5C 62.6258,78.6457 58.7925,76.6457 55,74.5C 44.9103,79.7925 35.077,85.4592 25.5,91.5C 24.5093,97.979 24.176,104.646 24.5,111.5C 23.5,111.5 22.5,111.5 21.5,111.5C 21.4122,106.464 20.9122,101.464 20,96.5C 18.575,103.527 18.075,110.527 18.5,117.5C 16.6536,117.778 15.3202,117.111 14.5,115.5C 15.1297,109.19 15.7963,102.856 16.5,96.5C 17.0722,94.0829 18.0722,91.9162 19.5,90C 20.5,89.3333 21.5,89.3333 22.5,90C 21.3044,90.6543 21.3044,91.1543 22.5,91.5C 23.4656,89.604 23.7989,87.604 23.5,85.5C 22.1667,85.5 20.8333,85.5 19.5,85.5C 19.6198,82.7952 18.6198,82.1285 16.5,83.5C 15.5713,84.6888 15.238,86.0222 15.5,87.5C 14.1667,87.5 12.8333,87.5 11.5,87.5C 11.9383,78.6912 9.60495,70.6912 4.5,63.5C 3.50158,55.5242 2.83492,47.5242 2.5,39.5C 1.5,39.5 0.5,39.5 -0.5,39.5C -0.5,26.1667 -0.5,12.8333 -0.5,-0.5 Z"/></g>
<g><path style="opacity:1" fill="#46506b" d="M 27.5,-0.5 C 35.1667,-0.5 42.8333,-0.5 50.5,-0.5C 50.6266,15.694 52.2933,31.694 55.5,47.5C 56.5,47.5 57.5,47.5 58.5,47.5C 59.0021,52.8384 59.1688,58.1717 59,63.5C 55.0822,61.9719 51.9156,62.9719 49.5,66.5C 50.1667,66.8333 50.8333,67.1667 51.5,67.5C 52.8333,66.8333 54.1667,66.1667 55.5,65.5C 58.0065,66.8908 59.6732,68.8908 60.5,71.5C 64.1654,72.2927 64.1654,73.626 60.5,75.5C 58.0882,75.3059 57.0882,73.9726 57.5,71.5C 55.396,71.2011 53.396,71.5344 51.5,72.5C 52.8938,73.6869 52.7271,74.3535 51,74.5C 49.5349,73.6705 48.0349,73.5038 46.5,74C 46.8333,74.3333 47.1667,74.6667 47.5,75C 46.376,75.2492 45.376,75.7492 44.5,76.5C 45.5063,77.3957 45.5063,78.0623 44.5,78.5C 42.7749,77.9851 41.1083,77.3184 39.5,76.5C 41.4613,75.1521 41.6279,73.8187 40,72.5C 39.502,69.5184 39.3354,66.5184 39.5,63.5C 38.1667,63.5 36.8333,63.5 35.5,63.5C 35.1667,58.1667 34.8333,52.8333 34.5,47.5C 33.5,47.5 32.5,47.5 31.5,47.5C 29.5099,31.5733 28.1766,15.5733 27.5,-0.5 Z"/></g>
<g><path style="opacity:1" fill="#48526d" d="M 50.5,-0.5 C 58.5,-0.5 66.5,-0.5 74.5,-0.5C 74.8345,12.852 75.5012,26.1853 76.5,39.5C 77.5,39.5 78.5,39.5 79.5,39.5C 79.5,42.1667 79.5,44.8333 79.5,47.5C 80.5,47.5 81.5,47.5 82.5,47.5C 82.8333,52.8333 83.1667,58.1667 83.5,63.5C 84.8333,63.5 86.1667,63.5 87.5,63.5C 87.5,64.8333 87.5,66.1667 87.5,67.5C 89.9201,67.2924 92.2534,67.6258 94.5,68.5C 95.4287,69.6888 95.762,71.0222 95.5,72.5C 93.5165,72.3832 91.8498,73.0499 90.5,74.5C 90.8555,75.5223 91.5222,76.189 92.5,76.5C 82.9278,84.2191 79.7611,94.2191 83,106.5C 85.4257,115.76 91.259,121.427 100.5,123.5C 99.0697,124.537 97.403,125.204 95.5,125.5C 95.6107,124.883 95.944,124.383 96.5,124C 94.0912,122.293 91.4245,121.46 88.5,121.5C 88.6495,120.448 88.4828,119.448 88,118.5C 86.2467,117.373 84.4134,116.373 82.5,115.5C 82.3241,117.672 82.1575,120.005 82,122.5C 81.2825,123.451 80.4491,123.617 79.5,123C 78.8619,119.929 78.8619,116.763 79.5,113.5C 80.552,113.649 81.552,113.483 82.5,113C 81.7819,110.539 81.1153,108.039 80.5,105.5C 78.674,105.08 76.674,105.08 74.5,105.5C 74.824,98.6457 74.4907,91.979 73.5,85.5C 73.1667,85.5 72.8333,85.5 72.5,85.5C 72.5,84.8333 72.1667,84.5 71.5,84.5C 69.6508,83.407 67.9842,82.0737 66.5,80.5C 64.5921,78.8362 62.5921,77.1695 60.5,75.5C 64.1654,73.626 64.1654,72.2927 60.5,71.5C 59.6732,68.8908 58.0065,66.8908 55.5,65.5C 54.1667,66.1667 52.8333,66.8333 51.5,67.5C 50.8333,67.1667 50.1667,66.8333 49.5,66.5C 51.9156,62.9719 55.0822,61.9719 59,63.5C 59.1688,58.1717 59.0021,52.8384 58.5,47.5C 57.5,47.5 56.5,47.5 55.5,47.5C 52.2933,31.694 50.6266,15.694 50.5,-0.5 Z"/></g>
<g><path style="opacity:1" fill="#4c566f" d="M 74.5,-0.5 C 81.5,-0.5 88.5,-0.5 95.5,-0.5C 95.857,4.933 96.857,10.2663 98.5,15.5C 99.4977,23.4723 99.831,31.4723 99.5,39.5C 100.833,39.5 102.167,39.5 103.5,39.5C 103.5,42.1667 103.5,44.8333 103.5,47.5C 104.833,47.5 106.167,47.5 107.5,47.5C 107.5,52.8333 107.5,58.1667 107.5,63.5C 108.873,63.3433 110.207,63.51 111.5,64C 110.862,65.7067 110.862,67.54 111.5,69.5C 107.753,69.3924 104.086,69.8924 100.5,71C 105.65,71.0875 110.65,71.9209 115.5,73.5C 118.416,71.1823 121.416,71.0156 124.5,73C 123.542,74.1475 123.875,75.1475 125.5,76C 124.328,76.4186 123.328,77.0853 122.5,78C 127.387,80.6478 128.72,84.4812 126.5,89.5C 125.097,81.8541 120.764,76.6875 113.5,74C 106.149,72.7248 99.1489,73.5582 92.5,76.5C 91.5222,76.189 90.8555,75.5223 90.5,74.5C 91.8498,73.0499 93.5165,72.3832 95.5,72.5C 95.762,71.0222 95.4287,69.6888 94.5,68.5C 92.2534,67.6258 89.9201,67.2924 87.5,67.5C 87.5,66.1667 87.5,64.8333 87.5,63.5C 86.1667,63.5 84.8333,63.5 83.5,63.5C 83.1667,58.1667 82.8333,52.8333 82.5,47.5C 81.5,47.5 80.5,47.5 79.5,47.5C 79.5,44.8333 79.5,42.1667 79.5,39.5C 78.5,39.5 77.5,39.5 76.5,39.5C 75.5012,26.1853 74.8345,12.852 74.5,-0.5 Z"/></g>
<g><path style="opacity:1" fill="#4f5871" d="M 95.5,-0.5 C 100.833,-0.5 106.167,-0.5 111.5,-0.5C 111.5,4.83333 111.5,10.1667 111.5,15.5C 116.833,15.5 122.167,15.5 127.5,15.5C 127.5,26.1667 127.5,36.8333 127.5,47.5C 130.978,47.1842 134.312,47.6842 137.5,49C 138.833,51.6667 140.833,53.6667 143.5,55C 138.52,55.526 138.187,57.026 142.5,59.5C 143.429,60.6888 143.762,62.0222 143.5,63.5C 135.602,63.8864 135.602,64.8864 143.5,66.5C 143.833,67.1667 144.167,67.8333 144.5,68.5C 147.495,69.1328 150.328,70.1328 153,71.5C 154.822,71.0321 156.989,70.6988 159.5,70.5C 163.348,71.6827 166.348,73.3494 168.5,75.5C 157.538,74.568 146.538,74.2347 135.5,74.5C 135.5,90.1667 135.5,105.833 135.5,121.5C 134.669,106.339 134.169,91.0055 134,75.5C 133.667,90.8333 133.333,106.167 133,121.5C 132.667,113.167 132.333,104.833 132,96.5C 131.829,101.533 131.329,106.533 130.5,111.5C 129.833,107.018 129.166,102.684 128.5,98.5C 128.672,97.5084 128.338,96.8417 127.5,96.5C 127.167,96.5 126.833,96.5 126.5,96.5C 119.833,96.5 113.167,96.5 106.5,96.5C 106.5,99.1667 106.5,101.833 106.5,104.5C 109.833,104.5 113.167,104.5 116.5,104.5C 115.265,113.136 110.265,116.303 101.5,114C 95.5545,110.894 92.5545,105.894 92.5,99C 92.8481,87.6434 98.5148,82.3101 109.5,83C 113.531,83.9029 115.531,86.4029 115.5,90.5C 119.371,90.815 123.038,90.4816 126.5,89.5C 128.72,84.4812 127.387,80.6478 122.5,78C 123.328,77.0853 124.328,76.4186 125.5,76C 123.875,75.1475 123.542,74.1475 124.5,73C 121.416,71.0156 118.416,71.1823 115.5,73.5C 110.65,71.9209 105.65,71.0875 100.5,71C 104.086,69.8924 107.753,69.3924 111.5,69.5C 110.862,67.54 110.862,65.7067 111.5,64C 110.207,63.51 108.873,63.3433 107.5,63.5C 107.5,58.1667 107.5,52.8333 107.5,47.5C 106.167,47.5 104.833,47.5 103.5,47.5C 103.5,44.8333 103.5,42.1667 103.5,39.5C 102.167,39.5 100.833,39.5 99.5,39.5C 99.831,31.4723 99.4977,23.4723 98.5,15.5C 96.857,10.2663 95.857,4.933 95.5,-0.5 Z"/></g>
<g><path style="opacity:1" fill="#535a75" d="M 111.5,-0.5 C 122.167,-0.5 132.833,-0.5 143.5,-0.5C 143.5,4.83333 143.5,10.1667 143.5,15.5C 144.833,15.5 146.167,15.5 147.5,15.5C 147.5,20.8333 147.5,26.1667 147.5,31.5C 149.167,31.5 150.833,31.5 152.5,31.5C 152.833,36.8333 153.167,42.1667 153.5,47.5C 154.5,47.5 155.5,47.5 156.5,47.5C 157.64,52.6519 158.806,52.6519 160,47.5C 160.579,51.2027 160.412,54.8694 159.5,58.5C 166.003,60.559 166.169,63.2257 160,66.5C 159.51,67.7932 159.343,69.1266 159.5,70.5C 156.989,70.6988 154.822,71.0321 153,71.5C 150.328,70.1328 147.495,69.1328 144.5,68.5C 144.167,67.8333 143.833,67.1667 143.5,66.5C 135.602,64.8864 135.602,63.8864 143.5,63.5C 143.762,62.0222 143.429,60.6888 142.5,59.5C 138.187,57.026 138.52,55.526 143.5,55C 140.833,53.6667 138.833,51.6667 137.5,49C 134.312,47.6842 130.978,47.1842 127.5,47.5C 127.5,36.8333 127.5,26.1667 127.5,15.5C 122.167,15.5 116.833,15.5 111.5,15.5C 111.5,10.1667 111.5,4.83333 111.5,-0.5 Z"/></g>
<g><path style="opacity:1" fill="#555c76" d="M 143.5,-0.5 C 148.5,-0.5 153.5,-0.5 158.5,-0.5C 158.501,7.51728 158.834,15.5173 159.5,23.5C 160.5,23.5 161.5,23.5 162.5,23.5C 162.5,26.1667 162.5,28.8333 162.5,31.5C 165.167,31.5 167.833,31.5 170.5,31.5C 169.217,34.0104 168.217,36.6771 167.5,39.5C 170.167,39.5 172.833,39.5 175.5,39.5C 176.896,44.1974 178.23,48.8641 179.5,53.5C 178.022,53.238 176.689,53.5713 175.5,54.5C 178.026,57.526 180.36,60.6927 182.5,64C 185.482,64.498 188.482,64.6646 191.5,64.5C 191.351,63.448 191.517,62.448 192,61.5C 192.827,62.6621 193.66,63.8288 194.5,65C 193.523,66.497 192.523,67.997 191.5,69.5C 193.374,73.7847 196.041,74.4514 199.5,71.5C 199.5,85.1667 199.5,98.8333 199.5,112.5C 193.418,112.229 187.585,111.229 182,109.5C 180.582,112.001 179.582,111.668 179,108.5C 178.424,110.377 178.591,112.211 179.5,114C 179.108,115.011 178.441,115.511 177.5,115.5C 178.911,117.017 178.744,118.351 177,119.5C 176.5,118.5 176,117.5 175.5,116.5C 176.651,112.737 177.984,109.071 179.5,105.5C 178.833,104.5 178.167,103.5 177.5,102.5C 178.5,102.5 179.5,102.5 180.5,102.5C 178.891,99.1064 176.224,97.7731 172.5,98.5C 171.027,97.928 169.693,97.0946 168.5,96C 175.145,89.0953 175.145,82.262 168.5,75.5C 166.348,73.3494 163.348,71.6827 159.5,70.5C 159.343,69.1266 159.51,67.7932 160,66.5C 166.169,63.2257 166.003,60.559 159.5,58.5C 160.412,54.8694 160.579,51.2027 160,47.5C 158.806,52.6519 157.64,52.6519 156.5,47.5C 155.5,47.5 154.5,47.5 153.5,47.5C 153.167,42.1667 152.833,36.8333 152.5,31.5C 150.833,31.5 149.167,31.5 147.5,31.5C 147.5,26.1667 147.5,20.8333 147.5,15.5C 146.167,15.5 144.833,15.5 143.5,15.5C 143.5,10.1667 143.5,4.83333 143.5,-0.5 Z"/></g>
<g><path style="opacity:1" fill="#596079" d="M 158.5,-0.5 C 172.167,-0.5 185.833,-0.5 199.5,-0.5C 199.5,23.5 199.5,47.5 199.5,71.5C 196.041,74.4514 193.374,73.7847 191.5,69.5C 192.523,67.997 193.523,66.497 194.5,65C 193.66,63.8288 192.827,62.6621 192,61.5C 191.517,62.448 191.351,63.448 191.5,64.5C 188.482,64.6646 185.482,64.498 182.5,64C 180.36,60.6927 178.026,57.526 175.5,54.5C 176.689,53.5713 178.022,53.238 179.5,53.5C 178.23,48.8641 176.896,44.1974 175.5,39.5C 172.833,39.5 170.167,39.5 167.5,39.5C 168.217,36.6771 169.217,34.0104 170.5,31.5C 167.833,31.5 165.167,31.5 162.5,31.5C 162.5,28.8333 162.5,26.1667 162.5,23.5C 161.5,23.5 160.5,23.5 159.5,23.5C 158.834,15.5173 158.501,7.51728 158.5,-0.5 Z"/></g>
<g><path style="opacity:1" fill="#3f4964" d="M -0.5,39.5 C 0.5,39.5 1.5,39.5 2.5,39.5C 2.83492,47.5242 3.50158,55.5242 4.5,63.5C 9.60495,70.6912 11.9383,78.6912 11.5,87.5C 12.8333,87.5 14.1667,87.5 15.5,87.5C 15.238,86.0222 15.5713,84.6888 16.5,83.5C 18.6198,82.1285 19.6198,82.7952 19.5,85.5C 20.8333,85.5 22.1667,85.5 23.5,85.5C 23.7989,87.604 23.4656,89.604 22.5,91.5C 21.3044,91.1543 21.3044,90.6543 22.5,90C 21.5,89.3333 20.5,89.3333 19.5,90C 18.0722,91.9162 17.0722,94.0829 16.5,96.5C 15.7963,102.856 15.1297,109.19 14.5,115.5C 15.3202,117.111 16.6536,117.778 18.5,117.5C 18.075,110.527 18.575,103.527 20,96.5C 20.9122,101.464 21.4122,106.464 21.5,111.5C 22.5,111.5 23.5,111.5 24.5,111.5C 25.478,114.841 27.8113,116.507 31.5,116.5C 35.173,118 38.5063,120 41.5,122.5C 41.178,124.722 41.8446,126.556 43.5,128C 40.4941,126.628 37.1608,125.794 33.5,125.5C 33.5,124.167 33.5,122.833 33.5,121.5C 29.3837,121.459 25.3837,120.793 21.5,119.5C 21.5,120.833 21.5,122.167 21.5,123.5C 26.7323,124.551 31.2323,126.885 35,130.5C 35.6368,132.303 36.8035,133.636 38.5,134.5C 39.48,137.086 39.8134,139.753 39.5,142.5C 42.7877,142.927 45.7877,142.26 48.5,140.5C 49.5,140.833 50.1667,141.5 50.5,142.5C 46.5408,143.327 42.5408,143.827 38.5,144C 41.4816,144.498 44.4816,144.665 47.5,144.5C 47.7683,147.119 47.435,149.619 46.5,152C 47.5,152.333 48.5,152.667 49.5,153C 56.1667,160 62.8333,167 69.5,174C 72.3736,175.633 75.0402,178.299 77.5,182C 80.3736,183.633 83.0402,186.299 85.5,190C 86.5,190.333 87.5,190.667 88.5,191C 86.6787,193.456 86.012,196.289 86.5,199.5C 81.5,199.5 76.5,199.5 71.5,199.5C 71.5,198.167 71.5,196.833 71.5,195.5C 68.8333,195.5 66.1667,195.5 63.5,195.5C 63.5,193.5 63.5,191.5 63.5,189.5C 60.8333,188.167 58.1667,186.833 55.5,185.5C 52.8333,181.5 50.1667,177.5 47.5,173.5C 44.8858,173.723 43.2191,172.556 42.5,170C 41.2341,169.691 40.0674,169.191 39,168.5C 38.502,165.518 38.3354,162.518 38.5,159.5C 36.1667,159.5 33.8333,159.5 31.5,159.5C 31.5,157.167 31.5,154.833 31.5,152.5C 28.8127,152.664 26.146,152.497 23.5,152C 26.5,151.667 29.5,151.333 32.5,151C 30.6711,150.727 29.1711,149.893 28,148.5C 25.2278,144.894 22.5611,141.228 20,137.5C 19.5026,134.854 19.3359,132.187 19.5,129.5C 14.3055,129.058 14.3055,128.058 19.5,126.5C 17.5269,125.669 15.5269,125.502 13.5,126C 8.03712,119.675 5.37045,112.175 5.5,103.5C 4.5,103.5 3.5,103.5 2.5,103.5C 2.10203,97.9361 1.10203,92.6027 -0.5,87.5C -0.5,71.5 -0.5,55.5 -0.5,39.5 Z"/></g>
<g><path style="opacity:1" fill="#f6f8f9" d="M 126.5,89.5 C 123.038,90.4816 119.371,90.815 115.5,90.5C 115.531,86.4029 113.531,83.9029 109.5,83C 98.5148,82.3101 92.8481,87.6434 92.5,99C 92.5545,105.894 95.5545,110.894 101.5,114C 110.265,116.303 115.265,113.136 116.5,104.5C 113.167,104.5 109.833,104.5 106.5,104.5C 106.5,101.833 106.5,99.1667 106.5,96.5C 113.167,96.5 119.833,96.5 126.5,96.5C 126.5,105.167 126.5,113.833 126.5,122.5C 124.5,122.5 122.5,122.5 120.5,122.5C 119.839,121.282 119.172,119.949 118.5,118.5C 113.409,123.012 107.409,124.678 100.5,123.5C 91.259,121.427 85.4257,115.76 83,106.5C 79.7611,94.2191 82.9278,84.2191 92.5,76.5C 99.1489,73.5582 106.149,72.7248 113.5,74C 120.764,76.6875 125.097,81.8541 126.5,89.5 Z"/></g>
<g><path style="opacity:1" fill="#f7f8fa" d="M 168.5,75.5 C 175.145,82.262 175.145,89.0953 168.5,96C 169.693,97.0946 171.027,97.928 172.5,98.5C 179.529,109.143 177.196,116.977 165.5,122C 155.325,122.825 145.325,122.658 135.5,121.5C 135.5,105.833 135.5,90.1667 135.5,74.5C 146.538,74.2347 157.538,74.568 168.5,75.5 Z"/></g>
<g><path style="opacity:1" fill="#4e566f" d="M 146.5,82.5 C 151.179,82.3342 155.845,82.5008 160.5,83C 163.167,86.3333 163.167,89.6667 160.5,93C 155.845,93.4992 151.179,93.6658 146.5,93.5C 146.5,89.8333 146.5,86.1667 146.5,82.5 Z"/></g>
<g><path style="opacity:1" fill="#3c4562" d="M -0.5,87.5 C 1.10203,92.6027 2.10203,97.9361 2.5,103.5C 3.5,103.5 4.5,103.5 5.5,103.5C 5.37045,112.175 8.03712,119.675 13.5,126C 15.5269,125.502 17.5269,125.669 19.5,126.5C 14.3055,128.058 14.3055,129.058 19.5,129.5C 19.3359,132.187 19.5026,134.854 20,137.5C 22.5611,141.228 25.2278,144.894 28,148.5C 29.1711,149.893 30.6711,150.727 32.5,151C 29.5,151.333 26.5,151.667 23.5,152C 26.146,152.497 28.8127,152.664 31.5,152.5C 31.5,154.833 31.5,157.167 31.5,159.5C 33.8333,159.5 36.1667,159.5 38.5,159.5C 38.3354,162.518 38.502,165.518 39,168.5C 40.0674,169.191 41.2341,169.691 42.5,170C 43.2191,172.556 44.8858,173.723 47.5,173.5C 50.1667,177.5 52.8333,181.5 55.5,185.5C 58.1667,186.833 60.8333,188.167 63.5,189.5C 63.5,191.5 63.5,193.5 63.5,195.5C 66.1667,195.5 68.8333,195.5 71.5,195.5C 71.5,196.833 71.5,198.167 71.5,199.5C 47.5,199.5 23.5,199.5 -0.5,199.5C -0.5,162.167 -0.5,124.833 -0.5,87.5 Z"/></g>
<g><path style="opacity:1" fill="#454c64" d="M 68.5,86.5 C 61.903,89.7753 55.5697,93.442 49.5,97.5C 47.5336,98.4412 45.5336,99.4412 43.5,100.5C 38.6669,97.9179 34.0002,95.0845 29.5,92C 37.753,86.7503 46.253,81.9169 55,77.5C 60.2174,79.6731 64.7174,82.6731 68.5,86.5 Z"/></g>
<g><path style="opacity:1" fill="#cbc6a9" d="M 66.5,80.5 C 67.9842,82.0737 69.6508,83.407 71.5,84.5C 70.2223,84.7822 69.2223,85.4489 68.5,86.5C 64.7174,82.6731 60.2174,79.6731 55,77.5C 46.253,81.9169 37.753,86.7503 29.5,92C 34.0002,95.0845 38.6669,97.9179 43.5,100.5C 45.5336,99.4412 47.5336,98.4412 49.5,97.5C 48.1336,99.2713 46.6336,100.938 45,102.5C 44.5006,108.157 44.3339,113.824 44.5,119.5C 46.5,118.833 48.5,118.167 50.5,117.5C 50.2391,113.658 50.9058,109.991 52.5,106.5C 52.9569,105.702 53.6236,105.369 54.5,105.5C 53.7401,109.081 53.2401,112.748 53,116.5C 49.7301,119.717 45.8968,121.717 41.5,122.5C 38.5063,120 35.173,118 31.5,116.5C 29.6452,114.967 27.8119,113.3 26,111.5C 25.5004,104.842 25.3337,98.175 25.5,91.5C 35.077,85.4592 44.9103,79.7925 55,74.5C 58.7925,76.6457 62.6258,78.6457 66.5,80.5 Z"/></g>
<g><path style="opacity:1" fill="#ead595" d="M 71.5,84.5 C 72.1667,84.5 72.5,84.8333 72.5,85.5C 72.6072,91.8798 72.1072,98.2131 71,104.5C 69.4157,105.861 67.5824,106.528 65.5,106.5C 65.7373,105.209 65.404,104.209 64.5,103.5C 64.6716,102.508 64.3382,101.842 63.5,101.5C 61.3647,99.631 58.6981,98.9644 55.5,99.5C 55.5,100.833 55.5,102.167 55.5,103.5C 55.6716,104.492 55.3382,105.158 54.5,105.5C 53.6236,105.369 52.9569,105.702 52.5,106.5C 50.9058,109.991 50.2391,113.658 50.5,117.5C 48.5,118.167 46.5,118.833 44.5,119.5C 44.3339,113.824 44.5006,108.157 45,102.5C 46.6336,100.938 48.1336,99.2713 49.5,97.5C 55.5697,93.442 61.903,89.7753 68.5,86.5C 69.2223,85.4489 70.2223,84.7822 71.5,84.5 Z"/></g>
<g><path style="opacity:1" fill="#787b78" d="M 29.5,95.5 C 28.5119,100.64 28.1786,105.974 28.5,111.5C 27.1843,105.987 27.1843,100.32 28.5,94.5C 29.1067,94.6236 29.44,94.9569 29.5,95.5 Z"/></g>
<g><path style="opacity:1" fill="#41495e" d="M 29.5,95.5 C 33.8546,97.429 38.0212,99.7624 42,102.5C 42.6667,108.167 42.6667,113.833 42,119.5C 37.5549,116.696 33.0549,114.029 28.5,111.5C 28.1786,105.974 28.5119,100.64 29.5,95.5 Z"/></g>
<g><path style="opacity:1" fill="#c3bb9d" d="M 72.5,85.5 C 72.8333,85.5 73.1667,85.5 73.5,85.5C 73.6662,91.8421 73.4995,98.1754 73,104.5C 71.2609,106.741 69.0942,108.408 66.5,109.5C 63.2593,106.713 59.5927,104.713 55.5,103.5C 55.5,102.167 55.5,100.833 55.5,99.5C 58.6981,98.9644 61.3647,99.631 63.5,101.5C 57.0043,100.752 57.0043,101.752 63.5,104.5C 64.1067,104.376 64.44,104.043 64.5,103.5C 65.404,104.209 65.7373,105.209 65.5,106.5C 67.5824,106.528 69.4157,105.861 71,104.5C 72.1072,98.2131 72.6072,91.8798 72.5,85.5 Z"/></g>
<g><path style="opacity:1" fill="#474243" d="M 63.5,101.5 C 64.3382,101.842 64.6716,102.508 64.5,103.5C 64.44,104.043 64.1067,104.376 63.5,104.5C 57.0043,101.752 57.0043,100.752 63.5,101.5 Z"/></g>
<g><path style="opacity:1" fill="#adb4be" d="M 126.5,96.5 C 126.833,96.5 127.167,96.5 127.5,96.5C 127.5,105.5 127.5,114.5 127.5,123.5C 125.167,123.5 122.833,123.5 120.5,123.5C 120.5,123.167 120.5,122.833 120.5,122.5C 122.5,122.5 124.5,122.5 126.5,122.5C 126.5,113.833 126.5,105.167 126.5,96.5 Z"/></g>
<g><path style="opacity:1" fill="#2a323a" d="M 25.5,91.5 C 25.3337,98.175 25.5004,104.842 26,111.5C 27.8119,113.3 29.6452,114.967 31.5,116.5C 27.8113,116.507 25.478,114.841 24.5,111.5C 24.176,104.646 24.5093,97.979 25.5,91.5 Z"/></g>
<g><path style="opacity:1" fill="#242f45" d="M 127.5,96.5 C 128.338,96.8417 128.672,97.5084 128.5,98.5C 128.827,107.682 128.493,116.682 127.5,125.5C 125.167,124.833 122.833,124.167 120.5,123.5C 122.833,123.5 125.167,123.5 127.5,123.5C 127.5,114.5 127.5,105.5 127.5,96.5 Z"/></g>
<g><path style="opacity:1" fill="#424c67" d="M 73.5,85.5 C 74.4907,91.979 74.824,98.6457 74.5,105.5C 71.9984,107.17 69.9984,109.336 68.5,112C 70.1376,114.133 70.971,116.633 71,119.5C 73.8333,121 76,123.167 77.5,126C 79.3453,127.128 81.3453,127.628 83.5,127.5C 83.5,130.167 83.5,132.833 83.5,135.5C 84.8333,135.5 86.1667,135.5 87.5,135.5C 87.5,138.167 87.5,140.833 87.5,143.5C 90.3229,144.217 92.9896,145.217 95.5,146.5C 95.5,147.5 95.5,148.5 95.5,149.5C 100.441,150.441 103.441,153.441 104.5,158.5C 105.736,159.246 107.07,159.579 108.5,159.5C 108.351,160.552 108.517,161.552 109,162.5C 111.552,166.183 115.052,167.849 119.5,167.5C 119.5,169.833 119.5,172.167 119.5,174.5C 125.914,173.75 130.581,176.25 133.5,182C 137.5,183 141.5,184 145.5,185C 146.833,187.667 148.833,189.667 151.5,191C 148.854,191.497 146.187,191.664 143.5,191.5C 143.5,193.833 143.5,196.167 143.5,198.5C 149.026,198.179 154.36,198.512 159.5,199.5C 135.167,199.5 110.833,199.5 86.5,199.5C 86.012,196.289 86.6787,193.456 88.5,191C 87.5,190.667 86.5,190.333 85.5,190C 83.0402,186.299 80.3736,183.633 77.5,182C 75.0402,178.299 72.3736,175.633 69.5,174C 62.8333,167 56.1667,160 49.5,153C 48.5,152.667 47.5,152.333 46.5,152C 47.435,149.619 47.7683,147.119 47.5,144.5C 44.4816,144.665 41.4816,144.498 38.5,144C 42.5408,143.827 46.5408,143.327 50.5,142.5C 50.1667,141.5 49.5,140.833 48.5,140.5C 45.7877,142.26 42.7877,142.927 39.5,142.5C 39.8134,139.753 39.48,137.086 38.5,134.5C 36.8035,133.636 35.6368,132.303 35,130.5C 31.2323,126.885 26.7323,124.551 21.5,123.5C 21.5,122.167 21.5,120.833 21.5,119.5C 25.3837,120.793 29.3837,121.459 33.5,121.5C 33.5,122.833 33.5,124.167 33.5,125.5C 37.1608,125.794 40.4941,126.628 43.5,128C 41.8446,126.556 41.178,124.722 41.5,122.5C 45.8968,121.717 49.7301,119.717 53,116.5C 53.2401,112.748 53.7401,109.081 54.5,105.5C 55.3382,105.158 55.6716,104.492 55.5,103.5C 59.5927,104.713 63.2593,106.713 66.5,109.5C 69.0942,108.408 71.2609,106.741 73,104.5C 73.4995,98.1754 73.6662,91.8421 73.5,85.5 Z"/></g>
<g><path style="opacity:1" fill="#4c566f" d="M 135.5,121.5 C 145.325,122.658 155.325,122.825 165.5,122C 177.196,116.977 179.529,109.143 172.5,98.5C 176.224,97.7731 178.891,99.1064 180.5,102.5C 179.5,102.5 178.5,102.5 177.5,102.5C 178.167,103.5 178.833,104.5 179.5,105.5C 177.984,109.071 176.651,112.737 175.5,116.5C 176,117.5 176.5,118.5 177,119.5C 178.744,118.351 178.911,117.017 177.5,115.5C 178.441,115.511 179.108,115.011 179.5,114C 178.591,112.211 178.424,110.377 179,108.5C 179.582,111.668 180.582,112.001 182,109.5C 187.585,111.229 193.418,112.229 199.5,112.5C 199.5,130.5 199.5,148.5 199.5,166.5C 194.167,166.5 188.833,166.5 183.5,166.5C 183.5,165.5 183.5,164.5 183.5,163.5C 180.833,163.5 178.167,163.5 175.5,163.5C 175.5,162.167 175.5,160.833 175.5,159.5C 169.14,160.819 164.474,158.652 161.5,153C 158.167,152.667 154.833,152.333 151.5,152C 156.48,151.474 156.813,149.974 152.5,147.5C 151.571,146.311 151.238,144.978 151.5,143.5C 145.14,144.819 140.474,142.652 137.5,137C 135.117,136.935 134.45,136.102 135.5,134.5C 133.042,133.876 131.376,132.376 130.5,130C 129.552,129.517 128.552,129.351 127.5,129.5C 127.5,128.167 127.5,126.833 127.5,125.5C 128.493,116.682 128.827,107.682 128.5,98.5C 129.166,102.684 129.833,107.018 130.5,111.5C 131.329,106.533 131.829,101.533 132,96.5C 132.333,104.833 132.667,113.167 133,121.5C 133.333,106.167 133.667,90.8333 134,75.5C 134.169,91.0055 134.669,106.339 135.5,121.5 Z"/></g>
<g><path style="opacity:1" fill="#4f5770" d="M 146.5,101.5 C 152.262,101.149 157.928,101.649 163.5,103C 166.569,107.325 165.902,110.992 161.5,114C 156.511,114.499 151.511,114.666 146.5,114.5C 146.5,110.167 146.5,105.833 146.5,101.5 Z"/></g>
<g><path style="opacity:1" fill="#48526d" d="M 120.5,122.5 C 120.5,122.833 120.5,123.167 120.5,123.5C 122.833,124.167 125.167,124.833 127.5,125.5C 127.5,126.833 127.5,128.167 127.5,129.5C 128.552,129.351 129.552,129.517 130.5,130C 131.376,132.376 133.042,133.876 135.5,134.5C 134.45,136.102 135.117,136.935 137.5,137C 140.474,142.652 145.14,144.819 151.5,143.5C 151.238,144.978 151.571,146.311 152.5,147.5C 156.813,149.974 156.48,151.474 151.5,152C 154.833,152.333 158.167,152.667 161.5,153C 164.474,158.652 169.14,160.819 175.5,159.5C 175.5,160.833 175.5,162.167 175.5,163.5C 178.167,163.5 180.833,163.5 183.5,163.5C 183.5,164.5 183.5,165.5 183.5,166.5C 188.833,166.5 194.167,166.5 199.5,166.5C 199.5,175.5 199.5,184.5 199.5,193.5C 194.167,192.833 188.833,192.167 183.5,191.5C 183.5,190.167 183.5,188.833 183.5,187.5C 179.435,187.901 175.769,186.901 172.5,184.5C 173.376,183.749 174.376,183.249 175.5,183C 172.854,182.503 170.187,182.336 167.5,182.5C 167.5,181.5 167.5,180.5 167.5,179.5C 164.833,179.5 162.167,179.5 159.5,179.5C 159.5,177.833 159.5,176.167 159.5,174.5C 155.727,174.737 152.06,174.237 148.5,173C 147.624,170.624 145.958,169.124 143.5,168.5C 143.709,167.914 144.043,167.414 144.5,167C 141.518,166.502 138.518,166.335 135.5,166.5C 134.199,164.328 133.199,161.995 132.5,159.5C 130.833,159.5 129.167,159.5 127.5,159.5C 126.05,154.5 122.717,151.334 117.5,150C 113.5,145.667 109.5,141.333 105.5,137C 104.5,136.667 103.5,136.333 102.5,136C 107.908,135.838 108.574,134.338 104.5,131.5C 103.833,132.5 103.167,133.5 102.5,134.5C 102.167,134.333 101.833,134.167 101.5,134C 99.204,131.232 97.204,128.399 95.5,125.5C 97.403,125.204 99.0697,124.537 100.5,123.5C 107.409,124.678 113.409,123.012 118.5,118.5C 119.172,119.949 119.839,121.282 120.5,122.5 Z"/></g>
<g><path style="opacity:1" fill="#46506b" d="M 95.5,125.5 C 97.204,128.399 99.204,131.232 101.5,134C 101.833,134.167 102.167,134.333 102.5,134.5C 103.167,133.5 103.833,132.5 104.5,131.5C 108.574,134.338 107.908,135.838 102.5,136C 103.5,136.333 104.5,136.667 105.5,137C 109.5,141.333 113.5,145.667 117.5,150C 122.717,151.334 126.05,154.5 127.5,159.5C 129.167,159.5 130.833,159.5 132.5,159.5C 133.199,161.995 134.199,164.328 135.5,166.5C 138.518,166.335 141.518,166.502 144.5,167C 144.043,167.414 143.709,167.914 143.5,168.5C 145.958,169.124 147.624,170.624 148.5,173C 152.06,174.237 155.727,174.737 159.5,174.5C 159.5,176.167 159.5,177.833 159.5,179.5C 162.167,179.5 164.833,179.5 167.5,179.5C 167.5,180.5 167.5,181.5 167.5,182.5C 170.187,182.336 172.854,182.503 175.5,183C 174.376,183.249 173.376,183.749 172.5,184.5C 175.769,186.901 179.435,187.901 183.5,187.5C 183.5,188.833 183.5,190.167 183.5,191.5C 188.833,192.167 194.167,192.833 199.5,193.5C 199.5,195.5 199.5,197.5 199.5,199.5C 186.167,199.5 172.833,199.5 159.5,199.5C 154.36,198.512 149.026,198.179 143.5,198.5C 143.5,196.167 143.5,193.833 143.5,191.5C 146.187,191.664 148.854,191.497 151.5,191C 148.833,189.667 146.833,187.667 145.5,185C 141.5,184 137.5,183 133.5,182C 130.581,176.25 125.914,173.75 119.5,174.5C 119.5,172.167 119.5,169.833 119.5,167.5C 115.052,167.849 111.552,166.183 109,162.5C 108.517,161.552 108.351,160.552 108.5,159.5C 107.07,159.579 105.736,159.246 104.5,158.5C 103.441,153.441 100.441,150.441 95.5,149.5C 95.5,148.5 95.5,147.5 95.5,146.5C 92.9896,145.217 90.3229,144.217 87.5,143.5C 87.5,140.833 87.5,138.167 87.5,135.5C 86.1667,135.5 84.8333,135.5 83.5,135.5C 83.5,132.833 83.5,130.167 83.5,127.5C 81.3453,127.628 79.3453,127.128 77.5,126C 76,123.167 73.8333,121 71,119.5C 70.971,116.633 70.1376,114.133 68.5,112C 69.9984,109.336 71.9984,107.17 74.5,105.5C 76.674,105.08 78.674,105.08 80.5,105.5C 81.1153,108.039 81.7819,110.539 82.5,113C 81.552,113.483 80.552,113.649 79.5,113.5C 78.8619,116.763 78.8619,119.929 79.5,123C 80.4491,123.617 81.2825,123.451 82,122.5C 82.1575,120.005 82.3241,117.672 82.5,115.5C 84.4134,116.373 86.2467,117.373 88,118.5C 88.4828,119.448 88.6495,120.448 88.5,121.5C 91.4245,121.46 94.0912,122.293 96.5,124C 95.944,124.383 95.6107,124.883 95.5,125.5 Z"/></g>
</svg>
