<?xml version="1.0" encoding="UTF-8"?>
<!DOCTYPE svg PUBLIC "-//W3C//DTD SVG 1.1//EN" "http://www.w3.org/Graphics/SVG/1.1/DTD/svg11.dtd">
<svg xmlns="http://www.w3.org/2000/svg" version="1.1" width="96px" height="96px" style="shape-rendering:geometricPrecision; text-rendering:geometricPrecision; image-rendering:optimizeQuality; fill-rule:evenodd; clip-rule:evenodd" xmlns:xlink="http://www.w3.org/1999/xlink">
<g><path style="opacity:0.995" fill="#4297c8" d="M 36.5,0.5 C 36.5,0.166667 36.5,-0.166667 36.5,-0.5C 43.8333,-0.5 51.1667,-0.5 58.5,-0.5C 77.1667,5.5 89.5,17.8333 95.5,36.5C 95.5,40.1667 95.5,43.8333 95.5,47.5C 90.7226,44.9403 86.0559,42.107 81.5,39C 79.8659,38.5065 78.1992,38.3398 76.5,38.5C 76.762,39.9778 76.4287,41.3112 75.5,42.5C 74.8933,42.3764 74.56,42.0431 74.5,41.5C 75.1386,40.9032 75.472,40.0698 75.5,39C 74.8541,35.1875 74.3541,31.3542 74,27.5C 73.9977,24.9488 73.1644,22.9488 71.5,21.5C 71.9175,20.7784 72.5842,20.2784 73.5,20C 60.8283,13.9991 48.495,7.49909 36.5,0.5 Z"/></g>
<g><path style="opacity:1" fill="#358ec0" d="M 36.5,0.5 C 48.495,7.49909 60.8283,13.9991 73.5,20C 72.5842,20.2784 71.9175,20.7784 71.5,21.5C 65.4111,23.7088 59.4111,26.2088 53.5,29C 55.3211,30.7433 57.3211,32.2433 59.5,33.5C 58.4793,34.9014 57.4793,36.2347 56.5,37.5C 56.5654,37.0618 56.3988,36.7284 56,36.5C 55.0853,37.3279 54.4186,38.3279 54,39.5C 48.9152,36.3738 43.7486,33.3738 38.5,30.5C 37.8076,31.0253 37.3076,31.6919 37,32.5C 35.2468,27.4052 31.7468,24.5719 26.5,24C 22.0071,20.2492 17.0071,17.9159 11.5,17C 10.6266,18.045 9.62656,18.8783 8.5,19.5C 15.1072,9.23835 24.4405,2.90501 36.5,0.5 Z"/></g>
<g><path style="opacity:1" fill="#2281b7" d="M 56.5,37.5 C 53.8899,42.7671 50.8899,47.7671 47.5,52.5C 42.0032,44.1557 36.6698,35.6557 31.5,27C 27.1794,26.501 22.8461,26.3343 18.5,26.5C 17.9569,26.56 17.6236,26.8933 17.5,27.5C 20.146,31.256 21.9794,35.256 23,39.5C 20.1373,37.3397 17.804,35.3397 16,33.5C 15.6667,33.8333 15.3333,34.1667 15,34.5C 11.6287,32.3001 8.12873,30.3001 4.5,28.5C 3.81815,29.2427 3.15149,29.9094 2.5,30.5C 3.21446,26.0666 5.21446,22.4 8.5,19.5C 9.62656,18.8783 10.6266,18.045 11.5,17C 17.0071,17.9159 22.0071,20.2492 26.5,24C 31.7468,24.5719 35.2468,27.4052 37,32.5C 37.3076,31.6919 37.8076,31.0253 38.5,30.5C 43.7486,33.3738 48.9152,36.3738 54,39.5C 54.4186,38.3279 55.0853,37.3279 56,36.5C 56.3988,36.7284 56.5654,37.0618 56.5,37.5 Z"/></g>
<g><path style="opacity:1" fill="#f9fbfd" d="M 71.5,21.5 C 73.1644,22.9488 73.9977,24.9488 74,27.5C 74.3541,31.3542 74.8541,35.1875 75.5,39C 75.472,40.0698 75.1386,40.9032 74.5,41.5C 72.6951,40.0906 70.6951,39.5906 68.5,40C 65.0942,45.3141 62.0942,50.8141 59.5,56.5C 55.3632,62.828 51.3632,69.328 47.5,76C 43.1667,76.6667 38.8333,76.6667 34.5,76C 38.3739,69.0845 42.3739,62.2512 46.5,55.5C 42.2873,54.8055 38.1206,54.1388 34,53.5C 28.8215,44.4726 23.6549,35.4726 18.5,26.5C 22.8461,26.3343 27.1794,26.501 31.5,27C 36.6698,35.6557 42.0032,44.1557 47.5,52.5C 50.8899,47.7671 53.8899,42.7671 56.5,37.5C 57.4793,36.2347 58.4793,34.9014 59.5,33.5C 57.3211,32.2433 55.3211,30.7433 53.5,29C 59.4111,26.2088 65.4111,23.7088 71.5,21.5 Z"/></g>
<g><path style="opacity:0.996" fill="#0870ad" d="M 18.5,26.5 C 23.6549,35.4726 28.8215,44.4726 34,53.5C 38.1206,54.1388 42.2873,54.8055 46.5,55.5C 42.3739,62.2512 38.3739,69.0845 34.5,76C 38.8333,76.6667 43.1667,76.6667 47.5,76C 51.3632,69.328 55.3632,62.828 59.5,56.5C 59.9382,56.4346 60.2716,56.6012 60.5,57C 59.1667,59.3333 57.8333,61.6667 56.5,64C 62.0084,67.2547 67.675,70.2547 73.5,73C 77.0117,75.0608 80.0117,77.5608 82.5,80.5C 76.0269,87.9789 68.0269,92.9789 58.5,95.5C 51.1667,95.5 43.8333,95.5 36.5,95.5C 17.8333,89.5 5.5,77.1667 -0.5,58.5C -0.5,51.1667 -0.5,43.8333 -0.5,36.5C 0.202776,34.3713 1.20278,32.3713 2.5,30.5C 3.15149,29.9094 3.81815,29.2427 4.5,28.5C 8.12873,30.3001 11.6287,32.3001 15,34.5C 15.3333,34.1667 15.6667,33.8333 16,33.5C 17.804,35.3397 20.1373,37.3397 23,39.5C 21.9794,35.256 20.146,31.256 17.5,27.5C 17.6236,26.8933 17.9569,26.56 18.5,26.5 Z"/></g>
<g><path style="opacity:1" fill="#2583b9" d="M 95.5,47.5 C 95.5,51.1667 95.5,54.8333 95.5,58.5C 93.2275,67.044 88.8942,74.3773 82.5,80.5C 80.0117,77.5608 77.0117,75.0608 73.5,73C 67.675,70.2547 62.0084,67.2547 56.5,64C 57.8333,61.6667 59.1667,59.3333 60.5,57C 60.2716,56.6012 59.9382,56.4346 59.5,56.5C 62.0942,50.8141 65.0942,45.3141 68.5,40C 70.6951,39.5906 72.6951,40.0906 74.5,41.5C 74.56,42.0431 74.8933,42.3764 75.5,42.5C 76.4287,41.3112 76.762,39.9778 76.5,38.5C 78.1992,38.3398 79.8659,38.5065 81.5,39C 86.0559,42.107 90.7226,44.9403 95.5,47.5 Z"/></g>
</svg>
