<?xml version="1.0" encoding="UTF-8"?>
<!DOCTYPE svg PUBLIC "-//W3C//DTD SVG 1.1//EN" "http://www.w3.org/Graphics/SVG/1.1/DTD/svg11.dtd">
<svg xmlns="http://www.w3.org/2000/svg" version="1.1" width="96px" height="96px" style="shape-rendering:geometricPrecision; text-rendering:geometricPrecision; image-rendering:optimizeQuality; fill-rule:evenodd; clip-rule:evenodd" xmlns:xlink="http://www.w3.org/1999/xlink">
<g><path style="opacity:1" fill="#eff5f9" d="M 70.5,23.5 C 67.9078,23.5457 65.7411,24.5457 64,26.5C 60.4374,23.2665 56.6041,20.4332 52.5,18C 49.6074,17.3691 46.7741,16.5358 44,15.5C 38.9031,18.5446 35.0698,22.7113 32.5,28C 30.5789,28.3603 28.9122,29.1936 27.5,30.5C 26.5832,29.8728 25.5832,29.5394 24.5,29.5C 25.6772,27.8974 25.5106,26.564 24,25.5C 23.3333,23.8333 23.3333,22.1667 24,20.5C 25.614,16.6582 27.7807,13.1582 30.5,10C 37.8554,6.82514 45.5221,4.9918 53.5,4.5C 59.3836,7.54293 64.8836,11.2096 70,15.5C 70.4974,18.146 70.6641,20.8127 70.5,23.5 Z"/></g>
<g><path style="opacity:1" fill="#f8f7f9" d="M 60.5,38.5 C 60.5,48.8333 60.5,59.1667 60.5,69.5C 50.1688,69.0334 39.8355,68.5334 29.5,68C 28.5308,63.2633 28.1975,58.43 28.5,53.5C 29.3285,46.6787 29.8285,39.6787 30,32.5C 30.8505,29.3876 32.0172,29.0542 33.5,31.5C 34.9367,26.6783 37.6033,22.6783 41.5,19.5C 43.3983,20.7345 45.065,20.4011 46.5,18.5C 47.935,20.4011 49.6017,20.7345 51.5,19.5C 52.7193,20.2634 53.7193,21.2634 54.5,22.5C 55.086,22.2907 55.586,21.9574 56,21.5C 59.8282,26.3812 61.3282,32.0478 60.5,38.5 Z"/></g>
<g><path style="opacity:1" fill="#a8bbe5" d="M 70.5,23.5 C 71.8333,31.8333 71.8333,40.1667 70.5,48.5C 70.6664,40.8261 70.4997,33.1594 70,25.5C 69.6174,26.056 69.1174,26.3893 68.5,26.5C 67.5714,27.9361 66.4048,29.2695 65,30.5C 64.6667,29.8333 64.3333,29.1667 64,28.5C 63.8138,31.0356 63.3138,33.369 62.5,35.5C 62.6602,33.8008 62.4935,32.1341 62,30.5C 61.8171,33.3647 61.3171,36.0314 60.5,38.5C 61.3282,32.0478 59.8282,26.3812 56,21.5C 55.586,21.9574 55.086,22.2907 54.5,22.5C 53.7193,21.2634 52.7193,20.2634 51.5,19.5C 49.6017,20.7345 47.935,20.4011 46.5,18.5C 45.065,20.4011 43.3983,20.7345 41.5,19.5C 37.6033,22.6783 34.9367,26.6783 33.5,31.5C 32.0172,29.0542 30.8505,29.3876 30,32.5C 29.8285,39.6787 29.3285,46.6787 28.5,53.5C 28.6663,46.1591 28.4997,38.8258 28,31.5C 27.6667,43.8333 27.3333,56.1667 27,68.5C 26.3292,69.2524 25.4959,69.5858 24.5,69.5C 24.7828,68.7109 25.2828,68.0442 26,67.5C 26.6667,55.5 26.6667,43.5 26,31.5C 25.2828,30.9558 24.7828,30.2891 24.5,29.5C 25.5832,29.5394 26.5832,29.8728 27.5,30.5C 28.9122,29.1936 30.5789,28.3603 32.5,28C 35.0698,22.7113 38.9031,18.5446 44,15.5C 46.7741,16.5358 49.6074,17.3691 52.5,18C 56.6041,20.4332 60.4374,23.2665 64,26.5C 65.7411,24.5457 67.9078,23.5457 70.5,23.5 Z"/></g>
<g><path style="opacity:1" fill="#d3d4b0" d="M 49.5,53.5 C 49.3398,51.8008 49.5065,50.1341 50,48.5C 56.7401,41.1099 55.5735,35.2765 46.5,31C 43.5929,30.2815 40.9262,30.7815 38.5,32.5C 38.0618,32.5654 37.7284,32.3988 37.5,32C 43.6892,28.1282 49.1892,28.9616 54,34.5C 56.548,40.0587 55.8814,45.0587 52,49.5C 51.7978,51.2556 51.2978,52.9223 50.5,54.5C 49.8933,54.3764 49.56,54.0431 49.5,53.5 Z"/></g>
<g><path style="opacity:1" fill="#8c888b" d="M 68.5,26.5 C 68.7461,39.8631 68.2461,53.1965 67,66.5C 65.9148,67.2931 64.7481,67.9598 63.5,68.5C 62.5012,57.5202 62.1679,46.5202 62.5,35.5C 63.3138,33.369 63.8138,31.0356 64,28.5C 64.3333,29.1667 64.6667,29.8333 65,30.5C 66.4048,29.2695 67.5714,27.9361 68.5,26.5 Z"/></g>
<g><path style="opacity:1" fill="#410fbf" d="M 49.5,53.5 C 48.2436,53.0962 47.0769,52.4295 46,51.5C 44.1082,54.3895 43.2749,54.0562 43.5,50.5C 41.857,50.4802 40.5237,51.1468 39.5,52.5C 39.0308,48.9646 37.5308,45.9646 35,43.5C 33.8824,39.0767 35.0491,35.41 38.5,32.5C 40.9262,30.7815 43.5929,30.2815 46.5,31C 55.5735,35.2765 56.7401,41.1099 50,48.5C 49.5065,50.1341 49.3398,51.8008 49.5,53.5 Z"/></g>
<g><path style="opacity:0.337" fill="#ddd2f2" d="M 70.5,51.5 C 70.3341,56.5111 70.5007,61.5111 71,66.5C 73.0184,68.5221 73.8517,71.0221 73.5,74C 73.4944,76.0326 73.1611,77.866 72.5,79.5C 72.665,76.1501 72.4983,72.8168 72,69.5C 71.3333,68.8333 70.6667,68.1667 70,67.5C 69.1826,61.9836 69.3493,56.6503 70.5,51.5 Z"/></g>
<g><path style="opacity:1" fill="#532cc6" d="M 70.5,48.5 C 70.5,49.5 70.5,50.5 70.5,51.5C 69.3493,56.6503 69.1826,61.9836 70,67.5C 70.6667,68.1667 71.3333,68.8333 72,69.5C 72.4983,72.8168 72.665,76.1501 72.5,79.5C 69.669,81.4168 66.669,83.0834 63.5,84.5C 56.8574,83.7875 50.1908,83.4542 43.5,83.5C 37.773,83.7402 32.1064,83.4069 26.5,82.5C 25.4324,81.5655 24.099,81.2322 22.5,81.5C 22.244,77.7307 22.5773,74.0641 23.5,70.5C 23.5,69.8333 23.8333,69.5 24.5,69.5C 25.4959,69.5858 26.3292,69.2524 27,68.5C 27.3333,56.1667 27.6667,43.8333 28,31.5C 28.4997,38.8258 28.6663,46.1591 28.5,53.5C 28.1975,58.43 28.5308,63.2633 29.5,68C 39.8355,68.5334 50.1688,69.0334 60.5,69.5C 60.5,59.1667 60.5,48.8333 60.5,38.5C 61.3171,36.0314 61.8171,33.3647 62,30.5C 62.4935,32.1341 62.6602,33.8008 62.5,35.5C 62.1679,46.5202 62.5012,57.5202 63.5,68.5C 64.7481,67.9598 65.9148,67.2931 67,66.5C 68.2461,53.1965 68.7461,39.8631 68.5,26.5C 69.1174,26.3893 69.6174,26.056 70,25.5C 70.4997,33.1594 70.6664,40.8261 70.5,48.5 Z"/></g>
<g><path style="opacity:1" fill="#a4a19a" d="M 67.5,67.5 C 69.0847,68.0024 69.5847,69.0024 69,70.5C 67.2467,71.627 65.4134,72.627 63.5,73.5C 62.4173,72.635 62.2506,71.635 63,70.5C 64.6516,69.6006 66.1516,68.6006 67.5,67.5 Z"/></g>
<g><path style="opacity:1" fill="#bcb5b6" d="M 43.5,43.5 C 48.097,47.5237 47.4303,48.857 41.5,47.5C 42.6302,46.3777 43.2969,45.0443 43.5,43.5 Z"/></g>
<g><path style="opacity:1" fill="#d9d4cd" d="M 38.5,38.5 C 41.9103,38.3838 43.2436,40.0504 42.5,43.5C 40.8333,43.5 39.1667,43.5 37.5,43.5C 37.366,41.7085 37.6993,40.0418 38.5,38.5 Z"/></g>
<g><path style="opacity:1" fill="#d2cdc9" d="M 47.5,38.5 C 52.1972,39.8743 52.5305,41.8743 48.5,44.5C 45.025,42.9158 44.6917,40.9158 47.5,38.5 Z"/></g>
<g><path style="opacity:1" fill="#f5f7c3" d="M 51.5,70.5 C 53.9686,71.3171 56.6353,71.8171 59.5,72C 52.8417,72.4996 46.175,72.6663 39.5,72.5C 34.7863,72.8266 30.1196,72.4933 25.5,71.5C 26.0253,70.8076 26.6919,70.3076 27.5,70C 35.4834,70.0981 43.4834,70.2647 51.5,70.5 Z"/></g>
<g><path style="opacity:1" fill="#dfd6d3" d="M 51.5,70.5 C 54.5,70.5 57.5,70.5 60.5,70.5C 60.5,71.5 60.5,72.5 60.5,73.5C 53.3134,73.8245 46.3134,73.4912 39.5,72.5C 46.175,72.6663 52.8417,72.4996 59.5,72C 56.6353,71.8171 53.9686,71.3171 51.5,70.5 Z"/></g>
<g><path style="opacity:0.642" fill="#cbbeed" d="M 23.5,70.5 C 22.5773,74.0641 22.244,77.7307 22.5,81.5C 24.099,81.2322 25.4324,81.5655 26.5,82.5C 24.8333,82.5 23.1667,82.5 21.5,82.5C 20.9106,78.0293 21.5772,74.0293 23.5,70.5 Z"/></g>
<g><path style="opacity:1" fill="#b199d7" d="M 28.5,74.5 C 27.1667,74.5 25.8333,74.5 24.5,74.5C 24.5,76.5 24.5,78.5 24.5,80.5C 23.5318,78.3926 23.1984,76.0593 23.5,73.5C 25.4147,73.2155 27.0813,73.5489 28.5,74.5 Z"/></g>
<g><path style="opacity:1" fill="#e6e7c1" d="M 28.5,74.5 C 39.5041,74.7225 50.5041,75.0558 61.5,75.5C 61.5,77.8333 61.5,80.1667 61.5,82.5C 49.1642,81.8702 36.8309,81.2036 24.5,80.5C 24.5,78.5 24.5,76.5 24.5,74.5C 25.8333,74.5 27.1667,74.5 28.5,74.5 Z"/></g>
<g><path style="opacity:1" fill="#949091" d="M 67.5,72.5 C 68.5,72.5 69.5,72.5 70.5,72.5C 70.6621,74.5273 70.4955,76.5273 70,78.5C 68.2467,79.627 66.4134,80.627 64.5,81.5C 62.6639,77.4499 63.6639,74.4499 67.5,72.5 Z"/></g>
<g><path style="opacity:0.133" fill="#eee8f9" d="M 43.5,83.5 C 50.1908,83.4542 56.8574,83.7875 63.5,84.5C 56.7914,85.6186 50.1247,85.2853 43.5,83.5 Z"/></g>
</svg>
