<?xml version="1.0" encoding="UTF-8"?>
<!DOCTYPE svg PUBLIC "-//W3C//DTD SVG 1.1//EN" "http://www.w3.org/Graphics/SVG/1.1/DTD/svg11.dtd">
<svg xmlns="http://www.w3.org/2000/svg" version="1.1" width="96px" height="96px" style="shape-rendering:geometricPrecision; text-rendering:geometricPrecision; image-rendering:optimizeQuality; fill-rule:evenodd; clip-rule:evenodd" xmlns:xlink="http://www.w3.org/1999/xlink">
<g><path style="opacity:0.992" fill="#fefefc" d="M -0.5,-0.5 C 31.5,-0.5 63.5,-0.5 95.5,-0.5C 95.5,13.1667 95.5,26.8333 95.5,40.5C 88.4992,15.5369 71.8326,2.8702 45.5,2.5C 21.6272,4.41271 6.29385,16.746 -0.5,39.5C -0.5,26.1667 -0.5,12.8333 -0.5,-0.5 Z"/></g>
<g><path style="opacity:1" fill="#fac555" d="M 95.5,40.5 C 95.5,44.5 95.5,48.5 95.5,52.5C 87.5124,81.7001 68.1791,94.8668 37.5,92C 17.1817,86.5164 4.51506,73.683 -0.5,53.5C -0.5,48.8333 -0.5,44.1667 -0.5,39.5C 6.29385,16.746 21.6272,4.41271 45.5,2.5C 71.8326,2.8702 88.4992,15.5369 95.5,40.5 Z"/></g>
<g><path style="opacity:1" fill="#f3f0e6" d="M 37.5,14.5 C 49.068,13.1832 60.068,15.0165 70.5,20C 78.2306,24.6266 81.8973,31.46 81.5,40.5C 85.9866,40.8195 88.8199,43.1528 90,47.5C 90.456,52.9747 89.7893,58.308 88,63.5C 84.6882,67.8994 80.1882,69.7327 74.5,69C 56.4468,84.3257 38.4468,84.3257 20.5,69C 13.578,70.2329 8.74464,67.7329 6,61.5C 4.73755,56.2131 4.40422,50.8798 5,45.5C 7.06727,42.93 9.56727,40.93 12.5,39.5C 15.2192,25.4474 23.5525,17.1141 37.5,14.5 Z"/></g>
<g><path style="opacity:1" fill="#13191f" d="M 36.5,17.5 C 44.8802,17.2618 53.2135,17.7618 61.5,19C 72.4338,22.0427 78.2672,29.2093 79,40.5C 81.6667,42.5 84.3333,44.5 87,46.5C 88.1721,52.492 87.5054,58.1586 85,63.5C 81.3967,65.1283 77.5634,65.9616 73.5,66C 60.2104,77.6009 45.5437,79.6009 29.5,72C 26.8333,70 24.1667,68 21.5,66C 8.84217,65.583 4.34217,59.083 8,46.5C 10.4878,44.2567 13.1544,42.2567 16,40.5C 17.4161,27.9212 24.2494,20.2546 36.5,17.5 Z"/></g>
<g><path style="opacity:1" fill="#f3f4f4" d="M 32.5,27.5 C 37.4845,27.2569 42.3178,27.9235 47,29.5C 51.6899,27.7568 56.5233,27.2568 61.5,28C 68.9034,30.6389 71.7367,35.8056 70,43.5C 68.5183,45.9803 66.685,48.1469 64.5,50C 72.392,56.0397 72.392,62.373 64.5,69C 49.7417,77.7536 36.5751,75.9202 25,63.5C 23.0241,57.1666 24.8574,52.5 30.5,49.5C 25.0624,46.2862 23.229,41.6195 25,35.5C 27.0282,32.3078 29.5282,29.6411 32.5,27.5 Z"/></g>
<g><path style="opacity:1" fill="#13191e" d="M 57.5,36.5 C 59.4672,36.2606 61.3005,36.5939 63,37.5C 63.9285,41.2441 63.4285,44.7441 61.5,48C 58.7825,49.033 56.9492,48.1997 56,45.5C 55.068,42.1769 55.568,39.1769 57.5,36.5 Z"/></g>
<g><path style="opacity:1" fill="#151b20" d="M 33.5,35.5 C 38.6548,36.7968 40.4881,40.1301 39,45.5C 34.2822,49.8551 31.4489,48.6884 30.5,42C 30.8402,39.4887 31.8402,37.322 33.5,35.5 Z"/></g>
<g><path style="opacity:1" fill="#ecedee" d="M 15.5,46.5 C 17.9739,50.2677 19.3073,54.6011 19.5,59.5C 17.2776,59.822 15.4443,59.1554 14,57.5C 13.013,53.5252 13.513,49.8585 15.5,46.5 Z"/></g>
<g><path style="opacity:1" fill="#e4e6e6" d="M 77.5,46.5 C 81.004,46.7921 82.6707,48.7921 82.5,52.5C 82.4441,57.2229 80.1107,59.5562 75.5,59.5C 76.5853,55.2396 77.252,50.9062 77.5,46.5 Z"/></g>
<g><path style="opacity:1" fill="#181a1c" d="M 38.5,52.5 C 40.6648,52.1159 42.3315,52.7826 43.5,54.5C 40.8301,56.0897 39.1634,55.423 38.5,52.5 Z"/></g>
<g><path style="opacity:1" fill="#191b1e" d="M 50.5,52.5 C 51.8333,52.5 53.1667,52.5 54.5,52.5C 54.5,53.5 54.5,54.5 54.5,55.5C 53.1667,55.5 51.8333,55.5 50.5,55.5C 50.5,54.5 50.5,53.5 50.5,52.5 Z"/></g>
<g><path style="opacity:0.992" fill="#fefefb" d="M 95.5,52.5 C 95.5,66.8333 95.5,81.1667 95.5,95.5C 63.5,95.5 31.5,95.5 -0.5,95.5C -0.5,81.5 -0.5,67.5 -0.5,53.5C 4.51506,73.683 17.1817,86.5164 37.5,92C 68.1791,94.8668 87.5124,81.7001 95.5,52.5 Z"/></g>
<g><path style="opacity:1" fill="#1b1e21" d="M 29.5,58.5 C 35.4048,59.7961 41.4048,60.4628 47.5,60.5C 52.3148,60.6427 56.9815,59.976 61.5,58.5C 66.6021,59.146 67.6021,61.4793 64.5,65.5C 52.083,72.6984 40.2496,72.0318 29,63.5C 28.3603,61.735 28.5269,60.0683 29.5,58.5 Z"/></g>
<g><path style="opacity:1" fill="#e8e9e9" d="M 33.5,61.5 C 33.56,60.9569 33.8933,60.6236 34.5,60.5C 43.3066,63.1109 52.1399,63.1109 61,60.5C 62.2798,60.6135 63.1131,61.2801 63.5,62.5C 54.4109,69.4533 44.7442,70.2867 34.5,65C 38.0058,63.8594 37.6725,62.6928 33.5,61.5 Z"/></g>
</svg>
