<?xml version="1.0" encoding="UTF-8"?>
<!DOCTYPE svg PUBLIC "-//W3C//DTD SVG 1.1//EN" "http://www.w3.org/Graphics/SVG/1.1/DTD/svg11.dtd">
<svg xmlns="http://www.w3.org/2000/svg" version="1.1" width="96px" height="96px" style="shape-rendering:geometricPrecision; text-rendering:geometricPrecision; image-rendering:optimizeQuality; fill-rule:evenodd; clip-rule:evenodd" xmlns:xlink="http://www.w3.org/1999/xlink">
<g><path style="opacity:1" fill="#0a9ce2" d="M 39.5,0.5 C 67.7842,-0.610127 85.9509,12.3899 94,39.5C 95.2645,67.5763 82.4311,85.743 55.5,94C 27.4237,95.2645 9.25702,82.4311 1,55.5C -0.498094,27.1701 12.3352,8.83681 39.5,0.5 Z"/></g>
<g><path style="opacity:1" fill="#f6fbfd" d="M 77.5,26.5 C 79.7638,27.2186 82.0971,27.552 84.5,27.5C 82.8108,34.9238 80.8108,42.2572 78.5,49.5C 77.3112,50.4287 75.9778,50.762 74.5,50.5C 75.2392,42.47 76.2392,34.47 77.5,26.5 Z"/></g>
<g><path style="opacity:1" fill="#f9fcfe" d="M 16.5,32.5 C 32.3571,31.8487 38.5238,39.182 35,54.5C 30.6312,61.1467 24.4646,63.6467 16.5,62C 6.36152,55.9214 4.19486,47.7547 10,37.5C 12.3256,35.9343 14.4922,34.2676 16.5,32.5 Z"/></g>
<g><path style="opacity:1" fill="#fdfefe" d="M 39.5,33.5 C 43.1667,33.5 46.8333,33.5 50.5,33.5C 50.5,37.1667 50.5,40.8333 50.5,44.5C 52.4672,44.7394 54.3005,44.4061 56,43.5C 56.4983,40.1832 56.665,36.8499 56.5,33.5C 60.1667,33.5 63.8333,33.5 67.5,33.5C 67.5,42.8333 67.5,52.1667 67.5,61.5C 63.8333,61.5 60.1667,61.5 56.5,61.5C 56.665,58.1501 56.4983,54.8168 56,51.5C 54.3005,50.5939 52.4672,50.2606 50.5,50.5C 50.5,54.1667 50.5,57.8333 50.5,61.5C 46.8333,61.5 43.1667,61.5 39.5,61.5C 39.5,52.1667 39.5,42.8333 39.5,33.5 Z"/></g>
<g><path style="opacity:1" fill="#1497e0" d="M 19.5,43.5 C 25.704,43.3137 27.0374,45.8137 23.5,51C 17.4034,51.1475 16.0701,48.6475 19.5,43.5 Z"/></g>
<g><path style="opacity:1" fill="#f5fafd" d="M 72.5,53.5 C 79.004,53.1377 80.6707,55.6377 77.5,61C 70.745,61.7558 69.0783,59.2558 72.5,53.5 Z"/></g>
</svg>
