<?xml version="1.0" encoding="UTF-8"?>
<!DOCTYPE svg PUBLIC "-//W3C//DTD SVG 1.1//EN" "http://www.w3.org/Graphics/SVG/1.1/DTD/svg11.dtd">
<svg xmlns="http://www.w3.org/2000/svg" version="1.1" width="96px" height="96px" style="shape-rendering:geometricPrecision; text-rendering:geometricPrecision; image-rendering:optimizeQuality; fill-rule:evenodd; clip-rule:evenodd" xmlns:xlink="http://www.w3.org/1999/xlink">
<g><path style="opacity:0.564" fill="#109540" d="M 42.5,-0.5 C 45.8333,-0.5 49.1667,-0.5 52.5,-0.5C 58.9045,1.47534 65.2379,3.97534 71.5,7C 76.2856,9.61999 80.2856,13.12 83.5,17.5C 82.8333,18.1667 82.1667,18.8333 81.5,19.5C 66.0096,3.7563 48.0096,0.0896345 27.5,8.5C 26.1667,8.16667 24.8333,7.83333 23.5,7.5C 29.5351,4.04629 35.8685,1.37962 42.5,-0.5 Z"/></g>
<g><path style="opacity:1" fill="#020405" d="M 81.5,19.5 C 83.5,22.8333 85.5,26.1667 87.5,29.5C 88.696,32.4214 89.696,35.4214 90.5,38.5C 91.299,41.4299 91.6323,44.4299 91.5,47.5C 91.0912,51.8765 90.4245,56.2098 89.5,60.5C 87.5969,63.9789 85.9302,67.6456 84.5,71.5C 79.3633,78.3075 73.0299,83.6408 65.5,87.5C 52.6631,91.7925 39.9964,91.4592 27.5,86.5C 19.5,81.8333 13.1667,75.5 8.5,67.5C 7.14059,63.7474 5.80726,60.0808 4.5,56.5C 3.77052,51.8696 3.43718,47.2029 3.5,42.5C 4.76265,34.6987 7.76265,27.6987 12.5,21.5C 16.6144,16.0458 21.6144,11.7125 27.5,8.5C 48.0096,0.0896345 66.0096,3.7563 81.5,19.5 Z"/></g>
<g><path style="opacity:0.851" fill="#16924e" d="M 23.5,7.5 C 24.8333,7.83333 26.1667,8.16667 27.5,8.5C 21.6144,11.7125 16.6144,16.0458 12.5,21.5C 11.5,21.1667 10.8333,20.5 10.5,19.5C 13.533,14.1353 17.8663,10.1353 23.5,7.5 Z"/></g>
<g><path style="opacity:1" fill="#12ad49" d="M 51.5,11.5 C 51.6716,12.4916 51.3382,13.1583 50.5,13.5C 48.5009,8.22791 46.3342,8.22791 44,13.5C 43.5065,15.1341 43.3398,16.8008 43.5,18.5C 43.5,19.1667 43.1667,19.5 42.5,19.5C 41.5531,14.7775 42.8864,10.9442 46.5,8C 48.7715,8.0768 50.4382,9.24347 51.5,11.5 Z"/></g>
<g><path style="opacity:1" fill="#148e4b" d="M 35.5,14.5 C 38.7865,15.2729 40.2865,17.2729 40,20.5C 37.8733,18.8863 36.3733,16.8863 35.5,14.5 Z"/></g>
<g><path style="opacity:1" fill="#169c52" d="M 57.5,14.5 C 58.8699,16.7073 58.2032,18.374 55.5,19.5C 55.1667,19.1667 54.8333,18.8333 54.5,18.5C 55.5244,17.1482 56.5244,15.8149 57.5,14.5 Z"/></g>
<g><path style="opacity:1" fill="#07160c" d="M 50.5,13.5 C 50.9804,16.6852 50.3137,19.5185 48.5,22C 46.2028,21.8884 44.5361,20.7217 43.5,18.5C 43.3398,16.8008 43.5065,15.1341 44,13.5C 46.3342,8.22791 48.5009,8.22791 50.5,13.5 Z"/></g>
<g><path style="opacity:1" fill="#138d48" d="M 46.5,13.5 C 50.1212,14.7359 50.4546,16.7359 47.5,19.5C 45.261,17.8669 44.9277,15.8669 46.5,13.5 Z"/></g>
<g><path style="opacity:1" fill="#0a3b23" d="M 32.5,18.5 C 31.5386,20.2646 31.2053,22.2646 31.5,24.5C 30.2031,22.3066 30.2031,19.9732 31.5,17.5C 32.1067,17.6236 32.44,17.9569 32.5,18.5 Z"/></g>
<g><path style="opacity:0.724" fill="#1f8f63" d="M 83.5,17.5 C 85.9998,20.4937 87.9998,23.827 89.5,27.5C 88.8333,28.1667 88.1667,28.8333 87.5,29.5C 85.5,26.1667 83.5,22.8333 81.5,19.5C 82.1667,18.8333 82.8333,18.1667 83.5,17.5 Z"/></g>
<g><path style="opacity:1" fill="#0c1b15" d="M 41.5,31.5 C 41.1034,32.525 40.4368,32.6917 39.5,32C 36.6703,30.272 34.337,28.1053 32.5,25.5C 32.238,24.0222 32.5713,22.6888 33.5,21.5C 38.1067,23.4245 40.7734,26.7579 41.5,31.5 Z"/></g>
<g><path style="opacity:1" fill="#1f9965" d="M 32.5,18.5 C 36.5078,20.8457 39.8412,23.8457 42.5,27.5C 42.5,28.8333 42.5,30.1667 42.5,31.5C 42.1667,31.5 41.8333,31.5 41.5,31.5C 40.7734,26.7579 38.1067,23.4245 33.5,21.5C 32.5713,22.6888 32.238,24.0222 32.5,25.5C 32.1667,25.5 31.8333,25.5 31.5,25.5C 31.5,25.1667 31.5,24.8333 31.5,24.5C 31.2053,22.2646 31.5386,20.2646 32.5,18.5 Z"/></g>
<g><path style="opacity:1" fill="#199256" d="M 51.5,11.5 C 53.094,15.8846 52.4273,20.0513 49.5,24C 45.7786,24.7939 43.4453,23.2939 42.5,19.5C 43.1667,19.5 43.5,19.1667 43.5,18.5C 44.5361,20.7217 46.2028,21.8884 48.5,22C 50.3137,19.5185 50.9804,16.6852 50.5,13.5C 51.3382,13.1583 51.6716,12.4916 51.5,11.5 Z"/></g>
<g><path style="opacity:1" fill="#1d935f" d="M 57.5,31.5 C 57.5,31.1667 57.5,30.8333 57.5,30.5C 60.8529,28.4468 62.0196,25.4468 61,21.5C 57.5952,23.402 55.0952,26.0687 53.5,29.5C 52.6618,29.1583 52.3284,28.4916 52.5,27.5C 52.8588,25.629 53.8588,24.129 55.5,23C 58.2664,21.5331 60.7664,19.6998 63,17.5C 63.6667,20.5 63.6667,23.5 63,26.5C 61.9243,29.079 60.091,30.7457 57.5,31.5 Z"/></g>
<g><path style="opacity:1" fill="#1f8b64" d="M 34.5,24.5 C 37.3228,25.1476 38.8228,26.8142 39,29.5C 36.5852,28.5887 35.0852,26.922 34.5,24.5 Z"/></g>
<g><path style="opacity:1" fill="#081510" d="M 57.5,30.5 C 55.9826,30.5106 54.8159,31.1772 54,32.5C 53.5172,31.552 53.3505,30.552 53.5,29.5C 55.0952,26.0687 57.5952,23.402 61,21.5C 62.0196,25.4468 60.8529,28.4468 57.5,30.5 Z"/></g>
<g><path style="opacity:1" fill="#239f71" d="M 57.5,25.5 C 58.2389,25.369 58.9056,25.5357 59.5,26C 58.2343,27.9827 56.5676,28.9827 54.5,29C 55.7101,27.9609 56.7101,26.7942 57.5,25.5 Z"/></g>
<g><path style="opacity:1" fill="#1b7455" d="M 44.5,25.5 C 46.3566,28.0176 48.1899,28.0176 50,25.5C 48.5053,30.7998 46.6719,30.7998 44.5,25.5 Z"/></g>
<g><path style="opacity:0.637" fill="#288876" d="M 10.5,19.5 C 10.8333,20.5 11.5,21.1667 12.5,21.5C 7.76265,27.6987 4.76265,34.6987 3.5,42.5C 2.5,42.1667 1.83333,41.5 1.5,40.5C 2.07055,32.369 5.07055,25.369 10.5,19.5 Z"/></g>
<g><path style="opacity:1" fill="#25866f" d="M 37.5,38.5 C 36.391,38.4431 35.391,38.1098 34.5,37.5C 33.3135,34.6603 31.3135,32.4936 28.5,31C 24.1826,30.3035 23.516,31.4702 26.5,34.5C 25.8333,34.5 25.5,34.8333 25.5,35.5C 23.8518,33.5707 22.1851,31.5707 20.5,29.5C 23.1062,28.3483 25.7728,28.1816 28.5,29C 32.3802,31.3789 35.3802,34.5456 37.5,38.5 Z"/></g>
<g><path style="opacity:1" fill="#258c70" d="M 68.5,37.5 C 67.8333,37.5 67.5,37.1667 67.5,36.5C 68.7401,35.027 69.7401,33.3604 70.5,31.5C 67.0396,30.2253 64.3729,31.2253 62.5,34.5C 61.8333,34.5 61.5,34.1667 61.5,33.5C 64.988,28.8106 69.6547,27.3106 75.5,29C 72.5464,31.4412 70.2131,34.2745 68.5,37.5 Z"/></g>
<g><path style="opacity:1" fill="#2b947f" d="M 31.5,25.5 C 31.8333,25.5 32.1667,25.5 32.5,25.5C 34.337,28.1053 36.6703,30.272 39.5,32C 40.4368,32.6917 41.1034,32.525 41.5,31.5C 41.8333,31.5 42.1667,31.5 42.5,31.5C 42.8128,35.0419 42.4794,38.3752 41.5,41.5C 40.791,40.596 39.791,40.2627 38.5,40.5C 39.5,39.8333 40.5,39.1667 41.5,38.5C 41.6495,37.448 41.4828,36.448 41,35.5C 38,32.8333 35,30.1667 32,27.5C 31.5357,26.9056 31.369,26.2389 31.5,25.5 Z"/></g>
<g><path style="opacity:1" fill="#06110f" d="M 34.5,37.5 C 30.9657,39.2443 28.2991,38.2443 26.5,34.5C 23.516,31.4702 24.1826,30.3035 28.5,31C 31.3135,32.4936 33.3135,34.6603 34.5,37.5 Z"/></g>
<g><path style="opacity:1" fill="#195d4c" d="M 44.5,30.5 C 46.4995,31.6259 48.4995,31.7925 50.5,31C 47.9311,34.5094 45.9311,34.3428 44.5,30.5 Z"/></g>
<g><path style="opacity:1" fill="#288976" d="M 89.5,27.5 C 91.3999,30.5178 92.7333,33.8512 93.5,37.5C 92.609,38.1098 91.609,38.4431 90.5,38.5C 89.696,35.4214 88.696,32.4214 87.5,29.5C 88.1667,28.8333 88.8333,28.1667 89.5,27.5 Z"/></g>
<g><path style="opacity:1" fill="#071310" d="M 67.5,36.5 C 65.5043,38.3332 63.171,38.8332 60.5,38C 61.305,36.8873 61.9717,35.7206 62.5,34.5C 64.3729,31.2253 67.0396,30.2253 70.5,31.5C 69.7401,33.3604 68.7401,35.027 67.5,36.5 Z"/></g>
<g><path style="opacity:1" fill="#29887a" d="M 27.5,32.5 C 30.1526,33.1415 31.3193,34.8082 31,37.5C 29.1978,36.2107 28.0312,34.5441 27.5,32.5 Z"/></g>
<g><path style="opacity:1" fill="#298b7a" d="M 65.5,32.5 C 67.0281,32.5173 67.5281,33.184 67,34.5C 65.8867,36.3293 64.3867,37.1626 62.5,37C 63.8825,35.7292 64.8825,34.2292 65.5,32.5 Z"/></g>
<g><path style="opacity:1" fill="#237067" d="M 44.5,34.5 C 45.4822,35.1408 46.4822,35.8075 47.5,36.5C 48.1667,35.8333 48.8333,35.1667 49.5,34.5C 50.661,36.378 49.9944,37.378 47.5,37.5C 45.484,37.4841 44.484,36.4841 44.5,34.5 Z"/></g>
<g><path style="opacity:1" fill="#2a817b" d="M 52.5,27.5 C 52.3284,28.4916 52.6618,29.1583 53.5,29.5C 53.3505,30.552 53.5172,31.552 54,32.5C 54.8159,31.1772 55.9826,30.5106 57.5,30.5C 57.5,30.8333 57.5,31.1667 57.5,31.5C 55.2947,33.3634 53.9613,35.6967 53.5,38.5C 57.1999,38.4636 59.8665,36.7969 61.5,33.5C 61.5,34.1667 61.8333,34.5 62.5,34.5C 61.9717,35.7206 61.305,36.8873 60.5,38C 63.171,38.8332 65.5043,38.3332 67.5,36.5C 67.5,37.1667 67.8333,37.5 68.5,37.5C 67.3995,38.6049 66.7329,39.9382 66.5,41.5C 66.1667,41.5 65.8333,41.5 65.5,41.5C 63.3469,40.4271 61.3469,40.4271 59.5,41.5C 58.0387,40.3143 56.7054,40.3143 55.5,41.5C 54.391,41.5569 53.391,41.8902 52.5,42.5C 52.5,41.8333 52.1667,41.5 51.5,41.5C 51.1805,36.6367 51.5139,31.97 52.5,27.5 Z"/></g>
<g><path style="opacity:1" fill="#2e8284" d="M 26.5,34.5 C 28.2991,38.2443 30.9657,39.2443 34.5,37.5C 35.391,38.1098 36.391,38.4431 37.5,38.5C 38.8333,38.5 40.1667,38.5 41.5,38.5C 40.5,39.1667 39.5,39.8333 38.5,40.5C 37.391,40.5569 36.391,40.8902 35.5,41.5C 31.569,40.2906 28.569,41.624 26.5,45.5C 26.5,44.8333 26.1667,44.5 25.5,44.5C 26.4756,43.1851 27.4756,41.8518 28.5,40.5C 27.0476,39.0603 26.0476,37.3936 25.5,35.5C 25.5,34.8333 25.8333,34.5 26.5,34.5 Z"/></g>
<g><path style="opacity:1" fill="#2b797a" d="M 73.5,34.5 C 74.3764,34.3691 75.0431,34.7025 75.5,35.5C 74.3523,37.1487 73.019,38.6487 71.5,40C 72.6667,41.1667 73.8333,42.3333 75,43.5C 75.6877,44.3317 75.521,44.9984 74.5,45.5C 69.5812,42.2419 69.2479,38.5753 73.5,34.5 Z"/></g>
<g><path style="opacity:1" fill="#2d797f" d="M 19.5,34.5 C 23.7478,35.5882 25.2478,38.2548 24,42.5C 22.9805,43.6872 21.8139,44.6872 20.5,45.5C 19.479,44.9984 19.3123,44.3317 20,43.5C 21.1667,42.3333 22.3333,41.1667 23.5,40C 21.5359,38.549 20.2026,36.7157 19.5,34.5 Z"/></g>
<g><path style="opacity:1" fill="#2a7076" d="M 42.5,27.5 C 43.3267,32.6509 43.8267,37.9842 44,43.5C 46.1882,45.2552 46.0215,46.0885 43.5,46C 42.7334,44.5295 42.0668,43.0295 41.5,41.5C 42.4794,38.3752 42.8128,35.0419 42.5,31.5C 42.5,30.1667 42.5,28.8333 42.5,27.5 Z"/></g>
<g><path style="opacity:1" fill="#0c1618" d="M 65.5,41.5 C 66.9117,43.9801 68.5784,46.3134 70.5,48.5C 68.9255,49.6309 67.2588,49.7975 65.5,49C 62.9061,46.9135 60.9061,44.4135 59.5,41.5C 61.3469,40.4271 63.3469,40.4271 65.5,41.5 Z"/></g>
<g><path style="opacity:1" fill="#358094" d="M 38.5,43.5 C 40.0281,43.5173 40.5281,44.184 40,45.5C 34.6078,49.5433 34.1078,48.8766 38.5,43.5 Z"/></g>
<g><path style="opacity:1" fill="#38879c" d="M 54.5,43.5 C 57.1139,44.2635 58.2805,45.9302 58,48.5C 56.1978,47.2107 55.0312,45.5441 54.5,43.5 Z"/></g>
<g><path style="opacity:0.596" fill="#33818f" d="M 93.5,37.5 C 93.4021,39.5529 94.0687,41.2196 95.5,42.5C 95.5,44.1667 95.5,45.8333 95.5,47.5C 94.0357,48.4054 92.7024,48.4054 91.5,47.5C 91.6323,44.4299 91.299,41.4299 90.5,38.5C 91.609,38.4431 92.609,38.1098 93.5,37.5 Z"/></g>
<g><path style="opacity:1" fill="#0e181b" d="M 35.5,41.5 C 34.0939,44.4135 32.0939,46.9135 29.5,49C 24.8542,49.9938 23.8542,48.8272 26.5,45.5C 28.569,41.624 31.569,40.2906 35.5,41.5 Z"/></g>
<g><path style="opacity:1" fill="#358295" d="M 31.5,42.5 C 32.525,42.8966 32.6917,43.5632 32,44.5C 30.8867,46.3293 29.3867,47.1626 27.5,47C 28.7332,45.3333 30.0665,43.8333 31.5,42.5 Z"/></g>
<g><path style="opacity:1" fill="#3a86a2" d="M 51.5,41.5 C 52.1667,41.5 52.5,41.8333 52.5,42.5C 51.9432,45.0499 50.6099,47.0499 48.5,48.5C 46.5887,49.075 44.922,50.075 43.5,51.5C 43.1667,51.5 42.8333,51.5 42.5,51.5C 46.0935,48.8312 49.0935,45.4978 51.5,41.5 Z"/></g>
<g><path style="opacity:0.439" fill="#3a7b9e" d="M 1.5,40.5 C 1.83333,41.5 2.5,42.1667 3.5,42.5C 3.43718,47.2029 3.77052,51.8696 4.5,56.5C 3.5,56.5 2.5,56.5 1.5,56.5C 1.3404,54.847 0.673734,53.5137 -0.5,52.5C -0.5,49.1667 -0.5,45.8333 -0.5,42.5C 0.166667,41.8333 0.833333,41.1667 1.5,40.5 Z"/></g>
<g><path style="opacity:1" fill="#3f8cac" d="M 38.5,40.5 C 36.3609,44.1368 33.6942,47.3035 30.5,50C 27.5,50.6667 24.5,50.6667 21.5,50C 22.965,48.2258 24.2983,46.3925 25.5,44.5C 26.1667,44.5 26.5,44.8333 26.5,45.5C 23.8542,48.8272 24.8542,49.9938 29.5,49C 32.0939,46.9135 34.0939,44.4135 35.5,41.5C 36.391,40.8902 37.391,40.5569 38.5,40.5 Z"/></g>
<g><path style="opacity:1" fill="#3c8ca6" d="M 55.5,41.5 C 56.7054,40.3143 58.0387,40.3143 59.5,41.5C 60.9061,44.4135 62.9061,46.9135 65.5,49C 67.2588,49.7975 68.9255,49.6309 70.5,48.5C 68.5784,46.3134 66.9117,43.9801 65.5,41.5C 65.8333,41.5 66.1667,41.5 66.5,41.5C 68.969,44.1438 71.3024,46.9772 73.5,50C 66.5632,52.2196 61.7299,50.053 59,43.5C 58.1841,42.1772 57.0174,41.5106 55.5,41.5 Z"/></g>
<g><path style="opacity:1" fill="#347f90" d="M 62.5,42.5 C 64.6825,43.2997 66.3492,44.7997 67.5,47C 64.8142,46.8228 63.1476,45.3228 62.5,42.5 Z"/></g>
<g><path style="opacity:1" fill="#0f1a25" d="M 48.5,48.5 C 48.7496,49.9221 49.583,50.9221 51,51.5C 51.4955,53.4727 51.6621,55.4727 51.5,57.5C 50.1886,60.8114 47.8553,63.1448 44.5,64.5C 44.5,63.8333 44.5,63.1667 44.5,62.5C 45.7125,61.5029 45.5458,60.5029 44,59.5C 43.5026,56.854 43.3359,54.1873 43.5,51.5C 44.922,50.075 46.5887,49.075 48.5,48.5 Z"/></g>
<g><path style="opacity:1" fill="#3a719c" d="M 48.5,48.5 C 50.5922,48.5614 52.0922,49.5614 53,51.5C 53.7958,54.0385 53.6291,56.3718 52.5,58.5C 52.5,57.8333 52.1667,57.5 51.5,57.5C 51.6621,55.4727 51.4955,53.4727 51,51.5C 49.583,50.9221 48.7496,49.9221 48.5,48.5 Z"/></g>
<g><path style="opacity:1" fill="#4274b0" d="M 42.5,51.5 C 42.8333,51.5 43.1667,51.5 43.5,51.5C 43.3359,54.1873 43.5026,56.854 44,59.5C 45.5458,60.5029 45.7125,61.5029 44.5,62.5C 43.0337,61.653 42.2004,60.3197 42,58.5C 41.2042,55.9615 41.3709,53.6282 42.5,51.5 Z"/></g>
<g><path style="opacity:1" fill="#3d76a5" d="M 91.5,47.5 C 92.7024,48.4054 94.0357,48.4054 95.5,47.5C 95.5,49.1667 95.5,50.8333 95.5,52.5C 93.883,55.1888 92.883,58.1888 92.5,61.5C 91.609,60.8902 90.609,60.5569 89.5,60.5C 90.4245,56.2098 91.0912,51.8765 91.5,47.5 Z"/></g>
<g><path style="opacity:1" fill="#4e6fc8" d="M 51.5,57.5 C 52.1667,57.5 52.5,57.8333 52.5,58.5C 51.9432,61.0499 50.6099,63.0499 48.5,64.5C 46.629,64.8588 45.129,65.8588 44,67.5C 43.034,71.1177 43.534,74.451 45.5,77.5C 45.3764,78.1067 45.0431,78.44 44.5,78.5C 42.1716,76.8339 41.1716,74.5005 41.5,71.5C 41.1716,68.4995 42.1716,66.1661 44.5,64.5C 47.8553,63.1448 50.1886,60.8114 51.5,57.5 Z"/></g>
<g><path style="opacity:0.737" fill="#446eb4" d="M 1.5,56.5 C 2.5,56.5 3.5,56.5 4.5,56.5C 5.80726,60.0808 7.14059,63.7474 8.5,67.5C 7.60895,68.1098 6.60895,68.4431 5.5,68.5C 3.57152,64.7146 2.23819,60.7146 1.5,56.5 Z"/></g>
<g><path style="opacity:1" fill="#486ebe" d="M 89.5,60.5 C 90.609,60.5569 91.609,60.8902 92.5,61.5C 91.2604,65.6506 89.2604,69.3173 86.5,72.5C 85.8333,72.1667 85.1667,71.8333 84.5,71.5C 85.9302,67.6456 87.5969,63.9789 89.5,60.5 Z"/></g>
<g><path style="opacity:1" fill="#13172d" d="M 48.5,64.5 C 53.4755,71.3059 52.1422,76.6392 44.5,80.5C 44.5,79.8333 44.5,79.1667 44.5,78.5C 45.0431,78.44 45.3764,78.1067 45.5,77.5C 43.534,74.451 43.034,71.1177 44,67.5C 45.129,65.8588 46.629,64.8588 48.5,64.5 Z"/></g>
<g><path style="opacity:1" fill="#5a6adc" d="M 48.5,64.5 C 51.7916,65.3037 53.4583,67.4704 53.5,71C 53.2564,74.9903 51.5897,78.157 48.5,80.5C 45.1076,81.5641 43.1076,83.8975 42.5,87.5C 41.1436,84.5926 41.8103,82.2593 44.5,80.5C 52.1422,76.6392 53.4755,71.3059 48.5,64.5 Z"/></g>
<g><path style="opacity:1" fill="#575bd4" d="M 48.5,80.5 C 51.2584,80.9763 52.925,82.643 53.5,85.5C 53.2528,86.7133 52.5862,87.38 51.5,87.5C 51.7409,84.9664 50.7409,83.2998 48.5,82.5C 48.5,81.8333 48.5,81.1667 48.5,80.5 Z"/></g>
<g><path style="opacity:0.685" fill="#5563d9" d="M 8.5,67.5 C 13.1667,75.5 19.5,81.8333 27.5,86.5C 25.9731,86.427 24.9731,87.0937 24.5,88.5C 16.1139,83.7806 9.78058,77.114 5.5,68.5C 6.60895,68.4431 7.60895,68.1098 8.5,67.5 Z"/></g>
<g><path style="opacity:1" fill="#151637" d="M 48.5,82.5 C 50.7409,83.2998 51.7409,84.9664 51.5,87.5C 49.1667,87.5 46.8333,87.5 44.5,87.5C 44.3692,84.6333 45.7026,82.9666 48.5,82.5 Z"/></g>
<g><path style="opacity:0.461" fill="#5665dc" d="M 84.5,71.5 C 85.1667,71.8333 85.8333,72.1667 86.5,72.5C 82.776,79.8905 77.1093,85.2238 69.5,88.5C 68.1667,88.1667 66.8333,87.8333 65.5,87.5C 73.0299,83.6408 79.3633,78.3075 84.5,71.5 Z"/></g>
<g><path style="opacity:0.557" fill="#5a5de3" d="M 27.5,86.5 C 39.9964,91.4592 52.6631,91.7925 65.5,87.5C 66.8333,87.8333 68.1667,88.1667 69.5,88.5C 64.0479,91.4265 58.3812,93.7598 52.5,95.5C 49.1667,95.5 45.8333,95.5 42.5,95.5C 36.4404,93.5863 30.4404,91.2529 24.5,88.5C 24.9731,87.0937 25.9731,86.427 27.5,86.5 Z"/></g>
</svg>
