<?xml version="1.0" encoding="UTF-8"?>
<!DOCTYPE svg PUBLIC "-//W3C//DTD SVG 1.1//EN" "http://www.w3.org/Graphics/SVG/1.1/DTD/svg11.dtd">
<svg xmlns="http://www.w3.org/2000/svg" version="1.1" width="96px" height="96px" style="shape-rendering:geometricPrecision; text-rendering:geometricPrecision; image-rendering:optimizeQuality; fill-rule:evenodd; clip-rule:evenodd" xmlns:xlink="http://www.w3.org/1999/xlink">
<g><path style="opacity:0.815" fill="#fbfbfb" d="M 37.5,-0.5 C 44.1667,-0.5 50.8333,-0.5 57.5,-0.5C 77.1667,5.16667 89.8333,17.8333 95.5,37.5C 95.5,44.1667 95.5,50.8333 95.5,57.5C 89.8333,77.1667 77.1667,89.8333 57.5,95.5C 50.8333,95.5 44.1667,95.5 37.5,95.5C 17.8333,89.8333 5.16667,77.1667 -0.5,57.5C -0.5,50.8333 -0.5,44.1667 -0.5,37.5C 5.16667,17.8333 17.8333,5.16667 37.5,-0.5 Z"/></g>
<g><path style="opacity:1" fill="#eaeaea" d="M 39.5,2.5 C 48.7119,0.8691 57.7119,2.03577 66.5,6C 68.2425,11.2104 70.7425,16.3771 74,21.5C 80.2377,30.9661 86.2377,40.6328 92,50.5C 92.3939,61.0409 88.8939,70.0409 81.5,77.5C 76.9341,72.7879 73.4341,66.7879 71,59.5C 69.9593,61.3115 68.7927,61.6448 67.5,60.5C 79.4606,51.4507 81.6273,40.4507 74,27.5C 70.7043,23.4376 66.5377,20.7709 61.5,19.5C 61.1667,19.5 60.8333,19.5 60.5,19.5C 55.0247,18.5111 49.358,18.1778 43.5,18.5C 45.8766,17.1127 48.5432,16.2794 51.5,16C 48.7062,12.4591 46.3728,8.62576 44.5,4.5C 45.376,3.74917 46.376,3.24917 47.5,3C 44.854,2.50258 42.1873,2.33591 39.5,2.5 Z"/></g>
<g><path style="opacity:1" fill="#d1d2d2" d="M 39.5,2.5 C 42.1873,2.33591 44.854,2.50258 47.5,3C 46.376,3.24917 45.376,3.74917 44.5,4.5C 46.3728,8.62576 48.7062,12.4591 51.5,16C 48.5432,16.2794 45.8766,17.1127 43.5,18.5C 37.1667,18.5 30.8333,18.5 24.5,18.5C 24.915,15.632 23.915,13.4653 21.5,12C 22.999,11.1618 23.3324,10.3285 22.5,9.5C 27.5203,5.8205 33.187,3.48716 39.5,2.5 Z"/></g>
<g><path style="opacity:1" fill="#c3c2c2" d="M 22.5,9.5 C 23.3324,10.3285 22.999,11.1618 21.5,12C 23.915,13.4653 24.915,15.632 24.5,18.5C 24.2322,20.099 24.5655,21.4324 25.5,22.5C 27.1895,28.359 30.8561,32.5257 36.5,35C 44.0115,35.1712 51.3448,35.6712 58.5,36.5C 52.4908,36.3338 46.4908,36.5005 40.5,37C 44.211,37.1747 47.8776,37.6747 51.5,38.5C 52.373,40.4134 53.373,42.2467 54.5,44C 50.2467,44.1998 46.08,44.6998 42,45.5C 40.2302,44.7236 38.3969,44.8903 36.5,46C 37.0944,46.4643 37.7611,46.631 38.5,46.5C 38.1583,47.3382 37.4916,47.6716 36.5,47.5C 34.8333,48.1667 33.1667,48.8333 31.5,49.5C 25.6911,39.968 19.6911,29.968 13.5,19.5C 14.982,17.5171 16.6487,15.6837 18.5,14C 18.2716,13.6012 17.9382,13.4346 17.5,13.5C 18.5794,11.457 20.246,10.1237 22.5,9.5 Z"/></g>
<g><path style="opacity:1" fill="#bf4c48" d="M 24.5,18.5 C 30.8333,18.5 37.1667,18.5 43.5,18.5C 49.358,18.1778 55.0247,18.5111 60.5,19.5C 48.8333,19.5 37.1667,19.5 25.5,19.5C 25.5,20.5 25.5,21.5 25.5,22.5C 24.5655,21.4324 24.2322,20.099 24.5,18.5 Z"/></g>
<g><path style="opacity:1" fill="#b3b4b4" d="M 17.5,13.5 C 17.9382,13.4346 18.2716,13.6012 18.5,14C 16.6487,15.6837 14.982,17.5171 13.5,19.5C 19.6911,29.968 25.6911,39.968 31.5,49.5C 28.4827,52.1977 26.4827,55.5311 25.5,59.5C 24.5111,64.9753 24.1778,70.642 24.5,76.5C 23.6724,70.6807 23.1724,64.6807 23,58.5C 16.0095,48.4712 10.5095,38.1379 6.5,27.5C 9.21315,22.0682 12.8798,17.4015 17.5,13.5 Z"/></g>
<g><path style="opacity:1" fill="#d23432" d="M 61.5,19.5 C 66.5377,20.7709 70.7043,23.4376 74,27.5C 81.6273,40.4507 79.4606,51.4507 67.5,60.5C 66.8333,60.8333 66.1667,61.1667 65.5,61.5C 67.1524,59.529 68.3191,57.1956 69,54.5C 70.5087,48.6052 69.342,43.4385 65.5,39C 60.5591,35.161 54.8925,33.3277 48.5,33.5C 48.9423,29.0641 48.9423,24.7307 48.5,20.5C 53.0323,20.8182 57.3656,20.4849 61.5,19.5 Z"/></g>
<g><path style="opacity:1" fill="#d5dada" d="M 58.5,36.5 C 62.4734,39.5397 62.4734,42.7064 58.5,46C 51.8417,46.4996 45.175,46.6663 38.5,46.5C 37.7611,46.631 37.0944,46.4643 36.5,46C 38.3969,44.8903 40.2302,44.7236 42,45.5C 46.08,44.6998 50.2467,44.1998 54.5,44C 53.373,42.2467 52.373,40.4134 51.5,38.5C 47.8776,37.6747 44.211,37.1747 40.5,37C 46.4908,36.5005 52.4908,36.3338 58.5,36.5 Z"/></g>
<g><path style="opacity:1" fill="#a9a8a8" d="M 6.5,27.5 C 10.5095,38.1379 16.0095,48.4712 23,58.5C 23.1724,64.6807 23.6724,70.6807 24.5,76.5C 30.358,76.8222 36.0247,76.4889 41.5,75.5C 41.5,71.5 41.5,67.5 41.5,63.5C 46.8333,63.5 52.1667,63.5 57.5,63.5C 52.6946,64.4872 47.6946,64.8205 42.5,64.5C 42.3345,68.5138 42.5012,72.5138 43,76.5C 43.4935,74.8659 43.6602,73.1992 43.5,71.5C 47.2654,77.3218 50.932,83.3218 54.5,89.5C 56.2914,90.1698 57.9581,90.8365 59.5,91.5C 28.8618,96.3829 9.69512,83.7163 2,53.5C 0.633248,44.3084 2.13325,35.6418 6.5,27.5 Z"/></g>
<g><path style="opacity:1" fill="#b61e1a" d="M 60.5,19.5 C 60.8333,19.5 61.1667,19.5 61.5,19.5C 57.3656,20.4849 53.0323,20.8182 48.5,20.5C 48.9423,24.7307 48.9423,29.0641 48.5,33.5C 54.8925,33.3277 60.5591,35.161 65.5,39C 69.342,43.4385 70.5087,48.6052 69,54.5C 68.3191,57.1956 67.1524,59.529 65.5,61.5C 64.1667,61.8333 62.8333,62.1667 61.5,62.5C 54.825,62.6663 48.1583,62.4996 41.5,62C 44.095,61.7744 46.595,61.2744 49,60.5C 49.5273,56.354 50.694,52.5207 52.5,49C 46.9842,48.8267 41.6509,48.3267 36.5,47.5C 37.4916,47.6716 38.1583,47.3382 38.5,46.5C 45.175,46.6663 51.8417,46.4996 58.5,46C 62.4734,42.7064 62.4734,39.5397 58.5,36.5C 51.3448,35.6712 44.0115,35.1712 36.5,35C 30.8561,32.5257 27.1895,28.359 25.5,22.5C 25.5,21.5 25.5,20.5 25.5,19.5C 37.1667,19.5 48.8333,19.5 60.5,19.5 Z"/></g>
<g><path style="opacity:1" fill="#d0d1d1" d="M 81.5,77.5 C 78.401,81.9339 74.401,85.2672 69.5,87.5C 68.6868,86.3473 67.6868,86.3473 66.5,87.5C 61.7897,80.5826 57.4563,73.416 53.5,66C 50.1832,65.5017 46.8499,65.335 43.5,65.5C 43.5,67.5 43.5,69.5 43.5,71.5C 43.6602,73.1992 43.4935,74.8659 43,76.5C 42.5012,72.5138 42.3345,68.5138 42.5,64.5C 47.6946,64.8205 52.6946,64.4872 57.5,63.5C 59.099,63.7678 60.4324,63.4345 61.5,62.5C 62.8333,62.1667 64.1667,61.8333 65.5,61.5C 66.1667,61.1667 66.8333,60.8333 67.5,60.5C 68.7927,61.6448 69.9593,61.3115 71,59.5C 73.4341,66.7879 76.9341,72.7879 81.5,77.5 Z"/></g>
<g><path style="opacity:1" fill="#c2c2c2" d="M 69.5,87.5 C 66.3858,89.3908 63.0525,90.7241 59.5,91.5C 57.9581,90.8365 56.2914,90.1698 54.5,89.5C 50.932,83.3218 47.2654,77.3218 43.5,71.5C 43.5,69.5 43.5,67.5 43.5,65.5C 46.8499,65.335 50.1832,65.5017 53.5,66C 57.4563,73.416 61.7897,80.5826 66.5,87.5C 67.6868,86.3473 68.6868,86.3473 69.5,87.5 Z"/></g>
<g><path style="opacity:1" fill="#c52926" d="M 36.5,47.5 C 41.6509,48.3267 46.9842,48.8267 52.5,49C 50.694,52.5207 49.5273,56.354 49,60.5C 46.595,61.2744 44.095,61.7744 41.5,62C 48.1583,62.4996 54.825,62.6663 61.5,62.5C 60.4324,63.4345 59.099,63.7678 57.5,63.5C 52.1667,63.5 46.8333,63.5 41.5,63.5C 41.5,67.5 41.5,71.5 41.5,75.5C 36.1667,75.5 30.8333,75.5 25.5,75.5C 25.5,70.1667 25.5,64.8333 25.5,59.5C 26.4827,55.5311 28.4827,52.1977 31.5,49.5C 33.1667,48.8333 34.8333,48.1667 36.5,47.5 Z"/></g>
<g><path style="opacity:1" fill="#c74d4b" d="M 25.5,59.5 C 25.5,64.8333 25.5,70.1667 25.5,75.5C 30.8333,75.5 36.1667,75.5 41.5,75.5C 36.0247,76.4889 30.358,76.8222 24.5,76.5C 24.1778,70.642 24.5111,64.9753 25.5,59.5 Z"/></g>
</svg>
