<?xml version="1.0" encoding="UTF-8"?>
<!DOCTYPE svg PUBLIC "-//W3C//DTD SVG 1.1//EN" "http://www.w3.org/Graphics/SVG/1.1/DTD/svg11.dtd">
<svg xmlns="http://www.w3.org/2000/svg" version="1.1" width="96px" height="96px" style="shape-rendering:geometricPrecision; text-rendering:geometricPrecision; image-rendering:optimizeQuality; fill-rule:evenodd; clip-rule:evenodd" xmlns:xlink="http://www.w3.org/1999/xlink">
<g><path style="opacity:0.161" fill="#241c1f" d="M 51.5,-0.5 C 56.1667,-0.5 60.8333,-0.5 65.5,-0.5C 73.1152,5.31644 81.4485,10.1498 90.5,14C 92.0375,15.7073 93.7041,17.2073 95.5,18.5C 95.5,25.5 95.5,32.5 95.5,39.5C 93.2184,48.9546 92.885,58.6212 94.5,68.5C 93.8333,67.5 93.1667,66.5 92.5,65.5C 92.8016,62.9407 92.4682,60.6074 91.5,58.5C 92.0607,47.7995 93.0607,37.1328 94.5,26.5C 94.3333,24.1667 94.1667,21.8333 94,19.5C 93.2917,18.6195 92.4584,17.9528 91.5,17.5C 91.5,16.8333 91.1667,16.5 90.5,16.5C 84.8574,12.6751 78.8574,9.3418 72.5,6.5C 72.1667,6.5 71.8333,6.5 71.5,6.5C 69.5398,4.84371 67.5398,3.17704 65.5,1.5C 60.2197,0.338926 54.8864,0.338926 49.5,1.5C 47.8333,1.5 46.1667,1.5 44.5,1.5C 46.8333,0.833333 49.1667,0.166667 51.5,-0.5 Z"/></g>
<g><path style="opacity:1" fill="#9ccede" d="M 36.5,4.5 C 45.6645,3.10963 46.9978,4.7763 40.5,9.5C 32.1806,10.902 23.8473,10.7354 15.5,9C 16.5707,8.14825 17.5707,7.31491 18.5,6.5C 24.3943,5.04371 30.3943,4.37704 36.5,4.5 Z"/></g>
<g><path style="opacity:0.765" fill="#2d2d32" d="M 44.5,1.5 C 46.1667,1.5 47.8333,1.5 49.5,1.5C 45.1489,2.4076 40.8156,3.4076 36.5,4.5C 30.3943,4.37704 24.3943,5.04371 18.5,6.5C 16.5,6.5 14.5,6.5 12.5,6.5C 10.5,6.5 8.5,6.5 6.5,6.5C 19.0035,4.64307 31.6701,2.9764 44.5,1.5 Z"/></g>
<g><path style="opacity:1" fill="#a1cfdd" d="M 64.5,3.5 C 66.3818,4.22104 66.7152,5.22104 65.5,6.5C 64.7354,6.07658 63.9021,5.74325 63,5.5C 60.9264,8.07788 58.4264,10.0779 55.5,11.5C 52.2903,11.1061 49.6236,9.77273 47.5,7.5C 48.09,6.20108 49.09,5.36775 50.5,5C 53.8325,4.75121 56.9992,3.91787 60,2.5C 61.4397,3.14758 62.9397,3.48091 64.5,3.5 Z"/></g>
<g><path style="opacity:1" fill="#255b6e" d="M 65.5,1.5 C 67.5398,3.17704 69.5398,4.84371 71.5,6.5C 69.3888,7.74156 67.3888,7.74156 65.5,6.5C 66.7152,5.22104 66.3818,4.22104 64.5,3.5C 64.8333,2.83333 65.1667,2.16667 65.5,1.5 Z"/></g>
<g><path style="opacity:1" fill="#104859" d="M 6.5,7.5 C 6.5,7.16667 6.5,6.83333 6.5,6.5C 8.5,6.5 10.5,6.5 12.5,6.5C 10.882,7.45111 9.54868,8.78445 8.5,10.5C 8.85549,11.5223 9.52216,12.189 10.5,12.5C 11.5063,13.3957 11.5063,14.0623 10.5,14.5C 8.85228,13.1902 7.18561,11.8569 5.5,10.5C 6.5,9.66667 7.5,8.83333 8.5,8C 7.90558,7.53566 7.23891,7.36899 6.5,7.5 Z"/></g>
<g><path style="opacity:1" fill="#4ea0b9" d="M 12.5,6.5 C 14.5,6.5 16.5,6.5 18.5,6.5C 17.5707,7.31491 16.5707,8.14825 15.5,9C 23.8473,10.7354 32.1806,10.902 40.5,9.5C 44.2877,10.3848 47.9544,11.3848 51.5,12.5C 43.8483,11.6259 36.1816,11.4593 28.5,12C 26.5483,12.3661 24.8816,13.1995 23.5,14.5C 20.7699,13.1834 17.9365,13.1834 15,14.5C 13.951,12.8934 12.451,12.2267 10.5,12.5C 9.52216,12.189 8.85549,11.5223 8.5,10.5C 9.54868,8.78445 10.882,7.45111 12.5,6.5 Z"/></g>
<g><path style="opacity:1" fill="#5facc4" d="M 65.5,1.5 C 65.1667,2.16667 64.8333,2.83333 64.5,3.5C 62.9397,3.48091 61.4397,3.14758 60,2.5C 56.9992,3.91787 53.8325,4.75121 50.5,5C 49.09,5.36775 48.09,6.20108 47.5,7.5C 49.6236,9.77273 52.2903,11.1061 55.5,11.5C 58.4264,10.0779 60.9264,8.07788 63,5.5C 63.9021,5.74325 64.7354,6.07658 65.5,6.5C 67.3888,7.74156 69.3888,7.74156 71.5,6.5C 71.8333,6.5 72.1667,6.5 72.5,6.5C 72.3893,7.11742 72.056,7.61742 71.5,8C 73.0009,9.25152 74.6675,10.2515 76.5,11C 77.2524,11.6708 77.5858,12.5041 77.5,13.5C 70.5398,15.2326 63.8731,17.566 57.5,20.5C 57.5,21.1667 57.1667,21.5 56.5,21.5C 55.7375,20.7321 54.7375,20.2321 53.5,20C 56.0972,19.2208 56.0972,18.7208 53.5,18.5C 57.893,16.735 62.5597,15.5683 67.5,15C 68.2282,7.13026 65.8948,6.4636 60.5,13C 57.3059,14.9397 54.3059,14.773 51.5,12.5C 47.9544,11.3848 44.2877,10.3848 40.5,9.5C 46.9978,4.7763 45.6645,3.10963 36.5,4.5C 40.8156,3.4076 45.1489,2.4076 49.5,1.5C 54.8864,0.338926 60.2197,0.338926 65.5,1.5 Z"/></g>
<g><path style="opacity:1" fill="#4c95ad" d="M 72.5,6.5 C 78.8574,9.3418 84.8574,12.6751 90.5,16.5C 90.316,18.9248 89.6493,18.9248 88.5,16.5C 86.677,15.2528 84.677,14.5861 82.5,14.5C 80.9259,13.0719 79.2592,12.7386 77.5,13.5C 77.5858,12.5041 77.2524,11.6708 76.5,11C 74.6675,10.2515 73.0009,9.25152 71.5,8C 72.056,7.61742 72.3893,7.11742 72.5,6.5 Z"/></g>
<g><path style="opacity:1" fill="#094557" d="M 8.5,16.5 C 9.16667,17.5 9.83333,18.5 10.5,19.5C 8.28428,18.7974 6.45095,17.4641 5,15.5C 4.96797,18.3137 5.46797,20.9803 6.5,23.5C 6.5,24.8333 6.5,26.1667 6.5,27.5C 6.5,28.1667 6.16667,28.5 5.5,28.5C 5.5,28.1667 5.5,27.8333 5.5,27.5C 3.86559,23.3002 3.03225,18.9669 3,14.5C 5.52833,13.0659 7.36166,13.7325 8.5,16.5 Z"/></g>
<g><path style="opacity:1" fill="#b9eafb" d="M 53.5,18.5 C 49.1364,18.0944 44.8031,17.4277 40.5,16.5C 39.5,16.6667 38.5,16.8333 37.5,17C 38.9494,18.117 40.6161,18.7837 42.5,19C 37.3631,21.247 32.0298,21.9137 26.5,21C 25.1379,18.9656 24.1379,16.7989 23.5,14.5C 24.8816,13.1995 26.5483,12.3661 28.5,12C 36.1816,11.4593 43.8483,11.6259 51.5,12.5C 54.3059,14.773 57.3059,14.9397 60.5,13C 65.8948,6.4636 68.2282,7.13026 67.5,15C 62.5597,15.5683 57.893,16.735 53.5,18.5 Z"/></g>
<g><path style="opacity:1" fill="#49a2bf" d="M 6.5,7.5 C 7.23891,7.36899 7.90558,7.53566 8.5,8C 7.5,8.83333 6.5,9.66667 5.5,10.5C 7.18561,11.8569 8.85228,13.1902 10.5,14.5C 12.7686,15.9758 15.1019,17.4758 17.5,19C 14.5767,18.2242 11.5767,17.3908 8.5,16.5C 7.36166,13.7325 5.52833,13.0659 3,14.5C 3.03225,18.9669 3.86559,23.3002 5.5,27.5C 4.90962,29.9905 4.74296,32.6571 5,35.5C 3.93539,33.6037 3.10206,33.437 2.5,35C 2.98913,36.1385 3.32246,37.3052 3.5,38.5C 2.71003,39.6085 2.21003,40.9419 2,42.5C 1.50017,32.172 1.33351,21.8387 1.5,11.5C 2.58457,9.41311 4.25124,8.07978 6.5,7.5 Z"/></g>
<g><path style="opacity:1" fill="#2c6074" d="M 82.5,14.5 C 80.4352,14.5172 78.4352,14.8505 76.5,15.5C 74.597,15.7959 72.9303,16.4625 71.5,17.5C 69.901,17.2322 68.5676,17.5655 67.5,18.5C 64.1226,18.9595 60.7893,19.6261 57.5,20.5C 63.8731,17.566 70.5398,15.2326 77.5,13.5C 79.2592,12.7386 80.9259,13.0719 82.5,14.5 Z"/></g>
<g><path style="opacity:1" fill="#2a819a" d="M 10.5,12.5 C 12.451,12.2267 13.951,12.8934 15,14.5C 17.9365,13.1834 20.7699,13.1834 23.5,14.5C 21.5165,14.3832 19.8498,15.0499 18.5,16.5C 19.7161,17.0959 21.0494,17.2626 22.5,17C 22.1667,17.3333 21.8333,17.6667 21.5,18C 22.8333,19.3333 24.1667,20.6667 25.5,22C 24.944,22.3826 24.6107,22.8826 24.5,23.5C 23.8333,23.5 23.5,23.8333 23.5,24.5C 21.9582,23.6993 20.2915,23.366 18.5,23.5C 17.8333,23.5 17.1667,23.5 16.5,23.5C 16.8039,22.8501 17.1373,22.1835 17.5,21.5C 16.2643,20.6433 14.931,19.9766 13.5,19.5C 14.0437,21.0955 13.3771,22.4288 11.5,23.5C 11.5674,22.0413 11.2341,20.7079 10.5,19.5C 9.83333,18.5 9.16667,17.5 8.5,16.5C 11.5767,17.3908 14.5767,18.2242 17.5,19C 15.1019,17.4758 12.7686,15.9758 10.5,14.5C 11.5063,14.0623 11.5063,13.3957 10.5,12.5 Z"/></g>
<g><path style="opacity:1" fill="#4ea4c0" d="M 10.5,19.5 C 11.2341,20.7079 11.5674,22.0413 11.5,23.5C 9.83333,22.1667 8.16667,22.1667 6.5,23.5C 5.46797,20.9803 4.96797,18.3137 5,15.5C 6.45095,17.4641 8.28428,18.7974 10.5,19.5 Z"/></g>
<g><path style="opacity:1" fill="#5aa8c1" d="M 23.5,14.5 C 24.1379,16.7989 25.1379,18.9656 26.5,21C 32.0298,21.9137 37.3631,21.247 42.5,19C 40.6161,18.7837 38.9494,18.117 37.5,17C 38.5,16.8333 39.5,16.6667 40.5,16.5C 44.8031,17.4277 49.1364,18.0944 53.5,18.5C 56.0972,18.7208 56.0972,19.2208 53.5,20C 54.7375,20.2321 55.7375,20.7321 56.5,21.5C 53.302,22.7868 49.9686,23.4535 46.5,23.5C 46.0618,23.5654 45.7284,23.3988 45.5,23C 47.9351,21.9966 47.6018,21.4966 44.5,21.5C 40.2565,21.8672 36.2565,22.8672 32.5,24.5C 30.0521,23.5269 27.3854,23.1936 24.5,23.5C 24.6107,22.8826 24.944,22.3826 25.5,22C 24.1667,20.6667 22.8333,19.3333 21.5,18C 21.8333,17.6667 22.1667,17.3333 22.5,17C 21.0494,17.2626 19.7161,17.0959 18.5,16.5C 19.8498,15.0499 21.5165,14.3832 23.5,14.5 Z"/></g>
<g><path style="opacity:1" fill="#abdbe9" d="M 82.5,14.5 C 84.677,14.5861 86.677,15.2528 88.5,16.5C 89.6493,18.9248 90.316,18.9248 90.5,16.5C 91.1667,16.5 91.5,16.8333 91.5,17.5C 91.7373,18.791 91.404,19.791 90.5,20.5C 89.4525,24.8209 88.4525,29.8209 87.5,35.5C 86.6618,35.1583 86.3284,34.4916 86.5,33.5C 86.5,32.1667 86.5,30.8333 86.5,29.5C 85.5,29.5 84.5,29.5 83.5,29.5C 84.0914,25.0361 82.758,21.3695 79.5,18.5C 79.6107,17.8826 79.944,17.3826 80.5,17C 78.9419,16.79 77.6085,16.29 76.5,15.5C 78.4352,14.8505 80.4352,14.5172 82.5,14.5 Z"/></g>
<g><path style="opacity:1" fill="#98d2e6" d="M 46.5,23.5 C 44.1667,24.1667 41.8333,24.8333 39.5,25.5C 36.4299,25.3677 33.4299,25.701 30.5,26.5C 30.8333,25.5 31.5,24.8333 32.5,24.5C 36.2565,22.8672 40.2565,21.8672 44.5,21.5C 47.6018,21.4966 47.9351,21.9966 45.5,23C 45.7284,23.3988 46.0618,23.5654 46.5,23.5 Z"/></g>
<g><path style="opacity:1" fill="#b1e5f9" d="M 67.5,18.5 C 68.5676,17.5655 69.901,17.2322 71.5,17.5C 72.3913,25.0719 72.3913,32.7385 71.5,40.5C 70.6909,38.7078 70.1909,36.7078 70,34.5C 69.7105,36.9519 69.0438,39.2852 68,41.5C 66.2693,36.6664 65.2693,31.6664 65,26.5C 64.7216,27.4158 64.2216,28.0825 63.5,28.5C 63.719,27.325 63.3857,26.325 62.5,25.5C 58.7867,28.6834 54.7867,31.35 50.5,33.5C 50.1583,32.6618 49.4916,32.3284 48.5,32.5C 49.1667,31.8333 49.8333,31.1667 50.5,30.5C 50.8333,30.5 51.1667,30.5 51.5,30.5C 57.0219,27.161 62.6886,23.9943 68.5,21C 68.1164,20.0494 67.7831,19.2161 67.5,18.5 Z"/></g>
<g><path style="opacity:1" fill="#d4f2fb" d="M 67.5,18.5 C 67.7831,19.2161 68.1164,20.0494 68.5,21C 62.6886,23.9943 57.0219,27.161 51.5,30.5C 51.8678,27.9442 51.0345,25.9442 49,24.5C 45.8948,25.3672 42.7281,25.7006 39.5,25.5C 41.8333,24.8333 44.1667,24.1667 46.5,23.5C 49.9686,23.4535 53.302,22.7868 56.5,21.5C 57.1667,21.5 57.5,21.1667 57.5,20.5C 60.7893,19.6261 64.1226,18.9595 67.5,18.5 Z"/></g>
<g><path style="opacity:1" fill="#4da4c1" d="M 16.5,23.5 C 15.2524,25.6491 13.7524,27.6491 12,29.5C 11.5045,27.5273 11.3379,25.5273 11.5,23.5C 13.3771,22.4288 14.0437,21.0955 13.5,19.5C 14.931,19.9766 16.2643,20.6433 17.5,21.5C 17.1373,22.1835 16.8039,22.8501 16.5,23.5 Z"/></g>
<g><path style="opacity:1" fill="#055d74" d="M 23.5,24.5 C 23.5,23.8333 23.8333,23.5 24.5,23.5C 27.3854,23.1936 30.0521,23.5269 32.5,24.5C 31.5,24.8333 30.8333,25.5 30.5,26.5C 29.8826,26.6107 29.3826,26.944 29,27.5C 28.3897,30.8273 27.8897,34.1606 27.5,37.5C 26.6829,39.9686 26.1829,42.6353 26,45.5C 25.6667,38.8333 25.3333,32.1667 25,25.5C 24.6174,24.944 24.1174,24.6107 23.5,24.5 Z"/></g>
<g><path style="opacity:1" fill="#e9f8fd" d="M 51.5,30.5 C 51.1667,30.5 50.8333,30.5 50.5,30.5C 45.2374,30.1312 40.9041,31.9645 37.5,36C 36.552,36.4828 35.552,36.6495 34.5,36.5C 34.154,33.3979 34.8207,30.5645 36.5,28C 35.5,27.3333 34.5,27.3333 33.5,28C 32.8572,32.7838 32.1906,37.6171 31.5,42.5C 30.6143,41.675 30.281,40.675 30.5,39.5C 30.5,35.1667 30.5,30.8333 30.5,26.5C 33.4299,25.701 36.4299,25.3677 39.5,25.5C 42.7281,25.7006 45.8948,25.3672 49,24.5C 51.0345,25.9442 51.8678,27.9442 51.5,30.5 Z"/></g>
<g><path style="opacity:1" fill="#7ad2f4" d="M 11.5,23.5 C 11.3379,25.5273 11.5045,27.5273 12,29.5C 13.7524,27.6491 15.2524,25.6491 16.5,23.5C 17.1667,23.5 17.8333,23.5 18.5,23.5C 20.0594,29.1706 21.7261,34.8373 23.5,40.5C 23.8257,48.6841 23.4924,56.6841 22.5,64.5C 22.6664,56.16 22.4997,47.8267 22,39.5C 20.4113,35.9691 19.2446,32.3024 18.5,28.5C 17.0652,29.9469 16.0652,31.6136 15.5,33.5C 11.4131,33.072 8.41314,31.072 6.5,27.5C 6.5,26.1667 6.5,24.8333 6.5,23.5C 8.16667,22.1667 9.83333,22.1667 11.5,23.5 Z"/></g>
<g><path style="opacity:0.545" fill="#221213" d="M 6.5,6.5 C 6.5,6.83333 6.5,7.16667 6.5,7.5C 4.25124,8.07978 2.58457,9.41311 1.5,11.5C 0.50558,21.9869 0.172247,32.6536 0.5,43.5C 0.166667,43.5 -0.166667,43.5 -0.5,43.5C -0.5,32.5 -0.5,21.5 -0.5,10.5C 1.3634,8.29466 3.69673,6.96133 6.5,6.5 Z"/></g>
<g><path style="opacity:1" fill="#2e7d99" d="M 6.5,27.5 C 8.41314,31.072 11.4131,33.072 15.5,33.5C 16.6976,36.4262 17.6976,39.4262 18.5,42.5C 18.6641,45.1873 18.4974,47.854 18,50.5C 17.5065,48.8659 17.3398,47.1992 17.5,45.5C 17.5,44.5 17.5,43.5 17.5,42.5C 16.5,42.5 15.5,42.5 14.5,42.5C 14.6633,40.1432 14.4966,37.8098 14,35.5C 12.2663,34.7511 10.433,34.2511 8.5,34C 7.77715,31.9817 6.77715,30.1484 5.5,28.5C 6.16667,28.5 6.5,28.1667 6.5,27.5 Z"/></g>
<g><path style="opacity:1" fill="#76c2d8" d="M 90.5,20.5 C 91.5071,26.7975 91.5071,33.1308 90.5,39.5C 89.8333,43.5 89.1667,47.5 88.5,51.5C 88.7335,46.1053 88.4002,40.772 87.5,35.5C 88.4525,29.8209 89.4525,24.8209 90.5,20.5 Z"/></g>
<g><path style="opacity:1" fill="#def4fc" d="M 63.5,28.5 C 61.8921,31.3821 60.5587,34.3821 59.5,37.5C 56.1379,38.4127 52.4712,38.4127 48.5,37.5C 46.6171,37.8757 45.1171,38.8757 44,40.5C 43.6012,40.2716 43.4346,39.9382 43.5,39.5C 45.6471,37.2632 47.9804,35.2632 50.5,33.5C 54.7867,31.35 58.7867,28.6834 62.5,25.5C 63.3857,26.325 63.719,27.325 63.5,28.5 Z"/></g>
<g><path style="opacity:1" fill="#a3dff7" d="M 71.5,40.5 C 71.5,41.8333 71.5,43.1667 71.5,44.5C 70.2632,45.9649 69.2632,47.6316 68.5,49.5C 68.1667,49.5 67.8333,49.5 67.5,49.5C 67.6309,48.6236 67.2975,47.9569 66.5,47.5C 62.911,49.1171 59.911,48.4504 57.5,45.5C 54.7417,44.0335 55.075,43.3668 58.5,43.5C 59.5862,43.38 60.2528,42.7133 60.5,41.5C 60.1543,40.1508 59.821,38.8175 59.5,37.5C 60.5587,34.3821 61.8921,31.3821 63.5,28.5C 64.2216,28.0825 64.7216,27.4158 65,26.5C 65.2693,31.6664 66.2693,36.6664 68,41.5C 69.0438,39.2852 69.7105,36.9519 70,34.5C 70.1909,36.7078 70.6909,38.7078 71.5,40.5 Z"/></g>
<g><path style="opacity:1" fill="#28728a" d="M 78.5,19.5 C 79.51,22.8537 79.51,26.187 78.5,29.5C 81.0373,33.4199 82.0373,37.7533 81.5,42.5C 79.8934,44.7177 78.06,46.7177 76,48.5C 74.9701,48.1639 74.4701,47.4972 74.5,46.5C 77.1635,39.8528 77.1635,33.1861 74.5,26.5C 75.4704,23.8799 76.8037,21.5466 78.5,19.5 Z"/></g>
<g><path style="opacity:1" fill="#94d5ec" d="M 30.5,26.5 C 30.5,30.8333 30.5,35.1667 30.5,39.5C 29.7784,39.9175 29.2784,40.5842 29,41.5C 28.79,39.9419 28.29,38.6085 27.5,37.5C 27.8897,34.1606 28.3897,30.8273 29,27.5C 29.3826,26.944 29.8826,26.6107 30.5,26.5 Z"/></g>
<g><path style="opacity:1" fill="#ceeefa" d="M 59.5,37.5 C 59.821,38.8175 60.1543,40.1508 60.5,41.5C 60.2528,42.7133 59.5862,43.38 58.5,43.5C 54.8954,42.1329 51.2287,42.2996 47.5,44C 45.2121,46.7433 43.0455,49.5767 41,52.5C 40.3333,50.1667 40.3333,47.8333 41,45.5C 42.0192,43.4982 42.8525,41.4982 43.5,39.5C 43.4346,39.9382 43.6012,40.2716 44,40.5C 45.1171,38.8757 46.6171,37.8757 48.5,37.5C 52.4712,38.4127 56.1379,38.4127 59.5,37.5 Z"/></g>
<g><path style="opacity:1" fill="#cffafc" d="M 86.5,33.5 C 86.3284,34.4916 86.6618,35.1583 87.5,35.5C 88.4002,40.772 88.7335,46.1053 88.5,51.5C 88.8244,54.694 87.6578,55.694 85,54.5C 84.51,53.2068 84.3433,51.8734 84.5,50.5C 84.6185,45.6366 84.2852,40.8032 83.5,36C 83.4373,33.1226 84.4373,32.2892 86.5,33.5 Z"/></g>
<g><path style="opacity:1" fill="#72cdec" d="M 91.5,17.5 C 92.4584,17.9528 93.2917,18.6195 94,19.5C 94.1667,21.8333 94.3333,24.1667 94.5,26.5C 93.0607,37.1328 92.0607,47.7995 91.5,58.5C 90.4672,54.2272 90.1338,47.8939 90.5,39.5C 91.5071,33.1308 91.5071,26.7975 90.5,20.5C 91.404,19.791 91.7373,18.791 91.5,17.5 Z"/></g>
<g><path style="opacity:1" fill="#95d1e8" d="M 5.5,27.5 C 5.5,27.8333 5.5,28.1667 5.5,28.5C 6.77715,30.1484 7.77715,31.9817 8.5,34C 10.433,34.2511 12.2663,34.7511 14,35.5C 14.4966,37.8098 14.6633,40.1432 14.5,42.5C 15.5,42.5 16.5,42.5 17.5,42.5C 17.5,43.5 17.5,44.5 17.5,45.5C 13.8365,43.7982 11.0031,44.7982 9,48.5C 8.00417,51.9089 7.17084,55.2423 6.5,58.5C 4.99688,55.0057 5.33021,51.6724 7.5,48.5C 6.08338,45.1087 4.75004,41.7753 3.5,38.5C 3.32246,37.3052 2.98913,36.1385 2.5,35C 3.10206,33.437 3.93539,33.6037 5,35.5C 4.74296,32.6571 4.90962,29.9905 5.5,27.5 Z"/></g>
<g><path style="opacity:1" fill="#4ea6c3" d="M 76.5,15.5 C 77.6085,16.29 78.9419,16.79 80.5,17C 79.944,17.3826 79.6107,17.8826 79.5,18.5C 78.8333,18.5 78.5,18.8333 78.5,19.5C 76.8037,21.5466 75.4704,23.8799 74.5,26.5C 77.1635,33.1861 77.1635,39.8528 74.5,46.5C 73.7784,46.9175 73.2784,47.5842 73,48.5C 72.79,46.9419 72.29,45.6085 71.5,44.5C 71.5,43.1667 71.5,41.8333 71.5,40.5C 72.3913,32.7385 72.3913,25.0719 71.5,17.5C 72.9303,16.4625 74.597,15.7959 76.5,15.5 Z"/></g>
<g><path style="opacity:1" fill="#cbedf9" d="M 50.5,30.5 C 49.8333,31.1667 49.1667,31.8333 48.5,32.5C 43.5143,33.571 39.681,36.2377 37,40.5C 35.1814,46.0977 33.6814,51.7644 32.5,57.5C 32.5852,58.9953 31.9185,59.9953 30.5,60.5C 29.2538,56.0935 28.2538,51.7602 27.5,47.5C 27.5,44.1667 27.5,40.8333 27.5,37.5C 28.29,38.6085 28.79,39.9419 29,41.5C 29.2784,40.5842 29.7784,39.9175 30.5,39.5C 30.281,40.675 30.6143,41.675 31.5,42.5C 32.1906,37.6171 32.8572,32.7838 33.5,28C 34.5,27.3333 35.5,27.3333 36.5,28C 34.8207,30.5645 34.154,33.3979 34.5,36.5C 35.552,36.6495 36.552,36.4828 37.5,36C 40.9041,31.9645 45.2374,30.1312 50.5,30.5 Z"/></g>
<g><path style="opacity:1" fill="#a9e0f6" d="M 48.5,32.5 C 49.4916,32.3284 50.1583,32.6618 50.5,33.5C 47.9804,35.2632 45.6471,37.2632 43.5,39.5C 42.8525,41.4982 42.0192,43.4982 41,45.5C 40.3333,47.8333 40.3333,50.1667 41,52.5C 43.0455,49.5767 45.2121,46.7433 47.5,44C 51.2287,42.2996 54.8954,42.1329 58.5,43.5C 55.075,43.3668 54.7417,44.0335 57.5,45.5C 54.5214,46.3173 51.5214,47.1506 48.5,48C 46.7518,50.0129 45.4185,52.1795 44.5,54.5C 44.5654,54.0618 44.3988,53.7284 44,53.5C 43.6924,54.3081 43.1924,54.9747 42.5,55.5C 41.2798,54.2889 40.1131,54.2889 39,55.5C 38.0164,53.2053 37.1831,53.5386 36.5,56.5C 37.9798,57.1131 39.3131,57.4464 40.5,57.5C 38.9023,61.1264 37.4023,64.7931 36,68.5C 35.3333,64.5 34.6667,60.5 34,56.5C 33.6174,57.056 33.1174,57.3893 32.5,57.5C 33.6814,51.7644 35.1814,46.0977 37,40.5C 39.681,36.2377 43.5143,33.571 48.5,32.5 Z"/></g>
<g><path style="opacity:1" fill="#c3e9f8" d="M 57.5,45.5 C 59.911,48.4504 62.911,49.1171 66.5,47.5C 67.2975,47.9569 67.6309,48.6236 67.5,49.5C 65.0381,52.4639 62.3714,55.2972 59.5,58C 55.6192,59.1901 51.6192,59.8568 47.5,60C 44.4044,62.0287 42.7377,64.862 42.5,68.5C 41.6091,71.7781 40.7758,75.1114 40,78.5C 39.5026,75.854 39.3359,73.1873 39.5,70.5C 40.7285,65.1414 42.3952,59.8081 44.5,54.5C 45.4185,52.1795 46.7518,50.0129 48.5,48C 51.5214,47.1506 54.5214,46.3173 57.5,45.5 Z"/></g>
<g><path style="opacity:1" fill="#3593b3" d="M 18.5,23.5 C 20.2915,23.366 21.9582,23.6993 23.5,24.5C 24.1174,24.6107 24.6174,24.944 25,25.5C 25.3333,32.1667 25.6667,38.8333 26,45.5C 26.1829,42.6353 26.6829,39.9686 27.5,37.5C 27.5,40.8333 27.5,44.1667 27.5,47.5C 27.8483,53.9896 27.1817,60.3229 25.5,66.5C 25.1667,66.5 24.8333,66.5 24.5,66.5C 24.8264,57.6506 24.493,48.9839 23.5,40.5C 21.7261,34.8373 20.0594,29.1706 18.5,23.5 Z"/></g>
<g><path style="opacity:1" fill="#88c3d6" d="M 79.5,18.5 C 82.758,21.3695 84.0914,25.0361 83.5,29.5C 84.5,29.5 85.5,29.5 86.5,29.5C 86.5,30.8333 86.5,32.1667 86.5,33.5C 84.4373,32.2892 83.4373,33.1226 83.5,36C 84.2852,40.8032 84.6185,45.6366 84.5,50.5C 83.0221,51.4475 82.0221,52.7809 81.5,54.5C 80.8688,52.5522 79.8688,50.7189 78.5,49C 80.9193,47.4912 81.9193,45.3245 81.5,42.5C 82.0373,37.7533 81.0373,33.4199 78.5,29.5C 79.51,26.187 79.51,22.8537 78.5,19.5C 78.5,18.8333 78.8333,18.5 79.5,18.5 Z"/></g>
<g><path style="opacity:1" fill="#3a9bbc" d="M 81.5,42.5 C 81.9193,45.3245 80.9193,47.4912 78.5,49C 79.8688,50.7189 80.8688,52.5522 81.5,54.5C 82.038,56.1172 82.3713,57.7839 82.5,59.5C 79.9066,60.7536 77.5732,62.4202 75.5,64.5C 73.6838,62.8634 71.6838,61.3634 69.5,60C 68.2506,59.2599 67.2506,59.4265 66.5,60.5C 65.5041,60.4142 64.6708,60.7476 64,61.5C 62.4336,66.2451 59.2669,68.9118 54.5,69.5C 54.3505,68.448 54.5172,67.448 55,66.5C 58,64.1667 61,61.8333 64,59.5C 65.2545,55.996 66.7545,52.6626 68.5,49.5C 69.2632,47.6316 70.2632,45.9649 71.5,44.5C 72.29,45.6085 72.79,46.9419 73,48.5C 73.2784,47.5842 73.7784,46.9175 74.5,46.5C 74.4701,47.4972 74.9701,48.1639 76,48.5C 78.06,46.7177 79.8934,44.7177 81.5,42.5 Z"/></g>
<g><path style="opacity:1" fill="#55beea" d="M 18.5,42.5 C 19.1174,42.6107 19.6174,42.944 20,43.5C 20.7907,47.9255 20.4573,52.2589 19,56.5C 18.586,56.9574 18.086,57.2907 17.5,57.5C 17.1626,53.693 15.8293,50.3597 13.5,47.5C 12.5344,49.396 12.2011,51.396 12.5,53.5C 11.4138,53.62 10.7472,54.2867 10.5,55.5C 11.3022,58.4486 11.6355,61.4486 11.5,64.5C 7.5149,64.5601 5.84823,62.5601 6.5,58.5C 7.17084,55.2423 8.00417,51.9089 9,48.5C 11.0031,44.7982 13.8365,43.7982 17.5,45.5C 17.3398,47.1992 17.5065,48.8659 18,50.5C 18.4974,47.854 18.6641,45.1873 18.5,42.5 Z"/></g>
<g><path style="opacity:1" fill="#227997" d="M 1.5,11.5 C 1.33351,21.8387 1.50017,32.172 2,42.5C 2.21003,40.9419 2.71003,39.6085 3.5,38.5C 4.75004,41.7753 6.08338,45.1087 7.5,48.5C 5.33021,51.6724 4.99688,55.0057 6.5,58.5C 5.84823,62.5601 7.5149,64.5601 11.5,64.5C 12.1667,64.5 12.5,64.8333 12.5,65.5C 11.1667,65.5 9.83333,65.5 8.5,65.5C 8.73586,68.6085 8.40252,71.6085 7.5,74.5C 5.95819,73.6993 4.29152,73.366 2.5,73.5C 2.5,72.1667 1.83333,71.5 0.5,71.5C 0.785497,61.9786 0.785497,52.6453 0.5,43.5C 0.172247,32.6536 0.50558,21.9869 1.5,11.5 Z"/></g>
<g><path style="opacity:1" fill="#2091b3" d="M 90.5,39.5 C 90.1338,47.8939 90.4672,54.2272 91.5,58.5C 92.4682,60.6074 92.8016,62.9407 92.5,65.5C 93.1995,69.7978 93.5328,74.1311 93.5,78.5C 92.9202,80.7488 91.5869,82.4154 89.5,83.5C 89.0618,83.5654 88.7284,83.3988 88.5,83C 91.4285,79.7428 92.2618,75.9094 91,71.5C 88.2043,70.3213 85.3709,70.3213 82.5,71.5C 83.9899,69.7202 85.9899,69.0535 88.5,69.5C 88.4452,66.3855 87.1119,64.0522 84.5,62.5C 84.573,60.9731 83.9063,59.9731 82.5,59.5C 82.3713,57.7839 82.038,56.1172 81.5,54.5C 82.0221,52.7809 83.0221,51.4475 84.5,50.5C 84.3433,51.8734 84.51,53.2068 85,54.5C 87.6578,55.694 88.8244,54.694 88.5,51.5C 89.1667,47.5 89.8333,43.5 90.5,39.5 Z"/></g>
<g><path style="opacity:1" fill="#b3e3f6" d="M 22.5,64.5 C 22.3646,67.3721 21.0312,68.8721 18.5,69C 16.2684,64.2126 14.2684,59.3793 12.5,54.5C 12.5,54.1667 12.5,53.8333 12.5,53.5C 12.2011,51.396 12.5344,49.396 13.5,47.5C 15.8293,50.3597 17.1626,53.693 17.5,57.5C 18.086,57.2907 18.586,56.9574 19,56.5C 20.4573,52.2589 20.7907,47.9255 20,43.5C 19.6174,42.944 19.1174,42.6107 18.5,42.5C 17.6976,39.4262 16.6976,36.4262 15.5,33.5C 16.0652,31.6136 17.0652,29.9469 18.5,28.5C 19.2446,32.3024 20.4113,35.9691 22,39.5C 22.4997,47.8267 22.6664,56.16 22.5,64.5 Z"/></g>
<g><path style="opacity:1" fill="#90d5f1" d="M 67.5,49.5 C 67.8333,49.5 68.1667,49.5 68.5,49.5C 66.7545,52.6626 65.2545,55.996 64,59.5C 61,61.8333 58,64.1667 55,66.5C 54.5172,67.448 54.3505,68.448 54.5,69.5C 59.2669,68.9118 62.4336,66.2451 64,61.5C 64.6708,60.7476 65.5041,60.4142 66.5,60.5C 67.2389,60.369 67.9056,60.5357 68.5,61C 67.2264,61.9772 67.2264,62.8106 68.5,63.5C 68.5,64.1667 68.5,64.8333 68.5,65.5C 67.8049,68.2802 66.8049,70.9469 65.5,73.5C 63.7041,74.7927 62.0375,76.2927 60.5,78C 58.9751,79.0086 57.3084,79.5086 55.5,79.5C 55.0618,79.5654 54.7284,79.3988 54.5,79C 58.375,77.6532 58.375,76.4865 54.5,75.5C 55.9189,73.8734 55.5856,73.3734 53.5,74C 52.3333,77.1667 50.8333,77.3333 49,74.5C 49.1078,70.8432 49.1078,67.1765 49,63.5C 47.8261,67.5348 46.6594,71.5348 45.5,75.5C 44.4848,74.5398 44.4848,73.3731 45.5,72C 44.6293,70.6362 43.6293,69.4695 42.5,68.5C 42.7377,64.862 44.4044,62.0287 47.5,60C 51.6192,59.8568 55.6192,59.1901 59.5,58C 62.3714,55.2972 65.0381,52.4639 67.5,49.5 Z"/></g>
<g><path style="opacity:1" fill="#93d6f1" d="M 27.5,47.5 C 28.2538,51.7602 29.2538,56.0935 30.5,60.5C 31.9185,59.9953 32.5852,58.9953 32.5,57.5C 33.1174,57.3893 33.6174,57.056 34,56.5C 34.6667,60.5 35.3333,64.5 36,68.5C 37.4023,64.7931 38.9023,61.1264 40.5,57.5C 39.3131,57.4464 37.9798,57.1131 36.5,56.5C 37.1831,53.5386 38.0164,53.2053 39,55.5C 40.1131,54.2889 41.2798,54.2889 42.5,55.5C 43.1924,54.9747 43.6924,54.3081 44,53.5C 44.3988,53.7284 44.5654,54.0618 44.5,54.5C 42.3952,59.8081 40.7285,65.1414 39.5,70.5C 38.5826,70.4936 38.0826,71.4936 38,73.5C 37.6667,72.1667 37.3333,70.8333 37,69.5C 36.8184,72.2263 36.3184,74.8929 35.5,77.5C 34.7492,76.624 34.2492,75.624 34,74.5C 33.6012,74.7284 33.4346,75.0618 33.5,75.5C 31.4672,74.1016 30.4672,72.1016 30.5,69.5C 33.597,60.8617 32.597,60.3617 27.5,68C 28.1614,71.1368 29.4948,73.9701 31.5,76.5C 31.0576,77.7387 30.3909,78.7387 29.5,79.5C 28.4261,76.3549 27.0927,73.3549 25.5,70.5C 25.5,69.1667 25.5,67.8333 25.5,66.5C 27.1817,60.3229 27.8483,53.9896 27.5,47.5 Z"/></g>
<g><path style="opacity:1" fill="#d1f7fa" d="M 82.5,59.5 C 83.9063,59.9731 84.573,60.9731 84.5,62.5C 80.7759,63.122 77.9425,65.122 76,68.5C 75.51,67.2068 75.3433,65.8734 75.5,64.5C 77.5732,62.4202 79.9066,60.7536 82.5,59.5 Z"/></g>
<g><path style="opacity:1" fill="#22667d" d="M 68.5,65.5 C 68.5,64.8333 68.5,64.1667 68.5,63.5C 68.4346,63.0618 68.6012,62.7284 69,62.5C 70.0458,64.0905 71.2125,65.5905 72.5,67C 70.9343,67.2997 69.601,66.7997 68.5,65.5 Z"/></g>
<g><path style="opacity:1" fill="#7cbed5" d="M 66.5,60.5 C 67.2506,59.4265 68.2506,59.2599 69.5,60C 71.6838,61.3634 73.6838,62.8634 75.5,64.5C 75.3433,65.8734 75.51,67.2068 76,68.5C 77.9425,65.122 80.7759,63.122 84.5,62.5C 87.1119,64.0522 88.4452,66.3855 88.5,69.5C 85.9899,69.0535 83.9899,69.7202 82.5,71.5C 80.3523,71.3894 80.019,72.056 81.5,73.5C 80.8118,74.8549 79.8118,75.8549 78.5,76.5C 77.1762,74.3459 75.3429,72.6793 73,71.5C 70.5034,72.2489 68.0034,72.9155 65.5,73.5C 66.8049,70.9469 67.8049,68.2802 68.5,65.5C 69.601,66.7997 70.9343,67.2997 72.5,67C 71.2125,65.5905 70.0458,64.0905 69,62.5C 68.6012,62.7284 68.4346,63.0618 68.5,63.5C 67.2264,62.8106 67.2264,61.9772 68.5,61C 67.9056,60.5357 67.2389,60.369 66.5,60.5 Z"/></g>
<g><path style="opacity:1" fill="#86d0ee" d="M 42.5,68.5 C 43.6293,69.4695 44.6293,70.6362 45.5,72C 44.4848,73.3731 44.4848,74.5398 45.5,75.5C 44.1667,77.1667 42.8333,78.8333 41.5,80.5C 39.5372,81.9599 37.7038,83.6266 36,85.5C 35.6667,85.1667 35.3333,84.8333 35,84.5C 34.5172,85.448 34.3505,86.448 34.5,87.5C 33.5166,83.7016 33.1832,79.7016 33.5,75.5C 33.4346,75.0618 33.6012,74.7284 34,74.5C 34.2492,75.624 34.7492,76.624 35.5,77.5C 36.3184,74.8929 36.8184,72.2263 37,69.5C 37.3333,70.8333 37.6667,72.1667 38,73.5C 38.0826,71.4936 38.5826,70.4936 39.5,70.5C 39.3359,73.1873 39.5026,75.854 40,78.5C 40.7758,75.1114 41.6091,71.7781 42.5,68.5 Z"/></g>
<g><path style="opacity:1" fill="#0d5e75" d="M 89.5,83.5 C 88.1667,84.1667 86.8333,84.8333 85.5,85.5C 81.1667,85.5 76.8333,85.5 72.5,85.5C 71.7261,84.8529 70.7261,84.5195 69.5,84.5C 66.4877,85.1722 63.4877,85.8389 60.5,86.5C 59.5613,85.6726 59.8946,85.0059 61.5,84.5C 63.6279,82.5975 65.9613,80.9308 68.5,79.5C 69.4776,79.9767 70.3109,80.6433 71,81.5C 73.2728,79.3718 75.7728,77.7051 78.5,76.5C 79.8118,75.8549 80.8118,74.8549 81.5,73.5C 80.019,72.056 80.3523,71.3894 82.5,71.5C 85.3709,70.3213 88.2043,70.3213 91,71.5C 92.2618,75.9094 91.4285,79.7428 88.5,83C 88.7284,83.3988 89.0618,83.5654 89.5,83.5 Z"/></g>
<g><path style="opacity:1" fill="#29363f" d="M 92.5,65.5 C 93.1667,66.5 93.8333,67.5 94.5,68.5C 94.5,69.8333 94.5,71.1667 94.5,72.5C 94.7947,74.7354 94.4614,76.7354 93.5,78.5C 93.5328,74.1311 93.1995,69.7978 92.5,65.5 Z"/></g>
<g><path style="opacity:1" fill="#015d75" d="M 12.5,65.5 C 13.6336,69.7658 15.8003,73.4325 19,76.5C 19.49,77.7932 19.6567,79.1266 19.5,80.5C 18.1779,80.67 17.0113,80.3366 16,79.5C 15.5052,73.8366 12.6718,72.1699 7.5,74.5C 8.40252,71.6085 8.73586,68.6085 8.5,65.5C 9.83333,65.5 11.1667,65.5 12.5,65.5 Z"/></g>
<g><path style="opacity:1" fill="#3ab1e3" d="M 23.5,40.5 C 24.493,48.9839 24.8264,57.6506 24.5,66.5C 23.6631,72.477 23.4965,78.477 24,84.5C 21.4294,81.0926 20.4294,77.426 21,73.5C 14.3976,68.8618 11.5643,62.5284 12.5,54.5C 14.2684,59.3793 16.2684,64.2126 18.5,69C 21.0312,68.8721 22.3646,67.3721 22.5,64.5C 23.4924,56.6841 23.8257,48.6841 23.5,40.5 Z"/></g>
<g><path style="opacity:1" fill="#3a96b5" d="M 78.5,76.5 C 75.7728,77.7051 73.2728,79.3718 71,81.5C 70.3109,80.6433 69.4776,79.9767 68.5,79.5C 65.9613,80.9308 63.6279,82.5975 61.5,84.5C 60.158,83.207 58.4913,82.3736 56.5,82C 55.7476,81.3292 55.4142,80.4959 55.5,79.5C 57.3084,79.5086 58.9751,79.0086 60.5,78C 62.0375,76.2927 63.7041,74.7927 65.5,73.5C 68.0034,72.9155 70.5034,72.2489 73,71.5C 75.3429,72.6793 77.1762,74.3459 78.5,76.5 Z"/></g>
<g><path style="opacity:1" fill="#2aa8db" d="M 0.5,71.5 C 1.83333,71.5 2.5,72.1667 2.5,73.5C 6.71508,77.1948 11.3817,80.3614 16.5,83C 17.7383,83.69 17.7383,84.19 16.5,84.5C 11.8673,82.5171 7.534,80.0171 3.5,77C 1.83997,75.5123 0.839973,73.679 0.5,71.5 Z"/></g>
<g><path style="opacity:1" fill="#1888af" d="M 12.5,53.5 C 12.5,53.8333 12.5,54.1667 12.5,54.5C 11.5643,62.5284 14.3976,68.8618 21,73.5C 20.4294,77.426 21.4294,81.0926 24,84.5C 23.4965,78.477 23.6631,72.477 24.5,66.5C 24.8333,66.5 25.1667,66.5 25.5,66.5C 25.5,67.8333 25.5,69.1667 25.5,70.5C 25.801,76.5112 26.301,82.5112 27,88.5C 27.3826,89.056 27.8826,89.3893 28.5,89.5C 29.5,90.1667 30.5,90.8333 31.5,91.5C 30.7494,92.5735 29.7494,92.7401 28.5,92C 25.0673,88.9578 22.234,85.4578 20,81.5C 20.5948,83.3502 21.0948,85.3502 21.5,87.5C 19.5659,86.8897 17.8993,85.8897 16.5,84.5C 17.7383,84.19 17.7383,83.69 16.5,83C 11.3817,80.3614 6.71508,77.1948 2.5,73.5C 4.29152,73.366 5.95819,73.6993 7.5,74.5C 12.6718,72.1699 15.5052,73.8366 16,79.5C 17.0113,80.3366 18.1779,80.67 19.5,80.5C 19.6567,79.1266 19.49,77.7932 19,76.5C 15.8003,73.4325 13.6336,69.7658 12.5,65.5C 12.5,64.8333 12.1667,64.5 11.5,64.5C 11.6355,61.4486 11.3022,58.4486 10.5,55.5C 10.7472,54.2867 11.4138,53.62 12.5,53.5 Z"/></g>
<g><path style="opacity:1" fill="#ebfafd" d="M 33.5,75.5 C 33.1832,79.7016 33.5166,83.7016 34.5,87.5C 32.8466,88.7994 31.3466,88.4661 30,86.5C 29.5045,84.5273 29.3379,82.5273 29.5,80.5C 29.5,80.1667 29.5,79.8333 29.5,79.5C 30.3909,78.7387 31.0576,77.7387 31.5,76.5C 29.4948,73.9701 28.1614,71.1368 27.5,68C 32.597,60.3617 33.597,60.8617 30.5,69.5C 30.4672,72.1016 31.4672,74.1016 33.5,75.5 Z"/></g>
<g><path style="opacity:0.388" fill="#231517" d="M 94.5,72.5 C 94.8333,72.5 95.1667,72.5 95.5,72.5C 95.5,74.8333 95.5,77.1667 95.5,79.5C 93.525,82.3055 91.025,84.6388 88,86.5C 87.3292,85.7476 86.4959,85.4142 85.5,85.5C 86.8333,84.8333 88.1667,84.1667 89.5,83.5C 91.5869,82.4154 92.9202,80.7488 93.5,78.5C 94.4614,76.7354 94.7947,74.7354 94.5,72.5 Z"/></g>
<g><path style="opacity:1" fill="#4aa0be" d="M 55.5,79.5 C 55.4142,80.4959 55.7476,81.3292 56.5,82C 58.4913,82.3736 60.158,83.207 61.5,84.5C 59.8946,85.0059 59.5613,85.6726 60.5,86.5C 60.5,86.8333 60.5,87.1667 60.5,87.5C 59.391,87.5569 58.391,87.8902 57.5,88.5C 51.7829,88.7931 46.1162,89.4598 40.5,90.5C 38.9157,89.6182 37.249,88.7848 35.5,88C 41.8333,85.6667 48.1667,83.3333 54.5,81C 52.5471,79.3674 50.3804,78.2007 48,77.5C 45.7182,78.2898 43.5516,79.2898 41.5,80.5C 42.8333,78.8333 44.1667,77.1667 45.5,75.5C 46.6594,71.5348 47.8261,67.5348 49,63.5C 49.1078,67.1765 49.1078,70.8432 49,74.5C 50.8333,77.3333 52.3333,77.1667 53.5,74C 55.5856,73.3734 55.9189,73.8734 54.5,75.5C 58.375,76.4865 58.375,77.6532 54.5,79C 54.7284,79.3988 55.0618,79.5654 55.5,79.5 Z"/></g>
<g><path style="opacity:1" fill="#28abe3" d="M 25.5,70.5 C 27.0927,73.3549 28.4261,76.3549 29.5,79.5C 29.5,79.8333 29.5,80.1667 29.5,80.5C 27.2376,83.1812 26.9043,86.1812 28.5,89.5C 27.8826,89.3893 27.3826,89.056 27,88.5C 26.301,82.5112 25.801,76.5112 25.5,70.5 Z"/></g>
<g><path style="opacity:1" fill="#80cbe9" d="M 40.5,90.5 C 40.1583,91.3382 39.4916,91.6716 38.5,91.5C 36.1667,91.5 33.8333,91.5 31.5,91.5C 30.5,90.8333 29.5,90.1667 28.5,89.5C 26.9043,86.1812 27.2376,83.1812 29.5,80.5C 29.3379,82.5273 29.5045,84.5273 30,86.5C 31.3466,88.4661 32.8466,88.7994 34.5,87.5C 34.3505,86.448 34.5172,85.448 35,84.5C 35.3333,84.8333 35.6667,85.1667 36,85.5C 37.7038,83.6266 39.5372,81.9599 41.5,80.5C 43.5516,79.2898 45.7182,78.2898 48,77.5C 50.3804,78.2007 52.5471,79.3674 54.5,81C 48.1667,83.3333 41.8333,85.6667 35.5,88C 37.249,88.7848 38.9157,89.6182 40.5,90.5 Z"/></g>
<g><path style="opacity:0.51" fill="#bbb5b5" d="M 72.5,85.5 C 69.1144,87.2434 65.7811,88.2434 62.5,88.5C 62.1583,87.6618 61.4916,87.3284 60.5,87.5C 60.5,87.1667 60.5,86.8333 60.5,86.5C 63.4877,85.8389 66.4877,85.1722 69.5,84.5C 70.7261,84.5195 71.7261,84.8529 72.5,85.5 Z"/></g>
<g><path style="opacity:1" fill="#2aafe6" d="M 31.5,91.5 C 33.8333,91.5 36.1667,91.5 38.5,91.5C 35.6627,93.4023 32.3293,94.069 28.5,93.5C 25.9401,91.7267 23.6068,89.7267 21.5,87.5C 21.0948,85.3502 20.5948,83.3502 20,81.5C 22.234,85.4578 25.0673,88.9578 28.5,92C 29.7494,92.7401 30.7494,92.5735 31.5,91.5 Z"/></g>
<g><path style="opacity:0.004" fill="#120d0c" d="M 52.5,93.5 C 53.8333,94.1667 53.8333,94.1667 52.5,93.5 Z"/></g>
<g><path style="opacity:0.576" fill="#241518" d="M 0.5,43.5 C 0.785497,52.6453 0.785497,61.9786 0.5,71.5C 0.839973,73.679 1.83997,75.5123 3.5,77C 7.534,80.0171 11.8673,82.5171 16.5,84.5C 17.8993,85.8897 19.5659,86.8897 21.5,87.5C 23.6068,89.7267 25.9401,91.7267 28.5,93.5C 38.8388,95.9133 48.5055,94.2466 57.5,88.5C 58.391,87.8902 59.391,87.5569 60.5,87.5C 61.4916,87.3284 62.1583,87.6618 62.5,88.5C 58.8487,89.6589 55.5154,91.3256 52.5,93.5C 49.9327,93.7215 47.5994,94.3882 45.5,95.5C 39.5,95.5 33.5,95.5 27.5,95.5C 20.4357,88.7883 12.4357,83.2883 3.5,79C 1.92975,77.6032 0.596413,76.1032 -0.5,74.5C -0.5,65.8333 -0.5,57.1667 -0.5,48.5C 0.451145,47.0813 0.784479,45.4147 0.5,43.5 Z"/></g>
<g><path style="opacity:1" fill="#238eba" d="M 57.5,88.5 C 48.5055,94.2466 38.8388,95.9133 28.5,93.5C 32.3293,94.069 35.6627,93.4023 38.5,91.5C 39.4916,91.6716 40.1583,91.3382 40.5,90.5C 46.1162,89.4598 51.7829,88.7931 57.5,88.5 Z"/></g>
</svg>
