<?xml version="1.0" encoding="UTF-8"?>
<!DOCTYPE svg PUBLIC "-//W3C//DTD SVG 1.1//EN" "http://www.w3.org/Graphics/SVG/1.1/DTD/svg11.dtd">
<svg xmlns="http://www.w3.org/2000/svg" version="1.1" width="96px" height="96px" style="shape-rendering:geometricPrecision; text-rendering:geometricPrecision; image-rendering:optimizeQuality; fill-rule:evenodd; clip-rule:evenodd" xmlns:xlink="http://www.w3.org/1999/xlink">
<g><path style="opacity:0.996" fill="#000c25" d="M 37.5,-0.5 C 44.1667,-0.5 50.8333,-0.5 57.5,-0.5C 77.1403,5.14032 89.807,17.807 95.5,37.5C 95.5,44.1667 95.5,50.8333 95.5,57.5C 89.807,77.193 77.1403,89.8597 57.5,95.5C 50.8333,95.5 44.1667,95.5 37.5,95.5C 17.8597,89.8597 5.193,77.193 -0.5,57.5C -0.5,50.8333 -0.5,44.1667 -0.5,37.5C 5.16667,17.8333 17.8333,5.16667 37.5,-0.5 Z"/></g>
<g><path style="opacity:1" fill="#398ad3" d="M 77.5,38.5 C 76.5,37.8333 75.5,37.1667 74.5,36.5C 74.9217,25.5232 69.9217,22.3565 59.5,27C 54.6474,29.2581 49.9807,31.7581 45.5,34.5C 43.5853,34.7845 41.9187,34.4511 40.5,33.5C 49.1576,25.1721 59.4909,21.3387 71.5,22C 74.196,22.6898 76.3626,24.1898 78,26.5C 78.8119,30.6888 78.6453,34.6888 77.5,38.5 Z"/></g>
<g><path style="opacity:1" fill="#1f5099" d="M 39.5,21.5 C 43.0965,23.2499 43.2631,25.2499 40,27.5C 36.8981,25.6627 36.7314,23.6627 39.5,21.5 Z"/></g>
<g><path style="opacity:1" fill="#2970c8" d="M 30.5,33.5 C 27.5,33.5 24.5,33.5 21.5,33.5C 21.0618,33.5654 20.7284,33.3988 20.5,33C 23,31.8333 24.8333,30 26,27.5C 27.1667,30 29,31.8333 31.5,33C 31.2716,33.3988 30.9382,33.5654 30.5,33.5 Z"/></g>
<g><path style="opacity:1" fill="#1a54b6" d="M 21.5,33.5 C 24.5,33.5 27.5,33.5 30.5,33.5C 29.2073,35.2959 27.7073,36.9625 26,38.5C 24.2927,36.9625 22.7927,35.2959 21.5,33.5 Z"/></g>
<g><path style="opacity:1" fill="#2a72c8" d="M 74.5,36.5 C 75.5,37.1667 76.5,37.8333 77.5,38.5C 76.6205,41.2622 75.4538,43.9289 74,46.5C 72.8904,48.0368 71.3904,48.7035 69.5,48.5C 69.5,47.5 69.5,46.5 69.5,45.5C 70.943,42.2718 72.6096,39.2718 74.5,36.5 Z"/></g>
<g><path style="opacity:1" fill="#2a6fc3" d="M 40.5,33.5 C 41.9187,34.4511 43.5853,34.7845 45.5,34.5C 40.8594,38.8052 36.1927,43.1386 31.5,47.5C 29.7091,46.7721 29.0424,45.7721 29.5,44.5C 32.8333,40.5 36.5,36.8333 40.5,33.5 Z"/></g>
<g><path style="opacity:1" fill="#1e5fc1" d="M 29.5,44.5 C 29.0424,45.7721 29.7091,46.7721 31.5,47.5C 28.2206,52.4025 25.2206,57.4025 22.5,62.5C 21.579,62.9303 21.079,64.2636 21,66.5C 20.6667,64.8333 20.3333,63.1667 20,61.5C 19.5026,64.146 19.3359,66.8127 19.5,69.5C 18.5563,59.6846 21.8896,51.3513 29.5,44.5 Z"/></g>
<g><path style="opacity:1" fill="#307bca" d="M 61.5,50.5 C 64.6305,49.9078 66.9639,50.9078 68.5,53.5C 67.6661,54.7479 66.3328,55.4146 64.5,55.5C 63.1667,55.3333 61.8333,55.1667 60.5,55C 59.944,54.6174 59.6107,54.1174 59.5,53.5C 60.1667,52.5 60.8333,51.5 61.5,50.5 Z"/></g>
<g><path style="opacity:1" fill="#2161bc" d="M 59.5,53.5 C 59.6107,54.1174 59.944,54.6174 60.5,55C 61.8333,55.1667 63.1667,55.3333 64.5,55.5C 66.3328,55.4146 67.6661,54.7479 68.5,53.5C 69.8333,55.1667 69.8333,56.8333 68.5,58.5C 68.631,57.7611 68.4643,57.0944 68,56.5C 65.0614,57.1281 62.2281,57.7948 59.5,58.5C 58.596,57.791 58.2627,56.791 58.5,55.5C 58.3284,54.5084 58.6618,53.8417 59.5,53.5 Z"/></g>
<g><path style="opacity:1" fill="#040b23" d="M 74.5,36.5 C 72.6096,39.2718 70.943,42.2718 69.5,45.5C 68.7784,45.9175 68.2784,46.5842 68,47.5C 67.3946,45.5188 66.3946,45.1854 65,46.5C 64.2917,45.6195 63.4584,44.9528 62.5,44.5C 62.8333,43.8333 63.1667,43.1667 63.5,42.5C 66.0306,40.0339 66.8639,37.0339 66,33.5C 65.044,32.1059 63.7106,31.4393 62,31.5C 58.3382,32.5798 54.8382,34.0798 51.5,36C 49.393,37.2635 48.393,39.0968 48.5,41.5C 49.8734,41.6567 51.2068,41.49 52.5,41C 55.2207,37.9677 58.554,36.6344 62.5,37C 61.6138,38.6147 60.6138,40.1147 59.5,41.5C 56.5285,44.8076 53.5285,48.141 50.5,51.5C 46.0722,54.7286 41.2389,57.3952 36,59.5C 35.5,59.3333 35,59.1667 34.5,59C 35.8485,56.9896 37.1818,54.9896 38.5,53C 38.2373,51.0543 37.2373,50.3877 35.5,51C 32.3605,53.4455 30.3605,56.6121 29.5,60.5C 30.0475,63.5423 31.8809,64.8757 35,64.5C 42.8819,61.8097 49.7152,57.4764 55.5,51.5C 57.8333,49.8333 59.8333,47.8333 61.5,45.5C 62.0431,45.56 62.3764,45.8933 62.5,46.5C 61.6872,47.8139 60.6872,48.9805 59.5,50C 60.0944,50.4643 60.7611,50.631 61.5,50.5C 60.8333,51.5 60.1667,52.5 59.5,53.5C 58.6618,53.8417 58.3284,54.5084 58.5,55.5C 57.7321,56.2625 57.2321,57.2625 57,58.5C 56.6948,56.4432 56.6948,54.4432 57,52.5C 55.786,54.0488 54.286,55.2155 52.5,56C 53.6721,56.4186 54.6721,57.0853 55.5,58C 53.6243,58.9184 52.6243,60.4184 52.5,62.5C 45.1778,68.501 36.8444,71.6677 27.5,72C 23.1249,70.2994 21.4582,67.1328 22.5,62.5C 25.2206,57.4025 28.2206,52.4025 31.5,47.5C 36.1927,43.1386 40.8594,38.8052 45.5,34.5C 49.9807,31.7581 54.6474,29.2581 59.5,27C 69.9217,22.3565 74.9217,25.5232 74.5,36.5 Z"/></g>
<g><path style="opacity:1" fill="#2569c4" d="M 59.5,41.5 C 60.6605,41.4366 61.9938,41.7699 63.5,42.5C 63.1667,43.1667 62.8333,43.8333 62.5,44.5C 61.8333,44.5 61.5,44.8333 61.5,45.5C 59.8333,47.8333 57.8333,49.8333 55.5,51.5C 55.2172,50.7109 54.7172,50.0442 54,49.5C 53.1841,50.8228 52.0174,51.4894 50.5,51.5C 53.5285,48.141 56.5285,44.8076 59.5,41.5 Z"/></g>
<g><path style="opacity:1" fill="#1c56b7" d="M 45.5,44.5 C 46.842,47.2195 45.842,48.8862 42.5,49.5C 40.5323,48.8999 39.5323,47.5666 39.5,45.5C 41.7354,45.7947 43.7354,45.4614 45.5,44.5 Z"/></g>
<g><path style="opacity:1" fill="#3076c7" d="M 45.5,44.5 C 43.7354,45.4614 41.7354,45.7947 39.5,45.5C 39.484,43.5159 40.484,42.5159 42.5,42.5C 44.0377,42.4534 45.0377,43.1201 45.5,44.5 Z"/></g>
<g><path style="opacity:1" fill="#3582ce" d="M 63.5,42.5 C 61.9938,41.7699 60.6605,41.4366 59.5,41.5C 60.6138,40.1147 61.6138,38.6147 62.5,37C 58.554,36.6344 55.2207,37.9677 52.5,41C 51.2068,41.49 49.8734,41.6567 48.5,41.5C 48.393,39.0968 49.393,37.2635 51.5,36C 54.8382,34.0798 58.3382,32.5798 62,31.5C 63.7106,31.4393 65.044,32.1059 66,33.5C 66.8639,37.0339 66.0306,40.0339 63.5,42.5 Z"/></g>
<g><path style="opacity:1" fill="#1449b3" d="M 55.5,51.5 C 49.7152,57.4764 42.8819,61.8097 35,64.5C 31.8809,64.8757 30.0475,63.5423 29.5,60.5C 30.3605,56.6121 32.3605,53.4455 35.5,51C 37.2373,50.3877 38.2373,51.0543 38.5,53C 37.1818,54.9896 35.8485,56.9896 34.5,59C 35,59.1667 35.5,59.3333 36,59.5C 41.2389,57.3952 46.0722,54.7286 50.5,51.5C 52.0174,51.4894 53.1841,50.8228 54,49.5C 54.7172,50.0442 55.2172,50.7109 55.5,51.5 Z"/></g>
<g><path style="opacity:1" fill="#134cb5" d="M 68.5,58.5 C 68.1257,60.9497 66.6257,61.9497 64,61.5C 61.3743,61.9497 59.8743,60.9497 59.5,58.5C 62.2281,57.7948 65.0614,57.1281 68,56.5C 68.4643,57.0944 68.631,57.7611 68.5,58.5 Z"/></g>
<g><path style="opacity:1" fill="#2466c7" d="M 57.5,68.5 C 60.7015,69.8395 61.0348,71.5061 58.5,73.5C 55.1396,72.2095 54.8063,70.5428 57.5,68.5 Z"/></g>
<g><path style="opacity:1" fill="#0e44b5" d="M 22.5,62.5 C 21.4582,67.1328 23.1249,70.2994 27.5,72C 36.8444,71.6677 45.1778,68.501 52.5,62.5C 53.7079,61.7659 55.0413,61.4326 56.5,61.5C 56.6567,62.8734 56.49,64.2068 56,65.5C 46.9863,73.3802 36.4863,76.8802 24.5,76C 22.2101,74.2228 20.5434,72.0562 19.5,69.5C 19.3359,66.8127 19.5026,64.146 20,61.5C 20.3333,63.1667 20.6667,64.8333 21,66.5C 21.079,64.2636 21.579,62.9303 22.5,62.5 Z"/></g>
</svg>
