<?xml version="1.0" encoding="UTF-8"?>
<!DOCTYPE svg PUBLIC "-//W3C//DTD SVG 1.1//EN" "http://www.w3.org/Graphics/SVG/1.1/DTD/svg11.dtd">
<svg xmlns="http://www.w3.org/2000/svg" version="1.1" width="96px" height="96px" style="shape-rendering:geometricPrecision; text-rendering:geometricPrecision; image-rendering:optimizeQuality; fill-rule:evenodd; clip-rule:evenodd" xmlns:xlink="http://www.w3.org/1999/xlink">
<g><path style="opacity:1" fill="#222223" d="M -0.5,-0.5 C 31.5,-0.5 63.5,-0.5 95.5,-0.5C 95.5,31.5 95.5,63.5 95.5,95.5C 63.5,95.5 31.5,95.5 -0.5,95.5C -0.5,63.5 -0.5,31.5 -0.5,-0.5 Z"/></g>
<g><path style="opacity:1" fill="#507f45" d="M 26.5,65.5 C 26.5,60.1667 26.5,54.8333 26.5,49.5C 28.1667,49.5 29.8333,49.5 31.5,49.5C 31.5,46.8333 31.5,44.1667 31.5,41.5C 29.8333,41.5 28.1667,41.5 26.5,41.5C 26.5,39.8333 26.5,38.1667 26.5,36.5C 28.1667,36.5 29.8333,36.5 31.5,36.5C 31.5,33.8333 31.5,31.1667 31.5,28.5C 26.1667,28.5 20.8333,28.5 15.5,28.5C 15.5,40.8333 15.5,53.1667 15.5,65.5C 14.5046,53.011 14.1713,40.3443 14.5,27.5C 20.5,27.5 26.5,27.5 32.5,27.5C 32.5,30.8333 32.5,34.1667 32.5,37.5C 30.8333,37.5 29.1667,37.5 27.5,37.5C 27.5,38.5 27.5,39.5 27.5,40.5C 29.1667,40.5 30.8333,40.5 32.5,40.5C 32.5,43.8333 32.5,47.1667 32.5,50.5C 30.8333,50.5 29.1667,50.5 27.5,50.5C 27.8205,55.6946 27.4872,60.6946 26.5,65.5 Z"/></g>
<g><path style="opacity:1" fill="#84942f" d="M 71.5,28.5 C 75.6829,27.1889 80.0162,27.1889 84.5,28.5C 84.3764,29.1067 84.0431,29.44 83.5,29.5C 79.7016,28.5166 75.7016,28.1832 71.5,28.5 Z"/></g>
<g><path style="opacity:1" fill="#70c55e" d="M 26.5,65.5 C 22.8333,65.5 19.1667,65.5 15.5,65.5C 15.5,53.1667 15.5,40.8333 15.5,28.5C 20.8333,28.5 26.1667,28.5 31.5,28.5C 31.5,31.1667 31.5,33.8333 31.5,36.5C 29.8333,36.5 28.1667,36.5 26.5,36.5C 26.5,38.1667 26.5,39.8333 26.5,41.5C 28.1667,41.5 29.8333,41.5 31.5,41.5C 31.5,44.1667 31.5,46.8333 31.5,49.5C 29.8333,49.5 28.1667,49.5 26.5,49.5C 26.5,54.8333 26.5,60.1667 26.5,65.5 Z"/></g>
<g><path style="opacity:1" fill="#b9d637" d="M 71.5,28.5 C 75.7016,28.1832 79.7016,28.5166 83.5,29.5C 79.8533,35.14 75.8533,40.4734 71.5,45.5C 69.6949,43.2661 67.8616,40.9328 66,38.5C 65.1618,39.999 64.3285,40.3324 63.5,39.5C 65.9341,35.6183 68.6007,31.9516 71.5,28.5 Z"/></g>
<g><path style="opacity:1" fill="#629247" d="M 35.5,27.5 C 38.8333,27.5 42.1667,27.5 45.5,27.5C 45.5,30.8333 45.5,34.1667 45.5,37.5C 42.1667,37.5 38.8333,37.5 35.5,37.5C 35.5,34.1667 35.5,30.8333 35.5,27.5 Z"/></g>
<g><path style="opacity:1" fill="#84cc59" d="M 36.5,28.5 C 39.1667,28.5 41.8333,28.5 44.5,28.5C 44.5,31.1667 44.5,33.8333 44.5,36.5C 41.8333,36.5 39.1667,36.5 36.5,36.5C 36.5,33.8333 36.5,31.1667 36.5,28.5 Z"/></g>
<g><path style="opacity:1" fill="#97c94a" d="M 63.5,39.5 C 64.3285,40.3324 65.1618,39.999 66,38.5C 67.8616,40.9328 69.6949,43.2661 71.5,45.5C 76.0705,51.6309 80.4038,57.9643 84.5,64.5C 79.8333,65.8333 75.1667,65.8333 70.5,64.5C 67.4737,59.8157 64.4737,55.1491 61.5,50.5C 57.8304,44.8275 53.497,40.4941 48.5,37.5C 48.5,34.1667 48.5,30.8333 48.5,27.5C 52.5,27.5 56.5,27.5 60.5,27.5C 60.3341,32.5111 60.5007,37.5111 61,42.5C 61.8518,41.4293 62.6851,40.4293 63.5,39.5 Z"/></g>
<g><path style="opacity:1" fill="#518346" d="M 35.5,40.5 C 38.8333,40.5 42.1667,40.5 45.5,40.5C 45.5,43.8333 45.5,47.1667 45.5,50.5C 42.1667,50.5 38.8333,50.5 35.5,50.5C 35.5,47.1667 35.5,43.8333 35.5,40.5 Z"/></g>
<g><path style="opacity:1" fill="#72c960" d="M 36.5,41.5 C 39.1667,41.5 41.8333,41.5 44.5,41.5C 44.5,44.1667 44.5,46.8333 44.5,49.5C 41.8333,49.5 39.1667,49.5 36.5,49.5C 36.5,46.8333 36.5,44.1667 36.5,41.5 Z"/></g>
<g><path style="opacity:1" fill="#74c25c" d="M 48.5,37.5 C 53.497,40.4941 57.8304,44.8275 61.5,50.5C 60.5128,55.3054 60.1795,60.3054 60.5,65.5C 56.5,65.5 52.5,65.5 48.5,65.5C 48.5,56.1667 48.5,46.8333 48.5,37.5 Z"/></g>
</svg>
