<?xml version="1.0" encoding="UTF-8"?>
<!DOCTYPE svg PUBLIC "-//W3C//DTD SVG 1.1//EN" "http://www.w3.org/Graphics/SVG/1.1/DTD/svg11.dtd">
<svg xmlns="http://www.w3.org/2000/svg" version="1.1" width="96px" height="63px" style="shape-rendering:geometricPrecision; text-rendering:geometricPrecision; image-rendering:optimizeQuality; fill-rule:evenodd; clip-rule:evenodd" xmlns:xlink="http://www.w3.org/1999/xlink">
<g><path style="opacity:0.99" fill="#101011" d="M -0.5,-0.5 C 31.5,-0.5 63.5,-0.5 95.5,-0.5C 95.5,20.5 95.5,41.5 95.5,62.5C 63.5,62.5 31.5,62.5 -0.5,62.5C -0.5,41.5 -0.5,20.5 -0.5,-0.5 Z"/></g>
<g><path style="opacity:1" fill="#f3f3f3" d="M 42.5,18.5 C 40.5,19.8333 38.5,19.8333 36.5,18.5C 39.3206,6.58561 46.6539,2.75228 58.5,7C 63.731,9.52002 63.731,12.02 58.5,14.5C 51.2682,8.34572 45.9349,9.67906 42.5,18.5 Z"/></g>
<g><path style="opacity:1" fill="#f4f4f4" d="M 67.5,5.5 C 69.5,5.5 71.5,5.5 73.5,5.5C 73.3343,9.84611 73.501,14.1794 74,18.5C 76.6391,14.3612 79.4724,10.3612 82.5,6.5C 84.8333,5.16667 87.1667,5.16667 89.5,6.5C 86.5,10.5 83.5,14.5 80.5,18.5C 83.8592,23.5178 87.1925,28.5178 90.5,33.5C 88.3926,34.4682 86.0593,34.8016 83.5,34.5C 81.1919,31.1847 78.8586,27.8514 76.5,24.5C 75.5224,24.9767 74.6891,25.6433 74,26.5C 73.502,29.4816 73.3354,32.4816 73.5,35.5C 71.2646,35.7947 69.2646,35.4614 67.5,34.5C 67.5,24.8333 67.5,15.1667 67.5,5.5 Z"/></g>
<g><path style="opacity:1" fill="#f1f1f1" d="M 33.5,27.5 C 33.5,29.8333 33.5,32.1667 33.5,34.5C 31.8333,34.5 30.1667,34.5 28.5,34.5C 27.8335,29.9834 27.1669,25.3167 26.5,20.5C 24.1829,24.1464 21.5162,27.4797 18.5,30.5C 15.4229,27.5909 12.9229,24.2576 11,20.5C 9.69076,25.0658 9.19076,29.7325 9.5,34.5C 7.5,34.5 5.5,34.5 3.5,34.5C 3.88577,24.7629 4.88577,15.0962 6.5,5.5C 10.8575,10.6901 15.0242,16.0234 19,21.5C 23.0065,15.9992 27.1732,10.6659 31.5,5.5C 32.3619,12.8235 33.0286,20.1568 33.5,27.5 Z"/></g>
<g><path style="opacity:1" fill="#303132" d="M 67.5,5.5 C 67.5,15.1667 67.5,24.8333 67.5,34.5C 66.8333,31.1667 66.1667,27.8333 65.5,24.5C 65.5,22.8333 65.5,21.1667 65.5,19.5C 66.1667,14.8333 66.8333,10.1667 67.5,5.5 Z"/></g>
<g><path style="opacity:1" fill="#f6f6f6" d="M 65.5,19.5 C 65.5,21.1667 65.5,22.8333 65.5,24.5C 63.9304,31.401 59.5971,35.0677 52.5,35.5C 52.1667,35.5 51.8333,35.5 51.5,35.5C 51.5,33.5 51.5,31.5 51.5,29.5C 51.8333,29.5 52.1667,29.5 52.5,29.5C 55.8254,29.506 58.1587,28.006 59.5,25C 57.1902,24.5034 54.8568,24.3367 52.5,24.5C 52.5,22.8333 52.5,21.1667 52.5,19.5C 56.8333,19.5 61.1667,19.5 65.5,19.5 Z"/></g>
<g><path style="opacity:1" fill="#a5a6a6" d="M 36.5,18.5 C 38.5,19.8333 40.5,19.8333 42.5,18.5C 44.5822,19.5849 44.9156,21.0849 43.5,23C 44.915,26.817 47.415,28.317 51,27.5C 52.0299,27.8361 52.5299,28.5028 52.5,29.5C 52.1667,29.5 51.8333,29.5 51.5,29.5C 45.5,29.5 42.5,26.5 42.5,20.5C 40.1432,20.3367 37.8098,20.5034 35.5,21C 36.7979,23.7269 37.7979,26.5602 38.5,29.5C 37.2101,28.9423 36.3768,27.9423 36,26.5C 35.5,24.5 35,22.5 34.5,20.5C 34.7472,19.2867 35.4138,18.62 36.5,18.5 Z"/></g>
<g><path style="opacity:1" fill="#b7b7b8" d="M 38.5,29.5 C 42.5054,33.0158 46.8387,35.0158 51.5,35.5C 51.8333,35.5 52.1667,35.5 52.5,35.5C 52.5852,36.9953 51.9185,37.9953 50.5,38.5C 47.3272,36.4128 43.9939,34.5795 40.5,33C 39.1772,32.1841 38.5106,31.0174 38.5,29.5 Z"/></g>
<g><path style="opacity:1" fill="#696a6a" d="M 33.5,27.5 C 34.4731,29.9479 34.8064,32.6146 34.5,35.5C 32.2646,35.7947 30.2646,35.4614 28.5,34.5C 30.1667,34.5 31.8333,34.5 33.5,34.5C 33.5,32.1667 33.5,29.8333 33.5,27.5 Z"/></g>
<g><path style="opacity:1" fill="#121213" d="M 51.5,29.5 C 51.5,31.5 51.5,33.5 51.5,35.5C 46.8387,35.0158 42.5054,33.0158 38.5,29.5C 37.7979,26.5602 36.7979,23.7269 35.5,21C 37.8098,20.5034 40.1432,20.3367 42.5,20.5C 42.5,26.5 45.5,29.5 51.5,29.5 Z"/></g>
<g><path style="opacity:1" fill="#747577" d="M 90.5,33.5 C 91.0431,33.56 91.3764,33.8933 91.5,34.5C 88.6908,35.8003 86.0241,35.8003 83.5,34.5C 86.0593,34.8016 88.3926,34.4682 90.5,33.5 Z"/></g>
<g><path style="opacity:1" fill="#c5c5c7" d="M 2.5,39.5 C 32.5,39.5 62.5,39.5 92.5,39.5C 92.5,45.5 92.5,51.5 92.5,57.5C 62.5,57.5 32.5,57.5 2.5,57.5C 2.5,51.5 2.5,45.5 2.5,39.5 Z"/></g>
<g><path style="opacity:1" fill="#151516" d="M 3.5,41.5 C 32.8333,41.5 62.1667,41.5 91.5,41.5C 91.5,46.5 91.5,51.5 91.5,56.5C 62.1667,56.5 32.8333,56.5 3.5,56.5C 3.5,51.5 3.5,46.5 3.5,41.5 Z"/></g>
<g><path style="opacity:1" fill="#777777" d="M 87.5,44.5 C 88.8333,47.1667 88.8333,49.8333 87.5,52.5C 87.5,51.1667 87.5,49.8333 87.5,48.5C 86.1266,48.3433 84.7932,48.51 83.5,49C 84.4158,49.2784 85.0825,49.7784 85.5,50.5C 84.5,50.5 83.5,50.5 82.5,50.5C 82.5,49.5 82.5,48.5 82.5,47.5C 83.791,47.7373 84.791,47.404 85.5,46.5C 86.8333,46.5 87.5,45.8333 87.5,44.5 Z"/></g>
<g><path style="opacity:1" fill="#181818" d="M 85.5,46.5 C 84.791,47.404 83.791,47.7373 82.5,47.5C 82.5,48.5 82.5,49.5 82.5,50.5C 83.5,50.5 84.5,50.5 85.5,50.5C 84.0813,51.4511 82.4147,51.7845 80.5,51.5C 79.5002,46.4909 81.1668,44.8243 85.5,46.5 Z"/></g>
<g><path style="opacity:1" fill="#f2f2f2" d="M 66.5,43.5 C 67.9778,43.238 69.3112,43.5713 70.5,44.5C 73.5394,52.7161 75.2061,52.3828 75.5,43.5C 76.487,46.7683 76.8204,50.1016 76.5,53.5C 75.1266,53.6567 73.7932,53.49 72.5,53C 69.471,45.7526 68.1376,45.9193 68.5,53.5C 66.5977,50.6627 65.931,47.3293 66.5,43.5 Z"/></g>
<g><path style="opacity:1" fill="#363637" d="M 64.5,43.5 C 65.1667,43.5 65.8333,43.5 66.5,43.5C 65.931,47.3293 66.5977,50.6627 68.5,53.5C 66.5,54.8333 64.5,54.8333 62.5,53.5C 64.4023,50.6627 65.069,47.3293 64.5,43.5 Z"/></g>
<g><path style="opacity:1" fill="#eaeaea" d="M 51.5,43.5 C 54.5,43.5 57.5,43.5 60.5,43.5C 60.6815,46.553 60.8481,49.553 61,52.5C 57.9433,53.4505 54.7766,53.7839 51.5,53.5C 51.5,50.1667 51.5,46.8333 51.5,43.5 Z"/></g>
<g><path style="opacity:1" fill="#151414" d="M 53.5,49.5 C 55.288,49.2148 56.9547,49.5481 58.5,50.5C 57.6667,50.8333 56.8333,51.1667 56,51.5C 54.6244,51.3158 53.7911,50.6491 53.5,49.5 Z"/></g>
<g><path style="opacity:1" fill="#1f1f1f" d="M 53.5,45.5 C 55.288,45.2148 56.9547,45.5481 58.5,46.5C 57.6667,46.8333 56.8333,47.1667 56,47.5C 54.6244,47.3158 53.7911,46.6491 53.5,45.5 Z"/></g>
<g><path style="opacity:1" fill="#e9e9e9" d="M 37.5,43.5 C 38.552,43.3505 39.552,43.5172 40.5,44C 41.5937,45.7803 42.5937,47.6136 43.5,49.5C 44.4274,47.8872 45.2607,46.2205 46,44.5C 47.0113,43.6634 48.1779,43.33 49.5,43.5C 49.8204,46.8984 49.487,50.2317 48.5,53.5C 47.7022,51.9223 47.2022,50.2556 47,48.5C 44.0981,55.2458 41.7647,54.9124 40,47.5C 39.8078,49.5767 39.3078,51.5767 38.5,53.5C 37.513,50.2317 37.1796,46.8984 37.5,43.5 Z"/></g>
<g><path style="opacity:1" fill="#fdfdfd" d="M 17.5,43.5 C 19.369,45.6353 20.0356,48.3019 19.5,51.5C 21.288,51.2148 22.9547,51.5481 24.5,52.5C 22.2573,53.4742 19.924,53.8076 17.5,53.5C 17.5,50.1667 17.5,46.8333 17.5,43.5 Z"/></g>
<g><path style="opacity:1" fill="#d5d5d5" d="M 6.5,43.5 C 9.5,43.5 12.5,43.5 15.5,43.5C 15.6633,45.8568 15.4966,48.1902 15,50.5C 12.1526,51.5063 9.31926,52.5063 6.5,53.5C 6.5,50.1667 6.5,46.8333 6.5,43.5 Z"/></g>
<g><path style="opacity:1" fill="#1b1b1b" d="M 9.5,45.5 C 10.8333,45.5 12.1667,45.5 13.5,45.5C 13.5,46.5 13.5,47.5 13.5,48.5C 12.1667,48.5 10.8333,48.5 9.5,48.5C 9.5,47.5 9.5,46.5 9.5,45.5 Z"/></g>
<g><path style="opacity:1" fill="#f1f1f1" d="M 87.5,44.5 C 87.5,45.8333 86.8333,46.5 85.5,46.5C 81.1668,44.8243 79.5002,46.4909 80.5,51.5C 82.4147,51.7845 84.0813,51.4511 85.5,50.5C 85.0825,49.7784 84.4158,49.2784 83.5,49C 84.7932,48.51 86.1266,48.3433 87.5,48.5C 87.5,49.8333 87.5,51.1667 87.5,52.5C 84.7131,53.4767 81.7131,53.81 78.5,53.5C 76.0784,44.611 79.0784,41.611 87.5,44.5 Z"/></g>
<g><path style="opacity:1" fill="#fbfbfb" d="M 64.5,43.5 C 65.069,47.3293 64.4023,50.6627 62.5,53.5C 61.931,49.6707 62.5977,46.3373 64.5,43.5 Z"/></g>
<g><path style="opacity:1" fill="#e4e4e4" d="M 25.5,43.5 C 26.5,43.5 27.5,43.5 28.5,43.5C 28.5,46.1667 28.5,48.8333 28.5,51.5C 30.1667,51.5 31.8333,51.5 33.5,51.5C 33.1866,48.7531 33.52,46.0865 34.5,43.5C 35.487,46.7683 35.8204,50.1016 35.5,53.5C 32.4281,53.8174 29.4281,53.4841 26.5,52.5C 25.5934,49.5788 25.2601,46.5788 25.5,43.5 Z"/></g>
</svg>
