<?xml version="1.0" encoding="UTF-8"?>
<!DOCTYPE svg PUBLIC "-//W3C//DTD SVG 1.1//EN" "http://www.w3.org/Graphics/SVG/1.1/DTD/svg11.dtd">
<svg xmlns="http://www.w3.org/2000/svg" version="1.1" width="96px" height="96px" style="shape-rendering:geometricPrecision; text-rendering:geometricPrecision; image-rendering:optimizeQuality; fill-rule:evenodd; clip-rule:evenodd" xmlns:xlink="http://www.w3.org/1999/xlink">
<g><path style="opacity:1" fill="#7df5ff" d="M 36.5,4.5 C 37.1667,7.5 37.8333,10.5 38.5,13.5C 33.2855,12.4285 28.2855,10.7618 23.5,8.5C 27.6992,7.02868 32.0326,5.69535 36.5,4.5 Z"/></g>
<g><path style="opacity:0.875" fill="#7efbff" d="M 17.5,24.5 C 17.1568,26.4832 17.8235,27.8166 19.5,28.5C 19.8333,29.1667 20.1667,29.8333 20.5,30.5C 27.5908,32.0846 34.5908,34.0846 41.5,36.5C 39.7078,37.3091 37.7078,37.8091 35.5,38C 40.6152,39.5382 45.6152,41.3715 50.5,43.5C 59.1535,36.5131 67.1535,28.8465 74.5,20.5C 64.3152,22.8778 54.3152,25.5445 44.5,28.5C 42.8333,28.5 41.1667,28.5 39.5,28.5C 39.2605,24.1578 38.9272,19.8244 38.5,15.5C 39.7421,14.9566 41.0755,14.6233 42.5,14.5C 53.106,16.2155 63.7727,17.3821 74.5,18C 75.624,18.2492 76.624,18.7492 77.5,19.5C 73.7094,25.2793 70.3761,31.2793 67.5,37.5C 62.9796,39.9261 58.3129,42.0928 53.5,44C 59.178,47.0033 65.178,49.1699 71.5,50.5C 71.5,51.1667 71.5,51.8333 71.5,52.5C 69.2143,52.595 67.2143,53.2616 65.5,54.5C 64.1266,54.3433 62.7932,54.51 61.5,55C 65.1943,57.1782 68.8609,59.3448 72.5,61.5C 69.0381,62.4816 65.3714,62.815 61.5,62.5C 59.5,64.1667 57.5,65.8333 55.5,67.5C 51.8427,64.343 48.3427,61.0096 45,57.5C 43.6439,58.3802 42.1439,58.7135 40.5,58.5C 38.1514,51.6189 35.3181,44.9522 32,38.5C 29.5903,43.9056 27.0903,49.2389 24.5,54.5C 23.5,51.8333 22.5,49.1667 21.5,46.5C 15.7626,40.4638 9.42924,35.1305 2.5,30.5C 5.92056,24.6549 9.58722,18.9882 13.5,13.5C 15.0004,17.2098 16.3337,20.8764 17.5,24.5 Z M 74.5,20.5 C 67.1535,28.8465 59.1535,36.5131 50.5,43.5C 45.6152,41.3715 40.6152,39.5382 35.5,38C 37.7078,37.8091 39.7078,37.3091 41.5,36.5C 44.9836,34.252 48.3169,31.752 51.5,29C 51.3333,28.5 51.1667,28 51,27.5C 48.9592,28.4231 46.7925,28.7564 44.5,28.5C 54.3152,25.5445 64.3152,22.8778 74.5,20.5 Z M 38.5,15.5 C 38.9272,19.8244 39.2605,24.1578 39.5,28.5C 32.8333,28.5 26.1667,28.5 19.5,28.5C 25.5358,23.8088 31.8691,19.4755 38.5,15.5 Z M 20.5,30.5 C 23.7734,33.1442 27.4401,35.3109 31.5,37C 28.6667,39.8333 25.8333,42.6667 23,45.5C 21.2,40.9797 19.7,36.313 18.5,31.5C 18.9569,30.7025 19.6236,30.3691 20.5,30.5 Z M 58.5,54.5 C 59.2161,56.5563 59.8828,58.723 60.5,61C 56.2938,60.4869 52.2938,59.1535 48.5,57C 52.0899,56.6894 55.4233,55.856 58.5,54.5 Z"/></g>
<g><path style="opacity:1" fill="#308aff" d="M 36.5,4.5 C 41.5,4.5 46.5,4.5 51.5,4.5C 50.0474,8.09901 47.3808,10.599 43.5,12C 51.1741,10.998 58.8408,9.99799 66.5,9C 69.8866,12.0535 73.5533,14.7202 77.5,17C 80.6293,20.7729 83.6293,24.6062 86.5,28.5C 84.8395,36.9765 83.5062,45.6432 82.5,54.5C 78.8333,53.8333 75.1667,53.1667 71.5,52.5C 71.5,51.8333 71.5,51.1667 71.5,50.5C 76.0895,44.1233 79.9228,37.4566 83,30.5C 77.8819,32.9764 72.7152,35.3097 67.5,37.5C 70.3761,31.2793 73.7094,25.2793 77.5,19.5C 76.624,18.7492 75.624,18.2492 74.5,18C 63.7727,17.3821 53.106,16.2155 42.5,14.5C 41.0755,14.6233 39.7421,14.9566 38.5,15.5C 31.8691,19.4755 25.5358,23.8088 19.5,28.5C 17.8235,27.8166 17.1568,26.4832 17.5,24.5C 19.6998,19.2331 21.6998,13.8998 23.5,8.5C 28.2855,10.7618 33.2855,12.4285 38.5,13.5C 37.8333,10.5 37.1667,7.5 36.5,4.5 Z M 38.5,15.5 C 38.9272,19.8244 39.2605,24.1578 39.5,28.5C 32.8333,28.5 26.1667,28.5 19.5,28.5C 25.5358,23.8088 31.8691,19.4755 38.5,15.5 Z"/></g>
<g><path style="opacity:1" fill="#318bff" d="M 41.5,36.5 C 34.5908,34.0846 27.5908,32.0846 20.5,30.5C 20.1667,29.8333 19.8333,29.1667 19.5,28.5C 26.1667,28.5 32.8333,28.5 39.5,28.5C 41.1667,28.5 42.8333,28.5 44.5,28.5C 46.7925,28.7564 48.9592,28.4231 51,27.5C 51.1667,28 51.3333,28.5 51.5,29C 48.3169,31.752 44.9836,34.252 41.5,36.5 Z"/></g>
<g><path style="opacity:0.777" fill="#7df8ff" d="M 86.5,28.5 C 87.5955,33.3804 88.9289,38.2137 90.5,43C 87.9851,47.002 85.3184,50.8353 82.5,54.5C 83.5062,45.6432 84.8395,36.9765 86.5,28.5 Z"/></g>
<g><path style="opacity:0.793" fill="#2b86ff" d="M 2.5,30.5 C 9.42924,35.1305 15.7626,40.4638 21.5,46.5C 16.8319,45.399 12.1653,44.2323 7.5,43C 5.53783,38.9459 3.87117,34.7792 2.5,30.5 Z"/></g>
<g><path style="opacity:1" fill="#2d87ff" d="M 40.5,58.5 C 34.8198,58.0367 29.4865,56.7034 24.5,54.5C 27.0903,49.2389 29.5903,43.9056 32,38.5C 35.3181,44.9522 38.1514,51.6189 40.5,58.5 Z"/></g>
<g><path style="opacity:1" fill="#318aff" d="M 65.5,54.5 C 69.5546,54.1758 73.5546,54.5091 77.5,55.5C 76.291,57.9408 74.6243,59.9408 72.5,61.5C 68.8609,59.3448 65.1943,57.1782 61.5,55C 62.7932,54.51 64.1266,54.3433 65.5,54.5 Z"/></g>
<g><path style="opacity:0.883" fill="#2b86ff" d="M 61.5,62.5 C 61.8436,66.2283 62.5102,69.8949 63.5,73.5C 68.1009,75.1014 71.4342,78.1014 73.5,82.5C 67.1239,84.221 61.4572,87.221 56.5,91.5C 52.5372,88.1873 51.7039,84.1873 54,79.5C 56.046,77.6239 57.8793,75.6239 59.5,73.5C 58.5684,71.2345 57.2351,69.2345 55.5,67.5C 57.5,65.8333 59.5,64.1667 61.5,62.5 Z"/></g>
<g><path style="opacity:0.788" fill="#80fdff" d="M 73.5,82.5 C 72.8854,91.2822 68.2187,95.1155 59.5,94C 58.6266,92.955 57.6266,92.1217 56.5,91.5C 61.4572,87.221 67.1239,84.221 73.5,82.5 Z"/></g>
</svg>
