<?xml version="1.0" encoding="UTF-8"?>
<!DOCTYPE svg PUBLIC "-//W3C//DTD SVG 1.1//EN" "http://www.w3.org/Graphics/SVG/1.1/DTD/svg11.dtd">
<svg xmlns="http://www.w3.org/2000/svg" version="1.1" width="96px" height="96px" style="shape-rendering:geometricPrecision; text-rendering:geometricPrecision; image-rendering:optimizeQuality; fill-rule:evenodd; clip-rule:evenodd" xmlns:xlink="http://www.w3.org/1999/xlink">
<g><path style="opacity:1" fill="#f2b40a" d="M 38.5,-0.5 C 44.5,-0.5 50.5,-0.5 56.5,-0.5C 66.1497,1.82464 74.483,6.49131 81.5,13.5C 78.3302,14.9677 75.3302,15.9677 72.5,16.5C 70.9897,15.1639 69.3231,13.9973 67.5,13C 59.8333,12.6667 52.1667,12.3333 44.5,12C 48.0457,10.4833 51.7124,9.14996 55.5,8C 45.5822,5.45177 36.2488,6.7851 27.5,12C 32.6616,20.1765 31.4949,20.6765 24,13.5C 24.5432,16.6116 25.7099,19.6116 27.5,22.5C 24.9464,24.7081 22.4464,27.0414 20,29.5C 18.7446,35.9454 15.2446,40.9454 9.5,44.5C 7.51107,46.1355 5.51107,47.8021 3.5,49.5C 2.41641,48.3349 1.58308,47.0016 1,45.5C 0.801916,47.3817 0.301916,49.0484 -0.5,50.5C -0.5,46.5 -0.5,42.5 -0.5,38.5C 4.83333,17.8333 17.8333,4.83333 38.5,-0.5 Z"/></g>
<g><path style="opacity:1" fill="#fefcfa" d="M 72.5,16.5 C 74.1667,17.5 75.5,18.8333 76.5,20.5C 72.7754,20.4051 69.1087,20.2384 65.5,20C 71.5819,23.1227 77.4153,26.6227 83,30.5C 86.2478,36.4521 87.2478,42.7854 86,49.5C 82.5954,45.3924 78.762,42.2257 74.5,40C 76.3141,42.4795 77.9808,44.9795 79.5,47.5C 80.9653,51.8935 82.6319,56.2269 84.5,60.5C 83.1129,64.9422 80.9462,68.9422 78,72.5C 75.0752,66.3121 72.4085,59.9788 70,53.5C 69.8321,62.8511 69.3321,72.1845 68.5,81.5C 64.6957,84.5458 60.3624,86.2125 55.5,86.5C 56.1828,79.1296 56.6828,71.7963 57,64.5C 53.5167,72.1361 50.0167,79.8027 46.5,87.5C 38.5677,88.4747 31.2344,86.6413 24.5,82C 25.3805,81.2917 26.0472,80.4584 26.5,79.5C 30.2098,77.2151 33.7098,74.5484 37,71.5C 39,66.1667 41,60.8333 43,55.5C 43.3333,60.1667 43.6667,64.8333 44,69.5C 47.9599,60.6085 51.2932,51.6085 54,42.5C 50.6667,37.1667 47.3333,31.8333 44,26.5C 44.6667,31.8333 45.3333,37.1667 46,42.5C 44.2854,44.7594 42.4521,46.9261 40.5,49C 35.511,49.7486 30.511,50.4153 25.5,51C 26.5,52 27.5,53 28.5,54C 24.0137,58.9632 18.6804,59.9632 12.5,57C 11.3128,55.9805 10.3128,54.8139 9.5,53.5C 11.6397,50.9387 13.973,48.6054 16.5,46.5C 14.0312,45.8319 11.6979,45.1653 9.5,44.5C 15.2446,40.9454 18.7446,35.9454 20,29.5C 22.4464,27.0414 24.9464,24.7081 27.5,22.5C 25.7099,19.6116 24.5432,16.6116 24,13.5C 31.4949,20.6765 32.6616,20.1765 27.5,12C 36.2488,6.7851 45.5822,5.45177 55.5,8C 51.7124,9.14996 48.0457,10.4833 44.5,12C 52.1667,12.3333 59.8333,12.6667 67.5,13C 69.3231,13.9973 70.9897,15.1639 72.5,16.5 Z"/></g>
<g><path style="opacity:1" fill="#f0a800" d="M 81.5,13.5 C 86.4091,18.3068 90.0757,23.9735 92.5,30.5C 93.1346,33.4929 93.3013,36.4929 93,39.5C 91.6093,37.2849 89.9426,37.2849 88,39.5C 87.2264,35.9513 85.893,32.618 84,29.5C 80.414,27.2907 76.914,24.9574 73.5,22.5C 75.3979,22.0037 76.3979,21.337 76.5,20.5C 75.5,18.8333 74.1667,17.5 72.5,16.5C 75.3302,15.9677 78.3302,14.9677 81.5,13.5 Z"/></g>
<g><path style="opacity:1" fill="#f4ac17" d="M 24.5,32.5 C 28.1817,32.3347 31.8484,32.5014 35.5,33C 32.6239,36.4734 28.9572,38.6401 24.5,39.5C 23.8551,40.646 23.0217,41.646 22,42.5C 23.0669,39.3212 23.9002,35.9879 24.5,32.5 Z"/></g>
<g><path style="opacity:1" fill="#ec9f15" d="M 76.5,20.5 C 76.3979,21.337 75.3979,22.0037 73.5,22.5C 76.914,24.9574 80.414,27.2907 84,29.5C 85.893,32.618 87.2264,35.9513 88,39.5C 89.9426,37.2849 91.6093,37.2849 93,39.5C 93.3013,36.4929 93.1346,33.4929 92.5,30.5C 93.7487,33.0873 94.7487,35.754 95.5,38.5C 95.5,44.8333 95.5,51.1667 95.5,57.5C 94.8333,58.8333 94.1667,60.1667 93.5,61.5C 93.0295,59.7117 92.6962,57.8784 92.5,56C 93.9759,52.6022 94.4759,49.1022 94,45.5C 93.8078,47.5767 93.3078,49.5767 92.5,51.5C 89.5324,52.56 87.0324,54.2267 85,56.5C 83.0593,52.9523 81.3926,49.2857 80,45.5C 79.5357,46.0944 79.369,46.7611 79.5,47.5C 77.9808,44.9795 76.3141,42.4795 74.5,40C 78.762,42.2257 82.5954,45.3924 86,49.5C 87.2478,42.7854 86.2478,36.4521 83,30.5C 77.4153,26.6227 71.5819,23.1227 65.5,20C 69.1087,20.2384 72.7754,20.4051 76.5,20.5 Z"/></g>
<g><path style="opacity:1" fill="#f0a410" d="M 26.5,79.5 C 23.8256,81.5543 21.1589,83.5543 18.5,85.5C 8.56273,78.223 2.2294,68.5563 -0.5,56.5C -0.5,54.5 -0.5,52.5 -0.5,50.5C 0.301916,49.0484 0.801916,47.3817 1,45.5C 1.58308,47.0016 2.41641,48.3349 3.5,49.5C 5.51107,47.8021 7.51107,46.1355 9.5,44.5C 11.6979,45.1653 14.0312,45.8319 16.5,46.5C 13.973,48.6054 11.6397,50.9387 9.5,53.5C 10.3128,54.8139 11.3128,55.9805 12.5,57C 18.6804,59.9632 24.0137,58.9632 28.5,54C 27.5,53 26.5,52 25.5,51C 30.511,50.4153 35.511,49.7486 40.5,49C 42.4521,46.9261 44.2854,44.7594 46,42.5C 45.3333,37.1667 44.6667,31.8333 44,26.5C 47.3333,31.8333 50.6667,37.1667 54,42.5C 51.2932,51.6085 47.9599,60.6085 44,69.5C 43.6667,64.8333 43.3333,60.1667 43,55.5C 41,60.8333 39,66.1667 37,71.5C 33.7098,74.5484 30.2098,77.2151 26.5,79.5 Z"/></g>
<g><path style="opacity:1" fill="#fefaf4" d="M 14.5,61.5 C 18.5016,64.0339 22.5016,64.0339 26.5,61.5C 28.3885,62.604 30.0552,63.9373 31.5,65.5C 28.1927,67.6404 25.026,69.9737 22,72.5C 17.5166,70.2038 15.0166,66.5371 14.5,61.5 Z"/></g>
<g><path style="opacity:1" fill="#ea9508" d="M 93.5,61.5 C 87.6333,79.3677 75.6333,90.701 57.5,95.5C 50.8333,95.5 44.1667,95.5 37.5,95.5C 35.4006,94.3882 33.0673,93.7215 30.5,93.5C 26.1559,91.3295 22.1559,88.6628 18.5,85.5C 21.1589,83.5543 23.8256,81.5543 26.5,79.5C 26.0472,80.4584 25.3805,81.2917 24.5,82C 31.2344,86.6413 38.5677,88.4747 46.5,87.5C 50.0167,79.8027 53.5167,72.1361 57,64.5C 56.6828,71.7963 56.1828,79.1296 55.5,86.5C 60.3624,86.2125 64.6957,84.5458 68.5,81.5C 69.3321,72.1845 69.8321,62.8511 70,53.5C 72.4085,59.9788 75.0752,66.3121 78,72.5C 80.9462,68.9422 83.1129,64.9422 84.5,60.5C 82.6319,56.2269 80.9653,51.8935 79.5,47.5C 79.369,46.7611 79.5357,46.0944 80,45.5C 81.3926,49.2857 83.0593,52.9523 85,56.5C 87.0324,54.2267 89.5324,52.56 92.5,51.5C 93.3078,49.5767 93.8078,47.5767 94,45.5C 94.4759,49.1022 93.9759,52.6022 92.5,56C 92.6962,57.8784 93.0295,59.7117 93.5,61.5 Z"/></g>
<g><path style="opacity:0.004" fill="#5b6600" d="M 30.5,93.5 C 29.8333,94.1667 29.8333,94.1667 30.5,93.5 Z"/></g>
</svg>
