<?xml version="1.0" encoding="UTF-8"?>
<!DOCTYPE svg PUBLIC "-//W3C//DTD SVG 1.1//EN" "http://www.w3.org/Graphics/SVG/1.1/DTD/svg11.dtd">
<svg xmlns="http://www.w3.org/2000/svg" version="1.1" width="96px" height="96px" style="shape-rendering:geometricPrecision; text-rendering:geometricPrecision; image-rendering:optimizeQuality; fill-rule:evenodd; clip-rule:evenodd" xmlns:xlink="http://www.w3.org/1999/xlink">
<g><path style="opacity:0.973" fill="#050627" d="M 41.5,-0.5 C 45.5,-0.5 49.5,-0.5 53.5,-0.5C 68.0606,2.55802 79.5606,10.2247 88,22.5C 91.0122,28.0718 93.5122,33.7385 95.5,39.5C 95.5,44.8333 95.5,50.1667 95.5,55.5C 89.1667,75.8333 75.8333,89.1667 55.5,95.5C 50.1667,95.5 44.8333,95.5 39.5,95.5C 22.6015,90.7704 10.4349,80.437 3,64.5C 1.9662,60.6674 0.799536,57.0007 -0.5,53.5C -0.5,49.5 -0.5,45.5 -0.5,41.5C 4.50389,18.4961 18.5039,4.49611 41.5,-0.5 Z"/></g>
<g><path style="opacity:1" fill="#0a092d" d="M 37.5,4.5 C 44.175,4.33375 50.8417,4.50042 57.5,5C 64.372,7.92967 71.372,11.263 78.5,15C 83.3017,21.9398 87.3017,29.2731 90.5,37C 90.4807,43.8459 90.4807,50.6793 90.5,57.5C 88.1707,60.3597 86.8374,63.693 86.5,67.5C 83.8557,70.1085 81.689,73.1085 80,76.5C 76.0262,80.2162 71.8596,83.5496 67.5,86.5C 65.2338,87.3142 62.9005,87.8142 60.5,88C 60.0019,89.1581 59.1685,89.9915 58,90.5C 51.1541,90.4807 44.3207,90.4807 37.5,90.5C 33.6037,87.8087 29.2704,86.142 24.5,85.5C 24.5,84.5 24.5,83.5 24.5,82.5C 21.8431,82.838 19.5098,82.1713 17.5,80.5C 14.0511,74.1643 10.3845,67.9976 6.5,62C 7.92953,60.1197 7.5962,58.6197 5.5,57.5C 4.16667,50.8333 4.16667,44.1667 5.5,37.5C 6.71986,37.1131 7.38652,36.2798 7.5,35C 6.16667,33.6667 6.16667,32.3333 7.5,31C 10.3366,26.9856 13.0033,22.819 15.5,18.5C 21.1197,14.1133 26.953,10.1133 33,6.5C 35.501,8.05582 37.001,7.38915 37.5,4.5 Z"/></g>
<g><path style="opacity:1" fill="#110d35" d="M 66.5,80.5 C 66.5,79.8333 66.5,79.1667 66.5,78.5C 66.5,78.1667 66.5,77.8333 66.5,77.5C 76.0802,69.8509 81.4136,59.6842 82.5,47C 80.9141,32.2801 73.5808,21.7801 60.5,15.5C 43.0811,10.0673 28.9145,14.7339 18,29.5C 9.67054,47.1861 12.8372,62.5194 27.5,75.5C 27.4326,76.9587 27.7659,78.2921 28.5,79.5C 27.8333,79.5 27.1667,79.5 26.5,79.5C 20.007,77.1817 15.1737,72.8483 12,66.5C 4.15874,47.5956 7.65874,30.5956 22.5,15.5C 25.6789,13.9063 29.0122,12.9063 32.5,12.5C 52.7412,6.80577 68.5745,12.1391 80,28.5C 82.4685,34.0693 84.3019,39.736 85.5,45.5C 85.1543,46.6956 84.6543,46.6956 84,45.5C 84.8309,58.5106 80.1642,69.1773 70,77.5C 69.6667,77.1667 69.3333,76.8333 69,76.5C 68.7996,78.3197 67.9663,79.653 66.5,80.5 Z"/></g>
<g><path style="opacity:1" fill="#24164f" d="M 44.5,18.5 C 41.6703,22.805 39.5037,27.4717 38,32.5C 38.1019,40.4957 38.1019,48.4957 38,56.5C 31.8408,62.1413 29.3408,69.1413 30.5,77.5C 29.5135,72.6804 28.8468,67.6804 28.5,62.5C 27.5,62.5 26.5,62.5 25.5,62.5C 18.374,42.0804 24.5407,27.0804 44,17.5C 44.3988,17.7284 44.5654,18.0618 44.5,18.5 Z"/></g>
<g><path style="opacity:1" fill="#e0560e" d="M 46.5,15.5 C 47.4916,15.3284 48.1583,15.6618 48.5,16.5C 47.507,24.9839 47.1736,33.6506 47.5,42.5C 47.1796,45.8984 47.513,49.2317 48.5,52.5C 51.0403,50.8611 53.2069,51.1944 55,53.5C 55.1909,51.2922 55.6909,49.2922 56.5,47.5C 55.3891,52.849 56.8891,57.1824 61,60.5C 63.9956,65.7704 65.1623,71.4371 64.5,77.5C 64.5654,77.9382 64.3988,78.2716 64,78.5C 60.8333,75.3333 57.6667,72.1667 54.5,69C 50.6251,67.4796 46.6251,67.1462 42.5,68C 38.3672,71.1311 34.5338,74.6311 31,78.5C 30.6012,78.2716 30.4346,77.9382 30.5,77.5C 29.3408,69.1413 31.8408,62.1413 38,56.5C 38.1019,48.4957 38.1019,40.4957 38,32.5C 39.5037,27.4717 41.6703,22.805 44.5,18.5C 45.9063,18.0269 46.573,17.0269 46.5,15.5 Z"/></g>
<g><path style="opacity:1" fill="#0e0b32" d="M 26.5,79.5 C 27.1667,79.5 27.8333,79.5 28.5,79.5C 32.1216,79.6328 35.955,80.2994 40,81.5C 40.414,81.0426 40.914,80.7093 41.5,80.5C 43.192,81.9686 45.192,82.6353 47.5,82.5C 52.4164,81.7277 57.2498,80.7277 62,79.5C 62.3076,80.3081 62.8076,80.9747 63.5,81.5C 64.4168,80.8728 65.4168,80.5394 66.5,80.5C 67.9663,79.653 68.7996,78.3197 69,76.5C 69.3333,76.8333 69.6667,77.1667 70,77.5C 80.1642,69.1773 84.8309,58.5106 84,45.5C 84.6543,46.6956 85.1543,46.6956 85.5,45.5C 84.3019,39.736 82.4685,34.0693 80,28.5C 68.5745,12.1391 52.7412,6.80577 32.5,12.5C 32.4142,11.5041 32.7476,10.6708 33.5,10C 36.4372,9.8999 39.1039,9.06657 41.5,7.5C 45.6036,7.96013 49.6036,7.96013 53.5,7.5C 63.8167,9.15976 72.15,14.1598 78.5,22.5C 81.2545,26.789 83.4211,31.4557 85,36.5C 85.9246,37.0465 86.7579,37.7132 87.5,38.5C 87.4148,44.0738 87.4148,49.5738 87.5,55C 80.0098,78.1101 65.0098,88.7767 42.5,87C 38.7479,85.8834 34.9145,85.0501 31,84.5C 28.9449,83.2811 27.4449,81.6144 26.5,79.5 Z"/></g>
<g><path style="opacity:1" fill="#17103d" d="M 66.5,77.5 C 65.413,71.8746 67.0797,67.3746 71.5,64C 71.1667,63.6667 70.8333,63.3333 70.5,63C 76.3638,54.0989 77.0305,44.4323 72.5,34C 68.4114,31.5874 64.578,28.754 61,25.5C 59.4675,24.3047 57.9675,24.3047 56.5,25.5C 55.081,23.6641 53.9143,21.6641 53,19.5C 52.31,18.2617 51.81,18.2617 51.5,19.5C 50.2719,18.6935 49.2719,17.6935 48.5,16.5C 48.1583,15.6618 47.4916,15.3284 46.5,15.5C 46.44,14.9569 46.1067,14.6236 45.5,14.5C 40.2376,17.0306 34.9043,19.3639 29.5,21.5C 29.0332,23.711 28.0332,25.711 26.5,27.5C 25.914,27.2907 25.414,26.9574 25,26.5C 23.885,28.9081 22.2184,30.9081 20,32.5C 19.5648,36.6096 18.3982,40.443 16.5,44C 16.962,47.0945 17.1287,50.2611 17,53.5C 18.9736,57.325 20.4736,61.325 21.5,65.5C 22.5,65.5 23.5,65.5 24.5,65.5C 24.3433,66.8734 24.51,68.2068 25,69.5C 26.7915,70.9119 27.9582,72.7452 28.5,75C 28.2716,75.3988 27.9382,75.5654 27.5,75.5C 12.8372,62.5194 9.67054,47.1861 18,29.5C 28.9145,14.7339 43.0811,10.0673 60.5,15.5C 73.5808,21.7801 80.9141,32.2801 82.5,47C 81.4136,59.6842 76.0802,69.8509 66.5,77.5 Z"/></g>
<g><path style="opacity:1" fill="#f7d249" d="M 48.5,16.5 C 49.2719,17.6935 50.2719,18.6935 51.5,19.5C 56.6599,26.8018 58.3265,34.8018 56.5,43.5C 53.7773,41.255 50.7773,40.9217 47.5,42.5C 47.1736,33.6506 47.507,24.9839 48.5,16.5 Z"/></g>
<g><path style="opacity:1" fill="#faa22b" d="M 56.5,43.5 C 56.5,44.8333 56.5,46.1667 56.5,47.5C 55.6909,49.2922 55.1909,51.2922 55,53.5C 53.2069,51.1944 51.0403,50.8611 48.5,52.5C 47.513,49.2317 47.1796,45.8984 47.5,42.5C 50.7773,40.9217 53.7773,41.255 56.5,43.5 Z"/></g>
<g><path style="opacity:1" fill="#23154d" d="M 66.5,77.5 C 66.5,77.8333 66.5,78.1667 66.5,78.5C 65.8333,78.1667 65.1667,77.8333 64.5,77.5C 65.1623,71.4371 63.9956,65.7704 61,60.5C 56.8891,57.1824 55.3891,52.849 56.5,47.5C 56.5,46.1667 56.5,44.8333 56.5,43.5C 58.3265,34.8018 56.6599,26.8018 51.5,19.5C 51.81,18.2617 52.31,18.2617 53,19.5C 53.9143,21.6641 55.081,23.6641 56.5,25.5C 57.9675,24.3047 59.4675,24.3047 61,25.5C 64.578,28.754 68.4114,31.5874 72.5,34C 77.0305,44.4323 76.3638,54.0989 70.5,63C 70.8333,63.3333 71.1667,63.6667 71.5,64C 67.0797,67.3746 65.413,71.8746 66.5,77.5 Z"/></g>
<g><path style="opacity:1" fill="#191142" d="M 46.5,15.5 C 46.573,17.0269 45.9063,18.0269 44.5,18.5C 44.5654,18.0618 44.3988,17.7284 44,17.5C 24.5407,27.0804 18.374,42.0804 25.5,62.5C 26.5,62.5 27.5,62.5 28.5,62.5C 28.8468,67.6804 29.5135,72.6804 30.5,77.5C 30.4346,77.9382 30.6012,78.2716 31,78.5C 34.5338,74.6311 38.3672,71.1311 42.5,68C 46.6251,67.1462 50.6251,67.4796 54.5,69C 57.6667,72.1667 60.8333,75.3333 64,78.5C 64.3988,78.2716 64.5654,77.9382 64.5,77.5C 65.1667,77.8333 65.8333,78.1667 66.5,78.5C 66.5,79.1667 66.5,79.8333 66.5,80.5C 65.4168,80.5394 64.4168,80.8728 63.5,81.5C 62.8076,80.9747 62.3076,80.3081 62,79.5C 57.2498,80.7277 52.4164,81.7277 47.5,82.5C 45.192,82.6353 43.192,81.9686 41.5,80.5C 40.914,80.7093 40.414,81.0426 40,81.5C 35.955,80.2994 32.1216,79.6328 28.5,79.5C 27.7659,78.2921 27.4326,76.9587 27.5,75.5C 27.9382,75.5654 28.2716,75.3988 28.5,75C 27.9582,72.7452 26.7915,70.9119 25,69.5C 24.51,68.2068 24.3433,66.8734 24.5,65.5C 23.5,65.5 22.5,65.5 21.5,65.5C 20.4736,61.325 18.9736,57.325 17,53.5C 17.1287,50.2611 16.962,47.0945 16.5,44C 18.3982,40.443 19.5648,36.6096 20,32.5C 22.2184,30.9081 23.885,28.9081 25,26.5C 25.414,26.9574 25.914,27.2907 26.5,27.5C 28.0332,25.711 29.0332,23.711 29.5,21.5C 34.9043,19.3639 40.2376,17.0306 45.5,14.5C 46.1067,14.6236 46.44,14.9569 46.5,15.5 Z"/></g>
</svg>
