<?xml version="1.0" encoding="UTF-8"?>
<!DOCTYPE svg PUBLIC "-//W3C//DTD SVG 1.1//EN" "http://www.w3.org/Graphics/SVG/1.1/DTD/svg11.dtd">
<svg xmlns="http://www.w3.org/2000/svg" version="1.1" width="200px" height="200px" style="shape-rendering:geometricPrecision; text-rendering:geometricPrecision; image-rendering:optimizeQuality; fill-rule:evenodd; clip-rule:evenodd" xmlns:xlink="http://www.w3.org/1999/xlink">
<g><path style="opacity:1" fill="#fefdfd" d="M -0.5,-0.5 C 66.1667,-0.5 132.833,-0.5 199.5,-0.5C 199.5,66.1667 199.5,132.833 199.5,199.5C 132.833,199.5 66.1667,199.5 -0.5,199.5C -0.5,132.833 -0.5,66.1667 -0.5,-0.5 Z"/></g>
<g><path style="opacity:1" fill="#a6343f" d="M 119.5,6.5 C 119.5,8.16667 119.5,9.83333 119.5,11.5C 118.85,11.1961 118.183,10.8627 117.5,10.5C 116.16,11.8665 114.827,13.1999 113.5,14.5C 114.066,10.6799 116.066,8.01327 119.5,6.5 Z"/></g>
<g><path style="opacity:1" fill="#925967" d="M 81.5,15.5 C 80.8333,15.5 80.1667,15.5 79.5,15.5C 80.1667,12.8333 80.8333,12.8333 81.5,15.5 Z"/></g>
<g><path style="opacity:1" fill="#c7122d" d="M 119.5,11.5 C 122.501,17.8318 123.168,24.4985 121.5,31.5C 121.167,31.5 120.833,31.5 120.5,31.5C 119.103,29.224 117.603,26.8907 116,24.5C 114.392,21.3792 113.559,18.0459 113.5,14.5C 114.827,13.1999 116.16,11.8665 117.5,10.5C 118.183,10.8627 118.85,11.1961 119.5,11.5 Z"/></g>
<g><path style="opacity:1" fill="#f8c8d2" d="M 81.5,15.5 C 82.6433,18.9758 82.8099,22.6425 82,26.5C 81.3292,27.2524 80.4959,27.5858 79.5,27.5C 80.4959,27.5858 81.3292,27.2524 82,26.5C 82.8099,22.6425 82.6433,18.9758 81.5,15.5 Z"/></g>
<g><path style="opacity:1" fill="#bc2b41" d="M 113.5,14.5 C 113.559,18.0459 114.392,21.3792 116,24.5C 117.603,26.8907 119.103,29.224 120.5,31.5C 120.372,33.0898 119.705,34.4231 118.5,35.5C 117.511,30.5183 115.677,25.8517 113,21.5C 112.204,18.9615 112.371,16.6282 113.5,14.5 Z"/></g>
<g><path style="opacity:1" fill="#b0293c" d="M 79.5,15.5 C 80.1667,15.5 80.8333,15.5 81.5,15.5C 81.9208,19.7424 81.2541,23.7424 79.5,27.5C 79.1667,28.1667 78.8333,28.8333 78.5,29.5C 77.5,30.1667 76.5,30.8333 75.5,31.5C 75.6056,28.8915 76.7723,26.8915 79,25.5C 80.1505,23.2462 80.4838,20.9129 80,18.5C 78,21.8333 75.3333,24.5 72,26.5C 70.7873,29.7675 70.454,33.1008 71,36.5C 71.6708,37.2524 72.5041,37.5858 73.5,37.5C 73.2631,41.5012 71.9297,42.1679 69.5,39.5C 67.7104,34.5749 68.2104,29.9082 71,25.5C 75.1106,23.225 77.9439,19.8917 79.5,15.5 Z"/></g>
<g><path style="opacity:1" fill="#cf062b" d="M 75.5,31.5 C 74.6373,33.4214 73.9707,35.4214 73.5,37.5C 72.5041,37.5858 71.6708,37.2524 71,36.5C 70.454,33.1008 70.7873,29.7675 72,26.5C 75.3333,24.5 78,21.8333 80,18.5C 80.4838,20.9129 80.1505,23.2462 79,25.5C 76.7723,26.8915 75.6056,28.8915 75.5,31.5 Z"/></g>
<g><path style="opacity:1" fill="#ba2337" d="M 114.5,39.5 C 111.612,38.4687 109.112,36.8021 107,34.5C 106.5,27.5079 106.334,20.5079 106.5,13.5C 101.71,14.0741 98.7096,16.7407 97.5,21.5C 96.1667,21.8333 94.8333,22.1667 93.5,22.5C 91.8449,25.0834 91.5116,27.7501 92.5,30.5C 92,30.8333 91.5,31.1667 91,31.5C 89.6667,30.8333 88.3333,30.1667 87,29.5C 85.1814,31.1257 83.8481,33.1257 83,35.5C 82.3292,36.2524 81.4959,36.5858 80.5,36.5C 80.8925,34.7162 81.5592,33.0495 82.5,31.5C 87.7792,25.5541 93.4459,19.8875 99.5,14.5C 102.692,12.9862 105.859,11.3196 109,9.5C 107.679,15.3711 107.346,21.3711 108,27.5C 109.937,31.7138 112.104,35.7138 114.5,39.5 Z"/></g>
<g><path style="opacity:1" fill="#fdeef2" d="M 119.5,6.5 C 116.066,8.01327 114.066,10.6799 113.5,14.5C 112.371,16.6282 112.204,18.9615 113,21.5C 115.677,25.8517 117.511,30.5183 118.5,35.5C 119.705,34.4231 120.372,33.0898 120.5,31.5C 120.833,31.5 121.167,31.5 121.5,31.5C 121.5,33.5 121.5,35.5 121.5,37.5C 120.5,37.5 119.5,37.5 118.5,37.5C 118.343,38.8734 118.51,40.2068 119,41.5C 121.218,42.9242 122.718,44.9242 123.5,47.5C 124.253,44.9654 123.92,42.4654 122.5,40C 123.536,38.3831 124.703,38.2164 126,39.5C 126.259,37.0095 126.093,34.5095 125.5,32C 125.454,30.272 125.954,28.772 127,27.5C 127.499,32.4889 127.666,37.4889 127.5,42.5C 126.887,49.3982 126.053,56.3982 125,63.5C 124.667,63.8333 124.333,64.1667 124,64.5C 123.988,59.2119 123.155,54.2119 121.5,49.5C 120.149,45.4584 117.815,42.1251 114.5,39.5C 112.104,35.7138 109.937,31.7138 108,27.5C 107.346,21.3711 107.679,15.3711 109,9.5C 105.859,11.3196 102.692,12.9862 99.5,14.5C 99.1961,13.8501 98.8627,13.1835 98.5,12.5C 101.774,11.5298 104.774,10.0298 107.5,8C 109.701,7.1751 111.534,7.6751 113,9.5C 114.017,7.62408 114.851,5.62408 115.5,3.5C 116.799,4.6937 118.132,5.6937 119.5,6.5 Z"/></g>
<g><path style="opacity:1" fill="#fdf1f4" d="M 78.5,29.5 C 79.1834,31.1765 80.5168,31.8432 82.5,31.5C 81.5592,33.0495 80.8925,34.7162 80.5,36.5C 78.1257,39.6859 77.1257,43.3526 77.5,47.5C 76.8333,52.1667 76.1667,56.8333 75.5,61.5C 70.7504,57.9984 68.0838,53.3317 67.5,47.5C 69.2018,45.1998 69.8685,42.5331 69.5,39.5C 71.9297,42.1679 73.2631,41.5012 73.5,37.5C 73.9707,35.4214 74.6373,33.4214 75.5,31.5C 76.5,30.8333 77.5,30.1667 78.5,29.5 Z"/></g>
<g><path style="opacity:1" fill="#b9384e" d="M 127.5,42.5 C 128.833,44.1667 130.167,45.8333 131.5,47.5C 130.5,47.5 129.5,47.5 128.5,47.5C 128.5,51.5 128.5,55.5 128.5,59.5C 127.303,62.5568 125.47,65.2235 123,67.5C 122.641,61.477 122.141,55.477 121.5,49.5C 123.155,54.2119 123.988,59.2119 124,64.5C 124.333,64.1667 124.667,63.8333 125,63.5C 126.053,56.3982 126.887,49.3982 127.5,42.5 Z"/></g>
<g><path style="opacity:1" fill="#ae2d3f" d="M 67.5,47.5 C 68.0838,53.3317 70.7504,57.9984 75.5,61.5C 75.8333,62.1667 76.1667,62.8333 76.5,63.5C 71.9437,60.8673 68.277,57.2006 65.5,52.5C 64.8165,52.8627 64.1499,53.1961 63.5,53.5C 64.3403,51.1475 65.6736,49.1475 67.5,47.5 Z"/></g>
<g><path style="opacity:1" fill="#b32638" d="M 80.5,36.5 C 78.751,45.0491 78.0843,53.7158 78.5,62.5C 77.5128,57.6946 77.1795,52.6946 77.5,47.5C 77.1257,43.3526 78.1257,39.6859 80.5,36.5 Z"/></g>
<g><path style="opacity:1" fill="#f4b1b9" d="M 77.5,47.5 C 77.1795,52.6946 77.5128,57.6946 78.5,62.5C 78.5912,64.6977 77.9245,65.0311 76.5,63.5C 76.1667,62.8333 75.8333,62.1667 75.5,61.5C 76.1667,56.8333 76.8333,52.1667 77.5,47.5 Z"/></g>
<g><path style="opacity:1" fill="#cf0328" d="M 114.5,39.5 C 117.815,42.1251 120.149,45.4584 121.5,49.5C 122.141,55.477 122.641,61.477 123,67.5C 125.47,65.2235 127.303,62.5568 128.5,59.5C 129.404,58.791 129.737,57.791 129.5,56.5C 130.5,56.5 131.5,56.5 132.5,56.5C 132.178,60.747 133.011,64.747 135,68.5C 135.667,78.1667 135.667,87.8333 135,97.5C 132.068,100.604 130.068,104.271 129,108.5C 127.622,110.213 125.955,111.547 124,112.5C 122.858,116.932 120.025,119.598 115.5,120.5C 118.366,116.961 121.199,113.295 124,109.5C 124.658,107.2 125.158,104.867 125.5,102.5C 124.822,97.1858 124.322,91.8525 124,86.5C 121.139,82.0907 118.306,77.7574 115.5,73.5C 114.041,73.5674 112.708,73.2341 111.5,72.5C 111.762,71.0222 111.429,69.6888 110.5,68.5C 108.582,66.5842 106.748,64.5842 105,62.5C 104.042,57.8768 103.375,53.2101 103,48.5C 101.989,47.6634 100.822,47.33 99.5,47.5C 98.3651,52.2986 95.6984,55.9653 91.5,58.5C 89.6284,60.9099 88.295,63.5766 87.5,66.5C 85.9826,66.5106 84.8159,67.1772 84,68.5C 83.7104,70.0441 83.0437,71.3774 82,72.5C 81.3333,71.1667 80.6667,71.1667 80,72.5C 79.4473,79.0228 78.2806,85.3561 76.5,91.5C 75.1332,98.369 76.1332,105.036 79.5,111.5C 79.3433,112.873 79.51,114.207 80,115.5C 83.1604,117.992 86.327,120.492 89.5,123C 92.9398,123.649 96.2732,124.482 99.5,125.5C 102.078,125.558 104.411,124.891 106.5,123.5C 106.426,125.411 105.426,126.578 103.5,127C 97.4309,127.512 91.4309,128.346 85.5,129.5C 85.719,128.325 85.3857,127.325 84.5,126.5C 81.6041,126.293 78.6041,126.127 75.5,126C 72.4694,124.141 69.8028,121.807 67.5,119C 66.255,118.209 64.9217,117.709 63.5,117.5C 61.684,115.882 60.3507,113.882 59.5,111.5C 57.7698,106.775 56.1031,101.942 54.5,97C 54.1639,95.9701 53.4972,95.4701 52.5,95.5C 52.5,94.5 52.5,93.5 52.5,92.5C 51.5945,84.599 53.0945,77.2656 57,70.5C 57.4966,68.1902 57.6633,65.8568 57.5,63.5C 59.0002,59.827 61.0002,56.4937 63.5,53.5C 64.1499,53.1961 64.8165,52.8627 65.5,52.5C 68.277,57.2006 71.9437,60.8673 76.5,63.5C 77.9245,65.0311 78.5912,64.6977 78.5,62.5C 78.0843,53.7158 78.751,45.0491 80.5,36.5C 81.4959,36.5858 82.3292,36.2524 83,35.5C 83.8481,33.1257 85.1814,31.1257 87,29.5C 88.3333,30.1667 89.6667,30.8333 91,31.5C 91.5,31.1667 92,30.8333 92.5,30.5C 91.5116,27.7501 91.8449,25.0834 93.5,22.5C 94.8333,22.1667 96.1667,21.8333 97.5,21.5C 98.7096,16.7407 101.71,14.0741 106.5,13.5C 106.334,20.5079 106.5,27.5079 107,34.5C 109.112,36.8021 111.612,38.4687 114.5,39.5 Z"/></g>
<g><path style="opacity:1" fill="#c51710" d="M 111.5,72.5 C 107.26,70.0667 104.427,66.4001 103,61.5C 102.821,58.4465 102.321,55.4465 101.5,52.5C 98.1453,54.5213 95.4787,57.188 93.5,60.5C 91.5,62.5 89.5,64.5 87.5,66.5C 88.295,63.5766 89.6284,60.9099 91.5,58.5C 95.6984,55.9653 98.3651,52.2986 99.5,47.5C 100.822,47.33 101.989,47.6634 103,48.5C 103.375,53.2101 104.042,57.8768 105,62.5C 106.748,64.5842 108.582,66.5842 110.5,68.5C 111.429,69.6888 111.762,71.0222 111.5,72.5 Z"/></g>
<g><path style="opacity:1" fill="#ab2b40" d="M 134.5,52.5 C 147.441,67.8622 150.441,84.8622 143.5,103.5C 145.327,95.5978 145.827,87.5978 145,79.5C 143.252,73.6864 141.252,68.0198 139,62.5C 138.276,60.0411 136.943,59.0411 135,59.5C 134.503,57.1902 134.337,54.8568 134.5,52.5 Z"/></g>
<g><path style="opacity:1" fill="#b8062d" d="M 131.5,47.5 C 133.25,48.6594 134.25,50.326 134.5,52.5C 134.337,54.8568 134.503,57.1902 135,59.5C 136.943,59.0411 138.276,60.0411 139,62.5C 141.252,68.0198 143.252,73.6864 145,79.5C 145.827,87.5978 145.327,95.5978 143.5,103.5C 142.179,110.141 138.846,115.475 133.5,119.5C 132.778,119.082 132.278,118.416 132,117.5C 129.943,123.458 126.443,124.624 121.5,121C 124.063,120.237 124.063,119.737 121.5,119.5C 118.811,119.545 117.477,120.879 117.5,123.5C 119.59,123.45 120.923,124.45 121.5,126.5C 116.685,129.761 111.352,131.261 105.5,131C 105.833,131.333 106.167,131.667 106.5,132C 100.843,132.499 95.1764,132.666 89.5,132.5C 82.8263,131.723 76.8263,129.39 71.5,125.5C 68.5271,123.194 65.8605,120.527 63.5,117.5C 64.9217,117.709 66.255,118.209 67.5,119C 69.8028,121.807 72.4694,124.141 75.5,126C 78.6041,126.127 81.6041,126.293 84.5,126.5C 85.3857,127.325 85.719,128.325 85.5,129.5C 91.4309,128.346 97.4309,127.512 103.5,127C 105.426,126.578 106.426,125.411 106.5,123.5C 109.815,123.259 112.815,122.259 115.5,120.5C 120.025,119.598 122.858,116.932 124,112.5C 125.955,111.547 127.622,110.213 129,108.5C 130.068,104.271 132.068,100.604 135,97.5C 135.667,87.8333 135.667,78.1667 135,68.5C 133.011,64.747 132.178,60.747 132.5,56.5C 131.5,56.5 130.5,56.5 129.5,56.5C 129.737,57.791 129.404,58.791 128.5,59.5C 128.5,55.5 128.5,51.5 128.5,47.5C 129.5,47.5 130.5,47.5 131.5,47.5 Z"/></g>
<g><path style="opacity:1" fill="#bb3d4f" d="M 57.5,63.5 C 57.6633,65.8568 57.4966,68.1902 57,70.5C 53.0945,77.2656 51.5945,84.599 52.5,92.5C 50.9772,82.3651 52.6439,72.6985 57.5,63.5 Z"/></g>
<g><path style="opacity:1" fill="#f69216" d="M 112.5,96.5 C 110.908,103.115 107.574,108.781 102.5,113.5C 98.1069,115.932 93.4403,116.766 88.5,116C 86.8588,114.871 85.8588,113.371 85.5,111.5C 101.549,103.037 105.882,90.3707 98.5,73.5C 96.4632,71.7976 94.7966,69.7976 93.5,67.5C 97.7697,65.8775 100.936,67.2109 103,71.5C 103.413,74.2321 104.08,76.8987 105,79.5C 105.667,80.8333 106.333,80.8333 107,79.5C 107.499,84.8229 107.666,90.1563 107.5,95.5C 109.292,95.366 110.958,95.6993 112.5,96.5 Z"/></g>
<g><path style="opacity:1" fill="#c12011" d="M 87.5,66.5 C 84.4994,71.1679 81.9994,76.1679 80,81.5C 79.1793,87.5477 80.346,93.2144 83.5,98.5C 83.0431,99.2975 82.3764,99.6309 81.5,99.5C 80.2073,97.7041 78.7073,96.0375 77,94.5C 76.5172,93.552 76.3505,92.552 76.5,91.5C 78.2806,85.3561 79.4473,79.0228 80,72.5C 80.6667,71.1667 81.3333,71.1667 82,72.5C 83.0437,71.3774 83.7104,70.0441 84,68.5C 84.8159,67.1772 85.9826,66.5106 87.5,66.5 Z"/></g>
<g><path style="opacity:1" fill="#fda81c" d="M 93.5,67.5 C 94.7966,69.7976 96.4632,71.7976 98.5,73.5C 105.882,90.3707 101.549,103.037 85.5,111.5C 83.8333,111.5 82.1667,111.5 80.5,111.5C 80.1667,111.5 79.8333,111.5 79.5,111.5C 76.1332,105.036 75.1332,98.369 76.5,91.5C 76.3505,92.552 76.5172,93.552 77,94.5C 78.7073,96.0375 80.2073,97.7041 81.5,99.5C 82.209,100.404 83.209,100.737 84.5,100.5C 83.9716,96.7876 83.1382,93.121 82,89.5C 81.3333,86.1667 81.3333,82.8333 82,79.5C 84.9274,74.077 88.4274,69.077 92.5,64.5C 93.3857,65.325 93.719,66.325 93.5,67.5 Z"/></g>
<g><path style="opacity:1" fill="#f78c20" d="M 107.5,75.5 C 111.4,81.8546 113.067,88.8546 112.5,96.5C 110.958,95.6993 109.292,95.366 107.5,95.5C 107.666,90.1563 107.499,84.8229 107,79.5C 106.333,80.8333 105.667,80.8333 105,79.5C 104.08,76.8987 103.413,74.2321 103,71.5C 100.936,67.2109 97.7697,65.8775 93.5,67.5C 93.719,66.325 93.3857,65.325 92.5,64.5C 88.4274,69.077 84.9274,74.077 82,79.5C 81.3333,82.8333 81.3333,86.1667 82,89.5C 83.1382,93.121 83.9716,96.7876 84.5,100.5C 83.209,100.737 82.209,100.404 81.5,99.5C 82.3764,99.6309 83.0431,99.2975 83.5,98.5C 80.346,93.2144 79.1793,87.5477 80,81.5C 81.9994,76.1679 84.4994,71.1679 87.5,66.5C 89.5,64.5 91.5,62.5 93.5,60.5C 95.8654,59.9916 98.1987,59.3249 100.5,58.5C 102.147,63.9495 103.98,69.2828 106,74.5C 106.383,75.056 106.883,75.3893 107.5,75.5 Z"/></g>
<g><path style="opacity:1" fill="#f86a2b" d="M 111.5,72.5 C 113.158,75.7945 115.324,78.7945 118,81.5C 124.643,91.3477 125.143,101.348 119.5,111.5C 119.176,106.655 120.176,102.155 122.5,98C 122.079,95.8154 121.579,93.6487 121,91.5C 117.618,87.1757 114.784,82.5091 112.5,77.5C 110.978,76.438 109.312,75.7713 107.5,75.5C 106.883,75.3893 106.383,75.056 106,74.5C 103.98,69.2828 102.147,63.9495 100.5,58.5C 98.1987,59.3249 95.8654,59.9916 93.5,60.5C 95.4787,57.188 98.1453,54.5213 101.5,52.5C 102.321,55.4465 102.821,58.4465 103,61.5C 104.427,66.4001 107.26,70.0667 111.5,72.5 Z"/></g>
<g><path style="opacity:1" fill="#ef7819" d="M 107.5,75.5 C 109.312,75.7713 110.978,76.438 112.5,77.5C 114.784,82.5091 117.618,87.1757 121,91.5C 121.579,93.6487 122.079,95.8154 122.5,98C 120.176,102.155 119.176,106.655 119.5,111.5C 110.82,122.942 99.8196,125.442 86.5,119C 84.6664,116.337 82.6664,113.837 80.5,111.5C 82.1667,111.5 83.8333,111.5 85.5,111.5C 85.8588,113.371 86.8588,114.871 88.5,116C 93.4403,116.766 98.1069,115.932 102.5,113.5C 107.574,108.781 110.908,103.115 112.5,96.5C 113.067,88.8546 111.4,81.8546 107.5,75.5 Z"/></g>
<g><path style="opacity:1" fill="#b3293d" d="M 52.5,95.5 C 53.4972,95.4701 54.1639,95.9701 54.5,97C 56.1031,101.942 57.7698,106.775 59.5,111.5C 56.0999,106.694 53.7666,101.36 52.5,95.5 Z"/></g>
<g><path style="opacity:1" fill="#c81a13" d="M 111.5,72.5 C 112.708,73.2341 114.041,73.5674 115.5,73.5C 118.306,77.7574 121.139,82.0907 124,86.5C 124.322,91.8525 124.822,97.1858 125.5,102.5C 125.158,104.867 124.658,107.2 124,109.5C 121.199,113.295 118.366,116.961 115.5,120.5C 112.815,122.259 109.815,123.259 106.5,123.5C 104.411,124.891 102.078,125.558 99.5,125.5C 96.2732,124.482 92.9398,123.649 89.5,123C 86.327,120.492 83.1604,117.992 80,115.5C 79.51,114.207 79.3433,112.873 79.5,111.5C 79.8333,111.5 80.1667,111.5 80.5,111.5C 82.6664,113.837 84.6664,116.337 86.5,119C 99.8196,125.442 110.82,122.942 119.5,111.5C 125.143,101.348 124.643,91.3477 118,81.5C 115.324,78.7945 113.158,75.7945 111.5,72.5 Z"/></g>
<g><path style="opacity:1" fill="#fdedf1" d="M 71.5,125.5 C 76.8263,129.39 82.8263,131.723 89.5,132.5C 95.6529,133.653 101.986,133.82 108.5,133C 112.112,131.85 115.778,131.017 119.5,130.5C 118.942,131.79 117.942,132.623 116.5,133C 118.167,133.333 119.833,133.667 121.5,134C 119.79,135.651 118.456,137.484 117.5,139.5C 115.167,139.5 112.833,139.5 110.5,139.5C 110.5,148.833 110.5,158.167 110.5,167.5C 113.167,167.5 115.833,167.5 118.5,167.5C 118.5,163.167 118.5,158.833 118.5,154.5C 118.833,154.5 119.167,154.5 119.5,154.5C 121.115,157.45 123.115,160.116 125.5,162.5C 124.07,162.579 122.736,162.246 121.5,161.5C 120.585,162.328 119.919,163.328 119.5,164.5C 120.711,165.72 120.711,166.887 119.5,168C 116.854,168.497 114.187,168.664 111.5,168.5C 109.143,168.337 106.81,168.503 104.5,169C 103.748,169.671 103.414,170.504 103.5,171.5C 103.167,172.5 102.5,173.167 101.5,173.5C 99.744,172.448 99.0773,170.781 99.5,168.5C 97.1667,168.5 94.8333,168.5 92.5,168.5C 92.7947,166.265 92.4614,164.265 91.5,162.5C 91.5,161.833 91.5,161.167 91.5,160.5C 92.8333,160.5 94.1667,160.5 95.5,160.5C 95.8333,161.167 96.1667,161.833 96.5,162.5C 97.1175,164.229 98.1175,165.729 99.5,167C 102.5,167.667 105.5,167.667 108.5,167C 106.934,164.674 105.268,162.508 103.5,160.5C 104.013,158.146 105.179,156.146 107,154.5C 109.481,146.446 106.648,141.779 98.5,140.5C 93.3595,139.512 88.0262,139.179 82.5,139.5C 82.2882,137.616 81.2882,136.283 79.5,135.5C 80.5,134.667 81.5,133.833 82.5,133C 77.4018,132.461 73.7352,129.961 71.5,125.5 Z"/></g>
<g><path style="opacity:1" fill="#a41833" d="M 133.5,119.5 C 132.375,121.129 131.041,122.629 129.5,124C 125.931,125.942 122.598,128.108 119.5,130.5C 115.778,131.017 112.112,131.85 108.5,133C 101.986,133.82 95.6529,133.653 89.5,132.5C 95.1764,132.666 100.843,132.499 106.5,132C 106.167,131.667 105.833,131.333 105.5,131C 111.352,131.261 116.685,129.761 121.5,126.5C 120.923,124.45 119.59,123.45 117.5,123.5C 117.477,120.879 118.811,119.545 121.5,119.5C 124.063,119.737 124.063,120.237 121.5,121C 126.443,124.624 129.943,123.458 132,117.5C 132.278,118.416 132.778,119.082 133.5,119.5 Z"/></g>
<g><path style="opacity:1" fill="#d15469" d="M 149.5,139.5 C 158.167,139.5 166.833,139.5 175.5,139.5C 175.5,141.833 175.5,144.167 175.5,146.5C 172.5,146.5 169.5,146.5 166.5,146.5C 168.948,145.527 171.615,145.194 174.5,145.5C 174.5,143.833 174.5,142.167 174.5,140.5C 166.5,140.5 158.5,140.5 150.5,140.5C 150.5,142.167 150.5,143.833 150.5,145.5C 153.059,145.198 155.393,145.532 157.5,146.5C 154.833,146.5 152.167,146.5 149.5,146.5C 149.5,144.167 149.5,141.833 149.5,139.5 Z"/></g>
<g><path style="opacity:1" fill="#c96374" d="M 61.5,158.5 C 60.5104,152.69 60.1771,146.69 60.5,140.5C 58.1667,140.5 55.8333,140.5 53.5,140.5C 53.5,146.5 53.5,152.5 53.5,158.5C 52.596,157.791 52.2627,156.791 52.5,155.5C 52.5,150.167 52.5,144.833 52.5,139.5C 55.5,139.5 58.5,139.5 61.5,139.5C 61.5,145.833 61.5,152.167 61.5,158.5 Z"/></g>
<g><path style="opacity:1" fill="#af1931" d="M 61.5,158.5 C 62.4919,160.026 63.9919,160.693 66,160.5C 68.6257,160.95 70.1257,159.95 70.5,157.5C 71.4889,152.025 71.8222,146.358 71.5,140.5C 74.0593,140.198 76.3926,140.532 78.5,141.5C 76.2341,141.141 74.4007,141.808 73,143.5C 72.8299,149.196 72.3299,154.862 71.5,160.5C 67.2827,163.486 63.4494,163.153 60,159.5C 59.5005,153.509 59.3338,147.509 59.5,141.5C 57.8333,141.5 56.1667,141.5 54.5,141.5C 54.0255,149.324 54.6921,156.991 56.5,164.5C 55.5,164.167 54.8333,163.5 54.5,162.5C 54.1667,161.167 53.8333,159.833 53.5,158.5C 53.5,152.5 53.5,146.5 53.5,140.5C 55.8333,140.5 58.1667,140.5 60.5,140.5C 60.1771,146.69 60.5104,152.69 61.5,158.5 Z"/></g>
<g><path style="opacity:1" fill="#c30e2c" d="M 98.5,140.5 C 106.648,141.779 109.481,146.446 107,154.5C 105.179,156.146 104.013,158.146 103.5,160.5C 102.876,160.083 102.543,159.416 102.5,158.5C 103.497,155.838 104.497,153.172 105.5,150.5C 103.914,151.027 102.58,150.361 101.5,148.5C 101.5,147.5 101.5,146.5 101.5,145.5C 97.4295,145.234 93.4295,145.567 89.5,146.5C 88.5344,148.396 88.2011,150.396 88.5,152.5C 87.0469,149.049 87.7135,145.883 90.5,143C 88.5273,142.505 86.5273,142.338 84.5,142.5C 84.5,150.167 84.5,157.833 84.5,165.5C 86.1667,165.5 87.8333,165.5 89.5,165.5C 89.5,163.5 89.5,161.5 89.5,159.5C 91.7354,159.205 93.7354,159.539 95.5,160.5C 94.1667,160.5 92.8333,160.5 91.5,160.5C 90.5386,162.265 90.2053,164.265 90.5,166.5C 88.1667,166.5 85.8333,166.5 83.5,166.5C 83.5,157.833 83.5,149.167 83.5,140.5C 88.5,140.5 93.5,140.5 98.5,140.5 Z"/></g>
<g><path style="opacity:1" fill="#a72039" d="M 148.5,139.5 C 148.5,148.833 148.5,158.167 148.5,167.5C 145.833,167.5 143.167,167.5 140.5,167.5C 140.5,158.167 140.5,148.833 140.5,139.5C 143.167,139.5 145.833,139.5 148.5,139.5 Z"/></g>
<g><path style="opacity:1" fill="#b5475c" d="M 42.5,140.5 C 36.8333,140.5 31.1667,140.5 25.5,140.5C 25.5,149.5 25.5,158.5 25.5,167.5C 24.5064,158.348 24.1731,149.015 24.5,139.5C 30.69,139.177 36.69,139.51 42.5,140.5 Z"/></g>
<g><path style="opacity:1" fill="#db7083" d="M 78.5,159.5 C 78.5,154.167 78.5,148.833 78.5,143.5C 78.5,142.833 78.5,142.167 78.5,141.5C 76.3926,140.532 74.0593,140.198 71.5,140.5C 71.8222,146.358 71.4889,152.025 70.5,157.5C 70.5,151.5 70.5,145.5 70.5,139.5C 73.5,139.5 76.5,139.5 79.5,139.5C 79.824,146.354 79.4907,153.021 78.5,159.5 Z"/></g>
<g><path style="opacity:1" fill="#d00427" d="M 78.5,141.5 C 78.5,142.167 78.5,142.833 78.5,143.5C 77.8335,148.681 77.1668,154.015 76.5,159.5C 74.3077,164.099 70.641,166.432 65.5,166.5C 62.3082,166.551 59.3082,165.884 56.5,164.5C 54.6921,156.991 54.0255,149.324 54.5,141.5C 56.1667,141.5 57.8333,141.5 59.5,141.5C 59.3338,147.509 59.5005,153.509 60,159.5C 63.4494,163.153 67.2827,163.486 71.5,160.5C 72.3299,154.862 72.8299,149.196 73,143.5C 74.4007,141.808 76.2341,141.141 78.5,141.5 Z"/></g>
<g><path style="opacity:1" fill="#b42137" d="M 42.5,140.5 C 49.7639,141.919 51.4306,145.919 47.5,152.5C 48.5244,153.852 49.5244,155.185 50.5,156.5C 50.5,158.167 50.5,159.833 50.5,161.5C 49.5215,164.971 47.1882,166.805 43.5,167C 37.5092,167.499 31.5092,167.666 25.5,167.5C 25.5,158.5 25.5,149.5 25.5,140.5C 31.1667,140.5 36.8333,140.5 42.5,140.5 Z"/></g>
<g><path style="opacity:1" fill="#d0032a" d="M 26.5,141.5 C 33.2569,141.123 39.9236,141.623 46.5,143C 46.7366,147.068 46.9033,151.234 47,155.5C 49.629,157.335 50.129,159.669 48.5,162.5C 46.3761,163.458 44.3761,164.625 42.5,166C 37.1771,166.499 31.8437,166.666 26.5,166.5C 26.5,158.167 26.5,149.833 26.5,141.5 Z"/></g>
<g><path style="opacity:1" fill="#fcefec" d="M 39.5,146.5 C 40.7911,147.542 40.7911,148.708 39.5,150C 37.5273,150.495 35.5273,150.662 33.5,150.5C 33.5,149.167 33.5,147.833 33.5,146.5C 35.5,146.5 37.5,146.5 39.5,146.5 Z"/></g>
<g><path style="opacity:1" fill="#f399a7" d="M 39.5,146.5 C 37.5,146.5 35.5,146.5 33.5,146.5C 33.5,147.833 33.5,149.167 33.5,150.5C 32.8333,150.5 32.5,150.167 32.5,149.5C 32.5,148.167 32.5,146.833 32.5,145.5C 35.0593,145.198 37.3926,145.532 39.5,146.5 Z"/></g>
<g><path style="opacity:1" fill="#b5243a" d="M 33.5,150.5 C 35.5273,150.662 37.5273,150.495 39.5,150C 40.7911,148.708 40.7911,147.542 39.5,146.5C 37.3926,145.532 35.0593,145.198 32.5,145.5C 32.5,146.833 32.5,148.167 32.5,149.5C 30.2901,148.545 29.9568,147.045 31.5,145C 34.8333,144.333 38.1667,144.333 41.5,145C 42.8333,147 42.8333,149 41.5,151C 38.633,151.801 35.9664,151.634 33.5,150.5 Z"/></g>
<g><path style="opacity:1" fill="#ffdfe9" d="M 128.5,140.5 C 128.666,144.514 128.499,148.514 128,152.5C 125.267,149.938 122.767,147.271 120.5,144.5C 120.167,143.5 119.5,142.833 118.5,142.5C 118.5,142.167 118.5,141.833 118.5,141.5C 119.833,141.5 121.167,141.5 122.5,141.5C 122.351,142.552 122.517,143.552 123,144.5C 124.713,145.878 126.047,147.545 127,149.5C 127.181,146.305 127.681,143.305 128.5,140.5 Z"/></g>
<g><path style="opacity:1" fill="#a9253d" d="M 117.5,139.5 C 117.833,140.167 118.167,140.833 118.5,141.5C 118.5,141.833 118.5,142.167 118.5,142.5C 116.254,142.064 114.087,141.397 112,140.5C 111.5,149.16 111.334,157.827 111.5,166.5C 113.5,166.5 115.5,166.5 117.5,166.5C 117.183,162.298 117.517,158.298 118.5,154.5C 118.5,158.833 118.5,163.167 118.5,167.5C 115.833,167.5 113.167,167.5 110.5,167.5C 110.5,158.167 110.5,148.833 110.5,139.5C 112.833,139.5 115.167,139.5 117.5,139.5 Z"/></g>
<g><path style="opacity:1" fill="#febfce" d="M 148.5,139.5 C 148.833,139.5 149.167,139.5 149.5,139.5C 149.5,141.833 149.5,144.167 149.5,146.5C 152.167,146.5 154.833,146.5 157.5,146.5C 158.491,152.979 158.824,159.646 158.5,166.5C 158.5,166.833 158.5,167.167 158.5,167.5C 157.509,161.021 157.176,154.354 157.5,147.5C 154.833,147.5 152.167,147.5 149.5,147.5C 149.824,154.354 149.491,161.021 148.5,167.5C 148.5,158.167 148.5,148.833 148.5,139.5 Z"/></g>
<g><path style="opacity:1" fill="#b9233a" d="M 101.5,148.5 C 101.068,149.71 100.401,150.71 99.5,151.5C 99.5,152.833 99.5,154.167 99.5,155.5C 97.0799,155.292 94.7466,155.626 92.5,156.5C 90.812,155.479 89.4787,154.145 88.5,152.5C 88.2011,150.396 88.5344,148.396 89.5,146.5C 93.4295,145.567 97.4295,145.234 101.5,145.5C 101.5,146.5 101.5,147.5 101.5,148.5 Z"/></g>
<g><path style="opacity:1" fill="#feeeec" d="M 99.5,151.5 C 97.1998,153.202 94.5331,153.868 91.5,153.5C 91.5,151.167 91.5,148.833 91.5,146.5C 93.9201,146.292 96.2534,146.626 98.5,147.5C 99.4287,148.689 99.762,150.022 99.5,151.5 Z"/></g>
<g><path style="opacity:1" fill="#cf052b" d="M 118.5,142.5 C 119.5,142.833 120.167,143.5 120.5,144.5C 121.907,149.241 124.907,152.241 129.5,153.5C 129.5,152.167 129.5,150.833 129.5,149.5C 130.314,147.369 130.814,145.036 131,142.5C 132,141.167 133,141.167 134,142.5C 134.5,150.493 134.666,158.493 134.5,166.5C 129.688,164.537 125.855,161.204 123,156.5C 122.184,155.177 121.017,154.511 119.5,154.5C 119.167,154.5 118.833,154.5 118.5,154.5C 117.517,158.298 117.183,162.298 117.5,166.5C 115.5,166.5 113.5,166.5 111.5,166.5C 111.334,157.827 111.5,149.16 112,140.5C 114.087,141.397 116.254,142.064 118.5,142.5 Z"/></g>
<g><path style="opacity:1" fill="#b64a5c" d="M 82.5,139.5 C 88.0262,139.179 93.3595,139.512 98.5,140.5C 93.5,140.5 88.5,140.5 83.5,140.5C 83.5,149.167 83.5,157.833 83.5,166.5C 85.8333,166.5 88.1667,166.5 90.5,166.5C 90.2053,164.265 90.5386,162.265 91.5,160.5C 91.5,161.167 91.5,161.833 91.5,162.5C 91.5,164.167 91.5,165.833 91.5,167.5C 88.5,167.5 85.5,167.5 82.5,167.5C 82.5,158.167 82.5,148.833 82.5,139.5 Z"/></g>
<g><path style="opacity:1" fill="#d00428" d="M 88.5,152.5 C 89.4787,154.145 90.812,155.479 92.5,156.5C 94.7466,155.626 97.0799,155.292 99.5,155.5C 99.5,154.167 99.5,152.833 99.5,151.5C 100.401,150.71 101.068,149.71 101.5,148.5C 102.58,150.361 103.914,151.027 105.5,150.5C 104.497,153.172 103.497,155.838 102.5,158.5C 102.543,159.416 102.876,160.083 103.5,160.5C 104.15,162.435 104.483,164.435 104.5,166.5C 101.376,166.034 98.7097,164.701 96.5,162.5C 96.1667,161.833 95.8333,161.167 95.5,160.5C 93.7354,159.539 91.7354,159.205 89.5,159.5C 89.5,161.5 89.5,163.5 89.5,165.5C 87.8333,165.5 86.1667,165.5 84.5,165.5C 84.5,157.833 84.5,150.167 84.5,142.5C 86.5273,142.338 88.5273,142.505 90.5,143C 87.7135,145.883 87.0469,149.049 88.5,152.5 Z"/></g>
<g><path style="opacity:1" fill="#a52740" d="M 135.5,167.5 C 135.5,158.5 135.5,149.5 135.5,140.5C 133.5,140.5 131.5,140.5 129.5,140.5C 129.5,143.5 129.5,146.5 129.5,149.5C 129.5,150.833 129.5,152.167 129.5,153.5C 124.907,152.241 121.907,149.241 120.5,144.5C 122.767,147.271 125.267,149.938 128,152.5C 128.499,148.514 128.666,144.514 128.5,140.5C 130.948,139.527 133.615,139.194 136.5,139.5C 136.827,149.015 136.494,158.348 135.5,167.5 Z"/></g>
<g><path style="opacity:1" fill="#cd0329" d="M 141.5,140.5 C 143.981,140.323 145.814,141.323 147,143.5C 147.5,151.159 147.666,158.826 147.5,166.5C 145.5,166.5 143.5,166.5 141.5,166.5C 141.5,157.833 141.5,149.167 141.5,140.5 Z"/></g>
<g><path style="opacity:1" fill="#c6072a" d="M 166.5,146.5 C 165.509,152.979 165.176,159.646 165.5,166.5C 163.167,166.5 160.833,166.5 158.5,166.5C 158.824,159.646 158.491,152.979 157.5,146.5C 155.393,145.532 153.059,145.198 150.5,145.5C 150.5,143.833 150.5,142.167 150.5,140.5C 158.5,140.5 166.5,140.5 174.5,140.5C 174.5,142.167 174.5,143.833 174.5,145.5C 171.615,145.194 168.948,145.527 166.5,146.5 Z"/></g>
<g><path style="opacity:1" fill="#b71e32" d="M 30.5,154.5 C 34.5138,154.334 38.5138,154.501 42.5,155C 43.5914,157.064 43.7581,159.231 43,161.5C 39,162.167 35,162.833 31,163.5C 30.502,160.518 30.3354,157.518 30.5,154.5 Z"/></g>
<g><path style="opacity:1" fill="#fedee4" d="M 32.5,156.5 C 35.5184,156.335 38.5184,156.502 41.5,157C 42.8333,158.333 42.8333,159.667 41.5,161C 38.5184,161.498 35.5184,161.665 32.5,161.5C 32.5,159.833 32.5,158.167 32.5,156.5 Z"/></g>
<g><path style="opacity:1" fill="#f8c7da" d="M 52.5,155.5 C 52.2627,156.791 52.596,157.791 53.5,158.5C 53.8333,159.833 54.1667,161.167 54.5,162.5C 53.2921,161.766 51.9587,161.433 50.5,161.5C 50.5,159.833 50.5,158.167 50.5,156.5C 51.1667,156.167 51.8333,155.833 52.5,155.5 Z"/></g>
<g><path style="opacity:1" fill="#b71634" d="M 135.5,167.5 C 133.473,167.662 131.473,167.495 129.5,167C 128.267,165.333 126.933,163.833 125.5,162.5C 123.115,160.116 121.115,157.45 119.5,154.5C 121.017,154.511 122.184,155.177 123,156.5C 125.855,161.204 129.688,164.537 134.5,166.5C 134.666,158.493 134.5,150.493 134,142.5C 133,141.167 132,141.167 131,142.5C 130.814,145.036 130.314,147.369 129.5,149.5C 129.5,146.5 129.5,143.5 129.5,140.5C 131.5,140.5 133.5,140.5 135.5,140.5C 135.5,149.5 135.5,158.5 135.5,167.5 Z"/></g>
<g><path style="opacity:1" fill="#b43443" d="M 78.5,143.5 C 78.5,148.833 78.5,154.167 78.5,159.5C 75.3506,166.96 69.6839,169.793 61.5,168C 59.4156,167.303 57.7489,166.136 56.5,164.5C 59.3082,165.884 62.3082,166.551 65.5,166.5C 70.641,166.432 74.3077,164.099 76.5,159.5C 77.1668,154.015 77.8335,148.681 78.5,143.5 Z"/></g>
<g><path style="opacity:1" fill="#a92e48" d="M 166.5,146.5 C 166.5,153.5 166.5,160.5 166.5,167.5C 163.833,167.5 161.167,167.5 158.5,167.5C 158.5,167.167 158.5,166.833 158.5,166.5C 160.833,166.5 163.167,166.5 165.5,166.5C 165.176,159.646 165.509,152.979 166.5,146.5 Z"/></g>
<g><path style="opacity:1" fill="#ae273a" d="M 103.5,160.5 C 105.268,162.508 106.934,164.674 108.5,167C 105.5,167.667 102.5,167.667 99.5,167C 98.1175,165.729 97.1175,164.229 96.5,162.5C 98.7097,164.701 101.376,166.034 104.5,166.5C 104.483,164.435 104.15,162.435 103.5,160.5 Z"/></g>
<g><path style="opacity:1" fill="#fdf7cd" d="M 111.5,168.5 C 116.833,169.167 122.167,169.833 127.5,170.5C 122.305,170.179 117.305,170.513 112.5,171.5C 111.596,172.209 111.263,173.209 111.5,174.5C 105.901,177.718 105.401,181.385 110,185.5C 110.383,184.944 110.883,184.611 111.5,184.5C 111.66,186.199 111.494,187.866 111,189.5C 109,186.334 106.5,183.668 103.5,181.5C 104.002,178.331 105.669,175.998 108.5,174.5C 109.434,173.432 109.768,172.099 109.5,170.5C 107.379,170.325 105.379,170.659 103.5,171.5C 103.414,170.504 103.748,169.671 104.5,169C 106.81,168.503 109.143,168.337 111.5,168.5 Z"/></g>
<g><path style="opacity:1" fill="#ecb254" d="M 50.5,171.5 C 54.6344,170.515 58.9677,170.182 63.5,170.5C 64.8333,170.5 66.1667,170.5 67.5,170.5C 67.5,171.5 67.5,172.5 67.5,173.5C 69.7834,173.392 71.7834,172.559 73.5,171C 76.4816,170.502 79.4816,170.335 82.5,170.5C 85.1336,171.133 86.8002,172.8 87.5,175.5C 81.3762,171.854 75.0429,171.52 68.5,174.5C 68.2941,178.898 68.6274,183.232 69.5,187.5C 68.5,186.833 67.5,186.167 66.5,185.5C 66.5,185.167 66.5,184.833 66.5,184.5C 66.2739,181.751 66.6072,179.084 67.5,176.5C 65.604,175.534 63.604,175.201 61.5,175.5C 62.5676,174.566 63.901,174.232 65.5,174.5C 65.5,173.5 65.5,172.5 65.5,171.5C 60.5,171.5 55.5,171.5 50.5,171.5 Z"/></g>
<g><path style="opacity:1" fill="#fbf8e3" d="M 91.5,162.5 C 92.4614,164.265 92.7947,166.265 92.5,168.5C 94.8333,168.5 97.1667,168.5 99.5,168.5C 99.0773,170.781 99.744,172.448 101.5,173.5C 101.5,174.167 101.5,174.833 101.5,175.5C 100.518,176.141 99.5178,176.807 98.5,177.5C 97.5258,175.257 97.1924,172.924 97.5,170.5C 95.2646,170.205 93.2646,170.539 91.5,171.5C 89.9588,173.794 88.6254,173.794 87.5,171.5C 85.9547,170.548 84.288,170.215 82.5,170.5C 79.4816,170.335 76.4816,170.502 73.5,171C 71.7834,172.559 69.7834,173.392 67.5,173.5C 67.5,172.5 67.5,171.5 67.5,170.5C 71.1482,168.357 75.1482,167.357 79.5,167.5C 79.3505,166.448 79.5172,165.448 80,164.5C 80.3768,165.942 81.2101,166.942 82.5,167.5C 85.5,167.5 88.5,167.5 91.5,167.5C 91.5,165.833 91.5,164.167 91.5,162.5 Z"/></g>
<g><path style="opacity:1" fill="#eab875" d="M 108.5,174.5 C 108.585,173.005 107.919,172.005 106.5,171.5C 104.814,172.857 103.148,174.19 101.5,175.5C 101.5,174.833 101.5,174.167 101.5,173.5C 102.5,173.167 103.167,172.5 103.5,171.5C 105.379,170.659 107.379,170.325 109.5,170.5C 109.768,172.099 109.434,173.432 108.5,174.5 Z"/></g>
<g><path style="opacity:1" fill="#f5a628" d="M 50.5,171.5 C 55.5,171.5 60.5,171.5 65.5,171.5C 65.5,172.5 65.5,173.5 65.5,174.5C 63.901,174.232 62.5676,174.566 61.5,175.5C 60.5119,180.64 60.1786,185.974 60.5,191.5C 58.8333,191.5 57.1667,191.5 55.5,191.5C 55.5,186.167 55.5,180.833 55.5,175.5C 53.1667,175.5 50.8333,175.5 48.5,175.5C 48.1568,173.517 48.8235,172.183 50.5,171.5 Z"/></g>
<g><path style="opacity:1" fill="#fbc073" d="M 101.5,175.5 C 101.142,177.701 99.8083,179.035 97.5,179.5C 96.52,176.914 96.1866,174.247 96.5,171.5C 94.7085,171.366 93.0418,171.699 91.5,172.5C 91.5,172.167 91.5,171.833 91.5,171.5C 93.2646,170.539 95.2646,170.205 97.5,170.5C 97.1924,172.924 97.5258,175.257 98.5,177.5C 99.5178,176.807 100.518,176.141 101.5,175.5 Z"/></g>
<g><path style="opacity:1" fill="#eaba67" d="M 112.5,171.5 C 117.305,170.513 122.305,170.179 127.5,170.5C 128.167,170.5 128.5,170.833 128.5,171.5C 128.5,172.833 128.5,174.167 128.5,175.5C 126.833,175.5 125.167,175.5 123.5,175.5C 121.833,175.5 120.167,175.5 118.5,175.5C 121.287,174.523 124.287,174.19 127.5,174.5C 127.5,173.5 127.5,172.5 127.5,171.5C 122.5,171.5 117.5,171.5 112.5,171.5 Z"/></g>
<g><path style="opacity:1" fill="#fdf6d7" d="M 149.5,170.5 C 147.856,170.286 146.356,170.62 145,171.5C 144.667,174.5 144.333,177.5 144,180.5C 142.483,178.76 140.983,177.094 139.5,175.5C 138.396,173.611 137.063,171.945 135.5,170.5C 136.978,170.238 138.311,170.571 139.5,171.5C 140.026,173.23 141.026,174.564 142.5,175.5C 143.474,173.257 143.808,170.924 143.5,168.5C 146.082,168.025 148.082,168.692 149.5,170.5 Z"/></g>
<g><path style="opacity:1" fill="#fff1c3" d="M 61.5,175.5 C 63.604,175.201 65.604,175.534 67.5,176.5C 66.6072,179.084 66.2739,181.751 66.5,184.5C 65.5269,182.052 65.1936,179.385 65.5,176.5C 64.5,176.5 63.5,176.5 62.5,176.5C 62.8205,181.695 62.4872,186.695 61.5,191.5C 61.1667,191.5 60.8333,191.5 60.5,191.5C 60.1786,185.974 60.5119,180.64 61.5,175.5 Z"/></g>
<g><path style="opacity:1" fill="#ebb869" d="M 135.5,170.5 C 137.063,171.945 138.396,173.611 139.5,175.5C 137.255,173.639 134.588,172.639 131.5,172.5C 131.5,176.167 131.5,179.833 131.5,183.5C 131.5,186.167 131.5,188.833 131.5,191.5C 130.509,184.687 130.175,177.687 130.5,170.5C 132.167,170.5 133.833,170.5 135.5,170.5 Z"/></g>
<g><path style="opacity:1" fill="#fdf3d6" d="M 63.5,170.5 C 58.9677,170.182 54.6344,170.515 50.5,171.5C 48.8235,172.183 48.1568,173.517 48.5,175.5C 50.8333,175.5 53.1667,175.5 55.5,175.5C 55.5,180.833 55.5,186.167 55.5,191.5C 57.1667,191.5 58.8333,191.5 60.5,191.5C 60.8333,191.5 61.1667,191.5 61.5,191.5C 58.3752,192.479 55.0419,192.813 51.5,192.5C 51.5,187.167 51.5,181.833 51.5,176.5C 50.1667,176.5 48.8333,176.5 47.5,176.5C 47.2436,174.208 47.5769,172.041 48.5,170C 53.6842,169.184 58.6842,169.35 63.5,170.5 Z"/></g>
<g><path style="opacity:1" fill="#fdfbe4" d="M 118.5,175.5 C 120.167,175.5 121.833,175.5 123.5,175.5C 125.265,176.461 127.265,176.795 129.5,176.5C 129.5,179.833 129.5,183.167 129.5,186.5C 126.167,186.5 122.833,186.5 119.5,186.5C 118.596,185.791 118.263,184.791 118.5,183.5C 121.5,183.5 124.5,183.5 127.5,183.5C 127.5,181.833 127.5,180.167 127.5,178.5C 124.833,178.5 122.167,178.5 119.5,178.5C 117.618,177.779 117.285,176.779 118.5,175.5 Z"/></g>
<g><path style="opacity:1" fill="#f9fbf0" d="M 111.5,174.5 C 111.5,177.833 111.5,181.167 111.5,184.5C 110.883,184.611 110.383,184.944 110,185.5C 105.401,181.385 105.901,177.718 111.5,174.5 Z"/></g>
<g><path style="opacity:1" fill="#f5a929" d="M 101.5,175.5 C 103.148,174.19 104.814,172.857 106.5,171.5C 107.919,172.005 108.585,173.005 108.5,174.5C 105.669,175.998 104.002,178.331 103.5,181.5C 105.284,183.948 106.618,186.615 107.5,189.5C 106.167,189.5 104.833,189.5 103.5,189.5C 103.167,188.5 102.5,187.833 101.5,187.5C 100.817,185.824 99.4832,185.157 97.5,185.5C 97.5,187.5 97.5,189.5 97.5,191.5C 95.5,191.5 93.5,191.5 91.5,191.5C 91.5,185.167 91.5,178.833 91.5,172.5C 93.0418,171.699 94.7085,171.366 96.5,171.5C 96.1866,174.247 96.52,176.914 97.5,179.5C 99.8083,179.035 101.142,177.701 101.5,175.5 Z"/></g>
<g><path style="opacity:1" fill="#fdebb7" d="M 82.5,170.5 C 84.288,170.215 85.9547,170.548 87.5,171.5C 88.6254,173.794 89.9588,173.794 91.5,171.5C 91.5,171.833 91.5,172.167 91.5,172.5C 91.5,178.833 91.5,185.167 91.5,191.5C 90.8333,189.5 90.1667,187.5 89.5,185.5C 89.6646,182.482 89.498,179.482 89,176.5C 88.6174,175.944 88.1174,175.611 87.5,175.5C 86.8002,172.8 85.1336,171.133 82.5,170.5 Z"/></g>
<g><path style="opacity:1" fill="#f6a926" d="M 112.5,171.5 C 117.5,171.5 122.5,171.5 127.5,171.5C 127.5,172.5 127.5,173.5 127.5,174.5C 124.287,174.19 121.287,174.523 118.5,175.5C 117.285,176.779 117.618,177.779 119.5,178.5C 121.607,179.468 123.941,179.802 126.5,179.5C 126.5,180.5 126.5,181.5 126.5,182.5C 123.5,182.5 120.5,182.5 117.5,182.5C 117.34,184.199 117.506,185.866 118,187.5C 121.129,188.13 124.296,188.796 127.5,189.5C 127.137,190.183 126.804,190.85 126.5,191.5C 122.5,191.5 118.5,191.5 114.5,191.5C 112.601,185.118 111.934,178.451 112.5,171.5 Z"/></g>
<g><path style="opacity:1" fill="#e8ae4c" d="M 149.5,170.5 C 150.167,170.5 150.5,170.833 150.5,171.5C 150.5,178.167 150.5,184.833 150.5,191.5C 148.5,191.5 146.5,191.5 144.5,191.5C 143.5,189.5 142.5,187.5 141.5,185.5C 140.185,184.524 138.852,183.524 137.5,182.5C 136.516,185.428 136.183,188.428 136.5,191.5C 136.167,191.5 135.833,191.5 135.5,191.5C 134.167,191.5 132.833,191.5 131.5,191.5C 131.5,188.833 131.5,186.167 131.5,183.5C 132.468,185.607 132.802,187.941 132.5,190.5C 133.5,190.5 134.5,190.5 135.5,190.5C 135.5,187.5 135.5,184.5 135.5,181.5C 139.855,181.451 141.188,179.451 139.5,175.5C 140.983,177.094 142.483,178.76 144,180.5C 144.333,177.5 144.667,174.5 145,171.5C 146.356,170.62 147.856,170.286 149.5,170.5 Z"/></g>
<g><path style="opacity:1" fill="#f8aa1f" d="M 141.5,185.5 C 141.5,184.167 141.5,182.833 141.5,181.5C 142.833,181.5 144.167,181.5 145.5,181.5C 145.336,178.813 145.503,176.146 146,173.5C 147.011,172.663 148.178,172.33 149.5,172.5C 149.5,178.5 149.5,184.5 149.5,190.5C 148.167,190.5 146.833,190.5 145.5,190.5C 146.244,187.05 144.91,185.384 141.5,185.5 Z"/></g>
<g><path style="opacity:1" fill="#fae7a7" d="M 66.5,185.5 C 67.5,186.167 68.5,186.833 69.5,187.5C 70.5,188.833 71.5,190.167 72.5,191.5C 69.5,190.5 67.5,188.5 66.5,185.5 Z"/></g>
<g><path style="opacity:1" fill="#f5a92f" d="M 87.5,175.5 C 88.1174,175.611 88.6174,175.944 89,176.5C 89.498,179.482 89.6646,182.482 89.5,185.5C 85.2721,190.933 79.6054,192.933 72.5,191.5C 71.5,190.167 70.5,188.833 69.5,187.5C 68.6274,183.232 68.2941,178.898 68.5,174.5C 75.0429,171.52 81.3762,171.854 87.5,175.5 Z"/></g>
<g><path style="opacity:1" fill="#fff4bc" d="M 82.5,183.5 C 82.1156,186.05 80.6156,187.383 78,187.5C 75.8171,187.478 74.3171,186.478 73.5,184.5C 76.778,186.107 79.778,185.773 82.5,183.5 Z"/></g>
<g><path style="opacity:1" fill="#ffebaf" d="M 81.5,176.5 C 75.9868,175.683 73.3201,178.017 73.5,183.5C 71.6829,176.323 74.3496,173.989 81.5,176.5 Z"/></g>
<g><path style="opacity:1" fill="#fcfaf3" d="M 81.5,176.5 C 82.9931,177.312 83.6598,178.645 83.5,180.5C 83.4805,181.726 83.1471,182.726 82.5,183.5C 79.778,185.773 76.778,186.107 73.5,184.5C 73.5,184.167 73.5,183.833 73.5,183.5C 73.3201,178.017 75.9868,175.683 81.5,176.5 Z"/></g>
<g><path style="opacity:1" fill="#ecb75b" d="M 119.5,178.5 C 122.167,178.5 124.833,178.5 127.5,178.5C 127.5,180.167 127.5,181.833 127.5,183.5C 124.5,183.5 121.5,183.5 118.5,183.5C 118.263,184.791 118.596,185.791 119.5,186.5C 122.625,187.479 125.958,187.813 129.5,187.5C 129.5,188.833 129.5,190.167 129.5,191.5C 128.5,191.5 127.5,191.5 126.5,191.5C 126.804,190.85 127.137,190.183 127.5,189.5C 124.296,188.796 121.129,188.13 118,187.5C 117.506,185.866 117.34,184.199 117.5,182.5C 120.5,182.5 123.5,182.5 126.5,182.5C 126.5,181.5 126.5,180.5 126.5,179.5C 123.941,179.802 121.607,179.468 119.5,178.5 Z"/></g>
<g><path style="opacity:1" fill="#fba820" d="M 139.5,175.5 C 141.188,179.451 139.855,181.451 135.5,181.5C 135.5,184.5 135.5,187.5 135.5,190.5C 134.5,190.5 133.5,190.5 132.5,190.5C 132.802,187.941 132.468,185.607 131.5,183.5C 131.5,179.833 131.5,176.167 131.5,172.5C 134.588,172.639 137.255,173.639 139.5,175.5 Z"/></g>
<g><path style="opacity:1" fill="#fdf8d5" d="M 141.5,185.5 C 142.5,187.5 143.5,189.5 144.5,191.5C 142.868,190.554 141.201,189.554 139.5,188.5C 138.265,189.34 137.265,190.34 136.5,191.5C 136.183,188.428 136.516,185.428 137.5,182.5C 138.852,183.524 140.185,184.524 141.5,185.5 Z"/></g>
<g><path style="opacity:1" fill="#feebb0" d="M 150.5,171.5 C 151.491,178.313 151.825,185.313 151.5,192.5C 148.941,192.802 146.607,192.468 144.5,191.5C 146.5,191.5 148.5,191.5 150.5,191.5C 150.5,184.833 150.5,178.167 150.5,171.5 Z"/></g>
<g><path style="opacity:1" fill="#f2b757" d="M 112.5,171.5 C 111.934,178.451 112.601,185.118 114.5,191.5C 111.15,191.665 107.817,191.498 104.5,191C 103.944,190.617 103.611,190.117 103.5,189.5C 104.833,189.5 106.167,189.5 107.5,189.5C 106.618,186.615 105.284,183.948 103.5,181.5C 106.5,183.668 109,186.334 111,189.5C 111.494,187.866 111.66,186.199 111.5,184.5C 111.5,181.167 111.5,177.833 111.5,174.5C 111.263,173.209 111.596,172.209 112.5,171.5 Z"/></g>
<g><path style="opacity:1" fill="#fdeec1" d="M 135.5,170.5 C 133.833,170.5 132.167,170.5 130.5,170.5C 130.175,177.687 130.509,184.687 131.5,191.5C 132.833,191.5 134.167,191.5 135.5,191.5C 124.679,192.495 113.679,192.828 102.5,192.5C 102.371,190.784 102.038,189.117 101.5,187.5C 102.5,187.833 103.167,188.5 103.5,189.5C 103.611,190.117 103.944,190.617 104.5,191C 107.817,191.498 111.15,191.665 114.5,191.5C 118.5,191.5 122.5,191.5 126.5,191.5C 127.5,191.5 128.5,191.5 129.5,191.5C 129.5,190.167 129.5,188.833 129.5,187.5C 125.958,187.813 122.625,187.479 119.5,186.5C 122.833,186.5 126.167,186.5 129.5,186.5C 129.5,183.167 129.5,179.833 129.5,176.5C 127.265,176.795 125.265,176.461 123.5,175.5C 125.167,175.5 126.833,175.5 128.5,175.5C 128.5,174.167 128.5,172.833 128.5,171.5C 129.404,170.791 129.737,169.791 129.5,168.5C 132.082,168.025 134.082,168.692 135.5,170.5 Z"/></g>
<g><path style="opacity:1" fill="#fcf8e2" d="M 89.5,185.5 C 90.1667,187.5 90.8333,189.5 91.5,191.5C 93.5,191.5 95.5,191.5 97.5,191.5C 97.5,189.5 97.5,187.5 97.5,185.5C 99.4832,185.157 100.817,185.824 101.5,187.5C 100.85,187.196 100.183,186.863 99.5,186.5C 98.7792,188.686 98.1125,190.853 97.5,193C 95.4432,193.305 93.4432,193.305 91.5,193C 92.5505,194.385 93.8839,195.385 95.5,196C 92.4277,196.8 90.7611,195.633 90.5,192.5C 87.1423,193.55 83.8089,194.55 80.5,195.5C 76.9714,195.736 74.3047,194.403 72.5,191.5C 79.6054,192.933 85.2721,190.933 89.5,185.5 Z"/></g>
</svg>
