<?xml version="1.0" encoding="UTF-8"?>
<!DOCTYPE svg PUBLIC "-//W3C//DTD SVG 1.1//EN" "http://www.w3.org/Graphics/SVG/1.1/DTD/svg11.dtd">
<svg xmlns="http://www.w3.org/2000/svg" version="1.1" width="96px" height="96px" style="shape-rendering:geometricPrecision; text-rendering:geometricPrecision; image-rendering:optimizeQuality; fill-rule:evenodd; clip-rule:evenodd" xmlns:xlink="http://www.w3.org/1999/xlink">
<g><path style="opacity:1" fill="#9f8a7e" d="M 34.5,-0.5 C 42.8333,-0.5 51.1667,-0.5 59.5,-0.5C 60.7406,1.56832 61.7406,3.73499 62.5,6C 62.7224,8.27467 61.7224,9.44133 59.5,9.5C 51.1667,8.16667 42.8333,8.16667 34.5,9.5C 33.3065,9.02959 32.6399,8.02959 32.5,6.5C 33.4783,4.22301 34.1449,1.88968 34.5,-0.5 Z"/></g>
<g><path style="opacity:0.999" fill="#aae6ef" d="M 59.5,9.5 C 59.5,10.1667 59.5,10.8333 59.5,11.5C 51.1667,11.5 42.8333,11.5 34.5,11.5C 34.5,10.8333 34.5,10.1667 34.5,9.5C 42.8333,8.16667 51.1667,8.16667 59.5,9.5 Z"/></g>
<g><path style="opacity:0.976" fill="#d5eff6" d="M 34.5,11.5 C 42.8333,11.5 51.1667,11.5 59.5,11.5C 65.4279,31.4528 71.2613,51.4528 77,71.5C 77.4986,75.1516 77.6653,78.8183 77.5,82.5C 73.3426,87.411 68.0092,89.911 61.5,90C 50.5,90.6667 39.5,90.6667 28.5,90C 23.7017,86.4638 21.7017,81.6305 22.5,75.5C 23.5137,64.1176 24.8471,52.7843 26.5,41.5C 29.3698,31.5567 32.0365,21.5567 34.5,11.5 Z"/></g>
<g><path style="opacity:1" fill="#fdf6f6" d="M 58.5,47.5 C 66.1005,54.4119 67.4339,62.4119 62.5,71.5C 61.8485,72.0906 61.1818,72.7573 60.5,73.5C 58.1507,70.1528 56.9841,66.4861 57,62.5C 58.0217,61.646 58.8551,60.646 59.5,59.5C 57.2188,58.7234 55.0521,57.7234 53,56.5C 52.0642,52.7926 50.2308,49.6259 47.5,47C 43.6518,46.0134 41.6518,47.5134 41.5,51.5C 40.5,51.5 39.5,51.5 38.5,51.5C 38.3573,53.2624 38.6906,54.9291 39.5,56.5C 38.4079,58.1831 37.7413,60.0164 37.5,62C 38.6876,66.8747 40.0209,71.708 41.5,76.5C 41.1667,77.1667 40.8333,77.8333 40.5,78.5C 29.566,72.1935 26.7326,63.1935 32,51.5C 39.732,42.5136 48.5654,41.1803 58.5,47.5 Z"/></g>
<g><path style="opacity:1" fill="#e43c40" d="M 53.5,41.5 C 55.8102,42.325 57.8102,43.6583 59.5,45.5C 59.6716,46.4916 59.3382,47.1583 58.5,47.5C 48.5654,41.1803 39.732,42.5136 32,51.5C 26.7326,63.1935 29.566,72.1935 40.5,78.5C 40.8333,77.8333 41.1667,77.1667 41.5,76.5C 40.0209,71.708 38.6876,66.8747 37.5,62C 37.7413,60.0164 38.4079,58.1831 39.5,56.5C 38.6906,54.9291 38.3573,53.2624 38.5,51.5C 39.5,51.5 40.5,51.5 41.5,51.5C 41.6518,47.5134 43.6518,46.0134 47.5,47C 50.2308,49.6259 52.0642,52.7926 53,56.5C 55.0521,57.7234 57.2188,58.7234 59.5,59.5C 58.8551,60.646 58.0217,61.646 57,62.5C 56.9841,66.4861 58.1507,70.1528 60.5,73.5C 61.1818,72.7573 61.8485,72.0906 62.5,71.5C 63.404,72.209 63.7373,73.209 63.5,74.5C 63.1667,75.1667 62.8333,75.8333 62.5,76.5C 53.2185,83.8672 43.5519,84.3672 33.5,78C 25.7425,69.3446 24.5759,59.8446 30,49.5C 36.129,41.7349 43.9624,39.0682 53.5,41.5 Z"/></g>
<g><path style="opacity:0.918" fill="#abe5ee" d="M 26.5,41.5 C 24.8471,52.7843 23.5137,64.1176 22.5,75.5C 21.7017,81.6305 23.7017,86.4638 28.5,90C 39.5,90.6667 50.5,90.6667 61.5,90C 68.0092,89.911 73.3426,87.411 77.5,82.5C 76.9679,87.9034 74.6345,92.2367 70.5,95.5C 55.1667,95.5 39.8333,95.5 24.5,95.5C 19.7815,91.7245 17.4481,86.7245 17.5,80.5C 19.3711,67.1282 22.3711,54.1282 26.5,41.5 Z"/></g>
<g><path style="opacity:1" fill="#fbd9d9" d="M 50.5,59.5 C 51.5862,59.62 52.2528,60.2867 52.5,61.5C 51.6964,63.9573 50.6964,63.9573 49.5,61.5C 49.8627,60.8165 50.1961,60.1499 50.5,59.5 Z"/></g>
<g><path style="opacity:1" fill="#f2d8db" d="M 59.5,45.5 C 66.83,50.0549 69.6633,56.7216 68,65.5C 67.3367,69.0353 65.8367,72.0353 63.5,74.5C 63.7373,73.209 63.404,72.209 62.5,71.5C 67.4339,62.4119 66.1005,54.4119 58.5,47.5C 59.3382,47.1583 59.6716,46.4916 59.5,45.5 Z"/></g>
<g><path style="opacity:1" fill="#eff8fc" d="M 62.5,76.5 C 62.8333,75.8333 63.1667,75.1667 63.5,74.5C 65.8367,72.0353 67.3367,69.0353 68,65.5C 69.6633,56.7216 66.83,50.0549 59.5,45.5C 57.8102,43.6583 55.8102,42.325 53.5,41.5C 55.2247,40.722 56.8914,40.3886 58.5,40.5C 56.0029,32.0141 54.6696,23.3475 54.5,14.5C 57.3882,14.2196 58.8882,15.5529 59,18.5C 65.115,38.5688 70.2816,58.9021 74.5,79.5C 73.1484,83.2541 70.4817,84.4208 66.5,83C 64.372,81.2082 63.0387,79.0416 62.5,76.5 Z"/></g>
</svg>
