<?xml version="1.0" encoding="UTF-8"?>
<!DOCTYPE svg PUBLIC "-//W3C//DTD SVG 1.1//EN" "http://www.w3.org/Graphics/SVG/1.1/DTD/svg11.dtd">
<svg xmlns="http://www.w3.org/2000/svg" version="1.1" width="96px" height="96px" style="shape-rendering:geometricPrecision; text-rendering:geometricPrecision; image-rendering:optimizeQuality; fill-rule:evenodd; clip-rule:evenodd" xmlns:xlink="http://www.w3.org/1999/xlink">
<g><path style="opacity:1" fill="#070608" d="M 36.5,-0.5 C 43.8333,-0.5 51.1667,-0.5 58.5,-0.5C 59.9179,1.30794 61.9179,1.97461 64.5,1.5C 64.5,2.5 64.5,3.5 64.5,4.5C 68.5107,5.33744 72.1773,7.00411 75.5,9.5C 77.321,10.7277 78.321,12.3944 78.5,14.5C 71.9388,9.71977 64.9388,5.71977 57.5,2.5C 51.5,2.5 45.5,2.5 39.5,2.5C 36.752,4.04383 33.752,4.71049 30.5,4.5C 30.5,3.5 30.5,2.5 30.5,1.5C 32.8568,1.66331 35.1902,1.49665 37.5,1C 36.944,0.617425 36.6107,0.117425 36.5,-0.5 Z"/></g>
<g><path style="opacity:1" fill="#6f6181" d="M 39.5,2.5 C 45.5,2.5 51.5,2.5 57.5,2.5C 57.5,3.16667 57.5,3.83333 57.5,4.5C 51.5,4.5 45.5,4.5 39.5,4.5C 39.5,3.83333 39.5,3.16667 39.5,2.5 Z"/></g>
<g><path style="opacity:1" fill="#0d0c10" d="M 39.5,4.5 C 45.5,4.5 51.5,4.5 57.5,4.5C 57.5,5.16667 57.5,5.83333 57.5,6.5C 51.5,6.5 45.5,6.5 39.5,6.5C 39.5,5.83333 39.5,5.16667 39.5,4.5 Z"/></g>
<g><path style="opacity:0.778" fill="#020102" d="M 30.5,4.5 C 28.7186,7.35485 26.052,8.68818 22.5,8.5C 24.5274,6.15253 27.194,4.8192 30.5,4.5 Z"/></g>
<g><path style="opacity:0.516" fill="#010101" d="M 22.5,8.5 C 21.1667,11.1667 19.1667,13.1667 16.5,14.5C 17.1494,11.1839 19.1494,9.18395 22.5,8.5 Z"/></g>
<g><path style="opacity:1" fill="#111211" d="M 27.5,10.5 C 27.5,11.1667 27.5,11.8333 27.5,12.5C 26.1667,12.5 24.8333,12.5 23.5,12.5C 24.1834,10.8235 25.5168,10.1568 27.5,10.5 Z"/></g>
<g><path style="opacity:1" fill="#383241" d="M 57.5,2.5 C 64.9388,5.71977 71.9388,9.71977 78.5,14.5C 80.5,15.1667 81.8333,16.5 82.5,18.5C 82.7214,19.7348 83.3881,20.7348 84.5,21.5C 84,21.8333 83.5,22.1667 83,22.5C 81.9889,21.9444 81.1556,21.2778 80.5,20.5C 78.2469,19.2567 76.2469,17.59 74.5,15.5C 72.01,13.9172 69.3433,12.9172 66.5,12.5C 63.6185,10.2853 60.6185,8.28528 57.5,6.5C 57.5,5.83333 57.5,5.16667 57.5,4.5C 57.5,3.83333 57.5,3.16667 57.5,2.5 Z"/></g>
<g><path style="opacity:1" fill="#5c5565" d="M 39.5,2.5 C 39.5,3.16667 39.5,3.83333 39.5,4.5C 39.5,5.16667 39.5,5.83333 39.5,6.5C 35.8953,8.4164 31.8953,9.74974 27.5,10.5C 25.5168,10.1568 24.1834,10.8235 23.5,12.5C 22.1667,14.5 20.8333,16.5 19.5,18.5C 18.5,18.5 17.5,18.5 16.5,18.5C 15.1667,18.5 14.5,17.8333 14.5,16.5C 15.8333,16.5 16.5,15.8333 16.5,14.5C 19.1667,13.1667 21.1667,11.1667 22.5,8.5C 26.052,8.68818 28.7186,7.35485 30.5,4.5C 33.752,4.71049 36.752,4.04383 39.5,2.5 Z"/></g>
<g><path style="opacity:0.679" fill="#000000" d="M 16.5,14.5 C 16.5,15.8333 15.8333,16.5 14.5,16.5C 14.5,15.1667 15.1667,14.5 16.5,14.5 Z"/></g>
<g><path style="opacity:1" fill="#eedef3" d="M 23.5,12.5 C 24.8333,12.5 26.1667,12.5 27.5,12.5C 27.5,13.5 27.5,14.5 27.5,15.5C 25.3352,15.1159 23.6685,15.7826 22.5,17.5C 24.2308,20.2388 25.3975,19.9055 26,16.5C 26.8996,17.7702 28.0663,18.7702 29.5,19.5C 28.5,20.5 27.5,21.5 26.5,22.5C 25.377,20.711 24.0436,20.3776 22.5,21.5C 22.9767,22.4776 23.6433,23.3109 24.5,24C 23.3333,24.5 22.5,25.3333 22,26.5C 21.5,25.3333 20.6667,24.5 19.5,24C 20.9733,23.2904 21.6399,22.1238 21.5,20.5C 20.5,20.5 19.5,20.5 18.5,20.5C 15.6933,23.3841 16.0267,22.7174 19.5,18.5C 20.8333,16.5 22.1667,14.5 23.5,12.5 Z"/></g>
<g><path style="opacity:1" fill="#2b282f" d="M 14.5,16.5 C 14.5,17.8333 15.1667,18.5 16.5,18.5C 15.9344,20.0783 14.9344,21.4116 13.5,22.5C 12.8076,21.9747 12.3076,21.3081 12,20.5C 11.8195,22.4884 11.9862,24.4884 12.5,26.5C 11.1411,25.9935 10.1411,24.9935 9.5,23.5C 8.85892,24.9935 7.85892,25.9935 6.5,26.5C 7.65956,22.0025 10.3262,18.6691 14.5,16.5 Z"/></g>
<g><path style="opacity:1" fill="#c1b2cd" d="M 39.5,6.5 C 45.5,6.5 51.5,6.5 57.5,6.5C 60.6185,8.28528 63.6185,10.2853 66.5,12.5C 66.5106,14.0174 67.1772,15.1841 68.5,16C 66.8739,15.8047 65.2072,15.8047 63.5,16C 63.1821,18.0419 63.0154,20.2086 63,22.5C 62.7216,21.5842 62.2216,20.9175 61.5,20.5C 60.5,20.5 59.5,20.5 58.5,20.5C 58.6241,17.0512 56.9574,15.0512 53.5,14.5C 51.9522,13.2057 49.9522,12.5391 47.5,12.5C 45.0478,12.5391 43.0478,13.2057 41.5,14.5C 40.1667,14.5 39.5,15.1667 39.5,16.5C 39.5,17.8333 38.8333,18.5 37.5,18.5C 36.1667,18.5 35.5,19.1667 35.5,20.5C 34.5633,22.769 33.23,24.769 31.5,26.5C 31.1667,26.5 30.8333,26.5 30.5,26.5C 27.6627,26.6845 25.6627,28.0178 24.5,30.5C 23.4138,30.62 22.7472,31.2867 22.5,32.5C 21.9848,34.6363 21.6514,36.803 21.5,39C 21.5687,40.9855 22.2353,42.4855 23.5,43.5C 24.2915,47.0783 25.6249,50.4116 27.5,53.5C 24.1311,54.4843 23.4644,55.9843 25.5,58C 25.1667,58.5 24.8333,59 24.5,59.5C 23.8333,58.8333 23.1667,58.1667 22.5,57.5C 20.8018,59.5318 18.8018,61.1985 16.5,62.5C 15.1667,63.8333 15.1667,65.1667 16.5,66.5C 15.5754,67.5624 14.5754,67.5624 13.5,66.5C 11.3693,63.9012 10.036,60.9012 9.5,57.5C 8.5,57.5 7.5,57.5 6.5,57.5C 6.5,51.1667 6.5,44.8333 6.5,38.5C 7.60895,38.4431 8.60895,38.1098 9.5,37.5C 9.43456,37.9382 9.60123,38.2716 10,38.5C 10.8333,37.6667 11.6667,36.8333 12.5,36C 11.1373,33.8707 11.4706,33.3707 13.5,34.5C 15.8013,32.25 18.1346,30.0833 20.5,28C 19.1509,27.2276 18.3176,26.0609 18,24.5C 16.6107,28.2721 15.6107,28.2721 15,24.5C 14.5831,25.756 13.7498,26.4226 12.5,26.5C 11.9862,24.4884 11.8195,22.4884 12,20.5C 12.3076,21.3081 12.8076,21.9747 13.5,22.5C 14.9344,21.4116 15.9344,20.0783 16.5,18.5C 17.5,18.5 18.5,18.5 19.5,18.5C 16.0267,22.7174 15.6933,23.3841 18.5,20.5C 19.5,20.5 20.5,20.5 21.5,20.5C 21.6399,22.1238 20.9733,23.2904 19.5,24C 20.6667,24.5 21.5,25.3333 22,26.5C 22.5,25.3333 23.3333,24.5 24.5,24C 23.6433,23.3109 22.9767,22.4776 22.5,21.5C 24.0436,20.3776 25.377,20.711 26.5,22.5C 27.5,21.5 28.5,20.5 29.5,19.5C 28.0663,18.7702 26.8996,17.7702 26,16.5C 25.3975,19.9055 24.2308,20.2388 22.5,17.5C 23.6685,15.7826 25.3352,15.1159 27.5,15.5C 27.5,14.5 27.5,13.5 27.5,12.5C 27.5,11.8333 27.5,11.1667 27.5,10.5C 31.8953,9.74974 35.8953,8.4164 39.5,6.5 Z"/></g>
<g><path style="opacity:1" fill="#100f12" d="M 37.5,18.5 C 37.5,19.8333 36.8333,20.5 35.5,20.5C 35.5,19.1667 36.1667,18.5 37.5,18.5 Z"/></g>
<g><path style="opacity:1" fill="#1a1619" d="M 41.5,14.5 C 41.5,15.8333 40.8333,16.5 39.5,16.5C 39.5,15.1667 40.1667,14.5 41.5,14.5 Z"/></g>
<g><path style="opacity:1" fill="#0f0f12" d="M 53.5,14.5 C 49.5,14.5 45.5,14.5 41.5,14.5C 43.0478,13.2057 45.0478,12.5391 47.5,12.5C 49.9522,12.5391 51.9522,13.2057 53.5,14.5 Z"/></g>
<g><path style="opacity:0.787" fill="#000000" d="M 6.5,26.5 C 6.84316,28.4832 6.17649,29.8166 4.5,30.5C 4.15684,28.5168 4.82351,27.1834 6.5,26.5 Z"/></g>
<g><path style="opacity:1" fill="#bf2f24" d="M 41.5,14.5 C 45.5,14.5 49.5,14.5 53.5,14.5C 54.0553,16.7288 55.3886,18.3954 57.5,19.5C 54.2317,20.487 50.8984,20.8204 47.5,20.5C 46.1667,20.5 44.8333,20.5 43.5,20.5C 43.5,21.5 43.5,22.5 43.5,23.5C 42.1667,23.5 40.8333,23.5 39.5,23.5C 39.5,24.5 39.5,25.5 39.5,26.5C 36.4884,27.255 33.8217,28.5884 31.5,30.5C 31.5,29.1667 31.5,27.8333 31.5,26.5C 33.23,24.769 34.5633,22.769 35.5,20.5C 36.8333,20.5 37.5,19.8333 37.5,18.5C 38.8333,18.5 39.5,17.8333 39.5,16.5C 40.8333,16.5 41.5,15.8333 41.5,14.5 Z"/></g>
<g><path style="opacity:1" fill="#9c8fad" d="M 66.5,12.5 C 69.3433,12.9172 72.01,13.9172 74.5,15.5C 76.2469,17.59 78.2469,19.2567 80.5,20.5C 80.8333,22.5 81.1667,24.5 81.5,26.5C 82.5,26.5 83.5,26.5 84.5,26.5C 86.6188,33.3163 87.9521,40.3163 88.5,47.5C 88.1667,50.5 87.8333,53.5 87.5,56.5C 85.3809,61.0689 83.5476,65.7355 82,70.5C 78.9782,72.6881 76.4782,75.3548 74.5,78.5C 73.3112,79.4287 71.9778,79.762 70.5,79.5C 70.5,80.5 70.5,81.5 70.5,82.5C 66.0845,82.8606 62.0845,84.1939 58.5,86.5C 52.0871,88.7283 45.4204,89.0616 38.5,87.5C 34.4844,86.0576 30.8177,84.0576 27.5,81.5C 37.7965,79.7507 37.7965,78.2507 27.5,77C 31.5,76.6667 35.5,76.3333 39.5,76C 40.056,75.6174 40.3893,75.1174 40.5,74.5C 41.1667,74.8333 41.8333,75.1667 42.5,75.5C 42.8333,75.5 43.1667,75.5 43.5,75.5C 44.3339,76.7479 45.6672,77.4146 47.5,77.5C 50.5755,77.5931 52.5755,76.2598 53.5,73.5C 55.0481,73.1788 55.7148,72.1788 55.5,70.5C 56.5,70.5 57.5,70.5 58.5,70.5C 58.7218,65.9489 59.7218,61.6156 61.5,57.5C 61.5,56.8333 61.8333,56.5 62.5,56.5C 64.629,54.6591 66.9624,52.9924 69.5,51.5C 70.2733,49.187 70.9399,46.8537 71.5,44.5C 72.6016,43.8243 73.6016,43.1577 74.5,42.5C 74.5,40.1667 74.5,37.8333 74.5,35.5C 73.791,34.596 72.791,34.2627 71.5,34.5C 70.7007,29.3678 67.7007,26.7011 62.5,26.5C 62.1667,24.5 61.8333,22.5 61.5,20.5C 62.2216,20.9175 62.7216,21.5842 63,22.5C 63.0154,20.2086 63.1821,18.0419 63.5,16C 65.2072,15.8047 66.8739,15.8047 68.5,16C 67.1772,15.1841 66.5106,14.0174 66.5,12.5 Z"/></g>
<g><path style="opacity:1" fill="#554e5c" d="M 30.5,26.5 C 29.0359,28.6297 27.0359,29.963 24.5,30.5C 25.6627,28.0178 27.6627,26.6845 30.5,26.5 Z"/></g>
<g><path style="opacity:1" fill="#ecdef2" d="M 9.5,37.5 C 9.35942,33.4931 10.3594,29.8265 12.5,26.5C 13.7498,26.4226 14.5831,25.756 15,24.5C 15.6107,28.2721 16.6107,28.2721 18,24.5C 18.3176,26.0609 19.1509,27.2276 20.5,28C 18.1346,30.0833 15.8013,32.25 13.5,34.5C 11.4706,33.3707 11.1373,33.8707 12.5,36C 11.6667,36.8333 10.8333,37.6667 10,38.5C 9.60123,38.2716 9.43456,37.9382 9.5,37.5 Z"/></g>
<g><path style="opacity:1" fill="#686171" d="M 12.5,26.5 C 10.3594,29.8265 9.35942,33.4931 9.5,37.5C 8.60895,38.1098 7.60895,38.4431 6.5,38.5C 4.70481,44.0835 3.87147,50.0835 4,56.5C 3.82669,50.9842 3.32669,45.6509 2.5,40.5C 4.17833,37.4484 4.845,34.1151 4.5,30.5C 6.17649,29.8166 6.84316,28.4832 6.5,26.5C 7.85892,25.9935 8.85892,24.9935 9.5,23.5C 10.1411,24.9935 11.1411,25.9935 12.5,26.5 Z"/></g>
<g><path style="opacity:1" fill="#120a0e" d="M 74.5,35.5 C 74.5,37.8333 74.5,40.1667 74.5,42.5C 73.1667,42.5 71.8333,42.5 70.5,42.5C 71.5463,40.2151 71.5463,37.8817 70.5,35.5C 71.8333,35.5 73.1667,35.5 74.5,35.5 Z"/></g>
<g><path style="opacity:1" fill="#a92029" d="M 47.5,20.5 C 47.8204,23.8984 47.487,27.2317 46.5,30.5C 45.7702,31.9337 44.7702,33.1004 43.5,34C 48.3034,35.5268 48.6367,37.6934 44.5,40.5C 43.8302,38.7086 43.1635,37.0419 42.5,35.5C 38.8333,35.5 35.1667,35.5 31.5,35.5C 31.5,36.5 31.5,37.5 31.5,38.5C 32.8333,38.5 34.1667,38.5 35.5,38.5C 35.4399,42.4851 37.4399,44.1518 41.5,43.5C 42.9031,46.2085 42.2365,48.5418 39.5,50.5C 41.9749,50.9642 43.9749,51.9642 45.5,53.5C 43.5772,57.0293 42.9106,61.0293 43.5,65.5C 44.1667,68.8333 44.8333,72.1667 45.5,75.5C 44.8333,75.5 44.1667,75.5 43.5,75.5C 43.1667,75.5 42.8333,75.5 42.5,75.5C 42.4077,73.1523 41.4077,71.4856 39.5,70.5C 39.9227,68.2188 39.256,66.5521 37.5,65.5C 37.5,64.1667 37.5,62.8333 37.5,61.5C 36.5,61.5 35.5,61.5 34.5,61.5C 35.2259,57.693 33.8926,55.0263 30.5,53.5C 30.5,52.1667 30.5,50.8333 30.5,49.5C 29.5,49.5 28.5,49.5 27.5,49.5C 27.5,47.5 27.5,45.5 27.5,43.5C 26.1667,43.5 24.8333,43.5 23.5,43.5C 23.5865,39.1434 23.9198,34.81 24.5,30.5C 27.0359,29.963 29.0359,28.6297 30.5,26.5C 30.8333,26.5 31.1667,26.5 31.5,26.5C 31.5,27.8333 31.5,29.1667 31.5,30.5C 33.8217,28.5884 36.4884,27.255 39.5,26.5C 39.5,25.5 39.5,24.5 39.5,23.5C 40.8333,23.5 42.1667,23.5 43.5,23.5C 43.5,22.5 43.5,21.5 43.5,20.5C 44.8333,20.5 46.1667,20.5 47.5,20.5 Z"/></g>
<g><path style="opacity:1" fill="#3c1625" d="M 42.5,35.5 C 42.4249,38.2062 42.0916,40.8728 41.5,43.5C 37.4399,44.1518 35.4399,42.4851 35.5,38.5C 34.1667,38.5 32.8333,38.5 31.5,38.5C 31.5,37.5 31.5,36.5 31.5,35.5C 35.1667,35.5 38.8333,35.5 42.5,35.5 Z"/></g>
<g><path style="opacity:0.848" fill="#040304" d="M 4.5,30.5 C 4.845,34.1151 4.17833,37.4484 2.5,40.5C 2.5,46.1667 2.5,51.8333 2.5,57.5C 1.17896,54.4018 0.512295,50.9018 0.5,47C 0.833333,43.5 1.16667,40 1.5,36.5C 1.96418,34.0251 2.96418,32.0251 4.5,30.5 Z"/></g>
<g><path style="opacity:1" fill="#381c21" d="M 24.5,30.5 C 23.9198,34.81 23.5865,39.1434 23.5,43.5C 22.2353,42.4855 21.5687,40.9855 21.5,39C 21.6514,36.803 21.9848,34.6363 22.5,32.5C 22.7472,31.2867 23.4138,30.62 24.5,30.5 Z"/></g>
<g><path style="opacity:1" fill="#6d5e7e" d="M 92.5,38.5 C 92.5,43.5 92.5,48.5 92.5,53.5C 91.1914,51.4294 90.5248,48.9294 90.5,46C 90.5248,43.0706 91.1914,40.5706 92.5,38.5 Z"/></g>
<g><path style="opacity:1" fill="#40232c" d="M 23.5,43.5 C 24.8333,43.5 26.1667,43.5 27.5,43.5C 27.5,45.5 27.5,47.5 27.5,49.5C 28.5,49.5 29.5,49.5 30.5,49.5C 30.5,50.8333 30.5,52.1667 30.5,53.5C 29.5,53.5 28.5,53.5 27.5,53.5C 25.6249,50.4116 24.2915,47.0783 23.5,43.5 Z"/></g>
<g><path style="opacity:1" fill="#6d192b" d="M 53.5,14.5 C 56.9574,15.0512 58.6241,17.0512 58.5,20.5C 59.5,20.5 60.5,20.5 61.5,20.5C 61.8333,22.5 62.1667,24.5 62.5,26.5C 67.7007,26.7011 70.7007,29.3678 71.5,34.5C 72.791,34.2627 73.791,34.596 74.5,35.5C 73.1667,35.5 71.8333,35.5 70.5,35.5C 71.5463,37.8817 71.5463,40.2151 70.5,42.5C 69.2702,44.2972 68.6036,46.2972 68.5,48.5C 67.5,48.5 66.5,48.5 65.5,48.5C 63.6386,50.7454 62.6386,53.4121 62.5,56.5C 61.8333,56.5 61.5,56.8333 61.5,57.5C 60.5,57.5 59.5,57.5 58.5,57.5C 58.7735,60.9529 57.4402,63.6196 54.5,65.5C 53.52,68.0865 53.1866,70.7531 53.5,73.5C 50.8333,74.1667 48.1667,74.8333 45.5,75.5C 44.8333,72.1667 44.1667,68.8333 43.5,65.5C 46.1667,65.5 48.8333,65.5 51.5,65.5C 52.1667,61.5 52.8333,57.5 53.5,53.5C 50.8333,53.5 48.1667,53.5 45.5,53.5C 43.9749,51.9642 41.9749,50.9642 39.5,50.5C 42.2365,48.5418 42.9031,46.2085 41.5,43.5C 42.0916,40.8728 42.4249,38.2062 42.5,35.5C 43.1635,37.0419 43.8302,38.7086 44.5,40.5C 48.6367,37.6934 48.3034,35.5268 43.5,34C 44.7702,33.1004 45.7702,31.9337 46.5,30.5C 47.487,27.2317 47.8204,23.8984 47.5,20.5C 50.8984,20.8204 54.2317,20.487 57.5,19.5C 55.3886,18.3954 54.0553,16.7288 53.5,14.5 Z"/></g>
<g><path style="opacity:1" fill="#341520" d="M 58.5,33.5 C 61.0545,34.388 63.7212,34.7214 66.5,34.5C 66.5,35.8333 66.5,37.1667 66.5,38.5C 64.8333,38.5 63.1667,38.5 61.5,38.5C 61.5,39.8333 61.5,41.1667 61.5,42.5C 59.1783,44.4116 56.5116,45.745 53.5,46.5C 52.2978,42.9517 51.6311,39.285 51.5,35.5C 54.3878,36.0102 56.7211,35.3435 58.5,33.5 Z"/></g>
<g><path style="opacity:1" fill="#45313e" d="M 70.5,42.5 C 71.8333,42.5 73.1667,42.5 74.5,42.5C 73.6016,43.1577 72.6016,43.8243 71.5,44.5C 70.9399,46.8537 70.2733,49.187 69.5,51.5C 66.9624,52.9924 64.629,54.6591 62.5,56.5C 62.6386,53.4121 63.6386,50.7454 65.5,48.5C 66.5,48.5 67.5,48.5 68.5,48.5C 68.6036,46.2972 69.2702,44.2972 70.5,42.5 Z"/></g>
<g><path style="opacity:1" fill="#3b1623" d="M 45.5,53.5 C 48.1667,53.5 50.8333,53.5 53.5,53.5C 52.8333,57.5 52.1667,61.5 51.5,65.5C 48.8333,65.5 46.1667,65.5 43.5,65.5C 42.9106,61.0293 43.5772,57.0293 45.5,53.5 Z"/></g>
<g><path style="opacity:1" fill="#322e3a" d="M 6.5,38.5 C 6.5,44.8333 6.5,51.1667 6.5,57.5C 7.5,57.5 8.5,57.5 9.5,57.5C 10.036,60.9012 11.3693,63.9012 13.5,66.5C 13.3253,68.6208 13.6586,70.6208 14.5,72.5C 13.1526,73.0283 11.8193,73.195 10.5,73C 8.84019,69.4894 6.84019,66.3227 4.5,63.5C 2.69206,62.0821 2.02539,60.0821 2.5,57.5C 2.5,51.8333 2.5,46.1667 2.5,40.5C 3.32669,45.6509 3.82669,50.9842 4,56.5C 3.87147,50.0835 4.70481,44.0835 6.5,38.5 Z"/></g>
<g><path style="opacity:1" fill="#1b181c" d="M 34.5,61.5 C 35.5,61.5 36.5,61.5 37.5,61.5C 37.5,62.8333 37.5,64.1667 37.5,65.5C 36.5,65.5 35.5,65.5 34.5,65.5C 34.5,64.1667 34.5,62.8333 34.5,61.5 Z"/></g>
<g><path style="opacity:1" fill="#34242e" d="M 61.5,57.5 C 59.7218,61.6156 58.7218,65.9489 58.5,70.5C 57.5,70.5 56.5,70.5 55.5,70.5C 55.7148,72.1788 55.0481,73.1788 53.5,73.5C 53.1866,70.7531 53.52,68.0865 54.5,65.5C 57.4402,63.6196 58.7735,60.9529 58.5,57.5C 59.5,57.5 60.5,57.5 61.5,57.5 Z"/></g>
<g><path style="opacity:0.822" fill="#040305" d="M 90.5,30.5 C 91.5,30.5 92.5,30.5 93.5,30.5C 93.0254,33.0821 93.6921,35.0821 95.5,36.5C 95.5,43.5 95.5,50.5 95.5,57.5C 93.6921,58.9179 93.0254,60.9179 93.5,63.5C 92.5,63.5 91.5,63.5 90.5,63.5C 90.4662,67.2232 89.1328,70.2232 86.5,72.5C 88.4954,66.1689 90.4954,59.8356 92.5,53.5C 92.5,48.5 92.5,43.5 92.5,38.5C 90.7982,36.1998 90.1315,33.5331 90.5,30.5 Z"/></g>
<g><path style="opacity:1" fill="#353039" d="M 39.5,70.5 C 41.4077,71.4856 42.4077,73.1523 42.5,75.5C 41.8333,75.1667 41.1667,74.8333 40.5,74.5C 39.5655,73.4324 39.2322,72.099 39.5,70.5 Z"/></g>
<g><path style="opacity:0.485" fill="#100e12" d="M 4.5,63.5 C 6.84019,66.3227 8.84019,69.4894 10.5,73C 11.8193,73.195 13.1526,73.0283 14.5,72.5C 14.1961,73.1499 13.8627,73.8165 13.5,74.5C 14.2624,74.9106 15.2624,75.0773 16.5,75C 15.8617,76.7067 15.8617,78.54 16.5,80.5C 9.75468,76.7571 5.75468,71.0905 4.5,63.5 Z"/></g>
<g><path style="opacity:1" fill="#aa9cb9" d="M 27.5,53.5 C 28.5,53.5 29.5,53.5 30.5,53.5C 33.8926,55.0263 35.2259,57.693 34.5,61.5C 34.5,62.8333 34.5,64.1667 34.5,65.5C 35.5,65.5 36.5,65.5 37.5,65.5C 39.256,66.5521 39.9227,68.2188 39.5,70.5C 39.2322,72.099 39.5655,73.4324 40.5,74.5C 40.3893,75.1174 40.056,75.6174 39.5,76C 35.5,76.3333 31.5,76.6667 27.5,77C 37.7965,78.2507 37.7965,79.7507 27.5,81.5C 26.0222,81.762 24.6888,81.4287 23.5,80.5C 20.7775,77.4396 17.7775,74.773 14.5,72.5C 13.6586,70.6208 13.3253,68.6208 13.5,66.5C 14.5754,67.5624 15.5754,67.5624 16.5,66.5C 15.1667,65.1667 15.1667,63.8333 16.5,62.5C 18.8018,61.1985 20.8018,59.5318 22.5,57.5C 23.1667,58.1667 23.8333,58.8333 24.5,59.5C 24.8333,59 25.1667,58.5 25.5,58C 23.4644,55.9843 24.1311,54.4843 27.5,53.5 Z"/></g>
<g><path style="opacity:1" fill="#301116" d="M 53.5,73.5 C 52.5755,76.2598 50.5755,77.5931 47.5,77.5C 45.6672,77.4146 44.3339,76.7479 43.5,75.5C 44.1667,75.5 44.8333,75.5 45.5,75.5C 48.1667,74.8333 50.8333,74.1667 53.5,73.5 Z"/></g>
<g><path style="opacity:1" fill="#201b22" d="M 82.5,18.5 C 84.7288,19.0553 86.3954,20.3886 87.5,22.5C 89.0828,24.99 90.0828,27.6567 90.5,30.5C 90.1315,33.5331 90.7982,36.1998 92.5,38.5C 91.1914,40.5706 90.5248,43.0706 90.5,46C 90.5248,48.9294 91.1914,51.4294 92.5,53.5C 90.4954,59.8356 88.4954,66.1689 86.5,72.5C 82.6537,77.3794 77.987,82.3794 72.5,87.5C 68.1993,90.3228 63.5326,91.9895 58.5,92.5C 59.0065,91.1411 60.0065,90.1411 61.5,89.5C 60.0065,88.8589 59.0065,87.8589 58.5,86.5C 62.0845,84.1939 66.0845,82.8606 70.5,82.5C 70.5,81.5 70.5,80.5 70.5,79.5C 71.9778,79.762 73.3112,79.4287 74.5,78.5C 76.4782,75.3548 78.9782,72.6881 82,70.5C 83.5476,65.7355 85.3809,61.0689 87.5,56.5C 87.8333,53.5 88.1667,50.5 88.5,47.5C 87.9521,40.3163 86.6188,33.3163 84.5,26.5C 83.5,26.5 82.5,26.5 81.5,26.5C 81.1667,24.5 80.8333,22.5 80.5,20.5C 81.1556,21.2778 81.9889,21.9444 83,22.5C 83.5,22.1667 84,21.8333 84.5,21.5C 83.3881,20.7348 82.7214,19.7348 82.5,18.5 Z"/></g>
<g><path style="opacity:0.771" fill="#030204" d="M 16.5,80.5 C 19.1865,81.6638 21.5199,83.4971 23.5,86C 28.4631,87.9877 33.1297,90.1544 37.5,92.5C 28.4986,91.8373 21.4986,87.8373 16.5,80.5 Z"/></g>
<g><path style="opacity:1" fill="#3a3342" d="M 14.5,72.5 C 17.7775,74.773 20.7775,77.4396 23.5,80.5C 24.6888,81.4287 26.0222,81.762 27.5,81.5C 30.8177,84.0576 34.4844,86.0576 38.5,87.5C 45.4204,89.0616 52.0871,88.7283 58.5,86.5C 59.0065,87.8589 60.0065,88.8589 61.5,89.5C 60.0065,90.1411 59.0065,91.1411 58.5,92.5C 51.5,92.5 44.5,92.5 37.5,92.5C 33.1297,90.1544 28.4631,87.9877 23.5,86C 21.5199,83.4971 19.1865,81.6638 16.5,80.5C 15.8617,78.54 15.8617,76.7067 16.5,75C 15.2624,75.0773 14.2624,74.9106 13.5,74.5C 13.8627,73.8165 14.1961,73.1499 14.5,72.5 Z"/></g>
<g><path style="opacity:0.839" fill="#010001" d="M 37.5,92.5 C 44.5,92.5 51.5,92.5 58.5,92.5C 55.2319,93.8222 51.5652,94.4888 47.5,94.5C 43.8333,94.3333 40.1667,94.1667 36.5,94C 37.056,93.6174 37.3893,93.1174 37.5,92.5 Z"/></g>
</svg>
