<?xml version="1.0" encoding="UTF-8"?>
<!DOCTYPE svg PUBLIC "-//W3C//DTD SVG 1.1//EN" "http://www.w3.org/Graphics/SVG/1.1/DTD/svg11.dtd">
<svg xmlns="http://www.w3.org/2000/svg" version="1.1" width="96px" height="96px" style="shape-rendering:geometricPrecision; text-rendering:geometricPrecision; image-rendering:optimizeQuality; fill-rule:evenodd; clip-rule:evenodd" xmlns:xlink="http://www.w3.org/1999/xlink">
<g><path style="opacity:0.861" fill="#051a3b" d="M 41.5,-0.5 C 45.5,-0.5 49.5,-0.5 53.5,-0.5C 66.275,2.42228 76.9417,8.92228 85.5,19C 73.0076,31.6589 60.341,44.1589 47.5,56.5C 34.8333,44.1667 22.1667,31.8333 9.5,19.5C 17.9017,9.07721 28.5684,2.41055 41.5,-0.5 Z M 40.5,7.5 C 54.1282,5.65413 65.7948,9.48746 75.5,19C 66.3192,28.3477 56.9858,37.5144 47.5,46.5C 38.0142,37.5144 28.6808,28.3477 19.5,19C 25.4185,13.0436 32.4185,9.21023 40.5,7.5 Z"/></g>
<g><path style="opacity:0.946" fill="#051a3b" d="M 95.5,40.5 C 95.5,45.1667 95.5,49.8333 95.5,54.5C 91.9902,68.5116 84.3235,79.6783 72.5,88C 66.6719,91.2117 60.6719,93.7117 54.5,95.5C 49.8333,95.5 45.1667,95.5 40.5,95.5C 18.7332,89.3999 5.06653,75.3999 -0.5,53.5C -0.5,49.5 -0.5,45.5 -0.5,41.5C 1.20199,36.5712 3.03532,31.5712 5,26.5C 5.36775,25.09 6.20108,24.09 7.5,23.5C 10.3386,25.8393 13.0052,28.3393 15.5,31C 9.75312,39.4618 10.4198,47.4618 17.5,55C 24.9624,59.7437 32.2957,59.577 39.5,54.5C 41.8333,57.5 44.5,60.1667 47.5,62.5C 50.4843,60.0164 53.3176,57.3497 56,54.5C 66.2726,61.0269 74.9393,59.3602 82,49.5C 84.4857,42.6999 83.6524,36.3665 79.5,30.5C 82.1667,28.1667 84.8333,25.8333 87.5,23.5C 89.1461,24.7786 90.3128,26.4453 91,28.5C 92.5148,32.6096 94.0148,36.6096 95.5,40.5 Z"/></g>
<g><path style="opacity:0.885" fill="#051a3b" d="M 17.5,34.5 C 24.0915,39.7515 30.4248,45.4182 36.5,51.5C 27.5462,56.8568 20.7129,54.8568 16,45.5C 15.2415,41.6434 15.7415,37.9767 17.5,34.5 Z"/></g>
<g><path style="opacity:0.871" fill="#051a3b" d="M 75.5,34.5 C 77.4109,34.5743 78.5776,35.5743 79,37.5C 80.1667,49.6667 74.6667,55.1667 62.5,54C 60.9984,53.4169 59.6651,52.5836 58.5,51.5C 64.521,46.1457 70.1877,40.479 75.5,34.5 Z"/></g>
</svg>
