<?xml version="1.0" encoding="UTF-8"?>
<!DOCTYPE svg PUBLIC "-//W3C//DTD SVG 1.1//EN" "http://www.w3.org/Graphics/SVG/1.1/DTD/svg11.dtd">
<svg xmlns="http://www.w3.org/2000/svg" version="1.1" width="96px" height="96px" style="shape-rendering:geometricPrecision; text-rendering:geometricPrecision; image-rendering:optimizeQuality; fill-rule:evenodd; clip-rule:evenodd" xmlns:xlink="http://www.w3.org/1999/xlink">
<g><path style="opacity:0.866" fill="#271c73" d="M 39.5,-0.5 C 44.8333,-0.5 50.1667,-0.5 55.5,-0.5C 65.8561,2.60117 75.0228,7.93451 83,15.5C 88.9854,22.9766 93.152,31.31 95.5,40.5C 95.5,45.5 95.5,50.5 95.5,55.5C 89.8333,76.5 76.5,89.8333 55.5,95.5C 50.1667,95.5 44.8333,95.5 39.5,95.5C 18.9404,89.9407 5.60702,76.9407 -0.5,56.5C -0.5,50.5 -0.5,44.5 -0.5,38.5C 6.26096,18.7388 19.5943,5.73881 39.5,-0.5 Z"/></g>
<g><path style="opacity:1" fill="#2c1a79" d="M 42.5,2.5 C 62.9494,2.15192 78.116,10.8186 88,28.5C 96.8708,52.2165 91.0374,71.3832 70.5,86C 46.6776,97.6154 26.511,93.1154 10,72.5C -0.72301,53.8441 0.27699,35.8441 13,18.5C 21.1337,9.85281 30.967,4.51947 42.5,2.5 Z"/></g>
<g><path style="opacity:1" fill="#311780" d="M 41.5,5.5 C 58.9567,4.14809 72.79,10.4814 83,24.5C 94.5591,48.0442 90.0591,67.8775 69.5,84C 46.6955,94.5087 27.5288,90.0087 12,70.5C 0.324871,47.5384 4.49154,28.0384 24.5,12C 30.0196,9.11 35.6863,6.94333 41.5,5.5 Z"/></g>
<g><path style="opacity:1" fill="#391486" d="M 42.5,8.5 C 66.705,8.21267 81.205,19.8793 86,43.5C 87.4014,61.4091 80.2348,74.5758 64.5,83C 41.8673,90.9026 24.3673,84.7359 12,64.5C 3.23353,35.1783 13.4002,16.5117 42.5,8.5 Z"/></g>
<g><path style="opacity:1" fill="#3b128c" d="M 66.5,78.5 C 67.9069,74.5598 70.4069,71.2265 74,68.5C 84.1047,53.921 83.7714,39.5877 73,25.5C 60.9134,13.8299 47.08,11.3299 31.5,18C 12.9026,30.9765 9.06927,47.4765 20,67.5C 22.4356,70.4468 25.2689,72.7801 28.5,74.5C 28.2322,76.099 28.5655,77.4324 29.5,78.5C 29.1034,79.525 28.4368,79.6917 27.5,79C 9.54459,64.4415 6.04459,46.9415 17,26.5C 27.4987,13.5541 40.9987,8.7208 57.5,12C 79.6001,21.0329 87.7668,37.1996 82,60.5C 78.6967,68.2895 73.53,74.2895 66.5,78.5 Z"/></g>
<g><path style="opacity:1" fill="#430e96" d="M 66.5,78.5 C 65.7227,77.1178 65.056,75.1178 64.5,72.5C 64.5,71.8333 64.5,71.1667 64.5,70.5C 77.3465,56.3472 77.6798,41.8472 65.5,27C 62.2315,24.3834 58.5648,22.7167 54.5,22C 53.7894,20.7453 52.956,19.5786 52,18.5C 51.6012,18.7284 51.4346,19.0618 51.5,19.5C 50.2719,18.6935 49.2719,17.6935 48.5,16.5C 48.1034,15.475 47.4368,15.3083 46.5,16C 44.3606,18.4784 42.3606,20.9784 40.5,23.5C 25.0657,28.6956 19.5657,40.029 24,57.5C 25.8485,60.5381 27.6819,63.5381 29.5,66.5C 28.7308,69.1147 28.3975,71.7814 28.5,74.5C 25.2689,72.7801 22.4356,70.4468 20,67.5C 9.06927,47.4765 12.9026,30.9765 31.5,18C 47.08,11.3299 60.9134,13.8299 73,25.5C 83.7714,39.5877 84.1047,53.921 74,68.5C 70.4069,71.2265 67.9069,74.5598 66.5,78.5 Z"/></g>
<g><path style="opacity:1" fill="#e5560c" d="M 48.5,16.5 C 47.5073,24.6499 47.1739,32.9832 47.5,41.5C 47.5,45.1667 47.5,48.8333 47.5,52.5C 49.861,52.3259 52.1944,51.9926 54.5,51.5C 54.3505,52.552 54.5172,53.552 55,54.5C 55.1862,51.9644 55.6862,49.631 56.5,47.5C 55.3891,52.849 56.8891,57.1824 61,60.5C 62.8681,63.6051 64.0348,66.9385 64.5,70.5C 64.5,71.1667 64.5,71.8333 64.5,72.5C 64.6621,74.5273 64.4955,76.5273 64,78.5C 63.6174,77.944 63.1174,77.6107 62.5,77.5C 51.7368,63.9695 41.4035,64.3029 31.5,78.5C 30.5233,75.7131 30.19,72.7131 30.5,69.5C 30.8257,66.6887 31.6591,64.022 33,61.5C 35.0435,59.792 36.7101,57.792 38,55.5C 37.8981,47.5043 37.8981,39.5043 38,31.5C 38.9406,28.846 39.7739,26.1794 40.5,23.5C 42.3606,20.9784 44.3606,18.4784 46.5,16C 47.4368,15.3083 48.1034,15.475 48.5,16.5 Z"/></g>
<g><path style="opacity:1" fill="#5306aa" d="M 64.5,70.5 C 64.0348,66.9385 62.8681,63.6051 61,60.5C 56.8891,57.1824 55.3891,52.849 56.5,47.5C 56.5,46.1667 56.5,44.8333 56.5,43.5C 58.1903,34.8783 56.5236,26.8783 51.5,19.5C 51.4346,19.0618 51.6012,18.7284 52,18.5C 52.956,19.5786 53.7894,20.7453 54.5,22C 58.5648,22.7167 62.2315,24.3834 65.5,27C 77.6798,41.8472 77.3465,56.3472 64.5,70.5 Z"/></g>
<g><path style="opacity:1" fill="#5405aa" d="M 40.5,23.5 C 39.7739,26.1794 38.9406,28.846 38,31.5C 37.8981,39.5043 37.8981,47.5043 38,55.5C 36.7101,57.792 35.0435,59.792 33,61.5C 31.6591,64.022 30.8257,66.6887 30.5,69.5C 29.5233,72.2869 29.19,75.2869 29.5,78.5C 28.5655,77.4324 28.2322,76.099 28.5,74.5C 28.3975,71.7814 28.7308,69.1147 29.5,66.5C 27.6819,63.5381 25.8485,60.5381 24,57.5C 19.5657,40.029 25.0657,28.6956 40.5,23.5 Z"/></g>
<g><path style="opacity:1" fill="#fbd647" d="M 48.5,16.5 C 49.2719,17.6935 50.2719,18.6935 51.5,19.5C 56.5236,26.8783 58.1903,34.8783 56.5,43.5C 55.5318,41.3926 55.1984,39.0593 55.5,36.5C 51.147,35.8075 48.4804,37.4742 47.5,41.5C 47.1739,32.9832 47.5073,24.6499 48.5,16.5 Z"/></g>
<g><path style="opacity:1" fill="#fbb030" d="M 56.5,43.5 C 56.5,44.8333 56.5,46.1667 56.5,47.5C 55.6862,49.631 55.1862,51.9644 55,54.5C 54.5172,53.552 54.3505,52.552 54.5,51.5C 52.1944,51.9926 49.861,52.3259 47.5,52.5C 47.5,48.8333 47.5,45.1667 47.5,41.5C 48.4804,37.4742 51.147,35.8075 55.5,36.5C 55.1984,39.0593 55.5318,41.3926 56.5,43.5 Z"/></g>
<g><path style="opacity:1" fill="#460d99" d="M 62.5,77.5 C 55.2932,81.3941 47.2932,82.2274 38.5,80C 36.6711,79.7265 35.1711,78.8932 34,77.5C 33.1618,78.999 32.3285,79.3324 31.5,78.5C 41.4035,64.3029 51.7368,63.9695 62.5,77.5 Z"/></g>
</svg>
