<?xml version="1.0" encoding="UTF-8"?>
<!DOCTYPE svg PUBLIC "-//W3C//DTD SVG 1.1//EN" "http://www.w3.org/Graphics/SVG/1.1/DTD/svg11.dtd">
<svg xmlns="http://www.w3.org/2000/svg" version="1.1" width="96px" height="96px" style="shape-rendering:geometricPrecision; text-rendering:geometricPrecision; image-rendering:optimizeQuality; fill-rule:evenodd; clip-rule:evenodd" xmlns:xlink="http://www.w3.org/1999/xlink">
<g><path style="opacity:1" fill="#e4edf1" d="M 70.5,26.5 C 69.5111,31.9753 69.1778,37.642 69.5,43.5C 68.8333,45.8333 68.1667,48.1667 67.5,50.5C 67.9746,47.9179 67.3079,45.9179 65.5,44.5C 67.657,38.1662 67.9903,31.8329 66.5,25.5C 61.984,26.8861 58.8173,25.2194 57,20.5C 56.0053,21.0659 55.172,21.7326 54.5,22.5C 53.2058,21.7101 52.0391,20.7101 51,19.5C 49.1731,20.6616 47.5064,20.3282 46,18.5C 45,19.1667 44,19.8333 43,20.5C 41.8382,19.8132 40.6716,19.6466 39.5,20C 37.1857,24.1298 35.019,28.2965 33,32.5C 32.4646,30.7295 31.6313,30.3961 30.5,31.5C 30.7093,32.086 31.0426,32.586 31.5,33C 30.244,33.4169 29.5774,34.2502 29.5,35.5C 28.607,33.703 27.2737,32.3696 25.5,31.5C 24.7535,28.8606 23.7535,26.1939 22.5,23.5C 24.5522,19.1777 26.8855,15.011 29.5,11C 34.6915,9.24357 39.8581,7.41023 45,5.5C 46,5.83333 47,6.16667 48,6.5C 50.225,4.72166 52.725,4.22166 55.5,5C 59.7139,8.88208 64.2139,12.3821 69,15.5C 70.3368,19.0257 70.8368,22.6924 70.5,26.5 Z"/></g>
<g><path style="opacity:1" fill="#89badb" d="M 66.5,25.5 C 66.628,27.6547 66.128,29.6547 65,31.5C 64.6924,30.6919 64.1924,30.0253 63.5,29.5C 62.8326,32.6417 62.166,35.6417 61.5,38.5C 61.8128,34.9581 61.4794,31.6248 60.5,28.5C 60.1788,26.9519 59.1788,26.2852 57.5,26.5C 57.9118,24.0274 56.9118,22.6941 54.5,22.5C 55.172,21.7326 56.0053,21.0659 57,20.5C 58.8173,25.2194 61.984,26.8861 66.5,25.5 Z"/></g>
<g><path style="opacity:1" fill="#501aa2" d="M 57.5,26.5 C 59.1788,26.2852 60.1788,26.9519 60.5,28.5C 60.8128,32.0419 60.4794,35.3752 59.5,38.5C 59.9843,34.1726 59.3177,30.1726 57.5,26.5 Z"/></g>
<g><path style="opacity:1" fill="#3d0db5" d="M 66.5,25.5 C 67.9903,31.8329 67.657,38.1662 65.5,44.5C 67.3079,45.9179 67.9746,47.9179 67.5,50.5C 67.8275,55.544 67.4941,60.544 66.5,65.5C 65.1667,66.1667 63.8333,66.8333 62.5,67.5C 61.5016,57.8563 61.1682,48.1896 61.5,38.5C 62.166,35.6417 62.8326,32.6417 63.5,29.5C 64.1924,30.0253 64.6924,30.6919 65,31.5C 66.128,29.6547 66.628,27.6547 66.5,25.5 Z"/></g>
<g><path style="opacity:1" fill="#6708ef" d="M 54.5,22.5 C 56.9118,22.6941 57.9118,24.0274 57.5,26.5C 59.3177,30.1726 59.9843,34.1726 59.5,38.5C 59.5,45.8333 59.5,53.1667 59.5,60.5C 58.5318,62.6074 58.1984,64.9407 58.5,67.5C 54.1667,67.5 49.8333,67.5 45.5,67.5C 40.8333,67.5 36.1667,67.5 31.5,67.5C 30.4324,66.5655 29.099,66.2322 27.5,66.5C 27.1556,56.0462 27.8223,45.7129 29.5,35.5C 29.5774,34.2502 30.244,33.4169 31.5,33C 31.0426,32.586 30.7093,32.086 30.5,31.5C 31.6313,30.3961 32.4646,30.7295 33,32.5C 35.019,28.2965 37.1857,24.1298 39.5,20C 40.6716,19.6466 41.8382,19.8132 43,20.5C 44,19.8333 45,19.1667 46,18.5C 47.5064,20.3282 49.1731,20.6616 51,19.5C 52.0391,20.7101 53.2058,21.7101 54.5,22.5 Z"/></g>
<g><path style="opacity:1" fill="#d4d8b3" d="M 50.5,32.5 C 52.4166,36.2381 52.9166,40.2381 52,44.5C 49.6604,47.0111 47.8271,49.6778 46.5,52.5C 46.5,52.1667 46.5,51.8333 46.5,51.5C 45.0903,50.1716 43.9236,50.5049 43,52.5C 41.4506,49.9974 39.7839,49.9974 38,52.5C 37.7744,49.905 37.2744,47.405 36.5,45C 38.0664,44.3918 39.3998,43.5585 40.5,42.5C 40.5,41.5 40.5,40.5 40.5,39.5C 39.3991,38.4017 38.0657,38.235 36.5,39C 35.7511,40.7337 35.2511,42.567 35,44.5C 34.6174,43.944 34.1174,43.6107 33.5,43.5C 33.3677,40.4299 33.701,37.4299 34.5,34.5C 34.9156,32.2475 36.249,30.7475 38.5,30C 41.5,29.3333 44.5,29.3333 47.5,30C 48.9423,30.3768 49.9423,31.2101 50.5,32.5 Z"/></g>
<g><path style="opacity:1" fill="#656557" d="M 40.5,39.5 C 36.69,40.7542 36.69,41.7542 40.5,42.5C 39.3998,43.5585 38.0664,44.3918 36.5,45C 37.2744,47.405 37.7744,49.905 38,52.5C 39.7839,49.9974 41.4506,49.9974 43,52.5C 43.9236,50.5049 45.0903,50.1716 46.5,51.5C 45.2436,51.9038 44.0769,52.5705 43,53.5C 42.0546,53.0946 41.3879,52.428 41,51.5C 39.951,53.1066 38.451,53.7733 36.5,53.5C 36.6315,49.7794 35.6315,46.4461 33.5,43.5C 34.1174,43.6107 34.6174,43.944 35,44.5C 35.2511,42.567 35.7511,40.7337 36.5,39C 38.0657,38.235 39.3991,38.4017 40.5,39.5 Z"/></g>
<g><path style="opacity:1" fill="#5f02ce" d="M 48.5,39.5 C 49.8333,40.5 49.8333,41.5 48.5,42.5C 46.0155,41.7399 46.0155,40.7399 48.5,39.5 Z"/></g>
<g><path style="opacity:1" fill="#5605c6" d="M 40.5,39.5 C 40.5,40.5 40.5,41.5 40.5,42.5C 36.69,41.7542 36.69,40.7542 40.5,39.5 Z"/></g>
<g><path style="opacity:1" fill="#1c1f16" d="M 34.5,34.5 C 33.701,37.4299 33.3677,40.4299 33.5,43.5C 32.3659,41.0336 32.1993,38.367 33,35.5C 33.3826,34.944 33.8826,34.6107 34.5,34.5 Z"/></g>
<g><path style="opacity:1" fill="#2d2d28" d="M 48.5,39.5 C 46.0155,40.7399 46.0155,41.7399 48.5,42.5C 46.6227,43.9284 45.2894,43.4284 44.5,41C 45.2894,38.5716 46.6227,38.0716 48.5,39.5 Z"/></g>
<g><path style="opacity:1" fill="#312c39" d="M 42.5,43.5 C 46.8937,47.2523 46.227,48.2523 40.5,46.5C 41.1925,45.4822 41.8592,44.4822 42.5,43.5 Z"/></g>
<g><path style="opacity:1" fill="#3d442f" d="M 50.5,32.5 C 53.4025,34.3047 54.7359,36.9714 54.5,40.5C 53.2315,45.0617 51.5649,49.395 49.5,53.5C 48.209,53.7373 47.209,53.404 46.5,52.5C 47.8271,49.6778 49.6604,47.0111 52,44.5C 52.9166,40.2381 52.4166,36.2381 50.5,32.5 Z"/></g>
<g><path style="opacity:1" fill="#acb38b" d="M 25.5,31.5 C 27.2737,32.3696 28.607,33.703 29.5,35.5C 27.8223,45.7129 27.1556,56.0462 27.5,66.5C 26.71,65.3915 26.21,64.0581 26,62.5C 25.5008,57.8452 25.3342,53.1785 25.5,48.5C 25.5,42.8333 25.5,37.1667 25.5,31.5 Z"/></g>
<g><path style="opacity:0.681" fill="#36362f" d="M 70.5,26.5 C 70.5119,39.8442 70.1786,53.1775 69.5,66.5C 68.5716,58.9986 68.5716,51.3319 69.5,43.5C 69.1778,37.642 69.5111,31.9753 70.5,26.5 Z"/></g>
<g><path style="opacity:1" fill="#696267" d="M 25.5,48.5 C 25.3342,53.1785 25.5008,57.8452 26,62.5C 26.21,64.0581 26.71,65.3915 27.5,66.5C 29.099,66.2322 30.4324,66.5655 31.5,67.5C 29.8008,67.3398 28.1341,67.5065 26.5,68C 29.6946,68.1805 32.6946,68.6805 35.5,69.5C 32.4816,69.3354 29.4816,69.502 26.5,70C 28.0581,70.21 29.3915,70.71 30.5,71.5C 27.9208,71.9167 25.7542,71.25 24,69.5C 23.3292,70.2524 22.4959,70.5858 21.5,70.5C 22.1217,69.3734 22.955,68.3734 24,67.5C 24.1721,60.9867 24.6721,54.6534 25.5,48.5 Z"/></g>
<g><path style="opacity:1" fill="#583192" d="M 59.5,60.5 C 59.5,63.1667 59.5,65.8333 59.5,68.5C 54.6367,68.8195 49.97,68.4861 45.5,67.5C 49.8333,67.5 54.1667,67.5 58.5,67.5C 58.1984,64.9407 58.5318,62.6074 59.5,60.5 Z"/></g>
<g><path style="opacity:1" fill="#c6cb9e" d="M 60.5,28.5 C 61.4794,31.6248 61.8128,34.9581 61.5,38.5C 61.1682,48.1896 61.5016,57.8563 62.5,67.5C 63.8333,66.8333 65.1667,66.1667 66.5,65.5C 67.4941,60.544 67.8275,55.544 67.5,50.5C 68.1667,48.1667 68.8333,45.8333 69.5,43.5C 68.5716,51.3319 68.5716,58.9986 69.5,66.5C 70.5,66.8333 71.1667,67.5 71.5,68.5C 71.6646,71.5184 71.498,74.5184 71,77.5C 70.8091,75.2922 70.3091,73.2922 69.5,71.5C 63.2767,72.0623 60.9433,75.3957 62.5,81.5C 59.6627,83.4023 56.3293,84.069 52.5,83.5C 41.9708,83.5298 31.6375,82.8631 21.5,81.5C 20.1667,77.8333 20.1667,74.1667 21.5,70.5C 22.4959,70.5858 23.3292,70.2524 24,69.5C 25.7542,71.25 27.9208,71.9167 30.5,71.5C 40.0741,71.8714 49.5741,72.5381 59,73.5C 59.4828,72.552 59.6495,71.552 59.5,70.5C 51.4948,70.2688 43.4948,69.9355 35.5,69.5C 32.6946,68.6805 29.6946,68.1805 26.5,68C 28.1341,67.5065 29.8008,67.3398 31.5,67.5C 36.1667,67.5 40.8333,67.5 45.5,67.5C 49.97,68.4861 54.6367,68.8195 59.5,68.5C 59.5,65.8333 59.5,63.1667 59.5,60.5C 59.5,53.1667 59.5,45.8333 59.5,38.5C 60.4794,35.3752 60.8128,32.0419 60.5,28.5 Z"/></g>
<g><path style="opacity:1" fill="#504958" d="M 65.5,44.5 C 65.6882,46.1033 65.1882,47.4366 64,48.5C 63.1558,46.5372 63.6558,45.2039 65.5,44.5 Z"/></g>
<g><path style="opacity:1" fill="#121024" d="M 65.5,67.5 C 67.1033,67.3118 68.4366,67.8118 69.5,69C 67.1667,70.1667 64.8333,71.3333 62.5,72.5C 62.1667,72 61.8333,71.5 61.5,71C 62.6856,69.5879 64.019,68.4212 65.5,67.5 Z"/></g>
<g><path style="opacity:1" fill="#4f0dd1" d="M 35.5,69.5 C 43.4948,69.9355 51.4948,70.2688 59.5,70.5C 59.6495,71.552 59.4828,72.552 59,73.5C 49.5741,72.5381 40.0741,71.8714 30.5,71.5C 29.3915,70.71 28.0581,70.21 26.5,70C 29.4816,69.502 32.4816,69.3354 35.5,69.5 Z"/></g>
<g><path style="opacity:1" fill="#341a6f" d="M 30.5,73.5 C 28.076,73.1924 25.7427,73.5258 23.5,74.5C 27.3354,75.9965 27.3354,76.9965 23.5,77.5C 22.6993,75.9582 22.366,74.2915 22.5,72.5C 25.3854,72.1936 28.0521,72.5269 30.5,73.5 Z"/></g>
<g><path style="opacity:0.46" fill="#141412" d="M 21.5,70.5 C 20.1667,74.1667 20.1667,77.8333 21.5,81.5C 20.2132,80.1286 19.5465,78.2953 19.5,76C 19.5465,73.7047 20.2132,71.8714 21.5,70.5 Z"/></g>
<g><path style="opacity:1" fill="#3b09b0" d="M 30.5,73.5 C 40.5,73.8333 50.5,74.1667 60.5,74.5C 60.5,76.8333 60.5,79.1667 60.5,81.5C 47.7169,81.6481 35.0502,80.6481 22.5,78.5C 22.6236,77.8933 22.9569,77.56 23.5,77.5C 27.3354,76.9965 27.3354,75.9965 23.5,74.5C 25.7427,73.5258 28.076,73.1924 30.5,73.5 Z"/></g>
<g><path style="opacity:1" fill="#110831" d="M 69.5,71.5 C 69.6621,73.5273 69.4955,75.5273 69,77.5C 66.7218,78.719 64.5551,80.0523 62.5,81.5C 60.9433,75.3957 63.2767,72.0623 69.5,71.5 Z"/></g>
<g><path style="opacity:1" fill="#68695e" d="M 71.5,68.5 C 72.8198,71.8987 72.8198,75.3987 71.5,79C 68.8333,80.6667 66.1667,82.3333 63.5,84C 59.6425,84.8099 55.9758,84.6433 52.5,83.5C 56.3293,84.069 59.6627,83.4023 62.5,81.5C 64.5551,80.0523 66.7218,78.719 69,77.5C 69.4955,75.5273 69.6621,73.5273 69.5,71.5C 70.3091,73.2922 70.8091,75.2922 71,77.5C 71.498,74.5184 71.6646,71.5184 71.5,68.5 Z"/></g>
</svg>
