<?xml version="1.0" encoding="UTF-8"?>
<!DOCTYPE svg PUBLIC "-//W3C//DTD SVG 1.1//EN" "http://www.w3.org/Graphics/SVG/1.1/DTD/svg11.dtd">
<svg xmlns="http://www.w3.org/2000/svg" version="1.1" width="96px" height="96px" style="shape-rendering:geometricPrecision; text-rendering:geometricPrecision; image-rendering:optimizeQuality; fill-rule:evenodd; clip-rule:evenodd" xmlns:xlink="http://www.w3.org/1999/xlink">
<g><path style="opacity:0.004" fill="#10010a" d="M 42.5,-0.5 C 45.5,-0.5 48.5,-0.5 51.5,-0.5C 51.5,-0.166667 51.5,0.166667 51.5,0.5C 47.3005,0.190141 43.3005,0.856808 39.5,2.5C 40.3065,1.27187 41.3065,0.271873 42.5,-0.5 Z"/></g>
<g><path style="opacity:0.424" fill="#730645" d="M 83.5,15.5 C 82.8333,15.5 82.5,15.8333 82.5,16.5C 80.3071,17.6805 77.9738,18.6805 75.5,19.5C 74.6143,20.325 74.281,21.325 74.5,22.5C 73.5178,21.8592 72.5178,21.1925 71.5,20.5C 70.316,22.0461 69.316,23.7127 68.5,25.5C 67.2638,24.7542 65.9305,24.4208 64.5,24.5C 62.0476,24.1948 59.0476,24.1948 55.5,24.5C 54.9569,24.44 54.6236,24.1067 54.5,23.5C 56.0711,19.2418 58.7378,16.2418 62.5,14.5C 63.791,14.7373 64.791,14.404 65.5,13.5C 73.1902,8.79648 72.8569,6.96315 64.5,8C 63.6138,9.61467 62.6138,11.1147 61.5,12.5C 60.0687,11.2196 59.4021,9.55292 59.5,7.5C 59.5,6.16667 59.5,4.83333 59.5,3.5C 60.6266,2.87833 61.6266,2.04499 62.5,1C 70.5353,0.264027 78.5353,0.430693 86.5,1.5C 87.2631,4.14109 87.4298,6.80776 87,9.5C 85.5787,11.4048 84.412,13.4048 83.5,15.5 Z"/></g>
<g><path style="opacity:1" fill="#3c162c" d="M 58.5,13.5 C 54.6298,11.9831 50.7964,10.3164 47,8.5C 40.3804,13.2233 33.547,17.5566 26.5,21.5C 26.5,21.1667 26.5,20.8333 26.5,20.5C 29.9516,17.6007 33.6183,14.9341 37.5,12.5C 40.8153,10.1919 44.1486,7.85856 47.5,5.5C 51.0066,7.75405 54.6733,9.75405 58.5,11.5C 59.7733,12.2565 59.7733,12.9232 58.5,13.5 Z"/></g>
<g><path style="opacity:1" fill="#f8f3f6" d="M 65.5,13.5 C 63.901,13.7678 62.5676,13.4345 61.5,12.5C 62.6138,11.1147 63.6138,9.61467 64.5,8C 72.8569,6.96315 73.1902,8.79648 65.5,13.5 Z"/></g>
<g><path style="opacity:1" fill="#f9fafb" d="M 58.5,13.5 C 59.5676,14.4345 60.901,14.7678 62.5,14.5C 58.7378,16.2418 56.0711,19.2418 54.5,23.5C 54.6236,24.1067 54.9569,24.44 55.5,24.5C 54.4884,25.8717 53.4884,27.205 52.5,28.5C 50.4689,29.5387 49.1355,31.2054 48.5,33.5C 47.8333,33.5 47.5,33.8333 47.5,34.5C 46.5,35.8333 45.5,35.8333 44.5,34.5C 44.6716,33.5084 44.3382,32.8417 43.5,32.5C 43.3059,30.0882 41.9726,29.0882 39.5,29.5C 35.4865,27.6658 31.1532,26.9992 26.5,27.5C 25.7611,27.369 25.0944,27.5357 24.5,28C 26.5556,30.9775 29.2222,33.1442 32.5,34.5C 32.6715,36.4918 32.0049,38.1585 30.5,39.5C 30.9569,40.2975 31.6236,40.6309 32.5,40.5C 34.4113,41.075 36.078,42.075 37.5,43.5C 37.5086,45.3084 37.0086,46.9751 36,48.5C 33.9098,51.0217 32.0765,53.6884 30.5,56.5C 29.8333,56.5 29.1667,56.5 28.5,56.5C 27.375,57.3478 27.375,58.3478 28.5,59.5C 27.0937,59.9731 26.427,60.9731 26.5,62.5C 25.448,62.3505 24.448,62.5172 23.5,63C 22.4316,65.4381 21.0983,67.6048 19.5,69.5C 19.5,68.8333 19.1667,68.5 18.5,68.5C 17.612,65.9455 17.2786,63.2788 17.5,60.5C 16.8149,50.1706 16.6482,39.8372 17,29.5C 20.3575,26.9688 23.5242,24.3021 26.5,21.5C 33.547,17.5566 40.3804,13.2233 47,8.5C 50.7964,10.3164 54.6298,11.9831 58.5,13.5 Z"/></g>
<g><path style="opacity:0.137" fill="#431d3e" d="M 51.5,0.5 C 54.1667,1.5 56.8333,2.5 59.5,3.5C 59.5,4.83333 59.5,6.16667 59.5,7.5C 57.4727,7.66212 55.4727,7.49546 53.5,7C 50.7594,4.29356 47.5927,3.79356 44,5.5C 36.9158,8.96487 30.0825,12.7982 23.5,17C 21.2368,18.617 19.2368,20.4503 17.5,22.5C 16.8333,22.5 16.5,22.1667 16.5,21.5C 17.8333,19.5 19.1667,17.5 20.5,15.5C 26.5358,10.8088 32.8691,6.47549 39.5,2.5C 43.3005,0.856808 47.3005,0.190141 51.5,0.5 Z"/></g>
<g><path style="opacity:0.702" fill="#7c738d" d="M 37.5,12.5 C 33.6183,14.9341 29.9516,17.6007 26.5,20.5C 23.1944,22.4887 19.8611,24.4887 16.5,26.5C 15.5613,25.6726 15.8946,25.0059 17.5,24.5C 23.3441,20.1638 29.3441,15.9971 35.5,12C 36.4368,11.3083 37.1034,11.475 37.5,12.5 Z"/></g>
<g><path style="opacity:0.353" fill="#664a6d" d="M 59.5,7.5 C 59.4021,9.55292 60.0687,11.2196 61.5,12.5C 62.5676,13.4345 63.901,13.7678 65.5,13.5C 64.791,14.404 63.791,14.7373 62.5,14.5C 60.901,14.7678 59.5676,14.4345 58.5,13.5C 59.7733,12.9232 59.7733,12.2565 58.5,11.5C 54.6733,9.75405 51.0066,7.75405 47.5,5.5C 44.1486,7.85856 40.8153,10.1919 37.5,12.5C 37.1034,11.475 36.4368,11.3083 35.5,12C 29.3441,15.9971 23.3441,20.1638 17.5,24.5C 17.5,23.8333 17.5,23.1667 17.5,22.5C 19.2368,20.4503 21.2368,18.617 23.5,17C 30.0825,12.7982 36.9158,8.96487 44,5.5C 47.5927,3.79356 50.7594,4.29356 53.5,7C 55.4727,7.49546 57.4727,7.66212 59.5,7.5 Z"/></g>
<g><path style="opacity:0.361" fill="#2c1138" d="M 82.5,16.5 C 85.7969,18.1335 87.4636,20.8001 87.5,24.5C 85.9382,24.7329 84.6049,25.3995 83.5,26.5C 83.1667,26.5 82.8333,26.5 82.5,26.5C 82.6332,23.075 81.9665,22.7417 80.5,25.5C 78.5,24.5 76.5,23.5 74.5,22.5C 74.281,21.325 74.6143,20.325 75.5,19.5C 77.9738,18.6805 80.3071,17.6805 82.5,16.5 Z"/></g>
<g><path style="opacity:0.035" fill="#070608" d="M 83.5,15.5 C 85.8151,16.5844 87.6484,18.251 89,20.5C 89.8667,26.3379 90.7001,32.1713 91.5,38C 91.1748,47.9384 91.0081,58.105 91,68.5C 90.1237,70.6355 88.6237,71.9688 86.5,72.5C 86.1062,71.0328 85.7728,69.5328 85.5,68C 86.7133,62.4278 87.38,56.7612 87.5,51C 86.8852,42.0848 86.8852,33.2515 87.5,24.5C 87.4636,20.8001 85.7969,18.1335 82.5,16.5C 82.5,15.8333 82.8333,15.5 83.5,15.5 Z"/></g>
<g><path style="opacity:1" fill="#f7f7f8" d="M 74.5,22.5 C 76.5,23.5 78.5,24.5 80.5,25.5C 80.6666,38.1711 80.4999,50.8377 80,63.5C 78.4815,64.1634 77.3149,65.1634 76.5,66.5C 68.0666,71.7516 59.7332,77.2516 51.5,83C 50.1667,83.6667 48.8333,83.6667 47.5,83C 43.061,80.6971 38.561,78.5304 34,76.5C 33.2352,76.5699 32.7352,76.9033 32.5,77.5C 31.5,78.1667 30.5,78.8333 29.5,79.5C 29.5,79.1667 29.5,78.8333 29.5,78.5C 31.6672,76.1698 33.3338,73.5032 34.5,70.5C 35.4013,69.7095 36.0679,68.7095 36.5,67.5C 37.4918,65.5439 38.4918,63.5439 39.5,61.5C 40.4916,61.6716 41.1583,61.3382 41.5,60.5C 42.983,58.9062 44.483,57.2395 46,55.5C 46.0058,58.2644 47.1725,60.2644 49.5,61.5C 49.8333,61.5 50.1667,61.5 50.5,61.5C 51.5114,63.3716 52.3448,65.3716 53,67.5C 53.6708,68.2524 54.5041,68.5858 55.5,68.5C 59.4517,67.7279 63.4517,67.3946 67.5,67.5C 68.3764,67.6309 69.0431,67.2975 69.5,66.5C 67.6201,63.9087 65.6201,61.4087 63.5,59C 64.567,56.5728 63.9003,56.0728 61.5,57.5C 60.5084,57.6716 59.8417,57.3382 59.5,56.5C 61.9845,55.7399 61.9845,54.7399 59.5,53.5C 59.1667,53.5 58.8333,53.5 58.5,53.5C 56.9302,51.1046 55.5968,48.6046 54.5,46C 55.4233,43.3221 56.7566,40.8221 58.5,38.5C 58.3764,37.8933 58.0431,37.56 57.5,37.5C 56.6236,37.6309 55.9569,37.2975 55.5,36.5C 56.6888,35.5713 58.0222,35.238 59.5,35.5C 59.5173,37.0281 60.184,37.5281 61.5,37C 60.7476,36.3292 60.4142,35.4959 60.5,34.5C 61.5,34.1667 62.1667,33.5 62.5,32.5C 64.6689,30.6597 66.0023,28.3263 66.5,25.5C 64.5992,25.7535 63.9326,25.4202 64.5,24.5C 65.9305,24.4208 67.2638,24.7542 68.5,25.5C 69.316,23.7127 70.316,22.0461 71.5,20.5C 72.5178,21.1925 73.5178,21.8592 74.5,22.5 Z"/></g>
<g><path style="opacity:1" fill="#111213" d="M 82.5,26.5 C 83.0222,39.5773 83.0222,52.5773 82.5,65.5C 80.1417,65.2525 78.1417,65.9192 76.5,67.5C 76.5,67.1667 76.5,66.8333 76.5,66.5C 77.3149,65.1634 78.4815,64.1634 80,63.5C 80.4999,50.8377 80.6666,38.1711 80.5,25.5C 81.9665,22.7417 82.6332,23.075 82.5,26.5 Z"/></g>
<g><path style="opacity:1" fill="#1a181c" d="M 26.5,20.5 C 26.5,20.8333 26.5,21.1667 26.5,21.5C 23.5242,24.3021 20.3575,26.9688 17,29.5C 16.6482,39.8372 16.8149,50.1706 17.5,60.5C 16.8333,60.8333 16.1667,61.1667 15.5,61.5C 15.5,60.8333 15.1667,60.5 14.5,60.5C 14.7295,50.4679 14.3961,40.4679 13.5,30.5C 13.7706,28.5695 14.7706,27.2362 16.5,26.5C 19.8611,24.4887 23.1944,22.4887 26.5,20.5 Z"/></g>
<g><path style="opacity:1" fill="#0f639f" d="M 55.5,24.5 C 56.0431,24.56 56.3764,24.8933 56.5,25.5C 55.8075,26.5178 55.1408,27.5178 54.5,28.5C 53.8333,29.8333 53.1667,29.8333 52.5,28.5C 53.4884,27.205 54.4884,25.8717 55.5,24.5 Z"/></g>
<g><path style="opacity:1" fill="#380640" d="M 55.5,24.5 C 59.0476,24.1948 62.0476,24.1948 64.5,24.5C 63.9326,25.4202 64.5992,25.7535 66.5,25.5C 66.0023,28.3263 64.6689,30.6597 62.5,32.5C 60.2991,30.5823 57.6324,29.2489 54.5,28.5C 55.1408,27.5178 55.8075,26.5178 56.5,25.5C 56.3764,24.8933 56.0431,24.56 55.5,24.5 Z"/></g>
<g><path style="opacity:0.227" fill="#0a0b12" d="M 20.5,15.5 C 19.1667,17.5 17.8333,19.5 16.5,21.5C 15.5041,21.4142 14.6708,21.7476 14,22.5C 10.4138,35.6485 9.58044,48.9819 11.5,62.5C 10.325,62.281 9.32496,62.6143 8.5,63.5C 7.62578,65.7466 7.29245,68.0799 7.5,70.5C 6.05884,55.8555 5.55884,41.1888 6,26.5C 10.2264,21.977 15.0597,18.3104 20.5,15.5 Z"/></g>
<g><path style="opacity:1" fill="#2b7cb4" d="M 26.5,27.5 C 28.4679,29.9999 30.4679,32.3332 32.5,34.5C 29.2222,33.1442 26.5556,30.9775 24.5,28C 25.0944,27.5357 25.7611,27.369 26.5,27.5 Z"/></g>
<g><path style="opacity:1" fill="#573266" d="M 39.5,29.5 C 41.9726,29.0882 43.3059,30.0882 43.5,32.5C 41.7697,31.9744 40.4363,30.9744 39.5,29.5 Z"/></g>
<g><path style="opacity:1" fill="#1c0626" d="M 52.5,28.5 C 53.1667,29.8333 53.8333,29.8333 54.5,28.5C 57.6324,29.2489 60.2991,30.5823 62.5,32.5C 62.1667,33.5 61.5,34.1667 60.5,34.5C 60.631,33.7611 60.4643,33.0944 60,32.5C 56.0535,33.3458 52.2202,33.6791 48.5,33.5C 49.1355,31.2054 50.4689,29.5387 52.5,28.5 Z"/></g>
<g><path style="opacity:1" fill="#0b070e" d="M 26.5,27.5 C 31.1532,26.9992 35.4865,27.6658 39.5,29.5C 40.4363,30.9744 41.7697,31.9744 43.5,32.5C 44.3382,32.8417 44.6716,33.5084 44.5,34.5C 43.478,35.8917 43.8113,37.225 45.5,38.5C 46.7051,37.4231 47.3718,36.0898 47.5,34.5C 47.5,33.8333 47.8333,33.5 48.5,33.5C 52.2202,33.6791 56.0535,33.3458 60,32.5C 60.4643,33.0944 60.631,33.7611 60.5,34.5C 59.8333,34.5 59.5,34.8333 59.5,35.5C 58.0222,35.238 56.6888,35.5713 55.5,36.5C 55.9569,37.2975 56.6236,37.6309 57.5,37.5C 54.957,39.0228 52.957,41.1895 51.5,44C 53.0367,46.2796 54.2033,48.7796 55,51.5C 55.8159,52.8228 56.9826,53.4894 58.5,53.5C 58.8333,53.5 59.1667,53.5 59.5,53.5C 59.5,54.5 59.5,55.5 59.5,56.5C 59.8417,57.3382 60.5084,57.6716 61.5,57.5C 62.1667,58.8333 62.8333,60.1667 63.5,61.5C 60.4246,63.048 57.0912,64.048 53.5,64.5C 52.8333,63.1667 51.8333,62.1667 50.5,61.5C 50.1667,61.5 49.8333,61.5 49.5,61.5C 47.7694,50.0612 45.1027,49.7278 41.5,60.5C 41.1583,61.3382 40.4916,61.6716 39.5,61.5C 35.7603,63.6726 31.7603,64.006 27.5,62.5C 28.1272,61.5832 28.4606,60.5832 28.5,59.5C 29.625,58.6522 29.625,57.6522 28.5,56.5C 29.1667,56.5 29.8333,56.5 30.5,56.5C 33.5344,53.4952 36.3677,50.1619 39,46.5C 39.5847,45.0024 39.0847,44.0024 37.5,43.5C 36.078,42.075 34.4113,41.075 32.5,40.5C 34.6766,38.6081 34.6766,36.6081 32.5,34.5C 30.4679,32.3332 28.4679,29.9999 26.5,27.5 Z"/></g>
<g><path style="opacity:1" fill="#584472" d="M 44.5,34.5 C 45.5,35.8333 46.5,35.8333 47.5,34.5C 47.3718,36.0898 46.7051,37.4231 45.5,38.5C 43.8113,37.225 43.478,35.8917 44.5,34.5 Z"/></g>
<g><path style="opacity:1" fill="#750b44" d="M 60.5,34.5 C 60.4142,35.4959 60.7476,36.3292 61.5,37C 60.184,37.5281 59.5173,37.0281 59.5,35.5C 59.5,34.8333 59.8333,34.5 60.5,34.5 Z"/></g>
<g><path style="opacity:0.831" fill="#334550" d="M 82.5,26.5 C 82.8333,26.5 83.1667,26.5 83.5,26.5C 86.0521,40.8968 86.0521,55.2302 83.5,69.5C 82.5655,68.4324 82.2322,67.099 82.5,65.5C 83.0222,52.5773 83.0222,39.5773 82.5,26.5 Z"/></g>
<g><path style="opacity:1" fill="#5c92b7" d="M 32.5,34.5 C 34.6766,36.6081 34.6766,38.6081 32.5,40.5C 31.6236,40.6309 30.9569,40.2975 30.5,39.5C 32.0049,38.1585 32.6715,36.4918 32.5,34.5 Z"/></g>
<g><path style="opacity:1" fill="#2578b1" d="M 37.5,43.5 C 39.0847,44.0024 39.5847,45.0024 39,46.5C 36.3677,50.1619 33.5344,53.4952 30.5,56.5C 32.0765,53.6884 33.9098,51.0217 36,48.5C 37.0086,46.9751 37.5086,45.3084 37.5,43.5 Z"/></g>
<g><path style="opacity:1" fill="#66173e" d="M 57.5,37.5 C 58.0431,37.56 58.3764,37.8933 58.5,38.5C 56.7566,40.8221 55.4233,43.3221 54.5,46C 55.5968,48.6046 56.9302,51.1046 58.5,53.5C 56.9826,53.4894 55.8159,52.8228 55,51.5C 54.2033,48.7796 53.0367,46.2796 51.5,44C 52.957,41.1895 54.957,39.0228 57.5,37.5 Z"/></g>
<g><path style="opacity:0.533" fill="#28333d" d="M 16.5,21.5 C 16.5,22.1667 16.8333,22.5 17.5,22.5C 17.5,23.1667 17.5,23.8333 17.5,24.5C 15.8946,25.0059 15.5613,25.6726 16.5,26.5C 14.7706,27.2362 13.7706,28.5695 13.5,30.5C 12.2259,41.026 12.2259,51.6927 13.5,62.5C 13.0623,63.5063 12.3957,63.5063 11.5,62.5C 9.58044,48.9819 10.4138,35.6485 14,22.5C 14.6708,21.7476 15.5041,21.4142 16.5,21.5 Z"/></g>
<g><path style="opacity:0.234" fill="#141b20" d="M 87.5,24.5 C 86.8852,33.2515 86.8852,42.0848 87.5,51C 87.38,56.7612 86.7133,62.4278 85.5,68C 85.7728,69.5328 86.1062,71.0328 86.5,72.5C 86.5,73.1667 86.1667,73.5 85.5,73.5C 85.2671,71.9382 84.6005,70.6049 83.5,69.5C 86.0521,55.2302 86.0521,40.8968 83.5,26.5C 84.6049,25.3995 85.9382,24.7329 87.5,24.5 Z"/></g>
<g><path style="opacity:0.847" fill="#465861" d="M 13.5,30.5 C 14.3961,40.4679 14.7295,50.4679 14.5,60.5C 14.6716,61.4916 14.3382,62.1583 13.5,62.5C 12.2259,51.6927 12.2259,41.026 13.5,30.5 Z"/></g>
<g><path style="opacity:1" fill="#994d6e" d="M 59.5,53.5 C 61.9845,54.7399 61.9845,55.7399 59.5,56.5C 59.5,55.5 59.5,54.5 59.5,53.5 Z"/></g>
<g><path style="opacity:1" fill="#4e8fbc" d="M 28.5,56.5 C 29.625,57.6522 29.625,58.6522 28.5,59.5C 27.375,58.3478 27.375,57.3478 28.5,56.5 Z"/></g>
<g><path style="opacity:1" fill="#3184ba" d="M 49.5,61.5 C 47.1725,60.2644 46.0058,58.2644 46,55.5C 44.483,57.2395 42.983,58.9062 41.5,60.5C 45.1027,49.7278 47.7694,50.0612 49.5,61.5 Z"/></g>
<g><path style="opacity:1" fill="#812e52" d="M 67.5,67.5 C 66.5254,65.2048 65.1921,63.2048 63.5,61.5C 62.8333,60.1667 62.1667,58.8333 61.5,57.5C 63.9003,56.0728 64.567,56.5728 63.5,59C 65.6201,61.4087 67.6201,63.9087 69.5,66.5C 69.0431,67.2975 68.3764,67.6309 67.5,67.5 Z"/></g>
<g><path style="opacity:1" fill="#182a3f" d="M 28.5,59.5 C 28.4606,60.5832 28.1272,61.5832 27.5,62.5C 31.7603,64.006 35.7603,63.6726 39.5,61.5C 38.4918,63.5439 37.4918,65.5439 36.5,67.5C 36.5,66.5 36.5,65.5 36.5,64.5C 32.5,64.5 28.5,64.5 24.5,64.5C 25.1667,63.8333 25.8333,63.1667 26.5,62.5C 26.427,60.9731 27.0937,59.9731 28.5,59.5 Z"/></g>
<g><path style="opacity:1" fill="#307eb6" d="M 50.5,61.5 C 51.8333,62.1667 52.8333,63.1667 53.5,64.5C 54.1667,65.8333 54.8333,67.1667 55.5,68.5C 54.5041,68.5858 53.6708,68.2524 53,67.5C 52.3448,65.3716 51.5114,63.3716 50.5,61.5 Z"/></g>
<g><path style="opacity:1" fill="#4a0f2d" d="M 17.5,60.5 C 17.2786,63.2788 17.612,65.9455 18.5,68.5C 18.6106,70.6477 17.944,70.981 16.5,69.5C 15.52,66.9135 15.1866,64.2469 15.5,61.5C 16.1667,61.1667 16.8333,60.8333 17.5,60.5 Z"/></g>
<g><path style="opacity:1" fill="#1d0217" d="M 24.5,64.5 C 28.5,64.5 32.5,64.5 36.5,64.5C 36.5,65.5 36.5,66.5 36.5,67.5C 36.0679,68.7095 35.4013,69.7095 34.5,70.5C 33.3064,69.2227 31.6397,68.5561 29.5,68.5C 27.1166,68.6374 24.7832,68.9707 22.5,69.5C 22.3915,67.4862 23.0582,65.8195 24.5,64.5 Z"/></g>
<g><path style="opacity:1" fill="#1e0416" d="M 63.5,61.5 C 65.1921,63.2048 66.5254,65.2048 67.5,67.5C 63.4517,67.3946 59.4517,67.7279 55.5,68.5C 54.8333,67.1667 54.1667,65.8333 53.5,64.5C 57.0912,64.048 60.4246,63.048 63.5,61.5 Z"/></g>
<g><path style="opacity:0.529" fill="#323555" d="M 14.5,60.5 C 15.1667,60.5 15.5,60.8333 15.5,61.5C 15.1866,64.2469 15.52,66.9135 16.5,69.5C 17.944,70.981 18.6106,70.6477 18.5,68.5C 19.1667,68.5 19.5,68.8333 19.5,69.5C 19.2503,71.674 18.2503,73.3406 16.5,74.5C 13.0356,71.3751 11.369,67.3751 11.5,62.5C 12.3957,63.5063 13.0623,63.5063 13.5,62.5C 14.3382,62.1583 14.6716,61.4916 14.5,60.5 Z"/></g>
<g><path style="opacity:1" fill="#3c022c" d="M 34.5,70.5 C 33.3338,73.5032 31.6672,76.1698 29.5,78.5C 28.2264,77.8106 28.2264,76.9772 29.5,76C 24.9089,75.0577 20.5755,75.5577 16.5,77.5C 18.5,74.8333 20.5,72.1667 22.5,69.5C 24.7832,68.9707 27.1166,68.6374 29.5,68.5C 31.6397,68.5561 33.3064,69.2227 34.5,70.5 Z"/></g>
<g><path style="opacity:0.212" fill="#7d7388" d="M 82.5,65.5 C 82.2322,67.099 82.5655,68.4324 83.5,69.5C 84.6005,70.6049 85.2671,71.9382 85.5,73.5C 85.5,74.1667 85.1667,74.5 84.5,74.5C 82.7116,73.3775 80.7116,73.2109 78.5,74C 74.9639,75.7906 71.2973,77.2906 67.5,78.5C 69.4819,74.8537 72.1485,71.8537 75.5,69.5C 75.8333,68.8333 76.1667,68.1667 76.5,67.5C 78.1417,65.9192 80.1417,65.2525 82.5,65.5 Z"/></g>
<g><path style="opacity:0.204" fill="#350b2b" d="M 11.5,62.5 C 11.369,67.3751 13.0356,71.3751 16.5,74.5C 14.0528,77.8854 11.7195,81.3854 9.5,85C 9.72845,85.3988 10.0618,85.5654 10.5,85.5C 10.0831,86.1239 9.41638,86.4573 8.5,86.5C 6.82277,85.8131 5.15611,85.1465 3.5,84.5C 4.8887,81.3933 6.55536,78.3933 8.5,75.5C 7.69063,73.9291 7.35729,72.2624 7.5,70.5C 7.29245,68.0799 7.62578,65.7466 8.5,63.5C 9.32496,62.6143 10.325,62.281 11.5,62.5 Z"/></g>
<g><path style="opacity:0.725" fill="#a09bb2" d="M 75.5,69.5 C 72.1485,71.8537 69.4819,74.8537 67.5,78.5C 64.4225,80.5525 61.0892,82.2192 57.5,83.5C 57.1373,84.1835 56.8039,84.8501 56.5,85.5C 54.1727,85.2471 52.1727,85.9137 50.5,87.5C 49.2613,87.0576 48.2613,86.3909 47.5,85.5C 49.6547,85.628 51.6547,85.128 53.5,84C 60.4624,78.5253 67.7958,73.6919 75.5,69.5 Z"/></g>
<g><path style="opacity:1" fill="#217ab2" d="M 26.5,62.5 C 25.8333,63.1667 25.1667,63.8333 24.5,64.5C 23.0582,65.8195 22.3915,67.4862 22.5,69.5C 20.5,72.1667 18.5,74.8333 16.5,77.5C 15.0787,80.0094 13.4121,82.3428 11.5,84.5C 11.5,84.8333 11.5,85.1667 11.5,85.5C 11.1667,85.5 10.8333,85.5 10.5,85.5C 10.0618,85.5654 9.72845,85.3988 9.5,85C 11.7195,81.3854 14.0528,77.8854 16.5,74.5C 18.2503,73.3406 19.2503,71.674 19.5,69.5C 21.0983,67.6048 22.4316,65.4381 23.5,63C 24.448,62.5172 25.448,62.3505 26.5,62.5 Z"/></g>
<g><path style="opacity:0.996" fill="#b3bccc" d="M 33.5,78.5 C 38.4844,80.3255 43.1511,82.6589 47.5,85.5C 42.2472,84.207 37.5806,81.8737 33.5,78.5 Z"/></g>
<g><path style="opacity:0.835" fill="#dbc8d5" d="M 29.5,79.5 C 29.1667,80.8333 28.8333,82.1667 28.5,83.5C 27.7109,83.7828 27.0442,84.2828 26.5,85C 21.5111,85.4993 16.5111,85.6659 11.5,85.5C 11.5,85.1667 11.5,84.8333 11.5,84.5C 16.1785,84.6658 20.8452,84.4992 25.5,84C 26.7332,82.3333 28.0665,80.8333 29.5,79.5 Z"/></g>
<g><path style="opacity:1" fill="#421d2e" d="M 76.5,66.5 C 76.5,66.8333 76.5,67.1667 76.5,67.5C 76.1667,68.1667 75.8333,68.8333 75.5,69.5C 67.7958,73.6919 60.4624,78.5253 53.5,84C 51.6547,85.128 49.6547,85.628 47.5,85.5C 43.1511,82.6589 38.4844,80.3255 33.5,78.5C 33.5,77.8333 33.1667,77.5 32.5,77.5C 32.7352,76.9033 33.2352,76.5699 34,76.5C 38.561,78.5304 43.061,80.6971 47.5,83C 48.8333,83.6667 50.1667,83.6667 51.5,83C 59.7332,77.2516 68.0666,71.7516 76.5,66.5 Z"/></g>
<g><path style="opacity:1" fill="#5e0441" d="M 29.5,78.5 C 29.5,78.8333 29.5,79.1667 29.5,79.5C 28.0665,80.8333 26.7332,82.3333 25.5,84C 20.8452,84.4992 16.1785,84.6658 11.5,84.5C 13.4121,82.3428 15.0787,80.0094 16.5,77.5C 20.5755,75.5577 24.9089,75.0577 29.5,76C 28.2264,76.9772 28.2264,77.8106 29.5,78.5 Z"/></g>
<g><path style="opacity:0.031" fill="#c0a0b7" d="M 83.5,74.5 C 74.0102,81.7448 64.3435,88.7448 54.5,95.5C 51.1667,95.5 47.8333,95.5 44.5,95.5C 40.6153,92.7271 36.282,90.7271 31.5,89.5C 27.9922,90.5041 24.8255,92.1707 22,94.5C 18.9269,93.3832 15.7603,93.2165 12.5,94C 11.944,94.3826 11.6107,94.8826 11.5,95.5C 10.1667,95.5 8.83333,95.5 7.5,95.5C 5.77976,94.6923 4.1131,93.6923 2.5,92.5C 2.36899,91.7611 2.53566,91.0944 3,90.5C 6.46907,92.0029 10.1357,92.6696 14,92.5C 16.5,92.3333 19,92.1667 21.5,92C 22.4158,91.7216 23.0825,91.2216 23.5,90.5C 25.5798,88.4268 27.2464,86.0934 28.5,83.5C 30.1639,82.7769 31.8306,83.1103 33.5,84.5C 33.9081,85.6431 34.5748,86.6431 35.5,87.5C 38.9518,88.7257 42.2852,90.2257 45.5,92C 47.8333,92.6667 50.1667,92.6667 52.5,92C 61.9965,87.0871 70.9965,81.4205 79.5,75C 80.7932,74.51 82.1266,74.3433 83.5,74.5 Z"/></g>
<g><path style="opacity:0.634" fill="#786b8f" d="M 32.5,77.5 C 33.1667,77.5 33.5,77.8333 33.5,78.5C 37.5806,81.8737 42.2472,84.207 47.5,85.5C 48.2613,86.3909 49.2613,87.0576 50.5,87.5C 52.1727,85.9137 54.1727,85.2471 56.5,85.5C 54.9609,88.1061 52.6276,89.4395 49.5,89.5C 45.2303,89.3555 41.5637,87.8555 38.5,85C 36.8659,84.5065 35.1992,84.3398 33.5,84.5C 31.8306,83.1103 30.1639,82.7769 28.5,83.5C 28.8333,82.1667 29.1667,80.8333 29.5,79.5C 30.5,78.8333 31.5,78.1667 32.5,77.5 Z"/></g>
<g><path style="opacity:0.204" fill="#967898" d="M 84.5,74.5 C 84.1667,74.5 83.8333,74.5 83.5,74.5C 82.1266,74.3433 80.7932,74.51 79.5,75C 70.9965,81.4205 61.9965,87.0871 52.5,92C 50.1667,92.6667 47.8333,92.6667 45.5,92C 42.2852,90.2257 38.9518,88.7257 35.5,87.5C 34.5748,86.6431 33.9081,85.6431 33.5,84.5C 35.1992,84.3398 36.8659,84.5065 38.5,85C 41.5637,87.8555 45.2303,89.3555 49.5,89.5C 52.6276,89.4395 54.9609,88.1061 56.5,85.5C 56.8039,84.8501 57.1373,84.1835 57.5,83.5C 61.0892,82.2192 64.4225,80.5525 67.5,78.5C 71.2973,77.2906 74.9639,75.7906 78.5,74C 80.7116,73.2109 82.7116,73.3775 84.5,74.5 Z"/></g>
<g><path style="opacity:0.551" fill="#894876" d="M 28.5,83.5 C 27.2464,86.0934 25.5798,88.4268 23.5,90.5C 18.4889,90.6659 13.4889,90.4993 8.5,90C 6.66667,88.8333 4.83333,87.6667 3,86.5C 2.61742,87.056 2.11742,87.3893 1.5,87.5C 1.42702,85.9731 2.09368,84.9731 3.5,84.5C 5.15611,85.1465 6.82277,85.8131 8.5,86.5C 9.41638,86.4573 10.0831,86.1239 10.5,85.5C 10.8333,85.5 11.1667,85.5 11.5,85.5C 16.5111,85.6659 21.5111,85.4993 26.5,85C 27.0442,84.2828 27.7109,83.7828 28.5,83.5 Z"/></g>
<g><path style="opacity:0.233" fill="#a07895" d="M 23.5,90.5 C 23.0825,91.2216 22.4158,91.7216 21.5,92C 19,92.1667 16.5,92.3333 14,92.5C 10.1357,92.6696 6.46907,92.0029 3,90.5C 2.53566,91.0944 2.36899,91.7611 2.5,92.5C 1.54885,91.0813 1.21552,89.4147 1.5,87.5C 2.11742,87.3893 2.61742,87.056 3,86.5C 4.83333,87.6667 6.66667,88.8333 8.5,90C 13.4889,90.4993 18.4889,90.6659 23.5,90.5 Z"/></g>
<g><path style="opacity:0.004" fill="#ead8e4" d="M 31.5,89.5 C 29.513,92.4847 26.8463,94.4847 23.5,95.5C 19.5,95.5 15.5,95.5 11.5,95.5C 11.6107,94.8826 11.944,94.3826 12.5,94C 15.7603,93.2165 18.9269,93.3832 22,94.5C 24.8255,92.1707 27.9922,90.5041 31.5,89.5 Z"/></g>
</svg>
