<?xml version="1.0" encoding="UTF-8"?>
<!DOCTYPE svg PUBLIC "-//W3C//DTD SVG 1.1//EN" "http://www.w3.org/Graphics/SVG/1.1/DTD/svg11.dtd">
<svg xmlns="http://www.w3.org/2000/svg" version="1.1" width="96px" height="96px" style="shape-rendering:geometricPrecision; text-rendering:geometricPrecision; image-rendering:optimizeQuality; fill-rule:evenodd; clip-rule:evenodd" xmlns:xlink="http://www.w3.org/1999/xlink">
<g><path style="opacity:0.996" fill="#fdfdfd" d="M -0.5,-0.5 C 31.5,-0.5 63.5,-0.5 95.5,-0.5C 95.5,31.5 95.5,63.5 95.5,95.5C 63.5,95.5 31.5,95.5 -0.5,95.5C -0.5,63.5 -0.5,31.5 -0.5,-0.5 Z"/></g>
<g><path style="opacity:1" fill="#e56e66" d="M 36.5,12.5 C 36.5,12.8333 36.5,13.1667 36.5,13.5C 33.6865,15.0697 30.6865,16.4031 27.5,17.5C 25.1667,18.1667 22.8333,18.8333 20.5,19.5C 20.366,17.7085 20.6993,16.0418 21.5,14.5C 24.1389,11.2782 27.6389,9.61153 32,9.5C 34.1829,9.52208 35.6829,10.5221 36.5,12.5 Z"/></g>
<g><path style="opacity:1" fill="#aaa09e" d="M 43.5,15.5 C 43.5,15.8333 43.5,16.1667 43.5,16.5C 41.3792,16.6747 39.3792,16.3414 37.5,15.5C 37.6716,14.5084 37.3382,13.8417 36.5,13.5C 36.5,13.1667 36.5,12.8333 36.5,12.5C 37.7348,12.2786 38.7348,11.6119 39.5,10.5C 40.4519,12.0453 40.7852,13.712 40.5,15.5C 41.5,15.5 42.5,15.5 43.5,15.5 Z"/></g>
<g><path style="opacity:1" fill="#6a2922" d="M 36.5,13.5 C 37.3382,13.8417 37.6716,14.5084 37.5,15.5C 31.2973,16.9352 25.964,19.9352 21.5,24.5C 21.1667,24.3333 20.8333,24.1667 20.5,24C 22.7293,21.5997 25.0626,19.433 27.5,17.5C 30.6865,16.4031 33.6865,15.0697 36.5,13.5 Z"/></g>
<g><path style="opacity:1" fill="#b04236" d="M 21.5,14.5 C 20.6993,16.0418 20.366,17.7085 20.5,19.5C 22.8333,18.8333 25.1667,18.1667 27.5,17.5C 25.0626,19.433 22.7293,21.5997 20.5,24C 20.8333,24.1667 21.1667,24.3333 21.5,24.5C 25.964,19.9352 31.2973,16.9352 37.5,15.5C 39.3792,16.3414 41.3792,16.6747 43.5,16.5C 43.5,17.1667 43.5,17.8333 43.5,18.5C 40.4816,18.3354 37.4816,18.502 34.5,19C 31.5372,20.9606 28.8706,23.294 26.5,26C 23.9644,26.1862 21.631,26.6862 19.5,27.5C 18.8333,26.8333 18.1667,26.1667 17.5,25.5C 14.5645,20.3594 15.8978,16.6927 21.5,14.5 Z"/></g>
<g><path style="opacity:1" fill="#676362" d="M 43.5,15.5 C 47.1716,15.1826 48.8383,16.8493 48.5,20.5C 50.9328,20.2729 52.5994,21.2729 53.5,23.5C 52.5,23.5 51.5,23.5 50.5,23.5C 49.0695,23.5792 47.7362,23.2458 46.5,22.5C 41.7431,25.1197 41.4098,24.6197 45.5,21C 44.244,20.5831 43.5774,19.7498 43.5,18.5C 43.5,17.8333 43.5,17.1667 43.5,16.5C 43.5,16.1667 43.5,15.8333 43.5,15.5 Z"/></g>
<g><path style="opacity:1" fill="#32cf10" d="M 50.5,23.5 C 51.5,23.5 52.5,23.5 53.5,23.5C 54.6602,25.2027 53.9935,25.8693 51.5,25.5C 51.1667,24.8333 50.8333,24.1667 50.5,23.5 Z"/></g>
<g><path style="opacity:1" fill="#b1b2b1" d="M 43.5,18.5 C 43.5774,19.7498 44.244,20.5831 45.5,21C 41.4098,24.6197 41.7431,25.1197 46.5,22.5C 47.7362,23.2458 49.0695,23.5792 50.5,23.5C 50.8333,24.1667 51.1667,24.8333 51.5,25.5C 50.448,25.3505 49.448,25.5172 48.5,26C 50.3817,26.1981 52.0484,26.6981 53.5,27.5C 49.8649,27.6556 49.5315,28.8223 52.5,31C 51.376,31.2492 50.376,31.7492 49.5,32.5C 50.1667,33.8333 50.8333,35.1667 51.5,36.5C 51.1543,37.6956 50.6543,37.6956 50,36.5C 49.5357,37.0944 49.369,37.7611 49.5,38.5C 47.5382,36.0179 45.7049,33.3512 44,30.5C 43.1841,29.1772 42.0174,28.5106 40.5,28.5C 39.0222,28.238 37.6888,28.5713 36.5,29.5C 37.8334,30.6199 38.3334,31.9532 38,33.5C 36.2703,31.5981 34.437,29.9314 32.5,28.5C 31.9232,27.2267 31.2565,27.2267 30.5,28.5C 29.0521,30.6667 27.8854,33 27,35.5C 24.9646,33.0881 23.9646,33.7548 24,37.5C 23.1339,33.1935 22.1339,32.8601 21,36.5C 19.4822,33.4506 18.9822,30.4506 19.5,27.5C 21.631,26.6862 23.9644,26.1862 26.5,26C 28.8706,23.294 31.5372,20.9606 34.5,19C 37.4816,18.502 40.4816,18.3354 43.5,18.5 Z"/></g>
<g><path style="opacity:1" fill="#70451a" d="M 69.5,29.5 C 66.2214,28.5078 62.8881,28.3412 59.5,29C 57.8446,30.4443 57.178,32.2776 57.5,34.5C 56.5489,33.0813 56.2155,31.4147 56.5,29.5C 60.9513,25.5771 65.2847,25.5771 69.5,29.5 Z"/></g>
<g><path style="opacity:1" fill="#d19023" d="M 69.5,29.5 C 69.4431,30.609 69.1098,31.609 68.5,32.5C 65.5979,33.0705 62.7646,32.4038 60,30.5C 59.0656,31.8584 58.2323,33.1917 57.5,34.5C 57.178,32.2776 57.8446,30.4443 59.5,29C 62.8881,28.3412 66.2214,28.5078 69.5,29.5 Z"/></g>
<g><path style="opacity:1" fill="#f1f2f3" d="M 53.5,27.5 C 54.4614,29.2646 54.7947,31.2646 54.5,33.5C 53.6862,35.631 53.1862,37.9644 53,40.5C 52.6174,41.056 52.1174,41.3893 51.5,41.5C 49.9519,41.1788 49.2852,40.1788 49.5,38.5C 49.369,37.7611 49.5357,37.0944 50,36.5C 50.6543,37.6956 51.1543,37.6956 51.5,36.5C 50.8333,35.1667 50.1667,33.8333 49.5,32.5C 50.376,31.7492 51.376,31.2492 52.5,31C 49.5315,28.8223 49.8649,27.6556 53.5,27.5 Z"/></g>
<g><path style="opacity:1" fill="#e3d34e" d="M 69.5,29.5 C 70.8333,29.5 72.1667,29.5 73.5,29.5C 73.5,30.8333 73.5,32.1667 73.5,33.5C 70.3567,33.969 68.0233,35.6356 66.5,38.5C 66.1667,38.5 65.8333,38.5 65.5,38.5C 65.5,36.8333 65.5,35.1667 65.5,33.5C 66.791,33.7373 67.791,33.404 68.5,32.5C 69.1098,31.609 69.4431,30.609 69.5,29.5 Z"/></g>
<g><path style="opacity:1" fill="#944c0f" d="M 68.5,32.5 C 67.791,33.404 66.791,33.7373 65.5,33.5C 65.5,35.1667 65.5,36.8333 65.5,38.5C 63.4807,40.1897 61.4807,41.8564 59.5,43.5C 58.6562,40.6553 57.9896,37.6553 57.5,34.5C 58.2323,33.1917 59.0656,31.8584 60,30.5C 62.7646,32.4038 65.5979,33.0705 68.5,32.5 Z"/></g>
<g><path style="opacity:1" fill="#af6a18" d="M 73.5,33.5 C 73.5,34.1667 73.5,34.8333 73.5,35.5C 72.7751,38.7688 71.1084,41.6022 68.5,44C 67.365,44.7494 66.365,44.5827 65.5,43.5C 67.1667,42.1667 68.8333,40.8333 70.5,39.5C 70.1667,39.1667 69.8333,38.8333 69.5,38.5C 68.12,40.9767 67.12,40.9767 66.5,38.5C 68.0233,35.6356 70.3567,33.969 73.5,33.5 Z"/></g>
<g><path style="opacity:1" fill="#574d4f" d="M 40.5,28.5 C 42.0174,28.5106 43.1841,29.1772 44,30.5C 45.7049,33.3512 47.5382,36.0179 49.5,38.5C 49.2852,40.1788 49.9519,41.1788 51.5,41.5C 50.7222,42.1556 50.0556,42.9889 49.5,44C 49.8361,45.0299 50.5028,45.5299 51.5,45.5C 50.4634,47.7375 50.2967,50.0709 51,52.5C 51.3826,51.944 51.8826,51.6107 52.5,51.5C 52.4431,52.609 52.1098,53.609 51.5,54.5C 50.6618,54.8417 50.3284,55.5084 50.5,56.5C 47.5526,57.7805 45.2193,59.7805 43.5,62.5C 42.2291,64.1086 41.2291,65.9419 40.5,68C 38.8333,68.6667 37.1667,68.6667 35.5,68C 38.9008,68.266 40.5674,66.766 40.5,63.5C 39.0222,63.762 37.6888,63.4287 36.5,62.5C 36.6667,62.1667 36.8333,61.8333 37,61.5C 39.8249,63.0843 41.9916,62.4176 43.5,59.5C 41.9936,58.2528 40.4936,58.2528 39,59.5C 38.5357,58.9056 38.369,58.2389 38.5,57.5C 38.5,57.1667 38.5,56.8333 38.5,56.5C 38.5,56.1667 38.5,55.8333 38.5,55.5C 41.8677,54.8975 45.201,54.0642 48.5,53C 46.4974,51.1813 45.164,49.0146 44.5,46.5C 45.5,46.5 46.5,46.5 47.5,46.5C 47.5,45.5 47.5,44.5 47.5,43.5C 47.5,43.1667 47.5,42.8333 47.5,42.5C 47.8957,39.9556 47.229,37.7889 45.5,36C 43.6199,36.5098 41.7866,36.3431 40,35.5C 39.6913,33.6086 40.5247,32.2752 42.5,31.5C 41.8075,30.4822 41.1408,29.4822 40.5,28.5 Z"/></g>
<g><path style="opacity:1" fill="#e8c7b3" d="M 32.5,28.5 C 34.437,29.9314 36.2703,31.5981 38,33.5C 38.3334,31.9532 37.8334,30.6199 36.5,29.5C 37.6888,28.5713 39.0222,28.238 40.5,28.5C 41.1408,29.4822 41.8075,30.4822 42.5,31.5C 40.5247,32.2752 39.6913,33.6086 40,35.5C 41.7866,36.3431 43.6199,36.5098 45.5,36C 47.229,37.7889 47.8957,39.9556 47.5,42.5C 46.1266,42.6567 44.7932,42.49 43.5,42C 45.0074,41.1627 45.5074,39.9961 45,38.5C 40.0584,43.359 34.2251,44.6924 27.5,42.5C 27.3433,41.1266 27.51,39.7932 28,38.5C 28.3076,39.3081 28.8076,39.9747 29.5,40.5C 31.1151,39.846 32.7818,39.346 34.5,39C 35.3366,37.9887 35.67,36.8221 35.5,35.5C 33.1789,35.2289 31.1789,35.8955 29.5,37.5C 29.1667,37.1667 28.8333,36.8333 28.5,36.5C 29.4962,33.5493 30.8295,30.8827 32.5,28.5 Z"/></g>
<g><path style="opacity:1" fill="#8e5944" d="M 54.5,33.5 C 56.1184,36.8878 57.1184,40.5544 57.5,44.5C 56.8826,44.3893 56.3826,44.056 56,43.5C 54.6703,44.5822 53.1703,45.2488 51.5,45.5C 50.5028,45.5299 49.8361,45.0299 49.5,44C 50.0556,42.9889 50.7222,42.1556 51.5,41.5C 52.1174,41.3893 52.6174,41.056 53,40.5C 53.1862,37.9644 53.6862,35.631 54.5,33.5 Z"/></g>
<g><path style="opacity:1" fill="#796b64" d="M 17.5,25.5 C 18.1667,26.1667 18.8333,26.8333 19.5,27.5C 18.9822,30.4506 19.4822,33.4506 21,36.5C 22.1339,32.8601 23.1339,33.1935 24,37.5C 23.9646,33.7548 24.9646,33.0881 27,35.5C 27.8854,33 29.0521,30.6667 30.5,28.5C 31.2565,27.2267 31.9232,27.2267 32.5,28.5C 30.8295,30.8827 29.4962,33.5493 28.5,36.5C 28.8333,36.8333 29.1667,37.1667 29.5,37.5C 31.1789,35.8955 33.1789,35.2289 35.5,35.5C 35.67,36.8221 35.3366,37.9887 34.5,39C 32.7818,39.346 31.1151,39.846 29.5,40.5C 28.8076,39.9747 28.3076,39.3081 28,38.5C 27.51,39.7932 27.3433,41.1266 27.5,42.5C 34.2251,44.6924 40.0584,43.359 45,38.5C 45.5074,39.9961 45.0074,41.1627 43.5,42C 44.7932,42.49 46.1266,42.6567 47.5,42.5C 47.5,42.8333 47.5,43.1667 47.5,43.5C 44.1737,43.3543 41.007,44.021 38,45.5C 33.8245,44.3145 29.9912,45.1479 26.5,48C 25.7476,48.6708 25.4142,49.5041 25.5,50.5C 25.1667,50.5 24.8333,50.5 24.5,50.5C 24.1788,48.9519 23.1788,48.2852 21.5,48.5C 26.8466,45.5894 26.6799,42.9228 21,40.5C 19.453,36.6154 17.6196,33.6154 15.5,31.5C 17.0863,29.8273 17.7529,27.8273 17.5,25.5 Z"/></g>
<g><path style="opacity:1" fill="#f3f2f4" d="M 57.5,44.5 C 58.3029,45.4232 58.4696,46.4232 58,47.5C 55.833,48.4881 53.9997,49.8214 52.5,51.5C 51.8826,51.6107 51.3826,51.944 51,52.5C 50.2967,50.0709 50.4634,47.7375 51.5,45.5C 53.1703,45.2488 54.6703,44.5822 56,43.5C 56.3826,44.056 56.8826,44.3893 57.5,44.5 Z"/></g>
<g><path style="opacity:1" fill="#713413" d="M 73.5,35.5 C 73.906,41.0418 71.5727,44.7085 66.5,46.5C 64.4727,46.6621 62.4727,46.4955 60.5,46C 59.7476,45.3292 59.4142,44.4959 59.5,43.5C 61.4807,41.8564 63.4807,40.1897 65.5,38.5C 65.8333,38.5 66.1667,38.5 66.5,38.5C 67.12,40.9767 68.12,40.9767 69.5,38.5C 69.8333,38.8333 70.1667,39.1667 70.5,39.5C 68.8333,40.8333 67.1667,42.1667 65.5,43.5C 66.365,44.5827 67.365,44.7494 68.5,44C 71.1084,41.6022 72.7751,38.7688 73.5,35.5 Z"/></g>
<g><path style="opacity:1" fill="#2d332e" d="M 53.5,23.5 C 55.0603,25.1561 56.0603,27.1561 56.5,29.5C 56.2155,31.4147 56.5489,33.0813 57.5,34.5C 57.9896,37.6553 58.6562,40.6553 59.5,43.5C 59.4142,44.4959 59.7476,45.3292 60.5,46C 62.4727,46.4955 64.4727,46.6621 66.5,46.5C 66.5,46.8333 66.5,47.1667 66.5,47.5C 62.5251,46.8578 59.1918,47.8578 56.5,50.5C 55.5084,50.3284 54.8417,50.6618 54.5,51.5C 53.8333,51.5 53.1667,51.5 52.5,51.5C 53.9997,49.8214 55.833,48.4881 58,47.5C 58.4696,46.4232 58.3029,45.4232 57.5,44.5C 57.1184,40.5544 56.1184,36.8878 54.5,33.5C 54.7947,31.2646 54.4614,29.2646 53.5,27.5C 52.0484,26.6981 50.3817,26.1981 48.5,26C 49.448,25.5172 50.448,25.3505 51.5,25.5C 53.9935,25.8693 54.6602,25.2027 53.5,23.5 Z"/></g>
<g><path style="opacity:1" fill="#c8575e" d="M 47.5,43.5 C 47.5,44.5 47.5,45.5 47.5,46.5C 46.5,46.5 45.5,46.5 44.5,46.5C 45.164,49.0146 46.4974,51.1813 48.5,53C 45.201,54.0642 41.8677,54.8975 38.5,55.5C 37.8333,54.5 37.1667,53.5 36.5,52.5C 35.1131,49.6739 33.1131,49.0073 30.5,50.5C 29.8333,50.5 29.5,50.8333 29.5,51.5C 29.1667,51.5 28.8333,51.5 28.5,51.5C 27.609,50.8902 26.609,50.5569 25.5,50.5C 25.4142,49.5041 25.7476,48.6708 26.5,48C 29.9912,45.1479 33.8245,44.3145 38,45.5C 41.007,44.021 44.1737,43.3543 47.5,43.5 Z"/></g>
<g><path style="opacity:1" fill="#297b04" d="M 66.5,47.5 C 67.391,48.1098 68.391,48.4431 69.5,48.5C 69.5,48.8333 69.5,49.1667 69.5,49.5C 67.1432,49.3367 64.8098,49.5034 62.5,50C 63.3805,50.7083 64.0472,51.5416 64.5,52.5C 61.5718,52.4349 58.9052,51.7682 56.5,50.5C 59.1918,47.8578 62.5251,46.8578 66.5,47.5 Z"/></g>
<g><path style="opacity:1" fill="#32402d" d="M 69.5,49.5 C 69.5,49.1667 69.5,48.8333 69.5,48.5C 71.0269,48.427 72.0269,49.0937 72.5,50.5C 71.391,50.4431 70.391,50.1098 69.5,49.5 Z"/></g>
<g><path style="opacity:1" fill="#3f1c17" d="M 30.5,50.5 C 33.1131,49.0073 35.1131,49.6739 36.5,52.5C 35.391,52.4431 34.391,52.1098 33.5,51.5C 32.791,50.596 31.791,50.2627 30.5,50.5 Z"/></g>
<g><path style="opacity:1" fill="#262925" d="M 21.5,48.5 C 23.1788,48.2852 24.1788,48.9519 24.5,50.5C 24.5,50.8333 24.5,51.1667 24.5,51.5C 23.596,52.209 23.2627,53.209 23.5,54.5C 20.7564,53.4905 18.4231,53.8238 16.5,55.5C 15.8202,58.3602 14.4869,60.8602 12.5,63C 12.4459,65.0595 12.6126,67.2261 13,69.5C 12.7216,68.5842 12.2216,67.9175 11.5,67.5C 10.1059,62.012 11.7725,57.1787 16.5,53C 15.0439,52.5774 14.5439,51.7441 15,50.5C 16.897,48.9837 19.0637,48.317 21.5,48.5 Z"/></g>
<g><path style="opacity:1" fill="#267f00" d="M 30.5,50.5 C 31.791,50.2627 32.791,50.596 33.5,51.5C 32.9569,51.56 32.6236,51.8933 32.5,52.5C 34.1331,54.503 36.1331,55.8363 38.5,56.5C 38.5,56.8333 38.5,57.1667 38.5,57.5C 37.2876,58.2299 36.2876,59.2299 35.5,60.5C 33.4483,57.4645 31.4483,54.4645 29.5,51.5C 29.5,50.8333 29.8333,50.5 30.5,50.5 Z"/></g>
<g><path style="opacity:1" fill="#33ea00" d="M 69.5,49.5 C 70.391,50.1098 71.391,50.4431 72.5,50.5C 73.2905,51.4013 74.2905,52.0679 75.5,52.5C 73.0521,53.4731 70.3854,53.8064 67.5,53.5C 66.391,53.4431 65.391,53.1098 64.5,52.5C 64.0472,51.5416 63.3805,50.7083 62.5,50C 64.8098,49.5034 67.1432,49.3367 69.5,49.5 Z"/></g>
<g><path style="opacity:1" fill="#e7c4af" d="M 24.5,50.5 C 24.8333,50.5 25.1667,50.5 25.5,50.5C 26.609,50.5569 27.609,50.8902 28.5,51.5C 28.573,53.0269 27.9063,54.0269 26.5,54.5C 24.9519,54.1788 24.2852,53.1788 24.5,51.5C 24.5,51.1667 24.5,50.8333 24.5,50.5 Z"/></g>
<g><path style="opacity:1" fill="#30e500" d="M 33.5,51.5 C 34.391,52.1098 35.391,52.4431 36.5,52.5C 37.1667,53.5 37.8333,54.5 38.5,55.5C 38.5,55.8333 38.5,56.1667 38.5,56.5C 36.1331,55.8363 34.1331,54.503 32.5,52.5C 32.6236,51.8933 32.9569,51.56 33.5,51.5 Z"/></g>
<g><path style="opacity:1" fill="#2ed200" d="M 52.5,51.5 C 53.1667,51.5 53.8333,51.5 54.5,51.5C 54.6107,52.1174 54.944,52.6174 55.5,53C 57.8098,53.4966 60.1432,53.6633 62.5,53.5C 63.2625,54.2679 64.2625,54.7679 65.5,55C 64.9558,55.7172 64.2891,56.2172 63.5,56.5C 59.6575,54.9983 55.6575,54.3316 51.5,54.5C 52.1098,53.609 52.4431,52.609 52.5,51.5 Z"/></g>
<g><path style="opacity:1" fill="#846e26" d="M 56.5,50.5 C 58.9052,51.7682 61.5718,52.4349 64.5,52.5C 64.1583,53.3382 63.4916,53.6716 62.5,53.5C 60.1432,53.6633 57.8098,53.4966 55.5,53C 54.944,52.6174 54.6107,52.1174 54.5,51.5C 54.8417,50.6618 55.5084,50.3284 56.5,50.5 Z"/></g>
<g><path style="opacity:1" fill="#50b413" d="M 75.5,52.5 C 75.8333,52.5 76.1667,52.5 76.5,52.5C 76.5,53.1667 76.5,53.8333 76.5,54.5C 75.448,54.3505 74.448,54.5172 73.5,55C 74.8882,55.8893 74.7215,56.3893 73,56.5C 71.5603,55.8524 70.0603,55.5191 68.5,55.5C 68.1667,54.8333 67.8333,54.1667 67.5,53.5C 70.3854,53.8064 73.0521,53.4731 75.5,52.5 Z"/></g>
<g><path style="opacity:1" fill="#676767" d="M 24.5,51.5 C 24.2852,53.1788 24.9519,54.1788 26.5,54.5C 25.9094,55.1515 25.2427,55.8182 24.5,56.5C 29.7922,62.7407 29.1255,68.9074 22.5,75C 20.1152,75.5564 17.7819,75.3897 15.5,74.5C 13.9069,73.6521 12.7403,72.3187 12,70.5C 11.5172,69.552 11.3505,68.552 11.5,67.5C 12.2216,67.9175 12.7216,68.5842 13,69.5C 12.6126,67.2261 12.4459,65.0595 12.5,63C 14.4869,60.8602 15.8202,58.3602 16.5,55.5C 18.4231,53.8238 20.7564,53.4905 23.5,54.5C 23.2627,53.209 23.596,52.209 24.5,51.5 Z"/></g>
<g><path style="opacity:1" fill="#2eac00" d="M 50.5,56.5 C 54.6372,56.1463 58.6372,56.6463 62.5,58C 61.2068,58.49 59.8734,58.6567 58.5,58.5C 52.7088,57.4888 47.8755,59.1555 44,63.5C 43.6012,63.2716 43.4346,62.9382 43.5,62.5C 45.2193,59.7805 47.5526,57.7805 50.5,56.5 Z"/></g>
<g><path style="opacity:1" fill="#b5a23c" d="M 76.5,54.5 C 77.0431,54.56 77.3764,54.8933 77.5,55.5C 76.7573,56.1818 76.0906,56.8485 75.5,57.5C 72.8333,57.8333 70.1667,58.1667 67.5,58.5C 67.5,57.5 67.5,56.5 67.5,55.5C 67.8333,55.5 68.1667,55.5 68.5,55.5C 70.0603,55.5191 71.5603,55.8524 73,56.5C 74.7215,56.3893 74.8882,55.8893 73.5,55C 74.448,54.5172 75.448,54.3505 76.5,54.5 Z"/></g>
<g><path style="opacity:1" fill="#143e03" d="M 51.5,54.5 C 55.6575,54.3316 59.6575,54.9983 63.5,56.5C 63.9118,58.9726 62.9118,60.3059 60.5,60.5C 59.8333,59.8333 59.1667,59.1667 58.5,58.5C 59.8734,58.6567 61.2068,58.49 62.5,58C 58.6372,56.6463 54.6372,56.1463 50.5,56.5C 50.3284,55.5084 50.6618,54.8417 51.5,54.5 Z"/></g>
<g><path style="opacity:1" fill="#30b003" d="M 67.5,55.5 C 67.5,56.5 67.5,57.5 67.5,58.5C 70.1667,58.1667 72.8333,57.8333 75.5,57.5C 75.3057,58.968 73.9724,59.6347 71.5,59.5C 69.8333,59.5 68.1667,59.5 66.5,59.5C 66.2322,57.901 66.5655,56.5676 67.5,55.5 Z"/></g>
<g><path style="opacity:1" fill="#287501" d="M 64.5,52.5 C 65.391,53.1098 66.391,53.4431 67.5,53.5C 67.8333,54.1667 68.1667,54.8333 68.5,55.5C 68.1667,55.5 67.8333,55.5 67.5,55.5C 66.5655,56.5676 66.2322,57.901 66.5,59.5C 68.1667,59.5 69.8333,59.5 71.5,59.5C 71.1667,60.1667 70.8333,60.8333 70.5,61.5C 69.8826,61.6107 69.3826,61.944 69,62.5C 68.5026,65.146 68.3359,67.8127 68.5,70.5C 70.1667,70.5 71.8333,70.5 73.5,70.5C 72.3915,71.29 71.0581,71.79 69.5,72C 70.448,72.4828 71.448,72.6495 72.5,72.5C 71.0536,73.6129 69.3869,73.7796 67.5,73C 66.4355,68.0754 64.1022,63.9088 60.5,60.5C 62.9118,60.3059 63.9118,58.9726 63.5,56.5C 64.2891,56.2172 64.9558,55.7172 65.5,55C 64.2625,54.7679 63.2625,54.2679 62.5,53.5C 63.4916,53.6716 64.1583,53.3382 64.5,52.5 Z"/></g>
<g><path style="opacity:1" fill="#1b3a0b" d="M 76.5,52.5 C 78.2798,53.9899 78.9465,55.9899 78.5,58.5C 78.5,59.5 78.5,60.5 78.5,61.5C 77.1667,61.5 75.8333,61.5 74.5,61.5C 74.1667,61.5 73.8333,61.5 73.5,61.5C 72.5,61.5 71.5,61.5 70.5,61.5C 70.8333,60.8333 71.1667,60.1667 71.5,59.5C 73.9724,59.6347 75.3057,58.968 75.5,57.5C 76.0906,56.8485 76.7573,56.1818 77.5,55.5C 77.3764,54.8933 77.0431,54.56 76.5,54.5C 76.5,53.8333 76.5,53.1667 76.5,52.5 Z"/></g>
<g><path style="opacity:1" fill="#3f3f3f" d="M 78.5,58.5 C 81.9687,60.4714 84.9687,62.9714 87.5,66C 88.0774,77.0646 82.7441,81.3979 71.5,79C 69.9069,78.0513 68.5736,76.8846 67.5,75.5C 70.0761,74.9439 72.7428,74.7773 75.5,75C 79.1044,73.6661 80.271,71.1661 79,67.5C 78.0656,66.1416 77.2323,64.8083 76.5,63.5C 75.5,63.1667 74.8333,62.5 74.5,61.5C 75.8333,61.5 77.1667,61.5 78.5,61.5C 78.5,60.5 78.5,59.5 78.5,58.5 Z"/></g>
<g><path style="opacity:1" fill="#5e5e5e" d="M 49.5,81.5 C 48.2905,81.0679 47.2905,80.4013 46.5,79.5C 46.281,78.325 46.6143,77.325 47.5,76.5C 50.6705,79.3353 53.5038,79.0019 56,75.5C 57.2272,71.4087 56.3939,67.9087 53.5,65C 52.1667,64.3333 50.8333,64.3333 49.5,65C 47.2625,67.0305 45.7625,69.5305 45,72.5C 44.3992,70.6412 43.5659,70.3079 42.5,71.5C 41.6618,71.1583 41.3284,70.4916 41.5,69.5C 43.3884,67.2625 45.3884,64.9292 47.5,62.5C 49.7676,61.4557 52.1009,61.289 54.5,62C 56.8333,64 59.1667,66 61.5,68C 59.6368,69.4178 59.1368,71.2511 60,73.5C 60.7175,72.5494 61.5509,72.3828 62.5,73C 61.5399,74.4194 60.7065,75.9194 60,77.5C 59.6667,76.8333 59.3333,76.1667 59,75.5C 56.6433,79.0668 53.4766,81.0668 49.5,81.5 Z"/></g>
<g><path style="opacity:1" fill="#8a732e" d="M 73.5,61.5 C 73.8333,61.5 74.1667,61.5 74.5,61.5C 74.8333,62.5 75.5,63.1667 76.5,63.5C 76.5,65.1667 76.5,66.8333 76.5,68.5C 74.326,68.9202 72.326,68.9202 70.5,68.5C 72.0198,66.3379 73.0198,64.0046 73.5,61.5 Z"/></g>
<g><path style="opacity:1" fill="#151515" d="M 17.5,57.5 C 24.0912,57.5935 26.9245,60.9269 26,67.5C 22.8409,75.0481 19.1742,75.3814 15,68.5C 14.1212,64.4376 14.9545,60.771 17.5,57.5 Z"/></g>
<g><path style="opacity:1" fill="#262626" d="M 28.5,51.5 C 28.8333,51.5 29.1667,51.5 29.5,51.5C 31.4483,54.4645 33.4483,57.4645 35.5,60.5C 36.2876,59.2299 37.2876,58.2299 38.5,57.5C 38.369,58.2389 38.5357,58.9056 39,59.5C 40.4936,58.2528 41.9936,58.2528 43.5,59.5C 41.9916,62.4176 39.8249,63.0843 37,61.5C 36.8333,61.8333 36.6667,62.1667 36.5,62.5C 37.6888,63.4287 39.0222,63.762 40.5,63.5C 40.5674,66.766 38.9008,68.266 35.5,68C 37.1667,68.6667 38.8333,68.6667 40.5,68C 41.2291,65.9419 42.2291,64.1086 43.5,62.5C 43.4346,62.9382 43.6012,63.2716 44,63.5C 47.8755,59.1555 52.7088,57.4888 58.5,58.5C 59.1667,59.1667 59.8333,59.8333 60.5,60.5C 64.1022,63.9088 66.4355,68.0754 67.5,73C 69.3869,73.7796 71.0536,73.6129 72.5,72.5C 74.6807,72.7163 76.3474,71.883 77.5,70C 76.1807,69.805 74.8474,69.9717 73.5,70.5C 71.8333,70.5 70.1667,70.5 68.5,70.5C 68.3359,67.8127 68.5026,65.146 69,62.5C 69.3826,61.944 69.8826,61.6107 70.5,61.5C 71.5,61.5 72.5,61.5 73.5,61.5C 73.0198,64.0046 72.0198,66.3379 70.5,68.5C 72.326,68.9202 74.326,68.9202 76.5,68.5C 76.5,66.8333 76.5,65.1667 76.5,63.5C 77.2323,64.8083 78.0656,66.1416 79,67.5C 80.271,71.1661 79.1044,73.6661 75.5,75C 72.7428,74.7773 70.0761,74.9439 67.5,75.5C 63.2051,82.2807 57.2051,84.2807 49.5,81.5C 53.4766,81.0668 56.6433,79.0668 59,75.5C 59.3333,76.1667 59.6667,76.8333 60,77.5C 60.7065,75.9194 61.5399,74.4194 62.5,73C 61.5509,72.3828 60.7175,72.5494 60,73.5C 59.1368,71.2511 59.6368,69.4178 61.5,68C 59.1667,66 56.8333,64 54.5,62C 52.1009,61.289 49.7676,61.4557 47.5,62.5C 45.3884,64.9292 43.3884,67.2625 41.5,69.5C 39.5183,69.9954 37.5183,70.4954 35.5,71C 31.7251,78.0572 26.0584,80.3905 18.5,78C 17.2899,76.9609 16.2899,75.7942 15.5,74.5C 17.7819,75.3897 20.1152,75.5564 22.5,75C 29.1255,68.9074 29.7922,62.7407 24.5,56.5C 25.2427,55.8182 25.9094,55.1515 26.5,54.5C 27.9063,54.0269 28.573,53.0269 28.5,51.5 Z"/></g>
<g><path style="opacity:1" fill="#34da00" d="M 72.5,72.5 C 71.448,72.6495 70.448,72.4828 69.5,72C 71.0581,71.79 72.3915,71.29 73.5,70.5C 74.8474,69.9717 76.1807,69.805 77.5,70C 76.3474,71.883 74.6807,72.7163 72.5,72.5 Z"/></g>
<g><path style="opacity:1" fill="#1b1b1b" d="M 46.5,79.5 C 44.2295,77.3877 42.8961,74.721 42.5,71.5C 43.5659,70.3079 44.3992,70.6412 45,72.5C 45.7625,69.5305 47.2625,67.0305 49.5,65C 50.8333,64.3333 52.1667,64.3333 53.5,65C 56.3939,67.9087 57.2272,71.4087 56,75.5C 53.5038,79.0019 50.6705,79.3353 47.5,76.5C 46.6143,77.325 46.281,78.325 46.5,79.5 Z"/></g>
</svg>
