<?xml version="1.0" encoding="UTF-8"?>
<!DOCTYPE svg PUBLIC "-//W3C//DTD SVG 1.1//EN" "http://www.w3.org/Graphics/SVG/1.1/DTD/svg11.dtd">
<svg xmlns="http://www.w3.org/2000/svg" version="1.1" width="96px" height="96px" style="shape-rendering:geometricPrecision; text-rendering:geometricPrecision; image-rendering:optimizeQuality; fill-rule:evenodd; clip-rule:evenodd" xmlns:xlink="http://www.w3.org/1999/xlink">
<g><path style="opacity:0.997" fill="#044443" d="M 37.5,-0.5 C 44.1667,-0.5 50.8333,-0.5 57.5,-0.5C 77.1667,5.16667 89.8333,17.8333 95.5,37.5C 95.5,44.1667 95.5,50.8333 95.5,57.5C 89.8333,77.1667 77.1667,89.8333 57.5,95.5C 50.8333,95.5 44.1667,95.5 37.5,95.5C 17.8333,89.8333 5.16667,77.1667 -0.5,57.5C -0.5,50.8333 -0.5,44.1667 -0.5,37.5C 5.16667,17.8333 17.8333,5.16667 37.5,-0.5 Z"/></g>
<g><path style="opacity:1" fill="#baa164" d="M 54.5,73.5 C 54.1918,67.5746 54.5251,61.7412 55.5,56C 54.9056,55.5357 54.2389,55.369 53.5,55.5C 54.9516,54.6981 56.6183,54.1981 58.5,54C 60.4206,52.7592 60.754,51.2592 59.5,49.5C 58.1667,50.5 56.8333,51.5 55.5,52.5C 54.1932,48.4261 53.0265,44.4261 52,40.5C 52.8333,39.6667 53.6667,38.8333 54.5,38C 61.4891,37.0041 68.1557,35.0041 74.5,32C 76.0954,28.2434 75.4287,24.9101 72.5,22C 75.776,23.2365 78.6094,25.4032 81,28.5C 81.9621,33.2328 80.4621,37.0661 76.5,40C 72.942,42.4083 69.1087,44.2416 65,45.5C 65.3201,48.4601 65.3201,51.4601 65,54.5C 62.3176,57.3497 59.4843,60.0164 56.5,62.5C 57.6113,63.6113 58.278,64.9446 58.5,66.5C 57.1085,68.8692 55.7752,71.2025 54.5,73.5 Z"/></g>
<g><path style="opacity:1" fill="#bba162" d="M 46.5,66.5 C 47.4137,69.728 47.7471,73.0613 47.5,76.5C 46.1667,76.5 44.8333,76.5 43.5,76.5C 41.9826,76.4894 40.8159,75.8228 40,74.5C 39.0991,71.9293 37.7658,69.596 36,67.5C 35.884,65.3454 36.2173,63.3454 37,61.5C 34.3333,58.8333 31.6667,56.1667 29,53.5C 28.3826,50.9649 28.8826,48.6316 30.5,46.5C 23.083,44.2171 17.2497,39.8838 13,33.5C 12.3653,31.3646 12.6986,29.3646 14,27.5C 16.4794,24.931 19.146,22.5977 22,20.5C 20.9668,22.9262 19.8001,25.4262 18.5,28C 18.6431,30.151 19.6431,31.8176 21.5,33C 28.3319,35.2574 35.1653,37.424 42,39.5C 41.8492,43.9697 40.8492,48.3031 39,52.5C 37.8904,50.9632 36.3904,50.2965 34.5,50.5C 34.33,51.8221 34.6634,52.9887 35.5,54C 37.433,54.2511 39.2663,54.7511 41,55.5C 42.8466,59.1932 44.6799,62.8599 46.5,66.5 Z"/></g>
<g><path style="opacity:1" fill="#a88e53" d="M 53.5,55.5 C 54.2389,55.369 54.9056,55.5357 55.5,56C 54.5251,61.7412 54.1918,67.5746 54.5,73.5C 51.5509,77.3445 47.8842,78.3445 43.5,76.5C 44.8333,76.5 46.1667,76.5 47.5,76.5C 47.7471,73.0613 47.4137,69.728 46.5,66.5C 49.5684,63.378 51.9017,59.7114 53.5,55.5 Z"/></g>
</svg>
