<?xml version="1.0" encoding="UTF-8"?>
<!DOCTYPE svg PUBLIC "-//W3C//DTD SVG 1.1//EN" "http://www.w3.org/Graphics/SVG/1.1/DTD/svg11.dtd">
<svg xmlns="http://www.w3.org/2000/svg" version="1.1" width="96px" height="96px" style="shape-rendering:geometricPrecision; text-rendering:geometricPrecision; image-rendering:optimizeQuality; fill-rule:evenodd; clip-rule:evenodd" xmlns:xlink="http://www.w3.org/1999/xlink">
<g><path style="opacity:0.878" fill="#505050" d="M 83.5,61.5 C 82.596,60.791 82.2627,59.791 82.5,58.5C 82.8279,47.3206 82.4946,36.3206 81.5,25.5C 70.4521,17.7969 59.1188,10.4636 47.5,3.5C 35.8812,10.4636 24.5479,17.7969 13.5,25.5C 12.8333,25.5 12.5,25.8333 12.5,26.5C 11.8333,35.5 11.1667,44.5 10.5,53.5C 10.3335,43.8276 10.5002,34.1609 11,24.5C 22.7712,16.3799 34.7712,8.71319 47,1.5C 59.6065,8.64128 71.9399,16.3079 84,24.5C 84.7934,36.8789 84.6268,49.2123 83.5,61.5 Z"/></g>
<g><path style="opacity:1" fill="#f1f1f1" d="M 81.5,25.5 C 81.6665,35.8387 81.4998,46.172 81,56.5C 78.901,57.1305 77.0677,58.1305 75.5,59.5C 75.6665,49.8276 75.4998,40.1609 75,30.5C 66.5,24.6667 58,18.8333 49.5,13C 48.1667,12.3333 46.8333,12.3333 45.5,13C 37.2889,18.2658 29.2889,23.7658 21.5,29.5C 36.8505,38.5274 52.1839,47.5274 67.5,56.5C 66.8826,56.6107 66.3826,56.944 66,57.5C 64.5341,55.6751 62.7008,55.1751 60.5,56C 61.056,56.3826 61.3893,56.8826 61.5,57.5C 48.8333,51.1667 36.1667,44.8333 23.5,38.5C 22.791,37.596 21.791,37.2627 20.5,37.5C 20.1746,45.3516 20.508,53.0182 21.5,60.5C 21.5,61.1667 21.5,61.8333 21.5,62.5C 21.1583,63.3382 20.4916,63.6716 19.5,63.5C 19.6716,62.5084 19.3382,61.8417 18.5,61.5C 17.9492,58.1933 17.6159,54.8599 17.5,51.5C 17.8308,43.8045 17.4975,36.1378 16.5,28.5C 15.1451,27.8118 14.1451,26.8118 13.5,25.5C 24.5479,17.7969 35.8812,10.4636 47.5,3.5C 59.1188,10.4636 70.4521,17.7969 81.5,25.5 Z"/></g>
<g><path style="opacity:1" fill="#282828" d="M 75.5,59.5 C 72.8598,58.5515 70.1931,57.5515 67.5,56.5C 52.1839,47.5274 36.8505,38.5274 21.5,29.5C 29.2889,23.7658 37.2889,18.2658 45.5,13C 46.8333,12.3333 48.1667,12.3333 49.5,13C 58,18.8333 66.5,24.6667 75,30.5C 75.4998,40.1609 75.6665,49.8276 75.5,59.5 Z"/></g>
<g><path style="opacity:1" fill="#818181" d="M 13.5,25.5 C 14.1451,26.8118 15.1451,27.8118 16.5,28.5C 17.4975,36.1378 17.8308,43.8045 17.5,51.5C 16.7784,51.0825 16.2784,50.4158 16,49.5C 15.6667,50.5 15.3333,51.5 15,52.5C 14.3333,51.1667 13.6667,51.1667 13,52.5C 12.5002,43.8397 12.3336,35.1731 12.5,26.5C 12.5,25.8333 12.8333,25.5 13.5,25.5 Z"/></g>
<g><path style="opacity:1" fill="#5f5f5f" d="M 23.5,38.5 C 36.1667,44.8333 48.8333,51.1667 61.5,57.5C 64.1789,59.6009 67.0123,61.6009 70,63.5C 70.2997,65.0657 69.7997,66.399 68.5,67.5C 68.1667,67.5 67.8333,67.5 67.5,67.5C 67.5,67.1667 67.5,66.8333 67.5,66.5C 68.3029,65.5768 68.4696,64.5768 68,63.5C 65.5524,62.0268 63.0524,60.6935 60.5,59.5C 47.969,52.7377 35.6357,45.7377 23.5,38.5 Z"/></g>
<g><path style="opacity:1" fill="#5c5c5c" d="M 23.5,38.5 C 22.179,41.5982 21.5123,45.0982 21.5,49C 21.5335,52.9152 21.8668,56.7486 22.5,60.5C 22.1667,60.5 21.8333,60.5 21.5,60.5C 20.508,53.0182 20.1746,45.3516 20.5,37.5C 21.791,37.2627 22.791,37.596 23.5,38.5 Z"/></g>
<g><path style="opacity:1" fill="#ededed" d="M 23.5,38.5 C 35.6357,45.7377 47.969,52.7377 60.5,59.5C 48.011,60.4954 35.3443,60.8287 22.5,60.5C 21.8668,56.7486 21.5335,52.9152 21.5,49C 21.5123,45.0982 22.179,41.5982 23.5,38.5 Z"/></g>
<g><path style="opacity:1" fill="#c9c9c9" d="M 81.5,25.5 C 82.4946,36.3206 82.8279,47.3206 82.5,58.5C 81.2616,60.2143 80.595,62.2143 80.5,64.5C 76.1394,64.2912 72.1394,65.2912 68.5,67.5C 69.7997,66.399 70.2997,65.0657 70,63.5C 67.0123,61.6009 64.1789,59.6009 61.5,57.5C 61.3893,56.8826 61.056,56.3826 60.5,56C 62.7008,55.1751 64.5341,55.6751 66,57.5C 66.3826,56.944 66.8826,56.6107 67.5,56.5C 70.1931,57.5515 72.8598,58.5515 75.5,59.5C 77.0677,58.1305 78.901,57.1305 81,56.5C 81.4998,46.172 81.6665,35.8387 81.5,25.5 Z"/></g>
<g><path style="opacity:1" fill="#5f5f5f" d="M 12.5,26.5 C 12.3336,35.1731 12.5002,43.8397 13,52.5C 13.6667,51.1667 14.3333,51.1667 15,52.5C 15.3333,51.5 15.6667,50.5 16,49.5C 16.2784,50.4158 16.7784,51.0825 17.5,51.5C 17.6159,54.8599 17.9492,58.1933 18.5,61.5C 16.9081,62.6016 16.0748,61.935 16,59.5C 15.0093,60.4296 14.5093,61.5962 14.5,63C 15.4729,66.6455 17.3062,69.8121 20,72.5C 27.7185,79.2742 35.8851,85.4409 44.5,91C 51.5348,90.3514 57.5348,87.3514 62.5,82C 60.6447,81.5779 58.8114,81.0779 57,80.5C 53.7101,82.2868 50.5435,84.2868 47.5,86.5C 41.7407,82.9659 36.4074,78.9659 31.5,74.5C 31.56,73.9569 31.8933,73.6236 32.5,73.5C 33.6223,74.6302 34.9557,75.2969 36.5,75.5C 39.9894,77.7462 43.6561,79.7462 47.5,81.5C 51.7655,79.2351 55.7655,76.5684 59.5,73.5C 61.3113,73.208 63.3113,73.208 65.5,73.5C 67.9837,71.517 70.3171,69.3504 72.5,67C 74.4432,67.3052 76.4432,67.3052 78.5,67C 79.3805,66.2917 80.0472,65.4584 80.5,64.5C 80.595,62.2143 81.2616,60.2143 82.5,58.5C 82.2627,59.791 82.596,60.791 83.5,61.5C 81.9716,67.2058 78.9716,72.0391 74.5,76C 67.0114,81.9106 59.3447,87.5773 51.5,93C 48.8333,93.6667 46.1667,93.6667 43.5,93C 34.0954,86.9316 25.2621,80.0983 17,72.5C 12.5477,66.9771 10.381,60.6437 10.5,53.5C 11.1667,44.5 11.8333,35.5 12.5,26.5 Z"/></g>
<g><path style="opacity:1" fill="#181818" d="M 21.5,60.5 C 21.8333,60.5 22.1667,60.5 22.5,60.5C 23.8333,63.8333 26.1667,66.1667 29.5,67.5C 31.2048,69.1921 33.2048,70.5254 35.5,71.5C 39.0739,74.9658 43.0739,77.9658 47.5,80.5C 51.5681,77.4793 55.5681,74.4793 59.5,71.5C 61.3885,70.396 63.0552,69.0627 64.5,67.5C 65.391,66.8902 66.391,66.5569 67.5,66.5C 67.5,66.8333 67.5,67.1667 67.5,67.5C 64.8333,69.5 62.1667,71.5 59.5,73.5C 55.7655,76.5684 51.7655,79.2351 47.5,81.5C 43.6561,79.7462 39.9894,77.7462 36.5,75.5C 31.2728,71.3929 26.2728,67.0596 21.5,62.5C 21.5,61.8333 21.5,61.1667 21.5,60.5 Z"/></g>
<g><path style="opacity:1" fill="#5c5c5c" d="M 35.5,71.5 C 43.3199,71.6124 51.3199,71.6124 59.5,71.5C 55.5681,74.4793 51.5681,77.4793 47.5,80.5C 43.0739,77.9658 39.0739,74.9658 35.5,71.5 Z"/></g>
<g><path style="opacity:1" fill="#939393" d="M 21.5,62.5 C 26.2728,67.0596 31.2728,71.3929 36.5,75.5C 34.9557,75.2969 33.6223,74.6302 32.5,73.5C 31.8933,73.6236 31.56,73.9569 31.5,74.5C 26.8947,71.5643 22.8947,67.8976 19.5,63.5C 20.4916,63.6716 21.1583,63.3382 21.5,62.5 Z"/></g>
<g><path style="opacity:1" fill="#909090" d="M 29.5,67.5 C 41.1667,67.5 52.8333,67.5 64.5,67.5C 63.0552,69.0627 61.3885,70.396 59.5,71.5C 51.3199,71.6124 43.3199,71.6124 35.5,71.5C 33.2048,70.5254 31.2048,69.1921 29.5,67.5 Z"/></g>
<g><path style="opacity:1" fill="#969696" d="M 80.5,64.5 C 80.0472,65.4584 79.3805,66.2917 78.5,67C 76.4432,67.3052 74.4432,67.3052 72.5,67C 70.3171,69.3504 67.9837,71.517 65.5,73.5C 63.3113,73.208 61.3113,73.208 59.5,73.5C 62.1667,71.5 64.8333,69.5 67.5,67.5C 67.8333,67.5 68.1667,67.5 68.5,67.5C 72.1394,65.2912 76.1394,64.2912 80.5,64.5 Z"/></g>
<g><path style="opacity:1" fill="#bfbfbf" d="M 60.5,59.5 C 63.0524,60.6935 65.5524,62.0268 68,63.5C 68.4696,64.5768 68.3029,65.5768 67.5,66.5C 66.391,66.5569 65.391,66.8902 64.5,67.5C 52.8333,67.5 41.1667,67.5 29.5,67.5C 26.1667,66.1667 23.8333,63.8333 22.5,60.5C 35.3443,60.8287 48.011,60.4954 60.5,59.5 Z"/></g>
<g><path style="opacity:1" fill="#232323" d="M 18.5,61.5 C 19.3382,61.8417 19.6716,62.5084 19.5,63.5C 22.8947,67.8976 26.8947,71.5643 31.5,74.5C 36.4074,78.9659 41.7407,82.9659 47.5,86.5C 50.5435,84.2868 53.7101,82.2868 57,80.5C 58.8114,81.0779 60.6447,81.5779 62.5,82C 57.5348,87.3514 51.5348,90.3514 44.5,91C 35.8851,85.4409 27.7185,79.2742 20,72.5C 17.3062,69.8121 15.4729,66.6455 14.5,63C 14.5093,61.5962 15.0093,60.4296 16,59.5C 16.0748,61.935 16.9081,62.6016 18.5,61.5 Z"/></g>
</svg>
