<?xml version="1.0" encoding="UTF-8"?>
<!DOCTYPE svg PUBLIC "-//W3C//DTD SVG 1.1//EN" "http://www.w3.org/Graphics/SVG/1.1/DTD/svg11.dtd">
<svg xmlns="http://www.w3.org/2000/svg" version="1.1" width="96px" height="96px" style="shape-rendering:geometricPrecision; text-rendering:geometricPrecision; image-rendering:optimizeQuality; fill-rule:evenodd; clip-rule:evenodd" xmlns:xlink="http://www.w3.org/1999/xlink">
<g><path style="opacity:1" fill="#d9e7f9" d="M 37.5,-0.5 C 44.1667,-0.5 50.8333,-0.5 57.5,-0.5C 71.9102,3.21804 82.9102,11.5514 90.5,24.5C 62.9429,25.8056 35.1095,25.8056 7,24.5C 6.08529,25.3279 5.41862,26.3279 5,27.5C 4.53566,26.9056 4.36899,26.2389 4.5,25.5C 11.9691,12.2753 22.9691,3.60862 37.5,-0.5 Z"/></g>
<g><path style="opacity:1" fill="#d0e1f6" d="M 90.5,24.5 C 92.2099,28.5734 93.8765,32.5734 95.5,36.5C 95.5,42.5 95.5,48.5 95.5,54.5C 93.4508,54.2942 93.1175,53.4609 94.5,52C 92.8659,51.5065 91.1992,51.3398 89.5,51.5C 89.6567,52.8734 89.49,54.2068 89,55.5C 88.79,53.9419 88.29,52.6085 87.5,51.5C 84.9075,47.5289 81.2409,45.0289 76.5,44C 74.4407,42.8145 74.274,41.6479 76,40.5C 79.6161,42.2559 83.4494,42.9225 87.5,42.5C 86.3444,35.5297 82.1777,32.5297 75,33.5C 69.7691,33.23 66.2691,35.5634 64.5,40.5C 63.7321,41.2625 63.2321,42.2625 63,43.5C 62.7216,42.5842 62.2216,41.9175 61.5,41.5C 56.6405,34.5974 49.9739,32.0974 41.5,34C 39.0043,35.6665 36.671,37.4998 34.5,39.5C 34.5654,39.0618 34.3988,38.7284 34,38.5C 31.2982,42.3721 29.9649,46.7055 30,51.5C 29.6667,50.8333 29.3333,50.1667 29,49.5C 28.7216,50.4158 28.2216,51.0825 27.5,51.5C 27.5,49.1667 27.5,46.8333 27.5,44.5C 24.8333,44.5 22.1667,44.5 19.5,44.5C 19.5,43.5 19.5,42.5 19.5,41.5C 23.1667,41.5 26.8333,41.5 30.5,41.5C 30.8064,38.6146 30.4731,35.9479 29.5,33.5C 22.8333,33.5 16.1667,33.5 9.5,33.5C 8.66997,42.9913 8.16997,52.658 8,62.5C 7.50137,58.8484 7.3347,55.1817 7.5,51.5C 5.5,51.5 3.5,51.5 1.5,51.5C 1.79472,53.7354 1.46138,55.7354 0.5,57.5C 0.166667,57.5 -0.166667,57.5 -0.5,57.5C -0.5,50.8333 -0.5,44.1667 -0.5,37.5C 0.773429,33.3491 2.4401,29.3491 4.5,25.5C 4.36899,26.2389 4.53566,26.9056 5,27.5C 5.41862,26.3279 6.08529,25.3279 7,24.5C 35.1095,25.8056 62.9429,25.8056 90.5,24.5 Z"/></g>
<g><path style="opacity:1" fill="#fdfdfe" d="M 61.5,41.5 C 63.2566,58.4377 55.9233,64.9377 39.5,61C 32.3281,55.1289 30.6614,47.9622 34.5,39.5C 36.671,37.4998 39.0043,35.6665 41.5,34C 49.9739,32.0974 56.6405,34.5974 61.5,41.5 Z"/></g>
<g><path style="opacity:1" fill="#ce2a33" d="M 87.5,51.5 C 87.9571,56.4206 85.9571,59.9206 81.5,62C 73.3115,64.6281 67.6448,62.1281 64.5,54.5C 66.1667,54.1667 67.8333,53.8333 69.5,53.5C 72.2786,53.92 74.9453,54.5867 77.5,55.5C 77.719,54.325 77.3857,53.325 76.5,52.5C 71.9493,51.3096 68.116,48.9763 65,45.5C 64.5065,43.8659 64.3398,42.1992 64.5,40.5C 66.2691,35.5634 69.7691,33.23 75,33.5C 82.1777,32.5297 86.3444,35.5297 87.5,42.5C 83.4494,42.9225 79.6161,42.2559 76,40.5C 74.274,41.6479 74.4407,42.8145 76.5,44C 81.2409,45.0289 84.9075,47.5289 87.5,51.5 Z"/></g>
<g><path style="opacity:1" fill="#039042" d="M 9.5,33.5 C 16.1667,33.5 22.8333,33.5 29.5,33.5C 29.5,35.8333 29.5,38.1667 29.5,40.5C 25.8333,40.5 22.1667,40.5 18.5,40.5C 18.5,42.1667 18.5,43.8333 18.5,45.5C 21.1667,45.5 23.8333,45.5 26.5,45.5C 26.5,47.5 26.5,49.5 26.5,51.5C 23.8333,51.5 21.1667,51.5 18.5,51.5C 18.5,55.1667 18.5,58.8333 18.5,62.5C 15.5,62.5 12.5,62.5 9.5,62.5C 9.5,52.8333 9.5,43.1667 9.5,33.5 Z"/></g>
<g><path style="opacity:1" fill="#7fb7a4" d="M 29.5,33.5 C 30.4731,35.9479 30.8064,38.6146 30.5,41.5C 26.8333,41.5 23.1667,41.5 19.5,41.5C 19.5,42.5 19.5,43.5 19.5,44.5C 22.1667,44.5 24.8333,44.5 27.5,44.5C 27.5,46.8333 27.5,49.1667 27.5,51.5C 27.1667,51.5 26.8333,51.5 26.5,51.5C 26.5,49.5 26.5,47.5 26.5,45.5C 23.8333,45.5 21.1667,45.5 18.5,45.5C 18.5,43.8333 18.5,42.1667 18.5,40.5C 22.1667,40.5 25.8333,40.5 29.5,40.5C 29.5,38.1667 29.5,35.8333 29.5,33.5 Z"/></g>
<g><path style="opacity:1" fill="#bfd6f1" d="M 9.5,33.5 C 9.5,43.1667 9.5,52.8333 9.5,62.5C 12.5,62.5 15.5,62.5 18.5,62.5C 18.5,58.8333 18.5,55.1667 18.5,51.5C 21.1667,51.5 23.8333,51.5 26.5,51.5C 26.8333,51.5 27.1667,51.5 27.5,51.5C 28.2216,51.0825 28.7216,50.4158 29,49.5C 29.3333,50.1667 29.6667,50.8333 30,51.5C 29.9649,46.7055 31.2982,42.3721 34,38.5C 34.3988,38.7284 34.5654,39.0618 34.5,39.5C 30.6614,47.9622 32.3281,55.1289 39.5,61C 55.9233,64.9377 63.2566,58.4377 61.5,41.5C 62.2216,41.9175 62.7216,42.5842 63,43.5C 63.2321,42.2625 63.7321,41.2625 64.5,40.5C 64.3398,42.1992 64.5065,43.8659 65,45.5C 68.116,48.9763 71.9493,51.3096 76.5,52.5C 77.3857,53.325 77.719,54.325 77.5,55.5C 74.9453,54.5867 72.2786,53.92 69.5,53.5C 67.8333,53.8333 66.1667,54.1667 64.5,54.5C 67.6448,62.1281 73.3115,64.6281 81.5,62C 85.9571,59.9206 87.9571,56.4206 87.5,51.5C 88.29,52.6085 88.79,53.9419 89,55.5C 89.49,54.2068 89.6567,52.8734 89.5,51.5C 91.1992,51.3398 92.8659,51.5065 94.5,52C 93.1175,53.4609 93.4508,54.2942 95.5,54.5C 95.5,55.8333 95.5,57.1667 95.5,58.5C 93.5753,65.0161 90.5753,71.0161 86.5,76.5C 86.6309,75.6236 86.2975,74.9569 85.5,74.5C 60.2092,75.3241 34.8759,75.8241 9.5,76C 11.6192,76.3418 11.9526,77.1751 10.5,78.5C 4.78292,72.7292 1.44958,65.7292 0.5,57.5C 1.46138,55.7354 1.79472,53.7354 1.5,51.5C 3.5,51.5 5.5,51.5 7.5,51.5C 7.3347,55.1817 7.50137,58.8484 8,62.5C 8.16997,52.658 8.66997,42.9913 9.5,33.5 Z"/></g>
<g><path style="opacity:1" fill="#c6daf2" d="M 44.5,41.5 C 51.5555,41.2496 54.0555,44.5829 52,51.5C 48.6667,55.5 45.3333,55.5 42,51.5C 40.8613,47.5789 41.6946,44.2456 44.5,41.5 Z"/></g>
<g><path style="opacity:1" fill="#b8d2f1" d="M 86.5,76.5 C 80.9473,84.0625 73.9473,89.7292 65.5,93.5C 62.9327,93.7215 60.5994,94.3882 58.5,95.5C 51.1667,95.5 43.8333,95.5 36.5,95.5C 26.2364,92.3624 17.5698,86.6957 10.5,78.5C 11.9526,77.1751 11.6192,76.3418 9.5,76C 34.8759,75.8241 60.2092,75.3241 85.5,74.5C 86.2975,74.9569 86.6309,75.6236 86.5,76.5 Z"/></g>
<g><path style="opacity:0.004" fill="#c8b4e7" d="M 65.5,93.5 C 66.8333,94.1667 66.8333,94.1667 65.5,93.5 Z"/></g>
</svg>
