<?xml version="1.0" encoding="UTF-8"?>
<!DOCTYPE svg PUBLIC "-//W3C//DTD SVG 1.1//EN" "http://www.w3.org/Graphics/SVG/1.1/DTD/svg11.dtd">
<svg xmlns="http://www.w3.org/2000/svg" version="1.1" width="96px" height="96px" style="shape-rendering:geometricPrecision; text-rendering:geometricPrecision; image-rendering:optimizeQuality; fill-rule:evenodd; clip-rule:evenodd" xmlns:xlink="http://www.w3.org/1999/xlink">
<g><path style="opacity:0.998" fill="#e4dbc8" d="M 37.5,-0.5 C 44.1667,-0.5 50.8333,-0.5 57.5,-0.5C 77.1667,5.16667 89.8333,17.8333 95.5,37.5C 95.5,44.1667 95.5,50.8333 95.5,57.5C 89.8333,77.1667 77.1667,89.8333 57.5,95.5C 50.8333,95.5 44.1667,95.5 37.5,95.5C 17.8333,89.8333 5.16667,77.1667 -0.5,57.5C -0.5,50.8333 -0.5,44.1667 -0.5,37.5C 5.16667,17.8333 17.8333,5.16667 37.5,-0.5 Z"/></g>
<g><path style="opacity:1" fill="#ddbd7a" d="M 22.5,27.5 C 29.117,26.1125 35.7836,26.4459 42.5,28.5C 41.8875,32.163 41.7208,35.8297 42,39.5C 42.8631,36.0408 44.0297,32.7074 45.5,29.5C 48.7456,31.0392 51.9123,32.7059 55,34.5C 53.8539,39.0335 53.5205,43.7002 54,48.5C 54.5478,44.3068 55.7145,40.3068 57.5,36.5C 64.6423,35.0102 71.6423,35.5102 78.5,38C 82.4043,41.9452 82.4043,45.9452 78.5,50C 82.1881,53.7103 84.8547,58.0437 86.5,63C 86.0448,65.9544 84.3781,67.7878 81.5,68.5C 61.3389,64.3338 43.8389,55.0005 29,40.5C 25.7195,36.606 23.5528,32.2726 22.5,27.5 Z"/></g>
<g><path style="opacity:1" fill="#ddbd7a" d="M 25.5,42.5 C 26.1667,42.5 26.5,42.8333 26.5,43.5C 27.7226,46.2739 29.2226,48.9406 31,51.5C 31.7175,52.4506 32.5509,52.6172 33.5,52C 32.6195,51.2917 31.9528,50.4584 31.5,49.5C 36.7368,52.1282 41.7368,55.2949 46.5,59C 37.5623,60.5479 28.5623,60.8812 19.5,60C 15.6891,58.9301 12.3557,57.0967 9.5,54.5C 13.6435,49.076 18.9768,45.076 25.5,42.5 Z"/></g>
<g><path style="opacity:1" fill="#f7eedf" d="M 26.5,43.5 C 28.6326,45.0905 30.2993,47.0905 31.5,49.5C 31.9528,50.4584 32.6195,51.2917 33.5,52C 32.5509,52.6172 31.7175,52.4506 31,51.5C 29.2226,48.9406 27.7226,46.2739 26.5,43.5 Z"/></g>
<g><path style="opacity:1" fill="#f6eedd" d="M 67.5,42.5 C 68.3764,42.3691 69.0431,42.7025 69.5,43.5C 68.0238,47.4038 66.8572,51.4038 66,55.5C 65.4221,51.0451 65.9221,46.7117 67.5,42.5 Z"/></g>
<g><path style="opacity:1" fill="#d1a75c" d="M 22.5,27.5 C 23.5528,32.2726 25.7195,36.606 29,40.5C 43.8389,55.0005 61.3389,64.3338 81.5,68.5C 70.9478,68.6959 60.9478,66.3625 51.5,61.5C 38.4846,65.0557 25.4846,65.2224 12.5,62C 9.95855,60.1516 8.95855,57.6516 9.5,54.5C 12.3557,57.0967 15.6891,58.9301 19.5,60C 28.5623,60.8812 37.5623,60.5479 46.5,59C 41.7368,55.2949 36.7368,52.1282 31.5,49.5C 30.2993,47.0905 28.6326,45.0905 26.5,43.5C 26.5,42.8333 26.1667,42.5 25.5,42.5C 21.4242,38.6773 19.9242,34.0107 21,28.5C 21.3826,27.944 21.8826,27.6107 22.5,27.5 Z"/></g>
</svg>
