<?xml version="1.0" encoding="UTF-8"?>
<!DOCTYPE svg PUBLIC "-//W3C//DTD SVG 1.1//EN" "http://www.w3.org/Graphics/SVG/1.1/DTD/svg11.dtd">
<svg xmlns="http://www.w3.org/2000/svg" version="1.1" width="96px" height="96px" style="shape-rendering:geometricPrecision; text-rendering:geometricPrecision; image-rendering:optimizeQuality; fill-rule:evenodd; clip-rule:evenodd" xmlns:xlink="http://www.w3.org/1999/xlink">
<g><path style="opacity:0.767" fill="#000000" d="M 41.5,5.5 C 66.0601,5.36011 81.8934,17.0268 89,40.5C 90.4296,65.7922 78.9296,81.9589 54.5,89C 28.6172,90.4726 12.4505,78.6393 6,53.5C 5.44145,28.2677 17.2748,12.2677 41.5,5.5 Z M 39.5,11.5 C 65.7808,9.45097 80.7808,21.451 84.5,47.5C 80.5883,74.2542 65.255,86.0875 38.5,83C 13.7145,73.2528 5.88113,55.7528 15,30.5C 20.7601,20.8912 28.9268,14.5578 39.5,11.5 Z M 29.5,32.5 C 30.8202,35.2799 31.3202,38.2799 31,41.5C 29.9264,40.3816 28.7598,39.3816 27.5,38.5C 28.3721,36.5504 29.0388,34.5504 29.5,32.5 Z M 35.5,34.5 C 40.6589,36.0079 45.9922,37.0079 51.5,37.5C 51.7093,38.086 52.0426,38.586 52.5,39C 51.2713,40.5292 49.7713,41.6959 48,42.5C 47.2172,44.3185 47.7172,45.6518 49.5,46.5C 51.2581,45.8721 52.7581,44.8721 54,43.5C 54.5,44 55,44.5 55.5,45C 54.3349,46.0836 53.0016,46.9169 51.5,47.5C 50.1101,49.4946 50.6101,50.828 53,51.5C 54.5589,50.9706 56.0589,50.304 57.5,49.5C 59.5075,51.0082 61.1741,52.8416 62.5,55C 65.2019,56.3399 67.8685,57.6733 70.5,59C 66.1667,59.6667 61.8333,59.6667 57.5,59C 50.8333,55 44.1667,51 37.5,47C 36.4186,42.9341 35.7519,38.7674 35.5,34.5 Z M 24.5,42.5 C 26.6491,43.7476 28.6491,45.2476 30.5,47C 26.4962,48.1046 24.4962,46.6046 24.5,42.5 Z M 55.5,63.5 C 47.8042,60.8193 40.4709,57.3193 33.5,53C 34.5929,51.6346 35.9262,51.3013 37.5,52C 43.7341,55.6082 49.7341,59.4415 55.5,63.5 Z"/></g>
<g><path style="opacity:0.762" fill="#000000" d="M 31.5,57.5 C 25.9546,54.4502 21.9546,49.9502 19.5,44C 22.455,40.3782 24.2884,36.2115 25,31.5C 26.5987,28.4415 29.0987,26.4415 32.5,25.5C 35.2448,28.4123 38.4115,30.7456 42,32.5C 44.4405,26.8628 48.6072,24.8628 54.5,26.5C 55.2868,27.2421 55.9535,28.0754 56.5,29C 55.8333,30.6667 55.1667,32.3333 54.5,34C 57.2597,40.8603 61.2597,46.8603 66.5,52C 74.2399,53.2999 77.0732,57.7999 75,65.5C 73.6811,67.4875 71.8477,68.6541 69.5,69C 58.8333,69.6667 48.1667,69.6667 37.5,69C 35.6063,67.9207 35.273,66.5874 36.5,65C 39.1667,64.6667 41.8333,64.3333 44.5,64C 40.1136,61.8068 35.7802,59.6401 31.5,57.5 Z M 29.5,32.5 C 29.0388,34.5504 28.3721,36.5504 27.5,38.5C 28.7598,39.3816 29.9264,40.3816 31,41.5C 31.3202,38.2799 30.8202,35.2799 29.5,32.5 Z M 35.5,34.5 C 35.7519,38.7674 36.4186,42.9341 37.5,47C 44.1667,51 50.8333,55 57.5,59C 61.8333,59.6667 66.1667,59.6667 70.5,59C 67.8685,57.6733 65.2019,56.3399 62.5,55C 61.1741,52.8416 59.5075,51.0082 57.5,49.5C 56.0589,50.304 54.5589,50.9706 53,51.5C 50.6101,50.828 50.1101,49.4946 51.5,47.5C 53.0016,46.9169 54.3349,46.0836 55.5,45C 55,44.5 54.5,44 54,43.5C 52.7581,44.8721 51.2581,45.8721 49.5,46.5C 47.7172,45.6518 47.2172,44.3185 48,42.5C 49.7713,41.6959 51.2713,40.5292 52.5,39C 52.0426,38.586 51.7093,38.086 51.5,37.5C 45.9922,37.0079 40.6589,36.0079 35.5,34.5 Z M 24.5,42.5 C 24.4962,46.6046 26.4962,48.1046 30.5,47C 28.6491,45.2476 26.6491,43.7476 24.5,42.5 Z M 55.5,63.5 C 49.7341,59.4415 43.7341,55.6082 37.5,52C 35.9262,51.3013 34.5929,51.6346 33.5,53C 40.4709,57.3193 47.8042,60.8193 55.5,63.5 Z"/></g>
<g><path style="opacity:0.631" fill="#000000" d="M 31.5,57.5 C 32.1408,58.4822 32.8075,59.4822 33.5,60.5C 32.9747,61.1924 32.3081,61.6924 31.5,62C 28.1667,62.6667 24.8333,62.6667 21.5,62C 20.273,60.4126 20.6063,59.0793 22.5,58C 25.4816,57.502 28.4816,57.3354 31.5,57.5 Z"/></g>
</svg>
