<?xml version="1.0" encoding="UTF-8"?>
<!DOCTYPE svg PUBLIC "-//W3C//DTD SVG 1.1//EN" "http://www.w3.org/Graphics/SVG/1.1/DTD/svg11.dtd">
<svg xmlns="http://www.w3.org/2000/svg" version="1.1" width="96px" height="96px" style="shape-rendering:geometricPrecision; text-rendering:geometricPrecision; image-rendering:optimizeQuality; fill-rule:evenodd; clip-rule:evenodd" xmlns:xlink="http://www.w3.org/1999/xlink">
<g><path style="opacity:0.958" fill="#fd91c1" d="M 37.5,-0.5 C 44.1667,-0.5 50.8333,-0.5 57.5,-0.5C 77.1667,5.16667 89.8333,17.8333 95.5,37.5C 95.5,39.5 95.5,41.5 95.5,43.5C 88.8333,37.1667 82.1667,30.8333 75.5,24.5C 72.012,19.8106 67.3453,18.3106 61.5,20C 59.6156,21.0487 58.2823,22.5487 57.5,24.5C 54.2365,23.5178 50.9032,22.8511 47.5,22.5C 43.9682,22.31 40.6348,22.9767 37.5,24.5C 34.5082,19.743 30.1748,18.243 24.5,20C 19.7817,23.3433 18.2817,27.8433 20,33.5C 20.8763,35.6355 22.3763,36.9688 24.5,37.5C 18.9594,46.3525 18.126,55.6859 22,65.5C 24.0627,67.7341 26.2294,69.7341 28.5,71.5C 35.7985,79.1471 43.4651,87.1471 51.5,95.5C 46.8333,95.5 42.1667,95.5 37.5,95.5C 17.8333,89.8333 5.16667,77.1667 -0.5,57.5C -0.5,50.8333 -0.5,44.1667 -0.5,37.5C 5.16667,17.8333 17.8333,5.16667 37.5,-0.5 Z"/></g>
<g><path style="opacity:1" fill="#55535a" d="M 35.5,25.5 C 32.8587,27.8044 30.192,30.1377 27.5,32.5C 26.2643,32.9885 24.7643,32.9885 23,32.5C 22.4403,22.0993 26.6069,19.7659 35.5,25.5 Z"/></g>
<g><path style="opacity:1" fill="#e5e6e6" d="M 47.5,22.5 C 47.5,32.5 47.5,42.5 47.5,52.5C 42.3334,54.1758 41.3334,57.1758 44.5,61.5C 44.0334,64.2974 42.3667,65.6308 39.5,65.5C 39.5,66.5 39.5,67.5 39.5,68.5C 42.6145,68.6061 45.2812,67.6061 47.5,65.5C 47.5,68.5 47.5,71.5 47.5,74.5C 49.7354,74.2053 51.7354,74.5386 53.5,75.5C 44.7312,76.3672 36.3979,75.0339 28.5,71.5C 26.2294,69.7341 24.0627,67.7341 22,65.5C 18.126,55.6859 18.9594,46.3525 24.5,37.5C 25.2485,35.6675 26.2485,34.0009 27.5,32.5C 30.192,30.1377 32.8587,27.8044 35.5,25.5C 36.4916,25.6716 37.1583,25.3382 37.5,24.5C 40.6348,22.9767 43.9682,22.31 47.5,22.5 Z"/></g>
<g><path style="opacity:1" fill="#c8c7ce" d="M 47.5,22.5 C 50.9032,22.8511 54.2365,23.5178 57.5,24.5C 62.7944,28.1266 67.461,32.46 71.5,37.5C 75.6897,45.8129 76.5231,54.4796 74,63.5C 69.2471,70.9628 62.4138,74.9628 53.5,75.5C 51.7354,74.5386 49.7354,74.2053 47.5,74.5C 47.5,71.5 47.5,68.5 47.5,65.5C 49.7188,67.6061 52.3855,68.6061 55.5,68.5C 55.5,67.5 55.5,66.5 55.5,65.5C 52.6333,65.6308 50.9666,64.2974 50.5,61.5C 53.6772,57.2254 52.6772,54.2254 47.5,52.5C 47.5,42.5 47.5,32.5 47.5,22.5 Z"/></g>
<g><path style="opacity:1" fill="#34353a" d="M 37.5,24.5 C 37.1583,25.3382 36.4916,25.6716 35.5,25.5C 26.6069,19.7659 22.4403,22.0993 23,32.5C 24.7643,32.9885 26.2643,32.9885 27.5,32.5C 26.2485,34.0009 25.2485,35.6675 24.5,37.5C 22.3763,36.9688 20.8763,35.6355 20,33.5C 18.2817,27.8433 19.7817,23.3433 24.5,20C 30.1748,18.243 34.5082,19.743 37.5,24.5 Z"/></g>
<g><path style="opacity:1" fill="#fd52a2" d="M 75.5,24.5 C 82.1667,30.8333 88.8333,37.1667 95.5,43.5C 95.5,48.1667 95.5,52.8333 95.5,57.5C 89.8333,77.1667 77.1667,89.8333 57.5,95.5C 55.5,95.5 53.5,95.5 51.5,95.5C 43.4651,87.1471 35.7985,79.1471 28.5,71.5C 36.3979,75.0339 44.7312,76.3672 53.5,75.5C 62.4138,74.9628 69.2471,70.9628 74,63.5C 76.5231,54.4796 75.6897,45.8129 71.5,37.5C 75.1341,34.0589 76.4674,29.7255 75.5,24.5 Z"/></g>
<g><path style="opacity:1" fill="#2e2c30" d="M 75.5,24.5 C 76.4674,29.7255 75.1341,34.0589 71.5,37.5C 67.461,32.46 62.7944,28.1266 57.5,24.5C 58.2823,22.5487 59.6156,21.0487 61.5,20C 67.3453,18.3106 72.012,19.8106 75.5,24.5 Z"/></g>
<g><path style="opacity:1" fill="#545259" d="M 33.5,38.5 C 40.01,37.2444 44.01,39.7444 45.5,46C 43.7096,54.0662 38.7096,57.3996 30.5,56C 26.2468,52.5796 25.4135,48.4129 28,43.5C 29.8119,41.6997 31.6452,40.0331 33.5,38.5 Z"/></g>
<g><path style="opacity:1" fill="#39373e" d="M 54.5,38.5 C 64.368,38.1985 68.868,42.8651 68,52.5C 62.7421,57.7434 57.4087,57.7434 52,52.5C 48.1608,46.8696 48.9942,42.2029 54.5,38.5 Z"/></g>
<g><path style="opacity:1" fill="#2c2a2e" d="M 47.5,52.5 C 52.6772,54.2254 53.6772,57.2254 50.5,61.5C 48.5,62.8333 46.5,62.8333 44.5,61.5C 41.3334,57.1758 42.3334,54.1758 47.5,52.5 Z"/></g>
<g><path style="opacity:1" fill="#797781" d="M 44.5,61.5 C 46.5,62.8333 48.5,62.8333 50.5,61.5C 50.9666,64.2974 52.6333,65.6308 55.5,65.5C 55.5,66.5 55.5,67.5 55.5,68.5C 52.3855,68.6061 49.7188,67.6061 47.5,65.5C 45.2812,67.6061 42.6145,68.6061 39.5,68.5C 39.5,67.5 39.5,66.5 39.5,65.5C 42.3667,65.6308 44.0334,64.2974 44.5,61.5 Z"/></g>
</svg>
