<?xml version="1.0" encoding="UTF-8"?>
<!DOCTYPE svg PUBLIC "-//W3C//DTD SVG 1.1//EN" "http://www.w3.org/Graphics/SVG/1.1/DTD/svg11.dtd">
<svg xmlns="http://www.w3.org/2000/svg" version="1.1" width="96px" height="96px" style="shape-rendering:geometricPrecision; text-rendering:geometricPrecision; image-rendering:optimizeQuality; fill-rule:evenodd; clip-rule:evenodd" xmlns:xlink="http://www.w3.org/1999/xlink">
<g><path style="opacity:0.975" fill="#040129" d="M 36.5,-0.5 C 43.8333,-0.5 51.1667,-0.5 58.5,-0.5C 77.6055,5.60508 89.9388,18.2717 95.5,37.5C 95.5,44.1667 95.5,50.8333 95.5,57.5C 89.9388,76.7283 77.6055,89.3949 58.5,95.5C 51.1667,95.5 43.8333,95.5 36.5,95.5C 17.3945,89.3949 5.0612,76.7283 -0.5,57.5C -0.5,50.8333 -0.5,44.1667 -0.5,37.5C 5.0612,18.2717 17.3945,5.60508 36.5,-0.5 Z"/></g>
<g><path style="opacity:1" fill="#aeadba" d="M 67.5,24.5 C 70.8606,25.2032 71.1939,26.5365 68.5,28.5C 66.3576,27.5629 66.0243,26.2296 67.5,24.5 Z"/></g>
<g><path style="opacity:1" fill="#fdfdfd" d="M 38.5,27.5 C 38.5,40.8333 38.5,54.1667 38.5,67.5C 34.5,67.5 30.5,67.5 26.5,67.5C 26.5,54.1667 26.5,40.8333 26.5,27.5C 30.5,27.5 34.5,27.5 38.5,27.5 Z"/></g>
<g><path style="opacity:1" fill="#fcfcfc" d="M 68.5,66.5 C 64.03,67.4861 59.3633,67.8195 54.5,67.5C 54.1667,67.5 53.8333,67.5 53.5,67.5C 51.2796,62.7283 48.7796,58.0616 46,53.5C 44.6439,52.6198 43.1439,52.2865 41.5,52.5C 41.5,49.1667 41.5,45.8333 41.5,42.5C 45.5138,42.6655 49.5138,42.4988 53.5,42C 54.8333,40.6667 54.8333,39.3333 53.5,38C 49.5138,37.5012 45.5138,37.3345 41.5,37.5C 41.5,34.1667 41.5,30.8333 41.5,27.5C 47.3409,27.1452 53.0075,27.8119 58.5,29.5C 58.5,30.5 58.5,31.5 58.5,32.5C 59.5,32.5 60.5,32.5 61.5,32.5C 61.5,33.5 61.5,34.5 61.5,35.5C 62.5,35.5 63.5,35.5 64.5,35.5C 64.5,36.5 64.5,37.5 64.5,38.5C 65.5,38.5 66.5,38.5 67.5,38.5C 67.6621,40.5273 67.4955,42.5273 67,44.5C 64.8192,47.3442 62.6525,50.1776 60.5,53C 62.9788,57.6376 65.6455,62.1376 68.5,66.5 Z"/></g>
<g><path style="opacity:1" fill="#9a99aa" d="M 38.5,27.5 C 34.5,27.5 30.5,27.5 26.5,27.5C 26.5,40.8333 26.5,54.1667 26.5,67.5C 30.5,67.5 34.5,67.5 38.5,67.5C 34.3656,68.4849 30.0323,68.8182 25.5,68.5C 25.5,54.5 25.5,40.5 25.5,26.5C 30.0323,26.1818 34.3656,26.5151 38.5,27.5 Z"/></g>
<g><path style="opacity:1" fill="#2d2d3a" d="M 41.5,37.5 C 45.5138,37.3345 49.5138,37.5012 53.5,38C 54.8333,39.3333 54.8333,40.6667 53.5,42C 49.5138,42.4988 45.5138,42.6655 41.5,42.5C 44.7006,40.7397 48.3673,39.9064 52.5,40C 48.3673,40.0936 44.7006,39.2603 41.5,37.5 Z"/></g>
<g><path style="opacity:1" fill="#1c1b2b" d="M 41.5,52.5 C 43.1439,52.2865 44.6439,52.6198 46,53.5C 48.7796,58.0616 51.2796,62.7283 53.5,67.5C 50.5356,64.4049 47.8689,60.4049 45.5,55.5C 43.6684,54.9432 42.3351,53.9432 41.5,52.5 Z"/></g>
<g><path style="opacity:1" fill="#686680" d="M 68.5,66.5 C 69.0431,66.56 69.3764,66.8933 69.5,67.5C 64.3477,68.8137 59.3477,68.8137 54.5,67.5C 59.3633,67.8195 64.03,67.4861 68.5,66.5 Z"/></g>
</svg>
