<?xml version="1.0" encoding="UTF-8"?>
<!DOCTYPE svg PUBLIC "-//W3C//DTD SVG 1.1//EN" "http://www.w3.org/Graphics/SVG/1.1/DTD/svg11.dtd">
<svg xmlns="http://www.w3.org/2000/svg" version="1.1" width="96px" height="96px" style="shape-rendering:geometricPrecision; text-rendering:geometricPrecision; image-rendering:optimizeQuality; fill-rule:evenodd; clip-rule:evenodd" xmlns:xlink="http://www.w3.org/1999/xlink">
<g><path style="opacity:0.69" fill="#0e2d64" d="M 38.5,-0.5 C 44.5,-0.5 50.5,-0.5 56.5,-0.5C 76.7251,4.72484 89.7251,17.3915 95.5,37.5C 95.5,40.1667 95.5,42.8333 95.5,45.5C 94.8333,47.8333 94.1667,50.1667 93.5,52.5C 94.65,43.1231 92.9834,34.4564 88.5,26.5C 88.2671,24.9382 87.6005,23.6049 86.5,22.5C 84.5698,18.8998 81.9031,15.8998 78.5,13.5C 66.8703,2.90721 53.2036,-0.926123 37.5,2C 34.135,2.50531 31.135,3.67197 28.5,5.5C 22.6522,8.01499 17.6522,11.6817 13.5,16.5C 6.39127,23.1956 2.72461,31.5289 2.5,41.5C 2.16667,41.5 1.83333,41.5 1.5,41.5C 1.73731,40.209 1.40397,39.209 0.5,38.5C 3.47604,24.7139 10.8094,13.8805 22.5,6C 27.7441,3.31502 33.0775,1.14836 38.5,-0.5 Z"/></g>
<g><path style="opacity:1" fill="#05c9f8" d="M 78.5,13.5 C 78.1667,13.5 77.8333,13.5 77.5,13.5C 75.8624,12.343 74.1957,11.1764 72.5,10C 71.2506,9.25988 70.2506,9.42654 69.5,10.5C 57.2745,4.98639 44.6079,3.98639 31.5,7.5C 30.7777,6.44886 29.7777,5.78219 28.5,5.5C 31.135,3.67197 34.135,2.50531 37.5,2C 53.2036,-0.926123 66.8703,2.90721 78.5,13.5 Z"/></g>
<g><path style="opacity:1" fill="#1ee3fb" d="M 69.5,10.5 C 69.5,10.8333 69.5,11.1667 69.5,11.5C 67.8214,12.9997 66.4881,14.833 65.5,17C 64.4232,17.4696 63.4232,17.3029 62.5,16.5C 61.1667,15.8333 59.8333,15.1667 58.5,14.5C 59.5,14.5 60.5,14.5 61.5,14.5C 61.8333,11.5 60.5,10.1667 57.5,10.5C 57.5,11.5 57.5,12.5 57.5,13.5C 53.6286,13.815 49.9619,13.4816 46.5,12.5C 50.8585,12.1458 51.3585,10.8125 48,8.5C 45.9803,9.03187 45.147,10.3652 45.5,12.5C 43.283,13.3686 40.9496,13.702 38.5,13.5C 38.5,12.5 38.5,11.5 38.5,10.5C 35.5,10.1667 34.1667,11.5 34.5,14.5C 35.5,14.5 36.5,14.5 37.5,14.5C 36.469,15.2485 35.3024,15.9152 34,16.5C 32.3029,14.301 30.8029,11.9676 29.5,9.5C 30.2427,8.81815 30.9094,8.15149 31.5,7.5C 44.6079,3.98639 57.2745,4.98639 69.5,10.5 Z"/></g>
<g><path style="opacity:1" fill="#effdfe" d="M 46.5,12.5 C 46.1667,12.5 45.8333,12.5 45.5,12.5C 45.147,10.3652 45.9803,9.03187 48,8.5C 51.3585,10.8125 50.8585,12.1458 46.5,12.5 Z"/></g>
<g><path style="opacity:1" fill="#f5fdfe" d="M 38.5,13.5 C 38.5,14.1667 38.1667,14.5 37.5,14.5C 36.5,14.5 35.5,14.5 34.5,14.5C 34.1667,11.5 35.5,10.1667 38.5,10.5C 38.5,11.5 38.5,12.5 38.5,13.5 Z"/></g>
<g><path style="opacity:1" fill="#f6fdfe" d="M 58.5,14.5 C 57.8333,14.5 57.5,14.1667 57.5,13.5C 57.5,12.5 57.5,11.5 57.5,10.5C 60.5,10.1667 61.8333,11.5 61.5,14.5C 60.5,14.5 59.5,14.5 58.5,14.5 Z"/></g>
<g><path style="opacity:1" fill="#0899e1" d="M 77.5,13.5 C 77.8333,13.5 78.1667,13.5 78.5,13.5C 81.9031,15.8998 84.5698,18.8998 86.5,22.5C 83.1667,19.8333 80.1667,16.8333 77.5,13.5 Z"/></g>
<g><path style="opacity:1" fill="#039ff4" d="M 4.5,45.5 C 4.5,49.1667 4.5,52.8333 4.5,56.5C 3.83333,51.5 3.16667,46.5 2.5,41.5C 2.72461,31.5289 6.39127,23.1956 13.5,16.5C 13.4346,16.9382 13.6012,17.2716 14,17.5C 18.0774,13.5883 22.5774,10.255 27.5,7.5C 27.8333,7.83333 28.1667,8.16667 28.5,8.5C 13.9735,16.6765 5.97347,29.0099 4.5,45.5 Z"/></g>
<g><path style="opacity:1" fill="#0cc4f1" d="M 69.5,11.5 C 75.6945,13.6929 80.3612,17.6929 83.5,23.5C 82.467,25.0855 81.1336,26.4188 79.5,27.5C 79.5,26.5 79.5,25.5 79.5,24.5C 76.0136,24.2953 75.0136,25.6286 76.5,28.5C 76.9175,29.2216 77.5842,29.7216 78.5,30C 77.2341,30.3095 76.0674,30.8095 75,31.5C 74.1107,30.1118 73.6107,30.2785 73.5,32C 73.8082,33.4595 74.4749,34.6261 75.5,35.5C 76.038,37.1172 76.3713,38.7839 76.5,40.5C 76.5,42.5 76.5,44.5 76.5,46.5C 74.1652,47.4135 71.9985,48.7468 70,50.5C 69.6667,48.8333 69.3333,47.1667 69,45.5C 68.8138,48.0356 68.3138,50.369 67.5,52.5C 67.3826,46.3098 67.7159,40.1432 68.5,34C 68.691,31.9501 69.3576,30.1168 70.5,28.5C 70.1445,27.4777 69.4778,26.811 68.5,26.5C 66.4504,24.4525 64.117,22.7859 61.5,21.5C 60.7095,20.5987 59.7095,19.9321 58.5,19.5C 59.9264,18.6588 61.2597,17.6588 62.5,16.5C 63.4232,17.3029 64.4232,17.4696 65.5,17C 66.4881,14.833 67.8214,12.9997 69.5,11.5 Z"/></g>
<g><path style="opacity:1" fill="#e9f9fd" d="M 68.5,15.5 C 71.9563,16.5362 72.2896,18.2029 69.5,20.5C 67.2957,19.218 66.9624,17.5514 68.5,15.5 Z"/></g>
<g><path style="opacity:1" fill="#0282e0" d="M 77.5,13.5 C 80.1667,16.8333 83.1667,19.8333 86.5,22.5C 87.6005,23.6049 88.2671,24.9382 88.5,26.5C 87.5416,26.0472 86.7083,25.3805 86,24.5C 85.6012,24.7284 85.4346,25.0618 85.5,25.5C 84.8333,24.8333 84.1667,24.1667 83.5,23.5C 80.3612,17.6929 75.6945,13.6929 69.5,11.5C 69.5,11.1667 69.5,10.8333 69.5,10.5C 70.2506,9.42654 71.2506,9.25988 72.5,10C 74.1957,11.1764 75.8624,12.343 77.5,13.5 Z"/></g>
<g><path style="opacity:1" fill="#e8f9fe" d="M 58.5,19.5 C 59.7095,19.9321 60.7095,20.5987 61.5,21.5C 42.5377,15.8984 29.371,22.2317 22,40.5C 21.1083,47.6266 21.6083,54.6266 23.5,61.5C 22.5,61.1667 21.8333,60.5 21.5,59.5C 19.5477,54.3552 18.5477,49.0219 18.5,43.5C 24.3462,23.2368 37.6795,15.2368 58.5,19.5 Z"/></g>
<g><path style="opacity:1" fill="#16cbf7" d="M 28.5,5.5 C 29.7777,5.78219 30.7777,6.44886 31.5,7.5C 30.9094,8.15149 30.2427,8.81815 29.5,9.5C 30.8029,11.9676 32.3029,14.301 34,16.5C 35.3024,15.9152 36.469,15.2485 37.5,14.5C 38.1667,14.5 38.5,14.1667 38.5,13.5C 40.9496,13.702 43.283,13.3686 45.5,12.5C 45.8333,12.5 46.1667,12.5 46.5,12.5C 49.9619,13.4816 53.6286,13.815 57.5,13.5C 57.5,14.1667 57.8333,14.5 58.5,14.5C 59.8333,15.1667 61.1667,15.8333 62.5,16.5C 61.2597,17.6588 59.9264,18.6588 58.5,19.5C 37.6795,15.2368 24.3462,23.2368 18.5,43.5C 18.6495,42.448 18.4828,41.448 18,40.5C 17.6667,43.1667 17.3333,45.8333 17,48.5C 16.5831,49.756 15.7498,50.4226 14.5,50.5C 14.5,48.8333 14.5,47.1667 14.5,45.5C 11.1667,45.5 7.83333,45.5 4.5,45.5C 5.97347,29.0099 13.9735,16.6765 28.5,8.5C 28.1667,8.16667 27.8333,7.83333 27.5,7.5C 22.5774,10.255 18.0774,13.5883 14,17.5C 13.6012,17.2716 13.4346,16.9382 13.5,16.5C 17.6522,11.6817 22.6522,8.01499 28.5,5.5 Z"/></g>
<g><path style="opacity:1" fill="#f7fdfe" d="M 25.5,15.5 C 26.9953,15.4148 27.9953,16.0815 28.5,17.5C 27.6798,19.1112 26.3464,19.7778 24.5,19.5C 24.4326,18.0413 24.7659,16.7079 25.5,15.5 Z"/></g>
<g><path style="opacity:1" fill="#fbfdfe" d="M 16.5,24.5 C 17.5,24.5 18.5,24.5 19.5,24.5C 19.5,25.5 19.5,26.5 19.5,27.5C 18.5,27.5 17.5,27.5 16.5,27.5C 16.5,26.5 16.5,25.5 16.5,24.5 Z"/></g>
<g><path style="opacity:1" fill="#e7f7fd" d="M 79.5,27.5 C 78.609,28.1098 77.609,28.4431 76.5,28.5C 75.0136,25.6286 76.0136,24.2953 79.5,24.5C 79.5,25.5 79.5,26.5 79.5,27.5 Z"/></g>
<g><path style="opacity:1" fill="#17f1fc" d="M 61.5,21.5 C 64.117,22.7859 66.4504,24.4525 68.5,26.5C 67.7659,27.7079 67.4326,29.0413 67.5,30.5C 64.5,31.1667 61.5,31.8333 58.5,32.5C 40.6274,27.5779 32.2941,34.2446 33.5,52.5C 30.3637,55.429 27.697,58.7623 25.5,62.5C 24.8333,62.1667 24.1667,61.8333 23.5,61.5C 21.6083,54.6266 21.1083,47.6266 22,40.5C 29.371,22.2317 42.5377,15.8984 61.5,21.5 Z"/></g>
<g><path style="opacity:1" fill="#01b1ec" d="M 83.5,23.5 C 84.1667,24.1667 84.8333,24.8333 85.5,25.5C 86.7729,27.7128 87.7729,30.0462 88.5,32.5C 88.631,33.2389 88.4643,33.9056 88,34.5C 86.0578,34.6269 84.0578,34.2936 82,33.5C 79.6005,33.8017 77.4338,34.4684 75.5,35.5C 74.4749,34.6261 73.8082,33.4595 73.5,32C 73.6107,30.2785 74.1107,30.1118 75,31.5C 76.0674,30.8095 77.2341,30.3095 78.5,30C 77.5842,29.7216 76.9175,29.2216 76.5,28.5C 77.609,28.4431 78.609,28.1098 79.5,27.5C 81.1336,26.4188 82.467,25.0855 83.5,23.5 Z"/></g>
<g><path style="opacity:1" fill="#fbfefe" d="M 58.5,32.5 C 60.2976,35.8309 60.9643,39.4975 60.5,43.5C 57.5,43.5 54.5,43.5 51.5,43.5C 51.9854,38.8415 50.152,37.5081 46,39.5C 45.3333,44.5 45.3333,49.5 46,54.5C 46.3826,55.056 46.8826,55.3893 47.5,55.5C 48.7927,56.6448 49.9593,56.3115 51,54.5C 51.4935,52.8659 51.6602,51.1992 51.5,49.5C 54.5,49.5 57.5,49.5 60.5,49.5C 60.5,52.8333 60.5,56.1667 60.5,59.5C 59.158,60.793 57.4913,61.6264 55.5,62C 51.8484,62.4986 48.1817,62.6653 44.5,62.5C 43.0413,62.5674 41.7079,62.2341 40.5,61.5C 37.0227,59.3599 34.6894,56.3599 33.5,52.5C 32.2941,34.2446 40.6274,27.5779 58.5,32.5 Z"/></g>
<g><path style="opacity:1" fill="#22e5f8" d="M 68.5,26.5 C 69.4778,26.811 70.1445,27.4777 70.5,28.5C 69.3576,30.1168 68.691,31.9501 68.5,34C 67.7159,40.1432 67.3826,46.3098 67.5,52.5C 67.5,53.5 67.5,54.5 67.5,55.5C 65.8561,55.2865 64.3561,55.6198 63,56.5C 62.6667,55.5 62.3333,54.5 62,53.5C 61.8091,55.7078 61.3091,57.7078 60.5,59.5C 60.5,56.1667 60.5,52.8333 60.5,49.5C 57.5,49.5 54.5,49.5 51.5,49.5C 51.6602,51.1992 51.4935,52.8659 51,54.5C 49.9593,56.3115 48.7927,56.6448 47.5,55.5C 48.7479,52.0584 49.5812,48.3917 50,44.5C 50.3826,43.944 50.8826,43.6107 51.5,43.5C 54.5,43.5 57.5,43.5 60.5,43.5C 60.9643,39.4975 60.2976,35.8309 58.5,32.5C 61.5,31.8333 64.5,31.1667 67.5,30.5C 67.4326,29.0413 67.7659,27.7079 68.5,26.5 Z"/></g>
<g><path style="opacity:1" fill="#f8fdfe" d="M 11.5,34.5 C 14.6741,34.9522 15.0075,35.9522 12.5,37.5C 11.6143,36.675 11.281,35.675 11.5,34.5 Z"/></g>
<g><path style="opacity:1" fill="#0ba3e8" d="M 88.5,32.5 C 89.7384,34.2143 90.405,36.2143 90.5,38.5C 90.7135,40.1439 90.3802,41.6439 89.5,43C 85.8484,43.4986 82.1817,43.6653 78.5,43.5C 78.7947,45.7354 78.4614,47.7354 77.5,49.5C 77.81,46.2869 77.4767,43.2869 76.5,40.5C 76.3713,38.7839 76.038,37.1172 75.5,35.5C 77.4338,34.4684 79.6005,33.8017 82,33.5C 84.0578,34.2936 86.0578,34.6269 88,34.5C 88.4643,33.9056 88.631,33.2389 88.5,32.5 Z"/></g>
<g><path style="opacity:1" fill="#e7f4fc" d="M 81.5,34.5 C 84.5688,34.963 85.0688,36.2963 83,38.5C 81.8118,37.4366 81.3118,36.1033 81.5,34.5 Z"/></g>
<g><path style="opacity:1" fill="#27d0f2" d="M 51.5,43.5 C 50.8826,43.6107 50.3826,43.944 50,44.5C 49.5812,48.3917 48.7479,52.0584 47.5,55.5C 46.8826,55.3893 46.3826,55.056 46,54.5C 45.3333,49.5 45.3333,44.5 46,39.5C 50.152,37.5081 51.9854,38.8415 51.5,43.5 Z"/></g>
<g><path style="opacity:1" fill="#0093e5" d="M 90.5,38.5 C 91.4682,40.6074 91.8016,42.9407 91.5,45.5C 87.8333,45.5 84.1667,45.5 80.5,45.5C 80.6054,49.5483 80.2721,53.5483 79.5,57.5C 79.1667,57.5 78.8333,57.5 78.5,57.5C 77.5,56.1667 76.5,56.1667 75.5,57.5C 75.8333,56.1667 76.1667,54.8333 76.5,53.5C 77.2341,52.2921 77.5674,50.9587 77.5,49.5C 78.4614,47.7354 78.7947,45.7354 78.5,43.5C 82.1817,43.6653 85.8484,43.4986 89.5,43C 90.3802,41.6439 90.7135,40.1439 90.5,38.5 Z"/></g>
<g><path style="opacity:1" fill="#1576c2" d="M 91.5,45.5 C 91.5,48.5 91.5,51.5 91.5,54.5C 91.5,54.8333 91.5,55.1667 91.5,55.5C 90.2101,56.0577 89.3768,57.0577 89,58.5C 88.6667,58.1667 88.3333,57.8333 88,57.5C 85.8925,58.0405 83.7258,59.0405 81.5,60.5C 81.7148,58.8212 81.0481,57.8212 79.5,57.5C 80.2721,53.5483 80.6054,49.5483 80.5,45.5C 84.1667,45.5 87.8333,45.5 91.5,45.5 Z"/></g>
<g><path style="opacity:1" fill="#ddeaf4" d="M 83.5,46.5 C 85.4646,46.9483 85.7979,47.9483 84.5,49.5C 83.6143,48.675 83.281,47.675 83.5,46.5 Z"/></g>
<g><path style="opacity:1" fill="#0065c8" d="M 88.5,26.5 C 92.9834,34.4564 94.65,43.1231 93.5,52.5C 93.5,52.8333 93.5,53.1667 93.5,53.5C 92.8333,53.8333 92.1667,54.1667 91.5,54.5C 91.5,51.5 91.5,48.5 91.5,45.5C 91.8016,42.9407 91.4682,40.6074 90.5,38.5C 90.405,36.2143 89.7384,34.2143 88.5,32.5C 87.7729,30.0462 86.7729,27.7128 85.5,25.5C 85.4346,25.0618 85.6012,24.7284 86,24.5C 86.7083,25.3805 87.5416,26.0472 88.5,26.5 Z"/></g>
<g><path style="opacity:1" fill="#16acd8" d="M 4.5,45.5 C 7.83333,45.5 11.1667,45.5 14.5,45.5C 14.5,47.1667 14.5,48.8333 14.5,50.5C 14.8333,52.5 15.1667,54.5 15.5,56.5C 14.1497,57.4831 13.1497,58.8164 12.5,60.5C 10.3952,58.5866 8.06182,58.5866 5.5,60.5C 4.76589,59.2921 4.43255,57.9587 4.5,56.5C 4.5,52.8333 4.5,49.1667 4.5,45.5 Z"/></g>
<g><path style="opacity:1" fill="#e3f2f8" d="M 9.5,46.5 C 11.337,46.6395 11.6704,47.3061 10.5,48.5C 9.70245,48.0431 9.36912,47.3764 9.5,46.5 Z"/></g>
<g><path style="opacity:1" fill="#00baec" d="M 76.5,40.5 C 77.4767,43.2869 77.81,46.2869 77.5,49.5C 77.5674,50.9587 77.2341,52.2921 76.5,53.5C 75.7784,53.0825 75.2784,52.4158 75,51.5C 73.3987,53.9724 71.3987,54.9724 69,54.5C 68.7679,55.7375 68.2679,56.7375 67.5,57.5C 67.5,56.8333 67.5,56.1667 67.5,55.5C 67.5,54.5 67.5,53.5 67.5,52.5C 68.3138,50.369 68.8138,48.0356 69,45.5C 69.3333,47.1667 69.6667,48.8333 70,50.5C 71.9985,48.7468 74.1652,47.4135 76.5,46.5C 76.5,44.5 76.5,42.5 76.5,40.5 Z"/></g>
<g><path style="opacity:1" fill="#01acea" d="M 76.5,53.5 C 76.1667,54.8333 75.8333,56.1667 75.5,57.5C 74.2826,62.3613 71.6159,66.028 67.5,68.5C 67.5,66.5 67.5,64.5 67.5,62.5C 67.5,60.8333 67.5,59.1667 67.5,57.5C 68.2679,56.7375 68.7679,55.7375 69,54.5C 71.3987,54.9724 73.3987,53.9724 75,51.5C 75.2784,52.4158 75.7784,53.0825 76.5,53.5 Z"/></g>
<g><path style="opacity:1" fill="#18b4ed" d="M 18.5,43.5 C 18.5477,49.0219 19.5477,54.3552 21.5,59.5C 20.6851,60.4293 19.8518,61.4293 19,62.5C 17.5415,60.5681 16.3748,58.5681 15.5,56.5C 15.1667,54.5 14.8333,52.5 14.5,50.5C 15.7498,50.4226 16.5831,49.756 17,48.5C 17.3333,45.8333 17.6667,43.1667 18,40.5C 18.4828,41.448 18.6495,42.448 18.5,43.5 Z"/></g>
<g><path style="opacity:1" fill="#0066bf" d="M 91.5,55.5 C 91.3076,59.1024 89.9743,62.1024 87.5,64.5C 86.8826,64.3893 86.3826,64.056 86,63.5C 82.6116,64.8953 79.4449,66.562 76.5,68.5C 74.0948,69.3981 72.0948,70.8981 70.5,73C 69.5632,73.6917 68.8966,73.525 68.5,72.5C 73.4359,68.5648 76.7693,63.5648 78.5,57.5C 78.8333,57.5 79.1667,57.5 79.5,57.5C 81.0481,57.8212 81.7148,58.8212 81.5,60.5C 83.7258,59.0405 85.8925,58.0405 88,57.5C 88.3333,57.8333 88.6667,58.1667 89,58.5C 89.3768,57.0577 90.2101,56.0577 91.5,55.5 Z"/></g>
<g><path style="opacity:1" fill="#2fd0f3" d="M 33.5,52.5 C 34.6894,56.3599 37.0227,59.3599 40.5,61.5C 38.3914,63.7867 35.5581,66.1201 32,68.5C 31.2825,67.5494 30.4491,67.3828 29.5,68C 30.8333,69 32.1667,70 33.5,71C 33.2716,71.3988 32.9382,71.5654 32.5,71.5C 32.1667,71.5 31.8333,71.5 31.5,71.5C 29.1939,69.8606 27.1939,67.8606 25.5,65.5C 25.5,65.1667 25.5,64.8333 25.5,64.5C 25.5,63.8333 25.5,63.1667 25.5,62.5C 27.697,58.7623 30.3637,55.429 33.5,52.5 Z"/></g>
<g><path style="opacity:1" fill="#0a9bd7" d="M 15.5,56.5 C 16.3748,58.5681 17.5415,60.5681 19,62.5C 19.8518,61.4293 20.6851,60.4293 21.5,59.5C 21.8333,60.5 22.5,61.1667 23.5,61.5C 23.427,63.0269 24.0937,64.0269 25.5,64.5C 25.5,64.8333 25.5,65.1667 25.5,65.5C 24.6851,66.4293 23.8518,67.4293 23,68.5C 21.2739,67.4238 19.4406,67.2571 17.5,68C 18.7112,68.8928 18.7112,69.7261 17.5,70.5C 16.0626,67.9557 14.5626,67.9557 13,70.5C 12.6667,70.1667 12.3333,69.8333 12,69.5C 12.3308,71.0187 12.1641,72.352 11.5,73.5C 8.69807,69.5613 6.69807,65.228 5.5,60.5C 8.06182,58.5866 10.3952,58.5866 12.5,60.5C 13.1497,58.8164 14.1497,57.4831 15.5,56.5 Z"/></g>
<g><path style="opacity:1" fill="#16cff2" d="M 67.5,55.5 C 67.5,56.1667 67.5,56.8333 67.5,57.5C 67.5,59.1667 67.5,60.8333 67.5,62.5C 60.3038,66.1729 52.9705,69.6729 45.5,73C 44.3659,74.016 44.6992,74.6827 46.5,75C 45.552,75.4828 44.552,75.6495 43.5,75.5C 44.0916,72.8728 44.4249,70.2062 44.5,67.5C 45.7199,65.9504 45.7199,64.2837 44.5,62.5C 48.1817,62.6653 51.8484,62.4986 55.5,62C 57.4913,61.6264 59.158,60.793 60.5,59.5C 61.3091,57.7078 61.8091,55.7078 62,53.5C 62.3333,54.5 62.6667,55.5 63,56.5C 64.3561,55.6198 65.8561,55.2865 67.5,55.5 Z"/></g>
<g><path style="opacity:1" fill="#ebf7fd" d="M 23.5,61.5 C 24.1667,61.8333 24.8333,62.1667 25.5,62.5C 25.5,63.1667 25.5,63.8333 25.5,64.5C 24.0937,64.0269 23.427,63.0269 23.5,61.5 Z"/></g>
<g><path style="opacity:1" fill="#02c4ef" d="M 40.5,61.5 C 41.7079,62.2341 43.0413,62.5674 44.5,62.5C 45.7199,64.2837 45.7199,65.9504 44.5,67.5C 44.631,66.7611 44.4643,66.0944 44,65.5C 42.3207,69.0104 39.8207,71.677 36.5,73.5C 34.847,73.3404 33.5137,72.6737 32.5,71.5C 32.9382,71.5654 33.2716,71.3988 33.5,71C 32.1667,70 30.8333,69 29.5,68C 30.4491,67.3828 31.2825,67.5494 32,68.5C 35.5581,66.1201 38.3914,63.7867 40.5,61.5 Z"/></g>
<g><path style="opacity:1" fill="#01bcef" d="M 67.5,62.5 C 67.5,64.5 67.5,66.5 67.5,68.5C 60.2092,75.1632 51.5425,77.8299 41.5,76.5C 39.7392,75.6873 38.0725,74.6873 36.5,73.5C 39.8207,71.677 42.3207,69.0104 44,65.5C 44.4643,66.0944 44.631,66.7611 44.5,67.5C 44.4249,70.2062 44.0916,72.8728 43.5,75.5C 44.552,75.6495 45.552,75.4828 46.5,75C 44.6992,74.6827 44.3659,74.016 45.5,73C 52.9705,69.6729 60.3038,66.1729 67.5,62.5 Z"/></g>
<g><path style="opacity:1" fill="#035aba" d="M 87.5,64.5 C 83.9482,73.3844 77.9482,80.0511 69.5,84.5C 68.5903,81.0078 66.9236,78.0078 64.5,75.5C 65.795,74.5116 67.1283,73.5116 68.5,72.5C 68.8966,73.525 69.5632,73.6917 70.5,73C 72.0948,70.8981 74.0948,69.3981 76.5,68.5C 79.4449,66.562 82.6116,64.8953 86,63.5C 86.3826,64.056 86.8826,64.3893 87.5,64.5 Z"/></g>
<g><path style="opacity:1" fill="#0273d3" d="M 1.5,41.5 C 1.83333,41.5 2.16667,41.5 2.5,41.5C 3.16667,46.5 3.83333,51.5 4.5,56.5C 4.43255,57.9587 4.76589,59.2921 5.5,60.5C 6.69807,65.228 8.69807,69.5613 11.5,73.5C 12.925,74.922 13.925,76.5887 14.5,78.5C 7.76372,72.37 3.59706,64.7033 2,55.5C 1.50085,50.8452 1.33418,46.1785 1.5,41.5 Z"/></g>
<g><path style="opacity:1" fill="#749cd5" d="M 76.5,68.5 C 78.337,68.6395 78.6704,69.3061 77.5,70.5C 76.7025,70.0431 76.3691,69.3764 76.5,68.5 Z"/></g>
<g><path style="opacity:1" fill="#06173d" d="M 95.5,45.5 C 95.5,49.5 95.5,53.5 95.5,57.5C 91.2319,74.4404 80.8985,86.1071 64.5,92.5C 61.8239,93.0081 59.1572,93.1747 56.5,93C 57.7375,92.7679 58.7375,92.2679 59.5,91.5C 78.1554,85.5053 89.4888,72.8386 93.5,53.5C 93.5,53.1667 93.5,52.8333 93.5,52.5C 94.1667,50.1667 94.8333,47.8333 95.5,45.5 Z"/></g>
<g><path style="opacity:1" fill="#0487d3" d="M 25.5,65.5 C 27.1939,67.8606 29.1939,69.8606 31.5,71.5C 30.2617,71.81 30.2617,72.31 31.5,73C 29.5,74 27.5,75 25.5,76C 26.6734,79.1103 26.1734,79.277 24,76.5C 21.1737,78.3398 18.0071,79.0065 14.5,78.5C 13.925,76.5887 12.925,74.922 11.5,73.5C 12.1641,72.352 12.3308,71.0187 12,69.5C 12.3333,69.8333 12.6667,70.1667 13,70.5C 14.5626,67.9557 16.0626,67.9557 17.5,70.5C 18.7112,69.7261 18.7112,68.8928 17.5,68C 19.4406,67.2571 21.2739,67.4238 23,68.5C 23.8518,67.4293 24.6851,66.4293 25.5,65.5 Z"/></g>
<g><path style="opacity:1" fill="#06173c" d="M 0.5,38.5 C 1.40397,39.209 1.73731,40.209 1.5,41.5C 1.33418,46.1785 1.50085,50.8452 2,55.5C 3.59706,64.7033 7.76372,72.37 14.5,78.5C 17.0639,82.1169 20.3972,84.7836 24.5,86.5C 26.1815,88.0075 28.1815,89.0075 30.5,89.5C 33.5046,91.2766 36.8379,92.2766 40.5,92.5C 45.3165,93.3261 50.3165,93.8261 55.5,94C 49.9842,94.1733 44.6509,94.6733 39.5,95.5C 39.1667,95.5 38.8333,95.5 38.5,95.5C 17.4287,90.0154 4.42866,76.6821 -0.5,55.5C -0.5,50.1667 -0.5,44.8333 -0.5,39.5C 0.166667,39.5 0.5,39.1667 0.5,38.5 Z"/></g>
<g><path style="opacity:1" fill="#0075de" d="M 78.5,57.5 C 76.7693,63.5648 73.4359,68.5648 68.5,72.5C 67.1283,73.5116 65.795,74.5116 64.5,75.5C 61.9823,76.2638 59.649,77.2638 57.5,78.5C 52.547,79.3292 47.547,79.6625 42.5,79.5C 41.209,79.7373 40.209,79.404 39.5,78.5C 40.8734,78.6567 42.2068,78.49 43.5,78C 41.6573,77.8413 40.9907,77.3413 41.5,76.5C 51.5425,77.8299 60.2092,75.1632 67.5,68.5C 71.6159,66.028 74.2826,62.3613 75.5,57.5C 76.5,56.1667 77.5,56.1667 78.5,57.5 Z"/></g>
<g><path style="opacity:1" fill="#004da5" d="M 64.5,75.5 C 66.9236,78.0078 68.5903,81.0078 69.5,84.5C 60.1122,89.345 50.1122,91.345 39.5,90.5C 38.1667,89.8333 36.8333,89.1667 35.5,88.5C 39.4339,87.7834 42.9339,86.1167 46,83.5C 46.3076,84.3081 46.8076,84.9747 47.5,85.5C 48.8168,83.8409 50.4835,82.6743 52.5,82C 52.1667,81.6667 51.8333,81.3333 51.5,81C 52.549,80.5078 53.549,80.6744 54.5,81.5C 55.9122,80.1936 57.5789,79.3603 59.5,79C 58.9056,78.5357 58.2389,78.369 57.5,78.5C 59.649,77.2638 61.9823,76.2638 64.5,75.5 Z"/></g>
<g><path style="opacity:1" fill="#017bd3" d="M 31.5,71.5 C 31.8333,71.5 32.1667,71.5 32.5,71.5C 33.5137,72.6737 34.847,73.3404 36.5,73.5C 38.0725,74.6873 39.7392,75.6873 41.5,76.5C 40.9907,77.3413 41.6573,77.8413 43.5,78C 42.2068,78.49 40.8734,78.6567 39.5,78.5C 36.3138,78.1046 33.3138,77.1046 30.5,75.5C 28.8333,78.1667 27.1667,80.8333 25.5,83.5C 26.1925,84.5178 26.8592,85.5178 27.5,86.5C 26.5,86.5 25.5,86.5 24.5,86.5C 20.3972,84.7836 17.0639,82.1169 14.5,78.5C 18.0071,79.0065 21.1737,78.3398 24,76.5C 26.1734,79.277 26.6734,79.1103 25.5,76C 27.5,75 29.5,74 31.5,73C 30.2617,72.31 30.2617,71.81 31.5,71.5 Z"/></g>
<g><path style="opacity:1" fill="#015ca7" d="M 39.5,78.5 C 40.209,79.404 41.209,79.7373 42.5,79.5C 42.0724,82.2465 40.4057,83.9132 37.5,84.5C 36.914,84.2907 36.414,83.9574 36,83.5C 34.6125,84.7358 33.4458,86.0692 32.5,87.5C 30.8828,86.962 29.2161,86.6287 27.5,86.5C 26.8592,85.5178 26.1925,84.5178 25.5,83.5C 27.1667,80.8333 28.8333,78.1667 30.5,75.5C 33.3138,77.1046 36.3138,78.1046 39.5,78.5 Z"/></g>
<g><path style="opacity:1" fill="#0054a6" d="M 57.5,78.5 C 58.2389,78.369 58.9056,78.5357 59.5,79C 57.5789,79.3603 55.9122,80.1936 54.5,81.5C 53.549,80.6744 52.549,80.5078 51.5,81C 51.8333,81.3333 52.1667,81.6667 52.5,82C 50.4835,82.6743 48.8168,83.8409 47.5,85.5C 46.8076,84.9747 46.3076,84.3081 46,83.5C 42.9339,86.1167 39.4339,87.7834 35.5,88.5C 34.209,88.7373 33.209,88.404 32.5,87.5C 33.4458,86.0692 34.6125,84.7358 36,83.5C 36.414,83.9574 36.914,84.2907 37.5,84.5C 40.4057,83.9132 42.0724,82.2465 42.5,79.5C 47.547,79.6625 52.547,79.3292 57.5,78.5 Z"/></g>
<g><path style="opacity:1" fill="#005bd5" d="M 93.5,53.5 C 89.4888,72.8386 78.1554,85.5053 59.5,91.5C 58.1667,91.5 56.8333,91.5 55.5,91.5C 49.31,91.8229 43.31,91.4896 37.5,90.5C 38.1667,90.5 38.8333,90.5 39.5,90.5C 50.1122,91.345 60.1122,89.345 69.5,84.5C 77.9482,80.0511 83.9482,73.3844 87.5,64.5C 89.9743,62.1024 91.3076,59.1024 91.5,55.5C 91.5,55.1667 91.5,54.8333 91.5,54.5C 92.1667,54.1667 92.8333,53.8333 93.5,53.5 Z"/></g>
<g><path style="opacity:1" fill="#006cda" d="M 24.5,86.5 C 25.5,86.5 26.5,86.5 27.5,86.5C 29.2161,86.6287 30.8828,86.962 32.5,87.5C 33.209,88.404 34.209,88.7373 35.5,88.5C 36.8333,89.1667 38.1667,89.8333 39.5,90.5C 38.8333,90.5 38.1667,90.5 37.5,90.5C 35.1944,90.0074 32.861,89.6741 30.5,89.5C 28.1815,89.0075 26.1815,88.0075 24.5,86.5 Z"/></g>
<g><path style="opacity:1" fill="#0047b3" d="M 30.5,89.5 C 32.861,89.6741 35.1944,90.0074 37.5,90.5C 43.31,91.4896 49.31,91.8229 55.5,91.5C 50.6946,92.4872 45.6946,92.8205 40.5,92.5C 36.8379,92.2766 33.5046,91.2766 30.5,89.5 Z"/></g>
<g><path style="opacity:0.998" fill="#031a50" d="M 55.5,91.5 C 56.8333,91.5 58.1667,91.5 59.5,91.5C 58.7375,92.2679 57.7375,92.7679 56.5,93C 59.1572,93.1747 61.8239,93.0081 64.5,92.5C 62.2209,93.6515 59.8876,94.6515 57.5,95.5C 51.5,95.5 45.5,95.5 39.5,95.5C 44.6509,94.6733 49.9842,94.1733 55.5,94C 50.3165,93.8261 45.3165,93.3261 40.5,92.5C 45.6946,92.8205 50.6946,92.4872 55.5,91.5 Z"/></g>
</svg>
