<?xml version="1.0" encoding="UTF-8"?>
<!DOCTYPE svg PUBLIC "-//W3C//DTD SVG 1.1//EN" "http://www.w3.org/Graphics/SVG/1.1/DTD/svg11.dtd">
<svg xmlns="http://www.w3.org/2000/svg" version="1.1" width="96px" height="96px" style="shape-rendering:geometricPrecision; text-rendering:geometricPrecision; image-rendering:optimizeQuality; fill-rule:evenodd; clip-rule:evenodd" xmlns:xlink="http://www.w3.org/1999/xlink">
<g><path style="opacity:0.964" fill="#dfe0df" d="M 38.5,-0.5 C 44.5,-0.5 50.5,-0.5 56.5,-0.5C 77.3485,5.6822 90.3485,19.3489 95.5,40.5C 95.5,45.1667 95.5,49.8333 95.5,54.5C 90.4443,75.2223 77.7777,88.889 57.5,95.5C 50.8333,95.5 44.1667,95.5 37.5,95.5C 17.4004,89.7338 4.73372,76.7338 -0.5,56.5C -0.5,50.5 -0.5,44.5 -0.5,38.5C 4.83333,17.8333 17.8333,4.83333 38.5,-0.5 Z"/></g>
<g><path style="opacity:1" fill="#673515" d="M 69.5,34.5 C 54.8333,35.8333 40.1667,35.8333 25.5,34.5C 32.7645,28.8533 40.0979,23.1867 47.5,17.5C 50.7556,19.7113 53.9223,22.0446 57,24.5C 57.4828,23.552 57.6495,22.552 57.5,21.5C 60.1667,21.5 62.8333,21.5 65.5,21.5C 65.335,24.8499 65.5017,28.1832 66,31.5C 67.0391,32.7101 68.2058,33.7101 69.5,34.5 Z"/></g>
<g><path style="opacity:1" fill="#866147" d="M 25.5,34.5 C 40.1667,35.8333 54.8333,35.8333 69.5,34.5C 70.2891,34.7828 70.9558,35.2828 71.5,36C 55.5,36.6667 39.5,36.6667 23.5,36C 24.0442,35.2828 24.7109,34.7828 25.5,34.5 Z"/></g>
<g><path style="opacity:1" fill="#836456" d="M 32.5,38.5 C 32.5,39.1667 32.5,39.8333 32.5,40.5C 20.5,39.8333 20.5,39.1667 32.5,38.5 Z"/></g>
<g><path style="opacity:1" fill="#a8978e" d="M 32.5,37.5 C 32.5,37.8333 32.5,38.1667 32.5,38.5C 20.5,39.1667 20.5,39.8333 32.5,40.5C 29.3752,41.4794 26.0419,41.8128 22.5,41.5C 22.5,40.1667 22.5,38.8333 22.5,37.5C 25.8333,37.5 29.1667,37.5 32.5,37.5 Z"/></g>
<g><path style="opacity:1" fill="#886b5e" d="M 22.5,42.5 C 23.8333,42.5 25.1667,42.5 26.5,42.5C 26.5,43.5 26.5,44.5 26.5,45.5C 25.1667,45.5 23.8333,45.5 22.5,45.5C 22.5,44.5 22.5,43.5 22.5,42.5 Z"/></g>
<g><path style="opacity:1" fill="#cbc5c1" d="M 32.5,37.5 C 33.1667,37.5 33.8333,37.5 34.5,37.5C 34.5,38.8333 34.5,40.1667 34.5,41.5C 37.9387,41.7471 41.272,41.4137 44.5,40.5C 44.5,41.1667 44.8333,41.5 45.5,41.5C 48.8333,41.5 52.1667,41.5 55.5,41.5C 56.1667,41.5 56.5,41.1667 56.5,40.5C 59.8333,40.5 63.1667,40.5 66.5,40.5C 66.5,39.5 66.5,38.5 66.5,37.5C 67.1667,37.5 67.8333,37.5 68.5,37.5C 68.5,38.5 68.5,39.5 68.5,40.5C 69.5,40.5 70.5,40.5 71.5,40.5C 71.5,39.5 71.5,38.5 71.5,37.5C 72.4345,38.5676 72.7678,39.901 72.5,41.5C 70.901,41.2322 69.5676,41.5655 68.5,42.5C 66.1667,42.5 63.8333,42.5 61.5,42.5C 61.5,43.5 61.5,44.5 61.5,45.5C 64.8333,45.5 68.1667,45.5 71.5,45.5C 71.5,44.5 71.5,43.5 71.5,42.5C 72.8333,45.1667 72.8333,47.8333 71.5,50.5C 71.5,50.8333 71.5,51.1667 71.5,51.5C 68.0613,51.2529 64.728,51.5863 61.5,52.5C 61.1667,51.1667 60.8333,51.1667 60.5,52.5C 59.1667,52.5 57.8333,52.5 56.5,52.5C 56.5,51.8333 56.5,51.1667 56.5,50.5C 59.8333,50.5 63.1667,50.5 66.5,50.5C 66.5,49.5 66.5,48.5 66.5,47.5C 63.1667,47.5 59.8333,47.5 56.5,47.5C 56.1667,46.1667 55.8333,46.1667 55.5,47.5C 52.1667,47.5 48.8333,47.5 45.5,47.5C 44.8333,46.1667 44.1667,46.1667 43.5,47.5C 44.4345,48.5676 44.7678,49.901 44.5,51.5C 42.5,51.5 40.5,51.5 38.5,51.5C 38.7678,53.099 38.4345,54.4324 37.5,55.5C 37.5,54.5 37.5,53.5 37.5,52.5C 34.1667,52.5 30.8333,52.5 27.5,52.5C 27.5,51.8333 27.1667,51.5 26.5,51.5C 25.1667,51.5 23.8333,51.5 22.5,51.5C 22.5,51.1667 22.5,50.8333 22.5,50.5C 25.8333,50.5 29.1667,50.5 32.5,50.5C 32.5,49.5 32.5,48.5 32.5,47.5C 29.1667,47.5 25.8333,47.5 22.5,47.5C 22.5,46.8333 22.5,46.1667 22.5,45.5C 23.8333,45.5 25.1667,45.5 26.5,45.5C 26.5,44.5 26.5,43.5 26.5,42.5C 25.1667,42.5 23.8333,42.5 22.5,42.5C 22.5,42.1667 22.5,41.8333 22.5,41.5C 26.0419,41.8128 29.3752,41.4794 32.5,40.5C 32.5,39.8333 32.5,39.1667 32.5,38.5C 32.5,38.1667 32.5,37.8333 32.5,37.5 Z"/></g>
<g><path style="opacity:1" fill="#8a6d60" d="M 68.5,42.5 C 69.5,42.5 70.5,42.5 71.5,42.5C 71.5,43.5 71.5,44.5 71.5,45.5C 68.1667,45.5 64.8333,45.5 61.5,45.5C 61.5,44.5 61.5,43.5 61.5,42.5C 63.8333,42.5 66.1667,42.5 68.5,42.5 Z"/></g>
<g><path style="opacity:1" fill="#896d60" d="M 50.5,42.5 C 53.8333,42.5 57.1667,42.5 60.5,42.5C 60.5,43.5 60.5,44.5 60.5,45.5C 57.1667,45.5 53.8333,45.5 50.5,45.5C 50.5,44.5 50.5,43.5 50.5,42.5 Z"/></g>
<g><path style="opacity:1" fill="#896c5f" d="M 39.5,42.5 C 42.5,42.5 45.5,42.5 48.5,42.5C 48.5,43.5 48.5,44.5 48.5,45.5C 45.5,45.5 42.5,45.5 39.5,45.5C 39.5,44.5 39.5,43.5 39.5,42.5 Z"/></g>
<g><path style="opacity:1" fill="#896c5f" d="M 28.5,42.5 C 31.5,42.5 34.5,42.5 37.5,42.5C 37.5,43.5 37.5,44.5 37.5,45.5C 34.5,45.5 31.5,45.5 28.5,45.5C 28.5,44.5 28.5,43.5 28.5,42.5 Z"/></g>
<g><path style="opacity:1" fill="#a8978e" d="M 45.5,38.5 C 48.6248,37.5206 51.9581,37.1872 55.5,37.5C 55.5,38.8333 55.5,40.1667 55.5,41.5C 52.1667,41.5 48.8333,41.5 45.5,41.5C 45.5,41.1667 45.5,40.8333 45.5,40.5C 57.5,39.8333 57.5,39.1667 45.5,38.5 Z"/></g>
<g><path style="opacity:1" fill="#856759" d="M 68.5,37.5 C 69.5,37.5 70.5,37.5 71.5,37.5C 71.5,38.5 71.5,39.5 71.5,40.5C 70.5,40.5 69.5,40.5 68.5,40.5C 68.5,39.5 68.5,38.5 68.5,37.5 Z"/></g>
<g><path style="opacity:1" fill="#846658" d="M 45.5,38.5 C 57.5,39.1667 57.5,39.8333 45.5,40.5C 45.5,39.8333 45.5,39.1667 45.5,38.5 Z"/></g>
<g><path style="opacity:1" fill="#8c7164" d="M 66.5,37.5 C 66.5,38.5 66.5,39.5 66.5,40.5C 63.1667,40.5 59.8333,40.5 56.5,40.5C 56.5,39.5 56.5,38.5 56.5,37.5C 59.8333,37.5 63.1667,37.5 66.5,37.5 Z"/></g>
<g><path style="opacity:1" fill="#93796d" d="M 34.5,37.5 C 37.8333,37.5 41.1667,37.5 44.5,37.5C 44.5,38.5 44.5,39.5 44.5,40.5C 41.272,41.4137 37.9387,41.7471 34.5,41.5C 34.5,40.1667 34.5,38.8333 34.5,37.5 Z"/></g>
<g><path style="opacity:1" fill="#876a5c" d="M 45.5,47.5 C 48.8333,47.5 52.1667,47.5 55.5,47.5C 55.5,48.5 55.5,49.5 55.5,50.5C 52.1667,50.5 48.8333,50.5 45.5,50.5C 45.5,49.5 45.5,48.5 45.5,47.5 Z"/></g>
<g><path style="opacity:1" fill="#886c5f" d="M 22.5,47.5 C 25.8333,47.5 29.1667,47.5 32.5,47.5C 32.5,48.5 32.5,49.5 32.5,50.5C 29.1667,50.5 25.8333,50.5 22.5,50.5C 22.5,49.5 22.5,48.5 22.5,47.5 Z"/></g>
<g><path style="opacity:1" fill="#886b5d" d="M 43.5,47.5 C 43.5,48.5 43.5,49.5 43.5,50.5C 40.5,50.5 37.5,50.5 34.5,50.5C 34.5,49.5 34.5,48.5 34.5,47.5C 37.5,47.5 40.5,47.5 43.5,47.5 Z"/></g>
<g><path style="opacity:1" fill="#896d5f" d="M 56.5,47.5 C 59.8333,47.5 63.1667,47.5 66.5,47.5C 66.5,48.5 66.5,49.5 66.5,50.5C 63.1667,50.5 59.8333,50.5 56.5,50.5C 56.5,49.5 56.5,48.5 56.5,47.5 Z"/></g>
<g><path style="opacity:1" fill="#816254" d="M 71.5,50.5 C 70.5,50.5 69.5,50.5 68.5,50.5C 68.5,49.5 68.5,48.5 68.5,47.5C 69.5,47.5 70.5,47.5 71.5,47.5C 71.5,48.5 71.5,49.5 71.5,50.5 Z"/></g>
<g><path style="opacity:1" fill="#8d7264" d="M 27.5,52.5 C 30.8333,52.5 34.1667,52.5 37.5,52.5C 37.5,53.5 37.5,54.5 37.5,55.5C 34.1667,55.5 30.8333,55.5 27.5,55.5C 27.5,54.5 27.5,53.5 27.5,52.5 Z"/></g>
<g><path style="opacity:1" fill="#8b6f62" d="M 56.5,52.5 C 57.8333,52.5 59.1667,52.5 60.5,52.5C 60.5,53.5 60.5,54.5 60.5,55.5C 59.1667,55.5 57.8333,55.5 56.5,55.5C 56.5,54.5 56.5,53.5 56.5,52.5 Z"/></g>
<g><path style="opacity:1" fill="#998276" d="M 22.5,51.5 C 23.8333,51.5 25.1667,51.5 26.5,51.5C 26.5,52.8333 26.5,54.1667 26.5,55.5C 25.1667,55.5 23.8333,55.5 22.5,55.5C 22.5,54.1667 22.5,52.8333 22.5,51.5 Z"/></g>
<g><path style="opacity:1" fill="#9d877b" d="M 71.5,51.5 C 72.4345,52.5676 72.7678,53.901 72.5,55.5C 68.8333,55.5 65.1667,55.5 61.5,55.5C 61.5,54.5 61.5,53.5 61.5,52.5C 64.728,51.5863 68.0613,51.2529 71.5,51.5 Z"/></g>
<g><path style="opacity:1" fill="#8b6f62" d="M 32.5,56.5 C 32.5,57.5 32.5,58.5 32.5,59.5C 29.1667,59.5 25.8333,59.5 22.5,59.5C 22.5,58.5 22.5,57.5 22.5,56.5C 25.8333,56.5 29.1667,56.5 32.5,56.5 Z"/></g>
<g><path style="opacity:1" fill="#8a6f61" d="M 66.5,57.5 C 63.6627,59.4023 60.3293,60.069 56.5,59.5C 56.5,58.5 56.5,57.5 56.5,56.5C 60.0419,56.1872 63.3752,56.5206 66.5,57.5 Z"/></g>
<g><path style="opacity:1" fill="#c4bcb8" d="M 32.5,56.5 C 33.1667,56.5 33.8333,56.5 34.5,56.5C 34.5,57.5 34.5,58.5 34.5,59.5C 35.5,59.5 36.5,59.5 37.5,59.5C 37.5,58.5 37.5,57.5 37.5,56.5C 38.8333,60.8333 38.8333,65.1667 37.5,69.5C 37.5,68.5 37.5,67.5 37.5,66.5C 36.5,66.5 35.5,66.5 34.5,66.5C 33.8333,65.1667 33.1667,65.1667 32.5,66.5C 29.5,66.5 26.5,66.5 23.5,66.5C 25.1667,65.8333 26.8333,65.1667 28.5,64.5C 31.5,64.5 34.5,64.5 37.5,64.5C 37.5,63.5 37.5,62.5 37.5,61.5C 35.8333,61.5 34.1667,61.5 32.5,61.5C 29.1667,60.8333 25.8333,60.1667 22.5,59.5C 25.8333,59.5 29.1667,59.5 32.5,59.5C 32.5,58.5 32.5,57.5 32.5,56.5 Z"/></g>
<g><path style="opacity:1" fill="#826455" d="M 34.5,56.5 C 35.5,56.5 36.5,56.5 37.5,56.5C 37.5,57.5 37.5,58.5 37.5,59.5C 36.5,59.5 35.5,59.5 34.5,59.5C 34.5,58.5 34.5,57.5 34.5,56.5 Z"/></g>
<g><path style="opacity:1" fill="#896d60" d="M 22.5,61.5 C 23.8333,61.5 25.1667,61.5 26.5,61.5C 26.5,62.5 26.5,63.5 26.5,64.5C 25.1667,64.5 23.8333,64.5 22.5,64.5C 22.5,63.5 22.5,62.5 22.5,61.5 Z"/></g>
<g><path style="opacity:1" fill="#896c5f" d="M 32.5,61.5 C 34.1667,61.5 35.8333,61.5 37.5,61.5C 37.5,62.5 37.5,63.5 37.5,64.5C 34.5,64.5 31.5,64.5 28.5,64.5C 28.5,63.5 28.5,62.5 28.5,61.5C 29.8333,61.5 31.1667,61.5 32.5,61.5 Z"/></g>
<g><path style="opacity:1" fill="#876b5d" d="M 60.5,61.5 C 60.5,62.5 60.5,63.5 60.5,64.5C 59.1667,64.5 57.8333,64.5 56.5,64.5C 56.5,63.5 56.5,62.5 56.5,61.5C 57.8333,61.5 59.1667,61.5 60.5,61.5 Z"/></g>
<g><path style="opacity:1" fill="#c5bcb7" d="M 68.5,56.5 C 68.5,57.5 68.5,58.5 68.5,59.5C 69.5,59.5 70.5,59.5 71.5,59.5C 71.5,58.5 71.5,57.5 71.5,56.5C 72.8333,60.8333 72.8333,65.1667 71.5,69.5C 71.5,68.5 71.5,67.5 71.5,66.5C 70.5,66.5 69.5,66.5 68.5,66.5C 67.8333,65.1667 67.1667,65.1667 66.5,66.5C 63.1667,66.5 59.8333,66.5 56.5,66.5C 56.5,65.8333 56.5,65.1667 56.5,64.5C 57.8333,64.5 59.1667,64.5 60.5,64.5C 60.5,63.5 60.5,62.5 60.5,61.5C 61.1667,61.5 61.8333,61.5 62.5,61.5C 62.5,62.5 62.5,63.5 62.5,64.5C 65.5,64.5 68.5,64.5 71.5,64.5C 71.5,63.5 71.5,62.5 71.5,61.5C 69.8333,61.5 68.1667,61.5 66.5,61.5C 63.1667,60.8333 59.8333,60.1667 56.5,59.5C 60.3293,60.069 63.6627,59.4023 66.5,57.5C 67.1667,57.1667 67.8333,56.8333 68.5,56.5 Z"/></g>
<g><path style="opacity:1" fill="#896c5f" d="M 62.5,61.5 C 63.8333,61.5 65.1667,61.5 66.5,61.5C 68.1667,61.5 69.8333,61.5 71.5,61.5C 71.5,62.5 71.5,63.5 71.5,64.5C 68.5,64.5 65.5,64.5 62.5,64.5C 62.5,63.5 62.5,62.5 62.5,61.5 Z"/></g>
<g><path style="opacity:1" fill="#836556" d="M 68.5,56.5 C 69.5,56.5 70.5,56.5 71.5,56.5C 71.5,57.5 71.5,58.5 71.5,59.5C 70.5,59.5 69.5,59.5 68.5,59.5C 68.5,58.5 68.5,57.5 68.5,56.5 Z"/></g>
<g><path style="opacity:1" fill="#8a6e61" d="M 23.5,66.5 C 26.5,66.5 29.5,66.5 32.5,66.5C 32.5,67.5 32.5,68.5 32.5,69.5C 29.1667,69.5 25.8333,69.5 22.5,69.5C 22.2627,68.209 22.596,67.209 23.5,66.5 Z"/></g>
<g><path style="opacity:1" fill="#846657" d="M 34.5,66.5 C 35.5,66.5 36.5,66.5 37.5,66.5C 37.5,67.5 37.5,68.5 37.5,69.5C 36.5,69.5 35.5,69.5 34.5,69.5C 34.5,68.5 34.5,67.5 34.5,66.5 Z"/></g>
<g><path style="opacity:1" fill="#8a6e61" d="M 56.5,66.5 C 59.8333,66.5 63.1667,66.5 66.5,66.5C 66.5,67.5 66.5,68.5 66.5,69.5C 63.1667,69.5 59.8333,69.5 56.5,69.5C 56.5,68.5 56.5,67.5 56.5,66.5 Z"/></g>
<g><path style="opacity:1" fill="#826455" d="M 68.5,66.5 C 69.5,66.5 70.5,66.5 71.5,66.5C 71.5,67.5 71.5,68.5 71.5,69.5C 70.5,69.5 69.5,69.5 68.5,69.5C 68.5,68.5 68.5,67.5 68.5,66.5 Z"/></g>
<g><path style="opacity:1" fill="#988175" d="M 22.5,70.5 C 38.8469,70.1672 55.1803,70.5006 71.5,71.5C 63.3333,71.8333 55.1667,72.1667 47,72.5C 38.4716,72.4979 30.3049,71.8312 22.5,70.5 Z"/></g>
</svg>
