<?xml version="1.0" encoding="UTF-8"?>
<!DOCTYPE svg PUBLIC "-//W3C//DTD SVG 1.1//EN" "http://www.w3.org/Graphics/SVG/1.1/DTD/svg11.dtd">
<svg xmlns="http://www.w3.org/2000/svg" version="1.1" width="96px" height="96px" style="shape-rendering:geometricPrecision; text-rendering:geometricPrecision; image-rendering:optimizeQuality; fill-rule:evenodd; clip-rule:evenodd" xmlns:xlink="http://www.w3.org/1999/xlink">
<g><path style="opacity:0.998" fill="#f67071" d="M 37.5,-0.5 C 44.1667,-0.5 50.8333,-0.5 57.5,-0.5C 77.1667,5.16667 89.8333,17.8333 95.5,37.5C 95.5,44.1667 95.5,50.8333 95.5,57.5C 89.8333,77.1667 77.1667,89.8333 57.5,95.5C 50.8333,95.5 44.1667,95.5 37.5,95.5C 17.8333,89.8333 5.16667,77.1667 -0.5,57.5C -0.5,50.8333 -0.5,44.1667 -0.5,37.5C 5.16667,17.8333 17.8333,5.16667 37.5,-0.5 Z"/></g>
<g><path style="opacity:1" fill="#131625" d="M 39.5,16.5 C 48.1678,14.6886 55.3345,17.022 61,23.5C 62.1727,27.3372 64.1727,30.6706 67,33.5C 66.834,38.2631 68.0007,42.5964 70.5,46.5C 70.0623,47.5063 69.3957,47.5063 68.5,46.5C 67.1885,50.1538 67.5219,53.6538 69.5,57C 67.9532,57.3334 66.6199,56.8334 65.5,55.5C 64.3805,59.1875 64.5471,62.8542 66,66.5C 66.414,66.9574 66.914,67.2907 67.5,67.5C 70.4946,63.6219 71.6612,64.2885 71,69.5C 69.2739,70.5762 67.4406,70.7429 65.5,70C 61.8798,65.9301 58.8798,61.4301 56.5,56.5C 48.7027,60.972 47.7027,66.472 53.5,73C 47.238,72.4251 46.238,74.0918 50.5,78C 47.1667,78.6667 43.8333,78.6667 40.5,78C 37.9427,77.3147 36.1094,75.8147 35,73.5C 34.7811,74.938 34.2811,76.2713 33.5,77.5C 30.5293,73.2243 28.3627,68.5577 27,63.5C 26.968,57.3482 26.1347,51.3482 24.5,45.5C 25.1667,43.5 25.8333,41.5 26.5,39.5C 26.0639,29.2407 30.3972,21.5741 39.5,16.5 Z"/></g>
<g><path style="opacity:1" fill="#f07070" d="M 43.5,18.5 C 48.1271,18.5734 52.4604,19.7401 56.5,22C 60.9251,26.7901 60.4251,30.9568 55,34.5C 54.2004,38.2363 54.7004,41.7363 56.5,45C 55.582,51.0091 52.7486,55.8424 48,59.5C 46.8476,54.7253 45.0143,50.2253 42.5,46C 40.5527,45.0087 38.5527,44.6753 36.5,45C 40.5271,46.993 40.3604,48.1596 36,48.5C 33.4007,48.9474 31.9007,47.9474 31.5,45.5C 33.0531,40.9903 33.8864,36.3236 34,31.5C 37.934,30.9607 41.7674,30.1274 45.5,29C 41.812,29.4541 38.1453,29.2875 34.5,28.5C 36.4233,27.6922 38.4233,27.1922 40.5,27C 38.4233,26.8078 36.4233,26.3078 34.5,25.5C 35.7287,24.7189 37.062,24.2189 38.5,24C 35.0569,23.7787 34.7236,22.7787 37.5,21C 39.6115,20.1553 41.6115,19.322 43.5,18.5 Z"/></g>
<g><path style="opacity:1" fill="#261926" d="M 38.5,33.5 C 42.4006,32.8571 45.734,33.8571 48.5,36.5C 45.2317,37.487 41.8984,37.8204 38.5,37.5C 38.5,36.1667 38.5,34.8333 38.5,33.5 Z"/></g>
<g><path style="opacity:1" fill="#2b1827" d="M 39.5,38.5 C 41.7505,38.1814 43.7505,38.6814 45.5,40C 44.5,40.1667 43.5,40.3333 42.5,40.5C 40.9704,40.3601 39.9704,39.6935 39.5,38.5 Z"/></g>
<g><path style="opacity:1" fill="#e36c6d" d="M 33.5,51.5 C 36.6852,51.0196 39.5185,51.6863 42,53.5C 42.9859,55.9248 42.3193,57.5915 40,58.5C 38.6693,57.0042 37.1693,55.6709 35.5,54.5C 34.2807,55.2634 33.2807,56.2634 32.5,57.5C 31.2291,55.1937 31.5624,53.1937 33.5,51.5 Z"/></g>
</svg>
