<?xml version="1.0" encoding="UTF-8"?>
<!DOCTYPE svg PUBLIC "-//W3C//DTD SVG 1.1//EN" "http://www.w3.org/Graphics/SVG/1.1/DTD/svg11.dtd">
<svg xmlns="http://www.w3.org/2000/svg" version="1.1" width="96px" height="96px" style="shape-rendering:geometricPrecision; text-rendering:geometricPrecision; image-rendering:optimizeQuality; fill-rule:evenodd; clip-rule:evenodd" xmlns:xlink="http://www.w3.org/1999/xlink">
<g><path style="opacity:0.995" fill="#06293e" d="M 37.5,-0.5 C 44.1667,-0.5 50.8333,-0.5 57.5,-0.5C 77.1667,5.16667 89.8333,17.8333 95.5,37.5C 95.5,44.1667 95.5,50.8333 95.5,57.5C 94.2266,61.6509 92.5599,65.6509 90.5,69.5C 90.5,68.8333 90.1667,68.5 89.5,68.5C 89.5,67.1667 88.8333,66.5 87.5,66.5C 85.8267,65.657 84.66,64.3237 84,62.5C 82.2619,57.9762 81.0952,53.3096 80.5,48.5C 79.6776,38.8901 78.0109,29.5568 75.5,20.5C 74.8788,17.1427 72.8788,15.976 69.5,17C 67.9837,18.897 67.317,21.0637 67.5,23.5C 70.3126,23.0246 72.3126,24.0246 73.5,26.5C 73.5,27.1667 73.1667,27.5 72.5,27.5C 72.3893,26.8826 72.056,26.3826 71.5,26C 57.504,25.5001 43.504,25.3334 29.5,25.5C 41.5,24.8333 53.5,24.1667 65.5,23.5C 66.4269,20.4263 67.4269,17.2596 68.5,14C 66.8655,10.9325 64.1988,9.43247 60.5,9.5C 56.6812,8.83443 52.6812,8.5011 48.5,8.5C 42.2597,8.33319 36.2597,8.99986 30.5,10.5C 28.9731,10.427 27.9731,11.0937 27.5,12.5C 26.8333,13.5 26.1667,14.5 25.5,15.5C 20.8129,16.5063 18.8129,19.5063 19.5,24.5C 18.1392,29.3039 17.1392,34.3039 16.5,39.5C 15.8374,49.8275 13.1707,59.4942 8.5,68.5C 7.41683,68.4606 6.41683,68.1272 5.5,67.5C 4.70245,67.9569 4.36912,68.6236 4.5,69.5C 2.4401,65.6509 0.773429,61.6509 -0.5,57.5C -0.5,50.8333 -0.5,44.1667 -0.5,37.5C 5.16667,17.8333 17.8333,5.16667 37.5,-0.5 Z"/></g>
<g><path style="opacity:1" fill="#fd595f" d="M 60.5,9.5 C 59.7611,9.36899 59.0944,9.53566 58.5,10C 61.5445,10.7448 64.2112,12.0781 66.5,14C 65.6633,15.587 64.3299,16.4204 62.5,16.5C 59.2446,15.3594 55.9112,14.5261 52.5,14C 45.4764,13.8311 38.4764,13.3311 31.5,12.5C 32.981,11.056 32.6477,10.3894 30.5,10.5C 36.2597,8.99986 42.2597,8.33319 48.5,8.5C 52.6812,8.5011 56.6812,8.83443 60.5,9.5 Z"/></g>
<g><path style="opacity:1" fill="#fb3741" d="M 60.5,9.5 C 64.1988,9.43247 66.8655,10.9325 68.5,14C 67.4269,17.2596 66.4269,20.4263 65.5,23.5C 53.5,23.5 41.5,23.5 29.5,23.5C 29.13,19.7674 28.4633,16.1007 27.5,12.5C 27.9731,11.0937 28.9731,10.427 30.5,10.5C 32.6477,10.3894 32.981,11.056 31.5,12.5C 38.4764,13.3311 45.4764,13.8311 52.5,14C 55.9112,14.5261 59.2446,15.3594 62.5,16.5C 64.3299,16.4204 65.6633,15.587 66.5,14C 64.2112,12.0781 61.5445,10.7448 58.5,10C 59.0944,9.53566 59.7611,9.36899 60.5,9.5 Z"/></g>
<g><path style="opacity:1" fill="#f93841" d="M 25.5,15.5 C 27.6061,17.7188 28.6061,20.3855 28.5,23.5C 24.7779,22.6799 22.4446,24.0132 21.5,27.5C 20.0937,27.0269 19.427,26.0269 19.5,24.5C 18.8129,19.5063 20.8129,16.5063 25.5,15.5 Z"/></g>
<g><path style="opacity:1" fill="#443141" d="M 27.5,12.5 C 28.4633,16.1007 29.13,19.7674 29.5,23.5C 41.5,23.5 53.5,23.5 65.5,23.5C 53.5,24.1667 41.5,24.8333 29.5,25.5C 27.2075,25.2436 25.0408,25.5769 23,26.5C 22.3333,29.5 22.3333,32.5 23,35.5C 23.3826,36.056 23.8826,36.3893 24.5,36.5C 24.5,36.8333 24.5,37.1667 24.5,37.5C 23.8333,37.5 23.5,37.8333 23.5,38.5C 21.8958,37.713 21.2291,36.3797 21.5,34.5C 21.5,32.1667 21.5,29.8333 21.5,27.5C 22.4446,24.0132 24.7779,22.6799 28.5,23.5C 28.6061,20.3855 27.6061,17.7188 25.5,15.5C 26.1667,14.5 26.8333,13.5 27.5,12.5 Z"/></g>
<g><path style="opacity:1" fill="#f23e45" d="M 29.5,25.5 C 43.504,25.3334 57.504,25.5001 71.5,26C 72.056,26.3826 72.3893,26.8826 72.5,27.5C 72.5,30.1667 72.5,32.8333 72.5,35.5C 72.5,36.1667 72.1667,36.5 71.5,36.5C 67.1726,36.9843 63.1726,36.3177 59.5,34.5C 58.5,31.8333 57.5,31.8333 56.5,34.5C 55.8485,35.0906 55.1818,35.7573 54.5,36.5C 53.8933,36.3764 53.56,36.0431 53.5,35.5C 56.2019,33.1436 56.7019,30.4769 55,27.5C 53.2347,30.0321 51.7347,32.6987 50.5,35.5C 48.8333,36.8333 47.1667,36.8333 45.5,35.5C 44.1667,31.5 42.8333,31.5 41.5,35.5C 40.8333,36.8333 40.1667,36.8333 39.5,35.5C 40.2371,33.6954 41.2371,32.0287 42.5,30.5C 42.1207,28.7869 41.1207,27.7869 39.5,27.5C 34.5,27.5 29.5,27.5 24.5,27.5C 24.5,28.8333 24.5,30.1667 24.5,31.5C 28.8333,31.5 33.1667,31.5 37.5,31.5C 37.2671,33.0618 36.6005,34.3951 35.5,35.5C 32.0381,36.4816 28.3714,36.815 24.5,36.5C 23.8826,36.3893 23.3826,36.056 23,35.5C 22.3333,32.5 22.3333,29.5 23,26.5C 25.0408,25.5769 27.2075,25.2436 29.5,25.5 Z"/></g>
<g><path style="opacity:1" fill="#1a243c" d="M 49.5,27.5 C 52.9067,27.1253 53.4067,28.1253 51,30.5C 49.9614,29.7562 49.4614,28.7562 49.5,27.5 Z"/></g>
<g><path style="opacity:1" fill="#ee5057" d="M 75.5,20.5 C 78.0109,29.5568 79.6776,38.8901 80.5,48.5C 79.8347,50.6979 79.1681,53.0312 78.5,55.5C 77.8076,54.9747 77.3076,54.3081 77,53.5C 75.5969,42.4464 75.0969,31.4464 75.5,20.5 Z"/></g>
<g><path style="opacity:1" fill="#fd5e64" d="M 39.5,27.5 C 39.3404,29.153 38.6737,30.4863 37.5,31.5C 33.1667,31.5 28.8333,31.5 24.5,31.5C 24.5,30.1667 24.5,28.8333 24.5,27.5C 29.5,27.5 34.5,27.5 39.5,27.5 Z"/></g>
<g><path style="opacity:1" fill="#23293f" d="M 39.5,27.5 C 41.1207,27.7869 42.1207,28.7869 42.5,30.5C 41.2371,32.0287 40.2371,33.6954 39.5,35.5C 38.1667,35.5 36.8333,35.5 35.5,35.5C 36.6005,34.3951 37.2671,33.0618 37.5,31.5C 38.6737,30.4863 39.3404,29.153 39.5,27.5 Z"/></g>
<g><path style="opacity:1" fill="#1a273e" d="M 43.5,28.5 C 44.7082,27.218 46.0416,27.218 47.5,28.5C 49.5846,30.8358 49.7512,33.1691 48,35.5C 46.4758,33.1019 44.9758,30.7686 43.5,28.5 Z"/></g>
<g><path style="opacity:1" fill="#ac3441" d="M 73.5,26.5 C 74.8333,29.5 74.8333,32.5 73.5,35.5C 73.1667,35.5 72.8333,35.5 72.5,35.5C 72.5,32.8333 72.5,30.1667 72.5,27.5C 73.1667,27.5 73.5,27.1667 73.5,26.5 Z"/></g>
<g><path style="opacity:1" fill="#14283e" d="M 53.5,35.5 C 52.5,35.5 51.5,35.5 50.5,35.5C 51.7347,32.6987 53.2347,30.0321 55,27.5C 56.7019,30.4769 56.2019,33.1436 53.5,35.5 Z"/></g>
<g><path style="opacity:1" fill="#202a41" d="M 59.5,34.5 C 58.5,35.8333 57.5,35.8333 56.5,34.5C 57.5,31.8333 58.5,31.8333 59.5,34.5 Z"/></g>
<g><path style="opacity:1" fill="#192a41" d="M 45.5,35.5 C 44.1667,35.5 42.8333,35.5 41.5,35.5C 42.8333,31.5 44.1667,31.5 45.5,35.5 Z"/></g>
<g><path style="opacity:1" fill="#f3575d" d="M 19.5,24.5 C 19.427,26.0269 20.0937,27.0269 21.5,27.5C 21.5,29.8333 21.5,32.1667 21.5,34.5C 20.7819,41.1277 19.6152,47.7944 18,54.5C 17.8261,49.3165 17.3261,44.3165 16.5,39.5C 17.1392,34.3039 18.1392,29.3039 19.5,24.5 Z"/></g>
<g><path style="opacity:1" fill="#b52536" d="M 56.5,34.5 C 57.5,35.8333 58.5,35.8333 59.5,34.5C 63.1726,36.3177 67.1726,36.9843 71.5,36.5C 71.5,37.1667 71.1667,37.5 70.5,37.5C 55.1667,37.5 39.8333,37.5 24.5,37.5C 24.5,37.1667 24.5,36.8333 24.5,36.5C 28.3714,36.815 32.0381,36.4816 35.5,35.5C 36.8333,35.5 38.1667,35.5 39.5,35.5C 40.1667,36.8333 40.8333,36.8333 41.5,35.5C 42.8333,35.5 44.1667,35.5 45.5,35.5C 47.1667,36.8333 48.8333,36.8333 50.5,35.5C 51.5,35.5 52.5,35.5 53.5,35.5C 53.56,36.0431 53.8933,36.3764 54.5,36.5C 55.1818,35.7573 55.8485,35.0906 56.5,34.5 Z"/></g>
<g><path style="opacity:1" fill="#041428" d="M 24.5,37.5 C 39.8333,37.5 55.1667,37.5 70.5,37.5C 55.5,38.1667 40.5,38.8333 25.5,39.5C 24.5233,42.2869 24.19,45.2869 24.5,48.5C 24.5,49.1667 24.5,49.8333 24.5,50.5C 23.5166,46.7016 23.1832,42.7016 23.5,38.5C 23.5,37.8333 23.8333,37.5 24.5,37.5 Z"/></g>
<g><path style="opacity:1" fill="#e9eaea" d="M 25.5,39.5 C 40.5,39.5 55.5,39.5 70.5,39.5C 70.7602,45.4817 70.0936,51.315 68.5,57C 66.8333,57.6667 65.1667,57.6667 63.5,57C 60.4469,55.4734 57.4469,53.9734 54.5,52.5C 53.0791,49.9179 50.9124,48.2512 48,47.5C 44.098,49.8694 40.2646,52.3694 36.5,55C 33.3949,56.8681 30.0615,58.0348 26.5,58.5C 26.2474,54.9601 25.5808,51.6267 24.5,48.5C 24.19,45.2869 24.5233,42.2869 25.5,39.5 Z"/></g>
<g><path style="opacity:1" fill="#444a51" d="M 55.5,47.5 C 58.1766,48.6436 60.8433,48.8103 63.5,48C 60.3643,51.4848 57.6976,51.3181 55.5,47.5 Z"/></g>
<g><path style="opacity:1" fill="#f7343e" d="M 75.5,20.5 C 75.0969,31.4464 75.5969,42.4464 77,53.5C 77.3076,54.3081 77.8076,54.9747 78.5,55.5C 79.1681,53.0312 79.8347,50.6979 80.5,48.5C 81.0952,53.3096 82.2619,57.9762 84,62.5C 84.66,64.3237 85.8267,65.657 87.5,66.5C 80.2502,69.1344 75.0835,66.8011 72,59.5C 70.9374,51.2736 71.4374,43.2736 73.5,35.5C 74.8333,32.5 74.8333,29.5 73.5,26.5C 72.3126,24.0246 70.3126,23.0246 67.5,23.5C 67.317,21.0637 67.9837,18.897 69.5,17C 72.8788,15.976 74.8788,17.1427 75.5,20.5 Z"/></g>
<g><path style="opacity:1" fill="#f3333e" d="M 21.5,34.5 C 21.2291,36.3797 21.8958,37.713 23.5,38.5C 23.1832,42.7016 23.5166,46.7016 24.5,50.5C 25.8083,62.5207 20.475,68.5207 8.5,68.5C 13.1707,59.4942 15.8374,49.8275 16.5,39.5C 17.3261,44.3165 17.8261,49.3165 18,54.5C 19.6152,47.7944 20.7819,41.1277 21.5,34.5 Z"/></g>
<g><path style="opacity:1" fill="#ee3e46" d="M 54.5,52.5 C 57.9305,55.7256 61.9305,58.2256 66.5,60C 62.4799,62.788 58.4799,62.9546 54.5,60.5C 53.707,61.3554 54.0403,62.1887 55.5,63C 49.6199,63.9568 43.9533,63.4568 38.5,61.5C 35.4552,61.4921 32.4552,61.1587 29.5,60.5C 33.9366,58.1095 38.27,55.4428 42.5,52.5C 42.8333,52.6667 43.1667,52.8333 43.5,53C 41.8333,54.6667 40.1667,56.3333 38.5,58C 39.1667,58.6667 39.8333,58.6667 40.5,58C 43.1416,55.1606 45.6416,52.3273 48,49.5C 49.8554,50.6632 51.1888,52.3299 52,54.5C 52.4169,53.244 53.2502,52.5774 54.5,52.5 Z"/></g>
<g><path style="opacity:1" fill="#383e4d" d="M 72.5,35.5 C 72.8333,35.5 73.1667,35.5 73.5,35.5C 71.4374,43.2736 70.9374,51.2736 72,59.5C 75.0835,66.8011 80.2502,69.1344 87.5,66.5C 88.8333,66.5 89.5,67.1667 89.5,68.5C 85.8694,69.412 82.2027,69.5787 78.5,69C 75.5,66.8333 72.5,64.6667 69.5,62.5C 67.5152,64.4566 66.0152,66.7899 65,69.5C 63.7292,70.8825 62.2292,71.8825 60.5,72.5C 60.5,72.1667 60.5,71.8333 60.5,71.5C 60.8333,70.8333 61.1667,70.1667 61.5,69.5C 62.5,69.1667 63.1667,68.5 63.5,67.5C 65.9172,66.0853 66.4172,64.4187 65,62.5C 57.9541,64.2638 50.7875,64.9305 43.5,64.5C 41.139,64.3259 38.8056,63.9926 36.5,63.5C 37.1667,62.8333 37.8333,62.1667 38.5,61.5C 43.9533,63.4568 49.6199,63.9568 55.5,63C 54.0403,62.1887 53.707,61.3554 54.5,60.5C 58.4799,62.9546 62.4799,62.788 66.5,60C 61.9305,58.2256 57.9305,55.7256 54.5,52.5C 57.4469,53.9734 60.4469,55.4734 63.5,57C 65.1667,57.6667 66.8333,57.6667 68.5,57C 70.0936,51.315 70.7602,45.4817 70.5,39.5C 55.5,39.5 40.5,39.5 25.5,39.5C 40.5,38.8333 55.5,38.1667 70.5,37.5C 71.1667,37.5 71.5,37.1667 71.5,36.5C 72.1667,36.5 72.5,36.1667 72.5,35.5 Z"/></g>
<g><path style="opacity:1" fill="#f6313b" d="M 29.5,61.5 C 31.7014,62.5664 34.0347,63.233 36.5,63.5C 38.8056,63.9926 41.139,64.3259 43.5,64.5C 43.9528,65.4584 44.6195,66.2917 45.5,67C 51.8004,67.4167 57.8004,67.5834 63.5,67.5C 63.1667,68.5 62.5,69.1667 61.5,69.5C 55.4406,69.7461 49.4406,69.4128 43.5,68.5C 39.0549,67.8051 34.7215,66.6384 30.5,65C 28.6885,63.9593 28.3552,62.7927 29.5,61.5 Z"/></g>
<g><path style="opacity:1" fill="#8d313e" d="M 29.5,61.5 C 29.5,61.1667 29.5,60.8333 29.5,60.5C 32.4552,61.1587 35.4552,61.4921 38.5,61.5C 37.8333,62.1667 37.1667,62.8333 36.5,63.5C 34.0347,63.233 31.7014,62.5664 29.5,61.5 Z"/></g>
<g><path style="opacity:0.999" fill="#08293d" d="M 54.5,52.5 C 53.2502,52.5774 52.4169,53.244 52,54.5C 51.1888,52.3299 49.8554,50.6632 48,49.5C 45.6416,52.3273 43.1416,55.1606 40.5,58C 39.8333,58.6667 39.1667,58.6667 38.5,58C 40.1667,56.3333 41.8333,54.6667 43.5,53C 43.1667,52.8333 42.8333,52.6667 42.5,52.5C 38.27,55.4428 33.9366,58.1095 29.5,60.5C 29.5,60.8333 29.5,61.1667 29.5,61.5C 28.3552,62.7927 28.6885,63.9593 30.5,65C 34.7215,66.6384 39.0549,67.8051 43.5,68.5C 43.5,69.1667 43.1667,69.5 42.5,69.5C 39.2604,69.2322 36.0937,68.5655 33,67.5C 32.5,67.8333 32,68.1667 31.5,68.5C 33.3799,71.0913 35.3799,73.5913 37.5,76C 38.448,76.4828 39.448,76.6495 40.5,76.5C 40.5,77.1667 40.5,77.8333 40.5,78.5C 45.528,85.1828 50.528,85.0161 55.5,78C 54.9056,77.5357 54.2389,77.369 53.5,77.5C 52.5084,77.6716 51.8417,77.3382 51.5,76.5C 55.1645,76.4982 58.1645,75.1648 60.5,72.5C 62.2292,71.8825 63.7292,70.8825 65,69.5C 66.0152,66.7899 67.5152,64.4566 69.5,62.5C 72.5,64.6667 75.5,66.8333 78.5,69C 82.2027,69.5787 85.8694,69.412 89.5,68.5C 90.1667,68.5 90.5,68.8333 90.5,69.5C 83.0309,82.7247 72.0309,91.3914 57.5,95.5C 50.8333,95.5 44.1667,95.5 37.5,95.5C 22.9691,91.3914 11.9691,82.7247 4.5,69.5C 4.36912,68.6236 4.70245,67.9569 5.5,67.5C 6.41683,68.1272 7.41683,68.4606 8.5,68.5C 20.475,68.5207 25.8083,62.5207 24.5,50.5C 24.5,49.8333 24.5,49.1667 24.5,48.5C 25.5808,51.6267 26.2474,54.9601 26.5,58.5C 30.0615,58.0348 33.3949,56.8681 36.5,55C 40.2646,52.3694 44.098,49.8694 48,47.5C 50.9124,48.2512 53.0791,49.9179 54.5,52.5 Z"/></g>
<g><path style="opacity:1" fill="#494f57" d="M 32.5,49.5 C 34.6282,48.3709 36.9615,48.2042 39.5,49C 37.294,50.8068 34.9606,50.9735 32.5,49.5 Z"/></g>
<g><path style="opacity:1" fill="#f2545a" d="M 63.5,67.5 C 57.8004,67.5834 51.8004,67.4167 45.5,67C 44.6195,66.2917 43.9528,65.4584 43.5,64.5C 50.7875,64.9305 57.9541,64.2638 65,62.5C 66.4172,64.4187 65.9172,66.0853 63.5,67.5 Z"/></g>
<g><path style="opacity:1" fill="#8b2c3b" d="M 43.5,68.5 C 49.4406,69.4128 55.4406,69.7461 61.5,69.5C 61.1667,70.1667 60.8333,70.8333 60.5,71.5C 54.2614,71.7236 48.2614,71.0569 42.5,69.5C 43.1667,69.5 43.5,69.1667 43.5,68.5 Z"/></g>
<g><path style="opacity:1" fill="#f94047" d="M 42.5,69.5 C 48.2614,71.0569 54.2614,71.7236 60.5,71.5C 60.5,71.8333 60.5,72.1667 60.5,72.5C 58.1645,75.1648 55.1645,76.4982 51.5,76.5C 47.8333,76.5 44.1667,76.5 40.5,76.5C 39.448,76.6495 38.448,76.4828 37.5,76C 35.3799,73.5913 33.3799,71.0913 31.5,68.5C 32,68.1667 32.5,67.8333 33,67.5C 36.0937,68.5655 39.2604,69.2322 42.5,69.5 Z"/></g>
<g><path style="opacity:1" fill="#762e3d" d="M 40.5,76.5 C 44.1667,76.5 47.8333,76.5 51.5,76.5C 51.8417,77.3382 52.5084,77.6716 53.5,77.5C 49.3656,78.4849 45.0323,78.8182 40.5,78.5C 40.5,77.8333 40.5,77.1667 40.5,76.5 Z"/></g>
<g><path style="opacity:1" fill="#f74047" d="M 53.5,77.5 C 54.2389,77.369 54.9056,77.5357 55.5,78C 50.528,85.0161 45.528,85.1828 40.5,78.5C 45.0323,78.8182 49.3656,78.4849 53.5,77.5 Z"/></g>
</svg>
