<?xml version="1.0" encoding="UTF-8"?>
<!DOCTYPE svg PUBLIC "-//W3C//DTD SVG 1.1//EN" "http://www.w3.org/Graphics/SVG/1.1/DTD/svg11.dtd">
<svg xmlns="http://www.w3.org/2000/svg" version="1.1" width="96px" height="96px" style="shape-rendering:geometricPrecision; text-rendering:geometricPrecision; image-rendering:optimizeQuality; fill-rule:evenodd; clip-rule:evenodd" xmlns:xlink="http://www.w3.org/1999/xlink">
<g><path style="opacity:0.975" fill="#010101" d="M 37.5,-0.5 C 44.1667,-0.5 50.8333,-0.5 57.5,-0.5C 77.1403,5.14032 89.807,17.807 95.5,37.5C 95.5,44.1667 95.5,50.8333 95.5,57.5C 89.807,77.193 77.1403,89.8597 57.5,95.5C 50.8333,95.5 44.1667,95.5 37.5,95.5C 17.8597,89.8597 5.193,77.193 -0.5,57.5C -0.5,50.8333 -0.5,44.1667 -0.5,37.5C 5.193,17.807 17.8597,5.14032 37.5,-0.5 Z"/></g>
<g><path style="opacity:1" fill="#0fbdc9" d="M 14.5,22.5 C 21.9472,22.0714 29.2806,22.5714 36.5,24C 37.6667,25.1667 38.8333,26.3333 40,27.5C 45.7475,37.9971 51.7475,48.3304 58,58.5C 58.6667,61.1667 58.6667,63.8333 58,66.5C 54.9597,72.0816 51.793,77.5816 48.5,83C 47.5,83.6667 46.5,83.6667 45.5,83C 34.8737,64.9151 24.3737,46.7484 14,28.5C 13.3224,26.4024 13.4891,24.4024 14.5,22.5 Z"/></g>
<g><path style="opacity:1" fill="#11bdc9" d="M 54.5,22.5 C 63.2214,22.1956 71.888,22.5289 80.5,23.5C 81.6139,24.723 81.7805,26.0563 81,27.5C 77.0406,33.9177 73.2073,40.4177 69.5,47C 67.2992,47.8249 65.4659,47.3249 64,45.5C 60.6667,39.5 57.3333,33.5 54,27.5C 53.3603,25.735 53.5269,24.0683 54.5,22.5 Z"/></g>
</svg>
