<?xml version="1.0" encoding="UTF-8"?>
<!DOCTYPE svg PUBLIC "-//W3C//DTD SVG 1.1//EN" "http://www.w3.org/Graphics/SVG/1.1/DTD/svg11.dtd">
<svg xmlns="http://www.w3.org/2000/svg" version="1.1" width="96px" height="96px" style="shape-rendering:geometricPrecision; text-rendering:geometricPrecision; image-rendering:optimizeQuality; fill-rule:evenodd; clip-rule:evenodd" xmlns:xlink="http://www.w3.org/1999/xlink">
<g><path style="opacity:0.974" fill="#fafafa" d="M 37.5,-0.5 C 44.1667,-0.5 50.8333,-0.5 57.5,-0.5C 77.1667,5.16667 89.8333,17.8333 95.5,37.5C 95.5,44.1667 95.5,50.8333 95.5,57.5C 89.8333,77.1667 77.1667,89.8333 57.5,95.5C 50.8333,95.5 44.1667,95.5 37.5,95.5C 17.8333,89.8333 5.16667,77.1667 -0.5,57.5C -0.5,50.8333 -0.5,44.1667 -0.5,37.5C 5.16667,17.8333 17.8333,5.16667 37.5,-0.5 Z"/></g>
<g><path style="opacity:1" fill="#121212" d="M 32.5,13.5 C 34.5824,13.472 36.4157,14.1387 38,15.5C 38.9415,19.7005 40.4415,23.7005 42.5,27.5C 42,27.8333 41.5,28.1667 41,28.5C 35.0724,25.3169 32.2391,20.3169 32.5,13.5 Z"/></g>
<g><path style="opacity:1" fill="#0f0f0f" d="M 33.5,11.5 C 39.1218,10.8126 43.7885,12.9793 47.5,18C 59.5343,16.6046 69.0343,20.7712 76,30.5C 78.3132,35.054 77.8132,35.8873 74.5,33C 69.5634,31.9145 64.5634,31.2479 59.5,31C 57.5,30 55.5,29 53.5,28C 49.8333,23.6667 46.1667,19.3333 42.5,15C 39.8524,12.9504 36.8524,11.7837 33.5,11.5 Z"/></g>
<g><path style="opacity:1" fill="#080808" d="M 54.5,31.5 C 62.5627,33.6829 70.5627,36.1829 78.5,39C 82.6824,43.9671 83.5157,49.4671 81,55.5C 80.2078,53.4127 79.0412,51.5793 77.5,50C 70.623,47.0439 63.9563,43.7106 57.5,40C 55.0695,37.6954 54.0695,34.8621 54.5,31.5 Z"/></g>
<g><path style="opacity:1" fill="#0c0c0c" d="M 34.5,28.5 C 35.6448,29.7927 35.3115,30.9593 33.5,32C 30.6922,32.598 28.1922,33.7647 26,35.5C 25.3819,41.0729 23.8819,46.4062 21.5,51.5C 23.1093,54.9445 25.6093,57.6112 29,59.5C 29.6667,61.5 29.6667,63.5 29,65.5C 25.9662,68.0998 22.4662,69.7665 18.5,70.5C 13.4121,66.4066 11.5788,61.0733 13,54.5C 15.3333,51.1667 17.6667,47.8333 20,44.5C 19.6152,36.2281 23.4485,31.7281 31.5,31C 32.9423,30.6232 33.9423,29.7899 34.5,28.5 Z"/></g>
<g><path style="opacity:1" fill="#171717" d="M 37.5,34.5 C 40.1268,34.2933 41.7935,35.46 42.5,38C 40.0134,42.2271 37.3467,42.3938 34.5,38.5C 35.5244,37.1482 36.5244,35.8149 37.5,34.5 Z"/></g>
<g><path style="opacity:1" fill="#242424" d="M 59.5,44.5 C 60.1174,44.6107 60.6174,44.944 61,45.5C 62.9282,51.4793 61.0949,55.646 55.5,58C 50.3783,58.4559 45.3783,59.1226 40.5,60C 45.6749,57.9607 51.0082,56.2941 56.5,55C 60.4636,52.3494 61.4636,48.8494 59.5,44.5 Z"/></g>
<g><path style="opacity:1" fill="#0b0b0b" d="M 63.5,46.5 C 69.826,48.5757 74.9927,52.2423 79,57.5C 81.0368,65.0809 78.8701,71.0809 72.5,75.5C 72.5008,72.7663 72.3342,69.7663 72,66.5C 69.3333,61.8333 66.6667,57.1667 64,52.5C 63.5045,50.5273 63.3379,48.5273 63.5,46.5 Z"/></g>
<g><path style="opacity:1" fill="#121212" d="M 37.5,63.5 C 49.8414,61.6725 56.3414,67.0058 57,79.5C 58.4907,81.0037 60.324,81.8371 62.5,82C 60.0288,82.7063 57.6954,82.373 55.5,81C 53.1943,76.7279 50.5276,72.7279 47.5,69C 45.4194,68.1313 43.2527,67.6313 41,67.5C 36.8621,68.5813 32.6955,69.0813 28.5,69C 31.5964,67.1282 34.5964,65.2948 37.5,63.5 Z"/></g>
</svg>
