<?xml version="1.0" encoding="UTF-8"?>
<!DOCTYPE svg PUBLIC "-//W3C//DTD SVG 1.1//EN" "http://www.w3.org/Graphics/SVG/1.1/DTD/svg11.dtd">
<svg xmlns="http://www.w3.org/2000/svg" version="1.1" width="96px" height="96px" style="shape-rendering:geometricPrecision; text-rendering:geometricPrecision; image-rendering:optimizeQuality; fill-rule:evenodd; clip-rule:evenodd" xmlns:xlink="http://www.w3.org/1999/xlink">
<g><path style="opacity:1" fill="#66134f" d="M 31.5,81.5 C 12.8692,70.4572 6.70249,54.4572 13,33.5C 25.6542,10.8383 43.8209,5.00493 67.5,16C 83.8466,28.3702 88.3466,44.2035 81,63.5C 69.3713,82.553 52.8713,88.553 31.5,81.5 Z"/></g>
<g><path style="opacity:1" fill="#f8f5f7" d="M 46.5,20.5 C 47.5,20.5 48.5,20.5 49.5,20.5C 49.3354,23.5184 49.502,26.5184 50,29.5C 51.9532,32.2551 53.1199,35.2551 53.5,38.5C 57.0244,38.9289 60.0244,40.4289 62.5,43C 61.5,43.8333 60.5,44.6667 59.5,45.5C 60.6055,49.777 60.7722,54.1103 60,58.5C 57.3099,61.5334 54.9766,64.8668 53,68.5C 50.4054,69.2309 48.7387,70.8975 48,73.5C 43.9005,69.9518 39.9005,65.6185 36,60.5C 35.2809,55.3374 34.1143,50.3374 32.5,45.5C 33.8333,43.5 35.5,41.8333 37.5,40.5C 39.5271,42.339 41.8604,42.839 44.5,42C 41.5312,41.8616 39.8645,40.3616 39.5,37.5C 40.2977,31.1134 42.631,25.4467 46.5,20.5 Z"/></g>
<g><path style="opacity:1" fill="#652f4a" d="M 48.5,38.5 C 48.2914,37.0783 47.7914,35.745 47,34.5C 46.2411,36.0629 45.0744,37.0629 43.5,37.5C 44.109,34.0344 45.9423,33.0344 49,34.5C 49.765,36.0657 49.5983,37.3991 48.5,38.5 Z"/></g>
<g><path style="opacity:1" fill="#b299a5" d="M 48.5,38.5 C 47.1054,37.1854 46.1054,37.5188 45.5,39.5C 44.5,39.1667 43.8333,38.5 43.5,37.5C 45.0744,37.0629 46.2411,36.0629 47,34.5C 47.7914,35.745 48.2914,37.0783 48.5,38.5 Z"/></g>
<g><path style="opacity:1" fill="#4f0d33" d="M 48.5,38.5 C 47.791,39.404 46.791,39.7373 45.5,39.5C 46.1054,37.5188 47.1054,37.1854 48.5,38.5 Z"/></g>
<g><path style="opacity:1" fill="#5d1843" d="M 49.5,46.5 C 51.8568,46.3367 54.1902,46.5034 56.5,47C 56.034,49.1233 54.8673,50.6233 53,51.5C 51.2158,50.6909 49.3825,50.0243 47.5,49.5C 45.1994,50.3958 42.8661,50.5625 40.5,50C 40.0426,49.586 39.7093,49.086 39.5,48.5C 42.9773,47.8328 46.3107,47.1661 49.5,46.5 Z"/></g>
<g><path style="opacity:1" fill="#71445a" d="M 46.5,52.5 C 48.1033,52.3118 49.4366,52.8118 50.5,54C 49.0654,53.6888 47.7321,53.8555 46.5,54.5C 45.537,54.0302 45.537,53.3635 46.5,52.5 Z"/></g>
<g><path style="opacity:0.004" fill="#56004e" d="M 31.5,81.5 C 30.8333,82.1667 30.8333,82.1667 31.5,81.5 Z"/></g>
</svg>
