<?xml version="1.0" encoding="UTF-8"?>
<!DOCTYPE svg PUBLIC "-//W3C//DTD SVG 1.1//EN" "http://www.w3.org/Graphics/SVG/1.1/DTD/svg11.dtd">
<svg xmlns="http://www.w3.org/2000/svg" version="1.1" width="96px" height="96px" style="shape-rendering:geometricPrecision; text-rendering:geometricPrecision; image-rendering:optimizeQuality; fill-rule:evenodd; clip-rule:evenodd" xmlns:xlink="http://www.w3.org/1999/xlink">
<g><path style="opacity:0.967" fill="#fecd04" d="M 37.5,-0.5 C 44.1667,-0.5 50.8333,-0.5 57.5,-0.5C 77.1667,5.16667 89.8333,17.8333 95.5,37.5C 95.5,42.5 95.5,47.5 95.5,52.5C 84.786,42.1179 74.1194,31.7845 63.5,21.5C 60.2263,17.2481 55.893,14.5814 50.5,13.5C 50.5,11.8333 50.5,10.1667 50.5,8.5C 48.5,8.5 46.5,8.5 44.5,8.5C 44.5,10.1667 44.5,11.8333 44.5,13.5C 35.1125,15.2651 30.1125,20.9318 29.5,30.5C 28.5,30.5 27.5,30.5 26.5,30.5C 26.5,33.1667 26.5,35.8333 26.5,38.5C 27.8333,38.5 29.1667,38.5 30.5,38.5C 31.3881,52.8255 32.2215,67.1588 33,81.5C 33.3826,82.056 33.8826,82.3893 34.5,82.5C 37.7683,87.1073 41.4349,91.4406 45.5,95.5C 42.8333,95.5 40.1667,95.5 37.5,95.5C 17.8333,89.8333 5.16667,77.1667 -0.5,57.5C -0.5,50.8333 -0.5,44.1667 -0.5,37.5C 5.16667,17.8333 17.8333,5.16667 37.5,-0.5 Z"/></g>
<g><path style="opacity:1" fill="#e8ecf3" d="M 63.5,21.5 C 64.9288,24.3084 65.5955,27.3084 65.5,30.5C 53.5,30.5 41.5,30.5 29.5,30.5C 30.1125,20.9318 35.1125,15.2651 44.5,13.5C 44.5,11.8333 44.5,10.1667 44.5,8.5C 46.5,8.5 48.5,8.5 50.5,8.5C 50.5,10.1667 50.5,11.8333 50.5,13.5C 55.893,14.5814 60.2263,17.2481 63.5,21.5 Z"/></g>
<g><path style="opacity:0.996" fill="#feaa02" d="M 63.5,21.5 C 74.1194,31.7845 84.786,42.1179 95.5,52.5C 95.5,54.1667 95.5,55.8333 95.5,57.5C 89.8333,77.1667 77.1667,89.8333 57.5,95.5C 53.5,95.5 49.5,95.5 45.5,95.5C 41.4349,91.4406 37.7683,87.1073 34.5,82.5C 43.6822,82.8266 52.6822,82.4933 61.5,81.5C 62.9827,67.3504 63.9827,53.0171 64.5,38.5C 65.8333,38.5 67.1667,38.5 68.5,38.5C 68.5,35.8333 68.5,33.1667 68.5,30.5C 67.5,30.5 66.5,30.5 65.5,30.5C 65.5955,27.3084 64.9288,24.3084 63.5,21.5 Z"/></g>
<g><path style="opacity:1" fill="#c7cad9" d="M 29.5,30.5 C 41.5,30.5 53.5,30.5 65.5,30.5C 66.5,30.5 67.5,30.5 68.5,30.5C 68.5,33.1667 68.5,35.8333 68.5,38.5C 67.1667,38.5 65.8333,38.5 64.5,38.5C 58.8333,38.5 53.1667,38.5 47.5,38.5C 41.8333,38.5 36.1667,38.5 30.5,38.5C 29.1667,38.5 27.8333,38.5 26.5,38.5C 26.5,35.8333 26.5,33.1667 26.5,30.5C 27.5,30.5 28.5,30.5 29.5,30.5 Z"/></g>
<g><path style="opacity:1" fill="#ff72a2" d="M 30.5,38.5 C 36.1667,38.5 41.8333,38.5 47.5,38.5C 47.2045,45.5878 47.5379,52.5878 48.5,59.5C 42.3574,60.0262 41.0241,62.8595 44.5,68C 45.7932,68.49 47.1266,68.6567 48.5,68.5C 47.564,72.7352 47.2307,77.0685 47.5,81.5C 52.1667,81.5 56.8333,81.5 61.5,81.5C 52.6822,82.4933 43.6822,82.8266 34.5,82.5C 33.8826,82.3893 33.3826,82.056 33,81.5C 32.2215,67.1588 31.3881,52.8255 30.5,38.5 Z"/></g>
<g><path style="opacity:1" fill="#fff5f8" d="M 36.5,51.5 C 41.3247,51.4881 43.4914,53.8214 43,58.5C 40.0485,62.4815 37.0485,62.4815 34,58.5C 33.3333,57.1667 33.3333,55.8333 34,54.5C 35.045,53.6266 35.8783,52.6266 36.5,51.5 Z"/></g>
<g><path style="opacity:1" fill="#fe458b" d="M 47.5,38.5 C 53.1667,38.5 58.8333,38.5 64.5,38.5C 63.9827,53.0171 62.9827,67.3504 61.5,81.5C 56.8333,81.5 52.1667,81.5 47.5,81.5C 47.2307,77.0685 47.564,72.7352 48.5,68.5C 52.1461,67.5385 53.3128,65.2051 52,61.5C 51.1841,60.1772 50.0174,59.5106 48.5,59.5C 47.5379,52.5878 47.2045,45.5878 47.5,38.5 Z"/></g>
<g><path style="opacity:1" fill="#e9ecf4" d="M 53.5,52.5 C 61.5432,52.0028 63.2099,54.8361 58.5,61C 51.4159,61.475 49.7492,58.6417 53.5,52.5 Z"/></g>
<g><path style="opacity:1" fill="#f1ecf3" d="M 48.5,59.5 C 50.0174,59.5106 51.1841,60.1772 52,61.5C 53.3128,65.2051 52.1461,67.5385 48.5,68.5C 47.1266,68.6567 45.7932,68.49 44.5,68C 41.0241,62.8595 42.3574,60.0262 48.5,59.5 Z"/></g>
<g><path style="opacity:1" fill="#fffafb" d="M 37.5,69.5 C 44.9974,68.8038 46.9974,71.6372 43.5,78C 36.7813,78.7259 34.7813,75.8925 37.5,69.5 Z"/></g>
<g><path style="opacity:1" fill="#e9eef5" d="M 51.5,69.5 C 58.6758,68.9846 60.3425,71.8179 56.5,78C 49.4159,78.475 47.7492,75.6417 51.5,69.5 Z"/></g>
</svg>
