<?xml version="1.0" encoding="UTF-8"?>
<!DOCTYPE svg PUBLIC "-//W3C//DTD SVG 1.1//EN" "http://www.w3.org/Graphics/SVG/1.1/DTD/svg11.dtd">
<svg xmlns="http://www.w3.org/2000/svg" version="1.1" width="96px" height="96px" style="shape-rendering:geometricPrecision; text-rendering:geometricPrecision; image-rendering:optimizeQuality; fill-rule:evenodd; clip-rule:evenodd" xmlns:xlink="http://www.w3.org/1999/xlink">
<g><path style="opacity:0.985" fill="#5f48ef" d="M 37.5,-0.5 C 44.1667,-0.5 50.8333,-0.5 57.5,-0.5C 77.1667,5.16667 89.8333,17.8333 95.5,37.5C 95.5,44.1667 95.5,50.8333 95.5,57.5C 94.8333,57.5 94.5,57.8333 94.5,58.5C 86.1534,46.8332 77.4867,35.4999 68.5,24.5C 63.5693,11.873 54.5693,6.87298 41.5,9.5C 33.4836,12.0172 28.3169,17.3505 26,25.5C 24.4007,41.6599 22.9007,57.8266 21.5,74C 21.8362,78.5119 23.8362,82.0119 27.5,84.5C 28.9131,87.6612 30.5797,90.6612 32.5,93.5C 15.1963,87.1995 4.1963,75.1995 -0.5,57.5C -0.5,50.5 -0.5,43.5 -0.5,36.5C 5.60508,17.3945 18.2717,5.0612 37.5,-0.5 Z"/></g>
<g><path style="opacity:1" fill="#fbfafd" d="M 41.5,9.5 C 44.1873,9.33591 46.854,9.50258 49.5,10C 47.5154,34.2714 46.8487,58.7714 47.5,83.5C 49.6907,82.7093 51.6907,82.7093 53.5,83.5C 48.9945,86.1176 44.4945,86.1176 40,83.5C 35.9117,85.492 31.745,85.8253 27.5,84.5C 23.8362,82.0119 21.8362,78.5119 21.5,74C 22.9007,57.8266 24.4007,41.6599 26,25.5C 28.3169,17.3505 33.4836,12.0172 41.5,9.5 Z"/></g>
<g><path style="opacity:1" fill="#636363" d="M 35.5,27.5 C 40.4202,26.7843 43.4202,28.7843 44.5,33.5C 43.6545,38.8439 40.6545,40.6773 35.5,39C 31.5548,35.1694 31.5548,31.3361 35.5,27.5 Z"/></g>
<g><path style="opacity:1" fill="#dddddd" d="M 37.5,29.5 C 41.3258,30.4796 41.3258,31.3129 37.5,32C 41.1906,33.6903 41.3573,35.5237 38,37.5C 36.9412,37.3699 36.1079,36.8699 35.5,36C 36.8333,35.6667 38.1667,35.3333 39.5,35C 35.7093,33.832 35.0426,31.9986 37.5,29.5 Z"/></g>
<g><path style="opacity:1" fill="#f2f2f3" d="M 41.5,9.5 C 54.5693,6.87298 63.5693,11.873 68.5,24.5C 70.6123,42.7425 71.779,61.0758 72,79.5C 70.7494,82.3807 68.5827,84.214 65.5,85C 61.3773,85.4366 57.3773,84.9366 53.5,83.5C 51.6907,82.7093 49.6907,82.7093 47.5,83.5C 46.8487,58.7714 47.5154,34.2714 49.5,10C 46.854,9.50258 44.1873,9.33591 41.5,9.5 Z"/></g>
<g><path style="opacity:1" fill="#393939" d="M 53.5,27.5 C 58.7134,26.7617 61.7134,28.9284 62.5,34C 61.4578,39.0232 58.4578,40.6899 53.5,39C 49.5548,35.1694 49.5548,31.3361 53.5,27.5 Z"/></g>
<g><path style="opacity:1" fill="#bcbcbc" d="M 54.5,29.5 C 59.8054,30.2414 61.1388,32.7414 58.5,37C 56.8659,37.4935 55.1992,37.6602 53.5,37.5C 53.2786,34.7212 53.612,32.0545 54.5,29.5 Z"/></g>
<g><path style="opacity:1" fill="#3c3c3c" d="M 55.5,31.5 C 57.9118,31.6941 58.9118,33.0274 58.5,35.5C 57.5,35.5 56.5,35.5 55.5,35.5C 55.5,34.1667 55.5,32.8333 55.5,31.5 Z"/></g>
<g><path style="opacity:0.966" fill="#4a38b8" d="M 68.5,24.5 C 77.4867,35.4999 86.1534,46.8332 94.5,58.5C 89.1343,77.8657 76.801,90.199 57.5,95.5C 50.8333,95.5 44.1667,95.5 37.5,95.5C 35.9724,94.6908 34.3057,94.0241 32.5,93.5C 30.5797,90.6612 28.9131,87.6612 27.5,84.5C 31.745,85.8253 35.9117,85.492 40,83.5C 44.4945,86.1176 48.9945,86.1176 53.5,83.5C 57.3773,84.9366 61.3773,85.4366 65.5,85C 68.5827,84.214 70.7494,82.3807 72,79.5C 71.779,61.0758 70.6123,42.7425 68.5,24.5 Z"/></g>
</svg>
