<?xml version="1.0" encoding="UTF-8"?>
<!DOCTYPE svg PUBLIC "-//W3C//DTD SVG 1.1//EN" "http://www.w3.org/Graphics/SVG/1.1/DTD/svg11.dtd">
<svg xmlns="http://www.w3.org/2000/svg" version="1.1" width="96px" height="96px" style="shape-rendering:geometricPrecision; text-rendering:geometricPrecision; image-rendering:optimizeQuality; fill-rule:evenodd; clip-rule:evenodd" xmlns:xlink="http://www.w3.org/1999/xlink">
<g><path style="opacity:0.984" fill="#2774c9" d="M 37.5,-0.5 C 44.1667,-0.5 50.8333,-0.5 57.5,-0.5C 77.1579,5.15793 89.8246,17.8246 95.5,37.5C 95.5,44.1667 95.5,50.8333 95.5,57.5C 89.8246,77.1754 77.1579,89.8421 57.5,95.5C 50.8333,95.5 44.1667,95.5 37.5,95.5C 18.2631,89.93 5.59648,77.5967 -0.5,58.5C -0.5,51.1667 -0.5,43.8333 -0.5,36.5C 5.59648,17.4033 18.2631,5.07001 37.5,-0.5 Z"/></g>
<g><path style="opacity:1" fill="#f5f8fc" d="M 35.5,13.5 C 36.4959,13.4142 37.3292,13.7476 38,14.5C 38.7975,16.2588 38.6309,17.9255 37.5,19.5C 18.5797,28.6751 13.0797,43.0084 21,62.5C 25.1288,68.7964 30.6288,73.4631 37.5,76.5C 38.9563,78.8779 38.6229,80.8779 36.5,82.5C 14.9606,72.7481 7.46059,56.4148 14,33.5C 18.8249,24.1703 25.9915,17.5036 35.5,13.5 Z"/></g>
<g><path style="opacity:1" fill="#f2f6fb" d="M 56.5,13.5 C 72.8669,18.8777 81.8669,30.2111 83.5,47.5C 82.2756,65.3677 73.2756,77.0343 56.5,82.5C 56.3379,80.4727 56.5045,78.4727 57,76.5C 75.8173,66.8469 81.1507,52.1802 73,32.5C 69.0294,26.5115 63.6961,22.1782 57,19.5C 56.5045,17.5273 56.3379,15.5273 56.5,13.5 Z"/></g>
<g><path style="opacity:1" fill="#f3f7fc" d="M 44.5,24.5 C 46.5,24.5 48.5,24.5 50.5,24.5C 50.2011,26.604 50.5344,28.604 51.5,30.5C 56.4062,31.7091 58.9062,34.7091 59,39.5C 58.1074,40.0814 57.1074,40.4148 56,40.5C 53.8693,39.4598 52.036,37.9598 50.5,36C 47.8333,35.3333 45.1667,35.3333 42.5,36C 39.8333,38.3333 39.8333,40.6667 42.5,43C 47.2073,44.1201 51.874,45.4534 56.5,47C 61.9775,52.89 61.6441,58.5567 55.5,64C 51.3971,64.7488 49.7304,67.2488 50.5,71.5C 48.5,71.5 46.5,71.5 44.5,71.5C 44.5,69.5 44.5,67.5 44.5,65.5C 37.8333,64.8333 34.1667,61.1667 33.5,54.5C 35.5273,54.3379 37.5273,54.5045 39.5,55C 40.13,56.892 41.13,58.5587 42.5,60C 46.3169,61.0234 49.8169,60.5234 53,58.5C 53.7581,56.2305 53.5914,54.0639 52.5,52C 48.5396,50.9087 44.5396,49.9087 40.5,49C 34.5333,45.6076 33.0333,40.7742 36,34.5C 38.3255,31.9892 41.1589,30.6559 44.5,30.5C 44.5,28.5 44.5,26.5 44.5,24.5 Z"/></g>
</svg>
