<?xml version="1.0" encoding="UTF-8"?>
<!DOCTYPE svg PUBLIC "-//W3C//DTD SVG 1.1//EN" "http://www.w3.org/Graphics/SVG/1.1/DTD/svg11.dtd">
<svg xmlns="http://www.w3.org/2000/svg" version="1.1" width="96px" height="96px" style="shape-rendering:geometricPrecision; text-rendering:geometricPrecision; image-rendering:optimizeQuality; fill-rule:evenodd; clip-rule:evenodd" xmlns:xlink="http://www.w3.org/1999/xlink">
<g><path style="opacity:0.995" fill="#fbfcfc" d="M -0.5,-0.5 C 31.5,-0.5 63.5,-0.5 95.5,-0.5C 95.5,16.5 95.5,33.5 95.5,50.5C 95.1667,50.5 94.8333,50.5 94.5,50.5C 92.787,46.0761 92.1204,41.4094 92.5,36.5C 90.5,36.5 88.5,36.5 86.5,36.5C 87.1637,34.1331 88.497,32.1331 90.5,30.5C 86.9218,26.6127 86.5885,22.446 89.5,18C 87.1316,16.6188 85.4649,14.6188 84.5,12C 81.1667,11.3333 77.8333,11.3333 74.5,12C 60.2772,15.8057 45.9438,19.139 31.5,22C 28.438,22.7415 25.438,22.5748 22.5,21.5C 21.3348,22.4911 20.1681,23.4911 19,24.5C 13.8635,22.7946 12.6969,24.1279 15.5,28.5C 13.8061,30.8606 11.8061,32.8606 9.5,34.5C 12.8618,36.8823 13.1951,39.549 10.5,42.5C 10.7093,43.086 11.0426,43.586 11.5,44C 7.72485,45.7699 4.05818,47.6033 0.5,49.5C 0.986763,53.7283 1.65343,57.895 2.5,62C 1.17723,62.8159 0.510559,63.9826 0.5,65.5C 0.166667,65.5 -0.166667,65.5 -0.5,65.5C -0.5,43.5 -0.5,21.5 -0.5,-0.5 Z"/></g>
<g><path style="opacity:0.996" fill="#fcfcfc" d="M 94.5,50.5 C 94.8333,50.5 95.1667,50.5 95.5,50.5C 95.5,65.5 95.5,80.5 95.5,95.5C 63.5,95.5 31.5,95.5 -0.5,95.5C -0.5,85.5 -0.5,75.5 -0.5,65.5C -0.166667,65.5 0.166667,65.5 0.5,65.5C 2.17885,65.8923 3.84552,66.3923 5.5,67C 5.04265,67.414 4.70931,67.914 4.5,68.5C 5.66667,68.8333 6.83333,69.1667 8,69.5C 10.8166,68.9695 13.65,68.6361 16.5,68.5C 19.1881,71.3376 20.8548,74.8376 21.5,79C 24.0627,80.0793 26.7294,80.5793 29.5,80.5C 29.5,81.5 29.5,82.5 29.5,83.5C 49.8416,76.0987 69.8416,67.5987 89.5,58C 91.6243,55.7693 93.291,53.2693 94.5,50.5 Z"/></g>
<g><path style="opacity:1" fill="#1b1615" d="M 94.5,50.5 C 93.291,53.2693 91.6243,55.7693 89.5,58C 69.8416,67.5987 49.8416,76.0987 29.5,83.5C 29.5,82.5 29.5,81.5 29.5,80.5C 26.7294,80.5793 24.0627,80.0793 21.5,79C 20.8548,74.8376 19.1881,71.3376 16.5,68.5C 13.65,68.6361 10.8166,68.9695 8,69.5C 6.83333,69.1667 5.66667,68.8333 4.5,68.5C 4.70931,67.914 5.04265,67.414 5.5,67C 3.84552,66.3923 2.17885,65.8923 0.5,65.5C 0.510559,63.9826 1.17723,62.8159 2.5,62C 1.65343,57.895 0.986763,53.7283 0.5,49.5C 4.05818,47.6033 7.72485,45.7699 11.5,44C 11.0426,43.586 10.7093,43.086 10.5,42.5C 13.1951,39.549 12.8618,36.8823 9.5,34.5C 11.8061,32.8606 13.8061,30.8606 15.5,28.5C 12.6969,24.1279 13.8635,22.7946 19,24.5C 20.1681,23.4911 21.3348,22.4911 22.5,21.5C 25.438,22.5748 28.438,22.7415 31.5,22C 45.9438,19.139 60.2772,15.8057 74.5,12C 77.8333,11.3333 81.1667,11.3333 84.5,12C 85.4649,14.6188 87.1316,16.6188 89.5,18C 86.5885,22.446 86.9218,26.6127 90.5,30.5C 88.497,32.1331 87.1637,34.1331 86.5,36.5C 88.5,36.5 90.5,36.5 92.5,36.5C 92.1204,41.4094 92.787,46.0761 94.5,50.5 Z"/></g>
<g><path style="opacity:1" fill="#863b2f" d="M 72.5,47.5 C 64.7742,51.8595 56.4409,54.8595 47.5,56.5C 46.7573,57.1818 46.0906,57.8485 45.5,58.5C 42.3915,58.7359 39.3915,58.4025 36.5,57.5C 37.1098,56.609 37.4431,55.609 37.5,54.5C 37.8333,54.5 38.1667,54.5 38.5,54.5C 38.4701,55.4972 38.9701,56.1639 40,56.5C 42.6538,55.1328 45.4871,54.1328 48.5,53.5C 49.9337,52.7702 51.1004,51.7702 52,50.5C 52.414,50.9574 52.914,51.2907 53.5,51.5C 58.8288,49.8338 64.1621,48.1671 69.5,46.5C 70.7261,46.5195 71.7261,46.8529 72.5,47.5 Z"/></g>
<g><path style="opacity:1" fill="#9c7531" d="M 16.5,46.5 C 18.1288,47.6253 19.6288,48.9586 21,50.5C 21.4643,49.9056 21.631,49.2389 21.5,48.5C 25.0749,50.3587 28.7415,52.0254 32.5,53.5C 33.4916,53.3284 34.1583,53.6618 34.5,54.5C 32.901,54.2322 31.5676,54.5655 30.5,55.5C 28.4352,55.5172 26.4352,55.8505 24.5,56.5C 24.8333,55.8333 25.1667,55.1667 25.5,54.5C 26.0431,54.44 26.3764,54.1067 26.5,53.5C 25.3717,52.7379 24.2051,52.0712 23,51.5C 22.2599,52.7494 22.4265,53.7494 23.5,54.5C 23.1583,55.3382 22.4916,55.6716 21.5,55.5C 20.6192,51.9578 18.6192,49.2911 15.5,47.5C 16.1667,47.5 16.5,47.1667 16.5,46.5 Z"/></g>
<g><path style="opacity:1" fill="#63281e" d="M 82.5,36.5 C 84.3224,36.8308 85.9891,37.4975 87.5,38.5C 86.791,39.404 85.791,39.7373 84.5,39.5C 84.5,40.5 84.5,41.5 84.5,42.5C 82.8561,42.7135 81.3561,42.3802 80,41.5C 78.764,43.5384 76.9306,44.7051 74.5,45C 75.056,45.3826 75.3893,45.8826 75.5,46.5C 74.391,46.5569 73.391,46.8902 72.5,47.5C 71.7261,46.8529 70.7261,46.5195 69.5,46.5C 64.1621,48.1671 58.8288,49.8338 53.5,51.5C 52.914,51.2907 52.414,50.9574 52,50.5C 51.1004,51.7702 49.9337,52.7702 48.5,53.5C 45.4871,54.1328 42.6538,55.1328 40,56.5C 38.9701,56.1639 38.4701,55.4972 38.5,54.5C 38.4142,53.5041 38.7476,52.6708 39.5,52C 53.9046,46.7013 68.2379,41.5347 82.5,36.5 Z"/></g>
<g><path style="opacity:1" fill="#6e4d1c" d="M 19.5,43.5 C 20.4408,45.0495 21.1075,46.7162 21.5,48.5C 19.3176,47.1767 18.6509,45.5101 19.5,43.5 Z"/></g>
<g><path style="opacity:1" fill="#f4d665" d="M 27.5,24.5 C 27.5,25.1667 27.8333,25.5 28.5,25.5C 29.3007,27.0418 29.634,28.7085 29.5,30.5C 32.5037,32.1864 35.1703,34.1864 37.5,36.5C 35.9735,37.4919 35.3068,38.9919 35.5,41C 35.6083,42.6811 36.2749,43.8478 37.5,44.5C 39.1033,44.3118 40.4366,44.8118 41.5,46C 39.5087,46.3736 37.842,47.207 36.5,48.5C 34.9458,49.9142 33.6125,51.5808 32.5,53.5C 28.7415,52.0254 25.0749,50.3587 21.5,48.5C 21.1075,46.7162 20.4408,45.0495 19.5,43.5C 18.6314,41.283 18.298,38.9496 18.5,36.5C 19.0823,33.7276 20.0823,31.0609 21.5,28.5C 21.5,27.8333 21.5,27.1667 21.5,26.5C 22.5327,23.4008 24.5327,22.7341 27.5,24.5 Z"/></g>
<g><path style="opacity:1" fill="#81622a" d="M 29.5,31.5 C 34.7475,34.9738 35.9142,39.6404 33,45.5C 28.0078,51.3242 24.5078,50.6576 22.5,43.5C 22.4084,40.6729 23.5751,38.6729 26,37.5C 29.8518,39.2309 30.3518,41.5642 27.5,44.5C 26.5,44.1667 25.8333,43.5 25.5,42.5C 29.1794,42.5161 29.346,41.1828 26,38.5C 24.4597,40.9546 24.1264,43.6213 25,46.5C 30.3165,47.6974 32.8165,45.3641 32.5,39.5C 32.4168,36.4415 31.4168,33.7748 29.5,31.5 Z"/></g>
<g><path style="opacity:1" fill="#eb943d" d="M 37.5,36.5 C 37.8212,38.0481 38.8212,38.7148 40.5,38.5C 38.6833,40.0122 37.6833,42.0122 37.5,44.5C 36.2749,43.8478 35.6083,42.6811 35.5,41C 35.3068,38.9919 35.9735,37.4919 37.5,36.5 Z"/></g>
<g><path style="opacity:1" fill="#2f130e" d="M 82.5,35.5 C 82.5,35.8333 82.5,36.1667 82.5,36.5C 68.2379,41.5347 53.9046,46.7013 39.5,52C 38.7476,52.6708 38.4142,53.5041 38.5,54.5C 38.1667,54.5 37.8333,54.5 37.5,54.5C 36.5,54.5 35.5,54.5 34.5,54.5C 34.1583,53.6618 33.4916,53.3284 32.5,53.5C 33.6125,51.5808 34.9458,49.9142 36.5,48.5C 36.542,49.479 36.542,50.479 36.5,51.5C 51.7349,45.8587 67.0683,40.5254 82.5,35.5 Z"/></g>
<g><path style="opacity:1" fill="#884135" d="M 56.5,25.5 C 56.5299,26.4972 56.0299,27.1639 55,27.5C 50.9084,27.9813 47.075,29.148 43.5,31C 45.0349,31.4962 46.5349,31.3295 48,30.5C 48.5,30.8333 49,31.1667 49.5,31.5C 48.8333,32.1667 48.1667,32.8333 47.5,33.5C 48,33.8333 48.5,34.1667 49,34.5C 52.6509,32.814 56.4842,31.814 60.5,31.5C 60.3893,32.1174 60.056,32.6174 59.5,33C 53.3297,35.2704 46.9964,37.1037 40.5,38.5C 38.8212,38.7148 37.8212,38.0481 37.5,36.5C 39.1436,36.1898 40.1436,35.1898 40.5,33.5C 42.1942,34.686 43.8608,34.5193 45.5,33C 42.3253,32.5068 39.6586,31.3402 37.5,29.5C 39.205,28.4647 40.8716,28.4647 42.5,29.5C 46.838,27.032 51.5047,25.6987 56.5,25.5 Z"/></g>
<g><path style="opacity:1" fill="#62291e" d="M 85.5,24.5 C 85.5394,25.5832 85.8728,26.5832 86.5,27.5C 83.54,31.0893 84.2067,32.2559 88.5,31C 86.34,32.332 84.34,33.832 82.5,35.5C 67.0683,40.5254 51.7349,45.8587 36.5,51.5C 36.542,50.479 36.542,49.479 36.5,48.5C 37.842,47.207 39.5087,46.3736 41.5,46C 40.4366,44.8118 39.1033,44.3118 37.5,44.5C 37.6833,42.0122 38.6833,40.0122 40.5,38.5C 46.9964,37.1037 53.3297,35.2704 59.5,33C 60.056,32.6174 60.3893,32.1174 60.5,31.5C 65.5025,30.6115 70.1692,28.9448 74.5,26.5C 75.4959,26.4142 76.3292,26.7476 77,27.5C 79.6895,26.0635 82.5228,25.0635 85.5,24.5 Z"/></g>
<g><path style="opacity:1" fill="#e98f3c" d="M 28.5,25.5 C 31.4067,25.5752 34.0734,26.4086 36.5,28C 35.5,29 34.5,30 33.5,31C 35.7094,32.1437 38.0428,32.977 40.5,33.5C 40.1436,35.1898 39.1436,36.1898 37.5,36.5C 35.1703,34.1864 32.5037,32.1864 29.5,30.5C 29.634,28.7085 29.3007,27.0418 28.5,25.5 Z"/></g>
<g><path style="opacity:1" fill="#87662c" d="M 21.5,28.5 C 20.0823,31.0609 19.0823,33.7276 18.5,36.5C 17.441,34.274 17.6077,31.9406 19,29.5C 19.6708,28.7476 20.5041,28.4142 21.5,28.5 Z"/></g>
<g><path style="opacity:1" fill="#ebc052" d="M 21.5,26.5 C 21.5,27.1667 21.5,27.8333 21.5,28.5C 20.5041,28.4142 19.6708,28.7476 19,29.5C 17.6077,31.9406 17.441,34.274 18.5,36.5C 18.298,38.9496 18.6314,41.283 19.5,43.5C 18.6509,45.5101 19.3176,47.1767 21.5,48.5C 21.631,49.2389 21.4643,49.9056 21,50.5C 19.6288,48.9586 18.1288,47.6253 16.5,46.5C 15.5213,44.8546 14.188,43.5213 12.5,42.5C 15.1951,39.549 14.8618,36.8823 11.5,34.5C 13.1487,33.3523 14.6487,32.019 16,30.5C 16.3052,28.4432 16.3052,26.4432 16,24.5C 17.5843,25.8613 19.4176,26.528 21.5,26.5 Z"/></g>
<g><path style="opacity:1" fill="#795524" d="M 29.5,30.5 C 29.5,30.8333 29.5,31.1667 29.5,31.5C 25.3174,30.8456 22.484,32.5123 21,36.5C 21.4942,31.1712 24.3276,29.1712 29.5,30.5 Z"/></g>
<g><path style="opacity:1" fill="#49231b" d="M 41.5,21.5 C 40.0262,22.6751 38.3596,23.6751 36.5,24.5C 40.0409,25.3215 43.3743,25.3215 46.5,24.5C 43.0925,25.6186 40.0925,27.2852 37.5,29.5C 39.6586,31.3402 42.3253,32.5068 45.5,33C 43.8608,34.5193 42.1942,34.686 40.5,33.5C 38.0428,32.977 35.7094,32.1437 33.5,31C 34.5,30 35.5,29 36.5,28C 34.0734,26.4086 31.4067,25.5752 28.5,25.5C 27.8333,25.5 27.5,25.1667 27.5,24.5C 32.1606,23.5028 36.8273,22.5028 41.5,21.5 Z"/></g>
<g><path style="opacity:1" fill="#b34458" d="M 74.5,26.5 C 70.1692,28.9448 65.5025,30.6115 60.5,31.5C 56.4842,31.814 52.6509,32.814 49,34.5C 48.5,34.1667 48,33.8333 47.5,33.5C 48.1667,32.8333 48.8333,32.1667 49.5,31.5C 49,31.1667 48.5,30.8333 48,30.5C 46.5349,31.3295 45.0349,31.4962 43.5,31C 47.075,29.148 50.9084,27.9813 55,27.5C 56.0299,27.1639 56.5299,26.4972 56.5,25.5C 57.5,25.5 58.5,25.5 59.5,25.5C 64.86,25.4941 70.0266,24.4941 75,22.5C 75.8333,22.8333 76.6667,23.1667 77.5,23.5C 76.6602,24.735 75.6602,25.735 74.5,26.5 Z"/></g>
<g><path style="opacity:1" fill="#682a1f" d="M 82.5,17.5 C 78.843,19.3852 75.0097,21.0519 71,22.5C 69.3333,22.1667 67.6667,21.8333 66,21.5C 63.9052,23.1247 61.7385,24.4581 59.5,25.5C 58.5,25.5 57.5,25.5 56.5,25.5C 51.5047,25.6987 46.838,27.032 42.5,29.5C 40.8716,28.4647 39.205,28.4647 37.5,29.5C 40.0925,27.2852 43.0925,25.6186 46.5,24.5C 43.3743,25.3215 40.0409,25.3215 36.5,24.5C 38.3596,23.6751 40.0262,22.6751 41.5,21.5C 55.3364,17.8594 69.3364,14.8594 83.5,12.5C 83.3713,14.2161 83.038,15.8828 82.5,17.5 Z"/></g>
<g><path style="opacity:1" fill="#863f33" d="M 85.5,24.5 C 82.5228,25.0635 79.6895,26.0635 77,27.5C 76.3292,26.7476 75.4959,26.4142 74.5,26.5C 75.6602,25.735 76.6602,24.735 77.5,23.5C 76.6667,23.1667 75.8333,22.8333 75,22.5C 70.0266,24.4941 64.86,25.4941 59.5,25.5C 61.7385,24.4581 63.9052,23.1247 66,21.5C 67.6667,21.8333 69.3333,22.1667 71,22.5C 75.0097,21.0519 78.843,19.3852 82.5,17.5C 84.5983,16.0374 86.5983,16.2041 88.5,18C 86.9777,19.9162 85.9777,22.0829 85.5,24.5 Z"/></g>
<g><path style="opacity:1" fill="#f8d25e" d="M 25.5,54.5 C 24.8333,54.5 24.1667,54.5 23.5,54.5C 22.4265,53.7494 22.2599,52.7494 23,51.5C 24.2051,52.0712 25.3717,52.7379 26.5,53.5C 26.3764,54.1067 26.0431,54.44 25.5,54.5 Z"/></g>
<g><path style="opacity:1" fill="#b4435b" d="M 46.5,59.5 C 46.5,58.8333 46.1667,58.5 45.5,58.5C 46.0906,57.8485 46.7573,57.1818 47.5,56.5C 56.4409,54.8595 64.7742,51.8595 72.5,47.5C 73.391,46.8902 74.391,46.5569 75.5,46.5C 78.9793,46.0037 82.3127,45.0037 85.5,43.5C 86.731,44.6507 86.731,45.8173 85.5,47C 83.3904,47.5544 81.3904,48.3877 79.5,49.5C 78.4461,49.3201 77.4461,48.9867 76.5,48.5C 72.3318,50.7497 68.3318,53.2497 64.5,56C 59.6533,57.2427 54.82,58.7427 50,60.5C 48.7441,60.3517 47.5774,60.0184 46.5,59.5 Z"/></g>
<g><path style="opacity:1" fill="#f5ce59" d="M 30.5,55.5 C 31.5,55.5 32.5,55.5 33.5,55.5C 33.2291,57.3797 33.8958,58.713 35.5,59.5C 37.7267,61.2287 38.7267,63.562 38.5,66.5C 38.1667,66.5 37.8333,66.5 37.5,66.5C 37.7271,64.0672 36.7271,62.4006 34.5,61.5C 34.1667,60.5 33.5,59.8333 32.5,59.5C 29.9697,58.2243 27.3031,58.2243 24.5,59.5C 23.7025,59.0431 23.3691,58.3764 23.5,57.5C 23.5,56.8333 23.8333,56.5 24.5,56.5C 26.4352,55.8505 28.4352,55.5172 30.5,55.5 Z"/></g>
<g><path style="opacity:1" fill="#1f0d06" d="M 23.5,54.5 C 24.1667,54.5 24.8333,54.5 25.5,54.5C 25.1667,55.1667 24.8333,55.8333 24.5,56.5C 23.8333,56.5 23.5,56.8333 23.5,57.5C 22.6618,57.8417 22.3284,58.5084 22.5,59.5C 21.8333,59.5 21.5,59.1667 21.5,58.5C 21.5,57.5 21.5,56.5 21.5,55.5C 22.4916,55.6716 23.1583,55.3382 23.5,54.5 Z"/></g>
<g><path style="opacity:1" fill="#e68a3b" d="M 30.5,55.5 C 31.5676,54.5655 32.901,54.2322 34.5,54.5C 35.5,54.5 36.5,54.5 37.5,54.5C 37.4431,55.609 37.1098,56.609 36.5,57.5C 35.6618,57.8417 35.3284,58.5084 35.5,59.5C 33.8958,58.713 33.2291,57.3797 33.5,55.5C 32.5,55.5 31.5,55.5 30.5,55.5 Z"/></g>
<g><path style="opacity:1" fill="#664a1a" d="M 32.5,59.5 C 33.5,59.8333 34.1667,60.5 34.5,61.5C 32.1667,60.1667 29.8333,60.1667 27.5,61.5C 28.6354,59.7868 30.302,59.1201 32.5,59.5 Z"/></g>
<g><path style="opacity:1" fill="#715124" d="M 16.5,58.5 C 14.9639,61.0922 12.6305,62.0922 9.5,61.5C 9.5,61.1667 9.5,60.8333 9.5,60.5C 11.1439,60.7135 12.6439,60.3802 14,59.5C 14.2395,57.2388 14.4062,55.2388 14.5,53.5C 16.2174,54.6685 16.8841,56.3352 16.5,58.5 Z"/></g>
<g><path style="opacity:1" fill="#7b5221" d="M 21.5,58.5 C 21.5,59.1667 21.8333,59.5 22.5,59.5C 21.6016,60.1577 20.6016,60.8243 19.5,61.5C 20.3629,62.7264 20.3629,64.0597 19.5,65.5C 18.8333,65.5 18.1667,65.5 17.5,65.5C 18.8146,63.8653 18.8146,62.1986 17.5,60.5C 18.7658,59.6376 20.0992,58.9709 21.5,58.5 Z"/></g>
<g><path style="opacity:1" fill="#90433a" d="M 87.5,38.5 C 88.5,38.5 89.5,38.5 90.5,38.5C 90.9065,41.7188 90.9065,44.7188 90.5,47.5C 76.5353,52.2421 62.8686,57.7421 49.5,64C 47.1667,64.6667 44.8333,64.6667 42.5,64C 44.0414,62.6288 45.3747,61.1288 46.5,59.5C 47.5774,60.0184 48.7441,60.3517 50,60.5C 54.82,58.7427 59.6533,57.2427 64.5,56C 68.3318,53.2497 72.3318,50.7497 76.5,48.5C 77.4461,48.9867 78.4461,49.3201 79.5,49.5C 81.3904,48.3877 83.3904,47.5544 85.5,47C 86.731,45.8173 86.731,44.6507 85.5,43.5C 82.3127,45.0037 78.9793,46.0037 75.5,46.5C 75.3893,45.8826 75.056,45.3826 74.5,45C 76.9306,44.7051 78.764,43.5384 80,41.5C 81.3561,42.3802 82.8561,42.7135 84.5,42.5C 84.5,41.5 84.5,40.5 84.5,39.5C 85.791,39.7373 86.791,39.404 87.5,38.5 Z"/></g>
<g><path style="opacity:1" fill="#f3d35f" d="M 10.5,47.5 C 11.1577,48.3984 11.8243,49.3984 12.5,50.5C 14.8507,49.2865 16.684,49.9532 18,52.5C 18.1206,54.6843 17.6206,56.6843 16.5,58.5C 16.8841,56.3352 16.2174,54.6685 14.5,53.5C 14.4062,55.2388 14.2395,57.2388 14,59.5C 12.6439,60.3802 11.1439,60.7135 9.5,60.5C 9.5,60.8333 9.5,61.1667 9.5,61.5C 10.6085,62.29 11.9419,62.79 13.5,63C 12.1667,64 12.1667,65 13.5,66C 11.5826,65.9725 9.91596,65.1392 8.5,63.5C 7.70696,64.3554 8.0403,65.1887 9.5,66C 8.90558,66.4643 8.23891,66.631 7.5,66.5C 6.31924,64.9328 4.65257,64.0995 2.5,64C 3.80855,59.8643 3.80855,55.6976 2.5,51.5C 3.32496,50.6143 4.32496,50.281 5.5,50.5C 5.35055,49.448 5.51722,48.448 6,47.5C 7.49022,48.7279 8.99022,48.7279 10.5,47.5 Z"/></g>
<g><path style="opacity:1" fill="#927234" d="M 9.5,60.5 C 8.21297,59.2317 7.21297,59.565 6.5,61.5C 6.16667,60.8333 5.83333,60.1667 5.5,59.5C 5.85151,58.2141 6.51818,57.3808 7.5,57C 4.83728,54.6433 5.00394,52.4767 8,50.5C 6.9691,55.3776 7.9691,55.7109 11,51.5C 11.3334,53.0468 10.8334,54.3801 9.5,55.5C 10.5,55.5 11.5,55.5 12.5,55.5C 11.4457,57.2012 10.4457,58.8679 9.5,60.5 Z"/></g>
<g><path style="opacity:1" fill="#edbe56" d="M 10.5,47.5 C 11.9989,46.506 13.6656,46.506 15.5,47.5C 18.6192,49.2911 20.6192,51.9578 21.5,55.5C 21.5,56.5 21.5,57.5 21.5,58.5C 20.0992,58.9709 18.7658,59.6376 17.5,60.5C 18.8146,62.1986 18.8146,63.8653 17.5,65.5C 14.2885,67.6528 10.9552,67.9862 7.5,66.5C 8.23891,66.631 8.90558,66.4643 9.5,66C 8.0403,65.1887 7.70696,64.3554 8.5,63.5C 9.91596,65.1392 11.5826,65.9725 13.5,66C 12.1667,65 12.1667,64 13.5,63C 11.9419,62.79 10.6085,62.29 9.5,61.5C 12.6305,62.0922 14.9639,61.0922 16.5,58.5C 17.6206,56.6843 18.1206,54.6843 18,52.5C 16.684,49.9532 14.8507,49.2865 12.5,50.5C 11.8243,49.3984 11.1577,48.3984 10.5,47.5 Z"/></g>
<g><path style="opacity:1" fill="#835e20" d="M 34.5,61.5 C 36.7271,62.4006 37.7271,64.0672 37.5,66.5C 36.1103,65.1007 35.1103,63.4341 34.5,61.5 Z"/></g>
<g><path style="opacity:1" fill="#60291d" d="M 90.5,47.5 C 91.2778,48.1556 91.9444,48.9889 92.5,50C 91.1663,52.3864 89.833,54.7197 88.5,57C 75.162,63.5643 61.4954,69.5643 47.5,75C 45.5527,75.9913 43.5527,76.3247 41.5,76C 44.5244,74.4866 47.1911,72.4866 49.5,70C 47.2846,70.7559 44.9512,71.5892 42.5,72.5C 41.4138,72.38 40.7472,71.7133 40.5,70.5C 41.3599,68.7284 42.6932,67.3951 44.5,66.5C 39.5523,65.5485 39.2189,63.7152 43.5,61C 40.8832,60.1785 38.2165,59.6785 35.5,59.5C 35.3284,58.5084 35.6618,57.8417 36.5,57.5C 39.3915,58.4025 42.3915,58.7359 45.5,58.5C 46.1667,58.5 46.5,58.8333 46.5,59.5C 45.3747,61.1288 44.0414,62.6288 42.5,64C 44.8333,64.6667 47.1667,64.6667 49.5,64C 62.8686,57.7421 76.5353,52.2421 90.5,47.5 Z"/></g>
<g><path style="opacity:1" fill="#f5d86a" d="M 34.5,61.5 C 35.1103,63.4341 36.1103,65.1007 37.5,66.5C 37.683,68.9363 37.0163,71.103 35.5,73C 33.2388,73.2395 31.2388,73.4062 29.5,73.5C 32.041,76.1003 34.541,76.1003 37,73.5C 38.2022,71.3225 38.7022,68.9892 38.5,66.5C 39.2389,66.369 39.9056,66.5357 40.5,67C 39.5399,70.73 39.2065,74.5633 39.5,78.5C 39.1667,78.5 38.8333,78.5 38.5,78.5C 36.0872,76.9493 33.4206,76.2826 30.5,76.5C 28.6675,75.7515 27.0009,74.7515 25.5,73.5C 23.0386,69.6299 22.8719,65.6299 25,61.5C 26.1449,68.1362 26.9782,68.1362 27.5,61.5C 29.8333,60.1667 32.1667,60.1667 34.5,61.5 Z"/></g>
<g><path style="opacity:1" fill="#e4a247" d="M 35.5,59.5 C 38.2165,59.6785 40.8832,60.1785 43.5,61C 39.2189,63.7152 39.5523,65.5485 44.5,66.5C 42.6932,67.3951 41.3599,68.7284 40.5,70.5C 40.7472,71.7133 41.4138,72.38 42.5,72.5C 41.2008,74.4123 40.2008,76.4123 39.5,78.5C 39.2065,74.5633 39.5399,70.73 40.5,67C 39.9056,66.5357 39.2389,66.369 38.5,66.5C 38.7267,63.562 37.7267,61.2287 35.5,59.5 Z"/></g>
<g><path style="opacity:1" fill="#8e6e2f" d="M 30.5,65.5 C 31.7082,64.218 33.0416,64.218 34.5,65.5C 36.8264,71.845 35.1597,73.5117 29.5,70.5C 30.5575,70.0941 31.8908,70.0941 33.5,70.5C 33.5,68.8333 33.5,67.1667 33.5,65.5C 32.5,65.5 31.5,65.5 30.5,65.5 Z"/></g>
<g><path style="opacity:1" fill="#786029" d="M 37.5,66.5 C 37.8333,66.5 38.1667,66.5 38.5,66.5C 38.7022,68.9892 38.2022,71.3225 37,73.5C 34.541,76.1003 32.041,76.1003 29.5,73.5C 31.2388,73.4062 33.2388,73.2395 35.5,73C 37.0163,71.103 37.683,68.9363 37.5,66.5 Z"/></g>
<g><path style="opacity:1" fill="#876328" d="M 25.5,73.5 C 27.0009,74.7515 28.6675,75.7515 30.5,76.5C 27.7647,77.8211 26.0981,76.8211 25.5,73.5 Z"/></g>
<g><path style="opacity:1" fill="#e6bf52" d="M 23.5,57.5 C 23.3691,58.3764 23.7025,59.0431 24.5,59.5C 27.3031,58.2243 29.9697,58.2243 32.5,59.5C 30.302,59.1201 28.6354,59.7868 27.5,61.5C 26.9782,68.1362 26.1449,68.1362 25,61.5C 22.8719,65.6299 23.0386,69.6299 25.5,73.5C 26.0981,76.8211 27.7647,77.8211 30.5,76.5C 33.4206,76.2826 36.0872,76.9493 38.5,78.5C 36.9537,79.8598 35.1204,80.8598 33,81.5C 29.6298,79.944 26.1298,78.6106 22.5,77.5C 22.1203,75.9793 21.9536,74.3126 22,72.5C 20.702,71.4404 19.5353,70.2737 18.5,69C 18.9891,67.8615 19.3225,66.6948 19.5,65.5C 20.3629,64.0597 20.3629,62.7264 19.5,61.5C 20.6016,60.8243 21.6016,60.1577 22.5,59.5C 22.3284,58.5084 22.6618,57.8417 23.5,57.5 Z"/></g>
</svg>
