<?xml version="1.0" encoding="UTF-8"?>
<!DOCTYPE svg PUBLIC "-//W3C//DTD SVG 1.1//EN" "http://www.w3.org/Graphics/SVG/1.1/DTD/svg11.dtd">
<svg xmlns="http://www.w3.org/2000/svg" version="1.1" width="96px" height="96px" style="shape-rendering:geometricPrecision; text-rendering:geometricPrecision; image-rendering:optimizeQuality; fill-rule:evenodd; clip-rule:evenodd" xmlns:xlink="http://www.w3.org/1999/xlink">
<g><path style="opacity:0.998" fill="#010101" d="M -0.5,-0.5 C 31.5,-0.5 63.5,-0.5 95.5,-0.5C 95.5,31.5 95.5,63.5 95.5,95.5C 63.5,95.5 31.5,95.5 -0.5,95.5C -0.5,63.5 -0.5,31.5 -0.5,-0.5 Z"/></g>
<g><path style="opacity:1" fill="#b7b4b6" d="M 34.5,44.5 C 28.3306,44.9185 22.3306,45.5851 16.5,46.5C 15.2101,45.9423 14.3768,44.9423 14,43.5C 12.1417,36.3826 14.6417,31.5492 21.5,29C 29.5278,27.2559 36.5278,29.0893 42.5,34.5C 40.8333,35.8333 39.1667,37.1667 37.5,38.5C 32.1016,35.133 26.6016,34.7997 21,37.5C 20.2888,39.3668 20.7888,40.8668 22.5,42C 26.6092,42.9443 30.6092,43.7776 34.5,44.5 Z"/></g>
<g><path style="opacity:1" fill="#aeadb0" d="M 67.5,42.5 C 61.1667,43.8333 54.8333,43.8333 48.5,42.5C 50.1455,40.1878 52.1455,38.1878 54.5,36.5C 59.0437,38.2752 63.3771,40.2752 67.5,42.5 Z"/></g>
<g><path style="opacity:1" fill="#e1e1e1" d="M 48.5,42.5 C 54.8333,43.8333 61.1667,43.8333 67.5,42.5C 72.3584,43.5943 77.0251,45.2609 81.5,47.5C 72.59,51.3596 63.59,55.0263 54.5,58.5C 51.4802,55.811 48.4802,53.1444 45.5,50.5C 44.791,49.596 43.791,49.2627 42.5,49.5C 42.5,50.5 42.5,51.5 42.5,52.5C 40.1137,52.2587 38.1137,52.9254 36.5,54.5C 35.657,52.8267 34.3237,51.66 32.5,51C 29.1667,50.6667 25.8333,50.3333 22.5,50C 20.0904,49.4005 18.0904,48.2338 16.5,46.5C 22.3306,45.5851 28.3306,44.9185 34.5,44.5C 39.4671,45.038 44.1338,44.3713 48.5,42.5 Z"/></g>
<g><path style="opacity:1" fill="#9b989b" d="M 45.5,50.5 C 43.8521,53.7945 42.6854,57.4612 42,61.5C 40.2691,63.6166 38.1024,65.1166 35.5,66C 30.8333,66.6667 26.1667,66.6667 21.5,66C 18.0838,64.75 15.4172,62.5833 13.5,59.5C 14.5,57.8333 15.8333,56.5 17.5,55.5C 22.2723,59.0887 27.6056,60.2554 33.5,59C 35.1412,57.871 36.1412,56.371 36.5,54.5C 38.1137,52.9254 40.1137,52.2587 42.5,52.5C 42.5,51.5 42.5,50.5 42.5,49.5C 43.791,49.2627 44.791,49.596 45.5,50.5 Z"/></g>
</svg>
