<?xml version="1.0" encoding="UTF-8"?>
<!DOCTYPE svg PUBLIC "-//W3C//DTD SVG 1.1//EN" "http://www.w3.org/Graphics/SVG/1.1/DTD/svg11.dtd">
<svg xmlns="http://www.w3.org/2000/svg" version="1.1" width="96px" height="96px" style="shape-rendering:geometricPrecision; text-rendering:geometricPrecision; image-rendering:optimizeQuality; fill-rule:evenodd; clip-rule:evenodd" xmlns:xlink="http://www.w3.org/1999/xlink">
<g><path style="opacity:1" fill="#59a0ee" d="M -0.5,-0.5 C 31.5,-0.5 63.5,-0.5 95.5,-0.5C 95.5,31.5 95.5,63.5 95.5,95.5C 63.5,95.5 31.5,95.5 -0.5,95.5C -0.5,63.5 -0.5,31.5 -0.5,-0.5 Z"/></g>
<g><path style="opacity:1" fill="#020203" d="M 77.5,37.5 C 70.0839,34.5733 62.7506,31.24 55.5,27.5C 54.0787,24.9906 52.4121,22.6572 50.5,20.5C 48.4565,22.208 46.7899,24.208 45.5,26.5C 47.5,32.5 51.5,36.5 57.5,38.5C 64.117,41.861 70.7837,42.1944 77.5,39.5C 77.5211,42.5348 78.8545,44.8681 81.5,46.5C 80.1667,48.5 78.8333,50.5 77.5,52.5C 76.3112,53.4287 74.9778,53.762 73.5,53.5C 73.5,54.8333 73.5,56.1667 73.5,57.5C 74.8333,57.5 76.1667,57.5 77.5,57.5C 77.5,58.5 77.5,59.5 77.5,60.5C 76.1667,60.5 74.8333,60.5 73.5,60.5C 73.5,63.1667 73.5,65.8333 73.5,68.5C 74.8333,68.5 76.1667,68.5 77.5,68.5C 77.5,69.5 77.5,70.5 77.5,71.5C 75.1667,71.5 72.8333,71.5 70.5,71.5C 70.5,65.5 70.5,59.5 70.5,53.5C 64.3002,50.7287 58.3002,47.3954 52.5,43.5C 51.5713,44.6888 51.238,46.0222 51.5,47.5C 45.8333,47.5 40.1667,47.5 34.5,47.5C 34.5,46.1667 34.5,44.8333 34.5,43.5C 30.5,43.5 26.5,43.5 22.5,43.5C 22.5,46.8333 22.5,50.1667 22.5,53.5C 20.5,53.5 18.5,53.5 16.5,53.5C 16.1241,59.6719 16.7908,65.6719 18.5,71.5C 15.5,71.5 12.5,71.5 9.5,71.5C 9.5,70.5 9.5,69.5 9.5,68.5C 10.5,68.5 11.5,68.5 12.5,68.5C 12.5,65.8333 12.5,63.1667 12.5,60.5C 11.5,60.5 10.5,60.5 9.5,60.5C 9.5,59.5 9.5,58.5 9.5,57.5C 10.5,57.5 11.5,57.5 12.5,57.5C 12.5,54.8333 12.5,52.1667 12.5,49.5C 14.5,49.5 16.5,49.5 18.5,49.5C 18.5,46.1667 18.5,42.8333 18.5,39.5C 21.1667,39.5 23.8333,39.5 26.5,39.5C 26.5,38.1667 26.5,36.8333 26.5,35.5C 27.8333,35.5 29.1667,35.5 30.5,35.5C 30.5,34.5 30.5,33.5 30.5,32.5C 32.924,32.8076 35.2573,32.4742 37.5,31.5C 36.4563,30.3774 35.7896,29.0441 35.5,27.5C 36.2804,22.5819 38.9471,19.2486 43.5,17.5C 46.1667,16.8333 48.8333,16.1667 51.5,15.5C 54.3934,11.1066 57.3934,6.77328 60.5,2.5C 61.5,2.16667 62.5,1.83333 63.5,1.5C 70.6764,4.92063 77.6764,8.58729 84.5,12.5C 86.5435,14.208 88.2101,16.208 89.5,18.5C 85.065,24.5927 81.065,30.926 77.5,37.5 Z"/></g>
<g><path style="opacity:1" fill="#4195e6" d="M 79.5,18.5 C 78.8333,18.5 78.1667,18.5 77.5,18.5C 78.1667,13.1667 78.8333,13.1667 79.5,18.5 Z"/></g>
<g><path style="opacity:1" fill="#47a1f9" d="M 75.5,18.5 C 73.663,18.3605 73.3296,17.6939 74.5,16.5C 75.2975,16.9569 75.6309,17.6236 75.5,18.5 Z"/></g>
<g><path style="opacity:1" fill="#47a3fa" d="M 81.5,18.5 C 81.6395,16.663 82.3061,16.3296 83.5,17.5C 83.0431,18.2975 82.3764,18.6309 81.5,18.5 Z"/></g>
<g><path style="opacity:1" fill="#49a9fd" d="M 75.5,18.5 C 76.1667,18.5 76.8333,18.5 77.5,18.5C 77.5,19.1667 77.5,19.8333 77.5,20.5C 76.8333,20.5 76.1667,20.5 75.5,20.5C 75.5,19.8333 75.5,19.1667 75.5,18.5 Z"/></g>
<g><path style="opacity:1" fill="#04090f" d="M 77.5,18.5 C 78.1667,18.5 78.8333,18.5 79.5,18.5C 79.5,19.1667 79.5,19.8333 79.5,20.5C 78.8333,20.5 78.1667,20.5 77.5,20.5C 77.5,19.8333 77.5,19.1667 77.5,18.5 Z"/></g>
<g><path style="opacity:1" fill="#46a0f6" d="M 79.5,18.5 C 80.1667,18.5 80.8333,18.5 81.5,18.5C 81.5,19.1667 81.5,19.8333 81.5,20.5C 80.8333,20.5 80.1667,20.5 79.5,20.5C 79.5,19.8333 79.5,19.1667 79.5,18.5 Z"/></g>
<g><path style="opacity:1" fill="#fbfbfb" d="M 77.5,37.5 C 77.5,38.1667 77.5,38.8333 77.5,39.5C 70.7837,42.1944 64.117,41.861 57.5,38.5C 51.5,36.5 47.5,32.5 45.5,26.5C 46.7899,24.208 48.4565,22.208 50.5,20.5C 52.4121,22.6572 54.0787,24.9906 55.5,27.5C 62.7506,31.24 70.0839,34.5733 77.5,37.5 Z"/></g>
<g><path style="opacity:1" fill="#439af0" d="M 75.5,20.5 C 75.3605,22.337 74.6939,22.6704 73.5,21.5C 73.9569,20.7025 74.6236,20.3691 75.5,20.5 Z"/></g>
<g><path style="opacity:1" fill="#449cf2" d="M 81.5,20.5 C 83.337,20.6395 83.6704,21.3061 82.5,22.5C 81.7025,22.0431 81.3691,21.3764 81.5,20.5 Z"/></g>
<g><path style="opacity:1" fill="#449df0" d="M 77.5,20.5 C 78.1667,20.5 78.8333,20.5 79.5,20.5C 78.8333,25.8333 78.1667,25.8333 77.5,20.5 Z"/></g>
<g><path style="opacity:1" fill="#e6c783" d="M 41.5,39.5 C 41.5218,34.4982 42.8552,34.1648 45.5,38.5C 44.3112,39.4287 42.9778,39.762 41.5,39.5 Z"/></g>
<g><path style="opacity:1" fill="#dcbd7c" d="M 41.5,39.5 C 41.5,40.8333 41.5,42.1667 41.5,43.5C 39.1667,43.5 36.8333,43.5 34.5,43.5C 34.5,42.1667 34.5,40.8333 34.5,39.5C 36.8333,39.5 39.1667,39.5 41.5,39.5 Z"/></g>
<g><path style="opacity:1" fill="#d8ba7a" d="M 34.5,43.5 C 34.5,44.8333 34.5,46.1667 34.5,47.5C 40.1667,47.5 45.8333,47.5 51.5,47.5C 51.238,46.0222 51.5713,44.6888 52.5,43.5C 58.3002,47.3954 64.3002,50.7287 70.5,53.5C 70.5,59.5 70.5,65.5 70.5,71.5C 69.1667,71.5 67.8333,71.5 66.5,71.5C 66.5,74.1667 66.5,76.8333 66.5,79.5C 65.1667,79.5 63.8333,79.5 62.5,79.5C 62.5,81.5 62.5,83.5 62.5,85.5C 60.1667,85.5 57.8333,85.5 55.5,85.5C 55.5,82.1667 55.5,78.8333 55.5,75.5C 54.1667,75.5 52.8333,75.5 51.5,75.5C 51.5,74.1667 51.5,72.8333 51.5,71.5C 46.8333,71.5 42.1667,71.5 37.5,71.5C 37.5,72.8333 37.5,74.1667 37.5,75.5C 36.5,75.5 35.5,75.5 34.5,75.5C 34.5,78.8333 34.5,82.1667 34.5,85.5C 31.8333,85.5 29.1667,85.5 26.5,85.5C 26.5,83.5 26.5,81.5 26.5,79.5C 25.1667,79.5 23.8333,79.5 22.5,79.5C 22.5,76.8333 22.5,74.1667 22.5,71.5C 21.1667,71.5 19.8333,71.5 18.5,71.5C 16.7908,65.6719 16.1241,59.6719 16.5,53.5C 18.5,53.5 20.5,53.5 22.5,53.5C 22.5,50.1667 22.5,46.8333 22.5,43.5C 26.5,43.5 30.5,43.5 34.5,43.5 Z"/></g>
<g><path style="opacity:1" fill="#000000" d="M 9.5,60.5 C 9.5,63.1667 9.5,65.8333 9.5,68.5C 8.16667,68.5 6.83333,68.5 5.5,68.5C 5.5,65.8333 5.5,63.1667 5.5,60.5C 6.83333,60.5 8.16667,60.5 9.5,60.5 Z"/></g>
<g><path style="opacity:1" fill="#d8ba7a" d="M 9.5,60.5 C 10.5,60.5 11.5,60.5 12.5,60.5C 12.5,63.1667 12.5,65.8333 12.5,68.5C 11.5,68.5 10.5,68.5 9.5,68.5C 9.5,65.8333 9.5,63.1667 9.5,60.5 Z"/></g>
<g><path style="opacity:1" fill="#dabb7b" d="M 77.5,60.5 C 77.5,63.1667 77.5,65.8333 77.5,68.5C 76.1667,68.5 74.8333,68.5 73.5,68.5C 73.5,65.8333 73.5,63.1667 73.5,60.5C 74.8333,60.5 76.1667,60.5 77.5,60.5 Z"/></g>
<g><path style="opacity:1" fill="#040302" d="M 77.5,60.5 C 78.8333,60.5 80.1667,60.5 81.5,60.5C 81.5,63.1667 81.5,65.8333 81.5,68.5C 80.1667,68.5 78.8333,68.5 77.5,68.5C 77.5,65.8333 77.5,63.1667 77.5,60.5 Z"/></g>
<g><path style="opacity:1" fill="#000000" d="M 30.5,64.5 C 31.8333,64.5 33.1667,64.5 34.5,64.5C 34.5,66.8333 34.5,69.1667 34.5,71.5C 33.1667,71.5 31.8333,71.5 30.5,71.5C 30.5,69.1667 30.5,66.8333 30.5,64.5 Z"/></g>
<g><path style="opacity:1" fill="#14110c" d="M 55.5,64.5 C 56.8333,64.5 58.1667,64.5 59.5,64.5C 59.5,66.8333 59.5,69.1667 59.5,71.5C 58.1667,71.5 56.8333,71.5 55.5,71.5C 55.5,69.1667 55.5,66.8333 55.5,64.5 Z"/></g>
<g><path style="opacity:1" fill="#0a0d11" d="M 18.5,71.5 C 19.8333,71.5 21.1667,71.5 22.5,71.5C 22.5,74.1667 22.5,76.8333 22.5,79.5C 21.1667,79.5 19.8333,79.5 18.5,79.5C 18.5,76.8333 18.5,74.1667 18.5,71.5 Z"/></g>
<g><path style="opacity:1" fill="#e74342" d="M 51.5,75.5 C 46.8333,75.5 42.1667,75.5 37.5,75.5C 37.5,74.1667 37.5,72.8333 37.5,71.5C 42.1667,71.5 46.8333,71.5 51.5,71.5C 51.5,72.8333 51.5,74.1667 51.5,75.5 Z"/></g>
<g><path style="opacity:1" fill="#020201" d="M 70.5,71.5 C 70.5,74.1667 70.5,76.8333 70.5,79.5C 69.1667,79.5 67.8333,79.5 66.5,79.5C 66.5,76.8333 66.5,74.1667 66.5,71.5C 67.8333,71.5 69.1667,71.5 70.5,71.5 Z"/></g>
<g><path style="opacity:1" fill="#010204" d="M 22.5,79.5 C 23.8333,79.5 25.1667,79.5 26.5,79.5C 26.5,81.5 26.5,83.5 26.5,85.5C 25.1667,85.5 23.8333,85.5 22.5,85.5C 22.5,83.5 22.5,81.5 22.5,79.5 Z"/></g>
<g><path style="opacity:1" fill="#000000" d="M 66.5,79.5 C 66.5,81.5 66.5,83.5 66.5,85.5C 65.1667,85.5 63.8333,85.5 62.5,85.5C 62.5,83.5 62.5,81.5 62.5,79.5C 63.8333,79.5 65.1667,79.5 66.5,79.5 Z"/></g>
<g><path style="opacity:1" fill="#000000" d="M 26.5,85.5 C 29.1667,85.5 31.8333,85.5 34.5,85.5C 34.5,86.8333 34.5,88.1667 34.5,89.5C 31.8333,89.5 29.1667,89.5 26.5,89.5C 26.5,88.1667 26.5,86.8333 26.5,85.5 Z"/></g>
<g><path style="opacity:1" fill="#e54140" d="M 37.5,75.5 C 37.5,78.8333 37.5,82.1667 37.5,85.5C 38.8333,85.5 40.1667,85.5 41.5,85.5C 41.5,86.8333 41.5,88.1667 41.5,89.5C 43.5,89.5 45.5,89.5 47.5,89.5C 47.5,88.1667 47.5,86.8333 47.5,85.5C 48.8333,85.5 50.1667,85.5 51.5,85.5C 51.5,82.1667 51.5,78.8333 51.5,75.5C 52.8333,75.5 54.1667,75.5 55.5,75.5C 55.5,78.8333 55.5,82.1667 55.5,85.5C 55.5,86.8333 55.5,88.1667 55.5,89.5C 54.1667,89.5 52.8333,89.5 51.5,89.5C 51.5,90.8333 51.5,92.1667 51.5,93.5C 46.8333,93.5 42.1667,93.5 37.5,93.5C 37.5,92.1667 37.5,90.8333 37.5,89.5C 36.5,89.5 35.5,89.5 34.5,89.5C 34.5,88.1667 34.5,86.8333 34.5,85.5C 34.5,82.1667 34.5,78.8333 34.5,75.5C 35.5,75.5 36.5,75.5 37.5,75.5 Z"/></g>
<g><path style="opacity:1" fill="#fef9f9" d="M 37.5,75.5 C 42.1667,75.5 46.8333,75.5 51.5,75.5C 51.5,78.8333 51.5,82.1667 51.5,85.5C 50.1667,85.5 48.8333,85.5 47.5,85.5C 47.5,83.5 47.5,81.5 47.5,79.5C 45.5,79.5 43.5,79.5 41.5,79.5C 41.5,81.5 41.5,83.5 41.5,85.5C 40.1667,85.5 38.8333,85.5 37.5,85.5C 37.5,82.1667 37.5,78.8333 37.5,75.5 Z"/></g>
<g><path style="opacity:1" fill="#e63a38" d="M 47.5,85.5 C 45.5,85.5 43.5,85.5 41.5,85.5C 41.5,83.5 41.5,81.5 41.5,79.5C 43.5,79.5 45.5,79.5 47.5,79.5C 47.5,81.5 47.5,83.5 47.5,85.5 Z"/></g>
<g><path style="opacity:1" fill="#fefffe" d="M 41.5,85.5 C 43.5,85.5 45.5,85.5 47.5,85.5C 47.5,86.8333 47.5,88.1667 47.5,89.5C 45.5,89.5 43.5,89.5 41.5,89.5C 41.5,88.1667 41.5,86.8333 41.5,85.5 Z"/></g>
<g><path style="opacity:1" fill="#000000" d="M 55.5,85.5 C 57.8333,85.5 60.1667,85.5 62.5,85.5C 62.5,86.8333 62.5,88.1667 62.5,89.5C 60.1667,89.5 57.8333,89.5 55.5,89.5C 55.5,88.1667 55.5,86.8333 55.5,85.5 Z"/></g>
</svg>
