<?xml version="1.0" encoding="UTF-8"?>
<!DOCTYPE svg PUBLIC "-//W3C//DTD SVG 1.1//EN" "http://www.w3.org/Graphics/SVG/1.1/DTD/svg11.dtd">
<svg xmlns="http://www.w3.org/2000/svg" version="1.1" width="96px" height="96px" style="shape-rendering:geometricPrecision; text-rendering:geometricPrecision; image-rendering:optimizeQuality; fill-rule:evenodd; clip-rule:evenodd" xmlns:xlink="http://www.w3.org/1999/xlink">
<g><path style="opacity:1" fill="#48995e" d="M 83.5,-0.5 C 85.5,-0.5 87.5,-0.5 89.5,-0.5C 90.8157,1.82248 92.1491,4.15581 93.5,6.5C 92.2326,8.70333 91.2326,11.0367 90.5,13.5C 89.8333,13.8333 89.1667,14.1667 88.5,14.5C 88.1667,14.5 87.8333,14.5 87.5,14.5C 87.5654,14.0618 87.3988,13.7284 87,13.5C 85.871,15.1412 84.371,16.1412 82.5,16.5C 85.5207,13.979 87.5207,10.8124 88.5,7C 87.4658,2.49991 85.7991,2.33324 83.5,6.5C 84.9387,8.34318 84.772,10.0099 83,11.5C 80.5854,8.96842 79.9187,5.96842 81,2.5C 82.417,1.92206 83.2504,0.922058 83.5,-0.5 Z"/></g>
<g><path style="opacity:0.835" fill="#909090" d="M 48.5,7.5 C 44.6441,8.11858 40.9775,8.11858 37.5,7.5C 41.3276,6.50201 44.9943,6.50201 48.5,7.5 Z"/></g>
<g><path style="opacity:0.998" fill="#5a5a5a" d="M 37.5,7.5 C 40.9775,8.11858 44.6441,8.11858 48.5,7.5C 49.1667,7.5 49.8333,7.5 50.5,7.5C 54.6175,9.2035 58.9508,10.5368 63.5,11.5C 71.8063,15.4744 78.1396,21.4744 82.5,29.5C 82.427,31.0269 83.0937,32.0269 84.5,32.5C 90.9363,44.6202 91.103,56.9535 85,69.5C 83.2089,73.4387 80.7089,76.772 77.5,79.5C 76.1667,80.1667 75.1667,81.1667 74.5,82.5C 69.2858,88.6942 62.6191,92.3609 54.5,93.5C 52.8212,93.2852 51.8212,93.9519 51.5,95.5C 46.8333,95.5 42.1667,95.5 37.5,95.5C 37.5,94.1667 36.8333,93.5 35.5,93.5C 18.067,89.4025 6.73362,78.7359 1.5,61.5C 2.58967,57.1061 2.25634,52.7728 0.5,48.5C 1.08626,42.4831 2.75293,36.8164 5.5,31.5C 6.90632,31.0269 7.57298,30.0269 7.5,28.5C 8.41938,25.9108 10.086,23.9108 12.5,22.5C 14.5869,21.4154 15.9202,19.7488 16.5,17.5C 22.5396,12.315 29.5396,8.98163 37.5,7.5 Z M 73.5,37.5 C 74.3255,41.1359 74.9922,44.8026 75.5,48.5C 75.8627,56.0465 74.1961,63.0465 70.5,69.5C 69.0937,69.9731 68.427,70.9731 68.5,72.5C 51.7654,86.3586 35.5987,85.6919 20,70.5C 9.58328,51.9169 12.7499,36.0836 29.5,23C 48.5083,15.2418 63.175,20.0751 73.5,37.5 Z"/></g>
<g><path style="opacity:0.592" fill="#8e8e8e" d="M 50.5,7.5 C 55.2888,7.6538 59.6222,8.98713 63.5,11.5C 58.9508,10.5368 54.6175,9.2035 50.5,7.5 Z"/></g>
<g><path style="opacity:0.149" fill="#7ebe99" d="M 90.5,13.5 C 91.791,13.2627 92.791,13.596 93.5,14.5C 92.2003,15.1079 90.8669,15.7745 89.5,16.5C 88.2867,16.2528 87.62,15.5862 87.5,14.5C 87.8333,14.5 88.1667,14.5 88.5,14.5C 89.6226,15.7574 90.2893,15.4241 90.5,13.5 Z"/></g>
<g><path style="opacity:0.53" fill="#067e34" d="M 87.5,14.5 C 87.62,15.5862 88.2867,16.2528 89.5,16.5C 90.8669,15.7745 92.2003,15.1079 93.5,14.5C 93.5,16.1667 93.5,17.8333 93.5,19.5C 89.5,19.5 85.5,19.5 81.5,19.5C 82.1098,18.609 82.4431,17.609 82.5,16.5C 84.371,16.1412 85.871,15.1412 87,13.5C 87.3988,13.7284 87.5654,14.0618 87.5,14.5 Z"/></g>
<g><path style="opacity:0.196" fill="#a3cfb4" d="M 82.5,16.5 C 82.4431,17.609 82.1098,18.609 81.5,19.5C 80.2848,18.221 80.6182,17.221 82.5,16.5 Z"/></g>
<g><path style="opacity:0.98" fill="#919191" d="M 16.5,17.5 C 15.9202,19.7488 14.5869,21.4154 12.5,22.5C 13.0798,20.2512 14.4131,18.5846 16.5,17.5 Z"/></g>
<g><path style="opacity:0.282" fill="#b2b2b2" d="M 7.5,28.5 C 7.57298,30.0269 6.90632,31.0269 5.5,31.5C 5.42702,29.9731 6.09368,28.9731 7.5,28.5 Z"/></g>
<g><path style="opacity:0.486" fill="#a3a3a3" d="M 82.5,29.5 C 83.9063,29.9731 84.573,30.9731 84.5,32.5C 83.0937,32.0269 82.427,31.0269 82.5,29.5 Z"/></g>
<g><path style="opacity:0.698" fill="#909090" d="M 73.5,37.5 C 75.9483,40.9367 76.615,44.6034 75.5,48.5C 74.9922,44.8026 74.3255,41.1359 73.5,37.5 Z"/></g>
<g><path style="opacity:0.89" fill="#969696" d="M 0.5,48.5 C 2.25634,52.7728 2.58967,57.1061 1.5,61.5C 0.800493,57.2022 0.46716,52.8689 0.5,48.5 Z"/></g>
<g><path style="opacity:0.859" fill="#9d9d9d" d="M 70.5,69.5 C 70.573,71.0269 69.9063,72.0269 68.5,72.5C 68.427,70.9731 69.0937,69.9731 70.5,69.5 Z"/></g>
<g><path style="opacity:0.016" fill="#b9b9b9" d="M 77.5,79.5 C 77.5,81.5 76.5,82.5 74.5,82.5C 75.1667,81.1667 76.1667,80.1667 77.5,79.5 Z"/></g>
<g><path style="opacity:0.18" fill="#b6b6b6" d="M 35.5,93.5 C 36.8333,93.5 37.5,94.1667 37.5,95.5C 36.8333,95.5 36.1667,95.5 35.5,95.5C 35.5,94.8333 35.5,94.1667 35.5,93.5 Z"/></g>
<g><path style="opacity:0.012" fill="#bebebe" d="M 54.5,93.5 C 54.1667,94.1667 53.8333,94.8333 53.5,95.5C 52.8333,95.5 52.1667,95.5 51.5,95.5C 51.8212,93.9519 52.8212,93.2852 54.5,93.5 Z"/></g>
</svg>
