<?xml version="1.0" encoding="UTF-8"?>
<!DOCTYPE svg PUBLIC "-//W3C//DTD SVG 1.1//EN" "http://www.w3.org/Graphics/SVG/1.1/DTD/svg11.dtd">
<svg xmlns="http://www.w3.org/2000/svg" version="1.1" width="96px" height="96px" style="shape-rendering:geometricPrecision; text-rendering:geometricPrecision; image-rendering:optimizeQuality; fill-rule:evenodd; clip-rule:evenodd" xmlns:xlink="http://www.w3.org/1999/xlink">
<g><path style="opacity:0.974" fill="#fefefe" d="M 37.5,-0.5 C 44.1667,-0.5 50.8333,-0.5 57.5,-0.5C 77.1403,5.14032 89.807,17.807 95.5,37.5C 95.5,44.1667 95.5,50.8333 95.5,57.5C 89.807,77.193 77.1403,89.8597 57.5,95.5C 50.8333,95.5 44.1667,95.5 37.5,95.5C 17.8597,89.8597 5.193,77.193 -0.5,57.5C -0.5,50.8333 -0.5,44.1667 -0.5,37.5C 5.193,17.807 17.8597,5.14032 37.5,-0.5 Z"/></g>
<g><path style="opacity:1" fill="#1bdfff" d="M 63.5,42.5 C 56.1667,35.5 48.8333,28.5 41.5,21.5C 42.6728,19.4959 44.3395,17.9959 46.5,17C 58.0482,14.9359 65.0482,19.6026 67.5,31C 67.0465,35.1962 65.7131,39.0295 63.5,42.5 Z"/></g>
<g><path style="opacity:1" fill="#1952fb" d="M 41.5,21.5 C 48.8333,28.5 56.1667,35.5 63.5,42.5C 70.1199,49.367 70.1199,56.0337 63.5,62.5C 52.8067,52.1392 42.14,41.8059 31.5,31.5C 34.5,27.8333 37.8333,24.5 41.5,21.5 Z"/></g>
<g><path style="opacity:1" fill="#06bd5c" d="M 31.5,31.5 C 42.14,41.8059 52.8067,52.1392 63.5,62.5C 60.8991,66.7706 57.5658,70.4372 53.5,73.5C 46.1667,66.5 38.8333,59.5 31.5,52.5C 27.6863,47.8819 26.5196,42.5485 28,36.5C 28.6972,34.4156 29.8639,32.7489 31.5,31.5 Z"/></g>
<g><path style="opacity:1" fill="#15d394" d="M 31.5,52.5 C 38.8333,59.5 46.1667,66.5 53.5,73.5C 52.1064,75.7082 50.1064,77.2082 47.5,78C 36.2657,79.6122 29.5991,74.7789 27.5,63.5C 28.0565,59.4924 29.3898,55.8257 31.5,52.5 Z"/></g>
</svg>
