<?xml version="1.0" encoding="UTF-8"?>
<!DOCTYPE svg PUBLIC "-//W3C//DTD SVG 1.1//EN" "http://www.w3.org/Graphics/SVG/1.1/DTD/svg11.dtd">
<svg xmlns="http://www.w3.org/2000/svg" version="1.1" width="96px" height="96px" style="shape-rendering:geometricPrecision; text-rendering:geometricPrecision; image-rendering:optimizeQuality; fill-rule:evenodd; clip-rule:evenodd" xmlns:xlink="http://www.w3.org/1999/xlink">
<g><path style="opacity:0.971" fill="#212630" d="M 37.5,-0.5 C 44.1667,-0.5 50.8333,-0.5 57.5,-0.5C 77.1667,5.16667 89.8333,17.8333 95.5,37.5C 95.5,44.1667 95.5,50.8333 95.5,57.5C 89.8333,77.1667 77.1667,89.8333 57.5,95.5C 50.8333,95.5 44.1667,95.5 37.5,95.5C 17.8333,89.8333 5.16667,77.1667 -0.5,57.5C -0.5,50.8333 -0.5,44.1667 -0.5,37.5C 5.16667,17.8333 17.8333,5.16667 37.5,-0.5 Z"/></g>
<g><path style="opacity:1" fill="#fafafa" d="M 14.5,25.5 C 18.2326,24.179 22.0659,24.179 26,25.5C 28.4135,34.8979 31.0802,44.2312 34,53.5C 36,48.8333 38,44.1667 40,39.5C 45,34.1667 50,34.1667 55,39.5C 56.5433,43.9655 58.3767,48.2988 60.5,52.5C 61.2436,51.0095 61.9103,49.5095 62.5,48C 66.1667,47.3333 69.8333,47.3333 73.5,48C 70.959,55.0251 68.7923,62.1918 67,69.5C 63.2564,70.626 59.423,70.7927 55.5,70C 52.7166,64.2635 50.0499,58.4301 47.5,52.5C 44.7403,58.2739 42.0736,64.1072 39.5,70C 35.8333,70.6667 32.1667,70.6667 28.5,70C 24.102,54.9781 19.4354,40.1448 14.5,25.5 Z"/></g>
<g><path style="opacity:1" fill="#f4f4f5" d="M 68.5,24.5 C 72.5138,24.3345 76.5138,24.5012 80.5,25C 78.5226,30.0379 76.8559,35.2046 75.5,40.5C 71.8927,41.4892 68.226,41.8226 64.5,41.5C 65.836,35.8273 67.1693,30.1606 68.5,24.5 Z"/></g>
</svg>
