<?xml version="1.0" encoding="UTF-8"?>
<!DOCTYPE svg PUBLIC "-//W3C//DTD SVG 1.1//EN" "http://www.w3.org/Graphics/SVG/1.1/DTD/svg11.dtd">
<svg xmlns="http://www.w3.org/2000/svg" version="1.1" width="96px" height="96px" style="shape-rendering:geometricPrecision; text-rendering:geometricPrecision; image-rendering:optimizeQuality; fill-rule:evenodd; clip-rule:evenodd" xmlns:xlink="http://www.w3.org/1999/xlink">
<g><path style="opacity:0.98" fill="#fbed93" d="M 15.5,-0.5 C 22.1667,-0.5 28.8333,-0.5 35.5,-0.5C 41.1657,0.327699 46.9991,0.994366 53,1.5C 58.6694,1.0063 64.1694,0.339632 69.5,-0.5C 72.1667,-0.5 74.8333,-0.5 77.5,-0.5C 79.6852,3.12657 79.6852,6.79324 77.5,10.5C 77.5,7.83333 77.5,5.16667 77.5,2.5C 71.0415,3.56799 66.0415,6.90132 62.5,12.5C 53.1877,11.7233 43.8544,11.39 34.5,11.5C 36.6281,8.86971 38.9614,6.36971 41.5,4C 32.7931,3.49385 24.1265,2.66052 15.5,1.5C 15.5,0.833333 15.5,0.166667 15.5,-0.5 Z"/></g>
<g><path style="opacity:1" fill="#fdca49" d="M 15.5,1.5 C 24.1265,2.66052 32.7931,3.49385 41.5,4C 38.9614,6.36971 36.6281,8.86971 34.5,11.5C 29.2697,12.6538 23.9364,13.3205 18.5,13.5C 16.9116,9.65358 15.9116,5.65358 15.5,1.5 Z"/></g>
<g><path style="opacity:1" fill="#fec948" d="M 77.5,10.5 C 77.5,11.5 77.5,12.5 77.5,13.5C 72.4725,13.4971 67.4725,13.1637 62.5,12.5C 66.0415,6.90132 71.0415,3.56799 77.5,2.5C 77.5,5.16667 77.5,7.83333 77.5,10.5 Z"/></g>
<g><path style="opacity:0.96" fill="#d1972e" d="M 14.5,-0.5 C 14.8333,-0.5 15.1667,-0.5 15.5,-0.5C 15.5,0.166667 15.5,0.833333 15.5,1.5C 15.9116,5.65358 16.9116,9.65358 18.5,13.5C 17.0413,13.4326 15.7079,13.7659 14.5,14.5C 14.3926,10.9019 13.7259,7.40187 12.5,4C 13.4138,2.59362 14.0805,1.09362 14.5,-0.5 Z"/></g>
<g><path style="opacity:1" fill="#fec43c" d="M 60.5,3.5 C 61.675,3.28099 62.675,3.61432 63.5,4.5C 62.2003,7.43228 60.2003,9.76562 57.5,11.5C 57.1667,11.1667 56.8333,10.8333 56.5,10.5C 58.11,8.27463 59.4434,5.9413 60.5,3.5 Z"/></g>
<g><path style="opacity:0.998" fill="#fbf9ef" d="M 34.5,11.5 C 43.8544,11.39 53.1877,11.7233 62.5,12.5C 67.4725,13.1637 72.4725,13.4971 77.5,13.5C 77.5569,14.609 77.8902,15.609 78.5,16.5C 57.4972,15.2349 36.4972,15.2349 15.5,16.5C 15.1667,15.8333 14.8333,15.1667 14.5,14.5C 15.7079,13.7659 17.0413,13.4326 18.5,13.5C 23.9364,13.3205 29.2697,12.6538 34.5,11.5 Z"/></g>
<g><path style="opacity:0.98" fill="#dbbf70" d="M 78.5,16.5 C 80.1543,24.1205 81.6543,31.7872 83,39.5C 83.3333,52.8333 83.6667,66.1667 84,79.5C 85.8221,83.8792 85.8221,88.2125 84,92.5C 82.5295,93.2666 81.0295,93.9332 79.5,94.5C 79.3893,93.8826 79.056,93.3826 78.5,93C 66.4095,91.0286 54.4095,88.6953 42.5,86C 40.5405,85.0691 38.5405,84.2357 36.5,83.5C 35.2888,82.7261 35.2888,81.8928 36.5,81C 30.6595,80.4367 30.3261,79.27 35.5,77.5C 34.675,76.6143 33.675,76.281 32.5,76.5C 32.719,75.325 32.3857,74.325 31.5,73.5C 30.6733,75.162 29.5067,76.4954 28,77.5C 27.8142,75.0995 27.3142,72.7662 26.5,70.5C 25.7022,72.0777 25.2022,73.7444 25,75.5C 22.0047,72.7985 19.5047,69.7985 17.5,66.5C 17.3336,57.4938 17.5002,48.4938 18,39.5C 19.8121,32.2742 20.6455,24.9409 20.5,17.5C 18.8333,17.5 17.1667,17.5 15.5,17.5C 15.5,17.1667 15.5,16.8333 15.5,16.5C 36.4972,15.2349 57.4972,15.2349 78.5,16.5 Z"/></g>
<g><path style="opacity:1" fill="#e9d18c" d="M 65.5,70.5 C 76.5836,61.7317 79.417,50.7317 74,37.5C 65.9578,24.3716 54.4578,19.8716 39.5,24C 36.117,25.6863 33.117,27.853 30.5,30.5C 29.1848,24.2621 31.8515,20.4287 38.5,19C 47.1667,18.3333 55.8333,18.3333 64.5,19C 68.2649,20.3772 67.9316,21.3772 63.5,22C 64.7932,22.49 66.1266,22.6567 67.5,22.5C 67.281,23.675 67.6143,24.675 68.5,25.5C 69.5237,24.1468 70.857,23.4802 72.5,23.5C 72.5981,29.373 73.5981,29.7064 75.5,24.5C 78.0172,26.5104 79.5172,29.1771 80,32.5C 82.5766,45.6938 81.91,58.6938 78,71.5C 73.21,78.4247 69.0434,78.0913 65.5,70.5 Z"/></g>
<g><path style="opacity:1" fill="#e44645" d="M 65.5,70.5 C 48.8748,78.6805 36.0415,74.6805 27,58.5C 22.8665,48.4507 24.0332,39.1174 30.5,30.5C 33.117,27.853 36.117,25.6863 39.5,24C 54.4578,19.8716 65.9578,24.3716 74,37.5C 79.417,50.7317 76.5836,61.7317 65.5,70.5 Z"/></g>
<g><path style="opacity:1" fill="#fef7f7" d="M 43.5,25.5 C 60.7192,24.2273 70.7192,32.0606 73.5,49C 73.1999,54.4304 71.3666,59.2637 68,63.5C 65.5521,59.3333 63.3854,54.9999 61.5,50.5C 62.4803,49.0186 63.647,47.6853 65,46.5C 65.6667,45.8333 65.6667,45.1667 65,44.5C 62.544,43.4258 60.044,42.4258 57.5,41.5C 55.6667,37.8333 53.8333,34.1667 52,30.5C 46.7768,27.0053 43.9435,28.3386 43.5,34.5C 42.1667,34.5 40.8333,34.5 39.5,34.5C 39.317,36.9363 39.9837,39.103 41.5,41C 39.5559,42.722 38.5559,44.8887 38.5,47.5C 41.2011,54.2666 42.8678,61.2666 43.5,68.5C 33.5889,64.7198 28.5889,57.3864 28.5,46.5C 29.1967,36.464 34.1967,29.464 43.5,25.5 Z"/></g>
<g><path style="opacity:0.909" fill="#b38444" d="M 15.5,17.5 C 17.1667,17.5 18.8333,17.5 20.5,17.5C 20.6455,24.9409 19.8121,32.2742 18,39.5C 17.5002,48.4938 17.3336,57.4938 17.5,66.5C 17.8892,74.1139 17.2226,81.6139 15.5,89C 15.4823,91.4418 16.149,93.6085 17.5,95.5C 15.8333,95.5 14.1667,95.5 12.5,95.5C 10.5476,93.422 9.54757,90.922 9.5,88C 10.6492,83.4029 11.3159,78.7363 11.5,74C 9.21162,54.8478 10.545,36.0145 15.5,17.5 Z"/></g>
<g><path style="opacity:1" fill="#fdeae9" d="M 53.5,45.5 C 54.8333,45.5 56.1667,45.5 57.5,45.5C 57.7778,47.3464 57.1112,48.6798 55.5,49.5C 53.8888,48.6798 53.2222,47.3464 53.5,45.5 Z"/></g>
<g><path style="opacity:0.967" fill="#cba75e" d="M 17.5,66.5 C 19.5047,69.7985 22.0047,72.7985 25,75.5C 25.2022,73.7444 25.7022,72.0777 26.5,70.5C 27.3142,72.7662 27.8142,75.0995 28,77.5C 29.5067,76.4954 30.6733,75.162 31.5,73.5C 32.3857,74.325 32.719,75.325 32.5,76.5C 33.675,76.281 34.675,76.6143 35.5,77.5C 30.3261,79.27 30.6595,80.4367 36.5,81C 35.2888,81.8928 35.2888,82.7261 36.5,83.5C 38.5405,84.2357 40.5405,85.0691 42.5,86C 54.4095,88.6953 66.4095,91.0286 78.5,93C 79.056,93.3826 79.3893,93.8826 79.5,94.5C 68.9865,94.1724 58.6532,94.5058 48.5,95.5C 38.1667,95.5 27.8333,95.5 17.5,95.5C 16.149,93.6085 15.4823,91.4418 15.5,89C 17.2226,81.6139 17.8892,74.1139 17.5,66.5 Z"/></g>
</svg>
