<?xml version="1.0" encoding="UTF-8"?>
<!DOCTYPE svg PUBLIC "-//W3C//DTD SVG 1.1//EN" "http://www.w3.org/Graphics/SVG/1.1/DTD/svg11.dtd">
<svg xmlns="http://www.w3.org/2000/svg" version="1.1" width="96px" height="96px" style="shape-rendering:geometricPrecision; text-rendering:geometricPrecision; image-rendering:optimizeQuality; fill-rule:evenodd; clip-rule:evenodd" xmlns:xlink="http://www.w3.org/1999/xlink">
<g><path style="opacity:0.998" fill="#5abc59" d="M 36.5,-0.5 C 43.5,-0.5 50.5,-0.5 57.5,-0.5C 77.5817,5.2487 90.2484,18.2487 95.5,38.5C 95.5,44.5 95.5,50.5 95.5,56.5C 90.1667,77.1667 77.1667,90.1667 56.5,95.5C 50.1667,95.5 43.8333,95.5 37.5,95.5C 17.807,89.807 5.14032,77.1403 -0.5,57.5C -0.5,50.5 -0.5,43.5 -0.5,36.5C 5.5,17.8333 17.8333,5.5 36.5,-0.5 Z"/></g>
<g><path style="opacity:1" fill="#f6fbf5" d="M 44.5,8.5 C 47.1667,8.5 49.8333,8.5 52.5,8.5C 52.5,9.5 52.5,10.5 52.5,11.5C 49.8333,11.5 47.1667,11.5 44.5,11.5C 44.5,10.5 44.5,9.5 44.5,8.5 Z"/></g>
<g><path style="opacity:1" fill="#f9fcf9" d="M 52.5,80.5 C 50.1667,80.5 47.8333,80.5 45.5,80.5C 45.8064,77.6146 45.4731,74.9479 44.5,72.5C 36.9895,70.6604 31.9895,65.9937 29.5,58.5C 32.3516,56.2818 35.685,55.2818 39.5,55.5C 40.6824,62.2668 44.6824,64.7668 51.5,63C 55.8721,60.805 56.5388,57.805 53.5,54C 48.1667,51.3333 42.8333,48.6667 37.5,46C 31.6229,39.874 31.1229,33.374 36,26.5C 38.3974,24.2177 41.2307,22.8844 44.5,22.5C 44.5,19.5 44.5,16.5 44.5,13.5C 47.1667,13.5 49.8333,13.5 52.5,13.5C 52.3354,16.5184 52.502,19.5184 53,22.5C 57.2699,23.8811 60.4366,26.5478 62.5,30.5C 58.5064,36.3838 54.5064,36.5505 50.5,31C 45.1597,30.0112 42.6597,32.1778 43,37.5C 48.1081,40.9715 53.6081,43.8048 59.5,46C 67.3556,53.5598 67.3556,61.2265 59.5,69C 57.3496,70.4114 55.0163,71.2447 52.5,71.5C 52.5,74.5 52.5,77.5 52.5,80.5 Z"/></g>
<g><path style="opacity:1" fill="#c3e6c1" d="M 44.5,72.5 C 45.4731,74.9479 45.8064,77.6146 45.5,80.5C 47.8333,80.5 50.1667,80.5 52.5,80.5C 50.0521,81.4731 47.3854,81.8064 44.5,81.5C 44.5,78.5 44.5,75.5 44.5,72.5 Z"/></g>
<g><path style="opacity:1" fill="#b5dfb3" d="M 52.5,83.5 C 50.1667,83.5 47.8333,83.5 45.5,83.5C 45.5,84.5 45.5,85.5 45.5,86.5C 44.5655,85.4324 44.2322,84.099 44.5,82.5C 47.3854,82.1936 50.0521,82.5269 52.5,83.5 Z"/></g>
<g><path style="opacity:1" fill="#f7faf6" d="M 52.5,83.5 C 52.5,84.5 52.5,85.5 52.5,86.5C 50.1667,86.5 47.8333,86.5 45.5,86.5C 45.5,85.5 45.5,84.5 45.5,83.5C 47.8333,83.5 50.1667,83.5 52.5,83.5 Z"/></g>
</svg>
