<?xml version="1.0" encoding="UTF-8"?>
<!DOCTYPE svg PUBLIC "-//W3C//DTD SVG 1.1//EN" "http://www.w3.org/Graphics/SVG/1.1/DTD/svg11.dtd">
<svg xmlns="http://www.w3.org/2000/svg" version="1.1" width="96px" height="96px" style="shape-rendering:geometricPrecision; text-rendering:geometricPrecision; image-rendering:optimizeQuality; fill-rule:evenodd; clip-rule:evenodd" xmlns:xlink="http://www.w3.org/1999/xlink">
<g><path style="opacity:1" fill="#f0c76c" d="M 49.5,0.5 C 54.1925,0.424927 58.5258,1.42493 62.5,3.5C 57.8665,3.3224 53.5332,2.3224 49.5,0.5 Z"/></g>
<g><path style="opacity:0.988" fill="#f0c86a" d="M 44.5,0.5 C 39.7221,2.27945 34.7221,3.61279 29.5,4.5C 34.1119,2.09536 39.1119,0.762024 44.5,0.5 Z"/></g>
<g><path style="opacity:1" fill="#efcc76" d="M 77.5,18.5 C 74.4288,16.1023 71.0954,14.1023 67.5,12.5C 59.8427,8.16837 51.5094,6.5017 42.5,7.5C 37.9048,8.03207 33.5715,9.36541 29.5,11.5C 27.9505,12.4408 26.2838,13.1075 24.5,13.5C 26.6572,11.5879 28.9906,9.92126 31.5,8.5C 44.9964,3.87483 57.9964,5.0415 70.5,12C 73.3312,13.6657 75.6645,15.8324 77.5,18.5 Z"/></g>
<g><path style="opacity:1" fill="#e8ad23" d="M 44.5,0.5 C 46.1667,0.5 47.8333,0.5 49.5,0.5C 53.5332,2.3224 57.8665,3.3224 62.5,3.5C 69.9788,5.73654 76.3122,9.73654 81.5,15.5C 82.0023,18.8406 83.3356,21.8406 85.5,24.5C 85.3764,25.1067 85.0431,25.44 84.5,25.5C 82.5272,22.8605 80.1939,20.5272 77.5,18.5C 75.6645,15.8324 73.3312,13.6657 70.5,12C 57.9964,5.0415 44.9964,3.87483 31.5,8.5C 29.6061,7.39887 28.9394,6.06554 29.5,4.5C 34.7221,3.61279 39.7221,2.27945 44.5,0.5 Z"/></g>
<g><path style="opacity:1" fill="#efc052" d="M 29.5,4.5 C 28.9394,6.06554 29.6061,7.39887 31.5,8.5C 28.9906,9.92126 26.6572,11.5879 24.5,13.5C 21.5877,15.0663 18.921,17.0663 16.5,19.5C 15.1973,18.2822 14.1973,18.6155 13.5,20.5C 12.7348,19.3881 11.7348,18.7214 10.5,18.5C 15.5797,12.1273 21.913,7.46067 29.5,4.5 Z"/></g>
<g><path style="opacity:1" fill="#e4b33f" d="M 42.5,7.5 C 43.7298,9.29719 44.3964,11.2972 44.5,13.5C 48.9152,13.3054 53.2486,13.8054 57.5,15C 60.1767,15.8136 62.1767,17.3136 63.5,19.5C 60.5046,23.0023 60.8379,26.1689 64.5,29C 63.2889,30.1131 63.2889,31.2798 64.5,32.5C 65.9507,33.906 67.2841,35.406 68.5,37C 66.1088,37.6914 66.1088,38.6914 68.5,40C 67.9056,40.4643 67.2389,40.631 66.5,40.5C 65.0639,39.5714 63.7305,38.4048 62.5,37C 63.2853,34.5571 63.1186,32.0571 62,29.5C 61,28.1667 60,28.1667 59,29.5C 56.9672,27.6503 56.9672,26.9836 59,27.5C 59.7885,25.8353 60.1218,24.1686 60,22.5C 56.4259,24.8758 52.7592,24.8758 49,22.5C 48.0546,22.9054 47.3879,23.572 47,24.5C 45.1722,23.2475 43.3388,23.2475 41.5,24.5C 40.2617,24.19 40.2617,23.69 41.5,23C 43.2464,22.5291 44.913,21.8624 46.5,21C 43.6229,20.0438 40.9562,18.7105 38.5,17C 41.0444,15.908 43.7111,15.2414 46.5,15C 41.0839,14.7059 35.7505,15.0393 30.5,16C 29.6198,14.6439 29.2865,13.1439 29.5,11.5C 33.5715,9.36541 37.9048,8.03207 42.5,7.5 Z"/></g>
<g><path style="opacity:1" fill="#e2ab22" d="M 42.5,7.5 C 51.5094,6.5017 59.8427,8.16837 67.5,12.5C 64.6147,16.0807 64.9481,16.7474 68.5,14.5C 70.9242,15.4229 72.9242,16.9229 74.5,19C 74.1667,19.3333 73.8333,19.6667 73.5,20C 80.2595,27.7043 84.2595,36.3709 85.5,46C 85.0097,47.982 84.0097,49.6487 82.5,51C 83.8825,52.4609 83.5492,53.2942 81.5,53.5C 82.8968,39.1348 77.8968,27.6348 66.5,19C 65.4232,18.5304 64.4232,18.6971 63.5,19.5C 62.1767,17.3136 60.1767,15.8136 57.5,15C 53.2486,13.8054 48.9152,13.3054 44.5,13.5C 44.3964,11.2972 43.7298,9.29719 42.5,7.5 Z"/></g>
<g><path style="opacity:1" fill="#f0b846" d="M 81.5,15.5 C 88.0754,21.7632 92.0754,29.4299 93.5,38.5C 91.7374,34.9924 90.0708,31.3257 88.5,27.5C 87.3132,26.3473 86.3132,26.3473 85.5,27.5C 84.6618,27.1583 84.3284,26.4916 84.5,25.5C 85.0431,25.44 85.3764,25.1067 85.5,24.5C 83.3356,21.8406 82.0023,18.8406 81.5,15.5 Z"/></g>
<g><path style="opacity:1" fill="#f6d27b" d="M 24.5,25.5 C 25.1667,25.5 25.5,25.8333 25.5,26.5C 24.6676,27.3285 25.001,28.1618 26.5,29C 21.2699,27.999 17.7699,30.1656 16,35.5C 12.7102,53.3404 16.8768,68.6737 28.5,81.5C 29.4168,80.8728 30.4168,80.5394 31.5,80.5C 31.3893,81.1174 31.056,81.6174 30.5,82C 32.0657,82.765 33.3991,82.5983 34.5,81.5C 36.65,83.827 39.3167,84.6604 42.5,84C 41.2625,83.7679 40.2625,83.2679 39.5,82.5C 41.2161,82.3713 42.8828,82.038 44.5,81.5C 46.9878,83.3878 49.9878,84.0545 53.5,83.5C 54.4054,84.7024 54.4054,86.0357 53.5,87.5C 40.9764,89.4385 29.9764,86.1051 20.5,77.5C 18.7029,73.229 16.8696,68.8957 15,64.5C 13.1954,56.1902 12.0287,48.0236 11.5,40C 11.9755,38.2367 12.6422,36.57 13.5,35C 13.0426,34.586 12.7093,34.086 12.5,33.5C 13.8848,32.4495 14.8848,31.1161 15.5,29.5C 16.9337,28.7702 18.1004,27.7702 19,26.5C 19.414,26.9574 19.914,27.2907 20.5,27.5C 21.6223,26.3698 22.9557,25.7031 24.5,25.5 Z"/></g>
<g><path style="opacity:1" fill="#e9b83c" d="M 81.5,53.5 C 79.8528,57.4237 78.1861,61.4237 76.5,65.5C 74.5,66.976 72.8334,68.8094 71.5,71C 72.4819,75.5749 71.4819,79.7416 68.5,83.5C 67.391,83.5569 66.391,83.8902 65.5,84.5C 65.4959,82.1579 64.6625,80.1579 63,78.5C 62.3162,79.7839 62.4829,80.9505 63.5,82C 62.5,82.6667 61.5,82.6667 60.5,82C 61.8333,80 61.8333,78 60.5,76C 62.5943,75.5547 64.0943,76.388 65,78.5C 65.3459,76.1523 66.5125,74.3189 68.5,73C 67.1667,73 65.8333,73 64.5,73C 65.7164,70.0691 67.0498,67.2358 68.5,64.5C 67.1019,59.9317 67.6019,59.5984 70,63.5C 71.3788,59.9971 72.2122,55.9971 72.5,51.5C 75.926,51.6503 76.2594,50.4837 73.5,48C 74.3279,47.0853 75.3279,46.4186 76.5,46C 74.1341,45.5604 71.8008,45.0604 69.5,44.5C 67.9826,44.4894 66.8159,43.8228 66,42.5C 64.0245,43.4279 62.1911,44.5946 60.5,46C 57.0493,46.7472 56.716,46.0805 59.5,44C 57.8333,40.6667 58.8333,39.3333 62.5,40C 60.7295,40.5354 60.3961,41.3687 61.5,42.5C 62.8498,41.0499 64.5165,40.3832 66.5,40.5C 67.2389,40.631 67.9056,40.4643 68.5,40C 66.1088,38.6914 66.1088,37.6914 68.5,37C 67.2841,35.406 65.9507,33.906 64.5,32.5C 63.2889,31.2798 63.2889,30.1131 64.5,29C 60.8379,26.1689 60.5046,23.0023 63.5,19.5C 64.4232,18.6971 65.4232,18.5304 66.5,19C 77.8968,27.6348 82.8968,39.1348 81.5,53.5 Z"/></g>
<g><path style="opacity:1" fill="#f2cd71" d="M 77.5,18.5 C 80.1939,20.5272 82.5272,22.8605 84.5,25.5C 84.3284,26.4916 84.6618,27.1583 85.5,27.5C 87.2535,30.6517 88.0869,33.985 88,37.5C 85.5046,30.5003 82.0046,24.1669 77.5,18.5 Z"/></g>
<g><path style="opacity:1" fill="#f3cd71" d="M 24.5,13.5 C 23.7101,14.7942 22.7101,15.9609 21.5,17C 24.3866,16.8696 27.3866,17.3696 30.5,18.5C 35.0885,17.1767 35.4218,17.6767 31.5,20C 33.2852,21.1628 35.2852,21.8295 37.5,22C 35.5,23.3333 33.5,24.6667 31.5,26C 29.1913,26.7562 27.1913,26.2562 25.5,24.5C 24.8933,24.6236 24.56,24.9569 24.5,25.5C 22.9557,25.7031 21.6223,26.3698 20.5,27.5C 19.914,27.2907 19.414,26.9574 19,26.5C 18.1004,27.7702 16.9337,28.7702 15.5,29.5C 14.8848,31.1161 13.8848,32.4495 12.5,33.5C 12.7093,34.086 13.0426,34.586 13.5,35C 12.6422,36.57 11.9755,38.2367 11.5,40C 12.0287,48.0236 13.1954,56.1902 15,64.5C 16.8696,68.8957 18.7029,73.229 20.5,77.5C 14.3057,71.7894 10.1391,64.7894 8,56.5C 7.81038,50.5845 7.31038,44.7512 6.5,39C 6.95735,38.586 7.29069,38.086 7.5,37.5C 5.80348,36.6364 4.63681,35.3031 4,33.5C 3.76791,34.7375 3.26791,35.7375 2.5,36.5C 2.5,35.8333 2.5,35.1667 2.5,34.5C 3.59944,28.301 6.26611,22.9676 10.5,18.5C 11.7348,18.7214 12.7348,19.3881 13.5,20.5C 14.1973,18.6155 15.1973,18.2822 16.5,19.5C 18.921,17.0663 21.5877,15.0663 24.5,13.5 Z"/></g>
<g><path style="opacity:1" fill="#f2c966" d="M 29.5,11.5 C 29.2865,13.1439 29.6198,14.6439 30.5,16C 35.7505,15.0393 41.0839,14.7059 46.5,15C 43.7111,15.2414 41.0444,15.908 38.5,17C 40.9562,18.7105 43.6229,20.0438 46.5,21C 44.913,21.8624 43.2464,22.5291 41.5,23C 40.2617,23.69 40.2617,24.19 41.5,24.5C 38.093,26.3792 34.7596,28.5459 31.5,31C 33.1984,30.5031 34.8651,30.6698 36.5,31.5C 37.3333,30.5 38.1667,29.5 39,28.5C 41.0581,29.2291 42.8914,30.2291 44.5,31.5C 42.6208,32.3414 40.6208,32.6747 38.5,32.5C 38.4729,34.1993 37.8062,35.5326 36.5,36.5C 35.3215,38.5065 35.8215,38.8398 38,37.5C 39.487,38.2529 39.6537,39.0862 38.5,40C 43.6372,41.593 43.4706,43.093 38,44.5C 35.6616,42.9727 34.1616,43.6393 33.5,46.5C 37.3308,47.6683 40.8308,47.0016 44,44.5C 42.8502,48.1594 40.3502,50.8261 36.5,52.5C 35.2888,51.6102 33.9555,51.6102 32.5,52.5C 31.3279,52.0814 30.3279,51.4147 29.5,50.5C 28.5444,51.8651 27.8777,53.3651 27.5,55C 29.1424,57.0702 30.6424,59.2369 32,61.5C 32.2492,60.376 32.7492,59.376 33.5,58.5C 35.415,60.0712 36.415,62.0712 36.5,64.5C 35.7784,64.0825 35.2784,63.4158 35,62.5C 33.2602,63.7158 32.2602,65.3825 32,67.5C 31.3333,64.8333 30.6667,62.1667 30,59.5C 29.7216,60.4158 29.2216,61.0825 28.5,61.5C 27.2311,59.9161 26.2311,58.0828 25.5,56C 27.0056,50.8408 27.3389,45.6742 26.5,40.5C 27.0258,37.157 28.0258,33.9903 29.5,31C 28.944,30.6174 28.6107,30.1174 28.5,29.5C 27.8333,28.1667 26.8333,27.1667 25.5,26.5C 25.5,25.8333 25.1667,25.5 24.5,25.5C 24.56,24.9569 24.8933,24.6236 25.5,24.5C 27.1913,26.2562 29.1913,26.7562 31.5,26C 33.5,24.6667 35.5,23.3333 37.5,22C 35.2852,21.8295 33.2852,21.1628 31.5,20C 35.4218,17.6767 35.0885,17.1767 30.5,18.5C 27.3866,17.3696 24.3866,16.8696 21.5,17C 22.7101,15.9609 23.7101,14.7942 24.5,13.5C 26.2838,13.1075 27.9505,12.4408 29.5,11.5 Z"/></g>
<g><path style="opacity:1" fill="#e3b049" d="M 56.5,34.5 C 57.1667,34.5 57.8333,34.5 58.5,34.5C 59.3285,35.3324 60.1618,34.999 61,33.5C 60.621,35.075 60.7877,36.575 61.5,38C 60.451,38.4922 59.451,38.3256 58.5,37.5C 57.8076,38.0253 57.3076,38.6919 57,39.5C 56.059,37.9386 54.8924,36.6053 53.5,35.5C 52.8281,36.9492 52.1614,38.2825 51.5,39.5C 50.9108,36.2152 49.7441,35.8819 48,38.5C 48.6171,36.9052 48.2837,35.5719 47,34.5C 46.6322,35.91 45.7989,36.91 44.5,37.5C 43.3044,37.1543 43.3044,36.6543 44.5,36C 43.8333,35.3333 43.1667,35.3333 42.5,36C 42.0183,37.0084 41.8516,38.175 42,39.5C 40.7365,37.393 38.9032,36.393 36.5,36.5C 37.8062,35.5326 38.4729,34.1993 38.5,32.5C 40.6208,32.6747 42.6208,32.3414 44.5,31.5C 46.2605,30.1817 48.7605,28.8484 52,27.5C 53,28.8333 54,28.8333 55,27.5C 55.0354,30.474 53.702,31.474 51,30.5C 47.8544,33.8762 48.6878,34.8762 53.5,33.5C 54.4776,33.9767 55.3109,34.6433 56,35.5C 56.3988,35.2716 56.5654,34.9382 56.5,34.5 Z"/></g>
<g><path style="opacity:1" fill="#e9af1f" d="M 67.5,12.5 C 71.0954,14.1023 74.4288,16.1023 77.5,18.5C 82.0046,24.1669 85.5046,30.5003 88,37.5C 88.0869,33.985 87.2535,30.6517 85.5,27.5C 86.3132,26.3473 87.3132,26.3473 88.5,27.5C 90.0708,31.3257 91.7374,34.9924 93.5,38.5C 93.5,44.5 93.5,50.5 93.5,56.5C 90.8806,58.7027 89.8806,61.3694 90.5,64.5C 88.8955,66.1789 88.2289,68.1789 88.5,70.5C 88.573,72.0269 87.9063,73.0269 86.5,73.5C 85.4415,72.3998 84.6082,71.0664 84,69.5C 81,71.1667 78.6667,73.5 77,76.5C 77.1214,72.6521 76.9547,68.9854 76.5,65.5C 78.1861,61.4237 79.8528,57.4237 81.5,53.5C 83.5492,53.2942 83.8825,52.4609 82.5,51C 84.0097,49.6487 85.0097,47.982 85.5,46C 84.2595,36.3709 80.2595,27.7043 73.5,20C 73.8333,19.6667 74.1667,19.3333 74.5,19C 72.9242,16.9229 70.9242,15.4229 68.5,14.5C 64.9481,16.7474 64.6147,16.0807 67.5,12.5 Z"/></g>
<g><path style="opacity:0.737" fill="#f7d684" d="M 93.5,38.5 C 94.1667,39.1667 94.8333,39.8333 95.5,40.5C 95.5,45.1667 95.5,49.8333 95.5,54.5C 94.8333,55.1667 94.1667,55.8333 93.5,56.5C 93.5,50.5 93.5,44.5 93.5,38.5 Z"/></g>
<g><path style="opacity:1" fill="#f8d776" d="M 66.5,40.5 C 64.5165,40.3832 62.8498,41.0499 61.5,42.5C 60.3961,41.3687 60.7295,40.5354 62.5,40C 58.8333,39.3333 57.8333,40.6667 59.5,44C 56.716,46.0805 57.0493,46.7472 60.5,46C 62.1911,44.5946 64.0245,43.4279 66,42.5C 66.8159,43.8228 67.9826,44.4894 69.5,44.5C 67.4357,45.8676 65.1024,46.8676 62.5,47.5C 66.0805,48.3559 66.2472,49.3559 63,50.5C 61.7147,50.0496 60.548,49.3829 59.5,48.5C 58.1667,49.8333 56.8333,49.8333 55.5,48.5C 55.1667,48.8333 54.8333,49.1667 54.5,49.5C 55.6016,50.1757 56.6016,50.8423 57.5,51.5C 56.7611,51.369 56.0944,51.5357 55.5,52C 58.4489,54.6904 59.4489,57.8571 58.5,61.5C 56.5171,60.018 54.6837,58.3513 53,56.5C 53.6292,59.4843 53.4626,62.4843 52.5,65.5C 52.2514,64.4179 52.0848,63.0846 52,61.5C 50.9153,59.627 49.582,57.9603 48,56.5C 47.6667,57.5 47.3333,58.5 47,59.5C 46.6667,59.1667 46.3333,58.8333 46,58.5C 45.3653,60.6354 45.6986,62.6354 47,64.5C 47.3333,63.5 47.6667,62.5 48,61.5C 48.3333,63.1667 48.6667,64.8333 49,66.5C 49.3333,66.1667 49.6667,65.8333 50,65.5C 50.5,66.5 51,67.5 51.5,68.5C 50.2815,68.109 49.4482,68.7756 49,70.5C 48.0853,69.6721 47.4186,68.6721 47,67.5C 46.7679,68.7375 46.2679,69.7375 45.5,70.5C 44.4058,68.6406 43.5725,66.6406 43,64.5C 42.7787,67.9431 41.7787,68.2764 40,65.5C 39.6667,66.5 39.3333,67.5 39,68.5C 38.0656,67.1416 37.2323,65.8083 36.5,64.5C 36.415,62.0712 35.415,60.0712 33.5,58.5C 32.7492,59.376 32.2492,60.376 32,61.5C 30.6424,59.2369 29.1424,57.0702 27.5,55C 27.8777,53.3651 28.5444,51.8651 29.5,50.5C 30.3279,51.4147 31.3279,52.0814 32.5,52.5C 33.9555,51.6102 35.2888,51.6102 36.5,52.5C 40.3502,50.8261 42.8502,48.1594 44,44.5C 40.8308,47.0016 37.3308,47.6683 33.5,46.5C 34.1616,43.6393 35.6616,42.9727 38,44.5C 43.4706,43.093 43.6372,41.593 38.5,40C 39.6537,39.0862 39.487,38.2529 38,37.5C 35.8215,38.8398 35.3215,38.5065 36.5,36.5C 38.9032,36.393 40.7365,37.393 42,39.5C 41.8516,38.175 42.0183,37.0084 42.5,36C 43.1667,35.3333 43.8333,35.3333 44.5,36C 43.3044,36.6543 43.3044,37.1543 44.5,37.5C 45.7989,36.91 46.6322,35.91 47,34.5C 48.2837,35.5719 48.6171,36.9052 48,38.5C 49.7441,35.8819 50.9108,36.2152 51.5,39.5C 52.1614,38.2825 52.8281,36.9492 53.5,35.5C 54.8924,36.6053 56.059,37.9386 57,39.5C 57.3076,38.6919 57.8076,38.0253 58.5,37.5C 59.451,38.3256 60.451,38.4922 61.5,38C 60.7877,36.575 60.621,35.075 61,33.5C 60.1618,34.999 59.3285,35.3324 58.5,34.5C 59.9349,33.0152 59.7683,31.6819 58,30.5C 56.8118,31.5634 56.3118,32.8967 56.5,34.5C 56.5654,34.9382 56.3988,35.2716 56,35.5C 55.3109,34.6433 54.4776,33.9767 53.5,33.5C 48.6878,34.8762 47.8544,33.8762 51,30.5C 53.702,31.474 55.0354,30.474 55,27.5C 54,28.8333 53,28.8333 52,27.5C 48.7605,28.8484 46.2605,30.1817 44.5,31.5C 42.8914,30.2291 41.0581,29.2291 39,28.5C 38.1667,29.5 37.3333,30.5 36.5,31.5C 34.8651,30.6698 33.1984,30.5031 31.5,31C 34.7596,28.5459 38.093,26.3792 41.5,24.5C 43.3388,23.2475 45.1722,23.2475 47,24.5C 47.3879,23.572 48.0546,22.9054 49,22.5C 52.7592,24.8758 56.4259,24.8758 60,22.5C 60.1218,24.1686 59.7885,25.8353 59,27.5C 56.9672,26.9836 56.9672,27.6503 59,29.5C 60,28.1667 61,28.1667 62,29.5C 63.1186,32.0571 63.2853,34.5571 62.5,37C 63.7305,38.4048 65.0639,39.5714 66.5,40.5 Z"/></g>
<g><path style="opacity:1" fill="#d49630" d="M 51.5,39.5 C 52.9599,41.4628 54.6266,43.2962 56.5,45C 54.255,44.8047 52.4216,43.6381 51,41.5C 50.1107,42.8882 49.6107,42.7215 49.5,41C 49.8361,39.9701 50.5028,39.4701 51.5,39.5 Z"/></g>
<g><path style="opacity:1" fill="#c37410" d="M 58.5,34.5 C 57.8333,34.5 57.1667,34.5 56.5,34.5C 56.3118,32.8967 56.8118,31.5634 58,30.5C 59.7683,31.6819 59.9349,33.0152 58.5,34.5 Z"/></g>
<g><path style="opacity:0.431" fill="#f7dea0" d="M 2.5,34.5 C 2.5,35.1667 2.5,35.8333 2.5,36.5C 1.62037,43.1228 1.28704,49.7895 1.5,56.5C 0.833333,55.8333 0.166667,55.1667 -0.5,54.5C -0.5,49.8333 -0.5,45.1667 -0.5,40.5C 0.797224,38.6287 1.79722,36.6287 2.5,34.5 Z"/></g>
<g><path style="opacity:1" fill="#f9d584" d="M 25.5,26.5 C 26.8333,27.1667 27.8333,28.1667 28.5,29.5C 21.705,36.8973 19.705,45.564 22.5,55.5C 25.281,59.6087 26.281,63.9421 25.5,68.5C 26.552,68.3505 27.552,68.5172 28.5,69C 28.1667,69.3333 27.8333,69.6667 27.5,70C 29.1554,71.4443 29.822,73.2776 29.5,75.5C 30.1667,77.1667 30.8333,78.8333 31.5,80.5C 30.4168,80.5394 29.4168,80.8728 28.5,81.5C 16.8768,68.6737 12.7102,53.3404 16,35.5C 17.7699,30.1656 21.2699,27.999 26.5,29C 25.001,28.1618 24.6676,27.3285 25.5,26.5 Z"/></g>
<g><path style="opacity:1" fill="#e1ab41" d="M 48.5,49.5 C 49.552,49.3505 50.552,49.5172 51.5,50C 47.0593,53.4111 42.0593,55.5778 36.5,56.5C 37.7324,58.1569 38.5658,59.8236 39,61.5C 36.5603,60.7262 35.227,59.0595 35,56.5C 29.5709,58.1571 29.4042,57.3237 34.5,54C 35.7839,53.3162 36.9505,53.4829 38,54.5C 41.4711,52.482 44.9711,50.8153 48.5,49.5 Z"/></g>
<g><path style="opacity:1" fill="#f3be56" d="M 93.5,56.5 C 93.001,61.6692 91.3343,66.3358 88.5,70.5C 88.2289,68.1789 88.8955,66.1789 90.5,64.5C 89.8806,61.3694 90.8806,58.7027 93.5,56.5 Z"/></g>
<g><path style="opacity:1" fill="#daa037" d="M 69.5,44.5 C 71.8008,45.0604 74.1341,45.5604 76.5,46C 75.3279,46.4186 74.3279,47.0853 73.5,48C 76.2594,50.4837 75.926,51.6503 72.5,51.5C 72.2122,55.9971 71.3788,59.9971 70,63.5C 67.6019,59.5984 67.1019,59.9317 68.5,64.5C 66.3091,65.078 64.6424,64.078 63.5,61.5C 64.3554,60.707 65.1887,61.0403 66,62.5C 65.4644,60.553 65.7978,58.553 67,56.5C 68.016,57.6341 68.6827,57.3008 69,55.5C 69.7175,56.4506 70.5509,56.6172 71.5,56C 70.3128,54.9805 69.3128,53.8139 68.5,52.5C 70.3909,51.6893 71.7242,50.3559 72.5,48.5C 71.635,47.4173 70.635,47.2506 69.5,48C 68.2182,49.6916 66.5515,51.6916 64.5,54C 65.5536,55.3876 65.7203,56.8876 65,58.5C 64.2588,59.6405 63.4255,59.6405 62.5,58.5C 61.3825,64.3079 58.8825,64.9746 55,60.5C 54.376,62.4645 54.876,64.1311 56.5,65.5C 55.1832,65.3131 53.8499,65.9798 52.5,67.5C 53.4978,70.0278 54.3311,70.0278 55,67.5C 58.2299,72.2714 57.2299,73.2714 52,70.5C 50.9701,70.8361 50.4701,71.5028 50.5,72.5C 49.1751,71.0474 48.3418,71.3808 48,73.5C 46.583,72.9221 45.7496,71.9221 45.5,70.5C 46.2679,69.7375 46.7679,68.7375 47,67.5C 47.4186,68.6721 48.0853,69.6721 49,70.5C 49.4482,68.7756 50.2815,68.109 51.5,68.5C 51,67.5 50.5,66.5 50,65.5C 49.6667,65.8333 49.3333,66.1667 49,66.5C 48.6667,64.8333 48.3333,63.1667 48,61.5C 47.6667,62.5 47.3333,63.5 47,64.5C 45.6986,62.6354 45.3653,60.6354 46,58.5C 46.3333,58.8333 46.6667,59.1667 47,59.5C 47.3333,58.5 47.6667,57.5 48,56.5C 49.582,57.9603 50.9153,59.627 52,61.5C 52.0848,63.0846 52.2514,64.4179 52.5,65.5C 53.4626,62.4843 53.6292,59.4843 53,56.5C 54.6837,58.3513 56.5171,60.018 58.5,61.5C 59.4489,57.8571 58.4489,54.6904 55.5,52C 56.0944,51.5357 56.7611,51.369 57.5,51.5C 56.6016,50.8423 55.6016,50.1757 54.5,49.5C 54.8333,49.1667 55.1667,48.8333 55.5,48.5C 56.8333,49.8333 58.1667,49.8333 59.5,48.5C 60.548,49.3829 61.7147,50.0496 63,50.5C 66.2472,49.3559 66.0805,48.3559 62.5,47.5C 65.1024,46.8676 67.4357,45.8676 69.5,44.5 Z"/></g>
<g><path style="opacity:1" fill="#fde486" d="M 57.5,51.5 C 58.4959,51.5858 59.3292,51.2524 60,50.5C 62.3102,52.1374 63.8102,54.304 64.5,57C 61.5356,56.2281 59.2023,54.3948 57.5,51.5 Z"/></g>
<g><path style="opacity:1" fill="#dea942" d="M 36.5,64.5 C 37.2323,65.8083 38.0656,67.1416 39,68.5C 39.3333,67.5 39.6667,66.5 40,65.5C 41.7787,68.2764 42.7787,67.9431 43,64.5C 43.5725,66.6406 44.4058,68.6406 45.5,70.5C 43.857,70.4802 42.5237,71.1468 41.5,72.5C 40.1861,71.6872 39.0195,70.6872 38,69.5C 37.586,69.9574 37.086,70.2907 36.5,70.5C 35.4164,69.3349 34.5831,68.0016 34,66.5C 33.7811,67.938 33.2811,69.2713 32.5,70.5C 30.3923,67.8434 29.059,64.8434 28.5,61.5C 29.2216,61.0825 29.7216,60.4158 30,59.5C 30.6667,62.1667 31.3333,64.8333 32,67.5C 32.2602,65.3825 33.2602,63.7158 35,62.5C 35.2784,63.4158 35.7784,64.0825 36.5,64.5 Z"/></g>
<g><path style="opacity:1" fill="#f2ca63" d="M 68.5,64.5 C 67.0498,67.2358 65.7164,70.0691 64.5,73C 65.8333,73 67.1667,73 68.5,73C 66.5125,74.3189 65.3459,76.1523 65,78.5C 64.0943,76.388 62.5943,75.5547 60.5,76C 61.8333,78 61.8333,80 60.5,82C 61.5,82.6667 62.5,82.6667 63.5,82C 62.4829,80.9505 62.3162,79.7839 63,78.5C 64.6625,80.1579 65.4959,82.1579 65.5,84.5C 61.7159,86.316 57.7159,87.316 53.5,87.5C 54.4054,86.0357 54.4054,84.7024 53.5,83.5C 55.6957,83.4348 57.6957,82.7681 59.5,81.5C 58.3131,81.4464 56.9798,81.1131 55.5,80.5C 56.0253,79.8076 56.6919,79.3076 57.5,79C 56.3266,75.8897 56.8266,75.723 59,78.5C 59.4828,77.552 59.6495,76.552 59.5,75.5C 57.5,75.5 55.5,75.5 53.5,75.5C 52.3065,74.7281 51.3065,73.7281 50.5,72.5C 50.4701,71.5028 50.9701,70.8361 52,70.5C 57.2299,73.2714 58.2299,72.2714 55,67.5C 54.3311,70.0278 53.4978,70.0278 52.5,67.5C 53.8499,65.9798 55.1832,65.3131 56.5,65.5C 54.876,64.1311 54.376,62.4645 55,60.5C 58.8825,64.9746 61.3825,64.3079 62.5,58.5C 63.4255,59.6405 64.2588,59.6405 65,58.5C 65.7203,56.8876 65.5536,55.3876 64.5,54C 66.5515,51.6916 68.2182,49.6916 69.5,48C 70.635,47.2506 71.635,47.4173 72.5,48.5C 71.7242,50.3559 70.3909,51.6893 68.5,52.5C 69.3128,53.8139 70.3128,54.9805 71.5,56C 70.5509,56.6172 69.7175,56.4506 69,55.5C 68.6827,57.3008 68.016,57.6341 67,56.5C 65.7978,58.553 65.4644,60.553 66,62.5C 65.1887,61.0403 64.3554,60.707 63.5,61.5C 64.6424,64.078 66.3091,65.078 68.5,64.5 Z"/></g>
<g><path style="opacity:1" fill="#d59728" d="M 61.5,63.5 C 65.2573,64.38 65.2573,65.7134 61.5,67.5C 60.914,67.2907 60.414,66.9574 60,66.5C 59.5814,67.6721 58.9147,68.6721 58,69.5C 57.8782,67.8314 58.2115,66.1647 59,64.5C 60.4609,65.8825 61.2942,65.5492 61.5,63.5 Z"/></g>
<g><path style="opacity:1" fill="#eac15d" d="M 20.5,77.5 C 29.9764,86.1051 40.9764,89.4385 53.5,87.5C 57.7159,87.316 61.7159,86.316 65.5,84.5C 66.391,83.8902 67.391,83.5569 68.5,83.5C 68.9382,83.4346 69.2716,83.6012 69.5,84C 68.5842,84.2784 67.9175,84.7784 67.5,85.5C 53.1901,91.346 39.1901,90.6793 25.5,83.5C 24.7174,85.2882 23.3841,86.2882 21.5,86.5C 10.3501,79.5454 3.68343,69.5454 1.5,56.5C 1.28704,49.7895 1.62037,43.1228 2.5,36.5C 3.26791,35.7375 3.76791,34.7375 4,33.5C 4.63681,35.3031 5.80348,36.6364 7.5,37.5C 7.29069,38.086 6.95735,38.586 6.5,39C 7.31038,44.7512 7.81038,50.5845 8,56.5C 10.1391,64.7894 14.3057,71.7894 20.5,77.5 Z"/></g>
<g><path style="opacity:1" fill="#fada87" d="M 28.5,29.5 C 28.6107,30.1174 28.944,30.6174 29.5,31C 28.0258,33.9903 27.0258,37.157 26.5,40.5C 27.3389,45.6742 27.0056,50.8408 25.5,56C 26.2311,58.0828 27.2311,59.9161 28.5,61.5C 29.059,64.8434 30.3923,67.8434 32.5,70.5C 33.2811,69.2713 33.7811,67.938 34,66.5C 34.5831,68.0016 35.4164,69.3349 36.5,70.5C 37.086,70.2907 37.586,69.9574 38,69.5C 39.0195,70.6872 40.1861,71.6872 41.5,72.5C 42.5237,71.1468 43.857,70.4802 45.5,70.5C 45.7496,71.9221 46.583,72.9221 48,73.5C 48.3418,71.3808 49.1751,71.0474 50.5,72.5C 51.3065,73.7281 52.3065,74.7281 53.5,75.5C 52.1667,75.5 50.8333,75.5 49.5,75.5C 48.8617,77.46 48.8617,79.2933 49.5,81C 48.3999,81.4317 47.7332,80.9317 47.5,79.5C 49.1349,76.2949 48.1349,75.1282 44.5,76C 45.807,77.9435 45.807,79.7768 44.5,81.5C 44.8362,76.9999 42.8362,75.1666 38.5,76C 35.5983,78.8642 35.9316,81.0308 39.5,82.5C 40.2625,83.2679 41.2625,83.7679 42.5,84C 39.3167,84.6604 36.65,83.827 34.5,81.5C 33.3871,80.0536 33.2204,78.3869 34,76.5C 35.0875,78.9316 35.5875,78.5983 35.5,75.5C 33.5,75.5 31.5,75.5 29.5,75.5C 29.822,73.2776 29.1554,71.4443 27.5,70C 27.8333,69.6667 28.1667,69.3333 28.5,69C 27.552,68.5172 26.552,68.3505 25.5,68.5C 26.281,63.9421 25.281,59.6087 22.5,55.5C 19.705,45.564 21.705,36.8973 28.5,29.5 Z"/></g>
<g><path style="opacity:1" fill="#e9b436" d="M 76.5,65.5 C 76.9547,68.9854 77.1214,72.6521 77,76.5C 78.6667,73.5 81,71.1667 84,69.5C 84.6082,71.0664 85.4415,72.3998 86.5,73.5C 83.1667,78.8333 78.8333,83.1667 73.5,86.5C 71.5082,86.3285 69.8415,86.9951 68.5,88.5C 68.0357,87.3636 67.7024,86.3636 67.5,85.5C 67.9175,84.7784 68.5842,84.2784 69.5,84C 69.2716,83.6012 68.9382,83.4346 68.5,83.5C 71.4819,79.7416 72.4819,75.5749 71.5,71C 72.8334,68.8094 74.5,66.976 76.5,65.5 Z"/></g>
<g><path style="opacity:1" fill="#ceab5b" d="M 29.5,75.5 C 31.5,75.5 33.5,75.5 35.5,75.5C 35.5875,78.5983 35.0875,78.9316 34,76.5C 33.2204,78.3869 33.3871,80.0536 34.5,81.5C 33.3991,82.5983 32.0657,82.765 30.5,82C 31.056,81.6174 31.3893,81.1174 31.5,80.5C 30.8333,78.8333 30.1667,77.1667 29.5,75.5 Z"/></g>
<g><path style="opacity:1" fill="#caa656" d="M 44.5,81.5 C 42.8828,82.038 41.2161,82.3713 39.5,82.5C 35.9316,81.0308 35.5983,78.8642 38.5,76C 42.8362,75.1666 44.8362,76.9999 44.5,81.5 Z"/></g>
<g><path style="opacity:1" fill="#fadb8b" d="M 38.5,77.5 C 39.8333,77.5 41.1667,77.5 42.5,77.5C 42.7778,79.3464 42.1112,80.6798 40.5,81.5C 38.8888,80.6798 38.2222,79.3464 38.5,77.5 Z"/></g>
<g><path style="opacity:1" fill="#d7b158" d="M 53.5,75.5 C 55.5,75.5 57.5,75.5 59.5,75.5C 59.6495,76.552 59.4828,77.552 59,78.5C 56.8266,75.723 56.3266,75.8897 57.5,79C 56.6919,79.3076 56.0253,79.8076 55.5,80.5C 56.9798,81.1131 58.3131,81.4464 59.5,81.5C 57.6957,82.7681 55.6957,83.4348 53.5,83.5C 49.9878,84.0545 46.9878,83.3878 44.5,81.5C 45.807,79.7768 45.807,77.9435 44.5,76C 48.1349,75.1282 49.1349,76.2949 47.5,79.5C 47.7332,80.9317 48.3999,81.4317 49.5,81C 48.8617,79.2933 48.8617,77.46 49.5,75.5C 50.8333,75.5 52.1667,75.5 53.5,75.5 Z"/></g>
<g><path style="opacity:1" fill="#f6ce6c" d="M 67.5,85.5 C 67.7024,86.3636 68.0357,87.3636 68.5,88.5C 69.8415,86.9951 71.5082,86.3285 73.5,86.5C 68.6418,90.5699 62.9751,92.9032 56.5,93.5C 50.5,93.5 44.5,93.5 38.5,93.5C 32.0249,92.9032 26.3582,90.5699 21.5,86.5C 23.3841,86.2882 24.7174,85.2882 25.5,83.5C 39.1901,90.6793 53.1901,91.346 67.5,85.5 Z"/></g>
<g><path style="opacity:0.714" fill="#fae3aa" d="M 38.5,93.5 C 44.5,93.5 50.5,93.5 56.5,93.5C 55.8333,94.1667 55.1667,94.8333 54.5,95.5C 49.8333,95.5 45.1667,95.5 40.5,95.5C 39.8333,94.8333 39.1667,94.1667 38.5,93.5 Z"/></g>
</svg>
