<?xml version="1.0" encoding="UTF-8"?>
<!DOCTYPE svg PUBLIC "-//W3C//DTD SVG 1.1//EN" "http://www.w3.org/Graphics/SVG/1.1/DTD/svg11.dtd">
<svg xmlns="http://www.w3.org/2000/svg" version="1.1" width="96px" height="96px" style="shape-rendering:geometricPrecision; text-rendering:geometricPrecision; image-rendering:optimizeQuality; fill-rule:evenodd; clip-rule:evenodd" xmlns:xlink="http://www.w3.org/1999/xlink">
<g><path style="opacity:0.651" fill="#f6f9fb" d="M 36.5,-0.5 C 43.8333,-0.5 51.1667,-0.5 58.5,-0.5C 78.0246,5.69097 90.358,18.691 95.5,38.5C 95.5,44.5 95.5,50.5 95.5,56.5C 90.2484,76.7513 77.5817,89.7513 57.5,95.5C 50.8333,95.5 44.1667,95.5 37.5,95.5C 17.4004,89.7338 4.73372,76.7338 -0.5,56.5C -0.5,50.5 -0.5,44.5 -0.5,38.5C 4.65488,18.6787 16.9882,5.67871 36.5,-0.5 Z"/></g>
<g><path style="opacity:1" fill="#69ace4" d="M 91.5,59.5 C 90.6261,58.4749 89.4595,57.8082 88,57.5C 84.3218,58.2906 80.8218,59.4573 77.5,61C 75.2937,62.6839 73.7937,64.8505 73,67.5C 72.5357,66.9056 72.369,66.2389 72.5,65.5C 72.8757,60.7268 71.8757,56.3934 69.5,52.5C 68.506,50.6656 68.506,48.9989 69.5,47.5C 70.8333,49.5 72.5,51.1667 74.5,52.5C 74.1568,54.4832 74.8235,55.8166 76.5,56.5C 78.5314,53.2924 78.8647,49.959 77.5,46.5C 77.3915,44.4862 78.0582,42.8195 79.5,41.5C 82.0593,41.8016 84.3926,41.4682 86.5,40.5C 87.709,38.5654 87.5423,36.5654 86,34.5C 82.9497,29.691 79.4497,25.3577 75.5,21.5C 77.0419,20.8365 78.7086,20.1698 80.5,19.5C 79.019,17.3463 77.019,16.013 74.5,15.5C 72.9623,15.4534 71.9623,16.1201 71.5,17.5C 67.9504,13.7859 63.9504,10.6193 59.5,8C 56.2914,7.34835 53.6248,8.18169 51.5,10.5C 50.391,10.4431 49.391,10.1098 48.5,9.5C 44.6888,8.58797 41.0221,8.58797 37.5,9.5C 37.2648,8.90326 36.7648,8.56993 36,8.5C 34.1997,9.31952 32.3664,9.98619 30.5,10.5C 27.4887,11.6693 24.822,13.336 22.5,15.5C 21.5,17.1667 20.1667,18.5 18.5,19.5C 17.0937,19.9731 16.427,20.9731 16.5,22.5C 15.0937,22.9731 14.427,23.9731 14.5,25.5C 14.6716,26.4916 14.3382,27.1583 13.5,27.5C 13.6495,26.448 13.4828,25.448 13,24.5C 11.2792,28.1103 9.44583,31.6103 7.5,35C 7.16667,35.1667 6.83333,35.3333 6.5,35.5C 6.0478,29.5422 8.0478,24.3756 12.5,20C 11.9056,19.5357 11.2389,19.369 10.5,19.5C 26.4093,1.08008 45.7427,-3.41992 68.5,6C 89.5324,18.2191 97.1991,36.0525 91.5,59.5 Z"/></g>
<g><path style="opacity:1" fill="#78887b" d="M 48.5,9.5 C 47.0991,12.7036 46.0991,16.0369 45.5,19.5C 43.901,19.7678 42.5676,19.4345 41.5,18.5C 42.5,18.5 43.5,18.5 44.5,18.5C 44.5923,14.9286 42.9257,13.7619 39.5,15C 40.6843,16.1455 40.6843,17.3121 39.5,18.5C 38.71,17.3915 38.21,16.0581 38,14.5C 37.0206,19.6895 39.1872,22.3562 44.5,22.5C 42.0621,23.8863 39.7288,23.553 37.5,21.5C 34.9986,17.2306 34.9986,13.2306 37.5,9.5C 41.0221,8.58797 44.6888,8.58797 48.5,9.5 Z"/></g>
<g><path style="opacity:1" fill="#586b5c" d="M 71.5,17.5 C 72.5,19.1667 73.8333,20.5 75.5,21.5C 79.4497,25.3577 82.9497,29.691 86,34.5C 87.5423,36.5654 87.709,38.5654 86.5,40.5C 80.8516,30.0111 73.1849,21.1778 63.5,14C 61.6354,12.6986 59.6354,12.3653 57.5,13C 60.6521,16.154 64.3187,18.4873 68.5,20C 69.9597,20.8113 70.293,21.6446 69.5,22.5C 63.8312,21.3369 58.4979,19.3369 53.5,16.5C 51.6425,17.2665 49.9758,18.2665 48.5,19.5C 49.1847,17.5856 49.6847,15.5856 50,13.5C 52.087,12.2062 54.2537,11.0395 56.5,10C 54.8034,9.61553 53.1368,9.78219 51.5,10.5C 53.6248,8.18169 56.2914,7.34835 59.5,8C 63.9504,10.6193 67.9504,13.7859 71.5,17.5 Z"/></g>
<g><path style="opacity:1" fill="#405044" d="M 37.5,9.5 C 34.9986,13.2306 34.9986,17.2306 37.5,21.5C 39.7288,23.553 42.0621,23.8863 44.5,22.5C 46.4044,22.2624 47.7377,21.2624 48.5,19.5C 49.9758,18.2665 51.6425,17.2665 53.5,16.5C 58.4979,19.3369 63.8312,21.3369 69.5,22.5C 70.293,21.6446 69.9597,20.8113 68.5,20C 64.3187,18.4873 60.6521,16.154 57.5,13C 59.6354,12.3653 61.6354,12.6986 63.5,14C 73.1849,21.1778 80.8516,30.0111 86.5,40.5C 84.3926,41.4682 82.0593,41.8016 79.5,41.5C 78.9222,40.453 78.2555,40.6197 77.5,42C 73.8617,42.2499 70.3617,42.4166 67,42.5C 66.6258,41.5838 66.1258,40.7504 65.5,40C 62.7627,38.9236 60.096,37.757 57.5,36.5C 47.104,33.1399 37.104,33.9732 27.5,39C 26.001,39.8382 25.6676,40.6715 26.5,41.5C 26.5,42.1667 26.1667,42.5 25.5,42.5C 20.3948,42.8545 15.8948,41.5211 12,38.5C 11.1955,35.3035 11.3622,32.3035 12.5,29.5C 12.1081,32.7216 12.6081,35.7216 14,38.5C 14.4935,36.8659 14.6602,35.1992 14.5,33.5C 18.6145,25.1033 24.2812,17.9366 31.5,12C 30.944,11.6174 30.6107,11.1174 30.5,10.5C 32.3664,9.98619 34.1997,9.31952 36,8.5C 36.7648,8.56993 37.2648,8.90326 37.5,9.5 Z"/></g>
<g><path style="opacity:1" fill="#a8b3a9" d="M 48.5,19.5 C 47.7377,21.2624 46.4044,22.2624 44.5,22.5C 46.7953,19.6086 48.2953,16.2753 49,12.5C 49.9947,11.9341 50.828,11.2674 51.5,10.5C 53.1368,9.78219 54.8034,9.61553 56.5,10C 54.2537,11.0395 52.087,12.2062 50,13.5C 49.6847,15.5856 49.1847,17.5856 48.5,19.5 Z"/></g>
<g><path style="opacity:1" fill="#9cbfdc" d="M 75.5,21.5 C 73.8333,20.5 72.5,19.1667 71.5,17.5C 71.9623,16.1201 72.9623,15.4534 74.5,15.5C 77.019,16.013 79.019,17.3463 80.5,19.5C 78.7086,20.1698 77.0419,20.8365 75.5,21.5 Z"/></g>
<g><path style="opacity:1" fill="#96a49a" d="M 30.5,10.5 C 30.6107,11.1174 30.944,11.6174 31.5,12C 24.2812,17.9366 18.6145,25.1033 14.5,33.5C 15.5965,26.483 18.9298,20.6496 24.5,16C 23.9056,15.5357 23.2389,15.369 22.5,15.5C 24.822,13.336 27.4887,11.6693 30.5,10.5 Z"/></g>
<g><path style="opacity:1" fill="#344a38" d="M 48.5,9.5 C 49.391,10.1098 50.391,10.4431 51.5,10.5C 50.828,11.2674 49.9947,11.9341 49,12.5C 48.2953,16.2753 46.7953,19.6086 44.5,22.5C 39.1872,22.3562 37.0206,19.6895 38,14.5C 38.21,16.0581 38.71,17.3915 39.5,18.5C 40.1667,18.5 40.8333,18.5 41.5,18.5C 42.5676,19.4345 43.901,19.7678 45.5,19.5C 46.0991,16.0369 47.0991,12.7036 48.5,9.5 Z"/></g>
<g><path style="opacity:1" fill="#ebedeb" d="M 41.5,18.5 C 40.8333,18.5 40.1667,18.5 39.5,18.5C 40.6843,17.3121 40.6843,16.1455 39.5,15C 42.9257,13.7619 44.5923,14.9286 44.5,18.5C 43.5,18.5 42.5,18.5 41.5,18.5 Z"/></g>
<g><path style="opacity:1" fill="#4e6655" d="M 18.5,19.5 C 18.573,21.0269 17.9063,22.0269 16.5,22.5C 16.427,20.9731 17.0937,19.9731 18.5,19.5 Z"/></g>
<g><path style="opacity:1" fill="#3f5747" d="M 16.5,22.5 C 16.573,24.0269 15.9063,25.0269 14.5,25.5C 14.427,23.9731 15.0937,22.9731 16.5,22.5 Z"/></g>
<g><path style="opacity:1" fill="#cad0c9" d="M 22.5,15.5 C 23.2389,15.369 23.9056,15.5357 24.5,16C 18.9298,20.6496 15.5965,26.483 14.5,33.5C 14.6602,35.1992 14.4935,36.8659 14,38.5C 12.6081,35.7216 12.1081,32.7216 12.5,29.5C 12.3284,28.5084 12.6618,27.8417 13.5,27.5C 14.3382,27.1583 14.6716,26.4916 14.5,25.5C 15.9063,25.0269 16.573,24.0269 16.5,22.5C 17.9063,22.0269 18.573,21.0269 18.5,19.5C 20.1667,18.5 21.5,17.1667 22.5,15.5 Z"/></g>
<g><path style="opacity:1" fill="#6bade6" d="M 10.5,19.5 C 11.2389,19.369 11.9056,19.5357 12.5,20C 8.0478,24.3756 6.0478,29.5422 6.5,35.5C 6.83333,35.3333 7.16667,35.1667 7.5,35C 9.44583,31.6103 11.2792,28.1103 13,24.5C 13.4828,25.448 13.6495,26.448 13.5,27.5C 12.6618,27.8417 12.3284,28.5084 12.5,29.5C 11.3622,32.3035 11.1955,35.3035 12,38.5C 15.8948,41.5211 20.3948,42.8545 25.5,42.5C 24.5592,44.0495 23.8925,45.7162 23.5,47.5C 22.5717,51.812 20.9051,55.812 18.5,59.5C 17.5318,61.6074 17.1984,63.9407 17.5,66.5C 14.8858,66.7229 13.2191,65.5562 12.5,63C 13.7376,63.0773 14.7376,62.9106 15.5,62.5C 14.8333,62.1667 14.1667,61.8333 13.5,61.5C 11.641,62.6901 9.80766,62.6901 8,61.5C 6.69736,61.9783 5.53069,62.645 4.5,63.5C -1.07316,47.7396 0.926837,33.0729 10.5,19.5 Z"/></g>
<g><path style="opacity:1" fill="#b6393d" d="M 57.5,36.5 C 56.4324,37.4345 55.099,37.7678 53.5,37.5C 50.5,37.5 47.5,37.5 44.5,37.5C 41.9407,37.1984 39.6074,37.5318 37.5,38.5C 33.6861,39.0364 30.0194,40.0364 26.5,41.5C 25.6676,40.6715 26.001,39.8382 27.5,39C 37.104,33.9732 47.104,33.1399 57.5,36.5 Z"/></g>
<g><path style="opacity:1" fill="#428421" d="M 44.5,37.5 C 47.5,37.5 50.5,37.5 53.5,37.5C 56.0232,38.3844 58.6898,39.2177 61.5,40C 62.4113,42.4148 64.078,43.9148 66.5,44.5C 67.038,46.1172 67.3713,47.7839 67.5,49.5C 65.901,49.7678 64.5676,49.4345 63.5,48.5C 64.3324,47.6715 63.999,46.8382 62.5,46C 60.0645,45.147 57.7312,44.147 55.5,43C 53.6476,42.2274 52.3143,42.7274 51.5,44.5C 48.1667,43.1667 45.8333,40.8333 44.5,37.5 Z"/></g>
<g><path style="opacity:1" fill="#3f801f" d="M 37.5,38.5 C 41.2151,38.2132 43.5485,39.8799 44.5,43.5C 36.4829,41.255 29.4829,42.9217 23.5,48.5C 23.5,48.1667 23.5,47.8333 23.5,47.5C 23.8925,45.7162 24.5592,44.0495 25.5,42.5C 26.1667,42.5 26.5,42.1667 26.5,41.5C 30.0194,40.0364 33.6861,39.0364 37.5,38.5 Z"/></g>
<g><path style="opacity:1" fill="#8ee35f" d="M 63.5,48.5 C 59.5,47.1667 55.5,45.8333 51.5,44.5C 52.3143,42.7274 53.6476,42.2274 55.5,43C 57.7312,44.147 60.0645,45.147 62.5,46C 63.999,46.8382 64.3324,47.6715 63.5,48.5 Z"/></g>
<g><path style="opacity:1" fill="#093010" d="M 37.5,38.5 C 39.6074,37.5318 41.9407,37.1984 44.5,37.5C 45.8333,40.8333 48.1667,43.1667 51.5,44.5C 55.5,45.8333 59.5,47.1667 63.5,48.5C 64.5676,49.4345 65.901,49.7678 67.5,49.5C 67.3713,47.7839 67.038,46.1172 66.5,44.5C 68.1436,44.8102 69.1436,45.8102 69.5,47.5C 68.506,48.9989 68.506,50.6656 69.5,52.5C 67.4159,53.2483 65.4159,53.2483 63.5,52.5C 61.6944,55.472 59.6944,58.3053 57.5,61C 53.8201,62.0274 50.6534,61.1941 48,58.5C 46.8553,53.9174 46.1887,49.2508 46,44.5C 45.6174,43.944 45.1174,43.6107 44.5,43.5C 43.5485,39.8799 41.2151,38.2132 37.5,38.5 Z"/></g>
<g><path style="opacity:1" fill="#89dd5c" d="M 44.5,43.5 C 45.1174,43.6107 45.6174,43.944 46,44.5C 46.1887,49.2508 46.8553,53.9174 48,58.5C 50.6534,61.1941 53.8201,62.0274 57.5,61C 59.6944,58.3053 61.6944,55.472 63.5,52.5C 65.4159,53.2483 67.4159,53.2483 69.5,52.5C 69.2786,53.7348 68.6119,54.7348 67.5,55.5C 68.325,56.3857 69.325,56.719 70.5,56.5C 71.5368,64.2604 68.8701,70.4271 62.5,75C 56.6803,78.8662 50.347,81.0329 43.5,81.5C 40.7146,80.6945 37.8813,80.0278 35,79.5C 31.8665,79.1419 30.0332,80.4752 29.5,83.5C 29.0276,85.5313 28.0276,87.1979 26.5,88.5C 24.0038,87.4196 21.6705,86.0862 19.5,84.5C 21.285,80.8803 23.9517,78.047 27.5,76C 26.0161,75.3378 24.6828,74.5045 23.5,73.5C 22.075,72.078 21.075,70.4113 20.5,68.5C 20.0617,66.874 19.7284,65.2073 19.5,63.5C 21.9148,58.8444 23.2481,53.8444 23.5,48.5C 29.4829,42.9217 36.4829,41.255 44.5,43.5 Z"/></g>
<g><path style="opacity:1" fill="#dbdfdd" d="M 36.5,49.5 C 36.6646,52.5184 36.498,55.5184 36,58.5C 35.6174,59.056 35.1174,59.3893 34.5,59.5C 32.8762,59.6399 31.7096,58.9733 31,57.5C 30.3333,54.5 30.3333,51.5 31,48.5C 33.5575,45.6378 35.3908,45.9711 36.5,49.5 Z"/></g>
<g><path style="opacity:1" fill="#7f3126" d="M 57.5,36.5 C 60.096,37.757 62.7627,38.9236 65.5,40C 66.1258,40.7504 66.6258,41.5838 67,42.5C 70.3617,42.4166 73.8617,42.2499 77.5,42C 78.2555,40.6197 78.9222,40.453 79.5,41.5C 78.0582,42.8195 77.3915,44.4862 77.5,46.5C 75.6481,45.9111 73.8148,45.2444 72,44.5C 71.51,45.7932 71.3433,47.1266 71.5,48.5C 72.5,48.5 73.5,48.5 74.5,48.5C 74.5,49.8333 74.5,51.1667 74.5,52.5C 72.5,51.1667 70.8333,49.5 69.5,47.5C 69.1436,45.8102 68.1436,44.8102 66.5,44.5C 64.078,43.9148 62.4113,42.4148 61.5,40C 58.6898,39.2177 56.0232,38.3844 53.5,37.5C 55.099,37.7678 56.4324,37.4345 57.5,36.5 Z"/></g>
<g><path style="opacity:1" fill="#bd3f3d" d="M 77.5,46.5 C 77.3841,49.8599 77.0508,53.1933 76.5,56.5C 74.8235,55.8166 74.1568,54.4832 74.5,52.5C 74.5,51.1667 74.5,49.8333 74.5,48.5C 73.5,48.5 72.5,48.5 71.5,48.5C 71.3433,47.1266 71.51,45.7932 72,44.5C 73.8148,45.2444 75.6481,45.9111 77.5,46.5 Z"/></g>
<g><path style="opacity:1" fill="#ccd9df" d="M 83.5,47.5 C 84.7562,47.4614 85.7562,47.9614 86.5,49C 84.1703,50.3454 81.8369,50.5121 79.5,49.5C 80.9492,48.8281 82.2825,48.1614 83.5,47.5 Z"/></g>
<g><path style="opacity:1" fill="#536b73" d="M 77.5,46.5 C 78.8647,49.959 78.5314,53.2924 76.5,56.5C 77.0508,53.1933 77.3841,49.8599 77.5,46.5 Z"/></g>
<g><path style="opacity:1" fill="#9eb7c5" d="M 23.5,47.5 C 23.5,47.8333 23.5,48.1667 23.5,48.5C 23.2481,53.8444 21.9148,58.8444 19.5,63.5C 19.7284,65.2073 20.0617,66.874 20.5,68.5C 19.8826,68.3893 19.3826,68.056 19,67.5C 18.5026,64.854 18.3359,62.1873 18.5,59.5C 20.9051,55.812 22.5717,51.812 23.5,47.5 Z"/></g>
<g><path style="opacity:1" fill="#102012" d="M 33.5,51.5 C 33.017,53.3043 33.6837,54.971 35.5,56.5C 33.7066,58.9438 32.7066,58.4438 32.5,55C 32.6483,53.7441 32.9816,52.5774 33.5,51.5 Z"/></g>
<g><path style="opacity:1" fill="#65a74a" d="M 36.5,49.5 C 37.236,52.6954 37.9027,56.0287 38.5,59.5C 35.8214,62.3109 36.1547,64.8109 39.5,67C 44.6287,69.7004 49.2954,68.867 53.5,64.5C 53.8333,64.8333 54.1667,65.1667 54.5,65.5C 50.1954,69.2736 45.1954,70.4403 39.5,69C 36.1078,66.7146 34.4411,63.548 34.5,59.5C 35.1174,59.3893 35.6174,59.056 36,58.5C 36.498,55.5184 36.6646,52.5184 36.5,49.5 Z"/></g>
<g><path style="opacity:1" fill="#4780b2" d="M 18.5,59.5 C 18.3359,62.1873 18.5026,64.854 19,67.5C 19.3826,68.056 19.8826,68.3893 20.5,68.5C 21.075,70.4113 22.075,72.078 23.5,73.5C 20.8215,75.9122 18.4882,78.5788 16.5,81.5C 10.5469,76.8662 6.54688,70.8662 4.5,63.5C 5.53069,62.645 6.69736,61.9783 8,61.5C 9.80766,62.6901 11.641,62.6901 13.5,61.5C 14.1667,61.8333 14.8333,62.1667 15.5,62.5C 14.7376,62.9106 13.7376,63.0773 12.5,63C 13.2191,65.5562 14.8858,66.7229 17.5,66.5C 17.1984,63.9407 17.5318,61.6074 18.5,59.5 Z"/></g>
<g><path style="opacity:1" fill="#407bae" d="M 91.5,59.5 C 89.6582,69.8564 84.3248,77.8564 75.5,83.5C 73.7113,79.4815 71.0447,76.1482 67.5,73.5C 69.2056,70.8079 70.8722,68.1412 72.5,65.5C 72.369,66.2389 72.5357,66.9056 73,67.5C 73.7937,64.8505 75.2937,62.6839 77.5,61C 80.8218,59.4573 84.3218,58.2906 88,57.5C 89.4595,57.8082 90.6261,58.4749 91.5,59.5 Z"/></g>
<g><path style="opacity:1" fill="#624125" d="M 23.5,73.5 C 24.6828,74.5045 26.0161,75.3378 27.5,76C 23.9517,78.047 21.285,80.8803 19.5,84.5C 18.1667,83.8333 17.1667,82.8333 16.5,81.5C 18.4882,78.5788 20.8215,75.9122 23.5,73.5 Z"/></g>
<g><path style="opacity:1" fill="#408020" d="M 69.5,52.5 C 71.8757,56.3934 72.8757,60.7268 72.5,65.5C 70.8722,68.1412 69.2056,70.8079 67.5,73.5C 65.8042,73.6854 64.4709,74.5187 63.5,76C 67.2138,78.8576 69.8805,82.3576 71.5,86.5C 69.3877,88.7705 66.721,90.1039 63.5,90.5C 62.7671,87.3549 61.7671,84.1882 60.5,81C 56.3208,81.0511 52.1541,81.5511 48,82.5C 46.2933,82.4915 44.7933,82.1582 43.5,81.5C 50.347,81.0329 56.6803,78.8662 62.5,75C 68.8701,70.4271 71.5368,64.2604 70.5,56.5C 69.325,56.719 68.325,56.3857 67.5,55.5C 68.6119,54.7348 69.2786,53.7348 69.5,52.5 Z"/></g>
<g><path style="opacity:1" fill="#402f12" d="M 67.5,73.5 C 71.0447,76.1482 73.7113,79.4815 75.5,83.5C 74.7377,85.2624 73.4044,86.2624 71.5,86.5C 69.8805,82.3576 67.2138,78.8576 63.5,76C 64.4709,74.5187 65.8042,73.6854 67.5,73.5 Z"/></g>
<g><path style="opacity:1" fill="#c8b77c" d="M 45.5,93.5 C 38.5296,93.8421 32.1963,92.1755 26.5,88.5C 28.0276,87.1979 29.0276,85.5313 29.5,83.5C 30.8249,82.0474 31.6582,82.3808 32,84.5C 34.5425,83.1236 34.7092,81.957 32.5,81C 36.8607,80.8415 40.8607,82.0082 44.5,84.5C 44.1667,85.1667 43.8333,85.8333 43.5,86.5C 44.9459,88.6179 45.6126,90.9512 45.5,93.5 Z"/></g>
<g><path style="opacity:1" fill="#c9b87c" d="M 57.5,92.5 C 54.2356,93.3242 50.9023,93.6576 47.5,93.5C 47.5,90.1667 47.5,86.8333 47.5,83.5C 52.1727,82.5092 55.506,84.1759 57.5,88.5C 56.5585,88.4895 55.8919,88.9895 55.5,90C 56.0556,91.0111 56.7222,91.8444 57.5,92.5 Z"/></g>
<g><path style="opacity:1" fill="#747347" d="M 43.5,81.5 C 44.7933,82.1582 46.2933,82.4915 48,82.5C 52.1541,81.5511 56.3208,81.0511 60.5,81C 61.7671,84.1882 62.7671,87.3549 63.5,90.5C 61.7857,91.7384 59.7857,92.405 57.5,92.5C 56.7222,91.8444 56.0556,91.0111 55.5,90C 55.8919,88.9895 56.5585,88.4895 57.5,88.5C 55.506,84.1759 52.1727,82.5092 47.5,83.5C 47.5,86.8333 47.5,90.1667 47.5,93.5C 46.8333,93.5 46.1667,93.5 45.5,93.5C 45.6126,90.9512 44.9459,88.6179 43.5,86.5C 43.8333,85.8333 44.1667,85.1667 44.5,84.5C 40.8607,82.0082 36.8607,80.8415 32.5,81C 34.7092,81.957 34.5425,83.1236 32,84.5C 31.6582,82.3808 30.8249,82.0474 29.5,83.5C 30.0332,80.4752 31.8665,79.1419 35,79.5C 37.8813,80.0278 40.7146,80.6945 43.5,81.5 Z"/></g>
</svg>
