<?xml version="1.0" encoding="UTF-8"?>
<!DOCTYPE svg PUBLIC "-//W3C//DTD SVG 1.1//EN" "http://www.w3.org/Graphics/SVG/1.1/DTD/svg11.dtd">
<svg xmlns="http://www.w3.org/2000/svg" version="1.1" width="96px" height="96px" style="shape-rendering:geometricPrecision; text-rendering:geometricPrecision; image-rendering:optimizeQuality; fill-rule:evenodd; clip-rule:evenodd" xmlns:xlink="http://www.w3.org/1999/xlink">
<g><path style="opacity:0.952" fill="#1f2124" d="M 37.5,-0.5 C 44.1667,-0.5 50.8333,-0.5 57.5,-0.5C 77.1667,5.16667 89.8333,17.8333 95.5,37.5C 95.5,44.1667 95.5,50.8333 95.5,57.5C 89.8333,77.1667 77.1667,89.8333 57.5,95.5C 50.8333,95.5 44.1667,95.5 37.5,95.5C 17.8333,89.8333 5.16667,77.1667 -0.5,57.5C -0.5,50.8333 -0.5,44.1667 -0.5,37.5C 5.16667,17.8333 17.8333,5.16667 37.5,-0.5 Z"/></g>
<g><path style="opacity:1" fill="#f4f5f5" d="M 37.5,6.5 C 41.8461,6.33432 46.1794,6.50098 50.5,7C 51.8602,8.93764 51.5268,10.6043 49.5,12C 42.2964,11.5917 35.6297,13.2583 29.5,17C 27.8659,17.4935 26.1992,17.6602 24.5,17.5C 24.2148,15.712 24.5481,14.0453 25.5,12.5C 29.3237,9.92138 33.3237,7.92138 37.5,6.5 Z"/></g>
<g><path style="opacity:1" fill="#edeeee" d="M 60.5,8.5 C 64.1867,9.176 67.5201,10.676 70.5,13C 73.5292,17.6562 72.1958,19.3229 66.5,18C 64.779,16.4728 62.779,15.4728 60.5,15C 57.9387,12.8441 57.9387,10.6774 60.5,8.5 Z"/></g>
<g><path style="opacity:1" fill="#f0f0f0" d="M 15.5,20.5 C 19.0003,20.4954 20.5003,22.1621 20,25.5C 17.2235,28.718 15.2235,32.3847 14,36.5C 9.15424,38.3225 7.48757,36.6558 9,31.5C 11.1782,27.8057 13.3448,24.1391 15.5,20.5 Z"/></g>
<g><path style="opacity:1" fill="#f4914c" d="M 55.5,22.5 C 44.7001,33.4682 34.0335,44.6349 23.5,56C 24.13,57.892 25.13,59.5587 26.5,61C 25.944,61.3826 25.6107,61.8826 25.5,62.5C 17.0819,48.1644 19.4152,35.6644 32.5,25C 39.9287,20.2458 47.5954,19.4124 55.5,22.5 Z"/></g>
<g><path style="opacity:1" fill="#f3f3f3" d="M 77.5,22.5 C 79.9032,22.393 81.7365,23.393 83,25.5C 88.3157,34.4333 89.8157,43.9333 87.5,54C 85.8876,54.7203 84.3876,54.5536 83,53.5C 84.1943,43.1335 81.6943,33.8002 75.5,25.5C 76.1925,24.4822 76.8592,23.4822 77.5,22.5 Z"/></g>
<g><path style="opacity:1" fill="#f5883d" d="M 55.5,22.5 C 58.7541,22.7936 61.4208,24.127 63.5,26.5C 61.4959,27.6728 59.9959,29.3395 59,31.5C 58.586,31.0426 58.086,30.7093 57.5,30.5C 50.1113,38.2196 42.778,45.8863 35.5,53.5C 32.0732,56.7168 29.4066,60.3834 27.5,64.5C 26.5,64.1667 25.8333,63.5 25.5,62.5C 25.6107,61.8826 25.944,61.3826 26.5,61C 25.13,59.5587 24.13,57.892 23.5,56C 34.0335,44.6349 44.7001,33.4682 55.5,22.5 Z"/></g>
<g><path style="opacity:1" fill="#f48030" d="M 63.5,26.5 C 66.1667,28.5 68.5,30.8333 70.5,33.5C 68.9826,33.4894 67.8159,32.8228 67,31.5C 56.6615,43.6701 45.8282,55.3368 34.5,66.5C 33.7542,67.7362 33.4208,69.0695 33.5,70.5C 31.1667,68.8333 29.1667,66.8333 27.5,64.5C 29.4066,60.3834 32.0732,56.7168 35.5,53.5C 42.778,45.8863 50.1113,38.2196 57.5,30.5C 58.086,30.7093 58.586,31.0426 59,31.5C 59.9959,29.3395 61.4959,27.6728 63.5,26.5 Z"/></g>
<g><path style="opacity:1" fill="#f3f4f4" d="M 7.5,45.5 C 9.39037,45.2965 10.8904,45.9632 12,47.5C 12.4986,51.1516 12.6653,54.8183 12.5,58.5C 10.5328,58.7394 8.69946,58.4061 7,57.5C 6.23752,53.4126 6.40419,49.4126 7.5,45.5 Z"/></g>
<g><path style="opacity:1" fill="#f17724" d="M 70.5,33.5 C 74.3123,39.5159 75.3123,45.8492 73.5,52.5C 73.665,49.1501 73.4983,45.8168 73,42.5C 64.1667,52.3333 55.3333,62.1667 46.5,72C 44.6183,72.1981 42.9516,72.6981 41.5,73.5C 38.6202,73.0598 35.9535,72.0598 33.5,70.5C 33.4208,69.0695 33.7542,67.7362 34.5,66.5C 45.8282,55.3368 56.6615,43.6701 67,31.5C 67.8159,32.8228 68.9826,33.4894 70.5,33.5 Z"/></g>
<g><path style="opacity:1" fill="#ee6c12" d="M 73.5,52.5 C 68.9439,69.097 58.2773,76.097 41.5,73.5C 42.9516,72.6981 44.6183,72.1981 46.5,72C 55.3333,62.1667 64.1667,52.3333 73,42.5C 73.4983,45.8168 73.665,49.1501 73.5,52.5 Z"/></g>
<g><path style="opacity:1" fill="#eeeeef" d="M 80.5,61.5 C 81.8221,61.33 82.9887,61.6634 84,62.5C 84.7063,64.9712 84.373,67.3046 83,69.5C 79.8689,73.6328 76.3689,77.4662 72.5,81C 70.8333,81.6667 69.1667,81.6667 67.5,81C 66.4829,79.9505 66.3162,78.7839 67,77.5C 72.4625,72.8798 76.9625,67.5465 80.5,61.5 Z"/></g>
<g><path style="opacity:1" fill="#f3f3f3" d="M 13.5,65.5 C 14.8734,65.3433 16.2068,65.51 17.5,66C 27.8048,80.7717 41.8048,86.105 59.5,82C 60.5536,83.3876 60.7203,84.8876 60,86.5C 39.5151,92.3985 23.6818,86.3985 12.5,68.5C 12.685,67.4163 13.0183,66.4163 13.5,65.5 Z"/></g>
</svg>
