<?xml version="1.0" encoding="UTF-8"?>
<!DOCTYPE svg PUBLIC "-//W3C//DTD SVG 1.1//EN" "http://www.w3.org/Graphics/SVG/1.1/DTD/svg11.dtd">
<svg xmlns="http://www.w3.org/2000/svg" version="1.1" width="96px" height="69px" style="shape-rendering:geometricPrecision; text-rendering:geometricPrecision; image-rendering:optimizeQuality; fill-rule:evenodd; clip-rule:evenodd" xmlns:xlink="http://www.w3.org/1999/xlink">
<g><path style="opacity:0.996" fill="#fbfbfb" d="M -0.5,-0.5 C 13.5,-0.5 27.5,-0.5 41.5,-0.5C 37.4887,2.60095 33.3221,5.60095 29,8.5C 28.0064,15.6707 31.1731,18.6707 38.5,17.5C 38.6657,21.8461 38.499,26.1794 38,30.5C 34.6927,25.7023 31.026,25.3689 27,29.5C 25.7429,37.9947 27.7429,45.6613 33,52.5C 38.2407,54.8597 41.7407,53.3597 43.5,48C 42.6793,45.3569 41.346,43.0236 39.5,41C 40.9961,40.4926 42.1627,40.9926 43,42.5C 46.5523,51.0636 43.719,55.7303 34.5,56.5C 33.5,57.8333 32.5,59.1667 31.5,60.5C 35.3924,63.9432 39.7258,66.6098 44.5,68.5C 29.5,68.5 14.5,68.5 -0.5,68.5C -0.5,45.5 -0.5,22.5 -0.5,-0.5 Z"/></g>
<g><path style="opacity:0.995" fill="#fafafa" d="M 61.5,-0.5 C 72.8333,-0.5 84.1667,-0.5 95.5,-0.5C 95.5,22.5 95.5,45.5 95.5,68.5C 82.1667,68.5 68.8333,68.5 55.5,68.5C 66.6048,65.5138 75.4382,59.1805 82,49.5C 85.1701,43.3509 85.8368,37.0175 84,30.5C 80.304,27.5749 76.9707,27.9083 74,31.5C 74.7841,38.9536 71.7841,43.9536 65,46.5C 64.5,46.1667 64,45.8333 63.5,45.5C 64.325,44.6143 65.325,44.281 66.5,44.5C 66.162,42.146 65.662,39.8127 65,37.5C 64.6667,25.8333 64.3333,14.1667 64,2.5C 62.955,1.62656 62.1217,0.626561 61.5,-0.5 Z"/></g>
<g><path style="opacity:1" fill="#211e1e" d="M 41.5,-0.5 C 43.1667,-0.5 44.8333,-0.5 46.5,-0.5C 47.4293,0.314913 48.4293,1.14825 49.5,2C 44.7121,3.78493 41.7121,7.11826 40.5,12C 41.4202,17.6338 44.7535,20.1338 50.5,19.5C 51.0736,24.6483 50.407,29.4816 48.5,34C 50.5,34.6667 52.5,34.6667 54.5,34C 52.5798,28.8027 51.9132,23.3027 52.5,17.5C 42.9529,17.9946 40.6196,14.3279 45.5,6.5C 49.25,4.63669 52.5833,2.30335 55.5,-0.5C 57.5,-0.5 59.5,-0.5 61.5,-0.5C 62.1217,0.626561 62.955,1.62656 64,2.5C 64.3333,14.1667 64.6667,25.8333 65,37.5C 65.662,39.8127 66.162,42.146 66.5,44.5C 65.325,44.281 64.325,44.6143 63.5,45.5C 64,45.8333 64.5,46.1667 65,46.5C 71.7841,43.9536 74.7841,38.9536 74,31.5C 76.9707,27.9083 80.304,27.5749 84,30.5C 85.8368,37.0175 85.1701,43.3509 82,49.5C 75.4382,59.1805 66.6048,65.5138 55.5,68.5C 51.8333,68.5 48.1667,68.5 44.5,68.5C 39.7258,66.6098 35.3924,63.9432 31.5,60.5C 32.5,59.1667 33.5,57.8333 34.5,56.5C 43.719,55.7303 46.5523,51.0636 43,42.5C 42.1627,40.9926 40.9961,40.4926 39.5,41C 41.346,43.0236 42.6793,45.3569 43.5,48C 41.7407,53.3597 38.2407,54.8597 33,52.5C 27.7429,45.6613 25.7429,37.9947 27,29.5C 31.026,25.3689 34.6927,25.7023 38,30.5C 38.499,26.1794 38.6657,21.8461 38.5,17.5C 31.1731,18.6707 28.0064,15.6707 29,8.5C 33.3221,5.60095 37.4887,2.60095 41.5,-0.5 Z"/></g>
<g><path style="opacity:0.971" fill="#e1e1e1" d="M 46.5,-0.5 C 49.5,-0.5 52.5,-0.5 55.5,-0.5C 52.5833,2.30335 49.25,4.63669 45.5,6.5C 40.6196,14.3279 42.9529,17.9946 52.5,17.5C 51.9132,23.3027 52.5798,28.8027 54.5,34C 52.5,34.6667 50.5,34.6667 48.5,34C 50.407,29.4816 51.0736,24.6483 50.5,19.5C 44.7535,20.1338 41.4202,17.6338 40.5,12C 41.7121,7.11826 44.7121,3.78493 49.5,2C 48.4293,1.14825 47.4293,0.314913 46.5,-0.5 Z"/></g>
<g><path style="opacity:1" fill="#1f1c1d" d="M 20.5,34.5 C 21.8333,34.5 23.1667,34.5 24.5,34.5C 25.1005,42.1342 27.7672,48.9675 32.5,55C 31.8031,57.5277 30.1364,58.6944 27.5,58.5C 25.626,58.6102 24.126,57.9436 23,56.5C 20.0703,51.5442 18.2369,46.2109 17.5,40.5C 17.6284,38.0452 18.6284,36.0452 20.5,34.5 Z"/></g>
</svg>
