<?xml version="1.0" encoding="UTF-8"?>
<!DOCTYPE svg PUBLIC "-//W3C//DTD SVG 1.1//EN" "http://www.w3.org/Graphics/SVG/1.1/DTD/svg11.dtd">
<svg xmlns="http://www.w3.org/2000/svg" version="1.1" width="96px" height="96px" style="shape-rendering:geometricPrecision; text-rendering:geometricPrecision; image-rendering:optimizeQuality; fill-rule:evenodd; clip-rule:evenodd" xmlns:xlink="http://www.w3.org/1999/xlink">
<g><path style="opacity:0.984" fill="#034852" d="M 38.5,-0.5 C 44.5,-0.5 50.5,-0.5 56.5,-0.5C 70.3396,2.84328 81.1729,10.51 89,22.5C 90.4538,25.0711 91.6205,27.7378 92.5,30.5C 91.6715,31.3324 90.8382,30.999 90,29.5C 89.2588,30.6405 88.4255,30.6405 87.5,29.5C 85.1591,30.9768 82.8258,31.3101 80.5,30.5C 79.3527,30.8178 78.5194,31.4844 78,32.5C 75.025,27.025 70.8584,22.6916 65.5,19.5C 64.8933,19.6236 64.56,19.9569 64.5,20.5C 62.6316,19.7368 60.9649,18.7368 59.5,17.5C 61.7602,16.7624 61.9269,15.7624 60,14.5C 57.2666,16.8907 54.5999,16.8907 52,14.5C 50.0417,15.952 48.0417,16.2854 46,15.5C 45.6667,16.1667 45.3333,16.8333 45,17.5C 43.5507,16.3859 42.2173,15.3859 41,14.5C 39.8061,15.4303 38.4728,16.0969 37,16.5C 33.8619,16.3619 30.6953,16.3619 27.5,16.5C 26.5224,16.0233 25.6891,15.3567 25,14.5C 24.6121,15.428 23.9454,16.0946 23,16.5C 19.6209,15.2389 16.2876,15.2389 13,16.5C 12.5357,15.9056 12.369,15.2389 12.5,14.5C 19.672,6.91384 28.3387,1.91384 38.5,-0.5 Z"/></g>
<g><path style="opacity:0.993" fill="#03464f" d="M 12.5,14.5 C 12.369,15.2389 12.5357,15.9056 13,16.5C 16.2876,15.2389 19.6209,15.2389 23,16.5C 23.9454,16.0946 24.6121,15.428 25,14.5C 25.6891,15.3567 26.5224,16.0233 27.5,16.5C 30.6953,16.3619 33.8619,16.3619 37,16.5C 38.4728,16.0969 39.8061,15.4303 41,14.5C 42.2173,15.3859 43.5507,16.3859 45,17.5C 45.3333,16.8333 45.6667,16.1667 46,15.5C 48.0417,16.2854 50.0417,15.952 52,14.5C 54.5999,16.8907 57.2666,16.8907 60,14.5C 61.9269,15.7624 61.7602,16.7624 59.5,17.5C 58.5,17.5 57.5,17.5 56.5,17.5C 55.7249,19.6119 55.7249,21.6119 56.5,23.5C 59.598,25.4161 62.598,27.5828 65.5,30C 63.6527,31.703 61.8194,31.5363 60,29.5C 56.4438,29.3667 52.7771,30.0333 49,31.5C 48.0255,29.1224 47.3589,29.4557 47,32.5C 45.295,30.0228 43.295,28.6894 41,28.5C 40.3333,29.8333 39.3333,30.8333 38,31.5C 36.3333,30.1667 34.6667,30.1667 33,31.5C 30.1997,30.8724 27.533,29.8724 25,28.5C 24.6667,29.5 24.3333,30.5 24,31.5C 21.7328,30.0652 19.7328,30.3985 18,32.5C 16.295,30.0228 14.295,28.6894 12,28.5C 11.2613,29.5742 10.2613,30.2409 9,30.5C 6.74394,30.4227 4.57728,30.4227 2.5,30.5C 4.65408,24.3633 7.98741,19.03 12.5,14.5 Z"/></g>
<g><path style="opacity:1" fill="#f3f6f6" d="M 59.5,17.5 C 60.9649,18.7368 62.6316,19.7368 64.5,20.5C 77.4952,29.171 82.1619,41.171 78.5,56.5C 76.6883,56.2287 75.0217,55.562 73.5,54.5C 74.7994,50.0358 74.7994,45.7025 73.5,41.5C 71.2392,32.2403 65.5726,26.2403 56.5,23.5C 55.7249,21.6119 55.7249,19.6119 56.5,17.5C 57.5,17.5 58.5,17.5 59.5,17.5 Z"/></g>
<g><path style="opacity:0.989" fill="#05424a" d="M 56.5,23.5 C 65.5726,26.2403 71.2392,32.2403 73.5,41.5C 72.9862,46.5415 71.8195,51.5415 70,56.5C 68.285,56.4803 66.4516,55.8136 64.5,54.5C 63.5224,54.9767 62.6891,55.6433 62,56.5C 60.8333,54 59,52.1667 56.5,51C 58.5,50.6667 60.5,50.3333 62.5,50C 55.6536,49.1794 48.987,49.346 42.5,50.5C 41.9569,50.44 41.6236,50.1067 41.5,49.5C 48.4764,48.6689 55.4764,48.1689 62.5,48C 63.3366,46.9887 63.67,45.8221 63.5,44.5C 62.0222,44.762 60.6888,44.4287 59.5,43.5C 56.2684,36.6935 50.935,34.1935 43.5,36C 40.9774,37.3597 38.9774,39.193 37.5,41.5C 37.5654,41.0618 37.3988,40.7284 37,40.5C 34.1369,43.4017 31.8036,43.0684 30,39.5C 29.4806,40.5156 28.6473,41.1822 27.5,41.5C 25.7473,40.4209 24.0806,40.4209 22.5,41.5C 20.951,39.5946 19.1176,39.2613 17,40.5C 16.1508,46.9611 16.6508,53.2945 18.5,59.5C 17.9569,59.56 17.6236,59.8933 17.5,60.5C 18.6405,62.0778 19.1405,63.7445 19,65.5C 17.1952,64.5899 15.3619,63.5899 13.5,62.5C 12.3887,63.6113 11.0554,64.278 9.5,64.5C 6.99294,64.1703 4.65961,64.1703 2.5,64.5C 1.3485,62.2209 0.348502,59.8876 -0.5,57.5C -0.5,50.8333 -0.5,44.1667 -0.5,37.5C 0.348502,35.1124 1.3485,32.7791 2.5,30.5C 4.57728,30.4227 6.74394,30.4227 9,30.5C 10.2613,30.2409 11.2613,29.5742 12,28.5C 14.295,28.6894 16.295,30.0228 18,32.5C 19.7328,30.3985 21.7328,30.0652 24,31.5C 24.3333,30.5 24.6667,29.5 25,28.5C 27.533,29.8724 30.1997,30.8724 33,31.5C 34.6667,30.1667 36.3333,30.1667 38,31.5C 39.3333,30.8333 40.3333,29.8333 41,28.5C 43.295,28.6894 45.295,30.0228 47,32.5C 47.3589,29.4557 48.0255,29.1224 49,31.5C 52.7771,30.0333 56.4438,29.3667 60,29.5C 61.8194,31.5363 63.6527,31.703 65.5,30C 62.598,27.5828 59.598,25.4161 56.5,23.5 Z"/></g>
<g><path style="opacity:1" fill="#eef2f3" d="M 42.5,50.5 C 46.0294,55.4174 50.0294,55.7507 54.5,51.5C 58.2527,52.6403 58.9193,54.4736 56.5,57C 46.3569,62.0913 39.6902,59.2579 36.5,48.5C 34.8333,48.5 33.1667,48.5 31.5,48.5C 31.5,47.1667 31.5,45.8333 31.5,44.5C 33.1992,44.6602 34.8659,44.4935 36.5,44C 37.2524,43.3292 37.5858,42.4959 37.5,41.5C 38.9774,39.193 40.9774,37.3597 43.5,36C 50.935,34.1935 56.2684,36.6935 59.5,43.5C 60.6888,44.4287 62.0222,44.762 63.5,44.5C 63.67,45.8221 63.3366,46.9887 62.5,48C 55.4764,48.1689 48.4764,48.6689 41.5,49.5C 41.6236,50.1067 41.9569,50.44 42.5,50.5 Z"/></g>
<g><path style="opacity:1" fill="#f2f5f5" d="M 22.5,41.5 C 20.9272,46.0854 21.2605,50.4188 23.5,54.5C 25.9487,63.6202 31.6153,69.9535 40.5,73.5C 40.1852,75.483 39.1852,76.8163 37.5,77.5C 28.5843,74.2516 22.251,68.2516 18.5,59.5C 16.6508,53.2945 16.1508,46.9611 17,40.5C 19.1176,39.2613 20.951,39.5946 22.5,41.5 Z"/></g>
<g><path style="opacity:0.982" fill="#064149" d="M 64.5,20.5 C 64.56,19.9569 64.8933,19.6236 65.5,19.5C 70.8584,22.6916 75.025,27.025 78,32.5C 78.5194,31.4844 79.3527,30.8178 80.5,30.5C 82.8258,31.3101 85.1591,30.9768 87.5,29.5C 88.4255,30.6405 89.2588,30.6405 90,29.5C 90.8382,30.999 91.6715,31.3324 92.5,30.5C 93.6515,32.7791 94.6515,35.1124 95.5,37.5C 95.5,43.5 95.5,49.5 95.5,55.5C 93.4028,55.0033 91.5695,54.67 90,54.5C 89.6667,55.1667 89.3333,55.8333 89,56.5C 85.3695,55.4147 81.8695,55.4147 78.5,56.5C 82.1619,41.171 77.4952,29.171 64.5,20.5 Z"/></g>
<g><path style="opacity:1" fill="#0e3f48" d="M 45.5,39.5 C 49.2243,38.7731 51.8909,40.1064 53.5,43.5C 49.8333,44.8333 46.1667,44.8333 42.5,43.5C 43.5244,42.1482 44.5244,40.8149 45.5,39.5 Z"/></g>
<g><path style="opacity:0.994" fill="#073e46" d="M 37.5,41.5 C 37.5858,42.4959 37.2524,43.3292 36.5,44C 34.8659,44.4935 33.1992,44.6602 31.5,44.5C 31.5,45.8333 31.5,47.1667 31.5,48.5C 33.1667,48.5 34.8333,48.5 36.5,48.5C 39.6902,59.2579 46.3569,62.0913 56.5,57C 58.9193,54.4736 58.2527,52.6403 54.5,51.5C 50.0294,55.7507 46.0294,55.4174 42.5,50.5C 48.987,49.346 55.6536,49.1794 62.5,50C 60.5,50.3333 58.5,50.6667 56.5,51C 59,52.1667 60.8333,54 62,56.5C 62.6891,55.6433 63.5224,54.9767 64.5,54.5C 66.4516,55.8136 68.285,56.4803 70,56.5C 71.8195,51.5415 72.9862,46.5415 73.5,41.5C 74.7994,45.7025 74.7994,50.0358 73.5,54.5C 75.0217,55.562 76.6883,56.2287 78.5,56.5C 81.8695,55.4147 85.3695,55.4147 89,56.5C 89.3333,55.8333 89.6667,55.1667 90,54.5C 91.5695,54.67 93.4028,55.0033 95.5,55.5C 95.5,56.1667 95.5,56.8333 95.5,57.5C 94.6515,59.8876 93.6515,62.2209 92.5,64.5C 92.6495,63.448 92.4828,62.448 92,61.5C 91.6322,62.91 90.7989,63.91 89.5,64.5C 83.7188,63.5716 77.8855,62.9049 72,62.5C 71.0853,63.3279 70.4186,64.3279 70,65.5C 68.0876,64.3081 66.0876,63.3081 64,62.5C 62.5177,64.7811 60.851,64.7811 59,62.5C 56.8274,64.901 54.4941,64.901 52,62.5C 47.7824,63.3245 43.4491,63.3245 39,62.5C 38.1134,65.7085 36.4468,65.7085 34,62.5C 33.2588,63.6405 32.4255,63.6405 31.5,62.5C 30.8076,63.0253 30.3076,63.6919 30,64.5C 27.3673,60.7522 25.2006,57.4189 23.5,54.5C 21.2605,50.4188 20.9272,46.0854 22.5,41.5C 24.0806,40.4209 25.7473,40.4209 27.5,41.5C 28.6473,41.1822 29.4806,40.5156 30,39.5C 31.8036,43.0684 34.1369,43.4017 37,40.5C 37.3988,40.7284 37.5654,41.0618 37.5,41.5 Z"/></g>
<g><path style="opacity:0.99" fill="#033a42" d="M 92.5,64.5 C 90.6824,70.8063 87.3491,76.1397 82.5,80.5C 80.6187,80.4557 78.7854,80.1223 77,79.5C 76.3086,81.8912 75.3086,81.8912 74,79.5C 72.2215,80.4791 70.5548,80.1458 69,78.5C 67.6914,80.8912 66.6914,80.8912 66,78.5C 65.4806,79.5156 64.6473,80.1822 63.5,80.5C 60.9163,81.2957 58.4163,81.6291 56,81.5C 55.8508,78.7215 55.0174,78.2215 53.5,80C 49.577,80.7927 45.7436,80.626 42,79.5C 41.3333,80.1667 40.6667,80.8333 40,81.5C 39.5204,79.867 38.6871,78.5336 37.5,77.5C 39.1852,76.8163 40.1852,75.483 40.5,73.5C 31.6153,69.9535 25.9487,63.6202 23.5,54.5C 25.2006,57.4189 27.3673,60.7522 30,64.5C 30.3076,63.6919 30.8076,63.0253 31.5,62.5C 32.4255,63.6405 33.2588,63.6405 34,62.5C 36.4468,65.7085 38.1134,65.7085 39,62.5C 43.4491,63.3245 47.7824,63.3245 52,62.5C 54.4941,64.901 56.8274,64.901 59,62.5C 60.851,64.7811 62.5177,64.7811 64,62.5C 66.0876,63.3081 68.0876,64.3081 70,65.5C 70.4186,64.3279 71.0853,63.3279 72,62.5C 77.8855,62.9049 83.7188,63.5716 89.5,64.5C 90.7989,63.91 91.6322,62.91 92,61.5C 92.4828,62.448 92.6495,63.448 92.5,64.5 Z"/></g>
<g><path style="opacity:0.988" fill="#02373f" d="M 18.5,59.5 C 22.251,68.2516 28.5843,74.2516 37.5,77.5C 38.6871,78.5336 39.5204,79.867 40,81.5C 40.6667,80.8333 41.3333,80.1667 42,79.5C 45.7436,80.626 49.577,80.7927 53.5,80C 55.0174,78.2215 55.8508,78.7215 56,81.5C 58.4163,81.6291 60.9163,81.2957 63.5,80.5C 64.6473,80.1822 65.4806,79.5156 66,78.5C 66.6914,80.8912 67.6914,80.8912 69,78.5C 70.5548,80.1458 72.2215,80.4791 74,79.5C 75.3086,81.8912 76.3086,81.8912 77,79.5C 78.7854,80.1223 80.6187,80.4557 82.5,80.5C 80.4509,83.5497 77.7843,85.883 74.5,87.5C 72.7022,85.8995 70.7022,85.5662 68.5,86.5C 66.4016,84.0956 64.5683,84.429 63,87.5C 61.7827,86.6141 60.4493,85.6141 59,84.5C 56.5442,84.6225 54.0442,84.6225 51.5,84.5C 51.1667,85.1667 50.8333,85.8333 50.5,86.5C 49.8076,85.9747 49.3076,85.3081 49,84.5C 47.2151,85.2401 45.3817,85.9067 43.5,86.5C 41.941,85.5535 40.2743,84.8868 38.5,84.5C 34.9335,85.0853 31.2668,85.4187 27.5,85.5C 25.8129,85.2395 24.3129,84.5728 23,83.5C 21.9054,84.6934 21.072,86.0267 20.5,87.5C 11.4767,82.1496 5.47672,74.483 2.5,64.5C 4.65961,64.1703 6.99294,64.1703 9.5,64.5C 11.0554,64.278 12.3887,63.6113 13.5,62.5C 15.3619,63.5899 17.1952,64.5899 19,65.5C 19.1405,63.7445 18.6405,62.0778 17.5,60.5C 17.6236,59.8933 17.9569,59.56 18.5,59.5 Z"/></g>
<g><path style="opacity:0.944" fill="#01363d" d="M 74.5,87.5 C 69.3688,91.3207 63.7021,93.9873 57.5,95.5C 50.8333,95.5 44.1667,95.5 37.5,95.5C 31.2979,93.9873 25.6312,91.3207 20.5,87.5C 21.072,86.0267 21.9054,84.6934 23,83.5C 24.3129,84.5728 25.8129,85.2395 27.5,85.5C 31.2668,85.4187 34.9335,85.0853 38.5,84.5C 40.2743,84.8868 41.941,85.5535 43.5,86.5C 45.3817,85.9067 47.2151,85.2401 49,84.5C 49.3076,85.3081 49.8076,85.9747 50.5,86.5C 50.8333,85.8333 51.1667,85.1667 51.5,84.5C 54.0442,84.6225 56.5442,84.6225 59,84.5C 60.4493,85.6141 61.7827,86.6141 63,87.5C 64.5683,84.429 66.4016,84.0956 68.5,86.5C 70.7022,85.5662 72.7022,85.8995 74.5,87.5 Z"/></g>
</svg>
