<?xml version="1.0" encoding="UTF-8"?>
<!DOCTYPE svg PUBLIC "-//W3C//DTD SVG 1.1//EN" "http://www.w3.org/Graphics/SVG/1.1/DTD/svg11.dtd">
<svg xmlns="http://www.w3.org/2000/svg" version="1.1" width="96px" height="96px" style="shape-rendering:geometricPrecision; text-rendering:geometricPrecision; image-rendering:optimizeQuality; fill-rule:evenodd; clip-rule:evenodd" xmlns:xlink="http://www.w3.org/1999/xlink">
<g><path style="opacity:0.99" fill="#fd4893" d="M 63.5,18.5 C 61.7971,20.1408 59.6305,21.1408 57,21.5C 56.6174,20.944 56.1174,20.6107 55.5,20.5C 49.4651,13.6693 43.7984,14.0026 38.5,21.5C 36.6481,20.9111 34.8148,20.2444 33,19.5C 31.8932,20.7119 31.3932,20.3786 31.5,18.5C 34.2083,11.1387 39.5416,7.13871 47.5,6.5C 55.4584,7.13871 60.7917,11.1387 63.5,18.5 Z"/></g>
<g><path style="opacity:0.966" fill="#fe508c" d="M 63.5,18.5 C 67.1232,20.6651 70.4566,23.3317 73.5,26.5C 71.4175,25.4123 69.2508,24.4123 67,23.5C 63.0445,24.7754 59.0445,24.7754 55,23.5C 53.5272,23.9031 52.1939,24.5697 51,25.5C 50.6012,25.2716 50.4346,24.9382 50.5,24.5C 51.9842,22.9263 53.6508,21.593 55.5,20.5C 56.1174,20.6107 56.6174,20.944 57,21.5C 59.6305,21.1408 61.7971,20.1408 63.5,18.5 Z"/></g>
<g><path style="opacity:0.967" fill="#fe528a" d="M 31.5,18.5 C 31.3932,20.3786 31.8932,20.7119 33,19.5C 34.8148,20.2444 36.6481,20.9111 38.5,21.5C 38.5,22.8333 38.5,24.1667 38.5,25.5C 32.773,25.2598 27.1064,25.5931 21.5,26.5C 24.5434,23.3317 27.8768,20.6651 31.5,18.5 Z"/></g>
<g><path style="opacity:1" fill="#fe5c82" d="M 38.5,25.5 C 38.0472,26.4584 37.3805,27.2917 36.5,28C 33.7084,28.5423 31.0417,29.3756 28.5,30.5C 25.7023,29.8136 22.869,30.147 20,31.5C 19.5357,30.9056 19.369,30.2389 19.5,29.5C 19.427,27.9731 20.0937,26.9731 21.5,26.5C 27.1064,25.5931 32.773,25.2598 38.5,25.5 Z"/></g>
<g><path style="opacity:0.99" fill="#fe5a83" d="M 73.5,26.5 C 74.9063,26.9731 75.573,27.9731 75.5,29.5C 74.5416,29.0472 73.7083,28.3805 73,27.5C 71.2438,28.5481 69.4104,28.5481 67.5,27.5C 65.5784,27.8008 63.9117,28.4675 62.5,29.5C 61.609,28.8902 60.609,28.5569 59.5,28.5C 57.4816,27.3775 55.4816,27.3775 53.5,28.5C 51.2406,28.2155 49.5739,27.2155 48.5,25.5C 48.8417,24.6618 49.5084,24.3284 50.5,24.5C 50.4346,24.9382 50.6012,25.2716 51,25.5C 52.1939,24.5697 53.5272,23.9031 55,23.5C 59.0445,24.7754 63.0445,24.7754 67,23.5C 69.2508,24.4123 71.4175,25.4123 73.5,26.5 Z"/></g>
<g><path style="opacity:0.972" fill="#fe627c" d="M 48.5,25.5 C 49.5739,27.2155 51.2406,28.2155 53.5,28.5C 55.4816,27.3775 57.4816,27.3775 59.5,28.5C 57.1898,29.325 55.1898,30.6583 53.5,32.5C 50.1715,34.1354 47.1715,33.8021 44.5,31.5C 45.4746,29.2048 46.8079,27.2048 48.5,25.5 Z"/></g>
<g><path style="opacity:0.958" fill="#fe627d" d="M 75.5,29.5 C 76.9063,29.9731 77.573,30.9731 77.5,32.5C 74.7104,32.7508 71.7104,32.7508 68.5,32.5C 66.9468,30.615 64.9468,29.615 62.5,29.5C 63.9117,28.4675 65.5784,27.8008 67.5,27.5C 69.4104,28.5481 71.2438,28.5481 73,27.5C 73.7083,28.3805 74.5416,29.0472 75.5,29.5 Z"/></g>
<g><path style="opacity:0.959" fill="#fd6a76" d="M 19.5,29.5 C 19.369,30.2389 19.5357,30.9056 20,31.5C 22.869,30.147 25.7023,29.8136 28.5,30.5C 27.2485,32.0009 26.2485,33.6675 25.5,35.5C 22.7212,35.7214 20.0545,35.388 17.5,34.5C 17.4021,32.4471 18.0687,30.7804 19.5,29.5 Z"/></g>
<g><path style="opacity:1" fill="#fd6e73" d="M 44.5,31.5 C 47.1715,33.8021 50.1715,34.1354 53.5,32.5C 53.0113,33.9952 52.3446,35.3285 51.5,36.5C 49.102,35.59 46.4353,35.2567 43.5,35.5C 43.4326,34.0413 43.7659,32.7079 44.5,31.5 Z"/></g>
<g><path style="opacity:0.961" fill="#fd746e" d="M 17.5,34.5 C 20.0545,35.388 22.7212,35.7214 25.5,35.5C 25.5,37.1667 25.5,38.8333 25.5,40.5C 23.4152,37.2504 20.9152,37.2504 18,40.5C 17.6174,39.944 17.1174,39.6107 16.5,39.5C 16.2155,37.5853 16.5489,35.9187 17.5,34.5 Z"/></g>
<g><path style="opacity:0.96" fill="#fd7170" d="M 68.5,32.5 C 71.7104,32.7508 74.7104,32.7508 77.5,32.5C 78.3686,34.717 78.702,37.0504 78.5,39.5C 77.7784,39.0825 77.2784,38.4158 77,37.5C 74.5024,38.7785 72.0024,38.7785 69.5,37.5C 69.3713,35.7839 69.038,34.1172 68.5,32.5 Z"/></g>
<g><path style="opacity:0.939" fill="#fd7969" d="M 43.5,35.5 C 46.4353,35.2567 49.102,35.59 51.5,36.5C 51.5,37.1667 51.5,37.8333 51.5,38.5C 50.7321,39.2625 50.2321,40.2625 50,41.5C 47.723,40.8828 45.5563,40.2161 43.5,39.5C 43.5,38.1667 43.5,36.8333 43.5,35.5 Z"/></g>
<g><path style="opacity:0.881" fill="#fd7d66" d="M 69.5,37.5 C 72.0024,38.7785 74.5024,38.7785 77,37.5C 77.2784,38.4158 77.7784,39.0825 78.5,39.5C 78.4431,40.609 78.1098,41.609 77.5,42.5C 76.8826,42.6107 76.3826,42.944 76,43.5C 73.5148,42.5238 71.3482,41.8572 69.5,41.5C 69.5,40.1667 69.5,38.8333 69.5,37.5 Z"/></g>
<g><path style="opacity:0.959" fill="#fd8361" d="M 25.5,40.5 C 28.1012,46.0622 32.4345,47.8956 38.5,46C 40.8257,44.1951 42.4923,42.0284 43.5,39.5C 45.5563,40.2161 47.723,40.8828 50,41.5C 50.2321,40.2625 50.7321,39.2625 51.5,38.5C 51.7036,43.0882 50.037,46.7549 46.5,49.5C 45.6661,48.2521 44.3328,47.5854 42.5,47.5C 34.9601,48.3512 27.6268,48.3512 20.5,47.5C 18.2295,45.3877 16.8961,42.721 16.5,39.5C 17.1174,39.6107 17.6174,39.944 18,40.5C 20.9152,37.2504 23.4152,37.2504 25.5,40.5 Z"/></g>
<g><path style="opacity:1" fill="#fd865d" d="M 69.5,41.5 C 71.3482,41.8572 73.5148,42.5238 76,43.5C 76.3826,42.944 76.8826,42.6107 77.5,42.5C 76.8305,45.8489 75.1639,48.5156 72.5,50.5C 70.9681,49.6304 69.4681,49.9638 68,51.5C 63.3814,50.5588 59.5481,50.5588 56.5,51.5C 56.5106,49.9826 57.1772,48.8159 58.5,48C 63.183,47.3335 66.8497,45.1668 69.5,41.5 Z"/></g>
<g><path style="opacity:0.938" fill="#fd8a5a" d="M 20.5,47.5 C 27.6268,48.3512 34.9601,48.3512 42.5,47.5C 44.3328,47.5854 45.6661,48.2521 46.5,49.5C 43.4801,53.6838 39.3134,55.6838 34,55.5C 30.1828,55.3442 26.6828,54.1776 23.5,52C 21.8588,50.871 20.8588,49.371 20.5,47.5 Z"/></g>
<g><path style="opacity:0.955" fill="#fd8d58" d="M 72.5,50.5 C 70.3511,52.7458 67.6844,54.2458 64.5,55C 63.6006,56.6516 62.6006,58.1516 61.5,59.5C 61.631,58.7611 61.4643,58.0944 61,57.5C 59.2109,57.6225 57.3775,57.6225 55.5,57.5C 54.8182,58.2427 54.1515,58.9094 53.5,59.5C 53.9802,56.5568 54.9802,53.8902 56.5,51.5C 59.5481,50.5588 63.3814,50.5588 68,51.5C 69.4681,49.9638 70.9681,49.6304 72.5,50.5 Z"/></g>
<g><path style="opacity:1" fill="#fd9750" d="M 61.5,59.5 C 61.5979,61.5529 60.9313,63.2196 59.5,64.5C 59.6495,63.448 59.4828,62.448 59,61.5C 56.5353,63.5883 54.3686,63.5883 52.5,61.5C 52.3284,60.5084 52.6618,59.8417 53.5,59.5C 54.1515,58.9094 54.8182,58.2427 55.5,57.5C 57.3775,57.6225 59.2109,57.6225 61,57.5C 61.4643,58.0944 61.631,58.7611 61.5,59.5 Z"/></g>
<g><path style="opacity:0.943" fill="#fd9c4c" d="M 44.5,65.5 C 42.3702,66.0799 39.8702,66.0799 37,65.5C 36.5357,66.0944 36.369,66.7611 36.5,67.5C 34.0476,65.057 34.0476,62.557 36.5,60C 41.1729,58.8319 43.8395,60.6653 44.5,65.5 Z"/></g>
<g><path style="opacity:1" fill="#fda048" d="M 51.5,62.5 C 51.5,61.8333 51.8333,61.5 52.5,61.5C 54.3686,63.5883 56.5353,63.5883 59,61.5C 59.4828,62.448 59.6495,63.448 59.5,64.5C 59.5979,66.5529 58.9313,68.2196 57.5,69.5C 56.9524,68.3115 56.6191,67.1448 56.5,66C 55.2068,65.51 53.8734,65.3433 52.5,65.5C 52.7373,64.209 52.404,63.209 51.5,62.5 Z"/></g>
<g><path style="opacity:0.999" fill="#fdab40" d="M 51.5,62.5 C 52.404,63.209 52.7373,64.209 52.5,65.5C 53.8734,65.3433 55.2068,65.51 56.5,66C 56.6191,67.1448 56.9524,68.3115 57.5,69.5C 55.9085,75.356 53.7418,81.0227 51,86.5C 48.8797,89.0801 46.713,89.0801 44.5,86.5C 41.4372,80.3055 38.7706,73.9721 36.5,67.5C 36.369,66.7611 36.5357,66.0944 37,65.5C 39.8702,66.0799 42.3702,66.0799 44.5,65.5C 45.5717,67.8823 46.7383,70.2156 48,72.5C 49.0755,69.1056 50.2422,65.7722 51.5,62.5 Z"/></g>
</svg>
