<?xml version="1.0" encoding="UTF-8"?>
<!DOCTYPE svg PUBLIC "-//W3C//DTD SVG 1.1//EN" "http://www.w3.org/Graphics/SVG/1.1/DTD/svg11.dtd">
<svg xmlns="http://www.w3.org/2000/svg" version="1.1" width="200px" height="200px" style="shape-rendering:geometricPrecision; text-rendering:geometricPrecision; image-rendering:optimizeQuality; fill-rule:evenodd; clip-rule:evenodd" xmlns:xlink="http://www.w3.org/1999/xlink">
<g><path style="opacity:0.981" fill="#fd91c2" d="M 84.5,-0.5 C 94.5,-0.5 104.5,-0.5 114.5,-0.5C 161.165,9.49798 189.498,37.8313 199.5,84.5C 199.5,87.1667 199.5,89.8333 199.5,92.5C 185.167,78.5 170.833,64.5 156.5,50.5C 148.956,40.2257 139.289,37.7257 127.5,43C 123.952,45.047 121.285,47.8803 119.5,51.5C 113.023,49.2712 106.356,47.9379 99.5,47.5C 92.318,47.3997 85.6513,49.0663 79.5,52.5C 74.357,42.2674 66.0237,38.4341 54.5,41C 41.0253,47.4598 37.192,57.6265 43,71.5C 44.7155,74.7168 47.2155,77.0502 50.5,78.5C 38.6843,97.5342 37.5176,117.201 47,137.5C 50.3955,141.065 53.8955,144.398 57.5,147.5C 57.0618,147.435 56.7284,147.601 56.5,148C 73.7018,165.035 90.7018,182.201 107.5,199.5C 99.8333,199.5 92.1667,199.5 84.5,199.5C 37.8354,189.502 9.50202,161.169 -0.5,114.5C -0.5,104.5 -0.5,94.5 -0.5,84.5C 9.50202,37.8313 37.8354,9.49798 84.5,-0.5 Z"/></g>
<g><path style="opacity:1" fill="#39383f" d="M 79.5,52.5 C 76.8599,53.8201 74.1932,55.1534 71.5,56.5C 71.0618,56.5654 70.7284,56.3988 70.5,56C 71.3567,55.3109 72.0233,54.4776 72.5,53.5C 69.7887,49.0344 65.7887,47.0344 60.5,47.5C 48.3912,49.7048 44.5579,56.7048 49,68.5C 50.451,70.4641 52.2843,71.7974 54.5,72.5C 53.5514,74.7772 52.2181,76.7772 50.5,78.5C 47.2155,77.0502 44.7155,74.7168 43,71.5C 37.192,57.6265 41.0253,47.4598 54.5,41C 66.0237,38.4341 74.357,42.2674 79.5,52.5 Z"/></g>
<g><path style="opacity:1" fill="#29282a" d="M 156.5,50.5 C 159.659,58.9188 158.826,66.9188 154,74.5C 152.549,76.4641 150.716,77.7974 148.5,78.5C 144.206,72.2702 139.206,66.6036 133.5,61.5C 133.897,60.475 134.563,60.3083 135.5,61C 139.369,64.5338 142.869,68.3672 146,72.5C 151.576,67.1387 152.91,60.8054 150,53.5C 145.422,47.9449 139.588,46.1116 132.5,48C 130.024,49.3088 128.024,51.1421 126.5,53.5C 127.524,54.8518 128.524,56.1851 129.5,57.5C 125.827,55.9998 122.494,53.9998 119.5,51.5C 121.285,47.8803 123.952,45.047 127.5,43C 139.289,37.7257 148.956,40.2257 156.5,50.5 Z"/></g>
<g><path style="opacity:1" fill="#e5e5e5" d="M 99.5,47.5 C 99.5,67.8333 99.5,88.1667 99.5,108.5C 100.552,108.351 101.552,108.517 102.5,109C 100.292,109.191 98.2922,109.691 96.5,110.5C 89.4162,113.819 87.5828,119.153 91,126.5C 92.0391,127.71 93.2058,128.71 94.5,129.5C 92.2586,134.632 88.2586,137.299 82.5,137.5C 82.5,139.833 82.5,142.167 82.5,144.5C 89.2239,144.471 94.5572,141.805 98.5,136.5C 99.4916,143.648 99.825,150.981 99.5,158.5C 84.3762,158.927 70.3762,155.26 57.5,147.5C 53.8955,144.398 50.3955,141.065 47,137.5C 37.5176,117.201 38.6843,97.5342 50.5,78.5C 52.2181,76.7772 53.5514,74.7772 54.5,72.5C 59.5367,66.4623 65.2034,61.1289 71.5,56.5C 74.1932,55.1534 76.8599,53.8201 79.5,52.5C 85.6513,49.0663 92.318,47.3997 99.5,47.5 Z"/></g>
<g><path style="opacity:1" fill="#3c3a41" d="M 133.5,61.5 C 131.833,60.5 130.5,59.1667 129.5,57.5C 128.524,56.1851 127.524,54.8518 126.5,53.5C 128.024,51.1421 130.024,49.3088 132.5,48C 139.588,46.1116 145.422,47.9449 150,53.5C 152.91,60.8054 151.576,67.1387 146,72.5C 142.869,68.3672 139.369,64.5338 135.5,61C 134.563,60.3083 133.897,60.475 133.5,61.5 Z"/></g>
<g><path style="opacity:1" fill="#56545b" d="M 71.5,56.5 C 65.2034,61.1289 59.5367,66.4623 54.5,72.5C 52.2843,71.7974 50.451,70.4641 49,68.5C 44.5579,56.7048 48.3912,49.7048 60.5,47.5C 65.7887,47.0344 69.7887,49.0344 72.5,53.5C 72.0233,54.4776 71.3567,55.3109 70.5,56C 70.7284,56.3988 71.0618,56.5654 71.5,56.5 Z"/></g>
<g><path style="opacity:1" fill="#c7c6cd" d="M 99.5,47.5 C 106.356,47.9379 113.023,49.2712 119.5,51.5C 122.494,53.9998 125.827,55.9998 129.5,57.5C 130.5,59.1667 131.833,60.5 133.5,61.5C 139.206,66.6036 144.206,72.2702 148.5,78.5C 157.595,93.3175 160.429,109.318 157,126.5C 152.927,139.573 144.427,148.406 131.5,153C 121.145,156.67 110.479,158.504 99.5,158.5C 99.825,150.981 99.4916,143.648 98.5,136.5C 98.5,135.833 98.8333,135.5 99.5,135.5C 103.571,141.371 109.238,144.371 116.5,144.5C 116.5,142.167 116.5,139.833 116.5,137.5C 110.849,137.339 106.849,134.672 104.5,129.5C 109.189,126.012 110.689,121.345 109,115.5C 106.022,111.012 101.855,109.345 96.5,110.5C 98.2922,109.691 100.292,109.191 102.5,109C 101.552,108.517 100.552,108.351 99.5,108.5C 99.5,88.1667 99.5,67.8333 99.5,47.5 Z"/></g>
<g><path style="opacity:1" fill="#fd52a2" d="M 156.5,50.5 C 170.833,64.5 185.167,78.5 199.5,92.5C 199.5,99.8333 199.5,107.167 199.5,114.5C 189.5,161.167 161.167,189.5 114.5,199.5C 112.167,199.5 109.833,199.5 107.5,199.5C 90.7018,182.201 73.7018,165.035 56.5,148C 56.7284,147.601 57.0618,147.435 57.5,147.5C 70.3762,155.26 84.3762,158.927 99.5,158.5C 110.479,158.504 121.145,156.67 131.5,153C 144.427,148.406 152.927,139.573 157,126.5C 160.429,109.318 157.595,93.3175 148.5,78.5C 150.716,77.7974 152.549,76.4641 154,74.5C 158.826,66.9188 159.659,58.9188 156.5,50.5 Z"/></g>
<g><path style="opacity:1" fill="#55535a" d="M 71.5,81.5 C 82.2263,79.3387 90.0596,83.0053 95,92.5C 94.0635,111.088 84.2302,119.255 65.5,117C 55.3738,111.283 52.8738,103.116 58,92.5C 61.6656,87.7582 66.1656,84.0915 71.5,81.5 Z"/></g>
<g><path style="opacity:1" fill="#3a383f" d="M 115.5,81.5 C 128.275,80.1334 137.441,85.1334 143,96.5C 144.512,112.982 137.012,119.815 120.5,117C 108.876,112.909 103.376,104.742 104,92.5C 106.437,87.2262 110.271,83.5595 115.5,81.5 Z"/></g>
<g><path style="opacity:1" fill="#39373f" d="M 96.5,110.5 C 97.209,111.404 98.209,111.737 99.5,111.5C 99.5,117.833 99.5,124.167 99.5,130.5C 98.8333,130.5 98.1667,130.5 97.5,130.5C 96.391,130.443 95.391,130.11 94.5,129.5C 93.2058,128.71 92.0391,127.71 91,126.5C 87.5828,119.153 89.4162,113.819 96.5,110.5 Z"/></g>
<g><path style="opacity:1" fill="#282629" d="M 96.5,110.5 C 101.855,109.345 106.022,111.012 109,115.5C 110.689,121.345 109.189,126.012 104.5,129.5C 102.958,130.301 101.292,130.634 99.5,130.5C 99.5,124.167 99.5,117.833 99.5,111.5C 98.209,111.737 97.209,111.404 96.5,110.5 Z"/></g>
<g><path style="opacity:1" fill="#8a8791" d="M 94.5,129.5 C 95.391,130.11 96.391,130.443 97.5,130.5C 98.9516,131.302 100.618,131.802 102.5,132C 101.552,132.483 100.552,132.649 99.5,132.5C 99.5,133.5 99.5,134.5 99.5,135.5C 98.8333,135.5 98.5,135.833 98.5,136.5C 94.5572,141.805 89.2239,144.471 82.5,144.5C 82.5,142.167 82.5,139.833 82.5,137.5C 88.2586,137.299 92.2586,134.632 94.5,129.5 Z"/></g>
<g><path style="opacity:1" fill="#76757e" d="M 104.5,129.5 C 106.849,134.672 110.849,137.339 116.5,137.5C 116.5,139.833 116.5,142.167 116.5,144.5C 109.238,144.371 103.571,141.371 99.5,135.5C 99.5,134.5 99.5,133.5 99.5,132.5C 100.552,132.649 101.552,132.483 102.5,132C 100.618,131.802 98.9516,131.302 97.5,130.5C 98.1667,130.5 98.8333,130.5 99.5,130.5C 101.292,130.634 102.958,130.301 104.5,129.5 Z"/></g>
</svg>
