<?xml version="1.0" encoding="UTF-8"?>
<!DOCTYPE svg PUBLIC "-//W3C//DTD SVG 1.1//EN" "http://www.w3.org/Graphics/SVG/1.1/DTD/svg11.dtd">
<svg xmlns="http://www.w3.org/2000/svg" version="1.1" width="96px" height="96px" style="shape-rendering:geometricPrecision; text-rendering:geometricPrecision; image-rendering:optimizeQuality; fill-rule:evenodd; clip-rule:evenodd" xmlns:xlink="http://www.w3.org/1999/xlink">
<g><path style="opacity:0.987" fill="#161616" d="M 37.5,-0.5 C 44.1667,-0.5 50.8333,-0.5 57.5,-0.5C 77.1667,5.16667 89.8333,17.8333 95.5,37.5C 95.5,44.1667 95.5,50.8333 95.5,57.5C 91.8801,71.3876 83.8801,82.0543 71.5,89.5C 70.7611,89.631 70.0944,89.4643 69.5,89C 84.8236,79.082 91.3236,64.9153 89,46.5C 83.4822,23.1271 68.9822,10.4605 45.5,8.5C 19.0897,10.9106 4.08973,25.2439 0.5,51.5C 0.853808,54.4415 1.52047,57.2748 2.5,60C 1.90558,60.4643 1.23891,60.631 0.5,60.5C 0.737305,59.209 0.403972,58.209 -0.5,57.5C -0.5,50.8333 -0.5,44.1667 -0.5,37.5C 5.16667,17.8333 17.8333,5.16667 37.5,-0.5 Z"/></g>
<g><path style="opacity:1" fill="#0d0e0e" d="M 71.5,89.5 C 67.336,91.887 63.0027,93.887 58.5,95.5C 51.1667,95.5 43.8333,95.5 36.5,95.5C 18.6227,89.957 6.62266,78.2903 0.5,60.5C 1.23891,60.631 1.90558,60.4643 2.5,60C 1.52047,57.2748 0.853808,54.4415 0.5,51.5C 4.08973,25.2439 19.0897,10.9106 45.5,8.5C 68.9822,10.4605 83.4822,23.1271 89,46.5C 91.3236,64.9153 84.8236,79.082 69.5,89C 70.0944,89.4643 70.7611,89.631 71.5,89.5 Z"/></g>
<g><path style="opacity:1" fill="#1a938b" d="M 58.5,21.5 C 53.5,21.5 48.5,21.5 43.5,21.5C 43.5,22.8333 43.5,24.1667 43.5,25.5C 42.5489,24.0813 42.2155,22.4147 42.5,20.5C 48.0262,20.1786 53.3595,20.5119 58.5,21.5 Z"/></g>
<g><path style="opacity:1" fill="#efefef" d="M 58.5,73.5 C 58.8275,68.456 58.4941,63.456 57.5,58.5C 56.8933,58.6236 56.56,58.9569 56.5,59.5C 56.0472,60.4584 55.3805,61.2917 54.5,62C 45.0738,64.7398 37.5738,62.2398 32,54.5C 31.5002,43.505 31.3335,32.505 31.5,21.5C 33.1667,21.5 34.8333,21.5 36.5,21.5C 36.3342,26.1785 36.5008,30.8452 37,35.5C 37.8333,34.6667 38.6667,33.8333 39.5,33C 48.9262,30.2602 56.4262,32.7602 62,40.5C 62.4998,51.495 62.6665,62.495 62.5,73.5C 61.1667,73.5 59.8333,73.5 58.5,73.5 Z"/></g>
<g><path style="opacity:1" fill="#198e85" d="M 25.5,32.5 C 24.1667,32.5 22.8333,32.5 21.5,32.5C 21.5,41.1667 21.5,49.8333 21.5,58.5C 20.5067,49.6822 20.1734,40.6822 20.5,31.5C 22.4147,31.2155 24.0813,31.5489 25.5,32.5 Z"/></g>
<g><path style="opacity:1" fill="#0c0c0c" d="M 42.5,36.5 C 53.7901,35.9575 58.6234,41.2908 57,52.5C 50.5367,59.1394 44.0367,59.1394 37.5,52.5C 36.343,49.2156 36.1764,45.8823 37,42.5C 39.0396,40.6298 40.8729,38.6298 42.5,36.5 Z"/></g>
<g><path style="opacity:1" fill="#29f0e4" d="M 58.5,21.5 C 63.4646,25.9634 68.2979,30.6301 73,35.5C 73.4998,44.4938 73.6664,53.4938 73.5,62.5C 72.1667,62.5 70.8333,62.5 69.5,62.5C 69.6664,54.4931 69.4997,46.4931 69,38.5C 64.8333,34.3333 60.6667,30.1667 56.5,26C 52.1794,25.501 47.8461,25.3343 43.5,25.5C 43.5,24.1667 43.5,22.8333 43.5,21.5C 48.5,21.5 53.5,21.5 58.5,21.5 Z"/></g>
<g><path style="opacity:1" fill="#868686" d="M 56.5,59.5 C 56.56,58.9569 56.8933,58.6236 57.5,58.5C 58.4941,63.456 58.8275,68.456 58.5,73.5C 57.8333,68.8333 57.1667,64.1667 56.5,59.5 Z"/></g>
<g><path style="opacity:1" fill="#29f0e3" d="M 25.5,32.5 C 25.3336,40.5069 25.5003,48.5069 26,56.5C 30.1667,60.6667 34.3333,64.8333 38.5,69C 42.8206,69.499 47.1539,69.6657 51.5,69.5C 51.5,70.8333 51.5,72.1667 51.5,73.5C 46.1563,73.666 40.8229,73.4994 35.5,73C 30.6301,68.2979 25.9634,63.4646 21.5,58.5C 21.5,49.8333 21.5,41.1667 21.5,32.5C 22.8333,32.5 24.1667,32.5 25.5,32.5 Z"/></g>
</svg>
