<?xml version="1.0" encoding="UTF-8"?>
<!DOCTYPE svg PUBLIC "-//W3C//DTD SVG 1.1//EN" "http://www.w3.org/Graphics/SVG/1.1/DTD/svg11.dtd">
<svg xmlns="http://www.w3.org/2000/svg" version="1.1" width="96px" height="96px" style="shape-rendering:geometricPrecision; text-rendering:geometricPrecision; image-rendering:optimizeQuality; fill-rule:evenodd; clip-rule:evenodd" xmlns:xlink="http://www.w3.org/1999/xlink">
<g><path style="opacity:0.997" fill="#003eff" d="M 10.5,-0.5 C 21.5,-0.5 32.5,-0.5 43.5,-0.5C 76.1851,9.53827 88.6851,31.2049 81,64.5C 73.4105,80.9353 60.9105,91.2686 43.5,95.5C 40.5,95.5 37.5,95.5 34.5,95.5C 34.1734,90.7863 34.5067,86.1196 35.5,81.5C 60.516,77.1133 71.016,62.4466 67,37.5C 61.78,23.3007 51.6134,15.4674 36.5,14C 27.8397,13.5002 19.1731,13.3336 10.5,13.5C 10.5,8.83333 10.5,4.16667 10.5,-0.5 Z"/></g>
<g><path style="opacity:0.998" fill="#003eff" d="M 10.5,26.5 C 20.9122,26.0738 31.2456,26.5738 41.5,28C 48.1952,30.1906 52.1952,34.6906 53.5,41.5C 39.1667,41.5 24.8333,41.5 10.5,41.5C 10.5,36.5 10.5,31.5 10.5,26.5 Z"/></g>
<g><path style="opacity:0.999" fill="#003eff" d="M 10.5,53.5 C 24.8333,53.5 39.1667,53.5 53.5,53.5C 52.1952,60.3094 48.1952,64.8094 41.5,67C 31.2456,68.4262 20.9122,68.9262 10.5,68.5C 10.5,63.5 10.5,58.5 10.5,53.5 Z"/></g>
<g><path style="opacity:0.996" fill="#003dff" d="M 26.5,95.5 C 21.1667,95.5 15.8333,95.5 10.5,95.5C 10.5,90.8333 10.5,86.1667 10.5,81.5C 15.8333,81.5 21.1667,81.5 26.5,81.5C 26.5,86.1667 26.5,90.8333 26.5,95.5 Z"/></g>
</svg>
