<?xml version="1.0" encoding="UTF-8"?>
<!DOCTYPE svg PUBLIC "-//W3C//DTD SVG 1.1//EN" "http://www.w3.org/Graphics/SVG/1.1/DTD/svg11.dtd">
<svg xmlns="http://www.w3.org/2000/svg" version="1.1" width="96px" height="96px" style="shape-rendering:geometricPrecision; text-rendering:geometricPrecision; image-rendering:optimizeQuality; fill-rule:evenodd; clip-rule:evenodd" xmlns:xlink="http://www.w3.org/1999/xlink">
<g><path style="opacity:0.995" fill="#020100" d="M 3.5,-0.5 C 32.8333,-0.5 62.1667,-0.5 91.5,-0.5C 93.1667,0.5 94.5,1.83333 95.5,3.5C 95.5,33.1667 95.5,62.8333 95.5,92.5C 94.1667,93.1667 93.1667,94.1667 92.5,95.5C 62.8333,95.5 33.1667,95.5 3.5,95.5C 1.83333,94.5 0.5,93.1667 -0.5,91.5C -0.5,62.1667 -0.5,32.8333 -0.5,3.5C 1.16667,2.5 2.5,1.16667 3.5,-0.5 Z"/></g>
<g><path style="opacity:1" fill="#f5ce17" d="M 6.5,18.5 C 10.9155,21.7333 15.2488,25.2333 19.5,29C 24.1667,29.3333 28.8333,29.6667 33.5,30C 35.7093,33.586 38.0426,37.086 40.5,40.5C 43.083,37.0026 45.4164,33.3359 47.5,29.5C 50.083,32.9974 52.4164,36.6641 54.5,40.5C 56.9574,37.086 59.2907,33.586 61.5,30C 66.5,29.6667 71.5,29.3333 76.5,29C 80.3975,24.9842 84.3975,21.8175 88.5,19.5C 85.7516,24.6657 82.7516,29.6657 79.5,34.5C 74.5,35.1667 69.5,35.8333 64.5,36.5C 61.6262,41.7486 58.6262,46.9152 55.5,52C 54.6683,52.6877 54.0016,52.521 53.5,51.5C 51.7349,48.2911 49.7349,45.2911 47.5,42.5C 45.1542,45.8708 42.8208,49.2041 40.5,52.5C 37.041,47.0832 33.7077,41.5832 30.5,36C 25.4671,35.829 20.4671,35.329 15.5,34.5C 12.476,29.1121 9.47597,23.7788 6.5,18.5 Z"/></g>
<g><path style="opacity:1" fill="#90770d" d="M 68.5,42.5 C 70.6934,41.2031 73.0268,41.2031 75.5,42.5C 75.3764,43.1067 75.0431,43.44 74.5,43.5C 72.7354,42.5386 70.7354,42.2053 68.5,42.5 Z"/></g>
<g><path style="opacity:1" fill="#f6ce17" d="M 68.5,42.5 C 70.7354,42.2053 72.7354,42.5386 74.5,43.5C 67.8449,54.8058 61.1782,66.1391 54.5,77.5C 52.4062,73.6372 50.0728,69.9705 47.5,66.5C 45.4164,70.3359 43.083,74.0026 40.5,77.5C 33.5844,66.0053 26.9177,54.3386 20.5,42.5C 22.8333,41.1667 25.1667,41.1667 27.5,42.5C 31.8333,49.8333 36.1667,57.1667 40.5,64.5C 42.8208,61.2041 45.1542,57.8708 47.5,54.5C 49.7349,57.2911 51.7349,60.2911 53.5,63.5C 54.0016,64.521 54.6683,64.6877 55.5,64C 59.4821,56.5204 63.8154,49.3537 68.5,42.5 Z"/></g>
</svg>
