<?xml version="1.0" encoding="UTF-8"?>
<!DOCTYPE svg PUBLIC "-//W3C//DTD SVG 1.1//EN" "http://www.w3.org/Graphics/SVG/1.1/DTD/svg11.dtd">
<svg xmlns="http://www.w3.org/2000/svg" version="1.1" width="96px" height="96px" style="shape-rendering:geometricPrecision; text-rendering:geometricPrecision; image-rendering:optimizeQuality; fill-rule:evenodd; clip-rule:evenodd" xmlns:xlink="http://www.w3.org/1999/xlink">
<g><path style="opacity:0.996" fill="#fefefe" d="M -0.5,-0.5 C 15.1667,-0.5 30.8333,-0.5 46.5,-0.5C 35.5,6.16667 24.5,12.8333 13.5,19.5C 12.1746,32.6726 12.1746,46.0059 13.5,59.5C 20.2301,63.5259 26.8968,67.5259 33.5,71.5C 33.5,79.5 33.5,87.5 33.5,95.5C 22.1667,95.5 10.8333,95.5 -0.5,95.5C -0.5,63.5 -0.5,31.5 -0.5,-0.5 Z"/></g>
<g><path style="opacity:0.996" fill="#fefefe" d="M 48.5,-0.5 C 64.1667,-0.5 79.8333,-0.5 95.5,-0.5C 95.5,31.5 95.5,63.5 95.5,95.5C 84.1667,95.5 72.8333,95.5 61.5,95.5C 61.5,87.5 61.5,79.5 61.5,71.5C 68.1032,67.5259 74.7699,63.5259 81.5,59.5C 82.8254,46.0059 82.8254,32.6726 81.5,19.5C 70.5,12.8333 59.5,6.16667 48.5,-0.5 Z"/></g>
<g><path style="opacity:1" fill="#43e8e0" d="M 46.5,-0.5 C 47.1667,-0.5 47.8333,-0.5 48.5,-0.5C 59.5,6.16667 70.5,12.8333 81.5,19.5C 77.1443,22.2013 72.8109,24.8679 68.5,27.5C 61.5171,23.5278 54.5171,19.5278 47.5,15.5C 40.4829,19.5278 33.4829,23.5278 26.5,27.5C 22.1667,24.8333 17.8333,22.1667 13.5,19.5C 24.5,12.8333 35.5,6.16667 46.5,-0.5 Z"/></g>
<g><path style="opacity:1" fill="#fcfdfe" d="M 68.5,27.5 C 68.6664,35.5069 68.4997,43.5069 68,51.5C 61.057,55.3855 54.2237,59.3855 47.5,63.5C 46.8333,63.5 46.5,63.1667 46.5,62.5C 47.6557,55.0113 47.8223,47.3446 47,39.5C 40.6267,34.8978 33.7933,31.2312 26.5,28.5C 26.5,28.1667 26.5,27.8333 26.5,27.5C 33.4829,23.5278 40.4829,19.5278 47.5,15.5C 54.5171,19.5278 61.5171,23.5278 68.5,27.5 Z"/></g>
<g><path style="opacity:1" fill="#44cbc1" d="M 13.5,19.5 C 17.8333,22.1667 22.1667,24.8333 26.5,27.5C 26.5,27.8333 26.5,28.1667 26.5,28.5C 26.3336,36.1739 26.5003,43.8406 27,51.5C 33.4463,55.3053 39.9463,58.9719 46.5,62.5C 46.5,63.1667 46.8333,63.5 47.5,63.5C 47.5,71.5 47.5,79.5 47.5,87.5C 43.5,89.8333 39.5,92.1667 35.5,94.5C 34.8333,86.8333 34.1667,79.1667 33.5,71.5C 26.8968,67.5259 20.2301,63.5259 13.5,59.5C 12.1746,46.0059 12.1746,32.6726 13.5,19.5 Z"/></g>
<g><path style="opacity:1" fill="#34d3c7" d="M 81.5,19.5 C 82.8254,32.6726 82.8254,46.0059 81.5,59.5C 74.7699,63.5259 68.1032,67.5259 61.5,71.5C 60.8333,79.1667 60.1667,86.8333 59.5,94.5C 55.5,92.1667 51.5,89.8333 47.5,87.5C 47.5,79.5 47.5,71.5 47.5,63.5C 54.2237,59.3855 61.057,55.3855 68,51.5C 68.4997,43.5069 68.6664,35.5069 68.5,27.5C 72.8109,24.8679 77.1443,22.2013 81.5,19.5 Z"/></g>
<g><path style="opacity:1" fill="#eeeeef" d="M 26.5,28.5 C 33.7933,31.2312 40.6267,34.8978 47,39.5C 47.8223,47.3446 47.6557,55.0113 46.5,62.5C 39.9463,58.9719 33.4463,55.3053 27,51.5C 26.5003,43.8406 26.3336,36.1739 26.5,28.5 Z"/></g>
<g><path style="opacity:1" fill="#7fded8" d="M 33.5,71.5 C 34.1667,79.1667 34.8333,86.8333 35.5,94.5C 35.5,94.8333 35.5,95.1667 35.5,95.5C 34.8333,95.5 34.1667,95.5 33.5,95.5C 33.5,87.5 33.5,79.5 33.5,71.5 Z"/></g>
<g><path style="opacity:1" fill="#73e3dc" d="M 61.5,71.5 C 61.5,79.5 61.5,87.5 61.5,95.5C 60.8333,95.5 60.1667,95.5 59.5,95.5C 59.5,95.1667 59.5,94.8333 59.5,94.5C 60.1667,86.8333 60.8333,79.1667 61.5,71.5 Z"/></g>
<g><path style="opacity:0.987" fill="#fafdfd" d="M 47.5,87.5 C 51.5,89.8333 55.5,92.1667 59.5,94.5C 59.5,94.8333 59.5,95.1667 59.5,95.5C 51.5,95.5 43.5,95.5 35.5,95.5C 35.5,95.1667 35.5,94.8333 35.5,94.5C 39.5,92.1667 43.5,89.8333 47.5,87.5 Z"/></g>
</svg>
