<?xml version="1.0" encoding="UTF-8"?>
<!DOCTYPE svg PUBLIC "-//W3C//DTD SVG 1.1//EN" "http://www.w3.org/Graphics/SVG/1.1/DTD/svg11.dtd">
<svg xmlns="http://www.w3.org/2000/svg" version="1.1" width="96px" height="96px" style="shape-rendering:geometricPrecision; text-rendering:geometricPrecision; image-rendering:optimizeQuality; fill-rule:evenodd; clip-rule:evenodd" xmlns:xlink="http://www.w3.org/1999/xlink">
<g><path style="opacity:0.669" fill="#0d0b08" d="M 37.5,3.5 C 64.7595,2.26655 82.5929,14.5999 91,40.5C 92.8574,67.3259 81.0241,85.1592 55.5,94C 27.9152,96.1244 10.0819,83.9577 2,57.5C -0.351311,30.0421 11.482,12.0421 37.5,3.5 Z"/></g>
<g><path style="opacity:1" fill="#e3bb93" d="M 40.5,5.5 C 69.6568,5.32813 85.9902,19.6615 89.5,48.5C 88.4165,68.8512 78.4165,82.6846 59.5,90C 35.2544,95.7934 17.4211,87.6267 6,65.5C -1.8762,34.2435 9.6238,14.2435 40.5,5.5 Z"/></g>
<g><path style="opacity:1" fill="#902a2a" d="M 40.5,9.5 C 72.1691,9.99962 87.0024,25.9996 85,57.5C 77.8425,80.9654 62.0092,91.1321 37.5,88C 16.903,81.3023 6.73633,67.1356 7,45.5C 10.0861,25.9159 21.2528,13.9159 40.5,9.5 Z"/></g>
<g><path style="opacity:1" fill="#bab0be" d="M 29.5,47.5 C 31.2121,51.8474 34.5454,54.3474 39.5,55C 46.1415,56.088 52.4748,55.2546 58.5,52.5C 59.8333,52.5 60.5,51.8333 60.5,50.5C 61.4345,51.5676 61.7678,52.901 61.5,54.5C 61.8016,57.0593 61.4682,59.3926 60.5,61.5C 58.6921,62.9179 58.0254,64.9179 58.5,67.5C 55.9528,68.9336 53.6195,70.6002 51.5,72.5C 45.8004,72.9963 40.4671,71.9963 35.5,69.5C 35.0269,68.0937 34.0269,67.427 32.5,67.5C 32.7947,65.2646 32.4614,63.2646 31.5,61.5C 30.1985,57.0574 29.5319,52.3907 29.5,47.5 Z"/></g>
<g><path style="opacity:1" fill="#d82e2c" d="M 61.5,43.5 C 62.0967,43.7352 62.4301,44.2352 62.5,45C 61.1153,46.5971 60.4486,48.4305 60.5,50.5C 60.5,51.8333 59.8333,52.5 58.5,52.5C 58.4208,51.0695 58.7542,49.7362 59.5,48.5C 58.6667,48.1667 57.8333,47.8333 57,47.5C 53.359,48.0673 49.6924,48.4006 46,48.5C 42.7485,48.4809 39.9151,47.8142 37.5,46.5C 37.8333,46.5 38.1667,46.5 38.5,46.5C 45.5932,47.8859 52.7599,47.5525 60,45.5C 61.0299,45.1639 61.5299,44.4972 61.5,43.5 Z"/></g>
<g><path style="opacity:1" fill="#481917" d="M 63.5,41.5 C 63.3755,46.0485 62.7089,50.3819 61.5,54.5C 61.7678,52.901 61.4345,51.5676 60.5,50.5C 60.4486,48.4305 61.1153,46.5971 62.5,45C 62.4301,44.2352 62.0967,43.7352 61.5,43.5C 61.8333,42.5 62.5,41.8333 63.5,41.5 Z"/></g>
<g><path style="opacity:1" fill="#f21413" d="M 37.5,46.5 C 39.9151,47.8142 42.7485,48.4809 46,48.5C 49.6924,48.4006 53.359,48.0673 57,47.5C 57.8333,47.8333 58.6667,48.1667 59.5,48.5C 58.7542,49.7362 58.4208,51.0695 58.5,52.5C 52.4748,55.2546 46.1415,56.088 39.5,55C 34.5454,54.3474 31.2121,51.8474 29.5,47.5C 29.3505,46.448 29.5172,45.448 30,44.5C 32.3015,45.8672 34.8015,46.5339 37.5,46.5 Z"/></g>
<g><path style="opacity:1" fill="#3e2e30" d="M 61.5,43.5 C 61.5299,44.4972 61.0299,45.1639 60,45.5C 52.7599,47.5525 45.5932,47.8859 38.5,46.5C 38.5,46.1667 38.5,45.8333 38.5,45.5C 46.2701,45.8046 53.9368,45.1379 61.5,43.5 Z"/></g>
<g><path style="opacity:1" fill="#372624" d="M 30.5,33.5 C 30.6716,34.4916 30.3382,35.1583 29.5,35.5C 28.2355,37.7721 28.4022,40.1055 30,42.5C 32.9494,43.4371 35.7827,44.4371 38.5,45.5C 38.5,45.8333 38.5,46.1667 38.5,46.5C 38.1667,46.5 37.8333,46.5 37.5,46.5C 34.8015,46.5339 32.3015,45.8672 30,44.5C 29.5172,45.448 29.3505,46.448 29.5,47.5C 28.8826,47.3893 28.3826,47.056 28,46.5C 26.605,42.5 26.4383,38.5 27.5,34.5C 28.325,33.6143 29.325,33.281 30.5,33.5 Z"/></g>
<g><path style="opacity:1" fill="#28242c" d="M 61.5,33.5 C 64.2856,33.9564 65.619,35.6231 65.5,38.5C 65.3601,40.0296 64.6935,41.0296 63.5,41.5C 63.9746,38.9179 63.3079,36.9179 61.5,35.5C 61.5,34.8333 61.5,34.1667 61.5,33.5 Z"/></g>
<g><path style="opacity:1" fill="#887f88" d="M 53.5,31.5 C 56.4951,31.2938 59.1617,31.9605 61.5,33.5C 61.5,34.1667 61.5,34.8333 61.5,35.5C 62.9536,38.3999 61.9536,39.7332 58.5,39.5C 58.5,37.5 58.5,35.5 58.5,33.5C 56.2188,33.9227 54.5521,33.256 53.5,31.5 Z"/></g>
<g><path style="opacity:1" fill="#8b838d" d="M 38.5,31.5 C 36.8113,32.3037 35.1446,33.3037 33.5,34.5C 32.6081,36.8539 32.6081,38.8539 33.5,40.5C 30.6493,39.9879 29.3159,38.3213 29.5,35.5C 30.3382,35.1583 30.6716,34.4916 30.5,33.5C 32.78,31.7773 35.4467,31.1107 38.5,31.5 Z"/></g>
<g><path style="opacity:1" fill="#e2dde5" d="M 38.5,31.5 C 41.0821,31.0254 43.0821,31.6921 44.5,33.5C 42.4433,35.0433 42.4433,36.0433 44.5,36.5C 44.5173,38.0281 45.184,38.5281 46.5,38C 48.0368,36.8904 48.7035,35.3904 48.5,33.5C 49.7791,32.032 51.4458,31.3653 53.5,31.5C 54.5521,33.256 56.2188,33.9227 58.5,33.5C 58.5,35.5 58.5,37.5 58.5,39.5C 61.9536,39.7332 62.9536,38.3999 61.5,35.5C 63.3079,36.9179 63.9746,38.9179 63.5,41.5C 62.5,41.8333 61.8333,42.5 61.5,43.5C 53.9368,45.1379 46.2701,45.8046 38.5,45.5C 35.7827,44.4371 32.9494,43.4371 30,42.5C 28.4022,40.1055 28.2355,37.7721 29.5,35.5C 29.3159,38.3213 30.6493,39.9879 33.5,40.5C 32.6081,38.8539 32.6081,36.8539 33.5,34.5C 35.1446,33.3037 36.8113,32.3037 38.5,31.5 Z"/></g>
<g><path style="opacity:1" fill="#25282c" d="M 44.5,33.5 C 44.5,34.5 44.5,35.5 44.5,36.5C 42.4433,36.0433 42.4433,35.0433 44.5,33.5 Z"/></g>
<g><path style="opacity:1" fill="#433032" d="M 46.5,33.5 C 47.1667,33.5 47.8333,33.5 48.5,33.5C 48.7035,35.3904 48.0368,36.8904 46.5,38C 45.184,38.5281 44.5173,38.0281 44.5,36.5C 46.0481,36.1788 46.7148,35.1788 46.5,33.5 Z"/></g>
<g><path style="opacity:1" fill="#e1423d" d="M 44.5,33.5 C 45.1667,33.5 45.8333,33.5 46.5,33.5C 46.7148,35.1788 46.0481,36.1788 44.5,36.5C 44.5,35.5 44.5,34.5 44.5,33.5 Z"/></g>
<g><path style="opacity:1" fill="#391a0d" d="M 48.5,21.5 C 48.2182,25.574 47.5515,29.574 46.5,33.5C 45.8333,33.5 45.1667,33.5 44.5,33.5C 43.0821,31.6921 41.0821,31.0254 38.5,31.5C 40.9479,30.5269 43.6146,30.1936 46.5,30.5C 45.9455,26.9878 46.6122,23.9878 48.5,21.5 Z"/></g>
<g><path style="opacity:1" fill="#db504a" d="M 53.5,15.5 C 51.4315,21.3745 49.7648,27.3745 48.5,33.5C 47.8333,33.5 47.1667,33.5 46.5,33.5C 47.5515,29.574 48.2182,25.574 48.5,21.5C 48.2322,19.901 48.5655,18.5676 49.5,17.5C 50.8333,16.8333 52.1667,16.1667 53.5,15.5 Z"/></g>
<g><path style="opacity:1" fill="#423115" d="M 53.5,15.5 C 54.1239,15.9169 54.4573,16.5836 54.5,17.5C 53.6557,21.2106 52.6557,24.8772 51.5,28.5C 51.9424,29.7387 52.6091,30.7387 53.5,31.5C 51.4458,31.3653 49.7791,32.032 48.5,33.5C 49.7648,27.3745 51.4315,21.3745 53.5,15.5 Z"/></g>
<g><path style="opacity:1" fill="#563132" d="M 50.5,14.5 C 51.791,14.2627 52.791,14.596 53.5,15.5C 52.1667,16.1667 50.8333,16.8333 49.5,17.5C 49.5569,16.391 49.8902,15.391 50.5,14.5 Z"/></g>
<g><path style="opacity:1" fill="#d49715" d="M 52.5,12.5 C 72.3792,16.7211 83.0458,29.0544 84.5,49.5C 83.3316,66.9702 74.665,78.6368 58.5,84.5C 56.9519,84.1788 56.2852,83.1788 56.5,81.5C 59.3945,75.2963 60.7278,68.6296 60.5,61.5C 61.4682,59.3926 61.8016,57.0593 61.5,54.5C 62.7089,50.3819 63.3755,46.0485 63.5,41.5C 64.6935,41.0296 65.3601,40.0296 65.5,38.5C 65.619,35.6231 64.2856,33.9564 61.5,33.5C 59.1617,31.9605 56.4951,31.2938 53.5,31.5C 52.6091,30.7387 51.9424,29.7387 51.5,28.5C 52.6557,24.8772 53.6557,21.2106 54.5,17.5C 54.4573,16.5836 54.1239,15.9169 53.5,15.5C 52.791,14.596 51.791,14.2627 50.5,14.5C 47.9205,13.7724 45.2538,13.2724 42.5,13C 45.8168,12.5017 49.1501,12.335 52.5,12.5 Z"/></g>
<g><path style="opacity:1" fill="#d39615" d="M 52.5,12.5 C 49.1501,12.335 45.8168,12.5017 42.5,13C 45.2538,13.2724 47.9205,13.7724 50.5,14.5C 49.8902,15.391 49.5569,16.391 49.5,17.5C 48.5655,18.5676 48.2322,19.901 48.5,21.5C 46.6122,23.9878 45.9455,26.9878 46.5,30.5C 43.6146,30.1936 40.9479,30.5269 38.5,31.5C 35.4467,31.1107 32.78,31.7773 30.5,33.5C 29.325,33.281 28.325,33.6143 27.5,34.5C 26.4383,38.5 26.605,42.5 28,46.5C 28.3826,47.056 28.8826,47.3893 29.5,47.5C 29.5319,52.3907 30.1985,57.0574 31.5,61.5C 31.4443,66.7312 32.111,71.7312 33.5,76.5C 32.9162,79.285 33.9162,80.9517 36.5,81.5C 37.7804,82.9313 39.4471,83.5979 41.5,83.5C 42.5145,84.7647 44.0145,85.4313 46,85.5C 48.0421,85.3845 50.0421,85.0512 52,84.5C 53.0299,84.1639 53.5299,83.4972 53.5,82.5C 54.609,82.4431 55.609,82.1098 56.5,81.5C 56.2852,83.1788 56.9519,84.1788 58.5,84.5C 34.6369,90.4821 18.4702,81.8155 10,58.5C 6.71707,42.6823 11.2171,29.5156 23.5,19C 32.3888,12.6587 42.0555,10.492 52.5,12.5 Z"/></g>
<g><path style="opacity:1" fill="#40302c" d="M 60.5,61.5 C 60.7278,68.6296 59.3945,75.2963 56.5,81.5C 55.609,82.1098 54.609,82.4431 53.5,82.5C 53.8333,81.8333 54.1667,81.1667 54.5,80.5C 56.9285,76.6079 58.2618,72.2746 58.5,67.5C 58.0254,64.9179 58.6921,62.9179 60.5,61.5 Z"/></g>
<g><path style="opacity:1" fill="#141504" d="M 31.5,61.5 C 32.4614,63.2646 32.7947,65.2646 32.5,67.5C 33.4025,70.3915 33.7359,73.3915 33.5,76.5C 32.111,71.7312 31.4443,66.7312 31.5,61.5 Z"/></g>
<g><path style="opacity:1" fill="#61231a" d="M 32.5,67.5 C 34.0269,67.427 35.0269,68.0937 35.5,69.5C 34.1667,72.1667 34.1667,74.8333 35.5,77.5C 35.4326,78.9587 35.7659,80.2921 36.5,81.5C 33.9162,80.9517 32.9162,79.285 33.5,76.5C 33.7359,73.3915 33.4025,70.3915 32.5,67.5 Z"/></g>
<g><path style="opacity:1" fill="#ed1211" d="M 35.5,69.5 C 40.4671,71.9963 45.8004,72.9963 51.5,72.5C 53.369,74.6353 54.0356,77.3019 53.5,80.5C 48.1303,81.9229 42.7969,81.7562 37.5,80C 36.9341,79.0053 36.2674,78.172 35.5,77.5C 34.1667,74.8333 34.1667,72.1667 35.5,69.5 Z"/></g>
<g><path style="opacity:1" fill="#c92420" d="M 58.5,67.5 C 58.2618,72.2746 56.9285,76.6079 54.5,80.5C 54.1667,80.5 53.8333,80.5 53.5,80.5C 54.0356,77.3019 53.369,74.6353 51.5,72.5C 53.6195,70.6002 55.9528,68.9336 58.5,67.5 Z"/></g>
<g><path style="opacity:1" fill="#b9a8b5" d="M 35.5,77.5 C 36.2674,78.172 36.9341,79.0053 37.5,80C 42.7969,81.7562 48.1303,81.9229 53.5,80.5C 53.8333,80.5 54.1667,80.5 54.5,80.5C 54.1667,81.1667 53.8333,81.8333 53.5,82.5C 49.5483,83.2721 45.5483,83.6054 41.5,83.5C 39.4471,83.5979 37.7804,82.9313 36.5,81.5C 35.7659,80.2921 35.4326,78.9587 35.5,77.5 Z"/></g>
<g><path style="opacity:1" fill="#3c3537" d="M 53.5,82.5 C 53.5299,83.4972 53.0299,84.1639 52,84.5C 50.0421,85.0512 48.0421,85.3845 46,85.5C 44.0145,85.4313 42.5145,84.7647 41.5,83.5C 45.5483,83.6054 49.5483,83.2721 53.5,82.5 Z"/></g>
</svg>
