<?xml version="1.0" encoding="UTF-8"?>
<!DOCTYPE svg PUBLIC "-//W3C//DTD SVG 1.1//EN" "http://www.w3.org/Graphics/SVG/1.1/DTD/svg11.dtd">
<svg xmlns="http://www.w3.org/2000/svg" version="1.1" width="96px" height="96px" style="shape-rendering:geometricPrecision; text-rendering:geometricPrecision; image-rendering:optimizeQuality; fill-rule:evenodd; clip-rule:evenodd" xmlns:xlink="http://www.w3.org/1999/xlink">
<g><path style="opacity:0.773" fill="#945f27" d="M 37.5,-0.5 C 43.8333,-0.5 50.1667,-0.5 56.5,-0.5C 56.5,-0.166667 56.5,0.166667 56.5,0.5C 49.1319,0.316863 41.7985,0.650196 34.5,1.5C 35.5,0.833333 36.5,0.166667 37.5,-0.5 Z"/></g>
<g><path style="opacity:0.392" fill="#8b5e29" d="M 57.5,0.5 C 60.8539,0.747474 63.8539,1.74747 66.5,3.5C 63.1461,3.25253 60.1461,2.25253 57.5,0.5 Z"/></g>
<g><path style="opacity:1" fill="#031121" d="M 87.5,27.5 C 94.899,47.0663 91.5657,64.5663 77.5,80C 72.4202,84.2068 66.7535,87.3735 60.5,89.5C 57.6697,89.9628 55.003,90.6295 52.5,91.5C 36.586,93.0367 23.586,87.7033 13.5,75.5C 0.45468,56.9175 0.288013,38.2508 13,19.5C 27.6596,3.61718 45.1596,-0.549488 65.5,7C 74.9688,11.6386 82.3021,18.4719 87.5,27.5 Z"/></g>
<g><path style="opacity:1" fill="#dc9623" d="M 56.5,0.5 C 56.8333,0.5 57.1667,0.5 57.5,0.5C 60.1461,2.25253 63.1461,3.25253 66.5,3.5C 77.771,7.77136 85.771,15.438 90.5,26.5C 89.1054,25.1854 88.1054,25.5188 87.5,27.5C 82.3021,18.4719 74.9688,11.6386 65.5,7C 45.1596,-0.549488 27.6596,3.61718 13,19.5C 0.288013,38.2508 0.45468,56.9175 13.5,75.5C 13.1242,77.353 13.1242,79.353 13.5,81.5C 6.49131,74.483 1.82464,66.1497 -0.5,56.5C -0.5,50.5 -0.5,44.5 -0.5,38.5C 3.97354,19.3598 15.6402,7.02652 34.5,1.5C 41.7985,0.650196 49.1319,0.316863 56.5,0.5 Z"/></g>
<g><path style="opacity:1" fill="#8f692c" d="M 90.5,26.5 C 92.8061,30.0845 94.1394,34.0845 94.5,38.5C 92.589,34.767 91.2556,30.767 90.5,26.5 Z"/></g>
<g><path style="opacity:1" fill="#f1c811" d="M 64.5,45.5 C 64.7947,47.7354 64.4614,49.7354 63.5,51.5C 58.5901,42.5863 53.2567,33.9196 47.5,25.5C 45.1466,29.1756 41.8133,31.009 37.5,31C 41.043,26.0839 44.2097,20.9172 47,15.5C 53.9296,24.9133 59.763,34.9133 64.5,45.5 Z"/></g>
<g><path style="opacity:1" fill="#edb21b" d="M 31.5,50.5 C 31.0707,49.0473 30.904,47.3806 31,45.5C 28.9376,47.9007 27.2709,50.5674 26,53.5C 25.5357,52.9056 25.369,52.2389 25.5,51.5C 28.5049,46.9823 31.3382,42.3156 34,37.5C 36.364,35.6372 38.864,33.9705 41.5,32.5C 42.521,33.0016 42.6877,33.6683 42,34.5C 38.6705,39.9863 35.1705,45.3196 31.5,50.5 Z"/></g>
<g><path style="opacity:1" fill="#82701f" d="M 64.5,45.5 C 65.7969,47.6934 65.7969,50.0268 64.5,52.5C 63.8933,52.3764 63.56,52.0431 63.5,51.5C 64.4614,49.7354 64.7947,47.7354 64.5,45.5 Z"/></g>
<g><path style="opacity:0.49" fill="#624d22" d="M 94.5,57.5 C 94.405,59.7857 93.7384,61.7857 92.5,63.5C 92.2594,61.1016 92.9261,59.1016 94.5,57.5 Z"/></g>
<g><path style="opacity:1" fill="#5d4426" d="M 25.5,60.5 C 27.8333,61.1667 30.1667,61.8333 32.5,62.5C 29.7531,62.8134 27.0865,62.48 24.5,61.5C 24.6236,60.8933 24.9569,60.56 25.5,60.5 Z"/></g>
<g><path style="opacity:1" fill="#5d4d23" d="M 69.5,61.5 C 58.5,62.1667 47.5,62.8333 36.5,63.5C 35.9569,63.44 35.6236,63.1067 35.5,62.5C 46.8138,61.5012 58.1471,61.1678 69.5,61.5 Z"/></g>
<g><path style="opacity:1" fill="#f7981e" d="M 31.5,50.5 C 29.5,53.8333 27.5,57.1667 25.5,60.5C 24.9569,60.56 24.6236,60.8933 24.5,61.5C 27.0865,62.48 29.7531,62.8134 32.5,62.5C 33.795,63.4884 35.1283,64.4884 36.5,65.5C 30.021,66.4907 23.3543,66.824 16.5,66.5C 19.263,61.2985 22.263,56.2985 25.5,51.5C 25.369,52.2389 25.5357,52.9056 26,53.5C 27.2709,50.5674 28.9376,47.9007 31,45.5C 30.904,47.3806 31.0707,49.0473 31.5,50.5 Z"/></g>
<g><path style="opacity:1" fill="#e8b913" d="M 36.5,63.5 C 47.5,62.8333 58.5,62.1667 69.5,61.5C 66.4086,57.8077 65.9086,53.8077 68,49.5C 71.6982,55.0343 75.1982,60.7009 78.5,66.5C 66.8476,67.6659 55.1809,67.8325 43.5,67C 41.047,66.0406 38.7137,64.874 36.5,63.5 Z"/></g>
<g><path style="opacity:1" fill="#774c1a" d="M 36.5,65.5 C 37.0431,65.56 37.3764,65.8933 37.5,66.5C 30.344,67.8188 23.344,67.8188 16.5,66.5C 23.3543,66.824 30.021,66.4907 36.5,65.5 Z"/></g>
<g><path style="opacity:1" fill="#dcb01e" d="M 90.5,26.5 C 91.2556,30.767 92.589,34.767 94.5,38.5C 94.5,39.1667 94.8333,39.5 95.5,39.5C 95.5,44.8333 95.5,50.1667 95.5,55.5C 94.6618,55.8417 94.3284,56.5084 94.5,57.5C 92.9261,59.1016 92.2594,61.1016 92.5,63.5C 87.1576,77.5091 77.4909,87.1758 63.5,92.5C 60.4331,92.8795 59.4331,91.8795 60.5,89.5C 66.7535,87.3735 72.4202,84.2068 77.5,80C 91.5657,64.5663 94.899,47.0663 87.5,27.5C 88.1054,25.5188 89.1054,25.1854 90.5,26.5 Z"/></g>
<g><path style="opacity:0.706" fill="#6b492d" d="M 13.5,81.5 C 15.0269,81.427 16.0269,82.0937 16.5,83.5C 14.9731,83.573 13.9731,82.9063 13.5,81.5 Z"/></g>
<g><path style="opacity:1" fill="#f2ba19" d="M 13.5,75.5 C 23.586,87.7033 36.586,93.0367 52.5,91.5C 54.604,91.2011 56.604,91.5344 58.5,92.5C 51.9712,94.2695 45.3045,94.9362 38.5,94.5C 35.4954,92.7234 32.1621,91.7234 28.5,91.5C 23.6783,90.0023 19.6783,87.3356 16.5,83.5C 16.0269,82.0937 15.0269,81.427 13.5,81.5C 13.1242,79.353 13.1242,77.353 13.5,75.5 Z"/></g>
<g><path style="opacity:0.906" fill="#8f682a" d="M 28.5,91.5 C 32.1621,91.7234 35.4954,92.7234 38.5,94.5C 34.8379,94.2766 31.5046,93.2766 28.5,91.5 Z"/></g>
<g><path style="opacity:0.584" fill="#9a7526" d="M 60.5,89.5 C 59.4331,91.8795 60.4331,92.8795 63.5,92.5C 61.2209,93.6515 58.8876,94.6515 56.5,95.5C 50.5,95.5 44.5,95.5 38.5,95.5C 38.5,95.1667 38.5,94.8333 38.5,94.5C 45.3045,94.9362 51.9712,94.2695 58.5,92.5C 56.604,91.5344 54.604,91.2011 52.5,91.5C 55.003,90.6295 57.6697,89.9628 60.5,89.5 Z"/></g>
</svg>
