<?xml version="1.0" encoding="UTF-8"?>
<!DOCTYPE svg PUBLIC "-//W3C//DTD SVG 1.1//EN" "http://www.w3.org/Graphics/SVG/1.1/DTD/svg11.dtd">
<svg xmlns="http://www.w3.org/2000/svg" version="1.1" width="96px" height="96px" style="shape-rendering:geometricPrecision; text-rendering:geometricPrecision; image-rendering:optimizeQuality; fill-rule:evenodd; clip-rule:evenodd" xmlns:xlink="http://www.w3.org/1999/xlink">
<g><path style="opacity:0.987" fill="#1d7dff" d="M 37.5,-0.5 C 44.1667,-0.5 50.8333,-0.5 57.5,-0.5C 77.1403,5.14032 89.807,17.807 95.5,37.5C 95.5,44.1667 95.5,50.8333 95.5,57.5C 89.807,77.193 77.1403,89.8597 57.5,95.5C 50.8333,95.5 44.1667,95.5 37.5,95.5C 17.8597,89.8597 5.193,77.193 -0.5,57.5C -0.5,50.8333 -0.5,44.1667 -0.5,37.5C 5.193,17.807 17.8597,5.14032 37.5,-0.5 Z"/></g>
<g><path style="opacity:1" fill="#ebf2ff" d="M 39.5,22.5 C 51.2392,21.0396 60.5726,25.0396 67.5,34.5C 67.8333,34.1667 68.1667,33.8333 68.5,33.5C 66.9733,31.8067 65.6399,29.9734 64.5,28C 66.7516,28.0496 68.4182,29.2163 69.5,31.5C 73.1158,30.0934 73.4492,28.0934 70.5,25.5C 70.7093,24.914 71.0426,24.414 71.5,24C 74.1667,23.3333 76.8333,23.3333 79.5,24C 80.4558,27.3936 80.7892,30.8936 80.5,34.5C 78.5165,34.6168 76.8498,33.9501 75.5,32.5C 73.9541,33.2116 72.9541,34.3783 72.5,36C 77.0622,46.6976 76.2289,56.8643 70,66.5C 68.7202,66.3865 67.8869,65.7199 67.5,64.5C 72.0586,57.0803 73.5586,49.0803 72,40.5C 71.4921,38.0958 70.3255,37.4291 68.5,38.5C 71.8683,49.9048 69.2016,59.7382 60.5,68C 44.2318,76.9694 31.5651,73.4694 22.5,57.5C 20.1831,59.316 18.0165,61.316 16,63.5C 16.7203,60.7348 18.3869,58.4015 21,56.5C 18.0807,39.9926 24.2474,28.6593 39.5,22.5 Z"/></g>
<g><path style="opacity:1" fill="#247cff" d="M 38.5,24.5 C 50.2371,23.1996 58.5704,27.8662 63.5,38.5C 58.8001,44.5454 53.6335,50.2121 48,55.5C 46.4611,49.6257 45.1278,43.6257 44,37.5C 42.6124,36.4464 41.1124,36.2797 39.5,37C 34.2907,42.0413 29.2907,47.208 24.5,52.5C 21.7284,39.3764 26.3951,30.0431 38.5,24.5 Z"/></g>
<g><path style="opacity:1" fill="#d8e6ff" d="M 40.5,26.5 C 46.625,26.6 51.9584,28.7667 56.5,33C 55.9747,33.6924 55.3081,34.1924 54.5,34.5C 46.9649,28.2207 39.1315,27.8874 31,33.5C 30.3828,32.5509 30.5494,31.7175 31.5,31C 34.4375,29.1991 37.4375,27.6991 40.5,26.5 Z"/></g>
<g><path style="opacity:1" fill="#227dff" d="M 40.5,38.5 C 41.9311,38.8807 42.7645,39.8807 43,41.5C 43.6667,46.1667 44.3333,50.8333 45,55.5C 45.7387,56.5742 46.7387,57.2409 48,57.5C 53.3043,53.0312 58.471,48.3645 63.5,43.5C 65.0708,53.5256 61.4041,61.0256 52.5,66C 41.0505,69.9623 32.2172,66.7957 26,56.5C 25.3333,55.5 25.3333,54.5 26,53.5C 31.0365,48.6313 35.8698,43.6313 40.5,38.5 Z"/></g>
</svg>
