<?xml version="1.0" encoding="UTF-8"?>
<!DOCTYPE svg PUBLIC "-//W3C//DTD SVG 1.1//EN" "http://www.w3.org/Graphics/SVG/1.1/DTD/svg11.dtd">
<svg xmlns="http://www.w3.org/2000/svg" version="1.1" width="96px" height="96px" style="shape-rendering:geometricPrecision; text-rendering:geometricPrecision; image-rendering:optimizeQuality; fill-rule:evenodd; clip-rule:evenodd" xmlns:xlink="http://www.w3.org/1999/xlink">
<g><path style="opacity:0.744" fill="#111215" d="M -0.5,70.5 C -0.5,65.1667 -0.5,59.8333 -0.5,54.5C 0.321983,52.6115 1.15532,50.6115 2,48.5C 1.11723,27.0781 10.6172,12.5781 30.5,5C 42.9576,2.18619 54.9576,3.51953 66.5,9C 75.9691,14.4381 80.3025,22.6048 79.5,33.5C 78.5492,42.8561 77.7159,52.1894 77,61.5C 80.0584,61.7629 83.2251,61.9295 86.5,62C 87.9436,63.126 88.6102,64.626 88.5,66.5C 85.9017,75.6031 80.235,82.1031 71.5,86C 56.5255,93.1651 41.1922,94.1651 25.5,89C 18.3864,85.5531 12.8864,80.3865 9,73.5C 4.94307,75.1918 1.77641,74.1918 -0.5,70.5 Z"/></g>
<g><path style="opacity:1" fill="#f1f7fa" d="M 70.5,15.5 C 72.882,20.3159 73.882,25.4826 73.5,31C 71.8994,40.7763 71.3994,50.6096 72,60.5C 72.4169,61.756 73.2502,62.4226 74.5,62.5C 76.1417,64.0808 78.1417,64.7475 80.5,64.5C 74.5677,74.8148 65.5677,80.6481 53.5,82C 31.165,84.1042 15.8316,74.9375 7.5,54.5C 2.78717,36.4617 7.78717,21.9617 22.5,11C 25.8662,8.81588 29.5328,7.48254 33.5,7C 43.7615,5.67832 53.7615,6.67832 63.5,10C 66.2661,11.371 68.5994,13.2043 70.5,15.5 Z"/></g>
<g><path style="opacity:1" fill="#555758" d="M 16.5,20.5 C 17.552,20.3505 18.552,20.5172 19.5,21C 17.6313,22.6017 15.6313,23.6017 13.5,24C 14.7101,22.9609 15.7101,21.7942 16.5,20.5 Z"/></g>
<g><path style="opacity:1" fill="#28292a" d="M 49.5,23.5 C 53.3233,23.8183 55.1567,25.8183 55,29.5C 53.5772,26.9296 51.7439,24.9296 49.5,23.5 Z"/></g>
<g><path style="opacity:1" fill="#1f2020" d="M 14.5,27.5 C 20.1904,26.7257 23.0237,29.059 23,34.5C 20.2179,28.81 16.5512,28.1433 12,32.5C 8.85822,36.7128 8.69156,41.0462 11.5,45.5C 11.1667,45.8333 10.8333,46.1667 10.5,46.5C 6.01837,38.9444 7.3517,32.6111 14.5,27.5 Z"/></g>
<g><path style="opacity:1" fill="#121212" d="M 16.5,36.5 C 21.3833,37.4655 22.7166,40.2988 20.5,45C 18.8876,45.7203 17.3876,45.5536 16,44.5C 15.3985,41.7795 15.5651,39.1128 16.5,36.5 Z"/></g>
<g><path style="opacity:1" fill="#151516" d="M 40.5,31.5 C 52.6076,31.8669 56.2742,37.7003 51.5,49C 50.6683,49.6877 50.0016,49.521 49.5,48.5C 54.7078,40.6841 52.8745,35.3508 44,32.5C 41.5941,32.7029 39.5941,33.7029 38,35.5C 37.3333,34.8333 37.3333,34.1667 38,33.5C 38.9947,32.9341 39.828,32.2674 40.5,31.5 Z"/></g>
<g><path style="opacity:1" fill="#121212" d="M 42.5,39.5 C 48.4877,39.664 49.821,42.164 46.5,47C 41.6363,46.7743 40.303,44.2743 42.5,39.5 Z"/></g>
<g><path style="opacity:1" fill="#c3d0e4" d="M 70.5,15.5 C 73.8426,17.5084 75.6759,20.5084 76,24.5C 76.3055,37.1965 75.8055,49.8632 74.5,62.5C 73.2502,62.4226 72.4169,61.756 72,60.5C 71.3994,50.6096 71.8994,40.7763 73.5,31C 73.882,25.4826 72.882,20.3159 70.5,15.5 Z"/></g>
<g><path style="opacity:1" fill="#dde2e8" d="M 7.5,66.5 C 7.62867,68.2161 7.962,69.8828 8.5,71.5C 5.78801,72.9874 3.62135,72.3207 2,69.5C 1.09063,63.3877 1.42396,57.3877 3,51.5C 3.65906,56.8828 5.15906,61.8828 7.5,66.5 Z"/></g>
<g><path style="opacity:1" fill="#272829" d="M 26.5,51.5 C 27.1993,53.556 28.1993,55.556 29.5,57.5C 30.7607,55.5466 31.9274,53.5466 33,51.5C 33.782,54.2569 33.282,56.7569 31.5,59C 30.2161,59.6838 29.0495,59.5171 28,58.5C 26.7978,56.3225 26.2978,53.9892 26.5,51.5 Z"/></g>
<g><path style="opacity:0.379" fill="#0a0b0f" d="M 95.5,50.5 C 95.5,52.5 95.5,54.5 95.5,56.5C 88.5548,61.0899 85.3881,59.0899 86,50.5C 87.6667,49.5 89.3333,48.5 91,47.5C 92.6147,48.3862 94.1147,49.3862 95.5,50.5 Z"/></g>
<g><path style="opacity:1" fill="#cdd7e4" d="M 88.5,50.5 C 94.5548,49.9421 95.8881,52.1088 92.5,57C 86.7377,57.4178 85.4044,55.2511 88.5,50.5 Z"/></g>
<g><path style="opacity:1" fill="#c0cde1" d="M 7.5,54.5 C 15.8316,74.9375 31.165,84.1042 53.5,82C 65.5677,80.6481 74.5677,74.8148 80.5,64.5C 81.7079,63.7659 83.0413,63.4326 84.5,63.5C 83.2253,72.957 78.2253,79.7904 69.5,84C 56.5447,89.7007 43.2113,90.8673 29.5,87.5C 24.6197,84.8013 20.1197,81.468 16,77.5C 13.2021,72.899 10.7021,68.2324 8.5,63.5C 8.29619,60.4824 7.96286,57.4824 7.5,54.5 Z"/></g>
<g><path style="opacity:1" fill="#151a26" d="M 69.5,60.5 C 67.9296,66.125 64.9296,70.9584 60.5,75C 59.2068,75.49 57.8734,75.6567 56.5,75.5C 55.8826,75.3893 55.3826,75.056 55,74.5C 54.067,68.1789 53.7336,61.8456 54,55.5C 54.8367,60.2131 55.67,64.8798 56.5,69.5C 56.238,70.9778 56.5713,72.3112 57.5,73.5C 62.8809,69.3965 66.2143,64.0631 67.5,57.5C 67.238,56.0222 67.5713,54.6888 68.5,53.5C 69.4742,55.7427 69.8076,58.076 69.5,60.5 Z"/></g>
<g><path style="opacity:1" fill="#bfcbdf" d="M 67.5,57.5 C 66.2143,64.0631 62.8809,69.3965 57.5,73.5C 56.5713,72.3112 56.238,70.9778 56.5,69.5C 58.3904,69.7035 59.8904,69.0368 61,67.5C 63.0603,63.9708 65.227,60.6374 67.5,57.5 Z"/></g>
<g><path style="opacity:1" fill="#bfcce0" d="M 69.5,60.5 C 70.9128,68.6816 67.9128,74.3483 60.5,77.5C 58.8295,77.3318 57.4961,76.6651 56.5,75.5C 57.8734,75.6567 59.2068,75.49 60.5,75C 64.9296,70.9584 67.9296,66.125 69.5,60.5 Z"/></g>
<g><path style="opacity:1" fill="#151c2d" d="M 8.5,63.5 C 10.7021,68.2324 13.2021,72.899 16,77.5C 20.1197,81.468 24.6197,84.8013 29.5,87.5C 26.2551,87.1199 23.2551,85.9532 20.5,84C 16.2197,79.8908 12.2197,75.7242 8.5,71.5C 7.962,69.8828 7.62867,68.2161 7.5,66.5C 7.55688,65.391 7.89022,64.391 8.5,63.5 Z"/></g>
</svg>
