<?xml version="1.0" encoding="UTF-8"?>
<!DOCTYPE svg PUBLIC "-//W3C//DTD SVG 1.1//EN" "http://www.w3.org/Graphics/SVG/1.1/DTD/svg11.dtd">
<svg xmlns="http://www.w3.org/2000/svg" version="1.1" width="96px" height="96px" style="shape-rendering:geometricPrecision; text-rendering:geometricPrecision; image-rendering:optimizeQuality; fill-rule:evenodd; clip-rule:evenodd" xmlns:xlink="http://www.w3.org/1999/xlink">
<g><path style="opacity:1" fill="#c0dbdf" d="M 37.5,-0.5 C 44.1667,-0.5 50.8333,-0.5 57.5,-0.5C 73.2367,4.03081 84.5701,13.6975 91.5,28.5C 90.603,29.5981 89.7697,29.5981 89,28.5C 88.6667,29.1667 88.3333,29.8333 88,30.5C 86.3792,26.5037 84.8792,25.837 83.5,28.5C 82.2807,27.7366 81.2807,26.7366 80.5,25.5C 78.6745,26.5709 77.5079,25.9042 77,23.5C 75.4071,25.2853 73.9071,25.452 72.5,24C 74.3963,22.9354 74.563,22.1021 73,21.5C 71.395,22.1007 70.0616,23.1007 69,24.5C 68,22.8333 67,21.1667 66,19.5C 66.9845,21.5979 66.6511,23.5979 65,25.5C 64.8333,22.6667 63.3333,21.1667 60.5,21C 62.9288,20.5488 63.0955,19.7155 61,18.5C 60.6667,18.8333 60.3333,19.1667 60,19.5C 58.4301,18.386 57.0968,17.0526 56,15.5C 55.1667,16.5 54.3333,17.5 53.5,18.5C 52.6667,17.5 51.8333,16.5 51,15.5C 50,15.5 49,15.5 48,15.5C 47.5439,14.2559 48.0439,13.4226 49.5,13C 48.0929,11.548 46.5929,11.7147 45,13.5C 42.1453,10.5407 38.9786,8.70735 35.5,8C 36.8627,5.87073 36.5294,5.37073 34.5,6.5C 32.1419,5.84613 30.4752,4.5128 29.5,2.5C 32.2521,1.48848 34.9188,0.488483 37.5,-0.5 Z"/></g>
<g><path style="opacity:0.993" fill="#bcd7db" d="M 29.5,2.5 C 30.4752,4.5128 32.1419,5.84613 34.5,6.5C 36.5294,5.37073 36.8627,5.87073 35.5,8C 38.9786,8.70735 42.1453,10.5407 45,13.5C 46.5929,11.7147 48.0929,11.548 49.5,13C 48.0439,13.4226 47.5439,14.2559 48,15.5C 49,15.5 50,15.5 51,15.5C 51.8333,16.5 52.6667,17.5 53.5,18.5C 54.3333,17.5 55.1667,16.5 56,15.5C 57.0968,17.0526 58.4301,18.386 60,19.5C 60.3333,19.1667 60.6667,18.8333 61,18.5C 63.0955,19.7155 62.9288,20.5488 60.5,21C 63.3333,21.1667 64.8333,22.6667 65,25.5C 66.6511,23.5979 66.9845,21.5979 66,19.5C 67,21.1667 68,22.8333 69,24.5C 70.0616,23.1007 71.395,22.1007 73,21.5C 74.563,22.1021 74.3963,22.9354 72.5,24C 73.9071,25.452 75.4071,25.2853 77,23.5C 77.5079,25.9042 78.6745,26.5709 80.5,25.5C 81.2807,26.7366 82.2807,27.7366 83.5,28.5C 84.8792,25.837 86.3792,26.5037 88,30.5C 88.3333,29.8333 88.6667,29.1667 89,28.5C 89.7697,29.5981 90.603,29.5981 91.5,28.5C 93.4018,31.6324 94.7351,34.9657 95.5,38.5C 95.5,44.5 95.5,50.5 95.5,56.5C 93.951,62.1366 91.6177,67.47 88.5,72.5C 88.2942,70.4508 87.4609,70.1175 86,71.5C 85.8333,70.8333 85.6667,70.1667 85.5,69.5C 87.031,65.5738 88.3643,61.5738 89.5,57.5C 89.2958,53.8484 87.6291,51.1817 84.5,49.5C 84.0679,48.2905 83.4013,47.2905 82.5,46.5C 74.8656,39.3404 67.199,32.1738 59.5,25C 51.3225,24.1772 43.3225,24.3439 35.5,25.5C 30.2679,29.9438 25.2679,34.6105 20.5,39.5C 17.4744,42.1954 14.4744,44.8621 11.5,47.5C 10.3121,48.6843 9.14547,48.6843 8,47.5C 7.30827,50.6291 5.80827,53.6291 3.5,56.5C 2.60433,55.4937 1.93767,55.4937 1.5,56.5C 3.92877,57.8813 3.59544,58.8813 0.5,59.5C 0.67158,58.5084 0.338246,57.8417 -0.5,57.5C -0.5,50.8333 -0.5,44.1667 -0.5,37.5C 3.71202,20.949 13.712,9.28231 29.5,2.5 Z"/></g>
<g><path style="opacity:1" fill="#1b2e31" d="M 35.5,25.5 C 40.8746,25.1718 46.2079,25.5052 51.5,26.5C 49.5767,27.3078 47.5767,27.8078 45.5,28C 47.6705,29.5862 50.0038,30.9196 52.5,32C 51.9056,32.4643 51.2389,32.631 50.5,32.5C 49.5,32.5 48.5,32.5 47.5,32.5C 47.1924,34.924 47.5258,37.2573 48.5,39.5C 55.3181,41.8029 57.1514,46.1362 54,52.5C 46.7422,57.6207 41.9088,55.954 39.5,47.5C 36.9407,47.1984 34.6074,47.5318 32.5,48.5C 30.2133,48.7239 28.0466,49.3906 26,50.5C 22.4838,48.9697 18.9838,47.4697 15.5,46C 17.5,44 19.5,42 21.5,40C 21.2716,39.6012 20.9382,39.4346 20.5,39.5C 25.2679,34.6105 30.2679,29.9438 35.5,25.5 Z"/></g>
<g><path style="opacity:1" fill="#1e373b" d="M 35.5,25.5 C 43.3225,24.3439 51.3225,24.1772 59.5,25C 67.199,32.1738 74.8656,39.3404 82.5,46.5C 77.8928,52.7762 72.5595,58.4428 66.5,63.5C 64.0181,61.4973 63.0181,58.8306 63.5,55.5C 62.5,55.5 61.5,55.5 60.5,55.5C 65.0261,44.2313 61.6928,36.5647 50.5,32.5C 51.2389,32.631 51.9056,32.4643 52.5,32C 50.0038,30.9196 47.6705,29.5862 45.5,28C 47.5767,27.8078 49.5767,27.3078 51.5,26.5C 46.2079,25.5052 40.8746,25.1718 35.5,25.5 Z"/></g>
<g><path style="opacity:0.975" fill="#afcbd1" d="M 11.5,47.5 C 11.5,47.8333 11.5,48.1667 11.5,48.5C 11.2475,51.3198 11.7475,53.9865 13,56.5C 19.1667,64 26,70.8333 33.5,77C 43.8526,79.778 54.1859,79.6113 64.5,76.5C 71.1837,69.6504 77.6837,62.6504 84,55.5C 84.4955,53.5273 84.6621,51.5273 84.5,49.5C 87.6291,51.1817 89.2958,53.8484 89.5,57.5C 88.3643,61.5738 87.031,65.5738 85.5,69.5C 85.6667,70.1667 85.8333,70.8333 86,71.5C 87.4609,70.1175 88.2942,70.4508 88.5,72.5C 81.2464,84.2958 70.913,91.9625 57.5,95.5C 50.8333,95.5 44.1667,95.5 37.5,95.5C 18.6387,90.3065 6.30533,78.3065 0.5,59.5C 3.59544,58.8813 3.92877,57.8813 1.5,56.5C 1.93767,55.4937 2.60433,55.4937 3.5,56.5C 5.80827,53.6291 7.30827,50.6291 8,47.5C 9.14547,48.6843 10.3121,48.6843 11.5,47.5 Z"/></g>
<g><path style="opacity:1" fill="#b9d5da" d="M 50.5,32.5 C 61.6928,36.5647 65.0261,44.2313 60.5,55.5C 56.1093,61.8525 50.1093,64.0192 42.5,62C 36.6096,59.383 33.2763,54.883 32.5,48.5C 34.6074,47.5318 36.9407,47.1984 39.5,47.5C 41.9088,55.954 46.7422,57.6207 54,52.5C 57.1514,46.1362 55.3181,41.8029 48.5,39.5C 47.5258,37.2573 47.1924,34.924 47.5,32.5C 48.5,32.5 49.5,32.5 50.5,32.5 Z"/></g>
<g><path style="opacity:1" fill="#142023" d="M 20.5,39.5 C 20.9382,39.4346 21.2716,39.6012 21.5,40C 19.5,42 17.5,44 15.5,46C 18.9838,47.4697 22.4838,48.9697 26,50.5C 28.0466,49.3906 30.2133,48.7239 32.5,48.5C 33.2763,54.883 36.6096,59.383 42.5,62C 50.1093,64.0192 56.1093,61.8525 60.5,55.5C 61.5,55.5 62.5,55.5 63.5,55.5C 63.0181,58.8306 64.0181,61.4973 66.5,63.5C 63.8333,65.8333 61.1667,68.1667 58.5,70.5C 50.8261,70.6664 43.1594,70.4997 35.5,70C 27.9623,62.9589 20.2956,56.1256 12.5,49.5C 12.5,48.8333 12.1667,48.5 11.5,48.5C 11.5,48.1667 11.5,47.8333 11.5,47.5C 14.4744,44.8621 17.4744,42.1954 20.5,39.5 Z"/></g>
<g><path style="opacity:1" fill="#96bbc7" d="M 82.5,46.5 C 83.4013,47.2905 84.0679,48.2905 84.5,49.5C 84.6621,51.5273 84.4955,53.5273 84,55.5C 77.6837,62.6504 71.1837,69.6504 64.5,76.5C 54.1859,79.6113 43.8526,79.778 33.5,77C 26,70.8333 19.1667,64 13,56.5C 11.7475,53.9865 11.2475,51.3198 11.5,48.5C 12.1667,48.5 12.5,48.8333 12.5,49.5C 12.9954,51.4817 13.4954,53.4817 14,55.5C 19.1581,59.9572 23.9914,64.7905 28.5,70C 30.6175,70.2602 32.2842,71.2602 33.5,73C 40.5,73.6667 47.5,73.6667 54.5,73C 56.0664,72.3918 57.3998,71.5585 58.5,70.5C 61.1667,68.1667 63.8333,65.8333 66.5,63.5C 72.5595,58.4428 77.8928,52.7762 82.5,46.5 Z"/></g>
<g><path style="opacity:1" fill="#7999b0" d="M 12.5,49.5 C 20.2956,56.1256 27.9623,62.9589 35.5,70C 43.1594,70.4997 50.8261,70.6664 58.5,70.5C 57.3998,71.5585 56.0664,72.3918 54.5,73C 47.5,73.6667 40.5,73.6667 33.5,73C 32.2842,71.2602 30.6175,70.2602 28.5,70C 23.9914,64.7905 19.1581,59.9572 14,55.5C 13.4954,53.4817 12.9954,51.4817 12.5,49.5 Z"/></g>
</svg>
