<?xml version="1.0" encoding="UTF-8"?>
<!DOCTYPE svg PUBLIC "-//W3C//DTD SVG 1.1//EN" "http://www.w3.org/Graphics/SVG/1.1/DTD/svg11.dtd">
<svg xmlns="http://www.w3.org/2000/svg" version="1.1" width="96px" height="96px" style="shape-rendering:geometricPrecision; text-rendering:geometricPrecision; image-rendering:optimizeQuality; fill-rule:evenodd; clip-rule:evenodd" xmlns:xlink="http://www.w3.org/1999/xlink">
<g><path style="opacity:0.961" fill="#f9f8fb" d="M 37.5,-0.5 C 44.1667,-0.5 50.8333,-0.5 57.5,-0.5C 65.3985,1.46512 72.3985,5.13179 78.5,10.5C 78.3152,12.8896 76.9818,13.8896 74.5,13.5C 67.8951,12.1753 61.2284,11.5086 54.5,11.5C 54.8693,9.00651 54.2027,8.33985 52.5,9.5C 47.4361,8.90921 42.7695,9.90921 38.5,12.5C 38.4142,11.5041 38.7476,10.6708 39.5,10C 33.5386,8.574 27.872,7.40733 22.5,6.5C 27.1185,3.35754 32.1185,1.02421 37.5,-0.5 Z"/></g>
<g><path style="opacity:0.999" fill="#f4f2f9" d="M 78.5,10.5 C 86.3247,16.8095 91.658,24.8095 94.5,34.5C 93.7767,36.2133 92.4433,37.2133 90.5,37.5C 87.5252,36.8607 84.5252,36.3607 81.5,36C 82.3279,35.0853 83.3279,34.4186 84.5,34C 83.9341,33.0053 83.2674,32.172 82.5,31.5C 79.3632,25.271 74.3632,22.1043 67.5,22C 70.1667,24.6667 72.8333,27.3333 75.5,30C 70.2837,32.5196 64.9504,34.853 59.5,37C 55.3862,39.2835 51.7196,42.1169 48.5,45.5C 48.5,45.1667 48.5,44.8333 48.5,44.5C 50.7395,39.5933 54.0729,35.5933 58.5,32.5C 57.2485,30.9991 56.2485,29.3325 55.5,27.5C 59.2001,26.7849 62.2001,28.1182 64.5,31.5C 66.1667,30.6667 67.8333,29.8333 69.5,29C 65.6334,24.7984 61.4668,20.9651 57,17.5C 55,20.8333 53,24.1667 51,27.5C 50.8845,21.4676 51.3845,15.4676 52.5,9.5C 54.2027,8.33985 54.8693,9.00651 54.5,11.5C 61.2284,11.5086 67.8951,12.1753 74.5,13.5C 76.9818,13.8896 78.3152,12.8896 78.5,10.5 Z"/></g>
<g><path style="opacity:1" fill="#f3f1f8" d="M 22.5,6.5 C 27.872,7.40733 33.5386,8.574 39.5,10C 38.7476,10.6708 38.4142,11.5041 38.5,12.5C 36.8912,13.8979 36.0579,15.5646 36,17.5C 39.5995,15.1376 43.4328,14.4709 47.5,15.5C 44.7919,24.3711 44.1252,33.3711 45.5,42.5C 44.8333,42.5 44.5,42.8333 44.5,43.5C 42.1022,39.597 40.7689,35.2637 40.5,30.5C 38.076,30.8076 35.7427,30.4742 33.5,29.5C 35.632,26.6825 38.4653,25.0159 42,24.5C 42.4935,22.8659 42.6602,21.1992 42.5,19.5C 36.4583,19.5308 31.125,21.3641 26.5,25C 33.7047,38.0032 32.038,38.6699 21.5,27C 19.9452,25.7107 18.2785,25.044 16.5,25C 12.6065,29.9857 11.6065,35.4857 13.5,41.5C 13.5654,41.9382 13.3988,42.2716 13,42.5C 12.2935,40.9194 11.4601,39.4194 10.5,38C 6.73643,37.7358 3.4031,36.5691 0.5,34.5C 4.50198,22.4696 11.8353,13.1362 22.5,6.5 Z"/></g>
<g><path style="opacity:1" fill="#4d1ec2" d="M 52.5,9.5 C 51.3845,15.4676 50.8845,21.4676 51,27.5C 53,24.1667 55,20.8333 57,17.5C 61.4668,20.9651 65.6334,24.7984 69.5,29C 67.8333,29.8333 66.1667,30.6667 64.5,31.5C 62.2001,28.1182 59.2001,26.7849 55.5,27.5C 56.2485,29.3325 57.2485,30.9991 58.5,32.5C 54.0729,35.5933 50.7395,39.5933 48.5,44.5C 46.8773,45.4908 45.8773,44.8241 45.5,42.5C 44.1252,33.3711 44.7919,24.3711 47.5,15.5C 43.4328,14.4709 39.5995,15.1376 36,17.5C 36.0579,15.5646 36.8912,13.8979 38.5,12.5C 42.7695,9.90921 47.4361,8.90921 52.5,9.5 Z"/></g>
<g><path style="opacity:1" fill="#4a1dc5" d="M 44.5,43.5 C 44.4142,44.4959 44.7476,45.3292 45.5,46C 43.5,46.6667 41.5,46.6667 39.5,46C 34.1338,43.3223 29.1338,40.1556 24.5,36.5C 23.0858,34.9458 21.4192,33.6125 19.5,32.5C 16.9555,35.2753 15.4555,38.6086 15,42.5C 14.6174,41.944 14.1174,41.6107 13.5,41.5C 11.6065,35.4857 12.6065,29.9857 16.5,25C 18.2785,25.044 19.9452,25.7107 21.5,27C 32.038,38.6699 33.7047,38.0032 26.5,25C 31.125,21.3641 36.4583,19.5308 42.5,19.5C 42.6602,21.1992 42.4935,22.8659 42,24.5C 38.4653,25.0159 35.632,26.6825 33.5,29.5C 35.7427,30.4742 38.076,30.8076 40.5,30.5C 40.7689,35.2637 42.1022,39.597 44.5,43.5 Z"/></g>
<g><path style="opacity:1" fill="#4719c4" d="M 82.5,31.5 C 82.6309,32.3764 82.2975,33.0431 81.5,33.5C 76.3068,35.1176 71.3068,37.1176 66.5,39.5C 70.5,40.1667 74.5,40.8333 78.5,41.5C 77.6479,45.1309 76.9812,48.7976 76.5,52.5C 75.5902,54.0188 74.7568,55.6854 74,57.5C 70.4262,54.9319 69.5929,51.5986 71.5,47.5C 71.5472,45.9996 70.8805,44.9996 69.5,44.5C 68.0019,46.1587 66.5019,47.8253 65,49.5C 59.5406,47.4108 54.0406,46.0775 48.5,45.5C 51.7196,42.1169 55.3862,39.2835 59.5,37C 64.9504,34.853 70.2837,32.5196 75.5,30C 72.8333,27.3333 70.1667,24.6667 67.5,22C 74.3632,22.1043 79.3632,25.271 82.5,31.5 Z"/></g>
<g><path style="opacity:0.984" fill="#efecf5" d="M 82.5,31.5 C 83.2674,32.172 83.9341,33.0053 84.5,34C 83.3279,34.4186 82.3279,35.0853 81.5,36C 84.5252,36.3607 87.5252,36.8607 90.5,37.5C 92.4433,37.2133 93.7767,36.2133 94.5,34.5C 94.2627,35.791 94.596,36.791 95.5,37.5C 95.5,44.1667 95.5,50.8333 95.5,57.5C 94.8333,57.5 94.5,57.8333 94.5,58.5C 93.7784,58.9175 93.2784,59.5842 93,60.5C 90.2628,59.3895 87.4294,59.2228 84.5,60C 83.8095,61.0674 83.3095,62.2341 83,63.5C 82.5357,62.9056 82.369,62.2389 82.5,61.5C 82.9383,58.1066 82.1049,55.1066 80,52.5C 79.5899,53.9007 79.0899,55.234 78.5,56.5C 77.3263,55.4863 76.6596,54.153 76.5,52.5C 76.9812,48.7976 77.6479,45.1309 78.5,41.5C 74.5,40.8333 70.5,40.1667 66.5,39.5C 71.3068,37.1176 76.3068,35.1176 81.5,33.5C 82.2975,33.0431 82.6309,32.3764 82.5,31.5 Z"/></g>
<g><path style="opacity:0.976" fill="#ebe7f2" d="M 24.5,36.5 C 22.8333,36.5 21.1667,36.5 19.5,36.5C 19.5,37.5 19.5,38.5 19.5,39.5C 17.8613,44.3604 16.8613,49.3604 16.5,54.5C 20.5546,54.1758 24.5546,54.5091 28.5,55.5C 22.7527,57.638 17.086,59.9713 11.5,62.5C 14.4415,68.4497 19.1081,72.1164 25.5,73.5C 25.9175,74.2216 26.5842,74.7216 27.5,75C 22.6192,74.9803 18.4526,73.147 15,69.5C 12.2423,70.1172 9.40898,70.2839 6.5,70C 7.77359,70.9772 7.77359,71.8106 6.5,72.5C 3.35754,67.8815 1.02421,62.8815 -0.5,57.5C -0.5,50.8333 -0.5,44.1667 -0.5,37.5C 0.403972,36.791 0.737305,35.791 0.5,34.5C 3.4031,36.5691 6.73643,37.7358 10.5,38C 11.4601,39.4194 12.2935,40.9194 13,42.5C 13.3988,42.2716 13.5654,41.9382 13.5,41.5C 14.1174,41.6107 14.6174,41.944 15,42.5C 15.4555,38.6086 16.9555,35.2753 19.5,32.5C 21.4192,33.6125 23.0858,34.9458 24.5,36.5 Z"/></g>
<g><path style="opacity:1" fill="#3f13c8" d="M 78.5,56.5 C 79.0899,55.234 79.5899,53.9007 80,52.5C 82.1049,55.1066 82.9383,58.1066 82.5,61.5C 81.4009,64.7793 79.7342,67.7793 77.5,70.5C 72.8549,67.0226 68.3549,63.3559 64,59.5C 64.7643,63.2082 66.2643,66.7082 68.5,70C 68.1667,70.5 67.8333,71 67.5,71.5C 62.6105,73.3055 57.6105,74.6388 52.5,75.5C 52.5,74.5 52.5,73.5 52.5,72.5C 52.4142,71.5041 52.7476,70.6708 53.5,70C 56.5881,69.4208 59.2548,68.0875 61.5,66C 59.4062,64.6485 57.0728,64.1485 54.5,64.5C 54.5414,58.7906 52.8747,53.6239 49.5,49C 53.814,48.5454 57.814,49.5454 61.5,52C 66.3081,55.3076 70.9748,58.8076 75.5,62.5C 77.2511,60.9363 78.2511,58.9363 78.5,56.5 Z"/></g>
<g><path style="opacity:1" fill="#3f15c9" d="M 36.5,57.5 C 30.7868,59.904 25.1201,62.404 19.5,65C 22.1667,67.6667 24.8333,70.3333 27.5,73C 26.9056,73.4643 26.2389,73.631 25.5,73.5C 19.1081,72.1164 14.4415,68.4497 11.5,62.5C 17.086,59.9713 22.7527,57.638 28.5,55.5C 24.5546,54.5091 20.5546,54.1758 16.5,54.5C 16.8613,49.3604 17.8613,44.3604 19.5,39.5C 20.2216,39.0825 20.7216,38.4158 21,37.5C 21.6891,38.3567 22.5224,39.0233 23.5,39.5C 23.8082,42.7499 23.9748,46.0833 24,49.5C 24.414,49.9574 24.914,50.2907 25.5,50.5C 26.9981,48.8413 28.4981,47.1747 30,45.5C 35.2229,47.8745 40.7229,49.0411 46.5,49C 43.5624,52.4487 40.2291,55.282 36.5,57.5 Z"/></g>
<g><path style="opacity:1" fill="#e9e3f3" d="M 24.5,36.5 C 29.1338,40.1556 34.1338,43.3223 39.5,46C 41.5,46.6667 43.5,46.6667 45.5,46C 44.7476,45.3292 44.4142,44.4959 44.5,43.5C 44.5,42.8333 44.8333,42.5 45.5,42.5C 45.8773,44.8241 46.8773,45.4908 48.5,44.5C 48.5,44.8333 48.5,45.1667 48.5,45.5C 54.0406,46.0775 59.5406,47.4108 65,49.5C 66.5019,47.8253 68.0019,46.1587 69.5,44.5C 70.8805,44.9996 71.5472,45.9996 71.5,47.5C 69.5929,51.5986 70.4262,54.9319 74,57.5C 74.7568,55.6854 75.5902,54.0188 76.5,52.5C 76.6596,54.153 77.3263,55.4863 78.5,56.5C 78.2511,58.9363 77.2511,60.9363 75.5,62.5C 70.9748,58.8076 66.3081,55.3076 61.5,52C 57.814,49.5454 53.814,48.5454 49.5,49C 52.8747,53.6239 54.5414,58.7906 54.5,64.5C 57.0728,64.1485 59.4062,64.6485 61.5,66C 59.2548,68.0875 56.5881,69.4208 53.5,70C 52.7476,70.6708 52.4142,71.5041 52.5,72.5C 51.8386,73.7175 51.1719,75.0508 50.5,76.5C 49.5713,75.3112 49.238,73.9778 49.5,72.5C 50.3577,66.1836 50.5244,59.8503 50,53.5C 49.3333,52.1667 48.6667,50.8333 48,49.5C 45.2882,53.6118 42.1216,57.2784 38.5,60.5C 38.7148,58.8212 38.0481,57.8212 36.5,57.5C 40.2291,55.282 43.5624,52.4487 46.5,49C 40.7229,49.0411 35.2229,47.8745 30,45.5C 28.4981,47.1747 26.9981,48.8413 25.5,50.5C 24.914,50.2907 24.414,49.9574 24,49.5C 23.9748,46.0833 23.8082,42.7499 23.5,39.5C 22.5224,39.0233 21.6891,38.3567 21,37.5C 20.7216,38.4158 20.2216,39.0825 19.5,39.5C 19.5,38.5 19.5,37.5 19.5,36.5C 21.1667,36.5 22.8333,36.5 24.5,36.5 Z"/></g>
<g><path style="opacity:1" fill="#3b11ca" d="M 49.5,72.5 C 48.5318,74.6074 48.1984,76.9407 48.5,79.5C 52.1791,79.6374 55.6791,78.9707 59,77.5C 57.9832,81.1853 55.4832,83.6853 51.5,85C 48.5184,85.498 45.5184,85.6646 42.5,85.5C 42.9608,79.7352 43.9608,74.0685 45.5,68.5C 44.8333,67.1667 44.1667,67.1667 43.5,68.5C 41.7349,71.7089 39.7349,74.7089 37.5,77.5C 32.8405,74.3402 28.8405,70.5069 25.5,66C 26.9999,64.8855 28.6666,64.0521 30.5,63.5C 32.7999,66.8818 35.7999,68.2151 39.5,67.5C 38.7515,65.6675 37.7515,64.0009 36.5,62.5C 36.8555,61.4777 37.5222,60.811 38.5,60.5C 42.1216,57.2784 45.2882,53.6118 48,49.5C 48.6667,50.8333 49.3333,52.1667 50,53.5C 50.5244,59.8503 50.3577,66.1836 49.5,72.5 Z"/></g>
<g><path style="opacity:0.996" fill="#e7e2ef" d="M 36.5,57.5 C 38.0481,57.8212 38.7148,58.8212 38.5,60.5C 37.5222,60.811 36.8555,61.4777 36.5,62.5C 37.7515,64.0009 38.7515,65.6675 39.5,67.5C 35.7999,68.2151 32.7999,66.8818 30.5,63.5C 28.6666,64.0521 26.9999,64.8855 25.5,66C 28.8405,70.5069 32.8405,74.3402 37.5,77.5C 39.7349,74.7089 41.7349,71.7089 43.5,68.5C 44.1667,67.1667 44.8333,67.1667 45.5,68.5C 43.9608,74.0685 42.9608,79.7352 42.5,85.5C 45.5184,85.6646 48.5184,85.498 51.5,85C 55.4832,83.6853 57.9832,81.1853 59,77.5C 55.6791,78.9707 52.1791,79.6374 48.5,79.5C 48.1984,76.9407 48.5318,74.6074 49.5,72.5C 49.238,73.9778 49.5713,75.3112 50.5,76.5C 51.1719,75.0508 51.8386,73.7175 52.5,72.5C 52.5,73.5 52.5,74.5 52.5,75.5C 57.6105,74.6388 62.6105,73.3055 67.5,71.5C 67.8333,71 68.1667,70.5 68.5,70C 66.2643,66.7082 64.7643,63.2082 64,59.5C 68.3549,63.3559 72.8549,67.0226 77.5,70.5C 79.7342,67.7793 81.4009,64.7793 82.5,61.5C 82.369,62.2389 82.5357,62.9056 83,63.5C 83.3095,62.2341 83.8095,61.0674 84.5,60C 87.4294,59.2228 90.2628,59.3895 93,60.5C 93.2784,59.5842 93.7784,58.9175 94.5,58.5C 89.1343,77.8657 76.801,90.199 57.5,95.5C 50.8333,95.5 44.1667,95.5 37.5,95.5C 24.0462,92.0471 13.7129,84.3805 6.5,72.5C 7.77359,71.8106 7.77359,70.9772 6.5,70C 9.40898,70.2839 12.2423,70.1172 15,69.5C 18.4526,73.147 22.6192,74.9803 27.5,75C 26.5842,74.7216 25.9175,74.2216 25.5,73.5C 26.2389,73.631 26.9056,73.4643 27.5,73C 24.8333,70.3333 22.1667,67.6667 19.5,65C 25.1201,62.404 30.7868,59.904 36.5,57.5 Z"/></g>
</svg>
