<?xml version="1.0" encoding="UTF-8"?>
<!DOCTYPE svg PUBLIC "-//W3C//DTD SVG 1.1//EN" "http://www.w3.org/Graphics/SVG/1.1/DTD/svg11.dtd">
<svg xmlns="http://www.w3.org/2000/svg" version="1.1" width="96px" height="96px" style="shape-rendering:geometricPrecision; text-rendering:geometricPrecision; image-rendering:optimizeQuality; fill-rule:evenodd; clip-rule:evenodd" xmlns:xlink="http://www.w3.org/1999/xlink">
<g><path style="opacity:1" fill="#8ad0f2" d="M 37.5,-0.5 C 44.1667,-0.5 50.8333,-0.5 57.5,-0.5C 76.7369,5.07001 89.4035,17.4033 95.5,36.5C 95.5,43.8333 95.5,51.1667 95.5,58.5C 89.3949,77.6055 76.7283,89.9388 57.5,95.5C 50.8333,95.5 44.1667,95.5 37.5,95.5C 17.8597,89.8597 5.193,77.193 -0.5,57.5C -0.5,50.8333 -0.5,44.1667 -0.5,37.5C 5.16667,17.8333 17.8333,5.16667 37.5,-0.5 Z"/></g>
<g><path style="opacity:1" fill="#906d5a" d="M 31.5,22.5 C 29.2654,23.2279 27.4321,24.5612 26,26.5C 25.6174,25.944 25.1174,25.6107 24.5,25.5C 23.2546,22.0127 21.2546,19.0127 18.5,16.5C 18.811,15.5222 19.4777,14.8555 20.5,14.5C 25.1211,15.9658 28.7878,18.6324 31.5,22.5 Z"/></g>
<g><path style="opacity:1" fill="#8a6855" d="M 78.5,22.5 C 77.3406,21.5442 76.1739,20.5442 75,19.5C 71.9919,19.9937 69.4919,21.3271 67.5,23.5C 66.1667,23.1667 64.8333,22.8333 63.5,22.5C 62.8333,22.1667 62.1667,21.8333 61.5,21.5C 66.2248,17.041 71.7248,15.041 78,15.5C 78.4966,17.8098 78.6633,20.1432 78.5,22.5 Z"/></g>
<g><path style="opacity:1" fill="#facca7" d="M 18.5,16.5 C 21.2546,19.0127 23.2546,22.0127 24.5,25.5C 23.5514,27.7772 22.2181,29.7772 20.5,31.5C 19.2101,30.9423 18.3768,29.9423 18,28.5C 17.1881,24.3112 17.3547,20.3112 18.5,16.5 Z"/></g>
<g><path style="opacity:1" fill="#b68f70" d="M 59.5,21.5 C 56.4725,23.1405 53.1391,23.9738 49.5,24C 46.116,26.9372 42.116,28.2705 37.5,28C 36.1062,33.0554 32.7728,35.3887 27.5,35C 25.3911,36.1411 23.5578,37.6411 22,39.5C 20.7866,43.6442 19.2866,47.6442 17.5,51.5C 18.1667,53.8333 18.8333,56.1667 19.5,58.5C 18.723,60.4466 17.723,62.2799 16.5,64C 18.079,66.7372 19.4123,69.5705 20.5,72.5C 19.2502,72.5774 18.4169,73.244 18,74.5C 17.6667,74.1667 17.3333,73.8333 17,73.5C 13.744,68.1498 11.5773,62.3165 10.5,56C 10.4934,54.1878 11.16,52.6878 12.5,51.5C 10.9604,50.4679 10.4604,49.1346 11,47.5C 13.9263,41.9739 17.0929,36.6406 20.5,31.5C 22.2181,29.7772 23.5514,27.7772 24.5,25.5C 25.1174,25.6107 25.6174,25.944 26,26.5C 27.4321,24.5612 29.2654,23.2279 31.5,22.5C 36.125,20.0646 41.125,19.0646 46.5,19.5C 51.1071,19.3164 55.4405,19.983 59.5,21.5 Z"/></g>
<g><path style="opacity:1" fill="#e7b58b" d="M 59.5,21.5 C 60.1667,21.5 60.8333,21.5 61.5,21.5C 62.1667,21.8333 62.8333,22.1667 63.5,22.5C 61.5206,24.9942 60.1873,27.8275 59.5,31C 61.5318,36.0438 64.0318,40.8771 67,45.5C 67.8407,49.1202 67.174,52.4536 65,55.5C 64.7679,54.2625 64.2679,53.2625 63.5,52.5C 62.0679,50.3531 60.2345,50.0198 58,51.5C 57.2516,53.8401 57.7516,55.8401 59.5,57.5C 60.2625,58.2679 61.2625,58.7679 62.5,59C 60.5952,60.4213 58.5952,61.588 56.5,62.5C 53.6868,57.1546 49.3535,54.6546 43.5,55C 42.9558,55.7172 42.2891,56.2172 41.5,56.5C 40.1667,54.5 38.8333,52.5 37.5,50.5C 36.0985,47.201 34.2652,46.8677 32,49.5C 31.51,50.7932 31.3433,52.1266 31.5,53.5C 29.4071,58.0564 30.7404,61.0564 35.5,62.5C 35.5,63.1667 35.5,63.8333 35.5,64.5C 34.9965,67.4525 33.9965,70.2858 32.5,73C 29.4133,73.2589 26.4133,73.7589 23.5,74.5C 21.9731,74.573 20.9731,73.9063 20.5,72.5C 19.4123,69.5705 18.079,66.7372 16.5,64C 17.723,62.2799 18.723,60.4466 19.5,58.5C 18.8333,56.1667 18.1667,53.8333 17.5,51.5C 19.2866,47.6442 20.7866,43.6442 22,39.5C 23.5578,37.6411 25.3911,36.1411 27.5,35C 32.7728,35.3887 36.1062,33.0554 37.5,28C 42.116,28.2705 46.116,26.9372 49.5,24C 53.1391,23.9738 56.4725,23.1405 59.5,21.5 Z"/></g>
<g><path style="opacity:1" fill="#cb9e7a" d="M 63.5,22.5 C 64.8333,22.8333 66.1667,23.1667 67.5,23.5C 69.5,25.5 71.5,27.5 73.5,29.5C 72.5354,30.7211 72.702,32.0544 74,33.5C 74.8444,44.2112 74.5111,54.8779 73,65.5C 72.1166,68.1024 70.6166,70.2691 68.5,72C 64.2695,73.2899 59.9362,73.7899 55.5,73.5C 58.9367,70.0957 59.27,66.4291 56.5,62.5C 58.5952,61.588 60.5952,60.4213 62.5,59C 61.2625,58.7679 60.2625,58.2679 59.5,57.5C 62.1662,57.9342 63.3329,56.9342 63,54.5C 62.3457,55.6956 61.8457,55.6956 61.5,54.5C 62.2427,53.8182 62.9094,53.1515 63.5,52.5C 64.2679,53.2625 64.7679,54.2625 65,55.5C 67.174,52.4536 67.8407,49.1202 67,45.5C 64.0318,40.8771 61.5318,36.0438 59.5,31C 60.1873,27.8275 61.5206,24.9942 63.5,22.5 Z"/></g>
<g><path style="opacity:1" fill="#f8cea9" d="M 78.5,22.5 C 78.3531,25.7916 77.3531,28.7916 75.5,31.5C 74.5,31.1667 73.8333,30.5 73.5,29.5C 71.5,27.5 69.5,25.5 67.5,23.5C 69.4919,21.3271 71.9919,19.9937 75,19.5C 76.1739,20.5442 77.3406,21.5442 78.5,22.5 Z"/></g>
<g><path style="opacity:1" fill="#93715e" d="M 73.5,29.5 C 73.8333,30.5 74.5,31.1667 75.5,31.5C 77.533,38.0234 79.033,44.6901 80,51.5C 80.9771,54.1024 82.1437,56.6024 83.5,59C 82.5,59.3333 81.5,59.6667 80.5,60C 81.5762,61.7261 81.7429,63.5594 81,65.5C 77.1338,70.0646 73.6338,74.8979 70.5,80C 65.7514,80.5141 60.9181,80.3474 56,79.5C 48.4065,83.9221 41.2398,83.4221 34.5,78C 32.1667,77.6667 29.8333,77.3333 27.5,77C 25.6803,76.7996 24.347,75.9663 23.5,74.5C 26.4133,73.7589 29.4133,73.2589 32.5,73C 33.9965,70.2858 34.9965,67.4525 35.5,64.5C 34.9025,71.2478 37.9025,75.5812 44.5,77.5C 42.8918,78.2421 41.2251,78.4087 39.5,78C 40.6651,79.0836 41.9984,79.9169 43.5,80.5C 46.5027,79.9149 49.5027,79.2482 52.5,78.5C 50.8827,78.3306 49.216,77.9972 47.5,77.5C 50.2109,76.1446 52.8776,74.8112 55.5,73.5C 59.9362,73.7899 64.2695,73.2899 68.5,72C 70.6166,70.2691 72.1166,68.1024 73,65.5C 74.5111,54.8779 74.8444,44.2112 74,33.5C 72.702,32.0544 72.5354,30.7211 73.5,29.5 Z"/></g>
<g><path style="opacity:1" fill="#1b1a19" d="M 37.5,50.5 C 37.0825,51.2216 36.4158,51.7216 35.5,52C 36.3081,52.3076 36.9747,52.8076 37.5,53.5C 35.4844,54.6942 33.4844,54.6942 31.5,53.5C 31.3433,52.1266 31.51,50.7932 32,49.5C 34.2652,46.8677 36.0985,47.201 37.5,50.5 Z"/></g>
<g><path style="opacity:1" fill="#1f1d1b" d="M 63.5,52.5 C 62.9094,53.1515 62.2427,53.8182 61.5,54.5C 61.8457,55.6956 62.3457,55.6956 63,54.5C 63.3329,56.9342 62.1662,57.9342 59.5,57.5C 57.7516,55.8401 57.2516,53.8401 58,51.5C 60.2345,50.0198 62.0679,50.3531 63.5,52.5 Z"/></g>
<g><path style="opacity:1" fill="#b08c6f" d="M 37.5,50.5 C 38.8333,52.5 40.1667,54.5 41.5,56.5C 39.8333,58.8333 37.8333,60.8333 35.5,62.5C 30.7404,61.0564 29.4071,58.0564 31.5,53.5C 33.4844,54.6942 35.4844,54.6942 37.5,53.5C 36.9747,52.8076 36.3081,52.3076 35.5,52C 36.4158,51.7216 37.0825,51.2216 37.5,50.5 Z"/></g>
<g><path style="opacity:1" fill="#1d1d1d" d="M 56.5,62.5 C 59.27,66.4291 58.9367,70.0957 55.5,73.5C 52.8776,74.8112 50.2109,76.1446 47.5,77.5C 49.216,77.9972 50.8827,78.3306 52.5,78.5C 49.5027,79.2482 46.5027,79.9149 43.5,80.5C 41.9984,79.9169 40.6651,79.0836 39.5,78C 41.2251,78.4087 42.8918,78.2421 44.5,77.5C 37.9025,75.5812 34.9025,71.2478 35.5,64.5C 35.5,63.8333 35.5,63.1667 35.5,62.5C 37.8333,60.8333 39.8333,58.8333 41.5,56.5C 42.2891,56.2172 42.9558,55.7172 43.5,55C 49.3535,54.6546 53.6868,57.1546 56.5,62.5 Z"/></g>
</svg>
