<?xml version="1.0" encoding="UTF-8"?>
<!DOCTYPE svg PUBLIC "-//W3C//DTD SVG 1.1//EN" "http://www.w3.org/Graphics/SVG/1.1/DTD/svg11.dtd">
<svg xmlns="http://www.w3.org/2000/svg" version="1.1" width="96px" height="96px" style="shape-rendering:geometricPrecision; text-rendering:geometricPrecision; image-rendering:optimizeQuality; fill-rule:evenodd; clip-rule:evenodd" xmlns:xlink="http://www.w3.org/1999/xlink">
<g><path style="opacity:1" fill="#d770ae" d="M 39.5,-0.5 C 44.8333,-0.5 50.1667,-0.5 55.5,-0.5C 76.7184,4.38478 90.0517,17.3848 95.5,38.5C 95.5,44.5 95.5,50.5 95.5,56.5C 90.1755,77.1579 77.1755,90.1579 56.5,95.5C 50.8333,95.5 45.1667,95.5 39.5,95.5C 18.0923,89.7585 4.75896,76.0918 -0.5,54.5C -0.5,49.8333 -0.5,45.1667 -0.5,40.5C 4.72822,18.9383 18.0615,5.27165 39.5,-0.5 Z"/></g>
<g><path style="opacity:1" fill="#fefcfd" d="M 35.5,19.5 C 35.5,21.8333 35.5,24.1667 35.5,26.5C 43.5,26.5 51.5,26.5 59.5,26.5C 59.5,24.1667 59.5,21.8333 59.5,19.5C 63.8333,19.5 68.1667,19.5 72.5,19.5C 72.5,21.1667 72.5,22.8333 72.5,24.5C 69.2869,24.19 66.2869,24.5233 63.5,25.5C 64.5676,26.4345 65.901,26.7678 67.5,26.5C 67.5,28.5 67.5,30.5 67.5,32.5C 70.5,32.5 73.5,32.5 76.5,32.5C 76.5,36.8333 76.5,41.1667 76.5,45.5C 73.5,45.5 70.5,45.5 67.5,45.5C 67.5,54.5 67.5,63.5 67.5,72.5C 64.1667,72.5 60.8333,72.5 57.5,72.5C 57.5,75.1667 57.5,77.8333 57.5,80.5C 50.8333,80.5 44.1667,80.5 37.5,80.5C 37.8016,77.9407 37.4682,75.6074 36.5,73.5C 33.7131,72.5233 30.7131,72.19 27.5,72.5C 27.5,63.5 27.5,54.5 27.5,45.5C 24.5,45.5 21.5,45.5 18.5,45.5C 18.5,41.1667 18.5,36.8333 18.5,32.5C 21.5,32.5 24.5,32.5 27.5,32.5C 27.5,30.5 27.5,28.5 27.5,26.5C 29.099,26.7678 30.4324,26.4345 31.5,25.5C 28.7131,24.5233 25.7131,24.19 22.5,24.5C 22.5,22.8333 22.5,21.1667 22.5,19.5C 26.8333,19.5 31.1667,19.5 35.5,19.5 Z"/></g>
<g><path style="opacity:1" fill="#edc2dc" d="M 35.5,19.5 C 31.1667,19.5 26.8333,19.5 22.5,19.5C 22.5,21.1667 22.5,22.8333 22.5,24.5C 25.7131,24.19 28.7131,24.5233 31.5,25.5C 28.1667,25.5 24.8333,25.5 21.5,25.5C 21.5,23.1667 21.5,20.8333 21.5,18.5C 26.3633,18.1805 31.03,18.5139 35.5,19.5 Z"/></g>
<g><path style="opacity:1" fill="#ebbbd8" d="M 59.5,19.5 C 63.97,18.5139 68.6367,18.1805 73.5,18.5C 73.5,20.8333 73.5,23.1667 73.5,25.5C 70.1667,25.5 66.8333,25.5 63.5,25.5C 66.2869,24.5233 69.2869,24.19 72.5,24.5C 72.5,22.8333 72.5,21.1667 72.5,19.5C 68.1667,19.5 63.8333,19.5 59.5,19.5 Z"/></g>
<g><path style="opacity:1" fill="#e091c0" d="M 33.5,31.5 C 37.9876,30.8341 42.6543,30.5008 47.5,30.5C 52.5508,30.5067 57.2175,31.1734 61.5,32.5C 61.1667,32.5 60.8333,32.5 60.5,32.5C 51.6822,31.5067 42.6822,31.1734 33.5,31.5 Z"/></g>
<g><path style="opacity:1" fill="#d567a9" d="M 33.5,32.5 C 33.5,32.1667 33.5,31.8333 33.5,31.5C 42.6822,31.1734 51.6822,31.5067 60.5,32.5C 57.8333,32.5 55.1667,32.5 52.5,32.5C 51.5233,35.2869 51.19,38.2869 51.5,41.5C 48.8333,41.5 46.1667,41.5 43.5,41.5C 43.81,38.2869 43.4767,35.2869 42.5,32.5C 39.5,32.5 36.5,32.5 33.5,32.5 Z"/></g>
<g><path style="opacity:1" fill="#d66ead" d="M 33.5,32.5 C 33.5,35.5 33.5,38.5 33.5,41.5C 34.441,46.0704 34.7744,50.737 34.5,55.5C 32.8333,55.5 31.1667,55.5 29.5,55.5C 29.5,51.1667 29.5,46.8333 29.5,42.5C 27.3926,41.5318 25.0593,41.1984 22.5,41.5C 22.5,39.8333 22.5,38.1667 22.5,36.5C 24.8333,36.5 27.1667,36.5 29.5,36.5C 29.5,35.1667 29.5,33.8333 29.5,32.5C 30.8333,32.5 32.1667,32.5 33.5,32.5 Z"/></g>
<g><path style="opacity:1" fill="#e8b0d1" d="M 54.5,36.5 C 54.5,37.5 54.5,38.5 54.5,39.5C 55.5,39.5 56.5,39.5 57.5,39.5C 56.4324,40.4345 55.099,40.7678 53.5,40.5C 53.2322,38.901 53.5655,37.5676 54.5,36.5 Z"/></g>
<g><path style="opacity:1" fill="#d15aa1" d="M 37.5,36.5 C 38.5,36.5 39.5,36.5 40.5,36.5C 40.5,37.5 40.5,38.5 40.5,39.5C 39.5,39.5 38.5,39.5 37.5,39.5C 37.5,38.5 37.5,37.5 37.5,36.5 Z"/></g>
<g><path style="opacity:1" fill="#d15ba2" d="M 54.5,36.5 C 55.5,36.5 56.5,36.5 57.5,36.5C 57.5,37.5 57.5,38.5 57.5,39.5C 57.5,38.5 57.5,37.5 57.5,36.5C 56.5,36.5 55.5,36.5 54.5,36.5 Z"/></g>
<g><path style="opacity:1" fill="#e8b1d2" d="M 22.5,36.5 C 22.5,38.1667 22.5,39.8333 22.5,41.5C 25.0593,41.1984 27.3926,41.5318 29.5,42.5C 26.8333,42.5 24.1667,42.5 21.5,42.5C 21.2053,40.2646 21.5386,38.2646 22.5,36.5 Z"/></g>
<g><path style="opacity:1" fill="#e8add0" d="M 42.5,32.5 C 43.4767,35.2869 43.81,38.2869 43.5,41.5C 46.1667,41.5 48.8333,41.5 51.5,41.5C 51.19,38.2869 51.5233,35.2869 52.5,32.5C 52.5,35.8333 52.5,39.1667 52.5,42.5C 49.1667,42.5 45.8333,42.5 42.5,42.5C 42.5,39.1667 42.5,35.8333 42.5,32.5 Z"/></g>
<g><path style="opacity:1" fill="#ecbdda" d="M 72.5,36.5 C 73.4614,38.2646 73.7947,40.2646 73.5,42.5C 70.8333,42.5 68.1667,42.5 65.5,42.5C 67.6074,41.5318 69.9407,41.1984 72.5,41.5C 72.5,39.8333 72.5,38.1667 72.5,36.5 Z"/></g>
<g><path style="opacity:1" fill="#d66eac" d="M 61.5,32.5 C 62.8333,32.5 64.1667,32.5 65.5,32.5C 65.5,33.8333 65.5,35.1667 65.5,36.5C 67.8333,36.5 70.1667,36.5 72.5,36.5C 72.5,38.1667 72.5,39.8333 72.5,41.5C 69.9407,41.1984 67.6074,41.5318 65.5,42.5C 64.5166,46.2984 64.1832,50.2984 64.5,54.5C 63.1667,54.5 61.8333,54.5 60.5,54.5C 60.5,50.5 60.5,46.5 60.5,42.5C 61.4794,39.3752 61.8128,36.0419 61.5,32.5 Z"/></g>
<g><path style="opacity:1" fill="#f2d2e5" d="M 33.5,41.5 C 34.8048,43.3972 35.4714,45.7305 35.5,48.5C 35.4966,51.0254 35.1633,53.3587 34.5,55.5C 34.7744,50.737 34.441,46.0704 33.5,41.5 Z"/></g>
<g><path style="opacity:1" fill="#e39cc6" d="M 60.5,42.5 C 60.5,46.5 60.5,50.5 60.5,54.5C 61.8333,54.5 63.1667,54.5 64.5,54.5C 64.1832,50.2984 64.5166,46.2984 65.5,42.5C 65.5,46.8333 65.5,51.1667 65.5,55.5C 63.5,55.5 61.5,55.5 59.5,55.5C 59.1818,50.9677 59.5151,46.6344 60.5,42.5 Z"/></g>
<g><path style="opacity:1" fill="#e4a1c9" d="M 18.5,32.5 C 18.5,36.8333 18.5,41.1667 18.5,45.5C 21.5,45.5 24.5,45.5 27.5,45.5C 27.5,54.5 27.5,63.5 27.5,72.5C 30.7131,72.19 33.7131,72.5233 36.5,73.5C 33.1667,73.5 29.8333,73.5 26.5,73.5C 26.5,64.5 26.5,55.5 26.5,46.5C 23.5,46.5 20.5,46.5 17.5,46.5C 17.1805,41.6367 17.5139,36.97 18.5,32.5 Z"/></g>
<g><path style="opacity:1" fill="#edc1dc" d="M 42.5,49.5 C 42.5,48.5 42.5,47.5 42.5,46.5C 41.5,46.5 40.5,46.5 39.5,46.5C 39.5,47.5 39.5,48.5 39.5,49.5C 38.5655,48.4324 38.2322,47.099 38.5,45.5C 40.1667,45.5 41.8333,45.5 43.5,45.5C 43.7678,47.099 43.4345,48.4324 42.5,49.5 Z"/></g>
<g><path style="opacity:1" fill="#d059a1" d="M 42.5,49.5 C 41.5,49.5 40.5,49.5 39.5,49.5C 39.5,48.5 39.5,47.5 39.5,46.5C 40.5,46.5 41.5,46.5 42.5,46.5C 42.5,47.5 42.5,48.5 42.5,49.5 Z"/></g>
<g><path style="opacity:1" fill="#edc2dc" d="M 55.5,49.5 C 54.4324,50.4345 53.099,50.7678 51.5,50.5C 51.5,48.8333 51.5,47.1667 51.5,45.5C 53.1667,45.5 54.8333,45.5 56.5,45.5C 56.7678,47.099 56.4345,48.4324 55.5,49.5 Z"/></g>
<g><path style="opacity:1" fill="#d25ca2" d="M 55.5,49.5 C 54.5,49.5 53.5,49.5 52.5,49.5C 52.5,48.5 52.5,47.5 52.5,46.5C 53.5,46.5 54.5,46.5 55.5,46.5C 55.5,47.5 55.5,48.5 55.5,49.5 Z"/></g>
<g><path style="opacity:1" fill="#db80b7" d="M 38.5,55.5 C 44.2055,55.1712 49.8722,55.5046 55.5,56.5C 52.6667,56.8333 49.8333,57.1667 47,57.5C 43.7485,57.4809 40.9151,56.8142 38.5,55.5 Z"/></g>
<g><path style="opacity:1" fill="#ebbbd8" d="M 67.5,72.5 C 64.7131,73.4767 61.7131,73.81 58.5,73.5C 58.5,76.1667 58.5,78.8333 58.5,81.5C 51.1667,81.5 43.8333,81.5 36.5,81.5C 36.5,78.8333 36.5,76.1667 36.5,73.5C 37.4682,75.6074 37.8016,77.9407 37.5,80.5C 44.1667,80.5 50.8333,80.5 57.5,80.5C 57.5,77.8333 57.5,75.1667 57.5,72.5C 60.8333,72.5 64.1667,72.5 67.5,72.5 Z"/></g>
</svg>
