<?xml version="1.0" encoding="UTF-8"?>
<!DOCTYPE svg PUBLIC "-//W3C//DTD SVG 1.1//EN" "http://www.w3.org/Graphics/SVG/1.1/DTD/svg11.dtd">
<svg xmlns="http://www.w3.org/2000/svg" version="1.1" width="96px" height="96px" style="shape-rendering:geometricPrecision; text-rendering:geometricPrecision; image-rendering:optimizeQuality; fill-rule:evenodd; clip-rule:evenodd" xmlns:xlink="http://www.w3.org/1999/xlink">
<g><path style="opacity:1" fill="#09102b" d="M 39.5,-0.5 C 44.8333,-0.5 50.1667,-0.5 55.5,-0.5C 76.5,5.16667 89.8333,18.5 95.5,39.5C 95.5,44.8333 95.5,50.1667 95.5,55.5C 89.8333,76.5 76.5,89.8333 55.5,95.5C 50.1667,95.5 44.8333,95.5 39.5,95.5C 18.5,89.8333 5.16667,76.5 -0.5,55.5C -0.5,50.1667 -0.5,44.8333 -0.5,39.5C 5.16667,18.5 18.5,5.16667 39.5,-0.5 Z M 44.5,1.5 C 73.7495,3.08298 90.0828,18.4163 93.5,47.5C 90.5,75.1667 75.1667,90.5 47.5,93.5C 19.8333,90.5 4.5,75.1667 1.5,47.5C 4.22439,21.1142 18.5577,5.78085 44.5,1.5 Z"/></g>
<g><path style="opacity:0.999" fill="#62c3e2" d="M 60.5,46.5 C 60.1667,46.5 59.8333,46.5 59.5,46.5C 55.5,42.8333 51.5,39.1667 47.5,35.5C 47.5,35.1667 47.5,34.8333 47.5,34.5C 51.665,30.5032 55.9983,26.6699 60.5,23C 69,22.1667 72.8333,26 72,34.5C 68.6642,39.0019 64.8309,43.0019 60.5,46.5 Z"/></g>
<g><path style="opacity:0.999" fill="#1d3561" d="M 47.5,34.5 C 47.5,34.8333 47.5,35.1667 47.5,35.5C 46.5,35.8333 45.8333,36.5 45.5,37.5C 41.8544,40.4789 38.521,43.8123 35.5,47.5C 39.1877,51.8544 43.1877,55.8544 47.5,59.5C 47.5,59.8333 47.5,60.1667 47.5,60.5C 43.7024,63.7961 40.0357,67.2961 36.5,71C 30.7319,73.3683 26.2319,71.8683 23,66.5C 22.3333,53.8333 22.3333,41.1667 23,28.5C 25.6099,24.1117 29.4432,22.2784 34.5,23C 39.0017,26.6699 43.335,30.5032 47.5,34.5 Z"/></g>
<g><path style="opacity:1" fill="#192a35" d="M 47.5,35.5 C 51.5,39.1667 55.5,42.8333 59.5,46.5C 59.5,47.8333 58.8333,48.5 57.5,48.5C 54.7444,43.4084 50.7444,39.7417 45.5,37.5C 45.8333,36.5 46.5,35.8333 47.5,35.5 Z"/></g>
<g><path style="opacity:1" fill="#0a1129" d="M 45.5,37.5 C 50.7444,39.7417 54.7444,43.4084 57.5,48.5C 54.1667,52.1667 50.8333,55.8333 47.5,59.5C 43.1877,55.8544 39.1877,51.8544 35.5,47.5C 38.521,43.8123 41.8544,40.4789 45.5,37.5 Z"/></g>
<g><path style="opacity:1" fill="#62c3e2" d="M 59.5,46.5 C 59.8333,46.5 60.1667,46.5 60.5,46.5C 64.0979,51.2738 67.9312,55.9404 72,60.5C 72.8333,69 69,72.8333 60.5,72C 55.9983,68.3301 51.665,64.4968 47.5,60.5C 47.5,60.1667 47.5,59.8333 47.5,59.5C 50.8333,55.8333 54.1667,52.1667 57.5,48.5C 58.8333,48.5 59.5,47.8333 59.5,46.5 Z"/></g>
</svg>
