<?xml version="1.0" encoding="UTF-8"?>
<!DOCTYPE svg PUBLIC "-//W3C//DTD SVG 1.1//EN" "http://www.w3.org/Graphics/SVG/1.1/DTD/svg11.dtd">
<svg xmlns="http://www.w3.org/2000/svg" version="1.1" width="96px" height="96px" style="shape-rendering:geometricPrecision; text-rendering:geometricPrecision; image-rendering:optimizeQuality; fill-rule:evenodd; clip-rule:evenodd" xmlns:xlink="http://www.w3.org/1999/xlink">
<g><path style="opacity:1" fill="#fef0f2" d="M 93.5,53.5 C 92.2732,62.9494 88.6066,71.2828 82.5,78.5C 67.8108,93.142 50.4775,97.3087 30.5,91C 24.1127,88.1466 18.4461,84.3133 13.5,79.5C 6.81252,72.1221 2.81252,63.4555 1.5,53.5C 0.102494,27.4633 11.7692,10.2966 36.5,2C 64.7688,-1.94906 83.6021,9.55094 93,36.5C 93.4994,42.1569 93.6661,47.8236 93.5,53.5 Z"/></g>
<g><path style="opacity:1" fill="#fff8f9" d="M 56.5,27.5 C 55.0259,31.1092 53.0259,34.4425 50.5,37.5C 54.1405,39.3071 56.9739,41.9738 59,45.5C 60.5,43.3333 62,41.1667 63.5,39C 64.5,38.3333 65.5,38.3333 66.5,39C 71.2081,45.5798 75.5414,52.4131 79.5,59.5C 79.1667,60.1667 78.8333,60.8333 78.5,61.5C 79.8872,63.21 81.2206,64.8767 82.5,66.5C 82.7678,68.099 82.4345,69.4324 81.5,70.5C 81.1667,70.5 80.8333,70.5 80.5,70.5C 80.628,68.3453 80.128,66.3453 79,64.5C 74.315,61.4859 69.4817,58.6526 64.5,56C 62.5313,54.5002 61.198,52.6669 60.5,50.5C 59.9744,48.7697 58.9744,47.4363 57.5,46.5C 52.2153,39.6774 45.2153,36.8441 36.5,38C 29.4119,41.5872 23.7452,46.7539 19.5,53.5C 17.7188,56.2235 16.0521,59.0568 14.5,62C 12.3968,62.2514 11.0635,61.2514 10.5,59C 13.9765,53.2094 17.3099,47.376 20.5,41.5C 23.9957,37.1813 26.9957,32.5146 29.5,27.5C 34.1401,21.5744 38.3067,15.2411 42,8.5C 42.7387,7.42575 43.7387,6.75908 45,6.5C 48.4579,10.0478 51.4579,14.0478 54,18.5C 55.9076,21.2065 56.741,24.2065 56.5,27.5 Z"/></g>
<g><path style="opacity:0.694" fill="#fe3a52" d="M 36.5,-0.5 C 43.8333,-0.5 51.1667,-0.5 58.5,-0.5C 77.6055,5.60508 89.9388,18.2717 95.5,37.5C 95.5,38.1667 95.5,38.8333 95.5,39.5C 94.8333,44.1667 94.1667,48.8333 93.5,53.5C 93.6661,47.8236 93.4994,42.1569 93,36.5C 83.6021,9.55094 64.7688,-1.94906 36.5,2C 11.7692,10.2966 0.102494,27.4633 1.5,53.5C 0.833333,48.8333 0.166667,44.1667 -0.5,39.5C -0.5,38.8333 -0.5,38.1667 -0.5,37.5C 5.0612,18.2717 17.3945,5.60508 36.5,-0.5 Z"/></g>
<g><path style="opacity:1" fill="#ff274d" d="M 64.5,8.5 C 73.1264,13.4751 80.1264,20.8085 85.5,30.5C 77.9522,29.4977 70.4522,27.4977 63,24.5C 61.0021,25.2714 59.3354,24.6048 58,22.5C 57.8019,24.3817 57.3019,26.0484 56.5,27.5C 56.741,24.2065 55.9076,21.2065 54,18.5C 51.4579,14.0478 48.4579,10.0478 45,6.5C 43.7387,6.75908 42.7387,7.42575 42,8.5C 38.3067,15.2411 34.1401,21.5744 29.5,27.5C 29.4588,25.2547 28.6255,24.5881 27,25.5C 22.8559,23.8827 19.0226,22.3827 15.5,21C 17.8333,18.6667 20.1667,16.3333 22.5,14C 22.2716,13.6012 21.9382,13.4346 21.5,13.5C 34.9167,3.66198 49.2501,1.99531 64.5,8.5 Z"/></g>
<g><path style="opacity:1" fill="#f81639" d="M 21.5,13.5 C 21.9382,13.4346 22.2716,13.6012 22.5,14C 20.1667,16.3333 17.8333,18.6667 15.5,21C 19.0226,22.3827 22.8559,23.8827 27,25.5C 28.6255,24.5881 29.4588,25.2547 29.5,27.5C 26.9957,32.5146 23.9957,37.1813 20.5,41.5C 16.5583,40.7808 12.3916,39.4474 8,37.5C 7.2917,38.3805 6.45837,39.0472 5.5,39.5C 7.27586,28.6096 12.6092,19.9429 21.5,13.5 Z"/></g>
<g><path style="opacity:1" fill="#fd1b40" d="M 64.5,8.5 C 81.083,16.1056 89.7497,29.1056 90.5,47.5C 90.7333,52.5517 89.7333,57.2184 87.5,61.5C 86.3169,62.7607 85.1502,64.7607 84,67.5C 83.6174,66.944 83.1174,66.6107 82.5,66.5C 81.2206,64.8767 79.8872,63.21 78.5,61.5C 78.8333,60.8333 79.1667,60.1667 79.5,59.5C 75.5414,52.4131 71.2081,45.5798 66.5,39C 65.5,38.3333 64.5,38.3333 63.5,39C 62,41.1667 60.5,43.3333 59,45.5C 56.9739,41.9738 54.1405,39.3071 50.5,37.5C 53.0259,34.4425 55.0259,31.1092 56.5,27.5C 57.3019,26.0484 57.8019,24.3817 58,22.5C 59.3354,24.6048 61.0021,25.2714 63,24.5C 70.4522,27.4977 77.9522,29.4977 85.5,30.5C 80.1264,20.8085 73.1264,13.4751 64.5,8.5 Z"/></g>
<g><path style="opacity:1" fill="#ec0f29" d="M 57.5,46.5 C 49.2968,48.2683 45.4635,53.2683 46,61.5C 46.9947,62.0659 47.828,62.7326 48.5,63.5C 39.0102,62.0352 29.6769,59.8685 20.5,57C 20.3474,55.7913 20.0141,54.6246 19.5,53.5C 23.7452,46.7539 29.4119,41.5872 36.5,38C 45.2153,36.8441 52.2153,39.6774 57.5,46.5 Z"/></g>
<g><path style="opacity:1" fill="#f67476" d="M 42.5,48.5 C 42.5,48.8333 42.5,49.1667 42.5,49.5C 39.7437,51.2117 36.7437,51.7117 33.5,51C 36.1066,48.8951 39.1066,48.0617 42.5,48.5 Z"/></g>
<g><path style="opacity:1" fill="#ef7285" d="M 37.5,45.5 C 35.901,45.2322 34.5676,45.5655 33.5,46.5C 32.5,46.5 31.5,46.5 30.5,46.5C 30.1315,49.5331 30.7982,52.1998 32.5,54.5C 32.1667,54.5 31.8333,54.5 31.5,54.5C 30.5041,54.5858 29.6708,54.2524 29,53.5C 28.502,50.5184 28.3354,47.5184 28.5,44.5C 31.7131,44.19 34.7131,44.5233 37.5,45.5 Z"/></g>
<g><path style="opacity:1" fill="#ea0d23" d="M 33.5,46.5 C 37.0122,45.9455 40.0122,46.6122 42.5,48.5C 39.1066,48.0617 36.1066,48.8951 33.5,51C 36.7437,51.7117 39.7437,51.2117 42.5,49.5C 41.2937,52.2978 39.2937,54.4645 36.5,56C 34.9343,56.2997 33.601,55.7997 32.5,54.5C 30.7982,52.1998 30.1315,49.5331 30.5,46.5C 31.5,46.5 32.5,46.5 33.5,46.5 Z"/></g>
<g><path style="opacity:1" fill="#e791a2" d="M 49.5,53.5 C 50.8333,53.5 52.1667,53.5 53.5,53.5C 52.2318,55.047 50.5652,56.047 48.5,56.5C 47.1854,55.1054 47.5188,54.1054 49.5,53.5 Z"/></g>
<g><path style="opacity:1" fill="#f7c4cc" d="M 33.5,46.5 C 34.5676,45.5655 35.901,45.2322 37.5,45.5C 43.1132,44.079 45.2799,46.079 44,51.5C 41.3898,53.8821 38.5565,55.8821 35.5,57.5C 33.5828,57.2462 32.2495,56.2462 31.5,54.5C 31.8333,54.5 32.1667,54.5 32.5,54.5C 33.601,55.7997 34.9343,56.2997 36.5,56C 39.2937,54.4645 41.2937,52.2978 42.5,49.5C 42.5,49.1667 42.5,48.8333 42.5,48.5C 40.0122,46.6122 37.0122,45.9455 33.5,46.5 Z"/></g>
<g><path style="opacity:1" fill="#e60d24" d="M 60.5,50.5 C 61.198,52.6669 62.5313,54.5002 64.5,56C 69.4817,58.6526 74.315,61.4859 79,64.5C 80.128,66.3453 80.628,68.3453 80.5,70.5C 75.2752,73.7221 69.6086,74.8888 63.5,74C 57.4659,69.7539 51.9659,64.9206 47,59.5C 46.4153,58.0024 46.9153,57.0024 48.5,56.5C 50.5652,56.047 52.2318,55.047 53.5,53.5C 55.4605,51.6878 57.7939,50.6878 60.5,50.5 Z"/></g>
<g><path style="opacity:1" fill="#dd071f" d="M 20.5,41.5 C 17.3099,47.376 13.9765,53.2094 10.5,59C 11.0635,61.2514 12.3968,62.2514 14.5,62C 16.0521,59.0568 17.7188,56.2235 19.5,53.5C 20.0141,54.6246 20.3474,55.7913 20.5,57C 29.6769,59.8685 39.0102,62.0352 48.5,63.5C 53.0426,68.2087 58.0426,72.3753 63.5,76C 69.1673,76.8914 74.5006,75.8914 79.5,73C 80.3805,72.2917 81.0472,71.4584 81.5,70.5C 82.4345,69.4324 82.7678,68.099 82.5,66.5C 83.1174,66.6107 83.6174,66.944 84,67.5C 85.1502,64.7607 86.3169,62.7607 87.5,61.5C 85.4037,69.3578 81.0704,75.6911 74.5,80.5C 53.3191,75.6837 32.1524,70.017 11,63.5C 9.98894,64.0556 9.15561,64.7222 8.5,65.5C 4.66601,57.1535 3.66601,48.4868 5.5,39.5C 6.45837,39.0472 7.2917,38.3805 8,37.5C 12.3916,39.4474 16.5583,40.7808 20.5,41.5 Z"/></g>
<g><path style="opacity:1" fill="#cb0121" d="M 74.5,80.5 C 71.1651,83.8389 67.1651,86.1722 62.5,87.5C 48.5438,85.3637 34.5438,82.0304 20.5,77.5C 19.5836,77.5427 18.9169,77.8761 18.5,78.5C 13.9673,75.1072 10.634,70.7739 8.5,65.5C 9.15561,64.7222 9.98894,64.0556 11,63.5C 32.1524,70.017 53.3191,75.6837 74.5,80.5 Z"/></g>
<g><path style="opacity:1" fill="#f9dde2" d="M 57.5,46.5 C 58.9744,47.4363 59.9744,48.7697 60.5,50.5C 57.7939,50.6878 55.4605,51.6878 53.5,53.5C 54.2187,51.1119 55.8854,49.6119 58.5,49C 56.0871,48.5162 53.7538,48.8495 51.5,50C 50.1772,50.8159 49.5106,51.9826 49.5,53.5C 47.5188,54.1054 47.1854,55.1054 48.5,56.5C 46.9153,57.0024 46.4153,58.0024 47,59.5C 51.9659,64.9206 57.4659,69.7539 63.5,74C 69.6086,74.8888 75.2752,73.7221 80.5,70.5C 80.8333,70.5 81.1667,70.5 81.5,70.5C 81.0472,71.4584 80.3805,72.2917 79.5,73C 74.5006,75.8914 69.1673,76.8914 63.5,76C 58.0426,72.3753 53.0426,68.2087 48.5,63.5C 47.828,62.7326 46.9947,62.0659 46,61.5C 45.4635,53.2683 49.2968,48.2683 57.5,46.5 Z"/></g>
<g><path style="opacity:1" fill="#ee1926" d="M 53.5,53.5 C 52.1667,53.5 50.8333,53.5 49.5,53.5C 49.5106,51.9826 50.1772,50.8159 51.5,50C 53.7538,48.8495 56.0871,48.5162 58.5,49C 55.8854,49.6119 54.2187,51.1119 53.5,53.5 Z"/></g>
<g><path style="opacity:0.769" fill="#c91822" d="M -0.5,39.5 C 0.166667,44.1667 0.833333,48.8333 1.5,53.5C 2.81252,63.4555 6.81252,72.1221 13.5,79.5C 12.8333,79.5 12.5,79.8333 12.5,80.5C 5.82719,74.1543 1.49386,66.4876 -0.5,57.5C -0.5,51.5 -0.5,45.5 -0.5,39.5 Z"/></g>
<g><path style="opacity:0.718" fill="#ea1725" d="M 95.5,39.5 C 95.5,45.5 95.5,51.5 95.5,57.5C 93.5061,66.4876 89.1728,74.1543 82.5,80.5C 82.5,79.8333 82.5,79.1667 82.5,78.5C 88.6066,71.2828 92.2732,62.9494 93.5,53.5C 94.1667,48.8333 94.8333,44.1667 95.5,39.5 Z"/></g>
<g><path style="opacity:1" fill="#bc0c24" d="M 62.5,87.5 C 49.3503,92.2501 36.6837,91.0834 24.5,84C 22.0038,82.669 20.0038,80.8356 18.5,78.5C 18.9169,77.8761 19.5836,77.5427 20.5,77.5C 34.5438,82.0304 48.5438,85.3637 62.5,87.5 Z"/></g>
<g><path style="opacity:0.459" fill="#b9212a" d="M 82.5,78.5 C 82.5,79.1667 82.5,79.8333 82.5,80.5C 76.0339,87.9684 68.0339,92.9684 58.5,95.5C 51.1667,95.5 43.8333,95.5 36.5,95.5C 26.9661,92.9684 18.9661,87.9684 12.5,80.5C 12.5,79.8333 12.8333,79.5 13.5,79.5C 18.4461,84.3133 24.1127,88.1466 30.5,91C 50.4775,97.3087 67.8108,93.142 82.5,78.5 Z"/></g>
</svg>
