<?xml version="1.0" encoding="UTF-8"?>
<!DOCTYPE svg PUBLIC "-//W3C//DTD SVG 1.1//EN" "http://www.w3.org/Graphics/SVG/1.1/DTD/svg11.dtd">
<svg xmlns="http://www.w3.org/2000/svg" version="1.1" width="96px" height="96px" style="shape-rendering:geometricPrecision; text-rendering:geometricPrecision; image-rendering:optimizeQuality; fill-rule:evenodd; clip-rule:evenodd" xmlns:xlink="http://www.w3.org/1999/xlink">
<g><path style="opacity:0.978" fill="#ff3c3b" d="M 37.5,-0.5 C 44.1667,-0.5 50.8333,-0.5 57.5,-0.5C 77.1403,5.14032 89.807,17.807 95.5,37.5C 95.5,44.1667 95.5,50.8333 95.5,57.5C 89.807,77.193 77.1403,89.8597 57.5,95.5C 50.8333,95.5 44.1667,95.5 37.5,95.5C 17.8597,89.8597 5.193,77.193 -0.5,57.5C -0.5,50.8333 -0.5,44.1667 -0.5,37.5C 5.193,17.807 17.8597,5.14032 37.5,-0.5 Z"/></g>
<g><path style="opacity:1" fill="#fffafa" d="M 25.5,73.5 C 25.5,68.5 25.5,63.5 25.5,58.5C 22.8333,58.5 20.1667,58.5 17.5,58.5C 17.5,54.8333 17.5,51.1667 17.5,47.5C 20.1667,47.5 22.8333,47.5 25.5,47.5C 25.5,46.1667 25.5,44.8333 25.5,43.5C 22.8333,43.5 20.1667,43.5 17.5,43.5C 17.5,40.5 17.5,37.5 17.5,34.5C 20.1667,34.5 22.8333,34.5 25.5,34.5C 25.5,30.1667 25.5,25.8333 25.5,21.5C 37.5046,21.3335 49.5046,21.5001 61.5,22C 73.243,27.1272 75.5763,35.1272 68.5,46C 65.405,47.9783 62.0716,49.4783 58.5,50.5C 60.7812,51.2766 62.9479,52.2766 65,53.5C 69.2914,59.9152 73.4581,66.4152 77.5,73C 71.1667,73.6667 64.8333,73.6667 58.5,73C 55.3384,66.3394 51.6718,60.0061 47.5,54C 45.5273,53.5045 43.5273,53.3379 41.5,53.5C 41.5,60.1667 41.5,66.8333 41.5,73.5C 36.1667,73.5 30.8333,73.5 25.5,73.5 Z"/></g>
<g><path style="opacity:1" fill="#ff3737" d="M 41.5,32.5 C 45.5138,32.3345 49.5138,32.5012 53.5,33C 56.1667,35.6667 56.1667,38.3333 53.5,41C 49.5138,41.4988 45.5138,41.6655 41.5,41.5C 41.5,38.5 41.5,35.5 41.5,32.5 Z"/></g>
<g><path style="opacity:1" fill="#ff6b6b" d="M 17.5,58.5 C 20.1667,58.5 22.8333,58.5 25.5,58.5C 25.5,63.5 25.5,68.5 25.5,73.5C 24.5139,69.03 24.1805,64.3633 24.5,59.5C 21.9407,59.8016 19.6074,59.4682 17.5,58.5 Z"/></g>
</svg>
