<?xml version="1.0" encoding="UTF-8"?>
<!DOCTYPE svg PUBLIC "-//W3C//DTD SVG 1.1//EN" "http://www.w3.org/Graphics/SVG/1.1/DTD/svg11.dtd">
<svg xmlns="http://www.w3.org/2000/svg" version="1.1" width="96px" height="96px" style="shape-rendering:geometricPrecision; text-rendering:geometricPrecision; image-rendering:optimizeQuality; fill-rule:evenodd; clip-rule:evenodd" xmlns:xlink="http://www.w3.org/1999/xlink">
<g><path style="opacity:0.976" fill="#fefdfd" d="M 37.5,-0.5 C 44.1667,-0.5 50.8333,-0.5 57.5,-0.5C 76.7283,5.0612 89.3949,17.3945 95.5,36.5C 95.5,43.8333 95.5,51.1667 95.5,58.5C 89.5,77.1667 77.1667,89.5 58.5,95.5C 51.1667,95.5 43.8333,95.5 36.5,95.5C 17.3945,89.3949 5.0612,76.7283 -0.5,57.5C -0.5,50.8333 -0.5,44.1667 -0.5,37.5C 5.16667,17.8333 17.8333,5.16667 37.5,-0.5 Z"/></g>
<g><path style="opacity:1" fill="#060505" d="M 45.5,14.5 C 47.3904,14.2965 48.8904,14.9632 50,16.5C 52.3333,20.5 54.6667,24.5 57,28.5C 57.7011,31.9283 57.3677,35.2617 56,38.5C 51,47.1667 46,55.8333 41,64.5C 39.5,66 38,67.5 36.5,69C 30.2774,70.5815 23.9441,70.9148 17.5,70C 15.1689,67.2098 15.3355,64.3765 18,61.5C 27.1783,45.8058 36.3449,30.1391 45.5,14.5 Z"/></g>
<g><path style="opacity:1" fill="#0d0c0c" d="M 64.5,46.5 C 66.371,46.8588 67.871,47.8588 69,49.5C 71.5995,55.0893 74.5995,60.4227 78,65.5C 78.7112,67.3668 78.2112,68.8668 76.5,70C 68.5872,70.8141 60.7538,70.6474 53,69.5C 52.3333,68.1667 52.3333,66.8333 53,65.5C 56.342,58.8063 60.1753,52.473 64.5,46.5 Z"/></g>
</svg>
