<?xml version="1.0" encoding="UTF-8"?>
<!DOCTYPE svg PUBLIC "-//W3C//DTD SVG 1.1//EN" "http://www.w3.org/Graphics/SVG/1.1/DTD/svg11.dtd">
<svg xmlns="http://www.w3.org/2000/svg" version="1.1" width="96px" height="96px" style="shape-rendering:geometricPrecision; text-rendering:geometricPrecision; image-rendering:optimizeQuality; fill-rule:evenodd; clip-rule:evenodd" xmlns:xlink="http://www.w3.org/1999/xlink">
<g><path style="opacity:0.997" fill="#fefefe" d="M -0.5,-0.5 C 31.5,-0.5 63.5,-0.5 95.5,-0.5C 95.5,31.5 95.5,63.5 95.5,95.5C 63.5,95.5 31.5,95.5 -0.5,95.5C -0.5,63.5 -0.5,31.5 -0.5,-0.5 Z"/></g>
<g><path style="opacity:1" fill="#535353" d="M 73.5,30.5 C 73.3711,33.8567 73.3711,37.5234 73.5,41.5C 71.1432,41.6633 68.8098,41.4966 66.5,41C 65.8333,39.6667 65.1667,38.3333 64.5,37C 63.5632,36.3083 62.8966,36.475 62.5,37.5C 57.6489,34.5742 52.6489,31.9075 47.5,29.5C 41.8528,31.989 36.5195,34.989 31.5,38.5C 31.44,37.9569 31.1067,37.6236 30.5,37.5C 29.5713,38.6888 29.238,40.0222 29.5,41.5C 26.8333,41.5 24.1667,41.5 21.5,41.5C 21.8128,37.9581 21.4794,34.6248 20.5,31.5C 29.2718,25.941 38.2718,20.6076 47.5,15.5C 56.2295,20.5269 64.8961,25.5269 73.5,30.5 Z"/></g>
<g><path style="opacity:1" fill="#fbfbfb" d="M 62.5,37.5 C 63.6533,43.6529 63.82,49.9863 63,56.5C 57.9899,59.5159 52.9899,62.5159 48,65.5C 42.4207,62.9169 37.0874,59.9169 32,56.5C 31.5005,50.5092 31.3338,44.5092 31.5,38.5C 36.5195,34.989 41.8528,31.989 47.5,29.5C 52.6489,31.9075 57.6489,34.5742 62.5,37.5 Z"/></g>
<g><path style="opacity:1" fill="#4c4c4c" d="M 73.5,30.5 C 74.1174,30.6107 74.6174,30.944 75,31.5C 75.8196,42.41 75.6529,53.2433 74.5,64C 65.5,69.1667 56.5,74.3333 47.5,79.5C 38.2718,74.3924 29.2718,69.059 20.5,63.5C 21.4916,56.3524 21.825,49.0191 21.5,41.5C 24.1667,41.5 26.8333,41.5 29.5,41.5C 29.238,40.0222 29.5713,38.6888 30.5,37.5C 31.1067,37.6236 31.44,37.9569 31.5,38.5C 31.3338,44.5092 31.5005,50.5092 32,56.5C 37.0874,59.9169 42.4207,62.9169 48,65.5C 52.9899,62.5159 57.9899,59.5159 63,56.5C 63.82,49.9863 63.6533,43.6529 62.5,37.5C 62.8966,36.475 63.5632,36.3083 64.5,37C 65.1667,38.3333 65.8333,39.6667 66.5,41C 68.8098,41.4966 71.1432,41.6633 73.5,41.5C 73.3711,37.5234 73.3711,33.8567 73.5,30.5 Z"/></g>
<g><path style="opacity:1" fill="#4d4d4d" d="M 20.5,31.5 C 21.4794,34.6248 21.8128,37.9581 21.5,41.5C 21.825,49.0191 21.4916,56.3524 20.5,63.5C 19.1667,52.8333 19.1667,42.1667 20.5,31.5 Z"/></g>
</svg>
