<?xml version="1.0" encoding="UTF-8"?>
<!DOCTYPE svg PUBLIC "-//W3C//DTD SVG 1.1//EN" "http://www.w3.org/Graphics/SVG/1.1/DTD/svg11.dtd">
<svg xmlns="http://www.w3.org/2000/svg" version="1.1" width="96px" height="96px" style="shape-rendering:geometricPrecision; text-rendering:geometricPrecision; image-rendering:optimizeQuality; fill-rule:evenodd; clip-rule:evenodd" xmlns:xlink="http://www.w3.org/1999/xlink">
<g><path style="opacity:1" fill="#cdc4fb" d="M 61.5,25.5 C 61.5,37.5 61.5,49.5 61.5,61.5C 55.7146,49.2576 49.8813,36.9243 44,24.5C 42.8061,23.5697 41.4728,22.9031 40,22.5C 36.2036,24.3164 32.3702,25.9831 28.5,27.5C 27.12,23.4569 28.12,19.9569 31.5,17C 40.5,16.3333 49.5,16.3333 58.5,17C 61.1252,19.1962 62.1252,22.0295 61.5,25.5 Z"/></g>
<g><path style="opacity:1" fill="#7c70fc" d="M 61.5,61.5 C 62.3897,63.7819 62.5564,66.1152 62,68.5C 57.8614,71.4863 53.3614,73.8196 48.5,75.5C 47.7025,75.9569 47.3691,76.6236 47.5,77.5C 43.9627,78.2667 40.6293,79.6001 37.5,81.5C 35.7419,80.8721 34.2419,79.8721 33,78.5C 27,65.8333 21,53.1667 15,40.5C 14.0561,37.6529 14.5561,35.1529 16.5,33C 20.4023,30.8811 24.4023,29.0477 28.5,27.5C 32.3702,25.9831 36.2036,24.3164 40,22.5C 41.4728,22.9031 42.8061,23.5697 44,24.5C 49.8813,36.9243 55.7146,49.2576 61.5,61.5 Z"/></g>
<g><path style="opacity:0.993" fill="#ece6fe" d="M 61.5,25.5 C 68.3691,28.1842 74.8691,31.5175 81,35.5C 81.6667,37.1667 81.6667,38.8333 81,40.5C 75.1935,53.5847 69.1935,66.5847 63,79.5C 61.874,80.9436 60.374,81.6102 58.5,81.5C 54.7243,80.4445 51.0576,79.1112 47.5,77.5C 47.3691,76.6236 47.7025,75.9569 48.5,75.5C 53.3614,73.8196 57.8614,71.4863 62,68.5C 62.5564,66.1152 62.3897,63.7819 61.5,61.5C 61.5,49.5 61.5,37.5 61.5,25.5 Z"/></g>
<g><path style="opacity:1" fill="#f9f8fe" d="M 34.5,44.5 C 38.3017,46.0536 42.3017,47.0536 46.5,47.5C 44.4835,51.2086 43.4835,55.2086 43.5,59.5C 39.8484,57.7631 36.0151,56.4298 32,55.5C 33.8861,52.243 34.7194,48.5763 34.5,44.5 Z"/></g>
</svg>
