<?xml version="1.0" encoding="UTF-8"?>
<!DOCTYPE svg PUBLIC "-//W3C//DTD SVG 1.1//EN" "http://www.w3.org/Graphics/SVG/1.1/DTD/svg11.dtd">
<svg xmlns="http://www.w3.org/2000/svg" version="1.1" width="96px" height="96px" style="shape-rendering:geometricPrecision; text-rendering:geometricPrecision; image-rendering:optimizeQuality; fill-rule:evenodd; clip-rule:evenodd" xmlns:xlink="http://www.w3.org/1999/xlink">
<g><path style="opacity:1" fill="#3457bf" d="M 26.5,-0.5 C 31.8333,-0.5 37.1667,-0.5 42.5,-0.5C 42.5,0.5 42.5,1.5 42.5,2.5C 37.1667,2.5 31.8333,2.5 26.5,2.5C 26.5,1.5 26.5,0.5 26.5,-0.5 Z"/></g>
<g><path style="opacity:1" fill="#233a7f" d="M 42.5,-0.5 C 54.8333,-0.5 67.1667,-0.5 79.5,-0.5C 79.7845,1.41467 79.4511,3.08134 78.5,4.5C 66.8799,2.52089 54.8799,1.85423 42.5,2.5C 42.5,1.5 42.5,0.5 42.5,-0.5 Z"/></g>
<g><path style="opacity:0.616" fill="#243a81" d="M 15.5,-0.5 C 19.1667,-0.5 22.8333,-0.5 26.5,-0.5C 26.5,0.5 26.5,1.5 26.5,2.5C 23.4281,2.18259 20.4281,2.51592 17.5,3.5C 19.0453,4.45189 20.712,4.78522 22.5,4.5C 22.5,4.83333 22.5,5.16667 22.5,5.5C 17.0687,6.90641 14.7353,4.90641 15.5,-0.5 Z"/></g>
<g><path style="opacity:1" fill="#53689b" d="M 42.5,2.5 C 54.8799,1.85423 66.8799,2.52089 78.5,4.5C 76.7354,5.46138 74.7354,5.79472 72.5,5.5C 70.7354,4.53862 68.7354,4.20528 66.5,4.5C 58.5,3.83333 50.5,3.16667 42.5,2.5 Z"/></g>
<g><path style="opacity:1" fill="#8c99ba" d="M 26.5,2.5 C 31.8333,2.5 37.1667,2.5 42.5,2.5C 50.5,3.16667 58.5,3.83333 66.5,4.5C 51.8333,4.5 37.1667,4.5 22.5,4.5C 20.712,4.78522 19.0453,4.45189 17.5,3.5C 20.4281,2.51592 23.4281,2.18259 26.5,2.5 Z"/></g>
<g><path style="opacity:1" fill="#2844ac" d="M 22.5,5.5 C 22.5,5.16667 22.5,4.83333 22.5,4.5C 37.1667,4.5 51.8333,4.5 66.5,4.5C 68.7354,4.20528 70.7354,4.53862 72.5,5.5C 71.1667,5.5 69.8333,5.5 68.5,5.5C 68.7373,6.79105 68.404,7.79105 67.5,8.5C 65.8333,8.5 64.1667,8.5 62.5,8.5C 62.5,7.5 62.5,6.5 62.5,5.5C 56.1667,5.5 49.8333,5.5 43.5,5.5C 39.5,5.5 35.5,5.5 31.5,5.5C 28.5,5.5 25.5,5.5 22.5,5.5 Z"/></g>
<g><path style="opacity:1" fill="#324beb" d="M 22.5,5.5 C 25.5,5.5 28.5,5.5 31.5,5.5C 31.5,6.5 31.5,7.5 31.5,8.5C 28.9407,8.19845 26.6074,8.53178 24.5,9.5C 22.8958,8.71304 22.2291,7.3797 22.5,5.5 Z"/></g>
<g><path style="opacity:1" fill="#4e77f4" d="M 31.5,5.5 C 35.5,5.5 39.5,5.5 43.5,5.5C 43.5,6.5 43.5,7.5 43.5,8.5C 39.5,8.5 35.5,8.5 31.5,8.5C 31.5,7.5 31.5,6.5 31.5,5.5 Z"/></g>
<g><path style="opacity:1" fill="#334ce8" d="M 43.5,5.5 C 49.8333,5.5 56.1667,5.5 62.5,5.5C 62.5,6.5 62.5,7.5 62.5,8.5C 56.1667,8.5 49.8333,8.5 43.5,8.5C 43.5,7.5 43.5,6.5 43.5,5.5 Z"/></g>
<g><path style="opacity:1" fill="#3d56ec" d="M 72.5,5.5 C 72.9118,7.97259 71.9118,9.30592 69.5,9.5C 68.8333,9.5 68.1667,9.5 67.5,9.5C 67.5,9.16667 67.5,8.83333 67.5,8.5C 68.404,7.79105 68.7373,6.79105 68.5,5.5C 69.8333,5.5 71.1667,5.5 72.5,5.5 Z"/></g>
<g><path style="opacity:1" fill="#e8f7fe" d="M 38.5,10.5 C 37.7375,11.2679 36.7375,11.7679 35.5,12C 37.3435,19.0846 38.6769,26.5846 39.5,34.5C 40.8333,34.5 42.1667,34.5 43.5,34.5C 43.5,34.8333 43.5,35.1667 43.5,35.5C 37.9738,35.1786 32.6405,35.5119 27.5,36.5C 26.5416,36.0472 25.7083,35.3805 25,34.5C 24.3333,27.1667 24.3333,19.8333 25,12.5C 25.5,12 26,11.5 26.5,11C 30.4862,10.5012 34.4862,10.3345 38.5,10.5 Z"/></g>
<g><path style="opacity:1" fill="#e4f6fc" d="M 38.5,10.5 C 40.1667,10.5 41.8333,10.5 43.5,10.5C 43.5,10.8333 43.5,11.1667 43.5,11.5C 43.5,19.1667 43.5,26.8333 43.5,34.5C 42.1667,34.5 40.8333,34.5 39.5,34.5C 38.6769,26.5846 37.3435,19.0846 35.5,12C 36.7375,11.7679 37.7375,11.2679 38.5,10.5 Z"/></g>
<g><path style="opacity:1" fill="#c0eaf8" d="M 43.5,11.5 C 49.2794,11.4088 54.946,12.0755 60.5,13.5C 60.5,17.5 60.5,21.5 60.5,25.5C 56.1539,25.3343 51.8206,25.501 47.5,26C 46.826,29.3252 45.4926,32.1586 43.5,34.5C 43.5,26.8333 43.5,19.1667 43.5,11.5 Z"/></g>
<g><path style="opacity:1" fill="#e0f2f8" d="M 67.5,9.5 C 68.1667,9.5 68.8333,9.5 69.5,9.5C 69.7828,10.2891 70.2828,10.9558 71,11.5C 71.6667,19.5 71.6667,27.5 71,35.5C 69.9243,38.079 68.091,39.7457 65.5,40.5C 66.1667,39.5 66.8333,38.5 67.5,37.5C 67.6716,36.5084 67.3382,35.8417 66.5,35.5C 67.471,26.6096 67.8043,17.9429 67.5,9.5 Z"/></g>
<g><path style="opacity:1" fill="#7a98c3" d="M 24.5,9.5 C 26.6074,8.53178 28.9407,8.19845 31.5,8.5C 35.5,8.5 39.5,8.5 43.5,8.5C 49.8333,8.5 56.1667,8.5 62.5,8.5C 64.1667,8.5 65.8333,8.5 67.5,8.5C 67.5,8.83333 67.5,9.16667 67.5,9.5C 67.8043,17.9429 67.471,26.6096 66.5,35.5C 64.8333,35.5 63.1667,35.5 61.5,35.5C 61.8264,26.6506 61.493,17.9839 60.5,9.5C 48.8333,9.5 37.1667,9.5 25.5,9.5C 25.1667,9.5 24.8333,9.5 24.5,9.5 Z"/></g>
<g><path style="opacity:1" fill="#c6edf9" d="M 60.5,9.5 C 61.493,17.9839 61.8264,26.6506 61.5,35.5C 55.5,35.5 49.5,35.5 43.5,35.5C 43.5,35.1667 43.5,34.8333 43.5,34.5C 45.4926,32.1586 46.826,29.3252 47.5,26C 51.8206,25.501 56.1539,25.3343 60.5,25.5C 60.5,21.5 60.5,17.5 60.5,13.5C 54.946,12.0755 49.2794,11.4088 43.5,11.5C 43.5,11.1667 43.5,10.8333 43.5,10.5C 49.358,10.8222 55.0247,10.4889 60.5,9.5 Z"/></g>
<g><path style="opacity:0.004" fill="#b9fffe" d="M 23.5,35.5 C 22.8333,36.1667 22.8333,36.1667 23.5,35.5 Z"/></g>
<g><path style="opacity:1" fill="#7d99e8" d="M 43.5,35.5 C 49.5,35.5 55.5,35.5 61.5,35.5C 63.1667,35.5 64.8333,35.5 66.5,35.5C 67.3382,35.8417 67.6716,36.5084 67.5,37.5C 67.1667,37.5 66.8333,37.5 66.5,37.5C 64.7354,36.5386 62.7354,36.2053 60.5,36.5C 54.8333,36.5 49.1667,36.5 43.5,36.5C 40.1667,36.5 36.8333,36.5 33.5,36.5C 31.5853,36.2155 29.9187,36.5489 28.5,37.5C 27.8333,37.5 27.5,37.1667 27.5,36.5C 32.6405,35.5119 37.9738,35.1786 43.5,35.5 Z"/></g>
<g><path style="opacity:1" fill="#3148e3" d="M 28.5,37.5 C 29.9187,36.5489 31.5853,36.2155 33.5,36.5C 33.5614,38.5922 34.5614,40.0922 36.5,41C 36.2716,41.3988 35.9382,41.5654 35.5,41.5C 33.0038,40.4196 30.6705,39.0862 28.5,37.5 Z"/></g>
<g><path style="opacity:1" fill="#3755e5" d="M 43.5,36.5 C 49.1667,36.5 54.8333,36.5 60.5,36.5C 60.2624,38.4044 59.2624,39.7377 57.5,40.5C 53.2786,38.4297 48.9452,38.0963 44.5,39.5C 44.4431,38.391 44.1098,37.391 43.5,36.5 Z"/></g>
<g><path style="opacity:1" fill="#5483f1" d="M 33.5,36.5 C 36.8333,36.5 40.1667,36.5 43.5,36.5C 44.1098,37.391 44.4431,38.391 44.5,39.5C 42.6575,38.9246 40.6575,39.0913 38.5,40C 38.4021,41.2847 38.4021,42.4514 38.5,43.5C 37.2905,43.0679 36.2905,42.4013 35.5,41.5C 35.9382,41.5654 36.2716,41.3988 36.5,41C 34.5614,40.0922 33.5614,38.5922 33.5,36.5 Z"/></g>
<g><path style="opacity:1" fill="#446ee4" d="M 57.5,40.5 C 56.0837,42.1793 54.7503,43.8459 53.5,45.5C 53.1667,45.5 52.8333,45.5 52.5,45.5C 50.8072,42.8265 48.4738,42.1599 45.5,43.5C 45.1667,42.1667 44.8333,40.8333 44.5,39.5C 48.9452,38.0963 53.2786,38.4297 57.5,40.5 Z"/></g>
<g><path style="opacity:1" fill="#2e44a6" d="M 60.5,36.5 C 62.7354,36.2053 64.7354,36.5386 66.5,37.5C 62.3339,40.4175 58.0006,43.0841 53.5,45.5C 54.7503,43.8459 56.0837,42.1793 57.5,40.5C 59.2624,39.7377 60.2624,38.4044 60.5,36.5 Z"/></g>
<g><path style="opacity:1" fill="#70b5f2" d="M 44.5,39.5 C 44.8333,40.8333 45.1667,42.1667 45.5,43.5C 46.2341,44.7079 46.5674,46.0413 46.5,47.5C 43.5152,46.6743 40.8485,45.341 38.5,43.5C 38.4021,42.4514 38.4021,41.2847 38.5,40C 40.6575,39.0913 42.6575,38.9246 44.5,39.5 Z"/></g>
<g><path style="opacity:1" fill="#4b82e1" d="M 52.5,45.5 C 52.1667,46.5 51.5,47.1667 50.5,47.5C 49.8826,47.6107 49.3826,47.944 49,48.5C 48.5007,53.4889 48.3341,58.4889 48.5,63.5C 47.8333,62.5 47.1667,61.5 46.5,60.5C 46.5,56.8333 46.5,53.1667 46.5,49.5C 46.5,48.8333 46.5,48.1667 46.5,47.5C 46.5674,46.0413 46.2341,44.7079 45.5,43.5C 48.4738,42.1599 50.8072,42.8265 52.5,45.5 Z"/></g>
<g><path style="opacity:0.996" fill="#f1fbfe" d="M 25.5,9.5 C 37.1667,9.5 48.8333,9.5 60.5,9.5C 55.0247,10.4889 49.358,10.8222 43.5,10.5C 41.8333,10.5 40.1667,10.5 38.5,10.5C 34.4862,10.3345 30.4862,10.5012 26.5,11C 26,11.5 25.5,12 25,12.5C 24.3333,19.8333 24.3333,27.1667 25,34.5C 25.7083,35.3805 26.5416,36.0472 27.5,36.5C 27.5,37.1667 27.8333,37.5 28.5,37.5C 30.6705,39.0862 33.0038,40.4196 35.5,41.5C 36.2905,42.4013 37.2905,43.0679 38.5,43.5C 40.8485,45.341 43.5152,46.6743 46.5,47.5C 46.5,48.1667 46.5,48.8333 46.5,49.5C 45.71,50.6085 45.21,51.9419 45,53.5C 44.6667,52.5 44.3333,51.5 44,50.5C 42.841,51.566 42.0076,51.2327 41.5,49.5C 42.7383,49.19 42.7383,48.69 41.5,48C 34.8727,44.5377 28.8727,40.371 23.5,35.5C 23.3336,27.4931 23.5003,19.4931 24,11.5C 24.7172,10.9558 25.2172,10.2891 25.5,9.5 Z"/></g>
<g><path style="opacity:0.51" fill="#edf7fb" d="M 66.5,37.5 C 66.8333,37.5 67.1667,37.5 67.5,37.5C 66.8333,38.5 66.1667,39.5 65.5,40.5C 61.2317,43.3095 56.8984,46.1428 52.5,49C 57.8333,52 63.1667,55 68.5,58C 69.4601,59.4194 70.2935,60.9194 71,62.5C 71.7996,70.5789 71.6329,78.5789 70.5,86.5C 70.1667,86.5 69.8333,86.5 69.5,86.5C 68.5084,86.6716 67.8417,86.3382 67.5,85.5C 68.1174,85.3893 68.6174,85.056 69,84.5C 69.4955,82.5273 69.6621,80.5273 69.5,78.5C 69.9086,75.1445 69.2419,72.1445 67.5,69.5C 67.8158,66.0217 67.3158,62.6883 66,59.5C 62.0594,56.4484 57.8928,53.7817 53.5,51.5C 51.7706,50.7638 50.7706,49.4305 50.5,47.5C 51.5,47.1667 52.1667,46.5 52.5,45.5C 52.8333,45.5 53.1667,45.5 53.5,45.5C 58.0006,43.0841 62.3339,40.4175 66.5,37.5 Z"/></g>
<g><path style="opacity:1" fill="#e5f6fd" d="M 41.5,49.5 C 42.0076,51.2327 42.841,51.566 44,50.5C 44.3333,51.5 44.6667,52.5 45,53.5C 45.21,51.9419 45.71,50.6085 46.5,49.5C 46.5,53.1667 46.5,56.8333 46.5,60.5C 46.7845,62.4147 46.4511,64.0813 45.5,65.5C 44.391,65.5569 43.391,65.8902 42.5,66.5C 41.4324,65.5655 40.099,65.2322 38.5,65.5C 36.3598,60.2869 37.3598,55.7869 41.5,52C 39.1678,53.4042 36.5011,54.2376 33.5,54.5C 35.7937,52.347 38.4604,50.6803 41.5,49.5 Z"/></g>
<g><path style="opacity:1" fill="#e7f7fe" d="M 42.5,66.5 C 39.9327,66.7215 37.5994,67.3882 35.5,68.5C 32.2365,69.4822 28.9032,70.1489 25.5,70.5C 25.5,71.8333 25.5,73.1667 25.5,74.5C 25.2108,78.1064 25.5442,81.6064 26.5,85C 32.1569,85.4994 37.8236,85.6661 43.5,85.5C 37.69,86.4896 31.69,86.8229 25.5,86.5C 25.1667,86.5 24.8333,86.5 24.5,86.5C 23.3671,78.5789 23.2004,70.5789 24,62.5C 25.8636,58.314 29.0303,55.6473 33.5,54.5C 36.5011,54.2376 39.1678,53.4042 41.5,52C 37.3598,55.7869 36.3598,60.2869 38.5,65.5C 40.099,65.2322 41.4324,65.5655 42.5,66.5 Z"/></g>
<g><path style="opacity:1" fill="#7c95b8" d="M 53.5,51.5 C 57.8928,53.7817 62.0594,56.4484 66,59.5C 67.3158,62.6883 67.8158,66.0217 67.5,69.5C 64.9407,69.8016 62.6074,69.4682 60.5,68.5C 61.6341,66.0336 61.8007,63.367 61,60.5C 58.7366,57.114 55.9032,54.2807 52.5,52C 52.7284,51.6012 53.0618,51.4346 53.5,51.5 Z"/></g>
<g><path style="opacity:1" fill="#ceedf9" d="M 50.5,47.5 C 50.7706,49.4305 51.7706,50.7638 53.5,51.5C 53.0618,51.4346 52.7284,51.6012 52.5,52C 55.9032,54.2807 58.7366,57.114 61,60.5C 61.8007,63.367 61.6341,66.0336 60.5,68.5C 58.7085,68.634 57.0418,68.3007 55.5,67.5C 53.7078,66.6909 51.7078,66.1909 49.5,66C 48.7476,65.3292 48.4142,64.4959 48.5,63.5C 48.3341,58.4889 48.5007,53.4889 49,48.5C 49.3826,47.944 49.8826,47.6107 50.5,47.5 Z"/></g>
<g><path style="opacity:1" fill="#3b59e9" d="M 35.5,68.5 C 36.7562,68.4614 37.7562,68.9614 38.5,70C 37.3826,71.8921 35.7159,72.7254 33.5,72.5C 30.8333,73.1667 28.1667,73.8333 25.5,74.5C 25.5,73.1667 25.5,71.8333 25.5,70.5C 28.9032,70.1489 32.2365,69.4822 35.5,68.5 Z"/></g>
<g><path style="opacity:1" fill="#3f78c3" d="M 55.5,67.5 C 57.0418,68.3007 58.7085,68.634 60.5,68.5C 62.6074,69.4682 64.9407,69.8016 67.5,69.5C 69.2419,72.1445 69.9086,75.1445 69.5,78.5C 68.5655,77.4324 68.2322,76.099 68.5,74.5C 66.9397,74.4809 65.4397,74.1476 64,73.5C 62.699,73.6387 61.8656,74.3054 61.5,75.5C 59.3589,72.5282 56.6922,70.0282 53.5,68C 54.0944,67.5357 54.7611,67.369 55.5,67.5 Z"/></g>
<g><path style="opacity:1" fill="#85d2f0" d="M 45.5,65.5 C 44.6498,70.4708 43.9832,75.8042 43.5,81.5C 41.4727,81.3379 39.4727,81.5045 37.5,82C 36.3826,83.8921 34.7159,84.7254 32.5,84.5C 32.2367,80.3998 32.5701,76.3998 33.5,72.5C 35.7159,72.7254 37.3826,71.8921 38.5,70C 37.7562,68.9614 36.7562,68.4614 35.5,68.5C 37.5994,67.3882 39.9327,66.7215 42.5,66.5C 43.391,65.8902 44.391,65.5569 45.5,65.5 Z"/></g>
<g><path style="opacity:1" fill="#5bacdf" d="M 46.5,60.5 C 47.1667,61.5 47.8333,62.5 48.5,63.5C 48.4142,64.4959 48.7476,65.3292 49.5,66C 51.7078,66.1909 53.7078,66.6909 55.5,67.5C 54.7611,67.369 54.0944,67.5357 53.5,68C 56.6922,70.0282 59.3589,72.5282 61.5,75.5C 62.4867,77.4734 63.4867,79.4734 64.5,81.5C 64.2907,82.086 63.9574,82.586 63.5,83C 56.7495,83.6136 50.0828,83.1136 43.5,81.5C 43.9832,75.8042 44.6498,70.4708 45.5,65.5C 46.4511,64.0813 46.7845,62.4147 46.5,60.5 Z"/></g>
<g><path style="opacity:1" fill="#5fb7e3" d="M 33.5,72.5 C 32.5701,76.3998 32.2367,80.3998 32.5,84.5C 34.7159,84.7254 36.3826,83.8921 37.5,82C 39.4727,81.5045 41.4727,81.3379 43.5,81.5C 43.5,82.8333 43.5,84.1667 43.5,85.5C 37.8236,85.6661 32.1569,85.4994 26.5,85C 25.5442,81.6064 25.2108,78.1064 25.5,74.5C 28.1667,73.8333 30.8333,73.1667 33.5,72.5 Z"/></g>
<g><path style="opacity:1" fill="#2f53c6" d="M 69.5,78.5 C 69.6621,80.5273 69.4955,82.5273 69,84.5C 68.6174,85.056 68.1174,85.3893 67.5,85.5C 60.5,85.5 53.5,85.5 46.5,85.5C 45.5,85.5 44.5,85.5 43.5,85.5C 43.5,84.1667 43.5,82.8333 43.5,81.5C 50.0828,83.1136 56.7495,83.6136 63.5,83C 63.9574,82.586 64.2907,82.086 64.5,81.5C 63.4867,79.4734 62.4867,77.4734 61.5,75.5C 61.8656,74.3054 62.699,73.6387 64,73.5C 65.4397,74.1476 66.9397,74.4809 68.5,74.5C 68.2322,76.099 68.5655,77.4324 69.5,78.5 Z"/></g>
<g><path style="opacity:1" fill="#afbef7" d="M 43.5,85.5 C 44.5,85.5 45.5,85.5 46.5,85.5C 51.1667,86.1667 55.8333,86.8333 60.5,87.5C 48.6547,87.8283 36.988,87.4949 25.5,86.5C 31.69,86.8229 37.69,86.4896 43.5,85.5 Z"/></g>
<g><path style="opacity:1" fill="#7b8ed2" d="M 46.5,85.5 C 53.5,85.5 60.5,85.5 67.5,85.5C 67.8417,86.3382 68.5084,86.6716 69.5,86.5C 69.5,87.1667 69.1667,87.5 68.5,87.5C 66.5,87.5 64.5,87.5 62.5,87.5C 61.8333,87.5 61.1667,87.5 60.5,87.5C 55.8333,86.8333 51.1667,86.1667 46.5,85.5 Z"/></g>
<g><path style="opacity:1" fill="#3852f3" d="M 69.5,86.5 C 69.8333,86.5 70.1667,86.5 70.5,86.5C 71.9063,86.9731 72.573,87.9731 72.5,89.5C 70.5168,89.8432 69.1834,89.1765 68.5,87.5C 69.1667,87.5 69.5,87.1667 69.5,86.5 Z"/></g>
<g><path style="opacity:1" fill="#3657e2" d="M 24.5,86.5 C 24.8333,86.5 25.1667,86.5 25.5,86.5C 36.988,87.4949 48.6547,87.8283 60.5,87.5C 61.1667,87.5 61.8333,87.5 62.5,87.5C 56.0621,89.1502 49.3954,90.1502 42.5,90.5C 35.8333,90.5 29.1667,90.5 22.5,90.5C 22.5,90.1667 22.5,89.8333 22.5,89.5C 22.427,87.9731 23.0937,86.9731 24.5,86.5 Z"/></g>
<g><path style="opacity:1" fill="#1f3a9d" d="M 62.5,87.5 C 64.5,87.5 66.5,87.5 68.5,87.5C 69.1834,89.1765 70.5168,89.8432 72.5,89.5C 74.7354,89.2053 76.7354,89.5386 78.5,90.5C 66.5,90.5 54.5,90.5 42.5,90.5C 49.3954,90.1502 56.0621,89.1502 62.5,87.5 Z"/></g>
<g><path style="opacity:1" fill="#8c98be" d="M 22.5,90.5 C 29.1667,90.5 35.8333,90.5 42.5,90.5C 50.8333,91.1667 59.1667,91.8333 67.5,92.5C 59.1667,92.5 50.8333,92.5 42.5,92.5C 37.1667,92.5 31.8333,92.5 26.5,92.5C 23.4281,92.8174 20.4281,92.4841 17.5,91.5C 19.0453,90.5481 20.712,90.2148 22.5,90.5 Z"/></g>
<g><path style="opacity:1" fill="#586a97" d="M 42.5,90.5 C 54.5,90.5 66.5,90.5 78.5,90.5C 75.3157,92.4136 71.649,93.0803 67.5,92.5C 59.1667,91.8333 50.8333,91.1667 42.5,90.5 Z"/></g>
<g><path style="opacity:0.981" fill="#213a81" d="M 22.5,89.5 C 22.5,89.8333 22.5,90.1667 22.5,90.5C 20.712,90.2148 19.0453,90.5481 17.5,91.5C 20.4281,92.4841 23.4281,92.8174 26.5,92.5C 26.5,93.5 26.5,94.5 26.5,95.5C 22.8333,95.5 19.1667,95.5 15.5,95.5C 14.7353,90.0936 17.0687,88.0936 22.5,89.5 Z"/></g>
<g><path style="opacity:0.975" fill="#3357be" d="M 26.5,92.5 C 31.8333,92.5 37.1667,92.5 42.5,92.5C 42.5,93.5 42.5,94.5 42.5,95.5C 37.1667,95.5 31.8333,95.5 26.5,95.5C 26.5,94.5 26.5,93.5 26.5,92.5 Z"/></g>
<g><path style="opacity:0.975" fill="#20397d" d="M 78.5,90.5 C 79.4511,91.9187 79.7845,93.5853 79.5,95.5C 67.1667,95.5 54.8333,95.5 42.5,95.5C 42.5,94.5 42.5,93.5 42.5,92.5C 50.8333,92.5 59.1667,92.5 67.5,92.5C 71.649,93.0803 75.3157,92.4136 78.5,90.5 Z"/></g>
</svg>
