<?xml version="1.0" encoding="UTF-8"?>
<!DOCTYPE svg PUBLIC "-//W3C//DTD SVG 1.1//EN" "http://www.w3.org/Graphics/SVG/1.1/DTD/svg11.dtd">
<svg xmlns="http://www.w3.org/2000/svg" version="1.1" width="96px" height="96px" style="shape-rendering:geometricPrecision; text-rendering:geometricPrecision; image-rendering:optimizeQuality; fill-rule:evenodd; clip-rule:evenodd" xmlns:xlink="http://www.w3.org/1999/xlink">
<g><path style="opacity:0.006" fill="#6f97de" d="M 33.5,-0.5 C 33.8333,-0.5 34.1667,-0.5 34.5,-0.5C 34.5,0.166667 34.5,0.833333 34.5,1.5C 32.3023,1.59121 31.9689,0.924541 33.5,-0.5 Z"/></g>
<g><path style="opacity:0.008" fill="#648bd3" d="M 49.5,-0.5 C 49.8333,-0.5 50.1667,-0.5 50.5,-0.5C 51.463,0.3635 51.463,1.03017 50.5,1.5C 49.7025,1.04311 49.3691,0.376442 49.5,-0.5 Z"/></g>
<g><path style="opacity:0.999" fill="#103ca5" d="M 65.5,9.5 C 58.3923,8.09533 51.3923,8.59533 44.5,11C 41.4479,12.9349 38.1145,14.2682 34.5,15C 30.1176,18.1821 25.7842,21.3488 21.5,24.5C 19.1667,24.1667 17.8333,22.8333 17.5,20.5C 19.7666,18.2221 22.4332,16.3887 25.5,15C 29.6161,11.9343 30.2827,8.43435 27.5,4.5C 29.6915,3.13144 32.0248,2.13144 34.5,1.5C 41.1982,0.597299 47.8648,1.0973 54.5,3C 58.5599,4.68914 62.2266,6.85581 65.5,9.5 Z"/></g>
<g><path style="opacity:0.989" fill="#5392f5" d="M 27.5,4.5 C 30.2827,8.43435 29.6161,11.9343 25.5,15C 22.4332,16.3887 19.7666,18.2221 17.5,20.5C 16.5084,20.3284 15.8417,20.6618 15.5,21.5C 14.5084,21.3284 13.8417,21.6618 13.5,22.5C 10.4788,23.0049 7.47877,23.6716 4.5,24.5C 3.83333,24.1667 3.16667,23.8333 2.5,23.5C 5.69295,18.44 9.35962,13.7733 13.5,9.5C 17.4033,5.86434 22.07,4.19768 27.5,4.5 Z"/></g>
<g><path style="opacity:0.004" fill="#7098f2" d="M 13.5,9.5 C 12.8333,8.16667 12.8333,8.16667 13.5,9.5 Z"/></g>
<g><path style="opacity:0.998" fill="#5592f5" d="M 65.5,9.5 C 73.2931,15.2053 77.9597,22.5386 79.5,31.5C 78.158,32.793 76.4913,33.6264 74.5,34C 66.7067,34.4338 59.0401,35.6004 51.5,37.5C 51.5,38.5 51.5,39.5 51.5,40.5C 51.5,41.8333 51.5,43.1667 51.5,44.5C 48.1472,46.8425 47.8139,46.1758 50.5,42.5C 47.8333,41.1667 47.8333,39.8333 50.5,38.5C 49.6667,38.1667 48.8333,37.8333 48,37.5C 39.8522,39.3614 31.6856,39.6947 23.5,38.5C 21.4959,34.4872 20.4959,30.4872 20.5,26.5C 20.8333,25.8333 21.1667,25.1667 21.5,24.5C 25.7842,21.3488 30.1176,18.1821 34.5,15C 38.1145,14.2682 41.4479,12.9349 44.5,11C 51.3923,8.59533 58.3923,8.09533 65.5,9.5 Z"/></g>
<g><path style="opacity:0.004" fill="#6d98f6" d="M 15.5,21.5 C 16.8333,22.1667 16.8333,22.1667 15.5,21.5 Z"/></g>
<g><path style="opacity:0.004" fill="#6c8ee0" d="M 13.5,22.5 C 14.8333,23.1667 14.8333,23.1667 13.5,22.5 Z"/></g>
<g><path style="opacity:0.004" fill="#6089de" d="M 20.5,26.5 C 19.8333,27.1667 19.8333,27.1667 20.5,26.5 Z"/></g>
<g><path style="opacity:0.988" fill="#5490f3" d="M 14.5,41.5 C 15.5407,46.6594 16.5407,46.6594 17.5,41.5C 17.5,49.1667 17.5,56.8333 17.5,64.5C 21.1667,64.5 24.8333,64.5 28.5,64.5C 25.0381,65.4816 21.3714,65.815 17.5,65.5C 17.5,66.5 17.5,67.5 17.5,68.5C 17.5,69.8333 17.5,71.1667 17.5,72.5C 17.5,73.5 17.5,74.5 17.5,75.5C 17.1667,75.5 16.8333,75.5 16.5,75.5C 14.1918,73.5293 11.8585,71.5293 9.5,69.5C 6.05429,65.6012 3.38763,61.2679 1.5,56.5C 1.20414,54.597 0.53747,52.9303 -0.5,51.5C -0.5,44.8333 -0.5,38.1667 -0.5,31.5C 0.0651691,29.6136 1.06517,27.9469 2.5,26.5C 6.29408,31.8068 10.2941,36.8068 14.5,41.5 Z"/></g>
<g><path style="opacity:0.004" fill="#678ee4" d="M 19.5,32.5 C 20.8333,33.1667 20.8333,33.1667 19.5,32.5 Z"/></g>
<g><path style="opacity:1" fill="#d72c28" d="M 79.5,31.5 C 81.8568,31.3367 84.1902,31.5034 86.5,32C 87.3802,33.3561 87.7135,34.8561 87.5,36.5C 75.4057,36.9897 63.4057,38.323 51.5,40.5C 51.5,39.5 51.5,38.5 51.5,37.5C 59.0401,35.6004 66.7067,34.4338 74.5,34C 76.4913,33.6264 78.158,32.793 79.5,31.5 Z"/></g>
<g><path style="opacity:1" fill="#f7ebeb" d="M 87.5,36.5 C 87.5,37.8333 87.5,39.1667 87.5,40.5C 75.4697,40.4446 63.4697,41.7779 51.5,44.5C 51.5,43.1667 51.5,41.8333 51.5,40.5C 63.4057,38.323 75.4057,36.9897 87.5,36.5 Z"/></g>
<g><path style="opacity:1" fill="#3844b9" d="M 51.5,44.5 C 51.5,45.5 51.5,46.5 51.5,47.5C 51.5,48.8333 51.5,50.1667 51.5,51.5C 51.5,52.8333 51.5,54.1667 51.5,55.5C 51.5,56.5 51.5,57.5 51.5,58.5C 51.5,59.8333 51.5,61.1667 51.5,62.5C 51.1667,62.5 50.8333,62.5 50.5,62.5C 49.9094,61.8485 49.2427,61.1818 48.5,60.5C 49.8532,59.4763 50.5198,58.143 50.5,56.5C 49.5,56.5 48.5,56.5 47.5,56.5C 47.6309,55.6236 47.2975,54.9569 46.5,54.5C 44.5979,56.4383 42.4313,58.105 40,59.5C 37.8044,57.8533 35.971,58.1866 34.5,60.5C 32.0544,59.4756 30.3877,57.8089 29.5,55.5C 30.8333,55.5 32.1667,55.5 33.5,55.5C 33.3601,53.8762 34.0267,52.7096 35.5,52C 34.552,51.5172 33.552,51.3505 32.5,51.5C 31.8333,51.5 31.1667,51.5 30.5,51.5C 31.209,50.596 32.209,50.2627 33.5,50.5C 33.4802,48.857 34.1468,47.5237 35.5,46.5C 32.9422,44.8799 32.9422,43.3799 35.5,42C 34.552,41.5172 33.552,41.3505 32.5,41.5C 31.8333,41.5 31.1667,41.5 30.5,41.5C 27.1691,40.7718 23.5025,40.1051 19.5,39.5C 20.5676,38.5655 21.901,38.2322 23.5,38.5C 31.6856,39.6947 39.8522,39.3614 48,37.5C 48.8333,37.8333 49.6667,38.1667 50.5,38.5C 47.8333,39.8333 47.8333,41.1667 50.5,42.5C 47.8139,46.1758 48.1472,46.8425 51.5,44.5 Z"/></g>
<g><path style="opacity:0.004" fill="#223f69" d="M 14.5,40.5 C 15.8333,41.1667 15.8333,41.1667 14.5,40.5 Z"/></g>
<g><path style="opacity:1" fill="#0721a5" d="M 19.5,39.5 C 23.5025,40.1051 27.1691,40.7718 30.5,41.5C 31.1667,44.1667 31.8333,44.1667 32.5,41.5C 33.552,41.3505 34.552,41.5172 35.5,42C 32.9422,43.3799 32.9422,44.8799 35.5,46.5C 34.1468,47.5237 33.4802,48.857 33.5,50.5C 32.209,50.2627 31.209,50.596 30.5,51.5C 31.1667,54.1667 31.8333,54.1667 32.5,51.5C 33.552,51.3505 34.552,51.5172 35.5,52C 34.0267,52.7096 33.3601,53.8762 33.5,55.5C 32.1667,55.5 30.8333,55.5 29.5,55.5C 29.5,54.1667 28.8333,53.5 27.5,53.5C 27.7822,52.2223 28.4489,51.2223 29.5,50.5C 29.5,49.1667 28.8333,48.5 27.5,48.5C 27.7822,47.2223 28.4489,46.2223 29.5,45.5C 28.8333,42.8333 28.1667,42.8333 27.5,45.5C 25.8212,45.7148 24.8212,45.0481 24.5,43.5C 23.5,43.5 22.5,43.5 21.5,43.5C 21.4677,45.6188 22.4677,46.9522 24.5,47.5C 24.5,47.8333 24.5,48.1667 24.5,48.5C 23.5,48.5 22.5,48.5 21.5,48.5C 21.4802,50.143 22.1468,51.4763 23.5,52.5C 22.1186,53.8814 20.7853,55.2147 19.5,56.5C 18.2426,57.6226 18.5759,58.2893 20.5,58.5C 19.4489,59.2223 18.7822,60.2223 18.5,61.5C 18.5,62.8333 19.1667,63.5 20.5,63.5C 21.8333,63.5 23.1667,63.5 24.5,63.5C 25.1667,63.5 25.8333,63.5 26.5,63.5C 27.4013,62.7095 28.0679,61.7095 28.5,60.5C 28.8333,60.5 29.1667,60.5 29.5,60.5C 29.5,61.8333 29.5,63.1667 29.5,64.5C 29.1667,64.5 28.8333,64.5 28.5,64.5C 24.8333,64.5 21.1667,64.5 17.5,64.5C 17.5,56.8333 17.5,49.1667 17.5,41.5C 17.5,40.1667 18.1667,39.5 19.5,39.5 Z"/></g>
<g><path style="opacity:1" fill="#acb3d8" d="M 24.5,43.5 C 24.6395,41.663 25.3061,41.3296 26.5,42.5C 26.0431,43.2975 25.3764,43.6309 24.5,43.5 Z"/></g>
<g><path style="opacity:1" fill="#a7b0df" d="M 36.5,40.5 C 38.337,40.6395 38.6704,41.3061 37.5,42.5C 36.7025,42.0431 36.3691,41.3764 36.5,40.5 Z"/></g>
<g><path style="opacity:1" fill="#aab1d0" d="M 18.5,41.5 C 20.337,41.6395 20.6704,42.3061 19.5,43.5C 18.7025,43.0431 18.3691,42.3764 18.5,41.5 Z"/></g>
<g><path style="opacity:1" fill="#95a2d7" d="M 30.5,41.5 C 31.1667,41.5 31.8333,41.5 32.5,41.5C 31.8333,44.1667 31.1667,44.1667 30.5,41.5 Z"/></g>
<g><path style="opacity:1" fill="#94a2db" d="M 39.5,42.5 C 41.337,42.6395 41.6704,43.3061 40.5,44.5C 39.7025,44.0431 39.3691,43.3764 39.5,42.5 Z"/></g>
<g><path style="opacity:1" fill="#afb7e0" d="M 29.5,45.5 C 28.8333,45.5 28.1667,45.5 27.5,45.5C 28.1667,42.8333 28.8333,42.8333 29.5,45.5 Z"/></g>
<g><path style="opacity:1" fill="#da342f" d="M 87.5,40.5 C 87.5,41.8333 87.5,43.1667 87.5,44.5C 85.422,43.8991 83.2554,43.5657 81,43.5C 71.1416,44.7114 61.3083,46.0447 51.5,47.5C 51.5,46.5 51.5,45.5 51.5,44.5C 63.4697,41.7779 75.4697,40.4446 87.5,40.5 Z"/></g>
<g><path style="opacity:1" fill="#f6e8e8" d="M 87.5,44.5 C 87.5,45.5 87.5,46.5 87.5,47.5C 85.7571,46.9144 83.9238,46.5811 82,46.5C 71.8728,48.4531 61.7061,50.1198 51.5,51.5C 51.5,50.1667 51.5,48.8333 51.5,47.5C 61.3083,46.0447 71.1416,44.7114 81,43.5C 83.2554,43.5657 85.422,43.8991 87.5,44.5 Z"/></g>
<g><path style="opacity:0.004" fill="#073156" d="M 89.5,44.5 C 91.7602,45.2376 91.9269,46.2376 90,47.5C 89.5172,46.552 89.3505,45.552 89.5,44.5 Z"/></g>
<g><path style="opacity:1" fill="#a3acd2" d="M 18.5,46.5 C 20.337,46.6395 20.6704,47.3061 19.5,48.5C 18.7025,48.0431 18.3691,47.3764 18.5,46.5 Z"/></g>
<g><path style="opacity:1" fill="#9eaad9" d="M 30.5,46.5 C 32.337,46.6395 32.6704,47.3061 31.5,48.5C 30.7025,48.0431 30.3691,47.3764 30.5,46.5 Z"/></g>
<g><path style="opacity:1" fill="#b3bde3" d="M 36.5,45.5 C 38.337,45.6395 38.6704,46.3061 37.5,47.5C 36.7025,47.0431 36.3691,46.3764 36.5,45.5 Z"/></g>
<g><path style="opacity:1" fill="#b4bbde" d="M 24.5,48.5 C 24.5,48.1667 24.5,47.8333 24.5,47.5C 25.0768,46.2267 25.7435,46.2267 26.5,47.5C 26.0431,48.2975 25.3764,48.6309 24.5,48.5 Z"/></g>
<g><path style="opacity:1" fill="#a3addd" d="M 45.5,46.5 C 47.337,46.6395 47.6704,47.3061 46.5,48.5C 45.7025,48.0431 45.3691,47.3764 45.5,46.5 Z"/></g>
<g><path style="opacity:1" fill="#bfc3e3" d="M 27.5,48.5 C 28.8333,48.5 29.5,49.1667 29.5,50.5C 28.1667,50.5 27.5,49.8333 27.5,48.5 Z"/></g>
<g><path style="opacity:1" fill="#a6b1df" d="M 36.5,50.5 C 38.337,50.6395 38.6704,51.3061 37.5,52.5C 36.7025,52.0431 36.3691,51.3764 36.5,50.5 Z"/></g>
<g><path style="opacity:1" fill="#da332e" d="M 87.5,47.5 C 87.5,48.8333 87.5,50.1667 87.5,51.5C 83.2529,50.3982 78.9196,50.2316 74.5,51C 66.8244,52.5891 59.1577,54.0891 51.5,55.5C 51.5,54.1667 51.5,52.8333 51.5,51.5C 61.7061,50.1198 71.8728,48.4531 82,46.5C 83.9238,46.5811 85.7571,46.9144 87.5,47.5 Z"/></g>
<g><path style="opacity:1" fill="#f7eceb" d="M 87.5,51.5 C 87.5,52.5 87.5,53.5 87.5,54.5C 85.7571,53.9144 83.9238,53.5811 82,53.5C 71.8781,55.5481 61.7115,57.2148 51.5,58.5C 51.5,57.5 51.5,56.5 51.5,55.5C 59.1577,54.0891 66.8244,52.5891 74.5,51C 78.9196,50.2316 83.2529,50.3982 87.5,51.5 Z"/></g>
<g><path style="opacity:1" fill="#a0a8d3" d="M 18.5,51.5 C 20.337,51.6395 20.6704,52.3061 19.5,53.5C 18.7025,53.0431 18.3691,52.3764 18.5,51.5 Z"/></g>
<g><path style="opacity:1" fill="#909cd5" d="M 30.5,51.5 C 31.1667,51.5 31.8333,51.5 32.5,51.5C 31.8333,54.1667 31.1667,54.1667 30.5,51.5 Z"/></g>
<g><path style="opacity:1" fill="#9ca8db" d="M 45.5,51.5 C 47.337,51.6395 47.6704,52.3061 46.5,53.5C 45.7025,53.0431 45.3691,52.3764 45.5,51.5 Z"/></g>
<g><path style="opacity:1" fill="#a7b1df" d="M 39.5,52.5 C 41.337,52.6395 41.6704,53.3061 40.5,54.5C 39.7025,54.0431 39.3691,53.3764 39.5,52.5 Z"/></g>
<g><path style="opacity:1" fill="#bfc4e0" d="M 27.5,53.5 C 28.8333,53.5 29.5,54.1667 29.5,55.5C 28.1667,55.5 27.5,54.8333 27.5,53.5 Z"/></g>
<g><path style="opacity:0.006" fill="#668ee5" d="M 1.5,56.5 C 1.63101,57.2389 1.46434,57.9056 1,58.5C 0.308314,57.5632 0.474981,56.8966 1.5,56.5 Z"/></g>
<g><path style="opacity:1" fill="#2634af" d="M 24.5,43.5 C 24.8212,45.0481 25.8212,45.7148 27.5,45.5C 28.1667,45.5 28.8333,45.5 29.5,45.5C 28.4489,46.2223 27.7822,47.2223 27.5,48.5C 27.5,49.8333 28.1667,50.5 29.5,50.5C 28.4489,51.2223 27.7822,52.2223 27.5,53.5C 27.5,54.8333 28.1667,55.5 29.5,55.5C 30.3877,57.8089 32.0544,59.4756 34.5,60.5C 35.971,58.1866 37.8044,57.8533 40,59.5C 42.4313,58.105 44.5979,56.4383 46.5,54.5C 47.2975,54.9569 47.6309,55.6236 47.5,56.5C 48.5,56.5 49.5,56.5 50.5,56.5C 50.5198,58.143 49.8532,59.4763 48.5,60.5C 49.2427,61.1818 49.9094,61.8485 50.5,62.5C 43.4925,63.1008 36.4925,63.7674 29.5,64.5C 29.5,63.1667 29.5,61.8333 29.5,60.5C 29.6309,59.6236 29.2975,58.9569 28.5,58.5C 27.2267,59.2565 27.2267,59.9232 28.5,60.5C 28.0679,61.7095 27.4013,62.7095 26.5,63.5C 25.8333,60.8333 25.1667,60.8333 24.5,63.5C 23.1667,63.5 21.8333,63.5 20.5,63.5C 19.1667,63.5 18.5,62.8333 18.5,61.5C 18.7822,60.2223 19.4489,59.2223 20.5,58.5C 20.6716,57.5084 20.3382,56.8417 19.5,56.5C 20.7853,55.2147 22.1186,53.8814 23.5,52.5C 22.1468,51.4763 21.4802,50.143 21.5,48.5C 22.5,48.5 23.5,48.5 24.5,48.5C 25.3764,48.6309 26.0431,48.2975 26.5,47.5C 25.7435,46.2267 25.0768,46.2267 24.5,47.5C 22.4677,46.9522 21.4677,45.6188 21.5,43.5C 22.5,43.5 23.5,43.5 24.5,43.5 Z"/></g>
<g><path style="opacity:1" fill="#a9b0d9" d="M 24.5,51.5 C 26.337,51.6395 26.6704,52.3061 25.5,53.5C 24.7025,53.0431 24.3691,52.3764 24.5,51.5 Z"/></g>
<g><path style="opacity:1" fill="#a7afd1" d="M 19.5,56.5 C 20.3382,56.8417 20.6716,57.5084 20.5,58.5C 18.5759,58.2893 18.2426,57.6226 19.5,56.5 Z"/></g>
<g><path style="opacity:1" fill="#adb3d9" d="M 24.5,56.5 C 26.337,56.6395 26.6704,57.3061 25.5,58.5C 24.7025,58.0431 24.3691,57.3764 24.5,56.5 Z"/></g>
<g><path style="opacity:1" fill="#d8312a" d="M 87.5,54.5 C 87.5,55.8333 87.5,57.1667 87.5,58.5C 83.2529,57.3982 78.9196,57.2316 74.5,58C 66.883,59.8235 59.2163,61.3235 51.5,62.5C 51.5,61.1667 51.5,59.8333 51.5,58.5C 61.7115,57.2148 71.8781,55.5481 82,53.5C 83.9238,53.5811 85.7571,53.9144 87.5,54.5 Z"/></g>
<g><path style="opacity:1" fill="#bac1de" d="M 29.5,60.5 C 29.1667,60.5 28.8333,60.5 28.5,60.5C 27.2267,59.9232 27.2267,59.2565 28.5,58.5C 29.2975,58.9569 29.6309,59.6236 29.5,60.5 Z"/></g>
<g><path style="opacity:1" fill="#f1e5e6" d="M 87.5,58.5 C 87.5,59.8333 87.5,61.1667 87.5,62.5C 84.272,61.5863 80.9387,61.2529 77.5,61.5C 73.9601,61.7526 70.6267,62.4192 67.5,63.5C 51.0465,66.6025 34.3798,68.2691 17.5,68.5C 17.5,67.5 17.5,66.5 17.5,65.5C 21.3714,65.815 25.0381,65.4816 28.5,64.5C 28.8333,64.5 29.1667,64.5 29.5,64.5C 36.4925,63.7674 43.4925,63.1008 50.5,62.5C 50.8333,62.5 51.1667,62.5 51.5,62.5C 59.2163,61.3235 66.883,59.8235 74.5,58C 78.9196,57.2316 83.2529,57.3982 87.5,58.5 Z"/></g>
<g><path style="opacity:1" fill="#5e69c8" d="M 47.5,56.5 C 46.6044,59.0692 44.9377,61.0692 42.5,62.5C 41.479,61.9984 41.3123,61.3317 42,60.5C 44.0337,59.2787 45.867,57.9454 47.5,56.5 Z"/></g>
<g><path style="opacity:1" fill="#a5aede" d="M 36.5,60.5 C 38.337,60.6395 38.6704,61.3061 37.5,62.5C 36.7025,62.0431 36.3691,61.3764 36.5,60.5 Z"/></g>
<g><path style="opacity:1" fill="#b4080f" d="M 77.5,61.5 C 80.9387,61.2529 84.272,61.5863 87.5,62.5C 87.5,62.8333 87.5,63.1667 87.5,63.5C 87.5,64.1667 87.1667,64.5 86.5,64.5C 83.6467,63.0456 80.6467,62.0456 77.5,61.5 Z"/></g>
<g><path style="opacity:1" fill="#98a1d2" d="M 18.5,61.5 C 19.8333,61.5 20.5,62.1667 20.5,63.5C 20.5,62.1667 19.8333,61.5 18.5,61.5 Z"/></g>
<g><path style="opacity:1" fill="#afb6da" d="M 26.5,63.5 C 25.8333,63.5 25.1667,63.5 24.5,63.5C 25.1667,60.8333 25.8333,60.8333 26.5,63.5 Z"/></g>
<g><path style="opacity:1" fill="#7c1e46" d="M 87.5,63.5 C 89.1667,64.5 90.5,65.8333 91.5,67.5C 89.8608,68.4725 88.5274,69.8058 87.5,71.5C 86.8333,71.1667 86.1667,70.8333 85.5,70.5C 84.4097,69.1429 83.0764,68.1429 81.5,67.5C 82.6594,65.7497 84.326,64.7497 86.5,64.5C 87.1667,64.5 87.5,64.1667 87.5,63.5 Z"/></g>
<g><path style="opacity:1" fill="#c92b4e" d="M 77.5,61.5 C 80.6467,62.0456 83.6467,63.0456 86.5,64.5C 84.326,64.7497 82.6594,65.7497 81.5,67.5C 72.3173,67.0171 67.6506,71.3505 67.5,80.5C 65.8333,81.5 64.5,82.8333 63.5,84.5C 62.8333,83.8333 62.1667,83.1667 61.5,82.5C 61.5,81.5 61.5,80.5 61.5,79.5C 60.5,79.5 59.5,79.5 58.5,79.5C 59.209,78.596 60.209,78.2627 61.5,78.5C 61.7373,77.209 61.404,76.209 60.5,75.5C 61.635,74.5255 62.635,73.3588 63.5,72C 62.9056,71.5357 62.2389,71.369 61.5,71.5C 62.2625,70.7321 63.2625,70.2321 64.5,70C 65.2524,69.3292 65.5858,68.4959 65.5,67.5C 66.9869,66.1964 68.6536,65.0298 70.5,64C 69.552,63.5172 68.552,63.3505 67.5,63.5C 70.6267,62.4192 73.9601,61.7526 77.5,61.5 Z"/></g>
<g><path style="opacity:1" fill="#d32b26" d="M 67.5,63.5 C 68.552,63.3505 69.552,63.5172 70.5,64C 68.6536,65.0298 66.9869,66.1964 65.5,67.5C 49.5208,69.4607 33.5208,71.1274 17.5,72.5C 17.5,71.1667 17.5,69.8333 17.5,68.5C 34.3798,68.2691 51.0465,66.6025 67.5,63.5 Z"/></g>
<g><path style="opacity:1" fill="#f6e6e6" d="M 65.5,67.5 C 65.5858,68.4959 65.2524,69.3292 64.5,70C 63.2625,70.2321 62.2625,70.7321 61.5,71.5C 46.956,74.0036 32.2894,75.3369 17.5,75.5C 17.5,74.5 17.5,73.5 17.5,72.5C 33.5208,71.1274 49.5208,69.4607 65.5,67.5 Z"/></g>
<g><path style="opacity:0.004" fill="#072a4b" d="M 9.5,69.5 C 8.83333,70.1667 8.83333,70.1667 9.5,69.5 Z"/></g>
<g><path style="opacity:1" fill="#b75a78" d="M 81.5,67.5 C 83.0764,68.1429 84.4097,69.1429 85.5,70.5C 85.0618,70.4346 84.7284,70.6012 84.5,71C 85.8228,71.8159 86.4894,72.9826 86.5,74.5C 86.1667,74.5 85.8333,74.5 85.5,74.5C 84.8091,72.9778 83.6424,71.9778 82,71.5C 78.4192,72.6282 75.2526,74.2948 72.5,76.5C 72.8505,79.8562 72.0171,82.8562 70,85.5C 68.6283,84.0899 67.795,82.4233 67.5,80.5C 67.6506,71.3505 72.3173,67.0171 81.5,67.5 Z"/></g>
<g><path style="opacity:1" fill="#89395b" d="M 85.5,74.5 C 79.25,74.2423 76.9167,77.0756 78.5,83C 77.244,83.4169 76.5774,84.2502 76.5,85.5C 75.1667,86.1667 73.8333,86.8333 72.5,87.5C 71.4168,87.4606 70.4168,87.1272 69.5,86.5C 68.1482,87.5244 66.8149,88.5244 65.5,89.5C 65.1667,89.5 64.8333,89.5 64.5,89.5C 64.4431,88.391 64.1098,87.391 63.5,86.5C 63.5,85.8333 63.5,85.1667 63.5,84.5C 64.5,82.8333 65.8333,81.5 67.5,80.5C 67.795,82.4233 68.6283,84.0899 70,85.5C 72.0171,82.8562 72.8505,79.8562 72.5,76.5C 75.2526,74.2948 78.4192,72.6282 82,71.5C 83.6424,71.9778 84.8091,72.9778 85.5,74.5 Z"/></g>
<g><path style="opacity:1" fill="#d22e29" d="M 61.5,71.5 C 62.2389,71.369 62.9056,71.5357 63.5,72C 62.635,73.3588 61.635,74.5255 60.5,75.5C 45.8883,77.1639 31.2216,78.4973 16.5,79.5C 16.5,78.1667 16.5,76.8333 16.5,75.5C 16.8333,75.5 17.1667,75.5 17.5,75.5C 32.2894,75.3369 46.956,74.0036 61.5,71.5 Z"/></g>
<g><path style="opacity:0.939" fill="#20153e" d="M 91.5,67.5 C 93.0737,68.9842 94.407,70.6508 95.5,72.5C 95.5,76.8333 95.5,81.1667 95.5,85.5C 92.5,89.1667 89.1667,92.5 85.5,95.5C 81.1667,95.5 76.8333,95.5 72.5,95.5C 72.5,94.8333 72.1667,94.5 71.5,94.5C 73.3068,92.8357 74.3068,91.1691 74.5,89.5C 77.7696,90.9241 80.7696,90.5908 83.5,88.5C 89.7683,84.0616 91.1016,78.395 87.5,71.5C 88.5274,69.8058 89.8608,68.4725 91.5,67.5 Z"/></g>
<g><path style="opacity:1" fill="#f3efef" d="M 60.5,75.5 C 61.404,76.209 61.7373,77.209 61.5,78.5C 60.209,78.2627 59.209,78.596 58.5,79.5C 44.5554,81.2137 30.5554,82.2137 16.5,82.5C 16.5,81.5 16.5,80.5 16.5,79.5C 31.2216,78.4973 45.8883,77.1639 60.5,75.5 Z"/></g>
<g><path style="opacity:1" fill="#56234a" d="M 85.5,74.5 C 85.8333,74.5 86.1667,74.5 86.5,74.5C 89.2117,78.6744 88.545,82.3411 84.5,85.5C 81.6481,86.2583 78.9815,86.2583 76.5,85.5C 76.5774,84.2502 77.244,83.4169 78.5,83C 76.9167,77.0756 79.25,74.2423 85.5,74.5 Z"/></g>
<g><path style="opacity:1" fill="#dbd6de" d="M 85.5,70.5 C 86.1667,70.8333 86.8333,71.1667 87.5,71.5C 91.1016,78.395 89.7683,84.0616 83.5,88.5C 83.0618,88.5654 82.7284,88.3988 82.5,88C 83.3805,87.2917 84.0472,86.4584 84.5,85.5C 88.545,82.3411 89.2117,78.6744 86.5,74.5C 86.4894,72.9826 85.8228,71.8159 84.5,71C 84.7284,70.6012 85.0618,70.4346 85.5,70.5 Z"/></g>
<g><path style="opacity:1" fill="#cc2723" d="M 58.5,79.5 C 59.5,79.5 60.5,79.5 61.5,79.5C 61.5,80.5 61.5,81.5 61.5,82.5C 52.4241,83.9863 43.4241,85.3197 34.5,86.5C 30.2984,86.1832 26.2984,86.5166 22.5,87.5C 18.4877,88.1126 16.4877,86.4459 16.5,82.5C 30.5554,82.2137 44.5554,81.2137 58.5,79.5 Z"/></g>
<g><path style="opacity:1" fill="#6d0001" d="M 61.5,82.5 C 62.1667,83.1667 62.8333,83.8333 63.5,84.5C 63.5,85.1667 63.5,85.8333 63.5,86.5C 53.8333,86.5 44.1667,86.5 34.5,86.5C 43.4241,85.3197 52.4241,83.9863 61.5,82.5 Z"/></g>
<g><path style="opacity:1" fill="#7b6883" d="M 76.5,85.5 C 78.9815,86.2583 81.6481,86.2583 84.5,85.5C 84.0472,86.4584 83.3805,87.2917 82.5,88C 82.7284,88.3988 83.0618,88.5654 83.5,88.5C 80.7696,90.5908 77.7696,90.9241 74.5,89.5C 73.8333,88.8333 73.1667,88.1667 72.5,87.5C 73.8333,86.8333 75.1667,86.1667 76.5,85.5 Z"/></g>
<g><path style="opacity:0.085" fill="#120103" d="M 22.5,87.5 C 26.2984,86.5166 30.2984,86.1832 34.5,86.5C 44.1667,86.5 53.8333,86.5 63.5,86.5C 64.1098,87.391 64.4431,88.391 64.5,89.5C 64.44,90.0431 64.1067,90.3764 63.5,90.5C 50.0856,87.8503 36.4189,86.8503 22.5,87.5 Z"/></g>
<g><path style="opacity:1" fill="#521b44" d="M 72.5,87.5 C 73.1667,88.1667 73.8333,88.8333 74.5,89.5C 74.3068,91.1691 73.3068,92.8357 71.5,94.5C 68.8908,93.5569 66.8908,91.8903 65.5,89.5C 66.8149,88.5244 68.1482,87.5244 69.5,86.5C 70.4168,87.1272 71.4168,87.4606 72.5,87.5 Z"/></g>
</svg>
