<?xml version="1.0" encoding="UTF-8"?>
<!DOCTYPE svg PUBLIC "-//W3C//DTD SVG 1.1//EN" "http://www.w3.org/Graphics/SVG/1.1/DTD/svg11.dtd">
<svg xmlns="http://www.w3.org/2000/svg" version="1.1" width="96px" height="96px" style="shape-rendering:geometricPrecision; text-rendering:geometricPrecision; image-rendering:optimizeQuality; fill-rule:evenodd; clip-rule:evenodd" xmlns:xlink="http://www.w3.org/1999/xlink">
<g><path style="opacity:0.997" fill="#33b99d" d="M -0.5,-0.5 C 31.5,-0.5 63.5,-0.5 95.5,-0.5C 95.5,31.5 95.5,63.5 95.5,95.5C 63.5,95.5 31.5,95.5 -0.5,95.5C -0.5,63.5 -0.5,31.5 -0.5,-0.5 Z"/></g>
<g><path style="opacity:1" fill="#0f342a" d="M 55.5,30.5 C 55.56,31.0431 55.8933,31.3764 56.5,31.5C 60.2408,29.6692 64.2408,29.0025 68.5,29.5C 68.5,41.5 68.5,53.5 68.5,65.5C 64.2408,65.9975 60.2408,65.3308 56.5,63.5C 55.8933,63.6236 55.56,63.9569 55.5,64.5C 44.2455,70.2608 35.0788,67.9274 28,57.5C 22.4926,44.016 26.3259,34.1827 39.5,28C 45.1746,26.9318 50.5079,27.7652 55.5,30.5 Z"/></g>
<g><path style="opacity:1" fill="#164f41" d="M 55.5,64.5 C 55.56,63.9569 55.8933,63.6236 56.5,63.5C 60.2408,65.3308 64.2408,65.9975 68.5,65.5C 68.5,53.5 68.5,41.5 68.5,29.5C 64.2408,29.0025 60.2408,29.6692 56.5,31.5C 55.8933,31.3764 55.56,31.0431 55.5,30.5C 59.8536,28.652 64.5203,27.9853 69.5,28.5C 69.5,41.1667 69.5,53.8333 69.5,66.5C 64.5203,67.0147 59.8536,66.348 55.5,64.5 Z"/></g>
<g><path style="opacity:1" fill="#32b69b" d="M 43.5,37.5 C 53.482,36.9817 57.6486,41.6484 56,51.5C 49.5803,59.7759 43.5803,59.4426 38,50.5C 37.3333,48.5 37.3333,46.5 38,44.5C 39.6665,42.0043 41.4998,39.671 43.5,37.5 Z"/></g>
</svg>
