<?xml version="1.0" encoding="UTF-8"?>
<!DOCTYPE svg PUBLIC "-//W3C//DTD SVG 1.1//EN" "http://www.w3.org/Graphics/SVG/1.1/DTD/svg11.dtd">
<svg xmlns="http://www.w3.org/2000/svg" version="1.1" width="96px" height="96px" style="shape-rendering:geometricPrecision; text-rendering:geometricPrecision; image-rendering:optimizeQuality; fill-rule:evenodd; clip-rule:evenodd" xmlns:xlink="http://www.w3.org/1999/xlink">
<g><path style="opacity:0.985" fill="#4345ee" d="M 37.5,-0.5 C 44.1667,-0.5 50.8333,-0.5 57.5,-0.5C 77.1667,5.16667 89.8333,17.8333 95.5,37.5C 95.5,44.1667 95.5,50.8333 95.5,57.5C 89.8333,77.1667 77.1667,89.8333 57.5,95.5C 50.8333,95.5 44.1667,95.5 37.5,95.5C 17.8333,89.8333 5.16667,77.1667 -0.5,57.5C -0.5,50.8333 -0.5,44.1667 -0.5,37.5C 5.16667,17.8333 17.8333,5.16667 37.5,-0.5 Z"/></g>
<g><path style="opacity:1" fill="#eae9fd" d="M 46.5,13.5 C 50.4469,15.4734 54.4469,17.4734 58.5,19.5C 59.3857,20.325 59.719,21.325 59.5,22.5C 56.2341,22.3706 53.2341,21.3706 50.5,19.5C 49.513,22.7683 49.1796,26.1016 49.5,29.5C 48.1667,29.5 46.8333,29.5 45.5,29.5C 45.5,26.1667 45.5,22.8333 45.5,19.5C 42.381,21.0507 39.0476,22.0507 35.5,22.5C 35.281,21.325 35.6143,20.325 36.5,19.5C 39.8968,17.4741 43.2301,15.4741 46.5,13.5 Z"/></g>
<g><path style="opacity:1" fill="#f0effd" d="M 23.5,33.5 C 23.44,32.9569 23.1067,32.6236 22.5,32.5C 21.5108,36.1073 21.1774,39.774 21.5,43.5C 20.5,43.5 19.5,43.5 18.5,43.5C 18.1953,38.2384 18.5286,33.0717 19.5,28C 23.3822,25.7156 27.3822,24.0489 31.5,23C 32.4506,23.7175 32.6172,24.5509 32,25.5C 29.4171,26.8742 26.9171,28.3742 24.5,30C 27.7262,31.1058 30.3929,32.9391 32.5,35.5C 29.2553,36.4023 26.2553,35.7356 23.5,33.5 Z"/></g>
<g><path style="opacity:1" fill="#efeffd" d="M 73.5,43.5 C 73.8226,39.774 73.4892,36.1073 72.5,32.5C 71.8933,32.6236 71.56,32.9569 71.5,33.5C 68.7447,35.7356 65.7447,36.4023 62.5,35.5C 64.4311,33.1956 66.7644,31.3622 69.5,30C 67.8442,28.1706 65.8442,26.8372 63.5,26C 62.1787,24.4555 62.5121,23.2888 64.5,22.5C 68.1667,24.5 71.8333,26.5 75.5,28.5C 76.4941,33.456 76.8275,38.456 76.5,43.5C 75.5,43.5 74.5,43.5 73.5,43.5 Z"/></g>
<g><path style="opacity:1" fill="#a9aaf7" d="M 23.5,33.5 C 22.8333,36.8333 22.1667,40.1667 21.5,43.5C 21.1774,39.774 21.5108,36.1073 22.5,32.5C 23.1067,32.6236 23.44,32.9569 23.5,33.5 Z"/></g>
<g><path style="opacity:1" fill="#aaabf7" d="M 71.5,33.5 C 71.56,32.9569 71.8933,32.6236 72.5,32.5C 73.4892,36.1073 73.8226,39.774 73.5,43.5C 72.8333,40.1667 72.1667,36.8333 71.5,33.5 Z"/></g>
<g><path style="opacity:1" fill="#e9e8fd" d="M 36.5,36.5 C 40.0005,38.4149 43.6671,40.0816 47.5,41.5C 51.0026,40.2183 54.3359,38.5516 57.5,36.5C 58.5,36.8333 59.1667,37.5 59.5,38.5C 57.0536,41.2307 54.0536,43.2307 50.5,44.5C 49.6747,48.1224 49.1747,51.789 49,55.5C 48,56.8333 47,56.8333 46,55.5C 45.8253,51.789 45.3253,48.1224 44.5,44.5C 40.9464,43.2307 37.9464,41.2307 35.5,38.5C 35.8627,37.8165 36.1961,37.1499 36.5,36.5 Z"/></g>
<g><path style="opacity:1" fill="#eeedfd" d="M 21.5,51.5 C 21.1774,55.226 21.5108,58.8927 22.5,62.5C 23.1067,62.3764 23.44,62.0431 23.5,61.5C 26.2084,59.6469 29.2084,58.6469 32.5,58.5C 32.719,59.675 32.3857,60.675 31.5,61.5C 29.3359,62.4143 27.3359,63.581 25.5,65C 27.4053,66.87 29.5719,68.37 32,69.5C 32.6013,70.9653 32.1013,71.9653 30.5,72.5C 26.5879,70.6275 22.7546,68.6275 19,66.5C 18.5007,61.5111 18.3341,56.5111 18.5,51.5C 19.5,51.5 20.5,51.5 21.5,51.5 Z"/></g>
<g><path style="opacity:1" fill="#efeffd" d="M 73.5,51.5 C 74.5,51.5 75.5,51.5 76.5,51.5C 76.8275,56.544 76.4941,61.544 75.5,66.5C 71.8333,68.5 68.1667,70.5 64.5,72.5C 62.8987,71.9653 62.3987,70.9653 63,69.5C 65.4281,68.37 67.5947,66.87 69.5,65C 67.6641,63.581 65.6641,62.4143 63.5,61.5C 62.6143,60.675 62.281,59.675 62.5,58.5C 65.7916,58.6469 68.7916,59.6469 71.5,61.5C 71.56,62.0431 71.8933,62.3764 72.5,62.5C 73.4892,58.8927 73.8226,55.226 73.5,51.5 Z"/></g>
<g><path style="opacity:1" fill="#ababf7" d="M 21.5,51.5 C 22.1667,54.8333 22.8333,58.1667 23.5,61.5C 23.44,62.0431 23.1067,62.3764 22.5,62.5C 21.5108,58.8927 21.1774,55.226 21.5,51.5 Z"/></g>
<g><path style="opacity:1" fill="#abacf7" d="M 73.5,51.5 C 73.8226,55.226 73.4892,58.8927 72.5,62.5C 71.8933,62.3764 71.56,62.0431 71.5,61.5C 72.1667,58.1667 72.8333,54.8333 73.5,51.5 Z"/></g>
<g><path style="opacity:1" fill="#eae9fd" d="M 45.5,65.5 C 46.8333,65.5 48.1667,65.5 49.5,65.5C 49.1796,68.8984 49.513,72.2317 50.5,75.5C 53.2341,73.6294 56.2341,72.6294 59.5,72.5C 59.719,73.675 59.3857,74.675 58.5,75.5C 54.6733,77.246 51.0066,79.246 47.5,81.5C 43.8333,79.5 40.1667,77.5 36.5,75.5C 35.6143,74.675 35.281,73.675 35.5,72.5C 38.7659,72.6294 41.7659,73.6294 44.5,75.5C 45.487,72.2317 45.8204,68.8984 45.5,65.5 Z"/></g>
</svg>
