<?xml version="1.0" encoding="UTF-8"?>
<!DOCTYPE svg PUBLIC "-//W3C//DTD SVG 1.1//EN" "http://www.w3.org/Graphics/SVG/1.1/DTD/svg11.dtd">
<svg xmlns="http://www.w3.org/2000/svg" version="1.1" width="96px" height="96px" style="shape-rendering:geometricPrecision; text-rendering:geometricPrecision; image-rendering:optimizeQuality; fill-rule:evenodd; clip-rule:evenodd" xmlns:xlink="http://www.w3.org/1999/xlink">
<g><path style="opacity:0.952" fill="#fe1a17" d="M 40.5,0.5 C 75.6365,1.46948 93.4699,19.4695 94,54.5C 86.3422,81.4956 68.5089,94.6623 40.5,94C 13.4894,86.3303 0.322765,68.4969 1,40.5C 6.34828,19.319 19.5149,5.98567 40.5,0.5 Z"/></g>
<g><path style="opacity:1" fill="#f0aba9" d="M 37.5,4.5 C 39.0257,5.10473 40.0257,6.27139 40.5,8C 39.552,8.48278 38.552,8.64945 37.5,8.5C 37.5,7.16667 37.5,5.83333 37.5,4.5 Z"/></g>
<g><path style="opacity:1" fill="#f1a9a8" d="M 50.5,4.5 C 53.9571,4.66721 54.2904,5.66721 51.5,7.5C 50.6143,6.67504 50.281,5.67504 50.5,4.5 Z"/></g>
<g><path style="opacity:1" fill="#f3bdbc" d="M 31.5,6.5 C 33.8324,7.16165 34.4991,8.49498 33.5,10.5C 32.2949,9.42312 31.6282,8.08979 31.5,6.5 Z"/></g>
<g><path style="opacity:1" fill="#f18c89" d="M 42.5,4.5 C 45.8606,5.20318 46.1939,6.53651 43.5,8.5C 42.5713,7.31116 42.238,5.97782 42.5,4.5 Z"/></g>
<g><path style="opacity:1" fill="#f2b4b3" d="M 55.5,5.5 C 57.9732,5.94731 58.1399,6.94731 56,8.5C 55.5172,7.55198 55.3505,6.55198 55.5,5.5 Z"/></g>
<g><path style="opacity:1" fill="#f6a09c" d="M 59.5,6.5 C 63.7954,6.27874 64.4621,7.61207 61.5,10.5C 58.841,9.89809 58.1744,8.56476 59.5,6.5 Z"/></g>
<g><path style="opacity:1" fill="#f1c4c3" d="M 27.5,8.5 C 30.8606,9.20318 31.1939,10.5365 28.5,12.5C 26.8241,11.2724 26.4908,9.93906 27.5,8.5 Z"/></g>
<g><path style="opacity:1" fill="#f2c6c6" d="M 65.5,8.5 C 67.3442,9.20389 67.8442,10.5372 67,12.5C 64.6275,11.6828 64.1275,10.3495 65.5,8.5 Z"/></g>
<g><path style="opacity:1" fill="#f5a6a2" d="M 22.5,11.5 C 23.5,11.5 24.5,11.5 25.5,11.5C 25.4261,15.5412 24.0928,16.2079 21.5,13.5C 21.8627,12.8165 22.1961,12.1499 22.5,11.5 Z"/></g>
<g><path style="opacity:1" fill="#f4a9a7" d="M 70.5,11.5 C 73.7742,12.3785 74.1075,13.7119 71.5,15.5C 70.5,15 69.5,14.5 68.5,14C 69.3805,13.2917 70.0472,12.4584 70.5,11.5 Z"/></g>
<g><path style="opacity:1" fill="#f19a98" d="M 18.5,14.5 C 21.0848,15.4654 21.5848,16.7988 20,18.5C 17.5003,17.8424 17.0003,16.5091 18.5,14.5 Z"/></g>
<g><path style="opacity:1" fill="#f67e77" d="M 75.5,14.5 C 79.458,16.1334 79.458,17.8001 75.5,19.5C 74.7132,18.7579 74.0465,17.9246 73.5,17C 74.3805,16.2917 75.0472,15.4584 75.5,14.5 Z"/></g>
<g><path style="opacity:1" fill="#f0b2b1" d="M 14.5,18.5 C 17.8606,19.2032 18.1939,20.5365 15.5,22.5C 13.3576,21.5629 13.0243,20.2296 14.5,18.5 Z"/></g>
<g><path style="opacity:1" fill="#ef9b98" d="M 79.5,18.5 C 82.2183,20.0878 82.0516,21.4212 79,22.5C 78.5,22.1667 78,21.8333 77.5,21.5C 78.1925,20.4822 78.8592,19.4822 79.5,18.5 Z"/></g>
<g><path style="opacity:1" fill="#ff4222" d="M 73.5,37.5 C 69.3005,37.1901 65.3005,37.8568 61.5,39.5C 60.8333,39.8333 60.1667,40.1667 59.5,40.5C 59.1667,40.5 58.8333,40.5 58.5,40.5C 57.6433,39.1982 57.1433,37.8649 57,36.5C 58.5994,38.0356 60.4328,38.5356 62.5,38C 63.8621,35.9656 64.8621,33.7989 65.5,31.5C 63.0576,31.6463 62.3909,30.813 63.5,29C 60.3553,25.8953 57.3553,26.062 54.5,29.5C 54.5,30.1667 54.1667,30.5 53.5,30.5C 51.1431,28.933 48.4764,27.933 45.5,27.5C 43.7844,28.5487 42.4511,29.882 41.5,31.5C 40.8333,31.5 40.5,31.1667 40.5,30.5C 40.2504,29.0779 39.417,28.0779 38,27.5C 36.7496,28.5733 35.4162,28.5733 34,27.5C 27.9301,31.1906 28.0968,34.524 34.5,37.5C 35.4168,36.8728 36.4168,36.5394 37.5,36.5C 37.9382,36.4346 38.2716,36.6012 38.5,37C 36.9512,38.214 35.7845,39.714 35,41.5C 34.2828,40.9558 33.7828,40.2891 33.5,39.5C 32.2321,37.6132 30.3987,36.6132 28,36.5C 26.3009,36.3866 25.1342,37.0532 24.5,38.5C 23.1667,38.5 21.8333,38.5 20.5,38.5C 22.2162,36.5526 24.3829,35.2193 27,34.5C 26.7978,28.565 29.6311,25.2317 35.5,24.5C 37.7738,24.9702 39.7738,25.9702 41.5,27.5C 43.6068,26.3632 45.7735,25.3632 48,24.5C 49.7374,25.6198 51.5708,26.6198 53.5,27.5C 58.916,23.3502 63.7493,24.0169 68,29.5C 68.3333,31.5 68.6667,33.5 69,35.5C 70.6225,36.0989 72.1225,36.7656 73.5,37.5 Z"/></g>
<g><path style="opacity:1" fill="#ff9f41" d="M 53.5,30.5 C 53.3893,31.1174 53.056,31.6174 52.5,32C 49.6285,32.3148 46.7952,32.8148 44,33.5C 42.699,33.3613 41.8656,32.6946 41.5,31.5C 42.4511,29.882 43.7844,28.5487 45.5,27.5C 48.4764,27.933 51.1431,28.933 53.5,30.5 Z"/></g>
<g><path style="opacity:1" fill="#ff9846" d="M 40.5,30.5 C 39.7611,30.369 39.0944,30.5357 38.5,31C 39.6667,32.1667 40.8333,33.3333 42,34.5C 42.0343,36.1796 42.201,37.6796 42.5,39C 45.5131,39.5022 48.5131,40.0022 51.5,40.5C 51.5674,41.9587 51.2341,43.2921 50.5,44.5C 49.2196,45.9313 47.5529,46.5979 45.5,46.5C 44.2935,42.6713 42.1268,39.0046 39,35.5C 37.8932,34.2881 37.3932,34.6214 37.5,36.5C 36.4168,36.5394 35.4168,36.8728 34.5,37.5C 28.0968,34.524 27.9301,31.1906 34,27.5C 35.4162,28.5733 36.7496,28.5733 38,27.5C 39.417,28.0779 40.2504,29.0779 40.5,30.5 Z"/></g>
<g><path style="opacity:1" fill="#ffd5b7" d="M 54.5,29.5 C 55.625,30.3478 55.625,31.3478 54.5,32.5C 52.7868,33.6354 52.1201,35.302 52.5,37.5C 51.8902,38.391 51.5569,39.391 51.5,40.5C 48.5131,40.0022 45.5131,39.5022 42.5,39C 42.201,37.6796 42.0343,36.1796 42,34.5C 40.8333,33.3333 39.6667,32.1667 38.5,31C 39.0944,30.5357 39.7611,30.369 40.5,30.5C 40.5,31.1667 40.8333,31.5 41.5,31.5C 41.8656,32.6946 42.699,33.3613 44,33.5C 46.7952,32.8148 49.6285,32.3148 52.5,32C 53.056,31.6174 53.3893,31.1174 53.5,30.5C 54.1667,30.5 54.5,30.1667 54.5,29.5 Z"/></g>
<g><path style="opacity:1" fill="#ff9244" d="M 58.5,40.5 C 55.2731,41.283 52.9398,41.283 51.5,40.5C 51.5569,39.391 51.8902,38.391 52.5,37.5C 53.1174,37.6107 53.6174,37.944 54,38.5C 54.4955,36.5273 54.6621,34.5273 54.5,32.5C 55.625,31.3478 55.625,30.3478 54.5,29.5C 57.3553,26.062 60.3553,25.8953 63.5,29C 62.3909,30.813 63.0576,31.6463 65.5,31.5C 64.8621,33.7989 63.8621,35.9656 62.5,38C 60.4328,38.5356 58.5994,38.0356 57,36.5C 57.1433,37.8649 57.6433,39.1982 58.5,40.5 Z"/></g>
<g><path style="opacity:1" fill="#ff8648" d="M 45.5,34.5 C 47.7834,34.6079 49.7834,35.4412 51.5,37C 49.8629,38.951 48.3629,38.7843 47,36.5C 45.7508,38.9915 44.5842,38.8249 43.5,36C 44.4158,35.7216 45.0825,35.2216 45.5,34.5 Z"/></g>
<g><path style="opacity:1" fill="#ff391b" d="M 54.5,32.5 C 54.6621,34.5273 54.4955,36.5273 54,38.5C 53.6174,37.944 53.1174,37.6107 52.5,37.5C 52.1201,35.302 52.7868,33.6354 54.5,32.5 Z"/></g>
<g><path style="opacity:1" fill="#ffa744" d="M 33.5,39.5 C 30.4552,39.4921 27.4552,39.1587 24.5,38.5C 25.1342,37.0532 26.3009,36.3866 28,36.5C 30.3987,36.6132 32.2321,37.6132 33.5,39.5 Z"/></g>
<g><path style="opacity:1" fill="#ffba82" d="M 45.5,46.5 C 44.5084,46.3284 43.8417,46.6618 43.5,47.5C 42.391,47.5569 41.391,47.8902 40.5,48.5C 37.1668,47.6667 34.8334,45.6667 33.5,42.5C 32.246,44.2592 32.5794,45.7592 34.5,47C 32.2609,48.7809 29.9276,50.2809 27.5,51.5C 26.2264,50.8106 26.2264,49.9772 27.5,49C 25.5448,48.0467 23.8782,46.7134 22.5,45C 25.1667,44 25.1667,43 22.5,42C 23.1667,41.3333 23.8333,40.6667 24.5,40C 22.9419,39.79 21.6085,39.29 20.5,38.5C 21.8333,38.5 23.1667,38.5 24.5,38.5C 27.4552,39.1587 30.4552,39.4921 33.5,39.5C 33.7828,40.2891 34.2828,40.9558 35,41.5C 35.7845,39.714 36.9512,38.214 38.5,37C 38.2716,36.6012 37.9382,36.4346 37.5,36.5C 37.3932,34.6214 37.8932,34.2881 39,35.5C 42.1268,39.0046 44.2935,42.6713 45.5,46.5 Z"/></g>
<g><path style="opacity:1" fill="#ff6355" d="M 61.5,39.5 C 61.9804,42.6852 61.3137,45.5185 59.5,48C 60.8463,49.6692 62.513,50.8358 64.5,51.5C 63.0813,52.4511 61.4147,52.7845 59.5,52.5C 59.1667,51.8333 58.8333,51.1667 58.5,50.5C 58.0472,49.5416 57.3805,48.7083 56.5,48C 58.1161,47.3848 59.4495,46.3848 60.5,45C 59.6198,43.6439 59.2865,42.1439 59.5,40.5C 60.1667,40.1667 60.8333,39.8333 61.5,39.5 Z"/></g>
<g><path style="opacity:1" fill="#ff5e51" d="M 40.5,48.5 C 36.9661,52.4925 32.6327,53.4925 27.5,51.5C 29.9276,50.2809 32.2609,48.7809 34.5,47C 32.5794,45.7592 32.246,44.2592 33.5,42.5C 34.8334,45.6667 37.1668,47.6667 40.5,48.5 Z"/></g>
<g><path style="opacity:1" fill="#ffb174" d="M 73.5,37.5 C 75.69,38.7476 76.0234,40.4143 74.5,42.5C 73.5655,41.4324 73.2322,40.099 73.5,38.5C 72.5,38.5 71.5,38.5 70.5,38.5C 71.3629,42.1616 70.0296,44.3282 66.5,45C 67.7932,45.49 69.1266,45.6567 70.5,45.5C 70.5,46.5 70.5,47.5 70.5,48.5C 67.9028,49.3996 65.5694,48.733 63.5,46.5C 63.1667,46.6667 62.8333,46.8333 62.5,47C 63.8333,48.3333 65.1667,49.6667 66.5,51C 65.9056,51.4643 65.2389,51.631 64.5,51.5C 62.513,50.8358 60.8463,49.6692 59.5,48C 61.3137,45.5185 61.9804,42.6852 61.5,39.5C 65.3005,37.8568 69.3005,37.1901 73.5,37.5 Z"/></g>
<g><path style="opacity:1" fill="#ff6432" d="M 74.5,42.5 C 75.0184,43.5774 75.3517,44.7441 75.5,46C 73.1681,48.3477 71.6681,51.1811 71,54.5C 69.1723,52.5969 69.339,50.7636 71.5,49C 71.2716,48.6012 70.9382,48.4346 70.5,48.5C 70.5,47.5 70.5,46.5 70.5,45.5C 69.1266,45.6567 67.7932,45.49 66.5,45C 70.0296,44.3282 71.3629,42.1616 70.5,38.5C 71.5,38.5 72.5,38.5 73.5,38.5C 73.2322,40.099 73.5655,41.4324 74.5,42.5 Z"/></g>
<g><path style="opacity:1" fill="#ffe6ce" d="M 50.5,44.5 C 51.3764,44.3691 52.0431,44.7025 52.5,45.5C 51.6906,47.0709 51.3573,48.7376 51.5,50.5C 49.4727,50.6621 47.4727,50.4955 45.5,50C 46.6843,48.8545 46.6843,47.6879 45.5,46.5C 47.5529,46.5979 49.2196,45.9313 50.5,44.5 Z"/></g>
<g><path style="opacity:1" fill="#ff3627" d="M 58.5,50.5 C 58.8333,51.1667 59.1667,51.8333 59.5,52.5C 56.4758,52.6358 54.9758,51.3025 55,48.5C 55.8159,49.8228 56.9826,50.4894 58.5,50.5 Z"/></g>
<g><path style="opacity:1" fill="#ffa879" d="M 58.5,40.5 C 58.8333,40.5 59.1667,40.5 59.5,40.5C 59.2865,42.1439 59.6198,43.6439 60.5,45C 59.4495,46.3848 58.1161,47.3848 56.5,48C 57.3805,48.7083 58.0472,49.5416 58.5,50.5C 56.9826,50.4894 55.8159,49.8228 55,48.5C 54.9758,51.3025 56.4758,52.6358 59.5,52.5C 60.7997,53.601 61.2997,54.9343 61,56.5C 58.4272,55.1935 56.0939,53.5269 54,51.5C 53.6012,51.7284 53.4346,52.0618 53.5,52.5C 52.8333,53.5 52.1667,54.5 51.5,55.5C 52.7416,57.6112 52.7416,59.6112 51.5,61.5C 48.9759,60.1997 46.3092,60.1997 43.5,61.5C 43.8655,62.9019 44.6988,63.9019 46,64.5C 47.3002,63.2927 48.8002,62.6261 50.5,62.5C 50.2627,63.791 50.596,64.791 51.5,65.5C 50.4264,66.8846 49.0931,68.0513 47.5,69C 48.731,70.1827 48.731,71.3493 47.5,72.5C 46.7412,68.7347 44.9079,65.068 42,61.5C 41.3333,58.8333 40.6667,56.1667 40,53.5C 37.4858,54.0885 35.4858,55.4219 34,57.5C 33.8333,57.1667 33.6667,56.8333 33.5,56.5C 37.3964,54.2778 40.7298,51.2778 43.5,47.5C 43.8417,46.6618 44.5084,46.3284 45.5,46.5C 46.6843,47.6879 46.6843,48.8545 45.5,50C 47.4727,50.4955 49.4727,50.6621 51.5,50.5C 51.3573,48.7376 51.6906,47.0709 52.5,45.5C 52.0431,44.7025 51.3764,44.3691 50.5,44.5C 51.2341,43.2921 51.5674,41.9587 51.5,40.5C 52.9398,41.283 55.2731,41.283 58.5,40.5 Z"/></g>
<g><path style="opacity:1" fill="#ff782b" d="M 51.5,55.5 C 48.4816,55.6646 45.4816,55.498 42.5,55C 43.9441,53.9363 45.6107,53.4363 47.5,53.5C 49.3328,53.5854 50.6661,54.2521 51.5,55.5 Z"/></g>
<g><path style="opacity:1" fill="#f49a97" d="M 6.5,54.5 C 8.04814,54.8212 8.71481,55.8212 8.5,57.5C 5.75236,57.5983 5.0857,56.5983 6.5,54.5 Z"/></g>
<g><path style="opacity:1" fill="#f0c4c4" d="M 86.5,55.5 C 87.675,55.281 88.675,55.6143 89.5,56.5C 87.9483,57.7979 86.9483,57.4646 86.5,55.5 Z"/></g>
<g><path style="opacity:1" fill="#ffdcce" d="M 53.5,52.5 C 53.9463,57.0711 53.2797,61.4044 51.5,65.5C 50.596,64.791 50.2627,63.791 50.5,62.5C 51.1667,62.5 51.5,62.1667 51.5,61.5C 52.7416,59.6112 52.7416,57.6112 51.5,55.5C 52.1667,54.5 52.8333,53.5 53.5,52.5 Z"/></g>
<g><path style="opacity:1" fill="#f39d9c" d="M 6.5,59.5 C 9.79731,59.3287 10.1306,59.9954 7.5,61.5C 6.70245,61.0431 6.36912,60.3764 6.5,59.5 Z"/></g>
<g><path style="opacity:1" fill="#f4a9a7" d="M 85.5,59.5 C 89.0794,59.7657 89.4127,61.099 86.5,63.5C 84.2997,62.6754 83.9663,61.3421 85.5,59.5 Z"/></g>
<g><path style="opacity:1" fill="#ff492d" d="M 51.5,61.5 C 51.5,62.1667 51.1667,62.5 50.5,62.5C 48.8002,62.6261 47.3002,63.2927 46,64.5C 44.6988,63.9019 43.8655,62.9019 43.5,61.5C 46.3092,60.1997 48.9759,60.1997 51.5,61.5 Z"/></g>
<g><path style="opacity:1" fill="#eebcbc" d="M 9.5,62.5 C 11.9337,63.354 11.767,64.354 9,65.5C 8.53042,64.4232 8.69708,63.4232 9.5,62.5 Z"/></g>
<g><path style="opacity:1" fill="#f3bab9" d="M 82.5,64.5 C 83.2216,64.9175 83.7216,65.5842 84,66.5C 84.7175,65.5494 85.5509,65.3828 86.5,66C 85.4366,67.1882 84.1033,67.6882 82.5,67.5C 82.5,66.5 82.5,65.5 82.5,64.5 Z"/></g>
<g><path style="opacity:1" fill="#f49694" d="M 12.5,66.5 C 13.522,67.8917 13.1887,69.225 11.5,70.5C 11.1667,70 10.8333,69.5 10.5,69C 11.0556,67.9889 11.7222,67.1556 12.5,66.5 Z"/></g>
<g><path style="opacity:1" fill="#f3a29f" d="M 14.5,70.5 C 17.8606,71.2032 18.1939,72.5365 15.5,74.5C 13.3576,73.5629 13.0243,72.2296 14.5,70.5 Z"/></g>
<g><path style="opacity:1" fill="#f1bbbb" d="M 80.5,68.5 C 83.1402,69.7936 83.1402,71.127 80.5,72.5C 79.6919,72.1924 79.0253,71.6924 78.5,71C 79.756,70.5831 80.4226,69.7498 80.5,68.5 Z"/></g>
<g><path style="opacity:1" fill="#f3c8c7" d="M 75.5,73.5 C 79.4346,73.9185 79.9346,74.9185 77,76.5C 75.9614,75.7562 75.4614,74.7562 75.5,73.5 Z"/></g>
<g><path style="opacity:1" fill="#f18886" d="M 20.5,76.5 C 24.0749,77.2068 24.2416,78.2068 21,79.5C 19.3167,78.8235 19.1501,77.8235 20.5,76.5 Z"/></g>
<g><path style="opacity:1" fill="#f5b1b0" d="M 71.5,78.5 C 72.7211,77.5354 74.0544,77.702 75.5,79C 74.154,80.5868 72.8206,80.4202 71.5,78.5 Z"/></g>
<g><path style="opacity:1" fill="#f1c4c4" d="M 25.5,79.5 C 26.5983,80.6009 26.765,81.9343 26,83.5C 22.937,82.3248 22.7704,80.9914 25.5,79.5 Z"/></g>
<g><path style="opacity:1" fill="#f88f8b" d="M 67.5,79.5 C 72.0122,80.2801 72.3455,81.6135 68.5,83.5C 67.5713,82.3112 67.238,80.9778 67.5,79.5 Z"/></g>
<g><path style="opacity:1" fill="#f3a6a5" d="M 29.5,81.5 C 32.1731,81.6845 32.8398,82.8511 31.5,85C 30.365,85.7494 29.365,85.5827 28.5,84.5C 29.1272,83.5832 29.4606,82.5832 29.5,81.5 Z"/></g>
<g><path style="opacity:1" fill="#f6c6c4" d="M 34.5,83.5 C 35.2216,83.9175 35.7216,84.5842 36,85.5C 37.6423,84.1537 38.3089,84.4871 38,86.5C 35.3422,87.694 34.1756,86.694 34.5,83.5 Z"/></g>
<g><path style="opacity:1" fill="#f2b5b5" d="M 64.5,81.5 C 65.782,82.7082 65.782,84.0416 64.5,85.5C 63.5,85.1667 62.8333,84.5 62.5,83.5C 62.8457,82.3044 63.3457,82.3044 64,83.5C 64.4643,82.9056 64.631,82.2389 64.5,81.5 Z"/></g>
<g><path style="opacity:1" fill="#f59d9a" d="M 43.5,85.5 C 44.5,85.5 45.5,85.5 46.5,85.5C 46.4261,89.5412 45.0928,90.2079 42.5,87.5C 42.8627,86.8165 43.1961,86.1499 43.5,85.5 Z"/></g>
<g><path style="opacity:1" fill="#f69f9d" d="M 48.5,85.5 C 49.8333,85.5 51.1667,85.5 52.5,85.5C 52.5,86.5 52.5,87.5 52.5,88.5C 51.1667,88.5 49.8333,88.5 48.5,88.5C 48.5,87.5 48.5,86.5 48.5,85.5 Z"/></g>
<g><path style="opacity:1" fill="#f5a6a3" d="M 57.5,84.5 C 62.6393,85.9407 62.6393,86.9407 57.5,87.5C 57.5,86.5 57.5,85.5 57.5,84.5 Z"/></g>
</svg>
