<?xml version="1.0" encoding="UTF-8"?>
<!DOCTYPE svg PUBLIC "-//W3C//DTD SVG 1.1//EN" "http://www.w3.org/Graphics/SVG/1.1/DTD/svg11.dtd">
<svg xmlns="http://www.w3.org/2000/svg" version="1.1" width="96px" height="96px" style="shape-rendering:geometricPrecision; text-rendering:geometricPrecision; image-rendering:optimizeQuality; fill-rule:evenodd; clip-rule:evenodd" xmlns:xlink="http://www.w3.org/1999/xlink">
<g><path style="opacity:1" fill="#fcfcfc" d="M -0.5,-0.5 C 13.1667,-0.5 26.8333,-0.5 40.5,-0.5C 18.5,4.83333 4.83333,18.5 -0.5,40.5C -0.5,26.8333 -0.5,13.1667 -0.5,-0.5 Z"/></g>
<g><path style="opacity:1" fill="#fafafa" d="M 53.5,-0.5 C 67.5,-0.5 81.5,-0.5 95.5,-0.5C 95.5,13.1667 95.5,26.8333 95.5,40.5C 90.0717,18.0719 76.0717,4.40518 53.5,-0.5 Z"/></g>
<g><path style="opacity:1" fill="#1a1a1a" d="M 40.5,-0.5 C 44.8333,-0.5 49.1667,-0.5 53.5,-0.5C 76.0717,4.40518 90.0717,18.0719 95.5,40.5C 95.5,44.5 95.5,48.5 95.5,52.5C 91.6594,74.3076 78.9927,88.1409 57.5,94C 52.1771,94.4994 46.8437,94.666 41.5,94.5C 17.8173,90.1506 3.81729,76.1506 -0.5,52.5C -0.5,48.5 -0.5,44.5 -0.5,40.5C 4.83333,18.5 18.5,4.83333 40.5,-0.5 Z"/></g>
<g><path style="opacity:1" fill="#eeeae7" d="M 40.5,2.5 C 67.3447,1.49513 84.5114,13.8285 92,39.5C 94.1888,64.9678 83.3555,82.1345 59.5,91C 30.3457,95.5097 11.5124,83.6764 3,55.5C 1.26371,27.6071 13.7637,9.94046 40.5,2.5 Z"/></g>
<g><path style="opacity:1" fill="#f36a26" d="M 40.5,5.5 C 73.3374,5.50335 89.504,21.8367 89,54.5C 84.5967,74.2372 72.43,85.7372 52.5,89C 34.4714,90.5689 20.638,83.7355 11,68.5C 0.245783,44.9041 5.41245,25.7375 26.5,11C 31.0171,8.44545 35.6838,6.61212 40.5,5.5 Z"/></g>
<g><path style="opacity:1" fill="#fcf3ee" d="M 46.5,19.5 C 47.4959,19.4142 48.3292,19.7476 49,20.5C 49.2189,21.938 49.7189,23.2713 50.5,24.5C 53.5802,25.7885 56.4136,27.4552 59,29.5C 60.7509,31.212 61.4175,33.212 61,35.5C 57.8093,36.7039 55.6426,35.5372 54.5,32C 48.5351,28.2684 43.0351,28.7684 38,33.5C 36.462,38.1205 37.962,41.2871 42.5,43C 48.1506,43.8236 53.4839,45.4902 58.5,48C 62.2911,53.712 62.4578,59.5454 59,65.5C 56.5761,67.6519 53.7427,68.9852 50.5,69.5C 49.7792,71.686 49.1125,73.8526 48.5,76C 47.5509,76.6172 46.7175,76.4506 46,75.5C 45.5045,73.5273 45.3379,71.5273 45.5,69.5C 38.2049,69.8573 33.2049,66.6907 30.5,60C 30.6667,58.5 31.5,57.6667 33,57.5C 35.1538,58.3204 36.6538,59.8204 37.5,62C 44.1136,65.754 50.2802,65.254 56,60.5C 57.1825,56.7261 56.3492,53.5594 53.5,51C 48.1667,49.3333 42.8333,47.6667 37.5,46C 29.347,38.9155 29.6803,32.2489 38.5,26C 40.74,25.023 43.0733,24.523 45.5,24.5C 45.366,22.7085 45.6993,21.0418 46.5,19.5 Z"/></g>
<g><path style="opacity:1" fill="#fafafa" d="M -0.5,52.5 C 3.81729,76.1506 17.8173,90.1506 41.5,94.5C 41.5,94.8333 41.5,95.1667 41.5,95.5C 27.5,95.5 13.5,95.5 -0.5,95.5C -0.5,81.1667 -0.5,66.8333 -0.5,52.5 Z"/></g>
<g><path style="opacity:1" fill="#f7f7f7" d="M 95.5,52.5 C 95.5,66.8333 95.5,81.1667 95.5,95.5C 77.5,95.5 59.5,95.5 41.5,95.5C 41.5,95.1667 41.5,94.8333 41.5,94.5C 46.8437,94.666 52.1771,94.4994 57.5,94C 78.9927,88.1409 91.6594,74.3076 95.5,52.5 Z"/></g>
</svg>
