<?xml version="1.0" encoding="UTF-8"?>
<!DOCTYPE svg PUBLIC "-//W3C//DTD SVG 1.1//EN" "http://www.w3.org/Graphics/SVG/1.1/DTD/svg11.dtd">
<svg xmlns="http://www.w3.org/2000/svg" version="1.1" width="96px" height="96px" style="shape-rendering:geometricPrecision; text-rendering:geometricPrecision; image-rendering:optimizeQuality; fill-rule:evenodd; clip-rule:evenodd" xmlns:xlink="http://www.w3.org/1999/xlink">
<g><path style="opacity:0.993" fill="#ddeafa" d="M 37.5,-0.5 C 44.1667,-0.5 50.8333,-0.5 57.5,-0.5C 64.9616,1.23082 71.6283,4.56416 77.5,9.5C 75.7673,10.0076 75.434,10.841 76.5,12C 57.1667,12.6667 37.8333,12.6667 18.5,12C 19.5981,11.2303 19.5981,10.397 18.5,9.5C 20.4006,7.20432 22.7339,5.37099 25.5,4C 29.5711,2.36954 33.5711,0.869545 37.5,-0.5 Z"/></g>
<g><path style="opacity:1" fill="#d7e6f8" d="M 18.5,9.5 C 19.5981,10.397 19.5981,11.2303 18.5,12C 37.8333,12.6667 57.1667,12.6667 76.5,12C 75.434,10.841 75.7673,10.0076 77.5,9.5C 82.9247,13.5888 87.2581,18.5888 90.5,24.5C 62.9429,25.8056 35.1095,25.8056 7,24.5C 6.08529,25.3279 5.41862,26.3279 5,27.5C 4.53566,26.9056 4.36899,26.2389 4.5,25.5C 7.41349,18.5894 12.0802,13.2561 18.5,9.5 Z"/></g>
<g><path style="opacity:1" fill="#d1def1" d="M 90.5,24.5 C 92.2099,28.5734 93.8765,32.5734 95.5,36.5C 95.5,38.5 95.5,40.5 95.5,42.5C 93.8829,41.4107 93.0496,39.744 93,37.5C 90.9592,38.4231 88.7925,38.7564 86.5,38.5C 86.5,37.8333 86.1667,37.5 85.5,37.5C 85.0472,36.5416 84.3805,35.7083 83.5,35C 78.5,34.3333 73.5,34.3333 68.5,35C 67.5842,35.2784 66.9175,35.7784 66.5,36.5C 65.6618,36.8417 65.3284,37.5084 65.5,38.5C 64.596,39.209 64.2627,40.209 64.5,41.5C 67.8333,41.5 71.1667,41.5 74.5,41.5C 74.5,41.8333 74.5,42.1667 74.5,42.5C 71.1667,42.5 67.8333,42.5 64.5,42.5C 64.2627,43.791 64.596,44.791 65.5,45.5C 65.5,45.8333 65.5,46.1667 65.5,46.5C 64.5,46.5 63.5,46.5 62.5,46.5C 62.7845,48.4147 62.4511,50.0813 61.5,51.5C 60.4855,50.2353 58.9855,49.5687 57,49.5C 53.7979,49.3338 51.6313,50.6671 50.5,53.5C 48.1667,54.8333 45.8333,54.8333 43.5,53.5C 42.8592,52.5178 42.1925,51.5178 41.5,50.5C 38.5719,49.5159 35.5719,49.1826 32.5,49.5C 32.5,50.5 32.5,51.5 32.5,52.5C 32.5,53.8333 32.5,55.1667 32.5,56.5C 28.5,56.5 24.5,56.5 20.5,56.5C 20.6495,57.552 20.4828,58.552 20,59.5C 19.79,57.9419 19.29,56.6085 18.5,55.5C 17.445,53.8883 17.945,52.555 20,51.5C 22.1953,51.0446 24.362,50.7113 26.5,50.5C 25.1667,49.1667 25.1667,47.8333 26.5,46.5C 24.3923,45.645 22.2256,44.9784 20,44.5C 18.6988,43.9019 17.8655,42.9019 17.5,41.5C 21.4454,40.5091 25.4454,40.1758 29.5,40.5C 29.8076,38.076 29.4742,35.7427 28.5,33.5C 27.8333,34.1667 27.1667,34.8333 26.5,35.5C 23.8333,32.8333 21.1667,32.8333 18.5,35.5C 17.5318,34.5109 16.3651,33.8443 15,33.5C 13.1999,34.3784 11.3666,35.045 9.5,35.5C 9.5,37.1667 9.5,38.8333 9.5,40.5C 8.69088,42.2922 8.19088,44.2922 8,46.5C 7.50258,43.854 7.33591,41.1873 7.5,38.5C 4.83333,38.5 2.16667,38.5 -0.5,38.5C -0.5,38.1667 -0.5,37.8333 -0.5,37.5C 0.773429,33.3491 2.4401,29.3491 4.5,25.5C 4.36899,26.2389 4.53566,26.9056 5,27.5C 5.41862,26.3279 6.08529,25.3279 7,24.5C 35.1095,25.8056 62.9429,25.8056 90.5,24.5 Z"/></g>
<g><path style="opacity:1" fill="#b40c27" d="M 57.5,37.5 C 50.6457,37.824 43.979,37.4907 37.5,36.5C 40.3614,34.9272 43.5281,34.2605 47,34.5C 49.5,34.6667 52,34.8333 54.5,35C 55.9423,35.3768 56.9423,36.2101 57.5,37.5 Z"/></g>
<g><path style="opacity:1" fill="#b50b27" d="M 85.5,37.5 C 78.9779,37.8235 72.6446,37.4902 66.5,36.5C 66.9175,35.7784 67.5842,35.2784 68.5,35C 73.5,34.3333 78.5,34.3333 83.5,35C 84.3805,35.7083 85.0472,36.5416 85.5,37.5 Z"/></g>
<g><path style="opacity:1" fill="#de93a4" d="M 37.5,36.5 C 43.979,37.4907 50.6457,37.824 57.5,37.5C 58.1667,37.5 58.5,37.8333 58.5,38.5C 51.1667,38.5 43.8333,38.5 36.5,38.5C 36.3284,37.5084 36.6618,36.8417 37.5,36.5 Z"/></g>
<g><path style="opacity:1" fill="#dd95a6" d="M 66.5,36.5 C 72.6446,37.4902 78.9779,37.8235 85.5,37.5C 86.1667,37.5 86.5,37.8333 86.5,38.5C 79.5,38.5 72.5,38.5 65.5,38.5C 65.3284,37.5084 65.6618,36.8417 66.5,36.5 Z"/></g>
<g><path style="opacity:1" fill="#12225f" d="M 18.5,55.5 C 19.3201,59.2399 17.9868,61.5733 14.5,62.5C 12.8472,61.8127 11.1806,61.146 9.5,60.5C 9.5,58.8333 9.5,57.1667 9.5,55.5C 13.5,54.8333 13.5,54.1667 9.5,53.5C 9.33982,51.8008 9.50649,50.1341 10,48.5C 10.9138,49.6537 11.7471,49.487 12.5,48C 10.3234,46.8139 9.32345,44.9806 9.5,42.5C 13.5,41.8333 13.5,41.1667 9.5,40.5C 9.5,38.8333 9.5,37.1667 9.5,35.5C 11.3666,35.045 13.1999,34.3784 15,33.5C 16.3651,33.8443 17.5318,34.5109 18.5,35.5C 21.1667,32.8333 23.8333,32.8333 26.5,35.5C 27.1667,34.8333 27.8333,34.1667 28.5,33.5C 29.4742,35.7427 29.8076,38.076 29.5,40.5C 25.4454,40.1758 21.4454,40.5091 17.5,41.5C 17.8655,42.9019 18.6988,43.9019 20,44.5C 22.2256,44.9784 24.3923,45.645 26.5,46.5C 25.1667,47.8333 25.1667,49.1667 26.5,50.5C 24.362,50.7113 22.1953,51.0446 20,51.5C 17.945,52.555 17.445,53.8883 18.5,55.5 Z"/></g>
<g><path style="opacity:1" fill="#bcbbcb" d="M 21.5,37.5 C 23.337,37.6395 23.6704,38.3061 22.5,39.5C 21.7025,39.0431 21.3691,38.3764 21.5,37.5 Z"/></g>
<g><path style="opacity:1" fill="#696c8f" d="M 14.5,36.5 C 16.0481,36.8212 16.7148,37.8212 16.5,39.5C 13.7524,39.5983 13.0857,38.5983 14.5,36.5 Z"/></g>
<g><path style="opacity:1" fill="#c0d7f2" d="M 95.5,42.5 C 95.5,47.8333 95.5,53.1667 95.5,58.5C 93.5753,65.0161 90.5753,71.0161 86.5,76.5C 86.0527,74.0268 85.0527,73.8601 83.5,76C 59.5,76.3333 35.5,76.6667 11.5,77C 10.944,77.3826 10.6107,77.8826 10.5,78.5C 4.98382,72.4676 1.31716,65.4676 -0.5,57.5C -0.5,51.1667 -0.5,44.8333 -0.5,38.5C 2.16667,38.5 4.83333,38.5 7.5,38.5C 7.33591,41.1873 7.50258,43.854 8,46.5C 8.19088,44.2922 8.69088,42.2922 9.5,40.5C 13.5,41.1667 13.5,41.8333 9.5,42.5C 9.32345,44.9806 10.3234,46.8139 12.5,48C 11.7471,49.487 10.9138,49.6537 10,48.5C 9.50649,50.1341 9.33982,51.8008 9.5,53.5C 13.5,54.1667 13.5,54.8333 9.5,55.5C 9.5,57.1667 9.5,58.8333 9.5,60.5C 11.1806,61.146 12.8472,61.8127 14.5,62.5C 17.9868,61.5733 19.3201,59.2399 18.5,55.5C 19.29,56.6085 19.79,57.9419 20,59.5C 20.4828,58.552 20.6495,57.552 20.5,56.5C 24.5,56.5 28.5,56.5 32.5,56.5C 32.5,55.1667 32.5,53.8333 32.5,52.5C 33.1667,52.5 33.5,52.8333 33.5,53.5C 34.1103,55.4341 35.1103,57.1007 36.5,58.5C 39.3874,61.0257 42.8874,62.0257 47,61.5C 49.5,61.3333 52,61.1667 54.5,61C 56.3237,60.34 57.657,59.1733 58.5,57.5C 59.6737,56.4863 60.3404,55.153 60.5,53.5C 61.3382,53.1583 61.6716,52.4916 61.5,51.5C 62.4511,50.0813 62.7845,48.4147 62.5,46.5C 63.5,46.5 64.5,46.5 65.5,46.5C 66.8993,47.8897 68.5659,48.8897 70.5,49.5C 72.8333,50.8333 75.1667,52.1667 77.5,53.5C 77.5299,54.4972 77.0299,55.1639 76,55.5C 72.3839,53.7441 68.5506,53.0775 64.5,53.5C 64.4326,54.9587 64.7659,56.2921 65.5,57.5C 67.9819,61.0094 71.4819,62.3427 76,61.5C 80.5181,62.3427 84.0181,61.0094 86.5,57.5C 87.2341,56.2921 87.5674,54.9587 87.5,53.5C 87.5674,52.0413 87.2341,50.7079 86.5,49.5C 85.089,47.461 83.089,46.461 80.5,46.5C 80.5,45.1667 79.8333,44.5 78.5,44.5C 76.9382,44.2671 75.6049,43.6005 74.5,42.5C 74.5,42.1667 74.5,41.8333 74.5,41.5C 74.7352,40.9033 75.2352,40.5699 76,40.5C 79.6161,42.2559 83.4494,42.9225 87.5,42.5C 87.5674,41.0413 87.2341,39.7079 86.5,38.5C 88.7925,38.7564 90.9592,38.4231 93,37.5C 93.0496,39.744 93.8829,41.4107 95.5,42.5 Z"/></g>
<g><path style="opacity:1" fill="#bc2a3b" d="M 58.5,57.5 C 57.657,59.1733 56.3237,60.34 54.5,61C 52,61.1667 49.5,61.3333 47,61.5C 42.8874,62.0257 39.3874,61.0257 36.5,58.5C 43.6476,57.5084 50.9809,57.175 58.5,57.5 Z"/></g>
<g><path style="opacity:1" fill="#bd2d37" d="M 65.5,57.5 C 72.5,57.5 79.5,57.5 86.5,57.5C 84.0181,61.0094 80.5181,62.3427 76,61.5C 71.4819,62.3427 67.9819,61.0094 65.5,57.5 Z"/></g>
<g><path style="opacity:1" fill="#a9a8b5" d="M 13.5,56.5 C 15.9828,56.73 16.4828,57.3966 15,58.5C 13.9701,58.1639 13.4701,57.4972 13.5,56.5 Z"/></g>
<g><path style="opacity:1" fill="#faf7f6" d="M 77.5,53.5 C 80.8333,53.5 84.1667,53.5 87.5,53.5C 87.5674,54.9587 87.2341,56.2921 86.5,57.5C 79.5,57.5 72.5,57.5 65.5,57.5C 64.7659,56.2921 64.4326,54.9587 64.5,53.5C 68.5506,53.0775 72.3839,53.7441 76,55.5C 77.0299,55.1639 77.5299,54.4972 77.5,53.5 Z"/></g>
<g><path style="opacity:1" fill="#faf5f5" d="M 33.5,53.5 C 36.8333,53.5 40.1667,53.5 43.5,53.5C 45.8333,54.8333 48.1667,54.8333 50.5,53.5C 53.8333,53.5 57.1667,53.5 60.5,53.5C 60.3404,55.153 59.6737,56.4863 58.5,57.5C 50.9809,57.175 43.6476,57.5084 36.5,58.5C 35.1103,57.1007 34.1103,55.4341 33.5,53.5 Z"/></g>
<g><path style="opacity:1" fill="#bb2c38" d="M 61.5,51.5 C 61.6716,52.4916 61.3382,53.1583 60.5,53.5C 57.1667,53.5 53.8333,53.5 50.5,53.5C 51.6313,50.6671 53.7979,49.3338 57,49.5C 58.9855,49.5687 60.4855,50.2353 61.5,51.5 Z"/></g>
<g><path style="opacity:1" fill="#bc2c34" d="M 43.5,53.5 C 40.1667,53.5 36.8333,53.5 33.5,53.5C 33.5,52.8333 33.1667,52.5 32.5,52.5C 32.5,51.5 32.5,50.5 32.5,49.5C 35.5719,49.1826 38.5719,49.5159 41.5,50.5C 42.1925,51.5178 42.8592,52.5178 43.5,53.5 Z"/></g>
<g><path style="opacity:1" fill="#bc2c39" d="M 70.5,49.5 C 75.8333,49.5 81.1667,49.5 86.5,49.5C 87.2341,50.7079 87.5674,52.0413 87.5,53.5C 84.1667,53.5 80.8333,53.5 77.5,53.5C 75.1667,52.1667 72.8333,50.8333 70.5,49.5 Z"/></g>
<g><path style="opacity:1" fill="#c3c1d0" d="M 13.5,50.5 C 15.337,50.6395 15.6704,51.3061 14.5,52.5C 13.7025,52.0431 13.3691,51.3764 13.5,50.5 Z"/></g>
<g><path style="opacity:1" fill="#a8a7be" d="M 17.5,47.5 C 19.337,47.6395 19.6704,48.3061 18.5,49.5C 17.7025,49.0431 17.3691,48.3764 17.5,47.5 Z"/></g>
<g><path style="opacity:1" fill="#fcfefe" d="M 65.5,46.5 C 70.5,46.5 75.5,46.5 80.5,46.5C 83.089,46.461 85.089,47.461 86.5,49.5C 81.1667,49.5 75.8333,49.5 70.5,49.5C 68.5659,48.8897 66.8993,47.8897 65.5,46.5 Z"/></g>
<g><path style="opacity:1" fill="#e3afb0" d="M 78.5,44.5 C 79.8333,44.5 80.5,45.1667 80.5,46.5C 75.5,46.5 70.5,46.5 65.5,46.5C 65.5,46.1667 65.5,45.8333 65.5,45.5C 70.0323,45.8182 74.3656,45.4849 78.5,44.5 Z"/></g>
<g><path style="opacity:1" fill="#cdccd5" d="M 13.5,43.5 C 15.337,43.6395 15.6704,44.3061 14.5,45.5C 13.7025,45.0431 13.3691,44.3764 13.5,43.5 Z"/></g>
<g><path style="opacity:1" fill="#b7112f" d="M 60.5,42.5 C 61.404,43.209 61.7373,44.209 61.5,45.5C 58.4816,45.6646 55.4816,45.498 52.5,45C 51.944,44.6174 51.6107,44.1174 51.5,43.5C 54.2869,42.5233 57.2869,42.19 60.5,42.5 Z"/></g>
<g><path style="opacity:1" fill="#b51327" d="M 74.5,42.5 C 75.6049,43.6005 76.9382,44.2671 78.5,44.5C 74.3656,45.4849 70.0323,45.8182 65.5,45.5C 64.596,44.791 64.2627,43.791 64.5,42.5C 67.8333,42.5 71.1667,42.5 74.5,42.5 Z"/></g>
<g><path style="opacity:1" fill="#b5152b" d="M 32.5,42.5 C 36.1817,42.3347 39.8484,42.5014 43.5,43C 42.8333,43.6667 42.1667,44.3333 41.5,45C 38.5184,45.498 35.5184,45.6646 32.5,45.5C 32.5,44.5 32.5,43.5 32.5,42.5 Z"/></g>
<g><path style="opacity:1" fill="#dd9999" d="M 50.5,41.5 C 53.8333,41.5 57.1667,41.5 60.5,41.5C 60.5,41.8333 60.5,42.1667 60.5,42.5C 57.2869,42.19 54.2869,42.5233 51.5,43.5C 50.6618,43.1583 50.3284,42.4916 50.5,41.5 Z"/></g>
<g><path style="opacity:1" fill="#fcfdfd" d="M 65.5,38.5 C 72.5,38.5 79.5,38.5 86.5,38.5C 87.2341,39.7079 87.5674,41.0413 87.5,42.5C 83.4494,42.9225 79.6161,42.2559 76,40.5C 75.2352,40.5699 74.7352,40.9033 74.5,41.5C 71.1667,41.5 67.8333,41.5 64.5,41.5C 64.2627,40.209 64.596,39.209 65.5,38.5 Z"/></g>
<g><path style="opacity:1" fill="#fefefe" d="M 36.5,38.5 C 43.8333,38.5 51.1667,38.5 58.5,38.5C 59.4013,39.2905 60.0679,40.2905 60.5,41.5C 57.1667,41.5 53.8333,41.5 50.5,41.5C 44.8236,41.6661 39.1569,41.4994 33.5,41C 34.3734,39.955 35.3734,39.1217 36.5,38.5 Z"/></g>
<g><path style="opacity:1" fill="#b8d2f1" d="M 86.5,76.5 C 80.9473,84.0625 73.9473,89.7292 65.5,93.5C 62.9327,93.7215 60.5994,94.3882 58.5,95.5C 51.1667,95.5 43.8333,95.5 36.5,95.5C 26.2364,92.3624 17.5698,86.6957 10.5,78.5C 10.6107,77.8826 10.944,77.3826 11.5,77C 35.5,76.6667 59.5,76.3333 83.5,76C 85.0527,73.8601 86.0527,74.0268 86.5,76.5 Z"/></g>
<g><path style="opacity:0.004" fill="#c8b4e7" d="M 65.5,93.5 C 66.8333,94.1667 66.8333,94.1667 65.5,93.5 Z"/></g>
</svg>
