<?xml version="1.0" encoding="UTF-8"?>
<!DOCTYPE svg PUBLIC "-//W3C//DTD SVG 1.1//EN" "http://www.w3.org/Graphics/SVG/1.1/DTD/svg11.dtd">
<svg xmlns="http://www.w3.org/2000/svg" version="1.1" width="96px" height="96px" style="shape-rendering:geometricPrecision; text-rendering:geometricPrecision; image-rendering:optimizeQuality; fill-rule:evenodd; clip-rule:evenodd" xmlns:xlink="http://www.w3.org/1999/xlink">
<g><path style="opacity:0.265" fill="#070707" d="M 62.5,8.5 C 60.4727,8.33788 58.4727,8.50454 56.5,9C 57.8333,9.33333 59.1667,9.66667 60.5,10C 54.9842,10.1733 49.6509,10.6733 44.5,11.5C 41.6146,11.1936 38.9479,11.5269 36.5,12.5C 34.7085,12.366 33.0418,12.6993 31.5,13.5C 28.7378,14.3795 26.0711,15.5462 23.5,17C 22.1772,17.8159 21.5106,18.9826 21.5,20.5C 20.375,21.3478 20.375,22.3478 21.5,23.5C 20.6993,25.0418 20.366,26.7085 20.5,28.5C 22.4832,28.1568 23.8166,28.8235 24.5,30.5C 24.0276,32.5313 23.0276,34.1979 21.5,35.5C 19.9642,33.9749 18.9642,31.9749 18.5,29.5C 17.8165,29.1373 17.1499,28.8039 16.5,28.5C 16.5,28.1667 16.5,27.8333 16.5,27.5C 17.3382,27.1583 17.6716,26.4916 17.5,25.5C 17.9528,24.5416 18.6195,23.7083 19.5,23C 18.9056,22.5357 18.2389,22.369 17.5,22.5C 16.1667,21.1667 16.1667,19.8333 17.5,18.5C 19.7626,15.6909 22.7626,13.8576 26.5,13C 25.9056,12.5357 25.2389,12.369 24.5,12.5C 25.347,11.0337 26.6803,10.2004 28.5,10C 38.6533,7.10575 48.9866,6.10575 59.5,7C 60.7375,7.23209 61.7375,7.73209 62.5,8.5 Z"/></g>
<g><path style="opacity:0.902" fill="#626262" d="M 62.5,8.5 C 67.0916,8.39798 71.425,9.39798 75.5,11.5C 77.9845,13.3692 77.9845,15.0359 75.5,16.5C 75.6716,15.5084 75.3382,14.8417 74.5,14.5C 74.5,13.8333 74.1667,13.5 73.5,13.5C 73.5,12.8333 73.1667,12.5 72.5,12.5C 68.8151,10.7082 65.1485,10.3748 61.5,11.5C 55.8333,11.5 50.1667,11.5 44.5,11.5C 49.6509,10.6733 54.9842,10.1733 60.5,10C 59.1667,9.66667 57.8333,9.33333 56.5,9C 58.4727,8.50454 60.4727,8.33788 62.5,8.5 Z"/></g>
<g><path style="opacity:0.277" fill="#0b0b0b" d="M 61.5,11.5 C 65.1485,10.3748 68.8151,10.7082 72.5,12.5C 73.1667,12.5 73.5,12.8333 73.5,13.5C 74.1667,13.5 74.5,13.8333 74.5,14.5C 75.3382,14.8417 75.6716,15.5084 75.5,16.5C 76.4427,18.0012 76.1094,19.3346 74.5,20.5C 72.8037,18.7319 71.4704,16.5652 70.5,14C 67.9196,12.8555 65.2529,12.0222 62.5,11.5C 62.1667,11.5 61.8333,11.5 61.5,11.5 Z"/></g>
<g><path style="opacity:1" fill="#a0a0a0" d="M 36.5,12.5 C 38.9479,11.5269 41.6146,11.1936 44.5,11.5C 50.1667,11.5 55.8333,11.5 61.5,11.5C 61.8333,11.5 62.1667,11.5 62.5,11.5C 63.7298,13.2972 64.3964,15.2972 64.5,17.5C 62.8008,17.3398 61.1341,17.5065 59.5,18C 60.7375,18.2321 61.7375,18.7321 62.5,19.5C 56.1903,18.8459 49.857,18.3459 43.5,18C 45.5254,16.806 45.8587,15.306 44.5,13.5C 41.9135,12.52 39.2469,12.1866 36.5,12.5 Z"/></g>
<g><path style="opacity:1" fill="#d0d0d0" d="M 36.5,12.5 C 39.2469,12.1866 41.9135,12.52 44.5,13.5C 45.8587,15.306 45.5254,16.806 43.5,18C 49.857,18.3459 56.1903,18.8459 62.5,19.5C 63.5,19.8333 64.1667,20.5 64.5,21.5C 64.5654,21.9382 64.3988,22.2716 64,22.5C 57.0975,20.0721 50.2642,20.0721 43.5,22.5C 40.1966,23.1651 36.8632,23.8318 33.5,24.5C 33.5374,22.6778 33.204,20.6778 32.5,18.5C 31.209,18.7373 30.209,18.404 29.5,17.5C 31.1765,16.8166 31.8432,15.4832 31.5,13.5C 33.0418,12.6993 34.7085,12.366 36.5,12.5 Z"/></g>
<g><path style="opacity:0.784" fill="#6a6a6a" d="M 24.5,12.5 C 25.2389,12.369 25.9056,12.5357 26.5,13C 22.7626,13.8576 19.7626,15.6909 17.5,18.5C 16.2089,17.4583 16.2089,16.2917 17.5,15C 19.6504,13.5886 21.9837,12.7553 24.5,12.5 Z"/></g>
<g><path style="opacity:1" fill="#a1a1a1" d="M 31.5,13.5 C 31.8432,15.4832 31.1765,16.8166 29.5,17.5C 26.8333,18.5 24.1667,19.5 21.5,20.5C 21.5106,18.9826 22.1772,17.8159 23.5,17C 26.0711,15.5462 28.7378,14.3795 31.5,13.5 Z"/></g>
<g><path style="opacity:1" fill="#7b7b7b" d="M 62.5,11.5 C 65.2529,12.0222 67.9196,12.8555 70.5,14C 71.4704,16.5652 72.8037,18.7319 74.5,20.5C 74.5,20.8333 74.5,21.1667 74.5,21.5C 74.2252,23.8418 73.3919,23.8418 72,21.5C 71.8333,21.8333 71.6667,22.1667 71.5,22.5C 73.6152,24.6152 73.9485,26.9486 72.5,29.5C 71.8501,29.8039 71.1835,30.1373 70.5,30.5C 67.6894,29.9204 65.0227,29.2537 62.5,28.5C 66.2253,28.2204 67.392,26.2204 66,22.5C 65.6174,21.944 65.1174,21.6107 64.5,21.5C 64.1667,20.5 63.5,19.8333 62.5,19.5C 61.7375,18.7321 60.7375,18.2321 59.5,18C 61.1341,17.5065 62.8008,17.3398 64.5,17.5C 64.3964,15.2972 63.7298,13.2972 62.5,11.5 Z"/></g>
<g><path style="opacity:1" fill="#cdcdcd" d="M 29.5,17.5 C 30.209,18.404 31.209,18.7373 32.5,18.5C 33.204,20.6778 33.5374,22.6778 33.5,24.5C 36.8632,23.8318 40.1966,23.1651 43.5,22.5C 47.3123,23.3238 51.3123,23.8238 55.5,24C 52.0199,24.3012 48.6866,25.1345 45.5,26.5C 45.7093,27.086 46.0426,27.586 46.5,28C 44.9419,28.21 43.6085,28.71 42.5,29.5C 39.203,30.8547 38.8696,30.3547 41.5,28C 38.6906,27.8201 36.0239,28.4868 33.5,30C 34.2524,30.6708 34.5858,31.5041 34.5,32.5C 33.234,31.9101 31.9007,31.4101 30.5,31C 31.9561,30.5774 32.4561,29.7441 32,28.5C 29.6667,29.8333 27.3333,31.1667 25,32.5C 24.5357,31.9056 24.369,31.2389 24.5,30.5C 26.7005,28.3596 29.3672,26.8596 32.5,26C 31.9389,24.324 30.9389,22.9906 29.5,22C 31.9183,19.6902 31.2517,19.0236 27.5,20C 25.6125,21.3937 23.6125,22.5604 21.5,23.5C 20.375,22.3478 20.375,21.3478 21.5,20.5C 24.1667,19.5 26.8333,18.5 29.5,17.5 Z"/></g>
<g><path style="opacity:1" fill="#9e9e9e" d="M 64.5,21.5 C 65.1174,21.6107 65.6174,21.944 66,22.5C 67.392,26.2204 66.2253,28.2204 62.5,28.5C 59.2463,27.5207 55.913,26.8541 52.5,26.5C 50.6672,26.5854 49.3339,27.2521 48.5,28.5C 47.7095,29.4013 46.7095,30.0679 45.5,30.5C 44.609,29.8902 43.609,29.5569 42.5,29.5C 43.6085,28.71 44.9419,28.21 46.5,28C 46.0426,27.586 45.7093,27.086 45.5,26.5C 48.6866,25.1345 52.0199,24.3012 55.5,24C 51.3123,23.8238 47.3123,23.3238 43.5,22.5C 50.2642,20.0721 57.0975,20.0721 64,22.5C 64.3988,22.2716 64.5654,21.9382 64.5,21.5 Z"/></g>
<g><path style="opacity:0.357" fill="#636363" d="M 17.5,22.5 C 18.2389,22.369 18.9056,22.5357 19.5,23C 18.6195,23.7083 17.9528,24.5416 17.5,25.5C 16.6618,25.8417 16.3284,26.5084 16.5,27.5C 16.5,27.8333 16.5,28.1667 16.5,28.5C 12.7076,26.2448 13.041,24.2448 17.5,22.5 Z"/></g>
<g><path style="opacity:1" fill="#9f9f9f" d="M 24.5,30.5 C 23.8166,28.8235 22.4832,28.1568 20.5,28.5C 20.366,26.7085 20.6993,25.0418 21.5,23.5C 23.6125,22.5604 25.6125,21.3937 27.5,20C 31.2517,19.0236 31.9183,19.6902 29.5,22C 30.9389,22.9906 31.9389,24.324 32.5,26C 29.3672,26.8596 26.7005,28.3596 24.5,30.5 Z"/></g>
<g><path style="opacity:0.122" fill="#0b0b0b" d="M 74.5,21.5 C 77.1517,24.4564 77.1517,27.4564 74.5,30.5C 73.5084,30.6716 72.8417,30.3382 72.5,29.5C 73.9485,26.9486 73.6152,24.6152 71.5,22.5C 71.6667,22.1667 71.8333,21.8333 72,21.5C 73.3919,23.8418 74.2252,23.8418 74.5,21.5 Z"/></g>
<g><path style="opacity:1" fill="#9e9e9e" d="M 48.5,28.5 C 54.8147,27.871 60.6481,29.2043 66,32.5C 66.4828,33.448 66.6495,34.448 66.5,35.5C 61.8602,34.6027 57.1935,34.4361 52.5,35C 56.1914,35.4196 59.8581,35.9196 63.5,36.5C 63.5,37.8333 63.5,39.1667 63.5,40.5C 62.5,40.5 61.5,40.5 60.5,40.5C 59.8333,40.5 59.1667,40.5 58.5,40.5C 54.03,39.5139 49.3633,39.1805 44.5,39.5C 50.3193,38.6724 56.3193,38.1724 62.5,38C 56.1815,36.9346 49.8482,35.9346 43.5,35C 45.0368,33.8904 45.7035,32.3904 45.5,30.5C 46.7095,30.0679 47.7095,29.4013 48.5,28.5 Z"/></g>
<g><path style="opacity:1" fill="#989898" d="M 34.5,32.5 C 35.0431,32.56 35.3764,32.8933 35.5,33.5C 32.5833,36.2676 33.25,37.7676 37.5,38C 35.2156,39.2617 32.8823,40.4283 30.5,41.5C 29.1667,41.5 27.8333,41.5 26.5,41.5C 26.4208,40.0695 26.7542,38.7362 27.5,37.5C 25.7015,36.2121 24.0348,36.2121 22.5,37.5C 22.5,38.1667 22.8333,38.5 23.5,38.5C 24.5063,38.9377 24.5063,39.6043 23.5,40.5C 20.4969,39.83 19.8303,38.1633 21.5,35.5C 23.0276,34.1979 24.0276,32.5313 24.5,30.5C 24.369,31.2389 24.5357,31.9056 25,32.5C 27.3333,31.1667 29.6667,29.8333 32,28.5C 32.4561,29.7441 31.9561,30.5774 30.5,31C 31.9007,31.4101 33.234,31.9101 34.5,32.5 Z"/></g>
<g><path style="opacity:1" fill="#d2d2d2" d="M 42.5,29.5 C 43.609,29.5569 44.609,29.8902 45.5,30.5C 45.7035,32.3904 45.0368,33.8904 43.5,35C 49.8482,35.9346 56.1815,36.9346 62.5,38C 56.3193,38.1724 50.3193,38.6724 44.5,39.5C 43.9569,39.56 43.6236,39.8933 43.5,40.5C 47.6521,43.8411 47.3188,46.1745 42.5,47.5C 41.5,47.5 40.5,47.5 39.5,47.5C 39.5,46.5 39.5,45.5 39.5,44.5C 37.857,44.5198 36.5237,43.8532 35.5,42.5C 33.9246,43.4565 32.258,44.1231 30.5,44.5C 30.5,43.5 30.5,42.5 30.5,41.5C 32.8823,40.4283 35.2156,39.2617 37.5,38C 33.25,37.7676 32.5833,36.2676 35.5,33.5C 35.3764,32.8933 35.0431,32.56 34.5,32.5C 34.5858,31.5041 34.2524,30.6708 33.5,30C 36.0239,28.4868 38.6906,27.8201 41.5,28C 38.8696,30.3547 39.203,30.8547 42.5,29.5 Z"/></g>
<g><path style="opacity:0.049" fill="#0a0a0a" d="M 73.5,35.5 C 73.6495,36.552 73.4828,37.552 73,38.5C 72.0228,37.2264 71.1894,37.2264 70.5,38.5C 69.7611,38.631 69.0944,38.4643 68.5,38C 69.9101,36.6283 71.5767,35.795 73.5,35.5 Z"/></g>
<g><path style="opacity:0.166" fill="#0b0b0b" d="M 22.5,37.5 C 24.0348,36.2121 25.7015,36.2121 27.5,37.5C 26.7542,38.7362 26.4208,40.0695 26.5,41.5C 27.2625,42.2679 28.2625,42.7679 29.5,43C 28.9558,43.7172 28.2891,44.2172 27.5,44.5C 26.4324,43.5655 25.099,43.2322 23.5,43.5C 23.5,42.5 23.5,41.5 23.5,40.5C 24.5063,39.6043 24.5063,38.9377 23.5,38.5C 22.8333,38.5 22.5,38.1667 22.5,37.5 Z"/></g>
<g><path style="opacity:0.992" fill="#757575" d="M 62.5,28.5 C 65.0227,29.2537 67.6894,29.9204 70.5,30.5C 71.1835,30.1373 71.8501,29.8039 72.5,29.5C 72.8417,30.3382 73.5084,30.6716 74.5,30.5C 75.2891,30.7828 75.9558,31.2828 76.5,32C 75.2899,33.0391 74.2899,34.2058 73.5,35.5C 71.5767,35.795 69.9101,36.6283 68.5,38C 69.0944,38.4643 69.7611,38.631 70.5,38.5C 73.2178,40.4226 72.8845,41.756 69.5,42.5C 69.0582,41.7688 68.8915,40.7688 69,39.5C 68.0656,40.8584 67.2323,42.1917 66.5,43.5C 64.6391,42.1581 62.6391,41.1581 60.5,40.5C 61.5,40.5 62.5,40.5 63.5,40.5C 63.5,39.1667 63.5,37.8333 63.5,36.5C 59.8581,35.9196 56.1914,35.4196 52.5,35C 57.1935,34.4361 61.8602,34.6027 66.5,35.5C 66.6495,34.448 66.4828,33.448 66,32.5C 60.6481,29.2043 54.8147,27.871 48.5,28.5C 49.3339,27.2521 50.6672,26.5854 52.5,26.5C 55.913,26.8541 59.2463,27.5207 62.5,28.5 Z"/></g>
<g><path style="opacity:1" fill="#979797" d="M 44.5,39.5 C 49.3633,39.1805 54.03,39.5139 58.5,40.5C 55.4816,40.3354 52.4816,40.502 49.5,41C 53.6563,41.1845 57.6563,42.0179 61.5,43.5C 56.7924,44.1843 52.1258,45.0177 47.5,46C 51.0252,46.1787 54.3586,46.6787 57.5,47.5C 57.5,48.8333 57.5,50.1667 57.5,51.5C 55.0971,51.448 52.7638,51.7814 50.5,52.5C 48.0182,50.9606 48.0182,49.4606 50.5,48C 47.7795,47.3985 45.1128,47.5651 42.5,48.5C 42.5,48.1667 42.5,47.8333 42.5,47.5C 47.3188,46.1745 47.6521,43.8411 43.5,40.5C 43.6236,39.8933 43.9569,39.56 44.5,39.5 Z"/></g>
<g><path style="opacity:1" fill="#6d6d6d" d="M 58.5,40.5 C 59.1667,40.5 59.8333,40.5 60.5,40.5C 62.6391,41.1581 64.6391,42.1581 66.5,43.5C 65.7701,44.7124 64.7701,45.7124 63.5,46.5C 63.9569,47.2975 64.6236,47.6309 65.5,47.5C 66.4972,47.4701 67.1639,47.9701 67.5,49C 67.2517,50.7491 66.2517,51.5824 64.5,51.5C 64.5,50.1667 63.8333,49.5 62.5,49.5C 61.2196,48.0687 59.5529,47.4021 57.5,47.5C 54.3586,46.6787 51.0252,46.1787 47.5,46C 52.1258,45.0177 56.7924,44.1843 61.5,43.5C 57.6563,42.0179 53.6563,41.1845 49.5,41C 52.4816,40.502 55.4816,40.3354 58.5,40.5 Z"/></g>
<g><path style="opacity:0.094" fill="#0b0b0b" d="M 69.5,42.5 C 69.5922,45.4 68.2589,47.0667 65.5,47.5C 64.6236,47.6309 63.9569,47.2975 63.5,46.5C 64.7701,45.7124 65.7701,44.7124 66.5,43.5C 67.2323,42.1917 68.0656,40.8584 69,39.5C 68.8915,40.7688 69.0582,41.7688 69.5,42.5 Z"/></g>
<g><path style="opacity:0.155" fill="#0f0f0f" d="M 27.5,46.5 C 28.209,45.596 29.209,45.2627 30.5,45.5C 32.2296,48.1522 34.2296,50.4855 36.5,52.5C 35.5,52.5 34.5,52.5 33.5,52.5C 31.5,51.5 29.5,50.5 27.5,49.5C 27.8333,48.8333 28.1667,48.1667 28.5,47.5C 28.5,46.8333 28.1667,46.5 27.5,46.5 Z"/></g>
<g><path style="opacity:0.394" fill="#6c6c6c" d="M 26.5,41.5 C 27.8333,41.5 29.1667,41.5 30.5,41.5C 30.5,42.5 30.5,43.5 30.5,44.5C 30.5,44.8333 30.5,45.1667 30.5,45.5C 29.209,45.2627 28.209,45.596 27.5,46.5C 28.1667,46.5 28.5,46.8333 28.5,47.5C 28.1667,48.1667 27.8333,48.8333 27.5,49.5C 24.8333,47.8333 24.8333,46.1667 27.5,44.5C 28.2891,44.2172 28.9558,43.7172 29.5,43C 28.2625,42.7679 27.2625,42.2679 26.5,41.5 Z"/></g>
<g><path style="opacity:1" fill="#909090" d="M 42.5,47.5 C 42.5,47.8333 42.5,48.1667 42.5,48.5C 41.5222,48.811 40.8555,49.4777 40.5,50.5C 41.9328,52.1221 43.5995,53.4554 45.5,54.5C 44.2108,57.1506 44.7108,59.4839 47,61.5C 48.4902,62.7279 49.9902,62.7279 51.5,61.5C 51.8333,61.5 52.1667,61.5 52.5,61.5C 52.3893,62.1174 52.056,62.6174 51.5,63C 52.6148,65.1313 53.9481,66.9646 55.5,68.5C 55.3284,67.5084 55.6618,66.8417 56.5,66.5C 58.3208,67.1174 60.3208,67.284 62.5,67C 63.5361,68.7755 63.5361,70.6089 62.5,72.5C 61.5,72.5 60.5,72.5 59.5,72.5C 59.8652,75.0787 59.8652,77.412 59.5,79.5C 58.9416,77.1766 58.2749,74.8432 57.5,72.5C 56.8933,72.6236 56.56,72.9569 56.5,73.5C 55.1667,73.8333 55.1667,74.1667 56.5,74.5C 56.5,75.1667 56.5,75.8333 56.5,76.5C 54.5,76.5 53.5,75.5 53.5,73.5C 54.0431,73.44 54.3764,73.1067 54.5,72.5C 52.585,70.9288 51.585,68.9288 51.5,66.5C 50.325,66.281 49.325,66.6143 48.5,67.5C 49.1272,68.4168 49.4606,69.4168 49.5,70.5C 47.9731,70.573 46.9731,69.9063 46.5,68.5C 46.4142,67.5041 46.7476,66.6708 47.5,66C 44.7044,64.5814 42.7044,62.4147 41.5,59.5C 40.5748,60.3569 39.9081,61.3569 39.5,62.5C 37.3796,61.5967 37.0462,60.2633 38.5,58.5C 39.675,58.719 40.675,58.3857 41.5,57.5C 39.4565,56.9348 37.7898,55.9348 36.5,54.5C 36.5,53.8333 36.5,53.1667 36.5,52.5C 34.2296,50.4855 32.2296,48.1522 30.5,45.5C 30.5,45.1667 30.5,44.8333 30.5,44.5C 32.258,44.1231 33.9246,43.4565 35.5,42.5C 36.5237,43.8532 37.857,44.5198 39.5,44.5C 39.5,45.5 39.5,46.5 39.5,47.5C 40.5,47.5 41.5,47.5 42.5,47.5 Z"/></g>
<g><path style="opacity:1" fill="#d4d4d4" d="M 50.5,52.5 C 50.1667,53.5 49.5,54.1667 48.5,54.5C 47.7109,54.7828 47.0442,55.2828 46.5,56C 49.9008,55.734 51.5674,57.234 51.5,60.5C 51.5,60.8333 51.5,61.1667 51.5,61.5C 49.9902,62.7279 48.4902,62.7279 47,61.5C 44.7108,59.4839 44.2108,57.1506 45.5,54.5C 43.5995,53.4554 41.9328,52.1221 40.5,50.5C 40.8555,49.4777 41.5222,48.811 42.5,48.5C 45.1128,47.5651 47.7795,47.3985 50.5,48C 48.0182,49.4606 48.0182,50.9606 50.5,52.5 Z"/></g>
<g><path style="opacity:0.624" fill="#3d3d3d" d="M 62.5,49.5 C 63.8333,49.5 64.5,50.1667 64.5,51.5C 63.6676,52.3285 64.001,53.1618 65.5,54C 64.9341,54.9947 64.2674,55.828 63.5,56.5C 62.8333,56.5 62.1667,56.5 61.5,56.5C 60.8592,55.5178 60.1925,54.5178 59.5,53.5C 60.5244,52.1482 61.5244,50.8149 62.5,49.5 Z"/></g>
<g><path style="opacity:0.418" fill="#696969" d="M 33.5,52.5 C 34.5,52.5 35.5,52.5 36.5,52.5C 36.5,53.1667 36.5,53.8333 36.5,54.5C 35.5,55.1667 34.5,55.8333 33.5,56.5C 32.3143,55.2946 32.3143,53.9613 33.5,52.5 Z"/></g>
<g><path style="opacity:0.094" fill="#121212" d="M 36.5,54.5 C 37.7898,55.9348 39.4565,56.9348 41.5,57.5C 40.675,58.3857 39.675,58.719 38.5,58.5C 36.302,58.8799 34.6354,58.2132 33.5,56.5C 34.5,55.8333 35.5,55.1667 36.5,54.5 Z"/></g>
<g><path style="opacity:1" fill="#9a9a9a" d="M 48.5,54.5 C 50.9339,54.6478 53.6005,54.8144 56.5,55C 57.1667,55.6667 57.8333,56.3333 58.5,57C 56.0706,58.0195 53.7373,59.1862 51.5,60.5C 51.5674,57.234 49.9008,55.734 46.5,56C 47.0442,55.2828 47.7109,54.7828 48.5,54.5 Z"/></g>
<g><path style="opacity:0.119" fill="#111111" d="M 61.5,56.5 C 62.1667,56.5 62.8333,56.5 63.5,56.5C 64.0475,58.4847 65.0475,60.1514 66.5,61.5C 63.9412,61.6104 61.6079,60.9438 59.5,59.5C 60.1925,58.4822 60.8592,57.4822 61.5,56.5 Z"/></g>
<g><path style="opacity:0.13" fill="#0c0c0c" d="M 46.5,68.5 C 43.5268,67.1897 41.1935,65.1897 39.5,62.5C 39.9081,61.3569 40.5748,60.3569 41.5,59.5C 42.7044,62.4147 44.7044,64.5814 47.5,66C 46.7476,66.6708 46.4142,67.5041 46.5,68.5 Z"/></g>
<g><path style="opacity:1" fill="#828282" d="M 57.5,47.5 C 59.5529,47.4021 61.2196,48.0687 62.5,49.5C 61.5244,50.8149 60.5244,52.1482 59.5,53.5C 60.1925,54.5178 60.8592,55.5178 61.5,56.5C 60.8592,57.4822 60.1925,58.4822 59.5,59.5C 61.6079,60.9438 63.9412,61.6104 66.5,61.5C 67.8333,62.5 67.8333,63.5 66.5,64.5C 65.7784,64.0825 65.2784,63.4158 65,62.5C 63.0435,66.7376 64.5435,68.7376 69.5,68.5C 70.8146,69.8946 70.4812,70.8946 68.5,71.5C 67.7784,71.0825 67.2784,70.4158 67,69.5C 66.5022,71.5269 66.6689,73.5269 67.5,75.5C 65.6274,78.004 64.2941,80.8373 63.5,84C 64.0442,84.7172 64.7109,85.2172 65.5,85.5C 65.6716,86.4916 65.3382,87.1583 64.5,87.5C 62.6214,87.6068 62.2881,87.1068 63.5,86C 62.3181,84.2317 60.9848,84.0651 59.5,85.5C 58.9094,84.8485 58.2427,84.1818 57.5,83.5C 59.1667,82.1667 60.8333,80.8333 62.5,79.5C 61.1783,77.1354 61.1783,74.8021 62.5,72.5C 63.5361,70.6089 63.5361,68.7755 62.5,67C 60.3208,67.284 58.3208,67.1174 56.5,66.5C 56.6308,63.6333 55.2974,61.9666 52.5,61.5C 52.1667,61.5 51.8333,61.5 51.5,61.5C 51.5,61.1667 51.5,60.8333 51.5,60.5C 53.7373,59.1862 56.0706,58.0195 58.5,57C 57.8333,56.3333 57.1667,55.6667 56.5,55C 53.6005,54.8144 50.9339,54.6478 48.5,54.5C 49.5,54.1667 50.1667,53.5 50.5,52.5C 52.7638,51.7814 55.0971,51.448 57.5,51.5C 57.5,50.1667 57.5,48.8333 57.5,47.5 Z"/></g>
<g><path style="opacity:1" fill="#d3d3d3" d="M 52.5,61.5 C 55.2974,61.9666 56.6308,63.6333 56.5,66.5C 55.6618,66.8417 55.3284,67.5084 55.5,68.5C 53.9481,66.9646 52.6148,65.1313 51.5,63C 52.056,62.6174 52.3893,62.1174 52.5,61.5 Z"/></g>
<g><path style="opacity:0.141" fill="#1a1a1a" d="M 66.5,64.5 C 67.5981,65.397 67.5981,66.2303 66.5,67C 67.7375,67.2321 68.7375,67.7321 69.5,68.5C 64.5435,68.7376 63.0435,66.7376 65,62.5C 65.2784,63.4158 65.7784,64.0825 66.5,64.5 Z"/></g>
<g><path style="opacity:0.127" fill="#0d0d0d" d="M 53.5,73.5 C 52.5,73.5 51.5,73.5 50.5,73.5C 50.7373,72.209 50.404,71.209 49.5,70.5C 49.4606,69.4168 49.1272,68.4168 48.5,67.5C 49.325,66.6143 50.325,66.281 51.5,66.5C 51.585,68.9288 52.585,70.9288 54.5,72.5C 54.3764,73.1067 54.0431,73.44 53.5,73.5 Z"/></g>
<g><path style="opacity:1" fill="#d4d4d4" d="M 55.5,68.5 C 57.6957,68.5652 59.6957,69.2319 61.5,70.5C 58.707,71.9725 56.707,71.3058 55.5,68.5 Z"/></g>
<g><path style="opacity:0.135" fill="#0f0f0f" d="M 68.5,71.5 C 70.0433,72.5598 71.0433,74.0598 71.5,76C 69.8282,79.5421 67.8282,82.7088 65.5,85.5C 64.7109,85.2172 64.0442,84.7172 63.5,84C 64.2941,80.8373 65.6274,78.004 67.5,75.5C 66.6689,73.5269 66.5022,71.5269 67,69.5C 67.2784,70.4158 67.7784,71.0825 68.5,71.5 Z"/></g>
<g><path style="opacity:0.31" fill="#2e2e2e" d="M 59.5,79.5 C 56.5849,80.4243 54.2515,82.091 52.5,84.5C 52.5,84.1667 52.5,83.8333 52.5,83.5C 52.5989,80.4143 53.9322,78.081 56.5,76.5C 56.5,75.8333 56.5,75.1667 56.5,74.5C 56.5,74.1667 56.5,73.8333 56.5,73.5C 56.56,72.9569 56.8933,72.6236 57.5,72.5C 58.2749,74.8432 58.9416,77.1766 59.5,79.5 Z"/></g>
<g><path style="opacity:0.31" fill="#727272" d="M 52.5,83.5 C 52.5,83.8333 52.5,84.1667 52.5,84.5C 51.5,84.8333 50.8333,85.5 50.5,86.5C 49.596,85.791 49.2627,84.791 49.5,83.5C 50.5,83.5 51.5,83.5 52.5,83.5 Z"/></g>
<g><path style="opacity:1" fill="#b3b3b3" d="M 62.5,72.5 C 61.1783,74.8021 61.1783,77.1354 62.5,79.5C 60.8333,80.8333 59.1667,82.1667 57.5,83.5C 58.2427,84.1818 58.9094,84.8485 59.5,85.5C 59.5,85.8333 59.5,86.1667 59.5,86.5C 58.0992,86.9709 56.7658,87.6376 55.5,88.5C 54.7222,90.3835 54.3889,92.0502 54.5,93.5C 53.8007,91.444 52.8007,89.444 51.5,87.5C 52.1272,86.5832 52.4606,85.5832 52.5,84.5C 54.2515,82.091 56.5849,80.4243 59.5,79.5C 59.8652,77.412 59.8652,75.0787 59.5,72.5C 60.5,72.5 61.5,72.5 62.5,72.5 Z"/></g>
<g><path style="opacity:0.294" fill="#171717" d="M 64.5,87.5 C 63.5,88.1667 62.5,88.8333 61.5,89.5C 60.0937,89.0269 59.427,88.0269 59.5,86.5C 59.5,86.1667 59.5,85.8333 59.5,85.5C 60.9848,84.0651 62.3181,84.2317 63.5,86C 62.2881,87.1068 62.6214,87.6068 64.5,87.5 Z"/></g>
<g><path style="opacity:0.1" fill="#101010" d="M 52.5,84.5 C 52.4606,85.5832 52.1272,86.5832 51.5,87.5C 52.8007,89.444 53.8007,91.444 54.5,93.5C 54.56,94.0431 54.8933,94.3764 55.5,94.5C 56.0653,92.4904 57.0653,90.8237 58.5,89.5C 58.7871,90.2003 59.1205,90.8669 59.5,91.5C 58.7659,92.7079 58.4326,94.0413 58.5,95.5C 56.1667,95.5 53.8333,95.5 51.5,95.5C 49.6841,92.6012 49.3507,89.6012 50.5,86.5C 50.8333,85.5 51.5,84.8333 52.5,84.5 Z"/></g>
<g><path style="opacity:1" fill="#737373" d="M 59.5,86.5 C 59.427,88.0269 60.0937,89.0269 61.5,89.5C 61.5,90.8333 60.8333,91.5 59.5,91.5C 59.1205,90.8669 58.7871,90.2003 58.5,89.5C 57.0653,90.8237 56.0653,92.4904 55.5,94.5C 54.8933,94.3764 54.56,94.0431 54.5,93.5C 54.3889,92.0502 54.7222,90.3835 55.5,88.5C 56.7658,87.6376 58.0992,86.9709 59.5,86.5 Z"/></g>
</svg>
