<?xml version="1.0" encoding="UTF-8"?>
<!DOCTYPE svg PUBLIC "-//W3C//DTD SVG 1.1//EN" "http://www.w3.org/Graphics/SVG/1.1/DTD/svg11.dtd">
<svg xmlns="http://www.w3.org/2000/svg" version="1.1" width="96px" height="138px" style="shape-rendering:geometricPrecision; text-rendering:geometricPrecision; image-rendering:optimizeQuality; fill-rule:evenodd; clip-rule:evenodd" xmlns:xlink="http://www.w3.org/1999/xlink">
<g><path style="opacity:1" fill="#6b6b63" d="M 40.5,-0.5 C 48.5,-0.5 56.5,-0.5 64.5,-0.5C 69.8637,1.45531 75.1971,3.95531 80.5,7C 88.7814,14.9832 93.1147,24.8165 93.5,36.5C 93.9477,59.2189 93.4477,81.8856 92,104.5C 93.0391,105.71 94.2058,106.71 95.5,107.5C 95.5,108.167 95.5,108.833 95.5,109.5C 93.245,108.352 91.4117,106.686 90,104.5C 89.0768,93.0766 89.5768,81.7432 91.5,70.5C 90.778,56.5101 90.278,42.5101 90,28.5C 88.9051,17.1454 83.0717,9.31205 72.5,5C 54.7785,-1.02497 38.1119,0.975034 22.5,11C 18.744,15.2378 15.9106,20.0711 14,25.5C 12.8974,38.4742 12.2307,51.4742 12,64.5C 11.6667,65.8333 11.3333,67.1667 11,68.5C 10.7216,67.5842 10.2216,66.9175 9.5,66.5C 10.7646,57.6237 10.7646,48.7904 9.5,40C 9.5471,27.2941 14.2138,16.6274 23.5,8C 29.0825,4.54189 34.7492,1.70856 40.5,-0.5 Z"/></g>
<g><path style="opacity:0.646" fill="#41423f" d="M 9.5,70.5 C 10.4849,74.6344 10.8182,78.9677 10.5,83.5C 9.83333,82.8333 9.16667,82.1667 8.5,81.5C 8.88396,78.0853 9.2173,74.4186 9.5,70.5 Z"/></g>
<g><path style="opacity:1" fill="#ced2ac" d="M 95.5,109.5 C 95.5,114.833 95.5,120.167 95.5,125.5C 90.6947,128.071 86.0281,130.904 81.5,134C 79.2318,135.552 76.7318,136.385 74,136.5C 49.851,134.553 25.6844,132.886 1.5,131.5C 1.33385,125.491 1.50051,119.491 2,113.5C 4.66667,111.5 7.33333,109.5 10,107.5C 10.4997,99.5069 10.6664,91.5069 10.5,83.5C 10.8182,78.9677 10.4849,74.6344 9.5,70.5C 9.5,69.1667 9.5,67.8333 9.5,66.5C 10.2216,66.9175 10.7216,67.5842 11,68.5C 11.3333,67.1667 11.6667,65.8333 12,64.5C 12.2307,51.4742 12.8974,38.4742 14,25.5C 15.9106,20.0711 18.744,15.2378 22.5,11C 38.1119,0.975034 54.7785,-1.02497 72.5,5C 83.0717,9.31205 88.9051,17.1454 90,28.5C 90.278,42.5101 90.778,56.5101 91.5,70.5C 89.5768,81.7432 89.0768,93.0766 90,104.5C 91.4117,106.686 93.245,108.352 95.5,109.5 Z"/></g>
<g><path style="opacity:1" fill="#2a0770" d="M 64.5,120.5 C 67.8333,120.5 71.1667,120.5 74.5,120.5C 74.5,124.833 74.5,129.167 74.5,133.5C 72.5853,133.784 70.9187,133.451 69.5,132.5C 70.8333,132.5 72.1667,132.5 73.5,132.5C 73.5,128.833 73.5,125.167 73.5,121.5C 70.2869,121.81 67.2869,121.477 64.5,120.5 Z"/></g>
<g><path style="opacity:1" fill="#2c194a" d="M 20.5,117.5 C 15.5,117.5 10.5,117.5 5.5,117.5C 5.5,119.167 5.5,120.833 5.5,122.5C 7.82051,123.625 10.1538,123.792 12.5,123C 10.4062,124.352 8.07284,124.852 5.5,124.5C 5.5,125.833 5.5,127.167 5.5,128.5C 6.5,128.5 7.5,128.5 8.5,128.5C 8.5,128.833 8.5,129.167 8.5,129.5C 7.16667,129.5 5.83333,129.5 4.5,129.5C 4.5,125.167 4.5,120.833 4.5,116.5C 10.0262,116.179 15.3595,116.512 20.5,117.5 Z"/></g>
<g><path style="opacity:1" fill="#120739" d="M 91.5,124.5 C 87.3699,127.403 83.0366,130.07 78.5,132.5C 77.7793,126.961 78.7793,121.961 81.5,117.5C 82.8333,117.167 84.1667,116.833 85.5,116.5C 86.5862,116.62 87.2528,117.287 87.5,118.5C 86.8627,119.782 86.8627,120.782 87.5,121.5C 88.9574,119.725 90.1241,117.725 91,115.5C 91.498,118.482 91.6646,121.482 91.5,124.5 Z"/></g>
<g><path style="opacity:1" fill="#4103b9" d="M 20.5,117.5 C 29.823,118.068 39.1564,118.401 48.5,118.5C 53.6979,119.259 59.0313,119.925 64.5,120.5C 67.2869,121.477 70.2869,121.81 73.5,121.5C 73.5,125.167 73.5,128.833 73.5,132.5C 72.1667,132.5 70.8333,132.5 69.5,132.5C 68.9536,130.697 68.1203,129.03 67,127.5C 66.5172,128.448 66.3505,129.448 66.5,130.5C 64.1903,131.164 61.6903,131.497 59,131.5C 42.1911,130.015 25.3577,129.015 8.5,128.5C 7.5,128.5 6.5,128.5 5.5,128.5C 5.5,127.167 5.5,125.833 5.5,124.5C 8.07284,124.852 10.4062,124.352 12.5,123C 10.1538,123.792 7.82051,123.625 5.5,122.5C 5.5,120.833 5.5,119.167 5.5,117.5C 10.5,117.5 15.5,117.5 20.5,117.5 Z"/></g>
<g><path style="opacity:1" fill="#222028" d="M 91.5,124.5 C 91.6646,121.482 91.498,118.482 91,115.5C 90.1241,117.725 88.9574,119.725 87.5,121.5C 86.8627,120.782 86.8627,119.782 87.5,118.5C 87.2528,117.287 86.5862,116.62 85.5,116.5C 87.22,115.136 89.22,114.136 91.5,113.5C 92.8077,117.315 92.8077,120.981 91.5,124.5 Z"/></g>
<g><path style="opacity:1" fill="#45384b" d="M 72.5,114.5 C 73.8333,115.5 73.8333,116.5 72.5,117.5C 69.2869,117.81 66.2869,117.477 63.5,116.5C 67.0122,117.055 70.0122,116.388 72.5,114.5 Z"/></g>
<g><path style="opacity:1" fill="#3f2162" d="M 20.5,113.5 C 28.7293,113.178 36.7293,113.845 44.5,115.5C 36.3069,115.384 28.3069,114.717 20.5,113.5 Z"/></g>
<g><path style="opacity:1" fill="#361269" d="M 9.5,111.5 C 11.8333,112.167 14.1667,112.833 16.5,113.5C 13.7531,113.813 11.0865,113.48 8.5,112.5C 8.62358,111.893 8.95691,111.56 9.5,111.5 Z"/></g>
<g><path style="opacity:1" fill="#160e34" d="M 85.5,106.5 C 87.9124,106.244 89.5791,107.244 90.5,109.5C 87.272,111.272 84.272,113.272 81.5,115.5C 79.8828,116.038 78.2161,116.371 76.5,116.5C 76.1854,114.774 76.0187,113.107 76,111.5C 79.1737,109.729 82.3404,108.063 85.5,106.5 Z"/></g>
<g><path style="opacity:1" fill="#5f01e1" d="M 24.5,109.5 C 30.9188,111.201 37.5854,111.867 44.5,111.5C 50.1667,111.5 55.8333,111.5 61.5,111.5C 65.4425,111.875 69.1091,112.875 72.5,114.5C 70.0122,116.388 67.0122,117.055 63.5,116.5C 57.1783,115.986 50.845,115.653 44.5,115.5C 36.7293,113.845 28.7293,113.178 20.5,113.5C 19.1667,113.5 17.8333,113.5 16.5,113.5C 14.1667,112.833 11.8333,112.167 9.5,111.5C 10.2891,111.217 10.9558,110.717 11.5,110C 15.8206,109.501 20.1539,109.334 24.5,109.5 Z"/></g>
<g><path style="opacity:1" fill="#431b86" d="M 24.5,109.5 C 31.3541,109.735 38.0207,110.402 44.5,111.5C 37.5854,111.867 30.9188,111.201 24.5,109.5 Z"/></g>
<g><path style="opacity:1" fill="#321b5a" d="M 76.5,93.5 C 75.9031,98.294 76.5698,102.627 78.5,106.5C 77.791,107.404 76.791,107.737 75.5,107.5C 75.1805,102.637 75.5139,97.97 76.5,93.5 Z"/></g>
<g><path style="opacity:1" fill="#3a166d" d="M 72.5,88.5 C 73.1582,89.7933 73.4915,91.2933 73.5,93C 73.0952,98.3478 72.4285,103.514 71.5,108.5C 71.6123,101.82 71.9457,95.1531 72.5,88.5 Z"/></g>
<g><path style="opacity:1" fill="#372745" d="M 13.5,84.5 C 13.5,88.5 13.5,92.5 13.5,96.5C 15.3904,96.7035 16.8904,96.0368 18,94.5C 17.8478,97.1634 16.3478,98.8301 13.5,99.5C 12.2492,94.3691 12.2492,89.3691 13.5,84.5 Z"/></g>
<g><path style="opacity:1" fill="#4f4e45" d="M 88.5,75.5 C 87.6175,84.467 87.2841,93.467 87.5,102.5C 87.1667,102.5 86.8333,102.5 86.5,102.5C 86.3336,94.4931 86.5003,86.4931 87,78.5C 87.2321,77.2625 87.7321,76.2625 88.5,75.5 Z"/></g>
<g><path style="opacity:1" fill="#54534b" d="M 86.5,57.5 C 87.64,60.0248 88.3067,62.6915 88.5,65.5C 87.788,64.2613 86.788,63.7613 85.5,64C 83.8183,66.6901 82.3183,69.5234 81,72.5C 80.2258,68.2159 81.5592,64.8826 85,62.5C 85.1981,60.6183 85.6981,58.9516 86.5,57.5 Z"/></g>
<g><path style="opacity:1" fill="#b7b999" d="M 52.5,6.5 C 54.7411,6.95393 56.7411,6.95393 58.5,6.5C 59.8333,6.83333 61.1667,7.16667 62.5,7.5C 66.5314,10.5085 70.3647,13.8418 74,17.5C 74.9728,20.5787 75.8061,23.5787 76.5,26.5C 76.5,27.1667 76.5,27.8333 76.5,28.5C 77.323,36.4712 77.6563,44.4712 77.5,52.5C 75.9877,66.0068 75.6543,79.6735 76.5,93.5C 75.5139,97.97 75.1805,102.637 75.5,107.5C 76.791,107.737 77.791,107.404 78.5,106.5C 81.232,105.134 83.8987,103.801 86.5,102.5C 86.8333,102.5 87.1667,102.5 87.5,102.5C 86.8777,104.335 85.5444,105.502 83.5,106C 84.0944,106.464 84.7611,106.631 85.5,106.5C 82.3404,108.063 79.1737,109.729 76,111.5C 76.0187,113.107 76.1854,114.774 76.5,116.5C 78.2161,116.371 79.8828,116.038 81.5,115.5C 81.5,116.167 81.5,116.833 81.5,117.5C 78.7793,121.961 77.7793,126.961 78.5,132.5C 77.6753,128.353 77.1753,124.019 77,119.5C 75.8896,124.172 75.0563,128.839 74.5,133.5C 74.5,129.167 74.5,124.833 74.5,120.5C 71.1667,120.5 67.8333,120.5 64.5,120.5C 59.0313,119.925 53.6979,119.259 48.5,118.5C 57.1811,118.752 65.8478,118.918 74.5,119C 73.5842,118.722 72.9175,118.222 72.5,117.5C 73.8333,116.5 73.8333,115.5 72.5,114.5C 69.1091,112.875 65.4425,111.875 61.5,111.5C 65.226,111.823 68.8927,111.489 72.5,110.5C 66.3045,109.828 60.3045,108.828 54.5,107.5C 60.1613,107.907 65.828,108.24 71.5,108.5C 72.4285,103.514 73.0952,98.3478 73.5,93C 73.4915,91.2933 73.1582,89.7933 72.5,88.5C 73.2966,70.1653 73.7966,51.832 74,33.5C 72.8723,28.8614 71.8723,24.1947 71,19.5C 69.6288,17.9586 68.1288,16.6253 66.5,15.5C 65.5,14.5 64.5,13.5 63.5,12.5C 61.1169,10.6418 58.4502,9.30844 55.5,8.5C 54.5,7.83333 53.5,7.16667 52.5,6.5 Z"/></g>
<g><path style="opacity:1" fill="#2c0e71" d="M 87.5,30.5 C 88.162,32.3035 88.4954,34.3035 88.5,36.5C 88.1313,43.0151 87.4646,49.3484 86.5,55.5C 86.5566,46.9881 86.8899,38.6547 87.5,30.5 Z"/></g>
<g><path style="opacity:1" fill="#6c695f" d="M 17.5,38.5 C 20.4135,40.39 20.9135,42.7233 19,45.5C 18.9428,43.0898 17.7761,41.7565 15.5,41.5C 16.5511,40.7777 17.2178,39.7777 17.5,38.5 Z"/></g>
<g><path style="opacity:1" fill="#241152" d="M 76.5,28.5 C 78.0331,32.8962 78.6998,37.5629 78.5,42.5C 78.4984,46.0175 78.1651,49.3509 77.5,52.5C 77.6563,44.4712 77.323,36.4712 76.5,28.5 Z"/></g>
<g><path style="opacity:1" fill="#3f01b6" d="M 87.5,30.5 C 86.8899,38.6547 86.5566,46.9881 86.5,55.5C 86.5,56.1667 86.5,56.8333 86.5,57.5C 85.6981,58.9516 85.1981,60.6183 85,62.5C 81.5592,64.8826 80.2258,68.2159 81,72.5C 82.3183,69.5234 83.8183,66.6901 85.5,64C 86.788,63.7613 87.788,64.2613 88.5,65.5C 88.5,68.8333 88.5,72.1667 88.5,75.5C 87.7321,76.2625 87.2321,77.2625 87,78.5C 86.5003,86.4931 86.3336,94.4931 86.5,102.5C 83.8987,103.801 81.232,105.134 78.5,106.5C 76.5698,102.627 75.9031,98.294 76.5,93.5C 75.6543,79.6735 75.9877,66.0068 77.5,52.5C 78.1651,49.3509 78.4984,46.0175 78.5,42.5C 78.6998,37.5629 78.0331,32.8962 76.5,28.5C 76.5,27.8333 76.5,27.1667 76.5,26.5C 76.2587,24.1137 76.9254,22.1137 78.5,20.5C 79.404,19.791 79.7373,18.791 79.5,17.5C 81.7569,16.1974 83.5902,16.864 85,19.5C 86.3095,23.0704 87.1428,26.737 87.5,30.5 Z"/></g>
<g><path style="opacity:1" fill="#28252a" d="M 79.5,17.5 C 79.7373,18.791 79.404,19.791 78.5,20.5C 77.6618,20.1583 77.3284,19.4916 77.5,18.5C 78.1667,18.1667 78.8333,17.8333 79.5,17.5 Z"/></g>
<g><path style="opacity:1" fill="#2e0e58" d="M 63.5,12.5 C 64.5,13.5 65.5,14.5 66.5,15.5C 65.6252,17.5681 64.4585,19.5681 63,21.5C 63.2903,18.5865 63.4569,15.5865 63.5,12.5 Z"/></g>
<g><path style="opacity:1" fill="#3804a4" d="M 61.5,5.5 C 66.6727,6.43427 71.6727,7.93427 76.5,10C 78.8382,12.5417 79.1715,15.3751 77.5,18.5C 77.3284,19.4916 77.6618,20.1583 78.5,20.5C 76.9254,22.1137 76.2587,24.1137 76.5,26.5C 75.8061,23.5787 74.9728,20.5787 74,17.5C 70.3647,13.8418 66.5314,10.5085 62.5,7.5C 62.1667,6.83333 61.8333,6.16667 61.5,5.5 Z"/></g>
<g><path style="opacity:1" fill="#6701f0" d="M 35.5,7.5 C 42.1961,7.39097 48.8627,7.7243 55.5,8.5C 58.4502,9.30844 61.1169,10.6418 63.5,12.5C 63.4569,15.5865 63.2903,18.5865 63,21.5C 64.4585,19.5681 65.6252,17.5681 66.5,15.5C 68.1288,16.6253 69.6288,17.9586 71,19.5C 71.8723,24.1947 72.8723,28.8614 74,33.5C 73.7966,51.832 73.2966,70.1653 72.5,88.5C 71.9457,95.1531 71.6123,101.82 71.5,108.5C 65.828,108.24 60.1613,107.907 54.5,107.5C 40.8241,107.01 27.1574,106.344 13.5,105.5C 13.5,103.5 13.5,101.5 13.5,99.5C 16.3478,98.8301 17.8478,97.1634 18,94.5C 16.8904,96.0368 15.3904,96.7035 13.5,96.5C 13.5,92.5 13.5,88.5 13.5,84.5C 14.626,70.1929 15.2927,55.8596 15.5,41.5C 17.7761,41.7565 18.9428,43.0898 19,45.5C 20.9135,42.7233 20.4135,40.39 17.5,38.5C 15.9151,34.9892 15.4151,31.3225 16,27.5C 18.3146,20.3809 22.4812,14.5476 28.5,10C 29.448,9.51722 30.448,9.35055 31.5,9.5C 31.933,12.1656 32.433,14.8323 33,17.5C 33.4482,15.7756 34.2815,15.109 35.5,15.5C 33.9617,13.7567 32.9617,11.7567 32.5,9.5C 32.8212,7.95186 33.8212,7.28519 35.5,7.5 Z"/></g>
<g><path style="opacity:1" fill="#160a50" d="M 47.5,99.5 C 49.337,99.6395 49.6704,100.306 48.5,101.5C 47.7025,101.043 47.3691,100.376 47.5,99.5 Z"/></g>
<g><path style="opacity:1" fill="#240663" d="M 64.5,96.5 C 67.9571,96.6672 68.2904,97.6672 65.5,99.5C 64.6143,98.675 64.281,97.675 64.5,96.5 Z"/></g>
<g><path style="opacity:1" fill="#7838c7" d="M 55.5,73.5 C 55.5,76.5 55.5,79.5 55.5,82.5C 52.9407,82.8016 50.6074,82.4682 48.5,81.5C 50.5,81.5 52.5,81.5 54.5,81.5C 54.1936,78.6146 54.5269,75.9479 55.5,73.5 Z"/></g>
<g><path style="opacity:1" fill="#89827c" d="M 62.5,63.5 C 62.6495,64.552 62.4828,65.552 62,66.5C 59.6278,68.7032 57.4611,71.0365 55.5,73.5C 54.5269,75.9479 54.1936,78.6146 54.5,81.5C 52.5,81.5 50.5,81.5 48.5,81.5C 49.9187,80.5489 51.5853,80.2155 53.5,80.5C 53.3359,77.8127 53.5026,75.146 54,72.5C 57.0657,69.6043 59.8991,66.6043 62.5,63.5 Z"/></g>
<g><path style="opacity:1" fill="#201d1f" d="M 62.5,63.5 C 59.8991,66.6043 57.0657,69.6043 54,72.5C 53.5026,75.146 53.3359,77.8127 53.5,80.5C 51.5853,80.2155 49.9187,80.5489 48.5,81.5C 47.5655,80.4324 47.2322,79.099 47.5,77.5C 46.791,76.596 45.791,76.2627 44.5,76.5C 44.5,77.8333 44.5,79.1667 44.5,80.5C 42.8333,80.5 41.1667,80.5 39.5,80.5C 38.596,79.791 38.2627,78.791 38.5,77.5C 38.44,76.9569 38.1067,76.6236 37.5,76.5C 36.5713,77.6888 36.238,79.0222 36.5,80.5C 34.7768,81.807 32.9435,81.807 31,80.5C 30.6667,77.8333 30.3333,75.1667 30,72.5C 19.6478,60.8531 20.1478,49.6864 31.5,39C 46.524,32.7479 57.3573,37.2479 64,52.5C 64.8794,56.4773 64.3794,60.1439 62.5,63.5 Z"/></g>
<g><path style="opacity:1" fill="#855ab4" d="M 38.5,77.5 C 37.8333,78.5 37.1667,79.5 36.5,80.5C 36.238,79.0222 36.5713,77.6888 37.5,76.5C 38.1067,76.6236 38.44,76.9569 38.5,77.5 Z"/></g>
<g><path style="opacity:1" fill="#676857" d="M 47.5,77.5 C 45.8235,78.1834 45.1568,79.5168 45.5,81.5C 43.2646,81.7947 41.2646,81.4614 39.5,80.5C 41.1667,80.5 42.8333,80.5 44.5,80.5C 44.5,79.1667 44.5,77.8333 44.5,76.5C 45.791,76.2627 46.791,76.596 47.5,77.5 Z"/></g>
<g><path style="opacity:1" fill="#dbdeb9" d="M 39.5,37.5 C 43.747,37.1778 47.747,38.0111 51.5,40C 63.3274,50.2704 63.4941,60.7704 52,71.5C 51.5026,74.146 51.3359,76.8127 51.5,79.5C 50.5,79.5 49.5,79.5 48.5,79.5C 48.5,78.1667 48.5,76.8333 48.5,75.5C 46.8333,75.5 45.1667,75.5 43.5,75.5C 43.5,76.8333 43.5,78.1667 43.5,79.5C 42.5,79.5 41.5,79.5 40.5,79.5C 41.1584,75.3228 39.4918,73.8228 35.5,75C 34.9288,76.2051 34.2621,77.3717 33.5,78.5C 32.6816,75.8929 32.1816,73.2263 32,70.5C 20.028,56.2363 22.528,45.2363 39.5,37.5 Z"/></g>
<g><path style="opacity:1" fill="#242322" d="M 41.5,62.5 C 42.4959,62.4142 43.3292,62.7476 44,63.5C 44.8372,65.3506 45.6705,67.1839 46.5,69C 43.5,69.6667 40.5,69.6667 37.5,69C 38.719,66.7218 40.0523,64.5551 41.5,62.5 Z"/></g>
<g><path style="opacity:1" fill="#6213d8" d="M 41.5,66.5 C 43.337,66.6395 43.6704,67.3061 42.5,68.5C 41.7025,68.0431 41.3691,67.3764 41.5,66.5 Z"/></g>
<g><path style="opacity:1" fill="#232421" d="M 47.5,53.5 C 55.0615,52.8596 57.0615,55.693 53.5,62C 45.749,63.0913 43.749,60.258 47.5,53.5 Z"/></g>
<g><path style="opacity:1" fill="#6205e0" d="M 50.5,55.5 C 51.5,55.5 52.5,55.5 53.5,55.5C 54.5749,59.938 52.9083,61.938 48.5,61.5C 48.2525,59.1417 48.9192,57.1417 50.5,55.5 Z"/></g>
<g><path style="opacity:1" fill="#242322" d="M 32.5,52.5 C 39.2973,53.1073 40.9639,56.2739 37.5,62C 29.4079,62.0901 27.7412,58.9235 32.5,52.5 Z"/></g>
<g><path style="opacity:1" fill="#6505e4" d="M 34.5,55.5 C 35.5,55.5 36.5,55.5 37.5,55.5C 37.6602,57.1992 37.4935,58.8659 37,60.5C 34.8333,62 33.3333,61.5 32.5,59C 32.9783,57.6974 33.645,56.5307 34.5,55.5 Z"/></g>
<g><path style="opacity:1" fill="#241634" d="M 31.5,9.5 C 31.8333,9.5 32.1667,9.5 32.5,9.5C 32.9617,11.7567 33.9617,13.7567 35.5,15.5C 34.2815,15.109 33.4482,15.7756 33,17.5C 32.433,14.8323 31.933,12.1656 31.5,9.5 Z"/></g>
<g><path style="opacity:1" fill="#451293" d="M 35.5,7.5 C 40.9753,6.51114 46.642,6.1778 52.5,6.5C 53.5,7.16667 54.5,7.83333 55.5,8.5C 48.8627,7.7243 42.1961,7.39097 35.5,7.5 Z"/></g>
<g><path style="opacity:1" fill="#2b1d43" d="M 61.5,5.5 C 61.8333,6.16667 62.1667,6.83333 62.5,7.5C 61.1667,7.16667 59.8333,6.83333 58.5,6.5C 58.0825,5.77842 57.4158,5.27842 56.5,5C 58.3869,4.22039 60.0536,4.38705 61.5,5.5 Z"/></g>
<g><path style="opacity:0.449" fill="#676861" d="M 8.5,81.5 C 9.16667,82.1667 9.83333,82.8333 10.5,83.5C 10.6664,91.5069 10.4997,99.5069 10,107.5C 7.33333,109.5 4.66667,111.5 2,113.5C 1.50051,119.491 1.33385,125.491 1.5,131.5C 25.6844,132.886 49.851,134.553 74,136.5C 76.7318,136.385 79.2318,135.552 81.5,134C 86.0281,130.904 90.6947,128.071 95.5,125.5C 95.5,126.167 95.5,126.833 95.5,127.5C 89.8782,130.472 84.5449,133.805 79.5,137.5C 71.5,137.5 63.5,137.5 55.5,137.5C 36.9156,136.014 18.249,134.348 -0.5,132.5C -0.5,125.833 -0.5,119.167 -0.5,112.5C 2.53799,110.888 5.37132,108.888 8,106.5C 8.49973,98.1733 8.6664,89.84 8.5,81.5 Z"/></g>
<g><path style="opacity:1" fill="#2d0d7a" d="M 8.5,129.5 C 8.5,129.167 8.5,128.833 8.5,128.5C 25.3577,129.015 42.1911,130.015 59,131.5C 61.6903,131.497 64.1903,131.164 66.5,130.5C 67.3382,130.842 67.6716,131.508 67.5,132.5C 47.8133,131.874 28.1466,130.874 8.5,129.5 Z"/></g>
<g><path style="opacity:1" fill="#180c2f" d="M 69.5,132.5 C 68.8333,132.5 68.1667,132.5 67.5,132.5C 67.6716,131.508 67.3382,130.842 66.5,130.5C 66.3505,129.448 66.5172,128.448 67,127.5C 68.1203,129.03 68.9536,130.697 69.5,132.5 Z"/></g>
</svg>
