<?xml version="1.0" encoding="UTF-8"?>
<!DOCTYPE svg PUBLIC "-//W3C//DTD SVG 1.1//EN" "http://www.w3.org/Graphics/SVG/1.1/DTD/svg11.dtd">
<svg xmlns="http://www.w3.org/2000/svg" version="1.1" width="96px" height="96px" style="shape-rendering:geometricPrecision; text-rendering:geometricPrecision; image-rendering:optimizeQuality; fill-rule:evenodd; clip-rule:evenodd" xmlns:xlink="http://www.w3.org/1999/xlink">
<g><path style="opacity:0.999" fill="#3e3a71" d="M 39.5,3.5 C 66.4826,1.67198 83.6493,13.672 91,39.5C 93.3131,66.5064 81.4798,83.6731 55.5,91C 28.4936,93.3131 11.3269,81.4798 4,55.5C 1.89105,28.471 13.7244,11.1377 39.5,3.5 Z"/></g>
<g><path style="opacity:1" fill="#e8e8e4" d="M 79.5,48.5 C 68.8333,58.5 58.5,68.8333 48.5,79.5C 37.2534,69.757 26.4201,59.4237 16,48.5C 15.3333,47.8333 15.3333,47.1667 16,46.5C 26.3474,35.9857 36.8474,25.6524 47.5,15.5C 58.9086,25.9066 69.5752,36.9066 79.5,48.5 Z"/></g>
<g><path style="opacity:1" fill="#7a779b" d="M 21.5,44.5 C 33.3217,45.4951 45.3217,45.8284 57.5,45.5C 45.327,46.8247 32.9937,46.8247 20.5,45.5C 20.6236,44.8933 20.9569,44.56 21.5,44.5 Z"/></g>
<g><path style="opacity:1" fill="#3b326e" d="M 21.5,50.5 C 33.8333,49.8333 46.1667,49.1667 58.5,48.5C 61.7974,45.7044 64.9641,42.7044 68,39.5C 69.0217,40.354 69.8551,41.354 70.5,42.5C 68.0164,45.4843 65.3497,48.3176 62.5,51C 48.6604,51.8272 34.9938,51.6605 21.5,50.5 Z"/></g>
<g><path style="opacity:1" fill="#8a86aa" d="M 26.5,39.5 C 34.9839,40.493 43.6506,40.8264 52.5,40.5C 43.6582,41.8218 34.6582,41.8218 25.5,40.5C 25.6236,39.8933 25.9569,39.56 26.5,39.5 Z"/></g>
<g><path style="opacity:1" fill="#38316d" d="M 57.5,45.5 C 45.3217,45.8284 33.3217,45.4951 21.5,44.5C 31.9921,43.6696 42.6588,43.1696 53.5,43C 56.3489,39.9838 59.3489,37.1504 62.5,34.5C 63.8333,35.1667 64.8333,36.1667 65.5,37.5C 63.1456,40.5211 60.4789,43.1877 57.5,45.5 Z"/></g>
<g><path style="opacity:1" fill="#a7a6bc" d="M 31.5,34.5 C 36.6405,35.4881 41.9738,35.8214 47.5,35.5C 41.9871,36.8157 36.3204,36.8157 30.5,35.5C 30.6236,34.8933 30.9569,34.56 31.5,34.5 Z"/></g>
<g><path style="opacity:1" fill="#2b2567" d="M 47.5,35.5 C 41.9738,35.8214 36.6405,35.4881 31.5,34.5C 35.3123,33.6762 39.3123,33.1762 43.5,33C 46.3489,29.9838 49.3489,27.1504 52.5,24.5C 53.6721,24.9186 54.6721,25.5853 55.5,26.5C 52.811,29.5198 50.1444,32.5198 47.5,35.5 Z"/></g>
<g><path style="opacity:1" fill="#39316e" d="M 52.5,40.5 C 43.6506,40.8264 34.9839,40.493 26.5,39.5C 33.6552,38.6712 40.9885,38.1712 48.5,38C 51.3489,34.9838 54.3489,32.1504 57.5,29.5C 58.8333,30.1667 59.8333,31.1667 60.5,32.5C 58.1456,35.5211 55.4789,38.1877 52.5,40.5 Z"/></g>
<g><path style="opacity:1" fill="#38336f" d="M 46.5,19.5 C 49.1662,19.0658 50.3329,20.0658 50,22.5C 47.5,25 45,27.5 42.5,30C 40.4213,30.8077 38.4213,30.641 36.5,29.5C 39.5481,25.7852 42.8815,22.4518 46.5,19.5 Z"/></g>
<g><path style="opacity:1" fill="#5c5b8e" d="M 58.5,48.5 C 46.1667,49.1667 33.8333,49.8333 21.5,50.5C 20.9569,50.44 20.6236,50.1067 20.5,49.5C 33.1492,48.5009 45.8158,48.1676 58.5,48.5 Z"/></g>
<g><path style="opacity:1" fill="#302a6a" d="M 26.5,55.5 C 38.8333,54.8333 51.1667,54.1667 63.5,53.5C 66.7974,50.7044 69.9641,47.7044 73,44.5C 74.0217,45.354 74.8551,46.354 75.5,47.5C 73.0164,50.4843 70.3497,53.3176 67.5,56C 53.7584,56.814 40.0917,56.6473 26.5,55.5 Z"/></g>
<g><path style="opacity:1" fill="#777398" d="M 63.5,53.5 C 51.1667,54.1667 38.8333,54.8333 26.5,55.5C 25.9569,55.44 25.6236,55.1067 25.5,54.5C 38.1492,53.5009 50.8158,53.1676 63.5,53.5 Z"/></g>
<g><path style="opacity:1" fill="#8e8ca7" d="M 63.5,60.5 C 52.8333,59.1667 42.1667,59.1667 31.5,60.5C 30.9569,60.44 30.6236,60.1067 30.5,59.5C 41.8333,58.1667 53.1667,58.1667 64.5,59.5C 64.3764,60.1067 64.0431,60.44 63.5,60.5 Z"/></g>
<g><path style="opacity:1" fill="#302a69" d="M 31.5,60.5 C 42.1667,59.1667 52.8333,59.1667 63.5,60.5C 52.8333,61.8333 42.1667,61.8333 31.5,60.5 Z"/></g>
<g><path style="opacity:1" fill="#2c286a" d="M 79.5,48.5 C 70.2164,59.3012 60.0498,69.9679 49,80.5C 48.6012,80.2716 48.4346,79.9382 48.5,79.5C 58.5,68.8333 68.8333,58.5 79.5,48.5 Z"/></g>
<g><path style="opacity:1" fill="#9f9bb7" d="M 58.5,65.5 C 51.1667,64.1667 43.8333,64.1667 36.5,65.5C 35.9569,65.44 35.6236,65.1067 35.5,64.5C 43.5,63.1667 51.5,63.1667 59.5,64.5C 59.3764,65.1067 59.0431,65.44 58.5,65.5 Z"/></g>
<g><path style="opacity:1" fill="#2f2966" d="M 36.5,65.5 C 43.8333,64.1667 51.1667,64.1667 58.5,65.5C 51.1667,66.8333 43.8333,66.8333 36.5,65.5 Z"/></g>
<g><path style="opacity:1" fill="#1f1961" d="M 41.5,70.5 C 45.3112,69.3547 49.3112,69.1881 53.5,70C 49.6046,71.821 45.6046,71.9877 41.5,70.5 Z"/></g>
<g><path style="opacity:1" fill="#665f8d" d="M 46.5,74.5 C 48.337,74.6395 48.6704,75.3061 47.5,76.5C 46.7025,76.0431 46.3691,75.3764 46.5,74.5 Z"/></g>
</svg>
