<?xml version="1.0" encoding="UTF-8"?>
<!DOCTYPE svg PUBLIC "-//W3C//DTD SVG 1.1//EN" "http://www.w3.org/Graphics/SVG/1.1/DTD/svg11.dtd">
<svg xmlns="http://www.w3.org/2000/svg" version="1.1" width="96px" height="96px" style="shape-rendering:geometricPrecision; text-rendering:geometricPrecision; image-rendering:optimizeQuality; fill-rule:evenodd; clip-rule:evenodd" xmlns:xlink="http://www.w3.org/1999/xlink">
<g><path style="opacity:0.994" fill="#c14748" d="M 37.5,-0.5 C 44.1667,-0.5 50.8333,-0.5 57.5,-0.5C 77.1667,5.16667 89.8333,17.8333 95.5,37.5C 95.5,44.1667 95.5,50.8333 95.5,57.5C 89.8333,77.1667 77.1667,89.8333 57.5,95.5C 50.8333,95.5 44.1667,95.5 37.5,95.5C 17.8333,89.8333 5.16667,77.1667 -0.5,57.5C -0.5,50.8333 -0.5,44.1667 -0.5,37.5C 5.16667,17.8333 17.8333,5.16667 37.5,-0.5 Z"/></g>
<g><path style="opacity:1" fill="#fcf5f5" d="M 39.5,26.5 C 42.1213,26.4772 43.4546,27.8105 43.5,30.5C 31.5964,41.6449 31.5964,52.8116 43.5,64C 42.8524,65.4397 42.5191,66.9397 42.5,68.5C 32.7386,64.8544 27.7386,57.6878 27.5,47C 28.2831,38.265 32.2831,31.4316 39.5,26.5 Z"/></g>
<g><path style="opacity:1" fill="#faf1f1" d="M 53.5,38.5 C 55.1667,38.5 56.8333,38.5 58.5,38.5C 58.5,40.1667 58.5,41.8333 58.5,43.5C 60.2624,43.6427 61.9291,43.3094 63.5,42.5C 66.4608,46.2627 65.4608,48.596 60.5,49.5C 61.5,50.8333 62.5,52.1667 63.5,53.5C 62.1667,54.5 60.8333,55.5 59.5,56.5C 58.5197,55.0186 57.353,53.6853 56,52.5C 54.647,53.6853 53.4803,55.0186 52.5,56.5C 51.1667,55.5 49.8333,54.5 48.5,53.5C 49.5,52.1667 50.5,50.8333 51.5,49.5C 46.5392,48.596 45.5392,46.2627 48.5,42.5C 52.6684,45.3257 54.3351,43.9924 53.5,38.5 Z"/></g>
</svg>
