<?xml version="1.0" encoding="UTF-8"?>
<!DOCTYPE svg PUBLIC "-//W3C//DTD SVG 1.1//EN" "http://www.w3.org/Graphics/SVG/1.1/DTD/svg11.dtd">
<svg xmlns="http://www.w3.org/2000/svg" version="1.1" width="96px" height="96px" style="shape-rendering:geometricPrecision; text-rendering:geometricPrecision; image-rendering:optimizeQuality; fill-rule:evenodd; clip-rule:evenodd" xmlns:xlink="http://www.w3.org/1999/xlink">
<g><path style="opacity:1" fill="#fffdfe" d="M -0.5,-0.5 C 31.5,-0.5 63.5,-0.5 95.5,-0.5C 95.5,31.5 95.5,63.5 95.5,95.5C 63.5,95.5 31.5,95.5 -0.5,95.5C -0.5,63.5 -0.5,31.5 -0.5,-0.5 Z"/></g>
<g><path style="opacity:1" fill="#ff33d4" d="M 41.5,4.5 C 74.1401,5.30553 90.3068,21.9722 90,54.5C 82.9795,79.5171 66.4795,91.3504 40.5,90C 13.5704,82.3412 2.0704,64.5079 6,36.5C 11.7403,18.9198 23.5737,8.25308 41.5,4.5 Z"/></g>
<g><path style="opacity:1" fill="#fff7fd" d="M 42.5,9.5 C 55.1975,8.67453 66.0308,12.6745 75,21.5C 75.6667,22.1667 75.6667,22.8333 75,23.5C 66.8635,30.6355 59.0302,38.1355 51.5,46C 55.6816,50.3487 60.0149,54.5154 64.5,58.5C 65.4933,53.8804 65.8266,49.2137 65.5,44.5C 72.1667,44.5 78.8333,44.5 85.5,44.5C 86.0086,61.6553 78.6753,74.1553 63.5,82C 45.2845,88.9586 29.7845,85.1252 17,70.5C 11.7714,62.6448 9.27143,53.9781 9.5,44.5C 16.5,44.5 23.5,44.5 30.5,44.5C 30.3342,49.1785 30.5008,53.8452 31,58.5C 35.1884,54.3116 39.3551,50.1449 43.5,46C 35.6472,37.9801 27.6472,30.1468 19.5,22.5C 25.8892,15.808 33.5558,11.4747 42.5,9.5 Z"/></g>
<g><path style="opacity:1" fill="#ff32d5" d="M 42.5,14.5 C 52.4103,13.5371 61.077,16.2038 68.5,22.5C 61.5264,29.1389 54.5264,35.8056 47.5,42.5C 40.5264,35.8611 33.5264,29.1944 26.5,22.5C 31.2481,18.4843 36.5814,15.8177 42.5,14.5 Z"/></g>
<g><path style="opacity:1" fill="#ffcc18" d="M 41.5,19.5 C 48.3426,18.6915 54.6759,20.0248 60.5,23.5C 56.1667,27.5 51.8333,31.5 47.5,35.5C 43.1667,31.8333 39.1667,27.8333 35.5,23.5C 37.2187,21.6478 39.2187,20.3145 41.5,19.5 Z"/></g>
<g><path style="opacity:1" fill="#ffd31e" d="M 73.5,37.5 C 72.8478,38.7251 71.6811,39.3917 70,39.5C 68.6153,39.4857 67.4486,39.1524 66.5,38.5C 67.8121,36.5212 69.4788,34.8545 71.5,33.5C 72.7051,34.5769 73.3718,35.9102 73.5,37.5 Z"/></g>
<g><path style="opacity:1" fill="#ffd718" d="M 29.5,39.5 C 26.6146,39.8064 23.9479,39.4731 21.5,38.5C 21.3832,36.5165 22.0499,34.8498 23.5,33.5C 25.8545,35.1878 27.8545,37.1878 29.5,39.5 Z"/></g>
<g><path style="opacity:1" fill="#ff6a90" d="M 21.5,38.5 C 23.9479,39.4731 26.6146,39.8064 29.5,39.5C 26.6447,40.8032 23.6447,40.8032 20.5,39.5C 20.6236,38.8933 20.9569,38.56 21.5,38.5 Z"/></g>
<g><path style="opacity:1" fill="#ff7687" d="M 73.5,37.5 C 74.404,38.209 74.7373,39.209 74.5,40.5C 71.4281,40.8174 68.4281,40.4841 65.5,39.5C 65.6236,38.8933 65.9569,38.56 66.5,38.5C 67.4486,39.1524 68.6153,39.4857 70,39.5C 71.6811,39.3917 72.8478,38.7251 73.5,37.5 Z"/></g>
<g><path style="opacity:1" fill="#ff2ad3" d="M 70.5,70.5 C 70.5,63.5 70.5,56.5 70.5,49.5C 73.8333,49.5 77.1667,49.5 80.5,49.5C 79.5473,57.7352 76.214,64.7352 70.5,70.5 Z"/></g>
<g><path style="opacity:1" fill="#ff2ed4" d="M 24.5,49.5 C 24.1697,56.5316 24.503,63.5316 25.5,70.5C 26.1067,70.3764 26.44,70.0431 26.5,69.5C 33.5059,62.8271 40.5059,56.1605 47.5,49.5C 54.9332,56.9412 62.5999,63.9412 70.5,70.5C 64.688,77.5687 57.0213,80.9021 47.5,80.5C 27.7859,79.4528 16.7859,69.1195 14.5,49.5C 17.8333,49.5 21.1667,49.5 24.5,49.5 Z"/></g>
<g><path style="opacity:1" fill="#ffcd16" d="M 46.5,56.5 C 51.422,60.0801 56.0887,64.0801 60.5,68.5C 52.7782,73.1257 44.7782,73.6257 36.5,70C 35.5494,69.2825 35.3828,68.4491 36,67.5C 39.7809,63.8909 43.2809,60.2242 46.5,56.5 Z"/></g>
<g><path style="opacity:1" fill="#ffa9ec" d="M 24.5,49.5 C 25.1667,56.1667 25.8333,62.8333 26.5,69.5C 26.44,70.0431 26.1067,70.3764 25.5,70.5C 24.503,63.5316 24.1697,56.5316 24.5,49.5 Z"/></g>
</svg>
