<?xml version="1.0" encoding="UTF-8"?>
<!DOCTYPE svg PUBLIC "-//W3C//DTD SVG 1.1//EN" "http://www.w3.org/Graphics/SVG/1.1/DTD/svg11.dtd">
<svg xmlns="http://www.w3.org/2000/svg" version="1.1" width="96px" height="96px" style="shape-rendering:geometricPrecision; text-rendering:geometricPrecision; image-rendering:optimizeQuality; fill-rule:evenodd; clip-rule:evenodd" xmlns:xlink="http://www.w3.org/1999/xlink">
<g><path style="opacity:0.997" fill="#bebebe" d="M 37.5,-0.5 C 44.1667,-0.5 50.8333,-0.5 57.5,-0.5C 76.3873,4.72014 88.7207,16.7201 94.5,35.5C 93.7784,35.9175 93.2784,36.5842 93,37.5C 92.5917,35.5904 91.4251,34.5904 89.5,34.5C 82.8231,34.5165 76.1565,34.6832 69.5,35C 70.9973,36.8706 72.9973,37.8706 75.5,38C 76.7383,38.69 76.7383,39.19 75.5,39.5C 73.8008,39.6602 72.1341,39.4935 70.5,39C 66.5289,31.1762 60.1956,26.5095 51.5,25C 44.1742,24.5003 36.8409,24.3337 29.5,24.5C 29.5,29.5 29.5,34.5 29.5,39.5C 27.1667,39.5 24.8333,39.5 22.5,39.5C 23.7898,38.0652 25.4565,37.0652 27.5,36.5C 27.2907,35.914 26.9574,35.414 26.5,35C 18.598,35.3713 10.598,35.2046 2.5,34.5C 2.63318,37.925 1.96651,38.2583 0.5,35.5C 6.30533,16.6935 18.6387,4.69349 37.5,-0.5 Z"/></g>
<g><path style="opacity:1" fill="#fcfcfc" d="M 75.5,39.5 C 75.5,41.1667 75.5,42.8333 75.5,44.5C 74.1667,44.5 72.8333,44.5 71.5,44.5C 71.5,46.5 71.5,48.5 71.5,50.5C 72.8333,50.5 74.1667,50.5 75.5,50.5C 75.5,52.1667 75.5,53.8333 75.5,55.5C 71.2697,54.5628 68.7697,56.2295 68,60.5C 65.6041,63.0666 63.1041,65.4 60.5,67.5C 58.1877,68.3195 55.8543,69.1529 53.5,70C 45.5069,70.4997 37.5069,70.6664 29.5,70.5C 29.5,65.5 29.5,60.5 29.5,55.5C 27.5,55.5 25.5,55.5 23.5,55.5C 23.5,53.8333 23.5,52.1667 23.5,50.5C 25.5,50.5 27.5,50.5 29.5,50.5C 29.5,48.5 29.5,46.5 29.5,44.5C 27.5,44.5 25.5,44.5 23.5,44.5C 22.5489,43.0813 22.2155,41.4147 22.5,39.5C 24.8333,39.5 27.1667,39.5 29.5,39.5C 29.5,34.5 29.5,29.5 29.5,24.5C 36.8409,24.3337 44.1742,24.5003 51.5,25C 60.1956,26.5095 66.5289,31.1762 70.5,39C 72.1341,39.4935 73.8008,39.6602 75.5,39.5 Z"/></g>
<g><path style="opacity:1" fill="#c1c1c1" d="M 34.5,29.5 C 40.8421,29.3338 47.1754,29.5005 53.5,30C 58.1651,31.8257 61.8318,34.8257 64.5,39C 54.5056,39.4998 44.5056,39.6665 34.5,39.5C 34.5,36.1667 34.5,32.8333 34.5,29.5 Z"/></g>
<g><path style="opacity:0.993" fill="#c3c3c3" d="M 22.5,39.5 C 22.2155,41.4147 22.5489,43.0813 23.5,44.5C 24.9187,45.4511 26.5853,45.7845 28.5,45.5C 28.5,46.8333 28.5,48.1667 28.5,49.5C 26.5,49.5 24.5,49.5 22.5,49.5C 22.5,51.8333 22.5,54.1667 22.5,56.5C 24.5,56.5 26.5,56.5 28.5,56.5C 28.6658,61.1785 28.4992,65.8452 28,70.5C 27.5014,66.8484 27.3347,63.1817 27.5,59.5C 19.5,59.5 11.5,59.5 3.5,59.5C 3.64945,60.552 3.48278,61.552 3,62.5C 2.5299,59.9277 1.69656,58.261 0.5,57.5C 0.166667,57.5 -0.166667,57.5 -0.5,57.5C -0.5,50.8333 -0.5,44.1667 -0.5,37.5C 0.338246,37.1583 0.67158,36.4916 0.5,35.5C 1.96651,38.2583 2.63318,37.925 2.5,34.5C 10.598,35.2046 18.598,35.3713 26.5,35C 26.9574,35.414 27.2907,35.914 27.5,36.5C 25.4565,37.0652 23.7898,38.0652 22.5,39.5 Z"/></g>
<g><path style="opacity:0.993" fill="#c4c4c4" d="M 94.5,35.5 C 94.5,36.1667 94.8333,36.5 95.5,36.5C 95.5,43.5 95.5,50.5 95.5,57.5C 93.7973,56.3398 93.1307,57.0065 93.5,59.5C 85.9129,59.8142 78.4129,59.4808 71,58.5C 68.3333,62.5 65,65.8333 61,68.5C 60.6012,68.2716 60.4346,67.9382 60.5,67.5C 63.1041,65.4 65.6041,63.0666 68,60.5C 68.7697,56.2295 71.2697,54.5628 75.5,55.5C 75.5,53.8333 75.5,52.1667 75.5,50.5C 74.1667,50.5 72.8333,50.5 71.5,50.5C 71.5,48.5 71.5,46.5 71.5,44.5C 72.8333,44.5 74.1667,44.5 75.5,44.5C 75.5,42.8333 75.5,41.1667 75.5,39.5C 76.7383,39.19 76.7383,38.69 75.5,38C 72.9973,37.8706 70.9973,36.8706 69.5,35C 76.1565,34.6832 82.8231,34.5165 89.5,34.5C 91.4251,34.5904 92.5917,35.5904 93,37.5C 93.2784,36.5842 93.7784,35.9175 94.5,35.5 Z"/></g>
<g><path style="opacity:1" fill="#bfbfbf" d="M 34.5,45.5 C 44.8333,45.5 55.1667,45.5 65.5,45.5C 65.5,46.8333 65.5,48.1667 65.5,49.5C 55.1667,49.5 44.8333,49.5 34.5,49.5C 34.5,48.1667 34.5,46.8333 34.5,45.5 Z"/></g>
<g><path style="opacity:1" fill="#d2d2d2" d="M 34.5,45.5 C 44.9869,44.5056 55.6536,44.1722 66.5,44.5C 66.5,46.5 66.5,48.5 66.5,50.5C 55.6536,50.8278 44.9869,50.4944 34.5,49.5C 44.8333,49.5 55.1667,49.5 65.5,49.5C 65.5,48.1667 65.5,46.8333 65.5,45.5C 55.1667,45.5 44.8333,45.5 34.5,45.5 Z"/></g>
<g><path style="opacity:0.996" fill="#cbcbcb" d="M 23.5,44.5 C 25.5,44.5 27.5,44.5 29.5,44.5C 29.5,46.5 29.5,48.5 29.5,50.5C 27.5,50.5 25.5,50.5 23.5,50.5C 23.5,52.1667 23.5,53.8333 23.5,55.5C 25.5,55.5 27.5,55.5 29.5,55.5C 29.5,60.5 29.5,65.5 29.5,70.5C 37.5069,70.6664 45.5069,70.4997 53.5,70C 55.8543,69.1529 58.1877,68.3195 60.5,67.5C 60.4346,67.9382 60.6012,68.2716 61,68.5C 65,65.8333 68.3333,62.5 71,58.5C 78.4129,59.4808 85.9129,59.8142 93.5,59.5C 93.1307,57.0065 93.7973,56.3398 95.5,57.5C 95.5,57.8333 95.5,58.1667 95.5,58.5C 89.5,77.1667 77.1667,89.5 58.5,95.5C 51.1667,95.5 43.8333,95.5 36.5,95.5C 17.3384,89.6705 5.3384,77.0038 0.5,57.5C 1.69656,58.261 2.5299,59.9277 3,62.5C 3.48278,61.552 3.64945,60.552 3.5,59.5C 11.5,59.5 19.5,59.5 27.5,59.5C 27.3347,63.1817 27.5014,66.8484 28,70.5C 28.4992,65.8452 28.6658,61.1785 28.5,56.5C 26.5,56.5 24.5,56.5 22.5,56.5C 22.5,54.1667 22.5,51.8333 22.5,49.5C 24.5,49.5 26.5,49.5 28.5,49.5C 28.5,48.1667 28.5,46.8333 28.5,45.5C 26.5853,45.7845 24.9187,45.4511 23.5,44.5 Z"/></g>
<g><path style="opacity:1" fill="#c6c6c6" d="M 34.5,55.5 C 44.5222,55.1681 54.5222,55.5015 64.5,56.5C 62.255,59.9121 59.255,62.4121 55.5,64C 48.5736,65.339 41.5736,65.839 34.5,65.5C 34.5,62.1667 34.5,58.8333 34.5,55.5 Z"/></g>
</svg>
