<?xml version="1.0" encoding="UTF-8"?>
<!DOCTYPE svg PUBLIC "-//W3C//DTD SVG 1.1//EN" "http://www.w3.org/Graphics/SVG/1.1/DTD/svg11.dtd">
<svg xmlns="http://www.w3.org/2000/svg" version="1.1" width="96px" height="96px" style="shape-rendering:geometricPrecision; text-rendering:geometricPrecision; image-rendering:optimizeQuality; fill-rule:evenodd; clip-rule:evenodd" xmlns:xlink="http://www.w3.org/1999/xlink">
<g><path style="opacity:0.938" fill="#121121" d="M 37.5,-0.5 C 44.1667,-0.5 50.8333,-0.5 57.5,-0.5C 77.1403,5.14032 89.807,17.807 95.5,37.5C 95.5,44.1667 95.5,50.8333 95.5,57.5C 89.8597,77.1403 77.193,89.807 57.5,95.5C 50.8333,95.5 44.1667,95.5 37.5,95.5C 17.8597,89.8597 5.193,77.193 -0.5,57.5C -0.5,50.8333 -0.5,44.1667 -0.5,37.5C 5.14032,17.8597 17.807,5.193 37.5,-0.5 Z"/></g>
<g><path style="opacity:1" fill="#6664dc" d="M 71.5,30.5 C 72.5,32.5 73.5,34.5 74.5,36.5C 56.4812,33.855 38.4812,33.855 20.5,36.5C 21.5,34.5 22.5,32.5 23.5,30.5C 24.5566,28.0587 25.89,25.7254 27.5,23.5C 25.1322,22.4226 23.4655,20.7559 22.5,18.5C 28.716,13.4715 35.3827,8.97153 42.5,5C 48.4897,4.26621 53.323,6.43287 57,11.5C 62.0492,17.7097 66.8825,24.0431 71.5,30.5 Z"/></g>
<g><path style="opacity:1" fill="#eee104" d="M 22.5,18.5 C 20.6242,20.9725 19.9575,23.6392 20.5,26.5C 18.3561,25.0465 16.5227,25.3799 15,27.5C 14.404,24.4604 13.2373,21.7937 11.5,19.5C 12.8333,19.5 14.1667,19.5 15.5,19.5C 15.281,18.325 15.6143,17.325 16.5,16.5C 18.1727,18.0863 20.1727,18.7529 22.5,18.5 Z"/></g>
<g><path style="opacity:1" fill="#e2e3e9" d="M 23.5,30.5 C 22.5,32.5 21.5,34.5 20.5,36.5C 18.4152,38.6845 17.4152,41.3511 17.5,44.5C 16.5,44.5 15.5,44.5 14.5,44.5C 13.4042,40.5874 13.2375,36.5874 14,32.5C 16.6453,29.4198 19.812,28.7531 23.5,30.5 Z"/></g>
<g><path style="opacity:1" fill="#e9e9ee" d="M 81.5,45.5 C 80.391,45.4431 79.391,45.1098 78.5,44.5C 77.6916,41.5498 76.3582,38.8831 74.5,36.5C 73.5,34.5 72.5,32.5 71.5,30.5C 74.3351,29.2138 77.1684,29.2138 80,30.5C 81.3885,35.3722 81.8885,40.3722 81.5,45.5 Z"/></g>
<g><path style="opacity:1" fill="#fa98a5" d="M 74.5,36.5 C 76.3582,38.8831 77.6916,41.5498 78.5,44.5C 58.1032,41.9741 37.7698,41.9741 17.5,44.5C 17.4152,41.3511 18.4152,38.6845 20.5,36.5C 38.4812,33.855 56.4812,33.855 74.5,36.5 Z"/></g>
<g><path style="opacity:1" fill="#6563dc" d="M 78.5,44.5 C 79.391,45.1098 80.391,45.4431 81.5,45.5C 85.2241,46.4066 88.5575,48.0733 91.5,50.5C 88.0468,51.5126 84.7135,52.5126 81.5,53.5C 59.1667,53.5 36.8333,53.5 14.5,53.5C 10.685,53.7182 7.35162,52.7182 4.5,50.5C 7.32056,47.5685 10.6539,45.5685 14.5,44.5C 15.5,44.5 16.5,44.5 17.5,44.5C 37.7698,41.9741 58.1032,41.9741 78.5,44.5 Z"/></g>
<g><path style="opacity:1" fill="#eef0f5" d="M 14.5,53.5 C 36.8333,53.5 59.1667,53.5 81.5,53.5C 81.5,57.1667 81.5,60.8333 81.5,64.5C 83.6547,64.372 85.6547,64.872 87.5,66C 85.0049,66.1575 82.6716,66.3241 80.5,66.5C 80.1667,67.1667 79.8333,67.8333 79.5,68.5C 81.482,69.2162 83.1487,70.3829 84.5,72C 82.7445,72.1405 81.0778,71.6405 79.5,70.5C 78.354,71.1449 77.354,71.9783 76.5,73C 77.8333,74.3333 79.1667,75.6667 80.5,77C 78.6133,77.1626 77.1133,76.3293 76,74.5C 63.5171,86.5427 49.0171,89.7093 32.5,84C 27.5251,81.9257 23.3584,78.7591 20,74.5C 18.8867,76.3293 17.3867,77.1626 15.5,77C 18.7892,75.0414 19.1225,72.8748 16.5,70.5C 14.9222,71.6405 13.2555,72.1405 11.5,72C 12.8513,70.3829 14.518,69.2162 16.5,68.5C 16.1667,67.8333 15.8333,67.1667 15.5,66.5C 13.2692,66.1133 10.9359,65.9466 8.5,66C 10.3453,64.872 12.3453,64.372 14.5,64.5C 14.5,60.8333 14.5,57.1667 14.5,53.5 Z"/></g>
<g><path style="opacity:1" fill="#141320" d="M 23.5,56.5 C 31.5614,55.0302 37.2281,58.0302 40.5,65.5C 36.0832,66.87 31.7498,66.7033 27.5,65C 24.6792,62.8587 23.3459,60.0254 23.5,56.5 Z"/></g>
<g><path style="opacity:1" fill="#131320" d="M 63.5,56.5 C 66.5,56.5 69.5,56.5 72.5,56.5C 71.9541,63.5429 68.1208,66.8762 61,66.5C 59.1667,66.1667 57.3333,65.8333 55.5,65.5C 57.5044,61.8336 60.1711,58.8336 63.5,56.5 Z"/></g>
<g><path style="opacity:1" fill="#66666e" d="M 46.5,69.5 C 47.9778,69.238 49.3112,69.5713 50.5,70.5C 49.8333,70.8333 49.1667,71.1667 48.5,71.5C 47.2867,71.2528 46.62,70.5862 46.5,69.5 Z"/></g>
</svg>
