<?xml version="1.0" encoding="UTF-8"?>
<!DOCTYPE svg PUBLIC "-//W3C//DTD SVG 1.1//EN" "http://www.w3.org/Graphics/SVG/1.1/DTD/svg11.dtd">
<svg xmlns="http://www.w3.org/2000/svg" version="1.1" width="96px" height="96px" style="shape-rendering:geometricPrecision; text-rendering:geometricPrecision; image-rendering:optimizeQuality; fill-rule:evenodd; clip-rule:evenodd" xmlns:xlink="http://www.w3.org/1999/xlink">
<g><path style="opacity:0.56" fill="#fed879" d="M 46.5,-0.5 C 47.1667,-0.5 47.8333,-0.5 48.5,-0.5C 50.1368,1.12373 49.8034,2.12373 47.5,2.5C 45.1966,2.12373 44.8632,1.12373 46.5,-0.5 Z"/></g>
<g><path style="opacity:0.638" fill="#ffc77c" d="M 39.5,0.5 C 40.9778,0.237978 42.3112,0.571312 43.5,1.5C 41.5365,4.1939 40.2032,3.86057 39.5,0.5 Z"/></g>
<g><path style="opacity:0.455" fill="#ffd17c" d="M 51.5,0.5 C 52.9778,0.237978 54.3112,0.571312 55.5,1.5C 53.5365,4.1939 52.2032,3.86057 51.5,0.5 Z"/></g>
<g><path style="opacity:0.46" fill="#ffb67f" d="M 34.5,1.5 C 35.5,1.5 36.5,1.5 37.5,1.5C 37.5,2.5 37.5,3.5 37.5,4.5C 36.5,4.5 35.5,4.5 34.5,4.5C 34.5,3.5 34.5,2.5 34.5,1.5 Z"/></g>
<g><path style="opacity:0.335" fill="#ffc47d" d="M 57.5,1.5 C 58.8333,1.5 60.1667,1.5 61.5,1.5C 61.5,2.5 61.5,3.5 61.5,4.5C 60.1667,4.5 58.8333,4.5 57.5,4.5C 57.5,3.5 57.5,2.5 57.5,1.5 Z"/></g>
<g><path style="opacity:0.495" fill="#ffa581" d="M 28.5,3.5 C 29.5,3.5 30.5,3.5 31.5,3.5C 31.5,4.5 31.5,5.5 31.5,6.5C 30.5,6.5 29.5,6.5 28.5,6.5C 28.5,5.5 28.5,4.5 28.5,3.5 Z"/></g>
<g><path style="opacity:0.471" fill="#ffb87e" d="M 63.5,3.5 C 64.5,3.5 65.5,3.5 66.5,3.5C 66.5,4.5 66.5,5.5 66.5,6.5C 65.5,6.5 64.5,6.5 63.5,6.5C 63.5,5.5 63.5,4.5 63.5,3.5 Z"/></g>
<g><path style="opacity:0.516" fill="#ff9782" d="M 23.5,5.5 C 24.9953,5.41483 25.9953,6.08149 26.5,7.5C 25.1667,8.83333 23.8333,8.83333 22.5,7.5C 22.8627,6.81654 23.1961,6.14987 23.5,5.5 Z"/></g>
<g><path style="opacity:0.836" fill="#fdd57c" d="M 70.5,12.5 C 64.7741,12.2564 58.7741,12.5897 52.5,13.5C 53.2458,14.7362 53.5792,16.0695 53.5,17.5C 51.9724,16.1979 50.9724,14.5313 50.5,12.5C 50.1816,10.1816 48.8483,8.84827 46.5,8.5C 43.783,8.85195 41.783,10.1853 40.5,12.5C 38.9731,12.427 37.9731,13.0937 37.5,14.5C 33.4865,12.6658 29.1532,11.9992 24.5,12.5C 35.2266,5.50611 46.8933,3.67277 59.5,7C 63.6133,8.18805 67.28,10.0214 70.5,12.5 Z"/></g>
<g><path style="opacity:0.533" fill="#ffab7f" d="M 69.5,6.5 C 72.9571,6.66721 73.2904,7.66721 70.5,9.5C 69.6143,8.67504 69.281,7.67504 69.5,6.5 Z"/></g>
<g><path style="opacity:1" fill="#7f5826" d="M 50.5,12.5 C 49.1851,11.5244 47.8518,10.5244 46.5,9.5C 44.4664,10.5588 42.4664,11.5588 40.5,12.5C 41.783,10.1853 43.783,8.85195 46.5,8.5C 48.8483,8.84827 50.1816,10.1816 50.5,12.5 Z"/></g>
<g><path style="opacity:0.853" fill="#ff8984" d="M 17.5,9.5 C 18.9778,9.23798 20.3112,9.57131 21.5,10.5C 19.5365,13.1939 18.2032,12.8606 17.5,9.5 Z"/></g>
<g><path style="opacity:0.428" fill="#ffa381" d="M 73.5,9.5 C 74.8333,9.5 76.1667,9.5 77.5,9.5C 77.5,10.5 77.5,11.5 77.5,12.5C 75.0274,12.9118 73.6941,11.9118 73.5,9.5 Z"/></g>
<g><path style="opacity:0.649" fill="#fe7b86" d="M 13.5,13.5 C 14.5,13.5 15.5,13.5 16.5,13.5C 16.5,14.5 16.5,15.5 16.5,16.5C 15.5,16.5 14.5,16.5 13.5,16.5C 13.5,15.5 13.5,14.5 13.5,13.5 Z"/></g>
<g><path style="opacity:1" fill="#6d4b24" d="M 40.5,12.5 C 39.8333,13.8333 38.8333,14.8333 37.5,15.5C 37.5,15.1667 37.5,14.8333 37.5,14.5C 37.9731,13.0937 38.9731,12.427 40.5,12.5 Z"/></g>
<g><path style="opacity:0.514" fill="#ff9982" d="M 78.5,13.5 C 79.5,13.5 80.5,13.5 81.5,13.5C 81.5,14.5 81.5,15.5 81.5,16.5C 80.5,16.5 79.5,16.5 78.5,16.5C 78.5,15.5 78.5,14.5 78.5,13.5 Z"/></g>
<g><path style="opacity:0.997" fill="#fec97d" d="M 70.5,12.5 C 73.7843,14.117 76.4509,16.4503 78.5,19.5C 73.5,20.1667 68.5,20.8333 63.5,21.5C 59.6733,21.2484 56.3399,19.9151 53.5,17.5C 53.5792,16.0695 53.2458,14.7362 52.5,13.5C 58.7741,12.5897 64.7741,12.2564 70.5,12.5 Z"/></g>
<g><path style="opacity:1" fill="#e45f92" d="M 50.5,15.5 C 50.6716,16.4916 50.3382,17.1583 49.5,17.5C 42.229,17.4157 41.229,15.4157 46.5,11.5C 48.2156,12.5487 49.5489,13.882 50.5,15.5 Z"/></g>
<g><path style="opacity:0.984" fill="#fdc67d" d="M 24.5,12.5 C 29.1532,11.9992 33.4865,12.6658 37.5,14.5C 37.5,14.8333 37.5,15.1667 37.5,15.5C 36.2905,15.9321 35.2905,16.5987 34.5,17.5C 32.5887,18.075 30.922,19.075 29.5,20.5C 25.2223,20.6616 20.889,20.3283 16.5,19.5C 18.5491,16.4503 21.2157,14.117 24.5,12.5 Z"/></g>
<g><path style="opacity:0.584" fill="#ff7087" d="M 9.5,17.5 C 10.5,17.5 11.5,17.5 12.5,17.5C 12.5,18.5 12.5,19.5 12.5,20.5C 11.5,20.5 10.5,20.5 9.5,20.5C 9.5,19.5 9.5,18.5 9.5,17.5 Z"/></g>
<g><path style="opacity:0.482" fill="#fe9283" d="M 83.5,17.5 C 85.4759,18.4271 85.8092,19.7605 84.5,21.5C 82.3576,20.5629 82.0243,19.2296 83.5,17.5 Z"/></g>
<g><path style="opacity:1" fill="#f49829" d="M 50.5,12.5 C 50.5,13.5 50.5,14.5 50.5,15.5C 49.5489,13.882 48.2156,12.5487 46.5,11.5C 41.229,15.4157 42.229,17.4157 49.5,17.5C 52.8995,19.038 56.2328,20.8713 59.5,23C 61.6792,22.716 63.6792,22.8826 65.5,23.5C 64.0783,23.7086 62.745,24.2086 61.5,25C 64.3807,26.2506 66.214,28.4173 67,31.5C 68.4764,28.7346 68.6431,26.0679 67.5,23.5C 69.0229,22.2541 70.0229,22.7541 70.5,25C 69.882,27.9745 68.882,30.8078 67.5,33.5C 68.9332,36.333 69.5999,39.333 69.5,42.5C 67.7376,42.6427 66.0709,42.3094 64.5,41.5C 62.7467,38.9952 61.2467,36.3286 60,33.5C 58.7292,32.1175 57.2292,31.1175 55.5,30.5C 54.2529,28.822 52.5862,27.4887 50.5,26.5C 49.7025,26.9569 49.3691,27.6236 49.5,28.5C 44.9312,29.059 40.5979,30.3923 36.5,32.5C 33.895,31.2305 31.5616,29.5639 29.5,27.5C 28.7375,26.7321 27.7375,26.2321 26.5,26C 27.3862,24.3853 28.3862,22.8853 29.5,21.5C 31.7488,20.9202 33.4154,19.5869 34.5,17.5C 35.2905,16.5987 36.2905,15.9321 37.5,15.5C 38.8333,14.8333 39.8333,13.8333 40.5,12.5C 42.4664,11.5588 44.4664,10.5588 46.5,9.5C 47.8518,10.5244 49.1851,11.5244 50.5,12.5 Z"/></g>
<g><path style="opacity:1" fill="#8f5515" d="M 34.5,17.5 C 33.4154,19.5869 31.7488,20.9202 29.5,21.5C 29.5,21.1667 29.5,20.8333 29.5,20.5C 30.922,19.075 32.5887,18.075 34.5,17.5 Z"/></g>
<g><path style="opacity:1" fill="#fef5ea" d="M 48.5,19.5 C 50.0847,20.0024 50.5847,21.0024 50,22.5C 48.9614,21.7562 48.4614,20.7562 48.5,19.5 Z"/></g>
<g><path style="opacity:0.394" fill="#fe6688" d="M 6.5,22.5 C 7.5,22.5 8.5,22.5 9.5,22.5C 9.5,23.5 9.5,24.5 9.5,25.5C 6.43311,25.8795 5.43311,24.8795 6.5,22.5 Z"/></g>
<g><path style="opacity:1" fill="#3f270b" d="M 43.5,20.5 C 43.8966,19.475 44.5632,19.3083 45.5,20C 47.3293,21.1133 48.1626,22.6133 48,24.5C 46.6288,22.9586 45.1288,21.6253 43.5,20.5 Z"/></g>
<g><path style="opacity:0.747" fill="#fe8985" d="M 85.5,23.5 C 86.9778,23.238 88.3112,23.5713 89.5,24.5C 87.5365,27.1939 86.2032,26.8606 85.5,23.5 Z"/></g>
<g><path style="opacity:1" fill="#e65e95" d="M 65.5,23.5 C 66.1667,23.5 66.8333,23.5 67.5,23.5C 68.6431,26.0679 68.4764,28.7346 67,31.5C 66.214,28.4173 64.3807,26.2506 61.5,25C 62.745,24.2086 64.0783,23.7086 65.5,23.5 Z"/></g>
<g><path style="opacity:0.962" fill="#fab47d" d="M 16.5,19.5 C 20.889,20.3283 25.2223,20.6616 29.5,20.5C 29.5,20.8333 29.5,21.1667 29.5,21.5C 28.3862,22.8853 27.3862,24.3853 26.5,26C 27.7375,26.2321 28.7375,26.7321 29.5,27.5C 28.1667,27.5 26.8333,27.5 25.5,27.5C 25.19,26.2617 24.69,26.2617 24,27.5C 22.9914,29.0249 22.4914,30.6916 22.5,32.5C 18.4865,30.6658 14.1532,29.9992 9.5,30.5C 10.6571,26.0243 12.9905,22.3577 16.5,19.5 Z"/></g>
<g><path style="opacity:1" fill="#ffe5b7" d="M 57.5,26.5 C 58.3864,25.2241 59.3864,25.2241 60.5,26.5C 59.5754,27.5624 58.5754,27.5624 57.5,26.5 Z"/></g>
<g><path style="opacity:0.938" fill="#feb580" d="M 78.5,19.5 C 81.8884,22.5971 84.5551,26.2637 86.5,30.5C 81.456,30.1725 76.456,30.5059 71.5,31.5C 71.0576,32.7387 70.3909,33.7387 69.5,34.5C 70.965,30.6109 71.465,26.6109 71,22.5C 68.6194,21.565 66.1194,21.2317 63.5,21.5C 68.5,20.8333 73.5,20.1667 78.5,19.5 Z"/></g>
<g><path style="opacity:0.443" fill="#ff5f89" d="M 4.5,27.5 C 7.14018,28.7936 7.14018,30.127 4.5,31.5C 3.37437,30.1916 3.37437,28.8583 4.5,27.5 Z"/></g>
<g><path style="opacity:1" fill="#f7f6f4" d="M 25.5,27.5 C 26.8333,27.5 28.1667,27.5 29.5,27.5C 31.5616,29.5639 33.895,31.2305 36.5,32.5C 40.5979,30.3923 44.9312,29.059 49.5,28.5C 50.2891,28.7828 50.9558,29.2828 51.5,30C 47.0208,29.2191 46.3541,30.7191 49.5,34.5C 49.8333,35.5 50.5,36.1667 51.5,36.5C 53.7949,37.9281 55.7949,37.4281 57.5,35C 54.0343,33.8938 53.3677,32.3938 55.5,30.5C 57.2292,31.1175 58.7292,32.1175 60,33.5C 61.2467,36.3286 62.7467,38.9952 64.5,41.5C 66.0709,42.3094 67.7376,42.6427 69.5,42.5C 69.5,43.1667 69.8333,43.5 70.5,43.5C 70.5,43.8333 70.5,44.1667 70.5,44.5C 69.9682,50.1523 69.6349,55.819 69.5,61.5C 68.5418,63.3024 67.8751,65.3024 67.5,67.5C 66.5,67.8333 65.8333,68.5 65.5,69.5C 62.8333,69.5 60.1667,69.5 57.5,69.5C 56.8333,69.5 56.1667,69.5 55.5,69.5C 52.3586,68.6787 49.0252,68.1787 45.5,68C 48.6587,64.9177 52.3253,62.5843 56.5,61C 57.3802,59.6439 57.7135,58.1439 57.5,56.5C 59.5328,55.1016 60.5328,53.1016 60.5,50.5C 60.445,47.6402 59.445,45.3069 57.5,43.5C 57.0472,42.5416 56.3805,41.7083 55.5,41C 45.9499,35.0891 37.9499,36.5891 31.5,45.5C 29.7497,46.6594 28.7497,48.326 28.5,50.5C 25.697,56.1616 27.0304,60.9949 32.5,65C 32.2716,65.3988 31.9382,65.5654 31.5,65.5C 28.4021,65.2444 25.4021,64.5778 22.5,63.5C 20.1102,61.6236 19.1102,59.1236 19.5,56C 20.1932,51.4231 21.1932,46.9231 22.5,42.5C 22.5,42.1667 22.5,41.8333 22.5,41.5C 23.3338,36.8973 24.3338,32.2306 25.5,27.5 Z"/></g>
<g><path style="opacity:0.457" fill="#fe8486" d="M 88.5,28.5 C 89.5,28.5 90.5,28.5 91.5,28.5C 91.5,29.5 91.5,30.5 91.5,31.5C 90.5,31.5 89.5,31.5 88.5,31.5C 88.5,30.5 88.5,29.5 88.5,28.5 Z"/></g>
<g><path style="opacity:1" fill="#241a1c" d="M 55.5,30.5 C 53.3677,32.3938 54.0343,33.8938 57.5,35C 55.7949,37.4281 53.7949,37.9281 51.5,36.5C 53.3547,36.728 54.1881,36.0613 54,34.5C 52.0357,32.3123 50.5357,32.3123 49.5,34.5C 46.3541,30.7191 47.0208,29.2191 51.5,30C 50.9558,29.2828 50.2891,28.7828 49.5,28.5C 49.3691,27.6236 49.7025,26.9569 50.5,26.5C 52.5862,27.4887 54.2529,28.822 55.5,30.5 Z"/></g>
<g><path style="opacity:0.482" fill="#ff5a8a" d="M 1.5,33.5 C 2.5,33.5 3.5,33.5 4.5,33.5C 4.5,34.5 4.5,35.5 4.5,36.5C 3.5,36.5 2.5,36.5 1.5,36.5C 1.5,35.5 1.5,34.5 1.5,33.5 Z"/></g>
<g><path style="opacity:1" fill="#845b39" d="M 50.5,12.5 C 50.9724,14.5313 51.9724,16.1979 53.5,17.5C 56.3399,19.9151 59.6733,21.2484 63.5,21.5C 66.1194,21.2317 68.6194,21.565 71,22.5C 71.465,26.6109 70.965,30.6109 69.5,34.5C 70.299,37.4299 70.6323,40.4299 70.5,43.5C 69.8333,43.5 69.5,43.1667 69.5,42.5C 69.5999,39.333 68.9332,36.333 67.5,33.5C 68.882,30.8078 69.882,27.9745 70.5,25C 70.0229,22.7541 69.0229,22.2541 67.5,23.5C 66.8333,23.5 66.1667,23.5 65.5,23.5C 63.6792,22.8826 61.6792,22.716 59.5,23C 56.2328,20.8713 52.8995,19.038 49.5,17.5C 50.3382,17.1583 50.6716,16.4916 50.5,15.5C 50.5,14.5 50.5,13.5 50.5,12.5 Z"/></g>
<g><path style="opacity:1" fill="#d54191" d="M 51.5,36.5 C 50.5,36.1667 49.8333,35.5 49.5,34.5C 50.5357,32.3123 52.0357,32.3123 54,34.5C 54.1881,36.0613 53.3547,36.728 51.5,36.5 Z"/></g>
<g><path style="opacity:0.434" fill="#ff8086" d="M 90.5,34.5 C 91.5,34.5 92.5,34.5 93.5,34.5C 93.5,35.5 93.5,36.5 93.5,37.5C 92.5,37.5 91.5,37.5 90.5,37.5C 90.5,36.5 90.5,35.5 90.5,34.5 Z"/></g>
<g><path style="opacity:1" fill="#88766a" d="M 25.5,27.5 C 24.3338,32.2306 23.3338,36.8973 22.5,41.5C 22.5,38.5 22.5,35.5 22.5,32.5C 22.4914,30.6916 22.9914,29.0249 24,27.5C 24.69,26.2617 25.19,26.2617 25.5,27.5 Z"/></g>
<g><path style="opacity:0.927" fill="#fda380" d="M 9.5,30.5 C 14.1532,29.9992 18.4865,30.6658 22.5,32.5C 22.5,35.5 22.5,38.5 22.5,41.5C 22.5,41.8333 22.5,42.1667 22.5,42.5C 22.1667,42.5 21.8333,42.5 21.5,42.5C 16.1667,39.8333 10.8333,39.8333 5.5,42.5C 5.92638,38.0983 7.25972,34.0983 9.5,30.5 Z"/></g>
<g><path style="opacity:0.69" fill="#ff568b" d="M 0.5,39.5 C 1.5,39.5 2.5,39.5 3.5,39.5C 3.5,40.5 3.5,41.5 3.5,42.5C 2.5,42.5 1.5,42.5 0.5,42.5C 0.5,41.5 0.5,40.5 0.5,39.5 Z"/></g>
<g><path style="opacity:0.377" fill="#fe7e86" d="M 92.5,39.5 C 94.1042,40.287 94.7709,41.6203 94.5,43.5C 93.5,43.5 92.5,43.5 91.5,43.5C 91.4326,42.0413 91.7659,40.7079 92.5,39.5 Z"/></g>
<g><path style="opacity:0.968" fill="#fe9f82" d="M 86.5,30.5 C 88.2831,34.6339 89.2831,38.9672 89.5,43.5C 84.3686,43.4643 79.0352,43.6309 73.5,44C 72.9558,44.7172 72.2891,45.2172 71.5,45.5C 71.5,44.8333 71.1667,44.5 70.5,44.5C 70.5,44.1667 70.5,43.8333 70.5,43.5C 70.6323,40.4299 70.299,37.4299 69.5,34.5C 70.3909,33.7387 71.0576,32.7387 71.5,31.5C 76.456,30.5059 81.456,30.1725 86.5,30.5 Z"/></g>
<g><path style="opacity:1" fill="#f3f2f2" d="M 39.5,40.5 C 39.0198,43.0046 38.0198,45.3379 36.5,47.5C 36.8555,48.5223 37.5222,49.189 38.5,49.5C 38.4142,50.4959 38.7476,51.3292 39.5,52C 42.146,52.4974 44.8127,52.6641 47.5,52.5C 49.5626,54.0818 51.8959,55.4151 54.5,56.5C 54.5,57.1667 54.8333,57.5 55.5,57.5C 55.719,58.675 55.3857,59.675 54.5,60.5C 50.1165,62.352 46.1165,64.6853 42.5,67.5C 41.1667,64.1667 38.8333,61.8333 35.5,60.5C 31.9437,57.7191 30.2771,54.0524 30.5,49.5C 30.8333,48.1667 31.1667,46.8333 31.5,45.5C 34.1667,43.8333 36.8333,42.1667 39.5,40.5 Z"/></g>
<g><path style="opacity:1" fill="#d2a084" d="M 38.5,49.5 C 37.5222,49.189 36.8555,48.5223 36.5,47.5C 38.0198,45.3379 39.0198,43.0046 39.5,40.5C 43.0319,38.9573 46.3652,39.2907 49.5,41.5C 47.4904,42.0653 45.8237,43.0653 44.5,44.5C 46.0863,46.1727 46.7529,48.1727 46.5,50.5C 44.9397,50.5191 43.4397,50.8524 42,51.5C 40.9231,50.5705 39.7564,49.9038 38.5,49.5 Z"/></g>
<g><path style="opacity:0.969" fill="#fe9583" d="M 21.5,42.5 C 20.8333,44.5 20.1667,46.5 19.5,48.5C 14.8333,47.1667 10.1667,47.1667 5.5,48.5C 5.5,46.5 5.5,44.5 5.5,42.5C 10.8333,39.8333 16.1667,39.8333 21.5,42.5 Z"/></g>
<g><path style="opacity:0.433" fill="#fe7e87" d="M 92.5,45.5 C 93.5862,45.62 94.2528,46.2867 94.5,47.5C 93.6964,49.9573 92.6964,49.9573 91.5,47.5C 91.8627,46.8165 92.1961,46.1499 92.5,45.5 Z"/></g>
<g><path style="opacity:0.075" fill="#fe538a" d="M -0.5,48.5 C -0.5,47.8333 -0.5,47.1667 -0.5,46.5C 1.59829,45.0857 2.59829,45.7524 2.5,48.5C 1.5,48.5 0.5,48.5 -0.5,48.5 Z"/></g>
<g><path style="opacity:1" fill="#98736c" d="M 57.5,43.5 C 55.2902,46.8718 54.9568,50.5384 56.5,54.5C 55.7573,55.1818 55.0906,55.8485 54.5,56.5C 51.8959,55.4151 49.5626,54.0818 47.5,52.5C 44.8127,52.6641 42.146,52.4974 39.5,52C 38.7476,51.3292 38.4142,50.4959 38.5,49.5C 39.7564,49.9038 40.9231,50.5705 42,51.5C 43.4397,50.8524 44.9397,50.5191 46.5,50.5C 46.7529,48.1727 46.0863,46.1727 44.5,44.5C 45.8237,43.0653 47.4904,42.0653 49.5,41.5C 46.3652,39.2907 43.0319,38.9573 39.5,40.5C 36.8333,42.1667 34.1667,43.8333 31.5,45.5C 37.9499,36.5891 45.9499,35.0891 55.5,41C 56.3805,41.7083 57.0472,42.5416 57.5,43.5 Z"/></g>
<g><path style="opacity:1" fill="#d5a589" d="M 47.5,52.5 C 48.8165,50.0471 49.6498,47.3805 50,44.5C 51.2988,44.0338 52.7988,44.0338 54.5,44.5C 54.0371,47.4824 53.7038,50.4824 53.5,53.5C 51.3792,53.6747 49.3792,53.3414 47.5,52.5 Z"/></g>
<g><path style="opacity:0.981" fill="#fb8385" d="M 19.5,48.5 C 17.9983,52.3425 17.3316,56.3425 17.5,60.5C 17.5,61.1667 17.1667,61.5 16.5,61.5C 14.0246,62.6874 13.0246,64.6874 13.5,67.5C 12.596,68.209 12.2627,69.209 12.5,70.5C 7.79373,64.0435 5.4604,56.7102 5.5,48.5C 10.1667,47.1667 14.8333,47.1667 19.5,48.5 Z"/></g>
<g><path style="opacity:1" fill="#b66d1e" d="M 57.5,43.5 C 59.445,45.3069 60.445,47.6402 60.5,50.5C 60.5328,53.1016 59.5328,55.1016 57.5,56.5C 56.8333,56.8333 56.1667,57.1667 55.5,57.5C 54.8333,57.5 54.5,57.1667 54.5,56.5C 55.0906,55.8485 55.7573,55.1818 56.5,54.5C 54.9568,50.5384 55.2902,46.8718 57.5,43.5 Z"/></g>
<g><path style="opacity:1" fill="#876158" d="M 21.5,42.5 C 21.8333,42.5 22.1667,42.5 22.5,42.5C 21.1932,46.9231 20.1932,51.4231 19.5,56C 19.1102,59.1236 20.1102,61.6236 22.5,63.5C 20.5887,62.925 18.922,61.925 17.5,60.5C 17.3316,56.3425 17.9983,52.3425 19.5,48.5C 20.1667,46.5 20.8333,44.5 21.5,42.5 Z"/></g>
<g><path style="opacity:1" fill="#3a3a3a" d="M 31.5,45.5 C 31.1667,46.8333 30.8333,48.1667 30.5,49.5C 29.7784,49.9175 29.2784,50.5842 29,51.5C 28.6012,51.2716 28.4346,50.9382 28.5,50.5C 28.7497,48.326 29.7497,46.6594 31.5,45.5 Z"/></g>
<g><path style="opacity:0.689" fill="#fe568b" d="M 0.5,51.5 C 4.30997,52.7542 4.30997,53.7542 0.5,54.5C 0.5,53.5 0.5,52.5 0.5,51.5 Z"/></g>
<g><path style="opacity:0.475" fill="#ff7e87" d="M 92.5,51.5 C 94.4759,52.4271 94.8092,53.7605 93.5,55.5C 91.3576,54.5629 91.0243,53.2296 92.5,51.5 Z"/></g>
<g><path style="opacity:1" fill="#797672" d="M 30.5,49.5 C 30.2771,54.0524 31.9437,57.7191 35.5,60.5C 32.1783,59.3418 30.0117,57.0084 29,53.5C 28.2937,55.9712 28.627,58.3046 30,60.5C 32.3722,62.7032 34.5389,65.0365 36.5,67.5C 34.8828,66.962 33.2161,66.6287 31.5,66.5C 31.5,66.1667 31.5,65.8333 31.5,65.5C 31.9382,65.5654 32.2716,65.3988 32.5,65C 27.0304,60.9949 25.697,56.1616 28.5,50.5C 28.4346,50.9382 28.6012,51.2716 29,51.5C 29.2784,50.5842 29.7784,49.9175 30.5,49.5 Z"/></g>
<g><path style="opacity:1" fill="#fb8783" d="M 89.5,43.5 C 89.6657,47.8461 89.499,52.1794 89,56.5C 88.7599,58.8516 87.9265,60.8516 86.5,62.5C 86.4208,61.0695 86.7542,59.7362 87.5,58.5C 86.675,57.6143 85.675,57.281 84.5,57.5C 83.791,56.596 82.791,56.2627 81.5,56.5C 78.5783,58.0268 75.4116,59.0268 72,59.5C 71.7679,58.2625 71.2679,57.2625 70.5,56.5C 71.3439,52.9009 71.6773,49.2343 71.5,45.5C 72.2891,45.2172 72.9558,44.7172 73.5,44C 79.0352,43.6309 84.3686,43.4643 89.5,43.5 Z"/></g>
<g><path style="opacity:1" fill="#905657" d="M 70.5,44.5 C 71.1667,44.5 71.5,44.8333 71.5,45.5C 71.6773,49.2343 71.3439,52.9009 70.5,56.5C 70.7845,58.4147 70.4511,60.0813 69.5,61.5C 69.6349,55.819 69.9682,50.1523 70.5,44.5 Z"/></g>
<g><path style="opacity:0.475" fill="#ff8187" d="M 90.5,57.5 C 93.5688,57.963 94.0688,59.2963 92,61.5C 90.8118,60.4366 90.3118,59.1033 90.5,57.5 Z"/></g>
<g><path style="opacity:0.52" fill="#ff598a" d="M 1.5,57.5 C 2.5,57.5 3.5,57.5 4.5,57.5C 4.5,58.5 4.5,59.5 4.5,60.5C 3.5,60.5 2.5,60.5 1.5,60.5C 1.5,59.5 1.5,58.5 1.5,57.5 Z"/></g>
<g><path style="opacity:1" fill="#87431f" d="M 81.5,56.5 C 82.791,56.2627 83.791,56.596 84.5,57.5C 83.6676,58.3285 84.001,59.1618 85.5,60C 84.552,60.4828 83.552,60.6495 82.5,60.5C 82.5674,59.0413 82.2341,57.7079 81.5,56.5 Z"/></g>
<g><path style="opacity:1" fill="#f3f1ee" d="M 35.5,60.5 C 37.5,63.1667 39.8333,65.5 42.5,67.5C 40.7411,67.9539 38.7411,67.9539 36.5,67.5C 34.5389,65.0365 32.3722,62.7032 30,60.5C 28.627,58.3046 28.2937,55.9712 29,53.5C 30.0117,57.0084 32.1783,59.3418 35.5,60.5 Z"/></g>
<g><path style="opacity:1" fill="#676562" d="M 35.5,60.5 C 38.8333,61.8333 41.1667,64.1667 42.5,67.5C 39.8333,65.5 37.5,63.1667 35.5,60.5 Z"/></g>
<g><path style="opacity:1" fill="#6b635c" d="M 57.5,56.5 C 57.7135,58.1439 57.3802,59.6439 56.5,61C 52.3253,62.5843 48.6587,64.9177 45.5,68C 49.0252,68.1787 52.3586,68.6787 55.5,69.5C 50.1563,69.666 44.8229,69.4994 39.5,69C 38.2625,68.7679 37.2625,68.2679 36.5,67.5C 38.7411,67.9539 40.7411,67.9539 42.5,67.5C 46.1165,64.6853 50.1165,62.352 54.5,60.5C 55.3857,59.675 55.719,58.675 55.5,57.5C 56.1667,57.1667 56.8333,56.8333 57.5,56.5 Z"/></g>
<g><path style="opacity:1" fill="#875119" d="M 16.5,61.5 C 15.4918,63.5439 14.4918,65.5439 13.5,67.5C 13.0246,64.6874 14.0246,62.6874 16.5,61.5 Z"/></g>
<g><path style="opacity:0.461" fill="#fe8586" d="M 88.5,63.5 C 89.5,63.5 90.5,63.5 91.5,63.5C 91.5,64.5 91.5,65.5 91.5,66.5C 90.5,66.5 89.5,66.5 88.5,66.5C 88.5,65.5 88.5,64.5 88.5,63.5 Z"/></g>
<g><path style="opacity:0.498" fill="#fe5f89" d="M 3.5,63.5 C 4.5,63.5 5.5,63.5 6.5,63.5C 6.5,64.5 6.5,65.5 6.5,66.5C 5.5,66.5 4.5,66.5 3.5,66.5C 3.5,65.5 3.5,64.5 3.5,63.5 Z"/></g>
<g><path style="opacity:1" fill="#f79827" d="M 17.5,60.5 C 18.922,61.925 20.5887,62.925 22.5,63.5C 24.919,65.8624 27.919,66.8624 31.5,66.5C 33.2161,66.6287 34.8828,66.962 36.5,67.5C 37.2625,68.2679 38.2625,68.7679 39.5,69C 44.8229,69.4994 50.1563,69.666 55.5,69.5C 56.1667,69.5 56.8333,69.5 57.5,69.5C 60.305,70.0652 62.9717,71.0652 65.5,72.5C 66.4728,74.1494 67.4728,75.816 68.5,77.5C 68.1201,79.698 68.7868,81.3646 70.5,82.5C 62.254,88.5617 52.9206,90.895 42.5,89.5C 41.9518,86.9748 40.9518,84.6415 39.5,82.5C 38.9478,84.0026 38.9478,85.6693 39.5,87.5C 38.1667,87.5 36.8333,87.5 35.5,87.5C 25.516,85.0042 17.8493,79.3376 12.5,70.5C 12.2627,69.209 12.596,68.209 13.5,67.5C 14.4918,65.5439 15.4918,63.5439 16.5,61.5C 17.1667,61.5 17.5,61.1667 17.5,60.5 Z"/></g>
<g><path style="opacity:1" fill="#794b1c" d="M 22.5,63.5 C 25.4021,64.5778 28.4021,65.2444 31.5,65.5C 31.5,65.8333 31.5,66.1667 31.5,66.5C 27.919,66.8624 24.919,65.8624 22.5,63.5 Z"/></g>
<g><path style="opacity:1" fill="#885055" d="M 69.5,61.5 C 69.9465,64.0101 69.2798,66.0101 67.5,67.5C 67.8751,65.3024 68.5418,63.3024 69.5,61.5 Z"/></g>
<g><path style="opacity:1" fill="#f5c709" d="M 84.5,57.5 C 85.675,57.281 86.675,57.6143 87.5,58.5C 86.7542,59.7362 86.4208,61.0695 86.5,62.5C 84.9925,64.1815 83.9925,66.1815 83.5,68.5C 81.7868,67.3646 81.1201,65.698 81.5,63.5C 81.5569,62.391 81.8902,61.391 82.5,60.5C 83.552,60.6495 84.552,60.4828 85.5,60C 84.001,59.1618 83.6676,58.3285 84.5,57.5 Z"/></g>
<g><path style="opacity:0.522" fill="#ffa04f" d="M 86.5,62.5 C 86.539,65.089 85.539,67.089 83.5,68.5C 83.9925,66.1815 84.9925,64.1815 86.5,62.5 Z"/></g>
<g><path style="opacity:1" fill="#f96c88" d="M 70.5,56.5 C 71.2679,57.2625 71.7679,58.2625 72,59.5C 75.4116,59.0268 78.5783,58.0268 81.5,56.5C 82.2341,57.7079 82.5674,59.0413 82.5,60.5C 81.8902,61.391 81.5569,62.391 81.5,63.5C 80.5386,65.2646 80.2053,67.2646 80.5,69.5C 78.781,73.6117 76.1144,76.945 72.5,79.5C 70.8007,79.4729 69.4674,78.8062 68.5,77.5C 67.4728,75.816 66.4728,74.1494 65.5,72.5C 65.5,71.5 65.5,70.5 65.5,69.5C 65.8333,68.5 66.5,67.8333 67.5,67.5C 69.2798,66.0101 69.9465,64.0101 69.5,61.5C 70.4511,60.0813 70.7845,58.4147 70.5,56.5 Z"/></g>
<g><path style="opacity:0.513" fill="#ff678a" d="M 6.5,68.5 C 7.99525,68.4148 8.99525,69.0815 9.5,70.5C 8.16667,71.8333 6.83333,71.8333 5.5,70.5C 5.86273,69.8165 6.19607,69.1499 6.5,68.5 Z"/></g>
<g><path style="opacity:1" fill="#c48b2a" d="M 81.5,63.5 C 81.1201,65.698 81.7868,67.3646 83.5,68.5C 83.6716,69.4916 83.3382,70.1583 82.5,70.5C 81.8333,70.1667 81.1667,69.8333 80.5,69.5C 80.2053,67.2646 80.5386,65.2646 81.5,63.5 Z"/></g>
<g><path style="opacity:0.334" fill="#fe8b84" d="M 86.5,68.5 C 87.5862,68.62 88.2528,69.2867 88.5,70.5C 87.6964,72.9573 86.6964,72.9573 85.5,70.5C 85.8627,69.8165 86.1961,69.1499 86.5,68.5 Z"/></g>
<g><path style="opacity:1" fill="#715a4b" d="M 57.5,69.5 C 60.1667,69.5 62.8333,69.5 65.5,69.5C 65.5,70.5 65.5,71.5 65.5,72.5C 62.9717,71.0652 60.305,70.0652 57.5,69.5 Z"/></g>
<g><path style="opacity:1" fill="#b06f68" d="M 80.5,69.5 C 81.1667,69.8333 81.8333,70.1667 82.5,70.5C 80.5698,74.1002 77.9031,77.1002 74.5,79.5C 73.8333,79.5 73.1667,79.5 72.5,79.5C 76.1144,76.945 78.781,73.6117 80.5,69.5 Z"/></g>
<g><path style="opacity:0.522" fill="#ff9284" d="M 83.5,73.5 C 86.1402,74.7936 86.1402,76.127 83.5,77.5C 82.3744,76.1916 82.3744,74.8583 83.5,73.5 Z"/></g>
<g><path style="opacity:0.576" fill="#ff7187" d="M 9.5,73.5 C 13.31,74.7542 13.31,75.7542 9.5,76.5C 9.5,75.5 9.5,74.5 9.5,73.5 Z"/></g>
<g><path style="opacity:0.46" fill="#ff7c86" d="M 13.5,78.5 C 14.5,78.5 15.5,78.5 16.5,78.5C 16.5,79.5 16.5,80.5 16.5,81.5C 15.5,81.5 14.5,81.5 13.5,81.5C 13.5,80.5 13.5,79.5 13.5,78.5 Z"/></g>
<g><path style="opacity:0.509" fill="#ff9a83" d="M 78.5,78.5 C 79.5,78.5 80.5,78.5 81.5,78.5C 81.5,79.5 81.5,80.5 81.5,81.5C 80.5,81.5 79.5,81.5 78.5,81.5C 78.5,80.5 78.5,79.5 78.5,78.5 Z"/></g>
<g><path style="opacity:1" fill="#ac6331" d="M 68.5,77.5 C 69.4674,78.8062 70.8007,79.4729 72.5,79.5C 73.1667,79.5 73.8333,79.5 74.5,79.5C 73.7377,81.2624 72.4044,82.2624 70.5,82.5C 68.7868,81.3646 68.1201,79.698 68.5,77.5 Z"/></g>
<g><path style="opacity:0.354" fill="#ff8784" d="M 17.5,82.5 C 18.5,82.5 19.5,82.5 20.5,82.5C 20.5,83.5 20.5,84.5 20.5,85.5C 19.5,85.5 18.5,85.5 17.5,85.5C 17.5,84.5 17.5,83.5 17.5,82.5 Z"/></g>
<g><path style="opacity:0.395" fill="#ffa582" d="M 73.5,82.5 C 75.3464,82.2222 76.6798,82.8888 77.5,84.5C 76.3112,85.4287 74.9778,85.762 73.5,85.5C 73.5,84.5 73.5,83.5 73.5,82.5 Z"/></g>
<g><path style="opacity:0.695" fill="#fe9582" d="M 23.5,85.5 C 25.0481,85.8212 25.7148,86.8212 25.5,88.5C 22.7524,88.5983 22.0857,87.5983 23.5,85.5 Z"/></g>
<g><path style="opacity:1" fill="#ae622a" d="M 42.5,89.5 C 39.8478,89.5905 37.5145,88.9238 35.5,87.5C 36.8333,87.5 38.1667,87.5 39.5,87.5C 38.9478,85.6693 38.9478,84.0026 39.5,82.5C 40.9518,84.6415 41.9518,86.9748 42.5,89.5 Z"/></g>
<g><path style="opacity:0.515" fill="#ffae80" d="M 69.5,85.5 C 70.9953,85.4148 71.9953,86.0815 72.5,87.5C 71.1667,88.8333 69.8333,88.8333 68.5,87.5C 68.8627,86.8165 69.1961,86.1499 69.5,85.5 Z"/></g>
<g><path style="opacity:0.411" fill="#ffa681" d="M 27.5,88.5 C 28.8333,88.5 30.1667,88.5 31.5,88.5C 31.5,89.5 31.5,90.5 31.5,91.5C 29.0274,91.9118 27.6941,90.9118 27.5,88.5 Z"/></g>
<g><path style="opacity:0.482" fill="#ffbb7f" d="M 63.5,88.5 C 64.5,88.5 65.5,88.5 66.5,88.5C 66.5,89.5 66.5,90.5 66.5,91.5C 65.5,91.5 64.5,91.5 63.5,91.5C 63.5,90.5 63.5,89.5 63.5,88.5 Z"/></g>
<g><path style="opacity:0.432" fill="#ffb67f" d="M 33.5,90.5 C 34.9778,90.238 36.3112,90.5713 37.5,91.5C 36.6798,93.1112 35.3464,93.7778 33.5,93.5C 33.5,92.5 33.5,91.5 33.5,90.5 Z"/></g>
<g><path style="opacity:0.534" fill="#ffc67d" d="M 57.5,90.5 C 58.5,90.5 59.5,90.5 60.5,90.5C 60.5,91.5 60.5,92.5 60.5,93.5C 59.5,93.5 58.5,93.5 57.5,93.5C 57.5,92.5 57.5,91.5 57.5,90.5 Z"/></g>
<g><path style="opacity:0.502" fill="#fec67e" d="M 39.5,91.5 C 40.5,91.5 41.5,91.5 42.5,91.5C 42.5,92.5 42.5,93.5 42.5,94.5C 41.5,94.5 40.5,94.5 39.5,94.5C 39.5,93.5 39.5,92.5 39.5,91.5 Z"/></g>
<g><path style="opacity:0.596" fill="#ffd77b" d="M 47.5,95.5 C 47.1667,95.5 46.8333,95.5 46.5,95.5C 45.0651,94.0152 45.2317,92.6819 47,91.5C 48.7683,92.6819 48.9349,94.0152 47.5,95.5 Z"/></g>
<g><path style="opacity:0.182" fill="#ffd57d" d="M 51.5,91.5 C 52.5,91.5 53.5,91.5 54.5,91.5C 54.5,92.5 54.5,93.5 54.5,94.5C 53.5,94.5 52.5,94.5 51.5,94.5C 51.5,93.5 51.5,92.5 51.5,91.5 Z"/></g>
</svg>
