<?xml version="1.0" encoding="UTF-8"?>
<!DOCTYPE svg PUBLIC "-//W3C//DTD SVG 1.1//EN" "http://www.w3.org/Graphics/SVG/1.1/DTD/svg11.dtd">
<svg xmlns="http://www.w3.org/2000/svg" version="1.1" width="96px" height="96px" style="shape-rendering:geometricPrecision; text-rendering:geometricPrecision; image-rendering:optimizeQuality; fill-rule:evenodd; clip-rule:evenodd" xmlns:xlink="http://www.w3.org/1999/xlink">
<g><path style="opacity:1" fill="#eab858" d="M 54.5,4.5 C 56.7857,4.59495 58.7857,5.26162 60.5,6.5C 70.6814,11.3437 78.6814,18.677 84.5,28.5C 83.336,28.1654 82.0026,28.1654 80.5,28.5C 72.7413,17.4495 62.0747,11.2828 48.5,10C 50.3962,7.93204 52.3962,6.0987 54.5,4.5 Z"/></g>
<g><path style="opacity:0.923" fill="#fbd272" d="M 45.5,-0.5 C 46.1667,-0.5 46.8333,-0.5 47.5,-0.5C 47.5,0.5 47.5,1.5 47.5,2.5C 46.2291,4.10858 45.2291,5.94192 44.5,8C 36.8124,9.72574 29.8124,12.8924 23.5,17.5C 22.0499,16.1502 21.3832,14.4835 21.5,12.5C 27.3037,8.60042 33.637,5.76708 40.5,4C 42.2395,2.48305 43.9062,0.983048 45.5,-0.5 Z"/></g>
<g><path style="opacity:0.991" fill="#fbe199" d="M 47.5,2.5 C 47.5,5.16667 47.5,7.83333 47.5,10.5C 34.079,10.7074 23.7456,16.3741 16.5,27.5C 15.8333,27.1667 15.1667,26.8333 14.5,26.5C 13.4324,25.5655 12.099,25.2322 10.5,25.5C 13.0464,20.2814 16.7131,15.9481 21.5,12.5C 21.3832,14.4835 22.0499,16.1502 23.5,17.5C 29.8124,12.8924 36.8124,9.72574 44.5,8C 45.2291,5.94192 46.2291,4.10858 47.5,2.5 Z"/></g>
<g><path style="opacity:1" fill="#9717e4" d="M 77.5,35.5 C 77.5654,35.9382 77.3988,36.2716 77,36.5C 72.1422,29.3283 65.6422,23.8283 57.5,20C 54.8323,19.433 52.1656,18.933 49.5,18.5C 35.7476,17.9193 26.0809,23.9193 20.5,36.5C 19.7784,36.9175 19.2784,37.5842 19,38.5C 18.4536,45.1843 18.6203,51.8509 19.5,58.5C 18.5,58.5 17.5,58.5 16.5,58.5C 14.7671,52.6544 14.1004,46.6544 14.5,40.5C 23.1949,17.6545 39.1949,10.1545 62.5,18C 69.9,21.8911 74.9,27.7244 77.5,35.5 Z"/></g>
<g><path style="opacity:1" fill="#cf8615" d="M 47.5,-0.5 C 48.1667,-0.5 48.8333,-0.5 49.5,-0.5C 51.3603,0.938669 53.027,2.60534 54.5,4.5C 52.3962,6.0987 50.3962,7.93204 48.5,10C 62.0747,11.2828 72.7413,17.4495 80.5,28.5C 82.0026,28.1654 83.336,28.1654 84.5,28.5C 78.6814,18.677 70.6814,11.3437 60.5,6.5C 77.1829,11.8542 87.1829,23.1875 90.5,40.5C 88.9013,42.6038 87.068,44.6038 85,46.5C 83.7702,35.5861 82.7702,35.2528 82,45.5C 81.921,43.2636 81.421,41.9303 80.5,41.5C 79.7972,39.3713 78.7972,37.3713 77.5,35.5C 74.9,27.7244 69.9,21.8911 62.5,18C 39.1949,10.1545 23.1949,17.6545 14.5,40.5C 13.5426,41.3836 12.7093,43.0503 12,45.5C 11.5045,43.5273 11.3379,41.5273 11.5,39.5C 12.0768,35.0169 13.7435,31.0169 16.5,27.5C 23.7456,16.3741 34.079,10.7074 47.5,10.5C 47.5,7.83333 47.5,5.16667 47.5,2.5C 47.5,1.5 47.5,0.5 47.5,-0.5 Z"/></g>
<g><path style="opacity:1" fill="#b853ec" d="M 49.5,18.5 C 48.2825,19.1614 46.9492,19.8281 45.5,20.5C 46.7853,23.0205 47.4519,25.6872 47.5,28.5C 44.314,27.6028 43.6473,28.9361 45.5,32.5C 41.9744,35.0938 38.3077,37.4271 34.5,39.5C 34.2172,38.7109 33.7172,38.0442 33,37.5C 29.7388,41.4427 26.2388,41.9427 22.5,39C 24.3963,37.9354 24.563,37.1021 23,36.5C 22.0546,36.9054 21.3879,37.572 21,38.5C 20.5357,37.9056 20.369,37.2389 20.5,36.5C 26.0809,23.9193 35.7476,17.9193 49.5,18.5 Z"/></g>
<g><path style="opacity:1" fill="#faf0fd" d="M 47.5,28.5 C 53.7014,31.8596 59.5347,35.8596 65,40.5C 65.8275,44.8713 65.6609,49.2047 64.5,53.5C 63.8165,53.1373 63.1499,52.8039 62.5,52.5C 58.1256,48.8126 53.1256,46.4793 47.5,45.5C 47.178,47.7224 47.8446,49.5557 49.5,51C 55.4204,53.781 60.7537,57.281 65.5,61.5C 65.1667,62.1667 64.8333,62.8333 64.5,63.5C 57.5368,59.6994 50.7035,55.6994 44,51.5C 42.4123,44.3773 45.2456,41.2106 52.5,42C 55.4185,43.7088 58.2518,45.5421 61,47.5C 61.6667,45.5 61.6667,43.5 61,41.5C 57.6553,38.661 53.9886,36.3276 50,34.5C 46.4346,36.3666 42.9346,38.3666 39.5,40.5C 38.1667,45.5 38.1667,50.5 39.5,55.5C 42.6728,57.5872 46.0061,59.4205 49.5,61C 50.3802,62.3561 50.7135,63.8561 50.5,65.5C 45.5169,62.862 40.5169,60.1953 35.5,57.5C 32.9036,56.3601 30.9036,54.5267 29.5,52C 30.8731,50.5213 32.3731,50.688 34,52.5C 34.499,48.1794 34.6657,43.8461 34.5,39.5C 38.3077,37.4271 41.9744,35.0938 45.5,32.5C 43.6473,28.9361 44.314,27.6028 47.5,28.5 Z"/></g>
<g><path style="opacity:1" fill="#f6aa39" d="M 10.5,25.5 C 12.099,25.2322 13.4324,25.5655 14.5,26.5C 11.4957,32.1796 9.4957,38.1796 8.5,44.5C 5.72116,44.2786 3.05449,44.612 0.5,45.5C 4.02687,38.9123 7.3602,32.2456 10.5,25.5 Z"/></g>
<g><path style="opacity:1" fill="#b332ea" d="M 49.5,18.5 C 52.1656,18.933 54.8323,19.433 57.5,20C 65.6422,23.8283 72.1422,29.3283 77,36.5C 77.3988,36.2716 77.5654,35.9382 77.5,35.5C 78.7972,37.3713 79.7972,39.3713 80.5,41.5C 80.9342,48.4039 79.9342,55.0705 77.5,61.5C 76.1798,63.4632 74.8465,65.4632 73.5,67.5C 71.1616,61.3251 67.1616,56.4917 61.5,53C 61.7284,52.6012 62.0618,52.4346 62.5,52.5C 63.1499,52.8039 63.8165,53.1373 64.5,53.5C 65.6609,49.2047 65.8275,44.8713 65,40.5C 59.5347,35.8596 53.7014,31.8596 47.5,28.5C 47.4519,25.6872 46.7853,23.0205 45.5,20.5C 46.9492,19.8281 48.2825,19.1614 49.5,18.5 Z"/></g>
<g><path style="opacity:1" fill="#fbd268" d="M 14.5,26.5 C 15.1667,26.8333 15.8333,27.1667 16.5,27.5C 13.7435,31.0169 12.0768,35.0169 11.5,39.5C 10.5269,41.9479 10.1936,44.6146 10.5,47.5C 6.83333,47.5 3.16667,47.5 -0.5,47.5C -0.5,46.8333 -0.5,46.1667 -0.5,45.5C -0.166667,45.5 0.166667,45.5 0.5,45.5C 3.05449,44.612 5.72116,44.2786 8.5,44.5C 9.4957,38.1796 11.4957,32.1796 14.5,26.5 Z"/></g>
<g><path style="opacity:1" fill="#cb4ef1" d="M 20.5,36.5 C 20.369,37.2389 20.5357,37.9056 21,38.5C 21.3879,37.572 22.0546,36.9054 23,36.5C 24.563,37.1021 24.3963,37.9354 22.5,39C 26.2388,41.9427 29.7388,41.4427 33,37.5C 33.7172,38.0442 34.2172,38.7109 34.5,39.5C 34.6657,43.8461 34.499,48.1794 34,52.5C 32.3731,50.688 30.8731,50.5213 29.5,52C 30.9036,54.5267 32.9036,56.3601 35.5,57.5C 31.5325,59.9726 28.8658,63.4726 27.5,68C 28.1007,69.605 29.1007,70.9384 30.5,72C 29.2625,72.2321 28.2625,72.7321 27.5,73.5C 22.1243,69.7466 18.4576,64.7466 16.5,58.5C 17.5,58.5 18.5,58.5 19.5,58.5C 18.6203,51.8509 18.4536,45.1843 19,38.5C 19.2784,37.5842 19.7784,36.9175 20.5,36.5 Z"/></g>
<g><path style="opacity:1" fill="#ebae22" d="M 90.5,40.5 C 92.3947,41.973 94.0613,43.6397 95.5,45.5C 95.5,46.1667 95.5,46.8333 95.5,47.5C 91.8333,47.5 88.1667,47.5 84.5,47.5C 84.8741,53.3698 83.5407,58.7032 80.5,63.5C 78.8212,63.7148 77.8212,63.0481 77.5,61.5C 79.9342,55.0705 80.9342,48.4039 80.5,41.5C 81.421,41.9303 81.921,43.2636 82,45.5C 82.7702,35.2528 83.7702,35.5861 85,46.5C 87.068,44.6038 88.9013,42.6038 90.5,40.5 Z"/></g>
<g><path style="opacity:1" fill="#d74bf4" d="M 62.5,52.5 C 62.0618,52.4346 61.7284,52.6012 61.5,53C 67.1616,56.4917 71.1616,61.3251 73.5,67.5C 70.2386,71.7867 66.2386,75.12 61.5,77.5C 60.8333,77.5 60.1667,77.5 59.5,77.5C 58.8826,77.3893 58.3826,77.056 58,76.5C 58.1299,71.4266 56.1299,67.4266 52,64.5C 51.6174,65.056 51.1174,65.3893 50.5,65.5C 50.7135,63.8561 50.3802,62.3561 49.5,61C 46.0061,59.4205 42.6728,57.5872 39.5,55.5C 38.1667,50.5 38.1667,45.5 39.5,40.5C 42.9346,38.3666 46.4346,36.3666 50,34.5C 53.9886,36.3276 57.6553,38.661 61,41.5C 61.6667,43.5 61.6667,45.5 61,47.5C 58.2518,45.5421 55.4185,43.7088 52.5,42C 45.2456,41.2106 42.4123,44.3773 44,51.5C 50.7035,55.6994 57.5368,59.6994 64.5,63.5C 64.8333,62.8333 65.1667,62.1667 65.5,61.5C 60.7537,57.281 55.4204,53.781 49.5,51C 47.8446,49.5557 47.178,47.7224 47.5,45.5C 53.1256,46.4793 58.1256,48.8126 62.5,52.5 Z"/></g>
<g><path style="opacity:1" fill="#f4b926" d="M 11.5,39.5 C 11.3379,41.5273 11.5045,43.5273 12,45.5C 12.7093,43.0503 13.5426,41.3836 14.5,40.5C 14.1004,46.6544 14.7671,52.6544 16.5,58.5C 18.4576,64.7466 22.1243,69.7466 27.5,73.5C 37.397,81.102 48.0637,82.4354 59.5,77.5C 60.1667,77.5 60.8333,77.5 61.5,77.5C 63.5492,77.7058 63.8825,78.5391 62.5,80C 53.7762,83.576 44.7762,84.4093 35.5,82.5C 19.5779,76.3435 11.2446,64.6769 10.5,47.5C 10.1936,44.6146 10.5269,41.9479 11.5,39.5 Z"/></g>
<g><path style="opacity:0.898" fill="#c38824" d="M 90.5,54.5 C 86.1667,74.1667 74.1667,86.1667 54.5,90.5C 53.9094,89.8485 53.2427,89.1818 52.5,88.5C 73.4561,84.8789 85.1228,72.5456 87.5,51.5C 88.2876,52.7701 89.2876,53.7701 90.5,54.5 Z"/></g>
<g><path style="opacity:1" fill="#a75f04" d="M -0.5,47.5 C 3.16667,47.5 6.83333,47.5 10.5,47.5C 11.2446,64.6769 19.5779,76.3435 35.5,82.5C 53.3503,87.6045 67.8503,82.6045 79,67.5C 79.7914,66.255 80.2914,64.9217 80.5,63.5C 83.5407,58.7032 84.8741,53.3698 84.5,47.5C 88.1667,47.5 91.8333,47.5 95.5,47.5C 95.5,48.1667 95.5,48.8333 95.5,49.5C 94.0613,51.3603 92.3947,53.027 90.5,54.5C 89.2876,53.7701 88.2876,52.7701 87.5,51.5C 85.1228,72.5456 73.4561,84.8789 52.5,88.5C 53.2427,89.1818 53.9094,89.8485 54.5,90.5C 53.027,92.3947 51.3603,94.0613 49.5,95.5C 48.1667,95.5 46.8333,95.5 45.5,95.5C 43.9062,94.017 42.2395,92.517 40.5,91C 20.9733,86.14 8.80668,73.9734 4,54.5C 2.26401,52.9368 0.764005,51.2701 -0.5,49.5C -0.5,48.8333 -0.5,48.1667 -0.5,47.5 Z"/></g>
<g><path style="opacity:1" fill="#f9e98d" d="M 77.5,61.5 C 77.8212,63.0481 78.8212,63.7148 80.5,63.5C 80.2914,64.9217 79.7914,66.255 79,67.5C 67.8503,82.6045 53.3503,87.6045 35.5,82.5C 44.7762,84.4093 53.7762,83.576 62.5,80C 63.8825,78.5391 63.5492,77.7058 61.5,77.5C 66.2386,75.12 70.2386,71.7867 73.5,67.5C 74.8465,65.4632 76.1798,63.4632 77.5,61.5 Z"/></g>
<g><path style="opacity:1" fill="#ec57f9" d="M 35.5,57.5 C 40.5169,60.1953 45.5169,62.862 50.5,65.5C 51.1174,65.3893 51.6174,65.056 52,64.5C 56.1299,67.4266 58.1299,71.4266 58,76.5C 58.3826,77.056 58.8826,77.3893 59.5,77.5C 48.0637,82.4354 37.397,81.102 27.5,73.5C 28.2625,72.7321 29.2625,72.2321 30.5,72C 29.1007,70.9384 28.1007,69.605 27.5,68C 28.8658,63.4726 31.5325,59.9726 35.5,57.5 Z"/></g>
</svg>
