<?xml version="1.0" encoding="UTF-8"?>
<!DOCTYPE svg PUBLIC "-//W3C//DTD SVG 1.1//EN" "http://www.w3.org/Graphics/SVG/1.1/DTD/svg11.dtd">
<svg xmlns="http://www.w3.org/2000/svg" version="1.1" width="96px" height="96px" style="shape-rendering:geometricPrecision; text-rendering:geometricPrecision; image-rendering:optimizeQuality; fill-rule:evenodd; clip-rule:evenodd" xmlns:xlink="http://www.w3.org/1999/xlink">
<g><path style="opacity:0.971" fill="#7f06eb" d="M 37.5,-0.5 C 44.1667,-0.5 50.8333,-0.5 57.5,-0.5C 77.1667,5.16667 89.8333,17.8333 95.5,37.5C 95.5,44.1667 95.5,50.8333 95.5,57.5C 89.8333,77.1667 77.1667,89.8333 57.5,95.5C 50.8333,95.5 44.1667,95.5 37.5,95.5C 17.8333,89.8333 5.16667,77.1667 -0.5,57.5C -0.5,50.8333 -0.5,44.1667 -0.5,37.5C 5.16667,17.8333 17.8333,5.16667 37.5,-0.5 Z"/></g>
<g><path style="opacity:1" fill="#faf6fe" d="M 61.5,10.5 C 64.2105,11.222 66.8772,11.5553 69.5,11.5C 68.1667,13.5 68.1667,15.5 69.5,17.5C 67.0709,17.4213 64.5709,17.7547 62,18.5C 62.8059,15.829 62.6393,13.1623 61.5,10.5 Z"/></g>
<g><path style="opacity:1" fill="#f9f3fe" d="M 68.5,26.5 C 69.0967,26.7352 69.4301,27.2352 69.5,28C 68.2659,32.5351 66.9325,37.0351 65.5,41.5C 67.1649,46.1551 68.8316,50.8218 70.5,55.5C 70,55.8333 69.5,56.1667 69,56.5C 64.3782,55.0112 59.7115,53.6779 55,52.5C 51.5,53.6667 48,54.8333 44.5,56C 36.191,63.9769 28.191,72.3103 20.5,81C 19.2068,81.49 17.8734,81.6567 16.5,81.5C 16.3433,80.1266 16.51,78.7932 17,77.5C 25,70.1667 33,62.8333 41,55.5C 42.371,51.0536 43.5376,46.5536 44.5,42C 42.8897,37.1907 41.723,32.3573 41,27.5C 45.4488,28.9051 49.9488,30.2385 54.5,31.5C 59.4114,30.1986 64.0781,28.532 68.5,26.5 Z"/></g>
<g><path style="opacity:1" fill="#faf5fe" d="M 34.5,32.5 C 35.6566,40.6563 35.8232,48.9896 35,57.5C 34,58.5 33,59.5 32,60.5C 31.8303,54.4725 31.3303,48.4725 30.5,42.5C 25.1573,47.6935 19.8239,52.5268 14.5,57C 13.8333,56.3333 13.1667,55.6667 12.5,55C 20.0358,47.6316 27.3692,40.1316 34.5,32.5 Z"/></g>
<g><path style="opacity:1" fill="#f9f3fe" d="M 74.5,33.5 C 77.1853,34.1411 79.852,34.4744 82.5,34.5C 81.1667,36.5 81.1667,38.5 82.5,40.5C 80.2044,40.6532 77.871,40.9865 75.5,41.5C 75.728,38.8908 75.3946,36.2241 74.5,33.5 Z"/></g>
<g><path style="opacity:1" fill="#7f14eb" d="M 62.5,32.5 C 63.3764,32.3691 64.0431,32.7025 64.5,33.5C 63.1951,36.0531 62.1951,38.7198 61.5,41.5C 62.5,44.1667 63.5,46.8333 64.5,49.5C 61.3243,50.2624 58.1576,49.929 55,48.5C 52.2391,49.3084 49.5724,50.3084 47,51.5C 47.0776,48.3325 47.5776,45.1659 48.5,42C 47.7245,39.1776 47.0579,36.3443 46.5,33.5C 49.3761,33.9272 52.2094,34.5938 55,35.5C 57.7196,34.7667 60.2196,33.7667 62.5,32.5 Z"/></g>
<g><path style="opacity:1" fill="#f9f3fe" d="M 54.5,67.5 C 55.0431,67.44 55.3764,67.1067 55.5,66.5C 49.6805,65.8332 44.0139,65.1665 38.5,64.5C 39.2891,64.2172 39.9558,63.7172 40.5,63C 48.5,62.3333 56.5,62.3333 64.5,63C 57.319,70.348 49.9857,77.5146 42.5,84.5C 41.354,83.8551 40.354,83.0217 39.5,82C 44.3687,76.9635 49.3687,72.1302 54.5,67.5 Z"/></g>
<g><path style="opacity:1" fill="#be83f4" d="M 38.5,64.5 C 44.0139,65.1665 49.6805,65.8332 55.5,66.5C 55.3764,67.1067 55.0431,67.44 54.5,67.5C 48.9861,66.8335 43.3195,66.1668 37.5,65.5C 37.6236,64.8933 37.9569,64.56 38.5,64.5 Z"/></g>
</svg>
