<?xml version="1.0" encoding="UTF-8"?>
<!DOCTYPE svg PUBLIC "-//W3C//DTD SVG 1.1//EN" "http://www.w3.org/Graphics/SVG/1.1/DTD/svg11.dtd">
<svg xmlns="http://www.w3.org/2000/svg" version="1.1" width="96px" height="96px" style="shape-rendering:geometricPrecision; text-rendering:geometricPrecision; image-rendering:optimizeQuality; fill-rule:evenodd; clip-rule:evenodd" xmlns:xlink="http://www.w3.org/1999/xlink">
<g><path style="opacity:0.357" fill="#06070b" d="M 85.5,10.5 C 85.6495,9.44802 85.4828,8.44802 85,7.5C 84.0197,8.98138 82.853,10.3147 81.5,11.5C 82.5353,13.1284 82.5353,14.795 81.5,16.5C 81.1667,16.5 80.8333,16.5 80.5,16.5C 79.5804,14.1191 79.5804,11.7857 80.5,9.5C 82.1667,8.5 83.5,7.16667 84.5,5.5C 86.6071,6.9134 86.9405,8.58007 85.5,10.5 Z"/></g>
<g><path style="opacity:0.09" fill="#090b0e" d="M 80.5,16.5 C 80.5,17.1667 80.5,17.8333 80.5,18.5C 77.6477,19.7232 76.9811,21.7232 78.5,24.5C 78.5,24.8333 78.5,25.1667 78.5,25.5C 75.9964,23.3178 75.3297,20.6511 76.5,17.5C 77.6888,16.5713 79.0222,16.238 80.5,16.5 Z"/></g>
<g><path style="opacity:0.786" fill="#0d0f13" d="M 52.5,21.5 C 51.5343,24.1247 50.5343,24.1247 49.5,21.5C 48.0082,23.2082 47.6749,24.8748 48.5,26.5C 49.2899,27.7942 50.2899,28.9609 51.5,30C 50.8333,30.6667 50.1667,30.6667 49.5,30C 44.4459,24.9459 39.4459,19.9459 34.5,15C 32.5789,14.6397 30.9122,13.8064 29.5,12.5C 28.2638,13.2458 26.9305,13.5792 25.5,13.5C 26.4961,12.3349 27.8295,11.6682 29.5,11.5C 32.8204,12.2974 36.1538,12.9641 39.5,13.5C 39.3505,14.552 39.5172,15.552 40,16.5C 45.5708,14.7635 49.7374,16.4302 52.5,21.5 Z"/></g>
<g><path style="opacity:1" fill="#415c7b" d="M 40.5,18.5 C 40.7352,17.9033 41.2352,17.5699 42,17.5C 43.5,18 45,18.5 46.5,19C 46.1667,19.3333 45.8333,19.6667 45.5,20C 46.9561,20.4226 47.4561,21.2559 47,22.5C 46.2825,23.4506 45.4491,23.6172 44.5,23C 42.9297,21.6032 41.5964,20.1032 40.5,18.5 Z"/></g>
<g><path style="opacity:1" fill="#405977" d="M 80.5,18.5 C 80.405,20.7857 79.7384,22.7857 78.5,24.5C 76.9811,21.7232 77.6477,19.7232 80.5,18.5 Z"/></g>
<g><path style="opacity:1" fill="#181a1f" d="M 25.5,13.5 C 23.7215,14.6697 22.7215,16.3364 22.5,18.5C 29.1667,19.1667 29.1667,19.8333 22.5,20.5C 22.5,21.8333 22.5,23.1667 22.5,24.5C 25.6523,24.1167 28.319,23.45 30.5,22.5C 31.1667,22.5 31.5,22.8333 31.5,23.5C 28.8375,25.2681 25.8375,25.9347 22.5,25.5C 22.5,26.8333 22.5,28.1667 22.5,29.5C 24.2191,30.0221 25.5525,31.0221 26.5,32.5C 24.8053,31.9886 23.1386,31.3219 21.5,30.5C 19.4987,25.5247 19.3321,20.5247 21,15.5C 22.1096,13.9632 23.6096,13.2965 25.5,13.5 Z"/></g>
<g><path style="opacity:1" fill="#242834" d="M 80.5,16.5 C 80.8333,16.5 81.1667,16.5 81.5,16.5C 81.5,23.5 81.5,30.5 81.5,37.5C 81.1667,37.5 80.8333,37.5 80.5,37.5C 80.5,34.8333 80.5,32.1667 80.5,29.5C 80.8432,27.5168 80.1765,26.1834 78.5,25.5C 78.5,25.1667 78.5,24.8333 78.5,24.5C 79.7384,22.7857 80.405,20.7857 80.5,18.5C 80.5,17.8333 80.5,17.1667 80.5,16.5 Z"/></g>
<g><path style="opacity:1" fill="#80869a" d="M 31.5,23.5 C 32.5862,23.62 33.2528,24.2867 33.5,25.5C 33.1667,26.1667 32.8333,26.8333 32.5,27.5C 29.2565,27.6584 25.9232,28.3251 22.5,29.5C 22.5,28.1667 22.5,26.8333 22.5,25.5C 25.8375,25.9347 28.8375,25.2681 31.5,23.5 Z"/></g>
<g><path style="opacity:1" fill="#445f7f" d="M 60.5,41.5 C 59.0748,38.3116 57.4081,35.3116 55.5,32.5C 56.3382,32.1583 56.6716,31.4916 56.5,30.5C 57.1174,30.3893 57.6174,30.056 58,29.5C 58.3333,30.8333 58.6667,32.1667 59,33.5C 61,30.8333 63,28.1667 65,25.5C 65.6869,27.5675 65.5202,29.5675 64.5,31.5C 65.1667,32.1667 65.8333,32.8333 66.5,33.5C 65.0186,34.4803 63.6853,35.647 62.5,37C 63.3081,37.3076 63.9747,37.8076 64.5,38.5C 63.1482,39.5244 61.8149,40.5244 60.5,41.5 Z"/></g>
<g><path style="opacity:1" fill="#484e62" d="M 48.5,26.5 C 50.0913,25.7811 51.5913,24.7811 53,23.5C 53.6172,24.4491 53.4506,25.2825 52.5,26C 53.1667,26.3333 53.8333,26.6667 54.5,27C 51.9211,28.6117 51.9211,30.1117 54.5,31.5C 55.1067,31.3764 55.44,31.0431 55.5,30.5C 55.8333,30.5 56.1667,30.5 56.5,30.5C 56.6716,31.4916 56.3382,32.1583 55.5,32.5C 54.6236,32.3691 53.9569,32.7025 53.5,33.5C 59.136,38.1316 59.8026,43.2983 55.5,49C 51.7677,48.812 48.9344,50.312 47,53.5C 46.6851,50.8532 45.5184,50.1865 43.5,51.5C 42.7492,50.624 42.2492,49.624 42,48.5C 41.2825,49.4506 40.4491,49.6172 39.5,49C 40.8613,47.4157 41.528,45.5824 41.5,43.5C 39.7073,45.4261 38.7073,47.7594 38.5,50.5C 37.7354,50.0766 36.9021,49.7432 36,49.5C 34.3566,50.3146 32.8566,51.3146 31.5,52.5C 30.8333,52.5 30.5,52.1667 30.5,51.5C 30.5,49.1667 30.5,46.8333 30.5,44.5C 31.601,45.7997 32.9343,46.2997 34.5,46C 38.3674,42.3398 39.534,37.8398 38,32.5C 37.3109,31.6433 36.4776,30.9767 35.5,30.5C 30.7515,32.4957 29.7515,35.4957 32.5,39.5C 33.8139,38.6872 34.9805,37.6872 36,36.5C 35.9139,38.9434 34.5806,40.6101 32,41.5C 31.2828,40.9558 30.7828,40.2891 30.5,39.5C 26.0731,33.9336 27.0731,30.267 33.5,28.5C 34.724,26.1725 34.724,23.8392 33.5,21.5C 35.8559,20.3461 36.0226,19.0127 34,17.5C 33.0027,19.3231 31.8361,20.9897 30.5,22.5C 28.319,23.45 25.6523,24.1167 22.5,24.5C 22.5,23.1667 22.5,21.8333 22.5,20.5C 29.1667,19.8333 29.1667,19.1667 22.5,18.5C 22.7215,16.3364 23.7215,14.6697 25.5,13.5C 26.9305,13.5792 28.2638,13.2458 29.5,12.5C 30.9122,13.8064 32.5789,14.6397 34.5,15C 39.4459,19.9459 44.4459,24.9459 49.5,30C 50.1667,30.6667 50.8333,30.6667 51.5,30C 50.2899,28.9609 49.2899,27.7942 48.5,26.5 Z"/></g>
<g><path style="opacity:1" fill="#0d0c10" d="M 30.5,16.5 C 31.7125,17.4971 31.5458,18.4971 30,19.5C 29.5304,18.4232 29.6971,17.4232 30.5,16.5 Z"/></g>
<g><path style="opacity:1" fill="#486587" d="M 55.5,30.5 C 55.44,31.0431 55.1067,31.3764 54.5,31.5C 51.9211,30.1117 51.9211,28.6117 54.5,27C 53.8333,26.6667 53.1667,26.3333 52.5,26C 53.4506,25.2825 53.6172,24.4491 53,23.5C 51.5913,24.7811 50.0913,25.7811 48.5,26.5C 47.6749,24.8748 48.0082,23.2082 49.5,21.5C 50.5343,24.1247 51.5343,24.1247 52.5,21.5C 58.2597,18.7794 58.9264,19.9461 54.5,25C 58.0016,25.6561 58.0016,26.9895 54.5,29C 55.056,29.3826 55.3893,29.8826 55.5,30.5 Z"/></g>
<g><path style="opacity:1" fill="#3e5776" d="M 80.5,29.5 C 80.5,32.1667 80.5,34.8333 80.5,37.5C 78.8546,36.5213 77.5213,35.188 76.5,33.5C 77.376,32.7492 78.376,32.2492 79.5,32C 78.1175,30.5391 78.4508,29.7058 80.5,29.5 Z"/></g>
<g><path style="opacity:1" fill="#474d61" d="M 85.5,10.5 C 84.7321,11.2625 84.2321,12.2625 84,13.5C 83.3333,17.5 83.3333,21.5 84,25.5C 85.8403,34.1908 87.6737,42.8575 89.5,51.5C 88.2761,55.3531 87.1095,59.3531 86,63.5C 83.0652,67.6541 79.2319,70.6541 74.5,72.5C 75.5213,74.188 76.8546,75.5213 78.5,76.5C 78.1583,77.3382 77.4916,77.6716 76.5,77.5C 75.7101,76.2058 74.7101,75.0391 73.5,74C 70.5877,73.7248 67.921,72.8914 65.5,71.5C 65.4543,68.0707 65.2877,64.404 65,60.5C 64.1534,58.8068 63.3201,57.1401 62.5,55.5C 64.8863,56.3733 66.8863,57.8733 68.5,60C 70.556,60.3108 72.556,60.8108 74.5,61.5C 76.261,60.9649 77.5943,59.9649 78.5,58.5C 79.1667,57.5 79.8333,56.5 80.5,55.5C 81.038,53.8828 81.3713,52.2161 81.5,50.5C 82.8333,47.1667 82.8333,43.8333 81.5,40.5C 81.5,39.5 81.5,38.5 81.5,37.5C 81.5,30.5 81.5,23.5 81.5,16.5C 82.5353,14.795 82.5353,13.1284 81.5,11.5C 82.853,10.3147 84.0197,8.98138 85,7.5C 85.4828,8.44802 85.6495,9.44802 85.5,10.5 Z"/></g>
<g><path style="opacity:1" fill="#1f222a" d="M 55.5,32.5 C 57.4081,35.3116 59.0748,38.3116 60.5,41.5C 60.5,42.1667 60.5,42.8333 60.5,43.5C 59.596,44.209 59.2627,45.209 59.5,46.5C 57.5296,49.8272 54.5296,51.6605 50.5,52C 51.4158,52.2784 52.0825,52.7784 52.5,53.5C 51.5423,54.9616 50.3756,56.2949 49,57.5C 48.5006,63.1569 48.3339,68.8236 48.5,74.5C 48.5,75.1667 48.5,75.8333 48.5,76.5C 47.8333,76.5 47.1667,76.5 46.5,76.5C 46.5,72.5 46.5,68.5 46.5,64.5C 46.3444,61.9339 46.6777,59.4339 47.5,57C 46.3551,55.5979 45.0217,54.4312 43.5,53.5C 42.8333,53.5 42.1667,53.5 41.5,53.5C 40.9002,52.1001 39.9002,51.1001 38.5,50.5C 38.7073,47.7594 39.7073,45.4261 41.5,43.5C 41.528,45.5824 40.8613,47.4157 39.5,49C 40.4491,49.6172 41.2825,49.4506 42,48.5C 42.2492,49.624 42.7492,50.624 43.5,51.5C 45.5184,50.1865 46.6851,50.8532 47,53.5C 48.9344,50.312 51.7677,48.812 55.5,49C 59.8026,43.2983 59.136,38.1316 53.5,33.5C 53.9569,32.7025 54.6236,32.3691 55.5,32.5 Z"/></g>
<g><path style="opacity:1" fill="#81879b" d="M 30.5,44.5 C 29.506,42.6656 29.506,40.9989 30.5,39.5C 30.7828,40.2891 31.2828,40.9558 32,41.5C 34.5806,40.6101 35.9139,38.9434 36,36.5C 34.9805,37.6872 33.8139,38.6872 32.5,39.5C 29.7515,35.4957 30.7515,32.4957 35.5,30.5C 36.4776,30.9767 37.3109,31.6433 38,32.5C 39.534,37.8398 38.3674,42.3398 34.5,46C 32.9343,46.2997 31.601,45.7997 30.5,44.5 Z"/></g>
<g><path style="opacity:0.689" fill="#0d1015" d="M 75.5,42.5 C 74.8333,42.8333 74.1667,43.1667 73.5,43.5C 73.5299,42.5028 73.0299,41.8361 72,41.5C 69.9423,42.1117 68.109,43.1117 66.5,44.5C 66.8346,43.336 66.8346,42.0026 66.5,40.5C 65.1097,42.2029 63.6097,42.8696 62,42.5C 62.9116,46.3346 64.4116,50.0012 66.5,53.5C 63.4977,50.8388 61.4977,47.5055 60.5,43.5C 60.5,42.8333 60.5,42.1667 60.5,41.5C 61.8149,40.5244 63.1482,39.5244 64.5,38.5C 63.9747,37.8076 63.3081,37.3076 62.5,37C 63.6853,35.647 65.0186,34.4803 66.5,33.5C 65.8333,32.8333 65.1667,32.1667 64.5,31.5C 65.5202,29.5675 65.6869,27.5675 65,25.5C 63,28.1667 61,30.8333 59,33.5C 58.6667,32.1667 58.3333,30.8333 58,29.5C 57.6174,30.056 57.1174,30.3893 56.5,30.5C 56.1667,30.5 55.8333,30.5 55.5,30.5C 55.3893,29.8826 55.056,29.3826 54.5,29C 58.0016,26.9895 58.0016,25.6561 54.5,25C 58.9264,19.9461 58.2597,18.7794 52.5,21.5C 54.1239,18.5717 56.4572,17.905 59.5,19.5C 58.9598,20.7481 58.2931,21.9148 57.5,23C 60.9431,23.2213 61.2764,24.2213 58.5,26C 59.1905,27.0674 59.6905,28.2341 60,29.5C 62.0074,26.6638 64.1741,23.9971 66.5,21.5C 67.5527,24.8151 67.5527,28.1485 66.5,31.5C 70.158,32.8554 69.8246,34.3554 65.5,36C 66.6667,36.5 67.5,37.3333 68,38.5C 70.1293,37.1373 70.6293,37.4706 69.5,39.5C 71.9749,39.9642 73.9749,40.9642 75.5,42.5 Z"/></g>
<g><path style="opacity:1" fill="#20232c" d="M 41.5,43.5 C 43.0261,41.87 45.0261,41.0367 47.5,41C 45.9644,39.4006 45.4644,37.5672 46,35.5C 46.7922,37.5873 47.9588,39.4207 49.5,41C 47.8753,41.8525 47.5419,42.8525 48.5,44C 46.2487,43.7932 43.9154,43.6265 41.5,43.5 Z"/></g>
<g><path style="opacity:1" fill="#1f242e" d="M 81.5,40.5 C 82.8333,43.8333 82.8333,47.1667 81.5,50.5C 81.1667,50.5 80.8333,50.5 80.5,50.5C 80.5111,48.4534 80.8444,46.4534 81.5,44.5C 81.1386,42.582 80.472,42.2486 79.5,43.5C 78.9569,43.44 78.6236,43.1067 78.5,42.5C 79.6016,41.8243 80.6016,41.1577 81.5,40.5 Z"/></g>
<g><path style="opacity:1" fill="#456082" d="M 73.5,43.5 C 71.3702,45.1271 69.3702,46.9604 67.5,49C 68.5,49.3333 69.5,49.6667 70.5,50C 69.2949,51.3756 67.9616,52.5423 66.5,53.5C 64.4116,50.0012 62.9116,46.3346 62,42.5C 63.6097,42.8696 65.1097,42.2029 66.5,40.5C 66.8346,42.0026 66.8346,43.336 66.5,44.5C 68.109,43.1117 69.9423,42.1117 72,41.5C 73.0299,41.8361 73.5299,42.5028 73.5,43.5 Z"/></g>
<g><path style="opacity:0.248" fill="#040609" d="M 78.5,25.5 C 80.1765,26.1834 80.8432,27.5168 80.5,29.5C 78.4508,29.7058 78.1175,30.5391 79.5,32C 78.376,32.2492 77.376,32.7492 76.5,33.5C 77.5213,35.188 78.8546,36.5213 80.5,37.5C 80.8333,37.5 81.1667,37.5 81.5,37.5C 81.5,38.5 81.5,39.5 81.5,40.5C 80.6016,41.1577 79.6016,41.8243 78.5,42.5C 78.6236,43.1067 78.9569,43.44 79.5,43.5C 76.0265,45.7644 76.3598,48.0978 80.5,50.5C 80.8333,50.5 81.1667,50.5 81.5,50.5C 81.3713,52.2161 81.038,53.8828 80.5,55.5C 80.1667,55.5 79.8333,55.5 79.5,55.5C 78.8902,54.609 78.5569,53.609 78.5,52.5C 77.5041,52.4142 76.6708,52.7476 76,53.5C 75.5172,52.552 75.3505,51.552 75.5,50.5C 76.2389,50.631 76.9056,50.4643 77.5,50C 75.8866,47.7724 75.22,45.2724 75.5,42.5C 77.0843,41.6182 78.751,40.7848 80.5,40C 77.4981,37.8381 75.4981,35.0048 74.5,31.5C 75.2739,30.2888 76.1072,30.2888 77,31.5C 77.4396,29.9238 78.273,28.5904 79.5,27.5C 79.1373,26.8165 78.8039,26.1499 78.5,25.5 Z"/></g>
<g><path style="opacity:1" fill="#3f5876" d="M 80.5,50.5 C 76.3598,48.0978 76.0265,45.7644 79.5,43.5C 80.472,42.2486 81.1386,42.582 81.5,44.5C 80.8444,46.4534 80.5111,48.4534 80.5,50.5 Z"/></g>
<g><path style="opacity:0.451" fill="#0c0e11" d="M 23.5,43.5 C 24.8107,48.6718 24.144,48.8385 21.5,44C 19.9262,43.3013 18.5929,43.6346 17.5,45C 18.7376,44.9227 19.7376,45.0894 20.5,45.5C 19.2713,46.2811 17.938,46.7811 16.5,47C 15.269,48.1827 15.269,49.3493 16.5,50.5C 17.5,47.8333 18.5,47.8333 19.5,50.5C 17.6684,51.0568 16.3351,52.0568 15.5,53.5C 14.6963,51.8113 13.6963,50.1446 12.5,48.5C 15.1297,46.5551 17.2964,44.2218 19,41.5C 20.585,42.0439 22.085,42.7106 23.5,43.5 Z"/></g>
<g><path style="opacity:1" fill="#474d61" d="M 28.5,52.5 C 27.0597,53.3629 25.7264,53.3629 24.5,52.5C 23.1667,53.8333 21.8333,55.1667 20.5,56.5C 20.1667,55.1667 19.8333,53.8333 19.5,52.5C 18.2638,53.2458 16.9305,53.5792 15.5,53.5C 16.3351,52.0568 17.6684,51.0568 19.5,50.5C 18.5,47.8333 17.5,47.8333 16.5,50.5C 15.269,49.3493 15.269,48.1827 16.5,47C 17.938,46.7811 19.2713,46.2811 20.5,45.5C 19.7376,45.0894 18.7376,44.9227 17.5,45C 18.5929,43.6346 19.9262,43.3013 21.5,44C 24.144,48.8385 24.8107,48.6718 23.5,43.5C 25.2183,41.6363 26.385,39.3029 27,36.5C 28.191,41.7674 28.691,47.1007 28.5,52.5 Z"/></g>
<g><path style="opacity:1" fill="#282b36" d="M 30.5,39.5 C 29.506,40.9989 29.506,42.6656 30.5,44.5C 30.5,46.8333 30.5,49.1667 30.5,51.5C 29.8333,51.8333 29.1667,52.1667 28.5,52.5C 28.691,47.1007 28.191,41.7674 27,36.5C 26.385,39.3029 25.2183,41.6363 23.5,43.5C 24.371,39.8184 25.371,36.1517 26.5,32.5C 25.5525,31.0221 24.2191,30.0221 22.5,29.5C 25.9232,28.3251 29.2565,27.6584 32.5,27.5C 32.8333,26.8333 33.1667,26.1667 33.5,25.5C 33.2528,24.2867 32.5862,23.62 31.5,23.5C 31.5,22.8333 31.1667,22.5 30.5,22.5C 31.8361,20.9897 33.0027,19.3231 34,17.5C 36.0226,19.0127 35.8559,20.3461 33.5,21.5C 34.724,23.8392 34.724,26.1725 33.5,28.5C 27.0731,30.267 26.0731,33.9336 30.5,39.5 Z"/></g>
<g><path style="opacity:0.487" fill="#090c10" d="M 73.5,43.5 C 73.4894,45.0174 72.8228,46.1841 71.5,47C 73.3187,47.7403 74.6521,48.9069 75.5,50.5C 73.3379,50.8972 72.0046,52.2305 71.5,54.5C 70.5712,53.4502 69.9046,53.4502 69.5,54.5C 68.8333,54.8333 68.1667,55.1667 67.5,55.5C 67.1667,54.8333 66.8333,54.1667 66.5,53.5C 67.9616,52.5423 69.2949,51.3756 70.5,50C 69.5,49.6667 68.5,49.3333 67.5,49C 69.3702,46.9604 71.3702,45.1271 73.5,43.5 Z"/></g>
<g><path style="opacity:1" fill="#7e859a" d="M 38.5,50.5 C 39.9002,51.1001 40.9002,52.1001 41.5,53.5C 39.8523,54.8098 38.1856,56.1431 36.5,57.5C 35.2638,56.7542 33.9305,56.4208 32.5,56.5C 31.7659,55.2921 31.4326,53.9587 31.5,52.5C 32.8566,51.3146 34.3566,50.3146 36,49.5C 36.9021,49.7432 37.7354,50.0766 38.5,50.5 Z"/></g>
<g><path style="opacity:1" fill="#405a79" d="M 75.5,50.5 C 75.3505,51.552 75.5172,52.552 76,53.5C 76.6708,52.7476 77.5041,52.4142 78.5,52.5C 78.5569,53.609 78.8902,54.609 79.5,55.5C 76.7687,57.6746 73.7687,58.008 70.5,56.5C 69.7025,56.0431 69.3691,55.3764 69.5,54.5C 69.9046,53.4502 70.5712,53.4502 71.5,54.5C 72.0046,52.2305 73.3379,50.8972 75.5,50.5 Z"/></g>
<g><path style="opacity:1" fill="#6a7185" d="M 60.5,43.5 C 61.4977,47.5055 63.4977,50.8388 66.5,53.5C 66.8333,54.1667 67.1667,54.8333 67.5,55.5C 70.3006,59.3975 73.9672,60.3975 78.5,58.5C 77.5943,59.9649 76.261,60.9649 74.5,61.5C 72.556,60.8108 70.556,60.3108 68.5,60C 66.8863,57.8733 64.8863,56.3733 62.5,55.5C 61.7593,52.366 60.7593,49.366 59.5,46.5C 59.2627,45.209 59.596,44.209 60.5,43.5 Z"/></g>
<g><path style="opacity:1" fill="#464d61" d="M 59.5,46.5 C 60.7593,49.366 61.7593,52.366 62.5,55.5C 61.6365,54.537 60.9698,54.537 60.5,55.5C 63.5594,61.0389 64.2261,66.8723 62.5,73C 63.7659,73.3095 64.9326,73.8095 66,74.5C 69.709,80.6707 71.8757,87.3374 72.5,94.5C 71.1667,94.5 69.8333,94.5 68.5,94.5C 68.9059,92.8908 68.9059,91.5575 68.5,90.5C 67.5713,91.6888 67.238,93.0222 67.5,94.5C 66.5,94.5 65.5,94.5 64.5,94.5C 64.6984,92.4247 64.8651,90.4247 65,88.5C 63.3375,90.1579 62.5041,92.1579 62.5,94.5C 61.448,94.6495 60.448,94.4828 59.5,94C 60.1087,91.4896 61.442,89.4896 63.5,88C 60.7996,87.7468 58.133,87.7468 55.5,88C 52.9141,84.2636 50.5808,80.4303 48.5,76.5C 48.5,75.8333 48.5,75.1667 48.5,74.5C 51.9543,75.7065 54.7876,74.7065 57,71.5C 58.475,67.6019 59.6417,63.6019 60.5,59.5C 58.5967,56.5416 55.9301,54.5416 52.5,53.5C 52.0825,52.7784 51.4158,52.2784 50.5,52C 54.5296,51.6605 57.5296,49.8272 59.5,46.5 Z"/></g>
<g><path style="opacity:0.526" fill="#111216" d="M 85.5,10.5 C 84.7053,15.1493 84.5386,19.8159 85,24.5C 86.7458,33.2297 88.7458,41.8964 91,50.5C 92.4327,61.8686 88.5993,71.0353 79.5,78C 76.4675,79.1776 73.8008,80.8442 71.5,83C 72.7393,87.1234 73.7393,91.2901 74.5,95.5C 67.8333,95.5 61.1667,95.5 54.5,95.5C 54.6984,93.4247 54.8651,91.4247 55,89.5C 51.3552,83.8586 47.0219,78.8586 42,74.5C 41.3109,75.3567 40.4776,76.0233 39.5,76.5C 38.5037,82.7985 38.1703,89.1318 38.5,95.5C 32.5,95.5 26.5,95.5 20.5,95.5C 20.7134,92.525 21.7134,89.8584 23.5,87.5C 21.3364,82.8428 19.6698,78.0094 18.5,73C 22.0082,66.9825 26.0082,61.3159 30.5,56C 30.3699,54.9412 29.8699,54.1079 29,53.5C 25.5639,54.0947 22.7306,55.7614 20.5,58.5C 18.4788,57.1455 16.8121,55.4788 15.5,53.5C 16.9305,53.5792 18.2638,53.2458 19.5,52.5C 19.8333,53.8333 20.1667,55.1667 20.5,56.5C 21.8333,55.1667 23.1667,53.8333 24.5,52.5C 25.7264,53.3629 27.0597,53.3629 28.5,52.5C 29.1667,52.1667 29.8333,51.8333 30.5,51.5C 30.5,52.1667 30.8333,52.5 31.5,52.5C 31.4326,53.9587 31.7659,55.2921 32.5,56.5C 32.3284,57.4916 32.6618,58.1583 33.5,58.5C 35.4827,66.1564 39.816,72.1564 46.5,76.5C 47.1667,76.5 47.8333,76.5 48.5,76.5C 50.5808,80.4303 52.9141,84.2636 55.5,88C 58.133,87.7468 60.7996,87.7468 63.5,88C 61.442,89.4896 60.1087,91.4896 59.5,94C 60.448,94.4828 61.448,94.6495 62.5,94.5C 62.5041,92.1579 63.3375,90.1579 65,88.5C 64.8651,90.4247 64.6984,92.4247 64.5,94.5C 65.5,94.5 66.5,94.5 67.5,94.5C 67.238,93.0222 67.5713,91.6888 68.5,90.5C 68.9059,91.5575 68.9059,92.8908 68.5,94.5C 69.8333,94.5 71.1667,94.5 72.5,94.5C 71.8757,87.3374 69.709,80.6707 66,74.5C 64.9326,73.8095 63.7659,73.3095 62.5,73C 64.2261,66.8723 63.5594,61.0389 60.5,55.5C 60.9698,54.537 61.6365,54.537 62.5,55.5C 63.3201,57.1401 64.1534,58.8068 65,60.5C 65.2877,64.404 65.4543,68.0707 65.5,71.5C 67.5364,74.3711 69.3697,77.3711 71,80.5C 73.0581,79.7709 74.8914,78.7709 76.5,77.5C 77.4916,77.6716 78.1583,77.3382 78.5,76.5C 87.3108,70.5363 90.9775,62.203 89.5,51.5C 87.6737,42.8575 85.8403,34.1908 84,25.5C 83.3333,21.5 83.3333,17.5 84,13.5C 84.2321,12.2625 84.7321,11.2625 85.5,10.5 Z"/></g>
<g><path style="opacity:1" fill="#656d82" d="M 89.5,51.5 C 90.9775,62.203 87.3108,70.5363 78.5,76.5C 76.8546,75.5213 75.5213,74.188 74.5,72.5C 79.2319,70.6541 83.0652,67.6541 86,63.5C 87.1095,59.3531 88.2761,55.3531 89.5,51.5 Z"/></g>
<g><path style="opacity:1" fill="#636b80" d="M 33.5,58.5 C 34.8333,58.8333 36.1667,59.1667 37.5,59.5C 38.038,61.1172 38.3713,62.7839 38.5,64.5C 39.5,64.5 40.5,64.5 41.5,64.5C 41.238,65.9778 41.5713,67.3112 42.5,68.5C 43.5213,66.812 44.8546,65.4787 46.5,64.5C 46.5,68.5 46.5,72.5 46.5,76.5C 39.816,72.1564 35.4827,66.1564 33.5,58.5 Z"/></g>
<g><path style="opacity:1" fill="#484e63" d="M 30.5,90.5 C 34.5892,88.2051 34.0892,86.8718 29,86.5C 27.7441,86.6483 26.5774,86.9816 25.5,87.5C 23.4464,83.0081 21.7797,78.3415 20.5,73.5C 22.4496,68.0399 25.783,63.5399 30.5,60C 31.3317,59.3123 31.9984,59.479 32.5,60.5C 34.2935,65.2605 36.9602,69.4272 40.5,73C 37.8244,75.339 34.8244,77.1724 31.5,78.5C 33.0026,79.0522 34.6693,79.0522 36.5,78.5C 36.5,83.8333 36.5,89.1667 36.5,94.5C 35.5,94.5 34.5,94.5 33.5,94.5C 34.655,88.2413 33.655,88.2413 30.5,94.5C 29.3744,93.1916 29.3744,91.8583 30.5,90.5 Z"/></g>
<g><path style="opacity:1" fill="#242a35" d="M 69.5,54.5 C 69.3691,55.3764 69.7025,56.0431 70.5,56.5C 73.7687,58.008 76.7687,57.6746 79.5,55.5C 79.8333,55.5 80.1667,55.5 80.5,55.5C 79.8333,56.5 79.1667,57.5 78.5,58.5C 73.9672,60.3975 70.3006,59.3975 67.5,55.5C 68.1667,55.1667 68.8333,54.8333 69.5,54.5 Z"/></g>
<g><path style="opacity:1" fill="#3e434f" d="M 41.5,53.5 C 42.1667,53.5 42.8333,53.5 43.5,53.5C 41.1939,55.1394 39.1939,57.1394 37.5,59.5C 36.1667,59.1667 34.8333,58.8333 33.5,58.5C 32.6618,58.1583 32.3284,57.4916 32.5,56.5C 33.9305,56.4208 35.2638,56.7542 36.5,57.5C 38.1856,56.1431 39.8523,54.8098 41.5,53.5 Z"/></g>
<g><path style="opacity:1" fill="#676e82" d="M 52.5,53.5 C 55.9301,54.5416 58.5967,56.5416 60.5,59.5C 59.6417,63.6019 58.475,67.6019 57,71.5C 54.7876,74.7065 51.9543,75.7065 48.5,74.5C 48.3339,68.8236 48.5006,63.1569 49,57.5C 50.3756,56.2949 51.5423,54.9616 52.5,53.5 Z"/></g>
<g><path style="opacity:1" fill="#80879a" d="M 43.5,53.5 C 45.0217,54.4312 46.3551,55.5979 47.5,57C 46.6777,59.4339 46.3444,61.9339 46.5,64.5C 44.8546,65.4787 43.5213,66.812 42.5,68.5C 41.5713,67.3112 41.238,65.9778 41.5,64.5C 40.5,64.5 39.5,64.5 38.5,64.5C 38.3713,62.7839 38.038,61.1172 37.5,59.5C 39.1939,57.1394 41.1939,55.1394 43.5,53.5 Z"/></g>
<g><path style="opacity:1" fill="#656d82" d="M 65.5,71.5 C 67.921,72.8914 70.5877,73.7248 73.5,74C 74.7101,75.0391 75.7101,76.2058 76.5,77.5C 74.8914,78.7709 73.0581,79.7709 71,80.5C 69.3697,77.3711 67.5364,74.3711 65.5,71.5 Z"/></g>
<g><path style="opacity:1" fill="#1f222a" d="M 26.5,73.5 C 27.3764,73.3691 28.0431,73.7025 28.5,74.5C 26.8615,75.9584 25.1949,76.2917 23.5,75.5C 24.6016,74.8243 25.6016,74.1577 26.5,73.5 Z"/></g>
<g><path style="opacity:1" fill="#1b1e26" d="M 57.5,74.5 C 58.0431,74.56 58.3764,74.8933 58.5,75.5C 53.8894,80.6185 53.5561,80.2851 57.5,74.5 Z"/></g>
<g><path style="opacity:1" fill="#333846" d="M 30.5,90.5 C 30.5654,90.0618 30.3988,89.7284 30,89.5C 28.8333,91.1667 27.6667,92.8333 26.5,94.5C 25.8076,93.9747 25.3076,93.3081 25,92.5C 24.2569,94.6447 23.4235,94.8114 22.5,93C 23.1242,90.9149 24.1242,89.0816 25.5,87.5C 26.5774,86.9816 27.7441,86.6483 29,86.5C 34.0892,86.8718 34.5892,88.2051 30.5,90.5 Z"/></g>
<g><path style="opacity:1" fill="#4d546a" d="M 57.5,89.5 C 58.3764,89.3691 59.0431,89.7025 59.5,90.5C 57.1724,95.5571 56.5057,95.2238 57.5,89.5 Z"/></g>
</svg>
