<?xml version="1.0" encoding="UTF-8"?>
<!DOCTYPE svg PUBLIC "-//W3C//DTD SVG 1.1//EN" "http://www.w3.org/Graphics/SVG/1.1/DTD/svg11.dtd">
<svg xmlns="http://www.w3.org/2000/svg" version="1.1" width="96px" height="96px" style="shape-rendering:geometricPrecision; text-rendering:geometricPrecision; image-rendering:optimizeQuality; fill-rule:evenodd; clip-rule:evenodd" xmlns:xlink="http://www.w3.org/1999/xlink">
<g><path style="opacity:0.992" fill="#fdfefe" d="M -0.5,-0.5 C 31.5,-0.5 63.5,-0.5 95.5,-0.5C 95.5,31.5 95.5,63.5 95.5,95.5C 63.5,95.5 31.5,95.5 -0.5,95.5C -0.5,63.5 -0.5,31.5 -0.5,-0.5 Z"/></g>
<g><path style="opacity:1" fill="#07233d" d="M 91.5,40.5 C 92.5261,68.2937 79.5261,85.127 52.5,91C 25.7167,91.3763 9.38334,78.5429 3.5,52.5C 3.41502,26.8287 15.7484,10.662 40.5,4C 67.3548,2.42521 84.3548,14.5919 91.5,40.5 Z"/></g>
<g><path style="opacity:1" fill="#33cdc0" d="M 92.5,38.5 C 91.6618,38.8417 91.3284,39.5084 91.5,40.5C 84.3548,14.5919 67.3548,2.42521 40.5,4C 15.7484,10.662 3.41502,26.8287 3.5,52.5C 3.5,54.1667 3.5,55.8333 3.5,57.5C -0.713327,37.396 5.62001,21.2294 22.5,9C 47.3583,-3.62882 68.5249,0.871184 86,22.5C 89.0091,27.5144 91.1757,32.8478 92.5,38.5 Z"/></g>
<g><path style="opacity:1" fill="#072744" d="M 33.5,14.5 C 42.1455,14.4531 50.8122,15.2865 59.5,17C 75.9974,25.162 82.4974,38.3287 79,56.5C 76.8928,63.5909 72.8928,69.2576 67,73.5C 66.0546,73.0946 65.3879,72.428 65,71.5C 65.6929,75.2352 64.8596,78.7352 62.5,82C 53.572,80.2489 44.572,78.9155 35.5,78C 17.7361,68.9654 11.5694,54.7988 17,35.5C 18.4131,32.3388 20.0797,29.3388 22,26.5C 26.7923,23.2124 30.6256,19.2124 33.5,14.5 Z"/></g>
<g><path style="opacity:1" fill="#1ed7da" d="M 33.5,18.5 C 34.8221,18.33 35.9887,18.6634 37,19.5C 37.8295,24.8643 37.6628,30.1977 36.5,35.5C 35.5224,35.0233 34.6891,34.3567 34,33.5C 33.5007,28.5111 33.3341,23.5111 33.5,18.5 Z"/></g>
<g><path style="opacity:1" fill="#27ccc1" d="M 49.5,39.5 C 49.1667,39.5 48.8333,39.5 48.5,39.5C 47.5416,39.0472 46.7083,38.3805 46,37.5C 45.5007,32.5111 45.3341,27.5111 45.5,22.5C 46.8221,22.33 47.9887,22.6634 49,23.5C 49.4994,28.8229 49.666,34.1563 49.5,39.5 Z"/></g>
<g><path style="opacity:1" fill="#24ded9" d="M 42.5,21.5 C 42.8205,26.6946 42.4872,31.6946 41.5,36.5C 40.8826,36.3893 40.3826,36.056 40,35.5C 39.5007,30.5111 39.3341,25.5111 39.5,20.5C 40.791,20.2627 41.791,20.596 42.5,21.5 Z"/></g>
<g><path style="opacity:1" fill="#1aa7ab" d="M 42.5,21.5 C 43.8147,26.6803 43.8147,32.0136 42.5,37.5C 41.8933,37.3764 41.56,37.0431 41.5,36.5C 42.4872,31.6946 42.8205,26.6946 42.5,21.5 Z"/></g>
<g><path style="opacity:1" fill="#29c2ac" d="M 55.5,30.5 C 55.5,34.1667 55.5,37.8333 55.5,41.5C 54.0413,41.5674 52.7079,41.2341 51.5,40.5C 51.5,35.1667 51.5,29.8333 51.5,24.5C 55.0681,24.7593 56.4015,26.7593 55.5,30.5 Z"/></g>
<g><path style="opacity:1" fill="#5ed695" d="M 60.5,45.5 C 60.1667,46.1667 59.8333,46.8333 59.5,47.5C 58.1883,45.2568 57.5217,42.5902 57.5,39.5C 57.6667,36.8333 57.8333,34.1667 58,31.5C 58.414,31.0426 58.914,30.7093 59.5,30.5C 60.4941,35.456 60.8275,40.456 60.5,45.5 Z"/></g>
<g><path style="opacity:1" fill="#0c3148" d="M 60.5,45.5 C 60.8275,40.456 60.4941,35.456 59.5,30.5C 58.914,30.7093 58.414,31.0426 58,31.5C 57.8333,34.1667 57.6667,36.8333 57.5,39.5C 57.5217,42.5902 58.1883,45.2568 59.5,47.5C 57.8832,50.51 57.0498,53.8433 57,57.5C 55.3523,58.717 53.519,59.5503 51.5,60C 54.9614,60.9617 57.2947,63.1284 58.5,66.5C 57.3547,70.3112 57.1881,74.3112 58,78.5C 58.414,78.9574 58.914,79.2907 59.5,79.5C 60.4892,75.8927 60.8226,72.226 60.5,68.5C 61.8095,72.3507 61.8095,76.3507 60.5,80.5C 59.549,81.3256 58.549,81.4922 57.5,81C 56.6721,80.0853 55.6721,79.4186 54.5,79C 55.056,78.6174 55.3893,78.1174 55.5,77.5C 55.6655,73.4862 55.4988,69.4862 55,65.5C 54.3109,64.6433 53.4776,63.9767 52.5,63.5C 50.9668,68.4217 51.3001,73.0883 53.5,77.5C 51.288,78.0469 49.6213,77.0469 48.5,74.5C 49.6453,70.6888 49.8119,66.6888 49,62.5C 48.6174,61.944 48.1174,61.6107 47.5,61.5C 47.44,60.9569 47.1067,60.6236 46.5,60.5C 45.52,63.0865 45.1866,65.7531 45.5,68.5C 44.6981,69.9516 44.1981,71.6183 44,73.5C 42.887,72.2396 42.7203,71.073 43.5,70C 40.8451,71.2597 39.0118,70.4264 38,67.5C 37.8333,64.6667 37.6667,61.8333 37.5,59C 37.5191,55.7485 38.1858,52.9151 39.5,50.5C 39.334,55.8437 39.5006,61.1771 40,66.5C 40.6891,67.3567 41.5224,68.0233 42.5,68.5C 43.6639,62.1928 43.8306,55.8595 43,49.5C 41.9887,48.6634 40.8221,48.33 39.5,48.5C 39.9175,47.7784 40.5842,47.2784 41.5,47C 40.8333,46.6667 40.1667,46.3333 39.5,46C 42.3931,45.7266 45.0597,44.8932 47.5,43.5C 49.1209,44.7052 50.4542,44.5385 51.5,43C 50.2899,41.9609 49.2899,40.7942 48.5,39.5C 48.8333,39.5 49.1667,39.5 49.5,39.5C 50.1667,39.8333 50.8333,40.1667 51.5,40.5C 52.7079,41.2341 54.0413,41.5674 55.5,41.5C 55.5,37.8333 55.5,34.1667 55.5,30.5C 56.29,29.3915 56.79,28.0581 57,26.5C 57.5885,28.8633 59.0885,29.8633 61.5,29.5C 61.8214,35.0262 61.4881,40.3595 60.5,45.5 Z"/></g>
<g><path style="opacity:1" fill="#98c64c" d="M 47.5,46.5 C 48.7868,47.8714 49.4535,49.7047 49.5,52C 50.0077,55.2276 49.0077,57.7276 46.5,59.5C 45.0009,54.8916 45.3342,50.5582 47.5,46.5 Z"/></g>
<g><path style="opacity:1" fill="#79cb69" d="M 53.5,44.5 C 54.4816,47.9619 54.815,51.6286 54.5,55.5C 54.189,56.4778 53.5223,57.1445 52.5,57.5C 51.3401,53.5411 51.1735,49.5411 52,45.5C 52.3826,44.944 52.8826,44.6107 53.5,44.5 Z"/></g>
<g><path style="opacity:1" fill="#4b8c5c" d="M 53.5,44.5 C 53.56,43.9569 53.8933,43.6236 54.5,43.5C 55.8095,47.6493 55.8095,51.6493 54.5,55.5C 54.815,51.6286 54.4816,47.9619 53.5,44.5 Z"/></g>
<g><path style="opacity:1" fill="#86c45a" d="M 39.5,48.5 C 40.8221,48.33 41.9887,48.6634 43,49.5C 43.8306,55.8595 43.6639,62.1928 42.5,68.5C 41.5224,68.0233 40.6891,67.3567 40,66.5C 39.5006,61.1771 39.334,55.8437 39.5,50.5C 39.5,49.8333 39.5,49.1667 39.5,48.5 Z"/></g>
<g><path style="opacity:1" fill="#39be85" d="M 92.5,38.5 C 95.0811,58.2637 88.4144,74.097 72.5,86C 49.9111,98.0405 29.7445,94.8738 12,76.5C 7.536,70.9046 4.70266,64.5713 3.5,57.5C 3.5,55.8333 3.5,54.1667 3.5,52.5C 9.38334,78.5429 25.7167,91.3763 52.5,91C 79.5261,85.127 92.5261,68.2937 91.5,40.5C 91.3284,39.5084 91.6618,38.8417 92.5,38.5 Z"/></g>
<g><path style="opacity:1" fill="#36c07c" d="M 58.5,66.5 C 59.5,66.8333 60.1667,67.5 60.5,68.5C 60.8226,72.226 60.4892,75.8927 59.5,79.5C 58.914,79.2907 58.414,78.9574 58,78.5C 57.1881,74.3112 57.3547,70.3112 58.5,66.5 Z"/></g>
<g><path style="opacity:1" fill="#3cab5e" d="M 55.5,77.5 C 54.8333,77.5 54.1667,77.5 53.5,77.5C 51.3001,73.0883 50.9668,68.4217 52.5,63.5C 53.4776,63.9767 54.3109,64.6433 55,65.5C 55.4988,69.4862 55.6655,73.4862 55.5,77.5 Z"/></g>
<g><path style="opacity:1" fill="#398050" d="M 47.5,61.5 C 46.5184,64.9619 46.185,68.6286 46.5,72.5C 45.5655,71.4324 45.2322,70.099 45.5,68.5C 45.1866,65.7531 45.52,63.0865 46.5,60.5C 47.1067,60.6236 47.44,60.9569 47.5,61.5 Z"/></g>
<g><path style="opacity:1" fill="#5bbd56" d="M 47.5,61.5 C 48.1174,61.6107 48.6174,61.944 49,62.5C 49.8119,66.6888 49.6453,70.6888 48.5,74.5C 47.5,74.1667 46.8333,73.5 46.5,72.5C 46.185,68.6286 46.5184,64.9619 47.5,61.5 Z"/></g>
</svg>
