<?xml version="1.0" encoding="UTF-8"?>
<!DOCTYPE svg PUBLIC "-//W3C//DTD SVG 1.1//EN" "http://www.w3.org/Graphics/SVG/1.1/DTD/svg11.dtd">
<svg xmlns="http://www.w3.org/2000/svg" version="1.1" width="96px" height="96px" style="shape-rendering:geometricPrecision; text-rendering:geometricPrecision; image-rendering:optimizeQuality; fill-rule:evenodd; clip-rule:evenodd" xmlns:xlink="http://www.w3.org/1999/xlink">
<g><path style="opacity:1" fill="#c02b35" d="M 37.5,-0.5 C 40.5,-0.5 43.5,-0.5 46.5,-0.5C 44.7354,0.461384 42.7354,0.794717 40.5,0.5C 40.4036,7.74848 40.4036,14.7485 40.5,21.5C 36.8333,26.1667 33.1667,30.8333 29.5,35.5C 28.9569,35.44 28.6236,35.1067 28.5,34.5C 29.31,24.2133 29.81,13.88 30,3.5C 30.3333,3.83333 30.6667,4.16667 31,4.5C 31.6979,3.30943 32.5313,2.30943 33.5,1.5C 34.8333,0.833333 36.1667,0.166667 37.5,-0.5 Z"/></g>
<g><path style="opacity:1" fill="#ce3c2e" d="M 46.5,-0.5 C 48.5,-0.5 50.5,-0.5 52.5,-0.5C 54.7642,5.46256 55.0975,11.6292 53.5,18C 55.16,19.4877 56.16,21.321 56.5,23.5C 53.5222,20.1866 50.5222,16.8533 47.5,13.5C 44.6974,15.7831 42.3641,18.4497 40.5,21.5C 40.4036,14.7485 40.4036,7.74848 40.5,0.5C 42.7354,0.794717 44.7354,0.461384 46.5,-0.5 Z"/></g>
<g><path style="opacity:1" fill="#dc552c" d="M 52.5,-0.5 C 54.1667,-0.5 55.8333,-0.5 57.5,-0.5C 59.8876,0.348502 62.2209,1.3485 64.5,2.5C 64.9867,3.47344 65.4867,4.47344 66,5.5C 66.817,14.7447 66.6503,23.9113 65.5,33C 66.5822,34.3297 67.2488,35.8297 67.5,37.5C 63.8444,32.8723 60.1777,28.2056 56.5,23.5C 56.16,21.321 55.16,19.4877 53.5,18C 55.0975,11.6292 54.7642,5.46256 52.5,-0.5 Z"/></g>
<g><path style="opacity:1" fill="#e4672c" d="M 64.5,2.5 C 67.4848,3.32567 70.1515,4.659 72.5,6.5C 73.072,7.97332 73.9054,9.30665 75,10.5C 75.407,22.9962 75.5737,35.3295 75.5,47.5C 72.4838,44.4797 69.8171,41.1464 67.5,37.5C 67.2488,35.8297 66.5822,34.3297 65.5,33C 66.6503,23.9113 66.817,14.7447 66,5.5C 65.4867,4.47344 64.9867,3.47344 64.5,2.5 Z"/></g>
<g><path style="opacity:1" fill="#b4243a" d="M 33.5,1.5 C 32.5313,2.30943 31.6979,3.30943 31,4.5C 30.6667,4.16667 30.3333,3.83333 30,3.5C 29.81,13.88 29.31,24.2133 28.5,34.5C 28.6236,35.1067 28.9569,35.44 29.5,35.5C 26.213,39.959 22.713,44.2923 19,48.5C 17.9914,50.0249 17.4914,51.6916 17.5,53.5C 19.9468,53.385 21.9468,52.385 23.5,50.5C 23.56,51.0431 23.8933,51.3764 24.5,51.5C 25.8333,50.5 27.1667,49.5 28.5,48.5C 29.8224,62.7298 29.8224,76.8965 28.5,91C 29.4491,91.6172 30.2825,91.4506 31,90.5C 31.4828,91.448 31.6495,92.448 31.5,93.5C 24.9784,91.0776 19.3117,87.4109 14.5,82.5C 15.3168,80.6923 14.6502,79.1923 12.5,78C 13.807,56.8755 13.807,35.7088 12.5,14.5C 18.0266,7.89771 25.0266,3.56437 33.5,1.5 Z"/></g>
<g><path style="opacity:1" fill="#ea782f" d="M 72.5,6.5 C 77.0432,8.37167 80.7099,11.3717 83.5,15.5C 82.5,15.5 81.5,15.5 80.5,15.5C 80.802,38.1996 80.4687,60.8662 79.5,83.5C 78.7377,85.2624 77.4044,86.2624 75.5,86.5C 75.2329,76.3552 75.5663,66.0219 76.5,55.5C 78.4041,54.7434 78.7375,53.7434 77.5,52.5C 77.1075,50.7162 76.4408,49.0495 75.5,47.5C 75.5737,35.3295 75.407,22.9962 75,10.5C 73.9054,9.30665 73.072,7.97332 72.5,6.5 Z"/></g>
<g><path style="opacity:0.99" fill="#fdf9f8" d="M 56.5,23.5 C 60.1777,28.2056 63.8444,32.8723 67.5,37.5C 69.8171,41.1464 72.4838,44.4797 75.5,47.5C 76.4408,49.0495 77.1075,50.7162 77.5,52.5C 76.7494,53.5735 75.7494,53.7401 74.5,53C 73.1537,51.3308 71.487,50.1642 69.5,49.5C 67.1997,47.016 64.5331,45.016 61.5,43.5C 57.8595,40.0317 54.0261,36.6984 50,33.5C 52.8818,47.743 55.7151,62.0764 58.5,76.5C 60.1419,82.0438 61.1419,87.7105 61.5,93.5C 60.1667,94.1667 58.8333,94.8333 57.5,95.5C 50.8333,95.5 44.1667,95.5 37.5,95.5C 36.1667,94.8333 34.8333,94.1667 33.5,93.5C 36.7019,74.4255 40.3685,55.4255 44.5,36.5C 44.3333,35.8333 44.1667,35.1667 44,34.5C 37.0459,39.7212 30.2126,45.0546 23.5,50.5C 21.9468,52.385 19.9468,53.385 17.5,53.5C 17.4914,51.6916 17.9914,50.0249 19,48.5C 22.713,44.2923 26.213,39.959 29.5,35.5C 33.1667,30.8333 36.8333,26.1667 40.5,21.5C 42.3641,18.4497 44.6974,15.7831 47.5,13.5C 50.5222,16.8533 53.5222,20.1866 56.5,23.5 Z"/></g>
<g><path style="opacity:1" fill="#ae233e" d="M 12.5,14.5 C 13.807,35.7088 13.807,56.8755 12.5,78C 14.6502,79.1923 15.3168,80.6923 14.5,82.5C 6.67525,75.8487 1.67525,67.5154 -0.5,57.5C -0.5,50.8333 -0.5,44.1667 -0.5,37.5C 1.68988,28.6382 6.02321,20.9716 12.5,14.5 Z"/></g>
<g><path style="opacity:1" fill="#ee8433" d="M 83.5,15.5 C 84.3095,35.1235 84.8095,54.7901 85,74.5C 85.3826,73.944 85.8826,73.6107 86.5,73.5C 86.5,74.1667 86.5,74.8333 86.5,75.5C 84.883,78.7843 82.5497,81.4509 79.5,83.5C 80.4687,60.8662 80.802,38.1996 80.5,15.5C 81.5,15.5 82.5,15.5 83.5,15.5 Z"/></g>
<g><path style="opacity:1" fill="#f18e37" d="M 83.5,15.5 C 87.0095,18.3577 89.3429,22.0243 90.5,26.5C 89.7008,40.4555 89.2008,54.4555 89,68.5C 88.1534,70.1932 87.3201,71.8599 86.5,73.5C 85.8826,73.6107 85.3826,73.944 85,74.5C 84.8095,54.7901 84.3095,35.1235 83.5,15.5 Z"/></g>
<g><path style="opacity:1" fill="#f49d42" d="M 90.5,26.5 C 92.7506,29.9258 94.4173,33.5925 95.5,37.5C 95.5,44.1667 95.5,50.8333 95.5,57.5C 93.5753,64.0161 90.5753,70.0161 86.5,75.5C 86.5,74.8333 86.5,74.1667 86.5,73.5C 87.3201,71.8599 88.1534,70.1932 89,68.5C 89.2008,54.4555 89.7008,40.4555 90.5,26.5 Z"/></g>
<g><path style="opacity:1" fill="#d74a2b" d="M 61.5,43.5 C 60.6905,53.7569 60.1905,64.0903 60,74.5C 59.7216,75.4158 59.2216,76.0825 58.5,76.5C 55.7151,62.0764 52.8818,47.743 50,33.5C 54.0261,36.6984 57.8595,40.0317 61.5,43.5 Z"/></g>
<g><path style="opacity:1" fill="#bf2933" d="M 33.5,93.5 C 32.8333,93.5 32.1667,93.5 31.5,93.5C 31.6495,92.448 31.4828,91.448 31,90.5C 30.2825,91.4506 29.4491,91.6172 28.5,91C 29.8224,76.8965 29.8224,62.7298 28.5,48.5C 27.1667,49.5 25.8333,50.5 24.5,51.5C 23.8933,51.3764 23.56,51.0431 23.5,50.5C 30.2126,45.0546 37.0459,39.7212 44,34.5C 44.1667,35.1667 44.3333,35.8333 44.5,36.5C 40.3685,55.4255 36.7019,74.4255 33.5,93.5 Z"/></g>
<g><path style="opacity:1" fill="#de5b2c" d="M 61.5,43.5 C 64.5331,45.016 67.1997,47.016 69.5,49.5C 69.5124,63.069 69.5124,76.7356 69.5,90.5C 67.1098,92.0198 64.4432,93.0198 61.5,93.5C 61.1419,87.7105 60.1419,82.0438 58.5,76.5C 59.2216,76.0825 59.7216,75.4158 60,74.5C 60.1905,64.0903 60.6905,53.7569 61.5,43.5 Z"/></g>
<g><path style="opacity:1" fill="#e56a2d" d="M 69.5,49.5 C 71.487,50.1642 73.1537,51.3308 74.5,53C 75.7494,53.7401 76.7494,53.5735 77.5,52.5C 78.7375,53.7434 78.4041,54.7434 76.5,55.5C 75.5663,66.0219 75.2329,76.3552 75.5,86.5C 73.8525,88.3264 71.8525,89.6597 69.5,90.5C 69.5124,76.7356 69.5124,63.069 69.5,49.5 Z"/></g>
</svg>
