<?xml version="1.0" encoding="UTF-8"?>
<!DOCTYPE svg PUBLIC "-//W3C//DTD SVG 1.1//EN" "http://www.w3.org/Graphics/SVG/1.1/DTD/svg11.dtd">
<svg xmlns="http://www.w3.org/2000/svg" version="1.1" width="96px" height="96px" style="shape-rendering:geometricPrecision; text-rendering:geometricPrecision; image-rendering:optimizeQuality; fill-rule:evenodd; clip-rule:evenodd" xmlns:xlink="http://www.w3.org/1999/xlink">
<g><path style="opacity:0.872" fill="#f8f8f8" d="M 36.5,-0.5 C 43.8333,-0.5 51.1667,-0.5 58.5,-0.5C 77.1667,5.5 89.5,17.8333 95.5,36.5C 95.5,43.8333 95.5,51.1667 95.5,58.5C 89.4209,77.5789 76.7542,89.9123 57.5,95.5C 51.1667,95.5 44.8333,95.5 38.5,95.5C 17.8333,90.1667 4.83333,77.1667 -0.5,56.5C -0.5,50.1667 -0.5,43.8333 -0.5,37.5C 5.08775,18.2458 17.4211,5.57915 36.5,-0.5 Z"/></g>
<g><path style="opacity:1" fill="#040404" d="M 39.5,3.5 C 66.2394,2.0986 83.406,14.0986 91,39.5C 93.0892,64.7288 82.2559,81.5621 58.5,90C 31.963,94.3139 14.1297,83.8139 5,58.5C 1.14177,30.5262 12.6418,12.1929 39.5,3.5 Z"/></g>
<g><path style="opacity:1" fill="#fbfbfb" d="M 56.5,55.5 C 55.5128,60.3054 55.1795,65.3054 55.5,70.5C 50.1667,70.5 44.8333,70.5 39.5,70.5C 39.5,65.5 39.5,60.5 39.5,55.5C 34.5,55.5 29.5,55.5 24.5,55.5C 24.5,50.1667 24.5,44.8333 24.5,39.5C 29.6946,39.8205 34.6946,39.4872 39.5,38.5C 39.5,33.5 39.5,28.5 39.5,23.5C 45.1667,23.5 50.8333,23.5 56.5,23.5C 56.5,28.5 56.5,33.5 56.5,38.5C 61.5,38.5 66.5,38.5 71.5,38.5C 71.5,44.1667 71.5,49.8333 71.5,55.5C 66.5,55.5 61.5,55.5 56.5,55.5 Z"/></g>
<g><path style="opacity:1" fill="#a2a2a2" d="M 39.5,38.5 C 34.6946,39.4872 29.6946,39.8205 24.5,39.5C 24.5,44.8333 24.5,50.1667 24.5,55.5C 24.1667,55.5 23.8333,55.5 23.5,55.5C 23.5,49.8333 23.5,44.1667 23.5,38.5C 28.8333,38.5 34.1667,38.5 39.5,38.5 Z"/></g>
<g><path style="opacity:1" fill="#414141" d="M 23.5,55.5 C 23.8333,55.5 24.1667,55.5 24.5,55.5C 29.5,55.5 34.5,55.5 39.5,55.5C 39.5,60.5 39.5,65.5 39.5,70.5C 39.5,70.8333 39.5,71.1667 39.5,71.5C 38.5128,66.6946 38.1795,61.6946 38.5,56.5C 33.3054,56.8205 28.3054,56.4872 23.5,55.5 Z"/></g>
<g><path style="opacity:1" fill="#9f9f9f" d="M 56.5,55.5 C 56.5,60.8333 56.5,66.1667 56.5,71.5C 50.8333,71.5 45.1667,71.5 39.5,71.5C 39.5,71.1667 39.5,70.8333 39.5,70.5C 44.8333,70.5 50.1667,70.5 55.5,70.5C 55.1795,65.3054 55.5128,60.3054 56.5,55.5 Z"/></g>
</svg>
