<?xml version="1.0" encoding="UTF-8"?>
<!DOCTYPE svg PUBLIC "-//W3C//DTD SVG 1.1//EN" "http://www.w3.org/Graphics/SVG/1.1/DTD/svg11.dtd">
<svg xmlns="http://www.w3.org/2000/svg" version="1.1" width="96px" height="96px" style="shape-rendering:geometricPrecision; text-rendering:geometricPrecision; image-rendering:optimizeQuality; fill-rule:evenodd; clip-rule:evenodd" xmlns:xlink="http://www.w3.org/1999/xlink">
<g><path style="opacity:0.992" fill="#351e6d" d="M -0.5,-0.5 C 9.16667,-0.5 18.8333,-0.5 28.5,-0.5C 12.9403,6.28725 3.27363,17.9539 -0.5,34.5C -0.5,22.8333 -0.5,11.1667 -0.5,-0.5 Z"/></g>
<g><path style="opacity:0.995" fill="#3b1e7a" d="M 28.5,-0.5 C 30.8333,-0.5 33.1667,-0.5 35.5,-0.5C 31.256,1.2814 26.9227,3.11473 22.5,5C 20.9586,6.37121 19.6253,7.87121 18.5,9.5C 3.61981,24.5649 -0.713526,42.2316 5.5,62.5C 13.455,80.9109 27.6216,90.5776 48,91.5C 76.083,88.2505 91.583,72.5838 94.5,44.5C 92.0664,22.0924 80.3998,7.09242 59.5,-0.5C 61.8333,-0.5 64.1667,-0.5 66.5,-0.5C 81.4546,5.79166 91.1213,16.7917 95.5,32.5C 95.5,40.1667 95.5,47.8333 95.5,55.5C 85.687,84.7483 65.3536,96.915 34.5,92C 15.663,86.0023 3.9963,73.5023 -0.5,54.5C -0.5,47.8333 -0.5,41.1667 -0.5,34.5C 3.27363,17.9539 12.9403,6.28725 28.5,-0.5 Z"/></g>
<g><path style="opacity:0.989" fill="#3d1e7f" d="M 35.5,-0.5 C 43.5,-0.5 51.5,-0.5 59.5,-0.5C 80.3998,7.09242 92.0664,22.0924 94.5,44.5C 91.583,72.5838 76.083,88.2505 48,91.5C 27.6216,90.5776 13.455,80.9109 5.5,62.5C 20.4671,88.1006 41.8004,95.2672 69.5,84C 91.1883,69.0983 97.355,49.2649 88,24.5C 74.5366,2.56264 55.3699,-4.60403 30.5,3C 26.3179,4.92276 22.3179,7.08942 18.5,9.5C 19.6253,7.87121 20.9586,6.37121 22.5,5C 26.9227,3.11473 31.256,1.2814 35.5,-0.5 Z"/></g>
<g><path style="opacity:1" fill="#411d86" d="M 5.5,62.5 C -0.713526,42.2316 3.61981,24.5649 18.5,9.5C 22.3179,7.08942 26.3179,4.92276 30.5,3C 55.3699,-4.60403 74.5366,2.56264 88,24.5C 97.355,49.2649 91.1883,69.0983 69.5,84C 41.8004,95.2672 20.4671,88.1006 5.5,62.5 Z"/></g>
<g><path style="opacity:1" fill="#451d90" d="M 44.5,1.5 C 68.7585,1.55578 83.9252,13.5558 90,37.5C 91.775,63.7898 79.9417,80.2898 54.5,87C 27.6666,88.8344 11.1666,76.6677 5,50.5C 4.0622,22.6194 17.2289,6.28611 44.5,1.5 Z"/></g>
<g><path style="opacity:0.993" fill="#351e6d" d="M 66.5,-0.5 C 76.1667,-0.5 85.8333,-0.5 95.5,-0.5C 95.5,10.5 95.5,21.5 95.5,32.5C 91.1213,16.7917 81.4546,5.79166 66.5,-0.5 Z"/></g>
<g><path style="opacity:0.993" fill="#341e6b" d="M -0.5,54.5 C 3.9963,73.5023 15.663,86.0023 34.5,92C 65.3536,96.915 85.687,84.7483 95.5,55.5C 95.5,68.8333 95.5,82.1667 95.5,95.5C 63.5,95.5 31.5,95.5 -0.5,95.5C -0.5,81.8333 -0.5,68.1667 -0.5,54.5 Z"/></g>
<g><path style="opacity:1" fill="#4a1e9a" d="M 64.5,78.5 C 64.5,78.1667 64.5,77.8333 64.5,77.5C 65.1667,76.5 65.8333,75.5 66.5,74.5C 67.8734,74.6567 69.2068,74.49 70.5,74C 82.5482,63.3869 86.7148,50.2202 83,34.5C 80.7845,28.5662 77.9512,23.0662 74.5,18C 69.5203,15.0318 64.5203,12.0318 59.5,9C 36.3423,4.52133 20.5089,13.0213 12,34.5C 8.53844,50.114 12.7051,63.2807 24.5,74C 26.5433,74.64 28.2099,74.14 29.5,72.5C 29.2155,74.4147 29.5489,76.0813 30.5,77.5C 30.5,77.8333 30.5,78.1667 30.5,78.5C 30.0618,78.4346 29.7284,78.6012 29.5,79C 31.5951,79.5556 31.7618,80.0556 30,80.5C 12.1717,70.1731 5.17168,54.8398 9,34.5C 15.1136,16.4035 27.7803,6.40354 47,4.5C 74.6038,7.43653 87.9372,22.7699 87,50.5C 84.6304,63.5914 77.6304,73.2581 66,79.5C 65.6174,78.944 65.1174,78.6107 64.5,78.5 Z"/></g>
<g><path style="opacity:1" fill="#5c1dc2" d="M 44.5,18.5 C 43.4043,21.0316 42.0709,23.3649 40.5,25.5C 38.8913,25.6561 37.5579,24.6561 36.5,22.5C 22.1838,32.0813 19.1838,44.4147 27.5,59.5C 29.3381,60.1887 31.0048,60.5221 32.5,60.5C 30.7966,62.5072 30.4633,64.5072 31.5,66.5C 30.6561,70.0991 30.3227,73.7657 30.5,77.5C 29.5489,76.0813 29.2155,74.4147 29.5,72.5C 29.5,71.5 29.5,70.5 29.5,69.5C 29.2252,67.1582 28.3919,67.1582 27,69.5C 17.0443,60.706 13.3777,49.706 16,36.5C 20.1666,23.063 28.9999,15.7297 42.5,14.5C 43.1799,15.8599 43.8466,17.1932 44.5,18.5 Z"/></g>
<g><path style="opacity:1" fill="#e45713" d="M 47.5,16.5 C 47.5,25.8333 47.5,35.1667 47.5,44.5C 47.1866,47.2469 47.52,49.9135 48.5,52.5C 50.4086,51.6518 52.4086,51.3184 54.5,51.5C 54.3505,52.552 54.5172,53.552 55,54.5C 55.1909,52.2922 55.6909,50.2922 56.5,48.5C 56.3359,51.1873 56.5026,53.854 57,56.5C 59.4295,58.4221 61.2628,60.7554 62.5,63.5C 63.1098,64.391 63.4431,65.391 63.5,66.5C 64.3007,68.0418 64.634,69.7085 64.5,71.5C 64.5,73.5 64.5,75.5 64.5,77.5C 64.5,77.8333 64.5,78.1667 64.5,78.5C 63.8333,78.1667 63.1667,77.8333 62.5,77.5C 52.5498,64.1743 42.5498,64.1743 32.5,77.5C 31.8333,77.8333 31.1667,78.1667 30.5,78.5C 30.5,78.1667 30.5,77.8333 30.5,77.5C 30.3227,73.7657 30.6561,70.0991 31.5,66.5C 32.0447,64.4068 32.878,62.4068 34,60.5C 36.0435,58.792 37.7101,56.792 39,54.5C 39.6003,48.9024 39.1003,43.4024 37.5,38C 37.7991,33.6378 38.7991,29.4711 40.5,25.5C 42.0709,23.3649 43.4043,21.0316 44.5,18.5C 45.5,17.8333 46.5,17.1667 47.5,16.5 Z"/></g>
<g><path style="opacity:1" fill="#531daf" d="M 66.5,74.5 C 65.8333,75.5 65.1667,76.5 64.5,77.5C 64.5,75.5 64.5,73.5 64.5,71.5C 65.29,70.3915 65.79,69.0581 66,67.5C 67.4019,69.9734 68.9019,69.9734 70.5,67.5C 78.6964,58.7309 81.5297,48.3975 79,36.5C 74.7903,23.6219 66.1236,15.6219 53,12.5C 50.8887,13.4721 48.7221,14.3054 46.5,15C 47.4158,15.2784 48.0825,15.7784 48.5,16.5C 48.1667,16.5 47.8333,16.5 47.5,16.5C 46.5,17.1667 45.5,17.8333 44.5,18.5C 43.8466,17.1932 43.1799,15.8599 42.5,14.5C 28.9999,15.7297 20.1666,23.063 16,36.5C 13.3777,49.706 17.0443,60.706 27,69.5C 28.3919,67.1582 29.2252,67.1582 29.5,69.5C 28.399,70.7997 27.0657,71.2997 25.5,71C 13.3144,60.9416 9.64769,48.2749 14.5,33C 17.3593,30.4749 18.8593,27.3082 19,23.5C 30.2477,11.5123 44.0811,7.67896 60.5,12C 63.1667,13.3333 65.8333,14.6667 68.5,16C 74.4235,22.3631 78.9235,29.5297 82,37.5C 83.7591,47.1692 82.0924,56.1692 77,64.5C 74.2076,68.7979 70.7076,72.1312 66.5,74.5 Z"/></g>
<g><path style="opacity:1" fill="#4f1da5" d="M 66.5,74.5 C 70.7076,72.1312 74.2076,68.7979 77,64.5C 82.0924,56.1692 83.7591,47.1692 82,37.5C 78.9235,29.5297 74.4235,22.3631 68.5,16C 65.8333,14.6667 63.1667,13.3333 60.5,12C 44.0811,7.67896 30.2477,11.5123 19,23.5C 18.8593,27.3082 17.3593,30.4749 14.5,33C 9.64769,48.2749 13.3144,60.9416 25.5,71C 27.0657,71.2997 28.399,70.7997 29.5,69.5C 29.5,70.5 29.5,71.5 29.5,72.5C 28.2099,74.14 26.5433,74.64 24.5,74C 12.7051,63.2807 8.53844,50.114 12,34.5C 20.5089,13.0213 36.3423,4.52133 59.5,9C 64.5203,12.0318 69.5203,15.0318 74.5,18C 77.9512,23.0662 80.7845,28.5662 83,34.5C 86.7148,50.2202 82.5482,63.3869 70.5,74C 69.2068,74.49 67.8734,74.6567 66.5,74.5 Z"/></g>
<g><path style="opacity:1" fill="#691be1" d="M 40.5,25.5 C 38.7991,29.4711 37.7991,33.6378 37.5,38C 39.1003,43.4024 39.6003,48.9024 39,54.5C 37.7101,56.792 36.0435,58.792 34,60.5C 32.878,62.4068 32.0447,64.4068 31.5,66.5C 30.4633,64.5072 30.7966,62.5072 32.5,60.5C 31.0048,60.5221 29.3381,60.1887 27.5,59.5C 19.1838,44.4147 22.1838,32.0813 36.5,22.5C 37.5579,24.6561 38.8913,25.6561 40.5,25.5 Z"/></g>
<g><path style="opacity:1" fill="#faac2f" d="M 56.5,44.5 C 56.5,45.8333 56.5,47.1667 56.5,48.5C 55.6909,50.2922 55.1909,52.2922 55,54.5C 54.5172,53.552 54.3505,52.552 54.5,51.5C 52.4086,51.3184 50.4086,51.6518 48.5,52.5C 47.52,49.9135 47.1866,47.2469 47.5,44.5C 48.7763,42.4375 49.6097,40.1042 50,37.5C 51.8082,37.8881 53.4748,37.8881 55,37.5C 55.1862,40.0356 55.6862,42.369 56.5,44.5 Z"/></g>
<g><path style="opacity:1" fill="#fbd64d" d="M 47.5,16.5 C 47.8333,16.5 48.1667,16.5 48.5,16.5C 49.8333,18.1667 51.1667,19.8333 52.5,21.5C 54.3766,25.155 56.0433,28.8217 57.5,32.5C 57.693,36.5662 57.3597,40.5662 56.5,44.5C 55.6862,42.369 55.1862,40.0356 55,37.5C 53.4748,37.8881 51.8082,37.8881 50,37.5C 49.6097,40.1042 48.7763,42.4375 47.5,44.5C 47.5,35.1667 47.5,25.8333 47.5,16.5 Z"/></g>
<g><path style="opacity:1" fill="#6b1be8" d="M 62.5,63.5 C 61.2628,60.7554 59.4295,58.4221 57,56.5C 56.5026,53.854 56.3359,51.1873 56.5,48.5C 56.5,47.1667 56.5,45.8333 56.5,44.5C 57.3597,40.5662 57.693,36.5662 57.5,32.5C 58.2216,32.9175 58.7216,33.5842 59,34.5C 59.4955,32.5273 59.6621,30.5273 59.5,28.5C 61.9032,28.393 63.7365,29.393 65,31.5C 70.8297,39.7897 70.9963,48.123 65.5,56.5C 63.9223,57.2978 62.2556,57.7978 60.5,58C 62.6057,59.6371 63.2724,61.4705 62.5,63.5 Z"/></g>
<g><path style="opacity:1" fill="#621cd0" d="M 63.5,66.5 C 63.4431,65.391 63.1098,64.391 62.5,63.5C 63.2724,61.4705 62.6057,59.6371 60.5,58C 62.2556,57.7978 63.9223,57.2978 65.5,56.5C 70.9963,48.123 70.8297,39.7897 65,31.5C 63.7365,29.393 61.9032,28.393 59.5,28.5C 59.6621,30.5273 59.4955,32.5273 59,34.5C 58.7216,33.5842 58.2216,32.9175 57.5,32.5C 56.0433,28.8217 54.3766,25.155 52.5,21.5C 53.9138,21.1421 55.4138,20.1421 57,18.5C 66.485,21.987 72.485,28.6537 75,38.5C 77.1696,51.0768 73.3362,60.4101 63.5,66.5 Z"/></g>
<g><path style="opacity:1" fill="#5a1dbf" d="M 64.5,71.5 C 64.634,69.7085 64.3007,68.0418 63.5,66.5C 73.3362,60.4101 77.1696,51.0768 75,38.5C 72.485,28.6537 66.485,21.987 57,18.5C 55.4138,20.1421 53.9138,21.1421 52.5,21.5C 51.1667,19.8333 49.8333,18.1667 48.5,16.5C 48.0825,15.7784 47.4158,15.2784 46.5,15C 48.7221,14.3054 50.8887,13.4721 53,12.5C 66.1236,15.6219 74.7903,23.6219 79,36.5C 81.5297,48.3975 78.6964,58.7309 70.5,67.5C 68.9019,69.9734 67.4019,69.9734 66,67.5C 65.79,69.0581 65.29,70.3915 64.5,71.5 Z"/></g>
<g><path style="opacity:1" fill="#511cb1" d="M 62.5,77.5 C 58.5069,80.4283 53.5069,81.7617 47.5,81.5C 44.0762,81.5183 40.7428,81.0183 37.5,80C 36.1509,79.2276 35.3176,78.0609 35,76.5C 34.1618,77.999 33.3285,78.3324 32.5,77.5C 42.5498,64.1743 52.5498,64.1743 62.5,77.5 Z"/></g>
</svg>
