<?xml version="1.0" encoding="UTF-8"?>
<!DOCTYPE svg PUBLIC "-//W3C//DTD SVG 1.1//EN" "http://www.w3.org/Graphics/SVG/1.1/DTD/svg11.dtd">
<svg xmlns="http://www.w3.org/2000/svg" version="1.1" width="96px" height="96px" style="shape-rendering:geometricPrecision; text-rendering:geometricPrecision; image-rendering:optimizeQuality; fill-rule:evenodd; clip-rule:evenodd" xmlns:xlink="http://www.w3.org/1999/xlink">
<g><path style="opacity:0.997" fill="#fbfcfc" d="M 37.5,-0.5 C 44.1667,-0.5 50.8333,-0.5 57.5,-0.5C 77.1667,5.16667 89.8333,17.8333 95.5,37.5C 95.5,44.1667 95.5,50.8333 95.5,57.5C 89.8597,77.1403 77.193,89.807 57.5,95.5C 50.8333,95.5 44.1667,95.5 37.5,95.5C 17.8333,89.8333 5.16667,77.1667 -0.5,57.5C -0.5,50.8333 -0.5,44.1667 -0.5,37.5C 5.193,17.807 17.8597,5.14032 37.5,-0.5 Z"/></g>
<g><path style="opacity:1" fill="#35a8fe" d="M 61.5,49.5 C 61.0618,49.5654 60.7284,49.3988 60.5,49C 61.9399,46.2051 62.6066,43.2051 62.5,40C 62.7001,37.1345 62.0334,34.6345 60.5,32.5C 54.8785,23.3667 47.2118,21.2 37.5,26C 30.6599,30.8446 28.1599,37.3446 30,45.5C 30.7918,48.1064 32.2918,50.1064 34.5,51.5C 36.0714,54.2313 38.4048,56.0646 41.5,57C 44.796,57.3252 47.796,57.4919 50.5,57.5C 49.7101,58.7942 48.7101,59.9609 47.5,61C 39.8927,60.6335 34.226,63.6335 30.5,70C 25.7523,72.5165 20.7523,74.3498 15.5,75.5C 9.89844,69.6303 6.39844,62.6303 5,54.5C 2.6247,36.9605 8.45803,22.7938 22.5,12C 36.117,3.58486 50.4503,2.25153 65.5,8C 74.595,12.1293 81.4283,18.6293 86,27.5C 87.5132,30.0239 88.1799,32.6906 88,35.5C 87.0975,36.7014 85.9308,37.5348 84.5,38C 80.7897,38.8947 77.123,39.8947 73.5,41C 71.5,43.3333 69.5,45.6667 67.5,48C 65.6547,49.128 63.6547,49.628 61.5,49.5 Z"/></g>
<g><path style="opacity:1" fill="#fcfdfe" d="M 60.5,32.5 C 60.2907,50.3738 51.624,56.7071 34.5,51.5C 32.2918,50.1064 30.7918,48.1064 30,45.5C 28.1599,37.3446 30.6599,30.8446 37.5,26C 47.2118,21.2 54.8785,23.3667 60.5,32.5 Z"/></g>
<g><path style="opacity:1" fill="#95d3ff" d="M 21.5,56.5 C 22.5618,54.2435 24.2285,53.0768 26.5,53C 25.2107,54.8022 23.5441,55.9688 21.5,56.5 Z"/></g>
<g><path style="opacity:1" fill="#c6d7ee" d="M 60.5,32.5 C 62.0334,34.6345 62.7001,37.1345 62.5,40C 62.6066,43.2051 61.9399,46.2051 60.5,49C 60.7284,49.3988 61.0618,49.5654 61.5,49.5C 58.4029,52.8884 54.7363,55.5551 50.5,57.5C 47.796,57.4919 44.796,57.3252 41.5,57C 38.4048,56.0646 36.0714,54.2313 34.5,51.5C 51.624,56.7071 60.2907,50.3738 60.5,32.5 Z"/></g>
<g><path style="opacity:1" fill="#e7f3fd" d="M 33.5,55.5 C 34.5,55.5 35.5,55.5 36.5,55.5C 36.8841,57.6648 36.2174,59.3315 34.5,60.5C 32.2957,59.218 31.9624,57.5514 33.5,55.5 Z"/></g>
<g><path style="opacity:1" fill="#9ad5ff" d="M 21.5,56.5 C 20.7456,58.4459 19.4122,59.2793 17.5,59C 18.4709,57.5187 19.8042,56.6854 21.5,56.5 Z"/></g>
<g><path style="opacity:1" fill="#98d4ff" d="M 26.5,61.5 C 25.8333,61.5 25.1667,61.5 24.5,61.5C 25.5618,59.2435 27.2285,58.0768 29.5,58C 28.2899,59.0391 27.2899,60.2058 26.5,61.5 Z"/></g>
<g><path style="opacity:1" fill="#c5d6ee" d="M 61.5,56.5 C 62.9778,56.238 64.3112,56.5713 65.5,57.5C 61.8547,61.497 57.5213,63.497 52.5,63.5C 55.3492,60.9163 58.3492,58.583 61.5,56.5 Z"/></g>
<g><path style="opacity:1" fill="#96d3ff" d="M 24.5,61.5 C 23.4382,63.7565 21.7715,64.9232 19.5,65C 20.7893,63.1978 22.4559,62.0312 24.5,61.5 Z"/></g>
<g><path style="opacity:1" fill="#addbfd" d="M 26.5,61.5 C 27.675,61.281 28.675,61.6143 29.5,62.5C 27.9483,63.7979 26.9483,63.4646 26.5,61.5 Z"/></g>
<g><path style="opacity:1" fill="#74c1fe" d="M 28.5,64.5 C 29.6448,65.7927 29.3115,66.9593 27.5,68C 25.6942,68.8096 24.1942,69.9762 23,71.5C 22.5,71.1667 22,70.8333 21.5,70.5C 24.0508,68.7289 26.3842,66.7289 28.5,64.5 Z"/></g>
</svg>
