<?xml version="1.0" encoding="UTF-8"?>
<!DOCTYPE svg PUBLIC "-//W3C//DTD SVG 1.1//EN" "http://www.w3.org/Graphics/SVG/1.1/DTD/svg11.dtd">
<svg xmlns="http://www.w3.org/2000/svg" version="1.1" width="96px" height="96px" style="shape-rendering:geometricPrecision; text-rendering:geometricPrecision; image-rendering:optimizeQuality; fill-rule:evenodd; clip-rule:evenodd" xmlns:xlink="http://www.w3.org/1999/xlink">
<g><path style="opacity:0.975" fill="#beaadf" d="M 19.5,8.5 C 19.5,9.83333 20.1667,10.5 21.5,10.5C 29.6488,21.4505 37.3155,32.7839 44.5,44.5C 39.2534,46.2723 39.2534,48.1057 44.5,50C 40.8928,50.7969 37.7261,49.9636 35,47.5C 34.3123,46.6683 34.479,46.0016 35.5,45.5C 37.1667,44.6667 38.8333,43.8333 40.5,43C 36.7577,42.2045 34.091,43.5378 32.5,47C 35.0768,50.7508 38.7435,52.5841 43.5,52.5C 36.2503,63.3308 29.2503,74.3308 22.5,85.5C 22.1667,85.5 21.8333,85.5 21.5,85.5C 20.5798,84.9326 20.2465,85.5992 20.5,87.5C 9.84982,80.5544 2.84982,70.8877 -0.5,58.5C -0.5,51.5 -0.5,44.5 -0.5,37.5C 2.94507,25.6093 9.61173,15.9427 19.5,8.5 Z"/></g>
<g><path style="opacity:0.975" fill="#beaae0" d="M 38.5,-0.5 C 44.5,-0.5 50.5,-0.5 56.5,-0.5C 76.7338,4.73372 89.7338,17.4004 95.5,37.5C 95.5,44.5 95.5,51.5 95.5,58.5C 90.2378,77.4284 78.2378,89.7617 59.5,95.5C 51.5,95.5 43.5,95.5 35.5,95.5C 31.9323,94.0591 28.2656,92.5591 24.5,91C 22.9069,90.0513 21.5736,88.8846 20.5,87.5C 20.2465,85.5992 20.5798,84.9326 21.5,85.5C 29.6394,86.8314 38.1394,87.4981 47,87.5C 55.6734,87.4998 64.1734,87.1664 72.5,86.5C 73.525,86.1034 73.6917,85.4368 73,84.5C 65.5754,73.9771 58.4087,63.3105 51.5,52.5C 54.5259,51.8264 57.5259,50.9931 60.5,50C 62.2112,48.8668 62.7112,47.3668 62,45.5C 59.4755,42.6058 56.6421,41.7724 53.5,43C 55.4595,43.9309 57.4595,44.7643 59.5,45.5C 60.521,46.0016 60.6877,46.6683 60,47.5C 57.1208,49.5732 53.9542,50.4066 50.5,50C 55.4793,48.9872 56.146,47.1539 52.5,44.5C 51.707,45.3554 52.0403,46.1887 53.5,47C 52.0953,48.2692 50.4286,48.7692 48.5,48.5C 56.5626,35.3868 64.8959,22.3868 73.5,9.5C 64.8333,9.16667 56.1667,8.83333 47.5,8.5C 38.4733,8.50186 29.8066,9.16853 21.5,10.5C 20.1667,10.5 19.5,9.83333 19.5,8.5C 25.382,4.53974 31.7153,1.53974 38.5,-0.5 Z"/></g>
<g><path style="opacity:1" fill="#3f0c53" d="M 48.5,48.5 C 47.8333,48.5 47.1667,48.5 46.5,48.5C 46.573,46.9731 45.9063,45.9731 44.5,45.5C 44.5,45.1667 44.5,44.8333 44.5,44.5C 37.3155,32.7839 29.6488,21.4505 21.5,10.5C 29.8066,9.16853 38.4733,8.50186 47.5,8.5C 56.1667,8.83333 64.8333,9.16667 73.5,9.5C 64.8959,22.3868 56.5626,35.3868 48.5,48.5 Z"/></g>
<g><path style="opacity:1" fill="#a273bb" d="M 30.5,12.5 C 42.5046,12.3335 54.5046,12.5001 66.5,13C 65.9341,13.9947 65.2674,14.828 64.5,15.5C 64.0623,14.4937 63.3957,14.4937 62.5,15.5C 52.5,14.1667 42.5,14.1667 32.5,15.5C 31.5987,14.7095 30.9321,13.7095 30.5,12.5 Z"/></g>
<g><path style="opacity:1" fill="#beaae0" d="M 30.5,12.5 C 30.9321,13.7095 31.5987,14.7095 32.5,15.5C 37.2407,23.309 42.2407,30.9756 47.5,38.5C 52.7593,30.9756 57.7593,23.309 62.5,15.5C 63.3957,14.4937 64.0623,14.4937 64.5,15.5C 59.2171,24.1123 53.5504,32.4457 47.5,40.5C 41.2651,31.7089 35.2651,22.7089 29.5,13.5C 29.6236,12.8933 29.9569,12.56 30.5,12.5 Z"/></g>
<g><path style="opacity:1" fill="#9758aa" d="M 62.5,15.5 C 57.7593,23.309 52.7593,30.9756 47.5,38.5C 42.2407,30.9756 37.2407,23.309 32.5,15.5C 42.5,14.1667 52.5,14.1667 62.5,15.5 Z"/></g>
<g><path style="opacity:1" fill="#7ccccd" d="M 58.5,17.5 C 54.8588,22.8154 51.1921,28.1487 47.5,33.5C 43.8079,28.1487 40.1412,22.8154 36.5,17.5C 43.8333,16.1667 51.1667,16.1667 58.5,17.5 Z"/></g>
<g><path style="opacity:1" fill="#9c86bd" d="M 58.5,17.5 C 51.1667,16.1667 43.8333,16.1667 36.5,17.5C 35.9569,17.44 35.6236,17.1067 35.5,16.5C 43.5,15.1667 51.5,15.1667 59.5,16.5C 59.3764,17.1067 59.0431,17.44 58.5,17.5 Z"/></g>
<g><path style="opacity:1" fill="#bf5d6f" d="M 51.5,52.5 C 48.8333,52.5 46.1667,52.5 43.5,52.5C 38.7435,52.5841 35.0768,50.7508 32.5,47C 34.091,43.5378 36.7577,42.2045 40.5,43C 38.8333,43.8333 37.1667,44.6667 35.5,45.5C 34.479,46.0016 34.3123,46.6683 35,47.5C 37.7261,49.9636 40.8928,50.7969 44.5,50C 39.2534,48.1057 39.2534,46.2723 44.5,44.5C 44.5,44.8333 44.5,45.1667 44.5,45.5C 40.8694,47.6212 41.5361,48.6212 46.5,48.5C 47.1667,48.5 47.8333,48.5 48.5,48.5C 50.4286,48.7692 52.0953,48.2692 53.5,47C 52.0403,46.1887 51.707,45.3554 52.5,44.5C 56.146,47.1539 55.4793,48.9872 50.5,50C 53.9542,50.4066 57.1208,49.5732 60,47.5C 60.6877,46.6683 60.521,46.0016 59.5,45.5C 57.4595,44.7643 55.4595,43.9309 53.5,43C 56.6421,41.7724 59.4755,42.6058 62,45.5C 62.7112,47.3668 62.2112,48.8668 60.5,50C 57.5259,50.9931 54.5259,51.8264 51.5,52.5 Z"/></g>
<g><path style="opacity:1" fill="#c1b3e9" d="M 44.5,45.5 C 45.9063,45.9731 46.573,46.9731 46.5,48.5C 41.5361,48.6212 40.8694,47.6212 44.5,45.5 Z"/></g>
<g><path style="opacity:1" fill="#3d0b51" d="M 43.5,52.5 C 46.1667,52.5 48.8333,52.5 51.5,52.5C 58.4087,63.3105 65.5754,73.9771 73,84.5C 73.6917,85.4368 73.525,86.1034 72.5,86.5C 55.6583,86.8298 38.9916,86.4965 22.5,85.5C 29.2503,74.3308 36.2503,63.3308 43.5,52.5 Z"/></g>
<g><path style="opacity:1" fill="#b69bd6" d="M 53.5,64.5 C 51.2812,62.4245 49.2812,60.0912 47.5,57.5C 44.1426,61.852 40.8093,66.1853 37.5,70.5C 40.3109,64.8865 43.6442,59.5532 47.5,54.5C 50.0259,57.5575 52.0259,60.8908 53.5,64.5 Z"/></g>
<g><path style="opacity:1" fill="#bca3dc" d="M 53.5,64.5 C 57.5746,68.9756 60.9079,73.9756 63.5,79.5C 59.3897,75.0492 56.0563,70.0492 53.5,64.5 Z"/></g>
<g><path style="opacity:1" fill="#9c64b2" d="M 53.5,64.5 C 56.0563,70.0492 59.3897,75.0492 63.5,79.5C 58.5442,80.8282 53.2109,81.4949 47.5,81.5C 41.7891,81.4949 36.4558,80.8282 31.5,79.5C 32.7589,75.9754 34.7589,72.9754 37.5,70.5C 40.8093,66.1853 44.1426,61.852 47.5,57.5C 49.2812,60.0912 51.2812,62.4245 53.5,64.5 Z"/></g>
<g><path style="opacity:1" fill="#beaae0" d="M 44.5,65.5 C 46.5,73.5 48.5,73.5 50.5,65.5C 53.1433,69.4346 55.81,73.4346 58.5,77.5C 51.1667,78.8333 43.8333,78.8333 36.5,77.5C 38.8336,73.1872 41.5003,69.1872 44.5,65.5 Z"/></g>
<g><path style="opacity:1" fill="#77d0cc" d="M 50.5,65.5 C 48.5,73.5 46.5,73.5 44.5,65.5C 46.5,60.1667 48.5,60.1667 50.5,65.5 Z"/></g>
<g><path style="opacity:1" fill="#c7b3e9" d="M 31.5,79.5 C 36.4558,80.8282 41.7891,81.4949 47.5,81.5C 53.2109,81.4949 58.5442,80.8282 63.5,79.5C 64.5,79.8333 65.1667,80.5 65.5,81.5C 53.5,82.8333 41.5,82.8333 29.5,81.5C 29.8333,80.5 30.5,79.8333 31.5,79.5 Z"/></g>
<g><path style="opacity:1" fill="#744d8e" d="M 29.5,81.5 C 41.5,82.8333 53.5,82.8333 65.5,81.5C 66.0431,81.56 66.3764,81.8933 66.5,82.5C 53.8333,83.8333 41.1667,83.8333 28.5,82.5C 28.6236,81.8933 28.9569,81.56 29.5,81.5 Z"/></g>
<g><path style="opacity:1" fill="#6d4486" d="M 21.5,85.5 C 21.8333,85.5 22.1667,85.5 22.5,85.5C 38.9916,86.4965 55.6583,86.8298 72.5,86.5C 64.1734,87.1664 55.6734,87.4998 47,87.5C 38.1394,87.4981 29.6394,86.8314 21.5,85.5 Z"/></g>
</svg>
