<?xml version="1.0" encoding="UTF-8"?>
<!DOCTYPE svg PUBLIC "-//W3C//DTD SVG 1.1//EN" "http://www.w3.org/Graphics/SVG/1.1/DTD/svg11.dtd">
<svg xmlns="http://www.w3.org/2000/svg" version="1.1" width="96px" height="96px" style="shape-rendering:geometricPrecision; text-rendering:geometricPrecision; image-rendering:optimizeQuality; fill-rule:evenodd; clip-rule:evenodd" xmlns:xlink="http://www.w3.org/1999/xlink">
<g><path style="opacity:1" fill="#ab46d7" d="M 42.5,1.5 C 45.3303,1.96282 47.997,2.62949 50.5,3.5C 50.8333,4.16667 51.1667,4.83333 51.5,5.5C 48.4824,5.29619 45.4824,4.96286 42.5,4.5C 39.3915,4.73586 36.3915,4.40252 33.5,3.5C 36.1709,1.88195 39.1709,1.21528 42.5,1.5 Z"/></g>
<g><path style="opacity:1" fill="#942bc8" d="M 42.5,1.5 C 49.0217,0.00248668 55.3551,0.669153 61.5,3.5C 64.7661,6.46452 68.4327,9.79785 72.5,13.5C 73.6298,15.3146 74.2964,17.3146 74.5,19.5C 74.5,20.5 74.5,21.5 74.5,22.5C 71.584,16.0612 67.2507,10.5612 61.5,6C 58.0769,4.09614 54.4102,3.2628 50.5,3.5C 47.997,2.62949 45.3303,1.96282 42.5,1.5 Z"/></g>
<g><path style="opacity:0.447" fill="#7c1db3" d="M 61.5,3.5 C 66.596,4.54596 70.9293,6.8793 74.5,10.5C 74.3893,11.1174 74.056,11.6174 73.5,12C 74.8228,12.8159 75.4894,13.9826 75.5,15.5C 74.5,14.8333 73.5,14.1667 72.5,13.5C 68.4327,9.79785 64.7661,6.46452 61.5,3.5 Z"/></g>
<g><path style="opacity:1" fill="#cd71f1" d="M 42.5,5.5 C 45.1316,6.47197 47.4649,7.8053 49.5,9.5C 50.8333,11.1667 52.1667,12.8333 53.5,14.5C 52.8333,14.5 52.1667,14.5 51.5,14.5C 49.436,11.2941 46.436,9.46078 42.5,9C 36.6547,8.05162 30.988,8.55162 25.5,10.5C 26.7489,8.8639 28.4156,7.69724 30.5,7C 34.5101,6.49874 38.5101,5.99874 42.5,5.5 Z"/></g>
<g><path style="opacity:1" fill="#a033d5" d="M 50.5,3.5 C 54.4102,3.2628 58.0769,4.09614 61.5,6C 67.2507,10.5612 71.584,16.0612 74.5,22.5C 75.3449,24.7715 76.3449,27.1048 77.5,29.5C 77.4573,30.4164 77.1239,31.0831 76.5,31.5C 75.4479,29.744 73.7812,29.0773 71.5,29.5C 71.5,27.1667 71.5,24.8333 71.5,22.5C 70.8348,17.6728 68.5015,13.8395 64.5,11C 61.588,9.76039 58.9213,8.09372 56.5,6C 54.8659,5.50649 53.1992,5.33982 51.5,5.5C 51.1667,4.83333 50.8333,4.16667 50.5,3.5 Z"/></g>
<g><path style="opacity:1" fill="#c858f2" d="M 42.5,5.5 C 42.5,5.16667 42.5,4.83333 42.5,4.5C 45.4824,4.96286 48.4824,5.29619 51.5,5.5C 56.2416,7.40736 59.9083,10.574 62.5,15C 62.2568,15.9021 61.9234,16.7354 61.5,17.5C 61.5,17.8333 61.5,18.1667 61.5,18.5C 61.5,18.8333 61.5,19.1667 61.5,19.5C 59.0421,14.3801 55.0421,11.0468 49.5,9.5C 47.4649,7.8053 45.1316,6.47197 42.5,5.5 Z"/></g>
<g><path style="opacity:1" fill="#e2a4f9" d="M 30.5,12.5 C 34.7016,12.1832 38.7016,12.5166 42.5,13.5C 38.6286,13.185 34.9619,13.5184 31.5,14.5C 27.4428,15.0551 24.4428,17.0551 22.5,20.5C 20.5,22.1667 18.5,23.8333 16.5,25.5C 18.378,18.0094 23.0447,13.6761 30.5,12.5 Z"/></g>
<g><path style="opacity:1" fill="#b65dde" d="M 33.5,3.5 C 36.3915,4.40252 39.3915,4.73586 42.5,4.5C 42.5,4.83333 42.5,5.16667 42.5,5.5C 38.5101,5.99874 34.5101,6.49874 30.5,7C 28.4156,7.69724 26.7489,8.8639 25.5,10.5C 19.8287,12.1768 16.1621,15.8435 14.5,21.5C 13.2502,21.5774 12.4169,22.244 12,23.5C 10.7832,29.101 10.2832,34.7676 10.5,40.5C 10.5,41.1667 10.5,41.8333 10.5,42.5C 9.06152,38.9273 7.72819,35.2606 6.5,31.5C 10.7651,17.5688 19.7651,8.23546 33.5,3.5 Z"/></g>
<g><path style="opacity:1" fill="#ebb3fe" d="M 31.5,14.5 C 34.9619,13.5184 38.6286,13.185 42.5,13.5C 46.0339,17.7816 47.7005,22.7816 47.5,28.5C 47.5,28.8333 47.5,29.1667 47.5,29.5C 46.5,29.5 45.5,29.5 44.5,29.5C 44.9842,24.2889 43.6508,19.6222 40.5,15.5C 37.5719,14.5159 34.5719,14.1826 31.5,14.5 Z"/></g>
<g><path style="opacity:1" fill="#eec8fe" d="M 31.5,14.5 C 34.5719,14.1826 37.5719,14.5159 40.5,15.5C 43.6508,19.6222 44.9842,24.2889 44.5,29.5C 45.5,29.5 46.5,29.5 47.5,29.5C 48.4916,29.3284 49.1583,29.6618 49.5,30.5C 48.1266,30.3433 46.7932,30.51 45.5,31C 46.4558,34.3936 46.7892,37.8936 46.5,41.5C 45.8333,41.5 45.5,41.1667 45.5,40.5C 45.0909,37.1893 43.9242,34.1893 42,31.5C 42.2935,25.9932 40.9602,20.9932 38,16.5C 35.2628,15.3895 32.4294,15.2228 29.5,16C 28.944,16.3826 28.6107,16.8826 28.5,17.5C 27.0002,18.5875 25.6669,19.9208 24.5,21.5C 23.52,24.0865 23.1866,26.7531 23.5,29.5C 21.8333,29.5 20.1667,29.5 18.5,29.5C 19.0873,26.1204 20.4206,23.1204 22.5,20.5C 24.4428,17.0551 27.4428,15.0551 31.5,14.5 Z"/></g>
<g><path style="opacity:1" fill="#e6a2fe" d="M 30.5,12.5 C 34.9811,11.3516 39.6478,11.1849 44.5,12C 45.4158,12.2784 46.0825,12.7784 46.5,13.5C 47.9293,14.2342 48.9293,15.4009 49.5,17C 50.6191,20.7611 51.2857,24.5945 51.5,28.5C 50.1667,28.5 48.8333,28.5 47.5,28.5C 47.7005,22.7816 46.0339,17.7816 42.5,13.5C 38.7016,12.5166 34.7016,12.1832 30.5,12.5 Z"/></g>
<g><path style="opacity:1" fill="#e9c3ff" d="M 45.5,40.5 C 43.0258,38.0483 41.0258,35.3816 39.5,32.5C 41.1523,26.6046 39.819,21.4379 35.5,17C 33.6131,16.2204 31.9464,16.3871 30.5,17.5C 29.8333,17.5 29.1667,17.5 28.5,17.5C 28.6107,16.8826 28.944,16.3826 29.5,16C 32.4294,15.2228 35.2628,15.3895 38,16.5C 40.9602,20.9932 42.2935,25.9932 42,31.5C 43.9242,34.1893 45.0909,37.1893 45.5,40.5 Z"/></g>
<g><path style="opacity:1" fill="#de95ff" d="M 46.5,13.5 C 48.2161,13.6287 49.8828,13.962 51.5,14.5C 52.1667,14.5 52.8333,14.5 53.5,14.5C 55.2426,20.6141 55.9093,26.6141 55.5,32.5C 54.4707,35.8908 52.4707,38.5574 49.5,40.5C 50.392,37.5176 51.7253,34.6843 53.5,32C 52.4366,30.8118 51.1033,30.3118 49.5,30.5C 49.1583,29.6618 48.4916,29.3284 47.5,29.5C 47.5,29.1667 47.5,28.8333 47.5,28.5C 48.8333,28.5 50.1667,28.5 51.5,28.5C 51.2857,24.5945 50.6191,20.7611 49.5,17C 48.9293,15.4009 47.9293,14.2342 46.5,13.5 Z"/></g>
<g><path style="opacity:1" fill="#6914a4" d="M 74.5,10.5 C 77.1667,12.5 79.5,14.8333 81.5,17.5C 82.3008,21.8972 83.3008,26.2306 84.5,30.5C 83.8333,30.1667 83.1667,29.8333 82.5,29.5C 81.9708,27.2156 80.9708,25.2156 79.5,23.5C 79.2064,20.2459 77.873,17.5792 75.5,15.5C 75.4894,13.9826 74.8228,12.8159 73.5,12C 74.056,11.6174 74.3893,11.1174 74.5,10.5 Z"/></g>
<g><path style="opacity:0.999" fill="#de80ff" d="M 53.5,14.5 C 55.3046,15.2371 56.9713,16.2371 58.5,17.5C 59.6609,21.7953 59.8275,26.1287 59,30.5C 58.2917,31.3805 57.4584,32.0472 56.5,32.5C 56.1667,32.5 55.8333,32.5 55.5,32.5C 55.9093,26.6141 55.2426,20.6141 53.5,14.5 Z"/></g>
<g><path style="opacity:1" fill="#b744e8" d="M 51.5,5.5 C 53.1992,5.33982 54.8659,5.50649 56.5,6C 58.9213,8.09372 61.588,9.76039 64.5,11C 68.5015,13.8395 70.8348,17.6728 71.5,22.5C 69.9731,22.427 68.9731,23.0937 68.5,24.5C 67.1851,25.4756 65.8518,26.4756 64.5,27.5C 63.52,24.9135 63.1866,22.2469 63.5,19.5C 64.8333,19.5 66.1667,19.5 67.5,19.5C 68.0431,19.44 68.3764,19.1067 68.5,18.5C 66.2573,17.5258 63.924,17.1924 61.5,17.5C 61.9234,16.7354 62.2568,15.9021 62.5,15C 59.9083,10.574 56.2416,7.40736 51.5,5.5 Z"/></g>
<g><path style="opacity:1" fill="#dda0f4" d="M 61.5,18.5 C 61.5,18.1667 61.5,17.8333 61.5,17.5C 63.924,17.1924 66.2573,17.5258 68.5,18.5C 68.3764,19.1067 68.0431,19.44 67.5,19.5C 65.7354,18.5386 63.7354,18.2053 61.5,18.5 Z"/></g>
<g><path style="opacity:1" fill="#fdf9ff" d="M 28.5,17.5 C 29.1667,17.5 29.8333,17.5 30.5,17.5C 31.5,17.5 32.5,17.5 33.5,17.5C 33.3343,21.8461 33.501,26.1794 34,30.5C 35.0391,31.7101 36.2058,32.7101 37.5,33.5C 37.1667,34.1667 36.8333,34.8333 36.5,35.5C 35.5,34.8333 34.5,34.1667 33.5,33.5C 31.3598,30.835 28.8598,28.5017 26,26.5C 25.9504,28.744 25.1171,30.4107 23.5,31.5C 21.2188,31.9227 19.5521,31.256 18.5,29.5C 20.1667,29.5 21.8333,29.5 23.5,29.5C 23.1866,26.7531 23.52,24.0865 24.5,21.5C 25.6669,19.9208 27.0002,18.5875 28.5,17.5 Z"/></g>
<g><path style="opacity:1" fill="#faf1fe" d="M 61.5,18.5 C 63.7354,18.2053 65.7354,18.5386 67.5,19.5C 66.1667,19.5 64.8333,19.5 63.5,19.5C 63.1866,22.2469 63.52,24.9135 64.5,27.5C 65.8518,26.4756 67.1851,25.4756 68.5,24.5C 69.5063,24.9377 69.5063,25.6043 68.5,26.5C 67.5987,27.2905 66.9321,28.2905 66.5,29.5C 63.5726,30.7573 61.2393,32.7573 59.5,35.5C 58.1667,35.5 57.5,34.8333 57.5,33.5C 58.7942,32.7101 59.9609,31.7101 61,30.5C 61.4986,26.8484 61.6653,23.1817 61.5,19.5C 61.5,19.1667 61.5,18.8333 61.5,18.5 Z"/></g>
<g><path style="opacity:1" fill="#f4d7ff" d="M 30.5,17.5 C 31.9464,16.3871 33.6131,16.2204 35.5,17C 39.819,21.4379 41.1523,26.6046 39.5,32.5C 38.8333,32.8333 38.1667,33.1667 37.5,33.5C 36.2058,32.7101 35.0391,31.7101 34,30.5C 33.501,26.1794 33.3343,21.8461 33.5,17.5C 32.5,17.5 31.5,17.5 30.5,17.5 Z"/></g>
<g><path style="opacity:1" fill="#d86cfd" d="M 49.5,9.5 C 55.0421,11.0468 59.0421,14.3801 61.5,19.5C 61.6653,23.1817 61.4986,26.8484 61,30.5C 59.9609,31.7101 58.7942,32.7101 57.5,33.5C 56.8333,33.5 56.5,33.1667 56.5,32.5C 57.4584,32.0472 58.2917,31.3805 59,30.5C 59.8275,26.1287 59.6609,21.7953 58.5,17.5C 56.9713,16.2371 55.3046,15.2371 53.5,14.5C 52.1667,12.8333 50.8333,11.1667 49.5,9.5 Z"/></g>
<g><path style="opacity:1" fill="#d383f2" d="M 51.5,14.5 C 49.8828,13.962 48.2161,13.6287 46.5,13.5C 46.0825,12.7784 45.4158,12.2784 44.5,12C 39.6478,11.1849 34.9811,11.3516 30.5,12.5C 23.0447,13.6761 18.378,18.0094 16.5,25.5C 15.1999,27.223 14.5332,29.3897 14.5,32C 14.6443,36.2096 15.1443,40.3763 16,44.5C 16.2784,45.4158 16.7784,46.0825 17.5,46.5C 17.5,47.1667 17.5,47.8333 17.5,48.5C 15.0158,46.8802 13.5158,44.5469 13,41.5C 12.01,34.6613 12.51,27.9947 14.5,21.5C 16.1621,15.8435 19.8287,12.1768 25.5,10.5C 30.988,8.55162 36.6547,8.05162 42.5,9C 46.436,9.46078 49.436,11.2941 51.5,14.5 Z"/></g>
<g><path style="opacity:1" fill="#efd3fa" d="M 71.5,22.5 C 71.5,24.8333 71.5,27.1667 71.5,29.5C 73.7812,29.0773 75.4479,29.744 76.5,31.5C 75.1667,31.5 73.8333,31.5 72.5,31.5C 71.5,31.5 70.5,31.5 69.5,31.5C 69.7845,29.5853 69.4511,27.9187 68.5,26.5C 69.5063,25.6043 69.5063,24.9377 68.5,24.5C 68.9731,23.0937 69.9731,22.427 71.5,22.5 Z"/></g>
<g><path style="opacity:1" fill="#7b1cb9" d="M 72.5,13.5 C 73.5,14.1667 74.5,14.8333 75.5,15.5C 77.873,17.5792 79.2064,20.2459 79.5,23.5C 80.0588,27.8526 80.7255,32.186 81.5,36.5C 80.6746,39.3718 79.8412,42.3718 79,45.5C 78.6174,46.056 78.1174,46.3893 77.5,46.5C 79.5009,39.1813 79.6675,31.8479 78,24.5C 76.9702,22.6536 75.8036,20.9869 74.5,19.5C 74.2964,17.3146 73.6298,15.3146 72.5,13.5 Z"/></g>
<g><path style="opacity:1" fill="#6611a3" d="M 82.5,29.5 C 83.1667,29.8333 83.8333,30.1667 84.5,30.5C 84.8333,31.1667 85.1667,31.8333 85.5,32.5C 85.6659,37.5111 85.4993,42.5111 85,47.5C 84.647,50.1525 83.4803,52.1525 81.5,53.5C 81.5636,48.0614 82.2303,42.728 83.5,37.5C 83.3856,34.7825 83.0523,32.1159 82.5,29.5 Z"/></g>
<g><path style="opacity:1" fill="#faf6ff" d="M 49.5,30.5 C 48.5773,34.0641 48.244,37.7307 48.5,41.5C 48.5,41.8333 48.5,42.1667 48.5,42.5C 47.8333,42.5 47.1667,42.5 46.5,42.5C 46.5,42.1667 46.5,41.8333 46.5,41.5C 46.7892,37.8936 46.4558,34.3936 45.5,31C 46.7932,30.51 48.1266,30.3433 49.5,30.5 Z"/></g>
<g><path style="opacity:1" fill="#ce5ef8" d="M 66.5,29.5 C 67.5064,30.9792 67.5064,32.6459 66.5,34.5C 65.1959,38.447 63.5293,42.1137 61.5,45.5C 61.6747,43.3792 61.3414,41.3792 60.5,39.5C 59.7659,38.2921 59.4326,36.9587 59.5,35.5C 61.2393,32.7573 63.5726,30.7573 66.5,29.5 Z"/></g>
<g><path style="opacity:1" fill="#8121c0" d="M 74.5,19.5 C 75.8036,20.9869 76.9702,22.6536 78,24.5C 79.6675,31.8479 79.5009,39.1813 77.5,46.5C 77.5792,47.9305 77.2458,49.2638 76.5,50.5C 73.7736,51.9441 72.7736,53.9441 73.5,56.5C 71.901,56.2322 70.5676,56.5655 69.5,57.5C 66.8133,58.0606 66.8133,57.3939 69.5,55.5C 71.4509,54.2842 72.9509,52.6175 74,50.5C 74.7138,47.4055 75.7138,44.4055 77,41.5C 77.8045,38.3035 77.6378,35.3035 76.5,32.5C 76.5,32.1667 76.5,31.8333 76.5,31.5C 77.1239,31.0831 77.4573,30.4164 77.5,29.5C 76.3449,27.1048 75.3449,24.7715 74.5,22.5C 74.5,21.5 74.5,20.5 74.5,19.5 Z"/></g>
<g><path style="opacity:1" fill="#f1caff" d="M 18.5,29.5 C 19.5521,31.256 21.2188,31.9227 23.5,31.5C 24.2415,34.1381 26.0749,35.4714 29,35.5C 30.833,35.4814 32.333,34.8148 33.5,33.5C 34.5,34.1667 35.5,34.8333 36.5,35.5C 36.1667,36.1667 35.8333,36.8333 35.5,37.5C 34.0115,38.9385 32.1782,39.6052 30,39.5C 25.8038,39.0465 21.9705,37.7131 18.5,35.5C 17.1667,33.5 17.1667,31.5 18.5,29.5 Z"/></g>
<g><path style="opacity:1" fill="#f6ddff" d="M 33.5,33.5 C 32.333,34.8148 30.833,35.4814 29,35.5C 26.0749,35.4714 24.2415,34.1381 23.5,31.5C 25.1171,30.4107 25.9504,28.744 26,26.5C 28.8598,28.5017 31.3598,30.835 33.5,33.5 Z"/></g>
<g><path style="opacity:0.999" fill="#b851e8" d="M 68.5,26.5 C 69.4511,27.9187 69.7845,29.5853 69.5,31.5C 68.69,39.7792 65.69,47.1125 60.5,53.5C 59.8333,53.5 59.5,53.1667 59.5,52.5C 59.4326,51.0413 59.7659,49.7079 60.5,48.5C 60.5569,47.391 60.8902,46.391 61.5,45.5C 63.5293,42.1137 65.1959,38.447 66.5,34.5C 67.5064,32.6459 67.5064,30.9792 66.5,29.5C 66.9321,28.2905 67.5987,27.2905 68.5,26.5 Z"/></g>
<g><path style="opacity:1" fill="#e8d6ff" d="M 49.5,30.5 C 51.1033,30.3118 52.4366,30.8118 53.5,32C 51.7253,34.6843 50.392,37.5176 49.5,40.5C 49.5,41.1667 49.1667,41.5 48.5,41.5C 48.244,37.7307 48.5773,34.0641 49.5,30.5 Z"/></g>
<g><path style="opacity:1" fill="#e1b8ff" d="M 18.5,35.5 C 21.9705,37.7131 25.8038,39.0465 30,39.5C 32.1782,39.6052 34.0115,38.9385 35.5,37.5C 38.9421,37.945 41.6088,39.6117 43.5,42.5C 40.1667,42.1667 36.8333,41.8333 33.5,41.5C 30.6946,40.6805 27.6946,40.1805 24.5,40C 21.8936,39.2082 19.8936,37.7082 18.5,35.5 Z"/></g>
<g><path style="opacity:1" fill="#b67eff" d="M 39.5,32.5 C 41.0258,35.3816 43.0258,38.0483 45.5,40.5C 45.5,41.1667 45.8333,41.5 46.5,41.5C 46.5,41.8333 46.5,42.1667 46.5,42.5C 46.5,42.8333 46.5,43.1667 46.5,43.5C 45.609,42.8902 44.609,42.5569 43.5,42.5C 41.6088,39.6117 38.9421,37.945 35.5,37.5C 35.8333,36.8333 36.1667,36.1667 36.5,35.5C 36.8333,34.8333 37.1667,34.1667 37.5,33.5C 38.1667,33.1667 38.8333,32.8333 39.5,32.5 Z"/></g>
<g><path style="opacity:1" fill="#eab3fe" d="M 22.5,20.5 C 20.4206,23.1204 19.0873,26.1204 18.5,29.5C 17.1667,31.5 17.1667,33.5 18.5,35.5C 19.8936,37.7082 21.8936,39.2082 24.5,40C 27.6946,40.1805 30.6946,40.6805 33.5,41.5C 33.5,42.5 33.5,43.5 33.5,44.5C 27.3894,44.3397 21.7227,42.673 16.5,39.5C 16.5,34.8333 16.5,30.1667 16.5,25.5C 18.5,23.8333 20.5,22.1667 22.5,20.5 Z"/></g>
<g><path style="opacity:1" fill="#b77fff" d="M 55.5,32.5 C 55.8333,32.5 56.1667,32.5 56.5,32.5C 56.5,33.1667 56.8333,33.5 57.5,33.5C 57.5,34.8333 58.1667,35.5 59.5,35.5C 59.4326,36.9587 59.7659,38.2921 60.5,39.5C 56.5786,41.0294 52.5786,42.3627 48.5,43.5C 48.5,43.1667 48.5,42.8333 48.5,42.5C 48.5,42.1667 48.5,41.8333 48.5,41.5C 49.1667,41.5 49.5,41.1667 49.5,40.5C 52.4707,38.5574 54.4707,35.8908 55.5,32.5 Z"/></g>
<g><path style="opacity:1" fill="#6e16ad" d="M 79.5,23.5 C 80.9708,25.2156 81.9708,27.2156 82.5,29.5C 83.0523,32.1159 83.3856,34.7825 83.5,37.5C 82.2303,42.728 81.5636,48.0614 81.5,53.5C 81.3921,55.7834 80.5588,57.7834 79,59.5C 78.2303,60.5981 77.397,60.5981 76.5,59.5C 75.1667,59.5 73.8333,59.5 72.5,59.5C 72.7845,61.4147 72.4511,63.0813 71.5,64.5C 71.5,62.5 71.5,60.5 71.5,58.5C 73.7812,58.9227 75.4479,58.256 76.5,56.5C 77.9663,55.653 78.7996,54.3197 79,52.5C 80.4783,47.2573 81.3116,41.924 81.5,36.5C 80.7255,32.186 80.0588,27.8526 79.5,23.5 Z"/></g>
<g><path style="opacity:1" fill="#8728c7" d="M 76.5,32.5 C 77.6378,35.3035 77.8045,38.3035 77,41.5C 75.7138,44.4055 74.7138,47.4055 74,50.5C 72.9509,52.6175 71.4509,54.2842 69.5,55.5C 70.4461,51.6076 71.9461,47.9409 74,44.5C 75.1324,40.6104 75.299,36.777 74.5,33C 75.0944,32.5357 75.7611,32.369 76.5,32.5 Z"/></g>
<g><path style="opacity:1" fill="#590d92" d="M 81.5,17.5 C 85.7735,22.7195 88.4401,28.7195 89.5,35.5C 89.4628,40.0424 88.9628,44.7091 88,49.5C 86.3702,52.6877 85.2036,56.0211 84.5,59.5C 83.8333,59.8333 83.1667,60.1667 82.5,60.5C 86.3175,51.3279 87.3175,41.9945 85.5,32.5C 85.1667,31.8333 84.8333,31.1667 84.5,30.5C 83.3008,26.2306 82.3008,21.8972 81.5,17.5 Z"/></g>
<g><path style="opacity:1" fill="#e7a6ff" d="M 16.5,39.5 C 21.7227,42.673 27.3894,44.3397 33.5,44.5C 33.5,44.8333 33.5,45.1667 33.5,45.5C 28.5043,46.6247 23.5043,46.458 18.5,45C 17.536,43.2745 16.8693,41.4412 16.5,39.5 Z"/></g>
<g><path style="opacity:1" fill="#f4ecff" d="M 33.5,41.5 C 36.8333,41.8333 40.1667,42.1667 43.5,42.5C 44.609,42.5569 45.609,42.8902 46.5,43.5C 42.7004,44.6359 38.8671,45.9692 35,47.5C 34.6174,46.944 34.1174,46.6107 33.5,46.5C 33.5,46.1667 33.5,45.8333 33.5,45.5C 33.5,45.1667 33.5,44.8333 33.5,44.5C 33.5,43.5 33.5,42.5 33.5,41.5 Z"/></g>
<g><path style="opacity:1" fill="#d7b8fe" d="M 60.5,39.5 C 61.3414,41.3792 61.6747,43.3792 61.5,45.5C 60.8902,46.391 60.5569,47.391 60.5,48.5C 56.8597,46.326 52.8597,44.9927 48.5,44.5C 48.5,44.1667 48.5,43.8333 48.5,43.5C 52.5786,42.3627 56.5786,41.0294 60.5,39.5 Z"/></g>
<g><path style="opacity:1" fill="#e39afe" d="M 16.5,25.5 C 16.5,30.1667 16.5,34.8333 16.5,39.5C 16.8693,41.4412 17.536,43.2745 18.5,45C 23.5043,46.458 28.5043,46.6247 33.5,45.5C 33.5,45.8333 33.5,46.1667 33.5,46.5C 32.596,47.209 32.2627,48.209 32.5,49.5C 27.251,49.6031 22.251,48.6031 17.5,46.5C 16.7784,46.0825 16.2784,45.4158 16,44.5C 15.1443,40.3763 14.6443,36.2096 14.5,32C 14.5332,29.3897 15.1999,27.223 16.5,25.5 Z"/></g>
<g><path style="opacity:1" fill="#7217b5" d="M 81.5,36.5 C 81.3116,41.924 80.4783,47.2573 79,52.5C 78.7996,54.3197 77.9663,55.653 76.5,56.5C 75.5,56.5 74.5,56.5 73.5,56.5C 72.7736,53.9441 73.7736,51.9441 76.5,50.5C 77.2458,49.2638 77.5792,47.9305 77.5,46.5C 78.1174,46.3893 78.6174,46.056 79,45.5C 79.8412,42.3718 80.6746,39.3718 81.5,36.5 Z"/></g>
<g><path style="opacity:1" fill="#d3b1fd" d="M 46.5,42.5 C 47.1667,42.5 47.8333,42.5 48.5,42.5C 48.5,42.8333 48.5,43.1667 48.5,43.5C 48.5,43.8333 48.5,44.1667 48.5,44.5C 51.0197,48.0796 53.3531,51.7463 55.5,55.5C 54.0048,55.9887 52.6715,56.6554 51.5,57.5C 48.8333,58.8333 46.1667,58.8333 43.5,57.5C 43.3893,56.8826 43.056,56.3826 42.5,56C 44.0941,52.9696 45.4274,49.8029 46.5,46.5C 45.2946,45.3143 43.9613,45.3143 42.5,46.5C 40.3071,47.6805 37.9738,48.6805 35.5,49.5C 34.0815,48.9953 33.4148,47.9953 33.5,46.5C 34.1174,46.6107 34.6174,46.944 35,47.5C 38.8671,45.9692 42.7004,44.6359 46.5,43.5C 46.5,43.1667 46.5,42.8333 46.5,42.5 Z"/></g>
<g><path style="opacity:0.996" fill="#d274f5" d="M 14.5,21.5 C 12.51,27.9947 12.01,34.6613 13,41.5C 13.5158,44.5469 15.0158,46.8802 17.5,48.5C 18.3382,48.8417 18.6716,49.5084 18.5,50.5C 18.5,50.8333 18.5,51.1667 18.5,51.5C 16.8997,50.748 15.3997,49.748 14,48.5C 13.1249,45.5989 11.9582,42.9323 10.5,40.5C 10.2832,34.7676 10.7832,29.101 12,23.5C 12.4169,22.244 13.2502,21.5774 14.5,21.5 Z"/></g>
<g><path style="opacity:1" fill="#da90ff" d="M 17.5,46.5 C 22.251,48.6031 27.251,49.6031 32.5,49.5C 32.2627,48.209 32.596,47.209 33.5,46.5C 33.4148,47.9953 34.0815,48.9953 35.5,49.5C 37.9738,48.6805 40.3071,47.6805 42.5,46.5C 40.8061,48.8606 38.8061,50.8606 36.5,52.5C 36.1667,52.5 35.8333,52.5 35.5,52.5C 29.9956,51.6351 24.329,50.9684 18.5,50.5C 18.6716,49.5084 18.3382,48.8417 17.5,48.5C 17.5,47.8333 17.5,47.1667 17.5,46.5 Z"/></g>
<g><path style="opacity:1" fill="#b84ee3" d="M 6.5,31.5 C 7.72819,35.2606 9.06152,38.9273 10.5,42.5C 10.4129,45.7387 11.0795,48.7387 12.5,51.5C 10.7263,50.6304 9.39299,49.297 8.5,47.5C 7.02104,45.2795 5.68771,42.9462 4.5,40.5C 4.42032,37.2186 5.08699,34.2186 6.5,31.5 Z"/></g>
<g><path style="opacity:1" fill="#ba84fe" d="M 48.5,44.5 C 52.8597,44.9927 56.8597,46.326 60.5,48.5C 59.7659,49.7079 59.4326,51.0413 59.5,52.5C 58.1667,52.5 57.5,53.1667 57.5,54.5C 56.8333,54.5 56.5,54.8333 56.5,55.5C 56.1667,55.5 55.8333,55.5 55.5,55.5C 53.3531,51.7463 51.0197,48.0796 48.5,44.5 Z"/></g>
<g><path style="opacity:1" fill="#a243d9" d="M 69.5,31.5 C 70.5,31.5 71.5,31.5 72.5,31.5C 72.0825,32.2216 71.4158,32.7216 70.5,33C 71.5991,36.0937 72.0991,39.2604 72,42.5C 69.1023,47.1811 66.269,51.8478 63.5,56.5C 62.1667,55.8333 61.1667,54.8333 60.5,53.5C 65.69,47.1125 68.69,39.7792 69.5,31.5 Z"/></g>
<g><path style="opacity:1" fill="#b377ff" d="M 46.5,46.5 C 43.6383,49.0666 41.305,52.0666 39.5,55.5C 38.8333,55.1667 38.1667,54.8333 37.5,54.5C 37.6716,53.5084 37.3382,52.8417 36.5,52.5C 38.8061,50.8606 40.8061,48.8606 42.5,46.5C 43.9613,45.3143 45.2946,45.3143 46.5,46.5 Z"/></g>
<g><path style="opacity:1" fill="#8f35cc" d="M 72.5,31.5 C 73.8333,31.5 75.1667,31.5 76.5,31.5C 76.5,31.8333 76.5,32.1667 76.5,32.5C 75.7611,32.369 75.0944,32.5357 74.5,33C 75.299,36.777 75.1324,40.6104 74,44.5C 71.9461,47.9409 70.4461,51.6076 69.5,55.5C 66.8133,57.3939 66.8133,58.0606 69.5,57.5C 69.8432,59.4832 69.1765,60.8166 67.5,61.5C 66.1667,59.8333 64.8333,58.1667 63.5,56.5C 66.269,51.8478 69.1023,47.1811 72,42.5C 72.0991,39.2604 71.5991,36.0937 70.5,33C 71.4158,32.7216 72.0825,32.2216 72.5,31.5 Z"/></g>
<g><path style="opacity:1" fill="#f9ecfe" d="M 35.5,52.5 C 35.8333,52.5 36.1667,52.5 36.5,52.5C 37.3382,52.8417 37.6716,53.5084 37.5,54.5C 33.9924,56.4251 32.659,59.4251 33.5,63.5C 33.5,64.5 33.5,65.5 33.5,66.5C 33.5,67.5 33.5,68.5 33.5,69.5C 31.2646,69.7947 29.2646,69.4614 27.5,68.5C 28.8333,68.5 30.1667,68.5 31.5,68.5C 32.5265,59.9438 30.5265,58.7771 25.5,65C 24.5632,65.6917 23.8966,65.525 23.5,64.5C 23.5,62.5 23.5,60.5 23.5,58.5C 21.8333,58.5 20.1667,58.5 18.5,58.5C 20.2789,56.6565 22.6122,55.9898 25.5,56.5C 25.2148,58.288 25.5481,59.9547 26.5,61.5C 27.2876,60.2299 28.2876,59.2299 29.5,58.5C 31.8333,56.8333 33.8333,54.8333 35.5,52.5 Z"/></g>
<g><path style="opacity:1" fill="#f7ecfc" d="M 59.5,52.5 C 59.5,53.1667 59.8333,53.5 60.5,53.5C 61.1667,54.8333 62.1667,55.8333 63.5,56.5C 64.8333,58.1667 66.1667,59.8333 67.5,61.5C 67.1667,61.5 66.8333,61.5 66.5,61.5C 64.4017,60.0857 63.4017,60.7524 63.5,63.5C 62.8333,63.5 62.1667,63.5 61.5,63.5C 62.341,59.4251 61.0076,56.4251 57.5,54.5C 57.5,53.1667 58.1667,52.5 59.5,52.5 Z"/></g>
<g><path style="opacity:1" fill="#d56bfb" d="M 10.5,40.5 C 11.9582,42.9323 13.1249,45.5989 14,48.5C 15.3997,49.748 16.8997,50.748 18.5,51.5C 22.3723,53.5974 26.039,55.9308 29.5,58.5C 28.2876,59.2299 27.2876,60.2299 26.5,61.5C 25.5481,59.9547 25.2148,58.288 25.5,56.5C 22.6122,55.9898 20.2789,56.6565 18.5,58.5C 15.8103,56.8065 13.8103,54.4732 12.5,51.5C 11.0795,48.7387 10.4129,45.7387 10.5,42.5C 10.5,41.8333 10.5,41.1667 10.5,40.5 Z"/></g>
<g><path style="opacity:0.999" fill="#de7fff" d="M 18.5,51.5 C 18.5,51.1667 18.5,50.8333 18.5,50.5C 24.329,50.9684 29.9956,51.6351 35.5,52.5C 33.8333,54.8333 31.8333,56.8333 29.5,58.5C 26.039,55.9308 22.3723,53.5974 18.5,51.5 Z"/></g>
<g><path style="opacity:1" fill="#c194fc" d="M 46.5,46.5 C 45.4274,49.8029 44.0941,52.9696 42.5,56C 43.056,56.3826 43.3893,56.8826 43.5,57.5C 42.8333,57.5 42.1667,57.5 41.5,57.5C 41.1667,56.5 40.5,55.8333 39.5,55.5C 41.305,52.0666 43.6383,49.0666 46.5,46.5 Z"/></g>
<g><path style="opacity:1" fill="#4f0a84" d="M 89.5,35.5 C 90.6517,40.9846 90.8184,46.6513 90,52.5C 89.6097,55.1042 88.7763,57.4375 87.5,59.5C 86.5,58.1667 85.5,58.1667 84.5,59.5C 85.2036,56.0211 86.3702,52.6877 88,49.5C 88.9628,44.7091 89.4628,40.0424 89.5,35.5 Z"/></g>
<g><path style="opacity:1" fill="#9e32d0" d="M 4.5,40.5 C 5.68771,42.9462 7.02104,45.2795 8.5,47.5C 8.30661,51.2485 9.30661,54.5818 11.5,57.5C 12.8056,59.8162 14.1389,62.1495 15.5,64.5C 11.8202,61.4869 8.48689,58.1536 5.5,54.5C 4.61669,49.8969 4.28336,45.2303 4.5,40.5 Z"/></g>
<g><path style="opacity:1" fill="#bb45eb" d="M 8.5,47.5 C 9.39299,49.297 10.7263,50.6304 12.5,51.5C 13.8103,54.4732 15.8103,56.8065 18.5,58.5C 20.1667,58.5 21.8333,58.5 23.5,58.5C 23.5,60.5 23.5,62.5 23.5,64.5C 22.7784,64.0825 22.2784,63.4158 22,62.5C 20.2302,63.2764 18.3969,63.1097 16.5,62C 15.61,59.6087 13.9433,58.1087 11.5,57.5C 9.30661,54.5818 8.30661,51.2485 8.5,47.5 Z"/></g>
<g><path style="opacity:1" fill="#cb5bf6" d="M 37.5,54.5 C 38.1667,54.8333 38.8333,55.1667 39.5,55.5C 40.5,55.8333 41.1667,56.5 41.5,57.5C 41.5,58.5 41.5,59.5 41.5,60.5C 41.5,60.8333 41.5,61.1667 41.5,61.5C 40.596,62.209 40.2627,63.209 40.5,64.5C 38.0504,64.702 35.717,64.3686 33.5,63.5C 32.659,59.4251 33.9924,56.4251 37.5,54.5 Z"/></g>
<g><path style="opacity:1" fill="#8e44d3" d="M 41.5,60.5 C 46.4314,59.9613 49.7647,61.9613 51.5,66.5C 48.2317,66.2701 44.8984,66.6035 41.5,67.5C 41.5,65.5 41.5,63.5 41.5,61.5C 41.5,61.1667 41.5,60.8333 41.5,60.5 Z"/></g>
<g><path style="opacity:1" fill="#9d41d5" d="M 55.5,55.5 C 55.8333,55.5 56.1667,55.5 56.5,55.5C 59.4886,56.751 60.4886,58.751 59.5,61.5C 57.5178,62.8075 55.5178,64.1408 53.5,65.5C 54.0356,62.3019 53.369,59.6353 51.5,57.5C 52.6715,56.6554 54.0048,55.9887 55.5,55.5 Z"/></g>
<g><path style="opacity:1" fill="#dbacee" d="M 73.5,56.5 C 74.5,56.5 75.5,56.5 76.5,56.5C 75.4479,58.256 73.7812,58.9227 71.5,58.5C 71.5,60.5 71.5,62.5 71.5,64.5C 69.3152,65.0869 67.6485,64.0869 66.5,61.5C 66.8333,61.5 67.1667,61.5 67.5,61.5C 69.1765,60.8166 69.8432,59.4832 69.5,57.5C 70.5676,56.5655 71.901,56.2322 73.5,56.5 Z"/></g>
<g><path style="opacity:1" fill="#823dc9" d="M 41.5,57.5 C 42.1667,57.5 42.8333,57.5 43.5,57.5C 46.1667,58.8333 48.8333,58.8333 51.5,57.5C 53.369,59.6353 54.0356,62.3019 53.5,65.5C 53.1583,66.3382 52.4916,66.6716 51.5,66.5C 49.7647,61.9613 46.4314,59.9613 41.5,60.5C 41.5,59.5 41.5,58.5 41.5,57.5 Z"/></g>
<g><path style="opacity:1" fill="#8321ba" d="M 5.5,54.5 C 8.48689,58.1536 11.8202,61.4869 15.5,64.5C 17.9292,67.9361 20.9292,70.6028 24.5,72.5C 24.5,72.8333 24.5,73.1667 24.5,73.5C 23.1667,73.5 21.8333,73.5 20.5,73.5C 18.5742,72.7577 16.7409,71.7577 15,70.5C 14.6012,70.7284 14.4346,71.0618 14.5,71.5C 10.2156,66.602 7.21563,60.9353 5.5,54.5 Z"/></g>
<g><path style="opacity:1" fill="#ae3fe1" d="M 11.5,57.5 C 13.9433,58.1087 15.61,59.6087 16.5,62C 18.3969,63.1097 20.2302,63.2764 22,62.5C 22.2784,63.4158 22.7784,64.0825 23.5,64.5C 23.8966,65.525 24.5632,65.6917 25.5,65C 30.5265,58.7771 32.5265,59.9438 31.5,68.5C 30.1667,68.5 28.8333,68.5 27.5,68.5C 27.1667,68.5 26.8333,68.5 26.5,68.5C 24.4727,68.6621 22.4727,68.4955 20.5,68C 19.2107,66.1978 17.5441,65.0312 15.5,64.5C 14.1389,62.1495 12.8056,59.8162 11.5,57.5 Z"/></g>
<g><path style="opacity:1" fill="#6514a0" d="M 85.5,32.5 C 87.3175,41.9945 86.3175,51.3279 82.5,60.5C 74.0573,71.9067 62.724,79.0734 48.5,82C 43.1462,82.5285 37.8129,82.3619 32.5,81.5C 29.9899,81.9465 27.9899,81.2798 26.5,79.5C 28.5,79.8333 30.5,80.1667 32.5,80.5C 46.0163,83.0688 58.0163,80.0688 68.5,71.5C 66.7354,70.5386 64.7354,70.2053 62.5,70.5C 62.5,70.1667 62.5,69.8333 62.5,69.5C 64.4147,69.7845 66.0813,69.4511 67.5,68.5C 72.0396,67.1251 75.0396,64.1251 76.5,59.5C 77.397,60.5981 78.2303,60.5981 79,59.5C 80.5588,57.7834 81.3921,55.7834 81.5,53.5C 83.4803,52.1525 84.647,50.1525 85,47.5C 85.4993,42.5111 85.6659,37.5111 85.5,32.5 Z"/></g>
<g><path style="opacity:1" fill="#701bb2" d="M 76.5,59.5 C 75.0396,64.1251 72.0396,67.1251 67.5,68.5C 66.1667,68.5 64.8333,68.5 63.5,68.5C 63.5,66.8333 63.5,65.1667 63.5,63.5C 63.4017,60.7524 64.4017,60.0857 66.5,61.5C 67.6485,64.0869 69.3152,65.0869 71.5,64.5C 72.4511,63.0813 72.7845,61.4147 72.5,59.5C 73.8333,59.5 75.1667,59.5 76.5,59.5 Z"/></g>
<g><path style="opacity:1" fill="#983ed6" d="M 41.5,61.5 C 41.5,63.5 41.5,65.5 41.5,67.5C 44.8984,66.6035 48.2317,66.2701 51.5,66.5C 52.4916,66.6716 53.1583,66.3382 53.5,65.5C 55.5178,64.1408 57.5178,62.8075 59.5,61.5C 58.4378,64.378 56.4378,66.378 53.5,67.5C 49.6575,69.0017 45.6575,69.6684 41.5,69.5C 38.014,70.1715 35.3473,69.1715 33.5,66.5C 33.5,65.5 33.5,64.5 33.5,63.5C 35.717,64.3686 38.0504,64.702 40.5,64.5C 40.2627,63.209 40.596,62.209 41.5,61.5 Z"/></g>
<g><path style="opacity:1" fill="#e5bbf4" d="M 61.5,63.5 C 62.1667,63.5 62.8333,63.5 63.5,63.5C 63.5,65.1667 63.5,66.8333 63.5,68.5C 64.8333,68.5 66.1667,68.5 67.5,68.5C 66.0813,69.4511 64.4147,69.7845 62.5,69.5C 61.8333,69.5 61.5,69.1667 61.5,68.5C 61.5,66.8333 61.5,65.1667 61.5,63.5 Z"/></g>
<g><path style="opacity:1" fill="#4b0a80" d="M 87.5,59.5 C 85.3874,65.9385 81.7207,71.2718 76.5,75.5C 75.8333,75.1667 75.1667,74.8333 74.5,74.5C 79.4281,70.5703 82.7615,65.5703 84.5,59.5C 85.5,58.1667 86.5,58.1667 87.5,59.5 Z"/></g>
<g><path style="opacity:1" fill="#5e0f96" d="M 82.5,60.5 C 78.3556,69.9772 71.3556,76.3106 61.5,79.5C 60.452,80.548 59.452,81.548 58.5,82.5C 53.3251,82.6489 48.1584,82.9822 43,83.5C 39.2178,83.6209 35.7178,82.9542 32.5,81.5C 37.8129,82.3619 43.1462,82.5285 48.5,82C 62.724,79.0734 74.0573,71.9067 82.5,60.5 Z"/></g>
<g><path style="opacity:1" fill="#550c8b" d="M 84.5,59.5 C 82.7615,65.5703 79.4281,70.5703 74.5,74.5C 69.9974,78.7513 64.664,81.418 58.5,82.5C 59.452,81.548 60.452,80.548 61.5,79.5C 71.3556,76.3106 78.3556,69.9772 82.5,60.5C 83.1667,60.1667 83.8333,59.8333 84.5,59.5 Z"/></g>
<g><path style="opacity:1" fill="#932bce" d="M 15.5,64.5 C 17.5441,65.0312 19.2107,66.1978 20.5,68C 22.4727,68.4955 24.4727,68.6621 26.5,68.5C 27.1522,69.7251 28.3189,70.3917 30,70.5C 31.3847,70.4857 32.5514,70.1524 33.5,69.5C 33.5,68.5 33.5,67.5 33.5,66.5C 35.3473,69.1715 38.014,70.1715 41.5,69.5C 40.4019,70.397 40.4019,71.2303 41.5,72C 35.8431,72.4994 30.1764,72.6661 24.5,72.5C 20.9292,70.6028 17.9292,67.9361 15.5,64.5 Z"/></g>
<g><path style="opacity:1" fill="#ca88e9" d="M 26.5,68.5 C 26.8333,68.5 27.1667,68.5 27.5,68.5C 29.2646,69.4614 31.2646,69.7947 33.5,69.5C 32.5514,70.1524 31.3847,70.4857 30,70.5C 28.3189,70.3917 27.1522,69.7251 26.5,68.5 Z"/></g>
<g><path style="opacity:0.999" fill="#8929c8" d="M 53.5,67.5 C 53.719,68.675 53.3857,69.675 52.5,70.5C 49.4892,71.3386 46.8225,72.6719 44.5,74.5C 37.7756,74.7559 31.109,74.4226 24.5,73.5C 24.5,73.1667 24.5,72.8333 24.5,72.5C 30.1764,72.6661 35.8431,72.4994 41.5,72C 40.4019,71.2303 40.4019,70.397 41.5,69.5C 45.6575,69.6684 49.6575,69.0017 53.5,67.5 Z"/></g>
<g><path style="opacity:1" fill="#8125c3" d="M 56.5,55.5 C 56.5,54.8333 56.8333,54.5 57.5,54.5C 61.0076,56.4251 62.341,59.4251 61.5,63.5C 61.5,65.1667 61.5,66.8333 61.5,68.5C 60.8826,68.3893 60.3826,68.056 60,67.5C 55.6328,71.6002 50.4662,73.9335 44.5,74.5C 46.8225,72.6719 49.4892,71.3386 52.5,70.5C 53.3857,69.675 53.719,68.675 53.5,67.5C 56.4378,66.378 58.4378,64.378 59.5,61.5C 60.4886,58.751 59.4886,56.751 56.5,55.5 Z"/></g>
<g><path style="opacity:1" fill="#6811a5" d="M 68.5,71.5 C 58.0163,80.0688 46.0163,83.0688 32.5,80.5C 32.5,80.1667 32.5,79.8333 32.5,79.5C 38.5092,79.6662 44.5092,79.4995 50.5,79C 56.9268,77.2795 62.9268,74.7795 68.5,71.5 Z"/></g>
<g><path style="opacity:1" fill="#781bb9" d="M 61.5,68.5 C 61.5,69.1667 61.8333,69.5 62.5,69.5C 62.5,69.8333 62.5,70.1667 62.5,70.5C 62.2169,71.2161 61.8836,72.0494 61.5,73C 50.5244,77.2376 39.1911,78.4043 27.5,76.5C 25.2209,75.3485 22.8876,74.3485 20.5,73.5C 21.8333,73.5 23.1667,73.5 24.5,73.5C 31.109,74.4226 37.7756,74.7559 44.5,74.5C 50.4662,73.9335 55.6328,71.6002 60,67.5C 60.3826,68.056 60.8826,68.3893 61.5,68.5 Z"/></g>
<g><path style="opacity:0.951" fill="#4c0a82" d="M 74.5,74.5 C 75.1667,74.8333 75.8333,75.1667 76.5,75.5C 72.3265,80.0858 67.3265,83.4191 61.5,85.5C 61.1667,85.5 60.8333,85.5 60.5,85.5C 58.7085,85.366 57.0418,85.6993 55.5,86.5C 49.7876,86.313 44.1209,86.6463 38.5,87.5C 45.1188,86.1251 51.7855,84.4584 58.5,82.5C 64.664,81.418 69.9974,78.7513 74.5,74.5 Z"/></g>
<g><path style="opacity:1" fill="#6913a3" d="M 20.5,73.5 C 22.8876,74.3485 25.2209,75.3485 27.5,76.5C 29.2202,77.3077 30.8869,78.3077 32.5,79.5C 32.5,79.8333 32.5,80.1667 32.5,80.5C 30.5,80.1667 28.5,79.8333 26.5,79.5C 25.8333,79.8333 25.1667,80.1667 24.5,80.5C 20.5442,78.2119 17.2109,75.2119 14.5,71.5C 14.4346,71.0618 14.6012,70.7284 15,70.5C 16.7409,71.7577 18.5742,72.7577 20.5,73.5 Z"/></g>
<g><path style="opacity:1" fill="#6e14ad" d="M 62.5,70.5 C 64.7354,70.2053 66.7354,70.5386 68.5,71.5C 62.9268,74.7795 56.9268,77.2795 50.5,79C 44.5092,79.4995 38.5092,79.6662 32.5,79.5C 30.8869,78.3077 29.2202,77.3077 27.5,76.5C 39.1911,78.4043 50.5244,77.2376 61.5,73C 61.8836,72.0494 62.2169,71.2161 62.5,70.5 Z"/></g>
<g><path style="opacity:1" fill="#5a1291" d="M 26.5,79.5 C 27.9899,81.2798 29.9899,81.9465 32.5,81.5C 35.7178,82.9542 39.2178,83.6209 43,83.5C 48.1584,82.9822 53.3251,82.6489 58.5,82.5C 51.7855,84.4584 45.1188,86.1251 38.5,87.5C 30.5369,88.6568 22.7035,90.3235 15,92.5C 14.6012,92.2716 14.4346,91.9382 14.5,91.5C 21.4995,89.7137 27.8328,87.7137 33.5,85.5C 30.3707,84.1012 27.3707,82.4345 24.5,80.5C 25.1667,80.1667 25.8333,79.8333 26.5,79.5 Z"/></g>
<g><path style="opacity:0.999" fill="#561784" d="M 55.5,86.5 C 58.1743,88.568 61.1743,89.9014 64.5,90.5C 58.7518,89.9799 53.0852,88.9799 47.5,87.5C 39.3893,89.5277 31.3893,91.5277 23.5,93.5C 20.2869,93.19 17.2869,93.5233 14.5,94.5C 13.596,93.791 13.2627,92.791 13.5,91.5C 13.8333,91.5 14.1667,91.5 14.5,91.5C 14.4346,91.9382 14.6012,92.2716 15,92.5C 22.7035,90.3235 30.5369,88.6568 38.5,87.5C 44.1209,86.6463 49.7876,86.313 55.5,86.5 Z"/></g>
<g><path style="opacity:1" fill="#7d29bc" d="M 60.5,85.5 C 60.8333,85.5 61.1667,85.5 61.5,85.5C 67.5092,85.3338 73.5092,85.5005 79.5,86C 80.8228,86.8159 81.4894,87.9826 81.5,89.5C 74.2435,88.9556 67.2435,87.6222 60.5,85.5 Z"/></g>
<g><path style="opacity:1" fill="#7526b0" d="M 33.5,85.5 C 27.8328,87.7137 21.4995,89.7137 14.5,91.5C 14.1667,91.5 13.8333,91.5 13.5,91.5C 13.178,89.2776 13.8446,87.4443 15.5,86C 21.4908,85.5005 27.4908,85.3338 33.5,85.5 Z"/></g>
<g><path style="opacity:1" fill="#4c1376" d="M 64.5,90.5 C 65.1667,90.5 65.5,90.8333 65.5,91.5C 63.1667,91.5 60.8333,91.5 58.5,91.5C 51.1361,90.0031 43.8028,90.1698 36.5,92C 35.944,92.3826 35.6107,92.8826 35.5,93.5C 31.5,93.5 27.5,93.5 23.5,93.5C 31.3893,91.5277 39.3893,89.5277 47.5,87.5C 53.0852,88.9799 58.7518,89.9799 64.5,90.5 Z"/></g>
<g><path style="opacity:1" fill="#621e94" d="M 60.5,85.5 C 67.2435,87.6222 74.2435,88.9556 81.5,89.5C 81.5,90.1667 81.5,90.8333 81.5,91.5C 76.2197,92.6611 70.8864,92.6611 65.5,91.5C 65.5,90.8333 65.1667,90.5 64.5,90.5C 61.1743,89.9014 58.1743,88.568 55.5,86.5C 57.0418,85.6993 58.7085,85.366 60.5,85.5 Z"/></g>
<g><path style="opacity:1" fill="#441268" d="M 58.5,91.5 C 58.8333,92.1667 59.1667,92.8333 59.5,93.5C 51.5,93.5 43.5,93.5 35.5,93.5C 35.6107,92.8826 35.944,92.3826 36.5,92C 43.8028,90.1698 51.1361,90.0031 58.5,91.5 Z"/></g>
<g><path style="opacity:1" fill="#441575" d="M 58.5,91.5 C 60.8333,91.5 63.1667,91.5 65.5,91.5C 70.8864,92.6611 76.2197,92.6611 81.5,91.5C 81.5674,92.9587 81.2341,94.2921 80.5,95.5C 58.8333,95.5 37.1667,95.5 15.5,95.5C 35.3533,94.9845 50.02,94.3178 59.5,93.5C 59.1667,92.8333 58.8333,92.1667 58.5,91.5 Z"/></g>
<g><path style="opacity:0.984" fill="#4e1760" d="M 23.5,93.5 C 27.5,93.5 31.5,93.5 35.5,93.5C 43.5,93.5 51.5,93.5 59.5,93.5C 50.02,94.3178 35.3533,94.9845 15.5,95.5C 15.1667,95.5 14.8333,95.5 14.5,95.5C 14.5,95.1667 14.5,94.8333 14.5,94.5C 17.2869,93.5233 20.2869,93.19 23.5,93.5 Z"/></g>
</svg>
