<?xml version="1.0" encoding="UTF-8"?>
<!DOCTYPE svg PUBLIC "-//W3C//DTD SVG 1.1//EN" "http://www.w3.org/Graphics/SVG/1.1/DTD/svg11.dtd">
<svg xmlns="http://www.w3.org/2000/svg" version="1.1" width="96px" height="96px" style="shape-rendering:geometricPrecision; text-rendering:geometricPrecision; image-rendering:optimizeQuality; fill-rule:evenodd; clip-rule:evenodd" xmlns:xlink="http://www.w3.org/1999/xlink">
<g><path style="opacity:1" fill="#8d0472" d="M -0.5,-0.5 C 31.5,-0.5 63.5,-0.5 95.5,-0.5C 95.5,5.83333 95.5,12.1667 95.5,18.5C 86.1087,21.7393 76.442,23.7393 66.5,24.5C 66.7148,26.1788 66.0481,27.1788 64.5,27.5C 64.5,20.8333 64.5,14.1667 64.5,7.5C 60.8333,7.5 57.1667,7.5 53.5,7.5C 53.5,14.1667 53.5,20.8333 53.5,27.5C 51.9519,27.1788 51.2852,26.1788 51.5,24.5C 41.2367,22.958 31.2367,20.458 21.5,17C 14.0044,12.7528 6.67105,8.25278 -0.5,3.5C -0.5,2.16667 -0.5,0.833333 -0.5,-0.5 Z"/></g>
<g><path style="opacity:1" fill="#840474" d="M -0.5,3.5 C 6.67105,8.25278 14.0044,12.7528 21.5,17C 31.2367,20.458 41.2367,22.958 51.5,24.5C 51.2852,26.1788 51.9519,27.1788 53.5,27.5C 53.5,27.8333 53.5,28.1667 53.5,28.5C 51.744,29.5521 51.0773,31.2188 51.5,33.5C 51.1667,33.5 50.8333,33.5 50.5,33.5C 49.1667,33.5 48.5,34.1667 48.5,35.5C 48.5,35.8333 48.5,36.1667 48.5,36.5C 40.8333,36.5 33.1667,36.5 25.5,36.5C 25.5,38.1667 25.5,39.8333 25.5,41.5C 24.5,41.5 23.5,41.5 22.5,41.5C 22.5,43.8333 22.5,46.1667 22.5,48.5C 21.5,48.5 20.5,48.5 19.5,48.5C 19.6657,52.8461 19.499,57.1794 19,61.5C 18.7978,59.7444 18.2978,58.0777 17.5,56.5C 11.669,53.2469 5.66899,50.5802 -0.5,48.5C -0.5,33.5 -0.5,18.5 -0.5,3.5 Z"/></g>
<g><path style="opacity:1" fill="#4b173f" d="M 64.5,27.5 C 64.5,27.8333 64.5,28.1667 64.5,28.5C 64.1667,28.5 63.8333,28.5 63.5,28.5C 63.5,21.8333 63.5,15.1667 63.5,8.5C 60.5,8.5 57.5,8.5 54.5,8.5C 54.5,14.5 54.5,20.5 54.5,26.5C 54.5,27.1667 54.5,27.8333 54.5,28.5C 54.1667,28.5 53.8333,28.5 53.5,28.5C 53.5,28.1667 53.5,27.8333 53.5,27.5C 53.5,20.8333 53.5,14.1667 53.5,7.5C 57.1667,7.5 60.8333,7.5 64.5,7.5C 64.5,14.1667 64.5,20.8333 64.5,27.5 Z"/></g>
<g><path style="opacity:1" fill="#102417" d="M 63.5,28.5 C 62.8333,28.5 62.1667,28.5 61.5,28.5C 61.5,27.5 61.5,26.5 61.5,25.5C 62.4881,20.3595 62.8214,15.0262 62.5,9.5C 60.1667,9.5 57.8333,9.5 55.5,9.5C 55.8222,15.358 55.4889,21.0247 54.5,26.5C 54.5,20.5 54.5,14.5 54.5,8.5C 57.5,8.5 60.5,8.5 63.5,8.5C 63.5,15.1667 63.5,21.8333 63.5,28.5 Z"/></g>
<g><path style="opacity:1" fill="#291e1e" d="M 61.5,25.5 C 59.8333,25.5 58.1667,25.5 56.5,25.5C 56.5,26.5 56.5,27.5 56.5,28.5C 55.8333,28.5 55.1667,28.5 54.5,28.5C 54.5,27.8333 54.5,27.1667 54.5,26.5C 55.4889,21.0247 55.8222,15.358 55.5,9.5C 57.8333,9.5 60.1667,9.5 62.5,9.5C 62.8214,15.0262 62.4881,20.3595 61.5,25.5 Z"/></g>
<g><path style="opacity:1" fill="#970c0c" d="M 56.5,18.5 C 58.1667,18.5 59.8333,18.5 61.5,18.5C 61.5,20.1667 61.5,21.8333 61.5,23.5C 59.8333,23.5 58.1667,23.5 56.5,23.5C 56.5,21.8333 56.5,20.1667 56.5,18.5 Z"/></g>
<g><path style="opacity:1" fill="#ae1113" d="M 56.5,10.5 C 58.1667,10.5 59.8333,10.5 61.5,10.5C 61.5,12.1667 61.5,13.8333 61.5,15.5C 59.8333,15.5 58.1667,15.5 56.5,15.5C 56.5,13.8333 56.5,12.1667 56.5,10.5 Z"/></g>
<g><path style="opacity:1" fill="#027539" d="M 61.5,25.5 C 61.5,26.5 61.5,27.5 61.5,28.5C 61.5,31.1667 61.5,33.8333 61.5,36.5C 61.5,38.8333 61.5,41.1667 61.5,43.5C 59.1667,43.5 56.8333,43.5 54.5,43.5C 54.1103,40.5342 54.777,37.8676 56.5,35.5C 56.0431,34.7025 55.3764,34.3691 54.5,34.5C 56.0746,32.8863 56.7413,30.8863 56.5,28.5C 56.5,27.5 56.5,26.5 56.5,25.5C 58.1667,25.5 59.8333,25.5 61.5,25.5 Z"/></g>
<g><path style="opacity:1" fill="#84b63d" d="M 61.5,28.5 C 62.1667,28.5 62.8333,28.5 63.5,28.5C 63.8333,28.5 64.1667,28.5 64.5,28.5C 64.5,30.1667 64.5,31.8333 64.5,33.5C 65.3468,35.0291 66.0135,36.6958 66.5,38.5C 66.1667,39.5 65.8333,40.5 65.5,41.5C 64.5481,39.9547 64.2148,38.288 64.5,36.5C 63.5,36.5 62.5,36.5 61.5,36.5C 61.5,33.8333 61.5,31.1667 61.5,28.5 Z"/></g>
<g><path style="opacity:1" fill="#181b18" d="M 64.5,28.5 C 66.256,29.5521 66.9227,31.2188 66.5,33.5C 65.8333,33.5 65.1667,33.5 64.5,33.5C 64.5,31.8333 64.5,30.1667 64.5,28.5 Z"/></g>
<g><path style="opacity:1" fill="#18181a" d="M 53.5,28.5 C 53.9227,30.7812 53.256,32.4479 51.5,33.5C 51.0773,31.2188 51.744,29.5521 53.5,28.5 Z"/></g>
<g><path style="opacity:1" fill="#1f0f21" d="M 50.5,33.5 C 50.5,34.8333 49.8333,35.5 48.5,35.5C 48.5,34.1667 49.1667,33.5 50.5,33.5 Z"/></g>
<g><path style="opacity:1" fill="#699939" d="M 53.5,28.5 C 53.8333,28.5 54.1667,28.5 54.5,28.5C 55.1667,28.5 55.8333,28.5 56.5,28.5C 56.7413,30.8863 56.0746,32.8863 54.5,34.5C 52.6532,36.1824 51.1532,38.1824 50,40.5C 49.7216,39.5842 49.2216,38.9175 48.5,38.5C 48.5,37.8333 48.5,37.1667 48.5,36.5C 48.5,36.1667 48.5,35.8333 48.5,35.5C 49.8333,35.5 50.5,34.8333 50.5,33.5C 50.8333,33.5 51.1667,33.5 51.5,33.5C 53.256,32.4479 53.9227,30.7812 53.5,28.5 Z"/></g>
<g><path style="opacity:1" fill="#2a141e" d="M 67.5,33.5 C 68.8333,33.5 69.5,34.1667 69.5,35.5C 69.5,34.1667 68.8333,33.5 67.5,33.5 Z"/></g>
<g><path style="opacity:1" fill="#810474" d="M 95.5,18.5 C 95.5,31.8333 95.5,45.1667 95.5,58.5C 89.6454,59.0861 83.9788,60.4194 78.5,62.5C 77.0295,61.6195 76.1962,60.2861 76,58.5C 75.8296,67.343 75.3296,76.0097 74.5,84.5C 75.1495,69.7943 74.4828,55.461 72.5,41.5C 72.1667,41.5 71.8333,41.5 71.5,41.5C 71.9227,39.2188 71.256,37.5521 69.5,36.5C 69.5,36.1667 69.5,35.8333 69.5,35.5C 69.5,34.1667 68.8333,33.5 67.5,33.5C 67.1667,33.5 66.8333,33.5 66.5,33.5C 66.9227,31.2188 66.256,29.5521 64.5,28.5C 64.5,28.1667 64.5,27.8333 64.5,27.5C 66.0481,27.1788 66.7148,26.1788 66.5,24.5C 76.442,23.7393 86.1087,21.7393 95.5,18.5 Z"/></g>
<g><path style="opacity:1" fill="#191b17" d="M 48.5,36.5 C 48.5,37.1667 48.5,37.8333 48.5,38.5C 48.5,39.5 48.5,40.5 48.5,41.5C 46.9519,41.1788 46.2852,40.1788 46.5,38.5C 40.5,38.5 34.5,38.5 28.5,38.5C 28.5,39.5 28.5,40.5 28.5,41.5C 27.5,41.5 26.5,41.5 25.5,41.5C 25.5,39.8333 25.5,38.1667 25.5,36.5C 33.1667,36.5 40.8333,36.5 48.5,36.5 Z"/></g>
<g><path style="opacity:1" fill="#1c2218" d="M 69.5,36.5 C 71.256,37.5521 71.9227,39.2188 71.5,41.5C 71.1667,41.5 70.8333,41.5 70.5,41.5C 69.5489,40.0813 69.2155,38.4147 69.5,36.5 Z"/></g>
<g><path style="opacity:1" fill="#0b6130" d="M 64.5,33.5 C 65.1667,33.5 65.8333,33.5 66.5,33.5C 66.8333,33.5 67.1667,33.5 67.5,33.5C 67.5,34.8333 68.1667,35.5 69.5,35.5C 69.5,35.8333 69.5,36.1667 69.5,36.5C 69.2155,38.4147 69.5489,40.0813 70.5,41.5C 70.8064,44.3854 70.4731,47.0521 69.5,49.5C 67.7354,48.5386 65.7354,48.2053 63.5,48.5C 63.5,47.1667 63.5,45.8333 63.5,44.5C 59.5,44.5 55.5,44.5 51.5,44.5C 51.7373,43.209 51.404,42.209 50.5,41.5C 49.8333,41.5 49.1667,41.5 48.5,41.5C 48.5,40.5 48.5,39.5 48.5,38.5C 49.2216,38.9175 49.7216,39.5842 50,40.5C 51.1532,38.1824 52.6532,36.1824 54.5,34.5C 55.3764,34.3691 56.0431,34.7025 56.5,35.5C 54.777,37.8676 54.1103,40.5342 54.5,43.5C 56.8333,43.5 59.1667,43.5 61.5,43.5C 61.5,41.1667 61.5,38.8333 61.5,36.5C 62.5,36.5 63.5,36.5 64.5,36.5C 64.2148,38.288 64.5481,39.9547 65.5,41.5C 65.8333,40.5 66.1667,39.5 66.5,38.5C 66.0135,36.6958 65.3468,35.0291 64.5,33.5 Z"/></g>
<g><path style="opacity:1" fill="#e9eced" d="M 48.5,41.5 C 48.5,43.8333 48.5,46.1667 48.5,48.5C 40.8333,48.5 33.1667,48.5 25.5,48.5C 25.5,46.1667 25.5,43.8333 25.5,41.5C 26.5,41.5 27.5,41.5 28.5,41.5C 28.5,40.5 28.5,39.5 28.5,38.5C 34.5,38.5 40.5,38.5 46.5,38.5C 46.2852,40.1788 46.9519,41.1788 48.5,41.5 Z"/></g>
<g><path style="opacity:1" fill="#261a1f" d="M 72.5,41.5 C 74.4828,55.461 75.1495,69.7943 74.5,84.5C 73.8333,84.5 73.1667,84.5 72.5,84.5C 72.5,70.1667 72.5,55.8333 72.5,41.5 Z"/></g>
<g><path style="opacity:1" fill="#342b30" d="M 25.5,41.5 C 25.5,43.8333 25.5,46.1667 25.5,48.5C 24.5,48.5 23.5,48.5 22.5,48.5C 22.5,46.1667 22.5,43.8333 22.5,41.5C 23.5,41.5 24.5,41.5 25.5,41.5 Z"/></g>
<g><path style="opacity:1" fill="#201a1c" d="M 48.5,41.5 C 49.1667,41.5 49.8333,41.5 50.5,41.5C 50.5,43.8333 50.5,46.1667 50.5,48.5C 49.8333,48.5 49.1667,48.5 48.5,48.5C 48.5,46.1667 48.5,43.8333 48.5,41.5 Z"/></g>
<g><path style="opacity:1" fill="#02361f" d="M 50.5,41.5 C 51.404,42.209 51.7373,43.209 51.5,44.5C 55.5,44.5 59.5,44.5 63.5,44.5C 63.5,45.8333 63.5,47.1667 63.5,48.5C 60.1667,48.5 56.8333,48.5 53.5,48.5C 52.8333,48.5 52.1667,48.5 51.5,48.5C 51.1667,48.5 50.8333,48.5 50.5,48.5C 50.5,46.1667 50.5,43.8333 50.5,41.5 Z"/></g>
<g><path style="opacity:1" fill="#db6d77" d="M 25.5,49.5 C 25.5,49.1667 25.5,48.8333 25.5,48.5C 33.1667,48.5 40.8333,48.5 48.5,48.5C 48.5,48.8333 48.5,49.1667 48.5,49.5C 42.5,49.5 36.5,49.5 30.5,49.5C 29.8333,54.8333 29.1667,54.8333 28.5,49.5C 27.5,49.5 26.5,49.5 25.5,49.5 Z"/></g>
<g><path style="opacity:1" fill="#9aa185" d="M 53.5,48.5 C 56.8333,48.5 60.1667,48.5 63.5,48.5C 65.7354,48.2053 67.7354,48.5386 69.5,49.5C 64.5,49.5 59.5,49.5 54.5,49.5C 54.8168,53.7016 54.4834,57.7016 53.5,61.5C 53.5,57.1667 53.5,52.8333 53.5,48.5 Z"/></g>
<g><path style="opacity:1" fill="#131510" d="M 22.5,49.5 C 22.5,53.5 22.5,57.5 22.5,61.5C 21.2057,59.9522 20.5391,57.9522 20.5,55.5C 20.5391,53.0478 21.2057,51.0478 22.5,49.5 Z"/></g>
<g><path style="opacity:1" fill="#a1a1a1" d="M 48.5,49.5 C 48.5,49.1667 48.5,48.8333 48.5,48.5C 49.1667,48.5 49.8333,48.5 50.5,48.5C 50.8333,48.5 51.1667,48.5 51.5,48.5C 51.5,52.8333 51.5,57.1667 51.5,61.5C 51.1667,61.5 50.8333,61.5 50.5,61.5C 51.0894,57.0293 50.4228,53.0293 48.5,49.5 Z"/></g>
<g><path style="opacity:1" fill="#121111" d="M 51.5,48.5 C 52.1667,48.5 52.8333,48.5 53.5,48.5C 53.5,52.8333 53.5,57.1667 53.5,61.5C 52.8333,61.5 52.1667,61.5 51.5,61.5C 51.5,57.1667 51.5,52.8333 51.5,48.5 Z"/></g>
<g><path style="opacity:1" fill="#fdeece" d="M 69.5,49.5 C 69.5,49.8333 69.5,50.1667 69.5,50.5C 68.5104,56.31 68.1771,62.31 68.5,68.5C 61.8333,68.5 55.1667,68.5 48.5,68.5C 48.5,67.1667 48.5,65.8333 48.5,64.5C 49.5,64.5 50.5,64.5 51.5,64.5C 51.5,63.5 51.5,62.5 51.5,61.5C 52.1667,61.5 52.8333,61.5 53.5,61.5C 54.4834,57.7016 54.8168,53.7016 54.5,49.5C 59.5,49.5 64.5,49.5 69.5,49.5 Z"/></g>
<g><path style="opacity:1" fill="#017b3a" d="M 70.5,41.5 C 70.8333,41.5 71.1667,41.5 71.5,41.5C 71.8325,55.1829 71.4992,68.8496 70.5,82.5C 69.5078,78.2172 69.1744,73.8839 69.5,69.5C 69.5,63.1667 69.5,56.8333 69.5,50.5C 69.5,50.1667 69.5,49.8333 69.5,49.5C 70.4731,47.0521 70.8064,44.3854 70.5,41.5 Z"/></g>
<g><path style="opacity:1" fill="#bea0a6" d="M 22.5,48.5 C 23.5,48.5 24.5,48.5 25.5,48.5C 25.5,48.8333 25.5,49.1667 25.5,49.5C 25.5,52.5 25.5,55.5 25.5,58.5C 26.791,58.2627 27.791,58.596 28.5,59.5C 30.9151,60.8142 33.7485,61.4809 37,61.5C 40.4334,61.4033 43.6,60.7366 46.5,59.5C 46.5,60.5 46.5,61.5 46.5,62.5C 40.1667,62.5 33.8333,62.5 27.5,62.5C 27.5,61.5 27.5,60.5 27.5,59.5C 26.5,59.5 25.5,59.5 24.5,59.5C 24.665,56.1501 24.4983,52.8168 24,49.5C 23.5012,53.4862 23.3345,57.4862 23.5,61.5C 23.1667,61.5 22.8333,61.5 22.5,61.5C 22.5,57.5 22.5,53.5 22.5,49.5C 22.5,49.1667 22.5,48.8333 22.5,48.5 Z"/></g>
<g><path style="opacity:1" fill="#e1e4e5" d="M 46.5,59.5 C 48.256,58.4479 48.9227,56.7812 48.5,54.5C 48.5,52.8333 48.5,51.1667 48.5,49.5C 50.4228,53.0293 51.0894,57.0293 50.5,61.5C 42.365,63.3662 34.0316,64.0328 25.5,63.5C 25.5,62.1667 24.8333,61.5 23.5,61.5C 23.3345,57.4862 23.5012,53.4862 24,49.5C 24.4983,52.8168 24.665,56.1501 24.5,59.5C 25.5,59.5 26.5,59.5 27.5,59.5C 27.5,60.5 27.5,61.5 27.5,62.5C 33.8333,62.5 40.1667,62.5 46.5,62.5C 46.5,61.5 46.5,60.5 46.5,59.5 Z"/></g>
<g><path style="opacity:1" fill="#910618" d="M 48.5,54.5 C 48.9227,56.7812 48.256,58.4479 46.5,59.5C 43.6,60.7366 40.4334,61.4033 37,61.5C 33.7485,61.4809 30.9151,60.8142 28.5,59.5C 33.5,59.5 38.5,59.5 43.5,59.5C 43.5,58.5 43.5,57.5 43.5,56.5C 45.3224,56.1692 46.9891,55.5025 48.5,54.5 Z"/></g>
<g><path style="opacity:1" fill="#bc1028" d="M 25.5,49.5 C 26.5,49.5 27.5,49.5 28.5,49.5C 29.1667,54.8333 29.8333,54.8333 30.5,49.5C 36.5,49.5 42.5,49.5 48.5,49.5C 48.5,51.1667 48.5,52.8333 48.5,54.5C 46.9891,55.5025 45.3224,56.1692 43.5,56.5C 43.5,57.5 43.5,58.5 43.5,59.5C 38.5,59.5 33.5,59.5 28.5,59.5C 27.791,58.596 26.791,58.2627 25.5,58.5C 25.5,55.5 25.5,52.5 25.5,49.5 Z"/></g>
<g><path style="opacity:1" fill="#750378" d="M -0.5,48.5 C 5.66899,50.5802 11.669,53.2469 17.5,56.5C 18.2978,58.0777 18.7978,59.7444 19,61.5C 19.499,57.1794 19.6657,52.8461 19.5,48.5C 20.5,48.5 21.5,48.5 22.5,48.5C 22.5,48.8333 22.5,49.1667 22.5,49.5C 21.2057,51.0478 20.5391,53.0478 20.5,55.5C 20.5391,57.9522 21.2057,59.9522 22.5,61.5C 22.5,62.5 22.5,63.5 22.5,64.5C 23.5,64.5 24.5,64.5 25.5,64.5C 27.6353,66.369 30.3019,67.0356 33.5,66.5C 33.5,70.8333 33.5,75.1667 33.5,79.5C 31.2188,79.0773 29.5521,79.744 28.5,81.5C 28.5,81.8333 28.5,82.1667 28.5,82.5C 27.5,82.5 26.5,82.5 25.5,82.5C 25.5,83.8333 25.5,85.1667 25.5,86.5C 40.9911,87.4963 56.6578,87.8296 72.5,87.5C 72.5,86.5 72.5,85.5 72.5,84.5C 73.1667,84.5 73.8333,84.5 74.5,84.5C 75.3296,76.0097 75.8296,67.343 76,58.5C 76.1962,60.2861 77.0295,61.6195 78.5,62.5C 83.9788,60.4194 89.6454,59.0861 95.5,58.5C 95.5,70.8333 95.5,83.1667 95.5,95.5C 63.5,95.5 31.5,95.5 -0.5,95.5C -0.5,79.8333 -0.5,64.1667 -0.5,48.5 Z"/></g>
<g><path style="opacity:1" fill="#8f8f8f" d="M 50.5,61.5 C 50.8333,61.5 51.1667,61.5 51.5,61.5C 51.5,62.5 51.5,63.5 51.5,64.5C 50.5,64.5 49.5,64.5 48.5,64.5C 45.1667,64.5 41.8333,64.5 38.5,64.5C 38.5,70.1667 38.5,75.8333 38.5,81.5C 41.3854,81.1936 44.0521,81.5269 46.5,82.5C 43.5,82.5 40.5,82.5 37.5,82.5C 37.1667,61.1667 36.8333,61.1667 36.5,82.5C 33.8333,82.5 31.1667,82.5 28.5,82.5C 28.5,82.1667 28.5,81.8333 28.5,81.5C 30.8333,81.5 33.1667,81.5 35.5,81.5C 35.5,75.8333 35.5,70.1667 35.5,64.5C 32.1667,64.5 28.8333,64.5 25.5,64.5C 25.5,64.1667 25.5,63.8333 25.5,63.5C 34.0316,64.0328 42.365,63.3662 50.5,61.5 Z"/></g>
<g><path style="opacity:1" fill="#151612" d="M 25.5,64.5 C 28.8333,64.5 32.1667,64.5 35.5,64.5C 35.5,70.1667 35.5,75.8333 35.5,81.5C 33.1667,81.5 30.8333,81.5 28.5,81.5C 29.5521,79.744 31.2188,79.0773 33.5,79.5C 33.5,75.1667 33.5,70.8333 33.5,66.5C 30.3019,67.0356 27.6353,66.369 25.5,64.5 Z"/></g>
<g><path style="opacity:1" fill="#3b2137" d="M 22.5,61.5 C 22.8333,61.5 23.1667,61.5 23.5,61.5C 24.8333,61.5 25.5,62.1667 25.5,63.5C 25.5,63.8333 25.5,64.1667 25.5,64.5C 24.5,64.5 23.5,64.5 22.5,64.5C 22.5,63.5 22.5,62.5 22.5,61.5 Z"/></g>
<g><path style="opacity:1" fill="#c8c6a1" d="M 69.5,50.5 C 69.5,56.8333 69.5,63.1667 69.5,69.5C 68.5,69.5 67.5,69.5 66.5,69.5C 65.8333,69.5 65.1667,69.5 64.5,69.5C 64.1667,69.5 63.8333,69.5 63.5,69.5C 59.5,69.5 55.5,69.5 51.5,69.5C 50.5,69.5 49.5,69.5 48.5,69.5C 48.5,69.1667 48.5,68.8333 48.5,68.5C 55.1667,68.5 61.8333,68.5 68.5,68.5C 68.1771,62.31 68.5104,56.31 69.5,50.5 Z"/></g>
<g><path style="opacity:1" fill="#edefef" d="M 46.5,82.5 C 43.9134,83.8164 40.9134,84.483 37.5,84.5C 34.0866,84.483 31.0866,83.8164 28.5,82.5C 31.1667,82.5 33.8333,82.5 36.5,82.5C 36.8333,61.1667 37.1667,61.1667 37.5,82.5C 40.5,82.5 43.5,82.5 46.5,82.5 Z"/></g>
<g><path style="opacity:1" fill="#08522b" d="M 71.5,41.5 C 71.8333,41.5 72.1667,41.5 72.5,41.5C 72.5,55.8333 72.5,70.1667 72.5,84.5C 72.1667,84.5 71.8333,84.5 71.5,84.5C 63.8333,84.5 56.1667,84.5 48.5,84.5C 48.5,79.5 48.5,74.5 48.5,69.5C 49.5,69.5 50.5,69.5 51.5,69.5C 51.5,73.5 51.5,77.5 51.5,81.5C 55.5,81.5 59.5,81.5 63.5,81.5C 63.5,77.5 63.5,73.5 63.5,69.5C 63.8333,69.5 64.1667,69.5 64.5,69.5C 65.1667,86.8333 65.8333,86.8333 66.5,69.5C 67.5,69.5 68.5,69.5 69.5,69.5C 69.1744,73.8839 69.5078,78.2172 70.5,82.5C 71.4992,68.8496 71.8325,55.1829 71.5,41.5 Z"/></g>
<g><path style="opacity:1" fill="#4d933b" d="M 64.5,69.5 C 65.1667,69.5 65.8333,69.5 66.5,69.5C 65.8333,86.8333 65.1667,86.8333 64.5,69.5 Z"/></g>
<g><path style="opacity:1" fill="#003c22" d="M 51.5,69.5 C 55.5,69.5 59.5,69.5 63.5,69.5C 63.5,73.5 63.5,77.5 63.5,81.5C 59.5,81.5 55.5,81.5 51.5,81.5C 51.5,77.5 51.5,73.5 51.5,69.5 Z"/></g>
<g><path style="opacity:1" fill="#1f1f1c" d="M 48.5,64.5 C 48.5,65.8333 48.5,67.1667 48.5,68.5C 48.5,68.8333 48.5,69.1667 48.5,69.5C 48.5,74.5 48.5,79.5 48.5,84.5C 56.1667,84.5 63.8333,84.5 71.5,84.5C 56.5364,86.4841 41.2031,87.1507 25.5,86.5C 25.5,85.1667 25.5,83.8333 25.5,82.5C 26.5,82.5 27.5,82.5 28.5,82.5C 31.0866,83.8164 34.0866,84.483 37.5,84.5C 40.9134,84.483 43.9134,83.8164 46.5,82.5C 44.0521,81.5269 41.3854,81.1936 38.5,81.5C 38.5,75.8333 38.5,70.1667 38.5,64.5C 41.8333,64.5 45.1667,64.5 48.5,64.5 Z"/></g>
<g><path style="opacity:1" fill="#51104e" d="M 45.5,79.5 C 45.5,75.5 45.5,71.5 45.5,67.5C 44.1667,67.5 42.8333,67.5 41.5,67.5C 41.5,71.5 41.5,75.5 41.5,79.5C 40.5151,75.3656 40.1818,71.0323 40.5,66.5C 42.5,66.5 44.5,66.5 46.5,66.5C 46.8182,71.0323 46.4849,75.3656 45.5,79.5 Z"/></g>
<g><path style="opacity:1" fill="#7e027d" d="M 45.5,79.5 C 44.1667,79.5 42.8333,79.5 41.5,79.5C 41.5,75.5 41.5,71.5 41.5,67.5C 42.8333,67.5 44.1667,67.5 45.5,67.5C 45.5,71.5 45.5,75.5 45.5,79.5 Z"/></g>
<g><path style="opacity:1" fill="#451344" d="M 71.5,84.5 C 71.8333,84.5 72.1667,84.5 72.5,84.5C 72.5,85.5 72.5,86.5 72.5,87.5C 56.6578,87.8296 40.9911,87.4963 25.5,86.5C 41.2031,87.1507 56.5364,86.4841 71.5,84.5 Z"/></g>
</svg>
