<?xml version="1.0" encoding="UTF-8"?>
<!DOCTYPE svg PUBLIC "-//W3C//DTD SVG 1.1//EN" "http://www.w3.org/Graphics/SVG/1.1/DTD/svg11.dtd">
<svg xmlns="http://www.w3.org/2000/svg" version="1.1" width="96px" height="96px" style="shape-rendering:geometricPrecision; text-rendering:geometricPrecision; image-rendering:optimizeQuality; fill-rule:evenodd; clip-rule:evenodd" xmlns:xlink="http://www.w3.org/1999/xlink">
<g><path style="opacity:0.958" fill="#fdde59" d="M 37.5,-0.5 C 44.1667,-0.5 50.8333,-0.5 57.5,-0.5C 76.7369,5.07001 89.4035,17.4033 95.5,36.5C 95.5,43.8333 95.5,51.1667 95.5,58.5C 89.4035,77.5967 76.7369,89.93 57.5,95.5C 50.8333,95.5 44.1667,95.5 37.5,95.5C 18.2631,89.93 5.59648,77.5967 -0.5,58.5C -0.5,51.1667 -0.5,43.8333 -0.5,36.5C 5.59648,17.4033 18.2631,5.07001 37.5,-0.5 Z"/></g>
<g><path style="opacity:1" fill="#504b33" d="M 78.5,40.5 C 78.8082,34.5746 78.4749,28.7412 77.5,23C 71.766,23.1773 66.0993,24.0107 60.5,25.5C 65.969,22.1378 71.969,20.9711 78.5,22C 81.052,28.2434 81.052,34.41 78.5,40.5 Z"/></g>
<g><path style="opacity:1" fill="#e9c22d" d="M 78.5,40.5 C 77.7321,41.2625 77.2321,42.2625 77,43.5C 75.6485,41.4062 75.1485,39.0728 75.5,36.5C 75.5,33.5 75.5,30.5 75.5,27.5C 72.6146,27.1936 69.9479,27.5269 67.5,28.5C 64.0802,29.811 60.7469,29.6443 57.5,28C 58.5707,27.1482 59.5707,26.3149 60.5,25.5C 66.0993,24.0107 71.766,23.1773 77.5,23C 78.4749,28.7412 78.8082,34.5746 78.5,40.5 Z"/></g>
<g><path style="opacity:1" fill="#5d5135" d="M 16.5,22.5 C 19.9758,21.3567 23.6425,21.1901 27.5,22C 32.478,23.4373 37.3113,25.2707 42,27.5C 45.8254,26.2064 49.6587,26.2064 53.5,27.5C 55.7617,26.5331 58.095,25.8664 60.5,25.5C 59.5707,26.3149 58.5707,27.1482 57.5,28C 60.7469,29.6443 64.0802,29.811 67.5,28.5C 66.0998,29.1001 65.0998,30.1001 64.5,31.5C 61.779,31.0372 59.1123,30.3705 56.5,29.5C 53.3752,28.5206 50.0419,28.1872 46.5,28.5C 45.2223,28.7822 44.2223,29.4489 43.5,30.5C 41.4649,28.8053 39.1316,27.472 36.5,26.5C 30.1095,23.9035 23.4428,22.5701 16.5,22.5 Z"/></g>
<g><path style="opacity:1" fill="#bcbdc0" d="M 75.5,36.5 C 74.7777,37.5511 73.7777,38.2178 72.5,38.5C 71.8333,35.8333 70.1667,34.1667 67.5,33.5C 65.9731,33.573 64.9731,32.9063 64.5,31.5C 65.0998,30.1001 66.0998,29.1001 67.5,28.5C 69.9479,27.5269 72.6146,27.1936 75.5,27.5C 75.5,30.5 75.5,33.5 75.5,36.5 Z"/></g>
<g><path style="opacity:1" fill="#f0a932" d="M 46.5,28.5 C 50.0419,28.1872 53.3752,28.5206 56.5,29.5C 57.5027,33.8371 57.5027,38.5037 56.5,43.5C 53.8937,37.936 50.5604,32.936 46.5,28.5 Z"/></g>
<g><path style="opacity:1" fill="#463a35" d="M 67.5,33.5 C 70.1667,34.1667 71.8333,35.8333 72.5,38.5C 70.5,37.1667 68.8333,35.5 67.5,33.5 Z"/></g>
<g><path style="opacity:1" fill="#eda933" d="M 36.5,26.5 C 39.1316,27.472 41.4649,28.8053 43.5,30.5C 42.6016,31.1577 41.6016,31.8243 40.5,32.5C 42.5215,36.0905 44.0215,39.7572 45,43.5C 41.5952,41.598 39.0952,38.9313 37.5,35.5C 38.1408,34.5178 38.8075,33.5178 39.5,32.5C 35.8821,30.1147 31.8821,28.7813 27.5,28.5C 27.5,28.1667 27.5,27.8333 27.5,27.5C 29.2624,27.3573 30.9291,27.6906 32.5,28.5C 34.0255,28.0057 35.3588,27.339 36.5,26.5 Z"/></g>
<g><path style="opacity:1" fill="#655730" d="M 16.5,22.5 C 16.0008,31.3597 17.0008,40.0264 19.5,48.5C 18.8698,50.7496 17.8698,52.7496 16.5,54.5C 16.7495,51.9979 17.0828,49.4979 17.5,47C 15.2257,39.3028 14.3923,31.4694 15,23.5C 15.3826,22.944 15.8826,22.6107 16.5,22.5 Z"/></g>
<g><path style="opacity:1" fill="#fbc72d" d="M 16.5,22.5 C 23.4428,22.5701 30.1095,23.9035 36.5,26.5C 35.3588,27.339 34.0255,28.0057 32.5,28.5C 30.9291,27.6906 29.2624,27.3573 27.5,27.5C 24.6075,26.477 21.7742,26.477 19,27.5C 18.2015,31.7809 18.7015,35.7809 20.5,39.5C 20.9294,42.3626 21.9294,45.0293 23.5,47.5C 27.2979,42.36 31.9646,38.36 37.5,35.5C 39.0952,38.9313 41.5952,41.598 45,43.5C 44.0215,39.7572 42.5215,36.0905 40.5,32.5C 41.6016,31.8243 42.6016,31.1577 43.5,30.5C 44.2223,29.4489 45.2223,28.7822 46.5,28.5C 50.5604,32.936 53.8937,37.936 56.5,43.5C 57.5027,38.5037 57.5027,33.8371 56.5,29.5C 59.1123,30.3705 61.779,31.0372 64.5,31.5C 64.9731,32.9063 65.9731,33.573 67.5,33.5C 68.8333,35.5 70.5,37.1667 72.5,38.5C 76.1018,44.3063 78.1018,50.6396 78.5,57.5C 77.365,61.6359 75.365,65.3026 72.5,68.5C 72.1667,68.5 71.8333,68.5 71.5,68.5C 70.3856,65.5964 68.3856,63.5964 65.5,62.5C 65.5912,60.3023 64.9245,59.9689 63.5,61.5C 61.9724,60.6908 60.3057,60.0241 58.5,59.5C 59.2341,58.2921 59.5674,56.9587 59.5,55.5C 57.1667,55.5 54.8333,55.5 52.5,55.5C 52.4326,56.9587 52.7659,58.2921 53.5,59.5C 51.4352,59.5172 49.4352,59.8505 47.5,60.5C 46.5084,60.3284 45.8417,60.6618 45.5,61.5C 40.3577,62.6375 36.6911,65.6375 34.5,70.5C 34.1667,70.5 33.8333,70.5 33.5,70.5C 24.7787,65.7196 20.1121,58.3862 19.5,48.5C 17.0008,40.0264 16.0008,31.3597 16.5,22.5 Z"/></g>
<g><path style="opacity:1" fill="#a7a5a4" d="M 27.5,28.5 C 31.8821,28.7813 35.8821,30.1147 39.5,32.5C 38.8075,33.5178 38.1408,34.5178 37.5,35.5C 31.9646,38.36 27.2979,42.36 23.5,47.5C 21.9294,45.0293 20.9294,42.3626 20.5,39.5C 20.5,35.8333 20.5,32.1667 20.5,28.5C 22.8333,28.5 25.1667,28.5 27.5,28.5 Z"/></g>
<g><path style="opacity:1" fill="#867a69" d="M 27.5,27.5 C 27.5,27.8333 27.5,28.1667 27.5,28.5C 25.1667,28.5 22.8333,28.5 20.5,28.5C 20.5,32.1667 20.5,35.8333 20.5,39.5C 18.7015,35.7809 18.2015,31.7809 19,27.5C 21.7742,26.477 24.6075,26.477 27.5,27.5 Z"/></g>
<g><path style="opacity:1" fill="#655530" d="M 75.5,36.5 C 75.1485,39.0728 75.6485,41.4062 77,43.5C 77.2321,42.2625 77.7321,41.2625 78.5,40.5C 78.523,45.8741 79.023,51.2074 80,56.5C 82.9565,57.8083 83.7899,59.8083 82.5,62.5C 81.2264,61.8106 81.2264,60.9772 82.5,60C 81.0161,59.3378 79.6828,58.5045 78.5,57.5C 78.1018,50.6396 76.1018,44.3063 72.5,38.5C 73.7777,38.2178 74.7777,37.5511 75.5,36.5 Z"/></g>
<g><path style="opacity:1" fill="#2a292b" d="M 42.5,45.5 C 44.5824,45.472 46.4157,46.1387 48,47.5C 49.0037,50.9926 48.5037,54.1592 46.5,57C 41.2455,57.3707 39.0788,54.8707 40,49.5C 40.6622,48.0161 41.4955,46.6828 42.5,45.5 Z"/></g>
<g><path style="opacity:1" fill="#fefffe" d="M 45.5,48.5 C 47.337,48.6395 47.6704,49.3061 46.5,50.5C 45.7025,50.0431 45.3691,49.3764 45.5,48.5 Z"/></g>
<g><path style="opacity:1" fill="#8c8479" d="M 63.5,48.5 C 66.3382,50.3059 66.0048,51.3059 62.5,51.5C 62.5,52.5 62.5,53.5 62.5,54.5C 61.8614,53.9032 61.528,53.0698 61.5,52C 61.3866,50.3009 62.0532,49.1342 63.5,48.5 Z"/></g>
<g><path style="opacity:1" fill="#232326" d="M 62.5,54.5 C 62.5,53.5 62.5,52.5 62.5,51.5C 66.0048,51.3059 66.3382,50.3059 63.5,48.5C 65.1978,45.8761 67.0312,45.8761 69,48.5C 69.6667,50.8333 69.6667,53.1667 69,55.5C 66.3891,58.2434 64.2224,57.91 62.5,54.5 Z"/></g>
<g><path style="opacity:1" fill="#b4913e" d="M 19.5,48.5 C 20.1121,58.3862 24.7787,65.7196 33.5,70.5C 33.1075,72.2838 32.4408,73.9505 31.5,75.5C 28.8598,74.5515 26.1931,73.5515 23.5,72.5C 22.7377,70.7376 21.4044,69.7376 19.5,69.5C 17.5332,67.5066 15.5332,65.5066 13.5,63.5C 13.9767,62.5224 14.6433,61.6891 15.5,61C 14.4258,60.2613 13.7591,59.2613 13.5,58C 14.5442,56.8261 15.5442,55.6594 16.5,54.5C 17.8698,52.7496 18.8698,50.7496 19.5,48.5 Z"/></g>
<g><path style="opacity:1" fill="#e3e3e1" d="M 53.5,59.5 C 55.0308,62.0036 54.1975,63.3369 51,63.5C 49.0922,63.2849 47.9256,62.2849 47.5,60.5C 49.4352,59.8505 51.4352,59.5172 53.5,59.5 Z"/></g>
<g><path style="opacity:1" fill="#e4e4e1" d="M 58.5,59.5 C 60.3057,60.0241 61.9724,60.6908 63.5,61.5C 60.8892,64.2744 58.5558,63.9411 56.5,60.5C 56.9569,59.7025 57.6236,59.3691 58.5,59.5 Z"/></g>
<g><path style="opacity:1" fill="#f9f9f7" d="M 45.5,61.5 C 46.6528,63.636 47.9862,65.636 49.5,67.5C 49.9528,68.4584 50.6195,69.2917 51.5,70C 54.1667,70.6667 56.8333,70.6667 59.5,70C 61.4155,67.3487 63.4155,64.8487 65.5,62.5C 68.3856,63.5964 70.3856,65.5964 71.5,68.5C 70.1064,70.7082 68.1064,72.2082 65.5,73C 56.5147,74.9233 47.5147,74.9233 38.5,73C 36.9336,72.3918 35.6002,71.5585 34.5,70.5C 36.6911,65.6375 40.3577,62.6375 45.5,61.5 Z"/></g>
<g><path style="opacity:1" fill="#4d442e" d="M 16.5,54.5 C 15.5442,55.6594 14.5442,56.8261 13.5,58C 13.7591,59.2613 14.4258,60.2613 15.5,61C 14.6433,61.6891 13.9767,62.5224 13.5,63.5C 15.5332,65.5066 17.5332,67.5066 19.5,69.5C 16.1397,68.4803 13.473,66.4803 11.5,63.5C 11.9767,62.5224 12.6433,61.6891 13.5,61C 10.4918,57.1766 11.4918,55.01 16.5,54.5 Z"/></g>
<g><path style="opacity:1" fill="#322d2e" d="M 58.5,59.5 C 57.6236,59.3691 56.9569,59.7025 56.5,60.5C 58.5558,63.9411 60.8892,64.2744 63.5,61.5C 64.9245,59.9689 65.5912,60.3023 65.5,62.5C 63.4155,64.8487 61.4155,67.3487 59.5,70C 56.8333,70.6667 54.1667,70.6667 51.5,70C 50.6195,69.2917 49.9528,68.4584 49.5,67.5C 47.9862,65.636 46.6528,63.636 45.5,61.5C 45.8417,60.6618 46.5084,60.3284 47.5,60.5C 47.9256,62.2849 49.0922,63.2849 51,63.5C 54.1975,63.3369 55.0308,62.0036 53.5,59.5C 52.7659,58.2921 52.4326,56.9587 52.5,55.5C 54.8333,55.5 57.1667,55.5 59.5,55.5C 59.5674,56.9587 59.2341,58.2921 58.5,59.5 Z"/></g>
<g><path style="opacity:1" fill="#af8d3e" d="M 78.5,57.5 C 79.6828,58.5045 81.0161,59.3378 82.5,60C 81.2264,60.9772 81.2264,61.8106 82.5,62.5C 81.8902,63.391 81.5569,64.391 81.5,65.5C 79.2499,68.5886 76.2499,70.5886 72.5,71.5C 72.5,70.5 72.5,69.5 72.5,68.5C 75.365,65.3026 77.365,61.6359 78.5,57.5 Z"/></g>
<g><path style="opacity:1" fill="#f45b95" d="M 49.5,67.5 C 52.7088,64.9141 56.0422,65.0808 59.5,68C 58.3999,69.023 57.0666,69.523 55.5,69.5C 53.3069,69.2814 51.3069,68.6148 49.5,67.5 Z"/></g>
<g><path style="opacity:1" fill="#372f29" d="M 19.5,69.5 C 21.4044,69.7376 22.7377,70.7376 23.5,72.5C 21.5956,72.2624 20.2623,71.2624 19.5,69.5 Z"/></g>
<g><path style="opacity:1" fill="#45413b" d="M 23.5,72.5 C 26.1931,73.5515 28.8598,74.5515 31.5,75.5C 32.842,76.793 34.5087,77.6264 36.5,78C 41,78.5 45.5,79 50,79.5C 54.519,78.8957 59.019,78.229 63.5,77.5C 52.2779,81.4845 40.9445,81.3178 29.5,77C 27.2528,75.7225 25.2528,74.2225 23.5,72.5 Z"/></g>
<g><path style="opacity:1" fill="#b6b6b6" d="M 71.5,68.5 C 71.8333,68.5 72.1667,68.5 72.5,68.5C 72.5,69.5 72.5,70.5 72.5,71.5C 69.672,73.7481 66.672,75.7481 63.5,77.5C 59.019,78.229 54.519,78.8957 50,79.5C 45.5,79 41,78.5 36.5,78C 34.5087,77.6264 32.842,76.793 31.5,75.5C 32.4408,73.9505 33.1075,72.2838 33.5,70.5C 33.8333,70.5 34.1667,70.5 34.5,70.5C 35.6002,71.5585 36.9336,72.3918 38.5,73C 47.5147,74.9233 56.5147,74.9233 65.5,73C 68.1064,72.2082 70.1064,70.7082 71.5,68.5 Z"/></g>
<g><path style="opacity:1" fill="#443f36" d="M 81.5,65.5 C 82.0431,65.56 82.3764,65.8933 82.5,66.5C 81.6872,67.8139 80.6872,68.9805 79.5,70C 74.5264,73.3208 69.193,75.8208 63.5,77.5C 66.672,75.7481 69.672,73.7481 72.5,71.5C 76.2499,70.5886 79.2499,68.5886 81.5,65.5 Z"/></g>
</svg>
