<?xml version="1.0" encoding="UTF-8"?>
<!DOCTYPE svg PUBLIC "-//W3C//DTD SVG 1.1//EN" "http://www.w3.org/Graphics/SVG/1.1/DTD/svg11.dtd">
<svg xmlns="http://www.w3.org/2000/svg" version="1.1" width="96px" height="96px" style="shape-rendering:geometricPrecision; text-rendering:geometricPrecision; image-rendering:optimizeQuality; fill-rule:evenodd; clip-rule:evenodd" xmlns:xlink="http://www.w3.org/1999/xlink">
<g><path style="opacity:1" fill="#fcfdfd" d="M -0.5,-0.5 C 12.8333,-0.5 26.1667,-0.5 39.5,-0.5C 18.0834,5.25027 4.75005,18.9169 -0.5,40.5C -0.5,26.8333 -0.5,13.1667 -0.5,-0.5 Z"/></g>
<g><path style="opacity:1" fill="#28a07b" d="M 39.5,-0.5 C 44.1667,-0.5 48.8333,-0.5 53.5,-0.5C 75.129,4.12409 89.129,17.1241 95.5,38.5C 95.5,43.5 95.5,48.5 95.5,53.5C 90.3996,76.9335 76.0663,90.9335 52.5,95.5C 48.5,95.5 44.5,95.5 40.5,95.5C 18.0479,90.0482 4.38128,76.0482 -0.5,53.5C -0.5,49.1667 -0.5,44.8333 -0.5,40.5C 4.75005,18.9169 18.0834,5.25027 39.5,-0.5 Z"/></g>
<g><path style="opacity:1" fill="#fbfdfc" d="M 53.5,-0.5 C 67.5,-0.5 81.5,-0.5 95.5,-0.5C 95.5,12.5 95.5,25.5 95.5,38.5C 89.129,17.1241 75.129,4.12409 53.5,-0.5 Z"/></g>
<g><path style="opacity:1" fill="#f8fbfa" d="M 64.5,42.5 C 63.791,43.404 62.791,43.7373 61.5,43.5C 58.8333,43.5 56.1667,43.5 53.5,43.5C 53.5,45.8333 53.5,48.1667 53.5,50.5C 49.5,50.5 45.5,50.5 41.5,50.5C 41.7359,47.3915 41.4025,44.3915 40.5,41.5C 40.5,39.1667 40.5,36.8333 40.5,34.5C 35.1667,34.5 29.8333,34.5 24.5,34.5C 24.5,30.5 24.5,26.5 24.5,22.5C 39.5,22.5 54.5,22.5 69.5,22.5C 69.5,26.5 69.5,30.5 69.5,34.5C 64.1667,34.5 58.8333,34.5 53.5,34.5C 53.5,36.8333 53.5,39.1667 53.5,41.5C 57.1788,41.7244 60.8455,42.0578 64.5,42.5 Z"/></g>
<g><path style="opacity:1" fill="#f1f8f6" d="M 40.5,41.5 C 41.4025,44.3915 41.7359,47.3915 41.5,50.5C 40.5318,48.3926 40.1984,46.0593 40.5,43.5C 33.7022,43.2957 27.3688,44.7957 21.5,48C 23.221,49.5272 25.221,50.5272 27.5,51C 42.6792,53.5415 57.6792,52.8749 72.5,49C 73.8333,48.3333 73.8333,47.6667 72.5,47C 68.8387,45.4075 65.172,44.2408 61.5,43.5C 62.791,43.7373 63.791,43.404 64.5,42.5C 67.4804,43.2655 70.4804,44.0989 73.5,45C 75.2112,46.1332 75.7112,47.6332 75,49.5C 68.177,52.499 61.0103,54.1656 53.5,54.5C 53.5,61.5 53.5,68.5 53.5,75.5C 49.1667,75.5 44.8333,75.5 40.5,75.5C 40.5,68.5 40.5,61.5 40.5,54.5C 33.9956,54.229 27.6623,53.0623 21.5,51C 18.8333,49 18.8333,47 21.5,45C 27.6345,42.7554 33.9678,41.5887 40.5,41.5 Z"/></g>
<g><path style="opacity:1" fill="#2ba07a" d="M 41.5,50.5 C 45.5,50.5 49.5,50.5 53.5,50.5C 53.5,48.1667 53.5,45.8333 53.5,43.5C 56.1667,43.5 58.8333,43.5 61.5,43.5C 65.172,44.2408 68.8387,45.4075 72.5,47C 73.8333,47.6667 73.8333,48.3333 72.5,49C 57.6792,52.8749 42.6792,53.5415 27.5,51C 25.221,50.5272 23.221,49.5272 21.5,48C 27.3688,44.7957 33.7022,43.2957 40.5,43.5C 40.1984,46.0593 40.5318,48.3926 41.5,50.5 Z"/></g>
<g><path style="opacity:1" fill="#fdfefd" d="M -0.5,53.5 C 4.38128,76.0482 18.0479,90.0482 40.5,95.5C 26.8333,95.5 13.1667,95.5 -0.5,95.5C -0.5,81.5 -0.5,67.5 -0.5,53.5 Z"/></g>
<g><path style="opacity:1" fill="#fbfdfd" d="M 95.5,53.5 C 95.5,67.5 95.5,81.5 95.5,95.5C 81.1667,95.5 66.8333,95.5 52.5,95.5C 76.0663,90.9335 90.3996,76.9335 95.5,53.5 Z"/></g>
</svg>
