<?xml version="1.0" encoding="UTF-8"?>
<!DOCTYPE svg PUBLIC "-//W3C//DTD SVG 1.1//EN" "http://www.w3.org/Graphics/SVG/1.1/DTD/svg11.dtd">
<svg xmlns="http://www.w3.org/2000/svg" version="1.1" width="96px" height="96px" style="shape-rendering:geometricPrecision; text-rendering:geometricPrecision; image-rendering:optimizeQuality; fill-rule:evenodd; clip-rule:evenodd" xmlns:xlink="http://www.w3.org/1999/xlink">
<g><path style="opacity:0.998" fill="#e84141" d="M 37.5,-0.5 C 44.1667,-0.5 50.8333,-0.5 57.5,-0.5C 77.1667,5.16667 89.8333,17.8333 95.5,37.5C 95.5,44.1667 95.5,50.8333 95.5,57.5C 89.8333,77.1667 77.1667,89.8333 57.5,95.5C 50.8333,95.5 44.1667,95.5 37.5,95.5C 17.8333,89.8333 5.16667,77.1667 -0.5,57.5C -0.5,50.8333 -0.5,44.1667 -0.5,37.5C 5.16667,17.8333 17.8333,5.16667 37.5,-0.5 Z"/></g>
<g><path style="opacity:1" fill="#fefaf9" d="M 68.5,30.5 C 69.4959,30.4142 70.3292,30.7476 71,31.5C 72.0804,33.9962 73.4138,36.3295 75,38.5C 76.3014,40.3646 76.6347,42.3646 76,44.5C 72.1667,50.8333 68.3333,57.1667 64.5,63.5C 59.3721,64.9872 54.3721,64.8206 49.5,63C 55.7188,52.057 62.0521,41.2237 68.5,30.5 Z"/></g>
<g><path style="opacity:1" fill="#ccc5fb" d="M 31.5,37.5 C 31.5,42.5 31.5,47.5 31.5,52.5C 28.5032,47.8398 26.0032,42.8398 24,37.5C 21.5408,36.3511 19.0408,36.3511 16.5,37.5C 16.5,36.1667 16.5,34.8333 16.5,33.5C 21.1785,33.3342 25.8452,33.5008 30.5,34C 31.3366,35.0113 31.67,36.1779 31.5,37.5 Z"/></g>
<g><path style="opacity:1" fill="#ece5f8" d="M 31.5,37.5 C 35.4571,38.2952 38.4571,40.2952 40.5,43.5C 37.6695,49.8283 34.8361,56.1616 32,62.5C 29.7009,63.5796 27.5342,63.2463 25.5,61.5C 26.9997,59.8214 28.833,58.4881 31,57.5C 31.4935,55.8659 31.6602,54.1992 31.5,52.5C 31.5,47.5 31.5,42.5 31.5,37.5 Z"/></g>
<g><path style="opacity:1" fill="#7c70fa" d="M 31.5,52.5 C 31.6602,54.1992 31.4935,55.8659 31,57.5C 28.833,58.4881 26.9997,59.8214 25.5,61.5C 22.9321,62.4496 20.4321,62.4496 18,61.5C 15.6065,55.7126 12.9398,50.0459 10,44.5C 9.33333,43.5 9.33333,42.5 10,41.5C 12.3143,40.2668 14.4809,38.9334 16.5,37.5C 19.0408,36.3511 21.5408,36.3511 24,37.5C 26.0032,42.8398 28.5032,47.8398 31.5,52.5 Z"/></g>
<g><path style="opacity:1" fill="#f0eefe" d="M 18.5,45.5 C 20.472,46.451 22.472,47.451 24.5,48.5C 23.7542,49.7362 23.4208,51.0695 23.5,52.5C 21.3043,52.4348 19.3043,51.7681 17.5,50.5C 18.3094,48.9291 18.6427,47.2624 18.5,45.5 Z"/></g>
<g><path style="opacity:1" fill="#fef7f7" d="M 79.5,50.5 C 81.0174,50.5106 82.1841,51.1772 83,52.5C 85.6559,56.1438 87.4893,60.1438 88.5,64.5C 82.9786,64.9457 77.6452,64.4457 72.5,63C 75.2376,59.0212 77.571,54.8546 79.5,50.5 Z"/></g>
<g><path style="opacity:0.004" fill="#fe5958" d="M 32.5,95.5 C 31.8333,94.1667 31.8333,94.1667 32.5,95.5 Z"/></g>
<g><path style="opacity:0.004" fill="#e35655" d="M 63.5,95.5 C 62.8333,94.1667 62.8333,94.1667 63.5,95.5 Z"/></g>
</svg>
