<?xml version="1.0" encoding="UTF-8"?>
<!DOCTYPE svg PUBLIC "-//W3C//DTD SVG 1.1//EN" "http://www.w3.org/Graphics/SVG/1.1/DTD/svg11.dtd">
<svg xmlns="http://www.w3.org/2000/svg" version="1.1" width="96px" height="96px" style="shape-rendering:geometricPrecision; text-rendering:geometricPrecision; image-rendering:optimizeQuality; fill-rule:evenodd; clip-rule:evenodd" xmlns:xlink="http://www.w3.org/1999/xlink">
<g><path style="opacity:0.978" fill="#fafafe" d="M 35.5,-0.5 C 42.5,-0.5 49.5,-0.5 56.5,-0.5C 71.4209,3.41809 82.0875,12.4181 88.5,26.5C 88.1667,26.5 87.8333,26.5 87.5,26.5C 84.1451,19.8118 79.1451,14.8118 72.5,11.5C 67.9116,7.63101 62.5782,5.29768 56.5,4.5C 35.7117,0.811149 20.545,8.47782 11,27.5C 4.00708,52.349 12.5071,69.1823 36.5,78C 42.3153,78.8766 47.9819,78.3766 53.5,76.5C 56.4502,75.6916 59.1169,74.3582 61.5,72.5C 70.9691,64.3292 74.4691,53.9959 72,41.5C 69.6821,34.0162 64.8487,29.0162 57.5,26.5C 56.609,25.8902 55.609,25.5569 54.5,25.5C 43.8019,23.4333 35.9685,27.4333 31,37.5C 28.9469,44.9495 30.7803,51.1162 36.5,56C 40.5935,56.7673 44.5935,56.434 48.5,55C 51.9163,51.531 52.2496,47.8644 49.5,44C 46.3307,43.0218 43.4973,43.5218 41,45.5C 40.8385,41.3377 42.6718,38.171 46.5,36C 48.4727,35.5045 50.4727,35.3379 52.5,35.5C 55.8855,36.5277 58.5522,38.5277 60.5,41.5C 61.4137,44.728 61.7471,48.0613 61.5,51.5C 60.164,59.2128 55.8307,64.2128 48.5,66.5C 31.5158,68.1916 21.8491,60.525 19.5,43.5C 20.7377,28.2689 28.7377,18.9355 43.5,15.5C 56.7854,14.1486 67.7854,18.4819 76.5,28.5C 79.903,33.6458 81.903,39.3125 82.5,45.5C 83.124,55.3399 80.7907,64.3399 75.5,72.5C 69.7687,79.906 62.4353,84.906 53.5,87.5C 26.066,89.4609 8.06597,77.4609 -0.5,51.5C -0.5,46.5 -0.5,41.5 -0.5,36.5C 4.7267,17.6063 16.7267,5.27294 35.5,-0.5 Z"/></g>
<g><path style="opacity:0.004" fill="#fefffe" d="M 60.5,-0.5 C 60.8333,-0.5 61.1667,-0.5 61.5,-0.5C 61.3147,0.170143 60.9813,0.170143 60.5,-0.5 Z"/></g>
<g><path style="opacity:1" fill="#366eeb" d="M 56.5,4.5 C 62.5782,5.29768 67.9116,7.63101 72.5,11.5C 70.742,11.1231 69.0754,10.4565 67.5,9.5C 64.3939,14.8285 65.3939,18.6619 70.5,21C 73.1177,23.1057 75.1177,25.6057 76.5,28.5C 67.7854,18.4819 56.7854,14.1486 43.5,15.5C 46.9619,14.5184 50.6286,14.185 54.5,14.5C 54.0604,10.8215 54.727,7.48816 56.5,4.5 Z"/></g>
<g><path style="opacity:1" fill="#5759f0" d="M 56.5,4.5 C 54.727,7.48816 54.0604,10.8215 54.5,14.5C 50.6286,14.185 46.9619,14.5184 43.5,15.5C 28.7377,18.9355 20.7377,28.2689 19.5,43.5C 21.8491,60.525 31.5158,68.1916 48.5,66.5C 49.7479,67.3339 50.4146,68.6672 50.5,70.5C 50.4493,72.0998 50.1159,73.5998 49.5,75C 51.0581,75.21 52.3915,75.71 53.5,76.5C 47.9819,78.3766 42.3153,78.8766 36.5,78C 12.5071,69.1823 4.00708,52.349 11,27.5C 20.545,8.47782 35.7117,0.811149 56.5,4.5 Z"/></g>
<g><path style="opacity:1" fill="#197ee2" d="M 72.5,11.5 C 79.1451,14.8118 84.1451,19.8118 87.5,26.5C 87.5654,26.9382 87.3988,27.2716 87,27.5C 86,26.1667 85,24.8333 84,23.5C 83.4977,31.8655 83.6643,40.3655 84.5,49C 84.3333,50.8333 84.1667,52.6667 84,54.5C 83.8195,51.3054 83.3195,48.3054 82.5,45.5C 81.903,39.3125 79.903,33.6458 76.5,28.5C 75.1177,25.6057 73.1177,23.1057 70.5,21C 65.3939,18.6619 64.3939,14.8285 67.5,9.5C 69.0754,10.4565 70.742,11.1231 72.5,11.5 Z"/></g>
<g><path style="opacity:1" fill="#4063f0" d="M 54.5,25.5 C 55.609,25.5569 56.609,25.8902 57.5,26.5C 57.6444,31.7433 58.9778,36.5766 61.5,41C 61.2716,41.3988 60.9382,41.5654 60.5,41.5C 58.5522,38.5277 55.8855,36.5277 52.5,35.5C 51.3409,34.4865 49.3409,34.1532 46.5,34.5C 46.7683,31.8806 46.435,29.3806 45.5,27C 48.6946,26.8195 51.6946,26.3195 54.5,25.5 Z"/></g>
<g><path style="opacity:1" fill="#1687e0" d="M 87.5,26.5 C 87.8333,26.5 88.1667,26.5 88.5,26.5C 96.0587,43.1854 94.5587,59.1854 84,74.5C 80.2583,78.7475 76.0917,82.4141 71.5,85.5C 70.1634,84.6851 69.1634,83.5185 68.5,82C 71,79.5 73.5,77 76,74.5C 76.6917,73.5632 76.525,72.8966 75.5,72.5C 80.7907,64.3399 83.124,55.3399 82.5,45.5C 83.3195,48.3054 83.8195,51.3054 84,54.5C 84.1667,52.6667 84.3333,50.8333 84.5,49C 83.6643,40.3655 83.4977,31.8655 84,23.5C 85,24.8333 86,26.1667 87,27.5C 87.3988,27.2716 87.5654,26.9382 87.5,26.5 Z"/></g>
<g><path style="opacity:1" fill="#505af2" d="M 54.5,25.5 C 51.6946,26.3195 48.6946,26.8195 45.5,27C 46.435,29.3806 46.7683,31.8806 46.5,34.5C 49.3409,34.1532 51.3409,34.4865 52.5,35.5C 50.4727,35.3379 48.4727,35.5045 46.5,36C 42.6718,38.171 40.8385,41.3377 41,45.5C 43.4973,43.5218 46.3307,43.0218 49.5,44C 52.2496,47.8644 51.9163,51.531 48.5,55C 44.5935,56.434 40.5935,56.7673 36.5,56C 30.7803,51.1162 28.9469,44.9495 31,37.5C 35.9685,27.4333 43.8019,23.4333 54.5,25.5 Z"/></g>
<g><path style="opacity:1" fill="#2f70e9" d="M 57.5,26.5 C 64.8487,29.0162 69.6821,34.0162 72,41.5C 74.4691,53.9959 70.9691,64.3292 61.5,72.5C 60.8106,71.2264 59.9772,71.2264 59,72.5C 57.3841,65.7392 58.7175,59.7392 63,54.5C 63.6667,51.1667 63.6667,47.8333 63,44.5C 62.8138,47.0356 62.3138,49.369 61.5,51.5C 61.7471,48.0613 61.4137,44.728 60.5,41.5C 60.9382,41.5654 61.2716,41.3988 61.5,41C 58.9778,36.5766 57.6444,31.7433 57.5,26.5 Z"/></g>
<g><path style="opacity:1" fill="#3d65ee" d="M 61.5,72.5 C 59.1169,74.3582 56.4502,75.6916 53.5,76.5C 52.3915,75.71 51.0581,75.21 49.5,75C 50.1159,73.5998 50.4493,72.0998 50.5,70.5C 50.4146,68.6672 49.7479,67.3339 48.5,66.5C 55.8307,64.2128 60.164,59.2128 61.5,51.5C 62.3138,49.369 62.8138,47.0356 63,44.5C 63.6667,47.8333 63.6667,51.1667 63,54.5C 58.7175,59.7392 57.3841,65.7392 59,72.5C 59.9772,71.2264 60.8106,71.2264 61.5,72.5 Z"/></g>
<g><path style="opacity:1" fill="#575cf2" d="M -0.5,51.5 C 8.06597,77.4609 26.066,89.4609 53.5,87.5C 55.6477,87.3894 55.981,88.056 54.5,89.5C 55.1925,90.5178 55.8592,91.5178 56.5,92.5C 27.6053,95.8981 8.60534,83.8981 -0.5,56.5C -0.5,54.8333 -0.5,53.1667 -0.5,51.5 Z"/></g>
<g><path style="opacity:1" fill="#326eeb" d="M 75.5,72.5 C 76.525,72.8966 76.6917,73.5632 76,74.5C 73.5,77 71,79.5 68.5,82C 69.1634,83.5185 70.1634,84.6851 71.5,85.5C 66.9258,88.6189 61.9258,90.9522 56.5,92.5C 55.8592,91.5178 55.1925,90.5178 54.5,89.5C 55.981,88.056 55.6477,87.3894 53.5,87.5C 62.4353,84.906 69.7687,79.906 75.5,72.5 Z"/></g>
</svg>
