<?xml version="1.0" encoding="UTF-8"?>
<!DOCTYPE svg PUBLIC "-//W3C//DTD SVG 1.1//EN" "http://www.w3.org/Graphics/SVG/1.1/DTD/svg11.dtd">
<svg xmlns="http://www.w3.org/2000/svg" version="1.1" width="96px" height="96px" style="shape-rendering:geometricPrecision; text-rendering:geometricPrecision; image-rendering:optimizeQuality; fill-rule:evenodd; clip-rule:evenodd" xmlns:xlink="http://www.w3.org/1999/xlink">
<g><path style="opacity:1" fill="#342743" d="M -0.5,-0.5 C 13.8333,-0.5 28.1667,-0.5 42.5,-0.5C 19.365,3.96899 5.03164,17.6357 -0.5,40.5C -0.5,26.8333 -0.5,13.1667 -0.5,-0.5 Z"/></g>
<g><path style="opacity:1" fill="#332742" d="M 52.5,-0.5 C 66.8333,-0.5 81.1667,-0.5 95.5,-0.5C 95.5,14.1667 95.5,28.8333 95.5,43.5C 91.2568,18.9239 76.9234,4.2572 52.5,-0.5 Z"/></g>
<g><path style="opacity:1" fill="#272236" d="M 95.5,53.5 C 95.5,67.5 95.5,81.5 95.5,95.5C 81.1667,95.5 66.8333,95.5 52.5,95.5C 76.0457,90.9546 90.379,76.9546 95.5,53.5 Z"/></g>
<g><path style="opacity:1" fill="#272336" d="M -0.5,53.5 C 4.5,76.5 18.5,90.5 41.5,95.5C 27.5,95.5 13.5,95.5 -0.5,95.5C -0.5,81.5 -0.5,67.5 -0.5,53.5 Z"/></g>
<g><path style="opacity:1" fill="#f8f7f8" d="M 42.5,-0.5 C 45.8333,-0.5 49.1667,-0.5 52.5,-0.5C 76.9234,4.2572 91.2568,18.9239 95.5,43.5C 95.5,46.8333 95.5,50.1667 95.5,53.5C 90.379,76.9546 76.0457,90.9546 52.5,95.5C 48.8333,95.5 45.1667,95.5 41.5,95.5C 18.5,90.5 4.5,76.5 -0.5,53.5C -0.5,49.1667 -0.5,44.8333 -0.5,40.5C 5.03164,17.6357 19.365,3.96899 42.5,-0.5 Z"/></g>
<g><path style="opacity:1" fill="#d2d0d6" d="M 78.5,20.5 C 91.809,38.3238 91.809,56.1571 78.5,74C 77.0347,74.6013 76.0347,74.1013 75.5,72.5C 84.8953,60.512 86.8953,47.512 81.5,33.5C 79.7788,29.7274 77.7788,26.0608 75.5,22.5C 76.0047,21.0815 77.0047,20.4148 78.5,20.5 Z"/></g>
<g><path style="opacity:1" fill="#d1cfd6" d="M 14.5,30.5 C 7.89398,45.4259 9.56064,59.4259 19.5,72.5C 18.7232,74.5385 17.5565,75.2052 16,74.5C 4.27908,58.0725 3.44574,41.0725 13.5,23.5C 14.8149,22.5244 16.1482,21.5244 17.5,20.5C 18.5,20.8333 19.1667,21.5 19.5,22.5C 17.8067,25.1841 16.14,27.8508 14.5,30.5 Z"/></g>
<g><path style="opacity:1" fill="#272336" d="M 80.5,18.5 C 94.9272,37.7038 95.0939,57.0371 81,76.5C 61.9519,94.222 41.4519,96.0553 19.5,82C 4.50965,68.0762 0.00964519,51.2429 6,31.5C 7.44422,27.5891 9.61089,24.2558 12.5,21.5C 13.3382,21.8417 13.6716,22.5084 13.5,23.5C 3.44574,41.0725 4.27908,58.0725 16,74.5C 17.5565,75.2052 18.7232,74.5385 19.5,72.5C 9.56064,59.4259 7.89398,45.4259 14.5,30.5C 14.3359,33.1873 14.5026,35.854 15,38.5C 15.4828,37.552 15.6495,36.552 15.5,35.5C 19.8333,35.5 24.1667,35.5 28.5,35.5C 28.4021,33.4471 29.0687,31.7804 30.5,30.5C 30.5,32.5 30.5,34.5 30.5,36.5C 32.4672,36.2606 34.3005,36.5939 36,37.5C 36.6667,44.8333 36.6667,52.1667 36,59.5C 32.3395,59.8981 30.5062,61.8981 30.5,65.5C 33.5,65.5 36.5,65.5 39.5,65.5C 39.5,68.1667 39.5,70.8333 39.5,73.5C 41.1667,73.5 42.8333,73.5 44.5,73.5C 44.5,70.8333 44.5,68.1667 44.5,65.5C 45.5,65.5 46.5,65.5 47.5,65.5C 47.5,68.1667 47.5,70.8333 47.5,73.5C 49.1667,73.5 50.8333,73.5 52.5,73.5C 52.5,70.8333 52.5,68.1667 52.5,65.5C 63.0419,66.4606 67.5419,61.7939 66,51.5C 64.8333,49 63,47.1667 60.5,46C 63.0414,44.1516 64.0414,41.6516 63.5,38.5C 64.1174,38.6107 64.6174,38.944 65,39.5C 69.8125,35.7462 75.1458,34.7462 81,36.5C 81.4828,35.552 81.6495,34.552 81.5,33.5C 86.8953,47.512 84.8953,60.512 75.5,72.5C 76.0347,74.1013 77.0347,74.6013 78.5,74C 91.809,56.1571 91.809,38.3238 78.5,20.5C 78.8333,19.5 79.5,18.8333 80.5,18.5 Z"/></g>
<g><path style="opacity:1" fill="#d0ced5" d="M 21.5,75.5 C 38.4879,87.457 55.4879,87.457 72.5,75.5C 73.5,75.8333 74.1667,76.5 74.5,77.5C 69.3839,83.0611 63.0505,86.5611 55.5,88C 41.8921,90.2659 29.8921,86.9326 19.5,78C 20.3805,77.2917 21.0472,76.4584 21.5,75.5 Z"/></g>
<g><path style="opacity:1" fill="#fbfafb" d="M 63.5,38.5 C 64.0414,41.6516 63.0414,44.1516 60.5,46C 63,47.1667 64.8333,49 66,51.5C 67.5419,61.7939 63.0419,66.4606 52.5,65.5C 52.5,68.1667 52.5,70.8333 52.5,73.5C 50.8333,73.5 49.1667,73.5 47.5,73.5C 47.5,70.8333 47.5,68.1667 47.5,65.5C 46.5,65.5 45.5,65.5 44.5,65.5C 44.5,68.1667 44.5,70.8333 44.5,73.5C 42.8333,73.5 41.1667,73.5 39.5,73.5C 39.5,70.8333 39.5,68.1667 39.5,65.5C 36.5,65.5 33.5,65.5 30.5,65.5C 30.5062,61.8981 32.3395,59.8981 36,59.5C 36.6667,52.1667 36.6667,44.8333 36,37.5C 34.3005,36.5939 32.4672,36.2606 30.5,36.5C 30.5,34.5 30.5,32.5 30.5,30.5C 33.5,30.5 36.5,30.5 39.5,30.5C 39.5,28.1667 39.5,25.8333 39.5,23.5C 41.1667,23.5 42.8333,23.5 44.5,23.5C 44.5,25.8333 44.5,28.1667 44.5,30.5C 45.5,30.5 46.5,30.5 47.5,30.5C 47.5,28.1667 47.5,25.8333 47.5,23.5C 49.1667,23.5 50.8333,23.5 52.5,23.5C 52.1924,25.924 52.5258,28.2573 53.5,30.5C 58.8935,30.8346 62.2268,33.5013 63.5,38.5 Z"/></g>
<g><path style="opacity:1" fill="#282336" d="M 44.5,50.5 C 47.5184,50.3354 50.5184,50.502 53.5,51C 57.7948,52.8451 58.4615,55.5118 55.5,59C 51.9399,60.2367 48.2733,60.7367 44.5,60.5C 44.5,57.1667 44.5,53.8333 44.5,50.5 Z"/></g>
<g><path style="opacity:1" fill="#272335" d="M 44.5,36.5 C 47.1873,36.3359 49.854,36.5026 52.5,37C 56.6586,40.1985 56.3253,42.8652 51.5,45C 49.1902,45.4966 46.8568,45.6633 44.5,45.5C 44.5,42.5 44.5,39.5 44.5,36.5 Z"/></g>
<g><path style="opacity:1" fill="#2f253e" d="M 80.5,18.5 C 79.5,18.8333 78.8333,19.5 78.5,20.5C 77.0047,20.4148 76.0047,21.0815 75.5,22.5C 77.7788,26.0608 79.7788,29.7274 81.5,33.5C 81.6495,34.552 81.4828,35.552 81,36.5C 75.1458,34.7462 69.8125,35.7462 65,39.5C 64.6174,38.944 64.1174,38.6107 63.5,38.5C 62.2268,33.5013 58.8935,30.8346 53.5,30.5C 52.5258,28.2573 52.1924,25.924 52.5,23.5C 50.8333,23.5 49.1667,23.5 47.5,23.5C 47.5,25.8333 47.5,28.1667 47.5,30.5C 46.5,30.5 45.5,30.5 44.5,30.5C 44.5,28.1667 44.5,25.8333 44.5,23.5C 42.8333,23.5 41.1667,23.5 39.5,23.5C 39.5,25.8333 39.5,28.1667 39.5,30.5C 36.5,30.5 33.5,30.5 30.5,30.5C 29.0687,31.7804 28.4021,33.4471 28.5,35.5C 24.1667,35.5 19.8333,35.5 15.5,35.5C 15.6495,36.552 15.4828,37.552 15,38.5C 14.5026,35.854 14.3359,33.1873 14.5,30.5C 16.14,27.8508 17.8067,25.1841 19.5,22.5C 19.1667,21.5 18.5,20.8333 17.5,20.5C 16.1482,21.5244 14.8149,22.5244 13.5,23.5C 13.6716,22.5084 13.3382,21.8417 12.5,21.5C 20.6903,9.6505 32.1903,3.6505 47,3.5C 60.3946,3.78519 71.5613,8.78519 80.5,18.5 Z"/></g>
<g><path style="opacity:1" fill="#d1cfd6" d="M 40.5,6.5 C 53.6261,4.98732 64.9594,8.65398 74.5,17.5C 74.1667,18.5 73.5,19.1667 72.5,19.5C 55.8333,7.5 39.1667,7.5 22.5,19.5C 21.5,19.1667 20.8333,18.5 20.5,17.5C 26.0477,11.7276 32.7144,8.06089 40.5,6.5 Z"/></g>
</svg>
