<?xml version="1.0" encoding="UTF-8"?>
<!DOCTYPE svg PUBLIC "-//W3C//DTD SVG 1.1//EN" "http://www.w3.org/Graphics/SVG/1.1/DTD/svg11.dtd">
<svg xmlns="http://www.w3.org/2000/svg" version="1.1" width="96px" height="96px" style="shape-rendering:geometricPrecision; text-rendering:geometricPrecision; image-rendering:optimizeQuality; fill-rule:evenodd; clip-rule:evenodd" xmlns:xlink="http://www.w3.org/1999/xlink">
<g><path style="opacity:0.915" fill="#d98b31" d="M 37.5,-0.5 C 44.1667,-0.5 50.8333,-0.5 57.5,-0.5C 77.1667,5.16667 89.8333,17.8333 95.5,37.5C 95.5,44.1667 95.5,50.8333 95.5,57.5C 89.807,77.193 77.1403,89.8597 57.5,95.5C 50.8333,95.5 44.1667,95.5 37.5,95.5C 17.8333,89.8333 5.16667,77.1667 -0.5,57.5C -0.5,50.8333 -0.5,44.1667 -0.5,37.5C 5.16667,17.8333 17.8333,5.16667 37.5,-0.5 Z"/></g>
<g><path style="opacity:1" fill="#060301" d="M 38.5,7.5 C 62.7458,5.36453 78.9125,15.6979 87,38.5C 89.795,64.4333 78.6283,80.5999 53.5,87C 31.9999,88.6648 17.1666,79.4981 9,59.5C 4.07566,33.6728 13.909,16.3394 38.5,7.5 Z"/></g>
<g><path style="opacity:0.988" fill="#684317" d="M 59.5,24.5 C 55.6286,24.185 51.9619,24.5184 48.5,25.5C 47.9569,25.44 47.6236,25.1067 47.5,24.5C 51.6493,23.1905 55.6493,23.1905 59.5,24.5 Z"/></g>
<g><path style="opacity:1" fill="#dc8d31" d="M 43.5,24.5 C 43.1697,31.5316 43.503,38.5316 44.5,45.5C 45.1067,45.3764 45.44,45.0431 45.5,44.5C 47.3863,43.6394 49.2196,42.6394 51,41.5C 51.6667,36.8333 51.6667,32.1667 51,27.5C 50.0053,26.9341 49.172,26.2674 48.5,25.5C 51.9619,24.5184 55.6286,24.185 59.5,24.5C 59.3334,38.8372 59.5001,53.1705 60,67.5C 60.8333,68.3333 61.6667,69.1667 62.5,70C 58.8484,70.4986 55.1817,70.6653 51.5,70.5C 51.8303,63.4684 51.497,56.4684 50.5,49.5C 48.2011,50.6351 46.0344,51.9684 44,53.5C 43.3333,58.1667 43.3333,62.8333 44,67.5C 44.7083,68.3805 45.5416,69.0472 46.5,69.5C 43.0381,70.4816 39.3714,70.815 35.5,70.5C 35.6666,56.1628 35.4999,41.8295 35,27.5C 34.1667,26.6667 33.3333,25.8333 32.5,25C 36.1516,24.5014 39.8183,24.3347 43.5,24.5 Z"/></g>
<g><path style="opacity:0.988" fill="#3b260d" d="M 43.5,24.5 C 44.1667,31.1667 44.8333,37.8333 45.5,44.5C 45.44,45.0431 45.1067,45.3764 44.5,45.5C 43.503,38.5316 43.1697,31.5316 43.5,24.5 Z"/></g>
<g><path style="opacity:1" fill="#553713" d="M 46.5,69.5 C 47.0431,69.56 47.3764,69.8933 47.5,70.5C 43.3507,71.8095 39.3507,71.8095 35.5,70.5C 39.3714,70.815 43.0381,70.4816 46.5,69.5 Z"/></g>
</svg>
