<?xml version="1.0" encoding="UTF-8"?>
<!DOCTYPE svg PUBLIC "-//W3C//DTD SVG 1.1//EN" "http://www.w3.org/Graphics/SVG/1.1/DTD/svg11.dtd">
<svg xmlns="http://www.w3.org/2000/svg" version="1.1" width="96px" height="96px" style="shape-rendering:geometricPrecision; text-rendering:geometricPrecision; image-rendering:optimizeQuality; fill-rule:evenodd; clip-rule:evenodd" xmlns:xlink="http://www.w3.org/1999/xlink">
<g><path style="opacity:0.999" fill="#fba727" d="M 77.5,11.5 C 77.735,16.8758 77.4017,22.2092 76.5,27.5C 78.8869,32.9281 81.2203,38.2615 83.5,43.5C 83.797,47.7675 83.4637,51.9341 82.5,56C 78.3087,56.0738 74.3087,56.9071 70.5,58.5C 67.6826,56.1833 65.0159,53.6833 62.5,51C 60.9751,49.9914 59.3084,49.4914 57.5,49.5C 57.3893,48.8826 57.056,48.3826 56.5,48C 53.1667,47.3333 49.8333,47.3333 46.5,48C 45.944,48.3826 45.6107,48.8826 45.5,49.5C 39.9923,50.1702 35.9923,53.0035 33.5,58C 32.0715,58.5791 30.7382,58.4124 29.5,57.5C 29.1583,56.6618 28.4916,56.3284 27.5,56.5C 25.5878,46.8445 26.5878,37.5112 30.5,28.5C 30.3767,27.0755 30.0434,25.7421 29.5,24.5C 31.4559,22.8861 33.4559,21.2194 35.5,19.5C 33.3295,17.9138 30.9962,16.5804 28.5,15.5C 27.7025,15.9569 27.3691,16.6236 27.5,17.5C 26.71,16.3915 26.21,15.0581 26,13.5C 25.6667,19.1667 25.3333,24.8333 25,30.5C 20.1457,37.8891 17.6457,45.8891 17.5,54.5C 16.4047,44.879 18.7381,36.2123 24.5,28.5C 22.9724,22.5317 23.3058,16.6983 25.5,11C 27.5527,10.6753 29.5527,11.0087 31.5,12C 34.5,13.8333 37.5,15.6667 40.5,17.5C 47.4805,16.2016 54.4805,16.2016 61.5,17.5C 65.2734,15.5699 68.9401,13.4033 72.5,11C 74.3869,10.2204 76.0536,10.3871 77.5,11.5 Z"/></g>
<g><path style="opacity:1" fill="#54291d" d="M 39.5,14.5 C 45.9567,14.693 52.6234,14.693 59.5,14.5C 60.8734,14.6567 62.2068,14.49 63.5,14C 67.7211,10.722 72.3878,8.22199 77.5,6.5C 79.3173,8.41609 80.484,10.7494 81,13.5C 81.3392,16.036 81.8392,18.536 82.5,21C 81.4826,23.7866 81.3159,26.62 82,29.5C 92.5275,45.9693 90.3608,60.3026 75.5,72.5C 73.965,71.6457 72.6316,71.6457 71.5,72.5C 57.8453,77.8322 44.1786,77.8322 30.5,72.5C 28.8525,70.6736 26.8525,69.3403 24.5,68.5C 22.9468,66.615 20.9468,65.615 18.5,65.5C 18.5,64.8333 18.1667,64.5 17.5,64.5C 18.1098,63.609 18.4431,62.609 18.5,61.5C 18.3284,60.5084 18.6618,59.8417 19.5,59.5C 24.7537,67.9673 32.4204,72.634 42.5,73.5C 56.9377,76.5761 69.7711,73.2428 81,63.5C 82.8448,61.1332 84.0114,58.4665 84.5,55.5C 85.647,51.3537 85.8136,47.0204 85,42.5C 82.8305,37.495 80.6638,32.495 78.5,27.5C 79.9136,21.9368 79.5802,16.6035 77.5,11.5C 76.0536,10.3871 74.3869,10.2204 72.5,11C 68.9401,13.4033 65.2734,15.5699 61.5,17.5C 54.4805,16.2016 47.4805,16.2016 40.5,17.5C 37.5,15.6667 34.5,13.8333 31.5,12C 29.5527,11.0087 27.5527,10.6753 25.5,11C 23.3058,16.6983 22.9724,22.5317 24.5,28.5C 18.7381,36.2123 16.4047,44.879 17.5,54.5C 17.5,55.1667 17.5,55.8333 17.5,56.5C 17.5654,56.9382 17.3988,57.2716 17,57.5C 16.6667,56.8333 16.3333,56.1667 16,55.5C 15.8195,52.3054 15.3195,49.3054 14.5,46.5C 15.4056,39.68 17.7389,33.3466 21.5,27.5C 20.003,20.3011 20.6696,13.3011 23.5,6.5C 29.699,7.59944 35.0324,10.2661 39.5,14.5 Z"/></g>
<g><path style="opacity:0.997" fill="#fef3e0" d="M 61.5,28.5 C 64.5959,27.9066 66.9292,28.9066 68.5,31.5C 65.3248,33.0911 61.9915,34.0911 58.5,34.5C 58.0283,31.6421 59.0283,29.6421 61.5,28.5 Z"/></g>
<g><path style="opacity:0.997" fill="#fef6e7" d="M 36.5,28.5 C 40.8827,27.7551 43.3827,29.4218 44,33.5C 43.4387,34.0219 42.772,34.3552 42,34.5C 39.5263,33.4238 37.0263,32.4238 34.5,31.5C 35.1925,30.4822 35.8592,29.4822 36.5,28.5 Z"/></g>
<g><path style="opacity:0.998" fill="#de7a1c" d="M 27.5,17.5 C 26.9898,20.3878 27.6565,22.7211 29.5,24.5C 30.0434,25.7421 30.3767,27.0755 30.5,28.5C 26.5878,37.5112 25.5878,46.8445 27.5,56.5C 24.5,56.5 21.5,56.5 18.5,56.5C 18.1667,56.5 17.8333,56.5 17.5,56.5C 17.5,55.8333 17.5,55.1667 17.5,54.5C 17.6457,45.8891 20.1457,37.8891 25,30.5C 25.3333,24.8333 25.6667,19.1667 26,13.5C 26.21,15.0581 26.71,16.3915 27.5,17.5 Z"/></g>
<g><path style="opacity:0.996" fill="#4a1e18" d="M 72.5,15.5 C 73.7647,16.5145 74.4313,18.0145 74.5,20C 74.1667,21.5 73.8333,23 73.5,24.5C 71.5065,22.5014 69.1732,21.0014 66.5,20C 68.6838,18.6366 70.6838,17.1366 72.5,15.5 Z"/></g>
<g><path style="opacity:0.996" fill="#522619" d="M 29.5,24.5 C 27.6565,22.7211 26.9898,20.3878 27.5,17.5C 27.3691,16.6236 27.7025,15.9569 28.5,15.5C 30.9962,16.5804 33.3295,17.9138 35.5,19.5C 33.4559,21.2194 31.4559,22.8861 29.5,24.5 Z"/></g>
<g><path style="opacity:0.616" fill="#674d36" d="M 59.5,14.5 C 52.6234,14.693 45.9567,14.693 39.5,14.5C 46.309,13.2676 52.9756,13.2676 59.5,14.5 Z"/></g>
<g><path style="opacity:0.004" fill="#100000" d="M 40.5,12.5 C 41.8333,13.1667 41.8333,13.1667 40.5,12.5 Z"/></g>
<g><path style="opacity:0.996" fill="#e6dfc9" d="M 77.5,11.5 C 79.5802,16.6035 79.9136,21.9368 78.5,27.5C 80.6638,32.495 82.8305,37.495 85,42.5C 85.8136,47.0204 85.647,51.3537 84.5,55.5C 84.8168,51.2984 84.4834,47.2984 83.5,43.5C 81.2203,38.2615 78.8869,32.9281 76.5,27.5C 77.4017,22.2092 77.735,16.8758 77.5,11.5 Z"/></g>
<g><path style="opacity:1" fill="#54271a" d="M 33.5,35.5 C 40.0303,35.2435 42.197,38.2435 40,44.5C 36.7065,47.3112 33.7065,46.9779 31,43.5C 30.0182,40.2253 30.8515,37.5586 33.5,35.5 Z"/></g>
<g><path style="opacity:0.996" fill="#e1d7d6" d="M 36.5,37.5 C 38.9118,37.6941 39.9118,39.0274 39.5,41.5C 38.1667,41.5 36.8333,41.5 35.5,41.5C 35.4326,40.0413 35.7659,38.7079 36.5,37.5 Z"/></g>
<g><path style="opacity:0.996" fill="#491e17" d="M 64.5,35.5 C 70.9972,35.1799 73.1639,38.1799 71,44.5C 63.9622,47.8128 61.2955,45.4795 63,37.5C 63.7172,36.9558 64.2172,36.2891 64.5,35.5 Z"/></g>
<g><path style="opacity:0.996" fill="#e1d9d8" d="M 64.5,37.5 C 66.9118,37.6941 67.9118,39.0274 67.5,41.5C 66.1667,41.5 64.8333,41.5 63.5,41.5C 63.4326,40.0413 63.7659,38.7079 64.5,37.5 Z"/></g>
<g><path style="opacity:0.997" fill="#f9f7f5" d="M 83.5,43.5 C 84.4834,47.2984 84.8168,51.2984 84.5,55.5C 84.0114,58.4665 82.8448,61.1332 81,63.5C 69.7711,73.2428 56.9377,76.5761 42.5,73.5C 43.8734,73.6567 45.2068,73.49 46.5,73C 38.416,70.2528 32.0827,65.2528 27.5,58C 28.0944,57.5357 28.7611,57.369 29.5,57.5C 30.7382,58.4124 32.0715,58.5791 33.5,58C 35.9923,53.0035 39.9923,50.1702 45.5,49.5C 46.4787,51.1454 47.812,52.4787 49.5,53.5C 50.6967,58.4292 48.6967,60.5959 43.5,60C 42.9288,58.7949 42.2621,57.6283 41.5,56.5C 41.1667,57.1667 40.8333,57.8333 40.5,58.5C 46.9576,70.1463 53.9576,70.4796 61.5,59.5C 62.782,58.2918 62.782,56.9584 61.5,55.5C 60.8933,55.6236 60.56,55.9569 60.5,56.5C 59.4008,61.0726 56.9008,61.7393 53,58.5C 52.3333,56.8333 52.3333,55.1667 53,53.5C 54.9923,52.6719 56.4923,51.3386 57.5,49.5C 59.3084,49.4914 60.9751,49.9914 62.5,51C 65.0159,53.6833 67.6826,56.1833 70.5,58.5C 74.3087,56.9071 78.3087,56.0738 82.5,56C 83.4637,51.9341 83.797,47.7675 83.5,43.5 Z"/></g>
<g><path style="opacity:0.996" fill="#84716f" d="M 60.5,56.5 C 60.56,55.9569 60.8933,55.6236 61.5,55.5C 62.782,56.9584 62.782,58.2918 61.5,59.5C 61.7373,58.209 61.404,57.209 60.5,56.5 Z"/></g>
<g><path style="opacity:1" fill="#e92e4c" d="M 18.5,61.5 C 18.4431,62.609 18.1098,63.609 17.5,64.5C 14.065,63.8084 12.065,61.8084 11.5,58.5C 14.6753,57.9093 17.0087,58.9093 18.5,61.5 Z"/></g>
<g><path style="opacity:0.859" fill="#af9b87" d="M 9.5,62.5 C 11.0269,62.427 12.0269,63.0937 12.5,64.5C 10.9731,64.573 9.97306,63.9063 9.5,62.5 Z"/></g>
<g><path style="opacity:0.996" fill="#4d2219" d="M 57.5,49.5 C 56.4923,51.3386 54.9923,52.6719 53,53.5C 52.3333,55.1667 52.3333,56.8333 53,58.5C 56.9008,61.7393 59.4008,61.0726 60.5,56.5C 61.404,57.209 61.7373,58.209 61.5,59.5C 53.9576,70.4796 46.9576,70.1463 40.5,58.5C 40.8333,57.8333 41.1667,57.1667 41.5,56.5C 42.2621,57.6283 42.9288,58.7949 43.5,60C 48.6967,60.5959 50.6967,58.4292 49.5,53.5C 47.812,52.4787 46.4787,51.1454 45.5,49.5C 45.6107,48.8826 45.944,48.3826 46.5,48C 49.8333,47.3333 53.1667,47.3333 56.5,48C 57.056,48.3826 57.3893,48.8826 57.5,49.5 Z"/></g>
<g><path style="opacity:0.996" fill="#f46d84" d="M 47.5,62.5 C 49.8568,62.3367 52.1902,62.5034 54.5,63C 54.9574,63.414 55.2907,63.914 55.5,64.5C 52.8938,65.6517 50.2272,65.8184 47.5,65C 46.4019,64.2303 46.4019,63.397 47.5,62.5 Z"/></g>
<g><path style="opacity:0.996" fill="#efe5c7" d="M 18.5,56.5 C 21.5,56.5 24.5,56.5 27.5,56.5C 28.4916,56.3284 29.1583,56.6618 29.5,57.5C 28.7611,57.369 28.0944,57.5357 27.5,58C 32.0827,65.2528 38.416,70.2528 46.5,73C 45.2068,73.49 43.8734,73.6567 42.5,73.5C 32.4204,72.634 24.7537,67.9673 19.5,59.5C 18.8902,58.609 18.5569,57.609 18.5,56.5 Z"/></g>
<g><path style="opacity:0.996" fill="#eb2e4c" d="M 18.5,65.5 C 20.9468,65.615 22.9468,66.615 24.5,68.5C 24.4226,69.7498 23.756,70.5831 22.5,71C 13.1595,72.6295 11.8261,70.7962 18.5,65.5 Z"/></g>
<g><path style="opacity:1" fill="#56311e" d="M 14.5,46.5 C 15.3195,49.3054 15.8195,52.3054 16,55.5C 16.3333,56.1667 16.6667,56.8333 17,57.5C 17.3988,57.2716 17.5654,56.9382 17.5,56.5C 17.8333,56.5 18.1667,56.5 18.5,56.5C 18.5569,57.609 18.8902,58.609 19.5,59.5C 18.6618,59.8417 18.3284,60.5084 18.5,61.5C 17.0087,58.9093 14.6753,57.9093 11.5,58.5C 12.065,61.8084 14.065,63.8084 17.5,64.5C 18.1667,64.5 18.5,64.8333 18.5,65.5C 11.8261,70.7962 13.1595,72.6295 22.5,71C 23.756,70.5831 24.4226,69.7498 24.5,68.5C 26.8525,69.3403 28.8525,70.6736 30.5,72.5C 38.2808,82.0573 48.2808,86.0573 60.5,84.5C 63.5083,79.828 67.175,75.828 71.5,72.5C 72.6316,71.6457 73.965,71.6457 75.5,72.5C 72.5454,75.1156 69.5454,77.7823 66.5,80.5C 64.3773,82.7454 63.3773,85.4121 63.5,88.5C 48.5834,88.7907 36.0834,83.4574 26,72.5C 20.982,74.9155 15.8154,75.0821 10.5,73C 10.2616,70.4376 11.2616,68.1043 13.5,66C 12.944,65.6174 12.6107,65.1174 12.5,64.5C 12.0269,63.0937 11.0269,62.427 9.5,62.5C 7.68149,61.0638 7.34816,59.3971 8.5,57.5C 10.323,56.2528 12.323,55.5861 14.5,55.5C 14.5,52.5 14.5,49.5 14.5,46.5 Z"/></g>
<g><path style="opacity:0.996" fill="#e02b46" d="M 30.5,72.5 C 44.1786,77.8322 57.8453,77.8322 71.5,72.5C 67.175,75.828 63.5083,79.828 60.5,84.5C 48.2808,86.0573 38.2808,82.0573 30.5,72.5 Z"/></g>
</svg>
