<?xml version="1.0" encoding="UTF-8"?>
<!DOCTYPE svg PUBLIC "-//W3C//DTD SVG 1.1//EN" "http://www.w3.org/Graphics/SVG/1.1/DTD/svg11.dtd">
<svg xmlns="http://www.w3.org/2000/svg" version="1.1" width="96px" height="96px" style="shape-rendering:geometricPrecision; text-rendering:geometricPrecision; image-rendering:optimizeQuality; fill-rule:evenodd; clip-rule:evenodd" xmlns:xlink="http://www.w3.org/1999/xlink">
<g><path style="opacity:0.979" fill="#3771ff" d="M 37.5,-0.5 C 44.1667,-0.5 50.8333,-0.5 57.5,-0.5C 77.1667,5.16667 89.8333,17.8333 95.5,37.5C 95.5,44.1667 95.5,50.8333 95.5,57.5C 89.8333,77.1667 77.1667,89.8333 57.5,95.5C 50.8333,95.5 44.1667,95.5 37.5,95.5C 17.8333,89.8333 5.16667,77.1667 -0.5,57.5C -0.5,50.8333 -0.5,44.1667 -0.5,37.5C 5.16667,17.8333 17.8333,5.16667 37.5,-0.5 Z"/></g>
<g><path style="opacity:1" fill="#b4caff" d="M 37.5,28.5 C 30.9779,28.1765 24.6446,28.5098 18.5,29.5C 17.9569,29.44 17.6236,29.1067 17.5,28.5C 24.3222,27.1819 30.9888,27.1819 37.5,28.5 Z"/></g>
<g><path style="opacity:1" fill="#b8ccff" d="M 58.5,28.5 C 64.6783,27.1826 71.0117,27.1826 77.5,28.5C 77.3764,29.1067 77.0431,29.44 76.5,29.5C 70.69,28.5104 64.69,28.1771 58.5,28.5 Z"/></g>
<g><path style="opacity:1" fill="#f4f7ff" d="M 37.5,28.5 C 40.4525,33.4503 43.7859,38.117 47.5,42.5C 51.1753,37.8031 54.8419,33.1364 58.5,28.5C 64.69,28.1771 70.69,28.5104 76.5,29.5C 75.8592,30.4822 75.1925,31.4822 74.5,32.5C 69.6171,33.1906 64.7838,33.8572 60,34.5C 59.3645,35.9663 58.5312,37.2997 57.5,38.5C 61.4592,39.3265 65.4592,39.8265 69.5,40C 68.7433,41.5122 67.7433,42.8455 66.5,44C 50.5623,41.8844 47.729,46.7177 58,58.5C 58.9945,72.073 53.1611,76.573 40.5,72C 34.6307,64.1175 35.464,56.9508 43,50.5C 43.8249,48.2992 43.3249,46.4659 41.5,45C 37.1667,44.6667 32.8333,44.3333 28.5,44C 27.2567,42.8455 26.2567,41.5122 25.5,40C 29.5408,39.8265 33.5408,39.3265 37.5,38.5C 36.4688,37.2997 35.6355,35.9663 35,34.5C 30.5855,33.6971 26.0855,33.1971 21.5,33C 20.2899,31.9609 19.2899,30.7942 18.5,29.5C 24.6446,28.5098 30.9779,28.1765 37.5,28.5 Z"/></g>
<g><path style="opacity:1" fill="#376fff" d="M 46.5,53.5 C 49.3462,55.4747 51.5129,58.1413 53,61.5C 53.1708,67.3132 50.3375,69.4798 44.5,68C 41.9133,66.4749 41.0799,64.3083 42,61.5C 43.7774,58.9406 45.2774,56.2739 46.5,53.5 Z"/></g>
</svg>
