<?xml version="1.0" encoding="UTF-8"?>
<!DOCTYPE svg PUBLIC "-//W3C//DTD SVG 1.1//EN" "http://www.w3.org/Graphics/SVG/1.1/DTD/svg11.dtd">
<svg xmlns="http://www.w3.org/2000/svg" version="1.1" width="96px" height="96px" style="shape-rendering:geometricPrecision; text-rendering:geometricPrecision; image-rendering:optimizeQuality; fill-rule:evenodd; clip-rule:evenodd" xmlns:xlink="http://www.w3.org/1999/xlink">
<g><path style="opacity:0.985" fill="#ffd709" d="M 37.5,-0.5 C 44.1667,-0.5 50.8333,-0.5 57.5,-0.5C 64.5182,1.50935 70.8515,4.84268 76.5,9.5C 70.1771,11.6681 64.0105,14.3348 58,17.5C 55.1316,22.8127 53.9649,28.4794 54.5,34.5C 49.8228,35.7042 45.1561,35.7042 40.5,34.5C 41.0351,28.4794 39.8684,22.8127 37,17.5C 30.7906,14.7158 24.624,12.0491 18.5,9.5C 24.1485,4.84268 30.4818,1.50935 37.5,-0.5 Z"/></g>
<g><path style="opacity:0.992" fill="#fffdf9" d="M 18.5,9.5 C 24.624,12.0491 30.7906,14.7158 37,17.5C 39.8684,22.8127 41.0351,28.4794 40.5,34.5C 45.1561,35.7042 49.8228,35.7042 54.5,34.5C 53.9649,28.4794 55.1316,22.8127 58,17.5C 64.0105,14.3348 70.1771,11.6681 76.5,9.5C 80.1002,11.4302 83.1002,14.0969 85.5,17.5C 77.6126,19.3224 69.6126,20.8224 61.5,22C 58.1175,25.4819 56.7841,29.6486 57.5,34.5C 66.8475,33.6926 72.1808,37.8593 73.5,47C 72.7576,54.8149 70.2576,61.9815 66,68.5C 64.8829,70.1243 63.3829,71.1243 61.5,71.5C 52.1667,68.8333 42.8333,68.8333 33.5,71.5C 31.6171,71.1243 30.1171,70.1243 29,68.5C 24.0168,60.8997 21.6835,52.5664 22,43.5C 24.9507,36.7721 30.1174,33.7721 37.5,34.5C 38.2159,29.6486 36.8825,25.4819 33.5,22C 25.4636,20.9957 17.4636,19.829 9.5,18.5C 11.5,14.5 14.5,11.5 18.5,9.5 Z"/></g>
<g><path style="opacity:0.988" fill="#ffd605" d="M 85.5,17.5 C 89.9258,23.685 93.2592,30.3516 95.5,37.5C 95.5,44.1667 95.5,50.8333 95.5,57.5C 89.8333,77.1667 77.1667,89.8333 57.5,95.5C 50.8333,95.5 44.1667,95.5 37.5,95.5C 17.8333,89.8333 5.16667,77.1667 -0.5,57.5C -0.5,50.8333 -0.5,44.1667 -0.5,37.5C 1.50935,30.4818 4.84268,24.1485 9.5,18.5C 17.4636,19.829 25.4636,20.9957 33.5,22C 36.8825,25.4819 38.2159,29.6486 37.5,34.5C 30.1174,33.7721 24.9507,36.7721 22,43.5C 21.6835,52.5664 24.0168,60.8997 29,68.5C 30.1171,70.1243 31.6171,71.1243 33.5,71.5C 42.8333,68.8333 52.1667,68.8333 61.5,71.5C 63.3829,71.1243 64.8829,70.1243 66,68.5C 70.2576,61.9815 72.7576,54.8149 73.5,47C 72.1808,37.8593 66.8475,33.6926 57.5,34.5C 56.7841,29.6486 58.1175,25.4819 61.5,22C 69.6126,20.8224 77.6126,19.3224 85.5,17.5 Z"/></g>
<g><path style="opacity:1" fill="#ffd61c" d="M 27.5,45.5 C 37.46,46.13 42.1266,51.4633 41.5,61.5C 33.4688,61.4993 27.8021,57.9993 24.5,51C 24.6132,48.6013 25.6132,46.7679 27.5,45.5 Z"/></g>
<g><path style="opacity:1" fill="#fff6d9" d="M 29.5,47.5 C 31.3464,47.2222 32.6798,47.8888 33.5,49.5C 32.277,50.6139 30.9437,50.7805 29.5,50C 28.4019,49.2303 28.4019,48.397 29.5,47.5 Z"/></g>
<g><path style="opacity:1" fill="#ffd618" d="M 62.5,45.5 C 68.6646,44.8293 71.1646,47.496 70,53.5C 65.7023,58.549 60.2023,61.2157 53.5,61.5C 52.899,54.0262 55.899,48.6928 62.5,45.5 Z"/></g>
<g><path style="opacity:1" fill="#fff6dc" d="M 62.5,47.5 C 66.9989,47.9353 67.3322,48.9353 63.5,50.5C 61.1966,50.1237 60.8632,49.1237 62.5,47.5 Z"/></g>
<g><path style="opacity:1" fill="#fffdf6" d="M 39.5,70.5 C 41.9775,70.0508 43.9775,70.7175 45.5,72.5C 42.8136,75.7242 41.6469,79.3909 42,83.5C 43.7508,84.5053 43.7508,85.1719 42,85.5C 36.6506,83.172 34.3172,79.172 35,73.5C 36.4087,72.2189 37.9087,71.2189 39.5,70.5 Z"/></g>
<g><path style="opacity:1" fill="#fffdf6" d="M 50.5,70.5 C 58.8201,69.6324 61.6535,72.9657 59,80.5C 57.1422,83.4122 54.6422,84.9122 51.5,85C 52.8045,84.196 53.4712,83.0293 53.5,81.5C 52.9366,78.1377 51.6033,75.1377 49.5,72.5C 49.8627,71.8165 50.1961,71.1499 50.5,70.5 Z"/></g>
</svg>
