<?xml version="1.0" encoding="UTF-8"?>
<!DOCTYPE svg PUBLIC "-//W3C//DTD SVG 1.1//EN" "http://www.w3.org/Graphics/SVG/1.1/DTD/svg11.dtd">
<svg xmlns="http://www.w3.org/2000/svg" version="1.1" width="96px" height="96px" style="shape-rendering:geometricPrecision; text-rendering:geometricPrecision; image-rendering:optimizeQuality; fill-rule:evenodd; clip-rule:evenodd" xmlns:xlink="http://www.w3.org/1999/xlink">
<g><path style="opacity:0.933" fill="#000000" d="M 39.5,72.5 C 37.0676,76.5235 34.7342,80.6902 32.5,85C 28.1287,85.8275 23.7953,85.6609 19.5,84.5C 20.4143,82.3359 21.581,80.3359 23,78.5C 25.532,69.071 28.3653,59.7377 31.5,50.5C 30.0594,47.8931 27.8927,46.2264 25,45.5C 21.5981,46.7259 18.0981,47.3926 14.5,47.5C 14.2764,51.2044 14.1097,54.871 14,58.5C 16.4973,62.1482 18.8307,61.8148 21,57.5C 21.9407,60.8147 22.774,64.148 23.5,67.5C 19.1833,69.5064 14.85,69.6731 10.5,68C 6.39475,63.1172 3.06142,57.7838 0.5,52C 2.17401,44.6144 3.34068,37.1144 4,29.5C 7.16667,25.6667 10.3333,21.8333 13.5,18C 17.4159,16.8976 21.4159,16.231 25.5,16C 29.9515,13.6906 34.4515,11.5239 39,9.5C 44.3163,12.2408 49.8163,14.5741 55.5,16.5C 55.7035,18.3904 55.0368,19.8904 53.5,21C 67.979,21.7118 80.8124,26.5452 92,35.5C 92.9312,42.4153 91.7646,48.9153 88.5,55C 90.8725,65.0631 92.8725,75.2298 94.5,85.5C 90.1161,85.8256 85.7828,85.4922 81.5,84.5C 81.9767,83.5224 82.6433,82.6891 83.5,82C 81.8726,79.2458 80.3726,76.4125 79,73.5C 77.6463,77.3628 77.1463,81.3628 77.5,85.5C 72.7863,85.8266 68.1196,85.4933 63.5,84.5C 63.8076,83.6919 64.3076,83.0253 65,82.5C 65.3333,76.5 65.6667,70.5 66,64.5C 67.4886,62.6682 69.322,61.8348 71.5,62C 73.3333,65.1667 75.1667,68.3333 77,71.5C 77.6543,72.6956 78.1543,72.6956 78.5,71.5C 76.8333,68.1667 75.1667,64.8333 73.5,61.5C 65.9219,60.9859 58.4219,61.6526 51,63.5C 51.9597,70.8097 53.1263,78.143 54.5,85.5C 49.7863,85.8266 45.1196,85.4933 40.5,84.5C 41.1667,83.8333 41.8333,83.1667 42.5,82.5C 41.0906,79.2732 40.0906,75.9399 39.5,72.5 Z M 39.5,72.5 C 40.4202,69.492 41.7535,66.6587 43.5,64C 45.1667,63.3333 46.8333,63.3333 48.5,64C 47.1667,64.3333 45.8333,64.6667 44.5,65C 43.1819,67.8239 41.5152,70.3239 39.5,72.5 Z"/></g>
</svg>
