<?xml version="1.0" encoding="UTF-8"?>
<!DOCTYPE svg PUBLIC "-//W3C//DTD SVG 1.1//EN" "http://www.w3.org/Graphics/SVG/1.1/DTD/svg11.dtd">
<svg xmlns="http://www.w3.org/2000/svg" version="1.1" width="96px" height="96px" style="shape-rendering:geometricPrecision; text-rendering:geometricPrecision; image-rendering:optimizeQuality; fill-rule:evenodd; clip-rule:evenodd" xmlns:xlink="http://www.w3.org/1999/xlink">
<g><path style="opacity:0.991" fill="#f8fafa" d="M 61.5,1.5 C 63.9653,1.76697 66.2986,2.43363 68.5,3.5C 67.8902,4.39105 67.5569,5.39105 67.5,6.5C 62.5596,15.2801 57.3929,23.9468 52,32.5C 51.2599,33.7494 51.4265,34.7494 52.5,35.5C 56.5,42.5 60.5,49.5 64.5,56.5C 64.9321,57.7095 65.5987,58.7095 66.5,59.5C 68.8483,63.5355 71.1816,67.5355 73.5,71.5C 75.4726,75.457 77.8059,79.1237 80.5,82.5C 79.1092,84.8903 77.1092,86.5569 74.5,87.5C 74.5,86.8333 74.1667,86.5 73.5,86.5C 68.9191,76.997 63.5857,67.997 57.5,59.5C 57.5,59.1667 57.5,58.8333 57.5,58.5C 38.674,57.503 19.674,57.1697 0.5,57.5C 0.166667,57.5 -0.166667,57.5 -0.5,57.5C -0.5,55.1667 -0.5,52.8333 -0.5,50.5C -0.166667,50.5 0.166667,50.5 0.5,50.5C 11.1667,50.5 21.8333,50.5 32.5,50.5C 37.5567,44.0752 41.89,37.0752 45.5,29.5C 46.4013,28.7095 47.0679,27.7095 47.5,26.5C 49.8333,22.5 52.1667,18.5 54.5,14.5C 57.1002,10.299 59.4335,5.96564 61.5,1.5 Z"/></g>
<g><path style="opacity:1" fill="#192c3d" d="M 54.5,-0.5 C 55.5,-0.5 56.5,-0.5 57.5,-0.5C 58.8333,0.166667 60.1667,0.833333 61.5,1.5C 59.4335,5.96564 57.1002,10.299 54.5,14.5C 54.359,9.7491 54.359,4.7491 54.5,-0.5 Z"/></g>
<g><path style="opacity:1" fill="#677d8e" d="M 37.5,-0.5 C 42.8333,-0.5 48.1667,-0.5 53.5,-0.5C 44.0202,4.06977 34.3535,8.4031 24.5,12.5C 27.1667,8.83333 29.8333,5.16667 32.5,1.5C 34.3057,0.975875 35.9724,0.309209 37.5,-0.5 Z"/></g>
<g><path style="opacity:1" fill="#3e5465" d="M 53.5,-0.5 C 53.8333,-0.5 54.1667,-0.5 54.5,-0.5C 54.359,4.7491 54.359,9.7491 54.5,14.5C 52.1667,18.5 49.8333,22.5 47.5,26.5C 39.7101,21.9384 31.7101,17.9384 23.5,14.5C 23.3284,13.5084 23.6618,12.8417 24.5,12.5C 34.3535,8.4031 44.0202,4.06977 53.5,-0.5 Z"/></g>
<g><path style="opacity:1" fill="#77c4e8" d="M 68.5,3.5 C 76.084,7.08585 82.084,12.4192 86.5,19.5C 79.7839,21.6926 73.6172,25.026 68,29.5C 67.5045,27.5273 67.3379,25.5273 67.5,23.5C 67.6221,17.5844 67.6221,11.9178 67.5,6.5C 67.5569,5.39105 67.8902,4.39105 68.5,3.5 Z"/></g>
<g><path style="opacity:1" fill="#9eb2c4" d="M 19.5,8.5 C 20.7401,9.97297 21.7401,11.6396 22.5,13.5C 17.4122,18.7082 11.4122,22.3749 4.5,24.5C 8.13987,17.8611 13.1399,12.5278 19.5,8.5 Z"/></g>
<g><path style="opacity:1" fill="#287297" d="M 67.5,6.5 C 67.6221,11.9178 67.6221,17.5844 67.5,23.5C 66.5318,25.6074 66.1984,27.9407 66.5,30.5C 61.0927,30.6662 56.426,32.3328 52.5,35.5C 51.4265,34.7494 51.2599,33.7494 52,32.5C 57.3929,23.9468 62.5596,15.2801 67.5,6.5 Z"/></g>
<g><path style="opacity:1" fill="#687e8f" d="M 23.5,14.5 C 31.7101,17.9384 39.7101,21.9384 47.5,26.5C 47.0679,27.7095 46.4013,28.7095 45.5,29.5C 45.5654,29.0618 45.3988,28.7284 45,28.5C 38.0857,32.5427 30.919,35.8761 23.5,38.5C 23.5,30.5 23.5,22.5 23.5,14.5 Z"/></g>
<g><path style="opacity:1" fill="#7f95a6" d="M 32.5,1.5 C 29.8333,5.16667 27.1667,8.83333 24.5,12.5C 23.6618,12.8417 23.3284,13.5084 23.5,14.5C 23.5,22.5 23.5,30.5 23.5,38.5C 23.5,38.8333 23.5,39.1667 23.5,39.5C 23.1667,39.5 22.8333,39.5 22.5,39.5C 16.0031,36.0859 9.66973,32.4192 3.5,28.5C 3.43255,27.0413 3.76589,25.7079 4.5,24.5C 11.4122,22.3749 17.4122,18.7082 22.5,13.5C 21.7401,11.6396 20.7401,9.97297 19.5,8.5C 23.0592,4.88458 27.3926,2.55124 32.5,1.5 Z"/></g>
<g><path style="opacity:1" fill="#57a6cb" d="M 86.5,19.5 C 86.5281,22.2514 87.5281,24.5847 89.5,26.5C 88.5488,31.7698 88.2154,37.1032 88.5,42.5C 80.9335,38.9349 73.6002,34.9349 66.5,30.5C 66.1984,27.9407 66.5318,25.6074 67.5,23.5C 67.3379,25.5273 67.5045,27.5273 68,29.5C 73.6172,25.026 79.7839,21.6926 86.5,19.5 Z"/></g>
<g><path style="opacity:1" fill="#a0b5c6" d="M 3.5,28.5 C 9.66973,32.4192 16.0031,36.0859 22.5,39.5C 15.1667,43.1667 7.83333,46.8333 0.5,50.5C 0.166667,50.5 -0.166667,50.5 -0.5,50.5C -0.5,46.1667 -0.5,41.8333 -0.5,37.5C 0.442336,34.3448 1.77567,31.3448 3.5,28.5 Z"/></g>
<g><path style="opacity:1" fill="#0b4769" d="M 66.5,30.5 C 65.8879,39.2969 65.2212,47.9636 64.5,56.5C 60.5,49.5 56.5,42.5 52.5,35.5C 56.426,32.3328 61.0927,30.6662 66.5,30.5 Z"/></g>
<g><path style="opacity:1" fill="#4591b6" d="M 66.5,30.5 C 73.6002,34.9349 80.9335,38.9349 88.5,42.5C 90.6257,43.1032 92.9591,43.1032 95.5,42.5C 95.5,47.5 95.5,52.5 95.5,57.5C 94.1305,61.4289 92.6305,65.4289 91,69.5C 89.7225,71.7472 88.2225,73.7472 86.5,75.5C 86.6699,66.6332 87.3366,57.7999 88.5,49C 88.1667,47.5 87.8333,46 87.5,44.5C 80.9663,48.8645 74.2996,53.0312 67.5,57C 66.7476,57.6708 66.4142,58.5041 66.5,59.5C 65.5987,58.7095 64.9321,57.7095 64.5,56.5C 65.2212,47.9636 65.8879,39.2969 66.5,30.5 Z"/></g>
<g><path style="opacity:1" fill="#7ac3e6" d="M 86.5,19.5 C 87.8846,20.5736 89.0513,21.9069 90,23.5C 92.1579,28.1587 93.9912,32.8254 95.5,37.5C 95.5,39.1667 95.5,40.8333 95.5,42.5C 92.9591,43.1032 90.6257,43.1032 88.5,42.5C 88.2154,37.1032 88.5488,31.7698 89.5,26.5C 87.5281,24.5847 86.5281,22.2514 86.5,19.5 Z"/></g>
<g><path style="opacity:1" fill="#243a4b" d="M 45.5,29.5 C 41.89,37.0752 37.5567,44.0752 32.5,50.5C 29.9015,46.562 26.9015,42.8953 23.5,39.5C 23.5,39.1667 23.5,38.8333 23.5,38.5C 30.919,35.8761 38.0857,32.5427 45,28.5C 45.3988,28.7284 45.5654,29.0618 45.5,29.5 Z"/></g>
<g><path style="opacity:1" fill="#4c6273" d="M 22.5,39.5 C 22.8333,39.5 23.1667,39.5 23.5,39.5C 26.9015,42.8953 29.9015,46.562 32.5,50.5C 21.8333,50.5 11.1667,50.5 0.5,50.5C 7.83333,46.8333 15.1667,43.1667 22.5,39.5 Z"/></g>
<g><path style="opacity:1" fill="#176286" d="M 86.5,75.5 C 86.6716,76.4916 86.3382,77.1583 85.5,77.5C 81.4215,74.7928 77.4215,72.7928 73.5,71.5C 71.1816,67.5355 68.8483,63.5355 66.5,59.5C 66.4142,58.5041 66.7476,57.6708 67.5,57C 74.2996,53.0312 80.9663,48.8645 87.5,44.5C 87.8333,46 88.1667,47.5 88.5,49C 87.3366,57.7999 86.6699,66.6332 86.5,75.5 Z"/></g>
<g><path style="opacity:1" fill="#092c45" d="M 0.5,58.5 C 4.51383,58.3345 8.51383,58.5012 12.5,59C 9.04085,60.7107 6.04085,62.8774 3.5,65.5C 3.5,64.8333 3.16667,64.5 2.5,64.5C 1.26162,62.7857 0.594955,60.7857 0.5,58.5 Z"/></g>
<g><path style="opacity:1" fill="#074a6d" d="M 32.5,59.5 C 40.6499,58.5073 48.9832,58.1739 57.5,58.5C 57.5,58.8333 57.5,59.1667 57.5,59.5C 56.3509,59.7911 55.6842,60.6244 55.5,62C 54.8844,65.53 54.2177,69.03 53.5,72.5C 52.8333,72.5 52.1667,72.5 51.5,72.5C 45.6957,67.4282 39.3624,63.0949 32.5,59.5 Z"/></g>
<g><path style="opacity:1" fill="#1c6488" d="M 0.5,58.5 C 0.5,58.1667 0.5,57.8333 0.5,57.5C 19.674,57.1697 38.674,57.503 57.5,58.5C 48.9832,58.1739 40.6499,58.5073 32.5,59.5C 31.5,59.5 30.5,59.5 29.5,59.5C 29.8261,68.0168 29.4927,76.3501 28.5,84.5C 28.1667,84.5 27.8333,84.5 27.5,84.5C 19.5,78.1667 11.5,71.8333 3.5,65.5C 6.04085,62.8774 9.04085,60.7107 12.5,59C 8.51383,58.5012 4.51383,58.3345 0.5,58.5 Z"/></g>
<g><path style="opacity:1" fill="#408fb4" d="M 32.5,59.5 C 39.3624,63.0949 45.6957,67.4282 51.5,72.5C 45.0657,76.892 38.399,81.0587 31.5,85C 30.2506,85.7401 29.2506,85.5735 28.5,84.5C 29.4927,76.3501 29.8261,68.0168 29.5,59.5C 30.5,59.5 31.5,59.5 32.5,59.5 Z"/></g>
<g><path style="opacity:1" fill="#58a6cb" d="M 51.5,72.5 C 52.1667,72.5 52.8333,72.5 53.5,72.5C 53.5,72.8333 53.5,73.1667 53.5,73.5C 53.4389,80.5254 53.4389,87.8587 53.5,95.5C 53.1667,95.5 52.8333,95.5 52.5,95.5C 45.4546,92.6385 38.2879,89.6385 31,86.5C 29.3413,87.8157 28.1746,89.4824 27.5,91.5C 22.8033,89.8225 18.8033,87.1558 15.5,83.5C 19.5191,83.6458 23.5191,83.9791 27.5,84.5C 27.8333,84.5 28.1667,84.5 28.5,84.5C 29.2506,85.5735 30.2506,85.7401 31.5,85C 38.399,81.0587 45.0657,76.892 51.5,72.5 Z"/></g>
<g><path style="opacity:1" fill="#0d3148" d="M 85.5,77.5 C 84.1667,79.5 82.5,81.1667 80.5,82.5C 77.8059,79.1237 75.4726,75.457 73.5,71.5C 77.4215,72.7928 81.4215,74.7928 85.5,77.5 Z"/></g>
<g><path style="opacity:1" fill="#2b759a" d="M 57.5,59.5 C 63.5857,67.997 68.9191,76.997 73.5,86.5C 73.5654,86.9382 73.3988,87.2716 73,87.5C 66.9116,82.2109 60.4116,77.5442 53.5,73.5C 53.5,73.1667 53.5,72.8333 53.5,72.5C 54.2177,69.03 54.8844,65.53 55.5,62C 55.6842,60.6244 56.3509,59.7911 57.5,59.5 Z"/></g>
<g><path style="opacity:1" fill="#438eb2" d="M 2.5,64.5 C 3.16667,64.5 3.5,64.8333 3.5,65.5C 11.5,71.8333 19.5,78.1667 27.5,84.5C 23.5191,83.9791 19.5191,83.6458 15.5,83.5C 9.17982,78.5154 4.84649,72.182 2.5,64.5 Z"/></g>
<g><path style="opacity:1" fill="#78c5ea" d="M 53.5,73.5 C 60.4116,77.5442 66.9116,82.2109 73,87.5C 73.3988,87.2716 73.5654,86.9382 73.5,86.5C 74.1667,86.5 74.5,86.8333 74.5,87.5C 69.3688,91.3207 63.7021,93.9873 57.5,95.5C 56.1667,95.5 54.8333,95.5 53.5,95.5C 53.4389,87.8587 53.4389,80.5254 53.5,73.5 Z"/></g>
<g><path style="opacity:1" fill="#78c4e8" d="M 52.5,95.5 C 47.5,95.5 42.5,95.5 37.5,95.5C 34.0982,94.3654 30.7649,93.0321 27.5,91.5C 28.1746,89.4824 29.3413,87.8157 31,86.5C 38.2879,89.6385 45.4546,92.6385 52.5,95.5 Z"/></g>
</svg>
