<?xml version="1.0" encoding="UTF-8"?>
<!DOCTYPE svg PUBLIC "-//W3C//DTD SVG 1.1//EN" "http://www.w3.org/Graphics/SVG/1.1/DTD/svg11.dtd">
<svg xmlns="http://www.w3.org/2000/svg" version="1.1" width="96px" height="96px" style="shape-rendering:geometricPrecision; text-rendering:geometricPrecision; image-rendering:optimizeQuality; fill-rule:evenodd; clip-rule:evenodd" xmlns:xlink="http://www.w3.org/1999/xlink">
<g><path style="opacity:1" fill="#000000" d="M -0.5,-0.5 C 31.5,-0.5 63.5,-0.5 95.5,-0.5C 95.5,31.5 95.5,63.5 95.5,95.5C 63.5,95.5 31.5,95.5 -0.5,95.5C -0.5,63.5 -0.5,31.5 -0.5,-0.5 Z"/></g>
<g><path style="opacity:1" fill="#f3f3f3" d="M 25.5,18.5 C 40.1705,18.3334 54.8371,18.5001 69.5,19C 71.6238,20.1217 73.4571,21.6217 75,23.5C 76.6342,38.7406 76.9675,54.0739 76,69.5C 74.8783,71.6238 73.3783,73.4571 71.5,75C 56.2594,76.6342 40.9261,76.9675 25.5,76C 23.3762,74.8783 21.5429,73.3783 20,71.5C 18.3658,56.2594 18.0325,40.9261 19,25.5C 20.6941,22.6424 22.8607,20.309 25.5,18.5 Z"/></g>
<g><path style="opacity:1" fill="#000000" d="M 27.5,27.5 C 40.8333,27.5 54.1667,27.5 67.5,27.5C 67.5,40.8333 67.5,54.1667 67.5,67.5C 54.1667,67.5 40.8333,67.5 27.5,67.5C 27.5,54.1667 27.5,40.8333 27.5,27.5 Z"/></g>
</svg>
