<?xml version="1.0" encoding="UTF-8"?>
<!DOCTYPE svg PUBLIC "-//W3C//DTD SVG 1.1//EN" "http://www.w3.org/Graphics/SVG/1.1/DTD/svg11.dtd">
<svg xmlns="http://www.w3.org/2000/svg" version="1.1" width="96px" height="96px" style="shape-rendering:geometricPrecision; text-rendering:geometricPrecision; image-rendering:optimizeQuality; fill-rule:evenodd; clip-rule:evenodd" xmlns:xlink="http://www.w3.org/1999/xlink">
<g><path style="opacity:0.996" fill="#241c47" d="M 37.5,-0.5 C 44.1667,-0.5 50.8333,-0.5 57.5,-0.5C 77.1403,5.14032 89.807,17.807 95.5,37.5C 95.5,40.8333 95.5,44.1667 95.5,47.5C 89.5227,47.8565 83.5227,48.1899 77.5,48.5C 76.2519,47.9598 75.0852,47.2931 74,46.5C 74.2417,53.2391 73.4084,59.9058 71.5,66.5C 70.8333,66.5 70.1667,66.5 69.5,66.5C 66.5662,61.5646 62.8995,57.2313 58.5,53.5C 55.8333,52.1667 53.8333,50.1667 52.5,47.5C 56.2249,47.4628 57.5582,45.7962 56.5,42.5C 57.376,41.7492 58.376,41.2492 59.5,41C 57.8624,37.9429 56.5291,37.9429 55.5,41C 53.3333,41.5 52.5,40.6667 53,38.5C 53.414,38.9574 53.914,39.2907 54.5,39.5C 54.8333,38.5 55.1667,37.5 55.5,36.5C 52.772,29.3333 47.4387,26 39.5,26.5C 39.1583,25.6618 38.4916,25.3284 37.5,25.5C 37.5,25.1667 37.5,24.8333 37.5,24.5C 39.4241,24.2893 39.7574,23.6226 38.5,22.5C 37.7659,21.2921 37.4326,19.9587 37.5,18.5C 31.1667,18.5 24.8333,18.5 18.5,18.5C 18.5,24.8333 18.5,31.1667 18.5,37.5C 19.5,37.5 20.5,37.5 21.5,37.5C 21.2011,39.604 21.5344,41.604 22.5,43.5C 23.3081,43.1924 23.9747,42.6924 24.5,42C 23.5868,40.5861 23.5868,39.0861 24.5,37.5C 25.2223,38.5511 26.2223,39.2178 27.5,39.5C 27.5774,40.7498 28.244,41.5831 29.5,42C 29.2734,44.369 29.1067,46.869 29,49.5C 25.9746,48.2092 25.6413,48.8758 28,51.5C 28.6891,52.3567 29.5224,53.0233 30.5,53.5C 30.9976,52.3966 31.3309,51.3966 31.5,50.5C 32.7362,51.2458 34.0695,51.5792 35.5,51.5C 35.238,52.9778 35.5713,54.3112 36.5,55.5C 39.5401,56.8426 42.5401,58.1759 45.5,59.5C 48.0103,58.6578 48.677,57.1578 47.5,55C 48.0944,54.5357 48.7611,54.369 49.5,54.5C 51.5,55.1667 52.8333,56.5 53.5,58.5C 56.5947,62.2674 60.2614,65.2674 64.5,67.5C 65.1667,68.8333 65.8333,70.1667 66.5,71.5C 60.1176,73.3993 53.4509,74.0659 46.5,73.5C 46.1667,69.5 45.8333,69.5 45.5,73.5C 38.4921,73.3337 31.4921,73.5004 24.5,74C 23.6077,79.2856 23.2743,84.4522 23.5,89.5C 11.2984,81.9676 3.29836,71.3009 -0.5,57.5C -0.5,50.8333 -0.5,44.1667 -0.5,37.5C 5.193,17.807 17.8597,5.14032 37.5,-0.5 Z"/></g>
<g><path style="opacity:1" fill="#8e8acd" d="M 38.5,22.5 C 37.6618,22.8417 37.3284,23.5084 37.5,24.5C 37.5,24.8333 37.5,25.1667 37.5,25.5C 36.5655,24.4324 36.2322,23.099 36.5,21.5C 31.2649,19.55 25.5982,18.8833 19.5,19.5C 19.5,23.8333 19.5,28.1667 19.5,32.5C 19.5,33.8333 19.5,35.1667 19.5,36.5C 21.924,36.1924 24.2573,36.5258 26.5,37.5C 28.9749,37.9642 30.9749,38.9642 32.5,40.5C 32.5,40.8333 32.5,41.1667 32.5,41.5C 31.2209,40.032 29.5542,39.3653 27.5,39.5C 26.2223,39.2178 25.2223,38.5511 24.5,37.5C 23.5,37.5 22.5,37.5 21.5,37.5C 20.5,37.5 19.5,37.5 18.5,37.5C 18.5,31.1667 18.5,24.8333 18.5,18.5C 24.8333,18.5 31.1667,18.5 37.5,18.5C 37.4326,19.9587 37.7659,21.2921 38.5,22.5 Z"/></g>
<g><path style="opacity:1" fill="#d2c641" d="M 38.5,22.5 C 39.7574,23.6226 39.4241,24.2893 37.5,24.5C 37.3284,23.5084 37.6618,22.8417 38.5,22.5 Z"/></g>
<g><path style="opacity:1" fill="#8d8afa" d="M 36.5,21.5 C 34.7973,20.3398 34.1307,21.0065 34.5,23.5C 31.4281,23.1826 28.4281,23.5159 25.5,24.5C 27.7427,25.4742 30.076,25.8076 32.5,25.5C 32.8844,27.9294 33.551,30.2627 34.5,32.5C 32.8235,33.1834 32.1568,34.5168 32.5,36.5C 28.0298,35.5092 23.6965,34.1758 19.5,32.5C 19.5,28.1667 19.5,23.8333 19.5,19.5C 25.5982,18.8833 31.2649,19.55 36.5,21.5 Z"/></g>
<g><path style="opacity:1" fill="#9088bc" d="M 37.5,25.5 C 38.4916,25.3284 39.1583,25.6618 39.5,26.5C 39.5,27.5 39.5,28.5 39.5,29.5C 46.1344,29.6768 46.1344,30.1768 39.5,31C 40.4158,31.2784 41.0825,31.7784 41.5,32.5C 40.5,32.5 39.5,32.5 38.5,32.5C 38.702,30.0504 38.3686,27.717 37.5,25.5 Z"/></g>
<g><path style="opacity:1" fill="#3833c6" d="M 19.5,32.5 C 23.6965,34.1758 28.0298,35.5092 32.5,36.5C 32.1568,34.5168 32.8235,33.1834 34.5,32.5C 34.5,34.5 34.5,36.5 34.5,38.5C 35.9778,38.238 37.3112,38.5713 38.5,39.5C 36.604,40.4656 34.604,40.7989 32.5,40.5C 30.9749,38.9642 28.9749,37.9642 26.5,37.5C 24.2573,36.5258 21.924,36.1924 19.5,36.5C 19.5,35.1667 19.5,33.8333 19.5,32.5 Z"/></g>
<g><path style="opacity:1" fill="#edeaed" d="M 41.5,32.5 C 44.4135,33.9061 46.9135,35.9061 49,38.5C 49.6514,40.235 49.4847,41.9017 48.5,43.5C 49.2739,44.7112 50.1072,44.7112 51,43.5C 51.5791,44.9285 51.4124,46.2618 50.5,47.5C 45.7109,43.489 42.7109,38.489 41.5,32.5 Z"/></g>
<g><path style="opacity:1" fill="#f4d772" d="M 39.5,26.5 C 47.4387,26 52.772,29.3333 55.5,36.5C 55.1667,37.5 54.8333,38.5 54.5,39.5C 53.914,39.2907 53.414,38.9574 53,38.5C 52.5,40.6667 53.3333,41.5 55.5,41C 56.5291,37.9429 57.8624,37.9429 59.5,41C 58.376,41.2492 57.376,41.7492 56.5,42.5C 57.5582,45.7962 56.2249,47.4628 52.5,47.5C 51.8333,47.5 51.1667,47.5 50.5,47.5C 51.4124,46.2618 51.5791,44.9285 51,43.5C 50.1072,44.7112 49.2739,44.7112 48.5,43.5C 49.4847,41.9017 49.6514,40.235 49,38.5C 46.9135,35.9061 44.4135,33.9061 41.5,32.5C 41.0825,31.7784 40.4158,31.2784 39.5,31C 46.1344,30.1768 46.1344,29.6768 39.5,29.5C 39.5,28.5 39.5,27.5 39.5,26.5 Z"/></g>
<g><path style="opacity:1" fill="#e0c252" d="M 21.5,37.5 C 22.5,37.5 23.5,37.5 24.5,37.5C 23.5868,39.0861 23.5868,40.5861 24.5,42C 23.9747,42.6924 23.3081,43.1924 22.5,43.5C 21.5344,41.604 21.2011,39.604 21.5,37.5 Z"/></g>
<g><path style="opacity:1" fill="#f8f7f8" d="M 32.5,41.5 C 34.604,41.2011 36.604,41.5344 38.5,42.5C 42.5219,45.5256 46.1886,48.859 49.5,52.5C 47.857,52.5198 46.5237,51.8532 45.5,50.5C 38.998,53.5452 34.6646,51.5452 32.5,44.5C 33.7914,43.4728 33.7914,42.4728 32.5,41.5 Z"/></g>
<g><path style="opacity:1" fill="#aa9155" d="M 62.5,46.5 C 63.7759,47.3864 63.7759,48.3864 62.5,49.5C 61.4376,48.5754 61.4376,47.5754 62.5,46.5 Z"/></g>
<g><path style="opacity:1" fill="#ebc764" d="M 27.5,39.5 C 29.5542,39.3653 31.2209,40.032 32.5,41.5C 33.7914,42.4728 33.7914,43.4728 32.5,44.5C 34.6646,51.5452 38.998,53.5452 45.5,50.5C 46.5237,51.8532 47.857,52.5198 49.5,52.5C 49.5,53.1667 49.5,53.8333 49.5,54.5C 48.7611,54.369 48.0944,54.5357 47.5,55C 48.677,57.1578 48.0103,58.6578 45.5,59.5C 42.5401,58.1759 39.5401,56.8426 36.5,55.5C 35.5713,54.3112 35.238,52.9778 35.5,51.5C 34.0695,51.5792 32.7362,51.2458 31.5,50.5C 31.3309,51.3966 30.9976,52.3966 30.5,53.5C 29.5224,53.0233 28.6891,52.3567 28,51.5C 25.6413,48.8758 25.9746,48.2092 29,49.5C 29.1067,46.869 29.2734,44.369 29.5,42C 28.244,41.5831 27.5774,40.7498 27.5,39.5 Z"/></g>
<g><path style="opacity:1" fill="#918fcc" d="M 58.5,53.5 C 62.8995,57.2313 66.5662,61.5646 69.5,66.5C 65.8955,63.3985 62.3955,60.0651 59,56.5C 58.5172,55.552 58.3505,54.552 58.5,53.5 Z"/></g>
<g><path style="opacity:1" fill="#7e7db0" d="M 53.5,58.5 C 57.7386,60.7326 61.4053,63.7326 64.5,67.5C 60.2614,65.2674 56.5947,62.2674 53.5,58.5 Z"/></g>
<g><path style="opacity:1" fill="#6661ea" d="M 36.5,21.5 C 36.2322,23.099 36.5655,24.4324 37.5,25.5C 38.3686,27.717 38.702,30.0504 38.5,32.5C 39.5,32.5 40.5,32.5 41.5,32.5C 42.7109,38.489 45.7109,43.489 50.5,47.5C 51.1667,47.5 51.8333,47.5 52.5,47.5C 53.8333,50.1667 55.8333,52.1667 58.5,53.5C 58.3505,54.552 58.5172,55.552 59,56.5C 62.3955,60.0651 65.8955,63.3985 69.5,66.5C 71.1271,68.6298 72.9604,70.6298 75,72.5C 75.4828,73.448 75.6495,74.448 75.5,75.5C 72.2862,74.6124 69.2862,73.279 66.5,71.5C 65.8333,70.1667 65.1667,68.8333 64.5,67.5C 61.4053,63.7326 57.7386,60.7326 53.5,58.5C 52.8333,56.5 51.5,55.1667 49.5,54.5C 49.5,53.8333 49.5,53.1667 49.5,52.5C 46.1886,48.859 42.5219,45.5256 38.5,42.5C 36.604,41.5344 34.604,41.2011 32.5,41.5C 32.5,41.1667 32.5,40.8333 32.5,40.5C 34.604,40.7989 36.604,40.4656 38.5,39.5C 37.3112,38.5713 35.9778,38.238 34.5,38.5C 34.5,36.5 34.5,34.5 34.5,32.5C 33.551,30.2627 32.8844,27.9294 32.5,25.5C 30.076,25.8076 27.7427,25.4742 25.5,24.5C 28.4281,23.5159 31.4281,23.1826 34.5,23.5C 34.1307,21.0065 34.7973,20.3398 36.5,21.5 Z"/></g>
<g><path style="opacity:0.996" fill="#221b47" d="M 95.5,47.5 C 95.5,50.8333 95.5,54.1667 95.5,57.5C 89.807,77.193 77.1403,89.8597 57.5,95.5C 50.8333,95.5 44.1667,95.5 37.5,95.5C 32.6448,94.0759 27.9781,92.0759 23.5,89.5C 23.2743,84.4522 23.6077,79.2856 24.5,74C 31.4921,73.5004 38.4921,73.3337 45.5,73.5C 45.8333,69.5 46.1667,69.5 46.5,73.5C 53.4509,74.0659 60.1176,73.3993 66.5,71.5C 68.731,75.2505 72.0643,76.9171 76.5,76.5C 76.9171,72.0643 75.2505,68.731 71.5,66.5C 73.4084,59.9058 74.2417,53.2391 74,46.5C 75.0852,47.2931 76.2519,47.9598 77.5,48.5C 83.5227,48.1899 89.5227,47.8565 95.5,47.5 Z"/></g>
<g><path style="opacity:1" fill="#8483c0" d="M 69.5,66.5 C 70.1667,66.5 70.8333,66.5 71.5,66.5C 75.2505,68.731 76.9171,72.0643 76.5,76.5C 72.0643,76.9171 68.731,75.2505 66.5,71.5C 69.2862,73.279 72.2862,74.6124 75.5,75.5C 75.6495,74.448 75.4828,73.448 75,72.5C 72.9604,70.6298 71.1271,68.6298 69.5,66.5 Z"/></g>
</svg>
