<?xml version="1.0" encoding="UTF-8"?>
<!DOCTYPE svg PUBLIC "-//W3C//DTD SVG 1.1//EN" "http://www.w3.org/Graphics/SVG/1.1/DTD/svg11.dtd">
<svg xmlns="http://www.w3.org/2000/svg" version="1.1" width="96px" height="96px" style="shape-rendering:geometricPrecision; text-rendering:geometricPrecision; image-rendering:optimizeQuality; fill-rule:evenodd; clip-rule:evenodd" xmlns:xlink="http://www.w3.org/1999/xlink">
<g><path style="opacity:0.609" fill="#000000" d="M 30.5,21.5 C 36.5154,20.8026 42.1821,21.8026 47.5,24.5C 55.2747,20.2195 62.7747,20.5529 70,25.5C 74.4814,32.6821 74.6481,40.0155 70.5,47.5C 74.7694,55.2739 74.4361,62.7739 69.5,70C 62.3179,74.4814 54.9845,74.6481 47.5,70.5C 39.7261,74.7694 32.2261,74.4361 25,69.5C 20.5153,62.3181 20.3487,54.9847 24.5,47.5C 18.8632,36.785 20.8632,28.1184 30.5,21.5 Z M 30.5,24.5 C 35.2675,24.1908 39.9342,24.6908 44.5,26C 36.3333,30.1667 30.1667,36.3333 26,44.5C 24.5236,39.9241 24.1902,35.2574 25,30.5C 26.3597,27.9774 28.193,25.9774 30.5,24.5 Z M 53.5,24.5 C 68.9022,23.0786 74.0688,29.7453 69,44.5C 64.8333,36.3333 58.6667,30.1667 50.5,26C 51.7375,25.7679 52.7375,25.2679 53.5,24.5 Z M 59.5,58.5 C 62.2289,54.4615 62.8956,50.1282 61.5,45.5C 57.584,34.3746 50.2506,31.2079 39.5,36C 31.5,43.6667 31.5,51.3333 39.5,59C 41.4068,60.122 43.4068,60.9553 45.5,61.5C 50.1282,62.8956 54.4615,62.2289 58.5,59.5C 55.4105,62.9173 51.7439,65.584 47.5,67.5C 39.272,63.4413 32.772,57.4413 28,49.5C 28.1512,45.8396 29.4846,42.5063 32,39.5C 35.9123,34.9167 40.4123,31.0834 45.5,28C 49.1604,28.1512 52.4937,29.4846 55.5,32C 60.8719,36.1931 64.8719,41.3597 67.5,47.5C 67.2811,48.938 66.7811,50.2713 66,51.5C 64.2814,54.2879 62.1148,56.6212 59.5,58.5 Z M 52.5,37.5 C 41.8333,36.8333 36.8333,41.8333 37.5,52.5C 34.7775,39.889 39.7775,34.889 52.5,37.5 Z M 25.5,50.5 C 29.9773,58.4761 36.3106,64.6428 44.5,69C 27.8755,73.543 21.5421,67.3763 25.5,50.5 Z M 68.5,50.5 C 73.6422,67.1933 67.6422,73.36 50.5,69C 58.7388,64.929 64.7388,58.7623 68.5,50.5 Z"/></g>
<g><path style="opacity:0.694" fill="#07080c" d="M 61.5,45.5 C 61.1667,55.8333 55.8333,61.1667 45.5,61.5C 43.4068,60.9553 41.4068,60.122 39.5,59C 31.5,51.3333 31.5,43.6667 39.5,36C 50.2506,31.2079 57.584,34.3746 61.5,45.5 Z M 52.5,37.5 C 41.8333,36.8333 36.8333,41.8333 37.5,52.5C 34.7775,39.889 39.7775,34.889 52.5,37.5 Z"/></g>
<g><path style="opacity:1" fill="#a3b2f8" d="M 52.5,37.5 C 59.4594,40.89 61.2927,46.2233 58,53.5C 53.651,59.2838 48.151,60.7838 41.5,58C 39.5612,56.5679 38.2279,54.7346 37.5,52.5C 36.8333,41.8333 41.8333,36.8333 52.5,37.5 Z"/></g>
<g><path style="opacity:1" fill="#14151c" d="M 45.5,40.5 C 53.0182,40.8875 55.5182,44.5542 53,51.5C 47.0225,56.102 42.8559,54.7686 40.5,47.5C 41.0599,44.288 42.7266,41.9547 45.5,40.5 Z"/></g>
<g><path style="opacity:1" fill="#9daced" d="M 44.5,42.5 C 52.4863,41.998 54.4863,45.1647 50.5,52C 42.424,52.8047 40.424,49.638 44.5,42.5 Z"/></g>
<g><path style="opacity:0.559" fill="#9dade5" d="M 61.5,45.5 C 62.8956,50.1282 62.2289,54.4615 59.5,58.5C 58.8333,58.5 58.5,58.8333 58.5,59.5C 54.4615,62.2289 50.1282,62.8956 45.5,61.5C 55.8333,61.1667 61.1667,55.8333 61.5,45.5 Z"/></g>
</svg>
