<?xml version="1.0" encoding="UTF-8"?>
<!DOCTYPE svg PUBLIC "-//W3C//DTD SVG 1.1//EN" "http://www.w3.org/Graphics/SVG/1.1/DTD/svg11.dtd">
<svg xmlns="http://www.w3.org/2000/svg" version="1.1" width="96px" height="96px" style="shape-rendering:geometricPrecision; text-rendering:geometricPrecision; image-rendering:optimizeQuality; fill-rule:evenodd; clip-rule:evenodd" xmlns:xlink="http://www.w3.org/1999/xlink">
<g><path style="opacity:0.933" fill="#f8b66e" d="M 95.5,41.5 C 95.5,45.8333 95.5,50.1667 95.5,54.5C 89.5974,75.4027 76.2641,89.0694 55.5,95.5C 50.1667,95.5 44.8333,95.5 39.5,95.5C 18.7359,89.0694 5.40258,75.4027 -0.5,54.5C -0.5,50.1667 -0.5,45.8333 -0.5,41.5C 9.50861,8.00541 31.5086,-4.49459 65.5,4C 81.3416,11.8611 91.3416,24.3611 95.5,41.5 Z"/></g>
<g><path style="opacity:1" fill="#fdaa49" d="M 62.5,16.5 C 60.302,16.1201 58.6354,16.7868 57.5,18.5C 55.8042,18.6854 54.4709,19.5187 53.5,21C 50.1392,21.3367 46.8058,21.8367 43.5,22.5C 34.4266,17.7648 30.4266,20.4315 31.5,30.5C 31.3284,31.4916 31.6618,32.1583 32.5,32.5C 33.038,34.1172 33.3713,35.7839 33.5,37.5C 26.6998,37.4594 24.3665,40.6261 26.5,47C 24.3843,48.1707 23.7176,49.6707 24.5,51.5C 23.0541,53.6179 22.3874,55.9512 22.5,58.5C 19.6769,59.9923 18.0102,62.3257 17.5,65.5C 8.04072,45.7022 12.3741,29.5356 30.5,17C 41.2227,11.2836 51.8893,11.1169 62.5,16.5 Z"/></g>
<g><path style="opacity:1" fill="#664d5d" d="M 62.5,16.5 C 64.3122,18.4605 65.3122,20.7939 65.5,23.5C 64.3104,21.6455 62.9771,19.8121 61.5,18C 60.1807,17.805 58.8474,17.9717 57.5,18.5C 58.6354,16.7868 60.302,16.1201 62.5,16.5 Z"/></g>
<g><path style="opacity:1" fill="#d75b9e" d="M 62.5,22.5 C 62.6495,23.552 62.4828,24.552 62,25.5C 60.3333,24.2668 58.8333,22.9335 57.5,21.5C 59.7561,18.6947 61.4228,19.028 62.5,22.5 Z"/></g>
<g><path style="opacity:1" fill="#b68564" d="M 65.5,23.5 C 66.3382,23.8417 66.6716,24.5084 66.5,25.5C 65.7321,26.2625 65.2321,27.2625 65,28.5C 63.9808,26.4982 63.1475,24.4982 62.5,22.5C 61.4228,19.028 59.7561,18.6947 57.5,21.5C 56.7611,21.631 56.0944,21.4643 55.5,21C 56.3805,20.2917 57.0472,19.4584 57.5,18.5C 58.8474,17.9717 60.1807,17.805 61.5,18C 62.9771,19.8121 64.3104,21.6455 65.5,23.5 Z"/></g>
<g><path style="opacity:1" fill="#b7723b" d="M 41.5,24.5 C 40.8333,24.5 40.1667,24.5 39.5,24.5C 38.0813,23.5489 36.4147,23.2155 34.5,23.5C 34.5,25.8333 34.5,28.1667 34.5,30.5C 34.5875,33.5983 34.0875,33.9316 33,31.5C 32.6012,31.7284 32.4346,32.0618 32.5,32.5C 31.6618,32.1583 31.3284,31.4916 31.5,30.5C 32.1324,27.6377 33.1324,24.8044 34.5,22C 37.3391,21.5565 39.6724,22.3898 41.5,24.5 Z"/></g>
<g><path style="opacity:1" fill="#553f74" d="M 57.5,18.5 C 57.0472,19.4584 56.3805,20.2917 55.5,21C 56.0944,21.4643 56.7611,21.631 57.5,21.5C 58.8333,22.9335 60.3333,24.2668 62,25.5C 62.4828,24.552 62.6495,23.552 62.5,22.5C 63.1475,24.4982 63.9808,26.4982 65,28.5C 65.2321,27.2625 65.7321,26.2625 66.5,25.5C 66.4535,30.5652 67.4535,35.3986 69.5,40C 69.1993,43.097 68.1993,45.9304 66.5,48.5C 65.7451,51.0529 65.0784,53.7196 64.5,56.5C 63.9916,59.8515 62.6582,62.8515 60.5,65.5C 61.2826,67.2882 62.6159,68.2882 64.5,68.5C 65.4486,69.1524 66.6153,69.4857 68,69.5C 70.0081,69.6932 71.5081,69.0265 72.5,67.5C 73.4345,66.4324 73.7678,65.099 73.5,63.5C 74.8612,69.6356 72.1946,72.1356 65.5,71C 63.2379,69.9532 61.0712,68.7865 59,67.5C 57.5603,68.1476 56.0603,68.4809 54.5,68.5C 54.4326,69.9587 54.7659,71.2921 55.5,72.5C 54.391,72.4431 53.391,72.1098 52.5,71.5C 53.4469,66.7775 52.1136,62.9442 48.5,60C 45.0439,58.5186 41.7105,56.852 38.5,55C 37.1068,53.8289 36.2735,52.3289 36,50.5C 35.5,51 35,51.5 34.5,52C 31.4465,52.1786 28.4465,52.6786 25.5,53.5C 24.5435,55.0754 23.8769,56.742 23.5,58.5C 23.1667,58.5 22.8333,58.5 22.5,58.5C 22.3874,55.9512 23.0541,53.6179 24.5,51.5C 23.7176,49.6707 24.3843,48.1707 26.5,47C 24.3665,40.6261 26.6998,37.4594 33.5,37.5C 33.3713,35.7839 33.038,34.1172 32.5,32.5C 32.4346,32.0618 32.6012,31.7284 33,31.5C 34.0875,33.9316 34.5875,33.5983 34.5,30.5C 36.1563,28.5398 37.823,26.5398 39.5,24.5C 40.1667,24.5 40.8333,24.5 41.5,24.5C 39.6724,22.3898 37.3391,21.5565 34.5,22C 33.1324,24.8044 32.1324,27.6377 31.5,30.5C 30.4266,20.4315 34.4266,17.7648 43.5,22.5C 46.8058,21.8367 50.1392,21.3367 53.5,21C 54.4709,19.5187 55.8042,18.6854 57.5,18.5 Z"/></g>
<g><path style="opacity:1" fill="#302079" d="M 54.5,39.5 C 54.5858,40.4959 54.2524,41.3292 53.5,42C 55.3126,41.9536 56.9793,42.1203 58.5,42.5C 57.9003,45.349 56.5669,47.6823 54.5,49.5C 54.1667,49.5 53.8333,49.5 53.5,49.5C 53.1583,50.3382 52.4916,50.6716 51.5,50.5C 48.7404,49.577 46.7404,47.7437 45.5,45C 47.3839,44.7837 49.0506,44.117 50.5,43C 49.0577,42.6232 48.0577,41.7899 47.5,40.5C 48.3121,39.0069 49.6455,38.3402 51.5,38.5C 52.7261,38.5195 53.7261,38.8529 54.5,39.5 Z"/></g>
<g><path style="opacity:1" fill="#e9e3e0" d="M 26.5,49.5 C 27.4756,48.1851 28.4756,46.8518 29.5,45.5C 29.0623,44.4937 28.3957,44.4937 27.5,45.5C 26.7025,45.0431 26.3691,44.3764 26.5,43.5C 29.1999,40.5203 31.1999,40.8536 32.5,44.5C 31.6985,47.6369 29.6985,49.3036 26.5,49.5 Z"/></g>
<g><path style="opacity:1" fill="#f5f4f5" d="M 34.5,40.5 C 36.5516,41.7102 38.7182,42.7102 41,43.5C 43.2818,42.7102 45.4484,41.7102 47.5,40.5C 48.0577,41.7899 49.0577,42.6232 50.5,43C 49.0506,44.117 47.3839,44.7837 45.5,45C 46.7404,47.7437 48.7404,49.577 51.5,50.5C 48.6965,51.6378 45.6965,51.8045 42.5,51C 40.1136,49.8068 37.7802,48.6401 35.5,47.5C 34.6314,45.283 34.298,42.9496 34.5,40.5 Z"/></g>
<g><path style="opacity:1" fill="#f6f5f8" d="M 66.5,35.5 C 69.0747,38.7178 69.0747,42.0512 66.5,45.5C 63.0046,47.4121 59.3379,49.0788 55.5,50.5C 54.8933,50.3764 54.56,50.0431 54.5,49.5C 56.5669,47.6823 57.9003,45.349 58.5,42.5C 56.9793,42.1203 55.3126,41.9536 53.5,42C 54.2524,41.3292 54.5858,40.4959 54.5,39.5C 57.1411,40.2631 59.8078,40.4298 62.5,40C 63.7332,38.3333 65.0665,36.8333 66.5,35.5 Z"/></g>
<g><path style="opacity:1" fill="#be4b9c" d="M 39.5,24.5 C 37.823,26.5398 36.1563,28.5398 34.5,30.5C 34.5,28.1667 34.5,25.8333 34.5,23.5C 36.4147,23.2155 38.0813,23.5489 39.5,24.5 Z"/></g>
<g><path style="opacity:1" fill="#f99e32" d="M 66.5,35.5 C 65.0665,36.8333 63.7332,38.3333 62.5,40C 59.8078,40.4298 57.1411,40.2631 54.5,39.5C 53.7261,38.8529 52.7261,38.5195 51.5,38.5C 49.6455,38.3402 48.3121,39.0069 47.5,40.5C 45.4484,41.7102 43.2818,42.7102 41,43.5C 38.7182,42.7102 36.5516,41.7102 34.5,40.5C 34.129,33.9349 36.4623,28.6016 41.5,24.5C 53.6148,19.8638 61.9482,23.5305 66.5,35.5 Z"/></g>
<g><path style="opacity:1" fill="#451f66" d="M 57.5,33.5 C 58.552,33.3505 59.552,33.5172 60.5,34C 58.6313,35.6017 56.6313,36.6017 54.5,37C 55.7101,35.9609 56.7101,34.7942 57.5,33.5 Z"/></g>
<g><path style="opacity:1" fill="#472364" d="M 40.5,37.5 C 42.6055,36.1811 44.6055,36.5144 46.5,38.5C 46.1667,38.8333 45.8333,39.1667 45.5,39.5C 44.1502,38.0499 42.4835,37.3832 40.5,37.5 Z"/></g>
<g><path style="opacity:1" fill="#e1428f" d="M 53.5,49.5 C 50.8338,49.9342 49.6671,48.9342 50,46.5C 51.9645,45.115 53.7979,45.2816 55.5,47C 54.6195,47.7083 53.9528,48.5416 53.5,49.5 Z"/></g>
<g><path style="opacity:1" fill="#d58737" d="M 26.5,49.5 C 29.6985,49.3036 31.6985,47.6369 32.5,44.5C 31.1999,40.8536 29.1999,40.5203 26.5,43.5C 27.4298,39.9074 29.7632,38.2407 33.5,38.5C 33.2845,42.0592 33.6178,45.5592 34.5,49C 32.3494,51.3647 29.6828,52.0314 26.5,51C 25.2617,50.31 25.2617,49.81 26.5,49.5 Z"/></g>
<g><path style="opacity:1" fill="#b0b3d4" d="M 66.5,45.5 C 65.1667,47.1667 63.8333,48.8333 62.5,50.5C 62.1583,51.3382 61.4916,51.6716 60.5,51.5C 53.9186,53.6018 47.252,53.9351 40.5,52.5C 38.5273,51.194 36.8606,49.5273 35.5,47.5C 37.7802,48.6401 40.1136,49.8068 42.5,51C 45.6965,51.8045 48.6965,51.6378 51.5,50.5C 52.4916,50.6716 53.1583,50.3382 53.5,49.5C 53.8333,49.5 54.1667,49.5 54.5,49.5C 54.56,50.0431 54.8933,50.3764 55.5,50.5C 59.3379,49.0788 63.0046,47.4121 66.5,45.5 Z"/></g>
<g><path style="opacity:1" fill="#e01764" d="M 62.5,50.5 C 63.5862,50.62 64.2528,51.2867 64.5,52.5C 63.6976,56.751 62.0309,60.5843 59.5,64C 58.6667,64.1667 57.8333,64.3333 57,64.5C 51.8092,60.1451 45.9758,56.6451 39.5,54C 38.2881,52.8932 38.6214,52.3932 40.5,52.5C 42.8066,54.0468 45.4733,54.7135 48.5,54.5C 52.9308,54.7259 56.9308,53.7259 60.5,51.5C 61.4916,51.6716 62.1583,51.3382 62.5,50.5 Z"/></g>
<g><path style="opacity:1" fill="#50156d" d="M 60.5,51.5 C 56.9308,53.7259 52.9308,54.7259 48.5,54.5C 45.4733,54.7135 42.8066,54.0468 40.5,52.5C 47.252,53.9351 53.9186,53.6018 60.5,51.5 Z"/></g>
<g><path style="opacity:1" fill="#f79929" d="M 52.5,71.5 C 49.8333,71.5 47.1667,71.5 44.5,71.5C 43.7711,68.6848 42.7711,66.6848 41.5,65.5C 38.788,66.9874 36.6213,66.3207 35,63.5C 33.9441,56.5401 33.1108,56.2067 32.5,62.5C 30.8243,64.8337 28.491,65.8337 25.5,65.5C 24.0605,63.412 23.3939,61.0786 23.5,58.5C 23.8769,56.742 24.5435,55.0754 25.5,53.5C 28.4465,52.6786 31.4465,52.1786 34.5,52C 35,51.5 35.5,51 36,50.5C 36.2735,52.3289 37.1068,53.8289 38.5,55C 41.7105,56.852 45.0439,58.5186 48.5,60C 52.1136,62.9442 53.4469,66.7775 52.5,71.5 Z"/></g>
<g><path style="opacity:1" fill="#6e4a45" d="M 66.5,48.5 C 66.1906,52.7047 66.8572,56.7047 68.5,60.5C 68.1667,60.5 67.8333,60.5 67.5,60.5C 66.5,59.1667 65.5,57.8333 64.5,56.5C 65.0784,53.7196 65.7451,51.0529 66.5,48.5 Z"/></g>
<g><path style="opacity:1" fill="#79143c" d="M 56.5,54.5 C 60.8169,55.5539 61.8169,57.7206 59.5,61C 54.8689,62.169 54.2022,61.0023 57.5,57.5C 57.1667,57.1667 56.8333,56.8333 56.5,56.5C 55.4164,57.6651 54.5831,58.9984 54,60.5C 53.0339,57.6603 53.8672,55.6603 56.5,54.5 Z"/></g>
<g><path style="opacity:1" fill="#e79330" d="M 64.5,56.5 C 65.5,57.8333 66.5,59.1667 67.5,60.5C 67.1667,61.1667 66.8333,61.8333 66.5,62.5C 64.7202,63.9899 64.0535,65.9899 64.5,68.5C 62.6159,68.2882 61.2826,67.2882 60.5,65.5C 62.6582,62.8515 63.9916,59.8515 64.5,56.5 Z"/></g>
<g><path style="opacity:1" fill="#ebe7eb" d="M 22.5,58.5 C 22.8333,58.5 23.1667,58.5 23.5,58.5C 23.3939,61.0786 24.0605,63.412 25.5,65.5C 24.78,69.1575 23.28,69.8242 21,67.5C 20.6174,68.056 20.1174,68.3893 19.5,68.5C 19.3379,66.4727 19.5045,64.4727 20,62.5C 21.4813,61.5291 22.3146,60.1958 22.5,58.5 Z"/></g>
<g><path style="opacity:1" fill="#f9f4f0" d="M 66.5,62.5 C 68.0146,63.4931 69.0146,65.4931 69.5,68.5C 70.4776,68.0233 71.3109,67.3567 72,66.5C 72.3988,66.7284 72.5654,67.0618 72.5,67.5C 71.5081,69.0265 70.0081,69.6932 68,69.5C 66.6153,69.4857 65.4486,69.1524 64.5,68.5C 64.0535,65.9899 64.7202,63.9899 66.5,62.5 Z"/></g>
<g><path style="opacity:1" fill="#5a528b" d="M 22.5,58.5 C 22.3146,60.1958 21.4813,61.5291 20,62.5C 19.5045,64.4727 19.3379,66.4727 19.5,68.5C 18.0937,68.0269 17.427,67.0269 17.5,65.5C 18.0102,62.3257 19.6769,59.9923 22.5,58.5 Z"/></g>
<g><path style="opacity:1" fill="#d19dc2" d="M 67.5,60.5 C 67.8333,60.5 68.1667,60.5 68.5,60.5C 70.5652,60.953 72.2318,61.953 73.5,63.5C 73.7678,65.099 73.4345,66.4324 72.5,67.5C 72.5654,67.0618 72.3988,66.7284 72,66.5C 71.3109,67.3567 70.4776,68.0233 69.5,68.5C 69.0146,65.4931 68.0146,63.4931 66.5,62.5C 66.8333,61.8333 67.1667,61.1667 67.5,60.5 Z"/></g>
<g><path style="opacity:1" fill="#504580" d="M 32.5,62.5 C 34.3114,65.8551 37.1447,68.1885 41,69.5C 41.49,68.2068 41.6567,66.8734 41.5,65.5C 42.7711,66.6848 43.7711,68.6848 44.5,71.5C 44.8333,72.8333 45.1667,74.1667 45.5,75.5C 44.0351,74.5943 43.0351,73.261 42.5,71.5C 38.4086,70.2498 34.7419,68.2498 31.5,65.5C 28.304,66.3709 25.6373,68.0375 23.5,70.5C 21.5168,70.8432 20.1834,70.1765 19.5,68.5C 20.1174,68.3893 20.6174,68.056 21,67.5C 23.28,69.8242 24.78,69.1575 25.5,65.5C 28.491,65.8337 30.8243,64.8337 32.5,62.5 Z"/></g>
<g><path style="opacity:1" fill="#c9c6db" d="M 41.5,65.5 C 41.6567,66.8734 41.49,68.2068 41,69.5C 37.1447,68.1885 34.3114,65.8551 32.5,62.5C 33.1108,56.2067 33.9441,56.5401 35,63.5C 36.6213,66.3207 38.788,66.9874 41.5,65.5 Z"/></g>
<g><path style="opacity:1" fill="#fca949" d="M 62.5,16.5 C 79.2247,25.6321 85.3913,39.6321 81,58.5C 73.0309,77.4036 58.8642,85.237 38.5,82C 32.0727,79.8945 26.406,76.5612 21.5,72C 22.4158,71.7216 23.0825,71.2216 23.5,70.5C 25.6373,68.0375 28.304,66.3709 31.5,65.5C 34.7419,68.2498 38.4086,70.2498 42.5,71.5C 43.0351,73.261 44.0351,74.5943 45.5,75.5C 45.9528,76.4584 46.6195,77.2917 47.5,78C 49.8333,78.6667 52.1667,78.6667 54.5,78C 56.5532,76.3221 56.8866,74.4888 55.5,72.5C 54.7659,71.2921 54.4326,69.9587 54.5,68.5C 56.0603,68.4809 57.5603,68.1476 59,67.5C 61.0712,68.7865 63.2379,69.9532 65.5,71C 72.1946,72.1356 74.8612,69.6356 73.5,63.5C 72.2318,61.953 70.5652,60.953 68.5,60.5C 66.8572,56.7047 66.1906,52.7047 66.5,48.5C 68.1993,45.9304 69.1993,43.097 69.5,40C 67.4535,35.3986 66.4535,30.5652 66.5,25.5C 66.6716,24.5084 66.3382,23.8417 65.5,23.5C 65.3122,20.7939 64.3122,18.4605 62.5,16.5 Z"/></g>
<g><path style="opacity:1" fill="#e8e5ec" d="M 44.5,71.5 C 47.1667,71.5 49.8333,71.5 52.5,71.5C 53.391,72.1098 54.391,72.4431 55.5,72.5C 53.1491,77.1753 49.8157,78.1753 45.5,75.5C 45.1667,74.1667 44.8333,72.8333 44.5,71.5 Z"/></g>
<g><path style="opacity:1" fill="#544c82" d="M 55.5,72.5 C 56.8866,74.4888 56.5532,76.3221 54.5,78C 52.1667,78.6667 49.8333,78.6667 47.5,78C 46.6195,77.2917 45.9528,76.4584 45.5,75.5C 49.8157,78.1753 53.1491,77.1753 55.5,72.5 Z"/></g>
</svg>
