<?xml version="1.0" encoding="UTF-8"?>
<!DOCTYPE svg PUBLIC "-//W3C//DTD SVG 1.1//EN" "http://www.w3.org/Graphics/SVG/1.1/DTD/svg11.dtd">
<svg xmlns="http://www.w3.org/2000/svg" version="1.1" width="96px" height="96px" style="shape-rendering:geometricPrecision; text-rendering:geometricPrecision; image-rendering:optimizeQuality; fill-rule:evenodd; clip-rule:evenodd" xmlns:xlink="http://www.w3.org/1999/xlink">
<g><path style="opacity:0.892" fill="#eeeff1" d="M 37.5,-0.5 C 44.1667,-0.5 50.8333,-0.5 57.5,-0.5C 77.1403,5.14032 89.807,17.807 95.5,37.5C 95.5,44.1667 95.5,50.8333 95.5,57.5C 89.807,77.193 77.1403,89.8597 57.5,95.5C 50.8333,95.5 44.1667,95.5 37.5,95.5C 17.8597,89.8597 5.193,77.193 -0.5,57.5C -0.5,50.8333 -0.5,44.1667 -0.5,37.5C 5.193,17.807 17.8597,5.14032 37.5,-0.5 Z"/></g>
<g><path style="opacity:1" fill="#30366a" d="M 36.5,2.5 C 64.0979,-0.692992 82.5979,10.6403 92,36.5C 96.0183,63.3204 85.5183,81.4871 60.5,91C 31.4509,96.5907 12.2842,85.424 3,57.5C -0.0890725,30.3253 11.0776,11.992 36.5,2.5 Z"/></g>
<g><path style="opacity:1" fill="#717598" d="M 40.5,20.5 C 42.6449,20.7377 44.3115,21.7377 45.5,23.5C 45.1667,24.5 44.5,25.1667 43.5,25.5C 41.8087,23.7438 39.8087,23.2438 37.5,24C 41.2721,25.3893 41.2721,26.3893 37.5,27C 38.9423,27.3768 39.9423,28.2101 40.5,29.5C 40.1667,29.5 39.8333,29.5 39.5,29.5C 37.1756,29.3385 35.5089,28.1718 34.5,26C 34.8333,25.6667 35.1667,25.3333 35.5,25C 34.5838,24.6258 33.7504,24.1258 33,23.5C 33.2788,16.9764 32.4454,16.9764 30.5,23.5C 29.8333,21.8333 29.1667,20.1667 28.5,18.5C 27.3049,20.297 25.6382,21.297 23.5,21.5C 23.2865,23.1439 23.6198,24.6439 24.5,26C 23.2411,26.9819 21.9078,27.3152 20.5,27C 21.2546,24.8252 22.088,22.6585 23,20.5C 23.6667,19.1667 24.3333,19.1667 25,20.5C 25.6368,18.6969 26.8035,17.3636 28.5,16.5C 32.8685,16.4004 36.8685,17.7337 40.5,20.5 Z"/></g>
<g><path style="opacity:1" fill="#adafc3" d="M 25.5,22.5 C 27.337,22.6395 27.6704,23.3061 26.5,24.5C 25.7025,24.0431 25.3691,23.3764 25.5,22.5 Z"/></g>
<g><path style="opacity:1" fill="#20255d" d="M 40.5,20.5 C 40.5594,22.7645 39.7261,23.0978 38,21.5C 36.7387,21.7591 35.7387,22.4258 35,23.5C 34.5172,22.552 34.3505,21.552 34.5,20.5C 36.5,20.5 38.5,20.5 40.5,20.5 Z"/></g>
<g><path style="opacity:1" fill="#a0a1ba" d="M 30.5,24.5 C 32.337,24.6395 32.6704,25.3061 31.5,26.5C 30.7025,26.0431 30.3691,25.3764 30.5,24.5 Z"/></g>
<g><path style="opacity:1" fill="#babccc" d="M 23.5,27.5 C 25.337,27.6395 25.6704,28.3061 24.5,29.5C 23.7025,29.0431 23.3691,28.3764 23.5,27.5 Z"/></g>
<g><path style="opacity:1" fill="#c8cad6" d="M 24.5,30.5 C 26.337,30.6395 26.6704,31.3061 25.5,32.5C 24.7025,32.0431 24.3691,31.3764 24.5,30.5 Z"/></g>
<g><path style="opacity:1" fill="#4e517e" d="M 57.5,35.5 C 55.4443,36.5624 53.4443,36.2291 51.5,34.5C 51.1667,34.8333 50.8333,35.1667 50.5,35.5C 54.1364,36.9363 54.303,38.603 51,40.5C 49.9264,39.3816 48.7598,38.3816 47.5,37.5C 48.0253,36.8076 48.6919,36.3076 49.5,36C 48.354,35.3551 47.354,34.5217 46.5,33.5C 45.0626,36.0443 43.5626,36.0443 42,33.5C 39.9849,35.4731 40.1516,37.1397 42.5,38.5C 39.9364,39.5644 38.6031,38.5644 38.5,35.5C 38.5,34.8333 38.5,34.1667 38.5,33.5C 39.2389,33.631 39.9056,33.4643 40.5,33C 37.0465,32.3716 36.7131,31.2049 39.5,29.5C 39.8333,29.5 40.1667,29.5 40.5,29.5C 45.2203,29.7746 45.5537,28.9412 41.5,27C 41.8333,26.8333 42.1667,26.6667 42.5,26.5C 44.0778,27.6405 45.7445,28.1405 47.5,28C 44.972,26.6841 44.972,25.5174 47.5,24.5C 49.9768,26.1427 52.3102,27.976 54.5,30C 53.5494,30.7175 53.3828,31.5509 54,32.5C 55.8402,31.1669 56.3402,31.3335 55.5,33C 56.756,33.4169 57.4226,34.2502 57.5,35.5 Z"/></g>
<g><path style="opacity:1" fill="#c3c5d3" d="M 38.5,33.5 C 38.5,34.1667 38.5,34.8333 38.5,35.5C 35.8333,34.8333 35.8333,34.1667 38.5,33.5 Z"/></g>
<g><path style="opacity:1" fill="#eeeef2" d="M 59.5,36.5 C 56.5361,38.9619 53.7028,41.6286 51,44.5C 50.6012,44.2716 50.4346,43.9382 50.5,43.5C 52.8333,40.8333 55.1667,38.1667 57.5,35.5C 60.8134,32.5222 64.1467,29.5222 67.5,26.5C 67.8333,26.6667 68.1667,26.8333 68.5,27C 65.2956,30.0359 62.2956,33.2026 59.5,36.5 Z"/></g>
<g><path style="opacity:1" fill="#c9cad7" d="M 36.5,39.5 C 38.337,39.6395 38.6704,40.3061 37.5,41.5C 36.7025,41.0431 36.3691,40.3764 36.5,39.5 Z"/></g>
<g><path style="opacity:1" fill="#505481" d="M 27.5,34.5 C 29.0245,35.1738 30.3578,36.1738 31.5,37.5C 32.623,35.711 33.9564,35.3776 35.5,36.5C 34.2634,37.2807 33.2634,38.2807 32.5,39.5C 33.8746,42.6001 35.8746,44.2668 38.5,44.5C 38.2907,45.086 37.9574,45.586 37.5,46C 38.6667,46.5 39.5,47.3333 40,48.5C 42.0408,47.5769 44.2075,47.2436 46.5,47.5C 46.3671,50.8957 45.3671,51.2291 43.5,48.5C 42.1861,49.3128 41.0195,50.3128 40,51.5C 37.9824,49.6499 36.1491,47.6499 34.5,45.5C 29.2666,50.7657 28.5999,50.2657 32.5,44C 30.1578,41.1473 28.4912,37.9807 27.5,34.5 Z"/></g>
<g><path style="opacity:1" fill="#c0c2d1" d="M 40.5,43.5 C 42.337,43.6395 42.6704,44.3061 41.5,45.5C 40.7025,45.0431 40.3691,44.3764 40.5,43.5 Z"/></g>
<g><path style="opacity:1" fill="#464978" d="M 59.5,36.5 C 62.0071,36.9962 64.0071,38.3295 65.5,40.5C 65.9005,42.4342 66.9005,43.9342 68.5,45C 67.7476,45.6708 67.4142,46.5041 67.5,47.5C 67.795,49.4233 68.6283,51.0899 70,52.5C 70.6667,54.1667 70.6667,55.8333 70,57.5C 69.1339,53.1935 68.1339,52.8601 67,56.5C 66.1511,53.439 64.6511,50.7723 62.5,48.5C 61.913,49.2334 61.913,50.2334 62.5,51.5C 62.8146,53.2259 62.9813,54.8925 63,56.5C 62.0853,55.6721 61.4186,54.6721 61,53.5C 60.1072,54.7112 59.2739,54.7112 58.5,53.5C 59.1667,52.8333 59.8333,52.1667 60.5,51.5C 59.4416,49.8884 58.1083,49.0551 56.5,49C 56.9437,50.5333 57.277,52.0333 57.5,53.5C 56.9747,54.1924 56.3081,54.6924 55.5,55C 56.5087,56.6568 57.5087,58.3234 58.5,60C 57.5765,61.8114 56.7431,61.6447 56,59.5C 54.583,60.0779 53.7496,61.0779 53.5,62.5C 52.7611,62.631 52.0944,62.4643 51.5,62C 52.1667,60.6667 53.1667,59.6667 54.5,59C 52.0846,57.5263 52.0846,55.8596 54.5,54C 52.8318,51.4002 50.4985,48.7335 47.5,46C 48.1301,44.6898 49.1301,43.8565 50.5,43.5C 50.4346,43.9382 50.6012,44.2716 51,44.5C 53.7028,41.6286 56.5361,38.9619 59.5,36.5 Z"/></g>
<g><path style="opacity:1" fill="#6f7396" d="M 62.5,51.5 C 61.913,50.2334 61.913,49.2334 62.5,48.5C 64.6511,50.7723 66.1511,53.439 67,56.5C 68.1339,52.8601 69.1339,53.1935 70,57.5C 70.6667,55.8333 70.6667,54.1667 70,52.5C 68.6283,51.0899 67.795,49.4233 67.5,47.5C 68.1174,47.3893 68.6174,47.056 69,46.5C 70.0672,47.9431 71.2338,49.2764 72.5,50.5C 72.4814,53.3195 72.1481,56.1528 71.5,59C 72.635,59.7494 73.635,59.5827 74.5,58.5C 73.3192,56.802 73.3192,55.1353 74.5,53.5C 77.911,58.5125 76.5777,61.3458 70.5,62C 72.0016,62.5831 73.3349,63.4164 74.5,64.5C 74.1667,64.8333 73.8333,65.1667 73.5,65.5C 70.7105,64.352 68.0439,63.0186 65.5,61.5C 66.3914,60.4104 67.3914,60.4104 68.5,61.5C 69.8333,60.8333 69.8333,60.1667 68.5,59.5C 65.9333,58.7613 63.6,58.7613 61.5,59.5C 65.0454,57.1243 65.3788,54.4576 62.5,51.5 Z"/></g>
<g><path style="opacity:1" fill="#b0b2c5" d="M 34.5,49.5 C 36.337,49.6395 36.6704,50.3061 35.5,51.5C 34.7025,51.0431 34.3691,50.3764 34.5,49.5 Z"/></g>
<g><path style="opacity:1" fill="#cbccd7" d="M 48.5,51.5 C 50.337,51.6395 50.6704,52.3061 49.5,53.5C 48.7025,53.0431 48.3691,52.3764 48.5,51.5 Z"/></g>
<g><path style="opacity:1" fill="#abadc1" d="M 45.5,55.5 C 47.337,55.6395 47.6704,56.3061 46.5,57.5C 45.7025,57.0431 45.3691,56.3764 45.5,55.5 Z"/></g>
<g><path style="opacity:1" fill="#c2c4d2" d="M 58.5,55.5 C 60.337,55.6395 60.6704,56.3061 59.5,57.5C 58.7025,57.0431 58.3691,56.3764 58.5,55.5 Z"/></g>
<g><path style="opacity:1" fill="#bcbecd" d="M 42.5,57.5 C 44.337,57.6395 44.6704,58.3061 43.5,59.5C 42.7025,59.0431 42.3691,58.3764 42.5,57.5 Z"/></g>
<g><path style="opacity:1" fill="#dedfe7" d="M 38.5,53.5 C 40.0281,53.5173 40.5281,54.184 40,55.5C 35.8333,59.6667 31.6667,63.8333 27.5,68C 26.8333,68.6667 26.1667,68.6667 25.5,68C 30.4337,63.5738 34.767,58.7405 38.5,53.5 Z"/></g>
<g><path style="opacity:1" fill="#b6b8ca" d="M 53.5,62.5 C 55.337,62.6395 55.6704,63.3061 54.5,64.5C 53.7025,64.0431 53.3691,63.3764 53.5,62.5 Z"/></g>
<g><path style="opacity:1" fill="#a8aabf" d="M 57.5,65.5 C 59.337,65.6395 59.6704,66.3061 58.5,67.5C 57.7025,67.0431 57.3691,66.3764 57.5,65.5 Z"/></g>
<g><path style="opacity:1" fill="#a9aabf" d="M 67.5,65.5 C 70.0971,65.5332 71.0971,66.5332 70.5,68.5C 68.7869,68.1207 67.7869,67.1207 67.5,65.5 Z"/></g>
<g><path style="opacity:1" fill="#aaadc1" d="M 54.5,67.5 C 56.337,67.6395 56.6704,68.3061 55.5,69.5C 54.7025,69.0431 54.3691,68.3764 54.5,67.5 Z"/></g>
<g><path style="opacity:1" fill="#cbccd8" d="M 61.5,67.5 C 63.337,67.6395 63.6704,68.3061 62.5,69.5C 61.7025,69.0431 61.3691,68.3764 61.5,67.5 Z"/></g>
</svg>
