<?xml version="1.0" encoding="UTF-8"?>
<!DOCTYPE svg PUBLIC "-//W3C//DTD SVG 1.1//EN" "http://www.w3.org/Graphics/SVG/1.1/DTD/svg11.dtd">
<svg xmlns="http://www.w3.org/2000/svg" version="1.1" width="96px" height="102px" style="shape-rendering:geometricPrecision; text-rendering:geometricPrecision; image-rendering:optimizeQuality; fill-rule:evenodd; clip-rule:evenodd" xmlns:xlink="http://www.w3.org/1999/xlink">
<g><path style="opacity:1" fill="#e1e1e1" d="M 76.5,11.5 C 83.5602,17.9498 88.8936,25.6164 92.5,34.5C 92.9569,35.2975 93.6236,35.6309 94.5,35.5C 94.2627,36.791 94.596,37.791 95.5,38.5C 95.5,39.1667 95.5,39.8333 95.5,40.5C 94.1667,40.8333 94.1667,41.1667 95.5,41.5C 95.5,45.1667 95.5,48.8333 95.5,52.5C 92.7655,63.0285 87.7655,72.3618 80.5,80.5C 79.7611,80.631 79.0944,80.4643 78.5,80C 80.9535,78.2599 82.4535,76.0933 83,73.5C 81.3333,75.1667 79.6667,76.8333 78,78.5C 77.3333,77.8333 76.6667,77.1667 76,76.5C 72.9177,78.625 69.7511,80.625 66.5,82.5C 65.3044,82.1543 65.3044,81.6543 66.5,81C 63.2251,80.9295 60.0584,80.7629 57,80.5C 56.6667,81.5 56.3333,82.5 56,83.5C 55.5045,81.5273 55.3379,79.5273 55.5,77.5C 56.5,77.5 57.5,77.5 58.5,77.5C 58.5,76.1667 58.5,74.8333 58.5,73.5C 60.4918,73.6715 62.1585,73.0049 63.5,71.5C 65.7536,73.9733 67.9203,73.9733 70,71.5C 71.3876,72.5536 72.8876,72.7203 74.5,72C 73.1373,69.8707 73.4706,69.3707 75.5,70.5C 76.4776,70.0233 77.3109,69.3567 78,68.5C 78.4186,69.6721 79.0853,70.6721 80,71.5C 81.8161,70.6705 83.6494,69.8372 85.5,69C 85.1667,68.6667 84.8333,68.3333 84.5,68C 86.1667,65.6667 87.8333,63.3333 89.5,61C 89.2465,58.856 89.2465,56.856 89.5,55C 90.3839,53.902 91.3839,53.402 92.5,53.5C 90.9119,47.8705 89.2453,42.2038 87.5,36.5C 86.525,31.7249 84.1917,27.2249 80.5,23C 79.2506,22.2599 78.2506,22.4265 77.5,23.5C 63.9702,17.4454 49.9702,16.1121 35.5,19.5C 30.5307,20.0802 25.364,20.0802 20,19.5C 19.2949,21.9856 18.4616,21.9856 17.5,19.5C 18.6253,17.8712 19.9586,16.3712 21.5,15C 25.4339,12.5361 29.4339,10.3694 33.5,8.5C 43.8531,6.64808 54.0197,7.31475 64,10.5C 64.5,10.3333 65,10.1667 65.5,10C 63.508,9.42571 62.008,8.25904 61,6.5C 60.586,6.95735 60.086,7.29069 59.5,7.5C 56.655,7.16723 54.155,6.16723 52,4.5C 50.5064,5.74722 49.0064,5.74722 47.5,4.5C 52.2009,3.26913 56.8676,3.43579 61.5,5C 66.7852,6.6459 71.7852,8.81256 76.5,11.5 Z"/></g>
<g><path style="opacity:1" fill="#898989" d="M 76.5,11.5 C 77.609,11.5569 78.609,11.8902 79.5,12.5C 86.7487,18.6547 91.7487,26.3213 94.5,35.5C 93.6236,35.6309 92.9569,35.2975 92.5,34.5C 88.8936,25.6164 83.5602,17.9498 76.5,11.5 Z"/></g>
<g><path style="opacity:1" fill="#0e0d0c" d="M 77.5,23.5 C 80.1373,26.7826 79.9706,30.1159 77,33.5C 76.5026,36.146 76.3359,38.8127 76.5,41.5C 72.9567,41.128 70.79,39.128 70,35.5C 69.5034,37.8098 69.3367,40.1432 69.5,42.5C 67.8993,41.3572 67.2326,42.0239 67.5,44.5C 67.6399,46.0296 68.3065,47.0296 69.5,47.5C 68.9888,50.6927 68.3222,53.8594 67.5,57C 68.2093,59.8715 68.7093,62.7048 69,65.5C 66.2271,68.1357 63.0605,70.1357 59.5,71.5C 52.5,71.5 45.5,71.5 38.5,71.5C 34.662,70.3383 31.662,68.0049 29.5,64.5C 29.8971,63.0143 30.2305,61.5143 30.5,60C 28.936,54.2442 27.7693,48.4108 27,42.5C 26.0311,44.7339 24.6978,46.7339 23,48.5C 20.9067,43.4204 18.4067,38.587 15.5,34C 15.6431,31.849 16.6431,30.1824 18.5,29C 24.0277,25.2445 29.6943,22.0779 35.5,19.5C 49.9702,16.1121 63.9702,17.4454 77.5,23.5 Z"/></g>
<g><path style="opacity:1" fill="#e8e8e8" d="M 35.5,19.5 C 29.6943,22.0779 24.0277,25.2445 18.5,29C 16.6431,30.1824 15.6431,31.849 15.5,34C 18.4067,38.587 20.9067,43.4204 23,48.5C 24.6978,46.7339 26.0311,44.7339 27,42.5C 27.7693,48.4108 28.936,54.2442 30.5,60C 30.2305,61.5143 29.8971,63.0143 29.5,64.5C 31.662,68.0049 34.662,70.3383 38.5,71.5C 42.3123,72.3238 46.3123,72.8238 50.5,73C 47.1582,74.1244 46.8249,75.6244 49.5,77.5C 48.3684,78.3543 47.035,78.3543 45.5,77.5C 45.5,76.5 45.5,75.5 45.5,74.5C 41.7915,73.1818 38.4582,73.1818 35.5,74.5C 35.3718,76.0898 34.7051,77.4231 33.5,78.5C 29.5808,77.9743 26.5808,78.4743 24.5,80C 4.89078,64.4672 1.05745,45.6339 13,23.5C 14.3712,21.9586 15.8712,20.6253 17.5,19.5C 18.4616,21.9856 19.2949,21.9856 20,19.5C 25.364,20.0802 30.5307,20.0802 35.5,19.5 Z"/></g>
<g><path style="opacity:1" fill="#2e3935" d="M 63.5,35.5 C 64.0431,35.44 64.3764,35.1067 64.5,34.5C 63.5589,32.2279 62.2255,30.2279 60.5,28.5C 61.8408,26.1658 61.1741,24.4991 58.5,23.5C 58.4827,24.3937 58.1494,25.3937 57.5,26.5C 56.5326,25.1938 55.1993,24.5271 53.5,24.5C 53.6107,23.8826 53.944,23.3826 54.5,23C 53.2625,22.7679 52.2625,22.2679 51.5,21.5C 50.7375,20.7321 49.7375,20.2321 48.5,20C 51.131,19.8933 53.631,19.7266 56,19.5C 63.997,24.6037 66.997,31.6037 65,40.5C 64.6481,38.7525 64.1481,37.0858 63.5,35.5 Z"/></g>
<g><path style="opacity:0.825" fill="#d6d6d6" d="M 37.5,-0.5 C 43.8333,-0.5 50.1667,-0.5 56.5,-0.5C 61.9225,1.14836 67.2559,3.31502 72.5,6C 75.3782,7.71605 77.7115,9.88271 79.5,12.5C 78.609,11.8902 77.609,11.5569 76.5,11.5C 70.0377,5.72645 62.371,2.55979 53.5,2C 41.5508,0.155613 30.5508,2.48895 20.5,9C 24.97,7.28557 29.6367,5.78557 34.5,4.5C 35.737,4.55647 36.737,5.05647 37.5,6C 35.9336,6.6082 34.6002,7.44153 33.5,8.5C 29.4339,10.3694 25.4339,12.5361 21.5,15C 19.9586,16.3712 18.6253,17.8712 17.5,19.5C 15.8712,20.6253 14.3712,21.9586 13,23.5C 1.05745,45.6339 4.89078,64.4672 24.5,80C 26.5808,78.4743 29.5808,77.9743 33.5,78.5C 34.7051,77.4231 35.3718,76.0898 35.5,74.5C 38.104,76.3584 41.4373,77.3584 45.5,77.5C 47.035,78.3543 48.3684,78.3543 49.5,77.5C 51.5,77.5 53.5,77.5 55.5,77.5C 55.3379,79.5273 55.5045,81.5273 56,83.5C 56.3333,82.5 56.6667,81.5 57,80.5C 60.0584,80.7629 63.2251,80.9295 66.5,81C 65.3044,81.6543 65.3044,82.1543 66.5,82.5C 69.7511,80.625 72.9177,78.625 76,76.5C 76.6667,77.1667 77.3333,77.8333 78,78.5C 79.6667,76.8333 81.3333,75.1667 83,73.5C 82.4535,76.0933 80.9535,78.2599 78.5,80C 79.0944,80.4643 79.7611,80.631 80.5,80.5C 77.1967,84.1558 73.1967,86.8225 68.5,88.5C 68.3893,87.8826 68.056,87.3826 67.5,87C 69.9962,85.9196 72.3295,84.5862 74.5,83C 75.6956,82.3457 75.6956,81.8457 74.5,81.5C 71.4456,83.6939 68.1122,85.3605 64.5,86.5C 63.5,85.8333 62.5,85.1667 61.5,84.5C 52.5521,86.5068 43.5521,87.0068 34.5,86C 35.8333,86.6667 37.1667,87.3333 38.5,88C 32.4271,87.1386 26.7605,84.9719 21.5,81.5C 20.3044,81.8457 20.3044,82.3457 21.5,83C 24.3388,84.9203 27.3388,86.5869 30.5,88C 29.944,88.3826 29.6107,88.8826 29.5,89.5C 17.8223,84.8194 9.48896,76.8194 4.5,65.5C 2.19522,60.2599 0.528552,54.9266 -0.5,49.5C -0.5,48.8333 -0.5,48.1667 -0.5,47.5C 0.833333,45.1667 0.833333,42.8333 -0.5,40.5C -0.5,39.1667 -0.5,37.8333 -0.5,36.5C 5.34381,17.1347 18.0105,4.8014 37.5,-0.5 Z"/></g>
<g><path style="opacity:1" fill="#b9b9b9" d="M 76.5,11.5 C 71.7852,8.81256 66.7852,6.6459 61.5,5C 56.8676,3.43579 52.2009,3.26913 47.5,4.5C 49.0064,5.74722 50.5064,5.74722 52,4.5C 54.155,6.16723 56.655,7.16723 59.5,7.5C 60.086,7.29069 60.586,6.95735 61,6.5C 62.008,8.25904 63.508,9.42571 65.5,10C 65,10.1667 64.5,10.3333 64,10.5C 54.0197,7.31475 43.8531,6.64808 33.5,8.5C 34.6002,7.44153 35.9336,6.6082 37.5,6C 36.737,5.05647 35.737,4.55647 34.5,4.5C 29.6367,5.78557 24.97,7.28557 20.5,9C 30.5508,2.48895 41.5508,0.155613 53.5,2C 62.371,2.55979 70.0377,5.72645 76.5,11.5 Z"/></g>
<g><path style="opacity:1" fill="#666d6e" d="M 63.5,35.5 C 60.4017,35.5875 60.0684,35.0875 62.5,34C 60.3757,31.7693 58.709,29.2693 57.5,26.5C 58.1494,25.3937 58.4827,24.3937 58.5,23.5C 61.1741,24.4991 61.8408,26.1658 60.5,28.5C 62.2255,30.2279 63.5589,32.2279 64.5,34.5C 64.3764,35.1067 64.0431,35.44 63.5,35.5 Z"/></g>
<g><path style="opacity:1" fill="#e8e8e8" d="M 77.5,23.5 C 78.2506,22.4265 79.2506,22.2599 80.5,23C 84.1917,27.2249 86.525,31.7249 87.5,36.5C 89.2453,42.2038 90.9119,47.8705 92.5,53.5C 91.3839,53.402 90.3839,53.902 89.5,55C 89.2465,56.856 89.2465,58.856 89.5,61C 87.8333,63.3333 86.1667,65.6667 84.5,68C 84.8333,68.3333 85.1667,68.6667 85.5,69C 83.6494,69.8372 81.8161,70.6705 80,71.5C 79.0853,70.6721 78.4186,69.6721 78,68.5C 77.3109,69.3567 76.4776,70.0233 75.5,70.5C 73.4706,69.3707 73.1373,69.8707 74.5,72C 72.8876,72.7203 71.3876,72.5536 70,71.5C 67.9203,73.9733 65.7536,73.9733 63.5,71.5C 62.1585,73.0049 60.4918,73.6715 58.5,73.5C 56.0002,74.8896 53.6668,74.7229 51.5,73C 54.3647,72.8171 57.0314,72.3171 59.5,71.5C 63.0605,70.1357 66.2271,68.1357 69,65.5C 68.7093,62.7048 68.2093,59.8715 67.5,57C 68.3222,53.8594 68.9888,50.6927 69.5,47.5C 69.5,45.8333 69.5,44.1667 69.5,42.5C 69.3367,40.1432 69.5034,37.8098 70,35.5C 70.79,39.128 72.9567,41.128 76.5,41.5C 76.3359,38.8127 76.5026,36.146 77,33.5C 79.9706,30.1159 80.1373,26.7826 77.5,23.5 Z"/></g>
<g><path style="opacity:1" fill="#d8a257" d="M 54.5,31.5 C 58.0749,32.2068 58.2416,33.2068 55,34.5C 53.3167,33.8235 53.1501,32.8235 54.5,31.5 Z"/></g>
<g><path style="opacity:1" fill="#d69e4e" d="M 38.5,32.5 C 40.0481,32.8212 40.7148,33.8212 40.5,35.5C 37.7524,35.5983 37.0857,34.5983 38.5,32.5 Z"/></g>
<g><path style="opacity:1" fill="#4e5552" d="M 51.5,21.5 C 52.2625,22.2679 53.2625,22.7679 54.5,23C 53.944,23.3826 53.6107,23.8826 53.5,24.5C 52.1851,25.4756 50.8518,26.4756 49.5,27.5C 49.1667,26.8333 48.8333,26.1667 48.5,25.5C 46.8839,26.1152 45.5505,27.1152 44.5,28.5C 42.9291,27.6906 41.2624,27.3573 39.5,27.5C 39.6495,28.552 39.4828,29.552 39,30.5C 37.3149,32.0175 35.8149,33.6841 34.5,35.5C 36.9803,36.4154 37.6469,37.9154 36.5,40C 34.6866,40.6144 34.3533,40.2811 35.5,39C 34.1667,38.3333 32.8333,37.6667 31.5,37C 33.4372,34.2415 35.1039,31.5749 36.5,29C 34.3143,28.3964 34.1476,27.2297 36,25.5C 38.7656,22.0194 42.2656,20.5194 46.5,21C 47,21.5 47.5,22 48,22.5C 49.0113,21.6634 50.1779,21.33 51.5,21.5 Z"/></g>
<g><path style="opacity:1" fill="#585a57" d="M 38.5,45.5 C 37.8485,46.0906 37.1818,46.7573 36.5,47.5C 35.289,45.5781 33.9557,43.7448 32.5,42C 34.1261,42.1953 35.7928,42.1953 37.5,42C 38.0465,41.0754 38.7132,40.2421 39.5,39.5C 39.8333,39.8333 40.1667,40.1667 40.5,40.5C 39.0499,41.8498 38.3832,43.5165 38.5,45.5 Z"/></g>
<g><path style="opacity:1" fill="#636a61" d="M 60.5,50.5 C 59.5178,49.8592 58.5178,49.1925 57.5,48.5C 56.8933,48.6236 56.56,48.9569 56.5,49.5C 55.8333,49.1667 55.1667,48.8333 54.5,48.5C 52.6048,45.0802 49.9381,44.5802 46.5,47C 44.2528,48.2775 42.2528,49.7775 40.5,51.5C 40.6716,50.5084 40.3382,49.8417 39.5,49.5C 41.7033,46.5614 44.7033,44.8947 48.5,44.5C 49.7991,42.6934 49.6324,41.0268 48,39.5C 44.1657,41.247 41.1657,43.9137 39,47.5C 38.5357,46.9056 38.369,46.2389 38.5,45.5C 41.6177,42.7432 44.6177,39.7432 47.5,36.5C 50.5059,38.3527 53.3393,40.3527 56,42.5C 56.5,42.3333 57,42.1667 57.5,42C 56.142,39.2485 56.8087,38.7485 59.5,40.5C 60.6721,40.0814 61.6721,39.4147 62.5,38.5C 62.8333,38.6667 63.1667,38.8333 63.5,39C 61.4878,42.5481 60.4878,46.3814 60.5,50.5 Z"/></g>
<g><path style="opacity:1" fill="#91360b" d="M 69.5,42.5 C 69.5,44.1667 69.5,45.8333 69.5,47.5C 68.3065,47.0296 67.6399,46.0296 67.5,44.5C 67.2326,42.0239 67.8993,41.3572 69.5,42.5 Z"/></g>
<g><path style="opacity:1" fill="#4a4f47" d="M 54.5,48.5 C 52.5133,53.1459 49.18,54.4793 44.5,52.5C 43.2613,52.9424 42.2613,53.6091 41.5,54.5C 40.596,53.791 40.2627,52.791 40.5,51.5C 42.2528,49.7775 44.2528,48.2775 46.5,47C 49.9381,44.5802 52.6048,45.0802 54.5,48.5 Z"/></g>
<g><path style="opacity:1" fill="#151514" d="M 54.5,48.5 C 55.1667,48.8333 55.8333,49.1667 56.5,49.5C 56.5,49.8333 56.5,50.1667 56.5,50.5C 55.3692,52.7898 53.3692,55.1231 50.5,57.5C 51.868,58.5937 53.0347,58.2603 54,56.5C 54.3446,58.2009 53.6779,59.5342 52,60.5C 49.154,60.5038 46.9873,60.1705 45.5,59.5C 46.0431,59.44 46.3764,59.1067 46.5,58.5C 44.5808,57.3875 42.9142,56.0542 41.5,54.5C 42.2613,53.6091 43.2613,52.9424 44.5,52.5C 49.18,54.4793 52.5133,53.1459 54.5,48.5 Z"/></g>
<g><path style="opacity:1" fill="#6c2f11" d="M 38.5,50.5 C 37.9017,55.56 37.9017,60.56 38.5,65.5C 37.5041,65.5858 36.6708,65.2524 36,64.5C 34.8694,62.2751 34.0361,59.9417 33.5,57.5C 35.7435,56.191 37.4102,53.8576 38.5,50.5 Z"/></g>
<g><path style="opacity:1" fill="#7b634a" d="M 39.5,49.5 C 40.3382,49.8417 40.6716,50.5084 40.5,51.5C 40.2627,52.791 40.596,53.791 41.5,54.5C 42.9142,56.0542 44.5808,57.3875 46.5,58.5C 46.3764,59.1067 46.0431,59.44 45.5,59.5C 45.44,58.9569 45.1067,58.6236 44.5,58.5C 42.6466,60.8092 40.98,63.1425 39.5,65.5C 39.1667,65.5 38.8333,65.5 38.5,65.5C 37.9017,60.56 37.9017,55.56 38.5,50.5C 38.5,49.8333 38.8333,49.5 39.5,49.5 Z"/></g>
<g><path style="opacity:1" fill="#9d662c" d="M 60.5,52.5 C 62.0098,53.7279 63.5098,53.7279 65,52.5C 65.7901,55.634 65.4568,58.634 64,61.5C 63.3292,62.2524 62.4959,62.5858 61.5,62.5C 61.6576,59.0977 61.3242,55.7644 60.5,52.5 Z"/></g>
<g><path style="opacity:1" fill="#42382d" d="M 56.5,50.5 C 57.4009,54.7362 58.4009,59.0695 59.5,63.5C 58.4732,64.8478 57.1398,65.3478 55.5,65C 59.3969,63.589 59.3969,62.4223 55.5,61.5C 53.8034,61.8988 52.1368,62.3988 50.5,63C 50.8333,63.3333 51.1667,63.6667 51.5,64C 49.481,64.4497 47.6477,65.283 46,66.5C 45.6322,65.09 44.7989,64.09 43.5,63.5C 42.4937,63.9377 42.4937,64.6043 43.5,65.5C 42.0416,66.782 40.7082,66.782 39.5,65.5C 40.98,63.1425 42.6466,60.8092 44.5,58.5C 45.1067,58.6236 45.44,58.9569 45.5,59.5C 46.9873,60.1705 49.154,60.5038 52,60.5C 53.6779,59.5342 54.3446,58.2009 54,56.5C 53.0347,58.2603 51.868,58.5937 50.5,57.5C 53.3692,55.1231 55.3692,52.7898 56.5,50.5 Z"/></g>
<g><path style="opacity:1" fill="#917452" d="M 60.5,50.5 C 60.5,51.1667 60.5,51.8333 60.5,52.5C 61.3242,55.7644 61.6576,59.0977 61.5,62.5C 60.8333,62.8333 60.1667,63.1667 59.5,63.5C 58.4009,59.0695 57.4009,54.7362 56.5,50.5C 56.5,50.1667 56.5,49.8333 56.5,49.5C 56.56,48.9569 56.8933,48.6236 57.5,48.5C 58.5178,49.1925 59.5178,49.8592 60.5,50.5 Z"/></g>
<g><path style="opacity:0.004" fill="#e4e5e4" d="M 4.5,65.5 C 3.83333,66.1667 3.83333,66.1667 4.5,65.5 Z"/></g>
<g><path style="opacity:1" fill="#a3a3a3" d="M 38.5,71.5 C 45.5,71.5 52.5,71.5 59.5,71.5C 57.0314,72.3171 54.3647,72.8171 51.5,73C 53.6668,74.7229 56.0002,74.8896 58.5,73.5C 58.5,74.8333 58.5,76.1667 58.5,77.5C 57.5,77.5 56.5,77.5 55.5,77.5C 53.5,77.5 51.5,77.5 49.5,77.5C 46.8249,75.6244 47.1582,74.1244 50.5,73C 46.3123,72.8238 42.3123,72.3238 38.5,71.5 Z"/></g>
<g><path style="opacity:1" fill="#838383" d="M 35.5,74.5 C 38.4582,73.1818 41.7915,73.1818 45.5,74.5C 45.5,75.5 45.5,76.5 45.5,77.5C 41.4373,77.3584 38.104,76.3584 35.5,74.5 Z"/></g>
<g><path style="opacity:1" fill="#767676" d="M 59.5,74.5 C 62.462,74.1167 63.462,75.1167 62.5,77.5C 61.4593,75.0087 60.6259,75.0087 60,77.5C 59.5172,76.552 59.3505,75.552 59.5,74.5 Z"/></g>
<g><path style="opacity:1" fill="#6b6b6b" d="M 41.5,78.5 C 42.2323,79.8083 43.0656,81.1416 44,82.5C 43.9227,81.2624 44.0894,80.2624 44.5,79.5C 46.7273,80.0525 49.0607,80.0525 51.5,79.5C 52.0527,83.4557 52.8861,83.4557 54,79.5C 54.49,80.7932 54.6567,82.1266 54.5,83.5C 53.1667,83.5 51.8333,83.5 50.5,83.5C 50.4042,79.6893 49.7376,79.6893 48.5,83.5C 47.8076,82.9747 47.3076,82.3081 47,81.5C 45.566,83.1355 43.7326,84.1355 41.5,84.5C 41.0702,82.62 41.0702,80.62 41.5,78.5 Z"/></g>
<g><path style="opacity:0.945" fill="#d3d3d3" d="M 30.5,89.5 C 31.9008,89.9709 33.2342,90.6376 34.5,91.5C 33.0977,92.8425 33.4311,93.6758 35.5,94C 34.5,94.3333 33.5,94.6667 32.5,95C 42.1667,95.6667 51.8333,95.6667 61.5,95C 60.5,94.6667 59.5,94.3333 58.5,94C 60.1667,93.6667 61.8333,93.3333 63.5,93C 62.6919,92.6924 62.0253,92.1924 61.5,91.5C 62.6888,90.5713 64.0222,90.238 65.5,90.5C 70.1624,90.9625 74.8291,91.4625 79.5,92C 80.6853,93.353 82.0186,94.5197 83.5,95.5C 82.91,96.7989 81.91,97.6322 80.5,98C 74.0384,99.227 67.7051,100.394 61.5,101.5C 61.1667,101.5 60.8333,101.5 60.5,101.5C 59.5,100.167 58.5,100.167 57.5,101.5C 48.1667,101.5 38.8333,101.5 29.5,101.5C 2.82507,96.7923 3.1584,92.7923 30.5,89.5 Z"/></g>
<g><path style="opacity:1" fill="#b0b0b0" d="M 68.5,88.5 C 67.5,89.1667 66.5,89.8333 65.5,90.5C 64.0222,90.238 62.6888,90.5713 61.5,91.5C 62.0253,92.1924 62.6919,92.6924 63.5,93C 61.8333,93.3333 60.1667,93.6667 58.5,94C 59.5,94.3333 60.5,94.6667 61.5,95C 51.8333,95.6667 42.1667,95.6667 32.5,95C 33.5,94.6667 34.5,94.3333 35.5,94C 33.4311,93.6758 33.0977,92.8425 34.5,91.5C 33.2342,90.6376 31.9008,89.9709 30.5,89.5C 30.1667,89.5 29.8333,89.5 29.5,89.5C 29.6107,88.8826 29.944,88.3826 30.5,88C 27.3388,86.5869 24.3388,84.9203 21.5,83C 20.3044,82.3457 20.3044,81.8457 21.5,81.5C 26.7605,84.9719 32.4271,87.1386 38.5,88C 37.1667,87.3333 35.8333,86.6667 34.5,86C 43.5521,87.0068 52.5521,86.5068 61.5,84.5C 62.5,85.1667 63.5,85.8333 64.5,86.5C 68.1122,85.3605 71.4456,83.6939 74.5,81.5C 75.6956,81.8457 75.6956,82.3457 74.5,83C 72.3295,84.5862 69.9962,85.9196 67.5,87C 68.056,87.3826 68.3893,87.8826 68.5,88.5 Z"/></g>
<g><path style="opacity:1" fill="#828282" d="M 37.5,92.5 C 43.987,91.346 50.6536,91.1794 57.5,92C 50.9542,93.8078 44.2875,93.9744 37.5,92.5 Z"/></g>
</svg>
