<?xml version="1.0" encoding="UTF-8"?>
<!DOCTYPE svg PUBLIC "-//W3C//DTD SVG 1.1//EN" "http://www.w3.org/Graphics/SVG/1.1/DTD/svg11.dtd">
<svg xmlns="http://www.w3.org/2000/svg" version="1.1" width="96px" height="95px" style="shape-rendering:geometricPrecision; text-rendering:geometricPrecision; image-rendering:optimizeQuality; fill-rule:evenodd; clip-rule:evenodd" xmlns:xlink="http://www.w3.org/1999/xlink">
<g><path style="opacity:0.997" fill="#224fec" d="M -0.5,-0.5 C 31.5,-0.5 63.5,-0.5 95.5,-0.5C 95.5,31.1667 95.5,62.8333 95.5,94.5C 63.5,94.5 31.5,94.5 -0.5,94.5C -0.5,62.8333 -0.5,31.1667 -0.5,-0.5 Z"/></g>
<g><path style="opacity:1" fill="#f5f5f6" d="M 65.5,32.5 C 63.8819,29.8291 63.2153,26.8291 63.5,23.5C 61.4471,23.4021 59.7804,24.0687 58.5,25.5C 54.6616,24.0943 50.9949,22.5943 47.5,21C 48.8993,22.0616 49.8993,23.395 50.5,25C 49.7135,27.0989 49.3801,29.2655 49.5,31.5C 48.6787,34.6414 48.1787,37.9748 48,41.5C 47.0797,38.8987 46.413,36.2321 46,33.5C 44.4212,32.2004 43.2545,32.5337 42.5,34.5C 42.1667,34.5 41.8333,34.5 41.5,34.5C 37.0731,32.7878 32.7398,30.7878 28.5,28.5C 27.0319,26.3891 27.3652,24.5557 29.5,23C 32.412,21.7604 35.0787,20.0937 37.5,18C 39.5675,17.3131 41.5675,17.4798 43.5,18.5C 44.2283,16.8068 45.2283,15.3068 46.5,14C 49.8234,11.7557 53.3234,9.92234 57,8.5C 61.3231,9.03251 64.6565,11.0325 67,14.5C 65.9353,20.3834 65.4353,26.3834 65.5,32.5 Z"/></g>
<g><path style="opacity:1" fill="#5d0505" d="M 58.5,25.5 C 58.6664,33.1739 58.4997,40.8406 58,48.5C 55.1207,42.7415 52.2874,37.0748 49.5,31.5C 49.3801,29.2655 49.7135,27.0989 50.5,25C 49.8993,23.395 48.8993,22.0616 47.5,21C 50.9949,22.5943 54.6616,24.0943 58.5,25.5 Z"/></g>
<g><path style="opacity:1" fill="#e92420" d="M 65.5,32.5 C 65.8325,45.5171 65.4991,58.5171 64.5,71.5C 62.6565,73.4604 60.6565,74.127 58.5,73.5C 56.8963,66.8636 54.3963,60.5302 51,54.5C 50.5008,59.1548 50.3342,63.8215 50.5,68.5C 49.5166,72.2984 49.1832,76.2984 49.5,80.5C 47.5,81.5 45.5,82.5 43.5,83.5C 42.5036,67.3419 42.1702,51.0085 42.5,34.5C 43.2545,32.5337 44.4212,32.2004 46,33.5C 46.413,36.2321 47.0797,38.8987 48,41.5C 48.1787,37.9748 48.6787,34.6414 49.5,31.5C 52.2874,37.0748 55.1207,42.7415 58,48.5C 58.4997,40.8406 58.6664,33.1739 58.5,25.5C 59.7804,24.0687 61.4471,23.4021 63.5,23.5C 63.2153,26.8291 63.8819,29.8291 65.5,32.5 Z"/></g>
<g><path style="opacity:1" fill="#5d0107" d="M 28.5,28.5 C 32.7398,30.7878 37.0731,32.7878 41.5,34.5C 41.5,50.8333 41.5,67.1667 41.5,83.5C 37.1454,81.571 32.9788,79.2376 29,76.5C 28.5001,60.5035 28.3334,44.5035 28.5,28.5 Z"/></g>
<g><path style="opacity:1" fill="#940e0e" d="M 41.5,34.5 C 41.8333,34.5 42.1667,34.5 42.5,34.5C 42.1702,51.0085 42.5036,67.3419 43.5,83.5C 42.8333,84.8333 42.1667,84.8333 41.5,83.5C 41.5,67.1667 41.5,50.8333 41.5,34.5 Z"/></g>
<g><path style="opacity:1" fill="#5c0103" d="M 58.5,73.5 C 56.3295,71.9138 53.9962,70.5804 51.5,69.5C 51.5,68.8333 51.1667,68.5 50.5,68.5C 50.3342,63.8215 50.5008,59.1548 51,54.5C 54.3963,60.5302 56.8963,66.8636 58.5,73.5 Z"/></g>
<g><path style="opacity:1" fill="#983a8a" d="M 50.5,68.5 C 51.1667,68.5 51.5,68.8333 51.5,69.5C 50.8333,73.1667 50.1667,76.8333 49.5,80.5C 49.1832,76.2984 49.5166,72.2984 50.5,68.5 Z"/></g>
</svg>
