<?xml version="1.0" encoding="UTF-8"?>
<!DOCTYPE svg PUBLIC "-//W3C//DTD SVG 1.1//EN" "http://www.w3.org/Graphics/SVG/1.1/DTD/svg11.dtd">
<svg xmlns="http://www.w3.org/2000/svg" version="1.1" width="96px" height="96px" style="shape-rendering:geometricPrecision; text-rendering:geometricPrecision; image-rendering:optimizeQuality; fill-rule:evenodd; clip-rule:evenodd" xmlns:xlink="http://www.w3.org/1999/xlink">
<g><path style="opacity:0.993" fill="#fff5f6" d="M 9.5,-0.5 C 34.8333,-0.5 60.1667,-0.5 85.5,-0.5C 89.4321,1.76189 92.7655,4.76189 95.5,8.5C 95.5,34.5 95.5,60.5 95.5,86.5C 92.8333,89.8333 89.8333,92.8333 86.5,95.5C 60.5,95.5 34.5,95.5 8.5,95.5C 5.16667,92.8333 2.16667,89.8333 -0.5,86.5C -0.5,60.8333 -0.5,35.1667 -0.5,9.5C 1.83333,5.16667 5.16667,1.83333 9.5,-0.5 Z"/></g>
<g><path style="opacity:1" fill="#ff4144" d="M 60.5,30.5 C 58.5994,32.7957 56.2661,34.629 53.5,36C 48.8333,36.6667 44.1667,36.6667 39.5,36C 37.6089,34.5576 35.6089,33.3909 33.5,32.5C 35.9314,26.4735 39.2648,20.9735 43.5,16C 48.212,14.5568 52.0453,15.7235 55,19.5C 57.3716,22.9099 59.2049,26.5766 60.5,30.5 Z"/></g>
<g><path style="opacity:1" fill="#ff5044" d="M 62.5,33.5 C 63.1667,34.8333 63.8333,36.1667 64.5,37.5C 60.3979,42.7279 55.0645,46.2279 48.5,48C 53.7643,47.8619 59.0976,47.8619 64.5,48C 57.7481,57.0494 49.0814,59.7161 38.5,56C 34.7612,52.5867 30.7612,49.5867 26.5,47C 28.116,45.9229 29.9493,45.4229 32,45.5C 34.235,45.8252 36.4017,45.9919 38.5,46C 35.3067,43.725 32.9734,40.8916 31.5,37.5C 41.8919,39.0944 52.2252,38.7611 62.5,36.5C 61.3473,35.3132 61.3473,34.3132 62.5,33.5 Z"/></g>
<g><path style="opacity:1" fill="#ff5a43" d="M 60.5,30.5 C 61.4013,31.2905 62.0679,32.2905 62.5,33.5C 61.3473,34.3132 61.3473,35.3132 62.5,36.5C 52.2252,38.7611 41.8919,39.0944 31.5,37.5C 32.9734,40.8916 35.3067,43.725 38.5,46C 36.4017,45.9919 34.235,45.8252 32,45.5C 29.9493,45.4229 28.116,45.9229 26.5,47C 30.7612,49.5867 34.7612,52.5867 38.5,56C 49.0814,59.7161 57.7481,57.0494 64.5,48C 59.0976,47.8619 53.7643,47.8619 48.5,48C 55.0645,46.2279 60.3979,42.7279 64.5,37.5C 68.1509,44.1317 71.8175,50.7984 75.5,57.5C 74.3473,58.3132 74.3473,59.3132 75.5,60.5C 69,60.8333 62.5,61.1667 56,61.5C 45.532,60.9631 35.3654,60.9631 25.5,61.5C 22.8866,61.3566 20.5533,60.6899 18.5,59.5C 23.262,50.3038 28.262,41.3038 33.5,32.5C 35.6089,33.3909 37.6089,34.5576 39.5,36C 44.1667,36.6667 48.8333,36.6667 53.5,36C 56.2661,34.629 58.5994,32.7957 60.5,30.5 Z"/></g>
<g><path style="opacity:1" fill="#ff4344" d="M 75.5,57.5 C 77.931,61.8575 79.931,66.3575 81.5,71C 80.0286,78.1159 75.6953,80.7826 68.5,79C 63.5,75.3333 58.5,71.6667 53.5,68C 49.5,66 45.5,66 41.5,68C 36.5,71.6667 31.5,75.3333 26.5,79C 19.3047,80.7826 14.9714,78.1159 13.5,71C 14.7346,67.0257 16.4012,63.1924 18.5,59.5C 20.5533,60.6899 22.8866,61.3566 25.5,61.5C 35.3654,60.9631 45.532,60.9631 56,61.5C 62.5,61.1667 69,60.8333 75.5,60.5C 74.3473,59.3132 74.3473,58.3132 75.5,57.5 Z"/></g>
</svg>
