<?xml version="1.0" encoding="UTF-8"?>
<!DOCTYPE svg PUBLIC "-//W3C//DTD SVG 1.1//EN" "http://www.w3.org/Graphics/SVG/1.1/DTD/svg11.dtd">
<svg xmlns="http://www.w3.org/2000/svg" version="1.1" width="96px" height="96px" style="shape-rendering:geometricPrecision; text-rendering:geometricPrecision; image-rendering:optimizeQuality; fill-rule:evenodd; clip-rule:evenodd" xmlns:xlink="http://www.w3.org/1999/xlink">
<g><path style="opacity:0.972" fill="#0551ff" d="M 37.5,-0.5 C 44.1667,-0.5 50.8333,-0.5 57.5,-0.5C 77.1667,5.16667 89.8333,17.8333 95.5,37.5C 95.5,44.1667 95.5,50.8333 95.5,57.5C 89.8333,77.1667 77.1667,89.8333 57.5,95.5C 50.8333,95.5 44.1667,95.5 37.5,95.5C 17.8333,89.8333 5.16667,77.1667 -0.5,57.5C -0.5,50.8333 -0.5,44.1667 -0.5,37.5C 5.16667,17.8333 17.8333,5.16667 37.5,-0.5 Z"/></g>
<g><path style="opacity:1" fill="#f3f6ff" d="M 38.5,20.5 C 41.4802,23.1444 44.4802,25.811 47.5,28.5C 50.3174,26.1833 52.9841,23.6833 55.5,21C 59.5,20.3333 63.5,20.3333 67.5,21C 60.9856,27.6814 54.3189,34.1814 47.5,40.5C 42.5,36.1667 37.8333,31.5 33.5,26.5C 35.1897,24.4807 36.8564,22.4807 38.5,20.5 Z"/></g>
<g><path style="opacity:1" fill="#fafbff" d="M 20.5,28.5 C 27.0994,34.7625 33.766,41.0958 40.5,47.5C 36.1667,52.5 31.5,57.1667 26.5,61.5C 24.3501,59.8509 22.3501,58.0176 20.5,56C 23.3497,53.3176 26.0164,50.4843 28.5,47.5C 26.1833,44.6826 23.6833,42.0159 21,39.5C 20.5014,35.8484 20.3347,32.1817 20.5,28.5 Z"/></g>
<g><path style="opacity:0.999" fill="#f6f7ff" d="M 67.5,33.5 C 70.2719,34.4364 72.2719,36.2697 73.5,39C 71.3691,41.9676 69.0358,44.801 66.5,47.5C 68.8167,50.3174 71.3167,52.9841 74,55.5C 74.6667,59.5 74.6667,63.5 74,67.5C 67.3186,60.9856 60.8186,54.3189 54.5,47.5C 58.8551,42.8131 63.1885,38.1464 67.5,33.5 Z"/></g>
<g><path style="opacity:1" fill="#f8f9ff" d="M 46.5,54.5 C 51.9509,59.1138 56.7842,64.1138 61,69.5C 59.3333,71.1667 57.6667,72.8333 56,74.5C 53.3176,71.6503 50.4843,68.9836 47.5,66.5C 44.6826,68.8167 42.0159,71.3167 39.5,74C 35.5,74.6667 31.5,74.6667 27.5,74C 34.036,67.6315 40.3694,61.1315 46.5,54.5 Z"/></g>
</svg>
