<?xml version="1.0" encoding="UTF-8"?>
<!DOCTYPE svg PUBLIC "-//W3C//DTD SVG 1.1//EN" "http://www.w3.org/Graphics/SVG/1.1/DTD/svg11.dtd">
<svg xmlns="http://www.w3.org/2000/svg" version="1.1" width="96px" height="96px" style="shape-rendering:geometricPrecision; text-rendering:geometricPrecision; image-rendering:optimizeQuality; fill-rule:evenodd; clip-rule:evenodd" xmlns:xlink="http://www.w3.org/1999/xlink">
<g><path style="opacity:0.996" fill="#e74141" d="M -0.5,-0.5 C 31.5,-0.5 63.5,-0.5 95.5,-0.5C 95.5,31.5 95.5,63.5 95.5,95.5C 63.5,95.5 31.5,95.5 -0.5,95.5C -0.5,63.5 -0.5,31.5 -0.5,-0.5 Z"/></g>
<g><path style="opacity:0.999" fill="#fefafa" d="M 18.5,10.5 C 22.7535,13.4104 26.7535,16.7437 30.5,20.5C 41.7786,13.9213 53.112,13.9213 64.5,20.5C 68.1667,17.1667 71.8333,13.8333 75.5,10.5C 79.4344,13.2378 82.2677,16.5711 84,20.5C 80.6507,23.682 77.484,27.0154 74.5,30.5C 81.1326,41.663 81.1326,52.8296 74.5,64C 77.8333,67.6667 81.1667,71.3333 84.5,75C 82.1807,77.989 79.8473,80.989 77.5,84C 76.8333,84.6667 76.1667,84.6667 75.5,84C 72.1091,80.2317 68.2758,77.065 64,74.5C 52.4153,80.1437 41.082,79.8104 30,73.5C 26.3182,77.349 22.4849,81.0156 18.5,84.5C 15.1667,81.8333 12.1667,78.8333 9.5,75.5C 13.1667,71.5 16.8333,67.5 20.5,63.5C 13.8551,52.2944 13.8551,41.1277 20.5,30C 17.0522,26.7162 13.7189,23.2162 10.5,19.5C 13.189,16.4802 15.8556,13.4802 18.5,10.5 Z"/></g>
<g><path style="opacity:1" fill="#e84141" d="M 42.5,27.5 C 63.4125,28.6759 70.2458,39.0092 63,58.5C 55.0842,67.2834 45.9175,68.7834 35.5,63C 23.0794,48.3054 25.4127,36.4721 42.5,27.5 Z"/></g>
<g><path style="opacity:1" fill="#fef6f5" d="M 46.5,32.5 C 48.4331,33.6417 49.9331,35.3083 51,37.5C 52.1871,39.0444 52.5205,40.7111 52,42.5C 48.9577,47.4188 45.791,52.2522 42.5,57C 39.5184,57.498 36.5184,57.6646 33.5,57.5C 37.0348,48.7642 41.3681,40.4308 46.5,32.5 Z"/></g>
<g><path style="opacity:1" fill="#fdeded" d="M 54.5,46.5 C 57.5176,48.8176 59.8509,51.8176 61.5,55.5C 61.2907,56.086 60.9574,56.586 60.5,57C 56.8484,57.4986 53.1817,57.6653 49.5,57.5C 50.6809,53.6401 52.3476,49.9734 54.5,46.5 Z"/></g>
</svg>
