<?xml version="1.0" encoding="UTF-8"?>
<!DOCTYPE svg PUBLIC "-//W3C//DTD SVG 1.1//EN" "http://www.w3.org/Graphics/SVG/1.1/DTD/svg11.dtd">
<svg xmlns="http://www.w3.org/2000/svg" version="1.1" width="96px" height="96px" style="shape-rendering:geometricPrecision; text-rendering:geometricPrecision; image-rendering:optimizeQuality; fill-rule:evenodd; clip-rule:evenodd" xmlns:xlink="http://www.w3.org/1999/xlink">
<g><path style="opacity:0.847" fill="#fbf8f5" d="M 65.5,7.5 C 65.5,8.5 65.5,9.5 65.5,10.5C 61.277,10.3394 57.277,11.006 53.5,12.5C 53.5,11.5 53.5,10.5 53.5,9.5C 57.2576,7.74591 61.2576,7.07925 65.5,7.5 Z"/></g>
<g><path style="opacity:0.967" fill="#fcf9f6" d="M 69.5,12.5 C 72.267,12.8702 74.267,14.2036 75.5,16.5C 74.5707,17.3149 73.5707,18.1482 72.5,19C 69.1228,19.4517 65.7895,20.1184 62.5,21C 61.8971,23.0714 60.5638,24.2381 58.5,24.5C 57.791,23.596 56.791,23.2627 55.5,23.5C 54.2706,20.8654 54.2706,18.1987 55.5,15.5C 60.2072,14.1094 64.8739,13.1094 69.5,12.5 Z"/></g>
<g><path style="opacity:0.742" fill="#8fb0b0" d="M 31.5,13.5 C 31.5,14.5 31.5,15.5 31.5,16.5C 30.5489,17.9187 30.2155,19.5853 30.5,21.5C 30.2252,23.8418 29.3919,23.8418 28,21.5C 27.6667,20.1667 27.3333,18.8333 27,17.5C 26.1301,18.1079 25.6301,18.9412 25.5,20C 25.5871,24.162 27.2538,27.3286 30.5,29.5C 30.5,29.8333 30.5,30.1667 30.5,30.5C 28.5168,29.5294 26.5168,28.5294 24.5,27.5C 24.6633,25.1432 24.4966,22.8098 24,20.5C 23.2569,22.6447 22.4235,22.8114 21.5,21C 21.7591,19.7387 22.4258,18.7387 23.5,18C 22.1667,17.6667 20.8333,17.3333 19.5,17C 20.4158,16.7216 21.0825,16.2216 21.5,15.5C 23.8474,14.2843 26.3474,14.2843 29,15.5C 30.0111,14.9444 30.8444,14.2778 31.5,13.5 Z"/></g>
<g><path style="opacity:1" fill="#faf6f0" d="M 46.5,12.5 C 46.5,13.8333 45.8333,14.5 44.5,14.5C 41.4884,15.255 38.8217,16.5884 36.5,18.5C 36.6463,20.9424 35.813,21.6091 34,20.5C 33.6667,18.5 33.3333,16.5 33,14.5C 32.7216,15.4158 32.2216,16.0825 31.5,16.5C 31.5,15.5 31.5,14.5 31.5,13.5C 31.4142,12.5041 31.7476,11.6708 32.5,11C 37.3901,10.0344 42.0568,10.5344 46.5,12.5 Z"/></g>
<g><path style="opacity:1" fill="#ebdeca" d="M 65.5,7.5 C 67.543,8.57935 68.8763,10.246 69.5,12.5C 64.8739,13.1094 60.2072,14.1094 55.5,15.5C 54.2706,18.1987 54.2706,20.8654 55.5,23.5C 50.3666,23.0198 45.3666,23.0198 40.5,23.5C 39.6016,22.8423 38.6016,22.1757 37.5,21.5C 42.233,21.4341 44.5663,19.1008 44.5,14.5C 45.8333,14.5 46.5,13.8333 46.5,12.5C 48.9538,11.7729 51.2872,10.7729 53.5,9.5C 53.5,10.5 53.5,11.5 53.5,12.5C 57.277,11.006 61.277,10.3394 65.5,10.5C 65.5,9.5 65.5,8.5 65.5,7.5 Z"/></g>
<g><path style="opacity:1" fill="#f4ebdc" d="M 44.5,14.5 C 44.5663,19.1008 42.233,21.4341 37.5,21.5C 38.6016,22.1757 39.6016,22.8423 40.5,23.5C 39.9569,23.56 39.6236,23.8933 39.5,24.5C 41.415,26.0712 42.415,28.0712 42.5,30.5C 42.5,30.8333 42.5,31.1667 42.5,31.5C 42.0276,33.5313 41.0276,35.1979 39.5,36.5C 38.6618,36.1583 38.3284,35.4916 38.5,34.5C 38.5,33.1667 38.5,31.8333 38.5,30.5C 38.5,30.1667 38.5,29.8333 38.5,29.5C 39.5624,28.4246 39.5624,27.4246 38.5,26.5C 36.5,27.1667 34.5,27.8333 32.5,28.5C 31.6143,27.675 31.281,26.675 31.5,25.5C 32.9538,23.7367 32.6204,22.4033 30.5,21.5C 30.2155,19.5853 30.5489,17.9187 31.5,16.5C 32.2216,16.0825 32.7216,15.4158 33,14.5C 33.3333,16.5 33.6667,18.5 34,20.5C 35.813,21.6091 36.6463,20.9424 36.5,18.5C 38.8217,16.5884 41.4884,15.255 44.5,14.5 Z"/></g>
<g><path style="opacity:1" fill="#a4bfbe" d="M 21.5,15.5 C 21.0825,16.2216 20.4158,16.7216 19.5,17C 20.8333,17.3333 22.1667,17.6667 23.5,18C 22.4258,18.7387 21.7591,19.7387 21.5,21C 22.4235,22.8114 23.2569,22.6447 24,20.5C 24.4966,22.8098 24.6633,25.1432 24.5,27.5C 24.0472,28.4584 23.3805,29.2917 22.5,30C 20.1902,30.4966 17.8568,30.6633 15.5,30.5C 15.7373,31.791 15.404,32.791 14.5,33.5C 10.5,33.1667 10.5,32.8333 14.5,32.5C 14.0882,30.0274 15.0882,28.6941 17.5,28.5C 20.7286,28.8353 22.2286,27.5019 22,24.5C 18.4109,22.4703 14.5776,21.137 10.5,20.5C 13.4809,17.5124 17.1476,15.8457 21.5,15.5 Z"/></g>
<g><path style="opacity:1" fill="#799291" d="M 30.5,21.5 C 32.6204,22.4033 32.9538,23.7367 31.5,25.5C 30.5655,26.5676 30.2322,27.901 30.5,29.5C 27.2538,27.3286 25.5871,24.162 25.5,20C 25.6301,18.9412 26.1301,18.1079 27,17.5C 27.3333,18.8333 27.6667,20.1667 28,21.5C 29.3919,23.8418 30.2252,23.8418 30.5,21.5 Z"/></g>
<g><path style="opacity:1" fill="#6c867b" d="M 10.5,20.5 C 14.5776,21.137 18.4109,22.4703 22,24.5C 22.2286,27.5019 20.7286,28.8353 17.5,28.5C 17.1344,27.3054 16.301,26.6387 15,26.5C 13.6315,27.7026 12.1315,28.7026 10.5,29.5C 9.30499,27.8794 8.30499,26.2128 7.5,24.5C 7.73758,22.5956 8.73758,21.2623 10.5,20.5 Z"/></g>
<g><path style="opacity:1" fill="#efe1cd" d="M 75.5,16.5 C 75.8333,16.5 76.1667,16.5 76.5,16.5C 76.8039,17.1499 77.1373,17.8165 77.5,18.5C 76.1152,19.5505 75.1152,20.8839 74.5,22.5C 70.0073,23.1387 65.674,24.1387 61.5,25.5C 60.2739,25.4805 59.2739,25.1471 58.5,24.5C 60.5638,24.2381 61.8971,23.0714 62.5,21C 65.7895,20.1184 69.1228,19.4517 72.5,19C 73.5707,18.1482 74.5707,17.3149 75.5,16.5 Z"/></g>
<g><path style="opacity:1" fill="#d7c6a9" d="M 76.5,16.5 C 78.9726,16.0882 80.3059,17.0882 80.5,19.5C 80.5,20.5 80.5,21.5 80.5,22.5C 72.896,27.4814 64.5627,29.1481 55.5,27.5C 55.0618,27.5654 54.7284,27.3988 54.5,27C 55.4709,25.5187 56.8042,24.6854 58.5,24.5C 59.2739,25.1471 60.2739,25.4805 61.5,25.5C 65.674,24.1387 70.0073,23.1387 74.5,22.5C 75.1152,20.8839 76.1152,19.5505 77.5,18.5C 77.1373,17.8165 76.8039,17.1499 76.5,16.5 Z"/></g>
<g><path style="opacity:1" fill="#e8e1d1" d="M 55.5,23.5 C 56.791,23.2627 57.791,23.596 58.5,24.5C 56.8042,24.6854 55.4709,25.5187 54.5,27C 54.7284,27.3988 55.0618,27.5654 55.5,27.5C 54.9423,28.7899 53.9423,29.6232 52.5,30C 49.0594,30.0161 45.7261,30.1828 42.5,30.5C 42.415,28.0712 41.415,26.0712 39.5,24.5C 39.6236,23.8933 39.9569,23.56 40.5,23.5C 45.3666,23.0198 50.3666,23.0198 55.5,23.5 Z"/></g>
<g><path style="opacity:1" fill="#152b31" d="M 38.5,29.5 C 38.5,29.8333 38.5,30.1667 38.5,30.5C 36.901,30.7678 35.5676,30.4345 34.5,29.5C 35.7054,28.3143 37.0387,28.3143 38.5,29.5 Z"/></g>
<g><path style="opacity:1" fill="#2d4b53" d="M 80.5,22.5 C 80.9382,22.4346 81.2716,22.6012 81.5,23C 77.6238,26.7956 72.9571,28.9622 67.5,29.5C 64.1449,30.6182 60.8116,30.6182 57.5,29.5C 52.7642,31.0055 47.9308,32.0055 43,32.5C 42.6012,32.2716 42.4346,31.9382 42.5,31.5C 42.5,31.1667 42.5,30.8333 42.5,30.5C 45.7261,30.1828 49.0594,30.0161 52.5,30C 53.9423,29.6232 54.9423,28.7899 55.5,27.5C 64.5627,29.1481 72.896,27.4814 80.5,22.5 Z"/></g>
<g><path style="opacity:1" fill="#7a9292" d="M 82.5,23.5 C 84.0395,25.8383 84.7062,28.5049 84.5,31.5C 82.8333,32.1667 81.1667,32.8333 79.5,33.5C 78.8466,32.1932 78.1799,30.8599 77.5,29.5C 79.1897,27.4807 80.8564,25.4807 82.5,23.5 Z"/></g>
<g><path style="opacity:1" fill="#d8ceb9" d="M 31.5,25.5 C 31.281,26.675 31.6143,27.675 32.5,28.5C 34.5,27.8333 36.5,27.1667 38.5,26.5C 39.5624,27.4246 39.5624,28.4246 38.5,29.5C 37.0387,28.3143 35.7054,28.3143 34.5,29.5C 33.596,30.209 33.2627,31.209 33.5,32.5C 33.5,33.5 33.5,34.5 33.5,35.5C 32.4519,39.2644 31.1185,42.931 29.5,46.5C 28.5,46.5 27.5,46.5 26.5,46.5C 26.1961,45.8501 25.8627,45.1835 25.5,44.5C 26.8029,42.0324 28.3029,39.699 30,37.5C 30.49,36.2068 30.6567,34.8734 30.5,33.5C 30.5,32.5 30.5,31.5 30.5,30.5C 30.5,30.1667 30.5,29.8333 30.5,29.5C 30.2322,27.901 30.5655,26.5676 31.5,25.5 Z"/></g>
<g><path style="opacity:1" fill="#354a42" d="M 24.5,27.5 C 26.5168,28.5294 28.5168,29.5294 30.5,30.5C 30.5,31.5 30.5,32.5 30.5,33.5C 25.92,30.3755 23.5867,31.7088 23.5,37.5C 23.1667,37.5 22.8333,37.5 22.5,37.5C 22.3399,33.7636 21.5066,33.7636 20,37.5C 19.9409,42.3481 19.2742,47.0148 18,51.5C 17.8299,45.8042 17.3299,40.1376 16.5,34.5C 15.8182,35.2427 15.1515,35.9094 14.5,36.5C 13.8333,36.1667 13.1667,35.8333 12.5,35.5C 13.1667,34.8333 13.8333,34.1667 14.5,33.5C 15.404,32.791 15.7373,31.791 15.5,30.5C 17.8568,30.6633 20.1902,30.4966 22.5,30C 23.3805,29.2917 24.0472,28.4584 24.5,27.5 Z"/></g>
<g><path style="opacity:1" fill="#70898a" d="M 67.5,29.5 C 67.5,31.5 67.5,33.5 67.5,35.5C 63.2174,36.0106 59.2174,35.3439 55.5,33.5C 54.8933,33.6236 54.56,33.9569 54.5,34.5C 50.7844,35.3194 47.1178,35.3194 43.5,34.5C 42.7025,34.9569 42.3691,35.6236 42.5,36.5C 42.5,37.1667 42.1667,37.5 41.5,37.5C 40.5084,37.6716 39.8417,37.3382 39.5,36.5C 41.0276,35.1979 42.0276,33.5313 42.5,31.5C 42.4346,31.9382 42.6012,32.2716 43,32.5C 47.9308,32.0055 52.7642,31.0055 57.5,29.5C 60.8116,30.6182 64.1449,30.6182 67.5,29.5 Z"/></g>
<g><path style="opacity:1" fill="#708b81" d="M 7.5,24.5 C 8.30499,26.2128 9.30499,27.8794 10.5,29.5C 12.1315,28.7026 13.6315,27.7026 15,26.5C 16.301,26.6387 17.1344,27.3054 17.5,28.5C 15.0882,28.6941 14.0882,30.0274 14.5,32.5C 10.5,32.8333 10.5,33.1667 14.5,33.5C 13.8333,34.1667 13.1667,34.8333 12.5,35.5C 11.5272,36.7914 10.5272,36.7914 9.5,35.5C 8.69221,37.4233 8.19221,39.4233 8,41.5C 7.84421,38.8091 7.01088,36.4758 5.5,34.5C 5.16667,34.5 4.83333,34.5 4.5,34.5C 4.59025,30.7858 5.59025,27.4525 7.5,24.5 Z"/></g>
<g><path style="opacity:1" fill="#6c8b8d" d="M 34.5,29.5 C 35.5676,30.4345 36.901,30.7678 38.5,30.5C 38.5,31.8333 38.5,33.1667 38.5,34.5C 36.8333,33.8333 35.1667,33.1667 33.5,32.5C 33.2627,31.209 33.596,30.209 34.5,29.5 Z"/></g>
<g><path style="opacity:1" fill="#8aa19e" d="M 30.5,33.5 C 30.6567,34.8734 30.49,36.2068 30,37.5C 28.3029,39.699 26.8029,42.0324 25.5,44.5C 25.8627,45.1835 26.1961,45.8501 26.5,46.5C 25.2486,47.472 25.582,48.1386 27.5,48.5C 28.7133,48.2528 29.38,47.5862 29.5,46.5C 30.5,45.8333 31.5,45.1667 32.5,44.5C 31.8505,46.4352 31.5172,48.4352 31.5,50.5C 30.71,51.6085 30.21,52.9419 30,54.5C 28.6325,52.1854 27.7991,52.1854 27.5,54.5C 28.5856,57.4196 29.2523,60.4196 29.5,63.5C 27.2494,60.0742 25.5827,56.4075 24.5,52.5C 24.1667,52.5 23.8333,52.5 23.5,52.5C 23.5,47.5 23.5,42.5 23.5,37.5C 23.5867,31.7088 25.92,30.3755 30.5,33.5 Z"/></g>
<g><path style="opacity:1" fill="#36453f" d="M 84.5,31.5 C 83.7659,32.7079 83.4326,34.0413 83.5,35.5C 76.5345,37.3788 69.5345,39.0455 62.5,40.5C 55.9309,39.2694 49.2642,37.936 42.5,36.5C 42.3691,35.6236 42.7025,34.9569 43.5,34.5C 47.1178,35.3194 50.7844,35.3194 54.5,34.5C 55.8738,36.9588 58.0405,37.9588 61,37.5C 67.4353,37.2263 73.6019,35.8929 79.5,33.5C 81.1667,32.8333 82.8333,32.1667 84.5,31.5 Z"/></g>
<g><path style="opacity:1" fill="#90acaf" d="M 80.5,19.5 C 81.6737,20.5137 82.3404,21.847 82.5,23.5C 80.8564,25.4807 79.1897,27.4807 77.5,29.5C 78.1799,30.8599 78.8466,32.1932 79.5,33.5C 73.6019,35.8929 67.4353,37.2263 61,37.5C 58.0405,37.9588 55.8738,36.9588 54.5,34.5C 54.56,33.9569 54.8933,33.6236 55.5,33.5C 59.2174,35.3439 63.2174,36.0106 67.5,35.5C 67.5,33.5 67.5,31.5 67.5,29.5C 72.9571,28.9622 77.6238,26.7956 81.5,23C 81.2716,22.6012 80.9382,22.4346 80.5,22.5C 80.5,21.5 80.5,20.5 80.5,19.5 Z"/></g>
<g><path style="opacity:1" fill="#78938b" d="M 5.5,34.5 C 7.01088,36.4758 7.84421,38.8091 8,41.5C 8.19221,39.4233 8.69221,37.4233 9.5,35.5C 10.5272,36.7914 11.5272,36.7914 12.5,35.5C 13.1667,35.8333 13.8333,36.1667 14.5,36.5C 15.0139,43.6561 15.6805,50.6561 16.5,57.5C 16.5,58.1667 16.5,58.8333 16.5,59.5C 14.2721,58.6782 13.6054,57.3448 14.5,55.5C 13.8776,50.1861 13.211,44.8527 12.5,39.5C 8.55647,44.8587 8.55647,50.1921 12.5,55.5C 11.7542,56.7362 11.4208,58.0695 11.5,59.5C 10.2101,58.9423 9.37675,57.9423 9,56.5C 6.07887,49.4504 4.9122,42.1171 5.5,34.5 Z"/></g>
<g><path style="opacity:1" fill="#4a6162" d="M 33.5,35.5 C 34.6946,35.8656 35.3613,36.699 35.5,38C 34.588,40.3172 33.588,42.4839 32.5,44.5C 31.5,45.1667 30.5,45.8333 29.5,46.5C 31.1185,42.931 32.4519,39.2644 33.5,35.5 Z"/></g>
<g><path style="opacity:1" fill="#455455" d="M 22.5,37.5 C 21.8335,42.6813 21.1668,48.0147 20.5,53.5C 18.6253,54.4095 17.292,55.7428 16.5,57.5C 15.6805,50.6561 15.0139,43.6561 14.5,36.5C 15.1515,35.9094 15.8182,35.2427 16.5,34.5C 17.3299,40.1376 17.8299,45.8042 18,51.5C 19.2742,47.0148 19.9409,42.3481 20,37.5C 21.5066,33.7636 22.3399,33.7636 22.5,37.5 Z"/></g>
<g><path style="opacity:1" fill="#683328" d="M 83.5,35.5 C 87.0527,36.3982 88.7194,38.7315 88.5,42.5C 86.8583,40.9192 84.8583,40.2525 82.5,40.5C 79.5185,40.1824 77.1852,41.1824 75.5,43.5C 69.6899,44.7109 64.0233,44.7109 58.5,43.5C 60.5273,43.6621 62.5273,43.4955 64.5,43C 60.5841,41.8976 56.5841,41.231 52.5,41C 55.8168,40.5017 59.1501,40.335 62.5,40.5C 69.5345,39.0455 76.5345,37.3788 83.5,35.5 Z"/></g>
<g><path style="opacity:1" fill="#602f26" d="M 42.5,36.5 C 49.2642,37.936 55.9309,39.2694 62.5,40.5C 59.1501,40.335 55.8168,40.5017 52.5,41C 56.5841,41.231 60.5841,41.8976 64.5,43C 62.5273,43.4955 60.5273,43.6621 58.5,43.5C 57.1667,43.5 55.8333,43.5 54.5,43.5C 51.5167,42.6125 48.3501,41.9458 45,41.5C 42.0022,42.4266 42.1689,43.4266 45.5,44.5C 45.5,44.8333 45.5,45.1667 45.5,45.5C 46.4614,47.2646 46.7947,49.2646 46.5,51.5C 44.1432,51.6633 41.8098,51.4966 39.5,51C 38.7476,50.3292 38.4142,49.4959 38.5,48.5C 38.6495,47.448 38.4828,46.448 38,45.5C 35.8911,47.9588 35.3911,50.6254 36.5,53.5C 35.5041,53.5858 34.6708,53.2524 34,52.5C 33.3333,50.5 33.3333,48.5 34,46.5C 35.4601,44.028 36.4601,41.3613 37,38.5C 38.5206,38.4814 40.0206,38.148 41.5,37.5C 42.1667,37.5 42.5,37.1667 42.5,36.5 Z"/></g>
<g><path style="opacity:1" fill="#d19d71" d="M 54.5,43.5 C 55.8333,43.5 57.1667,43.5 58.5,43.5C 64.0233,44.7109 69.6899,44.7109 75.5,43.5C 77.1788,43.2852 78.1788,43.9519 78.5,45.5C 75.3864,46.0913 72.8864,47.758 71,50.5C 70.3292,49.7476 69.4959,49.4142 68.5,49.5C 68.0679,48.2905 67.4013,47.2905 66.5,46.5C 61.1395,45.9008 55.8061,45.0674 50.5,44C 51.7932,43.51 53.1266,43.3433 54.5,43.5 Z"/></g>
<g><path style="opacity:1" fill="#5f7685" d="M 82.5,40.5 C 84.8583,40.2525 86.8583,40.9192 88.5,42.5C 88.7271,44.9328 87.7271,46.5994 85.5,47.5C 82.0504,48.2436 80.3838,46.9103 80.5,43.5C 81.1667,42.5 81.8333,41.5 82.5,40.5 Z"/></g>
<g><path style="opacity:1" fill="#cae9e8" d="M 83.5,42.5 C 84.675,42.281 85.675,42.6143 86.5,43.5C 84.9483,44.7979 83.9483,44.4646 83.5,42.5 Z"/></g>
<g><path style="opacity:1" fill="#9d604c" d="M 54.5,43.5 C 53.1266,43.3433 51.7932,43.51 50.5,44C 55.8061,45.0674 61.1395,45.9008 66.5,46.5C 62.2343,50.439 57.2343,51.439 51.5,49.5C 53.8277,47.4257 53.1611,46.4257 49.5,46.5C 48.4863,45.3263 47.153,44.6596 45.5,44.5C 42.1689,43.4266 42.0022,42.4266 45,41.5C 48.3501,41.9458 51.5167,42.6125 54.5,43.5 Z"/></g>
<g><path style="opacity:1" fill="#2d474b" d="M 26.5,46.5 C 27.5,46.5 28.5,46.5 29.5,46.5C 29.38,47.5862 28.7133,48.2528 27.5,48.5C 25.582,48.1386 25.2486,47.472 26.5,46.5 Z"/></g>
<g><path style="opacity:1" fill="#6b8a96" d="M 45.5,45.5 C 45.5,47.1667 45.5,48.8333 45.5,50.5C 43.8333,50.5 42.1667,50.5 40.5,50.5C 39.8333,46.5 41.5,44.8333 45.5,45.5 Z"/></g>
<g><path style="opacity:1" fill="#b88163" d="M 49.5,46.5 C 53.1611,46.4257 53.8277,47.4257 51.5,49.5C 57.2343,51.439 62.2343,50.439 66.5,46.5C 67.4013,47.2905 68.0679,48.2905 68.5,49.5C 62.9983,51.2903 57.3316,52.2903 51.5,52.5C 49.9192,50.8583 49.2525,48.8583 49.5,46.5 Z"/></g>
<g><path style="opacity:1" fill="#844b39" d="M 80.5,43.5 C 80.3838,46.9103 82.0504,48.2436 85.5,47.5C 84.5,49.1667 83.1667,50.5 81.5,51.5C 80.5,51.5 79.5,51.5 78.5,51.5C 74.7714,50.2872 74.9381,48.9539 79,47.5C 79.21,45.9419 79.71,44.6085 80.5,43.5 Z"/></g>
<g><path style="opacity:1" fill="#7f4133" d="M 45.5,45.5 C 45.5,45.1667 45.5,44.8333 45.5,44.5C 47.153,44.6596 48.4863,45.3263 49.5,46.5C 49.2525,48.8583 49.9192,50.8583 51.5,52.5C 47.5878,53.0012 43.5878,53.0012 39.5,52.5C 38.4138,52.38 37.7472,51.7133 37.5,50.5C 37.5427,49.5836 37.8761,48.9169 38.5,48.5C 38.4142,49.4959 38.7476,50.3292 39.5,51C 41.8098,51.4966 44.1432,51.6633 46.5,51.5C 46.7947,49.2646 46.4614,47.2646 45.5,45.5 Z"/></g>
<g><path style="opacity:1" fill="#708d81" d="M 16.5,59.5 C 18.8774,61.0395 21.3774,62.3728 24,63.5C 24.6353,65.6178 25.4686,67.6178 26.5,69.5C 26.0576,70.7387 25.3909,71.7387 24.5,72.5C 23.2905,72.0679 22.2905,71.4013 21.5,70.5C 21.6107,69.8826 21.944,69.3826 22.5,69C 17.9332,66.7402 14.2665,63.5736 11.5,59.5C 11.4208,58.0695 11.7542,56.7362 12.5,55.5C 8.55647,50.1921 8.55647,44.8587 12.5,39.5C 13.211,44.8527 13.8776,50.1861 14.5,55.5C 13.6054,57.3448 14.2721,58.6782 16.5,59.5 Z"/></g>
<g><path style="opacity:1" fill="#aa6e54" d="M 82.5,40.5 C 81.8333,41.5 81.1667,42.5 80.5,43.5C 79.71,44.6085 79.21,45.9419 79,47.5C 74.9381,48.9539 74.7714,50.2872 78.5,51.5C 78.1667,52.5 77.5,53.1667 76.5,53.5C 75.5398,52.4848 74.3731,52.4848 73,53.5C 71.9701,53.1639 71.4701,52.4972 71.5,51.5C 73.8585,49.4707 76.1918,47.4707 78.5,45.5C 78.1788,43.9519 77.1788,43.2852 75.5,43.5C 77.1852,41.1824 79.5185,40.1824 82.5,40.5 Z"/></g>
<g><path style="opacity:1" fill="#8b9891" d="M 38.5,48.5 C 37.8761,48.9169 37.5427,49.5836 37.5,50.5C 37.7472,51.7133 38.4138,52.38 39.5,52.5C 39.5,52.8333 39.5,53.1667 39.5,53.5C 38.5,53.5 37.5,53.5 36.5,53.5C 35.3911,50.6254 35.8911,47.9588 38,45.5C 38.4828,46.448 38.6495,47.448 38.5,48.5 Z"/></g>
<g><path style="opacity:1" fill="#d49f71" d="M 71.5,51.5 C 71.4701,52.4972 71.9701,53.1639 73,53.5C 74.3731,52.4848 75.5398,52.4848 76.5,53.5C 70.9962,56.7074 64.9962,58.0407 58.5,57.5C 61.0227,56.7463 63.6894,56.0796 66.5,55.5C 67.2978,53.9223 67.7978,52.2556 68,50.5C 69.0113,51.3366 70.1779,51.67 71.5,51.5 Z"/></g>
<g><path style="opacity:1" fill="#3c5450" d="M 22.5,37.5 C 22.8333,37.5 23.1667,37.5 23.5,37.5C 23.5,42.5 23.5,47.5 23.5,52.5C 23.267,57.0345 24.1003,61.3678 26,65.5C 26.7083,66.3805 27.5416,67.0472 28.5,67.5C 29.1667,67.5 29.5,67.8333 29.5,68.5C 30.2485,70.3325 31.2485,71.9991 32.5,73.5C 29.6146,73.8064 26.9479,73.4731 24.5,72.5C 25.3909,71.7387 26.0576,70.7387 26.5,69.5C 25.4686,67.6178 24.6353,65.6178 24,63.5C 21.3774,62.3728 18.8774,61.0395 16.5,59.5C 16.5,58.8333 16.5,58.1667 16.5,57.5C 17.292,55.7428 18.6253,54.4095 20.5,53.5C 21.1668,48.0147 21.8335,42.6813 22.5,37.5 Z"/></g>
<g><path style="opacity:1" fill="#b9d2cd" d="M 24.5,52.5 C 25.5827,56.4075 27.2494,60.0742 29.5,63.5C 29.5,63.8333 29.5,64.1667 29.5,64.5C 30.3543,66.035 30.3543,67.3684 29.5,68.5C 29.5,67.8333 29.1667,67.5 28.5,67.5C 25.9594,62.8697 24.6261,57.8697 24.5,52.5 Z"/></g>
<g><path style="opacity:1" fill="#394946" d="M 33.5,32.5 C 35.1667,33.1667 36.8333,33.8333 38.5,34.5C 38.3284,35.4916 38.6618,36.1583 39.5,36.5C 39.8417,37.3382 40.5084,37.6716 41.5,37.5C 40.0206,38.148 38.5206,38.4814 37,38.5C 36.4601,41.3613 35.4601,44.028 34,46.5C 33.3333,48.5 33.3333,50.5 34,52.5C 34.6708,53.2524 35.5041,53.5858 36.5,53.5C 37.5,53.5 38.5,53.5 39.5,53.5C 40.4916,53.3284 41.1583,53.6618 41.5,54.5C 38.6135,54.6099 36.2802,55.7766 34.5,58C 34.8082,59.4595 35.4749,60.6261 36.5,61.5C 36.9887,62.9952 37.6554,64.3285 38.5,65.5C 39.086,67.8398 40.086,70.0065 41.5,72C 45.7901,72.9225 50.1234,73.4225 54.5,73.5C 58.5,73.5 62.5,73.5 66.5,73.5C 71.8427,73.2485 76.8427,71.9152 81.5,69.5C 80.8902,70.391 80.5569,71.391 80.5,72.5C 76.2811,73.0532 72.2811,74.2199 68.5,76C 61.4952,76.3334 54.4952,76.1667 47.5,75.5C 44.9773,74.7463 42.3106,74.0796 39.5,73.5C 37.6182,68.7488 35.4516,64.0821 33,59.5C 32.304,56.5219 31.804,53.5219 31.5,50.5C 31.5172,48.4352 31.8505,46.4352 32.5,44.5C 33.588,42.4839 34.588,40.3172 35.5,38C 35.3613,36.699 34.6946,35.8656 33.5,35.5C 33.5,34.5 33.5,33.5 33.5,32.5 Z"/></g>
<g><path style="opacity:1" fill="#9c5f4b" d="M 78.5,45.5 C 76.1918,47.4707 73.8585,49.4707 71.5,51.5C 70.1779,51.67 69.0113,51.3366 68,50.5C 67.7978,52.2556 67.2978,53.9223 66.5,55.5C 63.6894,56.0796 61.0227,56.7463 58.5,57.5C 52.7244,57.1307 47.0577,56.1307 41.5,54.5C 41.1583,53.6618 40.4916,53.3284 39.5,53.5C 39.5,53.1667 39.5,52.8333 39.5,52.5C 43.5878,53.0012 47.5878,53.0012 51.5,52.5C 57.3316,52.2903 62.9983,51.2903 68.5,49.5C 69.4959,49.4142 70.3292,49.7476 71,50.5C 72.8864,47.758 75.3864,46.0913 78.5,45.5 Z"/></g>
<g><path style="opacity:1" fill="#602d23" d="M 78.5,51.5 C 79.5,51.5 80.5,51.5 81.5,51.5C 86.5951,53.1757 88.4284,56.8424 87,62.5C 86.3021,63.6906 85.4687,64.6906 84.5,65.5C 82.4352,65.5172 80.4352,65.8505 78.5,66.5C 77.701,63.5701 77.3677,60.5701 77.5,57.5C 75.901,57.2322 74.5676,57.5655 73.5,58.5C 73.1667,58.5 72.8333,58.5 72.5,58.5C 70.7085,58.366 69.0418,58.6993 67.5,59.5C 64.5,58.8333 61.5,58.1667 58.5,57.5C 64.9962,58.0407 70.9962,56.7074 76.5,53.5C 77.5,53.1667 78.1667,52.5 78.5,51.5 Z"/></g>
<g><path style="opacity:1" fill="#4d9491" d="M 23.5,52.5 C 23.8333,52.5 24.1667,52.5 24.5,52.5C 24.6261,57.8697 25.9594,62.8697 28.5,67.5C 27.5416,67.0472 26.7083,66.3805 26,65.5C 24.1003,61.3678 23.267,57.0345 23.5,52.5 Z"/></g>
<g><path style="opacity:1" fill="#602d24" d="M 41.5,54.5 C 47.0577,56.1307 52.7244,57.1307 58.5,57.5C 61.5,58.1667 64.5,58.8333 67.5,59.5C 59.5856,60.4672 51.5856,60.8005 43.5,60.5C 42.5514,59.8476 41.3847,59.5143 40,59.5C 38.3189,59.6083 37.1522,60.2749 36.5,61.5C 35.4749,60.6261 34.8082,59.4595 34.5,58C 36.2802,55.7766 38.6135,54.6099 41.5,54.5 Z"/></g>
<g><path style="opacity:1" fill="#94b3b7" d="M 81.5,57.5 C 84.2436,58.0717 85.0769,59.7383 84,62.5C 82.8904,64.0368 81.3904,64.7035 79.5,64.5C 79.1849,61.7892 79.8516,59.4559 81.5,57.5 Z"/></g>
<g><path style="opacity:0.067" fill="#98deda" d="M 4.5,34.5 C 4.83333,34.5 5.16667,34.5 5.5,34.5C 4.9122,42.1171 6.07887,49.4504 9,56.5C 9.37675,57.9423 10.2101,58.9423 11.5,59.5C 14.2665,63.5736 17.9332,66.7402 22.5,69C 21.944,69.3826 21.6107,69.8826 21.5,70.5C 16.7365,68.3646 12.5698,65.3646 9,61.5C 5.14703,52.8938 3.64703,43.8938 4.5,34.5 Z"/></g>
<g><path style="opacity:1" fill="#c89168" d="M 72.5,58.5 C 72.8333,58.5 73.1667,58.5 73.5,58.5C 74.2891,58.7828 74.9558,59.2828 75.5,60C 73.8333,60.3333 72.1667,60.6667 70.5,61C 71.9733,61.7096 72.6399,62.8762 72.5,64.5C 67.1374,64.9494 61.804,65.6161 56.5,66.5C 59.5035,64.7383 62.8368,63.5717 66.5,63C 68.4072,61.2436 70.4072,59.7436 72.5,58.5 Z"/></g>
<g><path style="opacity:1" fill="#84493a" d="M 73.5,58.5 C 74.5676,57.5655 75.901,57.2322 77.5,57.5C 77.3677,60.5701 77.701,63.5701 78.5,66.5C 74.0414,68.6893 71.3747,69.356 70.5,68.5C 70.719,67.325 70.3857,66.325 69.5,65.5C 65.7888,66.3749 62.1221,67.3749 58.5,68.5C 54.2081,66.5753 49.8748,64.5753 45.5,62.5C 43.2385,63.0953 41.5719,64.4286 40.5,66.5C 39.7784,66.0825 39.2784,65.4158 39,64.5C 38.6012,64.7284 38.4346,65.0618 38.5,65.5C 37.6554,64.3285 36.9887,62.9952 36.5,61.5C 37.1522,60.2749 38.3189,59.6083 40,59.5C 41.3847,59.5143 42.5514,59.8476 43.5,60.5C 44.3122,61.5942 47.3122,62.0942 52.5,62C 53.1552,64.159 54.4885,65.659 56.5,66.5C 61.804,65.6161 67.1374,64.9494 72.5,64.5C 72.6399,62.8762 71.9733,61.7096 70.5,61C 72.1667,60.6667 73.8333,60.3333 75.5,60C 74.9558,59.2828 74.2891,58.7828 73.5,58.5 Z"/></g>
<g><path style="opacity:1" fill="#9f634d" d="M 72.5,58.5 C 70.4072,59.7436 68.4072,61.2436 66.5,63C 62.8368,63.5717 59.5035,64.7383 56.5,66.5C 54.4885,65.659 53.1552,64.159 52.5,62C 47.3122,62.0942 44.3122,61.5942 43.5,60.5C 51.5856,60.8005 59.5856,60.4672 67.5,59.5C 69.0418,58.6993 70.7085,58.366 72.5,58.5 Z"/></g>
<g><path style="opacity:1" fill="#647d7f" d="M 31.5,50.5 C 31.804,53.5219 32.304,56.5219 33,59.5C 35.4516,64.0821 37.6182,68.7488 39.5,73.5C 42.3106,74.0796 44.9773,74.7463 47.5,75.5C 46.8333,75.5 46.5,75.8333 46.5,76.5C 42.7802,76.4358 39.1135,75.9358 35.5,75C 34.944,74.6174 34.6107,74.1174 34.5,73.5C 35.525,73.1034 35.6917,72.4368 35,71.5C 33.3029,68.98 31.4695,66.6467 29.5,64.5C 29.5,64.1667 29.5,63.8333 29.5,63.5C 29.2523,60.4196 28.5856,57.4196 27.5,54.5C 27.7991,52.1854 28.6325,52.1854 30,54.5C 30.21,52.9419 30.71,51.6085 31.5,50.5 Z"/></g>
<g><path style="opacity:1" fill="#6a3328" d="M 58.5,68.5 C 56.8102,68.8564 55.8102,69.8564 55.5,71.5C 51.1539,71.6657 46.8206,71.499 42.5,71C 41.4178,69.6703 40.7512,68.1703 40.5,66.5C 41.5719,64.4286 43.2385,63.0953 45.5,62.5C 49.8748,64.5753 54.2081,66.5753 58.5,68.5 Z"/></g>
<g><path style="opacity:1" fill="#76949f" d="M 43.5,64.5 C 47.6759,63.8307 49.0093,65.3307 47.5,69C 45.8659,69.4935 44.1992,69.6602 42.5,69.5C 42.366,67.7085 42.6993,66.0418 43.5,64.5 Z"/></g>
<g><path style="opacity:1" fill="#b1775a" d="M 78.5,66.5 C 80.4352,65.8505 82.4352,65.5172 84.5,65.5C 84.1667,66.5 83.5,67.1667 82.5,67.5C 76.7188,68.6 71.3855,70.6 66.5,73.5C 62.5,73.5 58.5,73.5 54.5,73.5C 54.8333,72.8333 55.1667,72.1667 55.5,71.5C 55.8102,69.8564 56.8102,68.8564 58.5,68.5C 62.1221,67.3749 65.7888,66.3749 69.5,65.5C 70.3857,66.325 70.719,67.325 70.5,68.5C 71.3747,69.356 74.0414,68.6893 78.5,66.5 Z"/></g>
<g><path style="opacity:1" fill="#a3b19c" d="M 29.5,64.5 C 31.4695,66.6467 33.3029,68.98 35,71.5C 35.6917,72.4368 35.525,73.1034 34.5,73.5C 33.8333,73.5 33.1667,73.5 32.5,73.5C 31.2485,71.9991 30.2485,70.3325 29.5,68.5C 30.3543,67.3684 30.3543,66.035 29.5,64.5 Z"/></g>
<g><path style="opacity:1" fill="#54231a" d="M 82.5,67.5 C 82.1667,68.1667 81.8333,68.8333 81.5,69.5C 76.8427,71.9152 71.8427,73.2485 66.5,73.5C 71.3855,70.6 76.7188,68.6 82.5,67.5 Z"/></g>
<g><path style="opacity:1" fill="#b28b7c" d="M 40.5,66.5 C 40.7512,68.1703 41.4178,69.6703 42.5,71C 46.8206,71.499 51.1539,71.6657 55.5,71.5C 55.1667,72.1667 54.8333,72.8333 54.5,73.5C 50.1234,73.4225 45.7901,72.9225 41.5,72C 40.086,70.0065 39.086,67.8398 38.5,65.5C 38.4346,65.0618 38.6012,64.7284 39,64.5C 39.2784,65.4158 39.7784,66.0825 40.5,66.5 Z"/></g>
<g><path style="opacity:1" fill="#849c9d" d="M 80.5,72.5 C 80.0679,73.7095 79.4013,74.7095 78.5,75.5C 73.3157,77.1275 67.9823,78.1275 62.5,78.5C 56.9725,78.2176 51.6391,77.5509 46.5,76.5C 46.5,75.8333 46.8333,75.5 47.5,75.5C 54.4952,76.1667 61.4952,76.3334 68.5,76C 72.2811,74.2199 76.2811,73.0532 80.5,72.5 Z"/></g>
<g><path style="opacity:1" fill="#354543" d="M 32.5,73.5 C 33.1667,73.5 33.8333,73.5 34.5,73.5C 34.6107,74.1174 34.944,74.6174 35.5,75C 39.1135,75.9358 42.7802,76.4358 46.5,76.5C 51.6391,77.5509 56.9725,78.2176 62.5,78.5C 67.9823,78.1275 73.3157,77.1275 78.5,75.5C 78.5,75.8333 78.5,76.1667 78.5,76.5C 74.3801,79.3669 69.7134,80.7002 64.5,80.5C 54.5364,81.3554 44.8697,80.1888 35.5,77C 34.0577,76.6232 33.0577,75.7899 32.5,74.5C 32.5,74.1667 32.5,73.8333 32.5,73.5 Z"/></g>
<g><path style="opacity:1" fill="#7e9c9a" d="M 32.5,74.5 C 33.0577,75.7899 34.0577,76.6232 35.5,77C 44.8697,80.1888 54.5364,81.3554 64.5,80.5C 64.0377,81.8799 63.0377,82.5466 61.5,82.5C 58.3068,83.3852 55.3068,83.7185 52.5,83.5C 50.9582,82.6993 49.2915,82.366 47.5,82.5C 43.9457,82.8503 40.6124,82.1837 37.5,80.5C 36.5748,81.3569 35.9081,82.3569 35.5,83.5C 33.2546,82.9044 31.2546,81.9044 29.5,80.5C 29.087,77.6798 30.087,75.6798 32.5,74.5 Z"/></g>
<g><path style="opacity:1" fill="#99b3b3" d="M 78.5,76.5 C 80.4553,76.7986 81.7886,77.7986 82.5,79.5C 79.1167,81.3491 75.45,82.5158 71.5,83C 70.244,83.4169 69.5774,84.2502 69.5,85.5C 66.5,85.5 63.5,85.5 60.5,85.5C 57.4467,85.8893 54.78,85.2227 52.5,83.5C 55.3068,83.7185 58.3068,83.3852 61.5,82.5C 63.0377,82.5466 64.0377,81.8799 64.5,80.5C 69.7134,80.7002 74.3801,79.3669 78.5,76.5 Z"/></g>
<g><path style="opacity:1" fill="#bad9d9" d="M 82.5,79.5 C 83.3382,79.8417 83.6716,80.5084 83.5,81.5C 78.9033,83.0316 74.2367,84.365 69.5,85.5C 69.5774,84.2502 70.244,83.4169 71.5,83C 75.45,82.5158 79.1167,81.3491 82.5,79.5 Z"/></g>
<g><path style="opacity:0.671" fill="#8fdcd9" d="M 29.5,80.5 C 31.2546,81.9044 33.2546,82.9044 35.5,83.5C 37.1898,85.3417 39.1898,86.675 41.5,87.5C 37.941,87.5919 34.6076,86.7585 31.5,85C 30.4178,83.6703 29.7512,82.1703 29.5,80.5 Z"/></g>
<g><path style="opacity:1" fill="#5f7f7d" d="M 47.5,82.5 C 47.6741,84.861 48.0074,87.1944 48.5,89.5C 45.8478,89.5905 43.5145,88.9238 41.5,87.5C 39.1898,86.675 37.1898,85.3417 35.5,83.5C 35.9081,82.3569 36.5748,81.3569 37.5,80.5C 40.6124,82.1837 43.9457,82.8503 47.5,82.5 Z"/></g>
<g><path style="opacity:0.949" fill="#607b71" d="M 83.5,81.5 C 83.7035,83.3904 83.0368,84.8904 81.5,86C 78.6179,87.6079 75.6179,88.9413 72.5,90C 66.5092,90.4995 60.5092,90.6662 54.5,90.5C 51.9548,89.5492 51.9548,88.5492 54.5,87.5C 57.3125,88.2193 60.1459,88.886 63,89.5C 64.1712,88.6604 65.3379,87.8271 66.5,87C 64.2922,86.8091 62.2922,86.3091 60.5,85.5C 63.5,85.5 66.5,85.5 69.5,85.5C 74.2367,84.365 78.9033,83.0316 83.5,81.5 Z"/></g>
<g><path style="opacity:1" fill="#57716b" d="M 47.5,82.5 C 49.2915,82.366 50.9582,82.6993 52.5,83.5C 54.78,85.2227 57.4467,85.8893 60.5,85.5C 62.2922,86.3091 64.2922,86.8091 66.5,87C 65.3379,87.8271 64.1712,88.6604 63,89.5C 60.1459,88.886 57.3125,88.2193 54.5,87.5C 51.9548,88.5492 51.9548,89.5492 54.5,90.5C 52.4352,90.4828 50.4352,90.1495 48.5,89.5C 48.0074,87.1944 47.6741,84.861 47.5,82.5 Z"/></g>
</svg>
