<?xml version="1.0" encoding="UTF-8"?>
<!DOCTYPE svg PUBLIC "-//W3C//DTD SVG 1.1//EN" "http://www.w3.org/Graphics/SVG/1.1/DTD/svg11.dtd">
<svg xmlns="http://www.w3.org/2000/svg" version="1.1" width="96px" height="96px" style="shape-rendering:geometricPrecision; text-rendering:geometricPrecision; image-rendering:optimizeQuality; fill-rule:evenodd; clip-rule:evenodd" xmlns:xlink="http://www.w3.org/1999/xlink">
<g><path style="opacity:1" fill="#020304" d="M -0.5,-0.5 C 12.5,-0.5 25.5,-0.5 38.5,-0.5C 18.5,5.5 5.5,18.5 -0.5,38.5C -0.5,25.5 -0.5,12.5 -0.5,-0.5 Z"/></g>
<g><path style="opacity:1" fill="#040506" d="M 53.5,-0.5 C 67.5,-0.5 81.5,-0.5 95.5,-0.5C 95.5,12.5 95.5,25.5 95.5,38.5C 89.1758,17.1739 75.1758,4.17395 53.5,-0.5 Z"/></g>
<g><path style="opacity:1" fill="#99dcf1" d="M 38.5,-0.5 C 43.5,-0.5 48.5,-0.5 53.5,-0.5C 75.1758,4.17395 89.1758,17.1739 95.5,38.5C 95.5,43.5 95.5,48.5 95.5,53.5C 90.5,76.5 76.5,90.5 53.5,95.5C 48.5,95.5 43.5,95.5 38.5,95.5C 16.7464,89.0808 3.7464,74.7475 -0.5,52.5C -0.5,47.8333 -0.5,43.1667 -0.5,38.5C 5.5,18.5 18.5,5.5 38.5,-0.5 Z"/></g>
<g><path style="opacity:1" fill="#e84844" d="M 69.5,30.5 C 74.6965,30.695 77.0299,33.3617 76.5,38.5C 69.8391,43.5628 66.1725,41.8961 65.5,33.5C 66.8333,32.5 68.1667,31.5 69.5,30.5 Z"/></g>
<g><path style="opacity:1" fill="#fcf7f7" d="M 72.5,36.5 C 75.1368,38.1538 74.8034,38.6538 71.5,38C 72.056,37.6174 72.3893,37.1174 72.5,36.5 Z"/></g>
<g><path style="opacity:1" fill="#a8cddd" d="M 70.5,23.5 C 75.063,29.7426 80.063,30.0759 85.5,24.5C 88.352,28.7213 90.0187,33.388 90.5,38.5C 85.8333,38.5 81.1667,38.5 76.5,38.5C 77.0299,33.3617 74.6965,30.695 69.5,30.5C 69.1984,27.9407 69.5318,25.6074 70.5,23.5 Z"/></g>
<g><path style="opacity:1" fill="#fbe3e3" d="M 69.5,32.5 C 70.9953,32.4148 71.9953,33.0815 72.5,34.5C 71.561,36.0534 70.3943,37.3867 69,38.5C 68.5,38.1667 68,37.8333 67.5,37.5C 68.4565,35.9246 69.1231,34.258 69.5,32.5 Z"/></g>
<g><path style="opacity:1" fill="#e9eaeb" d="M 70.5,16.5 C 71.6861,18.8744 71.6861,21.2078 70.5,23.5C 69.5318,25.6074 69.1984,27.9407 69.5,30.5C 68.1667,31.5 66.8333,32.5 65.5,33.5C 65.5654,33.0618 65.3988,32.7284 65,32.5C 63.6757,34.5387 62.1757,35.5387 60.5,35.5C 58.8712,34.3747 57.3712,33.0414 56,31.5C 55.5205,36.2998 55.8539,40.9665 57,45.5C 53.9193,47.4648 50.7526,49.1314 47.5,50.5C 47.44,49.9569 47.1067,49.6236 46.5,49.5C 43.0517,52.5298 40.5517,51.8631 39,47.5C 37.295,49.5766 36.1283,51.91 35.5,54.5C 34.8333,54.5 34.1667,54.5 33.5,54.5C 34.8201,51.8599 36.1534,49.1932 37.5,46.5C 37.0431,45.7025 36.3764,45.3691 35.5,45.5C 36.6715,44.6554 38.0048,43.9887 39.5,43.5C 42.3316,45.1113 44.3316,44.278 45.5,41C 44.2804,37.2317 41.9471,36.065 38.5,37.5C 37.7375,36.7321 36.7375,36.2321 35.5,36C 36.4506,35.2825 36.6172,34.4491 36,33.5C 34.647,34.6853 33.4803,36.0186 32.5,37.5C 30.3102,35.476 27.9768,33.6427 25.5,32C 27.8617,32.0885 30.0284,32.9219 32,34.5C 33.7706,33.6529 34.9373,32.3195 35.5,30.5C 35.4346,30.9382 35.6012,31.2716 36,31.5C 37.0971,28.7352 39.0971,27.0686 42,26.5C 45.1103,28.5919 48.277,28.9252 51.5,27.5C 53.2292,28.1175 54.7292,29.1175 56,30.5C 57.3561,29.6198 58.8561,29.2865 60.5,29.5C 60.5,28.5 60.5,27.5 60.5,26.5C 61.494,25.0011 61.494,23.3344 60.5,21.5C 63.2353,18.7989 66.5686,17.1322 70.5,16.5 Z"/></g>
<g><path style="opacity:1" fill="#526590" d="M 49.5,34.5 C 52.0414,35.6228 52.0414,36.9561 49.5,38.5C 48.7084,37.3002 48.7084,35.9669 49.5,34.5 Z"/></g>
<g><path style="opacity:1" fill="#3f5b87" d="M 38.5,31.5 C 40.8075,32.405 40.8075,33.7383 38.5,35.5C 37.7084,34.3002 37.7084,32.9669 38.5,31.5 Z"/></g>
<g><path style="opacity:1" fill="#7a797c" d="M 51.5,27.5 C 48.277,28.9252 45.1103,28.5919 42,26.5C 39.0971,27.0686 37.0971,28.7352 36,31.5C 35.6012,31.2716 35.4346,30.9382 35.5,30.5C 35.8588,28.629 36.8588,27.129 38.5,26C 43.0012,25.2712 47.3346,25.7712 51.5,27.5 Z"/></g>
<g><path style="opacity:1" fill="#fcfcfc" d="M 85.5,24.5 C 80.063,30.0759 75.063,29.7426 70.5,23.5C 71.6861,21.2078 71.6861,18.8744 70.5,16.5C 69.3991,15.4017 68.0657,15.235 66.5,16C 64.1401,17.1799 61.8068,18.3466 59.5,19.5C 58.4618,17.4281 56.9618,15.7615 55,14.5C 51.7564,15.47 48.5897,16.6366 45.5,18C 48.8333,19.3333 52.1667,20.6667 55.5,22C 57.6175,23.0491 59.2842,24.5491 60.5,26.5C 60.5,27.5 60.5,28.5 60.5,29.5C 58.8561,29.2865 57.3561,29.6198 56,30.5C 54.7292,29.1175 53.2292,28.1175 51.5,27.5C 47.3346,25.7712 43.0012,25.2712 38.5,26C 36.8588,27.129 35.8588,28.629 35.5,30.5C 34.9373,32.3195 33.7706,33.6529 32,34.5C 30.0284,32.9219 27.8617,32.0885 25.5,32C 27.9768,33.6427 30.3102,35.476 32.5,37.5C 33.4803,36.0186 34.647,34.6853 36,33.5C 36.6172,34.4491 36.4506,35.2825 35.5,36C 36.7375,36.2321 37.7375,36.7321 38.5,37.5C 38.0766,38.2646 37.7432,39.0979 37.5,40C 38.4295,41.0769 39.0962,42.2436 39.5,43.5C 38.0048,43.9887 36.6715,44.6554 35.5,45.5C 34.5987,46.2905 33.9321,47.2905 33.5,48.5C 31.9991,49.7515 30.3325,50.7515 28.5,51.5C 20.485,49.8209 12.485,48.1543 4.5,46.5C 4.79472,48.7354 4.46138,50.7354 3.5,52.5C 3.24181,47.2825 3.57514,42.1159 4.5,37C 4.83333,36.5 5.16667,36 5.5,35.5C 7.24031,37.2108 9.24031,38.0442 11.5,38C 9.75854,36.3804 7.92521,34.8804 6,33.5C 5.31232,32.6683 5.47899,32.0016 6.5,31.5C 9.98366,34.8619 13.9837,37.0286 18.5,38C 15.073,36.204 11.9063,34.0373 9,31.5C 7.34605,28.725 7.67939,26.0583 10,23.5C 23.3141,5.88212 40.3141,-0.117883 61,5.5C 62.6743,6.83545 64.341,8.16878 66,9.5C 66.3333,8.83333 66.6667,8.16667 67,7.5C 74.6151,11.6161 80.7818,17.2828 85.5,24.5 Z"/></g>
<g><path style="opacity:1" fill="#a3cbd6" d="M 13.5,28.5 C 15.5273,28.3379 17.5273,28.5045 19.5,29C 22.319,31.575 25.319,33.9083 28.5,36C 25.8333,36.6667 23.1667,36.6667 20.5,36C 17.8333,34 15.1667,32 12.5,30C 13.056,29.6174 13.3893,29.1174 13.5,28.5 Z"/></g>
<g><path style="opacity:1" fill="#e6ca9a" d="M 70.5,16.5 C 66.5686,17.1322 63.2353,18.7989 60.5,21.5C 59.6618,21.1583 59.3284,20.4916 59.5,19.5C 61.8068,18.3466 64.1401,17.1799 66.5,16C 68.0657,15.235 69.3991,15.4017 70.5,16.5 Z"/></g>
<g><path style="opacity:1" fill="#e22518" d="M 59.5,19.5 C 59.3284,20.4916 59.6618,21.1583 60.5,21.5C 61.494,23.3344 61.494,25.0011 60.5,26.5C 59.2842,24.5491 57.6175,23.0491 55.5,22C 52.1667,20.6667 48.8333,19.3333 45.5,18C 48.5897,16.6366 51.7564,15.47 55,14.5C 56.9618,15.7615 58.4618,17.4281 59.5,19.5 Z"/></g>
<g><path style="opacity:1" fill="#f38720" d="M 39.5,43.5 C 39.0962,42.2436 38.4295,41.0769 37.5,40C 37.7432,39.0979 38.0766,38.2646 38.5,37.5C 41.9471,36.065 44.2804,37.2317 45.5,41C 44.3316,44.278 42.3316,45.1113 39.5,43.5 Z"/></g>
<g><path style="opacity:1" fill="#6bc94b" d="M 35.5,45.5 C 36.3764,45.3691 37.0431,45.7025 37.5,46.5C 36.1534,49.1932 34.8201,51.8599 33.5,54.5C 32.0937,54.9731 31.427,55.9731 31.5,57.5C 30.8761,57.0831 30.5427,56.4164 30.5,55.5C 31.2515,53.0037 32.2515,50.6704 33.5,48.5C 33.9321,47.2905 34.5987,46.2905 35.5,45.5 Z"/></g>
<g><path style="opacity:1" fill="#f9f9f9" d="M 47.5,50.5 C 45.2918,51.8936 43.7918,53.8936 43,56.5C 42.3333,60.1667 42.3333,63.8333 43,67.5C 43.2784,68.4158 43.7784,69.0825 44.5,69.5C 44.8333,71.8333 46.1667,73.1667 48.5,73.5C 49.2679,72.7375 49.7679,71.7375 50,70.5C 50.3589,73.5443 51.0255,73.8776 52,71.5C 52.4966,73.8098 52.6633,76.1432 52.5,78.5C 51.3077,80.9223 49.3077,81.9223 46.5,81.5C 42.5,81 38.5,80.5 34.5,80C 32.6243,79.0816 31.6243,77.5816 31.5,75.5C 31.7246,68.8644 31.0579,68.3644 29.5,74C 29.528,75.0698 29.8614,75.9032 30.5,76.5C 30.5,77.5 30.5,78.5 30.5,79.5C 26.0917,79.062 24.4251,81.062 25.5,85.5C 18.1881,81.5214 12.5214,75.8548 8.5,68.5C 9.51448,67.2353 11.0145,66.5687 13,66.5C 17.4786,65.8356 21.9786,65.5023 26.5,65.5C 26.8212,67.0481 27.8212,67.7148 29.5,67.5C 29.4326,66.0413 29.7659,64.7079 30.5,63.5C 33.9536,63.7332 34.9536,62.3999 33.5,59.5C 34.4959,59.5858 35.3292,59.2524 36,58.5C 36.765,56.9343 36.5983,55.6009 35.5,54.5C 36.1283,51.91 37.295,49.5766 39,47.5C 40.5517,51.8631 43.0517,52.5298 46.5,49.5C 47.1067,49.6236 47.44,49.9569 47.5,50.5 Z"/></g>
<g><path style="opacity:1" fill="#35353a" d="M 60.5,35.5 C 60.6646,38.5184 60.498,41.5184 60,44.5C 57.9327,47.07 55.4327,49.07 52.5,50.5C 55.1153,54.0403 56.1153,58.0403 55.5,62.5C 54.7784,62.9175 54.2784,63.5842 54,64.5C 52.8372,62.7148 52.1705,60.7148 52,58.5C 49.3501,62.4736 47.6834,66.8069 47,71.5C 46.2917,70.6195 45.4584,69.9528 44.5,69.5C 43.7784,69.0825 43.2784,68.4158 43,67.5C 42.3333,63.8333 42.3333,60.1667 43,56.5C 43.7918,53.8936 45.2918,51.8936 47.5,50.5C 50.7526,49.1314 53.9193,47.4648 57,45.5C 55.8539,40.9665 55.5205,36.2998 56,31.5C 57.3712,33.0414 58.8712,34.3747 60.5,35.5 Z"/></g>
<g><path style="opacity:1" fill="#353438" d="M 33.5,48.5 C 32.2515,50.6704 31.2515,53.0037 30.5,55.5C 30.5427,56.4164 30.8761,57.0831 31.5,57.5C 31.8333,58.5 32.5,59.1667 33.5,59.5C 34.9536,62.3999 33.9536,63.7332 30.5,63.5C 29.609,62.8902 28.609,62.5569 27.5,62.5C 26.045,58.6815 26.3783,55.0148 28.5,51.5C 30.3325,50.7515 31.9991,49.7515 33.5,48.5 Z"/></g>
<g><path style="opacity:1" fill="#4aa5f2" d="M 33.5,54.5 C 34.1667,54.5 34.8333,54.5 35.5,54.5C 36.5983,55.6009 36.765,56.9343 36,58.5C 35.3292,59.2524 34.4959,59.5858 33.5,59.5C 32.5,59.1667 31.8333,58.5 31.5,57.5C 31.427,55.9731 32.0937,54.9731 33.5,54.5 Z"/></g>
<g><path style="opacity:1" fill="#040506" d="M -0.5,52.5 C 3.7464,74.7475 16.7464,89.0808 38.5,95.5C 25.5,95.5 12.5,95.5 -0.5,95.5C -0.5,81.1667 -0.5,66.8333 -0.5,52.5 Z"/></g>
<g><path style="opacity:1" fill="#ecf6fb" d="M 65.5,33.5 C 66.1725,41.8961 69.8391,43.5628 76.5,38.5C 81.1667,38.5 85.8333,38.5 90.5,38.5C 93.8634,69.1548 80.1967,86.8215 49.5,91.5C 50.9575,89.9892 52.7908,88.9892 55,88.5C 55.1218,86.7184 54.6218,85.0518 53.5,83.5C 57.7777,80.716 60.7777,76.8827 62.5,72C 58.5988,70.0469 56.2654,66.8802 55.5,62.5C 56.1153,58.0403 55.1153,54.0403 52.5,50.5C 55.4327,49.07 57.9327,47.07 60,44.5C 60.498,41.5184 60.6646,38.5184 60.5,35.5C 62.1757,35.5387 63.6757,34.5387 65,32.5C 65.3988,32.7284 65.5654,33.0618 65.5,33.5 Z"/></g>
<g><path style="opacity:1" fill="#040606" d="M 95.5,53.5 C 95.5,67.5 95.5,81.5 95.5,95.5C 81.5,95.5 67.5,95.5 53.5,95.5C 76.5,90.5 90.5,76.5 95.5,53.5 Z"/></g>
<g><path style="opacity:1" fill="#e9f4f8" d="M 28.5,51.5 C 26.3783,55.0148 26.045,58.6815 27.5,62.5C 26.8902,63.391 26.5569,64.391 26.5,65.5C 21.9786,65.5023 17.4786,65.8356 13,66.5C 11.0145,66.5687 9.51448,67.2353 8.5,68.5C 5.92392,63.552 4.25726,58.2187 3.5,52.5C 4.46138,50.7354 4.79472,48.7354 4.5,46.5C 12.485,48.1543 20.485,49.8209 28.5,51.5 Z"/></g>
<g><path style="opacity:1" fill="#222226" d="M 55.5,62.5 C 56.2654,66.8802 58.5988,70.0469 62.5,72C 60.7777,76.8827 57.7777,80.716 53.5,83.5C 50.1667,83.5 46.8333,83.5 43.5,83.5C 41.6112,82.2584 39.6112,82.2584 37.5,83.5C 34.6967,83.0387 32.3634,81.7053 30.5,79.5C 30.5,78.5 30.5,77.5 30.5,76.5C 30.5,75.8333 30.8333,75.5 31.5,75.5C 31.6243,77.5816 32.6243,79.0816 34.5,80C 38.5,80.5 42.5,81 46.5,81.5C 49.3077,81.9223 51.3077,80.9223 52.5,78.5C 54.0566,73.9792 53.3899,69.6459 50.5,65.5C 49.914,65.7093 49.414,66.0426 49,66.5C 48.5034,68.8098 48.3367,71.1432 48.5,73.5C 46.1667,73.1667 44.8333,71.8333 44.5,69.5C 45.4584,69.9528 46.2917,70.6195 47,71.5C 47.6834,66.8069 49.3501,62.4736 52,58.5C 52.1705,60.7148 52.8372,62.7148 54,64.5C 54.2784,63.5842 54.7784,62.9175 55.5,62.5 Z"/></g>
<g><path style="opacity:1" fill="#eac57c" d="M 27.5,62.5 C 28.609,62.5569 29.609,62.8902 30.5,63.5C 29.7659,64.7079 29.4326,66.0413 29.5,67.5C 27.8212,67.7148 26.8212,67.0481 26.5,65.5C 26.5569,64.391 26.8902,63.391 27.5,62.5 Z"/></g>
<g><path style="opacity:1" fill="#c2c2c1" d="M 52.5,78.5 C 52.6633,76.1432 52.4966,73.8098 52,71.5C 51.0255,73.8776 50.3589,73.5443 50,70.5C 49.7679,71.7375 49.2679,72.7375 48.5,73.5C 48.3367,71.1432 48.5034,68.8098 49,66.5C 49.414,66.0426 49.914,65.7093 50.5,65.5C 53.3899,69.6459 54.0566,73.9792 52.5,78.5 Z"/></g>
<g><path style="opacity:1" fill="#8c8c8e" d="M 31.5,75.5 C 30.8333,75.5 30.5,75.8333 30.5,76.5C 29.8614,75.9032 29.528,75.0698 29.5,74C 31.0579,68.3644 31.7246,68.8644 31.5,75.5 Z"/></g>
<g><path style="opacity:1" fill="#f89a25" d="M 30.5,79.5 C 32.3634,81.7053 34.6967,83.0387 37.5,83.5C 35.9478,86.1119 33.6145,87.4452 30.5,87.5C 28.8333,86.8333 27.1667,86.1667 25.5,85.5C 24.4251,81.062 26.0917,79.062 30.5,79.5 Z"/></g>
<g><path style="opacity:1" fill="#f8f4f0" d="M 43.5,83.5 C 42.0582,84.8195 41.3915,86.4862 41.5,88.5C 44.3126,88.0246 46.3126,89.0246 47.5,91.5C 41.1997,92.3187 35.533,90.9854 30.5,87.5C 33.6145,87.4452 35.9478,86.1119 37.5,83.5C 39.6112,82.2584 41.6112,82.2584 43.5,83.5 Z"/></g>
<g><path style="opacity:1" fill="#f8951f" d="M 43.5,83.5 C 46.8333,83.5 50.1667,83.5 53.5,83.5C 54.6218,85.0518 55.1218,86.7184 55,88.5C 52.7908,88.9892 50.9575,89.9892 49.5,91.5C 48.8333,91.5 48.1667,91.5 47.5,91.5C 46.3126,89.0246 44.3126,88.0246 41.5,88.5C 41.3915,86.4862 42.0582,84.8195 43.5,83.5 Z"/></g>
</svg>
