<?xml version="1.0" encoding="UTF-8"?>
<!DOCTYPE svg PUBLIC "-//W3C//DTD SVG 1.1//EN" "http://www.w3.org/Graphics/SVG/1.1/DTD/svg11.dtd">
<svg xmlns="http://www.w3.org/2000/svg" version="1.1" width="96px" height="96px" style="shape-rendering:geometricPrecision; text-rendering:geometricPrecision; image-rendering:optimizeQuality; fill-rule:evenodd; clip-rule:evenodd" xmlns:xlink="http://www.w3.org/1999/xlink">
<g><path style="opacity:0.995" fill="#41c7cc" d="M 75.5,12.5 C 54.4288,15.5384 33.2621,18.8717 12,22.5C 11.2352,22.4301 10.7352,22.0967 10.5,21.5C 26.6243,2.17183 46.291,-2.32817 69.5,8C 71.6838,9.36342 73.6838,10.8634 75.5,12.5 Z"/></g>
<g><path style="opacity:0.997" fill="#f5fcfc" d="M 75.5,12.5 C 76.8333,12.5 77.5,13.1667 77.5,14.5C 68.155,15.7398 58.8216,17.0731 49.5,18.5C 49.5,20.1667 49.5,21.8333 49.5,23.5C 52.9496,22.7564 54.6162,24.0897 54.5,27.5C 62.9556,26.808 69.1223,30.1414 73,37.5C 81.5522,72.2783 68.3855,86.1117 33.5,79C 27.6405,77.1405 23.8072,73.3072 22,67.5C 21.3333,57.5 21.3333,47.5 22,37.5C 25.9589,30.1036 32.1255,26.7703 40.5,27.5C 40.3838,24.0897 42.0504,22.7564 45.5,23.5C 45.5,22.1667 45.5,20.8333 45.5,19.5C 33.1818,21.2597 20.8485,22.9264 8.5,24.5C 8.42702,22.9731 9.09368,21.9731 10.5,21.5C 10.7352,22.0967 11.2352,22.4301 12,22.5C 33.2621,18.8717 54.4288,15.5384 75.5,12.5 Z"/></g>
<g><path style="opacity:0.998" fill="#42c7cc" d="M 77.5,14.5 C 93.738,30.4041 96.9046,48.7375 87,69.5C 72.871,90.5435 53.7044,97.0435 29.5,89C 9.25975,78.6899 0.426415,62.1899 3,39.5C 4.14995,34.2137 5.98328,29.2137 8.5,24.5C 20.8485,22.9264 33.1818,21.2597 45.5,19.5C 45.5,20.8333 45.5,22.1667 45.5,23.5C 42.0504,22.7564 40.3838,24.0897 40.5,27.5C 32.1255,26.7703 25.9589,30.1036 22,37.5C 21.3333,47.5 21.3333,57.5 22,67.5C 23.8072,73.3072 27.6405,77.1405 33.5,79C 68.3855,86.1117 81.5522,72.2783 73,37.5C 69.1223,30.1414 62.9556,26.808 54.5,27.5C 54.6162,24.0897 52.9496,22.7564 49.5,23.5C 49.5,21.8333 49.5,20.1667 49.5,18.5C 58.8216,17.0731 68.155,15.7398 77.5,14.5 Z"/></g>
<g><path style="opacity:1" fill="#43c7cc" d="M 33.5,31.5 C 37.5,31.5 41.5,31.5 45.5,31.5C 45.5,37.8333 45.5,44.1667 45.5,50.5C 38.8333,50.5 32.1667,50.5 25.5,50.5C 23.573,42.0399 26.2396,35.7065 33.5,31.5 Z"/></g>
<g><path style="opacity:1" fill="#67d2d6" d="M 61.5,32.5 C 57.8333,32.5 54.1667,32.5 50.5,32.5C 50.5,38.1667 50.5,43.8333 50.5,49.5C 56.8333,49.5 63.1667,49.5 69.5,49.5C 63.021,50.4907 56.3543,50.824 49.5,50.5C 49.5,44.1667 49.5,37.8333 49.5,31.5C 53.7016,31.1832 57.7016,31.5166 61.5,32.5 Z"/></g>
<g><path style="opacity:1" fill="#3ec6cb" d="M 61.5,32.5 C 68.6592,35.825 71.3259,41.4917 69.5,49.5C 63.1667,49.5 56.8333,49.5 50.5,49.5C 50.5,43.8333 50.5,38.1667 50.5,32.5C 54.1667,32.5 57.8333,32.5 61.5,32.5 Z"/></g>
<g><path style="opacity:1" fill="#43c6cb" d="M 25.5,54.5 C 40.1667,54.5 54.8333,54.5 69.5,54.5C 69.5,56.1667 69.5,57.8333 69.5,59.5C 59.5,59.5 49.5,59.5 39.5,59.5C 39.5,60.5 39.5,61.5 39.5,62.5C 49.5,62.5 59.5,62.5 69.5,62.5C 69.3318,67.6728 66.9984,71.5061 62.5,74C 52.5,74.6667 42.5,74.6667 32.5,74C 29.2716,72.4371 27.1049,69.9371 26,66.5C 25.5012,62.5138 25.3345,58.5138 25.5,54.5 Z"/></g>
</svg>
