<?xml version="1.0" encoding="UTF-8"?>
<!DOCTYPE svg PUBLIC "-//W3C//DTD SVG 1.1//EN" "http://www.w3.org/Graphics/SVG/1.1/DTD/svg11.dtd">
<svg xmlns="http://www.w3.org/2000/svg" version="1.1" width="96px" height="96px" style="shape-rendering:geometricPrecision; text-rendering:geometricPrecision; image-rendering:optimizeQuality; fill-rule:evenodd; clip-rule:evenodd" xmlns:xlink="http://www.w3.org/1999/xlink">
<g><path style="opacity:0.992" fill="#f7f7f7" d="M -0.5,-0.5 C 31.5,-0.5 63.5,-0.5 95.5,-0.5C 95.5,31.5 95.5,63.5 95.5,95.5C 63.5,95.5 31.5,95.5 -0.5,95.5C -0.5,63.5 -0.5,31.5 -0.5,-0.5 Z"/></g>
<g><path style="opacity:1" fill="#c3bbb0" d="M 40.5,0.5 C 69.1199,-0.358711 86.9532,12.9746 94,40.5C 95.8877,61.885 87.721,78.0517 69.5,89C 42.8333,99.9978 21.6666,93.4978 6,69.5C -5.38367,40.6446 2.44966,18.8113 29.5,4C 33.2541,2.69123 36.9207,1.52456 40.5,0.5 Z"/></g>
<g><path style="opacity:1" fill="#f5efe5" d="M 41.5,5.5 C 67.067,4.92368 82.9003,16.9237 89,41.5C 88.8755,74.2898 72.3755,90.1231 39.5,89C 13.8181,80.819 2.98474,63.319 7,36.5C 13.0604,19.9314 24.5604,9.59811 41.5,5.5 Z"/></g>
<g><path style="opacity:1" fill="#0c0c0c" d="M 44.5,29.5 C 46.6074,30.4682 48.9407,30.8016 51.5,30.5C 51.5,28.5 51.5,26.5 51.5,24.5C 51.9528,23.5416 52.6195,22.7083 53.5,22C 60.8343,20.1666 63.8343,22.9999 62.5,30.5C 65.8499,30.335 69.1832,30.5017 72.5,31C 73.5982,33.4977 73.4316,35.9977 72,38.5C 69.6667,40.8333 67.3333,43.1667 65,45.5C 64.6667,52.5 64.3333,59.5 64,66.5C 60.4887,73.7421 54.6553,76.7421 46.5,75.5C 43.0454,75.5787 39.7121,75.0787 36.5,74C 33.9598,71.7953 31.7932,69.2953 30,66.5C 29.6667,59.5 29.3333,52.5 29,45.5C 24.8078,42.4726 21.9745,38.4726 20.5,33.5C 20.6082,32.5581 20.9415,31.7247 21.5,31C 25.1516,30.5014 28.8183,30.3347 32.5,30.5C 31.7624,21.8084 35.2624,19.1417 43,22.5C 44.2022,24.6775 44.7022,27.0108 44.5,29.5 Z"/></g>
<g><path style="opacity:1" fill="#eae9e6" d="M 58.5,25.5 C 58.5,26.8333 58.5,28.1667 58.5,29.5C 57.1667,29.5 55.8333,29.5 54.5,29.5C 53.8386,25.4828 55.1719,24.1495 58.5,25.5 Z"/></g>
<g><path style="opacity:1" fill="#e5e4e0" d="M 37.5,24.5 C 38.4959,24.4142 39.3292,24.7476 40,25.5C 40.4935,27.1341 40.6602,28.8008 40.5,30.5C 39.1667,30.5 37.8333,30.5 36.5,30.5C 36.3253,28.3792 36.6586,26.3792 37.5,24.5 Z"/></g>
<g><path style="opacity:1" fill="#878682" d="M 51.5,24.5 C 51.5,26.5 51.5,28.5 51.5,30.5C 48.9407,30.8016 46.6074,30.4682 44.5,29.5C 46.5,29.5 48.5,29.5 50.5,29.5C 50.2155,27.5853 50.5489,25.9187 51.5,24.5 Z"/></g>
<g><path style="opacity:1" fill="#7a7976" d="M 58.5,25.5 C 59.4511,26.9187 59.7845,28.5853 59.5,30.5C 57.5853,30.7845 55.9187,30.4511 54.5,29.5C 55.8333,29.5 57.1667,29.5 58.5,29.5C 58.5,28.1667 58.5,26.8333 58.5,25.5 Z"/></g>
<g><path style="opacity:1" fill="#d5d5d5" d="M 54.5,47.5 C 57.9971,47.995 58.9971,49.8283 57.5,53C 53.5369,53.1177 52.5369,51.2843 54.5,47.5 Z"/></g>
<g><path style="opacity:1" fill="#f0ebe3" d="M 30.5,35.5 C 34.5,35.5 38.5,35.5 42.5,35.5C 41.8148,46.9631 46.8148,54.7964 57.5,59C 59.3262,67.386 55.8262,71.2193 47,70.5C 42.0196,71.5072 38.353,69.8405 36,65.5C 35.6667,58.5 35.3333,51.5 35,44.5C 31.8932,42.2865 30.3932,39.2865 30.5,35.5 Z"/></g>
<g><path style="opacity:1" fill="#171716" d="M 38.5,48.5 C 39.8333,48.5 41.1667,48.5 42.5,48.5C 42.5,49.8333 42.5,51.1667 42.5,52.5C 38.56,53.234 37.2266,51.9007 38.5,48.5 Z"/></g>
</svg>
