<?xml version="1.0" encoding="UTF-8"?>
<!DOCTYPE svg PUBLIC "-//W3C//DTD SVG 1.1//EN" "http://www.w3.org/Graphics/SVG/1.1/DTD/svg11.dtd">
<svg xmlns="http://www.w3.org/2000/svg" version="1.1" width="96px" height="96px" style="shape-rendering:geometricPrecision; text-rendering:geometricPrecision; image-rendering:optimizeQuality; fill-rule:evenodd; clip-rule:evenodd" xmlns:xlink="http://www.w3.org/1999/xlink">
<g><path style="opacity:0.844" fill="#009ee2" d="M 47.5,6.5 C 48.5862,6.61998 49.2528,7.28665 49.5,8.5C 48.6149,13.1219 48.2816,17.7885 48.5,22.5C 33.6352,23.3697 24.6352,31.0364 21.5,45.5C 19.6693,46.0522 18.0026,46.0522 16.5,45.5C 19.869,30.7976 28.869,21.7976 43.5,18.5C 45.4348,14.6957 46.7681,10.6957 47.5,6.5 Z"/></g>
<g><path style="opacity:0.853" fill="#009ee2" d="M 52.5,18.5 C 67.0553,22.0549 76.3887,31.0549 80.5,45.5C 84.0686,47.1183 87.7353,48.4516 91.5,49.5C 86.2079,50.4948 80.8746,50.8282 75.5,50.5C 75.424,35.5853 68.0907,26.4186 53.5,23C 52.6198,21.6439 52.2865,20.1439 52.5,18.5 Z"/></g>
<g><path style="opacity:0.878" fill="#009de2" d="M 45.5,32.5 C 47.5,32.5 49.5,32.5 51.5,32.5C 51.5,42.1667 51.5,51.8333 51.5,61.5C 49.5,61.5 47.5,61.5 45.5,61.5C 45.5,51.8333 45.5,42.1667 45.5,32.5 Z"/></g>
<g><path style="opacity:0.875" fill="#009ee1" d="M 56.5,37.5 C 58.5,37.5 60.5,37.5 62.5,37.5C 62.5,41.1667 62.5,44.8333 62.5,48.5C 60.5,48.5 58.5,48.5 56.5,48.5C 56.5,44.8333 56.5,41.1667 56.5,37.5 Z"/></g>
<g><path style="opacity:0.838" fill="#019ee2" d="M 5.5,49.5 C 10.5,49.5 15.5,49.5 20.5,49.5C 21.3896,63.8836 28.7229,73.0502 42.5,77C 44.4206,78.2408 44.754,79.7408 43.5,81.5C 28.6749,78.343 20.0083,69.343 17.5,54.5C 13.0037,53.5703 9.00366,51.9036 5.5,49.5 Z"/></g>
<g><path style="opacity:0.69" fill="#009ee1" d="M 33.5,51.5 C 36.1667,51.5 38.8333,51.5 41.5,51.5C 41.5,56.1667 41.5,60.8333 41.5,65.5C 38.8333,65.5 36.1667,65.5 33.5,65.5C 33.5,60.8333 33.5,56.1667 33.5,51.5 Z"/></g>
<g><path style="opacity:0.855" fill="#009de1" d="M 78.5,53.5 C 79.0032,58.8482 77.5032,63.8482 74,68.5C 68.6618,75.2491 61.8285,79.5824 53.5,81.5C 51.8344,85.4959 50.1677,89.4959 48.5,93.5C 47.5052,88.2079 47.1718,82.8746 47.5,77.5C 62.6951,76.9097 72.0285,69.2431 75.5,54.5C 76.791,54.7373 77.791,54.404 78.5,53.5 Z"/></g>
</svg>
