<?xml version="1.0" encoding="UTF-8"?>
<!DOCTYPE svg PUBLIC "-//W3C//DTD SVG 1.1//EN" "http://www.w3.org/Graphics/SVG/1.1/DTD/svg11.dtd">
<svg xmlns="http://www.w3.org/2000/svg" version="1.1" width="96px" height="96px" style="shape-rendering:geometricPrecision; text-rendering:geometricPrecision; image-rendering:optimizeQuality; fill-rule:evenodd; clip-rule:evenodd" xmlns:xlink="http://www.w3.org/1999/xlink">
<g><path style="opacity:0.956" fill="#fcfdfc" d="M 38.5,-0.5 C 44.5,-0.5 50.5,-0.5 56.5,-0.5C 77.1755,4.84215 90.1755,17.8421 95.5,38.5C 95.5,44.5 95.5,50.5 95.5,56.5C 90.1755,77.1579 77.1755,90.1579 56.5,95.5C 50.5,95.5 44.5,95.5 38.5,95.5C 18.535,89.535 5.53496,76.535 -0.5,56.5C -0.5,50.8333 -0.5,45.1667 -0.5,39.5C 5.09483,18.9056 18.0948,5.57229 38.5,-0.5 Z"/></g>
<g><path style="opacity:1" fill="#9cd07b" d="M 53.5,27.5 C 52.8333,33.8333 52.1667,40.1667 51.5,46.5C 48.0122,40.1938 44.5122,33.8605 41,27.5C 39.087,25.8131 36.9203,25.3131 34.5,26C 27.0257,38.4533 19.6923,50.9533 12.5,63.5C 4.69461,44.0824 9.02794,27.9158 25.5,15C 44.8886,4.46877 62.3886,6.96877 78,22.5C 78.3742,23.4162 78.8742,24.2496 79.5,25C 71.1667,25.3333 62.8333,25.6667 54.5,26C 53.944,26.3826 53.6107,26.8826 53.5,27.5 Z"/></g>
<g><path style="opacity:0.975" fill="#d5ebc6" d="M 53.5,27.5 C 53.8303,34.5316 53.497,41.5316 52.5,48.5C 51.7025,48.0431 51.3691,47.3764 51.5,46.5C 52.1667,40.1667 52.8333,33.8333 53.5,27.5 Z"/></g>
<g><path style="opacity:1" fill="#438d6f" d="M 81.5,31.5 C 82.4959,31.4142 83.3292,31.7476 84,32.5C 90.2574,53.4002 84.424,69.9002 66.5,82C 46.2396,91.3493 29.2396,87.3493 15.5,70C 17.4211,69.6397 19.0878,68.8064 20.5,67.5C 25.5,58.1667 30.5,48.8333 35.5,39.5C 36.2739,38.2888 37.1072,38.2888 38,39.5C 39.1227,42.2487 40.6227,44.7487 42.5,47C 37.3574,46.4712 35.5241,48.6379 37,53.5C 40.0757,54.2883 43.2423,54.7883 46.5,55C 49.2506,59.8365 52.2506,64.5032 55.5,69C 57.7008,69.8249 59.5341,69.3249 61,67.5C 61.499,63.1794 61.6657,58.8461 61.5,54.5C 64.8499,54.665 68.1832,54.4983 71.5,54C 72.8333,52 72.8333,50 71.5,48C 68.1832,47.5017 64.8499,47.335 61.5,47.5C 61.5,42.5 61.5,37.5 61.5,32.5C 68.3543,32.824 75.021,32.4907 81.5,31.5 Z"/></g>
</svg>
