<?xml version="1.0" encoding="UTF-8"?>
<!DOCTYPE svg PUBLIC "-//W3C//DTD SVG 1.1//EN" "http://www.w3.org/Graphics/SVG/1.1/DTD/svg11.dtd">
<svg xmlns="http://www.w3.org/2000/svg" version="1.1" width="96px" height="96px" style="shape-rendering:geometricPrecision; text-rendering:geometricPrecision; image-rendering:optimizeQuality; fill-rule:evenodd; clip-rule:evenodd" xmlns:xlink="http://www.w3.org/1999/xlink">
<g><path style="opacity:0.875" fill="#525252" d="M 37.5,-0.5 C 44.1667,-0.5 50.8333,-0.5 57.5,-0.5C 77.1667,5.16667 89.8333,17.8333 95.5,37.5C 95.5,44.1667 95.5,50.8333 95.5,57.5C 89.8333,77.1667 77.1667,89.8333 57.5,95.5C 50.8333,95.5 44.1667,95.5 37.5,95.5C 17.8333,89.8333 5.16667,77.1667 -0.5,57.5C -0.5,50.8333 -0.5,44.1667 -0.5,37.5C 5.16667,17.8333 17.8333,5.16667 37.5,-0.5 Z"/></g>
<g><path style="opacity:1" fill="#e5e7e6" d="M 39.5,4.5 C 65.4417,2.53975 82.2751,13.8731 90,38.5C 92.7322,63.2128 82.5655,80.0462 59.5,89C 33.2895,94.1482 15.4562,84.3149 6,59.5C 1.3874,31.3265 12.5541,12.9932 39.5,4.5 Z"/></g>
<g><path style="opacity:1" fill="#535353" d="M 38.5,7.5 C 72.6825,6.18179 88.8491,22.5151 87,56.5C 78.7874,80.537 61.9541,90.7037 36.5,87C 13.5102,77.9643 4.01016,61.131 8,36.5C 13.1803,21.4841 23.3469,11.8174 38.5,7.5 Z"/></g>
<g><path style="opacity:1" fill="#a6a6a6" d="M 71.5,46.5 C 70.3778,47.9473 68.8778,48.9473 67,49.5C 67.0148,57.817 62.8482,61.6503 54.5,61C 51.9329,65.784 47.9329,68.284 42.5,68.5C 42.1796,72.0841 41.0129,72.7508 39,70.5C 38.6174,71.056 38.1174,71.3893 37.5,71.5C 33.5652,72.8217 30.0652,71.8217 27,68.5C 26.1799,66.272 26.5132,64.272 28,62.5C 28.9978,65.0278 29.8311,65.0278 30.5,62.5C 29.8131,60.8228 29.1465,59.1561 28.5,57.5C 35.5249,64.0911 42.6916,64.0911 50,57.5C 50.6667,58.1667 50.6667,58.8333 50,59.5C 46.8801,61.1134 44.7135,63.4467 43.5,66.5C 49.2355,66.1032 52.9022,63.1032 54.5,57.5C 63.0887,59.9196 66.7553,56.5863 65.5,47.5C 67.5648,47.4828 69.5648,47.1495 71.5,46.5 Z"/></g>
<g><path style="opacity:1" fill="#0f0f0f" d="M 36.5,64.5 C 37.5862,64.62 38.2528,65.2867 38.5,66.5C 38.1667,67.1667 37.8333,67.8333 37.5,68.5C 36.5713,67.3112 36.238,65.9778 36.5,64.5 Z"/></g>
<g><path style="opacity:1" fill="#0f0f0f" d="M 37.5,71.5 C 34.0063,71.2142 31.0063,69.8809 28.5,67.5C 29.8689,65.876 31.5355,65.376 33.5,66C 34.7213,68.0337 36.0546,69.867 37.5,71.5 Z"/></g>
<g><path style="opacity:1" fill="#181818" d="M 42.5,68.5 C 41.8826,68.6107 41.3826,68.944 41,69.5C 39.872,67.6547 39.372,65.6547 39.5,63.5C 40.5,63.5 41.5,63.5 42.5,63.5C 42.5,65.1667 42.5,66.8333 42.5,68.5 Z"/></g>
<g><path style="opacity:1" fill="#f3f3f3" d="M 40.5,38.5 C 42.0222,39.1909 43.0222,40.3576 43.5,42C 42.8783,45.1236 41.2116,47.2903 38.5,48.5C 36.8295,48.3318 35.4961,47.6651 34.5,46.5C 35.176,44.1409 36.0093,41.8076 37,39.5C 38.0113,38.6634 39.1779,38.33 40.5,38.5 Z"/></g>
<g><path style="opacity:1" fill="#6a6a6a" d="M 33.5,36.5 C 34.7498,36.5774 35.5831,37.244 36,38.5C 37.6155,37.1991 39.1155,37.1991 40.5,38.5C 39.1779,38.33 38.0113,38.6634 37,39.5C 36.0093,41.8076 35.176,44.1409 34.5,46.5C 33.8333,45.5 33.1667,44.5 32.5,43.5C 32.8769,41.742 33.5435,40.0754 34.5,38.5C 34.1543,37.3044 33.6543,37.3044 33,38.5C 32.3083,37.5632 32.475,36.8966 33.5,36.5 Z"/></g>
<g><path style="opacity:1" fill="#a2a2a2" d="M 34.5,32.5 C 34.1667,33.8333 33.8333,35.1667 33.5,36.5C 32.475,36.8966 32.3083,37.5632 33,38.5C 33.6543,37.3044 34.1543,37.3044 34.5,38.5C 33.5435,40.0754 32.8769,41.742 32.5,43.5C 31.9573,46.2184 31.2906,48.885 30.5,51.5C 29.9033,51.2648 29.5699,50.7648 29.5,50C 30.9145,45.2733 31.7478,40.44 32,35.5C 32.3768,34.0577 33.2101,33.0577 34.5,32.5 Z"/></g>
<g><path style="opacity:1" fill="#a1a1a1" d="M 69.5,30.5 C 70.7927,29.3552 71.9593,29.6885 73,31.5C 74.7213,34.3154 75.3879,37.3154 75,40.5C 74.7679,39.2625 74.2679,38.2625 73.5,37.5C 73.4452,34.3855 72.1119,32.0522 69.5,30.5 Z"/></g>
<g><path style="opacity:1" fill="#0b0b0b" d="M 47.5,28.5 C 52.2792,28.7027 56.4458,30.3694 60,33.5C 60.7648,33.4301 61.2648,33.0967 61.5,32.5C 62.1667,32.5 62.5,32.8333 62.5,33.5C 61.1902,35.1477 59.8569,36.8144 58.5,38.5C 59.9705,41.136 61.6372,43.636 63.5,46C 69.3155,47.2609 72.3155,44.9276 72.5,39C 72.5872,35.671 71.2539,33.171 68.5,31.5C 68.5,30.8333 68.8333,30.5 69.5,30.5C 72.1119,32.0522 73.4452,34.3855 73.5,37.5C 73.7931,40.7543 73.1264,43.7543 71.5,46.5C 69.5648,47.1495 67.5648,47.4828 65.5,47.5C 66.7553,56.5863 63.0887,59.9196 54.5,57.5C 52.9022,63.1032 49.2355,66.1032 43.5,66.5C 44.7135,63.4467 46.8801,61.1134 50,59.5C 50.6667,58.8333 50.6667,58.1667 50,57.5C 42.6916,64.0911 35.5249,64.0911 28.5,57.5C 28.5858,56.5041 28.2524,55.6708 27.5,55C 28.7101,53.9609 29.7101,52.7942 30.5,51.5C 31.2906,48.885 31.9573,46.2184 32.5,43.5C 33.1667,44.5 33.8333,45.5 34.5,46.5C 35.4961,47.6651 36.8295,48.3318 38.5,48.5C 41.2116,47.2903 42.8783,45.1236 43.5,42C 43.0222,40.3576 42.0222,39.1909 40.5,38.5C 39.1155,37.1991 37.6155,37.1991 36,38.5C 35.5831,37.244 34.7498,36.5774 33.5,36.5C 33.8333,35.1667 34.1667,33.8333 34.5,32.5C 35.7777,32.2178 36.7777,31.5511 37.5,30.5C 40.9876,30.4601 44.3209,29.7934 47.5,28.5 Z"/></g>
<g><path style="opacity:1" fill="#8b8b8b" d="M 34.5,54.5 C 32.8235,55.1834 32.1568,56.5168 32.5,58.5C 30.7868,57.3646 30.1201,55.698 30.5,53.5C 32.099,53.2322 33.4324,53.5655 34.5,54.5 Z"/></g>
<g><path style="opacity:1" fill="#efefef" d="M 34.5,54.5 C 43.1803,56.6028 43.3469,58.6028 35,60.5C 33.699,60.3613 32.8656,59.6946 32.5,58.5C 32.1568,56.5168 32.8235,55.1834 34.5,54.5 Z"/></g>
<g><path style="opacity:1" fill="#888888" d="M 47.5,45.5 C 47.702,47.9496 47.3686,50.283 46.5,52.5C 44.5589,50.9894 44.0589,48.9894 45,46.5C 45.6708,45.7476 46.5041,45.4142 47.5,45.5 Z"/></g>
<g><path style="opacity:1" fill="#efefef" d="M 46.5,52.5 C 47.3686,50.283 47.702,47.9496 47.5,45.5C 47.4606,44.4168 47.1272,43.4168 46.5,42.5C 54.0603,39.9556 57.227,42.6222 56,50.5C 53.0964,52.2268 49.9297,52.8935 46.5,52.5 Z"/></g>
<g><path style="opacity:1" fill="#f9f9f9" d="M 68.5,31.5 C 71.2539,33.171 72.5872,35.671 72.5,39C 72.3155,44.9276 69.3155,47.2609 63.5,46C 61.6372,43.636 59.9705,41.136 58.5,38.5C 59.8569,36.8144 61.1902,35.1477 62.5,33.5C 64.1137,31.9254 66.1137,31.2587 68.5,31.5 Z"/></g>
<g><path style="opacity:1" fill="#838383" d="M 61.5,32.5 C 61.2648,33.0967 60.7648,33.4301 60,33.5C 56.4458,30.3694 52.2792,28.7027 47.5,28.5C 47.2085,18.7905 43.3751,17.1238 36,23.5C 35.7607,25.9595 36.2607,28.2928 37.5,30.5C 36.7777,31.5511 35.7777,32.2178 34.5,32.5C 35.5009,31.2113 35.3342,29.8779 34,28.5C 33.3333,26.5 33.3333,24.5 34,22.5C 36.9588,19.4389 40.4588,17.6056 44.5,17C 46,18.5 47.5,20 49,21.5C 49.4955,23.4727 49.6621,25.4727 49.5,27.5C 50.8734,27.3433 52.2068,27.51 53.5,28C 56.5607,29.7359 59.2274,31.2359 61.5,32.5 Z"/></g>
<g><path style="opacity:1" fill="#f5f5f5" d="M 47.5,28.5 C 44.3209,29.7934 40.9876,30.4601 37.5,30.5C 36.2607,28.2928 35.7607,25.9595 36,23.5C 43.3751,17.1238 47.2085,18.7905 47.5,28.5 Z"/></g>
</svg>
