<?xml version="1.0" encoding="UTF-8"?>
<!DOCTYPE svg PUBLIC "-//W3C//DTD SVG 1.1//EN" "http://www.w3.org/Graphics/SVG/1.1/DTD/svg11.dtd">
<svg xmlns="http://www.w3.org/2000/svg" version="1.1" width="96px" height="96px" style="shape-rendering:geometricPrecision; text-rendering:geometricPrecision; image-rendering:optimizeQuality; fill-rule:evenodd; clip-rule:evenodd" xmlns:xlink="http://www.w3.org/1999/xlink">
<g><path style="opacity:1" fill="#65d2c3" d="M -0.5,-0.5 C 8.5,-0.5 17.5,-0.5 26.5,-0.5C 17.8333,8.83333 8.83333,17.8333 -0.5,26.5C -0.5,17.5 -0.5,8.5 -0.5,-0.5 Z"/></g>
<g><path style="opacity:1" fill="#61cac3" d="M 26.5,-0.5 C 29.1667,-0.5 31.8333,-0.5 34.5,-0.5C 23.1937,11.4729 11.5271,23.1396 -0.5,34.5C -0.5,31.8333 -0.5,29.1667 -0.5,26.5C 8.83333,17.8333 17.8333,8.83333 26.5,-0.5 Z"/></g>
<g><path style="opacity:1" fill="#5dc4c2" d="M 34.5,-0.5 C 37.1667,-0.5 39.8333,-0.5 42.5,-0.5C 28.5,14.1667 14.1667,28.5 -0.5,42.5C -0.5,39.8333 -0.5,37.1667 -0.5,34.5C 11.5271,23.1396 23.1937,11.4729 34.5,-0.5 Z"/></g>
<g><path style="opacity:1" fill="#5abec2" d="M 42.5,-0.5 C 45.1667,-0.5 47.8333,-0.5 50.5,-0.5C 33.8333,16.8333 16.8333,33.8333 -0.5,50.5C -0.5,47.8333 -0.5,45.1667 -0.5,42.5C 14.1667,28.5 28.5,14.1667 42.5,-0.5 Z"/></g>
<g><path style="opacity:1" fill="#56b3c2" d="M 54.5,-0.5 C 57.8333,-0.5 61.1667,-0.5 64.5,-0.5C 52.4677,11.5311 40.801,23.8644 29.5,36.5C 27.283,35.6314 24.9496,35.298 22.5,35.5C 21.475,35.1034 21.3083,34.4368 22,33.5C 33.4233,22.5801 44.2567,11.2468 54.5,-0.5 Z"/></g>
<g><path style="opacity:1" fill="#52abc1" d="M 64.5,-0.5 C 67.8333,-0.5 71.1667,-0.5 74.5,-0.5C 67.5781,6.98578 60.5781,14.4858 53.5,22C 51.1928,24.1081 48.8595,25.4414 46.5,26C 47.6405,26.7412 47.6405,27.5745 46.5,28.5C 44.2338,29.3142 41.9005,29.8142 39.5,30C 40.7375,30.2321 41.7375,30.7321 42.5,31.5C 41.448,31.3505 40.448,31.5172 39.5,32C 40.3805,32.7083 41.0472,33.5416 41.5,34.5C 38.1898,36.1464 35.5232,38.4797 33.5,41.5C 32.407,39.6508 31.0737,37.9842 29.5,36.5C 40.801,23.8644 52.4677,11.5311 64.5,-0.5 Z"/></g>
<g><path style="opacity:1" fill="#4da3c0" d="M 74.5,-0.5 C 79.1667,-0.5 83.8333,-0.5 88.5,-0.5C 75.8546,12.4793 63.1879,25.4793 50.5,38.5C 47.09,36.7776 46.7566,34.6109 49.5,32C 47.1902,31.5034 44.8568,31.3367 42.5,31.5C 41.7375,30.7321 40.7375,30.2321 39.5,30C 41.9005,29.8142 44.2338,29.3142 46.5,28.5C 47.6405,27.5745 47.6405,26.7412 46.5,26C 48.8595,25.4414 51.1928,24.1081 53.5,22C 60.5781,14.4858 67.5781,6.98578 74.5,-0.5 Z"/></g>
<g><path style="opacity:1" fill="#4899bf" d="M 88.5,-0.5 C 90.8333,-0.5 93.1667,-0.5 95.5,-0.5C 95.5,0.833333 95.5,2.16667 95.5,3.5C 86.4674,13.5333 76.8008,22.8666 66.5,31.5C 66.5,31.8333 66.5,32.1667 66.5,32.5C 65.0783,32.7086 63.745,33.2086 62.5,34C 58.1667,38.3333 53.8333,42.6667 49.5,47C 46.5,47.6667 43.5,47.6667 40.5,47C 39.1007,45.9384 38.1007,44.605 37.5,43C 39.0167,39.9843 41.35,37.8177 44.5,36.5C 47.9658,37.9198 48.9658,40.2531 47.5,43.5C 44.4594,44.5605 41.7927,44.5605 39.5,43.5C 43.2498,47.4723 47.0831,47.4723 51,43.5C 51.6397,41.735 51.4731,40.0683 50.5,38.5C 63.1879,25.4793 75.8546,12.4793 88.5,-0.5 Z"/></g>
<g><path style="opacity:1" fill="#428dbe" d="M 95.5,3.5 C 95.5,8.83333 95.5,14.1667 95.5,19.5C 86.2016,28.2977 77.035,37.2977 68,46.5C 67.7679,45.2625 67.2679,44.2625 66.5,43.5C 67.8514,39.4584 70.1848,36.1251 73.5,33.5C 74.0431,33.44 74.3764,33.1067 74.5,32.5C 71.9135,31.52 69.2469,31.1866 66.5,31.5C 76.8008,22.8666 86.4674,13.5333 95.5,3.5 Z"/></g>
<g><path style="opacity:1" fill="#57b7c1" d="M 50.5,-0.5 C 51.8333,-0.5 53.1667,-0.5 54.5,-0.5C 44.2567,11.2468 33.4233,22.5801 22,33.5C 21.3083,34.4368 21.475,35.1034 22.5,35.5C 20.7739,37.8201 20.1072,40.4867 20.5,43.5C 13.8604,50.8063 6.8604,57.8063 -0.5,64.5C -0.5,59.8333 -0.5,55.1667 -0.5,50.5C 16.8333,33.8333 33.8333,16.8333 50.5,-0.5 Z"/></g>
<g><path style="opacity:1" fill="#3b80bd" d="M 95.5,25.5 C 95.5,29.1667 95.5,32.8333 95.5,36.5C 76.4402,55.3446 57.2735,74.3446 38,93.5C 37.5357,94.0944 37.369,94.7611 37.5,95.5C 33.5,95.5 29.5,95.5 25.5,95.5C 48.473,71.8604 71.8063,48.527 95.5,25.5 Z"/></g>
<g><path style="opacity:1" fill="#a4c6dc" d="M 66.5,32.5 C 66.5,32.1667 66.5,31.8333 66.5,31.5C 69.2469,31.1866 71.9135,31.52 74.5,32.5C 74.3764,33.1067 74.0431,33.44 73.5,33.5C 71.3926,32.5318 69.0593,32.1984 66.5,32.5 Z"/></g>
<g><path style="opacity:1" fill="#3778be" d="M 95.5,36.5 C 95.5,38.8333 95.5,41.1667 95.5,43.5C 78.2289,60.6215 61.2289,77.9548 44.5,95.5C 42.1667,95.5 39.8333,95.5 37.5,95.5C 37.369,94.7611 37.5357,94.0944 38,93.5C 57.2735,74.3446 76.4402,55.3446 95.5,36.5 Z"/></g>
<g><path style="opacity:1" fill="#3473bd" d="M 95.5,43.5 C 95.5,46.1667 95.5,48.8333 95.5,51.5C 80.5,65.8333 65.8333,80.5 51.5,95.5C 49.1667,95.5 46.8333,95.5 44.5,95.5C 61.2289,77.9548 78.2289,60.6215 95.5,43.5 Z"/></g>
<g><path style="opacity:1" fill="#52abc1" d="M 20.5,43.5 C 22.0938,44.983 23.7605,46.483 25.5,48C 22.9485,49.5158 23.2819,50.3491 26.5,50.5C 16.9029,57.76 7.90287,65.76 -0.5,74.5C -0.5,71.1667 -0.5,67.8333 -0.5,64.5C 6.8604,57.8063 13.8604,50.8063 20.5,43.5 Z"/></g>
<g><path style="opacity:1" fill="#4c9dc0" d="M 41.5,34.5 C 42.0431,34.56 42.3764,34.8933 42.5,35.5C 34.2587,39.5706 33.5921,44.4039 40.5,50C 42.4727,50.4955 44.4727,50.6621 46.5,50.5C 45.2825,51.1614 43.9492,51.8281 42.5,52.5C 43.376,53.2508 44.376,53.7508 45.5,54C 44.1416,54.9344 42.8083,55.7677 41.5,56.5C 34.4346,54.0447 31.768,49.0447 33.5,41.5C 35.5232,38.4797 38.1898,36.1464 41.5,34.5 Z"/></g>
<g><path style="opacity:1" fill="#4ca2c0" d="M 33.5,53.5 C 32.2264,54.1894 32.2264,55.0228 33.5,56C 22.2837,67.0799 10.9504,77.9132 -0.5,88.5C -0.5,83.8333 -0.5,79.1667 -0.5,74.5C 7.90287,65.76 16.9029,57.76 26.5,50.5C 27.675,50.719 28.675,50.3857 29.5,49.5C 26.9343,46.7762 24.601,43.9429 22.5,41C 22.6448,40.228 22.9781,39.5613 23.5,39C 25.1667,38.3333 26.8333,38.3333 28.5,39C 30.7446,43.6341 32.4112,48.4674 33.5,53.5 Z"/></g>
<g><path style="opacity:1" fill="#326ebd" d="M 95.5,51.5 C 95.5,66.1667 95.5,80.8333 95.5,95.5C 80.8333,95.5 66.1667,95.5 51.5,95.5C 65.8333,80.5 80.5,65.8333 95.5,51.5 Z"/></g>
<g><path style="opacity:1" fill="#4899c0" d="M 33.5,53.5 C 35.939,56.2603 38.939,58.2603 42.5,59.5C 42.3764,60.1067 42.0431,60.44 41.5,60.5C 41.44,59.9569 41.1067,59.6236 40.5,59.5C 39.2997,60.5312 37.9663,61.3645 36.5,62C 25.9671,73.6991 14.9671,84.8657 3.5,95.5C 2.16667,95.5 0.833333,95.5 -0.5,95.5C -0.5,93.1667 -0.5,90.8333 -0.5,88.5C 10.9504,77.9132 22.2837,67.0799 33.5,56C 32.2264,55.0228 32.2264,54.1894 33.5,53.5 Z"/></g>
<g><path style="opacity:1" fill="#eef4f8" d="M 42.5,31.5 C 44.8568,31.3367 47.1902,31.5034 49.5,32C 46.7566,34.6109 47.09,36.7776 50.5,38.5C 51.4731,40.0683 51.6397,41.735 51,43.5C 47.0831,47.4723 43.2498,47.4723 39.5,43.5C 41.7927,44.5605 44.4594,44.5605 47.5,43.5C 48.9658,40.2531 47.9658,37.9198 44.5,36.5C 41.35,37.8177 39.0167,39.9843 37.5,43C 38.1007,44.605 39.1007,45.9384 40.5,47C 43.5,47.6667 46.5,47.6667 49.5,47C 53.8333,42.6667 58.1667,38.3333 62.5,34C 63.745,33.2086 65.0783,32.7086 66.5,32.5C 69.0593,32.1984 71.3926,32.5318 73.5,33.5C 70.1848,36.1251 67.8514,39.4584 66.5,43.5C 64.1084,52.2228 58.4417,57.5561 49.5,59.5C 50.5244,60.8518 51.5244,62.1851 52.5,63.5C 48.0189,64.6484 43.3522,64.8151 38.5,64C 39.1634,62.4815 40.1634,61.3149 41.5,60.5C 42.0431,60.44 42.3764,60.1067 42.5,59.5C 38.939,58.2603 35.939,56.2603 33.5,53.5C 32.4112,48.4674 30.7446,43.6341 28.5,39C 26.8333,38.3333 25.1667,38.3333 23.5,39C 22.9781,39.5613 22.6448,40.228 22.5,41C 24.601,43.9429 26.9343,46.7762 29.5,49.5C 28.675,50.3857 27.675,50.719 26.5,50.5C 23.2819,50.3491 22.9485,49.5158 25.5,48C 23.7605,46.483 22.0938,44.983 20.5,43.5C 20.1072,40.4867 20.7739,37.8201 22.5,35.5C 24.9496,35.298 27.283,35.6314 29.5,36.5C 31.0737,37.9842 32.407,39.6508 33.5,41.5C 31.768,49.0447 34.4346,54.0447 41.5,56.5C 47.8023,58.4891 53.4689,57.1558 58.5,52.5C 62.0542,47.2079 65.0542,41.5412 67.5,35.5C 66.3864,34.2241 65.3864,34.2241 64.5,35.5C 62.2843,36.2026 60.451,37.5359 59,39.5C 56.4926,45.1811 52.326,48.8478 46.5,50.5C 44.4727,50.6621 42.4727,50.4955 40.5,50C 33.5921,44.4039 34.2587,39.5706 42.5,35.5C 42.3764,34.8933 42.0431,34.56 41.5,34.5C 41.0472,33.5416 40.3805,32.7083 39.5,32C 40.448,31.5172 41.448,31.3505 42.5,31.5 Z"/></g>
<g><path style="opacity:1" fill="#4591be" d="M 64.5,35.5 C 64.9382,35.4346 65.2716,35.6012 65.5,36C 62.4882,41.199 60.1549,46.699 58.5,52.5C 53.4689,57.1558 47.8023,58.4891 41.5,56.5C 42.8083,55.7677 44.1416,54.9344 45.5,54C 44.376,53.7508 43.376,53.2508 42.5,52.5C 43.9492,51.8281 45.2825,51.1614 46.5,50.5C 52.326,48.8478 56.4926,45.1811 59,39.5C 60.451,37.5359 62.2843,36.2026 64.5,35.5 Z"/></g>
<g><path style="opacity:1" fill="#6aa7cb" d="M 64.5,35.5 C 65.3864,34.2241 66.3864,34.2241 67.5,35.5C 65.0542,41.5412 62.0542,47.2079 58.5,52.5C 60.1549,46.699 62.4882,41.199 65.5,36C 65.2716,35.6012 64.9382,35.4346 64.5,35.5 Z"/></g>
<g><path style="opacity:1" fill="#4693bf" d="M 41.5,60.5 C 40.1634,61.3149 39.1634,62.4815 38.5,64C 43.3522,64.8151 48.0189,64.6484 52.5,63.5C 53.0431,63.56 53.3764,63.8933 53.5,64.5C 48.5329,65.329 43.5329,65.829 38.5,66C 38.8333,66.3333 39.1667,66.6667 39.5,67C 29.9644,76.3683 20.6311,85.8683 11.5,95.5C 8.83333,95.5 6.16667,95.5 3.5,95.5C 14.9671,84.8657 25.9671,73.6991 36.5,62C 37.9663,61.3645 39.2997,60.5312 40.5,59.5C 41.1067,59.6236 41.44,59.9569 41.5,60.5 Z"/></g>
<g><path style="opacity:1" fill="#458cbd" d="M 44.5,60.5 C 45.675,60.281 46.675,60.6143 47.5,61.5C 46.277,62.6139 44.9437,62.7805 43.5,62C 44.056,61.6174 44.3893,61.1174 44.5,60.5 Z"/></g>
<g><path style="opacity:1" fill="#3f88be" d="M 95.5,19.5 C 95.5,21.5 95.5,23.5 95.5,25.5C 71.8063,48.527 48.473,71.8604 25.5,95.5C 20.8333,95.5 16.1667,95.5 11.5,95.5C 20.6311,85.8683 29.9644,76.3683 39.5,67C 39.1667,66.6667 38.8333,66.3333 38.5,66C 43.5329,65.829 48.5329,65.329 53.5,64.5C 53.3764,63.8933 53.0431,63.56 52.5,63.5C 51.5244,62.1851 50.5244,60.8518 49.5,59.5C 58.4417,57.5561 64.1084,52.2228 66.5,43.5C 67.2679,44.2625 67.7679,45.2625 68,46.5C 77.035,37.2977 86.2016,28.2977 95.5,19.5 Z"/></g>
</svg>
