<?xml version="1.0" encoding="UTF-8"?>
<!DOCTYPE svg PUBLIC "-//W3C//DTD SVG 1.1//EN" "http://www.w3.org/Graphics/SVG/1.1/DTD/svg11.dtd">
<svg xmlns="http://www.w3.org/2000/svg" version="1.1" width="96px" height="96px" style="shape-rendering:geometricPrecision; text-rendering:geometricPrecision; image-rendering:optimizeQuality; fill-rule:evenodd; clip-rule:evenodd" xmlns:xlink="http://www.w3.org/1999/xlink">
<g><path style="opacity:1" fill="#fe8f58" d="M 30.5,13.5 C 30.5,14.5 30.5,15.5 30.5,16.5C 29.7043,18.8357 28.0377,20.169 25.5,20.5C 21.5448,15.3732 17.3781,10.3732 13,5.5C 12.8663,0.98755 15.033,-0.51245 19.5,1C 23.0319,5.36018 26.6986,9.52685 30.5,13.5 Z"/></g>
<g><path style="opacity:0.588" fill="#f576a7" d="M 42.5,4.5 C 46.3112,3.35472 50.3112,3.18806 54.5,4C 56.0664,4.6082 57.3998,5.44153 58.5,6.5C 57.5041,6.41423 56.6708,6.74756 56,7.5C 55.5,6.33333 54.6667,5.5 53.5,5C 49.8484,4.50137 46.1817,4.3347 42.5,4.5 Z"/></g>
<g><path style="opacity:1" fill="#fc4e96" d="M 42.5,4.5 C 46.1817,4.3347 49.8484,4.50137 53.5,5C 54.6667,5.5 55.5,6.33333 56,7.5C 56.6708,6.74756 57.5041,6.41423 58.5,6.5C 62.5649,8.23292 65.2316,11.2329 66.5,15.5C 65.9862,17.4387 64.6528,18.4387 62.5,18.5C 61.1374,17.8016 59.9707,17.8016 59,18.5C 58.5831,17.244 57.7498,16.5774 56.5,16.5C 49.3869,10.7589 43.3869,11.7589 38.5,19.5C 37.8333,19.5 37.5,19.8333 37.5,20.5C 35.9323,19.1305 34.099,18.1305 32,17.5C 30.8932,18.7119 30.3932,18.3786 30.5,16.5C 30.5,15.5 30.5,14.5 30.5,13.5C 33.3692,8.96055 37.3692,5.96055 42.5,4.5 Z"/></g>
<g><path style="opacity:1" fill="#fc5a90" d="M 66.5,15.5 C 67.2485,16.531 67.9152,17.6976 68.5,19C 71.1392,19.6529 73.4726,20.8196 75.5,22.5C 75.6716,23.4916 75.3382,24.1583 74.5,24.5C 66.6319,24.9335 58.2986,24.9335 49.5,24.5C 51.8413,22.1712 54.5079,20.1712 57.5,18.5C 57.1373,17.8165 56.8039,17.1499 56.5,16.5C 57.7498,16.5774 58.5831,17.244 59,18.5C 59.9707,17.8016 61.1374,17.8016 62.5,18.5C 64.6528,18.4387 65.9862,17.4387 66.5,15.5 Z"/></g>
<g><path style="opacity:1" fill="#fd5189" d="M 30.5,16.5 C 30.3932,18.3786 30.8932,18.7119 32,17.5C 34.099,18.1305 35.9323,19.1305 37.5,20.5C 37.4606,21.5832 37.1272,22.5832 36.5,23.5C 31.533,24.6623 26.533,24.8289 21.5,24C 23.0931,23.0513 24.4264,21.8846 25.5,20.5C 28.0377,20.169 29.7043,18.8357 30.5,16.5 Z"/></g>
<g><path style="opacity:1" fill="#fb6b84" d="M 75.5,22.5 C 80.5099,26.1832 83.1765,31.1832 83.5,37.5C 83.1667,37.5 82.8333,37.5 82.5,37.5C 82.7051,35.8627 82.2051,34.196 81,32.5C 78.3695,32.8592 76.2029,33.8592 74.5,35.5C 74.1667,35.5 73.8333,35.5 73.5,35.5C 71.1091,29.8012 66.7757,27.4679 60.5,28.5C 65.3118,27.7262 69.9785,26.3928 74.5,24.5C 75.3382,24.1583 75.6716,23.4916 75.5,22.5 Z"/></g>
<g><path style="opacity:1" fill="#fd5b83" d="M 74.5,24.5 C 69.9785,26.3928 65.3118,27.7262 60.5,28.5C 60.1667,28.5 59.8333,28.5 59.5,28.5C 55.2577,27.5383 51.2577,27.205 47.5,27.5C 47.9321,26.2905 48.5987,25.2905 49.5,24.5C 58.2986,24.9335 66.6319,24.9335 74.5,24.5 Z"/></g>
<g><path style="opacity:1" fill="#fc6684" d="M 38.5,19.5 C 38.2614,25.9049 34.9281,29.0716 28.5,29C 26.313,30.025 24.6464,31.525 23.5,33.5C 21.1014,33.4366 18.6014,33.7699 16,34.5C 15.5099,32.4546 15.6765,30.4546 16.5,28.5C 18.2329,24.4351 21.2329,21.7684 25.5,20.5C 24.4264,21.8846 23.0931,23.0513 21.5,24C 26.533,24.8289 31.533,24.6623 36.5,23.5C 37.1272,22.5832 37.4606,21.5832 37.5,20.5C 37.5,19.8333 37.8333,19.5 38.5,19.5 Z"/></g>
<g><path style="opacity:1" fill="#fd687a" d="M 47.5,27.5 C 51.2577,27.205 55.2577,27.5383 59.5,28.5C 58.205,29.4884 56.8717,30.4884 55.5,31.5C 53.7428,32.292 52.4095,33.6253 51.5,35.5C 49.233,35.6017 46.8997,35.2683 44.5,34.5C 44.5516,31.6538 45.5516,29.3204 47.5,27.5 Z"/></g>
<g><path style="opacity:1" fill="#fa7e78" d="M 55.5,31.5 C 54.0744,36.2122 52.7411,40.8789 51.5,45.5C 51.5,43.1667 51.5,40.8333 51.5,38.5C 49.2075,38.7564 47.0408,38.4231 45,37.5C 44.9964,40.7916 43.8297,43.4582 41.5,45.5C 42.7773,41.8059 43.7773,38.1393 44.5,34.5C 46.8997,35.2683 49.233,35.6017 51.5,35.5C 52.4095,33.6253 53.7428,32.292 55.5,31.5 Z"/></g>
<g><path style="opacity:0.999" fill="#fb7d79" d="M 16.5,28.5 C 15.6765,30.4546 15.5099,32.4546 16,34.5C 18.6014,33.7699 21.1014,33.4366 23.5,33.5C 22.1667,36.8333 22.1667,40.1667 23.5,43.5C 21.87,41.9739 21.0367,39.9739 21,37.5C 19.2458,39.25 17.0792,39.9167 14.5,39.5C 14.7556,42.5979 15.4222,45.5979 16.5,48.5C 15.0337,47.653 14.2004,46.3197 14,44.5C 13.3333,40.5 13.3333,36.5 14,32.5C 14.2004,30.6803 15.0337,29.347 16.5,28.5 Z"/></g>
<g><path style="opacity:1" fill="#fd7668" d="M 82.5,37.5 C 82.7022,39.9892 82.2022,42.3225 81,44.5C 78.8526,43.8875 76.686,43.2208 74.5,42.5C 75.8217,40.1354 75.8217,37.8021 74.5,35.5C 76.2029,33.8592 78.3695,32.8592 81,32.5C 82.2051,34.196 82.7051,35.8627 82.5,37.5 Z"/></g>
<g><path style="opacity:1" fill="#fa8b70" d="M 73.5,35.5 C 73.8333,35.5 74.1667,35.5 74.5,35.5C 75.8217,37.8021 75.8217,40.1354 74.5,42.5C 76.686,43.2208 78.8526,43.8875 81,44.5C 82.2022,42.3225 82.7022,39.9892 82.5,37.5C 82.8333,37.5 83.1667,37.5 83.5,37.5C 83.9313,42.207 82.598,46.207 79.5,49.5C 78.5943,48.0351 77.261,47.0351 75.5,46.5C 73.3821,47.9459 71.0488,48.6126 68.5,48.5C 69.7927,46.7041 71.2927,45.0375 73,43.5C 74.2298,40.7936 74.3964,38.127 73.5,35.5 Z"/></g>
<g><path style="opacity:1" fill="#fb8765" d="M 23.5,43.5 C 26.9354,48.0316 31.6021,49.6982 37.5,48.5C 33.8287,50.8936 29.9954,50.8936 26,48.5C 24.7964,49.4706 24.2964,50.4706 24.5,51.5C 23.2519,50.9598 22.0852,50.2931 21,49.5C 20.3828,50.4491 20.5494,51.2825 21.5,52C 20.9056,52.4643 20.2389,52.631 19.5,52.5C 17.7376,51.7377 16.7376,50.4044 16.5,48.5C 15.4222,45.5979 14.7556,42.5979 14.5,39.5C 17.0792,39.9167 19.2458,39.25 21,37.5C 21.0367,39.9739 21.87,41.9739 23.5,43.5 Z"/></g>
<g><path style="opacity:1" fill="#fc885f" d="M 51.5,45.5 C 44.8464,58.4803 34.8464,61.8136 21.5,55.5C 20.8333,54.5 20.1667,53.5 19.5,52.5C 20.2389,52.631 20.9056,52.4643 21.5,52C 20.5494,51.2825 20.3828,50.4491 21,49.5C 22.0852,50.2931 23.2519,50.9598 24.5,51.5C 24.2964,50.4706 24.7964,49.4706 26,48.5C 29.9954,50.8936 33.8287,50.8936 37.5,48.5C 38.795,47.5116 40.1283,46.5116 41.5,45.5C 43.8297,43.4582 44.9964,40.7916 45,37.5C 47.0408,38.4231 49.2075,38.7564 51.5,38.5C 51.5,40.8333 51.5,43.1667 51.5,45.5 Z"/></g>
<g><path style="opacity:1" fill="#fd8c5a" d="M 79.5,49.5 C 78.2405,52.5958 76.0738,54.9292 73,56.5C 71.7637,66.5842 70.0971,76.5842 68,86.5C 65.5112,90.8325 62.0112,93.8325 57.5,95.5C 54.8333,95.5 52.1667,95.5 49.5,95.5C 49.5,92.8333 49.5,90.1667 49.5,87.5C 51.8008,86.9396 54.1341,86.4396 56.5,86C 58.3333,85.5 59.5,84.3333 60,82.5C 61.4938,74.5385 62.6604,66.5385 63.5,58.5C 57.9845,56.9426 57.3178,54.1092 61.5,50C 63.74,49.023 66.0733,48.523 68.5,48.5C 71.0488,48.6126 73.3821,47.9459 75.5,46.5C 77.261,47.0351 78.5943,48.0351 79.5,49.5 Z"/></g>
<g><path style="opacity:0.008" fill="#fb778b" d="M 21.5,55.5 C 21.1667,56.5 20.5,57.1667 19.5,57.5C 19.5,56.1667 20.1667,55.5 21.5,55.5 Z"/></g>
<g><path style="opacity:0.008" fill="#fa6b7a" d="M 40.5,58.5 C 42.9337,59.354 42.767,60.354 40,61.5C 39.5304,60.4232 39.6971,59.4232 40.5,58.5 Z"/></g>
<g><path style="opacity:0.004" fill="#f97085" d="M 19.5,57.5 C 19.6104,60.0588 18.9438,62.3921 17.5,64.5C 17.1667,64.3333 16.8333,64.1667 16.5,64C 17.2489,62.2663 17.7489,60.433 18,58.5C 18.3826,57.944 18.8826,57.6107 19.5,57.5 Z"/></g>
<g><path style="opacity:0.999" fill="#fe4b92" d="M 34.5,66.5 C 35.0167,72.2377 36.0167,77.9043 37.5,83.5C 37.7472,84.7133 38.4138,85.38 39.5,85.5C 41.7722,86.3186 44.1055,86.9853 46.5,87.5C 46.9175,88.2216 47.5842,88.7216 48.5,89C 46.085,90.4653 45.085,92.632 45.5,95.5C 43.5,95.5 41.5,95.5 39.5,95.5C 36.0503,94.0107 33.217,91.6773 31,88.5C 28.7847,80.4243 26.9514,72.2576 25.5,64C 26.1587,59.9177 28.492,58.5844 32.5,60C 34.229,61.7889 34.8957,63.9556 34.5,66.5 Z"/></g>
<g><path style="opacity:0.898" fill="#fd6286" d="M 34.5,66.5 C 36.2813,72.7131 37.9479,79.0465 39.5,85.5C 38.4138,85.38 37.7472,84.7133 37.5,83.5C 36.0167,77.9043 35.0167,72.2377 34.5,66.5 Z"/></g>
<g><path style="opacity:0.004" fill="#f8677c" d="M 20.5,83.5 C 21.6491,83.7911 22.3158,84.6244 22.5,86C 23.1662,87.6687 23.1662,89.1687 22.5,90.5C 21.5793,88.2235 20.9126,85.8901 20.5,83.5 Z"/></g>
<g><path style="opacity:0.008" fill="#f97080" d="M 76.5,84.5 C 77.229,86.5433 76.729,88.5433 75,90.5C 74.5906,88.3049 75.0906,86.3049 76.5,84.5 Z"/></g>
<g><path style="opacity:0.004" fill="#f73340" d="M 22.5,91.5 C 23.2891,91.7828 23.9558,92.2828 24.5,93C 23.184,93.5281 22.5173,93.0281 22.5,91.5 Z"/></g>
<g><path style="opacity:0.976" fill="#fe5c81" d="M 46.5,87.5 C 47.5,87.5 48.5,87.5 49.5,87.5C 49.5,90.1667 49.5,92.8333 49.5,95.5C 48.1667,95.5 46.8333,95.5 45.5,95.5C 45.085,92.632 46.085,90.4653 48.5,89C 47.5842,88.7216 46.9175,88.2216 46.5,87.5 Z"/></g>
</svg>
