<?xml version="1.0" encoding="UTF-8"?>
<!DOCTYPE svg PUBLIC "-//W3C//DTD SVG 1.1//EN" "http://www.w3.org/Graphics/SVG/1.1/DTD/svg11.dtd">
<svg xmlns="http://www.w3.org/2000/svg" version="1.1" width="96px" height="96px" style="shape-rendering:geometricPrecision; text-rendering:geometricPrecision; image-rendering:optimizeQuality; fill-rule:evenodd; clip-rule:evenodd" xmlns:xlink="http://www.w3.org/1999/xlink">
<g><path style="opacity:0.996" fill="#fe7f80" d="M -0.5,-0.5 C 31.5,-0.5 63.5,-0.5 95.5,-0.5C 95.5,31.5 95.5,63.5 95.5,95.5C 63.5,95.5 31.5,95.5 -0.5,95.5C -0.5,63.5 -0.5,31.5 -0.5,-0.5 Z"/></g>
<g><path style="opacity:1" fill="#fbf8f8" d="M 67.5,16.5 C 69.5,16.5 71.5,16.5 73.5,16.5C 73.5,17.5 73.5,18.5 73.5,19.5C 71.5,19.5 69.5,19.5 67.5,19.5C 67.5,18.5 67.5,17.5 67.5,16.5 Z"/></g>
<g><path style="opacity:1" fill="#efced0" d="M 31.5,19.5 C 29.5,19.5 27.5,19.5 25.5,19.5C 25.5,21.5 25.5,23.5 25.5,25.5C 27.5,25.5 29.5,25.5 31.5,25.5C 29.3926,26.4682 27.0593,26.8016 24.5,26.5C 24.5,24.1667 24.5,21.8333 24.5,19.5C 24.5,18.1667 24.5,16.8333 24.5,15.5C 26.8333,15.5 29.1667,15.5 31.5,15.5C 31.5,16.8333 31.5,18.1667 31.5,19.5 Z"/></g>
<g><path style="opacity:1" fill="#fcfcfb" d="M 24.5,19.5 C 24.5,21.8333 24.5,24.1667 24.5,26.5C 27.0593,26.8016 29.3926,26.4682 31.5,25.5C 31.5,23.5 31.5,21.5 31.5,19.5C 32.5,19.5 33.5,19.5 34.5,19.5C 34.5,20.5 34.5,21.5 34.5,22.5C 44.5,22.5 54.5,22.5 64.5,22.5C 64.5,21.5 64.5,20.5 64.5,19.5C 65.5,19.5 66.5,19.5 67.5,19.5C 67.5,21.5 67.5,23.5 67.5,25.5C 69.6074,26.4682 71.9407,26.8016 74.5,26.5C 74.5,24.1667 74.5,21.8333 74.5,19.5C 75.1667,19.5 75.8333,19.5 76.5,19.5C 76.5,30.1667 76.5,40.8333 76.5,51.5C 68.9809,51.175 61.6476,51.5084 54.5,52.5C 51.1667,52.5 47.8333,52.5 44.5,52.5C 36.8333,52.5 29.1667,52.5 21.5,52.5C 21.5,53.5 21.5,54.5 21.5,55.5C 28.1667,55.5 34.8333,55.5 41.5,55.5C 41.5,56.5 41.5,57.5 41.5,58.5C 41.5,60.8333 41.5,63.1667 41.5,65.5C 42.5,65.5 43.5,65.5 44.5,65.5C 44.5,66.5 44.5,67.5 44.5,68.5C 47.8333,68.5 51.1667,68.5 54.5,68.5C 54.5,67.5 54.5,66.5 54.5,65.5C 55.5,65.5 56.5,65.5 57.5,65.5C 57.5,63.1667 57.5,60.8333 57.5,58.5C 57.5,57.5 57.5,56.5 57.5,55.5C 57.8333,55.5 58.1667,55.5 58.5,55.5C 64.31,56.4896 70.31,56.8229 76.5,56.5C 76.5,64.8333 76.5,73.1667 76.5,81.5C 75.5,81.5 74.5,81.5 73.5,81.5C 73.5,82.5 73.5,83.5 73.5,84.5C 56.1667,84.5 38.8333,84.5 21.5,84.5C 21.5,83.5 21.5,82.5 21.5,81.5C 20.5,81.5 19.5,81.5 18.5,81.5C 18.5,74.8333 18.5,68.1667 18.5,61.5C 17.5,61.5 16.5,61.5 15.5,61.5C 15.5,60.5 15.5,59.5 15.5,58.5C 14.1667,58.5 12.8333,58.5 11.5,58.5C 11.5,52.1667 11.5,45.8333 11.5,39.5C 12.8333,39.5 14.1667,39.5 15.5,39.5C 15.5,38.1667 15.5,36.8333 15.5,35.5C 16.1667,35.5 16.8333,35.5 17.5,35.5C 17.8333,35.5 18.1667,35.5 18.5,35.5C 18.5,34.5 18.5,33.5 18.5,32.5C 19.5,32.5 20.5,32.5 21.5,32.5C 21.5,28.1667 21.5,23.8333 21.5,19.5C 22.5,19.5 23.5,19.5 24.5,19.5 Z"/></g>
<g><path style="opacity:1" fill="#d2525d" d="M 31.5,19.5 C 31.5,21.5 31.5,23.5 31.5,25.5C 29.5,25.5 27.5,25.5 25.5,25.5C 25.5,23.5 25.5,21.5 25.5,19.5C 27.5,19.5 29.5,19.5 31.5,19.5 Z"/></g>
<g><path style="opacity:1" fill="#d44e5b" d="M 67.5,19.5 C 69.5,19.5 71.5,19.5 73.5,19.5C 73.5,21.5 73.5,23.5 73.5,25.5C 71.5,25.5 69.5,25.5 67.5,25.5C 67.5,23.5 67.5,21.5 67.5,19.5 Z"/></g>
<g><path style="opacity:1" fill="#ecd0d0" d="M 76.5,19.5 C 77.4946,30.3206 77.8279,41.3206 77.5,52.5C 69.8333,52.5 62.1667,52.5 54.5,52.5C 61.6476,51.5084 68.9809,51.175 76.5,51.5C 76.5,40.8333 76.5,30.1667 76.5,19.5 Z"/></g>
<g><path style="opacity:1" fill="#dfaaad" d="M 67.5,16.5 C 69.6074,15.5318 71.9407,15.1984 74.5,15.5C 74.5,16.8333 74.5,18.1667 74.5,19.5C 74.5,21.8333 74.5,24.1667 74.5,26.5C 71.9407,26.8016 69.6074,26.4682 67.5,25.5C 69.5,25.5 71.5,25.5 73.5,25.5C 73.5,23.5 73.5,21.5 73.5,19.5C 73.5,18.5 73.5,17.5 73.5,16.5C 71.5,16.5 69.5,16.5 67.5,16.5 Z"/></g>
<g><path style="opacity:1" fill="#f8f3f3" d="M 18.5,29.5 C 18.5,30.5 18.5,31.5 18.5,32.5C 17.5,32.5 16.5,32.5 15.5,32.5C 15.5,31.5 15.5,30.5 15.5,29.5C 16.5,29.5 17.5,29.5 18.5,29.5 Z"/></g>
<g><path style="opacity:1" fill="#faf6f6" d="M 14.5,32.5 C 14.5,33.5 14.5,34.5 14.5,35.5C 13.5,35.5 12.5,35.5 11.5,35.5C 11.5,34.5 11.5,33.5 11.5,32.5C 12.5,32.5 13.5,32.5 14.5,32.5 Z"/></g>
<g><path style="opacity:1" fill="#dd9aa0" d="M 18.5,29.5 C 17.5,29.5 16.5,29.5 15.5,29.5C 15.5,30.5 15.5,31.5 15.5,32.5C 16.5,32.5 17.5,32.5 18.5,32.5C 18.5,33.5 18.5,34.5 18.5,35.5C 18.1667,35.5 17.8333,35.5 17.5,35.5C 16.8333,32.8333 16.1667,32.8333 15.5,35.5C 15.5,36.8333 15.5,38.1667 15.5,39.5C 14.1667,39.5 12.8333,39.5 11.5,39.5C 12.3984,38.8423 13.3984,38.1757 14.5,37.5C 13.3984,36.8243 12.3984,36.1577 11.5,35.5C 12.5,35.5 13.5,35.5 14.5,35.5C 14.5,34.5 14.5,33.5 14.5,32.5C 14.5,31.1667 14.5,29.8333 14.5,28.5C 16.099,28.2322 17.4324,28.5655 18.5,29.5 Z"/></g>
<g><path style="opacity:1" fill="#574251" d="M 37.5,32.5 C 37.5,33.5 37.5,34.5 37.5,35.5C 35.5,35.5 33.5,35.5 31.5,35.5C 31.5,34.5 31.5,33.5 31.5,32.5C 33.5,32.5 35.5,32.5 37.5,32.5 Z"/></g>
<g><path style="opacity:1" fill="#584251" d="M 61.5,32.5 C 63.5,32.5 65.5,32.5 67.5,32.5C 67.5,33.5 67.5,34.5 67.5,35.5C 65.5,35.5 63.5,35.5 61.5,35.5C 61.5,34.5 61.5,33.5 61.5,32.5 Z"/></g>
<g><path style="opacity:1" fill="#c22b3a" d="M 17.5,35.5 C 16.8333,35.5 16.1667,35.5 15.5,35.5C 16.1667,32.8333 16.8333,32.8333 17.5,35.5 Z"/></g>
<g><path style="opacity:1" fill="#ada6ac" d="M 37.5,32.5 C 38.404,33.209 38.7373,34.209 38.5,35.5C 38.5,36.5 38.5,37.5 38.5,38.5C 39.5,38.5 40.5,38.5 41.5,38.5C 40.4324,39.4345 39.099,39.7678 37.5,39.5C 37.5,38.5 37.5,37.5 37.5,36.5C 35.5,36.5 33.5,36.5 31.5,36.5C 31.5,36.1667 31.5,35.8333 31.5,35.5C 33.5,35.5 35.5,35.5 37.5,35.5C 37.5,34.5 37.5,33.5 37.5,32.5 Z"/></g>
<g><path style="opacity:1" fill="#a49ba1" d="M 61.5,32.5 C 61.5,33.5 61.5,34.5 61.5,35.5C 63.5,35.5 65.5,35.5 67.5,35.5C 68.8333,35.5 70.1667,35.5 71.5,35.5C 71.5,36.8333 71.5,38.1667 71.5,39.5C 69.901,39.7678 68.5676,39.4345 67.5,38.5C 71.5,37.8333 71.5,37.1667 67.5,36.5C 65.5,36.5 63.5,36.5 61.5,36.5C 61.5,37.5 61.5,38.5 61.5,39.5C 60.1667,39.5 58.8333,39.5 57.5,39.5C 57.5,38.1667 57.5,36.8333 57.5,35.5C 58.5,35.5 59.5,35.5 60.5,35.5C 60.2627,34.209 60.596,33.209 61.5,32.5 Z"/></g>
<g><path style="opacity:1" fill="#62515d" d="M 38.5,35.5 C 39.5,35.5 40.5,35.5 41.5,35.5C 41.5,36.5 41.5,37.5 41.5,38.5C 41.5,37.5 41.5,36.5 41.5,35.5C 40.5,35.5 39.5,35.5 38.5,35.5 Z"/></g>
<g><path style="opacity:1" fill="#3d2735" d="M 67.5,36.5 C 71.5,37.1667 71.5,37.8333 67.5,38.5C 67.5,37.8333 67.5,37.1667 67.5,36.5 Z"/></g>
<g><path style="opacity:1" fill="#cc6067" d="M 18.5,35.5 C 19.5,35.5 20.5,35.5 21.5,35.5C 21.5,36.8333 21.5,38.1667 21.5,39.5C 20.5,39.5 19.5,39.5 18.5,39.5C 18.5,38.1667 18.5,36.8333 18.5,35.5 Z"/></g>
<g><path style="opacity:1" fill="#73656f" d="M 31.5,35.5 C 31.5,35.8333 31.5,36.1667 31.5,36.5C 31.5,37.5 31.5,38.5 31.5,39.5C 30.1667,39.5 28.8333,39.5 27.5,39.5C 27.5,38.1667 27.5,36.8333 27.5,35.5C 28.8333,35.5 30.1667,35.5 31.5,35.5 Z"/></g>
<g><path style="opacity:1" fill="#d05c66" d="M 44.5,39.5 C 47.8333,39.5 51.1667,39.5 54.5,39.5C 54.5,40.5 54.5,41.5 54.5,42.5C 53.5,42.5 52.5,42.5 51.5,42.5C 51.5,43.5 51.5,44.5 51.5,45.5C 50.1667,45.5 48.8333,45.5 47.5,45.5C 47.5,44.5 47.5,43.5 47.5,42.5C 46.5,42.5 45.5,42.5 44.5,42.5C 44.5,41.5 44.5,40.5 44.5,39.5 Z"/></g>
<g><path style="opacity:1" fill="#b42726" d="M 44.5,52.5 C 44.5,53.5 44.5,54.5 44.5,55.5C 43.5,55.5 42.5,55.5 41.5,55.5C 34.8333,55.5 28.1667,55.5 21.5,55.5C 21.5,54.5 21.5,53.5 21.5,52.5C 29.1667,52.5 36.8333,52.5 44.5,52.5 Z"/></g>
<g><path style="opacity:1" fill="#b42626" d="M 54.5,52.5 C 62.1667,52.5 69.8333,52.5 77.5,52.5C 77.5,53.5 77.5,54.5 77.5,55.5C 71.1667,55.5 64.8333,55.5 58.5,55.5C 58.1667,55.5 57.8333,55.5 57.5,55.5C 56.5,55.5 55.5,55.5 54.5,55.5C 54.5,54.5 54.5,53.5 54.5,52.5 Z"/></g>
<g><path style="opacity:1" fill="#f6e334" d="M 44.5,52.5 C 47.8333,52.5 51.1667,52.5 54.5,52.5C 54.5,53.5 54.5,54.5 54.5,55.5C 55.5,55.5 56.5,55.5 57.5,55.5C 57.5,56.5 57.5,57.5 57.5,58.5C 56.1667,58.5 54.8333,58.5 53.5,58.5C 53.5,57.5 53.5,56.5 53.5,55.5C 50.8333,55.5 48.1667,55.5 45.5,55.5C 45.5,56.5 45.5,57.5 45.5,58.5C 44.1667,58.5 42.8333,58.5 41.5,58.5C 41.5,57.5 41.5,56.5 41.5,55.5C 42.5,55.5 43.5,55.5 44.5,55.5C 44.5,54.5 44.5,53.5 44.5,52.5 Z"/></g>
<g><path style="opacity:1" fill="#f3c22d" d="M 57.5,58.5 C 57.5,60.8333 57.5,63.1667 57.5,65.5C 56.5,65.5 55.5,65.5 54.5,65.5C 54.5,66.5 54.5,67.5 54.5,68.5C 51.1667,68.5 47.8333,68.5 44.5,68.5C 44.5,67.5 44.5,66.5 44.5,65.5C 43.5,65.5 42.5,65.5 41.5,65.5C 41.5,63.1667 41.5,60.8333 41.5,58.5C 42.8333,58.5 44.1667,58.5 45.5,58.5C 45.5,57.5 45.5,56.5 45.5,55.5C 48.1667,55.5 50.8333,55.5 53.5,55.5C 53.5,56.5 53.5,57.5 53.5,58.5C 54.8333,58.5 56.1667,58.5 57.5,58.5 Z"/></g>
<g><path style="opacity:1" fill="#eda9aa" d="M 11.5,58.5 C 12.8333,58.5 14.1667,58.5 15.5,58.5C 15.5,59.5 15.5,60.5 15.5,61.5C 16.5,61.5 17.5,61.5 18.5,61.5C 18.5,68.1667 18.5,74.8333 18.5,81.5C 17.5098,75.3554 17.1765,69.0221 17.5,62.5C 16.5,62.5 15.5,62.5 14.5,62.5C 14.5,61.5 14.5,60.5 14.5,59.5C 13.209,59.7373 12.209,59.404 11.5,58.5 Z"/></g>
<g><path style="opacity:1" fill="#edc4c5" d="M 58.5,55.5 C 64.8333,55.5 71.1667,55.5 77.5,55.5C 77.5,64.5 77.5,73.5 77.5,82.5C 76.5,82.5 75.5,82.5 74.5,82.5C 74.5,83.5 74.5,84.5 74.5,85.5C 56.6588,85.8301 38.9921,85.4967 21.5,84.5C 38.8333,84.5 56.1667,84.5 73.5,84.5C 73.5,83.5 73.5,82.5 73.5,81.5C 74.5,81.5 75.5,81.5 76.5,81.5C 76.5,73.1667 76.5,64.8333 76.5,56.5C 70.31,56.8229 64.31,56.4896 58.5,55.5 Z"/></g>
</svg>
