<?xml version="1.0" encoding="UTF-8"?>
<!DOCTYPE svg PUBLIC "-//W3C//DTD SVG 1.1//EN" "http://www.w3.org/Graphics/SVG/1.1/DTD/svg11.dtd">
<svg xmlns="http://www.w3.org/2000/svg" version="1.1" width="96px" height="96px" style="shape-rendering:geometricPrecision; text-rendering:geometricPrecision; image-rendering:optimizeQuality; fill-rule:evenodd; clip-rule:evenodd" xmlns:xlink="http://www.w3.org/1999/xlink">
<g><path style="opacity:0.996" fill="#f63737" d="M -0.5,-0.5 C 31.5,-0.5 63.5,-0.5 95.5,-0.5C 95.5,31.5 95.5,63.5 95.5,95.5C 63.5,95.5 31.5,95.5 -0.5,95.5C -0.5,63.5 -0.5,31.5 -0.5,-0.5 Z"/></g>
<g><path style="opacity:1" fill="#3f1d53" d="M 61.5,8.5 C 62.1667,8.5 62.5,8.83333 62.5,9.5C 61.391,9.55688 60.391,9.89022 59.5,10.5C 59.5,9.16667 60.1667,8.5 61.5,8.5 Z"/></g>
<g><path style="opacity:1" fill="#eca242" d="M 37.5,14.5 C 37.4431,13.391 37.1098,12.391 36.5,11.5C 35.537,10.6365 35.537,9.96983 36.5,9.5C 38.1667,10.6667 39.8333,11.8333 41.5,13C 40.4366,14.1882 39.1033,14.6882 37.5,14.5 Z"/></g>
<g><path style="opacity:1" fill="#f1a546" d="M 58.5,10.5 C 58.1667,11.1667 57.8333,11.8333 57.5,12.5C 56.2233,14.914 54.5566,15.0807 52.5,13C 54.1667,11.8333 55.8333,10.6667 57.5,9.5C 58.1067,9.62358 58.44,9.95691 58.5,10.5 Z"/></g>
<g><path style="opacity:1" fill="#7e4551" d="M 61.5,8.5 C 60.1667,8.5 59.5,9.16667 59.5,10.5C 59.1667,10.5 58.8333,10.5 58.5,10.5C 58.44,9.95691 58.1067,9.62358 57.5,9.5C 55.8333,10.6667 54.1667,11.8333 52.5,13C 54.5566,15.0807 56.2233,14.914 57.5,12.5C 57.5,13.1667 57.8333,13.5 58.5,13.5C 56.9893,15.8375 57.3227,16.5042 59.5,15.5C 59.4431,16.609 59.1098,17.609 58.5,18.5C 55.5925,16.1954 52.2592,14.8621 48.5,14.5C 47.8333,14.5 47.1667,14.5 46.5,14.5C 42.4682,14.1856 39.1348,15.5189 36.5,18.5C 34.8249,16.544 35.1582,15.2107 37.5,14.5C 39.1033,14.6882 40.4366,14.1882 41.5,13C 39.8333,11.8333 38.1667,10.6667 36.5,9.5C 35.537,9.96983 35.537,10.6365 36.5,11.5C 36.1667,11.5 35.8333,11.5 35.5,11.5C 34.5416,11.0472 33.7083,10.3805 33,9.5C 32.2917,10.3805 31.4584,11.0472 30.5,11.5C 30.8184,9.1816 32.1517,7.84827 34.5,7.5C 37.6152,8.22374 40.2819,9.72374 42.5,12C 45.5,12.6667 48.5,12.6667 51.5,12C 54.363,8.7019 57.6963,7.53524 61.5,8.5 Z"/></g>
<g><path style="opacity:1" fill="#eca851" d="M 58.5,13.5 C 59.3382,13.8417 59.6716,14.5084 59.5,15.5C 57.3227,16.5042 56.9893,15.8375 58.5,13.5 Z"/></g>
<g><path style="opacity:1" fill="#953757" d="M 62.5,9.5 C 64.8942,11.3318 65.8942,13.8318 65.5,17C 65.5922,19.8211 64.9256,22.3211 63.5,24.5C 63.5,24.1667 63.5,23.8333 63.5,23.5C 64.4953,18.7827 64.162,14.116 62.5,9.5 Z"/></g>
<g><path style="opacity:1" fill="#991f3b" d="M 29.5,13.5 C 29.4595,16.8806 29.7929,20.2139 30.5,23.5C 30.5,23.8333 30.5,24.1667 30.5,24.5C 28.4309,20.9563 28.0976,17.2896 29.5,13.5 Z"/></g>
<g><path style="opacity:1" fill="#623e6c" d="M 35.5,11.5 C 35.8333,11.5 36.1667,11.5 36.5,11.5C 37.1098,12.391 37.4431,13.391 37.5,14.5C 35.1582,15.2107 34.8249,16.544 36.5,18.5C 34.4284,20.3495 33.0951,22.6829 32.5,25.5C 31.8333,25.1667 31.1667,24.8333 30.5,24.5C 30.5,24.1667 30.5,23.8333 30.5,23.5C 31.4972,23.5299 32.1639,23.0299 32.5,22C 32.8237,18.1895 33.8237,14.6895 35.5,11.5 Z"/></g>
<g><path style="opacity:1" fill="#f4b8de" d="M 62.5,9.5 C 64.162,14.116 64.4953,18.7827 63.5,23.5C 62.2101,22.9423 61.3768,21.9423 61,20.5C 60.6614,17.1204 60.1614,13.7871 59.5,10.5C 60.391,9.89022 61.391,9.55688 62.5,9.5 Z"/></g>
<g><path style="opacity:1" fill="#e8afd8" d="M 35.5,11.5 C 33.8237,14.6895 32.8237,18.1895 32.5,22C 32.1639,23.0299 31.4972,23.5299 30.5,23.5C 29.7929,20.2139 29.4595,16.8806 29.5,13.5C 29.3284,12.5084 29.6618,11.8417 30.5,11.5C 31.4584,11.0472 32.2917,10.3805 33,9.5C 33.7083,10.3805 34.5416,11.0472 35.5,11.5 Z"/></g>
<g><path style="opacity:1" fill="#f8992b" d="M 46.5,14.5 C 45.2216,16.5442 45.3883,18.5442 47,20.5C 48.3186,18.7505 48.8186,16.7505 48.5,14.5C 52.2592,14.8621 55.5925,16.1954 58.5,18.5C 61.2751,23.8291 62.1084,29.4958 61,35.5C 59.9887,36.3366 58.8221,36.67 57.5,36.5C 55.7766,32.791 52.7766,30.791 48.5,30.5C 47.5,29.1667 46.5,29.1667 45.5,30.5C 41.4532,30.3552 38.4532,32.0219 36.5,35.5C 34.4168,33.9553 32.4168,32.1219 30.5,30C 31.5822,28.6703 32.2488,27.1703 32.5,25.5C 33.0951,22.6829 34.4284,20.3495 36.5,18.5C 39.1348,15.5189 42.4682,14.1856 46.5,14.5 Z"/></g>
<g><path style="opacity:1" fill="#f56523" d="M 46.5,14.5 C 47.1667,14.5 47.8333,14.5 48.5,14.5C 48.8186,16.7505 48.3186,18.7505 47,20.5C 45.3883,18.5442 45.2216,16.5442 46.5,14.5 Z"/></g>
<g><path style="opacity:1" fill="#f5d9a8" d="M 39.5,21.5 C 40.5,21.5 41.5,21.5 42.5,21.5C 41.7542,25.31 40.7542,25.31 39.5,21.5 Z"/></g>
<g><path style="opacity:1" fill="#683d2f" d="M 38.5,26.5 C 39.9778,26.238 41.3112,26.5713 42.5,27.5C 41.8333,27.8333 41.1667,28.1667 40.5,28.5C 39.2867,28.2528 38.62,27.5862 38.5,26.5 Z"/></g>
<g><path style="opacity:1" fill="#7e4b31" d="M 51.5,26.5 C 53.4286,26.2308 55.0953,26.7308 56.5,28C 55.6667,28.1667 54.8333,28.3333 54,28.5C 52.6244,28.3158 51.7911,27.6491 51.5,26.5 Z"/></g>
<g><path style="opacity:1" fill="#dfdee5" d="M 63.5,26.5 C 65.698,26.1201 67.3646,26.7868 68.5,28.5C 68.7373,29.791 68.404,30.791 67.5,31.5C 63.1844,32.5888 61.8511,30.9221 63.5,26.5 Z"/></g>
<g><path style="opacity:1" fill="#231863" d="M 48.5,30.5 C 48.281,31.675 48.6143,32.675 49.5,33.5C 51.6996,32.5437 52.0329,33.2104 50.5,35.5C 48.1689,34.0048 46.1689,34.3382 44.5,36.5C 43.6091,35.7387 42.9424,34.7387 42.5,33.5C 42.9377,32.4937 43.6043,32.4937 44.5,33.5C 45.3857,32.675 45.719,31.675 45.5,30.5C 46.5,29.1667 47.5,29.1667 48.5,30.5 Z"/></g>
<g><path style="opacity:1" fill="#edecef" d="M 45.5,30.5 C 45.719,31.675 45.3857,32.675 44.5,33.5C 43.6043,32.4937 42.9377,32.4937 42.5,33.5C 42.9424,34.7387 43.6091,35.7387 44.5,36.5C 45.0968,37.1386 45.9302,37.472 47,37.5C 48.6991,37.6134 49.8658,36.9468 50.5,35.5C 52.0329,33.2104 51.6996,32.5437 49.5,33.5C 48.6143,32.675 48.281,31.675 48.5,30.5C 52.7766,30.791 55.7766,32.791 57.5,36.5C 57.5858,37.4959 57.2524,38.3292 56.5,39C 50.1667,41 43.8333,41 37.5,39C 36.944,38.6174 36.6107,38.1174 36.5,37.5C 36.5,36.8333 36.5,36.1667 36.5,35.5C 38.4532,32.0219 41.4532,30.3552 45.5,30.5 Z"/></g>
<g><path style="opacity:1" fill="#563c67" d="M 58.5,10.5 C 58.8333,10.5 59.1667,10.5 59.5,10.5C 60.1614,13.7871 60.6614,17.1204 61,20.5C 61.3768,21.9423 62.2101,22.9423 63.5,23.5C 63.5,23.8333 63.5,24.1667 63.5,24.5C 63.5,25.1667 63.5,25.8333 63.5,26.5C 61.8511,30.9221 63.1844,32.5888 67.5,31.5C 67.5,31.8333 67.5,32.1667 67.5,32.5C 66.3915,33.29 65.0581,33.79 63.5,34C 62.3076,36.3549 60.641,38.1882 58.5,39.5C 57.8333,39.5 57.5,39.8333 57.5,40.5C 56.5084,40.3284 55.8417,40.6618 55.5,41.5C 54.209,41.2627 53.209,41.596 52.5,42.5C 50.1667,42.5 47.8333,42.5 45.5,42.5C 44.209,42.2627 43.209,42.596 42.5,43.5C 41.1667,42.8333 39.8333,42.1667 38.5,41.5C 37.5,41.5 36.5,41.5 35.5,41.5C 35.7148,39.8212 35.0481,38.8212 33.5,38.5C 33.369,37.7611 33.5357,37.0944 34,36.5C 34.6708,37.2524 35.5041,37.5858 36.5,37.5C 36.6107,38.1174 36.944,38.6174 37.5,39C 43.8333,41 50.1667,41 56.5,39C 57.2524,38.3292 57.5858,37.4959 57.5,36.5C 58.8221,36.67 59.9887,36.3366 61,35.5C 62.1084,29.4958 61.2751,23.8291 58.5,18.5C 59.1098,17.609 59.4431,16.609 59.5,15.5C 59.6716,14.5084 59.3382,13.8417 58.5,13.5C 57.8333,13.5 57.5,13.1667 57.5,12.5C 57.8333,11.8333 58.1667,11.1667 58.5,10.5 Z"/></g>
<g><path style="opacity:1" fill="#91484c" d="M 30.5,24.5 C 31.1667,24.8333 31.8333,25.1667 32.5,25.5C 32.2488,27.1703 31.5822,28.6703 30.5,30C 32.4168,32.1219 34.4168,33.9553 36.5,35.5C 36.5,36.1667 36.5,36.8333 36.5,37.5C 35.5041,37.5858 34.6708,37.2524 34,36.5C 33.5357,37.0944 33.369,37.7611 33.5,38.5C 32.6993,40.0418 32.366,41.7085 32.5,43.5C 31.8333,43.5 31.5,43.8333 31.5,44.5C 30.0937,44.0269 29.427,43.0269 29.5,41.5C 28.5987,40.7095 27.9321,39.7095 27.5,38.5C 26.7659,37.2921 26.4326,35.9587 26.5,34.5C 25.5,34.5 24.5,34.5 23.5,34.5C 23.4021,36.5529 24.0687,38.2196 25.5,39.5C 26.333,42.3567 27.6664,45.0234 29.5,47.5C 30.7362,48.2458 32.0695,48.5792 33.5,48.5C 33.5,49.1667 33.5,49.8333 33.5,50.5C 32.2437,52.7257 32.2437,55.059 33.5,57.5C 32.6618,57.8417 32.3284,58.5084 32.5,59.5C 32.5,60.1667 32.5,60.8333 32.5,61.5C 31.6773,58.023 31.1773,54.3563 31,50.5C 26.0744,47.0664 22.9078,42.3997 21.5,36.5C 22.2083,32.8227 24.2083,31.8227 27.5,33.5C 28.2191,35.5167 29.3857,37.1834 31,38.5C 31.5,38.1667 32,37.8333 32.5,37.5C 29.7453,33.4828 29.0786,29.1495 30.5,24.5 Z"/></g>
<g><path style="opacity:1" fill="#f49b31" d="M 27.5,38.5 C 26.8333,38.8333 26.1667,39.1667 25.5,39.5C 24.0687,38.2196 23.4021,36.5529 23.5,34.5C 24.5,34.5 25.5,34.5 26.5,34.5C 26.4326,35.9587 26.7659,37.2921 27.5,38.5 Z"/></g>
<g><path style="opacity:1" fill="#83407d" d="M 50.5,35.5 C 49.8658,36.9468 48.6991,37.6134 47,37.5C 45.9302,37.472 45.0968,37.1386 44.5,36.5C 46.1689,34.3382 48.1689,34.0048 50.5,35.5 Z"/></g>
<g><path style="opacity:1" fill="#f29931" d="M 67.5,32.5 C 68.6211,34.0894 68.4544,35.7561 67,37.5C 65.1422,40.4122 62.6422,41.9122 59.5,42C 58.7476,41.3292 58.4142,40.4959 58.5,39.5C 60.641,38.1882 62.3076,36.3549 63.5,34C 65.0581,33.79 66.3915,33.29 67.5,32.5 Z"/></g>
<g><path style="opacity:1" fill="#713644" d="M 68.5,28.5 C 70.8542,36.1232 68.1875,41.1232 60.5,43.5C 62.1799,48.6098 62.8466,53.9431 62.5,59.5C 62.1667,59.5 61.8333,59.5 61.5,59.5C 61.6716,58.5084 61.3382,57.8417 60.5,57.5C 60.5,57.1667 60.5,56.8333 60.5,56.5C 61.6225,54.7116 61.7891,52.7116 61,50.5C 59.2182,47.3681 58.0516,44.0347 57.5,40.5C 57.5,39.8333 57.8333,39.5 58.5,39.5C 58.4142,40.4959 58.7476,41.3292 59.5,42C 62.6422,41.9122 65.1422,40.4122 67,37.5C 68.4544,35.7561 68.6211,34.0894 67.5,32.5C 67.5,32.1667 67.5,31.8333 67.5,31.5C 68.404,30.791 68.7373,29.791 68.5,28.5 Z"/></g>
<g><path style="opacity:1" fill="#461d48" d="M 29.5,41.5 C 29.7467,39.0248 30.4134,39.0248 31.5,41.5C 31.0302,42.463 30.3635,42.463 29.5,41.5 Z"/></g>
<g><path style="opacity:1" fill="#f7f3ee" d="M 55.5,41.5 C 56.388,44.0545 56.7214,46.7212 56.5,49.5C 55.8333,49.5 55.5,49.8333 55.5,50.5C 54.5416,50.9528 53.7083,51.6195 53,52.5C 52.7679,51.2625 52.2679,50.2625 51.5,49.5C 51.5,48.1667 51.5,46.8333 51.5,45.5C 52.1098,44.609 52.4431,43.609 52.5,42.5C 53.209,41.596 54.209,41.2627 55.5,41.5 Z"/></g>
<g><path style="opacity:1" fill="#f1f1f4" d="M 38.5,41.5 C 39.8333,42.1667 41.1667,42.8333 42.5,43.5C 42.4142,44.4959 42.7476,45.3292 43.5,46C 40.6013,48.9292 38.268,48.7625 36.5,45.5C 36.7329,43.9382 37.3995,42.6049 38.5,41.5 Z"/></g>
<g><path style="opacity:1" fill="#f2f2f8" d="M 42.5,43.5 C 43.209,42.596 44.209,42.2627 45.5,42.5C 45.5,43.1667 45.5,43.8333 45.5,44.5C 44.391,44.4431 43.391,44.1098 42.5,43.5 Z"/></g>
<g><path style="opacity:1" fill="#f29d38" d="M 33.5,38.5 C 35.0481,38.8212 35.7148,39.8212 35.5,41.5C 36.5,41.5 37.5,41.5 38.5,41.5C 37.3995,42.6049 36.7329,43.9382 36.5,45.5C 34.6203,45.7709 33.287,45.1042 32.5,43.5C 32.366,41.7085 32.6993,40.0418 33.5,38.5 Z"/></g>
<g><path style="opacity:1" fill="#ca4448" d="M 45.5,42.5 C 47.8333,42.5 50.1667,42.5 52.5,42.5C 52.4431,43.609 52.1098,44.609 51.5,45.5C 50.8826,45.6107 50.3826,45.944 50,46.5C 49.1841,45.1772 48.0174,44.5106 46.5,44.5C 46.1667,44.5 45.8333,44.5 45.5,44.5C 45.5,43.8333 45.5,43.1667 45.5,42.5 Z"/></g>
<g><path style="opacity:1" fill="#e57230" d="M 27.5,38.5 C 27.9321,39.7095 28.5987,40.7095 29.5,41.5C 29.427,43.0269 30.0937,44.0269 31.5,44.5C 32.6005,45.6049 33.2671,46.9382 33.5,48.5C 32.0695,48.5792 30.7362,48.2458 29.5,47.5C 27.6664,45.0234 26.333,42.3567 25.5,39.5C 26.1667,39.1667 26.8333,38.8333 27.5,38.5 Z"/></g>
<g><path style="opacity:1" fill="#483356" d="M 32.5,43.5 C 33.287,45.1042 34.6203,45.7709 36.5,45.5C 38.268,48.7625 40.6013,48.9292 43.5,46C 42.7476,45.3292 42.4142,44.4959 42.5,43.5C 43.391,44.1098 44.391,44.4431 45.5,44.5C 45.8333,44.5 46.1667,44.5 46.5,44.5C 45.4489,45.2223 44.7822,46.2223 44.5,47.5C 43.5,48.1667 42.5,48.8333 41.5,49.5C 39.8235,50.1834 39.1568,51.5168 39.5,53.5C 38.8333,52.5 38.1667,51.5 37.5,50.5C 37.1627,47.6643 35.8293,46.9976 33.5,48.5C 33.2671,46.9382 32.6005,45.6049 31.5,44.5C 31.5,43.8333 31.8333,43.5 32.5,43.5 Z"/></g>
<g><path style="opacity:1" fill="#e8d972" d="M 44.5,47.5 C 45.8333,47.5 47.1667,47.5 48.5,47.5C 48.2627,48.791 48.596,49.791 49.5,50.5C 49.6716,51.4916 49.3382,52.1583 48.5,52.5C 46.594,50.0062 44.594,50.0062 42.5,52.5C 41.596,51.791 41.2627,50.791 41.5,49.5C 42.5,48.8333 43.5,48.1667 44.5,47.5 Z"/></g>
<g><path style="opacity:1" fill="#a49d8b" d="M 46.5,44.5 C 48.0174,44.5106 49.1841,45.1772 50,46.5C 50.3826,45.944 50.8826,45.6107 51.5,45.5C 51.5,46.8333 51.5,48.1667 51.5,49.5C 50.5084,49.3284 49.8417,49.6618 49.5,50.5C 48.596,49.791 48.2627,48.791 48.5,47.5C 47.1667,47.5 45.8333,47.5 44.5,47.5C 44.7822,46.2223 45.4489,45.2223 46.5,44.5 Z"/></g>
<g><path style="opacity:1" fill="#fb9d29" d="M 37.5,50.5 C 36.962,52.1172 36.6287,53.7839 36.5,55.5C 35.5,55.5 34.5,55.5 33.5,55.5C 33.5,53.8333 33.5,52.1667 33.5,50.5C 33.5,49.8333 33.5,49.1667 33.5,48.5C 35.8293,46.9976 37.1627,47.6643 37.5,50.5 Z"/></g>
<g><path style="opacity:1" fill="#f8a032" d="M 57.5,40.5 C 58.0516,44.0347 59.2182,47.3681 61,50.5C 61.7891,52.7116 61.6225,54.7116 60.5,56.5C 59.1667,56.5 57.8333,56.5 56.5,56.5C 56.5,54.1667 56.5,51.8333 56.5,49.5C 56.7214,46.7212 56.388,44.0545 55.5,41.5C 55.8417,40.6618 56.5084,40.3284 57.5,40.5 Z"/></g>
<g><path style="opacity:1" fill="#de9241" d="M 33.5,50.5 C 33.5,52.1667 33.5,53.8333 33.5,55.5C 34.5,55.5 35.5,55.5 36.5,55.5C 36.6287,53.7839 36.962,52.1172 37.5,50.5C 38.1667,51.5 38.8333,52.5 39.5,53.5C 39.5,54.8333 39.5,56.1667 39.5,57.5C 37.5,57.5 35.5,57.5 33.5,57.5C 32.2437,55.059 32.2437,52.7257 33.5,50.5 Z"/></g>
<g><path style="opacity:1" fill="#927b47" d="M 41.5,49.5 C 41.2627,50.791 41.596,51.791 42.5,52.5C 42.4326,53.9587 42.7659,55.2921 43.5,56.5C 45.2789,58.3435 47.6122,59.0102 50.5,58.5C 50.6567,57.1266 50.49,55.7932 50,54.5C 49.6174,55.056 49.1174,55.3893 48.5,55.5C 48.5,54.5 48.5,53.5 48.5,52.5C 49.3382,52.1583 49.6716,51.4916 49.5,50.5C 49.8417,49.6618 50.5084,49.3284 51.5,49.5C 52.4435,52.9988 52.4435,56.3322 51.5,59.5C 48.3085,61.4674 44.9752,61.8008 41.5,60.5C 41.5905,57.8478 40.9238,55.5145 39.5,53.5C 39.1568,51.5168 39.8235,50.1834 41.5,49.5 Z"/></g>
<g><path style="opacity:1" fill="#893a28" d="M 48.5,52.5 C 48.5,53.5 48.5,54.5 48.5,55.5C 47.2524,57.69 45.5857,58.0234 43.5,56.5C 42.7659,55.2921 42.4326,53.9587 42.5,52.5C 44.594,50.0062 46.594,50.0062 48.5,52.5 Z"/></g>
<g><path style="opacity:1" fill="#f6a649" d="M 44.5,52.5 C 48.31,53.7542 48.31,54.7542 44.5,55.5C 44.5,54.5 44.5,53.5 44.5,52.5 Z"/></g>
<g><path style="opacity:1" fill="#9d6143" d="M 56.5,49.5 C 56.5,51.8333 56.5,54.1667 56.5,56.5C 57.8333,56.5 59.1667,56.5 60.5,56.5C 60.5,56.8333 60.5,57.1667 60.5,57.5C 58.6112,58.7416 56.6112,58.7416 54.5,57.5C 54.448,55.0971 54.7814,52.7638 55.5,50.5C 55.5,49.8333 55.8333,49.5 56.5,49.5 Z"/></g>
<g><path style="opacity:1" fill="#f8e33c" d="M 43.5,56.5 C 45.5857,58.0234 47.2524,57.69 48.5,55.5C 49.1174,55.3893 49.6174,55.056 50,54.5C 50.49,55.7932 50.6567,57.1266 50.5,58.5C 47.6122,59.0102 45.2789,58.3435 43.5,56.5 Z"/></g>
<g><path style="opacity:1" fill="#c2c0d4" d="M 33.5,57.5 C 35.5,57.5 37.5,57.5 39.5,57.5C 39.5,58.5 39.5,59.5 39.5,60.5C 37.0971,60.552 34.7638,60.2186 32.5,59.5C 32.3284,58.5084 32.6618,57.8417 33.5,57.5 Z"/></g>
<g><path style="opacity:1" fill="#e2e5f3" d="M 54.5,57.5 C 56.6112,58.7416 58.6112,58.7416 60.5,57.5C 61.3382,57.8417 61.6716,58.5084 61.5,59.5C 59.5454,60.3235 57.5454,60.4901 55.5,60C 54.7476,59.3292 54.4142,58.4959 54.5,57.5 Z"/></g>
<g><path style="opacity:1" fill="#423358" d="M 39.5,53.5 C 40.9238,55.5145 41.5905,57.8478 41.5,60.5C 40.8333,60.5 40.1667,60.5 39.5,60.5C 39.5,59.5 39.5,58.5 39.5,57.5C 39.5,56.1667 39.5,54.8333 39.5,53.5 Z"/></g>
<g><path style="opacity:1" fill="#403f77" d="M 32.5,59.5 C 34.7638,60.2186 37.0971,60.552 39.5,60.5C 37.3926,61.4682 35.0593,61.8016 32.5,61.5C 32.5,60.8333 32.5,60.1667 32.5,59.5 Z"/></g>
<g><path style="opacity:1" fill="#685e5f" d="M 51.5,59.5 C 51.5,60.1667 51.8333,60.5 52.5,60.5C 50.6505,61.8366 48.4839,62.5033 46,62.5C 43.9919,62.6932 42.4919,62.0265 41.5,60.5C 44.9752,61.8008 48.3085,61.4674 51.5,59.5 Z"/></g>
<g><path style="opacity:1" fill="#534972" d="M 51.5,49.5 C 52.2679,50.2625 52.7679,51.2625 53,52.5C 53.7083,51.6195 54.5416,50.9528 55.5,50.5C 54.7814,52.7638 54.448,55.0971 54.5,57.5C 54.4142,58.4959 54.7476,59.3292 55.5,60C 57.5454,60.4901 59.5454,60.3235 61.5,59.5C 61.8333,59.5 62.1667,59.5 62.5,59.5C 61.3406,61.2503 59.674,62.2503 57.5,62.5C 55.9505,61.5592 54.2838,60.8925 52.5,60.5C 51.8333,60.5 51.5,60.1667 51.5,59.5C 52.4435,56.3322 52.4435,52.9988 51.5,49.5 Z"/></g>
<g><path style="opacity:1" fill="#dfa681" d="M 39.5,60.5 C 40.1667,60.5 40.8333,60.5 41.5,60.5C 42.4919,62.0265 43.9919,62.6932 46,62.5C 48.4839,62.5033 50.6505,61.8366 52.5,60.5C 54.2838,60.8925 55.9505,61.5592 57.5,62.5C 50.0113,63.6557 42.3446,63.8223 34.5,63C 33.5842,62.7216 32.9175,62.2216 32.5,61.5C 35.0593,61.8016 37.3926,61.4682 39.5,60.5 Z"/></g>
<g><path style="opacity:1" fill="#f1e1e0" d="M 28.5,65.5 C 28.3284,66.4916 28.6618,67.1583 29.5,67.5C 29.8511,70.2377 30.5178,72.9044 31.5,75.5C 29.5,76.8333 27.5,76.8333 25.5,75.5C 26.5628,73.634 25.8961,73.134 23.5,74C 24.7414,75.4865 24.2414,76.3199 22,76.5C 20.6244,76.3158 19.7911,75.6491 19.5,74.5C 20.5375,73.0697 21.2041,71.403 21.5,69.5C 22.4345,68.4324 22.7678,67.099 22.5,65.5C 24.5,65.5 26.5,65.5 28.5,65.5 Z"/></g>
<g><path style="opacity:1" fill="#f3e6e5" d="M 54.5,65.5 C 56.8333,65.5 59.1667,65.5 61.5,65.5C 61.5,66.8333 61.5,68.1667 61.5,69.5C 59.5,69.1667 57.5,68.8333 55.5,68.5C 55.2155,70.4147 55.5489,72.0813 56.5,73.5C 57.8221,73.67 58.9887,73.3366 60,72.5C 60.6924,73.0253 61.1924,73.6919 61.5,74.5C 58.872,76.6327 56.0387,76.966 53,75.5C 50.7392,71.6537 51.2392,68.3204 54.5,65.5 Z"/></g>
<g><path style="opacity:1" fill="#b74a44" d="M 49.5,68.5 C 46.9272,68.1485 44.5938,68.6485 42.5,70C 47.7937,70.8178 47.7937,71.3178 42.5,71.5C 42.5,72.8333 42.5,74.1667 42.5,75.5C 41.8333,74.5 41.1667,73.5 40.5,72.5C 40.5394,71.4168 40.8728,70.4168 41.5,69.5C 40.675,68.6143 39.675,68.281 38.5,68.5C 37.8333,73.8333 37.1667,73.8333 36.5,68.5C 34.5168,68.1568 33.1834,68.8235 32.5,70.5C 31.6618,70.1583 31.3284,69.4916 31.5,68.5C 37.5,67.1667 43.5,67.1667 49.5,68.5 Z"/></g>
<g><path style="opacity:1" fill="#f4e9e7" d="M 72.5,66.5 C 76.9319,67.1902 77.9319,69.1902 75.5,72.5C 75.6799,73.5539 76.0133,74.5539 76.5,75.5C 75.3493,76.731 74.1827,76.731 73,75.5C 72.5604,73.1341 72.0604,70.8008 71.5,68.5C 72.3382,68.1583 72.6716,67.4916 72.5,66.5 Z"/></g>
<g><path style="opacity:1" fill="#ba5e5e" d="M 28.5,65.5 C 26.5,65.5 24.5,65.5 22.5,65.5C 22.7678,67.099 22.4345,68.4324 21.5,69.5C 21.5,67.8333 21.5,66.1667 21.5,64.5C 24.0593,64.1984 26.3926,64.5318 28.5,65.5 Z"/></g>
<g><path style="opacity:1" fill="#efdedd" d="M 49.5,68.5 C 52.9662,75.9181 50.6329,78.2514 42.5,75.5C 42.5,74.1667 42.5,72.8333 42.5,71.5C 47.7937,71.3178 47.7937,70.8178 42.5,70C 44.5938,68.6485 46.9272,68.1485 49.5,68.5 Z"/></g>
<g><path style="opacity:1" fill="#efdddc" d="M 69.5,68.5 C 73.1366,75.9304 70.8032,78.2637 62.5,75.5C 62.5,74.5 62.5,73.5 62.5,72.5C 68.9053,71.0898 68.9053,70.2565 62.5,70C 63.056,69.6174 63.3893,69.1174 63.5,68.5C 65.5,67.1667 67.5,67.1667 69.5,68.5 Z"/></g>
<g><path style="opacity:1" fill="#f7f0f0" d="M 40.5,72.5 C 39.6091,73.2613 38.9424,74.2613 38.5,75.5C 37.675,76.3857 36.675,76.719 35.5,76.5C 35.0075,74.1815 34.0075,72.1815 32.5,70.5C 33.1834,68.8235 34.5168,68.1568 36.5,68.5C 37.1667,73.8333 37.8333,73.8333 38.5,68.5C 39.675,68.281 40.675,68.6143 41.5,69.5C 40.8728,70.4168 40.5394,71.4168 40.5,72.5 Z"/></g>
<g><path style="opacity:1" fill="#b6423c" d="M 54.5,65.5 C 56.9479,64.5269 59.6146,64.1936 62.5,64.5C 62.2322,66.099 62.5655,67.4324 63.5,68.5C 63.3893,69.1174 63.056,69.6174 62.5,70C 68.9053,70.2565 68.9053,71.0898 62.5,72.5C 61.0425,70.9892 59.2092,69.9892 57,69.5C 56.51,70.7932 56.3433,72.1266 56.5,73.5C 55.5489,72.0813 55.2155,70.4147 55.5,68.5C 57.5,68.8333 59.5,69.1667 61.5,69.5C 61.5,68.1667 61.5,66.8333 61.5,65.5C 59.1667,65.5 56.8333,65.5 54.5,65.5 Z"/></g>
<g><path style="opacity:1" fill="#bb2826" d="M 29.5,67.5 C 30.1667,67.8333 30.8333,68.1667 31.5,68.5C 31.3284,69.4916 31.6618,70.1583 32.5,70.5C 34.0075,72.1815 35.0075,74.1815 35.5,76.5C 34.3523,75.105 33.3523,75.2716 32.5,77C 27.8452,77.4992 23.1785,77.6658 18.5,77.5C 18.2627,76.209 18.596,75.209 19.5,74.5C 19.7911,75.6491 20.6244,76.3158 22,76.5C 24.2414,76.3199 24.7414,75.4865 23.5,74C 25.8961,73.134 26.5628,73.634 25.5,75.5C 27.5,76.8333 29.5,76.8333 31.5,75.5C 30.5178,72.9044 29.8511,70.2377 29.5,67.5 Z"/></g>
<g><path style="opacity:1" fill="#c02c28" d="M 72.5,66.5 C 75.0636,65.2632 77.0636,66.0965 78.5,69C 79.5908,71.8179 79.5908,74.6512 78.5,77.5C 72.7291,78.1128 67.3958,77.4461 62.5,75.5C 70.8032,78.2637 73.1366,75.9304 69.5,68.5C 70.1667,68.5 70.8333,68.5 71.5,68.5C 72.0604,70.8008 72.5604,73.1341 73,75.5C 74.1827,76.731 75.3493,76.731 76.5,75.5C 76.0133,74.5539 75.6799,73.5539 75.5,72.5C 77.9319,69.1902 76.9319,67.1902 72.5,66.5 Z"/></g>
</svg>
