<?xml version="1.0" encoding="UTF-8"?>
<!DOCTYPE svg PUBLIC "-//W3C//DTD SVG 1.1//EN" "http://www.w3.org/Graphics/SVG/1.1/DTD/svg11.dtd">
<svg xmlns="http://www.w3.org/2000/svg" version="1.1" width="96px" height="96px" style="shape-rendering:geometricPrecision; text-rendering:geometricPrecision; image-rendering:optimizeQuality; fill-rule:evenodd; clip-rule:evenodd" xmlns:xlink="http://www.w3.org/1999/xlink">
<g><path style="opacity:0.901" fill="#0c2806" d="M 89.5,38.5 C 88.8333,39.5 88.1667,40.5 87.5,41.5C 85.9078,32.1489 81.5745,24.3155 74.5,18C 73.0922,17.6848 71.7589,18.0181 70.5,19C 68.46,21.3358 66.1267,23.1692 63.5,24.5C 63.1667,24.5 62.8333,24.5 62.5,24.5C 62.5,24.1667 62.5,23.8333 62.5,23.5C 63.5736,22.1154 64.9069,20.9487 66.5,20C 64.8043,18.8236 63.1376,17.657 61.5,16.5C 52.144,12.629 42.8107,12.629 33.5,16.5C 32.3569,16.9081 31.3569,17.5748 30.5,18.5C 33.3502,20.8651 35.1836,23.8651 36,27.5C 37.7675,30.8445 40.2675,31.8445 43.5,30.5C 43.2785,33.0673 42.6118,35.4006 41.5,37.5C 41.7709,35.6203 41.1042,34.287 39.5,33.5C 38.8333,33.1667 38.1667,32.8333 37.5,32.5C 36.5,31.1667 35.5,29.8333 34.5,28.5C 33.9211,24.6393 31.9211,21.9726 28.5,20.5C 28.5,20.1667 28.5,19.8333 28.5,19.5C 28.4431,18.391 28.1098,17.391 27.5,16.5C 41.3326,9.55165 54.9993,9.88498 68.5,17.5C 70.4866,15.4986 72.8199,14.6652 75.5,15C 82.4746,21.471 87.1412,29.3043 89.5,38.5 Z"/></g>
<g><path style="opacity:1" fill="#aeca61" d="M 61.5,16.5 C 61.4226,17.7498 60.756,18.5831 59.5,19C 54.8333,19.3333 50.1667,19.6667 45.5,20C 43.1866,22.4246 41.5199,25.2579 40.5,28.5C 37.6386,24.7729 35.3053,20.7729 33.5,16.5C 42.8107,12.629 52.144,12.629 61.5,16.5 Z"/></g>
<g><path style="opacity:0.903" fill="#053003" d="M 27.5,16.5 C 28.1098,17.391 28.4431,18.391 28.5,19.5C 25.4552,19.5079 22.4552,19.8413 19.5,20.5C 15.8848,22.0208 13.3848,24.6875 12,28.5C 5.85135,41.723 6.01801,54.723 12.5,67.5C 12.9321,68.7095 13.5987,69.7095 14.5,70.5C 17.8316,74.6644 21.665,78.3311 26,81.5C 26.4643,80.9056 26.631,80.2389 26.5,79.5C 27.2679,80.2625 27.7679,81.2625 28,82.5C 28.4828,81.552 28.6495,80.552 28.5,79.5C 29.3092,81.0276 29.9759,82.6943 30.5,84.5C 29.8333,84.8333 29.1667,85.1667 28.5,85.5C 13.455,77.435 5.45502,64.7684 4.5,47.5C 4.69783,36.0631 8.69783,26.2298 16.5,18C 20.1454,17.2811 23.8121,16.7811 27.5,16.5 Z"/></g>
<g><path style="opacity:1" fill="#9bc164" d="M 87.5,41.5 C 87.5,43.8333 87.5,46.1667 87.5,48.5C 82.9905,46.3268 79.9905,42.8268 78.5,38C 76.1902,37.5034 73.8568,37.3367 71.5,37.5C 71.477,35.0733 70.977,32.74 70,30.5C 67.4613,28.0024 65.2946,26.0024 63.5,24.5C 66.1267,23.1692 68.46,21.3358 70.5,19C 71.7589,18.0181 73.0922,17.6848 74.5,18C 81.5745,24.3155 85.9078,32.1489 87.5,41.5 Z"/></g>
<g><path style="opacity:1" fill="#839748" d="M 33.5,16.5 C 35.3053,20.7729 37.6386,24.7729 40.5,28.5C 41.5199,25.2579 43.1866,22.4246 45.5,20C 50.1667,19.6667 54.8333,19.3333 59.5,19C 60.756,18.5831 61.4226,17.7498 61.5,16.5C 63.1376,17.657 64.8043,18.8236 66.5,20C 64.9069,20.9487 63.5736,22.1154 62.5,23.5C 57.4889,23.3341 52.4889,23.5007 47.5,24C 45.0771,25.5707 43.7438,27.7374 43.5,30.5C 40.2675,31.8445 37.7675,30.8445 36,27.5C 35.1836,23.8651 33.3502,20.8651 30.5,18.5C 31.3569,17.5748 32.3569,16.9081 33.5,16.5 Z"/></g>
<g><path style="opacity:1" fill="#426e2a" d="M 28.5,20.5 C 31.9211,21.9726 33.9211,24.6393 34.5,28.5C 33.8826,28.3893 33.3826,28.056 33,27.5C 29.8883,30.1009 27.3883,33.1009 25.5,36.5C 23.8546,37.4787 22.5213,38.812 21.5,40.5C 20.8933,40.3764 20.56,40.0431 20.5,39.5C 20.8851,35.2934 20.8851,31.2934 20.5,27.5C 22.5691,24.4275 25.2358,22.0941 28.5,20.5 Z"/></g>
<g><path style="opacity:1" fill="#acd66e" d="M 62.5,24.5 C 62.8333,24.5 63.1667,24.5 63.5,24.5C 65.2946,26.0024 67.4613,28.0024 70,30.5C 70.977,32.74 71.477,35.0733 71.5,37.5C 70.4324,38.4345 69.099,38.7678 67.5,38.5C 65.4288,35.1961 62.9288,32.1961 60,29.5C 55.1134,29.7223 50.78,31.389 47,34.5C 46.79,32.9419 46.29,31.6085 45.5,30.5C 45.8588,28.629 46.8588,27.129 48.5,26C 53.2497,25.7773 57.9164,25.2773 62.5,24.5 Z"/></g>
<g><path style="opacity:1" fill="#213714" d="M 19.5,20.5 C 15.4529,27.9269 11.9529,35.5935 9,43.5C 8.1925,47.0267 8.35916,50.3601 9.5,53.5C 9.84798,55.7128 10.6813,57.7128 12,59.5C 12.4974,62.146 12.6641,64.8127 12.5,67.5C 6.01801,54.723 5.85135,41.723 12,28.5C 13.3848,24.6875 15.8848,22.0208 19.5,20.5 Z"/></g>
<g><path style="opacity:1" fill="#548836" d="M 34.5,28.5 C 35.5,29.8333 36.5,31.1667 37.5,32.5C 33.6354,33.3514 30.4688,35.3514 28,38.5C 26.7013,41.7552 25.0346,44.7552 23,47.5C 22.51,48.7932 22.3433,50.1266 22.5,51.5C 21.0222,51.762 19.6888,51.4287 18.5,50.5C 20.3327,45.5012 22.6661,40.8345 25.5,36.5C 27.3883,33.1009 29.8883,30.1009 33,27.5C 33.3826,28.056 33.8826,28.3893 34.5,28.5 Z"/></g>
<g><path style="opacity:1" fill="#739061" d="M 20.5,27.5 C 20.8851,31.2934 20.8851,35.2934 20.5,39.5C 19.596,40.209 19.2627,41.209 19.5,42.5C 18.3376,38.3131 18.3376,33.9798 19.5,29.5C 20.3382,29.1583 20.6716,28.4916 20.5,27.5 Z"/></g>
<g><path style="opacity:1" fill="#5d973b" d="M 37.5,32.5 C 38.1667,32.8333 38.8333,33.1667 39.5,33.5C 39.5086,35.3084 39.0086,36.9751 38,38.5C 34.4228,41.3733 30.5894,43.8733 26.5,46C 24.84,47.4877 23.84,49.321 23.5,51.5C 23.1667,51.5 22.8333,51.5 22.5,51.5C 22.3433,50.1266 22.51,48.7932 23,47.5C 25.0346,44.7552 26.7013,41.7552 28,38.5C 30.4688,35.3514 33.6354,33.3514 37.5,32.5 Z"/></g>
<g><path style="opacity:1" fill="#90b45c" d="M 66.5,39.5 C 66.5,40.5 66.5,41.5 66.5,42.5C 65.1667,42.5 63.8333,42.5 62.5,42.5C 57.869,39.5447 53.5357,39.8781 49.5,43.5C 50.7598,37.4253 54.4265,35.2586 60.5,37C 62.1579,38.6625 64.1579,39.4959 66.5,39.5 Z"/></g>
<g><path style="opacity:1" fill="#b2de72" d="M 67.5,38.5 C 67.5,39.1667 67.1667,39.5 66.5,39.5C 64.1579,39.4959 62.1579,38.6625 60.5,37C 54.4265,35.2586 50.7598,37.4253 49.5,43.5C 47.8333,45.8333 45.8333,47.8333 43.5,49.5C 40.7196,48.9216 38.0529,48.2549 35.5,47.5C 37.8682,46.217 40.0349,44.5503 42,42.5C 42.981,38.4155 44.1477,34.4155 45.5,30.5C 46.29,31.6085 46.79,32.9419 47,34.5C 50.78,31.389 55.1134,29.7223 60,29.5C 62.9288,32.1961 65.4288,35.1961 67.5,38.5 Z"/></g>
<g><path style="opacity:1" fill="#46742d" d="M 39.5,33.5 C 41.1042,34.287 41.7709,35.6203 41.5,37.5C 41.528,39.5824 40.8613,41.4157 39.5,43C 34.7436,45.2695 30.4102,48.1028 26.5,51.5C 25.5,51.5 24.5,51.5 23.5,51.5C 23.84,49.321 24.84,47.4877 26.5,46C 30.5894,43.8733 34.4228,41.3733 38,38.5C 39.0086,36.9751 39.5086,35.3084 39.5,33.5 Z"/></g>
<g><path style="opacity:1" fill="#7b9750" d="M 71.5,37.5 C 73.8568,37.3367 76.1902,37.5034 78.5,38C 79.9905,42.8268 82.9905,46.3268 87.5,48.5C 84.1354,51.4167 81.9687,50.4167 81,45.5C 79.5679,43.5612 77.7346,42.2279 75.5,41.5C 71.9073,41.641 68.4073,42.3076 65,43.5C 63.9302,43.472 63.0968,43.1386 62.5,42.5C 63.8333,42.5 65.1667,42.5 66.5,42.5C 66.5,41.5 66.5,40.5 66.5,39.5C 67.1667,39.5 67.5,39.1667 67.5,38.5C 69.099,38.7678 70.4324,38.4345 71.5,37.5 Z"/></g>
<g><path style="opacity:1" fill="#3a5f24" d="M 19.5,29.5 C 18.3376,33.9798 18.3376,38.3131 19.5,42.5C 17.791,47.5894 15.791,52.5894 13.5,57.5C 12.7025,57.0431 12.3691,56.3764 12.5,55.5C 12.3565,48.7158 13.1899,42.0491 15,35.5C 15.9793,33.0324 17.4793,31.0324 19.5,29.5 Z"/></g>
<g><path style="opacity:1" fill="#2f4b1e" d="M 28.5,19.5 C 28.5,19.8333 28.5,20.1667 28.5,20.5C 25.2358,22.0941 22.5691,24.4275 20.5,27.5C 20.6716,28.4916 20.3382,29.1583 19.5,29.5C 17.4793,31.0324 15.9793,33.0324 15,35.5C 13.1899,42.0491 12.3565,48.7158 12.5,55.5C 10.9328,54.3192 10.0995,52.6526 10,50.5C 9.51722,51.448 9.35055,52.448 9.5,53.5C 8.35916,50.3601 8.1925,47.0267 9,43.5C 11.9529,35.5935 15.4529,27.9269 19.5,20.5C 22.4552,19.8413 25.4552,19.5079 28.5,19.5 Z"/></g>
<g><path style="opacity:1" fill="#6aad44" d="M 60.5,44.5 C 60.8333,44.5 61.1667,44.5 61.5,44.5C 63.631,45.3138 65.9644,45.8138 68.5,46C 67.8333,46.3333 67.1667,46.6667 66.5,47C 68.5029,47.3345 70.1696,48.1679 71.5,49.5C 71.0301,53.7764 69.0301,57.1097 65.5,59.5C 64.6327,56.065 63.4661,52.7317 62,49.5C 61.5172,50.448 61.3505,51.448 61.5,52.5C 57.478,52.9809 53.3113,54.3143 49,56.5C 48.6667,56.1667 48.3333,55.8333 48,55.5C 43.9338,59.231 41.1004,63.731 39.5,69C 40.401,72.7943 42.7343,75.2943 46.5,76.5C 47.1067,76.3764 47.44,76.0431 47.5,75.5C 49.5,76.8333 51.1667,78.5 52.5,80.5C 37.1966,82.3667 32.0299,76.0333 37,61.5C 42.9606,54.6021 50.4606,50.4355 59.5,49C 59.5186,47.4794 59.852,45.9794 60.5,44.5 Z"/></g>
<g><path style="opacity:1" fill="#619f3e" d="M 71.5,43.5 C 73.1992,43.3398 74.8659,43.5065 76.5,44C 78.5,46.6667 80.5,49.3333 82.5,52C 84.1341,52.4935 85.8008,52.6602 87.5,52.5C 85.1232,67.8709 76.7899,78.5375 62.5,84.5C 62.472,82.4176 63.1387,80.5843 64.5,79C 70.9586,77.7027 74.6253,74.2027 75.5,68.5C 77.3037,64.7375 77.8037,60.7375 77,56.5C 76.0041,54.3395 74.5041,52.6728 72.5,51.5C 72.7535,49.5992 72.4202,48.9326 71.5,49.5C 70.1696,48.1679 68.5029,47.3345 66.5,47C 67.1667,46.6667 67.8333,46.3333 68.5,46C 65.9644,45.8138 63.631,45.3138 61.5,44.5C 64.8806,44.5405 68.2139,44.2071 71.5,43.5 Z"/></g>
<g><path style="opacity:0.863" fill="#072c05" d="M 89.5,38.5 C 92.6728,60.6555 84.3395,76.8222 64.5,87C 52.1363,92.0204 40.1363,91.5204 28.5,85.5C 29.1667,85.1667 29.8333,84.8333 30.5,84.5C 33.2529,85.0222 35.9196,85.8555 38.5,87C 41.5,87.1667 44.5,87.3333 47.5,87.5C 51.7968,87.7217 55.7968,87.055 59.5,85.5C 60.609,85.4431 61.609,85.1098 62.5,84.5C 76.7899,78.5375 85.1232,67.8709 87.5,52.5C 85.8008,52.6602 84.1341,52.4935 82.5,52C 80.5,49.3333 78.5,46.6667 76.5,44C 74.8659,43.5065 73.1992,43.3398 71.5,43.5C 72.8333,42.8333 74.1667,42.1667 75.5,41.5C 77.7346,42.2279 79.5679,43.5612 81,45.5C 81.9687,50.4167 84.1354,51.4167 87.5,48.5C 87.5,46.1667 87.5,43.8333 87.5,41.5C 88.1667,40.5 88.8333,39.5 89.5,38.5 Z"/></g>
<g><path style="opacity:1" fill="#63a23f" d="M 60.5,44.5 C 59.852,45.9794 59.5186,47.4794 59.5,49C 50.4606,50.4355 42.9606,54.6021 37,61.5C 32.0299,76.0333 37.1966,82.3667 52.5,80.5C 54.472,81.451 56.472,82.451 58.5,83.5C 58.3764,84.1067 58.0431,84.44 57.5,84.5C 51.4908,84.6662 45.4908,84.4995 39.5,84C 34.6839,81.6806 32.0173,77.8473 31.5,72.5C 32.662,67.8768 33.662,63.2101 34.5,58.5C 36.821,57.4373 37.821,55.9373 37.5,54C 39.3817,53.8019 41.0484,53.3019 42.5,52.5C 46.4154,50.2567 49.7488,47.2567 52.5,43.5C 53.6667,43.1667 54.8333,42.8333 56,42.5C 58.0081,42.3068 59.5081,42.9735 60.5,44.5 Z"/></g>
<g><path style="opacity:1" fill="#548a36" d="M 26.5,52.5 C 26.3398,54.1992 26.5065,55.8659 27,57.5C 28.2208,58.7741 29.0541,60.2741 29.5,62C 27.3634,63.9727 25.3634,66.1394 23.5,68.5C 22.7784,68.9175 22.2784,69.5842 22,70.5C 21.9378,68.8853 21.7711,67.5519 21.5,66.5C 23.1002,65.3556 24.7669,64.1889 26.5,63C 25.1807,62.805 23.8474,62.9717 22.5,63.5C 21.8826,63.3893 21.3826,63.056 21,62.5C 20.5026,59.854 20.3359,57.1873 20.5,54.5C 22.5786,54.0293 24.5786,53.3627 26.5,52.5 Z"/></g>
<g><path style="opacity:1" fill="#6cb245" d="M 72.5,51.5 C 74.5041,52.6728 76.0041,54.3395 77,56.5C 77.8037,60.7375 77.3037,64.7375 75.5,68.5C 73.7333,73.6737 70.3999,75.6737 65.5,74.5C 64.3261,67.3943 66.1595,61.3943 71,56.5C 71.6077,54.8455 72.1077,53.1789 72.5,51.5 Z"/></g>
<g><path style="opacity:1" fill="#7ccb50" d="M 62.5,54.5 C 63.3833,59.1031 63.7166,63.7697 63.5,68.5C 58.3253,68.244 54.3253,65.9106 51.5,61.5C 50.1501,60.1765 50.3167,59.1765 52,58.5C 55.6101,57.3057 59.1101,55.9723 62.5,54.5 Z"/></g>
<g><path style="opacity:1" fill="#497530" d="M 20.5,54.5 C 20.3359,57.1873 20.5026,59.854 21,62.5C 21.3826,63.056 21.8826,63.3893 22.5,63.5C 20.3926,64.4682 18.0593,64.8016 15.5,64.5C 15.2035,61.2761 15.8702,58.2761 17.5,55.5C 18.325,54.6143 19.325,54.281 20.5,54.5 Z"/></g>
<g><path style="opacity:1" fill="#75bf4b" d="M 61.5,52.5 C 62.3382,52.8417 62.6716,53.5084 62.5,54.5C 59.1101,55.9723 55.6101,57.3057 52,58.5C 50.3167,59.1765 50.1501,60.1765 51.5,61.5C 50.475,61.8966 50.3083,62.5632 51,63.5C 53.9029,67.5276 57.7363,69.861 62.5,70.5C 62.5,71.8333 62.5,73.1667 62.5,74.5C 60.2839,80.261 56.6172,81.0944 51.5,77C 50.3333,75.8333 49.1667,74.6667 48,73.5C 47.5357,74.0944 47.369,74.7611 47.5,75.5C 47.44,76.0431 47.1067,76.3764 46.5,76.5C 42.7343,75.2943 40.401,72.7943 39.5,69C 41.1004,63.731 43.9338,59.231 48,55.5C 48.3333,55.8333 48.6667,56.1667 49,56.5C 53.3113,54.3143 57.478,52.9809 61.5,52.5 Z"/></g>
<g><path style="opacity:1" fill="#a6d982" d="M 72.5,51.5 C 72.1077,53.1789 71.6077,54.8455 71,56.5C 66.1595,61.3943 64.3261,67.3943 65.5,74.5C 64.8485,75.0906 64.1818,75.7573 63.5,76.5C 62.7025,76.0431 62.3691,75.3764 62.5,74.5C 62.5,73.1667 62.5,71.8333 62.5,70.5C 57.7363,69.861 53.9029,67.5276 51,63.5C 50.3083,62.5632 50.475,61.8966 51.5,61.5C 54.3253,65.9106 58.3253,68.244 63.5,68.5C 63.7166,63.7697 63.3833,59.1031 62.5,54.5C 62.6716,53.5084 62.3382,52.8417 61.5,52.5C 61.3505,51.448 61.5172,50.448 62,49.5C 63.4661,52.7317 64.6327,56.065 65.5,59.5C 69.0301,57.1097 71.0301,53.7764 71.5,49.5C 72.4202,48.9326 72.7535,49.5992 72.5,51.5 Z"/></g>
<g><path style="opacity:1" fill="#8da47f" d="M 25.5,36.5 C 22.6661,40.8345 20.3327,45.5012 18.5,50.5C 19.6888,51.4287 21.0222,51.762 22.5,51.5C 22.8333,51.5 23.1667,51.5 23.5,51.5C 24.5,51.5 25.5,51.5 26.5,51.5C 26.5,51.8333 26.5,52.1667 26.5,52.5C 24.5786,53.3627 22.5786,54.0293 20.5,54.5C 19.325,54.281 18.325,54.6143 17.5,55.5C 15.8702,58.2761 15.2035,61.2761 15.5,64.5C 18.0593,64.8016 20.3926,64.4682 22.5,63.5C 23.8474,62.9717 25.1807,62.805 26.5,63C 24.7669,64.1889 23.1002,65.3556 21.5,66.5C 19.5,66.8333 17.5,67.1667 15.5,67.5C 15.7373,68.791 15.404,69.791 14.5,70.5C 13.5987,69.7095 12.9321,68.7095 12.5,67.5C 12.6641,64.8127 12.4974,62.146 12,59.5C 10.6813,57.7128 9.84798,55.7128 9.5,53.5C 9.35055,52.448 9.51722,51.448 10,50.5C 10.0995,52.6526 10.9328,54.3192 12.5,55.5C 12.3691,56.3764 12.7025,57.0431 13.5,57.5C 15.791,52.5894 17.791,47.5894 19.5,42.5C 19.2627,41.209 19.596,40.209 20.5,39.5C 20.56,40.0431 20.8933,40.3764 21.5,40.5C 22.5213,38.812 23.8546,37.4787 25.5,36.5 Z"/></g>
<g><path style="opacity:1" fill="#10250a" d="M 62.5,23.5 C 62.5,23.8333 62.5,24.1667 62.5,24.5C 57.9164,25.2773 53.2497,25.7773 48.5,26C 46.8588,27.129 45.8588,28.629 45.5,30.5C 44.1477,34.4155 42.981,38.4155 42,42.5C 40.0349,44.5503 37.8682,46.217 35.5,47.5C 30.3531,48.4653 28.1865,51.4653 29,56.5C 30.5,55 32,53.5 33.5,52C 37.1325,51.8511 40.4659,51.0177 43.5,49.5C 45.8333,47.8333 47.8333,45.8333 49.5,43.5C 53.5357,39.8781 57.869,39.5447 62.5,42.5C 63.0968,43.1386 63.9302,43.472 65,43.5C 68.4073,42.3076 71.9073,41.641 75.5,41.5C 74.1667,42.1667 72.8333,42.8333 71.5,43.5C 68.2139,44.2071 64.8806,44.5405 61.5,44.5C 61.1667,44.5 60.8333,44.5 60.5,44.5C 59.5081,42.9735 58.0081,42.3068 56,42.5C 54.8333,42.8333 53.6667,43.1667 52.5,43.5C 49.7488,47.2567 46.4154,50.2567 42.5,52.5C 34.555,51.9459 30.7217,55.6126 31,63.5C 29,65.5 27,67.5 25,69.5C 24.3333,70.8333 24.3333,72.1667 25,73.5C 26.4424,75.3911 27.6091,77.3911 28.5,79.5C 28.6495,80.552 28.4828,81.552 28,82.5C 27.7679,81.2625 27.2679,80.2625 26.5,79.5C 26.3146,77.8042 25.4813,76.4709 24,75.5C 23.5034,73.1902 23.3367,70.8568 23.5,68.5C 25.3634,66.1394 27.3634,63.9727 29.5,62C 29.0541,60.2741 28.2208,58.7741 27,57.5C 26.5065,55.8659 26.3398,54.1992 26.5,52.5C 26.5,52.1667 26.5,51.8333 26.5,51.5C 30.4102,48.1028 34.7436,45.2695 39.5,43C 40.8613,41.4157 41.528,39.5824 41.5,37.5C 42.6118,35.4006 43.2785,33.0673 43.5,30.5C 43.7438,27.7374 45.0771,25.5707 47.5,24C 52.4889,23.5007 57.4889,23.3341 62.5,23.5 Z"/></g>
<g><path style="opacity:1" fill="#8fb25c" d="M 35.5,47.5 C 38.0529,48.2549 40.7196,48.9216 43.5,49.5C 40.4659,51.0177 37.1325,51.8511 33.5,52C 32,53.5 30.5,55 29,56.5C 28.1865,51.4653 30.3531,48.4653 35.5,47.5 Z"/></g>
<g><path style="opacity:1" fill="#5e993c" d="M 42.5,52.5 C 41.0484,53.3019 39.3817,53.8019 37.5,54C 37.821,55.9373 36.821,57.4373 34.5,58.5C 33.662,63.2101 32.662,67.8768 31.5,72.5C 32.0173,77.8473 34.6839,81.6806 39.5,84C 45.4908,84.4995 51.4908,84.6662 57.5,84.5C 57.8417,85.3382 58.5084,85.6716 59.5,85.5C 55.7968,87.055 51.7968,87.7217 47.5,87.5C 44.5,87.3333 41.5,87.1667 38.5,87C 35.9196,85.8555 33.2529,85.0222 30.5,84.5C 29.9759,82.6943 29.3092,81.0276 28.5,79.5C 27.6091,77.3911 26.4424,75.3911 25,73.5C 24.3333,72.1667 24.3333,70.8333 25,69.5C 27,67.5 29,65.5 31,63.5C 30.7217,55.6126 34.555,51.9459 42.5,52.5 Z"/></g>
<g><path style="opacity:1" fill="#3e6527" d="M 21.5,66.5 C 21.7711,67.5519 21.9378,68.8853 22,70.5C 22.2784,69.5842 22.7784,68.9175 23.5,68.5C 23.3367,70.8568 23.5034,73.1902 24,75.5C 25.4813,76.4709 26.3146,77.8042 26.5,79.5C 26.631,80.2389 26.4643,80.9056 26,81.5C 21.665,78.3311 17.8316,74.6644 14.5,70.5C 15.404,69.791 15.7373,68.791 15.5,67.5C 17.5,67.1667 19.5,66.8333 21.5,66.5 Z"/></g>
<g><path style="opacity:1" fill="#99c87a" d="M 75.5,68.5 C 74.6253,74.2027 70.9586,77.7027 64.5,79C 63.1387,80.5843 62.472,82.4176 62.5,84.5C 61.609,85.1098 60.609,85.4431 59.5,85.5C 58.5084,85.6716 57.8417,85.3382 57.5,84.5C 58.0431,84.44 58.3764,84.1067 58.5,83.5C 56.472,82.451 54.472,81.451 52.5,80.5C 51.1667,78.5 49.5,76.8333 47.5,75.5C 47.369,74.7611 47.5357,74.0944 48,73.5C 49.1667,74.6667 50.3333,75.8333 51.5,77C 56.6172,81.0944 60.2839,80.261 62.5,74.5C 62.3691,75.3764 62.7025,76.0431 63.5,76.5C 64.1818,75.7573 64.8485,75.0906 65.5,74.5C 70.3999,75.6737 73.7333,73.6737 75.5,68.5 Z"/></g>
</svg>
