<?xml version="1.0" encoding="UTF-8"?>
<!DOCTYPE svg PUBLIC "-//W3C//DTD SVG 1.1//EN" "http://www.w3.org/Graphics/SVG/1.1/DTD/svg11.dtd">
<svg xmlns="http://www.w3.org/2000/svg" version="1.1" width="200px" height="200px" style="shape-rendering:geometricPrecision; text-rendering:geometricPrecision; image-rendering:optimizeQuality; fill-rule:evenodd; clip-rule:evenodd" xmlns:xlink="http://www.w3.org/1999/xlink">
<g><path style="opacity:1" fill="#fcfcfc" d="M -0.5,-0.5 C 66.1667,-0.5 132.833,-0.5 199.5,-0.5C 199.5,66.1667 199.5,132.833 199.5,199.5C 132.833,199.5 66.1667,199.5 -0.5,199.5C -0.5,132.833 -0.5,66.1667 -0.5,-0.5 Z"/></g>
<g><path style="opacity:1" fill="#040404" d="M 190.5,80.5 C 190.631,81.2389 190.464,81.9056 190,82.5C 189.667,81.1667 189.333,79.8333 189,78.5C 189.821,88.4486 190.487,98.4486 191,108.5C 191.172,101.987 191.672,95.6534 192.5,89.5C 192.711,98.2 192.377,106.867 191.5,115.5C 181.713,159.787 154.379,185.287 109.5,192C 64.2628,194.475 32.0961,175.308 13,134.5C -2.61005,85.9357 10.5566,47.4357 52.5,19C 87.4536,1.06129 121.454,2.72796 154.5,24C 173.97,38.1128 185.97,56.9461 190.5,80.5 Z"/></g>
<g><path style="opacity:1" fill="#f9f9f9" d="M 105.5,48.5 C 112.667,50.3396 119.667,53.0062 126.5,56.5C 129.521,54.1456 132.188,51.4789 134.5,48.5C 137.48,45.8556 140.48,43.189 143.5,40.5C 148.5,45.1667 153.5,49.8333 158.5,54.5C 152.795,60.2026 147.462,66.2026 142.5,72.5C 152.091,90.5343 151.758,108.368 141.5,126C 147.198,132.032 153.198,137.699 159.5,143C 156.961,145.37 154.628,147.87 152.5,150.5C 149.84,153.133 147.173,155.8 144.5,158.5C 138.498,152.665 132.331,146.998 126,141.5C 116.627,147.076 106.46,149.409 95.5,148.5C 86.8644,148.122 79.031,145.455 72,140.5C 65.9302,146.401 60.0969,152.401 54.5,158.5C 48.6232,153.806 43.7898,148.472 40,142.5C 45.8787,136.957 51.3787,131.123 56.5,125C 49.5005,112.278 47.6672,98.7776 51,84.5C 52.5139,79.9715 54.6806,75.8048 57.5,72C 51.985,66.652 46.6517,61.152 41.5,55.5C 45.4327,49.8977 50.0994,44.8977 55.5,40.5C 61.1667,45.8333 66.8333,51.1667 72.5,56.5C 82.5872,50.2806 93.5872,47.6139 105.5,48.5 Z"/></g>
<g><path style="opacity:1" fill="#202020" d="M 134.5,48.5 C 132.188,51.4789 129.521,54.1456 126.5,56.5C 119.667,53.0062 112.667,50.3396 105.5,48.5C 102.239,47.5997 97.5727,47.0997 91.5,47C 104.416,44.7586 116.25,47.2586 127,54.5C 128.458,52.04 130.291,49.8734 132.5,48C 133.437,47.3083 134.103,47.475 134.5,48.5 Z"/></g>
<g><path style="opacity:1" fill="#050505" d="M 91.5,69.5 C 108.857,66.9249 121.024,73.5915 128,89.5C 131.248,115.584 119.748,128.417 93.5,128C 76.5909,122.747 68.7576,111.247 70,93.5C 73.1817,81.8237 80.3484,73.8237 91.5,69.5 Z"/></g>
<g><path style="opacity:1" fill="#2e2e2e" d="M 190.5,80.5 C 192.04,82.8383 192.706,85.5049 192.5,88.5C 192.5,88.8333 192.5,89.1667 192.5,89.5C 191.672,95.6534 191.172,101.987 191,108.5C 190.487,98.4486 189.821,88.4486 189,78.5C 189.333,79.8333 189.667,81.1667 190,82.5C 190.464,81.9056 190.631,81.2389 190.5,80.5 Z"/></g>
<g><path style="opacity:1" fill="#a5a5a5" d="M 192.5,88.5 C 193.657,96.6563 193.823,104.99 193,113.5C 192.722,114.416 192.222,115.082 191.5,115.5C 192.377,106.867 192.711,98.2 192.5,89.5C 192.5,89.1667 192.5,88.8333 192.5,88.5 Z"/></g>
<g><path style="opacity:1" fill="#1d1d1d" d="M 152.5,150.5 C 150.991,154.684 148.324,158.018 144.5,160.5C 138.705,154.358 132.371,149.025 125.5,144.5C 116.105,149.516 106.105,151.683 95.5,151C 98.1667,150.667 100.833,150.333 103.5,150C 100.635,149.817 97.9686,149.317 95.5,148.5C 106.46,149.409 116.627,147.076 126,141.5C 132.331,146.998 138.498,152.665 144.5,158.5C 147.173,155.8 149.84,153.133 152.5,150.5 Z"/></g>
</svg>
