<?xml version="1.0" encoding="UTF-8"?>
<!DOCTYPE svg PUBLIC "-//W3C//DTD SVG 1.1//EN" "http://www.w3.org/Graphics/SVG/1.1/DTD/svg11.dtd">
<svg xmlns="http://www.w3.org/2000/svg" version="1.1" width="96px" height="96px" style="shape-rendering:geometricPrecision; text-rendering:geometricPrecision; image-rendering:optimizeQuality; fill-rule:evenodd; clip-rule:evenodd" xmlns:xlink="http://www.w3.org/1999/xlink">
<g><path style="opacity:1" fill="#020202" d="M -0.5,-0.5 C 31.5,-0.5 63.5,-0.5 95.5,-0.5C 95.5,31.5 95.5,63.5 95.5,95.5C 63.5,95.5 31.5,95.5 -0.5,95.5C -0.5,63.5 -0.5,31.5 -0.5,-0.5 Z"/></g>
<g><path style="opacity:1" fill="#f7f7f7" d="M 44.5,12.5 C 53.938,13.5813 60.6046,18.5813 64.5,27.5C 64.3333,27.8333 64.1667,28.1667 64,28.5C 55.473,23.3642 48.473,25.0308 43,33.5C 38.0679,39.7053 36.4012,46.7053 38,54.5C 38.8333,56.6667 40.3333,58.1667 42.5,59C 36.1132,60.3931 30.2798,59.2264 25,55.5C 22.7798,51.405 22.1131,47.0717 23,42.5C 26.5518,29.6634 33.7184,19.6634 44.5,12.5 Z"/></g>
<g><path style="opacity:1" fill="#f7f7f7" d="M 52.5,27.5 C 59.7319,27.6997 65.5652,30.6997 70,36.5C 73.2516,41.3343 76.2516,46.3343 79,51.5C 83.8024,69.9023 76.6357,77.7356 57.5,75C 66.0036,69.3158 67.8369,61.8158 63,52.5C 60.5883,48.0841 57.4217,44.2508 53.5,41C 49.5537,39.3377 45.5537,39.0044 41.5,40C 44.3168,35.0207 47.9835,30.8541 52.5,27.5 Z"/></g>
<g><path style="opacity:1" fill="#f6f6f6" d="M 19.5,45.5 C 19.9986,53.8355 24.3319,59.0021 32.5,61C 39.3549,62.0347 46.0216,61.368 52.5,59C 55.9216,56.7424 57.9216,53.5757 58.5,49.5C 63.0573,54.7182 64.5573,60.7182 63,67.5C 57.7468,73.0344 51.2468,75.8677 43.5,76C 35.4906,77.2909 27.8239,76.2909 20.5,73C 16.334,70.3235 14.0007,66.4901 13.5,61.5C 14.5276,55.7442 16.5276,50.4109 19.5,45.5 Z"/></g>
</svg>
