<?xml version="1.0" encoding="UTF-8"?>
<!DOCTYPE svg PUBLIC "-//W3C//DTD SVG 1.1//EN" "http://www.w3.org/Graphics/SVG/1.1/DTD/svg11.dtd">
<svg xmlns="http://www.w3.org/2000/svg" version="1.1" width="96px" height="96px" style="shape-rendering:geometricPrecision; text-rendering:geometricPrecision; image-rendering:optimizeQuality; fill-rule:evenodd; clip-rule:evenodd" xmlns:xlink="http://www.w3.org/1999/xlink">
<g><path style="opacity:0.992" fill="#01c864" d="M 10.5,17.5 C 12.6516,18.0768 12.985,19.2435 11.5,21C 11.9352,30.0985 16.6018,35.4319 25.5,37C 31.1569,37.4994 36.8236,37.6661 42.5,37.5C 43.5514,43.9887 45.218,50.3221 47.5,56.5C 49.782,50.3221 51.4486,43.9887 52.5,37.5C 58.1764,37.6661 63.8431,37.4994 69.5,37C 79.5245,34.9115 83.8578,28.9115 82.5,19C 82.8499,17.7425 83.5165,17.4092 84.5,18C 89.7924,33.9202 84.4591,44.0869 68.5,48.5C 68.8885,53.6278 68.3885,58.6278 67,63.5C 64.73,66.7754 61.5634,68.1087 57.5,67.5C 57.6646,64.4816 57.498,61.4816 57,58.5C 55.3387,64.811 53.8387,71.1444 52.5,77.5C 49.1667,77.5 45.8333,77.5 42.5,77.5C 41.1613,71.1444 39.6613,64.811 38,58.5C 37.502,61.4816 37.3354,64.4816 37.5,67.5C 33.4366,68.1087 30.27,66.7754 28,63.5C 26.6115,58.6278 26.1115,53.6278 26.5,48.5C 15.2448,46.5776 9.24483,39.9109 8.5,28.5C 8.66048,24.701 9.32714,21.0344 10.5,17.5 Z"/></g>
</svg>
