<?xml version="1.0" encoding="UTF-8"?>
<!DOCTYPE svg PUBLIC "-//W3C//DTD SVG 1.1//EN" "http://www.w3.org/Graphics/SVG/1.1/DTD/svg11.dtd">
<svg xmlns="http://www.w3.org/2000/svg" version="1.1" width="96px" height="96px" style="shape-rendering:geometricPrecision; text-rendering:geometricPrecision; image-rendering:optimizeQuality; fill-rule:evenodd; clip-rule:evenodd" xmlns:xlink="http://www.w3.org/1999/xlink">
<g><path style="opacity:0.948" fill="#271802" d="M 95.5,31.5 C 95.5,32.1667 95.5,32.8333 95.5,33.5C 93.8523,34.8098 92.1856,36.1431 90.5,37.5C 92.5649,45.466 91.2315,52.7993 86.5,59.5C 85.8076,58.9747 85.3076,58.3081 85,57.5C 81.8333,62 78,65.8333 73.5,69C 76.5732,72.0409 75.9066,73.8743 71.5,74.5C 70.2322,73.5721 68.8989,73.4054 67.5,74C 69.535,82.7727 66.7017,89.606 59,94.5C 58.6667,93.5 58.3333,92.5 58,91.5C 51,95.5 44,95.5 37,91.5C 36.6667,92.5 36.3333,93.5 36,94.5C 28.2983,89.606 25.465,82.7727 27.5,74C 26.1011,73.4054 24.7678,73.5721 23.5,74.5C 19.0934,73.8743 18.4268,72.0409 21.5,69C 17,65.8333 13.1667,62 10,57.5C 9.46461,59.2705 8.63128,59.6039 7.5,58.5C 3.68739,51.8869 2.68739,44.8869 4.5,37.5C 2.81439,36.1431 1.14772,34.8098 -0.5,33.5C -0.5,32.8333 -0.5,32.1667 -0.5,31.5C 1.90525,30.6019 3.90525,29.1019 5.5,27C 1.76806,23.3081 0.101394,18.8081 0.5,13.5C -0.0600394,8.29261 1.77329,4.29261 6,1.5C 10.9876,4.24735 16.321,5.91402 22,6.5C 29.992,1.26902 38.492,0.269018 47.5,3.5C 56.508,0.269018 65.008,1.26902 73,6.5C 79.092,5.51956 84.9254,4.01956 90.5,2C 93.6683,5.17478 95.0016,9.00811 94.5,13.5C 94.8986,18.8081 93.2319,23.3081 89.5,27C 91.0948,29.1019 93.0948,30.6019 95.5,31.5 Z"/></g>
<g><path style="opacity:1" fill="#f5c870" d="M 34.5,66.5 C 34.1348,69.0787 34.1348,71.412 34.5,73.5C 35.2899,74.7942 36.2899,75.9609 37.5,77C 43.8333,77.6667 50.1667,77.6667 56.5,77C 58.3237,76.34 59.657,75.1733 60.5,73.5C 60.8652,71.412 60.8652,69.0787 60.5,66.5C 60.5,65.8333 60.5,65.1667 60.5,64.5C 63.7283,70.0074 64.895,76.0074 64,82.5C 62.984,83.6341 62.3173,83.3008 62,81.5C 52.3333,92.1667 42.6667,92.1667 33,81.5C 32.6827,83.3008 32.016,83.6341 31,82.5C 30.2206,77.6818 30.7206,73.0151 32.5,68.5C 33.0899,67.234 33.5899,65.9007 34,64.5C 34.4643,65.0944 34.631,65.7611 34.5,66.5 Z"/></g>
<g><path style="opacity:1" fill="#987842" d="M 60.5,66.5 C 60.8652,69.0787 60.8652,71.412 60.5,73.5C 59.2437,71.059 59.2437,68.7257 60.5,66.5 Z"/></g>
<g><path style="opacity:1" fill="#987841" d="M 34.5,66.5 C 35.7563,68.7257 35.7563,71.059 34.5,73.5C 34.1348,71.412 34.1348,69.0787 34.5,66.5 Z"/></g>
<g><path style="opacity:0.957" fill="#a35014" d="M 70.5,62.5 C 70.8076,64.924 70.4742,67.2573 69.5,69.5C 68.8933,69.3764 68.56,69.0431 68.5,68.5C 69.1667,66.5 69.8333,64.5 70.5,62.5 Z"/></g>
<g><path style="opacity:1" fill="#ce883e" d="M 23.5,60.5 C 24.397,61.5981 25.2303,61.5981 26,60.5C 25.743,63.3429 25.9096,66.0095 26.5,68.5C 26.5,69.1667 26.1667,69.5 25.5,69.5C 24.6562,66.6553 23.9896,63.6553 23.5,60.5 Z"/></g>
<g><path style="opacity:0.957" fill="#d06c1f" d="M 81.5,52.5 C 81.539,55.089 80.539,57.089 78.5,58.5C 78.9925,56.1815 79.9925,54.1815 81.5,52.5 Z"/></g>
<g><path style="opacity:0.961" fill="#ca6a1e" d="M 13.5,52.5 C 15.0075,54.1815 16.0075,56.1815 16.5,58.5C 14.461,57.089 13.461,55.089 13.5,52.5 Z"/></g>
<g><path style="opacity:1" fill="#25190c" d="M 16.5,33.5 C 17.4793,34.7653 18.4793,36.0986 19.5,37.5C 20.2508,36.624 20.7508,35.624 21,34.5C 21.926,36.6917 23.0927,38.6917 24.5,40.5C 25.4787,42.1454 26.812,43.4787 28.5,44.5C 29.2975,44.0431 29.6309,43.3764 29.5,42.5C 29.9867,41.5266 30.4867,40.5266 31,39.5C 30.8654,42.9383 32.0321,45.7717 34.5,48C 34.2716,48.3988 33.9382,48.5654 33.5,48.5C 31.8947,47.0313 31.3947,47.3646 32,49.5C 37.7847,54.0082 42.6181,53.1749 46.5,47C 45.9681,44.9803 44.6348,44.147 42.5,44.5C 45.8333,44.5 49.1667,44.5 52.5,44.5C 51.209,44.2627 50.209,44.596 49.5,45.5C 48.6315,48.5634 49.9648,50.7301 53.5,52C 57.3886,52.8146 60.7219,51.8146 63.5,49C 62.9056,48.5357 62.2389,48.369 61.5,48.5C 61.0618,48.5654 60.7284,48.3988 60.5,48C 62.9679,45.7717 64.1346,42.9383 64,39.5C 64.7393,41.2205 65.5726,42.8872 66.5,44.5C 70.2045,42.1001 72.7045,38.7668 74,34.5C 74.2492,35.624 74.7492,36.624 75.5,37.5C 76.5207,36.0986 77.5207,34.7653 78.5,33.5C 78.8812,37.5502 77.8812,41.2169 75.5,44.5C 74.7492,43.624 74.2492,42.624 74,41.5C 72.37,45.0587 70.37,48.392 68,51.5C 64.3625,52.878 62.8625,55.5446 63.5,59.5C 63.2792,62.0972 62.7792,62.0972 62,59.5C 61.3162,60.7839 61.4829,61.9505 62.5,63C 61.5842,63.2784 60.9175,63.7784 60.5,64.5C 60.5,65.1667 60.5,65.8333 60.5,66.5C 59.2437,68.7257 59.2437,71.059 60.5,73.5C 59.657,75.1733 58.3237,76.34 56.5,77C 50.1667,77.6667 43.8333,77.6667 37.5,77C 36.2899,75.9609 35.2899,74.7942 34.5,73.5C 35.7563,71.059 35.7563,68.7257 34.5,66.5C 34.631,65.7611 34.4643,65.0944 34,64.5C 33.5899,65.9007 33.0899,67.234 32.5,68.5C 31.71,67.3915 31.21,66.0581 31,64.5C 29.6233,66.7538 28.1233,68.9205 26.5,71C 24.3646,71.6053 24.0313,71.1053 25.5,69.5C 26.1667,69.5 26.5,69.1667 26.5,68.5C 30.1459,64.6017 31.6459,59.935 31,54.5C 26.552,51.0485 23.2186,46.7152 21,41.5C 20.7508,42.624 20.2508,43.624 19.5,44.5C 17.1188,41.2169 16.1188,37.5502 16.5,33.5 Z"/></g>
<g><path style="opacity:1" fill="#ebeaea" d="M 42.5,70.5 C 45.6693,73.1119 48.8359,73.1119 52,70.5C 52.49,71.7932 52.6567,73.1266 52.5,74.5C 49.1667,74.5 45.8333,74.5 42.5,74.5C 42.5,73.1667 42.5,71.8333 42.5,70.5 Z"/></g>
<g><path style="opacity:1" fill="#ef6e64" d="M 43.5,60.5 C 46.4049,61.3517 49.2382,61.685 52,61.5C 53.4798,67.3375 51.3132,70.1708 45.5,70C 42.4198,67.3547 41.7531,64.188 43.5,60.5 Z"/></g>
<g><path style="opacity:1" fill="#e8e8e8" d="M 55.5,53.5 C 56.8333,53.5 58.1667,53.5 59.5,53.5C 59.9317,61.1016 58.765,68.435 56,75.5C 55.5003,68.1742 55.3337,60.8409 55.5,53.5 Z"/></g>
<g><path style="opacity:1" fill="#d7d6d4" d="M 42.5,52.5 C 45.8499,52.335 49.1832,52.5017 52.5,53C 52.9574,53.414 53.2907,53.914 53.5,54.5C 49.9449,54.2977 46.2782,54.631 42.5,55.5C 41.4376,54.5754 41.4376,53.5754 42.5,52.5 Z"/></g>
<g><path style="opacity:1" fill="#e7e7e7" d="M 35.5,53.5 C 37.288,53.2148 38.9547,53.5481 40.5,54.5C 39.7019,61.4504 39.2019,68.4504 39,75.5C 36.235,68.435 35.0683,61.1016 35.5,53.5 Z"/></g>
<g><path style="opacity:1" fill="#d7b765" d="M 49.5,45.5 C 51.2286,50.0054 54.8953,51.5054 60.5,50C 61.056,49.6174 61.3893,49.1174 61.5,48.5C 62.2389,48.369 62.9056,48.5357 63.5,49C 60.7219,51.8146 57.3886,52.8146 53.5,52C 49.9648,50.7301 48.6315,48.5634 49.5,45.5 Z"/></g>
<g><path style="opacity:1" fill="#a84234" d="M 46.5,49.5 C 47.7562,49.4614 48.7562,49.9614 49.5,51C 48.1667,51.6667 46.8333,51.6667 45.5,51C 46.056,50.6174 46.3893,50.1174 46.5,49.5 Z"/></g>
<g><path style="opacity:1" fill="#d2b060" d="M 42.5,44.5 C 44.6348,44.147 45.9681,44.9803 46.5,47C 42.6181,53.1749 37.7847,54.0082 32,49.5C 31.3947,47.3646 31.8947,47.0313 33.5,48.5C 37.7228,51.3528 41.7228,50.8528 45.5,47C 44.4293,46.1482 43.4293,45.3149 42.5,44.5 Z"/></g>
<g><path style="opacity:1" fill="#f9cb72" d="M 78.5,33.5 C 83.2688,37.7041 85.9354,43.0374 86.5,49.5C 86.6495,50.552 86.4828,51.552 86,52.5C 83.8617,47.43 82.3617,47.43 81.5,52.5C 79.9925,54.1815 78.9925,56.1815 78.5,58.5C 76.0206,64.7824 74.0206,64.7824 72.5,58.5C 71.8281,59.9492 71.1614,61.2825 70.5,62.5C 69.8333,64.5 69.1667,66.5 68.5,68.5C 66.039,65.9088 64.3724,62.9088 63.5,59.5C 62.8625,55.5446 64.3625,52.878 68,51.5C 70.37,48.392 72.37,45.0587 74,41.5C 74.2492,42.624 74.7492,43.624 75.5,44.5C 77.8812,41.2169 78.8812,37.5502 78.5,33.5 Z"/></g>
<g><path style="opacity:1" fill="#f8ca72" d="M 16.5,33.5 C 16.1188,37.5502 17.1188,41.2169 19.5,44.5C 20.2508,43.624 20.7508,42.624 21,41.5C 23.2186,46.7152 26.552,51.0485 31,54.5C 31.6459,59.935 30.1459,64.6017 26.5,68.5C 25.9096,66.0095 25.743,63.3429 26,60.5C 25.2303,61.5981 24.397,61.5981 23.5,60.5C 23.6309,59.6236 23.2975,58.9569 22.5,58.5C 20.9794,64.7824 18.9794,64.7824 16.5,58.5C 16.0075,56.1815 15.0075,54.1815 13.5,52.5C 12.6929,47.3691 11.1929,47.3691 9,52.5C 8.51722,51.552 8.35055,50.552 8.5,49.5C 9.06456,43.0374 11.7312,37.7041 16.5,33.5 Z"/></g>
<g><path style="opacity:1" fill="#e3bf6d" d="M 89.5,8.5 C 90.6408,11.6399 90.8075,14.9733 90,18.5C 89.5814,19.6721 88.9147,20.6721 88,21.5C 87.8138,18.9644 87.3138,16.631 86.5,14.5C 87.5139,12.4261 88.5139,10.4261 89.5,8.5 Z"/></g>
<g><path style="opacity:1" fill="#e2bb69" d="M 7.5,7.5 C 6.32786,9.87687 6.66119,12.2102 8.5,14.5C 7.68618,16.631 7.18618,18.9644 7,21.5C 4.56447,17.5174 3.8978,13.184 5,8.5C 5.60081,6.64122 6.43414,6.30789 7.5,7.5 Z"/></g>
<g><path style="opacity:1" fill="#f9862d" d="M 89.5,8.5 C 88.5139,10.4261 87.5139,12.4261 86.5,14.5C 82.4679,15.6937 79.4679,18.1937 77.5,22C 79.5,23.3333 81.5,24.6667 83.5,26C 85.1255,28.6277 87.1255,30.961 89.5,33C 87.7444,33.2022 86.0777,33.7022 84.5,34.5C 87.5663,39.2612 88.233,44.2612 86.5,49.5C 85.9354,43.0374 83.2688,37.7041 78.5,33.5C 77.5207,34.7653 76.5207,36.0986 75.5,37.5C 74.7492,36.624 74.2492,35.624 74,34.5C 72.7045,38.7668 70.2045,42.1001 66.5,44.5C 65.5726,42.8872 64.7393,41.2205 64,39.5C 64.1346,42.9383 62.9679,45.7717 60.5,48C 60.7284,48.3988 61.0618,48.5654 61.5,48.5C 61.3893,49.1174 61.056,49.6174 60.5,50C 54.8953,51.5054 51.2286,50.0054 49.5,45.5C 50.209,44.596 51.209,44.2627 52.5,44.5C 55.0838,43.9517 56.0838,42.285 55.5,39.5C 50.1667,39.5 44.8333,39.5 39.5,39.5C 38.9162,42.285 39.9162,43.9517 42.5,44.5C 43.4293,45.3149 44.4293,46.1482 45.5,47C 41.7228,50.8528 37.7228,51.3528 33.5,48.5C 33.9382,48.5654 34.2716,48.3988 34.5,48C 32.0321,45.7717 30.8654,42.9383 31,39.5C 30.4867,40.5266 29.9867,41.5266 29.5,42.5C 27.8333,41.8333 26.1667,41.1667 24.5,40.5C 23.0927,38.6917 21.926,36.6917 21,34.5C 20.7508,35.624 20.2508,36.624 19.5,37.5C 18.4793,36.0986 17.4793,34.7653 16.5,33.5C 11.7312,37.7041 9.06456,43.0374 8.5,49.5C 6.76704,44.2612 7.43371,39.2612 10.5,34.5C 8.92226,33.7022 7.2556,33.2022 5.5,33C 9.07887,28.8057 13.0789,25.1391 17.5,22C 15.5321,18.1937 12.5321,15.6937 8.5,14.5C 6.66119,12.2102 6.32786,9.87687 7.5,7.5C 11.5621,8.35001 15.5621,9.51668 19.5,11C 18.0403,11.8113 17.707,12.6446 18.5,13.5C 25.5738,7.89829 33.5738,5.73163 42.5,7C 44.1667,8.16667 45.8333,9.33333 47.5,10.5C 51.8046,6.72639 56.8046,5.55972 62.5,7C 67.7533,8.80845 72.7533,10.8085 77.5,13C 75.4407,11.8145 75.274,10.6479 77,9.5C 80.9849,9.00435 84.8182,8.00435 88.5,6.5C 89.2975,6.95689 89.6309,7.62356 89.5,8.5 Z"/></g>
<g><path style="opacity:1" fill="#281803" d="M 52.5,44.5 C 49.1667,44.5 45.8333,44.5 42.5,44.5C 39.9162,43.9517 38.9162,42.285 39.5,39.5C 44.8333,39.5 50.1667,39.5 55.5,39.5C 56.0838,42.285 55.0838,43.9517 52.5,44.5 Z"/></g>
<g><path style="opacity:1" fill="#daaf5d" d="M 24.5,40.5 C 26.1667,41.1667 27.8333,41.8333 29.5,42.5C 29.6309,43.3764 29.2975,44.0431 28.5,44.5C 26.812,43.4787 25.4787,42.1454 24.5,40.5 Z"/></g>
<g><path style="opacity:1" fill="#f8d378" d="M 26.5,30.5 C 27.391,31.1098 28.391,31.4431 29.5,31.5C 29.8333,31.5 30.1667,31.5 30.5,31.5C 30.8333,31.5 31.1667,31.5 31.5,31.5C 33.4021,33.1511 35.4021,33.4845 37.5,32.5C 39.2341,31.438 40.9008,31.438 42.5,32.5C 42.7381,36.0993 41.7381,36.4327 39.5,33.5C 36.5063,34.7485 33.5063,34.7485 30.5,33.5C 28.6684,32.9432 27.3351,31.9432 26.5,30.5 Z"/></g>
<g><path style="opacity:1" fill="#b98846" d="M 63.5,31.5 C 61.4855,32.9238 59.1522,33.5905 56.5,33.5C 55.4168,33.5394 54.4168,33.8728 53.5,34.5C 52.6143,33.675 52.281,32.675 52.5,31.5C 52.56,30.9569 52.8933,30.6236 53.5,30.5C 57.6106,33.6744 59.6106,33.0077 59.5,28.5C 60.3857,29.325 60.719,30.325 60.5,31.5C 61.5,31.5 62.5,31.5 63.5,31.5 Z"/></g>
<g><path style="opacity:0.984" fill="#ecaf59" d="M 70.5,28.5 C 70.0844,30.7525 68.751,32.2525 66.5,33C 66.9574,33.414 67.2907,33.914 67.5,34.5C 63.5687,35.8806 59.902,35.5472 56.5,33.5C 59.1522,33.5905 61.4855,32.9238 63.5,31.5C 64.4345,30.4324 64.7678,29.099 64.5,27.5C 68.1351,27.6556 68.4685,28.8223 65.5,31C 65.8333,31.1667 66.1667,31.3333 66.5,31.5C 67.8518,30.4756 69.1851,29.4756 70.5,28.5 Z"/></g>
<g><path style="opacity:0.996" fill="#9f6b2e" d="M 37.5,32.5 C 35.4021,33.4845 33.4021,33.1511 31.5,31.5C 32.5,31.5 33.5,31.5 34.5,31.5C 34.281,30.325 34.6143,29.325 35.5,28.5C 36.731,29.6507 36.731,30.8173 35.5,32C 36.0944,32.4643 36.7611,32.631 37.5,32.5 Z"/></g>
<g><path style="opacity:1" fill="#24180a" d="M 43.5,22.5 C 44.1518,25.986 46.1518,27.1526 49.5,26C 50.2524,25.3292 50.5858,24.4959 50.5,23.5C 51.7942,22.7101 52.9609,21.7101 54,20.5C 54.4696,21.5768 54.3029,22.5768 53.5,23.5C 52.5655,24.5676 52.2322,25.901 52.5,27.5C 57.0746,27.5469 60.4079,25.5469 62.5,21.5C 65.3965,21.1253 68.0632,21.6253 70.5,23C 65.203,24.1342 65.203,24.9675 70.5,25.5C 70.5,26.5 70.5,27.5 70.5,28.5C 69.1851,29.4756 67.8518,30.4756 66.5,31.5C 66.1667,31.3333 65.8333,31.1667 65.5,31C 68.4685,28.8223 68.1351,27.6556 64.5,27.5C 64.7678,29.099 64.4345,30.4324 63.5,31.5C 62.5,31.5 61.5,31.5 60.5,31.5C 60.719,30.325 60.3857,29.325 59.5,28.5C 59.6106,33.0077 57.6106,33.6744 53.5,30.5C 52.8933,30.6236 52.56,30.9569 52.5,31.5C 48.7573,28.5717 45.4239,28.905 42.5,32.5C 40.9008,31.438 39.2341,31.438 37.5,32.5C 36.7611,32.631 36.0944,32.4643 35.5,32C 36.731,30.8173 36.731,29.6507 35.5,28.5C 34.6143,29.325 34.281,30.325 34.5,31.5C 33.5,31.5 32.5,31.5 31.5,31.5C 31.1667,31.5 30.8333,31.5 30.5,31.5C 30.4208,30.0695 30.7542,28.7362 31.5,27.5C 27.2409,26.6804 26.5743,28.0137 29.5,31.5C 28.391,31.4431 27.391,31.1098 26.5,30.5C 25.0582,29.1805 24.3915,27.5138 24.5,25.5C 29.797,24.9675 29.797,24.1342 24.5,23C 25.5634,21.8118 26.8967,21.3118 28.5,21.5C 32.4063,22.2282 35.7396,24.0615 38.5,27C 39.7932,27.49 41.1266,27.6567 42.5,27.5C 42.7678,25.901 42.4345,24.5676 41.5,23.5C 40.153,19.8904 40.8196,19.5571 43.5,22.5 Z"/></g>
<g><path style="opacity:0.98" fill="#bc6c22" d="M 30.5,31.5 C 30.1667,31.5 29.8333,31.5 29.5,31.5C 26.5743,28.0137 27.2409,26.6804 31.5,27.5C 30.7542,28.7362 30.4208,30.0695 30.5,31.5 Z"/></g>
<g><path style="opacity:1" fill="#f2cf76" d="M 28.5,21.5 C 29.6009,20.4017 30.9343,20.235 32.5,21C 34.8696,22.1848 37.2029,23.3515 39.5,24.5C 40.4164,24.4573 41.0831,24.1239 41.5,23.5C 42.4345,24.5676 42.7678,25.901 42.5,27.5C 41.1266,27.6567 39.7932,27.49 38.5,27C 35.7396,24.0615 32.4063,22.2282 28.5,21.5 Z"/></g>
<g><path style="opacity:1" fill="#ebd078" d="M 62.5,21.5 C 60.4079,25.5469 57.0746,27.5469 52.5,27.5C 52.2322,25.901 52.5655,24.5676 53.5,23.5C 53.9169,24.1239 54.5836,24.4573 55.5,24.5C 57.7033,23.2326 60.0367,22.2326 62.5,21.5 Z"/></g>
<g><path style="opacity:1" fill="#e3b564" d="M 43.5,22.5 C 45.7638,23.2186 48.0971,23.552 50.5,23.5C 50.5858,24.4959 50.2524,25.3292 49.5,26C 46.1518,27.1526 44.1518,25.986 43.5,22.5 Z"/></g>
</svg>
