<?xml version="1.0" encoding="UTF-8"?>
<!DOCTYPE svg PUBLIC "-//W3C//DTD SVG 1.1//EN" "http://www.w3.org/Graphics/SVG/1.1/DTD/svg11.dtd">
<svg xmlns="http://www.w3.org/2000/svg" version="1.1" width="96px" height="96px" style="shape-rendering:geometricPrecision; text-rendering:geometricPrecision; image-rendering:optimizeQuality; fill-rule:evenodd; clip-rule:evenodd" xmlns:xlink="http://www.w3.org/1999/xlink">
<g><path style="opacity:0.989" fill="#2a76ca" d="M 37.5,-0.5 C 44.1667,-0.5 50.8333,-0.5 57.5,-0.5C 77.193,5.193 89.8597,17.8597 95.5,37.5C 95.5,44.1667 95.5,50.8333 95.5,57.5C 89.807,77.193 77.1403,89.8597 57.5,95.5C 50.8333,95.5 44.1667,95.5 37.5,95.5C 17.807,89.807 5.14032,77.1403 -0.5,57.5C -0.5,50.8333 -0.5,44.1667 -0.5,37.5C 5.193,17.807 17.8597,5.14032 37.5,-0.5 Z"/></g>
<g><path style="opacity:1" fill="#f4f7fc" d="M 33.5,14.5 C 35.1667,14.5 36.8333,14.5 38.5,14.5C 38.6602,16.1992 38.4935,17.8659 38,19.5C 17.4103,30.3613 12.7436,46.028 24,66.5C 28.2896,71.1439 33.2896,74.8105 39,77.5C 40.0798,80.2371 39.2464,81.9037 36.5,82.5C 17.4303,74.0359 9.59692,59.3692 13,38.5C 16.822,27.8507 23.6554,19.8507 33.5,14.5 Z"/></g>
<g><path style="opacity:1" fill="#f5f8fc" d="M 56.5,13.5 C 73.1221,18.9633 82.1221,30.4633 83.5,48C 82.9337,61.2088 77.267,71.5421 66.5,79C 63.3949,80.8681 60.0615,82.0348 56.5,82.5C 56.2011,80.396 56.5344,78.396 57.5,76.5C 76.2979,66.6052 81.4646,51.9385 73,32.5C 68.6627,26.9906 63.3294,22.6573 57,19.5C 56.5045,17.5273 56.3379,15.5273 56.5,13.5 Z"/></g>
<g><path style="opacity:1" fill="#f5f8fc" d="M 44.5,23.5 C 46.5,23.5 48.5,23.5 50.5,23.5C 50.3379,25.5273 50.5045,27.5273 51,29.5C 56.4174,30.6824 59.2508,34.0158 59.5,39.5C 57.396,39.7989 55.396,39.4656 53.5,38.5C 51.2158,34.748 47.8825,33.5814 43.5,35C 40.8333,37.6667 40.8333,40.3333 43.5,43C 47.4604,44.0913 51.4604,45.0913 55.5,46C 57.286,46.7845 58.786,47.9512 60,49.5C 62.1785,57.8142 59.1785,63.1476 51,65.5C 50.5045,67.4727 50.3379,69.4727 50.5,71.5C 45.728,72.3968 43.3947,70.3968 43.5,65.5C 37.8728,63.8818 34.8728,60.2151 34.5,54.5C 38.4554,53.8625 41.122,55.3625 42.5,59C 46.7135,61.2694 50.5469,60.7694 54,57.5C 54.8959,54.975 54.3959,52.8083 52.5,51C 47.6268,50.3017 42.9601,48.9683 38.5,47C 32.1384,39.0652 33.8051,33.2319 43.5,29.5C 44.4656,27.604 44.7989,25.604 44.5,23.5 Z"/></g>
</svg>
