<?xml version="1.0" encoding="UTF-8"?>
<!DOCTYPE svg PUBLIC "-//W3C//DTD SVG 1.1//EN" "http://www.w3.org/Graphics/SVG/1.1/DTD/svg11.dtd">
<svg xmlns="http://www.w3.org/2000/svg" version="1.1" width="96px" height="96px" style="shape-rendering:geometricPrecision; text-rendering:geometricPrecision; image-rendering:optimizeQuality; fill-rule:evenodd; clip-rule:evenodd" xmlns:xlink="http://www.w3.org/1999/xlink">
<g><path style="opacity:0.961" fill="#2151f4" d="M 37.5,-0.5 C 44.1667,-0.5 50.8333,-0.5 57.5,-0.5C 77.1667,5.16667 89.8333,17.8333 95.5,37.5C 95.5,44.1667 95.5,50.8333 95.5,57.5C 89.807,77.193 77.1403,89.8597 57.5,95.5C 50.8333,95.5 44.1667,95.5 37.5,95.5C 17.8333,89.8333 5.16667,77.1667 -0.5,57.5C -0.5,50.8333 -0.5,44.1667 -0.5,37.5C 5.193,17.807 17.8597,5.14032 37.5,-0.5 Z"/></g>
<g><path style="opacity:1" fill="#090810" d="M 77.5,29.5 C 77.6659,34.5111 77.4993,39.5111 77,44.5C 76.2878,37.4529 72.7878,32.2863 66.5,29C 67.0944,28.5357 67.7611,28.369 68.5,28.5C 69.4584,28.9528 70.2917,29.6195 71,30.5C 71.2964,25.3861 69.6297,21.0528 66,17.5C 63.0844,18.5892 60.5844,20.2558 58.5,22.5C 54.9249,23.7572 51.0915,24.4239 47,24.5C 43.3167,24.4986 39.8167,24.1652 36.5,23.5C 34.6185,20.5485 31.9518,18.5485 28.5,17.5C 27.5224,17.9767 26.6891,18.6433 26,19.5C 24.007,23.1177 23.1736,26.7844 23.5,30.5C 26.071,28.0481 29.071,26.3814 32.5,25.5C 33.2389,25.369 33.9056,25.5357 34.5,26C 29.0709,27.802 24.5709,30.9686 21,35.5C 19.5625,41.1488 17.3958,46.4821 14.5,51.5C 15.2003,51.7871 15.8669,52.1205 16.5,52.5C 13.9524,55.5489 13.2857,58.8822 14.5,62.5C 17.7219,72.2165 24.3886,78.3832 34.5,81C 50.6894,85.2441 64.8561,81.7441 77,70.5C 78.9927,68.1825 80.1594,65.5158 80.5,62.5C 81.6227,60.312 81.6227,57.9787 80.5,55.5C 81.0431,55.44 81.3764,55.1067 81.5,54.5C 80.5,51.8333 79.5,49.1667 78.5,46.5C 78.6236,45.8933 78.9569,45.56 79.5,45.5C 86.2226,58.8525 83.2226,69.6858 70.5,78C 55.1395,86.6256 39.8062,86.6256 24.5,78C 11.9888,69.4966 9.15542,58.6632 16,45.5C 15.2449,34.6009 17.2449,24.2676 22,14.5C 23.1667,13.3333 24.3333,12.1667 25.5,11C 32.5061,12.1428 38.1728,15.6428 42.5,21.5C 45.4459,22.6548 48.4459,22.8214 51.5,22C 65.7155,5.81003 74.3822,8.31003 77.5,29.5 Z"/></g>
<g><path style="opacity:1" fill="#ececec" d="M 36.5,23.5 C 34.847,23.6596 33.5137,24.3263 32.5,25.5C 29.071,26.3814 26.071,28.0481 23.5,30.5C 23.1736,26.7844 24.007,23.1177 26,19.5C 26.6891,18.6433 27.5224,17.9767 28.5,17.5C 31.9518,18.5485 34.6185,20.5485 36.5,23.5 Z"/></g>
<g><path style="opacity:1" fill="#f0f0f0" d="M 68.5,28.5 C 65.1342,26.4867 61.8008,24.4867 58.5,22.5C 60.5844,20.2558 63.0844,18.5892 66,17.5C 69.6297,21.0528 71.2964,25.3861 71,30.5C 70.2917,29.6195 69.4584,28.9528 68.5,28.5 Z"/></g>
<g><path style="opacity:1" fill="#1c1c22" d="M 58.5,22.5 C 61.8008,24.4867 65.1342,26.4867 68.5,28.5C 67.7611,28.369 67.0944,28.5357 66.5,29C 72.7878,32.2863 76.2878,37.4529 77,44.5C 77.4993,39.5111 77.6659,34.5111 77.5,29.5C 78.2099,34.7317 78.8765,40.0651 79.5,45.5C 78.9569,45.56 78.6236,45.8933 78.5,46.5C 79.5,49.1667 80.5,51.8333 81.5,54.5C 81.3764,55.1067 81.0431,55.44 80.5,55.5C 78.1928,52.3619 75.3594,49.6952 72,47.5C 70.1354,40.9325 66.6354,35.4325 61.5,31C 58.7431,30.218 56.2431,30.718 54,32.5C 52.8744,36.749 52.2077,41.0823 52,45.5C 49,48.1667 46,48.1667 43,45.5C 42.8568,41.3808 42.1901,37.3808 41,33.5C 39.1363,30.7928 36.6363,29.9595 33.5,31C 27.8525,35.1273 24.3525,40.6273 23,47.5C 20.7131,49.0544 18.5465,50.7211 16.5,52.5C 15.8669,52.1205 15.2003,51.7871 14.5,51.5C 17.3958,46.4821 19.5625,41.1488 21,35.5C 24.5709,30.9686 29.0709,27.802 34.5,26C 33.9056,25.5357 33.2389,25.369 32.5,25.5C 33.5137,24.3263 34.847,23.6596 36.5,23.5C 39.8167,24.1652 43.3167,24.4986 47,24.5C 51.0915,24.4239 54.9249,23.7572 58.5,22.5 Z"/></g>
<g><path style="opacity:1" fill="#f8f8f9" d="M 80.5,55.5 C 81.6227,57.9787 81.6227,60.312 80.5,62.5C 58.544,85.0495 36.544,85.0495 14.5,62.5C 13.2857,58.8822 13.9524,55.5489 16.5,52.5C 18.5465,50.7211 20.7131,49.0544 23,47.5C 24.3525,40.6273 27.8525,35.1273 33.5,31C 36.6363,29.9595 39.1363,30.7928 41,33.5C 42.1901,37.3808 42.8568,41.3808 43,45.5C 46,48.1667 49,48.1667 52,45.5C 52.2077,41.0823 52.8744,36.749 54,32.5C 56.2431,30.718 58.7431,30.218 61.5,31C 66.6354,35.4325 70.1354,40.9325 72,47.5C 75.3594,49.6952 78.1928,52.3619 80.5,55.5 Z"/></g>
<g><path style="opacity:1" fill="#1e1e1e" d="M 29.5,48.5 C 33.4738,48.1502 36.1404,49.8169 37.5,53.5C 37.1667,53.8333 36.8333,54.1667 36.5,54.5C 33.7101,50.9532 30.5434,50.6198 27,53.5C 27.0579,51.5646 27.8912,49.8979 29.5,48.5 Z"/></g>
<g><path style="opacity:1" fill="#222222" d="M 61.5,48.5 C 65.2243,47.7731 67.8909,49.1064 69.5,52.5C 69.1667,52.8333 68.8333,53.1667 68.5,53.5C 65.0051,50.6318 61.8384,50.9651 59,54.5C 58.9717,52.2134 59.805,50.2134 61.5,48.5 Z"/></g>
<g><path style="opacity:1" fill="#1a181a" d="M 36.5,62.5 C 39.0552,64.6177 41.8885,64.9511 45,63.5C 45.5281,62.184 45.0281,61.5173 43.5,61.5C 40.204,56.7903 41.5373,54.7903 47.5,55.5C 54.6141,55.8455 55.2808,58.1789 49.5,62.5C 49.7093,63.086 50.0426,63.586 50.5,64C 52.5,64.6667 54.5,64.6667 56.5,64C 57.4658,62.3221 58.7991,61.6554 60.5,62C 58.2941,65.268 56.4607,68.768 55,72.5C 49.9214,77.726 44.9214,77.726 40,72.5C 38.6297,68.8668 36.7964,65.5335 34.5,62.5C 35.2565,61.2267 35.9232,61.2267 36.5,62.5 Z"/></g>
<g><path style="opacity:1" fill="#bebedf" d="M 43.5,61.5 C 45.0281,61.5173 45.5281,62.184 45,63.5C 41.8885,64.9511 39.0552,64.6177 36.5,62.5C 39.0593,62.8016 41.3926,62.4682 43.5,61.5 Z"/></g>
<g><path style="opacity:1" fill="#afafd5" d="M 14.5,62.5 C 36.544,85.0495 58.544,85.0495 80.5,62.5C 80.1594,65.5158 78.9927,68.1825 77,70.5C 64.8561,81.7441 50.6894,85.2441 34.5,81C 24.3886,78.3832 17.7219,72.2165 14.5,62.5 Z"/></g>
<g><path style="opacity:1" fill="#e34794" d="M 43.5,67.5 C 46.1873,67.3359 48.854,67.5026 51.5,68C 54.0636,70.276 53.7303,72.276 50.5,74C 46.4737,75.3366 43.4737,74.1699 41.5,70.5C 42.1925,69.4822 42.8592,68.4822 43.5,67.5 Z"/></g>
</svg>
