<?xml version="1.0" encoding="UTF-8"?>
<!DOCTYPE svg PUBLIC "-//W3C//DTD SVG 1.1//EN" "http://www.w3.org/Graphics/SVG/1.1/DTD/svg11.dtd">
<svg xmlns="http://www.w3.org/2000/svg" version="1.1" width="96px" height="96px" style="shape-rendering:geometricPrecision; text-rendering:geometricPrecision; image-rendering:optimizeQuality; fill-rule:evenodd; clip-rule:evenodd" xmlns:xlink="http://www.w3.org/1999/xlink">
<g><path style="opacity:0.991" fill="#fdfdfd" d="M -0.5,-0.5 C 12.8333,-0.5 26.1667,-0.5 39.5,-0.5C 18.0834,5.25027 4.75005,18.9169 -0.5,40.5C -0.5,26.8333 -0.5,13.1667 -0.5,-0.5 Z"/></g>
<g><path style="opacity:1" fill="#8e8e8e" d="M 39.5,-0.5 C 43.8333,-0.5 48.1667,-0.5 52.5,-0.5C 74.6735,3.66598 89.0068,16.666 95.5,38.5C 95.5,43.1667 95.5,47.8333 95.5,52.5C 89.2924,82.1273 70.9591,96.1273 40.5,94.5C 17.3614,89.6953 3.69475,75.6953 -0.5,52.5C -0.5,48.5 -0.5,44.5 -0.5,40.5C 4.75005,18.9169 18.0834,5.25027 39.5,-0.5 Z"/></g>
<g><path style="opacity:0.991" fill="#fcfcfc" d="M 52.5,-0.5 C 66.8333,-0.5 81.1667,-0.5 95.5,-0.5C 95.5,12.5 95.5,25.5 95.5,38.5C 89.0068,16.666 74.6735,3.66598 52.5,-0.5 Z"/></g>
<g><path style="opacity:1" fill="#fbfbfb" d="M 64.5,42.5 C 63.4324,43.4345 62.099,43.7678 60.5,43.5C 58.1667,43.5 55.8333,43.5 53.5,43.5C 53.5,45.8333 53.5,48.1667 53.5,50.5C 49.5,50.5 45.5,50.5 41.5,50.5C 41.7359,47.3915 41.4025,44.3915 40.5,41.5C 40.5,39.1667 40.5,36.8333 40.5,34.5C 35.1667,34.5 29.8333,34.5 24.5,34.5C 24.5,30.5 24.5,26.5 24.5,22.5C 39.5,22.5 54.5,22.5 69.5,22.5C 69.5,26.5 69.5,30.5 69.5,34.5C 64.1667,34.5 58.8333,34.5 53.5,34.5C 53.5,36.8333 53.5,39.1667 53.5,41.5C 57.1545,41.9422 60.8212,42.2756 64.5,42.5 Z"/></g>
<g><path style="opacity:1" fill="#f6f6f6" d="M 40.5,41.5 C 41.4025,44.3915 41.7359,47.3915 41.5,50.5C 40.5318,48.3926 40.1984,46.0593 40.5,43.5C 33.7022,43.2957 27.3688,44.7957 21.5,48C 23.221,49.5272 25.221,50.5272 27.5,51C 42.6585,53.4471 57.6585,52.7804 72.5,49C 73.3452,47.4419 72.6785,46.4419 70.5,46C 67.0477,45.1153 63.7144,44.282 60.5,43.5C 62.099,43.7678 63.4324,43.4345 64.5,42.5C 67.4804,43.2655 70.4804,44.0989 73.5,45C 76.3407,48.1588 75.674,50.4922 71.5,52C 65.5056,52.9438 59.5056,53.7771 53.5,54.5C 53.5,61.5 53.5,68.5 53.5,75.5C 49.1667,75.5 44.8333,75.5 40.5,75.5C 40.5,68.5 40.5,61.5 40.5,54.5C 34.7155,54.5101 29.0488,53.6767 23.5,52C 18.1667,49.3333 18.1667,46.6667 23.5,44C 29.0901,42.5815 34.7567,41.7482 40.5,41.5 Z"/></g>
<g><path style="opacity:1" fill="#8e8e8e" d="M 41.5,50.5 C 45.5,50.5 49.5,50.5 53.5,50.5C 53.5,48.1667 53.5,45.8333 53.5,43.5C 55.8333,43.5 58.1667,43.5 60.5,43.5C 63.7144,44.282 67.0477,45.1153 70.5,46C 72.6785,46.4419 73.3452,47.4419 72.5,49C 57.6585,52.7804 42.6585,53.4471 27.5,51C 25.221,50.5272 23.221,49.5272 21.5,48C 27.3688,44.7957 33.7022,43.2957 40.5,43.5C 40.1984,46.0593 40.5318,48.3926 41.5,50.5 Z"/></g>
<g><path style="opacity:0.991" fill="#fdfdfd" d="M -0.5,52.5 C 3.69475,75.6953 17.3614,89.6953 40.5,94.5C 40.5,94.8333 40.5,95.1667 40.5,95.5C 26.8333,95.5 13.1667,95.5 -0.5,95.5C -0.5,81.1667 -0.5,66.8333 -0.5,52.5 Z"/></g>
<g><path style="opacity:0.991" fill="#fbfbfb" d="M 95.5,52.5 C 95.5,66.8333 95.5,81.1667 95.5,95.5C 77.1667,95.5 58.8333,95.5 40.5,95.5C 40.5,95.1667 40.5,94.8333 40.5,94.5C 70.9591,96.1273 89.2924,82.1273 95.5,52.5 Z"/></g>
</svg>
