<?xml version="1.0" encoding="UTF-8"?>
<!DOCTYPE svg PUBLIC "-//W3C//DTD SVG 1.1//EN" "http://www.w3.org/Graphics/SVG/1.1/DTD/svg11.dtd">
<svg xmlns="http://www.w3.org/2000/svg" version="1.1" width="96px" height="96px" style="shape-rendering:geometricPrecision; text-rendering:geometricPrecision; image-rendering:optimizeQuality; fill-rule:evenodd; clip-rule:evenodd" xmlns:xlink="http://www.w3.org/1999/xlink">
<g><path style="opacity:1" fill="#ba990f" d="M 58.5,7.5 C 59.1667,7.5 59.8333,7.5 60.5,7.5C 60.733,10.3492 62.0663,12.5159 64.5,14C 63.8333,14.3333 63.1667,14.6667 62.5,15C 65.5577,16.2177 68.2244,18.051 70.5,20.5C 69.2418,19.9836 68.2418,20.6503 67.5,22.5C 67.8457,23.6956 68.3457,23.6956 69,22.5C 69.5133,23.5266 70.0133,24.5266 70.5,25.5C 71.3414,27.3792 71.6747,29.3792 71.5,31.5C 70.5,31.5 69.5,31.5 68.5,31.5C 68.1667,31.5 67.8333,31.5 67.5,31.5C 66.6618,31.1583 66.3284,30.4916 66.5,29.5C 64.8449,25.6807 62.0115,23.0141 58,21.5C 57.3333,20.5 57.3333,19.5 58,18.5C 58.6543,19.6956 59.1543,19.6956 59.5,18.5C 57.9776,16.8437 58.311,15.677 60.5,15C 59.4366,13.8118 58.1033,13.3118 56.5,13.5C 57.7353,11.2271 57.4019,9.39377 55.5,8C 56.448,7.51722 57.448,7.35055 58.5,7.5 Z"/></g>
<g><path style="opacity:1" fill="#9f7606" d="M 53.5,6.5 C 52.1931,7.80163 52.1931,9.13497 53.5,10.5C 52.9747,11.1924 52.3081,11.6924 51.5,12C 51.8333,12.3333 52.1667,12.6667 52.5,13C 50.9336,13.6082 49.6002,14.4415 48.5,15.5C 47.8826,15.6107 47.3826,15.944 47,16.5C 46.2904,15.0267 45.1238,14.3601 43.5,14.5C 43.3398,16.1992 43.5065,17.8659 44,19.5C 45.3875,20.7358 46.5542,22.0692 47.5,23.5C 46.6236,23.3691 45.9569,23.7025 45.5,24.5C 45.8457,25.6956 46.3457,25.6956 47,24.5C 47.49,25.7932 47.6567,27.1266 47.5,28.5C 50.7973,28.3287 51.1306,28.9954 48.5,30.5C 49.1667,31.5 49.8333,32.5 50.5,33.5C 49.4252,36.438 49.2585,39.438 50,42.5C 51.439,40.9861 52.939,40.6527 54.5,41.5C 53.6364,43.1965 52.3031,44.3632 50.5,45C 53.7982,45.2994 54.1315,46.1327 51.5,47.5C 50.1155,46.1991 48.6155,46.1991 47,47.5C 47.0773,46.2624 46.9106,45.2624 46.5,44.5C 45.8333,45.1667 45.1667,45.8333 44.5,46.5C 43.2319,44.6957 42.5652,42.6957 42.5,40.5C 42.7285,36.2697 43.0618,31.9364 43.5,27.5C 43.0124,23.2584 42.3457,19.0917 41.5,15C 41.8333,14.6667 42.1667,14.3333 42.5,14C 39.9557,12.4374 39.9557,10.9374 42.5,9.5C 42.2907,8.91395 41.9574,8.41395 41.5,8C 45.4183,6.84355 49.4183,6.34355 53.5,6.5 Z"/></g>
<g><path style="opacity:1" fill="#996f06" d="M 53.5,6.5 C 49.4183,6.34355 45.4183,6.84355 41.5,8C 41.9574,8.41395 42.2907,8.91395 42.5,9.5C 39.9557,10.9374 39.9557,12.4374 42.5,14C 42.1667,14.3333 41.8333,14.6667 41.5,15C 42.3457,19.0917 43.0124,23.2584 43.5,27.5C 43.0618,31.9364 42.7285,36.2697 42.5,40.5C 41.8436,45.1818 41.8436,50.1818 42.5,55.5C 41.8826,55.3893 41.3826,55.056 41,54.5C 40.7973,47.4207 40.2973,40.4207 39.5,33.5C 40.5862,33.38 41.2528,32.7133 41.5,31.5C 41.5326,28.9079 41.1993,26.2412 40.5,23.5C 39.8153,21.5856 39.3153,19.5856 39,17.5C 36.7424,21.0747 34.9091,21.0747 33.5,17.5C 35.8084,16.4422 38.1417,15.2755 40.5,14C 36.8333,14.3333 33.1667,14.6667 29.5,15C 31.0016,14.4169 32.3349,13.5836 33.5,12.5C 32.0977,11.1575 32.4311,10.3242 34.5,10C 33.9056,9.53566 33.2389,9.36899 32.5,9.5C 39.2097,6.02131 46.2097,5.02131 53.5,6.5 Z"/></g>
<g><path style="opacity:1" fill="#956c04" d="M 33.5,17.5 C 34.9091,21.0747 36.7424,21.0747 39,17.5C 39.3153,19.5856 39.8153,21.5856 40.5,23.5C 38.8561,23.7135 37.3561,23.3802 36,22.5C 35.1376,24.087 34.4709,25.7536 34,27.5C 31.402,24.8561 28.7353,24.8561 26,27.5C 25.5,27.1667 25,26.8333 24.5,26.5C 25.8783,21.7883 28.8783,18.7883 33.5,17.5 Z"/></g>
<g><path style="opacity:1" fill="#926908" d="M 32.5,9.5 C 33.2389,9.36899 33.9056,9.53566 34.5,10C 32.4311,10.3242 32.0977,11.1575 33.5,12.5C 32.3349,13.5836 31.0016,14.4169 29.5,15C 33.1667,14.6667 36.8333,14.3333 40.5,14C 38.1417,15.2755 35.8084,16.4422 33.5,17.5C 28.8783,18.7883 25.8783,21.7883 24.5,26.5C 25,26.8333 25.5,27.1667 26,27.5C 28.7353,24.8561 31.402,24.8561 34,27.5C 34.4709,25.7536 35.1376,24.087 36,22.5C 37.3561,23.3802 38.8561,23.7135 40.5,23.5C 41.1993,26.2412 41.5326,28.9079 41.5,31.5C 41.2528,32.7133 40.5862,33.38 39.5,33.5C 36.9179,31.2868 33.9179,29.6201 30.5,28.5C 29.8182,29.2427 29.1515,29.9094 28.5,30.5C 27.067,30.3248 25.4004,29.6581 23.5,28.5C 22.5595,25.8749 21.3928,25.8749 20,28.5C 21.2245,24.6061 23.3911,21.1061 26.5,18C 25.1859,17.015 24.1859,15.8484 23.5,14.5C 26.0078,12.0764 29.0078,10.4097 32.5,9.5 Z"/></g>
<g><path style="opacity:1" fill="#a37c06" d="M 48.5,15.5 C 48.3691,16.3764 48.7025,17.0431 49.5,17.5C 50.6486,14.5709 52.3153,14.0709 54.5,16C 55.0792,17.4253 55.0792,19.092 54.5,21C 55.1667,21.6667 55.8333,22.3333 56.5,23C 55.0611,23.9906 54.0611,25.324 53.5,27C 54.8333,26.6667 56.1667,26.3333 57.5,26C 57.0338,27.2988 57.0338,28.7988 57.5,30.5C 56.8485,29.9094 56.1818,29.2427 55.5,28.5C 54.7025,28.9569 54.3691,29.6236 54.5,30.5C 52.8634,28.6838 51.3634,26.6838 50,24.5C 49.3292,23.7476 48.4959,23.4142 47.5,23.5C 46.5542,22.0692 45.3875,20.7358 44,19.5C 43.5065,17.8659 43.3398,16.1992 43.5,14.5C 45.1238,14.3601 46.2904,15.0267 47,16.5C 47.3826,15.944 47.8826,15.6107 48.5,15.5 Z"/></g>
<g><path style="opacity:1" fill="#af8b0f" d="M 53.5,6.5 C 55.4147,6.21552 57.0813,6.54885 58.5,7.5C 57.448,7.35055 56.448,7.51722 55.5,8C 57.4019,9.39377 57.7353,11.2271 56.5,13.5C 58.1033,13.3118 59.4366,13.8118 60.5,15C 58.311,15.677 57.9776,16.8437 59.5,18.5C 59.1543,19.6956 58.6543,19.6956 58,18.5C 57.3333,19.5 57.3333,20.5 58,21.5C 62.0115,23.0141 64.8449,25.6807 66.5,29.5C 65.8501,29.1961 65.1835,28.8627 64.5,28.5C 62.9246,29.4565 61.258,30.1231 59.5,30.5C 58.8333,30.5 58.1667,30.5 57.5,30.5C 57.0338,28.7988 57.0338,27.2988 57.5,26C 56.1667,26.3333 54.8333,26.6667 53.5,27C 54.0611,25.324 55.0611,23.9906 56.5,23C 55.8333,22.3333 55.1667,21.6667 54.5,21C 55.0792,19.092 55.0792,17.4253 54.5,16C 52.3153,14.0709 50.6486,14.5709 49.5,17.5C 48.7025,17.0431 48.3691,16.3764 48.5,15.5C 49.6002,14.4415 50.9336,13.6082 52.5,13C 52.1667,12.6667 51.8333,12.3333 51.5,12C 52.3081,11.6924 52.9747,11.1924 53.5,10.5C 52.1931,9.13497 52.1931,7.80163 53.5,6.5 Z"/></g>
<g><path style="opacity:1" fill="#d0b711" d="M 60.5,7.5 C 61.1667,7.83333 61.8333,8.16667 62.5,8.5C 66.2011,10.7823 69.7011,13.449 73,16.5C 73.3603,18.4211 74.1936,20.0878 75.5,21.5C 74.8333,21.8333 74.1667,22.1667 73.5,22.5C 75.2255,24.2279 76.5589,26.2279 77.5,28.5C 77.1543,29.6956 76.6543,29.6956 76,28.5C 75.51,29.7932 75.3433,31.1266 75.5,32.5C 73.87,30.9739 73.0367,28.9739 73,26.5C 72.3292,25.7476 71.4959,25.4142 70.5,25.5C 70.0133,24.5266 69.5133,23.5266 69,22.5C 68.3457,23.6956 67.8457,23.6956 67.5,22.5C 68.2418,20.6503 69.2418,19.9836 70.5,20.5C 68.2244,18.051 65.5577,16.2177 62.5,15C 63.1667,14.6667 63.8333,14.3333 64.5,14C 62.0663,12.5159 60.733,10.3492 60.5,7.5 Z"/></g>
<g><path style="opacity:1" fill="#a17806" d="M 47.5,23.5 C 48.4959,23.4142 49.3292,23.7476 50,24.5C 51.3634,26.6838 52.8634,28.6838 54.5,30.5C 55.4328,33.6424 56.0994,36.9758 56.5,40.5C 56.7898,45.8277 56.4565,51.4944 55.5,57.5C 55.5,58.1667 55.1667,58.5 54.5,58.5C 53.5255,57.365 52.3588,56.365 51,55.5C 50.5477,52.8506 49.7143,50.3506 48.5,48C 49.448,47.5172 50.448,47.3505 51.5,47.5C 54.1315,46.1327 53.7982,45.2994 50.5,45C 52.3031,44.3632 53.6364,43.1965 54.5,41.5C 52.939,40.6527 51.439,40.9861 50,42.5C 49.2585,39.438 49.4252,36.438 50.5,33.5C 49.8333,32.5 49.1667,31.5 48.5,30.5C 51.1306,28.9954 50.7973,28.3287 47.5,28.5C 47.6567,27.1266 47.49,25.7932 47,24.5C 46.3457,25.6956 45.8457,25.6956 45.5,24.5C 45.9569,23.7025 46.6236,23.3691 47.5,23.5 Z"/></g>
<g><path style="opacity:1" fill="#451983" d="M 39.5,33.5 C 35.0766,40.744 34.4099,48.4107 37.5,56.5C 37.33,57.8221 37.6634,58.9887 38.5,60C 37.9341,60.9947 37.2674,61.828 36.5,62.5C 36.2627,63.791 36.596,64.791 37.5,65.5C 38.675,65.719 39.675,65.3857 40.5,64.5C 40.0431,63.7025 39.3764,63.3691 38.5,63.5C 39.209,62.596 40.209,62.2627 41.5,62.5C 41.5,63.8333 41.5,65.1667 41.5,66.5C 39.5853,66.2155 37.9187,66.5489 36.5,67.5C 34.8333,66.5 33.5,65.1667 32.5,63.5C 30.7669,60.6173 29.4335,57.6173 28.5,54.5C 28.5,53.8333 28.5,53.1667 28.5,52.5C 28.1037,46.4189 29.4371,40.7522 32.5,35.5C 30.0693,34.6399 28.736,32.9732 28.5,30.5C 29.1515,29.9094 29.8182,29.2427 30.5,28.5C 33.9179,29.6201 36.9179,31.2868 39.5,33.5 Z"/></g>
<g><path style="opacity:1" fill="#6630ae" d="M 66.5,29.5 C 66.3284,30.4916 66.6618,31.1583 67.5,31.5C 66.4125,32.9998 65.0792,34.3331 63.5,35.5C 66.8574,41.4015 68.1907,47.7349 67.5,54.5C 66.596,55.209 66.2627,56.209 66.5,57.5C 64.7643,62.6514 61.4309,66.318 56.5,68.5C 55.9569,68.44 55.6236,68.1067 55.5,67.5C 56.2427,66.8182 56.9094,66.1515 57.5,65.5C 57.5,64.8333 57.5,64.1667 57.5,63.5C 54.7417,62.0335 55.075,61.3668 58.5,61.5C 59.9473,62.8852 60.9473,62.5518 61.5,60.5C 62.6737,59.4863 63.3404,58.153 63.5,56.5C 62.779,54.6182 61.779,54.2848 60.5,55.5C 59.6043,56.5063 58.9377,56.5063 58.5,55.5C 59.8526,52.863 60.5192,50.0296 60.5,47C 59.6713,41.6846 58.338,36.5179 56.5,31.5C 57.791,31.7373 58.791,31.404 59.5,30.5C 61.258,30.1231 62.9246,29.4565 64.5,28.5C 65.1835,28.8627 65.8501,29.1961 66.5,29.5 Z"/></g>
<g><path style="opacity:1" fill="#996e05" d="M 23.5,14.5 C 24.1859,15.8484 25.1859,17.015 26.5,18C 23.3911,21.1061 21.2245,24.6061 20,28.5C 21.3928,25.8749 22.5595,25.8749 23.5,28.5C 23.8845,33.756 23.8845,38.9227 23.5,44C 24.3953,46.8202 25.2286,49.6536 26,52.5C 26.3333,50.5 26.6667,48.5 27,46.5C 27.1909,48.7078 27.6909,50.7078 28.5,52.5C 28.5,53.1667 28.5,53.8333 28.5,54.5C 28.3068,58.449 27.8068,58.449 27,54.5C 26.5,55.5 26,56.5 25.5,57.5C 26.057,59.2352 26.3903,60.9018 26.5,62.5C 26.0576,63.7387 25.3909,64.7387 24.5,65.5C 24.5294,59.5844 24.1961,53.9177 23.5,48.5C 22.8326,51.6417 22.166,54.6417 21.5,57.5C 20.7986,54.4371 20.132,51.2704 19.5,48C 20.624,47.7508 21.624,47.2508 22.5,46.5C 22.5263,41.8922 20.5263,38.5588 16.5,36.5C 15.8281,37.9492 15.1614,39.2825 14.5,40.5C 16.3638,33.944 18.3638,27.444 20.5,21C 19.8235,19.3167 18.8235,19.1501 17.5,20.5C 18.9501,18.0772 20.9501,16.0772 23.5,14.5 Z"/></g>
<g><path style="opacity:1" fill="#f3e928" d="M 81.5,22.5 C 89.1525,32.1054 91.9859,43.1054 90,55.5C 89.162,59.8598 87.662,63.8598 85.5,67.5C 84.5,67.5 83.5,67.5 82.5,67.5C 83.1495,65.5229 83.1495,63.6895 82.5,62C 83.6133,60.6057 84.9466,59.439 86.5,58.5C 86.9867,57.5539 87.3201,56.5539 87.5,55.5C 86.7308,52.8853 86.3975,50.2186 86.5,47.5C 85.5,47.5 84.5,47.5 83.5,47.5C 83.6602,45.8008 83.4935,44.1341 83,42.5C 80.1057,43.6148 78.939,42.4481 79.5,39C 79.6667,37.8333 79.8333,36.6667 80,35.5C 80.8893,36.8882 81.3893,36.7215 81.5,35C 80.9706,33.4411 80.304,31.9411 79.5,30.5C 80.1667,30.1667 80.8333,29.8333 81.5,29.5C 79.0161,26.9846 79.0161,24.6513 81.5,22.5 Z"/></g>
<g><path style="opacity:1" fill="#e9da1d" d="M 62.5,8.5 C 70.4817,10.9849 76.815,15.6516 81.5,22.5C 79.0161,24.6513 79.0161,26.9846 81.5,29.5C 80.8333,29.8333 80.1667,30.1667 79.5,30.5C 80.304,31.9411 80.9706,33.4411 81.5,35C 81.3893,36.7215 80.8893,36.8882 80,35.5C 79.8333,36.6667 79.6667,37.8333 79.5,39C 78.939,42.4481 80.1057,43.6148 83,42.5C 83.4935,44.1341 83.6602,45.8008 83.5,47.5C 84.5,47.5 85.5,47.5 86.5,47.5C 86.3975,50.2186 86.7308,52.8853 87.5,55.5C 87.3201,56.5539 86.9867,57.5539 86.5,58.5C 84.9466,59.439 83.6133,60.6057 82.5,62C 83.1495,63.6895 83.1495,65.5229 82.5,67.5C 83.5,67.5 84.5,67.5 85.5,67.5C 82.594,73.075 78.594,77.7417 73.5,81.5C 73.0618,81.5654 72.7284,81.3988 72.5,81C 77.097,76.9429 79.097,71.9429 78.5,66C 78.2409,64.7387 77.5742,63.7387 76.5,63C 78.727,62.296 79.0603,61.1294 77.5,59.5C 78.4025,56.6085 78.7359,53.6085 78.5,50.5C 79.5,50.5 80.5,50.5 81.5,50.5C 78.8233,45.9743 76.8233,41.141 75.5,36C 78.0176,34.8604 78.0176,33.6937 75.5,32.5C 75.3433,31.1266 75.51,29.7932 76,28.5C 76.6543,29.6956 77.1543,29.6956 77.5,28.5C 76.5589,26.2279 75.2255,24.2279 73.5,22.5C 74.1667,22.1667 74.8333,21.8333 75.5,21.5C 74.1936,20.0878 73.3603,18.4211 73,16.5C 69.7011,13.449 66.2011,10.7823 62.5,8.5 Z"/></g>
<g><path style="opacity:1" fill="#a17708" d="M 14.5,40.5 C 13.8826,40.6107 13.3826,40.944 13,41.5C 12.3333,46.1667 12.3333,50.8333 13,55.5C 13.3826,56.056 13.8826,56.3893 14.5,56.5C 13.9574,61.5748 15.2907,66.0748 18.5,70C 18.101,71.7275 17.4343,73.2275 16.5,74.5C 5.81672,61.2869 3.65005,46.6202 10,30.5C 11.7911,26.5613 14.2911,23.228 17.5,20.5C 18.8235,19.1501 19.8235,19.3167 20.5,21C 18.3638,27.444 16.3638,33.944 14.5,40.5 Z"/></g>
<g><path style="opacity:1" fill="#9f7404" d="M 21.5,57.5 C 21.3385,59.8244 20.1718,61.4911 18,62.5C 16.5415,60.5681 15.3748,58.5681 14.5,56.5C 13.8826,56.3893 13.3826,56.056 13,55.5C 12.3333,50.8333 12.3333,46.1667 13,41.5C 13.3826,40.944 13.8826,40.6107 14.5,40.5C 15.1614,39.2825 15.8281,37.9492 16.5,36.5C 20.5263,38.5588 22.5263,41.8922 22.5,46.5C 21.624,47.2508 20.624,47.7508 19.5,48C 20.132,51.2704 20.7986,54.4371 21.5,57.5 Z"/></g>
<g><path style="opacity:1" fill="#99701a" d="M 39.5,33.5 C 40.2973,40.4207 40.7973,47.4207 41,54.5C 41.3826,55.056 41.8826,55.3893 42.5,55.5C 44.1094,56.6654 44.4427,57.9988 43.5,59.5C 41.2163,59.0248 39.2163,58.0248 37.5,56.5C 34.4099,48.4107 35.0766,40.744 39.5,33.5 Z"/></g>
<g><path style="opacity:1" fill="#a78018" d="M 57.5,30.5 C 58.1667,30.5 58.8333,30.5 59.5,30.5C 58.791,31.404 57.791,31.7373 56.5,31.5C 58.338,36.5179 59.6713,41.6846 60.5,47C 60.5192,50.0296 59.8526,52.863 58.5,55.5C 57.5,56.1667 56.5,56.8333 55.5,57.5C 56.4565,51.4944 56.7898,45.8277 56.5,40.5C 56.0994,36.9758 55.4328,33.6424 54.5,30.5C 54.3691,29.6236 54.7025,28.9569 55.5,28.5C 56.1818,29.2427 56.8485,29.9094 57.5,30.5 Z"/></g>
<g><path style="opacity:1" fill="#9e730d" d="M 42.5,40.5 C 42.5652,42.6957 43.2319,44.6957 44.5,46.5C 45.1667,45.8333 45.8333,45.1667 46.5,44.5C 46.9106,45.2624 47.0773,46.2624 47,47.5C 48.6155,46.1991 50.1155,46.1991 51.5,47.5C 50.448,47.3505 49.448,47.5172 48.5,48C 49.7143,50.3506 50.5477,52.8506 51,55.5C 52.3588,56.365 53.5255,57.365 54.5,58.5C 52.7103,59.9973 50.5437,60.664 48,60.5C 46.2933,60.4915 44.7933,60.1582 43.5,59.5C 44.4427,57.9988 44.1094,56.6654 42.5,55.5C 41.8436,50.1818 41.8436,45.1818 42.5,40.5 Z"/></g>
<g><path style="opacity:1" fill="#91680c" d="M 23.5,28.5 C 25.4004,29.6581 27.067,30.3248 28.5,30.5C 28.736,32.9732 30.0693,34.6399 32.5,35.5C 29.4371,40.7522 28.1037,46.4189 28.5,52.5C 27.6909,50.7078 27.1909,48.7078 27,46.5C 26.6667,48.5 26.3333,50.5 26,52.5C 25.2286,49.6536 24.3953,46.8202 23.5,44C 23.8845,38.9227 23.8845,33.756 23.5,28.5 Z"/></g>
<g><path style="opacity:1" fill="#9b7107" d="M 24.5,65.5 C 25.6414,67.5487 25.6414,69.5487 24.5,71.5C 22.8712,70.3747 21.3712,69.0414 20,67.5C 19.8333,67.8333 19.6667,68.1667 19.5,68.5C 20.3913,71.8203 22.3913,74.8203 25.5,77.5C 24.6236,77.3691 23.9569,77.7025 23.5,78.5C 24.1799,79.8599 24.8466,81.1932 25.5,82.5C 21.8998,80.5698 18.8998,77.9031 16.5,74.5C 17.4343,73.2275 18.101,71.7275 18.5,70C 15.2907,66.0748 13.9574,61.5748 14.5,56.5C 15.3748,58.5681 16.5415,60.5681 18,62.5C 20.1718,61.4911 21.3385,59.8244 21.5,57.5C 22.166,54.6417 22.8326,51.6417 23.5,48.5C 24.1961,53.9177 24.5294,59.5844 24.5,65.5 Z"/></g>
<g><path style="opacity:1" fill="#c3a50d" d="M 77.5,59.5 C 79.0603,61.1294 78.727,62.296 76.5,63C 77.5742,63.7387 78.2409,64.7387 78.5,66C 79.097,71.9429 77.097,76.9429 72.5,81C 72.7284,81.3988 73.0618,81.5654 73.5,81.5C 72.205,82.4884 70.8717,83.4884 69.5,84.5C 69.6229,80.4659 71.2895,77.2993 74.5,75C 73.1667,74 73.1667,73 74.5,72C 72.3309,73.1138 70.4976,72.6138 69,70.5C 68.5304,69.4232 68.6971,68.4232 69.5,67.5C 70.9931,66.6879 71.6598,65.3545 71.5,63.5C 72.0344,54.8674 71.3677,46.2007 69.5,37.5C 69.2148,35.712 69.5481,34.0453 70.5,32.5C 70.8333,33.3333 71.1667,34.1667 71.5,35C 72.6386,43.6623 74.6386,51.829 77.5,59.5 Z"/></g>
<g><path style="opacity:1" fill="#ccb20d" d="M 70.5,25.5 C 71.4959,25.4142 72.3292,25.7476 73,26.5C 73.0367,28.9739 73.87,30.9739 75.5,32.5C 78.0176,33.6937 78.0176,34.8604 75.5,36C 76.8233,41.141 78.8233,45.9743 81.5,50.5C 80.5,50.5 79.5,50.5 78.5,50.5C 78.7359,53.6085 78.4025,56.6085 77.5,59.5C 74.6386,51.829 72.6386,43.6623 71.5,35C 71.1667,34.1667 70.8333,33.3333 70.5,32.5C 69.5481,34.0453 69.2148,35.712 69.5,37.5C 68.5386,35.7354 68.2053,33.7354 68.5,31.5C 69.5,31.5 70.5,31.5 71.5,31.5C 71.6747,29.3792 71.3414,27.3792 70.5,25.5 Z"/></g>
<g><path style="opacity:1" fill="#b69312" d="M 67.5,31.5 C 67.8333,31.5 68.1667,31.5 68.5,31.5C 68.2053,33.7354 68.5386,35.7354 69.5,37.5C 71.3677,46.2007 72.0344,54.8674 71.5,63.5C 71.6598,65.3545 70.9931,66.6879 69.5,67.5C 67.1889,66.039 67.1889,64.2056 69.5,62C 69.439,59.5981 68.7724,57.0981 67.5,54.5C 68.1907,47.7349 66.8574,41.4015 63.5,35.5C 65.0792,34.3331 66.4125,32.9998 67.5,31.5 Z"/></g>
<g><path style="opacity:1" fill="#966f30" d="M 32.5,54.5 C 35.6741,54.9522 36.0075,55.9522 33.5,57.5C 32.6143,56.675 32.281,55.675 32.5,54.5 Z"/></g>
<g><path style="opacity:1" fill="#a88333" d="M 63.5,56.5 C 61.8041,58.129 60.8041,57.7957 60.5,55.5C 61.779,54.2848 62.779,54.6182 63.5,56.5 Z"/></g>
<g><path style="opacity:1" fill="#9f7624" d="M 36.5,62.5 C 34.5354,62.0517 34.2021,61.0517 35.5,59.5C 36.3857,60.325 36.719,61.325 36.5,62.5 Z"/></g>
<g><path style="opacity:1" fill="#ad8738" d="M 61.5,60.5 C 60.9473,62.5518 59.9473,62.8852 58.5,61.5C 59.1054,59.5188 60.1054,59.1854 61.5,60.5 Z"/></g>
<g><path style="opacity:1" fill="#4f1e90" d="M 58.5,55.5 C 58.9377,56.5063 59.6043,56.5063 60.5,55.5C 60.8041,57.7957 61.8041,58.129 63.5,56.5C 63.3404,58.153 62.6737,59.4863 61.5,60.5C 60.1054,59.1854 59.1054,59.5188 58.5,61.5C 55.075,61.3668 54.7417,62.0335 57.5,63.5C 54.8333,64.1667 54.8333,64.8333 57.5,65.5C 56.9094,66.1515 56.2427,66.8182 55.5,67.5C 55.6236,68.1067 55.9569,68.44 56.5,68.5C 56.5,68.8333 56.5,69.1667 56.5,69.5C 54.4352,69.5172 52.4352,69.8505 50.5,70.5C 45.4361,71.0908 40.7695,70.0908 36.5,67.5C 37.9187,66.5489 39.5853,66.2155 41.5,66.5C 41.5,65.1667 41.5,63.8333 41.5,62.5C 40.209,62.2627 39.209,62.596 38.5,63.5C 37.6618,63.8417 37.3284,64.5084 37.5,65.5C 36.596,64.791 36.2627,63.791 36.5,62.5C 37.2674,61.828 37.9341,60.9947 38.5,60C 37.6634,58.9887 37.33,57.8221 37.5,56.5C 39.2163,58.0248 41.2163,59.0248 43.5,59.5C 44.7933,60.1582 46.2933,60.4915 48,60.5C 50.5437,60.664 52.7103,59.9973 54.5,58.5C 55.1667,58.5 55.5,58.1667 55.5,57.5C 56.5,56.8333 57.5,56.1667 58.5,55.5 Z"/></g>
<g><path style="opacity:1" fill="#a17b31" d="M 38.5,63.5 C 39.3764,63.3691 40.0431,63.7025 40.5,64.5C 39.675,65.3857 38.675,65.719 37.5,65.5C 37.3284,64.5084 37.6618,63.8417 38.5,63.5 Z"/></g>
<g><path style="opacity:1" fill="#b3910a" d="M 57.5,63.5 C 57.5,64.1667 57.5,64.8333 57.5,65.5C 54.8333,64.8333 54.8333,64.1667 57.5,63.5 Z"/></g>
<g><path style="opacity:1" fill="#a1783b" d="M 44.5,64.5 C 46.6246,65.3676 46.7913,66.3676 45,67.5C 43.3167,66.8235 43.1501,65.8235 44.5,64.5 Z"/></g>
<g><path style="opacity:1" fill="#a67d2a" d="M 49.5,64.5 C 51.4646,64.9483 51.7979,65.9483 50.5,67.5C 49.6143,66.675 49.281,65.675 49.5,64.5 Z"/></g>
<g><path style="opacity:1" fill="#8c6307" d="M 28.5,54.5 C 29.4335,57.6173 30.7669,60.6173 32.5,63.5C 30.5891,63.4257 29.4224,62.4257 29,60.5C 28.9861,62.598 29.1528,64.4313 29.5,66C 28.5,66.3333 27.5,66.6667 26.5,67C 27.3431,68.7866 27.5098,70.6199 27,72.5C 27.414,72.9574 27.914,73.2907 28.5,73.5C 29.7589,70.23 32.0922,68.5633 35.5,68.5C 35.7564,70.7925 35.4231,72.9592 34.5,75C 35.1667,75.3333 35.8333,75.6667 36.5,76C 35.1667,77 35.1667,78 36.5,79C 36,79.1667 35.5,79.3333 35,79.5C 31.0696,77.4529 27.2363,75.2863 23.5,73C 24.056,72.6174 24.3893,72.1174 24.5,71.5C 25.6414,69.5487 25.6414,67.5487 24.5,65.5C 25.3909,64.7387 26.0576,63.7387 26.5,62.5C 26.3903,60.9018 26.057,59.2352 25.5,57.5C 26,56.5 26.5,55.5 27,54.5C 27.8068,58.449 28.3068,58.449 28.5,54.5 Z"/></g>
<g><path style="opacity:1" fill="#aa810c" d="M 66.5,57.5 C 67.4016,60.9044 66.7349,64.071 64.5,67C 66.7064,69.3841 67.3731,72.0507 66.5,75C 68.9896,76.3538 68.9896,77.5205 66.5,78.5C 65.8106,77.2264 64.9772,77.2264 64,78.5C 63.6667,77.8333 63.3333,77.1667 63,76.5C 61.8589,79.0097 60.0256,80.1763 57.5,80C 57.5294,77.0293 57.5294,74.196 57.5,71.5C 57.1667,70.8333 56.8333,70.1667 56.5,69.5C 56.5,69.1667 56.5,68.8333 56.5,68.5C 61.4309,66.318 64.7643,62.6514 66.5,57.5 Z"/></g>
<g><path style="opacity:1" fill="#956a07" d="M 32.5,63.5 C 33.5,65.1667 34.8333,66.5 36.5,67.5C 40.7695,70.0908 45.4361,71.0908 50.5,70.5C 48.7078,71.3091 46.7078,71.8091 44.5,72C 45.8333,72.3333 47.1667,72.6667 48.5,73C 47.6566,75.117 47.3232,77.4504 47.5,80C 48.5505,81.3848 49.8839,82.3848 51.5,83C 46.8333,83.6667 42.1667,83.6667 37.5,83C 33.3283,81.4121 29.3283,79.5788 25.5,77.5C 22.3913,74.8203 20.3913,71.8203 19.5,68.5C 19.6667,68.1667 19.8333,67.8333 20,67.5C 21.3712,69.0414 22.8712,70.3747 24.5,71.5C 24.3893,72.1174 24.056,72.6174 23.5,73C 27.2363,75.2863 31.0696,77.4529 35,79.5C 35.5,79.3333 36,79.1667 36.5,79C 35.1667,78 35.1667,77 36.5,76C 35.8333,75.6667 35.1667,75.3333 34.5,75C 35.4231,72.9592 35.7564,70.7925 35.5,68.5C 32.0922,68.5633 29.7589,70.23 28.5,73.5C 27.914,73.2907 27.414,72.9574 27,72.5C 27.5098,70.6199 27.3431,68.7866 26.5,67C 27.5,66.6667 28.5,66.3333 29.5,66C 29.1528,64.4313 28.9861,62.598 29,60.5C 29.4224,62.4257 30.5891,63.4257 32.5,63.5 Z"/></g>
<g><path style="opacity:1" fill="#b6910e" d="M 67.5,54.5 C 68.7724,57.0981 69.439,59.5981 69.5,62C 67.1889,64.2056 67.1889,66.039 69.5,67.5C 68.6971,68.4232 68.5304,69.4232 69,70.5C 70.4976,72.6138 72.3309,73.1138 74.5,72C 73.1667,73 73.1667,74 74.5,75C 71.2895,77.2993 69.6229,80.4659 69.5,84.5C 67.5,85.5 65.5,86.5 63.5,87.5C 63.5106,85.9826 64.1772,84.8159 65.5,84C 62.5844,81.4174 62.9177,79.5841 66.5,78.5C 68.9896,77.5205 68.9896,76.3538 66.5,75C 67.3731,72.0507 66.7064,69.3841 64.5,67C 66.7349,64.071 67.4016,60.9044 66.5,57.5C 66.2627,56.209 66.596,55.209 67.5,54.5 Z"/></g>
<g><path style="opacity:1" fill="#9e740e" d="M 56.5,69.5 C 56.8333,70.1667 57.1667,70.8333 57.5,71.5C 56.448,71.3505 55.448,71.5172 54.5,72C 55.202,75.4656 55.8687,78.9656 56.5,82.5C 55.9747,83.1924 55.3081,83.6924 54.5,84C 55.4158,84.2784 56.0825,84.7784 56.5,85.5C 46.198,87.1133 36.5314,85.28 27.5,80C 26.6195,79.2917 25.9528,78.4584 25.5,77.5C 29.3283,79.5788 33.3283,81.4121 37.5,83C 42.1667,83.6667 46.8333,83.6667 51.5,83C 49.8839,82.3848 48.5505,81.3848 47.5,80C 47.3232,77.4504 47.6566,75.117 48.5,73C 47.1667,72.6667 45.8333,72.3333 44.5,72C 46.7078,71.8091 48.7078,71.3091 50.5,70.5C 52.4352,69.8505 54.4352,69.5172 56.5,69.5 Z"/></g>
<g><path style="opacity:1" fill="#a77e0a" d="M 57.5,71.5 C 57.5294,74.196 57.5294,77.0293 57.5,80C 60.0256,80.1763 61.8589,79.0097 63,76.5C 63.3333,77.1667 63.6667,77.8333 64,78.5C 64.9772,77.2264 65.8106,77.2264 66.5,78.5C 62.9177,79.5841 62.5844,81.4174 65.5,84C 64.1772,84.8159 63.5106,85.9826 63.5,87.5C 61.8828,88.038 60.2161,88.3713 58.5,88.5C 54.3601,89.0443 53.6935,88.0443 56.5,85.5C 56.0825,84.7784 55.4158,84.2784 54.5,84C 55.3081,83.6924 55.9747,83.1924 56.5,82.5C 55.8687,78.9656 55.202,75.4656 54.5,72C 55.448,71.5172 56.448,71.3505 57.5,71.5 Z"/></g>
<g><path style="opacity:0.978" fill="#966b05" d="M 25.5,77.5 C 25.9528,78.4584 26.6195,79.2917 27.5,80C 36.5314,85.28 46.198,87.1133 56.5,85.5C 53.6935,88.0443 54.3601,89.0443 58.5,88.5C 46.5062,92.4012 35.5062,90.4012 25.5,82.5C 24.8466,81.1932 24.1799,79.8599 23.5,78.5C 23.9569,77.7025 24.6236,77.3691 25.5,77.5 Z"/></g>
</svg>
