<?xml version="1.0" encoding="UTF-8"?>
<!DOCTYPE svg PUBLIC "-//W3C//DTD SVG 1.1//EN" "http://www.w3.org/Graphics/SVG/1.1/DTD/svg11.dtd">
<svg xmlns="http://www.w3.org/2000/svg" version="1.1" width="96px" height="96px" style="shape-rendering:geometricPrecision; text-rendering:geometricPrecision; image-rendering:optimizeQuality; fill-rule:evenodd; clip-rule:evenodd" xmlns:xlink="http://www.w3.org/1999/xlink">
<g><path style="opacity:0.98" fill="#66e2fe" d="M 32.5,-0.5 C 33.8333,-0.5 35.1667,-0.5 36.5,-0.5C 36.5,0.166667 36.8333,0.5 37.5,0.5C 37.5569,1.60895 37.8902,2.60895 38.5,3.5C 37.9569,3.55999 37.6236,3.89333 37.5,4.5C 40.5319,9.03508 43.3653,13.7017 46,18.5C 46.8322,38.4889 47.3322,38.4889 47.5,18.5C 48.4896,24.31 48.8229,30.31 48.5,36.5C 48.046,39.1398 46.8793,41.4732 45,43.5C 39.8333,49.3333 34.6667,55.1667 29.5,61C 24.5,61.6667 19.5,61.6667 14.5,61C 13.6266,59.955 12.6266,59.1217 11.5,58.5C 10.884,51.8024 10.384,45.1358 10,38.5C 13.6667,33.8333 17.3333,29.1667 21,24.5C 22.998,18.5115 24.998,12.5115 27,6.5C 28.3162,3.6925 30.1495,1.35916 32.5,-0.5 Z"/></g>
<g><path style="opacity:0.965" fill="#20b2d3" d="M 37.5,0.5 C 43.1371,4.65744 48.8038,8.82411 54.5,13C 56.9186,17.172 59.5852,21.172 62.5,25C 66.4466,26.0853 69.9466,27.9186 73,30.5C 77.0758,40.3155 81.4092,49.9821 86,59.5C 83.3402,70.1462 79.8402,80.6462 75.5,91C 73.1136,92.1932 70.7802,93.3599 68.5,94.5C 70.6577,83.2188 72.1577,71.8855 73,60.5C 68.5,54 64,47.5 59.5,41C 55.8076,39.4847 52.141,37.9847 48.5,36.5C 48.8229,30.31 48.4896,24.31 47.5,18.5C 44.7516,13.3343 41.7516,8.33426 38.5,3.5C 37.8902,2.60895 37.5569,1.60895 37.5,0.5 Z"/></g>
<g><path style="opacity:1" fill="#6ee7fd" d="M 38.5,3.5 C 41.7516,8.33426 44.7516,13.3343 47.5,18.5C 47.3322,38.4889 46.8322,38.4889 46,18.5C 43.3653,13.7017 40.5319,9.03508 37.5,4.5C 37.6236,3.89333 37.9569,3.55999 38.5,3.5 Z"/></g>
<g><path style="opacity:0.986" fill="#3fdcfe" d="M 48.5,36.5 C 52.141,37.9847 55.8076,39.4847 59.5,41C 64,47.5 68.5,54 73,60.5C 72.1577,71.8855 70.6577,83.2188 68.5,94.5C 68.5,94.8333 68.5,95.1667 68.5,95.5C 51.8333,95.5 35.1667,95.5 18.5,95.5C 14.4865,87.6299 11.1532,79.4632 8.5,71C 9.42617,66.7961 10.4262,62.6294 11.5,58.5C 12.6266,59.1217 13.6266,59.955 14.5,61C 19.5,61.6667 24.5,61.6667 29.5,61C 34.6667,55.1667 39.8333,49.3333 45,43.5C 46.8793,41.4732 48.046,39.1398 48.5,36.5 Z"/></g>
</svg>
