<?xml version="1.0" encoding="UTF-8"?>
<!DOCTYPE svg PUBLIC "-//W3C//DTD SVG 1.1//EN" "http://www.w3.org/Graphics/SVG/1.1/DTD/svg11.dtd">
<svg xmlns="http://www.w3.org/2000/svg" version="1.1" width="96px" height="96px" style="shape-rendering:geometricPrecision; text-rendering:geometricPrecision; image-rendering:optimizeQuality; fill-rule:evenodd; clip-rule:evenodd" xmlns:xlink="http://www.w3.org/1999/xlink">
<g><path style="opacity:0.839" fill="#1f1c1d" d="M 37.5,-0.5 C 44.1667,-0.5 50.8333,-0.5 57.5,-0.5C 77.1667,5.16667 89.8333,17.8333 95.5,37.5C 95.5,44.1667 95.5,50.8333 95.5,57.5C 89.8333,77.1667 77.1667,89.8333 57.5,95.5C 50.8333,95.5 44.1667,95.5 37.5,95.5C 17.8333,89.8333 5.16667,77.1667 -0.5,57.5C -0.5,50.8333 -0.5,44.1667 -0.5,37.5C 5.16667,17.8333 17.8333,5.16667 37.5,-0.5 Z"/></g>
<g><path style="opacity:1" fill="#ececec" d="M 36.5,1.5 C 64.5287,-1.41326 83.3621,10.2534 93,36.5C 96.7974,59.7321 88.6308,77.2321 68.5,89C 38.0843,100.037 16.251,90.8708 3,61.5C -2.60714,31.979 8.55953,11.979 36.5,1.5 Z"/></g>
<g><path style="opacity:1" fill="#201e1d" d="M 37.5,5.5 C 63.3143,2.51496 80.481,13.1816 89,37.5C 91.9857,55.5487 86.4857,70.3821 72.5,82C 50.0316,94.7636 30.1983,91.5969 13,72.5C -2.2673,41.4608 5.89937,19.1274 37.5,5.5 Z"/></g>
<g><path style="opacity:1" fill="#1d1a1d" d="M 84.5,45.5 C 84.0831,46.1239 83.4164,46.4573 82.5,46.5C 80.3939,45.5705 78.3939,44.4038 76.5,43C 73.0528,41.8907 70.3862,42.8907 68.5,46C 69.9308,46.4652 71.0975,47.2986 72,48.5C 72.4974,51.146 72.6641,53.8127 72.5,56.5C 68.7121,56.0679 65.0454,55.0679 61.5,53.5C 60.5,53.8333 59.8333,54.5 59.5,55.5C 65.1876,57.0681 67.021,60.7348 65,66.5C 63.9505,67.5171 62.7839,67.6838 61.5,67C 59.7669,65.8111 58.1002,64.6444 56.5,63.5C 59.3297,63.6941 61.9963,64.3608 64.5,65.5C 64.6621,63.4727 64.4955,61.4727 64,59.5C 61.6024,58.1437 59.1024,56.9771 56.5,56C 60.2307,51.195 64.564,51.0284 69.5,55.5C 71.3626,50.9931 70.0293,47.9931 65.5,46.5C 67.8668,44.2962 70.3668,42.2962 73,40.5C 77.08,41.7946 80.9133,43.4612 84.5,45.5 Z"/></g>
<g><path style="opacity:1" fill="#8622ea" d="M 8.5,40.5 C 9.16667,42.1667 9.83333,43.8333 10.5,45.5C 13.5575,46.7374 16.2242,45.904 18.5,43C 20.1647,42.2115 21.8314,41.8782 23.5,42C 24.8333,43.3333 26.1667,44.6667 27.5,46C 26.5,46.5 25.5,47 24.5,47.5C 23.5159,50.4281 23.1826,53.4281 23.5,56.5C 27.1429,56.5219 30.4762,55.5219 33.5,53.5C 35.516,53.5159 36.516,54.5159 36.5,56.5C 34.0637,56.317 31.897,56.9837 30,58.5C 29.2228,61.4294 29.3895,64.2628 30.5,67C 33.0031,67.8736 35.0031,67.207 36.5,65C 39.5,64.1667 42.5,63.3333 45.5,62.5C 47.1225,55.8825 48.7891,55.8825 50.5,62.5C 52.396,63.4656 54.396,63.7989 56.5,63.5C 58.1002,64.6444 59.7669,65.8111 61.5,67C 62.7839,67.6838 63.9505,67.5171 65,66.5C 67.021,60.7348 65.1876,57.0681 59.5,55.5C 59.8333,54.5 60.5,53.8333 61.5,53.5C 65.0454,55.0679 68.7121,56.0679 72.5,56.5C 72.6641,53.8127 72.4974,51.146 72,48.5C 71.0975,47.2986 69.9308,46.4652 68.5,46C 70.3862,42.8907 73.0528,41.8907 76.5,43C 78.3939,44.4038 80.3939,45.5705 82.5,46.5C 83.4164,46.4573 84.0831,46.1239 84.5,45.5C 85.29,44.3915 85.79,43.0581 86,41.5C 87.8606,64.6203 77.694,79.4537 55.5,86C 31.5189,88.6752 16.0189,78.5085 9,55.5C 8.50074,50.5111 8.33407,45.5111 8.5,40.5 Z"/></g>
<g><path style="opacity:1" fill="#551a8e" d="M 10.5,35.5 C 10.5,35.8333 10.5,36.1667 10.5,36.5C 10.5,39.5 10.5,42.5 10.5,45.5C 9.83333,43.8333 9.16667,42.1667 8.5,40.5C 8.40206,38.4471 9.06873,36.7804 10.5,35.5 Z"/></g>
<g><path style="opacity:1" fill="#f2f2f1" d="M 84.5,45.5 C 80.9133,43.4612 77.08,41.7946 73,40.5C 70.3668,42.2962 67.8668,44.2962 65.5,46.5C 70.0293,47.9931 71.3626,50.9931 69.5,55.5C 64.564,51.0284 60.2307,51.195 56.5,56C 59.1024,56.9771 61.6024,58.1437 64,59.5C 64.4955,61.4727 64.6621,63.4727 64.5,65.5C 61.9963,64.3608 59.3297,63.6941 56.5,63.5C 51.964,62.6994 49.2973,59.866 48.5,55C 56.6873,46.4788 65.1873,38.3121 74,30.5C 76.1318,34.6282 79.4651,37.2949 84,38.5C 84.4966,40.8098 84.6633,43.1432 84.5,45.5 Z"/></g>
<g><path style="opacity:1" fill="#f5f5f5" d="M 36.5,56.5 C 37.552,56.6495 38.552,56.4828 39.5,56C 37.9458,54.108 36.1124,52.608 34,51.5C 30.6879,52.6865 27.5212,54.0198 24.5,55.5C 23.4178,50.8944 25.0845,47.8944 29.5,46.5C 27.3836,42.1742 24.0503,40.3409 19.5,41C 16.89,42.4814 14.2234,43.6481 11.5,44.5C 11.5,42.1667 11.5,39.8333 11.5,37.5C 15.9334,37.0723 18.9334,34.739 20.5,30.5C 21.0016,29.479 21.6683,29.3123 22.5,30C 30.3333,37.8333 38.1667,45.6667 46,53.5C 46.5056,56.6739 45.6722,59.5073 43.5,62C 39.4939,62.1116 35.8272,63.2783 32.5,65.5C 31.359,63.5787 31.1923,61.5787 32,59.5C 33.6516,58.6006 35.1516,57.6006 36.5,56.5 Z"/></g>
<g><path style="opacity:1" fill="#8722ea" d="M 10.5,36.5 C 10.5,36.1667 10.5,35.8333 10.5,35.5C 18.3473,14.8982 33.3473,6.0649 55.5,9C 69.7052,12.3737 79.3719,20.8737 84.5,34.5C 84.3333,35.1667 84.1667,35.8333 84,36.5C 82.9326,35.8095 81.7659,35.3095 80.5,35C 78.6055,33.2246 76.9389,31.2246 75.5,29C 74.5,28.3333 73.5,28.3333 72.5,29C 64.6246,37.2103 56.4579,45.0436 48,52.5C 39.5421,45.0436 31.3754,37.2103 23.5,29C 22.1667,28.3333 20.8333,28.3333 19.5,29C 18.1302,33.5424 15.1302,36.0424 10.5,36.5 Z"/></g>
</svg>
