<?xml version="1.0" encoding="UTF-8"?>
<!DOCTYPE svg PUBLIC "-//W3C//DTD SVG 1.1//EN" "http://www.w3.org/Graphics/SVG/1.1/DTD/svg11.dtd">
<svg xmlns="http://www.w3.org/2000/svg" version="1.1" width="96px" height="96px" style="shape-rendering:geometricPrecision; text-rendering:geometricPrecision; image-rendering:optimizeQuality; fill-rule:evenodd; clip-rule:evenodd" xmlns:xlink="http://www.w3.org/1999/xlink">
<g><path style="opacity:0.961" fill="#f8df49" d="M 37.5,-0.5 C 44.1667,-0.5 50.8333,-0.5 57.5,-0.5C 77.5996,5.26618 90.2663,18.2662 95.5,38.5C 95.5,44.5 95.5,50.5 95.5,56.5C 90.1667,77.1667 77.1667,90.1667 56.5,95.5C 50.5,95.5 44.5,95.5 38.5,95.5C 18.2749,90.2752 5.27486,77.6085 -0.5,57.5C -0.5,50.5 -0.5,43.5 -0.5,36.5C 5.60508,17.3945 18.2717,5.0612 37.5,-0.5 Z"/></g>
<g><path style="opacity:1" fill="#150b04" d="M 78.5,52.5 C 78.5,60.5 78.5,68.5 78.5,76.5C 57.8333,76.5 37.1667,76.5 16.5,76.5C 15.9489,65.0465 16.7822,53.7132 19,42.5C 21.5844,36.9233 25.251,32.2566 30,28.5C 28.3641,20.7815 31.5308,16.2815 39.5,15C 44.8333,9 50.1667,9 55.5,15C 63.8089,15.4712 66.8089,19.6379 64.5,27.5C 72.6049,33.9311 77.2716,42.2644 78.5,52.5 Z"/></g>
<g><path style="opacity:1" fill="#e9d747" d="M 39.5,41.5 C 50.7173,41.3765 61.7173,42.8765 72.5,46C 73.3366,47.0113 73.67,48.1779 73.5,49.5C 56.6206,45.5934 39.7873,45.5934 23,49.5C 22.1349,47.1122 22.9683,45.6122 25.5,45C 30.2954,43.8011 34.9621,42.6345 39.5,41.5 Z"/></g>
<g><path style="opacity:1" fill="#f3de49" d="M 40.5,27.5 C 52.686,25.6669 62.3527,29.6669 69.5,39.5C 69.1667,39.8333 68.8333,40.1667 68.5,40.5C 54.4858,36.616 40.4858,36.616 26.5,40.5C 25.479,39.9984 25.3123,39.3317 26,38.5C 29.9507,33.4657 34.7841,29.799 40.5,27.5 Z"/></g>
<g><path style="opacity:1" fill="#f1df4a" d="M 45.5,15.5 C 49.5023,17.4788 53.8357,18.9788 58.5,20C 60.607,21.2635 61.607,23.0968 61.5,25.5C 52.6314,21.6454 43.7981,21.6454 35,25.5C 34.3675,20.7976 36.5341,18.6309 41.5,19C 43.3237,18.34 44.657,17.1733 45.5,15.5 Z"/></g>
<g><path style="opacity:1" fill="#f6dd49" d="M 74.5,62.5 C 57.1667,62.5 39.8333,62.5 22.5,62.5C 22.5,60.1667 22.5,57.8333 22.5,55.5C 26.5,55.1667 26.5,54.8333 22.5,54.5C 25.2578,53.2395 28.2578,52.4061 31.5,52C 42.1667,51.3333 52.8333,51.3333 63.5,52C 66.8591,52.7713 70.1925,53.6047 73.5,54.5C 74.48,57.0865 74.8134,59.7531 74.5,62.5 Z"/></g>
<g><path style="opacity:1" fill="#fffa53" d="M 21.5,54.5 C 21.8333,54.5 22.1667,54.5 22.5,54.5C 26.5,54.8333 26.5,55.1667 22.5,55.5C 22.5,57.8333 22.5,60.1667 22.5,62.5C 39.8333,62.5 57.1667,62.5 74.5,62.5C 74.5,62.8333 74.5,63.1667 74.5,63.5C 56.8333,63.5 39.1667,63.5 21.5,63.5C 21.5,60.5 21.5,57.5 21.5,54.5 Z"/></g>
<g><path style="opacity:1" fill="#897927" d="M 21.5,54.5 C 21.5,57.5 21.5,60.5 21.5,63.5C 39.1667,63.5 56.8333,63.5 74.5,63.5C 56.6744,64.4968 38.6744,64.8301 20.5,64.5C 20.1872,60.9581 20.5206,57.6248 21.5,54.5 Z"/></g>
<g><path style="opacity:1" fill="#dcc340" d="M 73.5,73.5 C 73.5,72.1667 73.5,70.8333 73.5,69.5C 56.1667,69.5 38.8333,69.5 21.5,69.5C 21.5,70.8333 21.5,72.1667 21.5,73.5C 20.5489,72.0813 20.2155,70.4147 20.5,68.5C 38.5,68.5 56.5,68.5 74.5,68.5C 74.7845,70.4147 74.4511,72.0813 73.5,73.5 Z"/></g>
<g><path style="opacity:1" fill="#feeb4d" d="M 73.5,73.5 C 56.1667,73.5 38.8333,73.5 21.5,73.5C 21.5,72.1667 21.5,70.8333 21.5,69.5C 38.8333,69.5 56.1667,69.5 73.5,69.5C 73.5,70.8333 73.5,72.1667 73.5,73.5 Z"/></g>
<g><path style="opacity:1" fill="#887b28" d="M 78.5,52.5 C 79.4927,60.6499 79.8261,68.9832 79.5,77.5C 58.3267,77.8306 37.3267,77.4973 16.5,76.5C 37.1667,76.5 57.8333,76.5 78.5,76.5C 78.5,68.5 78.5,60.5 78.5,52.5 Z"/></g>
</svg>
