<?xml version="1.0" encoding="UTF-8"?>
<!DOCTYPE svg PUBLIC "-//W3C//DTD SVG 1.1//EN" "http://www.w3.org/Graphics/SVG/1.1/DTD/svg11.dtd">
<svg xmlns="http://www.w3.org/2000/svg" version="1.1" width="96px" height="96px" style="shape-rendering:geometricPrecision; text-rendering:geometricPrecision; image-rendering:optimizeQuality; fill-rule:evenodd; clip-rule:evenodd" xmlns:xlink="http://www.w3.org/1999/xlink">
<g><path style="opacity:0.996" fill="#0e329a" d="M 37.5,-0.5 C 44.1667,-0.5 50.8333,-0.5 57.5,-0.5C 77.1667,5.16667 89.8333,17.8333 95.5,37.5C 95.5,44.1667 95.5,50.8333 95.5,57.5C 93.3651,65.5536 89.6984,72.887 84.5,79.5C 76.8081,87.1741 67.8081,92.5074 57.5,95.5C 50.8333,95.5 44.1667,95.5 37.5,95.5C 17.8333,89.8333 5.16667,77.1667 -0.5,57.5C -0.5,50.8333 -0.5,44.1667 -0.5,37.5C 5.16667,17.8333 17.8333,5.16667 37.5,-0.5 Z"/></g>
<g><path style="opacity:1" fill="#e9c42e" d="M 46.5,5.5 C 48.0481,5.82124 48.7148,6.82124 48.5,8.5C 49.8734,8.34332 51.2068,8.50999 52.5,9C 51.4258,9.73869 50.7591,10.7387 50.5,12C 51.674,15.9729 50.674,16.4729 47.5,13.5C 44.326,16.4729 43.326,15.9729 44.5,12C 44.2409,10.7387 43.5742,9.73869 42.5,9C 43.7932,8.50999 45.1266,8.34332 46.5,8.5C 46.5,7.5 46.5,6.5 46.5,5.5 Z"/></g>
<g><path style="opacity:1" fill="#e9c42d" d="M 27.5,10.5 C 29.2064,12.6597 31.5398,13.8264 34.5,14C 33.2718,14.779 32.2718,15.779 31.5,17C 32.9896,21.0877 31.9896,21.5877 28.5,18.5C 24.5281,21.3573 23.8614,20.8573 26.5,17C 22.2443,14.2771 22.5776,13.1104 27.5,13.5C 27.5,12.5 27.5,11.5 27.5,10.5 Z"/></g>
<g><path style="opacity:1" fill="#ebc52a" d="M 65.5,10.5 C 66.9801,12.4119 68.9801,13.5785 71.5,14C 70.5,15 69.5,16 68.5,17C 69.9822,20.7569 69.3155,21.2569 66.5,18.5C 63.326,21.4729 62.326,20.9729 63.5,17C 62.7282,15.779 61.7282,14.779 60.5,14C 61.8333,13.6667 63.1667,13.3333 64.5,13C 65.2524,12.3292 65.5858,11.4959 65.5,10.5 Z"/></g>
<g><path style="opacity:1" fill="#edc729" d="M 14.5,23.5 C 15.495,26.1807 17.495,27.6807 20.5,28C 19.09,28.3678 18.09,29.2011 17.5,30.5C 18.4279,31.7678 18.5946,33.1011 18,34.5C 16,31.8333 14,31.8333 12,34.5C 11.4054,33.1011 11.5721,31.7678 12.5,30.5C 11.91,29.2011 10.91,28.3678 9.5,28C 12.4912,27.8552 14.1578,26.3552 14.5,23.5 Z"/></g>
<g><path style="opacity:1" fill="#facd11" d="M 41.5,29.5 C 50.5584,27.5695 57.7251,30.2362 63,37.5C 64.128,39.3453 64.628,41.3453 64.5,43.5C 67.1873,43.3359 69.854,43.5026 72.5,44C 71.7402,45.4411 71.0736,46.9411 70.5,48.5C 59.8541,49.4987 49.1874,49.832 38.5,49.5C 39.7492,56.803 44.0826,59.6363 51.5,58C 53.9087,57.2521 56.0754,56.0855 58,54.5C 64.533,56.3778 65.033,59.2112 59.5,63C 51.6077,66.6016 43.941,66.2683 36.5,62C 32.4765,58.7868 30.4765,54.6201 30.5,49.5C 27.8333,49.5 25.1667,49.5 22.5,49.5C 22.5,47.5 22.5,45.5 22.5,43.5C 25.1667,43.5 27.8333,43.5 30.5,43.5C 31.9404,37.0622 35.607,32.3956 41.5,29.5 Z"/></g>
<g><path style="opacity:1" fill="#edc828" d="M 79.5,23.5 C 80.495,26.1807 82.495,27.6807 85.5,28C 84.5,28.8333 83.5,29.6667 82.5,30.5C 83.7486,33.4131 82.9153,34.0797 80,32.5C 78.7387,32.7591 77.7387,33.4258 77,34.5C 76.4054,33.1011 76.5721,31.7678 77.5,30.5C 77.0233,29.5224 76.3567,28.6891 75.5,28C 78.0724,27.5685 79.4057,26.0685 79.5,23.5 Z"/></g>
<g><path style="opacity:1" fill="#1e309c" d="M 55.5,41.5 C 50.0247,42.4889 44.358,42.8222 38.5,42.5C 41.2818,35.9443 45.9484,34.1109 52.5,37C 54.1412,38.129 55.1412,39.629 55.5,41.5 Z"/></g>
<g><path style="opacity:1" fill="#555781" d="M 55.5,41.5 C 56.0431,41.56 56.3764,41.8933 56.5,42.5C 50.3456,43.8166 44.3456,43.8166 38.5,42.5C 44.358,42.8222 50.0247,42.4889 55.5,41.5 Z"/></g>
<g><path style="opacity:1" fill="#edca27" d="M 9.5,42.5 C 10.4013,44.7572 12.068,46.2572 14.5,47C 13.6433,47.6891 12.9767,48.5224 12.5,49.5C 13.4777,52.9963 12.6444,53.3296 10,50.5C 7.35559,53.3296 6.52226,52.9963 7.5,49.5C 6.73659,48.2807 5.73659,47.2807 4.5,46.5C 6.82631,45.8553 8.49298,44.522 9.5,42.5 Z"/></g>
<g><path style="opacity:1" fill="#e8c72e" d="M 84.5,42.5 C 85.7993,44.692 87.7993,46.0254 90.5,46.5C 89.7579,47.2868 88.9246,47.9535 88,48.5C 88.2626,49.9506 88.0959,51.2839 87.5,52.5C 86.5224,52.0233 85.6891,51.3567 85,50.5C 82.3556,53.3296 81.5223,52.9963 82.5,49.5C 82.0233,48.5224 81.3567,47.6891 80.5,47C 83.0724,46.5685 84.4057,45.0685 84.5,42.5 Z"/></g>
<g><path style="opacity:1" fill="#edc929" d="M 14.5,61.5 C 15.6901,63.8262 17.6901,64.9928 20.5,65C 17.763,66.6115 16.9297,68.7782 18,71.5C 16,68.8333 14,68.8333 12,71.5C 13.0703,68.7782 12.237,66.6115 9.5,65C 10.8333,64.6667 12.1667,64.3333 13.5,64C 14.2524,63.3292 14.5858,62.4959 14.5,61.5 Z"/></g>
<g><path style="opacity:1" fill="#e9c62d" d="M 79.5,61.5 C 80.9801,63.4119 82.9801,64.5785 85.5,65C 82.763,66.6115 81.9297,68.7782 83,71.5C 81.2252,68.9557 79.3918,68.9557 77.5,71.5C 76.4104,70.6086 76.4104,69.6086 77.5,68.5C 76.6872,67.1861 75.6872,66.0195 74.5,65C 75.8333,64.6667 77.1667,64.3333 78.5,64C 79.2524,63.3292 79.5858,62.4959 79.5,61.5 Z"/></g>
<g><path style="opacity:1" fill="#e8c42e" d="M 27.5,75.5 C 29.2064,77.6597 31.5398,78.8264 34.5,79C 33.2718,79.779 32.2718,80.779 31.5,82C 32.9896,86.0877 31.9896,86.5877 28.5,83.5C 24.5281,86.3573 23.8614,85.8573 26.5,82C 22.2443,79.2771 22.5776,78.1104 27.5,78.5C 27.5,77.5 27.5,76.5 27.5,75.5 Z"/></g>
<g><path style="opacity:1" fill="#edc828" d="M 65.5,75.5 C 66.9801,77.4119 68.9801,78.5785 71.5,79C 70.5,80 69.5,81 68.5,82C 69.9822,85.7569 69.3155,86.2569 66.5,83.5C 63.326,86.4729 62.326,85.9729 63.5,82C 62.7282,80.779 61.7282,79.779 60.5,79C 61.8333,78.6667 63.1667,78.3333 64.5,78C 65.2524,77.3292 65.5858,76.4959 65.5,75.5 Z"/></g>
<g><path style="opacity:0.004" fill="#0033b2" d="M 84.5,79.5 C 85.8333,80.1667 85.8333,80.1667 84.5,79.5 Z"/></g>
<g><path style="opacity:1" fill="#ebc627" d="M 46.5,80.5 C 48.0481,80.8212 48.7148,81.8212 48.5,83.5C 49.9778,83.238 51.3112,83.5713 52.5,84.5C 51.2485,86.0009 50.2485,87.6675 49.5,89.5C 47.6017,88.2655 45.935,88.5989 44.5,90.5C 43.548,89.467 43.548,88.3004 44.5,87C 44.2409,85.7387 43.5742,84.7387 42.5,84C 43.7932,83.51 45.1266,83.3433 46.5,83.5C 46.5,82.5 46.5,81.5 46.5,80.5 Z"/></g>
</svg>
