<?xml version="1.0" encoding="UTF-8"?>
<!DOCTYPE svg PUBLIC "-//W3C//DTD SVG 1.1//EN" "http://www.w3.org/Graphics/SVG/1.1/DTD/svg11.dtd">
<svg xmlns="http://www.w3.org/2000/svg" version="1.1" width="96px" height="96px" style="shape-rendering:geometricPrecision; text-rendering:geometricPrecision; image-rendering:optimizeQuality; fill-rule:evenodd; clip-rule:evenodd" xmlns:xlink="http://www.w3.org/1999/xlink">
<g><path style="opacity:1" fill="#cccccc" d="M 12.5,18.5 C 3.78099,32.7689 2.28099,47.7689 8,63.5C 9.37121,65.0414 10.8712,66.3747 12.5,67.5C 12.1393,69.6048 13.1393,71.4382 15.5,73C 18.47,74.1532 21.1367,75.8199 23.5,78C 24.7589,78.9819 26.0922,79.3152 27.5,79C 26.4178,77.6703 25.7512,76.1703 25.5,74.5C 28.7443,75.6489 31.911,76.9822 35,78.5C 35.3988,78.2716 35.5654,77.9382 35.5,77.5C 35.8333,77.5 36.1667,77.5 36.5,77.5C 36.5569,78.609 36.8902,79.609 37.5,80.5C 33.8398,81.1926 30.1731,82.026 26.5,83C 33.4886,88.0088 40.9886,89.8421 49,88.5C 50.4397,89.1476 51.9397,89.4809 53.5,89.5C 53.5,89.8333 53.5,90.1667 53.5,90.5C 38.6509,93.0508 25.8175,89.0508 15,78.5C 14.5357,79.0944 14.369,79.7611 14.5,80.5C 13.5,80.1667 12.8333,79.5 12.5,78.5C 13.0431,78.44 13.3764,78.1067 13.5,77.5C -0.0135617,60.6978 -1.84689,42.6978 8,23.5C 9.04914,21.3825 10.5491,19.7158 12.5,18.5 Z"/></g>
<g><path style="opacity:1" fill="#959595" d="M 40.5,-0.5 C 45.1667,-0.5 49.8333,-0.5 54.5,-0.5C 69.4608,3.06317 80.9608,11.3965 89,24.5C 91.2938,29.9044 93.4605,35.2377 95.5,40.5C 95.5,44.8333 95.5,49.1667 95.5,53.5C 89.5874,75.5707 75.2541,89.0707 52.5,94C 46.4676,94.1155 40.4676,93.6155 34.5,92.5C 29.5896,90.3844 24.5896,88.2178 19.5,86C 17.6266,84.2962 15.9599,82.4628 14.5,80.5C 14.369,79.7611 14.5357,79.0944 15,78.5C 25.8175,89.0508 38.6509,93.0508 53.5,90.5C 54.2506,91.5735 55.2506,91.7401 56.5,91C 59.3388,89.0797 62.3388,87.4131 65.5,86C 66.7014,85.0975 67.5348,83.9308 68,82.5C 68.3345,85.1899 69.5012,85.8565 71.5,84.5C 77.126,81.5024 81.7927,77.3358 85.5,72C 84.2625,71.7679 83.2625,71.2679 82.5,70.5C 83.791,70.7373 84.791,70.404 85.5,69.5C 97.1062,48.3177 94.1062,29.151 76.5,12C 75.9056,11.5357 75.2389,11.369 74.5,11.5C 72.2874,9.13966 69.6207,7.30632 66.5,6C 52.7914,-0.0484258 39.4581,0.451574 26.5,7.5C 20.6804,9.64777 16.0138,13.3144 12.5,18.5C 10.5491,19.7158 9.04914,21.3825 8,23.5C -1.84689,42.6978 -0.0135617,60.6978 13.5,77.5C 13.3764,78.1067 13.0431,78.44 12.5,78.5C 6.29894,71.0966 1.96561,62.7633 -0.5,53.5C -0.5,49.5 -0.5,45.5 -0.5,41.5C 2.27755,26.7883 9.94422,15.2883 22.5,7C 28.49,4.17875 34.49,1.67875 40.5,-0.5 Z"/></g>
<g><path style="opacity:1" fill="#ececec" d="M 37.5,80.5 C 38.6828,81.5045 40.0161,82.3378 41.5,83C 40.2092,85.0902 40.8758,86.4236 43.5,87C 47.1667,87.6667 50.8333,87.6667 54.5,87C 56.0154,84.8945 56.5154,85.0612 56,87.5C 55.2917,88.3805 54.4584,89.0472 53.5,89.5C 51.9397,89.4809 50.4397,89.1476 49,88.5C 40.9886,89.8421 33.4886,88.0088 26.5,83C 30.1731,82.026 33.8398,81.1926 37.5,80.5 Z"/></g>
<g><path style="opacity:1" fill="#cbcbcb" d="M 82.5,70.5 C 83.2625,71.2679 84.2625,71.7679 85.5,72C 81.7927,77.3358 77.126,81.5024 71.5,84.5C 75.0488,79.888 78.0488,74.888 80.5,69.5C 81.1835,69.8627 81.8501,70.1961 82.5,70.5 Z"/></g>
<g><path style="opacity:1" fill="#303030" d="M 44.5,61.5 C 45.7003,64.7023 45.7003,67.8689 44.5,71C 41.3333,71.8333 40.1667,70.6667 41,67.5C 42.6665,68.3402 42.8331,67.8402 41.5,66C 40.4232,65.5304 39.4232,65.6971 38.5,66.5C 39.2039,64.6558 40.5372,64.1558 42.5,65C 43.2266,66.3988 43.7266,67.8988 44,69.5C 45.2026,66.0869 44.2026,63.7536 41,62.5C 36.8234,63.6615 34.9901,66.4948 35.5,71C 35.6527,73.2159 35.9861,75.3825 36.5,77.5C 36.1667,77.5 35.8333,77.5 35.5,77.5C 32.2419,71.2142 33.2419,65.7142 38.5,61C 40.5454,60.5099 42.5454,60.6765 44.5,61.5 Z"/></g>
<g><path style="opacity:1" fill="#2a2827" d="M 77.5,26.5 C 78.5862,26.62 79.2528,27.2867 79.5,28.5C 78.758,30.9798 77.758,33.3131 76.5,35.5C 76.8333,36.1667 77.1667,36.8333 77.5,37.5C 90.0146,38.3813 90.6812,41.7146 79.5,47.5C 80.1925,48.5178 80.8592,49.5178 81.5,50.5C 82.1408,51.4822 82.8075,52.4822 83.5,53.5C 82.6086,54.5896 81.6086,54.5896 80.5,53.5C 79.6586,56.1792 80.3252,58.5125 82.5,60.5C 82.5,61.1667 82.8333,61.5 83.5,61.5C 83.6107,62.1174 83.944,62.6174 84.5,63C 83.1667,63.3333 81.8333,63.6667 80.5,64C 81.8334,66.1906 83.5,68.024 85.5,69.5C 84.791,70.404 83.791,70.7373 82.5,70.5C 81.8501,70.1961 81.1835,69.8627 80.5,69.5C 78.0488,74.888 75.0488,79.888 71.5,84.5C 69.5012,85.8565 68.3345,85.1899 68,82.5C 67.5348,83.9308 66.7014,85.0975 65.5,86C 62.3388,87.4131 59.3388,89.0797 56.5,91C 55.2506,91.7401 54.2506,91.5735 53.5,90.5C 53.5,90.1667 53.5,89.8333 53.5,89.5C 54.4584,89.0472 55.2917,88.3805 56,87.5C 56.5154,85.0612 56.0154,84.8945 54.5,87C 50.8333,87.6667 47.1667,87.6667 43.5,87C 40.8758,86.4236 40.2092,85.0902 41.5,83C 40.0161,82.3378 38.6828,81.5045 37.5,80.5C 36.8902,79.609 36.5569,78.609 36.5,77.5C 38.1857,79.0165 40.019,80.3498 42,81.5C 43.7659,80.7665 45.5992,80.4332 47.5,80.5C 47.7804,83.3882 46.4471,84.8882 43.5,85C 48.3598,85.9679 53.0265,85.4679 57.5,83.5C 58.2421,85.1082 58.4087,86.7749 58,88.5C 62.587,86.9631 66.087,84.1297 68.5,80C 68.8333,79.8333 69.1667,79.6667 69.5,79.5C 70.2508,80.376 70.7508,81.376 71,82.5C 74.5291,78.4367 77.0291,73.7701 78.5,68.5C 79.6034,68.0024 80.6034,67.6691 81.5,67.5C 80.1117,65.891 79.1117,64.0577 78.5,62C 78.9054,61.0546 79.572,60.3879 80.5,60C 78.4268,57.1208 77.5934,53.9542 78,50.5C 78.7175,51.4506 79.5509,51.6172 80.5,51C 78.5854,48.6004 76.9188,46.1004 75.5,43.5C 74.3276,39.9073 72.161,36.9073 69,34.5C 68.7679,35.7375 68.2679,36.7375 67.5,37.5C 65.5058,33.6304 62.5058,32.6304 58.5,34.5C 57.3336,32.8327 57.3336,31.166 58.5,29.5C 59.212,28.2613 60.212,27.7613 61.5,28C 60.7433,29.5122 59.7433,30.8455 58.5,32C 58.8333,32.1667 59.1667,32.3333 59.5,32.5C 61.3707,31.233 63.2041,31.233 65,32.5C 65.0885,30.8866 64.2552,29.7199 62.5,29C 64.265,28.3603 65.9317,28.5269 67.5,29.5C 68.3981,31.9052 69.8981,33.9052 72,35.5C 72.4643,34.9056 72.631,34.2389 72.5,33.5C 73.3149,34.4293 74.1482,35.4293 75,36.5C 75.4709,33.5291 76.6375,30.8624 78.5,28.5C 78.1373,27.8165 77.8039,27.1499 77.5,26.5 Z"/></g>
<g><path style="opacity:1" fill="#bdbdbd" d="M 46.5,57.5 C 47.675,57.281 48.675,57.6143 49.5,58.5C 48.2889,59.7202 48.2889,60.8869 49.5,62C 51.1966,62.3845 52.8632,62.2178 54.5,61.5C 54.5,61.8333 54.5,62.1667 54.5,62.5C 55.5676,63.4345 56.901,63.7678 58.5,63.5C 58.5,64.5 58.5,65.5 58.5,66.5C 53.4546,65.8952 51.1213,67.8952 51.5,72.5C 49.5095,73.4269 47.5095,73.5936 45.5,73C 46.5,74 47.5,75 48.5,76C 45.5624,76.7121 42.8957,76.2121 40.5,74.5C 39.2504,71.994 38.5838,69.3274 38.5,66.5C 39.4232,65.6971 40.4232,65.5304 41.5,66C 42.8331,67.8402 42.6665,68.3402 41,67.5C 40.1667,70.6667 41.3333,71.8333 44.5,71C 45.7003,67.8689 45.7003,64.7023 44.5,61.5C 45.675,61.719 46.675,61.3857 47.5,60.5C 45.9223,59.7022 44.2556,59.2022 42.5,59C 44.0581,58.79 45.3915,58.29 46.5,57.5 Z"/></g>
<g><path style="opacity:1" fill="#e7d2b0" d="M 71.5,64.5 C 70.6618,64.8417 70.3284,65.5084 70.5,66.5C 65.8161,71.1189 60.3161,72.7855 54,71.5C 53.3333,70.5 53.3333,69.5 54,68.5C 54.7083,69.3805 55.5416,70.0472 56.5,70.5C 61.8519,71.3284 65.5185,69.3284 67.5,64.5C 68.3382,64.1583 68.6716,63.4916 68.5,62.5C 69.7263,58.633 69.7263,54.633 68.5,50.5C 70.0447,46.7776 71.5447,46.7776 73,50.5C 73.6508,55.2935 73.1508,59.9601 71.5,64.5 Z"/></g>
<g><path style="opacity:1" fill="#b2b2b2" d="M 25.5,74.5 C 25.7512,76.1703 26.4178,77.6703 27.5,79C 26.0922,79.3152 24.7589,78.9819 23.5,78C 21.1367,75.8199 18.47,74.1532 15.5,73C 13.1393,71.4382 12.1393,69.6048 12.5,67.5C 12.5858,66.5041 12.2524,65.6708 11.5,65C 14.0168,64.7434 16.3502,65.4101 18.5,67C 20.3612,70.025 22.6945,72.525 25.5,74.5 Z"/></g>
<g><path style="opacity:1" fill="#bd275c" d="M 68.5,62.5 C 68.6716,63.4916 68.3382,64.1583 67.5,64.5C 66.5028,64.5299 65.8361,64.0299 65.5,63C 66.2913,61.899 66.2913,61.0656 65.5,60.5C 64.3049,62.297 62.6382,63.297 60.5,63.5C 60.5291,60.3443 62.1957,58.6777 65.5,58.5C 67.2882,59.2826 68.2882,60.6159 68.5,62.5 Z"/></g>
<g><path style="opacity:1" fill="#bf8e0e" d="M 57.5,60.5 C 57.1788,62.0481 56.1788,62.7148 54.5,62.5C 54.5,62.1667 54.5,61.8333 54.5,61.5C 55.209,60.596 56.209,60.2627 57.5,60.5 Z"/></g>
<g><path style="opacity:1" fill="#1c1616" d="M 67.5,48.5 C 67.3284,49.4916 67.6618,50.1583 68.5,50.5C 69.7263,54.633 69.7263,58.633 68.5,62.5C 68.2882,60.6159 67.2882,59.2826 65.5,58.5C 62.1957,58.6777 60.5291,60.3443 60.5,63.5C 62.6382,63.297 64.3049,62.297 65.5,60.5C 66.2913,61.0656 66.2913,61.899 65.5,63C 65.8361,64.0299 66.5028,64.5299 67.5,64.5C 65.5185,69.3284 61.8519,71.3284 56.5,70.5C 57.8062,69.5326 58.4729,68.1993 58.5,66.5C 58.5,65.5 58.5,64.5 58.5,63.5C 56.901,63.7678 55.5676,63.4345 54.5,62.5C 56.1788,62.7148 57.1788,62.0481 57.5,60.5C 57.5,60.1667 57.5,59.8333 57.5,59.5C 61.1233,57.8768 63.79,55.2101 65.5,51.5C 63.0762,49.2864 63.7429,48.2864 67.5,48.5 Z"/></g>
<g><path style="opacity:1" fill="#afafaf" d="M 82.5,60.5 C 80.3252,58.5125 79.6586,56.1792 80.5,53.5C 81.6086,54.5896 82.6086,54.5896 83.5,53.5C 82.8075,52.4822 82.1408,51.4822 81.5,50.5C 82.8149,49.5244 84.1482,48.5244 85.5,47.5C 86.5562,52.2773 85.5562,56.6106 82.5,60.5 Z"/></g>
<g><path style="opacity:1" fill="#654f47" d="M 57.5,49.5 C 61.0714,49.4077 62.2381,51.0743 61,54.5C 58.0304,56.4013 54.8637,57.9013 51.5,59C 53.4727,59.4955 55.4727,59.6621 57.5,59.5C 57.5,59.8333 57.5,60.1667 57.5,60.5C 56.209,60.2627 55.209,60.596 54.5,61.5C 52.8632,62.2178 51.1966,62.3845 49.5,62C 48.2889,60.8869 48.2889,59.7202 49.5,58.5C 48.675,57.6143 47.675,57.281 46.5,57.5C 45.8333,57.5 45.5,57.1667 45.5,56.5C 50.0408,56.9478 54.3741,56.2811 58.5,54.5C 59.6838,52.533 59.3505,50.8664 57.5,49.5 Z"/></g>
<g><path style="opacity:1" fill="#e7e7e7" d="M 26.5,7.5 C 23.5894,10.9084 20.4228,14.2417 17,17.5C 13.9323,23.2989 10.599,28.9656 7,34.5C 6.50649,36.1341 6.33982,37.8008 6.5,39.5C 5.2601,44.8117 5.42677,50.145 7,55.5C 8.01948,56.6872 9.18614,57.6872 10.5,58.5C 12.1727,56.9137 14.1727,56.2471 16.5,56.5C 16.8956,53.5178 16.2289,50.8511 14.5,48.5C 13.8333,48.8333 13.1667,49.1667 12.5,49.5C 11.6858,47.2338 11.1858,44.9005 11,42.5C 10.6232,41.0577 9.78991,40.0577 8.5,39.5C 8.38366,34.6152 10.717,32.6152 15.5,33.5C 17.4302,37.1002 20.0969,40.1002 23.5,42.5C 20.635,45.9889 21.3017,48.8222 25.5,51C 29.5,53 33.5,53 37.5,51C 38.3416,48.0329 39.3416,47.8662 40.5,50.5C 40.4145,53.9578 42.0812,55.9578 45.5,56.5C 45.5,57.1667 45.8333,57.5 46.5,57.5C 45.3915,58.29 44.0581,58.79 42.5,59C 44.2556,59.2022 45.9223,59.7022 47.5,60.5C 46.675,61.3857 45.675,61.719 44.5,61.5C 42.5454,60.6765 40.5454,60.5099 38.5,61C 33.2419,65.7142 32.2419,71.2142 35.5,77.5C 35.5654,77.9382 35.3988,78.2716 35,78.5C 31.911,76.9822 28.7443,75.6489 25.5,74.5C 22.6945,72.525 20.3612,70.025 18.5,67C 16.3502,65.4101 14.0168,64.7434 11.5,65C 12.2524,65.6708 12.5858,66.5041 12.5,67.5C 10.8712,66.3747 9.37121,65.0414 8,63.5C 2.28099,47.7689 3.78099,32.7689 12.5,18.5C 16.0138,13.3144 20.6804,9.64777 26.5,7.5 Z"/></g>
<g><path style="opacity:1" fill="#7e7e7e" d="M 75.5,43.5 C 76.9188,46.1004 78.5854,48.6004 80.5,51C 79.5509,51.6172 78.7175,51.4506 78,50.5C 77.5934,53.9542 78.4268,57.1208 80.5,60C 79.572,60.3879 78.9054,61.0546 78.5,62C 79.1117,64.0577 80.1117,65.891 81.5,67.5C 80.6034,67.6691 79.6034,68.0024 78.5,68.5C 77.0291,73.7701 74.5291,78.4367 71,82.5C 70.7508,81.376 70.2508,80.376 69.5,79.5C 69.1667,79.6667 68.8333,79.8333 68.5,80C 66.087,84.1297 62.587,86.9631 58,88.5C 58.4087,86.7749 58.2421,85.1082 57.5,83.5C 53.0265,85.4679 48.3598,85.9679 43.5,85C 46.4471,84.8882 47.7804,83.3882 47.5,80.5C 45.5992,80.4332 43.7659,80.7665 42,81.5C 40.019,80.3498 38.1857,79.0165 36.5,77.5C 35.9861,75.3825 35.6527,73.2159 35.5,71C 34.9901,66.4948 36.8234,63.6615 41,62.5C 44.2026,63.7536 45.2026,66.0869 44,69.5C 43.7266,67.8988 43.2266,66.3988 42.5,65C 40.5372,64.1558 39.2039,64.6558 38.5,66.5C 36.9932,69.6182 37.6599,72.2849 40.5,74.5C 41.8064,77.6259 44.1397,78.7925 47.5,78C 52.5412,74.4274 58.2079,72.4274 64.5,72C 67.3616,71.0695 69.695,69.4029 71.5,67C 71.2716,66.6012 70.9382,66.4346 70.5,66.5C 70.3284,65.5084 70.6618,64.8417 71.5,64.5C 72.8763,64.2525 73.7097,62.9192 74,60.5C 75.0919,53.4984 74.0919,46.8318 71,40.5C 70,43.1667 69,43.1667 68,40.5C 67.7216,41.4158 67.2216,42.0825 66.5,42.5C 66.634,40.7085 66.3007,39.0418 65.5,37.5C 66.1667,37.5 66.8333,37.5 67.5,37.5C 68.2679,36.7375 68.7679,35.7375 69,34.5C 72.161,36.9073 74.3276,39.9073 75.5,43.5 Z"/></g>
<g><path style="opacity:1" fill="#4e4b49" d="M 58.5,66.5 C 58.4729,68.1993 57.8062,69.5326 56.5,70.5C 55.5416,70.0472 54.7083,69.3805 54,68.5C 53.3333,69.5 53.3333,70.5 54,71.5C 60.3161,72.7855 65.8161,71.1189 70.5,66.5C 70.9382,66.4346 71.2716,66.6012 71.5,67C 69.695,69.4029 67.3616,71.0695 64.5,72C 58.2079,72.4274 52.5412,74.4274 47.5,78C 44.1397,78.7925 41.8064,77.6259 40.5,74.5C 42.8957,76.2121 45.5624,76.7121 48.5,76C 47.5,75 46.5,74 45.5,73C 47.5095,73.5936 49.5095,73.4269 51.5,72.5C 51.1213,67.8952 53.4546,65.8952 58.5,66.5 Z"/></g>
<g><path style="opacity:1" fill="#2d2d2d" d="M 38.5,66.5 C 38.5838,69.3274 39.2504,71.994 40.5,74.5C 37.6599,72.2849 36.9932,69.6182 38.5,66.5 Z"/></g>
<g><path style="opacity:1" fill="#dfdfdf" d="M 62.5,65.5 C 64.337,65.6395 64.6704,66.3061 63.5,67.5C 62.7025,67.0431 62.3691,66.3764 62.5,65.5 Z"/></g>
<g><path style="opacity:1" fill="#463b36" d="M 65.5,37.5 C 60.4045,38.2554 59.4045,40.5887 62.5,44.5C 64.0255,44.0057 65.3588,43.339 66.5,42.5C 67.2216,42.0825 67.7216,41.4158 68,40.5C 69,43.1667 70,43.1667 71,40.5C 74.0919,46.8318 75.0919,53.4984 74,60.5C 73.7097,62.9192 72.8763,64.2525 71.5,64.5C 73.1508,59.9601 73.6508,55.2935 73,50.5C 71.5447,46.7776 70.0447,46.7776 68.5,50.5C 67.6618,50.1583 67.3284,49.4916 67.5,48.5C 69.118,47.5489 70.4513,46.2156 71.5,44.5C 67.9883,43.6557 64.655,44.3224 61.5,46.5C 59.6048,44.1329 59.1048,41.4663 60,38.5C 61.6779,36.4468 63.5112,36.1134 65.5,37.5 Z"/></g>
<g><path style="opacity:1" fill="#e89296" d="M 43.5,49.5 C 44.5,49.5 45.5,49.5 46.5,49.5C 48.1667,49.5 49.8333,49.5 51.5,49.5C 53.7033,49.9349 55.7033,49.9349 57.5,49.5C 59.3505,50.8664 59.6838,52.533 58.5,54.5C 54.3741,56.2811 50.0408,56.9478 45.5,56.5C 44.5213,54.8546 43.188,53.5213 41.5,52.5C 42.1925,51.4822 42.8592,50.4822 43.5,49.5 Z"/></g>
<g><path style="opacity:1" fill="#4d302f" d="M 43.5,49.5 C 42.8592,50.4822 42.1925,51.4822 41.5,52.5C 43.188,53.5213 44.5213,54.8546 45.5,56.5C 42.0812,55.9578 40.4145,53.9578 40.5,50.5C 41.391,49.8902 42.391,49.5569 43.5,49.5 Z"/></g>
<g><path style="opacity:1" fill="#b0b0b0" d="M 6.5,39.5 C 7.16667,39.5 7.83333,39.5 8.5,39.5C 9.78991,40.0577 10.6232,41.0577 11,42.5C 11.1858,44.9005 11.6858,47.2338 12.5,49.5C 13.1667,49.1667 13.8333,48.8333 14.5,48.5C 16.2289,50.8511 16.8956,53.5178 16.5,56.5C 14.1727,56.2471 12.1727,56.9137 10.5,58.5C 9.18614,57.6872 8.01948,56.6872 7,55.5C 5.42677,50.145 5.2601,44.8117 6.5,39.5 Z"/></g>
<g><path style="opacity:1" fill="#554741" d="M 46.5,35.5 C 49.625,33.8477 51.7917,34.8477 53,38.5C 53.8878,42.4021 53.3878,46.0688 51.5,49.5C 49.8333,49.5 48.1667,49.5 46.5,49.5C 46.5,48.8333 46.5,48.1667 46.5,47.5C 50.6832,48.943 52.6832,47.2763 52.5,42.5C 52.568,38.264 50.568,35.9307 46.5,35.5 Z"/></g>
<g><path style="opacity:1" fill="#928475" d="M 44.5,35.5 C 45.1667,35.5 45.8333,35.5 46.5,35.5C 43.9524,39.4611 43.9524,43.4611 46.5,47.5C 46.5,48.1667 46.5,48.8333 46.5,49.5C 45.5,49.5 44.5,49.5 43.5,49.5C 42.7433,45.8886 41.41,42.5553 39.5,39.5C 39.5,39.1667 39.5,38.8333 39.5,38.5C 41.0655,39.0606 42.3989,38.3939 43.5,36.5C 43.5,35.8333 43.8333,35.5 44.5,35.5 Z"/></g>
<g><path style="opacity:1" fill="#cdcdcd" d="M 39.5,39.5 C 41.41,42.5553 42.7433,45.8886 43.5,49.5C 42.391,49.5569 41.391,49.8902 40.5,50.5C 39.3416,47.8662 38.3416,48.0329 37.5,51C 33.5,53 29.5,53 25.5,51C 21.3017,48.8222 20.635,45.9889 23.5,42.5C 29.5092,44.5075 34.8426,43.5075 39.5,39.5 Z"/></g>
<g><path style="opacity:1" fill="#97695d" d="M 75.5,43.5 C 75.5774,42.2502 76.244,41.4169 77.5,41C 76.0403,40.1887 75.707,39.3554 76.5,38.5C 79.4212,39.4066 82.4212,39.7399 85.5,39.5C 85.0811,43.5588 82.7478,45.5588 78.5,45.5C 77.4822,44.8075 76.4822,44.1408 75.5,43.5 Z"/></g>
<g><path style="opacity:1" fill="#f4f5f6" d="M 65.5,37.5 C 66.3007,39.0418 66.634,40.7085 66.5,42.5C 65.3588,43.339 64.0255,44.0057 62.5,44.5C 59.4045,40.5887 60.4045,38.2554 65.5,37.5 Z"/></g>
<g><path style="opacity:1" fill="#676767" d="M 62.5,40.5 C 64.337,40.6395 64.6704,41.3061 63.5,42.5C 62.7025,42.0431 62.3691,41.3764 62.5,40.5 Z"/></g>
<g><path style="opacity:1" fill="#f1f2f3" d="M 46.5,35.5 C 50.568,35.9307 52.568,38.264 52.5,42.5C 52.6832,47.2763 50.6832,48.943 46.5,47.5C 43.9524,43.4611 43.9524,39.4611 46.5,35.5 Z"/></g>
<g><path style="opacity:1" fill="#535353" d="M 47.5,41.5 C 49.337,41.6395 49.6704,42.3061 48.5,43.5C 47.7025,43.0431 47.3691,42.3764 47.5,41.5 Z"/></g>
<g><path style="opacity:1" fill="#bdbdbd" d="M 71.5,11.5 C 72.5,11.5 73.5,11.5 74.5,11.5C 75.2389,11.369 75.9056,11.5357 76.5,12C 94.1062,29.151 97.1062,48.3177 85.5,69.5C 83.5,68.024 81.8334,66.1906 80.5,64C 81.8333,63.6667 83.1667,63.3333 84.5,63C 83.944,62.6174 83.6107,62.1174 83.5,61.5C 84.7348,61.7214 85.7348,62.3881 86.5,63.5C 94.6223,44.9927 90.9556,29.3261 75.5,16.5C 74.5713,17.6888 74.238,19.0222 74.5,20.5C 73.8333,18.5 73.1667,16.5 72.5,14.5C 72.4431,13.391 72.1098,12.391 71.5,11.5 Z"/></g>
<g><path style="opacity:1" fill="#d8d9d9" d="M 83.5,61.5 C 82.8333,61.5 82.5,61.1667 82.5,60.5C 85.5562,56.6106 86.5562,52.2773 85.5,47.5C 84.1482,48.5244 82.8149,49.5244 81.5,50.5C 80.8592,49.5178 80.1925,48.5178 79.5,47.5C 90.6812,41.7146 90.0146,38.3813 77.5,37.5C 77.1667,36.8333 76.8333,36.1667 76.5,35.5C 77.758,33.3131 78.758,30.9798 79.5,28.5C 79.2528,27.2867 78.5862,26.62 77.5,26.5C 77.8333,24.5 78.1667,22.5 78.5,20.5C 77.1667,20.5 75.8333,20.5 74.5,20.5C 74.238,19.0222 74.5713,17.6888 75.5,16.5C 90.9556,29.3261 94.6223,44.9927 86.5,63.5C 85.7348,62.3881 84.7348,61.7214 83.5,61.5 Z"/></g>
<g><path style="opacity:1" fill="#221b1a" d="M 43.5,29.5 C 43.369,30.2389 43.5357,30.9056 44,31.5C 44.6708,30.7476 45.5041,30.4142 46.5,30.5C 45.5592,32.0495 44.8925,33.7162 44.5,35.5C 43.8333,35.5 43.5,35.8333 43.5,36.5C 39.9003,33.9845 39.9003,31.6512 43.5,29.5 Z"/></g>
<g><path style="opacity:1" fill="#f7d4b4" d="M 52.5,28.5 C 54.7354,28.2053 56.7354,28.5386 58.5,29.5C 57.3336,31.166 57.3336,32.8327 58.5,34.5C 62.5058,32.6304 65.5058,33.6304 67.5,37.5C 66.8333,37.5 66.1667,37.5 65.5,37.5C 63.5112,36.1134 61.6779,36.4468 60,38.5C 59.1048,41.4663 59.6048,44.1329 61.5,46.5C 64.655,44.3224 67.9883,43.6557 71.5,44.5C 70.4513,46.2156 69.118,47.5489 67.5,48.5C 63.7429,48.2864 63.0762,49.2864 65.5,51.5C 63.79,55.2101 61.1233,57.8768 57.5,59.5C 55.4727,59.6621 53.4727,59.4955 51.5,59C 54.8637,57.9013 58.0304,56.4013 61,54.5C 62.2381,51.0743 61.0714,49.4077 57.5,49.5C 55.7033,49.9349 53.7033,49.9349 51.5,49.5C 53.3878,46.0688 53.8878,42.4021 53,38.5C 51.7917,34.8477 49.625,33.8477 46.5,35.5C 45.8333,35.5 45.1667,35.5 44.5,35.5C 44.8925,33.7162 45.5592,32.0495 46.5,30.5C 48.5824,30.472 50.4157,31.1387 52,32.5C 52.49,31.2068 52.6567,29.8734 52.5,28.5 Z"/></g>
<g><path style="opacity:1" fill="#a67164" d="M 77.5,26.5 C 77.8039,27.1499 78.1373,27.8165 78.5,28.5C 76.6375,30.8624 75.4709,33.5291 75,36.5C 74.1482,35.4293 73.3149,34.4293 72.5,33.5C 72.8478,29.4432 73.5145,25.4432 74.5,21.5C 75.552,21.3505 76.552,21.5172 77.5,22C 75.4585,23.9409 74.7918,26.1075 75.5,28.5C 76.1818,27.7573 76.8485,27.0906 77.5,26.5 Z"/></g>
<g><path style="opacity:1" fill="#382723" d="M 72.5,14.5 C 73.1667,16.5 73.8333,18.5 74.5,20.5C 75.8333,20.5 77.1667,20.5 78.5,20.5C 78.1667,22.5 77.8333,24.5 77.5,26.5C 76.8485,27.0906 76.1818,27.7573 75.5,28.5C 74.7918,26.1075 75.4585,23.9409 77.5,22C 76.552,21.5172 75.552,21.3505 74.5,21.5C 73.5145,25.4432 72.8478,29.4432 72.5,33.5C 72.0796,27.3554 72.0796,21.0221 72.5,14.5 Z"/></g>
<g><path style="opacity:1" fill="#b4b4b4" d="M 25.5,16.5 C 17.6512,21.8854 15.8179,28.8854 20,37.5C 20.6891,38.3567 21.5224,39.0233 22.5,39.5C 20.3529,28.2855 24.6863,20.6189 35.5,16.5C 36.8333,17.1667 37.8333,18.1667 38.5,19.5C 35.4446,24.605 34.9446,29.9384 37,35.5C 37.3768,36.9423 38.2101,37.9423 39.5,38.5C 39.5,38.8333 39.5,39.1667 39.5,39.5C 34.8426,43.5075 29.5092,44.5075 23.5,42.5C 20.0969,40.1002 17.4302,37.1002 15.5,33.5C 14.3573,24.6006 17.6906,18.434 25.5,15C 24.2617,15.69 24.2617,16.19 25.5,16.5 Z"/></g>
<g><path style="opacity:1" fill="#47342f" d="M 42.5,15.5 C 40.7545,18.6626 39.2545,21.996 38,25.5C 37.1504,30.0213 37.6504,34.3546 39.5,38.5C 38.2101,37.9423 37.3768,36.9423 37,35.5C 34.9446,29.9384 35.4446,24.605 38.5,19.5C 39.4725,17.8608 40.8058,16.5274 42.5,15.5 Z"/></g>
<g><path style="opacity:1" fill="#979797" d="M 35.5,16.5 C 24.6863,20.6189 20.3529,28.2855 22.5,39.5C 21.5224,39.0233 20.6891,38.3567 20,37.5C 15.8179,28.8854 17.6512,21.8854 25.5,16.5C 28.8333,15.1667 32.1667,15.1667 35.5,16.5 Z"/></g>
<g><path style="opacity:1" fill="#3c3736" d="M 60.5,14.5 C 59.3991,15.5983 58.0657,15.765 56.5,15C 55.0292,12.7572 54.0292,10.2572 53.5,7.5C 52.5832,8.12723 51.5832,8.46056 50.5,8.5C 51.6354,6.78679 53.302,6.12012 55.5,6.5C 54.3395,11.1746 56.0061,13.8413 60.5,14.5 Z"/></g>
<g><path style="opacity:1" fill="#d9d9d9" d="M 74.5,11.5 C 73.5,11.5 72.5,11.5 71.5,11.5C 71.0269,10.0937 70.0269,9.42702 68.5,9.5C 68.0269,8.09368 67.0269,7.42702 65.5,7.5C 56.3678,2.65574 47.0345,2.3224 37.5,6.5C 36.7065,6.0688 35.8732,5.73546 35,5.5C 32.9132,7.1258 30.7465,8.6258 28.5,10C 31.1194,9.91666 33.786,9.74999 36.5,9.5C 36.5,10.5 36.5,11.5 36.5,12.5C 39.7847,12.7896 42.7847,12.123 45.5,10.5C 44.075,11.922 43.075,13.5887 42.5,15.5C 40.8058,16.5274 39.4725,17.8608 38.5,19.5C 37.8333,18.1667 36.8333,17.1667 35.5,16.5C 32.1667,15.1667 28.8333,15.1667 25.5,16.5C 24.2617,16.19 24.2617,15.69 25.5,15C 17.6906,18.434 14.3573,24.6006 15.5,33.5C 10.717,32.6152 8.38366,34.6152 8.5,39.5C 7.83333,39.5 7.16667,39.5 6.5,39.5C 6.33982,37.8008 6.50649,36.1341 7,34.5C 10.599,28.9656 13.9323,23.2989 17,17.5C 20.4228,14.2417 23.5894,10.9084 26.5,7.5C 39.4581,0.451574 52.7914,-0.0484258 66.5,6C 69.6207,7.30632 72.2874,9.13966 74.5,11.5 Z"/></g>
<g><path style="opacity:1" fill="#b86e5d" d="M 60.5,14.5 C 60.8333,13.5 61.5,12.8333 62.5,12.5C 63.4345,11.4324 63.7678,10.099 63.5,8.5C 65.2161,8.62867 66.8828,8.962 68.5,9.5C 69.604,11.3885 70.9373,13.0552 72.5,14.5C 72.0796,21.0221 72.0796,27.3554 72.5,33.5C 72.631,34.2389 72.4643,34.9056 72,35.5C 69.8981,33.9052 68.3981,31.9052 67.5,29.5C 66.9594,18.1138 61.626,14.9472 51.5,20C 49.2345,21.7581 47.5678,23.9248 46.5,26.5C 44.8564,26.8102 43.8564,27.8102 43.5,29.5C 39.9003,31.6512 39.9003,33.9845 43.5,36.5C 42.3989,38.3939 41.0655,39.0606 39.5,38.5C 37.6504,34.3546 37.1504,30.0213 38,25.5C 39.2545,21.996 40.7545,18.6626 42.5,15.5C 45.192,13.1377 47.8587,10.8044 50.5,8.5C 51.5832,8.46056 52.5832,8.12723 53.5,7.5C 54.0292,10.2572 55.0292,12.7572 56.5,15C 58.0657,15.765 59.3991,15.5983 60.5,14.5 Z"/></g>
<g><path style="opacity:1" fill="#696d6f" d="M 46.5,30.5 C 45.5041,30.4142 44.6708,30.7476 44,31.5C 43.5357,30.9056 43.369,30.2389 43.5,29.5C 45.0936,29.0805 46.5936,28.4138 48,27.5C 49.395,27.7804 50.5617,28.4471 51.5,29.5C 49.8905,29.4069 48.2238,29.7402 46.5,30.5 Z"/></g>
<g><path style="opacity:1" fill="#241f1d" d="M 46.5,26.5 C 49.0101,26.0535 51.0101,26.7202 52.5,28.5C 52.6567,29.8734 52.49,31.2068 52,32.5C 50.4157,31.1387 48.5824,30.472 46.5,30.5C 48.2238,29.7402 49.8905,29.4069 51.5,29.5C 50.5617,28.4471 49.395,27.7804 48,27.5C 46.5936,28.4138 45.0936,29.0805 43.5,29.5C 43.8564,27.8102 44.8564,26.8102 46.5,26.5 Z"/></g>
<g><path style="opacity:1" fill="#8c675d" d="M 67.5,29.5 C 65.9317,28.5269 64.265,28.3603 62.5,29C 64.2552,29.7199 65.0885,30.8866 65,32.5C 63.2041,31.233 61.3707,31.233 59.5,32.5C 59.1667,32.3333 58.8333,32.1667 58.5,32C 59.7433,30.8455 60.7433,29.5122 61.5,28C 60.212,27.7613 59.212,28.2613 58.5,29.5C 56.7354,28.5386 54.7354,28.2053 52.5,28.5C 51.0101,26.7202 49.0101,26.0535 46.5,26.5C 47.5678,23.9248 49.2345,21.7581 51.5,20C 61.626,14.9472 66.9594,18.1138 67.5,29.5 Z"/></g>
<g><path style="opacity:1" fill="#30201d" d="M 65.5,7.5 C 67.0269,7.42702 68.0269,8.09368 68.5,9.5C 66.8828,8.962 65.2161,8.62867 63.5,8.5C 63.7678,10.099 63.4345,11.4324 62.5,12.5C 62.5,10.8333 62.5,9.16667 62.5,7.5C 63.5,7.5 64.5,7.5 65.5,7.5 Z"/></g>
<g><path style="opacity:1" fill="#382521" d="M 50.5,8.5 C 47.8587,10.8044 45.192,13.1377 42.5,15.5C 43.075,13.5887 44.075,11.922 45.5,10.5C 47.0495,9.5592 48.7162,8.89254 50.5,8.5 Z"/></g>
<g><path style="opacity:1" fill="#2f2a2a" d="M 68.5,9.5 C 70.0269,9.42702 71.0269,10.0937 71.5,11.5C 72.1098,12.391 72.4431,13.391 72.5,14.5C 70.9373,13.0552 69.604,11.3885 68.5,9.5 Z"/></g>
<g><path style="opacity:1" fill="#c4c5c5" d="M 65.5,7.5 C 64.5,7.5 63.5,7.5 62.5,7.5C 62.5,9.16667 62.5,10.8333 62.5,12.5C 61.5,12.8333 60.8333,13.5 60.5,14.5C 56.0061,13.8413 54.3395,11.1746 55.5,6.5C 53.302,6.12012 51.6354,6.78679 50.5,8.5C 48.7162,8.89254 47.0495,9.5592 45.5,10.5C 42.7847,12.123 39.7847,12.7896 36.5,12.5C 36.5,11.5 36.5,10.5 36.5,9.5C 33.786,9.74999 31.1194,9.91666 28.5,10C 30.7465,8.6258 32.9132,7.1258 35,5.5C 35.8732,5.73546 36.7065,6.0688 37.5,6.5C 47.0345,2.3224 56.3678,2.65574 65.5,7.5 Z"/></g>
<g><path style="opacity:0.012" fill="#323341" d="M 24.5,92.5 C 26.337,92.6395 26.6704,93.3061 25.5,94.5C 24.7025,94.0431 24.3691,93.3764 24.5,92.5 Z"/></g>
<g><path style="opacity:0.006" fill="#d0d1d5" d="M 34.5,92.5 C 35.4751,94.5401 34.8084,94.8734 32.5,93.5C 32.9569,92.7025 33.6236,92.3691 34.5,92.5 Z"/></g>
</svg>
