<?xml version="1.0" encoding="UTF-8"?>
<!DOCTYPE svg PUBLIC "-//W3C//DTD SVG 1.1//EN" "http://www.w3.org/Graphics/SVG/1.1/DTD/svg11.dtd">
<svg xmlns="http://www.w3.org/2000/svg" version="1.1" width="96px" height="96px" style="shape-rendering:geometricPrecision; text-rendering:geometricPrecision; image-rendering:optimizeQuality; fill-rule:evenodd; clip-rule:evenodd" xmlns:xlink="http://www.w3.org/1999/xlink">
<g><path style="opacity:1" fill="#f1f1f3" d="M 36.5,-0.5 C 43.8333,-0.5 51.1667,-0.5 58.5,-0.5C 77.1667,5.5 89.5,17.8333 95.5,36.5C 95.5,43.8333 95.5,51.1667 95.5,58.5C 89.5,77.1667 77.1667,89.5 58.5,95.5C 51.1667,95.5 43.8333,95.5 36.5,95.5C 17.842,89.5087 5.50866,77.1753 -0.5,58.5C -0.5,51.1667 -0.5,43.8333 -0.5,36.5C 5.49134,17.842 17.8247,5.50866 36.5,-0.5 Z"/></g>
<g><path style="opacity:1" fill="#1c1919" d="M 37.5,4.5 C 63.7181,1.92205 81.2181,12.922 90,37.5C 93.4372,62.4769 83.6039,79.6435 60.5,89C 34.361,94.3501 16.1943,84.8501 6,60.5C 0.703304,32.7456 11.2033,14.0789 37.5,4.5 Z"/></g>
<g><path style="opacity:1" fill="#e6e5e7" d="M 51.5,31.5 C 52.552,31.3505 53.552,31.5172 54.5,32C 63.6667,41.1667 72.8333,50.3333 82,59.5C 82.4828,60.448 82.6495,61.448 82.5,62.5C 77.8215,62.6658 73.1548,62.4992 68.5,62C 61.319,54.652 53.9857,47.4854 46.5,40.5C 38.8477,47.6521 31.3477,54.9854 24,62.5C 23.3333,61.5 23.3333,60.5 24,59.5C 30.6667,52.8333 37.3333,46.1667 44,39.5C 44.3087,37.6086 43.4753,36.2752 41.5,35.5C 32.1667,44.5 22.8333,53.5 13.5,62.5C 12.479,61.9984 12.3123,61.3317 13,60.5C 22.1667,51.3333 31.3333,42.1667 40.5,33C 41.1667,32.3333 41.8333,32.3333 42.5,33C 46.0818,37.5798 49.0818,37.0798 51.5,31.5 Z"/></g>
<g><path style="opacity:1" fill="#1d1a1b" d="M 51.5,34.5 C 52.552,34.3505 53.552,34.5172 54.5,35C 62.8333,43.3333 71.1667,51.6667 79.5,60C 76.1667,60.6667 72.8333,60.6667 69.5,60C 62.6667,53.1667 55.8333,46.3333 49,39.5C 49.0579,37.5646 49.8912,35.8979 51.5,34.5 Z"/></g>
<g><path style="opacity:1" fill="#a5a3aa" d="M 41.5,51.5 C 45.1667,51.5 48.8333,51.5 52.5,51.5C 52.5,55.1667 52.5,58.8333 52.5,62.5C 48.8333,62.5 45.1667,62.5 41.5,62.5C 41.5,58.8333 41.5,55.1667 41.5,51.5 Z"/></g>
<g><path style="opacity:1" fill="#100f10" d="M 48.5,53.5 C 49.675,53.281 50.675,53.6143 51.5,54.5C 49.9483,55.7979 48.9483,55.4646 48.5,53.5 Z"/></g>
<g><path style="opacity:1" fill="#000000" d="M 43.5,53.5 C 45.337,53.6395 45.6704,54.3061 44.5,55.5C 43.7025,55.0431 43.3691,54.3764 43.5,53.5 Z"/></g>
<g><path style="opacity:1" fill="#131213" d="M 43.5,58.5 C 45.4646,58.9483 45.7979,59.9483 44.5,61.5C 43.6143,60.675 43.281,59.675 43.5,58.5 Z"/></g>
<g><path style="opacity:1" fill="#302e30" d="M 48.5,58.5 C 49.5,58.5 50.5,58.5 51.5,58.5C 51.5,59.5 51.5,60.5 51.5,61.5C 50.5,61.5 49.5,61.5 48.5,61.5C 48.5,60.5 48.5,59.5 48.5,58.5 Z"/></g>
</svg>
