<?xml version="1.0" encoding="UTF-8"?>
<!DOCTYPE svg PUBLIC "-//W3C//DTD SVG 1.1//EN" "http://www.w3.org/Graphics/SVG/1.1/DTD/svg11.dtd">
<svg xmlns="http://www.w3.org/2000/svg" version="1.1" width="96px" height="96px" style="shape-rendering:geometricPrecision; text-rendering:geometricPrecision; image-rendering:optimizeQuality; fill-rule:evenodd; clip-rule:evenodd" xmlns:xlink="http://www.w3.org/1999/xlink">
<g><path style="opacity:1" fill="#b1b1b0" d="M 53.5,15.5 C 54.3066,17.7153 53.3066,19.0487 50.5,19.5C 50.44,18.9569 50.1067,18.6236 49.5,18.5C 46.0517,21.5298 43.5517,20.8631 42,16.5C 38.1949,19.1554 34.0283,20.8221 29.5,21.5C 35.6208,17.2699 42.2875,14.4366 49.5,13C 51.0664,13.6082 52.3998,14.4415 53.5,15.5 Z"/></g>
<g><path style="opacity:0.999" fill="#c2c2c2" d="M 50.5,19.5 C 46.5,21.5 42.5,23.5 38.5,25.5C 38.44,24.9569 38.1067,24.6236 37.5,24.5C 36.1667,25.1667 34.8333,25.8333 33.5,26.5C 32.5197,25.0186 31.353,23.6853 30,22.5C 28.103,24.0163 25.9363,24.683 23.5,24.5C 25.1815,22.9925 27.1815,21.9925 29.5,21.5C 34.0283,20.8221 38.1949,19.1554 42,16.5C 43.5517,20.8631 46.0517,21.5298 49.5,18.5C 50.1067,18.6236 50.44,18.9569 50.5,19.5 Z"/></g>
<g><path style="opacity:0.998" fill="#686867" d="M 53.5,15.5 C 56.0838,16.0483 57.0838,17.715 56.5,20.5C 51.5266,22.9867 46.5266,25.4867 41.5,28C 39.2884,28.7891 37.2884,28.6225 35.5,27.5C 36.2905,26.5987 37.2905,25.9321 38.5,25.5C 42.5,23.5 46.5,21.5 50.5,19.5C 53.3066,19.0487 54.3066,17.7153 53.5,15.5 Z"/></g>
<g><path style="opacity:1" fill="#cccccb" d="M 38.5,25.5 C 37.2905,25.9321 36.2905,26.5987 35.5,27.5C 31.7099,28.8951 28.0432,30.5617 24.5,32.5C 23.8106,31.2264 22.9772,31.2264 22,32.5C 21.8712,28.882 20.0379,27.2153 16.5,27.5C 18.5093,25.9348 20.8427,24.9348 23.5,24.5C 25.9363,24.683 28.103,24.0163 30,22.5C 31.353,23.6853 32.5197,25.0186 33.5,26.5C 34.8333,25.8333 36.1667,25.1667 37.5,24.5C 38.1067,24.6236 38.44,24.9569 38.5,25.5 Z"/></g>
<g><path style="opacity:1" fill="#c3c3c3" d="M 59.5,20.5 C 62.6907,21.0922 65.6907,22.2589 68.5,24C 63.9654,26.767 59.2987,29.267 54.5,31.5C 54.44,30.9569 54.1067,30.6236 53.5,30.5C 52.1667,31.1667 50.8333,31.8333 49.5,32.5C 48.6184,31.2402 47.6184,30.0736 46.5,29C 49.0972,28.2208 49.0972,27.7208 46.5,27.5C 50.0383,25.2315 53.705,23.2315 57.5,21.5C 57.8417,20.6618 58.5084,20.3284 59.5,20.5 Z"/></g>
<g><path style="opacity:1" fill="#cdccca" d="M 16.5,27.5 C 20.0379,27.2153 21.8712,28.882 22,32.5C 22.9772,31.2264 23.8106,31.2264 24.5,32.5C 23.5489,33.9187 23.2155,35.5853 23.5,37.5C 23.5,45.5 23.5,53.5 23.5,61.5C 23.1667,61.5 22.8333,61.5 22.5,61.5C 22.8715,50.7854 22.5382,42.7854 21.5,37.5C 19.5887,36.925 17.922,35.925 16.5,34.5C 15.572,39.1781 15.2387,48.1781 15.5,61.5C 14.5054,50.6794 14.1721,39.6794 14.5,28.5C 14.8417,27.6618 15.5084,27.3284 16.5,27.5 Z"/></g>
<g><path style="opacity:1" fill="#62605e" d="M 56.5,20.5 C 56.5,21.1667 56.8333,21.5 57.5,21.5C 53.705,23.2315 50.0383,25.2315 46.5,27.5C 42.8487,28.6589 39.5154,30.3256 36.5,32.5C 33.8333,33.5 31.1667,34.5 28.5,35.5C 27.8333,35.5 27.5,35.8333 27.5,36.5C 26.1667,36.8333 24.8333,37.1667 23.5,37.5C 23.2155,35.5853 23.5489,33.9187 24.5,32.5C 28.0432,30.5617 31.7099,28.8951 35.5,27.5C 37.2884,28.6225 39.2884,28.7891 41.5,28C 46.5266,25.4867 51.5266,22.9867 56.5,20.5 Z"/></g>
<g><path style="opacity:1" fill="#6a6967" d="M 59.5,20.5 C 59.9169,19.8761 60.5836,19.5427 61.5,19.5C 64.2787,20.3888 66.9454,21.5555 69.5,23C 70.4061,24.6995 70.7394,26.5328 70.5,28.5C 69.1283,29.5116 67.795,30.5116 66.5,31.5C 65.8333,31.5 65.5,31.8333 65.5,32.5C 63.2543,33.4552 60.921,34.1218 58.5,34.5C 57.3052,34.6775 56.1385,35.0109 55,35.5C 53.9231,34.5705 52.7564,33.9038 51.5,33.5C 52.2905,32.5987 53.2905,31.9321 54.5,31.5C 59.2987,29.267 63.9654,26.767 68.5,24C 65.6907,22.2589 62.6907,21.0922 59.5,20.5 Z"/></g>
<g><path style="opacity:1" fill="#d0ac6b" d="M 76.5,28.5 C 76.1894,39.9143 76.5227,51.2476 77.5,62.5C 76.8333,62.8333 76.1667,63.1667 75.5,63.5C 73.556,52.4202 72.8893,41.0869 73.5,29.5C 74.1515,28.9094 74.8182,28.2427 75.5,27.5C 76.1067,27.6236 76.44,27.9569 76.5,28.5 Z"/></g>
<g><path style="opacity:1" fill="#d4d4d4" d="M 46.5,27.5 C 49.0972,27.7208 49.0972,28.2208 46.5,29C 47.6184,30.0736 48.6184,31.2402 49.5,32.5C 50.8333,31.8333 52.1667,31.1667 53.5,30.5C 54.1067,30.6236 54.44,30.9569 54.5,31.5C 53.2905,31.9321 52.2905,32.5987 51.5,33.5C 49.7162,33.8925 48.0495,34.5592 46.5,35.5C 46.44,34.9569 46.1067,34.6236 45.5,34.5C 44.1667,35.1667 42.8333,35.8333 41.5,36.5C 40.3954,34.3886 38.7288,33.0553 36.5,32.5C 39.5154,30.3256 42.8487,28.6589 46.5,27.5 Z"/></g>
<g><path style="opacity:1" fill="#c3a36a" d="M 70.5,28.5 C 70.8333,28.5 71.1667,28.5 71.5,28.5C 72.4916,28.3284 73.1583,28.6618 73.5,29.5C 72.8893,41.0869 73.556,52.4202 75.5,63.5C 72.8333,64.8333 70.1667,66.1667 67.5,67.5C 66.3947,65.2869 66.3947,63.1203 67.5,61C 66.9056,60.5357 66.2389,60.369 65.5,60.5C 65.5,59.8333 65.5,59.1667 65.5,58.5C 65.8333,58.5 66.1667,58.5 66.5,58.5C 67.7079,57.7659 69.0413,57.4326 70.5,57.5C 70.5,47.8333 70.5,38.1667 70.5,28.5 Z"/></g>
<g><path style="opacity:1" fill="#cba764" d="M 76.5,28.5 C 77.4959,28.4142 78.3292,28.7476 79,29.5C 79.4998,40.1615 79.6665,50.8281 79.5,61.5C 78.8333,61.8333 78.1667,62.1667 77.5,62.5C 76.5227,51.2476 76.1894,39.9143 76.5,28.5 Z"/></g>
<g><path style="opacity:0.998" fill="#64625f" d="M 51.5,33.5 C 52.7564,33.9038 53.9231,34.5705 55,35.5C 56.1385,35.0109 57.3052,34.6775 58.5,34.5C 56.062,36.5346 53.3953,38.2013 50.5,39.5C 47.5152,40.3257 44.8485,41.659 42.5,43.5C 38.0424,45.2288 33.7091,47.2288 29.5,49.5C 29.1667,49.5 28.8333,49.5 28.5,49.5C 27.5489,48.0813 27.2155,46.4147 27.5,44.5C 33.9172,41.7926 40.2506,38.7926 46.5,35.5C 48.0495,34.5592 49.7162,33.8925 51.5,33.5 Z"/></g>
<g><path style="opacity:1" fill="#d7b372" d="M 65.5,32.5 C 65.5,35.1667 65.5,37.8333 65.5,40.5C 62.3777,41.5612 59.3777,42.8946 56.5,44.5C 55.8106,43.2264 54.9772,43.2264 54,44.5C 53.5065,42.8659 53.3398,41.1992 53.5,39.5C 52.5,39.5 51.5,39.5 50.5,39.5C 53.3953,38.2013 56.062,36.5346 58.5,34.5C 60.921,34.1218 63.2543,33.4552 65.5,32.5 Z"/></g>
<g><path style="opacity:0.431" fill="#917b52" d="M 80.5,61.5 C 80.1667,61.5 79.8333,61.5 79.5,61.5C 79.6665,50.8281 79.4998,40.1615 79,29.5C 78.3292,28.7476 77.4959,28.4142 76.5,28.5C 76.44,27.9569 76.1067,27.6236 75.5,27.5C 74.8182,28.2427 74.1515,28.9094 73.5,29.5C 73.1583,28.6618 72.4916,28.3284 71.5,28.5C 74.2159,25.8663 77.0492,25.8663 80,28.5C 80.4998,39.495 80.6665,50.495 80.5,61.5 Z"/></g>
<g><path style="opacity:1" fill="#e0e0df" d="M 36.5,32.5 C 38.7288,33.0553 40.3954,34.3886 41.5,36.5C 42.8333,35.8333 44.1667,35.1667 45.5,34.5C 46.1067,34.6236 46.44,34.9569 46.5,35.5C 40.2506,38.7926 33.9172,41.7926 27.5,44.5C 27.5,41.8333 27.5,39.1667 27.5,36.5C 28.1667,36.5 28.5,36.1667 28.5,35.5C 31.1667,34.5 33.8333,33.5 36.5,32.5 Z"/></g>
<g><path style="opacity:1" fill="#e4c286" d="M 50.5,39.5 C 51.5,39.5 52.5,39.5 53.5,39.5C 53.3398,41.1992 53.5065,42.8659 54,44.5C 54.9772,43.2264 55.8106,43.2264 56.5,44.5C 53.8333,45.8333 51.1667,47.1667 48.5,48.5C 47.3129,47.4664 46.4796,46.133 46,44.5C 45.5724,49.498 44.7391,49.6647 43.5,45C 44.7119,43.8932 44.3786,43.3932 42.5,43.5C 44.8485,41.659 47.5152,40.3257 50.5,39.5 Z"/></g>
<g><path style="opacity:1" fill="#806238" d="M 65.5,40.5 C 65.7135,42.1439 65.3802,43.6439 64.5,45C 56.9477,48.6076 49.6144,52.441 42.5,56.5C 39.8333,58.1667 37.1667,59.8333 34.5,61.5C 32.0462,62.2271 29.7128,63.2271 27.5,64.5C 27.5,62.5 27.5,60.5 27.5,58.5C 28.791,58.7373 29.791,58.404 30.5,57.5C 36.5,54.5 42.5,51.5 48.5,48.5C 51.1667,47.1667 53.8333,45.8333 56.5,44.5C 59.3777,42.8946 62.3777,41.5612 65.5,40.5 Z"/></g>
<g><path style="opacity:1" fill="#f1d199" d="M 42.5,43.5 C 44.3786,43.3932 44.7119,43.8932 43.5,45C 44.7391,49.6647 45.5724,49.498 46,44.5C 46.4796,46.133 47.3129,47.4664 48.5,48.5C 42.5,51.5 36.5,54.5 30.5,57.5C 29.5269,55.0521 29.1936,52.3854 29.5,49.5C 33.7091,47.2288 38.0424,45.2288 42.5,43.5 Z"/></g>
<g><path style="opacity:0.2" fill="#534a43" d="M 66.5,31.5 C 66.5,40.5 66.5,49.5 66.5,58.5C 66.1667,58.5 65.8333,58.5 65.5,58.5C 65.5,57.1667 65.5,55.8333 65.5,54.5C 65.8134,51.7531 65.48,49.0865 64.5,46.5C 60.6112,48.2742 56.9446,50.2742 53.5,52.5C 49.931,54.1185 46.2644,55.4519 42.5,56.5C 49.6144,52.441 56.9477,48.6076 64.5,45C 65.3802,43.6439 65.7135,42.1439 65.5,40.5C 65.5,37.8333 65.5,35.1667 65.5,32.5C 65.5,31.8333 65.8333,31.5 66.5,31.5 Z"/></g>
<g><path style="opacity:1" fill="#ececed" d="M 16.5,34.5 C 16.3339,40.1764 16.5006,45.8431 17,51.5C 18.3333,52.8333 19.6667,54.1667 21,55.5C 21.4995,49.5092 21.6662,43.5092 21.5,37.5C 22.5382,42.7854 22.8715,50.7854 22.5,61.5C 20.1216,64.1426 17.7882,64.1426 15.5,61.5C 15.2387,48.1781 15.572,39.1781 16.5,34.5 Z"/></g>
<g><path style="opacity:1" fill="#e1e1e1" d="M 16.5,34.5 C 17.922,35.925 19.5887,36.925 21.5,37.5C 21.6662,43.5092 21.4995,49.5092 21,55.5C 19.6667,54.1667 18.3333,52.8333 17,51.5C 16.5006,45.8431 16.3339,40.1764 16.5,34.5 Z"/></g>
<g><path style="opacity:0.894" fill="#bfa87d" d="M 28.5,49.5 C 28.8333,49.5 29.1667,49.5 29.5,49.5C 29.1936,52.3854 29.5269,55.0521 30.5,57.5C 29.791,58.404 28.791,58.7373 27.5,58.5C 27.2641,55.3915 27.5975,52.3915 28.5,49.5 Z"/></g>
<g><path style="opacity:1" fill="#d6b272" d="M 65.5,54.5 C 61.2746,56.061 57.2746,58.061 53.5,60.5C 50.9456,57.8952 50.9456,55.2286 53.5,52.5C 56.9446,50.2742 60.6112,48.2742 64.5,46.5C 65.48,49.0865 65.8134,51.7531 65.5,54.5 Z"/></g>
<g><path style="opacity:1" fill="#e7c68c" d="M 53.5,52.5 C 50.9456,55.2286 50.9456,57.8952 53.5,60.5C 48.1978,63.1511 42.8644,65.8178 37.5,68.5C 37.2331,65.6879 36.2331,63.3545 34.5,61.5C 37.1667,59.8333 39.8333,58.1667 42.5,56.5C 46.2644,55.4519 49.931,54.1185 53.5,52.5 Z"/></g>
<g><path style="opacity:1" fill="#80633a" d="M 65.5,54.5 C 65.5,55.8333 65.5,57.1667 65.5,58.5C 65.5,59.1667 65.5,59.8333 65.5,60.5C 63.847,60.6596 62.5137,61.3263 61.5,62.5C 55.0103,65.2456 48.6769,68.2456 42.5,71.5C 40.4899,70.6509 38.8233,71.3176 37.5,73.5C 35.6951,74.9094 33.6951,75.4094 31.5,75C 29.1667,73.8333 26.8333,72.6667 24.5,71.5C 23.5481,69.9547 23.2148,68.288 23.5,66.5C 24.6049,65.3995 25.9382,64.7329 27.5,64.5C 26.6971,65.4232 26.5304,66.4232 27,67.5C 30.3243,70.7936 33.8243,71.127 37.5,68.5C 42.8644,65.8178 48.1978,63.1511 53.5,60.5C 57.2746,58.061 61.2746,56.061 65.5,54.5 Z"/></g>
<g><path style="opacity:0.71" fill="#4f4947" d="M 14.5,28.5 C 14.1721,39.6794 14.5054,50.6794 15.5,61.5C 17.7882,64.1426 20.1216,64.1426 22.5,61.5C 22.8333,61.5 23.1667,61.5 23.5,61.5C 23.5,63.1667 23.5,64.8333 23.5,66.5C 20.5328,69.1479 17.5328,69.1479 14.5,66.5C 13.175,53.6729 13.175,41.0062 14.5,28.5 Z"/></g>
<g><path style="opacity:1" fill="#efd099" d="M 34.5,61.5 C 36.2331,63.3545 37.2331,65.6879 37.5,68.5C 33.8243,71.127 30.3243,70.7936 27,67.5C 26.5304,66.4232 26.6971,65.4232 27.5,64.5C 29.7128,63.2271 32.0462,62.2271 34.5,61.5 Z"/></g>
<g><path style="opacity:1" fill="#7e6139" d="M 79.5,61.5 C 79.8333,61.5 80.1667,61.5 80.5,61.5C 80.7852,63.288 80.4519,64.9547 79.5,66.5C 69.9335,71.4504 60.2669,76.1171 50.5,80.5C 49.325,80.719 48.325,80.3857 47.5,79.5C 47.8333,79.1667 48.1667,78.8333 48.5,78.5C 54.0279,76.1093 58.6946,73.4427 62.5,70.5C 63.9649,69.2632 65.6316,68.2632 67.5,67.5C 70.1667,66.1667 72.8333,64.8333 75.5,63.5C 76.1667,63.1667 76.8333,62.8333 77.5,62.5C 78.1667,62.1667 78.8333,61.8333 79.5,61.5 Z"/></g>
<g><path style="opacity:1" fill="#e4c387" d="M 65.5,60.5 C 66.2389,60.369 66.9056,60.5357 67.5,61C 66.3947,63.1203 66.3947,65.2869 67.5,67.5C 65.6316,68.2632 63.9649,69.2632 62.5,70.5C 61.391,70.5569 60.391,70.8902 59.5,71.5C 56.6573,67.5858 57.6573,64.7525 62.5,63C 62.2716,62.6012 61.9382,62.4346 61.5,62.5C 62.5137,61.3263 63.847,60.6596 65.5,60.5 Z"/></g>
<g><path style="opacity:1" fill="#edcd94" d="M 61.5,62.5 C 61.9382,62.4346 62.2716,62.6012 62.5,63C 57.6573,64.7525 56.6573,67.5858 59.5,71.5C 55.4206,73.6226 51.2539,75.6226 47,77.5C 44.2156,76.5269 41.7156,75.1936 39.5,73.5C 40.2905,72.5987 41.2905,71.9321 42.5,71.5C 48.6769,68.2456 55.0103,65.2456 61.5,62.5 Z"/></g>
<g><path style="opacity:1" fill="#7a5d36" d="M 62.5,70.5 C 58.6946,73.4427 54.0279,76.1093 48.5,78.5C 48.1667,78.8333 47.8333,79.1667 47.5,79.5C 48.325,80.3857 49.325,80.719 50.5,80.5C 49.6261,81.5251 48.4595,82.1918 47,82.5C 44.08,81.2893 41.2467,79.956 38.5,78.5C 38.2155,76.5853 38.5489,74.9187 39.5,73.5C 41.7156,75.1936 44.2156,76.5269 47,77.5C 51.2539,75.6226 55.4206,73.6226 59.5,71.5C 60.391,70.8902 61.391,70.5569 62.5,70.5 Z"/></g>
<g><path style="opacity:0.204" fill="#544b3f" d="M 42.5,71.5 C 41.2905,71.9321 40.2905,72.5987 39.5,73.5C 38.5489,74.9187 38.2155,76.5853 38.5,78.5C 37.5489,77.0813 37.2155,75.4147 37.5,73.5C 38.8233,71.3176 40.4899,70.6509 42.5,71.5 Z"/></g>
</svg>
