<?xml version="1.0" encoding="UTF-8"?>
<!DOCTYPE svg PUBLIC "-//W3C//DTD SVG 1.1//EN" "http://www.w3.org/Graphics/SVG/1.1/DTD/svg11.dtd">
<svg xmlns="http://www.w3.org/2000/svg" version="1.1" width="96px" height="96px" style="shape-rendering:geometricPrecision; text-rendering:geometricPrecision; image-rendering:optimizeQuality; fill-rule:evenodd; clip-rule:evenodd" xmlns:xlink="http://www.w3.org/1999/xlink">
<g><path style="opacity:0.461" fill="#434d64" d="M 39.5,-0.5 C 44.8333,-0.5 50.1667,-0.5 55.5,-0.5C 76.7184,4.38478 90.0517,17.3848 95.5,38.5C 95.5,44.5 95.5,50.5 95.5,56.5C 90.1667,77.1667 77.1667,90.1667 56.5,95.5C 50.5,95.5 44.5,95.5 38.5,95.5C 17.3848,90.0517 4.38478,76.7184 -0.5,55.5C -0.5,50.1667 -0.5,44.8333 -0.5,39.5C 5.16667,18.5 18.5,5.16667 39.5,-0.5 Z"/></g>
<g><path style="opacity:1" fill="#d8d6e6" d="M 66.5,18.5 C 67.4861,22.97 67.8195,27.6367 67.5,32.5C 64.8127,32.3359 62.146,32.5026 59.5,33C 58.8333,34 58.1667,35 57.5,36C 55.6183,36.1981 53.9516,36.6981 52.5,37.5C 48.038,36.8466 43.7047,35.6799 39.5,34C 34.0552,31.8898 32.2219,28.0564 34,22.5C 34.9299,20.4476 36.4299,18.9476 38.5,18C 49.3773,15.7189 56.3773,19.8855 59.5,30.5C 61.7427,31.4742 64.076,31.8076 66.5,31.5C 66.5,27.1667 66.5,22.8333 66.5,18.5 Z"/></g>
<g><path style="opacity:1" fill="#d2dbe8" d="M 77.5,14.5 C 90.4163,25.4035 95.2496,39.4035 92,56.5C 89.4649,68.9236 82.9649,78.5903 72.5,85.5C 72.0113,84.0048 71.3446,82.6715 70.5,81.5C 80.6145,74.6261 83.6145,65.2927 79.5,53.5C 80.4646,52.2789 80.298,50.9456 79,49.5C 77.8333,48.3333 76.6667,47.1667 75.5,46C 76.1778,35.5004 76.8444,25.0004 77.5,14.5 Z"/></g>
<g><path style="opacity:1" fill="#e9dbeb" d="M 31.5,5.5 C 32.2389,5.36899 32.9056,5.53566 33.5,6C 31.0448,7.31156 28.5448,8.47823 26,9.5C 25.3224,11.5976 25.4891,13.5976 26.5,15.5C 20.3828,22.5267 18.8828,30.5267 22,39.5C 25.5298,46.1902 31.0298,50.3569 38.5,52C 39.0659,52.9947 39.7326,53.828 40.5,54.5C 40.85,58.8248 42.5167,62.4915 45.5,65.5C 45.5,66.5 45.5,67.5 45.5,68.5C 44.2223,68.2178 43.2223,67.5511 42.5,66.5C 38.9792,65.8337 35.3125,65.1671 31.5,64.5C 30.2944,59.3255 26.961,57.3255 21.5,58.5C 21.5,63.1667 21.5,67.8333 21.5,72.5C 21.5,76.1667 21.5,79.8333 21.5,83.5C 24.1873,83.3359 26.854,83.5026 29.5,84C 27.6992,84.3173 27.3659,84.984 28.5,86C 26.9813,85.6692 25.648,85.8359 24.5,86.5C 7.04294,74.901 -0.123728,58.5677 3,37.5C 7.42922,22.2416 16.9292,11.5749 31.5,5.5 Z"/></g>
<g><path style="opacity:1" fill="#2c4779" d="M 66.5,18.5 C 66.5,22.8333 66.5,27.1667 66.5,31.5C 64.076,31.8076 61.7427,31.4742 59.5,30.5C 56.3773,19.8855 49.3773,15.7189 38.5,18C 36.4299,18.9476 34.9299,20.4476 34,22.5C 32.2219,28.0564 34.0552,31.8898 39.5,34C 43.7047,35.6799 48.038,36.8466 52.5,37.5C 53.2625,38.2679 54.2625,38.7679 55.5,39C 52.342,40.4695 49.0086,41.4695 45.5,42C 43.9926,42.8373 43.4926,44.0039 44,45.5C 47.0751,41.9483 50.5751,41.6149 54.5,44.5C 57.4337,47.1322 58.1004,50.1322 56.5,53.5C 52.3348,49.4418 47.6682,48.9418 42.5,52C 41.9341,52.9947 41.2674,53.828 40.5,54.5C 39.7326,53.828 39.0659,52.9947 38.5,52C 31.0298,50.3569 25.5298,46.1902 22,39.5C 18.8828,30.5267 20.3828,22.5267 26.5,15.5C 36.3294,8.37661 46.6628,7.70995 57.5,13.5C 59.9202,10.9228 62.9202,9.92278 66.5,10.5C 66.5,13.1667 66.5,15.8333 66.5,18.5 Z"/></g>
<g><path style="opacity:1" fill="#659dc4" d="M 43.5,22.5 C 47.2566,20.9513 49.5899,22.2846 50.5,26.5C 45.8553,27.3307 44.8553,26.1641 47.5,23C 46.2068,22.51 44.8734,22.3433 43.5,22.5 Z"/></g>
<g><path style="opacity:1" fill="#28467a" d="M 43.5,22.5 C 44.8734,22.3433 46.2068,22.51 47.5,23C 44.8553,26.1641 45.8553,27.3307 50.5,26.5C 47.3395,31.7925 44.0062,31.7925 40.5,26.5C 41.5207,25.0986 42.5207,23.7653 43.5,22.5 Z"/></g>
<g><path style="opacity:1" fill="#dadbe9" d="M 77.5,14.5 C 76.8444,25.0004 76.1778,35.5004 75.5,46C 76.6667,47.1667 77.8333,48.3333 79,49.5C 80.298,50.9456 80.4646,52.2789 79.5,53.5C 77.4784,49.4784 74.4784,46.4784 70.5,44.5C 67.1265,42.1377 63.4598,40.1377 59.5,38.5C 57.3926,37.5318 55.0593,37.1984 52.5,37.5C 53.9516,36.6981 55.6183,36.1981 57.5,36C 58.1667,35 58.8333,34 59.5,33C 62.146,32.5026 64.8127,32.3359 67.5,32.5C 67.8195,27.6367 67.4861,22.97 66.5,18.5C 66.5,15.8333 66.5,13.1667 66.5,10.5C 62.9202,9.92278 59.9202,10.9228 57.5,13.5C 46.6628,7.70995 36.3294,8.37661 26.5,15.5C 25.4891,13.5976 25.3224,11.5976 26,9.5C 28.5448,8.47823 31.0448,7.31156 33.5,6C 32.9056,5.53566 32.2389,5.36899 31.5,5.5C 45.1984,0.7899 58.5317,1.95657 71.5,9C 73.9962,10.331 75.9962,12.1644 77.5,14.5 Z"/></g>
<g><path style="opacity:1" fill="#83bce3" d="M 52.5,37.5 C 55.0593,37.1984 57.3926,37.5318 59.5,38.5C 58.2617,38.81 58.2617,39.31 59.5,40C 62.9605,42.0655 66.6272,43.5655 70.5,44.5C 76.5748,50.5673 78.7414,57.9007 77,66.5C 75.4263,67.9842 74.093,69.6508 73,71.5C 74.3,67.7232 74.6333,63.7232 74,59.5C 72.4263,58.0158 71.093,56.3492 70,54.5C 69.6667,57.5 69.3333,60.5 69,63.5C 68.5814,64.6721 67.9147,65.6721 67,66.5C 66.7031,63.086 66.0365,59.7527 65,56.5C 62.5577,52.8527 59.7244,52.5194 56.5,55.5C 56.5,54.8333 56.5,54.1667 56.5,53.5C 58.1004,50.1322 57.4337,47.1322 54.5,44.5C 50.5751,41.6149 47.0751,41.9483 44,45.5C 43.4926,44.0039 43.9926,42.8373 45.5,42C 49.0086,41.4695 52.342,40.4695 55.5,39C 54.2625,38.7679 53.2625,38.2679 52.5,37.5 Z"/></g>
<g><path style="opacity:1" fill="#2d477a" d="M 55.5,40.5 C 58.179,40.5246 59.5123,41.858 59.5,44.5C 56.5,44.8333 55.1667,43.5 55.5,40.5 Z"/></g>
<g><path style="opacity:1" fill="#284275" d="M 59.5,38.5 C 63.4598,40.1377 67.1265,42.1377 70.5,44.5C 66.6272,43.5655 62.9605,42.0655 59.5,40C 58.2617,39.31 58.2617,38.81 59.5,38.5 Z"/></g>
<g><path style="opacity:1" fill="#9acfe7" d="M 56.5,53.5 C 56.5,54.1667 56.5,54.8333 56.5,55.5C 56.5,57.1667 56.5,58.8333 56.5,60.5C 55.0689,60.1193 54.2355,59.1193 54,57.5C 53.5357,58.0944 53.369,58.7611 53.5,59.5C 52.0529,56.5088 49.5529,54.8421 46,54.5C 44.9701,54.8361 44.4701,55.5028 44.5,56.5C 44.6741,58.861 45.0074,61.1944 45.5,63.5C 45.5,64.1667 45.5,64.8333 45.5,65.5C 42.5167,62.4915 40.85,58.8248 40.5,54.5C 41.2674,53.828 41.9341,52.9947 42.5,52C 47.6682,48.9418 52.3348,49.4418 56.5,53.5 Z"/></g>
<g><path style="opacity:1" fill="#2d4879" d="M 70.5,44.5 C 74.4784,46.4784 77.4784,49.4784 79.5,53.5C 83.6145,65.2927 80.6145,74.6261 70.5,81.5C 68.5,82.5 66.5,83.5 64.5,84.5C 63.7611,84.631 63.0944,84.4643 62.5,84C 70.4959,80.445 70.3292,79.945 62,82.5C 59.6667,81.5 57.3333,80.5 55,79.5C 53.9889,80.0556 53.1556,80.7222 52.5,81.5C 50.7243,76.8152 48.3909,72.4818 45.5,68.5C 45.5,67.5 45.5,66.5 45.5,65.5C 45.5,64.8333 45.5,64.1667 45.5,63.5C 46.9778,63.762 48.3112,63.4287 49.5,62.5C 48.291,60.0592 46.6243,58.0592 44.5,56.5C 44.4701,55.5028 44.9701,54.8361 46,54.5C 49.5529,54.8421 52.0529,56.5088 53.5,59.5C 53.7908,66.0789 55.7908,72.0789 59.5,77.5C 60.4654,80.0848 61.7988,80.5848 63.5,79C 61.5835,75.0527 59.5835,71.2193 57.5,67.5C 57.0074,65.1944 56.6741,62.861 56.5,60.5C 56.5,58.8333 56.5,57.1667 56.5,55.5C 59.7244,52.5194 62.5577,52.8527 65,56.5C 66.0365,59.7527 66.7031,63.086 67,66.5C 67.9147,65.6721 68.5814,64.6721 69,63.5C 69.3333,60.5 69.6667,57.5 70,54.5C 71.093,56.3492 72.4263,58.0158 74,59.5C 74.6333,63.7232 74.3,67.7232 73,71.5C 74.093,69.6508 75.4263,67.9842 77,66.5C 78.7414,57.9007 76.5748,50.5673 70.5,44.5 Z"/></g>
<g><path style="opacity:1" fill="#2b4677" d="M 42.5,66.5 C 44.1114,70.9955 46.1114,75.3289 48.5,79.5C 47.7611,79.631 47.0944,79.4643 46.5,79C 45.624,77.414 44.624,75.914 43.5,74.5C 42.8076,75.0253 42.3076,75.6919 42,76.5C 40.0053,74.8231 37.8386,73.3231 35.5,72C 36.5,71.1667 37.5,70.3333 38.5,69.5C 33.1009,64.8582 31.6009,65.8582 34,72.5C 35.8333,74.8333 37.6667,77.1667 39.5,79.5C 39.0431,80.2975 38.3764,80.6309 37.5,80.5C 35.6336,79.9862 33.8003,79.3195 32,78.5C 29.7637,81.7694 26.597,83.1028 22.5,82.5C 22.8128,78.9581 22.4794,75.6248 21.5,72.5C 21.5,67.8333 21.5,63.1667 21.5,58.5C 26.961,57.3255 30.2944,59.3255 31.5,64.5C 35.3125,65.1671 38.9792,65.8337 42.5,66.5 Z"/></g>
<g><path style="opacity:1" fill="#e7e1ed" d="M 44.5,56.5 C 46.6243,58.0592 48.291,60.0592 49.5,62.5C 48.3112,63.4287 46.9778,63.762 45.5,63.5C 45.0074,61.1944 44.6741,58.861 44.5,56.5 Z"/></g>
<g><path style="opacity:1" fill="#d3eff5" d="M 56.5,60.5 C 56.6741,62.861 57.0074,65.1944 57.5,67.5C 57.6294,70.7659 58.6294,73.7659 60.5,76.5C 60.3764,77.1067 60.0431,77.44 59.5,77.5C 55.7908,72.0789 53.7908,66.0789 53.5,59.5C 53.369,58.7611 53.5357,58.0944 54,57.5C 54.2355,59.1193 55.0689,60.1193 56.5,60.5 Z"/></g>
<g><path style="opacity:1" fill="#a3d4e5" d="M 57.5,67.5 C 59.5835,71.2193 61.5835,75.0527 63.5,79C 61.7988,80.5848 60.4654,80.0848 59.5,77.5C 60.0431,77.44 60.3764,77.1067 60.5,76.5C 58.6294,73.7659 57.6294,70.7659 57.5,67.5 Z"/></g>
<g><path style="opacity:1" fill="#b2ddeb" d="M 42.5,66.5 C 43.2223,67.5511 44.2223,68.2178 45.5,68.5C 48.3909,72.4818 50.7243,76.8152 52.5,81.5C 50.7084,82.4728 49.375,81.8061 48.5,79.5C 46.1114,75.3289 44.1114,70.9955 42.5,66.5 Z"/></g>
<g><path style="opacity:1" fill="#365489" d="M 48.5,79.5 C 49.375,81.8061 50.7084,82.4728 52.5,81.5C 53.1556,80.7222 53.9889,80.0556 55,79.5C 57.3333,80.5 59.6667,81.5 62,82.5C 70.3292,79.945 70.4959,80.445 62.5,84C 63.0944,84.4643 63.7611,84.631 64.5,84.5C 60.7561,86.1522 56.7561,86.6522 52.5,86C 47.5863,83.7281 42.5863,81.8948 37.5,80.5C 38.3764,80.6309 39.0431,80.2975 39.5,79.5C 37.6667,77.1667 35.8333,74.8333 34,72.5C 31.6009,65.8582 33.1009,64.8582 38.5,69.5C 37.5,70.3333 36.5,71.1667 35.5,72C 37.8386,73.3231 40.0053,74.8231 42,76.5C 42.3076,75.6919 42.8076,75.0253 43.5,74.5C 44.624,75.914 45.624,77.414 46.5,79C 47.0944,79.4643 47.7611,79.631 48.5,79.5 Z"/></g>
<g><path style="opacity:1" fill="#dfdae9" d="M 21.5,72.5 C 22.4794,75.6248 22.8128,78.9581 22.5,82.5C 26.597,83.1028 29.7637,81.7694 32,78.5C 33.8003,79.3195 35.6336,79.9862 37.5,80.5C 42.5863,81.8948 47.5863,83.7281 52.5,86C 56.7561,86.6522 60.7561,86.1522 64.5,84.5C 66.5,83.5 68.5,82.5 70.5,81.5C 71.3446,82.6715 72.0113,84.0048 72.5,85.5C 60.3476,92.5542 47.3476,94.3875 33.5,91C 30.1943,90.0138 27.1943,88.5138 24.5,86.5C 25.648,85.8359 26.9813,85.6692 28.5,86C 27.3659,84.984 27.6992,84.3173 29.5,84C 26.854,83.5026 24.1873,83.3359 21.5,83.5C 21.5,79.8333 21.5,76.1667 21.5,72.5 Z"/></g>
</svg>
