<?xml version="1.0" encoding="UTF-8"?>
<!DOCTYPE svg PUBLIC "-//W3C//DTD SVG 1.1//EN" "http://www.w3.org/Graphics/SVG/1.1/DTD/svg11.dtd">
<svg xmlns="http://www.w3.org/2000/svg" version="1.1" width="96px" height="96px" style="shape-rendering:geometricPrecision; text-rendering:geometricPrecision; image-rendering:optimizeQuality; fill-rule:evenodd; clip-rule:evenodd" xmlns:xlink="http://www.w3.org/1999/xlink">
<g><path style="opacity:1" fill="#9dbdc0" d="M 40.5,-0.5 C 45.5,-0.5 50.5,-0.5 55.5,-0.5C 76.9435,5.27658 90.2768,18.9432 95.5,40.5C 95.5,45.1667 95.5,49.8333 95.5,54.5C 89.5,75.8333 75.8333,89.5 54.5,95.5C 49.8333,95.5 45.1667,95.5 40.5,95.5C 19.1792,89.5126 5.51257,75.8459 -0.5,54.5C -0.5,49.5 -0.5,44.5 -0.5,39.5C 3.44258,25.4561 11.4426,14.2895 23.5,6C 29.1596,3.50734 34.8263,1.34067 40.5,-0.5 Z"/></g>
<g><path style="opacity:1" fill="#b4aaa7" d="M 38.5,34.5 C 36.2646,34.2053 34.2646,34.5386 32.5,35.5C 32.5,36.8333 32.5,38.1667 32.5,39.5C 28.9944,35.9889 24.9944,34.9889 20.5,36.5C 19.9569,36.44 19.6236,36.1067 19.5,35.5C 20.6053,34.1076 21.9386,32.941 23.5,32C 22.3157,30.8545 22.3157,29.6879 23.5,28.5C 24.4959,28.4142 25.3292,28.7476 26,29.5C 26.8996,27.6025 28.0663,25.9358 29.5,24.5C 30.6039,25.6313 30.2705,26.4646 28.5,27C 33.5833,27.356 36.9167,29.856 38.5,34.5 Z"/></g>
<g><path style="opacity:1" fill="#ebebe4" d="M 73.5,29.5 C 71.8467,28.3955 70.18,28.2288 68.5,29C 67.3595,28.2588 67.3595,27.4255 68.5,26.5C 66.0435,23.7777 65.3769,23.9443 66.5,27C 60.7974,27.8727 57.1308,31.0394 55.5,36.5C 54.7659,37.7079 54.4326,39.0413 54.5,40.5C 53.4284,42.9358 54.095,45.1025 56.5,47C 58.8098,47.4966 61.1432,47.6633 63.5,47.5C 57.5498,51.9836 52.2164,51.317 47.5,45.5C 44.2427,49.8645 39.9094,51.3645 34.5,50C 33.4293,49.1482 32.4293,48.3149 31.5,47.5C 37.3077,48.8455 40.9743,46.6789 42.5,41C 42.2716,40.6012 41.9382,40.4346 41.5,40.5C 41.3404,38.847 40.6737,37.5137 39.5,36.5C 39.6716,35.5084 39.3382,34.8417 38.5,34.5C 36.9167,29.856 33.5833,27.356 28.5,27C 30.2705,26.4646 30.6039,25.6313 29.5,24.5C 28.0663,25.9358 26.8996,27.6025 26,29.5C 25.3292,28.7476 24.4959,28.4142 23.5,28.5C 26.3128,24.1862 30.1461,21.1862 35,19.5C 37.0684,20.3936 39.2351,21.0603 41.5,21.5C 46.6102,17.1032 52.1102,16.7699 58,20.5C 60.5333,19.0102 62.3666,19.6769 63.5,22.5C 65.1151,23.154 66.7818,23.654 68.5,24C 69.7619,26.276 71.4286,28.1093 73.5,29.5 Z"/></g>
<g><path style="opacity:1" fill="#625e5d" d="M 50.5,26.5 C 51.3864,25.2241 52.3864,25.2241 53.5,26.5C 52.5754,27.5624 51.5754,27.5624 50.5,26.5 Z"/></g>
<g><path style="opacity:1" fill="#767171" d="M 41.5,25.5 C 46.0214,25.3262 46.3548,25.9929 42.5,27.5C 41.7025,27.0431 41.3691,26.3764 41.5,25.5 Z"/></g>
<g><path style="opacity:1" fill="#524e4b" d="M 54.5,24.5 C 55.3864,23.2241 56.3864,23.2241 57.5,24.5C 56.5754,25.5624 55.5754,25.5624 54.5,24.5 Z"/></g>
<g><path style="opacity:1" fill="#605c5a" d="M 37.5,23.5 C 40.7973,23.3287 41.1306,23.9954 38.5,25.5C 37.7025,25.0431 37.3691,24.3764 37.5,23.5 Z"/></g>
<g><path style="opacity:1" fill="#726d6c" d="M 33.5,22.5 C 37.2434,22.4592 37.4101,23.1259 34,24.5C 33.5357,23.9056 33.369,23.2389 33.5,22.5 Z"/></g>
<g><path style="opacity:1" fill="#716d6b" d="M 52.5,19.5 C 54.9828,19.73 55.4828,20.3966 54,21.5C 52.9701,21.1639 52.4701,20.4972 52.5,19.5 Z"/></g>
<g><path style="opacity:1" fill="#ada19c" d="M 73.5,29.5 C 73.5,29.8333 73.5,30.1667 73.5,30.5C 72.2086,31.4728 72.2086,32.4728 73.5,33.5C 69.3626,34.7335 65.6959,36.7335 62.5,39.5C 62.5,38.1667 62.5,36.8333 62.5,35.5C 60.5853,35.2155 58.9187,35.5489 57.5,36.5C 56.8333,36.5 56.1667,36.5 55.5,36.5C 57.1308,31.0394 60.7974,27.8727 66.5,27C 65.3769,23.9443 66.0435,23.7777 68.5,26.5C 67.3595,27.4255 67.3595,28.2588 68.5,29C 70.18,28.2288 71.8467,28.3955 73.5,29.5 Z"/></g>
<g><path style="opacity:1" fill="#6b593e" d="M 32.5,35.5 C 34.2646,34.5386 36.2646,34.2053 38.5,34.5C 39.3382,34.8417 39.6716,35.5084 39.5,36.5C 38.8333,36.5 38.1667,36.5 37.5,36.5C 36.0813,35.5489 34.4147,35.2155 32.5,35.5 Z"/></g>
<g><path style="opacity:1" fill="#efb551" d="M 57.5,36.5 C 58.9187,35.5489 60.5853,35.2155 62.5,35.5C 62.5,36.8333 62.5,38.1667 62.5,39.5C 61.8826,39.6107 61.3826,39.944 61,40.5C 60.8784,38.563 60.045,37.2297 58.5,36.5C 58.1667,36.5 57.8333,36.5 57.5,36.5 Z"/></g>
<g><path style="opacity:1" fill="#f8f8f8" d="M 73.5,30.5 C 73.5977,34.047 74.931,37.3804 77.5,40.5C 74.7155,42.2714 72.7155,44.7714 71.5,48C 68.9184,47.7446 66.2518,47.578 63.5,47.5C 61.1432,47.6633 58.8098,47.4966 56.5,47C 54.095,45.1025 53.4284,42.9358 54.5,40.5C 54.5,41.1667 54.8333,41.5 55.5,41.5C 56.9464,42.6129 58.6131,42.7796 60.5,42C 61.756,41.5831 62.4226,40.7498 62.5,39.5C 65.6959,36.7335 69.3626,34.7335 73.5,33.5C 72.2086,32.4728 72.2086,31.4728 73.5,30.5 Z"/></g>
<g><path style="opacity:1" fill="#e7ac4c" d="M 55.5,36.5 C 56.1667,36.5 56.8333,36.5 57.5,36.5C 56.375,37.6522 56.375,38.6522 57.5,39.5C 57.9175,40.2216 58.5842,40.7216 59.5,41C 58.2068,41.49 56.8734,41.6567 55.5,41.5C 54.8333,41.5 54.5,41.1667 54.5,40.5C 54.4326,39.0413 54.7659,37.7079 55.5,36.5 Z"/></g>
<g><path style="opacity:1" fill="#342d28" d="M 57.5,36.5 C 57.8333,36.5 58.1667,36.5 58.5,36.5C 60.129,38.1959 59.7957,39.1959 57.5,39.5C 56.375,38.6522 56.375,37.6522 57.5,36.5 Z"/></g>
<g><path style="opacity:1" fill="#d7a755" d="M 32.5,35.5 C 34.4147,35.2155 36.0813,35.5489 37.5,36.5C 38.1667,36.5 38.8333,36.5 39.5,36.5C 40.6737,37.5137 41.3404,38.847 41.5,40.5C 38.1524,43.3623 35.1524,43.029 32.5,39.5C 32.5,38.1667 32.5,36.8333 32.5,35.5 Z"/></g>
<g><path style="opacity:1" fill="#322a29" d="M 37.5,36.5 C 37.4142,37.4959 37.7476,38.3292 38.5,39C 37.552,39.4828 36.552,39.6495 35.5,39.5C 35.2852,37.8212 35.9519,36.8212 37.5,36.5 Z"/></g>
<g><path style="opacity:1" fill="#b49566" d="M 58.5,36.5 C 60.045,37.2297 60.8784,38.563 61,40.5C 61.3826,39.944 61.8826,39.6107 62.5,39.5C 62.4226,40.7498 61.756,41.5831 60.5,42C 58.6131,42.7796 56.9464,42.6129 55.5,41.5C 56.8734,41.6567 58.2068,41.49 59.5,41C 58.5842,40.7216 57.9175,40.2216 57.5,39.5C 59.7957,39.1959 60.129,38.1959 58.5,36.5 Z"/></g>
<g><path style="opacity:1" fill="#f7f7f7" d="M 32.5,39.5 C 35.1524,43.029 38.1524,43.3623 41.5,40.5C 41.9382,40.4346 42.2716,40.6012 42.5,41C 40.9743,46.6789 37.3077,48.8455 31.5,47.5C 29.0799,47.2924 26.7466,47.6258 24.5,48.5C 22.3291,46.1604 20.6625,43.4937 19.5,40.5C 19.5279,42.8473 19.5279,45.1806 19.5,47.5C 19.5569,48.609 19.8902,49.609 20.5,50.5C 23.586,52.0089 26.586,54.5089 29.5,58C 37.6526,62.2887 46.3192,63.6221 55.5,62C 59.889,60.9715 63.889,59.1381 67.5,56.5C 69.5046,59.0278 71.1713,58.6945 72.5,55.5C 71.9747,54.8076 71.3081,54.3076 70.5,54C 71.5908,52.4499 72.9242,51.2832 74.5,50.5C 75.8333,49.5 75.8333,48.5 74.5,47.5C 74.7376,45.5956 75.7376,44.2623 77.5,43.5C 78.4269,49.8111 78.5935,56.1444 78,62.5C 77.3076,63.0253 76.8076,63.6919 76.5,64.5C 78.0298,66.2262 79.0298,68.2262 79.5,70.5C 79.3764,71.1067 79.0431,71.44 78.5,71.5C 76.9748,70.6112 75.9748,71.2779 75.5,73.5C 75.6107,74.1174 75.944,74.6174 76.5,75C 72.5931,78.2044 68.4265,81.0377 64,83.5C 63.3992,81.6412 62.5659,81.3079 61.5,82.5C 60.8333,82.5 60.1667,82.5 59.5,82.5C 58.5732,84.5762 56.9065,85.7428 54.5,86C 49.1667,86.6667 43.8333,86.6667 38.5,86C 37.2625,85.7679 36.2625,85.2679 35.5,84.5C 36.0431,84.44 36.3764,84.1067 36.5,83.5C 35.2342,82.6376 33.9008,81.9709 32.5,81.5C 31.7784,81.9175 31.2784,82.5842 31,83.5C 26.8851,81.0524 23.0518,78.2191 19.5,75C 20.7736,74.0228 20.7736,73.1894 19.5,72.5C 19.1667,71.5 18.5,70.8333 17.5,70.5C 16.6365,71.463 15.9698,71.463 15.5,70.5C 16.3372,68.1558 17.6706,66.1558 19.5,64.5C 17.3424,61.2571 17.0091,57.9237 18.5,54.5C 20.4386,56.9891 20.7719,56.6558 19.5,53.5C 17.4768,48.7983 16.9768,43.7983 18,38.5C 18.9947,37.9341 19.828,37.2674 20.5,36.5C 24.9944,34.9889 28.9944,35.9889 32.5,39.5 Z"/></g>
<g><path style="opacity:1" fill="#3e3a38" d="M 19.5,47.5 C 21.3818,48.221 21.7152,49.221 20.5,50.5C 19.8902,49.609 19.5569,48.609 19.5,47.5 Z"/></g>
<g><path style="opacity:1" fill="#b4a9a6" d="M 31.5,47.5 C 32.4293,48.3149 33.4293,49.1482 34.5,50C 39.9094,51.3645 44.2427,49.8645 47.5,45.5C 52.2164,51.317 57.5498,51.9836 63.5,47.5C 66.2518,47.578 68.9184,47.7446 71.5,48C 72.7155,44.7714 74.7155,42.2714 77.5,40.5C 77.5,41.5 77.5,42.5 77.5,43.5C 75.7376,44.2623 74.7376,45.5956 74.5,47.5C 73.8843,48.7978 73.8843,49.7978 74.5,50.5C 72.9242,51.2832 71.5908,52.4499 70.5,54C 71.3081,54.3076 71.9747,54.8076 72.5,55.5C 71.1713,58.6945 69.5046,59.0278 67.5,56.5C 63.889,59.1381 59.889,60.9715 55.5,62C 46.3192,63.6221 37.6526,62.2887 29.5,58C 26.586,54.5089 23.586,52.0089 20.5,50.5C 21.7152,49.221 21.3818,48.221 19.5,47.5C 19.5279,45.1806 19.5279,42.8473 19.5,40.5C 20.6625,43.4937 22.3291,46.1604 24.5,48.5C 26.7466,47.6258 29.0799,47.2924 31.5,47.5 Z"/></g>
<g><path style="opacity:1" fill="#423f3e" d="M 74.5,47.5 C 75.8333,48.5 75.8333,49.5 74.5,50.5C 73.8843,49.7978 73.8843,48.7978 74.5,47.5 Z"/></g>
<g><path style="opacity:1" fill="#544f4d" d="M 76.5,52.5 C 77.522,53.8917 77.1887,55.225 75.5,56.5C 75.1667,56.3333 74.8333,56.1667 74.5,56C 75.305,54.8873 75.9717,53.7206 76.5,52.5 Z"/></g>
<g><path style="opacity:1" fill="#46403e" d="M 19.5,53.5 C 20.7719,56.6558 20.4386,56.9891 18.5,54.5C 18.5,53.8333 18.8333,53.5 19.5,53.5 Z"/></g>
<g><path style="opacity:1" fill="#1d1a19" d="M 23.5,54.5 C 24.6266,55.1217 25.6266,55.955 26.5,57C 24.5106,57.5192 23.5106,56.6859 23.5,54.5 Z"/></g>
<g><path style="opacity:1" fill="#44403f" d="M 20.5,59.5 C 21.6266,60.1217 22.6266,60.955 23.5,62C 21.5106,62.5192 20.5106,61.6859 20.5,59.5 Z"/></g>
<g><path style="opacity:1" fill="#2c2826" d="M 73.5,59.5 C 75.6569,60.0533 75.4903,61.0533 73,62.5C 72.5304,61.4232 72.6971,60.4232 73.5,59.5 Z"/></g>
<g><path style="opacity:1" fill="#2e2c2a" d="M 26.5,62.5 C 28.2554,63.0722 29.9221,63.9055 31.5,65C 28.7383,66.0769 27.0717,65.2436 26.5,62.5 Z"/></g>
<g><path style="opacity:1" fill="#1a1817" d="M 67.5,62.5 C 68.7736,63.1894 68.7736,64.0228 67.5,65C 66.5,65.6667 65.5,65.6667 64.5,65C 65.5707,64.1482 66.5707,63.3149 67.5,62.5 Z"/></g>
<g><path style="opacity:1" fill="#211e1d" d="M 21.5,68.5 C 22.7434,67.2625 23.7434,67.5959 24.5,69.5C 24.1667,69.8333 23.8333,70.1667 23.5,70.5C 22.8182,69.7573 22.1515,69.0906 21.5,68.5 Z"/></g>
<g><path style="opacity:1" fill="#242220" d="M 71.5,67.5 C 74.0118,68.2162 74.0118,69.2162 71.5,70.5C 70.913,69.7666 70.913,68.7666 71.5,67.5 Z"/></g>
<g><path style="opacity:1" fill="#2a2827" d="M 17.5,70.5 C 18.5,70.8333 19.1667,71.5 19.5,72.5C 19.44,73.0431 19.1067,73.3764 18.5,73.5C 17.6143,72.675 17.281,71.675 17.5,70.5 Z"/></g>
<g><path style="opacity:1" fill="#232120" d="M 31.5,70.5 C 33.0898,70.6282 34.4231,71.2949 35.5,72.5C 33.1671,73.9415 31.8338,73.2748 31.5,70.5 Z"/></g>
<g><path style="opacity:1" fill="#3a3736" d="M 61.5,70.5 C 65.0361,70.9381 64.8694,71.9381 61,73.5C 60.5,73.1667 60,72.8333 59.5,72.5C 60.2427,71.8182 60.9094,71.1515 61.5,70.5 Z"/></g>
<g><path style="opacity:1" fill="#2b2624" d="M 78.5,71.5 C 78.0269,72.9063 77.0269,73.573 75.5,73.5C 75.9748,71.2779 76.9748,70.6112 78.5,71.5 Z"/></g>
<g><path style="opacity:1" fill="#151110" d="M 25.5,76.5 C 26.7211,75.5354 28.0544,75.702 29.5,77C 28.0715,77.5791 26.7382,77.4124 25.5,76.5 Z"/></g>
<g><path style="opacity:1" fill="#161515" d="M 67.5,75.5 C 68.3764,75.3691 69.0431,75.7025 69.5,76.5C 67.1916,77.8734 66.5249,77.5401 67.5,75.5 Z"/></g>
<g><path style="opacity:1" fill="#272423" d="M 38.5,76.5 C 40.2554,77.0722 41.9221,77.9055 43.5,79C 40.7383,80.0769 39.0717,79.2436 38.5,76.5 Z"/></g>
<g><path style="opacity:1" fill="#1b1817" d="M 52.5,77.5 C 56.5878,77.2184 57.0878,77.8851 54,79.5C 52.9701,79.1639 52.4701,78.4972 52.5,77.5 Z"/></g>
<g><path style="opacity:1" fill="#2a2422" d="M 32.5,81.5 C 33.9008,81.9709 35.2342,82.6376 36.5,83.5C 36.3764,84.1067 36.0431,84.44 35.5,84.5C 33.5,84.5 32.5,83.5 32.5,81.5 Z"/></g>
<g><path style="opacity:1" fill="#211a18" d="M 59.5,82.5 C 60.1667,82.5 60.8333,82.5 61.5,82.5C 62.4782,83.2971 62.1449,83.9638 60.5,84.5C 59.7025,84.0431 59.3691,83.3764 59.5,82.5 Z"/></g>
<g><path style="opacity:1" fill="#565453" d="M 44.5,82.5 C 46.604,82.2011 48.604,82.5344 50.5,83.5C 49.3073,85.3837 47.6406,85.8837 45.5,85C 44.7476,84.3292 44.4142,83.4959 44.5,82.5 Z"/></g>
</svg>
