<?xml version="1.0" encoding="UTF-8"?>
<!DOCTYPE svg PUBLIC "-//W3C//DTD SVG 1.1//EN" "http://www.w3.org/Graphics/SVG/1.1/DTD/svg11.dtd">
<svg xmlns="http://www.w3.org/2000/svg" version="1.1" width="96px" height="96px" style="shape-rendering:geometricPrecision; text-rendering:geometricPrecision; image-rendering:optimizeQuality; fill-rule:evenodd; clip-rule:evenodd" xmlns:xlink="http://www.w3.org/1999/xlink">
<g><path style="opacity:0.997" fill="#fdfdfd" d="M -0.5,-0.5 C 31.5,-0.5 63.5,-0.5 95.5,-0.5C 95.5,31.5 95.5,63.5 95.5,95.5C 63.5,95.5 31.5,95.5 -0.5,95.5C -0.5,63.5 -0.5,31.5 -0.5,-0.5 Z"/></g>
<g><path style="opacity:1" fill="#944a47" d="M 54.5,11.5 C 54.5,12.5 54.5,13.5 54.5,14.5C 49.4516,14.8416 44.4516,15.5082 39.5,16.5C 41.6915,15.1314 44.0248,14.1314 46.5,13.5C 48.8333,13.5 51.1667,13.5 53.5,13.5C 53.5,12.5 53.5,11.5 53.5,10.5C 52.7298,8.06464 51.0632,6.73131 48.5,6.5C 43.0116,6.24785 37.6782,6.91452 32.5,8.5C 33.6002,7.44153 34.9336,6.6082 36.5,6C 41.5,5.33333 46.5,5.33333 51.5,6C 53.6709,7.17389 54.6709,9.00722 54.5,11.5 Z"/></g>
<g><path style="opacity:1" fill="#facfc8" d="M 48.5,6.5 C 51.0632,6.73131 52.7298,8.06464 53.5,10.5C 51.2512,9.92022 49.5846,8.58689 48.5,6.5 Z"/></g>
<g><path style="opacity:1" fill="#f3716b" d="M 48.5,6.5 C 49.5846,8.58689 51.2512,9.92022 53.5,10.5C 53.5,11.5 53.5,12.5 53.5,13.5C 51.1667,13.5 48.8333,13.5 46.5,13.5C 44.1432,13.3367 41.8098,13.5034 39.5,14C 36.2416,15.4665 32.9083,16.6332 29.5,17.5C 29.1289,13.9966 30.1289,10.9966 32.5,8.5C 37.6782,6.91452 43.0116,6.24785 48.5,6.5 Z"/></g>
<g><path style="opacity:1" fill="#aaa1a1" d="M 62.5,17.5 C 59.4649,17.4607 56.7982,16.4607 54.5,14.5C 54.5,13.5 54.5,12.5 54.5,11.5C 56.3841,11.2882 57.7174,10.2882 58.5,8.5C 59.7596,10.3529 59.7596,12.1862 58.5,14C 60.0931,14.9487 61.4264,16.1154 62.5,17.5 Z"/></g>
<g><path style="opacity:1" fill="#ad332d" d="M 32.5,8.5 C 30.1289,10.9966 29.1289,13.9966 29.5,17.5C 32.9083,16.6332 36.2416,15.4665 39.5,14C 41.8098,13.5034 44.1432,13.3367 46.5,13.5C 44.0248,14.1314 41.6915,15.1314 39.5,16.5C 34.5499,17.305 30.5499,19.6383 27.5,23.5C 26.8333,23.5 26.1667,23.5 25.5,23.5C 22.1045,15.953 24.4378,10.953 32.5,8.5 Z"/></g>
<g><path style="opacity:1" fill="#f0726d" d="M 54.5,14.5 C 56.7982,16.4607 59.4649,17.4607 62.5,17.5C 62.5,17.8333 62.5,18.1667 62.5,18.5C 60.3382,19.4171 58.0048,19.4171 55.5,18.5C 52.6965,17.3622 49.6965,17.1955 46.5,18C 43.7789,20.0272 40.7789,21.5272 37.5,22.5C 36.3744,21.1916 36.3744,19.8583 37.5,18.5C 38.5,18.1667 39.1667,17.5 39.5,16.5C 44.4516,15.5082 49.4516,14.8416 54.5,14.5 Z"/></g>
<g><path style="opacity:1" fill="#752526" d="M 39.5,16.5 C 39.1667,17.5 38.5,18.1667 37.5,18.5C 33.9505,19.7232 30.9505,21.7232 28.5,24.5C 27.8333,24.5 27.5,24.1667 27.5,23.5C 30.5499,19.6383 34.5499,17.305 39.5,16.5 Z"/></g>
<g><path style="opacity:1" fill="#b12f2b" d="M 55.5,18.5 C 50.793,18.0687 46.793,19.402 43.5,22.5C 41.7162,22.8925 40.0495,23.5592 38.5,24.5C 35.1667,25.8333 31.8333,25.8333 28.5,24.5C 30.9505,21.7232 33.9505,19.7232 37.5,18.5C 36.3744,19.8583 36.3744,21.1916 37.5,22.5C 40.7789,21.5272 43.7789,20.0272 46.5,18C 49.6965,17.1955 52.6965,17.3622 55.5,18.5 Z"/></g>
<g><path style="opacity:1" fill="#cbcccc" d="M 43.5,22.5 C 44.7562,22.4614 45.7562,22.9614 46.5,24C 45.1667,24.6667 43.8333,25.3333 42.5,26C 45.697,26.239 48.3637,25.0723 50.5,22.5C 53.9018,24.5667 57.5685,25.9 61.5,26.5C 58.1667,27.1667 54.8333,27.8333 51.5,28.5C 51.7093,29.086 52.0426,29.586 52.5,30C 51.062,30.2189 49.7287,30.7189 48.5,31.5C 48.6236,32.1067 48.9569,32.44 49.5,32.5C 49.5912,34.6977 48.9245,35.0311 47.5,33.5C 46.5248,31.4872 44.8581,30.1539 42.5,29.5C 39.5963,32.6345 37.9297,35.9678 37.5,39.5C 37.5,40.5 37.5,41.5 37.5,42.5C 36.1237,42.2525 35.2903,40.9192 35,38.5C 34.8295,40.7148 34.1628,42.7148 33,44.5C 32.3486,42.765 32.5153,41.0983 33.5,39.5C 33.1667,39.1667 32.8333,38.8333 32.5,38.5C 31.7022,40.0777 31.2022,41.7444 31,43.5C 30.5899,42.0993 30.0899,40.766 29.5,39.5C 29.1842,36.0217 29.6842,32.6883 31,29.5C 33.2999,27.3966 35.7999,25.7299 38.5,24.5C 40.0495,23.5592 41.7162,22.8925 43.5,22.5 Z"/></g>
<g><path style="opacity:1" fill="#928f8f" d="M 55.5,18.5 C 58.0048,19.4171 60.3382,19.4171 62.5,18.5C 70.3482,19.9282 70.3482,21.0948 62.5,22C 63.056,22.3826 63.3893,22.8826 63.5,23.5C 61.6136,21.7595 59.2803,20.7595 56.5,20.5C 55.1667,20.8333 53.8333,21.1667 52.5,21.5C 56.3454,23.2993 60.3454,24.7993 64.5,26C 63.8333,26.6667 63.1667,27.3333 62.5,28C 59.5,28.3333 56.5,28.6667 53.5,29C 55.9006,31.9433 58.4006,34.7766 61,37.5C 61.2895,39.9519 61.9562,42.2852 63,44.5C 63.3333,43.8333 63.6667,43.1667 64,42.5C 65.0391,43.7101 66.2058,44.7101 67.5,45.5C 66.8743,46.5289 66.041,47.5289 65,48.5C 64,47.5 63,46.5 62,45.5C 60.9243,48.079 59.091,49.7457 56.5,50.5C 57.4577,49.0384 58.6244,47.7051 60,46.5C 60.6667,45.1667 60.6667,43.8333 60,42.5C 59.7216,43.4158 59.2216,44.0825 58.5,44.5C 58.4828,42.4352 58.1495,40.4352 57.5,38.5C 57.9854,36.9153 57.3188,35.4153 55.5,34C 53.6494,33.1628 51.8161,32.3295 50,31.5C 49.6012,31.7284 49.4346,32.0618 49.5,32.5C 48.9569,32.44 48.6236,32.1067 48.5,31.5C 49.7287,30.7189 51.062,30.2189 52.5,30C 52.0426,29.586 51.7093,29.086 51.5,28.5C 54.8333,27.8333 58.1667,27.1667 61.5,26.5C 57.5685,25.9 53.9018,24.5667 50.5,22.5C 48.3637,25.0723 45.697,26.239 42.5,26C 43.8333,25.3333 45.1667,24.6667 46.5,24C 45.7562,22.9614 44.7562,22.4614 43.5,22.5C 46.793,19.402 50.793,18.0687 55.5,18.5 Z"/></g>
<g><path style="opacity:1" fill="#bcbcbc" d="M 63.5,23.5 C 66.7981,25.5354 69.7981,28.0354 72.5,31C 70.4233,31.1922 68.4233,31.6922 66.5,32.5C 67.93,35.4327 69.93,37.9327 72.5,40C 70.5594,40.7429 68.7261,40.5762 67,39.5C 67.1349,41.4247 67.3016,43.4247 67.5,45.5C 66.2058,44.7101 65.0391,43.7101 64,42.5C 63.6667,43.1667 63.3333,43.8333 63,44.5C 61.9562,42.2852 61.2895,39.9519 61,37.5C 58.4006,34.7766 55.9006,31.9433 53.5,29C 56.5,28.6667 59.5,28.3333 62.5,28C 63.1667,27.3333 63.8333,26.6667 64.5,26C 60.3454,24.7993 56.3454,23.2993 52.5,21.5C 53.8333,21.1667 55.1667,20.8333 56.5,20.5C 59.2803,20.7595 61.6136,21.7595 63.5,23.5 Z"/></g>
<g><path style="opacity:1" fill="#948b88" d="M 47.5,33.5 C 45.9482,32.3782 44.2816,31.8782 42.5,32C 40.6991,34.4426 39.0324,36.9426 37.5,39.5C 37.9297,35.9678 39.5963,32.6345 42.5,29.5C 44.8581,30.1539 46.5248,31.4872 47.5,33.5 Z"/></g>
<g><path style="opacity:1" fill="#9b9a9a" d="M 25.5,23.5 C 26.1667,23.5 26.8333,23.5 27.5,23.5C 27.5,24.1667 27.8333,24.5 28.5,24.5C 31.8333,25.8333 35.1667,25.8333 38.5,24.5C 35.7999,25.7299 33.2999,27.3966 31,29.5C 29.6842,32.6883 29.1842,36.0217 29.5,39.5C 27.1546,40.9879 26.8212,42.9879 28.5,45.5C 26.5792,43.9988 24.9125,42.1655 23.5,40C 24.9909,37.9783 24.6576,36.3117 22.5,35C 23.1667,33.6667 23.8333,32.3333 24.5,31C 23.0494,31.2626 21.7161,31.0959 20.5,30.5C 23.3905,28.9571 25.0571,26.6238 25.5,23.5 Z"/></g>
<g><path style="opacity:1" fill="#e5c1ad" d="M 47.5,33.5 C 48.9245,35.0311 49.5912,34.6977 49.5,32.5C 49.4346,32.0618 49.6012,31.7284 50,31.5C 51.8161,32.3295 53.6494,33.1628 55.5,34C 57.3188,35.4153 57.9854,36.9153 57.5,38.5C 52.4896,38.1981 51.4896,39.8648 54.5,43.5C 55.5676,44.4345 56.901,44.7678 58.5,44.5C 59.2216,44.0825 59.7216,43.4158 60,42.5C 60.6667,43.8333 60.6667,45.1667 60,46.5C 58.6244,47.7051 57.4577,49.0384 56.5,50.5C 55.791,51.404 54.791,51.7373 53.5,51.5C 48.3326,51.91 43.3326,51.2433 38.5,49.5C 37.2555,48.0446 37.4222,46.7113 39,45.5C 40.9435,46.807 42.7768,46.807 44.5,45.5C 44.5,45.1667 44.5,44.8333 44.5,44.5C 47.4821,41.7129 46.9821,40.0462 43,39.5C 41.9302,39.528 41.0968,39.8614 40.5,40.5C 39.2223,40.7822 38.2223,41.4489 37.5,42.5C 37.5,41.5 37.5,40.5 37.5,39.5C 39.0324,36.9426 40.6991,34.4426 42.5,32C 44.2816,31.8782 45.9482,32.3782 47.5,33.5 Z"/></g>
<g><path style="opacity:1" fill="#411c17" d="M 44.5,44.5 C 44.5,44.8333 44.5,45.1667 44.5,45.5C 41.0897,45.6162 39.7564,43.9496 40.5,40.5C 41.0968,39.8614 41.9302,39.528 43,39.5C 46.9821,40.0462 47.4821,41.7129 44.5,44.5 Z"/></g>
<g><path style="opacity:1" fill="#411e17" d="M 57.5,38.5 C 58.1495,40.4352 58.4828,42.4352 58.5,44.5C 56.901,44.7678 55.5676,44.4345 54.5,43.5C 51.4896,39.8648 52.4896,38.1981 57.5,38.5 Z"/></g>
<g><path style="opacity:1" fill="#ddd2cb" d="M 54.5,43.5 C 54.494,40.4524 55.494,39.9524 57.5,42C 56.7562,43.0386 55.7562,43.5386 54.5,43.5 Z"/></g>
<g><path style="opacity:1" fill="#d6cbc2" d="M 44.5,44.5 C 41.3259,44.0478 40.9925,43.0478 43.5,41.5C 44.3857,42.325 44.719,43.325 44.5,44.5 Z"/></g>
<g><path style="opacity:1" fill="#aa9184" d="M 37.5,42.5 C 38.2223,41.4489 39.2223,40.7822 40.5,40.5C 39.7564,43.9496 41.0897,45.6162 44.5,45.5C 42.7768,46.807 40.9435,46.807 39,45.5C 37.4222,46.7113 37.2555,48.0446 38.5,49.5C 43.3326,51.2433 48.3326,51.91 53.5,51.5C 53.5,52.1667 53.5,52.8333 53.5,53.5C 51.2104,51.9671 50.5437,52.3004 51.5,54.5C 49.2573,55.4742 46.924,55.8076 44.5,55.5C 44.3893,54.8826 44.056,54.3826 43.5,54C 41.5273,53.5045 39.5273,53.3379 37.5,53.5C 38.6085,52.71 39.9419,52.21 41.5,52C 36.7838,49.6419 32.4505,47.4752 28.5,45.5C 26.8212,42.9879 27.1546,40.9879 29.5,39.5C 30.0899,40.766 30.5899,42.0993 31,43.5C 31.2022,41.7444 31.7022,40.0777 32.5,38.5C 32.8333,38.8333 33.1667,39.1667 33.5,39.5C 32.5153,41.0983 32.3486,42.765 33,44.5C 34.1628,42.7148 34.8295,40.7148 35,38.5C 35.2903,40.9192 36.1237,42.2525 37.5,42.5 Z"/></g>
<g><path style="opacity:1" fill="#ac4351" d="M 37.5,53.5 C 39.5273,53.3379 41.5273,53.5045 43.5,54C 44.056,54.3826 44.3893,54.8826 44.5,55.5C 43.4168,55.4606 42.4168,55.1272 41.5,54.5C 39.5,55.8333 37.5,57.1667 35.5,58.5C 35.8346,57.336 35.8346,56.0026 35.5,54.5C 33.1419,55.1539 31.4752,56.4872 30.5,58.5C 28.2043,58.1959 27.871,57.1959 29.5,55.5C 32.006,54.2504 34.6726,53.5838 37.5,53.5 Z"/></g>
<g><path style="opacity:1" fill="#e1c59f" d="M 29.5,55.5 C 27.871,57.1959 28.2043,58.1959 30.5,58.5C 31.9063,58.9731 32.573,59.9731 32.5,61.5C 31.8776,63.1216 30.8776,64.4549 29.5,65.5C 28.0413,65.5674 26.7079,65.2341 25.5,64.5C 26.1667,62.1667 26.8333,59.8333 27.5,57.5C 26.5,57.5 25.5,57.5 24.5,57.5C 25.9303,56.4625 27.597,55.7959 29.5,55.5 Z"/></g>
<g><path style="opacity:1" fill="#da8119" d="M 40.5,60.5 C 39.7784,60.9175 39.2784,61.5842 39,62.5C 37.6439,61.6198 36.1439,61.2865 34.5,61.5C 34.9704,60.3065 35.9704,59.6399 37.5,59.5C 38.7261,59.5195 39.7261,59.8529 40.5,60.5 Z"/></g>
<g><path style="opacity:1" fill="#d05b5e" d="M 53.5,53.5 C 54.4584,53.9528 55.2917,54.6195 56,55.5C 56.4709,58.4709 57.6375,61.1376 59.5,63.5C 58.9747,64.1924 58.3081,64.6924 57.5,65C 58.8613,66.5843 59.528,68.4176 59.5,70.5C 56.0091,72.1075 52.3424,73.1075 48.5,73.5C 48.1667,73.5 47.8333,73.5 47.5,73.5C 47.5106,71.9826 48.1772,70.8159 49.5,70C 47.7468,68.0015 46.4135,65.8348 45.5,63.5C 44.5,63.5 43.5,63.5 42.5,63.5C 41.8333,62.5 41.1667,61.5 40.5,60.5C 39.7261,59.8529 38.7261,59.5195 37.5,59.5C 35.9704,59.6399 34.9704,60.3065 34.5,61.5C 34.1667,61.5 33.8333,61.5 33.5,61.5C 33.1667,61.5 32.8333,61.5 32.5,61.5C 32.573,59.9731 31.9063,58.9731 30.5,58.5C 31.4752,56.4872 33.1419,55.1539 35.5,54.5C 35.8346,56.0026 35.8346,57.336 35.5,58.5C 37.5,57.1667 39.5,55.8333 41.5,54.5C 42.4168,55.1272 43.4168,55.4606 44.5,55.5C 46.924,55.8076 49.2573,55.4742 51.5,54.5C 50.5437,52.3004 51.2104,51.9671 53.5,53.5 Z"/></g>
<g><path style="opacity:1" fill="#c57f21" d="M 32.5,61.5 C 32.8333,61.5 33.1667,61.5 33.5,61.5C 33.2137,63.2769 32.5471,64.9436 31.5,66.5C 32.5595,68.4567 33.5595,70.4567 34.5,72.5C 33.7366,73.7193 32.7366,74.7193 31.5,75.5C 32.6507,76.731 33.8173,76.731 35,75.5C 35.1953,77.2072 35.1953,78.8739 35,80.5C 35.8113,79.0403 36.6446,78.707 37.5,79.5C 36.8118,80.8549 35.8118,81.8549 34.5,82.5C 31.3211,78.512 29.8211,73.8453 30,68.5C 28.2716,67.6477 28.105,66.6477 29.5,65.5C 30.8776,64.4549 31.8776,63.1216 32.5,61.5 Z"/></g>
<g><path style="opacity:1" fill="#f08e61" d="M 42.5,63.5 C 43.5,63.5 44.5,63.5 45.5,63.5C 46.4135,65.8348 47.7468,68.0015 49.5,70C 48.1772,70.8159 47.5106,71.9826 47.5,73.5C 46.5,73.5 45.5,73.5 44.5,73.5C 44.6893,69.963 44.0226,66.6297 42.5,63.5 Z"/></g>
<g><path style="opacity:1" fill="#da8a27" d="M 24.5,57.5 C 25.5,57.5 26.5,57.5 27.5,57.5C 26.8333,59.8333 26.1667,62.1667 25.5,64.5C 25.5,64.8333 25.5,65.1667 25.5,65.5C 24.6829,67.9686 24.1829,70.6353 24,73.5C 23.7216,72.5842 23.2216,71.9175 22.5,71.5C 21.596,70.791 21.2627,69.791 21.5,68.5C 20.5,68.5 19.5,68.5 18.5,68.5C 18.5,67.1667 18.5,65.8333 18.5,64.5C 19.3481,61.1125 21.3481,58.7791 24.5,57.5 Z"/></g>
<g><path style="opacity:1" fill="#f9eb3e" d="M 40.5,60.5 C 41.1667,61.5 41.8333,62.5 42.5,63.5C 44.0226,66.6297 44.6893,69.963 44.5,73.5C 43.4415,74.6002 42.6082,75.9336 42,77.5C 39.6824,74.6688 38.349,71.3355 38,67.5C 36.5576,65.6089 35.3909,63.6089 34.5,61.5C 36.1439,61.2865 37.6439,61.6198 39,62.5C 39.2784,61.5842 39.7784,60.9175 40.5,60.5 Z"/></g>
<g><path style="opacity:1" fill="#f1dd4b" d="M 18.5,64.5 C 18.5,65.8333 18.5,67.1667 18.5,68.5C 19.5,68.5 20.5,68.5 21.5,68.5C 21.2627,69.791 21.596,70.791 22.5,71.5C 24.0757,74.2148 23.7424,76.5481 21.5,78.5C 20.2089,77.4583 20.2089,76.2917 21.5,75C 17.483,72.3758 16.483,68.8758 18.5,64.5 Z"/></g>
<g><path style="opacity:1" fill="#351922" d="M 59.5,70.5 C 60.0434,75.6081 58.0434,79.2747 53.5,81.5C 52.391,81.4431 51.391,81.1098 50.5,80.5C 50.0679,79.2905 49.4013,78.2905 48.5,77.5C 48.0742,76.4721 48.0742,75.1388 48.5,73.5C 52.3424,73.1075 56.0091,72.1075 59.5,70.5 Z"/></g>
<g><path style="opacity:1" fill="#bd6a17" d="M 25.5,65.5 C 26.3577,69.1269 26.5244,72.7935 26,76.5C 27.2547,77.2106 28.4214,78.044 29.5,79C 27.9559,79.2896 26.6226,79.9563 25.5,81C 28.0135,82.2525 30.6802,82.7525 33.5,82.5C 32.1667,83.1667 30.8333,83.8333 29.5,84.5C 25.9796,83.6472 23.3129,81.6472 21.5,78.5C 23.7424,76.5481 24.0757,74.2148 22.5,71.5C 23.2216,71.9175 23.7216,72.5842 24,73.5C 24.1829,70.6353 24.6829,67.9686 25.5,65.5 Z"/></g>
<g><path style="opacity:1" fill="#683f29" d="M 44.5,73.5 C 45.5,73.5 46.5,73.5 47.5,73.5C 47.8333,73.5 48.1667,73.5 48.5,73.5C 48.0742,75.1388 48.0742,76.4721 48.5,77.5C 46.1918,79.4707 43.8585,81.4707 41.5,83.5C 41.5,82.8333 41.5,82.1667 41.5,81.5C 43.0598,79.0465 44.0598,76.3798 44.5,73.5 Z"/></g>
<g><path style="opacity:1" fill="#944d11" d="M 25.5,64.5 C 26.7079,65.2341 28.0413,65.5674 29.5,65.5C 28.105,66.6477 28.2716,67.6477 30,68.5C 29.8211,73.8453 31.3211,78.512 34.5,82.5C 34.1667,82.5 33.8333,82.5 33.5,82.5C 30.6802,82.7525 28.0135,82.2525 25.5,81C 26.6226,79.9563 27.9559,79.2896 29.5,79C 28.4214,78.044 27.2547,77.2106 26,76.5C 26.5244,72.7935 26.3577,69.1269 25.5,65.5C 25.5,65.1667 25.5,64.8333 25.5,64.5 Z"/></g>
<g><path style="opacity:1" fill="#efb229" d="M 33.5,61.5 C 33.8333,61.5 34.1667,61.5 34.5,61.5C 35.3909,63.6089 36.5576,65.6089 38,67.5C 38.349,71.3355 39.6824,74.6688 42,77.5C 42.6082,75.9336 43.4415,74.6002 44.5,73.5C 44.0598,76.3798 43.0598,79.0465 41.5,81.5C 40.8333,81.5 40.5,81.8333 40.5,82.5C 38.6203,82.2291 37.287,82.8958 36.5,84.5C 34.1667,84.5 31.8333,84.5 29.5,84.5C 30.8333,83.8333 32.1667,83.1667 33.5,82.5C 33.8333,82.5 34.1667,82.5 34.5,82.5C 35.8118,81.8549 36.8118,80.8549 37.5,79.5C 36.6446,78.707 35.8113,79.0403 35,80.5C 35.1953,78.8739 35.1953,77.2072 35,75.5C 33.8173,76.731 32.6507,76.731 31.5,75.5C 32.7366,74.7193 33.7366,73.7193 34.5,72.5C 33.5595,70.4567 32.5595,68.4567 31.5,66.5C 32.5471,64.9436 33.2137,63.2769 33.5,61.5 Z"/></g>
<g><path style="opacity:1" fill="#9d9d9d" d="M 50.5,80.5 C 51.391,81.1098 52.391,81.4431 53.5,81.5C 50.7961,82.6802 50.9628,83.6802 54,84.5C 55.0299,84.1639 55.5299,83.4972 55.5,82.5C 56.9245,84.0311 57.5912,83.6977 57.5,81.5C 62.4246,83.9087 62.4246,85.9087 57.5,87.5C 55.2383,86.5331 52.905,85.8664 50.5,85.5C 50.5,83.8333 50.5,82.1667 50.5,80.5 Z"/></g>
<g><path style="opacity:1" fill="#621c1e" d="M 57.5,81.5 C 57.5912,83.6977 56.9245,84.0311 55.5,82.5C 55.4088,80.3023 56.0755,79.9689 57.5,81.5 Z"/></g>
<g><path style="opacity:1" fill="#9b3f2b" d="M 40.5,82.5 C 40.5,83.5 40.5,84.5 40.5,85.5C 39.0413,85.5674 37.7079,85.2341 36.5,84.5C 37.287,82.8958 38.6203,82.2291 40.5,82.5 Z"/></g>
<g><path style="opacity:1" fill="#b5b1ad" d="M 41.5,81.5 C 41.5,82.1667 41.5,82.8333 41.5,83.5C 43.9358,89.011 42.2691,91.1777 36.5,90C 35.6198,88.6439 35.2865,87.1439 35.5,85.5C 33.2646,85.7947 31.2646,85.4614 29.5,84.5C 31.8333,84.5 34.1667,84.5 36.5,84.5C 37.7079,85.2341 39.0413,85.5674 40.5,85.5C 40.5,84.5 40.5,83.5 40.5,82.5C 40.5,81.8333 40.8333,81.5 41.5,81.5 Z"/></g>
</svg>
