<?xml version="1.0" encoding="UTF-8"?>
<!DOCTYPE svg PUBLIC "-//W3C//DTD SVG 1.1//EN" "http://www.w3.org/Graphics/SVG/1.1/DTD/svg11.dtd">
<svg xmlns="http://www.w3.org/2000/svg" version="1.1" width="96px" height="96px" style="shape-rendering:geometricPrecision; text-rendering:geometricPrecision; image-rendering:optimizeQuality; fill-rule:evenodd; clip-rule:evenodd" xmlns:xlink="http://www.w3.org/1999/xlink">
<g><path style="opacity:1" fill="#35c166" d="M 37.5,-0.5 C 44.1667,-0.5 50.8333,-0.5 57.5,-0.5C 77.1667,5.16667 89.8333,17.8333 95.5,37.5C 95.5,44.1667 95.5,50.8333 95.5,57.5C 89.8333,77.1667 77.1667,89.8333 57.5,95.5C 50.8333,95.5 44.1667,95.5 37.5,95.5C 17.8597,89.8597 5.193,77.193 -0.5,57.5C -0.5,50.8333 -0.5,44.1667 -0.5,37.5C 5.16667,17.8333 17.8333,5.16667 37.5,-0.5 Z"/></g>
<g><path style="opacity:1" fill="#1ac662" d="M 62.5,26.5 C 53.0584,29.3825 44.7251,34.0492 37.5,40.5C 31.9744,45.0221 27.3077,44.3555 23.5,38.5C 23.335,35.1501 23.5017,31.8168 24,28.5C 24.8518,29.5707 25.6851,30.5707 26.5,31.5C 27.5198,33.352 29.0198,34.6853 31,35.5C 35.4271,33.7018 39.2605,31.0351 42.5,27.5C 43.9049,27.76 45.2382,28.0934 46.5,28.5C 46.56,29.0431 46.8933,29.3764 47.5,29.5C 49.3414,27.4883 50.3414,25.155 50.5,22.5C 51.791,22.7373 52.791,22.404 53.5,21.5C 59.0989,21.8833 62.7656,19.55 64.5,14.5C 65.3091,12.7078 65.8091,10.7078 66,8.5C 68.2702,12.9301 68.9369,17.5967 68,22.5C 66.6181,24.4422 64.7848,25.7755 62.5,26.5 Z"/></g>
<g><path style="opacity:1" fill="#5d754c" d="M 50.5,22.5 C 50.3414,25.155 49.3414,27.4883 47.5,29.5C 46.8933,29.3764 46.56,29.0431 46.5,28.5C 47.8333,26.5 49.1667,24.5 50.5,22.5 Z"/></g>
<g><path style="opacity:1" fill="#d9645d" d="M 53.5,21.5 C 52.791,22.404 51.791,22.7373 50.5,22.5C 49.1667,24.5 47.8333,26.5 46.5,28.5C 45.2382,28.0934 43.9049,27.76 42.5,27.5C 39.2605,31.0351 35.4271,33.7018 31,35.5C 29.0198,34.6853 27.5198,33.352 26.5,31.5C 32.9343,27.108 39.601,22.9413 46.5,19C 49.0422,18.9928 51.3755,19.8261 53.5,21.5 Z"/></g>
<g><path style="opacity:1" fill="#f9fbf9" d="M 67.5,7.5 C 86.1929,17.5487 94.3596,33.2154 92,54.5C 87.1685,75.8315 74.0018,88.4982 52.5,92.5C 51.8333,91.8333 51.1667,91.1667 50.5,90.5C 57.9294,86.9595 65.2627,83.1262 72.5,79C 73.1078,77.769 73.4411,76.4357 73.5,75C 73.3917,73.3189 72.7251,72.1522 71.5,71.5C 71.8333,70.8333 72.1667,70.1667 72.5,69.5C 73.2829,66.4909 73.9496,63.3242 74.5,60C 74.1667,59.5 73.8333,59 73.5,58.5C 66.5,62.6667 59.5,66.8333 52.5,71C 50.6547,72.128 48.6547,72.628 46.5,72.5C 43.1983,69.0257 40.0316,65.359 37,61.5C 36.1572,57.3219 34.9906,53.3219 33.5,49.5C 33.5,49.1667 33.5,48.8333 33.5,48.5C 35.2303,49.0256 36.5637,50.0256 37.5,51.5C 37.3359,54.1873 37.5026,56.854 38,59.5C 41.3333,63.5 44.6667,67.5 48,71.5C 48.3988,71.2716 48.5654,70.9382 48.5,70.5C 56.2742,66.4438 63.9409,62.1105 71.5,57.5C 72.4656,55.604 72.7989,53.604 72.5,51.5C 74.8885,49.7102 75.0552,47.7102 73,45.5C 72.6667,41.1667 72.3333,36.8333 72,32.5C 68.6598,30.6369 65.4931,28.6369 62.5,26.5C 64.7848,25.7755 66.6181,24.4422 68,22.5C 68.9369,17.5967 68.2702,12.9301 66,8.5C 65.8091,10.7078 65.3091,12.7078 64.5,14.5C 64.5,12.1667 64.5,9.83333 64.5,7.5C 65.5,7.5 66.5,7.5 67.5,7.5 Z"/></g>
<g><path style="opacity:1" fill="#fafbfa" d="M 67.5,7.5 C 66.5,7.5 65.5,7.5 64.5,7.5C 64.5,9.83333 64.5,12.1667 64.5,14.5C 62.7656,19.55 59.0989,21.8833 53.5,21.5C 51.3755,19.8261 49.0422,18.9928 46.5,19C 39.601,22.9413 32.9343,27.108 26.5,31.5C 25.6851,30.5707 24.8518,29.5707 24,28.5C 23.5017,31.8168 23.335,35.1501 23.5,38.5C 23.5,40.1667 23.5,41.8333 23.5,43.5C 23.5,49.1667 23.5,54.8333 23.5,60.5C 23.6198,64.0418 23.2865,67.5418 22.5,71C 22.5186,72.833 23.1852,74.333 24.5,75.5C 24.2606,77.4672 24.5939,79.3005 25.5,81C 27.8696,82.1848 30.2029,83.3515 32.5,84.5C 34.1347,83.9537 35.8014,83.6204 37.5,83.5C 41.701,86.1002 46.0344,88.4335 50.5,90.5C 51.1667,91.1667 51.8333,91.8333 52.5,92.5C 27.7074,93.3618 11.5407,82.0284 4,58.5C -0.487681,33.6419 8.67899,15.8086 31.5,5C 43.9478,1.15115 55.9478,1.98449 67.5,7.5 Z"/></g>
<g><path style="opacity:1" fill="#9e443e" d="M 23.5,38.5 C 27.3077,44.3555 31.9744,45.0221 37.5,40.5C 40.2624,42.7247 43.2624,44.7247 46.5,46.5C 47.487,49.7683 47.8204,53.1016 47.5,56.5C 44.4502,54.3084 41.1168,52.6417 37.5,51.5C 36.5637,50.0256 35.2303,49.0256 33.5,48.5C 30.4078,46.2872 27.0744,44.6205 23.5,43.5C 23.5,41.8333 23.5,40.1667 23.5,38.5 Z"/></g>
<g><path style="opacity:1" fill="#886957" d="M 23.5,43.5 C 27.0744,44.6205 30.4078,46.2872 33.5,48.5C 33.5,48.8333 33.5,49.1667 33.5,49.5C 32.2627,54.9601 31.596,60.6268 31.5,66.5C 29.4301,65.4927 27.4301,65.826 25.5,67.5C 24.4173,66.635 24.2506,65.635 25,64.5C 26.2975,65.7836 27.4642,65.6169 28.5,64C 26.8043,62.8236 25.1376,61.657 23.5,60.5C 23.5,54.8333 23.5,49.1667 23.5,43.5 Z"/></g>
<g><path style="opacity:1" fill="#e5655e" d="M 62.5,26.5 C 65.4931,28.6369 68.6598,30.6369 72,32.5C 72.3333,36.8333 72.6667,41.1667 73,45.5C 75.0552,47.7102 74.8885,49.7102 72.5,51.5C 68.827,53.0002 65.4937,55.0002 62.5,57.5C 60.8175,54.2829 58.1508,51.9495 54.5,50.5C 53.6143,51.325 53.281,52.325 53.5,53.5C 51.4832,54.5294 49.4832,55.5294 47.5,56.5C 47.8204,53.1016 47.487,49.7683 46.5,46.5C 43.2624,44.7247 40.2624,42.7247 37.5,40.5C 44.7251,34.0492 53.0584,29.3825 62.5,26.5 Z"/></g>
<g><path style="opacity:1" fill="#8f443e" d="M 62.5,57.5 C 61.228,59.3135 59.728,60.9802 58,62.5C 57.5172,61.552 57.3505,60.552 57.5,59.5C 60.1679,57.0703 59.5012,55.7369 55.5,55.5C 55.1667,54.5 54.5,53.8333 53.5,53.5C 53.281,52.325 53.6143,51.325 54.5,50.5C 58.1508,51.9495 60.8175,54.2829 62.5,57.5 Z"/></g>
<g><path style="opacity:1" fill="#866957" d="M 37.5,51.5 C 41.1168,52.6417 44.4502,54.3084 47.5,56.5C 47.2256,61.263 47.559,65.9296 48.5,70.5C 48.5654,70.9382 48.3988,71.2716 48,71.5C 44.6667,67.5 41.3333,63.5 38,59.5C 37.5026,56.854 37.3359,54.1873 37.5,51.5 Z"/></g>
<g><path style="opacity:1" fill="#878888" d="M 33.5,49.5 C 34.9906,53.3219 36.1572,57.3219 37,61.5C 40.0316,65.359 43.1983,69.0257 46.5,72.5C 47.2341,73.7079 47.5674,75.0413 47.5,76.5C 43.5,74.1667 39.5,71.8333 35.5,69.5C 34.1283,68.4884 32.795,67.4884 31.5,66.5C 31.596,60.6268 32.2627,54.9601 33.5,49.5 Z"/></g>
<g><path style="opacity:1" fill="#ba9580" d="M 72.5,51.5 C 72.7989,53.604 72.4656,55.604 71.5,57.5C 63.9409,62.1105 56.2742,66.4438 48.5,70.5C 47.559,65.9296 47.2256,61.263 47.5,56.5C 49.4832,55.5294 51.4832,54.5294 53.5,53.5C 54.5,53.8333 55.1667,54.5 55.5,55.5C 53.4185,58.205 53.0852,61.205 54.5,64.5C 55.9348,63.0531 56.9348,61.3864 57.5,59.5C 57.3505,60.552 57.5172,61.552 58,62.5C 59.728,60.9802 61.228,59.3135 62.5,57.5C 65.4937,55.0002 68.827,53.0002 72.5,51.5 Z"/></g>
<g><path style="opacity:1" fill="#f7f4f2" d="M 55.5,55.5 C 59.5012,55.7369 60.1679,57.0703 57.5,59.5C 56.9348,61.3864 55.9348,63.0531 54.5,64.5C 53.0852,61.205 53.4185,58.205 55.5,55.5 Z"/></g>
<g><path style="opacity:1" fill="#d6d3d3" d="M 72.5,69.5 C 72.6602,67.8008 72.4935,66.1341 72,64.5C 68.8256,68.198 65.6589,71.8647 62.5,75.5C 61.4168,75.4606 60.4168,75.1272 59.5,74.5C 58.5318,75.4891 57.3651,76.1557 56,76.5C 53.103,75.3421 50.2697,75.3421 47.5,76.5C 47.5674,75.0413 47.2341,73.7079 46.5,72.5C 48.6547,72.628 50.6547,72.128 52.5,71C 59.5,66.8333 66.5,62.6667 73.5,58.5C 73.8333,59 74.1667,59.5 74.5,60C 73.9496,63.3242 73.2829,66.4909 72.5,69.5 Z"/></g>
<g><path style="opacity:1" fill="#ce5c57" d="M 72.5,69.5 C 72.1667,70.1667 71.8333,70.8333 71.5,71.5C 68.3516,72.5758 65.3516,73.9091 62.5,75.5C 65.6589,71.8647 68.8256,68.198 72,64.5C 72.4935,66.1341 72.6602,67.8008 72.5,69.5 Z"/></g>
<g><path style="opacity:1" fill="#a43f53" d="M 23.5,60.5 C 25.1376,61.657 26.8043,62.8236 28.5,64C 27.4642,65.6169 26.2975,65.7836 25,64.5C 24.2506,65.635 24.4173,66.635 25.5,67.5C 27.4301,65.826 29.4301,65.4927 31.5,66.5C 32.795,67.4884 34.1283,68.4884 35.5,69.5C 34.7387,70.3909 33.7387,71.0576 32.5,71.5C 31.5197,70.0186 30.353,68.6853 29,67.5C 28.6666,69.0468 29.1666,70.3801 30.5,71.5C 29.6744,72.451 29.5078,73.451 30,74.5C 32.4148,75.4113 33.9148,77.078 34.5,79.5C 31.2073,78.1914 27.874,76.858 24.5,75.5C 23.1852,74.333 22.5186,72.833 22.5,71C 23.2865,67.5418 23.6198,64.0418 23.5,60.5 Z"/></g>
<g><path style="opacity:1" fill="#c15e5b" d="M 35.5,69.5 C 39.5,71.8333 43.5,74.1667 47.5,76.5C 50.2697,75.3421 53.103,75.3421 56,76.5C 57.3651,76.1557 58.5318,75.4891 59.5,74.5C 60.4168,75.1272 61.4168,75.4606 62.5,75.5C 57.4627,78.1055 52.6294,81.1055 48,84.5C 45.5413,83.0216 43.0413,81.6882 40.5,80.5C 40.631,79.7611 40.4643,79.0944 40,78.5C 38.2103,80.2912 36.377,80.6246 34.5,79.5C 33.9148,77.078 32.4148,75.4113 30,74.5C 29.5078,73.451 29.6744,72.451 30.5,71.5C 29.1666,70.3801 28.6666,69.0468 29,67.5C 30.353,68.6853 31.5197,70.0186 32.5,71.5C 33.7387,71.0576 34.7387,70.3909 35.5,69.5 Z"/></g>
<g><path style="opacity:1" fill="#361923" d="M 71.5,71.5 C 72.7251,72.1522 73.3917,73.3189 73.5,75C 73.4411,76.4357 73.1078,77.769 72.5,79C 65.2627,83.1262 57.9294,86.9595 50.5,90.5C 46.0344,88.4335 41.701,86.1002 37.5,83.5C 38.3065,82.2719 39.3065,81.2719 40.5,80.5C 43.0413,81.6882 45.5413,83.0216 48,84.5C 52.6294,81.1055 57.4627,78.1055 62.5,75.5C 65.3516,73.9091 68.3516,72.5758 71.5,71.5 Z"/></g>
<g><path style="opacity:1" fill="#937360" d="M 24.5,75.5 C 27.874,76.858 31.2073,78.1914 34.5,79.5C 36.377,80.6246 38.2103,80.2912 40,78.5C 40.4643,79.0944 40.631,79.7611 40.5,80.5C 39.3065,81.2719 38.3065,82.2719 37.5,83.5C 35.8014,83.6204 34.1347,83.9537 32.5,84.5C 30.2029,83.3515 27.8696,82.1848 25.5,81C 24.5939,79.3005 24.2606,77.4672 24.5,75.5 Z"/></g>
</svg>
