<?xml version="1.0" encoding="UTF-8"?>
<!DOCTYPE svg PUBLIC "-//W3C//DTD SVG 1.1//EN" "http://www.w3.org/Graphics/SVG/1.1/DTD/svg11.dtd">
<svg xmlns="http://www.w3.org/2000/svg" version="1.1" width="96px" height="96px" style="shape-rendering:geometricPrecision; text-rendering:geometricPrecision; image-rendering:optimizeQuality; fill-rule:evenodd; clip-rule:evenodd" xmlns:xlink="http://www.w3.org/1999/xlink">
<g><path style="opacity:0.876" fill="#a6a6a6" d="M 37.5,-0.5 C 44.1667,-0.5 50.8333,-0.5 57.5,-0.5C 77.1667,5.16667 89.8333,17.8333 95.5,37.5C 95.5,44.1667 95.5,50.8333 95.5,57.5C 89.8333,77.1667 77.1667,89.8333 57.5,95.5C 50.8333,95.5 44.1667,95.5 37.5,95.5C 17.8333,89.8333 5.16667,77.1667 -0.5,57.5C -0.5,50.8333 -0.5,44.1667 -0.5,37.5C 5.16667,17.8333 17.8333,5.16667 37.5,-0.5 Z"/></g>
<g><path style="opacity:1" fill="#505050" d="M 40.5,4.5 C 66.0282,3.54365 82.5282,15.2103 90,39.5C 91.9603,64.1063 81.4603,80.6063 58.5,89C 32.4326,93.3881 14.9326,83.2214 6,58.5C 1.92244,30.4323 13.4224,12.4323 40.5,4.5 Z"/></g>
<g><path style="opacity:1" fill="#a7a7a7" d="M 37.5,7.5 C 62.0138,4.65956 78.5138,14.6596 87,37.5C 90.215,62.9158 79.715,79.4158 55.5,87C 30.7307,89.8711 14.8973,79.3711 8,55.5C 5.38726,31.7069 15.2206,15.7069 37.5,7.5 Z"/></g>
<g><path style="opacity:1" fill="#f6f6f6" d="M 44.5,19.5 C 46.2681,22.1625 46.9347,25.1625 46.5,28.5C 43.8606,29.2465 41.1939,30.2465 38.5,31.5C 37.8165,31.1373 37.1499,30.8039 36.5,30.5C 35.6103,28.2181 35.4436,25.8848 36,23.5C 38.7005,21.7313 41.5338,20.398 44.5,19.5 Z"/></g>
<g><path style="opacity:1" fill="#535353" d="M 44.5,19.5 C 41.5338,20.398 38.7005,21.7313 36,23.5C 35.4436,25.8848 35.6103,28.2181 36.5,30.5C 35.8826,30.3893 35.3826,30.056 35,29.5C 34.3333,27.1667 34.3333,24.8333 35,22.5C 37.8349,21.0836 40.5015,19.417 43,17.5C 43.7172,18.0442 44.2172,18.7109 44.5,19.5 Z"/></g>
<g><path style="opacity:1" fill="#0d0d0d" d="M 46.5,28.5 C 51.676,29.0557 56.176,31.0557 60,34.5C 61.6738,30.747 64.5072,29.247 68.5,30C 69.056,30.3826 69.3893,30.8826 69.5,31.5C 73.17,34.1713 74.3367,37.8379 73,42.5C 71.9994,46.2594 69.4994,47.9261 65.5,47.5C 66.7243,56.6193 63.0576,59.9526 54.5,57.5C 52.9022,63.1032 49.2355,66.1032 43.5,66.5C 44.164,63.2872 46.164,61.1206 49.5,60C 50.4506,59.2825 50.6172,58.4491 50,57.5C 45.4256,62.15 39.9256,63.65 33.5,62C 32.6195,61.2917 31.9528,60.4584 31.5,59.5C 30.8333,59.1667 30.1667,58.8333 29.5,58.5C 29.5,57.8333 29.1667,57.5 28.5,57.5C 28.0766,56.7354 27.7432,55.9021 27.5,55C 29.8976,52.314 31.231,49.1474 31.5,45.5C 32.1667,45.8333 32.8333,46.1667 33.5,46.5C 38.9504,50.9628 41.9504,49.4628 42.5,42C 42.7224,39.7253 41.7224,38.5587 39.5,38.5C 39.2648,37.9033 38.7648,37.5699 38,37.5C 36.6974,37.9783 35.5307,38.645 34.5,39.5C 34.631,38.7611 34.4643,38.0944 34,37.5C 33.3457,38.6956 32.8457,38.6956 32.5,37.5C 33.6042,34.9489 34.9375,32.6155 36.5,30.5C 37.1499,30.8039 37.8165,31.1373 38.5,31.5C 41.1939,30.2465 43.8606,29.2465 46.5,28.5 Z"/></g>
<g><path style="opacity:1" fill="#f6f6f6" d="M 69.5,31.5 C 70.8914,33.7915 71.8914,36.2915 72.5,39C 72.2912,44.9366 69.2912,47.2699 63.5,46C 60.2411,43.9783 58.7411,41.145 59,37.5C 60.8783,35.9571 62.3783,34.1238 63.5,32C 65.4727,31.5045 67.4727,31.3379 69.5,31.5 Z"/></g>
<g><path style="opacity:1" fill="#efefef" d="M 39.5,38.5 C 41.7224,38.5587 42.7224,39.7253 42.5,42C 41.9504,49.4628 38.9504,50.9628 33.5,46.5C 34.6534,44.1932 35.8201,41.8599 37,39.5C 37.6708,38.7476 38.5041,38.4142 39.5,38.5 Z"/></g>
<g><path style="opacity:1" fill="#666666" d="M 39.5,38.5 C 38.5041,38.4142 37.6708,38.7476 37,39.5C 35.8201,41.8599 34.6534,44.1932 33.5,46.5C 32.8333,46.1667 32.1667,45.8333 31.5,45.5C 31.9925,43.1815 32.9925,41.1815 34.5,39.5C 35.5307,38.645 36.6974,37.9783 38,37.5C 38.7648,37.5699 39.2648,37.9033 39.5,38.5 Z"/></g>
<g><path style="opacity:1" fill="#e7e7e7" d="M 46.5,52.5 C 46.573,50.2109 46.9063,47.8775 47.5,45.5C 47.4226,44.2502 46.756,43.4169 45.5,43C 51.6913,39.7223 55.3579,41.5556 56.5,48.5C 54.2147,52.6478 50.8813,53.9811 46.5,52.5 Z"/></g>
<g><path style="opacity:1" fill="#979797" d="M 47.5,45.5 C 46.9063,47.8775 46.573,50.2109 46.5,52.5C 45.8826,52.3893 45.3826,52.056 45,51.5C 44.5045,49.5273 44.3379,47.5273 44.5,45.5C 45.5,45.5 46.5,45.5 47.5,45.5 Z"/></g>
<g><path style="opacity:1" fill="#939393" d="M 34.5,54.5 C 31.266,55.0056 30.5993,56.6722 32.5,59.5C 32.1667,59.5 31.8333,59.5 31.5,59.5C 30.7822,57.8632 30.6155,56.1966 31,54.5C 32.2917,53.2089 33.4583,53.2089 34.5,54.5 Z"/></g>
<g><path style="opacity:1" fill="#f1f1f1" d="M 34.5,54.5 C 43.1731,56.5962 43.3397,58.5962 35,60.5C 34.0979,60.2568 33.2646,59.9234 32.5,59.5C 30.5993,56.6722 31.266,55.0056 34.5,54.5 Z"/></g>
<g><path style="opacity:1" fill="#676868" d="M 28.5,57.5 C 29.1667,57.5 29.5,57.8333 29.5,58.5C 28.9569,58.56 28.6236,58.8933 28.5,59.5C 29.8567,61.5654 31.19,63.5654 32.5,65.5C 30.8828,66.038 29.2161,66.3713 27.5,66.5C 27.9817,65.5837 28.315,64.5837 28.5,63.5C 27.5113,62.7402 26.8446,61.5735 26.5,60C 26.6842,58.6244 27.3509,57.7911 28.5,57.5 Z"/></g>
<g><path style="opacity:1" fill="#010101" d="M 36.5,64.5 C 37.2485,65.531 37.9152,66.6976 38.5,68C 38.1667,68.1667 37.8333,68.3333 37.5,68.5C 36.5713,67.3112 36.238,65.9778 36.5,64.5 Z"/></g>
<g><path style="opacity:1" fill="#080808" d="M 39.5,63.5 C 40.6935,63.9704 41.3601,64.9704 41.5,66.5C 41.1667,67.5 40.8333,68.5 40.5,69.5C 39.5344,67.604 39.2011,65.604 39.5,63.5 Z"/></g>
<g><path style="opacity:1" fill="#111111" d="M 32.5,65.5 C 34.0542,66.9142 35.3875,68.5808 36.5,70.5C 32.7667,71.1395 29.7667,69.8062 27.5,66.5C 29.2161,66.3713 30.8828,66.038 32.5,65.5 Z"/></g>
</svg>
