<?xml version="1.0" encoding="UTF-8"?>
<!DOCTYPE svg PUBLIC "-//W3C//DTD SVG 1.1//EN" "http://www.w3.org/Graphics/SVG/1.1/DTD/svg11.dtd">
<svg xmlns="http://www.w3.org/2000/svg" version="1.1" width="96px" height="96px" style="shape-rendering:geometricPrecision; text-rendering:geometricPrecision; image-rendering:optimizeQuality; fill-rule:evenodd; clip-rule:evenodd" xmlns:xlink="http://www.w3.org/1999/xlink">
<g><path style="opacity:1" fill="#e74242" d="M 59.5,4.5 C 80.058,20.7918 83.8914,40.4585 71,63.5C 62.8254,74.1731 51.992,79.1731 38.5,78.5C 37.9033,78.2648 37.5699,77.7648 37.5,77C 41.1879,70.3035 46.0212,64.4702 52,59.5C 52.7914,58.255 53.2914,56.9217 53.5,55.5C 54.9063,55.0269 55.573,54.0269 55.5,52.5C 59.3753,49.9517 59.3753,48.9517 55.5,49.5C 55.7062,46.5049 55.0395,43.8383 53.5,41.5C 52.8198,36.4776 50.8198,32.1443 47.5,28.5C 47.4894,26.9826 46.8228,25.8159 45.5,25C 37.8928,21.3454 29.8928,20.0121 21.5,21C 18.8261,21.6701 16.4927,22.8368 14.5,24.5C 12.9731,24.427 11.9731,25.0937 11.5,26.5C 10.7611,26.631 10.0944,26.4643 9.5,26C 21.2861,7.60953 37.9528,0.442865 59.5,4.5 Z"/></g>
<g><path style="opacity:1" fill="#952d2d" d="M 59.5,4.5 C 80.3125,10.7766 91.6459,24.7766 93.5,46.5C 93.072,67.3744 83.2387,81.7078 64,89.5C 63.0979,89.2568 62.2646,88.9234 61.5,88.5C 61.573,86.9731 60.9063,85.9731 59.5,85.5C 58.9862,83.4884 58.8195,81.4884 59,79.5C 61.1847,78.0716 63.1847,76.4049 65,74.5C 65.6667,73.8333 65.6667,73.1667 65,72.5C 57.3346,80.4595 48.5012,82.4595 38.5,78.5C 51.992,79.1731 62.8254,74.1731 71,63.5C 83.8914,40.4585 80.058,20.7918 59.5,4.5 Z"/></g>
<g><path style="opacity:1" fill="#f3f6f9" d="M 47.5,28.5 C 49.2635,33.022 51.2635,37.3554 53.5,41.5C 53.5651,44.4282 54.2318,47.0948 55.5,49.5C 55.5,50.5 55.5,51.5 55.5,52.5C 54.0937,52.9731 53.427,53.9731 53.5,55.5C 48.8974,60.6047 44.064,65.6047 39,70.5C 36.1453,74.0176 35.9787,77.5176 38.5,81C 44.8617,81.6534 51.195,81.4867 57.5,80.5C 57.4021,82.5529 58.0687,84.2196 59.5,85.5C 59.427,87.0269 60.0937,88.0269 61.5,88.5C 61.5,89.5 61.5,90.5 61.5,91.5C 36.4108,96.2051 18.2442,87.2051 7,64.5C 6.02304,62.26 5.52304,59.9267 5.5,57.5C 10.6787,56.6075 16.012,55.7741 21.5,55C 24.1816,52.6828 24.015,50.5161 21,48.5C 20.3201,38.8014 15.3201,34.8014 6,36.5C 5.53566,35.9056 5.36899,35.2389 5.5,34.5C 6.52766,31.1145 8.52766,28.4478 11.5,26.5C 13.0269,26.573 14.0269,25.9063 14.5,24.5C 21.6802,22.5379 29.0135,22.0379 36.5,23C 40.7414,23.7873 44.4081,25.6207 47.5,28.5 Z"/></g>
<g><path style="opacity:1" fill="#2e2d2c" d="M 95.5,36.5 C 95.5,44.1667 95.5,51.8333 95.5,59.5C 89.0906,77.5759 76.7573,89.5759 58.5,95.5C 52.1667,95.5 45.8333,95.5 39.5,95.5C 19.7565,90.0894 7.42318,77.4227 2.5,57.5C 3.22158,57.9175 3.72158,58.5842 4,59.5C 4.27842,58.5842 4.77842,57.9175 5.5,57.5C 5.52304,59.9267 6.02304,62.26 7,64.5C 18.2442,87.2051 36.4108,96.2051 61.5,91.5C 61.5,90.5 61.5,89.5 61.5,88.5C 62.2646,88.9234 63.0979,89.2568 64,89.5C 83.2387,81.7078 93.072,67.3744 93.5,46.5C 91.6459,24.7766 80.3125,10.7766 59.5,4.5C 37.9528,0.442865 21.2861,7.60953 9.5,26C 10.0944,26.4643 10.7611,26.631 11.5,26.5C 8.52766,28.4478 6.52766,31.1145 5.5,34.5C 5.56544,34.0618 5.39877,33.7284 5,33.5C 4.72158,34.4158 4.22158,35.0825 3.5,35.5C 7.62961,20.8673 16.6296,10.3673 30.5,4C 61.8486,-4.32573 83.5153,6.5076 95.5,36.5 Z"/></g>
<g><path style="opacity:1" fill="#2a3635" d="M 14.5,24.5 C 14.0269,25.9063 13.0269,26.573 11.5,26.5C 11.9731,25.0937 12.9731,24.427 14.5,24.5 Z"/></g>
<g><path style="opacity:1" fill="#2a221f" d="M 47.5,28.5 C 44.4081,25.6207 40.7414,23.7873 36.5,23C 29.0135,22.0379 21.6802,22.5379 14.5,24.5C 16.4927,22.8368 18.8261,21.6701 21.5,21C 29.8928,20.0121 37.8928,21.3454 45.5,25C 46.8228,25.8159 47.4894,26.9826 47.5,28.5 Z"/></g>
<g><path style="opacity:1" fill="#211815" d="M 47.5,28.5 C 50.8198,32.1443 52.8198,36.4776 53.5,41.5C 51.2635,37.3554 49.2635,33.022 47.5,28.5 Z"/></g>
<g><path style="opacity:1" fill="#1b1c1c" d="M 34.5,31.5 C 45.0324,31.1989 49.1991,36.1989 47,46.5C 44.0812,52.0248 39.5812,53.8581 33.5,52C 27.8912,48.7231 26.0578,43.8897 28,37.5C 29.4936,34.6865 31.6603,32.6865 34.5,31.5 Z"/></g>
<g><path style="opacity:1" fill="#f0f0f0" d="M 32.5,35.5 C 33.5,35.5 34.5,35.5 35.5,35.5C 36.6605,40.1746 34.9939,42.8413 30.5,43.5C 30.1072,40.4867 30.7739,37.8201 32.5,35.5 Z"/></g>
<g><path style="opacity:1" fill="#1f1f1e" d="M 5.5,34.5 C 5.36899,35.2389 5.53566,35.9056 6,36.5C 15.3201,34.8014 20.3201,38.8014 21,48.5C 24.015,50.5161 24.1816,52.6828 21.5,55C 16.012,55.7741 10.6787,56.6075 5.5,57.5C 4.77842,57.9175 4.27842,58.5842 4,59.5C 3.72158,58.5842 3.22158,57.9175 2.5,57.5C 1.94505,54.904 0.945052,52.5707 -0.5,50.5C -0.5,47.5 -0.5,44.5 -0.5,41.5C 1.25602,39.751 2.58936,37.751 3.5,35.5C 4.22158,35.0825 4.72158,34.4158 5,33.5C 5.39877,33.7284 5.56544,34.0618 5.5,34.5 Z"/></g>
<g><path style="opacity:1" fill="#8d2b2b" d="M 67.5,43.5 C 65.7568,45.4364 63.7568,45.7698 61.5,44.5C 63.1468,41.5265 65.1468,38.8599 67.5,36.5C 68.7199,36.8869 69.3865,37.7202 69.5,39C 68.5862,40.4064 67.9195,41.9064 67.5,43.5 Z"/></g>
<g><path style="opacity:1" fill="#f3f3f3" d="M 3.5,40.5 C 4.5,40.5 5.5,40.5 6.5,40.5C 7.40147,44.2407 6.06814,46.2407 2.5,46.5C 2.32526,44.3792 2.65859,42.3792 3.5,40.5 Z"/></g>
<g><path style="opacity:1" fill="#232422" d="M 53.5,41.5 C 55.0395,43.8383 55.7062,46.5049 55.5,49.5C 54.2318,47.0948 53.5651,44.4282 53.5,41.5 Z"/></g>
<g><path style="opacity:1" fill="#8a2a2a" d="M 67.5,43.5 C 69.7918,40.5288 71.4585,40.8622 72.5,44.5C 71.6667,44.8333 70.8333,45.1667 70,45.5C 68.6244,45.3158 67.7911,44.6491 67.5,43.5 Z"/></g>
<g><path style="opacity:1" fill="#1b1312" d="M 55.5,52.5 C 55.5,51.5 55.5,50.5 55.5,49.5C 59.3753,48.9517 59.3753,49.9517 55.5,52.5 Z"/></g>
<g><path style="opacity:1" fill="#dd4242" d="M 17.5,50.5 C 18.8333,50.5 20.1667,50.5 21.5,50.5C 21.67,51.8221 21.3366,52.9887 20.5,54C 15.8086,54.6037 11.142,54.9371 6.5,55C 10.3428,53.6389 14.0094,52.1389 17.5,50.5 Z"/></g>
<g><path style="opacity:1" fill="#161514" d="M 55.5,52.5 C 55.573,54.0269 54.9063,55.0269 53.5,55.5C 53.427,53.9731 54.0937,52.9731 55.5,52.5 Z"/></g>
<g><path style="opacity:1" fill="#221918" d="M 53.5,55.5 C 53.2914,56.9217 52.7914,58.255 52,59.5C 46.0212,64.4702 41.1879,70.3035 37.5,77C 37.5699,77.7648 37.9033,78.2648 38.5,78.5C 48.5012,82.4595 57.3346,80.4595 65,72.5C 65.6667,73.1667 65.6667,73.8333 65,74.5C 63.1847,76.4049 61.1847,78.0716 59,79.5C 58.8195,81.4884 58.9862,83.4884 59.5,85.5C 58.0687,84.2196 57.4021,82.5529 57.5,80.5C 51.195,81.4867 44.8617,81.6534 38.5,81C 35.9787,77.5176 36.1453,74.0176 39,70.5C 44.064,65.6047 48.8974,60.6047 53.5,55.5 Z"/></g>
<g><path style="opacity:1" fill="#110d0d" d="M 59.5,85.5 C 60.9063,85.9731 61.573,86.9731 61.5,88.5C 60.0937,88.0269 59.427,87.0269 59.5,85.5 Z"/></g>
</svg>
