<?xml version="1.0" encoding="UTF-8"?>
<!DOCTYPE svg PUBLIC "-//W3C//DTD SVG 1.1//EN" "http://www.w3.org/Graphics/SVG/1.1/DTD/svg11.dtd">
<svg xmlns="http://www.w3.org/2000/svg" version="1.1" width="96px" height="96px" style="shape-rendering:geometricPrecision; text-rendering:geometricPrecision; image-rendering:optimizeQuality; fill-rule:evenodd; clip-rule:evenodd" xmlns:xlink="http://www.w3.org/1999/xlink">
<g><path style="opacity:0.968" fill="#fdfefd" d="M 41.5,-0.5 C 45.8333,-0.5 50.1667,-0.5 54.5,-0.5C 76.5267,4.86002 90.1934,18.5267 95.5,40.5C 95.5,45.5 95.5,50.5 95.5,55.5C 89.8333,76.5 76.5,89.8333 55.5,95.5C 50.5,95.5 45.5,95.5 40.5,95.5C 9.95468,86.4194 -2.87866,66.0861 2,34.5C 8.7922,15.536 21.9589,3.86935 41.5,-0.5 Z"/></g>
<g><path style="opacity:1" fill="#0de238" d="M 48.5,36.5 C 51.1667,39.5 53.8333,42.5 56.5,45.5C 56.6621,47.5273 56.4955,49.5273 56,51.5C 53.295,54.0362 50.795,56.7029 48.5,59.5C 43.3687,64.1302 38.3687,68.9635 33.5,74C 23.9911,75.4948 20.4911,71.6615 23,62.5C 27.8799,57.9558 32.3799,53.1225 36.5,48C 32.3799,42.8775 27.8799,38.0442 23,33.5C 20.4911,24.3385 23.9911,20.5052 33.5,22C 38.3687,27.0365 43.3687,31.8698 48.5,36.5 Z"/></g>
<g><path style="opacity:1" fill="#0de038" d="M 70.5,36.5 C 63.0389,37.3732 59.3723,34.0399 59.5,26.5C 64.2332,20.2644 69.3999,19.931 75,25.5C 76.2457,30.3365 74.7457,34.0032 70.5,36.5 Z"/></g>
<g><path style="opacity:1" fill="#037558" d="M 59.5,26.5 C 59.3723,34.0399 63.0389,37.3732 70.5,36.5C 66.7668,40.2272 63.4335,44.2272 60.5,48.5C 59.1667,47.5 57.8333,46.5 56.5,45.5C 53.8333,42.5 51.1667,39.5 48.5,36.5C 52.1667,33.1667 55.8333,29.8333 59.5,26.5 Z"/></g>
<g><path style="opacity:1" fill="#0eb30b" d="M 56.5,45.5 C 57.8333,46.5 59.1667,47.5 60.5,48.5C 65.1302,53.6313 69.9635,58.6313 75,63.5C 75.9996,72.1644 72.1662,75.6644 63.5,74C 58.6313,68.9635 53.6313,64.1302 48.5,59.5C 50.795,56.7029 53.295,54.0362 56,51.5C 56.4955,49.5273 56.6621,47.5273 56.5,45.5 Z"/></g>
</svg>
