<?xml version="1.0" encoding="UTF-8"?>
<!DOCTYPE svg PUBLIC "-//W3C//DTD SVG 1.1//EN" "http://www.w3.org/Graphics/SVG/1.1/DTD/svg11.dtd">
<svg xmlns="http://www.w3.org/2000/svg" version="1.1" width="96px" height="96px" style="shape-rendering:geometricPrecision; text-rendering:geometricPrecision; image-rendering:optimizeQuality; fill-rule:evenodd; clip-rule:evenodd" xmlns:xlink="http://www.w3.org/1999/xlink">
<g><path style="opacity:0.969" fill="#fafafa" d="M 37.5,-0.5 C 44.1667,-0.5 50.8333,-0.5 57.5,-0.5C 77.1667,5.16667 89.8333,17.8333 95.5,37.5C 95.5,44.1667 95.5,50.8333 95.5,57.5C 89.8333,77.1667 77.1667,89.8333 57.5,95.5C 50.8333,95.5 44.1667,95.5 37.5,95.5C 17.8333,89.8333 5.16667,77.1667 -0.5,57.5C -0.5,50.8333 -0.5,44.1667 -0.5,37.5C 5.16667,17.8333 17.8333,5.16667 37.5,-0.5 Z"/></g>
<g><path style="opacity:1" fill="#0a0a0a" d="M 64.5,18.5 C 62.1806,17.833 59.8473,17.6664 57.5,18C 61.0415,19.9767 64.7082,20.4767 68.5,19.5C 68.0431,18.7025 67.3764,18.3691 66.5,18.5C 66.067,15.8045 64.7337,13.6379 62.5,12C 67.4829,14.637 71.6496,18.4703 75,23.5C 75.712,28.0021 76.712,32.3354 78,36.5C 79.2805,39.4474 81.2805,41.7807 84,43.5C 84.4935,45.1341 84.6602,46.8008 84.5,48.5C 84.1667,48.5 83.8333,48.5 83.5,48.5C 83.7093,46.2856 82.876,44.619 81,43.5C 79.3333,44.5 77.6667,45.5 76,46.5C 73.4791,45.3267 70.9791,45.3267 68.5,46.5C 67.6829,49.8416 65.6829,51.3416 62.5,51C 63.9308,50.5348 65.0975,49.7014 66,48.5C 67.1227,45.7513 68.6227,43.2513 70.5,41C 68.9239,41.1519 67.5905,41.9852 66.5,43.5C 65.018,41.5171 63.3513,39.6837 61.5,38C 62.1667,37.6667 62.8333,37.3333 63.5,37C 60.9952,35.2467 58.3286,33.7467 55.5,32.5C 54.5713,31.3112 54.238,29.9778 54.5,28.5C 32.3725,27.7951 22.5392,38.4618 25,60.5C 35.2268,77.1385 48.2268,79.8051 64,68.5C 66.0624,66.0993 67.7291,63.4326 69,60.5C 69.1953,62.2072 69.1953,63.8739 69,65.5C 71.2009,61.7597 72.8676,57.7597 74,53.5C 75.4949,69.1571 68.6616,78.8238 53.5,82.5C 47.6384,82.7814 41.9717,82.2814 36.5,81C 38.0931,81.9487 39.4264,83.1154 40.5,84.5C 27.4862,82.4083 18.9862,75.075 15,62.5C 12.1083,50.0653 14.9417,39.232 23.5,30C 22.8333,29.3333 22.1667,29.3333 21.5,30C 17.0584,34.7168 14.0584,40.2168 12.5,46.5C 11.8333,48.5 11.1667,50.5 10.5,52.5C 9.55103,32.6254 18.551,19.7921 37.5,14C 41.5,13.3333 45.5,13.3333 49.5,14C 50,14.5 50.5,15 51,15.5C 51.1379,13.5676 50.6379,11.7343 49.5,10C 49.8333,9.83333 50.1667,9.66667 50.5,9.5C 51.5,10.8333 52.5,12.1667 53.5,13.5C 57.3761,14.942 61.0428,16.6087 64.5,18.5 Z"/></g>
<g><path style="opacity:1" fill="#7d7d7d" d="M 64.5,18.5 C 65.1667,19.8333 65.8333,19.8333 66.5,18.5C 67.3764,18.3691 68.0431,18.7025 68.5,19.5C 64.7082,20.4767 61.0415,19.9767 57.5,18C 59.8473,17.6664 62.1806,17.833 64.5,18.5 Z"/></g>
<g><path style="opacity:1" fill="#b1b1b1" d="M 62.5,26.5 C 64.34,28.168 66.34,29.668 68.5,31C 65.138,31.3684 63.138,29.8684 62.5,26.5 Z"/></g>
<g><path style="opacity:1" fill="#595959" d="M 83.5,48.5 C 83.8333,48.5 84.1667,48.5 84.5,48.5C 83.2942,51.1391 81.2942,51.9724 78.5,51C 80.4517,50.6339 82.1184,49.8005 83.5,48.5 Z"/></g>
<g><path style="opacity:1" fill="#a2a2a2" d="M 12.5,46.5 C 12.6658,51.1785 12.4992,55.8452 12,60.5C 10.7475,57.9865 10.2475,55.3198 10.5,52.5C 11.1667,50.5 11.8333,48.5 12.5,46.5 Z"/></g>
<g><path style="opacity:1" fill="#292929" d="M 77.5,60.5 C 77.3081,73.5455 70.6414,81.3788 57.5,84C 68.3258,79.6764 74.9925,71.8431 77.5,60.5 Z"/></g>
<g><path style="opacity:1" fill="#a2a2a2" d="M 53.5,82.5 C 49.6607,83.0409 45.8274,84.0409 42,85.5C 41.2352,85.4301 40.7352,85.0967 40.5,84.5C 39.4264,83.1154 38.0931,81.9487 36.5,81C 41.9717,82.2814 47.6384,82.7814 53.5,82.5 Z"/></g>
</svg>
