<?xml version="1.0" encoding="UTF-8"?>
<!DOCTYPE svg PUBLIC "-//W3C//DTD SVG 1.1//EN" "http://www.w3.org/Graphics/SVG/1.1/DTD/svg11.dtd">
<svg xmlns="http://www.w3.org/2000/svg" version="1.1" width="96px" height="96px" style="shape-rendering:geometricPrecision; text-rendering:geometricPrecision; image-rendering:optimizeQuality; fill-rule:evenodd; clip-rule:evenodd" xmlns:xlink="http://www.w3.org/1999/xlink">
<g><path style="opacity:0.964" fill="#020202" d="M 38.5,1.5 C 66.7091,-0.110662 84.8758,12.556 93,39.5C 95.4116,61.29 87.2449,77.79 68.5,89C 62.1111,91.0559 55.6111,92.5559 49,93.5C 46.24,93.1804 43.5733,92.5138 41,91.5C 38.5379,92.1595 36.0379,92.4928 33.5,92.5C 33.5,91.5 33.5,90.5 33.5,89.5C 31.2784,88.6138 29.1118,88.6138 27,89.5C 25.1739,88.9896 25.0072,88.1562 26.5,87C 23.0589,85.224 19.8922,83.0574 17,80.5C 16.5774,81.9561 15.7441,82.4561 14.5,82C 14.6445,80.0843 14.1445,78.251 13,76.5C 11.8456,78.9574 10.5123,78.9574 9,76.5C 7.06624,74.5812 7.23291,73.0812 9.5,72C 3.45578,64.811 0.789115,56.4777 1.5,47C 1.30272,37.7331 3.96939,29.3998 9.5,22C 8.35434,19.4428 9.35434,18.1095 12.5,18C 13.1905,16.9326 13.6905,15.7659 14,14.5C 20.9253,7.62306 29.092,3.28972 38.5,1.5 Z"/></g>
<g><path style="opacity:1" fill="#d8d8d8" d="M 32.5,46.5 C 32.8333,46.5 33.1667,46.5 33.5,46.5C 35.8333,46.5 38.1667,46.5 40.5,46.5C 41.9587,46.5674 43.2921,46.2341 44.5,45.5C 46.1172,46.038 47.7839,46.3713 49.5,46.5C 50.0365,43.3354 49.2031,40.6688 47,38.5C 46.5204,40.133 45.6871,41.4664 44.5,42.5C 43.8333,42.5 43.5,42.1667 43.5,41.5C 44.1284,38.0451 46.1284,36.8785 49.5,38C 50.435,40.3806 50.7683,42.8806 50.5,45.5C 53.8333,45.5 57.1667,45.5 60.5,45.5C 59.8273,37.4699 59.8273,29.4699 60.5,21.5C 59.6533,19.0698 58.6533,19.0698 57.5,21.5C 56.6618,21.1583 56.3284,20.4916 56.5,19.5C 57.9187,18.5489 59.5853,18.2155 61.5,18.5C 62.0723,28.4115 62.0723,38.2448 61.5,48C 56.6667,48.1667 51.8333,48.3333 47,48.5C 41.7843,48.4937 36.951,47.8271 32.5,46.5 Z"/></g>
<g><path style="opacity:1" fill="#080808" d="M 57.5,21.5 C 58.6533,19.0698 59.6533,19.0698 60.5,21.5C 59.8273,29.4699 59.8273,37.4699 60.5,45.5C 57.1667,45.5 53.8333,45.5 50.5,45.5C 50.7683,42.8806 50.435,40.3806 49.5,38C 46.1284,36.8785 44.1284,38.0451 43.5,41.5C 42.7671,43.2944 41.7671,44.9611 40.5,46.5C 38.1667,46.5 35.8333,46.5 33.5,46.5C 33.7872,37.4378 33.7872,28.4378 33.5,19.5C 34.5,19.5 35.5,19.5 36.5,19.5C 36.5,21.1667 36.5,22.8333 36.5,24.5C 39.9496,25.2436 41.6162,23.9103 41.5,20.5C 42.5,20.5 43.5,20.5 44.5,20.5C 44.5,21.8333 44.5,23.1667 44.5,24.5C 46.5,24.5 48.5,24.5 50.5,24.5C 51.1667,19.1667 51.8333,19.1667 52.5,24.5C 54.9893,24.7593 56.656,23.7593 57.5,21.5 Z"/></g>
<g><path style="opacity:1" fill="#c2c2c2" d="M 56.5,19.5 C 56.3284,20.4916 56.6618,21.1583 57.5,21.5C 56.656,23.7593 54.9893,24.7593 52.5,24.5C 51.8333,19.1667 51.1667,19.1667 50.5,24.5C 48.5,24.5 46.5,24.5 44.5,24.5C 44.5,23.1667 44.5,21.8333 44.5,20.5C 43.5,20.5 42.5,20.5 41.5,20.5C 41.6162,23.9103 39.9496,25.2436 36.5,24.5C 36.5,22.8333 36.5,21.1667 36.5,19.5C 35.5,19.5 34.5,19.5 33.5,19.5C 33.7872,28.4378 33.7872,37.4378 33.5,46.5C 33.1667,46.5 32.8333,46.5 32.5,46.5C 32.5,37.1667 32.5,27.8333 32.5,18.5C 34.1667,18.5 35.8333,18.5 37.5,18.5C 37.5,19.8333 37.5,21.1667 37.5,22.5C 38.5,22.5 39.5,22.5 40.5,22.5C 40.5,21.1667 40.5,19.8333 40.5,18.5C 44.7888,17.4832 47.1221,19.1498 47.5,23.5C 48.2667,19.6581 50.6001,17.9914 54.5,18.5C 54.3398,20.1992 54.5065,21.8659 55,23.5C 55.21,21.9419 55.71,20.6085 56.5,19.5 Z"/></g>
<g><path style="opacity:1" fill="#606060" d="M 38.5,29.5 C 39.8125,33.2446 39.1458,33.9112 36.5,31.5C 36.8333,30.5 37.5,29.8333 38.5,29.5 Z"/></g>
<g><path style="opacity:1" fill="#d4d4d4" d="M 38.5,29.5 C 41.0838,30.0483 42.0838,31.715 41.5,34.5C 39.8333,34.5 38.1667,34.5 36.5,34.5C 36.5,33.5 36.5,32.5 36.5,31.5C 39.1458,33.9112 39.8125,33.2446 38.5,29.5 Z"/></g>
<g><path style="opacity:1" fill="#929292" d="M 54.5,28.5 C 57.5131,29.3559 58.1797,31.1892 56.5,34C 55.552,34.4828 54.552,34.6495 53.5,34.5C 53.3253,32.3792 53.6586,30.3792 54.5,28.5 Z"/></g>
<g><path style="opacity:1" fill="#828282" d="M 43.5,41.5 C 43.5,42.1667 43.8333,42.5 44.5,42.5C 44.5,43.5 44.5,44.5 44.5,45.5C 43.2921,46.2341 41.9587,46.5674 40.5,46.5C 41.7671,44.9611 42.7671,43.2944 43.5,41.5 Z"/></g>
<g><path style="opacity:1" fill="#3d3d3d" d="M 44.5,45.5 C 44.5,44.5 44.5,43.5 44.5,42.5C 45.6871,41.4664 46.5204,40.133 47,38.5C 49.2031,40.6688 50.0365,43.3354 49.5,46.5C 47.7839,46.3713 46.1172,46.038 44.5,45.5 Z"/></g>
<g><path style="opacity:1" fill="#fafafa" d="M 30.5,53.5 C 32.1667,53.5 33.8333,53.5 35.5,53.5C 35.5,54.8333 35.5,56.1667 35.5,57.5C 32.9407,57.1984 30.6074,57.5318 28.5,58.5C 28.5,60.5 28.5,62.5 28.5,64.5C 30.2915,64.366 31.9582,64.6993 33.5,65.5C 32.8166,67.1765 31.4832,67.8432 29.5,67.5C 29.5,70.5 29.5,73.5 29.5,76.5C 28.1667,76.5 26.8333,76.5 25.5,76.5C 25.5,72.1667 25.5,67.8333 25.5,63.5C 25.5,60.5 25.5,57.5 25.5,54.5C 27.4147,54.7845 29.0813,54.4511 30.5,53.5 Z"/></g>
<g><path style="opacity:1" fill="#f1f1f1" d="M 62.5,58.5 C 62.5,60.5 62.5,62.5 62.5,64.5C 64.1667,64.5 65.8333,64.5 67.5,64.5C 67.5,65.5 67.5,66.5 67.5,67.5C 66.1667,67.5 64.8333,67.5 63.5,67.5C 63.5,70.5 63.5,73.5 63.5,76.5C 62.1667,76.5 60.8333,76.5 59.5,76.5C 59.4766,68.8166 59.1433,61.1499 58.5,53.5C 62.1667,53.5 65.8333,53.5 69.5,53.5C 69.5,54.8333 69.5,56.1667 69.5,57.5C 66.9407,57.1984 64.6074,57.5318 62.5,58.5 Z"/></g>
<g><path style="opacity:1" fill="#dedede" d="M 37.5,53.5 C 40.1667,53.5 42.8333,53.5 45.5,53.5C 43.1905,60.0256 42.8572,66.6923 44.5,73.5C 42.139,73.6741 39.8056,74.0074 37.5,74.5C 40.1667,67.5 40.1667,60.5 37.5,53.5 Z"/></g>
<g><path style="opacity:1" fill="#e5e5e5" d="M 51.5,57.5 C 50.5318,59.6074 50.1984,61.9407 50.5,64.5C 55.8333,65.1667 55.8333,65.8333 50.5,66.5C 50.5,68.5 50.5,70.5 50.5,72.5C 53.0821,72.0254 55.0821,72.6921 56.5,74.5C 53.7131,75.4767 50.7131,75.81 47.5,75.5C 46.8348,68.5197 46.5015,61.5197 46.5,54.5C 49.5788,54.7399 52.5788,54.4066 55.5,53.5C 56.4287,54.6888 56.762,56.0222 56.5,57.5C 54.8333,57.5 53.1667,57.5 51.5,57.5 Z"/></g>
<g><path style="opacity:1" fill="#969696" d="M 30.5,53.5 C 29.0813,54.4511 27.4147,54.7845 25.5,54.5C 25.5,57.5 25.5,60.5 25.5,63.5C 24.5206,60.3752 24.1872,57.0419 24.5,53.5C 26.5,53.5 28.5,53.5 30.5,53.5 Z"/></g>
<g><path style="opacity:1" fill="#5f5f5f" d="M 62.5,58.5 C 63.4511,59.9187 63.7845,61.5853 63.5,63.5C 65.099,63.2322 66.4324,63.5655 67.5,64.5C 65.8333,64.5 64.1667,64.5 62.5,64.5C 62.5,62.5 62.5,60.5 62.5,58.5 Z"/></g>
<g><path style="opacity:1" fill="#565656" d="M 28.5,58.5 C 29.4511,59.9187 29.7845,61.5853 29.5,63.5C 31.4832,63.1568 32.8166,63.8235 33.5,65.5C 31.9582,64.6993 30.2915,64.366 28.5,64.5C 28.5,62.5 28.5,60.5 28.5,58.5 Z"/></g>
<g><path style="opacity:1" fill="#8f8f8f" d="M 51.5,57.5 C 51.5,59.5 51.5,61.5 51.5,63.5C 52.8333,63.5 54.1667,63.5 55.5,63.5C 55.5,64.8333 55.5,66.1667 55.5,67.5C 54.1667,67.5 52.8333,67.5 51.5,67.5C 51.5,68.8333 51.5,70.1667 51.5,71.5C 53.5,71.5 55.5,71.5 57.5,71.5C 57.7373,72.791 57.404,73.791 56.5,74.5C 55.0821,72.6921 53.0821,72.0254 50.5,72.5C 50.5,70.5 50.5,68.5 50.5,66.5C 55.8333,65.8333 55.8333,65.1667 50.5,64.5C 50.1984,61.9407 50.5318,59.6074 51.5,57.5 Z"/></g>
</svg>
