<?xml version="1.0" encoding="UTF-8"?>
<!DOCTYPE svg PUBLIC "-//W3C//DTD SVG 1.1//EN" "http://www.w3.org/Graphics/SVG/1.1/DTD/svg11.dtd">
<svg xmlns="http://www.w3.org/2000/svg" version="1.1" width="96px" height="96px" style="shape-rendering:geometricPrecision; text-rendering:geometricPrecision; image-rendering:optimizeQuality; fill-rule:evenodd; clip-rule:evenodd" xmlns:xlink="http://www.w3.org/1999/xlink">
<g><path style="opacity:0.983" fill="#b61e2a" d="M 38.5,-0.5 C 44.5,-0.5 50.5,-0.5 56.5,-0.5C 76.9052,5.57229 89.9052,18.9056 95.5,39.5C 95.5,44.8333 95.5,50.1667 95.5,55.5C 89.8333,76.5 76.5,89.8333 55.5,95.5C 50.1667,95.5 44.8333,95.5 39.5,95.5C 18.9056,89.9052 5.57229,76.9052 -0.5,56.5C -0.5,50.5 -0.5,44.5 -0.5,38.5C 4.83333,17.8333 17.8333,4.83333 38.5,-0.5 Z"/></g>
<g><path style="opacity:1" fill="#f9e9ea" d="M 44.5,25.5 C 54.2736,23.6378 61.4403,27.3044 66,36.5C 66.8077,38.5787 66.641,40.5787 65.5,42.5C 63.9618,39.1189 62.1285,35.7856 60,32.5C 57.6113,30.0497 54.778,28.883 51.5,29C 54.2404,32.7244 55.0738,36.891 54,41.5C 48.1738,33.3394 40.3404,30.3394 30.5,32.5C 35.3151,35.464 38.3151,39.6307 39.5,45C 39.1667,46.1667 38.8333,47.3333 38.5,48.5C 33.6649,44.3959 28.3315,43.5626 22.5,46C 27.369,47.4173 31.0357,50.2506 33.5,54.5C 28.7364,54.7549 25.0697,56.9215 22.5,61C 29.7836,61.4269 36.7836,63.0935 43.5,66C 51.2318,66.8561 58.8984,66.5228 66.5,65C 74.4746,61.9055 74.1413,59.5722 65.5,58C 62.7352,55.0052 61.9019,51.5052 63,47.5C 63.6891,46.6433 64.5224,45.9767 65.5,45.5C 66.031,48.0985 66.1977,50.7652 66,53.5C 66.8333,54.3333 67.6667,55.1667 68.5,56C 71.1667,56.3333 73.8333,56.6667 76.5,57C 78.8155,59.4755 78.4822,61.8089 75.5,64C 60.7111,72.2583 45.7111,72.5917 30.5,65C 26.0998,64.0223 21.9331,64.5223 18,66.5C 18.4974,60.0253 21.664,55.1919 27.5,52C 23.2891,50.2905 18.9557,48.9572 14.5,48C 20.2779,41.8045 27.2779,39.8045 35.5,42C 32.142,37.4721 27.8087,34.3054 22.5,32.5C 31.3928,27.1838 40.2261,27.1838 49,32.5C 48.5462,29.614 47.0462,27.2806 44.5,25.5 Z"/></g>
<g><path style="opacity:1" fill="#f4dbdc" d="M 56.5,55.5 C 57.675,55.281 58.675,55.6143 59.5,56.5C 57.9483,57.7979 56.9483,57.4646 56.5,55.5 Z"/></g>
</svg>
