<?xml version="1.0" encoding="UTF-8"?>
<!DOCTYPE svg PUBLIC "-//W3C//DTD SVG 1.1//EN" "http://www.w3.org/Graphics/SVG/1.1/DTD/svg11.dtd">
<svg xmlns="http://www.w3.org/2000/svg" version="1.1" width="96px" height="96px" style="shape-rendering:geometricPrecision; text-rendering:geometricPrecision; image-rendering:optimizeQuality; fill-rule:evenodd; clip-rule:evenodd" xmlns:xlink="http://www.w3.org/1999/xlink">
<g><path style="opacity:1" fill="#504b4b" d="M 44.5,7.5 C 43.7659,8.70792 43.4326,10.0413 43.5,11.5C 45.8333,11.5 48.1667,11.5 50.5,11.5C 50.4326,10.0413 50.7659,8.70792 51.5,7.5C 55.2729,7.65732 56.2729,9.32399 54.5,12.5C 49.5,12.5 44.5,12.5 39.5,12.5C 37.8243,8.16684 39.4909,6.50018 44.5,7.5 Z"/></g>
<g><path style="opacity:1" fill="#191818" d="M 44.5,7.5 C 46.8333,7.5 49.1667,7.5 51.5,7.5C 50.7659,8.70792 50.4326,10.0413 50.5,11.5C 48.1667,11.5 45.8333,11.5 43.5,11.5C 43.4326,10.0413 43.7659,8.70792 44.5,7.5 Z"/></g>
<g><path style="opacity:1" fill="#d2d4d4" d="M 39.5,12.5 C 44.5,12.5 49.5,12.5 54.5,12.5C 54.6741,14.861 55.0074,17.1944 55.5,19.5C 53.1667,19.5 50.8333,19.5 48.5,19.5C 48.5,17.8333 48.5,16.1667 48.5,14.5C 46.8333,14.5 45.1667,14.5 43.5,14.5C 43.4427,19.6817 42.776,19.6817 41.5,14.5C 40.6781,16.1386 40.0114,17.8053 39.5,19.5C 39.1667,19.5 38.8333,19.5 38.5,19.5C 38.6741,17.139 39.0074,14.8056 39.5,12.5 Z"/></g>
<g><path style="opacity:1" fill="#fbfbfb" d="M 48.5,19.5 C 45.5,19.5 42.5,19.5 39.5,19.5C 40.0114,17.8053 40.6781,16.1386 41.5,14.5C 42.776,19.6817 43.4427,19.6817 43.5,14.5C 45.1667,14.5 46.8333,14.5 48.5,14.5C 48.5,16.1667 48.5,17.8333 48.5,19.5 Z"/></g>
<g><path style="opacity:1" fill="#ab190e" d="M 45.5,20.5 C 47.1667,20.5 48.8333,20.5 50.5,20.5C 50.7244,24.1788 51.0578,27.8455 51.5,31.5C 51.9717,34.3579 50.9717,36.3579 48.5,37.5C 47.8333,37.5 47.1667,37.5 46.5,37.5C 45.5931,31.8936 45.2598,26.227 45.5,20.5 Z"/></g>
<g><path style="opacity:1" fill="#d55a55" d="M 50.5,20.5 C 51.5,20.5 52.5,20.5 53.5,20.5C 55.0215,26.0452 55.6882,31.7119 55.5,37.5C 54.5,37.5 53.5,37.5 52.5,37.5C 52.7947,35.2646 52.4614,33.2646 51.5,31.5C 51.0578,27.8455 50.7244,24.1788 50.5,20.5 Z"/></g>
<g><path style="opacity:0.831" fill="#cd746f" d="M 37.5,22.5 C 37.8294,25.2282 37.1628,27.5615 35.5,29.5C 35.4095,26.8478 36.0762,24.5145 37.5,22.5 Z"/></g>
<g><path style="opacity:0.741" fill="#e48b7f" d="M 56.5,22.5 C 57.9238,24.5145 58.5905,26.8478 58.5,29.5C 57.0762,27.4855 56.4095,25.1522 56.5,22.5 Z"/></g>
<g><path style="opacity:1" fill="#83150d" d="M 38.5,37.5 C 38.5,37.8333 38.5,38.1667 38.5,38.5C 38.5,38.8333 38.5,39.1667 38.5,39.5C 37.8333,39.5 37.5,39.8333 37.5,40.5C 36.7321,39.7375 36.2321,38.7375 36,37.5C 35.6174,38.056 35.1174,38.3893 34.5,38.5C 34.9629,35.5176 35.2962,32.5176 35.5,29.5C 37.1628,27.5615 37.8294,25.2282 37.5,22.5C 37.5,22.1667 37.5,21.8333 37.5,21.5C 39.1237,19.8632 40.1237,20.1966 40.5,22.5C 39.0952,27.4055 38.4285,32.4055 38.5,37.5 Z"/></g>
<g><path style="opacity:1" fill="#ea9d92" d="M 38.5,19.5 C 38.8333,19.5 39.1667,19.5 39.5,19.5C 42.5,19.5 45.5,19.5 48.5,19.5C 50.8333,19.5 53.1667,19.5 55.5,19.5C 56.3382,19.8417 56.6716,20.5084 56.5,21.5C 55.609,20.8902 54.609,20.5569 53.5,20.5C 52.5,20.5 51.5,20.5 50.5,20.5C 48.8333,20.5 47.1667,20.5 45.5,20.5C 45.1667,20.5 44.8333,20.5 44.5,20.5C 43.0492,25.9595 42.0492,31.6261 41.5,37.5C 40.5,37.5 39.5,37.5 38.5,37.5C 38.4285,32.4055 39.0952,27.4055 40.5,22.5C 40.1237,20.1966 39.1237,19.8632 37.5,21.5C 37.3284,20.5084 37.6618,19.8417 38.5,19.5 Z"/></g>
<g><path style="opacity:0.961" fill="#d47c78" d="M 35.5,29.5 C 35.2962,32.5176 34.9629,35.5176 34.5,38.5C 34.1667,38.5 33.8333,38.5 33.5,38.5C 33.4203,35.2186 34.087,32.2186 35.5,29.5 Z"/></g>
<g><path style="opacity:1" fill="#e35f55" d="M 44.5,20.5 C 44.8743,26.5368 43.8743,32.2034 41.5,37.5C 42.0492,31.6261 43.0492,25.9595 44.5,20.5 Z"/></g>
<g><path style="opacity:0.498" fill="#e89084" d="M 58.5,29.5 C 59.913,32.2186 60.5797,35.2186 60.5,38.5C 59.087,35.7814 58.4203,32.7814 58.5,29.5 Z"/></g>
<g><path style="opacity:1" fill="#9e0e02" d="M 46.5,37.5 C 47.1667,37.5 47.8333,37.5 48.5,37.5C 49.1527,55.1989 48.486,72.5322 46.5,89.5C 46.5,72.1667 46.5,54.8333 46.5,37.5 Z"/></g>
<g><path style="opacity:1" fill="#aa2b19" d="M 53.5,20.5 C 54.609,20.5569 55.609,20.8902 56.5,21.5C 56.5,21.8333 56.5,22.1667 56.5,22.5C 56.4095,25.1522 57.0762,27.4855 58.5,29.5C 58.4203,32.7814 59.087,35.7814 60.5,38.5C 61.4851,55.423 61.8184,72.423 61.5,89.5C 60.8333,90.1667 60.1667,90.8333 59.5,91.5C 58.8333,91.5 58.1667,91.5 57.5,91.5C 57.5,91.1667 57.5,90.8333 57.5,90.5C 57.5,89.8333 57.5,89.1667 57.5,88.5C 57.6666,72.1633 57.4999,55.8299 57,39.5C 56.6174,38.944 56.1174,38.6107 55.5,38.5C 55.5,38.1667 55.5,37.8333 55.5,37.5C 55.6882,31.7119 55.0215,26.0452 53.5,20.5 Z"/></g>
<g><path style="opacity:1" fill="#db605b" d="M 53.5,39.5 C 55.2631,55.4834 56.2631,71.8168 56.5,88.5C 56.1583,89.3382 55.4916,89.6716 54.5,89.5C 54.7243,72.8146 54.391,56.1479 53.5,39.5 Z"/></g>
<g><path style="opacity:1" fill="#983025" d="M 37.5,40.5 C 37.5,56.5 37.5,72.5 37.5,88.5C 36.596,89.209 36.2627,90.209 36.5,91.5C 39.1667,91.5 41.8333,91.5 44.5,91.5C 48.8333,91.5 53.1667,91.5 57.5,91.5C 58.1667,91.5 58.8333,91.5 59.5,91.5C 59.5,91.8333 59.5,92.1667 59.5,92.5C 59.1667,92.5 58.8333,92.5 58.5,92.5C 50.8333,92.5 43.1667,92.5 35.5,92.5C 35.1667,92.5 34.8333,92.5 34.5,92.5C 34.0679,91.2905 33.4013,90.2905 32.5,89.5C 32.1701,72.3251 32.5034,55.3251 33.5,38.5C 33.8333,38.5 34.1667,38.5 34.5,38.5C 35.1174,38.3893 35.6174,38.056 36,37.5C 36.2321,38.7375 36.7321,39.7375 37.5,40.5 Z"/></g>
<g><path style="opacity:1" fill="#efa195" d="M 38.5,39.5 C 39.8313,47.4722 40.498,55.8055 40.5,64.5C 40.498,73.1945 39.8313,81.5278 38.5,89.5C 37.8333,89.5 37.5,89.1667 37.5,88.5C 37.5,72.5 37.5,56.5 37.5,40.5C 37.5,39.8333 37.8333,39.5 38.5,39.5 Z"/></g>
<g><path style="opacity:1" fill="#d65752" d="M 53.5,39.5 C 54.391,56.1479 54.7243,72.8146 54.5,89.5C 53.1687,81.5278 52.502,73.1945 52.5,64.5C 52.5002,55.9932 52.8336,47.6598 53.5,39.5 Z"/></g>
<g><path style="opacity:1" fill="#ec857c" d="M 38.5,39.5 C 38.5,39.1667 38.5,38.8333 38.5,38.5C 39.8221,38.33 40.9887,38.6634 42,39.5C 42.6667,56.1667 42.6667,72.8333 42,89.5C 40.7083,90.7911 39.5417,90.7911 38.5,89.5C 39.8313,81.5278 40.498,73.1945 40.5,64.5C 40.498,55.8055 39.8313,47.4722 38.5,39.5 Z"/></g>
<g><path style="opacity:1" fill="#ce554f" d="M 53.5,39.5 C 53.8417,38.6618 54.5084,38.3284 55.5,38.5C 56.1174,38.6107 56.6174,38.944 57,39.5C 57.4999,55.8299 57.6666,72.1633 57.5,88.5C 57.1667,88.5 56.8333,88.5 56.5,88.5C 56.2631,71.8168 55.2631,55.4834 53.5,39.5 Z"/></g>
<g><path style="opacity:1" fill="#c72620" d="M 44.5,20.5 C 44.8333,20.5 45.1667,20.5 45.5,20.5C 45.2598,26.227 45.5931,31.8936 46.5,37.5C 44.5134,55.1356 43.8467,73.1356 44.5,91.5C 41.8333,91.5 39.1667,91.5 36.5,91.5C 36.2627,90.209 36.596,89.209 37.5,88.5C 37.5,89.1667 37.8333,89.5 38.5,89.5C 39.5417,90.7911 40.7083,90.7911 42,89.5C 42.6667,72.8333 42.6667,56.1667 42,39.5C 40.9887,38.6634 39.8221,38.33 38.5,38.5C 38.5,38.1667 38.5,37.8333 38.5,37.5C 39.5,37.5 40.5,37.5 41.5,37.5C 43.8743,32.2034 44.8743,26.5368 44.5,20.5 Z"/></g>
<g><path style="opacity:1" fill="#aa0f06" d="M 46.5,37.5 C 46.5,54.8333 46.5,72.1667 46.5,89.5C 47.9187,90.4511 49.5853,90.7845 51.5,90.5C 53.5,90.5 55.5,90.5 57.5,90.5C 57.5,90.8333 57.5,91.1667 57.5,91.5C 53.1667,91.5 48.8333,91.5 44.5,91.5C 43.8467,73.1356 44.5134,55.1356 46.5,37.5 Z"/></g>
<g><path style="opacity:1" fill="#ab170e" d="M 48.5,37.5 C 49.5,37.5 50.5,37.5 51.5,37.5C 51.5,55.1667 51.5,72.8333 51.5,90.5C 49.5853,90.7845 47.9187,90.4511 46.5,89.5C 48.486,72.5322 49.1527,55.1989 48.5,37.5 Z"/></g>
<g><path style="opacity:1" fill="#c4332b" d="M 51.5,31.5 C 52.4614,33.2646 52.7947,35.2646 52.5,37.5C 53.5,37.5 54.5,37.5 55.5,37.5C 55.5,37.8333 55.5,38.1667 55.5,38.5C 54.5084,38.3284 53.8417,38.6618 53.5,39.5C 52.8336,47.6598 52.5002,55.9932 52.5,64.5C 52.502,73.1945 53.1687,81.5278 54.5,89.5C 55.4916,89.6716 56.1583,89.3382 56.5,88.5C 56.8333,88.5 57.1667,88.5 57.5,88.5C 57.5,89.1667 57.5,89.8333 57.5,90.5C 55.5,90.5 53.5,90.5 51.5,90.5C 51.5,72.8333 51.5,55.1667 51.5,37.5C 50.5,37.5 49.5,37.5 48.5,37.5C 50.9717,36.3579 51.9717,34.3579 51.5,31.5 Z"/></g>
<g><path style="opacity:0.953" fill="#e2e5e6" d="M 32.5,89.5 C 33.4013,90.2905 34.0679,91.2905 34.5,92.5C 31.9486,92.3318 31.2819,91.3318 32.5,89.5 Z"/></g>
<g><path style="opacity:0.278" fill="#e2e9ea" d="M 61.5,89.5 C 62.6736,91.3678 62.0069,92.3678 59.5,92.5C 59.5,92.1667 59.5,91.8333 59.5,91.5C 60.1667,90.8333 60.8333,90.1667 61.5,89.5 Z"/></g>
<g><path style="opacity:0.537" fill="#dcf3f4" d="M 35.5,92.5 C 43.1667,92.5 50.8333,92.5 58.5,92.5C 58.3893,93.1174 58.056,93.6174 57.5,94C 50.5,94.6667 43.5,94.6667 36.5,94C 35.944,93.6174 35.6107,93.1174 35.5,92.5 Z"/></g>
</svg>
