<?xml version="1.0" encoding="UTF-8"?>
<!DOCTYPE svg PUBLIC "-//W3C//DTD SVG 1.1//EN" "http://www.w3.org/Graphics/SVG/1.1/DTD/svg11.dtd">
<svg xmlns="http://www.w3.org/2000/svg" version="1.1" width="96px" height="96px" style="shape-rendering:geometricPrecision; text-rendering:geometricPrecision; image-rendering:optimizeQuality; fill-rule:evenodd; clip-rule:evenodd" xmlns:xlink="http://www.w3.org/1999/xlink">
<g><path style="opacity:0.999" fill="#020202" d="M -0.5,-0.5 C 31.5,-0.5 63.5,-0.5 95.5,-0.5C 95.5,31.5 95.5,63.5 95.5,95.5C 63.5,95.5 31.5,95.5 -0.5,95.5C -0.5,63.5 -0.5,31.5 -0.5,-0.5 Z"/></g>
<g><path style="opacity:1" fill="#f5f5f5" d="M 51.5,12.5 C 54.4068,18.4625 55.9068,24.7958 56,31.5C 56.6708,32.2524 57.5041,32.5858 58.5,32.5C 64.9005,35.441 67.9005,40.6077 67.5,48C 66.6443,49.5947 65.3109,50.428 63.5,50.5C 61.0971,50.552 58.7638,50.2186 56.5,49.5C 57.2623,51.2624 58.5956,52.2624 60.5,52.5C 61.6935,52.9704 62.3601,53.9704 62.5,55.5C 61.4126,61.2754 59.0793,66.4421 55.5,71C 57.2415,72.6196 59.0748,74.1196 61,75.5C 61.7789,77.9063 60.9456,79.573 58.5,80.5C 56.6033,78.5237 54.6033,76.6904 52.5,75C 49.4999,75.8134 46.4999,75.6468 43.5,74.5C 45.4516,75.7847 47.1182,77.4514 48.5,79.5C 45.4666,84.6968 42.4666,84.5301 39.5,79C 37.1667,78.6667 34.8333,78.3333 32.5,78C 28.954,74.4457 25.2874,70.9457 21.5,67.5C 19.4077,65.2114 19.0744,62.7114 20.5,60C 22.1124,59.2797 23.6124,59.4464 25,60.5C 26.5481,51.6272 31.5481,45.9605 40,43.5C 42.4218,43.4824 44.5885,44.1491 46.5,45.5C 48.3829,45.1243 49.8829,44.1243 51,42.5C 51.6667,38.5 51.6667,34.5 51,30.5C 46.969,22.5467 46.6357,14.5467 50,6.5C 50.813,8.43571 51.313,10.4357 51.5,12.5 Z"/></g>
<g><path style="opacity:1" fill="#d7d7d7" d="M 58.5,31.5 C 57.8826,31.3893 57.3826,31.056 57,30.5C 56.548,23.3335 55.3813,16.3335 53.5,9.5C 53.3691,8.62356 53.7025,7.95689 54.5,7.5C 55.4737,13.1172 57.307,18.4505 60,23.5C 60.1667,24.8333 60.3333,26.1667 60.5,27.5C 60.4146,29.3328 59.7479,30.6661 58.5,31.5 Z"/></g>
<g><path style="opacity:1" fill="#5e5e5e" d="M 53.5,9.5 C 55.3813,16.3335 56.548,23.3335 57,30.5C 57.3826,31.056 57.8826,31.3893 58.5,31.5C 58.5,31.8333 58.5,32.1667 58.5,32.5C 57.5041,32.5858 56.6708,32.2524 56,31.5C 55.9068,24.7958 54.4068,18.4625 51.5,12.5C 52.1667,11.5 52.8333,10.5 53.5,9.5 Z"/></g>
<g><path style="opacity:1" fill="#4a4a4a" d="M 59.5,39.5 C 61.337,39.6395 61.6704,40.3061 60.5,41.5C 59.7025,41.0431 59.3691,40.3764 59.5,39.5 Z"/></g>
<g><path style="opacity:1" fill="#808080" d="M 56.5,49.5 C 54.2918,48.0825 53.4585,46.0825 54,43.5C 55.3187,45.2872 56.152,47.2872 56.5,49.5 Z"/></g>
<g><path style="opacity:1" fill="#939393" d="M 56.5,49.5 C 58.7638,50.2186 61.0971,50.552 63.5,50.5C 62.5,51.1667 61.5,51.8333 60.5,52.5C 58.5956,52.2624 57.2623,51.2624 56.5,49.5 Z"/></g>
<g><path style="opacity:1" fill="#4f4f4f" d="M 33.5,53.5 C 39.2034,52.7299 42.3701,55.0632 43,60.5C 40.2341,53.9747 36.2341,52.9747 31,57.5C 30.3333,56.8333 30.3333,56.1667 31,55.5C 31.9947,54.9341 32.828,54.2674 33.5,53.5 Z"/></g>
<g><path style="opacity:1" fill="#2f2f2f" d="M 43.5,74.5 C 41.1432,74.6633 38.8098,74.4966 36.5,74C 41.1511,71.2091 43.6511,67.0424 44,61.5C 45.0111,65.9822 43.8444,69.8155 40.5,73C 41.7375,73.2321 42.7375,73.7321 43.5,74.5 Z"/></g>
</svg>
