<?xml version="1.0" encoding="UTF-8"?>
<!DOCTYPE svg PUBLIC "-//W3C//DTD SVG 1.1//EN" "http://www.w3.org/Graphics/SVG/1.1/DTD/svg11.dtd">
<svg xmlns="http://www.w3.org/2000/svg" version="1.1" width="96px" height="96px" style="shape-rendering:geometricPrecision; text-rendering:geometricPrecision; image-rendering:optimizeQuality; fill-rule:evenodd; clip-rule:evenodd" xmlns:xlink="http://www.w3.org/1999/xlink">
<g><path style="opacity:1" fill="#8073ea" d="M 37.5,-0.5 C 39.1667,-0.5 40.8333,-0.5 42.5,-0.5C 42.5646,5.96367 42.3979,12.6303 42,19.5C 40.3005,20.4061 38.4672,20.7394 36.5,20.5C 35.209,20.7373 34.209,20.404 33.5,19.5C 35.1468,13.3698 36.1468,7.03647 36.5,0.5C 37.1667,0.5 37.5,0.166667 37.5,-0.5 Z"/></g>
<g><path style="opacity:1" fill="#7277eb" d="M 42.5,-0.5 C 43.8333,-0.5 45.1667,-0.5 46.5,-0.5C 45.536,6.74629 45.2027,14.0796 45.5,21.5C 42.5,21.5 39.5,21.5 36.5,21.5C 36.5,21.1667 36.5,20.8333 36.5,20.5C 38.4672,20.7394 40.3005,20.4061 42,19.5C 42.3979,12.6303 42.5646,5.96367 42.5,-0.5 Z"/></g>
<g><path style="opacity:1" fill="#5b7beb" d="M 46.5,-0.5 C 50.1667,-0.5 53.8333,-0.5 57.5,-0.5C 57.5,-0.166667 57.5,0.166667 57.5,0.5C 56.1667,0.5 54.8333,0.5 53.5,0.5C 53.176,7.3543 53.5093,14.021 54.5,20.5C 52.8333,21.1667 51.1667,21.8333 49.5,22.5C 48.1667,22.5 46.8333,22.5 45.5,22.5C 45.5,22.1667 45.5,21.8333 45.5,21.5C 45.2027,14.0796 45.536,6.74629 46.5,-0.5 Z"/></g>
<g><path style="opacity:1" fill="#3f80ec" d="M 57.5,0.5 C 60.1522,0.409526 62.4855,1.07619 64.5,2.5C 63.448,2.35055 62.448,2.51722 61.5,3C 61.9064,8.37767 62.9064,13.5443 64.5,18.5C 61.3703,20.0226 58.037,20.6893 54.5,20.5C 53.5093,14.021 53.176,7.3543 53.5,0.5C 54.8333,0.5 56.1667,0.5 57.5,0.5 Z"/></g>
<g><path style="opacity:1" fill="#9f6dea" d="M 36.5,0.5 C 36.1468,7.03647 35.1468,13.3698 33.5,19.5C 31.079,19.1218 28.7457,18.4552 26.5,17.5C 23.1899,15.1992 19.8566,12.8658 16.5,10.5C 22.0216,5.07243 28.6883,1.73909 36.5,0.5 Z"/></g>
<g><path style="opacity:1" fill="#2587ed" d="M 64.5,2.5 C 69.9246,3.94288 74.5913,6.60955 78.5,10.5C 74.4933,14.1745 69.8266,16.8412 64.5,18.5C 62.9064,13.5443 61.9064,8.37767 61.5,3C 62.448,2.51722 63.448,2.35055 64.5,2.5 Z"/></g>
<g><path style="opacity:0.928" fill="#a7a7f4" d="M 78.5,10.5 C 80.8333,12.1667 82.8333,14.1667 84.5,16.5C 84.5,17.1667 84.1667,17.5 83.5,17.5C 83.0831,16.8761 82.4164,16.5427 81.5,16.5C 73.0639,18.6906 64.7306,21.0239 56.5,23.5C 54.1944,23.0074 51.861,22.6741 49.5,22.5C 51.1667,21.8333 52.8333,21.1667 54.5,20.5C 58.037,20.6893 61.3703,20.0226 64.5,18.5C 69.8266,16.8412 74.4933,14.1745 78.5,10.5 Z"/></g>
<g><path style="opacity:1" fill="#ca95f4" d="M 16.5,10.5 C 19.8566,12.8658 23.1899,15.1992 26.5,17.5C 22.6079,19.1401 18.6079,20.4735 14.5,21.5C 13.197,19.8577 11.8637,18.1911 10.5,16.5C 12.1667,14.1667 14.1667,12.1667 16.5,10.5 Z"/></g>
<g><path style="opacity:0.958" fill="#9badf4" d="M 83.5,17.5 C 82.396,19.3885 81.0627,21.0552 79.5,22.5C 74.573,24.0226 69.2396,25.6893 63.5,27.5C 60.9684,26.4043 58.6351,25.0709 56.5,23.5C 64.7306,21.0239 73.0639,18.6906 81.5,16.5C 82.4164,16.5427 83.0831,16.8761 83.5,17.5 Z"/></g>
<g><path style="opacity:1" fill="#b6a0f5" d="M 26.5,17.5 C 28.7457,18.4552 31.079,19.1218 33.5,19.5C 34.209,20.404 35.209,20.7373 36.5,20.5C 36.5,20.8333 36.5,21.1667 36.5,21.5C 30.9342,25.483 24.6009,27.483 17.5,27.5C 17.5,26.8333 17.1667,26.5 16.5,26.5C 16.1075,24.7162 15.4408,23.0495 14.5,21.5C 18.6079,20.4735 22.6079,19.1401 26.5,17.5 Z"/></g>
<g><path style="opacity:0.898" fill="#aba5f5" d="M 36.5,21.5 C 39.5,21.5 42.5,21.5 45.5,21.5C 45.5,21.8333 45.5,22.1667 45.5,22.5C 38.4065,23.3801 32.4065,26.3801 27.5,31.5C 25.1667,32.1667 22.8333,32.8333 20.5,33.5C 20.1667,33.5 19.8333,33.5 19.5,33.5C 19.7373,32.209 19.404,31.209 18.5,30.5C 18.4431,29.391 18.1098,28.391 17.5,27.5C 24.6009,27.483 30.9342,25.483 36.5,21.5 Z"/></g>
<g><path style="opacity:1" fill="#787ceb" d="M 10.5,16.5 C 11.8637,18.1911 13.197,19.8577 14.5,21.5C 15.4408,23.0495 16.1075,24.7162 16.5,26.5C 12.3998,26.7633 8.39977,26.4299 4.5,25.5C 5.75889,21.9754 7.75889,18.9754 10.5,16.5 Z"/></g>
<g><path style="opacity:0.993" fill="#777ceb" d="M 84.5,16.5 C 87.2307,18.9464 89.2307,21.9464 90.5,25.5C 86.7685,26.1955 82.9352,26.8622 79,27.5C 78.6012,27.2716 78.4346,26.9382 78.5,26.5C 78.8333,25.1667 79.1667,23.8333 79.5,22.5C 81.0627,21.0552 82.396,19.3885 83.5,17.5C 84.1667,17.5 84.5,17.1667 84.5,16.5 Z"/></g>
<g><path style="opacity:0.915" fill="#8eb4f5" d="M 79.5,22.5 C 79.1667,23.8333 78.8333,25.1667 78.5,26.5C 77.3263,27.5137 76.6596,28.847 76.5,30.5C 76.1667,30.5 75.8333,30.5 75.5,30.5C 72.8478,30.4095 70.5145,31.0762 68.5,32.5C 66.5,31.1667 64.8333,29.5 63.5,27.5C 69.2396,25.6893 74.573,24.0226 79.5,22.5 Z"/></g>
<g><path style="opacity:1" fill="#6a84ec" d="M 4.5,25.5 C 8.39977,26.4299 12.3998,26.7633 16.5,26.5C 17.1667,26.5 17.5,26.8333 17.5,27.5C 18.1098,28.391 18.4431,29.391 18.5,30.5C 16.4294,31.8086 13.9294,32.4752 11,32.5C 8.5,32.3333 6,32.1667 3.5,32C 2.94404,31.6174 2.61071,31.1174 2.5,30.5C 2.40206,28.4471 3.06873,26.7804 4.5,25.5 Z"/></g>
<g><path style="opacity:0.999" fill="#6a84ec" d="M 90.5,25.5 C 91.5375,26.9303 92.2041,28.597 92.5,30.5C 90.2568,31.8117 87.5902,32.4783 84.5,32.5C 81.4098,32.4783 78.7432,31.8117 76.5,30.5C 76.6596,28.847 77.3263,27.5137 78.5,26.5C 78.4346,26.9382 78.6012,27.2716 79,27.5C 82.9352,26.8622 86.7685,26.1955 90.5,25.5 Z"/></g>
<g><path style="opacity:0.94" fill="#80bbf4" d="M 75.5,30.5 C 75.1667,32.5 74.8333,34.5 74.5,36.5C 73.8333,39.8333 73.1667,43.1667 72.5,46.5C 72.0961,41.5486 70.7628,36.882 68.5,32.5C 70.5145,31.0762 72.8478,30.4095 75.5,30.5 Z"/></g>
<g><path style="opacity:0.893" fill="#9caef5" d="M 27.5,31.5 C 24.7046,35.7586 23.038,40.4253 22.5,45.5C 22.1667,45.5 21.8333,45.5 21.5,45.5C 21.81,42.2869 21.4767,39.2869 20.5,36.5C 20.5,35.5 20.5,34.5 20.5,33.5C 22.8333,32.8333 25.1667,32.1667 27.5,31.5 Z"/></g>
<g><path style="opacity:1" fill="#618aec" d="M 2.5,30.5 C 2.61071,31.1174 2.94404,31.6174 3.5,32C 6,32.1667 8.5,32.3333 11,32.5C 13.9294,32.4752 16.4294,31.8086 18.5,30.5C 19.404,31.209 19.7373,32.209 19.5,33.5C 17.0849,34.8142 14.2515,35.4809 11,35.5C 7.2936,35.0637 3.7936,35.0637 0.5,35.5C 0.795864,33.597 1.46253,31.9303 2.5,30.5 Z"/></g>
<g><path style="opacity:0.843" fill="#03fdf6" d="M 58.5,42.5 C 51.1667,42.5 43.8333,42.5 36.5,42.5C 40.6811,34.9408 46.6811,33.1074 54.5,37C 56.4641,38.451 57.7974,40.2843 58.5,42.5 Z"/></g>
<g><path style="opacity:1" fill="#5c8cec" d="M 75.5,30.5 C 75.8333,30.5 76.1667,30.5 76.5,30.5C 78.7432,31.8117 81.4098,32.4783 84.5,32.5C 87.5902,32.4783 90.2568,31.8117 92.5,30.5C 93.9238,32.5145 94.5905,34.8478 94.5,37.5C 94.6495,38.552 94.4828,39.552 94,40.5C 88.1263,38.5698 81.9596,37.9032 75.5,38.5C 75.6495,39.552 75.4828,40.552 75,41.5C 74.5065,39.8659 74.3398,38.1992 74.5,36.5C 74.8333,34.5 75.1667,32.5 75.5,30.5 Z"/></g>
<g><path style="opacity:1" fill="#5590ed" d="M 19.5,33.5 C 19.8333,33.5 20.1667,33.5 20.5,33.5C 20.5,34.5 20.5,35.5 20.5,36.5C 20.5,37.8333 20.5,39.1667 20.5,40.5C 14.1579,40.6662 7.82458,40.4995 1.5,40C 0.955796,39.2828 0.28913,38.7828 -0.5,38.5C -0.5,38.1667 -0.5,37.8333 -0.5,37.5C 0.338246,37.1583 0.67158,36.4916 0.5,35.5C 3.7936,35.0637 7.2936,35.0637 11,35.5C 14.2515,35.4809 17.0849,34.8142 19.5,33.5 Z"/></g>
<g><path style="opacity:0.98" fill="#4d96ed" d="M 74.5,36.5 C 74.3398,38.1992 74.5065,39.8659 75,41.5C 75.4828,40.552 75.6495,39.552 75.5,38.5C 81.9596,37.9032 88.1263,38.5698 94,40.5C 94.4828,39.552 94.6495,38.552 94.5,37.5C 94.8333,37.5 95.1667,37.5 95.5,37.5C 95.5,40.5 95.5,43.5 95.5,46.5C 88.1667,47.8333 80.8333,49.1667 73.5,50.5C 73.6716,49.5084 73.3382,48.8417 72.5,48.5C 72.5,47.8333 72.5,47.1667 72.5,46.5C 73.1667,43.1667 73.8333,39.8333 74.5,36.5 Z"/></g>
<g><path style="opacity:0.996" fill="#4b98ed" d="M 20.5,36.5 C 21.4767,39.2869 21.81,42.2869 21.5,45.5C 14.1405,46.427 6.80713,46.7603 -0.5,46.5C -0.5,43.8333 -0.5,41.1667 -0.5,38.5C 0.28913,38.7828 0.955796,39.2828 1.5,40C 7.82458,40.4995 14.1579,40.6662 20.5,40.5C 20.5,39.1667 20.5,37.8333 20.5,36.5 Z"/></g>
<g><path style="opacity:0.951" fill="#26ebf6" d="M 36.5,42.5 C 43.8333,42.5 51.1667,42.5 58.5,42.5C 59.4345,43.5676 59.7678,44.901 59.5,46.5C 51.1667,46.5 42.8333,46.5 34.5,46.5C 34.9887,45.0048 35.6554,43.6715 36.5,42.5 Z"/></g>
<g><path style="opacity:0.996" fill="#3c9fee" d="M 21.5,45.5 C 21.8333,45.5 22.1667,45.5 22.5,45.5C 22.5,46.8333 22.5,48.1667 22.5,49.5C 21.6618,49.8417 21.3284,50.5084 21.5,51.5C 14.3768,51.5877 7.04352,51.5877 -0.5,51.5C -0.5,49.8333 -0.5,48.1667 -0.5,46.5C 6.80713,46.7603 14.1405,46.427 21.5,45.5 Z"/></g>
<g><path style="opacity:0.977" fill="#43dcf5" d="M 34.5,46.5 C 42.8333,46.5 51.1667,46.5 59.5,46.5C 60.3543,47.6316 60.3543,48.965 59.5,50.5C 51.5,50.5 43.5,50.5 35.5,50.5C 34.7659,49.2921 34.4326,47.9587 34.5,46.5 Z"/></g>
<g><path style="opacity:0.927" fill="#57d0f5" d="M 35.5,50.5 C 43.5,50.5 51.5,50.5 59.5,50.5C 59.6716,51.4916 59.3382,52.1583 58.5,52.5C 51.1667,52.5 43.8333,52.5 36.5,52.5C 35.6618,52.1583 35.3284,51.4916 35.5,50.5 Z"/></g>
<g><path style="opacity:1" fill="#36a3ed" d="M 95.5,46.5 C 95.5,49.1667 95.5,51.8333 95.5,54.5C 94.7326,55.172 94.0659,56.0053 93.5,57C 87.1754,57.4995 80.8421,57.6662 74.5,57.5C 74.0074,55.1944 73.6741,52.861 73.5,50.5C 80.8333,49.1667 88.1667,47.8333 95.5,46.5 Z"/></g>
<g><path style="opacity:0.957" fill="#66c9f5" d="M 36.5,52.5 C 43.8333,52.5 51.1667,52.5 58.5,52.5C 58.6716,53.4916 58.3382,54.1583 57.5,54.5C 51.1416,54.4324 44.4749,54.4324 37.5,54.5C 36.6618,54.1583 36.3284,53.4916 36.5,52.5 Z"/></g>
<g><path style="opacity:0.937" fill="#75c0f5" d="M 57.5,54.5 C 57.1667,55.5 56.5,56.1667 55.5,56.5C 50.1667,56.5 44.8333,56.5 39.5,56.5C 38.5,56.1667 37.8333,55.5 37.5,54.5C 44.4749,54.4324 51.1416,54.4324 57.5,54.5 Z"/></g>
<g><path style="opacity:0.997" fill="#2ea9ee" d="M -0.5,51.5 C 7.04352,51.5877 14.3768,51.5877 21.5,51.5C 21.4349,54.4282 20.7682,57.0948 19.5,59.5C 13.1082,59.7513 6.77484,59.418 0.5,58.5C 0.5,57.8333 0.166667,57.5 -0.5,57.5C -0.5,55.5 -0.5,53.5 -0.5,51.5 Z"/></g>
<g><path style="opacity:1" fill="#84b9f5" d="M 39.5,56.5 C 44.8333,56.5 50.1667,56.5 55.5,56.5C 53.3811,58.7166 50.7145,60.05 47.5,60.5C 44.2855,60.05 41.6189,58.7166 39.5,56.5 Z"/></g>
<g><path style="opacity:0.999" fill="#28acee" d="M 95.5,54.5 C 95.5,55.5 95.5,56.5 95.5,57.5C 94.8333,58.8333 94.1667,60.1667 93.5,61.5C 87.6226,61.8573 81.956,62.8573 76.5,64.5C 75.6814,62.2278 75.0147,59.8945 74.5,57.5C 80.8421,57.6662 87.1754,57.4995 93.5,57C 94.0659,56.0053 94.7326,55.172 95.5,54.5 Z"/></g>
<g><path style="opacity:1" fill="#1fb2ef" d="M 0.5,58.5 C 6.77484,59.418 13.1082,59.7513 19.5,59.5C 19.6061,62.0786 18.9395,64.412 17.5,66.5C 12.5,65.8333 7.5,65.1667 2.5,64.5C 1.26162,62.7857 0.594955,60.7857 0.5,58.5 Z"/></g>
<g><path style="opacity:0.951" fill="#62caf4" d="M 22.5,49.5 C 23.2057,55.5751 25.539,60.9084 29.5,65.5C 25.6163,66.7927 21.6163,67.4593 17.5,67.5C 17.5,67.1667 17.5,66.8333 17.5,66.5C 18.9395,64.412 19.6061,62.0786 19.5,59.5C 20.7682,57.0948 21.4349,54.4282 21.5,51.5C 21.3284,50.5084 21.6618,49.8417 22.5,49.5 Z"/></g>
<g><path style="opacity:0.993" fill="#1db2ef" d="M 93.5,61.5 C 93.5979,63.5529 92.9313,65.2196 91.5,66.5C 86.8969,67.3833 82.2303,67.7166 77.5,67.5C 77.1667,66.8333 76.8333,66.1667 76.5,65.5C 76.5,65.1667 76.5,64.8333 76.5,64.5C 81.956,62.8573 87.6226,61.8573 93.5,61.5 Z"/></g>
<g><path style="opacity:0.955" fill="#44daf5" d="M 72.5,48.5 C 73.3382,48.8417 73.6716,49.5084 73.5,50.5C 73.6741,52.861 74.0074,55.1944 74.5,57.5C 75.0147,59.8945 75.6814,62.2278 76.5,64.5C 76.5,64.8333 76.5,65.1667 76.5,65.5C 75.9859,66.6246 75.6526,67.7913 75.5,69C 70.5477,70.458 65.5477,71.7914 60.5,73C 59.944,73.3826 59.6107,73.8826 59.5,74.5C 58.5,74.5 57.5,74.5 56.5,74.5C 53.6275,74.1977 50.9608,73.531 48.5,72.5C 62.8333,70.8333 70.8333,62.8333 72.5,48.5 Z"/></g>
<g><path style="opacity:0.996" fill="#11bcef" d="M 2.5,64.5 C 7.5,65.1667 12.5,65.8333 17.5,66.5C 17.5,66.8333 17.5,67.1667 17.5,67.5C 16.4196,69.9962 15.0862,72.3295 13.5,74.5C 12.5,75.8333 11.5,77.1667 10.5,78.5C 6.80646,74.4493 4.1398,69.7827 2.5,64.5 Z"/></g>
<g><path style="opacity:0.971" fill="#56d2f5" d="M 29.5,65.5 C 31.1911,66.8637 32.8577,68.197 34.5,69.5C 27.9555,72.5468 20.9555,74.2135 13.5,74.5C 15.0862,72.3295 16.4196,69.9962 17.5,67.5C 21.6163,67.4593 25.6163,66.7927 29.5,65.5 Z"/></g>
<g><path style="opacity:0.962" fill="#4bd7f5" d="M 34.5,69.5 C 38.3269,71.1234 42.3269,72.1234 46.5,72.5C 46.5,72.8333 46.5,73.1667 46.5,73.5C 41.9,73.2796 37.5667,73.9462 33.5,75.5C 27.0998,77.1991 21.4331,80.1991 16.5,84.5C 14.1667,82.8333 12.1667,80.8333 10.5,78.5C 11.5,77.1667 12.5,75.8333 13.5,74.5C 20.9555,74.2135 27.9555,72.5468 34.5,69.5 Z"/></g>
<g><path style="opacity:0.988" fill="#10bbef" d="M 91.5,66.5 C 90.1722,71.1651 87.8389,75.1651 84.5,78.5C 83.5,77.1667 82.5,75.8333 81.5,74.5C 79.9138,72.3295 78.5804,69.9962 77.5,67.5C 82.2303,67.7166 86.8969,67.3833 91.5,66.5 Z"/></g>
<g><path style="opacity:1" fill="#37e1f5" d="M 76.5,65.5 C 76.8333,66.1667 77.1667,66.8333 77.5,67.5C 78.5804,69.9962 79.9138,72.3295 81.5,74.5C 77.4778,76.063 73.4778,77.3963 69.5,78.5C 66.8284,77.4986 64.1618,76.4986 61.5,75.5C 60.8333,75.1667 60.1667,74.8333 59.5,74.5C 59.6107,73.8826 59.944,73.3826 60.5,73C 65.5477,71.7914 70.5477,70.458 75.5,69C 75.6526,67.7913 75.9859,66.6246 76.5,65.5 Z"/></g>
<g><path style="opacity:0.993" fill="#01acef" d="M 46.5,73.5 C 45.713,75.1042 44.3797,75.7709 42.5,75.5C 42.1903,81.7576 42.5236,87.9242 43.5,94C 41.9419,94.21 40.6085,94.71 39.5,95.5C 38.8333,95.5 38.1667,95.5 37.5,95.5C 35.1124,94.6515 32.7791,93.6515 30.5,92.5C 31.8333,92.5 33.1667,92.5 34.5,92.5C 34.5,87.1667 34.5,81.8333 34.5,76.5C 38.1716,75.9553 37.8383,75.6219 33.5,75.5C 37.5667,73.9462 41.9,73.2796 46.5,73.5 Z"/></g>
<g><path style="opacity:0.987" fill="#00b2ee" d="M 46.5,72.5 C 47.1667,72.5 47.8333,72.5 48.5,72.5C 50.9608,73.531 53.6275,74.1977 56.5,74.5C 55.0813,75.4511 53.4147,75.7845 51.5,75.5C 51.1903,81.7576 51.5236,87.9242 52.5,94C 51.5842,94.2784 50.9175,94.7784 50.5,95.5C 46.8333,95.5 43.1667,95.5 39.5,95.5C 40.6085,94.71 41.9419,94.21 43.5,94C 42.5236,87.9242 42.1903,81.7576 42.5,75.5C 44.3797,75.7709 45.713,75.1042 46.5,73.5C 46.5,73.1667 46.5,72.8333 46.5,72.5 Z"/></g>
<g><path style="opacity:0.994" fill="#00b8ef" d="M 56.5,74.5 C 57.5,74.5 58.5,74.5 59.5,74.5C 60.1667,74.8333 60.8333,75.1667 61.5,75.5C 59.2405,81.1255 58.9071,86.9589 60.5,93C 59.2625,93.2321 58.2625,93.7321 57.5,94.5C 57.5,94.8333 57.5,95.1667 57.5,95.5C 55.1667,95.5 52.8333,95.5 50.5,95.5C 50.9175,94.7784 51.5842,94.2784 52.5,94C 51.5236,87.9242 51.1903,81.7576 51.5,75.5C 53.4147,75.7845 55.0813,75.4511 56.5,74.5 Z"/></g>
<g><path style="opacity:0.998" fill="#01a4ee" d="M 33.5,75.5 C 37.8383,75.6219 38.1716,75.9553 34.5,76.5C 34.5,81.8333 34.5,87.1667 34.5,92.5C 33.1667,92.5 31.8333,92.5 30.5,92.5C 25.2058,90.8552 20.5392,88.1886 16.5,84.5C 21.4331,80.1991 27.0998,77.1991 33.5,75.5 Z"/></g>
<g><path style="opacity:0.996" fill="#00c0ef" d="M 61.5,75.5 C 64.1618,76.4986 66.8284,77.4986 69.5,78.5C 72.4771,80.4667 75.4771,82.4667 78.5,84.5C 72.6842,90.1161 65.6842,93.4494 57.5,94.5C 58.2625,93.7321 59.2625,93.2321 60.5,93C 58.9071,86.9589 59.2405,81.1255 61.5,75.5 Z"/></g>
<g><path style="opacity:0.843" fill="#2be8f6" d="M 81.5,74.5 C 82.5,75.8333 83.5,77.1667 84.5,78.5C 82.8333,80.8333 80.8333,82.8333 78.5,84.5C 75.4771,82.4667 72.4771,80.4667 69.5,78.5C 73.4778,77.3963 77.4778,76.063 81.5,74.5 Z"/></g>
</svg>
