<?xml version="1.0" encoding="UTF-8"?>
<!DOCTYPE svg PUBLIC "-//W3C//DTD SVG 1.1//EN" "http://www.w3.org/Graphics/SVG/1.1/DTD/svg11.dtd">
<svg xmlns="http://www.w3.org/2000/svg" version="1.1" width="96px" height="96px" style="shape-rendering:geometricPrecision; text-rendering:geometricPrecision; image-rendering:optimizeQuality; fill-rule:evenodd; clip-rule:evenodd" xmlns:xlink="http://www.w3.org/1999/xlink">
<g><path style="opacity:1" fill="#fafbff" d="M 55.5,83.5 C 49.508,84.7742 43.508,84.7742 37.5,83.5C 24.3055,78.3077 15.6388,68.9743 11.5,55.5C 10.0825,48.423 10.4158,41.423 12.5,34.5C 24.7654,11.6891 42.7654,5.52246 66.5,16C 85.2713,30.1871 89.1046,47.6871 78,68.5C 72.3736,76.3908 64.8736,81.3908 55.5,83.5 Z"/></g>
<g><path style="opacity:1" fill="#2744ff" d="M 40.5,36.5 C 39.8333,38.5 39.1667,40.5 38.5,42.5C 37.6981,41.0484 37.1981,39.3817 37,37.5C 36.0543,42.0581 34.0543,46.0581 31,49.5C 31.3287,46.2992 32.162,43.1326 33.5,40C 33.1501,38.7425 32.4835,38.4092 31.5,39C 29.1902,45.6278 25.1902,50.9612 19.5,55C 18.365,55.7494 17.365,55.5827 16.5,54.5C 22.8268,50.3513 26.9934,44.6846 29,37.5C 33.6737,35.1013 38.6737,34.1013 44,34.5C 48.9636,34.4077 53.797,35.0743 58.5,36.5C 60.1821,48.5146 66.8488,56.1813 78.5,59.5C 74.9339,60.8508 71.6006,60.3508 68.5,58C 62.0699,52.9945 57.7366,46.4945 55.5,38.5C 55.1667,39 54.8333,39.5 54.5,40C 55.3012,43.2664 56.6346,46.2664 58.5,49C 58.1667,49.5 57.8333,50 57.5,50.5C 54.0659,46.8669 52.3992,42.5335 52.5,37.5C 48.5483,36.7279 44.5483,36.3946 40.5,36.5 Z"/></g>
<g><path style="opacity:1" fill="#507aff" d="M 40.5,36.5 C 40.8076,38.924 40.4742,41.2573 39.5,43.5C 38.8933,43.3764 38.56,43.0431 38.5,42.5C 39.1667,40.5 39.8333,38.5 40.5,36.5 Z"/></g>
<g><path style="opacity:1" fill="#5a5dff" d="M 12.5,34.5 C 10.4158,41.423 10.0825,48.423 11.5,55.5C 11.631,56.2389 11.4643,56.9056 11,57.5C 10.7216,56.5842 10.2216,55.9175 9.5,55.5C 8.02954,48.7508 8.36288,42.0842 10.5,35.5C 11.1667,35.1667 11.8333,34.8333 12.5,34.5 Z"/></g>
<g><path style="opacity:0.976" fill="#5e64ff" d="M 55.5,85.5 C 55.9175,84.7784 56.5842,84.2784 57.5,84C 56.9056,83.5357 56.2389,83.369 55.5,83.5C 64.8736,81.3908 72.3736,76.3908 78,68.5C 89.1046,47.6871 85.2713,30.1871 66.5,16C 42.7654,5.52246 24.7654,11.6891 12.5,34.5C 11.8333,34.8333 11.1667,35.1667 10.5,35.5C 15.3329,20.9029 25.3329,12.0696 40.5,9C 64.444,6.95865 79.6107,17.4586 86,40.5C 88.2273,64.0772 78.0606,79.0772 55.5,85.5 Z"/></g>
<g><path style="opacity:1" fill="#6468ff" d="M 9.5,55.5 C 10.2216,55.9175 10.7216,56.5842 11,57.5C 11.4643,56.9056 11.631,56.2389 11.5,55.5C 15.6388,68.9743 24.3055,78.3077 37.5,83.5C 38.1667,84.1667 38.8333,84.8333 39.5,85.5C 23.1667,81.8333 13.1667,71.8333 9.5,55.5 Z"/></g>
<g><path style="opacity:1" fill="#555aff" d="M 37.5,83.5 C 43.508,84.7742 49.508,84.7742 55.5,83.5C 56.2389,83.369 56.9056,83.5357 57.5,84C 56.5842,84.2784 55.9175,84.7784 55.5,85.5C 50.1667,86.8333 44.8333,86.8333 39.5,85.5C 38.8333,84.8333 38.1667,84.1667 37.5,83.5 Z"/></g>
</svg>
