<?xml version="1.0" encoding="UTF-8"?>
<!DOCTYPE svg PUBLIC "-//W3C//DTD SVG 1.1//EN" "http://www.w3.org/Graphics/SVG/1.1/DTD/svg11.dtd">
<svg xmlns="http://www.w3.org/2000/svg" version="1.1" width="96px" height="96px" style="shape-rendering:geometricPrecision; text-rendering:geometricPrecision; image-rendering:optimizeQuality; fill-rule:evenodd; clip-rule:evenodd" xmlns:xlink="http://www.w3.org/1999/xlink">
<g><path style="opacity:0.004" fill="#770abe" d="M 91.5,26.5 C 88.8454,14.692 81.512,9.85862 69.5,12C 66.6729,13.6636 63.6729,14.8303 60.5,15.5C 60.8333,14.8333 61.1667,14.1667 61.5,13.5C 63.2726,12.1077 65.2726,10.941 67.5,10C 77.5788,7.07938 85.4121,9.91272 91,18.5C 91.4974,21.146 91.6641,23.8127 91.5,26.5 Z"/></g>
<g><path style="opacity:0.004" fill="#7f0bcf" d="M 38.5,9.5 C 40.1992,9.33982 41.8659,9.50649 43.5,10C 47.0412,12.6604 50.7079,14.1604 54.5,14.5C 56.2646,15.4614 58.2646,15.7947 60.5,15.5C 56.4894,16.8373 52.4894,16.5039 48.5,14.5C 44.1911,12.7277 39.8578,11.3944 35.5,10.5C 36.791,10.7373 37.791,10.404 38.5,9.5 Z"/></g>
<g><path style="opacity:0.004" fill="#9a13c6" d="M 38.5,9.5 C 37.791,10.404 36.791,10.7373 35.5,10.5C 29.8236,10.3339 24.1569,10.5006 18.5,11C 10.4506,13.2115 5.78394,18.3782 4.5,26.5C 4.16667,26.5 3.83333,26.5 3.5,26.5C 2.84771,18.6453 6.18105,13.1453 13.5,10C 21.8267,9.50027 30.16,9.3336 38.5,9.5 Z"/></g>
<g><path style="opacity:0.314" fill="#a676cf" d="M 63.5,68.5 C 61.9409,66.3924 60.6076,64.0591 59.5,61.5C 62.003,58.4983 64.003,55.1649 65.5,51.5C 67.396,50.5344 69.396,50.2011 71.5,50.5C 71.5,57.5 71.5,64.5 71.5,71.5C 73.5,71.5 75.5,71.5 77.5,71.5C 77.5,55.5 77.5,39.5 77.5,23.5C 75.5,23.5 73.5,23.5 71.5,23.5C 71.5,30.5 71.5,37.5 71.5,44.5C 69.396,44.7989 67.396,44.4656 65.5,43.5C 61.2141,32.3565 53.2141,28.0231 41.5,30.5C 40.0413,28.417 38.7079,26.2503 37.5,24C 34.9615,23.2042 32.6282,23.3709 30.5,24.5C 29.9569,24.44 29.6236,24.1067 29.5,23.5C 31.162,22.6733 32.4954,21.5067 33.5,20C 35.5976,19.3224 37.5976,19.4891 39.5,20.5C 41.0938,21.983 42.7605,23.483 44.5,25C 49.6496,25.2685 54.6496,26.2685 59.5,28C 61.6068,30.9477 63.9401,33.7811 66.5,36.5C 67.3275,32.2044 67.8275,27.8711 68,23.5C 69.7105,19.4361 73.2105,17.9361 78.5,19C 78.1667,19.3333 77.8333,19.6667 77.5,20C 78.4162,20.3742 79.2496,20.8742 80,21.5C 81.6369,38.075 81.9703,54.7417 81,71.5C 80.3878,74.0317 78.8878,74.8651 76.5,74C 76.8333,73.6667 77.1667,73.3333 77.5,73C 75.1902,72.5034 72.8568,72.3367 70.5,72.5C 70.5,66.8333 70.5,61.1667 70.5,55.5C 66.5913,56.0746 64.2579,58.4079 63.5,62.5C 63.5288,64.0293 64.1955,65.196 65.5,66C 64.6195,66.7083 63.9528,67.5416 63.5,68.5 Z"/></g>
<g><path style="opacity:0.055" fill="#8652b5" d="M 4.5,68.5 C 4.16667,68.5 3.83333,68.5 3.5,68.5C 3.5,54.5 3.5,40.5 3.5,26.5C 3.83333,26.5 4.16667,26.5 4.5,26.5C 6.0226,21.983 8.68926,18.1496 12.5,15C 13.1667,14.3333 13.8333,14.3333 14.5,15C 14.0338,16.2988 14.0338,17.7988 14.5,19.5C 13.5,19.5 12.5,19.5 11.5,19.5C 11.1909,23.2214 10.1909,26.7214 8.5,30C 9.55364,31.3876 9.72031,32.8876 9,34.5C 8.08529,33.6721 7.41862,32.6721 7,31.5C 6.33333,42.1667 6.33333,52.8333 7,63.5C 7.42258,62.0439 8.25591,61.5439 9.5,62C 6.94358,65.5617 6.11025,69.3951 7,73.5C 6.62638,71.5087 5.79305,69.842 4.5,68.5 Z"/></g>
<g><path style="opacity:1" fill="#fcfafd" d="M 30.5,24.5 C 32.6282,23.3709 34.9615,23.2042 37.5,24C 38.7079,26.2503 40.0413,28.417 41.5,30.5C 53.2141,28.0231 61.2141,32.3565 65.5,43.5C 67.396,44.4656 69.396,44.7989 71.5,44.5C 71.5,37.5 71.5,30.5 71.5,23.5C 73.5,23.5 75.5,23.5 77.5,23.5C 77.5,39.5 77.5,55.5 77.5,71.5C 75.5,71.5 73.5,71.5 71.5,71.5C 71.5,64.5 71.5,57.5 71.5,50.5C 69.396,50.2011 67.396,50.5344 65.5,51.5C 64.003,55.1649 62.003,58.4983 59.5,61.5C 60.6076,64.0591 61.9409,66.3924 63.5,68.5C 63.8039,69.1499 64.1373,69.8165 64.5,70.5C 62.2351,71.6474 59.9018,71.8141 57.5,71C 56.2921,68.7497 54.9587,66.583 53.5,64.5C 48.8491,65.7031 44.1825,65.7031 39.5,64.5C 34.7223,61.3757 31.389,57.0424 29.5,51.5C 27.604,50.5344 25.604,50.2011 23.5,50.5C 23.5,57.5 23.5,64.5 23.5,71.5C 21.5,71.5 19.5,71.5 17.5,71.5C 17.5,55.5 17.5,39.5 17.5,23.5C 19.5,23.5 21.5,23.5 23.5,23.5C 23.5,30.5 23.5,37.5 23.5,44.5C 25.604,44.7989 27.604,44.4656 29.5,43.5C 30.9836,39.8677 32.9836,36.5344 35.5,33.5C 34.0748,30.3116 32.4081,27.3116 30.5,24.5 Z"/></g>
<g><path style="opacity:0.753" fill="#a372cd" d="M 37.5,17.5 C 38.609,17.5569 39.609,17.8902 40.5,18.5C 40.1667,19.1667 39.8333,19.8333 39.5,20.5C 37.5976,19.4891 35.5976,19.3224 33.5,20C 32.4954,21.5067 31.162,22.6733 29.5,23.5C 29.6236,24.1067 29.9569,24.44 30.5,24.5C 32.4081,27.3116 34.0748,30.3116 35.5,33.5C 32.9836,36.5344 30.9836,39.8677 29.5,43.5C 27.604,44.4656 25.604,44.7989 23.5,44.5C 23.5,37.5 23.5,30.5 23.5,23.5C 21.5,23.5 19.5,23.5 17.5,23.5C 17.5,39.5 17.5,55.5 17.5,71.5C 19.5,71.5 21.5,71.5 23.5,71.5C 23.5,64.5 23.5,57.5 23.5,50.5C 25.604,50.2011 27.604,50.5344 29.5,51.5C 31.389,57.0424 34.7223,61.3757 39.5,64.5C 38.5768,65.3029 37.5768,65.4696 36.5,65C 34.2721,62.7007 31.9388,60.5341 29.5,58.5C 27.725,62.3864 26.8916,66.7197 27,71.5C 21.6998,78.0778 17.3665,78.0778 14,71.5C 13.3333,55.5 13.3333,39.5 14,23.5C 15.7862,20.3871 18.4529,18.3871 22,17.5C 27.1213,18.1363 32.288,18.1363 37.5,17.5 Z"/></g>
<g><path style="opacity:0.618" fill="#ac7dd2" d="M 43.5,35.5 C 56.0181,35.5049 60.8514,41.5049 58,53.5C 50.9656,61.4127 43.9656,61.4127 37,53.5C 33.8203,45.5325 35.987,39.5325 43.5,35.5 Z"/></g>
<g><path style="opacity:0.475" fill="#9763c7" d="M 42.5,39.5 C 52.4898,37.6581 56.6564,41.6581 55,51.5C 51.6464,56.2796 47.1464,57.613 41.5,55.5C 40.2743,52.9975 39.2743,50.3308 38.5,47.5C 38.6667,46.1667 38.8333,44.8333 39,43.5C 40.3756,42.2949 41.5423,40.9616 42.5,39.5 Z"/></g>
<g><path style="opacity:0.439" fill="#9d6aca" d="M 54.5,76.5 C 54.577,73.4908 53.2437,71.3241 50.5,70C 45.3504,69.7315 40.3504,68.7315 35.5,67C 33.0486,64.462 31.0486,61.6287 29.5,58.5C 31.9388,60.5341 34.2721,62.7007 36.5,65C 37.5768,65.4696 38.5768,65.3029 39.5,64.5C 44.1825,65.7031 48.8491,65.7031 53.5,64.5C 54.9587,66.583 56.2921,68.7497 57.5,71C 59.9018,71.8141 62.2351,71.6474 64.5,70.5C 64.1373,69.8165 63.8039,69.1499 63.5,68.5C 63.9528,67.5416 64.6195,66.7083 65.5,66C 64.1955,65.196 63.5288,64.0293 63.5,62.5C 64.2579,58.4079 66.5913,56.0746 70.5,55.5C 70.5,61.1667 70.5,66.8333 70.5,72.5C 72.8568,72.3367 75.1902,72.5034 77.5,73C 77.1667,73.3333 76.8333,73.6667 76.5,74C 78.8878,74.8651 80.3878,74.0317 81,71.5C 81.9703,54.7417 81.6369,38.075 80,21.5C 79.2496,20.8742 78.4162,20.3742 77.5,20C 77.8333,19.6667 78.1667,19.3333 78.5,19C 73.2105,17.9361 69.7105,19.4361 68,23.5C 67.8275,27.8711 67.3275,32.2044 66.5,36.5C 63.9401,33.7811 61.6068,30.9477 59.5,28C 54.6496,26.2685 49.6496,25.2685 44.5,25C 42.7605,23.483 41.0938,21.983 39.5,20.5C 39.8333,19.8333 40.1667,19.1667 40.5,18.5C 43.6576,21.919 47.6576,23.419 52.5,23C 56.058,24.3623 59.558,25.8623 63,27.5C 63.772,27.3552 64.4387,27.0219 65,26.5C 66.3697,17.7881 71.203,15.1214 79.5,18.5C 80.9056,20.026 82.0723,21.6927 83,23.5C 84.5777,37.7864 84.911,52.1197 84,66.5C 83.7468,69.7896 82.7468,72.7896 81,75.5C 79.5267,77.0071 77.6934,77.6738 75.5,77.5C 68.4523,77.2446 61.4523,76.9113 54.5,76.5 Z"/></g>
<g><path style="opacity:0.027" fill="#8651bb" d="M 91.5,26.5 C 91.5,40.5 91.5,54.5 91.5,68.5C 90.2266,71.7347 88.8932,75.068 87.5,78.5C 87.6236,79.1067 87.9569,79.44 88.5,79.5C 88.1667,80.5 87.5,81.1667 86.5,81.5C 86.2648,80.9033 85.7648,80.5699 85,80.5C 81.7916,82.0293 78.6249,83.3626 75.5,84.5C 68.4921,84.6663 61.4921,84.4996 54.5,84C 49.2431,80.8587 43.5764,79.0254 37.5,78.5C 32.6943,79.7686 28.0276,81.4353 23.5,83.5C 17.4062,83.4006 12.4062,80.9006 8.5,76C 10.0181,73.3871 11.8514,73.5537 14,76.5C 13.9227,77.7376 14.0894,78.7376 14.5,79.5C 17.9182,77.8481 21.5849,77.0147 25.5,77C 27.6307,74.5754 29.1307,71.742 30,68.5C 30.5613,67.9781 31.228,67.6448 32,67.5C 37.6545,70.9393 43.8212,72.7726 50.5,73C 51.7051,74.3756 53.0384,75.5423 54.5,76.5C 61.4523,76.9113 68.4523,77.2446 75.5,77.5C 77.6934,77.6738 79.5267,77.0071 81,75.5C 82.7468,72.7896 83.7468,69.7896 84,66.5C 84.911,52.1197 84.5777,37.7864 83,23.5C 82.0723,21.6927 80.9056,20.026 79.5,18.5C 71.203,15.1214 66.3697,17.7881 65,26.5C 64.4387,27.0219 63.772,27.3552 63,27.5C 59.558,25.8623 56.058,24.3623 52.5,23C 47.6576,23.419 43.6576,21.919 40.5,18.5C 39.609,17.8902 38.609,17.5569 37.5,17.5C 36.1938,16.5326 35.5271,15.1993 35.5,13.5C 33.8008,13.3398 32.1341,13.5065 30.5,14C 31.3081,14.3076 31.9747,14.8076 32.5,15.5C 29.9205,16.5488 27.2538,17.2155 24.5,17.5C 24.9354,14.3873 23.9354,13.7207 21.5,15.5C 19.7923,15.2972 18.459,14.4638 17.5,13C 25.1667,12.3333 32.8333,12.3333 40.5,13C 42.7221,13.6946 44.8887,14.5279 47,15.5C 47.7648,15.4301 48.2648,15.0967 48.5,14.5C 52.4894,16.5039 56.4894,16.8373 60.5,15.5C 63.6729,14.8303 66.6729,13.6636 69.5,12C 81.512,9.85862 88.8454,14.692 91.5,26.5 Z"/></g>
<g><path style="opacity:0.004" fill="#03023a" d="M 61.5,13.5 C 61.1667,14.1667 60.8333,14.8333 60.5,15.5C 58.2646,15.7947 56.2646,15.4614 54.5,14.5C 56.9029,14.552 59.2362,14.2186 61.5,13.5 Z"/></g>
<g><path style="opacity:0.151" fill="#905ec3" d="M 35.5,10.5 C 39.8578,11.3944 44.1911,12.7277 48.5,14.5C 48.2648,15.0967 47.7648,15.4301 47,15.5C 44.8887,14.5279 42.7221,13.6946 40.5,13C 32.8333,12.3333 25.1667,12.3333 17.5,13C 18.459,14.4638 19.7923,15.2972 21.5,15.5C 23.9354,13.7207 24.9354,14.3873 24.5,17.5C 27.2538,17.2155 29.9205,16.5488 32.5,15.5C 31.9747,14.8076 31.3081,14.3076 30.5,14C 32.1341,13.5065 33.8008,13.3398 35.5,13.5C 35.5271,15.1993 36.1938,16.5326 37.5,17.5C 32.288,18.1363 27.1213,18.1363 22,17.5C 18.4529,18.3871 15.7862,20.3871 14,23.5C 13.3333,39.5 13.3333,55.5 14,71.5C 17.3665,78.0778 21.6998,78.0778 27,71.5C 26.8916,66.7197 27.725,62.3864 29.5,58.5C 31.0486,61.6287 33.0486,64.462 35.5,67C 40.3504,68.7315 45.3504,69.7315 50.5,70C 53.2437,71.3241 54.577,73.4908 54.5,76.5C 53.0384,75.5423 51.7051,74.3756 50.5,73C 43.8212,72.7726 37.6545,70.9393 32,67.5C 31.228,67.6448 30.5613,67.9781 30,68.5C 29.1307,71.742 27.6307,74.5754 25.5,77C 21.5849,77.0147 17.9182,77.8481 14.5,79.5C 14.0894,78.7376 13.9227,77.7376 14,76.5C 11.8514,73.5537 10.0181,73.3871 8.5,76C 12.4062,80.9006 17.4062,83.4006 23.5,83.5C 12.1588,84.8242 5.8255,79.8242 4.5,68.5C 5.79305,69.842 6.62638,71.5087 7,73.5C 6.11025,69.3951 6.94358,65.5617 9.5,62C 8.25591,61.5439 7.42258,62.0439 7,63.5C 6.33333,52.8333 6.33333,42.1667 7,31.5C 7.41862,32.6721 8.08529,33.6721 9,34.5C 9.72031,32.8876 9.55364,31.3876 8.5,30C 10.1909,26.7214 11.1909,23.2214 11.5,19.5C 12.5,19.5 13.5,19.5 14.5,19.5C 14.0338,17.7988 14.0338,16.2988 14.5,15C 13.8333,14.3333 13.1667,14.3333 12.5,15C 8.68926,18.1496 6.0226,21.983 4.5,26.5C 5.78394,18.3782 10.4506,13.2115 18.5,11C 24.1569,10.5006 29.8236,10.3339 35.5,10.5 Z"/></g>
<g><path style="opacity:0.004" fill="#8309c9" d="M 91.5,68.5 C 92.1927,72.7941 91.1927,76.4608 88.5,79.5C 87.9569,79.44 87.6236,79.1067 87.5,78.5C 88.8932,75.068 90.2266,71.7347 91.5,68.5 Z"/></g>
<g><path style="opacity:0.004" fill="#870ac0" d="M 3.5,68.5 C 3.83333,68.5 4.16667,68.5 4.5,68.5C 5.8255,79.8242 12.1588,84.8242 23.5,83.5C 28.0276,81.4353 32.6943,79.7686 37.5,78.5C 43.5764,79.0254 49.2431,80.8587 54.5,84C 61.4921,84.4996 68.4921,84.6663 75.5,84.5C 75.5,84.8333 75.5,85.1667 75.5,85.5C 67.4931,85.6664 59.4931,85.4997 51.5,85C 47.9588,82.3396 44.2921,80.8396 40.5,80.5C 39.7261,79.8529 38.7261,79.5195 37.5,79.5C 35.6455,79.3402 34.3121,80.0069 33.5,81.5C 31.7274,82.8923 29.7274,84.059 27.5,85C 17.4212,87.9206 9.58786,85.0873 4,76.5C 3.50258,73.854 3.33591,71.1873 3.5,68.5 Z"/></g>
<g><path style="opacity:0.004" fill="#060238" d="M 40.5,80.5 C 38.0971,80.448 35.7638,80.7814 33.5,81.5C 34.3121,80.0069 35.6455,79.3402 37.5,79.5C 38.7261,79.5195 39.7261,79.8529 40.5,80.5 Z"/></g>
<g><path style="opacity:0.004" fill="#7207bb" d="M 86.5,81.5 C 83.6305,84.758 79.9639,86.0914 75.5,85.5C 75.5,85.1667 75.5,84.8333 75.5,84.5C 78.6249,83.3626 81.7916,82.0293 85,80.5C 85.7648,80.5699 86.2648,80.9033 86.5,81.5 Z"/></g>
</svg>
