<?xml version="1.0" encoding="UTF-8"?>
<!DOCTYPE svg PUBLIC "-//W3C//DTD SVG 1.1//EN" "http://www.w3.org/Graphics/SVG/1.1/DTD/svg11.dtd">
<svg xmlns="http://www.w3.org/2000/svg" version="1.1" width="96px" height="96px" style="shape-rendering:geometricPrecision; text-rendering:geometricPrecision; image-rendering:optimizeQuality; fill-rule:evenodd; clip-rule:evenodd" xmlns:xlink="http://www.w3.org/1999/xlink">
<g><path style="opacity:0.872" fill="#97ec54" d="M 52.5,7.5 C 50.2278,6.68137 47.8945,6.0147 45.5,5.5C 46.2371,3.69541 47.2371,2.02875 48.5,0.5C 50.11,2.72537 51.4434,5.0587 52.5,7.5 Z"/></g>
<g><path style="opacity:0.955" fill="#92e958" d="M 45.5,5.5 C 47.8945,6.0147 50.2278,6.68137 52.5,7.5C 53.7368,8.96492 54.7368,10.6316 55.5,12.5C 51.0725,12.2012 46.7391,11.5346 42.5,10.5C 43.7515,8.99913 44.7515,7.33246 45.5,5.5 Z"/></g>
<g><path style="opacity:0.922" fill="#8be65b" d="M 42.5,10.5 C 46.7391,11.5346 51.0725,12.2012 55.5,12.5C 56.0431,12.56 56.3764,12.8933 56.5,13.5C 55.675,14.3857 54.675,14.719 53.5,14.5C 53.5,16.5 53.5,18.5 53.5,20.5C 53.1667,20.5 52.8333,20.5 52.5,20.5C 52.2381,18.4362 51.0714,17.1029 49,16.5C 47.8869,17.7111 46.7202,17.7111 45.5,16.5C 44.8243,17.6016 44.1577,18.6016 43.5,19.5C 43.7852,17.712 43.4519,16.0453 42.5,14.5C 41.3131,15.8938 40.6465,15.7271 40.5,14C 40.9783,12.6974 41.645,11.5307 42.5,10.5 Z"/></g>
<g><path style="opacity:0.969" fill="#86e35f" d="M 52.5,20.5 C 52.6495,21.552 52.4828,22.552 52,23.5C 49.1607,22.1555 46.3274,21.8222 43.5,22.5C 43.5,21.5 43.5,20.5 43.5,19.5C 44.1577,18.6016 44.8243,17.6016 45.5,16.5C 46.7202,17.7111 47.8869,17.7111 49,16.5C 51.0714,17.1029 52.2381,18.4362 52.5,20.5 Z"/></g>
<g><path style="opacity:0.91" fill="#81e161" d="M 52.5,20.5 C 52.8333,20.5 53.1667,20.5 53.5,20.5C 53.5,22.5 53.5,24.5 53.5,26.5C 51.8439,25.8535 50.1772,25.1869 48.5,24.5C 46.8653,25.0463 45.1986,25.3796 43.5,25.5C 43.5,24.5 43.5,23.5 43.5,22.5C 46.3274,21.8222 49.1607,22.1555 52,23.5C 52.4828,22.552 52.6495,21.552 52.5,20.5 Z"/></g>
<g><path style="opacity:0.235" fill="#7ee05f" d="M 24.5,27.5 C 23.8333,27.5 23.5,27.1667 23.5,26.5C 26.4231,22.8663 30.0897,21.1996 34.5,21.5C 31.1389,23.5113 27.8056,25.5113 24.5,27.5 Z"/></g>
<g><path style="opacity:0.845" fill="#7fe061" d="M 41.5,29.5 C 38.4097,26.2218 35.0764,25.8885 31.5,28.5C 33.7433,24.5846 36.7433,21.2512 40.5,18.5C 41.4892,22.1073 41.8226,25.774 41.5,29.5 Z"/></g>
<g><path style="opacity:0.883" fill="#82e160" d="M 60.5,21.5 C 60.5,22.1667 60.8333,22.5 61.5,22.5C 62.1667,23.5 62.8333,24.5 63.5,25.5C 63.631,26.2389 63.4643,26.9056 63,27.5C 61.0388,25.4197 58.8722,25.0863 56.5,26.5C 56.1667,26.5 55.8333,26.5 55.5,26.5C 55.1866,23.7531 55.52,21.0865 56.5,18.5C 57.8518,19.5244 59.1851,20.5244 60.5,21.5 Z"/></g>
<g><path style="opacity:0.631" fill="#81e15e" d="M 60.5,21.5 C 64.8236,21.1517 68.4903,22.8183 71.5,26.5C 70.8333,26.5 70.1667,26.5 69.5,26.5C 66.8068,25.1534 64.1401,23.8201 61.5,22.5C 60.8333,22.5 60.5,22.1667 60.5,21.5 Z"/></g>
<g><path style="opacity:0.961" fill="#7edf63" d="M 53.5,26.5 C 53.5,27.5 53.5,28.5 53.5,29.5C 50.3209,28.2066 46.9876,27.5399 43.5,27.5C 43.5,26.8333 43.5,26.1667 43.5,25.5C 45.1986,25.3796 46.8653,25.0463 48.5,24.5C 50.1772,25.1869 51.8439,25.8535 53.5,26.5 Z"/></g>
<g><path style="opacity:0.999" fill="#7ddf62" d="M 63.5,25.5 C 65.2624,26.2623 66.2624,27.5956 66.5,29.5C 64.1432,29.6633 61.8098,29.4966 59.5,29C 57.8807,28.7645 56.8807,27.9311 56.5,26.5C 58.8722,25.0863 61.0388,25.4197 63,27.5C 63.4643,26.9056 63.631,26.2389 63.5,25.5 Z"/></g>
<g><path style="opacity:0.924" fill="#79dd65" d="M 41.5,29.5 C 41.5,30.5 41.5,31.5 41.5,32.5C 37.7657,32.6773 34.0991,32.3439 30.5,31.5C 30.2627,30.209 30.596,29.209 31.5,28.5C 35.0764,25.8885 38.4097,26.2218 41.5,29.5 Z"/></g>
<g><path style="opacity:0.944" fill="#79dd65" d="M 43.5,27.5 C 46.9876,27.5399 50.3209,28.2066 53.5,29.5C 53.7845,31.4147 53.4511,33.0813 52.5,34.5C 49.6085,33.5975 46.6085,33.2641 43.5,33.5C 43.5,31.5 43.5,29.5 43.5,27.5 Z"/></g>
<g><path style="opacity:0.898" fill="#79dd65" d="M 55.5,26.5 C 55.8333,26.5 56.1667,26.5 56.5,26.5C 56.8807,27.9311 57.8807,28.7645 59.5,29C 61.8098,29.4966 64.1432,29.6633 66.5,29.5C 66.5,31.1667 66.5,32.8333 66.5,34.5C 63.0613,34.7471 59.728,34.4137 56.5,33.5C 55.5318,31.3926 55.1984,29.0593 55.5,26.5 Z"/></g>
<g><path style="opacity:0.605" fill="#75dc66" d="M 23.5,26.5 C 23.5,27.1667 23.8333,27.5 24.5,27.5C 22.4707,29.8585 20.4707,32.1918 18.5,34.5C 17.7978,33.8843 16.7978,33.8843 15.5,34.5C 17.1449,30.855 19.8116,28.1884 23.5,26.5 Z"/></g>
<g><path style="opacity:0.868" fill="#79de63" d="M 69.5,26.5 C 70.1667,26.5 70.8333,26.5 71.5,26.5C 75.1203,28.4528 78.1203,31.1195 80.5,34.5C 79.2921,35.2341 77.9587,35.5674 76.5,35.5C 74.5488,32.2139 72.2154,29.2139 69.5,26.5 Z"/></g>
<g><path style="opacity:0.955" fill="#72da69" d="M 30.5,31.5 C 34.0991,32.3439 37.7657,32.6773 41.5,32.5C 40.9717,33.7206 40.305,34.8873 39.5,36C 40.9733,36.7096 41.6399,37.8762 41.5,39.5C 37.9852,37.3783 34.3185,37.045 30.5,38.5C 30.5,36.1667 30.5,33.8333 30.5,31.5 Z"/></g>
<g><path style="opacity:0.81" fill="#72da67" d="M 80.5,34.5 C 82.3582,36.8831 83.6916,39.5498 84.5,42.5C 83.2652,42.2786 82.2652,41.6119 81.5,40.5C 80.8182,41.2427 80.1515,41.9094 79.5,42.5C 78.7729,40.0462 77.7729,37.7128 76.5,35.5C 77.9587,35.5674 79.2921,35.2341 80.5,34.5 Z"/></g>
<g><path style="opacity:0.884" fill="#6dd86b" d="M 18.5,34.5 C 18.0075,36.8185 17.0075,38.8185 15.5,40.5C 14.0413,40.5674 12.7079,40.2341 11.5,39.5C 12.604,37.6115 13.9373,35.9448 15.5,34.5C 16.7978,33.8843 17.7978,33.8843 18.5,34.5 Z"/></g>
<g><path style="opacity:0.873" fill="#72da69" d="M 43.5,33.5 C 46.6085,33.2641 49.6085,33.5975 52.5,34.5C 52.5569,35.609 52.8902,36.609 53.5,37.5C 52.7784,37.9175 52.2784,38.5842 52,39.5C 49.6194,38.565 47.1194,38.2317 44.5,38.5C 44.5,39.5 44.5,40.5 44.5,41.5C 44.1667,41.5 43.8333,41.5 43.5,41.5C 43.1412,39.2341 43.8078,37.4007 45.5,36C 44.6195,35.2917 43.9528,34.4584 43.5,33.5 Z"/></g>
<g><path style="opacity:0.961" fill="#72da68" d="M 56.5,33.5 C 59.728,34.4137 63.0613,34.7471 66.5,34.5C 66.5,36.5 66.5,38.5 66.5,40.5C 63.4468,40.1129 60.2801,40.1129 57,40.5C 56.7679,39.2625 56.2679,38.2625 55.5,37.5C 55.9175,36.7784 56.5842,36.2784 57.5,36C 56.7476,35.3292 56.4142,34.4959 56.5,33.5 Z"/></g>
<g><path style="opacity:0.894" fill="#6dd76c" d="M 41.5,39.5 C 41.5,40.5 41.5,41.5 41.5,42.5C 37.7852,42.577 34.1185,42.2436 30.5,41.5C 30.5,40.5 30.5,39.5 30.5,38.5C 34.3185,37.045 37.9852,37.3783 41.5,39.5 Z"/></g>
<g><path style="opacity:0.969" fill="#6dd76c" d="M 53.5,37.5 C 53.5,39.5 53.5,41.5 53.5,43.5C 52.8826,43.6107 52.3826,43.944 52,44.5C 49.0597,44.1537 46.5597,43.1537 44.5,41.5C 44.5,40.5 44.5,39.5 44.5,38.5C 47.1194,38.2317 49.6194,38.565 52,39.5C 52.2784,38.5842 52.7784,37.9175 53.5,37.5 Z"/></g>
<g><path style="opacity:0.831" fill="#6dd76c" d="M 55.5,37.5 C 56.2679,38.2625 56.7679,39.2625 57,40.5C 60.2801,40.1129 63.4468,40.1129 66.5,40.5C 66.7845,42.4147 66.4511,44.0813 65.5,45.5C 62.7719,44.7948 59.9386,44.1281 57,43.5C 56.7679,44.7375 56.2679,45.7375 55.5,46.5C 55.5,43.5 55.5,40.5 55.5,37.5 Z"/></g>
<g><path style="opacity:0.939" fill="#6dd86a" d="M 77.5,45.5 C 74.6463,45.8821 71.6463,45.8821 68.5,45.5C 68.7771,42.5525 68.4438,39.7191 67.5,37C 71.4486,38.7557 74.782,41.589 77.5,45.5 Z"/></g>
<g><path style="opacity:0.732" fill="#69d66d" d="M 29.5,44.5 C 26.4469,44.3301 23.7803,43.9968 21.5,43.5C 23.4789,40.8544 25.8122,38.5211 28.5,36.5C 29.48,39.0865 29.8134,41.7531 29.5,44.5 Z"/></g>
<g><path style="opacity:0.829" fill="#68d56e" d="M 30.5,41.5 C 34.1185,42.2436 37.7852,42.577 41.5,42.5C 41.5,43.1667 41.5,43.8333 41.5,44.5C 40.7784,44.9175 40.2784,45.5842 40,46.5C 37.3347,44.3975 34.5014,44.0642 31.5,45.5C 30.5655,44.4324 30.2322,43.099 30.5,41.5 Z"/></g>
<g><path style="opacity:0.902" fill="#68d56e" d="M 43.5,41.5 C 43.8333,41.5 44.1667,41.5 44.5,41.5C 46.5597,43.1537 49.0597,44.1537 52,44.5C 52.3826,43.944 52.8826,43.6107 53.5,43.5C 53.5,44.8333 53.5,46.1667 53.5,47.5C 51.1529,47.8815 48.8195,47.2148 46.5,45.5C 45.7348,46.6119 44.7348,47.2786 43.5,47.5C 43.5,45.5 43.5,43.5 43.5,41.5 Z"/></g>
<g><path style="opacity:0.911" fill="#65d46f" d="M 11.5,39.5 C 12.7079,40.2341 14.0413,40.5674 15.5,40.5C 15.0074,42.8056 14.6741,45.139 14.5,47.5C 12.0747,45.8806 10.0747,46.2139 8.5,48.5C 9.21632,45.4018 10.2163,42.4018 11.5,39.5 Z"/></g>
<g><path style="opacity:0.857" fill="#65d36f" d="M 21.5,43.5 C 23.7803,43.9968 26.4469,44.3301 29.5,44.5C 28.8333,45.8333 28.1667,47.1667 27.5,48.5C 24.4215,47.6281 21.4215,47.6281 18.5,48.5C 18.2729,46.0672 19.2729,44.4006 21.5,43.5 Z"/></g>
<g><path style="opacity:0.989" fill="#68d56e" d="M 65.5,45.5 C 65.6716,46.4916 65.3382,47.1583 64.5,47.5C 61.6997,46.6954 58.6997,46.6954 55.5,47.5C 55.5,47.1667 55.5,46.8333 55.5,46.5C 56.2679,45.7375 56.7679,44.7375 57,43.5C 59.9386,44.1281 62.7719,44.7948 65.5,45.5 Z"/></g>
<g><path style="opacity:0.864" fill="#68d56d" d="M 68.5,45.5 C 71.6463,45.8821 74.6463,45.8821 77.5,45.5C 78.4614,47.2646 78.7947,49.2646 78.5,51.5C 77.71,50.3915 77.21,49.0581 77,47.5C 74.6194,48.435 72.1194,48.7683 69.5,48.5C 69.4431,47.391 69.1098,46.391 68.5,45.5 Z"/></g>
<g><path style="opacity:0.869" fill="#69d66d" d="M 84.5,42.5 C 86.1007,45.5502 87.1007,48.8835 87.5,52.5C 86.279,49.558 84.279,48.8913 81.5,50.5C 81.1417,47.7334 80.475,45.0667 79.5,42.5C 80.1515,41.9094 80.8182,41.2427 81.5,40.5C 82.2652,41.6119 83.2652,42.2786 84.5,42.5 Z"/></g>
<g><path style="opacity:1" fill="#64d370" d="M 41.5,44.5 C 41.5,46.1667 41.5,47.8333 41.5,49.5C 38.6509,49.6538 35.6509,49.3205 32.5,48.5C 31.8902,47.609 31.5569,46.609 31.5,45.5C 34.5014,44.0642 37.3347,44.3975 40,46.5C 40.2784,45.5842 40.7784,44.9175 41.5,44.5 Z"/></g>
<g><path style="opacity:0.953" fill="#65d370" d="M 64.5,47.5 C 65.5511,48.2223 66.2178,49.2223 66.5,50.5C 62.7307,50.244 59.0641,50.5773 55.5,51.5C 55.5,50.1667 55.5,48.8333 55.5,47.5C 58.6997,46.6954 61.6997,46.6954 64.5,47.5 Z"/></g>
<g><path style="opacity:0.871" fill="#60d173" d="M 27.5,48.5 C 29.256,49.5521 29.9227,51.2188 29.5,53.5C 26.8294,52.8336 24.3294,52.8336 22,53.5C 20.8873,52.695 19.7206,52.0283 18.5,51.5C 18.5,50.5 18.5,49.5 18.5,48.5C 21.4215,47.6281 24.4215,47.6281 27.5,48.5 Z"/></g>
<g><path style="opacity:1" fill="#65d370" d="M 53.5,47.5 C 53.5,48.5 53.5,49.5 53.5,50.5C 50.0945,50.0445 46.7611,49.3778 43.5,48.5C 43.5,48.1667 43.5,47.8333 43.5,47.5C 44.7348,47.2786 45.7348,46.6119 46.5,45.5C 48.8195,47.2148 51.1529,47.8815 53.5,47.5 Z"/></g>
<g><path style="opacity:0.878" fill="#60d172" d="M 32.5,48.5 C 35.6509,49.3205 38.6509,49.6538 41.5,49.5C 41.5,50.8333 41.5,52.1667 41.5,53.5C 37.8293,54.1725 34.1626,53.8391 30.5,52.5C 30.1568,50.5168 30.8235,49.1834 32.5,48.5 Z"/></g>
<g><path style="opacity:0.939" fill="#60d173" d="M 43.5,48.5 C 46.7611,49.3778 50.0945,50.0445 53.5,50.5C 53.5,51.5 53.5,52.5 53.5,53.5C 52.8444,54.2778 52.0111,54.9444 51,55.5C 48.4465,54.8917 45.9465,54.225 43.5,53.5C 43.5,51.8333 43.5,50.1667 43.5,48.5 Z"/></g>
<g><path style="opacity:1" fill="#65d370" d="M 78.5,51.5 C 78.5,51.8333 78.5,52.1667 78.5,52.5C 77.8826,52.6107 77.3826,52.944 77,53.5C 74.962,51.9278 72.6287,50.9278 70,50.5C 69.6174,51.056 69.1174,51.3893 68.5,51.5C 68.2627,50.209 68.596,49.209 69.5,48.5C 72.1194,48.7683 74.6194,48.435 77,47.5C 77.21,49.0581 77.71,50.3915 78.5,51.5 Z"/></g>
<g><path style="opacity:0.924" fill="#60d172" d="M 66.5,50.5 C 66.5,51.5 66.5,52.5 66.5,53.5C 65.596,54.209 65.2627,55.209 65.5,56.5C 62.5198,56.3797 59.6865,55.713 57,54.5C 56.6174,55.056 56.1174,55.3893 55.5,55.5C 55.5,54.1667 55.5,52.8333 55.5,51.5C 59.0641,50.5773 62.7307,50.244 66.5,50.5 Z"/></g>
<g><path style="opacity:0.961" fill="#60d173" d="M 78.5,52.5 C 78.5,53.5 78.5,54.5 78.5,55.5C 77.5178,56.1408 76.5178,56.8075 75.5,57.5C 73.3784,56.5729 71.0451,56.5729 68.5,57.5C 68.5,55.5 68.5,53.5 68.5,51.5C 69.1174,51.3893 69.6174,51.056 70,50.5C 72.6287,50.9278 74.962,51.9278 77,53.5C 77.3826,52.944 77.8826,52.6107 78.5,52.5 Z"/></g>
<g><path style="opacity:0.888" fill="#5cd073" d="M 14.5,47.5 C 13.7814,49.7638 13.448,52.0971 13.5,54.5C 11.9705,53.9332 10.4705,53.2666 9,52.5C 8.50649,54.1341 8.33982,55.8008 8.5,57.5C 8.5,58.1667 8.16667,58.5 7.5,58.5C 7.34243,55.0977 7.67577,51.7644 8.5,48.5C 10.0747,46.2139 12.0747,45.8806 14.5,47.5 Z"/></g>
<g><path style="opacity:0.823" fill="#5ace76" d="M 18.5,51.5 C 19.7206,52.0283 20.8873,52.695 22,53.5C 24.3294,52.8336 26.8294,52.8336 29.5,53.5C 29.5,55.1667 29.5,56.8333 29.5,58.5C 25.4695,58.5275 21.8029,58.1942 18.5,57.5C 18.5,55.5 18.5,53.5 18.5,51.5 Z"/></g>
<g><path style="opacity:0.814" fill="#5ace75" d="M 30.5,52.5 C 34.1626,53.8391 37.8293,54.1725 41.5,53.5C 41.5,54.8333 41.5,56.1667 41.5,57.5C 40.1213,58.6089 38.4547,59.2755 36.5,59.5C 34.2959,58.9486 32.2959,58.9486 30.5,59.5C 30.5,57.1667 30.5,54.8333 30.5,52.5 Z"/></g>
<g><path style="opacity:0.856" fill="#61d172" d="M 87.5,52.5 C 87.5,54.5 87.5,56.5 87.5,58.5C 85.9509,58.2642 84.4509,58.2642 83,58.5C 82.7216,57.5842 82.2216,56.9175 81.5,56.5C 81.5,54.5 81.5,52.5 81.5,50.5C 84.279,48.8913 86.279,49.558 87.5,52.5 Z"/></g>
<g><path style="opacity:0.923" fill="#59cd77" d="M 13.5,54.5 C 13.5569,55.609 13.8902,56.609 14.5,57.5C 12.5,57.5 10.5,57.5 8.5,57.5C 8.33982,55.8008 8.50649,54.1341 9,52.5C 10.4705,53.2666 11.9705,53.9332 13.5,54.5 Z"/></g>
<g><path style="opacity:1" fill="#5ace75" d="M 78.5,55.5 C 78.5,57.8333 78.5,60.1667 78.5,62.5C 74.9962,63.2323 71.6629,62.5657 68.5,60.5C 68.5,59.5 68.5,58.5 68.5,57.5C 71.0451,56.5729 73.3784,56.5729 75.5,57.5C 76.5178,56.8075 77.5178,56.1408 78.5,55.5 Z"/></g>
<g><path style="opacity:0.86" fill="#53ca79" d="M 8.5,57.5 C 10.5,57.5 12.5,57.5 14.5,57.5C 14.6741,59.861 15.0074,62.1944 15.5,64.5C 15.5654,64.9382 15.3988,65.2716 15,65.5C 14.6667,64.8333 14.3333,64.1667 14,63.5C 11.4264,64.9196 9.59303,64.253 8.5,61.5C 7.59603,60.791 7.26269,59.791 7.5,58.5C 8.16667,58.5 8.5,58.1667 8.5,57.5 Z"/></g>
<g><path style="opacity:0.849" fill="#54cb79" d="M 18.5,57.5 C 21.8029,58.1942 25.4695,58.5275 29.5,58.5C 29.5,59.8333 29.5,61.1667 29.5,62.5C 25.8414,62.9671 22.1747,63.3004 18.5,63.5C 18.5,61.5 18.5,59.5 18.5,57.5 Z"/></g>
<g><path style="opacity:0.846" fill="#54cb79" d="M 41.5,57.5 C 41.5,59.8333 41.5,62.1667 41.5,64.5C 37.9143,64.2822 34.2476,63.9489 30.5,63.5C 30.5,62.1667 30.5,60.8333 30.5,59.5C 32.2959,58.9486 34.2959,58.9486 36.5,59.5C 38.4547,59.2755 40.1213,58.6089 41.5,57.5 Z"/></g>
<g><path style="opacity:1" fill="#5ace76" d="M 43.5,53.5 C 45.9465,54.225 48.4465,54.8917 51,55.5C 52.0111,54.9444 52.8444,54.2778 53.5,53.5C 53.5,55.8333 53.5,58.1667 53.5,60.5C 50.1401,60.3841 46.8067,60.0508 43.5,59.5C 43.5,57.5 43.5,55.5 43.5,53.5 Z"/></g>
<g><path style="opacity:1" fill="#5ace76" d="M 66.5,53.5 C 66.5,55.8333 66.5,58.1667 66.5,60.5C 62.7818,61.281 59.1151,61.6143 55.5,61.5C 55.5,59.5 55.5,57.5 55.5,55.5C 56.1174,55.3893 56.6174,55.056 57,54.5C 59.6865,55.713 62.5198,56.3797 65.5,56.5C 65.2627,55.209 65.596,54.209 66.5,53.5 Z"/></g>
<g><path style="opacity:0.822" fill="#5ace74" d="M 81.5,56.5 C 82.2216,56.9175 82.7216,57.5842 83,58.5C 84.4509,58.2642 85.9509,58.2642 87.5,58.5C 87.7678,60.099 87.4345,61.4324 86.5,62.5C 84.4523,61.23 82.4523,60.8967 80.5,61.5C 80.366,59.7085 80.6993,58.0418 81.5,56.5 Z"/></g>
<g><path style="opacity:0.932" fill="#54cb79" d="M 43.5,59.5 C 46.8067,60.0508 50.1401,60.3841 53.5,60.5C 53.5,62.1667 53.5,63.8333 53.5,65.5C 49.8799,65.3235 46.5466,64.9902 43.5,64.5C 43.5,62.8333 43.5,61.1667 43.5,59.5 Z"/></g>
<g><path style="opacity:0.892" fill="#54cb79" d="M 66.5,60.5 C 66.5,61.5 66.5,62.5 66.5,63.5C 65.596,64.209 65.2627,65.209 65.5,66.5C 62.0037,66.7096 58.6704,66.3763 55.5,65.5C 55.5,64.1667 55.5,62.8333 55.5,61.5C 59.1151,61.6143 62.7818,61.281 66.5,60.5 Z"/></g>
<g><path style="opacity:0.961" fill="#53cb79" d="M 68.5,60.5 C 71.6629,62.5657 74.9962,63.2323 78.5,62.5C 78.3505,63.552 78.5172,64.552 79,65.5C 79.4101,64.0993 79.9101,62.766 80.5,61.5C 82.4523,60.8967 84.4523,61.23 86.5,62.5C 86.7678,64.099 86.4345,65.4324 85.5,66.5C 83.283,67.3686 80.9496,67.702 78.5,67.5C 78.1667,66.1667 77.8333,66.1667 77.5,67.5C 75.5,67.5 73.5,67.5 71.5,67.5C 70.5,68.1667 69.5,68.8333 68.5,69.5C 68.5,66.5 68.5,63.5 68.5,60.5 Z"/></g>
<g><path style="opacity:0.999" fill="#4dc77d" d="M 8.5,61.5 C 9.59303,64.253 11.4264,64.9196 14,63.5C 14.3333,64.1667 14.6667,64.8333 15,65.5C 15.3988,65.2716 15.5654,64.9382 15.5,64.5C 16.3446,65.6715 17.0113,67.0048 17.5,68.5C 14.5491,68.7128 11.8825,68.0461 9.5,66.5C 8.69929,64.9582 8.36596,63.2915 8.5,61.5 Z"/></g>
<g><path style="opacity:0.85" fill="#4fc97b" d="M 66.5,63.5 C 66.5,65.5 66.5,67.5 66.5,69.5C 63.6175,68.61 60.4508,68.61 57,69.5C 56.7216,68.5842 56.2216,67.9175 55.5,67.5C 55.5,66.8333 55.5,66.1667 55.5,65.5C 58.6704,66.3763 62.0037,66.7096 65.5,66.5C 65.2627,65.209 65.596,64.209 66.5,63.5 Z"/></g>
<g><path style="opacity:0.892" fill="#4ec87d" d="M 29.5,62.5 C 29.5,64.8333 29.5,67.1667 29.5,69.5C 26.1955,69.297 22.8621,69.297 19.5,69.5C 19.1667,69.5 18.8333,69.5 18.5,69.5C 18.5,67.5 18.5,65.5 18.5,63.5C 22.1747,63.3004 25.8414,62.9671 29.5,62.5 Z"/></g>
<g><path style="opacity:1" fill="#4ec87c" d="M 30.5,63.5 C 34.2476,63.9489 37.9143,64.2822 41.5,64.5C 41.5,66.1667 41.5,67.8333 41.5,69.5C 37.7549,70.6231 34.0883,70.2898 30.5,68.5C 30.5,66.8333 30.5,65.1667 30.5,63.5 Z"/></g>
<g><path style="opacity:0.893" fill="#47c580" d="M 9.5,66.5 C 11.8825,68.0461 14.5491,68.7128 17.5,68.5C 17.5,69.1667 17.8333,69.5 18.5,69.5C 18.3284,70.4916 18.6618,71.1583 19.5,71.5C 19.5,72.1667 19.8333,72.5 20.5,72.5C 20.5,72.8333 20.5,73.1667 20.5,73.5C 17.8313,74.181 15.1647,73.8477 12.5,72.5C 10.9925,70.8185 9.99249,68.8185 9.5,66.5 Z"/></g>
<g><path style="opacity:0.829" fill="#50c97b" d="M 85.5,66.5 C 85.5674,67.9587 85.2341,69.2921 84.5,70.5C 83.063,69.2779 81.563,69.2779 80,70.5C 78.9889,69.9444 78.1556,69.2778 77.5,68.5C 76.1667,68.8333 76.1667,69.1667 77.5,69.5C 77.5,70.1667 77.1667,70.5 76.5,70.5C 76.1667,70.5 75.8333,70.5 75.5,70.5C 75.2252,68.1582 74.3919,68.1582 73,70.5C 71.9614,69.7562 71.4614,68.7562 71.5,67.5C 73.5,67.5 75.5,67.5 77.5,67.5C 77.8333,67.5 78.1667,67.5 78.5,67.5C 80.9496,67.702 83.283,67.3686 85.5,66.5 Z"/></g>
<g><path style="opacity:0.961" fill="#4dc77d" d="M 71.5,67.5 C 71.4614,68.7562 71.9614,69.7562 73,70.5C 74.3919,68.1582 75.2252,68.1582 75.5,70.5C 75.5,70.8333 75.5,71.1667 75.5,71.5C 74.1667,71.8333 74.1667,72.1667 75.5,72.5C 75.5,73.1667 75.1667,73.5 74.5,73.5C 74.1667,73.5 73.8333,73.5 73.5,73.5C 71.8828,72.962 70.2161,72.6287 68.5,72.5C 68.5,71.5 68.5,70.5 68.5,69.5C 69.5,68.8333 70.5,68.1667 71.5,67.5 Z"/></g>
<g><path style="opacity:0.855" fill="#46c480" d="M 29.5,69.5 C 29.5,72.1667 29.5,74.8333 29.5,77.5C 27.965,76.6457 26.6316,76.6457 25.5,77.5C 25.1667,77.5 24.8333,77.5 24.5,77.5C 24.5,76.8333 24.1667,76.5 23.5,76.5C 23.5,75.8333 23.1667,75.5 22.5,75.5C 22.5,74.8333 22.1667,74.5 21.5,74.5C 20.8333,74.5 20.5,74.1667 20.5,73.5C 21.8333,73.1667 21.8333,72.8333 20.5,72.5C 19.8333,72.5 19.5,72.1667 19.5,71.5C 19.5,70.8333 19.5,70.1667 19.5,69.5C 22.8621,69.297 26.1955,69.297 29.5,69.5 Z"/></g>
<g><path style="opacity:0.862" fill="#47c580" d="M 30.5,68.5 C 34.0883,70.2898 37.7549,70.6231 41.5,69.5C 41.5,71.8333 41.5,74.1667 41.5,76.5C 38.956,76.9517 36.456,76.285 34,74.5C 33.586,74.9574 33.086,75.2907 32.5,75.5C 31.8182,74.7573 31.1515,74.0906 30.5,73.5C 30.5,71.8333 30.5,70.1667 30.5,68.5 Z"/></g>
<g><path style="opacity:0.984" fill="#4dc77d" d="M 43.5,64.5 C 46.5466,64.9902 49.8799,65.3235 53.5,65.5C 53.5,67.5 53.5,69.5 53.5,71.5C 50.0973,70.9712 46.7639,70.9712 43.5,71.5C 43.5,69.1667 43.5,66.8333 43.5,64.5 Z"/></g>
<g><path style="opacity:1" fill="#4bc77d" d="M 55.5,67.5 C 56.2216,67.9175 56.7216,68.5842 57,69.5C 60.4508,68.61 63.6175,68.61 66.5,69.5C 66.5,71.1667 66.5,72.8333 66.5,74.5C 63.3132,73.2432 60.1465,71.9099 57,70.5C 56.6174,71.056 56.1174,71.3893 55.5,71.5C 55.5,70.1667 55.5,68.8333 55.5,67.5 Z"/></g>
<g><path style="opacity:0.946" fill="#47c480" d="M 53.5,71.5 C 53.5,72.8333 53.5,74.1667 53.5,75.5C 50.5,76.1667 47.5,76.8333 44.5,77.5C 44.1667,77.5 43.8333,77.5 43.5,77.5C 43.5,75.5 43.5,73.5 43.5,71.5C 46.7639,70.9712 50.0973,70.9712 53.5,71.5 Z"/></g>
<g><path style="opacity:0.897" fill="#47c480" d="M 66.5,74.5 C 66.5,74.8333 66.5,75.1667 66.5,75.5C 63.6646,78.8301 60.4979,79.1635 57,76.5C 56.6174,77.056 56.1174,77.3893 55.5,77.5C 55.5,75.5 55.5,73.5 55.5,71.5C 56.1174,71.3893 56.6174,71.056 57,70.5C 60.1465,71.9099 63.3132,73.2432 66.5,74.5 Z"/></g>
<g><path style="opacity:0.998" fill="#4cc67d" d="M 77.5,68.5 C 78.1556,69.2778 78.9889,69.9444 80,70.5C 81.563,69.2779 83.063,69.2779 84.5,70.5C 83.9744,72.2303 82.9744,73.5637 81.5,74.5C 79.1417,74.7475 77.1417,74.0808 75.5,72.5C 75.5,72.1667 75.5,71.8333 75.5,71.5C 76.1667,71.5 76.5,71.1667 76.5,70.5C 77.1667,70.5 77.5,70.1667 77.5,69.5C 77.5,69.1667 77.5,68.8333 77.5,68.5 Z"/></g>
<g><path style="opacity:0.939" fill="#41c283" d="M 12.5,72.5 C 15.1647,73.8477 17.8313,74.181 20.5,73.5C 20.5,74.1667 20.8333,74.5 21.5,74.5C 22.1667,74.5 22.5,74.8333 22.5,75.5C 23.1667,75.5 23.5,75.8333 23.5,76.5C 24.1667,76.5 24.5,76.8333 24.5,77.5C 24.8333,78.8333 25.1667,78.8333 25.5,77.5C 26.6316,76.6457 27.965,76.6457 29.5,77.5C 29.5,78.8333 28.8333,79.5 27.5,79.5C 27.1667,78.1667 26.8333,78.1667 26.5,79.5C 23.2639,79.9502 19.9306,79.6169 16.5,78.5C 14.1782,77.1979 12.8449,75.1979 12.5,72.5 Z"/></g>
<g><path style="opacity:0.81" fill="#48c580" d="M 68.5,72.5 C 70.2161,72.6287 71.8828,72.962 73.5,73.5C 73.5,73.8333 73.5,74.1667 73.5,74.5C 72.8333,74.5 72.5,74.8333 72.5,75.5C 71.8333,75.5 71.5,75.8333 71.5,76.5C 70.8333,76.5 70.5,76.8333 70.5,77.5C 70.1667,77.5 69.8333,77.5 69.5,77.5C 69.1667,77.5 68.8333,77.5 68.5,77.5C 68.5,75.8333 68.5,74.1667 68.5,72.5 Z"/></g>
<g><path style="opacity:0.914" fill="#47c480" d="M 75.5,72.5 C 77.1417,74.0808 79.1417,74.7475 81.5,74.5C 80.8897,76.4341 79.8897,78.1007 78.5,79.5C 75.6311,78.609 72.9644,78.2757 70.5,78.5C 70.5,78.1667 70.5,77.8333 70.5,77.5C 71.1667,77.5 71.5,77.1667 71.5,76.5C 72.1667,76.5 72.5,76.1667 72.5,75.5C 73.1667,75.5 73.5,75.1667 73.5,74.5C 74.1667,74.5 74.5,74.1667 74.5,73.5C 75.1667,73.5 75.5,73.1667 75.5,72.5 Z"/></g>
<g><path style="opacity:0.87" fill="#41c283" d="M 30.5,73.5 C 31.1515,74.0906 31.8182,74.7573 32.5,75.5C 33.086,75.2907 33.586,74.9574 34,74.5C 36.456,76.285 38.956,76.9517 41.5,76.5C 41.5,77.5 41.5,78.5 41.5,79.5C 40.8444,80.2778 40.0111,80.9444 39,81.5C 36.1652,80.7669 33.3319,80.1003 30.5,79.5C 30.5,77.5 30.5,75.5 30.5,73.5 Z"/></g>
<g><path style="opacity:0.999" fill="#41c283" d="M 53.5,75.5 C 53.5,77.8333 53.5,80.1667 53.5,82.5C 50.6085,81.5975 47.6085,81.2641 44.5,81.5C 44.5,80.1667 44.5,78.8333 44.5,77.5C 47.5,76.8333 50.5,76.1667 53.5,75.5 Z"/></g>
<g><path style="opacity:0.833" fill="#3bbf86" d="M 16.5,78.5 C 19.9306,79.6169 23.2639,79.9502 26.5,79.5C 26.8333,79.5 27.1667,79.5 27.5,79.5C 28.7399,81.9845 29.7399,81.9845 30.5,79.5C 33.3319,80.1003 36.1652,80.7669 39,81.5C 40.0111,80.9444 40.8444,80.2778 41.5,79.5C 41.5,81.5 41.5,83.5 41.5,85.5C 40.8333,85.5 40.1667,85.5 39.5,85.5C 39.1583,84.6618 38.4916,84.3284 37.5,84.5C 37.1667,84.5 36.8333,84.5 36.5,84.5C 35.8333,83.1667 35.1667,83.1667 34.5,84.5C 30.6478,85.6437 26.6478,85.6437 22.5,84.5C 19.5622,83.378 17.5622,81.378 16.5,78.5 Z"/></g>
<g><path style="opacity:0.867" fill="#3cbf86" d="M 43.5,77.5 C 43.8333,77.5 44.1667,77.5 44.5,77.5C 44.5,78.8333 44.5,80.1667 44.5,81.5C 47.6085,81.2641 50.6085,81.5975 53.5,82.5C 53.5,83.5 53.5,84.5 53.5,85.5C 51.4524,85.1596 50.4524,85.4929 50.5,86.5C 50.44,87.0431 50.1067,87.3764 49.5,87.5C 48.1401,86.8201 46.8068,86.1534 45.5,85.5C 43.631,83.3647 42.9644,80.6981 43.5,77.5 Z"/></g>
<g><path style="opacity:0.847" fill="#3bbe86" d="M 55.5,81.5 C 56.8333,82.1667 58.1667,82.8333 59.5,83.5C 59.5,84.1667 59.8333,84.5 60.5,84.5C 61.1667,84.5 61.5,84.1667 61.5,83.5C 62.1667,83.5 62.5,83.1667 62.5,82.5C 62.5,81.8333 62.8333,81.5 63.5,81.5C 63.5,82.1667 63.8333,82.5 64.5,82.5C 66.5207,82.4624 68.6873,83.129 71,84.5C 71.6708,83.7476 72.5041,83.4142 73.5,83.5C 71.7036,85.9 69.3702,87.5667 66.5,88.5C 61.8163,88.5545 57.1497,87.8878 52.5,86.5C 53.1667,86.5 53.5,86.1667 53.5,85.5C 55.1992,85.6602 56.8659,85.4935 58.5,85C 57.552,84.5172 56.552,84.3505 55.5,84.5C 55.5,83.5 55.5,82.5 55.5,81.5 Z"/></g>
<g><path style="opacity:0.978" fill="#41c183" d="M 66.5,75.5 C 66.3398,77.1992 66.5065,78.8659 67,80.5C 68.1563,79.4982 68.6563,78.4982 68.5,77.5C 68.8333,77.5 69.1667,77.5 69.5,77.5C 69.5,78.1667 69.8333,78.5 70.5,78.5C 72.9644,78.2757 75.6311,78.609 78.5,79.5C 77.4154,81.5869 75.7488,82.9202 73.5,83.5C 72.5041,83.4142 71.6708,83.7476 71,84.5C 68.6873,83.129 66.5207,82.4624 64.5,82.5C 63.8333,82.5 63.5,82.1667 63.5,81.5C 62.8333,81.5 62.5,81.8333 62.5,82.5C 61.8333,82.5 61.5,82.8333 61.5,83.5C 61.5,84.1667 61.1667,84.5 60.5,84.5C 59.8333,84.5 59.5,84.1667 59.5,83.5C 58.1667,82.8333 56.8333,82.1667 55.5,81.5C 55.5,80.1667 55.5,78.8333 55.5,77.5C 56.1174,77.3893 56.6174,77.056 57,76.5C 60.4979,79.1635 63.6646,78.8301 66.5,75.5 Z"/></g>
<g><path style="opacity:0.974" fill="#35bc89" d="M 22.5,84.5 C 26.6478,85.6437 30.6478,85.6437 34.5,84.5C 35.1667,84.5 35.8333,84.5 36.5,84.5C 36.8333,84.5 37.1667,84.5 37.5,84.5C 37.8417,85.3382 38.5084,85.6716 39.5,85.5C 40.1667,85.5 40.8333,85.5 41.5,85.5C 42.9613,86.6857 44.2946,86.6857 45.5,85.5C 46.8068,86.1534 48.1401,86.8201 49.5,87.5C 50.1067,87.3764 50.44,87.0431 50.5,86.5C 51.1667,86.5 51.8333,86.5 52.5,86.5C 57.1497,87.8878 61.8163,88.5545 66.5,88.5C 62.6222,91.0129 58.2888,92.3462 53.5,92.5C 48.0383,90.8015 42.3716,89.4682 36.5,88.5C 36.9125,89.7824 36.2458,90.7824 34.5,91.5C 29.8397,90.1743 25.8397,87.8409 22.5,84.5 Z"/></g>
<g><path style="opacity:0.826" fill="#32ba8b" d="M 53.5,92.5 C 47.2286,93.7875 40.8952,93.4542 34.5,91.5C 36.2458,90.7824 36.9125,89.7824 36.5,88.5C 42.3716,89.4682 48.0383,90.8015 53.5,92.5 Z"/></g>
</svg>
