<?xml version="1.0" encoding="UTF-8"?>
<!DOCTYPE svg PUBLIC "-//W3C//DTD SVG 1.1//EN" "http://www.w3.org/Graphics/SVG/1.1/DTD/svg11.dtd">
<svg xmlns="http://www.w3.org/2000/svg" version="1.1" width="96px" height="96px" style="shape-rendering:geometricPrecision; text-rendering:geometricPrecision; image-rendering:optimizeQuality; fill-rule:evenodd; clip-rule:evenodd" xmlns:xlink="http://www.w3.org/1999/xlink">
<g><path style="opacity:0.997" fill="#fdfefe" d="M -0.5,-0.5 C 31.5,-0.5 63.5,-0.5 95.5,-0.5C 95.5,31.5 95.5,63.5 95.5,95.5C 63.5,95.5 31.5,95.5 -0.5,95.5C -0.5,63.5 -0.5,31.5 -0.5,-0.5 Z"/></g>
<g><path style="opacity:1" fill="#47b069" d="M 27.5,21.5 C 46.7948,19.8066 57.7948,28.4733 60.5,47.5C 60.5856,53.0162 58.919,57.8495 55.5,62C 52.1432,63.1412 50.1432,61.9746 49.5,58.5C 55.5799,45.2399 51.9132,35.7399 38.5,30C 20.9557,29.8784 14.1223,38.3784 18,55.5C 20.552,59.7189 24.052,62.8855 28.5,65C 44.8333,65.6667 61.1667,65.6667 77.5,65C 79.7523,60.3619 78.4189,57.6952 73.5,57C 69.5,54.3333 69.5,51.6667 73.5,49C 78.1834,48.6011 79.6834,46.1011 78,41.5C 77.1074,40.9186 76.1074,40.5852 75,40.5C 72.7187,42.0281 70.2187,42.5281 67.5,42C 64.8333,39.3333 64.8333,36.6667 67.5,34C 75.9678,30.1559 82.4678,32.3226 87,40.5C 88.0748,45.0906 87.2415,49.2572 84.5,53C 89.9069,63.1158 87.2402,70.1158 76.5,74C 60.8333,74.6667 45.1667,74.6667 29.5,74C 12.5996,68.4417 5.76631,56.9417 9,39.5C 12.4414,30.5567 18.6081,24.5567 27.5,21.5 Z"/></g>
</svg>
