<?xml version="1.0" encoding="UTF-8"?>
<!DOCTYPE svg PUBLIC "-//W3C//DTD SVG 1.1//EN" "http://www.w3.org/Graphics/SVG/1.1/DTD/svg11.dtd">
<svg xmlns="http://www.w3.org/2000/svg" version="1.1" width="96px" height="96px" style="shape-rendering:geometricPrecision; text-rendering:geometricPrecision; image-rendering:optimizeQuality; fill-rule:evenodd; clip-rule:evenodd" xmlns:xlink="http://www.w3.org/1999/xlink">
<g><path style="opacity:1" fill="#201d1e" d="M 37.5,-0.5 C 44.1667,-0.5 50.8333,-0.5 57.5,-0.5C 77.1667,5.16667 89.8333,17.8333 95.5,37.5C 95.5,44.1667 95.5,50.8333 95.5,57.5C 89.8333,77.1667 77.1667,89.8333 57.5,95.5C 50.8333,95.5 44.1667,95.5 37.5,95.5C 17.8333,89.8333 5.16667,77.1667 -0.5,57.5C -0.5,50.8333 -0.5,44.1667 -0.5,37.5C 5.16667,17.8333 17.8333,5.16667 37.5,-0.5 Z"/></g>
<g><path style="opacity:1" fill="#ecebeb" d="M 36.5,1.5 C 55.507,-1.40147 71.3403,4.2652 84,18.5C 92.7355,29.3852 95.7355,41.7185 93,55.5C 89.3382,73.4998 78.8382,85.6664 61.5,92C 33.5692,97.7861 14.0692,87.6194 3,61.5C -2.60714,31.979 8.55953,11.979 36.5,1.5 Z"/></g>
<g><path style="opacity:1" fill="#211b1d" d="M 37.5,5.5 C 63.3143,2.51496 80.481,13.1816 89,37.5C 92.2508,64.1876 81.0841,81.3542 55.5,89C 29.6258,91.6485 13.1258,80.4818 6,55.5C 3.59204,30.6405 14.092,13.9739 37.5,5.5 Z"/></g>
<g><path style="opacity:1" fill="#019e54" d="M 10.5,36.5 C 10.5,36.1667 10.5,35.8333 10.5,35.5C 18.3724,14.8873 33.3724,6.05399 55.5,9C 69.7052,12.3737 79.3719,20.8737 84.5,34.5C 84.3333,35.1667 84.1667,35.8333 84,36.5C 82.9326,35.8095 81.7659,35.3095 80.5,35C 78.6055,33.2246 76.9389,31.2246 75.5,29C 74.5,28.3333 73.5,28.3333 72.5,29C 64.5716,37.2655 56.4049,45.0989 48,52.5C 39.5421,45.0436 31.3754,37.2103 23.5,29C 22.5,28.3333 21.5,28.3333 20.5,29C 18.4155,33.2614 15.0822,35.7614 10.5,36.5 Z"/></g>
<g><path style="opacity:1" fill="#f5f5f5" d="M 36.5,56.5 C 37.552,56.6495 38.552,56.4828 39.5,56C 37.9458,54.108 36.1124,52.608 34,51.5C 30.6879,52.6865 27.5212,54.0198 24.5,55.5C 23.4178,50.8944 25.0845,47.8944 29.5,46.5C 27.3836,42.1742 24.0503,40.3409 19.5,41C 16.89,42.4814 14.2234,43.6481 11.5,44.5C 10.5797,39.9385 12.2463,37.1052 16.5,36C 18.4521,33.9261 20.2854,31.7594 22,29.5C 30,37.5 38,45.5 46,53.5C 46.5056,56.6739 45.6722,59.5073 43.5,62C 39.4939,62.1116 35.8272,63.2783 32.5,65.5C 31.359,63.5787 31.1923,61.5787 32,59.5C 33.6516,58.6006 35.1516,57.6006 36.5,56.5 Z"/></g>
<g><path style="opacity:1" fill="#f5f4f4" d="M 72.5,30.5 C 73.552,30.3505 74.552,30.5172 75.5,31C 76.7601,35.223 79.5934,37.723 84,38.5C 84.4955,40.4727 84.6621,42.4727 84.5,44.5C 80.645,43.3271 76.8117,41.9938 73,40.5C 70.3668,42.2962 67.8668,44.2962 65.5,46.5C 70.0293,47.9931 71.3626,50.9931 69.5,55.5C 64.564,51.0284 60.2307,51.195 56.5,56C 59.1024,56.9771 61.6024,58.1437 64,59.5C 64.4955,61.4727 64.6621,63.4727 64.5,65.5C 60.3811,63.5678 56.0478,62.0678 51.5,61C 50.3081,59.0876 49.3081,57.0876 48.5,55C 56.7024,46.965 64.7024,38.7983 72.5,30.5 Z"/></g>
<g><path style="opacity:1" fill="#096036" d="M 10.5,35.5 C 10.5,35.8333 10.5,36.1667 10.5,36.5C 10.5,39.5 10.5,42.5 10.5,45.5C 9.83333,43.8333 9.16667,42.1667 8.5,40.5C 8.40206,38.4471 9.06873,36.7804 10.5,35.5 Z"/></g>
<g><path style="opacity:1" fill="#019e54" d="M 8.5,40.5 C 9.16667,42.1667 9.83333,43.8333 10.5,45.5C 13.5575,46.7374 16.2242,45.904 18.5,43C 20.1647,42.2115 21.8314,41.8782 23.5,42C 24.8333,43.3333 26.1667,44.6667 27.5,46C 26.5,46.5 25.5,47 24.5,47.5C 23.5159,50.4281 23.1826,53.4281 23.5,56.5C 27.1429,56.5219 30.4762,55.5219 33.5,53.5C 35.516,53.5159 36.516,54.5159 36.5,56.5C 34.0637,56.317 31.897,56.9837 30,58.5C 29.2228,61.4294 29.3895,64.2628 30.5,67C 33.0031,67.8736 35.0031,67.207 36.5,65C 39.5,64.1667 42.5,63.3333 45.5,62.5C 47.1225,55.8825 48.7891,55.8825 50.5,62.5C 54.9097,63.6399 59.0763,65.3066 63,67.5C 63.772,67.3552 64.4387,67.0219 65,66.5C 67.021,60.7348 65.1876,57.0681 59.5,55.5C 59.8869,54.2801 60.7202,53.6135 62,53.5C 64.0364,53.9536 65.8697,54.7869 67.5,56C 68.8333,56.6667 70.1667,56.6667 71.5,56C 73.5099,51.6588 72.5099,48.3255 68.5,46C 72.4194,41.4406 76.4194,41.4406 80.5,46C 84.37,47.1371 86.2033,45.6371 86,41.5C 87.2159,69.1177 74.0492,84.1177 46.5,86.5C 19.7214,82.9873 7.05476,67.6539 8.5,40.5 Z"/></g>
</svg>
