<?xml version="1.0" encoding="UTF-8"?>
<!DOCTYPE svg PUBLIC "-//W3C//DTD SVG 1.1//EN" "http://www.w3.org/Graphics/SVG/1.1/DTD/svg11.dtd">
<svg xmlns="http://www.w3.org/2000/svg" version="1.1" width="96px" height="96px" style="shape-rendering:geometricPrecision; text-rendering:geometricPrecision; image-rendering:optimizeQuality; fill-rule:evenodd; clip-rule:evenodd" xmlns:xlink="http://www.w3.org/1999/xlink">
<g><path style="opacity:0.699" fill="#15133e" d="M 39.5,7.5 C 65.2396,5.4326 81.4062,16.7659 88,41.5C 89.1744,69.829 75.6744,85.829 47.5,89.5C 25.4884,87.6536 11.9884,75.9869 7,54.5C 5.54038,30.1545 16.3737,14.4878 39.5,7.5 Z"/></g>
<g><path style="opacity:0.992" fill="#e05960" d="M 39.5,11.5 C 68.8233,10.3265 83.6567,24.3265 84,53.5C 77.744,76.7307 62.5773,86.8974 38.5,84C 18.445,76.9344 9.27838,62.7677 11,41.5C 14.9086,26.0935 24.4086,16.0935 39.5,11.5 Z"/></g>
<g><path style="opacity:1" fill="#f05960" d="M 54.5,27.5 C 54.44,26.9569 54.1067,26.6236 53.5,26.5C 52.5008,39.8167 52.1675,53.15 52.5,66.5C 49.1667,66.5 45.8333,66.5 42.5,66.5C 42.8325,53.15 42.4992,39.8167 41.5,26.5C 40.8933,26.6236 40.56,26.9569 40.5,27.5C 35.7202,28.9378 31.7202,31.6045 28.5,35.5C 25.9401,33.7267 23.6068,31.7267 21.5,29.5C 23.8558,26.8136 26.1891,24.147 28.5,21.5C 41.202,14.6683 53.8687,14.8349 66.5,22C 69.2193,24.3822 71.5526,27.0488 73.5,30C 71.5612,32.3066 69.2279,34.14 66.5,35.5C 63.2798,31.6045 59.2798,28.9378 54.5,27.5 Z"/></g>
<g><path style="opacity:0.937" fill="#a43f53" d="M 40.5,27.5 C 40.56,26.9569 40.8933,26.6236 41.5,26.5C 42.4992,39.8167 42.8325,53.15 42.5,66.5C 42.1667,66.5 41.8333,66.5 41.5,66.5C 41.8288,53.3226 41.4955,40.3226 40.5,27.5 Z"/></g>
<g><path style="opacity:0.961" fill="#913a50" d="M 54.5,27.5 C 53.8333,40.5 53.1667,53.5 52.5,66.5C 52.1675,53.15 52.5008,39.8167 53.5,26.5C 54.1067,26.6236 54.44,26.9569 54.5,27.5 Z"/></g>
<g><path style="opacity:1" fill="#16133e" d="M 26.5,20.5 C 27.4916,20.3284 28.1583,20.6618 28.5,21.5C 26.1891,24.147 23.8558,26.8136 21.5,29.5C 23.6068,31.7267 25.9401,33.7267 28.5,35.5C 31.7202,31.6045 35.7202,28.9378 40.5,27.5C 41.4955,40.3226 41.8288,53.3226 41.5,66.5C 41.2648,67.0967 40.7648,67.4301 40,67.5C 37.1025,66.4369 34.6025,64.7702 32.5,62.5C 31.8933,62.6236 31.56,62.9569 31.5,63.5C 25.2028,56.067 23.8695,47.7337 27.5,38.5C 25.2412,36.4552 22.7412,34.7885 20,33.5C 17.9069,35.3475 16.5736,37.6808 16,40.5C 14.0895,66.7539 26.2562,80.0873 52.5,80.5C 52.5,81.1667 52.5,81.8333 52.5,82.5C 33.9211,83.7602 21.0877,75.7602 14,58.5C 9.9081,43.0372 14.0748,30.3706 26.5,20.5 Z"/></g>
<g><path style="opacity:1" fill="#19143e" d="M 52.5,82.5 C 52.5,81.8333 52.5,81.1667 52.5,80.5C 61.0956,78.5325 68.0956,74.0325 73.5,67C 70.9708,64.9715 68.3041,63.1381 65.5,61.5C 54.6747,72.6078 43.3413,73.2745 31.5,63.5C 31.56,62.9569 31.8933,62.6236 32.5,62.5C 34.6025,64.7702 37.1025,66.4369 40,67.5C 40.7648,67.4301 41.2648,67.0967 41.5,66.5C 41.8333,66.5 42.1667,66.5 42.5,66.5C 45.8333,66.5 49.1667,66.5 52.5,66.5C 53.1667,53.5 53.8333,40.5 54.5,27.5C 59.2798,28.9378 63.2798,31.6045 66.5,35.5C 69.2279,34.14 71.5612,32.3066 73.5,30C 71.5526,27.0488 69.2193,24.3822 66.5,22C 53.8687,14.8349 41.202,14.6683 28.5,21.5C 28.1583,20.6618 27.4916,20.3284 26.5,20.5C 40.2272,11.3974 54.2272,11.2307 68.5,20C 83.3731,33.3212 86.2064,48.8212 77,66.5C 71.0699,75.2644 62.9032,80.5977 52.5,82.5 Z"/></g>
<g><path style="opacity:1" fill="#ee585f" d="M 31.5,63.5 C 43.3413,73.2745 54.6747,72.6078 65.5,61.5C 68.3041,63.1381 70.9708,64.9715 73.5,67C 68.0956,74.0325 61.0956,78.5325 52.5,80.5C 26.2562,80.0873 14.0895,66.7539 16,40.5C 16.5736,37.6808 17.9069,35.3475 20,33.5C 22.7412,34.7885 25.2412,36.4552 27.5,38.5C 23.8695,47.7337 25.2028,56.067 31.5,63.5 Z"/></g>
<g><path style="opacity:1" fill="#e3565e" d="M 70.5,40.5 C 71.4584,40.9528 72.2917,41.6195 73,42.5C 73.3333,44.5 73.6667,46.5 74,48.5C 75.3234,45.9414 77.1567,45.2747 79.5,46.5C 78.3523,48.1487 77.019,49.6487 75.5,51C 79.3955,52.6936 79.0622,53.8602 74.5,54.5C 75.5063,55.3957 75.5063,56.0623 74.5,56.5C 72.8778,54.5614 71.0445,54.228 69,55.5C 67.7955,54.1414 66.2955,53.1414 64.5,52.5C 65.0253,51.8076 65.6919,51.3076 66.5,51C 62.3333,45.1667 63.1667,44.3333 69,48.5C 69.2724,45.7462 69.7724,43.0795 70.5,40.5 Z"/></g>
</svg>
