<?xml version="1.0" encoding="UTF-8"?>
<!DOCTYPE svg PUBLIC "-//W3C//DTD SVG 1.1//EN" "http://www.w3.org/Graphics/SVG/1.1/DTD/svg11.dtd">
<svg xmlns="http://www.w3.org/2000/svg" version="1.1" width="96px" height="96px" style="shape-rendering:geometricPrecision; text-rendering:geometricPrecision; image-rendering:optimizeQuality; fill-rule:evenodd; clip-rule:evenodd" xmlns:xlink="http://www.w3.org/1999/xlink">
<g><path style="opacity:1" fill="#5b4c3f" d="M 63.5,17.5 C 66.5317,18.9991 68.0317,21.3324 68,24.5C 65.2219,25.3253 62.3886,25.992 59.5,26.5C 58.1064,24.2918 56.1064,22.7918 53.5,22C 55.7571,18.1226 59.0904,16.6226 63.5,17.5 Z"/></g>
<g><path style="opacity:0.004" fill="#17181b" d="M 23.5,23.5 C 24.8333,24.1667 24.8333,24.1667 23.5,23.5 Z"/></g>
<g><path style="opacity:1" fill="#de0e14" d="M 54.5,29.5 C 54.5,29.8333 54.5,30.1667 54.5,30.5C 56.1305,37.7111 58.1305,44.7111 60.5,51.5C 60.5,52.5 60.5,53.5 60.5,54.5C 59.5655,55.5676 59.2322,56.901 59.5,58.5C 58.448,58.6495 57.448,58.4828 56.5,58C 56.1164,57.0494 55.7831,56.2161 55.5,55.5C 55.9926,53.1944 56.3259,50.861 56.5,48.5C 54.7085,48.366 53.0418,48.6993 51.5,49.5C 50.1667,48.8333 50.1667,48.1667 51.5,47.5C 55.5225,45.6314 55.1892,44.6314 50.5,44.5C 54.3971,43.1839 54.0637,42.1839 49.5,41.5C 51.5461,39.1337 51.8794,36.467 50.5,33.5C 49.2011,34.09 48.3678,35.09 48,36.5C 47.0471,34.6269 45.8804,34.2935 44.5,35.5C 43.209,35.2627 42.209,35.596 41.5,36.5C 40.5041,36.4142 39.6708,36.7476 39,37.5C 38.5646,43.8203 37.7313,43.987 36.5,38C 34.8602,37.6522 33.5268,38.1522 32.5,39.5C 30.6891,39.428 29.3557,38.5947 28.5,37C 27.7259,34.8458 27.0592,32.6792 26.5,30.5C 34.8229,28.8368 42.8229,26.1702 50.5,22.5C 52.21,24.6432 53.5433,26.9765 54.5,29.5 Z"/></g>
<g><path style="opacity:0.996" fill="#98958e" d="M 58.5,26.5 C 58.5,26.8333 58.5,27.1667 58.5,27.5C 57.2502,27.5774 56.4169,28.244 56,29.5C 55.6174,28.944 55.1174,28.6107 54.5,28.5C 53.1927,24.0233 54.526,23.3566 58.5,26.5 Z"/></g>
<g><path style="opacity:1" fill="#1e1f1d" d="M 57.5,16.5 C 59.7354,16.2053 61.7354,16.5386 63.5,17.5C 59.0904,16.6226 55.7571,18.1226 53.5,22C 56.1064,22.7918 58.1064,24.2918 59.5,26.5C 59.1667,26.5 58.8333,26.5 58.5,26.5C 54.526,23.3566 53.1927,24.0233 54.5,28.5C 54.5,28.8333 54.5,29.1667 54.5,29.5C 53.5433,26.9765 52.21,24.6432 50.5,22.5C 42.8229,26.1702 34.8229,28.8368 26.5,30.5C 23.0861,30.7358 19.7527,31.4025 16.5,32.5C 17.3094,34.0709 17.6427,35.7376 17.5,37.5C 17.6716,38.4916 17.3382,39.1583 16.5,39.5C 15.8379,36.8516 15.1712,34.1849 14.5,31.5C 14.8333,30.8333 15.1667,30.1667 15.5,29.5C 26.7242,23.9256 38.5576,20.259 51,18.5C 51.9454,18.9054 52.6121,19.572 53,20.5C 54.3712,18.9586 55.8712,17.6253 57.5,16.5 Z"/></g>
<g><path style="opacity:1" fill="#868686" d="M 43.5,21.5 C 44.8734,21.3433 46.2068,21.51 47.5,22C 39.3995,26.5247 30.7329,28.858 21.5,29C 28.6548,25.6816 35.9881,23.1816 43.5,21.5 Z"/></g>
<g><path style="opacity:1" fill="#584a3e" d="M 58.5,27.5 C 57.537,28.3635 57.537,29.0302 58.5,29.5C 64.0902,25.917 68.0902,27.0837 70.5,33C 70.1667,33.5 69.8333,34 69.5,34.5C 65.2824,32.933 61.2824,33.2663 57.5,35.5C 56.9986,33.3449 55.9986,31.6782 54.5,30.5C 54.5,30.1667 54.5,29.8333 54.5,29.5C 54.5,29.1667 54.5,28.8333 54.5,28.5C 55.1174,28.6107 55.6174,28.944 56,29.5C 56.4169,28.244 57.2502,27.5774 58.5,27.5 Z"/></g>
<g><path style="opacity:1" fill="#bf1716" d="M 26.5,30.5 C 27.0592,32.6792 27.7259,34.8458 28.5,37C 29.3557,38.5947 30.6891,39.428 32.5,39.5C 32.3379,41.5273 32.5045,43.5273 33,45.5C 33.6708,46.2524 34.5041,46.5858 35.5,46.5C 35.5,47.1667 35.5,47.8333 35.5,48.5C 33.8333,48.5 32.1667,48.5 30.5,48.5C 30.8651,53.4214 29.8651,53.7547 27.5,49.5C 26.5,49.8333 25.8333,50.5 25.5,51.5C 26.0774,54.9758 27.0774,58.3091 28.5,61.5C 29.1667,61.1667 29.8333,60.8333 30.5,60.5C 30.6694,58.8827 31.0028,57.216 31.5,55.5C 32.0014,57.6551 33.0014,59.3218 34.5,60.5C 35.1495,62.4352 35.4828,64.4352 35.5,66.5C 36.8333,66.5 38.1667,66.5 39.5,66.5C 39.1583,67.3382 38.4916,67.6716 37.5,67.5C 33.5,67.5 29.5,67.5 25.5,67.5C 23.7452,57.1402 21.0785,47.1402 17.5,37.5C 17.6427,35.7376 17.3094,34.0709 16.5,32.5C 19.7527,31.4025 23.0861,30.7358 26.5,30.5 Z"/></g>
<g><path style="opacity:1" fill="#e1d4d3" d="M 49.5,41.5 C 48.7095,42.4013 47.7095,43.0679 46.5,43.5C 45.7094,40.885 45.0427,38.2184 44.5,35.5C 45.8804,34.2935 47.0471,34.6269 48,36.5C 48.3678,35.09 49.2011,34.09 50.5,33.5C 51.8794,36.467 51.5461,39.1337 49.5,41.5 Z"/></g>
<g><path style="opacity:1" fill="#b83129" d="M 41.5,36.5 C 42.209,35.596 43.209,35.2627 44.5,35.5C 45.0427,38.2184 45.7094,40.885 46.5,43.5C 45.8333,43.5 45.1667,43.5 44.5,43.5C 44.821,40.4231 43.821,38.0897 41.5,36.5 Z"/></g>
<g><path style="opacity:1" fill="#e9d9d6" d="M 41.5,36.5 C 43.821,38.0897 44.821,40.4231 44.5,43.5C 41.3732,44.1251 38.3732,45.1251 35.5,46.5C 34.5041,46.5858 33.6708,46.2524 33,45.5C 32.5045,43.5273 32.3379,41.5273 32.5,39.5C 33.5268,38.1522 34.8602,37.6522 36.5,38C 37.7313,43.987 38.5646,43.8203 39,37.5C 39.6708,36.7476 40.5041,36.4142 41.5,36.5 Z"/></g>
<g><path style="opacity:1" fill="#bf413a" d="M 40.5,38.5 C 42.4646,38.9483 42.7979,39.9483 41.5,41.5C 40.6143,40.675 40.281,39.675 40.5,38.5 Z"/></g>
<g><path style="opacity:1" fill="#e9e7e7" d="M 26.5,39.5 C 27.8221,39.33 28.9887,39.6634 30,40.5C 30.662,42.8127 31.162,45.146 31.5,47.5C 30.5,47.5 29.5,47.5 28.5,47.5C 28.719,46.325 28.3857,45.325 27.5,44.5C 27.0604,45.698 26.727,46.8647 26.5,48C 25.3999,48.4317 24.7332,47.9317 24.5,46.5C 23.4716,44.4401 23.4716,42.4401 24.5,40.5C 25.944,41.981 26.6106,41.6477 26.5,39.5 Z"/></g>
<g><path style="opacity:1" fill="#5c4e40" d="M 60.5,42.5 C 69.8006,41.1357 74.4672,45.1357 74.5,54.5C 72.0229,60.9721 67.3562,64.9721 60.5,66.5C 58.396,66.2011 56.396,66.5344 54.5,67.5C 52.1472,69.5227 49.8138,71.5227 47.5,73.5C 45.5212,72.1879 43.8545,70.5212 42.5,68.5C 52.0057,66.082 60.339,61.582 67.5,55C 67.2716,54.6012 66.9382,54.4346 66.5,54.5C 66.631,53.7611 66.4643,53.0944 66,52.5C 65.2917,53.3805 64.4584,54.0472 63.5,54.5C 62.5,53.5 61.5,52.5 60.5,51.5C 60.2504,48.5839 60.2504,45.5839 60.5,42.5 Z"/></g>
<g><path style="opacity:0.576" fill="#1c1d1a" d="M 77.5,53.5 C 76.7784,53.0825 76.2784,52.4158 76,51.5C 75.7679,52.7375 75.2679,53.7375 74.5,54.5C 74.4672,45.1357 69.8006,41.1357 60.5,42.5C 60.2504,45.5839 60.2504,48.5839 60.5,51.5C 58.1305,44.7111 56.1305,37.7111 54.5,30.5C 55.9986,31.6782 56.9986,33.3449 57.5,35.5C 61.2824,33.2663 65.2824,32.933 69.5,34.5C 69.8333,34 70.1667,33.5 70.5,33C 68.0902,27.0837 64.0902,25.917 58.5,29.5C 57.537,29.0302 57.537,28.3635 58.5,27.5C 58.5,27.1667 58.5,26.8333 58.5,26.5C 58.8333,26.5 59.1667,26.5 59.5,26.5C 62.3886,25.992 65.2219,25.3253 68,24.5C 68.0317,21.3324 66.5317,18.9991 63.5,17.5C 61.7354,16.5386 59.7354,16.2053 57.5,16.5C 62.6532,13.7896 66.8199,15.1229 70,20.5C 72.1451,22.8953 71.9784,25.062 69.5,27C 73.2945,35.6859 75.9612,44.5192 77.5,53.5 Z"/></g>
<g><path style="opacity:1" fill="#5b4c3f" d="M 60.5,42.5 C 57.5088,40.7045 57.1754,38.5379 59.5,36C 62.8333,35.3333 66.1667,35.3333 69.5,36C 72.2735,37.6052 72.9402,39.7719 71.5,42.5C 69.2831,41.4277 66.9498,40.7611 64.5,40.5C 62.6455,40.3402 61.3121,41.0069 60.5,42.5 Z"/></g>
<g><path style="opacity:1" fill="#ece7e6" d="M 50.5,44.5 C 55.1892,44.6314 55.5225,45.6314 51.5,47.5C 51.44,46.9569 51.1067,46.6236 50.5,46.5C 49.1299,49.4847 49.6299,52.1514 52,54.5C 51.9813,52.8925 51.8146,51.2259 51.5,49.5C 53.0418,48.6993 54.7085,48.366 56.5,48.5C 56.3259,50.861 55.9926,53.1944 55.5,55.5C 48.0557,57.2046 45.5557,54.2046 48,46.5C 48.7083,45.6195 49.5416,44.9528 50.5,44.5 Z"/></g>
<g><path style="opacity:1" fill="#eae7e6" d="M 35.5,48.5 C 35.7477,51.5804 36.4144,54.5804 37.5,57.5C 37.1316,59.1753 36.1316,60.1753 34.5,60.5C 33.0014,59.3218 32.0014,57.6551 31.5,55.5C 31.0028,57.216 30.6694,58.8827 30.5,60.5C 29.8333,60.8333 29.1667,61.1667 28.5,61.5C 27.0774,58.3091 26.0774,54.9758 25.5,51.5C 25.8333,50.5 26.5,49.8333 27.5,49.5C 29.8651,53.7547 30.8651,53.4214 30.5,48.5C 32.1667,48.5 33.8333,48.5 35.5,48.5 Z"/></g>
<g><path style="opacity:1" fill="#b16c69" d="M 51.5,47.5 C 50.1667,48.1667 50.1667,48.8333 51.5,49.5C 51.8146,51.2259 51.9813,52.8925 52,54.5C 49.6299,52.1514 49.1299,49.4847 50.5,46.5C 51.1067,46.6236 51.44,46.9569 51.5,47.5 Z"/></g>
<g><path style="opacity:1" fill="#df0f13" d="M 49.5,41.5 C 54.0637,42.1839 54.3971,43.1839 50.5,44.5C 49.5416,44.9528 48.7083,45.6195 48,46.5C 45.5557,54.2046 48.0557,57.2046 55.5,55.5C 55.7831,56.2161 56.1164,57.0494 56.5,58C 57.448,58.4828 58.448,58.6495 59.5,58.5C 59.2322,56.901 59.5655,55.5676 60.5,54.5C 61.8866,56.4888 61.5532,58.3221 59.5,60C 53.116,63.0725 46.4493,65.2392 39.5,66.5C 38.1667,66.5 36.8333,66.5 35.5,66.5C 35.4828,64.4352 35.1495,62.4352 34.5,60.5C 36.1316,60.1753 37.1316,59.1753 37.5,57.5C 36.4144,54.5804 35.7477,51.5804 35.5,48.5C 35.5,47.8333 35.5,47.1667 35.5,46.5C 38.3732,45.1251 41.3732,44.1251 44.5,43.5C 45.1667,43.5 45.8333,43.5 46.5,43.5C 47.7095,43.0679 48.7095,42.4013 49.5,41.5 Z"/></g>
<g><path style="opacity:1" fill="#eadfde" d="M 39.5,49.5 C 40.1667,51.5 40.8333,53.5 41.5,55.5C 42.3764,55.6309 43.0431,55.2975 43.5,54.5C 42.7542,53.2638 42.4208,51.9305 42.5,50.5C 41.7659,49.2921 41.4326,47.9587 41.5,46.5C 42.5832,46.4606 43.5832,46.1272 44.5,45.5C 45.5799,49.1435 46.0799,52.8102 46,56.5C 44.2467,57.627 42.4134,58.627 40.5,59.5C 39.1082,56.9924 38.1082,54.3258 37.5,51.5C 37.7472,50.2867 38.4138,49.62 39.5,49.5 Z"/></g>
<g><path style="opacity:1" fill="#c12319" d="M 42.5,50.5 C 42.4208,51.9305 42.7542,53.2638 43.5,54.5C 43.0431,55.2975 42.3764,55.6309 41.5,55.5C 41.2155,53.5853 41.5489,51.9187 42.5,50.5 Z"/></g>
<g><path style="opacity:1" fill="#c06562" d="M 41.5,46.5 C 41.4326,47.9587 41.7659,49.2921 42.5,50.5C 41.5489,51.9187 41.2155,53.5853 41.5,55.5C 40.8333,53.5 40.1667,51.5 39.5,49.5C 39.9321,48.2905 40.5987,47.2905 41.5,46.5 Z"/></g>
<g><path style="opacity:0.902" fill="#1d1d1b" d="M 60.5,51.5 C 61.5,52.5 62.5,53.5 63.5,54.5C 62.475,54.8966 62.3083,55.5632 63,56.5C 64.1127,55.695 65.2794,55.0283 66.5,54.5C 66.9382,54.4346 67.2716,54.6012 67.5,55C 60.339,61.582 52.0057,66.082 42.5,68.5C 43.8545,70.5212 45.5212,72.1879 47.5,73.5C 55.5802,78.8078 59.9136,76.4745 60.5,66.5C 67.3562,64.9721 72.0229,60.9721 74.5,54.5C 75.2679,53.7375 75.7679,52.7375 76,51.5C 76.2784,52.4158 76.7784,53.0825 77.5,53.5C 77.2145,57.1106 75.5478,59.944 72.5,62C 70.5448,62.9533 68.8782,64.2866 67.5,66C 65.9751,67.0086 64.3084,67.5086 62.5,67.5C 61.5576,72.0515 59.5576,76.0515 56.5,79.5C 55.8333,79.1667 55.1667,78.8333 54.5,78.5C 54.1667,78.5 53.8333,78.5 53.5,78.5C 52.791,77.596 51.791,77.2627 50.5,77.5C 49.791,76.596 48.791,76.2627 47.5,76.5C 47.0269,75.0937 46.0269,74.427 44.5,74.5C 44.5,73.8333 44.1667,73.5 43.5,73.5C 42.1182,71.4514 40.4516,69.7847 38.5,68.5C 37.8333,68.5 37.5,68.1667 37.5,67.5C 38.4916,67.6716 39.1583,67.3382 39.5,66.5C 46.4493,65.2392 53.116,63.0725 59.5,60C 61.5532,58.3221 61.8866,56.4888 60.5,54.5C 60.5,53.5 60.5,52.5 60.5,51.5 Z"/></g>
<g><path style="opacity:1" fill="#3d3229" d="M 60.5,66.5 C 59.9136,76.4745 55.5802,78.8078 47.5,73.5C 49.8138,71.5227 52.1472,69.5227 54.5,67.5C 56.396,66.5344 58.396,66.2011 60.5,66.5 Z"/></g>
<g><path style="opacity:1" fill="#b6b6b7" d="M 66.5,54.5 C 65.2794,55.0283 64.1127,55.695 63,56.5C 62.3083,55.5632 62.475,54.8966 63.5,54.5C 64.4584,54.0472 65.2917,53.3805 66,52.5C 66.4643,53.0944 66.631,53.7611 66.5,54.5 Z"/></g>
<g><path style="opacity:0.004" fill="#732221" d="M 34.5,70.5 C 35.8333,71.1667 35.8333,71.1667 34.5,70.5 Z"/></g>
<g><path style="opacity:1" fill="#281f1c" d="M 17.5,37.5 C 21.0785,47.1402 23.7452,57.1402 25.5,67.5C 29.5,67.5 33.5,67.5 37.5,67.5C 37.5,68.1667 37.8333,68.5 38.5,68.5C 39.1667,71.1667 40.8333,72.8333 43.5,73.5C 44.1667,73.5 44.5,73.8333 44.5,74.5C 44.9731,75.9063 45.9731,76.573 47.5,76.5C 48.209,77.404 49.209,77.7373 50.5,77.5C 51.209,78.404 52.209,78.7373 53.5,78.5C 53.8333,79.8333 54.1667,79.8333 54.5,78.5C 55.1667,78.8333 55.8333,79.1667 56.5,79.5C 56.0377,80.8799 55.0377,81.5466 53.5,81.5C 51.5,81 49.5,80.5 47.5,80C 42.708,77.0386 38.3746,73.5386 34.5,69.5C 31.5358,70.4718 28.5358,70.6385 25.5,70C 21.9609,60.0139 18.9609,49.8472 16.5,39.5C 17.3382,39.1583 17.6716,38.4916 17.5,37.5 Z"/></g>
</svg>
