<?xml version="1.0" encoding="UTF-8"?>
<!DOCTYPE svg PUBLIC "-//W3C//DTD SVG 1.1//EN" "http://www.w3.org/Graphics/SVG/1.1/DTD/svg11.dtd">
<svg xmlns="http://www.w3.org/2000/svg" version="1.1" width="96px" height="96px" style="shape-rendering:geometricPrecision; text-rendering:geometricPrecision; image-rendering:optimizeQuality; fill-rule:evenodd; clip-rule:evenodd" xmlns:xlink="http://www.w3.org/1999/xlink">
<g><path style="opacity:0.846" fill="#a5a5a5" d="M 47.5,13.5 C 41.5,16.5 35.5,19.5 29.5,22.5C 29.1667,22.5 28.8333,22.5 28.5,22.5C 28.1667,22.5 27.8333,22.5 27.5,22.5C 27.5,21.8333 27.1667,21.5 26.5,21.5C 26.5,20.8333 26.1667,20.5 25.5,20.5C 25.1667,20.5 24.8333,20.5 24.5,20.5C 24.5,19.8333 24.1667,19.5 23.5,19.5C 23.5,18.8333 23.1667,18.5 22.5,18.5C 22.3893,17.8826 22.056,17.3826 21.5,17C 30.7705,13.364 39.7705,9.19731 48.5,4.5C 56.7805,9.47361 65.4472,13.6403 74.5,17C 74.4806,19.9685 74.3139,23.1352 74,26.5C 71.5664,27.6323 69.0664,28.6323 66.5,29.5C 60.7242,27.4459 55.0576,25.1126 49.5,22.5C 48.2175,19.6281 48.2175,16.7947 49.5,14C 48.9056,13.5357 48.2389,13.369 47.5,13.5 Z"/></g>
<g><path style="opacity:0.85" fill="#fefefe" d="M 47.5,13.5 C 47.6646,16.5184 47.498,19.5184 47,22.5C 43.8507,23.9964 40.6841,25.4964 37.5,27C 38.8265,40.8035 38.8265,54.6369 37.5,68.5C 41.0221,70.4267 44.6888,72.0934 48.5,73.5C 54.7307,71.3854 60.7307,68.7187 66.5,65.5C 69.0125,66.728 71.0125,68.3946 72.5,70.5C 71.8333,70.5 71.5,70.8333 71.5,71.5C 71.1667,71.5 70.8333,71.5 70.5,71.5C 69.8333,71.5 69.5,71.8333 69.5,72.5C 69.1667,72.5 68.8333,72.5 68.5,72.5C 67.8333,72.5 67.5,72.8333 67.5,73.5C 67.1667,73.5 66.8333,73.5 66.5,73.5C 65.5084,73.3284 64.8417,73.6618 64.5,74.5C 63.5084,74.3284 62.8417,74.6618 62.5,75.5C 61.5084,75.3284 60.8417,75.6618 60.5,76.5C 60.1667,76.5 59.8333,76.5 59.5,76.5C 58.8333,76.5 58.5,76.8333 58.5,77.5C 58.1667,77.5 57.8333,77.5 57.5,77.5C 56.8333,77.5 56.5,77.8333 56.5,78.5C 56.1667,78.5 55.8333,78.5 55.5,78.5C 54.5084,78.3284 53.8417,78.6618 53.5,79.5C 52.5084,79.3284 51.8417,79.6618 51.5,80.5C 50.5084,80.3284 49.8417,80.6618 49.5,81.5C 47.7629,84.008 46.9296,87.008 47,90.5C 38.6093,86.0542 30.1093,81.7209 21.5,77.5C 21.1667,67.6667 20.8333,57.8333 20.5,48C 20.5014,37.8099 21.1681,27.9765 22.5,18.5C 23.1667,18.5 23.5,18.8333 23.5,19.5C 24.1667,19.5 24.5,19.8333 24.5,20.5C 24.8333,20.5 25.1667,20.5 25.5,20.5C 26.1667,20.5 26.5,20.8333 26.5,21.5C 27.1667,21.5 27.5,21.8333 27.5,22.5C 27.8333,22.5 28.1667,22.5 28.5,22.5C 28.8333,90.5 29.1667,90.5 29.5,22.5C 35.5,19.5 41.5,16.5 47.5,13.5 Z"/></g>
<g><path style="opacity:0.859" fill="#a4a4a4" d="M 72.5,70.5 C 73.7251,71.1522 74.3917,72.3189 74.5,74C 74.4411,75.4357 74.1078,76.769 73.5,78C 65.3427,81.9116 57.3427,86.0783 49.5,90.5C 48.2588,87.463 48.2588,84.463 49.5,81.5C 50.4916,81.6716 51.1583,81.3382 51.5,80.5C 52.4916,80.6716 53.1583,80.3382 53.5,79.5C 54.4916,79.6716 55.1583,79.3382 55.5,78.5C 55.8333,78.5 56.1667,78.5 56.5,78.5C 57.1667,78.5 57.5,78.1667 57.5,77.5C 57.8333,77.5 58.1667,77.5 58.5,77.5C 59.1667,77.5 59.5,77.1667 59.5,76.5C 59.8333,76.5 60.1667,76.5 60.5,76.5C 61.4916,76.6716 62.1583,76.3382 62.5,75.5C 63.4916,75.6716 64.1583,75.3382 64.5,74.5C 65.4916,74.6716 66.1583,74.3382 66.5,73.5C 66.8333,73.5 67.1667,73.5 67.5,73.5C 68.1667,73.5 68.5,73.1667 68.5,72.5C 68.8333,72.5 69.1667,72.5 69.5,72.5C 70.1667,72.5 70.5,72.1667 70.5,71.5C 70.8333,71.5 71.1667,71.5 71.5,71.5C 72.1667,71.5 72.5,71.1667 72.5,70.5 Z"/></g>
</svg>
