<?xml version="1.0" encoding="UTF-8"?>
<!DOCTYPE svg PUBLIC "-//W3C//DTD SVG 1.1//EN" "http://www.w3.org/Graphics/SVG/1.1/DTD/svg11.dtd">
<svg xmlns="http://www.w3.org/2000/svg" version="1.1" width="96px" height="96px" style="shape-rendering:geometricPrecision; text-rendering:geometricPrecision; image-rendering:optimizeQuality; fill-rule:evenodd; clip-rule:evenodd" xmlns:xlink="http://www.w3.org/1999/xlink">
<g><path style="opacity:0.999" fill="#d0cbb0" d="M -0.5,-0.5 C 3.83333,-0.5 8.16667,-0.5 12.5,-0.5C 12.2965,1.39037 12.9632,2.89037 14.5,4C 13.8333,4.66667 13.1667,5.33333 12.5,6C 13.5,7 14.5,8 15.5,9C 14.1667,10 14.1667,11 15.5,12C 11.8729,13.2211 11.8729,14.8878 15.5,17C 15.1667,18 14.8333,19 14.5,20C 15.3081,20.3076 15.9747,20.8076 16.5,21.5C 15.2782,23.835 15.6115,26.1683 17.5,28.5C 16.8333,29.1667 16.1667,29.8333 15.5,30.5C 16.1667,30.8333 16.8333,31.1667 17.5,31.5C 17.1667,32.1667 16.8333,32.8333 16.5,33.5C 17.6034,33.9976 18.6034,34.3309 19.5,34.5C 18.91,35.7989 17.91,36.6322 16.5,37C 17.1667,37.6667 17.8333,38.3333 18.5,39C 12.1497,39.5244 5.81638,39.3577 -0.5,38.5C -0.5,25.5 -0.5,12.5 -0.5,-0.5 Z"/></g>
<g><path style="opacity:0.992" fill="#ded8ba" d="M 31.5,-0.5 C 42.8333,-0.5 54.1667,-0.5 65.5,-0.5C 64.4972,14.2001 63.1639,28.8668 61.5,43.5C 62.791,43.2627 63.791,43.596 64.5,44.5C 58.8698,43.7081 53.2031,43.3748 47.5,43.5C 48.3439,39.9009 48.6773,36.2343 48.5,32.5C 50.099,32.7678 51.4324,32.4345 52.5,31.5C 53.8409,28.148 52.8409,25.4813 49.5,23.5C 49.5,23.1667 49.5,22.8333 49.5,22.5C 50.8333,21.8333 52.1667,21.1667 53.5,20.5C 55.1042,19.713 55.7709,18.3797 55.5,16.5C 54.5,16.5 53.5,16.5 52.5,16.5C 48.4492,14.9373 45.9492,11.9373 45,7.5C 43.1516,10.0414 40.6516,11.0414 37.5,10.5C 36.1634,9.68512 35.1634,8.51845 34.5,7C 33.5632,6.30831 32.8966,6.47498 32.5,7.5C 31.596,8.20895 31.2627,9.20895 31.5,10.5C 30.7784,10.9175 30.2784,11.5842 30,12.5C 27.7087,9.54514 28.2087,7.21181 31.5,5.5C 29.258,3.20536 29.258,1.20536 31.5,-0.5 Z"/></g>
<g><path style="opacity:1" fill="#d8d2b5" d="M 12.5,-0.5 C 18.8333,-0.5 25.1667,-0.5 31.5,-0.5C 29.258,1.20536 29.258,3.20536 31.5,5.5C 28.2087,7.21181 27.7087,9.54514 30,12.5C 30.2784,11.5842 30.7784,10.9175 31.5,10.5C 29.9808,18.7255 27.6475,26.7255 24.5,34.5C 22.1938,37.4729 19.5272,40.1395 16.5,42.5C 13.9669,41.1463 12.3002,41.9796 11.5,45C 11.8333,45.3333 12.1667,45.6667 12.5,46C 11.1667,46.3333 9.83333,46.6667 8.5,47C 10.8793,49.0254 11.7127,51.5254 11,54.5C 9.68408,51.972 8.51741,51.972 7.5,54.5C 9.13978,58.9896 8.30645,62.9896 5,66.5C 3.14141,70.3167 1.30808,70.3167 -0.5,66.5C -0.5,57.1667 -0.5,47.8333 -0.5,38.5C 5.81638,39.3577 12.1497,39.5244 18.5,39C 17.8333,38.3333 17.1667,37.6667 16.5,37C 17.91,36.6322 18.91,35.7989 19.5,34.5C 18.6034,34.3309 17.6034,33.9976 16.5,33.5C 16.8333,32.8333 17.1667,32.1667 17.5,31.5C 16.8333,31.1667 16.1667,30.8333 15.5,30.5C 16.1667,29.8333 16.8333,29.1667 17.5,28.5C 15.6115,26.1683 15.2782,23.835 16.5,21.5C 15.9747,20.8076 15.3081,20.3076 14.5,20C 14.8333,19 15.1667,18 15.5,17C 11.8729,14.8878 11.8729,13.2211 15.5,12C 14.1667,11 14.1667,10 15.5,9C 14.5,8 13.5,7 12.5,6C 13.1667,5.33333 13.8333,4.66667 14.5,4C 12.9632,2.89037 12.2965,1.39037 12.5,-0.5 Z"/></g>
<g><path style="opacity:1" fill="#a6824c" d="M 37.5,10.5 C 36.0474,11.8249 36.3808,12.6582 38.5,13C 37.5342,14.6779 36.2009,15.3446 34.5,15C 32.8866,12.7724 32.22,10.2724 32.5,7.5C 32.8966,6.47498 33.5632,6.30831 34.5,7C 35.1634,8.51845 36.1634,9.68512 37.5,10.5 Z"/></g>
<g><path style="opacity:1" fill="#ccaf4e" d="M 91.5,-0.5 C 92.5,-0.5 93.5,-0.5 94.5,-0.5C 94.6871,9.33997 94.0204,19.0066 92.5,28.5C 91.8333,28.5 91.5,28.1667 91.5,27.5C 91.5,18.1667 91.5,8.83333 91.5,-0.5 Z"/></g>
<g><path style="opacity:0.949" fill="#c39d2e" d="M 94.5,-0.5 C 94.8333,-0.5 95.1667,-0.5 95.5,-0.5C 95.5,9.5 95.5,19.5 95.5,29.5C 94.391,29.4431 93.391,29.1098 92.5,28.5C 94.0204,19.0066 94.6871,9.33997 94.5,-0.5 Z"/></g>
<g><path style="opacity:1" fill="#d28e65" d="M 66.5,13.5 C 68.0894,12.3789 69.7561,12.5456 71.5,14C 72.4562,16.8771 73.7895,19.5438 75.5,22C 72.6492,23.2886 69.6492,23.7886 66.5,23.5C 66.5,22.1667 66.5,20.8333 66.5,19.5C 67.4787,17.8546 68.812,16.5213 70.5,15.5C 69.4231,14.2949 68.0898,13.6282 66.5,13.5 Z"/></g>
<g><path style="opacity:1" fill="#625e54" d="M 52.5,16.5 C 53.5,16.5 54.5,16.5 55.5,16.5C 55.7709,18.3797 55.1042,19.713 53.5,20.5C 52.596,19.791 52.2627,18.791 52.5,17.5C 52.5,17.1667 52.5,16.8333 52.5,16.5 Z"/></g>
<g><path style="opacity:1" fill="#e3c86b" d="M 69.5,-0.5 C 76.8333,-0.5 84.1667,-0.5 91.5,-0.5C 91.5,8.83333 91.5,18.1667 91.5,27.5C 88.1066,27.9383 85.1066,27.1049 82.5,25C 78.9767,20.9776 75.6434,16.811 72.5,12.5C 71.3112,11.5713 69.9778,11.238 68.5,11.5C 68.6458,7.48086 68.9791,3.48086 69.5,-0.5 Z"/></g>
<g><path style="opacity:1" fill="#e8b592" d="M 68.5,11.5 C 69.9778,11.238 71.3112,11.5713 72.5,12.5C 75.6434,16.811 78.9767,20.9776 82.5,25C 85.1066,27.1049 88.1066,27.9383 91.5,27.5C 91.5,28.1667 91.8333,28.5 92.5,28.5C 93.391,29.1098 94.391,29.4431 95.5,29.5C 95.5,30.1667 95.5,30.8333 95.5,31.5C 90.243,30.3186 84.9097,29.3186 79.5,28.5C 75.4195,25.4947 71.0862,24.828 66.5,26.5C 65.1667,24.1667 65.1667,21.8333 66.5,19.5C 66.5,20.8333 66.5,22.1667 66.5,23.5C 69.6492,23.7886 72.6492,23.2886 75.5,22C 73.7895,19.5438 72.4562,16.8771 71.5,14C 69.7561,12.5456 68.0894,12.3789 66.5,13.5C 65.9569,13.44 65.6236,13.1067 65.5,12.5C 66.325,11.6143 67.325,11.281 68.5,11.5 Z"/></g>
<g><path style="opacity:1" fill="#b47f74" d="M 49.5,23.5 C 52.8409,25.4813 53.8409,28.148 52.5,31.5C 50.6833,29.9878 49.6833,27.9878 49.5,25.5C 45.5,24.8333 45.5,24.1667 49.5,23.5 Z"/></g>
<g><path style="opacity:1" fill="#c9a662" d="M 32.5,7.5 C 32.22,10.2724 32.8866,12.7724 34.5,15C 36.2009,15.3446 37.5342,14.6779 38.5,13C 36.3808,12.6582 36.0474,11.8249 37.5,10.5C 40.6516,11.0414 43.1516,10.0414 45,7.5C 45.9492,11.9373 48.4492,14.9373 52.5,16.5C 52.5,16.8333 52.5,17.1667 52.5,17.5C 48.7064,20.0135 44.8731,20.0135 41,17.5C 38.2989,18.8628 36.7989,21.0294 36.5,24C 38.0479,27.6654 38.7145,31.4988 38.5,35.5C 35.5176,35.0371 32.5176,34.7038 29.5,34.5C 29.5,35.5 29.5,36.5 29.5,37.5C 28.6255,35.31 26.9589,34.31 24.5,34.5C 27.6475,26.7255 29.9808,18.7255 31.5,10.5C 31.2627,9.20895 31.596,8.20895 32.5,7.5 Z"/></g>
<g><path style="opacity:1" fill="#39362f" d="M 43.5,15.5 C 44.675,15.281 45.675,15.6143 46.5,16.5C 44.9483,17.7979 43.9483,17.4646 43.5,15.5 Z"/></g>
<g><path style="opacity:1" fill="#3d322a" d="M 49.5,22.5 C 49.5,22.8333 49.5,23.1667 49.5,23.5C 45.5,24.1667 45.5,24.8333 49.5,25.5C 49.6833,27.9878 50.6833,29.9878 52.5,31.5C 48.6522,30.5677 45.9856,28.2344 44.5,24.5C 45.6685,22.7826 47.3352,22.1159 49.5,22.5 Z"/></g>
<g><path style="opacity:1" fill="#d2c49d" d="M 65.5,-0.5 C 66.8333,-0.5 68.1667,-0.5 69.5,-0.5C 68.9791,3.48086 68.6458,7.48086 68.5,11.5C 67.325,11.281 66.325,11.6143 65.5,12.5C 65.6236,13.1067 65.9569,13.44 66.5,13.5C 68.0898,13.6282 69.4231,14.2949 70.5,15.5C 68.812,16.5213 67.4787,17.8546 66.5,19.5C 65.1667,21.8333 65.1667,24.1667 66.5,26.5C 67.404,27.209 67.7373,28.209 67.5,29.5C 66.5128,34.3054 66.1795,39.3054 66.5,44.5C 65.8333,44.5 65.1667,44.5 64.5,44.5C 63.791,43.596 62.791,43.2627 61.5,43.5C 63.1639,28.8668 64.4972,14.2001 65.5,-0.5 Z"/></g>
<g><path style="opacity:1" fill="#e2c76a" d="M 67.5,29.5 C 68.2679,30.2625 68.7679,31.2625 69,32.5C 72.3246,28.4493 75.4912,28.616 78.5,33C 83.3676,34.3295 87.7009,36.4962 91.5,39.5C 91.5,41.5 91.5,43.5 91.5,45.5C 83.1329,45.7047 74.7996,45.3713 66.5,44.5C 66.1795,39.3054 66.5128,34.3054 67.5,29.5 Z"/></g>
<g><path style="opacity:1" fill="#bf8c56" d="M 66.5,26.5 C 71.0862,24.828 75.4195,25.4947 79.5,28.5C 84.9097,29.3186 90.243,30.3186 95.5,31.5C 95.5,35.1667 95.5,38.8333 95.5,42.5C 94.7638,40.7706 93.4305,39.7706 91.5,39.5C 87.7009,36.4962 83.3676,34.3295 78.5,33C 75.4912,28.616 72.3246,28.4493 69,32.5C 68.7679,31.2625 68.2679,30.2625 67.5,29.5C 67.7373,28.209 67.404,27.209 66.5,26.5 Z"/></g>
<g><path style="opacity:1" fill="#b68d24" d="M 91.5,39.5 C 93.4305,39.7706 94.7638,40.7706 95.5,42.5C 95.5,44.1667 95.5,45.8333 95.5,47.5C 93.847,47.3404 92.5137,46.6737 91.5,45.5C 91.5,43.5 91.5,41.5 91.5,39.5 Z"/></g>
<g><path style="opacity:1" fill="#e0d3a9" d="M 47.5,43.5 C 53.2031,43.3748 58.8698,43.7081 64.5,44.5C 65.1667,44.5 65.8333,44.5 66.5,44.5C 74.7996,45.3713 83.1329,45.7047 91.5,45.5C 92.5137,46.6737 93.847,47.3404 95.5,47.5C 95.5,53.8333 95.5,60.1667 95.5,66.5C 91.9117,67.3311 88.2451,67.3311 84.5,66.5C 84.6309,65.6236 84.2975,64.9569 83.5,64.5C 80.0169,62.2769 76.3502,60.6102 72.5,59.5C 72.8633,57.0885 71.8633,55.5885 69.5,55C 70.1667,54.6667 70.8333,54.3333 71.5,54C 70.3279,53.5814 69.3279,52.9147 68.5,52C 61.5737,51.6605 54.7404,52.1605 48,53.5C 47.5017,50.1832 47.335,46.8499 47.5,43.5 Z"/></g>
<g><path style="opacity:1" fill="#caa763" d="M 29.5,38.5 C 31.9589,38.31 33.6255,39.31 34.5,41.5C 35.0138,43.5116 35.1805,45.5116 35,47.5C 33.6667,46.8333 32.6667,45.8333 32,44.5C 29.5787,51.1377 30.412,57.3044 34.5,63C 33.7256,65.405 33.2256,67.905 33,70.5C 32.6924,71.3081 32.1924,71.9747 31.5,72.5C 31.1045,68.9532 29.7711,65.9532 27.5,63.5C 26.5489,64.9187 26.2155,66.5853 26.5,68.5C 25.5386,70.2646 25.2053,72.2646 25.5,74.5C 24.0413,74.4326 22.7079,74.7659 21.5,75.5C 20.1667,74.5 20.1667,73.5 21.5,72.5C 23.12,71.1591 24.12,69.3258 24.5,67C 22.3442,65.0096 20.3442,62.8429 18.5,60.5C 19.6433,57.7357 20.9766,55.069 22.5,52.5C 20.7285,49.0843 19.7285,45.4176 19.5,41.5C 20.552,41.3505 21.552,41.5172 22.5,42C 23.5937,43.7803 24.5937,45.6136 25.5,47.5C 25.8333,46.8333 26.1667,46.1667 26.5,45.5C 25.0629,43.4229 24.3962,41.0895 24.5,38.5C 26.4752,38.8222 28.1418,38.8222 29.5,38.5 Z"/></g>
<g><path style="opacity:1" fill="#d0c198" d="M 52.5,17.5 C 52.2627,18.791 52.596,19.791 53.5,20.5C 52.1667,21.1667 50.8333,21.8333 49.5,22.5C 47.3352,22.1159 45.6685,22.7826 44.5,24.5C 45.9856,28.2344 48.6522,30.5677 52.5,31.5C 51.4324,32.4345 50.099,32.7678 48.5,32.5C 48.6773,36.2343 48.3439,39.9009 47.5,43.5C 47.335,46.8499 47.5017,50.1832 48,53.5C 54.7404,52.1605 61.5737,51.6605 68.5,52C 69.3279,52.9147 70.3279,53.5814 71.5,54C 70.8333,54.3333 70.1667,54.6667 69.5,55C 71.8633,55.5885 72.8633,57.0885 72.5,59.5C 76.3502,60.6102 80.0169,62.2769 83.5,64.5C 84.2975,64.9569 84.6309,65.6236 84.5,66.5C 80.3116,65.2102 76.145,64.8769 72,65.5C 71.7104,63.9559 71.0437,62.6226 70,61.5C 67.1877,62.5745 64.1877,63.2412 61,63.5C 57.099,62.0195 53.099,60.6862 49,59.5C 48.228,59.6448 47.5613,59.9781 47,60.5C 46.8283,65.2018 46.3283,69.8685 45.5,74.5C 43.974,71.6909 42.974,68.6909 42.5,65.5C 42.6495,64.448 42.4828,63.448 42,62.5C 40.6189,64.6349 39.6189,66.9682 39,69.5C 37.871,71.1412 36.371,72.1412 34.5,72.5C 34.2681,68.0202 34.9347,63.6868 36.5,59.5C 33.1743,57.0247 32.1743,53.8581 33.5,50C 34.7932,49.51 36.1266,49.3433 37.5,49.5C 37.2671,46.4582 36.2671,43.7916 34.5,41.5C 33.6255,39.31 31.9589,38.31 29.5,38.5C 29.5,38.1667 29.5,37.8333 29.5,37.5C 29.5,36.5 29.5,35.5 29.5,34.5C 32.5176,34.7038 35.5176,35.0371 38.5,35.5C 38.7145,31.4988 38.0479,27.6654 36.5,24C 36.7989,21.0294 38.2989,18.8628 41,17.5C 44.8731,20.0135 48.7064,20.0135 52.5,17.5 Z"/></g>
<g><path style="opacity:1" fill="#c2974d" d="M 24.5,34.5 C 26.9589,34.31 28.6255,35.31 29.5,37.5C 29.5,37.8333 29.5,38.1667 29.5,38.5C 28.1418,38.8222 26.4752,38.8222 24.5,38.5C 24.3962,41.0895 25.0629,43.4229 26.5,45.5C 26.1667,46.1667 25.8333,46.8333 25.5,47.5C 24.5937,45.6136 23.5937,43.7803 22.5,42C 21.552,41.5172 20.552,41.3505 19.5,41.5C 19.7285,45.4176 20.7285,49.0843 22.5,52.5C 20.9766,55.069 19.6433,57.7357 18.5,60.5C 20.3442,62.8429 22.3442,65.0096 24.5,67C 24.12,69.3258 23.12,71.1591 21.5,72.5C 22.3029,71.5768 22.4696,70.5768 22,69.5C 19.901,68.8695 18.0677,67.8695 16.5,66.5C 16.3404,64.847 15.6737,63.5137 14.5,62.5C 14.5,61.8333 14.1667,61.5 13.5,61.5C 13.4285,58.8067 13.0951,56.1401 12.5,53.5C 14.0998,49.96 15.4331,46.2933 16.5,42.5C 19.5272,40.1395 22.1938,37.4729 24.5,34.5 Z"/></g>
<g><path style="opacity:1" fill="#c7b68a" d="M 84.5,66.5 C 88.2451,67.3311 91.9117,67.3311 95.5,66.5C 95.5,69.5 95.5,72.5 95.5,75.5C 93.4588,75.1459 91.6255,75.1459 90,75.5C 80.6872,68.8995 70.5205,66.5661 59.5,68.5C 55.5238,67.2744 51.8571,65.6077 48.5,63.5C 47.1667,65.8333 47.1667,68.1667 48.5,70.5C 47.9791,74.4809 47.6458,78.4809 47.5,82.5C 45.7126,78.9252 43.8793,75.2585 42,71.5C 41.2109,69.2884 41.3775,67.2884 42.5,65.5C 42.974,68.6909 43.974,71.6909 45.5,74.5C 46.3283,69.8685 46.8283,65.2018 47,60.5C 47.5613,59.9781 48.228,59.6448 49,59.5C 53.099,60.6862 57.099,62.0195 61,63.5C 64.1877,63.2412 67.1877,62.5745 70,61.5C 71.0437,62.6226 71.7104,63.9559 72,65.5C 76.145,64.8769 80.3116,65.2102 84.5,66.5 Z"/></g>
<g><path style="opacity:1" fill="#d1c8a5" d="M 16.5,42.5 C 15.4331,46.2933 14.0998,49.96 12.5,53.5C 13.0951,56.1401 13.4285,58.8067 13.5,61.5C 13.5,65.5 13.5,69.5 13.5,73.5C 12.7784,73.0825 12.2784,72.4158 12,71.5C 10.6251,77.3048 8.29179,82.6381 5,87.5C 3.82048,82.5177 1.98714,77.851 -0.5,73.5C -0.5,71.1667 -0.5,68.8333 -0.5,66.5C 1.30808,70.3167 3.14141,70.3167 5,66.5C 8.30645,62.9896 9.13978,58.9896 7.5,54.5C 8.51741,51.972 9.68408,51.972 11,54.5C 11.7127,51.5254 10.8793,49.0254 8.5,47C 9.83333,46.6667 11.1667,46.3333 12.5,46C 12.1667,45.6667 11.8333,45.3333 11.5,45C 12.3002,41.9796 13.9669,41.1463 16.5,42.5 Z"/></g>
<g><path style="opacity:1" fill="#886638" d="M 16.5,66.5 C 18.0677,67.8695 19.901,68.8695 22,69.5C 22.4696,70.5768 22.3029,71.5768 21.5,72.5C 20.1667,73.5 20.1667,74.5 21.5,75.5C 21.2648,76.0967 20.7648,76.4301 20,76.5C 18.1418,75.3941 16.3085,74.3941 14.5,73.5C 16.3435,71.7211 17.0102,69.3878 16.5,66.5 Z"/></g>
<g><path style="opacity:1" fill="#b3965b" d="M 63.5,78.5 C 58.9677,78.1818 54.6344,78.5151 50.5,79.5C 51.911,81.539 53.911,82.539 56.5,82.5C 56.5,83.5 56.5,84.5 56.5,85.5C 54.1667,85.5 51.8333,85.5 49.5,85.5C 48.0937,85.0269 47.427,84.0269 47.5,82.5C 47.6458,78.4809 47.9791,74.4809 48.5,70.5C 48.0889,67.7237 48.9223,67.057 51,68.5C 52.5,69.3333 53.6667,70.5 54.5,72C 53.3507,73.7297 53.3507,75.3963 54.5,77C 57.6946,77.1805 60.6946,77.6805 63.5,78.5 Z"/></g>
<g><path style="opacity:1" fill="#c2ae7b" d="M 48.5,63.5 C 51.8571,65.6077 55.5238,67.2744 59.5,68.5C 70.5205,66.5661 80.6872,68.8995 90,75.5C 91.6255,75.1459 93.4588,75.1459 95.5,75.5C 95.5,77.1667 95.5,78.8333 95.5,80.5C 91.5483,79.7279 87.5483,79.3946 83.5,79.5C 86.1251,78.5595 86.1251,77.3928 83.5,76C 80.9009,75.231 78.4009,75.3977 76,76.5C 73.656,74.8187 71.3227,73.152 69,71.5C 68.0546,71.9054 67.3879,72.572 67,73.5C 61.3745,70.7944 55.5412,68.461 49.5,66.5C 48.6143,65.675 48.281,64.675 48.5,63.5 Z"/></g>
<g><path style="opacity:1" fill="#523821" d="M 14.5,62.5 C 15.6737,63.5137 16.3404,64.847 16.5,66.5C 17.0102,69.3878 16.3435,71.7211 14.5,73.5C 14.5,69.8333 14.5,66.1667 14.5,62.5 Z"/></g>
<g><path style="opacity:1" fill="#bca56c" d="M 48.5,63.5 C 48.281,64.675 48.6143,65.675 49.5,66.5C 55.5412,68.461 61.3745,70.7944 67,73.5C 67.3879,72.572 68.0546,71.9054 69,71.5C 71.3227,73.152 73.656,74.8187 76,76.5C 78.4009,75.3977 80.9009,75.231 83.5,76C 86.1251,77.3928 86.1251,78.5595 83.5,79.5C 76.8198,79.3877 70.1531,79.0543 63.5,78.5C 60.6946,77.6805 57.6946,77.1805 54.5,77C 53.3507,75.3963 53.3507,73.7297 54.5,72C 53.6667,70.5 52.5,69.3333 51,68.5C 48.9223,67.057 48.0889,67.7237 48.5,70.5C 47.1667,68.1667 47.1667,65.8333 48.5,63.5 Z"/></g>
<g><path style="opacity:1" fill="#d3b981" d="M 34.5,41.5 C 36.2671,43.7916 37.2671,46.4582 37.5,49.5C 36.1266,49.3433 34.7932,49.51 33.5,50C 32.1743,53.8581 33.1743,57.0247 36.5,59.5C 34.9347,63.6868 34.2681,68.0202 34.5,72.5C 32.8963,76.5571 33.2297,80.3904 35.5,84C 33.75,85.7542 33.0833,87.9208 33.5,90.5C 32.1779,90.33 31.0113,90.6634 30,91.5C 29.7679,90.2625 29.2679,89.2625 28.5,88.5C 27.209,88.7373 26.209,88.404 25.5,87.5C 26.8333,87.5 27.5,86.8333 27.5,85.5C 27.5,85.1667 27.5,84.8333 27.5,84.5C 28.1141,77.5445 28.1141,70.5445 27.5,63.5C 29.7711,65.9532 31.1045,68.9532 31.5,72.5C 32.1924,71.9747 32.6924,71.3081 33,70.5C 33.2256,67.905 33.7256,65.405 34.5,63C 30.412,57.3044 29.5787,51.1377 32,44.5C 32.6667,45.8333 33.6667,46.8333 35,47.5C 35.1805,45.5116 35.0138,43.5116 34.5,41.5 Z"/></g>
<g><path style="opacity:1" fill="#a39161" d="M 42.5,65.5 C 41.3775,67.2884 41.2109,69.2884 42,71.5C 43.8793,75.2585 45.7126,78.9252 47.5,82.5C 47.427,84.0269 48.0937,85.0269 49.5,85.5C 49.6107,86.1174 49.944,86.6174 50.5,87C 44.5462,86.9909 38.8795,88.1576 33.5,90.5C 33.0833,87.9208 33.75,85.7542 35.5,84C 33.2297,80.3904 32.8963,76.5571 34.5,72.5C 36.371,72.1412 37.871,71.1412 39,69.5C 39.6189,66.9682 40.6189,64.6349 42,62.5C 42.4828,63.448 42.6495,64.448 42.5,65.5 Z"/></g>
<g><path style="opacity:1" fill="#c2b893" d="M 13.5,73.5 C 13.3713,75.2161 13.038,76.8828 12.5,78.5C 10.9402,80.9535 9.94024,83.6202 9.5,86.5C 12.1667,86.5 14.8333,86.5 17.5,86.5C 19.9479,87.4731 22.6146,87.8064 25.5,87.5C 26.209,88.404 27.209,88.7373 28.5,88.5C 28.6602,90.1992 28.4935,91.8659 28,93.5C 25.5392,90.9668 24.0392,91.6334 23.5,95.5C 15.5,95.5 7.5,95.5 -0.5,95.5C -0.5,88.1667 -0.5,80.8333 -0.5,73.5C 1.98714,77.851 3.82048,82.5177 5,87.5C 8.29179,82.6381 10.6251,77.3048 12,71.5C 12.2784,72.4158 12.7784,73.0825 13.5,73.5 Z"/></g>
<g><path style="opacity:1" fill="#98885f" d="M 50.5,79.5 C 54.6344,78.5151 58.9677,78.1818 63.5,78.5C 70.1531,79.0543 76.8198,79.3877 83.5,79.5C 87.5483,79.3946 91.5483,79.7279 95.5,80.5C 95.5,81.1667 95.5,81.8333 95.5,82.5C 80.5859,80.9933 65.5859,79.9933 50.5,79.5 Z"/></g>
<g><path style="opacity:1" fill="#c6bc9b" d="M 27.5,63.5 C 28.1141,70.5445 28.1141,77.5445 27.5,84.5C 26.1779,84.67 25.0113,84.3366 24,83.5C 23.1628,81.6494 22.3295,79.8161 21.5,78C 23.1341,77.5065 24.8008,77.3398 26.5,77.5C 26.5,74.5 26.5,71.5 26.5,68.5C 26.2155,66.5853 26.5489,64.9187 27.5,63.5 Z"/></g>
<g><path style="opacity:1" fill="#413325" d="M 39.5,80.5 C 44.4211,82.3536 44.4211,83.3536 39.5,83.5C 39.5,82.5 39.5,81.5 39.5,80.5 Z"/></g>
<g><path style="opacity:1" fill="#4f3823" d="M 14.5,82.5 C 16.6807,82.2837 18.3474,83.117 19.5,85C 22.146,85.4974 24.8127,85.6641 27.5,85.5C 27.5,86.8333 26.8333,87.5 25.5,87.5C 22.6146,87.8064 19.9479,87.4731 17.5,86.5C 17.9382,86.5654 18.2716,86.3988 18.5,86C 16.9069,85.0513 15.5736,83.8846 14.5,82.5 Z"/></g>
<g><path style="opacity:1" fill="#a99667" d="M 13.5,61.5 C 14.1667,61.5 14.5,61.8333 14.5,62.5C 14.5,66.1667 14.5,69.8333 14.5,73.5C 16.3085,74.3941 18.1418,75.3941 20,76.5C 20.7648,76.4301 21.2648,76.0967 21.5,75.5C 22.7079,74.7659 24.0413,74.4326 25.5,74.5C 25.2053,72.2646 25.5386,70.2646 26.5,68.5C 26.5,71.5 26.5,74.5 26.5,77.5C 24.8008,77.3398 23.1341,77.5065 21.5,78C 22.3295,79.8161 23.1628,81.6494 24,83.5C 25.0113,84.3366 26.1779,84.67 27.5,84.5C 27.5,84.8333 27.5,85.1667 27.5,85.5C 24.8127,85.6641 22.146,85.4974 19.5,85C 18.3474,83.117 16.6807,82.2837 14.5,82.5C 14.3404,80.847 13.6737,79.5137 12.5,78.5C 13.038,76.8828 13.3713,75.2161 13.5,73.5C 13.5,69.5 13.5,65.5 13.5,61.5 Z"/></g>
<g><path style="opacity:1" fill="#221e17" d="M 12.5,78.5 C 13.6737,79.5137 14.3404,80.847 14.5,82.5C 15.5736,83.8846 16.9069,85.0513 18.5,86C 18.2716,86.3988 17.9382,86.5654 17.5,86.5C 14.8333,86.5 12.1667,86.5 9.5,86.5C 9.94024,83.6202 10.9402,80.9535 12.5,78.5 Z"/></g>
<g><path style="opacity:0.996" fill="#dfd4ad" d="M 50.5,79.5 C 65.5859,79.9933 80.5859,80.9933 95.5,82.5C 95.5,86.8333 95.5,91.1667 95.5,95.5C 71.5,95.5 47.5,95.5 23.5,95.5C 24.0392,91.6334 25.5392,90.9668 28,93.5C 28.4935,91.8659 28.6602,90.1992 28.5,88.5C 29.2679,89.2625 29.7679,90.2625 30,91.5C 31.0113,90.6634 32.1779,90.33 33.5,90.5C 38.8795,88.1576 44.5462,86.9909 50.5,87C 49.944,86.6174 49.6107,86.1174 49.5,85.5C 51.8333,85.5 54.1667,85.5 56.5,85.5C 56.5,84.5 56.5,83.5 56.5,82.5C 53.911,82.539 51.911,81.539 50.5,79.5 Z"/></g>
</svg>
