<?xml version="1.0" encoding="UTF-8"?>
<!DOCTYPE svg PUBLIC "-//W3C//DTD SVG 1.1//EN" "http://www.w3.org/Graphics/SVG/1.1/DTD/svg11.dtd">
<svg xmlns="http://www.w3.org/2000/svg" version="1.1" width="96px" height="96px" style="shape-rendering:geometricPrecision; text-rendering:geometricPrecision; image-rendering:optimizeQuality; fill-rule:evenodd; clip-rule:evenodd" xmlns:xlink="http://www.w3.org/1999/xlink">
<g><path style="opacity:0.943" fill="#0766dc" d="M 37.5,-0.5 C 44.1667,-0.5 50.8333,-0.5 57.5,-0.5C 77.1667,5.16667 89.8333,17.8333 95.5,37.5C 95.5,44.1667 95.5,50.8333 95.5,57.5C 89.8333,77.1667 77.1667,89.8333 57.5,95.5C 50.8333,95.5 44.1667,95.5 37.5,95.5C 17.8333,89.8333 5.16667,77.1667 -0.5,57.5C -0.5,50.8333 -0.5,44.1667 -0.5,37.5C 5.16667,17.8333 17.8333,5.16667 37.5,-0.5 Z"/></g>
<g><path style="opacity:1" fill="#e6effb" d="M 39.5,8.5 C 70.1953,7.36623 85.6953,22.0329 86,52.5C 80.3658,77.1103 64.8658,88.277 39.5,86C 16.7156,78.9619 6.54894,63.4619 9,39.5C 13.3223,23.3448 23.489,13.0115 39.5,8.5 Z"/></g>
<g><path style="opacity:1" fill="#0b65dc" d="M 41.5,11.5 C 63.6647,10.1853 77.4981,20.1853 83,41.5C 84.7816,63.1089 75.2816,76.9422 54.5,83C 31.4609,85.2281 17.2943,75.0614 12,52.5C 11.069,31.0118 20.9023,17.3451 41.5,11.5 Z"/></g>
<g><path style="opacity:1" fill="#ecf2fc" d="M 63.5,29.5 C 66.0053,31.6974 68.5053,34.0308 71,36.5C 71.49,37.7932 71.6567,39.1266 71.5,40.5C 69.5,40.5 67.5,40.5 65.5,40.5C 65.5,39.5 65.5,38.5 65.5,37.5C 64.5,37.5 63.5,37.5 62.5,37.5C 62.3505,38.552 62.5172,39.552 63,40.5C 66.038,43.2026 68.7046,46.2026 71,49.5C 71.6667,51.5 71.6667,53.5 71,55.5C 68.4258,57.4247 66.2592,59.758 64.5,62.5C 63.3953,60.0311 61.562,58.3644 59,57.5C 57.7978,55.3225 57.2978,52.9892 57.5,50.5C 59.1667,50.5 60.8333,50.5 62.5,50.5C 62.5,51.8333 62.5,53.1667 62.5,54.5C 63.5,54.5 64.5,54.5 65.5,54.5C 65.6567,53.1266 65.49,51.7932 65,50.5C 61.0005,47.6992 58.5005,44.0325 57.5,39.5C 57.3706,35.2985 59.3706,32.9652 63.5,32.5C 63.5,31.5 63.5,30.5 63.5,29.5 Z"/></g>
<g><path style="opacity:1" fill="#f8fbfe" d="M 31.5,42.5 C 31.7828,43.2891 32.2828,43.9558 33,44.5C 33.4986,40.8484 33.6653,37.1817 33.5,33.5C 34.8333,33.5 36.1667,33.5 37.5,33.5C 37.5,41.8333 37.5,50.1667 37.5,58.5C 36.1667,58.5 34.8333,58.5 33.5,58.5C 29.7262,44.3339 28.0595,44.3339 28.5,58.5C 26.8333,58.5 25.1667,58.5 23.5,58.5C 23.5,49.8333 23.5,41.1667 23.5,32.5C 25.1439,32.2865 26.6439,32.6198 28,33.5C 29.2714,36.4844 30.438,39.4844 31.5,42.5 Z"/></g>
<g><path style="opacity:1" fill="#eff5fc" d="M 55.5,57.5 C 54.0813,58.4511 52.4147,58.7845 50.5,58.5C 48.4013,50.6977 46.7346,50.6977 45.5,58.5C 43.8333,58.5 42.1667,58.5 40.5,58.5C 41.4443,54.0035 42.7776,49.6702 44.5,45.5C 43.7394,41.3114 42.4061,37.3114 40.5,33.5C 42.3529,32.2404 44.1862,32.2404 46,33.5C 47.7355,40.0537 49.2355,40.0537 50.5,33.5C 52.1667,32.1667 53.8333,32.1667 55.5,33.5C 53.8652,37.5711 52.5318,41.7378 51.5,46C 52.7379,49.8809 54.0712,53.7143 55.5,57.5 Z"/></g>
<g><path style="opacity:1" fill="#619ee9" d="M 33.5,58.5 C 34.8333,58.5 36.1667,58.5 37.5,58.5C 37.5,50.1667 37.5,41.8333 37.5,33.5C 36.1667,33.5 34.8333,33.5 33.5,33.5C 33.6653,37.1817 33.4986,40.8484 33,44.5C 32.2828,43.9558 31.7828,43.2891 31.5,42.5C 32.4794,39.3752 32.8128,36.0419 32.5,32.5C 34.5,32.5 36.5,32.5 38.5,32.5C 38.5,41.5 38.5,50.5 38.5,59.5C 36.5853,59.7845 34.9187,59.4511 33.5,58.5 Z"/></g>
<g><path style="opacity:1" fill="#73aaec" d="M 55.5,57.5 C 56.0431,57.56 56.3764,57.8933 56.5,58.5C 54.3635,59.7928 52.3635,59.7928 50.5,58.5C 52.4147,58.7845 54.0813,58.4511 55.5,57.5 Z"/></g>
</svg>
