<?xml version="1.0" encoding="UTF-8"?>
<!DOCTYPE svg PUBLIC "-//W3C//DTD SVG 1.1//EN" "http://www.w3.org/Graphics/SVG/1.1/DTD/svg11.dtd">
<svg xmlns="http://www.w3.org/2000/svg" version="1.1" width="96px" height="96px" style="shape-rendering:geometricPrecision; text-rendering:geometricPrecision; image-rendering:optimizeQuality; fill-rule:evenodd; clip-rule:evenodd" xmlns:xlink="http://www.w3.org/1999/xlink">
<g><path style="opacity:0.937" fill="#2f1830" d="M 41.5,31.5 C 40.8333,32.1667 40.1667,32.8333 39.5,33.5C 37.1944,33.9926 34.861,34.3259 32.5,34.5C 35.0836,32.5275 38.0836,31.5275 41.5,31.5 Z"/></g>
<g><path style="opacity:1" fill="#662763" d="M 41.5,31.5 C 44.7131,31.19 47.7131,31.5233 50.5,32.5C 48.4727,32.3379 46.4727,32.5045 44.5,33C 46.7078,33.1909 48.7078,33.6909 50.5,34.5C 49.8333,34.5 49.1667,34.5 48.5,34.5C 47.8333,34.5 47.1667,34.5 46.5,34.5C 45.5,34.5 44.5,34.5 43.5,34.5C 42.4324,33.5655 41.099,33.2322 39.5,33.5C 40.1667,32.8333 40.8333,32.1667 41.5,31.5 Z"/></g>
<g><path style="opacity:1" fill="#792677" d="M 50.5,32.5 C 52.4147,32.2155 54.0813,32.5489 55.5,33.5C 54.8333,33.8333 54.1667,34.1667 53.5,34.5C 52.5,34.5 51.5,34.5 50.5,34.5C 48.7078,33.6909 46.7078,33.1909 44.5,33C 46.4727,32.5045 48.4727,32.3379 50.5,32.5 Z"/></g>
<g><path style="opacity:0.937" fill="#2e172d" d="M 41.5,31.5 C 49.693,29.4927 57.3597,30.826 64.5,35.5C 63.5,35.5 62.5,35.5 61.5,35.5C 60.791,34.596 59.791,34.2627 58.5,34.5C 57.791,33.596 56.791,33.2627 55.5,33.5C 54.0813,32.5489 52.4147,32.2155 50.5,32.5C 47.7131,31.5233 44.7131,31.19 41.5,31.5 Z"/></g>
<g><path style="opacity:1" fill="#67256f" d="M 39.5,33.5 C 41.099,33.2322 42.4324,33.5655 43.5,34.5C 42.5084,34.3284 41.8417,34.6618 41.5,35.5C 41.1667,35.5 40.8333,35.5 40.5,35.5C 39.1667,35.8333 37.8333,36.1667 36.5,36.5C 35.2946,35.3143 33.9613,35.3143 32.5,36.5C 32.5,35.8333 32.5,35.1667 32.5,34.5C 34.861,34.3259 37.1944,33.9926 39.5,33.5 Z"/></g>
<g><path style="opacity:1" fill="#652d6d" d="M 55.5,33.5 C 56.791,33.2627 57.791,33.596 58.5,34.5C 56.3023,34.4088 55.9689,35.0755 57.5,36.5C 56.1667,36.1667 54.8333,35.8333 53.5,35.5C 53.5,35.1667 53.5,34.8333 53.5,34.5C 54.1667,34.1667 54.8333,33.8333 55.5,33.5 Z"/></g>
<g><path style="opacity:1" fill="#9b9c9b" d="M 41.5,35.5 C 41.8417,34.6618 42.5084,34.3284 43.5,34.5C 44.5,34.5 45.5,34.5 46.5,34.5C 46.5,37.8333 46.5,41.1667 46.5,44.5C 46.1667,44.5 45.8333,44.5 45.5,44.5C 45.5,41.5 45.5,38.5 45.5,35.5C 44.1667,35.5 42.8333,35.5 41.5,35.5 Z"/></g>
<g><path style="opacity:1" fill="#050605" d="M 46.5,34.5 C 47.1667,34.5 47.8333,34.5 48.5,34.5C 48.5,34.8333 48.5,35.1667 48.5,35.5C 47.8333,38.5 47.1667,41.5 46.5,44.5C 46.5,41.1667 46.5,37.8333 46.5,34.5 Z"/></g>
<g><path style="opacity:1" fill="#9b9a9a" d="M 48.5,34.5 C 49.1667,34.5 49.8333,34.5 50.5,34.5C 51.5,34.5 52.5,34.5 53.5,34.5C 53.5,34.8333 53.5,35.1667 53.5,35.5C 52.1667,35.5 50.8333,35.5 49.5,35.5C 49.5,38.5 49.5,41.5 49.5,44.5C 48.5233,41.7131 48.19,38.7131 48.5,35.5C 48.5,35.1667 48.5,34.8333 48.5,34.5 Z"/></g>
<g><path style="opacity:1" fill="#58246e" d="M 58.5,34.5 C 59.791,34.2627 60.791,34.596 61.5,35.5C 59.3023,35.4088 58.9689,36.0755 60.5,37.5C 59.391,37.4431 58.391,37.1098 57.5,36.5C 55.9689,35.0755 56.3023,34.4088 58.5,34.5 Z"/></g>
<g><path style="opacity:1" fill="#3a1d4c" d="M 32.5,34.5 C 32.5,35.1667 32.5,35.8333 32.5,36.5C 30.7697,37.0256 29.4363,38.0256 28.5,39.5C 27.8333,39.8333 27.1667,40.1667 26.5,40.5C 26.5,39.5 26.5,38.5 26.5,37.5C 28.2163,35.9752 30.2163,34.9752 32.5,34.5 Z"/></g>
<g><path style="opacity:1" fill="#acadab" d="M 40.5,35.5 C 41.5676,36.4345 42.901,36.7678 44.5,36.5C 44.1936,39.3854 44.5269,42.0521 45.5,44.5C 45.5,45.1667 45.1667,45.5 44.5,45.5C 44.1667,45.5 43.8333,45.5 43.5,45.5C 43.8016,42.9407 43.4682,40.6074 42.5,38.5C 40.1667,37.1667 37.8333,37.1667 35.5,38.5C 35.8333,37.8333 36.1667,37.1667 36.5,36.5C 37.8333,36.1667 39.1667,35.8333 40.5,35.5 Z"/></g>
<g><path style="opacity:1" fill="#bec2be" d="M 53.5,35.5 C 54.8333,35.8333 56.1667,36.1667 57.5,36.5C 56.3285,37.3446 54.9952,38.0113 53.5,38.5C 52.5,38.5 51.5,38.5 50.5,38.5C 51.0998,37.1001 52.0998,36.1001 53.5,35.5 Z"/></g>
<g><path style="opacity:1" fill="#371c47" d="M 61.5,35.5 C 62.5,35.5 63.5,35.5 64.5,35.5C 66.0618,35.7329 67.3951,36.3995 68.5,37.5C 68.5,38.5 68.5,39.5 68.5,40.5C 67.5,39.8333 66.5,39.1667 65.5,38.5C 64.1667,37.5 62.8333,36.5 61.5,35.5 Z"/></g>
<g><path style="opacity:1" fill="#4a1975" d="M 36.5,36.5 C 34.9382,36.7329 33.6049,37.3995 32.5,38.5C 31.391,38.5569 30.391,38.8902 29.5,39.5C 29.1667,39.5 28.8333,39.5 28.5,39.5C 29.4363,38.0256 30.7697,37.0256 32.5,36.5C 33.9613,35.3143 35.2946,35.3143 36.5,36.5 Z"/></g>
<g><path style="opacity:1" fill="#aaaca9" d="M 57.5,36.5 C 58.391,37.1098 59.391,37.4431 60.5,37.5C 61.1667,37.5 61.5,37.8333 61.5,38.5C 59.7085,38.366 58.0418,38.6993 56.5,39.5C 55.8333,39.5 55.1667,39.5 54.5,39.5C 54.1667,39.5 53.8333,39.5 53.5,39.5C 53.5,39.1667 53.5,38.8333 53.5,38.5C 54.9952,38.0113 56.3285,37.3446 57.5,36.5 Z"/></g>
<g><path style="opacity:1" fill="#471d73" d="M 61.5,35.5 C 62.8333,36.5 64.1667,37.5 65.5,38.5C 64.8333,38.5 64.5,38.8333 64.5,39.5C 63.609,38.8902 62.609,38.5569 61.5,38.5C 61.5,37.8333 61.1667,37.5 60.5,37.5C 58.9689,36.0755 59.3023,35.4088 61.5,35.5 Z"/></g>
<g><path style="opacity:1" fill="#a2a2a2" d="M 42.5,38.5 C 40.8333,39.1667 39.1667,39.8333 37.5,40.5C 36.8333,40.5 36.1667,40.5 35.5,40.5C 34.8333,40.5 34.1667,40.5 33.5,40.5C 34.1667,39.8333 34.8333,39.1667 35.5,38.5C 37.8333,37.1667 40.1667,37.1667 42.5,38.5 Z"/></g>
<g><path style="opacity:1" fill="#919290" d="M 61.5,38.5 C 62.609,38.5569 63.609,38.8902 64.5,39.5C 65.1667,39.5 65.5,39.8333 65.5,40.5C 64.7611,40.369 64.0944,40.5357 63.5,41C 64.5707,41.8518 65.5707,42.6851 66.5,43.5C 65.8333,43.5 65.1667,43.5 64.5,43.5C 63.391,43.4431 62.391,43.1098 61.5,42.5C 59.7392,41.6873 58.0725,40.6873 56.5,39.5C 58.0418,38.6993 59.7085,38.366 61.5,38.5 Z"/></g>
<g><path style="opacity:1" fill="#2f1063" d="M 64.5,39.5 C 64.5,38.8333 64.8333,38.5 65.5,38.5C 66.5,39.1667 67.5,39.8333 68.5,40.5C 69.5,40.8333 70.1667,41.5 70.5,42.5C 69.8333,42.5 69.5,42.8333 69.5,43.5C 68.1667,42.5 66.8333,41.5 65.5,40.5C 65.5,39.8333 65.1667,39.5 64.5,39.5 Z"/></g>
<g><path style="opacity:1" fill="#2c1b3c" d="M 26.5,37.5 C 26.5,38.5 26.5,39.5 26.5,40.5C 25.1667,41.1667 24.1667,42.1667 23.5,43.5C 22.5,43.5 21.5,43.5 20.5,43.5C 22.1667,41.1667 24.1667,39.1667 26.5,37.5 Z"/></g>
<g><path style="opacity:1" fill="#a0a29d" d="M 36.5,36.5 C 36.1667,37.1667 35.8333,37.8333 35.5,38.5C 34.8333,39.1667 34.1667,39.8333 33.5,40.5C 31.3023,40.5912 30.9689,39.9245 32.5,38.5C 33.6049,37.3995 34.9382,36.7329 36.5,36.5 Z"/></g>
<g><path style="opacity:1" fill="#232323" d="M 42.5,38.5 C 43.4682,40.6074 43.8016,42.9407 43.5,45.5C 42.9987,43.754 42.3321,42.754 41.5,42.5C 40.1667,41.8333 38.8333,41.1667 37.5,40.5C 39.1667,39.8333 40.8333,39.1667 42.5,38.5 Z"/></g>
<g><path style="opacity:1" fill="#d9dbd9" d="M 40.5,35.5 C 40.8333,35.5 41.1667,35.5 41.5,35.5C 42.8333,35.5 44.1667,35.5 45.5,35.5C 45.5,38.5 45.5,41.5 45.5,44.5C 44.5269,42.0521 44.1936,39.3854 44.5,36.5C 42.901,36.7678 41.5676,36.4345 40.5,35.5 Z"/></g>
<g><path style="opacity:1" fill="#d7d9d7" d="M 53.5,35.5 C 52.0998,36.1001 51.0998,37.1001 50.5,38.5C 50.7947,40.7354 50.4614,42.7354 49.5,44.5C 49.5,41.5 49.5,38.5 49.5,35.5C 50.8333,35.5 52.1667,35.5 53.5,35.5 Z"/></g>
<g><path style="opacity:1" fill="#6e6e6e" d="M 50.5,38.5 C 51.5,38.5 52.5,38.5 53.5,38.5C 53.5,38.8333 53.5,39.1667 53.5,39.5C 52.1667,41.5 50.8333,43.5 49.5,45.5C 49.5,45.1667 49.5,44.8333 49.5,44.5C 50.4614,42.7354 50.7947,40.7354 50.5,38.5 Z"/></g>
<g><path style="opacity:1" fill="#030303" d="M 53.5,39.5 C 53.8333,39.5 54.1667,39.5 54.5,39.5C 53.9094,40.1515 53.2427,40.8182 52.5,41.5C 52.9569,42.2975 53.6236,42.6309 54.5,42.5C 53.9094,43.1515 53.2427,43.8182 52.5,44.5C 52.6236,45.1067 52.9569,45.44 53.5,45.5C 52.4479,47.256 50.7812,47.9227 48.5,47.5C 48.8333,46.8333 49.1667,46.1667 49.5,45.5C 50.8333,43.5 52.1667,41.5 53.5,39.5 Z"/></g>
<g><path style="opacity:1" fill="#2b1b3a" d="M 68.5,37.5 C 70.8333,39.1667 72.8333,41.1667 74.5,43.5C 73.8333,43.5 73.1667,43.5 72.5,43.5C 71.8333,43.1667 71.1667,42.8333 70.5,42.5C 70.1667,41.5 69.5,40.8333 68.5,40.5C 68.5,39.5 68.5,38.5 68.5,37.5 Z"/></g>
<g><path style="opacity:1" fill="#8d8e8b" d="M 32.5,38.5 C 30.9689,39.9245 31.3023,40.5912 33.5,40.5C 34.1667,40.5 34.8333,40.5 35.5,40.5C 35.5,41.1667 35.1667,41.5 34.5,41.5C 31.6067,41.0311 29.6067,42.0311 28.5,44.5C 27.5041,44.4142 26.6708,44.7476 26,45.5C 25.5357,44.9056 25.369,44.2389 25.5,43.5C 27.1667,42.5 28.5,41.1667 29.5,39.5C 30.391,38.8902 31.391,38.5569 32.5,38.5 Z"/></g>
<g><path style="opacity:1" fill="#202020" d="M 54.5,39.5 C 55.1667,39.5 55.8333,39.5 56.5,39.5C 58.0725,40.6873 59.7392,41.6873 61.5,42.5C 60.8333,42.8333 60.1667,43.1667 59.5,43.5C 58.791,42.596 57.791,42.2627 56.5,42.5C 55.8333,42.5 55.1667,42.5 54.5,42.5C 53.6236,42.6309 52.9569,42.2975 52.5,41.5C 53.2427,40.8182 53.9094,40.1515 54.5,39.5 Z"/></g>
<g><path style="opacity:1" fill="#92948d" d="M 65.5,40.5 C 66.8333,41.5 68.1667,42.5 69.5,43.5C 69.5,44.1667 69.5,44.8333 69.5,45.5C 68.5,44.8333 67.5,44.1667 66.5,43.5C 65.5707,42.6851 64.5707,41.8518 63.5,41C 64.0944,40.5357 64.7611,40.369 65.5,40.5 Z"/></g>
<g><path style="opacity:1" fill="#280c61" d="M 28.5,39.5 C 28.8333,39.5 29.1667,39.5 29.5,39.5C 28.5,41.1667 27.1667,42.5 25.5,43.5C 24.6618,43.8417 24.3284,44.5084 24.5,45.5C 23.0937,45.9731 22.427,46.9731 22.5,48.5C 21.5798,49.0674 21.2465,48.4008 21.5,46.5C 22.1667,45.5 22.8333,44.5 23.5,43.5C 24.1667,42.1667 25.1667,41.1667 26.5,40.5C 27.1667,40.1667 27.8333,39.8333 28.5,39.5 Z"/></g>
<g><path style="opacity:1" fill="#777777" d="M 34.5,41.5 C 34.5,41.8333 34.5,42.1667 34.5,42.5C 32.2163,42.9752 30.2163,43.9752 28.5,45.5C 28.5,45.1667 28.5,44.8333 28.5,44.5C 29.6067,42.0311 31.6067,41.0311 34.5,41.5 Z"/></g>
<g><path style="opacity:1" fill="#090909" d="M 35.5,40.5 C 36.1667,40.5 36.8333,40.5 37.5,40.5C 38.8333,41.1667 40.1667,41.8333 41.5,42.5C 40.791,43.404 39.791,43.7373 38.5,43.5C 37.4324,42.5655 36.099,42.2322 34.5,42.5C 34.5,42.1667 34.5,41.8333 34.5,41.5C 35.1667,41.5 35.5,41.1667 35.5,40.5 Z"/></g>
<g><path style="opacity:1" fill="#0b0a0b" d="M 48.5,35.5 C 48.19,38.7131 48.5233,41.7131 49.5,44.5C 49.5,44.8333 49.5,45.1667 49.5,45.5C 49.1667,46.1667 48.8333,46.8333 48.5,47.5C 47.8333,47.5 47.1667,47.5 46.5,47.5C 44.5,47.5 42.5,47.5 40.5,47.5C 40.5,47.1667 40.5,46.8333 40.5,46.5C 42.099,46.7678 43.4324,46.4345 44.5,45.5C 45.1667,45.5 45.5,45.1667 45.5,44.5C 45.8333,44.5 46.1667,44.5 46.5,44.5C 47.1667,41.5 47.8333,38.5 48.5,35.5 Z"/></g>
<g><path style="opacity:1" fill="#0f0f0f" d="M 34.5,42.5 C 34.5,43.8333 34.5,45.1667 34.5,46.5C 33.375,47.3478 33.375,48.3478 34.5,49.5C 33.5,49.5 32.5,49.5 31.5,49.5C 31.5,49.1667 31.5,48.8333 31.5,48.5C 31.5,47.1667 30.8333,46.5 29.5,46.5C 29.1667,46.5 28.8333,46.5 28.5,46.5C 28.5,46.1667 28.5,45.8333 28.5,45.5C 30.2163,43.9752 32.2163,42.9752 34.5,42.5 Z"/></g>
<g><path style="opacity:1" fill="#111111" d="M 54.5,42.5 C 55.1667,42.5 55.8333,42.5 56.5,42.5C 56.5,43.8333 56.5,45.1667 56.5,46.5C 56.1667,46.5 55.8333,46.5 55.5,46.5C 55.1583,45.6618 54.4916,45.3284 53.5,45.5C 52.9569,45.44 52.6236,45.1067 52.5,44.5C 53.2427,43.8182 53.9094,43.1515 54.5,42.5 Z"/></g>
<g><path style="opacity:1" fill="#24096b" d="M 69.5,43.5 C 69.5,42.8333 69.8333,42.5 70.5,42.5C 71.1667,42.8333 71.8333,43.1667 72.5,43.5C 72.5569,44.609 72.8902,45.609 73.5,46.5C 73.7535,48.4008 73.4202,49.0674 72.5,48.5C 72.2503,46.326 71.2503,44.6594 69.5,43.5 Z"/></g>
<g><path style="opacity:1" fill="#696969" d="M 34.5,42.5 C 36.099,42.2322 37.4324,42.5655 38.5,43.5C 38.1667,43.5 37.8333,43.5 37.5,43.5C 36.1667,43.5 35.5,44.1667 35.5,45.5C 35.5,46.1667 35.1667,46.5 34.5,46.5C 34.5,45.1667 34.5,43.8333 34.5,42.5 Z"/></g>
<g><path style="opacity:1" fill="#101010" d="M 43.5,45.5 C 43.8333,45.5 44.1667,45.5 44.5,45.5C 43.4324,46.4345 42.099,46.7678 40.5,46.5C 39.791,45.596 38.791,45.2627 37.5,45.5C 37.5,44.8333 37.5,44.1667 37.5,43.5C 37.8333,43.5 38.1667,43.5 38.5,43.5C 39.791,43.7373 40.791,43.404 41.5,42.5C 42.3321,42.754 42.9987,43.754 43.5,45.5 Z"/></g>
<g><path style="opacity:1" fill="#9c9c9c" d="M 56.5,42.5 C 57.791,42.2627 58.791,42.596 59.5,43.5C 59.5,44.1667 59.5,44.8333 59.5,45.5C 59.1667,45.5 58.8333,45.5 58.5,45.5C 57.8333,45.8333 57.1667,46.1667 56.5,46.5C 56.5,45.1667 56.5,43.8333 56.5,42.5 Z"/></g>
<g><path style="opacity:1" fill="#7c7c7c" d="M 25.5,43.5 C 25.369,44.2389 25.5357,44.9056 26,45.5C 26.6708,44.7476 27.5041,44.4142 28.5,44.5C 28.5,44.8333 28.5,45.1667 28.5,45.5C 28.5,45.8333 28.5,46.1667 28.5,46.5C 27.6618,46.8417 27.3284,47.5084 27.5,48.5C 26.391,48.5569 25.391,48.8902 24.5,49.5C 24.5,48.1667 24.5,46.8333 24.5,45.5C 24.3284,44.5084 24.6618,43.8417 25.5,43.5 Z"/></g>
<g><path style="opacity:1" fill="#eaeaea" d="M 37.5,43.5 C 37.5,44.1667 37.5,44.8333 37.5,45.5C 37.1667,45.5 36.8333,45.5 36.5,45.5C 36.1667,45.5 35.8333,45.5 35.5,45.5C 35.5,44.1667 36.1667,43.5 37.5,43.5 Z"/></g>
<g><path style="opacity:1" fill="#0a0a0a" d="M 61.5,42.5 C 62.391,43.1098 63.391,43.4431 64.5,43.5C 65.1667,44.5 65.8333,45.5 66.5,46.5C 66.1667,46.5 65.8333,46.5 65.5,46.5C 64.5,46.5 63.5,46.5 62.5,46.5C 62.1959,44.2043 61.1959,43.871 59.5,45.5C 59.5,44.8333 59.5,44.1667 59.5,43.5C 60.1667,43.1667 60.8333,42.8333 61.5,42.5 Z"/></g>
<g><path style="opacity:1" fill="#828282" d="M 64.5,43.5 C 65.1667,43.5 65.8333,43.5 66.5,43.5C 67.5,44.1667 68.5,44.8333 69.5,45.5C 70.404,46.209 70.7373,47.209 70.5,48.5C 69.2616,48.0732 68.2616,48.0732 67.5,48.5C 67.6716,47.5084 67.3382,46.8417 66.5,46.5C 65.8333,45.5 65.1667,44.5 64.5,43.5 Z"/></g>
<g><path style="opacity:1" fill="#2a1b41" d="M 72.5,43.5 C 73.1667,43.5 73.8333,43.5 74.5,43.5C 75.6651,44.4961 76.3318,45.8295 76.5,47.5C 75.1986,52.4114 73.532,57.0781 71.5,61.5C 71.5,60.1667 71.5,58.8333 71.5,57.5C 71.9083,54.275 72.9083,51.275 74.5,48.5C 74.4573,47.5836 74.1239,46.9169 73.5,46.5C 72.8902,45.609 72.5569,44.609 72.5,43.5 Z"/></g>
<g><path style="opacity:1" fill="#0a0a0a" d="M 35.5,45.5 C 35.8333,45.5 36.1667,45.5 36.5,45.5C 37.2625,46.2679 38.2625,46.7679 39.5,47C 37.6412,47.6008 37.3079,48.4341 38.5,49.5C 38.5,49.8333 38.5,50.1667 38.5,50.5C 38.1667,50.5 37.8333,50.5 37.5,50.5C 36.5116,49.205 35.5116,47.8717 34.5,46.5C 35.1667,46.5 35.5,46.1667 35.5,45.5 Z"/></g>
<g><path style="opacity:1" fill="#0f0f0f" d="M 58.5,45.5 C 58.8333,46.1667 59.1667,46.8333 59.5,47.5C 58.6618,47.8417 58.3284,48.5084 58.5,49.5C 57.8333,49.5 57.1667,49.5 56.5,49.5C 56.5,49.1667 56.5,48.8333 56.5,48.5C 56.1667,47.8333 55.8333,47.1667 55.5,46.5C 55.8333,46.5 56.1667,46.5 56.5,46.5C 57.1667,46.1667 57.8333,45.8333 58.5,45.5 Z"/></g>
<g><path style="opacity:1" fill="#242424" d="M 62.5,46.5 C 61.8485,47.0906 61.1818,47.7573 60.5,48.5C 59.8933,48.3764 59.56,48.0431 59.5,47.5C 59.1667,46.8333 58.8333,46.1667 58.5,45.5C 58.8333,45.5 59.1667,45.5 59.5,45.5C 61.1959,43.871 62.1959,44.2043 62.5,46.5 Z"/></g>
<g><path style="opacity:1" fill="#8a8a8a" d="M 29.5,46.5 C 30.8333,46.5 31.5,47.1667 31.5,48.5C 30.1667,48.5 29.5,47.8333 29.5,46.5 Z"/></g>
<g><path style="opacity:1" fill="#3c3c3c" d="M 36.5,45.5 C 36.8333,45.5 37.1667,45.5 37.5,45.5C 38.791,45.2627 39.791,45.596 40.5,46.5C 40.5,46.8333 40.5,47.1667 40.5,47.5C 40.5,47.8333 40.5,48.1667 40.5,48.5C 39.5084,48.3284 38.8417,48.6618 38.5,49.5C 37.3079,48.4341 37.6412,47.6008 39.5,47C 38.2625,46.7679 37.2625,46.2679 36.5,45.5 Z"/></g>
<g><path style="opacity:1" fill="#4a4b4b" d="M 40.5,48.5 C 40.5,48.1667 40.5,47.8333 40.5,47.5C 42.5,47.5 44.5,47.5 46.5,47.5C 46.7678,49.099 46.4345,50.4324 45.5,51.5C 45.5,50.5 45.5,49.5 45.5,48.5C 43.8333,48.5 42.1667,48.5 40.5,48.5 Z"/></g>
<g><path style="opacity:1" fill="#494949" d="M 53.5,45.5 C 54.4916,45.3284 55.1583,45.6618 55.5,46.5C 55.8333,47.1667 56.1667,47.8333 56.5,48.5C 54.1667,48.5 51.8333,48.5 49.5,48.5C 49.5,49.5 49.5,50.5 49.5,51.5C 48.5655,50.4324 48.2322,49.099 48.5,47.5C 50.7812,47.9227 52.4479,47.256 53.5,45.5 Z"/></g>
<g><path style="opacity:1" fill="#606060" d="M 62.5,46.5 C 63.5,46.5 64.5,46.5 65.5,46.5C 65.5,47.1667 65.5,47.8333 65.5,48.5C 63.8212,48.7148 62.8212,48.0481 62.5,46.5 Z"/></g>
<g><path style="opacity:0.949" fill="#2b1a44" d="M 20.5,43.5 C 21.5,43.5 22.5,43.5 23.5,43.5C 22.8333,44.5 22.1667,45.5 21.5,46.5C 20.8333,47.5 20.1667,48.5 19.5,49.5C 18.2056,47.32 18.5389,45.32 20.5,43.5 Z"/></g>
<g><path style="opacity:1" fill="#252525" d="M 34.5,46.5 C 35.5116,47.8717 36.5116,49.205 37.5,50.5C 37.5386,51.7562 37.0386,52.7562 36,53.5C 35.79,51.9419 35.29,50.6085 34.5,49.5C 33.375,48.3478 33.375,47.3478 34.5,46.5 Z"/></g>
<g><path style="opacity:1" fill="#aeaeae" d="M 38.5,49.5 C 38.8417,48.6618 39.5084,48.3284 40.5,48.5C 42.1667,48.5 43.8333,48.5 45.5,48.5C 45.5,49.5 45.5,50.5 45.5,51.5C 43.5441,49.8516 41.2108,49.1849 38.5,49.5 Z"/></g>
<g><path style="opacity:1" fill="#090908" d="M 46.5,47.5 C 47.1667,47.5 47.8333,47.5 48.5,47.5C 48.2322,49.099 48.5655,50.4324 49.5,51.5C 49.5,51.8333 49.5,52.1667 49.5,52.5C 48.1667,52.5 46.8333,52.5 45.5,52.5C 45.5,52.1667 45.5,51.8333 45.5,51.5C 46.4345,50.4324 46.7678,49.099 46.5,47.5 Z"/></g>
<g><path style="opacity:1" fill="#131313" d="M 62.5,46.5 C 62.8212,48.0481 63.8212,48.7148 65.5,48.5C 64.7095,49.4013 63.7095,50.0679 62.5,50.5C 61.791,49.596 60.791,49.2627 59.5,49.5C 59.1667,49.5 58.8333,49.5 58.5,49.5C 58.3284,48.5084 58.6618,47.8417 59.5,47.5C 59.56,48.0431 59.8933,48.3764 60.5,48.5C 61.1818,47.7573 61.8485,47.0906 62.5,46.5 Z"/></g>
<g><path style="opacity:1" fill="#2c2e27" d="M 24.5,45.5 C 24.5,46.8333 24.5,48.1667 24.5,49.5C 25.1667,50.8333 25.8333,52.1667 26.5,53.5C 25.8333,53.5 25.1667,53.5 24.5,53.5C 24.4431,52.391 24.1098,51.391 23.5,50.5C 23.6716,49.5084 23.3382,48.8417 22.5,48.5C 22.427,46.9731 23.0937,45.9731 24.5,45.5 Z"/></g>
<g><path style="opacity:1" fill="#747474" d="M 27.5,48.5 C 28.1667,48.5 28.5,48.8333 28.5,49.5C 27.7611,49.369 27.0944,49.5357 26.5,50C 27.3805,50.7083 28.0472,51.5416 28.5,52.5C 28.1583,53.3382 27.4916,53.6716 26.5,53.5C 25.8333,52.1667 25.1667,50.8333 24.5,49.5C 25.391,48.8902 26.391,48.5569 27.5,48.5 Z"/></g>
<g><path style="opacity:1" fill="#777777" d="M 28.5,49.5 C 29.9108,51.914 31.9108,53.5806 34.5,54.5C 34.5,54.8333 34.5,55.1667 34.5,55.5C 33.0413,55.5674 31.7079,55.2341 30.5,54.5C 30.1667,53.5 29.5,52.8333 28.5,52.5C 28.0472,51.5416 27.3805,50.7083 26.5,50C 27.0944,49.5357 27.7611,49.369 28.5,49.5 Z"/></g>
<g><path style="opacity:1" fill="#121212" d="M 28.5,46.5 C 28.8333,46.5 29.1667,46.5 29.5,46.5C 29.5,47.8333 30.1667,48.5 31.5,48.5C 31.5,48.8333 31.5,49.1667 31.5,49.5C 32.5,53.5 33.5,53.5 34.5,49.5C 35.29,50.6085 35.79,51.9419 36,53.5C 37.0386,52.7562 37.5386,51.7562 37.5,50.5C 37.8333,50.5 38.1667,50.5 38.5,50.5C 39.3764,50.3691 40.0431,50.7025 40.5,51.5C 39.8075,52.5178 39.1408,53.5178 38.5,54.5C 37.1667,54.5 35.8333,54.5 34.5,54.5C 31.9108,53.5806 29.9108,51.914 28.5,49.5C 28.5,48.8333 28.1667,48.5 27.5,48.5C 27.3284,47.5084 27.6618,46.8417 28.5,46.5 Z"/></g>
<g><path style="opacity:1" fill="#0a0a0a" d="M 65.5,46.5 C 65.8333,46.5 66.1667,46.5 66.5,46.5C 67.3382,46.8417 67.6716,47.5084 67.5,48.5C 66.5987,49.2905 65.9321,50.2905 65.5,51.5C 64.3951,52.6005 63.0618,53.2671 61.5,53.5C 60.5084,53.6716 59.8417,53.3382 59.5,52.5C 61.1788,52.7148 62.1788,52.0481 62.5,50.5C 63.7095,50.0679 64.7095,49.4013 65.5,48.5C 65.5,47.8333 65.5,47.1667 65.5,46.5 Z"/></g>
<g><path style="opacity:1" fill="#2a1155" d="M 21.5,46.5 C 21.2465,48.4008 21.5798,49.0674 22.5,48.5C 23.3382,48.8417 23.6716,49.5084 23.5,50.5C 22.596,51.209 22.2627,52.209 22.5,53.5C 21.8999,52.0998 20.8999,51.0998 19.5,50.5C 19.5,50.1667 19.5,49.8333 19.5,49.5C 20.1667,48.5 20.8333,47.5 21.5,46.5 Z"/></g>
<g><path style="opacity:1" fill="#979797" d="M 31.5,49.5 C 32.5,49.5 33.5,49.5 34.5,49.5C 33.5,53.5 32.5,53.5 31.5,49.5 Z"/></g>
<g><path style="opacity:1" fill="#ababab" d="M 56.5,48.5 C 56.5,48.8333 56.5,49.1667 56.5,49.5C 54.5,49.5 52.5,49.5 50.5,49.5C 50.5,50.5 50.5,51.5 50.5,52.5C 50.1667,52.5 49.8333,52.5 49.5,52.5C 49.5,52.1667 49.5,51.8333 49.5,51.5C 49.5,50.5 49.5,49.5 49.5,48.5C 51.8333,48.5 54.1667,48.5 56.5,48.5 Z"/></g>
<g><path style="opacity:1" fill="#878787" d="M 56.5,49.5 C 54.5069,50.4716 54.1736,51.8049 55.5,53.5C 55.5,54.1667 55.1667,54.5 54.5,54.5C 54.2172,53.7109 53.7172,53.0442 53,52.5C 52.2303,53.5981 51.397,53.5981 50.5,52.5C 50.5,51.5 50.5,50.5 50.5,49.5C 52.5,49.5 54.5,49.5 56.5,49.5 Z"/></g>
<g><path style="opacity:1" fill="#777777" d="M 70.5,48.5 C 70.1075,50.2838 69.4408,51.9505 68.5,53.5C 68.1667,53.5 67.8333,53.5 67.5,53.5C 66.5,53.1667 65.8333,52.5 65.5,51.5C 65.9321,50.2905 66.5987,49.2905 67.5,48.5C 68.2616,48.0732 69.2616,48.0732 70.5,48.5 Z"/></g>
<g><path style="opacity:1" fill="#848585" d="M 38.5,50.5 C 38.5,50.1667 38.5,49.8333 38.5,49.5C 41.2108,49.1849 43.5441,49.8516 45.5,51.5C 45.5,51.8333 45.5,52.1667 45.5,52.5C 45.5,53.1667 45.1667,53.5 44.5,53.5C 41.6675,52.0184 40.6675,52.685 41.5,55.5C 40.209,55.7373 39.209,55.404 38.5,54.5C 39.1408,53.5178 39.8075,52.5178 40.5,51.5C 40.0431,50.7025 39.3764,50.3691 38.5,50.5 Z"/></g>
<g><path style="opacity:1" fill="#767676" d="M 59.5,49.5 C 60.791,49.2627 61.791,49.596 62.5,50.5C 62.1788,52.0481 61.1788,52.7148 59.5,52.5C 59.5,51.5 59.5,50.5 59.5,49.5 Z"/></g>
<g><path style="opacity:1" fill="#666566" d="M 28.5,52.5 C 29.5,52.8333 30.1667,53.5 30.5,54.5C 29.4937,54.9377 29.4937,55.6043 30.5,56.5C 28.5956,56.2624 27.2623,55.2624 26.5,53.5C 27.4916,53.6716 28.1583,53.3382 28.5,52.5 Z"/></g>
<g><path style="opacity:1" fill="#5e5f5e" d="M 44.5,53.5 C 43.3995,54.6049 42.7329,55.9382 42.5,57.5C 42.1667,57.5 41.8333,57.5 41.5,57.5C 41.5,56.8333 41.5,56.1667 41.5,55.5C 40.6675,52.685 41.6675,52.0184 44.5,53.5 Z"/></g>
<g><path style="opacity:1" fill="#962973" d="M 45.5,52.5 C 46.8333,52.5 48.1667,52.5 49.5,52.5C 50.5,54.1667 51.8333,55.5 53.5,56.5C 53.5,56.8333 53.5,57.1667 53.5,57.5C 52.8333,57.5 52.5,57.8333 52.5,58.5C 51.5,57.8333 50.5,57.1667 49.5,56.5C 47.1853,53.8112 45.1853,54.1445 43.5,57.5C 43.1667,57.5 42.8333,57.5 42.5,57.5C 42.7329,55.9382 43.3995,54.6049 44.5,53.5C 45.1667,53.5 45.5,53.1667 45.5,52.5 Z"/></g>
<g><path style="opacity:1" fill="#6f7570" d="M 49.5,52.5 C 49.8333,52.5 50.1667,52.5 50.5,52.5C 51.397,53.5981 52.2303,53.5981 53,52.5C 53.7172,53.0442 54.2172,53.7109 54.5,54.5C 53.6618,54.8417 53.3284,55.5084 53.5,56.5C 51.8333,55.5 50.5,54.1667 49.5,52.5 Z"/></g>
<g><path style="opacity:1" fill="#707070" d="M 65.5,51.5 C 65.8333,52.5 66.5,53.1667 67.5,53.5C 66.1979,55.8218 64.1979,57.1551 61.5,57.5C 60.4097,56.1429 59.0764,55.1429 57.5,54.5C 59.099,54.7678 60.4324,54.4345 61.5,53.5C 63.0618,53.2671 64.3951,52.6005 65.5,51.5 Z"/></g>
<g><path style="opacity:1" fill="#270f5e" d="M 73.5,46.5 C 74.1239,46.9169 74.4573,47.5836 74.5,48.5C 72.9083,51.275 71.9083,54.275 71.5,57.5C 71.1667,57.5 70.8333,57.5 70.5,57.5C 70.5,56.8333 70.1667,56.5 69.5,56.5C 70.129,53.6027 71.129,50.936 72.5,48.5C 73.4202,49.0674 73.7535,48.4008 73.5,46.5 Z"/></g>
<g><path style="opacity:1" fill="#1a1b18" d="M 24.5,53.5 C 25.1667,53.5 25.8333,53.5 26.5,53.5C 27.2623,55.2624 28.5956,56.2624 30.5,56.5C 30.5,57.1667 30.8333,57.5 31.5,57.5C 34.2869,58.4767 37.2869,58.81 40.5,58.5C 40.0269,59.9063 39.0269,60.573 37.5,60.5C 33.2961,59.9832 29.2961,58.6499 25.5,56.5C 25.4431,55.391 25.1098,54.391 24.5,53.5 Z"/></g>
<g><path style="opacity:1" fill="#161616" d="M 56.5,49.5 C 57.1667,49.5 57.8333,49.5 58.5,49.5C 58.8333,49.5 59.1667,49.5 59.5,49.5C 59.5,50.5 59.5,51.5 59.5,52.5C 59.8417,53.3382 60.5084,53.6716 61.5,53.5C 60.4324,54.4345 59.099,54.7678 57.5,54.5C 56.8333,54.1667 56.1667,53.8333 55.5,53.5C 54.1736,51.8049 54.5069,50.4716 56.5,49.5 Z"/></g>
<g><path style="opacity:1" fill="#222220" d="M 69.5,43.5 C 71.2503,44.6594 72.2503,46.326 72.5,48.5C 71.129,50.936 70.129,53.6027 69.5,56.5C 68.8333,56.5 68.1667,56.5 67.5,56.5C 68.1098,55.609 68.4431,54.609 68.5,53.5C 69.4408,51.9505 70.1075,50.2838 70.5,48.5C 70.7373,47.209 70.404,46.209 69.5,45.5C 69.5,44.8333 69.5,44.1667 69.5,43.5 Z"/></g>
<g><path style="opacity:1" fill="#2c125c" d="M 23.5,50.5 C 24.1098,51.391 24.4431,52.391 24.5,53.5C 25.1098,54.391 25.4431,55.391 25.5,56.5C 24.3143,57.7054 24.3143,59.0387 25.5,60.5C 25.1583,61.3382 24.4916,61.6716 23.5,61.5C 23.4249,58.7938 23.0916,56.1272 22.5,53.5C 22.2627,52.209 22.596,51.209 23.5,50.5 Z"/></g>
<g><path style="opacity:1" fill="#737373" d="M 30.5,54.5 C 31.7079,55.2341 33.0413,55.5674 34.5,55.5C 35.675,55.281 36.675,55.6143 37.5,56.5C 35.604,57.4656 33.604,57.7989 31.5,57.5C 30.8333,57.5 30.5,57.1667 30.5,56.5C 29.4937,55.6043 29.4937,54.9377 30.5,54.5 Z"/></g>
<g><path style="opacity:1" fill="#5f605f" d="M 34.5,55.5 C 34.5,55.1667 34.5,54.8333 34.5,54.5C 35.8333,54.5 37.1667,54.5 38.5,54.5C 39.209,55.404 40.209,55.7373 41.5,55.5C 41.5,56.1667 41.5,56.8333 41.5,57.5C 41.5,58.1667 41.1667,58.5 40.5,58.5C 37.2869,58.81 34.2869,58.4767 31.5,57.5C 33.604,57.7989 35.604,57.4656 37.5,56.5C 36.675,55.6143 35.675,55.281 34.5,55.5 Z"/></g>
<g><path style="opacity:1" fill="#727372" d="M 55.5,53.5 C 56.1667,53.8333 56.8333,54.1667 57.5,54.5C 59.0764,55.1429 60.4097,56.1429 61.5,57.5C 61.5,57.8333 61.5,58.1667 61.5,58.5C 58.7628,58.5987 56.0961,58.2653 53.5,57.5C 53.5,57.1667 53.5,56.8333 53.5,56.5C 53.3284,55.5084 53.6618,54.8417 54.5,54.5C 55.1667,54.5 55.5,54.1667 55.5,53.5 Z"/></g>
<g><path style="opacity:1" fill="#242524" d="M 67.5,53.5 C 67.8333,53.5 68.1667,53.5 68.5,53.5C 68.4431,54.609 68.1098,55.609 67.5,56.5C 66.8333,57.8333 65.8333,58.8333 64.5,59.5C 63.791,58.596 62.791,58.2627 61.5,58.5C 61.5,58.1667 61.5,57.8333 61.5,57.5C 64.1979,57.1551 66.1979,55.8218 67.5,53.5 Z"/></g>
<g><path style="opacity:0.965" fill="#261b3c" d="M 19.5,50.5 C 20.8999,51.0998 21.8999,52.0998 22.5,53.5C 23.0916,56.1272 23.4249,58.7938 23.5,61.5C 21.7957,58.0615 20.4624,54.3948 19.5,50.5 Z"/></g>
<g><path style="opacity:0.059" fill="#111014" d="M 49.5,56.5 C 50.5,57.1667 51.5,57.8333 52.5,58.5C 53.1667,59.8333 54.1667,60.8333 55.5,61.5C 55.5,61.8333 55.5,62.1667 55.5,62.5C 55.5,62.8333 55.5,63.1667 55.5,63.5C 52.7573,61.7607 50.7573,59.4274 49.5,56.5 Z"/></g>
<g><path style="opacity:1" fill="#280d6c" d="M 25.5,56.5 C 25.9666,59.2974 27.6333,60.6308 30.5,60.5C 30.5,60.8333 30.5,61.1667 30.5,61.5C 28.7085,61.634 27.0418,61.3007 25.5,60.5C 24.3143,59.0387 24.3143,57.7054 25.5,56.5 Z"/></g>
<g><path style="opacity:0.043" fill="#120e12" d="M 49.5,56.5 C 48.1266,56.3433 46.7932,56.51 45.5,57C 44.0016,59.6637 42.0016,61.8304 39.5,63.5C 39.5,63.1667 39.5,62.8333 39.5,62.5C 40.8333,60.8333 42.1667,59.1667 43.5,57.5C 45.1853,54.1445 47.1853,53.8112 49.5,56.5 Z"/></g>
<g><path style="opacity:1" fill="#23271e" d="M 53.5,57.5 C 56.0961,58.2653 58.7628,58.5987 61.5,58.5C 62.791,58.2627 63.791,58.596 64.5,59.5C 61.5,59.5 58.5,59.5 55.5,59.5C 54.5,59.1667 53.8333,58.5 53.5,57.5 Z"/></g>
<g><path style="opacity:1" fill="#26163f" d="M 67.5,56.5 C 68.1667,56.5 68.8333,56.5 69.5,56.5C 69.0334,59.2974 67.3667,60.6308 64.5,60.5C 61.2869,60.81 58.2869,60.4767 55.5,59.5C 58.5,59.5 61.5,59.5 64.5,59.5C 65.8333,58.8333 66.8333,57.8333 67.5,56.5 Z"/></g>
<g><path style="opacity:1" fill="#23143b" d="M 25.5,56.5 C 29.2961,58.6499 33.2961,59.9832 37.5,60.5C 35.1667,60.5 32.8333,60.5 30.5,60.5C 27.6333,60.6308 25.9666,59.2974 25.5,56.5 Z"/></g>
<g><path style="opacity:1" fill="#331956" d="M 70.5,57.5 C 70.8333,57.5 71.1667,57.5 71.5,57.5C 71.5,58.8333 71.5,60.1667 71.5,61.5C 71.5,62.1667 71.1667,62.5 70.5,62.5C 65.5,62.5 60.5,62.5 55.5,62.5C 55.5,62.1667 55.5,61.8333 55.5,61.5C 58.5,61.5 61.5,61.5 64.5,61.5C 67.8784,62.1089 69.8784,60.7756 70.5,57.5 Z"/></g>
<g><path style="opacity:1" fill="#4f1d89" d="M 41.5,57.5 C 41.8333,57.5 42.1667,57.5 42.5,57.5C 42.8333,57.5 43.1667,57.5 43.5,57.5C 42.1667,59.1667 40.8333,60.8333 39.5,62.5C 38.8333,62.5 38.1667,62.5 37.5,62.5C 35.3926,61.5318 33.0593,61.1984 30.5,61.5C 30.5,61.1667 30.5,60.8333 30.5,60.5C 32.8333,60.5 35.1667,60.5 37.5,60.5C 39.0269,60.573 40.0269,59.9063 40.5,58.5C 41.1667,58.5 41.5,58.1667 41.5,57.5 Z"/></g>
<g><path style="opacity:1" fill="#481989" d="M 53.5,57.5 C 53.8333,58.5 54.5,59.1667 55.5,59.5C 58.2869,60.4767 61.2869,60.81 64.5,60.5C 64.5,60.8333 64.5,61.1667 64.5,61.5C 61.5,61.5 58.5,61.5 55.5,61.5C 54.1667,60.8333 53.1667,59.8333 52.5,58.5C 52.5,57.8333 52.8333,57.5 53.5,57.5 Z"/></g>
<g><path style="opacity:1" fill="#280d6c" d="M 69.5,56.5 C 70.1667,56.5 70.5,56.8333 70.5,57.5C 69.8784,60.7756 67.8784,62.1089 64.5,61.5C 64.5,61.1667 64.5,60.8333 64.5,60.5C 67.3667,60.6308 69.0334,59.2974 69.5,56.5 Z"/></g>
<g><path style="opacity:1" fill="#33185a" d="M 25.5,60.5 C 27.0418,61.3007 28.7085,61.634 30.5,61.5C 33.0593,61.1984 35.3926,61.5318 37.5,62.5C 33.1667,62.5 28.8333,62.5 24.5,62.5C 23.8333,62.5 23.5,62.1667 23.5,61.5C 24.4916,61.6716 25.1583,61.3382 25.5,60.5 Z"/></g>
<g><path style="opacity:0.898" fill="#1c1425" d="M 24.5,62.5 C 28.8333,62.5 33.1667,62.5 37.5,62.5C 38.1667,62.5 38.8333,62.5 39.5,62.5C 39.5,62.8333 39.5,63.1667 39.5,63.5C 34.4483,64.5793 29.4483,64.2459 24.5,62.5 Z"/></g>
<g><path style="opacity:0.898" fill="#1c1525" d="M 55.5,62.5 C 60.5,62.5 65.5,62.5 70.5,62.5C 65.5517,64.2459 60.5517,64.5793 55.5,63.5C 55.5,63.1667 55.5,62.8333 55.5,62.5 Z"/></g>
</svg>
