<?xml version="1.0" encoding="UTF-8"?>
<!DOCTYPE svg PUBLIC "-//W3C//DTD SVG 1.1//EN" "http://www.w3.org/Graphics/SVG/1.1/DTD/svg11.dtd">
<svg xmlns="http://www.w3.org/2000/svg" version="1.1" width="96px" height="96px" style="shape-rendering:geometricPrecision; text-rendering:geometricPrecision; image-rendering:optimizeQuality; fill-rule:evenodd; clip-rule:evenodd" xmlns:xlink="http://www.w3.org/1999/xlink">
<g><path style="opacity:0.997" fill="#8247e5" d="M -0.5,-0.5 C 31.5,-0.5 63.5,-0.5 95.5,-0.5C 95.5,24.1667 95.5,48.8333 95.5,73.5C 94.8333,72.8333 94.1667,72.1667 93.5,71.5C 92.9202,69.2512 91.5869,67.5846 89.5,66.5C 87.4208,64.127 84.7541,62.7936 81.5,62.5C 80.5,62.5 79.5,62.5 78.5,62.5C 78.8214,56.9738 78.4881,51.6405 77.5,46.5C 72.529,42.6762 67.1956,39.3428 61.5,36.5C 52.7091,41.0633 44.0425,45.8966 35.5,51C 30.9145,50.4649 26.7479,48.6316 23,45.5C 20.431,34.7484 24.5977,29.2484 35.5,29C 41.6592,30.4826 44.8259,34.3159 45,40.5C 50.1373,39.0007 51.804,35.6674 50,30.5C 44.8845,27.037 39.5512,24.037 34,21.5C 27.8705,23.6305 22.2038,26.6305 17,30.5C 16.3333,36.5 16.3333,42.5 17,48.5C 22.5541,53.7731 29.0541,56.6065 36.5,57C 44.4416,52.1121 52.6082,47.6121 61,43.5C 70.6262,45.776 73.9595,51.776 71,61.5C 67.4425,64.8693 63.2759,66.3693 58.5,66C 56.0038,64.9196 53.6705,63.5862 51.5,62C 50.8803,59.5272 50.2136,57.0272 49.5,54.5C 44.8195,56.2856 43.3195,59.6189 45,64.5C 49.8123,68.1546 54.979,71.1546 60.5,73.5C 61.0784,76.2804 61.7451,78.9471 62.5,81.5C 62.7936,84.7541 64.127,87.4208 66.5,89.5C 67.9923,92.3231 70.3257,93.9898 73.5,94.5C 73.5,94.8333 73.5,95.1667 73.5,95.5C 48.8333,95.5 24.1667,95.5 -0.5,95.5C -0.5,63.5 -0.5,31.5 -0.5,-0.5 Z"/></g>
<g><path style="opacity:1" fill="#f8f5fd" d="M 77.5,46.5 C 77.5,51.5 77.5,56.5 77.5,61.5C 76.209,61.2627 75.209,61.596 74.5,62.5C 68.5916,64.0747 64.5916,67.7413 62.5,73.5C 61.8333,73.5 61.1667,73.5 60.5,73.5C 54.979,71.1546 49.8123,68.1546 45,64.5C 43.3195,59.6189 44.8195,56.2856 49.5,54.5C 50.2136,57.0272 50.8803,59.5272 51.5,62C 53.6705,63.5862 56.0038,64.9196 58.5,66C 63.2759,66.3693 67.4425,64.8693 71,61.5C 73.9595,51.776 70.6262,45.776 61,43.5C 52.6082,47.6121 44.4416,52.1121 36.5,57C 29.0541,56.6065 22.5541,53.7731 17,48.5C 16.3333,42.5 16.3333,36.5 17,30.5C 22.2038,26.6305 27.8705,23.6305 34,21.5C 39.5512,24.037 44.8845,27.037 50,30.5C 51.804,35.6674 50.1373,39.0007 45,40.5C 44.8259,34.3159 41.6592,30.4826 35.5,29C 24.5977,29.2484 20.431,34.7484 23,45.5C 26.7479,48.6316 30.9145,50.4649 35.5,51C 44.0425,45.8966 52.7091,41.0633 61.5,36.5C 67.1956,39.3428 72.529,42.6762 77.5,46.5 Z"/></g>
<g><path style="opacity:1" fill="#ddbee9" d="M 77.5,46.5 C 78.4881,51.6405 78.8214,56.9738 78.5,62.5C 77.1667,62.5 75.8333,62.5 74.5,62.5C 75.209,61.596 76.209,61.2627 77.5,61.5C 77.5,56.5 77.5,51.5 77.5,46.5 Z"/></g>
<g><path style="opacity:1" fill="#922049" d="M 81.5,62.5 C 84.7541,62.7936 87.4208,64.127 89.5,66.5C 87.4862,66.3915 85.8195,67.0582 84.5,68.5C 81.8728,67.9084 79.2062,67.5751 76.5,67.5C 77.8606,65.4727 79.5273,63.806 81.5,62.5 Z"/></g>
<g><path style="opacity:1" fill="#561a44" d="M 89.5,66.5 C 91.5869,67.5846 92.9202,69.2512 93.5,71.5C 92.7638,73.2294 91.4305,74.2294 89.5,74.5C 88.5275,72.8608 87.1942,71.5274 85.5,70.5C 85.1667,69.8333 84.8333,69.1667 84.5,68.5C 85.8195,67.0582 87.4862,66.3915 89.5,66.5 Z"/></g>
<g><path style="opacity:1" fill="#c1738c" d="M 76.5,67.5 C 79.2062,67.5751 81.8728,67.9084 84.5,68.5C 84.8333,69.1667 85.1667,69.8333 85.5,70.5C 85.0618,70.4346 84.7284,70.6012 84.5,71C 85.8228,71.8159 86.4894,72.9826 86.5,74.5C 86.1667,74.5 85.8333,74.5 85.5,74.5C 84.5994,72.2729 82.9328,71.2729 80.5,71.5C 77.9551,69.3636 75.2884,69.1969 72.5,71C 73.6537,71.9138 73.487,72.7471 72,73.5C 71.3333,72.1667 70.6667,72.1667 70,73.5C 68.5783,76.0301 68.245,78.6967 69,81.5C 69.3333,79.8333 69.6667,78.1667 70,76.5C 70.4396,78.8659 70.9396,81.1992 71.5,83.5C 70.6618,83.8417 70.3284,84.5084 70.5,85.5C 70.1667,85.5 69.8333,85.5 69.5,85.5C 67.9493,83.0872 67.2826,80.4206 67.5,77.5C 68.3859,72.28 71.3859,68.9467 76.5,67.5 Z"/></g>
<g><path style="opacity:1" fill="#b14e6e" d="M 80.5,71.5 C 77.8233,73.1821 75.1566,74.8487 72.5,76.5C 72.8016,79.0593 72.4682,81.3926 71.5,83.5C 70.9396,81.1992 70.4396,78.8659 70,76.5C 69.6667,78.1667 69.3333,79.8333 69,81.5C 68.245,78.6967 68.5783,76.0301 70,73.5C 70.6667,72.1667 71.3333,72.1667 72,73.5C 73.487,72.7471 73.6537,71.9138 72.5,71C 75.2884,69.1969 77.9551,69.3636 80.5,71.5 Z"/></g>
<g><path style="opacity:1" fill="#8a4062" d="M 80.5,71.5 C 82.9328,71.2729 84.5994,72.2729 85.5,74.5C 79.25,74.2423 76.9167,77.0756 78.5,83C 77.244,83.4169 76.5774,84.2502 76.5,85.5C 75.1667,86.1667 73.8333,86.8333 72.5,87.5C 71.1667,87.5 70.5,86.8333 70.5,85.5C 70.3284,84.5084 70.6618,83.8417 71.5,83.5C 72.4682,81.3926 72.8016,79.0593 72.5,76.5C 75.1566,74.8487 77.8233,73.1821 80.5,71.5 Z"/></g>
<g><path style="opacity:1" fill="#cd254b" d="M 74.5,62.5 C 75.8333,62.5 77.1667,62.5 78.5,62.5C 79.5,62.5 80.5,62.5 81.5,62.5C 79.5273,63.806 77.8606,65.4727 76.5,67.5C 71.3859,68.9467 68.3859,72.28 67.5,77.5C 66.4412,79.5554 64.7746,80.8888 62.5,81.5C 62.5,78.8333 62.5,76.1667 62.5,73.5C 64.5916,67.7413 68.5916,64.0747 74.5,62.5 Z"/></g>
<g><path style="opacity:1" fill="#a93b9b" d="M 60.5,73.5 C 61.1667,73.5 61.8333,73.5 62.5,73.5C 62.5,76.1667 62.5,78.8333 62.5,81.5C 61.7451,78.9471 61.0784,76.2804 60.5,73.5 Z"/></g>
<g><path style="opacity:0.996" fill="#1c1540" d="M 93.5,71.5 C 94.1667,72.1667 94.8333,72.8333 95.5,73.5C 95.5,76.1667 95.5,78.8333 95.5,81.5C 94.5788,84.676 93.0788,87.676 91,90.5C 88.0926,92.8683 84.9259,94.535 81.5,95.5C 78.8333,95.5 76.1667,95.5 73.5,95.5C 73.5,95.1667 73.5,94.8333 73.5,94.5C 74.5,93.1667 75.5,91.8333 76.5,90.5C 79.1522,90.5905 81.4855,89.9238 83.5,88.5C 88.7525,85.3198 90.7525,80.6531 89.5,74.5C 91.4305,74.2294 92.7638,73.2294 93.5,71.5 Z"/></g>
<g><path style="opacity:1" fill="#4d254b" d="M 85.5,74.5 C 85.8333,74.5 86.1667,74.5 86.5,74.5C 89.2117,78.6744 88.545,82.3411 84.5,85.5C 81.6481,86.2583 78.9815,86.2583 76.5,85.5C 76.5774,84.2502 77.244,83.4169 78.5,83C 76.9167,77.0756 79.25,74.2423 85.5,74.5 Z"/></g>
<g><path style="opacity:1" fill="#dbd6de" d="M 85.5,70.5 C 87.1942,71.5274 88.5275,72.8608 89.5,74.5C 90.7525,80.6531 88.7525,85.3198 83.5,88.5C 83.0618,88.5654 82.7284,88.3988 82.5,88C 83.3805,87.2917 84.0472,86.4584 84.5,85.5C 88.545,82.3411 89.2117,78.6744 86.5,74.5C 86.4894,72.9826 85.8228,71.8159 84.5,71C 84.7284,70.6012 85.0618,70.4346 85.5,70.5 Z"/></g>
<g><path style="opacity:1" fill="#911f48" d="M 67.5,77.5 C 67.2826,80.4206 67.9493,83.0872 69.5,85.5C 68.5041,85.4142 67.6708,85.7476 67,86.5C 67.1085,87.7688 66.9418,88.7688 66.5,89.5C 64.127,87.4208 62.7936,84.7541 62.5,81.5C 64.7746,80.8888 66.4412,79.5554 67.5,77.5 Z"/></g>
<g><path style="opacity:1" fill="#7b6883" d="M 76.5,85.5 C 78.9815,86.2583 81.6481,86.2583 84.5,85.5C 84.0472,86.4584 83.3805,87.2917 82.5,88C 82.7284,88.3988 83.0618,88.5654 83.5,88.5C 81.4855,89.9238 79.1522,90.5905 76.5,90.5C 75.1667,89.5 73.8333,88.5 72.5,87.5C 73.8333,86.8333 75.1667,86.1667 76.5,85.5 Z"/></g>
<g><path style="opacity:0.973" fill="#7e45de" d="M 95.5,81.5 C 95.5,86.1667 95.5,90.8333 95.5,95.5C 90.8333,95.5 86.1667,95.5 81.5,95.5C 84.9259,94.535 88.0926,92.8683 91,90.5C 93.0788,87.676 94.5788,84.676 95.5,81.5 Z"/></g>
<g><path style="opacity:1" fill="#4f1a45" d="M 69.5,85.5 C 69.8333,85.5 70.1667,85.5 70.5,85.5C 70.5,86.8333 71.1667,87.5 72.5,87.5C 73.8333,88.5 75.1667,89.5 76.5,90.5C 75.5,91.8333 74.5,93.1667 73.5,94.5C 70.3257,93.9898 67.9923,92.3231 66.5,89.5C 66.9418,88.7688 67.1085,87.7688 67,86.5C 67.6708,85.7476 68.5041,85.4142 69.5,85.5 Z"/></g>
</svg>
