<?xml version="1.0" encoding="UTF-8"?>
<!DOCTYPE svg PUBLIC "-//W3C//DTD SVG 1.1//EN" "http://www.w3.org/Graphics/SVG/1.1/DTD/svg11.dtd">
<svg xmlns="http://www.w3.org/2000/svg" version="1.1" width="96px" height="96px" style="shape-rendering:geometricPrecision; text-rendering:geometricPrecision; image-rendering:optimizeQuality; fill-rule:evenodd; clip-rule:evenodd" xmlns:xlink="http://www.w3.org/1999/xlink">
<g><path style="opacity:0.979" fill="#d7d7d7" d="M 37.5,-0.5 C 44.1667,-0.5 50.8333,-0.5 57.5,-0.5C 77.1667,5.16667 89.8333,17.8333 95.5,37.5C 95.5,44.1667 95.5,50.8333 95.5,57.5C 89.8333,77.1667 77.1667,89.8333 57.5,95.5C 50.8333,95.5 44.1667,95.5 37.5,95.5C 17.8333,89.8333 5.16667,77.1667 -0.5,57.5C -0.5,50.8333 -0.5,44.1667 -0.5,37.5C 5.16667,17.8333 17.8333,5.16667 37.5,-0.5 Z"/></g>
<g><path style="opacity:1" fill="#a4a4a4" d="M 47.5,14.5 C 48.6329,22.4211 48.7996,30.4211 48,38.5C 41.3182,41.7851 34.4849,44.7851 27.5,47.5C 33.9186,36.3257 40.5853,25.3257 47.5,14.5 Z"/></g>
<g><path style="opacity:1" fill="#919191" d="M 27.5,47.5 C 34.4849,44.7851 41.3182,41.7851 48,38.5C 48.7996,30.4211 48.6329,22.4211 47.5,14.5C 47.4346,14.0618 47.6012,13.7284 48,13.5C 54.9159,23.6633 61.5826,33.9966 68,44.5C 68.9819,45.7589 69.3152,47.0922 69,48.5C 62.2965,52.6994 55.4632,56.6994 48.5,60.5C 40.9329,56.8932 33.9329,52.5599 27.5,47.5 Z"/></g>
<g><path style="opacity:1" fill="#919191" d="M 49.5,80.5 C 48.5119,75.3595 48.1786,70.0262 48.5,64.5C 55.138,61.1805 61.4714,57.3472 67.5,53C 68.3317,52.3123 68.9984,52.479 69.5,53.5C 62.5803,62.3514 55.9137,71.3514 49.5,80.5 Z"/></g>
<g><path style="opacity:1" fill="#a4a4a4" d="M 48.5,64.5 C 48.1786,70.0262 48.5119,75.3595 49.5,80.5C 48.8106,81.7736 47.9772,81.7736 47,80.5C 40.5518,71.051 33.7185,61.8844 26.5,53C 33.8394,56.506 41.1727,60.3393 48.5,64.5 Z"/></g>
</svg>
