<?xml version="1.0" encoding="UTF-8"?>
<!DOCTYPE svg PUBLIC "-//W3C//DTD SVG 1.1//EN" "http://www.w3.org/Graphics/SVG/1.1/DTD/svg11.dtd">
<svg xmlns="http://www.w3.org/2000/svg" version="1.1" width="96px" height="96px" style="shape-rendering:geometricPrecision; text-rendering:geometricPrecision; image-rendering:optimizeQuality; fill-rule:evenodd; clip-rule:evenodd" xmlns:xlink="http://www.w3.org/1999/xlink">
<g><path style="opacity:0.871" fill="#f7f7f7" d="M 36.5,-0.5 C 43.8333,-0.5 51.1667,-0.5 58.5,-0.5C 77.1667,5.5 89.5,17.8333 95.5,36.5C 95.5,43.8333 95.5,51.1667 95.5,58.5C 89.4209,77.5789 76.7542,89.9123 57.5,95.5C 51.1667,95.5 44.8333,95.5 38.5,95.5C 17.8333,90.1667 4.83333,77.1667 -0.5,56.5C -0.5,50.1667 -0.5,43.8333 -0.5,37.5C 5.08775,18.2458 17.4211,5.57915 36.5,-0.5 Z"/></g>
<g><path style="opacity:1" fill="#030303" d="M 39.5,3.5 C 66.0785,1.6825 83.2452,13.3492 91,38.5C 93.4257,67.3835 80.5924,84.8835 52.5,91C 34.9059,92.4524 21.0726,85.9524 11,71.5C -0.450308,49.4665 2.71636,29.9665 20.5,13C 26.3933,8.71994 32.7267,5.55327 39.5,3.5 Z"/></g>
<g><path style="opacity:1" fill="#f9f9f9" d="M 70.5,64.5 C 55.324,64.8294 40.324,64.4961 25.5,63.5C 27.9838,55.2124 31.1505,47.2124 35,39.5C 35.8147,41.6228 36.8147,43.6228 38,45.5C 41.3429,36.7998 44.6762,28.1331 48,19.5C 52.4045,31.5483 56.9045,43.5483 61.5,55.5C 62.3333,54.5 63.1667,53.5 64,52.5C 66.4333,56.3674 68.6,60.3674 70.5,64.5 Z"/></g>
<g><path style="opacity:1" fill="#b2b2b2" d="M 25.5,63.5 C 40.324,64.4961 55.324,64.8294 70.5,64.5C 55.3282,65.8264 39.9948,65.8264 24.5,64.5C 24.6236,63.8933 24.9569,63.56 25.5,63.5 Z"/></g>
</svg>
