<?xml version="1.0" encoding="UTF-8"?>
<!DOCTYPE svg PUBLIC "-//W3C//DTD SVG 1.1//EN" "http://www.w3.org/Graphics/SVG/1.1/DTD/svg11.dtd">
<svg xmlns="http://www.w3.org/2000/svg" version="1.1" width="96px" height="96px" style="shape-rendering:geometricPrecision; text-rendering:geometricPrecision; image-rendering:optimizeQuality; fill-rule:evenodd; clip-rule:evenodd" xmlns:xlink="http://www.w3.org/1999/xlink">
<g><path style="opacity:0.928" fill="#0c0605" d="M 38.5,-0.5 C 44.5,-0.5 50.5,-0.5 56.5,-0.5C 76.465,5.46502 89.465,18.465 95.5,38.5C 95.5,44.5 95.5,50.5 95.5,56.5C 90.2663,76.7338 77.5996,89.7338 57.5,95.5C 50.8333,95.5 44.1667,95.5 37.5,95.5C 17.4271,89.76 4.76047,76.76 -0.5,56.5C -0.5,50.5 -0.5,44.5 -0.5,38.5C 5.48245,18.5175 18.4824,5.51755 38.5,-0.5 Z"/></g>
<g><path style="opacity:1" fill="#39250b" d="M 87.5,37.5 C 87.8919,40.7216 87.3919,43.7216 86,46.5C 85.8019,44.6183 85.3019,42.9516 84.5,41.5C 83.7618,37.2854 82.4285,33.2854 80.5,29.5C 81.3029,28.5768 81.4696,27.5768 81,26.5C 75.2852,18.4377 68.1185,12.2711 59.5,8C 43.8804,4.74514 30.3804,8.57847 19,19.5C 18.5304,20.5768 18.6971,21.5768 19.5,22.5C 15.5094,27.1612 12.8427,32.4946 11.5,38.5C 11.1667,38.5 10.8333,38.5 10.5,38.5C 10.44,37.9569 10.1067,37.6236 9.5,37.5C 8.86758,40.1024 7.86758,42.4357 6.5,44.5C 6.5,43.1667 6.5,41.8333 6.5,40.5C 7.00677,31.128 10.6734,23.2947 17.5,17C 22.228,13.2744 27.228,9.94108 32.5,7C 54.6276,0.367448 71.6276,6.70078 83.5,26C 85.2225,29.7366 86.5558,33.5699 87.5,37.5 Z"/></g>
<g><path style="opacity:1" fill="#f0b60d" d="M 76.5,24.5 C 76.6716,25.4916 76.3382,26.1583 75.5,26.5C 64.4838,14.8864 51.1505,11.053 35.5,15C 30.7436,17.2695 26.4102,20.1028 22.5,23.5C 21.5084,23.6716 20.8417,23.3382 20.5,22.5C 31.8965,10.4034 45.5632,7.23676 61.5,13C 67.6502,15.4001 72.6502,19.2335 76.5,24.5 Z"/></g>
<g><path style="opacity:1" fill="#54390a" d="M 75.5,26.5 C 78.6092,31.3908 80.6092,36.7241 81.5,42.5C 80.7321,41.7375 80.2321,40.7375 80,39.5C 79.6174,40.056 79.1174,40.3893 78.5,40.5C 77.9,37.702 76.9,35.0354 75.5,32.5C 74.675,31.6143 73.675,31.281 72.5,31.5C 72.5,30.8333 72.5,30.1667 72.5,29.5C 71.4566,26.9438 69.7899,24.7772 67.5,23C 58.8269,17.9494 49.4936,16.2827 39.5,18C 37.8807,18.2355 36.8807,19.0689 36.5,20.5C 27.372,22.0382 21.7053,27.3715 19.5,36.5C 18.1154,37.5736 16.9487,38.9069 16,40.5C 15.6667,40.1667 15.3333,39.8333 15,39.5C 14.7679,40.7375 14.2679,41.7375 13.5,42.5C 13.5,42.1667 13.5,41.8333 13.5,41.5C 14.9153,34.6694 17.9153,28.6694 22.5,23.5C 26.4102,20.1028 30.7436,17.2695 35.5,15C 51.1505,11.053 64.4838,14.8864 75.5,26.5 Z"/></g>
<g><path style="opacity:1" fill="#533b06" d="M 80.5,29.5 C 79.1667,27.8333 77.8333,26.1667 76.5,24.5C 72.6502,19.2335 67.6502,15.4001 61.5,13C 45.5632,7.23676 31.8965,10.4034 20.5,22.5C 20.1667,22.5 19.8333,22.5 19.5,22.5C 18.6971,21.5768 18.5304,20.5768 19,19.5C 30.3804,8.57847 43.8804,4.74514 59.5,8C 68.1185,12.2711 75.2852,18.4377 81,26.5C 81.4696,27.5768 81.3029,28.5768 80.5,29.5 Z"/></g>
<g><path style="opacity:1" fill="#302203" d="M 72.5,29.5 C 68.6634,26.7478 64.6634,24.2478 60.5,22C 52.6203,18.0637 44.6203,17.5637 36.5,20.5C 36.8807,19.0689 37.8807,18.2355 39.5,18C 49.4936,16.2827 58.8269,17.9494 67.5,23C 69.7899,24.7772 71.4566,26.9438 72.5,29.5 Z"/></g>
<g><path style="opacity:1" fill="#030101" d="M 72.5,33.5 C 75.2591,37.6456 75.9258,42.1456 74.5,47C 57.3176,47.2155 40.1509,47.7155 23,48.5C 21.6153,48.4857 20.4486,48.1524 19.5,47.5C 20.2511,41.5726 22.0845,35.9059 25,30.5C 30.0662,27.0488 35.5662,24.2155 41.5,22C 50.3672,20.9665 58.7005,22.6332 66.5,27C 68.4002,29.3353 70.4002,31.502 72.5,33.5 Z"/></g>
<g><path style="opacity:1" fill="#181003" d="M 72.5,29.5 C 72.5,30.1667 72.5,30.8333 72.5,31.5C 72.5,32.1667 72.5,32.8333 72.5,33.5C 70.4002,31.502 68.4002,29.3353 66.5,27C 58.7005,22.6332 50.3672,20.9665 41.5,22C 35.5662,24.2155 30.0662,27.0488 25,30.5C 22.0845,35.9059 20.2511,41.5726 19.5,47.5C 19.1667,47.5 18.8333,47.5 18.5,47.5C 18.3227,43.7657 18.6561,40.0991 19.5,36.5C 21.7053,27.3715 27.372,22.0382 36.5,20.5C 44.6203,17.5637 52.6203,18.0637 60.5,22C 64.6634,24.2478 68.6634,26.7478 72.5,29.5 Z"/></g>
<g><path style="opacity:1" fill="#f19740" d="M 19.5,22.5 C 19.8333,22.5 20.1667,22.5 20.5,22.5C 20.8417,23.3382 21.5084,23.6716 22.5,23.5C 17.9153,28.6694 14.9153,34.6694 13.5,41.5C 12.8826,41.6107 12.3826,41.944 12,42.5C 11.51,41.2068 11.3433,39.8734 11.5,38.5C 12.8427,32.4946 15.5094,27.1612 19.5,22.5 Z"/></g>
<g><path style="opacity:1" fill="#ed8f48" d="M 76.5,24.5 C 77.8333,26.1667 79.1667,27.8333 80.5,29.5C 82.4285,33.2854 83.7618,37.2854 84.5,41.5C 84.5,42.8333 84.5,44.1667 84.5,45.5C 83.2223,45.2178 82.2223,44.5511 81.5,43.5C 81.5,43.1667 81.5,42.8333 81.5,42.5C 80.6092,36.7241 78.6092,31.3908 75.5,26.5C 76.3382,26.1583 76.6716,25.4916 76.5,24.5 Z"/></g>
<g><path style="opacity:1" fill="#3f1d1f" d="M 87.5,37.5 C 88.2679,38.2625 88.7679,39.2625 89,40.5C 89.6667,46.1667 89.6667,51.8333 89,57.5C 87.9786,59.9703 86.8119,62.3036 85.5,64.5C 86.7501,62.032 86.5834,59.6987 85,57.5C 84.6174,58.056 84.1174,58.3893 83.5,58.5C 83.5,57.8333 83.5,57.1667 83.5,56.5C 84.3439,52.9009 84.6773,49.2343 84.5,45.5C 84.5,44.1667 84.5,42.8333 84.5,41.5C 85.3019,42.9516 85.8019,44.6183 86,46.5C 87.3919,43.7216 87.8919,40.7216 87.5,37.5 Z"/></g>
<g><path style="opacity:1" fill="#492324" d="M 10.5,38.5 C 10.2539,44.5594 10.5872,50.5594 11.5,56.5C 11.5,57.1667 11.5,57.8333 11.5,58.5C 11.1667,59.8333 10.8333,61.1667 10.5,62.5C 6.96383,57.1635 5.63049,51.1635 6.5,44.5C 7.86758,42.4357 8.86758,40.1024 9.5,37.5C 10.1067,37.6236 10.44,37.9569 10.5,38.5 Z"/></g>
<g><path style="opacity:1" fill="#2b1515" d="M 72.5,31.5 C 73.675,31.281 74.675,31.6143 75.5,32.5C 76.9,35.0354 77.9,37.702 78.5,40.5C 78.6641,43.1873 78.4974,45.854 78,48.5C 77.0862,47.3463 76.2529,47.513 75.5,49C 56.4832,49.2454 37.4832,49.7454 18.5,50.5C 18.5,49.5 18.5,48.5 18.5,47.5C 18.8333,47.5 19.1667,47.5 19.5,47.5C 20.4486,48.1524 21.6153,48.4857 23,48.5C 40.1509,47.7155 57.3176,47.2155 74.5,47C 75.9258,42.1456 75.2591,37.6456 72.5,33.5C 72.5,32.8333 72.5,32.1667 72.5,31.5 Z"/></g>
<g><path style="opacity:1" fill="#4d2328" d="M 19.5,36.5 C 18.6561,40.0991 18.3227,43.7657 18.5,47.5C 18.5,48.5 18.5,49.5 18.5,50.5C 37.4832,49.7454 56.4832,49.2454 75.5,49C 76.2529,47.513 77.0862,47.3463 78,48.5C 78.4974,45.854 78.6641,43.1873 78.5,40.5C 79.1174,40.3893 79.6174,40.056 80,39.5C 80.2321,40.7375 80.7321,41.7375 81.5,42.5C 81.5,42.8333 81.5,43.1667 81.5,43.5C 81.5,47.5 81.5,51.5 81.5,55.5C 80.8333,55.5 80.5,55.8333 80.5,56.5C 78.2967,56.9349 76.2967,56.9349 74.5,56.5C 74.4894,54.9826 73.8228,53.8159 72.5,53C 55.4262,52.1821 38.4262,52.3488 21.5,53.5C 18.8353,52.1523 16.1687,51.819 13.5,52.5C 13.5,49.1667 13.5,45.8333 13.5,42.5C 14.2679,41.7375 14.7679,40.7375 15,39.5C 15.3333,39.8333 15.6667,40.1667 16,40.5C 16.9487,38.9069 18.1154,37.5736 19.5,36.5 Z"/></g>
<g><path style="opacity:1" fill="#ed7278" d="M 10.5,38.5 C 10.8333,38.5 11.1667,38.5 11.5,38.5C 11.3433,39.8734 11.51,41.2068 12,42.5C 12.3826,41.944 12.8826,41.6107 13.5,41.5C 13.5,41.8333 13.5,42.1667 13.5,42.5C 13.5,45.8333 13.5,49.1667 13.5,52.5C 13.5,53.5 13.5,54.5 13.5,55.5C 13.1583,56.3382 12.4916,56.6716 11.5,56.5C 10.5872,50.5594 10.2539,44.5594 10.5,38.5 Z"/></g>
<g><path style="opacity:1" fill="#e36284" d="M 74.5,56.5 C 74.7035,58.3904 74.0368,59.8904 72.5,61C 67.9805,61.1753 63.6472,61.6753 59.5,62.5C 58.0387,61.3143 56.7054,61.3143 55.5,62.5C 54.5,61.8333 53.5,61.1667 52.5,60.5C 51.9094,59.8485 51.2427,59.1818 50.5,58.5C 57.4764,57.6689 64.4764,57.1689 71.5,57C 55.5,56.3333 39.5,56.3333 23.5,57C 31.1883,57.1685 38.8549,57.6685 46.5,58.5C 45.7573,59.1818 45.0906,59.8485 44.5,60.5C 42.8333,61.8333 41.1667,63.1667 39.5,64.5C 38.791,63.596 37.791,63.2627 36.5,63.5C 36.6107,62.8826 36.944,62.3826 37.5,62C 32.5,61.6667 27.5,61.3333 22.5,61C 20.2854,58.7585 19.9521,56.2585 21.5,53.5C 38.4262,52.3488 55.4262,52.1821 72.5,53C 73.8228,53.8159 74.4894,54.9826 74.5,56.5 Z"/></g>
<g><path style="opacity:1" fill="#ef717d" d="M 81.5,43.5 C 82.2223,44.5511 83.2223,45.2178 84.5,45.5C 84.6773,49.2343 84.3439,52.9009 83.5,56.5C 82.5084,56.6716 81.8417,56.3382 81.5,55.5C 81.5,51.5 81.5,47.5 81.5,43.5 Z"/></g>
<g><path style="opacity:1" fill="#9a425b" d="M 52.5,60.5 C 49.8333,60.5 47.1667,60.5 44.5,60.5C 45.0906,59.8485 45.7573,59.1818 46.5,58.5C 38.8549,57.6685 31.1883,57.1685 23.5,57C 39.5,56.3333 55.5,56.3333 71.5,57C 64.4764,57.1689 57.4764,57.6689 50.5,58.5C 51.2427,59.1818 51.9094,59.8485 52.5,60.5 Z"/></g>
<g><path style="opacity:1" fill="#712b4b" d="M 21.5,53.5 C 19.9521,56.2585 20.2854,58.7585 22.5,61C 27.5,61.3333 32.5,61.6667 37.5,62C 36.944,62.3826 36.6107,62.8826 36.5,63.5C 32.2272,66.4335 28.2272,69.7668 24.5,73.5C 22.2655,71.3619 20.2655,69.0286 18.5,66.5C 16.6234,62.845 14.9567,59.1783 13.5,55.5C 13.5,54.5 13.5,53.5 13.5,52.5C 16.1687,51.819 18.8353,52.1523 21.5,53.5 Z"/></g>
<g><path style="opacity:1" fill="#eb5a9e" d="M 13.5,55.5 C 14.9567,59.1783 16.6234,62.845 18.5,66.5C 17.5084,66.3284 16.8417,66.6618 16.5,67.5C 14.2705,64.8104 12.6038,61.8104 11.5,58.5C 11.5,57.8333 11.5,57.1667 11.5,56.5C 12.4916,56.6716 13.1583,56.3382 13.5,55.5 Z"/></g>
<g><path style="opacity:1" fill="#eb599f" d="M 81.5,55.5 C 81.8417,56.3382 82.5084,56.6716 83.5,56.5C 83.5,57.1667 83.5,57.8333 83.5,58.5C 82.3962,61.8104 80.7295,64.8104 78.5,67.5C 77.8333,67.5 77.1667,67.5 76.5,67.5C 78.1117,63.9416 79.445,60.2749 80.5,56.5C 80.5,55.8333 80.8333,55.5 81.5,55.5 Z"/></g>
<g><path style="opacity:1" fill="#752b52" d="M 74.5,56.5 C 76.2967,56.9349 78.2967,56.9349 80.5,56.5C 79.445,60.2749 78.1117,63.9416 76.5,67.5C 74.6121,68.9397 72.9454,70.6064 71.5,72.5C 67.1886,69.5203 63.1886,66.187 59.5,62.5C 63.6472,61.6753 67.9805,61.1753 72.5,61C 74.0368,59.8904 74.7035,58.3904 74.5,56.5 Z"/></g>
<g><path style="opacity:1" fill="#381229" d="M 6.5,40.5 C 6.5,41.8333 6.5,43.1667 6.5,44.5C 5.63049,51.1635 6.96383,57.1635 10.5,62.5C 12.2824,65.7295 13.7824,69.0628 15,72.5C 17.4033,73.7808 19.2367,75.6142 20.5,78C 22.5348,78.5986 24.2015,78.0986 25.5,76.5C 26.4232,77.3029 27.4232,77.4696 28.5,77C 31.7974,74.7046 34.7974,72.038 37.5,69C 41.25,67.125 44.9167,65.2916 48.5,63.5C 51.3655,63.9312 54.0322,64.9312 56.5,66.5C 60.4929,70.3238 64.6596,73.9905 69,77.5C 69.3826,76.944 69.8826,76.6107 70.5,76.5C 74.3109,74.564 76.9775,71.564 78.5,67.5C 80.7295,64.8104 82.3962,61.8104 83.5,58.5C 84.1174,58.3893 84.6174,58.056 85,57.5C 86.5834,59.6987 86.7501,62.032 85.5,64.5C 85.6495,65.552 85.4828,66.552 85,67.5C 81.7245,71.2015 78.5578,75.0348 75.5,79C 72.5,79.6667 69.5,79.6667 66.5,79C 62.1667,76 58.5,72.3333 55.5,68C 52.4536,65.826 49.1202,65.1593 45.5,66C 40.2174,70.6087 34.8841,75.2754 29.5,80C 26.5,80.6667 23.5,80.6667 20.5,80C 7.91696,69.5106 3.25029,56.3439 6.5,40.5 Z"/></g>
<g><path style="opacity:1" fill="#ea4bb7" d="M 59.5,62.5 C 63.1886,66.187 67.1886,69.5203 71.5,72.5C 72.9454,70.6064 74.6121,68.9397 76.5,67.5C 77.1667,67.5 77.8333,67.5 78.5,67.5C 76.9775,71.564 74.3109,74.564 70.5,76.5C 65.5,71.8333 60.5,67.1667 55.5,62.5C 56.7054,61.3143 58.0387,61.3143 59.5,62.5 Z"/></g>
<g><path style="opacity:1" fill="#e949ba" d="M 36.5,63.5 C 37.791,63.2627 38.791,63.596 39.5,64.5C 34.5137,68.1549 29.847,72.1549 25.5,76.5C 24.448,76.6495 23.448,76.4828 22.5,76C 20.1118,73.3713 18.1118,70.538 16.5,67.5C 16.8417,66.6618 17.5084,66.3284 18.5,66.5C 20.2655,69.0286 22.2655,71.3619 24.5,73.5C 28.2272,69.7668 32.2272,66.4335 36.5,63.5 Z"/></g>
<g><path style="opacity:1" fill="#511b3c" d="M 11.5,58.5 C 12.6038,61.8104 14.2705,64.8104 16.5,67.5C 18.1118,70.538 20.1118,73.3713 22.5,76C 23.448,76.4828 24.448,76.6495 25.5,76.5C 24.2015,78.0986 22.5348,78.5986 20.5,78C 19.2367,75.6142 17.4033,73.7808 15,72.5C 13.7824,69.0628 12.2824,65.7295 10.5,62.5C 10.8333,61.1667 11.1667,59.8333 11.5,58.5 Z"/></g>
<g><path style="opacity:1" fill="#58203e" d="M 44.5,60.5 C 47.1667,60.5 49.8333,60.5 52.5,60.5C 53.5,61.1667 54.5,61.8333 55.5,62.5C 60.5,67.1667 65.5,71.8333 70.5,76.5C 69.8826,76.6107 69.3826,76.944 69,77.5C 64.6596,73.9905 60.4929,70.3238 56.5,66.5C 54.0322,64.9312 51.3655,63.9312 48.5,63.5C 44.9167,65.2916 41.25,67.125 37.5,69C 34.7974,72.038 31.7974,74.7046 28.5,77C 27.4232,77.4696 26.4232,77.3029 25.5,76.5C 29.847,72.1549 34.5137,68.1549 39.5,64.5C 41.1667,63.1667 42.8333,61.8333 44.5,60.5 Z"/></g>
</svg>
