<?xml version="1.0" encoding="UTF-8"?>
<!DOCTYPE svg PUBLIC "-//W3C//DTD SVG 1.1//EN" "http://www.w3.org/Graphics/SVG/1.1/DTD/svg11.dtd">
<svg xmlns="http://www.w3.org/2000/svg" version="1.1" width="96px" height="96px" style="shape-rendering:geometricPrecision; text-rendering:geometricPrecision; image-rendering:optimizeQuality; fill-rule:evenodd; clip-rule:evenodd" xmlns:xlink="http://www.w3.org/1999/xlink">
<g><path style="opacity:1" fill="#c8910a" d="M 37.5,-0.5 C 40.1667,-0.5 42.8333,-0.5 45.5,-0.5C 45.5,1.16667 45.5,2.83333 45.5,4.5C 46.8333,4.5 48.1667,4.5 49.5,4.5C 49.5,2.83333 49.5,1.16667 49.5,-0.5C 52.1667,-0.5 54.8333,-0.5 57.5,-0.5C 57.5,-0.166667 57.5,0.166667 57.5,0.5C 57.5,2.5 57.5,4.5 57.5,6.5C 50.8333,5.16667 44.1667,5.16667 37.5,6.5C 37.5,4.5 37.5,2.5 37.5,0.5C 37.5,0.166667 37.5,-0.166667 37.5,-0.5 Z"/></g>
<g><path style="opacity:0.987" fill="#926a05" d="M 45.5,-0.5 C 46.8333,-0.5 48.1667,-0.5 49.5,-0.5C 49.5,1.16667 49.5,2.83333 49.5,4.5C 48.1667,4.5 46.8333,4.5 45.5,4.5C 45.5,2.83333 45.5,1.16667 45.5,-0.5 Z"/></g>
<g><path style="opacity:1" fill="#8f6908" d="M 37.5,0.5 C 37.5,2.5 37.5,4.5 37.5,6.5C 37.1667,6.5 36.8333,6.5 36.5,6.5C 34.7769,5.39473 33.7769,3.72806 33.5,1.5C 34.5676,0.565525 35.901,0.232191 37.5,0.5 Z"/></g>
<g><path style="opacity:1" fill="#8f6908" d="M 57.5,0.5 C 59.099,0.232191 60.4324,0.565525 61.5,1.5C 61.2231,3.72806 60.2231,5.39473 58.5,6.5C 58.1667,6.5 57.8333,6.5 57.5,6.5C 57.5,4.5 57.5,2.5 57.5,0.5 Z"/></g>
<g><path style="opacity:1" fill="#c8900b" d="M 33.5,1.5 C 33.7769,3.72806 34.7769,5.39473 36.5,6.5C 33.5565,7.36741 30.5565,8.36741 27.5,9.5C 26.5592,7.95047 25.8925,6.2838 25.5,4.5C 27.7916,2.73292 30.4582,1.73292 33.5,1.5 Z"/></g>
<g><path style="opacity:1" fill="#c8910f" d="M 61.5,1.5 C 64.5418,1.73292 67.2084,2.73292 69.5,4.5C 69.1075,6.2838 68.4408,7.95047 67.5,9.5C 64.4435,8.36741 61.4435,7.36741 58.5,6.5C 60.2231,5.39473 61.2231,3.72806 61.5,1.5 Z"/></g>
<g><path style="opacity:1" fill="#f6b209" d="M 57.5,6.5 C 57.8333,6.5 58.1667,6.5 58.5,6.5C 61.4435,7.36741 64.4435,8.36741 67.5,9.5C 67.8417,10.3382 68.5084,10.6716 69.5,10.5C 71.5496,12.5475 73.883,14.2141 76.5,15.5C 77.1667,16.8333 78.1667,17.8333 79.5,18.5C 80.4486,20.7772 81.7819,22.7772 83.5,24.5C 83.9321,25.7095 84.5987,26.7095 85.5,27.5C 86.6326,30.5565 87.6326,33.5565 88.5,36.5C 88.5,37.1667 88.8333,37.5 89.5,37.5C 89.5,44.1667 89.5,50.8333 89.5,57.5C 88.8333,57.5 88.5,57.8333 88.5,58.5C 87.6326,61.4435 86.6326,64.4435 85.5,67.5C 84.6618,67.8417 84.3284,68.5084 84.5,69.5C 82.4525,71.5496 80.7859,73.883 79.5,76.5C 78.1667,77.1667 77.1667,78.1667 76.5,79.5C 73.883,80.7859 71.5496,82.4525 69.5,84.5C 68.5084,84.3284 67.8417,84.6618 67.5,85.5C 64.4435,86.6326 61.4435,87.6326 58.5,88.5C 57.8333,88.5 57.5,88.8333 57.5,89.5C 50.8333,89.5 44.1667,89.5 37.5,89.5C 37.5,88.8333 37.1667,88.5 36.5,88.5C 33.5565,87.6326 30.5565,86.6326 27.5,85.5C 26.7095,84.5987 25.7095,83.9321 24.5,83.5C 22.7772,81.7819 20.7772,80.4486 18.5,79.5C 17.8333,78.1667 16.8333,77.1667 15.5,76.5C 14.2141,73.883 12.5475,71.5496 10.5,69.5C 10.6716,68.5084 10.3382,67.8417 9.5,67.5C 8.36741,64.4435 7.36741,61.4435 6.5,58.5C 6.5,58.1667 6.5,57.8333 6.5,57.5C 5.16667,50.8333 5.16667,44.1667 6.5,37.5C 6.5,37.1667 6.5,36.8333 6.5,36.5C 7.36741,33.5565 8.36741,30.5565 9.5,27.5C 10.1667,27.5 10.5,27.1667 10.5,26.5C 12.1635,23.8414 13.8302,21.1748 15.5,18.5C 16.5,17.8333 17.5,17.1667 18.5,16.5C 20.5248,14.8036 22.5248,13.137 24.5,11.5C 25.7095,11.0679 26.7095,10.4013 27.5,9.5C 30.5565,8.36741 33.5565,7.36741 36.5,6.5C 36.8333,6.5 37.1667,6.5 37.5,6.5C 44.1667,5.16667 50.8333,5.16667 57.5,6.5 Z"/></g>
<g><path style="opacity:1" fill="#8e6909" d="M 69.5,4.5 C 71.0269,4.42702 72.0269,5.09368 72.5,6.5C 72.2624,8.40435 71.2624,9.73769 69.5,10.5C 68.5084,10.6716 67.8417,10.3382 67.5,9.5C 68.4408,7.95047 69.1075,6.2838 69.5,4.5 Z"/></g>
<g><path style="opacity:1" fill="#c89110" d="M 22.5,6.5 C 23.1667,8.16667 23.8333,9.83333 24.5,11.5C 22.5248,13.137 20.5248,14.8036 18.5,16.5C 17.5,14.8333 16.1667,13.5 14.5,12.5C 16.4426,9.5293 19.1092,7.5293 22.5,6.5 Z"/></g>
<g><path style="opacity:1" fill="#8f6907" d="M 25.5,4.5 C 25.8925,6.2838 26.5592,7.95047 27.5,9.5C 26.7095,10.4013 25.7095,11.0679 24.5,11.5C 23.8333,9.83333 23.1667,8.16667 22.5,6.5C 22.9731,5.09368 23.9731,4.42702 25.5,4.5 Z"/></g>
<g><path style="opacity:1" fill="#c79010" d="M 72.5,6.5 C 75.8908,7.5293 78.5574,9.5293 80.5,12.5C 79.1667,13.5 77.8333,14.5 76.5,15.5C 73.883,14.2141 71.5496,12.5475 69.5,10.5C 71.2624,9.73769 72.2624,8.40435 72.5,6.5 Z"/></g>
<g><path style="opacity:1" fill="#8e6807" d="M 80.5,12.5 C 81.5,12.8333 82.1667,13.5 82.5,14.5C 81.5,15.8333 80.5,17.1667 79.5,18.5C 78.1667,17.8333 77.1667,16.8333 76.5,15.5C 77.8333,14.5 79.1667,13.5 80.5,12.5 Z"/></g>
<g><path style="opacity:1" fill="#8e6707" d="M 14.5,12.5 C 16.1667,13.5 17.5,14.8333 18.5,16.5C 17.5,17.1667 16.5,17.8333 15.5,18.5C 14.5,17.1667 13.5,15.8333 12.5,14.5C 12.8333,13.5 13.5,12.8333 14.5,12.5 Z"/></g>
<g><path style="opacity:1" fill="#533d03" d="M 68.5,16.5 C 68.6659,21.5111 68.4993,26.5111 68,31.5C 67.8283,26.7982 67.3283,22.1315 66.5,17.5C 53.8333,18.8333 41.1667,18.8333 28.5,17.5C 27.6717,22.1315 27.1717,26.7982 27,31.5C 26.5007,26.5111 26.3341,21.5111 26.5,16.5C 40.5,15.1667 54.5,15.1667 68.5,16.5 Z"/></g>
<g><path style="opacity:1" fill="#c79010" d="M 12.5,14.5 C 13.5,15.8333 14.5,17.1667 15.5,18.5C 13.8302,21.1748 12.1635,23.8414 10.5,26.5C 10.1667,24.1667 8.83333,22.8333 6.5,22.5C 7.5293,19.1092 9.5293,16.4426 12.5,14.5 Z"/></g>
<g><path style="opacity:1" fill="#5c4303" d="M 26.5,16.5 C 26.3341,21.5111 26.5007,26.5111 27,31.5C 27.1717,26.7982 27.6717,22.1315 28.5,17.5C 41.1667,18.8333 53.8333,18.8333 66.5,17.5C 67.3283,22.1315 67.8283,26.7982 68,31.5C 68.4993,26.5111 68.6659,21.5111 68.5,16.5C 69.1667,16.5 69.5,16.8333 69.5,17.5C 68.8969,22.6186 69.5636,27.2853 71.5,31.5C 75.2604,30.7736 77.927,32.1069 79.5,35.5C 79.6664,44.5062 79.4998,53.5062 79,62.5C 76.4537,65.1856 73.287,66.1856 69.5,65.5C 69.8,70.0986 69.4667,74.5986 68.5,79C 54.8374,79.4999 41.1707,79.6666 27.5,79.5C 26.8333,79.5 26.5,79.1667 26.5,78.5C 26.5,74.1667 26.5,69.8333 26.5,65.5C 24.1667,65.5 21.8333,65.5 19.5,65.5C 18.2058,64.7101 17.0391,63.7101 16,62.5C 15.3333,53.1667 15.3333,43.8333 16,34.5C 18.5463,31.8144 21.713,30.8144 25.5,31.5C 25.1795,26.3054 25.5128,21.3054 26.5,16.5 Z"/></g>
<g><path style="opacity:1" fill="#c89113" d="M 82.5,14.5 C 85.4707,16.4426 87.4707,19.1092 88.5,22.5C 86.7162,22.8925 85.0495,23.5592 83.5,24.5C 81.7819,22.7772 80.4486,20.7772 79.5,18.5C 80.5,17.1667 81.5,15.8333 82.5,14.5 Z"/></g>
<g><path style="opacity:1" fill="#ce9405" d="M 69.5,17.5 C 71.4364,21.7147 72.1031,26.3814 71.5,31.5C 69.5636,27.2853 68.8969,22.6186 69.5,17.5 Z"/></g>
<g><path style="opacity:1" fill="#f4b108" d="M 29.5,19.5 C 41.5,19.5 53.5,19.5 65.5,19.5C 65.5,23.5 65.5,27.5 65.5,31.5C 53.5,31.5 41.5,31.5 29.5,31.5C 29.5,27.5 29.5,23.5 29.5,19.5 Z"/></g>
<g><path style="opacity:1" fill="#916a07" d="M 6.5,22.5 C 8.83333,22.8333 10.1667,24.1667 10.5,26.5C 10.5,27.1667 10.1667,27.5 9.5,27.5C 7.95047,26.5592 6.2838,25.8925 4.5,25.5C 4.93205,24.2905 5.59872,23.2905 6.5,22.5 Z"/></g>
<g><path style="opacity:1" fill="#916a09" d="M 88.5,22.5 C 89.4013,23.2905 90.0679,24.2905 90.5,25.5C 88.7162,25.8925 87.0495,26.5592 85.5,27.5C 84.5987,26.7095 83.9321,25.7095 83.5,24.5C 85.0495,23.5592 86.7162,22.8925 88.5,22.5 Z"/></g>
<g><path style="opacity:1" fill="#c9910d" d="M 4.5,25.5 C 6.2838,25.8925 7.95047,26.5592 9.5,27.5C 8.36741,30.5565 7.36741,33.5565 6.5,36.5C 5.39473,34.7769 3.72806,33.7769 1.5,33.5C 1.98023,30.5568 2.98023,27.8902 4.5,25.5 Z"/></g>
<g><path style="opacity:1" fill="#ca9211" d="M 90.5,25.5 C 92.0198,27.8902 93.0198,30.5568 93.5,33.5C 90.9664,33.2591 89.2998,34.2591 88.5,36.5C 87.6326,33.5565 86.6326,30.5565 85.5,27.5C 87.0495,26.5592 88.7162,25.8925 90.5,25.5 Z"/></g>
<g><path style="opacity:1" fill="#8f690a" d="M 1.5,33.5 C 3.72806,33.7769 5.39473,34.7769 6.5,36.5C 6.5,36.8333 6.5,37.1667 6.5,37.5C 4.5,37.5 2.5,37.5 0.5,37.5C 0.232191,35.901 0.565525,34.5676 1.5,33.5 Z"/></g>
<g><path style="opacity:1" fill="#8e690a" d="M 93.5,33.5 C 94.404,34.209 94.7373,35.209 94.5,36.5C 92.7839,36.6287 91.1172,36.962 89.5,37.5C 88.8333,37.5 88.5,37.1667 88.5,36.5C 89.2998,34.2591 90.9664,33.2591 93.5,33.5 Z"/></g>
<g><path style="opacity:1" fill="#c8910c" d="M -0.5,37.5 C -0.166667,37.5 0.166667,37.5 0.5,37.5C 2.5,37.5 4.5,37.5 6.5,37.5C 5.16667,44.1667 5.16667,50.8333 6.5,57.5C 4.43525,57.5172 2.43525,57.8505 0.5,58.5C 0.5,57.8333 0.166667,57.5 -0.5,57.5C -0.5,54.8333 -0.5,52.1667 -0.5,49.5C 1.16667,49.5 2.83333,49.5 4.5,49.5C 4.5,48.1667 4.5,46.8333 4.5,45.5C 2.83333,45.5 1.16667,45.5 -0.5,45.5C -0.5,42.8333 -0.5,40.1667 -0.5,37.5 Z"/></g>
<g><path style="opacity:1" fill="#f1b308" d="M 69.5,37.5 C 73.1612,37.3501 74.1612,38.8501 72.5,42C 71.5509,42.6172 70.7175,42.4506 70,41.5C 69.51,40.2068 69.3433,38.8734 69.5,37.5 Z"/></g>
<g><path style="opacity:0.988" fill="#926a05" d="M -0.5,45.5 C 1.16667,45.5 2.83333,45.5 4.5,45.5C 4.5,46.8333 4.5,48.1667 4.5,49.5C 2.83333,49.5 1.16667,49.5 -0.5,49.5C -0.5,48.1667 -0.5,46.8333 -0.5,45.5 Z"/></g>
<g><path style="opacity:0.988" fill="#926a05" d="M 95.5,45.5 C 95.5,46.8333 95.5,48.1667 95.5,49.5C 93.8333,49.5 92.1667,49.5 90.5,49.5C 90.5,48.1667 90.5,46.8333 90.5,45.5C 92.1667,45.5 93.8333,45.5 95.5,45.5 Z"/></g>
<g><path style="opacity:1" fill="#c8900d" d="M 94.5,36.5 C 94.5,37.1667 94.8333,37.5 95.5,37.5C 95.5,40.1667 95.5,42.8333 95.5,45.5C 93.8333,45.5 92.1667,45.5 90.5,45.5C 90.5,46.8333 90.5,48.1667 90.5,49.5C 92.1667,49.5 93.8333,49.5 95.5,49.5C 95.5,52.1667 95.5,54.8333 95.5,57.5C 94.8333,57.5 94.5,57.8333 94.5,58.5C 92.8828,57.962 91.2161,57.6287 89.5,57.5C 89.5,50.8333 89.5,44.1667 89.5,37.5C 91.1172,36.962 92.7839,36.6287 94.5,36.5 Z"/></g>
<g><path style="opacity:1" fill="#f5b208" d="M 30.5,51.5 C 42.1667,51.5 53.8333,51.5 65.5,51.5C 65.5,59.5 65.5,67.5 65.5,75.5C 53.8333,75.5 42.1667,75.5 30.5,75.5C 30.5,67.5 30.5,59.5 30.5,51.5 Z"/></g>
<g><path style="opacity:1" fill="#5a4203" d="M 35.5,55.5 C 43.8333,55.5 52.1667,55.5 60.5,55.5C 60.5,56.8333 60.5,58.1667 60.5,59.5C 51.8333,59.5 43.1667,59.5 34.5,59.5C 34.4326,58.0413 34.7659,56.7079 35.5,55.5 Z"/></g>
<g><path style="opacity:1" fill="#8d6708" d="M 6.5,57.5 C 6.5,57.8333 6.5,58.1667 6.5,58.5C 5.39473,60.2231 3.72806,61.2231 1.5,61.5C 0.596028,60.791 0.262695,59.791 0.5,58.5C 2.43525,57.8505 4.43525,57.5172 6.5,57.5 Z"/></g>
<g><path style="opacity:1" fill="#8e680b" d="M 89.5,57.5 C 91.2161,57.6287 92.8828,57.962 94.5,58.5C 94.7373,59.791 94.404,60.791 93.5,61.5C 91.2719,61.2231 89.6053,60.2231 88.5,58.5C 88.5,57.8333 88.8333,57.5 89.5,57.5 Z"/></g>
<g><path style="opacity:1" fill="#c99113" d="M 6.5,58.5 C 7.36741,61.4435 8.36741,64.4435 9.5,67.5C 7.95047,68.4408 6.2838,69.1075 4.5,69.5C 2.98023,67.1098 1.98023,64.4432 1.5,61.5C 3.72806,61.2231 5.39473,60.2231 6.5,58.5 Z"/></g>
<g><path style="opacity:1" fill="#c79013" d="M 88.5,58.5 C 89.6053,60.2231 91.2719,61.2231 93.5,61.5C 93.0198,64.4432 92.0198,67.1098 90.5,69.5C 88.7162,69.1075 87.0495,68.4408 85.5,67.5C 86.6326,64.4435 87.6326,61.4435 88.5,58.5 Z"/></g>
<g><path style="opacity:1" fill="#594104" d="M 60.5,66.5 C 51.8832,65.2572 43.2165,65.2572 34.5,66.5C 34.4142,65.5041 34.7476,64.6708 35.5,64C 43.8267,63.5003 52.16,63.3336 60.5,63.5C 60.5,64.5 60.5,65.5 60.5,66.5 Z"/></g>
<g><path style="opacity:1" fill="#ae7e08" d="M 19.5,65.5 C 21.8333,65.5 24.1667,65.5 26.5,65.5C 26.5,69.8333 26.5,74.1667 26.5,78.5C 25.5184,75.0381 25.185,71.3714 25.5,67.5C 22.9899,67.9465 20.9899,67.2798 19.5,65.5 Z"/></g>
<g><path style="opacity:1" fill="#614703" d="M 60.5,66.5 C 51.8333,67.8333 43.1667,67.8333 34.5,66.5C 43.2165,65.2572 51.8832,65.2572 60.5,66.5 Z"/></g>
<g><path style="opacity:1" fill="#b88405" d="M 79.5,35.5 C 80.1174,35.6107 80.6174,35.944 81,36.5C 81.6667,45.8333 81.6667,55.1667 81,64.5C 78.4537,67.1856 75.287,68.1856 71.5,67.5C 71.8,72.0986 71.4667,76.5986 70.5,81C 56.5,81.6667 42.5,81.6667 28.5,81C 27.944,80.6174 27.6107,80.1174 27.5,79.5C 41.1707,79.6666 54.8374,79.4999 68.5,79C 69.4667,74.5986 69.8,70.0986 69.5,65.5C 73.287,66.1856 76.4537,65.1856 79,62.5C 79.4998,53.5062 79.6664,44.5062 79.5,35.5 Z"/></g>
<g><path style="opacity:1" fill="#926b0c" d="M 9.5,67.5 C 10.3382,67.8417 10.6716,68.5084 10.5,69.5C 9.5,71.1667 8.16667,72.5 6.5,73.5C 5.83333,72.1667 5.16667,70.8333 4.5,69.5C 6.2838,69.1075 7.95047,68.4408 9.5,67.5 Z"/></g>
<g><path style="opacity:1" fill="#916a0a" d="M 85.5,67.5 C 87.0495,68.4408 88.7162,69.1075 90.5,69.5C 89.8333,70.8333 89.1667,72.1667 88.5,73.5C 86.8333,72.5 85.5,71.1667 84.5,69.5C 84.3284,68.5084 84.6618,67.8417 85.5,67.5 Z"/></g>
<g><path style="opacity:1" fill="#c79011" d="M 10.5,69.5 C 12.5475,71.5496 14.2141,73.883 15.5,76.5C 14.5,77.8333 13.5,79.1667 12.5,80.5C 9.79973,78.7656 7.79973,76.4323 6.5,73.5C 8.16667,72.5 9.5,71.1667 10.5,69.5 Z"/></g>
<g><path style="opacity:1" fill="#c79013" d="M 84.5,69.5 C 85.5,71.1667 86.8333,72.5 88.5,73.5C 87.2003,76.4323 85.2003,78.7656 82.5,80.5C 81.5,79.1667 80.5,77.8333 79.5,76.5C 80.7859,73.883 82.4525,71.5496 84.5,69.5 Z"/></g>
<g><path style="opacity:1" fill="#956c05" d="M 30.5,51.5 C 30.5,59.5 30.5,67.5 30.5,75.5C 42.1667,75.5 53.8333,75.5 65.5,75.5C 53.6783,76.4951 41.6783,76.8284 29.5,76.5C 29.1739,67.9832 29.5073,59.6499 30.5,51.5 Z"/></g>
<g><path style="opacity:1" fill="#8e6807" d="M 15.5,76.5 C 16.8333,77.1667 17.8333,78.1667 18.5,79.5C 17.1667,80.5 15.8333,81.5 14.5,82.5C 13.5,82.1667 12.8333,81.5 12.5,80.5C 13.5,79.1667 14.5,77.8333 15.5,76.5 Z"/></g>
<g><path style="opacity:1" fill="#8e6808" d="M 79.5,76.5 C 80.5,77.8333 81.5,79.1667 82.5,80.5C 82.1667,81.5 81.5,82.1667 80.5,82.5C 79.1667,81.5 77.8333,80.5 76.5,79.5C 77.1667,78.1667 78.1667,77.1667 79.5,76.5 Z"/></g>
<g><path style="opacity:1" fill="#c89112" d="M 18.5,79.5 C 20.7772,80.4486 22.7772,81.7819 24.5,83.5C 23.5592,85.0495 22.8925,86.7162 22.5,88.5C 19.1092,87.4707 16.4426,85.4707 14.5,82.5C 15.8333,81.5 17.1667,80.5 18.5,79.5 Z"/></g>
<g><path style="opacity:1" fill="#c79012" d="M 76.5,79.5 C 77.8333,80.5 79.1667,81.5 80.5,82.5C 78.5574,85.4707 75.8908,87.4707 72.5,88.5C 72.2624,86.5956 71.2624,85.2623 69.5,84.5C 71.5496,82.4525 73.883,80.7859 76.5,79.5 Z"/></g>
<g><path style="opacity:1" fill="#906a0a" d="M 24.5,83.5 C 25.7095,83.9321 26.7095,84.5987 27.5,85.5C 26.5592,87.0495 25.8925,88.7162 25.5,90.5C 23.9731,90.573 22.9731,89.9063 22.5,88.5C 22.8925,86.7162 23.5592,85.0495 24.5,83.5 Z"/></g>
<g><path style="opacity:1" fill="#c99110" d="M 27.5,85.5 C 30.5565,86.6326 33.5565,87.6326 36.5,88.5C 34.2591,89.2998 33.2591,90.9664 33.5,93.5C 30.4582,93.2671 27.7916,92.2671 25.5,90.5C 25.8925,88.7162 26.5592,87.0495 27.5,85.5 Z"/></g>
<g><path style="opacity:1" fill="#c99110" d="M 67.5,85.5 C 68.4408,87.0495 69.1075,88.7162 69.5,90.5C 67.2084,92.2671 64.5418,93.2671 61.5,93.5C 61.7409,90.9664 60.7409,89.2998 58.5,88.5C 61.4435,87.6326 64.4435,86.6326 67.5,85.5 Z"/></g>
<g><path style="opacity:1" fill="#8f6a0e" d="M 69.5,84.5 C 71.2624,85.2623 72.2624,86.5956 72.5,88.5C 72.0269,89.9063 71.0269,90.573 69.5,90.5C 69.1075,88.7162 68.4408,87.0495 67.5,85.5C 67.8417,84.6618 68.5084,84.3284 69.5,84.5 Z"/></g>
<g><path style="opacity:1" fill="#c7900b" d="M 37.5,89.5 C 44.1667,89.5 50.8333,89.5 57.5,89.5C 57.6287,91.2161 57.962,92.8828 58.5,94.5C 57.8333,94.5 57.5,94.8333 57.5,95.5C 54.8333,95.5 52.1667,95.5 49.5,95.5C 49.5,93.8333 49.5,92.1667 49.5,90.5C 48.1667,90.5 46.8333,90.5 45.5,90.5C 45.5,92.1667 45.5,93.8333 45.5,95.5C 42.8333,95.5 40.1667,95.5 37.5,95.5C 37.5,94.8333 37.1667,94.5 36.5,94.5C 36.6287,92.7839 36.962,91.1172 37.5,89.5 Z"/></g>
<g><path style="opacity:1" fill="#8e6808" d="M 36.5,88.5 C 37.1667,88.5 37.5,88.8333 37.5,89.5C 36.962,91.1172 36.6287,92.7839 36.5,94.5C 35.209,94.7373 34.209,94.404 33.5,93.5C 33.2591,90.9664 34.2591,89.2998 36.5,88.5 Z"/></g>
<g><path style="opacity:0.987" fill="#926a05" d="M 49.5,95.5 C 48.1667,95.5 46.8333,95.5 45.5,95.5C 45.5,93.8333 45.5,92.1667 45.5,90.5C 46.8333,90.5 48.1667,90.5 49.5,90.5C 49.5,92.1667 49.5,93.8333 49.5,95.5 Z"/></g>
<g><path style="opacity:1" fill="#916a09" d="M 58.5,88.5 C 60.7409,89.2998 61.7409,90.9664 61.5,93.5C 60.791,94.404 59.791,94.7373 58.5,94.5C 57.962,92.8828 57.6287,91.2161 57.5,89.5C 57.5,88.8333 57.8333,88.5 58.5,88.5 Z"/></g>
</svg>
