<?xml version="1.0" encoding="UTF-8"?>
<!DOCTYPE svg PUBLIC "-//W3C//DTD SVG 1.1//EN" "http://www.w3.org/Graphics/SVG/1.1/DTD/svg11.dtd">
<svg xmlns="http://www.w3.org/2000/svg" version="1.1" width="96px" height="96px" style="shape-rendering:geometricPrecision; text-rendering:geometricPrecision; image-rendering:optimizeQuality; fill-rule:evenodd; clip-rule:evenodd" xmlns:xlink="http://www.w3.org/1999/xlink">
<g><path style="opacity:0.867" fill="#d9bb90" d="M 36.5,-0.5 C 43.8333,-0.5 51.1667,-0.5 58.5,-0.5C 77.1667,5.5 89.5,17.8333 95.5,36.5C 95.5,43.8333 95.5,51.1667 95.5,58.5C 89.5,77.1667 77.1667,89.5 58.5,95.5C 51.1667,95.5 43.8333,95.5 36.5,95.5C 17.8333,89.5 5.5,77.1667 -0.5,58.5C -0.5,51.1667 -0.5,43.8333 -0.5,36.5C 5.5,17.8333 17.8333,5.5 36.5,-0.5 Z"/></g>
<g><path style="opacity:1" fill="#232223" d="M 37.5,1.5 C 65.6668,-1.17826 84.1668,10.8217 93,37.5C 96.1636,65.6869 84.3303,84.1869 57.5,93C 29.3131,96.1636 10.8131,84.3303 2,57.5C -1.04282,29.2265 10.7905,10.5599 37.5,1.5 Z"/></g>
<g><path style="opacity:1" fill="#e1ca9b" d="M 37.5,10.5 C 60.7622,7.31046 76.2622,16.6438 84,38.5C 87.1591,61.3011 77.9924,76.4677 56.5,84C 35.1378,87.407 20.3045,79.2404 12,59.5C 6.79126,35.9145 15.2913,19.5812 37.5,10.5 Z"/></g>
<g><path style="opacity:1" fill="#222222" d="M 42.5,11.5 C 64.4769,10.8922 77.9769,21.2255 83,42.5C 84.2496,64.5852 74.0829,78.0852 52.5,83C 30.5276,84.096 17.0276,73.9293 12,52.5C 11.0258,30.4184 21.1924,16.7518 42.5,11.5 Z"/></g>
<g><path style="opacity:1" fill="#927b63" d="M 26.5,66.5 C 38.3217,67.4951 50.3217,67.8284 62.5,67.5C 50.327,68.8247 37.9937,68.8247 25.5,67.5C 25.6236,66.8933 25.9569,66.56 26.5,66.5 Z"/></g>
<g><path style="opacity:1" fill="#7b6955" d="M 25.5,54.5 C 27.924,54.1924 30.2573,54.5258 32.5,55.5C 32.3764,56.1067 32.0431,56.44 31.5,56.5C 29.5,55.8333 27.5,55.1667 25.5,54.5 Z"/></g>
<g><path style="opacity:1" fill="#efd2a1" d="M 62.5,67.5 C 50.3217,67.8284 38.3217,67.4951 26.5,66.5C 27.6417,62.8832 29.3084,59.5498 31.5,56.5C 32.0431,56.44 32.3764,56.1067 32.5,55.5C 30.2573,54.5258 27.924,54.1924 25.5,54.5C 31.4383,43.3892 37.605,32.3892 44,21.5C 46.3333,25.5 48.6667,29.5 51,33.5C 51.972,31.6951 53.1387,30.0284 54.5,28.5C 60.9595,39.2512 67.2928,50.0846 73.5,61C 68.8333,61.3333 64.1667,61.6667 59.5,62C 60.6394,63.7804 61.6394,65.6137 62.5,67.5 Z"/></g>
<g><path style="opacity:1" fill="#232323" d="M 35.5,55.5 C 36.552,55.3505 37.552,55.5172 38.5,56C 37.5,57.6667 36.5,59.3333 35.5,61C 42.5236,61.1689 49.5236,61.6689 56.5,62.5C 56.8333,63.1667 57.1667,63.8333 57.5,64.5C 48.5,65.8333 39.5,65.8333 30.5,64.5C 31.9252,61.3116 33.5919,58.3116 35.5,55.5 Z"/></g>
<g><path style="opacity:1" fill="#2a2827" d="M 42.5,54.5 C 45.8984,54.1796 49.2317,54.513 52.5,55.5C 52.8333,56.1667 53.1667,56.8333 53.5,57.5C 49.2047,58.6609 44.8713,58.8275 40.5,58C 41.305,56.8873 41.9717,55.7206 42.5,54.5 Z"/></g>
<g><path style="opacity:1" fill="#796754" d="M 62.5,54.5 C 60.5,55.1667 58.5,55.8333 56.5,56.5C 55.9569,56.44 55.6236,56.1067 55.5,55.5C 57.7427,54.5258 60.076,54.1924 62.5,54.5 Z"/></g>
<g><path style="opacity:1" fill="#6c5d4c" d="M 49.5,50.5 C 50.0431,50.56 50.3764,50.8933 50.5,51.5C 48.3635,52.7928 46.3635,52.7928 44.5,51.5C 46.4147,51.7845 48.0813,51.4511 49.5,50.5 Z"/></g>
<g><path style="opacity:1" fill="#1e1e1f" d="M 56.5,56.5 C 58.5,55.8333 60.5,55.1667 62.5,54.5C 59.1788,48.5272 55.8455,42.5272 52.5,36.5C 52.8333,35.5 53.5,34.8333 54.5,34.5C 59.5296,42.0497 64.1963,49.883 68.5,58C 64.8333,58.6667 61.1667,58.6667 57.5,58C 56.944,57.6174 56.6107,57.1174 56.5,56.5 Z"/></g>
<g><path style="opacity:1" fill="#171819" d="M 49.5,50.5 C 48.0813,51.4511 46.4147,51.7845 44.5,51.5C 46.029,45.8386 47.6956,45.5052 49.5,50.5 Z"/></g>
<g><path style="opacity:1" fill="#222121" d="M 43.5,40.5 C 45.2726,41.3143 45.7726,42.6476 45,44.5C 43.4577,47.6192 41.4577,50.2859 39,52.5C 38.5,52.1667 38,51.8333 37.5,51.5C 39.7664,47.9663 41.7664,44.2996 43.5,40.5 Z"/></g>
<g><path style="opacity:1" fill="#212121" d="M 50.5,40.5 C 53.5575,43.5935 55.8909,47.2601 57.5,51.5C 56.1667,52.8333 54.8333,52.8333 53.5,51.5C 50.9099,48.0664 49.9099,44.3997 50.5,40.5 Z"/></g>
<g><path style="opacity:1" fill="#1f1f20" d="M 43.5,27.5 C 45.7247,30.2624 47.7247,33.2624 49.5,36.5C 49.0814,37.6721 48.4147,38.6721 47.5,39.5C 46.3333,37.8333 45.1667,36.1667 44,34.5C 40.3264,39.8436 37.1597,45.5103 34.5,51.5C 33.1667,52.8333 31.8333,52.8333 30.5,51.5C 34.8458,43.473 39.1791,35.473 43.5,27.5 Z"/></g>
</svg>
