<?xml version="1.0" encoding="UTF-8"?>
<!DOCTYPE svg PUBLIC "-//W3C//DTD SVG 1.1//EN" "http://www.w3.org/Graphics/SVG/1.1/DTD/svg11.dtd">
<svg xmlns="http://www.w3.org/2000/svg" version="1.1" width="96px" height="96px" style="shape-rendering:geometricPrecision; text-rendering:geometricPrecision; image-rendering:optimizeQuality; fill-rule:evenodd; clip-rule:evenodd" xmlns:xlink="http://www.w3.org/1999/xlink">
<g><path style="opacity:0.965" fill="#fcfafa" d="M 37.5,-0.5 C 44.1667,-0.5 50.8333,-0.5 57.5,-0.5C 76.7369,5.07001 89.4035,17.4033 95.5,36.5C 95.5,43.8333 95.5,51.1667 95.5,58.5C 90.568,74.4375 80.568,86.1042 65.5,93.5C 62.9327,93.7215 60.5994,94.3882 58.5,95.5C 51.1667,95.5 43.8333,95.5 36.5,95.5C 17.4033,89.4035 5.07001,76.7369 -0.5,57.5C -0.5,50.8333 -0.5,44.1667 -0.5,37.5C 5.16667,17.8333 17.8333,5.16667 37.5,-0.5 Z"/></g>
<g><path style="opacity:1" fill="#21f273" d="M 54.5,11.5 C 52.3495,15.2806 51.3495,14.6139 51.5,9.5C 52.7514,7.439 54.4181,7.10566 56.5,8.5C 55.8075,9.51776 55.1408,10.5178 54.5,11.5 Z"/></g>
<g><path style="opacity:1" fill="#34d897" d="M 51.5,9.5 C 51.3495,14.6139 52.3495,15.2806 54.5,11.5C 54.6631,15.7878 56.9964,18.1212 61.5,18.5C 58.8541,19.1644 56.0208,19.4978 53,19.5C 49.5666,19.4033 46.4,18.7366 43.5,17.5C 41.4727,17.6621 39.4727,17.4955 37.5,17C 37.8333,16.6667 38.1667,16.3333 38.5,16C 42.4862,15.5012 46.4862,15.3345 50.5,15.5C 50.2053,13.2646 50.5386,11.2646 51.5,9.5 Z"/></g>
<g><path style="opacity:1" fill="#382763" d="M 34.5,18.5 C 36.5273,18.3379 38.5273,18.5045 40.5,19C 38.1176,22.2936 36.1176,22.1269 34.5,18.5 Z"/></g>
<g><path style="opacity:1" fill="#30c0a6" d="M 43.5,17.5 C 46.4,18.7366 49.5666,19.4033 53,19.5C 56.0208,19.4978 58.8541,19.1644 61.5,18.5C 67.4533,18.3723 67.7866,19.039 62.5,20.5C 58.5,20.5 54.5,20.5 50.5,20.5C 46.0985,19.8696 42.4318,21.2029 39.5,24.5C 39.1667,24.3333 38.8333,24.1667 38.5,24C 39.9993,21.6721 41.666,19.5054 43.5,17.5 Z"/></g>
<g><path style="opacity:1" fill="#34b2b4" d="M 50.5,20.5 C 54.5,20.5 58.5,20.5 62.5,20.5C 64.195,22.2134 65.0283,24.2134 65,26.5C 64.2917,25.6195 63.4584,24.9528 62.5,24.5C 61.8333,24.5 61.5,24.1667 61.5,23.5C 60.2196,22.0687 58.5529,21.4021 56.5,21.5C 56.7373,22.791 56.404,23.791 55.5,24.5C 54.1667,24.5 52.8333,24.5 51.5,24.5C 51.1667,23.1667 50.8333,21.8333 50.5,20.5 Z"/></g>
<g><path style="opacity:1" fill="#563170" d="M 45.5,21.5 C 46.9778,21.238 48.3112,21.5713 49.5,22.5C 48.8333,22.8333 48.1667,23.1667 47.5,23.5C 46.2867,23.2528 45.62,22.5862 45.5,21.5 Z"/></g>
<g><path style="opacity:1" fill="#2d88cc" d="M 51.5,24.5 C 52.8333,24.5 54.1667,24.5 55.5,24.5C 53.262,27.7473 51.9286,27.7473 51.5,24.5 Z"/></g>
<g><path style="opacity:1" fill="#694673" d="M 61.5,23.5 C 61.5,24.1667 61.8333,24.5 62.5,24.5C 60.9652,25.7879 59.2985,25.7879 57.5,24.5C 58.6888,23.5713 60.0222,23.238 61.5,23.5 Z"/></g>
<g><path style="opacity:1" fill="#542a65" d="M 65.5,23.5 C 67.0699,22.4407 68.4032,22.9407 69.5,25C 67.8067,25.484 66.4733,24.984 65.5,23.5 Z"/></g>
<g><path style="opacity:1" fill="#7a1764" d="M 28.5,22.5 C 33.4702,21.8904 36.6369,23.8904 38,28.5C 41.2779,25.2029 45.1112,24.5362 49.5,26.5C 49.5,27.5 49.5,28.5 49.5,29.5C 52.1555,28.842 54.8222,28.1754 57.5,27.5C 62.8142,28.1781 68.1475,28.6781 73.5,29C 74.2931,30.0852 74.9598,31.2519 75.5,32.5C 58.7007,34.8112 42.3674,32.9779 26.5,27C 26.0426,26.586 25.7093,26.086 25.5,25.5C 26.3398,24.265 27.3398,23.265 28.5,22.5 Z"/></g>
<g><path style="opacity:1" fill="#931764" d="M 37.5,34.5 C 31.1667,34.5 24.8333,34.5 18.5,34.5C 19.4238,32.0751 20.9238,30.0751 23,28.5C 27.8931,30.6234 32.7265,32.6234 37.5,34.5 Z"/></g>
<g><path style="opacity:1" fill="#b42067" d="M 18.5,34.5 C 24.8333,34.5 31.1667,34.5 37.5,34.5C 43.3579,35.1411 49.0246,36.1411 54.5,37.5C 46.8583,38.1918 39.1916,38.6918 31.5,39C 33.0581,39.21 34.3915,39.71 35.5,40.5C 34.8333,40.5 34.5,40.8333 34.5,41.5C 28.3253,40.6794 22.9919,38.346 18.5,34.5 Z"/></g>
<g><path style="opacity:1" fill="#c31164" d="M 78.5,38.5 C 64.4106,40.4565 50.0772,41.1232 35.5,40.5C 34.3915,39.71 33.0581,39.21 31.5,39C 39.1916,38.6918 46.8583,38.1918 54.5,37.5C 61.3609,37.6944 68.1942,37.3611 75,36.5C 76.6811,36.6083 77.8478,37.2749 78.5,38.5 Z"/></g>
<g><path style="opacity:1" fill="#dc2969" d="M 78.5,38.5 C 79.5664,40.7014 80.233,43.0347 80.5,45.5C 64.8373,47.6124 49.504,46.2791 34.5,41.5C 34.5,40.8333 34.8333,40.5 35.5,40.5C 50.0772,41.1232 64.4106,40.4565 78.5,38.5 Z"/></g>
<g><path style="opacity:1" fill="#fb225f" d="M 78.5,58.5 C 64.1667,57.1667 49.8333,57.1667 35.5,58.5C 28.6762,57.0588 22.1762,54.7255 16,51.5C 15.3333,47.8333 15.3333,44.1667 16,40.5C 16.5613,39.9781 17.228,39.6448 18,39.5C 37.8026,49.6941 58.636,52.6941 80.5,48.5C 80.678,52.1224 80.0114,55.4557 78.5,58.5 Z"/></g>
<g><path style="opacity:1" fill="#fe3457" d="M 78.5,58.5 C 78.5,59.5 78.5,60.5 78.5,61.5C 63.8298,63.4618 49.4965,62.4618 35.5,58.5C 49.8333,57.1667 64.1667,57.1667 78.5,58.5 Z"/></g>
<g><path style="opacity:1" fill="#fe3d53" d="M 41.5,64.5 C 34.7034,64.5192 27.7034,64.6859 20.5,65C 21.7383,65.69 21.7383,66.19 20.5,66.5C 17.668,63.2086 16.3347,59.5419 16.5,55.5C 24.4877,59.4956 32.821,62.4956 41.5,64.5 Z"/></g>
<g><path style="opacity:1" fill="#fe5c4d" d="M 41.5,64.5 C 52.0565,66.7171 62.7232,67.0505 73.5,65.5C 74.1667,65.8333 74.8333,66.1667 75.5,66.5C 74.3875,68.4192 73.0542,70.0858 71.5,71.5C 58.5,71.5 45.5,71.5 32.5,71.5C 27.9132,70.9787 23.9132,69.312 20.5,66.5C 21.7383,66.19 21.7383,65.69 20.5,65C 27.7034,64.6859 34.7034,64.5192 41.5,64.5 Z"/></g>
<g><path style="opacity:1" fill="#fd7249" d="M 32.5,71.5 C 45.5,71.5 58.5,71.5 71.5,71.5C 70.657,73.1733 69.3237,74.34 67.5,75C 55.445,76.3208 43.7783,75.1541 32.5,71.5 Z"/></g>
<g><path style="opacity:1" fill="#fd813e" d="M 48.5,77.5 C 52.8333,78.1667 57.1667,78.8333 61.5,79.5C 49.9234,83.1193 38.9234,81.9526 28.5,76C 27.5,75 26.5,74 25.5,73C 29.1646,73.6448 32.8313,74.6448 36.5,76C 40.4402,77.0153 44.4402,77.5153 48.5,77.5 Z"/></g>
<g><path style="opacity:1" fill="#f1c7b1" d="M 48.5,77.5 C 53.2137,77.1734 57.8804,77.5067 62.5,78.5C 62.3764,79.1067 62.0431,79.44 61.5,79.5C 57.1667,78.8333 52.8333,78.1667 48.5,77.5 Z"/></g>
<g><path style="opacity:0.004" fill="#fefffe" d="M 65.5,93.5 C 66.8333,94.1667 66.8333,94.1667 65.5,93.5 Z"/></g>
</svg>
