<?xml version="1.0" encoding="UTF-8"?>
<!DOCTYPE svg PUBLIC "-//W3C//DTD SVG 1.1//EN" "http://www.w3.org/Graphics/SVG/1.1/DTD/svg11.dtd">
<svg xmlns="http://www.w3.org/2000/svg" version="1.1" width="96px" height="96px" style="shape-rendering:geometricPrecision; text-rendering:geometricPrecision; image-rendering:optimizeQuality; fill-rule:evenodd; clip-rule:evenodd" xmlns:xlink="http://www.w3.org/1999/xlink">
<g><path style="opacity:0.966" fill="#020101" d="M 37.5,-0.5 C 43.8333,-0.5 50.1667,-0.5 56.5,-0.5C 76.76,4.76047 89.76,17.4271 95.5,37.5C 95.5,43.8333 95.5,50.1667 95.5,56.5C 90.2879,76.7127 77.6212,89.7127 57.5,95.5C 50.8333,95.5 44.1667,95.5 37.5,95.5C 18.2717,89.9388 5.60508,77.6055 -0.5,58.5C -0.5,51.1667 -0.5,43.8333 -0.5,36.5C 5.57055,17.4299 18.2372,5.09655 37.5,-0.5 Z"/></g>
<g><path style="opacity:1" fill="#707070" d="M 31.5,22.5 C 33.8097,21.8362 36.3097,21.5029 39,21.5C 41.9294,21.5248 44.4294,22.1914 46.5,23.5C 41.5947,22.5546 36.5947,22.2213 31.5,22.5 Z"/></g>
<g><path style="opacity:1" fill="#f1f0f0" d="M 31.5,22.5 C 36.5947,22.2213 41.5947,22.5546 46.5,23.5C 45.5,24.5 44.5,25.5 43.5,26.5C 40.2719,26.2994 37.1052,26.6328 34,27.5C 32.6014,29.6148 30.768,31.2815 28.5,32.5C 27.1667,34.8333 27.1667,37.1667 28.5,39.5C 30.019,40.8513 31.3523,42.3513 32.5,44C 34.4727,44.4955 36.4727,44.6621 38.5,44.5C 38.7851,48.7166 36.7851,50.8832 32.5,51C 30.195,53.4575 28.5284,56.2908 27.5,59.5C 28.2043,61.5351 28.871,63.5351 29.5,65.5C 31.5795,66.0444 33.5795,66.8777 35.5,68C 38.6965,68.8045 41.6965,68.6378 44.5,67.5C 46.2624,66.7377 47.2624,65.4044 47.5,63.5C 48.1577,62.6016 48.8243,61.6016 49.5,60.5C 50.8333,51.8333 50.8333,43.1667 49.5,34.5C 48.8243,33.3984 48.1577,32.3984 47.5,31.5C 48.0798,29.2512 49.4131,27.5846 51.5,26.5C 52.452,27.452 53.452,28.452 54.5,29.5C 55.8333,41.5 55.8333,53.5 54.5,65.5C 53.452,66.548 52.452,67.548 51.5,68.5C 49.8333,69.5 48.5,70.8333 47.5,72.5C 40.7586,72.8288 34.092,72.3288 27.5,71C 21.2791,63.5499 20.9458,55.7166 26.5,47.5C 21.015,39.7212 21.1817,32.0545 27,24.5C 28.6225,23.9011 30.1225,23.2344 31.5,22.5 Z"/></g>
<g><path style="opacity:1" fill="#de2a3f" d="M 47.5,72.5 C 48.5,70.8333 49.8333,69.5 51.5,68.5C 65.2065,69.4953 69.5398,63.8286 64.5,51.5C 62.1667,50.8333 59.8333,50.1667 57.5,49.5C 56.5481,47.9547 56.2148,46.288 56.5,44.5C 63.6623,45.8784 67.329,42.8784 67.5,35.5C 67.0437,31.7061 65.0437,29.0394 61.5,27.5C 58.2169,26.673 54.8835,26.3396 51.5,26.5C 49.4131,27.5846 48.0798,29.2512 47.5,31.5C 46.8423,32.3984 46.1757,33.3984 45.5,34.5C 44.1667,43.1667 44.1667,51.8333 45.5,60.5C 46.1757,61.6016 46.8423,62.6016 47.5,63.5C 47.2624,65.4044 46.2624,66.7377 44.5,67.5C 43.5,67.5 42.5,67.5 41.5,67.5C 39.3414,55.6016 39.0081,43.6016 40.5,31.5C 41.2745,29.6036 42.2745,27.937 43.5,26.5C 44.5,25.5 45.5,24.5 46.5,23.5C 54.7174,20.1976 62.384,21.1976 69.5,26.5C 73.8875,34.0932 73.2208,41.0932 67.5,47.5C 73.0664,53.9318 73.733,60.9318 69.5,68.5C 68.1191,70.6911 66.1191,72.0244 63.5,72.5C 58.0136,73.8147 52.6803,73.8147 47.5,72.5 Z"/></g>
<g><path style="opacity:1" fill="#0c0a0a" d="M 43.5,26.5 C 42.2745,27.937 41.2745,29.6036 40.5,31.5C 39.0081,43.6016 39.3414,55.6016 41.5,67.5C 42.5,67.5 43.5,67.5 44.5,67.5C 41.6965,68.6378 38.6965,68.8045 35.5,68C 33.5795,66.8777 31.5795,66.0444 29.5,65.5C 28.871,63.5351 28.2043,61.5351 27.5,59.5C 28.5284,56.2908 30.195,53.4575 32.5,51C 36.7851,50.8832 38.7851,48.7166 38.5,44.5C 36.4727,44.6621 34.4727,44.4955 32.5,44C 31.3523,42.3513 30.019,40.8513 28.5,39.5C 27.1667,37.1667 27.1667,34.8333 28.5,32.5C 30.768,31.2815 32.6014,29.6148 34,27.5C 37.1052,26.6328 40.2719,26.2994 43.5,26.5 Z"/></g>
<g><path style="opacity:1" fill="#0b0403" d="M 51.5,26.5 C 54.8835,26.3396 58.2169,26.673 61.5,27.5C 65.0437,29.0394 67.0437,31.7061 67.5,35.5C 67.329,42.8784 63.6623,45.8784 56.5,44.5C 56.2148,46.288 56.5481,47.9547 57.5,49.5C 59.8333,50.1667 62.1667,50.8333 64.5,51.5C 69.5398,63.8286 65.2065,69.4953 51.5,68.5C 52.452,67.548 53.452,66.548 54.5,65.5C 55.8333,53.5 55.8333,41.5 54.5,29.5C 53.452,28.452 52.452,27.452 51.5,26.5 Z"/></g>
<g><path style="opacity:1" fill="#0d0708" d="M 47.5,31.5 C 48.1577,32.3984 48.8243,33.3984 49.5,34.5C 50.8333,43.1667 50.8333,51.8333 49.5,60.5C 48.8243,61.6016 48.1577,62.6016 47.5,63.5C 46.8423,62.6016 46.1757,61.6016 45.5,60.5C 44.1667,51.8333 44.1667,43.1667 45.5,34.5C 46.1757,33.3984 46.8423,32.3984 47.5,31.5 Z"/></g>
</svg>
