<?xml version="1.0" encoding="UTF-8"?>
<!DOCTYPE svg PUBLIC "-//W3C//DTD SVG 1.1//EN" "http://www.w3.org/Graphics/SVG/1.1/DTD/svg11.dtd">
<svg xmlns="http://www.w3.org/2000/svg" version="1.1" width="96px" height="96px" style="shape-rendering:geometricPrecision; text-rendering:geometricPrecision; image-rendering:optimizeQuality; fill-rule:evenodd; clip-rule:evenodd" xmlns:xlink="http://www.w3.org/1999/xlink">
<g><path style="opacity:0.989" fill="#333333" d="M 37.5,-0.5 C 44.1667,-0.5 50.8333,-0.5 57.5,-0.5C 77.1667,5.16667 89.8333,17.8333 95.5,37.5C 95.5,44.1667 95.5,50.8333 95.5,57.5C 89.8333,77.1667 77.1667,89.8333 57.5,95.5C 50.8333,95.5 44.1667,95.5 37.5,95.5C 17.8333,89.8333 5.16667,77.1667 -0.5,57.5C -0.5,50.8333 -0.5,44.1667 -0.5,37.5C 5.16667,17.8333 17.8333,5.16667 37.5,-0.5 Z"/></g>
<g><path style="opacity:1" fill="#ebe6da" d="M 47.5,18.5 C 50.9716,24.2655 52.6383,30.5989 52.5,37.5C 49.5,37.5 46.5,37.5 43.5,37.5C 42.8092,30.7039 44.1426,24.3706 47.5,18.5 Z"/></g>
<g><path style="opacity:1" fill="#f4eee3" d="M 31.5,25.5 C 32.2216,25.9175 32.7216,26.5842 33,27.5C 33.4983,30.8168 33.665,34.1501 33.5,37.5C 32.1667,37.5 30.8333,37.5 29.5,37.5C 29.1906,33.2953 29.8572,29.2953 31.5,25.5 Z"/></g>
<g><path style="opacity:1" fill="#e6e2d8" d="M 62.5,24.5 C 66.0057,27.9444 67.339,32.2777 66.5,37.5C 64.8333,37.5 63.1667,37.5 61.5,37.5C 61.4672,33.1311 61.8005,28.7978 62.5,24.5 Z"/></g>
<g><path style="opacity:1" fill="#faf6ea" d="M 33.5,39.5 C 33.5,40.8333 33.5,42.1667 33.5,43.5C 43.015,43.8269 52.3483,43.4936 61.5,42.5C 61.5,41.5 61.5,40.5 61.5,39.5C 62.8333,39.5 64.1667,39.5 65.5,39.5C 65.5,41.5 65.5,43.5 65.5,45.5C 53.5025,44.2402 41.5025,44.2402 29.5,45.5C 29.5,43.5 29.5,41.5 29.5,39.5C 30.8333,39.5 32.1667,39.5 33.5,39.5 Z"/></g>
<g><path style="opacity:1" fill="#b9b4ab" d="M 33.5,39.5 C 34.404,40.209 34.7373,41.209 34.5,42.5C 43.5,42.5 52.5,42.5 61.5,42.5C 52.3483,43.4936 43.015,43.8269 33.5,43.5C 33.5,42.1667 33.5,40.8333 33.5,39.5 Z"/></g>
<g><path style="opacity:1" fill="#e0dace" d="M 65.5,39.5 C 66.4682,41.6074 66.8016,43.9407 66.5,46.5C 61.8333,46.5 57.1667,46.5 52.5,46.5C 52.5,49.8333 52.5,53.1667 52.5,56.5C 49.5,56.5 46.5,56.5 43.5,56.5C 43.8128,52.9581 43.4794,49.6248 42.5,46.5C 38.1667,46.5 33.8333,46.5 29.5,46.5C 29.5,46.1667 29.5,45.8333 29.5,45.5C 41.5025,44.2402 53.5025,44.2402 65.5,45.5C 65.5,43.5 65.5,41.5 65.5,39.5 Z"/></g>
<g><path style="opacity:1" fill="#131415" d="M 29.5,47.5 C 29.5,47.1667 29.5,46.8333 29.5,46.5C 33.8333,46.5 38.1667,46.5 42.5,46.5C 42.665,49.8499 42.4983,53.1832 42,56.5C 41.502,53.5184 41.3354,50.5184 41.5,47.5C 39.5,47.5 37.5,47.5 35.5,47.5C 35.8064,50.3854 35.4731,53.0521 34.5,55.5C 34.5,52.8333 34.5,50.1667 34.5,47.5C 32.8333,47.5 31.1667,47.5 29.5,47.5 Z"/></g>
<g><path style="opacity:1" fill="#837f7d" d="M 29.5,48.5 C 29.5,48.1667 29.5,47.8333 29.5,47.5C 31.1667,47.5 32.8333,47.5 34.5,47.5C 34.5,50.1667 34.5,52.8333 34.5,55.5C 33.5318,53.3926 33.1984,51.0593 33.5,48.5C 32.1667,48.5 30.8333,48.5 29.5,48.5 Z"/></g>
<g><path style="opacity:1" fill="#ebe6db" d="M 61.5,48.5 C 62.8333,48.5 64.1667,48.5 65.5,48.5C 65.5,51.8333 65.5,55.1667 65.5,58.5C 64.928,59.9733 64.0946,61.3066 63,62.5C 62.6667,67.1667 62.3333,71.8333 62,76.5C 56.4185,70.1013 56.0851,63.4347 61,56.5C 61.4974,53.854 61.6641,51.1873 61.5,48.5 Z"/></g>
<g><path style="opacity:1" fill="#95918a" d="M 61.5,48.5 C 62.9187,47.5489 64.5853,47.2155 66.5,47.5C 66.815,51.3714 66.4816,55.0381 65.5,58.5C 65.5,55.1667 65.5,51.8333 65.5,48.5C 64.1667,48.5 62.8333,48.5 61.5,48.5 Z"/></g>
<g><path style="opacity:1" fill="#f0eadf" d="M 29.5,48.5 C 30.8333,48.5 32.1667,48.5 33.5,48.5C 33.1984,51.0593 33.5318,53.3926 34.5,55.5C 38.5,62.1667 38.5,68.8333 34.5,75.5C 33.8333,71.5 33.1667,67.5 32.5,63.5C 29.7727,58.965 28.7727,53.965 29.5,48.5 Z"/></g>
<g><path style="opacity:1" fill="#ede8dc" d="M 45.5,60.5 C 48.3245,60.0807 50.4912,61.0807 52,63.5C 52.4992,68.1548 52.6658,72.8215 52.5,77.5C 49.5,77.5 46.5,77.5 43.5,77.5C 43.3341,72.4889 43.5007,67.4889 44,62.5C 44.7172,61.9558 45.2172,61.2891 45.5,60.5 Z"/></g>
<g><path style="opacity:1" fill="#a7a299" d="M 32.5,63.5 C 33.1667,67.5 33.8333,71.5 34.5,75.5C 34.2172,76.2891 33.7172,76.9558 33,77.5C 32.5008,72.8452 32.3342,68.1785 32.5,63.5 Z"/></g>
</svg>
