<?xml version="1.0" encoding="UTF-8"?>
<!DOCTYPE svg PUBLIC "-//W3C//DTD SVG 1.1//EN" "http://www.w3.org/Graphics/SVG/1.1/DTD/svg11.dtd">
<svg xmlns="http://www.w3.org/2000/svg" version="1.1" width="96px" height="96px" style="shape-rendering:geometricPrecision; text-rendering:geometricPrecision; image-rendering:optimizeQuality; fill-rule:evenodd; clip-rule:evenodd" xmlns:xlink="http://www.w3.org/1999/xlink">
<g><path style="opacity:0.96" fill="#fafafb" d="M 37.5,-0.5 C 44.1667,-0.5 50.8333,-0.5 57.5,-0.5C 77.1667,5.16667 89.8333,17.8333 95.5,37.5C 95.5,44.1667 95.5,50.8333 95.5,57.5C 89.8333,77.1667 77.1667,89.8333 57.5,95.5C 50.8333,95.5 44.1667,95.5 37.5,95.5C 17.8333,89.8333 5.16667,77.1667 -0.5,57.5C -0.5,50.8333 -0.5,44.1667 -0.5,37.5C 5.16667,17.8333 17.8333,5.16667 37.5,-0.5 Z"/></g>
<g><path style="opacity:1" fill="#5e2bdf" d="M 33.5,21.5 C 34.8734,21.3433 36.2068,21.51 37.5,22C 28.45,27.0514 20.6167,33.5514 14,41.5C 16.5836,31.0823 23.0836,24.4156 33.5,21.5 Z"/></g>
<g><path style="opacity:1" fill="#5c33e3" d="M 40.5,21.5 C 44.0128,21.3075 47.3462,21.9741 50.5,23.5C 35.4237,30.7453 22.9237,41.0787 13,54.5C 11.9252,50.1417 12.5919,46.1417 15,42.5C 22.3744,33.9281 30.8744,26.9281 40.5,21.5 Z"/></g>
<g><path style="opacity:1" fill="#5d36e4" d="M 30.5,49.5 C 29.1591,47.88 27.3258,46.88 25,46.5C 21.9641,49.7044 18.7974,52.7044 15.5,55.5C 19.937,49.2281 25.2703,43.7281 31.5,39C 38.228,33.9411 45.228,29.2744 52.5,25C 55.0451,24.3854 57.3785,24.8854 59.5,26.5C 49.5266,33.8097 39.8599,41.4764 30.5,49.5 Z"/></g>
<g><path style="opacity:1" fill="#5c37e4" d="M 48.5,49.5 C 46.4403,47.8463 43.9403,46.8463 41,46.5C 38.3333,49.1667 35.6667,51.8333 33,54.5C 32.6012,54.2716 32.4346,53.9382 32.5,53.5C 44.2235,40.1624 57.8901,29.4958 73.5,21.5C 74.521,22.0016 74.6877,22.6683 74,23.5C 65.9949,32.6716 57.4949,41.3383 48.5,49.5 Z"/></g>
<g><path style="opacity:1" fill="#5a3ce5" d="M 62.5,51.5 C 62.4142,50.5041 62.7476,49.6708 63.5,49C 62.5,48.5 61.5,48 60.5,47.5C 57.5687,47.8286 55.0687,49.4953 53,52.5C 52.6012,52.2716 52.4346,51.9382 52.5,51.5C 60.4973,42.6675 68.3307,33.6675 76,24.5C 76.6924,25.0253 77.1924,25.6919 77.5,26.5C 74.3206,30.2294 72.8206,34.5627 73,39.5C 69.7182,43.7594 66.2182,47.7594 62.5,51.5 Z"/></g>
<g><path style="opacity:1" fill="#5b56ea" d="M 30.5,49.5 C 25.9331,54.9567 21.5998,60.6234 17.5,66.5C 15.418,63.8483 14.0846,60.8483 13.5,57.5C 13.8555,56.4777 14.5222,55.811 15.5,55.5C 18.7974,52.7044 21.9641,49.7044 25,46.5C 27.3258,46.88 29.1591,47.88 30.5,49.5 Z"/></g>
<g><path style="opacity:1" fill="#5b53ea" d="M 48.5,49.5 C 45.9015,53.438 42.9015,57.1047 39.5,60.5C 38.8444,59.7222 38.0111,59.0556 37,58.5C 35.2117,59.3005 33.545,59.6338 32,59.5C 30.5682,57.0688 29.0682,57.0688 27.5,59.5C 28.4194,56.9108 30.086,54.9108 32.5,53.5C 32.4346,53.9382 32.6012,54.2716 33,54.5C 35.6667,51.8333 38.3333,49.1667 41,46.5C 43.9403,46.8463 46.4403,47.8463 48.5,49.5 Z"/></g>
<g><path style="opacity:1" fill="#5652ea" d="M 71.5,65.5 C 70.9569,65.44 70.6236,65.1067 70.5,64.5C 72.4414,62.6841 73.1081,60.6841 72.5,58.5C 70.6203,61.6136 68.287,64.2802 65.5,66.5C 69.1444,60.5557 72.8111,54.5557 76.5,48.5C 77.6517,51.1062 77.8184,53.7728 77,56.5C 75.3382,59.6493 73.5048,62.6493 71.5,65.5 Z"/></g>
<g><path style="opacity:1" fill="#584fe9" d="M 64.5,61.5 C 63.7784,61.0825 63.2784,60.4158 63,59.5C 61,61.5 59,63.5 57,65.5C 56.6012,65.2716 56.4346,64.9382 56.5,64.5C 63.0576,57.0613 68.8909,49.0613 74,40.5C 75.518,42.6137 75.8513,44.947 75,47.5C 71.668,52.3266 68.168,56.9933 64.5,61.5 Z"/></g>
<g><path style="opacity:1" fill="#595beb" d="M 62.5,51.5 C 58.5582,57.6881 53.8915,63.3547 48.5,68.5C 46.9769,66.4896 45.1436,66.1563 43,67.5C 42.6667,66.8333 42.3333,66.1667 42,65.5C 39.6667,67.8333 37.3333,70.1667 35,72.5C 34.6012,72.2716 34.4346,71.9382 34.5,71.5C 40.1584,64.5092 46.1584,57.8425 52.5,51.5C 52.4346,51.9382 52.6012,52.2716 53,52.5C 55.0687,49.4953 57.5687,47.8286 60.5,47.5C 61.5,48 62.5,48.5 63.5,49C 62.7476,49.6708 62.4142,50.5041 62.5,51.5 Z"/></g>
<g><path style="opacity:1" fill="#5769ee" d="M 39.5,60.5 C 35.4522,65.9464 30.9522,70.9464 26,75.5C 23.2162,73.7201 20.7162,71.5535 18.5,69C 21.0012,65.3329 24.0012,62.1662 27.5,59.5C 29.0682,57.0688 30.5682,57.0688 32,59.5C 33.545,59.6338 35.2117,59.3005 37,58.5C 38.0111,59.0556 38.8444,59.7222 39.5,60.5 Z"/></g>
<g><path style="opacity:1" fill="#5772f0" d="M 48.5,68.5 C 44.786,73.2158 40.4526,77.2158 35.5,80.5C 33.2262,80.0298 31.2262,79.0298 29.5,77.5C 31.1851,75.4293 32.8518,73.4293 34.5,71.5C 34.4346,71.9382 34.6012,72.2716 35,72.5C 37.3333,70.1667 39.6667,67.8333 42,65.5C 42.3333,66.1667 42.6667,66.8333 43,67.5C 45.1436,66.1563 46.9769,66.4896 48.5,68.5 Z"/></g>
<g><path style="opacity:1" fill="#546fef" d="M 71.5,65.5 C 67.0761,71.4287 62.0761,76.9287 56.5,82C 53.5,82.6667 50.5,82.6667 47.5,82C 53.9618,77.3716 59.9618,72.205 65.5,66.5C 68.287,64.2802 70.6203,61.6136 72.5,58.5C 73.1081,60.6841 72.4414,62.6841 70.5,64.5C 70.6236,65.1067 70.9569,65.44 71.5,65.5 Z"/></g>
<g><path style="opacity:1" fill="#5871ef" d="M 64.5,61.5 C 58.6835,68.8163 52.3502,75.6496 45.5,82C 43.0982,82.8141 40.7649,82.6474 38.5,81.5C 44.5467,75.7839 50.5467,70.1172 56.5,64.5C 56.4346,64.9382 56.6012,65.2716 57,65.5C 59,63.5 61,61.5 63,59.5C 63.2784,60.4158 63.7784,61.0825 64.5,61.5 Z"/></g>
<g><path style="opacity:1" fill="#536aef" d="M 76.5,60.5 C 75.9002,71.2871 70.2335,78.1204 59.5,81C 62.6301,78.872 65.4634,76.372 68,73.5C 71.3413,69.4799 74.1747,65.1466 76.5,60.5 Z"/></g>
</svg>
