<?xml version="1.0" encoding="UTF-8"?>
<!DOCTYPE svg PUBLIC "-//W3C//DTD SVG 1.1//EN" "http://www.w3.org/Graphics/SVG/1.1/DTD/svg11.dtd">
<svg xmlns="http://www.w3.org/2000/svg" version="1.1" width="96px" height="96px" style="shape-rendering:geometricPrecision; text-rendering:geometricPrecision; image-rendering:optimizeQuality; fill-rule:evenodd; clip-rule:evenodd" xmlns:xlink="http://www.w3.org/1999/xlink">
<g><path style="opacity:1" fill="#fdea00" d="M 43.5,6.5 C 46.191,10.1741 48.5243,14.1741 50.5,18.5C 44.8722,19.4954 39.2055,19.8288 33.5,19.5C 31.1667,16.1667 28.8333,12.8333 26.5,9.5C 26.5858,8.5041 26.2524,7.67076 25.5,7C 31.4908,6.50051 37.4908,6.33385 43.5,6.5 Z"/></g>
<g><path style="opacity:1" fill="#fbd000" d="M 43.5,6.5 C 52.1731,6.33358 60.8397,6.50025 69.5,7C 66.7624,10.9788 64.429,15.1454 62.5,19.5C 52.7351,20.8165 43.0684,20.8165 33.5,19.5C 39.2055,19.8288 44.8722,19.4954 50.5,18.5C 48.5243,14.1741 46.191,10.1741 43.5,6.5 Z"/></g>
<g><path style="opacity:1" fill="#f28000" d="M 23.5,6.5 C 39.328,5.33857 55.328,5.1719 71.5,6C 73.495,8.15715 74.8283,10.6572 75.5,13.5C 74.1154,12.4264 72.9487,11.0931 72,9.5C 69.3904,13.7424 66.5571,17.7424 63.5,21.5C 63.6716,20.5084 63.3382,19.8417 62.5,19.5C 64.429,15.1454 66.7624,10.9788 69.5,7C 60.8397,6.50025 52.1731,6.33358 43.5,6.5C 37.4908,6.33385 31.4908,6.50051 25.5,7C 26.2524,7.67076 26.5858,8.5041 26.5,9.5C 25.2719,8.69354 24.2719,7.69354 23.5,6.5 Z"/></g>
<g><path style="opacity:1" fill="#fde900" d="M 75.5,13.5 C 76.9751,17.7835 78.9751,21.7835 81.5,25.5C 81.5654,25.9382 81.3988,26.2716 81,26.5C 80.0853,25.6721 79.4186,24.6721 79,23.5C 78.6732,30.2216 79.1732,36.8883 80.5,43.5C 81.552,43.3505 82.552,43.5172 83.5,44C 81.1902,44.4966 78.8568,44.6633 76.5,44.5C 71.9015,36.9682 67.5682,29.3015 63.5,21.5C 66.5571,17.7424 69.3904,13.7424 72,9.5C 72.9487,11.0931 74.1154,12.4264 75.5,13.5 Z"/></g>
<g><path style="opacity:1" fill="#fde700" d="M 27.5,28.5 C 27.5,28.8333 27.5,29.1667 27.5,29.5C 24.263,34.2985 21.263,39.2985 18.5,44.5C 16.5,44.5 14.5,44.5 12.5,44.5C 12.6924,39.8727 12.0258,35.3727 10.5,31C 11.3195,29.1997 11.9862,27.3664 12.5,25.5C 14.1042,24.713 14.7709,23.3797 14.5,21.5C 15.9063,21.0269 16.573,20.0269 16.5,18.5C 18.6452,15.5672 20.8118,12.5672 23,9.5C 26.0214,13.5441 28.5214,17.8774 30.5,22.5C 30.0163,24.8008 29.0163,26.8008 27.5,28.5 Z"/></g>
<g><path style="opacity:0.914" fill="#e86e05" d="M 16.5,18.5 C 16.573,20.0269 15.9063,21.0269 14.5,21.5C 14.427,19.9731 15.0937,18.9731 16.5,18.5 Z"/></g>
<g><path style="opacity:1" fill="#fa9a00" d="M 23.5,6.5 C 24.2719,7.69354 25.2719,8.69354 26.5,9.5C 28.8333,12.8333 31.1667,16.1667 33.5,19.5C 43.0684,20.8165 52.7351,20.8165 62.5,19.5C 63.3382,19.8417 63.6716,20.5084 63.5,21.5C 53.2266,22.1444 42.8932,22.811 32.5,23.5C 31.4412,25.5336 30.4412,27.5336 29.5,29.5C 28.8333,29.1667 28.1667,28.8333 27.5,28.5C 29.0163,26.8008 30.0163,24.8008 30.5,22.5C 28.5214,17.8774 26.0214,13.5441 23,9.5C 20.8118,12.5672 18.6452,15.5672 16.5,18.5C 18.0435,13.9758 20.3768,9.97579 23.5,6.5 Z"/></g>
<g><path style="opacity:0.102" fill="#e97b07" d="M 75.5,13.5 C 78.6232,16.9758 80.9565,20.9758 82.5,25.5C 82.1667,25.5 81.8333,25.5 81.5,25.5C 78.9751,21.7835 76.9751,17.7835 75.5,13.5 Z"/></g>
<g><path style="opacity:0.855" fill="#e77c0a" d="M 14.5,21.5 C 14.7709,23.3797 14.1042,24.713 12.5,25.5C 12.6596,23.847 13.3263,22.5137 14.5,21.5 Z"/></g>
<g><path style="opacity:1" fill="#eb6a00" d="M 63.5,21.5 C 67.5682,29.3015 71.9015,36.9682 76.5,44.5C 76.5,44.8333 76.5,45.1667 76.5,45.5C 76.5,46.1667 76.5,46.8333 76.5,47.5C 71.8333,55.8333 67.1667,64.1667 62.5,72.5C 55.9221,73.4601 49.2554,73.7934 42.5,73.5C 44.2922,72.6909 46.2922,72.1909 48.5,72C 46.5273,71.5045 44.5273,71.3379 42.5,71.5C 42.5,69.1667 42.5,66.8333 42.5,64.5C 47.0323,64.8182 51.3656,64.4849 55.5,63.5C 54.9209,58.3412 54.2543,53.1745 53.5,48C 53.6667,45.5 53.8333,43 54,40.5C 54.4828,41.448 54.6495,42.448 54.5,43.5C 57.1194,43.7683 59.6194,43.435 62,42.5C 62.7835,39.2397 62.6168,36.0731 61.5,33C 53.6557,32.829 45.989,32.329 38.5,31.5C 40.3173,30.7808 40.9839,29.7808 40.5,28.5C 39.086,29.624 37.586,30.624 36,31.5C 34.9609,27.7771 33.7942,27.7771 32.5,31.5C 31.5,30.8333 30.5,30.1667 29.5,29.5C 30.4412,27.5336 31.4412,25.5336 32.5,23.5C 42.8932,22.811 53.2266,22.1444 63.5,21.5 Z"/></g>
<g><path style="opacity:0.937" fill="#e9750a" d="M 82.5,25.5 C 83.9063,25.9731 84.573,26.9731 84.5,28.5C 83.0937,28.0269 82.427,27.0269 82.5,25.5 Z"/></g>
<g><path style="opacity:1" fill="#f8b87d" d="M 27.5,28.5 C 28.1667,28.8333 28.8333,29.1667 29.5,29.5C 30.5,30.1667 31.5,30.8333 32.5,31.5C 32.1667,32.5 31.5,33.1667 30.5,33.5C 30.2294,31.5695 29.2294,30.2362 27.5,29.5C 27.5,29.1667 27.5,28.8333 27.5,28.5 Z"/></g>
<g><path style="opacity:1" fill="#fde0cc" d="M 38.5,31.5 C 37.375,32.3478 37.375,33.3478 38.5,34.5C 36.5956,34.7376 35.2623,35.7376 34.5,37.5C 33.8333,37.1667 33.1667,36.8333 32.5,36.5C 25.2005,40.5175 24.8672,40.0175 31.5,35C 30.5,34.6667 29.5,34.3333 28.5,34C 29.0944,33.5357 29.7611,33.369 30.5,33.5C 31.5,33.1667 32.1667,32.5 32.5,31.5C 33.7942,27.7771 34.9609,27.7771 36,31.5C 37.586,30.624 39.086,29.624 40.5,28.5C 40.9839,29.7808 40.3173,30.7808 38.5,31.5 Z"/></g>
<g><path style="opacity:1" fill="#fdd800" d="M 81.5,25.5 C 81.8333,25.5 82.1667,25.5 82.5,25.5C 82.427,27.0269 83.0937,28.0269 84.5,28.5C 84.3778,32.5969 86.0445,35.5969 89.5,37.5C 90.2122,39.9279 91.2122,42.2612 92.5,44.5C 87.2079,45.4948 81.8746,45.8282 76.5,45.5C 76.5,45.1667 76.5,44.8333 76.5,44.5C 78.8568,44.6633 81.1902,44.4966 83.5,44C 82.552,43.5172 81.552,43.3505 80.5,43.5C 79.1732,36.8883 78.6732,30.2216 79,23.5C 79.4186,24.6721 80.0853,25.6721 81,26.5C 81.3988,26.2716 81.5654,25.9382 81.5,25.5 Z"/></g>
<g><path style="opacity:1" fill="#fac900" d="M 12.5,25.5 C 11.9862,27.3664 11.3195,29.1997 10.5,31C 12.0258,35.3727 12.6924,39.8727 12.5,44.5C 14.5,44.5 16.5,44.5 18.5,44.5C 13.3595,45.4881 8.02621,45.8214 2.5,45.5C 2.5,44.5 2.5,43.5 2.5,42.5C 5.83891,39.1651 8.17224,35.1651 9.5,30.5C 9.74973,28.326 10.7497,26.6594 12.5,25.5 Z"/></g>
<g><path style="opacity:1" fill="#f6a305" d="M 84.5,28.5 C 86.5595,31.2402 88.2262,34.2402 89.5,37.5C 86.0445,35.5969 84.3778,32.5969 84.5,28.5 Z"/></g>
<g><path style="opacity:1" fill="#e27700" d="M 55.5,34.5 C 57.1667,34.5 58.8333,34.5 60.5,34.5C 60.5,36.8333 60.5,39.1667 60.5,41.5C 57.6915,41.3067 55.0248,40.64 52.5,39.5C 53.209,38.596 54.209,38.2627 55.5,38.5C 55.5,37.1667 55.5,35.8333 55.5,34.5 Z"/></g>
<g><path style="opacity:0.812" fill="#ee7903" d="M 9.5,30.5 C 8.17224,35.1651 5.83891,39.1651 2.5,42.5C 4.33204,38.1638 6.66537,34.1638 9.5,30.5 Z"/></g>
<g><path style="opacity:1" fill="#f6d51a" d="M 38.5,34.5 C 40.8333,34.5 43.1667,34.5 45.5,34.5C 45.1834,43.0851 45.5168,51.5851 46.5,60C 45.5842,60.2784 44.9175,60.7784 44.5,61.5C 43.1667,61.5 41.8333,61.5 40.5,61.5C 40.5,59.8333 40.5,58.1667 40.5,56.5C 41.5,56.5 42.5,56.5 43.5,56.5C 43.5,50.8333 43.5,45.1667 43.5,39.5C 40.5641,40.4058 37.5641,41.0725 34.5,41.5C 34.5,40.1667 34.5,38.8333 34.5,37.5C 35.2623,35.7376 36.5956,34.7376 38.5,34.5 Z"/></g>
<g><path style="opacity:1" fill="#ecb000" d="M 45.5,34.5 C 48.8333,34.5 52.1667,34.5 55.5,34.5C 55.5,35.8333 55.5,37.1667 55.5,38.5C 54.209,38.2627 53.209,38.596 52.5,39.5C 51.5111,44.9753 51.1778,50.642 51.5,56.5C 52.5,56.5 53.5,56.5 54.5,56.5C 54.5,58.1667 54.5,59.8333 54.5,61.5C 51.1667,61.5 47.8333,61.5 44.5,61.5C 44.9175,60.7784 45.5842,60.2784 46.5,60C 45.5168,51.5851 45.1834,43.0851 45.5,34.5 Z"/></g>
<g><path style="opacity:1" fill="#ef7601" d="M 27.5,29.5 C 29.2294,30.2362 30.2294,31.5695 30.5,33.5C 29.7611,33.369 29.0944,33.5357 28.5,34C 29.5,34.3333 30.5,34.6667 31.5,35C 24.8672,40.0175 25.2005,40.5175 32.5,36.5C 31.4062,42.9049 34.0729,45.2382 40.5,43.5C 41.5897,45.3938 41.923,49.3938 41.5,55.5C 40.5,55.5 39.5,55.5 38.5,55.5C 38.2317,58.1194 38.565,60.6194 39.5,63C 44.8229,63.4994 50.1563,63.666 55.5,63.5C 51.3656,64.4849 47.0323,64.8182 42.5,64.5C 42.5,66.8333 42.5,69.1667 42.5,71.5C 44.5273,71.3379 46.5273,71.5045 48.5,72C 46.2922,72.1909 44.2922,72.6909 42.5,73.5C 39.1667,73.5 35.8333,73.5 32.5,73.5C 28.9885,66.4661 24.9885,59.7994 20.5,53.5C 19.7577,51.5742 18.7577,49.7409 17.5,48C 11.4193,47.7908 5.41932,47.2908 -0.5,46.5C -0.5,46.1667 -0.5,45.8333 -0.5,45.5C 0.728127,44.6935 1.72813,43.6935 2.5,42.5C 2.5,43.5 2.5,44.5 2.5,45.5C 8.02621,45.8214 13.3595,45.4881 18.5,44.5C 21.263,39.2985 24.263,34.2985 27.5,29.5 Z"/></g>
<g><path style="opacity:1" fill="#fc9a02" d="M 89.5,37.5 C 91.653,39.7937 93.3197,42.4604 94.5,45.5C 88.9262,47.4533 82.9262,48.12 76.5,47.5C 76.5,46.8333 76.5,46.1667 76.5,45.5C 81.8746,45.8282 87.2079,45.4948 92.5,44.5C 91.2122,42.2612 90.2122,39.9279 89.5,37.5 Z"/></g>
<g><path style="opacity:1" fill="#d65a00" d="M -0.5,46.5 C 5.41932,47.2908 11.4193,47.7908 17.5,48C 18.7577,49.7409 19.7577,51.5742 20.5,53.5C 20.6068,55.3786 20.1068,55.7119 19,54.5C 15.4094,56.3775 11.9094,58.3775 8.5,60.5C 11.1932,65.8864 13.8599,71.2198 16.5,76.5C 10.5833,67.6686 4.9166,58.6686 -0.5,49.5C -0.5,48.5 -0.5,47.5 -0.5,46.5 Z"/></g>
<g><path style="opacity:1" fill="#a83b00" d="M 94.5,45.5 C 94.8333,45.5 95.1667,45.5 95.5,45.5C 95.5,46.8333 95.5,48.1667 95.5,49.5C 94.8333,49.8333 94.1667,50.1667 93.5,50.5C 87.7945,50.1712 82.1278,50.5046 76.5,51.5C 72.1127,58.4405 68.1127,65.6071 64.5,73C 67.5455,77.9185 69.8789,83.0852 71.5,88.5C 55.1667,89.8333 38.8333,89.8333 22.5,88.5C 38.1702,88.6666 53.8369,88.4999 69.5,88C 66.0067,84.0152 63.0067,79.6819 60.5,75C 61.756,74.5831 62.4226,73.7498 62.5,72.5C 67.1667,64.1667 71.8333,55.8333 76.5,47.5C 82.9262,48.12 88.9262,47.4533 94.5,45.5 Z"/></g>
<g><path style="opacity:1" fill="#e16800" d="M 20.5,53.5 C 24.9885,59.7994 28.9885,66.4661 32.5,73.5C 30.9256,73.9371 29.7589,74.9371 29,76.5C 27.503,80.1649 25.503,83.4983 23,86.5C 21.0583,82.9311 18.8916,79.5978 16.5,76.5C 13.8599,71.2198 11.1932,65.8864 8.5,60.5C 11.9094,58.3775 15.4094,56.3775 19,54.5C 20.1068,55.7119 20.6068,55.3786 20.5,53.5 Z"/></g>
<g><path style="opacity:1" fill="#c54301" d="M 38.5,31.5 C 45.989,32.329 53.6557,32.829 61.5,33C 62.6168,36.0731 62.7835,39.2397 62,42.5C 59.6194,43.435 57.1194,43.7683 54.5,43.5C 54.6495,42.448 54.4828,41.448 54,40.5C 53.8333,43 53.6667,45.5 53.5,48C 54.2543,53.1745 54.9209,58.3412 55.5,63.5C 50.1563,63.666 44.8229,63.4994 39.5,63C 38.565,60.6194 38.2317,58.1194 38.5,55.5C 39.5,55.5 40.5,55.5 41.5,55.5C 41.923,49.3938 41.5897,45.3938 40.5,43.5C 34.0729,45.2382 31.4062,42.9049 32.5,36.5C 33.1667,36.8333 33.8333,37.1667 34.5,37.5C 34.5,38.8333 34.5,40.1667 34.5,41.5C 37.5641,41.0725 40.5641,40.4058 43.5,39.5C 43.5,45.1667 43.5,50.8333 43.5,56.5C 42.5,56.5 41.5,56.5 40.5,56.5C 40.5,58.1667 40.5,59.8333 40.5,61.5C 41.8333,61.5 43.1667,61.5 44.5,61.5C 47.8333,61.5 51.1667,61.5 54.5,61.5C 54.5,59.8333 54.5,58.1667 54.5,56.5C 53.5,56.5 52.5,56.5 51.5,56.5C 51.1778,50.642 51.5111,44.9753 52.5,39.5C 55.0248,40.64 57.6915,41.3067 60.5,41.5C 60.5,39.1667 60.5,36.8333 60.5,34.5C 58.8333,34.5 57.1667,34.5 55.5,34.5C 52.1667,34.5 48.8333,34.5 45.5,34.5C 43.1667,34.5 40.8333,34.5 38.5,34.5C 37.375,33.3478 37.375,32.3478 38.5,31.5 Z"/></g>
<g><path style="opacity:1" fill="#db6000" d="M 93.5,50.5 C 86.6684,63.5018 79.3351,76.1685 71.5,88.5C 69.8789,83.0852 67.5455,77.9185 64.5,73C 68.1127,65.6071 72.1127,58.4405 76.5,51.5C 82.1278,50.5046 87.7945,50.1712 93.5,50.5 Z"/></g>
<g><path style="opacity:1" fill="#b94800" d="M 62.5,72.5 C 62.4226,73.7498 61.756,74.5831 60.5,75C 63.0067,79.6819 66.0067,84.0152 69.5,88C 53.8369,88.4999 38.1702,88.6666 22.5,88.5C 20.0661,84.7283 18.0661,80.7283 16.5,76.5C 18.8916,79.5978 21.0583,82.9311 23,86.5C 25.503,83.4983 27.503,80.1649 29,76.5C 29.7589,74.9371 30.9256,73.9371 32.5,73.5C 35.8333,73.5 39.1667,73.5 42.5,73.5C 49.2554,73.7934 55.9221,73.4601 62.5,72.5 Z"/></g>
</svg>
