<?xml version="1.0" encoding="UTF-8"?>
<!DOCTYPE svg PUBLIC "-//W3C//DTD SVG 1.1//EN" "http://www.w3.org/Graphics/SVG/1.1/DTD/svg11.dtd">
<svg xmlns="http://www.w3.org/2000/svg" version="1.1" width="96px" height="96px" style="shape-rendering:geometricPrecision; text-rendering:geometricPrecision; image-rendering:optimizeQuality; fill-rule:evenodd; clip-rule:evenodd" xmlns:xlink="http://www.w3.org/1999/xlink">
<g><path style="opacity:0.986" fill="#05c864" d="M 40.5,9.5 C 70.1361,9.30308 84.9694,23.9697 85,53.5C 78.8885,75.6145 64.3885,86.1145 41.5,85C 18.9289,78.7558 8.42892,63.9224 10,40.5C 14.3489,24.3186 24.5156,13.9852 40.5,9.5 Z"/></g>
<g><path style="opacity:1" fill="#fbfefc" d="M 51.5,38.5 C 52.9395,40.588 53.6061,42.9214 53.5,45.5C 49.9016,52.5246 45.9016,59.3579 41.5,66C 36.8452,66.4992 32.1785,66.6658 27.5,66.5C 27.372,64.3453 27.872,62.3453 29,60.5C 34.3333,51.1667 39.6667,41.8333 45,32.5C 45.7175,31.5494 46.5509,31.3828 47.5,32C 49.2206,33.9438 50.554,36.1105 51.5,38.5 Z"/></g>
<g><path style="opacity:1" fill="#f4fcf8" d="M 55.5,43.5 C 55.2488,41.8297 54.5822,40.3297 53.5,39C 55.3817,38.8019 57.0484,38.3019 58.5,37.5C 62.3819,36.7892 64.8819,34.4558 66,30.5C 66.8075,38.2015 63.3075,42.5348 55.5,43.5 Z"/></g>
<g><path style="opacity:1" fill="#eefbf4" d="M 28.5,29.5 C 30.1234,35.4356 34.1234,38.4356 40.5,38.5C 37.2731,43.5204 33.7731,43.5204 30,38.5C 28.7114,35.6492 28.2114,32.6492 28.5,29.5 Z"/></g>
<g><path style="opacity:1" fill="#78dfa5" d="M 58.5,37.5 C 57.0484,38.3019 55.3817,38.8019 53.5,39C 54.5822,40.3297 55.2488,41.8297 55.5,43.5C 54.8333,44.1667 54.1667,44.8333 53.5,45.5C 53.6061,42.9214 52.9395,40.588 51.5,38.5C 53.717,37.6314 56.0504,37.298 58.5,37.5 Z"/></g>
<g><path style="opacity:1" fill="#f9fdfb" d="M 57.5,52.5 C 58.9778,52.238 60.3112,52.5713 61.5,53.5C 63.754,57.0066 65.754,60.6733 67.5,64.5C 67.2907,65.086 66.9574,65.586 66.5,66C 61.581,66.8015 56.7477,66.6349 52,65.5C 53.2471,60.9957 55.0805,56.6623 57.5,52.5 Z"/></g>
</svg>
