<?xml version="1.0" encoding="UTF-8"?>
<!DOCTYPE svg PUBLIC "-//W3C//DTD SVG 1.1//EN" "http://www.w3.org/Graphics/SVG/1.1/DTD/svg11.dtd">
<svg xmlns="http://www.w3.org/2000/svg" version="1.1" width="96px" height="96px" style="shape-rendering:geometricPrecision; text-rendering:geometricPrecision; image-rendering:optimizeQuality; fill-rule:evenodd; clip-rule:evenodd" xmlns:xlink="http://www.w3.org/1999/xlink">
<g><path style="opacity:1" fill="#e7d582" d="M 38.5,-0.5 C 44.5,-0.5 50.5,-0.5 56.5,-0.5C 74.2605,3.70962 86.2605,14.3763 92.5,31.5C 92.5,33.1667 92.5,34.8333 92.5,36.5C 89.5288,27.5253 84.5288,19.8586 77.5,13.5C 66.0684,3.47323 52.7351,-0.0267735 37.5,3C 32.12,3.85951 27.4534,6.02618 23.5,9.5C 19.2917,11.3681 15.6251,14.0347 12.5,17.5C 12.369,16.7611 12.5357,16.0944 13,15.5C 16.8117,12.0311 20.6451,8.69773 24.5,5.5C 28.9319,2.91294 33.5985,0.912943 38.5,-0.5 Z"/></g>
<g><path style="opacity:1" fill="#c28c2d" d="M 77.5,13.5 C 76.8333,13.5 76.5,13.8333 76.5,14.5C 59.6774,1.62571 42.0107,0.292379 23.5,10.5C 23.5,10.1667 23.5,9.83333 23.5,9.5C 27.4534,6.02618 32.12,3.85951 37.5,3C 52.7351,-0.0267735 66.0684,3.47323 77.5,13.5 Z"/></g>
<g><path style="opacity:1" fill="#f4e58e" d="M 76.5,14.5 C 78.914,15.9108 80.5806,17.9108 81.5,20.5C 81.5106,22.0174 82.1772,23.1841 83.5,24C 82.244,24.4169 81.5774,25.2502 81.5,26.5C 78.8981,24.1904 75.8981,22.3571 72.5,21C 66.8163,20.81 61.483,19.4767 56.5,17C 47.6039,16.4121 38.9373,17.5788 30.5,20.5C 28.7685,17.525 26.9351,14.525 25,11.5C 24.0094,12.9389 22.676,13.9389 21,14.5C 20.5357,13.9056 20.369,13.2389 20.5,12.5C 21.5,11.8333 22.5,11.1667 23.5,10.5C 42.0107,0.292379 59.6774,1.62571 76.5,14.5 Z"/></g>
<g><path style="opacity:1" fill="#edd97b" d="M 30.5,20.5 C 27.2867,23.2744 23.62,25.2744 19.5,26.5C 17.2779,25.3124 14.9446,24.3124 12.5,23.5C 10.3367,26.7081 8.3367,29.3747 6.5,31.5C 7.98838,27.1899 9.98838,23.1899 12.5,19.5C 15.1667,17.1667 17.8333,14.8333 20.5,12.5C 20.369,13.2389 20.5357,13.9056 21,14.5C 22.676,13.9389 24.0094,12.9389 25,11.5C 26.9351,14.525 28.7685,17.525 30.5,20.5 Z"/></g>
<g><path style="opacity:1" fill="#824c1a" d="M 23.5,9.5 C 23.5,9.83333 23.5,10.1667 23.5,10.5C 22.5,11.1667 21.5,11.8333 20.5,12.5C 17.8333,14.8333 15.1667,17.1667 12.5,19.5C 12.5,18.8333 12.5,18.1667 12.5,17.5C 15.6251,14.0347 19.2917,11.3681 23.5,9.5 Z"/></g>
<g><path style="opacity:1" fill="#0d0d0a" d="M 81.5,26.5 C 81.2014,30.1055 80.0347,33.4388 78,36.5C 77.5034,38.8098 77.3367,41.1432 77.5,43.5C 74.3095,43.3129 72.3095,41.6462 71.5,38.5C 71.6309,37.6236 71.2975,36.9569 70.5,36.5C 69.5753,39.9052 68.5753,43.2386 67.5,46.5C 66.8826,46.6107 66.3826,46.944 66,47.5C 65.2152,45.751 64.3818,44.0843 63.5,42.5C 63.6495,41.448 63.4828,40.448 63,39.5C 60.5582,43.4621 58.2248,43.4621 56,39.5C 55.3333,40.5 55.3333,41.5 56,42.5C 57.298,43.5596 58.4647,44.7263 59.5,46C 59.3333,46.5 59.1667,47 59,47.5C 57.6811,45.5125 55.8477,44.3459 53.5,44C 51.7866,42.6218 50.4533,40.9552 49.5,39C 48.1667,38.3333 46.8333,38.3333 45.5,39C 41.4975,42.1551 38.4975,45.9885 36.5,50.5C 35.9033,50.2648 35.5699,49.7648 35.5,49C 36.3632,46.7735 37.3632,44.6068 38.5,42.5C 38.1667,42.1667 37.8333,41.8333 37.5,41.5C 36.6143,42.325 36.281,43.325 36.5,44.5C 35.1266,44.6567 33.7932,44.49 32.5,44C 36.7691,41.209 36.4357,39.209 31.5,38C 32.2524,37.3292 32.5858,36.4959 32.5,35.5C 28.9491,37.2655 27.6158,39.9322 28.5,43.5C 27.7321,44.2625 27.2321,45.2625 27,46.5C 26.3292,47.2524 25.4959,47.5858 24.5,47.5C 24.6495,46.448 24.4828,45.448 24,44.5C 22.0929,51.9219 19.9263,52.2552 17.5,45.5C 14.8939,42.3824 12.8939,38.8824 11.5,35C 11.6667,34.1667 11.8333,33.3333 12,32.5C 14.6877,30.636 17.1877,28.636 19.5,26.5C 23.62,25.2744 27.2867,23.2744 30.5,20.5C 38.9373,17.5788 47.6039,16.4121 56.5,17C 61.483,19.4767 66.8163,20.81 72.5,21C 75.8981,22.3571 78.8981,24.1904 81.5,26.5 Z"/></g>
<g><path style="opacity:1" fill="#28332f" d="M 65.5,35.5 C 62.5609,33.4553 61.3943,30.7886 62,27.5C 60.3163,25.6487 58.4829,23.982 56.5,22.5C 56.4827,23.3937 56.1494,24.3937 55.5,25.5C 54.5,25.5 53.5,25.5 52.5,25.5C 52.9175,24.7784 53.5842,24.2784 54.5,24C 53.2625,23.7679 52.2625,23.2679 51.5,22.5C 51.9382,22.5654 52.2716,22.3988 52.5,22C 51.8333,21.6667 51.1667,21.3333 50.5,21C 54.8088,19.8016 58.4755,20.8016 61.5,24C 63.3155,27.2751 64.9822,30.6085 66.5,34C 65.944,34.3826 65.6107,34.8826 65.5,35.5 Z"/></g>
<g><path style="opacity:1" fill="#58615c" d="M 51.5,22.5 C 52.2625,23.2679 53.2625,23.7679 54.5,24C 53.5842,24.2784 52.9175,24.7784 52.5,25.5C 51.2058,26.2899 50.0391,27.2899 49,28.5C 48.6667,27.5 48.3333,26.5 48,25.5C 45.4353,28.9875 42.2686,29.9875 38.5,28.5C 38.3893,27.8826 38.056,27.3826 37.5,27C 39.503,24.9978 41.8364,23.4978 44.5,22.5C 44.1667,22.1667 43.8333,21.8333 43.5,21.5C 40.7802,22.8599 38.1136,24.1932 35.5,25.5C 37.466,22.8433 40.1327,21.1767 43.5,20.5C 45.4251,20.5904 46.5917,21.5904 47,23.5C 48.3561,22.6198 49.8561,22.2865 51.5,22.5 Z"/></g>
<g><path style="opacity:1" fill="#555c5c" d="M 65.5,35.5 C 66.4612,38.3283 66.2946,40.9949 65,43.5C 64.5045,41.5273 64.3379,39.5273 64.5,37.5C 63.1266,37.3433 61.7932,37.51 60.5,38C 60.8333,38.3333 61.1667,38.6667 61.5,39C 58.7142,41.2575 58.0475,40.7575 59.5,37.5C 60.5,36.6667 61.5,35.8333 62.5,35C 60.4311,31.5848 58.0978,28.4181 55.5,25.5C 56.1494,24.3937 56.4827,23.3937 56.5,22.5C 58.4829,23.982 60.3163,25.6487 62,27.5C 61.3943,30.7886 62.5609,33.4553 65.5,35.5 Z"/></g>
<g><path style="opacity:1" fill="#37403c" d="M 38.5,28.5 C 37.2427,31.4274 35.2427,33.7607 32.5,35.5C 30.119,31.4268 31.119,28.0935 35.5,25.5C 38.1136,24.1932 40.7802,22.8599 43.5,21.5C 43.8333,21.8333 44.1667,22.1667 44.5,22.5C 41.8364,23.4978 39.503,24.9978 37.5,27C 38.056,27.3826 38.3893,27.8826 38.5,28.5 Z"/></g>
<g><path style="opacity:1" fill="#cfaf5f" d="M 24.5,5.5 C 20.6451,8.69773 16.8117,12.0311 13,15.5C 12.5357,16.0944 12.369,16.7611 12.5,17.5C 12.5,18.1667 12.5,18.8333 12.5,19.5C 9.98838,23.1899 7.98838,27.1899 6.5,31.5C 6.16667,31.5 5.83333,31.5 5.5,31.5C 3.28171,34.7193 2.11505,38.386 2,42.5C 1.5845,46.848 1.75117,51.1813 2.5,55.5C 2.5,56.8333 1.83333,57.5 0.5,57.5C 0.166667,57.5 -0.166667,57.5 -0.5,57.5C -0.5,50.8333 -0.5,44.1667 -0.5,37.5C 2.45258,26.7821 8.11925,17.6154 16.5,10C 19.0594,8.22259 21.7261,6.72259 24.5,5.5 Z"/></g>
<g><path style="opacity:1" fill="#97540a" d="M 76.5,14.5 C 76.5,13.8333 76.8333,13.5 77.5,13.5C 84.5288,19.8586 89.5288,27.5253 92.5,36.5C 92.6663,43.175 92.4996,49.8417 92,56.5C 91.3923,60.3728 90.2256,64.0395 88.5,67.5C 88.1667,67.5 87.8333,67.5 87.5,67.5C 88.7066,63.2138 89.7066,58.8805 90.5,54.5C 92.8263,41.8078 89.8263,30.4744 81.5,20.5C 80.5806,17.9108 78.914,15.9108 76.5,14.5 Z"/></g>
<g><path style="opacity:1" fill="#966633" d="M 5.5,31.5 C 3.79845,39.0463 3.13179,46.713 3.5,54.5C 3.5,55.1667 3.16667,55.5 2.5,55.5C 1.75117,51.1813 1.5845,46.848 2,42.5C 2.11505,38.386 3.28171,34.7193 5.5,31.5 Z"/></g>
<g><path style="opacity:1" fill="#d69950" d="M 53.5,32.5 C 54.5,32.5 55.5,32.5 56.5,32.5C 56.7778,34.3464 56.1112,35.6798 54.5,36.5C 53.5713,35.3112 53.238,33.9778 53.5,32.5 Z"/></g>
<g><path style="opacity:1" fill="#f7e482" d="M 81.5,20.5 C 89.8263,30.4744 92.8263,41.8078 90.5,54.5C 89.7321,55.2625 89.2321,56.2625 89,57.5C 87.8869,56.2889 86.7202,56.2889 85.5,57.5C 84.1375,55.988 83.8042,54.488 84.5,53C 82.6332,52.2888 81.1332,52.7888 80,54.5C 76.7993,51.9323 73.7993,52.2656 71,55.5C 70.5357,54.9056 70.369,54.2389 70.5,53.5C 70.1795,48.3054 70.5128,43.3054 71.5,38.5C 72.3095,41.6462 74.3095,43.3129 77.5,43.5C 77.3367,41.1432 77.5034,38.8098 78,36.5C 80.0347,33.4388 81.2014,30.1055 81.5,26.5C 81.5774,25.2502 82.244,24.4169 83.5,24C 82.1772,23.1841 81.5106,22.0174 81.5,20.5 Z"/></g>
<g><path style="opacity:1" fill="#daa455" d="M 36.5,34.5 C 38.3547,34.272 39.1881,34.9387 39,36.5C 36.3655,37.6922 35.5322,37.0256 36.5,34.5 Z"/></g>
<g><path style="opacity:1" fill="#dec260" d="M 19.5,26.5 C 17.1877,28.636 14.6877,30.636 12,32.5C 11.8333,33.3333 11.6667,34.1667 11.5,35C 12.8939,38.8824 14.8939,42.3824 17.5,45.5C 16.7321,46.2625 16.2321,47.2625 16,48.5C 12.7247,47.1135 9.89139,45.1135 7.5,42.5C 6.83333,42.8333 6.16667,43.1667 5.5,43.5C 4.33405,48.5218 4.50072,53.5218 6,58.5C 7.6459,63.7852 9.81256,68.7852 12.5,73.5C 9.94929,71.4223 8.11596,68.7556 7,65.5C 5.40748,61.8387 4.24082,58.172 3.5,54.5C 3.13179,46.713 3.79845,39.0463 5.5,31.5C 5.83333,31.5 6.16667,31.5 6.5,31.5C 8.3367,29.3747 10.3367,26.7081 12.5,23.5C 14.9446,24.3124 17.2779,25.3124 19.5,26.5 Z"/></g>
<g><path style="opacity:1" fill="#100d09" d="M 38.5,51.5 C 36.2729,52.4006 35.2729,54.0672 35.5,56.5C 34.3737,59.527 32.8737,59.8604 31,57.5C 31.1573,61.3184 32.1573,64.9851 34,68.5C 34.6708,69.2524 35.5041,69.5858 36.5,69.5C 38.8333,69.1667 40.1667,67.8333 40.5,65.5C 41.1174,65.3893 41.6174,65.056 42,64.5C 43.0302,66.7764 44.5302,67.4431 46.5,66.5C 47.6956,66.8457 47.6956,67.3457 46.5,68C 49.1547,68.5643 51.8214,69.0643 54.5,69.5C 56.5566,69.5643 58.2233,68.8976 59.5,67.5C 60.1667,67.1667 60.8333,66.8333 61.5,66.5C 63.0269,66.573 64.0269,65.9063 64.5,64.5C 65.8524,61.124 65.8524,58.4573 64.5,56.5C 63.5,56.5 62.5,56.5 61.5,56.5C 60.8333,56.5 60.5,56.1667 60.5,55.5C 60.3359,52.8127 60.5026,50.146 61,47.5C 61.0995,45.3474 61.9328,43.6808 63.5,42.5C 64.3818,44.0843 65.2152,45.751 66,47.5C 66.3826,46.944 66.8826,46.6107 67.5,46.5C 68.4067,48.6568 69.0733,50.9902 69.5,53.5C 69.0862,55.8083 68.7529,58.1417 68.5,60.5C 69.0612,63.5703 69.5612,66.5703 70,69.5C 67.2161,72.1194 64.0494,74.1194 60.5,75.5C 56.9009,76.3439 53.2343,76.6773 49.5,76.5C 44.0873,76.7712 38.7539,76.2712 33.5,75C 31.7885,72.4807 29.4552,70.9807 26.5,70.5C 27.9217,65.04 27.5883,59.7067 25.5,54.5C 26.4972,54.5299 27.1639,54.0299 27.5,53C 27.3023,50.8155 26.3023,49.3155 24.5,48.5C 24.5,48.1667 24.5,47.8333 24.5,47.5C 25.4959,47.5858 26.3292,47.2524 27,46.5C 27.2321,45.2625 27.7321,44.2625 28.5,43.5C 29.7206,44.0283 30.8873,44.695 32,45.5C 32.5359,47.8689 33.7026,49.8689 35.5,51.5C 36.1067,51.3764 36.44,51.0431 36.5,50.5C 39.1933,46.6459 42.6933,43.6459 47,41.5C 48.6324,43.0268 48.7991,44.6934 47.5,46.5C 43.7405,46.9525 40.7405,48.6191 38.5,51.5 Z"/></g>
<g><path style="opacity:1" fill="#784a26" d="M 71.5,38.5 C 70.5128,43.3054 70.1795,48.3054 70.5,53.5C 70.1667,53.5 69.8333,53.5 69.5,53.5C 69.0733,50.9902 68.4067,48.6568 67.5,46.5C 68.5753,43.2386 69.5753,39.9052 70.5,36.5C 71.2975,36.9569 71.6309,37.6236 71.5,38.5 Z"/></g>
<g><path style="opacity:0.771" fill="#c0a56c" d="M 92.5,31.5 C 93.6515,33.7791 94.6515,36.1124 95.5,38.5C 95.5,44.5 95.5,50.5 95.5,56.5C 94.3654,59.9018 93.0321,63.2351 91.5,66.5C 93.0155,59.9202 94.0155,53.2535 94.5,46.5C 94.6852,42.8589 94.0186,39.5256 92.5,36.5C 92.5,34.8333 92.5,33.1667 92.5,31.5 Z"/></g>
<g><path style="opacity:1" fill="#525251" d="M 32.5,35.5 C 32.5858,36.4959 32.2524,37.3292 31.5,38C 36.4357,39.209 36.7691,41.209 32.5,44C 33.7932,44.49 35.1266,44.6567 36.5,44.5C 36.281,43.325 36.6143,42.325 37.5,41.5C 37.8333,41.8333 38.1667,42.1667 38.5,42.5C 37.3632,44.6068 36.3632,46.7735 35.5,49C 35.5699,49.7648 35.9033,50.2648 36.5,50.5C 36.44,51.0431 36.1067,51.3764 35.5,51.5C 33.7026,49.8689 32.5359,47.8689 32,45.5C 30.8873,44.695 29.7206,44.0283 28.5,43.5C 27.6158,39.9322 28.9491,37.2655 32.5,35.5 Z"/></g>
<g><path style="opacity:1" fill="#646c64" d="M 63.5,42.5 C 61.9328,43.6808 61.0995,45.3474 61,47.5C 60.5026,50.146 60.3359,52.8127 60.5,55.5C 59.802,53.3331 58.4687,51.4998 56.5,50C 55.5632,49.3083 54.8966,49.475 54.5,50.5C 52.9519,50.1788 52.2852,49.1788 52.5,47.5C 48.4044,47.363 45.0711,48.863 42.5,52C 41.552,52.4828 40.552,52.6495 39.5,52.5C 39.5,51.8333 39.1667,51.5 38.5,51.5C 40.7405,48.6191 43.7405,46.9525 47.5,46.5C 48.7991,44.6934 48.6324,43.0268 47,41.5C 42.6933,43.6459 39.1933,46.6459 36.5,50.5C 38.4975,45.9885 41.4975,42.1551 45.5,39C 46.8333,38.3333 48.1667,38.3333 49.5,39C 50.4533,40.9552 51.7866,42.6218 53.5,44C 55.8477,44.3459 57.6811,45.5125 59,47.5C 59.1667,47 59.3333,46.5 59.5,46C 58.4647,44.7263 57.298,43.5596 56,42.5C 55.3333,41.5 55.3333,40.5 56,39.5C 58.2248,43.4621 60.5582,43.4621 63,39.5C 63.4828,40.448 63.6495,41.448 63.5,42.5 Z"/></g>
<g><path style="opacity:1" fill="#57180b" d="M 24.5,48.5 C 26.3023,49.3155 27.3023,50.8155 27.5,53C 27.1639,54.0299 26.4972,54.5299 25.5,54.5C 24.8505,52.5648 24.5172,50.5648 24.5,48.5 Z"/></g>
<g><path style="opacity:1" fill="#ebd166" d="M 90.5,54.5 C 89.7066,58.8805 88.7066,63.2138 87.5,67.5C 83.864,72.1424 80.1973,76.8091 76.5,81.5C 74.9382,81.7329 73.6049,82.3995 72.5,83.5C 72.5979,82.4514 72.5979,81.2847 72.5,80C 70.6133,80.4229 68.6133,80.2563 66.5,79.5C 66.7373,78.209 66.404,77.209 65.5,76.5C 63.5968,77.9473 61.9301,79.614 60.5,81.5C 60.5,79.5 60.5,77.5 60.5,75.5C 64.0494,74.1194 67.2161,72.1194 70,69.5C 69.5612,66.5703 69.0612,63.5703 68.5,60.5C 68.7529,58.1417 69.0862,55.8083 69.5,53.5C 69.8333,53.5 70.1667,53.5 70.5,53.5C 70.369,54.2389 70.5357,54.9056 71,55.5C 73.7993,52.2656 76.7993,51.9323 80,54.5C 81.1332,52.7888 82.6332,52.2888 84.5,53C 83.8042,54.488 84.1375,55.988 85.5,57.5C 86.7202,56.2889 87.8869,56.2889 89,57.5C 89.2321,56.2625 89.7321,55.2625 90.5,54.5 Z"/></g>
<g><path style="opacity:1" fill="#eedc74" d="M 92.5,36.5 C 94.0186,39.5256 94.6852,42.8589 94.5,46.5C 94.0155,53.2535 93.0155,59.9202 91.5,66.5C 90.5416,66.9528 89.7083,67.6195 89,68.5C 88.6012,68.2716 88.4346,67.9382 88.5,67.5C 90.2256,64.0395 91.3923,60.3728 92,56.5C 92.4996,49.8417 92.6663,43.175 92.5,36.5 Z"/></g>
<g><path style="opacity:1" fill="#110f0e" d="M 48.5,59.5 C 50.1667,62.1667 51.8333,62.1667 53.5,59.5C 54.6448,60.7927 54.3115,61.9593 52.5,63C 49.1489,64.4484 45.8156,64.6151 42.5,63.5C 42.3893,62.8826 42.056,62.3826 41.5,62C 42.8333,62 44.1667,62 45.5,62C 43.7669,60.8111 42.1002,59.6444 40.5,58.5C 40.7869,56.8793 41.7869,55.8793 43.5,55.5C 45.1856,56.8569 46.8523,58.1902 48.5,59.5 Z"/></g>
<g><path style="opacity:1" fill="#8c4710" d="M 61.5,56.5 C 62.5,56.5 63.5,56.5 64.5,56.5C 63.2329,59.272 63.2329,61.9387 64.5,64.5C 64.0269,65.9063 63.0269,66.573 61.5,66.5C 62.628,63.2186 62.628,59.8852 61.5,56.5 Z"/></g>
<g><path style="opacity:1" fill="#cdaa47" d="M 17.5,45.5 C 19.9263,52.2552 22.0929,51.9219 24,44.5C 24.4828,45.448 24.6495,46.448 24.5,47.5C 24.5,47.8333 24.5,48.1667 24.5,48.5C 24.5172,50.5648 24.8505,52.5648 25.5,54.5C 27.5883,59.7067 27.9217,65.04 26.5,70.5C 24.5337,69.7455 24.2004,68.5788 25.5,67C 24.5838,66.6258 23.7504,66.1258 23,65.5C 23,66.8333 23,68.1667 23,69.5C 21.2602,68.2842 20.2602,66.6175 20,64.5C 18.6361,68.2974 16.4695,71.464 13.5,74C 16.8675,77.7026 20.5342,81.036 24.5,84C 23.8333,84.3333 23.1667,84.6667 22.5,85C 23.7112,85.8928 23.7112,86.7261 22.5,87.5C 21.3777,86.3698 20.0443,85.7031 18.5,85.5C 16.9397,83.8706 17.273,82.704 19.5,82C 18.9558,81.2828 18.2891,80.7828 17.5,80.5C 16.1667,78.5 14.5,76.8333 12.5,75.5C 12.5,74.8333 12.5,74.1667 12.5,73.5C 9.81256,68.7852 7.6459,63.7852 6,58.5C 4.50072,53.5218 4.33405,48.5218 5.5,43.5C 6.16667,43.1667 6.83333,42.8333 7.5,42.5C 9.89139,45.1135 12.7247,47.1135 16,48.5C 16.2321,47.2625 16.7321,46.2625 17.5,45.5 Z"/></g>
<g><path style="opacity:1" fill="#979a9c" d="M 48.5,59.5 C 50.1667,59.5 51.8333,59.5 53.5,59.5C 51.8333,62.1667 50.1667,62.1667 48.5,59.5 Z"/></g>
<g><path style="opacity:1" fill="#e6aa4f" d="M 64.5,64.5 C 63.2329,61.9387 63.2329,59.272 64.5,56.5C 65.8524,58.4573 65.8524,61.124 64.5,64.5 Z"/></g>
<g><path style="opacity:1" fill="#775f47" d="M 38.5,51.5 C 39.1667,51.5 39.5,51.8333 39.5,52.5C 39.2053,54.7354 39.5386,56.7354 40.5,58.5C 42.1002,59.6444 43.7669,60.8111 45.5,62C 44.1667,62 42.8333,62 41.5,62C 42.056,62.3826 42.3893,62.8826 42.5,63.5C 41.1667,63.5 40.5,64.1667 40.5,65.5C 40.1667,67.8333 38.8333,69.1667 36.5,69.5C 35.6938,65.3413 35.3605,61.008 35.5,56.5C 35.2729,54.0672 36.2729,52.4006 38.5,51.5 Z"/></g>
<g><path style="opacity:1" fill="#6c2f10" d="M 35.5,56.5 C 35.3605,61.008 35.6938,65.3413 36.5,69.5C 35.5041,69.5858 34.6708,69.2524 34,68.5C 32.1573,64.9851 31.1573,61.3184 31,57.5C 32.8737,59.8604 34.3737,59.527 35.5,56.5 Z"/></g>
<g><path style="opacity:1" fill="#8c6f4e" d="M 54.5,50.5 C 54.8966,49.475 55.5632,49.3083 56.5,50C 58.4687,51.4998 59.802,53.3331 60.5,55.5C 60.5,56.1667 60.8333,56.5 61.5,56.5C 62.628,59.8852 62.628,63.2186 61.5,66.5C 60.8333,66.8333 60.1667,67.1667 59.5,67.5C 58.7784,67.0825 58.2784,66.4158 58,65.5C 57.6667,61.8333 57.3333,58.1667 57,54.5C 56.3918,52.9336 55.5585,51.6002 54.5,50.5 Z"/></g>
<g><path style="opacity:1" fill="#3d3931" d="M 54.5,50.5 C 55.5585,51.6002 56.3918,52.9336 57,54.5C 57.3333,58.1667 57.6667,61.8333 58,65.5C 58.2784,66.4158 58.7784,67.0825 59.5,67.5C 58.2233,68.8976 56.5566,69.5643 54.5,69.5C 51.8214,69.0643 49.1547,68.5643 46.5,68C 47.6956,67.3457 47.6956,66.8457 46.5,66.5C 44.5302,67.4431 43.0302,66.7764 42,64.5C 41.6174,65.056 41.1174,65.3893 40.5,65.5C 40.5,64.1667 41.1667,63.5 42.5,63.5C 45.8156,64.6151 49.1489,64.4484 52.5,63C 54.3115,61.9593 54.6448,60.7927 53.5,59.5C 51.8333,59.5 50.1667,59.5 48.5,59.5C 46.8523,58.1902 45.1856,56.8569 43.5,55.5C 41.7869,55.8793 40.7869,56.8793 40.5,58.5C 39.5386,56.7354 39.2053,54.7354 39.5,52.5C 40.552,52.6495 41.552,52.4828 42.5,52C 45.0711,48.863 48.4044,47.363 52.5,47.5C 52.2852,49.1788 52.9519,50.1788 54.5,50.5 Z"/></g>
<g><path style="opacity:1" fill="#afb2ad" d="M 45.5,53.5 C 47.4286,53.2308 49.0953,53.7308 50.5,55C 49.6667,55.1667 48.8333,55.3333 48,55.5C 46.6244,55.3158 45.7911,54.6491 45.5,53.5 Z"/></g>
<g><path style="opacity:1" fill="#bf983e" d="M 26.5,70.5 C 29.4552,70.9807 31.7885,72.4807 33.5,75C 38.7539,76.2712 44.0873,76.7712 49.5,76.5C 45.6054,78.679 45.6054,80.8457 49.5,83C 46.9925,83.0929 44.8259,83.9262 43,85.5C 40.9288,82.5845 39.5954,82.9178 39,86.5C 38.5,86 38,85.5 37.5,85C 38.3366,83.9887 38.67,82.8221 38.5,81.5C 37.8386,80.2825 37.1719,78.9492 36.5,77.5C 35.5224,77.9767 34.6891,78.6433 34,79.5C 33.3109,78.6433 32.4776,77.9767 31.5,77.5C 30.1667,79.1667 30.1667,80.8333 31.5,82.5C 32.4255,81.3595 33.2588,81.3595 34,82.5C 34.3333,81.8333 34.6667,81.1667 35,80.5C 35.7203,82.1124 35.5536,83.6124 34.5,85C 36.8418,86.3919 36.8418,87.2252 34.5,87.5C 29.4083,87.4968 29.4083,88.3301 34.5,90C 32.217,90.2912 30.0503,89.7912 28,88.5C 26.3164,88.6834 26.1498,89.3501 27.5,90.5C 27.1667,90.5 26.8333,90.5 26.5,90.5C 25.3951,89.3995 24.0618,88.7329 22.5,88.5C 20.5956,88.2624 19.2623,87.2624 18.5,85.5C 20.0443,85.7031 21.3777,86.3698 22.5,87.5C 23.7112,86.7261 23.7112,85.8928 22.5,85C 23.1667,84.6667 23.8333,84.3333 24.5,84C 20.5342,81.036 16.8675,77.7026 13.5,74C 16.4695,71.464 18.6361,68.2974 20,64.5C 20.2602,66.6175 21.2602,68.2842 23,69.5C 23,68.1667 23,66.8333 23,65.5C 23.7504,66.1258 24.5838,66.6258 25.5,67C 24.2004,68.5788 24.5337,69.7455 26.5,70.5 Z"/></g>
<g><path style="opacity:1" fill="#542710" d="M 87.5,67.5 C 86.4528,71.2607 84.6195,74.594 82,77.5C 80.549,79.4641 78.7157,80.7974 76.5,81.5C 80.1973,76.8091 83.864,72.1424 87.5,67.5 Z"/></g>
<g><path style="opacity:0.349" fill="#9c8367" d="M 87.5,73.5 C 87.573,75.0269 86.9063,76.0269 85.5,76.5C 85.427,74.9731 86.0937,73.9731 87.5,73.5 Z"/></g>
<g><path style="opacity:1" fill="#7c4421" d="M 12.5,75.5 C 14.5,76.8333 16.1667,78.5 17.5,80.5C 14.8333,79.8333 13.1667,78.1667 12.5,75.5 Z"/></g>
<g><path style="opacity:0.976" fill="#be9e5d" d="M 3.5,54.5 C 4.24082,58.172 5.40748,61.8387 7,65.5C 8.11596,68.7556 9.94929,71.4223 12.5,73.5C 12.5,74.1667 12.5,74.8333 12.5,75.5C 13.1667,78.1667 14.8333,79.8333 17.5,80.5C 18.2891,80.7828 18.9558,81.2828 19.5,82C 17.273,82.704 16.9397,83.8706 18.5,85.5C 8.5055,78.8695 2.5055,69.5361 0.5,57.5C 1.83333,57.5 2.5,56.8333 2.5,55.5C 3.16667,55.5 3.5,55.1667 3.5,54.5 Z"/></g>
<g><path style="opacity:1" fill="#66501f" d="M 60.5,75.5 C 60.5,77.5 60.5,79.5 60.5,81.5C 60.19,82.7383 59.69,82.7383 59,81.5C 58.51,80.2068 58.3433,78.8734 58.5,77.5C 55.1401,77.6159 51.8067,77.9492 48.5,78.5C 48.281,79.675 48.6143,80.675 49.5,81.5C 51.5,78.8333 53.5,78.8333 55.5,81.5C 57.0046,78.8694 57.6713,79.2027 57.5,82.5C 55.1933,82.0137 53.0266,82.0137 51,82.5C 50.6016,88.3438 51.4349,88.6772 53.5,83.5C 53.8333,83.6667 54.1667,83.8333 54.5,84C 53.8695,86.099 52.8695,87.9323 51.5,89.5C 50.5041,89.5858 49.6708,89.2524 49,88.5C 48.0914,83.2702 46.9247,83.2702 45.5,88.5C 44.4593,86.0087 43.6259,86.0087 43,88.5C 42.6667,88.1667 42.3333,87.8333 42,87.5C 41.1612,88.6241 39.9945,89.2908 38.5,89.5C 36.6455,89.6598 35.3121,88.9931 34.5,87.5C 36.8418,87.2252 36.8418,86.3919 34.5,85C 35.5536,83.6124 35.7203,82.1124 35,80.5C 34.6667,81.1667 34.3333,81.8333 34,82.5C 33.2588,81.3595 32.4255,81.3595 31.5,82.5C 30.1667,80.8333 30.1667,79.1667 31.5,77.5C 32.4776,77.9767 33.3109,78.6433 34,79.5C 34.6891,78.6433 35.5224,77.9767 36.5,77.5C 37.1719,78.9492 37.8386,80.2825 38.5,81.5C 38.67,82.8221 38.3366,83.9887 37.5,85C 38,85.5 38.5,86 39,86.5C 39.5954,82.9178 40.9288,82.5845 43,85.5C 44.8259,83.9262 46.9925,83.0929 49.5,83C 45.6054,80.8457 45.6054,78.679 49.5,76.5C 53.2343,76.6773 56.9009,76.3439 60.5,75.5 Z"/></g>
<g><path style="opacity:0.157" fill="#beaf95" d="M 84.5,77.5 C 83.1667,80.8333 80.8333,83.1667 77.5,84.5C 79.5,81.8333 81.8333,79.5 84.5,77.5 Z"/></g>
<g><path style="opacity:1" fill="#584418" d="M 38.5,81.5 C 38.6601,77.7636 39.4934,77.7636 41,81.5C 42.4943,77.6959 43.3276,78.0293 43.5,82.5C 41.7085,82.634 40.0418,82.3007 38.5,81.5 Z"/></g>
<g><path style="opacity:1" fill="#a68838" d="M 65.5,76.5 C 65.2606,78.4672 65.5939,80.3005 66.5,82C 65.0069,83.3681 63.5069,83.5348 62,82.5C 60.0535,83.747 58.2202,85.0803 56.5,86.5C 58.048,86.2123 59.7147,86.2123 61.5,86.5C 59.8399,90.0789 57.6733,90.4122 55,87.5C 54.2904,88.9733 53.1238,89.6399 51.5,89.5C 52.8695,87.9323 53.8695,86.099 54.5,84C 54.1667,83.8333 53.8333,83.6667 53.5,83.5C 51.4349,88.6772 50.6016,88.3438 51,82.5C 53.0266,82.0137 55.1933,82.0137 57.5,82.5C 57.6713,79.2027 57.0046,78.8694 55.5,81.5C 53.5,78.8333 51.5,78.8333 49.5,81.5C 48.6143,80.675 48.281,79.675 48.5,78.5C 51.8067,77.9492 55.1401,77.6159 58.5,77.5C 58.3433,78.8734 58.51,80.2068 59,81.5C 59.69,82.7383 60.19,82.7383 60.5,81.5C 61.9301,79.614 63.5968,77.9473 65.5,76.5 Z"/></g>
<g><path style="opacity:1" fill="#cfad52" d="M 91.5,66.5 C 90.9213,69.3311 89.588,71.6644 87.5,73.5C 86.0937,73.9731 85.427,74.9731 85.5,76.5C 85.5,77.1667 85.1667,77.5 84.5,77.5C 81.8333,79.5 79.5,81.8333 77.5,84.5C 76.1979,86.8218 74.1979,88.1551 71.5,88.5C 70.2905,88.9321 69.2905,89.5987 68.5,90.5C 63.9899,91.1726 59.6566,92.3393 55.5,94C 47.778,94.8117 40.1113,94.4783 32.5,93C 30.5087,92.6264 28.842,91.793 27.5,90.5C 26.1498,89.3501 26.3164,88.6834 28,88.5C 30.0503,89.7912 32.217,90.2912 34.5,90C 29.4083,88.3301 29.4083,87.4968 34.5,87.5C 35.3121,88.9931 36.6455,89.6598 38.5,89.5C 39.9945,89.2908 41.1612,88.6241 42,87.5C 42.3333,87.8333 42.6667,88.1667 43,88.5C 43.6259,86.0087 44.4593,86.0087 45.5,88.5C 46.9247,83.2702 48.0914,83.2702 49,88.5C 49.6708,89.2524 50.5041,89.5858 51.5,89.5C 53.1238,89.6399 54.2904,88.9733 55,87.5C 57.6733,90.4122 59.8399,90.0789 61.5,86.5C 59.7147,86.2123 58.048,86.2123 56.5,86.5C 58.2202,85.0803 60.0535,83.747 62,82.5C 63.5069,83.5348 65.0069,83.3681 66.5,82C 65.5939,80.3005 65.2606,78.4672 65.5,76.5C 66.404,77.209 66.7373,78.209 66.5,79.5C 68.6133,80.2563 70.6133,80.4229 72.5,80C 72.5979,81.2847 72.5979,82.4514 72.5,83.5C 72.5,83.8333 72.5,84.1667 72.5,84.5C 74.4044,84.2624 75.7377,83.2624 76.5,81.5C 78.7157,80.7974 80.549,79.4641 82,77.5C 84.6195,74.594 86.4528,71.2607 87.5,67.5C 87.8333,67.5 88.1667,67.5 88.5,67.5C 88.4346,67.9382 88.6012,68.2716 89,68.5C 89.7083,67.6195 90.5416,66.9528 91.5,66.5 Z"/></g>
<g><path style="opacity:1" fill="#673313" d="M 72.5,84.5 C 70.0032,87.0818 67.0032,88.5818 63.5,89C 66.2432,86.9617 69.2432,85.4617 72.5,84.5 Z"/></g>
<g><path style="opacity:1" fill="#4b1e0c" d="M 76.5,81.5 C 75.7377,83.2624 74.4044,84.2624 72.5,84.5C 72.5,84.1667 72.5,83.8333 72.5,83.5C 73.6049,82.3995 74.9382,81.7329 76.5,81.5 Z"/></g>
<g><path style="opacity:0.4" fill="#d5d5d7" d="M 71.5,88.5 C 78.3941,89.3321 85.3941,90.3321 92.5,91.5C 92.8333,91.8333 93.1667,92.1667 93.5,92.5C 89.7222,94.2552 85.7222,94.9219 81.5,94.5C 83.6979,93.8347 86.0312,93.1681 88.5,92.5C 81.6786,91.8333 75.0119,91.1666 68.5,90.5C 69.2905,89.5987 70.2905,88.9321 71.5,88.5 Z"/></g>
<g><path style="opacity:1" fill="#a9a8a9" d="M 26.5,90.5 C 26.8333,90.5 27.1667,90.5 27.5,90.5C 28.842,91.793 30.5087,92.6264 32.5,93C 40.1113,94.4783 47.778,94.8117 55.5,94C 59.6566,92.3393 63.9899,91.1726 68.5,90.5C 75.0119,91.1666 81.6786,91.8333 88.5,92.5C 86.0312,93.1681 83.6979,93.8347 81.5,94.5C 80.8333,94.5 80.5,94.8333 80.5,95.5C 63.1667,95.5 45.8333,95.5 28.5,95.5C 26.5018,94.8525 24.5018,94.0192 22.5,93C 24.0664,92.3918 25.3998,91.5585 26.5,90.5 Z"/></g>
<g><path style="opacity:0.29" fill="#d7d6d4" d="M 22.5,88.5 C 24.0618,88.7329 25.3951,89.3995 26.5,90.5C 25.3998,91.5585 24.0664,92.3918 22.5,93C 24.5018,94.0192 26.5018,94.8525 28.5,95.5C 25.5,95.5 22.5,95.5 19.5,95.5C 14.4951,94.9892 9.49507,93.9892 4.5,92.5C 10.5923,91.0938 16.5923,89.7605 22.5,88.5 Z"/></g>
</svg>
