<?xml version="1.0" encoding="UTF-8"?>
<!DOCTYPE svg PUBLIC "-//W3C//DTD SVG 1.1//EN" "http://www.w3.org/Graphics/SVG/1.1/DTD/svg11.dtd">
<svg xmlns="http://www.w3.org/2000/svg" version="1.1" width="96px" height="96px" style="shape-rendering:geometricPrecision; text-rendering:geometricPrecision; image-rendering:optimizeQuality; fill-rule:evenodd; clip-rule:evenodd" xmlns:xlink="http://www.w3.org/1999/xlink">
<g><path style="opacity:1" fill="#1d1d1d" d="M -0.5,-0.5 C 31.5,-0.5 63.5,-0.5 95.5,-0.5C 95.5,31.5 95.5,63.5 95.5,95.5C 63.5,95.5 31.5,95.5 -0.5,95.5C -0.5,63.5 -0.5,31.5 -0.5,-0.5 Z"/></g>
<g><path style="opacity:1" fill="#f1f1f1" d="M 44.5,11.5 C 51.9974,10.8038 53.9974,13.6372 50.5,20C 43.4414,20.4641 41.4414,17.6308 44.5,11.5 Z"/></g>
<g><path style="opacity:1" fill="#ecebeb" d="M 36.5,46.5 C 39.8333,46.5 43.1667,46.5 46.5,46.5C 46.5,45.1667 46.5,43.8333 46.5,42.5C 43.1667,42.5 39.8333,42.5 36.5,42.5C 35.3439,34.6775 35.1772,26.6775 36,18.5C 39.6728,23.6664 43.5061,28.6664 47.5,33.5C 51.8066,28.899 55.6399,23.899 59,18.5C 59.4997,26.4931 59.6664,34.4931 59.5,42.5C 56.1667,42.5 52.8333,42.5 49.5,42.5C 49.5,43.8333 49.5,45.1667 49.5,46.5C 62.8333,47.1667 62.8333,47.8333 49.5,48.5C 49.5,49.5 49.5,50.5 49.5,51.5C 52.8333,51.5 56.1667,51.5 59.5,51.5C 59.6664,59.84 59.4997,68.1733 59,76.5C 55.3996,70.9524 51.5663,65.6191 47.5,60.5C 43.8605,65.9728 40.0271,71.3062 36,76.5C 35.3333,68.5 35.3333,60.5 36,52.5C 39.3936,51.5442 42.8936,51.2108 46.5,51.5C 46.5,50.5 46.5,49.5 46.5,48.5C 42.774,48.8226 39.1073,48.4892 35.5,47.5C 35.6236,46.8933 35.9569,46.56 36.5,46.5 Z"/></g>
<g><path style="opacity:1" fill="#121212" d="M 56.5,28.5 C 56.5,31.8333 56.5,35.1667 56.5,38.5C 54.2646,38.7947 52.2646,38.4614 50.5,37.5C 52.2651,34.2911 54.2651,31.2911 56.5,28.5 Z"/></g>
<g><path style="opacity:1" fill="#1d1d1d" d="M 38.5,28.5 C 41.3034,31.4167 43.6367,34.75 45.5,38.5C 43.2573,39.4742 40.924,39.8076 38.5,39.5C 38.5,35.8333 38.5,32.1667 38.5,28.5 Z"/></g>
<g><path style="opacity:1" fill="#767474" d="M 56.5,28.5 C 57.4816,31.9619 57.815,35.6286 57.5,39.5C 54.7531,39.8134 52.0865,39.48 49.5,38.5C 49.6236,37.8933 49.9569,37.56 50.5,37.5C 52.2646,38.4614 54.2646,38.7947 56.5,38.5C 56.5,35.1667 56.5,31.8333 56.5,28.5 Z"/></g>
<g><path style="opacity:1" fill="#767575" d="M 36.5,42.5 C 39.8333,42.5 43.1667,42.5 46.5,42.5C 46.5,43.8333 46.5,45.1667 46.5,46.5C 43.1667,46.5 39.8333,46.5 36.5,46.5C 39.3583,45.834 42.3583,45.1674 45.5,44.5C 42.3583,43.8326 39.3583,43.166 36.5,42.5 Z"/></g>
<g><path style="opacity:1" fill="#181818" d="M 38.5,55.5 C 40.924,55.1924 43.2573,55.5258 45.5,56.5C 43.5823,60.0039 41.4157,63.3372 39,66.5C 38.5014,62.8484 38.3347,59.1817 38.5,55.5 Z"/></g>
<g><path style="opacity:1" fill="#161616" d="M 50.5,55.5 C 52.5,55.5 54.5,55.5 56.5,55.5C 56.6653,59.1817 56.4986,62.8484 56,66.5C 53.6072,63.0478 51.7739,59.3811 50.5,55.5 Z"/></g>
<g><path style="opacity:1" fill="#f0f0f0" d="M 45.5,74.5 C 52.4863,74.331 54.153,77.1643 50.5,83C 42.1836,83.8375 40.517,81.0042 45.5,74.5 Z"/></g>
</svg>
