<?xml version="1.0" encoding="UTF-8"?>
<!DOCTYPE svg PUBLIC "-//W3C//DTD SVG 1.1//EN" "http://www.w3.org/Graphics/SVG/1.1/DTD/svg11.dtd">
<svg xmlns="http://www.w3.org/2000/svg" version="1.1" width="96px" height="96px" style="shape-rendering:geometricPrecision; text-rendering:geometricPrecision; image-rendering:optimizeQuality; fill-rule:evenodd; clip-rule:evenodd" xmlns:xlink="http://www.w3.org/1999/xlink">
<g><path style="opacity:0.998" fill="#e5341a" d="M -0.5,-0.5 C 31.5,-0.5 63.5,-0.5 95.5,-0.5C 95.5,14.8333 95.5,30.1667 95.5,45.5C 90.2541,48.5735 85.4208,52.2402 81,56.5C 80.5831,55.244 79.7498,54.5774 78.5,54.5C 77.0813,53.5489 75.4147,53.2155 73.5,53.5C 73.6641,50.8127 73.4974,48.146 73,45.5C 71.9887,44.6634 70.8221,44.33 69.5,44.5C 69.5,47.5 69.5,50.5 69.5,53.5C 67.5328,53.2606 65.6995,53.5939 64,54.5C 63.3333,65.8333 63.3333,77.1667 64,88.5C 65.6995,89.4061 67.5328,89.7394 69.5,89.5C 69.5,91.5 69.5,93.5 69.5,95.5C 46.1667,95.5 22.8333,95.5 -0.5,95.5C -0.5,63.5 -0.5,31.5 -0.5,-0.5 Z"/></g>
<g><path style="opacity:1" fill="#fefaf9" d="M 22.5,7.5 C 23.4959,7.41423 24.3292,7.74756 25,8.5C 25.498,11.4816 25.6646,14.4816 25.5,17.5C 27.1667,17.5 28.8333,17.5 30.5,17.5C 30.5,31.5 30.5,45.5 30.5,59.5C 28.8333,59.5 27.1667,59.5 25.5,59.5C 25.665,62.8499 25.4983,66.1832 25,69.5C 24,70.8333 23,70.8333 22,69.5C 21.5017,66.1832 21.335,62.8499 21.5,59.5C 19.8561,59.7135 18.3561,59.3802 17,58.5C 16.3333,44.8333 16.3333,31.1667 17,17.5C 18.3561,16.6198 19.8561,16.2865 21.5,16.5C 21.2641,13.3915 21.5975,10.3915 22.5,7.5 Z"/></g>
<g><path style="opacity:1" fill="#fef9f8" d="M 46.5,35.5 C 47.4959,35.4142 48.3292,35.7476 49,36.5C 49.4974,39.146 49.6641,41.8127 49.5,44.5C 51.1667,44.5 52.8333,44.5 54.5,44.5C 54.5,52.1667 54.5,59.8333 54.5,67.5C 52.8333,67.5 51.1667,67.5 49.5,67.5C 49.5,70.5 49.5,73.5 49.5,76.5C 48.1779,76.67 47.0113,76.3366 46,75.5C 45.5026,72.854 45.3359,70.1873 45.5,67.5C 43.8333,67.5 42.1667,67.5 40.5,67.5C 40.5,59.8333 40.5,52.1667 40.5,44.5C 42.1667,44.5 43.8333,44.5 45.5,44.5C 45.2641,41.3915 45.5975,38.3915 46.5,35.5 Z"/></g>
<g><path style="opacity:1" fill="#fef7f6" d="M 78.5,54.5 C 78.5,66.1667 78.5,77.8333 78.5,89.5C 76.8333,89.5 75.1667,89.5 73.5,89.5C 73.5,91.5 73.5,93.5 73.5,95.5C 72.1667,95.5 70.8333,95.5 69.5,95.5C 69.5,93.5 69.5,91.5 69.5,89.5C 67.5328,89.7394 65.6995,89.4061 64,88.5C 63.3333,77.1667 63.3333,65.8333 64,54.5C 65.6995,53.5939 67.5328,53.2606 69.5,53.5C 69.5,50.5 69.5,47.5 69.5,44.5C 70.8221,44.33 71.9887,44.6634 73,45.5C 73.4974,48.146 73.6641,50.8127 73.5,53.5C 75.4147,53.2155 77.0813,53.5489 78.5,54.5 Z"/></g>
<g><path style="opacity:0.996" fill="#d82d14" d="M 95.5,45.5 C 95.5,62.1667 95.5,78.8333 95.5,95.5C 88.1667,95.5 80.8333,95.5 73.5,95.5C 73.5,93.5 73.5,91.5 73.5,89.5C 75.1667,89.5 76.8333,89.5 78.5,89.5C 78.5,77.8333 78.5,66.1667 78.5,54.5C 79.7498,54.5774 80.5831,55.244 81,56.5C 85.4208,52.2402 90.2541,48.5735 95.5,45.5 Z"/></g>
</svg>
