<?xml version="1.0" encoding="UTF-8"?>
<!DOCTYPE svg PUBLIC "-//W3C//DTD SVG 1.1//EN" "http://www.w3.org/Graphics/SVG/1.1/DTD/svg11.dtd">
<svg xmlns="http://www.w3.org/2000/svg" version="1.1" width="96px" height="96px" style="shape-rendering:geometricPrecision; text-rendering:geometricPrecision; image-rendering:optimizeQuality; fill-rule:evenodd; clip-rule:evenodd" xmlns:xlink="http://www.w3.org/1999/xlink">
<g><path style="opacity:1" fill="#d74bb2" d="M 14.5,-0.5 C 16.1667,-0.5 17.8333,-0.5 19.5,-0.5C 23.1667,4.16667 26.8333,8.83333 30.5,13.5C 30.5,14.5 30.5,15.5 30.5,16.5C 29.596,17.209 29.2627,18.209 29.5,19.5C 28.1667,19.5 26.8333,19.5 25.5,19.5C 21.898,15.3954 18.0647,11.3954 14,7.5C 11.8926,4.62932 12.0593,1.96265 14.5,-0.5 Z"/></g>
<g><path style="opacity:1" fill="#a057d1" d="M 68.5,19.5 C 68.9175,20.2216 69.5842,20.7216 70.5,21C 70,21.1667 69.5,21.3333 69,21.5C 66.5857,21.5129 64.0857,21.1795 61.5,20.5C 60.2519,21.0402 59.0852,21.7069 58,22.5C 57.6886,21.2575 58.1886,20.2575 59.5,19.5C 59.3764,18.8933 59.0431,18.56 58.5,18.5C 52.879,11.3979 46.5457,10.7312 39.5,16.5C 38.7784,16.0825 38.2784,15.4158 38,14.5C 35.928,14.2575 33.7614,14.5908 31.5,15.5C 31.4437,18.517 31.1103,18.8503 30.5,16.5C 30.5,15.5 30.5,14.5 30.5,13.5C 36.3255,5.09456 44.3255,1.92789 54.5,4C 61.8189,6.81673 66.4856,11.9834 68.5,19.5 Z"/></g>
<g><path style="opacity:0.994" fill="#ad54c8" d="M 39.5,16.5 C 38.2282,19.348 37.3949,22.348 37,25.5C 33.8546,27.7365 30.3546,29.2365 26.5,30C 25.3636,31.1451 24.3636,32.3117 23.5,33.5C 21.4301,34.5073 19.4301,34.174 17.5,32.5C 16.8333,33.1667 16.1667,33.8333 15.5,34.5C 15.0941,33.4425 15.0941,32.1092 15.5,30.5C 17.4481,25.5528 20.7815,21.8862 25.5,19.5C 26.8333,19.5 28.1667,19.5 29.5,19.5C 29.2627,18.209 29.596,17.209 30.5,16.5C 31.1103,18.8503 31.4437,18.517 31.5,15.5C 33.7614,14.5908 35.928,14.2575 38,14.5C 38.2784,15.4158 38.7784,16.0825 39.5,16.5 Z"/></g>
<g><path style="opacity:1" fill="#b054c6" d="M 58.5,18.5 C 59.0431,18.56 59.3764,18.8933 59.5,19.5C 58.1886,20.2575 57.6886,21.2575 58,22.5C 59.0852,21.7069 60.2519,21.0402 61.5,20.5C 64.0857,21.1795 66.5857,21.5129 69,21.5C 69.5,21.3333 70,21.1667 70.5,21C 69.5842,20.7216 68.9175,20.2216 68.5,19.5C 75.6483,21.1434 80.4817,25.4767 83,32.5C 83.8099,36.3575 83.6433,40.0242 82.5,43.5C 82.6602,41.8008 82.4935,40.1341 82,38.5C 78.2141,41.2501 76.2141,40.5834 76,36.5C 75.6667,38.5 75.3333,40.5 75,42.5C 74.6232,43.9423 73.7899,44.9423 72.5,45.5C 76.618,32.4548 71.9513,26.9548 58.5,29C 54.8083,31.5497 53.1416,35.0497 53.5,39.5C 52.776,37.7816 52.1094,35.9483 51.5,34C 49.2732,33.633 46.9399,33.7997 44.5,34.5C 46.0163,26.3223 50.6829,20.9889 58.5,18.5 Z"/></g>
<g><path style="opacity:1" fill="#bd52bf" d="M 53.5,39.5 C 53.6716,40.4916 53.3382,41.1583 52.5,41.5C 50.8016,42.687 48.9682,43.687 47,44.5C 45.3067,43.7971 43.8067,43.7971 42.5,44.5C 43.0761,41.1244 43.7428,37.7911 44.5,34.5C 46.9399,33.7997 49.2732,33.633 51.5,34C 52.1094,35.9483 52.776,37.7816 53.5,39.5 Z"/></g>
<g><path style="opacity:1" fill="#c54fba" d="M 82.5,43.5 C 81.429,47.9764 79.0957,51.6431 75.5,54.5C 75.5858,53.5041 75.2524,52.6708 74.5,52C 71.3718,51.1588 68.3718,50.3254 65.5,49.5C 67.9287,48.4488 70.262,47.1155 72.5,45.5C 73.7899,44.9423 74.6232,43.9423 75,42.5C 75.3333,40.5 75.6667,38.5 76,36.5C 76.2141,40.5834 78.2141,41.2501 82,38.5C 82.4935,40.1341 82.6602,41.8008 82.5,43.5 Z"/></g>
<g><path style="opacity:0.999" fill="#c550ba" d="M 15.5,30.5 C 15.0941,32.1092 15.0941,33.4425 15.5,34.5C 16.1667,33.8333 16.8333,33.1667 17.5,32.5C 19.4301,34.174 21.4301,34.5073 23.5,33.5C 20.9827,43.8086 24.9827,48.9753 35.5,49C 38.2334,48.0958 40.5667,46.5958 42.5,44.5C 43.8067,43.7971 45.3067,43.7971 47,44.5C 48.9682,43.687 50.8016,42.687 52.5,41.5C 52.4081,45.6841 50.7414,49.0174 47.5,51.5C 46.2474,49.4973 44.5808,49.4973 42.5,51.5C 38.0506,51.095 33.3839,50.7616 28.5,50.5C 25.8333,50.6667 23.1667,50.8333 20.5,51C 19.944,51.3826 19.6107,51.8826 19.5,52.5C 16.9374,50.3878 15.104,47.7212 14,44.5C 13.3333,40.5 13.3333,36.5 14,32.5C 14.2784,31.5842 14.7784,30.9175 15.5,30.5 Z"/></g>
<g><path style="opacity:0.999" fill="#d54bb3" d="M 65.5,49.5 C 68.3718,50.3254 71.3718,51.1588 74.5,52C 75.2524,52.6708 75.5858,53.5041 75.5,54.5C 74.5416,54.9528 73.7083,55.6195 73,56.5C 71.4269,67.2757 69.4269,77.9424 67,88.5C 63.0399,92.0621 58.5399,94.3954 53.5,95.5C 51.8333,95.5 50.1667,95.5 48.5,95.5C 48.2492,92.7104 48.2492,89.7104 48.5,86.5C 52.7043,86.705 56.371,85.5383 59.5,83C 61.2127,74.8904 62.5461,66.7237 63.5,58.5C 58.7514,57.5026 57.7514,55.0026 60.5,51C 62.0249,49.9914 63.6916,49.4914 65.5,49.5 Z"/></g>
<g><path style="opacity:1" fill="#d54bb1" d="M 47.5,51.5 C 42.3736,57.9304 35.7069,60.0971 27.5,58C 24.2444,56.884 21.5777,55.0507 19.5,52.5C 19.6107,51.8826 19.944,51.3826 20.5,51C 23.1667,50.8333 25.8333,50.6667 28.5,50.5C 33.3839,50.7616 38.0506,51.095 42.5,51.5C 44.5808,49.4973 46.2474,49.4973 47.5,51.5 Z"/></g>
<g><path style="opacity:1" fill="#a057d3" d="M 48.5,86.5 C 48.2492,89.7104 48.2492,92.7104 48.5,95.5C 46.1667,95.5 43.8333,95.5 41.5,95.5C 38.8245,94.6446 36.1579,93.478 33.5,92C 31.5125,90.6811 30.3459,88.8477 30,86.5C 28.2298,78.2224 27.2298,69.8891 27,61.5C 30.4882,58.5385 33.1549,59.2052 35,63.5C 36.2772,70.8294 37.4439,78.1627 38.5,85.5C 41.7861,86.2071 45.1194,86.5405 48.5,86.5 Z"/></g>
</svg>
