<?xml version="1.0" encoding="UTF-8"?>
<!DOCTYPE svg PUBLIC "-//W3C//DTD SVG 1.1//EN" "http://www.w3.org/Graphics/SVG/1.1/DTD/svg11.dtd">
<svg xmlns="http://www.w3.org/2000/svg" version="1.1" width="96px" height="96px" style="shape-rendering:geometricPrecision; text-rendering:geometricPrecision; image-rendering:optimizeQuality; fill-rule:evenodd; clip-rule:evenodd" xmlns:xlink="http://www.w3.org/1999/xlink">
<g><path style="opacity:0.956" fill="#2989ff" d="M 37.5,-0.5 C 44.1667,-0.5 50.8333,-0.5 57.5,-0.5C 77.1667,5.16667 89.8333,17.8333 95.5,37.5C 95.5,44.1667 95.5,50.8333 95.5,57.5C 94.8333,58.8333 94.1667,60.1667 93.5,61.5C 96.7882,38.5773 88.1215,21.4106 67.5,10C 45.1432,1.30461 25.9766,5.80461 10,23.5C 1.73505,35.9022 -1.09829,48.9022 1.5,62.5C 0.975875,60.6943 0.309209,59.0276 -0.5,57.5C -0.5,50.8333 -0.5,44.1667 -0.5,37.5C 5.16667,17.8333 17.8333,5.16667 37.5,-0.5 Z"/></g>
<g><path style="opacity:0.909" fill="#2c8eff" d="M 93.5,61.5 C 87.6333,79.3677 75.6333,90.701 57.5,95.5C 50.8333,95.5 44.1667,95.5 37.5,95.5C 19.8005,90.8037 7.80053,79.8037 1.5,62.5C -1.09829,48.9022 1.73505,35.9022 10,23.5C 25.9766,5.80461 45.1432,1.30461 67.5,10C 88.1215,21.4106 96.7882,38.5773 93.5,61.5 Z"/></g>
<g><path style="opacity:1" fill="#3092ff" d="M 42.5,10.5 C 42.5,10.8333 42.5,11.1667 42.5,11.5C 41.7784,11.9175 41.2784,12.5842 41,13.5C 36.3793,13.448 31.8793,14.6147 27.5,17C 28.7383,17.69 28.7383,18.19 27.5,18.5C 25.955,19.2297 25.1216,20.563 25,22.5C 22.3226,19.8277 21.4893,20.161 22.5,23.5C 21.0903,24.8284 19.9236,24.4951 19,22.5C 5.28649,38.8677 3.95316,56.201 15,74.5C 29.4823,90.2756 46.649,94.1089 66.5,86C 89.4269,70.1239 93.5936,50.2906 79,26.5C 78.3292,27.2524 77.4959,27.5858 76.5,27.5C 75.6649,26.0568 74.3316,25.0568 72.5,24.5C 75.1667,20.5 74.5,19.8333 70.5,22.5C 69.9432,20.6684 68.9432,19.3351 67.5,18.5C 67.6309,17.6236 67.2975,16.9569 66.5,16.5C 63.0139,15.0886 59.5139,13.7553 56,12.5C 54.9593,14.3115 53.7927,14.6448 52.5,13.5C 53.1098,12.609 53.4431,11.609 53.5,10.5C 53.0472,9.54163 52.3805,8.7083 51.5,8C 77.1066,12.2678 90.7733,27.2678 92.5,53C 88.1941,78.4739 73.1941,92.3072 47.5,94.5C 30.9694,94.1535 18.136,87.1535 9,73.5C -1.02638,52.635 2.14029,34.135 18.5,18C 25.5444,12.7277 33.3777,9.22768 42,7.5C 41.8915,8.76884 42.0582,9.76884 42.5,10.5 Z"/></g>
<g><path style="opacity:1" fill="#e6f1ff" d="M 53.5,10.5 C 53.4431,11.609 53.1098,12.609 52.5,13.5C 49.8609,14.7058 49.0276,16.7058 50,19.5C 51.2408,17.5794 52.7408,17.246 54.5,18.5C 52.8103,20.5193 51.1436,22.5193 49.5,24.5C 48.1653,29.5354 46.9987,29.5354 46,24.5C 44.9609,23.2899 43.7942,22.2899 42.5,21.5C 40.5657,16.597 41.7323,16.2637 46,20.5C 46.1667,19.8333 46.3333,19.1667 46.5,18.5C 45.1491,16.1558 43.8157,13.8225 42.5,11.5C 42.5,11.1667 42.5,10.8333 42.5,10.5C 43.7348,10.7214 44.7348,11.3881 45.5,12.5C 46.9772,7.32029 48.4772,7.32029 50,12.5C 50.8159,11.1772 51.9826,10.5106 53.5,10.5 Z"/></g>
<g><path style="opacity:1" fill="#369aff" d="M 42.5,11.5 C 43.8157,13.8225 45.1491,16.1558 46.5,18.5C 46.3333,19.1667 46.1667,19.8333 46,20.5C 41.7323,16.2637 40.5657,16.597 42.5,21.5C 38.5839,21.2771 36.0839,22.9438 35,26.5C 34.7679,25.2625 34.2679,24.2625 33.5,23.5C 32.791,22.596 31.791,22.2627 30.5,22.5C 30.6602,24.1992 30.4935,25.8659 30,27.5C 28.8465,24.6138 28.0132,21.6138 27.5,18.5C 28.7383,18.19 28.7383,17.69 27.5,17C 31.8793,14.6147 36.3793,13.448 41,13.5C 41.2784,12.5842 41.7784,11.9175 42.5,11.5 Z"/></g>
<g><path style="opacity:1" fill="#409eff" d="M 67.5,18.5 C 68.1197,22.3017 67.2863,25.635 65,28.5C 64.8078,26.4233 64.3078,24.4233 63.5,22.5C 62.8326,25.6417 62.166,28.6417 61.5,31.5C 60.8343,28.9723 60.1676,26.3056 59.5,23.5C 54.047,20.4136 50.8803,22.0802 50,28.5C 49.51,27.2068 49.3433,25.8734 49.5,24.5C 51.1436,22.5193 52.8103,20.5193 54.5,18.5C 52.7408,17.246 51.2408,17.5794 50,19.5C 49.0276,16.7058 49.8609,14.7058 52.5,13.5C 53.7927,14.6448 54.9593,14.3115 56,12.5C 59.5139,13.7553 63.0139,15.0886 66.5,16.5C 67.2975,16.9569 67.6309,17.6236 67.5,18.5 Z"/></g>
<g><path style="opacity:1" fill="#e9f4ff" d="M 27.5,18.5 C 28.0132,21.6138 28.8465,24.6138 30,27.5C 30.4935,25.8659 30.6602,24.1992 30.5,22.5C 31.791,22.2627 32.791,22.596 33.5,23.5C 32.5142,28.1578 33.8476,31.8245 37.5,34.5C 38.1818,33.7573 38.8485,33.0906 39.5,32.5C 40.3764,32.3691 41.0431,32.7025 41.5,33.5C 38.6667,38.5 35.8333,43.5 33,48.5C 30.5022,48.3528 28.0022,48.6861 25.5,49.5C 23.5193,51.1436 21.5193,52.8103 19.5,54.5C 18.479,53.9984 18.3123,53.3317 19,52.5C 20.1667,51.3333 21.3333,50.1667 22.5,49C 19.4038,48.0733 17.0704,49.0733 15.5,52C 14.552,52.4828 13.552,52.6495 12.5,52.5C 12.5106,50.9826 13.1772,49.8159 14.5,49C 9.27021,48.0914 9.27021,46.9247 14.5,45.5C 12.4562,40.3816 13.4562,40.2149 17.5,45C 18.8333,45.6667 20.1667,45.6667 21.5,45C 20.3128,43.9805 19.3128,42.8139 18.5,41.5C 18.6236,40.8933 18.9569,40.56 19.5,40.5C 21.8863,41.3733 23.8863,42.8733 25.5,45C 31.2201,46.3006 34.5534,43.9673 35.5,38C 34.6853,36.0198 33.352,34.5198 31.5,33.5C 28.6417,32.834 25.6417,32.1674 22.5,31.5C 24.4233,30.6922 26.4233,30.1922 28.5,30C 27.8333,29.3333 27.1667,28.6667 26.5,28C 24.0995,27.8142 21.7662,27.3142 19.5,26.5C 20.8333,25.8333 22.1667,25.1667 23.5,24.5C 23.3764,23.8933 23.0431,23.56 22.5,23.5C 21.4893,20.161 22.3226,19.8277 25,22.5C 25.1216,20.563 25.955,19.2297 27.5,18.5 Z"/></g>
<g><path style="opacity:1" fill="#eef7ff" d="M 67.5,18.5 C 68.9432,19.3351 69.9432,20.6684 70.5,22.5C 74.5,19.8333 75.1667,20.5 72.5,24.5C 74.3316,25.0568 75.6649,26.0568 76.5,27.5C 72.6983,26.8803 69.365,27.7137 66.5,30C 68.5767,30.1922 70.5767,30.6922 72.5,31.5C 69.3583,32.1674 66.3583,32.834 63.5,33.5C 61.8546,34.4787 60.5213,35.812 59.5,37.5C 60.5804,39.9962 61.9138,42.3295 63.5,44.5C 65.7649,45.6474 68.0982,45.8141 70.5,45C 72.1137,42.8733 74.1137,41.3733 76.5,40.5C 76.2969,42.0443 75.6302,43.3777 74.5,44.5C 75,44.8333 75.5,45.1667 76,45.5C 77.9626,44.3746 79.796,43.0413 81.5,41.5C 82.731,42.6507 82.731,43.8173 81.5,45C 82.448,45.4828 83.448,45.6495 84.5,45.5C 84.5,46.5 84.5,47.5 84.5,48.5C 83.325,48.281 82.325,48.6143 81.5,49.5C 81.6236,50.1067 81.9569,50.44 82.5,50.5C 82.6309,51.3764 82.2975,52.0431 81.5,52.5C 80.0186,51.5197 78.6853,50.353 77.5,49C 73.0673,48.033 72.5673,48.8663 76,51.5C 76.7494,52.635 76.5827,53.635 75.5,54.5C 73.4807,52.8103 71.4807,51.1436 69.5,49.5C 67.8333,48.1667 66.1667,48.1667 64.5,49.5C 63.6236,49.6309 62.9569,49.2975 62.5,48.5C 60.1401,44.437 57.8067,40.437 55.5,36.5C 52.8815,32.1177 53.8815,31.451 58.5,34.5C 59.8549,33.8118 60.8549,32.8118 61.5,31.5C 62.166,28.6417 62.8326,25.6417 63.5,22.5C 64.3078,24.4233 64.8078,26.4233 65,28.5C 67.2863,25.635 68.1197,22.3017 67.5,18.5 Z"/></g>
<g><path style="opacity:1" fill="#43abff" d="M 42.5,21.5 C 43.7942,22.2899 44.9609,23.2899 46,24.5C 46.9987,29.5354 48.1653,29.5354 49.5,24.5C 49.3433,25.8734 49.51,27.2068 50,28.5C 50.8803,22.0802 54.047,20.4136 59.5,23.5C 60.1676,26.3056 60.8343,28.9723 61.5,31.5C 60.8549,32.8118 59.8549,33.8118 58.5,34.5C 53.8815,31.451 52.8815,32.1177 55.5,36.5C 54.8519,38.0858 54.3519,39.7525 54,41.5C 53.7679,40.2625 53.2679,39.2625 52.5,38.5C 51.2141,35.883 49.5475,33.5496 47.5,31.5C 46.016,32.4669 45.016,33.8002 44.5,35.5C 43.5788,34.019 42.4121,32.6856 41,31.5C 40.2352,31.5699 39.7352,31.9033 39.5,32.5C 38.8485,33.0906 38.1818,33.7573 37.5,34.5C 33.8476,31.8245 32.5142,28.1578 33.5,23.5C 34.2679,24.2625 34.7679,25.2625 35,26.5C 36.0839,22.9438 38.5839,21.2771 42.5,21.5 Z"/></g>
<g><path style="opacity:1" fill="#3a9cff" d="M 22.5,23.5 C 23.0431,23.56 23.3764,23.8933 23.5,24.5C 22.1667,25.1667 20.8333,25.8333 19.5,26.5C 21.7662,27.3142 24.0995,27.8142 26.5,28C 27.1667,28.6667 27.8333,29.3333 28.5,30C 26.4233,30.1922 24.4233,30.6922 22.5,31.5C 25.6417,32.1674 28.6417,32.834 31.5,33.5C 28.4355,34.8184 25.2688,34.8184 22,33.5C 20.4053,35.9268 19.572,38.2601 19.5,40.5C 18.9569,40.56 18.6236,40.8933 18.5,41.5C 19.3128,42.8139 20.3128,43.9805 21.5,45C 20.1667,45.6667 18.8333,45.6667 17.5,45C 13.4562,40.2149 12.4562,40.3816 14.5,45.5C 9.27021,46.9247 9.27021,48.0914 14.5,49C 13.1772,49.8159 12.5106,50.9826 12.5,52.5C 12.9175,53.2216 13.5842,53.7216 14.5,54C 12.3035,55.3691 11.9702,57.2024 13.5,59.5C 15.7969,63.1003 17.7969,66.767 19.5,70.5C 20.8734,70.3433 22.2068,70.51 23.5,71C 21.5794,72.2408 21.246,73.7408 22.5,75.5C 23.4776,75.0233 24.3109,74.3567 25,73.5C 25.2189,74.938 25.7189,76.2713 26.5,77.5C 27.086,77.2907 27.586,76.9574 28,76.5C 28.1177,73.6287 28.7844,70.962 30,68.5C 30.4935,70.1341 30.6602,71.8008 30.5,73.5C 31.5,73.5 32.5,73.5 33.5,73.5C 32.7688,68.9275 33.7688,64.9275 36.5,61.5C 36.8333,61.5 37.1667,61.5 37.5,61.5C 37.5,62.1667 37.8333,62.5 38.5,62.5C 38.5,62.8333 38.5,63.1667 38.5,63.5C 37.5041,63.4142 36.6708,63.7476 36,64.5C 35.3333,66.1667 35.3333,67.8333 36,69.5C 39.3649,72.5946 42.3649,72.5946 45,69.5C 45.3988,69.7284 45.5654,70.0618 45.5,70.5C 43.8564,72.4807 42.1897,74.4807 40.5,76.5C 42.8433,77.7253 44.6766,77.0586 46,74.5C 46.6667,75.8333 46.6667,77.1667 46,78.5C 44.647,79.6853 43.4803,81.0186 42.5,82.5C 43.868,83.5937 45.0347,83.2603 46,81.5C 46.9086,86.7298 48.0753,86.7298 49.5,81.5C 54.6049,83.5173 54.7716,82.5173 50,78.5C 49.3333,77.1667 49.3333,75.8333 50,74.5C 51.129,76.1412 52.629,77.1412 54.5,77.5C 57.5216,75.3339 60.855,74.0006 64.5,73.5C 64.3379,71.4727 64.5045,69.4727 65,67.5C 65.6667,68.1667 66.3333,68.8333 67,69.5C 67.1858,71.9005 67.6858,74.2338 68.5,76.5C 69.1667,75.5 69.8333,74.5 70.5,73.5C 74.462,75.1073 75.1287,74.4406 72.5,71.5C 74.3316,70.9432 75.6649,69.9432 76.5,68.5C 79.6337,65.061 81.6337,60.8944 82.5,56C 79.6105,54.1082 79.9438,53.2749 83.5,53.5C 83.7373,52.209 83.404,51.209 82.5,50.5C 81.9569,50.44 81.6236,50.1067 81.5,49.5C 82.325,48.6143 83.325,48.281 84.5,48.5C 84.5,47.5 84.5,46.5 84.5,45.5C 83.448,45.6495 82.448,45.4828 81.5,45C 82.731,43.8173 82.731,42.6507 81.5,41.5C 79.796,43.0413 77.9626,44.3746 76,45.5C 75.5,45.1667 75,44.8333 74.5,44.5C 75.6302,43.3777 76.2969,42.0443 76.5,40.5C 76.0825,39.7784 75.4158,39.2784 74.5,39C 75.2135,37.6569 74.8802,36.3236 73.5,35C 69.9748,34.8213 66.6414,34.3213 63.5,33.5C 66.3583,32.834 69.3583,32.1674 72.5,31.5C 70.5767,30.6922 68.5767,30.1922 66.5,30C 69.365,27.7137 72.6983,26.8803 76.5,27.5C 77.4959,27.5858 78.3292,27.2524 79,26.5C 93.5936,50.2906 89.4269,70.1239 66.5,86C 46.649,94.1089 29.4823,90.2756 15,74.5C 3.95316,56.201 5.28649,38.8677 19,22.5C 19.9236,24.4951 21.0903,24.8284 22.5,23.5 Z"/></g>
<g><path style="opacity:1" fill="#f9fcff" d="M 52.5,38.5 C 50.5086,45.8284 47.1753,52.495 42.5,58.5C 39.4816,58.6646 36.4816,58.498 33.5,58C 33.0426,57.586 32.7093,57.086 32.5,56.5C 36.7648,49.6354 40.7648,42.6354 44.5,35.5C 45.016,33.8002 46.016,32.4669 47.5,31.5C 49.5475,33.5496 51.2141,35.883 52.5,38.5 Z"/></g>
<g><path style="opacity:1" fill="#42abff" d="M 31.5,33.5 C 33.352,34.5198 34.6853,36.0198 35.5,38C 34.5534,43.9673 31.2201,46.3006 25.5,45C 23.8863,42.8733 21.8863,41.3733 19.5,40.5C 19.572,38.2601 20.4053,35.9268 22,33.5C 25.2688,34.8184 28.4355,34.8184 31.5,33.5 Z"/></g>
<g><path style="opacity:1" fill="#44abff" d="M 63.5,33.5 C 66.6414,34.3213 69.9748,34.8213 73.5,35C 74.8802,36.3236 75.2135,37.6569 74.5,39C 75.4158,39.2784 76.0825,39.7784 76.5,40.5C 74.1137,41.3733 72.1137,42.8733 70.5,45C 68.0982,45.8141 65.7649,45.6474 63.5,44.5C 61.9138,42.3295 60.5804,39.9962 59.5,37.5C 60.5213,35.812 61.8546,34.4787 63.5,33.5 Z"/></g>
<g><path style="opacity:1" fill="#f5fbff" d="M 62.5,54.5 C 62.5,55.8333 62.5,57.1667 62.5,58.5C 58.5,58.5 54.5,58.5 50.5,58.5C 51.2017,54.0945 53.2017,50.4279 56.5,47.5C 58.7447,49.6784 60.7447,52.0117 62.5,54.5 Z"/></g>
<g><path style="opacity:1" fill="#53beff" d="M 55.5,36.5 C 57.8067,40.437 60.1401,44.437 62.5,48.5C 62.9569,49.2975 63.6236,49.6309 64.5,49.5C 65.2029,51.0343 65.0363,52.701 64,54.5C 63.31,53.2617 62.81,53.2617 62.5,54.5C 60.7447,52.0117 58.7447,49.6784 56.5,47.5C 53.2017,50.4279 51.2017,54.0945 50.5,58.5C 47.9387,59.7671 45.272,59.7671 42.5,58.5C 47.1753,52.495 50.5086,45.8284 52.5,38.5C 53.2679,39.2625 53.7679,40.2625 54,41.5C 54.3519,39.7525 54.8519,38.0858 55.5,36.5 Z"/></g>
<g><path style="opacity:1" fill="#3ea5ff" d="M 25.5,49.5 C 29.5,49.8333 29.5,50.1667 25.5,50.5C 25.4571,53.9099 25.9571,57.2432 27,60.5C 28.6225,61.0989 30.1225,61.7656 31.5,62.5C 28.8127,62.3359 26.146,62.5026 23.5,63C 22.1667,63.6667 22.1667,64.3333 23.5,65C 25.1667,65.3333 26.8333,65.6667 28.5,66C 25.4168,67.6146 22.4168,69.1146 19.5,70.5C 17.7969,66.767 15.7969,63.1003 13.5,59.5C 11.9702,57.2024 12.3035,55.3691 14.5,54C 13.5842,53.7216 12.9175,53.2216 12.5,52.5C 13.552,52.6495 14.552,52.4828 15.5,52C 17.0704,49.0733 19.4038,48.0733 22.5,49C 21.3333,50.1667 20.1667,51.3333 19,52.5C 18.3123,53.3317 18.479,53.9984 19.5,54.5C 21.5193,52.8103 23.5193,51.1436 25.5,49.5 Z"/></g>
<g><path style="opacity:1" fill="#3ea3ff" d="M 82.5,50.5 C 83.404,51.209 83.7373,52.209 83.5,53.5C 79.9438,53.2749 79.6105,54.1082 82.5,56C 81.6337,60.8944 79.6337,65.061 76.5,68.5C 73.8127,68.6641 71.146,68.4974 68.5,68C 68.0426,67.586 67.7093,67.086 67.5,66.5C 69.0453,65.5481 70.712,65.2148 72.5,65.5C 72.5,64.5 72.5,63.5 72.5,62.5C 69.5,62.5 66.5,62.5 63.5,62.5C 65.9686,61.6829 68.6353,61.1829 71.5,61C 73.1869,59.087 73.6869,56.9203 73,54.5C 71.5,53 70,51.5 68.5,50C 68.7284,49.6012 69.0618,49.4346 69.5,49.5C 71.4807,51.1436 73.4807,52.8103 75.5,54.5C 76.5827,53.635 76.7494,52.635 76,51.5C 72.5673,48.8663 73.0673,48.033 77.5,49C 78.6853,50.353 80.0186,51.5197 81.5,52.5C 82.2975,52.0431 82.6309,51.3764 82.5,50.5 Z"/></g>
<g><path style="opacity:1" fill="#e2f1ff" d="M 36.5,61.5 C 33.7688,64.9275 32.7688,68.9275 33.5,73.5C 32.5,73.5 31.5,73.5 30.5,73.5C 30.6602,71.8008 30.4935,70.1341 30,68.5C 28.7844,70.962 28.1177,73.6287 28,76.5C 27.586,76.9574 27.086,77.2907 26.5,77.5C 25.7189,76.2713 25.2189,74.938 25,73.5C 24.3109,74.3567 23.4776,75.0233 22.5,75.5C 21.246,73.7408 21.5794,72.2408 23.5,71C 22.2068,70.51 20.8734,70.3433 19.5,70.5C 22.4168,69.1146 25.4168,67.6146 28.5,66C 26.8333,65.6667 25.1667,65.3333 23.5,65C 22.1667,64.3333 22.1667,63.6667 23.5,63C 26.146,62.5026 28.8127,62.3359 31.5,62.5C 32.5307,61.645 33.6974,60.9783 35,60.5C 35.7648,60.5699 36.2648,60.9033 36.5,61.5 Z"/></g>
<g><path style="opacity:1" fill="#f2f9ff" d="M 57.5,61.5 C 57.3893,62.1174 57.056,62.6174 56.5,63C 53.854,63.4974 51.1873,63.6641 48.5,63.5C 48.3367,65.8568 48.5034,68.1902 49,70.5C 51.4536,72.4412 53.287,74.7746 54.5,77.5C 52.629,77.1412 51.129,76.1412 50,74.5C 49.3333,75.8333 49.3333,77.1667 50,78.5C 54.7716,82.5173 54.6049,83.5173 49.5,81.5C 48.0753,86.7298 46.9086,86.7298 46,81.5C 45.0347,83.2603 43.868,83.5937 42.5,82.5C 43.4803,81.0186 44.647,79.6853 46,78.5C 46.6667,77.1667 46.6667,75.8333 46,74.5C 44.6766,77.0586 42.8433,77.7253 40.5,76.5C 42.1897,74.4807 43.8564,72.4807 45.5,70.5C 46.4682,68.3926 46.8016,66.0593 46.5,63.5C 43.8333,63.5 41.1667,63.5 38.5,63.5C 38.5,63.1667 38.5,62.8333 38.5,62.5C 44.6446,61.5098 50.9779,61.1765 57.5,61.5 Z"/></g>
<g><path style="opacity:1" fill="#f1f8ff" d="M 63.5,62.5 C 66.5,62.5 69.5,62.5 72.5,62.5C 72.5,63.5 72.5,64.5 72.5,65.5C 70.712,65.2148 69.0453,65.5481 67.5,66.5C 67.7093,67.086 68.0426,67.586 68.5,68C 71.146,68.4974 73.8127,68.6641 76.5,68.5C 75.6649,69.9432 74.3316,70.9432 72.5,71.5C 75.1287,74.4406 74.462,75.1073 70.5,73.5C 69.8333,74.5 69.1667,75.5 68.5,76.5C 67.6858,74.2338 67.1858,71.9005 67,69.5C 66.3333,68.8333 65.6667,68.1667 65,67.5C 64.5045,69.4727 64.3379,71.4727 64.5,73.5C 62.7629,70.992 61.9296,67.992 62,64.5C 58.713,61.6291 59.213,60.9625 63.5,62.5 Z"/></g>
<g><path style="opacity:1" fill="#49b4ff" d="M 38.5,63.5 C 41.1667,63.5 43.8333,63.5 46.5,63.5C 46.8016,66.0593 46.4682,68.3926 45.5,70.5C 45.5654,70.0618 45.3988,69.7284 45,69.5C 42.3649,72.5946 39.3649,72.5946 36,69.5C 35.3333,67.8333 35.3333,66.1667 36,64.5C 36.6708,63.7476 37.5041,63.4142 38.5,63.5 Z"/></g>
<g><path style="opacity:1" fill="#4bb3ff" d="M 39.5,32.5 C 39.7352,31.9033 40.2352,31.5699 41,31.5C 42.4121,32.6856 43.5788,34.019 44.5,35.5C 40.7648,42.6354 36.7648,49.6354 32.5,56.5C 32.7093,57.086 33.0426,57.586 33.5,58C 36.4816,58.498 39.4816,58.6646 42.5,58.5C 45.272,59.7671 47.9387,59.7671 50.5,58.5C 54.5,58.5 58.5,58.5 62.5,58.5C 62.5,57.1667 62.5,55.8333 62.5,54.5C 62.81,53.2617 63.31,53.2617 64,54.5C 65.0363,52.701 65.2029,51.0343 64.5,49.5C 66.1667,48.1667 67.8333,48.1667 69.5,49.5C 69.0618,49.4346 68.7284,49.6012 68.5,50C 70,51.5 71.5,53 73,54.5C 73.6869,56.9203 73.1869,59.087 71.5,61C 68.6353,61.1829 65.9686,61.6829 63.5,62.5C 59.213,60.9625 58.713,61.6291 62,64.5C 61.9296,67.992 62.7629,70.992 64.5,73.5C 60.855,74.0006 57.5216,75.3339 54.5,77.5C 53.287,74.7746 51.4536,72.4412 49,70.5C 48.5034,68.1902 48.3367,65.8568 48.5,63.5C 51.1873,63.6641 53.854,63.4974 56.5,63C 57.056,62.6174 57.3893,62.1174 57.5,61.5C 50.8333,60.1667 44.1667,60.1667 37.5,61.5C 37.1667,61.5 36.8333,61.5 36.5,61.5C 36.2648,60.9033 35.7648,60.5699 35,60.5C 33.6974,60.9783 32.5307,61.645 31.5,62.5C 30.1225,61.7656 28.6225,61.0989 27,60.5C 25.9571,57.2432 25.4571,53.9099 25.5,50.5C 29.5,50.1667 29.5,49.8333 25.5,49.5C 28.0022,48.6861 30.5022,48.3528 33,48.5C 35.8333,43.5 38.6667,38.5 41.5,33.5C 41.0431,32.7025 40.3764,32.3691 39.5,32.5 Z"/></g>
<g><path style="opacity:1" fill="#a5ddff" d="M 57.5,61.5 C 50.9779,61.1765 44.6446,61.5098 38.5,62.5C 37.8333,62.5 37.5,62.1667 37.5,61.5C 44.1667,60.1667 50.8333,60.1667 57.5,61.5 Z"/></g>
</svg>
