<?xml version="1.0" encoding="UTF-8"?>
<!DOCTYPE svg PUBLIC "-//W3C//DTD SVG 1.1//EN" "http://www.w3.org/Graphics/SVG/1.1/DTD/svg11.dtd">
<svg xmlns="http://www.w3.org/2000/svg" version="1.1" width="96px" height="96px" style="shape-rendering:geometricPrecision; text-rendering:geometricPrecision; image-rendering:optimizeQuality; fill-rule:evenodd; clip-rule:evenodd" xmlns:xlink="http://www.w3.org/1999/xlink">
<g><path style="opacity:0.977" fill="#999999" d="M 37.5,-0.5 C 44.1667,-0.5 50.8333,-0.5 57.5,-0.5C 77.1667,5.16667 89.8333,17.8333 95.5,37.5C 95.5,44.1667 95.5,50.8333 95.5,57.5C 91.731,71.2782 83.731,81.9449 71.5,89.5C 83.7948,56.5557 75.7948,29.7224 47.5,9C 42.4081,6.45406 37.4081,3.95406 32.5,1.5C 34.3057,0.975875 35.9724,0.309209 37.5,-0.5 Z"/></g>
<g><path style="opacity:0.994" fill="#5c5c5c" d="M 32.5,1.5 C 37.4081,3.95406 42.4081,6.45406 47.5,9C 75.7948,29.7224 83.7948,56.5557 71.5,89.5C 67.0681,92.0871 62.4015,94.0871 57.5,95.5C 52.5,95.5 47.5,95.5 42.5,95.5C 56.4906,72.1831 54.1572,50.6831 35.5,31C 27.6829,24.4257 18.6829,20.5924 8.5,19.5C 14.3025,10.5959 22.3025,4.59586 32.5,1.5 Z"/></g>
<g><path style="opacity:0.985" fill="#000000" d="M 8.5,19.5 C 18.6829,20.5924 27.6829,24.4257 35.5,31C 54.1572,50.6831 56.4906,72.1831 42.5,95.5C 40.8333,95.5 39.1667,95.5 37.5,95.5C 17.8333,89.8333 5.16667,77.1667 -0.5,57.5C -0.5,50.8333 -0.5,44.1667 -0.5,37.5C 1.35959,30.9157 4.35959,24.9157 8.5,19.5 Z"/></g>
</svg>
