<?xml version="1.0" encoding="UTF-8"?>
<!DOCTYPE svg PUBLIC "-//W3C//DTD SVG 1.1//EN" "http://www.w3.org/Graphics/SVG/1.1/DTD/svg11.dtd">
<svg xmlns="http://www.w3.org/2000/svg" version="1.1" width="96px" height="96px" style="shape-rendering:geometricPrecision; text-rendering:geometricPrecision; image-rendering:optimizeQuality; fill-rule:evenodd; clip-rule:evenodd" xmlns:xlink="http://www.w3.org/1999/xlink">
<g><path style="opacity:0.724" fill="#14133d" d="M 75.5,77.5 C 73.5248,77.8222 71.8582,77.8222 70.5,77.5C 86.8213,61.3052 88.6547,43.6385 76,24.5C 66.0771,13.9728 53.9104,9.80614 39.5,12C 19.9476,18.3903 10.2809,31.8903 10.5,52.5C 10.6882,54.1033 10.1882,55.4366 9,56.5C 8.58122,52.6083 7.74788,48.9416 6.5,45.5C 9.05671,25.5443 20.0567,13.0443 39.5,8C 65.7148,5.56716 81.8815,17.0672 88,42.5C 89.8585,56.4309 85.6919,68.0976 75.5,77.5 Z"/></g>
<g><path style="opacity:0.69" fill="#17143e" d="M 6.5,45.5 C 7.74788,48.9416 8.58122,52.6083 9,56.5C 10.1882,55.4366 10.6882,54.1033 10.5,52.5C 16.1074,75.4832 30.7741,85.9832 54.5,84C 60.2153,82.638 65.5487,80.4713 70.5,77.5C 71.8582,77.8222 73.5248,77.8222 75.5,77.5C 58.2548,92.3088 40.2548,93.1421 21.5,80C 11.1771,70.8507 6.17715,59.3507 6.5,45.5 Z"/></g>
<g><path style="opacity:1" fill="#e35a61" d="M 70.5,77.5 C 65.5487,80.4713 60.2153,82.638 54.5,84C 30.7741,85.9832 16.1074,75.4832 10.5,52.5C 10.2809,31.8903 19.9476,18.3903 39.5,12C 53.9104,9.80614 66.0771,13.9728 76,24.5C 88.6547,43.6385 86.8213,61.3052 70.5,77.5 Z"/></g>
<g><path style="opacity:1" fill="#ee5860" d="M 23.5,35.5 C 24.8149,36.4756 26.1482,37.4756 27.5,38.5C 23.6315,48.3896 25.2981,57.2229 32.5,65C 35.2432,67.0383 38.2432,68.5383 41.5,69.5C 50.9014,71.4854 58.9014,68.8188 65.5,61.5C 68.3041,63.1381 70.9708,64.9715 73.5,67C 65.0637,77.4311 54.0637,81.9311 40.5,80.5C 18.8245,72.1781 11.4912,56.8447 18.5,34.5C 20.3971,33.3482 22.0638,33.6815 23.5,35.5 Z"/></g>
<g><path style="opacity:1" fill="#1e143e" d="M 65.5,18.5 C 64.1667,18.5 63.5,19.1667 63.5,20.5C 47.6068,12.9326 33.7735,15.5993 22,28.5C 22.1116,30.7972 23.2783,32.4639 25.5,33.5C 24.5,33.8333 23.8333,34.5 23.5,35.5C 22.0638,33.6815 20.3971,33.3482 18.5,34.5C 11.4912,56.8447 18.8245,72.1781 40.5,80.5C 40.0618,80.4346 39.7284,80.6012 39.5,81C 40.7375,81.2321 41.7375,81.7321 42.5,82.5C 26.586,79.0865 16.7527,69.4198 13,53.5C 11.8604,33.6401 20.6937,20.4734 39.5,14C 48.8435,12.3544 57.5101,13.8544 65.5,18.5 Z"/></g>
<g><path style="opacity:1" fill="#18143e" d="M 65.5,18.5 C 80.5728,28.8828 85.4061,42.8828 80,60.5C 72.7773,76.6987 60.2773,84.032 42.5,82.5C 41.7375,81.7321 40.7375,81.2321 39.5,81C 39.7284,80.6012 40.0618,80.4346 40.5,80.5C 54.0637,81.9311 65.0637,77.4311 73.5,67C 70.9708,64.9715 68.3041,63.1381 65.5,61.5C 58.9014,68.8188 50.9014,71.4854 41.5,69.5C 40.1667,68.5 40.1667,67.5 41.5,66.5C 41.8333,66.5 42.1667,66.5 42.5,66.5C 45.8333,66.5 49.1667,66.5 52.5,66.5C 53.1667,53.5 53.8333,40.5 54.5,27.5C 59.2798,28.9378 63.2798,31.6045 66.5,35.5C 68.5,34.1667 70.5,32.8333 72.5,31.5C 73.5827,30.635 73.7494,29.635 73,28.5C 70.2532,25.2463 67.0865,22.5797 63.5,20.5C 63.5,19.1667 64.1667,18.5 65.5,18.5 Z"/></g>
<g><path style="opacity:0.969" fill="#e5736a" d="M 63.5,45.5 C 60.2925,46.975 59.7925,46.3084 62,43.5C 65.3922,39.5635 68.8922,39.5635 72.5,43.5C 72.5,42.5 72.5,41.5 72.5,40.5C 75.1667,41.1667 76.8333,42.8333 77.5,45.5C 76.6667,45.8333 75.8333,46.1667 75,46.5C 73,45.8333 71,45.1667 69,44.5C 64.2448,45.6868 63.4114,48.1868 66.5,52C 69.7525,52.7913 72.7525,52.2913 75.5,50.5C 77.6312,51.6119 77.6312,53.1119 75.5,55C 73.3496,56.4114 71.0163,57.2447 68.5,57.5C 66.9648,54.7684 65.1315,52.1018 63,49.5C 62.7967,52.6614 64.2967,54.8281 67.5,56C 62.5915,55.573 60.2582,52.7397 60.5,47.5C 62.1788,47.7148 63.1788,47.0481 63.5,45.5 Z"/></g>
<g><path style="opacity:0.961" fill="#522948" d="M 73.5,52.5 C 75.3786,52.3932 75.7119,52.8932 74.5,54C 69.6982,55.9397 69.3649,55.4397 73.5,52.5 Z"/></g>
<g><path style="opacity:0.949" fill="#402245" d="M 63.5,45.5 C 64.1415,42.8474 65.8082,41.6807 68.5,42C 66.8043,43.1764 65.1376,44.343 63.5,45.5 Z"/></g>
<g><path style="opacity:1" fill="#14143e" d="M 40.5,27.5 C 41.4955,40.3226 41.8288,53.3226 41.5,66.5C 40.1667,67.5 40.1667,68.5 41.5,69.5C 38.2432,68.5383 35.2432,67.0383 32.5,65C 25.2981,57.2229 23.6315,48.3896 27.5,38.5C 26.1482,37.4756 24.8149,36.4756 23.5,35.5C 23.8333,34.5 24.5,33.8333 25.5,33.5C 26.4822,34.1408 27.4822,34.8075 28.5,35.5C 31.7202,31.6045 35.7202,28.9378 40.5,27.5 Z"/></g>
<g><path style="opacity:0.949" fill="#923a50" d="M 54.5,27.5 C 53.8333,40.5 53.1667,53.5 52.5,66.5C 52.1675,53.15 52.5008,39.8167 53.5,26.5C 54.1067,26.6236 54.44,26.9569 54.5,27.5 Z"/></g>
<g><path style="opacity:0.933" fill="#a43f53" d="M 40.5,27.5 C 40.56,26.9569 40.8933,26.6236 41.5,26.5C 42.4992,39.8167 42.8325,53.15 42.5,66.5C 42.1667,66.5 41.8333,66.5 41.5,66.5C 41.8288,53.3226 41.4955,40.3226 40.5,27.5 Z"/></g>
<g><path style="opacity:1" fill="#f05860" d="M 63.5,20.5 C 67.0865,22.5797 70.2532,25.2463 73,28.5C 73.7494,29.635 73.5827,30.635 72.5,31.5C 70.5,32.8333 68.5,34.1667 66.5,35.5C 63.2798,31.6045 59.2798,28.9378 54.5,27.5C 54.44,26.9569 54.1067,26.6236 53.5,26.5C 52.5008,39.8167 52.1675,53.15 52.5,66.5C 49.1667,66.5 45.8333,66.5 42.5,66.5C 42.8325,53.15 42.4992,39.8167 41.5,26.5C 40.8933,26.6236 40.56,26.9569 40.5,27.5C 35.7202,28.9378 31.7202,31.6045 28.5,35.5C 27.4822,34.8075 26.4822,34.1408 25.5,33.5C 23.2783,32.4639 22.1116,30.7972 22,28.5C 33.7735,15.5993 47.6068,12.9326 63.5,20.5 Z"/></g>
</svg>
