<?xml version="1.0" encoding="UTF-8"?>
<!DOCTYPE svg PUBLIC "-//W3C//DTD SVG 1.1//EN" "http://www.w3.org/Graphics/SVG/1.1/DTD/svg11.dtd">
<svg xmlns="http://www.w3.org/2000/svg" version="1.1" width="96px" height="96px" style="shape-rendering:geometricPrecision; text-rendering:geometricPrecision; image-rendering:optimizeQuality; fill-rule:evenodd; clip-rule:evenodd" xmlns:xlink="http://www.w3.org/1999/xlink">
<g><path style="opacity:0.969" fill="#dedede" d="M 50.5,68.5 C 50.7947,66.2646 50.4614,64.2646 49.5,62.5C 47.5441,57.2107 43.8774,53.544 38.5,51.5C 37.501,39.5185 37.1677,27.5185 37.5,15.5C 55.0922,10.3792 67.2589,16.3792 74,33.5C 76.65,52.1988 68.8167,63.8654 50.5,68.5 Z"/></g>
<g><path style="opacity:1" fill="#001039" d="M 36.5,15.5 C 36.8323,27.5185 36.499,39.5185 35.5,51.5C 34.5011,39.8523 34.1678,28.1857 34.5,16.5C 35.1667,16.1667 35.8333,15.8333 36.5,15.5 Z"/></g>
<g><path style="opacity:0.939" fill="#e0e0df" d="M 33.5,17.5 C 33.6665,28.8382 33.4999,40.1716 33,51.5C 30.0374,52.0256 27.5374,53.359 25.5,55.5C 25.1667,55.5 24.8333,55.5 24.5,55.5C 18.7792,44.5793 19.2792,33.9127 26,23.5C 28.0865,20.9061 30.5865,18.9061 33.5,17.5 Z"/></g>
<g><path style="opacity:1" fill="#233657" d="M 36.5,15.5 C 36.8333,15.5 37.1667,15.5 37.5,15.5C 37.1677,27.5185 37.501,39.5185 38.5,51.5C 43.8774,53.544 47.5441,57.2107 49.5,62.5C 49.5,64.1667 49.5,65.8333 49.5,67.5C 39.003,68.2516 31.003,64.2516 25.5,55.5C 27.5374,53.359 30.0374,52.0256 33,51.5C 33.4999,40.1716 33.6665,28.8382 33.5,17.5C 33.5,16.8333 33.8333,16.5 34.5,16.5C 34.1678,28.1857 34.5011,39.8523 35.5,51.5C 36.499,39.5185 36.8323,27.5185 36.5,15.5 Z"/></g>
<g><path style="opacity:0.93" fill="#1e4480" d="M 24.5,55.5 C 24.8333,55.5 25.1667,55.5 25.5,55.5C 31.003,64.2516 39.003,68.2516 49.5,67.5C 49.5,65.8333 49.5,64.1667 49.5,62.5C 50.4614,64.2646 50.7947,66.2646 50.5,68.5C 46.5594,80.9661 38.5594,84.4661 26.5,79C 19.317,71.6757 18.6504,63.8423 24.5,55.5 Z"/></g>
</svg>
