<?xml version="1.0" encoding="UTF-8"?>
<!DOCTYPE svg PUBLIC "-//W3C//DTD SVG 1.1//EN" "http://www.w3.org/Graphics/SVG/1.1/DTD/svg11.dtd">
<svg xmlns="http://www.w3.org/2000/svg" version="1.1" width="96px" height="96px" style="shape-rendering:geometricPrecision; text-rendering:geometricPrecision; image-rendering:optimizeQuality; fill-rule:evenodd; clip-rule:evenodd" xmlns:xlink="http://www.w3.org/1999/xlink">
<g><path style="opacity:1" fill="#f9ac15" d="M 37.5,-0.5 C 44.1667,-0.5 50.8333,-0.5 57.5,-0.5C 64.1523,1.65773 70.4856,4.65773 76.5,8.5C 67.1905,9.83185 57.5239,10.4985 47.5,10.5C 37.6608,10.4998 27.9941,10.1665 18.5,9.5C 24.1485,4.84268 30.4818,1.50935 37.5,-0.5 Z"/></g>
<g><path style="opacity:1" fill="#f9af1c" d="M 76.5,8.5 C 80.8755,11.8744 84.5422,15.8744 87.5,20.5C 87.4891,23.0009 86.8224,23.1676 85.5,21C 60.261,20.8284 35.0944,20.3284 10,19.5C 9.08145,22.4016 8.24811,22.7349 7.5,20.5C 10.188,15.8119 13.8547,12.1453 18.5,9.5C 27.9941,10.1665 37.6608,10.4998 47.5,10.5C 57.5239,10.4985 67.1905,9.83185 76.5,8.5 Z"/></g>
<g><path style="opacity:0.999" fill="#fab326" d="M 87.5,20.5 C 91.1196,25.3603 93.7863,30.6936 95.5,36.5C 95.5,39.1667 95.5,41.8333 95.5,44.5C 89.2424,44.1903 83.0758,44.5236 77,45.5C 76.8091,43.2922 76.3091,41.2922 75.5,39.5C 73.8008,39.6602 72.1341,39.4935 70.5,39C 67.35,32.5157 62.35,28.1824 55.5,26C 46.9021,24.6241 38.2354,24.1241 29.5,24.5C 29.5,29.5 29.5,34.5 29.5,39.5C 27.5,39.5 25.5,39.5 23.5,39.5C 22.6909,41.2922 22.1909,43.2922 22,45.5C 14.3101,45.1209 6.81006,44.1209 -0.5,42.5C -0.5,40.8333 -0.5,39.1667 -0.5,37.5C 1.34175,31.4814 4.00842,25.8148 7.5,20.5C 8.24811,22.7349 9.08145,22.4016 10,19.5C 35.0944,20.3284 60.261,20.8284 85.5,21C 86.8224,23.1676 87.4891,23.0009 87.5,20.5 Z"/></g>
<g><path style="opacity:1" fill="#fffcf7" d="M 75.5,39.5 C 75.5,41.1667 75.5,42.8333 75.5,44.5C 74.1667,44.5 72.8333,44.5 71.5,44.5C 71.5,46.5 71.5,48.5 71.5,50.5C 72.8333,50.5 74.1667,50.5 75.5,50.5C 75.5,52.1667 75.5,53.8333 75.5,55.5C 73.8008,55.3398 72.1341,55.5065 70.5,56C 67.1324,62.8705 61.7991,67.3705 54.5,69.5C 46.2517,70.4686 37.9183,70.8019 29.5,70.5C 29.5,65.5 29.5,60.5 29.5,55.5C 27.5,55.5 25.5,55.5 23.5,55.5C 22.5489,54.0813 22.2155,52.4147 22.5,50.5C 24.8333,50.5 27.1667,50.5 29.5,50.5C 29.5,48.5 29.5,46.5 29.5,44.5C 27.5,44.5 25.5,44.5 23.5,44.5C 23.5,42.8333 23.5,41.1667 23.5,39.5C 25.5,39.5 27.5,39.5 29.5,39.5C 29.5,34.5 29.5,29.5 29.5,24.5C 38.2354,24.1241 46.9021,24.6241 55.5,26C 62.35,28.1824 67.35,32.5157 70.5,39C 72.1341,39.4935 73.8008,39.6602 75.5,39.5 Z"/></g>
<g><path style="opacity:1" fill="#fab429" d="M 34.5,29.5 C 40.8421,29.3338 47.1754,29.5005 53.5,30C 58.3786,31.5477 62.0453,34.5477 64.5,39C 54.5056,39.4998 44.5056,39.6665 34.5,39.5C 34.5,36.1667 34.5,32.8333 34.5,29.5 Z"/></g>
<g><path style="opacity:0.996" fill="#fabb38" d="M 23.5,39.5 C 23.5,41.1667 23.5,42.8333 23.5,44.5C 25.5,44.5 27.5,44.5 29.5,44.5C 29.5,46.5 29.5,48.5 29.5,50.5C 27.1667,50.5 24.8333,50.5 22.5,50.5C 22.2155,52.4147 22.5489,54.0813 23.5,55.5C 24.9187,56.4511 26.5853,56.7845 28.5,56.5C 28.6657,60.8461 28.499,65.1794 28,69.5C 27.5034,67.1902 27.3367,64.8568 27.5,62.5C 19.5803,62.185 11.747,62.5183 4,63.5C 2.91253,61.0684 2.41253,61.4017 2.5,64.5C 1.3485,62.2209 0.348502,59.8876 -0.5,57.5C -0.5,52.5 -0.5,47.5 -0.5,42.5C 6.81006,44.1209 14.3101,45.1209 22,45.5C 22.1909,43.2922 22.6909,41.2922 23.5,39.5 Z"/></g>
<g><path style="opacity:1" fill="#f9b323" d="M 34.5,46.5 C 34.5,46.1667 34.5,45.8333 34.5,45.5C 44.8333,45.5 55.1667,45.5 65.5,45.5C 65.5,46.8333 65.5,48.1667 65.5,49.5C 55.5,49.5 45.5,49.5 35.5,49.5C 35.7373,48.209 35.404,47.209 34.5,46.5 Z"/></g>
<g><path style="opacity:1" fill="#fcca64" d="M 34.5,45.5 C 44.9869,44.5056 55.6536,44.1722 66.5,44.5C 66.5,46.5 66.5,48.5 66.5,50.5C 55.8333,50.5 45.1667,50.5 34.5,50.5C 34.5,49.1667 34.5,47.8333 34.5,46.5C 35.404,47.209 35.7373,48.209 35.5,49.5C 45.5,49.5 55.5,49.5 65.5,49.5C 65.5,48.1667 65.5,46.8333 65.5,45.5C 55.1667,45.5 44.8333,45.5 34.5,45.5 Z"/></g>
<g><path style="opacity:1" fill="#fbc756" d="M 63.5,57.5 C 54.3483,56.5064 45.015,56.1731 35.5,56.5C 35.5,59.1667 35.5,61.8333 35.5,64.5C 40.8333,64.5 46.1667,64.5 51.5,64.5C 46.0247,65.4889 40.358,65.8222 34.5,65.5C 34.5,62.1667 34.5,58.8333 34.5,55.5C 44.5222,55.1681 54.5222,55.5015 64.5,56.5C 64.3764,57.1067 64.0431,57.44 63.5,57.5 Z"/></g>
<g><path style="opacity:1" fill="#f9bb38" d="M 63.5,57.5 C 60.729,61.8872 56.729,64.2205 51.5,64.5C 46.1667,64.5 40.8333,64.5 35.5,64.5C 35.5,61.8333 35.5,59.1667 35.5,56.5C 45.015,56.1731 54.3483,56.5064 63.5,57.5 Z"/></g>
<g><path style="opacity:0.999" fill="#fabe3e" d="M 75.5,39.5 C 76.3091,41.2922 76.8091,43.2922 77,45.5C 83.0758,44.5236 89.2424,44.1903 95.5,44.5C 95.5,49.1667 95.5,53.8333 95.5,58.5C 94.0271,62.2508 92.3604,65.9175 90.5,69.5C 90.1407,67.1688 89.474,67.3355 88.5,70C 76.9924,70.8259 65.6591,70.6593 54.5,69.5C 61.7991,67.3705 67.1324,62.8705 70.5,56C 72.1341,55.5065 73.8008,55.3398 75.5,55.5C 75.5,53.8333 75.5,52.1667 75.5,50.5C 74.1667,50.5 72.8333,50.5 71.5,50.5C 71.5,48.5 71.5,46.5 71.5,44.5C 72.8333,44.5 74.1667,44.5 75.5,44.5C 75.5,42.8333 75.5,41.1667 75.5,39.5 Z"/></g>
<g><path style="opacity:1" fill="#fac147" d="M 23.5,55.5 C 25.5,55.5 27.5,55.5 29.5,55.5C 29.5,60.5 29.5,65.5 29.5,70.5C 37.9183,70.8019 46.2517,70.4686 54.5,69.5C 65.6591,70.6593 76.9924,70.8259 88.5,70C 89.474,67.3355 90.1407,67.1688 90.5,69.5C 89.2411,73.0246 87.2411,76.0246 84.5,78.5C 84.44,77.9569 84.1067,77.6236 83.5,77.5C 60.5428,78.3232 37.5428,78.8232 14.5,79C 13.5842,79.2784 12.9175,79.7784 12.5,80.5C 7.66868,76.185 4.33535,70.8516 2.5,64.5C 2.41253,61.4017 2.91253,61.0684 4,63.5C 11.747,62.5183 19.5803,62.185 27.5,62.5C 27.3367,64.8568 27.5034,67.1902 28,69.5C 28.499,65.1794 28.6657,60.8461 28.5,56.5C 26.5853,56.7845 24.9187,56.4511 23.5,55.5 Z"/></g>
<g><path style="opacity:1" fill="#fbc54f" d="M 84.5,78.5 C 77.4415,86.6915 68.7748,92.3582 58.5,95.5C 51.1667,95.5 43.8333,95.5 36.5,95.5C 26.9661,92.9684 18.9661,87.9684 12.5,80.5C 12.9175,79.7784 13.5842,79.2784 14.5,79C 37.5428,78.8232 60.5428,78.3232 83.5,77.5C 84.1067,77.6236 84.44,77.9569 84.5,78.5 Z"/></g>
</svg>
