<?xml version="1.0" encoding="UTF-8"?>
<!DOCTYPE svg PUBLIC "-//W3C//DTD SVG 1.1//EN" "http://www.w3.org/Graphics/SVG/1.1/DTD/svg11.dtd">
<svg xmlns="http://www.w3.org/2000/svg" version="1.1" width="96px" height="96px" style="shape-rendering:geometricPrecision; text-rendering:geometricPrecision; image-rendering:optimizeQuality; fill-rule:evenodd; clip-rule:evenodd" xmlns:xlink="http://www.w3.org/1999/xlink">
<g><path style="opacity:1" fill="#c8fec5" d="M -0.5,-0.5 C 31.5,-0.5 63.5,-0.5 95.5,-0.5C 95.5,31.5 95.5,63.5 95.5,95.5C 63.5,95.5 31.5,95.5 -0.5,95.5C -0.5,63.5 -0.5,31.5 -0.5,-0.5 Z"/></g>
<g><path style="opacity:1" fill="#3d745b" d="M 32.5,30.5 C 29.9407,30.1984 27.6074,30.5318 25.5,31.5C 24.9569,31.44 24.6236,31.1067 24.5,30.5C 27.3092,29.1997 29.9759,29.1997 32.5,30.5 Z"/></g>
<g><path style="opacity:1" fill="#3e755c" d="M 68.5,30.5 C 71.0241,29.1997 73.6908,29.1997 76.5,30.5C 76.3764,31.1067 76.0431,31.44 75.5,31.5C 73.3926,30.5318 71.0593,30.1984 68.5,30.5 Z"/></g>
<g><path style="opacity:1" fill="#083e32" d="M 68.5,30.5 C 71.0593,30.1984 73.3926,30.5318 75.5,31.5C 72.4997,42.834 69.4997,54.1674 66.5,65.5C 63.2234,65.7839 60.0567,65.4505 57,64.5C 55.3671,55.7047 53.2004,47.038 50.5,38.5C 48.0239,47.071 45.8572,55.7377 44,64.5C 40.9433,65.4505 37.7766,65.7839 34.5,65.5C 33.8333,62.1667 33.1667,58.8333 32.5,55.5C 28.1667,55.5 23.8333,55.5 19.5,55.5C 19.5,53.8333 19.5,52.1667 19.5,50.5C 23.226,50.8226 26.8927,50.4892 30.5,49.5C 30.3764,48.8933 30.0431,48.56 29.5,48.5C 29.7678,46.901 29.4345,45.5676 28.5,44.5C 25.7131,43.5233 22.7131,43.19 19.5,43.5C 19.5,41.8333 19.5,40.1667 19.5,38.5C 22.2469,38.8134 24.9135,38.48 27.5,37.5C 27.3764,36.8933 27.0431,36.56 26.5,36.5C 26.3713,34.7839 26.038,33.1172 25.5,31.5C 27.6074,30.5318 29.9407,30.1984 32.5,30.5C 34.6011,38.1639 36.7677,45.8305 39,53.5C 40.5337,45.6979 42.5337,38.0312 45,30.5C 48.73,29.5399 52.5633,29.2065 56.5,29.5C 58.0119,36.8968 59.8452,44.2302 62,51.5C 64.072,44.4519 66.2387,37.4519 68.5,30.5 Z"/></g>
<g><path style="opacity:1" fill="#669d7b" d="M 26.5,36.5 C 27.0431,36.56 27.3764,36.8933 27.5,37.5C 24.9135,38.48 22.2469,38.8134 19.5,38.5C 19.5,40.1667 19.5,41.8333 19.5,43.5C 22.7131,43.19 25.7131,43.5233 28.5,44.5C 25.1667,44.5 21.8333,44.5 18.5,44.5C 18.5,42.1667 18.5,39.8333 18.5,37.5C 21.3854,37.8064 24.0521,37.4731 26.5,36.5 Z"/></g>
<g><path style="opacity:1" fill="#437b61" d="M 29.5,48.5 C 30.0431,48.56 30.3764,48.8933 30.5,49.5C 26.8927,50.4892 23.226,50.8226 19.5,50.5C 19.5,52.1667 19.5,53.8333 19.5,55.5C 18.5386,53.7354 18.2053,51.7354 18.5,49.5C 22.3714,49.815 26.0381,49.4816 29.5,48.5 Z"/></g>
</svg>
