<?xml version="1.0" encoding="UTF-8"?>
<!DOCTYPE svg PUBLIC "-//W3C//DTD SVG 1.1//EN" "http://www.w3.org/Graphics/SVG/1.1/DTD/svg11.dtd">
<svg xmlns="http://www.w3.org/2000/svg" version="1.1" width="96px" height="96px" style="shape-rendering:geometricPrecision; text-rendering:geometricPrecision; image-rendering:optimizeQuality; fill-rule:evenodd; clip-rule:evenodd" xmlns:xlink="http://www.w3.org/1999/xlink">
<g><path style="opacity:1" fill="#220f0f" d="M 37.5,-0.5 C 44.1667,-0.5 50.8333,-0.5 57.5,-0.5C 77.1667,5.16667 89.8333,17.8333 95.5,37.5C 95.5,44.1667 95.5,50.8333 95.5,57.5C 89.8333,77.1667 77.1667,89.8333 57.5,95.5C 50.8333,95.5 44.1667,95.5 37.5,95.5C 17.8333,89.8333 5.16667,77.1667 -0.5,57.5C -0.5,50.8333 -0.5,44.1667 -0.5,37.5C 5.16667,17.8333 17.8333,5.16667 37.5,-0.5 Z"/></g>
<g><path style="opacity:1" fill="#8e5d26" d="M 40.5,3.5 C 42.3635,2.20719 44.3635,2.20719 46.5,3.5C 46.0431,4.29755 45.3764,4.63088 44.5,4.5C 43.4324,3.56552 42.099,3.23219 40.5,3.5 Z"/></g>
<g><path style="opacity:1" fill="#efdb37" d="M 40.5,3.5 C 42.099,3.23219 43.4324,3.56552 44.5,4.5C 31.6785,6.07112 22.6785,12.7378 17.5,24.5C 14.566,21.6538 12.066,21.9872 10,25.5C 9.53566,24.9056 9.36899,24.2389 9.5,23.5C 12.7633,17.0736 17.43,12.2403 23.5,9C 21.9926,9.83726 21.4926,11.0039 22,12.5C 27.2394,7.46293 33.4061,4.46293 40.5,3.5 Z"/></g>
<g><path style="opacity:1" fill="#ebc638" d="M 76.5,20.5 C 76.5,22.8333 76.5,25.1667 76.5,27.5C 75.2209,26.032 73.5542,25.3653 71.5,25.5C 69.8251,19.1584 65.8251,15.1584 59.5,13.5C 64.8724,13.3125 69.0391,15.6458 72,20.5C 69.9556,11.2977 64.1223,5.96441 54.5,4.5C 65.6124,4.40877 72.9457,9.74211 76.5,20.5 Z"/></g>
<g><path style="opacity:1" fill="#e0b53b" d="M 85.5,23.5 C 85.7373,24.791 85.404,25.791 84.5,26.5C 82.6849,21.6758 80.0182,17.3424 76.5,13.5C 77.2739,12.2888 78.1072,12.2888 79,13.5C 81.4367,16.7196 83.6033,20.053 85.5,23.5 Z"/></g>
<g><path style="opacity:1" fill="#7f4521" d="M 79.5,20.5 C 78.6773,23.977 78.1773,27.6437 78,31.5C 77.6667,31.8333 77.3333,32.1667 77,32.5C 76.5065,30.8659 76.3398,29.1992 76.5,27.5C 76.5,25.1667 76.5,22.8333 76.5,20.5C 77.6522,19.375 78.6522,19.375 79.5,20.5 Z"/></g>
<g><path style="opacity:1" fill="#edab30" d="M 26.5,29.5 C 20.333,28.1862 14.1664,28.1862 8,29.5C 7.53566,28.9056 7.36899,28.2389 7.5,27.5C 7.6596,25.847 8.32627,24.5137 9.5,23.5C 9.36899,24.2389 9.53566,24.9056 10,25.5C 12.066,21.9872 14.566,21.6538 17.5,24.5C 17.4701,25.4972 17.9701,26.1639 19,26.5C 22.9315,24.903 25.9315,22.2363 28,18.5C 28.3333,19.5 28.6667,20.5 29,21.5C 30.9464,18.8612 31.9464,15.8612 32,12.5C 33.6899,19.1602 31.8566,24.8269 26.5,29.5 Z"/></g>
<g><path style="opacity:1" fill="#ec922a" d="M 7.5,27.5 C 7.36899,28.2389 7.53566,28.9056 8,29.5C 14.1664,28.1862 20.333,28.1862 26.5,29.5C 24.7036,31.9 22.3702,33.5667 19.5,34.5C 14.7639,32.8288 10.2639,33.1621 6,35.5C 5.51722,34.552 5.35055,33.552 5.5,32.5C 5.79586,30.597 6.46253,28.9303 7.5,27.5 Z"/></g>
<g><path style="opacity:1" fill="#ef8f2d" d="M 79.5,20.5 C 82.1685,25.4478 83.1685,30.7812 82.5,36.5C 78.6333,35.2705 74.7999,35.2705 71,36.5C 70.5357,35.9056 70.369,35.2389 70.5,34.5C 71.1587,31.5448 71.4921,28.5448 71.5,25.5C 73.5542,25.3653 75.2209,26.032 76.5,27.5C 76.3398,29.1992 76.5065,30.8659 77,32.5C 77.3333,32.1667 77.6667,31.8333 78,31.5C 78.1773,27.6437 78.6773,23.977 79.5,20.5 Z"/></g>
<g><path style="opacity:1" fill="#ea7328" d="M 5.5,32.5 C 5.35055,33.552 5.51722,34.552 6,35.5C 10.2639,33.1621 14.7639,32.8288 19.5,34.5C 17.1153,36.8838 15.1153,39.5505 13.5,42.5C 10.2977,41.2997 7.13106,41.2997 4,42.5C 3.53566,41.9056 3.36899,41.2389 3.5,40.5C 3.29379,37.5049 3.96046,34.8383 5.5,32.5 Z"/></g>
<g><path style="opacity:1" fill="#e8732c" d="M 57.5,42.5 C 57.38,41.4138 56.7133,40.7472 55.5,40.5C 49.8657,39.4246 44.1991,39.2579 38.5,40C 39.2524,40.6708 39.5858,41.5041 39.5,42.5C 37.8783,40.3912 35.7116,39.3912 33,39.5C 30.2442,40.0099 27.7442,40.8433 25.5,42C 27.1667,40.3333 28.8333,38.6667 30.5,37C 34.7908,37.208 38.4575,35.8747 41.5,33C 45.5,33.3333 49.5,33.6667 53.5,34C 56.0594,31.0747 56.0594,28.0747 53.5,25C 59.7504,28.382 60.0838,32.7153 54.5,38C 56.1626,38.2649 57.6626,37.7649 59,36.5C 61.4788,27.2794 62.4788,27.6128 62,37.5C 60.9509,39.6175 59.4509,41.2842 57.5,42.5 Z"/></g>
<g><path style="opacity:1" fill="#311a12" d="M 41.5,34.5 C 42.9778,34.238 44.3112,34.5713 45.5,35.5C 43.9255,36.6309 42.2588,36.7975 40.5,36C 41.056,35.6174 41.3893,35.1174 41.5,34.5 Z"/></g>
<g><path style="opacity:1" fill="#ea762a" d="M 85.5,23.5 C 89.3469,29.5413 91.3469,36.208 91.5,43.5C 90.7326,42.828 90.0659,41.9947 89.5,41C 84.8452,40.5008 80.1785,40.3342 75.5,40.5C 75.8016,43.0593 75.4682,45.3926 74.5,47.5C 74.8174,44.4281 74.4841,41.4281 73.5,38.5C 71.4864,41.5293 70.3197,44.8626 70,48.5C 67.8619,43.6191 68.0286,38.9524 70.5,34.5C 70.369,35.2389 70.5357,35.9056 71,36.5C 74.7999,35.2705 78.6333,35.2705 82.5,36.5C 83.1174,36.3893 83.6174,36.056 84,35.5C 84.498,32.5184 84.6646,29.5184 84.5,26.5C 85.404,25.791 85.7373,24.791 85.5,23.5 Z"/></g>
<g><path style="opacity:1" fill="#e95327" d="M 57.5,42.5 C 56.5266,42.9867 55.5266,43.4867 54.5,44C 55.6872,45.0195 56.6872,46.1861 57.5,47.5C 57.0302,48.463 56.3635,48.463 55.5,47.5C 51.4063,45.4929 47.073,45.1595 42.5,46.5C 42.0057,48.0255 41.339,49.3588 40.5,50.5C 40.7214,47.7212 40.388,45.0545 39.5,42.5C 39.5858,41.5041 39.2524,40.6708 38.5,40C 44.1991,39.2579 49.8657,39.4246 55.5,40.5C 56.7133,40.7472 57.38,41.4138 57.5,42.5 Z"/></g>
<g><path style="opacity:1" fill="#e92d27" d="M 91.5,43.5 C 92.6402,56.1945 88.9735,67.1945 80.5,76.5C 79.8333,76.5 79.1667,76.5 78.5,76.5C 81.5898,69.4768 83.0898,62.1435 83,54.5C 80.1643,61.3306 76.4977,67.6639 72,73.5C 71.6667,75.5 71.3333,77.5 71,79.5C 69.424,73.6123 69.0906,67.6123 70,61.5C 72.3722,57.0949 73.8722,52.4282 74.5,47.5C 75.4682,45.3926 75.8016,43.0593 75.5,40.5C 80.1785,40.3342 84.8452,40.5008 89.5,41C 90.0659,41.9947 90.7326,42.828 91.5,43.5 Z"/></g>
<g><path style="opacity:1" fill="#e12726" d="M 3.5,40.5 C 3.36899,41.2389 3.53566,41.9056 4,42.5C 7.13106,41.2997 10.2977,41.2997 13.5,42.5C 11.7969,48.1369 12.4635,53.4702 15.5,58.5C 16.3142,56.2338 16.8142,53.9005 17,51.5C 17.6667,50.8333 18.3333,50.1667 19,49.5C 18.6897,61.1567 24.1897,66.6567 35.5,66C 36.6721,65.5814 37.6721,64.9147 38.5,64C 36.6161,63.7837 34.9494,63.117 33.5,62C 35.6079,61.6401 37.6079,60.9734 39.5,60C 38.062,59.7811 36.7287,59.2811 35.5,58.5C 37.2744,57.8133 38.9411,56.9799 40.5,56C 39.5,55.6667 38.5,55.3333 37.5,55C 39.1412,53.871 40.1412,52.371 40.5,50.5C 41.339,49.3588 42.0057,48.0255 42.5,46.5C 47.073,45.1595 51.4063,45.4929 55.5,47.5C 55.0618,47.4346 54.7284,47.6012 54.5,48C 57.2956,49.4186 59.2956,51.5853 60.5,54.5C 59.4239,55.6559 58.4239,55.4892 57.5,54C 55.8333,53.3333 54.1667,53.3333 52.5,54C 65.5072,58.5065 69.3405,67.0065 64,79.5C 63.6412,74.1173 61.6412,69.4506 58,65.5C 57.1627,63.9926 55.9961,63.4926 54.5,64C 58.4263,67.7828 59.4263,72.2828 57.5,77.5C 56.4449,73.7219 54.6116,70.3886 52,67.5C 51.2763,71.8277 52.1096,75.8277 54.5,79.5C 54.1667,80.5 53.5,81.1667 52.5,81.5C 48.9043,78.6431 46.571,74.9764 45.5,70.5C 45.6309,69.6236 45.2975,68.9569 44.5,68.5C 43.5159,71.4281 43.1826,74.4281 43.5,77.5C 40.3915,77.2641 37.3915,77.5975 34.5,78.5C 34.1667,77.8333 33.8333,77.1667 33.5,76.5C 33.44,75.9569 33.1067,75.6236 32.5,75.5C 26.8674,77.0757 21.2008,78.0757 15.5,78.5C 4.5646,67.9763 0.564601,55.3096 3.5,40.5 Z"/></g>
<g><path style="opacity:1" fill="#9a2d26" d="M 33.5,76.5 C 32.6457,77.6316 32.6457,78.965 33.5,80.5C 29.2853,82.4364 24.6186,83.1031 19.5,82.5C 17.8333,81.5 16.5,80.1667 15.5,78.5C 21.2008,78.0757 26.8674,77.0757 32.5,75.5C 33.1067,75.6236 33.44,75.9569 33.5,76.5 Z"/></g>
<g><path style="opacity:1" fill="#7c2e24" d="M 54.5,79.5 C 56.2959,80.7927 57.9625,82.2927 59.5,84C 56.522,84.8331 54.1887,83.9997 52.5,81.5C 53.5,81.1667 54.1667,80.5 54.5,79.5 Z"/></g>
<g><path style="opacity:1" fill="#98382c" d="M 78.5,76.5 C 79.1667,76.5 79.8333,76.5 80.5,76.5C 78.5722,79.6146 75.9056,81.4479 72.5,82C 74.3702,79.9604 76.3702,78.1271 78.5,76.5 Z"/></g>
<g><path style="opacity:1" fill="#862c25" d="M 45.5,70.5 C 43.6595,75.3601 44.6595,79.6935 48.5,83.5C 42.069,86.0965 37.4023,84.4299 34.5,78.5C 37.3915,77.5975 40.3915,77.2641 43.5,77.5C 43.1826,74.4281 43.5159,71.4281 44.5,68.5C 45.2975,68.9569 45.6309,69.6236 45.5,70.5 Z"/></g>
<g><path style="opacity:1" fill="#54241f" d="M 33.5,80.5 C 34.8474,83.3663 36.8474,85.8663 39.5,88C 31.6255,89.9796 24.9588,88.1462 19.5,82.5C 24.6186,83.1031 29.2853,82.4364 33.5,80.5 Z"/></g>
</svg>
