<?xml version="1.0" encoding="UTF-8"?>
<!DOCTYPE svg PUBLIC "-//W3C//DTD SVG 1.1//EN" "http://www.w3.org/Graphics/SVG/1.1/DTD/svg11.dtd">
<svg xmlns="http://www.w3.org/2000/svg" version="1.1" width="96px" height="96px" style="shape-rendering:geometricPrecision; text-rendering:geometricPrecision; image-rendering:optimizeQuality; fill-rule:evenodd; clip-rule:evenodd" xmlns:xlink="http://www.w3.org/1999/xlink">
<g><path style="opacity:0.871" fill="#9b672e" d="M 38.5,0.5 C 38.5,0.166667 38.5,-0.166667 38.5,-0.5C 44.5,-0.5 50.5,-0.5 56.5,-0.5C 58.8876,0.348502 61.2209,1.3485 63.5,2.5C 62.8333,2.5 62.1667,2.5 61.5,2.5C 58.5394,1.67664 55.5394,1.00997 52.5,0.5C 47.8333,0.5 43.1667,0.5 38.5,0.5 Z"/></g>
<g><path style="opacity:1" fill="#f9f4af" d="M 38.5,0.5 C 43.1667,0.5 47.8333,0.5 52.5,0.5C 53.4475,1.97789 54.7809,2.97789 56.5,3.5C 52.1667,3.5 47.8333,3.5 43.5,3.5C 41.8333,2.83333 40.1667,2.16667 38.5,1.5C 38.5,1.16667 38.5,0.833333 38.5,0.5 Z"/></g>
<g><path style="opacity:1" fill="#c79d6c" d="M 38.5,0.5 C 38.5,0.833333 38.5,1.16667 38.5,1.5C 36.2143,1.59495 34.2143,2.26162 32.5,3.5C 30.5648,4.14952 28.5648,4.48285 26.5,4.5C 29.9961,1.95208 33.9961,0.618744 38.5,0.5 Z"/></g>
<g><path style="opacity:1" fill="#f7e584" d="M 52.5,0.5 C 55.5394,1.00997 58.5394,1.67664 61.5,2.5C 61.5569,3.60895 61.8902,4.60895 62.5,5.5C 60.4214,5.02935 58.4214,4.36268 56.5,3.5C 54.7809,2.97789 53.4475,1.97789 52.5,0.5 Z"/></g>
<g><path style="opacity:1" fill="#f5ede4" d="M 32.5,3.5 C 32.8333,4.16667 33.1667,4.83333 33.5,5.5C 31.1815,5.99249 29.1815,6.99249 27.5,8.5C 26.391,8.55688 25.391,8.89022 24.5,9.5C 22.1638,8.40615 22.1638,7.07282 24.5,5.5C 24.8417,4.66175 25.5084,4.32842 26.5,4.5C 28.5648,4.48285 30.5648,4.14952 32.5,3.5 Z"/></g>
<g><path style="opacity:1" fill="#fbf8e4" d="M 38.5,1.5 C 40.1667,2.16667 41.8333,2.83333 43.5,3.5C 41.5853,3.21552 39.9187,3.54885 38.5,4.5C 36.7085,4.36596 35.0418,4.69929 33.5,5.5C 33.1667,4.83333 32.8333,4.16667 32.5,3.5C 34.2143,2.26162 36.2143,1.59495 38.5,1.5 Z"/></g>
<g><path style="opacity:1" fill="#e7c668" d="M 61.5,2.5 C 62.1667,2.5 62.8333,2.5 63.5,2.5C 63.9867,3.47344 64.4867,4.47344 65,5.5C 65.7175,4.54943 66.5509,4.38277 67.5,5C 67.1164,5.9506 66.7831,6.78393 66.5,7.5C 65.0048,7.01131 63.6715,6.34464 62.5,5.5C 61.8902,4.60895 61.5569,3.60895 61.5,2.5 Z"/></g>
<g><path style="opacity:1" fill="#b78537" d="M 63.5,2.5 C 66.9122,3.04207 69.9122,4.3754 72.5,6.5C 71.325,6.28099 70.325,6.61432 69.5,7.5C 70.1272,8.41683 70.4606,9.41683 70.5,10.5C 69.8333,10.5 69.1667,10.5 68.5,10.5C 67.8333,9.83333 67.1667,9.16667 66.5,8.5C 66.5,8.16667 66.5,7.83333 66.5,7.5C 66.7831,6.78393 67.1164,5.9506 67.5,5C 66.5509,4.38277 65.7175,4.54943 65,5.5C 64.4867,4.47344 63.9867,3.47344 63.5,2.5 Z"/></g>
<g><path style="opacity:1" fill="#d9af4b" d="M 72.5,6.5 C 72.5774,7.74975 73.244,8.58309 74.5,9C 73.8333,9.33333 73.1667,9.66667 72.5,10C 74.345,11.678 76.0116,13.5113 77.5,15.5C 77.1667,15.5 76.8333,15.5 76.5,15.5C 74.4602,13.823 72.4602,12.1563 70.5,10.5C 70.4606,9.41683 70.1272,8.41683 69.5,7.5C 70.325,6.61432 71.325,6.28099 72.5,6.5 Z"/></g>
<g><path style="opacity:1" fill="#451b17" d="M 38.5,4.5 C 37.5,5.16667 36.5,5.83333 35.5,6.5C 33.5,7.16667 31.5,7.83333 29.5,8.5C 28.8333,8.5 28.1667,8.5 27.5,8.5C 29.1815,6.99249 31.1815,5.99249 33.5,5.5C 35.0418,4.69929 36.7085,4.36596 38.5,4.5 Z"/></g>
<g><path style="opacity:1" fill="#1b1d1d" d="M 56.5,5.5 C 59.5786,6.30398 62.5786,7.30398 65.5,8.5C 65.5,8.83333 65.5,9.16667 65.5,9.5C 63.5648,8.85048 61.5648,8.51715 59.5,8.5C 59.5,10.1667 59.5,11.8333 59.5,13.5C 58.6906,12.5313 57.6906,11.6979 56.5,11C 57.7119,9.89318 57.3786,9.39318 55.5,9.5C 55.4142,8.5041 55.7476,7.67076 56.5,7C 53.854,6.50258 51.1873,6.33591 48.5,6.5C 48.1667,6.5 47.8333,6.5 47.5,6.5C 45.8333,6.5 44.1667,6.5 42.5,6.5C 45.0825,5.43639 49.7492,5.10306 56.5,5.5 Z"/></g>
<g><path style="opacity:1" fill="#925427" d="M 38.5,4.5 C 39.9187,3.54885 41.5853,3.21552 43.5,3.5C 47.8333,3.5 52.1667,3.5 56.5,3.5C 58.4214,4.36268 60.4214,5.02935 62.5,5.5C 63.6715,6.34464 65.0048,7.01131 66.5,7.5C 66.5,7.83333 66.5,8.16667 66.5,8.5C 66.1667,8.5 65.8333,8.5 65.5,8.5C 62.5786,7.30398 59.5786,6.30398 56.5,5.5C 50.69,4.51045 44.69,4.17711 38.5,4.5 Z"/></g>
<g><path style="opacity:1" fill="#211916" d="M 38.5,4.5 C 44.69,4.17711 50.69,4.51045 56.5,5.5C 49.7492,5.10306 45.0825,5.43639 42.5,6.5C 42.5,7.83333 41.8333,8.5 40.5,8.5C 38.8041,10.129 37.8041,9.79568 37.5,7.5C 37.1583,6.66175 36.4916,6.32842 35.5,6.5C 36.5,5.83333 37.5,5.16667 38.5,4.5 Z"/></g>
<g><path style="opacity:1" fill="#232221" d="M 48.5,6.5 C 51.1873,6.33591 53.854,6.50258 56.5,7C 55.7476,7.67076 55.4142,8.5041 55.5,9.5C 54.596,10.209 54.2627,11.209 54.5,12.5C 53.1667,12.5 52.5,11.8333 52.5,10.5C 53.6887,7.01093 52.8554,6.67759 50,9.5C 49.4867,8.47344 48.9867,7.47344 48.5,6.5 Z"/></g>
<g><path style="opacity:1" fill="#1e1d1b" d="M 47.5,6.5 C 47.8333,6.5 48.1667,6.5 48.5,6.5C 48.9867,7.47344 49.4867,8.47344 50,9.5C 52.8554,6.67759 53.6887,7.01093 52.5,10.5C 51.391,10.5569 50.391,10.8902 49.5,11.5C 48.828,10.7326 47.9947,10.0659 47,9.5C 46.8478,11.382 46.0145,13.0486 44.5,14.5C 43.5987,13.7095 42.9321,12.7095 42.5,11.5C 44.4727,10.194 46.1394,8.52734 47.5,6.5 Z"/></g>
<g><path style="opacity:1" fill="#af7a28" d="M 72.5,6.5 C 77.7946,8.8042 81.7946,12.4709 84.5,17.5C 83.2058,16.7101 82.0391,15.7101 81,14.5C 82.3732,18.2201 84.5398,21.5534 87.5,24.5C 87.5,25.5 87.5,26.5 87.5,27.5C 86.7281,26.3065 85.7281,25.3065 84.5,24.5C 83.3064,20.6367 80.973,17.6367 77.5,15.5C 76.0116,13.5113 74.345,11.678 72.5,10C 73.1667,9.66667 73.8333,9.33333 74.5,9C 73.244,8.58309 72.5774,7.74975 72.5,6.5 Z"/></g>
<g><path style="opacity:1" fill="#e5cda6" d="M 24.5,5.5 C 22.1638,7.07282 22.1638,8.40615 24.5,9.5C 22.8608,10.4725 21.5274,11.8058 20.5,13.5C 19.5084,13.3284 18.8417,13.6618 18.5,14.5C 17.8333,14.8333 17.1667,15.1667 16.5,15.5C 15.5084,15.6716 14.8417,15.3382 14.5,14.5C 15.8333,12.8333 17.1667,11.1667 18.5,9.5C 20.1475,7.6736 22.1475,6.34026 24.5,5.5 Z"/></g>
<g><path style="opacity:1" fill="#292928" d="M 35.5,6.5 C 36.4916,6.32842 37.1583,6.66175 37.5,7.5C 33.7035,8.91143 33.7035,9.91143 37.5,10.5C 37.33,11.8221 37.6634,12.9887 38.5,14C 37.552,14.4828 36.552,14.6495 35.5,14.5C 35.5,13.8333 35.5,13.1667 35.5,12.5C 34.0772,10.4551 32.0772,9.45514 29.5,9.5C 29.5,9.16667 29.5,8.83333 29.5,8.5C 31.5,7.83333 33.5,7.16667 35.5,6.5 Z"/></g>
<g><path style="opacity:1" fill="#22211f" d="M 42.5,6.5 C 44.1667,6.5 45.8333,6.5 47.5,6.5C 46.1394,8.52734 44.4727,10.194 42.5,11.5C 41.2223,11.7822 40.2223,12.4489 39.5,13.5C 38.1435,11.5012 38.8101,10.3345 41.5,10C 40.944,9.61742 40.6107,9.11742 40.5,8.5C 41.8333,8.5 42.5,7.83333 42.5,6.5 Z"/></g>
<g><path style="opacity:1" fill="#221918" d="M 27.5,8.5 C 28.1667,8.5 28.8333,8.5 29.5,8.5C 29.5,8.83333 29.5,9.16667 29.5,9.5C 28.1667,11.1667 28.1667,12.8333 29.5,14.5C 28.8333,14.5 28.1667,14.5 27.5,14.5C 27.1583,13.6618 26.4916,13.3284 25.5,13.5C 25.6309,12.6236 25.2975,11.9569 24.5,11.5C 23.3777,12.6302 22.0443,13.2969 20.5,13.5C 21.5274,11.8058 22.8608,10.4725 24.5,9.5C 25.391,8.89022 26.391,8.55688 27.5,8.5 Z"/></g>
<g><path style="opacity:1" fill="#242322" d="M 65.5,9.5 C 63.8872,10.8381 63.3872,12.5048 64,14.5C 65.3714,10.5969 66.5381,10.5969 67.5,14.5C 66.4097,15.8571 65.0764,16.8571 63.5,17.5C 62.7109,17.2172 62.0442,16.7172 61.5,16C 62.9662,12.1887 62.2996,11.6887 59.5,14.5C 59.5,14.1667 59.5,13.8333 59.5,13.5C 59.5,11.8333 59.5,10.1667 59.5,8.5C 61.5648,8.51715 63.5648,8.85048 65.5,9.5 Z"/></g>
<g><path style="opacity:1" fill="#262523" d="M 29.5,9.5 C 32.0772,9.45514 34.0772,10.4551 35.5,12.5C 34.2502,12.5774 33.4169,13.244 33,14.5C 31.8545,13.3157 30.6879,13.3157 29.5,14.5C 28.1667,12.8333 28.1667,11.1667 29.5,9.5 Z"/></g>
<g><path style="opacity:1" fill="#2d2c2b" d="M 65.5,8.5 C 65.8333,8.5 66.1667,8.5 66.5,8.5C 67.1667,9.16667 67.8333,9.83333 68.5,10.5C 67.1667,10.8333 67.1667,11.1667 68.5,11.5C 68.5,12.5 68.5,13.5 68.5,14.5C 68.1667,14.5 67.8333,14.5 67.5,14.5C 66.5381,10.5969 65.3714,10.5969 64,14.5C 63.3872,12.5048 63.8872,10.8381 65.5,9.5C 65.5,9.16667 65.5,8.83333 65.5,8.5 Z"/></g>
<g><path style="opacity:1" fill="#232220" d="M 35.5,12.5 C 35.5,13.1667 35.5,13.8333 35.5,14.5C 35.5,14.8333 35.5,15.1667 35.5,15.5C 33.3591,18.0186 31.3591,18.0186 29.5,15.5C 29.5,15.1667 29.5,14.8333 29.5,14.5C 30.6879,13.3157 31.8545,13.3157 33,14.5C 33.4169,13.244 34.2502,12.5774 35.5,12.5 Z"/></g>
<g><path style="opacity:1" fill="#201f1d" d="M 25.5,13.5 C 26.4916,13.3284 27.1583,13.6618 27.5,14.5C 25.8102,14.8564 24.8102,15.8564 24.5,17.5C 25.8146,18.8946 25.4812,19.8946 23.5,20.5C 22.9119,18.7949 22.5786,17.1283 22.5,15.5C 23.6016,14.8243 24.6016,14.1577 25.5,13.5 Z"/></g>
<g><path style="opacity:1" fill="#272625" d="M 27.5,14.5 C 28.1667,14.5 28.8333,14.5 29.5,14.5C 29.5,14.8333 29.5,15.1667 29.5,15.5C 28.9569,15.56 28.6236,15.8933 28.5,16.5C 29.3398,17.735 30.3398,18.735 31.5,19.5C 30.8333,19.5 30.5,19.8333 30.5,20.5C 28.7837,18.9752 26.7837,17.9752 24.5,17.5C 24.8102,15.8564 25.8102,14.8564 27.5,14.5 Z"/></g>
<g><path style="opacity:1" fill="#232220" d="M 37.5,7.5 C 37.8041,9.79568 38.8041,10.129 40.5,8.5C 40.6107,9.11742 40.944,9.61742 41.5,10C 38.8101,10.3345 38.1435,11.5012 39.5,13.5C 39.7748,15.8418 40.6081,15.8418 42,13.5C 42.4828,14.448 42.6495,15.448 42.5,16.5C 40.8561,16.7135 39.3561,16.3802 38,15.5C 37.5357,16.0944 37.369,16.7611 37.5,17.5C 36.1667,17.5 35.5,16.8333 35.5,15.5C 35.5,15.1667 35.5,14.8333 35.5,14.5C 36.552,14.6495 37.552,14.4828 38.5,14C 37.6634,12.9887 37.33,11.8221 37.5,10.5C 33.7035,9.91143 33.7035,8.91143 37.5,7.5 Z"/></g>
<g><path style="opacity:1" fill="#21201e" d="M 49.5,11.5 C 49.7678,13.099 49.4345,14.4324 48.5,15.5C 46.7367,16.9538 45.4033,16.6204 44.5,14.5C 46.0145,13.0486 46.8478,11.382 47,9.5C 47.9947,10.0659 48.828,10.7326 49.5,11.5 Z"/></g>
<g><path style="opacity:1" fill="#191716" d="M 54.5,12.5 C 58.7693,14.6483 58.436,15.815 53.5,16C 54.2524,16.6708 54.5858,17.5041 54.5,18.5C 53.4168,18.4606 52.4168,18.1272 51.5,17.5C 50.0562,19.6079 49.3896,21.9412 49.5,24.5C 48.7611,24.631 48.0944,24.4643 47.5,24C 48.5981,23.2303 48.5981,22.397 47.5,21.5C 49.4224,20.04 50.0891,18.3733 49.5,16.5C 51.1911,15.1363 52.8577,13.803 54.5,12.5 Z"/></g>
<g><path style="opacity:1" fill="#302f2e" d="M 67.5,14.5 C 67.8333,14.5 68.1667,14.5 68.5,14.5C 69.3149,15.4293 70.1482,16.4293 71,17.5C 72.0113,16.6634 73.1779,16.33 74.5,16.5C 75.1667,16.5 75.5,16.8333 75.5,17.5C 72.8333,18.1667 70.1667,18.8333 67.5,19.5C 66.9045,16.8875 66.0712,16.8875 65,19.5C 64.2828,18.9558 63.7828,18.2891 63.5,17.5C 65.0764,16.8571 66.4097,15.8571 67.5,14.5 Z"/></g>
<g><path style="opacity:1" fill="#15151d" d="M 68.5,10.5 C 69.1667,10.5 69.8333,10.5 70.5,10.5C 72.4602,12.1563 74.4602,13.823 76.5,15.5C 78.5798,17.5732 80.2464,19.9066 81.5,22.5C 80.8333,22.1667 80.1667,21.8333 79.5,21.5C 78.5,19.8333 77.1667,18.5 75.5,17.5C 75.5,16.8333 75.1667,16.5 74.5,16.5C 72.9095,14.3674 70.9095,12.7007 68.5,11.5C 67.1667,11.1667 67.1667,10.8333 68.5,10.5 Z"/></g>
<g><path style="opacity:0.949" fill="#ca9c4e" d="M 18.5,9.5 C 17.1667,11.1667 15.8333,12.8333 14.5,14.5C 12.8333,15.8333 11.1667,17.1667 9.5,18.5C 11.5,14.5 14.5,11.5 18.5,9.5 Z"/></g>
<g><path style="opacity:1" fill="#232321" d="M 25.5,13.5 C 24.6016,14.1577 23.6016,14.8243 22.5,15.5C 22.5786,17.1283 22.9119,18.7949 23.5,20.5C 20.9592,19.3511 18.4592,19.3511 16,20.5C 16.4826,18.4634 17.3159,16.4634 18.5,14.5C 18.8417,13.6618 19.5084,13.3284 20.5,13.5C 22.0443,13.2969 23.3777,12.6302 24.5,11.5C 25.2975,11.9569 25.6309,12.6236 25.5,13.5 Z"/></g>
<g><path style="opacity:1" fill="#1c1b19" d="M 42.5,11.5 C 42.9321,12.7095 43.5987,13.7095 44.5,14.5C 45.4033,16.6204 46.7367,16.9538 48.5,15.5C 48.5,16.1667 48.8333,16.5 49.5,16.5C 50.0891,18.3733 49.4224,20.04 47.5,21.5C 46.609,22.1098 45.609,22.4431 44.5,22.5C 45.5819,17.4874 44.7486,17.4874 42,22.5C 41.3292,21.7476 40.4959,21.4142 39.5,21.5C 37.3023,21.5912 36.9689,20.9245 38.5,19.5C 38.6716,18.5084 38.3382,17.8417 37.5,17.5C 37.369,16.7611 37.5357,16.0944 38,15.5C 39.3561,16.3802 40.8561,16.7135 42.5,16.5C 42.6495,15.448 42.4828,14.448 42,13.5C 40.6081,15.8418 39.7748,15.8418 39.5,13.5C 40.2223,12.4489 41.2223,11.7822 42.5,11.5 Z"/></g>
<g><path style="opacity:1" fill="#272624" d="M 52.5,10.5 C 52.5,11.8333 53.1667,12.5 54.5,12.5C 52.8577,13.803 51.1911,15.1363 49.5,16.5C 48.8333,16.5 48.5,16.1667 48.5,15.5C 49.4345,14.4324 49.7678,13.099 49.5,11.5C 50.391,10.8902 51.391,10.5569 52.5,10.5 Z"/></g>
<g><path style="opacity:1" fill="#262523" d="M 55.5,9.5 C 57.3786,9.39318 57.7119,9.89318 56.5,11C 57.6906,11.6979 58.6906,12.5313 59.5,13.5C 59.5,13.8333 59.5,14.1667 59.5,14.5C 59.5106,16.0174 60.1772,17.1841 61.5,18C 60.2625,18.2321 59.2625,18.7321 58.5,19.5C 57.609,20.1098 56.609,20.4431 55.5,20.5C 58.4429,17.8196 58.1096,17.153 54.5,18.5C 54.5858,17.5041 54.2524,16.6708 53.5,16C 58.436,15.815 58.7693,14.6483 54.5,12.5C 54.2627,11.209 54.596,10.209 55.5,9.5 Z"/></g>
<g><path style="opacity:1" fill="#282726" d="M 68.5,11.5 C 70.9095,12.7007 72.9095,14.3674 74.5,16.5C 73.1779,16.33 72.0113,16.6634 71,17.5C 70.1482,16.4293 69.3149,15.4293 68.5,14.5C 68.5,13.5 68.5,12.5 68.5,11.5 Z"/></g>
<g><path style="opacity:1" fill="#1e1e1f" d="M 63.5,17.5 C 63.7828,18.2891 64.2828,18.9558 65,19.5C 66.0712,16.8875 66.9045,16.8875 67.5,19.5C 67.5858,20.4959 67.2524,21.3292 66.5,22C 69.0037,22.6976 71.337,23.5309 73.5,24.5C 72.8333,24.5 72.1667,24.5 71.5,24.5C 70.5,24.5 69.5,24.5 68.5,24.5C 67.0813,23.5489 65.4147,23.2155 63.5,23.5C 63.762,22.0222 63.4287,20.6888 62.5,19.5C 61.135,20.8069 59.8016,20.8069 58.5,19.5C 59.2625,18.7321 60.2625,18.2321 61.5,18C 60.1772,17.1841 59.5106,16.0174 59.5,14.5C 62.2996,11.6887 62.9662,12.1887 61.5,16C 62.0442,16.7172 62.7109,17.2172 63.5,17.5 Z"/></g>
<g><path style="opacity:1" fill="#f8f0ea" d="M 14.5,14.5 C 14.8417,15.3382 15.5084,15.6716 16.5,15.5C 14.4453,17.5549 12.7787,19.8883 11.5,22.5C 10.8333,22.5 10.1667,22.5 9.5,22.5C 8.59464,21.2976 8.59464,19.9643 9.5,18.5C 11.1667,17.1667 12.8333,15.8333 14.5,14.5 Z"/></g>
<g><path style="opacity:1" fill="#1d1c1a" d="M 29.5,15.5 C 31.3591,18.0186 33.3591,18.0186 35.5,15.5C 35.5,16.8333 36.1667,17.5 37.5,17.5C 38.3382,17.8417 38.6716,18.5084 38.5,19.5C 36.4846,20.1274 34.1513,20.1274 31.5,19.5C 30.3398,18.735 29.3398,17.735 28.5,16.5C 28.6236,15.8933 28.9569,15.56 29.5,15.5 Z"/></g>
<g><path style="opacity:1" fill="#2b2a29" d="M 75.5,17.5 C 77.1667,18.5 78.5,19.8333 79.5,21.5C 78.5416,21.9528 77.7083,22.6195 77,23.5C 73.4918,19.3888 72.9918,19.5555 75.5,24C 74.9056,24.4643 74.2389,24.631 73.5,24.5C 71.337,23.5309 69.0037,22.6976 66.5,22C 67.2524,21.3292 67.5858,20.4959 67.5,19.5C 70.1667,18.8333 72.8333,18.1667 75.5,17.5 Z"/></g>
<g><path style="opacity:1" fill="#1d1919" d="M 18.5,14.5 C 17.3159,16.4634 16.4826,18.4634 16,20.5C 18.4592,19.3511 20.9592,19.3511 23.5,20.5C 22.8902,21.391 22.5569,22.391 22.5,23.5C 19.6085,22.5975 16.6085,22.2641 13.5,22.5C 12.8333,22.5 12.1667,22.5 11.5,22.5C 12.7787,19.8883 14.4453,17.5549 16.5,15.5C 17.1667,15.1667 17.8333,14.8333 18.5,14.5 Z"/></g>
<g><path style="opacity:1" fill="#2a2624" d="M 38.5,19.5 C 36.9689,20.9245 37.3023,21.5912 39.5,21.5C 38.5946,22.9643 38.5946,24.2976 39.5,25.5C 39.5,25.8333 39.5,26.1667 39.5,26.5C 39.1667,26.5 38.8333,26.5 38.5,26.5C 36.6943,25.9759 35.0276,25.3092 33.5,24.5C 34.552,24.6495 35.552,24.4828 36.5,24C 35.354,23.3551 34.354,22.5217 33.5,21.5C 32.5832,22.1272 31.5832,22.4606 30.5,22.5C 30.5,21.8333 30.5,21.1667 30.5,20.5C 30.5,19.8333 30.8333,19.5 31.5,19.5C 34.1513,20.1274 36.4846,20.1274 38.5,19.5 Z"/></g>
<g><path style="opacity:1" fill="#1e1c1a" d="M 54.5,18.5 C 58.1096,17.153 58.4429,17.8196 55.5,20.5C 54.8902,21.391 54.5569,22.391 54.5,23.5C 53.1667,23.5 51.8333,23.5 50.5,23.5C 50.8718,25.5623 51.2052,27.229 51.5,28.5C 50.8333,29.8333 49.8333,30.8333 48.5,31.5C 48.5,31.1667 48.5,30.8333 48.5,30.5C 48.1667,29.8333 47.8333,29.1667 47.5,28.5C 48.7736,27.8106 48.7736,26.9772 47.5,26C 48.4158,25.7216 49.0825,25.2216 49.5,24.5C 49.3896,21.9412 50.0562,19.6079 51.5,17.5C 52.4168,18.1272 53.4168,18.4606 54.5,18.5 Z"/></g>
<g><path style="opacity:1" fill="#312c2a" d="M 58.5,19.5 C 59.8016,20.8069 61.135,20.8069 62.5,19.5C 63.4287,20.6888 63.762,22.0222 63.5,23.5C 65.4147,23.2155 67.0813,23.5489 68.5,24.5C 66.5,24.5 64.5,24.5 62.5,24.5C 61.4324,23.5655 60.099,23.2322 58.5,23.5C 58.5,22.1667 58.5,20.8333 58.5,19.5 Z"/></g>
<g><path style="opacity:1" fill="#e3e18e" d="M 76.5,15.5 C 76.8333,15.5 77.1667,15.5 77.5,15.5C 80.973,17.6367 83.3064,20.6367 84.5,24.5C 83.5,23.8333 82.5,23.1667 81.5,22.5C 80.2464,19.9066 78.5798,17.5732 76.5,15.5 Z"/></g>
<g><path style="opacity:1" fill="#1e1d1c" d="M 24.5,17.5 C 26.7837,17.9752 28.7837,18.9752 30.5,20.5C 30.5,21.1667 30.5,21.8333 30.5,22.5C 28.5853,22.2155 26.9187,22.5489 25.5,23.5C 24.5,23.5 23.5,23.5 22.5,23.5C 22.5569,22.391 22.8902,21.391 23.5,20.5C 25.4812,19.8946 25.8146,18.8946 24.5,17.5 Z"/></g>
<g><path style="opacity:1" fill="#1d1a1c" d="M 58.5,19.5 C 58.5,20.8333 58.5,22.1667 58.5,23.5C 60.099,23.2322 61.4324,23.5655 62.5,24.5C 60.901,24.2322 59.5676,24.5655 58.5,25.5C 58.1667,25.5 57.8333,25.5 57.5,25.5C 56.5,24.8333 55.5,24.1667 54.5,23.5C 54.5569,22.391 54.8902,21.391 55.5,20.5C 56.609,20.4431 57.609,20.1098 58.5,19.5 Z"/></g>
<g><path style="opacity:1" fill="#c2902e" d="M 84.5,17.5 C 86.2624,18.2623 87.2624,19.5956 87.5,21.5C 87.5,22.5 87.5,23.5 87.5,24.5C 84.5398,21.5534 82.3732,18.2201 81,14.5C 82.0391,15.7101 83.2058,16.7101 84.5,17.5 Z"/></g>
<g><path style="opacity:0.906" fill="#b88853" d="M 9.5,18.5 C 8.59464,19.9643 8.59464,21.2976 9.5,22.5C 8.83333,22.5 8.5,22.8333 8.5,23.5C 7.39105,23.5569 6.39105,23.8902 5.5,24.5C 6.17119,23.1529 6.17119,21.9862 5.5,21C 6.98392,20.3378 8.31725,19.5045 9.5,18.5 Z"/></g>
<g><path style="opacity:1" fill="#13151b" d="M 33.5,24.5 C 32.8333,24.5 32.1667,24.5 31.5,24.5C 29.7354,23.5386 27.7354,23.2053 25.5,23.5C 26.9187,22.5489 28.5853,22.2155 30.5,22.5C 31.5832,22.4606 32.5832,22.1272 33.5,21.5C 34.354,22.5217 35.354,23.3551 36.5,24C 35.552,24.4828 34.552,24.6495 33.5,24.5 Z"/></g>
<g><path style="opacity:1" fill="#222120" d="M 44.5,22.5 C 43.1667,22.8333 43.1667,23.1667 44.5,23.5C 44.631,24.2389 44.4643,24.9056 44,25.5C 42.5861,24.5868 41.0861,24.5868 39.5,25.5C 38.5946,24.2976 38.5946,22.9643 39.5,21.5C 40.4959,21.4142 41.3292,21.7476 42,22.5C 44.7486,17.4874 45.5819,17.4874 44.5,22.5 Z"/></g>
<g><path style="opacity:1" fill="#262224" d="M 79.5,21.5 C 80.1667,21.8333 80.8333,22.1667 81.5,22.5C 82.5,23.1667 83.5,23.8333 84.5,24.5C 84.8333,25.8333 85.1667,27.1667 85.5,28.5C 85.5654,28.9382 85.3988,29.2716 85,29.5C 83.7316,27.2827 82.2316,25.2827 80.5,23.5C 79.2054,24.0983 77.8721,24.5983 76.5,25C 78.3237,25.66 79.657,26.8267 80.5,28.5C 78.6854,27.3702 76.6854,26.7036 74.5,26.5C 73.791,25.596 72.791,25.2627 71.5,25.5C 71.5,25.1667 71.5,24.8333 71.5,24.5C 72.1667,24.5 72.8333,24.5 73.5,24.5C 74.2389,24.631 74.9056,24.4643 75.5,24C 72.9918,19.5555 73.4918,19.3888 77,23.5C 77.7083,22.6195 78.5416,21.9528 79.5,21.5 Z"/></g>
<g><path style="opacity:1" fill="#f4f0ee" d="M 8.5,23.5 C 8.5,23.8333 8.5,24.1667 8.5,24.5C 8.39643,26.7028 7.72976,28.7028 6.5,30.5C 6.62557,28.7206 6.29224,26.7206 5.5,24.5C 6.39105,23.8902 7.39105,23.5569 8.5,23.5 Z"/></g>
<g><path style="opacity:1" fill="#c48745" d="M 11.5,22.5 C 12.1667,22.5 12.8333,22.5 13.5,22.5C 15.631,23.3138 17.9644,23.8138 20.5,24C 19.2617,24.69 19.2617,25.19 20.5,25.5C 20.0831,26.1239 19.4164,26.4573 18.5,26.5C 16.9436,25.4529 15.2769,24.7863 13.5,24.5C 12.5,24.1667 11.8333,23.5 11.5,22.5 Z"/></g>
<g><path style="opacity:1" fill="#391f1f" d="M 13.5,22.5 C 16.6085,22.2641 19.6085,22.5975 22.5,23.5C 23.5,23.5 24.5,23.5 25.5,23.5C 27.7354,23.2053 29.7354,23.5386 31.5,24.5C 28.0613,24.2529 24.728,24.5863 21.5,25.5C 21.1667,25.5 20.8333,25.5 20.5,25.5C 19.2617,25.19 19.2617,24.69 20.5,24C 17.9644,23.8138 15.631,23.3138 13.5,22.5 Z"/></g>
<g><path style="opacity:1" fill="#1e1d1c" d="M 44.5,23.5 C 46.047,24.7682 47.047,26.4348 47.5,28.5C 47.8333,29.1667 48.1667,29.8333 48.5,30.5C 47.8826,30.6107 47.3826,30.944 47,31.5C 46.2525,29.249 44.7525,27.9156 42.5,27.5C 41.8333,27.5 41.1667,27.5 40.5,27.5C 40.5,26.8333 40.1667,26.5 39.5,26.5C 39.5,26.1667 39.5,25.8333 39.5,25.5C 41.0861,24.5868 42.5861,24.5868 44,25.5C 44.4643,24.9056 44.631,24.2389 44.5,23.5 Z"/></g>
<g><path style="opacity:1" fill="#14100f" d="M 54.5,23.5 C 55.5,24.1667 56.5,24.8333 57.5,25.5C 55.5,26.5 53.5,27.5 51.5,28.5C 51.2052,27.229 50.8718,25.5623 50.5,23.5C 51.8333,23.5 53.1667,23.5 54.5,23.5 Z"/></g>
<g><path style="opacity:1" fill="#1a1816" d="M 47.5,21.5 C 48.5981,22.397 48.5981,23.2303 47.5,24C 48.0944,24.4643 48.7611,24.631 49.5,24.5C 49.0825,25.2216 48.4158,25.7216 47.5,26C 48.7736,26.9772 48.7736,27.8106 47.5,28.5C 47.047,26.4348 46.047,24.7682 44.5,23.5C 43.1667,23.1667 43.1667,22.8333 44.5,22.5C 45.609,22.4431 46.609,22.1098 47.5,21.5 Z"/></g>
<g><path style="opacity:1" fill="#efe04f" d="M 31.5,24.5 C 32.1667,24.5 32.8333,24.5 33.5,24.5C 35.0276,25.3092 36.6943,25.9759 38.5,26.5C 38.631,27.2389 38.4643,27.9056 38,28.5C 36.8545,27.3157 35.6879,27.3157 34.5,28.5C 34.1667,28.5 33.8333,28.5 33.5,28.5C 31.1667,28.5 28.8333,28.5 26.5,28.5C 24.901,28.2322 23.5676,28.5655 22.5,29.5C 21.8333,29.8333 21.1667,30.1667 20.5,30.5C 19.4937,30.0623 19.4937,29.3957 20.5,28.5C 21.1098,27.609 21.4431,26.609 21.5,25.5C 24.728,24.5863 28.0613,24.2529 31.5,24.5 Z"/></g>
<g><path style="opacity:1" fill="#ebdb7b" d="M 84.5,24.5 C 85.7281,25.3065 86.7281,26.3065 87.5,27.5C 87.3284,28.4916 87.6618,29.1583 88.5,29.5C 89.7066,33.7862 90.7066,38.1195 91.5,42.5C 91.1667,42.5 90.8333,42.5 90.5,42.5C 89.9853,40.1055 89.3186,37.7722 88.5,35.5C 88.0652,32.8427 87.0652,30.5093 85.5,28.5C 85.1667,27.1667 84.8333,25.8333 84.5,24.5 Z"/></g>
<g><path style="opacity:1" fill="#ad7931" d="M 87.5,21.5 C 89.588,23.3356 90.9213,25.6689 91.5,28.5C 89.8041,26.871 88.8041,27.2043 88.5,29.5C 87.6618,29.1583 87.3284,28.4916 87.5,27.5C 87.5,26.5 87.5,25.5 87.5,24.5C 87.5,23.5 87.5,22.5 87.5,21.5 Z"/></g>
<g><path style="opacity:1" fill="#e9c840" d="M 58.5,25.5 C 59.5676,24.5655 60.901,24.2322 62.5,24.5C 64.5,24.5 66.5,24.5 68.5,24.5C 69.5,24.5 70.5,24.5 71.5,24.5C 71.5,24.8333 71.5,25.1667 71.5,25.5C 72.1667,26.5 72.8333,27.5 73.5,28.5C 73.0618,28.4346 72.7284,28.6012 72.5,29C 73.3805,29.7083 74.0472,30.5416 74.5,31.5C 73.391,31.4431 72.391,31.1098 71.5,30.5C 71.1583,29.6618 70.4916,29.3284 69.5,29.5C 66.8333,29.5 64.1667,29.5 61.5,29.5C 63.9686,28.6829 66.6353,28.1829 69.5,28C 67.8333,27.6667 66.1667,27.3333 64.5,27C 64.8333,26.6667 65.1667,26.3333 65.5,26C 63.1902,25.5034 60.8568,25.3367 58.5,25.5 Z"/></g>
<g><path style="opacity:1" fill="#efe095" d="M 13.5,25.5 C 13.5,25.1667 13.5,24.8333 13.5,24.5C 15.2769,24.7863 16.9436,25.4529 18.5,26.5C 19.4164,26.4573 20.0831,26.1239 20.5,25.5C 20.8333,25.5 21.1667,25.5 21.5,25.5C 21.4431,26.609 21.1098,27.609 20.5,28.5C 18.8561,28.2865 17.3561,28.6198 16,29.5C 15.0656,28.1416 14.2323,26.8083 13.5,25.5 Z"/></g>
<g><path style="opacity:1" fill="#21171d" d="M 42.5,27.5 C 44.7525,27.9156 46.2525,29.249 47,31.5C 47.3826,30.944 47.8826,30.6107 48.5,30.5C 48.5,30.8333 48.5,31.1667 48.5,31.5C 48.5,31.8333 48.5,32.1667 48.5,32.5C 46,35.6599 44.6667,39.3266 44.5,43.5C 43.6618,43.1583 43.3284,42.4916 43.5,41.5C 43.5,41.1667 43.5,40.8333 43.5,40.5C 43.3389,37.4721 44.0056,34.6388 45.5,32C 44.6854,30.3566 43.6854,28.8566 42.5,27.5 Z"/></g>
<g><path style="opacity:1" fill="#f9e947" d="M 58.5,25.5 C 60.8568,25.3367 63.1902,25.5034 65.5,26C 65.1667,26.3333 64.8333,26.6667 64.5,27C 66.1667,27.3333 67.8333,27.6667 69.5,28C 66.6353,28.1829 63.9686,28.6829 61.5,29.5C 59.7697,30.0256 58.4363,31.0256 57.5,32.5C 55.9731,32.427 54.9731,33.0937 54.5,34.5C 53.9569,34.44 53.6236,34.1067 53.5,33.5C 54.8262,32.3578 55.8262,31.0245 56.5,29.5C 57.6002,28.4415 58.9336,27.6082 60.5,27C 59.5842,26.7216 58.9175,26.2216 58.5,25.5 Z"/></g>
<g><path style="opacity:1" fill="#282727" d="M 85.5,28.5 C 87.0652,30.5093 88.0652,32.8427 88.5,35.5C 87.8333,35.8333 87.1667,36.1667 86.5,36.5C 86.1667,36.5 85.8333,36.5 85.5,36.5C 85.2671,34.9382 84.6005,33.6049 83.5,32.5C 82.5,31.1667 81.5,29.8333 80.5,28.5C 79.657,26.8267 78.3237,25.66 76.5,25C 77.8721,24.5983 79.2054,24.0983 80.5,23.5C 82.2316,25.2827 83.7316,27.2827 85,29.5C 85.3988,29.2716 85.5654,28.9382 85.5,28.5 Z"/></g>
<g><path style="opacity:1" fill="#1e2120" d="M 9.5,25.5 C 10.1667,25.5 10.5,25.8333 10.5,26.5C 10.5,28.8333 10.5,31.1667 10.5,33.5C 9.20222,34.1157 8.20222,34.1157 7.5,33.5C 8.3705,30.8877 9.03717,28.221 9.5,25.5 Z"/></g>
<g><path style="opacity:1" fill="#f8e87d" d="M 57.5,25.5 C 57.8333,25.5 58.1667,25.5 58.5,25.5C 58.9175,26.2216 59.5842,26.7216 60.5,27C 58.9336,27.6082 57.6002,28.4415 56.5,29.5C 53.9108,30.4194 51.9108,32.086 50.5,34.5C 49.8333,34.1667 49.1667,33.8333 48.5,33.5C 48.5,33.1667 48.5,32.8333 48.5,32.5C 48.5,32.1667 48.5,31.8333 48.5,31.5C 49.8333,30.8333 50.8333,29.8333 51.5,28.5C 53.5,27.5 55.5,26.5 57.5,25.5 Z"/></g>
<g><path style="opacity:1" fill="#f8d368" d="M 71.5,25.5 C 72.791,25.2627 73.791,25.596 74.5,26.5C 76.8835,27.8851 78.5501,29.8851 79.5,32.5C 78.8333,32.1667 78.1667,31.8333 77.5,31.5C 76.5637,30.0256 75.2303,29.0256 73.5,28.5C 72.8333,27.5 72.1667,26.5 71.5,25.5 Z"/></g>
<g><path style="opacity:1" fill="#f5ecc7" d="M 5.5,24.5 C 6.29224,26.7206 6.62557,28.7206 6.5,30.5C 6.01131,31.9952 5.34464,33.3285 4.5,34.5C 4.16667,32.5 3.83333,30.5 3.5,28.5C 3.6596,26.847 4.32627,25.5137 5.5,24.5 Z"/></g>
<g><path style="opacity:1" fill="#f3b638" d="M 9.5,22.5 C 10.1667,22.5 10.8333,22.5 11.5,22.5C 11.8333,23.5 12.5,24.1667 13.5,24.5C 13.5,24.8333 13.5,25.1667 13.5,25.5C 13.5,27.5 13.5,29.5 13.5,31.5C 13.5,31.8333 13.5,32.1667 13.5,32.5C 13.1667,32.5 12.8333,32.5 12.5,32.5C 12.7947,30.2646 12.4614,28.2646 11.5,26.5C 11.1667,26.5 10.8333,26.5 10.5,26.5C 10.5,25.8333 10.1667,25.5 9.5,25.5C 9.5,24.8333 9.16667,24.5 8.5,24.5C 8.5,24.1667 8.5,23.8333 8.5,23.5C 8.5,22.8333 8.83333,22.5 9.5,22.5 Z"/></g>
<g><path style="opacity:1" fill="#bb8032" d="M 13.5,25.5 C 14.2323,26.8083 15.0656,28.1416 16,29.5C 17.3561,28.6198 18.8561,28.2865 20.5,28.5C 19.4937,29.3957 19.4937,30.0623 20.5,30.5C 19.8333,31.5 19.1667,32.5 18.5,33.5C 16.4862,33.6085 14.8195,32.9418 13.5,31.5C 13.5,29.5 13.5,27.5 13.5,25.5 Z"/></g>
<g><path style="opacity:1" fill="#16151a" d="M 26.5,28.5 C 28.8333,28.5 31.1667,28.5 33.5,28.5C 33.7709,30.3797 33.1042,31.713 31.5,32.5C 30.596,31.791 30.2627,30.791 30.5,29.5C 29.5,29.5 28.5,29.5 27.5,29.5C 26.8333,29.5 26.5,29.1667 26.5,28.5 Z"/></g>
<g><path style="opacity:1" fill="#f3b731" d="M 38.5,26.5 C 38.8333,26.5 39.1667,26.5 39.5,26.5C 40.1667,26.5 40.5,26.8333 40.5,27.5C 40.3832,29.4835 41.0499,31.1502 42.5,32.5C 42.0431,33.2975 41.3764,33.6309 40.5,33.5C 38.4752,31.8036 36.4752,30.137 34.5,28.5C 35.6879,27.3157 36.8545,27.3157 38,28.5C 38.4643,27.9056 38.631,27.2389 38.5,26.5 Z"/></g>
<g><path style="opacity:1" fill="#f5d451" d="M 40.5,27.5 C 41.1667,27.5 41.8333,27.5 42.5,27.5C 43.6854,28.8566 44.6854,30.3566 45.5,32C 44.0056,34.6388 43.3389,37.4721 43.5,40.5C 42.8333,39.5 42.1667,38.5 41.5,37.5C 41.1667,36.1667 40.8333,34.8333 40.5,33.5C 41.3764,33.6309 42.0431,33.2975 42.5,32.5C 41.0499,31.1502 40.3832,29.4835 40.5,27.5 Z"/></g>
<g><path style="opacity:1" fill="#0f0a14" d="M 61.5,29.5 C 64.1667,29.5 66.8333,29.5 69.5,29.5C 67.1667,30.1667 64.8333,30.8333 62.5,31.5C 61.209,31.2627 60.209,31.596 59.5,32.5C 58.8333,32.5 58.1667,32.5 57.5,32.5C 58.4363,31.0256 59.7697,30.0256 61.5,29.5 Z"/></g>
<g><path style="opacity:1" fill="#e79428" d="M 73.5,28.5 C 75.2303,29.0256 76.5637,30.0256 77.5,31.5C 77.848,33.7128 78.6813,35.7128 80,37.5C 80.4983,40.8168 80.665,44.1501 80.5,47.5C 79.8333,45.5 79.1667,43.5 78.5,41.5C 78.5,41.1667 78.5,40.8333 78.5,40.5C 78.7373,39.209 78.404,38.209 77.5,37.5C 76.4706,35.4832 75.4706,33.4832 74.5,31.5C 74.0472,30.5416 73.3805,29.7083 72.5,29C 72.7284,28.6012 73.0618,28.4346 73.5,28.5 Z"/></g>
<g><path style="opacity:1" fill="#d49f54" d="M 74.5,26.5 C 76.6854,26.7036 78.6854,27.3702 80.5,28.5C 81.5,29.8333 82.5,31.1667 83.5,32.5C 82.7784,32.9175 82.2784,33.5842 82,34.5C 81.5831,33.244 80.7498,32.5774 79.5,32.5C 78.5501,29.8851 76.8835,27.8851 74.5,26.5 Z"/></g>
<g><path style="opacity:1" fill="#cd9b2e" d="M 91.5,28.5 C 91.8635,31.5627 92.5302,34.5627 93.5,37.5C 93.4805,38.7261 93.1471,39.7261 92.5,40.5C 91.9347,36.4632 90.6013,32.7966 88.5,29.5C 88.8041,27.2043 89.8041,26.871 91.5,28.5 Z"/></g>
<g><path style="opacity:1" fill="#57221a" d="M 8.5,24.5 C 9.16667,24.5 9.5,24.8333 9.5,25.5C 9.03717,28.221 8.3705,30.8877 7.5,33.5C 5.73452,36.1226 5.06786,39.1226 5.5,42.5C 4.58627,45.728 4.25293,49.0613 4.5,52.5C 3.66175,52.1583 3.32842,51.4916 3.5,50.5C 3.39212,45.1301 3.72546,39.7968 4.5,34.5C 5.34464,33.3285 6.01131,31.9952 6.5,30.5C 7.72976,28.7028 8.39643,26.7028 8.5,24.5 Z"/></g>
<g><path style="opacity:1" fill="#1d1a1b" d="M 33.5,28.5 C 33.8333,28.5 34.1667,28.5 34.5,28.5C 36.4752,30.137 38.4752,31.8036 40.5,33.5C 40.8333,34.8333 41.1667,36.1667 41.5,37.5C 41.5,38.1667 41.5,38.8333 41.5,39.5C 40.6618,39.1583 40.3284,38.4916 40.5,37.5C 39.8559,34.1956 37.8559,32.8622 34.5,33.5C 34.5,34.5 34.5,35.5 34.5,36.5C 34.1667,36.5 33.8333,36.5 33.5,36.5C 32.8333,35.1667 32.1667,33.8333 31.5,32.5C 33.1042,31.713 33.7709,30.3797 33.5,28.5 Z"/></g>
<g><path style="opacity:1" fill="#1a1817" d="M 62.5,31.5 C 64.3797,31.2291 65.713,31.8958 66.5,33.5C 63.8239,34.0081 61.1572,34.1747 58.5,34C 59.056,33.6174 59.3893,33.1174 59.5,32.5C 60.209,31.596 61.209,31.2627 62.5,31.5 Z"/></g>
<g><path style="opacity:1" fill="#1d1c1f" d="M 71.5,30.5 C 72.391,31.1098 73.391,31.4431 74.5,31.5C 75.4706,33.4832 76.4706,35.4832 77.5,37.5C 77.6716,38.4916 77.3382,39.1583 76.5,39.5C 76.4431,38.391 76.1098,37.391 75.5,36.5C 74.5244,35.1851 73.5244,33.8518 72.5,32.5C 71.7025,32.9569 71.3691,33.6236 71.5,34.5C 70.3951,35.6005 69.0618,36.2671 67.5,36.5C 67.5,36.1667 67.5,35.8333 67.5,35.5C 70.1247,34.5343 70.1247,33.5343 67.5,32.5C 68.7658,31.6376 70.0992,30.9709 71.5,30.5 Z"/></g>
<g><path style="opacity:1" fill="#e7bc60" d="M 79.5,32.5 C 80.7498,32.5774 81.5831,33.244 82,34.5C 82.2784,33.5842 82.7784,32.9175 83.5,32.5C 84.6005,33.6049 85.2671,34.9382 85.5,36.5C 84.0413,36.5674 82.7079,36.2341 81.5,35.5C 80.0937,35.0269 79.427,34.0269 79.5,32.5 Z"/></g>
<g><path style="opacity:1" fill="#242220" d="M 22.5,29.5 C 23.5676,28.5655 24.901,28.2322 26.5,28.5C 26.5,29.1667 26.8333,29.5 27.5,29.5C 26.8333,30.8333 26.1667,32.1667 25.5,33.5C 25.7373,34.791 25.404,35.791 24.5,36.5C 19.4443,34.2895 19.4443,32.1228 24.5,30C 23.9056,29.5357 23.2389,29.369 22.5,29.5 Z"/></g>
<g><path style="opacity:1" fill="#d07828" d="M 56.5,29.5 C 55.8262,31.0245 54.8262,32.3578 53.5,33.5C 53.6236,34.1067 53.9569,34.44 54.5,34.5C 54.1667,35.5 53.5,36.1667 52.5,36.5C 52.5654,36.0618 52.3988,35.7284 52,35.5C 51.3918,37.0664 50.5585,38.3998 49.5,39.5C 49.366,37.7085 49.6993,36.0418 50.5,34.5C 51.9108,32.086 53.9108,30.4194 56.5,29.5 Z"/></g>
<g><path style="opacity:1" fill="#242321" d="M 69.5,29.5 C 70.4916,29.3284 71.1583,29.6618 71.5,30.5C 70.0992,30.9709 68.7658,31.6376 67.5,32.5C 70.1247,33.5343 70.1247,34.5343 67.5,35.5C 67.5,34.8333 67.1667,34.5 66.5,34.5C 66.5,34.1667 66.5,33.8333 66.5,33.5C 65.713,31.8958 64.3797,31.2291 62.5,31.5C 64.8333,30.8333 67.1667,30.1667 69.5,29.5 Z"/></g>
<g><path style="opacity:1" fill="#252423" d="M 27.5,29.5 C 28.5,29.5 29.5,29.5 30.5,29.5C 30.2627,30.791 30.596,31.791 31.5,32.5C 32.1667,33.8333 32.8333,35.1667 33.5,36.5C 33.1667,36.5 32.8333,36.5 32.5,36.5C 31.5313,35.6906 30.6979,34.6906 30,33.5C 29.7216,34.4158 29.2216,35.0825 28.5,35.5C 27.2223,35.2178 26.2223,34.5511 25.5,33.5C 26.1667,32.1667 26.8333,30.8333 27.5,29.5 Z"/></g>
<g><path style="opacity:1" fill="#232321" d="M 40.5,37.5 C 38.8008,37.3398 37.1341,37.5065 35.5,38C 34.7476,38.6708 34.4142,39.5041 34.5,40.5C 34.5,41.8333 33.8333,42.5 32.5,42.5C 32.9707,40.4214 33.6373,38.4214 34.5,36.5C 34.5,35.5 34.5,34.5 34.5,33.5C 37.8559,32.8622 39.8559,34.1956 40.5,37.5 Z"/></g>
<g><path style="opacity:1" fill="#262624" d="M 75.5,36.5 C 74.8444,37.2778 74.0111,37.9444 73,38.5C 71.9701,38.1639 71.4701,37.4972 71.5,36.5C 71.5,35.8333 71.5,35.1667 71.5,34.5C 71.3691,33.6236 71.7025,32.9569 72.5,32.5C 73.5244,33.8518 74.5244,35.1851 75.5,36.5 Z"/></g>
<g><path style="opacity:1" fill="#8f451d" d="M 11.5,26.5 C 12.4614,28.2646 12.7947,30.2646 12.5,32.5C 12.5,44.1667 12.5,55.8333 12.5,67.5C 12.634,69.2915 12.3007,70.9582 11.5,72.5C 11.1667,72.5 10.8333,72.5 10.5,72.5C 10.5,71.5 10.5,70.5 10.5,69.5C 11.4959,55.3431 11.8293,41.0097 11.5,26.5 Z"/></g>
<g><path style="opacity:1" fill="#1e1d1c" d="M 32.5,36.5 C 31.8902,37.391 31.5569,38.391 31.5,39.5C 30.5,39.5 29.5,39.5 28.5,39.5C 29.6016,37.9081 28.935,37.0748 26.5,37C 27.4158,36.7216 28.0825,36.2216 28.5,35.5C 29.2216,35.0825 29.7216,34.4158 30,33.5C 30.6979,34.6906 31.5313,35.6906 32.5,36.5 Z"/></g>
<g><path style="opacity:1" fill="#1f1f1d" d="M 7.5,33.5 C 8.20222,34.1157 9.20222,34.1157 10.5,33.5C 10.5,36.8333 10.5,40.1667 10.5,43.5C 9.25025,43.4226 8.41691,42.756 8,41.5C 7.61742,42.056 7.11742,42.3893 6.5,42.5C 6.16667,42.5 5.83333,42.5 5.5,42.5C 5.06786,39.1226 5.73452,36.1226 7.5,33.5 Z"/></g>
<g><path style="opacity:1" fill="#1b181c" d="M 22.5,29.5 C 23.2389,29.369 23.9056,29.5357 24.5,30C 19.4443,32.1228 19.4443,34.2895 24.5,36.5C 24.6716,37.4916 24.3382,38.1583 23.5,38.5C 21.7345,41.1226 21.0679,44.1226 21.5,47.5C 20.8333,50.5 20.1667,53.5 19.5,56.5C 19.5,49.5 19.5,42.5 19.5,35.5C 19.5,34.8333 19.1667,34.5 18.5,34.5C 18.5,34.1667 18.5,33.8333 18.5,33.5C 19.1667,32.5 19.8333,31.5 20.5,30.5C 21.1667,30.1667 21.8333,29.8333 22.5,29.5 Z"/></g>
<g><path style="opacity:1" fill="#be8e46" d="M 48.5,33.5 C 49.1667,33.8333 49.8333,34.1667 50.5,34.5C 49.6993,36.0418 49.366,37.7085 49.5,39.5C 49.3259,41.861 48.9926,44.1944 48.5,46.5C 48.1667,46.5 47.8333,46.5 47.5,46.5C 47.7678,44.901 47.4345,43.5676 46.5,42.5C 47.01,39.4606 47.6766,36.4606 48.5,33.5 Z"/></g>
<g><path style="opacity:1" fill="#262624" d="M 66.5,34.5 C 67.1667,34.5 67.5,34.8333 67.5,35.5C 67.5,35.8333 67.5,36.1667 67.5,36.5C 67.7678,38.099 67.4345,39.4324 66.5,40.5C 65.8333,40.1667 65.1667,39.8333 64.5,39.5C 64.5,38.8333 64.5,38.1667 64.5,37.5C 64.5858,36.5041 64.2524,35.6708 63.5,35C 64.448,34.5172 65.448,34.3505 66.5,34.5 Z"/></g>
<g><path style="opacity:1" fill="#242322" d="M 71.5,36.5 C 71.4701,37.4972 71.9701,38.1639 73,38.5C 74.0111,37.9444 74.8444,37.2778 75.5,36.5C 76.1098,37.391 76.4431,38.391 76.5,39.5C 75.2739,41.3631 73.9406,42.3631 72.5,42.5C 71.8333,41.5 71.1667,40.5 70.5,39.5C 69.1854,38.1054 69.5188,37.1054 71.5,36.5 Z"/></g>
<g><path style="opacity:1" fill="#784e21" d="M 77.5,31.5 C 78.1667,31.8333 78.8333,32.1667 79.5,32.5C 79.427,34.0269 80.0937,35.0269 81.5,35.5C 82.038,37.1172 82.3713,38.7839 82.5,40.5C 82.8333,41.1667 83.1667,41.8333 83.5,42.5C 82.6862,44.631 82.1862,46.9644 82,49.5C 81.31,50.7383 80.81,50.7383 80.5,49.5C 80.5,48.8333 80.5,48.1667 80.5,47.5C 80.665,44.1501 80.4983,40.8168 80,37.5C 78.6813,35.7128 77.848,33.7128 77.5,31.5 Z"/></g>
<g><path style="opacity:1" fill="#f0d875" d="M 81.5,35.5 C 82.7079,36.2341 84.0413,36.5674 85.5,36.5C 85.8333,36.5 86.1667,36.5 86.5,36.5C 86.5,37.1667 86.5,37.8333 86.5,38.5C 85.8333,38.5 85.5,38.8333 85.5,39.5C 84.609,40.1098 83.609,40.4431 82.5,40.5C 82.3713,38.7839 82.038,37.1172 81.5,35.5 Z"/></g>
<g><path style="opacity:1" fill="#282726" d="M 40.5,37.5 C 40.3284,38.4916 40.6618,39.1583 41.5,39.5C 40.0697,40.5375 38.403,41.2041 36.5,41.5C 37.847,37.8904 37.1804,37.5571 34.5,40.5C 34.4142,39.5041 34.7476,38.6708 35.5,38C 37.1341,37.5065 38.8008,37.3398 40.5,37.5 Z"/></g>
<g><path style="opacity:1" fill="#221f1f" d="M 57.5,32.5 C 58.1667,32.5 58.8333,32.5 59.5,32.5C 59.3893,33.1174 59.056,33.6174 58.5,34C 61.1572,34.1747 63.8239,34.0081 66.5,33.5C 66.5,33.8333 66.5,34.1667 66.5,34.5C 65.448,34.3505 64.448,34.5172 63.5,35C 64.2524,35.6708 64.5858,36.5041 64.5,37.5C 62.9699,38.2112 61.6366,39.2112 60.5,40.5C 59.659,38.4885 58.159,37.1552 56,36.5C 54.583,37.0779 53.7496,38.0779 53.5,39.5C 52.8902,40.391 52.5569,41.391 52.5,42.5C 51.6618,42.1583 51.3284,41.4916 51.5,40.5C 51.8333,39.1667 52.1667,37.8333 52.5,36.5C 53.5,36.1667 54.1667,35.5 54.5,34.5C 54.9731,33.0937 55.9731,32.427 57.5,32.5 Z"/></g>
<g><path style="opacity:1" fill="#292827" d="M 71.5,34.5 C 71.5,35.1667 71.5,35.8333 71.5,36.5C 69.5188,37.1054 69.1854,38.1054 70.5,39.5C 69.6255,41.69 67.9589,42.69 65.5,42.5C 65.8333,41.8333 66.1667,41.1667 66.5,40.5C 67.4345,39.4324 67.7678,38.099 67.5,36.5C 69.0618,36.2671 70.3951,35.6005 71.5,34.5 Z"/></g>
<g><path style="opacity:1" fill="#865724" d="M 13.5,31.5 C 14.8195,32.9418 16.4862,33.6085 18.5,33.5C 18.5,33.8333 18.5,34.1667 18.5,34.5C 17.8333,34.8333 17.1667,35.1667 16.5,35.5C 14.4482,36.0527 14.1148,37.0527 15.5,38.5C 14.9346,40.9521 14.2679,43.2854 13.5,45.5C 13.5,41.1667 13.5,36.8333 13.5,32.5C 13.5,32.1667 13.5,31.8333 13.5,31.5 Z"/></g>
<g><path style="opacity:1" fill="#deb950" d="M 19.5,35.5 C 19.5,42.5 19.5,49.5 19.5,56.5C 18.5,56.1667 17.8333,55.5 17.5,54.5C 17.5,54.1667 17.5,53.8333 17.5,53.5C 17.3253,51.3792 17.6586,49.3792 18.5,47.5C 18.1832,43.2984 18.5166,39.2984 19.5,35.5 Z"/></g>
<g><path style="opacity:1" fill="#262523" d="M 60.5,40.5 C 60.5,41.1667 60.1667,41.5 59.5,41.5C 58.4583,40.2089 57.2917,40.2089 56,41.5C 55.5831,40.244 54.7498,39.5774 53.5,39.5C 53.7496,38.0779 54.583,37.0779 56,36.5C 58.159,37.1552 59.659,38.4885 60.5,40.5 Z"/></g>
<g><path style="opacity:1" fill="#fdef6a" d="M 18.5,34.5 C 19.1667,34.5 19.5,34.8333 19.5,35.5C 18.5166,39.2984 18.1832,43.2984 18.5,47.5C 17.7752,43.6047 17.1086,39.6047 16.5,35.5C 17.1667,35.1667 17.8333,34.8333 18.5,34.5 Z"/></g>
<g><path style="opacity:1" fill="#232221" d="M 28.5,39.5 C 29.5,39.5 30.5,39.5 31.5,39.5C 31.449,42.1623 31.2824,44.829 31,47.5C 30.0147,45.8251 29.1814,44.1585 28.5,42.5C 28.5,41.5 28.5,40.5 28.5,39.5 Z"/></g>
<g><path style="opacity:1" fill="#22211f" d="M 53.5,39.5 C 54.7498,39.5774 55.5831,40.244 56,41.5C 57.2917,40.2089 58.4583,40.2089 59.5,41.5C 59.3713,43.2161 59.038,44.8828 58.5,46.5C 57.8333,46.8333 57.1667,47.1667 56.5,47.5C 57.9726,45.4071 57.4726,43.7405 55,42.5C 54.2303,43.5981 53.397,43.5981 52.5,42.5C 52.5569,41.391 52.8902,40.391 53.5,39.5 Z"/></g>
<g><path style="opacity:1" fill="#1c1a19" d="M 64.5,37.5 C 64.5,38.1667 64.5,38.8333 64.5,39.5C 62.3411,40.7849 61.6745,42.4515 62.5,44.5C 62.6716,45.4916 62.3382,46.1583 61.5,46.5C 60.8333,45.1667 60.1667,45.1667 59.5,46.5C 59.1667,46.5 58.8333,46.5 58.5,46.5C 59.038,44.8828 59.3713,43.2161 59.5,41.5C 60.1667,41.5 60.5,41.1667 60.5,40.5C 61.6366,39.2112 62.9699,38.2112 64.5,37.5 Z"/></g>
<g><path style="opacity:1" fill="#252423" d="M 70.5,39.5 C 71.1667,40.5 71.8333,41.5 72.5,42.5C 73.6602,44.2027 72.9935,44.8693 70.5,44.5C 70.2252,42.1582 69.3919,42.1582 68,44.5C 67.3292,43.7476 66.4959,43.4142 65.5,43.5C 65.5,43.1667 65.5,42.8333 65.5,42.5C 67.9589,42.69 69.6255,41.69 70.5,39.5 Z"/></g>
<g><path style="opacity:1" fill="#292826" d="M 23.5,38.5 C 24.0289,40.5834 25.0289,42.4167 26.5,44C 25.7471,45.487 24.9138,45.6537 24,44.5C 23.6264,46.4913 22.793,48.158 21.5,49.5C 21.5,48.8333 21.5,48.1667 21.5,47.5C 21.0679,44.1226 21.7345,41.1226 23.5,38.5 Z"/></g>
<g><path style="opacity:1" fill="#342f29" d="M 41.5,37.5 C 42.1667,38.5 42.8333,39.5 43.5,40.5C 43.5,40.8333 43.5,41.1667 43.5,41.5C 41.0202,42.242 38.6869,43.242 36.5,44.5C 35.1667,43.5 35.1667,42.5 36.5,41.5C 38.403,41.2041 40.0697,40.5375 41.5,39.5C 41.5,38.8333 41.5,38.1667 41.5,37.5 Z"/></g>
<g><path style="opacity:1" fill="#2f2e2c" d="M 36.5,41.5 C 35.1667,42.5 35.1667,43.5 36.5,44.5C 36.7329,46.0618 37.3995,47.3951 38.5,48.5C 38.5,49.1667 38.1667,49.5 37.5,49.5C 35.0973,47.7532 33.4307,45.4198 32.5,42.5C 33.8333,42.5 34.5,41.8333 34.5,40.5C 37.1804,37.5571 37.847,37.8904 36.5,41.5 Z"/></g>
<g><path style="opacity:1" fill="#272624" d="M 52.5,42.5 C 53.397,43.5981 54.2303,43.5981 55,42.5C 57.4726,43.7405 57.9726,45.4071 56.5,47.5C 55.5084,47.3284 54.8417,47.6618 54.5,48.5C 52.7202,47.0101 52.0535,45.0101 52.5,42.5 Z"/></g>
<g><path style="opacity:1" fill="#2a2928" d="M 64.5,39.5 C 65.1667,39.8333 65.8333,40.1667 66.5,40.5C 66.1667,41.1667 65.8333,41.8333 65.5,42.5C 65.5,42.8333 65.5,43.1667 65.5,43.5C 64.7321,44.2625 64.2321,45.2625 64,46.5C 63.7216,45.5842 63.2216,44.9175 62.5,44.5C 61.6745,42.4515 62.3411,40.7849 64.5,39.5 Z"/></g>
<g><path style="opacity:1" fill="#deae5b" d="M 85.5,39.5 C 85.5,42.5 85.5,45.5 85.5,48.5C 85.1667,48.5 84.8333,48.5 84.5,48.5C 84.1667,46.5 83.8333,44.5 83.5,42.5C 83.1667,41.8333 82.8333,41.1667 82.5,40.5C 83.609,40.4431 84.609,40.1098 85.5,39.5 Z"/></g>
<g><path style="opacity:1" fill="#1c1b19" d="M 10.5,43.5 C 10.5,44.1667 10.5,44.8333 10.5,45.5C 9.16667,46.1667 7.83333,46.8333 6.5,47.5C 6.5,45.8333 6.5,44.1667 6.5,42.5C 7.11742,42.3893 7.61742,42.056 8,41.5C 8.41691,42.756 9.25025,43.4226 10.5,43.5 Z"/></g>
<g><path style="opacity:1" fill="#262423" d="M 43.5,41.5 C 43.3284,42.4916 43.6618,43.1583 44.5,43.5C 44.5,44.5 44.5,45.5 44.5,46.5C 44.1667,46.5 43.8333,46.5 43.5,46.5C 43.631,45.7611 43.4643,45.0944 43,44.5C 42.51,45.7932 42.3433,47.1266 42.5,48.5C 41.7321,47.7375 41.2321,46.7375 41,45.5C 40.6667,46.8333 40.3333,48.1667 40,49.5C 39.6174,48.944 39.1174,48.6107 38.5,48.5C 37.3995,47.3951 36.7329,46.0618 36.5,44.5C 38.6869,43.242 41.0202,42.242 43.5,41.5 Z"/></g>
<g><path style="opacity:1" fill="#d5893a" d="M 48.5,32.5 C 48.5,32.8333 48.5,33.1667 48.5,33.5C 47.6766,36.4606 47.01,39.4606 46.5,42.5C 46.477,44.9267 45.977,47.26 45,49.5C 44.5172,48.552 44.3505,47.552 44.5,46.5C 44.5,45.5 44.5,44.5 44.5,43.5C 44.6667,39.3266 46,35.6599 48.5,32.5 Z"/></g>
<g><path style="opacity:1" fill="#272625" d="M 70.5,44.5 C 72.3115,46.9834 74.1448,46.9834 76,44.5C 76.4643,45.0944 76.631,45.7611 76.5,46.5C 75.7784,46.9175 75.2784,47.5842 75,48.5C 74.6174,47.944 74.1174,47.6107 73.5,47.5C 72.1779,47.67 71.0113,47.3366 70,46.5C 69.1558,48.4628 69.6558,49.7961 71.5,50.5C 71.5,51.5 71.5,52.5 71.5,53.5C 70.8333,52.8333 70.1667,52.1667 69.5,51.5C 67.5565,50.9217 67.2232,49.9217 68.5,48.5C 68,47.5 67.5,46.5 67,45.5C 66.7679,46.7375 66.2679,47.7375 65.5,48.5C 64.0357,49.4054 62.7024,49.4054 61.5,48.5C 61.5,47.8333 61.5,47.1667 61.5,46.5C 62.3382,46.1583 62.6716,45.4916 62.5,44.5C 63.2216,44.9175 63.7216,45.5842 64,46.5C 64.2321,45.2625 64.7321,44.2625 65.5,43.5C 66.4959,43.4142 67.3292,43.7476 68,44.5C 69.3919,42.1582 70.2252,42.1582 70.5,44.5 Z"/></g>
<g><path style="opacity:1" fill="#2a2927" d="M 77.5,37.5 C 78.404,38.209 78.7373,39.209 78.5,40.5C 77.6829,42.9686 77.1829,45.6353 77,48.5C 76.5357,47.9056 76.369,47.2389 76.5,46.5C 76.631,45.7611 76.4643,45.0944 76,44.5C 74.1448,46.9834 72.3115,46.9834 70.5,44.5C 72.9935,44.8693 73.6602,44.2027 72.5,42.5C 73.9406,42.3631 75.2739,41.3631 76.5,39.5C 77.3382,39.1583 77.6716,38.4916 77.5,37.5 Z"/></g>
<g><path style="opacity:1" fill="#1e1e1f" d="M 88.5,35.5 C 89.3186,37.7722 89.9853,40.1055 90.5,42.5C 90.7059,46.8982 90.3726,51.2315 89.5,55.5C 88.596,54.791 88.2627,53.791 88.5,52.5C 88.815,48.6286 88.4816,44.9619 87.5,41.5C 87.7373,40.209 87.404,39.209 86.5,38.5C 86.5,37.8333 86.5,37.1667 86.5,36.5C 87.1667,36.1667 87.8333,35.8333 88.5,35.5 Z"/></g>
<g><path style="opacity:1" fill="#f1e187" d="M 3.5,28.5 C 3.83333,30.5 4.16667,32.5 4.5,34.5C 3.73209,35.2625 3.23209,36.2625 3,37.5C 2.50115,41.4862 2.33449,45.4862 2.5,49.5C 1.83333,47.8333 1.16667,46.1667 0.5,44.5C 0.5,42.1667 0.5,39.8333 0.5,37.5C 0.527505,34.0836 1.52751,31.0836 3.5,28.5 Z"/></g>
<g><path style="opacity:1" fill="#cf9d50" d="M 16.5,35.5 C 17.1086,39.6047 17.7752,43.6047 18.5,47.5C 17.6586,49.3792 17.3253,51.3792 17.5,53.5C 16.8826,53.3893 16.3826,53.056 16,52.5C 15.6601,47.594 15.4935,42.9273 15.5,38.5C 14.1148,37.0527 14.4482,36.0527 16.5,35.5 Z"/></g>
<g><path style="opacity:1" fill="#af7930" d="M 91.5,28.5 C 93.4725,31.0836 94.4725,34.0836 94.5,37.5C 94.5,40.1667 94.5,42.8333 94.5,45.5C 93.4625,44.0697 92.7959,42.403 92.5,40.5C 93.1471,39.7261 93.4805,38.7261 93.5,37.5C 92.5302,34.5627 91.8635,31.5627 91.5,28.5 Z"/></g>
<g><path style="opacity:0.896" fill="#cbaa6b" d="M -0.5,37.5 C -0.166667,37.5 0.166667,37.5 0.5,37.5C 0.5,39.8333 0.5,42.1667 0.5,44.5C 0.447012,50.1956 0.780345,55.8623 1.5,61.5C 0.833333,60.1667 0.166667,58.8333 -0.5,57.5C -0.5,50.8333 -0.5,44.1667 -0.5,37.5 Z"/></g>
<g><path style="opacity:1" fill="#232220" d="M 25.5,33.5 C 26.2223,34.5511 27.2223,35.2178 28.5,35.5C 28.0825,36.2216 27.4158,36.7216 26.5,37C 28.935,37.0748 29.6016,37.9081 28.5,39.5C 28.5,40.5 28.5,41.5 28.5,42.5C 28.3713,44.2161 28.038,45.8828 27.5,47.5C 26.448,47.3505 25.448,47.5172 24.5,48C 24.7914,49.9579 23.7914,51.4579 21.5,52.5C 21.5,51.5 21.5,50.5 21.5,49.5C 22.793,48.158 23.6264,46.4913 24,44.5C 24.9138,45.6537 25.7471,45.487 26.5,44C 25.0289,42.4167 24.0289,40.5834 23.5,38.5C 24.3382,38.1583 24.6716,37.4916 24.5,36.5C 25.404,35.791 25.7373,34.791 25.5,33.5 Z"/></g>
<g><path style="opacity:1" fill="#2a2927" d="M 32.5,36.5 C 32.8333,36.5 33.1667,36.5 33.5,36.5C 33.8333,36.5 34.1667,36.5 34.5,36.5C 33.6373,38.4214 32.9707,40.4214 32.5,42.5C 33.4307,45.4198 35.0973,47.7532 37.5,49.5C 37.1667,50.1667 36.8333,50.8333 36.5,51.5C 36.3505,53.1433 36.0171,54.81 35.5,56.5C 35.1433,54.4109 34.4767,52.4109 33.5,50.5C 32.8182,51.2427 32.1515,51.9094 31.5,52.5C 31.1583,51.6618 30.4916,51.3284 29.5,51.5C 30.4293,50.6851 31.4293,49.8518 32.5,49C 31.5509,48.3828 30.7175,48.5494 30,49.5C 29.5831,48.244 28.7498,47.5774 27.5,47.5C 28.038,45.8828 28.3713,44.2161 28.5,42.5C 29.1814,44.1585 30.0147,45.8251 31,47.5C 31.2824,44.829 31.449,42.1623 31.5,39.5C 31.5569,38.391 31.8902,37.391 32.5,36.5 Z"/></g>
<g><path style="opacity:1" fill="#fad94b" d="M 52.5,36.5 C 52.1667,37.8333 51.8333,39.1667 51.5,40.5C 50.5386,42.2646 50.2053,44.2646 50.5,46.5C 49.7659,47.7079 49.4326,49.0413 49.5,50.5C 48.5655,49.4324 48.2322,48.099 48.5,46.5C 48.9926,44.1944 49.3259,41.861 49.5,39.5C 50.5585,38.3998 51.3918,37.0664 52,35.5C 52.3988,35.7284 52.5654,36.0618 52.5,36.5 Z"/></g>
<g><path style="opacity:1" fill="#ebcd4a" d="M 86.5,38.5 C 87.404,39.209 87.7373,40.209 87.5,41.5C 87.5328,45.8689 87.1995,50.2022 86.5,54.5C 85.5987,55.2905 84.9321,56.2905 84.5,57.5C 83.6618,57.8417 83.3284,58.5084 83.5,59.5C 82.1667,60.1667 81.1667,61.1667 80.5,62.5C 80.1667,62.5 79.8333,62.5 79.5,62.5C 79.5,62.1667 79.5,61.8333 79.5,61.5C 79.5,61.1667 79.5,60.8333 79.5,60.5C 83.5803,57.6213 85.5803,53.6213 85.5,48.5C 85.5,45.5 85.5,42.5 85.5,39.5C 85.5,38.8333 85.8333,38.5 86.5,38.5 Z"/></g>
<g><path style="opacity:1" fill="#a3671f" d="M 88.5,29.5 C 90.6013,32.7966 91.9347,36.4632 92.5,40.5C 92.7959,42.403 93.4625,44.0697 94.5,45.5C 94.5,47.5 94.5,49.5 94.5,51.5C 93.6981,50.0484 93.1981,48.3817 93,46.5C 92.79,48.0581 92.29,49.3915 91.5,50.5C 91.5,47.8333 91.5,45.1667 91.5,42.5C 90.7066,38.1195 89.7066,33.7862 88.5,29.5 Z"/></g>
<g><path style="opacity:1" fill="#1f1d1d" d="M 5.5,42.5 C 5.83333,42.5 6.16667,42.5 6.5,42.5C 6.5,44.1667 6.5,45.8333 6.5,47.5C 6.5,48.8333 6.5,50.1667 6.5,51.5C 6.73731,52.791 6.40397,53.791 5.5,54.5C 5.5,53.8333 5.16667,53.5 4.5,53.5C 4.5,53.1667 4.5,52.8333 4.5,52.5C 4.25293,49.0613 4.58627,45.728 5.5,42.5 Z"/></g>
<g><path style="opacity:1" fill="#352c25" d="M 51.5,40.5 C 51.3284,41.4916 51.6618,42.1583 52.5,42.5C 52.0535,45.0101 52.7202,47.0101 54.5,48.5C 55.8333,48.8333 55.8333,49.1667 54.5,49.5C 54.1667,49.5 53.8333,49.5 53.5,49.5C 52.8333,49.5 52.1667,49.5 51.5,49.5C 51.7373,48.209 51.404,47.209 50.5,46.5C 50.2053,44.2646 50.5386,42.2646 51.5,40.5 Z"/></g>
<g><path style="opacity:1" fill="#252423" d="M 69.5,51.5 C 70.4127,54.078 71.746,56.4113 73.5,58.5C 71.9505,57.5592 70.2838,56.8925 68.5,56.5C 68.0679,55.2905 67.4013,54.2905 66.5,53.5C 67.2231,51.8361 66.8897,50.1694 65.5,48.5C 66.2679,47.7375 66.7679,46.7375 67,45.5C 67.5,46.5 68,47.5 68.5,48.5C 67.2232,49.9217 67.5565,50.9217 69.5,51.5 Z"/></g>
<g><path style="opacity:1" fill="#232527" d="M 78.5,40.5 C 78.5,40.8333 78.5,41.1667 78.5,41.5C 78.665,44.8499 78.4983,48.1832 78,51.5C 77.7679,52.7375 77.2679,53.7375 76.5,54.5C 75.8501,54.8039 75.1835,55.1373 74.5,55.5C 73.7348,54.3881 72.7348,53.7214 71.5,53.5C 71.5,52.5 71.5,51.5 71.5,50.5C 72.3413,49.9907 72.8413,50.6573 73,52.5C 74.6279,51.0383 74.7946,49.3717 73.5,47.5C 74.1174,47.6107 74.6174,47.944 75,48.5C 75.2784,47.5842 75.7784,46.9175 76.5,46.5C 76.369,47.2389 76.5357,47.9056 77,48.5C 77.1829,45.6353 77.6829,42.9686 78.5,40.5 Z"/></g>
<g><path style="opacity:1" fill="#272624" d="M 58.5,46.5 C 58.8333,46.5 59.1667,46.5 59.5,46.5C 59.2503,48.674 58.2503,50.3406 56.5,51.5C 55.1667,51.5 54.5,50.8333 54.5,49.5C 55.8333,49.1667 55.8333,48.8333 54.5,48.5C 54.8417,47.6618 55.5084,47.3284 56.5,47.5C 57.1667,47.1667 57.8333,46.8333 58.5,46.5 Z"/></g>
<g><path style="opacity:1" fill="#1e1d1b" d="M 42.5,48.5 C 41.962,50.1172 41.6287,51.7839 41.5,53.5C 38.2819,53.6509 37.9485,54.4842 40.5,56C 39.9558,56.7172 39.2891,57.2172 38.5,57.5C 37.8333,55.5 37.1667,53.5 36.5,51.5C 36.8333,50.8333 37.1667,50.1667 37.5,49.5C 38.1667,49.5 38.5,49.1667 38.5,48.5C 39.1174,48.6107 39.6174,48.944 40,49.5C 40.3333,48.1667 40.6667,46.8333 41,45.5C 41.2321,46.7375 41.7321,47.7375 42.5,48.5 Z"/></g>
<g><path style="opacity:1" fill="#2b2a28" d="M 61.5,48.5 C 62.7024,49.4054 64.0357,49.4054 65.5,48.5C 66.8897,50.1694 67.2231,51.8361 66.5,53.5C 65.4479,55.256 63.7812,55.9227 61.5,55.5C 60.8333,55.5 60.5,55.1667 60.5,54.5C 67.058,52.795 67.058,51.295 60.5,50C 61.056,49.6174 61.3893,49.1174 61.5,48.5 Z"/></g>
<g><path style="opacity:1" fill="#e8d9a7" d="M 4.5,34.5 C 3.72546,39.7968 3.39212,45.1301 3.5,50.5C 3.16667,50.5 2.83333,50.5 2.5,50.5C 2.5,50.1667 2.5,49.8333 2.5,49.5C 2.33449,45.4862 2.50115,41.4862 3,37.5C 3.23209,36.2625 3.73209,35.2625 4.5,34.5 Z"/></g>
<g><path style="opacity:1" fill="#211f1e" d="M 10.5,45.5 C 10.5,48.1667 10.5,50.8333 10.5,53.5C 9.16667,52.8333 7.83333,52.1667 6.5,51.5C 6.5,50.1667 6.5,48.8333 6.5,47.5C 7.83333,46.8333 9.16667,46.1667 10.5,45.5 Z"/></g>
<g><path style="opacity:1" fill="#5d3e19" d="M 15.5,38.5 C 15.4935,42.9273 15.6601,47.594 16,52.5C 16.3826,53.056 16.8826,53.3893 17.5,53.5C 17.5,53.8333 17.5,54.1667 17.5,54.5C 16.5,54.5 15.5,54.5 14.5,54.5C 14.7845,56.4147 14.4511,58.0813 13.5,59.5C 13.5,54.8333 13.5,50.1667 13.5,45.5C 14.2679,43.2854 14.9346,40.9521 15.5,38.5 Z"/></g>
<g><path style="opacity:1" fill="#252523" d="M 27.5,47.5 C 28.7498,47.5774 29.5831,48.244 30,49.5C 30.7175,48.5494 31.5509,48.3828 32.5,49C 31.4293,49.8518 30.4293,50.6851 29.5,51.5C 28.4324,52.4345 27.099,52.7678 25.5,52.5C 25.1667,52.5 24.8333,52.5 24.5,52.5C 25.2485,50.6675 26.2485,49.0009 27.5,47.5 Z"/></g>
<g><path style="opacity:1" fill="#2e2d2c" d="M 73.5,47.5 C 74.7946,49.3717 74.6279,51.0383 73,52.5C 72.8413,50.6573 72.3413,49.9907 71.5,50.5C 69.6558,49.7961 69.1558,48.4628 70,46.5C 71.0113,47.3366 72.1779,47.67 73.5,47.5 Z"/></g>
<g><path style="opacity:1" fill="#b4622b" d="M 78.5,41.5 C 79.1667,43.5 79.8333,45.5 80.5,47.5C 80.5,48.1667 80.5,48.8333 80.5,49.5C 79.5418,51.3024 78.8751,53.3024 78.5,55.5C 77.8333,55.8333 77.1667,56.1667 76.5,56.5C 76.5,55.8333 76.5,55.1667 76.5,54.5C 77.2679,53.7375 77.7679,52.7375 78,51.5C 78.4983,48.1832 78.665,44.8499 78.5,41.5 Z"/></g>
<g><path style="opacity:1" fill="#281a24" d="M 87.5,41.5 C 88.4816,44.9619 88.815,48.6286 88.5,52.5C 87.8333,53.1667 87.1667,53.8333 86.5,54.5C 87.1995,50.2022 87.5328,45.8689 87.5,41.5 Z"/></g>
<g><path style="opacity:1" fill="#21211f" d="M 61.5,46.5 C 61.5,47.1667 61.5,47.8333 61.5,48.5C 61.3893,49.1174 61.056,49.6174 60.5,50C 67.058,51.295 67.058,52.795 60.5,54.5C 60.4142,53.5041 60.7476,52.6708 61.5,52C 59.5048,51.3872 57.8381,51.8872 56.5,53.5C 56.5,52.8333 56.5,52.1667 56.5,51.5C 58.2503,50.3406 59.2503,48.674 59.5,46.5C 60.1667,45.1667 60.8333,45.1667 61.5,46.5 Z"/></g>
<g><path style="opacity:1" fill="#874509" d="M 94.5,51.5 C 94.1667,54.8333 93.8333,58.1667 93.5,61.5C 92.8826,61.6107 92.3826,61.944 92,62.5C 91.7679,61.2625 91.2679,60.2625 90.5,59.5C 91.1587,56.5448 91.4921,53.5448 91.5,50.5C 92.29,49.3915 92.79,48.0581 93,46.5C 93.1981,48.3817 93.6981,50.0484 94.5,51.5 Z"/></g>
<g><path style="opacity:1" fill="#2b2a29" d="M 27.5,47.5 C 26.2485,49.0009 25.2485,50.6675 24.5,52.5C 22.9567,54.5567 21.9567,54.5567 21.5,52.5C 23.7914,51.4579 24.7914,49.9579 24.5,48C 25.448,47.5172 26.448,47.3505 27.5,47.5 Z"/></g>
<g><path style="opacity:1" fill="#ac6c2d" d="M 46.5,42.5 C 47.4345,43.5676 47.7678,44.901 47.5,46.5C 48.7633,51.4028 47.0966,54.4028 42.5,55.5C 43.299,52.5701 43.6323,49.5701 43.5,46.5C 43.8333,46.5 44.1667,46.5 44.5,46.5C 44.3505,47.552 44.5172,48.552 45,49.5C 45.977,47.26 46.477,44.9267 46.5,42.5 Z"/></g>
<g><path style="opacity:1" fill="#18161e" d="M 53.5,49.5 C 53.8333,49.5 54.1667,49.5 54.5,49.5C 54.5,50.8333 55.1667,51.5 56.5,51.5C 56.5,52.1667 56.5,52.8333 56.5,53.5C 56.2729,55.9328 57.2729,57.5994 59.5,58.5C 59.9175,59.2216 60.5842,59.7216 61.5,60C 64.146,60.4974 66.8127,60.6641 69.5,60.5C 70.391,59.8902 71.391,59.5569 72.5,59.5C 72.1667,60.1667 71.8333,60.8333 71.5,61.5C 71.1667,61.5 70.8333,61.5 70.5,61.5C 62.5218,63.3414 56.8551,60.6747 53.5,53.5C 53.5,52.1667 53.5,50.8333 53.5,49.5 Z"/></g>
<g><path style="opacity:1" fill="#292827" d="M 60.5,54.5 C 60.5,55.1667 60.8333,55.5 61.5,55.5C 60.4489,56.2223 59.7822,57.2223 59.5,58.5C 57.2729,57.5994 56.2729,55.9328 56.5,53.5C 57.8381,51.8872 59.5048,51.3872 61.5,52C 60.7476,52.6708 60.4142,53.5041 60.5,54.5 Z"/></g>
<g><path style="opacity:1" fill="#84602d" d="M 83.5,42.5 C 83.8333,44.5 84.1667,46.5 84.5,48.5C 84.313,50.5643 83.813,52.5643 83,54.5C 81.4212,53.2004 80.2545,53.5337 79.5,55.5C 79.1667,55.5 78.8333,55.5 78.5,55.5C 78.8751,53.3024 79.5418,51.3024 80.5,49.5C 80.81,50.7383 81.31,50.7383 82,49.5C 82.1862,46.9644 82.6862,44.631 83.5,42.5 Z"/></g>
<g><path style="opacity:1" fill="#242321" d="M 6.5,51.5 C 7.83333,52.1667 9.16667,52.8333 10.5,53.5C 10.5,54.5 10.5,55.5 10.5,56.5C 8.90097,56.2322 7.56764,56.5655 6.5,57.5C 5.59603,56.791 5.26269,55.791 5.5,54.5C 6.40397,53.791 6.73731,52.791 6.5,51.5 Z"/></g>
<g><path style="opacity:1" fill="#202121" d="M 21.5,47.5 C 21.5,48.1667 21.5,48.8333 21.5,49.5C 21.5,50.5 21.5,51.5 21.5,52.5C 21.9567,54.5567 22.9567,54.5567 24.5,52.5C 24.8333,52.5 25.1667,52.5 25.5,52.5C 25.8333,53.8333 26.1667,55.1667 26.5,56.5C 25.1667,56.8333 23.8333,57.1667 22.5,57.5C 21.1667,57.5 20.5,58.1667 20.5,59.5C 19.5,59.1667 18.8333,58.5 18.5,57.5C 19.1667,57.5 19.5,57.1667 19.5,56.5C 20.1667,53.5 20.8333,50.5 21.5,47.5 Z"/></g>
<g><path style="opacity:1" fill="#2a2424" d="M 69.5,51.5 C 70.1667,52.1667 70.8333,52.8333 71.5,53.5C 72.7348,53.7214 73.7348,54.3881 74.5,55.5C 75.1835,55.1373 75.8501,54.8039 76.5,54.5C 76.5,55.1667 76.5,55.8333 76.5,56.5C 75.7281,57.6935 74.7281,58.6935 73.5,59.5C 73.5,59.1667 73.5,58.8333 73.5,58.5C 71.746,56.4113 70.4127,54.078 69.5,51.5 Z"/></g>
<g><path style="opacity:0.58" fill="#7c4621" d="M 94.5,37.5 C 94.8333,37.5 95.1667,37.5 95.5,37.5C 95.5,44.1667 95.5,50.8333 95.5,57.5C 94.8333,58.8333 94.1667,60.1667 93.5,61.5C 93.8333,58.1667 94.1667,54.8333 94.5,51.5C 94.5,49.5 94.5,47.5 94.5,45.5C 94.5,42.8333 94.5,40.1667 94.5,37.5 Z"/></g>
<g><path style="opacity:1" fill="#1c171b" d="M 43.5,46.5 C 43.6323,49.5701 43.299,52.5701 42.5,55.5C 41.6618,55.8417 41.3284,56.5084 41.5,57.5C 40.5,58.1667 39.5,58.8333 38.5,59.5C 38.1667,59.5 37.8333,59.5 37.5,59.5C 37.8333,58.8333 38.1667,58.1667 38.5,57.5C 39.2891,57.2172 39.9558,56.7172 40.5,56C 37.9485,54.4842 38.2819,53.6509 41.5,53.5C 41.6287,51.7839 41.962,50.1172 42.5,48.5C 42.3433,47.1266 42.51,45.7932 43,44.5C 43.4643,45.0944 43.631,45.7611 43.5,46.5 Z"/></g>
<g><path style="opacity:1" fill="#272524" d="M 35.5,56.5 C 34.5768,55.6971 33.5768,55.5304 32.5,56C 34.1957,57.1764 35.8624,58.343 37.5,59.5C 37.8333,59.5 38.1667,59.5 38.5,59.5C 38.0269,60.9063 37.0269,61.573 35.5,61.5C 32.6061,60.7439 30.6061,59.0772 29.5,56.5C 26.9548,55.5492 26.9548,54.5492 29.5,53.5C 31.8857,54.9884 32.5524,54.6551 31.5,52.5C 32.1515,51.9094 32.8182,51.2427 33.5,50.5C 34.4767,52.4109 35.1433,54.4109 35.5,56.5 Z"/></g>
<g><path style="opacity:1" fill="#1c1019" d="M 50.5,46.5 C 51.404,47.209 51.7373,48.209 51.5,49.5C 51.233,51.9653 50.5664,54.2986 49.5,56.5C 49.1667,57.1667 48.8333,57.8333 48.5,58.5C 47.8333,58.5 47.5,58.1667 47.5,57.5C 48.1667,55.1667 48.8333,52.8333 49.5,50.5C 49.4326,49.0413 49.7659,47.7079 50.5,46.5 Z"/></g>
<g><path style="opacity:1" fill="#ce8736" d="M 51.5,49.5 C 52.1667,49.5 52.8333,49.5 53.5,49.5C 53.5,50.8333 53.5,52.1667 53.5,53.5C 52.71,54.6085 52.21,55.9419 52,57.5C 51.3292,56.7476 50.4959,56.4142 49.5,56.5C 50.5664,54.2986 51.233,51.9653 51.5,49.5 Z"/></g>
<g><path style="opacity:1" fill="#b96729" d="M 84.5,48.5 C 84.8333,48.5 85.1667,48.5 85.5,48.5C 85.5803,53.6213 83.5803,57.6213 79.5,60.5C 78.7611,60.631 78.0944,60.4643 77.5,60C 78.6872,58.9805 79.6872,57.8139 80.5,56.5C 80.3764,55.8933 80.0431,55.56 79.5,55.5C 80.2545,53.5337 81.4212,53.2004 83,54.5C 83.813,52.5643 84.313,50.5643 84.5,48.5 Z"/></g>
<g><path style="opacity:1" fill="#1f1e1d" d="M 29.5,51.5 C 30.4916,51.3284 31.1583,51.6618 31.5,52.5C 32.5524,54.6551 31.8857,54.9884 29.5,53.5C 26.9548,54.5492 26.9548,55.5492 29.5,56.5C 28.5,56.5 27.5,56.5 26.5,56.5C 26.1667,55.1667 25.8333,53.8333 25.5,52.5C 27.099,52.7678 28.4324,52.4345 29.5,51.5 Z"/></g>
<g><path style="opacity:1" fill="#ed9831" d="M 47.5,46.5 C 47.8333,46.5 48.1667,46.5 48.5,46.5C 48.2322,48.099 48.5655,49.4324 49.5,50.5C 48.8333,52.8333 48.1667,55.1667 47.5,57.5C 47.1667,57.5 46.8333,57.5 46.5,57.5C 46.5654,57.0618 46.3988,56.7284 46,56.5C 44.907,58.3492 43.5737,60.0158 42,61.5C 41.6012,61.2716 41.4346,60.9382 41.5,60.5C 42.1408,59.5178 42.8075,58.5178 43.5,57.5C 43.0302,56.537 42.3635,56.537 41.5,57.5C 41.3284,56.5084 41.6618,55.8417 42.5,55.5C 47.0966,54.4028 48.7633,51.4028 47.5,46.5 Z"/></g>
<g><path style="opacity:1" fill="#d4ac59" d="M 0.5,44.5 C 1.16667,46.1667 1.83333,47.8333 2.5,49.5C 2.5,49.8333 2.5,50.1667 2.5,50.5C 2.23653,56.0256 3.56986,61.0256 6.5,65.5C 5.79105,66.404 4.79105,66.7373 3.5,66.5C 2.06873,65.2196 1.40206,63.5529 1.5,61.5C 0.780345,55.8623 0.447012,50.1956 0.5,44.5 Z"/></g>
<g><path style="opacity:1" fill="#2a2a27" d="M 36.5,51.5 C 37.1667,53.5 37.8333,55.5 38.5,57.5C 38.1667,58.1667 37.8333,58.8333 37.5,59.5C 35.8624,58.343 34.1957,57.1764 32.5,56C 33.5768,55.5304 34.5768,55.6971 35.5,56.5C 36.0171,54.81 36.3505,53.1433 36.5,51.5 Z"/></g>
<g><path style="opacity:1" fill="#dc9f41" d="M 53.5,53.5 C 56.8551,60.6747 62.5218,63.3414 70.5,61.5C 70.1583,62.3382 69.4916,62.6716 68.5,62.5C 63.9691,62.8501 59.6358,62.1834 55.5,60.5C 53.9557,60.2969 52.6223,59.6302 51.5,58.5C 50.7025,58.9569 50.3691,59.6236 50.5,60.5C 49.5,60.1667 48.8333,59.5 48.5,58.5C 48.8333,57.8333 49.1667,57.1667 49.5,56.5C 50.4959,56.4142 51.3292,56.7476 52,57.5C 52.21,55.9419 52.71,54.6085 53.5,53.5 Z"/></g>
<g><path style="opacity:1" fill="#201f1e" d="M 66.5,53.5 C 67.4013,54.2905 68.0679,55.2905 68.5,56.5C 67.2825,57.1614 65.9492,57.8281 64.5,58.5C 66.2914,59.1698 67.9581,59.8365 69.5,60.5C 66.8127,60.6641 64.146,60.4974 61.5,60C 60.5842,59.7216 59.9175,59.2216 59.5,58.5C 59.7822,57.2223 60.4489,56.2223 61.5,55.5C 63.7812,55.9227 65.4479,55.256 66.5,53.5 Z"/></g>
<g><path style="opacity:1" fill="#1b1b1b" d="M 68.5,56.5 C 70.2838,56.8925 71.9505,57.5592 73.5,58.5C 73.5,58.8333 73.5,59.1667 73.5,59.5C 73.1667,59.5 72.8333,59.5 72.5,59.5C 71.391,59.5569 70.391,59.8902 69.5,60.5C 67.9581,59.8365 66.2914,59.1698 64.5,58.5C 65.9492,57.8281 67.2825,57.1614 68.5,56.5 Z"/></g>
<g><path style="opacity:1" fill="#1e1c1f" d="M 88.5,52.5 C 88.2627,53.791 88.596,54.791 89.5,55.5C 89.5,56.5 89.5,57.5 89.5,58.5C 88.3263,59.5137 87.6596,60.847 87.5,62.5C 87.1667,62.5 86.8333,62.5 86.5,62.5C 87.167,60.1806 87.3336,57.8473 87,55.5C 86.5814,56.6721 85.9147,57.6721 85,58.5C 84.6012,58.2716 84.4346,57.9382 84.5,57.5C 84.9321,56.2905 85.5987,55.2905 86.5,54.5C 87.1667,53.8333 87.8333,53.1667 88.5,52.5 Z"/></g>
<g><path style="opacity:1" fill="#efe5af" d="M 90.5,42.5 C 90.8333,42.5 91.1667,42.5 91.5,42.5C 91.5,45.1667 91.5,47.8333 91.5,50.5C 91.4921,53.5448 91.1587,56.5448 90.5,59.5C 90.6716,60.4916 90.3382,61.1583 89.5,61.5C 89.5,60.5 89.5,59.5 89.5,58.5C 89.5,57.5 89.5,56.5 89.5,55.5C 90.3726,51.2315 90.7059,46.8982 90.5,42.5 Z"/></g>
<g><path style="opacity:1" fill="#dec083" d="M 2.5,50.5 C 2.83333,50.5 3.16667,50.5 3.5,50.5C 3.32842,51.4916 3.66175,52.1583 4.5,52.5C 4.5,52.8333 4.5,53.1667 4.5,53.5C 4.29379,56.4951 4.96046,59.1617 6.5,61.5C 6.5,62.8333 6.5,64.1667 6.5,65.5C 3.56986,61.0256 2.23653,56.0256 2.5,50.5 Z"/></g>
<g><path style="opacity:1" fill="#77380d" d="M 4.5,53.5 C 5.16667,53.5 5.5,53.8333 5.5,54.5C 5.26269,55.791 5.59603,56.791 6.5,57.5C 6.5,58.8333 6.5,60.1667 6.5,61.5C 4.96046,59.1617 4.29379,56.4951 4.5,53.5 Z"/></g>
<g><path style="opacity:1" fill="#222222" d="M 10.5,56.5 C 10.7471,59.9387 10.4137,63.272 9.5,66.5C 8.68729,64.7392 7.68729,63.0725 6.5,61.5C 6.5,60.1667 6.5,58.8333 6.5,57.5C 7.56764,56.5655 8.90097,56.2322 10.5,56.5 Z"/></g>
<g><path style="opacity:1" fill="#20171a" d="M 46.5,57.5 C 46.8333,57.5 47.1667,57.5 47.5,57.5C 47.5,58.1667 47.8333,58.5 48.5,58.5C 48.8333,59.5 49.5,60.1667 50.5,60.5C 51.973,62.3947 53.6397,64.0613 55.5,65.5C 54.8333,65.5 54.1667,65.5 53.5,65.5C 51.2294,63.7341 49.0627,61.7341 47,59.5C 46.6174,60.056 46.1174,60.3893 45.5,60.5C 45.5569,59.391 45.8902,58.391 46.5,57.5 Z"/></g>
<g><path style="opacity:1" fill="#282624" d="M 22.5,57.5 C 23.8333,57.1667 25.1667,56.8333 26.5,56.5C 27.5,56.5 28.5,56.5 29.5,56.5C 30.6061,59.0772 32.6061,60.7439 35.5,61.5C 35.1583,62.3382 34.4916,62.6716 33.5,62.5C 31.3021,61.8347 28.9688,61.1681 26.5,60.5C 27.5063,59.6043 27.5063,58.9377 26.5,58.5C 25.4679,60.0396 24.1346,60.5396 22.5,60C 23.7736,59.0228 23.7736,58.1894 22.5,57.5 Z"/></g>
<g><path style="opacity:1" fill="#e5dec0" d="M 89.5,58.5 C 89.5,59.5 89.5,60.5 89.5,61.5C 89.1667,62.8333 88.8333,64.1667 88.5,65.5C 86.6096,68.2718 84.943,71.2718 83.5,74.5C 83.1667,74.5 82.8333,74.5 82.5,74.5C 82.1667,74.5 81.8333,74.5 81.5,74.5C 82.8333,71.8333 84.1667,69.1667 85.5,66.5C 86.3446,65.3285 87.0113,63.9952 87.5,62.5C 87.6596,60.847 88.3263,59.5137 89.5,58.5 Z"/></g>
<g><path style="opacity:1" fill="#8d602b" d="M 17.5,54.5 C 17.8333,55.5 18.5,56.1667 19.5,56.5C 19.5,57.1667 19.1667,57.5 18.5,57.5C 17.5416,57.0472 16.7083,56.3805 16,55.5C 15.2174,57.4335 15.7174,58.9335 17.5,60C 16.2089,61.2917 16.2089,62.4583 17.5,63.5C 16.713,65.1042 15.3797,65.7709 13.5,65.5C 13.5,63.5 13.5,61.5 13.5,59.5C 14.4511,58.0813 14.7845,56.4147 14.5,54.5C 15.5,54.5 16.5,54.5 17.5,54.5 Z"/></g>
<g><path style="opacity:1" fill="#c38c40" d="M 18.5,57.5 C 18.8333,58.5 19.5,59.1667 20.5,59.5C 21.0577,60.7899 22.0577,61.6232 23.5,62C 26.8168,62.4983 30.1501,62.665 33.5,62.5C 31.0521,63.4731 28.3854,63.8064 25.5,63.5C 22.6481,62.7417 19.9815,62.7417 17.5,63.5C 16.2089,62.4583 16.2089,61.2917 17.5,60C 15.7174,58.9335 15.2174,57.4335 16,55.5C 16.7083,56.3805 17.5416,57.0472 18.5,57.5 Z"/></g>
<g><path style="opacity:1" fill="#1d1c22" d="M 22.5,57.5 C 23.7736,58.1894 23.7736,59.0228 22.5,60C 24.1346,60.5396 25.4679,60.0396 26.5,58.5C 27.5063,58.9377 27.5063,59.6043 26.5,60.5C 28.9688,61.1681 31.3021,61.8347 33.5,62.5C 30.1501,62.665 26.8168,62.4983 23.5,62C 22.0577,61.6232 21.0577,60.7899 20.5,59.5C 20.5,58.1667 21.1667,57.5 22.5,57.5 Z"/></g>
<g><path style="opacity:1" fill="#fbed45" d="M 41.5,60.5 C 38.5864,62.3568 35.5864,64.0235 32.5,65.5C 30.1667,64.8333 27.8333,64.1667 25.5,63.5C 28.3854,63.8064 31.0521,63.4731 33.5,62.5C 34.4916,62.6716 35.1583,62.3382 35.5,61.5C 37.0269,61.573 38.0269,60.9063 38.5,59.5C 39.5,58.8333 40.5,58.1667 41.5,57.5C 42.3635,56.537 43.0302,56.537 43.5,57.5C 42.8075,58.5178 42.1408,59.5178 41.5,60.5 Z"/></g>
<g><path style="opacity:1" fill="#f4c248" d="M 78.5,55.5 C 78.8333,55.5 79.1667,55.5 79.5,55.5C 80.0431,55.56 80.3764,55.8933 80.5,56.5C 79.6872,57.8139 78.6872,58.9805 77.5,60C 78.0944,60.4643 78.7611,60.631 79.5,60.5C 79.5,60.8333 79.5,61.1667 79.5,61.5C 77.742,61.8769 76.0754,62.5435 74.5,63.5C 73.3044,63.1543 73.3044,62.6543 74.5,62C 73.552,61.5172 72.552,61.3505 71.5,61.5C 71.8333,60.8333 72.1667,60.1667 72.5,59.5C 72.8333,59.5 73.1667,59.5 73.5,59.5C 74.7281,58.6935 75.7281,57.6935 76.5,56.5C 77.1667,56.1667 77.8333,55.8333 78.5,55.5 Z"/></g>
<g><path style="opacity:1" fill="#2c2b29" d="M 86.5,62.5 C 85.609,61.8902 84.609,61.5569 83.5,61.5C 83.5,60.8333 83.5,60.1667 83.5,59.5C 83.3284,58.5084 83.6618,57.8417 84.5,57.5C 84.4346,57.9382 84.6012,58.2716 85,58.5C 85.9147,57.6721 86.5814,56.6721 87,55.5C 87.3336,57.8473 87.167,60.1806 86.5,62.5 Z"/></g>
<g><path style="opacity:1" fill="#292927" d="M 49.5,65.5 C 48.6236,65.3691 47.9569,65.7025 47.5,66.5C 48.5244,67.8518 49.5244,69.1851 50.5,70.5C 50.1436,72.1898 49.1436,73.1898 47.5,73.5C 46.9518,70.9748 45.9518,68.6415 44.5,66.5C 43.3777,67.6302 42.0443,68.2969 40.5,68.5C 40.615,66.0532 41.615,64.0532 43.5,62.5C 46.2274,61.4787 48.2274,62.4787 49.5,65.5 Z"/></g>
<g><path style="opacity:1" fill="#f57e21" d="M 55.5,60.5 C 56.7489,62.1361 58.4156,63.3028 60.5,64C 60,64.1667 59.5,64.3333 59,64.5C 56.0537,63.2754 53.2204,61.9421 50.5,60.5C 50.3691,59.6236 50.7025,58.9569 51.5,58.5C 52.6223,59.6302 53.9557,60.2969 55.5,60.5 Z"/></g>
<g><path style="opacity:1" fill="#04111c" d="M 10.5,26.5 C 10.8333,26.5 11.1667,26.5 11.5,26.5C 11.8293,41.0097 11.4959,55.3431 10.5,69.5C 10.5,68.8333 10.1667,68.5 9.5,68.5C 9.5,67.8333 9.5,67.1667 9.5,66.5C 10.4137,63.272 10.7471,59.9387 10.5,56.5C 10.5,55.5 10.5,54.5 10.5,53.5C 10.5,50.8333 10.5,48.1667 10.5,45.5C 10.5,44.8333 10.5,44.1667 10.5,43.5C 10.5,40.1667 10.5,36.8333 10.5,33.5C 10.5,31.1667 10.5,28.8333 10.5,26.5 Z"/></g>
<g><path style="opacity:1" fill="#fcc12f" d="M 17.5,63.5 C 19.9815,62.7417 22.6481,62.7417 25.5,63.5C 27.8333,64.1667 30.1667,64.8333 32.5,65.5C 32.5,65.8333 32.5,66.1667 32.5,66.5C 28.1667,66.5 23.8333,66.5 19.5,66.5C 20.2625,65.7321 21.2625,65.2321 22.5,65C 20.8455,64.3923 19.1789,63.8923 17.5,63.5 Z"/></g>
<g><path style="opacity:1" fill="#e7bd33" d="M 46.5,57.5 C 45.8902,58.391 45.5569,59.391 45.5,60.5C 44.5,60.8333 43.8333,61.5 43.5,62.5C 41.5168,63.4706 39.5168,64.4706 37.5,65.5C 36.5084,65.3284 35.8417,65.6618 35.5,66.5C 34.5,66.5 33.5,66.5 32.5,66.5C 32.5,66.1667 32.5,65.8333 32.5,65.5C 35.5864,64.0235 38.5864,62.3568 41.5,60.5C 41.4346,60.9382 41.6012,61.2716 42,61.5C 43.5737,60.0158 44.907,58.3492 46,56.5C 46.3988,56.7284 46.5654,57.0618 46.5,57.5 Z"/></g>
<g><path style="opacity:1" fill="#f0ba2b" d="M 50.5,60.5 C 53.2204,61.9421 56.0537,63.2754 59,64.5C 59.5,64.3333 60,64.1667 60.5,64C 58.4156,63.3028 56.7489,62.1361 55.5,60.5C 59.6358,62.1834 63.9691,62.8501 68.5,62.5C 70.2191,63.0221 71.5525,64.0221 72.5,65.5C 72.5,65.8333 72.5,66.1667 72.5,66.5C 66.7876,66.687 61.1209,66.3537 55.5,65.5C 53.6397,64.0613 51.973,62.3947 50.5,60.5 Z"/></g>
<g><path style="opacity:1" fill="#f6de3e" d="M 70.5,61.5 C 70.8333,61.5 71.1667,61.5 71.5,61.5C 72.552,61.3505 73.552,61.5172 74.5,62C 73.3044,62.6543 73.3044,63.1543 74.5,63.5C 76.0754,62.5435 77.742,61.8769 79.5,61.5C 79.5,61.8333 79.5,62.1667 79.5,62.5C 78.8333,62.5 78.5,62.8333 78.5,63.5C 76.5786,64.3627 74.5786,65.0293 72.5,65.5C 71.5525,64.0221 70.2191,63.0221 68.5,62.5C 69.4916,62.6716 70.1583,62.3382 70.5,61.5 Z"/></g>
<g><path style="opacity:1" fill="#201f1e" d="M 53.5,65.5 C 53.5,66.5 53.5,67.5 53.5,68.5C 52.8826,68.6107 52.3826,68.944 52,69.5C 51.3378,68.0161 50.5045,66.6828 49.5,65.5C 48.2274,62.4787 46.2274,61.4787 43.5,62.5C 43.8333,61.5 44.5,60.8333 45.5,60.5C 46.1174,60.3893 46.6174,60.056 47,59.5C 49.0627,61.7341 51.2294,63.7341 53.5,65.5 Z"/></g>
<g><path style="opacity:1" fill="#1f1f22" d="M 83.5,59.5 C 83.5,60.1667 83.5,60.8333 83.5,61.5C 82.7109,61.7828 82.0442,62.2828 81.5,63C 81.3874,64.7468 81.7207,66.5801 82.5,68.5C 81.325,68.719 80.325,68.3857 79.5,67.5C 80.3094,65.9291 80.6427,64.2624 80.5,62.5C 81.1667,61.1667 82.1667,60.1667 83.5,59.5 Z"/></g>
<g><path style="opacity:1" fill="#252422" d="M 83.5,61.5 C 84.609,61.5569 85.609,61.8902 86.5,62.5C 86.8333,62.5 87.1667,62.5 87.5,62.5C 87.0113,63.9952 86.3446,65.3285 85.5,66.5C 85.5654,66.0618 85.3988,65.7284 85,65.5C 84.6232,66.9423 83.7899,67.9423 82.5,68.5C 81.7207,66.5801 81.3874,64.7468 81.5,63C 82.0442,62.2828 82.7109,61.7828 83.5,61.5 Z"/></g>
<g><path style="opacity:1" fill="#272624" d="M 78.5,63.5 C 78.5,62.8333 78.8333,62.5 79.5,62.5C 79.8333,62.5 80.1667,62.5 80.5,62.5C 80.6427,64.2624 80.3094,65.9291 79.5,67.5C 80.325,68.3857 81.325,68.719 82.5,68.5C 82.5386,69.7562 82.0386,70.7562 81,71.5C 79.6651,70.9205 78.4985,70.5872 77.5,70.5C 79.0311,69.0755 78.6977,68.4088 76.5,68.5C 76.5614,66.4078 77.5614,64.9078 79.5,64C 79.2716,63.6012 78.9382,63.4346 78.5,63.5 Z"/></g>
<g><path style="opacity:1" fill="#642402" d="M 90.5,59.5 C 91.2679,60.2625 91.7679,61.2625 92,62.5C 92.3826,61.944 92.8826,61.6107 93.5,61.5C 92.9579,64.9122 91.6246,67.9122 89.5,70.5C 89.5,69.5 89.5,68.5 89.5,67.5C 89.6716,66.5084 89.3382,65.8417 88.5,65.5C 88.8333,64.1667 89.1667,62.8333 89.5,61.5C 90.3382,61.1583 90.6716,60.4916 90.5,59.5 Z"/></g>
<g><path style="opacity:1" fill="#c69751" d="M 6.5,61.5 C 7.68729,63.0725 8.68729,64.7392 9.5,66.5C 9.5,67.1667 9.5,67.8333 9.5,68.5C 8.13291,67.1474 7.13291,67.4807 6.5,69.5C 7.24585,70.7362 7.57918,72.0695 7.5,73.5C 5.41203,71.6644 4.0787,69.3311 3.5,66.5C 4.79105,66.7373 5.79105,66.404 6.5,65.5C 6.5,64.1667 6.5,62.8333 6.5,61.5 Z"/></g>
<g><path style="opacity:1" fill="#ed7725" d="M 12.5,32.5 C 12.8333,32.5 13.1667,32.5 13.5,32.5C 13.5,36.8333 13.5,41.1667 13.5,45.5C 13.5,50.1667 13.5,54.8333 13.5,59.5C 13.5,61.5 13.5,63.5 13.5,65.5C 15.3797,65.7709 16.713,65.1042 17.5,63.5C 19.1789,63.8923 20.8455,64.3923 22.5,65C 21.2625,65.2321 20.2625,65.7321 19.5,66.5C 19.5,66.8333 19.5,67.1667 19.5,67.5C 18.8333,67.5 18.1667,67.5 17.5,67.5C 16.791,66.596 15.791,66.2627 14.5,66.5C 14.6332,69.925 13.9665,70.2583 12.5,67.5C 12.5,55.8333 12.5,44.1667 12.5,32.5 Z"/></g>
<g><path style="opacity:1" fill="#2c211d" d="M 19.5,67.5 C 19.5,67.1667 19.5,66.8333 19.5,66.5C 23.8333,66.5 28.1667,66.5 32.5,66.5C 33.5,66.5 34.5,66.5 35.5,66.5C 36.404,67.209 36.7373,68.209 36.5,69.5C 35.1667,68.8333 33.8333,68.1667 32.5,67.5C 28.1667,67.5 23.8333,67.5 19.5,67.5 Z"/></g>
<g><path style="opacity:1" fill="#272624" d="M 49.5,65.5 C 50.5045,66.6828 51.3378,68.0161 52,69.5C 52.3826,68.944 52.8826,68.6107 53.5,68.5C 53.9382,68.4346 54.2716,68.6012 54.5,69C 53.6195,69.7083 52.9528,70.5416 52.5,71.5C 51.8333,71.1667 51.1667,70.8333 50.5,70.5C 49.5244,69.1851 48.5244,67.8518 47.5,66.5C 47.9569,65.7025 48.6236,65.3691 49.5,65.5 Z"/></g>
<g><path style="opacity:1" fill="#222120" d="M 53.5,65.5 C 54.1667,65.5 54.8333,65.5 55.5,65.5C 55.9175,66.2216 56.5842,66.7216 57.5,67C 56.244,67.4169 55.5774,68.2502 55.5,69.5C 55.0252,71.7221 54.0252,72.3888 52.5,71.5C 52.9528,70.5416 53.6195,69.7083 54.5,69C 54.2716,68.6012 53.9382,68.4346 53.5,68.5C 53.5,67.5 53.5,66.5 53.5,65.5 Z"/></g>
<g><path style="opacity:1" fill="#1c181e" d="M 55.5,65.5 C 61.1209,66.3537 66.7876,66.687 72.5,66.5C 73.5573,67.206 73.2239,67.5393 71.5,67.5C 70.5084,67.3284 69.8417,67.6618 69.5,68.5C 69.1667,68.5 68.8333,68.5 68.5,68.5C 65.7814,68.6025 63.1147,68.2692 60.5,67.5C 58.6998,67.9024 57.0332,68.5691 55.5,69.5C 55.5774,68.2502 56.244,67.4169 57.5,67C 56.5842,66.7216 55.9175,66.2216 55.5,65.5 Z"/></g>
<g><path style="opacity:1" fill="#252122" d="M 78.5,63.5 C 78.9382,63.4346 79.2716,63.6012 79.5,64C 77.5614,64.9078 76.5614,66.4078 76.5,68.5C 74.5453,69.9302 72.8786,69.5969 71.5,67.5C 73.2239,67.5393 73.5573,67.206 72.5,66.5C 72.5,66.1667 72.5,65.8333 72.5,65.5C 74.5786,65.0293 76.5786,64.3627 78.5,63.5 Z"/></g>
<g><path style="opacity:1" fill="#22211f" d="M 47.5,73.5 C 46.8333,73.5 46.1667,73.5 45.5,73.5C 44.791,72.596 43.791,72.2627 42.5,72.5C 42.5,71.1667 41.8333,70.5 40.5,70.5C 40.5,69.8333 40.5,69.1667 40.5,68.5C 42.0443,68.2969 43.3777,67.6302 44.5,66.5C 45.9518,68.6415 46.9518,70.9748 47.5,73.5 Z"/></g>
<g><path style="opacity:1" fill="#242321" d="M 68.5,68.5 C 68.7148,70.1788 68.0481,71.1788 66.5,71.5C 65.3588,70.661 64.0255,69.9943 62.5,69.5C 60.4789,72.1878 58.1456,74.5211 55.5,76.5C 55.5,77.1667 55.1667,77.5 54.5,77.5C 54.631,76.7611 54.4643,76.0944 54,75.5C 53.7216,76.4158 53.2216,77.0825 52.5,77.5C 52.5,76.1667 51.8333,75.5 50.5,75.5C 49.5,74.8333 48.5,74.1667 47.5,73.5C 49.1436,73.1898 50.1436,72.1898 50.5,70.5C 51.1667,70.8333 51.8333,71.1667 52.5,71.5C 54.0252,72.3888 55.0252,71.7221 55.5,69.5C 57.0332,68.5691 58.6998,67.9024 60.5,67.5C 63.1147,68.2692 65.7814,68.6025 68.5,68.5 Z"/></g>
<g><path style="opacity:1" fill="#232221" d="M 71.5,67.5 C 72.8786,69.5969 74.5453,69.9302 76.5,68.5C 78.6977,68.4088 79.0311,69.0755 77.5,70.5C 76.7611,70.369 76.0944,70.5357 75.5,71C 76.6956,71.6543 76.6956,72.1543 75.5,72.5C 74.8165,72.1373 74.1499,71.8039 73.5,71.5C 71.7809,70.9779 70.4475,69.9779 69.5,68.5C 69.8417,67.6618 70.5084,67.3284 71.5,67.5 Z"/></g>
<g><path style="opacity:1" fill="#242322" d="M 23.5,68.5 C 26.5,68.5 29.5,68.5 32.5,68.5C 32.5,69.8333 32.5,71.1667 32.5,72.5C 30.8333,73.1667 29.1667,73.8333 27.5,74.5C 27.8039,73.8501 28.1373,73.1835 28.5,72.5C 26.5808,71.3875 24.9142,70.0542 23.5,68.5 Z"/></g>
<g><path style="opacity:1" fill="#1e1b1d" d="M 43.5,62.5 C 41.615,64.0532 40.615,66.0532 40.5,68.5C 40.5,69.1667 40.5,69.8333 40.5,70.5C 38.5923,69.5144 37.5923,67.8477 37.5,65.5C 39.5168,64.4706 41.5168,63.4706 43.5,62.5 Z"/></g>
<g><path style="opacity:1" fill="#1a1a1f" d="M 17.5,67.5 C 18.1667,67.5 18.8333,67.5 19.5,67.5C 23.8333,67.5 28.1667,67.5 32.5,67.5C 32.5,67.8333 32.5,68.1667 32.5,68.5C 29.5,68.5 26.5,68.5 23.5,68.5C 22.5084,68.3284 21.8417,68.6618 21.5,69.5C 21.6716,70.4916 21.3382,71.1583 20.5,71.5C 19.7784,71.9175 19.2784,72.5842 19,73.5C 18.6667,72.8333 18.3333,72.1667 18,71.5C 16.5295,72.2666 15.0295,72.9332 13.5,73.5C 14.4151,71.2459 15.7484,69.2459 17.5,67.5 Z"/></g>
<g><path style="opacity:1" fill="#292826" d="M 21.5,69.5 C 21.8417,68.6618 22.5084,68.3284 23.5,68.5C 24.9142,70.0542 26.5808,71.3875 28.5,72.5C 28.1373,73.1835 27.8039,73.8501 27.5,74.5C 27.1667,74.5 26.8333,74.5 26.5,74.5C 25.8166,72.8235 24.4832,72.1568 22.5,72.5C 22.7373,71.209 22.404,70.209 21.5,69.5 Z"/></g>
<g><path style="opacity:1" fill="#292726" d="M 35.5,66.5 C 35.8417,65.6618 36.5084,65.3284 37.5,65.5C 37.5923,67.8477 38.5923,69.5144 40.5,70.5C 41.8333,70.5 42.5,71.1667 42.5,72.5C 40.8828,73.038 39.2161,73.3713 37.5,73.5C 37.7678,71.901 37.4345,70.5676 36.5,69.5C 36.7373,68.209 36.404,67.209 35.5,66.5 Z"/></g>
<g><path style="opacity:1" fill="#1b1a19" d="M 66.5,71.5 C 66.5,71.8333 66.5,72.1667 66.5,72.5C 65.8333,73.1667 65.1667,73.8333 64.5,74.5C 64.5,73.5 64.5,72.5 64.5,71.5C 63.5,71.5 62.5,71.5 61.5,71.5C 61.6308,74.3667 60.2974,76.0334 57.5,76.5C 56.8333,76.5 56.1667,76.5 55.5,76.5C 58.1456,74.5211 60.4789,72.1878 62.5,69.5C 64.0255,69.9943 65.3588,70.661 66.5,71.5 Z"/></g>
<g><path style="opacity:1" fill="#1c1b1a" d="M 68.5,68.5 C 68.8333,68.5 69.1667,68.5 69.5,68.5C 70.4475,69.9779 71.7809,70.9779 73.5,71.5C 73.5,72.1667 73.5,72.8333 73.5,73.5C 73.043,76.024 73.043,78.6907 73.5,81.5C 71.3021,83.0981 68.9687,84.4314 66.5,85.5C 65.4937,85.0623 65.4937,84.3957 66.5,83.5C 66.0077,79.7104 66.841,79.0437 69,81.5C 70.4813,80.5291 71.3146,79.1958 71.5,77.5C 70.1931,76.1984 70.1931,74.865 71.5,73.5C 69.753,73.0266 68.0863,72.6932 66.5,72.5C 66.5,72.1667 66.5,71.8333 66.5,71.5C 68.0481,71.1788 68.7148,70.1788 68.5,68.5 Z"/></g>
<g><path style="opacity:1" fill="#1e1d1b" d="M 85.5,66.5 C 84.1667,69.1667 82.8333,71.8333 81.5,74.5C 79.5,76.1667 77.5,77.8333 75.5,79.5C 74.6676,78.6715 75.001,77.8382 76.5,77C 75.3636,75.8549 74.3636,74.6883 73.5,73.5C 73.5,72.8333 73.5,72.1667 73.5,71.5C 74.1499,71.8039 74.8165,72.1373 75.5,72.5C 76.6956,72.1543 76.6956,71.6543 75.5,71C 76.0944,70.5357 76.7611,70.369 77.5,70.5C 78.4985,70.5872 79.6651,70.9205 81,71.5C 82.0386,70.7562 82.5386,69.7562 82.5,68.5C 83.7899,67.9423 84.6232,66.9423 85,65.5C 85.3988,65.7284 85.5654,66.0618 85.5,66.5 Z"/></g>
<g><path style="opacity:1" fill="#e3ab25" d="M 17.5,67.5 C 15.7484,69.2459 14.4151,71.2459 13.5,73.5C 13.5,73.8333 13.5,74.1667 13.5,74.5C 13.1667,74.5 12.8333,74.5 12.5,74.5C 12.1667,73.8333 11.8333,73.1667 11.5,72.5C 12.3007,70.9582 12.634,69.2915 12.5,67.5C 13.9665,70.2583 14.6332,69.925 14.5,66.5C 15.791,66.2627 16.791,66.596 17.5,67.5 Z"/></g>
<g><path style="opacity:1" fill="#5c1a06" d="M 88.5,65.5 C 89.3382,65.8417 89.6716,66.5084 89.5,67.5C 87.9172,69.6626 86.5839,71.9959 85.5,74.5C 84.6043,75.5063 83.9377,75.5063 83.5,74.5C 84.943,71.2718 86.6096,68.2718 88.5,65.5 Z"/></g>
<g><path style="opacity:0.933" fill="#5e1e00" d="M 89.5,67.5 C 89.5,68.5 89.5,69.5 89.5,70.5C 88.6597,72.8525 87.3264,74.8525 85.5,76.5C 85.5,75.8333 85.5,75.1667 85.5,74.5C 86.5839,71.9959 87.9172,69.6626 89.5,67.5 Z"/></g>
<g><path style="opacity:1" fill="#cea359" d="M 9.5,68.5 C 10.1667,68.5 10.5,68.8333 10.5,69.5C 10.5,70.5 10.5,71.5 10.5,72.5C 11.8333,74.1667 11.8333,75.8333 10.5,77.5C 8.73758,76.7377 7.73758,75.4044 7.5,73.5C 7.57918,72.0695 7.24585,70.7362 6.5,69.5C 7.13291,67.4807 8.13291,67.1474 9.5,68.5 Z"/></g>
<g><path style="opacity:1" fill="#21201e" d="M 21.5,69.5 C 22.404,70.209 22.7373,71.209 22.5,72.5C 24.4832,72.1568 25.8166,72.8235 26.5,74.5C 25.2976,75.4054 23.9643,75.4054 22.5,74.5C 21.7611,74.631 21.0944,74.4643 20.5,74C 21.5981,73.2303 21.5981,72.397 20.5,71.5C 21.3382,71.1583 21.6716,70.4916 21.5,69.5 Z"/></g>
<g><path style="opacity:1" fill="#262523" d="M 42.5,72.5 C 43.791,72.2627 44.791,72.596 45.5,73.5C 43.4357,73.687 41.4357,74.187 39.5,75C 41.3817,75.1981 43.0484,75.6981 44.5,76.5C 41.796,76.6696 40.1293,78.0029 39.5,80.5C 38.391,80.4431 37.391,80.1098 36.5,79.5C 35.5155,77.4021 35.8489,75.4021 37.5,73.5C 39.2161,73.3713 40.8828,73.038 42.5,72.5 Z"/></g>
<g><path style="opacity:1" fill="#262523" d="M 73.5,73.5 C 74.3636,74.6883 75.3636,75.8549 76.5,77C 75.001,77.8382 74.6676,78.6715 75.5,79.5C 75.1667,80.1667 74.8333,80.8333 74.5,81.5C 74.1667,81.5 73.8333,81.5 73.5,81.5C 73.043,78.6907 73.043,76.024 73.5,73.5 Z"/></g>
<g><path style="opacity:1" fill="#232220" d="M 20.5,71.5 C 21.5981,72.397 21.5981,73.2303 20.5,74C 21.0944,74.4643 21.7611,74.631 22.5,74.5C 22.631,75.2389 22.4643,75.9056 22,76.5C 21.0138,75.8288 19.8471,75.8288 18.5,76.5C 17.5416,76.0472 16.7083,75.3805 16,74.5C 15.6012,74.7284 15.4346,75.0618 15.5,75.5C 14.8333,75.1667 14.1667,74.8333 13.5,74.5C 13.5,74.1667 13.5,73.8333 13.5,73.5C 15.0295,72.9332 16.5295,72.2666 18,71.5C 18.3333,72.1667 18.6667,72.8333 19,73.5C 19.2784,72.5842 19.7784,71.9175 20.5,71.5 Z"/></g>
<g><path style="opacity:1" fill="#272625" d="M 22.5,74.5 C 23.9643,75.4054 25.2976,75.4054 26.5,74.5C 26.5,75.1667 26.5,75.8333 26.5,76.5C 24.4214,76.9707 22.4214,77.6373 20.5,78.5C 19.5,78.1667 18.8333,77.5 18.5,76.5C 19.8471,75.8288 21.0138,75.8288 22,76.5C 22.4643,75.9056 22.631,75.2389 22.5,74.5 Z"/></g>
<g><path style="opacity:1" fill="#2c2b2a" d="M 32.5,67.5 C 33.8333,68.1667 35.1667,68.8333 36.5,69.5C 37.4345,70.5676 37.7678,71.901 37.5,73.5C 35.8489,75.4021 35.5155,77.4021 36.5,79.5C 36.5,80.1667 36.5,80.8333 36.5,81.5C 35.5084,81.6716 34.8417,81.3382 34.5,80.5C 34.0338,78.7988 34.0338,77.2988 34.5,76C 33.9056,75.5357 33.2389,75.369 32.5,75.5C 33.625,74.3478 33.625,73.3478 32.5,72.5C 32.5,71.1667 32.5,69.8333 32.5,68.5C 32.5,68.1667 32.5,67.8333 32.5,67.5 Z"/></g>
<g><path style="opacity:1" fill="#211f1d" d="M 45.5,73.5 C 46.1667,73.5 46.8333,73.5 47.5,73.5C 48.5,74.1667 49.5,74.8333 50.5,75.5C 48.6208,76.3414 46.6208,76.6747 44.5,76.5C 43.0484,75.6981 41.3817,75.1981 39.5,75C 41.4357,74.187 43.4357,73.687 45.5,73.5 Z"/></g>
<g><path style="opacity:1" fill="#282725" d="M 32.5,75.5 C 33.2389,75.369 33.9056,75.5357 34.5,76C 34.0338,77.2988 34.0338,78.7988 34.5,80.5C 32.3441,82.1177 30.6774,81.7843 29.5,79.5C 30.1429,77.9236 31.1429,76.5903 32.5,75.5 Z"/></g>
<g><path style="opacity:1" fill="#262523" d="M 54.5,77.5 C 54.5,77.8333 54.5,78.1667 54.5,78.5C 52.8595,79.147 51.5261,80.147 50.5,81.5C 49.6618,81.1583 49.3284,80.4916 49.5,79.5C 49.5,79.1667 49.5,78.8333 49.5,78.5C 50.209,77.596 51.209,77.2627 52.5,77.5C 53.2216,77.0825 53.7216,76.4158 54,75.5C 54.4643,76.0944 54.631,76.7611 54.5,77.5 Z"/></g>
<g><path style="opacity:1" fill="#211f1d" d="M 64.5,74.5 C 62.0909,75.0076 62.2576,75.6743 65,76.5C 66.7261,74.9022 67.5594,75.2355 67.5,77.5C 65.5648,78.1495 63.5648,78.4828 61.5,78.5C 60.8333,78.5 60.1667,78.5 59.5,78.5C 58.8333,77.8333 58.1667,77.1667 57.5,76.5C 60.2974,76.0334 61.6308,74.3667 61.5,71.5C 62.5,71.5 63.5,71.5 64.5,71.5C 64.5,72.5 64.5,73.5 64.5,74.5 Z"/></g>
<g><path style="opacity:1" fill="#c2975a" d="M 10.5,72.5 C 10.8333,72.5 11.1667,72.5 11.5,72.5C 11.8333,73.1667 12.1667,73.8333 12.5,74.5C 12.5,74.8333 12.5,75.1667 12.5,75.5C 12.8333,77.5 13.1667,79.5 13.5,81.5C 11.7376,80.7377 10.7376,79.4044 10.5,77.5C 11.8333,75.8333 11.8333,74.1667 10.5,72.5 Z"/></g>
<g><path style="opacity:1" fill="#151419" d="M 18.5,76.5 C 18.8333,77.5 19.5,78.1667 20.5,78.5C 21.4363,79.9744 22.7697,80.9744 24.5,81.5C 25.4293,82.3149 26.4293,83.1482 27.5,84C 27.2716,84.3988 26.9382,84.5654 26.5,84.5C 26.1667,84.5 25.8333,84.5 25.5,84.5C 21.5702,82.2407 18.2369,79.2407 15.5,75.5C 15.4346,75.0618 15.6012,74.7284 16,74.5C 16.7083,75.3805 17.5416,76.0472 18.5,76.5 Z"/></g>
<g><path style="opacity:1" fill="#1a1917" d="M 50.5,75.5 C 51.8333,75.5 52.5,76.1667 52.5,77.5C 51.209,77.2627 50.209,77.596 49.5,78.5C 47.2188,78.9227 45.5521,78.256 44.5,76.5C 46.6208,76.6747 48.6208,76.3414 50.5,75.5 Z"/></g>
<g><path style="opacity:1" fill="#252422" d="M 66.5,72.5 C 68.0863,72.6932 69.753,73.0266 71.5,73.5C 70.1931,74.865 70.1931,76.1984 71.5,77.5C 69.9272,79.8362 68.5939,79.8362 67.5,77.5C 67.5594,75.2355 66.7261,74.9022 65,76.5C 62.2576,75.6743 62.0909,75.0076 64.5,74.5C 65.1667,73.8333 65.8333,73.1667 66.5,72.5 Z"/></g>
<g><path style="opacity:1" fill="#733205" d="M 82.5,74.5 C 82.8333,74.5 83.1667,74.5 83.5,74.5C 83.9377,75.5063 84.6043,75.5063 85.5,74.5C 85.5,75.1667 85.5,75.8333 85.5,76.5C 84.8763,78.754 83.543,80.4206 81.5,81.5C 81.1667,80.1667 80.8333,78.8333 80.5,77.5C 81.1667,76.5 81.8333,75.5 82.5,74.5 Z"/></g>
<g><path style="opacity:1" fill="#2f2e2c" d="M 32.5,72.5 C 33.625,73.3478 33.625,74.3478 32.5,75.5C 31.1429,76.5903 30.1429,77.9236 29.5,79.5C 28.8826,79.3893 28.3826,79.056 28,78.5C 27.6232,79.9423 26.7899,80.9423 25.5,81.5C 25.6287,79.7839 25.962,78.1172 26.5,76.5C 26.5,75.8333 26.5,75.1667 26.5,74.5C 26.8333,74.5 27.1667,74.5 27.5,74.5C 29.1667,73.8333 30.8333,73.1667 32.5,72.5 Z"/></g>
<g><path style="opacity:1" fill="#1d1c1a" d="M 44.5,76.5 C 45.5521,78.256 47.2188,78.9227 49.5,78.5C 49.5,78.8333 49.5,79.1667 49.5,79.5C 47.0607,80.0525 44.7273,80.0525 42.5,79.5C 41.7025,79.9569 41.3691,80.6236 41.5,81.5C 40.5084,81.6716 39.8417,81.3382 39.5,80.5C 40.1293,78.0029 41.796,76.6696 44.5,76.5 Z"/></g>
<g><path style="opacity:1" fill="#c89d57" d="M 12.5,75.5 C 14.5,76.8333 16.1667,78.5 17.5,80.5C 17.0618,80.4346 16.7284,80.6012 16.5,81C 18.5389,82.9263 20.2055,85.093 21.5,87.5C 18.4669,85.984 15.8003,83.984 13.5,81.5C 13.1667,79.5 12.8333,77.5 12.5,75.5 Z"/></g>
<g><path style="opacity:1" fill="#2d2c2a" d="M 26.5,76.5 C 25.962,78.1172 25.6287,79.7839 25.5,81.5C 25.1667,81.5 24.8333,81.5 24.5,81.5C 22.7697,80.9744 21.4363,79.9744 20.5,78.5C 22.4214,77.6373 24.4214,76.9707 26.5,76.5 Z"/></g>
<g><path style="opacity:1" fill="#1e1e1c" d="M 55.5,76.5 C 56.1667,76.5 56.8333,76.5 57.5,76.5C 58.1667,77.1667 58.8333,77.8333 59.5,78.5C 57.8967,78.3118 56.5634,78.8118 55.5,80C 57.3008,80.3173 57.6341,80.984 56.5,82C 55.4232,82.4696 54.4232,82.3029 53.5,81.5C 54.1098,80.609 54.4431,79.609 54.5,78.5C 54.5,78.1667 54.5,77.8333 54.5,77.5C 55.1667,77.5 55.5,77.1667 55.5,76.5 Z"/></g>
<g><path style="opacity:1" fill="#262523" d="M 67.5,77.5 C 68.5939,79.8362 69.9272,79.8362 71.5,77.5C 71.3146,79.1958 70.4813,80.5291 69,81.5C 66.841,79.0437 66.0077,79.7104 66.5,83.5C 65.7321,82.7375 65.2321,81.7375 65,80.5C 62.8511,81.8398 61.6845,81.1731 61.5,78.5C 63.5648,78.4828 65.5648,78.1495 67.5,77.5 Z"/></g>
<g><path style="opacity:1" fill="#f5f4e4" d="M 81.5,74.5 C 81.8333,74.5 82.1667,74.5 82.5,74.5C 81.8333,75.5 81.1667,76.5 80.5,77.5C 78.5,79.1667 76.5,80.8333 74.5,82.5C 74.5,82.1667 74.5,81.8333 74.5,81.5C 74.8333,80.8333 75.1667,80.1667 75.5,79.5C 77.5,77.8333 79.5,76.1667 81.5,74.5 Z"/></g>
<g><path style="opacity:1" fill="#c49140" d="M 17.5,80.5 C 19.6979,82.0981 22.0313,83.4314 24.5,84.5C 24.5,84.8333 24.5,85.1667 24.5,85.5C 23.6676,86.3285 24.001,87.1618 25.5,88C 24.1807,88.195 22.8474,88.0283 21.5,87.5C 20.2055,85.093 18.5389,82.9263 16.5,81C 16.7284,80.6012 17.0618,80.4346 17.5,80.5 Z"/></g>
<g><path style="opacity:1" fill="#eae68d" d="M 12.5,75.5 C 12.5,75.1667 12.5,74.8333 12.5,74.5C 12.8333,74.5 13.1667,74.5 13.5,74.5C 14.1667,74.8333 14.8333,75.1667 15.5,75.5C 18.2369,79.2407 21.5702,82.2407 25.5,84.5C 25.1667,84.5 24.8333,84.5 24.5,84.5C 22.0313,83.4314 19.6979,82.0981 17.5,80.5C 16.1667,78.5 14.5,76.8333 12.5,75.5 Z"/></g>
<g><path style="opacity:1" fill="#252422" d="M 29.5,79.5 C 30.6774,81.7843 32.3441,82.1177 34.5,80.5C 34.8417,81.3382 35.5084,81.6716 36.5,81.5C 37.4916,81.3284 38.1583,81.6618 38.5,82.5C 37.0359,84.9845 35.3692,84.9845 33.5,82.5C 33.6114,84.1086 33.278,85.7753 32.5,87.5C 30.1815,87.0075 28.1815,86.0075 26.5,84.5C 26.9382,84.5654 27.2716,84.3988 27.5,84C 26.4293,83.1482 25.4293,82.3149 24.5,81.5C 24.8333,81.5 25.1667,81.5 25.5,81.5C 26.7899,80.9423 27.6232,79.9423 28,78.5C 28.3826,79.056 28.8826,79.3893 29.5,79.5 Z"/></g>
<g><path style="opacity:1" fill="#282725" d="M 59.5,78.5 C 60.1667,78.5 60.8333,78.5 61.5,78.5C 61.6845,81.1731 62.8511,81.8398 65,80.5C 65.2321,81.7375 65.7321,82.7375 66.5,83.5C 65.4937,84.3957 65.4937,85.0623 66.5,85.5C 65.8333,86.1667 65.1667,86.8333 64.5,87.5C 63.8333,87.5 63.1667,87.5 62.5,87.5C 61.3281,86.2947 59.9948,86.2947 58.5,87.5C 58.1667,86.8333 57.8333,86.1667 57.5,85.5C 56.5832,86.1272 55.5832,86.4606 54.5,86.5C 54.5,86.1667 54.5,85.8333 54.5,85.5C 53.8592,84.5178 53.1925,83.5178 52.5,82.5C 52.6236,81.8933 52.9569,81.56 53.5,81.5C 54.4232,82.3029 55.4232,82.4696 56.5,82C 57.6341,80.984 57.3008,80.3173 55.5,80C 56.5634,78.8118 57.8967,78.3118 59.5,78.5 Z"/></g>
<g><path style="opacity:1" fill="#945613" d="M 80.5,77.5 C 80.8333,78.8333 81.1667,80.1667 81.5,81.5C 80.7377,83.2624 79.4044,84.2624 77.5,84.5C 77.6107,83.8826 77.944,83.3826 78.5,83C 76.9813,83.3308 75.648,83.1641 74.5,82.5C 76.5,80.8333 78.5,79.1667 80.5,77.5 Z"/></g>
<g><path style="opacity:1" fill="#282725" d="M 49.5,79.5 C 49.3284,80.4916 49.6618,81.1583 50.5,81.5C 50.5,82.1667 50.1667,82.5 49.5,82.5C 48.0413,82.4326 46.7079,82.7659 45.5,83.5C 44.1667,82.8333 42.8333,82.1667 41.5,81.5C 41.3691,80.6236 41.7025,79.9569 42.5,79.5C 44.7273,80.0525 47.0607,80.0525 49.5,79.5 Z"/></g>
<g><path style="opacity:1" fill="#242321" d="M 54.5,78.5 C 54.4431,79.609 54.1098,80.609 53.5,81.5C 52.9569,81.56 52.6236,81.8933 52.5,82.5C 53.1925,83.5178 53.8592,84.5178 54.5,85.5C 52.9969,86.6816 51.3302,87.1816 49.5,87C 50.1667,86.3333 50.8333,85.6667 51.5,85C 50.244,84.5831 49.5774,83.7498 49.5,82.5C 50.1667,82.5 50.5,82.1667 50.5,81.5C 51.5261,80.147 52.8595,79.147 54.5,78.5 Z"/></g>
<g><path style="opacity:1" fill="#eae7dd" d="M 73.5,81.5 C 73.8333,81.5 74.1667,81.5 74.5,81.5C 74.5,81.8333 74.5,82.1667 74.5,82.5C 73.5,82.8333 72.8333,83.5 72.5,84.5C 70.2872,85.7729 67.9538,86.7729 65.5,87.5C 65.1667,87.5 64.8333,87.5 64.5,87.5C 65.1667,86.8333 65.8333,86.1667 66.5,85.5C 68.9687,84.4314 71.3021,83.0981 73.5,81.5 Z"/></g>
<g><path style="opacity:1" fill="#22211f" d="M 36.5,79.5 C 37.391,80.1098 38.391,80.4431 39.5,80.5C 39.8417,81.3382 40.5084,81.6716 41.5,81.5C 42.8333,82.1667 44.1667,82.8333 45.5,83.5C 45.1667,84.8333 44.8333,86.1667 44.5,87.5C 43.5,87.5 42.5,87.5 41.5,87.5C 43.4007,84.6722 42.734,83.0056 39.5,82.5C 39.1667,82.5 38.8333,82.5 38.5,82.5C 38.1583,81.6618 37.4916,81.3284 36.5,81.5C 36.5,80.8333 36.5,80.1667 36.5,79.5 Z"/></g>
<g><path style="opacity:1" fill="#ab7324" d="M 74.5,82.5 C 75.648,83.1641 76.9813,83.3308 78.5,83C 77.944,83.3826 77.6107,83.8826 77.5,84.5C 76.7377,86.2624 75.4044,87.2624 73.5,87.5C 71.1582,87.2252 71.1582,86.3919 73.5,85C 73.2716,84.6012 72.9382,84.4346 72.5,84.5C 72.8333,83.5 73.5,82.8333 74.5,82.5 Z"/></g>
<g><path style="opacity:1" fill="#eada78" d="M 24.5,85.5 C 24.5,85.1667 24.5,84.8333 24.5,84.5C 24.8333,84.5 25.1667,84.5 25.5,84.5C 25.8333,84.5 26.1667,84.5 26.5,84.5C 28.1815,86.0075 30.1815,87.0075 32.5,87.5C 34.7014,88.5664 37.0347,89.233 39.5,89.5C 40.391,90.1098 41.391,90.4431 42.5,90.5C 42.5,90.8333 42.5,91.1667 42.5,91.5C 41.1667,91.5 39.8333,91.5 38.5,91.5C 36.4006,90.3882 34.0673,89.7215 31.5,89.5C 29.3649,87.9291 27.0316,86.5957 24.5,85.5 Z"/></g>
<g><path style="opacity:1" fill="#21201d" d="M 38.5,82.5 C 38.8333,82.5 39.1667,82.5 39.5,82.5C 39.5,84.5 39.5,86.5 39.5,88.5C 39.5,88.8333 39.5,89.1667 39.5,89.5C 37.0347,89.233 34.7014,88.5664 32.5,87.5C 33.278,85.7753 33.6114,84.1086 33.5,82.5C 35.3692,84.9845 37.0359,84.9845 38.5,82.5 Z"/></g>
<g><path style="opacity:1" fill="#201f1d" d="M 49.5,82.5 C 49.5774,83.7498 50.244,84.5831 51.5,85C 50.8333,85.6667 50.1667,86.3333 49.5,87C 51.3302,87.1816 52.9969,86.6816 54.5,85.5C 54.5,85.8333 54.5,86.1667 54.5,86.5C 53.6618,86.8417 53.3284,87.5084 53.5,88.5C 50.8333,88.5 48.1667,88.5 45.5,88.5C 45.5,87.8333 45.1667,87.5 44.5,87.5C 44.8333,86.1667 45.1667,84.8333 45.5,83.5C 46.7079,82.7659 48.0413,82.4326 49.5,82.5 Z"/></g>
<g><path style="opacity:1" fill="#272725" d="M 39.5,82.5 C 42.734,83.0056 43.4007,84.6722 41.5,87.5C 42.5,87.5 43.5,87.5 44.5,87.5C 45.1667,87.5 45.5,87.8333 45.5,88.5C 43.5,88.5 41.5,88.5 39.5,88.5C 39.5,86.5 39.5,84.5 39.5,82.5 Z"/></g>
<g><path style="opacity:1" fill="#22221f" d="M 62.5,87.5 C 60.2986,88.5664 57.9653,89.233 55.5,89.5C 55.1583,88.6618 54.4916,88.3284 53.5,88.5C 53.3284,87.5084 53.6618,86.8417 54.5,86.5C 55.5832,86.4606 56.5832,86.1272 57.5,85.5C 57.8333,86.1667 58.1667,86.8333 58.5,87.5C 59.9948,86.2947 61.3281,86.2947 62.5,87.5 Z"/></g>
<g><path style="opacity:1" fill="#1f1f1d" d="M 39.5,89.5 C 39.5,89.1667 39.5,88.8333 39.5,88.5C 41.5,88.5 43.5,88.5 45.5,88.5C 48.1667,88.5 50.8333,88.5 53.5,88.5C 54.4916,88.3284 55.1583,88.6618 55.5,89.5C 51.2147,90.2949 46.8814,90.6282 42.5,90.5C 41.391,90.4431 40.391,90.1098 39.5,89.5 Z"/></g>
<g><path style="opacity:1" fill="#eeebbd" d="M 62.5,87.5 C 63.1667,87.5 63.8333,87.5 64.5,87.5C 64.8333,87.5 65.1667,87.5 65.5,87.5C 65.5,87.8333 65.5,88.1667 65.5,88.5C 64.5084,88.3284 63.8417,88.6618 63.5,89.5C 61.901,89.2322 60.5676,89.5655 59.5,90.5C 57.7839,90.6287 56.1172,90.962 54.5,91.5C 53.1667,91.5 51.8333,91.5 50.5,91.5C 47.8333,91.5 45.1667,91.5 42.5,91.5C 42.5,91.1667 42.5,90.8333 42.5,90.5C 46.8814,90.6282 51.2147,90.2949 55.5,89.5C 57.9653,89.233 60.2986,88.5664 62.5,87.5 Z"/></g>
<g><path style="opacity:1" fill="#87470c" d="M 72.5,84.5 C 72.9382,84.4346 73.2716,84.6012 73.5,85C 71.1582,86.3919 71.1582,87.2252 73.5,87.5C 72.3406,89.2503 70.674,90.2503 68.5,90.5C 67.448,90.6495 66.448,90.4828 65.5,90C 66.7383,89.31 66.7383,88.81 65.5,88.5C 65.5,88.1667 65.5,87.8333 65.5,87.5C 67.9538,86.7729 70.2872,85.7729 72.5,84.5 Z"/></g>
<g><path style="opacity:1" fill="#71330a" d="M 63.5,89.5 C 63.8417,88.6618 64.5084,88.3284 65.5,88.5C 66.7383,88.81 66.7383,89.31 65.5,90C 66.448,90.4828 67.448,90.6495 68.5,90.5C 66.5739,92.2927 64.2406,93.2927 61.5,93.5C 62.635,92.5255 63.635,91.3588 64.5,90C 64.2716,89.6012 63.9382,89.4346 63.5,89.5 Z"/></g>
<g><path style="opacity:1" fill="#ad753b" d="M 24.5,85.5 C 27.0316,86.5957 29.3649,87.9291 31.5,89.5C 34.8837,90.6753 37.217,92.342 38.5,94.5C 32.0249,93.9032 26.3582,91.5699 21.5,87.5C 22.8474,88.0283 24.1807,88.195 25.5,88C 24.001,87.1618 23.6676,86.3285 24.5,85.5 Z"/></g>
<g><path style="opacity:1" fill="#824519" d="M 38.5,91.5 C 39.8333,91.5 41.1667,91.5 42.5,91.5C 45.1667,91.5 47.8333,91.5 50.5,91.5C 49.0484,92.3019 47.3817,92.8019 45.5,93C 49.0863,94.1076 52.753,94.6076 56.5,94.5C 56.5,94.8333 56.5,95.1667 56.5,95.5C 50.5,95.5 44.5,95.5 38.5,95.5C 38.5,95.1667 38.5,94.8333 38.5,94.5C 44.7035,94.3278 44.7035,93.3278 38.5,91.5 Z"/></g>
<g><path style="opacity:1" fill="#6c2e0f" d="M 59.5,90.5 C 60.5676,89.5655 61.901,89.2322 63.5,89.5C 63.9382,89.4346 64.2716,89.6012 64.5,90C 63.635,91.3588 62.635,92.5255 61.5,93.5C 59.9582,94.3007 58.2915,94.634 56.5,94.5C 56.5,94.1667 56.5,93.8333 56.5,93.5C 58.6807,93.7163 60.3474,92.883 61.5,91C 60.9056,90.5357 60.2389,90.369 59.5,90.5 Z"/></g>
<g><path style="opacity:1" fill="#95571d" d="M 31.5,89.5 C 34.0673,89.7215 36.4006,90.3882 38.5,91.5C 44.7035,93.3278 44.7035,94.3278 38.5,94.5C 37.217,92.342 34.8837,90.6753 31.5,89.5 Z"/></g>
<g><path style="opacity:1" fill="#672403" d="M 50.5,91.5 C 51.8333,91.5 53.1667,91.5 54.5,91.5C 54.0825,92.2216 53.4158,92.7216 52.5,93C 53.7932,93.49 55.1266,93.6567 56.5,93.5C 56.5,93.8333 56.5,94.1667 56.5,94.5C 52.753,94.6076 49.0863,94.1076 45.5,93C 47.3817,92.8019 49.0484,92.3019 50.5,91.5 Z"/></g>
<g><path style="opacity:1" fill="#571602" d="M 59.5,90.5 C 60.2389,90.369 60.9056,90.5357 61.5,91C 60.3474,92.883 58.6807,93.7163 56.5,93.5C 55.1266,93.6567 53.7932,93.49 52.5,93C 53.4158,92.7216 54.0825,92.2216 54.5,91.5C 56.1172,90.962 57.7839,90.6287 59.5,90.5 Z"/></g>
</svg>
