<?xml version="1.0" encoding="UTF-8"?>
<!DOCTYPE svg PUBLIC "-//W3C//DTD SVG 1.1//EN" "http://www.w3.org/Graphics/SVG/1.1/DTD/svg11.dtd">
<svg xmlns="http://www.w3.org/2000/svg" version="1.1" width="96px" height="96px" style="shape-rendering:geometricPrecision; text-rendering:geometricPrecision; image-rendering:optimizeQuality; fill-rule:evenodd; clip-rule:evenodd" xmlns:xlink="http://www.w3.org/1999/xlink">
<g><path style="opacity:0.923" fill="#060201" d="M 37.5,-0.5 C 44.1667,-0.5 50.8333,-0.5 57.5,-0.5C 77.1667,5.16667 89.8333,17.8333 95.5,37.5C 95.5,44.1667 95.5,50.8333 95.5,57.5C 89.8333,77.1667 77.1667,89.8333 57.5,95.5C 50.8333,95.5 44.1667,95.5 37.5,95.5C 17.8333,89.8333 5.16667,77.1667 -0.5,57.5C -0.5,50.8333 -0.5,44.1667 -0.5,37.5C 5.16667,17.8333 17.8333,5.16667 37.5,-0.5 Z"/></g>
<g><path style="opacity:1" fill="#b19952" d="M 50.5,3.5 C 50.6107,4.11742 50.944,4.61742 51.5,5C 50.2068,5.49001 48.8734,5.65668 47.5,5.5C 42.9903,5.27097 38.6569,5.93763 34.5,7.5C 32.0721,8.2122 29.7388,9.2122 27.5,10.5C 26.8933,10.3764 26.56,10.0431 26.5,9.5C 33.7264,4.69335 41.7264,2.69335 50.5,3.5 Z"/></g>
<g><path style="opacity:1" fill="#1f0f04" d="M 47.5,5.5 C 51.4891,6.50619 55.4891,7.83952 59.5,9.5C 60.4287,10.6888 60.762,12.0222 60.5,13.5C 58.8333,13.5 57.1667,13.5 55.5,13.5C 53.6505,12.1634 51.4839,11.4967 49,11.5C 47.3189,11.6083 46.1522,12.2749 45.5,13.5C 44.791,14.404 43.791,14.7373 42.5,14.5C 42.0842,17.3595 43.0842,19.5262 45.5,21C 45.1667,21.5 44.8333,22 44.5,22.5C 41.5788,23.4066 38.5788,23.7399 35.5,23.5C 36.9575,21.9892 38.7908,20.9892 41,20.5C 41.5281,19.184 41.0281,18.5173 39.5,18.5C 37.9577,17.8592 36.6243,16.8592 35.5,15.5C 37.9307,14.6399 39.264,12.9732 39.5,10.5C 38.0413,10.4326 36.7079,10.7659 35.5,11.5C 34.5655,10.4324 34.2322,9.09903 34.5,7.5C 38.6569,5.93763 42.9903,5.27097 47.5,5.5 Z"/></g>
<g><path style="opacity:1" fill="#311a09" d="M 34.5,7.5 C 34.2322,9.09903 34.5655,10.4324 35.5,11.5C 31.9155,13.8061 27.9155,15.1394 23.5,15.5C 23.0246,12.6874 24.0246,10.6874 26.5,9.5C 26.56,10.0431 26.8933,10.3764 27.5,10.5C 29.7388,9.2122 32.0721,8.2122 34.5,7.5 Z"/></g>
<g><path style="opacity:1" fill="#5e3e15" d="M 50.5,3.5 C 54.7361,3.55902 58.7361,4.55902 62.5,6.5C 64.5519,9.12333 67.2186,10.79 70.5,11.5C 69.3112,12.4287 67.9778,12.762 66.5,12.5C 65.8333,12.8333 65.1667,13.1667 64.5,13.5C 64.44,12.9569 64.1067,12.6236 63.5,12.5C 62.1482,13.5244 60.8149,14.5244 59.5,15.5C 57.712,15.7852 56.0453,15.4519 54.5,14.5C 54.6236,13.8933 54.9569,13.56 55.5,13.5C 57.1667,13.5 58.8333,13.5 60.5,13.5C 60.762,12.0222 60.4287,10.6888 59.5,9.5C 55.4891,7.83952 51.4891,6.50619 47.5,5.5C 48.8734,5.65668 50.2068,5.49001 51.5,5C 50.944,4.61742 50.6107,4.11742 50.5,3.5 Z"/></g>
<g><path style="opacity:1" fill="#321c07" d="M 55.5,13.5 C 54.9569,13.56 54.6236,13.8933 54.5,14.5C 56.0453,15.4519 57.712,15.7852 59.5,15.5C 59.8212,17.0481 60.8212,17.7148 62.5,17.5C 62.2291,15.6203 62.8958,14.287 64.5,13.5C 65.1667,13.1667 65.8333,12.8333 66.5,12.5C 66.4257,16.1611 67.4257,16.8277 69.5,14.5C 72.2789,15.6735 72.9455,17.5068 71.5,20C 72.91,20.3678 73.91,21.2011 74.5,22.5C 71.8938,23.6517 69.2272,23.8184 66.5,23C 63.4255,18.708 60.2588,18.5413 57,22.5C 55.6814,20.7505 55.1814,18.7505 55.5,16.5C 53.2495,16.8186 51.2495,16.3186 49.5,15C 51.5951,14.4444 51.7618,13.9444 50,13.5C 49.0546,13.9054 48.3879,14.572 48,15.5C 47.9252,13.065 47.0919,12.3984 45.5,13.5C 46.1522,12.2749 47.3189,11.6083 49,11.5C 51.4839,11.4967 53.6505,12.1634 55.5,13.5 Z"/></g>
<g><path style="opacity:1" fill="#926a25" d="M 39.5,18.5 C 34.3274,17.3498 31.3274,19.3498 30.5,24.5C 28.5,24.5 26.5,24.5 24.5,24.5C 24.7031,22.9557 25.3698,21.6223 26.5,20.5C 25.5,18.8333 24.1667,17.5 22.5,16.5C 22.6236,15.8933 22.9569,15.56 23.5,15.5C 27.9155,15.1394 31.9155,13.8061 35.5,11.5C 36.7079,10.7659 38.0413,10.4326 39.5,10.5C 39.264,12.9732 37.9307,14.6399 35.5,15.5C 36.6243,16.8592 37.9577,17.8592 39.5,18.5 Z"/></g>
<g><path style="opacity:1" fill="#9a7c22" d="M 64.5,13.5 C 62.8958,14.287 62.2291,15.6203 62.5,17.5C 60.8212,17.7148 59.8212,17.0481 59.5,15.5C 60.8149,14.5244 62.1482,13.5244 63.5,12.5C 64.1067,12.6236 64.44,12.9569 64.5,13.5 Z"/></g>
<g><path style="opacity:1" fill="#c8a451" d="M 39.5,18.5 C 41.0281,18.5173 41.5281,19.184 41,20.5C 38.7908,20.9892 36.9575,21.9892 35.5,23.5C 34.8333,23.5 34.5,23.8333 34.5,24.5C 33.1667,24.5 31.8333,24.5 30.5,24.5C 31.3274,19.3498 34.3274,17.3498 39.5,18.5 Z"/></g>
<g><path style="opacity:1" fill="#eeedec" d="M 24.5,24.5 C 26.5,24.5 28.5,24.5 30.5,24.5C 31.8333,24.5 33.1667,24.5 34.5,24.5C 50.1702,24.3334 65.8369,24.5001 81.5,25C 82.2524,25.6708 82.5858,26.5041 82.5,27.5C 82.5,28.1667 82.5,28.8333 82.5,29.5C 82.5,33.5 82.5,37.5 82.5,41.5C 82.5,46.8333 82.5,52.1667 82.5,57.5C 82.797,61.7675 82.4637,65.9341 81.5,70C 63.8365,70.4999 46.1698,70.6666 28.5,70.5C 23.4889,70.6659 18.4889,70.4993 13.5,70C 12.5333,65.5986 12.2,61.0986 12.5,56.5C 12.3335,46.1613 12.5002,35.828 13,25.5C 16.73,24.5399 20.5633,24.2065 24.5,24.5 Z"/></g>
<g><path style="opacity:1" fill="#716258" d="M 16.5,29.5 C 22.987,28.346 29.6536,28.1794 36.5,29C 35.9558,29.7172 35.2891,30.2172 34.5,30.5C 32.7354,29.5386 30.7354,29.2053 28.5,29.5C 27.5,29.5 26.5,29.5 25.5,29.5C 22.5,29.5 19.5,29.5 16.5,29.5 Z"/></g>
<g><path style="opacity:1" fill="#160f0e" d="M 28.5,29.5 C 30.7354,29.2053 32.7354,29.5386 34.5,30.5C 32.1495,31.8611 29.8162,33.1944 27.5,34.5C 27.6287,32.7839 27.962,31.1172 28.5,29.5 Z"/></g>
<g><path style="opacity:1" fill="#030302" d="M 53.5,65.5 C 42.8333,65.5 32.1667,65.5 21.5,65.5C 20.9254,61.4767 20.2588,57.4767 19.5,53.5C 25.6116,38.1103 36.9449,30.1103 53.5,29.5C 53.5,41.5 53.5,53.5 53.5,65.5 Z"/></g>
<g><path style="opacity:1" fill="#100908" d="M 69.5,34.5 C 68.8333,34.5 68.1667,34.5 67.5,34.5C 64.7749,31.6394 62.9416,32.3061 62,36.5C 61.586,36.0426 61.086,35.7093 60.5,35.5C 59.9432,37.3316 58.9432,38.6649 57.5,39.5C 57.5,36.1667 57.5,32.8333 57.5,29.5C 62.2756,29.5612 66.2756,31.2279 69.5,34.5 Z"/></g>
<g><path style="opacity:1" fill="#0c0403" d="M 82.5,29.5 C 84.371,29.8588 85.871,30.8588 87,32.5C 88.6217,35.9869 89.455,39.6535 89.5,43.5C 86.9214,43.6061 84.588,42.9395 82.5,41.5C 82.5,37.5 82.5,33.5 82.5,29.5 Z"/></g>
<g><path style="opacity:1" fill="#a09591" d="M 73.5,28.5 C 75.5,28.5 77.5,28.5 79.5,28.5C 79.8174,31.5719 79.4841,34.5719 78.5,37.5C 77.8933,37.3764 77.56,37.0431 77.5,36.5C 78.4682,34.3926 78.8016,32.0593 78.5,29.5C 77.1667,29.5 75.8333,29.5 74.5,29.5C 73.8333,29.5 73.5,29.1667 73.5,28.5 Z"/></g>
<g><path style="opacity:1" fill="#7c551e" d="M 73.5,28.5 C 73.5,29.1667 73.8333,29.5 74.5,29.5C 76.9717,30.6421 77.9717,32.6421 77.5,35.5C 74.9974,33.1673 72.3307,31.0007 69.5,29C 70.7932,28.51 72.1266,28.3433 73.5,28.5 Z"/></g>
<g><path style="opacity:1" fill="#85521a" d="M 25.5,29.5 C 26.5,29.5 27.5,29.5 28.5,29.5C 27.962,31.1172 27.6287,32.7839 27.5,34.5C 27.1667,35.5 26.5,36.1667 25.5,36.5C 24.7808,34.6827 23.7808,34.0161 22.5,34.5C 23.7629,32.9713 24.7629,31.3046 25.5,29.5 Z"/></g>
<g><path style="opacity:1" fill="#1c0500" d="M 74.5,29.5 C 75.8333,29.5 77.1667,29.5 78.5,29.5C 78.8016,32.0593 78.4682,34.3926 77.5,36.5C 77.5,36.1667 77.5,35.8333 77.5,35.5C 77.9717,32.6421 76.9717,30.6421 74.5,29.5 Z"/></g>
<g><path style="opacity:1" fill="#ac7723" d="M 16.5,41.5 C 16.5,39.8333 16.5,38.1667 16.5,36.5C 18.8356,34.9962 20.669,32.9962 22,30.5C 22.1667,30.8333 22.3333,31.1667 22.5,31.5C 20.4741,34.8968 18.4741,38.2301 16.5,41.5 Z"/></g>
<g><path style="opacity:1" fill="#7a4d17" d="M 67.5,34.5 C 68.1667,34.5 68.8333,34.5 69.5,34.5C 71.8163,35.422 73.483,37.0887 74.5,39.5C 72.1133,39.9121 70.1133,40.9121 68.5,42.5C 66.3131,42.0166 64.3131,42.0166 62.5,42.5C 64.5891,40.0817 66.2558,37.415 67.5,34.5 Z"/></g>
<g><path style="opacity:1" fill="#241007" d="M 16.5,29.5 C 19.5,29.5 22.5,29.5 25.5,29.5C 24.7629,31.3046 23.7629,32.9713 22.5,34.5C 23.7808,34.0161 24.7808,34.6827 25.5,36.5C 22.6754,40.1366 19.8421,43.8033 17,47.5C 16.5045,45.5273 16.3379,43.5273 16.5,41.5C 18.4741,38.2301 20.4741,34.8968 22.5,31.5C 22.3333,31.1667 22.1667,30.8333 22,30.5C 20.669,32.9962 18.8356,34.9962 16.5,36.5C 16.5,34.1667 16.5,31.8333 16.5,29.5 Z"/></g>
<g><path style="opacity:1" fill="#311504" d="M 67.5,34.5 C 66.2558,37.415 64.5891,40.0817 62.5,42.5C 64.3131,42.0166 66.3131,42.0166 68.5,42.5C 67.2642,44.0428 65.5976,45.0428 63.5,45.5C 61.4807,43.8103 59.4807,42.1436 57.5,40.5C 57.5,40.1667 57.5,39.8333 57.5,39.5C 58.9432,38.6649 59.9432,37.3316 60.5,35.5C 61.086,35.7093 61.586,36.0426 62,36.5C 62.9416,32.3061 64.7749,31.6394 67.5,34.5 Z"/></g>
<g><path style="opacity:1" fill="#130806" d="M 74.5,39.5 C 77.2095,42.6004 78.5429,46.267 78.5,50.5C 71.5,50.5 64.5,50.5 57.5,50.5C 57.5,47.1667 57.5,43.8333 57.5,40.5C 59.4807,42.1436 61.4807,43.8103 63.5,45.5C 65.5976,45.0428 67.2642,44.0428 68.5,42.5C 70.1133,40.9121 72.1133,39.9121 74.5,39.5 Z"/></g>
<g><path style="opacity:1" fill="#2b2413" d="M 8.5,62.5 C 7.77842,62.0825 7.27842,61.4158 7,60.5C 6.60123,60.7284 6.43456,61.0618 6.5,61.5C 2.75916,53.3467 2.59249,45.0134 6,36.5C 7.61494,38.0107 7.61494,39.344 6,40.5C 5.33333,45.5 5.33333,50.5 6,55.5C 6.29265,57.9249 7.45932,59.7582 9.5,61C 8.94404,61.3826 8.61071,61.8826 8.5,62.5 Z"/></g>
<g><path style="opacity:1" fill="#3e200f" d="M 86.5,46.5 C 86.6309,45.6236 86.2975,44.9569 85.5,44.5C 84.5228,51.3419 84.8561,58.0085 86.5,64.5C 86.2914,65.9217 85.7914,67.255 85,68.5C 84.6667,64.1667 84.3333,59.8333 84,55.5C 83.7216,56.4158 83.2216,57.0825 82.5,57.5C 82.5,52.1667 82.5,46.8333 82.5,41.5C 84.588,42.9395 86.9214,43.6061 89.5,43.5C 89.455,39.6535 88.6217,35.9869 87,32.5C 85.871,30.8588 84.371,29.8588 82.5,29.5C 82.5,28.8333 82.5,28.1667 82.5,27.5C 85.1312,28.8689 85.7978,28.2022 84.5,25.5C 84.8457,24.3044 85.3457,24.3044 86,25.5C 89.3149,31.7856 91.1482,38.4523 91.5,45.5C 89.7085,45.366 88.0418,45.6993 86.5,46.5 Z"/></g>
<g><path style="opacity:1" fill="#251306" d="M 67.5,54.5 C 71.1817,54.3347 74.8484,54.5014 78.5,55C 77.0161,60.316 73.6828,63.816 68.5,65.5C 67.5184,62.0381 67.185,58.3714 67.5,54.5 Z"/></g>
<g><path style="opacity:1" fill="#866027" d="M 86.5,46.5 C 86.5,52.5 86.5,58.5 86.5,64.5C 84.8561,58.0085 84.5228,51.3419 85.5,44.5C 86.2975,44.9569 86.6309,45.6236 86.5,46.5 Z"/></g>
<g><path style="opacity:1" fill="#1e1e1e" d="M 57.5,61.5 C 59.2646,60.5386 61.2646,60.2053 63.5,60.5C 63.0841,66.3818 61.0841,66.7151 57.5,61.5 Z"/></g>
<g><path style="opacity:1" fill="#7e7978" d="M 67.5,54.5 C 67.185,58.3714 67.5184,62.0381 68.5,65.5C 68.44,66.0431 68.1067,66.3764 67.5,66.5C 66.1905,62.3507 66.1905,58.3507 67.5,54.5 Z"/></g>
<g><path style="opacity:1" fill="#6a482e" d="M 19.5,53.5 C 20.2588,57.4767 20.9254,61.4767 21.5,65.5C 32.1667,65.5 42.8333,65.5 53.5,65.5C 41.3446,66.4952 29.0113,66.8286 16.5,66.5C 16.1236,61.7387 17.1236,57.4054 19.5,53.5 Z"/></g>
<g><path style="opacity:1" fill="#73614b" d="M 76.5,64.5 C 78.337,64.6395 78.6704,65.3061 77.5,66.5C 76.7025,66.0431 76.3691,65.3764 76.5,64.5 Z"/></g>
<g><path style="opacity:1" fill="#a47927" d="M 28.5,71.5 C 29.2719,72.6935 30.2719,73.6935 31.5,74.5C 33.3691,75.1646 35.3691,75.8313 37.5,76.5C 36.3333,76.8333 35.1667,77.1667 34,77.5C 29.1596,76.2163 24.3263,76.2163 19.5,77.5C 19.7135,75.8561 19.3802,74.3561 18.5,73C 21.6883,71.6842 25.0217,71.1842 28.5,71.5 Z"/></g>
<g><path style="opacity:1" fill="#57300e" d="M 12.5,56.5 C 12.2,61.0986 12.5333,65.5986 13.5,70C 18.4889,70.4993 23.4889,70.6659 28.5,70.5C 28.5,70.8333 28.5,71.1667 28.5,71.5C 25.0217,71.1842 21.6883,71.6842 18.5,73C 19.3802,74.3561 19.7135,75.8561 19.5,77.5C 24.3263,76.2163 29.1596,76.2163 34,77.5C 35.1667,77.1667 36.3333,76.8333 37.5,76.5C 35.3691,75.8313 33.3691,75.1646 31.5,74.5C 36.1517,72.2445 39.8184,73.2445 42.5,77.5C 41.624,78.2508 40.624,78.7508 39.5,79C 42.5231,81.1775 44.5231,84.0108 45.5,87.5C 43.8333,87.5 42.1667,87.5 40.5,87.5C 40.6107,86.8826 40.944,86.3826 41.5,86C 37.9703,82.5373 33.637,80.704 28.5,80.5C 27.2613,80.9424 26.2613,81.6091 25.5,82.5C 25.4833,77.9851 23.8166,77.3184 20.5,80.5C 18.2654,79.7721 16.4321,78.4388 15,76.5C 11.6365,71.7699 8.80317,66.7699 6.5,61.5C 6.43456,61.0618 6.60123,60.7284 7,60.5C 7.27842,61.4158 7.77842,62.0825 8.5,62.5C 9.07204,63.9733 9.90537,65.3066 11,66.5C 11.1787,62.9748 11.6787,59.6414 12.5,56.5 Z"/></g>
<g><path style="opacity:1" fill="#120300" d="M 40.5,87.5 C 34.5606,88.3505 29.5606,86.6838 25.5,82.5C 26.2613,81.6091 27.2613,80.9424 28.5,80.5C 33.637,80.704 37.9703,82.5373 41.5,86C 40.944,86.3826 40.6107,86.8826 40.5,87.5 Z"/></g>
<g><path style="opacity:1" fill="#82561c" d="M 25.5,82.5 C 29.5606,86.6838 34.5606,88.3505 40.5,87.5C 42.1667,87.5 43.8333,87.5 45.5,87.5C 48.0593,87.1984 50.3926,87.5318 52.5,88.5C 49.3583,88.8493 46.025,89.0159 42.5,89C 43.056,89.3826 43.3893,89.8826 43.5,90.5C 34.3553,90.2409 26.6886,86.9075 20.5,80.5C 23.8166,77.3184 25.4833,77.9851 25.5,82.5 Z"/></g>
<g><path style="opacity:1" fill="#70592d" d="M 55.5,90.5 C 55.5,89.1667 54.8333,88.5 53.5,88.5C 56.4853,86.745 58.9853,84.4117 61,81.5C 61.1506,84.6719 59.6506,86.8385 56.5,88C 60.9612,87.3984 65.2945,86.3984 69.5,85C 65.1921,87.7438 60.5254,89.5771 55.5,90.5 Z"/></g>
<g><path style="opacity:1" fill="#e1d088" d="M 52.5,88.5 C 52.8333,88.5 53.1667,88.5 53.5,88.5C 54.8333,88.5 55.5,89.1667 55.5,90.5C 51.5,90.5 47.5,90.5 43.5,90.5C 43.3893,89.8826 43.056,89.3826 42.5,89C 46.025,89.0159 49.3583,88.8493 52.5,88.5 Z"/></g>
</svg>
