<?xml version="1.0" encoding="UTF-8"?>
<!DOCTYPE svg PUBLIC "-//W3C//DTD SVG 1.1//EN" "http://www.w3.org/Graphics/SVG/1.1/DTD/svg11.dtd">
<svg xmlns="http://www.w3.org/2000/svg" version="1.1" width="96px" height="96px" style="shape-rendering:geometricPrecision; text-rendering:geometricPrecision; image-rendering:optimizeQuality; fill-rule:evenodd; clip-rule:evenodd" xmlns:xlink="http://www.w3.org/1999/xlink">
<g><path style="opacity:0.998" fill="#3c89f7" d="M 31.5,25.5 C 29.9826,25.4894 28.8159,24.8228 28,23.5C 26.2912,20.5815 24.4579,17.7482 22.5,15C 23.999,14.1618 24.3324,13.3285 23.5,12.5C 30.9399,5.8006 39.6066,2.46726 49.5,2.5C 50.6103,7.11134 50.7769,11.778 50,16.5C 42.9908,17.8851 36.8242,20.8851 31.5,25.5 Z"/></g>
<g><path style="opacity:0.996" fill="#eb568c" d="M 86.5,27.5 C 81.4434,30.3548 76.7767,33.6882 72.5,37.5C 72.7101,32.5844 71.2101,28.2511 68,24.5C 63.0883,20.7118 57.755,17.7118 52,15.5C 51.0044,10.7712 51.5044,6.2712 53.5,2C 69.233,4.21797 80.233,12.718 86.5,27.5 Z"/></g>
<g><path style="opacity:0.997" fill="#357af6" d="M 23.5,12.5 C 24.3324,13.3285 23.999,14.1618 22.5,15C 24.4579,17.7482 26.2912,20.5815 28,23.5C 28.8159,24.8228 29.9826,25.4894 31.5,25.5C 23.3351,33.5039 20.5018,43.1706 23,54.5C 27.9079,67.0731 36.9079,75.0731 50,78.5C 50.6667,82.8333 50.6667,87.1667 50,91.5C 48.5822,93.3632 46.7489,93.8632 44.5,93C 24.2344,86.0729 11.7344,72.2395 7,51.5C 5.93213,35.6445 11.4321,22.6445 23.5,12.5 Z"/></g>
<g><path style="opacity:0.995" fill="#eb517a" d="M 86.5,27.5 C 90.6048,48.1204 82.9381,62.6204 63.5,71C 51.8104,74.4667 48.1437,70.3001 52.5,58.5C 61.514,56.64 68.014,51.64 72,43.5C 72.4955,41.5273 72.6621,39.5273 72.5,37.5C 76.7767,33.6882 81.4434,30.3548 86.5,27.5 Z"/></g>
<g><path style="opacity:1" fill="#eb5890" d="M 67.5,79.5 C 66.6773,82.977 66.1773,86.6437 66,90.5C 65.8214,87.4465 65.3214,84.4465 64.5,81.5C 60.9934,83.754 57.3267,85.754 53.5,87.5C 52.5159,84.5719 52.1826,81.5719 52.5,78.5C 56.9811,77.3516 61.6478,77.1849 66.5,78C 67.056,78.3826 67.3893,78.8826 67.5,79.5 Z"/></g>
<g><path style="opacity:1" fill="#ee5280" d="M 52.5,78.5 C 52.1826,81.5719 52.5159,84.5719 53.5,87.5C 57.3267,85.754 60.9934,83.754 64.5,81.5C 65.3214,84.4465 65.8214,87.4465 66,90.5C 66.1773,86.6437 66.6773,82.977 67.5,79.5C 67.7719,83.9017 67.4386,88.2351 66.5,92.5C 64.1667,92.8333 61.8333,93.1667 59.5,93.5C 56.7125,93.4262 54.2125,92.7595 52,91.5C 51.1864,86.9796 51.353,82.6463 52.5,78.5 Z"/></g>
</svg>
