<?xml version="1.0" encoding="UTF-8"?>
<!DOCTYPE svg PUBLIC "-//W3C//DTD SVG 1.1//EN" "http://www.w3.org/Graphics/SVG/1.1/DTD/svg11.dtd">
<svg xmlns="http://www.w3.org/2000/svg" version="1.1" width="96px" height="96px" style="shape-rendering:geometricPrecision; text-rendering:geometricPrecision; image-rendering:optimizeQuality; fill-rule:evenodd; clip-rule:evenodd" xmlns:xlink="http://www.w3.org/1999/xlink">
<g><path style="opacity:0.797" fill="#a0c6fc" d="M 45.5,-0.5 C 46.8333,-0.5 48.1667,-0.5 49.5,-0.5C 52.359,2.61688 55.6923,5.28354 59.5,7.5C 55.7016,8.48342 51.7016,8.81675 47.5,8.5C 47.1667,-0.833333 46.8333,-0.833333 46.5,8.5C 42.5,8.5 38.5,8.5 34.5,8.5C 38.3504,5.73919 42.0171,2.73919 45.5,-0.5 Z"/></g>
<g><path style="opacity:0.886" fill="#a3c5fa" d="M 59.5,7.5 C 60.8333,8.16667 61.8333,9.16667 62.5,10.5C 57.5,10.5 52.5,10.5 47.5,10.5C 47.5,9.83333 47.5,9.16667 47.5,8.5C 51.7016,8.81675 55.7016,8.48342 59.5,7.5 Z"/></g>
<g><path style="opacity:0.942" fill="#a3c5fa" d="M 34.5,8.5 C 38.5,8.5 42.5,8.5 46.5,8.5C 46.5,9.16667 46.5,9.83333 46.5,10.5C 41.6367,10.8195 36.97,10.4861 32.5,9.5C 32.8417,8.66175 33.5084,8.32842 34.5,8.5 Z"/></g>
<g><path style="opacity:0.962" fill="#a6c3f6" d="M 32.5,9.5 C 36.97,10.4861 41.6367,10.8195 46.5,10.5C 46.5,12.5 46.5,14.5 46.5,16.5C 38.6484,16.8254 30.9818,16.492 23.5,15.5C 26.5,13.5 29.5,11.5 32.5,9.5 Z"/></g>
<g><path style="opacity:0.938" fill="#a6c3f6" d="M 47.5,10.5 C 52.5,10.5 57.5,10.5 62.5,10.5C 66.0246,11.7589 69.0246,13.7589 71.5,16.5C 63.5,16.5 55.5,16.5 47.5,16.5C 47.5,14.5 47.5,12.5 47.5,10.5 Z"/></g>
<g><path style="opacity:0.895" fill="#a8c2f4" d="M 23.5,15.5 C 30.9818,16.492 38.6484,16.8254 46.5,16.5C 46.5,16.8333 46.5,17.1667 46.5,17.5C 42.9581,17.1872 39.6248,17.5206 36.5,18.5C 31.1254,18.8282 25.7921,18.4948 20.5,17.5C 21.3569,16.5748 22.3569,15.9081 23.5,15.5 Z"/></g>
<g><path style="opacity:0.874" fill="#a8c2f4" d="M 47.5,17.5 C 47.5,17.1667 47.5,16.8333 47.5,16.5C 55.5,16.5 63.5,16.5 71.5,16.5C 72.3764,16.3691 73.0431,16.7025 73.5,17.5C 68.2079,18.4948 62.8746,18.8282 57.5,18.5C 54.3752,17.5206 51.0419,17.1872 47.5,17.5 Z"/></g>
<g><path style="opacity:0.918" fill="#abc2f1" d="M 46.5,17.5 C 46.5,18.8333 46.5,20.1667 46.5,21.5C 43.1667,21.5 39.8333,21.5 36.5,21.5C 36.5,20.5 36.5,19.5 36.5,18.5C 39.6248,17.5206 42.9581,17.1872 46.5,17.5 Z"/></g>
<g><path style="opacity:0.909" fill="#abc2f1" d="M 47.5,17.5 C 51.0419,17.1872 54.3752,17.5206 57.5,18.5C 57.5,19.5 57.5,20.5 57.5,21.5C 54.1667,21.5 50.8333,21.5 47.5,21.5C 47.5,20.1667 47.5,18.8333 47.5,17.5 Z"/></g>
<g><path style="opacity:0.987" fill="#adc1ef" d="M -0.5,20.5 C 11.5,20.5 23.5,20.5 35.5,20.5C 35.5,21.5 35.5,22.5 35.5,23.5C 23.8333,23.5 12.1667,23.5 0.5,23.5C 0.5,22.8333 0.166667,22.5 -0.5,22.5C -0.5,21.8333 -0.5,21.1667 -0.5,20.5 Z"/></g>
<g><path style="opacity:0.987" fill="#adc1ef" d="M 95.5,20.5 C 95.5,21.1667 95.5,21.8333 95.5,22.5C 94.8333,22.5 94.5,22.8333 94.5,23.5C 82.8333,23.5 71.1667,23.5 59.5,23.5C 59.5,22.5 59.5,21.5 59.5,20.5C 71.5,20.5 83.5,20.5 95.5,20.5 Z"/></g>
<g><path style="opacity:0.911" fill="#aec1ee" d="M 36.5,21.5 C 39.8333,21.5 43.1667,21.5 46.5,21.5C 46.5,22.1667 46.5,22.8333 46.5,23.5C 43.1667,23.5 39.8333,23.5 36.5,23.5C 36.5,22.8333 36.5,22.1667 36.5,21.5 Z"/></g>
<g><path style="opacity:0.908" fill="#aec1ee" d="M 47.5,21.5 C 50.8333,21.5 54.1667,21.5 57.5,21.5C 57.5,22.1667 57.5,22.8333 57.5,23.5C 54.1667,23.5 50.8333,23.5 47.5,23.5C 47.5,22.8333 47.5,22.1667 47.5,21.5 Z"/></g>
<g><path style="opacity:0.973" fill="#b1bfea" d="M 0.5,23.5 C 12.1667,23.5 23.8333,23.5 35.5,23.5C 35.5,25.5 35.5,27.5 35.5,29.5C 25.1667,29.5 14.8333,29.5 4.5,29.5C 2.80789,27.7952 1.47456,25.7952 0.5,23.5 Z"/></g>
<g><path style="opacity:0.911" fill="#b1bfea" d="M 36.5,23.5 C 39.8333,23.5 43.1667,23.5 46.5,23.5C 46.5,25.5 46.5,27.5 46.5,29.5C 43.1667,29.5 39.8333,29.5 36.5,29.5C 36.5,27.5 36.5,25.5 36.5,23.5 Z"/></g>
<g><path style="opacity:0.908" fill="#b1bfea" d="M 47.5,23.5 C 50.8333,23.5 54.1667,23.5 57.5,23.5C 57.5,25.5 57.5,27.5 57.5,29.5C 54.1667,29.5 50.8333,29.5 47.5,29.5C 47.5,27.5 47.5,25.5 47.5,23.5 Z"/></g>
<g><path style="opacity:0.973" fill="#b1bfea" d="M 59.5,23.5 C 71.1667,23.5 82.8333,23.5 94.5,23.5C 93.5254,25.7952 92.1921,27.7952 90.5,29.5C 80.1667,29.5 69.8333,29.5 59.5,29.5C 59.5,27.5 59.5,25.5 59.5,23.5 Z"/></g>
<g><path style="opacity:0.972" fill="#b8bde4" d="M 4.5,29.5 C 14.8333,29.5 25.1667,29.5 35.5,29.5C 35.5,31.5 35.5,33.5 35.5,35.5C 26.5,35.5 17.5,35.5 8.5,35.5C 6.68403,33.8816 5.3507,31.8816 4.5,29.5 Z"/></g>
<g><path style="opacity:0.911" fill="#b8bde4" d="M 36.5,29.5 C 39.8333,29.5 43.1667,29.5 46.5,29.5C 46.5,31.5 46.5,33.5 46.5,35.5C 43.1667,35.5 39.8333,35.5 36.5,35.5C 36.5,33.5 36.5,31.5 36.5,29.5 Z"/></g>
<g><path style="opacity:0.908" fill="#b8bde4" d="M 47.5,29.5 C 50.8333,29.5 54.1667,29.5 57.5,29.5C 57.5,31.5 57.5,33.5 57.5,35.5C 54.1667,35.5 50.8333,35.5 47.5,35.5C 47.5,33.5 47.5,31.5 47.5,29.5 Z"/></g>
<g><path style="opacity:0.972" fill="#b8bde4" d="M 59.5,29.5 C 69.8333,29.5 80.1667,29.5 90.5,29.5C 89.6493,31.8816 88.316,33.8816 86.5,35.5C 77.5,35.5 68.5,35.5 59.5,35.5C 59.5,33.5 59.5,31.5 59.5,29.5 Z"/></g>
<g><path style="opacity:0.958" fill="#bcbbe0" d="M 8.5,35.5 C 17.5,35.5 26.5,35.5 35.5,35.5C 35.5,36.1667 35.5,36.8333 35.5,37.5C 26.8333,37.5 18.1667,37.5 9.5,37.5C 8.66175,37.1583 8.32842,36.4916 8.5,35.5 Z"/></g>
<g><path style="opacity:0.911" fill="#bcbbe0" d="M 36.5,35.5 C 39.8333,35.5 43.1667,35.5 46.5,35.5C 46.5,36.1667 46.5,36.8333 46.5,37.5C 43.1667,37.5 39.8333,37.5 36.5,37.5C 36.5,36.8333 36.5,36.1667 36.5,35.5 Z"/></g>
<g><path style="opacity:0.908" fill="#bcbbe0" d="M 47.5,35.5 C 50.8333,35.5 54.1667,35.5 57.5,35.5C 57.5,36.1667 57.5,36.8333 57.5,37.5C 54.1667,37.5 50.8333,37.5 47.5,37.5C 47.5,36.8333 47.5,36.1667 47.5,35.5 Z"/></g>
<g><path style="opacity:0.958" fill="#bcbbe0" d="M 59.5,35.5 C 68.5,35.5 77.5,35.5 86.5,35.5C 86.6716,36.4916 86.3382,37.1583 85.5,37.5C 76.8333,37.5 68.1667,37.5 59.5,37.5C 59.5,36.8333 59.5,36.1667 59.5,35.5 Z"/></g>
<g><path style="opacity:0.972" fill="#bfbadc" d="M 9.5,37.5 C 18.1667,37.5 26.8333,37.5 35.5,37.5C 35.5,38.8333 35.5,40.1667 35.5,41.5C 27.5,41.5 19.5,41.5 11.5,41.5C 10.8333,40.1667 10.1667,38.8333 9.5,37.5 Z"/></g>
<g><path style="opacity:0.911" fill="#bfbadc" d="M 36.5,37.5 C 39.8333,37.5 43.1667,37.5 46.5,37.5C 46.5,38.8333 46.5,40.1667 46.5,41.5C 43.1667,41.5 39.8333,41.5 36.5,41.5C 36.5,40.1667 36.5,38.8333 36.5,37.5 Z"/></g>
<g><path style="opacity:0.908" fill="#bfbadc" d="M 47.5,37.5 C 50.8333,37.5 54.1667,37.5 57.5,37.5C 57.5,38.8333 57.5,40.1667 57.5,41.5C 54.1667,41.5 50.8333,41.5 47.5,41.5C 47.5,40.1667 47.5,38.8333 47.5,37.5 Z"/></g>
<g><path style="opacity:0.972" fill="#bfbadc" d="M 59.5,37.5 C 68.1667,37.5 76.8333,37.5 85.5,37.5C 84.8333,38.8333 84.1667,40.1667 83.5,41.5C 75.5,41.5 67.5,41.5 59.5,41.5C 59.5,40.1667 59.5,38.8333 59.5,37.5 Z"/></g>
<g><path style="opacity:0.959" fill="#c4b9d7" d="M 11.5,41.5 C 19.5,41.5 27.5,41.5 35.5,41.5C 35.5,43.1667 35.5,44.8333 35.5,46.5C 28.8333,46.5 22.1667,46.5 15.5,46.5C 13.9373,45.0552 12.604,43.3885 11.5,41.5 Z"/></g>
<g><path style="opacity:0.911" fill="#c5b9d7" d="M 36.5,41.5 C 39.8333,41.5 43.1667,41.5 46.5,41.5C 46.5,43.1667 46.5,44.8333 46.5,46.5C 43.1667,46.5 39.8333,46.5 36.5,46.5C 36.5,44.8333 36.5,43.1667 36.5,41.5 Z"/></g>
<g><path style="opacity:0.908" fill="#c5b9d7" d="M 47.5,41.5 C 50.8333,41.5 54.1667,41.5 57.5,41.5C 57.5,43.1667 57.5,44.8333 57.5,46.5C 54.1667,46.5 50.8333,46.5 47.5,46.5C 47.5,44.8333 47.5,43.1667 47.5,41.5 Z"/></g>
<g><path style="opacity:0.959" fill="#c4b9d7" d="M 59.5,41.5 C 67.5,41.5 75.5,41.5 83.5,41.5C 82.396,43.3885 81.0627,45.0552 79.5,46.5C 72.8333,46.5 66.1667,46.5 59.5,46.5C 59.5,44.8333 59.5,43.1667 59.5,41.5 Z"/></g>
<g><path style="opacity:0.957" fill="#cbb6d1" d="M 15.5,46.5 C 22.1667,46.5 28.8333,46.5 35.5,46.5C 35.5,48.5 35.5,50.5 35.5,52.5C 29.8333,52.5 24.1667,52.5 18.5,52.5C 16.9752,50.7837 15.9752,48.7837 15.5,46.5 Z"/></g>
<g><path style="opacity:0.911" fill="#cbb6d0" d="M 36.5,46.5 C 39.8333,46.5 43.1667,46.5 46.5,46.5C 46.5,48.5 46.5,50.5 46.5,52.5C 43.1667,52.5 39.8333,52.5 36.5,52.5C 36.5,50.5 36.5,48.5 36.5,46.5 Z"/></g>
<g><path style="opacity:0.908" fill="#cbb6d0" d="M 47.5,46.5 C 50.8333,46.5 54.1667,46.5 57.5,46.5C 57.5,48.5 57.5,50.5 57.5,52.5C 54.1667,52.5 50.8333,52.5 47.5,52.5C 47.5,50.5 47.5,48.5 47.5,46.5 Z"/></g>
<g><path style="opacity:0.957" fill="#cbb6d1" d="M 59.5,46.5 C 66.1667,46.5 72.8333,46.5 79.5,46.5C 79.0248,48.7837 78.0248,50.7837 76.5,52.5C 70.8333,52.5 65.1667,52.5 59.5,52.5C 59.5,50.5 59.5,48.5 59.5,46.5 Z"/></g>
<g><path style="opacity:0.937" fill="#d1b4cb" d="M 18.5,52.5 C 24.1667,52.5 29.8333,52.5 35.5,52.5C 35.5,54.1667 35.5,55.8333 35.5,57.5C 30.9677,57.1818 26.6344,57.5151 22.5,58.5C 21.1798,56.5368 19.8465,54.5368 18.5,52.5 Z"/></g>
<g><path style="opacity:0.911" fill="#d1b4ca" d="M 36.5,52.5 C 39.8333,52.5 43.1667,52.5 46.5,52.5C 46.5,54.1667 46.5,55.8333 46.5,57.5C 43.1667,57.5 39.8333,57.5 36.5,57.5C 36.5,55.8333 36.5,54.1667 36.5,52.5 Z"/></g>
<g><path style="opacity:0.908" fill="#d1b4ca" d="M 47.5,52.5 C 50.8333,52.5 54.1667,52.5 57.5,52.5C 57.5,54.1667 57.5,55.8333 57.5,57.5C 54.1667,57.5 50.8333,57.5 47.5,57.5C 47.5,55.8333 47.5,54.1667 47.5,52.5 Z"/></g>
<g><path style="opacity:0.937" fill="#d1b4cb" d="M 59.5,52.5 C 65.1667,52.5 70.8333,52.5 76.5,52.5C 75.1535,54.5368 73.8202,56.5368 72.5,58.5C 68.3656,57.5151 64.0323,57.1818 59.5,57.5C 59.5,55.8333 59.5,54.1667 59.5,52.5 Z"/></g>
<g><path style="opacity:0.941" fill="#d7b2c5" d="M 35.5,57.5 C 35.5,59.1667 35.5,60.8333 35.5,62.5C 32.1667,62.5 28.8333,62.5 25.5,62.5C 24.0256,61.5637 23.0256,60.2303 22.5,58.5C 26.6344,57.5151 30.9677,57.1818 35.5,57.5 Z"/></g>
<g><path style="opacity:0.911" fill="#d8b2c4" d="M 36.5,57.5 C 39.8333,57.5 43.1667,57.5 46.5,57.5C 46.5,59.5 46.5,61.5 46.5,63.5C 43.1667,63.5 39.8333,63.5 36.5,63.5C 36.5,61.5 36.5,59.5 36.5,57.5 Z"/></g>
<g><path style="opacity:0.908" fill="#d8b2c4" d="M 47.5,57.5 C 50.8333,57.5 54.1667,57.5 57.5,57.5C 57.5,59.5 57.5,61.5 57.5,63.5C 54.1667,63.5 50.8333,63.5 47.5,63.5C 47.5,61.5 47.5,59.5 47.5,57.5 Z"/></g>
<g><path style="opacity:0.941" fill="#d7b2c5" d="M 59.5,57.5 C 64.0323,57.1818 68.3656,57.5151 72.5,58.5C 71.9744,60.2303 70.9744,61.5637 69.5,62.5C 66.1667,62.5 62.8333,62.5 59.5,62.5C 59.5,60.8333 59.5,59.1667 59.5,57.5 Z"/></g>
<g><path style="opacity:0.899" fill="#ddb0bf" d="M 25.5,62.5 C 28.8333,62.5 32.1667,62.5 35.5,62.5C 35.5,64.5 35.5,66.5 35.5,68.5C 33.1667,68.5 30.8333,68.5 28.5,68.5C 26.9752,66.7837 25.9752,64.7837 25.5,62.5 Z"/></g>
<g><path style="opacity:0.911" fill="#deafbe" d="M 36.5,63.5 C 39.8333,63.5 43.1667,63.5 46.5,63.5C 46.5,65.1667 46.5,66.8333 46.5,68.5C 43.1667,68.5 39.8333,68.5 36.5,68.5C 36.5,66.8333 36.5,65.1667 36.5,63.5 Z"/></g>
<g><path style="opacity:0.908" fill="#deafbe" d="M 47.5,63.5 C 50.8333,63.5 54.1667,63.5 57.5,63.5C 57.5,65.1667 57.5,66.8333 57.5,68.5C 54.1667,68.5 50.8333,68.5 47.5,68.5C 47.5,66.8333 47.5,65.1667 47.5,63.5 Z"/></g>
<g><path style="opacity:0.899" fill="#ddb0bf" d="M 59.5,62.5 C 62.8333,62.5 66.1667,62.5 69.5,62.5C 69.0248,64.7837 68.0248,66.7837 66.5,68.5C 64.1667,68.5 61.8333,68.5 59.5,68.5C 59.5,66.5 59.5,64.5 59.5,62.5 Z"/></g>
<g><path style="opacity:0.869" fill="#e1aebb" d="M 28.5,68.5 C 30.8333,68.5 33.1667,68.5 35.5,68.5C 35.5,69.1667 35.5,69.8333 35.5,70.5C 33.8333,70.5 32.1667,70.5 30.5,70.5C 29.5,70.1667 28.8333,69.5 28.5,68.5 Z"/></g>
<g><path style="opacity:0.911" fill="#e1afbb" d="M 36.5,68.5 C 39.8333,68.5 43.1667,68.5 46.5,68.5C 46.5,69.1667 46.5,69.8333 46.5,70.5C 43.1667,70.5 39.8333,70.5 36.5,70.5C 36.5,69.8333 36.5,69.1667 36.5,68.5 Z"/></g>
<g><path style="opacity:0.908" fill="#e1afbb" d="M 47.5,68.5 C 50.8333,68.5 54.1667,68.5 57.5,68.5C 57.5,69.1667 57.5,69.8333 57.5,70.5C 54.1667,70.5 50.8333,70.5 47.5,70.5C 47.5,69.8333 47.5,69.1667 47.5,68.5 Z"/></g>
<g><path style="opacity:0.869" fill="#e1aebb" d="M 59.5,68.5 C 61.8333,68.5 64.1667,68.5 66.5,68.5C 66.1667,69.5 65.5,70.1667 64.5,70.5C 62.8333,70.5 61.1667,70.5 59.5,70.5C 59.5,69.8333 59.5,69.1667 59.5,68.5 Z"/></g>
<g><path style="opacity:0.799" fill="#e4adb7" d="M 30.5,70.5 C 32.1667,70.5 33.8333,70.5 35.5,70.5C 35.5,72.1667 35.5,73.8333 35.5,75.5C 34.8333,75.5 34.1667,75.5 33.5,75.5C 31.7497,74.3406 30.7497,72.674 30.5,70.5 Z"/></g>
<g><path style="opacity:0.911" fill="#e5adb7" d="M 36.5,70.5 C 39.8333,70.5 43.1667,70.5 46.5,70.5C 46.5,72.1667 46.5,73.8333 46.5,75.5C 43.1667,75.5 39.8333,75.5 36.5,75.5C 36.5,73.8333 36.5,72.1667 36.5,70.5 Z"/></g>
<g><path style="opacity:0.908" fill="#e5adb7" d="M 47.5,70.5 C 50.8333,70.5 54.1667,70.5 57.5,70.5C 57.5,72.1667 57.5,73.8333 57.5,75.5C 54.1667,75.5 50.8333,75.5 47.5,75.5C 47.5,73.8333 47.5,72.1667 47.5,70.5 Z"/></g>
<g><path style="opacity:0.799" fill="#e4adb7" d="M 59.5,70.5 C 61.1667,70.5 62.8333,70.5 64.5,70.5C 64.2503,72.674 63.2503,74.3406 61.5,75.5C 60.8333,75.5 60.1667,75.5 59.5,75.5C 59.5,73.8333 59.5,72.1667 59.5,70.5 Z"/></g>
<g><path style="opacity:0.877" fill="#e9abb2" d="M 33.5,75.5 C 34.1667,75.5 34.8333,75.5 35.5,75.5C 35.8333,76.8333 36.1667,76.8333 36.5,75.5C 39.8333,75.5 43.1667,75.5 46.5,75.5C 46.5,77.8333 46.5,80.1667 46.5,82.5C 43.8333,82.5 41.1667,82.5 38.5,82.5C 36.7762,80.1251 35.1095,77.7918 33.5,75.5 Z"/></g>
<g><path style="opacity:0.895" fill="#eaabb2" d="M 47.5,75.5 C 50.8333,75.5 54.1667,75.5 57.5,75.5C 57.6621,77.5273 57.4955,79.5273 57,81.5C 56.6174,82.056 56.1174,82.3893 55.5,82.5C 52.8333,82.5 50.1667,82.5 47.5,82.5C 47.5,80.1667 47.5,77.8333 47.5,75.5 Z"/></g>
<g><path style="opacity:0.439" fill="#e8acb3" d="M 59.5,75.5 C 60.1667,75.5 60.8333,75.5 61.5,75.5C 61.5852,76.9953 60.9185,77.9953 59.5,78.5C 58.4376,77.5754 58.4376,76.5754 59.5,75.5 Z"/></g>
<g><path style="opacity:0.842" fill="#efa9ac" d="M 38.5,82.5 C 41.1667,82.5 43.8333,82.5 46.5,82.5C 46.5,85.1667 46.5,87.8333 46.5,90.5C 45.5084,90.3284 44.8417,90.6618 44.5,91.5C 42.2651,88.7089 40.2651,85.7089 38.5,82.5 Z"/></g>
<g><path style="opacity:0.797" fill="#efa9ac" d="M 47.5,82.5 C 50.1667,82.5 52.8333,82.5 55.5,82.5C 54.3307,85.5113 52.664,88.178 50.5,90.5C 49.5,90.5 48.5,90.5 47.5,90.5C 47.5,87.8333 47.5,85.1667 47.5,82.5 Z"/></g>
<g><path style="opacity:0.325" fill="#f3a8a8" d="M 46.5,90.5 C 46.8333,93.1667 47.1667,93.1667 47.5,90.5C 48.5,90.5 49.5,90.5 50.5,90.5C 49.0853,95.2219 47.0853,95.5552 44.5,91.5C 44.8417,90.6618 45.5084,90.3284 46.5,90.5 Z"/></g>
</svg>
