<?xml version="1.0" encoding="UTF-8"?>
<!DOCTYPE svg PUBLIC "-//W3C//DTD SVG 1.1//EN" "http://www.w3.org/Graphics/SVG/1.1/DTD/svg11.dtd">
<svg xmlns="http://www.w3.org/2000/svg" version="1.1" width="96px" height="96px" style="shape-rendering:geometricPrecision; text-rendering:geometricPrecision; image-rendering:optimizeQuality; fill-rule:evenodd; clip-rule:evenodd" xmlns:xlink="http://www.w3.org/1999/xlink">
<g><path style="opacity:1" fill="#e2e0d6" d="M 69.5,6.5 C 67.6214,6.39318 67.2881,6.89318 68.5,8C 54.5,8.66667 40.5,8.66667 26.5,8C 27.7119,6.89318 27.3786,6.39318 25.5,6.5C 35.0085,0.844273 45.3418,-0.989061 56.5,1C 61.2202,2.17624 65.5535,4.00957 69.5,6.5 Z"/></g>
<g><path style="opacity:1" fill="#dbdbd2" d="M 25.5,6.5 C 27.3786,6.39318 27.7119,6.89318 26.5,8C 40.5,8.66667 54.5,8.66667 68.5,8C 67.2881,6.89318 67.6214,6.39318 69.5,6.5C 75.6592,8.98649 80.6592,12.9865 84.5,18.5C 81.544,19.1371 78.544,19.6371 75.5,20C 74.8288,20.9862 74.8288,22.1529 75.5,23.5C 73.8333,22.5 72.5,21.1667 71.5,19.5C 64.8521,12.7792 56.6855,9.44591 47,9.5C 44.102,9.63678 41.2686,10.1368 38.5,11C 39.0944,11.4643 39.7611,11.631 40.5,11.5C 34.3176,12.9262 28.9843,15.9262 24.5,20.5C 23.5041,20.4142 22.6708,20.7476 22,21.5C 20.2502,23.7343 18.7502,26.0676 17.5,28.5C 16.8333,28.8333 16.1667,29.1667 15.5,29.5C 16.0507,26.7332 17.3841,24.3999 19.5,22.5C 17.173,22.0815 14.5064,21.4149 11.5,20.5C 12.2634,19.2807 13.2634,18.2807 14.5,17.5C 13.7666,16.913 12.7666,16.913 11.5,17.5C 15.0693,12.3884 19.736,8.72174 25.5,6.5 Z"/></g>
<g><path style="opacity:1" fill="#e8eae7" d="M 71.5,19.5 C 70.8333,19.5 70.1667,19.5 69.5,19.5C 66.525,16.3389 62.8583,14.1723 58.5,13C 52.5771,11.6959 46.5771,11.1959 40.5,11.5C 39.7611,11.631 39.0944,11.4643 38.5,11C 41.2686,10.1368 44.102,9.63678 47,9.5C 56.6855,9.44591 64.8521,12.7792 71.5,19.5 Z"/></g>
<g><path style="opacity:1" fill="#8fa0a2" d="M 40.5,11.5 C 46.5771,11.1959 52.5771,11.6959 58.5,13C 62.8583,14.1723 66.525,16.3389 69.5,19.5C 54.3691,20.4732 39.3691,20.8066 24.5,20.5C 28.9843,15.9262 34.3176,12.9262 40.5,11.5 Z"/></g>
<g><path style="opacity:1" fill="#ced1c9" d="M 15.5,29.5 C 14.8333,29.8333 14.1667,30.1667 13.5,30.5C 10.0575,31.3512 6.72422,31.6845 3.5,31.5C 5.14337,26.2091 7.81004,21.5424 11.5,17.5C 12.7666,16.913 13.7666,16.913 14.5,17.5C 13.2634,18.2807 12.2634,19.2807 11.5,20.5C 14.5064,21.4149 17.173,22.0815 19.5,22.5C 17.3841,24.3999 16.0507,26.7332 15.5,29.5 Z"/></g>
<g><path style="opacity:1" fill="#98a8a8" d="M 69.5,19.5 C 70.1667,19.5 70.8333,19.5 71.5,19.5C 72.5,21.1667 73.8333,22.5 75.5,23.5C 75.3284,24.4916 75.6618,25.1583 76.5,25.5C 77.1098,26.391 77.4431,27.391 77.5,28.5C 76.7109,28.2172 76.0442,27.7172 75.5,27C 57.2598,26.8264 39.0932,26.3264 21,25.5C 19.9609,26.7101 18.7942,27.7101 17.5,28.5C 18.7502,26.0676 20.2502,23.7343 22,21.5C 22.6708,20.7476 23.5041,20.4142 24.5,20.5C 39.3691,20.8066 54.3691,20.4732 69.5,19.5 Z"/></g>
<g><path style="opacity:1" fill="#a1aeae" d="M 77.5,28.5 C 79.873,30.5792 81.2064,33.2459 81.5,36.5C 81.5654,36.9382 81.3988,37.2716 81,37.5C 76.7543,36.2006 72.2543,35.5339 67.5,35.5C 63.1667,35.6667 58.8333,35.8333 54.5,36C 55.7577,37.7409 56.7577,39.5742 57.5,41.5C 54.1747,37.5309 50.8414,33.5309 47.5,29.5C 44.9275,32.3104 42.5942,35.3104 40.5,38.5C 39.7784,38.0825 39.2784,37.4158 39,36.5C 30.125,37.758 21.625,37.758 13.5,36.5C 14.1667,34.1667 14.8333,31.8333 15.5,29.5C 16.1667,29.1667 16.8333,28.8333 17.5,28.5C 18.7942,27.7101 19.9609,26.7101 21,25.5C 39.0932,26.3264 57.2598,26.8264 75.5,27C 76.0442,27.7172 76.7109,28.2172 77.5,28.5 Z"/></g>
<g><path style="opacity:1" fill="#ccd0c8" d="M 84.5,18.5 C 87.6088,22.3822 89.9421,26.7156 91.5,31.5C 88.2758,31.6845 84.9425,31.3512 81.5,30.5C 80.1964,29.0131 79.0298,27.3464 78,25.5C 77.31,24.2617 76.81,24.2617 76.5,25.5C 75.6618,25.1583 75.3284,24.4916 75.5,23.5C 74.8288,22.1529 74.8288,20.9862 75.5,20C 78.544,19.6371 81.544,19.1371 84.5,18.5 Z"/></g>
<g><path style="opacity:1" fill="#fbfbfb" d="M 57.5,41.5 C 58.7589,45.0246 60.7589,48.0246 63.5,50.5C 64.4151,52.7541 65.7484,54.7541 67.5,56.5C 65.2573,57.4742 62.924,57.8076 60.5,57.5C 56.6538,51.1381 52.3205,45.1381 47.5,39.5C 42.6795,45.1381 38.3462,51.1381 34.5,57.5C 32.076,57.8076 29.7427,57.4742 27.5,56.5C 29.6893,54.1133 31.3559,51.4466 32.5,48.5C 35.5162,45.4797 38.1829,42.1464 40.5,38.5C 42.5942,35.3104 44.9275,32.3104 47.5,29.5C 50.8414,33.5309 54.1747,37.5309 57.5,41.5 Z"/></g>
<g><path style="opacity:0.998" fill="#c0c6c1" d="M 13.5,30.5 C 12.6693,33.659 11.6693,36.659 10.5,39.5C 9.75147,40.531 9.0848,41.6976 8.5,43C 6.14096,43.2078 3.97429,43.3744 2,43.5C 1.50137,47.1516 1.3347,50.8183 1.5,54.5C -0.136478,46.7444 0.530188,39.0777 3.5,31.5C 6.72422,31.6845 10.0575,31.3512 13.5,30.5 Z"/></g>
<g><path style="opacity:0.997" fill="#bfc5c0" d="M 81.5,30.5 C 84.9425,31.3512 88.2758,31.6845 91.5,31.5C 94.9617,40.5053 95.295,49.5053 92.5,58.5C 93.1143,54.8648 93.4476,51.1981 93.5,47.5C 91.1667,47.5 88.8333,47.5 86.5,47.5C 86.6567,46.1266 86.49,44.7932 86,43.5C 85.8091,45.7078 85.3091,47.7078 84.5,49.5C 84.8774,42.9303 83.8774,36.597 81.5,30.5 Z"/></g>
<g><path style="opacity:1" fill="#b0bab7" d="M 13.5,36.5 C 21.625,37.758 30.125,37.758 39,36.5C 39.2784,37.4158 39.7784,38.0825 40.5,38.5C 38.1829,42.1464 35.5162,45.4797 32.5,48.5C 32.4142,47.5041 32.7476,46.6708 33.5,46C 26.8333,45.3333 20.1667,45.3333 13.5,46C 12.9558,46.7172 12.2891,47.2172 11.5,47.5C 11.4299,43.5752 12.0966,39.9085 13.5,36.5 Z"/></g>
<g><path style="opacity:1" fill="#b1bab7" d="M 81.5,36.5 C 83.1773,40.5448 83.8439,44.8781 83.5,49.5C 77.0871,47.2717 70.4204,46.9384 63.5,48.5C 64.5498,49.4288 64.5498,50.0954 63.5,50.5C 60.7589,48.0246 58.7589,45.0246 57.5,41.5C 56.7577,39.5742 55.7577,37.7409 54.5,36C 58.8333,35.8333 63.1667,35.6667 67.5,35.5C 72.2543,35.5339 76.7543,36.2006 81,37.5C 81.3988,37.2716 81.5654,36.9382 81.5,36.5 Z"/></g>
<g><path style="opacity:1" fill="#b7bfbb" d="M 10.5,39.5 C 10.5,43.5 10.5,47.5 10.5,51.5C 7.94551,52.388 5.27884,52.7214 2.5,52.5C 2.5,54.5 2.5,56.5 2.5,58.5C 1.56552,57.4324 1.23219,56.099 1.5,54.5C 1.3347,50.8183 1.50137,47.1516 2,43.5C 3.97429,43.3744 6.14096,43.2078 8.5,43C 9.0848,41.6976 9.75147,40.531 10.5,39.5 Z"/></g>
<g><path style="opacity:1" fill="#bac1bc" d="M 60.5,57.5 C 58.8073,56.5251 57.3073,55.1918 56,53.5C 50.3333,54.8333 44.6667,54.8333 39,53.5C 37.6927,55.1918 36.1927,56.5251 34.5,57.5C 38.3462,51.1381 42.6795,45.1381 47.5,39.5C 52.3205,45.1381 56.6538,51.1381 60.5,57.5 Z"/></g>
<g><path style="opacity:1" fill="#e9ebea" d="M 15.5,29.5 C 14.8333,31.8333 14.1667,34.1667 13.5,36.5C 12.0966,39.9085 11.4299,43.5752 11.5,47.5C 11.8738,52.3252 12.8738,56.9918 14.5,61.5C 15.4408,63.0495 16.1075,64.7162 16.5,66.5C 12.9582,62.2262 10.9582,57.2262 10.5,51.5C 10.5,47.5 10.5,43.5 10.5,39.5C 11.6693,36.659 12.6693,33.659 13.5,30.5C 14.1667,30.1667 14.8333,29.8333 15.5,29.5 Z"/></g>
<g><path style="opacity:1" fill="#c1c6c1" d="M 32.5,48.5 C 31.3559,51.4466 29.6893,54.1133 27.5,56.5C 29.7427,57.4742 32.076,57.8076 34.5,57.5C 36.1927,56.5251 37.6927,55.1918 39,53.5C 44.6667,54.8333 50.3333,54.8333 56,53.5C 57.3073,55.1918 58.8073,56.5251 60.5,57.5C 62.924,57.8076 65.2573,57.4742 67.5,56.5C 65.7484,54.7541 64.4151,52.7541 63.5,50.5C 64.5498,50.0954 64.5498,49.4288 63.5,48.5C 70.4204,46.9384 77.0871,47.2717 83.5,49.5C 83.1221,53.6781 82.1221,57.6781 80.5,61.5C 69.7258,60.1891 58.7258,59.5224 47.5,59.5C 36.2742,59.5224 25.2742,60.1891 14.5,61.5C 12.8738,56.9918 11.8738,52.3252 11.5,47.5C 12.2891,47.2172 12.9558,46.7172 13.5,46C 20.1667,45.3333 26.8333,45.3333 33.5,46C 32.7476,46.6708 32.4142,47.5041 32.5,48.5 Z"/></g>
<g><path style="opacity:1" fill="#aeb8b6" d="M 92.5,58.5 C 92.3104,61.855 91.3104,64.855 89.5,67.5C 89.5,65.8333 89.5,64.1667 89.5,62.5C 86.7892,62.8151 84.4559,62.1484 82.5,60.5C 83.9193,56.9852 84.586,53.3186 84.5,49.5C 85.3091,47.7078 85.8091,45.7078 86,43.5C 86.49,44.7932 86.6567,46.1266 86.5,47.5C 88.8333,47.5 91.1667,47.5 93.5,47.5C 93.4476,51.1981 93.1143,54.8648 92.5,58.5 Z"/></g>
<g><path style="opacity:1" fill="#e8ebe9" d="M 81.5,30.5 C 83.8774,36.597 84.8774,42.9303 84.5,49.5C 84.586,53.3186 83.9193,56.9852 82.5,60.5C 81.0869,63.6612 79.4203,66.6612 77.5,69.5C 76.6618,69.1583 76.3284,68.4916 76.5,67.5C 78.316,65.8816 79.6493,63.8816 80.5,61.5C 82.1221,57.6781 83.1221,53.6781 83.5,49.5C 83.8439,44.8781 83.1773,40.5448 81.5,36.5C 81.2064,33.2459 79.873,30.5792 77.5,28.5C 77.4431,27.391 77.1098,26.391 76.5,25.5C 76.81,24.2617 77.31,24.2617 78,25.5C 79.0298,27.3464 80.1964,29.0131 81.5,30.5 Z"/></g>
<g><path style="opacity:1" fill="#cbcec7" d="M 80.5,61.5 C 79.6493,63.8816 78.316,65.8816 76.5,67.5C 76.4142,66.5041 76.7476,65.6708 77.5,65C 57.5,64.3333 37.5,64.3333 17.5,65C 18.8398,67.1785 18.5065,67.6785 16.5,66.5C 16.1075,64.7162 15.4408,63.0495 14.5,61.5C 25.2742,60.1891 36.2742,59.5224 47.5,59.5C 58.7258,59.5224 69.7258,60.1891 80.5,61.5 Z"/></g>
<g><path style="opacity:1" fill="#a8b4b2" d="M 10.5,51.5 C 10.9582,57.2262 12.9582,62.2262 16.5,66.5C 16.5,66.8333 16.5,67.1667 16.5,67.5C 15.7784,67.9175 15.2784,68.5842 15,69.5C 12.5676,68.7071 10.2342,68.3737 8,68.5C 7.53566,69.0944 7.36899,69.7611 7.5,70.5C 4.68798,67.0868 3.02131,63.0868 2.5,58.5C 2.5,56.5 2.5,54.5 2.5,52.5C 5.27884,52.7214 7.94551,52.388 10.5,51.5 Z"/></g>
<g><path style="opacity:1" fill="#d1d3cc" d="M 76.5,67.5 C 76.3284,68.4916 76.6618,69.1583 77.5,69.5C 77.5,69.8333 77.5,70.1667 77.5,70.5C 76.8333,70.8333 76.1667,71.1667 75.5,71.5C 75.5654,71.0618 75.3988,70.7284 75,70.5C 74.2917,71.3805 73.4584,72.0472 72.5,72.5C 64.5278,71.1687 56.1945,70.502 47.5,70.5C 39.1667,70.6667 30.8333,70.8333 22.5,71C 23.4506,71.7175 23.6172,72.5509 23,73.5C 21.6927,71.8082 20.1927,70.4749 18.5,69.5C 17.5,69.1667 16.8333,68.5 16.5,67.5C 16.5,67.1667 16.5,66.8333 16.5,66.5C 18.5065,67.6785 18.8398,67.1785 17.5,65C 37.5,64.3333 57.5,64.3333 77.5,65C 76.7476,65.6708 76.4142,66.5041 76.5,67.5 Z"/></g>
<g><path style="opacity:1" fill="#9fadac" d="M 82.5,60.5 C 84.4559,62.1484 86.7892,62.8151 89.5,62.5C 89.5,64.1667 89.5,65.8333 89.5,67.5C 87.5998,71.7321 84.9331,75.3988 81.5,78.5C 78.6946,77.6805 75.6946,77.1805 72.5,77C 74.7899,75.2228 76.4566,73.0562 77.5,70.5C 77.5,70.1667 77.5,69.8333 77.5,69.5C 79.4203,66.6612 81.0869,63.6612 82.5,60.5 Z"/></g>
<g><path style="opacity:1" fill="#d8d9d1" d="M 18.5,69.5 C 20.1927,70.4749 21.6927,71.8082 23,73.5C 23.6172,72.5509 23.4506,71.7175 22.5,71C 30.8333,70.8333 39.1667,70.6667 47.5,70.5C 56.1945,70.502 64.5278,71.1687 72.5,72.5C 72.189,73.4778 71.5223,74.1445 70.5,74.5C 55.5448,73.3499 40.5448,73.1832 25.5,74C 26.056,74.3826 26.3893,74.8826 26.5,75.5C 25.8333,75.5 25.1667,75.5 24.5,75.5C 21.5,74.5 19.5,72.5 18.5,69.5 Z"/></g>
<g><path style="opacity:1" fill="#dfded5" d="M 75.5,71.5 C 70.103,77.5353 63.4363,81.5353 55.5,83.5C 50.0149,82.6728 44.3482,82.1728 38.5,82C 33.9901,80.5818 29.9901,78.4151 26.5,75.5C 26.3893,74.8826 26.056,74.3826 25.5,74C 40.5448,73.1832 55.5448,73.3499 70.5,74.5C 71.5223,74.1445 72.189,73.4778 72.5,72.5C 73.4584,72.0472 74.2917,71.3805 75,70.5C 75.3988,70.7284 75.5654,71.0618 75.5,71.5 Z"/></g>
<g><path style="opacity:1" fill="#96a6a7" d="M 16.5,67.5 C 16.8333,68.5 17.5,69.1667 18.5,69.5C 19.5,72.5 21.5,74.5 24.5,75.5C 28.0628,79.4467 32.3961,82.1134 37.5,83.5C 37.0618,83.4346 36.7284,83.6012 36.5,84C 38.5951,84.5556 38.7618,85.0556 37,85.5C 32.4187,84.0427 27.9187,84.2094 23.5,86C 24.056,86.3826 24.3893,86.8826 24.5,87.5C 17.1667,83.5 11.5,77.8333 7.5,70.5C 7.36899,69.7611 7.53566,69.0944 8,68.5C 10.2342,68.3737 12.5676,68.7071 15,69.5C 15.2784,68.5842 15.7784,67.9175 16.5,67.5 Z"/></g>
<g><path style="opacity:1" fill="#efeee9" d="M 24.5,75.5 C 25.1667,75.5 25.8333,75.5 26.5,75.5C 29.9901,78.4151 33.9901,80.5818 38.5,82C 44.3482,82.1728 50.0149,82.6728 55.5,83.5C 49.508,84.7742 43.508,84.7742 37.5,83.5C 32.3961,82.1134 28.0628,79.4467 24.5,75.5 Z"/></g>
<g><path style="opacity:0.98" fill="#8fa1a3" d="M 77.5,70.5 C 76.4566,73.0562 74.7899,75.2228 72.5,77C 75.6946,77.1805 78.6946,77.6805 81.5,78.5C 69.929,91.0812 55.5957,96.2478 38.5,94C 33.4798,92.4981 28.8131,90.3314 24.5,87.5C 24.3893,86.8826 24.056,86.3826 23.5,86C 27.9187,84.2094 32.4187,84.0427 37,85.5C 38.7618,85.0556 38.5951,84.5556 36.5,84C 36.7284,83.6012 37.0618,83.4346 37.5,83.5C 43.508,84.7742 49.508,84.7742 55.5,83.5C 63.4363,81.5353 70.103,77.5353 75.5,71.5C 76.1667,71.1667 76.8333,70.8333 77.5,70.5 Z"/></g>
</svg>
