<?xml version="1.0" encoding="UTF-8"?>
<!DOCTYPE svg PUBLIC "-//W3C//DTD SVG 1.1//EN" "http://www.w3.org/Graphics/SVG/1.1/DTD/svg11.dtd">
<svg xmlns="http://www.w3.org/2000/svg" version="1.1" width="96px" height="96px" style="shape-rendering:geometricPrecision; text-rendering:geometricPrecision; image-rendering:optimizeQuality; fill-rule:evenodd; clip-rule:evenodd" xmlns:xlink="http://www.w3.org/1999/xlink">
<g><path style="opacity:0.997" fill="#000101" d="M -0.5,-0.5 C 31.5,-0.5 63.5,-0.5 95.5,-0.5C 95.5,24.5 95.5,49.5 95.5,74.5C 94.6873,72.7392 93.6873,71.0725 92.5,69.5C 91.1667,67.5 89.5,65.8333 87.5,64.5C 83.375,61.6123 79.0416,60.9456 74.5,62.5C 68.1667,64.1667 64.1667,68.1667 62.5,74.5C 60.636,80.8086 62.3026,86.1419 67.5,90.5C 69.34,92.9145 71.6733,94.5812 74.5,95.5C 49.5,95.5 24.5,95.5 -0.5,95.5C -0.5,63.5 -0.5,31.5 -0.5,-0.5 Z"/></g>
<g><path style="opacity:1" fill="#26baa0" d="M 71.5,26.5 C 61.4944,26.3335 51.4944,26.5002 41.5,27C 45.3843,30.0608 49.051,33.2274 52.5,36.5C 49.8333,36.5 47.1667,36.5 44.5,36.5C 42.9669,34.6452 41.3003,32.8119 39.5,31C 36.7613,29.9741 34.428,28.4741 32.5,26.5C 45.5,25.1667 58.5,25.1667 71.5,26.5 Z"/></g>
<g><path style="opacity:1" fill="#22efad" d="M 71.5,26.5 C 69.4434,30.067 66.7768,33.2337 63.5,36C 59.8484,36.4986 56.1817,36.6653 52.5,36.5C 49.051,33.2274 45.3843,30.0608 41.5,27C 51.4944,26.5002 61.4944,26.3335 71.5,26.5 Z"/></g>
<g><path style="opacity:1" fill="#42b1cd" d="M 31.5,27.5 C 34.3829,30.9512 37.7162,33.9512 41.5,36.5C 39.1667,36.5 36.8333,36.5 34.5,36.5C 33.0787,33.9906 31.4121,31.6572 29.5,29.5C 29.8333,28.5 30.5,27.8333 31.5,27.5 Z"/></g>
<g><path style="opacity:1" fill="#38c2c5" d="M 32.5,26.5 C 34.428,28.4741 36.7613,29.9741 39.5,31C 41.3003,32.8119 42.9669,34.6452 44.5,36.5C 43.5,36.5 42.5,36.5 41.5,36.5C 37.7162,33.9512 34.3829,30.9512 31.5,27.5C 31.5,26.8333 31.8333,26.5 32.5,26.5 Z"/></g>
<g><path style="opacity:1" fill="#568dd7" d="M 29.5,29.5 C 31.4121,31.6572 33.0787,33.9906 34.5,36.5C 30.774,36.8226 27.1073,36.4892 23.5,35.5C 25.1878,33.1455 27.1878,31.1455 29.5,29.5 Z"/></g>
<g><path style="opacity:1" fill="#40beca" d="M 47.5,42.5 C 50.1667,42.5 52.8333,42.5 55.5,42.5C 57.6503,44.7596 59.8169,47.0929 62,49.5C 62.4828,50.448 62.6495,51.448 62.5,52.5C 60.5,52.5 58.5,52.5 56.5,52.5C 53.3366,49.394 50.3366,46.0606 47.5,42.5 Z"/></g>
<g><path style="opacity:1" fill="#5974c9" d="M 32.5,42.5 C 35.8333,42.5 39.1667,42.5 42.5,42.5C 46.2023,46.2034 50.2023,49.5367 54.5,52.5C 47.1667,53.8333 39.8333,53.8333 32.5,52.5C 36.5138,52.6655 40.5138,52.4988 44.5,52C 43.0611,51.0094 42.0611,49.676 41.5,48C 38.3487,46.335 35.3487,44.5017 32.5,42.5 Z"/></g>
<g><path style="opacity:1" fill="#30d6bb" d="M 55.5,42.5 C 58.1873,42.3359 60.854,42.5026 63.5,43C 66.3497,45.6824 69.0164,48.5157 71.5,51.5C 68.5719,52.4841 65.5719,52.8174 62.5,52.5C 62.6495,51.448 62.4828,50.448 62,49.5C 59.8169,47.0929 57.6503,44.7596 55.5,42.5 Z"/></g>
<g><path style="opacity:1" fill="#529dd7" d="M 42.5,42.5 C 44.1667,42.5 45.8333,42.5 47.5,42.5C 50.3366,46.0606 53.3366,49.394 56.5,52.5C 55.8333,52.5 55.1667,52.5 54.5,52.5C 50.2023,49.5367 46.2023,46.2034 42.5,42.5 Z"/></g>
<g><path style="opacity:1" fill="#7b60ed" d="M 32.5,42.5 C 35.3487,44.5017 38.3487,46.335 41.5,48C 42.0611,49.676 43.0611,51.0094 44.5,52C 40.5138,52.4988 36.5138,52.6655 32.5,52.5C 29.1877,49.8544 26.1877,46.8544 23.5,43.5C 26.4281,42.5159 29.4281,42.1826 32.5,42.5 Z"/></g>
<g><path style="opacity:1" fill="#8d50f6" d="M 40.5,58.5 C 42.2922,59.3091 44.2922,59.8091 46.5,60C 46.1667,60.3333 45.8333,60.6667 45.5,61C 48.0955,63.7682 50.7621,66.2682 53.5,68.5C 43.5,68.5 33.5,68.5 23.5,68.5C 26.7465,60.8983 32.4132,57.565 40.5,58.5 Z"/></g>
<g><path style="opacity:1" fill="#6163c8" d="M 49.5,58.5 C 52.1667,58.5 54.8333,58.5 57.5,58.5C 60.2178,60.9146 62.2178,63.9146 63.5,67.5C 57.2017,68.8301 50.5351,69.4968 43.5,69.5C 36.6581,69.4996 29.9914,69.1663 23.5,68.5C 33.5,68.5 43.5,68.5 53.5,68.5C 55.1992,68.6602 56.8659,68.4935 58.5,68C 56.1898,66.3626 54.6898,64.196 54,61.5C 52.5913,60.2189 51.0913,59.2189 49.5,58.5 Z"/></g>
<g><path style="opacity:1" fill="#5790d7" d="M 57.5,58.5 C 58.8333,58.5 60.1667,58.5 61.5,58.5C 63.1095,60.5899 64.4428,62.9233 65.5,65.5C 65.1667,66.5 64.5,67.1667 63.5,67.5C 62.2178,63.9146 60.2178,60.9146 57.5,58.5 Z"/></g>
<g><path style="opacity:1" fill="#4ba8cf" d="M 61.5,58.5 C 72.4961,57.1461 73.8295,59.4794 65.5,65.5C 64.4428,62.9233 63.1095,60.5899 61.5,58.5 Z"/></g>
<g><path style="opacity:1" fill="#971f44" d="M 74.5,62.5 C 79.0416,60.9456 83.375,61.6123 87.5,64.5C 86.4884,65.8717 85.4884,67.205 84.5,68.5C 81.8728,67.9084 79.2062,67.5751 76.5,67.5C 77.6728,65.4959 79.3395,63.9959 81.5,63C 79.1902,62.5034 76.8568,62.3367 74.5,62.5 Z"/></g>
<g><path style="opacity:1" fill="#795feb" d="M 40.5,58.5 C 43.5,58.5 46.5,58.5 49.5,58.5C 51.0913,59.2189 52.5913,60.2189 54,61.5C 54.6898,64.196 56.1898,66.3626 58.5,68C 56.8659,68.4935 55.1992,68.6602 53.5,68.5C 50.7621,66.2682 48.0955,63.7682 45.5,61C 45.8333,60.6667 46.1667,60.3333 46.5,60C 44.2922,59.8091 42.2922,59.3091 40.5,58.5 Z"/></g>
<g><path style="opacity:1" fill="#c1738c" d="M 76.5,67.5 C 79.2062,67.5751 81.8728,67.9084 84.5,68.5C 84.8333,69.1667 85.1667,69.8333 85.5,70.5C 85.0618,70.4346 84.7284,70.6012 84.5,71C 85.8228,71.8159 86.4894,72.9826 86.5,74.5C 86.1667,74.5 85.8333,74.5 85.5,74.5C 85.0472,73.5416 84.3805,72.7083 83.5,72C 80.28,70.4749 76.9467,69.8083 73.5,70C 72.1667,70.6667 72.1667,71.3333 73.5,72C 72.4479,73.1192 71.2812,73.6192 70,73.5C 68.5783,76.0301 68.245,78.6967 69,81.5C 69.3333,79.8333 69.6667,78.1667 70,76.5C 70.4396,78.8659 70.9396,81.1992 71.5,83.5C 70.6618,83.8417 70.3284,84.5084 70.5,85.5C 68.0181,83.4973 67.0181,80.8306 67.5,77.5C 68.3859,72.28 71.3859,68.9467 76.5,67.5 Z"/></g>
<g><path style="opacity:1" fill="#a44869" d="M 85.5,74.5 C 80.6606,73.6766 78.3272,75.6766 78.5,80.5C 75.872,80.9498 73.5387,81.9498 71.5,83.5C 70.9396,81.1992 70.4396,78.8659 70,76.5C 69.6667,78.1667 69.3333,79.8333 69,81.5C 68.245,78.6967 68.5783,76.0301 70,73.5C 71.2812,73.6192 72.4479,73.1192 73.5,72C 72.1667,71.3333 72.1667,70.6667 73.5,70C 76.9467,69.8083 80.28,70.4749 83.5,72C 84.3805,72.7083 85.0472,73.5416 85.5,74.5 Z"/></g>
<g><path style="opacity:1" fill="#5c1b45" d="M 87.5,64.5 C 89.5,65.8333 91.1667,67.5 92.5,69.5C 91.5272,71.1494 90.5272,72.816 89.5,74.5C 88.5275,72.8608 87.1942,71.5274 85.5,70.5C 85.1667,69.8333 84.8333,69.1667 84.5,68.5C 85.4884,67.205 86.4884,65.8717 87.5,64.5 Z"/></g>
<g><path style="opacity:1" fill="#cd244d" d="M 74.5,62.5 C 76.8568,62.3367 79.1902,62.5034 81.5,63C 79.3395,63.9959 77.6728,65.4959 76.5,67.5C 71.3859,68.9467 68.3859,72.28 67.5,77.5C 62.9896,83.3452 61.323,82.3452 62.5,74.5C 64.1667,68.1667 68.1667,64.1667 74.5,62.5 Z"/></g>
<g><path style="opacity:0.997" fill="#23153e" d="M 92.5,69.5 C 93.6873,71.0725 94.6873,72.7392 95.5,74.5C 95.5,77.1667 95.5,79.8333 95.5,82.5C 94.295,85.2341 92.795,87.9007 91,90.5C 88.3178,92.585 85.4845,94.2517 82.5,95.5C 79.8333,95.5 77.1667,95.5 74.5,95.5C 71.6733,94.5812 69.34,92.9145 67.5,90.5C 68.5,89.1667 69.5,87.8333 70.5,86.5C 74.4409,90.5785 78.7742,91.2452 83.5,88.5C 88.7525,85.3198 90.7525,80.6531 89.5,74.5C 90.5272,72.816 91.5272,71.1494 92.5,69.5 Z"/></g>
<g><path style="opacity:1" fill="#901f45" d="M 62.5,74.5 C 61.323,82.3452 62.9896,83.3452 67.5,77.5C 67.0181,80.8306 68.0181,83.4973 70.5,85.5C 70.5,85.8333 70.5,86.1667 70.5,86.5C 69.5,87.8333 68.5,89.1667 67.5,90.5C 62.3026,86.1419 60.636,80.8086 62.5,74.5 Z"/></g>
<g><path style="opacity:1" fill="#471e45" d="M 85.5,74.5 C 85.8333,74.5 86.1667,74.5 86.5,74.5C 89.034,77.4222 89.034,80.4222 86.5,83.5C 83.014,84.1715 80.3473,83.1715 78.5,80.5C 78.3272,75.6766 80.6606,73.6766 85.5,74.5 Z"/></g>
<g><path style="opacity:1" fill="#dbd6de" d="M 85.5,70.5 C 87.1942,71.5274 88.5275,72.8608 89.5,74.5C 90.7525,80.6531 88.7525,85.3198 83.5,88.5C 83.0618,88.5654 82.7284,88.3988 82.5,88C 84.0414,86.6288 85.3747,85.1288 86.5,83.5C 89.034,80.4222 89.034,77.4222 86.5,74.5C 86.4894,72.9826 85.8228,71.8159 84.5,71C 84.7284,70.6012 85.0618,70.4346 85.5,70.5 Z"/></g>
<g><path style="opacity:1" fill="#7b5271" d="M 78.5,80.5 C 80.3473,83.1715 83.014,84.1715 86.5,83.5C 85.3747,85.1288 84.0414,86.6288 82.5,88C 82.7284,88.3988 83.0618,88.5654 83.5,88.5C 78.7742,91.2452 74.4409,90.5785 70.5,86.5C 70.5,86.1667 70.5,85.8333 70.5,85.5C 70.3284,84.5084 70.6618,83.8417 71.5,83.5C 73.5387,81.9498 75.872,80.9498 78.5,80.5 Z"/></g>
<g><path style="opacity:0.977" fill="#010104" d="M 95.5,82.5 C 95.5,86.8333 95.5,91.1667 95.5,95.5C 91.1667,95.5 86.8333,95.5 82.5,95.5C 85.4845,94.2517 88.3178,92.585 91,90.5C 92.795,87.9007 94.295,85.2341 95.5,82.5 Z"/></g>
</svg>
