<?xml version="1.0" encoding="UTF-8"?>
<!DOCTYPE svg PUBLIC "-//W3C//DTD SVG 1.1//EN" "http://www.w3.org/Graphics/SVG/1.1/DTD/svg11.dtd">
<svg xmlns="http://www.w3.org/2000/svg" version="1.1" width="96px" height="96px" style="shape-rendering:geometricPrecision; text-rendering:geometricPrecision; image-rendering:optimizeQuality; fill-rule:evenodd; clip-rule:evenodd" xmlns:xlink="http://www.w3.org/1999/xlink">
<g><path style="opacity:0.995" fill="#013270" d="M 7.5,-0.5 C 33.8333,-0.5 60.1667,-0.5 86.5,-0.5C 90.5,1.5 93.5,4.5 95.5,8.5C 95.5,34.5 95.5,60.5 95.5,86.5C 93.5,90.5 90.5,93.5 86.5,95.5C 60.1667,95.5 33.8333,95.5 7.5,95.5C 4.5,93.1667 1.83333,90.5 -0.5,87.5C -0.5,60.8333 -0.5,34.1667 -0.5,7.5C 1.83333,4.5 4.5,1.83333 7.5,-0.5 Z"/></g>
<g><path style="opacity:1" fill="#0de23b" d="M 48.5,36.5 C 50.0941,39.7642 52.4275,42.4309 55.5,44.5C 55.6621,46.5273 55.4955,48.5273 55,50.5C 52.6378,54.0266 49.8045,57.0266 46.5,59.5C 42.3361,64.4968 37.6694,68.9968 32.5,73C 24.3809,74.8745 20.5476,71.7078 21,63.5C 26.3877,58.6151 31.2211,53.2817 35.5,47.5C 31.5553,42.0524 27.0553,37.0524 22,32.5C 20.1255,24.3809 23.2922,20.5476 31.5,21C 37.3824,26.0545 43.0491,31.2212 48.5,36.5 Z"/></g>
<g><path style="opacity:1" fill="#0fdf3d" d="M 68.5,36.5 C 61.5,36.8333 58.1667,33.5 58.5,26.5C 61.0076,20.7957 65.0076,19.2957 70.5,22C 76.24,27.7889 75.5733,32.6222 68.5,36.5 Z"/></g>
<g><path style="opacity:1" fill="#07775b" d="M 58.5,26.5 C 58.1667,33.5 61.5,36.8333 68.5,36.5C 65.9015,40.438 62.9015,44.1047 59.5,47.5C 58.1667,46.5 56.8333,45.5 55.5,44.5C 52.4275,42.4309 50.0941,39.7642 48.5,36.5C 51.5,32.8333 54.8333,29.5 58.5,26.5 Z"/></g>
<g><path style="opacity:1" fill="#10b215" d="M 55.5,44.5 C 56.8333,45.5 58.1667,46.5 59.5,47.5C 64.496,52.6638 69.3294,57.9972 74,63.5C 74.5,71 71,74.5 63.5,74C 57.9414,68.9337 52.2747,64.1004 46.5,59.5C 49.8045,57.0266 52.6378,54.0266 55,50.5C 55.4955,48.5273 55.6621,46.5273 55.5,44.5 Z"/></g>
</svg>
